<?xml version="1.0" standalone="no"?>
<!DOCTYPE svg PUBLIC "-//W3C//DTD SVG 20010904//EN"
 "http://www.w3.org/TR/2001/REC-SVG-20010904/DTD/svg10.dtd">
<svg version="1.0" xmlns="http://www.w3.org/2000/svg"
 width="1000.000000pt" height="1000.000000pt" viewBox="0 0 1000.000000 1000.000000"
 preserveAspectRatio="xMidYMid meet">
<metadata>
  <rdf:RDF
    xmlns:rdf = "http://www.w3.org/1999/02/22-rdf-syntax-ns#"
    xmlns:rdfs = "http://www.w3.org/2000/01/rdf-schema#"
    xmlns:dc = "http://purl.org/dc/elements/1.1/"
    xmlns:cc = "http://creativecommons.org/ns#">
    <cc:license rdf:resource="http://creativecommons.org/publicdomain/zero/1.0/deed.en"/>
    <cc:permits rdf:resource="http://creativecommons.org/ns#Reproduction"/>
    <rdf:Description about="https://nft.mir.one/fingerprints"
      dc:title="TON Fingerprints"
      dc:description="This is a unique digital fingerprint created based on the algorithm for generating basic rings using a noise texture. Like human fingerprints, you can now use it for the Web3 and Metaverse era as digital biometric information."
      dc:publisher="https://nft.mir.one"
      dc:date="2022-02-22"
      dc:format="image/svg+xml"
      dc:language="en" >
      <dc:creator>
      <rdf:Bag>
        <rdf:li>EQBondcvD2_aOFADXSWJHs4ZazQDuEl9_wNvGGPxI8hGuOFU</rdf:li>
        <rdf:li>ipfs://bafkreihj7iub3fhmhq6jn62noukt5wxn3gv6bvcg7wmt6ywvlurefezckq</rdf:li>
      </rdf:Bag>
      </dc:creator>
    </rdf:Description>
  </rdf:RDF>
</metadata>
<g transform="translate(0.000000,1000.000000) scale(0.100000,-0.100000)"
fill="#1b1f23" stroke="none">
<path d="M4850 7800 c96 -4 253 -16 348 -25 95 -9 175 -15 178 -12 14 14 -274
39 -476 42 -225 3 -225 3 -50 -5z"/>
<path d="M5403 7753 c9 -2 23 -2 30 0 6 3 -1 5 -18 5 -16 0 -22 -2 -12 -5z"/>
<path d="M5468 7743 c7 -3 16 -2 19 1 4 3 -2 6 -13 5 -11 0 -14 -3 -6 -6z"/>
<path d="M4716 7589 c-295 -24 -497 -82 -826 -237 -85 -40 -85 -40 -5 -36 44
2 103 8 130 14 218 43 575 64 945 57 609 -13 885 -71 1292 -272 62 -31 135
-67 161 -80 65 -32 46 -12 -86 91 -220 171 -410 276 -642 353 -275 92 -663
136 -969 110z"/>
<path d="M4565 7195 c-5 -2 -127 -9 -270 -15 -143 -6 -287 -16 -320 -21 -114
-20 -281 -112 -476 -262 -96 -74 -96 -74 -50 -70 25 3 104 27 174 54 239 92
427 124 485 83 33 -23 25 -55 -18 -71 -19 -7 -93 -33 -165 -58 -169 -60 -397
-172 -458 -226 -41 -35 -47 -45 -42 -68 9 -41 -9 -76 -99 -196 -102 -135 -163
-230 -216 -334 -49 -99 -131 -283 -127 -287 3 -4 90 109 163 211 80 114 200
248 366 411 166 163 182 175 398 289 185 97 228 126 285 185 22 23 56 50 75
60 95 49 345 73 665 64 229 -6 230 -6 345 22 152 38 345 40 484 6 102 -25 244
-80 326 -125 225 -125 460 -344 686 -641 46 -61 106 -136 134 -166 50 -55 50
-55 -1 45 -213 414 -439 713 -646 853 -191 129 -474 225 -747 251 -97 10 -926
15 -951 6z"/>
<path d="M5446 6849 c-64 -9 -99 -27 -116 -60 -24 -44 29 -106 111 -129 28 -8
39 -5 77 20 80 53 196 39 357 -42 233 -117 466 -338 682 -646 215 -307 359
-575 433 -808 18 -55 41 -120 51 -146 11 -26 26 -71 33 -100 21 -76 19 -30 -5
140 -38 271 -80 438 -161 632 -77 185 -158 315 -318 514 -378 471 -763 681
-1144 625z"/>
<path d="M4485 6707 c-109 -24 -178 -50 -355 -138 -328 -164 -504 -283 -670
-456 -168 -173 -284 -341 -345 -501 -124 -324 -158 -728 -91 -1091 15 -79 26
-158 24 -175 -3 -27 -8 -32 -38 -36 -32 -5 -33 -7 -12 -14 13 -4 33 -29 49
-59 14 -29 44 -78 66 -111 92 -136 110 -206 92 -349 -7 -52 -5 -63 25 -123 67
-137 271 -366 402 -454 88 -58 305 -162 414 -198 184 -61 416 -103 577 -103
63 0 99 6 154 25 44 16 132 33 235 46 198 26 327 54 518 113 80 25 201 61 270
81 69 19 145 42 170 51 25 9 85 23 133 30 57 9 103 23 132 39 24 14 71 32 104
40 129 30 204 101 369 350 115 172 171 271 160 281 -9 10 -42 -2 -73 -27 -14
-11 -97 -104 -184 -207 -190 -223 -283 -316 -305 -308 -27 10 -19 68 15 123
42 66 305 387 396 484 78 83 109 137 141 240 39 128 55 256 55 435 0 238 -22
326 -154 623 -267 600 -575 1002 -935 1218 -122 74 -281 124 -299 94 -14 -23
11 -52 108 -119 150 -104 251 -187 353 -293 255 -264 446 -608 559 -1006 4
-13 33 -53 65 -88 70 -77 95 -136 117 -278 19 -129 12 -318 -16 -431 -26 -102
-103 -256 -183 -367 -152 -209 -393 -511 -453 -565 -96 -89 -325 -194 -612
-282 -292 -89 -373 -102 -699 -108 -428 -8 -625 21 -824 123 -221 113 -466
275 -578 382 -79 76 -112 125 -112 165 0 56 58 32 205 -86 160 -129 286 -200
409 -231 58 -15 59 -15 87 8 36 30 72 41 179 56 141 18 190 41 190 86 0 26
-50 66 -83 66 -12 0 -46 -7 -76 -16 -36 -10 -104 -17 -200 -18 -141 -3 -148
-2 -205 25 -163 76 -347 255 -397 387 -23 62 -25 112 -16 395 15 440 34 589
108 809 51 154 120 291 247 494 126 201 152 252 152 297 0 95 -102 25 -250
-171 -185 -244 -307 -503 -360 -764 -31 -151 -39 -295 -33 -599 6 -260 5 -278
-12 -295 -18 -18 -20 -18 -47 13 -24 27 -28 40 -28 93 0 34 -9 143 -21 242
-44 375 -3 662 139 969 108 233 311 503 442 587 25 16 75 36 111 43 50 11 86
28 158 76 232 156 440 226 671 224 279 -1 441 -85 767 -396 110 -106 203 -218
239 -290 25 -48 35 -109 21 -123 -17 -17 -59 13 -120 84 -301 357 -662 538
-1036 519 -64 -4 -143 -13 -176 -22 -87 -24 -194 -77 -248 -125 -56 -50 -85
-96 -135 -221 -22 -54 -73 -147 -121 -219 -195 -295 -292 -568 -321 -908 -38
-433 -39 -448 -29 -525 19 -149 77 -257 203 -374 110 -103 229 -160 270 -130
18 13 18 15 1 43 -10 16 -45 53 -79 83 -34 30 -85 82 -113 115 -124 143 -199
369 -145 436 24 29 30 21 82 -112 48 -126 111 -225 212 -340 41 -46 93 -106
116 -134 64 -77 194 -137 209 -98 10 26 -20 71 -118 179 -127 140 -234 285
-303 412 -33 59 -74 127 -92 151 -17 23 -38 66 -44 94 -17 69 -7 214 24 370
46 225 111 393 212 546 91 136 140 178 318 271 176 92 235 116 249 102 20 -20
-43 -90 -160 -177 -191 -143 -254 -210 -333 -356 -59 -109 -87 -194 -120 -357
-17 -80 -39 -171 -50 -201 -36 -101 -22 -186 52 -335 86 -170 162 -274 376
-510 188 -207 206 -223 271 -242 77 -22 261 -12 396 21 498 123 836 393 1000
799 58 143 70 225 69 457 -1 232 -12 307 -84 536 -23 71 -55 173 -72 227 -47
152 -123 264 -322 477 -49 52 -133 154 -186 225 -148 198 -210 248 -365 291
-79 22 -364 29 -450 11z m-45 -678 c25 -5 70 -25 100 -43 55 -34 55 -34 215
-38 147 -5 168 -8 255 -37 177 -60 290 -140 481 -344 151 -161 199 -237 243
-390 167 -576 -163 -1144 -761 -1308 -96 -26 -275 -36 -354 -20 -207 43 -481
295 -633 581 -78 148 -111 291 -71 306 26 10 43 -14 110 -153 69 -143 98 -190
182 -296 112 -140 285 -259 424 -292 351 -82 788 169 928 535 42 110 55 181
55 305 -1 202 -68 368 -185 460 -51 40 -327 135 -532 184 -70 17 -141 38 -158
47 -56 29 -119 2 -264 -111 -129 -101 -226 -237 -260 -366 -63 -236 66 -547
287 -690 117 -75 281 -101 403 -65 53 16 154 73 194 109 96 88 156 223 155
352 -2 175 -98 308 -273 377 -85 33 -217 32 -291 -3 -79 -37 -125 -81 -162
-157 -28 -55 -32 -76 -32 -136 0 -92 30 -162 91 -216 55 -48 100 -64 170 -58
60 5 95 26 131 78 34 51 30 104 -12 146 -39 39 -76 44 -106 14 -23 -23 -25
-41 -9 -57 29 -29 -18 -55 -66 -37 -37 14 -57 101 -36 156 12 33 59 77 99 94
69 28 170 7 231 -49 39 -36 71 -115 71 -178 0 -136 -85 -244 -225 -284 -252
-74 -517 204 -468 491 25 142 127 276 260 340 170 81 484 11 647 -146 228
-219 175 -632 -108 -847 -202 -153 -430 -180 -641 -76 -182 90 -318 260 -436
548 -31 74 -33 88 -33 190 1 95 4 120 28 184 53 141 99 204 277 381 94 94 173
181 183 203 42 92 27 157 -39 157 -19 0 -38 6 -42 14 -34 57 -146 45 -300 -33
-78 -39 -103 -40 -103 -6 0 57 127 155 235 181 63 15 89 16 145 3z"/>
<path d="M4814 5741 c-22 -10 -50 -31 -62 -46 -22 -28 -29 -69 -14 -79 5 -3
62 -10 128 -15 139 -12 178 -22 337 -85 65 -26 125 -46 134 -44 24 5 37 32 29
61 -14 56 -225 187 -348 216 -71 17 -157 13 -204 -8z"/>
<path d="M3314 6541 c-21 -16 -61 -52 -89 -81 -56 -58 -66 -62 98 41 73 46 89
69 48 69 -10 0 -36 -13 -57 -29z"/>
<path d="M5421 6521 c-25 -45 23 -121 181 -289 138 -146 226 -257 288 -366 95
-165 174 -371 211 -549 20 -96 21 -121 14 -397 -8 -337 -10 -351 -106 -543
-150 -299 -373 -520 -674 -666 -154 -75 -532 -200 -710 -234 -44 -9 -142 -28
-217 -42 -122 -24 -157 -26 -303 -23 -162 3 -165 3 -165 -18 0 -46 85 -101
190 -123 91 -20 258 -29 380 -20 176 13 208 22 288 83 61 47 92 61 229 106
420 138 606 234 801 415 155 144 268 304 400 565 111 219 174 302 204 272 48
-48 -60 -337 -213 -572 -290 -444 -586 -634 -1268 -811 -49 -13 -94 -31 -110
-45 -26 -24 -26 -24 -1 -45 23 -20 33 -21 130 -16 258 13 749 190 957 346 130
97 276 264 435 496 215 314 254 469 218 856 -12 125 -32 182 -66 187 -34 5
-59 -37 -89 -150 -26 -96 -32 -107 -80 -155 -52 -53 -90 -67 -101 -38 -3 8 10
79 30 157 51 205 61 289 46 391 -34 237 -199 571 -404 815 -96 114 -439 432
-466 432 -11 0 -24 -8 -29 -19z"/>
<path d="M7091 4844 c0 -11 3 -14 6 -6 3 7 2 16 -1 19 -3 4 -6 -2 -5 -13z"/>
<path d="M3109 3849 c13 -10 32 -19 42 -19 34 0 20 16 -23 27 -43 11 -43 11
-19 -8z"/>
<path d="M6670 3401 c-52 -53 -143 -138 -201 -189 -58 -50 -128 -120 -154
-154 -214 -277 -396 -435 -643 -558 -119 -59 -201 -85 -334 -104 -170 -25
-266 -29 -388 -16 -150 15 -546 82 -680 114 -115 27 -303 65 -308 61 -5 -4
305 -124 398 -153 203 -64 525 -116 710 -115 120 1 360 37 455 68 80 26 254
117 361 188 120 78 295 229 385 329 103 114 323 380 382 460 59 81 120 169
115 167 -2 0 -46 -45 -98 -98z"/>
<path d="M6012 3101 c-87 -43 -107 -49 -182 -53 -67 -4 -122 -17 -260 -62
-213 -69 -370 -102 -555 -117 -161 -12 -210 -23 -219 -46 -9 -23 20 -51 68
-65 23 -7 99 -12 171 -12 221 1 446 57 681 168 127 61 154 67 154 36 0 -77
-250 -217 -493 -275 -232 -56 -440 -51 -636 14 -64 22 -201 56 -305 76 -335
65 -592 154 -802 277 -32 19 -90 48 -129 66 -70 32 -70 32 -10 -25 220 -206
460 -352 707 -431 133 -43 607 -138 754 -152 87 -8 152 -8 235 0 343 32 605
156 815 387 122 133 154 179 154 219 0 19 -3 34 -7 35 -5 0 -16 2 -26 4 -9 2
-61 -18 -115 -44z"/>
</g>
</svg>
