<?xml version="1.0" standalone="no"?>
<!DOCTYPE svg PUBLIC "-//W3C//DTD SVG 20010904//EN"
 "http://www.w3.org/TR/2001/REC-SVG-20010904/DTD/svg10.dtd">
<svg version="1.0" xmlns="http://www.w3.org/2000/svg"
 width="1000.000000pt" height="1000.000000pt" viewBox="0 0 1000.000000 1000.000000"
 preserveAspectRatio="xMidYMid meet">
<metadata>
  <rdf:RDF
    xmlns:rdf = "http://www.w3.org/1999/02/22-rdf-syntax-ns#"
    xmlns:rdfs = "http://www.w3.org/2000/01/rdf-schema#"
    xmlns:dc = "http://purl.org/dc/elements/1.1/"
    xmlns:cc = "http://creativecommons.org/ns#">
    <cc:license rdf:resource="http://creativecommons.org/publicdomain/zero/1.0/deed.en"/>
    <cc:permits rdf:resource="http://creativecommons.org/ns#Reproduction"/>
    <rdf:Description about="https://nft.mir.one/fingerprints"
      dc:title="TON Fingerprints"
      dc:description="This is a unique digital fingerprint created based on the algorithm for generating basic rings using a noise texture. Like human fingerprints, you can now use it for the Web3 and Metaverse era as digital biometric information."
      dc:publisher="https://nft.mir.one"
      dc:date="2022-02-22"
      dc:format="image/svg+xml"
      dc:language="en" >
      <dc:creator>
      <rdf:Bag>
        <rdf:li>EQBondcvD2_aOFADXSWJHs4ZazQDuEl9_wNvGGPxI8hGuOFU</rdf:li>
        <rdf:li>ipfs://bafkreihj7iub3fhmhq6jn62noukt5wxn3gv6bvcg7wmt6ywvlurefezckq</rdf:li>
      </rdf:Bag>
      </dc:creator>
    </rdf:Description>
  </rdf:RDF>
</metadata>
<g transform="translate(0.000000,1000.000000) scale(0.100000,-0.100000)"
fill="#1b1f23" stroke="none">
<path d="M4695 7735 c44 -13 125 -36 180 -51 55 -14 183 -50 285 -79 102 -30
284 -82 405 -115 210 -58 547 -164 621 -195 57 -24 39 -9 -53 43 -211 119
-333 170 -568 241 -382 116 -612 163 -840 176 -110 6 -110 6 -30 -20z"/>
<path d="M4240 7586 c-58 -7 -93 -14 -78 -15 15 0 39 -6 55 -12 15 -6 102 -24
193 -39 297 -52 476 -93 826 -189 459 -126 706 -210 1029 -352 98 -44 197 -84
220 -90 22 -5 49 -13 60 -16 19 -6 -31 31 -240 175 -210 145 -357 216 -599
288 -269 80 -789 222 -876 239 -112 22 -446 28 -590 11z"/>
<path d="M4085 7390 c-77 -16 -245 -68 -282 -89 -6 -3 50 -4 124 -2 219 5 470
-28 858 -114 542 -121 989 -263 1588 -505 219 -88 284 -110 305 -105 18 5 22
9 12 13 -8 3 -55 37 -105 77 -170 136 -209 157 -516 278 -361 143 -822 281
-1285 386 -362 82 -525 96 -699 61z"/>
<path d="M3905 7189 c-33 -4 -77 -6 -97 -3 -64 10 -46 -32 29 -70 44 -22 157
-47 458 -101 334 -60 455 -85 700 -147 385 -97 769 -217 1225 -383 331 -120
525 -177 588 -173 47 3 47 3 -25 59 -39 31 -105 73 -145 93 -74 36 -641 250
-863 325 -500 168 -1117 320 -1545 380 -194 27 -254 31 -325 20z"/>
<path d="M3630 7003 c-30 -9 -74 -21 -97 -27 -41 -12 -41 -12 15 -28 31 -10
99 -27 151 -39 51 -12 133 -41 182 -65 114 -56 119 -57 463 -114 436 -72 558
-103 1336 -334 342 -102 506 -157 666 -226 232 -100 386 -195 501 -311 32 -32
87 -85 123 -117 64 -57 64 -57 -4 73 -124 236 -203 330 -321 386 -113 53 -523
205 -763 283 -624 204 -1042 312 -1542 401 -223 40 -354 70 -469 110 -86 29
-159 31 -241 8z"/>
<path d="M3540 6795 c-57 -18 -189 -78 -190 -86 -1 -22 428 -28 470 -6 112 57
-134 137 -280 92z"/>
<path d="M3850 6609 c-42 -10 -143 -22 -230 -27 -175 -10 -215 -22 -336 -98
-40 -24 -80 -45 -90 -45 -11 -1 4 -5 31 -9 48 -7 338 6 663 31 367 27 897 -60
1297 -214 72 -27 166 -60 210 -72 132 -38 385 -93 473 -104 106 -14 204 -47
344 -117 251 -126 441 -267 585 -436 124 -146 149 -198 94 -198 -35 0 -58 18
-186 139 -193 184 -374 313 -593 424 -149 76 -231 104 -262 87 -48 -26 -7 -66
200 -195 287 -180 377 -247 634 -478 183 -165 231 -224 302 -368 61 -124 106
-201 99 -169 -3 14 -18 93 -35 176 -16 84 -43 195 -60 249 -27 83 -30 105 -25
158 5 50 2 75 -15 127 -40 119 -79 180 -179 280 -118 117 -239 200 -436 296
-188 91 -264 118 -589 204 -144 38 -355 99 -471 135 -380 119 -661 184 -983
224 -200 26 -340 26 -442 0z"/>
<path d="M3870 6334 c-14 -1 -135 -8 -270 -14 -235 -11 -247 -13 -307 -40 -34
-16 -89 -47 -122 -69 -33 -23 -66 -41 -73 -42 -7 0 5 -6 27 -13 42 -13 56 -12
505 14 535 32 1116 -30 1409 -152 86 -36 148 -86 138 -111 -9 -24 -48 -21
-173 14 -392 110 -936 152 -1479 114 -137 -9 -266 -21 -286 -26 -19 -5 -67
-29 -105 -54 -38 -24 -79 -45 -91 -45 -23 0 -23 0 -3 -35 27 -48 26 -56 -19
-113 -40 -50 -40 -50 -5 -40 20 5 62 26 94 47 90 58 217 87 503 112 161 14
554 7 777 -14 91 -9 224 -21 295 -26 181 -14 528 -89 603 -132 134 -75 450
-326 560 -444 38 -40 79 -100 111 -162 29 -54 103 -168 165 -253 261 -359 343
-496 401 -674 62 -190 79 -325 81 -631 1 -378 -2 -366 54 -169 60 214 80 326
87 484 6 143 -7 228 -63 398 -45 137 -80 201 -164 295 -38 43 -110 130 -159
195 -48 64 -134 173 -190 242 -101 125 -122 163 -103 182 33 33 206 -133 384
-369 140 -184 175 -212 200 -158 14 30 -7 89 -63 182 -93 155 -278 352 -388
413 -173 97 -235 140 -451 314 -292 234 -352 291 -395 377 -59 115 -175 194
-390 264 -288 95 -855 167 -1095 139z"/>
<path d="M5463 6014 c-26 -11 -14 -56 25 -93 107 -102 468 -383 658 -511 173
-117 264 -191 358 -291 177 -188 256 -348 256 -520 0 -26 13 -91 29 -145 39
-130 68 -246 86 -341 9 -43 24 -105 34 -138 19 -59 19 -59 26 25 12 124 9 459
-4 580 -16 143 -34 209 -86 317 -54 112 -128 205 -271 343 -128 124 -220 197
-444 350 -226 155 -309 220 -369 290 -38 44 -71 69 -126 96 -69 34 -144 51
-172 38z"/>
<path d="M3650 5753 c-164 -13 -402 -68 -490 -113 -33 -17 -106 -90 -197 -197
-42 -50 -42 -50 0 -43 23 4 87 25 142 47 152 62 286 102 419 126 103 19 157
22 366 22 259 -1 349 -11 497 -56 74 -23 528 -247 665 -328 344 -203 636 -525
814 -896 116 -241 136 -398 90 -690 -59 -374 -87 -486 -157 -632 -49 -103
-120 -191 -205 -257 -37 -28 -112 -93 -168 -144 -55 -51 -163 -140 -239 -199
-75 -58 -147 -119 -159 -137 -12 -17 -32 -43 -45 -57 -39 -43 493 226 614 310
233 162 362 327 444 568 95 280 131 699 80 940 -41 198 -129 394 -276 613
-289 432 -543 644 -1029 855 -165 71 -218 110 -202 151 7 18 18 15 201 -43
455 -147 758 -376 1053 -796 235 -334 351 -579 398 -837 25 -132 25 -452 1
-610 -38 -248 -100 -444 -182 -575 -47 -75 -186 -232 -318 -358 -82 -78 -82
-78 -7 -26 312 219 458 377 575 621 113 236 130 327 122 652 -4 168 -10 245
-26 320 -59 287 -133 425 -526 995 -110 159 -194 254 -317 359 -198 167 -367
266 -557 326 -214 68 -321 79 -433 46 -41 -12 -62 -11 -195 8 -81 13 -188 27
-238 32 -84 9 -415 11 -515 3z"/>
<path d="M3650 5459 c-151 -19 -323 -63 -473 -121 -63 -23 -92 -41 -125 -76
-34 -36 -127 -164 -140 -194 -6 -13 71 14 188 67 381 172 738 221 1096 150
258 -52 609 -208 854 -380 378 -266 664 -697 710 -1072 11 -89 6 -109 -24 -97
-23 9 -41 47 -83 172 -63 192 -141 341 -265 509 -212 289 -481 483 -894 646
-260 104 -418 133 -664 124 -225 -8 -393 -48 -629 -148 -124 -52 -158 -84
-221 -202 -23 -45 -52 -92 -64 -105 -21 -23 -21 -23 9 -8 17 9 35 16 41 16 6
0 53 26 105 57 346 209 763 296 1074 223 103 -24 409 -137 545 -201 337 -160
585 -409 774 -777 122 -240 154 -342 107 -342 -30 0 -69 55 -171 238 -146 264
-208 352 -339 482 -198 197 -380 300 -662 374 -99 27 -136 41 -173 70 -69 53
-109 61 -291 61 -179 0 -256 -13 -440 -72 -128 -41 -353 -152 -396 -195 -16
-17 -39 -49 -51 -72 -24 -47 -88 -206 -83 -206 18 0 71 34 124 79 255 213 580
331 961 347 145 6 174 -1 154 -33 -16 -26 -55 -43 -137 -58 -40 -8 -133 -26
-207 -40 -232 -44 -419 -118 -577 -227 -137 -94 -176 -158 -208 -335 -9 -48
-20 -101 -25 -116 -9 -28 -9 -28 21 -3 17 14 34 26 38 26 4 0 38 47 76 105 97
149 172 216 337 295 104 51 236 92 397 125 68 14 167 39 220 56 129 42 221 48
330 20 101 -25 241 -90 347 -161 115 -77 259 -226 313 -325 70 -127 218 -371
293 -481 96 -143 102 -163 102 -319 0 -110 -5 -151 -32 -268 -41 -177 -41
-216 -2 -229 41 -14 107 57 155 166 63 142 87 256 110 516 16 174 16 174 54
210 61 56 75 141 47 277 -82 387 -426 834 -839 1090 -194 120 -569 290 -717
327 -176 43 -466 59 -650 35z"/>
<path d="M4240 4529 c-24 -5 -53 -17 -63 -27 -17 -18 -17 -20 -2 -36 9 -9 28
-19 43 -22 141 -30 235 -59 314 -97 115 -55 277 -161 383 -251 103 -87 111
-91 124 -67 40 74 -122 250 -354 384 -100 58 -198 95 -295 113 -85 15 -88 15
-150 3z"/>
<path d="M3879 4415 c-273 -51 -569 -213 -569 -310 0 -49 38 -43 197 33 168
80 245 108 353 128 139 25 260 14 425 -37 71 -22 125 -61 125 -90 0 -10 -2
-19 -4 -19 -2 0 -48 10 -102 22 -78 17 -131 22 -254 22 -179 0 -240 -13 -425
-90 -60 -26 -148 -62 -195 -80 -166 -66 -172 -71 -197 -144 -19 -59 -48 -248
-38 -258 2 -2 45 40 97 93 129 134 248 212 443 288 136 53 224 68 465 79 321
14 306 15 390 -22 107 -46 301 -157 368 -210 124 -99 233 -278 240 -394 3 -48
0 -66 -12 -79 -26 -25 -41 -12 -75 65 -45 101 -131 226 -200 290 -116 107
-271 194 -412 229 -74 19 -103 21 -283 16 -173 -4 -214 -8 -297 -30 -106 -28
-212 -75 -309 -138 -89 -57 -206 -173 -221 -218 -15 -44 -17 -176 -5 -299 9
-92 9 -93 21 -58 7 20 17 42 23 49 5 6 17 37 27 67 32 102 83 181 180 277 80
79 105 98 196 142 153 73 205 85 389 86 177 0 253 -16 383 -81 148 -75 240
-158 352 -319 39 -55 89 -121 112 -147 54 -61 67 -108 60 -228 -7 -124 -27
-187 -83 -256 -25 -30 -68 -89 -96 -130 -56 -82 -106 -131 -183 -175 -77 -44
-116 -35 -101 24 3 12 42 67 86 121 96 118 151 207 180 296 18 53 21 82 18
157 -4 87 -6 97 -56 195 -91 181 -190 282 -357 363 -161 78 -316 102 -459 71
-256 -57 -490 -298 -488 -501 1 -76 38 -204 95 -325 40 -88 118 -220 102 -175
-4 11 -11 52 -15 90 -4 39 -13 93 -20 120 -19 77 -17 239 4 310 43 145 143
268 271 331 111 55 227 59 276 10 14 -14 51 -31 88 -40 238 -61 400 -289 363
-513 -25 -152 -157 -330 -295 -398 -90 -44 -162 -52 -311 -35 -96 11 -120 11
-171 -2 -60 -16 -60 -16 -20 -22 22 -4 92 -26 155 -48 170 -61 273 -85 401
-96 77 -7 129 -17 159 -31 97 -45 245 -16 352 69 35 27 83 62 108 76 117 70
177 167 191 308 4 45 18 178 30 298 21 206 22 220 6 298 -26 134 -121 309
-260 478 -56 69 -62 73 -92 68 -46 -9 -95 12 -231 96 -231 144 -372 219 -485
259 -61 22 -126 50 -143 62 -39 28 -154 33 -267 12z m1256 -1715 c7 -21 -17
-70 -34 -70 -23 0 -21 47 2 78 14 18 25 15 32 -8z"/>
<path d="M4173 3525 c-191 -59 -317 -266 -283 -465 33 -197 180 -312 377 -297
283 21 439 350 263 551 -43 49 -98 76 -155 76 -61 0 -103 -19 -143 -64 -54
-62 -39 -156 25 -156 25 0 45 22 43 47 -4 37 0 43 34 43 71 0 111 -102 71
-180 -52 -101 -211 -119 -286 -34 -106 121 -59 291 110 399 63 40 84 71 60 86
-20 12 -67 10 -116 -6z"/>
</g>
</svg>
