<?xml version="1.0" standalone="no"?>
<!DOCTYPE svg PUBLIC "-//W3C//DTD SVG 20010904//EN"
 "http://www.w3.org/TR/2001/REC-SVG-20010904/DTD/svg10.dtd">
<svg version="1.0" xmlns="http://www.w3.org/2000/svg"
 width="1000.000000pt" height="1000.000000pt" viewBox="0 0 1000.000000 1000.000000"
 preserveAspectRatio="xMidYMid meet">
<metadata>
  <rdf:RDF
    xmlns:rdf = "http://www.w3.org/1999/02/22-rdf-syntax-ns#"
    xmlns:rdfs = "http://www.w3.org/2000/01/rdf-schema#"
    xmlns:dc = "http://purl.org/dc/elements/1.1/"
    xmlns:cc = "http://creativecommons.org/ns#">
    <cc:license rdf:resource="http://creativecommons.org/publicdomain/zero/1.0/deed.en"/>
    <cc:permits rdf:resource="http://creativecommons.org/ns#Reproduction"/>
    <rdf:Description about="https://nft.mir.one/fingerprints"
      dc:title="TON Fingerprints"
      dc:description="This is a unique digital fingerprint created based on the algorithm for generating basic rings using a noise texture. Like human fingerprints, you can now use it for the Web3 and Metaverse era as digital biometric information."
      dc:publisher="https://nft.mir.one"
      dc:date="2022-02-22"
      dc:format="image/svg+xml"
      dc:language="en" >
      <dc:creator>
      <rdf:Bag>
        <rdf:li>EQBondcvD2_aOFADXSWJHs4ZazQDuEl9_wNvGGPxI8hGuOFU</rdf:li>
        <rdf:li>ipfs://bafkreihj7iub3fhmhq6jn62noukt5wxn3gv6bvcg7wmt6ywvlurefezckq</rdf:li>
      </rdf:Bag>
      </dc:creator>
    </rdf:Description>
  </rdf:RDF>
</metadata>
<g transform="translate(0.000000,1000.000000) scale(0.100000,-0.100000)"
fill="#1b1f23" stroke="none">
<path d="M4550 7731 c-65 -6 -65 -6 -10 -18 30 -7 120 -20 200 -29 79 -8 216
-28 305 -44 221 -40 305 -50 410 -48 106 1 157 -14 345 -102 209 -99 396 -180
375 -164 -123 95 -496 299 -623 342 -54 18 -70 19 -115 10 -45 -9 -77 -6 -237
22 -159 28 -213 32 -385 35 -110 2 -229 0 -265 -4z"/>
<path d="M4155 7545 c-55 -7 -91 -13 -80 -14 11 -1 38 -12 61 -25 80 -46 278
-65 328 -33 31 21 32 28 7 58 -17 21 -27 23 -117 25 -55 1 -144 -4 -199 -11z"/>
<path d="M4610 7553 c-32 -6 -70 -41 -70 -64 0 -10 12 -26 28 -37 65 -45 132
-61 527 -122 286 -44 377 -66 465 -110 55 -28 120 -91 120 -117 0 -18 14 -24
108 -44 156 -34 521 -151 577 -184 28 -18 84 -58 124 -90 39 -32 99 -71 132
-86 61 -29 61 -29 -1 39 -34 37 -83 94 -108 127 -87 115 -140 162 -222 196
-41 17 -128 61 -193 96 -185 102 -454 228 -547 258 -76 23 -230 51 -650 114
-143 22 -254 31 -290 24z"/>
<path d="M4004 7284 c-98 -10 -141 -21 -225 -54 -104 -41 -104 -41 6 -37 133
5 178 -5 173 -36 -3 -23 -3 -23 -228 -131 -63 -31 -160 -85 -215 -121 -100
-66 -100 -66 -55 -60 25 4 79 15 120 25 41 10 131 31 200 45 69 14 184 46 255
70 72 25 162 49 200 55 118 16 322 11 622 -16 365 -34 626 -38 697 -10 49 19
56 17 70 -19 7 -18 41 11 44 39 3 23 0 26 -27 26 -16 0 -33 5 -37 11 -10 17
-83 47 -155 63 -35 9 -203 33 -374 56 -170 22 -348 47 -395 55 -125 20 -250
33 -385 40 -66 3 -131 7 -145 9 -14 2 -79 -2 -146 -10z"/>
<path d="M5525 6864 c-100 -25 -395 -29 -696 -9 -371 25 -522 16 -764 -47 -54
-14 -132 -23 -240 -28 -121 -5 -174 -12 -216 -27 -90 -33 -226 -132 -369 -269
-25 -24 -25 -24 10 -18 19 4 96 33 171 65 75 32 181 73 235 92 158 54 203 55
190 4 -8 -35 -71 -72 -280 -167 -99 -45 -200 -96 -225 -115 -25 -18 -99 -87
-163 -153 -117 -119 -117 -119 -70 -110 84 18 640 288 797 388 123 78 180 106
277 134 178 51 371 57 641 20 112 -16 146 -17 285 -6 161 11 301 4 344 -19 11
-6 46 -37 77 -68 37 -37 109 -89 211 -150 307 -185 493 -346 640 -554 104
-148 151 -201 253 -282 82 -65 100 -74 237 -115 83 -24 150 -59 193 -99 28
-26 28 -26 2 31 -14 31 -30 83 -36 115 -21 119 -31 150 -74 240 -53 113 -110
197 -163 245 -41 37 -71 49 -163 68 -45 9 -73 24 -155 86 -314 240 -385 287
-569 375 -102 49 -165 72 -325 118 -34 10 -38 45 -8 65 34 22 114 29 188 17
188 -31 378 -122 700 -336 291 -194 376 -247 419 -262 18 -7 41 -19 50 -25 14
-11 14 -11 5 2 -241 332 -343 443 -509 553 -171 114 -311 176 -520 232 -87 23
-304 28 -380 9z m1217 -1028 c110 -99 224 -230 234 -271 9 -36 1 -60 -23 -63
-15 -2 -54 27 -139 106 -139 127 -199 197 -215 251 -12 42 -2 71 25 71 7 0 60
-42 118 -94z"/>
<path d="M4285 6453 c-127 -27 -186 -53 -634 -276 -441 -221 -443 -222 -506
-289 -35 -36 -82 -95 -106 -130 -23 -35 -53 -75 -66 -89 -25 -27 -25 -27 30
-14 29 7 105 40 168 73 63 34 210 106 328 162 117 55 280 139 360 185 81 46
180 98 221 116 186 79 400 105 610 75 160 -24 201 -5 166 78 -20 47 -89 91
-177 110 -87 20 -299 20 -394 -1z"/>
<path d="M5145 6451 c-34 -14 -52 -43 -64 -99 -22 -106 -10 -152 69 -257 20
-27 62 -89 92 -136 31 -48 102 -136 158 -197 56 -60 129 -145 161 -188 74 -98
166 -282 218 -436 22 -65 62 -159 90 -210 99 -186 121 -295 121 -613 0 -195 3
-227 21 -285 24 -75 21 -161 -10 -283 -66 -256 -203 -472 -483 -758 -164 -168
-248 -214 -447 -245 -116 -17 -527 -20 -681 -4 -230 24 -445 82 -645 173 -141
64 -214 92 -195 74 8 -8 67 -54 130 -101 252 -188 538 -310 792 -336 132 -13
401 -13 530 1 127 14 267 48 339 84 30 14 89 50 131 78 68 47 76 55 71 78 -8
42 20 82 165 233 215 223 338 415 397 620 41 143 46 232 35 583 -14 427 -20
475 -76 588 -31 63 -52 125 -69 205 -71 325 -103 423 -189 565 -83 138 -166
234 -418 480 -131 128 -238 240 -238 249 0 27 74 20 144 -14 168 -81 525 -407
644 -588 125 -192 163 -330 167 -612 2 -102 4 -195 4 -207 1 -12 8 -29 17 -38
15 -15 18 -15 35 1 10 9 21 36 25 60 3 24 12 51 19 61 35 47 38 10 42 -586 4
-491 2 -593 -11 -669 -49 -283 -236 -580 -508 -808 -172 -143 -174 -145 -153
-161 90 -65 414 190 606 476 86 128 131 215 170 333 31 92 31 92 26 623 -5
589 -13 697 -59 820 -36 98 -45 195 -28 325 26 208 27 196 -23 292 -126 246
-344 466 -690 697 -165 110 -224 135 -327 138 -47 2 -94 -1 -105 -6z"/>
<path d="M4400 6123 c-239 -27 -448 -127 -438 -210 4 -33 -4 -33 228 3 191 30
432 41 553 25 49 -7 138 -27 198 -46 152 -48 179 -45 179 18 0 22 -14 43 -59
87 -33 32 -81 73 -108 91 -48 34 -48 34 -283 35 -129 1 -251 -1 -270 -3z"/>
<path d="M3820 5831 c-211 -71 -526 -221 -674 -320 -46 -30 -97 -101 -156
-217 -23 -46 -51 -91 -61 -100 -18 -16 -17 -17 14 -33 20 -10 36 -28 42 -47
11 -33 11 -185 2 -584 -4 -135 -4 -236 -1 -225 3 11 12 40 19 64 16 47 78 345
94 451 6 36 15 119 21 184 14 146 25 170 121 260 170 161 441 295 659 327 124
18 497 2 626 -26 13 -3 32 5 50 20 16 14 44 30 63 36 85 28 282 -20 426 -103
97 -57 237 -200 294 -301 100 -178 125 -308 125 -647 0 -217 -2 -257 -22 -350
-51 -233 -147 -463 -275 -659 -73 -111 -237 -318 -323 -407 -60 -62 -114 -88
-136 -66 -20 20 2 58 93 162 129 146 203 240 272 345 200 303 301 662 282 999
-20 359 -121 585 -341 762 -117 94 -326 184 -428 184 -31 0 -36 -3 -36 -24 0
-39 38 -75 159 -154 64 -41 147 -100 184 -130 443 -360 429 -1156 -30 -1722
-95 -117 -300 -332 -343 -360 -132 -85 -404 -81 -651 9 -140 52 -350 181 -504
311 -33 27 -80 65 -105 83 -24 17 -64 50 -89 72 -45 40 -45 40 3 -30 133 -191
282 -348 448 -472 88 -67 146 -97 273 -140 201 -69 242 -74 665 -85 576 -15
603 -13 717 43 120 58 340 296 460 496 96 160 170 360 188 506 10 85 -30 115
-70 53 -9 -14 -39 -85 -66 -158 -61 -164 -131 -306 -205 -418 -119 -178 -278
-344 -370 -387 -48 -22 -84 -23 -84 -1 0 5 51 60 113 122 180 181 317 382 408
599 24 56 67 158 97 227 30 69 63 148 73 177 70 196 30 658 -63 717 -25 16
-47 -10 -49 -59 -1 -22 1 -116 5 -210 9 -186 0 -298 -34 -428 -53 -203 -195
-521 -308 -692 -33 -49 -109 -149 -168 -220 -60 -72 -126 -152 -147 -178 -40
-49 -82 -77 -116 -77 -53 0 -36 37 84 180 272 324 397 534 498 840 66 199 81
294 82 555 1 121 5 263 10 316 6 81 4 109 -14 180 -44 173 -168 378 -307 509
-98 91 -146 114 -346 163 -173 42 -173 42 -528 39 -387 -3 -419 0 -466 49 -15
16 -30 29 -33 29 -3 0 -58 -18 -121 -39z"/>
<path d="M6417 5463 c-14 -13 -6 -89 12 -130 12 -26 35 -52 60 -69 77 -50 149
-199 200 -409 26 -109 26 -115 26 -475 0 -321 -2 -375 -19 -445 -22 -94 -53
-159 -111 -235 -24 -30 -81 -131 -128 -225 -99 -196 -172 -311 -285 -445 -139
-167 -301 -288 -486 -365 -148 -60 -163 -73 -189 -156 -7 -20 -198 -68 -377
-96 -176 -27 -549 -25 -784 5 -98 12 -181 21 -183 18 -3 -2 39 -18 94 -35 299
-91 389 -106 653 -105 155 0 244 4 320 17 442 72 540 97 703 178 42 22 77 41
77 43 0 2 -38 -12 -85 -31 -182 -73 -377 -85 -400 -25 -6 17 11 32 37 32 31 0
193 62 283 108 238 123 470 355 660 663 79 127 218 388 257 479 53 128 67 201
84 435 21 307 21 529 0 628 -55 254 -227 575 -337 632 -29 16 -71 20 -82 8z"/>
<path d="M3910 5400 c-262 -56 -475 -200 -574 -390 -92 -176 -177 -592 -161
-785 11 -121 49 -258 106 -373 46 -95 60 -114 167 -221 273 -274 466 -382 712
-398 228 -14 365 50 572 266 197 205 315 433 365 705 21 114 23 375 4 461 -37
167 -120 314 -245 432 -145 138 -385 278 -528 307 -106 22 -308 20 -418 -4z
m450 -217 c93 -21 293 -122 363 -182 129 -112 217 -253 239 -383 16 -94 -3
-422 -32 -538 -25 -101 -93 -249 -155 -336 -97 -136 -256 -267 -381 -313 -130
-49 -286 -51 -421 -6 -115 39 -186 97 -169 140 7 20 14 19 156 -20 84 -23 109
-26 215 -22 99 3 132 9 187 30 192 74 349 236 427 442 29 77 35 105 39 200 7
169 3 178 -141 321 -94 93 -137 128 -188 153 -70 34 -138 43 -165 21 -31 -26
-11 -53 86 -118 107 -71 146 -106 197 -175 122 -165 85 -400 -91 -572 -130
-128 -264 -173 -471 -159 -66 5 -161 7 -212 6 -106 -3 -121 2 -210 76 -72 60
-131 136 -176 227 -60 119 -72 179 -71 360 1 142 4 171 28 259 71 259 199 428
401 526 172 84 360 106 545 63z"/>
<path d="M4105 5015 c-245 -45 -428 -206 -511 -450 -36 -105 -45 -286 -20
-385 66 -263 246 -392 546 -393 94 0 126 4 175 22 209 76 322 275 261 459 -42
126 -227 257 -362 257 -53 0 -69 -4 -105 -30 -89 -62 -126 -201 -80 -300 51
-113 205 -170 290 -107 62 45 61 120 0 107 -60 -13 -91 51 -46 93 30 28 79 28
122 2 90 -55 86 -207 -7 -285 -133 -112 -354 -85 -486 59 -147 161 -120 439
58 599 63 57 146 100 255 133 226 67 391 7 544 -196 70 -94 92 -110 117 -89
42 35 -26 206 -123 306 -162 168 -395 241 -628 198z"/>
<path d="M6747 5363 c-15 -14 -4 -44 67 -171 134 -243 177 -419 151 -630 -24
-201 -35 -384 -26 -440 10 -67 21 -78 21 -23 0 52 34 312 62 476 22 131 20
236 -9 390 -36 197 -88 315 -163 370 -44 32 -87 44 -103 28z"/>
<path d="M6400 5205 c-15 -40 -12 -72 14 -175 72 -279 94 -630 65 -1047 -11
-146 -10 -165 5 -188 20 -30 29 -31 54 -5 47 51 70 191 79 480 9 335 -14 538
-88 766 -55 171 -104 235 -129 169z"/>
</g>
</svg>
