<?xml version="1.0" standalone="no"?>
<!DOCTYPE svg PUBLIC "-//W3C//DTD SVG 20010904//EN"
 "http://www.w3.org/TR/2001/REC-SVG-20010904/DTD/svg10.dtd">
<svg version="1.0" xmlns="http://www.w3.org/2000/svg"
 width="1000.000000pt" height="1000.000000pt" viewBox="0 0 1000.000000 1000.000000"
 preserveAspectRatio="xMidYMid meet">
<metadata>
  <rdf:RDF
    xmlns:rdf = "http://www.w3.org/1999/02/22-rdf-syntax-ns#"
    xmlns:rdfs = "http://www.w3.org/2000/01/rdf-schema#"
    xmlns:dc = "http://purl.org/dc/elements/1.1/"
    xmlns:cc = "http://creativecommons.org/ns#">
    <cc:license rdf:resource="http://creativecommons.org/publicdomain/zero/1.0/deed.en"/>
    <cc:permits rdf:resource="http://creativecommons.org/ns#Reproduction"/>
    <rdf:Description about="https://nft.mir.one/fingerprints"
      dc:title="TON Fingerprints"
      dc:description="This is a unique digital fingerprint created based on the algorithm for generating basic rings using a noise texture. Like human fingerprints, you can now use it for the Web3 and Metaverse era as digital biometric information."
      dc:publisher="https://nft.mir.one"
      dc:date="2022-02-22"
      dc:format="image/svg+xml"
      dc:language="en" >
      <dc:creator>
      <rdf:Bag>
        <rdf:li>EQBondcvD2_aOFADXSWJHs4ZazQDuEl9_wNvGGPxI8hGuOFU</rdf:li>
        <rdf:li>ipfs://bafkreihj7iub3fhmhq6jn62noukt5wxn3gv6bvcg7wmt6ywvlurefezckq</rdf:li>
      </rdf:Bag>
      </dc:creator>
    </rdf:Description>
  </rdf:RDF>
</metadata>
<g transform="translate(0.000000,1000.000000) scale(0.100000,-0.100000)"
fill="#1b1f23" stroke="none">
<path d="M5069 7770 c-273 -40 -421 -86 -528 -164 -25 -18 -120 -71 -211 -116
-189 -95 -369 -206 -485 -299 -86 -69 -239 -173 -319 -215 -27 -14 -43 -26
-35 -26 198 -7 290 -20 395 -54 61 -20 216 -61 345 -91 299 -71 344 -85 494
-150 67 -30 234 -93 370 -140 298 -104 412 -149 570 -224 438 -209 791 -515
1164 -1010 105 -139 229 -326 237 -357 11 -44 1 -69 -29 -72 -36 -4 -50 7 -89
77 -44 78 -261 360 -390 507 -232 264 -557 523 -874 698 -422 232 -1297 512
-1909 611 -136 23 -195 17 -281 -26 -79 -39 -213 -121 -214 -130 -1 -15 90
-29 233 -34 262 -9 477 -43 941 -146 454 -102 656 -169 961 -319 207 -102 330
-178 558 -342 323 -234 432 -336 662 -623 83 -104 176 -213 207 -240 61 -56
163 -115 200 -115 13 0 30 -6 37 -12 11 -11 12 -10 6 2 -5 8 -9 59 -10 115 -1
89 -6 113 -43 224 -75 222 -122 305 -283 506 -246 308 -494 541 -720 677 -237
144 -422 218 -969 392 -196 62 -260 96 -287 153 -16 32 -26 40 -78 55 -33 11
-145 35 -250 54 -104 19 -235 46 -290 59 -55 13 -118 27 -140 31 -147 25 -153
80 -14 125 107 35 114 38 133 74 47 87 238 158 474 175 70 5 195 23 277 39
187 37 319 51 489 51 136 0 330 -19 451 -44 39 -8 99 -17 135 -21 36 -3 79 -8
95 -11 43 -7 -170 80 -298 122 -303 98 -602 101 -977 10 -121 -30 -168 -33
-176 -11 -18 45 85 92 371 170 72 19 166 46 210 59 99 31 66 32 -116 6z"/>
<path d="M5000 7356 c-104 -15 -182 -34 -275 -66 -33 -11 -131 -30 -218 -41
-260 -33 -357 -57 -357 -90 0 -44 79 -66 289 -79 91 -6 212 -20 269 -30 56
-11 160 -25 230 -30 532 -42 900 -143 1437 -392 181 -85 266 -114 344 -121 55
-4 55 -4 25 17 -16 11 -56 45 -89 75 -82 74 -210 172 -270 209 -58 35 -157 76
-340 138 -357 123 -601 168 -988 184 -220 10 -272 18 -265 43 15 48 240 73
503 57 323 -21 614 -85 954 -212 116 -43 250 -82 258 -74 1 1 -46 36 -105 77
-284 199 -470 279 -754 324 -141 23 -520 29 -648 11z"/>
<path d="M4858 6920 c-40 -7 -68 -26 -68 -44 0 -18 72 -42 300 -101 283 -74
400 -108 546 -161 312 -113 577 -258 738 -405 115 -105 297 -312 452 -517 87
-114 179 -228 205 -255 48 -47 48 -47 -38 130 -47 98 -106 221 -131 273 -64
134 -103 193 -193 287 -42 46 -97 116 -120 158 -49 85 -93 123 -252 212 -228
128 -494 235 -777 313 -128 36 -431 97 -520 105 -36 3 -74 8 -85 9 -11 2 -37
0 -57 -4z"/>
<path d="M3352 6370 c-26 -11 -114 -72 -194 -134 -57 -44 -57 -44 -20 -59 29
-13 92 -17 307 -21 345 -5 610 -40 869 -112 117 -33 157 -54 201 -109 48 -58
99 -88 307 -183 365 -165 604 -340 767 -561 77 -105 129 -213 174 -361 19 -63
61 -187 92 -275 143 -402 183 -697 135 -982 -68 -401 -209 -824 -352 -1058
-92 -151 -101 -166 -148 -218 -45 -51 -45 -51 -5 -27 146 86 309 247 413 410
84 130 145 354 259 950 43 221 -41 631 -217 1060 -58 141 -74 225 -45 236 23
9 39 -12 113 -156 146 -280 235 -574 292 -964 26 -180 26 -179 71 -234 46 -55
94 -172 108 -263 6 -35 11 -116 12 -179 2 -115 2 -115 26 -40 55 175 73 245
73 283 0 24 -16 79 -39 136 -45 110 -74 214 -126 455 -111 513 -286 907 -450
1013 -75 49 -87 63 -172 200 -43 69 -106 158 -140 198 -193 227 -580 457
-1010 599 -63 21 -83 32 -83 46 0 48 72 60 192 31 269 -64 655 -266 903 -472
139 -117 185 -172 229 -278 42 -101 67 -137 188 -275 134 -152 217 -291 303
-510 100 -255 245 -857 245 -1016 0 -86 43 -46 67 61 9 45 16 125 17 204 1
145 -16 228 -101 505 -134 436 -234 622 -483 900 -114 127 -143 167 -137 184
19 48 106 -4 237 -140 105 -109 161 -179 239 -298 75 -116 103 -179 197 -453
91 -264 123 -371 148 -498 21 -99 49 -195 58 -195 10 0 14 233 6 373 -9 154
-14 173 -84 351 -50 125 -56 147 -55 211 1 72 1 72 -71 176 -115 168 -217 296
-318 402 -107 113 -164 158 -299 241 -52 32 -147 97 -210 144 -314 232 -620
397 -914 491 -115 37 -208 56 -367 75 -69 9 -192 29 -275 45 -358 71 -507 90
-730 96 -108 3 -189 1 -203 -5z"/>
<path d="M6637 6363 c-14 -13 -6 -33 25 -68 50 -58 169 -150 217 -169 44 -17
44 -17 6 31 -144 180 -216 239 -248 206z"/>
<path d="M3195 5952 c-31 -19 -161 -154 -195 -202 -19 -27 -19 -27 18 -24 20
1 68 10 106 19 82 19 147 12 184 -21 38 -32 23 -51 -63 -78 -96 -31 -125 -48
-160 -92 -44 -56 -63 -87 -120 -195 -51 -96 -51 -96 -16 -80 32 14 95 59 314
222 39 28 74 65 95 99 18 30 43 60 56 67 39 20 144 33 276 33 190 0 295 -19
630 -113 69 -19 173 -44 231 -55 223 -41 498 -194 689 -382 171 -169 293 -386
399 -713 131 -404 143 -759 32 -961 -31 -55 -48 -106 -71 -207 -39 -174 -71
-269 -135 -404 -88 -188 -170 -301 -348 -486 -62 -64 -127 -135 -146 -159 -34
-42 -34 -42 95 23 156 80 303 175 364 237 84 83 192 286 270 505 40 115 153
527 171 625 20 107 17 361 -5 485 -48 270 -202 720 -309 902 -168 285 -432
490 -872 676 -71 30 -184 79 -250 110 -273 125 -524 172 -975 183 -220 5 -237
4 -265 -14z"/>
<path d="M6962 5950 c0 -14 2 -19 5 -12 2 6 2 18 0 25 -3 6 -5 1 -5 -13z"/>
<path d="M3610 5483 c-91 -15 -176 -55 -320 -150 -183 -122 -217 -157 -271
-283 -22 -53 -99 -312 -99 -336 0 -9 79 86 129 154 110 150 318 315 468 369
126 45 243 39 272 -15 16 -30 -5 -47 -88 -71 -104 -32 -173 -64 -266 -126
-165 -109 -315 -276 -353 -390 -11 -33 -30 -118 -42 -190 -19 -118 -31 -175
-47 -229 -4 -16 0 -15 29 7 23 18 54 65 98 149 87 167 149 258 244 356 92 95
168 153 309 238 55 32 124 81 154 107 66 57 88 67 152 67 193 0 438 -145 607
-359 256 -323 343 -499 397 -796 17 -98 21 -160 22 -335 0 -195 -2 -224 -24
-305 -87 -332 -264 -557 -556 -703 -85 -43 -178 -82 -236 -101 -19 -6 -52 -28
-72 -49 -42 -43 -60 -38 148 -41 176 -3 251 14 342 78 315 223 508 533 578
930 12 70 11 87 -16 260 -45 294 -69 409 -106 520 -57 171 -136 317 -272 500
-81 109 -101 150 -101 204 0 49 -6 56 -145 167 -44 35 -123 105 -175 155 -85
81 -105 96 -176 123 -207 80 -444 118 -584 95z"/>
<path d="M4498 5394 c-20 -20 -7 -63 31 -97 43 -39 203 -136 278 -169 290
-127 533 -477 642 -925 41 -170 55 -310 47 -483 -7 -142 -6 -147 16 -180 78
-115 126 31 115 349 -8 242 -56 448 -166 706 -149 351 -362 571 -716 741 -91
44 -130 57 -178 61 -34 3 -65 2 -69 -3z"/>
<path d="M4734 4985 c-7 -16 10 -38 107 -146 95 -106 169 -212 232 -336 98
-191 149 -368 187 -638 28 -206 43 -245 88 -231 32 10 42 51 42 169 0 304
-109 651 -288 922 -58 88 -194 226 -249 254 -49 25 -111 28 -119 6z"/>
<path d="M3975 4909 c-151 -18 -380 -150 -522 -302 -113 -121 -223 -308 -254
-430 -25 -102 10 -287 98 -507 65 -165 100 -226 172 -302 110 -118 253 -172
451 -173 113 0 117 1 195 38 231 110 399 309 412 489 7 100 -6 130 -117 276
-146 193 -216 243 -404 289 -109 27 -126 35 -126 63 0 41 160 57 255 24 144
-48 231 -126 348 -311 54 -84 83 -105 105 -77 36 49 -30 224 -130 342 -127
149 -308 236 -453 217 -96 -12 -136 -38 -272 -179 -149 -152 -194 -228 -214
-356 -32 -203 79 -415 249 -481 79 -30 190 -31 254 -2 157 71 222 240 142 370
-91 147 -295 147 -311 1 -5 -41 -2 -50 21 -73 34 -34 77 -32 86 5 5 20 12 25
35 25 61 0 68 -91 12 -143 -54 -51 -132 -52 -209 -3 -130 83 -131 313 -2 398
109 71 301 33 417 -84 163 -162 165 -368 7 -523 -68 -67 -135 -105 -226 -126
-207 -48 -444 67 -542 262 -158 316 -95 625 178 876 204 189 425 235 635 132
176 -87 345 -283 411 -479 24 -74 26 -92 25 -229 -2 -252 -30 -408 -87 -483
-14 -18 -52 -51 -85 -74 -33 -22 -92 -68 -132 -103 -139 -120 -242 -199 -286
-219 -39 -17 -59 -19 -155 -14 -120 6 -218 28 -366 81 -102 37 -190 65 -190
61 0 -7 222 -166 275 -197 131 -76 362 -190 414 -204 112 -29 255 -9 380 52
53 26 96 58 156 118 69 69 90 97 128 176 76 160 120 388 120 620 -1 239 -31
395 -107 556 -122 257 -356 500 -554 574 -71 27 -159 37 -237 29z m665 -1619
c36 -68 -97 -244 -238 -315 -65 -33 -125 -32 -130 1 -2 17 17 38 86 92 49 38
124 108 168 156 43 47 84 86 91 86 7 0 17 -9 23 -20z"/>
<path d="M6790 4738 c0 -7 42 -96 94 -198 90 -180 136 -263 136 -248 0 41 -37
240 -57 301 -31 98 -83 157 -138 157 -21 0 -35 -5 -35 -12z"/>
<path d="M6251 3508 c-12 -25 -28 -110 -40 -208 -25 -195 -59 -349 -106 -491
-28 -82 -65 -223 -65 -248 0 -9 148 228 187 299 60 110 111 247 123 327 12 89
-3 273 -28 323 -25 51 -48 51 -71 -2z"/>
<path d="M5352 3457 c-11 -12 -32 -64 -47 -117 -116 -421 -273 -659 -615 -935
-63 -51 -128 -107 -143 -124 -29 -31 -29 -31 -2 -21 15 6 59 17 98 26 179 41
292 101 396 210 147 152 250 308 327 492 97 231 119 408 59 468 -30 30 -46 30
-73 1z"/>
<path d="M3793 2750 c54 -27 101 -50 103 -50 2 0 4 6 4 14 0 25 -49 54 -108
66 -31 6 -66 14 -77 16 -11 3 24 -18 78 -46z"/>
</g>
</svg>
