<?xml version="1.0" standalone="no"?>
<!DOCTYPE svg PUBLIC "-//W3C//DTD SVG 20010904//EN"
 "http://www.w3.org/TR/2001/REC-SVG-20010904/DTD/svg10.dtd">
<svg version="1.0" xmlns="http://www.w3.org/2000/svg"
 width="1000.000000pt" height="1000.000000pt" viewBox="0 0 1000.000000 1000.000000"
 preserveAspectRatio="xMidYMid meet">
<metadata>
  <rdf:RDF
    xmlns:rdf = "http://www.w3.org/1999/02/22-rdf-syntax-ns#"
    xmlns:rdfs = "http://www.w3.org/2000/01/rdf-schema#"
    xmlns:dc = "http://purl.org/dc/elements/1.1/"
    xmlns:cc = "http://creativecommons.org/ns#">
    <cc:license rdf:resource="http://creativecommons.org/publicdomain/zero/1.0/deed.en"/>
    <cc:permits rdf:resource="http://creativecommons.org/ns#Reproduction"/>
    <rdf:Description about="https://nft.mir.one/fingerprints"
      dc:title="TON Fingerprints"
      dc:description="This is a unique digital fingerprint created based on the algorithm for generating basic rings using a noise texture. Like human fingerprints, you can now use it for the Web3 and Metaverse era as digital biometric information."
      dc:publisher="https://nft.mir.one"
      dc:date="2022-02-22"
      dc:format="image/svg+xml"
      dc:language="en" >
      <dc:creator>
      <rdf:Bag>
        <rdf:li>EQBondcvD2_aOFADXSWJHs4ZazQDuEl9_wNvGGPxI8hGuOFU</rdf:li>
        <rdf:li>ipfs://bafkreihj7iub3fhmhq6jn62noukt5wxn3gv6bvcg7wmt6ywvlurefezckq</rdf:li>
      </rdf:Bag>
      </dc:creator>
    </rdf:Description>
  </rdf:RDF>
</metadata>
<g transform="translate(0.000000,1000.000000) scale(0.100000,-0.100000)"
fill="#1b1f23" stroke="none">
<path d="M5358 7783 c7 -3 16 -2 19 1 4 3 -2 6 -13 5 -11 0 -14 -3 -6 -6z"/>
<path d="M5058 7764 c-222 -27 -427 -92 -703 -223 -134 -64 -196 -101 -335
-203 -52 -38 -180 -126 -285 -195 -104 -69 -194 -128 -198 -132 -20 -20 148
35 322 104 156 62 200 76 230 72 128 -19 135 -19 336 22 461 93 679 107 885
59 63 -15 221 -41 350 -58 258 -33 436 -61 548 -85 40 -8 97 -15 125 -15 52 0
52 0 -63 61 -237 127 -387 171 -667 199 -213 21 -269 34 -287 63 -9 14 -7 21
8 32 31 23 116 28 405 22 276 -6 276 -6 211 12 -393 112 -529 122 -739 56 -45
-14 -143 -39 -218 -56 -240 -52 -474 -119 -700 -200 -173 -62 -207 -59 -143
15 17 18 65 52 108 74 153 80 521 221 747 287 83 24 168 51 190 61 22 9 60 23
85 30 45 12 45 12 -25 12 -38 0 -123 -7 -187 -14z"/>
<path d="M4715 7125 c-246 -15 -636 -75 -760 -118 -185 -64 -303 -126 -420
-220 -63 -51 -247 -230 -286 -279 -29 -36 -29 -36 18 -22 25 8 87 38 137 68
411 242 607 324 966 400 148 32 237 41 273 27 31 -12 46 -39 27 -51 -7 -4
-112 -36 -234 -70 -457 -129 -597 -195 -949 -448 -155 -111 -197 -154 -291
-299 -60 -93 -108 -195 -97 -206 14 -14 76 18 194 100 214 147 303 217 422
333 178 174 237 207 596 335 258 92 345 131 401 182 57 53 75 61 166 79 228
44 572 22 1043 -66 194 -37 449 -100 577 -144 53 -19 116 -36 138 -39 42 -5
42 -5 -55 73 -190 152 -300 210 -473 244 -161 33 -320 58 -608 96 -283 38
-474 44 -785 25z"/>
<path d="M5016 6809 c-112 -15 -183 -37 -321 -101 -206 -96 -277 -125 -449
-185 -89 -30 -195 -72 -236 -92 -87 -42 -153 -101 -148 -134 5 -33 37 -32 141
2 51 17 148 44 217 60 150 36 277 74 317 94 16 9 50 32 74 53 56 47 130 80
248 110 271 69 599 49 1061 -66 107 -27 243 -56 302 -65 59 -9 131 -24 160
-34 79 -27 241 -111 343 -177 88 -58 165 -99 165 -89 0 11 -155 200 -206 250
-100 101 -154 134 -281 175 -142 45 -520 130 -733 165 -268 43 -490 55 -654
34z"/>
<path d="M4974 6520 c-95 -10 -227 -37 -275 -56 -44 -18 -59 -48 -35 -73 15
-14 46 -16 269 -13 273 4 391 -5 584 -44 169 -33 334 -90 511 -174 112 -53
159 -71 184 -68 59 5 49 35 -44 138 -70 77 -95 97 -163 130 -87 43 -279 99
-444 130 -197 37 -414 48 -587 30z"/>
<path d="M6210 6355 c-19 -23 -6 -41 120 -161 77 -74 141 -122 240 -184 74
-46 187 -117 250 -159 63 -42 133 -83 156 -92 41 -16 41 -16 -13 60 -161 228
-208 275 -382 385 -239 151 -337 191 -371 151z"/>
<path d="M4455 6275 c-178 -53 -207 -58 -255 -46 -51 13 -55 13 -249 -28 -103
-22 -133 -41 -152 -98 -10 -30 -25 -41 -147 -103 -76 -38 -191 -99 -257 -135
-66 -36 -145 -72 -175 -81 -30 -9 -75 -29 -99 -45 -25 -16 -49 -29 -56 -29 -6
0 -35 -25 -65 -55 -55 -55 -55 -55 10 -29 135 55 148 31 72 -134 -70 -151 -95
-214 -131 -336 -18 -59 -35 -115 -38 -124 -10 -25 66 39 83 71 26 49 220 300
292 378 161 174 395 287 667 323 109 15 273 60 335 93 74 38 200 58 215 33 12
-19 -19 -37 -84 -51 -102 -22 -127 -58 -54 -78 42 -12 99 -2 200 33 145 51
471 56 773 10 149 -22 188 -45 135 -80 -22 -14 -47 -16 -173 -13 -81 2 -257 4
-392 4 -257 -1 -310 -7 -539 -64 -42 -11 -114 -22 -161 -26 -443 -35 -749
-189 -975 -490 -72 -96 -150 -245 -174 -335 -29 -108 -59 -306 -66 -445 -3
-66 -8 -133 -11 -150 -5 -30 -5 -30 11 0 9 16 22 37 29 45 8 8 30 58 51 110
65 163 130 283 217 397 33 43 38 55 29 72 -17 32 -13 91 11 140 12 27 57 82
108 131 135 133 294 218 520 277 131 35 302 37 450 6 58 -13 193 -30 300 -38
107 -9 231 -20 275 -25 44 -5 190 -19 325 -30 348 -29 479 -50 710 -111 322
-86 615 -241 885 -470 103 -88 196 -153 169 -118 -7 8 -28 52 -47 99 -66 160
-92 196 -197 272 -274 200 -569 337 -904 419 -159 38 -297 56 -496 64 -91 3
-239 10 -330 16 -91 5 -267 13 -391 18 -191 7 -232 11 -265 27 -87 43 -44 61
183 74 125 8 252 8 428 1 138 -6 347 -10 465 -8 205 2 220 1 335 -26 401 -94
770 -269 1101 -522 47 -36 89 -65 94 -65 5 0 15 -3 23 -6 19 -7 -80 184 -131
251 -41 55 -145 128 -329 232 -211 120 -398 192 -745 288 -235 65 -250 71
-325 125 -124 89 -306 120 -748 126 -378 6 -371 7 -428 -12 -62 -21 -81 -8
-51 33 31 41 78 70 135 82 64 14 528 14 679 0 156 -14 292 -42 408 -86 110
-40 509 -174 682 -228 191 -60 425 -180 670 -346 63 -42 132 -84 152 -92 37
-16 37 -16 1 41 -80 125 -123 189 -158 229 -38 45 -197 147 -377 242 -141 75
-176 87 -297 105 -53 8 -142 31 -197 51 -398 147 -521 182 -719 210 -128 18
-800 42 -840 30z m-233 -135 c-4 -34 -57 -86 -120 -117 -107 -52 -279 -40
-270 20 2 18 12 24 53 30 81 14 223 55 263 77 50 26 78 23 74 -10z"/>
<path d="M4170 5290 c-303 -28 -651 -197 -791 -386 -32 -44 -38 -58 -28 -65
37 -23 98 -6 219 62 149 84 403 169 630 211 95 18 154 22 340 22 256 0 320
-10 405 -69 59 -39 70 -42 280 -55 210 -14 346 -32 658 -85 275 -48 361 -71
486 -135 164 -82 282 -172 488 -372 78 -76 146 -138 151 -138 12 0 -36 156
-74 240 -30 66 -80 118 -216 222 -195 148 -385 245 -607 308 -220 63 -460 105
-801 140 -107 11 -244 28 -305 39 -181 32 -250 40 -479 56 -235 16 -229 16
-356 5z"/>
<path d="M4431 5009 c-107 -13 -258 -51 -391 -99 -90 -33 -136 -44 -210 -50
-78 -6 -106 -13 -160 -40 -234 -117 -336 -239 -452 -540 -32 -84 -33 -88 -32
-245 0 -125 5 -182 22 -263 33 -149 71 -242 100 -242 4 0 5 43 3 97 -7 200 32
375 129 583 44 95 59 140 64 188 8 84 41 144 123 223 70 68 200 159 226 159
24 0 28 -29 10 -63 -9 -18 -60 -75 -115 -127 -139 -132 -190 -218 -142 -237
47 -18 139 45 324 222 117 112 158 144 235 182 141 71 241 96 513 128 139 17
203 34 234 62 27 24 22 42 -17 59 -39 16 -333 18 -464 3z"/>
<path d="M5120 4840 c-41 -4 -127 -20 -190 -34 -63 -13 -171 -32 -240 -41
-347 -44 -443 -88 -745 -345 -55 -47 -138 -116 -185 -154 -47 -37 -100 -85
-118 -105 -80 -89 -142 -223 -187 -406 -15 -60 -35 -139 -46 -174 -10 -35 -19
-83 -19 -107 0 -136 185 -514 326 -664 33 -35 57 -51 83 -56 20 -4 90 -35 156
-69 144 -76 241 -110 356 -126 80 -11 92 -10 156 10 76 22 155 71 185 111 27
37 88 189 94 236 11 77 -52 149 -96 109 -26 -24 -50 -13 -50 24 0 39 49 81 95
81 126 0 213 -135 186 -287 -31 -167 -168 -322 -344 -388 -64 -24 -241 -63
-297 -66 -14 -1 9 -7 50 -15 116 -20 283 -18 373 5 106 28 146 51 214 125 201
220 223 511 51 672 -67 62 -127 88 -209 88 -121 0 -212 -71 -246 -196 -31
-111 -78 -95 -78 26 0 86 29 150 89 202 179 154 466 98 609 -118 110 -168 112
-346 7 -563 -70 -144 -129 -211 -344 -387 -29 -24 -22 -23 96 18 212 73 310
150 381 298 25 50 60 134 78 186 43 122 47 246 10 350 -73 209 -253 384 -447
435 -33 8 -100 15 -154 15 -246 -1 -430 -151 -456 -373 -12 -105 40 -213 125
-257 20 -10 70 -28 111 -40 120 -36 140 -68 66 -101 -73 -32 -124 -36 -317
-29 -184 8 -184 8 -329 59 -173 62 -206 89 -275 221 -92 179 -114 358 -67 537
95 356 242 575 537 801 55 42 134 104 176 138 128 103 197 119 569 129 118 3
265 12 325 20 220 30 336 15 518 -65 69 -30 105 -40 145 -40 67 0 119 -26 249
-124 234 -176 443 -409 598 -666 35 -58 74 -115 88 -128 25 -23 25 -23 20 25
-19 219 -37 280 -113 379 -148 194 -330 363 -535 499 -126 84 -171 126 -161
151 9 23 51 13 154 -36 217 -104 446 -298 648 -550 50 -63 103 -125 117 -138
25 -23 25 -23 10 45 -8 37 -29 113 -45 168 -30 100 -30 100 -151 220 -178 176
-339 290 -502 356 -85 34 -144 40 -260 25 -48 -6 -82 -3 -174 18 -266 61 -506
84 -671 66z"/>
<path d="M5287 4505 c-9 -9 -17 -20 -17 -24 0 -22 48 -64 123 -107 132 -76
213 -143 377 -311 365 -374 524 -680 536 -1033 3 -74 7 -151 10 -170 6 -33 8
-30 40 60 47 129 75 248 75 322 1 77 -24 153 -97 303 -94 194 -213 355 -435
590 -289 308 -269 289 -362 335 -72 36 -99 44 -160 48 -60 4 -76 1 -90 -13z"/>
<path d="M4496 4489 c-81 -19 -140 -68 -120 -100 13 -21 180 3 277 40 23 9 26
14 18 30 -20 37 -93 49 -175 30z"/>
<path d="M5811 4456 c-29 -35 2 -79 199 -281 169 -173 252 -272 340 -407 73
-111 160 -281 196 -383 15 -44 36 -92 46 -106 10 -15 22 -37 26 -50 14 -36 25
233 13 314 -26 181 -327 567 -641 823 -119 96 -158 116 -179 90z"/>
<path d="M4815 4443 c-97 -6 -112 -12 -134 -48 -35 -60 -162 -104 -298 -105
-74 0 -125 -18 -214 -76 -118 -78 -206 -192 -336 -440 -112 -213 -146 -389
-108 -552 29 -122 96 -211 197 -263 23 -12 69 -40 101 -61 83 -56 125 -72 154
-59 30 14 30 43 -3 117 -72 163 -21 399 116 534 184 181 489 220 745 95 224
-108 373 -303 463 -602 24 -78 55 -156 76 -190 57 -94 70 -194 42 -336 -19
-95 -26 -162 -17 -151 36 43 115 161 142 214 61 119 47 202 -101 568 -131 323
-308 531 -546 644 -131 61 -189 73 -354 73 -177 -1 -265 -21 -419 -97 -131
-65 -204 -133 -254 -240 -41 -86 -54 -142 -63 -272 -11 -149 -45 -167 -93 -50
-31 75 -34 217 -7 308 38 128 118 252 195 300 53 34 352 141 451 162 116 25
331 25 419 1 181 -49 308 -125 457 -272 165 -162 260 -317 359 -580 20 -55 59
-156 85 -225 35 -91 51 -150 59 -217 6 -51 14 -99 17 -108 4 -10 27 27 67 107
33 68 79 152 103 187 74 107 88 187 59 340 -58 305 -277 655 -573 917 -84 73
-348 264 -459 330 -56 34 -203 55 -328 47z m210 -218 c83 -21 265 -112 362
-182 331 -237 585 -606 657 -957 18 -84 21 -203 6 -226 -7 -12 -14 -12 -27 -4
-25 15 -40 49 -83 193 -92 302 -212 510 -411 711 -145 147 -345 271 -504 314
-196 53 -480 15 -748 -100 -71 -30 -136 -54 -145 -52 -34 6 -25 46 21 91 73
74 182 120 417 176 229 55 343 64 455 36z"/>
<path d="M5438 2738 c-8 -13 -27 -61 -43 -108 -41 -125 -84 -212 -166 -335
-74 -111 -74 -111 21 -45 111 77 196 160 234 230 22 40 28 67 32 138 4 62 1
94 -8 112 -18 33 -51 37 -70 8z"/>
</g>
</svg>
