<?xml version="1.0" standalone="no"?>
<!DOCTYPE svg PUBLIC "-//W3C//DTD SVG 20010904//EN"
 "http://www.w3.org/TR/2001/REC-SVG-20010904/DTD/svg10.dtd">
<svg version="1.0" xmlns="http://www.w3.org/2000/svg"
 width="1000.000000pt" height="1000.000000pt" viewBox="0 0 1000.000000 1000.000000"
 preserveAspectRatio="xMidYMid meet">
<metadata>
  <rdf:RDF
    xmlns:rdf = "http://www.w3.org/1999/02/22-rdf-syntax-ns#"
    xmlns:rdfs = "http://www.w3.org/2000/01/rdf-schema#"
    xmlns:dc = "http://purl.org/dc/elements/1.1/"
    xmlns:cc = "http://creativecommons.org/ns#">
    <cc:license rdf:resource="http://creativecommons.org/publicdomain/zero/1.0/deed.en"/>
    <cc:permits rdf:resource="http://creativecommons.org/ns#Reproduction"/>
    <rdf:Description about="https://nft.mir.one/fingerprints"
      dc:title="TON Fingerprints"
      dc:description="This is a unique digital fingerprint created based on the algorithm for generating basic rings using a noise texture. Like human fingerprints, you can now use it for the Web3 and Metaverse era as digital biometric information."
      dc:publisher="https://nft.mir.one"
      dc:date="2022-02-22"
      dc:format="image/svg+xml"
      dc:language="en" >
      <dc:creator>
      <rdf:Bag>
        <rdf:li>EQBondcvD2_aOFADXSWJHs4ZazQDuEl9_wNvGGPxI8hGuOFU</rdf:li>
        <rdf:li>ipfs://bafkreihj7iub3fhmhq6jn62noukt5wxn3gv6bvcg7wmt6ywvlurefezckq</rdf:li>
      </rdf:Bag>
      </dc:creator>
    </rdf:Description>
  </rdf:RDF>
</metadata>
<g transform="translate(0.000000,1000.000000) scale(0.100000,-0.100000)"
fill="#1b1f23" stroke="none">
<path d="M4970 7758 c47 -30 130 -79 185 -109 54 -30 180 -108 280 -173 208
-138 255 -162 285 -146 104 56 -233 292 -578 404 -75 24 -156 49 -180 56 -24
6 -51 14 -60 17 -9 3 21 -19 68 -49z"/>
<path d="M4542 7700 c40 -45 128 -102 393 -253 303 -173 582 -343 660 -403 81
-61 128 -121 154 -197 29 -83 44 -107 139 -224 114 -139 186 -240 359 -498 77
-115 146 -215 154 -221 8 -6 34 -16 59 -23 37 -11 63 -32 146 -118 81 -85 105
-104 125 -101 21 3 24 8 23 41 -2 45 -55 129 -170 267 -137 163 -186 239 -385
598 -192 346 -314 517 -423 591 -23 16 -79 44 -125 61 -47 18 -183 93 -314
173 -285 172 -372 214 -557 267 -80 23 -173 50 -208 60 -62 18 -62 18 -30 -20z"/>
<path d="M5718 7627 c18 -21 73 -99 123 -173 49 -74 122 -171 162 -216 172
-193 214 -260 297 -478 115 -299 192 -448 358 -694 138 -205 177 -284 191
-388 9 -66 22 -101 85 -225 64 -127 80 -152 117 -179 44 -30 44 -30 22 15 -12
26 -52 147 -88 271 -84 286 -111 354 -256 635 -135 265 -165 330 -264 587 -40
103 -84 207 -99 232 -14 25 -63 84 -109 132 -78 83 -385 364 -512 469 -56 47
-58 48 -27 12z"/>
<path d="M4196 7546 c25 -31 107 -80 659 -391 105 -59 284 -164 398 -232 230
-138 299 -173 339 -173 44 0 58 10 58 42 0 54 -95 132 -353 292 -131 80 -686
402 -742 429 -50 25 -196 54 -302 60 -82 5 -82 5 -57 -27z"/>
<path d="M3995 7343 c-11 -3 -61 -20 -112 -39 -51 -19 -107 -35 -125 -35 -37
-2 -44 0 132 -33 155 -29 282 -82 660 -271 316 -159 782 -440 996 -601 146
-110 364 -334 451 -464 16 -25 65 -110 108 -190 190 -354 393 -595 464 -551
30 19 -7 99 -137 293 -93 140 -122 194 -175 323 -73 180 -183 349 -357 550
-122 142 -205 206 -375 292 -82 42 -231 124 -330 183 -326 194 -689 394 -919
506 -86 42 -93 44 -175 43 -47 -1 -95 -3 -106 -6z"/>
<path d="M3735 7086 c-45 -11 -193 -71 -205 -83 -3 -3 42 -2 100 2 116 7 184
-4 219 -36 43 -40 29 -49 -76 -46 -70 1 -106 -3 -127 -13 -39 -20 -38 -32 4
-52 38 -19 150 -24 225 -10 52 10 80 3 190 -47 50 -22 162 -66 250 -97 181
-63 393 -161 494 -228 37 -25 101 -76 142 -112 41 -37 142 -117 224 -179 252
-187 319 -261 375 -409 41 -111 71 -149 180 -226 124 -89 190 -158 469 -492
258 -310 405 -503 475 -624 54 -94 123 -263 165 -407 16 -56 39 -124 50 -152
20 -50 20 -50 15 40 -2 50 -6 137 -8 195 -9 198 -46 312 -178 544 -111 195
-175 283 -310 424 -207 215 -391 466 -460 626 -47 108 -91 170 -161 228 -29
24 -97 84 -152 133 -146 132 -242 209 -405 326 -353 251 -524 348 -940 532
-118 53 -255 114 -305 136 -99 45 -154 51 -250 27z m2006 -1289 c39 -26 79
-81 79 -108 0 -27 -42 -24 -77 5 -37 31 -68 88 -60 110 8 21 18 20 58 -7z"/>
<path d="M3505 6775 c-27 -7 -76 -22 -108 -33 -59 -19 -59 -19 -10 -39 111
-47 449 -81 531 -52 50 17 53 56 5 78 -14 6 -69 16 -122 21 -53 5 -125 16
-161 24 -76 18 -70 18 -135 1z"/>
<path d="M6680 6658 c0 -27 100 -288 131 -343 63 -111 84 -129 36 -30 -25 50
-70 153 -101 230 -53 129 -66 157 -66 143z"/>
<path d="M3975 6559 c-75 -21 -252 -29 -455 -19 -106 5 -106 5 -209 -47 -56
-29 -110 -53 -119 -53 -33 -1 64 -32 128 -41 77 -12 342 -16 640 -10 261 5
325 -6 618 -105 216 -73 265 -79 270 -32 10 82 -320 249 -608 308 -120 24
-174 24 -265 -1z"/>
<path d="M3810 6259 c-52 -4 -189 -10 -305 -14 -231 -8 -238 -10 -330 -80 -26
-21 -61 -45 -77 -55 -30 -18 -30 -18 4 -35 21 -11 97 -23 213 -36 251 -26 252
-26 348 21 104 51 202 65 359 50 159 -15 242 -33 568 -122 332 -90 411 -118
596 -211 152 -76 167 -82 194 -67 89 47 -110 244 -374 371 -83 40 -87 41 -208
44 -111 3 -139 7 -288 49 -270 76 -482 102 -700 85z"/>
<path d="M3713 5984 c-66 -34 -30 -80 73 -95 257 -38 385 -70 584 -150 161
-65 277 -128 340 -187 49 -46 206 -286 270 -411 16 -32 72 -132 125 -222 124
-211 182 -332 239 -496 25 -73 61 -171 81 -218 83 -201 106 -346 71 -436 -17
-44 -17 -53 -2 -175 38 -301 46 -584 24 -879 -13 -193 -16 -393 -5 -420 7 -16
12 -10 34 40 90 212 95 227 103 324 17 192 22 469 11 636 -5 94 -15 260 -21
370 -14 257 -30 364 -85 559 -27 96 -49 197 -54 255 -14 142 -34 188 -198 461
-54 91 -116 197 -137 235 -50 90 -103 161 -193 258 -40 43 -73 87 -73 97 0 53
97 26 231 -63 121 -81 145 -109 152 -178 3 -31 15 -76 28 -100 41 -82 344
-513 412 -589 74 -81 125 -174 151 -276 43 -168 115 -660 136 -933 13 -168 13
-465 0 -591 -6 -52 -13 -138 -16 -190 -6 -95 -6 -95 41 5 69 147 107 260 116
345 9 90 -5 401 -27 589 -8 75 -33 242 -55 371 -22 129 -44 297 -49 372 -14
203 -44 272 -224 512 -173 234 -338 425 -415 481 -46 34 -56 52 -40 71 19 23
72 16 140 -18 117 -58 383 -352 553 -608 86 -130 248 -448 289 -567 74 -212
132 -499 162 -803 19 -187 39 -291 49 -250 17 72 46 268 51 355 6 84 2 123
-19 240 -46 247 -95 403 -201 642 -42 95 -13 127 51 56 102 -112 206 -411 269
-773 14 -80 29 -158 33 -175 9 -30 9 -30 15 10 18 114 29 291 24 385 -4 88
-12 126 -47 230 -23 69 -67 175 -98 235 -51 100 -68 122 -182 240 -69 72 -155
168 -190 215 -213 283 -437 537 -560 635 -155 123 -240 170 -336 185 -37 6
-115 29 -174 52 -58 22 -161 57 -230 78 -69 20 -206 66 -305 102 -355 129
-524 168 -740 175 -126 3 -155 1 -182 -13z"/>
<path d="M3140 5851 c-19 -11 -55 -37 -80 -58 -25 -22 -53 -44 -64 -50 -17 -9
-15 -12 15 -31 19 -11 75 -30 124 -41 210 -50 260 -71 715 -311 305 -160 398
-215 631 -371 269 -180 342 -254 461 -464 89 -155 128 -276 162 -500 8 -55 38
-172 67 -260 86 -268 90 -295 96 -654 6 -335 -4 -509 -38 -709 -10 -63 -19
-134 -19 -159 0 -45 0 -45 40 4 59 70 109 148 125 193 22 63 38 298 38 580 0
407 -20 544 -111 745 -77 171 -106 293 -78 330 13 18 16 19 31 4 8 -8 35 -71
60 -139 47 -133 70 -173 102 -178 29 -4 33 24 18 105 -26 133 -51 187 -148
319 -13 18 -50 96 -82 175 -91 226 -158 349 -295 540 -70 97 -73 103 -80 174
-8 85 -28 125 -120 239 -130 160 -343 283 -700 403 -150 51 -234 61 -253 31
-20 -30 37 -75 183 -145 74 -36 190 -91 256 -123 176 -85 315 -183 457 -319
89 -87 119 -122 114 -134 -16 -41 -100 -11 -222 80 -159 118 -269 186 -498
306 -264 140 -303 164 -404 259 -86 79 -165 119 -300 154 -113 29 -156 30
-203 5z"/>
<path d="M6384 5815 c-12 -48 19 -117 120 -269 132 -199 151 -245 142 -349 -7
-78 -7 -78 138 -385 79 -169 154 -332 167 -362 25 -59 85 -158 75 -125 -3 11
-12 72 -20 135 -19 146 -47 281 -91 440 -18 69 -41 168 -50 220 -33 200 -90
324 -206 446 -43 46 -110 124 -149 173 -84 107 -114 125 -126 76z"/>
<path d="M3087 5481 c-10 -4 -52 -36 -92 -71 -74 -65 -74 -65 -37 -102 20 -21
45 -38 57 -38 11 0 85 -13 165 -30 548 -111 1171 -437 1397 -732 102 -131 179
-291 308 -640 129 -346 168 -517 131 -573 -26 -40 -39 -21 -91 138 -79 241
-137 376 -382 886 -87 180 -282 341 -608 501 -253 125 -561 216 -768 227 -97
6 -97 6 -138 -38 -23 -24 -54 -67 -71 -96 -16 -28 -36 -57 -43 -63 -23 -19
-18 -26 28 -44 35 -13 49 -14 82 -4 60 18 303 15 411 -5 196 -37 376 -98 563
-191 226 -114 441 -300 441 -383 0 -50 -27 -40 -169 65 -52 39 -129 91 -172
116 -181 108 -452 199 -673 226 -111 14 -277 9 -319 -11 -27 -12 -76 -78 -112
-149 -10 -19 -24 -43 -33 -52 -14 -17 -12 -18 26 -18 22 0 71 6 109 14 170 35
327 28 573 -24 162 -34 235 -58 355 -115 96 -46 358 -198 412 -238 84 -62 198
-245 309 -492 97 -218 119 -259 158 -303 76 -85 91 -153 91 -427 0 -250 -10
-310 -83 -515 -11 -30 -22 -68 -26 -83 -6 -27 -4 -26 59 24 69 54 128 117 151
161 35 67 47 203 51 609 6 452 4 471 -74 719 -25 80 -62 206 -83 280 -65 228
-121 363 -208 500 -148 234 -417 437 -892 675 -264 133 -459 214 -660 276
-100 30 -113 32 -143 20z"/>
<path d="M7003 5105 c-12 -33 5 -116 38 -181 19 -36 37 -67 40 -69 3 -2 -5 42
-18 98 -12 56 -24 117 -25 135 -2 33 -24 44 -35 17z"/>
<path d="M5614 4485 c-15 -23 -14 -32 17 -147 80 -303 93 -384 126 -773 24
-285 23 -711 -1 -930 -10 -88 -19 -185 -20 -215 -1 -56 -1 -56 56 56 103 200
110 231 116 509 13 633 -108 1405 -236 1506 -32 25 -38 24 -58 -6z"/>
<path d="M6120 4311 c-16 -32 -12 -68 35 -310 78 -404 105 -643 105 -941 0
-102 3 -210 7 -240 6 -54 6 -54 49 75 24 72 51 173 60 225 17 90 17 104 0 267
-26 267 -70 500 -143 766 -35 125 -61 177 -88 177 -8 0 -19 -9 -25 -19z"/>
<path d="M3138 4242 c-19 -17 -49 -58 -67 -91 -17 -33 -37 -64 -44 -68 -22
-14 69 -20 155 -10 171 19 346 -23 471 -114 311 -226 486 -412 576 -610 61
-134 62 -142 51 -484 -5 -170 -13 -328 -18 -350 -6 -22 -12 -61 -15 -87 -4
-46 -4 -46 37 -16 47 34 90 84 108 124 9 21 13 102 13 279 0 226 2 250 17 253
20 4 44 -39 65 -113 21 -74 28 -293 14 -440 -7 -71 -9 -156 -6 -190 7 -63 7
-63 40 -26 110 121 140 501 56 721 -11 30 -44 91 -72 135 -28 44 -77 132 -109
195 -122 242 -261 409 -465 560 -130 95 -175 138 -175 167 0 111 425 -175 589
-396 97 -131 295 -503 340 -638 32 -96 51 -210 51 -306 0 -144 -47 -344 -91
-388 -26 -26 -24 -39 9 -39 50 0 131 60 162 120 59 117 72 419 25 606 -20 79
-278 597 -355 713 -82 122 -167 205 -303 295 -186 124 -317 176 -444 176 -34
0 -109 9 -165 21 -67 14 -158 23 -259 26 -156 5 -156 5 -191 -25z"/>
<path d="M3234 3906 c-11 -8 -33 -34 -49 -58 -15 -24 -36 -55 -46 -70 -19 -27
-19 -27 39 -32 148 -16 225 -28 274 -45 279 -96 497 -332 553 -599 17 -79 19
-270 4 -341 -8 -39 -15 -50 -34 -55 -23 -6 -55 -43 -68 -78 -5 -13 1 -12 31 7
20 13 45 31 55 39 39 36 57 5 57 -95 0 -73 0 -73 41 -34 75 74 79 88 79 312
-1 215 -12 307 -53 413 -86 227 -312 457 -570 581 -125 60 -270 85 -313 55z"/>
<path d="M3340 3533 c-16 -16 -40 -44 -52 -63 -23 -34 -23 -34 85 -71 150 -51
232 -109 301 -213 61 -93 78 -162 74 -306 -3 -126 -3 -126 55 -87 75 49 97 86
97 158 0 74 -32 199 -73 279 -58 116 -201 247 -333 306 -73 32 -116 31 -154
-3z"/>
</g>
</svg>
