<?xml version="1.0" standalone="no"?>
<!DOCTYPE svg PUBLIC "-//W3C//DTD SVG 20010904//EN"
 "http://www.w3.org/TR/2001/REC-SVG-20010904/DTD/svg10.dtd">
<svg version="1.0" xmlns="http://www.w3.org/2000/svg"
 width="1000.000000pt" height="1000.000000pt" viewBox="0 0 1000.000000 1000.000000"
 preserveAspectRatio="xMidYMid meet">
<metadata>
  <rdf:RDF
    xmlns:rdf = "http://www.w3.org/1999/02/22-rdf-syntax-ns#"
    xmlns:rdfs = "http://www.w3.org/2000/01/rdf-schema#"
    xmlns:dc = "http://purl.org/dc/elements/1.1/"
    xmlns:cc = "http://creativecommons.org/ns#">
    <cc:license rdf:resource="http://creativecommons.org/publicdomain/zero/1.0/deed.en"/>
    <cc:permits rdf:resource="http://creativecommons.org/ns#Reproduction"/>
    <rdf:Description about="https://nft.mir.one/fingerprints"
      dc:title="TON Fingerprints"
      dc:description="This is a unique digital fingerprint created based on the algorithm for generating basic rings using a noise texture. Like human fingerprints, you can now use it for the Web3 and Metaverse era as digital biometric information."
      dc:publisher="https://nft.mir.one"
      dc:date="2022-02-22"
      dc:format="image/svg+xml"
      dc:language="en" >
      <dc:creator>
      <rdf:Bag>
        <rdf:li>EQBondcvD2_aOFADXSWJHs4ZazQDuEl9_wNvGGPxI8hGuOFU</rdf:li>
        <rdf:li>ipfs://bafkreihj7iub3fhmhq6jn62noukt5wxn3gv6bvcg7wmt6ywvlurefezckq</rdf:li>
      </rdf:Bag>
      </dc:creator>
    </rdf:Description>
  </rdf:RDF>
</metadata>
<g transform="translate(0.000000,1000.000000) scale(0.100000,-0.100000)"
fill="#1b1f23" stroke="none">
<path d="M5190 7797 c6 -6 271 -112 395 -157 155 -57 359 -107 245 -61 -171
70 -374 144 -480 176 -165 48 -166 48 -160 42z"/>
<path d="M4520 7695 c33 -22 165 -81 326 -145 626 -250 694 -287 1143 -630
139 -106 335 -246 435 -310 100 -65 205 -134 233 -154 28 -20 83 -54 122 -75
71 -39 71 -39 -6 47 -119 134 -321 331 -403 394 -41 32 -140 105 -219 164 -94
70 -190 153 -275 239 -141 142 -181 169 -376 256 -267 119 -574 200 -875 229
-60 6 -121 14 -135 17 -17 4 -7 -7 30 -32z"/>
<path d="M4138 7497 c-127 -22 -127 -22 -85 -40 23 -10 101 -33 172 -52 145
-37 345 -106 540 -185 290 -118 1164 -558 1225 -616 23 -23 24 -25 7 -41 -24
-24 -93 -21 -173 6 -33 11 -146 59 -250 107 -104 47 -250 111 -324 141 -74 30
-175 79 -225 108 -148 90 -381 185 -770 316 -121 41 -136 44 -225 42 -52 -1
-119 -6 -148 -11 -45 -8 -56 -6 -77 10 -24 18 -24 18 -9 -12 27 -53 1 -81
-108 -120 -50 -17 -50 -17 -4 -24 29 -5 76 -1 130 10 78 15 89 15 166 0 46
-10 133 -37 194 -61 152 -60 476 -178 621 -227 192 -64 188 -61 180 -107 -8
-48 1 -54 102 -75 88 -19 158 -44 503 -183 339 -137 322 -129 402 -196 35 -29
144 -108 243 -174 240 -162 408 -299 623 -507 99 -96 188 -178 199 -184 42
-23 -155 327 -234 415 -100 112 -443 360 -664 482 -42 22 -84 50 -93 60 -16
17 -16 20 -1 35 24 23 90 20 158 -8 130 -54 372 -217 592 -400 124 -103 224
-174 189 -135 -12 13 -53 71 -91 129 -106 159 -206 275 -292 339 -75 56 -251
163 -386 237 -38 21 -104 70 -145 109 -150 142 -447 334 -755 488 -265 132
-690 308 -805 333 -91 19 -233 16 -382 -9z"/>
<path d="M5974 7356 c-13 -33 10 -73 79 -141 92 -89 299 -236 419 -297 93 -47
93 -47 53 -11 -90 79 -304 262 -361 308 -34 28 -89 74 -123 103 -49 43 -62 51
-67 38z"/>
<path d="M3772 7004 c-79 -21 -186 -68 -282 -124 -96 -56 -112 -53 130 -25 74
9 208 22 298 29 119 10 168 17 179 28 34 35 -29 81 -135 98 -77 13 -127 11
-190 -6z"/>
<path d="M4120 6841 c-85 -45 -128 -54 -515 -106 -22 -3 -75 -17 -118 -30 -97
-31 -115 -31 -126 -2 -8 20 -10 20 -16 4 -21 -50 42 -100 149 -118 95 -16 184
-7 355 35 184 46 292 60 412 54 79 -4 108 -10 153 -32 53 -26 78 -58 59 -76
-4 -5 -118 -10 -253 -13 -261 -4 -321 -14 -368 -58 -59 -54 -1 -68 301 -68
195 -1 263 2 320 15 153 35 237 15 667 -159 264 -107 406 -158 522 -188 169
-43 268 -88 434 -200 246 -164 587 -474 792 -719 117 -138 207 -232 197 -205
-128 347 -170 412 -408 634 -331 308 -701 559 -992 671 -535 208 -658 262
-730 321 -29 24 -69 45 -104 55 -111 31 -158 48 -276 100 -131 58 -260 98
-345 108 -49 6 -61 3 -110 -23z"/>
<path d="M3320 6439 c-19 -5 -59 -20 -88 -31 -52 -22 -52 -22 8 -40 72 -22 89
-46 57 -76 -26 -25 -148 -82 -174 -82 -11 0 -4 -9 21 -26 38 -26 41 -26 145
-20 58 4 174 11 256 15 97 5 168 14 200 25 39 14 69 16 135 12 109 -7 444 -66
626 -111 272 -66 663 -228 772 -320 16 -13 44 -52 62 -87 27 -52 100 -130 400
-433 403 -408 748 -798 1050 -1189 43 -57 94 -115 113 -129 33 -25 33 -25 22
26 -7 29 -22 96 -35 150 -12 54 -32 115 -44 137 -22 41 -441 519 -665 759 -74
79 -229 232 -345 340 -302 281 -416 393 -416 408 0 24 48 26 92 4 76 -37 512
-425 728 -647 69 -71 206 -219 305 -329 238 -265 413 -445 451 -467 32 -17 32
-17 4 70 -41 132 -82 204 -169 295 -42 45 -137 150 -211 232 -264 295 -510
527 -841 792 -70 57 -124 109 -139 134 -40 67 -61 84 -140 113 -41 16 -203 79
-360 141 -286 114 -416 157 -526 175 -32 5 -160 17 -284 25 -384 27 -430 36
-544 102 -12 7 -59 13 -111 14 -49 0 -115 5 -145 10 -95 16 -174 19 -210 8z"/>
<path d="M3752 6108 c-41 -41 19 -85 173 -128 150 -42 167 -49 435 -168 381
-169 442 -210 543 -360 43 -64 125 -160 238 -278 454 -474 695 -778 816 -1029
48 -100 48 -100 54 -260 8 -181 15 -210 135 -553 86 -244 148 -388 187 -433
32 -37 32 -37 33 -10 18 318 23 278 -61 496 -116 301 -176 476 -173 504 2 18
10 27 24 29 48 7 126 -127 241 -413 97 -239 123 -297 152 -330 26 -31 26 -31
24 110 -3 178 -7 208 -48 315 -70 183 -131 287 -256 430 -44 52 -112 139 -151
194 -303 432 -448 604 -864 1026 -132 135 -245 256 -249 269 -9 29 9 44 45 36
56 -13 145 -88 345 -289 338 -339 487 -510 781 -891 94 -121 199 -258 236
-305 144 -186 198 -288 239 -448 16 -63 41 -133 54 -156 25 -41 25 -41 25 52
0 73 5 104 21 143 18 41 21 61 15 113 -3 35 -12 80 -19 100 -18 53 -117 189
-343 470 -358 446 -567 678 -960 1066 -267 264 -238 243 -559 386 -214 95
-293 126 -467 182 -334 110 -629 167 -666 130z"/>
<path d="M3184 5984 c-28 -14 -76 -48 -108 -75 -32 -27 -63 -49 -69 -49 -7 0
6 -11 28 -24 34 -20 67 -26 215 -40 241 -23 306 -32 447 -63 120 -26 124 -26
160 -9 68 32 243 14 251 -27 6 -29 -43 -40 -132 -29 -50 7 -88 7 -104 1 -22
-9 -23 -11 -10 -31 30 -45 70 -62 237 -104 323 -80 488 -183 830 -519 239
-234 416 -439 597 -690 185 -256 279 -451 223 -463 -28 -5 -72 42 -164 175
-129 187 -384 518 -507 659 -173 197 -406 404 -583 520 -118 76 -241 135 -420
199 -88 32 -207 80 -265 107 -168 80 -209 87 -474 83 -254 -3 -237 2 -346
-109 -24 -25 -51 -46 -60 -47 -13 0 -13 -1 0 -6 8 -3 26 -16 40 -28 14 -12 57
-33 95 -45 39 -13 162 -69 275 -126 170 -86 244 -116 433 -178 374 -123 595
-250 900 -514 161 -140 292 -293 270 -316 -15 -14 -57 -4 -96 23 -23 16 -76
60 -117 97 -201 180 -401 325 -592 431 -137 76 -241 117 -353 139 -172 32
-241 53 -457 133 -119 45 -226 81 -237 81 -31 0 -84 -53 -119 -117 -17 -32
-40 -68 -51 -79 -20 -22 -20 -22 12 -28 18 -4 70 -11 117 -16 105 -10 187 -31
305 -76 118 -46 161 -72 248 -151 87 -78 172 -137 332 -228 252 -144 438 -278
632 -456 107 -98 164 -162 295 -326 103 -130 138 -162 206 -189 38 -15 53 -31
114 -123 38 -58 82 -118 96 -133 45 -48 92 -32 92 30 0 50 -114 388 -175 522
-60 130 -69 159 -56 179 28 43 111 -59 207 -254 106 -216 144 -356 144 -528 0
-65 10 -132 40 -267 23 -99 52 -252 66 -340 13 -88 29 -172 34 -186 6 -14 10
-37 11 -52 0 -21 3 -17 14 18 7 25 30 86 52 135 38 90 38 90 37 220 -3 203
-64 568 -129 761 -86 259 -242 490 -420 625 -72 55 -104 99 -149 207 -45 108
-108 194 -231 317 -258 257 -549 445 -890 574 -336 127 -445 174 -485 208 -28
25 -40 42 -38 57 3 19 9 21 59 20 66 -1 125 -20 409 -129 354 -136 486 -205
695 -360 253 -188 422 -365 603 -631 34 -49 109 -146 168 -215 139 -163 317
-407 361 -492 42 -84 83 -207 129 -391 53 -210 66 -315 62 -511 -3 -159 5
-255 20 -255 4 0 30 58 57 127 94 238 118 244 185 43 6 -18 8 -6 9 45 1 44 -5
81 -14 99 -8 15 -15 44 -15 62 0 19 -9 60 -19 91 -11 32 -50 157 -87 278 -37
121 -87 285 -112 365 -44 143 -45 147 -46 295 -1 150 -1 150 -44 240 -86 178
-244 395 -499 685 -148 168 -573 601 -642 655 -84 64 -219 138 -367 201 -105
44 -139 63 -159 90 -42 55 -100 81 -261 118 -82 19 -180 46 -218 61 -85 32
-176 51 -281 59 -44 4 -98 9 -120 12 -30 3 -52 -2 -91 -22z m670 -1215 c164
-59 457 -243 691 -433 72 -58 180 -144 240 -190 61 -46 126 -101 144 -122 36
-40 159 -289 192 -388 21 -62 15 -106 -13 -106 -8 0 -33 33 -57 73 -186 306
-253 383 -516 598 -210 172 -379 285 -672 449 -120 67 -169 109 -160 134 10
24 56 19 151 -15z"/>
<path d="M5683 5953 c-20 -8 -15 -38 10 -60 12 -11 65 -48 117 -83 214 -142
403 -302 645 -544 99 -100 234 -244 300 -321 156 -182 244 -274 277 -291 36
-19 44 -18 26 4 -9 9 -32 60 -53 112 -61 155 -90 204 -187 317 -197 231 -488
505 -711 670 -218 161 -355 225 -424 196z"/>
<path d="M3074 4720 c-12 -5 -49 -34 -83 -65 -61 -58 -61 -58 -14 -81 27 -13
56 -24 65 -24 36 0 229 -70 317 -114 51 -26 141 -77 199 -113 199 -123 236
-142 321 -162 102 -25 163 -60 295 -165 186 -148 344 -312 617 -641 142 -172
246 -315 313 -430 50 -88 200 -423 246 -550 16 -44 35 -98 44 -120 15 -40 15
-40 16 -7 0 18 6 45 14 60 7 15 22 59 32 99 22 88 16 126 -55 343 -64 193 -96
253 -194 362 -45 51 -100 116 -122 143 -22 28 -87 100 -145 160 -59 61 -158
171 -222 245 -250 292 -490 491 -773 640 -147 77 -262 145 -378 223 -112 74
-240 138 -342 170 -109 33 -127 37 -151 27z"/>
<path d="M3095 4354 c-16 -8 -46 -31 -65 -50 -20 -19 -42 -34 -50 -34 -22 0
66 -49 138 -76 180 -69 336 -169 459 -296 49 -51 168 -174 264 -273 176 -182
254 -272 346 -400 170 -235 291 -506 347 -772 22 -107 65 -247 66 -215 0 7 18
31 39 55 21 23 49 61 61 85 30 56 23 121 -26 273 -113 351 -332 672 -744 1094
-70 72 -147 157 -171 190 -112 153 -185 217 -367 319 -88 50 -237 116 -259
116 -4 0 -21 -7 -38 -16z"/>
<path d="M3848 4073 c-12 -3 -18 -14 -18 -35 0 -25 31 -62 218 -251 351 -358
542 -605 681 -877 98 -193 134 -311 151 -502 6 -68 18 -145 26 -171 16 -48 16
-48 33 -15 51 96 107 187 134 215 34 36 33 42 -15 188 -64 193 -177 398 -340
617 -180 242 -370 454 -552 616 -189 169 -272 225 -318 215z"/>
<path d="M3145 3972 c-16 -11 -36 -26 -44 -35 -7 -10 -21 -17 -30 -17 -16 0
15 -19 160 -95 96 -50 164 -104 172 -135 7 -27 -8 -34 -68 -35 -36 -1 -64 -9
-99 -30 -49 -29 -49 -29 3 -51 28 -13 86 -28 129 -34 97 -13 170 -49 283 -140
258 -207 380 -403 499 -800 37 -125 80 -240 80 -217 0 10 20 36 45 59 25 23
51 59 61 84 16 42 16 45 -10 126 -34 105 -97 254 -144 338 -112 204 -226 346
-433 543 -77 72 -174 171 -215 220 -114 134 -256 237 -325 237 -19 0 -47 -8
-64 -18z"/>
<path d="M6800 3666 c0 -2 7 -7 16 -10 8 -3 12 -2 9 4 -6 10 -25 14 -25 6z"/>
<path d="M3430 3306 c-14 -9 -38 -22 -55 -30 -16 -9 -25 -15 -18 -16 26 0 257
-186 331 -265 74 -80 99 -117 121 -177 21 -57 101 -21 101 45 0 91 -149 290
-308 410 -61 46 -129 59 -172 33z"/>
<path d="M5116 2418 c11 -80 23 -135 41 -181 18 -46 18 -46 37 32 12 49 16 91
12 114 -7 39 -46 77 -77 77 -17 0 -18 -6 -13 -42z"/>
</g>
</svg>
