<?xml version="1.0" standalone="no"?>
<!DOCTYPE svg PUBLIC "-//W3C//DTD SVG 20010904//EN"
 "http://www.w3.org/TR/2001/REC-SVG-20010904/DTD/svg10.dtd">
<svg version="1.0" xmlns="http://www.w3.org/2000/svg"
 width="1000.000000pt" height="1000.000000pt" viewBox="0 0 1000.000000 1000.000000"
 preserveAspectRatio="xMidYMid meet">
<metadata>
  <rdf:RDF
    xmlns:rdf = "http://www.w3.org/1999/02/22-rdf-syntax-ns#"
    xmlns:rdfs = "http://www.w3.org/2000/01/rdf-schema#"
    xmlns:dc = "http://purl.org/dc/elements/1.1/"
    xmlns:cc = "http://creativecommons.org/ns#">
    <cc:license rdf:resource="http://creativecommons.org/publicdomain/zero/1.0/deed.en"/>
    <cc:permits rdf:resource="http://creativecommons.org/ns#Reproduction"/>
    <rdf:Description about="https://nft.mir.one/fingerprints"
      dc:title="TON Fingerprints"
      dc:description="This is a unique digital fingerprint created based on the algorithm for generating basic rings using a noise texture. Like human fingerprints, you can now use it for the Web3 and Metaverse era as digital biometric information."
      dc:publisher="https://nft.mir.one"
      dc:date="2022-02-22"
      dc:format="image/svg+xml"
      dc:language="en" >
      <dc:creator>
      <rdf:Bag>
        <rdf:li>EQBondcvD2_aOFADXSWJHs4ZazQDuEl9_wNvGGPxI8hGuOFU</rdf:li>
        <rdf:li>ipfs://bafkreihj7iub3fhmhq6jn62noukt5wxn3gv6bvcg7wmt6ywvlurefezckq</rdf:li>
      </rdf:Bag>
      </dc:creator>
    </rdf:Description>
  </rdf:RDF>
</metadata>
<g transform="translate(0.000000,1000.000000) scale(0.100000,-0.100000)"
fill="#1b1f23" stroke="none">
<path d="M4915 7695 c-289 -16 -340 -21 -475 -47 -97 -18 -326 -85 -318 -93 1
-2 26 1 53 6 28 5 228 13 445 18 345 8 411 12 520 32 107 20 159 23 358 24
256 0 258 2 52 46 -126 26 -332 31 -635 14z"/>
<path d="M5232 7499 c-30 -5 -86 -23 -125 -40 -70 -31 -70 -31 -396 -34 -377
-3 -402 -7 -646 -89 -88 -30 -200 -67 -250 -82 -90 -29 -90 -29 -31 -34 77 -7
95 -30 51 -66 -16 -13 -51 -32 -77 -42 -51 -18 -61 -36 -28 -47 35 -11 96 5
146 38 26 18 59 40 73 49 69 44 368 82 651 82 265 0 292 -4 532 -84 233 -79
530 -135 883 -170 144 -14 202 -25 330 -60 106 -30 232 -42 190 -18 -11 6 -54
37 -95 68 -95 72 -216 151 -274 179 -43 22 -46 22 -103 5 -51 -15 -69 -15
-148 -5 -162 22 -598 101 -669 122 -73 22 -120 57 -110 83 21 54 611 -28 888
-124 73 -25 76 -25 76 1 0 51 -154 141 -359 209 -186 63 -364 83 -509 59z"/>
<path d="M4397 7080 c-145 -11 -296 -36 -409 -66 -51 -14 -138 -34 -193 -44
-108 -19 -180 -48 -318 -127 -87 -51 -87 -51 -50 -56 21 -2 101 4 178 14 77
10 199 25 270 34 72 9 195 26 275 36 92 13 235 22 390 26 342 8 446 -8 560
-88 37 -26 96 -51 182 -79 142 -45 172 -65 216 -143 43 -75 108 -145 177 -190
33 -21 170 -94 305 -162 135 -68 292 -152 350 -187 58 -36 141 -86 185 -113
44 -27 124 -77 179 -112 111 -71 156 -82 156 -38 0 73 -79 160 -286 316 -261
196 -433 299 -684 409 -310 135 -365 171 -311 200 92 49 544 -93 744 -232 115
-81 431 -351 556 -475 123 -123 123 -123 83 -50 -104 189 -194 318 -327 467
-72 81 -99 130 -90 161 8 25 15 24 74 -10 27 -16 77 -41 110 -54 61 -25 61
-25 14 17 -84 75 -104 86 -150 86 -33 0 -54 8 -90 34 -130 92 -504 193 -877
236 -199 24 -274 40 -487 108 -85 27 -197 57 -249 66 -116 20 -339 27 -483 16z"/>
<path d="M4505 6749 c-223 -11 -754 -55 -879 -73 -137 -20 -214 -61 -377 -198
-44 -38 -44 -38 1 -38 25 0 88 12 140 25 220 58 300 69 550 70 129 1 354 7
500 14 435 19 396 15 444 49 23 17 62 39 87 48 68 27 90 44 87 68 -6 38 -42
46 -218 44 -91 0 -241 -5 -335 -9z"/>
<path d="M5057 6568 c-104 -11 -150 -30 -145 -60 5 -38 57 -56 276 -100 233
-46 264 -45 270 3 4 30 -51 85 -119 119 -40 21 -158 51 -189 49 -8 -1 -50 -6
-93 -11z"/>
<path d="M3765 6413 c-103 -15 -367 -88 -425 -118 -49 -25 -131 -108 -214
-214 -45 -58 -85 -111 -89 -118 -10 -16 45 2 113 39 217 116 349 173 565 244
244 79 275 93 275 123 0 41 -104 61 -225 44z"/>
<path d="M4395 6384 c-116 -12 -263 -37 -294 -50 -20 -8 -58 -37 -86 -63 -58
-57 -80 -68 -281 -151 -257 -106 -490 -235 -555 -306 -63 -69 -106 -150 -204
-386 -53 -126 -53 -126 -16 -100 20 14 61 57 91 94 76 95 230 241 329 312 161
115 439 255 741 374 264 104 522 108 960 16 328 -69 472 -116 610 -202 104
-65 157 -116 279 -275 58 -77 127 -167 153 -200 66 -86 105 -163 128 -253 24
-92 25 -164 5 -204 -26 -51 -50 -39 -75 36 -27 86 -90 210 -152 301 -108 162
-287 352 -403 430 -186 125 -450 213 -780 259 -170 23 -410 15 -555 -19 -283
-68 -549 -190 -810 -375 -112 -79 -355 -316 -395 -385 -41 -71 -93 -216 -126
-352 -17 -66 -32 -129 -35 -140 -8 -32 38 26 123 155 174 265 328 428 535 566
53 35 120 85 150 110 71 61 178 114 340 168 205 69 305 87 508 93 132 4 204 1
293 -11 234 -33 467 -119 643 -236 117 -78 292 -259 428 -442 125 -168 157
-200 223 -217 38 -10 43 -16 61 -64 97 -260 131 -573 102 -931 -20 -245 -75
-446 -180 -661 -84 -174 -161 -277 -342 -457 -150 -150 -178 -188 -164 -224 7
-20 31 -13 111 31 317 176 569 579 669 1065 14 69 40 226 58 350 54 377 43
591 -57 1096 -14 68 -23 135 -19 149 21 86 120 -23 178 -196 33 -98 85 -411
93 -554 6 -124 -3 -193 -47 -355 -16 -58 -47 -204 -69 -325 -63 -345 -122
-538 -231 -756 -98 -195 -207 -336 -340 -442 -134 -107 -252 -148 -334 -117
-21 7 -50 1 -148 -32 -108 -37 -134 -42 -216 -42 -81 -1 -95 2 -108 18 -21 29
-6 40 124 90 64 25 140 61 167 80 75 50 362 339 436 438 176 237 271 469 301
738 10 93 9 134 -6 287 -33 323 -65 466 -137 603 -41 80 -246 354 -378 506
-200 231 -452 376 -766 440 -136 28 -452 26 -594 -4 -107 -22 -450 -122 -508
-147 -38 -17 -42 -39 -12 -71 27 -29 20 -39 -44 -59 -188 -61 -399 -252 -580
-525 -86 -130 -102 -166 -127 -290 -20 -98 -25 -156 -35 -400 -5 -125 -5 -125
20 -55 14 39 34 101 45 138 54 184 170 425 273 570 128 178 241 283 493 458
119 82 183 114 316 154 442 133 860 83 1175 -141 107 -77 207 -189 349 -394
201 -290 269 -443 293 -664 13 -112 8 -142 -27 -175 -36 -35 -56 -88 -96 -252
-58 -244 -122 -370 -216 -428 -26 -16 -71 -58 -100 -93 -82 -100 -200 -217
-266 -264 -124 -89 -284 -142 -300 -100 -9 24 18 50 131 124 126 82 270 224
309 304 17 36 41 121 63 225 43 206 50 402 19 513 -56 202 -192 335 -384 376
-294 62 -604 -84 -737 -348 -65 -129 -72 -280 -20 -396 41 -91 115 -151 150
-122 20 16 18 50 -5 139 -43 160 -10 298 97 412 94 100 207 149 346 149 328 1
506 -307 406 -699 -43 -168 -132 -292 -296 -414 -207 -153 -282 -183 -423
-174 -259 17 -564 204 -650 400 -11 25 -43 135 -70 242 -27 108 -63 233 -81
278 -26 69 -30 91 -26 140 8 87 41 145 109 190 32 21 86 71 120 113 300 364
311 375 433 434 107 52 222 78 400 90 192 13 234 32 182 84 -45 45 -124 61
-297 61 -182 -1 -265 -18 -443 -91 -80 -33 -133 -49 -188 -54 -90 -10 -151
-38 -237 -109 -129 -108 -207 -243 -292 -511 -49 -156 -88 -260 -147 -392 -21
-46 -35 -64 -74 -88 -69 -42 -84 -69 -83 -154 2 -126 57 -284 168 -485 35 -64
66 -129 70 -144 4 -17 11 -25 18 -21 19 12 81 13 101 2 10 -5 58 -46 105 -90
236 -219 655 -428 997 -497 157 -32 380 -56 505 -55 95 0 137 6 243 33 258 65
364 110 497 208 174 129 330 321 449 553 128 248 183 411 232 683 43 239 60
290 120 350 66 66 84 125 83 272 0 92 -7 135 -38 265 -50 204 -55 266 -27 320
24 46 24 47 -41 143 -58 86 -153 183 -217 221 -31 18 -101 51 -156 72 -95 36
-104 42 -190 128 -133 133 -186 225 -140 242 32 13 84 -24 195 -136 159 -162
185 -166 174 -27 -8 92 -24 121 -101 182 -74 58 -135 88 -248 120 -56 17 -136
52 -215 95 -223 122 -306 151 -470 165 -118 9 -290 42 -480 92 -167 43 -182
45 -335 48 -88 2 -178 1 -200 -1z m-227 -1591 c4 -30 -19 -71 -82 -146 -78
-92 -164 -213 -197 -279 -33 -66 -62 -77 -80 -30 -35 89 96 300 271 439 59 46
83 51 88 16z m1904 -783 c24 -47 23 -179 -1 -290 -56 -250 -176 -461 -391
-687 -172 -182 -269 -253 -510 -373 -141 -70 -182 -80 -315 -69 -296 24 -646
160 -975 379 -85 57 -182 114 -215 127 -72 29 -118 76 -167 170 -65 126 -83
194 -83 323 0 135 7 170 35 170 28 0 46 -34 69 -130 39 -168 84 -250 168 -310
25 -19 107 -83 182 -143 216 -172 383 -267 591 -335 120 -39 227 -58 405 -72
116 -10 152 -9 211 3 164 35 305 125 499 321 158 159 254 281 308 390 69 140
111 304 124 479 6 82 7 88 27 85 12 -2 28 -18 38 -38z m-2347 -119 c3 -10 12
-54 20 -97 8 -43 25 -132 39 -197 18 -84 22 -125 16 -143 -29 -75 -105 37
-147 215 -27 119 -4 241 47 241 10 0 21 -8 25 -19z"/>
<path d="M6504 5765 c-17 -43 73 -161 205 -267 42 -34 128 -112 191 -173 63
-61 131 -118 151 -127 36 -16 36 -16 -3 75 -92 218 -147 325 -185 359 -10 9
-45 25 -79 37 -33 11 -93 39 -132 61 -84 49 -138 61 -148 35z"/>
<path d="M4420 5340 c-271 -49 -518 -167 -725 -348 -194 -169 -344 -411 -452
-727 -47 -140 -47 -140 -48 -277 0 -146 8 -174 43 -152 26 17 88 139 128 254
58 164 139 371 169 431 81 160 210 318 331 405 121 87 379 190 589 235 75 17
135 22 240 22 220 1 327 -33 450 -142 107 -96 291 -189 318 -162 29 29 1 106
-66 179 -106 115 -295 227 -456 269 -133 35 -368 41 -521 13z"/>
<path d="M6866 5071 c-10 -16 134 -358 175 -414 16 -22 29 -36 29 -30 0 36
-52 278 -70 326 -27 71 -73 127 -105 127 -13 0 -26 -4 -29 -9z"/>
<path d="M4985 4790 c-265 -32 -373 -61 -498 -136 -84 -51 -227 -195 -326
-329 -161 -217 -183 -304 -135 -540 46 -228 131 -373 277 -475 107 -76 210
-112 335 -118 93 -4 111 -2 188 23 106 34 208 100 290 186 110 115 160 252
151 411 -8 146 -72 254 -190 315 -45 24 -64 28 -137 28 -66 0 -96 -5 -131 -21
-116 -54 -189 -165 -189 -290 0 -125 42 -223 106 -250 141 -59 318 77 274 210
-13 41 -59 71 -90 61 -21 -7 -22 -10 -24 -60 -1 -26 -5 -30 -33 -33 -67 -7
-97 80 -50 149 57 86 184 92 259 13 42 -45 61 -101 61 -176 0 -129 -90 -255
-229 -320 -170 -79 -456 -25 -575 110 -81 92 -128 224 -129 359 0 174 80 336
247 493 43 41 105 90 136 109 127 75 283 113 462 113 214 0 339 -46 450 -164
107 -113 152 -225 162 -398 7 -126 -8 -252 -47 -419 -33 -136 -37 -183 -16
-200 35 -29 101 81 151 253 38 133 85 398 85 480 0 89 -29 207 -74 301 -57
121 -174 262 -252 303 -12 6 -59 11 -105 11 -46 0 -115 4 -154 10 -83 13 -64
13 -250 -9z"/>
<path d="M6972 4150 c0 -14 2 -19 5 -12 2 6 2 18 0 25 -3 6 -5 1 -5 -13z"/>
<path d="M6843 4138 c-19 -24 -33 -83 -58 -253 -29 -205 -63 -425 -70 -463 -9
-52 57 153 86 267 35 136 68 316 71 388 2 56 -11 84 -29 61z"/>
<path d="M3990 2536 c0 -3 9 -10 20 -16 11 -6 20 -8 20 -6 0 3 -9 10 -20 16
-11 6 -20 8 -20 6z"/>
<path d="M4040 2505 c0 -9 206 -120 297 -159 100 -44 320 -119 383 -130 19 -4
-17 11 -80 33 -189 64 -348 129 -477 196 -68 35 -123 62 -123 60z"/>
<path d="M4768 2203 c7 -3 16 -2 19 1 4 3 -2 6 -13 5 -11 0 -14 -3 -6 -6z"/>
<path d="M4808 2193 c7 -3 16 -2 19 1 4 3 -2 6 -13 5 -11 0 -14 -3 -6 -6z"/>
</g>
</svg>
