<?xml version="1.0" standalone="no"?>
<!DOCTYPE svg PUBLIC "-//W3C//DTD SVG 20010904//EN"
 "http://www.w3.org/TR/2001/REC-SVG-20010904/DTD/svg10.dtd">
<svg version="1.0" xmlns="http://www.w3.org/2000/svg"
 width="1000.000000pt" height="1000.000000pt" viewBox="0 0 1000.000000 1000.000000"
 preserveAspectRatio="xMidYMid meet">
<metadata>
  <rdf:RDF
    xmlns:rdf = "http://www.w3.org/1999/02/22-rdf-syntax-ns#"
    xmlns:rdfs = "http://www.w3.org/2000/01/rdf-schema#"
    xmlns:dc = "http://purl.org/dc/elements/1.1/"
    xmlns:cc = "http://creativecommons.org/ns#">
    <cc:license rdf:resource="http://creativecommons.org/publicdomain/zero/1.0/deed.en"/>
    <cc:permits rdf:resource="http://creativecommons.org/ns#Reproduction"/>
    <rdf:Description about="https://nft.mir.one/fingerprints"
      dc:title="TON Fingerprints"
      dc:description="This is a unique digital fingerprint created based on the algorithm for generating basic rings using a noise texture. Like human fingerprints, you can now use it for the Web3 and Metaverse era as digital biometric information."
      dc:publisher="https://nft.mir.one"
      dc:date="2022-02-22"
      dc:format="image/svg+xml"
      dc:language="en" >
      <dc:creator>
      <rdf:Bag>
        <rdf:li>EQBondcvD2_aOFADXSWJHs4ZazQDuEl9_wNvGGPxI8hGuOFU</rdf:li>
        <rdf:li>ipfs://bafkreihj7iub3fhmhq6jn62noukt5wxn3gv6bvcg7wmt6ywvlurefezckq</rdf:li>
      </rdf:Bag>
      </dc:creator>
    </rdf:Description>
  </rdf:RDF>
</metadata>
<g transform="translate(0.000000,1000.000000) scale(0.100000,-0.100000)"
fill="#1b1f23" stroke="none">
<path d="M5149 7761 c9 -26 35 -78 57 -116 154 -260 232 -456 293 -735 11 -52
41 -200 66 -329 26 -128 70 -331 100 -450 66 -267 82 -348 95 -480 25 -256 0
-581 -66 -831 -33 -128 -212 -670 -263 -798 -99 -247 -225 -460 -594 -1002
-192 -281 -284 -405 -392 -525 -44 -49 -90 -106 -101 -125 -21 -36 -21 -36 90
-8 61 15 140 42 175 60 73 37 49 6 422 555 417 614 481 733 585 1083 91 303
144 458 200 586 30 67 63 159 74 205 33 143 53 374 54 644 1 287 -6 339 -78
533 -63 172 -90 286 -141 592 -76 459 -116 618 -199 793 -46 98 -107 168 -230
265 -32 26 -82 66 -111 89 -53 42 -53 42 -36 -6z"/>
<path d="M4825 7759 c9 -23 29 -67 46 -98 69 -127 243 -510 275 -608 30 -88
37 -126 44 -241 8 -119 15 -160 60 -317 72 -253 134 -509 159 -652 64 -380 47
-736 -54 -1126 -72 -281 -189 -587 -277 -728 -26 -41 -83 -114 -128 -164 -80
-90 -128 -158 -389 -564 -174 -270 -295 -437 -414 -571 -87 -99 -156 -193
-128 -176 7 5 44 12 83 17 135 17 188 37 243 94 87 88 228 285 526 733 372
558 408 623 517 927 162 453 220 717 229 1050 9 314 -7 431 -123 925 -36 151
-87 383 -114 516 -54 266 -81 357 -147 514 -115 270 -160 331 -331 448 -91 63
-91 63 -77 21z"/>
<path d="M4552 7696 c17 -28 38 -60 48 -71 41 -47 90 -132 90 -157 0 -43 -37
-36 -101 19 -30 25 -81 59 -115 75 -61 28 -195 70 -203 63 -13 -13 194 -205
312 -289 98 -70 181 -166 282 -327 50 -78 104 -158 121 -176 38 -40 70 -43 86
-8 19 42 -17 143 -129 365 -57 113 -115 243 -129 290 -22 74 -32 91 -74 130
-26 25 -86 66 -133 91 -84 46 -84 46 -55 -5z"/>
<path d="M5569 7685 c193 -389 217 -482 301 -1174 33 -273 75 -394 176 -509
26 -30 50 -69 55 -90 15 -63 10 -252 -16 -632 -42 -605 -42 -598 -14 -650 21
-40 24 -58 24 -155 -1 -91 -6 -130 -32 -225 -67 -248 -145 -402 -185 -362 -20
20 -11 88 31 237 78 277 105 413 92 461 -14 55 -64 37 -101 -36 -45 -88 -136
-403 -180 -623 -28 -139 -36 -164 -100 -292 -72 -146 -206 -362 -382 -613
-256 -368 -310 -450 -359 -545 -28 -56 -63 -118 -78 -137 -32 -42 -85 -146
-68 -132 34 27 168 64 271 73 139 13 182 27 277 88 134 86 140 93 404 466 105
148 229 315 419 560 150 193 230 309 266 387 31 67 89 276 195 703 35 143 82
305 104 360 40 101 97 311 125 460 39 213 30 335 -30 391 -33 32 -33 32 -12
150 33 183 31 391 -7 603 -26 143 -31 159 -37 125 -4 -21 -7 -70 -7 -109 -2
-180 -28 -285 -90 -362 -16 -21 -37 -65 -46 -98 -9 -33 -39 -127 -66 -210 -83
-254 -115 -424 -126 -660 -5 -123 -3 -154 17 -250 27 -130 24 -264 -10 -456
-60 -349 -141 -548 -318 -786 -91 -122 -263 -363 -477 -668 -164 -234 -319
-436 -389 -507 -77 -78 -144 -115 -175 -98 -12 6 -21 14 -21 18 0 18 57 102
172 252 199 263 441 613 663 963 44 70 99 140 154 195 94 95 135 165 184 317
72 218 89 371 75 659 -20 401 12 737 105 1101 38 151 41 168 39 295 -1 156
-11 212 -53 292 -28 55 -30 67 -40 250 -12 222 -28 300 -94 462 -26 61 -54
132 -64 159 -18 47 -18 47 -30 -7 -10 -43 -9 -94 3 -257 28 -385 30 -453 11
-608 -10 -80 -15 -179 -13 -223 5 -76 4 -79 -16 -76 -14 2 -29 20 -44 50 -20
40 -25 70 -33 215 -29 541 -56 788 -93 870 -50 108 -135 206 -339 393 -38 35
-38 35 -18 -5z m717 -1282 c10 -54 -12 -227 -37 -281 -25 -59 -56 -92 -85 -92
-44 0 -46 67 -4 129 16 24 32 60 36 80 18 105 35 175 45 187 20 24 38 15 45
-23z m434 -712 c0 -10 -7 -49 -15 -87 -8 -38 -31 -163 -50 -279 -49 -281 -72
-378 -97 -405 -19 -20 -22 -21 -37 -5 -31 31 -13 264 40 528 25 124 53 198 89
237 32 34 70 41 70 11z"/>
<path d="M4050 7465 c14 -15 78 -75 144 -133 207 -187 374 -385 572 -678 140
-207 228 -411 293 -684 139 -577 95 -1039 -166 -1729 -71 -190 -85 -245 -71
-276 40 -89 154 58 263 340 167 433 242 862 215 1233 -18 256 -74 530 -159
790 -64 195 -117 297 -198 383 -39 41 -116 137 -173 214 -140 191 -175 230
-320 363 -137 126 -185 154 -302 177 -40 9 -84 18 -98 21 -25 6 -25 6 0 -21z"/>
<path d="M3880 7330 c13 -25 69 -97 125 -160 353 -396 552 -716 699 -1122 100
-277 130 -437 130 -703 0 -322 -37 -484 -251 -1090 -104 -295 -163 -420 -291
-617 -130 -202 -142 -223 -200 -358 -95 -222 -155 -328 -242 -423 -25 -29 -56
-68 -67 -87 -22 -35 -22 -35 70 -29 138 10 162 24 243 132 38 51 99 139 135
197 187 297 349 567 402 670 57 113 58 117 67 230 10 123 18 154 124 470 73
219 115 378 147 555 19 101 23 158 23 355 0 203 -3 252 -23 365 -25 140 -73
318 -123 455 -117 323 -365 700 -663 1009 -96 99 -120 115 -230 151 -38 12
-76 28 -84 34 -8 6 -4 -9 9 -34z"/>
<path d="M3697 7154 c15 -27 52 -80 83 -119 287 -355 431 -605 565 -980 31
-88 78 -198 105 -245 87 -154 116 -297 107 -524 -7 -172 -26 -250 -105 -451
-32 -82 -78 -199 -102 -260 -97 -249 -195 -411 -329 -546 -137 -137 -262 -198
-591 -289 -102 -28 -204 -57 -227 -63 -42 -13 -42 -13 44 -51 110 -49 139 -52
259 -31 55 9 171 20 259 24 152 6 163 8 213 36 65 35 198 173 267 275 178 267
404 866 450 1191 29 209 14 437 -40 624 -59 204 -204 554 -301 729 -80 145
-226 360 -348 512 -113 142 -142 162 -257 184 -29 6 -58 15 -65 21 -8 6 -2
-11 13 -37z"/>
<path d="M6424 6974 c-7 -72 1 -302 15 -394 5 -30 16 -111 26 -180 24 -178 37
-231 58 -244 15 -9 22 -7 37 12 45 55 39 277 -14 488 -33 134 -103 374 -111
382 -2 2 -7 -27 -11 -64z"/>
<path d="M3527 6943 c9 -21 56 -94 102 -163 213 -312 269 -413 325 -582 51
-152 65 -251 81 -583 8 -165 19 -397 26 -516 12 -248 6 -320 -43 -459 -40
-114 -96 -207 -162 -267 -56 -52 -97 -68 -128 -52 -25 14 -23 20 27 93 57 81
117 209 144 304 54 196 51 473 -10 952 -11 85 -24 214 -29 285 -18 241 -83
397 -267 642 -69 92 -96 103 -192 78 -36 -10 -72 -21 -79 -25 -9 -4 14 -31 72
-84 172 -156 316 -399 316 -532 0 -90 -45 -69 -105 49 -62 120 -143 242 -195
292 -41 40 -41 40 -130 41 -89 1 -89 1 -61 -35 16 -20 50 -56 76 -81 67 -65
136 -162 189 -265 25 -49 66 -115 92 -145 85 -103 132 -224 177 -460 18 -97
21 -151 22 -340 0 -255 -8 -303 -85 -506 -34 -87 -43 -127 -49 -201 -6 -92 -6
-92 -61 -149 -53 -55 -215 -179 -358 -276 -38 -25 -84 -66 -103 -89 -19 -24
-28 -40 -21 -35 7 4 52 2 100 -5 87 -12 87 -12 191 35 268 122 472 248 577
357 134 142 234 338 294 584 27 110 28 111 70 133 73 37 110 175 110 410 -1
235 -35 373 -92 380 -22 3 -30 -2 -38 -22 -5 -15 -9 -150 -9 -308 0 -156 -4
-321 -8 -368 -7 -75 -10 -85 -27 -85 -35 0 -57 56 -67 168 -14 176 -11 528 7
638 14 89 14 106 -1 189 -47 274 -189 571 -431 900 -68 93 -87 105 -194 125
-19 4 -43 9 -53 11 -17 5 -17 4 0 -33z"/>
<path d="M3123 6150 c33 -39 136 -133 190 -174 56 -43 94 -32 82 22 -7 33 -98
157 -122 167 -10 4 -55 11 -99 14 -82 6 -82 6 -51 -29z"/>
<path d="M6940 5960 c-8 -47 -14 -116 -14 -155 1 -38 3 -146 5 -240 4 -195 -8
-271 -71 -469 -22 -71 -43 -162 -49 -217 -13 -111 -35 -194 -132 -504 -109
-348 -119 -384 -119 -430 0 -41 18 -75 40 -75 5 0 22 17 39 37 89 108 212 418
302 763 12 47 37 117 55 155 35 73 58 162 52 192 -3 12 -19 -11 -44 -62 -29
-60 -44 -80 -59 -80 -17 0 -20 6 -18 45 0 25 15 85 32 135 58 165 63 338 21
700 -11 94 -21 197 -22 230 -3 60 -3 60 -18 -25z"/>
<path d="M3065 5942 c-40 -7 -40 -7 34 -77 248 -233 296 -298 356 -480 88
-270 66 -671 -40 -741 -45 -29 -49 -11 -31 133 19 151 20 207 5 328 -14 112
-50 238 -94 331 -44 91 -132 210 -166 224 -15 6 -57 10 -95 8 -69 -3 -69 -3
-39 -48 17 -25 49 -70 72 -100 57 -77 99 -154 132 -247 49 -132 62 -219 71
-478 9 -240 9 -240 -21 -304 -24 -52 -53 -88 -150 -183 -89 -88 -115 -118 -99
-118 11 0 39 -12 61 -27 27 -17 58 -28 93 -31 53 -4 53 -4 148 89 52 52 114
122 137 157 74 110 159 291 188 397 24 90 26 118 27 280 0 135 -4 202 -17 269
-58 287 -158 462 -309 541 -40 21 -84 47 -98 57 -28 21 -104 30 -165 20z"/>
<path d="M2958 5205 c54 -159 72 -256 72 -386 0 -129 -16 -201 -55 -248 -25
-29 -25 -29 6 -40 128 -44 179 40 179 293 0 125 -20 263 -50 350 -30 89 -60
115 -140 126 -46 6 -46 6 -12 -95z"/>
<path d="M6921 4174 c-121 -241 -175 -315 -251 -343 -68 -25 -77 -33 -131
-113 -74 -111 -225 -302 -409 -518 -85 -100 -187 -226 -226 -280 -125 -169
-384 -551 -399 -587 -8 -19 -25 -48 -37 -66 -33 -46 157 119 263 228 110 113
201 220 308 360 47 61 150 175 229 255 80 80 182 192 229 250 123 154 325 460
379 575 43 93 170 452 162 460 -2 2 -54 -98 -117 -221z"/>
<path d="M3470 3469 c-63 -11 -134 -27 -158 -36 -43 -16 -43 -16 25 -43 126
-51 165 -54 284 -25 57 14 112 25 121 25 26 0 31 -18 13 -46 -23 -36 -67 -60
-175 -95 -109 -37 -173 -74 -143 -83 61 -18 154 -25 204 -15 80 17 103 16 107
-3 3 -16 -19 -41 -128 -143 -53 -50 -53 -50 -14 -53 22 -2 66 2 99 9 75 16
109 49 131 128 8 31 26 92 40 136 24 79 30 138 18 169 -4 9 -41 33 -83 53 -94
46 -172 51 -341 22z"/>
<path d="M6590 3204 c-48 -50 -196 -170 -301 -245 -93 -65 -120 -102 -313
-424 -28 -47 119 112 171 185 84 117 123 158 192 204 61 40 181 168 290 309
25 31 6 18 -39 -29z"/>
</g>
</svg>
