<?xml version="1.0" standalone="no"?>
<!DOCTYPE svg PUBLIC "-//W3C//DTD SVG 20010904//EN"
 "http://www.w3.org/TR/2001/REC-SVG-20010904/DTD/svg10.dtd">
<svg version="1.0" xmlns="http://www.w3.org/2000/svg"
 width="1000.000000pt" height="1000.000000pt" viewBox="0 0 1000.000000 1000.000000"
 preserveAspectRatio="xMidYMid meet">
<metadata>
  <rdf:RDF
    xmlns:rdf = "http://www.w3.org/1999/02/22-rdf-syntax-ns#"
    xmlns:rdfs = "http://www.w3.org/2000/01/rdf-schema#"
    xmlns:dc = "http://purl.org/dc/elements/1.1/"
    xmlns:cc = "http://creativecommons.org/ns#">
    <cc:license rdf:resource="http://creativecommons.org/publicdomain/zero/1.0/deed.en"/>
    <cc:permits rdf:resource="http://creativecommons.org/ns#Reproduction"/>
    <rdf:Description about="https://nft.mir.one/fingerprints"
      dc:title="TON Fingerprints"
      dc:description="This is a unique digital fingerprint created based on the algorithm for generating basic rings using a noise texture. Like human fingerprints, you can now use it for the Web3 and Metaverse era as digital biometric information."
      dc:publisher="https://nft.mir.one"
      dc:date="2022-02-22"
      dc:format="image/svg+xml"
      dc:language="en" >
      <dc:creator>
      <rdf:Bag>
        <rdf:li>EQBondcvD2_aOFADXSWJHs4ZazQDuEl9_wNvGGPxI8hGuOFU</rdf:li>
        <rdf:li>ipfs://bafkreihj7iub3fhmhq6jn62noukt5wxn3gv6bvcg7wmt6ywvlurefezckq</rdf:li>
      </rdf:Bag>
      </dc:creator>
    </rdf:Description>
  </rdf:RDF>
</metadata>
<g transform="translate(0.000000,1000.000000) scale(0.100000,-0.100000)"
fill="#1b1f23" stroke="none">
<path d="M4720 7775 c47 -50 90 -66 367 -141 348 -93 406 -103 568 -102 127 1
192 -11 320 -56 46 -17 -60 37 -179 91 -107 48 -131 62 -141 87 -12 29 -12 29
-19 -8 -10 -51 -36 -55 -165 -21 -312 82 -380 97 -536 121 -93 15 -186 33
-205 41 -34 14 -34 14 -10 -12z"/>
<path d="M4620 7699 c-14 -4 -61 -8 -105 -9 -130 -3 -144 -14 -40 -29 97 -14
168 -5 179 24 7 19 -3 24 -34 14z"/>
<path d="M4570 7544 c-224 -19 -356 -34 -430 -49 -36 -7 -83 -16 -105 -21 -40
-7 -40 -7 5 -16 25 -4 180 -19 345 -33 382 -31 458 -40 635 -76 80 -17 233
-48 342 -69 250 -50 288 -65 387 -148 117 -99 413 -272 465 -272 47 0 38 56
-18 103 -41 35 -182 124 -288 182 -76 41 -108 64 -108 76 0 85 324 -54 462
-198 31 -33 67 -81 81 -109 14 -27 76 -103 138 -169 188 -201 274 -330 299
-450 18 -88 45 -155 92 -226 23 -35 59 -95 80 -134 20 -38 38 -67 38 -64 0 3
-27 75 -61 160 -34 85 -76 195 -95 246 -68 187 -150 326 -333 568 -147 194
-245 293 -369 375 -173 115 -254 142 -557 185 -99 14 -287 50 -420 80 -208 47
-386 78 -420 74 -5 -1 -80 -8 -165 -15z"/>
<path d="M4005 7314 c-49 -8 -119 -18 -155 -22 -65 -8 -65 -8 -24 -29 27 -14
96 -30 205 -47 90 -14 256 -39 369 -56 392 -60 678 -126 804 -185 29 -14 82
-51 117 -84 35 -32 165 -125 289 -206 241 -158 401 -273 520 -375 190 -162
432 -384 482 -442 97 -111 218 -272 218 -290 0 -27 -42 -32 -87 -12 -23 11
-124 104 -253 234 -466 468 -680 644 -1126 923 -279 174 -366 201 -1097 336
-364 68 -380 70 -455 60 -42 -5 -90 -14 -107 -19 -16 -5 -50 -14 -75 -21 -45
-12 -45 -12 -5 -26 22 -8 81 -23 130 -33 50 -10 268 -59 485 -109 217 -49 475
-108 572 -130 97 -22 212 -52 254 -66 164 -55 434 -215 644 -381 91 -72 914
-895 981 -981 22 -29 65 -108 94 -176 84 -193 168 -328 265 -425 37 -37 39
-38 34 -13 -17 77 -29 113 -59 187 -33 80 -88 258 -100 325 -14 77 42 83 124
13 40 -35 40 -35 20 10 -21 49 -68 132 -117 211 -19 30 -38 80 -47 123 -47
225 -164 414 -325 523 -47 32 -157 119 -245 194 -88 75 -200 165 -250 200 -88
63 -451 291 -610 383 -57 34 -81 53 -83 70 -3 20 1 22 46 22 66 0 161 -48 496
-249 306 -184 334 -204 520 -376 135 -125 172 -150 201 -139 51 20 -25 162
-167 310 -107 111 -196 177 -283 210 -98 38 -183 81 -321 165 -65 40 -155 94
-198 121 -95 58 -169 82 -296 97 -52 7 -185 32 -295 56 -266 58 -340 70 -643
105 -287 33 -319 34 -447 14z"/>
<path d="M3595 6905 c-5 -1 -45 -11 -87 -21 -77 -18 -77 -18 -40 -40 20 -12
136 -49 257 -83 237 -65 320 -92 603 -195 130 -47 213 -71 285 -82 167 -26
199 -38 269 -100 35 -30 124 -96 198 -147 74 -50 203 -138 285 -195 180 -125
212 -141 286 -142 56 0 56 0 165 -98 199 -179 461 -486 625 -731 250 -371 334
-674 270 -971 -11 -52 -34 -171 -50 -265 -43 -242 -63 -293 -231 -605 -105
-194 -167 -343 -174 -420 -5 -61 -5 -63 9 -40 58 97 183 304 243 402 168 274
219 393 262 609 42 209 57 263 90 328 68 131 67 417 -1 584 -48 115 -208 413
-280 522 -79 118 -239 302 -473 545 -93 96 -218 232 -277 301 -150 174 -316
309 -524 428 -129 74 -228 109 -353 126 -194 27 -371 68 -742 170 -350 96
-475 125 -542 124 -35 0 -67 -2 -73 -4z m1538 -462 c205 -99 455 -283 538
-397 29 -38 38 -89 20 -101 -6 -3 -55 32 -110 79 -131 109 -301 227 -478 332
-78 46 -145 89 -148 95 -4 5 -4 17 -1 26 10 25 85 11 179 -34z"/>
<path d="M3455 6661 c-33 -10 -82 -28 -108 -40 -27 -11 -56 -21 -65 -21 -9 0
2 -9 23 -21 22 -11 146 -45 275 -75 319 -74 397 -100 453 -152 29 -28 36 -59
14 -68 -8 -3 -67 6 -133 20 -65 13 -182 34 -259 45 -77 12 -170 29 -207 37
-56 13 -76 14 -120 4 -66 -15 -169 -60 -163 -70 3 -5 28 -14 55 -21 28 -7 58
-22 68 -32 16 -19 14 -22 -64 -96 -44 -42 -105 -102 -135 -134 -54 -59 -54
-59 -14 -52 43 8 135 52 255 121 121 69 163 76 449 73 135 -2 276 0 312 5 80
10 107 3 334 -96 197 -86 284 -136 445 -257 373 -280 630 -565 765 -846 78
-164 136 -375 165 -602 10 -78 9 -104 -4 -169 -9 -42 -16 -98 -16 -124 0 -104
36 -224 71 -235 38 -12 41 1 35 154 -7 149 -2 179 28 168 25 -10 37 -53 46
-171 9 -124 23 -153 58 -118 28 28 46 122 38 200 -4 35 -20 106 -36 157 -37
113 -62 234 -95 442 -26 169 -43 231 -95 333 -166 332 -439 602 -1025 1017
-94 67 -208 155 -253 196 -72 66 -109 89 -297 187 -118 61 -245 122 -282 136
-76 29 -419 124 -443 123 -8 0 -42 -8 -75 -18z"/>
<path d="M4657 6343 c-16 -15 -5 -54 24 -83 18 -17 109 -86 203 -152 94 -67
277 -200 406 -296 397 -295 582 -503 781 -880 41 -77 47 -83 85 -93 76 -20
135 -94 186 -233 84 -230 95 -476 33 -722 -52 -204 -157 -360 -209 -309 -17
18 -11 45 43 184 65 165 76 226 76 401 -1 176 -16 273 -71 440 -40 125 -88
213 -112 208 -25 -5 -42 -47 -42 -109 0 -31 20 -155 45 -275 68 -333 63 -460
-25 -592 -53 -79 -67 -143 -52 -233 7 -38 12 -85 12 -103 0 -75 -85 -286 -165
-411 -43 -66 -506 -545 -655 -676 -88 -78 -273 -258 -240 -233 8 6 69 35 135
64 243 106 407 219 564 388 57 62 118 121 136 132 38 24 73 26 81 5 13 -34
-80 -180 -277 -434 -38 -50 -32 -45 87 56 139 119 206 187 247 249 14 21 56
110 92 197 87 209 201 436 288 572 39 60 90 152 114 203 85 177 140 469 130
690 -11 264 -86 443 -317 757 -346 470 -477 607 -725 756 -66 39 -225 145
-354 237 -130 91 -263 185 -296 208 -33 23 -82 54 -109 68 -46 25 -105 34
-119 19z"/>
<path d="M3590 6040 c-138 -17 -219 -51 -335 -137 -84 -63 -167 -147 -248
-251 -48 -62 -48 -62 -15 -62 18 0 66 9 107 20 105 28 155 27 584 -10 222 -19
446 -121 682 -311 44 -35 155 -137 246 -226 190 -185 239 -212 239 -130 0 60
-143 244 -300 385 -320 291 -514 396 -837 452 -58 11 -75 11 -87 0 -11 -9 -13
-17 -6 -30 6 -10 10 -21 10 -24 0 -13 -33 -5 -56 13 -15 12 -49 21 -91 26 -94
9 -140 22 -148 42 -12 34 38 54 200 79 202 32 433 -2 610 -90 138 -69 492
-372 636 -544 105 -126 150 -216 157 -314 4 -59 15 -96 57 -193 60 -138 86
-215 115 -335 27 -117 26 -150 -9 -205 -34 -53 -45 -113 -61 -315 -6 -74 -20
-195 -30 -268 -24 -163 -25 -200 -3 -268 16 -53 16 -53 -20 -126 -84 -170
-297 -405 -489 -540 -48 -35 -137 -90 -196 -123 -59 -33 -123 -73 -142 -88
-35 -29 -35 -29 100 -23 172 7 268 30 350 86 157 107 364 306 558 537 226 270
277 379 289 618 6 132 -13 313 -47 445 -38 149 -199 619 -264 770 -134 312
-230 434 -591 751 -96 84 -127 119 -153 168 -19 34 -43 71 -55 83 -30 29 -150
84 -222 103 -120 31 -417 50 -535 35z m1637 -1862 c11 -13 26 -33 32 -46 24
-45 41 -176 41 -307 0 -196 -34 -342 -100 -434 -32 -44 -83 -76 -107 -67 -19
8 -15 33 25 146 57 162 76 378 57 633 -7 92 -6 97 12 97 11 0 29 -10 40 -22z"/>
<path d="M4463 5909 c-23 -23 15 -65 159 -180 328 -261 508 -470 652 -757 136
-271 204 -504 282 -962 66 -394 62 -513 -24 -703 -114 -251 -517 -683 -846
-905 -95 -65 -197 -151 -165 -140 8 4 65 16 125 28 229 47 338 100 500 248
124 113 350 353 446 474 80 101 148 222 187 333 33 93 35 108 36 225 0 125 0
125 -48 217 -63 124 -75 174 -92 403 -9 109 -26 247 -40 312 -65 315 -204 601
-410 848 -165 198 -503 485 -648 550 -48 22 -97 26 -114 9z"/>
<path d="M3167 5476 c-66 -14 -123 -62 -184 -156 -20 -30 -48 -68 -62 -84 -23
-26 -24 -27 -4 -17 12 6 29 11 39 11 9 0 55 15 103 34 135 54 237 69 426 63
114 -4 184 -11 242 -26 256 -64 471 -198 703 -437 182 -187 265 -318 312 -489
32 -117 32 -433 0 -616 -47 -263 -114 -439 -220 -579 -133 -175 -359 -342
-583 -430 -28 -11 -66 -31 -85 -44 -35 -23 -35 -23 63 -41 145 -26 243 -18
325 28 282 158 530 430 588 647 34 126 79 443 106 742 18 206 13 288 -27 410
-45 135 -84 195 -218 331 -520 530 -794 669 -1314 666 -84 0 -178 -6 -210 -13z"/>
<path d="M3260 5185 c-139 -28 -191 -58 -250 -144 -23 -33 -101 -184 -97 -187
1 -1 34 18 72 42 102 64 154 90 226 113 272 86 583 21 826 -174 309 -247 455
-571 413 -920 -53 -441 -335 -777 -747 -889 -48 -13 -103 -30 -121 -38 -34
-15 -34 -15 44 -42 104 -37 211 -59 254 -51 52 10 205 92 290 156 252 190 397
447 445 789 38 272 4 507 -101 696 -49 89 -159 228 -248 312 -197 187 -395
294 -619 337 -96 18 -296 18 -387 0z"/>
<path d="M3300 4904 c-98 -21 -185 -61 -223 -103 -19 -21 -48 -69 -65 -107
-18 -38 -40 -86 -51 -106 -19 -38 -19 -38 9 -23 15 8 54 37 86 65 73 62 180
117 259 131 61 11 172 6 279 -12 127 -22 226 -77 226 -125 0 -29 -14 -30 -137
-13 -61 9 -97 9 -138 1 -52 -11 -61 -17 -163 -122 -131 -132 -163 -186 -170
-282 -4 -62 -2 -74 27 -133 23 -45 46 -76 78 -100 42 -32 124 -65 162 -65 66
0 153 57 177 117 48 113 -26 270 -115 248 -65 -16 -95 -86 -45 -105 36 -14 31
-61 -8 -74 -39 -14 -78 2 -106 44 -66 97 30 245 193 299 70 23 212 51 261 51
110 0 233 -137 279 -310 19 -72 19 -230 0 -305 -23 -91 -97 -233 -156 -298
-101 -114 -223 -189 -429 -267 -47 -17 -101 -45 -120 -61 -34 -28 -34 -28 -10
-29 14 0 61 -12 105 -26 109 -35 153 -34 248 5 282 119 482 363 542 660 24
114 16 297 -15 396 -29 92 -77 185 -135 265 -67 90 -239 258 -307 298 -151 89
-365 124 -538 86z"/>
<path d="M3270 4643 c-67 -23 -146 -77 -179 -123 -51 -70 -66 -131 -65 -255 2
-216 77 -385 252 -563 45 -46 82 -90 82 -97 0 -27 -29 -37 -99 -33 -69 4 -69
4 -7 -34 34 -20 90 -45 125 -54 77 -22 111 -15 257 55 254 121 392 361 340
592 -33 151 -149 258 -240 223 -25 -10 -19 -47 19 -109 49 -81 58 -117 53
-199 -6 -82 -30 -136 -88 -200 -60 -65 -120 -91 -211 -91 -68 0 -83 4 -153 39
-107 54 -196 139 -241 228 -32 64 -35 79 -35 154 0 113 23 173 101 258 33 36
96 88 139 117 85 55 97 70 74 94 -19 19 -66 19 -124 -2z"/>
<path d="M6937 4007 c6 -93 11 -101 12 -20 0 39 -3 74 -7 77 -5 3 -7 -23 -5
-57z"/>
</g>
</svg>
