<?xml version="1.0" standalone="no"?>
<!DOCTYPE svg PUBLIC "-//W3C//DTD SVG 20010904//EN"
 "http://www.w3.org/TR/2001/REC-SVG-20010904/DTD/svg10.dtd">
<svg version="1.0" xmlns="http://www.w3.org/2000/svg"
 width="1000.000000pt" height="1000.000000pt" viewBox="0 0 1000.000000 1000.000000"
 preserveAspectRatio="xMidYMid meet">
<metadata>
  <rdf:RDF
    xmlns:rdf = "http://www.w3.org/1999/02/22-rdf-syntax-ns#"
    xmlns:rdfs = "http://www.w3.org/2000/01/rdf-schema#"
    xmlns:dc = "http://purl.org/dc/elements/1.1/"
    xmlns:cc = "http://creativecommons.org/ns#">
    <cc:license rdf:resource="http://creativecommons.org/publicdomain/zero/1.0/deed.en"/>
    <cc:permits rdf:resource="http://creativecommons.org/ns#Reproduction"/>
    <rdf:Description about="https://nft.mir.one/fingerprints"
      dc:title="TON Fingerprints"
      dc:description="This is a unique digital fingerprint created based on the algorithm for generating basic rings using a noise texture. Like human fingerprints, you can now use it for the Web3 and Metaverse era as digital biometric information."
      dc:publisher="https://nft.mir.one"
      dc:date="2022-02-22"
      dc:format="image/svg+xml"
      dc:language="en" >
      <dc:creator>
      <rdf:Bag>
        <rdf:li>EQBondcvD2_aOFADXSWJHs4ZazQDuEl9_wNvGGPxI8hGuOFU</rdf:li>
        <rdf:li>ipfs://bafkreihj7iub3fhmhq6jn62noukt5wxn3gv6bvcg7wmt6ywvlurefezckq</rdf:li>
      </rdf:Bag>
      </dc:creator>
    </rdf:Description>
  </rdf:RDF>
</metadata>
<g transform="translate(0.000000,1000.000000) scale(0.100000,-0.100000)"
fill="#1b1f23" stroke="none">
<path d="M4935 7724 c-108 -12 -247 -36 -373 -64 -143 -32 -219 -36 -214 -12
1 8 -2 11 -8 7 -19 -11 -10 -44 16 -61 35 -24 134 -21 329 10 310 48 421 58
645 57 118 0 248 -5 289 -11 41 -6 76 -9 78 -6 6 5 -153 44 -258 61 -92 16
-420 28 -504 19z"/>
<path d="M5718 7633 c7 -3 16 -2 19 1 4 3 -2 6 -13 5 -11 0 -14 -3 -6 -6z"/>
<path d="M5085 7534 c-162 -24 -552 -76 -638 -84 -224 -22 -375 -86 -742 -313
-144 -89 -164 -104 -120 -87 17 6 84 15 150 20 118 8 123 9 278 75 200 84 356
124 669 170 134 20 308 47 388 60 80 14 183 27 230 31 259 20 698 -99 667
-180 -9 -22 -30 -20 -176 13 -312 73 -498 79 -631 22 -62 -27 -104 -36 -240
-52 -451 -54 -710 -132 -887 -267 -61 -46 -301 -315 -410 -460 -185 -246 -280
-494 -290 -762 -5 -130 -3 -143 37 -340 56 -275 78 -338 149 -446 32 -49 96
-156 141 -238 110 -202 149 -257 249 -356 108 -108 203 -170 411 -272 91 -45
188 -96 216 -114 87 -54 111 -64 186 -74 95 -11 271 4 392 34 420 107 795 436
907 796 45 144 25 313 -61 527 -55 137 -124 245 -222 348 -185 195 -374 287
-689 336 -254 40 -469 27 -607 -38 -116 -54 -253 -222 -314 -385 -27 -71 -32
-97 -32 -178 -1 -99 13 -143 50 -157 24 -9 34 8 55 103 58 250 218 439 427
504 217 68 503 38 737 -75 187 -90 313 -215 405 -400 61 -124 79 -192 87 -320
7 -121 -16 -226 -74 -342 -93 -187 -309 -383 -520 -472 -131 -56 -224 -75
-373 -75 -168 -1 -246 19 -428 110 -339 168 -525 356 -716 725 -88 171 -118
268 -120 389 -1 91 1 100 33 160 18 36 59 132 91 215 93 245 176 394 309 560
296 371 684 535 1146 486 452 -48 843 -201 1169 -458 112 -89 293 -277 391
-408 117 -155 174 -268 251 -495 35 -102 63 -180 64 -174 1 39 -67 344 -101
451 -72 226 -202 466 -315 578 -174 175 -475 371 -717 469 -245 99 -729 197
-972 197 -448 1 -825 -209 -1118 -624 -124 -174 -204 -352 -252 -557 -15 -63
-32 -132 -37 -152 -11 -46 -39 -51 -64 -13 -55 84 -3 367 107 587 113 226 335
498 519 637 202 152 480 245 770 258 126 5 143 3 265 -25 72 -17 204 -45 295
-62 213 -41 444 -100 543 -139 212 -84 504 -264 684 -420 41 -36 95 -80 120
-97 24 -18 56 -42 70 -55 14 -13 -18 37 -72 111 -215 299 -467 501 -753 604
-80 28 -376 90 -624 130 -203 33 -266 59 -242 98 10 16 292 2 414 -21 104 -20
250 -41 404 -60 66 -8 99 -19 190 -65 61 -30 149 -82 196 -116 47 -33 117 -76
155 -96 70 -36 70 -36 -79 107 -82 79 -201 184 -265 233 -64 49 -144 115 -177
146 -97 90 -229 154 -426 206 -92 24 -124 27 -293 29 -104 2 -203 1 -220 -1z"/>
<path d="M3715 6955 c-22 -15 -71 -57 -108 -93 -219 -213 -403 -540 -481 -853
-54 -217 -61 -296 -61 -664 1 -345 8 -461 45 -690 34 -211 75 -306 159 -362
34 -23 105 -32 115 -14 3 5 -15 56 -40 115 -25 58 -56 149 -70 203 -23 90 -25
113 -22 278 3 158 -1 205 -27 380 -25 169 -29 231 -30 400 0 174 3 214 23 304
31 136 62 223 128 351 71 138 156 255 301 413 133 145 174 206 157 234 -17 27
-46 27 -89 -2z"/>
<path d="M4932 6610 c-258 -36 -465 -142 -643 -327 -213 -223 -358 -456 -446
-723 -41 -123 -54 -263 -33 -358 14 -66 75 -201 118 -264 16 -24 44 -73 61
-108 24 -50 58 -93 150 -187 131 -133 226 -209 347 -278 243 -139 519 -152
761 -35 192 93 371 285 443 475 31 82 38 225 16 320 -51 216 -232 421 -446
505 -155 61 -380 81 -515 45 -194 -50 -330 -167 -431 -371 -32 -65 -70 -133
-84 -153 -14 -20 -31 -48 -37 -63 -10 -22 -19 -28 -44 -28 -70 0 -137 73 -164
177 -20 77 -19 142 5 242 40 165 130 321 287 496 49 55 104 127 122 161 64
121 206 223 398 287 190 63 369 70 601 26 380 -73 737 -284 967 -572 95 -119
125 -181 125 -258 0 -35 12 -118 26 -184 21 -95 26 -151 27 -265 2 -120 5
-151 19 -173 28 -42 54 -51 77 -28 63 63 52 293 -24 518 -19 55 -35 111 -35
122 0 59 84 -11 129 -108 39 -86 78 -234 92 -359 9 -71 9 -138 0 -266 -32
-470 -48 -558 -146 -851 -40 -121 -83 -264 -94 -318 -26 -118 -40 -154 -88
-221 -157 -220 -374 -389 -740 -574 -251 -127 -419 -201 -569 -251 -150 -49
-242 -69 -579 -126 -390 -66 -455 -79 -455 -86 0 -17 219 -39 387 -39 291 0
486 25 643 83 219 80 856 384 998 476 115 75 255 210 363 349 145 187 167 212
236 269 38 30 72 59 77 63 5 5 -15 2 -45 -7 -76 -22 -113 -22 -117 0 -2 9 23
75 56 145 150 319 227 651 239 1027 5 167 4 190 -21 320 -72 372 -109 449
-343 720 -220 253 -365 381 -573 503 -184 108 -427 196 -660 236 -113 20 -349
29 -438 16z m173 -1065 c320 -67 541 -391 439 -644 -25 -64 -99 -114 -119 -81
-3 5 4 55 16 112 34 167 8 266 -96 372 -158 160 -417 195 -626 84 -123 -65
-279 -266 -279 -360 0 -26 22 -58 40 -58 18 0 80 62 123 123 120 167 263 247
420 234 86 -7 185 -52 246 -110 65 -63 112 -173 81 -192 -6 -4 -45 29 -88 73
-99 101 -150 127 -252 127 -62 0 -85 -5 -131 -28 -148 -72 -250 -287 -191
-403 24 -48 53 -74 112 -105 36 -19 61 -24 126 -24 72 0 85 3 130 30 92 57
117 149 70 252 -27 57 -62 86 -98 81 -17 -2 -24 -11 -26 -33 -5 -40 -19 -55
-53 -55 -32 0 -49 23 -49 67 0 83 114 130 207 86 20 -9 60 -42 90 -72 64 -65
173 -227 173 -256 0 -33 -54 -117 -108 -167 -99 -93 -252 -146 -385 -133 -231
22 -404 150 -520 384 -57 115 -57 155 1 275 115 240 258 374 448 420 78 19
212 19 299 1z m-1010 -676 c10 -15 -1 -23 -20 -15 -9 3 -13 10 -10 16 8 13 22
13 30 -1z"/>
<path d="M5027 6359 c-104 -12 -200 -44 -331 -112 -143 -75 -208 -128 -204
-166 3 -23 8 -26 46 -29 24 -2 83 6 132 17 112 27 128 26 187 -4 35 -19 81
-29 168 -40 243 -30 343 -58 505 -141 175 -89 319 -219 425 -384 93 -143 217
-424 256 -581 34 -131 26 -172 -62 -332 -154 -281 -237 -380 -447 -535 -289
-214 -464 -284 -844 -337 -101 -15 -222 -35 -269 -45 -129 -28 -216 -34 -311
-21 -352 47 -901 306 -1160 549 -43 39 -84 72 -91 72 -8 0 -26 9 -39 20 -19
15 -5 -19 59 -138 95 -179 194 -319 251 -357 40 -27 372 -151 595 -224 146
-47 336 -87 462 -96 115 -9 205 2 567 71 480 90 482 91 678 239 52 40 140 100
195 135 257 161 379 301 475 545 17 44 38 90 46 103 35 53 84 4 84 -85 0 -72
-25 -157 -76 -262 -37 -75 -62 -110 -123 -171 -105 -105 -200 -173 -309 -220
-161 -69 -256 -145 -250 -199 3 -22 7 -26 33 -23 17 2 68 24 115 49 96 52 132
64 150 53 20 -12 2 -47 -44 -85 -62 -51 -132 -79 -188 -76 -27 1 -63 2 -80 3
-18 0 -78 -16 -134 -36 -79 -28 -129 -39 -241 -51 -171 -18 -364 -54 -543
-102 -114 -31 -150 -37 -235 -36 -207 1 -406 43 -750 158 -316 106 -422 125
-495 89 -33 -17 -33 -17 -9 -35 13 -10 44 -26 69 -35 25 -8 95 -40 155 -69
230 -112 457 -186 766 -250 188 -39 240 -53 324 -92 162 -74 191 -82 286 -83
208 0 432 75 570 194 63 53 159 107 289 161 198 82 289 149 373 274 28 42 70
99 95 128 74 88 170 139 186 98 13 -36 -145 -274 -259 -390 -89 -90 -173 -147
-405 -272 -102 -55 -213 -117 -247 -137 -85 -50 -175 -89 -285 -125 -124 -39
-224 -57 -398 -71 -107 -9 -169 -20 -235 -40 -49 -16 -121 -34 -160 -41 -120
-20 -373 1 -530 45 -27 8 -72 17 -99 21 -27 4 -56 9 -65 12 -38 14 11 -19 122
-81 141 -78 271 -129 391 -151 112 -21 102 -22 656 75 277 49 434 102 715 243
423 211 602 335 748 518 115 143 157 249 157 397 0 63 7 90 50 201 83 216 95
272 95 451 0 118 -5 172 -19 228 -18 73 -25 85 -103 184 -131 164 -180 242
-260 408 -106 219 -173 321 -288 435 -172 173 -385 286 -640 341 -83 17 -337
25 -385 12 -66 -19 -58 37 11 72 50 26 183 43 269 35 328 -31 617 -163 836
-380 139 -138 198 -233 299 -480 63 -157 95 -208 128 -203 18 2 23 11 25 46 6
79 -90 403 -148 502 -162 275 -497 510 -858 601 -96 25 -293 52 -342 48 -8 -1
-46 -5 -83 -10z m276 -3048 c18 -18 -2 -42 -55 -66 -172 -78 -492 -127 -545
-84 -20 17 1 44 47 63 33 13 310 74 450 100 34 6 91 -1 103 -13z"/>
<path d="M2901 4934 c0 -11 3 -14 6 -6 3 7 2 16 -1 19 -3 4 -6 -2 -5 -13z"/>
<path d="M2916 4855 c2 -27 16 -113 30 -189 14 -77 24 -157 22 -178 -4 -44 5
-48 28 -13 21 32 15 82 -26 214 -16 53 -36 123 -45 156 -15 60 -15 60 -9 10z"/>
<path d="M3369 4843 c-23 -27 -13 -108 30 -259 52 -181 58 -219 37 -268 -16
-39 -16 -40 11 -79 15 -22 59 -67 98 -101 217 -189 573 -349 807 -363 112 -7
158 5 158 42 0 34 -25 49 -180 105 -354 128 -584 289 -685 481 -20 38 -63 133
-96 211 -68 162 -101 223 -129 238 -26 14 -35 13 -51 -7z"/>
<path d="M3277 3433 c-17 -16 1 -37 126 -153 286 -267 396 -323 710 -365 238
-31 367 -8 341 60 -13 33 -60 47 -299 90 -272 49 -437 106 -706 242 -154 78
-175 93 -165 118 6 16 3 19 -7 8z"/>
<path d="M6489 3013 c-13 -16 -12 -17 4 -4 16 13 21 21 13 21 -2 0 -10 -8 -17
-17z"/>
<path d="M6415 2954 c-66 -50 -401 -212 -785 -381 -118 -52 -260 -121 -316
-154 -118 -69 -215 -98 -419 -123 -72 -9 -157 -21 -190 -26 -33 -5 -96 -11
-140 -11 -72 -2 -67 -3 50 -11 244 -17 584 6 678 46 18 7 41 23 52 36 25 28
77 54 245 120 313 125 634 313 804 472 50 47 60 62 21 32z"/>
<path d="M5360 2282 c0 -18 38 -34 73 -29 32 4 32 4 -2 5 -19 1 -43 9 -53 19
-10 9 -18 11 -18 5z"/>
</g>
</svg>
