<?xml version="1.0" standalone="no"?>
<!DOCTYPE svg PUBLIC "-//W3C//DTD SVG 20010904//EN"
 "http://www.w3.org/TR/2001/REC-SVG-20010904/DTD/svg10.dtd">
<svg version="1.0" xmlns="http://www.w3.org/2000/svg"
 width="1000.000000pt" height="1000.000000pt" viewBox="0 0 1000.000000 1000.000000"
 preserveAspectRatio="xMidYMid meet">
<metadata>
  <rdf:RDF
    xmlns:rdf = "http://www.w3.org/1999/02/22-rdf-syntax-ns#"
    xmlns:rdfs = "http://www.w3.org/2000/01/rdf-schema#"
    xmlns:dc = "http://purl.org/dc/elements/1.1/"
    xmlns:cc = "http://creativecommons.org/ns#">
    <cc:license rdf:resource="http://creativecommons.org/publicdomain/zero/1.0/deed.en"/>
    <cc:permits rdf:resource="http://creativecommons.org/ns#Reproduction"/>
    <rdf:Description about="https://nft.mir.one/fingerprints"
      dc:title="TON Fingerprints"
      dc:description="This is a unique digital fingerprint created based on the algorithm for generating basic rings using a noise texture. Like human fingerprints, you can now use it for the Web3 and Metaverse era as digital biometric information."
      dc:publisher="https://nft.mir.one"
      dc:date="2022-02-22"
      dc:format="image/svg+xml"
      dc:language="en" >
      <dc:creator>
      <rdf:Bag>
        <rdf:li>EQBondcvD2_aOFADXSWJHs4ZazQDuEl9_wNvGGPxI8hGuOFU</rdf:li>
        <rdf:li>ipfs://bafkreihj7iub3fhmhq6jn62noukt5wxn3gv6bvcg7wmt6ywvlurefezckq</rdf:li>
      </rdf:Bag>
      </dc:creator>
    </rdf:Description>
  </rdf:RDF>
</metadata>
<g transform="translate(0.000000,1000.000000) scale(0.100000,-0.100000)"
fill="#1b1f23" stroke="none">
<path d="M5100 7764 c47 -25 136 -73 198 -105 206 -108 345 -201 659 -436 205
-154 415 -289 526 -337 29 -13 75 -41 102 -61 46 -34 43 -31 -25 40 -41 42
-136 122 -210 177 -74 56 -180 138 -235 183 -354 288 -585 423 -908 530 -92
30 -173 55 -180 55 -7 0 26 -21 73 -46z"/>
<path d="M4500 7666 c58 -19 159 -50 225 -71 358 -110 664 -280 1080 -601 308
-238 431 -314 506 -314 73 0 76 60 6 127 -23 22 -109 87 -192 145 -82 58 -234
167 -337 244 -279 207 -500 340 -675 404 -169 61 -416 100 -628 100 -90 -1
-90 -1 15 -34z"/>
<path d="M4131 7508 c35 -29 120 -58 299 -103 375 -94 744 -271 1030 -493 104
-82 330 -308 460 -463 144 -170 175 -192 319 -228 135 -34 230 -90 347 -206
104 -103 157 -177 284 -397 62 -107 110 -166 178 -216 31 -23 31 -23 8 31 -13
29 -54 148 -90 264 -73 236 -121 354 -191 471 -140 236 -238 313 -451 357
-188 39 -240 69 -521 303 -232 191 -275 224 -424 322 -211 138 -510 279 -736
346 -73 22 -113 27 -238 30 -82 2 -186 6 -229 8 -79 3 -79 3 -45 -26z"/>
<path d="M4031 7330 c-35 -5 -110 -21 -167 -36 -93 -24 -101 -28 -81 -39 12
-6 31 -17 42 -23 11 -7 67 -24 125 -39 87 -22 129 -27 245 -28 119 -1 155 -5
240 -29 325 -90 764 -318 937 -487 43 -42 58 -64 58 -84 0 -26 -2 -27 -34 -22
-19 3 -96 44 -172 92 -300 189 -610 335 -868 409 -125 37 -166 33 -166 -16 0
-40 63 -77 310 -181 269 -114 341 -149 673 -334 59 -33 149 -75 199 -93 51
-17 123 -52 160 -76 98 -63 143 -84 181 -84 42 0 57 15 57 60 0 42 -22 80
-104 180 -34 41 -90 112 -125 157 -76 99 -159 172 -306 269 -268 176 -579 307
-900 379 -138 31 -213 37 -304 25z"/>
<path d="M3700 7030 c-41 -10 -92 -26 -112 -34 -21 -9 -49 -16 -64 -16 -26 0
-26 -1 11 -26 21 -14 117 -54 214 -88 97 -35 235 -89 306 -121 72 -31 227 -97
345 -146 263 -110 549 -250 650 -317 83 -55 144 -114 185 -181 15 -25 58 -77
95 -116 88 -93 110 -137 119 -240 7 -74 13 -91 59 -171 71 -123 113 -239 166
-454 93 -382 119 -575 119 -870 0 -238 -19 -402 -73 -625 -100 -419 -236 -641
-522 -855 -246 -183 -532 -320 -873 -415 -46 -13 -32 -14 170 -11 356 6 481
46 768 246 115 80 317 281 384 380 110 164 190 368 251 640 91 400 101 766 37
1327 -40 352 -44 390 -55 553 -15 238 -67 403 -160 504 -47 50 -377 280 -575
399 -160 96 -407 221 -624 316 -222 98 -327 151 -429 220 -98 66 -206 112
-272 117 -25 2 -79 -5 -120 -16z"/>
<path d="M3366 6716 c11 -14 25 -26 32 -26 21 0 13 -36 -13 -63 -29 -28 -84
-57 -112 -57 -10 -1 5 -12 34 -27 62 -31 73 -50 41 -75 -52 -41 -143 -101
-172 -114 -30 -13 -29 -13 37 -14 82 0 128 18 183 71 34 33 50 41 105 50 113
19 320 -7 566 -71 249 -65 431 -131 816 -299 137 -60 199 -76 227 -61 31 16
25 54 -14 88 -138 121 -740 378 -1266 541 -91 28 -185 59 -209 67 -40 15 -50
15 -126 -1 -77 -16 -84 -16 -115 0 -32 17 -32 17 -14 -9z"/>
<path d="M3531 6250 c-140 -37 -165 -54 -358 -244 -208 -205 -207 -207 42 -98
287 125 376 150 565 159 276 14 567 -52 922 -208 183 -81 407 -169 487 -193
73 -21 123 -20 152 3 23 19 23 19 4 56 -43 81 -125 130 -295 180 -69 20 -210
72 -315 115 -439 181 -717 250 -1000 249 -95 0 -150 -5 -204 -19z"/>
<path d="M3149 6169 c-67 -48 -69 -51 -24 -44 49 9 115 44 115 62 0 23 -46 14
-91 -18z"/>
<path d="M6117 6035 c-25 -24 -29 -70 -13 -134 25 -98 72 -179 152 -261 83
-86 135 -166 163 -254 30 -94 33 -145 17 -273 -11 -84 -16 -264 -20 -628 -4
-357 -10 -542 -20 -615 -8 -58 -20 -145 -26 -194 -14 -109 -55 -240 -126 -404
-55 -127 -66 -175 -39 -186 81 -31 247 204 335 472 33 101 33 101 10 154 -21
49 -22 62 -16 167 6 105 6 115 -13 135 -20 22 -20 22 3 81 47 117 57 284 46
745 -5 187 -3 208 13 233 55 84 93 -65 118 -454 13 -210 6 -322 -35 -511 -23
-105 -40 -220 -53 -345 -4 -42 -2 -54 10 -59 48 -18 86 51 165 302 86 271 95
354 67 617 -23 207 -50 350 -94 489 -21 68 -41 154 -45 191 -13 136 -95 311
-226 482 -155 205 -313 310 -373 250z"/>
<path d="M3698 5900 c-195 -28 -464 -98 -533 -141 -33 -20 -106 -94 -178 -180
-47 -57 -47 -57 -4 -44 23 7 89 36 147 63 187 88 275 105 356 69 41 -19 43
-18 115 1 158 44 249 56 414 55 288 0 540 -67 540 -143 0 -24 -3 -25 -65 -25
-36 0 -119 7 -184 14 -158 18 -382 10 -493 -18 -102 -25 -174 -61 -323 -160
-164 -110 -318 -205 -371 -230 -60 -29 -118 -89 -173 -183 -46 -78 -46 -78 2
-42 75 56 135 94 149 94 29 0 24 -33 -15 -98 -22 -37 -52 -96 -66 -132 -27
-68 -78 -242 -72 -247 8 -8 195 258 274 389 60 99 115 153 251 243 272 180
434 225 821 225 118 0 248 5 289 10 57 8 90 6 149 -6 136 -28 322 -113 413
-190 90 -75 114 -140 57 -155 -40 -10 -96 5 -256 72 -234 98 -396 129 -687
129 -423 0 -739 -143 -972 -440 -195 -250 -232 -347 -239 -625 -4 -160 -4
-160 26 -65 94 288 178 440 341 615 156 166 345 272 564 316 100 20 347 18
459 -5 189 -37 372 -120 462 -211 50 -50 53 -57 112 -236 76 -229 96 -343 89
-499 -10 -198 -67 -359 -199 -553 -168 -248 -343 -358 -548 -344 -114 7 -218
59 -195 97 3 6 44 7 99 3 98 -6 151 5 241 50 154 77 325 294 393 499 96 291
29 649 -158 839 -71 73 -185 135 -332 183 -484 156 -977 -119 -1173 -654 -50
-138 -46 -302 15 -547 16 -64 27 -120 24 -124 -10 -16 19 -20 34 -5 15 14 17
48 17 259 1 216 3 249 22 307 49 157 116 276 211 380 159 175 349 258 562 248
127 -6 194 -36 247 -109 19 -27 38 -49 41 -49 4 0 16 7 26 15 37 28 71 19 123
-34 60 -61 107 -139 138 -228 92 -263 32 -527 -165 -733 -29 -30 -75 -81 -102
-112 -57 -68 -110 -98 -185 -105 -50 -6 -55 -4 -52 13 3 12 31 33 74 56 82 43
111 73 93 95 -24 29 -103 4 -248 -78 -50 -28 -61 -30 -115 -25 -64 5 -173 39
-242 74 -90 46 -146 149 -166 302 -35 277 137 549 395 627 61 18 200 21 241 5
36 -15 36 -47 -2 -66 -16 -9 -70 -24 -121 -35 -122 -27 -188 -59 -255 -122
-198 -187 -172 -523 49 -619 97 -43 171 -36 364 32 89 32 122 49 162 85 144
129 181 346 93 543 -11 25 -50 90 -86 145 -63 97 -69 102 -139 138 -93 46
-163 61 -253 54 -144 -13 -262 -72 -380 -191 -157 -158 -238 -389 -220 -626
20 -268 35 -332 106 -470 61 -118 110 -176 203 -238 121 -81 320 -152 427
-152 87 0 88 50 2 90 -298 139 -422 214 -463 283 -28 46 -26 67 7 67 33 0 235
-102 353 -178 100 -65 227 -127 290 -141 109 -25 268 -6 376 45 99 47 146 93
198 192 25 50 91 148 146 219 55 70 113 155 129 188 76 154 112 377 92 571
-15 150 -49 265 -118 402 -63 125 -63 144 -4 150 48 5 112 -38 156 -103 82
-125 127 -317 127 -550 0 -170 -20 -303 -68 -452 -46 -144 -78 -194 -145 -229
-56 -28 -135 -101 -187 -173 -32 -43 -42 -94 -22 -106 37 -23 144 56 216 160
28 41 43 55 58 53 16 -2 22 -12 24 -39 5 -55 -33 -125 -107 -199 -56 -56 -93
-79 -241 -157 -96 -50 -209 -103 -250 -118 -80 -29 -91 -29 -345 -9 -73 6 -85
4 -145 -22 -82 -35 -184 -37 -310 -4 -153 39 -364 152 -482 259 -57 50 -60 52
-31 16 44 -57 198 -204 263 -252 76 -57 191 -117 282 -147 96 -33 184 -34 379
-5 146 21 189 18 189 -14 0 -60 -195 -117 -415 -123 -246 -6 -234 -1 -115 -40
145 -48 265 -67 374 -61 101 5 121 14 436 191 359 201 501 315 604 484 47 78
66 130 121 325 91 330 124 582 105 827 -17 219 -51 366 -130 565 -26 66 -61
163 -77 215 -76 242 -139 302 -462 440 -88 37 -188 84 -223 102 -35 19 -101
55 -148 81 -99 54 -225 97 -365 127 -115 24 -423 35 -537 20z m517 -1709 c186
-84 127 -361 -91 -427 -68 -20 -124 -18 -174 9 -65 34 -81 73 -74 172 7 102
19 138 57 181 68 78 192 106 282 65z"/>
<path d="M4049 4046 c-19 -9 -24 -20 -24 -51 0 -40 0 -40 -45 -45 -36 -4 -46
-9 -48 -26 -2 -14 7 -29 24 -43 48 -38 141 -22 178 31 18 25 21 80 6 108 -14
27 -62 41 -91 26z"/>
<path d="M3345 5577 c-119 -49 -238 -114 -267 -145 -27 -28 -158 -208 -158
-216 0 -14 100 34 244 116 284 161 336 200 336 254 0 21 -4 24 -37 24 -21 0
-74 -15 -118 -33z"/>
<path d="M6102 5499 c-37 -38 -40 -113 -17 -384 57 -685 40 -1165 -54 -1557
-74 -307 -129 -468 -201 -588 -149 -247 -402 -475 -725 -652 -113 -62 -222
-128 -212 -128 14 0 166 42 277 77 373 118 703 378 905 713 38 63 39 65 37
155 -2 79 2 107 34 216 96 326 120 475 135 844 13 344 -2 1050 -25 1143 -20
79 -48 134 -82 161 -33 26 -48 26 -72 0z"/>
<path d="M6876 5268 c-21 -30 -21 -33 19 -191 20 -75 51 -233 70 -350 19 -116
43 -239 55 -272 20 -60 20 -60 14 110 -7 234 -23 435 -40 527 -32 169 -77 235
-118 176z"/>
<path d="M6934 4032 c-7 -10 -32 -83 -58 -163 -29 -94 -62 -172 -92 -224 -26
-44 -82 -146 -124 -227 -104 -197 -150 -259 -316 -423 -153 -151 -208 -214
-323 -370 -41 -55 -100 -127 -130 -160 -56 -59 -56 -59 18 5 159 138 504 504
617 655 142 190 312 539 384 790 18 61 37 116 42 123 6 6 6 12 2 12 -5 0 -14
-8 -20 -18z"/>
</g>
</svg>
