<?xml version="1.0" standalone="no"?>
<!DOCTYPE svg PUBLIC "-//W3C//DTD SVG 20010904//EN"
 "http://www.w3.org/TR/2001/REC-SVG-20010904/DTD/svg10.dtd">
<svg version="1.0" xmlns="http://www.w3.org/2000/svg"
 width="1000.000000pt" height="1000.000000pt" viewBox="0 0 1000.000000 1000.000000"
 preserveAspectRatio="xMidYMid meet">
<metadata>
  <rdf:RDF
    xmlns:rdf = "http://www.w3.org/1999/02/22-rdf-syntax-ns#"
    xmlns:rdfs = "http://www.w3.org/2000/01/rdf-schema#"
    xmlns:dc = "http://purl.org/dc/elements/1.1/"
    xmlns:cc = "http://creativecommons.org/ns#">
    <cc:license rdf:resource="http://creativecommons.org/publicdomain/zero/1.0/deed.en"/>
    <cc:permits rdf:resource="http://creativecommons.org/ns#Reproduction"/>
    <rdf:Description about="https://nft.mir.one/fingerprints"
      dc:title="TON Fingerprints"
      dc:description="This is a unique digital fingerprint created based on the algorithm for generating basic rings using a noise texture. Like human fingerprints, you can now use it for the Web3 and Metaverse era as digital biometric information."
      dc:publisher="https://nft.mir.one"
      dc:date="2022-02-22"
      dc:format="image/svg+xml"
      dc:language="en" >
      <dc:creator>
      <rdf:Bag>
        <rdf:li>EQBondcvD2_aOFADXSWJHs4ZazQDuEl9_wNvGGPxI8hGuOFU</rdf:li>
        <rdf:li>ipfs://bafkreihj7iub3fhmhq6jn62noukt5wxn3gv6bvcg7wmt6ywvlurefezckq</rdf:li>
      </rdf:Bag>
      </dc:creator>
    </rdf:Description>
  </rdf:RDF>
</metadata>
<g transform="translate(0.000000,1000.000000) scale(0.100000,-0.100000)"
fill="#1b1f23" stroke="none">
<path d="M5050 7799 c-342 -25 -600 -90 -867 -219 -125 -60 -170 -90 -65 -43
167 74 266 100 707 188 209 42 385 77 390 80 14 5 -33 3 -165 -6z"/>
<path d="M5490 7590 c-53 -14 -148 -24 -325 -35 -385 -24 -613 -63 -823 -141
-199 -74 -332 -152 -587 -344 -101 -76 -211 -151 -244 -167 -33 -15 -60 -31
-60 -34 -1 -8 51 -19 85 -19 13 0 28 -9 33 -19 20 -36 -38 -126 -242 -375
-100 -121 -139 -163 -171 -177 -41 -19 -41 -19 10 -19 46 0 59 5 113 45 80 59
243 222 307 308 28 38 70 103 92 145 47 88 96 139 202 209 413 273 1001 397
1327 279 124 -46 236 -132 364 -281 18 -23 93 -94 166 -159 143 -128 203 -196
335 -381 120 -169 175 -256 213 -338 83 -181 86 -240 34 -902 -32 -420 -175
-771 -409 -1006 -210 -211 -441 -299 -788 -299 -220 0 -389 42 -591 145 -190
98 -329 221 -461 408 -41 59 -81 107 -87 107 -7 0 -20 -11 -29 -25 -40 -61 18
-215 128 -342 260 -298 726 -502 1096 -479 178 10 388 64 527 133 338 169 592
515 699 953 40 165 57 307 65 556 7 196 11 238 27 270 13 26 26 39 39 39 18 0
21 -11 32 -100 15 -128 16 -378 2 -503 -70 -650 -360 -1122 -826 -1348 -206
-99 -409 -147 -628 -148 -200 -1 -319 27 -545 129 -345 155 -609 379 -715 607
-73 158 -107 460 -85 751 15 197 10 227 -34 227 -88 0 -179 -324 -162 -575 32
-462 216 -733 701 -1031 61 -37 151 -86 200 -110 380 -178 424 -194 570 -194
297 0 717 132 980 310 102 69 231 193 311 300 73 97 185 310 238 451 128 347
182 843 117 1091 -24 92 -41 127 -87 178 -39 43 -45 69 -63 273 -11 124 -27
165 -122 306 -160 239 -397 499 -604 664 -142 113 -180 150 -172 171 17 43
130 -4 300 -124 124 -88 371 -334 549 -550 80 -96 161 -189 179 -206 41 -39
179 -127 186 -120 14 14 -18 72 -138 252 -210 315 -355 481 -569 653 -152 122
-245 172 -425 226 -111 34 -151 54 -192 97 -64 66 -64 121 0 165 17 13 41 30
53 38 25 18 152 55 191 55 17 0 24 3 17 10 -5 5 -59 12 -119 15 -90 4 -124 1
-185 -15z"/>
<path d="M5598 7450 c-52 -32 12 -75 182 -125 174 -51 268 -89 333 -135 50
-35 262 -214 439 -371 36 -32 70 -59 73 -59 29 0 -443 486 -519 535 -154 99
-452 189 -508 155z"/>
<path d="M4630 7075 c-267 -43 -481 -121 -660 -240 -41 -28 -114 -93 -177
-162 -60 -63 -146 -157 -193 -207 -80 -85 -180 -182 -277 -268 -145 -128 -266
-376 -331 -677 -25 -121 -27 -138 -27 -421 0 -315 6 -392 55 -677 17 -94 30
-203 30 -242 0 -86 21 -153 96 -310 61 -128 140 -252 210 -330 40 -44 51 -51
84 -51 56 0 105 -21 283 -119 208 -114 331 -164 412 -165 58 -1 60 0 63 26 4
32 -26 54 -208 152 -302 164 -543 311 -611 374 -86 80 -152 167 -196 259 -30
62 -37 90 -49 207 -8 75 -25 204 -39 287 -13 83 -29 221 -35 307 -6 86 -18
225 -26 309 -16 155 -14 193 13 322 30 145 105 307 206 446 64 87 574 601 694
698 101 82 217 149 312 181 88 29 369 72 536 82 251 16 464 -54 753 -246 120
-80 237 -174 254 -204 14 -24 1 -36 -40 -36 -26 0 -68 17 -137 55 -312 170
-448 225 -616 245 -144 18 -319 -11 -403 -65 -14 -10 -50 -52 -80 -94 -95
-134 -284 -299 -421 -365 -110 -55 -185 -120 -308 -270 -103 -126 -281 -392
-385 -576 -39 -69 -91 -152 -116 -185 -62 -82 -71 -125 -70 -335 1 -130 6
-208 23 -305 82 -490 192 -627 791 -990 80 -48 175 -110 211 -136 82 -61 157
-95 246 -114 98 -21 175 -19 204 4 24 19 24 19 3 48 -15 20 -61 46 -164 90
-378 164 -787 459 -930 672 -125 187 -193 430 -192 696 0 158 25 264 97 410
40 82 72 130 127 191 40 45 102 130 137 190 135 228 322 486 367 506 20 10 27
9 35 -3 28 -40 -20 -164 -145 -378 -66 -113 -113 -222 -126 -294 -16 -86 5
-534 29 -633 31 -127 47 -153 100 -166 38 -10 67 -33 187 -149 144 -139 238
-210 351 -268 197 -99 353 -125 676 -111 168 7 204 12 267 34 346 120 614 537
669 1042 17 149 34 555 27 630 -17 185 -86 333 -261 558 -32 41 -58 86 -65
114 -17 68 -44 114 -107 182 -53 57 -266 234 -389 323 -77 55 -202 115 -291
138 -102 27 -349 35 -473 14z m417 -606 c104 -14 203 -42 321 -91 157 -65 387
-186 446 -234 173 -140 285 -411 234 -564 -7 -22 -12 -125 -12 -275 -1 -188
-6 -256 -19 -315 -85 -367 -274 -647 -522 -771 -89 -45 -138 -49 -143 -13 -3
22 -3 23 158 156 125 104 232 255 307 430 105 249 120 465 44 625 -62 129
-243 330 -382 423 -188 125 -432 181 -590 134 -55 -16 -189 -81 -223 -108 -43
-34 17 -72 99 -62 213 25 237 27 316 16 44 -6 116 -24 159 -39 393 -139 645
-595 456 -826 -22 -26 -45 -71 -57 -112 -51 -165 -147 -305 -315 -455 -106
-95 -157 -127 -233 -144 -236 -56 -522 53 -751 285 -203 205 -260 350 -247
624 9 188 61 336 173 487 53 72 92 102 174 133 98 37 170 76 176 95 17 55 40
87 94 128 90 71 92 107 5 106 -73 -2 -143 -40 -246 -136 -50 -48 -99 -86 -107
-84 -78 15 1 198 121 282 57 40 61 41 140 41 68 -1 92 -6 142 -29 53 -25 77
-29 205 -36 161 -10 268 -33 393 -86 169 -71 323 -193 429 -338 72 -99 118
-146 144 -146 40 0 44 41 13 133 -45 135 -168 295 -292 379 -79 54 -253 139
-357 176 -162 57 -234 67 -457 66 -203 -1 -203 -1 -203 21 0 37 71 90 143 109
110 28 152 30 264 15z"/>
<path d="M4780 5685 c-126 -15 -215 -44 -287 -92 -231 -153 -314 -522 -178
-793 89 -178 256 -324 439 -384 214 -71 387 -26 556 144 112 111 152 189 158
305 10 192 -119 410 -292 495 -61 31 -81 35 -167 38 -113 5 -173 -10 -257 -65
-58 -39 -81 -67 -117 -145 -33 -70 -35 -181 -4 -263 27 -73 103 -155 171 -186
72 -32 185 -33 243 -2 141 75 179 241 77 336 -35 33 -101 46 -136 27 -60 -32
-49 -116 14 -104 25 6 30 3 36 -20 14 -58 -62 -109 -129 -87 -64 21 -107 84
-107 156 0 120 106 205 240 192 69 -6 123 -33 171 -84 49 -52 65 -81 84 -148
63 -215 -123 -436 -366 -437 -233 -1 -442 186 -479 430 -31 195 77 402 252
485 63 30 187 57 260 57 149 -1 305 -65 409 -169 76 -77 108 -128 161 -259 56
-139 86 -164 114 -95 32 75 -8 238 -86 358 -82 126 -234 243 -368 285 -134 42
-228 47 -412 25z"/>
<path d="M3426 6786 c-3 -14 -34 -55 -67 -91 -34 -36 -58 -65 -54 -65 4 0 32
21 62 47 60 50 94 106 76 124 -7 7 -12 3 -17 -15z"/>
<path d="M4315 6646 c-156 -50 -384 -223 -659 -500 -275 -278 -412 -482 -481
-721 -30 -105 -33 -193 -7 -225 29 -35 57 -19 91 53 16 34 56 119 89 189 108
228 259 437 456 633 80 80 178 160 353 288 289 212 317 241 277 281 -18 19
-64 20 -119 2z"/>
<path d="M6724 6029 c-34 -12 -38 -26 -35 -126 2 -96 14 -143 66 -258 69 -152
94 -339 75 -555 -42 -489 -160 -875 -362 -1181 -164 -248 -312 -368 -619 -500
-351 -151 -548 -202 -883 -229 -109 -9 -156 -18 -217 -40 -104 -39 -183 -46
-342 -30 -93 8 -153 9 -202 2 -186 -26 -434 70 -712 275 -40 29 -78 53 -84 53
-24 0 1 -73 42 -127 105 -135 256 -243 415 -296 139 -46 246 -64 455 -77 203
-12 371 -2 634 39 396 62 601 119 820 228 120 60 203 90 270 98 73 9 110 27
211 104 319 240 569 719 653 1252 47 295 60 661 28 807 -26 120 -69 241 -121
337 -25 47 -46 89 -46 95 0 5 17 10 37 10 34 0 46 -9 124 -88 87 -88 87 -88
63 -34 -38 86 -93 170 -129 198 -43 32 -113 54 -141 43z"/>
<path d="M7083 5030 c0 -30 2 -43 4 -27 2 15 2 39 0 55 -2 15 -4 2 -4 -28z"/>
<path d="M7072 4923 c-3 -73 -30 -274 -48 -358 -24 -107 -101 -367 -146 -490
-58 -159 -165 -374 -246 -495 -73 -109 -96 -133 -450 -465 -100 -93 -182 -177
-182 -186 0 -39 68 -38 146 1 69 34 263 198 359 302 270 295 510 938 565 1518
6 63 10 140 8 170 -4 55 -4 55 -6 3z"/>
<path d="M6014 3210 c-11 -4 -75 -44 -141 -88 -133 -87 -211 -123 -383 -175
-353 -107 -675 -152 -1029 -144 -245 5 -386 22 -548 68 -70 19 -281 98 -373
140 -45 20 -45 20 -20 -1 272 -220 543 -346 796 -371 152 -15 514 -6 654 16
329 51 818 189 924 260 17 11 43 44 57 73 15 28 48 75 74 104 55 61 71 94 54
114 -13 16 -34 17 -65 4z"/>
<path d="M6355 2888 c-84 -45 -217 -91 -385 -134 -576 -148 -888 -224 -980
-239 -163 -25 -472 -31 -680 -12 -96 9 -206 18 -245 21 -70 4 -70 4 -15 -15
264 -95 474 -138 716 -146 244 -9 332 5 704 111 437 125 561 175 765 314 168
114 206 145 120 100z"/>
<path d="M5620 2383 c-128 -20 -239 -60 -317 -115 -26 -18 -61 -41 -77 -50
-55 -31 -6 -19 67 16 40 19 88 41 108 49 60 25 288 89 343 97 49 7 48 7 -24 7
-41 0 -86 -1 -100 -4z"/>
<path d="M5168 2193 c7 -3 16 -2 19 1 4 3 -2 6 -13 5 -11 0 -14 -3 -6 -6z"/>
<path d="M5118 2183 c7 -3 16 -2 19 1 4 3 -2 6 -13 5 -11 0 -14 -3 -6 -6z"/>
</g>
</svg>
