<?xml version="1.0" standalone="no"?>
<!DOCTYPE svg PUBLIC "-//W3C//DTD SVG 20010904//EN"
 "http://www.w3.org/TR/2001/REC-SVG-20010904/DTD/svg10.dtd">
<svg version="1.0" xmlns="http://www.w3.org/2000/svg"
 width="1000.000000pt" height="1000.000000pt" viewBox="0 0 1000.000000 1000.000000"
 preserveAspectRatio="xMidYMid meet">
<metadata>
  <rdf:RDF
    xmlns:rdf = "http://www.w3.org/1999/02/22-rdf-syntax-ns#"
    xmlns:rdfs = "http://www.w3.org/2000/01/rdf-schema#"
    xmlns:dc = "http://purl.org/dc/elements/1.1/"
    xmlns:cc = "http://creativecommons.org/ns#">
    <cc:license rdf:resource="http://creativecommons.org/publicdomain/zero/1.0/deed.en"/>
    <cc:permits rdf:resource="http://creativecommons.org/ns#Reproduction"/>
    <rdf:Description about="https://nft.mir.one/fingerprints"
      dc:title="TON Fingerprints"
      dc:description="This is a unique digital fingerprint created based on the algorithm for generating basic rings using a noise texture. Like human fingerprints, you can now use it for the Web3 and Metaverse era as digital biometric information."
      dc:publisher="https://nft.mir.one"
      dc:date="2022-02-22"
      dc:format="image/svg+xml"
      dc:language="en" >
      <dc:creator>
      <rdf:Bag>
        <rdf:li>EQBondcvD2_aOFADXSWJHs4ZazQDuEl9_wNvGGPxI8hGuOFU</rdf:li>
        <rdf:li>ipfs://bafkreihj7iub3fhmhq6jn62noukt5wxn3gv6bvcg7wmt6ywvlurefezckq</rdf:li>
      </rdf:Bag>
      </dc:creator>
    </rdf:Description>
  </rdf:RDF>
</metadata>
<g transform="translate(0.000000,1000.000000) scale(0.100000,-0.100000)"
fill="#1b1f23" stroke="none">
<path d="M5118 7803 c7 -3 16 -2 19 1 4 3 -2 6 -13 5 -11 0 -14 -3 -6 -6z"/>
<path d="M4805 7788 c-27 -5 -118 -31 -202 -58 -83 -28 -189 -56 -235 -64 -64
-11 -73 -14 -41 -15 23 -1 64 -6 92 -13 65 -15 111 -2 207 58 118 74 168 87
327 90 76 1 141 5 144 8 10 9 -236 5 -292 -6z"/>
<path d="M4852 7654 c-108 -29 -167 -81 -112 -99 50 -16 225 72 206 103 -9 15
-28 14 -94 -4z"/>
<path d="M5215 7640 c-114 -24 -154 -40 -235 -90 -74 -46 -173 -80 -234 -80
-64 -1 -116 -31 -216 -124 -110 -103 -182 -141 -359 -191 -133 -38 -239 -86
-342 -155 -90 -61 -235 -210 -301 -310 -68 -104 -254 -491 -302 -628 -89 -257
-141 -705 -106 -921 13 -78 44 -141 69 -141 40 0 44 22 52 273 12 392 63 623
191 868 71 137 125 202 198 239 33 16 97 58 142 93 133 101 175 127 269 168
132 57 193 100 305 214 143 146 195 169 484 215 41 7 129 28 195 47 175 51
272 70 439 87 82 9 155 16 162 16 8 0 20 -16 28 -35 8 -19 17 -35 20 -35 34 0
264 -36 381 -60 195 -40 278 -46 330 -27 22 9 32 16 22 16 -11 1 -89 33 -175
72 -210 95 -307 126 -433 140 -60 6 -123 19 -149 31 -160 72 -279 64 -632 -41
-190 -57 -273 -70 -302 -48 -15 11 -16 18 -8 34 18 33 52 50 239 119 280 103
341 123 433 140 124 24 188 16 285 -35 99 -51 213 -81 330 -87 90 -5 90 -5
-61 54 -176 70 -234 98 -235 115 -1 6 -2 17 -4 22 -1 6 -3 19 -3 30 -2 17 -10
20 -59 21 -32 1 -119 4 -193 8 -113 5 -149 3 -225 -14z m-996 -654 c26 -31
-17 -71 -194 -182 -149 -92 -234 -156 -337 -253 -96 -90 -118 -99 -118 -48 0
88 182 276 388 400 140 85 235 115 261 83z"/>
<path d="M4309 7494 c-112 -37 -328 -145 -427 -213 -223 -154 -404 -356 -559
-626 -62 -108 -155 -285 -150 -285 3 0 40 62 83 137 163 287 271 422 447 561
113 89 200 137 397 217 207 85 229 96 275 136 37 33 48 82 21 92 -7 3 -46 -6
-87 -19z"/>
<path d="M5415 7064 c-166 -18 -263 -43 -383 -97 -54 -25 -146 -59 -207 -76
-60 -18 -150 -52 -200 -76 -138 -67 -245 -173 -231 -229 9 -36 45 -76 69 -76
12 0 76 27 142 60 190 95 318 118 474 85 39 -8 154 -28 255 -45 493 -81 766
-208 923 -427 81 -114 229 -452 277 -633 49 -182 60 -273 60 -475 0 -213 -15
-319 -66 -465 -39 -110 -62 -155 -168 -326 -104 -167 -171 -262 -257 -366
-262 -316 -628 -508 -967 -508 -184 0 -284 31 -453 141 -170 110 -327 164
-503 172 -117 6 -173 23 -319 97 -69 34 -90 40 -115 34 -17 -4 -71 -7 -121 -7
-73 0 -99 4 -136 22 -121 58 -287 235 -424 452 -60 95 -130 190 -121 164 133
-369 242 -567 428 -775 135 -152 181 -194 287 -265 191 -127 436 -241 683
-319 124 -39 187 -76 158 -96 -61 -40 -387 49 -660 181 -194 94 -344 196 -482
327 -62 59 -133 122 -158 141 -25 19 -51 39 -59 45 -15 11 110 -166 186 -266
92 -121 254 -268 363 -331 155 -89 493 -193 690 -212 85 -8 352 35 390 63 55
41 33 88 -59 123 -31 11 -92 36 -136 56 -44 19 -141 57 -215 85 -160 60 -256
107 -490 241 -272 156 -332 202 -316 243 7 17 31 14 116 -13 85 -27 325 -153
405 -213 146 -109 297 -174 500 -215 145 -29 134 -25 270 -89 110 -51 110 -51
235 -51 197 1 401 54 625 165 149 74 261 157 390 292 333 345 557 732 629
1084 28 136 39 293 33 484 -9 269 -35 402 -124 630 -69 175 -195 427 -250 500
-165 215 -390 346 -734 425 -100 23 -151 30 -403 54 -98 10 -151 30 -144 54 8
24 78 48 170 58 184 22 399 -9 650 -92 218 -72 318 -134 489 -301 108 -106
133 -144 188 -285 22 -54 73 -170 114 -258 151 -323 166 -388 174 -745 8 -383
-14 -573 -98 -825 -84 -252 -195 -439 -449 -751 -224 -277 -322 -371 -479
-463 -135 -80 -382 -167 -676 -240 -88 -21 -223 -61 -300 -87 -204 -69 -288
-70 -650 -7 -182 31 -450 110 -560 166 -42 21 -195 78 -195 73 0 -4 161 -126
216 -164 63 -43 231 -123 319 -152 52 -16 160 -38 246 -50 85 -12 169 -28 187
-35 37 -16 52 -42 31 -57 -20 -13 -307 -3 -409 15 -47 8 -116 18 -155 21 -70
6 -70 6 42 -39 261 -105 477 -135 607 -85 17 6 93 24 170 40 130 27 305 76
588 164 62 19 197 60 300 90 104 31 221 71 262 91 149 71 359 227 413 307 16
24 42 74 58 112 33 79 77 142 204 286 51 58 110 130 131 160 116 170 223 470
269 756 34 210 42 389 32 709 -9 273 -11 297 -39 405 -38 149 -88 280 -173
460 -38 80 -69 156 -69 168 0 43 49 41 114 -3 21 -14 41 -24 43 -21 3 2 -44
53 -104 113 -59 60 -163 168 -230 241 -98 106 -123 140 -128 170 -4 20 -8 42
-10 49 -9 29 -86 53 -494 158 -79 21 -175 50 -212 66 -76 32 -87 33 -274 13z
m-1045 -3499 c120 -46 228 -103 241 -127 24 -45 -27 -50 -139 -12 -90 30 -229
94 -272 124 -31 22 -40 55 -18 62 22 8 94 -10 188 -47z"/>
<path d="M6434 6836 c-18 -14 -16 -16 28 -35 45 -19 83 -30 153 -46 26 -5 22
-1 -23 30 -51 35 -111 65 -130 65 -4 0 -17 -6 -28 -14z"/>
<path d="M4252 6563 c-38 -18 -57 -44 -100 -130 -17 -33 -79 -119 -137 -190
-237 -288 -335 -478 -395 -765 -45 -216 -54 -513 -21 -673 43 -209 157 -414
217 -391 23 9 16 73 -21 191 -61 190 -77 290 -77 470 0 194 24 344 81 515 69
207 147 340 337 580 59 74 128 166 153 204 42 63 46 74 46 128 -1 79 -20 93
-83 61z"/>
<path d="M3990 6511 c-58 -31 -291 -232 -350 -303 -98 -117 -199 -339 -244
-538 -24 -108 -45 -266 -56 -435 -6 -88 -18 -191 -26 -230 -7 -38 -14 -91 -14
-116 0 -111 99 -357 198 -492 27 -37 133 -153 236 -257 171 -174 193 -192 269
-230 72 -36 95 -42 187 -50 131 -12 135 -13 393 -115 117 -45 250 -92 297
-104 237 -59 478 -26 710 96 239 125 427 319 584 603 58 104 58 105 123 158
122 101 185 362 162 671 -15 204 -53 346 -153 580 -35 81 -72 178 -84 216 -41
135 -151 264 -277 325 -33 16 -132 50 -220 76 -374 109 -549 140 -753 132
-112 -4 -140 -9 -234 -41 -222 -75 -316 -140 -490 -344 -210 -244 -333 -478
-388 -741 -27 -125 -37 -356 -21 -477 11 -82 80 -388 116 -511 18 -60 85 -158
184 -268 72 -80 92 -119 73 -138 -30 -30 -150 51 -289 195 -59 62 -142 138
-184 169 -55 41 -89 76 -123 126 -135 204 -174 396 -147 727 28 343 93 591
208 790 63 109 113 173 260 328 68 73 131 144 139 159 29 55 -16 76 -86 39z
m1314 -222 c107 -22 227 -64 291 -103 22 -13 76 -66 120 -117 44 -51 128 -132
185 -179 58 -47 133 -112 166 -146 210 -207 297 -740 184 -1117 -21 -70 -39
-88 -65 -67 -30 25 -36 83 -24 250 25 370 -49 665 -220 867 -82 96 -340 325
-423 375 -147 87 -357 130 -539 109 -212 -24 -370 -103 -540 -271 -203 -200
-314 -423 -348 -700 -36 -282 39 -598 196 -832 132 -197 341 -357 490 -375 44
-5 52 -3 66 17 25 36 5 62 -117 147 -305 214 -452 445 -497 781 -65 486 275
980 724 1052 252 41 493 -41 711 -241 265 -243 357 -517 327 -969 -6 -102 -18
-215 -25 -251 -68 -324 -417 -613 -782 -647 -44 -4 -167 -7 -274 -7 -187 0
-198 1 -269 27 -172 64 -262 136 -404 326 -122 162 -189 316 -240 547 -18 84
-21 131 -21 295 0 178 2 204 26 302 67 265 211 510 405 688 254 234 542 310
897 239z m602 -129 c94 -53 194 -166 194 -217 0 -51 -53 -24 -190 99 -113 101
-124 113 -116 133 9 24 56 18 112 -15z"/>
<path d="M4904 5831 c-207 -56 -385 -212 -482 -421 -53 -114 -72 -194 -79
-325 -13 -261 89 -513 280 -691 86 -81 272 -213 366 -261 245 -125 625 54 771
363 102 217 118 590 36 823 -82 229 -273 419 -501 497 -108 37 -283 44 -391
15z m316 -156 c191 -51 347 -193 400 -364 27 -86 36 -237 21 -373 -15 -140
-33 -206 -81 -305 -82 -167 -229 -272 -395 -281 -108 -6 -179 11 -289 66 -160
82 -298 239 -356 407 -47 135 -46 306 3 453 61 188 233 352 413 396 78 19 215
19 284 1z"/>
<path d="M4981 5559 c-171 -33 -308 -171 -356 -359 -24 -91 -17 -253 14 -333
77 -197 241 -319 431 -321 74 -1 92 3 141 27 67 32 142 109 171 174 23 53 29
156 10 190 -14 25 -163 125 -240 161 -94 43 -195 20 -231 -53 -12 -25 -12 -32
0 -54 21 -36 71 -37 79 -1 18 77 130 -8 130 -99 0 -21 -10 -43 -33 -67 -28
-31 -42 -37 -84 -41 -68 -7 -118 11 -168 62 -58 58 -80 126 -70 214 5 36 8 94
6 128 -2 73 10 102 66 155 83 81 222 108 350 70 108 -33 164 -79 271 -222 2
-3 13 6 24 20 56 69 -41 229 -183 300 -109 55 -216 71 -328 49z"/>
<path d="M5013 5320 c-86 -18 -165 -76 -178 -132 -6 -25 -4 -28 16 -28 13 0
56 11 94 25 125 44 212 31 355 -56 46 -28 99 -53 116 -56 27 -4 32 -1 44 26
15 38 1 81 -27 81 -10 0 -52 23 -93 50 -122 81 -229 111 -327 90z"/>
<path d="M2992 5718 c-58 -415 -51 -595 38 -948 52 -208 93 -304 185 -445 119
-180 266 -320 407 -389 93 -45 122 -49 126 -18 5 36 -30 81 -142 185 -201 186
-308 345 -416 617 -22 56 -65 150 -95 208 -69 136 -83 192 -97 380 -10 131 -9
179 6 340 24 243 17 279 -12 70z"/>
<path d="M6825 3640 c-3 -5 -34 -24 -68 -42 -41 -22 -97 -68 -167 -138 -114
-113 -152 -172 -128 -196 21 -22 66 12 155 118 43 51 101 117 128 148 53 58
100 120 91 120 -3 0 -7 -4 -11 -10z"/>
<path d="M6500 3060 c-8 -5 -39 -19 -68 -30 -29 -11 -90 -47 -134 -81 -134
-101 -283 -198 -361 -234 -61 -30 -90 -37 -179 -45 -135 -12 -159 -18 -526
-140 -313 -104 -587 -180 -647 -180 -19 0 -52 7 -72 15 -43 17 -78 20 -178 16
-81 -3 -66 -11 55 -30 71 -11 116 -34 104 -52 -3 -5 4 -9 15 -9 14 0 21 -6 21
-20 0 -17 3 -19 19 -10 11 5 92 14 181 20 272 17 501 72 809 192 171 66 213
77 236 58 39 -33 3 -108 -80 -166 -63 -43 -73 -56 -17 -23 64 38 119 83 157
130 21 24 87 82 148 128 61 46 136 103 167 128 55 45 370 334 370 340 0 5 -4
3 -20 -7z"/>
</g>
</svg>
