<?xml version="1.0" standalone="no"?>
<!DOCTYPE svg PUBLIC "-//W3C//DTD SVG 20010904//EN"
 "http://www.w3.org/TR/2001/REC-SVG-20010904/DTD/svg10.dtd">
<svg version="1.0" xmlns="http://www.w3.org/2000/svg"
 width="1000.000000pt" height="1000.000000pt" viewBox="0 0 1000.000000 1000.000000"
 preserveAspectRatio="xMidYMid meet">
<metadata>
  <rdf:RDF
    xmlns:rdf = "http://www.w3.org/1999/02/22-rdf-syntax-ns#"
    xmlns:rdfs = "http://www.w3.org/2000/01/rdf-schema#"
    xmlns:dc = "http://purl.org/dc/elements/1.1/"
    xmlns:cc = "http://creativecommons.org/ns#">
    <cc:license rdf:resource="http://creativecommons.org/publicdomain/zero/1.0/deed.en"/>
    <cc:permits rdf:resource="http://creativecommons.org/ns#Reproduction"/>
    <rdf:Description about="https://nft.mir.one/fingerprints"
      dc:title="TON Fingerprints"
      dc:description="This is a unique digital fingerprint created based on the algorithm for generating basic rings using a noise texture. Like human fingerprints, you can now use it for the Web3 and Metaverse era as digital biometric information."
      dc:publisher="https://nft.mir.one"
      dc:date="2022-02-22"
      dc:format="image/svg+xml"
      dc:language="en" >
      <dc:creator>
      <rdf:Bag>
        <rdf:li>EQBondcvD2_aOFADXSWJHs4ZazQDuEl9_wNvGGPxI8hGuOFU</rdf:li>
        <rdf:li>ipfs://bafkreihj7iub3fhmhq6jn62noukt5wxn3gv6bvcg7wmt6ywvlurefezckq</rdf:li>
      </rdf:Bag>
      </dc:creator>
    </rdf:Description>
  </rdf:RDF>
</metadata>
<g transform="translate(0.000000,1000.000000) scale(0.100000,-0.100000)"
fill="#1b1f23" stroke="none">
<path d="M4730 7751 c-63 -28 -182 -53 -319 -68 -54 -5 -61 -8 -40 -15 50 -19
240 -21 314 -4 138 33 166 36 233 26 77 -13 184 -53 377 -142 77 -36 217 -94
310 -128 94 -35 180 -70 193 -78 30 -20 29 -50 -4 -58 -64 -16 -161 4 -700
145 -370 98 -742 81 -1154 -53 -105 -34 -105 -34 -5 -40 483 -33 684 -56 1210
-140 159 -25 261 -35 655 -61 202 -13 294 -29 455 -77 39 -11 99 -22 135 -25
65 -4 65 -4 -60 75 -69 43 -188 111 -264 152 -79 42 -161 93 -191 120 -70 64
-119 90 -427 229 -298 135 -375 159 -543 167 -106 5 -112 4 -175 -25z"/>
<path d="M3845 7175 c-44 -13 -118 -39 -164 -58 -85 -35 -85 -35 -40 -39 24
-3 94 -1 154 3 61 5 133 6 160 3 52 -6 95 -27 95 -45 0 -19 -68 -39 -189 -53
-135 -17 -223 -47 -365 -125 -88 -48 -88 -49 -53 -53 54 -6 480 58 582 88 197
58 255 62 460 32 39 -5 116 -13 172 -18 102 -8 102 -8 290 -111 411 -226 469
-250 888 -364 132 -36 287 -82 345 -102 113 -38 439 -166 586 -230 49 -22 110
-43 135 -47 44 -7 44 -7 -61 99 -134 136 -177 167 -296 215 -53 22 -117 51
-140 65 -105 62 -260 116 -659 230 -288 82 -372 121 -463 214 -78 80 -90 87
-237 134 -186 60 -236 60 -261 2 -7 -19 -18 -37 -24 -40 -16 -10 -38 12 -45
45 -13 59 -95 87 -350 120 -88 11 -199 29 -246 40 -112 26 -175 25 -274 -5z"/>
<path d="M5363 7018 c-31 -15 -29 -52 3 -77 36 -28 166 -69 435 -135 261 -64
391 -105 559 -176 66 -27 131 -50 144 -50 38 0 71 -19 90 -51 19 -33 74 -64
157 -89 56 -17 56 -17 -120 160 -97 97 -204 195 -238 217 -105 69 -317 130
-623 178 -191 30 -374 41 -407 23z"/>
<path d="M4175 6794 c-97 -10 -593 -86 -625 -96 -50 -15 -133 -59 -224 -117
-78 -50 -78 -50 -40 -53 22 -2 93 7 159 19 366 66 640 98 760 89 100 -8 420
-60 460 -76 46 -18 66 -39 55 -60 -16 -30 -70 -42 -220 -47 -146 -6 -146 -6
-191 27 -80 56 -218 57 -555 5 -368 -58 -397 -67 -538 -175 -34 -25 -70 -52
-81 -58 -43 -25 78 -11 293 32 234 48 450 84 686 116 179 24 185 24 193 4 9
-25 -35 -62 -101 -83 -78 -25 -60 -21 -412 -85 -164 -30 -350 -67 -412 -81
-128 -30 -175 -57 -289 -165 -68 -65 -68 -65 -13 -59 30 3 143 29 250 57 201
52 296 73 655 141 116 23 269 59 340 82 310 97 558 130 622 83 52 -39 40 -76
-29 -95 -22 -5 -126 -28 -231 -49 -106 -22 -251 -53 -323 -69 -72 -16 -245
-51 -385 -76 -436 -79 -746 -156 -822 -205 -23 -14 -79 -68 -125 -118 -83 -91
-83 -91 -45 -85 21 3 85 22 143 43 332 120 597 180 1082 245 472 64 659 102
825 171 139 58 228 62 543 28 251 -28 482 -65 614 -99 200 -51 481 -157 676
-255 73 -37 150 -60 150 -45 0 19 -174 218 -217 248 -71 49 -452 195 -668 256
-60 17 -247 62 -415 101 -168 39 -349 84 -402 100 -124 39 -352 155 -496 253
-122 83 -186 108 -337 132 -102 15 -250 24 -310 19z"/>
<path d="M6515 6520 c-9 -15 4 -30 26 -30 23 0 26 25 3 34 -21 8 -22 8 -29 -4z"/>
<path d="M5325 5883 c-98 -8 -224 -27 -395 -58 -210 -38 -415 -62 -605 -70
-415 -19 -773 -89 -1119 -221 -98 -38 -130 -63 -198 -154 -23 -30 -54 -71 -69
-92 -28 -36 -28 -36 19 -24 26 7 71 25 100 40 201 102 522 204 807 257 162 30
373 32 460 5 107 -35 396 -22 905 41 164 20 394 22 472 5 31 -7 72 -24 90 -37
105 -75 144 -97 248 -137 63 -25 176 -69 250 -98 234 -91 480 -222 670 -358
36 -26 80 -52 98 -58 32 -12 32 -12 -25 100 -87 167 -124 200 -358 317 -219
110 -349 162 -542 220 -224 66 -238 72 -238 94 0 13 13 26 39 39 36 18 47 18
126 8 211 -28 581 -174 856 -338 64 -37 142 -74 160 -74 11 0 -118 192 -159
237 -55 60 -108 90 -304 172 -271 114 -473 167 -678 176 -168 7 -562 13 -610
8z"/>
<path d="M4051 5469 c-280 -31 -705 -156 -924 -271 -61 -33 -121 -104 -185
-220 -32 -57 -32 -57 6 -44 20 8 66 31 101 51 246 145 547 254 866 315 321 61
375 79 375 126 0 46 -82 61 -239 43z"/>
<path d="M5443 5420 c-23 -5 -70 -21 -105 -35 -73 -30 -226 -49 -328 -40 -92
8 -453 -12 -525 -29 -33 -8 -100 -28 -150 -45 -49 -16 -139 -39 -200 -50 -311
-59 -392 -77 -525 -121 -241 -79 -496 -204 -554 -271 -19 -22 -56 -82 -83
-133 -49 -93 -49 -93 -1 -65 26 16 70 42 98 59 130 77 475 239 590 277 225 75
330 89 730 98 420 11 584 -11 766 -100 115 -56 180 -115 243 -218 28 -45 102
-145 166 -222 73 -88 127 -164 146 -205 17 -36 36 -76 42 -90 27 -54 139 -106
177 -81 12 8 12 14 0 38 -65 130 -311 518 -375 591 -30 35 -55 67 -55 71 0 5
7 14 15 21 23 19 101 7 182 -28 42 -19 88 -32 113 -32 52 0 90 -19 123 -64 15
-19 68 -79 118 -133 124 -133 177 -210 268 -393 43 -85 114 -213 158 -285 44
-71 112 -191 153 -265 40 -74 85 -149 100 -166 27 -31 27 -31 23 70 -3 56 -10
138 -18 184 -13 81 -16 87 -136 270 -137 210 -158 251 -159 305 0 30 4 37 20
37 23 0 180 -187 304 -365 47 -66 98 -133 114 -149 30 -28 30 -28 22 10 -5 22
-16 78 -24 126 -27 148 -46 185 -144 285 -97 97 -165 140 -238 150 -44 5 -59
15 -149 97 -130 119 -198 174 -290 232 -79 50 -95 79 -51 90 61 15 165 -35
421 -204 105 -68 215 -141 245 -161 30 -20 112 -91 182 -158 118 -114 158
-144 145 -109 -3 7 -15 47 -27 87 -37 123 -72 190 -123 236 -110 96 -383 274
-542 353 -124 61 -198 84 -346 109 -281 47 -524 116 -562 160 -25 28 -29 57
-10 76 14 15 29 17 95 11 145 -12 510 -101 705 -172 227 -82 509 -248 743
-438 41 -34 89 -69 107 -79 32 -18 32 -18 10 34 -12 29 -44 98 -72 153 -50
101 -50 101 -179 188 -132 88 -384 223 -511 273 -177 70 -546 196 -611 210
-79 16 -164 18 -231 5z"/>
<path d="M3865 4910 c-183 -42 -401 -138 -540 -238 -76 -55 -80 -60 -77 -93 2
-18 -2 -61 -9 -94 -11 -51 -21 -69 -65 -115 -54 -57 -94 -127 -125 -219 -11
-29 -24 -60 -31 -68 -21 -25 60 18 162 85 52 35 140 86 195 112 55 27 170 87
255 135 243 135 519 261 547 251 42 -17 -17 -74 -157 -153 -58 -33 -181 -105
-275 -160 -93 -55 -220 -129 -282 -164 -162 -93 -238 -151 -264 -200 -11 -23
-31 -84 -44 -135 -13 -51 -26 -98 -30 -105 -11 -17 76 44 100 71 64 72 219
182 438 312 81 48 194 123 250 166 108 84 353 243 400 261 42 16 82 13 101 -8
21 -23 13 -45 -22 -60 -68 -31 -338 -200 -373 -233 -48 -47 -54 -88 -13 -88
31 0 190 66 284 117 103 57 156 99 191 155 23 36 45 56 75 69 98 44 306 32
480 -26 102 -34 183 -73 429 -205 102 -55 139 -70 173 -70 34 0 42 3 42 19 0
29 -33 64 -189 203 -164 146 -259 220 -344 272 -132 78 -316 123 -602 146
-139 11 -187 20 -320 59 -90 27 -246 27 -360 1z m300 -124 c47 -31 29 -50 -55
-57 -171 -15 -358 -88 -625 -246 -120 -72 -185 -91 -185 -55 0 27 92 118 171
171 128 84 324 166 469 197 83 17 191 12 225 -10z"/>
<path d="M5771 4721 c-16 -29 3 -79 79 -199 125 -199 154 -276 132 -341 -10
-28 -7 -36 34 -93 215 -305 294 -444 419 -741 36 -87 79 -176 95 -198 28 -39
28 -39 35 97 11 208 6 239 -60 366 -31 60 -99 181 -151 271 -52 89 -135 243
-186 342 -50 99 -107 205 -128 235 -73 107 -192 250 -220 265 -36 19 -37 19
-49 -4z"/>
<path d="M3140 4613 c-30 -11 -73 -60 -113 -128 -22 -38 -47 -76 -56 -82 -25
-21 16 -16 66 8 50 24 185 165 181 188 -3 17 -50 25 -78 14z"/>
<path d="M4640 4306 c-25 -7 -115 -43 -201 -79 -266 -113 -337 -131 -454 -112
-50 7 -55 5 -195 -67 -242 -123 -442 -264 -480 -337 -10 -22 -29 -76 -41 -122
-12 -46 -26 -92 -31 -102 -12 -24 56 27 164 121 178 156 417 290 603 337 301
75 558 136 615 145 93 14 210 12 325 -6 55 -8 159 -19 231 -24 150 -10 226
-31 390 -109 125 -60 205 -113 294 -197 122 -115 204 -243 198 -307 -6 -61
-31 -47 -160 88 -67 70 -156 153 -198 185 -185 141 -438 253 -499 221 -52 -28
-11 -80 122 -157 138 -79 267 -168 362 -249 172 -145 231 -190 289 -220 88
-44 168 -163 247 -365 18 -47 43 -100 56 -118 22 -33 22 -33 27 -10 29 135 35
173 41 238 6 66 4 83 -18 140 -14 36 -53 137 -86 225 -34 88 -78 189 -97 225
-110 200 -271 349 -454 419 -349 133 -560 205 -675 231 -104 23 -302 26 -375
6z"/>
<path d="M4463 3915 c-410 -64 -676 -166 -930 -358 -90 -68 -110 -97 -142
-202 -12 -38 -24 -78 -27 -88 -5 -17 -3 -17 36 3 23 12 74 47 113 79 293 237
582 356 957 393 263 25 442 -24 726 -203 406 -255 647 -522 747 -827 20 -59
44 -123 54 -143 19 -36 19 -36 30 5 6 23 20 77 32 120 34 126 29 179 -23 280
-60 116 -126 197 -269 324 -179 159 -266 227 -443 345 -88 58 -188 129 -224
158 -81 65 -146 95 -245 114 -92 18 -278 18 -392 0z"/>
<path d="M4370 3594 c-224 -41 -345 -79 -480 -150 -98 -52 -231 -139 -277
-182 -36 -34 -63 -111 -63 -181 0 -26 -4 -61 -9 -79 -10 -32 -10 -32 20 -10
16 13 65 57 109 99 230 219 523 339 830 339 124 0 202 -13 330 -56 309 -103
618 -371 772 -669 52 -102 83 -195 74 -229 -3 -13 -17 -31 -32 -41 -24 -16
-27 -16 -46 2 -11 10 -31 41 -44 68 -35 74 -151 254 -219 341 -176 225 -439
387 -699 433 -153 28 -376 2 -532 -59 -154 -61 -315 -181 -334 -248 -14 -53
-12 -120 7 -207 16 -75 16 -75 56 15 32 74 50 100 101 148 147 137 337 200
572 190 127 -6 236 -34 339 -86 193 -97 374 -291 453 -485 19 -47 27 -90 32
-179 5 -64 11 -122 15 -128 4 -6 19 7 37 34 16 25 43 60 59 77 26 28 34 31 70
26 22 -3 63 -16 90 -30 37 -18 49 -21 49 -10 0 8 22 38 50 67 60 64 91 130 97
211 5 52 1 71 -26 137 -139 334 -597 718 -978 819 -60 16 -115 22 -238 24 -88
2 -171 1 -185 -1z"/>
<path d="M4358 2980 c-176 -21 -345 -109 -400 -206 -16 -30 -36 -54 -43 -54
-7 0 -15 -7 -19 -15 -6 -16 29 -45 55 -45 9 0 66 25 128 55 165 81 234 100
361 99 82 0 119 -5 170 -23 178 -62 328 -222 359 -384 5 -29 13 -91 16 -139 7
-86 7 -86 60 -29 124 136 134 190 60 339 -41 82 -62 111 -139 187 -69 69 -111
101 -172 132 -138 72 -291 101 -436 83z"/>
<path d="M4325 2666 c-62 -15 -90 -30 -109 -58 -21 -30 -20 -99 2 -173 15 -50
20 -56 26 -38 4 12 30 39 58 60 45 33 60 38 118 41 77 5 123 -14 178 -71 35
-36 82 -148 82 -194 0 -25 1 -24 29 15 16 22 35 43 40 47 20 12 51 84 51 118
0 19 -12 51 -29 78 -97 149 -271 218 -446 175z"/>
</g>
</svg>
