<?xml version="1.0" standalone="no"?>
<!DOCTYPE svg PUBLIC "-//W3C//DTD SVG 20010904//EN"
 "http://www.w3.org/TR/2001/REC-SVG-20010904/DTD/svg10.dtd">
<svg version="1.0" xmlns="http://www.w3.org/2000/svg"
 width="1000.000000pt" height="1000.000000pt" viewBox="0 0 1000.000000 1000.000000"
 preserveAspectRatio="xMidYMid meet">
<metadata>
  <rdf:RDF
    xmlns:rdf = "http://www.w3.org/1999/02/22-rdf-syntax-ns#"
    xmlns:rdfs = "http://www.w3.org/2000/01/rdf-schema#"
    xmlns:dc = "http://purl.org/dc/elements/1.1/"
    xmlns:cc = "http://creativecommons.org/ns#">
    <cc:license rdf:resource="http://creativecommons.org/publicdomain/zero/1.0/deed.en"/>
    <cc:permits rdf:resource="http://creativecommons.org/ns#Reproduction"/>
    <rdf:Description about="https://nft.mir.one/fingerprints"
      dc:title="TON Fingerprints"
      dc:description="This is a unique digital fingerprint created based on the algorithm for generating basic rings using a noise texture. Like human fingerprints, you can now use it for the Web3 and Metaverse era as digital biometric information."
      dc:publisher="https://nft.mir.one"
      dc:date="2022-02-22"
      dc:format="image/svg+xml"
      dc:language="en" >
      <dc:creator>
      <rdf:Bag>
        <rdf:li>EQBondcvD2_aOFADXSWJHs4ZazQDuEl9_wNvGGPxI8hGuOFU</rdf:li>
        <rdf:li>ipfs://bafkreihj7iub3fhmhq6jn62noukt5wxn3gv6bvcg7wmt6ywvlurefezckq</rdf:li>
      </rdf:Bag>
      </dc:creator>
    </rdf:Description>
  </rdf:RDF>
</metadata>
<g transform="translate(0.000000,1000.000000) scale(0.100000,-0.100000)"
fill="#1b1f23" stroke="none">
<path d="M4836 7688 c-20 -28 -20 -48 -2 -48 19 0 46 38 39 56 -7 20 -20 17
-37 -8z"/>
<path d="M5079 7625 c-31 -8 -82 -26 -115 -41 -40 -18 -81 -28 -127 -30 -85
-5 -106 -16 -187 -99 -82 -85 -153 -131 -366 -238 -293 -148 -379 -212 -523
-390 -154 -190 -220 -285 -278 -402 -31 -60 -95 -183 -144 -271 -200 -363
-268 -603 -288 -1025 -20 -397 28 -647 180 -951 113 -225 215 -358 275 -358
25 0 26 2 20 33 -4 17 -43 108 -87 200 -128 268 -211 491 -254 682 -26 113
-31 402 -10 565 32 253 93 445 220 695 168 330 299 526 478 712 194 202 304
266 672 389 213 71 238 77 332 82 56 2 144 -1 195 -7 51 -6 199 -20 328 -32
300 -25 426 -43 564 -79 169 -43 199 -59 219 -112 20 -53 44 -73 222 -190 72
-47 177 -124 236 -170 58 -46 111 -88 119 -93 35 -21 -94 131 -199 235 -124
123 -218 196 -306 236 -30 14 -55 29 -55 34 0 18 45 40 80 40 19 -1 67 -7 105
-14 39 -8 71 -13 72 -12 11 10 -358 181 -484 224 -137 47 -440 96 -668 107
-165 8 -235 20 -259 44 -79 80 221 138 496 96 54 -8 164 -31 245 -50 118 -29
331 -67 340 -61 5 3 -441 189 -507 211 -41 14 -113 32 -159 40 -103 18 -307
18 -382 0z"/>
<path d="M4350 7547 c-143 -55 -317 -159 -532 -319 -58 -43 -129 -91 -158
-107 -51 -28 -51 -28 -7 -41 25 -6 54 -9 64 -6 11 4 107 58 214 122 107 63
277 157 379 209 102 51 195 103 208 115 67 63 -33 79 -168 27z"/>
<path d="M3575 6908 c-48 -51 -125 -144 -172 -206 -47 -62 -97 -119 -111 -127
-21 -11 -23 -14 -9 -15 25 0 47 -24 47 -51 0 -12 -32 -83 -71 -158 -97 -186
-173 -354 -215 -474 -38 -109 -94 -328 -93 -362 0 -11 11 21 24 71 13 50 35
119 48 155 31 81 151 323 227 454 92 160 130 241 147 316 19 85 58 147 178
279 48 52 93 108 101 123 17 31 15 78 -2 84 -6 2 -51 -38 -99 -89z"/>
<path d="M4883 6956 c-163 -31 -318 -100 -341 -152 -57 -125 -68 -139 -213
-267 -79 -71 -196 -170 -259 -221 -146 -118 -212 -188 -290 -307 -124 -188
-218 -417 -266 -643 -31 -147 -44 -431 -25 -539 14 -79 10 -91 -24 -75 -70 32
-101 223 -74 466 39 364 193 732 426 1020 91 112 295 301 458 424 135 103 195
156 195 175 0 26 -48 46 -96 39 -202 -27 -553 -356 -782 -731 -76 -125 -181
-342 -222 -460 -97 -278 -134 -597 -95 -818 17 -96 139 -466 235 -711 75 -194
89 -250 72 -309 -11 -39 -9 -46 19 -104 80 -158 291 -363 451 -438 61 -28 77
-30 102 -12 31 23 11 54 -123 192 -213 220 -240 267 -369 650 -83 247 -136
441 -148 544 -6 54 -5 60 16 71 36 19 50 73 61 228 24 369 69 547 206 814 102
200 232 358 294 358 18 0 29 -5 29 -14 0 -7 -45 -82 -101 -167 -206 -317 -294
-551 -318 -855 -28 -343 -34 -449 -28 -521 13 -166 128 -533 224 -713 56 -104
106 -176 222 -317 53 -63 107 -141 131 -188 45 -91 88 -131 206 -189 164 -82
292 -106 557 -106 226 0 360 17 504 65 174 58 276 118 473 274 120 96 177 124
205 101 24 -20 19 -33 -47 -122 -159 -215 -345 -355 -583 -441 -130 -46 -155
-48 -515 -38 -458 14 -551 31 -750 142 -58 32 -156 79 -218 104 -130 52 -216
100 -330 184 -130 97 -222 190 -276 281 -26 45 -84 125 -129 178 -113 137
-175 236 -299 480 -59 118 -108 211 -108 207 0 -4 27 -89 60 -188 71 -211 161
-402 254 -537 109 -158 121 -190 70 -190 -28 0 -67 18 -134 62 -36 24 -27 13
42 -53 210 -203 358 -335 428 -381 64 -42 235 -130 458 -235 29 -14 60 -36 68
-49 82 -124 -280 -23 -588 164 -35 21 -94 53 -133 70 -70 32 -70 32 -10 -23
201 -185 333 -282 484 -353 96 -46 96 -46 501 -46 258 -1 469 4 582 13 197 16
232 11 226 -32 -8 -56 -216 -114 -518 -143 -203 -20 -689 -13 -790 12 -41 10
-20 -2 75 -41 239 -99 379 -133 585 -142 297 -13 544 46 756 180 55 34 178 97
274 140 250 113 317 154 435 272 160 160 235 312 235 477 0 91 0 91 71 247 85
188 125 260 179 326 23 27 50 65 60 85 51 101 72 389 37 520 -10 36 -48 155
-84 264 -64 194 -65 200 -57 265 14 107 7 209 -21 316 -44 173 -99 270 -245
435 -90 101 -110 128 -110 152 0 48 96 -7 214 -121 175 -170 270 -363 312
-631 62 -405 82 -495 127 -561 30 -44 60 -49 84 -13 33 52 18 315 -32 570 -55
275 -157 492 -297 635 -114 116 -236 196 -364 239 -48 17 -131 54 -183 84
-216 122 -363 184 -526 222 -63 15 -117 19 -250 18 -154 0 -178 -3 -256 -27
-125 -38 -190 -69 -304 -144 -160 -107 -258 -214 -395 -432 -247 -394 -269
-435 -311 -590 -29 -106 -36 -274 -16 -388 9 -48 23 -164 32 -258 20 -228 32
-305 62 -400 53 -169 159 -339 351 -565 146 -172 243 -244 397 -295 100 -34
216 -39 258 -12 57 37 26 71 -104 116 -207 72 -304 137 -366 249 -23 41 -76
107 -138 172 -56 58 -120 130 -142 160 -83 111 -143 248 -143 326 0 36 29 78
46 66 6 -4 27 -41 47 -83 74 -155 215 -313 337 -378 70 -38 352 -104 523 -123
172 -19 322 7 492 87 85 40 411 261 465 315 70 70 178 213 201 266 40 89 22
252 -29 272 -28 10 -59 -43 -81 -138 -28 -118 -39 -142 -65 -138 -41 6 -56 61
-56 203 0 149 -13 211 -64 312 -123 245 -391 493 -626 578 -91 33 -238 45
-321 25 -264 -63 -447 -310 -466 -630 -9 -147 28 -262 116 -361 191 -217 551
-192 623 43 14 47 -3 112 -32 128 -16 9 -23 6 -37 -12 -89 -114 -165 -156
-267 -145 -177 18 -297 198 -265 398 37 229 205 390 424 406 297 22 637 -278
710 -625 17 -78 19 -256 5 -333 -22 -114 -93 -215 -219 -311 -209 -158 -474
-203 -764 -129 -185 48 -267 99 -437 272 -76 77 -139 133 -162 142 -44 18 -64
53 -84 145 -23 110 -18 181 20 306 148 478 166 602 72 502 -45 -47 -90 -159
-127 -313 -34 -148 -47 -183 -64 -183 -17 0 -35 45 -35 89 0 59 28 194 57 274
34 97 75 167 143 246 31 36 92 116 136 176 137 191 289 332 439 408 28 13 88
37 135 53 78 26 97 28 235 28 124 0 160 -3 204 -19 49 -18 56 -24 68 -61 18
-54 55 -90 193 -187 111 -79 267 -226 487 -459 66 -69 91 -89 125 -98 24 -7
50 -15 58 -19 18 -9 110 -187 110 -213 0 -23 -22 -32 -56 -24 -31 8 -188 151
-394 361 -183 185 -270 259 -421 361 -233 156 -352 193 -520 162 -164 -30
-276 -90 -412 -218 -149 -141 -216 -251 -217 -354 0 -35 -18 -136 -45 -247
-25 -102 -50 -230 -57 -283 -22 -173 12 -282 134 -425 250 -295 623 -390 936
-240 288 139 383 458 225 762 -54 105 -167 215 -269 264 -75 36 -84 38 -179
38 -87 0 -107 -3 -155 -26 -112 -53 -181 -153 -188 -272 -5 -84 15 -144 63
-185 74 -65 149 -66 258 -1 58 35 67 44 67 69 0 37 -44 87 -86 99 -48 14 -92
-9 -96 -51 -4 -41 -28 -48 -59 -17 -18 18 -21 29 -16 72 4 43 10 56 45 88 130
122 340 41 440 -169 35 -72 37 -83 37 -172 0 -82 -4 -103 -27 -152 -71 -151
-218 -238 -405 -238 -47 0 -113 7 -147 16 -200 52 -382 232 -426 423 -20 87
-7 273 29 406 64 238 106 320 224 431 85 80 178 133 282 159 76 19 210 19 289
0 88 -23 248 -106 352 -183 176 -131 408 -386 560 -614 60 -90 98 -137 129
-158 32 -22 53 -48 77 -97 30 -62 33 -77 37 -180 4 -134 -11 -212 -75 -388
-23 -66 -54 -156 -68 -200 -31 -96 -89 -203 -146 -267 -82 -93 -318 -255 -485
-334 -112 -52 -174 -71 -406 -125 -161 -37 -199 -43 -304 -43 -143 0 -233 22
-359 86 -99 51 -233 181 -374 363 -200 257 -312 507 -357 797 -25 161 -32 605
-11 733 31 186 95 343 236 575 103 169 122 207 150 300 22 74 24 77 149 200
143 143 310 273 417 325 128 62 223 80 424 80 217 0 287 -15 393 -84 40 -26
140 -83 222 -126 524 -274 746 -405 832 -491 181 -179 319 -537 353 -914 18
-196 -5 -322 -74 -413 -14 -18 -30 -55 -35 -83 -16 -80 -34 -329 -34 -471 0
-127 6 -164 43 -268 4 -11 9 17 13 70 4 50 32 250 63 445 30 195 60 387 66
425 16 108 4 426 -22 575 -48 273 -117 480 -233 699 -33 63 -70 143 -82 177
-58 166 -149 258 -467 471 -292 196 -309 202 -593 214 -405 18 -695 19 -772 5z
m988 -182 c161 -48 541 -286 692 -434 78 -76 89 -96 62 -106 -28 -11 -65 6
-187 90 -177 120 -347 218 -553 321 -178 89 -209 113 -173 136 21 14 100 10
159 -7z m-230 -490 c76 -23 195 -86 265 -142 32 -26 97 -98 144 -159 47 -62
116 -152 153 -200 93 -121 129 -196 125 -259 -4 -66 -27 -71 -58 -12 -52 102
-251 348 -381 474 -105 101 -255 195 -359 225 -77 22 -91 47 -42 73 36 20 86
20 153 0z"/>
<path d="M6770 6476 c0 -2 8 -10 18 -17 15 -13 16 -12 3 4 -13 16 -21 21 -21
13z"/>
<path d="M2942 5465 c0 -16 2 -22 5 -12 2 9 2 23 0 30 -3 6 -5 -1 -5 -18z"/>
<path d="M2932 5390 c0 -19 2 -27 5 -17 2 9 2 25 0 35 -3 9 -5 1 -5 -18z"/>
<path d="M2923 5305 c0 -22 2 -30 4 -17 2 12 2 30 0 40 -3 9 -5 -1 -4 -23z"/>
<path d="M2913 5120 c0 -47 2 -66 4 -42 2 23 2 61 0 85 -2 23 -4 4 -4 -43z"/>
<path d="M5991 4079 c-19 -12 -70 -48 -113 -81 -262 -199 -505 -276 -743 -235
-49 9 -162 37 -249 62 -171 48 -216 54 -236 30 -35 -42 51 -109 236 -184 65
-27 161 -70 213 -95 87 -42 100 -46 170 -46 123 0 237 30 390 101 232 108 441
303 444 415 2 57 -49 72 -112 33z"/>
<path d="M6657 3969 c-36 -21 -87 -163 -202 -563 -112 -390 -151 -473 -280
-594 -95 -89 -202 -149 -400 -227 -66 -26 -190 -79 -275 -117 -203 -92 -310
-133 -439 -168 -180 -49 -332 -101 -281 -95 25 3 90 10 145 16 129 13 321 52
427 85 207 65 580 234 712 323 97 66 224 186 281 266 116 164 353 728 386 918
20 122 -12 192 -74 156z"/>
</g>
</svg>
