<?xml version="1.0" standalone="no"?>
<!DOCTYPE svg PUBLIC "-//W3C//DTD SVG 20010904//EN"
 "http://www.w3.org/TR/2001/REC-SVG-20010904/DTD/svg10.dtd">
<svg version="1.0" xmlns="http://www.w3.org/2000/svg"
 width="1000.000000pt" height="1000.000000pt" viewBox="0 0 1000.000000 1000.000000"
 preserveAspectRatio="xMidYMid meet">
<metadata>
  <rdf:RDF
    xmlns:rdf = "http://www.w3.org/1999/02/22-rdf-syntax-ns#"
    xmlns:rdfs = "http://www.w3.org/2000/01/rdf-schema#"
    xmlns:dc = "http://purl.org/dc/elements/1.1/"
    xmlns:cc = "http://creativecommons.org/ns#">
    <cc:license rdf:resource="http://creativecommons.org/publicdomain/zero/1.0/deed.en"/>
    <cc:permits rdf:resource="http://creativecommons.org/ns#Reproduction"/>
    <rdf:Description about="https://nft.mir.one/fingerprints"
      dc:title="TON Fingerprints"
      dc:description="This is a unique digital fingerprint created based on the algorithm for generating basic rings using a noise texture. Like human fingerprints, you can now use it for the Web3 and Metaverse era as digital biometric information."
      dc:publisher="https://nft.mir.one"
      dc:date="2022-02-22"
      dc:format="image/svg+xml"
      dc:language="en" >
      <dc:creator>
      <rdf:Bag>
        <rdf:li>EQBondcvD2_aOFADXSWJHs4ZazQDuEl9_wNvGGPxI8hGuOFU</rdf:li>
        <rdf:li>ipfs://bafkreihj7iub3fhmhq6jn62noukt5wxn3gv6bvcg7wmt6ywvlurefezckq</rdf:li>
      </rdf:Bag>
      </dc:creator>
    </rdf:Description>
  </rdf:RDF>
</metadata>
<g transform="translate(0.000000,1000.000000) scale(0.100000,-0.100000)"
fill="#1b1f23" stroke="none">
<path d="M4595 7750 c-15 -6 -5 -9 35 -9 30 -1 87 -6 125 -12 39 -5 124 -16
190 -24 180 -21 378 -60 595 -116 107 -28 240 -61 295 -74 55 -13 113 -28 129
-34 16 -7 30 -10 33 -8 4 5 -175 82 -302 130 -179 68 -379 117 -576 142 -133
16 -490 20 -524 5z"/>
<path d="M4572 7579 c-152 -13 -328 -52 -492 -109 -145 -50 -145 -50 -45 -45
55 3 134 9 175 14 41 6 161 10 265 11 287 0 471 -27 840 -125 254 -68 472
-121 544 -135 85 -15 159 -50 309 -144 126 -79 200 -113 227 -102 19 7 19 36
0 36 -8 0 -74 48 -145 106 -72 58 -160 125 -195 150 -131 92 -310 160 -624
238 -392 98 -620 126 -859 105z"/>
<path d="M4187 7319 c-139 -20 -319 -92 -507 -203 -115 -67 -115 -67 -65 -60
28 3 106 22 174 40 340 93 660 116 926 69 165 -29 505 -156 614 -229 31 -21
56 -50 78 -91 43 -78 122 -153 373 -355 354 -285 476 -422 780 -880 172 -261
230 -368 279 -520 78 -241 101 -421 102 -818 1 -307 1 -307 20 -192 67 414 66
811 -5 1141 -37 175 -57 218 -140 307 -40 43 -128 160 -196 262 -273 405 -394
528 -915 930 -88 67 -177 134 -197 148 -40 26 -46 40 -26 60 18 18 58 14 115
-13 62 -28 480 -340 635 -473 188 -162 354 -367 519 -640 128 -212 179 -263
179 -180 0 92 -148 421 -252 559 -77 104 -257 291 -358 373 -42 33 -163 122
-270 196 -110 76 -232 170 -280 216 -101 97 -129 112 -291 158 -68 19 -198 57
-289 84 -315 95 -484 122 -755 121 -104 -1 -216 -5 -248 -10z"/>
<path d="M6260 7246 c0 -2 8 -10 18 -17 15 -13 16 -12 3 4 -13 16 -21 21 -21
13z"/>
<path d="M5815 7079 c-4 -5 -4 -21 -1 -34 7 -26 42 -51 354 -248 228 -145 282
-186 408 -312 82 -81 265 -300 357 -425 27 -38 -99 203 -161 305 -96 160 -222
315 -331 408 -31 27 -95 68 -142 92 -48 24 -129 70 -180 101 -176 107 -284
147 -304 113z"/>
<path d="M4160 7056 c-408 -63 -563 -142 -825 -422 -119 -128 -124 -128 75 -4
285 178 556 269 890 300 252 23 520 -23 520 -91 0 -10 -5 -21 -10 -24 -6 -4
-86 -1 -178 6 -402 29 -787 -64 -1107 -268 -130 -83 -242 -210 -399 -450 -47
-73 -83 -133 -80 -133 12 0 85 60 174 144 190 180 406 338 574 420 225 111
419 152 781 167 132 6 268 12 302 15 72 7 127 -8 243 -66 93 -47 193 -120 420
-308 96 -80 218 -173 270 -207 107 -69 138 -101 182 -189 17 -34 74 -124 128
-201 262 -376 379 -607 464 -918 76 -276 83 -448 31 -797 -46 -319 -97 -800
-93 -894 3 -77 3 -77 76 136 165 486 239 963 203 1309 -47 449 -206 795 -621
1354 -136 184 -175 223 -408 412 -114 92 -274 226 -357 297 -182 157 -238 194
-447 296 -225 110 -274 122 -523 126 -131 2 -230 -2 -285 -10z"/>
<path d="M4310 6575 c-256 -35 -452 -115 -655 -269 -137 -103 -377 -299 -424
-346 -90 -90 -206 -280 -275 -450 -32 -78 -32 -83 -3 -43 57 78 193 225 278
300 121 105 202 166 344 258 90 60 126 90 171 146 158 198 473 300 879 286
189 -7 313 -34 427 -94 76 -39 170 -126 506 -463 389 -392 493 -547 647 -970
37 -102 83 -216 102 -254 51 -102 74 -202 76 -331 1 -80 -2 -118 -13 -139 -38
-74 -64 -29 -90 150 -21 152 -31 194 -55 230 -23 35 -59 32 -75 -7 -18 -42 -6
-255 21 -379 38 -179 41 -205 35 -285 -12 -153 -70 -421 -111 -520 -10 -21
-48 -71 -85 -110 -39 -40 -97 -117 -135 -180 -210 -345 -435 -545 -860 -766
-128 -66 -255 -139 -243 -139 26 0 322 75 389 98 245 85 441 192 572 312 105
96 213 264 308 481 61 140 71 151 102 120 65 -65 -13 -317 -180 -583 -26 -42
-60 -98 -75 -125 -15 -26 -35 -59 -45 -73 -30 -44 146 132 225 225 185 219
272 405 286 610 9 116 59 528 82 660 8 50 28 132 45 183 37 117 50 238 38 362
-27 285 -209 751 -411 1052 -117 175 -168 230 -279 303 -75 48 -106 85 -142
165 -28 62 -117 154 -310 319 -202 171 -323 239 -476 267 -98 17 -462 17 -591
-1z"/>
<path d="M4280 6335 c-127 -24 -237 -65 -343 -129 -114 -69 -146 -106 -113
-132 40 -29 182 -15 196 20 30 79 208 128 465 129 168 0 251 -12 451 -63 153
-39 188 -41 199 -12 17 46 -114 125 -280 169 -88 23 -123 26 -300 29 -142 2
-222 -1 -275 -11z"/>
<path d="M4220 6109 c-97 -12 -190 -39 -190 -55 0 -7 12 -21 27 -31 22 -15 63
-19 267 -25 271 -8 397 -25 604 -83 224 -63 367 -149 528 -317 245 -255 398
-566 419 -853 9 -123 -20 -586 -44 -700 -20 -98 -66 -221 -111 -301 -46 -79
-102 -137 -229 -235 -64 -49 -170 -132 -236 -185 -202 -160 -313 -230 -639
-405 -66 -35 -161 -92 -210 -126 -50 -34 -142 -95 -205 -135 -63 -40 -131 -88
-150 -108 -36 -35 -36 -35 74 -33 203 4 213 8 497 165 420 234 558 328 813
558 148 134 184 160 220 160 61 0 33 -72 -85 -212 -131 -157 -341 -332 -554
-463 -103 -63 -343 -193 -521 -283 -55 -27 -112 -63 -128 -79 -28 -30 -28 -30
20 -22 27 5 104 15 173 24 231 27 337 67 568 209 329 204 595 481 685 714 14
37 55 141 90 232 117 298 127 354 127 719 0 214 4 291 16 341 37 155 27 263
-38 450 -33 92 -111 255 -161 335 -113 180 -349 437 -514 558 -75 55 -146 84
-252 102 -52 9 -142 27 -200 41 -58 14 -151 32 -206 39 -107 16 -348 18 -455
4z"/>
<path d="M5770 6005 c0 -37 73 -107 108 -103 39 4 32 44 -18 91 -48 45 -90 51
-90 12z"/>
<path d="M3725 5916 c-137 -33 -326 -155 -475 -305 -116 -117 -147 -166 -183
-291 -62 -214 -61 -474 2 -757 12 -51 21 -107 21 -124 0 -26 -3 -30 -22 -27
-16 2 -40 28 -76 83 -62 92 -60 73 9 -76 27 -58 49 -114 49 -123 0 -33 33 -88
88 -147 63 -68 102 -84 250 -99 95 -10 138 -26 219 -82 73 -49 249 -130 298
-136 37 -4 50 -1 68 15 12 12 36 27 52 36 89 45 79 89 -34 151 -185 102 -267
239 -287 476 -5 62 -3 85 15 135 12 33 37 123 56 200 57 240 105 341 219 463
124 132 237 182 415 182 411 0 742 -302 792 -721 35 -297 -101 -611 -338 -787
-185 -136 -353 -182 -664 -182 -75 0 -157 -3 -183 -6 -41 -6 -46 -9 -46 -32 0
-30 74 -106 142 -146 151 -88 419 -70 653 44 340 166 547 437 609 800 87 507
-188 975 -664 1129 -143 46 -347 64 -481 42 -130 -22 -137 -26 -242 -134 -54
-56 -118 -127 -141 -159 -94 -123 -161 -304 -191 -510 -20 -140 -23 -148 -52
-130 -21 14 -33 62 -33 138 0 136 41 285 129 464 45 93 101 160 224 268 20 19
37 39 37 47 0 71 -196 23 -297 -74 -32 -31 -41 -49 -50 -98 -6 -33 -31 -107
-56 -164 -60 -138 -84 -221 -98 -331 -13 -107 -8 -159 31 -328 68 -296 59
-477 -23 -457 -33 9 -44 42 -57 187 -6 63 -19 174 -30 245 -29 201 -33 264
-20 371 15 132 60 264 130 382 68 116 77 140 56 148 -58 22 -166 -81 -231
-219 -58 -125 -75 -199 -82 -352 -4 -104 0 -172 21 -340 42 -333 43 -345 19
-345 -11 0 -32 9 -47 21 -45 35 -56 69 -56 171 0 51 -9 145 -19 208 -29 173
-35 282 -21 394 34 284 155 468 397 605 62 35 152 77 200 94 88 30 88 30 378
28 390 -3 517 -17 694 -77 322 -111 563 -354 684 -691 46 -127 60 -230 54
-403 -9 -274 -84 -524 -208 -691 -72 -97 -232 -247 -346 -322 -281 -188 -541
-256 -805 -213 -276 45 -452 -16 -255 -88 56 -21 77 -40 77 -68 0 -19 -4 -20
-49 -15 -57 7 -116 34 -164 76 -21 19 -69 41 -132 61 -55 17 -150 49 -211 71
-61 21 -128 39 -148 39 -37 0 -37 0 25 -52 145 -123 218 -179 284 -217 128
-73 298 -100 416 -65 69 21 147 13 236 -22 82 -33 127 -29 274 22 288 98 610
301 857 538 141 135 222 263 289 456 26 74 31 107 39 250 19 352 6 499 -60
686 -68 189 -178 355 -332 504 -148 143 -280 219 -482 279 -155 46 -261 61
-537 76 -137 8 -279 19 -315 25 -86 13 -203 11 -265 -4z m1905 -1675 c0 -12
-20 -25 -27 -18 -7 7 6 27 18 27 5 0 9 -4 9 -9z"/>
<path d="M4342 5369 c-165 -20 -313 -142 -397 -324 -57 -124 -91 -311 -83
-454 12 -192 97 -331 296 -485 80 -61 121 -77 212 -83 99 -6 202 16 309 67 69
33 100 57 171 128 140 142 201 288 202 487 1 188 -62 345 -192 476 -144 145
-326 211 -518 188z m200 -160 c158 -53 269 -175 313 -345 56 -214 -51 -457
-240 -550 -54 -26 -70 -29 -160 -29 -120 0 -158 16 -246 105 -124 124 -180
249 -180 405 0 218 120 387 306 428 54 12 150 6 207 -14z"/>
<path d="M4350 5109 c-56 -11 -116 -52 -154 -107 -58 -82 -44 -227 26 -276 50
-35 141 -7 173 53 33 64 4 126 -53 115 -22 -4 -31 -2 -36 11 -14 37 29 75 84
75 119 0 192 -156 131 -280 -7 -14 -48 -59 -92 -100 -73 -68 -80 -78 -74 -103
4 -15 16 -32 28 -38 29 -16 106 -14 149 4 55 23 124 92 155 156 25 49 28 68
28 151 0 78 -4 104 -23 144 -36 79 -86 132 -155 165 -71 34 -123 42 -187 30z"/>
<path d="M6932 3930 c0 -14 2 -19 5 -12 2 6 2 18 0 25 -3 6 -5 1 -5 -13z"/>
<path d="M3126 3852 c80 -96 213 -230 251 -253 41 -26 242 -94 320 -109 32 -6
107 -10 167 -8 97 3 110 5 122 24 13 18 12 24 -5 46 -11 13 -48 40 -83 58 -96
52 -737 300 -786 305 -42 4 -42 4 14 -63z"/>
<path d="M3615 2951 c50 -27 139 -68 199 -90 60 -23 124 -50 143 -62 45 -28
107 -22 186 16 57 28 127 93 127 118 -1 34 -19 42 -92 41 -40 -1 -136 -3 -213
-4 -93 -2 -173 3 -237 14 -54 9 -121 16 -150 16 -53 0 -53 0 37 -49z"/>
<path d="M3820 2715 c-45 -14 -45 -14 24 -12 45 1 71 6 74 15 5 16 -38 14 -98
-3z"/>
</g>
</svg>
