<?xml version="1.0" standalone="no"?>
<!DOCTYPE svg PUBLIC "-//W3C//DTD SVG 20010904//EN"
 "http://www.w3.org/TR/2001/REC-SVG-20010904/DTD/svg10.dtd">
<svg version="1.0" xmlns="http://www.w3.org/2000/svg"
 width="1000.000000pt" height="1000.000000pt" viewBox="0 0 1000.000000 1000.000000"
 preserveAspectRatio="xMidYMid meet">
<metadata>
  <rdf:RDF
    xmlns:rdf = "http://www.w3.org/1999/02/22-rdf-syntax-ns#"
    xmlns:rdfs = "http://www.w3.org/2000/01/rdf-schema#"
    xmlns:dc = "http://purl.org/dc/elements/1.1/"
    xmlns:cc = "http://creativecommons.org/ns#">
    <cc:license rdf:resource="http://creativecommons.org/publicdomain/zero/1.0/deed.en"/>
    <cc:permits rdf:resource="http://creativecommons.org/ns#Reproduction"/>
    <rdf:Description about="https://nft.mir.one/fingerprints"
      dc:title="TON Fingerprints"
      dc:description="This is a unique digital fingerprint created based on the algorithm for generating basic rings using a noise texture. Like human fingerprints, you can now use it for the Web3 and Metaverse era as digital biometric information."
      dc:publisher="https://nft.mir.one"
      dc:date="2022-02-22"
      dc:format="image/svg+xml"
      dc:language="en" >
      <dc:creator>
      <rdf:Bag>
        <rdf:li>EQBondcvD2_aOFADXSWJHs4ZazQDuEl9_wNvGGPxI8hGuOFU</rdf:li>
        <rdf:li>ipfs://bafkreihj7iub3fhmhq6jn62noukt5wxn3gv6bvcg7wmt6ywvlurefezckq</rdf:li>
      </rdf:Bag>
      </dc:creator>
    </rdf:Description>
  </rdf:RDF>
</metadata>
<g transform="translate(0.000000,1000.000000) scale(0.100000,-0.100000)"
fill="#1b1f23" stroke="none">
<path d="M4956 7773 c60 -83 117 -133 149 -133 59 0 130 -47 226 -148 50 -53
103 -105 118 -114 71 -48 83 7 22 98 -69 103 -180 181 -361 255 -67 27 -132
56 -143 64 -36 25 -39 17 -11 -22z"/>
<path d="M5458 7653 c97 -142 117 -187 127 -268 4 -38 23 -95 50 -156 24 -53
67 -159 96 -235 73 -196 154 -361 239 -489 40 -60 104 -174 142 -253 43 -88
87 -162 114 -193 51 -57 70 -112 83 -245 10 -97 1 -209 -21 -259 -10 -23 -13
-111 -13 -355 0 -214 -5 -365 -14 -443 -11 -89 -11 -123 -3 -142 23 -50 85
-19 126 62 40 80 48 150 57 498 5 187 13 491 18 675 10 370 6 436 -39 606 -81
314 -271 679 -516 990 -149 190 -138 179 -110 99 26 -77 67 -168 273 -610 211
-452 273 -622 273 -754 0 -68 -20 -105 -43 -81 -8 8 -27 53 -42 100 -47 144
-82 226 -210 490 -67 140 -166 356 -219 479 -132 305 -181 378 -359 528 -91
77 -91 77 -9 -44z"/>
<path d="M4607 7721 c13 -20 57 -72 97 -116 40 -44 122 -141 183 -215 146
-178 253 -295 427 -465 82 -80 152 -158 165 -182 11 -23 34 -90 51 -150 45
-164 140 -448 215 -643 110 -287 193 -548 216 -676 16 -90 21 -162 22 -299 1
-293 -37 -440 -198 -775 -52 -107 -130 -288 -175 -401 -120 -308 -207 -466
-359 -652 -99 -122 -113 -144 -109 -174 3 -26 7 -28 44 -27 57 1 132 53 247
174 163 169 268 343 422 700 37 85 121 261 187 391 135 264 141 286 113 399
-15 60 -17 102 -13 244 6 204 -5 417 -28 516 -9 39 -35 113 -59 163 -24 51
-78 182 -120 292 -42 110 -95 247 -117 304 -57 149 -66 208 -44 275 18 52 18
52 -54 227 -106 254 -110 264 -125 352 -25 146 -54 187 -273 402 -106 104
-202 195 -213 203 -41 29 -53 -22 -20 -87 28 -53 81 -119 210 -256 123 -131
191 -224 191 -261 0 -66 -52 -30 -220 152 -169 184 -230 259 -292 360 -67 111
-120 149 -300 223 -96 39 -96 39 -71 2z"/>
<path d="M4333 7603 c18 -31 79 -105 137 -164 216 -221 846 -836 868 -848 65
-35 83 32 31 115 -18 27 -116 135 -218 239 -103 105 -236 244 -296 310 -254
279 -293 311 -445 360 -30 10 -67 24 -82 31 -27 14 -27 14 5 -43z"/>
<path d="M4130 7521 c43 -37 90 -56 90 -37 0 19 -18 31 -75 50 -50 16 -50 16
-15 -13z"/>
<path d="M3928 7372 c15 -13 91 -55 170 -93 279 -137 486 -301 969 -766 153
-147 216 -215 261 -281 204 -306 348 -790 382 -1291 22 -319 21 -313 65 -293
17 8 36 32 53 70 26 55 27 62 26 237 0 198 -13 288 -69 510 -61 239 -178 557
-290 790 -69 142 -101 184 -183 238 -78 52 -145 111 -394 349 -300 285 -480
444 -587 514 -44 29 -45 29 -237 34 -193 5 -193 5 -166 -18z"/>
<path d="M6239 7214 c21 -49 66 -145 100 -212 117 -233 193 -457 227 -667 19
-122 21 -278 12 -1105 -5 -465 -5 -465 -31 -545 -53 -161 -151 -324 -270 -450
-117 -124 -155 -195 -322 -608 -85 -211 -209 -399 -365 -555 -113 -114 -214
-187 -344 -247 -143 -66 -218 -149 -174 -193 7 -7 27 -12 45 -12 38 0 306 98
372 137 140 81 363 287 484 448 103 138 141 219 191 413 77 293 175 512 232
512 8 0 20 -12 26 -26 14 -30 -4 -107 -66 -284 -60 -168 -60 -285 -1 -340 14
-13 25 -31 25 -41 0 -21 -96 -153 -200 -274 -109 -126 -290 -300 -460 -442
-169 -141 -184 -155 -206 -208 -9 -22 -34 -64 -55 -94 -44 -61 -47 -71 -21
-71 37 0 298 178 532 364 169 134 729 700 812 819 21 32 21 32 -8 5 -43 -40
-174 -117 -216 -129 -42 -11 -107 2 -130 25 -7 7 -20 11 -28 9 -9 -3 -7 1 3 7
16 10 18 20 13 55 -9 59 6 114 86 305 81 192 117 308 159 509 16 80 61 241
100 356 59 177 76 219 113 267 65 84 71 127 71 518 0 329 -2 350 -47 640 -23
145 -23 145 -29 80 -4 -36 -7 -153 -8 -262 -1 -173 -30 -688 -47 -838 -11 -91
-37 -116 -70 -65 -29 45 -33 155 -19 470 25 526 18 661 -49 907 -70 252 -159
441 -340 713 -65 99 -123 184 -128 190 -5 5 9 -31 31 -81z"/>
<path d="M3746 7189 c22 -17 48 -35 58 -41 10 -6 63 -42 116 -82 54 -39 168
-113 253 -165 400 -242 793 -600 1001 -911 122 -183 212 -405 190 -467 -5 -15
-16 -28 -24 -28 -8 0 -40 52 -74 120 -69 136 -118 219 -190 320 -239 338 -659
698 -1026 879 -125 61 -125 61 -295 61 -150 -1 -181 -4 -261 -26 -91 -25 -91
-25 -50 -42 23 -9 120 -33 216 -52 96 -20 209 -48 250 -61 233 -78 552 -296
808 -553 142 -142 241 -263 373 -458 106 -157 154 -215 199 -238 63 -33 115
-215 151 -535 10 -96 28 -224 39 -285 10 -60 24 -148 30 -195 6 -47 16 -100
21 -118 26 -82 96 -51 143 62 14 33 46 186 46 217 0 4 -18 28 -40 54 -50 58
-65 108 -90 309 -18 142 -58 386 -105 645 -30 159 -138 394 -263 571 -39 56
-129 156 -217 245 -321 321 -632 567 -921 729 -107 60 -169 75 -308 76 -69 0
-69 0 -30 -31z"/>
<path d="M3597 7043 c-58 -4 -58 -4 -12 -28 61 -30 163 -58 200 -53 22 2 31 9
33 25 7 46 -74 67 -221 56z"/>
<path d="M3420 6645 c-25 -8 -68 -22 -96 -32 -51 -19 -51 -19 -10 -35 23 -9
104 -30 181 -48 237 -55 441 -136 624 -246 275 -167 582 -460 832 -796 150
-200 199 -302 199 -407 0 -25 7 -81 15 -124 17 -90 19 -126 6 -146 -17 -27
-55 3 -99 77 -30 50 -61 85 -114 127 -40 32 -215 201 -388 375 -173 174 -350
345 -392 379 -195 156 -432 287 -653 359 -223 74 -255 74 -383 6 -63 -33 -63
-33 -35 -47 15 -8 48 -18 73 -22 147 -23 355 -89 507 -160 241 -114 391 -230
698 -539 176 -178 266 -260 337 -310 166 -116 268 -221 268 -275 0 -39 -37
-23 -141 64 -139 115 -216 152 -259 125 -12 -7 -12 -12 0 -34 20 -39 240 -215
328 -264 125 -69 182 -148 246 -344 69 -209 73 -388 16 -617 -53 -215 -173
-490 -233 -535 -25 -19 -28 -19 -44 -3 -16 15 -16 21 0 89 9 40 35 138 57 218
64 226 83 359 77 520 -8 211 -63 385 -164 518 -73 96 -256 284 -290 299 -41
17 -56 52 -47 110 6 43 6 43 -112 191 -214 267 -447 482 -656 607 -155 93
-409 188 -534 202 -54 6 -99 -11 -197 -71 -38 -23 -38 -23 5 -39 24 -8 66 -18
93 -22 137 -17 319 -76 468 -151 296 -149 598 -455 702 -712 14 -34 35 -117
46 -185 11 -67 33 -180 49 -252 63 -287 65 -299 64 -605 0 -308 -10 -404 -58
-575 -40 -141 -131 -311 -247 -464 -146 -193 -159 -215 -159 -275 0 -62 14
-91 23 -48 6 31 13 35 165 103 93 41 250 225 328 384 50 103 82 226 121 465
24 145 27 193 28 400 0 280 -6 316 -101 597 -68 203 -81 286 -49 313 9 7 17
11 19 9 16 -16 219 -429 239 -486 80 -221 84 -435 16 -823 -17 -99 -34 -236
-38 -315 -6 -134 -8 -144 -43 -218 -20 -42 -51 -97 -68 -122 -76 -110 -229
-247 -367 -329 -144 -84 -143 -76 -10 -76 129 0 234 12 312 37 63 20 166 95
242 177 77 82 195 273 222 359 13 42 55 120 108 205 155 245 262 502 312 749
30 144 28 220 -6 269 -46 67 -83 158 -115 280 -30 114 -31 126 -29 296 2 243
-22 387 -88 517 -30 57 -289 412 -389 531 -113 136 -320 332 -458 436 -245
184 -432 278 -690 344 -124 32 -193 36 -264 15z"/>
<path d="M3304 6411 c-27 -10 -64 -26 -82 -35 -17 -9 -41 -16 -54 -16 -34 -1
39 -27 137 -50 234 -54 349 -92 520 -175 324 -157 571 -367 996 -850 182 -207
219 -238 240 -203 29 47 -86 225 -326 503 -390 451 -775 707 -1236 825 -93 24
-128 24 -195 1z"/>
<path d="M5832 6387 c3 -23 46 -139 96 -257 50 -118 114 -280 142 -360 55
-156 86 -204 118 -184 14 10 17 27 17 105 -1 127 -23 192 -150 453 -82 168
-112 220 -144 249 -23 20 -51 37 -62 37 -19 0 -21 -4 -17 -43z"/>
<path d="M3070 5632 c-25 -16 -62 -43 -83 -60 -38 -31 -38 -31 0 -41 21 -5 81
-15 133 -21 339 -40 671 -277 838 -598 180 -347 200 -860 41 -1088 -67 -95
-211 -263 -295 -344 -90 -86 -156 -136 -231 -174 -29 -14 -56 -32 -60 -39 -4
-7 -19 -21 -33 -30 -24 -17 -24 -17 -2 -17 12 0 48 -11 80 -24 31 -13 84 -29
118 -36 51 -10 66 -10 90 3 52 27 208 199 307 339 99 139 118 158 158 158 21
0 21 -3 16 -57 -14 -146 -154 -379 -352 -583 -66 -69 -107 -119 -117 -146 -16
-42 -16 -42 51 -50 86 -10 159 -6 196 12 31 15 102 106 199 256 67 103 103
180 141 298 27 85 27 85 31 465 4 412 -1 490 -52 742 -31 153 -66 267 -106
348 -121 241 -349 465 -607 594 -110 56 -281 113 -356 118 -54 4 -65 2 -105
-25z"/>
<path d="M3065 5371 c-22 -10 -64 -39 -93 -64 -52 -46 -52 -46 -15 -56 21 -6
56 -11 79 -11 62 0 186 -35 265 -75 213 -107 364 -298 431 -547 30 -109 32
-328 4 -428 -56 -204 -205 -404 -375 -500 -72 -41 -104 -61 -150 -95 -26 -19
-30 -25 -15 -25 11 0 37 -10 59 -21 51 -28 142 -59 170 -59 51 0 238 163 337
294 120 160 175 307 185 501 12 229 -40 441 -156 640 -63 110 -227 273 -336
336 -91 53 -188 93 -260 109 -28 5 -59 12 -70 15 -11 2 -38 -4 -60 -14z"/>
<path d="M7071 5145 c0 -33 3 -66 7 -73 5 -7 7 16 4 50 -5 85 -10 96 -11 23z"/>
<path d="M3044 5091 c-22 -10 -63 -38 -90 -63 -50 -44 -50 -44 39 -60 111 -21
184 -57 253 -126 157 -157 201 -471 93 -661 -39 -68 -116 -144 -178 -175 -25
-13 -56 -35 -69 -48 -22 -25 -22 -25 26 -55 67 -41 136 -67 165 -59 38 9 157
125 207 202 121 186 143 439 57 654 -72 177 -200 310 -362 377 -78 32 -96 34
-141 14z"/>
<path d="M7047 4852 c-35 -36 -131 -224 -191 -374 -31 -78 -36 -142 -14 -164
33 -34 77 21 130 163 21 58 118 406 114 410 -1 2 -19 -14 -39 -35z"/>
<path d="M3021 4785 c-36 -16 -108 -75 -91 -75 5 0 19 -9 30 -20 29 -29 27
-94 -3 -116 -23 -18 -23 -18 38 -50 106 -56 149 -54 181 8 33 65 -4 194 -72
247 -31 25 -38 25 -83 6z"/>
<path d="M3077 4327 c-97 -63 -97 -63 -42 -90 30 -16 70 -31 89 -34 31 -5 40
-1 66 27 57 61 62 160 8 160 -13 0 -67 -28 -121 -63z"/>
<path d="M6955 4181 c-94 -16 -156 -81 -279 -298 -44 -76 -113 -191 -153 -257
-70 -112 -85 -157 -47 -142 9 3 24 6 34 6 28 0 114 83 163 159 25 37 85 139
133 227 96 177 132 233 177 282 17 17 27 31 21 31 -5 -1 -27 -4 -49 -8z"/>
<path d="M5285 2545 c-44 -20 -121 -47 -171 -60 -118 -31 -167 -51 -311 -125
-108 -55 -235 -141 -188 -127 11 4 93 16 182 27 182 23 362 65 452 105 75 34
194 152 189 187 -5 37 -59 35 -153 -7z"/>
</g>
</svg>
