<?xml version="1.0" standalone="no"?>
<!DOCTYPE svg PUBLIC "-//W3C//DTD SVG 20010904//EN"
 "http://www.w3.org/TR/2001/REC-SVG-20010904/DTD/svg10.dtd">
<svg version="1.0" xmlns="http://www.w3.org/2000/svg"
 width="1000.000000pt" height="1000.000000pt" viewBox="0 0 1000.000000 1000.000000"
 preserveAspectRatio="xMidYMid meet">
<metadata>
  <rdf:RDF
    xmlns:rdf = "http://www.w3.org/1999/02/22-rdf-syntax-ns#"
    xmlns:rdfs = "http://www.w3.org/2000/01/rdf-schema#"
    xmlns:dc = "http://purl.org/dc/elements/1.1/"
    xmlns:cc = "http://creativecommons.org/ns#">
    <cc:license rdf:resource="http://creativecommons.org/publicdomain/zero/1.0/deed.en"/>
    <cc:permits rdf:resource="http://creativecommons.org/ns#Reproduction"/>
    <rdf:Description about="https://nft.mir.one/fingerprints"
      dc:title="TON Fingerprints"
      dc:description="This is a unique digital fingerprint created based on the algorithm for generating basic rings using a noise texture. Like human fingerprints, you can now use it for the Web3 and Metaverse era as digital biometric information."
      dc:publisher="https://nft.mir.one"
      dc:date="2022-02-22"
      dc:format="image/svg+xml"
      dc:language="en" >
      <dc:creator>
      <rdf:Bag>
        <rdf:li>EQBondcvD2_aOFADXSWJHs4ZazQDuEl9_wNvGGPxI8hGuOFU</rdf:li>
        <rdf:li>ipfs://bafkreihj7iub3fhmhq6jn62noukt5wxn3gv6bvcg7wmt6ywvlurefezckq</rdf:li>
      </rdf:Bag>
      </dc:creator>
    </rdf:Description>
  </rdf:RDF>
</metadata>
<g transform="translate(0.000000,1000.000000) scale(0.100000,-0.100000)"
fill="#1b1f23" stroke="none">
<path d="M4994 7768 c24 -28 86 -86 138 -130 156 -134 522 -485 618 -593 229
-258 335 -431 470 -769 63 -159 79 -191 146 -290 64 -94 87 -161 119 -356 69
-423 68 -660 -6 -1285 -12 -108 -43 -204 -105 -328 -87 -173 -197 -320 -280
-376 -26 -17 -77 -37 -117 -46 -114 -26 -181 -51 -359 -136 -262 -124 -414
-181 -723 -269 -301 -85 -394 -103 -540 -104 -151 -1 -213 15 -271 69 -27 26
-35 40 -32 61 5 44 30 51 69 22 101 -76 241 -68 574 31 72 22 200 58 285 81
303 82 493 162 641 272 41 31 101 65 134 78 99 36 190 88 253 146 112 101 212
259 270 425 92 264 138 732 97 988 -16 94 -102 452 -132 546 -27 84 -191 511
-239 620 -114 261 -280 493 -474 663 -47 41 -157 139 -245 217 -221 196 -300
258 -371 293 -68 34 -199 74 -316 96 -42 8 -91 22 -109 31 -32 17 -32 17 -11
-10 12 -15 22 -37 22 -49 0 -36 19 -52 130 -112 214 -115 353 -219 556 -415
101 -97 131 -120 175 -134 103 -34 175 -101 288 -265 153 -223 269 -512 336
-838 28 -133 55 -349 55 -435 0 -54 -2 -60 -39 -95 -49 -47 -61 -89 -61 -217
0 -266 -50 -452 -168 -627 -27 -40 -81 -139 -120 -218 -147 -301 -253 -422
-415 -471 -92 -28 -169 -115 -136 -155 20 -24 70 -13 228 51 168 68 221 74
221 26 0 -34 -79 -87 -209 -140 -87 -37 -427 -131 -470 -131 -37 0 -81 16 -81
30 0 6 25 26 55 46 31 19 75 54 99 77 47 46 36 14 171 452 66 215 70 315 14
346 -16 8 -22 2 -42 -38 -13 -27 -34 -79 -47 -118 -65 -202 -159 -444 -213
-550 -50 -99 -61 -128 -60 -168 1 -47 0 -48 -56 -86 -71 -49 -237 -132 -318
-159 -122 -42 -261 -53 -250 -19 2 7 14 17 28 24 13 6 76 36 139 67 142 67
239 141 307 231 70 93 167 290 257 522 90 234 113 276 176 315 56 35 60 46 86
238 18 135 26 593 11 663 -11 52 -57 100 -153 163 -119 76 -309 215 -506 371
-331 259 -593 412 -868 505 -174 58 -242 59 -357 4 -46 -22 -83 -42 -83 -46 0
-11 68 -28 165 -41 223 -29 489 -133 735 -285 190 -117 505 -369 646 -516 149
-156 187 -277 188 -608 1 -230 -6 -264 -124 -574 -159 -419 -231 -556 -375
-714 -77 -85 -262 -232 -292 -232 -13 0 -23 3 -23 6 0 17 52 87 143 193 188
220 304 427 396 706 72 219 93 326 94 470 0 195 -36 297 -130 367 -31 23 -118
104 -193 181 -147 152 -290 272 -444 374 -242 160 -519 263 -710 263 -56 0
-69 -4 -122 -39 -32 -21 -78 -59 -102 -83 -43 -45 -43 -45 5 -36 171 31 193
32 281 19 177 -25 376 -109 573 -242 276 -185 490 -407 585 -605 90 -185 82
-429 -23 -739 -50 -148 -108 -259 -243 -465 -128 -197 -158 -257 -167 -332 -9
-87 -41 -119 -78 -81 -14 14 -17 31 -13 93 4 66 11 90 56 183 28 59 94 179
147 267 108 179 141 247 178 366 60 189 74 408 37 563 -45 184 -163 360 -335
494 -356 278 -566 383 -801 404 -58 5 -78 2 -118 -15 -42 -19 -46 -23 -36 -41
7 -14 35 -28 83 -41 273 -79 327 -101 451 -184 88 -58 209 -177 226 -220 5
-15 10 -48 10 -72 0 -25 11 -89 24 -142 14 -53 30 -137 37 -187 15 -113 6
-338 -16 -420 -17 -61 -129 -285 -216 -430 -93 -157 -225 -287 -359 -355 -50
-25 -110 -75 -99 -83 2 -2 40 -19 84 -40 95 -43 152 -54 186 -36 124 66 336
389 404 614 38 125 74 159 90 82 8 -35 31 -77 44 -77 18 0 31 56 31 136 0 47
7 143 16 212 31 247 0 444 -102 650 -59 118 -60 139 -10 126 66 -16 183 -194
226 -344 47 -161 35 -457 -26 -650 -28 -90 -46 -118 -88 -135 -25 -11 -37 -26
-55 -72 -14 -32 -64 -137 -112 -235 -49 -97 -107 -220 -129 -274 -22 -54 -52
-112 -65 -130 -31 -40 -103 -87 -180 -115 -33 -12 -69 -30 -80 -39 -11 -10
-29 -22 -40 -28 -17 -10 -17 -11 -3 -12 10 0 68 -24 130 -54 119 -57 232 -96
277 -96 15 0 101 -15 191 -34 206 -42 315 -51 450 -36 277 30 704 155 1065
312 88 39 202 85 252 104 51 18 124 49 163 69 81 41 95 43 110 14 15 -27 5
-69 -35 -149 -18 -36 -36 -81 -40 -100 -22 -103 -103 -199 -226 -266 -41 -22
-111 -62 -157 -89 -78 -45 -89 -49 -175 -55 -73 -6 -115 -16 -202 -50 -435
-167 -648 -218 -925 -221 -118 -2 -300 -14 -253 -17 12 -1 95 -21 185 -43 158
-40 168 -41 333 -42 130 -1 187 3 240 16 123 31 265 88 453 184 101 51 190 93
197 93 21 0 26 -16 16 -43 -31 -81 -243 -214 -511 -320 -153 -61 -278 -117
-262 -117 26 0 219 31 302 49 180 40 420 147 511 228 27 25 71 73 96 107 95
126 175 196 223 196 35 0 23 -40 -41 -135 -33 -49 -75 -116 -91 -150 -37 -74
-121 -171 -191 -221 -79 -56 -79 -60 -2 -19 98 54 205 122 237 153 15 14 33
41 39 59 6 19 42 72 79 119 37 46 89 126 116 176 26 51 73 131 104 178 70 105
136 222 228 406 39 78 93 179 120 225 89 152 198 362 263 504 51 111 75 151
120 200 67 72 90 115 124 230 53 183 69 341 69 675 0 339 -5 387 -77 820 -42
255 -42 255 -48 150 -4 -58 -2 -222 3 -365 14 -372 5 -785 -20 -950 -39 -245
-87 -429 -122 -460 -17 -16 -20 -15 -39 4 -31 31 -31 94 0 325 42 327 44 537
9 1026 -5 69 -7 197 -3 285 6 175 1 216 -48 378 -84 275 -240 555 -355 637
-27 19 -141 124 -254 235 -164 161 -346 320 -489 429 -7 6 12 -24 42 -67 66
-91 331 -389 542 -608 104 -108 165 -180 197 -235 123 -206 230 -576 199 -690
-13 -49 -37 -63 -62 -37 -10 10 -47 107 -83 216 -127 386 -197 497 -576 912
-297 326 -437 433 -733 559 -127 54 -127 54 -83 4z m1124 -2402 c64 -33 102
-162 102 -351 0 -394 -143 -792 -374 -1041 -85 -93 -166 -149 -200 -140 -19 5
-26 13 -26 32 0 34 12 55 132 234 164 246 262 462 310 683 26 124 32 400 9
509 -17 88 -8 103 47 74z"/>
<path d="M4390 7600 c-19 -5 -75 -12 -125 -16 -90 -8 -90 -8 -30 -27 104 -32
230 -11 212 37 -7 18 -7 18 -57 6z"/>
<path d="M4160 7424 c-25 -2 -94 -11 -154 -20 -109 -17 -109 -17 -60 -34 27
-10 123 -32 213 -49 205 -40 330 -79 448 -141 253 -132 427 -327 593 -665 83
-167 117 -268 132 -391 14 -110 3 -205 -34 -286 -28 -59 -83 -128 -103 -128
-7 0 -22 15 -34 33 -12 20 -34 37 -58 46 -21 7 -83 34 -138 61 -55 26 -125 59
-155 73 -33 16 -122 84 -220 168 -192 165 -285 236 -413 315 -117 73 -329 179
-477 240 -142 58 -188 61 -305 15 -44 -17 -87 -31 -95 -31 -36 -1 52 -34 173
-65 213 -53 439 -150 648 -278 123 -74 206 -135 408 -296 158 -126 215 -165
343 -239 124 -72 183 -94 253 -96 39 -1 70 -8 85 -19 13 -9 42 -17 62 -17 76
0 169 122 197 258 15 74 14 216 -3 305 -25 130 -70 244 -205 517 -142 288
-172 332 -311 455 -137 121 -299 216 -425 250 -59 15 -273 27 -365 19z"/>
<path d="M3845 7205 c-49 -13 -116 -32 -148 -43 -58 -19 -58 -19 -15 -32 25
-8 100 -14 178 -15 108 -2 155 -8 232 -28 422 -111 753 -378 946 -762 71 -142
95 -234 96 -362 1 -92 4 -115 18 -129 41 -42 83 58 82 196 0 111 -20 197 -75
324 -174 406 -465 685 -844 809 -217 71 -324 81 -470 42z"/>
<path d="M3848 7009 c-26 -14 -22 -44 7 -63 14 -9 75 -37 137 -62 162 -66 318
-146 418 -215 263 -180 484 -441 554 -656 29 -87 103 -146 114 -90 6 29 -46
196 -88 285 -178 373 -547 676 -961 787 -100 27 -153 31 -181 14z"/>
<path d="M3560 6914 c-47 -13 -91 -27 -99 -30 -22 -8 31 -35 127 -67 121 -39
528 -243 667 -335 146 -95 267 -195 439 -362 137 -132 167 -155 193 -146 47
19 -84 203 -279 391 -175 171 -316 265 -603 404 -88 43 -187 99 -219 125 -71
55 -98 58 -226 20z"/>
<path d="M5307 6923 c-19 -18 -1 -75 60 -191 143 -270 183 -366 224 -532 19
-78 23 -121 23 -245 -1 -191 -16 -251 -124 -474 -84 -177 -116 -279 -144 -461
-20 -128 -36 -342 -36 -470 0 -104 -15 -242 -32 -305 -6 -22 -33 -95 -60 -163
-53 -133 -58 -175 -21 -180 49 -7 180 164 247 323 67 161 70 183 71 460 1 224
4 259 23 334 30 114 71 195 133 266 60 69 90 128 121 241 18 67 21 106 22 254
0 152 -4 192 -27 301 -14 69 -43 172 -62 230 -109 315 -355 676 -418 612z"/>
<path d="M3253 6191 c-49 -17 -172 -89 -173 -102 0 -9 66 -19 127 -19 28 0 86
-5 128 -11 389 -54 799 -293 1171 -684 147 -154 173 -172 202 -143 52 52 -48
206 -246 381 -349 306 -677 493 -997 565 -137 31 -157 32 -212 13z"/>
<path d="M3044 5502 c-37 -21 -104 -74 -104 -84 0 -3 33 -11 73 -18 353 -56
564 -206 648 -462 23 -72 21 -98 -9 -98 -23 0 -44 23 -111 121 -111 164 -277
282 -415 296 -49 5 -60 3 -94 -21 -21 -14 -59 -50 -84 -79 -45 -52 -45 -52 45
-44 183 19 301 -46 427 -233 32 -47 76 -99 98 -117 61 -49 87 -111 86 -208 -3
-220 -169 -461 -403 -585 -71 -37 -129 -78 -120 -83 171 -98 205 -105 275 -56
151 103 318 340 382 539 35 108 42 174 42 385 0 171 -3 211 -20 274 -29 102
-63 166 -128 234 -97 101 -214 168 -395 228 -101 33 -149 36 -193 11z"/>
<path d="M5752 5203 c-61 -24 -153 -477 -112 -554 29 -53 87 4 124 119 47 151
71 374 46 423 -10 18 -31 23 -58 12z"/>
<path d="M3048 4980 c-46 -27 -76 -122 -48 -155 17 -20 23 -19 35 8 23 52 95
11 95 -55 0 -66 -43 -112 -140 -148 -62 -23 -62 -23 -18 -62 47 -42 108 -78
133 -78 29 0 114 91 146 155 17 35 32 85 36 116 4 46 1 62 -24 109 -48 92
-153 145 -215 110z"/>
<path d="M3390 4678 c-11 -18 -20 -38 -20 -44 0 -7 -18 -48 -40 -91 -53 -106
-118 -172 -223 -224 -144 -72 -137 -59 -58 -113 44 -30 83 -50 109 -53 36 -5
47 -1 91 32 156 114 254 309 229 454 -13 78 -53 95 -88 39z"/>
<path d="M6997 4221 c-9 -16 -33 -48 -53 -72 -19 -23 -93 -158 -164 -298 -175
-347 -393 -718 -566 -961 -37 -52 -103 -149 -147 -214 -44 -66 -99 -140 -121
-165 -41 -45 -41 -45 19 6 72 62 255 262 360 393 103 129 276 390 352 530 34
63 89 176 122 250 58 131 223 552 218 557 -2 1 -11 -11 -20 -26z"/>
<path d="M5700 3199 c-171 -83 -293 -132 -515 -207 -366 -122 -536 -163 -755
-182 -129 -11 -151 -10 -460 17 -167 14 -190 14 -235 0 -40 -12 -46 -16 -30
-22 11 -4 70 -26 130 -50 232 -92 373 -121 535 -110 223 14 392 53 730 165
113 38 246 81 295 95 234 69 494 240 483 317 -6 42 -59 36 -178 -23z"/>
<path d="M5870 2455 c-14 -8 -20 -14 -14 -15 5 0 19 7 30 15 24 18 16 19 -16
0z"/>
<path d="M5800 2450 c0 -6 7 -10 15 -10 8 0 15 2 15 4 0 2 -7 6 -15 10 -8 3
-15 1 -15 -4z"/>
</g>
</svg>
