<?xml version="1.0" standalone="no"?>
<!DOCTYPE svg PUBLIC "-//W3C//DTD SVG 20010904//EN"
 "http://www.w3.org/TR/2001/REC-SVG-20010904/DTD/svg10.dtd">
<svg version="1.0" xmlns="http://www.w3.org/2000/svg"
 width="1000.000000pt" height="1000.000000pt" viewBox="0 0 1000.000000 1000.000000"
 preserveAspectRatio="xMidYMid meet">
<metadata>
  <rdf:RDF
    xmlns:rdf = "http://www.w3.org/1999/02/22-rdf-syntax-ns#"
    xmlns:rdfs = "http://www.w3.org/2000/01/rdf-schema#"
    xmlns:dc = "http://purl.org/dc/elements/1.1/"
    xmlns:cc = "http://creativecommons.org/ns#">
    <cc:license rdf:resource="http://creativecommons.org/publicdomain/zero/1.0/deed.en"/>
    <cc:permits rdf:resource="http://creativecommons.org/ns#Reproduction"/>
    <rdf:Description about="https://nft.mir.one/fingerprints"
      dc:title="TON Fingerprints"
      dc:description="This is a unique digital fingerprint created based on the algorithm for generating basic rings using a noise texture. Like human fingerprints, you can now use it for the Web3 and Metaverse era as digital biometric information."
      dc:publisher="https://nft.mir.one"
      dc:date="2022-02-22"
      dc:format="image/svg+xml"
      dc:language="en" >
      <dc:creator>
      <rdf:Bag>
        <rdf:li>EQBondcvD2_aOFADXSWJHs4ZazQDuEl9_wNvGGPxI8hGuOFU</rdf:li>
        <rdf:li>ipfs://bafkreihj7iub3fhmhq6jn62noukt5wxn3gv6bvcg7wmt6ywvlurefezckq</rdf:li>
      </rdf:Bag>
      </dc:creator>
    </rdf:Description>
  </rdf:RDF>
</metadata>
<g transform="translate(0.000000,1000.000000) scale(0.100000,-0.100000)"
fill="#1b1f23" stroke="none">
<path d="M4998 7813 c6 -2 18 -2 25 0 6 3 1 5 -13 5 -14 0 -19 -2 -12 -5z"/>
<path d="M4923 7803 c9 -2 23 -2 30 0 6 3 -1 5 -18 5 -16 0 -22 -2 -12 -5z"/>
<path d="M4785 7780 c-105 -29 -162 -49 -141 -49 15 -1 199 46 251 64 36 12
-53 0 -110 -15z"/>
<path d="M4825 7640 c-173 -15 -214 -29 -180 -63 23 -24 100 -34 340 -46 121
-6 254 -18 295 -26 275 -59 683 -250 829 -388 24 -23 71 -85 106 -137 35 -52
122 -162 195 -245 152 -173 245 -287 353 -435 42 -58 95 -125 118 -150 41 -45
41 -45 -7 45 -144 274 -248 429 -438 654 -90 106 -146 186 -146 207 0 23 50
37 88 26 17 -6 32 -8 32 -6 0 9 -69 34 -92 34 -13 1 -52 26 -93 61 -254 220
-714 431 -1025 469 -92 11 -249 11 -375 0z"/>
<path d="M4380 7476 c-332 -100 -674 -352 -964 -711 -49 -60 -108 -130 -130
-154 -35 -38 -28 -33 51 28 51 40 130 106 175 148 229 210 458 350 707 433
167 56 245 63 591 57 324 -5 418 -16 574 -68 138 -46 206 -87 406 -248 388
-311 715 -716 834 -1033 117 -312 149 -816 71 -1136 -62 -253 -195 -470 -329
-533 -33 -16 -111 -63 -173 -106 -100 -68 -118 -77 -159 -77 -27 -1 -49 4 -51
11 -2 6 67 74 155 151 181 160 228 210 284 304 91 154 142 343 159 598 27 390
-14 636 -152 899 -168 322 -516 695 -766 822 -54 28 -67 31 -89 21 -35 -16
-119 -15 -206 3 -40 9 -141 23 -224 31 -235 22 -299 38 -292 72 7 36 46 44
188 38 143 -6 270 -28 409 -70 127 -39 156 -34 127 22 -48 92 -333 182 -579
182 -48 0 -131 -6 -185 -14 -53 -8 -151 -20 -217 -26 -252 -24 -379 -57 -570
-150 -366 -177 -666 -473 -850 -840 -66 -133 -104 -189 -132 -196 -25 -7 -25
-8 -8 -20 53 -39 103 3 345 291 317 377 512 531 800 633 150 53 231 66 390 67
145 0 145 0 245 -46 55 -26 144 -59 198 -75 98 -28 98 -28 133 -9 25 13 53 19
92 17 77 -2 295 -63 379 -106 387 -196 787 -762 810 -1146 5 -80 3 -88 -25
-142 -30 -57 -30 -57 -30 -230 1 -326 -62 -509 -262 -755 -140 -173 -169 -215
-186 -273 -10 -32 -29 -66 -45 -81 -81 -76 -291 -184 -424 -219 -136 -35 -172
-36 -261 -6 -56 18 -117 29 -209 36 -183 15 -274 33 -443 92 -270 93 -327 137
-424 323 -64 125 -88 197 -88 266 0 60 7 79 31 79 14 0 30 -23 60 -82 122
-243 239 -359 461 -456 235 -103 645 -153 844 -102 195 50 319 144 492 373
159 210 224 332 263 493 29 115 31 282 5 368 -16 54 -86 199 -249 511 -34 66
-73 147 -87 180 -54 130 -207 278 -377 363 -53 27 -74 32 -160 36 -75 3 -132
13 -248 46 -219 61 -299 74 -460 73 -208 -1 -362 -40 -626 -157 -131 -58 -194
-71 -206 -40 -16 43 171 171 362 247 175 69 239 81 440 82 215 0 261 -10 531
-110 182 -68 236 -77 242 -42 5 28 -43 65 -201 155 -218 125 -404 182 -590
182 -217 0 -452 -74 -654 -205 -111 -73 -187 -150 -245 -250 -31 -54 -88 -125
-173 -215 -154 -164 -276 -313 -310 -380 -40 -78 -55 -153 -66 -317 -7 -111
-6 -176 2 -235 17 -123 17 -142 -3 -146 -26 -5 -66 44 -83 101 -8 28 -20 89
-25 136 -13 102 -25 150 -44 176 -12 17 -13 10 -9 -56 12 -210 25 -310 53
-407 32 -112 60 -374 46 -445 -8 -44 -43 -65 -77 -47 -24 13 -24 9 0 -38 10
-20 48 -129 84 -242 101 -314 249 -594 416 -789 57 -65 244 -222 411 -345 137
-100 302 -161 415 -154 54 3 67 8 108 43 26 22 50 48 53 58 4 12 -6 42 -23 75
-22 44 -50 75 -123 135 -248 206 -299 265 -340 392 -22 66 -30 76 -184 235
-168 173 -217 241 -269 371 -38 94 -55 177 -67 319 -12 134 -19 155 -52 166
-17 5 -28 -1 -50 -24 -42 -48 -62 -129 -62 -257 0 -132 20 -207 95 -353 68
-133 143 -235 355 -478 241 -278 289 -322 512 -473 50 -35 104 -77 119 -95 26
-31 26 -31 -1 -34 -60 -7 -232 71 -367 168 -154 109 -382 328 -536 510 -188
225 -348 533 -369 713 -6 49 -3 61 24 109 16 29 42 93 57 143 36 121 63 170
138 257 86 98 111 138 206 317 157 295 273 434 471 564 220 144 469 224 730
234 217 8 406 -23 594 -100 87 -36 365 -189 424 -234 80 -61 197 -253 241
-397 83 -270 14 -549 -204 -822 -69 -86 -181 -182 -264 -223 -104 -53 -186
-73 -321 -78 -154 -6 -279 13 -416 61 -120 44 -182 80 -292 176 -48 41 -110
93 -139 114 -53 40 -142 153 -184 235 -44 86 -35 197 27 321 42 84 69 103 96
70 22 -27 22 -40 2 -127 -31 -131 -3 -280 70 -376 39 -51 71 -59 88 -22 10 21
7 45 -13 133 -37 163 -29 273 17 255 40 -15 104 -200 114 -328 9 -117 27 -161
92 -221 82 -76 182 -121 326 -150 341 -66 649 94 807 419 57 118 78 206 78
332 1 258 -130 484 -369 637 -63 40 -212 113 -280 136 -523 179 -1149 -37
-1459 -503 -65 -97 -152 -270 -189 -373 -30 -84 -33 -156 -12 -259 8 -37 22
-113 31 -168 41 -239 135 -434 236 -485 93 -48 102 3 29 171 -162 375 -142
711 61 1005 162 233 520 459 803 505 118 18 311 7 419 -25 262 -78 454 -246
529 -465 19 -55 23 -86 23 -191 -1 -109 -4 -134 -27 -197 -69 -193 -233 -346
-408 -384 -114 -24 -299 5 -425 68 -102 52 -187 145 -157 175 14 14 28 10 172
-41 60 -22 104 -31 148 -31 59 0 63 2 73 27 5 15 41 59 79 99 97 102 124 158
125 254 0 65 -4 82 -30 130 -104 189 -390 189 -446 0 -34 -113 85 -238 186
-196 48 20 70 86 29 86 -7 0 -18 9 -24 20 -8 15 -6 24 10 40 22 22 37 24 74
10 36 -13 58 -52 58 -103 0 -71 -43 -133 -121 -172 -75 -38 -216 -5 -290 67
-66 65 -121 183 -121 261 0 125 128 240 300 269 189 32 388 -70 468 -239 24
-51 27 -70 27 -158 0 -89 -3 -107 -29 -162 -36 -78 -116 -156 -208 -203 -38
-19 -68 -40 -68 -47 0 -22 44 -43 92 -43 123 0 257 100 328 243 131 267 14
571 -273 712 -110 53 -184 70 -317 69 -217 0 -367 -64 -587 -251 -35 -29 -95
-69 -134 -88 -39 -20 -91 -56 -115 -81 -61 -63 -117 -181 -147 -310 -58 -243
-54 -345 19 -564 28 -82 49 -165 54 -212 4 -44 15 -90 25 -105 34 -53 300
-309 380 -364 400 -280 623 -347 961 -289 451 77 972 407 1178 745 24 39 82
133 129 210 206 336 256 520 244 900 -6 193 -21 298 -86 605 -54 260 -89 342
-238 557 -113 164 -469 581 -589 692 -174 159 -440 302 -669 359 -115 29 -198
40 -390 52 -180 11 -290 30 -358 61 -55 24 -115 23 -207 -5z m558 -1227 c184
-31 427 -94 505 -132 143 -68 312 -219 305 -272 -5 -35 -48 -21 -156 49 -137
91 -268 150 -403 186 -453 118 -787 83 -1217 -127 -284 -138 -454 -331 -598
-680 -74 -179 -119 -243 -169 -243 -23 0 -27 3 -22 23 37 150 112 408 136 466
74 177 281 417 426 493 85 44 398 166 515 201 232 69 424 80 678 36z m1490
-2116 c6 -63 -124 -198 -319 -328 -245 -164 -455 -259 -730 -332 -91 -24 -123
-28 -249 -28 -161 0 -169 2 -294 77 -37 23 -115 63 -171 89 -187 85 -345 185
-345 218 0 6 9 15 20 21 26 14 68 3 235 -61 140 -54 140 -54 280 -50 320 8
320 8 320 -13 0 -30 -51 -53 -145 -66 -46 -6 -92 -16 -102 -21 -26 -14 -22
-46 9 -66 37 -25 204 -24 288 0 271 80 420 136 590 222 317 161 354 184 536
333 28 23 57 41 63 39 6 -2 12 -17 14 -34z"/>
<path d="M5135 6730 c-12 -19 20 -59 71 -91 207 -130 476 -331 579 -434 40
-40 93 -101 118 -136 57 -81 164 -280 253 -473 74 -160 117 -220 156 -214 19
2 24 10 26 41 5 54 -38 212 -93 342 -159 380 -423 677 -753 848 -155 80 -342
141 -357 117z"/>
<path d="M6952 5878 c-16 -16 -15 -75 2 -129 42 -131 107 -299 101 -264 -3 22
-26 114 -51 204 -25 90 -43 172 -41 182 6 22 5 23 -11 7z"/>
<path d="M7061 5424 c0 -11 3 -14 6 -6 3 7 2 16 -1 19 -3 4 -6 -2 -5 -13z"/>
<path d="M7081 4704 c0 -11 3 -14 6 -6 3 7 2 16 -1 19 -3 4 -6 -2 -5 -13z"/>
<path d="M7072 4650 c0 -14 2 -19 5 -12 2 6 2 18 0 25 -3 6 -5 1 -5 -13z"/>
<path d="M7052 4580 c-14 -44 -24 -63 -144 -250 -122 -190 -375 -506 -515
-641 -461 -447 -1099 -651 -1558 -498 -139 47 -220 97 -521 324 -156 119 -196
141 -228 129 -25 -10 -19 -57 13 -100 37 -51 89 -99 236 -220 66 -54 155 -131
197 -170 90 -82 162 -124 273 -156 73 -21 99 -23 310 -23 247 0 329 10 510 62
328 94 665 313 920 599 112 127 306 388 346 466 64 127 130 293 155 390 25
101 30 171 6 88z"/>
<path d="M6843 3842 c-27 -37 -65 -89 -83 -117 -148 -223 -427 -490 -663 -634
-326 -199 -665 -279 -1138 -269 -122 3 -251 12 -320 23 -115 17 -115 17 -188
-14 -85 -38 -176 -55 -246 -46 -175 23 -318 88 -445 201 -112 100 -218 168
-299 194 -36 12 -72 26 -78 32 -7 6 -13 8 -13 5 0 -3 45 -39 100 -82 98 -74
159 -132 285 -267 74 -79 191 -149 329 -197 101 -34 101 -34 411 -43 171 -5
353 -7 405 -4 114 6 535 51 673 71 191 28 444 132 594 243 175 130 381 351
514 552 68 102 227 406 217 415 -2 3 -27 -26 -55 -63z"/>
<path d="M6374 2889 c-75 -83 -220 -159 -548 -286 -223 -86 -220 -86 -280 -68
-87 26 -142 20 -569 -59 -167 -31 -270 -33 -397 -5 -128 27 -372 36 -455 16
-60 -14 -60 -14 25 -26 92 -14 323 -65 366 -82 15 -5 55 -23 88 -39 55 -27 70
-30 164 -30 102 0 140 6 482 82 52 11 131 31 174 44 44 13 92 24 108 24 24 0
28 -4 28 -30 0 -72 -122 -148 -321 -201 -67 -17 -93 -27 -64 -23 84 10 235 52
303 84 35 16 92 52 126 78 74 59 137 96 321 191 186 97 283 162 391 265 49 47
86 85 83 86 -3 0 -14 -9 -25 -21z"/>
<path d="M5098 2193 c7 -3 16 -2 19 1 4 3 -2 6 -13 5 -11 0 -14 -3 -6 -6z"/>
</g>
</svg>
