<?xml version="1.0" standalone="no"?>
<!DOCTYPE svg PUBLIC "-//W3C//DTD SVG 20010904//EN"
 "http://www.w3.org/TR/2001/REC-SVG-20010904/DTD/svg10.dtd">
<svg version="1.0" xmlns="http://www.w3.org/2000/svg"
 width="1000.000000pt" height="1000.000000pt" viewBox="0 0 1000.000000 1000.000000"
 preserveAspectRatio="xMidYMid meet">
<metadata>
  <rdf:RDF
    xmlns:rdf = "http://www.w3.org/1999/02/22-rdf-syntax-ns#"
    xmlns:rdfs = "http://www.w3.org/2000/01/rdf-schema#"
    xmlns:dc = "http://purl.org/dc/elements/1.1/"
    xmlns:cc = "http://creativecommons.org/ns#">
    <cc:license rdf:resource="http://creativecommons.org/publicdomain/zero/1.0/deed.en"/>
    <cc:permits rdf:resource="http://creativecommons.org/ns#Reproduction"/>
    <rdf:Description about="https://nft.mir.one/fingerprints"
      dc:title="TON Fingerprints"
      dc:description="This is a unique digital fingerprint created based on the algorithm for generating basic rings using a noise texture. Like human fingerprints, you can now use it for the Web3 and Metaverse era as digital biometric information."
      dc:publisher="https://nft.mir.one"
      dc:date="2022-02-22"
      dc:format="image/svg+xml"
      dc:language="en" >
      <dc:creator>
      <rdf:Bag>
        <rdf:li>EQBondcvD2_aOFADXSWJHs4ZazQDuEl9_wNvGGPxI8hGuOFU</rdf:li>
        <rdf:li>ipfs://bafkreihj7iub3fhmhq6jn62noukt5wxn3gv6bvcg7wmt6ywvlurefezckq</rdf:li>
      </rdf:Bag>
      </dc:creator>
    </rdf:Description>
  </rdf:RDF>
</metadata>
<g transform="translate(0.000000,1000.000000) scale(0.100000,-0.100000)"
fill="#1b1f23" stroke="none">
<path d="M4942 7679 c-283 -20 -580 -100 -835 -223 -99 -48 -351 -195 -345
-201 2 -2 62 18 133 46 270 104 313 120 430 154 142 41 310 76 490 102 111 15
195 18 585 17 455 -1 455 -1 385 18 -165 42 -369 78 -505 88 -159 11 -174 11
-338 -1z"/>
<path d="M5025 7444 c-359 -26 -574 -66 -816 -150 -197 -68 -328 -139 -494
-269 -196 -153 -361 -354 -529 -645 -43 -73 -38 -71 31 16 86 109 218 257 296
331 289 274 711 467 1157 529 239 34 1143 26 1283 -11 83 -22 146 -50 297
-135 91 -51 139 -85 152 -105 15 -25 18 -27 18 -10 0 27 -79 103 -211 203
-137 103 -178 126 -293 168 -179 63 -259 75 -566 78 -151 2 -297 2 -325 0z"/>
<path d="M5791 7136 c-36 -12 -110 -13 -480 -4 -240 5 -492 8 -561 5 -226 -10
-448 -67 -669 -173 -351 -167 -590 -383 -783 -706 -83 -140 -278 -524 -318
-628 -45 -117 -45 -120 -19 -79 13 20 37 52 52 70 34 40 170 229 356 494 245
347 354 466 556 600 189 127 401 216 607 256 118 23 211 24 333 5 50 -8 137
-20 195 -26 248 -25 332 -46 355 -90 29 -55 105 -107 336 -225 400 -206 535
-295 717 -470 161 -155 235 -248 400 -507 62 -98 92 -89 67 19 -27 112 -106
283 -187 400 -83 121 -290 308 -458 414 -152 97 -641 346 -751 383 -89 30 -97
38 -69 66 19 19 30 22 94 18 70 -3 78 -7 406 -172 489 -247 564 -298 813 -551
148 -150 148 -150 96 -60 -129 222 -268 396 -392 490 -45 35 -114 72 -205 110
-201 85 -443 202 -469 227 -31 29 -30 58 0 58 34 0 145 -40 303 -108 77 -34
182 -73 234 -88 52 -15 137 -44 190 -65 95 -38 95 -38 40 12 -100 91 -155 129
-186 129 -17 0 -80 28 -157 71 -213 118 -349 156 -446 125z"/>
<path d="M4542 6864 c-168 -37 -386 -129 -533 -227 -181 -120 -276 -219 -423
-442 -51 -77 -147 -212 -212 -300 -219 -293 -256 -356 -293 -502 -52 -203 -54
-503 -7 -758 36 -195 33 -250 -11 -213 -20 16 -95 174 -119 252 -28 90 -28 57
1 -56 15 -56 45 -141 67 -188 22 -47 46 -110 54 -140 29 -106 112 -207 214
-259 96 -49 119 -67 282 -222 233 -222 340 -299 415 -299 56 0 53 48 -8 136
-17 25 -40 68 -51 97 -12 28 -50 91 -85 138 -121 166 -145 264 -125 526 9 126
17 164 47 253 19 58 51 182 71 275 44 218 75 329 130 477 44 118 56 197 32
199 -29 3 -45 -4 -76 -34 -81 -78 -151 -289 -212 -645 -17 -101 -36 -194 -42
-207 -13 -28 -43 -33 -52 -9 -11 30 -6 219 9 313 27 165 95 444 121 498 42 88
142 163 217 163 22 0 59 19 145 74 86 56 340 183 460 230 123 48 257 82 421
105 103 15 138 23 148 37 18 24 13 35 -27 59 -28 16 -52 19 -135 19 -169 -2
-334 -45 -589 -156 -179 -77 -201 -85 -316 -109 -101 -22 -210 -67 -282 -117
-24 -16 -121 -107 -217 -202 -161 -160 -176 -179 -212 -255 -83 -176 -105
-382 -76 -705 23 -257 29 -403 18 -420 -9 -13 -13 -13 -37 0 -49 28 -64 72
-64 195 0 61 -7 163 -15 226 -52 391 -13 648 132 866 44 67 186 239 327 398
106 119 116 135 116 196 0 76 75 187 197 292 186 160 423 271 725 342 149 34
193 71 122 104 -33 15 -174 12 -252 -5z m-967 -1424 c3 -11 -7 -70 -24 -132
-50 -190 -64 -283 -65 -423 0 -105 5 -147 23 -215 29 -105 37 -228 23 -342
-16 -128 -51 -181 -93 -142 -17 15 -19 34 -19 163 0 80 -6 202 -14 271 -25
217 -28 282 -17 390 18 170 61 318 122 417 23 37 54 44 64 13z"/>
<path d="M4865 6744 c-36 -22 -141 -63 -265 -104 -323 -106 -496 -202 -655
-365 -133 -136 -168 -215 -95 -215 48 0 79 21 158 109 123 136 314 246 575
330 422 137 545 132 927 -36 196 -87 418 -200 505 -258 199 -133 420 -370 681
-730 135 -187 208 -386 239 -650 33 -283 9 -532 -89 -910 -30 -115 -73 -371
-64 -380 4 -4 62 193 125 420 80 290 113 526 114 810 0 208 -9 307 -46 492
-37 182 -55 222 -125 283 -33 28 -112 122 -177 208 -205 272 -427 481 -660
621 -49 28 -236 126 -418 217 -366 183 -397 194 -570 194 -97 0 -102 -1 -160
-36z"/>
<path d="M4891 6459 c-224 -26 -512 -131 -717 -261 -75 -47 -126 -101 -117
-124 12 -31 89 -11 253 66 285 133 487 186 675 178 80 -4 113 -10 165 -32 36
-16 138 -57 228 -92 89 -35 203 -84 252 -110 82 -42 90 -49 96 -81 12 -64 81
-123 144 -123 57 0 30 49 -62 111 -58 39 -60 43 -42 56 45 34 143 -22 185
-105 15 -30 64 -92 115 -145 227 -233 366 -433 459 -660 125 -306 153 -693 69
-952 -32 -95 -226 -550 -306 -715 -80 -165 -80 -165 -82 -263 -3 -93 -5 -101
-49 -190 -56 -112 -157 -233 -277 -329 -191 -155 -516 -272 -1025 -368 -88
-17 -198 -39 -245 -50 -85 -20 -85 -20 160 -16 274 5 385 19 620 81 282 75
456 165 652 337 154 136 275 307 403 570 98 204 130 287 224 591 120 388 148
549 138 802 -9 244 -50 420 -141 610 -57 120 -175 301 -283 435 -96 120 -366
394 -432 437 -59 39 -429 206 -596 268 -189 70 -318 91 -464 74z"/>
<path d="M5165 6040 c-38 -11 -139 -33 -224 -50 -237 -48 -395 -106 -567 -211
-111 -66 -193 -144 -232 -217 -67 -125 -143 -348 -190 -557 -81 -356 -108
-557 -93 -694 15 -141 46 -223 109 -293 56 -62 120 -86 150 -56 19 19 15 46
-23 159 -66 195 -77 317 -50 559 39 339 104 580 202 750 78 134 245 271 420
344 224 93 531 134 693 92 93 -25 212 -85 352 -178 230 -153 374 -332 482
-598 23 -57 90 -274 147 -480 27 -99 23 -342 -7 -442 -8 -27 -41 -22 -61 8
-14 22 -18 60 -23 198 -7 192 -16 229 -63 234 -40 5 -51 -30 -81 -263 -15
-110 -33 -227 -42 -260 -38 -143 -156 -308 -278 -387 -66 -42 -173 -79 -381
-131 -224 -56 -338 -71 -495 -64 -242 11 -380 64 -599 230 -140 106 -159 117
-208 117 -81 0 -110 -30 -81 -83 18 -35 161 -208 209 -253 89 -85 209 -154
349 -200 82 -27 93 -28 285 -29 228 0 295 11 549 91 172 54 235 63 259 39 9
-9 17 -20 17 -25 0 -20 -91 -84 -184 -129 -310 -151 -709 -214 -975 -155 -90
20 -198 81 -331 185 -63 50 -128 97 -143 105 -16 9 -76 18 -145 23 -171 12
-192 23 -554 296 -105 80 -199 145 -208 145 -8 0 -33 9 -53 19 -37 19 -37 19
-7 -15 16 -19 57 -75 91 -125 131 -195 265 -334 455 -474 188 -137 225 -156
339 -165 102 -8 184 -36 227 -77 35 -33 36 -56 1 -74 -88 -47 -393 37 -612
168 -53 32 -123 70 -156 85 -60 28 -60 28 52 -81 113 -110 216 -185 351 -257
41 -21 93 -58 117 -81 76 -73 133 -78 297 -29 180 54 183 55 393 81 354 44
534 84 730 164 188 77 319 172 431 313 30 37 96 103 145 146 146 125 235 254
335 489 48 112 60 132 113 182 52 49 62 65 83 131 20 66 23 94 23 245 -1 150
-4 184 -29 290 -42 180 -80 287 -151 430 -123 246 -295 449 -454 535 -46 25
-111 64 -145 87 -33 23 -90 62 -126 87 -79 53 -168 91 -266 111 -88 18 -82 18
-169 -5z m-1238 -2744 c54 -26 89 -66 79 -91 -7 -20 -47 -11 -105 24 -50 30
-67 51 -58 75 8 22 23 20 84 -8z"/>
<path d="M4979 5750 c-83 -14 -201 -50 -274 -84 -247 -114 -400 -309 -470
-600 -41 -169 -74 -593 -55 -711 15 -93 52 -202 102 -297 68 -132 223 -260
391 -323 332 -124 848 -26 1090 209 101 98 152 203 217 447 22 84 52 180 66
213 55 129 56 137 50 222 -12 157 -84 350 -187 499 -131 190 -372 361 -586
416 -80 20 -251 25 -344 9z m234 -141 c256 -39 495 -228 613 -485 95 -205 88
-424 -20 -687 -114 -275 -114 -276 -230 -356 -96 -66 -198 -116 -303 -148 -78
-23 -105 -27 -238 -27 -173 -1 -233 11 -361 74 -139 68 -263 201 -321 344 -40
96 -34 190 11 173 8 -3 46 -48 84 -99 169 -229 357 -327 607 -315 121 6 234
39 322 96 69 44 217 205 263 286 56 98 100 259 100 366 0 88 -29 200 -77 298
-36 73 -62 109 -122 170 -138 139 -270 196 -456 196 -136 0 -225 -26 -331 -97
-234 -157 -316 -486 -173 -701 64 -98 186 -184 300 -213 230 -59 464 89 509
323 17 85 6 159 -36 242 -38 77 -79 117 -157 158 -69 37 -190 40 -252 6 -116
-62 -163 -178 -114 -279 26 -55 72 -84 133 -84 61 0 106 39 106 93 0 43 -22
62 -69 62 -30 0 -37 4 -39 22 -2 14 7 33 23 49 23 23 33 26 74 22 91 -9 151
-84 151 -189 -1 -70 -26 -126 -79 -171 -52 -44 -113 -62 -189 -55 -72 6 -124
32 -180 88 -61 62 -85 132 -80 234 8 135 81 246 201 305 179 88 383 47 525
-105 191 -204 189 -510 -4 -724 -111 -122 -240 -181 -398 -181 -162 0 -276 50
-433 190 -182 161 -198 194 -198 395 1 150 16 217 75 340 134 276 445 433 763
384z"/>
<path d="M5600 4235 c0 -8 7 -15 15 -15 8 0 15 7 15 15 0 8 -7 15 -15 15 -8 0
-15 -7 -15 -15z"/>
<path d="M5990 3244 c-25 -14 -70 -49 -100 -78 -297 -286 -551 -396 -1170
-506 -291 -52 -520 -114 -577 -156 -18 -14 -42 -28 -54 -32 -13 -5 38 -13 145
-22 223 -18 460 -4 671 40 510 104 787 228 1005 449 145 146 216 272 180 316
-18 22 -49 18 -100 -11z"/>
<path d="M3805 2721 c-30 -7 -30 -7 10 -14 67 -12 105 -9 105 8 0 16 -57 19
-115 6z"/>
</g>
</svg>
