<?xml version="1.0" standalone="no"?>
<!DOCTYPE svg PUBLIC "-//W3C//DTD SVG 20010904//EN"
 "http://www.w3.org/TR/2001/REC-SVG-20010904/DTD/svg10.dtd">
<svg version="1.0" xmlns="http://www.w3.org/2000/svg"
 width="1000.000000pt" height="1000.000000pt" viewBox="0 0 1000.000000 1000.000000"
 preserveAspectRatio="xMidYMid meet">
<metadata>
  <rdf:RDF
    xmlns:rdf = "http://www.w3.org/1999/02/22-rdf-syntax-ns#"
    xmlns:rdfs = "http://www.w3.org/2000/01/rdf-schema#"
    xmlns:dc = "http://purl.org/dc/elements/1.1/"
    xmlns:cc = "http://creativecommons.org/ns#">
    <cc:license rdf:resource="http://creativecommons.org/publicdomain/zero/1.0/deed.en"/>
    <cc:permits rdf:resource="http://creativecommons.org/ns#Reproduction"/>
    <rdf:Description about="https://nft.mir.one/fingerprints"
      dc:title="TON Fingerprints"
      dc:description="This is a unique digital fingerprint created based on the algorithm for generating basic rings using a noise texture. Like human fingerprints, you can now use it for the Web3 and Metaverse era as digital biometric information."
      dc:publisher="https://nft.mir.one"
      dc:date="2022-02-22"
      dc:format="image/svg+xml"
      dc:language="en" >
      <dc:creator>
      <rdf:Bag>
        <rdf:li>EQBondcvD2_aOFADXSWJHs4ZazQDuEl9_wNvGGPxI8hGuOFU</rdf:li>
        <rdf:li>ipfs://bafkreihj7iub3fhmhq6jn62noukt5wxn3gv6bvcg7wmt6ywvlurefezckq</rdf:li>
      </rdf:Bag>
      </dc:creator>
    </rdf:Description>
  </rdf:RDF>
</metadata>
<g transform="translate(0.000000,1000.000000) scale(0.100000,-0.100000)"
fill="#1b1f23" stroke="none">
<path d="M4711 7755 c-94 -15 -371 -81 -381 -92 -3 -3 9 -3 25 1 76 16 299 46
385 52 157 11 318 -10 637 -82 203 -45 316 -66 383 -69 95 -5 95 -5 30 14 -36
10 -152 44 -257 75 -279 81 -409 106 -583 111 -97 3 -176 -1 -239 -10z"/>
<path d="M4696 7559 c-199 -27 -396 -82 -594 -165 -193 -81 -341 -177 -546
-355 -4 -4 70 31 165 78 261 129 555 219 864 265 149 22 510 16 684 -11 358
-55 757 -143 899 -197 37 -14 94 -32 127 -39 33 -7 69 -17 80 -20 37 -14 -219
148 -305 192 -47 24 -141 62 -209 83 -136 44 -457 118 -651 150 -143 24 -408
34 -514 19z"/>
<path d="M4744 7260 c-302 -25 -640 -115 -889 -236 -156 -75 -349 -233 -542
-441 -102 -110 -102 -110 -30 -73 40 20 115 63 167 96 437 278 813 426 1220
480 151 20 478 14 635 -11 422 -67 761 -189 1048 -378 174 -113 217 -162 217
-244 0 -68 29 -176 69 -260 30 -62 58 -101 116 -160 76 -78 121 -144 162 -238
63 -144 89 -209 119 -295 18 -52 33 -91 33 -87 1 14 -58 242 -85 329 -45 143
-92 246 -166 361 -39 62 -84 140 -101 175 -28 60 -29 65 -20 151 7 71 6 93 -6
110 -13 20 -12 25 8 51 21 29 21 30 3 30 -11 0 -53 30 -93 66 -294 264 -372
312 -652 403 -386 124 -899 197 -1213 171z"/>
<path d="M4785 6964 c-211 -24 -364 -57 -525 -112 -335 -115 -789 -367 -927
-516 -107 -114 -207 -274 -260 -416 -23 -59 -75 -271 -69 -278 2 -1 10 0 18 3
19 8 34 38 67 145 45 141 138 262 305 396 176 141 537 343 846 473 428 180
886 199 1335 54 373 -120 624 -315 787 -613 20 -36 63 -135 97 -221 63 -159
94 -207 127 -195 14 5 16 17 11 79 -19 249 -34 300 -147 530 -82 165 -150 241
-307 344 -316 207 -788 337 -1207 332 -67 -1 -134 -4 -151 -5z"/>
<path d="M4749 6666 c-174 -26 -282 -60 -454 -145 -88 -44 -239 -118 -335
-164 -202 -98 -338 -177 -465 -271 -102 -75 -223 -190 -267 -254 -36 -53 -48
-116 -24 -125 26 -10 61 8 172 89 302 220 620 385 830 429 78 17 83 17 175 -3
52 -12 144 -26 204 -32 140 -14 168 -21 251 -70 38 -21 132 -64 210 -94 188
-72 273 -114 385 -187 113 -73 299 -257 377 -371 106 -155 191 -357 229 -545
14 -68 18 -133 17 -288 0 -178 -3 -214 -28 -330 -37 -180 -103 -371 -189 -549
-68 -143 -72 -155 -73 -225 -2 -72 -3 -76 -35 -103 -91 -76 -188 -113 -329
-123 -47 -3 -125 -13 -174 -21 -520 -85 -1031 14 -1343 260 -198 157 -418 487
-488 729 -35 126 -45 195 -45 333 0 257 61 435 236 691 46 67 102 161 124 208
46 96 80 129 216 212 280 170 594 199 954 87 470 -147 772 -443 887 -871 24
-89 27 -115 27 -293 1 -169 -2 -209 -22 -298 -49 -220 -145 -443 -287 -667
-79 -125 -89 -147 -83 -186 2 -20 10 -24 43 -27 32 -2 49 3 83 28 58 42 93 92
173 253 172 341 240 596 240 893 0 360 -118 662 -359 915 -166 175 -355 289
-667 402 -245 89 -384 114 -585 104 -200 -10 -242 -26 -813 -320 -126 -65
-252 -126 -280 -137 -105 -39 -150 -97 -201 -257 -130 -414 -107 -991 54
-1369 48 -113 112 -230 210 -383 94 -149 104 -171 83 -200 -12 -19 -23 -22
-54 -19 -22 2 -39 3 -39 2 0 -1 17 -13 38 -25 20 -13 93 -77 162 -144 191
-185 318 -273 452 -314 66 -20 498 -96 714 -125 334 -46 534 -23 542 61 3 26
-2 32 -32 47 -20 9 -84 21 -148 27 -344 30 -440 41 -575 64 -177 31 -382 83
-488 125 -244 97 -417 230 -464 355 -31 83 -64 139 -180 300 -129 181 -180
267 -230 391 -72 179 -94 354 -72 577 34 352 138 584 333 747 97 81 172 123
221 124 69 2 60 -22 -50 -136 -118 -123 -168 -188 -222 -288 -79 -148 -120
-310 -128 -506 -11 -266 47 -487 191 -727 94 -157 261 -392 334 -469 217 -230
598 -359 1177 -397 88 -6 228 -18 310 -27 177 -19 250 -15 365 21 209 67 409
200 568 380 86 97 121 162 152 283 16 59 37 130 48 157 22 56 102 373 127 505
55 292 35 595 -59 875 -40 119 -88 216 -179 367 -197 324 -389 513 -653 646
-238 119 -494 162 -715 119 -127 -25 -304 -47 -376 -47 -59 0 -63 1 -63 23 0
43 54 75 176 106 237 59 493 71 684 32 352 -73 634 -246 846 -517 74 -95 290
-438 339 -539 108 -223 168 -565 146 -837 -13 -154 -32 -254 -77 -405 -19 -65
-39 -153 -44 -196 -7 -61 -21 -103 -60 -187 -53 -116 -59 -140 -35 -160 25
-21 57 1 141 99 95 113 191 181 195 139 3 -29 -5 -46 -47 -104 -64 -91 -139
-170 -208 -219 -80 -56 -155 -136 -303 -320 -137 -171 -191 -225 -291 -289
-96 -61 -152 -89 -319 -156 -79 -32 -187 -83 -241 -113 -139 -79 -188 -92
-352 -91 -113 0 -180 8 -405 47 -149 26 -336 51 -415 57 -80 6 -174 17 -210
25 -36 7 -92 16 -125 19 -60 5 -60 5 25 -40 148 -78 212 -102 295 -113 44 -5
170 -32 280 -59 510 -127 512 -127 630 -126 136 1 250 23 424 80 197 65 393
166 667 345 94 62 128 79 157 79 19 0 69 13 109 29 58 24 69 31 53 37 -11 4
-28 14 -38 22 -15 14 -22 13 -70 -11 -29 -15 -60 -27 -69 -27 -24 0 -31 32
-18 82 28 102 96 200 258 370 167 177 263 323 292 448 7 30 35 118 62 195 27
77 66 205 86 285 37 145 37 145 37 450 0 244 -4 327 -18 415 -57 353 -163 685
-233 731 -23 16 -26 16 -42 1 -17 -18 -20 7 41 -332 8 -44 35 -159 60 -255 66
-257 81 -375 82 -625 0 -232 -10 -303 -67 -470 -52 -154 -93 -219 -172 -276
-43 -32 -76 -38 -76 -14 0 9 19 52 41 98 123 243 173 510 150 790 -19 232 -60
421 -134 617 -26 72 -42 97 -102 160 -50 54 -86 106 -124 180 -192 369 -350
538 -636 680 -245 121 -439 168 -715 175 -118 3 -206 0 -271 -9z m381 -411
c434 -91 798 -396 1025 -860 63 -129 105 -249 137 -395 30 -141 32 -470 4
-625 -65 -356 -181 -684 -290 -818 -57 -69 -143 -116 -181 -99 -32 15 -31 26
5 58 79 71 177 248 245 444 145 419 165 841 55 1180 -84 260 -263 534 -460
705 -178 155 -366 250 -645 325 -66 18 -128 36 -137 41 -25 13 -22 38 5 49 35
14 159 11 237 -5z"/>
<path d="M6758 6373 c36 -45 92 -100 92 -90 0 15 -96 127 -108 127 -8 0 -2
-15 16 -37z"/>
<path d="M4443 5718 c-155 -13 -324 -74 -447 -162 -109 -77 -231 -225 -346
-417 -188 -312 -199 -694 -30 -1030 90 -176 276 -392 418 -484 225 -144 484
-213 762 -202 200 8 335 52 420 137 90 90 224 288 305 450 107 213 159 420
158 635 -1 261 -83 487 -250 682 -224 262 -627 421 -990 391z m377 -193 c327
-74 593 -312 690 -620 31 -98 39 -306 16 -427 -46 -246 -158 -467 -322 -638
-128 -133 -241 -190 -420 -212 -317 -39 -664 109 -876 372 -80 99 -168 268
-200 385 -28 105 -32 338 -6 430 48 173 111 278 261 432 155 159 313 254 472
282 33 6 71 13 85 15 48 9 226 -3 300 -19z"/>
<path d="M4590 5404 c-200 -34 -304 -89 -450 -238 -47 -48 -99 -93 -116 -101
-121 -51 -197 -216 -198 -425 0 -175 44 -319 144 -469 169 -252 441 -393 730
-378 173 9 308 68 429 187 205 202 339 594 287 839 -57 268 -292 502 -569 566
-67 15 -215 27 -257 19z m236 -175 c102 -18 212 -77 298 -159 63 -61 85 -90
124 -168 45 -91 47 -98 47 -183 0 -82 -2 -90 -26 -115 -35 -34 -49 -24 -49 34
-1 208 -178 419 -388 463 -156 32 -318 -37 -368 -157 -32 -76 0 -265 58 -345
51 -71 143 -97 205 -59 61 36 71 104 21 128 -48 22 -29 62 29 62 42 0 99 -55
109 -105 27 -147 -78 -265 -237 -265 -229 0 -393 253 -351 542 14 98 42 158
99 216 99 98 265 141 429 111z m-714 -251 c8 -15 13 -75 14 -175 3 -174 16
-241 71 -353 148 -304 539 -390 752 -165 73 77 96 131 95 225 0 124 -58 238
-152 304 -58 41 -152 48 -230 17 -29 -12 -62 -21 -73 -21 -59 0 -14 86 67 126
48 23 63 26 127 22 138 -9 232 -83 317 -249 27 -53 63 -109 80 -122 25 -21 30
-33 30 -70 0 -144 -121 -346 -263 -438 -96 -62 -174 -84 -302 -84 -123 0 -171
12 -290 73 -84 43 -213 167 -264 255 -83 142 -115 311 -89 468 20 123 53 209
78 209 11 0 25 -10 32 -22z"/>
<path d="M6599 3372 c-197 -198 -239 -253 -239 -312 0 -39 13 -38 41 3 13 17
53 65 90 105 82 88 322 403 307 402 -2 0 -91 -89 -199 -198z"/>
<path d="M5930 2506 c-25 -13 -56 -37 -70 -52 -25 -27 -25 -27 20 3 25 17 61
40 80 51 47 29 26 27 -30 -2z"/>
<path d="M4105 2487 c29 -21 201 -93 306 -127 49 -16 146 -40 216 -54 71 -13
136 -28 146 -31 23 -10 23 17 -1 38 -25 23 -56 33 -217 67 -122 26 -391 95
-450 115 -20 7 -20 7 0 -8z"/>
<path d="M5538 2283 c6 -2 18 -2 25 0 6 3 1 5 -13 5 -14 0 -19 -2 -12 -5z"/>
<path d="M5245 2239 c-252 -44 -277 -50 -180 -43 87 6 286 38 385 63 123 31
31 22 -205 -20z"/>
<path d="M4958 2183 c6 -2 18 -2 25 0 6 3 1 5 -13 5 -14 0 -19 -2 -12 -5z"/>
</g>
</svg>
