<?xml version="1.0" standalone="no"?>
<!DOCTYPE svg PUBLIC "-//W3C//DTD SVG 20010904//EN"
 "http://www.w3.org/TR/2001/REC-SVG-20010904/DTD/svg10.dtd">
<svg version="1.0" xmlns="http://www.w3.org/2000/svg"
 width="1000.000000pt" height="1000.000000pt" viewBox="0 0 1000.000000 1000.000000"
 preserveAspectRatio="xMidYMid meet">
<metadata>
  <rdf:RDF
    xmlns:rdf = "http://www.w3.org/1999/02/22-rdf-syntax-ns#"
    xmlns:rdfs = "http://www.w3.org/2000/01/rdf-schema#"
    xmlns:dc = "http://purl.org/dc/elements/1.1/"
    xmlns:cc = "http://creativecommons.org/ns#">
    <cc:license rdf:resource="http://creativecommons.org/publicdomain/zero/1.0/deed.en"/>
    <cc:permits rdf:resource="http://creativecommons.org/ns#Reproduction"/>
    <rdf:Description about="https://nft.mir.one/fingerprints"
      dc:title="TON Fingerprints"
      dc:description="This is a unique digital fingerprint created based on the algorithm for generating basic rings using a noise texture. Like human fingerprints, you can now use it for the Web3 and Metaverse era as digital biometric information."
      dc:publisher="https://nft.mir.one"
      dc:date="2022-02-22"
      dc:format="image/svg+xml"
      dc:language="en" >
      <dc:creator>
      <rdf:Bag>
        <rdf:li>EQBondcvD2_aOFADXSWJHs4ZazQDuEl9_wNvGGPxI8hGuOFU</rdf:li>
        <rdf:li>ipfs://bafkreihj7iub3fhmhq6jn62noukt5wxn3gv6bvcg7wmt6ywvlurefezckq</rdf:li>
      </rdf:Bag>
      </dc:creator>
    </rdf:Description>
  </rdf:RDF>
</metadata>
<g transform="translate(0.000000,1000.000000) scale(0.100000,-0.100000)"
fill="#1b1f23" stroke="none">
<path d="M4755 7680 c-201 -8 -246 -19 -490 -110 -129 -48 -296 -119 -283
-120 10 0 163 36 338 80 217 54 276 60 582 60 309 0 461 -11 638 -46 118 -24
452 -130 568 -180 28 -13 52 -21 52 -19 0 7 -218 125 -310 168 -125 59 -282
111 -406 136 -96 20 -370 43 -464 39 -25 -1 -126 -5 -225 -8z"/>
<path d="M4565 7454 c-238 -32 -359 -71 -833 -267 -83 -34 -83 -34 -30 -40 69
-6 177 11 439 73 360 84 554 110 815 110 367 0 656 -63 962 -210 307 -148 603
-348 781 -530 65 -65 65 -65 23 -3 -192 282 -518 563 -827 709 -168 80 -391
139 -617 163 -136 15 -590 12 -713 -5z"/>
<path d="M4705 7199 c-245 -24 -853 -158 -974 -215 -106 -49 -193 -110 -317
-220 -60 -53 -111 -99 -113 -101 -3 -2 12 3 32 12 20 8 45 15 55 15 11 0 57
18 103 39 223 104 722 243 1079 300 367 59 701 46 960 -39 116 -38 154 -58
393 -206 312 -194 460 -313 601 -484 173 -208 259 -397 259 -570 1 -323 -3
-408 -21 -430 -25 -31 -47 -18 -94 62 -25 42 -63 88 -97 116 -146 123 -242
246 -301 388 -18 43 -46 99 -63 124 -67 97 -225 232 -357 303 -175 95 -508
167 -768 167 -99 0 -123 -3 -142 -18 -53 -43 9 -74 218 -107 348 -56 516 -113
702 -238 115 -77 214 -183 328 -352 56 -82 149 -211 208 -285 146 -186 228
-306 249 -365 41 -116 27 -368 -29 -533 -31 -90 -43 -112 -148 -276 -104 -162
-186 -272 -270 -361 -75 -81 -347 -322 -396 -353 -46 -28 -143 -59 -247 -78
-115 -22 -382 -29 -501 -14 -131 16 -338 68 -504 126 -242 84 -320 134 -369
238 -25 53 -45 77 -119 140 -170 143 -254 248 -378 471 -102 185 -146 281
-185 406 -45 146 -52 159 -93 159 -42 0 -63 -28 -77 -106 -18 -99 23 -226 120
-368 61 -90 94 -155 116 -230 43 -152 143 -295 359 -514 176 -179 236 -222
355 -258 47 -15 181 -62 298 -105 398 -149 551 -184 798 -183 147 0 187 4 295
28 69 14 172 36 230 47 58 10 131 25 164 31 182 35 397 207 551 438 152 230
206 395 159 494 -16 33 -15 38 20 162 51 182 61 237 102 561 44 338 47 461 16
573 -11 41 -26 116 -32 165 -28 233 -108 441 -251 656 -113 168 -278 310 -551
474 -328 197 -564 283 -869 315 -111 11 -377 11 -504 -1z m2015 -2909 c0 -31
-110 -244 -178 -345 -125 -186 -292 -349 -428 -416 -68 -34 -117 -36 -122 -6
-5 24 6 36 133 142 176 148 247 228 394 449 49 72 105 146 125 164 42 37 76
42 76 12z"/>
<path d="M4835 6939 c-212 -20 -534 -86 -790 -164 -237 -72 -519 -195 -612
-266 -101 -79 -248 -264 -373 -474 -24 -39 -24 -39 15 -3 148 135 201 173 310
220 44 19 139 71 212 116 285 176 537 276 893 356 442 99 696 107 1003 30 86
-21 177 -56 177 -68 0 -3 -7 -12 -16 -20 -21 -22 -86 -20 -262 5 -224 33 -399
25 -644 -29 -490 -108 -697 -183 -928 -336 -133 -89 -200 -162 -253 -278 -24
-51 -82 -160 -128 -243 -47 -82 -110 -195 -140 -250 -54 -100 -123 -185 -150
-185 -8 0 -21 5 -29 10 -38 24 62 262 209 497 103 167 126 216 111 243 -15 29
-54 25 -106 -11 -89 -61 -178 -207 -243 -397 -48 -138 -63 -231 -55 -337 4
-63 1 -120 -10 -190 -46 -291 -66 -620 -47 -785 24 -205 94 -427 209 -660 60
-122 75 -144 157 -230 50 -52 136 -147 192 -210 179 -204 352 -334 669 -501
66 -35 165 -91 221 -125 142 -86 225 -108 403 -109 152 0 225 14 271 52 38 32
39 74 3 102 -14 11 -57 30 -94 42 -62 20 -70 26 -86 61 -10 22 -31 51 -48 65
-16 14 -127 73 -245 132 -310 153 -406 220 -494 341 -22 30 -135 150 -252 265
-217 216 -293 303 -396 457 -33 49 -87 118 -119 154 -70 78 -93 138 -84 219 8
62 -15 140 -53 185 -29 36 -43 37 -69 9 -17 -19 -19 -37 -18 -158 0 -126 3
-143 33 -231 37 -111 127 -273 216 -392 87 -116 535 -555 716 -701 178 -144
489 -306 695 -360 72 -19 89 -28 89 -43 0 -50 -140 -60 -262 -19 -92 31 -292
132 -439 221 -172 104 -331 230 -548 433 -45 42 -134 123 -200 180 -169 149
-239 245 -344 476 -83 182 -104 301 -83 470 8 72 19 106 51 170 22 45 51 125
64 182 35 142 59 193 150 312 55 73 116 174 202 338 200 378 289 507 425 617
206 164 451 264 804 326 66 12 130 27 141 33 135 75 120 71 259 75 107 3 171
-2 360 -28 253 -34 339 -58 450 -122 116 -66 194 -127 315 -243 63 -61 142
-130 175 -152 94 -64 150 -136 213 -276 33 -72 54 -84 74 -42 27 59 -49 250
-150 377 -191 240 -413 426 -681 568 -80 43 -114 68 -153 113 -62 71 -150 116
-298 151 -180 43 -373 55 -585 35z"/>
<path d="M4590 6275 c-445 -93 -757 -359 -944 -804 -97 -231 -100 -299 -22
-534 105 -319 253 -554 446 -710 101 -81 166 -110 371 -162 245 -62 343 -78
489 -78 312 1 501 122 733 468 33 49 80 116 103 148 73 99 88 151 88 302 0
120 -2 137 -31 218 -43 121 -85 189 -173 277 -113 113 -295 213 -476 261 -114
30 -290 31 -399 0 -128 -36 -209 -83 -305 -180 -177 -178 -221 -362 -170 -709
23 -156 47 -210 125 -279 58 -51 183 -115 270 -138 207 -55 396 -18 602 117
163 107 241 204 278 343 41 158 -6 359 -111 475 -45 50 -41 75 11 67 128 -21
251 -275 230 -476 -16 -154 -100 -308 -249 -456 -147 -147 -293 -222 -476
-247 -203 -27 -490 43 -678 165 -123 80 -306 233 -351 293 -59 79 -108 187
-137 303 -71 278 10 566 230 825 121 141 332 270 531 323 193 51 486 31 765
-54 286 -86 494 -233 677 -478 230 -307 320 -558 293 -816 -23 -224 -121 -457
-252 -601 -49 -53 -352 -290 -409 -319 -35 -17 -39 -17 -54 -3 -27 28 -6 68
105 194 94 107 92 103 100 178 5 47 20 97 50 163 49 107 63 185 35 195 -32 13
-69 -33 -163 -196 -104 -183 -161 -259 -262 -353 -196 -181 -471 -213 -895
-102 -188 49 -245 57 -283 44 -39 -13 -42 -40 -8 -74 67 -67 333 -160 591
-206 159 -28 406 -23 530 10 45 13 133 25 200 30 147 9 189 26 325 132 207
160 362 349 470 572 83 174 110 281 110 446 0 190 -49 318 -215 566 -225 335
-358 485 -523 593 -165 107 -298 153 -662 228 -253 53 -395 63 -510 39z m534
-775 c89 -23 178 -67 231 -115 32 -30 35 -38 30 -67 -5 -25 4 -65 31 -148 34
-101 38 -127 39 -215 0 -82 -4 -111 -24 -164 -37 -96 -119 -173 -137 -127 -3
8 9 56 27 108 44 125 45 236 4 348 -61 165 -147 241 -292 256 -158 17 -316
-72 -380 -214 -36 -77 -39 -213 -7 -283 50 -108 140 -169 252 -169 76 0 125
22 174 80 81 94 76 237 -9 278 -31 15 -37 15 -61 1 -34 -19 -42 -58 -13 -66
29 -7 35 -33 13 -62 -58 -78 -182 -16 -182 90 0 96 102 186 202 176 76 -7 136
-50 175 -126 29 -55 33 -72 33 -142 0 -106 -46 -253 -96 -309 -126 -139 -404
-123 -548 30 -178 190 -161 533 35 714 138 128 318 173 503 126z"/>
<path d="M4690 5964 c-362 -77 -635 -332 -721 -673 -30 -120 -24 -310 15 -428
42 -129 117 -224 165 -208 33 10 36 49 11 164 -70 323 -9 562 195 766 150 149
317 221 541 232 356 18 743 -166 931 -442 136 -202 187 -399 163 -630 -7 -66
-14 -167 -14 -225 -1 -105 -1 -105 -60 -227 -34 -70 -56 -128 -53 -137 15 -38
87 0 141 73 57 77 104 188 133 311 24 100 27 136 27 275 -1 132 -4 174 -22
239 -69 250 -253 519 -462 675 -215 160 -508 252 -798 250 -70 0 -156 -7 -192
-15z"/>
<path d="M6367 5923 c-27 -26 25 -133 121 -249 54 -66 108 -102 136 -91 24 10
19 51 -10 78 -14 13 -58 70 -96 127 -84 122 -126 160 -151 135z"/>
<path d="M6998 5748 c-2 -57 -1 -112 3 -123 4 -11 8 35 8 103 1 67 -1 122 -3
122 -2 0 -6 -46 -8 -102z"/>
<path d="M7091 5024 c0 -11 3 -14 6 -6 3 7 2 16 -1 19 -3 4 -6 -2 -5 -13z"/>
<path d="M7052 4847 c-50 -211 -100 -445 -127 -594 -29 -156 -65 -258 -138
-397 -149 -280 -367 -505 -590 -606 -114 -51 -418 -134 -612 -166 -138 -22
-326 -14 -450 20 -165 45 -370 123 -639 243 -127 57 -182 77 -216 77 -41 1
-45 -1 -48 -25 -6 -54 137 -149 428 -285 96 -45 245 -118 331 -163 85 -44 182
-90 214 -101 105 -36 267 -23 500 41 218 59 501 152 560 182 79 41 268 230
355 354 189 271 297 530 371 883 49 237 113 680 98 680 -2 0 -19 -64 -37 -143z"/>
<path d="M3367 4433 c-15 -14 -6 -72 16 -104 27 -40 52 -48 66 -21 25 48 -48
159 -82 125z"/>
<path d="M3439 3135 c109 -126 154 -174 236 -244 159 -137 305 -231 484 -311
159 -71 221 -84 221 -45 0 31 -53 64 -283 178 -127 63 -268 139 -312 169 -136
92 -237 167 -310 231 -54 47 -62 52 -36 22z"/>
<path d="M6070 2846 c-52 -19 -151 -54 -220 -80 -69 -25 -190 -66 -270 -90
-80 -25 -166 -59 -193 -75 -54 -35 -89 -84 -85 -121 3 -21 9 -25 43 -28 54 -5
137 12 270 55 151 48 293 117 438 212 145 95 179 111 185 93 6 -20 32 6 32 33
0 47 -71 47 -200 1z"/>
<path d="M6349 2853 c-13 -16 -12 -17 4 -4 16 13 21 21 13 21 -2 0 -10 -8 -17
-17z"/>
<path d="M4345 2424 c-27 -7 -72 -14 -100 -15 -50 -1 -50 -1 15 -14 515 -105
675 -127 910 -127 107 1 238 4 290 8 95 7 95 7 30 24 -84 22 -130 43 -170 76
-37 32 -51 33 -207 15 -126 -15 -278 -6 -490 29 -137 23 -208 24 -278 4z"/>
</g>
</svg>
