<?xml version="1.0" standalone="no"?>
<!DOCTYPE svg PUBLIC "-//W3C//DTD SVG 20010904//EN"
 "http://www.w3.org/TR/2001/REC-SVG-20010904/DTD/svg10.dtd">
<svg version="1.0" xmlns="http://www.w3.org/2000/svg"
 width="1000.000000pt" height="1000.000000pt" viewBox="0 0 1000.000000 1000.000000"
 preserveAspectRatio="xMidYMid meet">
<metadata>
  <rdf:RDF
    xmlns:rdf = "http://www.w3.org/1999/02/22-rdf-syntax-ns#"
    xmlns:rdfs = "http://www.w3.org/2000/01/rdf-schema#"
    xmlns:dc = "http://purl.org/dc/elements/1.1/"
    xmlns:cc = "http://creativecommons.org/ns#">
    <cc:license rdf:resource="http://creativecommons.org/publicdomain/zero/1.0/deed.en"/>
    <cc:permits rdf:resource="http://creativecommons.org/ns#Reproduction"/>
    <rdf:Description about="https://nft.mir.one/fingerprints"
      dc:title="TON Fingerprints"
      dc:description="This is a unique digital fingerprint created based on the algorithm for generating basic rings using a noise texture. Like human fingerprints, you can now use it for the Web3 and Metaverse era as digital biometric information."
      dc:publisher="https://nft.mir.one"
      dc:date="2022-02-22"
      dc:format="image/svg+xml"
      dc:language="en" >
      <dc:creator>
      <rdf:Bag>
        <rdf:li>EQBondcvD2_aOFADXSWJHs4ZazQDuEl9_wNvGGPxI8hGuOFU</rdf:li>
        <rdf:li>ipfs://bafkreihj7iub3fhmhq6jn62noukt5wxn3gv6bvcg7wmt6ywvlurefezckq</rdf:li>
      </rdf:Bag>
      </dc:creator>
    </rdf:Description>
  </rdf:RDF>
</metadata>
<g transform="translate(0.000000,1000.000000) scale(0.100000,-0.100000)"
fill="#1b1f23" stroke="none">
<path d="M5138 7813 c12 -2 32 -2 45 0 12 2 2 4 -23 4 -25 0 -35 -2 -22 -4z"/>
<path d="M4491 7655 c-163 -59 -353 -151 -471 -230 -101 -67 -260 -199 -400
-333 -85 -81 -85 -81 40 1 69 45 161 109 205 142 124 93 269 176 426 245 251
110 323 151 350 201 15 28 -8 24 -150 -26z"/>
<path d="M4839 7606 c-72 -19 -136 -62 -179 -121 -22 -30 -51 -61 -63 -69 -12
-8 -87 -40 -167 -72 -337 -134 -600 -304 -816 -526 -305 -313 -514 -718 -650
-1258 -41 -164 -43 -192 -5 -83 15 45 38 98 50 118 11 20 37 75 57 123 92 223
253 498 400 682 251 313 625 587 949 696 140 47 252 57 474 44 335 -20 510
-59 711 -160 41 -21 103 -45 138 -54 92 -23 146 -58 247 -160 100 -101 176
-207 288 -403 42 -73 90 -153 107 -178 32 -47 82 -80 106 -71 32 12 5 127 -68
286 -50 109 -183 345 -234 417 -114 160 -352 316 -614 402 -176 58 -339 84
-635 100 -166 9 -210 20 -221 54 -17 53 115 82 361 81 298 0 566 -55 766 -155
142 -71 444 -315 498 -403 11 -17 25 -60 31 -95 8 -46 35 -111 94 -225 110
-215 140 -348 101 -443 -21 -50 -20 -62 20 -184 50 -154 82 -285 95 -381 10
-74 9 -100 -14 -238 -13 -85 -30 -209 -36 -275 -15 -159 -44 -325 -71 -405
-47 -144 -203 -409 -337 -575 -88 -107 -234 -247 -376 -358 -72 -56 -171 -136
-220 -178 -117 -97 -164 -128 -272 -183 -161 -80 -485 -200 -682 -251 -251
-65 -402 -39 -739 130 -280 140 -460 265 -451 314 6 32 45 20 168 -49 261
-149 490 -249 648 -286 97 -23 231 -20 281 6 45 23 54 52 21 70 -11 6 -68 20
-127 30 -242 45 -393 97 -643 221 -97 48 -229 112 -292 142 -95 45 -128 67
-191 127 -93 87 -164 179 -252 325 -87 143 -103 174 -120 238 -7 28 -14 42
-14 31 -1 -34 43 -179 94 -304 61 -152 125 -272 222 -416 43 -66 94 -145 112
-176 42 -75 94 -136 161 -191 49 -40 447 -274 583 -344 117 -59 338 -87 512
-64 146 19 231 46 330 106 50 30 149 81 220 115 316 148 423 212 661 398 323
253 473 419 704 777 179 278 199 298 270 276 56 -17 53 -41 -21 -131 -34 -41
-120 -163 -192 -270 -202 -304 -348 -471 -572 -655 -285 -234 -465 -344 -803
-491 -137 -60 -192 -95 -192 -123 0 -63 90 -53 324 39 331 130 685 368 971
655 148 147 245 271 360 460 43 72 109 177 146 235 79 122 95 156 104 225 3
28 18 100 33 160 23 98 26 130 27 300 0 208 -10 272 -65 425 -17 44 -49 151
-73 237 -25 87 -67 232 -95 323 -27 91 -64 233 -81 315 -35 171 -62 234 -167
390 -75 111 -98 163 -82 183 13 15 72 16 99 2 36 -20 19 -1 -28 31 -27 18
-104 87 -173 154 -200 193 -403 359 -495 405 -148 73 -366 134 -575 160 -114
14 -384 12 -441 -4z m2036 -2290 c58 -88 66 -389 14 -535 -22 -65 -67 -125
-97 -129 -36 -6 -42 46 -21 194 10 71 22 201 27 290 5 88 15 171 21 182 15 29
37 28 56 -2z"/>
<path d="M3499 6983 c-13 -16 -12 -17 4 -4 9 7 17 15 17 17 0 8 -8 3 -21 -13z"/>
<path d="M4615 6964 c-439 -77 -908 -443 -1200 -935 -215 -362 -398 -821 -352
-884 12 -15 16 -16 39 -4 14 8 71 62 126 122 108 116 126 146 264 435 90 189
137 273 223 397 170 245 386 436 631 559 188 94 371 136 589 136 171 0 272
-18 480 -84 94 -30 188 -59 210 -65 82 -21 246 -184 363 -361 83 -123 203
-368 245 -497 59 -182 71 -293 63 -598 -9 -388 -29 -512 -108 -670 -139 -277
-426 -553 -661 -635 -80 -28 -331 -77 -469 -91 -201 -21 -411 15 -583 101 -78
39 -369 250 -549 398 -49 40 -114 90 -146 112 -77 52 -134 119 -175 205 -33
69 -48 120 -100 341 -30 127 -48 163 -105 200 -52 34 -89 35 -133 1 -51 -39
-115 -139 -123 -193 -21 -142 37 -291 105 -269 25 8 31 33 31 136 0 148 38
279 81 279 16 0 19 -8 20 -47 0 -27 4 -138 9 -248 9 -224 12 -233 100 -420
131 -278 130 -276 210 -356 120 -118 309 -238 433 -274 64 -18 97 -13 97 15 0
25 -29 51 -120 107 -258 159 -462 357 -420 408 18 21 45 7 142 -77 51 -44 161
-131 244 -193 84 -63 175 -141 205 -175 60 -69 115 -101 244 -143 127 -42 202
-57 321 -64 124 -7 210 3 411 48 153 33 182 35 229 13 19 -9 44 -14 56 -10 39
10 229 134 326 213 239 194 445 475 536 731 83 234 130 812 83 1030 -26 121
-72 241 -126 329 -280 457 -360 570 -537 751 -78 81 -94 93 -119 90 -25 -3
-31 -9 -40 -47 -6 -25 -16 -46 -23 -49 -7 -2 -41 23 -75 55 -98 94 -226 145
-442 178 -126 19 -401 18 -510 -1z"/>
<path d="M4784 6624 c-383 -64 -736 -320 -953 -690 -85 -146 -151 -337 -151
-440 0 -47 4 -58 40 -99 53 -61 69 -94 136 -277 102 -277 190 -424 343 -579
255 -256 541 -382 831 -366 255 15 467 112 643 296 80 84 127 149 203 281 64
111 117 170 155 170 39 0 38 -16 -11 -129 -81 -189 -160 -312 -280 -431 -341
-342 -868 -406 -1291 -159 -173 101 -399 299 -507 444 -78 105 -143 247 -222
482 -39 116 -77 219 -84 229 -38 51 -116 -45 -101 -125 9 -54 132 -423 165
-496 59 -132 136 -224 325 -386 343 -295 560 -409 836 -439 196 -22 477 25
664 109 207 94 430 314 542 536 86 170 99 281 42 358 -21 29 -21 32 -8 121 18
116 18 445 0 546 -20 119 -50 224 -108 379 -83 222 -125 292 -240 402 -117
113 -232 175 -424 229 -178 49 -379 62 -545 34z m451 -183 c108 -22 228 -67
313 -118 93 -55 206 -163 237 -228 27 -54 27 -95 1 -95 -7 0 -48 30 -92 66
-148 124 -232 173 -374 219 -70 23 -108 29 -216 33 -159 5 -249 -14 -393 -84
-127 -60 -200 -115 -301 -221 -182 -192 -270 -414 -257 -653 13 -246 120 -497
287 -673 154 -165 337 -250 535 -250 338 1 620 256 676 612 18 118 -14 234
-85 309 -50 54 -78 64 -154 57 -78 -7 -484 37 -535 59 -18 7 -38 20 -46 29
-18 22 -46 21 -101 -4 -101 -45 -170 -151 -170 -262 0 -69 13 -110 54 -177 23
-36 38 -78 45 -117 5 -34 16 -74 24 -90 23 -43 76 -92 132 -121 44 -24 61 -27
150 -27 92 0 104 2 154 30 157 87 209 267 108 382 -47 53 -118 83 -197 83 -81
0 -139 -25 -201 -86 -36 -36 -52 -45 -74 -42 -36 4 -49 26 -41 70 10 56 55
114 110 144 111 61 358 37 489 -46 171 -108 163 -359 -17 -527 -236 -221 -572
-164 -775 131 -86 125 -143 301 -144 441 -1 122 24 214 93 349 31 61 67 139
80 174 31 84 84 141 221 236 150 105 182 118 299 124 164 8 313 -42 509 -172
53 -34 117 -75 143 -90 57 -33 94 -75 121 -136 26 -59 28 -153 5 -199 -22 -42
-22 -65 -2 -161 20 -99 20 -248 0 -328 -9 -34 -32 -97 -51 -140 -181 -411
-456 -622 -813 -622 -172 0 -312 43 -467 145 -219 143 -382 365 -475 645 -78
236 -97 399 -61 540 79 317 361 618 701 747 164 63 381 80 555 44z m-170
-1397 c26 -10 48 -62 41 -100 -14 -70 -108 -123 -189 -104 -76 17 -161 89
-155 131 5 36 46 36 110 0 61 -34 99 -39 122 -15 18 18 19 24 7 43 -21 33 19
62 64 45z"/>
<path d="M4960 6042 c-41 -20 -52 -55 -22 -71 11 -6 67 -17 125 -26 221 -33
355 -105 499 -269 85 -97 125 -127 170 -129 30 -2 33 1 36 31 14 146 -287 402
-549 466 -89 22 -214 21 -259 -2z"/>
<path d="M4812 5869 c-111 -22 -197 -129 -128 -160 19 -9 51 -6 143 11 141 27
232 23 354 -16 79 -25 149 -72 149 -100 0 -20 -26 -18 -136 11 -161 42 -298
33 -348 -23 -35 -40 -16 -52 81 -52 49 0 142 -6 208 -14 66 -8 166 -13 223
-13 128 2 136 10 98 92 -44 97 -142 173 -281 219 -41 13 -298 58 -315 55 -3
-1 -24 -5 -48 -10z"/>
<path d="M6800 6352 c0 -16 153 -373 158 -368 5 5 -105 281 -134 336 -13 25
-23 39 -24 32z"/>
<path d="M2911 5294 c0 -11 3 -14 6 -6 3 7 2 16 -1 19 -3 4 -6 -2 -5 -13z"/>
<path d="M2911 5195 c-3 -39 31 -438 44 -515 15 -87 15 -144 0 -220 -4 -19 -2
-18 10 8 16 34 54 56 81 45 8 -3 40 -58 71 -122 141 -290 282 -472 454 -588
112 -75 322 -187 434 -232 55 -22 165 -58 245 -81 297 -84 332 -97 384 -140
44 -36 53 -40 105 -40 147 0 404 67 579 150 119 57 174 97 192 140 24 59 5 59
-164 2 -224 -75 -302 -92 -451 -99 -142 -6 -166 -2 -420 74 -66 19 -182 48
-258 63 -160 33 -289 89 -449 196 -181 120 -255 204 -399 450 -125 214 -145
240 -224 299 -39 29 -81 65 -93 80 -36 46 -60 128 -75 256 -8 68 -22 142 -32
164 -9 22 -20 58 -25 80 -4 22 -8 36 -9 30z"/>
<path d="M6953 4288 c-11 -13 -55 -90 -98 -173 -165 -317 -277 -465 -512 -676
-359 -322 -700 -525 -1068 -635 -78 -23 -110 -27 -245 -29 -85 -1 -199 -8
-253 -15 -122 -16 -396 -8 -517 14 -47 8 -120 26 -164 38 -74 22 -79 25 -91
61 -23 66 -41 80 -284 216 -165 93 -357 219 -420 275 -19 17 4 -13 53 -66 104
-115 179 -183 301 -270 131 -94 223 -149 280 -169 56 -19 68 -41 33 -60 -43
-23 -111 -13 -223 35 -59 25 -109 46 -112 46 -2 0 24 -19 59 -43 35 -24 86
-59 114 -79 34 -23 110 -54 225 -93 267 -89 310 -96 619 -102 298 -6 314 -3
510 65 63 22 178 61 256 86 233 74 416 165 641 318 134 91 389 305 483 405
119 126 234 312 319 517 45 109 130 356 121 356 -3 0 -16 -10 -27 -22z"/>
<path d="M6715 3390 c-3 -5 -36 -25 -73 -45 -37 -20 -129 -90 -207 -157 -256
-221 -430 -341 -650 -448 -140 -69 -246 -107 -444 -161 -154 -41 -191 -59
-191 -88 0 -33 26 -44 106 -43 142 2 390 77 574 174 240 127 388 246 679 547
123 127 221 231 218 231 -3 0 -9 -4 -12 -10z"/>
<path d="M5910 2494 c-85 -40 -274 -100 -390 -124 -159 -34 -285 -37 -395 -10
-54 13 -151 25 -240 31 -82 5 -222 14 -310 20 -88 6 -218 13 -290 15 -130 4
-130 4 -10 -31 231 -67 427 -99 710 -115 259 -14 417 4 625 71 92 30 360 152
360 163 0 8 1 9 -60 -20z"/>
</g>
</svg>
