<?xml version="1.0" standalone="no"?>
<!DOCTYPE svg PUBLIC "-//W3C//DTD SVG 20010904//EN"
 "http://www.w3.org/TR/2001/REC-SVG-20010904/DTD/svg10.dtd">
<svg version="1.0" xmlns="http://www.w3.org/2000/svg"
 width="1000.000000pt" height="1000.000000pt" viewBox="0 0 1000.000000 1000.000000"
 preserveAspectRatio="xMidYMid meet">
<metadata>
  <rdf:RDF
    xmlns:rdf = "http://www.w3.org/1999/02/22-rdf-syntax-ns#"
    xmlns:rdfs = "http://www.w3.org/2000/01/rdf-schema#"
    xmlns:dc = "http://purl.org/dc/elements/1.1/"
    xmlns:cc = "http://creativecommons.org/ns#">
    <cc:license rdf:resource="http://creativecommons.org/publicdomain/zero/1.0/deed.en"/>
    <cc:permits rdf:resource="http://creativecommons.org/ns#Reproduction"/>
    <rdf:Description about="https://nft.mir.one/fingerprints"
      dc:title="TON Fingerprints"
      dc:description="This is a unique digital fingerprint created based on the algorithm for generating basic rings using a noise texture. Like human fingerprints, you can now use it for the Web3 and Metaverse era as digital biometric information."
      dc:publisher="https://nft.mir.one"
      dc:date="2022-02-22"
      dc:format="image/svg+xml"
      dc:language="en" >
      <dc:creator>
      <rdf:Bag>
        <rdf:li>EQBondcvD2_aOFADXSWJHs4ZazQDuEl9_wNvGGPxI8hGuOFU</rdf:li>
        <rdf:li>ipfs://bafkreihj7iub3fhmhq6jn62noukt5wxn3gv6bvcg7wmt6ywvlurefezckq</rdf:li>
      </rdf:Bag>
      </dc:creator>
    </rdf:Description>
  </rdf:RDF>
</metadata>
<g transform="translate(0.000000,1000.000000) scale(0.100000,-0.100000)"
fill="#1b1f23" stroke="none">
<path d="M4818 7803 c6 -2 18 -2 25 0 6 3 1 5 -13 5 -14 0 -19 -2 -12 -5z"/>
<path d="M4990 7759 c74 -22 185 -51 245 -64 125 -29 295 -80 340 -102 118
-60 88 -115 -50 -94 -38 6 -212 36 -385 66 -397 70 -626 89 -760 62 -47 -10
-125 -31 -175 -47 -49 -16 -78 -28 -63 -25 87 16 195 27 278 28 78 2 101 -1
124 -16 15 -10 25 -24 23 -30 -2 -7 -64 -28 -138 -48 -175 -46 -255 -77 -419
-161 -196 -100 -420 -267 -521 -390 -44 -53 -44 -53 15 0 32 29 79 64 104 79
26 14 74 43 108 64 161 99 356 183 634 273 109 35 198 71 235 94 52 31 70 37
130 40 81 4 140 -19 140 -53 0 -16 -18 -25 -105 -51 -99 -29 -377 -127 -555
-195 -149 -58 -360 -166 -442 -228 -115 -87 -160 -143 -216 -273 -14 -31 -55
-98 -92 -149 -133 -186 -226 -367 -295 -577 -89 -272 -140 -576 -140 -838 0
-199 17 -275 80 -354 11 -14 38 -86 59 -161 69 -236 157 -427 280 -610 123
-183 257 -320 421 -431 71 -48 342 -184 512 -258 77 -33 77 -33 190 -20 114
13 190 8 363 -21 186 -32 426 -28 663 12 267 44 483 147 731 346 138 110 473
455 542 556 160 238 228 484 234 852 3 190 3 190 -5 30 -9 -174 -19 -222 -81
-390 -66 -175 -142 -281 -226 -313 -18 -7 -46 -17 -62 -23 -19 -7 -65 -56
-132 -141 -353 -450 -689 -683 -1105 -767 -235 -48 -462 -48 -684 -1 -52 12
-151 31 -220 44 -330 62 -615 209 -836 430 -200 201 -346 457 -399 701 -30
133 -10 563 36 794 54 272 197 557 379 753 212 229 595 456 920 543 158 42
241 48 408 30 410 -44 493 -60 619 -121 124 -59 211 -161 171 -200 -12 -13
-28 -8 -120 36 -167 80 -231 93 -440 94 -176 1 -176 1 -235 -40 -80 -56 -97
-64 -267 -124 -82 -29 -186 -69 -230 -90 -265 -122 -485 -320 -593 -534 -34
-67 -35 -71 -37 -205 -1 -75 -8 -191 -15 -258 -33 -320 59 -610 253 -790 95
-89 193 -128 225 -89 18 22 3 45 -93 146 -138 143 -196 241 -237 396 -41 156
-33 437 16 629 60 230 247 438 510 567 119 58 518 191 628 208 152 25 539 -16
613 -65 26 -16 34 -64 12 -67 -7 -1 -150 -2 -318 -2 -305 -1 -305 -1 -544 -64
-131 -35 -267 -75 -303 -89 -187 -75 -379 -258 -459 -439 -56 -127 -92 -345
-80 -491 16 -197 69 -317 207 -468 50 -55 106 -128 126 -163 44 -78 82 -107
179 -138 140 -45 321 -42 509 8 70 19 86 28 142 80 34 32 70 58 78 58 24 0 28
-24 10 -65 -19 -47 -12 -75 20 -75 50 0 74 37 111 170 44 157 54 292 30 394
-61 259 -287 399 -525 327 -87 -27 -111 -27 -111 -2 0 28 74 87 139 112 84 33
211 37 298 11 177 -54 311 -214 364 -437 29 -122 29 -298 0 -408 -36 -137 -69
-186 -236 -349 -82 -81 -173 -161 -202 -179 -73 -44 -198 -85 -371 -122 -126
-26 -168 -31 -292 -31 -130 0 -154 3 -234 27 -186 58 -327 140 -464 271 -246
236 -354 505 -353 881 0 218 28 373 90 510 42 92 289 415 401 526 197 195 444
330 779 425 80 23 145 47 160 60 25 22 25 23 7 43 -80 88 -534 -49 -842 -255
-260 -174 -451 -389 -587 -660 -105 -210 -147 -419 -147 -735 0 -256 30 -392
133 -593 203 -398 598 -668 1052 -716 107 -12 107 -12 136 23 37 44 77 59 264
98 83 16 191 44 240 60 285 95 552 319 663 556 26 56 27 64 26 213 -2 269 -42
469 -127 635 -55 107 -184 238 -277 284 -69 33 -179 61 -245 61 -64 0 -173
-27 -244 -60 -82 -39 -145 -90 -183 -149 -38 -60 -86 -217 -98 -317 -11 -96
-17 -114 -40 -114 -44 0 -59 174 -26 300 48 180 168 321 352 414 94 47 178 66
294 66 218 0 375 -85 522 -284 131 -176 186 -351 203 -646 9 -142 22 -180 63
-180 59 0 95 109 96 290 0 252 -74 473 -223 665 -137 176 -223 276 -251 290
-65 34 -162 49 -320 49 -257 1 -364 -36 -548 -190 -119 -100 -187 -179 -241
-284 -54 -103 -74 -185 -75 -300 0 -142 20 -196 110 -290 91 -95 143 -122 244
-128 68 -4 80 -1 130 25 78 41 115 97 115 173 0 44 -5 66 -21 86 -48 65 -114
89 -154 56 -23 -18 -24 -22 -10 -47 30 -55 -39 -90 -79 -39 -42 53 -16 141 51
175 28 14 59 20 108 20 118 1 197 -48 249 -153 50 -100 41 -217 -22 -300 -95
-124 -257 -187 -431 -168 -97 11 -170 44 -237 107 -87 80 -109 117 -109 182 0
31 -9 99 -20 151 -42 203 -13 379 91 558 19 31 91 115 163 187 71 71 139 146
152 166 31 49 70 75 155 104 129 44 215 57 444 65 247 9 291 19 375 86 40 32
50 35 85 30 63 -10 213 -89 302 -160 353 -285 511 -791 402 -1295 -47 -219
-48 -281 -3 -298 40 -15 119 110 168 265 132 420 26 970 -252 1302 -25 30
-132 143 -236 250 -105 107 -233 241 -285 298 -111 122 -196 189 -307 243
-174 83 -373 121 -639 122 -187 0 -275 -10 -441 -53 -265 -68 -524 -190 -824
-388 -259 -171 -434 -407 -549 -744 -68 -199 -96 -360 -110 -646 -6 -110 -15
-192 -23 -209 -15 -30 -43 -51 -55 -40 -25 26 -30 380 -7 559 29 225 109 498
200 679 75 151 215 331 312 402 67 50 478 282 597 337 205 96 434 172 650 217
114 23 154 27 320 27 111 0 223 -5 270 -13 284 -46 500 -147 685 -318 40 -37
143 -149 229 -248 85 -99 208 -232 272 -295 64 -63 130 -133 146 -155 90 -119
239 -496 266 -675 8 -52 15 -79 16 -60 3 104 -73 444 -144 650 -62 176 -102
255 -151 296 -29 23 -97 114 -198 267 -207 312 -274 388 -431 494 -245 166
-517 236 -920 237 -184 1 -194 0 -305 -31 -174 -49 -463 -145 -606 -204 -163
-66 -285 -127 -455 -227 -142 -84 -195 -107 -222 -96 -47 18 8 79 168 187 178
120 381 212 780 353 105 36 237 91 295 121 105 55 105 55 295 49 330 -10 549
-24 618 -40 87 -20 225 -74 362 -140 61 -29 135 -64 165 -77 30 -13 80 -46
110 -73 30 -27 12 -6 -42 47 -119 117 -339 267 -541 369 -115 57 -152 81 -197
128 -45 47 -70 62 -138 89 -109 42 -294 86 -467 111 -203 29 -219 24 -65 -21z
m-149 -1799 c10 -6 19 -15 19 -20 0 -5 -40 -37 -90 -70 -49 -34 -127 -101
-173 -150 -69 -72 -94 -107 -135 -192 -64 -131 -85 -214 -85 -348 -1 -121 13
-195 55 -298 34 -81 29 -105 -16 -84 -91 41 -156 271 -135 478 23 224 111 402
270 547 86 78 198 142 257 146 7 1 22 -4 33 -9z"/>
<path d="M3429 6863 c-13 -16 -12 -17 4 -4 9 7 17 15 17 17 0 8 -8 3 -21 -13z"/>
<path d="M6640 6730 c17 -33 33 -60 35 -60 3 0 -8 27 -25 60 -17 33 -33 60
-35 60 -3 0 8 -27 25 -60z"/>
<path d="M6710 6600 c17 -33 33 -60 35 -60 3 0 -8 27 -25 60 -17 33 -33 60
-35 60 -3 0 8 -27 25 -60z"/>
<path d="M6839 6298 c-3 -22 -1 -34 4 -29 5 5 7 21 5 37 -3 27 -4 26 -9 -8z"/>
<path d="M5958 5919 c-40 -23 -22 -57 90 -172 59 -62 127 -141 151 -176 139
-204 209 -484 183 -724 -19 -171 -42 -228 -165 -404 -26 -37 -80 -117 -119
-178 -124 -189 -324 -367 -528 -470 -166 -84 -371 -135 -612 -155 -212 -16
-228 -23 -173 -74 93 -87 487 -68 785 36 266 94 523 284 725 536 107 133 167
251 204 402 101 406 82 718 -62 1005 -76 152 -212 306 -317 358 -57 28 -129
35 -162 16z"/>
<path d="M3790 5559 c-62 -86 -100 -270 -100 -484 0 -210 35 -374 112 -530
167 -334 517 -545 903 -545 210 0 494 71 573 143 33 31 30 72 -8 85 -31 11
-61 8 -225 -24 -122 -24 -358 -24 -476 -1 -257 52 -353 93 -468 202 -120 113
-202 256 -253 443 -18 66 -22 105 -22 272 -1 168 2 210 22 303 28 128 27 171
-5 175 -16 2 -30 -8 -53 -39z"/>
<path d="M2924 4705 c3 -11 21 -84 40 -162 78 -310 140 -481 264 -729 123
-246 200 -345 424 -547 71 -64 106 -104 130 -149 18 -34 62 -94 98 -133 36
-38 92 -103 124 -144 89 -111 205 -176 410 -230 193 -51 453 -54 621 -8 543
148 610 173 718 273 43 40 105 77 245 149 198 100 359 197 437 261 102 84 265
300 415 549 39 66 83 135 97 153 62 82 -72 -32 -302 -258 -245 -240 -330 -309
-514 -417 -107 -64 -258 -128 -346 -148 -85 -19 -382 -40 -570 -40 -143 1
-177 4 -315 34 -168 36 -258 43 -283 23 -38 -32 3 -60 198 -130 82 -30 173
-63 200 -73 68 -25 198 -24 409 2 189 24 239 21 244 -19 3 -18 -5 -26 -45 -43
-63 -27 -213 -63 -393 -94 -80 -14 -194 -42 -255 -62 -94 -30 -123 -35 -200
-35 -219 1 -489 96 -675 236 -204 154 -260 214 -207 224 42 8 92 -13 240 -101
98 -59 182 -102 228 -117 41 -12 117 -40 170 -61 128 -50 210 -71 290 -71 72
-1 109 13 109 41 0 27 -16 37 -131 77 -57 19 -125 49 -151 65 -43 28 -78 77
-78 112 0 32 -89 64 -105 37 -3 -5 -9 -29 -13 -52 -4 -23 -12 -43 -18 -45 -6
-2 -49 25 -97 61 -91 68 -265 161 -407 217 -47 18 -124 60 -173 92 -102 68
-267 229 -350 339 -135 181 -269 433 -362 678 -41 109 -135 300 -121 245z"/>
<path d="M3376 3261 c239 -274 375 -409 473 -472 53 -34 71 -36 71 -9 0 13
-59 78 -167 183 -221 215 -254 245 -343 307 -41 29 -90 66 -109 84 -19 17 15
-25 75 -93z"/>
<path d="M6589 3163 c-13 -16 -12 -17 4 -4 9 7 17 15 17 17 0 8 -8 3 -21 -13z"/>
<path d="M6499 3121 c-36 -14 -156 -78 -265 -142 -476 -277 -568 -324 -716
-364 -51 -14 -126 -35 -167 -46 -41 -11 -117 -40 -170 -64 -156 -71 -199 -78
-461 -72 -273 7 -426 36 -720 134 -41 13 -82 27 -90 29 -40 13 235 -129 301
-155 190 -75 323 -102 625 -127 211 -17 211 -17 291 10 71 24 90 26 160 20 53
-4 92 -3 116 5 67 23 41 41 -57 41 -70 0 -80 5 -66 30 12 22 73 37 173 44 235
17 581 213 975 554 119 103 156 138 140 131 -2 -1 -33 -13 -69 -28z"/>
<path d="M5164 2216 c11 -9 24 -16 30 -16 12 0 7 5 -24 19 -24 11 -24 11 -6
-3z"/>
</g>
</svg>
