<?xml version="1.0" standalone="no"?>
<!DOCTYPE svg PUBLIC "-//W3C//DTD SVG 20010904//EN"
 "http://www.w3.org/TR/2001/REC-SVG-20010904/DTD/svg10.dtd">
<svg version="1.0" xmlns="http://www.w3.org/2000/svg"
 width="1000.000000pt" height="1000.000000pt" viewBox="0 0 1000.000000 1000.000000"
 preserveAspectRatio="xMidYMid meet">
<metadata>
  <rdf:RDF
    xmlns:rdf = "http://www.w3.org/1999/02/22-rdf-syntax-ns#"
    xmlns:rdfs = "http://www.w3.org/2000/01/rdf-schema#"
    xmlns:dc = "http://purl.org/dc/elements/1.1/"
    xmlns:cc = "http://creativecommons.org/ns#">
    <cc:license rdf:resource="http://creativecommons.org/publicdomain/zero/1.0/deed.en"/>
    <cc:permits rdf:resource="http://creativecommons.org/ns#Reproduction"/>
    <rdf:Description about="https://nft.mir.one/fingerprints"
      dc:title="TON Fingerprints"
      dc:description="This is a unique digital fingerprint created based on the algorithm for generating basic rings using a noise texture. Like human fingerprints, you can now use it for the Web3 and Metaverse era as digital biometric information."
      dc:publisher="https://nft.mir.one"
      dc:date="2022-02-22"
      dc:format="image/svg+xml"
      dc:language="en" >
      <dc:creator>
      <rdf:Bag>
        <rdf:li>EQBondcvD2_aOFADXSWJHs4ZazQDuEl9_wNvGGPxI8hGuOFU</rdf:li>
        <rdf:li>ipfs://bafkreihj7iub3fhmhq6jn62noukt5wxn3gv6bvcg7wmt6ywvlurefezckq</rdf:li>
      </rdf:Bag>
      </dc:creator>
    </rdf:Description>
  </rdf:RDF>
</metadata>
<g transform="translate(0.000000,1000.000000) scale(0.100000,-0.100000)"
fill="#1b1f23" stroke="none">
<path d="M4805 7721 c-122 -6 -184 -13 -220 -25 -100 -36 -583 -287 -717 -373
-196 -127 -194 -124 -113 -97 39 13 77 24 86 24 9 0 49 14 90 31 169 70 404
122 472 105 14 -3 49 -27 79 -52 106 -91 183 -117 519 -174 314 -53 443 -82
610 -136 512 -166 849 -493 1055 -1021 46 -117 114 -363 114 -412 0 -17 -11
-38 -30 -56 -42 -40 -57 -101 -70 -273 -23 -331 -59 -469 -180 -700 -149 -284
-439 -657 -645 -831 -210 -177 -460 -295 -747 -353 -170 -34 -415 -32 -590 5
-244 52 -495 150 -670 262 -181 117 -372 298 -472 449 -129 193 -234 494 -239
681 -1 78 6 110 29 119 24 9 49 -44 84 -182 81 -320 191 -512 426 -744 155
-154 320 -269 464 -323 87 -33 355 -109 460 -132 127 -27 390 -24 527 5 346
75 627 249 881 545 285 333 456 670 506 997 30 197 58 540 52 631 -16 213 -99
445 -235 649 -76 116 -251 290 -371 369 -252 166 -485 243 -1025 336 -115 20
-270 50 -344 66 -202 45 -265 51 -368 39 -100 -12 -258 -62 -360 -113 -332
-168 -563 -566 -688 -1187 -57 -288 -82 -449 -100 -663 -9 -95 -23 -221 -32
-281 -14 -94 -15 -126 -4 -225 21 -206 101 -498 181 -666 63 -132 193 -265
416 -425 263 -189 535 -311 840 -376 113 -24 151 -28 314 -28 141 -1 209 3
285 18 250 47 519 150 705 271 144 93 216 162 413 398 224 268 288 354 421
564 158 250 192 333 217 528 15 124 6 405 -16 494 -17 69 -15 91 9 91 27 0 83
-58 104 -107 75 -175 74 -585 -1 -813 -20 -57 -29 -70 -79 -108 -46 -35 -81
-78 -178 -222 -127 -189 -174 -250 -305 -395 -121 -133 -167 -193 -200 -260
-39 -78 -103 -139 -249 -237 -266 -178 -602 -307 -918 -354 -151 -22 -381 -15
-528 16 -160 33 -388 113 -545 190 -208 102 -496 296 -669 449 -38 34 -74 61
-81 61 -6 0 -31 17 -55 37 -41 35 -39 31 35 -73 112 -158 173 -230 289 -342
223 -214 626 -412 1018 -498 107 -24 146 -27 298 -28 154 0 190 3 301 27 144
30 392 108 535 168 178 74 347 166 528 288 39 27 128 77 196 111 170 85 306
177 375 252 175 194 297 468 316 713 5 66 14 181 21 255 19 203 16 531 -6 664
-18 110 -129 480 -207 691 -89 240 -231 495 -365 655 -110 131 -298 277 -463
360 -249 124 -494 188 -956 250 -276 37 -325 46 -388 72 -54 23 -78 54 -51 65
36 13 484 -21 739 -58 374 -53 671 -153 898 -302 115 -75 323 -243 382 -308
38 -42 42 -45 20 -14 -109 153 -326 372 -468 472 -170 120 -387 214 -603 262
-189 42 -326 54 -609 55 -295 1 -313 -2 -372 -57 -29 -27 -35 -29 -58 -19 -59
27 -11 120 83 160 43 19 76 22 308 27 158 4 304 2 374 -5 167 -15 448 -32 462
-28 13 5 -263 62 -407 84 -115 18 -324 24 -540 15z m-69 -811 c414 -51 731
-127 940 -225 324 -151 574 -433 643 -725 28 -116 46 -540 32 -727 -24 -306
-117 -578 -288 -843 -305 -470 -726 -730 -1183 -730 -228 0 -405 57 -468 150
-28 41 -28 103 1 108 9 2 65 -19 125 -46 145 -67 191 -77 352 -77 186 1 316
33 490 120 338 171 626 536 753 955 48 159 60 253 55 428 -4 123 -10 160 -32
228 -14 45 -36 94 -48 109 -26 33 -121 95 -243 158 -57 30 -134 84 -210 147
-66 55 -170 136 -231 180 -64 45 -138 109 -173 149 -61 68 -66 72 -154 100
-136 43 -260 61 -422 61 -279 0 -481 -60 -693 -204 -45 -31 -118 -80 -162
-110 -56 -39 -93 -57 -126 -62 -60 -9 -84 -34 -134 -139 -100 -210 -148 -462
-137 -720 8 -179 69 -448 144 -638 43 -107 110 -189 140 -171 28 17 27 65 -7
184 -67 238 -72 276 -76 630 -4 307 -3 329 17 395 48 159 119 257 274 373 181
136 337 213 517 254 136 32 378 31 497 -1 121 -32 213 -77 380 -188 116 -77
169 -120 256 -209 61 -61 145 -135 187 -163 137 -92 211 -198 243 -347 28
-132 17 -221 -56 -439 -61 -184 -148 -365 -226 -470 -77 -104 -222 -240 -317
-299 -100 -63 -228 -114 -345 -138 -180 -37 -407 -13 -448 48 -28 43 -2 51
189 57 201 6 294 25 425 87 114 53 194 112 289 213 143 152 228 331 250 525 7
64 7 64 -39 110 -29 30 -65 88 -102 162 -148 298 -194 350 -414 460 -394 197
-699 189 -991 -26 -65 -48 -347 -330 -382 -381 -70 -105 -83 -331 -34 -568 15
-71 34 -176 42 -233 8 -57 23 -120 34 -142 37 -73 141 -189 255 -285 158 -134
209 -206 153 -220 -33 -8 -97 17 -181 71 -117 76 -201 151 -388 347 -208 219
-227 251 -323 534 -35 103 -77 222 -92 263 -26 70 -28 85 -28 225 0 160 12
270 50 457 39 194 139 578 172 661 95 236 307 438 560 533 48 18 119 39 157
47 103 22 339 21 531 -3z m89 -1339 c37 -17 104 -41 149 -52 233 -59 388 -186
492 -404 89 -189 92 -322 9 -492 -119 -242 -377 -393 -673 -393 -182 0 -252
31 -398 175 -149 148 -206 289 -219 550 -4 77 -12 148 -17 158 -23 45 -85 -10
-110 -97 -6 -23 -11 -90 -11 -151 1 -132 32 -267 89 -378 68 -135 130 -203
266 -295 83 -56 97 -76 72 -103 -13 -14 -31 -19 -74 -19 -47 0 -66 6 -116 36
-75 45 -163 131 -215 211 -46 71 -99 211 -125 333 -25 118 -26 316 -1 386 25
73 68 134 123 174 25 19 78 71 117 115 127 145 226 217 361 262 99 33 188 28
281 -16z m2129 -1113 c46 -65 -18 -263 -139 -428 -97 -132 -310 -331 -449
-419 -56 -35 -116 -42 -116 -14 0 9 79 93 176 186 236 229 355 389 435 582 32
78 54 115 70 115 4 0 15 -10 23 -22z"/>
<path d="M4307 6755 c-298 -56 -560 -236 -672 -459 -24 -47 -35 -82 -35 -113
0 -47 14 -83 32 -83 6 0 67 55 137 123 180 175 270 235 445 296 142 50 247 65
446 64 142 -1 202 -6 320 -27 80 -14 218 -37 308 -51 268 -41 419 -118 594
-304 81 -85 120 -150 153 -254 39 -121 69 -167 111 -167 93 0 50 233 -77 421
-53 80 -173 201 -259 261 -90 63 -226 130 -344 167 -100 32 -358 87 -546 116
-150 24 -510 29 -613 10z"/>
<path d="M5326 6368 c-32 -25 -15 -51 69 -105 155 -99 241 -163 350 -259 117
-102 155 -127 179 -118 48 18 11 98 -99 213 -103 107 -187 171 -300 227 -100
49 -169 64 -199 42z"/>
<path d="M4515 6084 c-294 -53 -582 -238 -713 -460 -68 -115 -85 -222 -37
-240 24 -10 58 19 135 111 199 239 378 355 625 406 226 47 418 8 731 -149 88
-44 173 -83 191 -86 66 -15 95 34 52 88 -29 37 -225 165 -344 225 -222 111
-422 144 -640 105z"/>
<path d="M5580 5555 c-18 -21 -6 -58 51 -151 54 -90 85 -167 119 -291 26 -98
37 -111 72 -84 66 52 62 224 -8 362 -29 58 -105 144 -146 165 -35 18 -72 18
-88 -1z"/>
<path d="M4625 5482 c-124 -43 -236 -137 -288 -241 -32 -66 -32 -66 -32 -221
1 -114 5 -172 18 -220 53 -198 186 -353 355 -409 75 -26 210 -28 297 -6 184
47 335 183 386 346 68 218 -47 473 -259 572 -55 25 -80 31 -138 32 -60 0 -79
-5 -136 -34 -96 -48 -171 -119 -209 -197 -77 -156 -19 -343 126 -410 91 -43
195 -25 260 44 55 58 66 121 36 189 -37 80 -145 100 -181 33 -12 -23 2 -60 24
-60 21 0 26 -25 10 -49 -23 -32 -78 -28 -114 8 -75 74 -38 205 73 263 96 50
226 12 294 -86 89 -130 65 -300 -60 -411 -68 -62 -142 -88 -244 -89 -77 0 -88
3 -160 40 -162 82 -245 255 -221 463 15 131 86 228 241 333 48 32 87 60 87 62
0 3 3 11 6 19 17 45 -78 61 -171 29z"/>
<path d="M3012 5885 c0 -16 2 -22 5 -12 2 9 2 23 0 30 -3 6 -5 -1 -5 -18z"/>
<path d="M2981 5724 c-12 -64 -20 -118 -18 -120 2 -3 15 47 27 111 12 64 21
118 18 120 -2 2 -14 -48 -27 -111z"/>
<path d="M2952 5570 c0 -14 2 -19 5 -12 2 6 2 18 0 25 -3 6 -5 1 -5 -13z"/>
<path d="M2941 5514 c0 -11 3 -14 6 -6 3 7 2 16 -1 19 -3 4 -6 -2 -5 -13z"/>
<path d="M2931 5464 c0 -11 3 -14 6 -6 3 7 2 16 -1 19 -3 4 -6 -2 -5 -13z"/>
<path d="M6770 3598 c-78 -35 -440 -257 -560 -343 -265 -189 -504 -302 -943
-444 -372 -120 -539 -130 -857 -51 -256 64 -544 187 -790 337 -107 65 -240
137 -240 128 0 -10 278 -254 360 -315 217 -163 388 -246 701 -340 169 -51 257
-64 382 -57 125 7 187 23 330 87 62 27 211 85 332 128 268 97 376 142 570 240
141 71 155 81 240 167 50 51 140 132 200 181 95 77 339 304 325 303 -3 0 -25
-10 -50 -21z"/>
<path d="M6555 3225 c-108 -53 -202 -131 -182 -151 16 -17 128 61 242 168 26
24 22 23 -60 -17z"/>
<path d="M6355 2940 c-44 -5 -110 -29 -243 -88 -242 -109 -385 -165 -636 -251
-215 -73 -268 -98 -287 -133 -25 -47 28 -59 148 -34 280 60 604 202 902 395
75 49 150 95 166 104 17 9 26 16 20 15 -5 0 -37 -4 -70 -8z"/>
<path d="M4025 2531 c44 -22 148 -67 231 -101 100 -41 166 -74 198 -100 53
-44 91 -55 267 -72 93 -9 172 -9 352 1 298 16 432 41 642 122 44 17 93 35 108
41 51 19 21 19 -39 -1 -133 -42 -420 -101 -493 -101 -15 0 -63 9 -106 21 -78
20 -82 20 -224 3 -95 -11 -183 -15 -259 -12 -115 5 -115 5 -221 61 -108 56
-255 108 -411 145 -47 11 -94 23 -105 26 -11 4 16 -12 60 -33z"/>
</g>
</svg>
