<?xml version="1.0" standalone="no"?>
<!DOCTYPE svg PUBLIC "-//W3C//DTD SVG 20010904//EN"
 "http://www.w3.org/TR/2001/REC-SVG-20010904/DTD/svg10.dtd">
<svg version="1.0" xmlns="http://www.w3.org/2000/svg"
 width="1000.000000pt" height="1000.000000pt" viewBox="0 0 1000.000000 1000.000000"
 preserveAspectRatio="xMidYMid meet">
<metadata>
  <rdf:RDF
    xmlns:rdf = "http://www.w3.org/1999/02/22-rdf-syntax-ns#"
    xmlns:rdfs = "http://www.w3.org/2000/01/rdf-schema#"
    xmlns:dc = "http://purl.org/dc/elements/1.1/"
    xmlns:cc = "http://creativecommons.org/ns#">
    <cc:license rdf:resource="http://creativecommons.org/publicdomain/zero/1.0/deed.en"/>
    <cc:permits rdf:resource="http://creativecommons.org/ns#Reproduction"/>
    <rdf:Description about="https://nft.mir.one/fingerprints"
      dc:title="TON Fingerprints"
      dc:description="This is a unique digital fingerprint created based on the algorithm for generating basic rings using a noise texture. Like human fingerprints, you can now use it for the Web3 and Metaverse era as digital biometric information."
      dc:publisher="https://nft.mir.one"
      dc:date="2022-02-22"
      dc:format="image/svg+xml"
      dc:language="en" >
      <dc:creator>
      <rdf:Bag>
        <rdf:li>EQBondcvD2_aOFADXSWJHs4ZazQDuEl9_wNvGGPxI8hGuOFU</rdf:li>
        <rdf:li>ipfs://bafkreihj7iub3fhmhq6jn62noukt5wxn3gv6bvcg7wmt6ywvlurefezckq</rdf:li>
      </rdf:Bag>
      </dc:creator>
    </rdf:Description>
  </rdf:RDF>
</metadata>
<g transform="translate(0.000000,1000.000000) scale(0.100000,-0.100000)"
fill="#1b1f23" stroke="none">
<path d="M4755 7759 c206 -80 509 -167 659 -189 88 -14 155 -31 211 -54 172
-70 431 -242 671 -447 61 -52 153 -127 204 -167 86 -68 90 -70 59 -31 -64 81
-325 335 -429 419 -205 163 -422 289 -602 349 -196 65 -478 120 -688 136 -47
3 -103 8 -125 11 -33 3 -26 -1 40 -27z"/>
<path d="M4370 7563 c-42 -4 -288 -52 -310 -59 -24 -9 74 -42 159 -54 218 -31
489 -97 650 -157 140 -52 250 -110 460 -241 321 -201 442 -303 510 -433 43
-80 76 -129 170 -249 170 -218 290 -420 505 -852 266 -531 346 -753 411 -1131
14 -78 34 -169 45 -202 20 -60 20 -60 16 225 -4 303 -20 441 -66 582 -26 77
-522 1088 -620 1265 -109 194 -264 410 -400 557 -65 71 -199 180 -357 293 -76
54 -181 138 -234 188 -74 68 -117 100 -182 132 -103 51 -300 118 -388 132 -60
10 -291 12 -369 4z"/>
<path d="M5413 7429 c-39 -39 1 -83 188 -209 201 -136 322 -235 455 -371 137
-141 245 -285 311 -415 28 -54 108 -227 178 -384 183 -413 523 -1075 542
-1057 2 2 -1 17 -6 33 -5 16 -25 86 -45 156 -45 163 -83 263 -226 598 -142
333 -225 555 -246 658 -9 42 -27 101 -41 129 -68 146 -318 409 -568 598 -257
194 -497 311 -542 264z"/>
<path d="M3987 7274 c-37 -8 -118 -30 -178 -49 -61 -19 -118 -35 -127 -35 -26
0 78 -46 123 -54 22 -4 195 -43 385 -87 387 -89 548 -135 760 -216 80 -30 210
-76 290 -102 151 -50 198 -71 340 -152 99 -57 140 -68 159 -45 21 25 -2 68
-70 130 -87 81 -191 146 -421 262 -369 186 -577 258 -957 334 -169 33 -205 35
-304 14z"/>
<path d="M3635 6946 c-38 -13 -99 -37 -135 -55 -36 -17 -72 -32 -80 -32 -22
-2 54 -18 140 -29 145 -20 260 -70 260 -114 0 -44 -96 -59 -199 -31 -30 7 -68
11 -85 8 -52 -9 -147 -59 -225 -117 -75 -56 -75 -56 -25 -50 27 3 92 15 145
26 114 23 192 21 197 -4 6 -29 -44 -64 -147 -103 -112 -43 -170 -83 -298 -206
-89 -86 -89 -86 -44 -81 76 8 384 128 586 228 105 51 217 100 250 109 68 17
187 19 295 4 41 -6 158 -12 260 -13 326 -5 366 -24 797 -378 233 -192 353
-305 455 -432 108 -134 184 -252 268 -418 232 -456 343 -944 343 -1513 0 -366
-50 -594 -198 -900 -57 -120 -127 -270 -121 -264 20 22 173 234 223 311 116
176 226 434 259 604 39 207 4 647 -82 1033 -96 426 -306 893 -548 1219 -112
150 -311 346 -481 472 -196 145 -240 184 -304 269 -42 56 -71 82 -116 108
-136 75 -289 121 -660 198 -261 54 -292 62 -457 126 -144 56 -173 58 -273 25z"/>
<path d="M5223 6575 c-14 -37 25 -72 240 -215 119 -80 250 -175 291 -212 184
-167 367 -431 541 -778 189 -378 290 -684 364 -1105 55 -311 63 -396 59 -652
-4 -235 -4 -235 24 -136 110 394 120 596 44 963 -66 322 -161 589 -341 955
-219 445 -398 721 -580 894 -63 60 -96 82 -174 117 -53 24 -109 51 -126 60
-161 87 -234 118 -282 122 -44 4 -54 1 -60 -13z"/>
<path d="M6674 6487 c-7 -19 2 -49 103 -337 92 -260 159 -418 215 -507 22 -35
41 -63 43 -63 2 0 -8 30 -22 68 -14 37 -72 207 -128 377 -98 297 -155 436
-189 464 -13 11 -17 11 -22 -2z"/>
<path d="M4603 6306 c-98 -45 -76 -187 57 -373 79 -110 115 -175 144 -259 13
-38 46 -116 74 -174 63 -133 104 -261 144 -453 29 -139 32 -168 33 -342 0
-204 -14 -305 -55 -385 -20 -39 -48 -53 -52 -27 -1 6 -2 127 -3 267 -1 197 -5
275 -18 345 -60 312 -165 512 -285 544 -48 13 -92 0 -92 -27 0 -9 25 -60 57
-112 98 -164 156 -326 188 -520 19 -113 36 -560 25 -622 -26 -139 -119 -303
-264 -468 -27 -30 -61 -83 -76 -116 -34 -75 -95 -135 -178 -176 -65 -32 -162
-50 -162 -29 0 6 51 44 113 85 61 41 122 84 134 97 28 31 32 59 12 72 -34 21
-227 -99 -267 -166 -23 -37 -25 -125 -3 -150 37 -46 149 -39 258 15 163 80
410 378 563 680 35 68 80 148 100 178 79 117 115 218 141 398 17 122 7 329
-25 487 -14 72 -33 198 -41 280 -9 83 -24 180 -35 216 -32 109 -148 274 -317
451 -133 140 -148 168 -85 168 73 0 232 -121 443 -337 106 -110 141 -139 234
-194 191 -113 326 -274 454 -539 74 -153 121 -283 166 -454 63 -239 68 -289
70 -636 2 -256 5 -332 20 -405 39 -199 -17 -455 -152 -705 -57 -104 -223 -353
-301 -452 -32 -40 -73 -95 -91 -123 -19 -27 -46 -63 -60 -79 -14 -16 26 11 89
59 140 108 334 300 419 415 109 147 197 349 242 558 39 181 35 724 -7 1027
-64 456 -227 875 -464 1190 -87 115 -190 214 -468 450 -245 208 -359 291 -448
325 -74 28 -187 36 -231 16z"/>
<path d="M3830 6221 c-86 -19 -341 -101 -500 -161 -110 -42 -172 -104 -249
-245 -30 -55 -71 -128 -92 -162 -37 -62 -37 -62 5 -40 22 11 71 46 107 78 122
104 223 162 382 218 135 47 211 63 343 68 236 11 346 -34 589 -241 128 -109
218 -149 253 -114 34 34 12 72 -167 297 -225 284 -265 311 -471 317 -85 3
-137 -1 -200 -15z"/>
<path d="M3657 5784 c-188 -34 -404 -141 -520 -256 -51 -52 -121 -185 -172
-328 -21 -58 -44 -117 -51 -132 -14 -27 -14 -27 30 2 24 16 63 56 87 87 170
227 387 375 617 419 93 18 159 18 247 -1 140 -30 219 -89 298 -222 23 -40 75
-120 115 -178 128 -184 211 -376 248 -570 24 -128 15 -302 -20 -410 -43 -135
-127 -257 -234 -338 -87 -67 -356 -235 -436 -273 -80 -38 -197 -64 -289 -64
-65 0 -228 23 -269 38 -12 5 -45 6 -73 2 -27 -4 -45 -8 -39 -9 6 0 48 -32 93
-71 92 -77 176 -131 235 -150 78 -25 324 8 415 55 17 8 55 49 86 90 67 91 141
151 283 229 59 32 126 73 149 92 90 73 192 240 229 374 28 100 26 416 -4 565
-24 123 -73 274 -122 380 -62 135 -80 193 -80 258 0 62 0 62 -88 147 -242 233
-464 313 -735 264z"/>
<path d="M5281 5534 c-25 -18 -28 -59 -6 -109 11 -27 22 -37 47 -42 57 -11
120 -88 192 -236 36 -72 75 -168 86 -212 11 -44 40 -129 64 -190 76 -189 103
-340 92 -508 -12 -182 -49 -316 -126 -447 -82 -141 -462 -622 -644 -817 -72
-78 -160 -145 -248 -189 -94 -47 -333 -128 -518 -174 -85 -22 -179 -48 -208
-58 -52 -19 -52 -19 50 -28 57 -5 168 -9 248 -9 145 0 145 0 281 48 146 50
189 57 210 31 30 -36 -119 -132 -291 -189 -47 -16 -107 -39 -135 -51 -50 -24
-50 -24 95 -18 182 7 281 27 377 76 55 28 87 38 121 38 60 0 120 28 277 130
69 45 130 78 135 75 6 -3 10 -20 10 -38 0 -59 -164 -198 -355 -301 -67 -37
-191 -136 -150 -121 11 4 79 26 150 50 191 62 343 145 427 232 57 58 301 406
360 512 60 108 113 245 134 340 16 75 19 238 5 274 -22 58 -79 35 -117 -48
-20 -42 -22 -58 -14 -79 25 -67 3 -162 -75 -315 -78 -154 -217 -335 -303 -395
-32 -22 -59 -30 -121 -37 -44 -5 -105 -18 -135 -29 -71 -27 -184 -108 -231
-165 -21 -25 -44 -45 -52 -45 -16 0 -43 58 -43 93 0 33 41 83 138 168 67 58
90 87 123 149 23 45 81 125 138 193 55 64 146 176 202 249 57 73 143 175 190
225 133 141 185 216 213 303 46 143 58 354 32 551 -18 132 -32 188 -107 417
-87 269 -185 449 -317 585 -100 102 -163 137 -201 111z"/>
<path d="M3651 5415 c-197 -45 -414 -210 -496 -379 -32 -67 -35 -81 -46 -232
-18 -240 4 -370 81 -498 127 -210 360 -314 547 -245 45 17 73 38 125 90 125
130 188 256 188 381 0 50 -4 63 -26 84 -24 25 -26 25 -44 9 -11 -10 -23 -43
-30 -83 -23 -135 -101 -249 -205 -298 -76 -36 -172 -34 -252 6 -66 33 -140
105 -171 166 -43 84 -55 151 -49 273 7 172 55 289 162 396 112 111 256 165
449 166 129 0 179 13 184 47 5 34 -53 87 -119 107 -75 23 -219 28 -298 10z"/>
<path d="M5250 5330 c-15 -37 -9 -87 29 -246 63 -259 64 -338 6 -589 -45 -193
-65 -247 -155 -427 -200 -397 -457 -706 -680 -818 -113 -57 -141 -62 -395 -71
-185 -6 -619 -26 -644 -29 -2 0 58 -31 135 -69 196 -98 224 -104 410 -86 343
33 508 85 692 215 257 181 581 633 691 962 17 52 45 164 61 248 31 158 49 204
78 198 54 -10 27 -353 -44 -550 -118 -329 -481 -801 -756 -984 -180 -120 -451
-203 -768 -234 -102 -11 -267 -48 -214 -50 11 0 54 -11 95 -25 190 -66 290
-70 482 -21 209 54 374 123 502 209 122 83 324 300 514 551 260 344 344 550
344 841 0 150 -17 217 -75 302 -28 41 -42 81 -72 204 -57 235 -168 499 -210
499 -7 0 -19 -14 -26 -30z"/>
<path d="M3810 5100 c-161 -20 -252 -85 -329 -239 -65 -131 -81 -214 -58 -307
31 -125 119 -204 227 -204 122 0 200 87 200 225 0 57 -3 69 -25 90 -36 37 -47
33 -89 -29 -29 -44 -33 -78 -11 -96 21 -17 19 -27 -9 -45 -57 -38 -136 42
-121 121 7 39 58 87 109 104 20 6 36 17 36 24 0 16 -37 50 -75 67 -18 9 -31
23 -33 37 -8 58 176 83 300 41 141 -47 262 -179 245 -267 -18 -97 -72 -283
-97 -331 -15 -31 -54 -90 -85 -131 -56 -75 -72 -110 -60 -129 30 -50 183 77
246 204 43 88 59 157 59 263 0 58 4 92 11 92 45 0 79 -70 79 -163 0 -135 -56
-263 -160 -368 -76 -76 -120 -99 -209 -109 -36 -4 -103 -19 -149 -34 -162 -51
-294 -42 -439 29 -98 48 -214 159 -297 283 -100 149 -119 197 -124 318 -4 90
-1 111 22 186 27 83 37 161 23 174 -27 28 -59 -123 -59 -281 -1 -171 45 -340
145 -540 71 -143 202 -312 266 -345 119 -60 328 -67 476 -15 202 70 375 173
470 278 100 110 165 276 165 422 0 230 -183 565 -352 643 -37 17 -203 47 -228
41 -3 -1 -34 -5 -70 -9z"/>
<path d="M5686 3447 c-23 -23 -68 -80 -100 -127 -92 -132 -187 -248 -276 -335
-97 -95 -119 -130 -97 -152 40 -40 169 27 279 146 116 125 270 382 285 474 5
35 4 37 -22 37 -20 0 -40 -12 -69 -43z"/>
</g>
</svg>
