<?xml version="1.0" standalone="no"?>
<!DOCTYPE svg PUBLIC "-//W3C//DTD SVG 20010904//EN"
 "http://www.w3.org/TR/2001/REC-SVG-20010904/DTD/svg10.dtd">
<svg version="1.0" xmlns="http://www.w3.org/2000/svg"
 width="1000.000000pt" height="1000.000000pt" viewBox="0 0 1000.000000 1000.000000"
 preserveAspectRatio="xMidYMid meet">
<metadata>
  <rdf:RDF
    xmlns:rdf = "http://www.w3.org/1999/02/22-rdf-syntax-ns#"
    xmlns:rdfs = "http://www.w3.org/2000/01/rdf-schema#"
    xmlns:dc = "http://purl.org/dc/elements/1.1/"
    xmlns:cc = "http://creativecommons.org/ns#">
    <cc:license rdf:resource="http://creativecommons.org/publicdomain/zero/1.0/deed.en"/>
    <cc:permits rdf:resource="http://creativecommons.org/ns#Reproduction"/>
    <rdf:Description about="https://nft.mir.one/fingerprints"
      dc:title="TON Fingerprints"
      dc:description="This is a unique digital fingerprint created based on the algorithm for generating basic rings using a noise texture. Like human fingerprints, you can now use it for the Web3 and Metaverse era as digital biometric information."
      dc:publisher="https://nft.mir.one"
      dc:date="2022-02-22"
      dc:format="image/svg+xml"
      dc:language="en" >
      <dc:creator>
      <rdf:Bag>
        <rdf:li>EQBondcvD2_aOFADXSWJHs4ZazQDuEl9_wNvGGPxI8hGuOFU</rdf:li>
        <rdf:li>ipfs://bafkreihj7iub3fhmhq6jn62noukt5wxn3gv6bvcg7wmt6ywvlurefezckq</rdf:li>
      </rdf:Bag>
      </dc:creator>
    </rdf:Description>
  </rdf:RDF>
</metadata>
<g transform="translate(0.000000,1000.000000) scale(0.100000,-0.100000)"
fill="#1b1f23" stroke="none">
<path d="M5093 7760 c-205 -14 -305 -40 -518 -135 -77 -35 -204 -91 -283 -125
-280 -122 -571 -312 -756 -493 -40 -39 -45 -45 -13 -17 57 49 127 83 589 281
365 156 455 198 603 283 118 69 219 109 335 136 52 11 124 28 159 36 35 8 94
18 130 22 66 7 66 7 11 13 -67 9 -113 8 -257 -1z"/>
<path d="M5125 7565 c-146 -32 -260 -88 -359 -175 -80 -72 -81 -72 -277 -150
-85 -34 -224 -94 -309 -132 -190 -86 -238 -104 -323 -118 -83 -13 -106 -23
-184 -77 -71 -49 -133 -124 -133 -159 0 -35 28 -31 91 12 144 100 281 123 250
42 -13 -34 -30 -45 -84 -51 -32 -3 -65 -16 -101 -40 -62 -41 -202 -200 -270
-305 -50 -79 -65 -85 -98 -42 -23 31 -42 141 -33 194 3 22 19 71 35 110 48
113 27 87 -28 -36 -52 -115 -76 -192 -131 -425 -30 -126 -31 -134 -15 -158 22
-34 16 -86 -35 -300 -67 -281 -82 -388 -88 -610 -13 -506 95 -809 388 -1090
145 -139 205 -173 362 -205 38 -8 141 -54 301 -136 265 -135 373 -180 519
-218 260 -68 571 -64 847 9 290 78 657 250 730 342 25 32 26 69 1 82 -25 14
-84 -4 -254 -76 -470 -198 -649 -246 -932 -246 -257 -1 -405 37 -669 172 -181
93 -503 270 -589 325 -29 18 -90 52 -135 76 -146 76 -245 188 -323 369 -72
167 -107 326 -116 521 -7 159 6 266 62 500 53 223 62 274 74 455 10 139 27
222 55 260 13 18 24 19 132 16 119 -3 119 -3 224 73 158 115 200 155 295 281
100 132 162 186 295 254 210 108 335 136 570 128 165 -6 208 -12 620 -92 264
-51 504 -154 695 -297 128 -97 355 -314 467 -448 104 -124 203 -271 273 -404
31 -58 59 -106 62 -106 11 0 -12 92 -48 190 -100 265 -258 517 -431 687 -328
321 -606 456 -1091 526 -100 15 -177 32 -192 41 -126 83 246 89 549 10 131
-35 254 -82 375 -144 122 -63 161 -91 300 -214 116 -103 295 -244 289 -227 -3
11 -262 311 -343 399 -121 131 -384 281 -575 327 -156 37 -259 48 -410 43
-119 -4 -143 -8 -200 -32 -157 -67 -253 -82 -325 -52 -53 22 -47 49 18 79 76
36 269 95 366 112 170 30 414 14 629 -41 53 -13 130 -31 170 -40 40 -8 81 -17
90 -20 35 -10 -146 80 -244 122 -204 87 -383 124 -593 123 -75 0 -163 -7 -196
-14z m-1271 -851 c21 -55 -94 -165 -160 -152 -35 6 -24 27 45 84 39 31 72 63
75 71 7 18 33 17 40 -3z"/>
<path d="M5110 6860 c-30 -5 -127 -9 -215 -9 -371 0 -574 -88 -861 -377 -153
-153 -208 -222 -235 -295 -41 -107 -34 -235 13 -260 28 -15 49 8 83 91 41 100
105 187 207 286 206 199 400 298 638 325 137 16 218 2 389 -65 75 -30 181 -70
236 -89 55 -19 216 -78 358 -131 266 -100 309 -109 331 -73 9 16 4 25 -36 62
-86 78 -304 177 -630 284 -167 56 -223 85 -223 116 0 84 540 -74 790 -230 77
-48 149 -117 189 -183 15 -24 111 -127 215 -230 145 -145 222 -233 345 -391
202 -263 239 -335 288 -570 20 -95 22 -136 23 -403 0 -276 1 -299 19 -315 18
-17 18 -17 6 3 -10 16 -9 52 4 180 29 281 17 552 -33 794 -28 134 -50 191 -98
257 -23 32 -81 114 -129 183 -115 164 -172 235 -308 383 -145 157 -293 298
-381 364 -259 194 -730 334 -985 293z"/>
<path d="M4741 6449 c-91 -10 -227 -51 -318 -98 -141 -71 -303 -209 -434 -371
-68 -84 -84 -122 -53 -134 47 -18 87 1 209 99 207 166 320 232 482 282 80 24
104 27 253 27 147 1 176 -2 272 -26 129 -33 274 -86 383 -141 111 -55 129 -69
164 -132 17 -31 85 -113 151 -183 66 -70 156 -175 201 -232 45 -58 106 -132
137 -165 59 -63 114 -144 127 -185 4 -13 32 -50 61 -80 74 -78 86 -112 92
-252 11 -296 -124 -549 -352 -658 -99 -47 -135 -55 -160 -37 -17 13 -17 15 -2
45 9 17 46 52 82 79 132 96 173 134 217 200 87 133 122 264 115 432 -4 101
-21 151 -53 151 -23 0 -34 -31 -50 -144 -26 -186 -65 -295 -144 -403 -31 -43
-84 -78 -101 -68 -20 12 -8 49 54 170 45 87 71 152 85 212 28 122 41 258 31
313 -5 25 -9 48 -10 52 0 3 -12 20 -26 37 -27 32 -57 40 -71 19 -4 -7 -8 -87
-8 -178 -1 -222 -21 -298 -104 -394 -44 -51 -54 -77 -76 -191 -28 -154 -123
-302 -246 -386 -202 -137 -478 -219 -737 -219 -217 0 -406 66 -336 117 15 11
49 12 169 7 215 -10 367 14 550 85 125 48 203 98 295 191 135 135 194 268 210
475 15 197 31 359 36 367 10 15 33 8 45 -13 14 -27 17 -135 6 -259 -7 -78 -6
-99 7 -115 38 -51 84 55 93 214 8 122 -12 339 -37 418 -40 125 -144 269 -319
443 -114 113 -170 151 -304 206 -145 59 -250 78 -422 78 -122 -1 -165 -5 -230
-23 -105 -28 -279 -115 -385 -192 -47 -34 -137 -98 -200 -142 -63 -43 -125
-91 -137 -106 -45 -52 -65 -143 -70 -311 -8 -252 39 -485 128 -637 72 -123
271 -288 428 -354 95 -40 234 -62 351 -57 103 6 149 20 207 67 21 16 80 48
131 70 147 62 215 119 264 220 20 41 23 64 26 211 2 91 -1 190 -6 220 -33 176
-135 304 -287 362 -84 32 -225 32 -307 -1 -167 -66 -274 -214 -285 -396 -7
-104 8 -183 52 -272 46 -93 111 -151 255 -228 115 -60 141 -85 119 -111 -16
-19 -66 -18 -176 5 -150 31 -277 106 -332 195 -28 45 -63 256 -65 386 -2 186
43 301 163 421 118 118 244 170 410 170 257 -1 460 -149 536 -391 13 -41 19
-107 24 -254 5 -170 8 -200 23 -209 24 -16 46 7 63 67 33 115 46 391 21 481
-74 277 -366 485 -681 485 -346 -1 -657 -235 -719 -542 -28 -138 -20 -260 30
-426 40 -133 21 -174 -50 -112 -106 93 -169 376 -132 590 24 136 68 222 168
325 128 134 281 229 455 282 78 23 104 26 233 26 117 0 160 -4 224 -21 215
-59 401 -196 524 -386 88 -136 110 -247 72 -374 -10 -37 -26 -122 -35 -189 -8
-68 -22 -143 -30 -168 -15 -43 -146 -248 -213 -333 -82 -104 -286 -216 -483
-267 -79 -21 -231 -34 -402 -36 -128 -1 -148 1 -209 23 -122 45 -271 152 -361
257 -58 68 -132 195 -174 299 -53 130 -81 255 -109 477 -14 110 -31 236 -39
280 -8 44 -20 141 -26 215 -6 74 -13 139 -16 143 -3 5 -8 82 -12 173 -8 189
-15 207 -71 184 -72 -30 -104 -113 -130 -343 -24 -207 -33 -248 -76 -354 -63
-153 -82 -296 -64 -480 26 -277 138 -558 269 -676 46 -41 84 -48 101 -17 14
27 6 55 -61 201 -63 139 -108 271 -136 399 -26 122 -26 430 0 478 10 17 24 32
31 32 35 0 50 -54 71 -260 20 -192 36 -274 85 -420 52 -158 163 -421 198 -473
61 -87 167 -167 392 -294 69 -39 164 -95 212 -125 173 -109 383 -152 621 -129
202 19 351 60 592 164 77 33 164 68 193 78 49 17 209 48 324 64 146 19 324
240 390 485 19 73 23 110 23 255 0 151 -3 178 -23 245 -86 271 -405 686 -671
870 -133 92 -146 104 -138 125 19 48 197 -14 330 -115 203 -154 450 -469 547
-699 71 -166 99 -362 81 -561 -21 -224 -57 -349 -143 -489 -45 -74 -260 -335
-338 -410 -166 -162 -600 -350 -947 -411 -121 -21 -314 -30 -438 -19 -292 25
-528 103 -840 280 -228 128 -269 148 -303 149 -62 0 -55 -58 16 -127 110 -108
448 -296 666 -372 120 -42 313 -80 457 -90 524 -37 1141 173 1605 546 235 190
375 422 404 669 5 49 13 181 16 294 8 244 -7 375 -62 540 -56 169 -138 303
-314 519 -154 187 -316 335 -412 376 -20 8 -116 34 -214 59 -98 25 -244 70
-324 100 -299 112 -491 169 -630 186 -46 5 -89 9 -95 9 -5 -1 -48 -6 -94 -10z
m376 -1195 c65 -31 126 -99 154 -173 30 -79 29 -204 -1 -285 -27 -70 -89 -138
-145 -156 -85 -28 -200 7 -200 61 0 22 6 25 57 31 73 9 107 27 151 79 90 104
59 268 -60 321 -56 25 -102 18 -146 -22 -26 -23 -32 -35 -32 -70 0 -30 6 -46
20 -56 27 -20 63 -17 77 6 28 44 78 2 64 -53 -14 -57 -150 -146 -203 -132 -76
19 -143 146 -128 243 28 190 217 289 392 206z"/>
<path d="M3071 6046 c-23 -24 -23 -24 13 -8 36 17 47 32 23 32 -8 0 -24 -11
-36 -24z"/>
<path d="M2950 4440 c0 -11 78 -237 110 -315 81 -202 230 -451 342 -571 139
-148 419 -344 679 -475 287 -144 502 -203 789 -216 319 -14 646 53 1040 214
74 31 184 75 244 100 119 47 234 119 335 208 92 82 108 90 127 74 39 -32 -11
-126 -130 -244 -108 -107 -154 -135 -239 -146 -89 -11 -79 -8 -282 -94 -433
-184 -694 -245 -1043 -245 -331 1 -513 45 -830 204 -170 85 -325 179 -540 327
-96 66 -199 131 -229 145 -55 24 -55 24 37 -74 274 -288 501 -458 825 -618
220 -109 285 -128 491 -144 390 -29 667 10 1024 142 176 65 316 132 449 213
110 67 141 74 141 33 0 -94 -253 -252 -620 -388 -326 -120 -391 -131 -860
-140 -305 -6 -392 -5 -417 6 -17 7 -69 37 -116 67 -141 92 -646 371 -612 338
37 -36 253 -188 377 -266 67 -43 166 -108 218 -145 52 -37 117 -79 143 -94 26
-15 53 -35 59 -45 11 -17 14 -16 46 18 41 43 45 43 267 17 225 -27 443 -11
650 49 280 81 642 271 805 422 34 31 93 100 131 152 37 53 109 147 158 210 99
126 141 197 165 282 9 30 55 125 102 210 176 317 165 292 98 229 -32 -30 -91
-93 -130 -140 -84 -99 -103 -115 -214 -169 -45 -23 -135 -74 -199 -115 -204
-129 -398 -219 -661 -306 -541 -180 -995 -169 -1460 35 -292 128 -527 292
-666 467 -29 36 -103 119 -165 185 -136 144 -234 270 -301 383 -27 47 -56 92
-64 101 -7 8 -27 40 -44 70 -16 30 -30 52 -30 49z"/>
</g>
</svg>
