<?xml version="1.0" standalone="no"?>
<!DOCTYPE svg PUBLIC "-//W3C//DTD SVG 20010904//EN"
 "http://www.w3.org/TR/2001/REC-SVG-20010904/DTD/svg10.dtd">
<svg version="1.0" xmlns="http://www.w3.org/2000/svg"
 width="1000.000000pt" height="1000.000000pt" viewBox="0 0 1000.000000 1000.000000"
 preserveAspectRatio="xMidYMid meet">
<metadata>
  <rdf:RDF
    xmlns:rdf = "http://www.w3.org/1999/02/22-rdf-syntax-ns#"
    xmlns:rdfs = "http://www.w3.org/2000/01/rdf-schema#"
    xmlns:dc = "http://purl.org/dc/elements/1.1/"
    xmlns:cc = "http://creativecommons.org/ns#">
    <cc:license rdf:resource="http://creativecommons.org/publicdomain/zero/1.0/deed.en"/>
    <cc:permits rdf:resource="http://creativecommons.org/ns#Reproduction"/>
    <rdf:Description about="https://nft.mir.one/fingerprints"
      dc:title="TON Fingerprints"
      dc:description="This is a unique digital fingerprint created based on the algorithm for generating basic rings using a noise texture. Like human fingerprints, you can now use it for the Web3 and Metaverse era as digital biometric information."
      dc:publisher="https://nft.mir.one"
      dc:date="2022-02-22"
      dc:format="image/svg+xml"
      dc:language="en" >
      <dc:creator>
      <rdf:Bag>
        <rdf:li>EQBondcvD2_aOFADXSWJHs4ZazQDuEl9_wNvGGPxI8hGuOFU</rdf:li>
        <rdf:li>ipfs://bafkreihj7iub3fhmhq6jn62noukt5wxn3gv6bvcg7wmt6ywvlurefezckq</rdf:li>
      </rdf:Bag>
      </dc:creator>
    </rdf:Description>
  </rdf:RDF>
</metadata>
<g transform="translate(0.000000,1000.000000) scale(0.100000,-0.100000)"
fill="#1b1f23" stroke="none">
<path d="M5095 7749 c-138 -13 -210 -32 -470 -125 -132 -47 -273 -97 -313
-112 -53 -18 -72 -30 -70 -41 2 -12 18 -17 63 -19 75 -4 218 36 490 136 105
38 219 77 255 85 200 50 293 70 365 77 69 6 59 7 -75 7 -85 0 -195 -3 -245 -8z"/>
<path d="M4338 7664 c-27 -13 -48 -27 -48 -29 0 -5 99 42 109 51 13 11 -20 0
-61 -22z"/>
<path d="M5620 7632 c0 -23 -41 -32 -210 -42 -210 -12 -304 -31 -586 -115
-299 -90 -401 -114 -540 -124 -162 -13 -347 -54 -478 -106 -60 -24 -113 -48
-118 -53 -28 -28 298 -20 554 13 198 26 242 36 1063 232 246 58 384 139 330
193 -10 9 -15 10 -15 2z"/>
<path d="M4198 7571 c-40 -32 -106 -77 -145 -101 -40 -24 -73 -44 -73 -46 0
-2 66 18 133 41 37 13 54 27 73 59 14 22 42 56 62 73 61 54 28 37 -50 -26z"/>
<path d="M5727 7459 c-49 -11 -70 -23 -132 -69 -81 -61 65 -28 -1615 -368 -80
-16 -182 -37 -228 -45 -213 -40 -317 -139 -462 -438 -64 -132 -80 -179 -169
-504 -110 -397 -126 -503 -143 -925 -10 -259 -14 -298 -30 -319 -27 -35 -22
-54 7 -26 58 59 77 23 85 -168 5 -136 8 -149 29 -170 21 -21 23 -21 36 -3 19
25 30 111 30 226 -1 71 -8 123 -29 205 -29 109 -29 109 -23 375 7 362 25 469
108 652 66 147 70 168 63 298 -6 107 -5 121 20 193 52 156 136 297 227 383 60
56 151 105 201 107 29 2 33 -1 36 -25 3 -22 -14 -46 -98 -135 -170 -181 -283
-374 -284 -483 -1 -49 1 -55 20 -58 31 -4 76 38 149 144 127 182 313 383 429
465 175 123 637 245 1121 294 83 9 196 27 253 40 120 29 202 32 269 9 63 -21
335 -171 548 -302 265 -163 327 -211 424 -328 86 -104 190 -196 270 -239 63
-34 64 -34 39 -7 -14 15 -56 70 -94 122 -205 286 -322 400 -539 530 -49 30
-126 78 -170 108 -44 31 -114 71 -155 90 -100 46 -142 78 -138 105 4 27 16 26
197 -18 132 -33 136 -33 158 -15 15 11 50 21 90 26 40 4 60 10 52 14 -24 14
-301 87 -355 94 -39 6 -65 3 -112 -13 -34 -12 -70 -21 -81 -21 -28 0 -63 32
-56 52 10 25 116 66 233 88 59 12 114 24 122 27 20 8 -163 42 -220 41 -25 0
-62 -4 -83 -9z"/>
<path d="M6120 7110 c0 -33 63 -82 207 -160 167 -90 288 -150 271 -135 -118
109 -285 228 -395 284 -73 36 -83 38 -83 11z"/>
<path d="M5396 6994 c-9 -8 -16 -20 -16 -25 0 -22 52 -56 141 -93 164 -68 418
-201 634 -332 172 -103 267 -154 291 -154 1 0 10 7 18 16 45 44 -75 145 -409
344 -188 112 -390 215 -471 240 -80 24 -166 27 -188 4z"/>
<path d="M4920 6909 c-186 -15 -456 -74 -615 -134 -254 -96 -492 -284 -683
-540 -95 -128 -139 -205 -148 -262 -9 -57 21 -147 61 -187 37 -37 113 -58 161
-44 43 11 120 82 221 203 117 139 163 210 163 250 0 96 -47 113 -116 41 -55
-58 -179 -222 -248 -329 -64 -99 -92 -122 -102 -82 -17 70 35 199 133 330 80
106 141 163 238 223 44 27 114 74 155 106 133 102 320 181 534 228 85 19 132
22 296 22 218 0 254 -7 480 -97 236 -94 715 -357 940 -515 91 -65 203 -174
250 -244 39 -59 40 -60 34 -131 -5 -64 -1 -92 40 -247 67 -255 80 -357 80
-605 0 -243 -13 -333 -74 -516 -65 -196 -156 -352 -285 -487 -137 -145 -230
-201 -510 -311 -99 -38 -242 -95 -317 -126 -294 -120 -551 -153 -524 -67 9 26
59 51 226 113 80 30 206 85 280 123 74 38 155 80 180 93 33 16 75 25 156 33
186 17 270 58 405 197 273 280 392 692 334 1150 -31 241 -109 543 -178 683
-93 191 -392 424 -802 625 -420 207 -711 250 -1060 160 -183 -48 -360 -141
-428 -227 -36 -45 -50 -131 -23 -141 23 -9 46 2 169 76 192 117 351 165 573
174 108 4 165 2 245 -12 340 -56 770 -283 1010 -531 191 -199 269 -390 344
-846 40 -244 30 -408 -37 -603 -61 -180 -148 -323 -276 -456 -84 -88 -156
-137 -185 -126 -25 9 -11 36 69 132 283 339 407 708 320 955 -15 41 -33 118
-42 170 -47 293 -116 471 -250 638 -183 229 -513 435 -830 517 -282 73 -555
49 -799 -70 -189 -93 -261 -149 -537 -427 -222 -224 -259 -266 -276 -311 -37
-97 -47 -168 -46 -322 0 -171 18 -261 78 -405 126 -298 370 -572 444 -498 30
30 7 86 -88 228 -158 233 -221 412 -221 624 0 178 41 302 147 446 26 36 146
163 267 284 207 206 225 221 302 257 133 62 234 83 410 83 109 0 173 -4 235
-18 399 -86 757 -353 901 -671 57 -126 81 -230 82 -350 1 -110 1 -110 -66
-308 -78 -233 -113 -302 -321 -632 -224 -356 -272 -398 -643 -566 -237 -109
-271 -119 -384 -126 -186 -11 -407 45 -654 166 -250 123 -459 283 -581 445
-93 121 -153 285 -154 413 0 64 7 83 30 83 25 0 47 -34 113 -172 130 -274 269
-410 576 -563 426 -212 712 -225 1087 -50 251 117 370 234 626 616 133 197
174 281 215 438 33 125 37 300 9 406 -74 281 -289 525 -587 664 -287 135 -627
146 -880 30 -101 -47 -134 -93 -87 -123 18 -11 24 -10 228 36 143 33 359 30
492 -5 186 -49 340 -137 468 -266 136 -137 219 -304 241 -487 25 -206 -54
-494 -137 -494 -13 0 -24 2 -24 5 0 3 12 49 26 102 34 126 39 339 10 442 -77
280 -286 487 -583 578 -80 24 -103 27 -258 27 -148 1 -189 -3 -315 -28 -80
-15 -172 -37 -205 -47 -143 -46 -310 -226 -379 -412 -51 -135 -53 -317 -5
-461 52 -154 242 -461 344 -554 103 -95 226 -137 395 -136 180 1 330 58 479
182 59 50 98 74 130 82 87 22 147 91 178 207 23 86 23 356 0 443 -65 244 -256
423 -497 466 -145 26 -313 0 -445 -69 -75 -39 -184 -146 -218 -212 -79 -157
-74 -367 9 -422 22 -14 26 -14 48 1 19 12 26 28 31 63 14 116 36 210 61 262
80 163 295 271 481 241 127 -21 204 -61 286 -150 99 -107 142 -228 141 -400
-1 -119 -19 -200 -66 -302 -33 -72 -55 -90 -75 -62 -18 25 -16 55 12 179 66
293 -5 500 -203 593 -76 36 -202 38 -274 5 -57 -26 -131 -93 -163 -148 -31
-52 -55 -153 -55 -231 0 -109 34 -173 114 -210 169 -79 369 53 369 243 0 79
-53 143 -108 129 -27 -7 -32 -26 -13 -55 15 -25 -11 -68 -48 -77 -87 -22 -131
108 -63 183 87 94 244 58 312 -72 26 -50 34 -172 17 -247 -19 -82 -73 -191
-120 -242 -25 -27 -70 -60 -108 -78 -56 -28 -78 -33 -157 -36 -110 -5 -188 16
-274 74 -62 42 -243 226 -284 289 -68 104 -93 261 -63 389 45 193 180 345 371
421 189 75 439 86 608 28 123 -43 189 -85 287 -183 97 -96 145 -180 181 -316
19 -68 22 -104 20 -254 0 -96 4 -196 10 -222 13 -59 3 -93 -53 -180 -141 -218
-408 -416 -658 -488 -94 -27 -297 -38 -395 -21 -78 14 -194 53 -311 104 -44
20 -125 48 -179 62 -116 30 -166 59 -256 152 -77 79 -114 131 -235 338 -141
241 -157 319 -155 726 1 259 1 269 -24 346 -40 127 -81 162 -124 108 -27 -35
-39 -100 -52 -278 -13 -171 -6 -528 11 -627 20 -111 15 -213 -19 -378 -41
-201 -40 -229 7 -328 126 -259 433 -526 842 -734 239 -121 403 -170 695 -209
83 -11 193 -29 245 -40 177 -38 341 -21 572 58 247 86 586 249 733 353 275
195 469 482 546 804 39 163 51 291 51 514 0 367 -26 523 -123 718 -33 67 -58
129 -55 137 14 39 98 -2 149 -71 61 -83 125 -192 145 -244 29 -75 27 -50 -4
56 -74 257 -237 523 -398 648 -93 73 -138 97 -221 121 -78 23 -141 55 -367
187 -104 60 -268 147 -365 194 -98 47 -241 116 -318 154 -126 63 -149 70 -230
80 -49 5 -99 9 -110 9 -11 -1 -63 -5 -115 -10z m1398 -2045 c11 -181 -83 -429
-269 -714 -45 -69 -95 -152 -112 -185 -32 -66 -73 -115 -94 -115 -22 0 -33 44
-21 87 15 55 47 116 164 309 141 235 177 316 253 581 35 118 74 137 79 37z"/>
<path d="M7071 5204 c1 -104 5 -243 9 -309 4 -66 5 17 2 185 -3 168 -6 307 -8
309 -2 2 -3 -81 -3 -185z"/>
<path d="M2921 4714 c0 -11 3 -14 6 -6 3 7 2 16 -1 19 -3 4 -6 -2 -5 -13z"/>
<path d="M7072 4670 c0 -19 2 -27 5 -17 2 9 2 25 0 35 -3 9 -5 1 -5 -18z"/>
<path d="M7062 4575 c0 -16 2 -22 5 -12 2 9 2 23 0 30 -3 6 -5 -1 -5 -18z"/>
<path d="M7052 4510 c0 -14 2 -19 5 -12 2 6 2 18 0 25 -3 6 -5 1 -5 -13z"/>
<path d="M7037 4444 c-20 -121 -135 -375 -247 -542 -72 -108 -200 -246 -309
-334 -278 -224 -738 -443 -1091 -519 -87 -19 -137 -23 -290 -23 -444 -1 -808
103 -1200 343 -335 206 -578 406 -742 613 -29 37 -75 83 -101 103 -48 37 -48
37 6 -72 173 -343 292 -494 510 -642 73 -49 191 -131 262 -181 356 -251 820
-397 1200 -377 211 12 459 66 692 153 218 80 589 281 740 400 202 159 385 444
496 769 47 137 92 316 85 337 -3 7 -8 -5 -11 -28z"/>
<path d="M6701 3367 c-6 -8 -34 -26 -63 -42 -29 -16 -93 -57 -142 -92 -176
-126 -420 -266 -615 -353 -282 -127 -750 -250 -945 -250 -234 1 -581 90 -854
220 -153 73 -233 126 -343 228 -158 145 -283 225 -372 236 -49 6 -49 6 25 -50
107 -82 201 -177 278 -280 137 -184 424 -360 773 -473 246 -80 442 -117 580
-109 74 4 91 10 172 52 65 33 148 63 295 106 222 63 311 97 436 165 153 83
334 209 481 337 61 52 320 318 310 318 -2 0 -10 -6 -16 -13z"/>
<path d="M6095 2640 c-184 -102 -437 -188 -713 -245 -158 -32 -191 -49 -143
-75 29 -15 81 -12 194 11 212 42 424 133 633 270 106 69 135 91 122 89 -2 -1
-43 -23 -93 -50z"/>
<path d="M4485 2285 c88 -29 177 -59 198 -68 64 -27 40 -7 -29 24 -64 29 -294
100 -317 98 -7 -1 60 -25 148 -54z"/>
</g>
</svg>
