<?xml version="1.0" standalone="no"?>
<!DOCTYPE svg PUBLIC "-//W3C//DTD SVG 20010904//EN"
 "http://www.w3.org/TR/2001/REC-SVG-20010904/DTD/svg10.dtd">
<svg version="1.0" xmlns="http://www.w3.org/2000/svg"
 width="1000.000000pt" height="1000.000000pt" viewBox="0 0 1000.000000 1000.000000"
 preserveAspectRatio="xMidYMid meet">
<metadata>
  <rdf:RDF
    xmlns:rdf = "http://www.w3.org/1999/02/22-rdf-syntax-ns#"
    xmlns:rdfs = "http://www.w3.org/2000/01/rdf-schema#"
    xmlns:dc = "http://purl.org/dc/elements/1.1/"
    xmlns:cc = "http://creativecommons.org/ns#">
    <cc:license rdf:resource="http://creativecommons.org/publicdomain/zero/1.0/deed.en"/>
    <cc:permits rdf:resource="http://creativecommons.org/ns#Reproduction"/>
    <rdf:Description about="https://nft.mir.one/fingerprints"
      dc:title="TON Fingerprints"
      dc:description="This is a unique digital fingerprint created based on the algorithm for generating basic rings using a noise texture. Like human fingerprints, you can now use it for the Web3 and Metaverse era as digital biometric information."
      dc:publisher="https://nft.mir.one"
      dc:date="2022-02-22"
      dc:format="image/svg+xml"
      dc:language="en" >
      <dc:creator>
      <rdf:Bag>
        <rdf:li>EQBondcvD2_aOFADXSWJHs4ZazQDuEl9_wNvGGPxI8hGuOFU</rdf:li>
        <rdf:li>ipfs://bafkreihj7iub3fhmhq6jn62noukt5wxn3gv6bvcg7wmt6ywvlurefezckq</rdf:li>
      </rdf:Bag>
      </dc:creator>
    </rdf:Description>
  </rdf:RDF>
</metadata>
<g transform="translate(0.000000,1000.000000) scale(0.100000,-0.100000)"
fill="#1b1f23" stroke="none">
<path d="M4945 7749 c-164 -17 -327 -68 -489 -152 -113 -59 -185 -119 -223
-186 -55 -97 -106 -137 -363 -281 -91 -51 -229 -134 -307 -185 -143 -93 -143
-93 -95 -97 50 -4 296 43 551 106 162 40 358 70 412 63 26 -3 49 -18 85 -54
39 -38 72 -59 159 -96 61 -25 151 -64 202 -86 108 -48 236 -82 538 -147 585
-124 807 -235 975 -484 66 -98 132 -162 270 -260 123 -88 190 -119 276 -127
67 -6 67 -6 -48 133 -105 127 -125 146 -233 219 -129 87 -146 105 -129 133 25
39 109 26 236 -39 43 -21 83 -39 90 -39 7 0 26 -7 41 -15 23 -12 17 -2 -29 53
-167 195 -246 257 -378 297 -49 15 -160 54 -245 87 -362 140 -559 192 -1076
284 -168 30 -248 55 -270 87 -13 18 -13 23 -1 35 21 21 134 26 292 12 294 -25
606 -92 964 -208 401 -130 448 -143 494 -140 45 3 45 3 -37 68 -208 165 -326
232 -499 285 -346 104 -599 153 -838 162 -197 7 -293 -8 -419 -66 -70 -33
-113 -45 -200 -58 -119 -17 -141 -14 -141 16 0 57 108 122 316 190 170 55 242
66 444 66 252 -1 461 -39 840 -153 91 -27 189 -52 219 -56 54 -5 54 -5 -70 70
-247 152 -492 257 -711 306 -88 20 -130 23 -293 23 -260 -1 -371 -25 -665
-147 -168 -70 -252 -85 -283 -51 -10 12 -15 27 -11 37 16 42 354 221 510 269
165 52 239 61 514 61 140 1 275 -3 300 -7 24 -4 42 -5 38 -2 -12 12 -299 65
-408 74 -129 12 -189 12 -305 0z"/>
<path d="M3974 7429 c-10 -11 -45 -37 -76 -56 -68 -42 -70 -53 -3 -22 46 22
105 72 105 90 0 13 -5 11 -26 -12z"/>
<path d="M4155 6763 c-16 -2 -84 -15 -150 -30 -78 -16 -174 -28 -274 -33 -214
-12 -237 -23 -428 -219 -79 -79 -142 -146 -140 -147 7 -8 103 29 217 84 165
78 281 122 325 122 32 0 35 -2 35 -30 0 -22 -12 -44 -42 -77 -67 -72 -133
-110 -254 -148 -126 -40 -167 -66 -247 -156 -46 -53 -142 -180 -171 -227 -15
-25 84 29 187 102 143 100 211 138 250 140 25 1 33 -3 35 -19 6 -44 -39 -90
-251 -263 -117 -94 -186 -201 -272 -417 -26 -66 -50 -126 -53 -134 -7 -18 62
51 109 109 62 77 141 152 317 304 94 80 234 214 310 296 122 130 143 158 160
209 68 202 258 306 552 304 180 -1 317 -39 356 -99 16 -23 16 -27 1 -41 -13
-13 -54 -17 -229 -24 -218 -7 -323 -22 -423 -60 -73 -27 -143 -76 -162 -112
-15 -29 -14 -32 7 -49 25 -20 80 -23 150 -7 25 5 140 14 255 19 235 9 288 20
445 91 109 49 175 56 345 40 233 -23 448 -60 700 -122 161 -40 258 -48 285
-24 65 58 -45 144 -279 220 -139 44 -246 70 -542 129 -250 51 -329 74 -493
145 -229 100 -354 132 -504 130 -53 -1 -110 -4 -127 -6z"/>
<path d="M4925 6075 c-148 -27 -335 -89 -410 -137 -22 -14 -72 -52 -110 -84
-39 -33 -140 -106 -224 -164 -85 -58 -197 -141 -250 -185 -53 -44 -136 -113
-186 -153 -115 -94 -145 -135 -237 -323 -88 -180 -118 -259 -147 -389 -11 -52
-36 -161 -56 -243 -65 -271 -77 -396 -50 -553 91 -530 453 -1108 875 -1394 33
-22 60 -39 60 -37 0 2 -30 27 -67 55 -105 77 -203 179 -296 303 -239 323 -375
655 -408 997 -24 260 67 669 167 749 94 75 130 113 181 191 86 131 147 256
187 383 24 77 50 137 76 177 73 110 254 262 456 385 229 140 448 200 719 199
166 0 260 -11 495 -57 96 -19 225 -41 285 -50 148 -21 243 -47 350 -100 103
-50 182 -113 256 -206 67 -83 93 -124 269 -420 80 -135 165 -267 188 -295 28
-31 40 -40 33 -24 -6 14 -24 79 -40 145 -61 244 -147 452 -281 680 -79 133
-199 241 -405 363 -103 61 -144 72 -315 88 -85 7 -243 30 -350 49 -354 64
-600 81 -765 50z m-1112 -950 c-2 -35 -240 -512 -260 -519 -7 -3 -20 6 -29 19
-21 32 -12 85 33 195 81 200 181 344 232 338 22 -3 26 -8 24 -33z"/>
<path d="M4200 6034 c-92 -18 -263 -70 -319 -98 -82 -42 -153 -95 -423 -316
-340 -278 -378 -323 -446 -527 -24 -71 -92 -338 -92 -361 0 -16 67 92 109 175
116 232 240 376 367 426 46 18 99 50 153 95 335 271 364 292 567 402 131 72
214 133 214 158 0 35 -65 58 -130 46z"/>
<path d="M4985 5644 c-254 -45 -514 -174 -684 -338 -92 -90 -118 -127 -206
-301 -77 -153 -176 -309 -303 -480 -134 -179 -185 -295 -218 -494 -20 -125
-15 -342 11 -466 42 -197 135 -423 242 -583 72 -109 231 -274 348 -362 114
-86 336 -222 440 -271 107 -49 162 -60 340 -66 428 -14 759 108 1030 381 128
130 188 217 287 424 80 167 80 167 80 253 -2 177 -29 425 -64 574 -84 361
-284 638 -618 857 -161 105 -336 162 -398 129 -57 -30 -12 -83 158 -186 168
-102 254 -170 357 -279 107 -114 270 -356 312 -465 56 -144 75 -332 50 -480
-11 -61 -15 -70 -64 -116 -30 -28 -86 -101 -126 -165 -211 -335 -339 -437
-662 -526 -123 -34 -289 -44 -335 -20 -43 22 -42 51 1 65 17 5 78 22 135 36
57 15 137 40 178 56 41 16 105 33 141 39 123 20 220 86 329 223 72 92 204 310
239 395 54 134 51 344 -8 458 -21 41 -62 76 -84 72 -17 -3 -18 -17 -18 -183 0
-205 -14 -270 -86 -424 -103 -221 -342 -492 -391 -443 -17 17 15 74 118 207
158 204 230 390 253 649 7 86 18 143 31 174 28 63 25 91 -18 175 -98 189 -245
322 -542 495 -150 86 -211 105 -340 105 -174 0 -365 -48 -522 -129 -142 -75
-335 -295 -418 -478 -169 -371 -87 -831 207 -1171 110 -127 294 -263 463 -341
265 -124 363 -151 520 -141 397 25 709 246 907 642 28 55 56 117 63 138 22 69
70 57 70 -17 0 -61 -23 -129 -84 -249 -152 -299 -375 -500 -656 -590 -132 -43
-204 -52 -390 -51 -161 0 -182 3 -265 28 -183 55 -473 246 -661 434 -282 283
-440 707 -395 1065 28 227 101 397 264 610 163 214 256 297 355 317 31 7 134
34 228 60 215 61 301 77 450 86 86 4 139 13 192 31 202 68 420 -9 709 -251
104 -87 266 -252 310 -317 96 -139 175 -435 228 -849 28 -221 48 -320 73 -360
9 -14 21 -35 27 -47 17 -32 40 210 40 417 0 176 -9 238 -67 495 -30 132 -36
204 -29 317 3 37 -3 61 -24 102 -36 71 -66 99 -151 140 -51 24 -105 65 -204
156 -274 250 -439 353 -649 406 -76 20 -119 24 -230 24 -289 0 -533 -66 -794
-213 -126 -72 -134 -74 -148 -44 -33 72 129 228 334 322 169 77 333 115 527
122 308 11 480 -51 785 -282 98 -74 154 -127 377 -358 46 -48 61 -58 85 -55
25 3 28 8 31 42 4 50 -18 103 -83 201 -72 107 -172 215 -254 272 -132 93 -170
125 -228 196 -89 108 -196 159 -421 197 -137 24 -366 26 -487 4z m31 -1134
c43 -11 126 -43 184 -71 330 -159 446 -328 426 -620 -14 -222 -101 -434 -269
-660 -133 -178 -181 -212 -414 -298 -132 -48 -186 -52 -289 -20 -272 83 -511
352 -585 655 -31 125 -31 297 0 414 80 305 317 542 606 605 94 21 248 18 341
-5z"/>
<path d="M4672 4326 c-220 -56 -409 -252 -468 -486 -23 -87 -22 -254 0 -339
49 -183 156 -335 305 -433 93 -61 179 -88 280 -88 275 1 514 204 650 554 84
215 91 361 25 505 -44 98 -103 145 -200 161 -33 5 -79 23 -113 45 -110 66
-183 88 -311 91 -74 2 -134 -1 -168 -10z m620 -255 c90 -129 109 -329 36 -375
-25 -15 -31 -3 -39 73 -4 38 -24 115 -43 172 -63 180 -38 251 46 130z m-354 5
c87 -44 147 -116 226 -274 20 -40 52 -90 71 -111 30 -33 35 -45 35 -87 -1
-101 -70 -243 -158 -326 -99 -93 -206 -133 -333 -126 -258 15 -462 290 -419
564 24 154 126 296 252 354 81 36 97 39 193 36 63 -3 92 -9 133 -30z"/>
<path d="M4712 3919 c-192 -35 -283 -295 -167 -479 109 -173 338 -208 478 -72
98 94 119 214 58 331 -80 155 -230 245 -369 220z m71 -173 c3 -8 -1 -36 -9
-62 -18 -60 -10 -99 23 -121 30 -20 55 -9 63 28 7 30 44 37 71 13 57 -52 -18
-164 -111 -164 -141 0 -223 189 -125 287 35 35 79 44 88 19z"/>
<path d="M6877 5653 c-14 -13 -6 -47 19 -80 40 -53 66 -65 117 -58 44 7 44 7
-29 76 -69 65 -91 78 -107 62z"/>
<path d="M5997 5563 c-4 -3 -7 -19 -7 -35 0 -22 13 -43 54 -83 85 -85 142 -84
129 3 -7 48 -27 78 -66 102 -31 19 -97 27 -110 13z"/>
<path d="M6255 5503 c-19 -19 -19 -28 5 -104 14 -46 41 -92 96 -164 140 -185
202 -293 274 -475 22 -55 71 -140 138 -240 58 -85 122 -191 143 -235 21 -44
47 -93 58 -110 26 -37 26 -34 6 139 -28 240 -48 300 -186 548 -67 121 -153
268 -192 327 -153 233 -294 363 -342 314z"/>
<path d="M6970 5408 c0 -45 33 -107 80 -153 41 -40 41 -40 7 35 -19 41 -40 92
-46 113 -16 46 -41 50 -41 5z"/>
<path d="M3345 5185 c-60 -64 -162 -231 -216 -354 -70 -158 -95 -347 -85 -636
4 -104 11 -206 15 -225 9 -35 9 -35 10 2 1 20 6 49 12 65 6 15 17 71 25 123
19 130 37 209 90 388 59 203 99 306 189 480 50 96 75 156 75 178 0 32 -2 34
-32 34 -26 0 -42 -10 -83 -55z"/>
<path d="M6617 4393 c-15 -14 -5 -76 28 -184 46 -151 72 -278 85 -424 13 -138
32 -267 38 -260 10 9 50 303 56 410 10 150 -3 230 -54 332 -22 45 -54 93 -71
107 -29 25 -68 34 -82 19z"/>
<path d="M6396 3145 c-8 -9 -20 -33 -26 -53 -55 -198 -78 -287 -75 -290 6 -6
85 155 111 226 35 92 30 156 -10 117z"/>
</g>
</svg>
