<?xml version="1.0" standalone="no"?>
<!DOCTYPE svg PUBLIC "-//W3C//DTD SVG 20010904//EN"
 "http://www.w3.org/TR/2001/REC-SVG-20010904/DTD/svg10.dtd">
<svg version="1.0" xmlns="http://www.w3.org/2000/svg"
 width="1000.000000pt" height="1000.000000pt" viewBox="0 0 1000.000000 1000.000000"
 preserveAspectRatio="xMidYMid meet">
<metadata>
  <rdf:RDF
    xmlns:rdf = "http://www.w3.org/1999/02/22-rdf-syntax-ns#"
    xmlns:rdfs = "http://www.w3.org/2000/01/rdf-schema#"
    xmlns:dc = "http://purl.org/dc/elements/1.1/"
    xmlns:cc = "http://creativecommons.org/ns#">
    <cc:license rdf:resource="http://creativecommons.org/publicdomain/zero/1.0/deed.en"/>
    <cc:permits rdf:resource="http://creativecommons.org/ns#Reproduction"/>
    <rdf:Description about="https://nft.mir.one/fingerprints"
      dc:title="TON Fingerprints"
      dc:description="This is a unique digital fingerprint created based on the algorithm for generating basic rings using a noise texture. Like human fingerprints, you can now use it for the Web3 and Metaverse era as digital biometric information."
      dc:publisher="https://nft.mir.one"
      dc:date="2022-02-22"
      dc:format="image/svg+xml"
      dc:language="en" >
      <dc:creator>
      <rdf:Bag>
        <rdf:li>EQBondcvD2_aOFADXSWJHs4ZazQDuEl9_wNvGGPxI8hGuOFU</rdf:li>
        <rdf:li>ipfs://bafkreihj7iub3fhmhq6jn62noukt5wxn3gv6bvcg7wmt6ywvlurefezckq</rdf:li>
      </rdf:Bag>
      </dc:creator>
    </rdf:Description>
  </rdf:RDF>
</metadata>
<g transform="translate(0.000000,1000.000000) scale(0.100000,-0.100000)"
fill="#1b1f23" stroke="none">
<path d="M4773 7695 c-243 -37 -460 -109 -795 -264 -94 -43 -115 -60 -46 -35
24 8 74 19 113 25 38 5 158 34 265 64 372 104 564 131 868 122 225 -6 332 -25
579 -100 81 -25 180 -54 218 -65 39 -11 79 -23 90 -27 11 -4 -14 12 -55 35
-176 99 -414 189 -605 230 -130 28 -489 37 -632 15z"/>
<path d="M4945 7464 c-225 -24 -457 -77 -627 -143 -121 -47 -153 -69 -163
-108 -12 -48 -54 -92 -172 -180 -139 -103 -190 -147 -209 -185 -18 -35 -5 -58
31 -58 27 0 197 102 355 212 192 135 302 187 494 234 170 41 315 57 511 57
263 -1 390 -31 390 -93 0 -34 -24 -37 -295 -44 -507 -12 -711 -66 -1103 -293
-187 -107 -240 -132 -331 -155 -44 -11 -99 -29 -121 -40 -69 -35 -210 -145
-281 -221 -76 -80 -218 -278 -267 -372 -29 -54 -32 -69 -33 -155 0 -78 -10
-132 -52 -305 -61 -250 -78 -346 -92 -525 -7 -90 -16 -143 -27 -159 -12 -19
-13 -25 -2 -32 25 -16 47 -9 67 19 29 41 40 83 68 251 14 85 50 251 81 370 30
119 63 256 73 306 26 124 42 165 97 247 65 96 227 264 332 344 96 73 594 329
787 404 220 86 411 121 760 140 210 11 266 21 414 75 67 24 84 27 155 22 168
-13 411 -103 636 -238 68 -40 143 -81 167 -91 24 -9 51 -22 60 -29 49 -37
-205 212 -273 267 -219 178 -322 232 -795 411 -119 46 -231 63 -420 67 -96 2
-193 2 -215 0z"/>
<path d="M4015 7272 c-102 -35 -258 -161 -386 -311 -46 -53 -131 -145 -189
-206 -58 -60 -134 -153 -170 -205 -64 -95 -64 -95 17 -19 44 41 133 115 197
163 86 65 132 108 175 165 82 107 185 201 315 287 62 40 121 83 131 94 19 22
19 22 0 36 -24 18 -29 17 -90 -4z"/>
<path d="M5710 6909 c-80 -16 -128 -73 -81 -99 12 -6 87 -32 168 -59 175 -57
281 -105 423 -191 227 -137 442 -321 603 -515 27 -33 78 -91 114 -128 64 -68
64 -68 -21 101 -93 184 -155 284 -251 407 -130 166 -246 253 -487 370 -199 96
-358 135 -468 114z"/>
<path d="M4920 6809 c-273 -31 -556 -128 -886 -305 -330 -176 -539 -380 -635
-620 -59 -148 -138 -490 -164 -710 -35 -302 -17 -379 136 -571 32 -40 76 -110
98 -156 21 -45 66 -140 100 -210 33 -70 92 -176 130 -235 38 -59 79 -132 91
-164 36 -97 139 -169 370 -256 353 -134 535 -165 815 -143 363 30 638 134 878
334 97 81 144 164 102 181 -23 8 -52 -6 -176 -87 -298 -196 -536 -274 -865
-284 -255 -8 -367 18 -423 98 -31 45 -23 41 -176 85 -213 62 -281 106 -505
325 -111 109 -139 157 -176 295 -15 60 -55 161 -99 254 -40 85 -81 180 -89
210 -42 142 -40 350 5 600 62 344 136 498 325 680 113 109 249 199 441 293
359 175 682 237 1015 192 137 -18 252 -57 426 -144 328 -164 480 -272 737
-521 77 -75 172 -162 210 -195 39 -32 104 -92 146 -132 55 -52 84 -73 103 -73
33 0 43 34 27 96 -31 123 -117 239 -332 449 -230 224 -387 333 -707 492 -176
87 -197 100 -245 154 -53 59 -53 59 -137 69 -101 12 -434 11 -540 -1z"/>
<path d="M4705 6454 c-177 -32 -355 -98 -532 -197 -299 -168 -484 -366 -536
-572 -9 -33 -28 -147 -42 -254 -23 -164 -27 -218 -22 -345 5 -174 27 -266 102
-423 36 -76 59 -109 133 -187 90 -94 112 -130 193 -314 29 -66 110 -144 185
-179 50 -22 63 -24 122 -18 37 5 121 6 187 4 66 -2 219 -4 340 -4 249 0 345
15 525 82 266 99 483 244 743 497 118 115 140 157 161 306 8 58 18 114 22 125
11 31 46 65 66 65 16 0 18 -9 18 -64 0 -73 12 -114 36 -123 25 -9 46 21 55 79
9 56 -3 138 -56 388 -14 63 -31 165 -39 225 -15 123 -25 148 -102 251 -236
314 -706 596 -1103 660 -109 18 -352 17 -456 -2z m316 -179 c85 -15 250 -67
392 -124 563 -226 832 -626 723 -1076 -53 -217 -93 -310 -185 -433 -152 -201
-409 -384 -655 -467 -141 -47 -212 -58 -376 -59 -253 0 -345 36 -506 198 -158
159 -282 363 -336 551 -30 106 -32 306 -4 405 48 164 211 463 307 561 75 76
194 150 288 179 159 50 192 -3 52 -82 -214 -121 -326 -238 -435 -455 -157
-315 -136 -607 66 -900 61 -89 185 -208 258 -250 112 -64 177 -78 355 -77 145
0 169 3 249 28 385 117 668 408 740 758 76 367 -97 691 -458 858 -91 42 -191
70 -255 70 -36 0 -49 -6 -89 -44 -26 -24 -100 -76 -165 -115 -202 -122 -311
-213 -393 -327 -91 -128 -134 -255 -134 -399 0 -157 49 -282 156 -395 212
-224 556 -217 790 15 120 120 171 251 162 416 -20 337 -361 486 -659 287 -116
-78 -184 -202 -183 -333 0 -86 25 -147 83 -203 76 -74 179 -91 270 -46 67 34
103 86 108 157 5 64 -18 106 -72 131 -32 15 -44 16 -76 7 -66 -20 -89 -77 -44
-107 32 -21 32 -39 0 -60 -55 -36 -125 30 -125 119 0 166 212 272 366 182 158
-93 165 -328 14 -469 -28 -26 -76 -59 -108 -74 -50 -24 -69 -27 -157 -27 -88
0 -106 3 -155 27 -159 78 -251 266 -220 449 41 243 289 468 573 520 139 26
279 -23 399 -138 288 -279 197 -768 -188 -1016 -372 -239 -796 -132 -984 248
-55 110 -73 189 -73 310 0 120 20 207 74 323 72 157 173 271 359 408 151 111
181 129 260 159 41 15 81 34 89 41 22 20 -1 59 -49 84 -59 30 -222 62 -320 63
-169 2 -368 -88 -527 -237 -60 -55 -63 -61 -63 -105 0 -55 -24 -109 -112 -251
-131 -212 -158 -293 -158 -475 0 -143 31 -270 99 -410 60 -122 186 -313 275
-418 90 -104 116 -145 116 -178 0 -43 -36 -38 -109 17 -85 64 -129 119 -280
352 -199 304 -230 385 -238 620 -9 224 19 332 107 427 59 63 216 269 239 313
30 56 -19 69 -90 24 -47 -30 -90 -79 -156 -177 -53 -79 -66 -90 -83 -70 -33
40 20 170 112 270 63 68 281 216 453 306 98 52 242 104 326 118 86 14 269 12
360 -4z"/>
<path d="M3024 5908 c-19 -23 -19 -23 1 -7 11 9 27 19 35 22 13 5 13 6 -1 6
-9 1 -24 -9 -35 -21z"/>
<path d="M6507 5603 c-16 -15 -5 -82 22 -138 15 -33 65 -122 110 -199 142
-240 167 -303 193 -491 20 -145 16 -584 -6 -730 -22 -140 -29 -165 -52 -165
-31 0 -138 -68 -186 -117 -25 -26 -83 -104 -129 -173 -181 -275 -380 -468
-644 -626 -180 -107 -367 -176 -651 -239 -122 -27 -122 -27 -165 2 -43 28 -43
28 -348 28 -200 -1 -334 -5 -386 -14 -44 -7 -152 -14 -240 -17 -88 -2 -178 -6
-199 -10 -44 -7 -63 2 184 -87 103 -37 212 -42 360 -15 52 10 169 22 260 28
152 10 246 20 343 36 33 6 37 4 37 -14 0 -43 -80 -80 -220 -101 -36 -5 -153
-17 -260 -26 -187 -16 -268 -33 -255 -54 14 -23 91 -34 280 -38 231 -6 297 3
497 67 68 21 191 55 273 75 341 83 627 241 903 498 174 163 246 259 362 488
78 152 101 186 120 174 32 -20 -22 -230 -101 -389 -74 -149 -168 -258 -379
-440 -206 -177 -413 -311 -612 -395 -102 -44 -172 -61 -353 -85 -60 -8 -182
-30 -270 -50 -88 -19 -230 -42 -315 -51 -190 -19 -276 -32 -235 -34 17 -1 97
-6 180 -11 170 -10 291 -2 516 35 109 18 171 23 222 19 62 -5 82 -2 147 21 95
34 265 119 369 184 232 144 531 423 679 634 97 138 198 385 209 507 5 70 33
180 45 180 18 0 62 -22 73 -36 9 -13 11 -3 12 47 0 35 12 136 26 224 15 88 31
210 37 270 13 145 13 409 -1 537 -17 154 -63 366 -94 436 -24 54 -38 69 -104
117 -42 31 -102 75 -135 100 -54 42 -101 57 -119 38z"/>
<path d="M7082 5260 c0 -14 2 -19 5 -12 2 6 2 18 0 25 -3 6 -5 1 -5 -13z"/>
<path d="M6571 5016 c-7 -8 -17 -45 -22 -82 -5 -37 -25 -101 -43 -143 -61
-137 -68 -249 -25 -426 43 -179 13 -292 -134 -510 -258 -384 -518 -603 -859
-723 -179 -64 -306 -76 -479 -46 -99 17 -151 14 -185 -11 -19 -14 -19 -14 1
-33 11 -11 51 -27 90 -36 124 -29 129 -72 8 -64 -48 3 -89 14 -142 37 -72 32
-79 33 -305 47 -127 7 -287 19 -356 24 -285 25 -274 25 -337 -3 -36 -15 -85
-27 -128 -30 -39 -3 -81 -10 -94 -15 -21 -7 -12 -13 70 -44 229 -87 185 -81
664 -89 254 -3 478 -11 547 -19 111 -13 122 -13 220 8 57 12 149 31 206 42
217 43 412 125 612 257 144 96 341 289 456 447 43 60 121 166 172 234 176 236
177 241 177 692 0 364 -6 423 -47 475 -22 28 -49 32 -67 11z"/>
<path d="M3053 4678 c-12 -19 -6 -148 11 -242 47 -247 171 -457 313 -530 26
-13 72 -45 102 -71 84 -72 153 -101 197 -85 37 14 30 48 -26 128 -28 40 -106
189 -175 333 -129 272 -163 329 -195 329 -64 0 -39 -100 85 -351 82 -165 97
-210 74 -224 -34 -21 -200 234 -254 390 -9 28 -21 96 -25 152 -9 120 -31 176
-72 181 -15 2 -30 -3 -35 -10z"/>
<path d="M6225 4466 c-16 -7 -65 -44 -108 -82 -214 -188 -274 -228 -524 -355
-283 -144 -519 -198 -871 -199 -112 0 -173 -14 -203 -46 -20 -21 -21 -26 -8
-39 41 -41 286 -65 471 -46 273 28 459 91 773 265 55 31 132 68 170 82 65 24
79 36 209 168 134 136 176 187 176 214 0 13 -36 52 -47 52 -5 -1 -21 -7 -38
-14z"/>
<path d="M3733 4413 c-34 -12 15 -147 77 -213 30 -32 67 -40 77 -15 8 22 -21
90 -65 154 -39 57 -69 82 -89 74z"/>
<path d="M6326 4278 c-38 -35 -218 -303 -267 -398 -99 -192 -368 -391 -654
-485 -120 -39 -276 -62 -505 -75 -369 -21 -619 24 -1007 179 -267 107 -528
169 -716 171 -12 0 14 -26 65 -66 147 -118 192 -143 331 -190 72 -24 189 -71
259 -105 186 -87 354 -125 673 -149 142 -11 169 -9 309 16 43 8 137 14 210 14
228 0 393 37 589 130 227 108 438 296 590 525 109 166 161 264 183 342 16 58
16 64 0 87 -20 32 -28 32 -60 4z"/>
<path d="M3040 4070 c60 -120 169 -263 234 -305 31 -21 76 -13 76 13 0 9 -30
44 -67 77 -37 33 -112 105 -166 160 -93 94 -98 97 -77 55z"/>
<path d="M3422 3254 c119 -80 213 -128 269 -138 47 -8 89 7 89 33 0 27 -60 76
-122 99 -82 31 -236 70 -294 75 -51 4 -51 4 58 -69z"/>
<path d="M5325 2246 c-20 -20 -23 -25 -9 -18 22 11 50 41 43 45 -2 1 -17 -11
-34 -27z"/>
</g>
</svg>
