<?xml version="1.0" standalone="no"?>
<!DOCTYPE svg PUBLIC "-//W3C//DTD SVG 20010904//EN"
 "http://www.w3.org/TR/2001/REC-SVG-20010904/DTD/svg10.dtd">
<svg version="1.0" xmlns="http://www.w3.org/2000/svg"
 width="1000.000000pt" height="1000.000000pt" viewBox="0 0 1000.000000 1000.000000"
 preserveAspectRatio="xMidYMid meet">
<metadata>
  <rdf:RDF
    xmlns:rdf = "http://www.w3.org/1999/02/22-rdf-syntax-ns#"
    xmlns:rdfs = "http://www.w3.org/2000/01/rdf-schema#"
    xmlns:dc = "http://purl.org/dc/elements/1.1/"
    xmlns:cc = "http://creativecommons.org/ns#">
    <cc:license rdf:resource="http://creativecommons.org/publicdomain/zero/1.0/deed.en"/>
    <cc:permits rdf:resource="http://creativecommons.org/ns#Reproduction"/>
    <rdf:Description about="https://nft.mir.one/fingerprints"
      dc:title="TON Fingerprints"
      dc:description="This is a unique digital fingerprint created based on the algorithm for generating basic rings using a noise texture. Like human fingerprints, you can now use it for the Web3 and Metaverse era as digital biometric information."
      dc:publisher="https://nft.mir.one"
      dc:date="2022-02-22"
      dc:format="image/svg+xml"
      dc:language="en" >
      <dc:creator>
      <rdf:Bag>
        <rdf:li>EQBondcvD2_aOFADXSWJHs4ZazQDuEl9_wNvGGPxI8hGuOFU</rdf:li>
        <rdf:li>ipfs://bafkreihj7iub3fhmhq6jn62noukt5wxn3gv6bvcg7wmt6ywvlurefezckq</rdf:li>
      </rdf:Bag>
      </dc:creator>
    </rdf:Description>
  </rdf:RDF>
</metadata>
<g transform="translate(0.000000,1000.000000) scale(0.100000,-0.100000)"
fill="#1b1f23" stroke="none">
<path d="M4850 7783 c-99 -10 -335 -45 -340 -50 -10 -10 315 9 490 29 112 12
208 18 265 15 66 -4 78 -3 45 3 -44 8 -389 11 -460 3z"/>
<path d="M5378 7763 c6 -2 18 -2 25 0 6 3 1 5 -13 5 -14 0 -19 -2 -12 -5z"/>
<path d="M4463 7723 c9 -2 23 -2 30 0 6 3 -1 5 -18 5 -16 0 -22 -2 -12 -5z"/>
<path d="M5060 7591 c-14 -5 -41 -16 -60 -26 -29 -16 -69 -20 -230 -26 -437
-15 -747 -134 -1124 -432 -55 -44 -105 -84 -111 -89 -11 -10 86 33 250 112
242 116 483 177 746 187 172 7 275 -6 396 -48 197 -70 503 -198 703 -296 118
-58 254 -120 301 -138 282 -109 498 -262 688 -490 115 -138 243 -347 378 -615
24 -47 43 -83 43 -80 0 3 -20 64 -44 135 -123 366 -265 637 -448 852 -99 117
-175 174 -335 249 -76 36 -266 128 -423 204 -157 76 -352 163 -435 194 -232
88 -270 105 -300 136 -31 32 -30 64 3 68 31 5 177 -25 294 -59 143 -42 283
-105 579 -261 268 -140 430 -208 495 -208 19 0 50 -7 69 -14 19 -8 35 -14 35
-12 0 8 -100 72 -149 96 -32 16 -141 84 -242 152 -387 262 -557 347 -789 399
-87 19 -242 24 -290 10z"/>
<path d="M5850 7576 c0 -2 8 -10 18 -17 15 -13 16 -12 3 4 -13 16 -21 21 -21
13z"/>
<path d="M5890 7546 c0 -2 8 -10 18 -17 15 -13 16 -12 3 4 -13 16 -21 21 -21
13z"/>
<path d="M4331 7134 c-269 -39 -529 -139 -682 -262 -82 -66 -200 -185 -276
-278 -48 -59 -253 -357 -253 -369 0 -11 108 85 223 198 378 374 719 520 1212
520 147 0 199 -3 281 -21 203 -44 499 -164 641 -260 109 -74 182 -174 183
-250 0 -18 5 -43 11 -55 7 -12 82 -94 168 -182 214 -218 303 -356 436 -673 33
-79 60 -127 92 -162 62 -69 84 -138 85 -259 0 -158 -42 -328 -119 -481 -102
-201 -220 -332 -513 -569 -63 -52 -139 -118 -168 -148 -31 -32 -76 -65 -108
-80 -95 -43 -214 -41 -214 3 0 9 10 19 22 22 114 30 323 190 602 462 203 198
259 280 325 479 79 236 80 521 1 521 -33 0 -48 -39 -69 -177 -11 -73 -28 -163
-36 -200 -21 -92 -80 -275 -104 -322 -24 -47 -70 -87 -109 -96 -20 -4 -41 -22
-63 -53 -50 -71 -280 -296 -404 -397 -149 -120 -183 -153 -195 -191 -8 -24
-21 -36 -50 -48 -94 -38 -361 -88 -540 -102 -372 -28 -914 274 -1165 651 -97
145 -133 261 -142 455 -11 255 62 581 192 858 119 252 250 412 505 618 69 56
153 131 187 168 37 40 80 75 106 86 70 31 180 50 291 50 147 0 217 -24 301
-101 22 -20 56 -34 135 -52 58 -14 163 -44 233 -66 156 -50 247 -55 247 -13 0
26 -48 79 -114 127 -133 95 -474 238 -657 275 -93 20 -125 22 -304 17 -427
-12 -607 -66 -862 -256 -103 -76 -327 -297 -398 -391 -26 -36 -78 -96 -115
-135 -37 -38 -90 -105 -119 -148 -52 -78 -52 -78 6 -33 32 24 69 56 83 71 30
32 77 58 90 50 20 -12 9 -52 -49 -175 -95 -201 -150 -417 -185 -735 -15 -125
-37 -496 -32 -503 2 -1 14 19 28 45 18 35 33 93 52 210 55 334 114 565 197
766 51 122 111 274 151 377 97 251 501 610 743 660 65 14 108 1 103 -31 -2
-15 -31 -38 -98 -76 -153 -88 -247 -160 -370 -283 -161 -160 -231 -268 -338
-525 -100 -241 -145 -389 -188 -630 -34 -186 -44 -470 -21 -561 22 -84 35
-104 181 -264 239 -262 411 -393 701 -536 168 -82 315 -136 436 -159 115 -21
161 -19 219 10 28 14 76 32 108 40 62 16 333 50 477 60 50 3 140 15 200 25 61
10 152 24 204 30 52 6 121 20 155 31 383 127 792 561 945 1005 17 49 48 159
69 244 49 206 50 307 4 495 -113 455 -416 897 -780 1142 -127 85 -220 112
-285 82 -21 -10 -36 -3 -134 65 -262 180 -674 351 -943 392 -116 17 -303 16
-429 -2z m1602 -576 c279 -255 401 -386 513 -558 121 -185 227 -413 276 -590
30 -112 33 -349 5 -480 -80 -377 -306 -727 -622 -963 -117 -87 -292 -177 -345
-177 -83 0 -66 20 130 151 271 181 488 419 599 660 105 228 144 467 107 661
-27 142 -147 421 -260 608 -81 133 -172 250 -336 430 -169 186 -218 271 -194
334 3 9 11 16 16 16 5 0 55 -42 111 -92z"/>
<path d="M4640 6445 c-98 -20 -174 -52 -259 -109 -206 -138 -430 -352 -540
-516 -149 -223 -243 -486 -271 -765 -26 -251 26 -467 162 -668 102 -151 317
-329 512 -421 194 -93 326 -121 535 -113 161 6 296 34 389 81 98 49 258 181
428 350 164 165 172 175 228 283 53 102 84 138 103 119 3 -3 0 -34 -8 -70 -10
-53 -10 -68 1 -81 10 -12 15 -13 28 -3 27 22 52 91 52 143 0 28 17 110 39 185
41 142 81 352 81 426 0 50 -12 86 -46 135 -14 21 -35 80 -50 140 -44 185 -154
360 -302 484 -90 75 -182 118 -343 159 -238 61 -313 59 -544 -15 -236 -75
-381 -158 -532 -301 -115 -110 -193 -217 -264 -363 -196 -403 -163 -793 90
-1044 117 -117 309 -233 481 -293 91 -31 102 -32 240 -32 130 0 153 3 225 27
183 60 321 185 217 195 -18 2 -74 -10 -125 -27 -128 -42 -203 -54 -299 -49
-102 6 -163 31 -232 96 -73 69 -171 133 -246 160 -133 48 -186 95 -239 214
-90 199 -64 443 76 723 59 118 115 196 201 276 89 84 139 119 254 174 142 69
266 97 418 98 227 0 394 -65 542 -213 110 -109 158 -199 158 -296 0 -79 -22
-114 -57 -89 -11 8 -42 52 -68 97 -179 310 -544 427 -900 289 -104 -40 -195
-100 -270 -176 -72 -74 -106 -134 -134 -234 -12 -41 -42 -117 -67 -169 -45
-92 -47 -98 -52 -207 -5 -125 6 -190 46 -270 29 -60 48 -82 84 -101 63 -32 78
10 50 138 -40 182 -40 290 -1 329 15 15 24 17 39 9 21 -11 31 -42 55 -169 34
-179 102 -285 197 -309 65 -17 203 -15 273 3 72 19 153 72 190 125 81 118 73
290 -19 367 -112 94 -280 58 -318 -68 -23 -77 27 -159 96 -159 47 0 60 14 61
62 0 37 3 43 22 46 32 5 73 -39 73 -79 0 -125 -169 -198 -292 -126 -84 49
-138 169 -125 279 11 91 69 160 177 212 59 28 74 31 160 31 85 0 101 -3 153
-30 190 -95 246 -323 136 -549 -43 -89 -86 -136 -156 -173 -80 -43 -147 -61
-277 -74 -154 -16 -195 -40 -147 -88 70 -70 311 -46 601 61 30 11 79 24 109
29 71 13 98 28 153 87 110 117 175 255 234 492 46 184 72 239 127 270 24 13
28 13 42 0 13 -14 12 -31 -14 -157 -60 -289 -83 -349 -207 -530 -64 -94 -121
-163 -218 -259 -72 -73 -162 -165 -201 -205 -100 -105 -223 -173 -373 -204
-87 -19 -282 -19 -369 0 -196 41 -397 145 -557 286 -116 102 -231 286 -271
434 -26 95 -31 323 -10 442 59 330 235 632 493 846 162 134 265 190 481 262
147 49 196 78 189 113 -8 40 -165 54 -298 27z m555 -760 c33 -9 88 -30 123
-47 126 -62 291 -249 327 -370 29 -100 13 -247 -45 -396 -49 -127 -161 -285
-189 -267 -21 13 -10 68 34 169 61 141 78 219 72 334 -4 81 -9 102 -40 165
-48 98 -138 184 -244 235 -77 37 -79 37 -203 37 -112 -1 -132 -4 -193 -27 -37
-15 -100 -48 -140 -74 -128 -83 -187 -99 -187 -50 2 90 209 250 378 291 78 19
234 19 307 0z m-855 -595 c0 -5 -5 -10 -11 -10 -5 0 -7 5 -4 10 3 6 8 10 11
10 2 0 4 -4 4 -10z"/>
<path d="M7013 4964 c1 -151 -12 -198 -112 -408 -105 -222 -244 -410 -448
-607 -173 -166 -356 -278 -558 -337 -174 -52 -484 -102 -750 -122 -369 -27
-375 -28 -375 -72 0 -84 414 -91 810 -12 149 29 420 104 528 146 186 71 341
186 537 398 229 247 286 357 386 738 41 160 39 346 -4 389 -13 13 -15 -1 -14
-113z"/>
<path d="M3124 4175 c-7 -30 -1 -58 33 -149 31 -82 131 -236 176 -270 61 -46
465 -295 546 -335 44 -23 126 -54 182 -70 100 -29 154 -61 134 -80 -6 -5 -27
-14 -47 -20 -51 -17 -63 -33 -38 -56 17 -16 32 -17 106 -12 64 5 115 1 198
-14 323 -58 373 -63 616 -63 337 -1 532 33 892 154 182 62 244 72 255 45 8
-21 -14 -37 -133 -95 -208 -102 -511 -184 -776 -210 -189 -19 -651 -8 -833 19
-145 22 -267 51 -315 76 -16 8 -41 30 -57 49 -18 22 -70 55 -151 95 -68 34
-194 109 -279 167 -197 133 -238 154 -302 154 -75 0 -77 -20 -5 -61 23 -13 82
-69 131 -124 106 -118 168 -172 289 -253 278 -186 486 -264 739 -278 153 -8
736 12 875 31 413 56 779 208 885 368 26 39 70 79 161 148 203 151 290 255
453 539 39 69 81 133 92 143 16 13 18 17 6 17 -39 0 -71 -25 -144 -112 -252
-300 -454 -464 -648 -523 -576 -175 -831 -222 -1153 -212 -130 4 -182 10 -237
26 -38 12 -135 39 -215 61 -174 49 -168 47 -350 128 -218 97 -362 172 -495
260 -194 127 -290 209 -425 363 -105 120 -153 147 -166 94z"/>
<path d="M3193 3584 c14 -23 30 -57 35 -75 8 -34 8 -34 15 1 7 31 4 38 -34 75
-41 40 -41 40 -16 -1z"/>
<path d="M6774 3529 c-16 -17 -53 -50 -83 -72 -30 -22 -147 -118 -260 -212
-226 -189 -292 -235 -426 -300 -280 -135 -544 -187 -1035 -205 -184 -7 -302
-17 -388 -31 -118 -21 -125 -21 -222 -4 -249 41 -471 135 -694 294 -43 31
-104 73 -135 94 -31 21 -71 53 -88 70 -18 17 -35 28 -38 25 -9 -8 221 -243
318 -325 214 -179 322 -232 887 -429 131 -45 239 -58 450 -51 140 4 200 11
300 33 69 16 152 28 185 29 58 0 60 -1 57 -25 -5 -33 -13 -42 -70 -73 -112
-61 -340 -107 -532 -107 -173 0 -276 15 -579 85 -62 14 -115 24 -117 22 -8 -7
339 -96 441 -113 333 -55 757 18 881 152 31 32 85 67 203 129 89 46 194 105
234 131 77 49 267 184 267 189 0 2 -93 -44 -207 -100 -301 -150 -377 -176
-539 -186 -71 -5 -177 -16 -235 -25 -144 -21 -470 -30 -584 -15 -104 14 -160
37 -160 65 0 31 39 35 294 35 228 0 398 13 639 46 437 61 774 285 1170 778
103 127 122 155 66 96z"/>
<path d="M3350 3246 c0 -2 8 -10 18 -17 15 -13 16 -12 3 4 -13 16 -21 21 -21
13z"/>
</g>
</svg>
