<?xml version="1.0" standalone="no"?>
<!DOCTYPE svg PUBLIC "-//W3C//DTD SVG 20010904//EN"
 "http://www.w3.org/TR/2001/REC-SVG-20010904/DTD/svg10.dtd">
<svg version="1.0" xmlns="http://www.w3.org/2000/svg"
 width="1000.000000pt" height="1000.000000pt" viewBox="0 0 1000.000000 1000.000000"
 preserveAspectRatio="xMidYMid meet">
<metadata>
  <rdf:RDF
    xmlns:rdf = "http://www.w3.org/1999/02/22-rdf-syntax-ns#"
    xmlns:rdfs = "http://www.w3.org/2000/01/rdf-schema#"
    xmlns:dc = "http://purl.org/dc/elements/1.1/"
    xmlns:cc = "http://creativecommons.org/ns#">
    <cc:license rdf:resource="http://creativecommons.org/publicdomain/zero/1.0/deed.en"/>
    <cc:permits rdf:resource="http://creativecommons.org/ns#Reproduction"/>
    <rdf:Description about="https://nft.mir.one/fingerprints"
      dc:title="TON Fingerprints"
      dc:description="This is a unique digital fingerprint created based on the algorithm for generating basic rings using a noise texture. Like human fingerprints, you can now use it for the Web3 and Metaverse era as digital biometric information."
      dc:publisher="https://nft.mir.one"
      dc:date="2022-02-22"
      dc:format="image/svg+xml"
      dc:language="en" >
      <dc:creator>
      <rdf:Bag>
        <rdf:li>EQBondcvD2_aOFADXSWJHs4ZazQDuEl9_wNvGGPxI8hGuOFU</rdf:li>
        <rdf:li>ipfs://bafkreihj7iub3fhmhq6jn62noukt5wxn3gv6bvcg7wmt6ywvlurefezckq</rdf:li>
      </rdf:Bag>
      </dc:creator>
    </rdf:Description>
  </rdf:RDF>
</metadata>
<g transform="translate(0.000000,1000.000000) scale(0.100000,-0.100000)"
fill="#1b1f23" stroke="none">
<path d="M5180 7808 c0 -2 7 -26 16 -51 14 -41 30 -58 112 -124 116 -91 147
-106 294 -138 160 -36 225 -59 320 -116 100 -60 164 -121 226 -214 25 -38 114
-162 198 -275 177 -240 284 -400 374 -564 36 -65 94 -161 129 -214 80 -120
115 -201 136 -317 21 -108 19 -149 -26 -555 -24 -216 -33 -348 -34 -490 -2
-166 -5 -206 -24 -273 -54 -194 -141 -366 -286 -565 -57 -79 -127 -185 -155
-237 -34 -60 -74 -115 -114 -154 -75 -75 -113 -101 -210 -145 -41 -19 -91 -46
-112 -60 -46 -31 -64 -33 -64 -6 0 41 31 80 147 183 65 58 148 143 185 188
125 154 203 250 266 327 111 135 213 340 261 526 26 99 28 184 5 193 -38 14
-50 -8 -140 -252 -89 -244 -175 -381 -270 -432 -70 -37 -148 -116 -295 -297
-57 -71 -127 -158 -156 -193 -54 -67 -85 -114 -151 -228 -48 -84 -128 -167
-259 -271 -54 -43 -145 -126 -203 -185 -58 -59 -131 -126 -162 -149 -31 -23
-69 -57 -83 -76 -46 -60 -76 -82 -144 -102 -173 -54 -336 -72 -641 -73 -245 0
-245 0 -150 -29 155 -48 309 -79 441 -90 132 -11 465 -5 614 11 112 12 376 76
515 124 87 30 505 233 497 241 -3 3 -70 -17 -302 -91 -226 -73 -293 -90 -465
-120 -181 -31 -272 -33 -300 -5 -11 11 -17 26 -14 34 11 28 155 70 312 91 135
18 188 31 360 90 302 103 488 223 737 475 110 111 110 111 49 82 -34 -15 -122
-72 -195 -124 -169 -122 -219 -148 -380 -198 -71 -23 -193 -68 -272 -102 -236
-101 -309 -119 -324 -81 -10 25 38 60 249 184 241 141 250 145 311 129 94 -24
165 7 287 125 47 45 112 103 144 129 236 189 309 261 381 376 55 90 127 230
100 195 -169 -217 -297 -337 -327 -307 -18 18 0 57 61 140 79 107 102 144 162
262 100 200 170 441 188 648 18 208 34 691 28 856 -10 275 -46 416 -184 713
-138 294 -260 492 -494 801 -68 89 -144 190 -169 224 -56 77 -190 181 -320
247 -102 52 -157 70 -290 95 -129 24 -360 140 -360 182 0 6 -7 17 -15 24 -8 7
-15 10 -15 8z m1000 -4543 c0 -24 -46 -62 -117 -95 -66 -31 -83 -32 -83 -1 0
24 23 43 94 80 64 34 106 40 106 16z"/>
<path d="M4515 7721 c-66 -4 -105 -8 -87 -9 18 -1 74 -10 125 -21 50 -10 135
-24 188 -30 112 -12 192 -36 349 -101 139 -58 181 -68 200 -45 11 13 9 19 -11
41 -34 37 -210 120 -304 144 -91 23 -270 31 -460 21z"/>
<path d="M4500 7526 c-203 -16 -265 -27 -454 -75 -171 -45 -177 -41 99 -60
250 -17 367 -44 470 -107 87 -53 156 -83 401 -175 476 -177 701 -329 935 -631
141 -183 224 -350 299 -603 46 -155 61 -185 90 -185 34 0 43 36 37 144 -18
313 -198 659 -497 956 -215 213 -355 289 -821 445 -213 71 -330 116 -347 131
-27 24 -27 24 -7 40 29 23 88 13 320 -52 110 -30 241 -67 290 -80 358 -99 590
-268 861 -630 138 -184 234 -366 276 -523 28 -106 31 -368 5 -456 -12 -41 -21
-123 -28 -260 -16 -325 -42 -463 -182 -950 -109 -378 -113 -405 -68 -405 38 0
67 56 144 281 105 311 175 530 197 624 45 189 67 392 80 760 8 218 12 258 30
308 22 58 22 58 1 127 -49 159 -202 422 -384 660 -286 372 -404 464 -734 570
-69 23 -131 35 -210 41 -67 6 -147 20 -200 36 -48 14 -124 37 -168 50 -102 31
-220 36 -435 19z"/>
<path d="M3983 7235 c-96 -27 -208 -74 -318 -135 -110 -60 -110 -60 -60 -60
28 0 91 8 140 17 67 13 143 17 300 17 189 0 223 -3 337 -27 212 -45 561 -169
772 -274 430 -215 701 -519 886 -996 78 -199 100 -290 107 -443 9 -208 -20
-418 -122 -890 -65 -299 -81 -346 -144 -444 -27 -41 -80 -127 -117 -190 -141
-240 -223 -348 -385 -505 -124 -120 -173 -161 -299 -247 -250 -172 -472 -236
-779 -225 -237 9 -401 49 -622 153 -63 30 -120 54 -125 54 -5 0 -34 16 -64 35
-55 35 -55 35 0 -15 72 -67 223 -188 283 -229 76 -51 282 -147 371 -173 71
-20 101 -23 251 -22 400 2 569 75 953 412 229 201 299 280 500 567 100 143
198 292 218 332 35 70 36 73 24 123 -17 70 -12 100 76 452 92 373 123 549 131
738 7 197 -4 266 -65 398 -28 59 -69 159 -92 222 -180 490 -494 829 -962 1041
-104 46 -587 234 -688 267 -158 51 -410 75 -507 47z"/>
<path d="M3803 6924 c-133 -19 -229 -69 -407 -212 -45 -36 -87 -70 -94 -77
-20 -18 81 6 208 48 227 77 487 109 717 89 386 -34 797 -185 1075 -395 273
-206 495 -535 570 -845 18 -78 20 -106 15 -267 -4 -99 -13 -225 -22 -279 -8
-55 -26 -192 -40 -305 -13 -114 -34 -267 -45 -341 -24 -164 -25 -213 -4 -234
20 -21 27 -20 51 7 36 41 55 110 108 397 63 346 86 519 92 691 7 202 -4 292
-58 454 -140 421 -413 758 -785 968 -246 139 -603 262 -875 302 -129 18 -377
18 -506 -1z"/>
<path d="M3962 6639 c-174 -15 -405 -70 -507 -121 -62 -32 -161 -117 -262
-226 -93 -100 -93 -100 -50 -87 24 7 83 33 133 58 307 154 570 220 869 220
293 0 568 -64 813 -187 329 -165 607 -494 725 -856 38 -114 40 -130 22 -136
-28 -11 -63 35 -142 190 -188 368 -366 559 -647 696 -137 67 -280 112 -441
140 -379 65 -711 15 -1080 -165 -116 -56 -138 -70 -197 -134 -37 -39 -103
-125 -147 -190 -67 -100 -76 -117 -53 -105 15 7 33 14 39 14 7 0 50 26 95 59
106 75 303 191 411 241 100 47 263 102 367 125 116 25 381 31 515 11 147 -21
333 -68 423 -105 184 -76 342 -215 476 -420 107 -162 274 -450 296 -510 28
-75 34 -135 14 -152 -14 -12 -19 -10 -41 16 -14 17 -55 86 -92 155 -37 69
-130 224 -206 345 -156 247 -237 340 -361 413 -97 57 -162 76 -384 113 -489
81 -754 22 -1182 -264 -216 -144 -247 -175 -318 -321 -33 -67 -75 -175 -95
-241 -19 -66 -38 -128 -41 -139 -12 -38 57 27 127 120 84 112 207 230 364 350
66 51 162 126 214 168 154 123 304 185 503 207 113 13 242 1 357 -33 63 -18
83 -31 142 -84 72 -67 284 -214 353 -245 22 -10 55 -19 73 -19 43 0 86 -39
171 -154 123 -164 289 -465 318 -576 36 -135 10 -566 -46 -770 -80 -290 -348
-591 -664 -746 -154 -75 -275 -105 -446 -111 -230 -8 -341 22 -655 180 -198
99 -242 115 -274 98 -34 -19 -25 -52 34 -124 75 -90 150 -149 270 -207 210
-103 351 -135 595 -135 228 1 337 25 527 120 342 170 674 524 769 820 22 69
25 91 20 162 -4 53 1 151 14 275 11 106 24 276 29 378 7 140 15 200 30 248 16
48 21 90 21 168 0 77 4 113 16 136 34 66 14 200 -53 358 -200 466 -582 777
-1127 921 -204 53 -438 75 -634 58z m861 -775 c125 -63 249 -174 262 -236 13
-56 -9 -54 -83 10 -78 67 -152 118 -259 181 -70 40 -88 63 -60 75 22 10 88 -4
140 -30z"/>
<path d="M6700 6025 c-11 -13 -11 -38 1 -133 29 -241 9 -631 -45 -872 -23
-102 -122 -380 -248 -700 -64 -164 -76 -222 -46 -228 45 -9 128 136 238 415
40 100 90 211 111 245 55 88 68 119 89 217 53 244 75 624 46 788 -22 125 -54
218 -87 254 -31 33 -41 35 -59 14z"/>
<path d="M4105 5800 c-173 -25 -375 -134 -375 -202 0 -36 18 -48 72 -48 56 0
101 17 161 59 99 70 289 81 452 27 146 -49 391 -194 519 -305 255 -225 388
-573 346 -907 -57 -452 -348 -788 -787 -905 -112 -31 -321 -33 -378 -4 -89 45
-48 78 125 100 134 17 214 35 297 65 316 116 524 349 605 677 30 123 30 303 0
428 -44 179 -163 375 -298 491 -131 113 -329 224 -474 264 -138 39 -324 39
-372 1 -20 -17 -21 -21 -8 -36 20 -25 49 -33 164 -50 282 -42 477 -135 639
-305 91 -94 146 -185 189 -310 30 -89 32 -103 33 -235 0 -116 -4 -153 -23
-218 -68 -235 -231 -421 -459 -522 -147 -66 -442 -122 -588 -112 -130 9 -267
69 -377 167 -92 81 -201 274 -273 485 -72 212 -24 434 127 591 73 76 139 112
288 157 309 94 622 70 815 -62 173 -117 264 -355 215 -561 -32 -139 -145 -277
-280 -344 -282 -139 -605 -38 -735 228 -56 116 -63 195 -39 437 6 65 6 67 -21
85 -27 17 -29 17 -63 -2 -20 -10 -51 -38 -68 -61 -86 -113 -104 -299 -45 -473
136 -404 490 -569 916 -429 120 40 213 97 299 183 125 125 184 257 193 432 11
196 -57 374 -196 514 -137 138 -278 202 -550 250 -91 16 -215 39 -276 50 -60
12 -142 22 -180 23 -64 2 -79 -2 -146 -35 -174 -86 -356 -263 -439 -429 -41
-80 -60 -187 -60 -336 0 -149 8 -185 60 -273 21 -36 50 -105 65 -155 76 -257
126 -371 201 -454 49 -55 117 -92 313 -175 136 -58 219 -99 326 -161 111 -65
250 -90 405 -74 408 41 786 338 935 733 57 152 90 422 74 598 -12 126 -46 234
-121 380 -110 216 -214 341 -360 431 -40 24 -154 95 -252 157 -104 66 -207
123 -246 136 -112 39 -231 51 -345 34z"/>
<path d="M4082 5065 c-169 -47 -229 -124 -239 -304 -4 -62 -1 -118 7 -152 30
-129 126 -246 238 -290 81 -33 223 -33 304 -1 63 25 147 95 183 152 31 49 55
133 55 191 0 55 -42 207 -73 264 -28 49 -90 97 -164 125 -75 29 -234 37 -311
15z m353 -155 c49 -24 76 -57 55 -70 -6 -4 -42 -5 -78 -3 -59 4 -71 2 -102
-19 -42 -29 -60 -63 -53 -101 13 -65 102 -74 113 -12 7 42 49 47 79 9 67 -85
-30 -216 -164 -218 -155 -2 -262 166 -196 309 55 118 217 168 346 105z"/>
<path d="M3025 4255 c3 -35 1 -74 -6 -93 -15 -45 -4 -52 17 -11 21 42 21 97 0
135 -17 29 -17 29 -11 -31z"/>
</g>
</svg>
