<?xml version="1.0" standalone="no"?>
<!DOCTYPE svg PUBLIC "-//W3C//DTD SVG 20010904//EN"
 "http://www.w3.org/TR/2001/REC-SVG-20010904/DTD/svg10.dtd">
<svg version="1.0" xmlns="http://www.w3.org/2000/svg"
 width="1000.000000pt" height="1000.000000pt" viewBox="0 0 1000.000000 1000.000000"
 preserveAspectRatio="xMidYMid meet">
<metadata>
  <rdf:RDF
    xmlns:rdf = "http://www.w3.org/1999/02/22-rdf-syntax-ns#"
    xmlns:rdfs = "http://www.w3.org/2000/01/rdf-schema#"
    xmlns:dc = "http://purl.org/dc/elements/1.1/"
    xmlns:cc = "http://creativecommons.org/ns#">
    <cc:license rdf:resource="http://creativecommons.org/publicdomain/zero/1.0/deed.en"/>
    <cc:permits rdf:resource="http://creativecommons.org/ns#Reproduction"/>
    <rdf:Description about="https://nft.mir.one/fingerprints"
      dc:title="TON Fingerprints"
      dc:description="This is a unique digital fingerprint created based on the algorithm for generating basic rings using a noise texture. Like human fingerprints, you can now use it for the Web3 and Metaverse era as digital biometric information."
      dc:publisher="https://nft.mir.one"
      dc:date="2022-02-22"
      dc:format="image/svg+xml"
      dc:language="en" >
      <dc:creator>
      <rdf:Bag>
        <rdf:li>EQBondcvD2_aOFADXSWJHs4ZazQDuEl9_wNvGGPxI8hGuOFU</rdf:li>
        <rdf:li>ipfs://bafkreihj7iub3fhmhq6jn62noukt5wxn3gv6bvcg7wmt6ywvlurefezckq</rdf:li>
      </rdf:Bag>
      </dc:creator>
    </rdf:Description>
  </rdf:RDF>
</metadata>
<g transform="translate(0.000000,1000.000000) scale(0.100000,-0.100000)"
fill="#1b1f23" stroke="none">
<path d="M4548 7729 c23 -22 135 -41 302 -50 205 -11 359 -27 588 -64 89 -15
195 -25 252 -25 98 0 132 12 68 23 -18 3 -100 22 -183 42 -310 74 -356 79
-712 80 -178 0 -319 -3 -315 -6z"/>
<path d="M4480 7554 c-117 -11 -529 -109 -515 -122 16 -16 141 -24 515 -32
565 -11 588 -15 925 -147 249 -98 317 -133 423 -215 118 -91 425 -298 487
-327 28 -13 81 -34 118 -47 101 -35 228 -119 351 -233 49 -46 49 -46 -19 44
-178 234 -361 397 -606 542 -139 82 -201 136 -197 172 3 24 7 26 42 24 22 -2
91 -25 155 -53 105 -46 261 -102 261 -95 0 8 -240 165 -289 190 -30 15 -98 38
-152 51 -53 13 -128 36 -165 50 -141 53 -581 153 -785 179 -122 16 -462 27
-549 19z"/>
<path d="M3943 7246 c-80 -26 -179 -78 -298 -155 -77 -50 -79 -52 -40 -45 22
3 87 21 145 40 58 18 159 46 225 63 120 29 175 47 175 55 0 34 -51 66 -102 66
-18 -1 -65 -11 -105 -24z"/>
<path d="M4500 7246 c-115 -15 -210 -31 -281 -47 -39 -9 -47 -15 -58 -45 -17
-48 -62 -78 -161 -109 -208 -65 -296 -105 -408 -187 -121 -88 -265 -258 -374
-441 -32 -52 -42 -82 -48 -135 -4 -39 -25 -113 -50 -177 -43 -113 -132 -360
-145 -405 -10 -35 150 278 192 374 18 43 45 123 58 178 29 119 56 161 175 279
104 102 201 172 375 270 209 116 305 147 305 97 0 -29 -55 -79 -202 -184 -297
-212 -411 -331 -513 -533 -137 -274 -238 -545 -279 -751 -42 -213 -49 -310
-48 -711 1 -360 2 -382 26 -500 103 -508 372 -928 759 -1186 75 -51 201 -124
279 -164 79 -39 204 -105 278 -145 166 -90 274 -126 455 -154 77 -12 193 -31
257 -42 152 -27 229 -22 367 27 181 63 442 203 584 312 95 74 380 347 497 478
149 166 256 309 236 313 -43 9 -572 -373 -687 -496 -124 -131 -188 -190 -249
-230 -93 -61 -463 -241 -535 -259 -149 -39 -558 5 -725 78 -54 24 -90 56 -90
81 0 23 2 23 118 -6 210 -53 453 -80 590 -65 78 8 156 39 166 66 14 36 -9 40
-232 46 -148 4 -262 12 -357 27 -135 20 -214 22 -307 5 -51 -10 -121 14 -297
101 -433 212 -784 554 -920 894 -93 233 -152 546 -112 593 36 44 63 5 126
-183 25 -74 54 -175 64 -225 26 -116 43 -163 92 -254 127 -235 410 -501 714
-670 179 -100 236 -116 551 -156 151 -20 352 -40 447 -45 129 -7 187 -15 232
-30 64 -22 80 -21 180 12 172 58 375 182 375 231 0 23 -28 47 -54 47 -43 0
-280 -71 -360 -108 -79 -36 -84 -37 -223 -40 -236 -6 -623 43 -823 104 -334
103 -797 482 -952 781 -51 99 -50 161 1 134 11 -6 66 -68 124 -138 170 -209
357 -375 620 -552 189 -127 391 -187 762 -226 271 -29 425 -16 425 34 0 38
-29 44 -360 76 -189 19 -384 54 -497 91 -118 39 -189 81 -247 147 -30 35 -98
90 -169 138 -161 110 -217 158 -402 343 -88 89 -187 184 -220 212 -47 40 -74
75 -125 165 -35 63 -88 149 -117 192 -59 87 -79 144 -95 267 -35 274 41 662
196 1009 136 304 239 440 521 686 166 145 195 175 269 288 73 111 150 168 296
219 133 46 184 52 458 54 289 2 304 5 279 54 -17 34 -78 66 -162 86 -95 23
-421 28 -565 10z"/>
<path d="M5256 7042 c-3 -6 -30 -20 -60 -31 -40 -15 -97 -22 -237 -30 -218
-12 -338 -39 -456 -100 -108 -56 -172 -116 -247 -230 -54 -83 -81 -112 -173
-186 -276 -226 -411 -391 -539 -660 -156 -329 -216 -697 -158 -976 26 -130
100 -292 197 -433 67 -97 266 -314 386 -423 174 -155 306 -230 451 -253 41 -6
145 -27 231 -46 191 -41 313 -60 488 -73 438 -35 711 19 907 177 65 53 103
115 87 141 -20 33 -60 24 -210 -48 -238 -112 -373 -141 -668 -141 -206 0 -307
10 -489 46 -380 75 -554 161 -768 380 -394 403 -518 792 -402 1264 94 381 340
723 634 884 98 53 203 74 452 91 227 14 271 24 276 61 4 29 -30 42 -141 54
-51 6 -120 20 -154 32 -58 20 -67 21 -145 9 -99 -16 -137 -12 -152 12 -15 25
20 55 163 141 189 114 265 132 535 123 248 -8 363 -35 549 -128 263 -132 408
-259 692 -604 81 -99 178 -211 215 -250 102 -106 155 -177 195 -259 91 -190
113 -412 76 -778 -28 -272 -28 -411 -1 -455 11 -18 24 -33 29 -33 25 0 60 65
80 147 43 187 55 315 55 578 0 269 -8 344 -60 522 -55 191 -104 265 -353 533
-181 194 -228 252 -291 355 -71 118 -157 196 -380 345 -152 103 -276 168 -395
210 -97 34 -208 50 -219 32z"/>
<path d="M4818 6708 c-75 -7 -134 -31 -150 -61 -17 -33 10 -43 129 -50 60 -3
127 -13 151 -21 64 -23 213 -108 223 -129 19 -35 2 -55 -54 -62 -29 -4 -79
-18 -112 -31 -79 -33 -144 -49 -295 -74 -170 -28 -289 -63 -390 -116 -360
-185 -610 -620 -610 -1060 0 -289 103 -534 346 -824 169 -202 346 -309 631
-381 193 -49 321 -62 558 -56 295 7 381 28 695 169 85 39 173 83 196 99 63 43
127 119 205 245 39 63 80 119 91 125 56 30 61 -85 9 -214 -15 -40 -61 -126
-100 -192 -42 -71 -80 -148 -92 -190 -30 -101 -65 -160 -132 -220 -151 -137
-392 -205 -671 -191 -341 18 -591 51 -837 112 -157 38 -206 42 -216 18 -29
-76 276 -177 657 -218 277 -30 325 -37 405 -58 64 -16 99 -19 170 -15 148 9
337 35 385 54 69 25 166 88 258 166 117 99 132 120 132 193 0 70 14 103 105
253 36 60 78 137 92 172 30 70 29 50 22 489 -2 127 2 179 22 290 31 178 32
359 0 474 -29 110 -78 211 -118 246 -37 33 -53 36 -71 18 -18 -18 -15 -56 19
-190 48 -195 52 -370 8 -417 -42 -45 -59 -20 -79 124 -6 44 -22 143 -36 220
-13 77 -24 180 -24 230 -1 108 -19 161 -98 278 -242 357 -530 569 -1002 735
-147 52 -296 73 -422 60z m662 -424 c161 -54 307 -151 447 -298 165 -174 222
-302 297 -674 38 -187 52 -238 88 -315 43 -92 43 -92 43 -212 0 -139 -7 -159
-116 -304 -128 -172 -234 -258 -434 -356 -132 -64 -224 -96 -365 -126 -140
-30 -444 -33 -589 -5 -324 60 -550 192 -665 387 -28 46 -74 117 -104 158 -145
201 -210 440 -182 671 47 383 276 697 615 843 49 21 148 55 220 74 273 73 342
95 415 130 151 72 184 75 330 27z"/>
<path d="M5222 6099 c-92 -11 -337 -68 -467 -109 -344 -110 -577 -331 -673
-641 -67 -217 -40 -481 67 -647 52 -79 90 -105 168 -113 53 -5 75 -15 157 -67
128 -83 218 -127 323 -159 78 -23 104 -26 238 -27 178 0 258 18 400 88 157 78
256 175 271 265 3 20 19 95 36 166 17 72 33 169 36 216 13 221 -91 457 -256
581 -97 73 -203 96 -247 52 -22 -23 1 -59 79 -123 248 -205 322 -532 185 -819
-130 -271 -536 -376 -840 -216 -89 47 -151 102 -178 159 -49 104 -9 114 100
25 93 -77 172 -116 276 -137 70 -15 93 -16 163 -5 244 35 400 213 400 455 0
45 -5 102 -11 127 -17 74 -74 182 -148 277 -38 50 -84 113 -101 142 -47 76
-72 86 -215 85 -104 0 -129 -3 -187 -26 -196 -74 -332 -215 -390 -403 -25 -78
-28 -175 -14 -395 9 -141 1 -193 -30 -198 -24 -4 -61 59 -92 158 -97 303 -25
601 193 808 91 87 197 150 320 191 217 72 523 97 660 54 275 -87 475 -398 475
-739 0 -113 -16 -184 -71 -306 -61 -135 -43 -193 41 -136 41 28 171 185 197
237 54 110 4 474 -95 684 -107 229 -284 396 -495 467 -95 32 -173 40 -275 29z
m-226 -630 c55 -14 104 -58 104 -92 0 -31 -11 -36 -76 -29 -32 3 -72 -2 -109
-12 -79 -23 -156 -100 -179 -176 -20 -67 -20 -83 0 -151 32 -110 161 -193 263
-170 104 23 157 111 116 190 -35 69 -134 47 -119 -26 5 -26 2 -32 -15 -38 -42
-13 -91 36 -91 93 0 81 73 147 203 182 45 12 49 11 86 -13 27 -18 49 -46 70
-88 54 -109 38 -226 -45 -318 -63 -70 -126 -96 -234 -96 -77 0 -92 3 -153 33
-82 41 -174 123 -209 189 -102 186 31 460 251 519 59 16 82 17 137 3z"/>
<path d="M6085 4723 c-92 -105 -129 -137 -282 -240 -312 -211 -497 -272 -789
-261 -187 8 -346 54 -504 147 -145 86 -202 102 -215 61 -9 -28 6 -51 74 -112
103 -93 291 -177 478 -215 132 -26 395 -24 530 5 264 57 494 180 673 361 125
127 175 220 151 284 -18 47 -57 37 -116 -30z"/>
<path d="M6376 6545 c-21 -21 -20 -33 5 -74 35 -58 128 -156 287 -302 138
-127 208 -203 296 -320 16 -21 31 -37 33 -35 6 5 -82 202 -120 268 -38 69
-237 308 -309 373 -90 81 -165 116 -192 90z"/>
<path d="M6995 4355 c-23 -23 -66 -60 -98 -83 -40 -30 -65 -58 -83 -95 -50
-98 -131 -212 -233 -327 -57 -63 -110 -128 -118 -144 -14 -27 -14 -31 3 -43
24 -17 62 -9 138 29 125 63 211 175 302 393 26 60 67 154 91 209 24 54 43 99
41 100 -2 1 -21 -16 -43 -39z"/>
<path d="M3495 3080 c181 -184 328 -302 525 -420 281 -170 549 -266 811 -291
163 -15 289 3 289 42 0 23 -54 38 -175 48 -304 26 -462 77 -845 272 -211 107
-411 233 -645 407 -57 42 -54 38 40 -58z"/>
<path d="M6470 3039 c-41 -33 -120 -104 -175 -158 -105 -103 -195 -164 -432
-295 -163 -90 -291 -146 -453 -196 -74 -22 -166 -55 -205 -72 -169 -75 -198
-82 -350 -82 -92 0 -170 6 -229 18 -48 9 -91 15 -94 12 -3 -4 -1 -6 4 -6 5 0
41 -7 79 -15 127 -27 286 -37 392 -25 103 11 346 70 498 121 247 82 660 335
784 479 31 36 103 113 160 173 58 59 103 107 100 106 -2 0 -38 -27 -79 -60z"/>
<path d="M4458 2283 c7 -3 16 -2 19 1 4 3 -2 6 -13 5 -11 0 -14 -3 -6 -6z"/>
<path d="M4498 2273 c7 -3 16 -2 19 1 4 3 -2 6 -13 5 -11 0 -14 -3 -6 -6z"/>
</g>
</svg>
