<?xml version="1.0" standalone="no"?>
<!DOCTYPE svg PUBLIC "-//W3C//DTD SVG 20010904//EN"
 "http://www.w3.org/TR/2001/REC-SVG-20010904/DTD/svg10.dtd">
<svg version="1.0" xmlns="http://www.w3.org/2000/svg"
 width="1000.000000pt" height="1000.000000pt" viewBox="0 0 1000.000000 1000.000000"
 preserveAspectRatio="xMidYMid meet">
<metadata>
  <rdf:RDF
    xmlns:rdf = "http://www.w3.org/1999/02/22-rdf-syntax-ns#"
    xmlns:rdfs = "http://www.w3.org/2000/01/rdf-schema#"
    xmlns:dc = "http://purl.org/dc/elements/1.1/"
    xmlns:cc = "http://creativecommons.org/ns#">
    <cc:license rdf:resource="http://creativecommons.org/publicdomain/zero/1.0/deed.en"/>
    <cc:permits rdf:resource="http://creativecommons.org/ns#Reproduction"/>
    <rdf:Description about="https://nft.mir.one/fingerprints"
      dc:title="TON Fingerprints"
      dc:description="This is a unique digital fingerprint created based on the algorithm for generating basic rings using a noise texture. Like human fingerprints, you can now use it for the Web3 and Metaverse era as digital biometric information."
      dc:publisher="https://nft.mir.one"
      dc:date="2022-02-22"
      dc:format="image/svg+xml"
      dc:language="en" >
      <dc:creator>
      <rdf:Bag>
        <rdf:li>EQBondcvD2_aOFADXSWJHs4ZazQDuEl9_wNvGGPxI8hGuOFU</rdf:li>
        <rdf:li>ipfs://bafkreihj7iub3fhmhq6jn62noukt5wxn3gv6bvcg7wmt6ywvlurefezckq</rdf:li>
      </rdf:Bag>
      </dc:creator>
    </rdf:Description>
  </rdf:RDF>
</metadata>
<g transform="translate(0.000000,1000.000000) scale(0.100000,-0.100000)"
fill="#1b1f23" stroke="none">
<path d="M5545 7712 c10 -10 457 -288 558 -346 26 -15 47 -25 47 -22 0 9 -307
208 -405 263 -165 92 -210 115 -200 105z"/>
<path d="M4725 7683 c-174 -13 -405 -63 -550 -118 -74 -28 -98 -42 -53 -31 14
3 100 16 190 28 139 19 205 23 448 22 315 -1 378 -8 515 -63 98 -40 189 -92
345 -201 69 -48 183 -127 254 -175 334 -228 451 -351 678 -714 212 -338 254
-482 265 -907 6 -240 -4 -384 -38 -543 -48 -222 -97 -323 -301 -631 -169 -254
-187 -285 -218 -390 -21 -70 -28 -80 -104 -156 -189 -188 -434 -305 -646 -308
-109 -1 -140 8 -217 67 -87 65 -156 80 -261 56 -45 -11 -58 -9 -134 14 -166
53 -361 182 -515 340 -167 172 -265 345 -319 561 -21 82 -27 134 -31 276 -5
175 -5 175 56 295 46 91 61 130 61 163 0 47 -13 58 -56 48 -41 -11 -108 -80
-183 -190 -38 -55 -90 -121 -116 -146 -110 -106 -155 -294 -125 -526 47 -377
241 -670 685 -1040 143 -119 222 -175 330 -237 217 -124 554 -217 786 -218
243 0 425 66 749 273 216 138 325 223 411 322 154 175 289 405 352 601 25 77
68 258 66 280 -1 16 -17 -41 -39 -139 -31 -140 -74 -217 -224 -405 -189 -235
-774 -621 -1054 -695 -300 -80 -607 -49 -886 88 -221 109 -436 265 -626 455
-164 164 -259 300 -330 474 -62 152 -84 261 -84 417 0 76 6 155 12 180 30 109
62 148 81 98 5 -13 11 -102 14 -198 6 -193 26 -297 86 -442 107 -256 344 -517
646 -710 144 -92 382 -218 440 -233 72 -19 368 -21 490 -4 189 26 381 107 590
249 66 45 183 123 260 174 243 162 395 345 439 528 6 26 -13 58 -34 58 -19 0
-75 -58 -152 -158 -139 -182 -257 -286 -303 -268 -21 8 -19 32 8 70 84 122
289 374 359 441 94 91 136 160 168 276 112 410 78 1040 -77 1434 -44 114 -107
232 -245 464 -143 241 -172 282 -264 380 -180 191 -598 479 -925 636 -161 77
-205 85 -439 83 -107 -1 -213 -3 -235 -5z m466 -4189 c42 -25 47 -42 14 -54
-66 -25 -199 52 -159 92 9 9 109 -17 145 -38z"/>
<path d="M4463 7450 c-191 -24 -415 -110 -630 -241 -64 -39 -303 -208 -303
-214 0 -4 113 41 225 90 214 95 414 158 598 191 218 38 506 38 730 -1 168 -30
342 -90 354 -122 17 -43 -64 -47 -287 -14 -452 68 -757 47 -1131 -78 -82 -28
-187 -68 -232 -89 -86 -40 -377 -228 -437 -282 -35 -31 -35 -31 10 -25 57 8
135 36 368 131 310 127 479 178 683 208 143 21 391 21 549 -1 85 -12 193 -17
335 -18 196 0 214 -2 267 -23 147 -59 416 -271 575 -452 214 -243 349 -483
341 -605 -6 -92 -39 -67 -133 100 -86 153 -201 303 -334 436 -139 139 -422
367 -508 409 -80 39 -172 58 -208 42 -49 -22 -24 -56 84 -113 36 -18 79 -48
98 -65 40 -38 44 -74 10 -74 -30 0 -207 86 -283 138 -103 70 -258 108 -484
119 -188 9 -394 -19 -595 -80 -225 -69 -622 -242 -703 -307 -74 -60 -182 -185
-250 -290 -30 -47 -72 -110 -92 -141 -38 -57 -38 -57 39 2 42 33 108 87 146
120 239 208 734 449 1072 521 89 19 138 23 283 23 203 0 285 -14 450 -77 274
-104 320 -118 407 -118 74 0 88 -3 150 -36 202 -105 429 -331 641 -638 69 -99
88 -149 72 -190 -17 -45 -43 -32 -105 50 -105 140 -251 308 -348 401 -178 170
-294 236 -537 307 -85 25 -232 72 -325 104 -220 77 -275 86 -461 79 -233 -9
-393 -55 -674 -198 -157 -79 -322 -177 -435 -257 -122 -88 -263 -233 -311
-322 -97 -178 -152 -334 -204 -587 -17 -79 -30 -149 -30 -156 0 -16 66 132 94
213 38 107 92 217 152 308 114 170 324 360 559 504 50 30 149 91 220 135 227
140 342 188 533 219 133 22 293 15 356 -15 42 -21 64 -50 52 -69 -3 -5 -50 -7
-104 -4 -214 10 -483 -46 -607 -127 -21 -15 -58 -51 -81 -82 -38 -49 -59 -64
-181 -128 -355 -188 -578 -380 -687 -591 -52 -100 -67 -149 -102 -330 -35
-185 -40 -316 -19 -540 21 -231 54 -428 99 -592 32 -117 157 -466 221 -618 67
-161 200 -345 389 -538 154 -158 246 -232 416 -336 184 -112 190 -118 161
-169 -19 -35 -19 -35 9 -24 22 9 51 4 157 -27 217 -62 274 -70 508 -70 157 0
233 4 300 17 124 24 261 58 205 51 -231 -28 -302 -34 -415 -34 -210 0 -440 41
-575 102 -43 19 -87 50 -130 92 -36 35 -128 105 -205 156 -164 109 -205 143
-276 230 -29 36 -105 119 -169 185 -168 176 -289 363 -290 448 0 31 16 67 30
67 5 0 33 -37 63 -82 105 -162 258 -325 378 -405 45 -29 184 -54 297 -52 72 1
76 0 211 -69 228 -117 387 -177 576 -217 167 -36 227 -72 184 -111 -18 -16
-36 -19 -128 -18 -192 3 -303 36 -611 184 -218 105 -358 160 -405 160 -32 0
-49 -23 -36 -48 20 -38 91 -88 318 -225 329 -197 427 -231 678 -230 111 0 155
5 210 21 39 11 137 38 218 61 260 70 371 115 497 201 122 84 688 604 721 662
13 24 -104 -43 -226 -129 -208 -146 -472 -316 -554 -358 -171 -85 -359 -125
-500 -105 -39 5 -111 23 -161 40 -49 16 -141 44 -203 61 -280 78 -484 178
-637 314 -41 36 -133 117 -205 179 -157 137 -351 335 -427 436 -154 205 -234
439 -245 710 -7 178 10 277 66 395 40 84 260 391 336 469 60 62 201 153 360
231 147 72 243 106 389 136 142 29 349 23 486 -15 52 -15 111 -26 130 -24 32
3 35 6 33 32 -6 87 -191 171 -399 180 -294 13 -775 -117 -1021 -276 -117 -76
-143 -103 -143 -152 0 -63 -36 -126 -170 -301 -67 -88 -135 -186 -152 -219
-148 -293 -71 -890 157 -1211 56 -78 352 -369 480 -470 138 -109 195 -165 195
-192 0 -12 -4 -25 -10 -28 -13 -8 -170 71 -250 125 -35 24 -136 114 -225 200
-129 126 -170 160 -210 175 -28 10 -58 25 -68 34 -33 28 -125 229 -171 371
-121 376 -142 805 -50 1036 22 53 39 76 91 122 59 52 257 273 312 349 30 40
22 63 -20 63 -75 0 -162 -72 -275 -226 -42 -57 -83 -104 -91 -104 -7 0 -18 11
-24 23 -35 76 115 299 269 401 112 74 352 204 437 237 84 33 520 126 715 154
270 37 470 4 643 -108 79 -51 345 -317 425 -425 133 -180 177 -294 177 -462 0
-82 -5 -122 -23 -180 -65 -206 -170 -300 -437 -389 -173 -58 -300 -63 -400
-17 -58 26 -129 89 -123 108 5 15 97 70 230 138 64 33 119 70 163 112 59 54
74 78 126 186 52 108 62 123 82 120 33 -5 50 -66 38 -134 -32 -170 -184 -309
-414 -378 -50 -16 -90 -33 -94 -42 -17 -45 86 -65 207 -40 112 23 268 104 340
176 135 135 171 321 96 487 -69 149 -248 372 -334 417 -26 13 -67 18 -175 21
-78 2 -178 8 -222 13 -164 18 -359 -18 -505 -94 -87 -45 -174 -115 -207 -166
-25 -37 -28 -52 -31 -148 -4 -93 -1 -119 26 -215 16 -61 41 -158 55 -217 43
-183 113 -324 227 -456 112 -130 239 -213 400 -263 62 -19 97 -23 200 -23 133
1 184 10 354 64 105 34 150 40 168 22 17 -17 -12 -44 -92 -86 -266 -140 -540
-164 -770 -67 -255 107 -479 371 -564 664 -9 32 -28 124 -41 205 -18 107 -29
150 -42 160 -24 17 -35 11 -56 -29 -16 -30 -18 -51 -13 -169 5 -142 22 -226
71 -355 99 -264 319 -502 577 -625 125 -59 192 -74 338 -74 125 0 125 0 280
58 85 32 182 72 214 89 84 45 147 110 174 180 12 32 35 77 51 101 16 23 54 94
85 157 30 63 78 152 106 199 92 156 143 302 159 455 16 154 -11 304 -75 412
-72 123 -384 454 -536 568 -173 131 -373 211 -553 222 -97 6 -335 -28 -618
-88 -199 -42 -294 -37 -274 15 12 31 272 102 498 136 172 27 195 33 252 71 44
29 52 31 105 24 94 -11 320 -73 411 -112 215 -92 336 -187 631 -499 95 -101
127 -127 186 -157 85 -43 107 -69 134 -153 58 -189 49 -427 -26 -654 -63 -189
-324 -662 -448 -810 -92 -109 -204 -177 -387 -234 -120 -37 -143 -52 -137 -83
6 -33 47 -44 148 -40 245 12 500 182 645 432 32 55 111 191 177 302 182 308
244 458 284 678 16 86 18 157 18 520 0 407 -1 422 -23 494 -47 154 -188 390
-349 581 -138 165 -267 275 -517 438 -88 58 -189 133 -225 166 -76 71 -127
103 -233 145 -142 57 -245 72 -507 76 -129 2 -267 0 -307 -5z m640 -1986 c137
-31 227 -91 268 -179 48 -104 -11 -294 -128 -411 -59 -60 -188 -129 -259 -140
-90 -13 -163 28 -208 118 -42 85 -28 194 28 219 35 16 59 5 50 -23 -21 -69 1
-133 59 -168 65 -40 144 -20 216 52 135 137 108 316 -57 379 -46 17 -73 20
-142 17 -73 -3 -94 -9 -148 -38 -122 -65 -182 -167 -182 -308 1 -182 56 -285
269 -508 92 -95 145 -128 248 -154 135 -35 268 -22 480 45 157 50 219 45 176
-13 -30 -40 -86 -68 -218 -105 -270 -77 -428 -73 -610 13 -167 80 -329 258
-409 448 -66 156 -89 369 -52 483 43 135 182 245 351 279 68 13 193 11 268 -6z
m-74 -339 c26 -13 41 -33 41 -56 0 -4 -14 -16 -30 -24 -17 -9 -35 -27 -40 -41
-7 -16 -16 -24 -28 -22 -16 3 -82 90 -82 109 0 14 62 49 88 49 13 0 36 -7 51
-15z"/>
<path d="M2936 4625 c3 -33 10 -94 14 -135 8 -69 9 -67 4 30 -2 58 -9 119 -14
135 -7 23 -8 16 -4 -30z"/>
<path d="M2962 4355 c0 -16 2 -22 5 -12 2 9 2 23 0 30 -3 6 -5 -1 -5 -18z"/>
</g>
</svg>
