<?xml version="1.0" standalone="no"?>
<!DOCTYPE svg PUBLIC "-//W3C//DTD SVG 20010904//EN"
 "http://www.w3.org/TR/2001/REC-SVG-20010904/DTD/svg10.dtd">
<svg version="1.0" xmlns="http://www.w3.org/2000/svg"
 width="1000.000000pt" height="1000.000000pt" viewBox="0 0 1000.000000 1000.000000"
 preserveAspectRatio="xMidYMid meet">
<metadata>
  <rdf:RDF
    xmlns:rdf = "http://www.w3.org/1999/02/22-rdf-syntax-ns#"
    xmlns:rdfs = "http://www.w3.org/2000/01/rdf-schema#"
    xmlns:dc = "http://purl.org/dc/elements/1.1/"
    xmlns:cc = "http://creativecommons.org/ns#">
    <cc:license rdf:resource="http://creativecommons.org/publicdomain/zero/1.0/deed.en"/>
    <cc:permits rdf:resource="http://creativecommons.org/ns#Reproduction"/>
    <rdf:Description about="https://nft.mir.one/fingerprints"
      dc:title="TON Fingerprints"
      dc:description="This is a unique digital fingerprint created based on the algorithm for generating basic rings using a noise texture. Like human fingerprints, you can now use it for the Web3 and Metaverse era as digital biometric information."
      dc:publisher="https://nft.mir.one"
      dc:date="2022-02-22"
      dc:format="image/svg+xml"
      dc:language="en" >
      <dc:creator>
      <rdf:Bag>
        <rdf:li>EQBondcvD2_aOFADXSWJHs4ZazQDuEl9_wNvGGPxI8hGuOFU</rdf:li>
        <rdf:li>ipfs://bafkreihj7iub3fhmhq6jn62noukt5wxn3gv6bvcg7wmt6ywvlurefezckq</rdf:li>
      </rdf:Bag>
      </dc:creator>
    </rdf:Description>
  </rdf:RDF>
</metadata>
<g transform="translate(0.000000,1000.000000) scale(0.100000,-0.100000)"
fill="#1b1f23" stroke="none">
<path d="M4843 7793 c15 -2 37 -2 50 0 12 2 0 4 -28 4 -27 0 -38 -2 -22 -4z"/>
<path d="M4820 7659 c-201 -11 -285 -47 -358 -156 -36 -55 -40 -57 -152 -102
-182 -73 -244 -115 -453 -309 -281 -260 -410 -451 -522 -772 -77 -221 -86
-278 -95 -565 -6 -200 -14 -299 -34 -430 -14 -94 -26 -213 -26 -266 0 -95 0
-95 35 -133 37 -40 38 -45 109 -300 89 -318 219 -549 426 -757 157 -158 285
-239 567 -360 245 -105 297 -134 344 -189 21 -25 53 -51 71 -57 55 -19 187
-42 303 -53 344 -32 625 11 1003 154 67 25 177 60 244 77 287 72 394 138 563
345 84 103 84 103 20 70 -34 -19 -78 -45 -97 -59 -62 -47 -281 -167 -361 -197
-87 -34 -150 -37 -155 -8 -2 12 41 42 156 112 250 150 333 215 402 316 53 78
96 166 131 272 26 77 30 103 26 158 -3 46 4 109 24 216 52 279 61 538 25 755
-18 109 -104 487 -161 706 -102 394 -215 604 -454 844 -234 233 -470 360 -762
408 -359 59 -1017 95 -1048 57 -9 -11 -9 -19 0 -34 34 -55 115 -75 454 -112
313 -35 478 -60 624 -96 378 -93 678 -264 859 -488 154 -192 210 -358 282
-847 36 -243 32 -228 81 -309 67 -113 88 -251 69 -445 -25 -253 -81 -398 -212
-546 -46 -52 -120 -137 -165 -189 -98 -114 -275 -288 -398 -391 -102 -86 -253
-199 -265 -199 -17 0 -31 30 -25 52 13 41 53 85 203 219 184 166 280 264 394
403 158 192 233 318 282 474 88 279 81 633 -11 583 -33 -17 -53 -74 -93 -268
-59 -280 -106 -403 -223 -581 -130 -199 -265 -344 -532 -577 -200 -174 -249
-207 -455 -309 -134 -66 -167 -78 -239 -88 -205 -28 -488 53 -676 195 -93 70
-372 361 -448 467 -161 226 -266 518 -269 745 -2 99 13 160 43 176 24 13 25
11 39 -121 42 -392 182 -683 465 -966 207 -208 372 -307 595 -359 107 -24 265
-24 315 1 54 26 65 48 40 74 -16 15 -52 25 -155 40 -156 24 -260 50 -345 88
-270 119 -513 357 -653 637 -55 112 -88 207 -128 373 -41 174 -61 221 -106
256 -28 21 -39 41 -57 99 -25 86 -26 125 -5 198 64 219 312 471 568 575 128
52 191 66 332 71 217 9 301 -18 530 -170 153 -102 232 -168 310 -260 32 -38
85 -88 119 -112 179 -128 243 -258 232 -470 -7 -125 -28 -205 -82 -320 -68
-145 -154 -246 -247 -290 -39 -19 -88 -14 -88 9 0 7 33 54 73 104 76 94 133
198 162 292 26 88 31 234 10 319 -32 131 -131 242 -200 225 -47 -12 -49 -43
-9 -162 43 -125 53 -228 34 -334 -15 -88 -172 -406 -223 -454 -78 -73 -264
-104 -409 -69 -200 48 -362 196 -424 389 -52 159 -33 346 47 455 42 59 106
103 144 99 44 -4 43 -30 -4 -101 -22 -34 -53 -89 -68 -122 -25 -54 -28 -70
-28 -170 0 -103 2 -114 32 -177 71 -149 216 -248 367 -248 62 0 146 28 198 65
48 35 170 190 209 267 27 53 36 169 19 251 -17 86 -73 189 -128 237 -102 90
-272 146 -477 156 -146 8 -223 -8 -303 -63 -113 -77 -172 -198 -180 -367 -8
-180 32 -336 125 -485 138 -221 369 -355 649 -376 179 -13 437 53 582 149 124
82 254 239 322 390 85 186 113 331 114 586 1 196 1 196 41 274 37 73 39 83 39
164 -2 333 -261 647 -658 796 -250 94 -836 166 -1110 137 -248 -27 -445 -128
-635 -326 -124 -130 -211 -277 -211 -358 0 -40 15 -57 52 -57 23 0 56 26 164
131 75 72 173 158 217 190 228 170 513 238 869 209 210 -17 436 -48 523 -70
160 -43 300 -124 421 -244 82 -82 135 -161 169 -251 28 -75 68 -288 60 -316
-10 -31 -56 -23 -116 19 -30 22 -71 42 -92 45 -65 10 -118 43 -222 137 -55 49
-157 131 -227 181 -70 50 -139 104 -153 121 -62 74 8 83 141 19 127 -61 202
-119 351 -269 147 -148 166 -157 171 -83 7 99 -124 281 -284 391 -143 99 -273
137 -401 118 -55 -8 -99 -6 -231 11 -240 31 -374 25 -562 -25 -192 -50 -334
-138 -584 -357 -208 -184 -220 -200 -328 -467 -108 -264 -123 -332 -116 -532
5 -122 11 -163 41 -279 96 -367 250 -630 502 -858 152 -138 285 -197 285 -126
0 16 -29 48 -97 110 -181 162 -307 313 -402 480 -131 230 -214 547 -196 749
13 150 66 266 121 266 31 0 32 -27 4 -142 -60 -250 12 -578 191 -874 69 -115
149 -214 294 -364 66 -69 137 -152 157 -185 27 -45 52 -70 100 -101 149 -97
348 -180 505 -210 114 -21 331 -14 448 15 91 22 270 85 360 126 48 22 77 27
145 29 75 2 92 6 145 34 80 43 368 275 480 387 50 49 128 135 172 191 91 112
138 156 162 152 26 -5 24 -43 -6 -110 -68 -151 -223 -316 -479 -509 -94 -71
-193 -153 -221 -184 -63 -68 -120 -96 -353 -168 -280 -88 -387 -109 -582 -115
-280 -8 -365 12 -658 155 -107 52 -246 112 -308 133 -135 46 -210 87 -318 174
-179 144 -335 351 -434 576 -72 163 -171 512 -185 650 -10 98 10 245 76 560
82 387 88 424 89 506 1 193 117 425 304 608 153 150 337 260 486 292 98 21
198 15 601 -35 482 -61 686 -107 897 -207 129 -60 222 -124 325 -223 222 -214
328 -499 296 -802 -14 -136 -75 -503 -99 -600 -69 -269 -187 -485 -359 -657
-200 -201 -416 -302 -645 -302 -468 0 -838 253 -989 675 -45 128 -61 228 -61
385 0 128 3 152 23 205 72 182 226 309 423 349 176 36 335 6 590 -110 158 -73
218 -73 218 -3 0 54 -138 162 -325 254 -143 70 -227 90 -375 89 -147 0 -212
-15 -345 -78 -255 -121 -425 -366 -400 -576 11 -87 91 -437 121 -525 104 -312
333 -576 615 -710 117 -55 190 -75 438 -121 181 -33 203 -35 255 -24 172 36
468 251 662 483 192 228 289 432 364 757 17 74 48 194 68 265 35 124 36 137
36 275 -2 228 -45 425 -133 605 -158 322 -470 546 -920 660 -132 33 -286 59
-556 95 -264 34 -361 56 -447 102 -68 36 -118 95 -118 139 0 25 5 30 43 40 23
6 60 28 84 49 66 61 90 65 428 65 285 0 381 -6 670 -40 66 -7 158 -16 205 -19
85 -5 85 -5 35 15 -81 32 -278 87 -388 109 -237 47 -413 56 -717 39z m358
-2306 c81 -39 153 -143 167 -243 14 -105 -33 -144 -81 -68 -15 24 -37 58 -48
76 -30 46 -88 84 -139 89 -113 13 -212 -111 -163 -205 26 -50 86 -56 86 -8 0
26 17 46 41 46 28 0 68 -39 75 -74 17 -92 -91 -153 -194 -111 -113 48 -163
192 -112 329 21 56 79 130 130 166 57 41 156 42 238 3z"/>
<path d="M3022 5920 c0 -14 2 -19 5 -12 2 6 2 18 0 25 -3 6 -5 1 -5 -13z"/>
<path d="M3071 5693 c-104 -390 -152 -915 -107 -1178 67 -396 227 -747 447
-979 228 -241 616 -460 974 -550 95 -24 247 -44 550 -72 504 -47 581 -45 930
33 110 24 200 38 290 43 152 8 182 19 340 124 116 76 108 78 -93 15 -159 -50
-200 -57 -208 -35 -7 19 23 56 59 74 12 6 74 35 137 66 81 38 155 85 250 157
74 56 127 100 118 96 -9 -3 -34 -9 -55 -13 -21 -4 -67 -19 -103 -34 -36 -15
-130 -51 -210 -80 -80 -29 -198 -79 -263 -112 -149 -74 -196 -93 -316 -124
-258 -67 -499 -79 -901 -44 -124 11 -264 20 -311 20 -170 0 -358 54 -581 165
-391 195 -707 498 -878 840 -106 212 -162 419 -161 595 0 110 2 126 44 330 49
237 100 525 105 591 5 69 -7 109 -33 109 -8 0 -19 -16 -24 -37z"/>
<path d="M3114 4894 c-47 -71 -31 -297 36 -519 32 -105 140 -318 211 -420 79
-110 256 -296 364 -380 234 -184 596 -350 786 -362 79 -6 119 5 119 32 0 23
-39 43 -207 106 -204 76 -433 191 -553 276 -52 38 -140 113 -195 168 -271 269
-422 574 -481 969 -9 60 -20 120 -25 133 -11 30 -34 29 -55 -3z"/>
<path d="M3319 3402 c136 -160 301 -318 417 -401 209 -150 587 -288 934 -342
43 -7 175 -11 313 -11 211 1 239 0 244 -15 16 -42 -85 -85 -242 -103 -200 -22
-342 -7 -585 64 -272 79 -386 122 -652 250 -76 36 -138 63 -138 61 0 -8 214
-159 306 -215 169 -103 580 -267 738 -295 206 -35 418 -9 651 80 61 24 187 63
280 88 251 68 452 143 669 249 99 48 99 48 30 48 -92 0 -208 -18 -509 -80
-156 -32 -289 -53 -355 -57 -97 -5 -112 -4 -184 21 -55 19 -113 30 -199 37
-291 23 -440 41 -555 64 -355 73 -713 245 -1011 486 -58 46 -140 110 -183 141
-78 57 -78 57 31 -70z"/>
<path d="M5810 2475 c-63 -12 -144 -30 -180 -39 -79 -21 -557 -169 -620 -191
-25 -9 -83 -25 -130 -36 -85 -19 -85 -19 -20 -13 250 21 660 130 995 263 115
46 112 47 -45 16z"/>
</g>
</svg>
