<?xml version="1.0" standalone="no"?>
<!DOCTYPE svg PUBLIC "-//W3C//DTD SVG 20010904//EN"
 "http://www.w3.org/TR/2001/REC-SVG-20010904/DTD/svg10.dtd">
<svg version="1.0" xmlns="http://www.w3.org/2000/svg"
 width="1000.000000pt" height="1000.000000pt" viewBox="0 0 1000.000000 1000.000000"
 preserveAspectRatio="xMidYMid meet">
<metadata>
  <rdf:RDF
    xmlns:rdf = "http://www.w3.org/1999/02/22-rdf-syntax-ns#"
    xmlns:rdfs = "http://www.w3.org/2000/01/rdf-schema#"
    xmlns:dc = "http://purl.org/dc/elements/1.1/"
    xmlns:cc = "http://creativecommons.org/ns#">
    <cc:license rdf:resource="http://creativecommons.org/publicdomain/zero/1.0/deed.en"/>
    <cc:permits rdf:resource="http://creativecommons.org/ns#Reproduction"/>
    <rdf:Description about="https://nft.mir.one/fingerprints"
      dc:title="TON Fingerprints"
      dc:description="This is a unique digital fingerprint created based on the algorithm for generating basic rings using a noise texture. Like human fingerprints, you can now use it for the Web3 and Metaverse era as digital biometric information."
      dc:publisher="https://nft.mir.one"
      dc:date="2022-02-22"
      dc:format="image/svg+xml"
      dc:language="en" >
      <dc:creator>
      <rdf:Bag>
        <rdf:li>EQBondcvD2_aOFADXSWJHs4ZazQDuEl9_wNvGGPxI8hGuOFU</rdf:li>
        <rdf:li>ipfs://bafkreihj7iub3fhmhq6jn62noukt5wxn3gv6bvcg7wmt6ywvlurefezckq</rdf:li>
      </rdf:Bag>
      </dc:creator>
    </rdf:Description>
  </rdf:RDF>
</metadata>
<g transform="translate(0.000000,1000.000000) scale(0.100000,-0.100000)"
fill="#1b1f23" stroke="none">
<path d="M5098 7813 c7 -3 16 -2 19 1 4 3 -2 6 -13 5 -11 0 -14 -3 -6 -6z"/>
<path d="M5153 7803 c9 -2 23 -2 30 0 6 3 -1 5 -18 5 -16 0 -22 -2 -12 -5z"/>
<path d="M5238 7793 c6 -2 18 -2 25 0 6 3 1 5 -13 5 -14 0 -19 -2 -12 -5z"/>
<path d="M4395 7689 c-15 -7 -12 -8 13 -3 45 8 87 -3 122 -33 58 -48 39 -66
-115 -108 -139 -38 -310 -99 -450 -160 -143 -62 -147 -65 -95 -59 58 6 334 68
487 110 121 32 169 53 223 99 43 36 46 37 113 33 52 -3 72 -8 82 -22 47 -64
-110 -140 -500 -242 -300 -79 -426 -135 -685 -304 -119 -78 -122 -81 -80 -74
63 10 307 84 489 150 152 54 348 107 598 160 178 38 310 39 411 2 103 -37 196
-95 341 -212 130 -105 248 -190 431 -313 146 -97 139 -94 190 -77 55 19 108 9
240 -47 105 -45 184 -89 337 -190 113 -74 140 -86 156 -70 26 26 -89 210 -207
331 -58 59 -58 59 -126 59 -62 -1 -85 6 -252 72 -183 72 -416 185 -519 251
-51 33 -109 90 -109 108 0 23 29 30 76 20 130 -29 498 -197 711 -323 115 -69
137 -77 146 -54 17 44 -91 171 -233 277 -192 142 -457 230 -692 230 -135 0
-255 47 -447 176 -52 36 -120 76 -151 90 -30 15 -68 36 -85 49 -53 39 -97 57
-174 71 -87 15 -216 17 -246 3z"/>
<path d="M5171 7616 c-28 -34 29 -83 148 -126 81 -30 133 -41 410 -85 176 -28
425 -102 508 -151 75 -44 46 -18 -57 51 -162 108 -277 157 -515 221 -386 103
-471 118 -494 90z"/>
<path d="M4595 7104 c-127 -17 -328 -58 -414 -84 -36 -11 -93 -36 -126 -55
-102 -60 -138 -74 -261 -100 -199 -44 -273 -88 -484 -289 -85 -81 -85 -81 -38
-65 26 8 100 43 165 77 215 110 349 140 428 94 31 -19 52 -22 143 -22 59 0
168 -7 242 -14 74 -8 155 -12 180 -10 122 11 438 34 540 40 193 10 363 -25
438 -93 37 -33 37 -33 12 -54 -23 -20 -31 -20 -120 -13 -163 15 -501 10 -645
-9 -232 -32 -279 -47 -360 -117 -26 -22 -111 -72 -190 -110 -181 -89 -303
-169 -405 -267 -168 -160 -279 -353 -280 -483 0 -20 -18 -94 -39 -165 -84
-279 -93 -479 -30 -669 32 -100 153 -335 229 -449 220 -329 575 -556 934 -597
88 -11 384 9 546 36 257 43 446 139 620 313 111 112 178 209 257 375 143 299
174 347 215 331 26 -10 29 -33 13 -97 -47 -178 -160 -429 -263 -584 -175 -261
-466 -434 -807 -479 -175 -23 -532 -24 -650 -1 -307 58 -570 199 -795 426
-225 226 -390 512 -445 775 -24 114 -20 324 10 469 36 182 110 419 165 532
139 287 376 500 730 654 63 27 123 60 133 71 16 20 16 23 1 40 -38 43 -169 32
-279 -24 -133 -66 -318 -199 -421 -302 -195 -194 -362 -496 -439 -790 -86
-330 -70 -744 36 -983 55 -123 219 -356 349 -494 230 -247 579 -441 916 -508
72 -15 175 -23 379 -31 378 -15 467 -10 571 28 118 44 445 202 497 239 33 24
67 68 128 166 168 269 230 409 280 633 30 132 48 175 74 175 23 0 36 -36 42
-116 15 -190 -64 -427 -226 -679 -81 -125 -94 -166 -63 -197 18 -18 23 -19 58
-8 21 7 64 37 96 67 177 170 315 522 295 758 -9 107 -38 173 -108 251 -78 86
-117 147 -174 275 -214 477 -579 775 -1037 845 -136 21 -323 14 -428 -16 -141
-40 -201 -80 -351 -231 -186 -188 -260 -281 -324 -414 -63 -131 -84 -207 -92
-335 -16 -289 145 -532 452 -680 252 -123 417 -154 585 -111 270 68 496 266
630 553 65 141 85 212 84 308 -1 137 -28 161 -99 87 -32 -34 -54 -74 -94 -173
-117 -294 -244 -452 -438 -548 -95 -47 -175 -66 -279 -66 -321 0 -609 199
-689 475 -26 87 -17 255 18 353 43 123 100 207 221 328 169 168 304 242 491
265 90 12 163 6 282 -21 256 -60 463 -235 558 -473 24 -60 32 -69 69 -85 93
-42 131 -137 102 -262 -21 -94 -95 -268 -157 -372 -173 -288 -374 -444 -665
-519 -70 -18 -118 -23 -221 -23 -132 -1 -132 -1 -178 46 -34 34 -68 55 -128
79 -319 127 -486 259 -592 470 -49 96 -65 170 -65 295 0 294 101 513 371 809
100 110 133 161 143 217 8 45 52 84 142 127 243 116 588 133 912 45 276 -75
463 -177 634 -347 172 -170 288 -335 409 -582 136 -277 177 -439 166 -654 -10
-185 -66 -374 -159 -537 -90 -158 -188 -268 -318 -356 -41 -28 -111 -86 -155
-128 -99 -95 -166 -140 -322 -219 -128 -64 -167 -98 -143 -126 18 -22 70 -28
141 -15 86 16 170 49 316 127 93 50 127 74 142 99 13 22 31 36 56 43 63 17
118 57 208 150 224 232 383 600 428 990 39 343 -61 734 -259 1010 -125 174
-431 498 -553 584 -67 47 -91 55 -269 91 -41 9 -124 31 -185 50 -183 57 -281
70 -525 70 -293 0 -443 -29 -715 -138 -126 -51 -139 -54 -159 -41 -91 64 -321
-77 -518 -318 -105 -129 -142 -167 -162 -167 -28 0 -18 52 24 124 52 89 122
176 206 256 128 122 223 179 394 238 63 22 162 59 219 82 128 52 259 86 408
105 196 26 681 16 781 -16 21 -6 99 -41 176 -77 117 -55 142 -64 165 -56 22 8
26 16 25 46 -2 56 -54 118 -279 331 -205 194 -282 251 -412 305 -64 27 -108
28 -168 2 -53 -23 -124 -31 -480 -57 -327 -23 -472 -23 -508 0 -15 9 -27 22
-27 27 0 53 566 129 851 115 75 -4 145 -4 157 -1 52 17 7 91 -76 127 -92 40
-220 47 -397 23z m-359 -1128 c10 -25 -25 -74 -89 -127 -130 -108 -198 -173
-275 -262 -225 -262 -296 -408 -309 -638 -7 -125 1 -190 28 -221 19 -23 19
-23 43 4 13 15 27 46 31 70 39 255 56 321 115 441 77 153 232 348 385 480 93
82 154 113 185 97 11 -6 20 -13 20 -15 0 -3 -67 -71 -148 -153 -284 -282 -388
-466 -443 -787 -37 -219 -29 -314 39 -450 66 -132 204 -288 331 -374 130 -88
335 -169 474 -186 31 -4 60 -12 64 -18 3 -6 -6 -21 -21 -34 -71 -60 -337 -4
-532 113 -247 148 -431 372 -528 643 -18 50 -41 90 -71 123 -63 70 -80 127
-79 268 0 211 59 376 181 511 37 41 108 121 156 177 49 55 125 132 170 170 79
67 244 182 260 182 4 0 10 -6 13 -14z"/>
<path d="M3691 6585 c-94 -39 -200 -98 -277 -156 -64 -47 -116 -118 -139 -189
-10 -30 -48 -111 -86 -180 -110 -202 -176 -374 -232 -610 -41 -169 -42 -195
-4 -90 97 266 172 420 295 613 181 285 237 343 469 488 109 68 168 120 160
143 -2 6 -26 12 -53 14 -37 1 -69 -6 -133 -33z"/>
<path d="M5924 6566 c-3 -15 2 -42 14 -68 26 -58 164 -230 287 -358 56 -58
130 -141 165 -185 36 -44 157 -174 270 -290 196 -200 208 -215 253 -305 25
-52 62 -149 81 -215 19 -66 42 -138 51 -160 10 -22 23 -67 30 -100 12 -53 13
-56 14 -22 1 21 -6 104 -14 185 -26 247 -75 494 -115 572 -34 67 -147 191
-256 281 -131 108 -174 155 -174 191 0 51 39 43 214 -43 173 -86 198 -102 225
-151 35 -64 19 -8 -29 104 -36 85 -38 92 -22 104 16 12 15 13 -5 14 -14 0 -23
-6 -23 -15 0 -8 -3 -15 -7 -15 -20 0 -74 43 -112 88 -52 61 -72 70 -183 74
-109 5 -155 27 -368 174 -149 103 -252 164 -277 164 -7 0 -15 -11 -19 -24z"/>
<path d="M3144 6225 c-51 -63 -38 -65 21 -5 33 33 44 50 33 50 -9 0 -33 -20
-54 -45z"/>
<path d="M4845 5434 c-65 -10 -144 -38 -220 -77 -61 -31 -102 -63 -170 -132
-134 -134 -185 -245 -185 -406 0 -225 155 -411 395 -474 88 -23 225 -21 305 4
238 75 424 319 459 601 27 214 -99 387 -334 460 -69 21 -192 33 -250 24z m130
-243 c137 -61 215 -211 185 -357 -28 -135 -117 -250 -238 -307 -61 -29 -76
-32 -162 -32 -83 0 -103 4 -155 28 -72 34 -137 94 -173 162 -24 44 -27 61 -27
145 0 87 3 100 31 155 34 64 118 151 175 180 114 60 264 71 364 26z"/>
<path d="M4629 5022 c-94 -49 -148 -160 -119 -247 48 -146 244 -193 362 -87
51 46 77 102 78 164 0 58 -13 94 -48 132 -66 71 -180 87 -273 38z m43 -167
c-2 -11 -4 -28 -6 -37 -4 -26 -14 -32 -31 -18 -30 25 -11 85 25 77 9 -1 14
-11 12 -22z"/>
<path d="M2950 4394 c0 -23 244 -501 297 -583 96 -148 226 -257 480 -403 323
-185 607 -272 928 -285 301 -11 497 40 426 111 -21 20 -34 21 -284 28 -277 7
-368 18 -537 65 -297 83 -598 255 -823 471 -96 93 -163 175 -299 367 -47 66
-100 134 -118 150 -18 17 -41 44 -51 60 -11 17 -19 25 -19 19z"/>
<path d="M3222 3563 c93 -113 180 -199 295 -290 116 -92 201 -145 351 -215
289 -137 491 -187 779 -195 267 -8 398 16 667 120 118 45 135 55 202 118 45
41 126 99 205 146 125 74 199 136 199 167 0 8 -8 22 -17 31 -33 34 -93 14
-348 -113 -132 -67 -265 -132 -295 -145 -30 -13 -75 -41 -99 -61 -111 -94
-213 -120 -461 -120 -262 1 -472 45 -727 154 -176 76 -457 235 -638 361 -38
27 -94 65 -123 84 -53 34 -53 34 10 -42z"/>
<path d="M6695 3388 c-27 -35 -88 -103 -136 -153 -47 -49 -103 -112 -123 -138
-33 -45 -36 -54 -36 -115 0 -67 0 -67 31 -12 18 30 79 123 136 205 109 157
186 275 180 275 -2 0 -26 -28 -52 -62z"/>
<path d="M3425 3162 c6 -5 66 -58 135 -117 227 -194 479 -344 673 -400 169
-48 273 -60 512 -59 240 1 310 10 610 79 297 68 390 75 390 29 0 -55 -377
-175 -686 -219 -246 -34 -494 -29 -713 16 -107 21 -357 91 -415 115 -19 8 -36
13 -38 11 -7 -8 284 -146 370 -176 319 -111 660 -132 1002 -61 227 47 448 141
553 234 33 30 105 84 159 119 109 72 236 178 271 225 41 57 20 91 -45 76 -15
-3 -71 -30 -123 -60 -178 -100 -205 -107 -440 -114 -196 -6 -213 -8 -376 -48
-267 -65 -345 -76 -549 -75 -365 0 -679 90 -1032 294 -59 34 -126 73 -148 85
-50 28 -124 59 -110 46z"/>
</g>
</svg>
