<?xml version="1.0" standalone="no"?>
<!DOCTYPE svg PUBLIC "-//W3C//DTD SVG 20010904//EN"
 "http://www.w3.org/TR/2001/REC-SVG-20010904/DTD/svg10.dtd">
<svg version="1.0" xmlns="http://www.w3.org/2000/svg"
 width="1000.000000pt" height="1000.000000pt" viewBox="0 0 1000.000000 1000.000000"
 preserveAspectRatio="xMidYMid meet">
<metadata>
  <rdf:RDF
    xmlns:rdf = "http://www.w3.org/1999/02/22-rdf-syntax-ns#"
    xmlns:rdfs = "http://www.w3.org/2000/01/rdf-schema#"
    xmlns:dc = "http://purl.org/dc/elements/1.1/"
    xmlns:cc = "http://creativecommons.org/ns#">
    <cc:license rdf:resource="http://creativecommons.org/publicdomain/zero/1.0/deed.en"/>
    <cc:permits rdf:resource="http://creativecommons.org/ns#Reproduction"/>
    <rdf:Description about="https://nft.mir.one/fingerprints"
      dc:title="TON Fingerprints"
      dc:description="This is a unique digital fingerprint created based on the algorithm for generating basic rings using a noise texture. Like human fingerprints, you can now use it for the Web3 and Metaverse era as digital biometric information."
      dc:publisher="https://nft.mir.one"
      dc:date="2022-02-22"
      dc:format="image/svg+xml"
      dc:language="en" >
      <dc:creator>
      <rdf:Bag>
        <rdf:li>EQBondcvD2_aOFADXSWJHs4ZazQDuEl9_wNvGGPxI8hGuOFU</rdf:li>
        <rdf:li>ipfs://bafkreihj7iub3fhmhq6jn62noukt5wxn3gv6bvcg7wmt6ywvlurefezckq</rdf:li>
      </rdf:Bag>
      </dc:creator>
    </rdf:Description>
  </rdf:RDF>
</metadata>
<g transform="translate(0.000000,1000.000000) scale(0.100000,-0.100000)"
fill="#1b1f23" stroke="none">
<path d="M5330 7777 c3 -3 48 -34 100 -69 289 -194 359 -248 457 -352 39 -42
78 -76 86 -76 50 0 17 69 -74 154 -79 75 -173 141 -314 219 -88 49 -269 137
-255 124z"/>
<path d="M4720 7736 c36 -19 124 -57 195 -87 72 -29 227 -102 345 -163 491
-251 506 -258 545 -260 25 -1 41 4 48 16 16 25 -34 73 -163 157 -201 131 -426
236 -635 296 -83 24 -350 76 -385 75 -8 -1 14 -16 50 -34z"/>
<path d="M4262 7590 c20 -11 124 -49 230 -83 249 -82 403 -146 783 -327 171
-81 357 -165 415 -188 101 -39 330 -112 352 -112 5 0 36 16 68 36 77 48 124
53 186 23 100 -50 222 -185 421 -469 79 -113 183 -285 183 -304 0 -5 3 -7 6
-3 3 3 -33 83 -80 179 -124 251 -240 430 -414 640 -90 109 -144 185 -204 288
-38 65 -38 65 -33 15 3 -27 11 -75 17 -106 19 -102 -13 -121 -118 -72 -55 26
-68 28 -199 28 -107 1 -152 5 -190 19 -27 9 -187 84 -355 166 -554 269 -583
278 -900 286 -205 5 -205 5 -168 -16z"/>
<path d="M4040 7420 c-25 -5 -65 -9 -89 -9 -45 -1 -45 -1 5 -25 27 -13 132
-49 234 -81 371 -114 626 -218 1033 -421 378 -190 464 -221 512 -190 36 23 31
50 -17 102 -37 40 -84 67 -328 186 -433 213 -619 294 -920 400 -110 39 -121
41 -250 44 -74 1 -155 -1 -180 -6z"/>
<path d="M3860 7221 c-30 -5 -81 -14 -114 -21 -59 -12 -59 -12 -20 -29 22 -10
73 -28 113 -40 41 -13 116 -43 165 -68 50 -25 195 -81 321 -123 127 -43 279
-99 340 -124 221 -94 451 -228 562 -329 88 -81 355 -459 475 -676 96 -171 129
-216 175 -240 47 -24 56 -42 93 -193 46 -190 73 -363 74 -483 1 -110 1 -110
-46 -205 -32 -67 -60 -148 -92 -275 -85 -325 -212 -600 -424 -910 -225 -330
-454 -540 -747 -685 -216 -107 -440 -178 -629 -200 -55 -7 -110 -16 -123 -21
-13 -5 -36 -9 -51 -10 -15 0 34 -19 108 -41 134 -41 136 -42 295 -42 184 -1
199 3 412 104 398 189 703 504 1009 1040 255 449 381 829 340 1028 -7 36 -6
42 8 42 9 0 28 -8 43 -17 25 -16 26 -16 45 8 19 22 20 35 15 154 -3 72 -15
177 -26 234 -37 181 -52 301 -61 491 -5 102 -15 217 -24 255 -43 201 -149 406
-318 613 -85 103 -95 109 -263 138 -96 16 -99 18 -386 177 -263 145 -439 221
-845 363 -262 91 -311 101 -424 85z m1696 -769 c225 -164 481 -677 412 -827
-23 -50 -43 -31 -77 73 -62 188 -160 369 -311 572 -102 136 -110 150 -110 184
0 36 35 35 86 -2z"/>
<path d="M3655 7001 c-33 -10 -76 -25 -95 -33 -19 -8 -44 -18 -55 -23 -39 -14
57 -32 216 -39 181 -8 222 0 217 43 -7 64 -153 90 -283 52z"/>
<path d="M3940 6819 c-41 -10 -133 -22 -205 -25 -155 -8 -221 -29 -357 -116
-88 -55 -88 -55 -47 -61 22 -3 68 -1 102 3 98 14 379 30 528 30 207 0 355 -30
574 -117 391 -156 654 -392 941 -845 203 -320 278 -521 318 -847 10 -85 19
-118 33 -132 17 -17 21 -18 40 -4 101 71 47 529 -90 765 -327 565 -556 858
-793 1018 -226 151 -527 278 -791 331 -120 25 -154 25 -253 0z"/>
<path d="M6084 6825 c-15 -38 9 -85 103 -201 177 -220 281 -401 352 -612 35
-106 37 -124 15 -143 -44 -36 -48 -62 -55 -354 -7 -274 -14 -338 -44 -396 -17
-32 -50 -54 -60 -39 -3 5 -7 204 -8 442 -3 473 -2 461 -68 626 -80 200 -287
480 -393 531 -125 61 -143 -17 -35 -157 192 -248 281 -422 324 -627 8 -40 22
-193 30 -341 20 -359 31 -418 86 -496 18 -25 22 -43 21 -101 -2 -87 -26 -222
-53 -291 -11 -28 -38 -118 -60 -201 -22 -82 -56 -199 -76 -260 -79 -235 -407
-835 -592 -1079 -101 -133 -341 -394 -417 -452 -152 -117 -410 -255 -554 -298
-47 -14 -114 -37 -150 -51 -65 -25 -65 -25 140 -22 205 3 205 3 362 60 87 31
219 86 295 121 138 64 138 64 191 53 65 -14 115 -2 227 53 81 39 379 225 472
293 103 76 236 236 321 387 34 60 37 73 43 175 12 183 55 436 109 630 63 231
116 443 180 725 28 124 65 286 82 360 27 117 31 154 31 280 0 249 -48 413
-221 754 -193 380 -393 611 -555 640 -29 5 -39 3 -43 -9z m608 -1016 c40 -65
59 -148 65 -289 8 -178 -11 -287 -132 -765 -106 -420 -182 -685 -235 -823 -26
-68 -38 -86 -94 -135 -56 -50 -71 -72 -141 -209 -43 -84 -120 -226 -171 -315
-51 -90 -104 -194 -118 -233 -14 -39 -32 -83 -40 -98 -31 -60 -212 -218 -364
-317 -39 -26 -44 -27 -59 -13 -29 30 0 79 133 220 69 73 145 162 168 198 50
76 249 421 326 565 30 55 85 151 122 214 89 147 123 215 163 326 35 96 120
394 179 630 19 77 53 198 75 268 58 187 75 307 68 502 -4 117 -11 182 -26 240
-12 44 -19 85 -16 92 9 25 68 -10 97 -58z m-291 -2076 c12 -33 7 -81 -26 -220
-27 -114 -60 -197 -107 -276 -106 -175 -258 -314 -302 -278 -20 17 -14 29 84
167 104 145 171 272 240 459 29 77 56 148 61 158 14 26 38 21 50 -10z"/>
<path d="M3715 6514 c-316 -24 -317 -24 -535 -211 -61 -53 -61 -53 -13 -47 26
4 99 19 161 35 186 47 329 62 552 56 144 -4 220 -11 291 -26 481 -104 866
-402 1139 -883 100 -176 178 -379 252 -659 30 -113 33 -136 32 -264 0 -125 -3
-149 -28 -223 -32 -97 -166 -365 -249 -499 -206 -331 -478 -582 -725 -669
-112 -39 -233 -28 -240 22 -4 27 11 38 81 58 85 25 241 107 337 180 118 88
281 260 367 387 39 58 104 168 144 245 39 76 89 166 110 199 77 121 104 266
80 421 -27 167 -157 536 -248 704 -370 687 -1046 1001 -1791 834 -131 -29
-174 -48 -234 -102 -37 -33 -164 -179 -181 -208 -11 -19 58 1 143 39 110 51
238 94 353 119 86 19 134 22 302 23 174 0 214 -3 304 -23 137 -31 223 -62 352
-129 368 -190 621 -522 764 -1005 14 -48 39 -112 56 -142 40 -76 59 -155 59
-246 0 -122 -41 -228 -76 -199 -10 8 -14 40 -14 123 0 139 -13 224 -39 250
-17 16 -23 17 -35 7 -29 -24 -38 -95 -41 -301 -2 -181 -5 -213 -25 -270 -83
-245 -288 -485 -576 -674 -82 -54 -174 -123 -205 -153 -65 -63 -39 -61 -289
-29 -211 27 -329 52 -467 101 -139 49 -187 57 -176 28 18 -49 144 -163 225
-204 96 -49 259 -79 429 -79 117 0 139 -6 139 -40 0 -26 -43 -60 -95 -76 -57
-17 -221 -19 -297 -3 -50 10 -199 52 -297 83 -53 18 -52 16 85 -82 132 -94
274 -166 371 -188 64 -14 78 -14 161 0 98 17 376 98 500 146 366 141 720 514
972 1025 82 165 143 342 165 475 22 137 20 166 -16 234 -18 34 -48 124 -70
215 -56 221 -75 281 -126 400 -112 262 -336 589 -529 771 -240 226 -542 379
-861 435 -87 15 -351 26 -448 19z"/>
<path d="M3740 5914 c-246 -21 -540 -119 -617 -207 -46 -53 -87 -114 -143
-217 -27 -51 -50 -95 -50 -97 0 -10 103 54 165 103 85 66 302 176 405 204 292
80 576 60 827 -60 116 -55 195 -110 296 -209 141 -137 237 -295 289 -476 53
-185 14 -550 -81 -759 -98 -217 -358 -459 -586 -547 -124 -48 -219 -62 -370
-56 -216 10 -401 60 -524 141 -39 26 -105 85 -147 132 -43 46 -84 84 -91 84
-8 0 -13 -3 -11 -7 56 -121 79 -163 133 -244 66 -99 151 -186 189 -194 11 -2
57 -11 101 -20 44 -9 132 -28 195 -41 152 -33 355 -42 458 -20 194 41 509 261
658 459 128 171 175 296 204 548 11 96 30 219 41 273 24 117 17 183 -31 328
-125 372 -426 682 -783 807 -158 55 -380 87 -527 75z"/>
<path d="M3689 5601 c-158 -29 -295 -85 -435 -176 -123 -80 -174 -134 -213
-228 -70 -168 -75 -205 -75 -487 0 -140 4 -300 9 -355 9 -100 9 -100 22 -35 7
36 18 147 23 247 11 221 28 304 79 408 170 343 617 545 992 450 91 -23 233
-95 306 -155 124 -100 224 -255 264 -407 30 -111 30 -270 0 -376 -41 -149 -96
-223 -192 -258 -46 -17 -69 -33 -104 -75 -127 -148 -333 -244 -524 -244 -148
0 -287 42 -464 141 -60 33 -124 63 -143 66 -37 6 -64 -9 -64 -36 0 -53 163
-194 295 -258 39 -18 115 -45 170 -59 135 -36 329 -38 450 -5 147 39 254 99
403 224 155 130 256 285 303 462 29 108 37 322 16 420 -71 336 -330 608 -674
711 -75 22 -111 27 -243 30 -85 1 -176 -1 -201 -5z"/>
<path d="M7071 5414 c0 -11 3 -14 6 -6 3 7 2 16 -1 19 -3 4 -6 -2 -5 -13z"/>
<path d="M7042 5301 c-51 -149 -95 -320 -148 -574 -54 -264 -76 -353 -234
-960 -44 -170 -80 -320 -80 -333 0 -36 26 -29 53 14 40 64 78 159 142 356 117
356 174 614 230 1044 20 147 42 312 51 366 21 139 16 172 -14 87z"/>
<path d="M3821 5310 c-258 -55 -473 -208 -569 -403 -48 -99 -65 -177 -66 -307
-1 -190 41 -282 168 -372 205 -145 412 -198 589 -152 80 21 129 46 184 97 94
86 113 185 69 349 -32 122 -55 168 -117 234 -80 84 -214 132 -316 113 -111
-21 -182 -114 -183 -237 0 -165 156 -276 298 -212 75 34 105 146 49 185 -19
13 -23 13 -42 -5 -41 -39 -85 -20 -85 36 0 87 135 101 206 22 42 -46 58 -90
58 -163 0 -135 -84 -226 -230 -250 -141 -22 -329 79 -401 216 -26 50 -28 62
-28 169 0 110 2 119 32 180 60 123 151 200 286 246 56 19 77 31 90 53 51 87
236 80 383 -14 107 -68 194 -180 236 -303 17 -51 23 -89 23 -162 0 -98 -10
-129 -56 -189 -14 -17 -19 -40 -19 -81 0 -103 47 -106 111 -7 61 94 84 180 83
312 0 96 -4 121 -30 196 -72 204 -230 361 -432 429 -72 24 -223 34 -291 20z"/>
<path d="M3843 5074 c-28 -6 -30 -35 -5 -57 10 -10 57 -33 103 -54 46 -20 101
-47 123 -60 94 -60 165 -164 206 -303 12 -41 29 -85 36 -97 17 -27 49 -30 58
-7 9 25 7 144 -5 194 -46 199 -239 374 -424 385 -38 2 -80 1 -92 -1z"/>
<path d="M6339 2833 c-24 -28 -24 -28 4 -4 25 23 32 31 24 31 -2 0 -14 -12
-28 -27z"/>
<path d="M6230 2749 c-69 -52 -332 -199 -490 -273 -52 -25 -174 -67 -270 -95
-96 -28 -206 -61 -245 -75 -118 -41 -281 -105 -268 -106 34 -1 297 55 423 89
255 70 409 139 610 271 114 75 310 224 310 235 0 7 0 7 -70 -46z"/>
</g>
</svg>
