<?xml version="1.0" standalone="no"?>
<!DOCTYPE svg PUBLIC "-//W3C//DTD SVG 20010904//EN"
 "http://www.w3.org/TR/2001/REC-SVG-20010904/DTD/svg10.dtd">
<svg version="1.0" xmlns="http://www.w3.org/2000/svg"
 width="1000.000000pt" height="1000.000000pt" viewBox="0 0 1000.000000 1000.000000"
 preserveAspectRatio="xMidYMid meet">
<metadata>
  <rdf:RDF
    xmlns:rdf = "http://www.w3.org/1999/02/22-rdf-syntax-ns#"
    xmlns:rdfs = "http://www.w3.org/2000/01/rdf-schema#"
    xmlns:dc = "http://purl.org/dc/elements/1.1/"
    xmlns:cc = "http://creativecommons.org/ns#">
    <cc:license rdf:resource="http://creativecommons.org/publicdomain/zero/1.0/deed.en"/>
    <cc:permits rdf:resource="http://creativecommons.org/ns#Reproduction"/>
    <rdf:Description about="https://nft.mir.one/fingerprints"
      dc:title="TON Fingerprints"
      dc:description="This is a unique digital fingerprint created based on the algorithm for generating basic rings using a noise texture. Like human fingerprints, you can now use it for the Web3 and Metaverse era as digital biometric information."
      dc:publisher="https://nft.mir.one"
      dc:date="2022-02-22"
      dc:format="image/svg+xml"
      dc:language="en" >
      <dc:creator>
      <rdf:Bag>
        <rdf:li>EQBondcvD2_aOFADXSWJHs4ZazQDuEl9_wNvGGPxI8hGuOFU</rdf:li>
        <rdf:li>ipfs://bafkreihj7iub3fhmhq6jn62noukt5wxn3gv6bvcg7wmt6ywvlurefezckq</rdf:li>
      </rdf:Bag>
      </dc:creator>
    </rdf:Description>
  </rdf:RDF>
</metadata>
<g transform="translate(0.000000,1000.000000) scale(0.100000,-0.100000)"
fill="#1b1f23" stroke="none">
<path d="M4730 7719 c-118 -9 -259 -31 -368 -57 -74 -17 -74 -17 390 -20 305
-2 507 1 593 9 72 6 175 15 230 18 100 6 100 6 -35 24 -279 36 -565 45 -810
26z"/>
<path d="M4258 7633 c7 -3 16 -2 19 1 4 3 -2 6 -13 5 -11 0 -14 -3 -6 -6z"/>
<path d="M5425 7520 c-16 -4 -57 -15 -90 -24 -90 -24 -536 -23 -620 2 -95 27
-265 22 -380 -12 -247 -74 -545 -240 -695 -386 -47 -47 -154 -212 -148 -231 5
-16 88 61 88 82 0 71 57 128 203 207 201 108 460 197 686 236 118 20 165 20
181 1 30 -37 -35 -69 -261 -129 -167 -44 -378 -116 -478 -162 -93 -43 -271
-161 -271 -180 0 -18 42 -28 85 -20 19 4 112 36 207 72 95 36 286 99 423 140
138 40 293 90 345 110 117 45 216 63 341 64 123 0 184 -11 349 -65 74 -24 221
-69 325 -99 280 -81 515 -164 710 -251 52 -23 183 -69 173 -60 -57 50 -235
183 -298 223 -184 117 -289 159 -563 228 -272 68 -327 90 -327 135 0 17 7 19
59 19 83 0 269 -33 451 -81 152 -40 301 -72 307 -65 2 1 -68 37 -154 78 -275
132 -532 198 -648 168z"/>
<path d="M4845 7126 c-127 -24 -656 -174 -868 -245 -115 -38 -245 -77 -290
-87 -154 -31 -213 -75 -320 -237 -84 -127 -138 -247 -146 -318 -8 -73 -15 -88
-82 -181 -49 -68 -49 -68 -23 -74 15 -4 70 1 123 11 127 23 407 32 508 15 43
-6 130 -28 193 -47 63 -19 212 -54 330 -78 118 -24 260 -53 315 -66 55 -12
134 -24 175 -28 59 -5 75 -10 78 -23 5 -28 -48 -48 -126 -48 -40 0 -224 26
-423 60 -576 99 -641 104 -875 75 -170 -21 -225 -33 -254 -53 -43 -32 -98
-113 -168 -247 -67 -131 -67 -131 -17 -104 28 14 80 46 116 71 87 60 188 100
334 134 115 27 130 28 380 28 243 0 278 -2 536 -37 234 -31 303 -37 461 -37
161 0 195 -3 254 -21 103 -32 269 -119 408 -214 136 -92 165 -105 185 -81 21
25 -3 69 -79 150 -85 90 -189 168 -378 279 -107 63 -168 106 -200 141 -131
142 -161 165 -296 231 -72 36 -170 75 -217 89 -178 51 -392 58 -502 16 -66
-25 -137 -25 -257 1 -151 33 -189 34 -288 9 -108 -26 -156 -24 -160 7 -2 16
33 60 142 176 182 193 230 227 450 312 210 81 759 223 1011 262 326 50 722
-45 1440 -344 332 -138 403 -160 442 -135 13 8 -275 220 -352 259 -186 94
-635 249 -1005 345 -145 38 -165 41 -320 44 -110 2 -188 -1 -235 -10z m-670
-1011 c338 -40 665 -168 665 -262 0 -16 -4 -23 -12 -20 -7 3 -51 22 -97 42
-122 52 -253 89 -482 135 -111 22 -214 47 -229 55 -32 17 -43 38 -27 54 14 14
27 14 182 -4z"/>
<path d="M4932 6849 c-99 -17 -646 -130 -747 -155 -251 -62 -381 -122 -487
-224 -52 -50 -68 -72 -68 -93 0 -36 15 -41 170 -61 114 -15 137 -15 270 -1
245 27 367 9 568 -83 157 -73 256 -131 392 -232 59 -43 153 -109 211 -146 175
-114 272 -189 351 -272 90 -94 119 -141 157 -255 20 -59 68 -150 155 -296 70
-116 182 -318 250 -449 137 -265 169 -319 197 -327 49 -16 50 43 4 160 -35 90
-180 385 -289 590 -47 88 -118 236 -157 328 -40 93 -94 203 -121 245 -67 102
-209 241 -338 328 -179 122 -458 284 -626 365 -170 82 -224 118 -224 150 0 24
16 24 101 -1 106 -32 247 -93 449 -196 416 -211 601 -348 727 -540 67 -104
100 -178 152 -343 32 -101 72 -191 171 -384 200 -394 253 -524 270 -675 8 -72
19 -105 64 -201 76 -161 102 -271 131 -551 9 -85 19 -158 23 -162 10 -10 60
278 72 417 6 61 10 155 10 210 0 55 5 143 12 195 27 226 -63 493 -325 955
-110 193 -183 286 -243 305 -38 13 -57 44 -100 158 -42 110 -135 272 -189 326
-133 134 -435 299 -905 494 -173 71 -216 85 -276 89 -73 6 -115 -7 -143 -41
-11 -13 -41 -16 -182 -16 -174 0 -251 -7 -431 -41 -142 -27 -178 -16 -122 36
48 45 241 96 489 130 66 9 167 25 224 36 58 11 144 22 193 26 78 5 94 10 125
35 48 37 71 43 173 42 199 -2 462 -82 958 -290 445 -188 555 -251 767 -439 66
-59 139 -120 162 -136 42 -29 42 -29 -10 52 -105 163 -245 355 -289 395 -52
48 -158 101 -463 229 -638 268 -1000 358 -1263 314z m1364 -1636 c265 -482
363 -724 380 -938 5 -73 -4 -102 -29 -92 -25 9 -45 57 -82 196 -51 193 -82
266 -251 606 -149 296 -177 368 -161 410 4 8 13 15 20 15 8 0 63 -89 123 -197z"/>
<path d="M4912 6631 c-24 -14 -9 -45 33 -68 22 -12 121 -49 220 -83 241 -83
344 -129 640 -279 214 -109 265 -131 357 -153 231 -56 448 -190 758 -468 157
-140 158 -141 128 -100 -14 19 -36 55 -48 80 -139 279 -389 486 -778 645 -62
25 -209 88 -327 140 -273 121 -379 163 -538 214 -202 64 -406 97 -445 72z"/>
<path d="M6125 5914 c-9 -10 -13 -24 -10 -38 11 -39 89 -101 166 -131 85 -33
143 -66 249 -140 41 -29 107 -72 145 -95 72 -43 211 -152 300 -235 28 -26 65
-58 83 -72 33 -25 33 -25 -7 55 -52 104 -141 215 -232 289 -217 176 -436 312
-588 364 -66 23 -85 24 -106 3z"/>
<path d="M6230 5645 c-20 -24 -2 -54 94 -155 53 -57 110 -130 137 -176 25 -43
87 -150 138 -236 201 -343 279 -566 301 -857 5 -69 15 -155 22 -190 11 -58 13
-61 20 -35 5 16 11 119 14 229 7 219 -3 354 -37 476 -28 100 -113 262 -231
439 -113 171 -132 210 -123 252 6 25 1 34 -32 66 -107 101 -246 202 -279 202
-6 0 -17 -7 -24 -15z"/>
<path d="M3834 5560 c-131 -9 -304 -41 -418 -77 -103 -32 -263 -114 -308 -157
-19 -18 -60 -84 -92 -145 -33 -61 -69 -120 -82 -130 -24 -19 -24 -19 7 -25 37
-7 55 2 183 89 177 120 253 152 559 236 204 57 232 62 349 67 167 6 566 -32
778 -74 130 -26 432 -115 507 -149 78 -36 194 -108 261 -163 110 -90 249 -290
398 -572 53 -102 140 -259 192 -350 183 -316 232 -492 248 -890 4 -100 12
-190 20 -210 7 -20 13 -27 13 -16 1 10 19 91 42 180 28 112 42 192 46 261 13
245 -94 579 -234 735 -81 89 -106 128 -213 330 -148 280 -237 424 -341 556
-56 70 -92 100 -169 139 -30 15 -102 55 -159 88 -208 119 -378 180 -570 202
-256 30 -709 74 -806 78 -55 2 -150 1 -211 -3z"/>
<path d="M6595 5420 c-7 -11 23 -53 135 -190 97 -118 189 -263 269 -422 41
-82 76 -147 77 -145 8 8 -68 313 -95 382 -43 111 -73 156 -176 258 -106 104
-189 150 -210 117z"/>
<path d="M3947 5300 c-47 -9 -84 -28 -92 -48 -7 -18 19 -48 48 -56 38 -9 344
-44 530 -61 266 -24 422 -70 551 -162 89 -63 309 -258 361 -319 109 -128 176
-230 229 -349 28 -65 31 -79 32 -190 1 -84 8 -148 23 -215 44 -188 39 -622 -9
-889 -38 -207 -113 -430 -207 -613 -20 -40 -45 -97 -54 -125 -17 -53 -17 -53
68 24 166 151 231 238 268 359 70 228 93 409 105 842 10 379 10 384 -51 627
-83 330 -201 504 -562 830 -64 58 -91 105 -70 126 11 11 151 -81 260 -173 213
-178 369 -426 497 -793 90 -257 106 -294 147 -342 51 -58 74 -104 99 -195 37
-137 45 -247 44 -598 -1 -276 1 -329 11 -300 7 19 29 70 48 112 35 76 70 198
82 289 8 56 -11 322 -31 437 -28 160 -34 176 -329 777 -203 414 -348 610 -548
744 -126 85 -212 110 -268 81 -15 -9 -43 -1 -134 35 -193 78 -348 109 -695
140 -174 16 -290 18 -353 5z"/>
<path d="M3565 5145 c-174 -38 -454 -187 -503 -267 -30 -50 -62 -153 -73 -243
-6 -44 -14 -106 -18 -138 -8 -56 -7 -57 11 -40 11 10 42 61 69 115 40 76 65
110 119 161 166 157 403 243 602 217 192 -24 374 -90 450 -162 19 -18 76 -102
126 -187 233 -391 332 -674 332 -947 0 -125 -22 -243 -76 -413 -42 -131 -46
-150 -40 -210 6 -66 6 -66 -67 -136 -107 -106 -243 -165 -285 -123 -17 17 0
41 93 139 96 100 131 164 200 371 118 353 93 642 -85 993 -194 383 -381 528
-685 529 -55 0 -125 -5 -155 -13 -79 -19 -246 -102 -308 -154 -113 -94 -169
-207 -109 -222 30 -8 60 4 163 65 201 118 312 160 428 160 225 0 394 -123 553
-404 114 -201 166 -427 143 -618 -28 -235 -114 -426 -283 -627 -149 -178 -160
-184 -410 -228 -25 -5 -12 -13 92 -59 131 -58 287 -102 392 -111 158 -13 382
104 557 292 223 239 298 621 197 1010 -43 164 -147 396 -265 593 -64 106 -69
132 -19 113 43 -16 93 -83 180 -242 134 -242 200 -405 241 -594 20 -93 17
-371 -5 -475 -56 -264 -169 -465 -360 -646 -100 -95 -165 -131 -318 -178 -64
-19 -139 -49 -165 -66 -49 -31 -49 -31 6 -25 30 4 111 1 180 -6 192 -19 226
-17 298 16 51 23 77 44 129 104 181 207 311 473 365 744 29 146 31 388 5 520
-35 176 -137 406 -286 644 -39 61 -77 137 -86 167 -14 46 -25 63 -61 91 -57
43 -229 132 -314 161 -36 13 -65 29 -65 36 0 7 13 19 30 27 24 11 42 12 90 4
84 -14 158 -46 336 -144 223 -122 305 -203 465 -465 82 -132 124 -180 148
-171 65 25 -96 331 -273 519 -141 150 -350 290 -526 351 -87 30 -95 31 -275
33 -175 1 -194 3 -349 38 -162 37 -219 55 -296 95 -46 25 -144 27 -240 6z
m954 -430 c62 -66 82 -94 86 -123 9 -55 35 -120 120 -302 85 -181 135 -323
160 -451 47 -246 21 -494 -71 -687 -41 -85 -118 -171 -155 -173 -27 -2 -52 1
-58 6 -2 2 19 38 47 79 153 229 197 561 116 876 -40 155 -215 559 -313 725
-46 78 -55 135 -20 135 4 0 43 -38 88 -85z"/>
<path d="M4940 4593 c0 -10 37 -67 83 -128 137 -183 271 -426 327 -593 37
-111 50 -211 50 -375 0 -409 -125 -768 -391 -1127 -33 -45 -71 -106 -84 -136
-24 -55 -24 -55 3 -36 15 10 58 35 96 56 90 49 206 136 241 181 35 47 116 216
158 335 82 226 118 447 118 725 0 306 -23 396 -152 599 -232 364 -278 426
-363 488 -45 32 -86 37 -86 11z"/>
<path d="M3680 4509 c-14 -5 -43 -27 -65 -49 -31 -30 -72 -50 -190 -96 -82
-31 -177 -64 -210 -73 -56 -15 -61 -19 -73 -56 -10 -29 -12 -78 -9 -175 6
-165 31 -263 112 -427 44 -89 70 -127 130 -191 100 -106 150 -132 259 -132
146 0 264 47 356 140 130 133 171 319 104 470 -51 113 -128 160 -261 160 -138
0 -230 -46 -273 -136 -43 -88 -10 -190 78 -241 111 -65 262 -5 262 104 0 38
-13 48 -60 48 -29 0 -36 4 -38 23 -5 36 25 62 70 62 49 0 84 -23 109 -71 54
-108 -11 -256 -146 -327 -45 -24 -60 -27 -155 -27 -94 0 -111 3 -161 27 -30
15 -77 49 -104 75 -108 106 -141 264 -82 385 73 149 228 212 458 187 105 -11
167 -10 201 5 41 18 168 -140 210 -262 32 -94 32 -267 -1 -362 -60 -175 -193
-320 -349 -382 -49 -19 -79 -22 -207 -24 -82 -2 -165 -6 -183 -9 -33 -6 -33
-6 20 -34 29 -16 92 -49 139 -74 104 -56 182 -79 233 -67 180 40 375 254 459
500 30 91 32 101 32 255 -1 148 -3 166 -28 238 -37 105 -78 185 -149 288 -118
173 -233 250 -383 256 -44 2 -91 -2 -105 -8z m183 -129 c76 -29 137 -86 137
-128 0 -18 -2 -32 -5 -32 -2 0 -33 15 -67 34 -35 19 -105 46 -157 60 -107 29
-141 48 -141 78 0 20 3 21 88 16 54 -4 109 -14 145 -28z"/>
<path d="M5923 3708 c-17 -19 -18 -39 -15 -265 5 -370 -19 -596 -92 -849 -36
-129 -55 -235 -34 -199 6 11 39 58 74 105 79 109 149 239 169 315 22 82 31
412 16 574 -24 264 -66 377 -118 319z"/>
</g>
</svg>
