<?xml version="1.0" standalone="no"?>
<!DOCTYPE svg PUBLIC "-//W3C//DTD SVG 20010904//EN"
 "http://www.w3.org/TR/2001/REC-SVG-20010904/DTD/svg10.dtd">
<svg version="1.0" xmlns="http://www.w3.org/2000/svg"
 width="1000.000000pt" height="1000.000000pt" viewBox="0 0 1000.000000 1000.000000"
 preserveAspectRatio="xMidYMid meet">
<metadata>
  <rdf:RDF
    xmlns:rdf = "http://www.w3.org/1999/02/22-rdf-syntax-ns#"
    xmlns:rdfs = "http://www.w3.org/2000/01/rdf-schema#"
    xmlns:dc = "http://purl.org/dc/elements/1.1/"
    xmlns:cc = "http://creativecommons.org/ns#">
    <cc:license rdf:resource="http://creativecommons.org/publicdomain/zero/1.0/deed.en"/>
    <cc:permits rdf:resource="http://creativecommons.org/ns#Reproduction"/>
    <rdf:Description about="https://nft.mir.one/fingerprints"
      dc:title="TON Fingerprints"
      dc:description="This is a unique digital fingerprint created based on the algorithm for generating basic rings using a noise texture. Like human fingerprints, you can now use it for the Web3 and Metaverse era as digital biometric information."
      dc:publisher="https://nft.mir.one"
      dc:date="2022-02-22"
      dc:format="image/svg+xml"
      dc:language="en" >
      <dc:creator>
      <rdf:Bag>
        <rdf:li>EQBondcvD2_aOFADXSWJHs4ZazQDuEl9_wNvGGPxI8hGuOFU</rdf:li>
        <rdf:li>ipfs://bafkreihj7iub3fhmhq6jn62noukt5wxn3gv6bvcg7wmt6ywvlurefezckq</rdf:li>
      </rdf:Bag>
      </dc:creator>
    </rdf:Description>
  </rdf:RDF>
</metadata>
<g transform="translate(0.000000,1000.000000) scale(0.100000,-0.100000)"
fill="#1b1f23" stroke="none">
<path d="M4715 7774 c-49 -8 -112 -18 -140 -23 -50 -9 -50 -9 -10 -10 22 0 87
6 145 14 137 19 261 19 526 -1 119 -8 218 -13 220 -11 2 2 -51 12 -118 22
-166 25 -500 30 -623 9z"/>
<path d="M5478 7733 c6 -2 18 -2 25 0 6 3 1 5 -13 5 -14 0 -19 -2 -12 -5z"/>
<path d="M4757 7599 c-50 -12 -74 -25 -87 -49 -9 -16 -6 -22 17 -34 16 -7 64
-19 108 -25 218 -32 402 -82 472 -128 23 -15 71 -50 106 -77 76 -58 341 -204
582 -320 94 -46 241 -126 328 -179 265 -163 314 -183 393 -161 27 7 39 13 28
13 -26 1 -131 75 -286 202 -62 51 -147 114 -188 141 -85 56 -416 224 -628 319
-159 71 -215 109 -194 131 22 22 110 13 212 -22 128 -44 380 -157 515 -232 60
-34 159 -88 220 -120 60 -33 116 -64 125 -70 55 -42 -34 35 -149 127 -343 275
-657 427 -931 450 -41 4 -147 15 -234 26 -167 20 -344 23 -409 8z"/>
<path d="M4275 7564 c-105 -25 -182 -54 -201 -76 -19 -21 -19 -21 3 -9 13 6
62 14 110 17 49 3 106 10 128 15 38 10 85 43 85 61 0 12 -57 8 -125 -8z"/>
<path d="M4553 7470 c-18 -4 -61 -26 -95 -48 -35 -22 -73 -43 -85 -47 -12 -3
-107 -8 -210 -10 -188 -3 -188 -3 -290 -43 -103 -39 -103 -39 -64 -64 29 -19
56 -26 119 -31 133 -10 327 -54 426 -96 50 -22 163 -70 251 -108 88 -38 223
-96 300 -128 178 -75 784 -376 907 -450 167 -101 315 -223 548 -450 358 -349
588 -539 678 -562 44 -11 44 -11 15 21 -16 17 -68 90 -116 162 -81 124 -99
143 -327 360 -325 308 -380 357 -555 488 -177 133 -218 158 -314 191 -40 13
-126 54 -193 90 -206 114 -525 268 -713 344 -252 102 -310 129 -340 161 -35
37 -30 64 12 68 37 4 227 -57 443 -143 217 -85 520 -245 788 -415 42 -26 57
-32 70 -24 22 14 36 82 23 111 -15 34 -134 112 -395 260 -282 160 -337 185
-554 251 -92 28 -184 63 -212 80 -60 37 -76 42 -117 32z"/>
<path d="M3969 7031 c-20 -16 -22 -23 -14 -47 14 -41 108 -84 395 -184 422
-147 685 -257 1028 -429 437 -219 702 -412 702 -513 0 -39 -25 -37 -81 6 -168
128 -456 294 -759 437 -364 173 -534 240 -868 343 -342 106 -377 123 -477 226
-56 58 -92 80 -130 80 -37 0 -100 -35 -154 -84 -25 -24 -77 -65 -116 -91 -38
-27 -91 -65 -118 -86 -26 -21 -57 -41 -69 -44 -20 -7 -19 -9 13 -34 20 -15 62
-33 104 -42 38 -9 113 -28 165 -43 108 -30 192 -33 277 -11 31 8 88 15 125 15
131 0 497 -83 703 -160 245 -91 797 -351 1050 -495 148 -84 229 -115 298 -115
41 0 63 -6 98 -28 53 -34 228 -178 487 -401 224 -193 350 -286 412 -305 25 -7
46 -13 47 -12 2 1 -28 60 -65 132 -77 147 -104 178 -292 330 -187 151 -416
361 -499 458 -204 238 -391 370 -850 599 -168 84 -387 187 -486 229 -267 113
-616 246 -702 269 -100 25 -193 25 -224 0z m-202 -258 c42 -19 65 -59 42 -74
-49 -31 -154 28 -135 77 7 19 50 18 93 -3z"/>
<path d="M5893 6839 c-8 -8 -9 -19 -2 -38 23 -59 70 -108 199 -204 215 -161
274 -211 460 -391 230 -223 389 -367 431 -390 34 -19 34 -19 18 0 -9 10 -43
62 -74 114 -120 200 -359 503 -458 581 -70 56 -392 271 -453 303 -61 32 -105
41 -121 25z"/>
<path d="M6674 6485 c-11 -27 47 -94 120 -142 67 -43 67 -43 -14 52 -93 108
-98 112 -106 90z"/>
<path d="M3914 6383 c-12 -2 -30 -13 -39 -23 -35 -39 6 -91 150 -187 33 -23
98 -73 145 -113 115 -100 204 -156 499 -315 365 -197 392 -214 540 -348 109
-99 242 -161 370 -173 96 -9 136 -21 235 -71 143 -72 384 -245 460 -331 26
-30 14 -52 -29 -52 -50 0 -86 17 -232 111 -178 115 -282 162 -445 203 -179 45
-265 87 -488 237 -199 135 -277 183 -495 304 -333 186 -556 329 -814 523 -52
39 -119 84 -150 100 -70 37 -224 92 -258 92 -31 0 -116 -47 -175 -97 -24 -20
-56 -42 -73 -49 -16 -7 -25 -13 -19 -14 6 0 24 -12 39 -26 18 -17 80 -44 174
-75 175 -60 348 -141 519 -246 70 -42 207 -118 304 -169 219 -115 619 -347
838 -486 91 -57 228 -142 305 -188 143 -86 205 -135 205 -164 0 -28 39 -95 78
-134 20 -20 100 -91 177 -156 250 -214 350 -320 458 -486 100 -154 232 -442
333 -725 15 -44 38 -94 50 -112 21 -32 21 -32 33 115 17 198 9 240 -78 450
-125 304 -201 434 -336 580 -116 125 -327 287 -579 445 -79 49 -90 68 -54 91
13 8 26 7 50 -3 18 -7 55 -17 82 -22 57 -10 136 -54 366 -204 178 -116 262
-189 349 -305 111 -147 148 -217 200 -385 41 -134 125 -340 157 -387 15 -21
27 -38 28 -38 6 0 -8 233 -20 334 -9 71 -13 139 -10 152 11 41 41 29 89 -34
25 -32 53 -64 62 -72 16 -13 17 -13 12 5 -3 11 -12 45 -21 75 -19 68 -74 161
-130 220 -24 25 -89 110 -146 190 -57 80 -134 184 -172 232 -74 94 -98 140
-98 190 -1 111 -155 271 -442 461 -62 41 -149 105 -193 142 -152 127 -278 191
-425 215 -101 16 -181 51 -570 245 -343 171 -409 209 -436 250 -21 32 -11 45
37 45 59 0 227 -69 658 -269 96 -45 240 -106 320 -137 205 -78 318 -136 536
-274 229 -147 352 -237 462 -343 113 -108 170 -186 318 -432 181 -300 275
-427 358 -483 44 -29 44 -29 31 -3 -7 15 -20 58 -29 96 -29 127 -57 209 -102
304 -43 89 -45 98 -40 159 5 65 5 65 -98 176 -189 205 -407 404 -570 521 -44
31 -145 89 -225 129 -80 39 -215 108 -300 153 -159 83 -703 333 -922 424 -178
73 -275 99 -413 110 -66 5 -175 21 -241 34 -67 14 -125 24 -130 24 -5 -1 -19
-4 -30 -6z m1522 -888 c110 -55 174 -107 174 -141 0 -37 -34 -31 -147 25 -109
55 -183 112 -183 142 0 33 56 23 156 -26z m244 -575 c0 -5 -4 -10 -10 -10 -5
0 -10 5 -10 10 0 6 5 10 10 10 6 0 10 -4 10 -10z"/>
<path d="M3174 5851 c-16 -10 -70 -61 -119 -114 -90 -96 -90 -96 -50 -101 22
-3 90 -7 150 -10 164 -6 249 -37 436 -154 164 -103 298 -170 397 -196 75 -20
153 -57 409 -192 569 -299 708 -391 1040 -688 282 -252 462 -462 566 -664 115
-222 240 -542 280 -717 14 -60 32 -127 40 -147 13 -37 13 -37 42 80 17 67 31
155 33 207 4 86 2 95 -38 205 -184 500 -342 737 -720 1081 -80 73 -202 187
-271 254 -96 93 -160 145 -270 217 -147 97 -381 238 -569 344 -58 32 -172 100
-253 151 -82 50 -162 95 -179 98 -43 10 -60 -9 -49 -56 19 -83 -33 -76 -60 7
-13 42 -25 57 -83 101 -147 110 -414 243 -568 282 -122 31 -132 31 -164 12z"/>
<path d="M3065 5448 c-16 -12 -55 -45 -85 -73 -55 -52 -55 -52 -15 -63 23 -7
125 -13 237 -14 179 -1 200 1 218 17 26 24 25 47 -2 72 -80 73 -287 108 -353
61z"/>
<path d="M3443 5188 c-48 -10 -151 -21 -228 -25 -77 -3 -150 -11 -162 -17 -12
-6 -49 -33 -82 -61 -60 -50 -60 -50 17 -82 77 -33 77 -33 257 -27 119 4 207 2
260 -6 139 -20 253 -88 309 -185 30 -51 23 -48 186 -75 472 -79 877 -273 1280
-611 300 -252 568 -592 499 -634 -28 -18 -74 18 -268 214 -297 299 -494 449
-767 587 -150 75 -317 136 -443 160 -108 22 -262 21 -336 0 -105 -31 -327
-151 -590 -318 -149 -96 -181 -131 -215 -239 -12 -41 -30 -85 -38 -99 -12 -20
-13 -23 -1 -14 8 6 25 15 39 20 14 5 77 43 140 86 268 178 519 288 729 319
272 39 616 -62 936 -276 132 -88 221 -161 422 -348 161 -149 280 -240 377
-289 32 -16 80 -50 107 -75 118 -110 176 -341 114 -457 -28 -53 -32 -112 -11
-190 12 -47 13 -48 19 -20 3 16 26 65 52 108 65 114 97 201 103 278 6 87 -25
189 -118 388 -37 80 -82 189 -99 242 -59 178 -172 339 -391 558 -210 210 -438
391 -670 530 -146 89 -473 246 -817 394 -434 186 -464 194 -610 164z"/>
<path d="M2945 4869 c-36 -37 -37 -41 -15 -34 42 12 70 34 70 55 0 29 -11 25
-55 -21z"/>
<path d="M6893 4883 c-7 -2 -13 -9 -13 -15 0 -17 111 -158 144 -182 54 -40 55
-38 21 42 -48 110 -109 172 -152 155z"/>
<path d="M3220 4810 c-123 -21 -156 -44 -248 -171 -41 -56 -41 -56 1 -48 23 4
62 15 86 23 55 20 100 20 150 0 39 -15 43 -15 118 10 160 53 298 71 310 40 9
-24 -33 -60 -151 -128 -59 -33 -158 -101 -220 -151 -123 -97 -154 -137 -204
-261 -29 -72 -29 -72 2 -61 17 6 96 56 176 112 80 56 201 139 270 185 195 130
275 218 268 292 -2 27 -10 36 -44 53 -23 11 -57 34 -77 52 -55 48 -119 63
-266 62 -69 -1 -146 -5 -171 -9z"/>
<path d="M3134 4546 c-38 -17 -84 -71 -129 -153 -34 -62 -34 -62 7 -47 54 19
174 110 200 152 11 18 17 39 14 47 -7 19 -51 19 -92 1z"/>
<path d="M3996 3989 c-157 -21 -344 -84 -496 -166 -174 -94 -194 -117 -230
-259 -11 -41 -22 -79 -25 -84 -17 -27 43 5 142 76 143 103 304 170 478 201
107 18 292 13 400 -11 39 -9 102 -16 140 -16 136 0 246 -45 448 -183 200 -137
320 -262 352 -370 32 -109 104 -467 115 -569 6 -59 10 -158 9 -220 -1 -62 1
-123 5 -136 7 -21 10 -19 42 25 19 27 51 82 71 123 31 61 37 84 36 130 -3 78
-37 246 -82 402 -52 179 -53 182 -37 203 13 18 15 18 38 3 36 -24 71 -88 113
-208 51 -148 93 -314 105 -422 6 -51 16 -114 22 -140 11 -46 11 -46 59 55 27
55 54 124 60 153 12 52 11 55 -39 181 -28 70 -69 185 -92 255 -47 144 -69 180
-166 263 -38 33 -122 111 -187 173 -327 312 -577 458 -892 521 -121 24 -295
33 -389 20z"/>
<path d="M4391 3591 c-8 -13 -6 -33 3 -67 8 -27 17 -71 21 -97 5 -41 16 -59
61 -108 30 -33 71 -85 91 -116 54 -85 164 -317 238 -503 35 -89 72 -171 81
-181 37 -41 74 -13 74 55 0 88 -59 289 -131 445 -53 114 -71 178 -58 202 15
30 34 23 81 -29 102 -115 200 -390 200 -567 0 -61 -6 -97 -26 -152 -27 -75
-33 -150 -20 -246 7 -46 7 -46 27 -19 12 15 39 47 62 72 23 25 55 68 71 95 29
49 29 52 28 190 -1 102 -7 168 -23 243 -67 316 -152 459 -325 541 -48 23 -128
76 -196 130 -160 127 -234 159 -259 112z"/>
<path d="M3775 3583 c-92 -19 -208 -65 -270 -105 -40 -27 -54 -44 -72 -88 -21
-52 -30 -129 -17 -143 4 -3 15 5 26 18 26 34 166 101 263 126 60 16 113 22
210 23 112 1 146 -3 247 -28 195 -48 236 -21 136 89 -86 95 -170 125 -343 124
-60 0 -141 -7 -180 -16z"/>
<path d="M3778 3270 c-160 -18 -232 -53 -274 -132 -7 -14 -21 -34 -31 -43 -16
-16 -12 -17 63 -12 43 2 129 10 190 18 261 30 509 -53 652 -219 102 -118 184
-267 234 -427 52 -165 68 -222 68 -241 0 -14 4 -11 18 12 9 18 32 51 49 74 39
51 54 100 43 138 -11 39 -112 267 -161 364 -85 170 -184 297 -279 358 -128 82
-383 131 -572 110z"/>
<path d="M5727 3133 c-23 -22 39 -236 99 -340 68 -117 118 -51 79 102 -21 79
-70 183 -102 218 -25 25 -61 35 -76 20z"/>
<path d="M3762 2936 c-23 -21 -44 -47 -48 -59 -3 -12 -16 -33 -28 -46 -11 -13
-16 -21 -9 -17 16 9 231 -20 287 -39 164 -56 300 -205 387 -425 10 -25 18 -38
19 -29 0 9 13 33 29 53 16 20 34 59 41 86 11 45 10 54 -13 104 -56 122 -175
258 -279 319 -68 39 -188 76 -271 83 -74 7 -74 7 -115 -30z"/>
</g>
</svg>
