<?xml version="1.0" standalone="no"?>
<!DOCTYPE svg PUBLIC "-//W3C//DTD SVG 20010904//EN"
 "http://www.w3.org/TR/2001/REC-SVG-20010904/DTD/svg10.dtd">
<svg version="1.0" xmlns="http://www.w3.org/2000/svg"
 width="1000.000000pt" height="1000.000000pt" viewBox="0 0 1000.000000 1000.000000"
 preserveAspectRatio="xMidYMid meet">
<metadata>
  <rdf:RDF
    xmlns:rdf = "http://www.w3.org/1999/02/22-rdf-syntax-ns#"
    xmlns:rdfs = "http://www.w3.org/2000/01/rdf-schema#"
    xmlns:dc = "http://purl.org/dc/elements/1.1/"
    xmlns:cc = "http://creativecommons.org/ns#">
    <cc:license rdf:resource="http://creativecommons.org/publicdomain/zero/1.0/deed.en"/>
    <cc:permits rdf:resource="http://creativecommons.org/ns#Reproduction"/>
    <rdf:Description about="https://nft.mir.one/fingerprints"
      dc:title="TON Fingerprints"
      dc:description="This is a unique digital fingerprint created based on the algorithm for generating basic rings using a noise texture. Like human fingerprints, you can now use it for the Web3 and Metaverse era as digital biometric information."
      dc:publisher="https://nft.mir.one"
      dc:date="2022-02-22"
      dc:format="image/svg+xml"
      dc:language="en" >
      <dc:creator>
      <rdf:Bag>
        <rdf:li>EQBondcvD2_aOFADXSWJHs4ZazQDuEl9_wNvGGPxI8hGuOFU</rdf:li>
        <rdf:li>ipfs://bafkreihj7iub3fhmhq6jn62noukt5wxn3gv6bvcg7wmt6ywvlurefezckq</rdf:li>
      </rdf:Bag>
      </dc:creator>
    </rdf:Description>
  </rdf:RDF>
</metadata>
<g transform="translate(0.000000,1000.000000) scale(0.100000,-0.100000)"
fill="#1b1f23" stroke="none">
<path d="M4790 7761 c61 -55 185 -109 322 -141 195 -45 296 -95 463 -225 194
-152 554 -573 684 -799 45 -79 47 -106 9 -106 -42 0 -94 47 -228 206 -242 285
-409 445 -604 576 -108 72 -176 107 -411 211 -332 146 -555 230 -571 214 -2
-2 25 -25 61 -52 60 -43 88 -85 71 -102 -3 -3 -66 1 -139 10 -73 10 -166 17
-207 17 -75 0 -75 0 -35 -24 66 -40 239 -87 340 -92 119 -7 138 -14 285 -99
69 -40 202 -111 295 -158 404 -203 510 -292 1043 -871 86 -94 136 -189 182
-351 17 -60 74 -240 126 -400 148 -451 204 -685 204 -855 0 -102 -14 -153 -64
-235 -53 -87 -63 -132 -91 -400 -44 -431 -106 -736 -206 -1017 -67 -188 -129
-370 -129 -377 1 -9 85 123 163 253 166 280 289 622 337 933 12 78 25 227 29
341 6 162 11 206 23 218 37 38 86 -31 112 -159 28 -132 23 -213 -39 -642 -3
-21 -4 -37 -2 -35 9 10 110 386 123 458 50 285 -25 671 -282 1439 -113 341
-144 443 -144 485 0 61 10 81 36 76 30 -5 120 -225 301 -743 52 -148 112 -322
134 -386 21 -63 52 -144 69 -180 31 -64 31 -64 25 -19 -25 207 -52 349 -105
560 -73 295 -134 480 -201 618 -55 113 -102 173 -160 203 -51 26 -79 65 -145
204 -50 105 -57 128 -64 209 -12 131 -38 196 -150 366 -288 437 -564 683 -897
797 -63 21 -105 28 -223 34 -131 6 -249 28 -355 64 -13 4 -8 -4 15 -24z"/>
<path d="M3983 7397 c-91 -12 -91 -12 -40 -34 65 -28 306 -93 536 -144 196
-43 209 -45 235 -26 17 13 17 15 2 45 -26 50 -90 79 -268 123 -186 46 -311 56
-465 36z"/>
<path d="M6120 7358 c19 -57 62 -129 182 -308 133 -199 186 -299 249 -468 58
-154 115 -271 198 -402 64 -102 215 -396 259 -504 9 -22 17 -35 19 -30 7 20
-121 373 -204 564 -225 517 -331 700 -592 1020 -47 58 -94 117 -103 130 -18
25 -18 25 -8 -2z"/>
<path d="M3920 7213 c-46 -4 -203 -31 -230 -40 -34 -11 68 -44 360 -116 168
-42 393 -94 501 -116 260 -54 362 -91 523 -190 54 -33 75 -41 95 -36 75 19
100 17 163 -13 84 -39 166 -103 281 -217 258 -257 408 -484 540 -820 101 -256
151 -435 221 -783 24 -123 51 -234 60 -247 22 -33 60 -33 82 0 23 35 29 139
14 248 -17 127 -86 397 -160 623 -131 397 -201 563 -298 699 -139 196 -438
501 -592 604 -129 86 -471 248 -636 301 -72 23 -72 23 -143 0 -58 -18 -82 -21
-138 -16 -71 8 -219 38 -413 86 -134 33 -169 38 -230 33z"/>
<path d="M3655 6989 c-97 -13 -171 -26 -155 -28 30 -2 136 -59 166 -89 22 -20
49 -34 85 -41 427 -89 549 -120 736 -191 226 -85 364 -181 577 -400 265 -274
460 -537 586 -793 132 -266 195 -517 129 -517 -26 0 -49 40 -110 195 -150 381
-388 720 -748 1067 -228 220 -461 343 -816 432 -301 76 -483 74 -718 -7 -126
-44 -126 -44 -89 -56 20 -7 129 -16 242 -21 253 -11 295 -16 445 -47 299 -62
550 -178 756 -349 83 -70 346 -355 484 -526 142 -177 242 -344 320 -538 26
-63 75 -169 110 -235 99 -189 140 -349 99 -389 -8 -9 -21 -16 -28 -16 -15 0
-116 119 -170 202 -31 47 -40 70 -46 130 -11 100 -62 275 -105 367 -73 154
-204 327 -410 541 -61 63 -144 158 -186 210 -120 150 -207 223 -382 315 -262
139 -612 221 -967 226 -93 1 -139 -12 -246 -73 -58 -32 -58 -32 -28 -40 16 -4
110 -12 209 -18 201 -11 365 -31 500 -61 352 -78 785 -308 785 -417 0 -33 -41
-20 -218 71 -103 52 -234 114 -292 137 -219 87 -481 142 -750 156 -125 6 -125
6 -190 -28 -36 -19 -93 -56 -125 -83 -60 -48 -60 -48 35 -39 150 14 411 9 520
-10 228 -41 365 -86 662 -217 98 -43 230 -94 294 -113 88 -26 133 -45 183 -80
246 -167 587 -581 542 -655 -14 -22 -42 1 -174 147 -181 199 -336 332 -480
411 -65 35 -301 138 -662 287 -215 88 -445 134 -677 134 -127 0 -187 -20 -213
-70 -19 -37 -11 -41 74 -47 447 -27 611 -60 777 -156 43 -26 158 -78 254 -117
385 -156 508 -233 833 -523 65 -58 146 -120 180 -137 70 -37 157 -115 157
-142 0 -9 -9 -22 -20 -28 -46 -25 -178 53 -410 244 -182 150 -355 268 -489
335 -123 62 -304 134 -406 162 -73 20 -87 21 -161 10 -44 -6 -102 -11 -130
-12 -69 0 -119 -19 -119 -44 0 -29 35 -42 210 -76 367 -70 677 -218 986 -466
374 -301 447 -362 493 -408 62 -62 86 -108 86 -167 0 -25 11 -82 25 -129 38
-126 47 -196 35 -276 -15 -94 -28 -267 -35 -467 -5 -168 -5 -168 22 -161 62
15 103 79 133 207 30 131 43 277 38 442 -6 200 -24 252 -133 402 -15 20 -14
23 1 39 22 21 79 14 144 -18 36 -18 50 -33 72 -77 56 -114 77 -429 43 -653
-21 -140 -54 -252 -119 -407 -29 -69 -77 -192 -106 -275 -75 -215 -114 -312
-187 -465 -36 -74 -73 -161 -83 -192 -18 -57 -18 -57 61 14 202 184 251 260
396 618 186 460 245 718 244 1070 -1 91 0 199 1 240 1 46 -12 172 -35 324 -29
195 -37 280 -37 390 -1 220 -41 369 -175 641 -113 230 -277 462 -492 695 -43
47 -124 138 -181 202 -57 65 -131 138 -165 164 -77 57 -212 122 -342 164 -135
43 -804 210 -835 209 -14 -1 -52 -5 -85 -10z m2294 -2833 c9 -10 9 -16 1 -21
-12 -7 -40 11 -40 26 0 14 26 10 39 -5z"/>
<path d="M3535 6825 c-89 -25 -149 -51 -135 -60 18 -11 158 -7 197 6 18 6 38
19 43 30 9 16 7 21 -15 29 -31 12 -28 12 -90 -5z"/>
<path d="M5150 6637 c0 -57 32 -106 151 -232 256 -270 398 -459 522 -695 130
-246 202 -476 247 -790 16 -113 40 -263 54 -335 49 -251 55 -378 35 -670 -30
-442 -145 -839 -381 -1309 -39 -78 -84 -172 -99 -211 -28 -70 -28 -70 52 15
262 279 352 417 444 680 125 360 195 784 199 1200 1 175 1 175 -47 292 -37 92
-56 160 -87 320 -76 383 -150 617 -277 877 -122 247 -286 465 -517 688 -118
114 -252 213 -286 213 -6 0 -10 -19 -10 -43z"/>
<path d="M3082 5735 c-18 -8 -50 -28 -70 -45 -20 -16 -43 -30 -52 -30 -30 -1
68 -32 160 -51 247 -49 371 -63 578 -64 216 0 234 4 210 48 -22 42 -119 65
-433 102 -121 14 -245 32 -275 40 -67 18 -76 18 -118 0z"/>
<path d="M3073 5459 c-23 -11 -66 -42 -96 -68 -54 -48 -54 -48 -10 -59 24 -7
67 -12 96 -12 75 0 209 -18 307 -41 101 -23 179 -55 450 -184 287 -136 328
-152 438 -180 120 -31 270 -104 382 -186 111 -82 254 -225 315 -318 70 -106
92 -177 110 -346 9 -84 29 -199 49 -277 74 -285 100 -484 101 -748 0 -167 -3
-217 -18 -270 -28 -102 -128 -295 -204 -394 -37 -48 -72 -95 -78 -104 -5 -9
-21 -34 -34 -56 -23 -39 -23 -39 5 -19 16 11 58 35 94 53 80 39 199 129 235
176 74 96 161 341 209 588 52 261 51 238 15 258 -46 27 -68 89 -90 261 -25
204 -24 198 -79 312 -58 118 -77 211 -58 272 9 27 19 38 33 38 16 0 24 -16 47
-103 41 -153 69 -195 105 -160 16 17 20 94 7 152 -12 56 -52 123 -94 156 -25
19 -53 57 -72 94 -49 96 -105 174 -198 270 -156 162 -375 332 -542 420 -98 52
-349 152 -575 230 -196 67 -231 84 -275 135 -39 46 -74 57 -303 95 -234 38
-226 38 -272 15z"/>
<path d="M3040 5162 c-25 -16 -63 -48 -85 -71 -21 -22 -46 -41 -54 -41 -8 0
-12 -3 -9 -6 4 -3 84 -9 180 -14 285 -14 448 -70 657 -225 210 -157 327 -306
477 -608 138 -278 160 -375 126 -542 -12 -55 -26 -138 -32 -185 -39 -293 -130
-563 -251 -741 -64 -94 -103 -173 -81 -164 9 4 43 13 75 21 125 30 159 62 231
215 103 220 151 410 167 659 13 207 14 212 41 208 27 -4 55 -57 69 -134 14
-75 6 -254 -16 -359 -35 -169 -149 -468 -225 -590 -24 -38 -60 -100 -81 -137
-32 -58 -34 -65 -15 -53 13 8 47 22 77 31 87 26 168 71 190 107 10 18 29 64
40 102 11 39 49 153 84 255 77 220 92 275 106 397 21 173 -14 330 -109 483
-32 52 -82 140 -111 195 -30 55 -89 165 -132 245 -43 80 -96 189 -118 242 -51
125 -159 305 -212 353 -104 93 -414 264 -579 318 -88 29 -207 53 -300 62 -60
6 -68 4 -110 -23z"/>
<path d="M3064 4896 c-17 -8 -57 -40 -88 -72 -55 -56 -56 -59 -34 -67 13 -5
61 -6 108 -2 93 7 240 -7 335 -31 78 -20 175 -64 175 -78 0 -40 -52 -44 -225
-21 -152 20 -223 19 -260 -3 -17 -11 -54 -47 -84 -80 -53 -62 -53 -62 -9 -62
23 0 81 5 128 10 95 11 273 -1 399 -26 187 -38 355 -182 461 -394 77 -154 95
-258 61 -369 -12 -39 -26 -119 -31 -178 -26 -282 -56 -373 -227 -697 -18 -33
-33 -64 -33 -68 0 -3 12 -3 28 2 15 5 50 13 77 20 83 18 115 47 162 141 86
174 126 312 168 584 46 292 30 425 -75 637 -96 192 -201 322 -367 455 -51 41
-100 87 -108 102 -24 47 -102 108 -178 140 -123 50 -328 81 -383 57z"/>
<path d="M4231 4786 c-37 -44 36 -129 167 -192 80 -39 111 -62 178 -128 127
-127 255 -338 258 -423 2 -84 -56 -35 -176 146 -149 224 -241 326 -291 319
-30 -4 -33 -37 -7 -89 30 -58 241 -391 328 -518 117 -170 164 -323 165 -536 0
-157 -15 -216 -113 -445 -93 -218 -112 -283 -87 -307 37 -38 95 29 203 235 26
52 72 121 101 155 29 33 58 77 64 96 6 20 13 92 16 161 6 155 -12 291 -69 509
-37 147 -40 162 -34 251 5 70 3 110 -9 153 -56 213 -266 441 -531 576 -96 49
-144 60 -163 37z"/>
<path d="M3112 4359 c-18 -12 -51 -47 -73 -78 -40 -56 -40 -56 -14 -59 15 -2
64 1 109 7 144 19 298 -15 418 -92 71 -46 185 -168 228 -245 97 -174 124 -204
158 -170 46 46 -37 270 -153 411 -127 154 -296 231 -530 243 -101 5 -113 4
-143 -17z"/>
<path d="M3161 4098 c-19 -12 -50 -44 -69 -70 -34 -48 -34 -48 70 -47 121 1
187 -19 269 -81 98 -73 181 -201 214 -330 32 -122 8 -306 -56 -433 -11 -21
-28 -64 -38 -96 -18 -58 -18 -58 8 -50 14 4 52 13 83 19 76 15 99 36 131 117
53 139 62 182 62 313 0 125 0 125 -44 210 -155 304 -319 447 -536 466 -52 5
-65 3 -94 -18z"/>
<path d="M3223 3850 c-11 -5 -41 -24 -66 -43 -45 -35 -45 -35 -5 -40 84 -11
168 -96 188 -191 10 -51 1 -196 -15 -238 -6 -16 0 -18 54 -18 72 0 118 20 131
56 14 37 12 141 -4 201 -31 115 -109 223 -189 262 -47 23 -61 24 -94 11z"/>
<path d="M5032 2944 c-13 -9 -48 -66 -78 -127 -83 -166 -130 -227 -224 -289
-78 -53 -164 -144 -209 -222 -19 -34 -20 -38 -4 -31 10 3 52 18 93 31 138 45
234 98 282 156 87 103 152 217 182 317 34 114 11 202 -42 165z"/>
</g>
</svg>
