<?xml version="1.0" standalone="no"?>
<!DOCTYPE svg PUBLIC "-//W3C//DTD SVG 20010904//EN"
 "http://www.w3.org/TR/2001/REC-SVG-20010904/DTD/svg10.dtd">
<svg version="1.0" xmlns="http://www.w3.org/2000/svg"
 width="1000.000000pt" height="1000.000000pt" viewBox="0 0 1000.000000 1000.000000"
 preserveAspectRatio="xMidYMid meet">
<metadata>
  <rdf:RDF
    xmlns:rdf = "http://www.w3.org/1999/02/22-rdf-syntax-ns#"
    xmlns:rdfs = "http://www.w3.org/2000/01/rdf-schema#"
    xmlns:dc = "http://purl.org/dc/elements/1.1/"
    xmlns:cc = "http://creativecommons.org/ns#">
    <cc:license rdf:resource="http://creativecommons.org/publicdomain/zero/1.0/deed.en"/>
    <cc:permits rdf:resource="http://creativecommons.org/ns#Reproduction"/>
    <rdf:Description about="https://nft.mir.one/fingerprints"
      dc:title="TON Fingerprints"
      dc:description="This is a unique digital fingerprint created based on the algorithm for generating basic rings using a noise texture. Like human fingerprints, you can now use it for the Web3 and Metaverse era as digital biometric information."
      dc:publisher="https://nft.mir.one"
      dc:date="2022-02-22"
      dc:format="image/svg+xml"
      dc:language="en" >
      <dc:creator>
      <rdf:Bag>
        <rdf:li>EQBondcvD2_aOFADXSWJHs4ZazQDuEl9_wNvGGPxI8hGuOFU</rdf:li>
        <rdf:li>ipfs://bafkreihj7iub3fhmhq6jn62noukt5wxn3gv6bvcg7wmt6ywvlurefezckq</rdf:li>
      </rdf:Bag>
      </dc:creator>
    </rdf:Description>
  </rdf:RDF>
</metadata>
<g transform="translate(0.000000,1000.000000) scale(0.100000,-0.100000)"
fill="#1b1f23" stroke="none">
<path d="M5132 7757 c35 -35 99 -95 143 -133 331 -282 527 -499 811 -895 76
-107 186 -257 245 -334 123 -161 162 -224 179 -281 13 -45 2 -84 -24 -84 -15
0 -141 136 -228 245 -30 39 -110 149 -178 245 -306 436 -454 604 -822 936
-179 162 -258 209 -460 275 -67 21 -123 39 -126 39 -15 0 52 -58 118 -103 96
-65 169 -134 225 -213 28 -39 102 -111 202 -197 87 -74 219 -197 294 -273 200
-205 304 -340 494 -644 142 -227 189 -282 278 -324 40 -20 102 -43 137 -52 84
-21 100 -31 162 -110 33 -42 70 -76 104 -95 108 -61 157 -143 240 -396 48
-146 82 -226 116 -275 10 -14 9 -22 -8 -45 -27 -37 -66 -42 -86 -11 -22 33
-79 170 -139 333 -62 167 -102 255 -136 295 -49 59 -90 26 -79 -63 11 -78 151
-469 222 -616 75 -157 87 -211 74 -359 -9 -97 -46 -391 -96 -752 -14 -102 -28
-223 -30 -270 -2 -47 -6 -98 -9 -115 -8 -56 55 149 100 320 45 171 123 543
150 711 8 50 22 166 30 256 14 160 46 313 70 330 6 5 5 8 -2 8 -7 0 -13 7 -13
15 0 9 -6 12 -15 9 -21 -9 -39 40 -59 161 -40 238 -90 392 -201 620 -117 240
-250 447 -388 608 -86 98 -139 170 -237 317 -325 490 -537 688 -963 902 -159
79 -159 79 -95 15z"/>
<path d="M4340 7629 c60 -45 477 -248 515 -251 91 -6 68 65 -44 141 -97 66
-214 104 -381 122 -52 5 -104 13 -115 16 -11 3 0 -9 25 -28z"/>
<path d="M5780 7604 c26 -36 102 -133 175 -223 145 -177 231 -302 385 -557 63
-106 136 -190 213 -247 20 -16 73 -81 116 -146 93 -138 124 -171 180 -193 41
-16 41 -16 -4 35 -59 68 -191 326 -200 393 -4 27 -10 60 -15 74 -7 22 -9 20
-9 -15 -1 -65 -39 -85 -78 -42 -12 12 -67 99 -124 192 -120 201 -192 298 -315
432 -88 95 -354 339 -324 297z"/>
<path d="M4062 7452 c-123 -15 -123 -15 -75 -34 26 -11 102 -34 168 -53 204
-57 595 -208 755 -291 229 -120 502 -366 703 -632 100 -133 145 -252 102 -268
-21 -9 -32 2 -165 161 -227 270 -387 422 -580 551 -221 147 -708 342 -901 361
-83 8 -214 -19 -399 -83 -27 -10 59 -32 169 -44 266 -28 446 -71 654 -155 323
-133 516 -271 835 -602 182 -188 231 -231 352 -303 86 -51 154 -169 386 -667
96 -207 200 -422 230 -479 55 -106 66 -152 40 -173 -50 -41 -140 93 -393 584
-227 439 -260 491 -452 690 -70 72 -188 197 -264 278 -230 244 -424 393 -672
513 -233 113 -416 161 -655 171 -138 5 -149 4 -223 -21 -43 -14 -113 -44 -157
-66 -44 -22 -88 -40 -97 -40 -10 0 1 -9 24 -20 26 -11 89 -23 162 -31 104 -10
132 -10 209 5 237 43 448 1 712 -141 300 -162 486 -333 811 -748 206 -263 262
-349 477 -730 180 -321 263 -444 362 -541 97 -94 120 -128 148 -214 34 -108
44 -168 49 -326 12 -320 -45 -606 -173 -874 -141 -294 -292 -464 -624 -698
-150 -106 -285 -215 -339 -274 -43 -47 -43 -47 110 39 85 47 223 123 307 169
182 99 263 152 357 233 119 104 263 276 354 424 185 303 238 555 268 1267 8
212 17 426 20 475 6 117 -4 165 -92 435 -40 124 -86 270 -101 324 -39 139
-100 226 -191 275 -17 8 -28 9 -43 1 -33 -17 -25 -71 29 -199 61 -145 140
-356 197 -526 66 -200 75 -296 26 -303 -27 -4 -32 5 -158 318 -56 140 -130
322 -163 405 -34 82 -73 190 -87 240 -14 49 -59 158 -99 240 -40 83 -91 188
-113 235 -122 257 -414 593 -710 815 -118 88 -180 119 -297 148 -55 14 -181
59 -280 101 -236 101 -279 108 -513 78z"/>
<path d="M3916 6706 c-51 -14 -76 -36 -76 -67 0 -25 81 -130 131 -171 24 -19
112 -80 194 -136 174 -117 290 -208 454 -356 167 -150 185 -163 288 -213 80
-39 104 -56 172 -129 88 -94 215 -268 320 -437 370 -598 442 -729 499 -902 80
-247 96 -466 48 -658 -52 -208 -153 -422 -285 -607 -74 -104 -227 -272 -380
-417 -137 -130 -287 -294 -341 -373 -40 -58 -40 -58 37 -12 210 126 557 406
749 604 335 346 506 824 455 1267 -25 208 -68 313 -248 601 -61 96 -165 270
-233 385 -158 271 -247 409 -365 570 -52 72 -116 164 -142 205 -118 189 -164
252 -253 344 -334 346 -788 568 -1024 502z m179 -103 c236 -74 627 -344 802
-555 88 -106 111 -160 79 -187 -17 -14 -40 3 -186 144 -230 221 -371 323 -709
516 -101 58 -127 83 -101 99 16 10 38 7 115 -17z"/>
<path d="M3420 6617 c-30 -13 -82 -37 -115 -54 -60 -31 -60 -31 -21 -47 21 -9
48 -16 61 -16 45 0 183 -42 261 -79 88 -42 371 -229 528 -350 127 -97 240
-208 346 -341 46 -58 134 -159 195 -225 62 -66 141 -156 177 -200 120 -151
235 -355 290 -518 28 -84 30 -100 24 -177 -3 -47 -10 -164 -16 -260 -11 -196
-23 -250 -79 -383 -22 -50 -62 -155 -91 -232 -129 -351 -303 -628 -495 -785
-72 -59 -99 -97 -85 -120 7 -12 20 -12 82 -2 92 16 136 42 224 134 187 194
328 442 425 750 48 152 71 203 96 212 72 28 45 -230 -48 -463 -71 -179 -198
-377 -358 -561 -56 -63 -132 -156 -171 -207 -69 -90 -145 -159 -265 -240 -33
-23 -71 -53 -85 -68 -29 -31 -44 -32 130 11 145 37 182 59 306 186 280 288
490 570 582 783 94 218 112 393 63 625 -20 98 -51 347 -58 480 -4 60 -2 79 10
89 57 47 152 -145 193 -389 13 -80 16 -136 11 -240 -3 -74 -2 -168 3 -209 24
-218 -100 -502 -357 -816 -138 -169 -373 -422 -463 -500 -105 -90 -175 -159
-153 -150 10 3 54 18 98 32 44 14 120 45 168 70 84 44 97 55 297 267 388 411
474 539 619 928 80 213 89 259 67 338 -9 30 -32 120 -51 200 -73 297 -124 416
-260 605 -47 66 -129 194 -182 285 -193 332 -321 498 -509 660 -61 52 -185
166 -277 252 -191 180 -252 230 -484 396 -92 66 -210 159 -262 206 -152 138
-255 173 -371 123z m2284 -2753 c12 -32 6 -82 -14 -105 -17 -21 -21 -22 -30
-9 -16 24 -12 91 7 112 20 22 29 23 37 2z"/>
<path d="M3289 6345 c-19 -7 -54 -22 -77 -34 -23 -11 -52 -21 -64 -22 -13 0
13 -12 57 -25 264 -82 323 -104 442 -164 149 -76 359 -212 445 -290 32 -28 93
-92 135 -142 61 -73 74 -94 66 -107 -29 -46 -107 -14 -162 68 -49 71 -121 132
-263 220 -142 89 -285 160 -440 221 -122 48 -138 52 -193 47 -33 -3 -85 -16
-116 -29 -57 -24 -57 -24 -25 -44 17 -12 76 -36 131 -54 243 -80 487 -191 725
-331 116 -68 146 -92 136 -108 -10 -15 -76 -14 -124 3 -22 8 -120 53 -218 99
-294 140 -522 223 -579 213 -16 -4 -63 -25 -104 -47 -75 -42 -75 -42 -40 -59
19 -9 79 -27 134 -40 138 -31 325 -97 552 -196 106 -46 254 -102 329 -124 214
-64 307 -120 438 -261 152 -165 257 -375 297 -599 23 -126 16 -352 -15 -503
-52 -254 -159 -517 -292 -720 -152 -232 -300 -410 -484 -584 -57 -53 -129
-148 -89 -117 8 7 57 24 109 39 52 14 113 37 135 50 69 41 151 122 193 192 22
37 81 117 131 176 168 199 269 369 364 612 107 271 152 457 163 670 20 393
-103 677 -454 1046 -133 140 -137 146 -152 215 -16 72 -53 129 -149 228 -179
184 -540 419 -755 491 -82 28 -133 30 -187 10z"/>
<path d="M3065 5569 c-22 -12 -56 -35 -75 -50 -19 -16 -41 -29 -50 -30 -34 -1
72 -32 172 -50 243 -42 591 -187 850 -352 375 -240 545 -679 448 -1155 -68
-338 -245 -651 -536 -952 -102 -106 -192 -219 -158 -197 6 3 46 13 89 22 105
22 140 41 213 119 302 324 502 688 579 1055 35 168 37 398 5 537 -50 219 -137
379 -292 534 -128 128 -190 166 -486 296 -279 122 -421 178 -553 215 -125 35
-154 36 -206 8z"/>
<path d="M3028 5281 c-25 -16 -49 -34 -53 -41 -4 -6 -21 -20 -37 -30 -31 -18
-31 -18 22 -34 30 -9 66 -16 81 -16 80 0 236 -47 358 -109 318 -160 532 -355
632 -577 64 -140 92 -343 70 -506 -40 -299 -181 -567 -431 -818 -52 -52 -104
-109 -115 -125 -21 -30 -21 -30 54 -27 120 5 148 19 242 127 126 143 202 256
279 410 116 234 154 383 154 610 0 143 -9 209 -46 325 -68 212 -219 402 -439
549 -175 117 -418 226 -615 276 -85 21 -103 19 -156 -14z"/>
<path d="M3045 5011 c-22 -10 -61 -39 -86 -64 -45 -45 -45 -45 -9 -56 21 -6
64 -11 96 -11 70 0 180 -22 224 -45 67 -34 9 -73 -110 -74 -76 -1 -111 -18
-161 -81 -19 -24 -44 -53 -55 -66 -22 -23 -22 -23 40 -29 44 -5 105 0 204 15
113 17 151 19 196 11 82 -15 154 -56 226 -130 200 -203 237 -525 96 -816 -56
-115 -118 -195 -247 -320 -104 -100 -104 -100 -34 -108 116 -13 152 -4 209 56
128 135 251 346 295 507 107 391 -30 754 -364 966 -42 27 -104 69 -137 94
-144 109 -166 122 -228 140 -103 30 -113 30 -155 11z"/>
<path d="M3252 4468 c-25 -25 -12 -58 51 -129 150 -172 177 -221 185 -329 10
-140 -46 -267 -175 -398 -46 -46 -81 -87 -78 -91 2 -4 35 -13 73 -21 98 -18
127 -7 192 78 100 130 150 268 150 419 0 154 -48 279 -147 380 -80 83 -212
130 -251 91z"/>
<path d="M3054 4264 c-70 -47 -70 -47 -22 -59 38 -9 47 -8 73 10 40 27 45 36
34 57 -13 25 -39 23 -85 -8z"/>
<path d="M3276 4088 c-9 -13 -25 -50 -35 -81 -20 -58 -114 -196 -135 -198 -27
-1 93 -28 129 -29 54 0 78 18 105 82 31 72 37 162 13 208 -22 43 -55 51 -77
18z"/>
<path d="M4440 2741 c-66 -21 -124 -52 -250 -131 -52 -33 -111 -69 -130 -80
-35 -20 -35 -20 55 -14 104 7 202 27 248 50 66 35 177 124 183 148 12 50 -14
57 -106 27z"/>
</g>
</svg>
