<?xml version="1.0" standalone="no"?>
<!DOCTYPE svg PUBLIC "-//W3C//DTD SVG 20010904//EN"
 "http://www.w3.org/TR/2001/REC-SVG-20010904/DTD/svg10.dtd">
<svg version="1.0" xmlns="http://www.w3.org/2000/svg"
 width="1000.000000pt" height="1000.000000pt" viewBox="0 0 1000.000000 1000.000000"
 preserveAspectRatio="xMidYMid meet">
<metadata>
  <rdf:RDF
    xmlns:rdf = "http://www.w3.org/1999/02/22-rdf-syntax-ns#"
    xmlns:rdfs = "http://www.w3.org/2000/01/rdf-schema#"
    xmlns:dc = "http://purl.org/dc/elements/1.1/"
    xmlns:cc = "http://creativecommons.org/ns#">
    <cc:license rdf:resource="http://creativecommons.org/publicdomain/zero/1.0/deed.en"/>
    <cc:permits rdf:resource="http://creativecommons.org/ns#Reproduction"/>
    <rdf:Description about="https://nft.mir.one/fingerprints"
      dc:title="TON Fingerprints"
      dc:description="This is a unique digital fingerprint created based on the algorithm for generating basic rings using a noise texture. Like human fingerprints, you can now use it for the Web3 and Metaverse era as digital biometric information."
      dc:publisher="https://nft.mir.one"
      dc:date="2022-02-22"
      dc:format="image/svg+xml"
      dc:language="en" >
      <dc:creator>
      <rdf:Bag>
        <rdf:li>EQBondcvD2_aOFADXSWJHs4ZazQDuEl9_wNvGGPxI8hGuOFU</rdf:li>
        <rdf:li>ipfs://bafkreihj7iub3fhmhq6jn62noukt5wxn3gv6bvcg7wmt6ywvlurefezckq</rdf:li>
      </rdf:Bag>
      </dc:creator>
    </rdf:Description>
  </rdf:RDF>
</metadata>
<g transform="translate(0.000000,1000.000000) scale(0.100000,-0.100000)"
fill="#1b1f23" stroke="none">
<path d="M5110 7760 c-541 -23 -989 -210 -1335 -555 -307 -306 -586 -792 -698
-1215 -28 -107 -31 -130 -35 -329 -6 -314 13 -464 93 -726 107 -351 247 -624
456 -886 142 -179 345 -343 543 -439 193 -94 318 -119 606 -120 96 0 209 -5
250 -10 175 -23 393 37 785 218 72 33 143 62 159 65 34 6 76 -7 76 -23 0 -14
-52 -62 -115 -105 -78 -54 -485 -209 -645 -246 -92 -21 -452 -43 -720 -43
-138 0 -150 1 -245 33 -187 63 -287 121 -513 303 -279 224 -460 440 -612 731
-66 127 -83 167 -150 357 -63 177 -99 269 -99 250 -1 -8 8 -71 19 -140 60
-390 157 -687 295 -902 60 -93 213 -243 340 -333 157 -111 192 -141 229 -199
19 -30 55 -68 79 -85 69 -47 229 -123 418 -197 114 -45 197 -84 251 -120 173
-116 330 -129 684 -59 344 69 620 225 704 400 13 28 46 85 72 129 53 88 63
125 54 196 -6 46 -3 55 44 137 109 192 143 342 142 618 -2 474 -111 784 -367
1041 -137 139 -366 316 -467 364 -139 65 -235 84 -423 85 -180 0 -246 -12
-374 -71 -67 -31 -76 -33 -90 -19 -37 36 49 121 167 165 202 76 492 69 748
-16 131 -44 172 -69 193 -117 23 -50 63 -89 199 -192 356 -266 502 -560 557
-1120 24 -238 17 -412 -23 -565 -30 -115 -136 -398 -187 -501 -183 -364 -489
-570 -978 -659 -62 -11 -163 -30 -225 -42 -177 -33 -280 -14 -507 92 -49 23
-169 77 -265 120 -96 43 -223 101 -281 128 -58 27 -152 67 -208 87 -141 52
-203 97 -174 126 10 10 28 9 80 0 76 -15 114 -12 121 7 8 24 -64 78 -151 111
-113 44 -191 96 -308 206 -52 49 -119 107 -147 127 -53 38 -53 38 47 -110 55
-81 132 -188 171 -237 40 -50 89 -120 111 -156 100 -172 289 -287 959 -584
264 -117 361 -164 475 -230 134 -77 311 -84 556 -21 328 84 550 210 839 477
52 48 120 106 151 128 66 47 108 105 145 204 37 96 166 375 197 424 23 36 60
72 119 115 23 17 23 17 -2 18 -14 0 -34 7 -44 15 -75 57 -147 -35 -310 -398
-46 -102 -93 -199 -106 -217 -33 -46 -349 -307 -460 -380 -223 -146 -499 -246
-743 -269 -154 -15 -287 10 -287 54 0 25 38 36 168 51 417 47 736 188 1007
446 146 138 246 295 364 574 64 151 86 239 107 419 16 144 16 144 -10 246 -15
56 -36 181 -47 278 -36 318 -78 474 -175 661 -132 254 -291 404 -581 549 -68
34 -123 65 -123 71 0 15 36 30 74 30 41 0 184 -49 280 -96 306 -151 541 -501
616 -916 11 -61 25 -194 31 -296 11 -198 17 -225 48 -242 85 -45 128 291 76
595 -66 385 -270 725 -556 927 -67 48 -104 62 -182 73 -27 3 -85 18 -130 31
-75 23 -175 49 -505 135 -157 40 -311 53 -472 39 -259 -22 -397 -78 -548 -224
-148 -143 -295 -333 -368 -478 -117 -231 -121 -482 -11 -693 39 -74 170 -207
250 -254 195 -115 468 -161 661 -111 158 40 292 133 363 252 52 86 98 308 79
383 -9 35 -81 112 -128 136 -157 80 -362 6 -412 -150 -9 -25 -18 -70 -22 -99
-8 -65 -34 -103 -57 -84 -23 20 -40 107 -33 169 14 116 91 218 211 276 230
113 383 74 611 -158 79 -79 110 -119 138 -176 71 -145 72 -308 2 -454 -81
-168 -293 -350 -522 -448 -181 -78 -293 -106 -449 -113 -233 -12 -399 38 -695
211 -129 75 -184 74 -166 -3 10 -40 149 -169 242 -224 105 -63 232 -114 346
-139 76 -17 119 -20 233 -17 138 4 142 5 291 56 354 120 471 189 763 447 124
110 151 150 171 253 16 79 8 276 -14 357 -53 193 -201 394 -389 526 -92 65
-161 99 -267 134 -47 15 -119 43 -160 63 -71 34 -81 36 -170 35 -171 -2 -351
-67 -442 -160 -60 -62 -113 -151 -138 -232 -27 -85 -27 -217 0 -303 35 -113
129 -218 183 -204 36 9 39 30 16 94 -42 115 -49 147 -49 227 0 222 142 387
387 450 69 18 174 17 180 -2 7 -20 -35 -49 -120 -82 -150 -59 -235 -130 -290
-241 -29 -58 -32 -74 -32 -155 0 -78 4 -98 27 -145 29 -59 68 -90 112 -90 15
0 45 -9 68 -21 64 -33 143 -36 198 -7 49 25 90 77 90 115 0 13 -11 35 -25 49
-25 25 -27 25 -51 9 -33 -21 -54 -13 -54 22 0 83 119 121 194 62 66 -52 79
-157 32 -253 -84 -171 -309 -242 -556 -176 -20 5 -74 17 -120 26 -106 20 -167
52 -235 126 -83 90 -134 223 -135 351 0 174 93 381 234 521 83 81 113 95 207
95 41 0 107 7 147 15 121 26 227 30 327 13 195 -35 352 -103 515 -226 271
-204 418 -425 477 -720 19 -97 22 -362 5 -556 -17 -193 -71 -297 -204 -396
-91 -67 -311 -181 -453 -234 -234 -87 -422 -112 -399 -51 9 23 17 27 200 91
288 102 499 219 611 338 72 78 105 143 101 201 -3 37 -6 41 -32 44 -25 3 -43
-11 -140 -106 -160 -158 -282 -233 -570 -352 -77 -32 -179 -76 -226 -98 -108
-50 -165 -62 -296 -62 -243 0 -480 84 -692 247 -106 81 -165 153 -229 278 -31
60 -85 157 -121 215 -125 202 -215 421 -246 605 -21 119 -20 167 3 196 66 85
81 159 91 444 9 239 17 294 64 419 84 223 259 459 431 581 82 59 433 256 583
328 228 109 483 179 778 213 172 20 533 14 694 -11 113 -17 343 -71 373 -87
10 -5 21 -8 23 -5 8 8 -161 116 -227 146 -109 49 -310 109 -403 121 -179 22
-580 -17 -851 -84 -248 -61 -421 -132 -697 -284 -150 -83 -210 -108 -335 -141
-146 -39 -429 -419 -533 -716 -71 -202 -85 -332 -68 -605 17 -280 17 -284 -8
-288 -30 -4 -70 47 -89 112 -27 91 -55 317 -55 436 1 190 48 355 170 595 80
158 181 317 309 490 53 72 121 163 150 202 208 285 697 527 1231 609 63 10
185 30 270 45 174 31 166 32 -140 19z m720 -4328 c0 -39 -119 -125 -266 -193
-152 -70 -335 -118 -539 -140 -216 -23 -430 11 -409 66 11 27 64 36 258 45
344 16 506 56 797 195 101 48 159 58 159 27z"/>
<path d="M5130 7594 c-14 -2 -65 -9 -115 -15 -208 -26 -492 -113 -710 -219
-264 -129 -476 -305 -449 -374 16 -41 63 -25 234 83 237 150 526 273 785 334
248 59 559 97 814 98 86 0 176 4 201 7 44 7 43 8 -85 40 -71 18 -164 36 -205
42 -70 9 -415 12 -470 4z"/>
<path d="M5400 7094 c-19 -2 -78 -9 -130 -14 -239 -26 -496 -98 -676 -188
-305 -153 -588 -343 -714 -480 -227 -245 -362 -591 -282 -725 12 -21 22 -48
22 -59 0 -12 -17 -103 -37 -202 -32 -159 -37 -198 -37 -321 1 -123 4 -151 28
-228 51 -169 145 -332 238 -412 63 -54 489 -258 608 -290 118 -33 302 -44 418
-25 167 26 351 103 484 201 192 143 298 350 269 528 -11 70 -43 136 -73 152
-18 10 -24 8 -40 -11 -14 -17 -18 -40 -18 -94 0 -156 -53 -281 -164 -392 -152
-151 -346 -225 -586 -225 -222 1 -433 75 -646 227 -183 129 -290 334 -301 574
-10 222 38 365 209 617 257 380 466 550 739 597 245 42 530 45 684 7 85 -21
405 -131 544 -187 125 -50 176 -44 145 17 -25 50 -126 106 -356 198 -59 24
-133 61 -164 83 -82 57 -148 71 -334 70 -85 0 -216 -8 -290 -17 -98 -13 -168
-15 -255 -11 -120 7 -120 7 -205 -34 -251 -122 -444 -308 -627 -605 -33 -55
-78 -117 -99 -137 -38 -39 -80 -50 -90 -25 -7 19 46 150 111 275 131 251 281
407 577 598 75 49 181 119 235 156 109 75 203 117 338 154 226 62 574 95 794
76 276 -24 447 -80 656 -216 164 -107 437 -362 450 -421 11 -48 13 -52 14 -19
2 61 -187 328 -345 488 -193 195 -299 251 -560 296 -114 20 -442 35 -534 24z"/>
<path d="M5370 6814 c-19 -2 -80 -9 -135 -15 -328 -34 -585 -126 -585 -208 0
-34 40 -34 192 -3 189 40 268 50 483 61 99 6 222 15 273 22 157 21 331 -14
506 -101 106 -54 188 -110 336 -230 69 -56 184 -146 256 -200 72 -54 138 -107
145 -118 8 -10 47 -54 87 -97 73 -78 73 -78 29 11 -91 187 -119 234 -161 267
-22 17 -93 84 -156 147 -227 228 -457 371 -707 437 -89 23 -118 26 -313 28
-118 2 -231 1 -250 -1z"/>
<path d="M5641 6572 c-13 -4 -29 -16 -35 -25 -17 -27 16 -48 141 -91 59 -20
155 -60 212 -88 97 -46 115 -60 241 -182 75 -72 179 -170 232 -219 297 -269
462 -612 498 -1037 20 -225 -11 -412 -95 -580 -77 -153 -112 -321 -82 -393 17
-39 36 -47 56 -23 18 21 128 362 161 497 77 316 64 726 -35 1069 -64 221 -114
315 -234 443 -76 80 -359 327 -486 422 -180 136 -467 239 -574 207z"/>
<path d="M3520 3017 c8 -8 64 -56 124 -107 209 -177 450 -317 856 -498 74 -33
167 -78 205 -101 112 -67 156 -76 340 -75 135 1 179 5 285 28 153 33 350 98
490 161 124 55 155 77 49 34 -224 -92 -632 -175 -809 -166 -124 6 -181 27
-321 118 -63 40 -193 110 -289 155 -96 45 -278 130 -405 188 -126 59 -259 124
-295 145 -98 58 -247 134 -230 118z"/>
</g>
</svg>
