<?xml version="1.0" standalone="no"?>
<!DOCTYPE svg PUBLIC "-//W3C//DTD SVG 20010904//EN"
 "http://www.w3.org/TR/2001/REC-SVG-20010904/DTD/svg10.dtd">
<svg version="1.0" xmlns="http://www.w3.org/2000/svg"
 width="1000.000000pt" height="1000.000000pt" viewBox="0 0 1000.000000 1000.000000"
 preserveAspectRatio="xMidYMid meet">
<metadata>
  <rdf:RDF
    xmlns:rdf = "http://www.w3.org/1999/02/22-rdf-syntax-ns#"
    xmlns:rdfs = "http://www.w3.org/2000/01/rdf-schema#"
    xmlns:dc = "http://purl.org/dc/elements/1.1/"
    xmlns:cc = "http://creativecommons.org/ns#">
    <cc:license rdf:resource="http://creativecommons.org/publicdomain/zero/1.0/deed.en"/>
    <cc:permits rdf:resource="http://creativecommons.org/ns#Reproduction"/>
    <rdf:Description about="https://nft.mir.one/fingerprints"
      dc:title="TON Fingerprints"
      dc:description="This is a unique digital fingerprint created based on the algorithm for generating basic rings using a noise texture. Like human fingerprints, you can now use it for the Web3 and Metaverse era as digital biometric information."
      dc:publisher="https://nft.mir.one"
      dc:date="2022-02-22"
      dc:format="image/svg+xml"
      dc:language="en" >
      <dc:creator>
      <rdf:Bag>
        <rdf:li>EQBondcvD2_aOFADXSWJHs4ZazQDuEl9_wNvGGPxI8hGuOFU</rdf:li>
        <rdf:li>ipfs://bafkreihj7iub3fhmhq6jn62noukt5wxn3gv6bvcg7wmt6ywvlurefezckq</rdf:li>
      </rdf:Bag>
      </dc:creator>
    </rdf:Description>
  </rdf:RDF>
</metadata>
<g transform="translate(0.000000,1000.000000) scale(0.100000,-0.100000)"
fill="#1b1f23" stroke="none">
<path d="M4864 7811 c7 -9 23 -35 35 -58 12 -24 45 -61 73 -84 59 -47 265
-149 543 -270 105 -46 262 -119 350 -163 160 -81 160 -81 192 -146 21 -46 51
-84 95 -125 83 -78 468 -345 536 -372 53 -22 53 -22 -65 104 -168 179 -297
292 -445 391 -108 71 -84 107 65 100 78 -3 78 -3 30 19 -26 12 -183 87 -348
167 -355 171 -415 196 -685 288 -113 38 -247 91 -298 118 -51 26 -86 40 -78
31z"/>
<path d="M4394 7647 c22 -18 55 -41 74 -52 53 -30 62 -52 34 -75 -13 -11 -43
-24 -65 -30 -98 -24 -438 -136 -502 -165 -38 -17 -91 -50 -118 -73 -26 -23
-69 -49 -95 -58 -47 -17 -47 -17 -17 -49 39 -41 125 -93 195 -117 30 -10 139
-32 241 -48 102 -16 239 -42 305 -58 65 -17 180 -40 254 -52 232 -37 371 -94
546 -222 118 -87 203 -130 299 -154 175 -43 329 -159 710 -534 138 -135 288
-276 335 -312 127 -97 257 -239 356 -388 48 -72 99 -139 114 -150 28 -20 28
-20 -12 92 -98 279 -143 353 -328 543 -80 83 -193 204 -252 270 -137 156 -265
278 -468 449 -91 76 -214 189 -275 250 -142 145 -208 181 -358 200 -77 10
-153 30 -312 84 -311 105 -410 122 -860 148 -154 9 -290 20 -303 25 -56 21
-29 72 47 88 83 18 391 36 596 35 189 0 205 -2 290 -28 170 -51 690 -239 755
-271 88 -45 184 -115 315 -230 61 -54 175 -152 255 -218 213 -178 382 -350
477 -488 110 -157 335 -408 395 -440 21 -11 -22 73 -165 319 -88 153 -100 180
-106 235 -8 73 -13 83 -89 179 -37 46 -103 109 -178 168 -307 243 -406 324
-499 410 -177 162 -270 215 -676 385 -140 59 -324 140 -409 181 -87 41 -186
80 -225 89 -38 9 -91 27 -118 41 -38 20 -167 55 -195 54 -4 -1 11 -15 32 -33z
m1005 -852 c52 -18 155 -89 176 -121 8 -13 15 -32 15 -44 0 -29 -33 -26 -99
11 -110 62 -168 124 -146 158 8 14 4 14 54 -4z"/>
<path d="M4175 7570 c-16 -7 -17 -9 -3 -9 9 -1 20 4 23 9 7 11 7 11 -20 0z"/>
<path d="M4108 7553 c7 -3 16 -2 19 1 4 3 -2 6 -13 5 -11 0 -14 -3 -6 -6z"/>
<path d="M3481 6916 c12 -10 60 -16 54 -6 -3 5 -18 10 -32 10 -15 0 -24 -2
-22 -4z"/>
<path d="M3655 6869 c-11 -7 -42 -31 -70 -55 -47 -39 -100 -77 -252 -180 -62
-42 -62 -42 -13 -49 27 -4 106 -2 177 4 70 6 182 13 248 17 93 5 133 11 180
30 82 34 168 44 301 37 151 -8 199 11 171 68 -29 57 -122 83 -402 110 -323 31
-318 31 -340 18z"/>
<path d="M4633 6690 c-36 -15 -46 -44 -24 -72 23 -29 40 -37 254 -132 168 -75
501 -251 632 -334 273 -175 501 -404 606 -611 36 -69 46 -107 64 -227 22 -146
75 -251 237 -472 145 -198 183 -272 146 -285 -35 -12 -106 55 -246 231 -174
218 -268 391 -322 592 -47 174 -71 213 -240 380 -219 218 -381 325 -845 555
-201 100 -285 147 -330 185 -79 68 -95 74 -176 60 -37 -6 -139 -10 -232 -8
-144 3 -168 1 -183 -14 -27 -27 -11 -61 44 -91 26 -14 128 -46 225 -71 210
-53 319 -97 692 -281 379 -187 434 -225 781 -541 50 -45 90 -91 104 -118 37
-77 7 -86 -86 -29 -106 65 -158 91 -205 103 -44 11 -51 10 -113 -20 -59 -29
-74 -32 -120 -26 -95 11 -255 65 -636 216 -451 178 -617 236 -826 288 -178 45
-318 68 -475 78 -120 8 -139 2 -224 -66 -27 -22 -67 -53 -87 -68 -37 -29 -37
-29 1 -41 21 -6 72 -11 112 -11 176 0 434 -37 639 -91 172 -46 323 -99 659
-231 366 -143 503 -192 638 -223 140 -34 201 -58 323 -130 261 -154 325 -178
344 -128 4 8 -3 29 -14 47 -20 32 -48 53 -210 159 -95 62 -128 103 -104 127
16 16 99 -14 209 -76 148 -84 167 -101 221 -209 49 -97 98 -159 323 -409 111
-124 185 -193 300 -281 63 -48 166 -182 280 -361 45 -72 96 -144 113 -160 31
-29 31 -29 25 -3 -4 14 -11 59 -17 98 -24 170 -47 244 -114 372 -44 85 -74
157 -94 230 -33 123 -66 185 -198 364 -104 143 -197 314 -192 354 2 20 9 26
28 26 20 0 36 -16 82 -85 128 -189 182 -262 258 -344 71 -78 83 -97 120 -194
108 -277 165 -400 208 -449 28 -32 28 -32 15 40 -55 314 -83 512 -83 598 0 52
-7 121 -15 152 -31 119 -120 261 -240 383 -80 81 -134 113 -208 121 -49 5 -57
11 -127 82 -42 42 -127 133 -189 203 -215 241 -409 393 -666 524 -93 48 -215
113 -270 145 -139 80 -276 144 -365 168 -77 22 -169 26 -207 11z m1899 -1289
c148 -153 259 -336 243 -398 -12 -50 -45 -24 -139 113 -50 71 -121 170 -158
220 -50 65 -68 97 -68 120 0 30 6 44 20 44 4 0 50 -44 102 -99z"/>
<path d="M3331 6380 c-29 -16 -89 -56 -132 -89 -79 -59 -79 -59 -47 -70 17 -6
85 -11 152 -11 392 0 787 -113 1586 -455 400 -171 462 -191 511 -165 75 41
-51 141 -376 300 -291 143 -527 241 -805 335 -135 46 -286 99 -337 119 -117
46 -235 66 -382 66 -110 0 -119 -2 -170 -30z"/>
<path d="M6795 6211 c-3 -6 6 -18 20 -28 15 -10 50 -36 78 -58 52 -39 52 -39
3 18 -59 69 -88 89 -101 68z"/>
<path d="M3110 5680 c-19 -12 -61 -47 -92 -76 -31 -30 -62 -54 -70 -55 -7 0 3
-6 22 -13 19 -7 91 -16 160 -20 242 -14 442 -53 629 -123 51 -19 189 -81 305
-138 235 -114 410 -185 591 -240 161 -50 213 -77 481 -251 426 -277 516 -347
754 -591 193 -197 330 -356 533 -622 145 -189 216 -275 223 -268 7 7 -18 198
-32 247 -29 99 -302 445 -559 709 -249 255 -382 362 -676 547 -240 150 -284
185 -328 263 -33 58 -42 67 -106 99 -38 20 -178 77 -310 128 -132 51 -328 128
-435 172 -404 165 -665 233 -945 248 -101 5 -113 4 -145 -16z"/>
<path d="M3044 5329 c-22 -17 -60 -52 -85 -77 -46 -47 -46 -47 -10 -59 20 -7
68 -13 106 -13 214 0 551 -67 687 -136 83 -42 56 -94 -48 -94 -25 0 -123 13
-217 30 -95 16 -220 34 -278 40 -129 14 -140 10 -232 -84 -62 -63 -62 -63 -17
-74 25 -6 86 -14 135 -17 199 -14 648 -92 775 -135 137 -45 280 -143 371 -252
73 -88 81 -110 90 -231 10 -137 63 -299 179 -553 144 -315 158 -359 179 -569
7 -60 22 -182 33 -270 18 -130 22 -206 21 -399 -1 -174 2 -234 10 -220 6 10
26 37 46 60 20 23 47 63 60 89 23 45 23 54 18 189 -3 77 -15 213 -27 301 -28
205 -24 299 14 372 35 67 36 64 -110 348 -134 262 -147 294 -173 424 -23 112
-38 155 -81 222 -72 111 -11 137 160 70 41 -16 109 -34 150 -40 83 -11 132
-27 206 -64 163 -82 400 -318 517 -512 60 -100 88 -202 98 -350 5 -79 18 -171
34 -235 44 -180 66 -328 71 -490 3 -85 7 -170 10 -189 5 -34 7 -32 50 57 74
153 87 204 80 299 -3 45 -18 144 -32 220 -14 76 -35 185 -45 243 -11 58 -24
162 -28 232 -7 116 -11 133 -43 200 -95 197 -322 442 -553 598 -41 28 -176
100 -299 160 -269 132 -319 171 -360 278 -31 81 -26 78 -313 228 -172 91 -219
121 -287 182 -94 85 -210 147 -351 187 -105 31 -324 65 -411 65 -53 0 -66 -4
-100 -31z"/>
<path d="M5118 5150 c-26 -16 -22 -45 11 -73 16 -13 105 -68 197 -122 452
-264 492 -293 785 -585 226 -226 320 -336 498 -585 121 -168 203 -266 188
-222 -4 10 -14 64 -22 120 -8 56 -22 123 -30 149 -15 52 -80 153 -191 298 -80
104 -612 639 -706 709 -31 23 -92 57 -136 76 -44 18 -170 79 -279 135 -203
103 -274 126 -315 100z"/>
<path d="M7038 4894 c-15 -14 -8 -59 16 -109 14 -27 25 -45 25 -40 1 27 -35
156 -41 149z"/>
<path d="M4611 4818 c-13 -7 -29 -21 -35 -31 -17 -29 50 -82 211 -167 329
-174 437 -240 585 -359 156 -123 305 -280 448 -471 35 -47 102 -121 148 -165
96 -91 157 -172 202 -266 26 -56 30 -75 30 -149 0 -101 45 -302 83 -368 23
-42 23 -42 37 68 14 118 9 196 -15 253 -21 51 -19 67 8 67 33 0 60 -23 98 -82
18 -29 46 -68 61 -86 28 -32 28 -32 23 10 -2 24 -7 68 -10 99 -8 86 -29 133
-92 207 -32 37 -95 115 -141 174 -80 103 -314 375 -454 528 -207 224 -464 421
-801 615 -202 115 -326 155 -386 123z"/>
<path d="M3002 4615 c-43 -44 -68 -75 -59 -75 9 0 31 -6 49 -14 18 -8 90 -22
160 -31 166 -21 293 -55 397 -106 126 -62 205 -153 170 -195 -19 -23 -61 -16
-150 27 -115 56 -213 87 -322 103 -79 12 -96 12 -120 -1 -27 -14 -87 -95 -87
-119 0 -6 -9 -23 -20 -37 -20 -26 -20 -26 127 -24 161 2 258 -14 344 -57 54
-28 65 -65 24 -84 -36 -17 -142 -15 -201 3 -96 29 -132 16 -203 -74 -30 -38
-30 -38 12 -30 71 14 147 11 153 -6 4 -9 -20 -44 -65 -92 -71 -78 -71 -78 -39
-86 36 -10 87 1 203 43 153 55 267 83 339 82 58 0 80 -6 145 -38 150 -73 336
-294 450 -534 110 -232 181 -541 181 -787 0 -61 3 -131 6 -157 7 -47 7 -47 38
-10 57 68 85 118 92 159 13 88 -41 486 -95 699 -48 190 -86 272 -344 746 -224
414 -269 479 -388 568 -113 84 -307 150 -552 186 -168 25 -159 27 -245 -59z"/>
<path d="M4802 4128 c-7 -7 -12 -17 -12 -23 0 -6 47 -54 105 -108 156 -146
313 -334 509 -609 48 -68 69 -82 96 -68 26 14 26 50 1 123 -44 127 -156 292
-305 445 -184 190 -345 289 -394 240z"/>
<path d="M4700 4035 c-35 -42 16 -164 167 -395 83 -127 114 -164 247 -295 198
-194 253 -276 304 -450 34 -113 52 -228 63 -399 11 -164 25 -285 28 -233 0 15
13 51 27 79 54 106 74 175 74 251 0 148 -52 397 -109 522 -20 42 -53 85 -112
145 -106 108 -277 311 -484 578 -89 114 -168 208 -177 210 -8 2 -21 -4 -28
-13z"/>
<path d="M3411 3600 c-40 -10 -58 -31 -104 -122 -34 -67 -34 -67 12 -77 25 -5
82 -13 126 -16 279 -22 462 -125 612 -345 78 -115 150 -305 177 -470 20 -119
44 -230 45 -208 1 9 12 29 25 45 72 87 82 150 47 320 -72 350 -249 649 -469
790 -102 66 -172 86 -312 89 -69 2 -140 -1 -159 -6z"/>
<path d="M5870 3501 c-15 -29 -13 -51 19 -179 44 -172 88 -402 101 -522 7 -58
17 -139 23 -180 12 -75 12 -75 49 13 20 48 45 125 54 171 17 85 17 85 -16 253
-50 260 -96 382 -162 439 -36 29 -54 30 -68 5z"/>
<path d="M4953 3242 c-20 -13 -43 -91 -43 -148 0 -29 13 -131 30 -226 34 -202
55 -425 47 -518 -3 -35 -3 -88 0 -116 6 -52 6 -52 51 15 69 101 82 135 82 225
0 147 -36 343 -106 564 -46 146 -38 178 27 105 105 -120 178 -396 198 -746 5
-88 13 -163 18 -168 11 -11 84 130 104 199 25 86 -24 381 -89 538 -54 129
-148 248 -218 274 -30 12 -84 13 -101 2z"/>
<path d="M3634 3138 c-24 -11 -49 -63 -59 -121 -3 -21 -8 -44 -11 -50 -3 -9 7
-11 34 -9 115 11 287 -164 377 -384 15 -36 25 -50 25 -36 0 12 11 40 25 61 15
22 28 60 32 90 5 48 2 60 -38 139 -54 107 -171 231 -264 279 -76 39 -95 44
-121 31z"/>
</g>
</svg>
