<?xml version="1.0" standalone="no"?>
<!DOCTYPE svg PUBLIC "-//W3C//DTD SVG 20010904//EN"
 "http://www.w3.org/TR/2001/REC-SVG-20010904/DTD/svg10.dtd">
<svg version="1.0" xmlns="http://www.w3.org/2000/svg"
 width="1000.000000pt" height="1000.000000pt" viewBox="0 0 1000.000000 1000.000000"
 preserveAspectRatio="xMidYMid meet">
<metadata>
  <rdf:RDF
    xmlns:rdf = "http://www.w3.org/1999/02/22-rdf-syntax-ns#"
    xmlns:rdfs = "http://www.w3.org/2000/01/rdf-schema#"
    xmlns:dc = "http://purl.org/dc/elements/1.1/"
    xmlns:cc = "http://creativecommons.org/ns#">
    <cc:license rdf:resource="http://creativecommons.org/publicdomain/zero/1.0/deed.en"/>
    <cc:permits rdf:resource="http://creativecommons.org/ns#Reproduction"/>
    <rdf:Description about="https://nft.mir.one/fingerprints"
      dc:title="TON Fingerprints"
      dc:description="This is a unique digital fingerprint created based on the algorithm for generating basic rings using a noise texture. Like human fingerprints, you can now use it for the Web3 and Metaverse era as digital biometric information."
      dc:publisher="https://nft.mir.one"
      dc:date="2022-02-22"
      dc:format="image/svg+xml"
      dc:language="en" >
      <dc:creator>
      <rdf:Bag>
        <rdf:li>EQBondcvD2_aOFADXSWJHs4ZazQDuEl9_wNvGGPxI8hGuOFU</rdf:li>
        <rdf:li>ipfs://bafkreihj7iub3fhmhq6jn62noukt5wxn3gv6bvcg7wmt6ywvlurefezckq</rdf:li>
      </rdf:Bag>
      </dc:creator>
    </rdf:Description>
  </rdf:RDF>
</metadata>
<g transform="translate(0.000000,1000.000000) scale(0.100000,-0.100000)"
fill="#1b1f23" stroke="none">
<path d="M4672 7736 c31 -13 78 -39 105 -58 63 -47 121 -55 244 -33 67 11 119
14 180 9 96 -7 129 -1 129 25 0 28 -138 51 -315 51 -82 1 -195 7 -250 15 -143
21 -161 19 -93 -9z"/>
<path d="M5496 7686 c2 -45 12 -66 84 -173 45 -68 103 -141 128 -164 72 -64
230 -173 300 -208 97 -49 202 -45 176 7 -18 37 -308 304 -422 388 -64 48 -151
112 -193 144 -76 57 -76 57 -73 6z"/>
<path d="M4565 7603 c-86 -11 -250 -49 -330 -75 -85 -29 -399 -167 -393 -174
2 -1 28 4 58 11 223 56 383 90 560 119 113 19 219 40 235 46 40 15 65 39 65
62 0 16 -8 18 -82 17 -46 -1 -96 -4 -113 -6z"/>
<path d="M5088 7559 c-27 -15 -22 -37 12 -54 27 -14 110 -21 110 -9 0 19 -26
48 -55 60 -40 16 -44 17 -67 3z"/>
<path d="M5200 7460 c-19 -35 -77 -44 -164 -26 -102 21 -153 20 -256 -5 -47
-11 -159 -36 -250 -55 -477 -100 -636 -180 -920 -464 -69 -69 -173 -168 -232
-219 -60 -51 -108 -94 -108 -95 0 -1 26 10 59 26 74 38 138 48 147 24 9 -24
-5 -51 -95 -178 -123 -176 -251 -446 -339 -718 -47 -147 -103 -372 -116 -470
-5 -42 -5 -41 12 15 20 67 69 201 145 399 76 198 238 517 290 571 41 42 78 57
91 36 3 -5 -25 -73 -63 -152 -169 -352 -279 -643 -320 -846 -48 -234 -80 -730
-60 -924 57 -558 387 -1126 861 -1482 235 -177 627 -365 949 -456 306 -85 606
-80 912 15 85 27 330 124 325 129 -2 2 -32 -3 -68 -10 -325 -67 -449 -85 -611
-85 -417 0 -1048 236 -1464 549 -292 220 -535 500 -673 776 -151 301 -177 493
-127 925 56 479 115 705 303 1160 102 246 117 315 87 386 -14 35 -14 39 25
135 22 55 49 132 60 172 25 89 72 159 164 244 152 139 352 251 586 328 305 99
597 135 835 102 77 -11 124 -13 157 -7 171 33 125 167 -70 209 -66 14 -59 15
-72 -9z"/>
<path d="M6281 7225 c-1 -21 -12 -41 -36 -64 -19 -18 -35 -36 -35 -39 0 -4 38
-59 84 -122 227 -310 334 -482 400 -642 60 -144 74 -226 86 -483 14 -311 34
-417 85 -451 24 -16 28 -16 42 -1 25 25 33 119 23 272 -30 448 -166 799 -488
1264 -117 169 -134 197 -148 251 -11 39 -13 41 -13 15z"/>
<path d="M4925 7154 c-16 -2 -73 -9 -125 -15 -268 -31 -579 -148 -769 -289
-199 -148 -294 -304 -371 -609 -37 -147 -66 -232 -150 -441 -159 -394 -214
-615 -261 -1055 -38 -352 -29 -501 43 -703 105 -298 347 -620 653 -867 307
-248 718 -439 1165 -542 139 -32 182 -37 275 -37 130 1 376 40 492 79 195 65
416 194 500 291 67 78 171 185 213 218 33 26 34 27 5 13 -48 -24 -153 -46
-245 -52 -49 -3 -173 -27 -290 -55 -330 -80 -501 -97 -810 -81 -201 11 -278
25 -322 60 -46 39 -20 42 368 45 444 3 440 2 1063 152 73 17 118 39 204 97 34
23 98 62 141 87 79 45 79 45 30 51 -58 7 -118 -6 -309 -66 -504 -157 -702
-193 -1135 -204 -267 -7 -302 -10 -365 -31 -117 -38 -206 -19 -430 91 -206
100 -298 184 -604 548 -119 141 -209 295 -286 491 -48 122 -61 147 -84 160
-62 32 -68 -105 -12 -269 85 -251 230 -469 490 -734 163 -167 339 -288 570
-392 56 -25 103 -45 106 -45 2 0 63 -27 134 -60 169 -78 260 -100 419 -100 68
0 166 -5 219 -11 193 -23 547 42 802 147 92 39 124 40 129 8 8 -57 -188 -151
-455 -219 -102 -26 -348 -64 -413 -65 -22 0 -51 -12 -79 -30 -49 -34 -110 -40
-131 -15 -17 21 -9 27 51 36 61 10 78 22 60 43 -21 25 -66 28 -131 10 -153
-43 -388 17 -766 196 -251 119 -412 228 -593 404 -208 203 -343 383 -446 598
-29 62 -63 147 -75 188 -30 107 -36 247 -15 335 9 39 21 146 26 239 24 434 85
653 356 1281 55 127 112 268 128 315 38 115 75 187 134 258 137 165 450 326
712 366 52 8 142 19 200 25 171 17 269 65 240 120 -6 11 -28 25 -49 31 -35 9
-140 11 -207 4z"/>
<path d="M5430 7005 c-30 -9 -91 -34 -135 -57 -44 -22 -132 -62 -195 -89 -63
-26 -118 -54 -122 -61 -4 -7 -15 -30 -24 -52 -22 -49 -77 -89 -229 -167 -157
-81 -235 -126 -380 -219 -66 -43 -157 -96 -201 -118 -101 -51 -157 -111 -244
-263 -135 -235 -265 -570 -315 -810 -32 -150 -44 -385 -26 -478 15 -77 208
-468 299 -606 71 -108 260 -308 322 -341 23 -12 58 -19 100 -19 52 -1 102 -14
245 -63 99 -34 216 -68 260 -76 45 -8 198 -17 350 -21 227 -6 288 -5 385 9
292 43 539 130 887 313 148 78 240 141 317 218 106 106 148 179 222 383 67
184 94 327 114 592 5 80 13 168 16 195 6 50 6 50 -29 -2 -31 -47 -40 -74 -72
-234 -41 -209 -86 -348 -161 -508 -70 -147 -146 -260 -227 -339 -69 -65 -123
-95 -194 -107 -30 -5 -81 -32 -169 -92 -299 -199 -586 -298 -904 -310 -127 -4
-172 -1 -365 26 -249 36 -341 56 -505 113 -211 74 -318 145 -436 292 -112 139
-222 344 -273 510 -84 273 -26 612 176 1025 31 63 87 160 124 216 141 211 324
343 877 634 331 174 444 209 654 198 310 -15 562 -186 828 -563 88 -125 117
-154 155 -154 51 0 66 52 44 148 -17 76 -134 300 -205 395 -185 247 -353 372
-619 463 -100 34 -259 43 -345 19z"/>
<path d="M4735 6856 c-139 -32 -311 -109 -450 -201 -146 -97 -263 -243 -235
-295 23 -42 47 -31 240 110 125 92 261 166 450 246 85 36 166 74 180 84 25 19
25 19 3 41 -28 28 -104 34 -188 15z"/>
<path d="M5295 6459 c-275 -54 -714 -274 -945 -471 -144 -124 -225 -237 -345
-483 -145 -296 -175 -401 -175 -607 0 -223 58 -407 193 -608 176 -261 450
-408 824 -440 121 -10 164 -20 258 -58 61 -24 252 -21 384 8 304 65 593 221
697 376 49 74 191 377 234 502 25 70 37 92 51 92 50 0 64 -105 29 -211 -12
-34 -50 -119 -85 -190 -75 -149 -84 -199 -37 -199 74 0 229 211 294 400 74
215 100 586 51 720 -41 112 -134 357 -160 420 -21 54 -39 77 -101 135 -42 39
-144 139 -226 223 -165 169 -260 246 -381 309 -135 69 -199 85 -365 89 -80 2
-167 -2 -195 -7z m266 -263 c168 -36 344 -141 505 -301 127 -125 212 -241 274
-370 84 -175 115 -314 108 -489 -5 -122 -17 -157 -70 -204 -49 -44 -84 -102
-157 -262 -90 -197 -149 -289 -241 -380 -165 -163 -440 -277 -743 -309 -111
-12 -147 -9 -147 13 0 29 45 49 196 86 259 63 391 119 527 221 165 124 279
325 354 626 37 146 39 334 5 463 -81 306 -329 579 -611 675 -205 69 -436 56
-666 -40 -268 -111 -453 -280 -543 -497 -23 -54 -26 -77 -26 -163 1 -232 95
-439 277 -611 92 -88 190 -147 322 -193 93 -33 108 -36 220 -36 132 0 176 11
295 71 83 41 117 67 212 160 43 42 82 73 88 69 33 -21 -20 -123 -106 -206
-183 -173 -487 -252 -696 -180 -86 30 -248 116 -320 170 -86 65 -173 162 -259
288 -86 126 -104 166 -130 284 -24 111 -41 154 -68 171 -29 18 -27 51 13 164
120 334 410 589 833 733 201 69 379 84 554 47z m-202 -462 c262 -65 460 -299
461 -544 0 -91 -21 -129 -85 -154 -111 -42 -176 -79 -299 -171 -72 -53 -170
-117 -219 -143 -49 -25 -93 -54 -98 -63 -12 -23 13 -42 52 -41 82 2 157 34
308 131 131 85 189 111 242 111 61 0 47 -40 -27 -78 -23 -12 -97 -59 -165
-104 -68 -46 -151 -94 -184 -107 -87 -34 -186 -39 -266 -13 -35 12 -93 28
-129 37 -346 87 -564 482 -428 772 66 140 302 308 508 362 95 25 239 27 329 5z
m-1245 -532 c-8 -34 -13 -114 -14 -198 0 -78 -5 -165 -10 -195 -40 -210 177
-520 456 -651 120 -56 237 -74 282 -42 44 30 30 44 -91 88 -221 82 -391 221
-494 404 -43 76 -77 182 -64 195 20 20 49 -8 121 -115 123 -186 242 -291 445
-393 44 -22 97 -58 119 -79 50 -50 96 -59 224 -45 261 29 481 121 621 259 112
112 157 235 127 346 -29 103 -29 104 -11 124 55 61 135 -32 135 -158 0 -256
-221 -497 -555 -605 -44 -14 -170 -49 -280 -78 -249 -65 -362 -74 -495 -40
-276 70 -522 299 -615 571 -61 178 -56 469 9 601 21 41 78 85 97 74 4 -3 1
-31 -7 -63z"/>
<path d="M5048 5506 c-56 -16 -124 -55 -155 -88 -28 -30 -42 -94 -50 -229 -7
-125 7 -181 58 -224 33 -27 86 -34 107 -13 17 17 15 48 -3 48 -26 0 -39 39
-26 81 26 86 124 119 175 58 71 -84 -5 -248 -131 -285 -48 -14 -58 -14 -106 0
-70 20 -135 87 -167 172 -19 51 -21 71 -16 149 3 50 9 106 12 125 11 72 -38
89 -91 32 -78 -84 -71 -289 13 -423 72 -113 197 -192 305 -193 54 -1 71 4 128
36 147 83 289 223 357 352 22 42 27 64 27 126 0 64 -4 82 -27 122 -58 98 -163
156 -293 164 -41 2 -89 -2 -117 -10z"/>
<path d="M2911 5214 c0 -11 3 -14 6 -6 3 7 2 16 -1 19 -3 4 -6 -2 -5 -13z"/>
<path d="M6886 4070 c-174 -178 -266 -243 -486 -341 -322 -145 -604 -228 -879
-259 -100 -12 -327 -9 -510 6 -74 6 -96 -2 -84 -31 5 -16 98 -80 138 -96 21
-9 98 -12 245 -12 245 -1 395 18 635 79 146 36 420 125 589 190 117 45 177 95
269 223 45 61 213 361 203 361 -1 0 -55 -54 -120 -120z"/>
<path d="M4235 3651 c-3 -11 1 -33 9 -49 73 -141 592 -363 706 -302 28 15 16
33 -56 88 -52 41 -89 59 -205 98 -78 26 -198 75 -268 109 -154 75 -177 82
-186 56z"/>
<path d="M3594 2929 c317 -296 623 -480 1001 -603 226 -73 390 -104 580 -111
115 -4 121 -3 55 5 -174 22 -573 146 -844 261 -157 67 -272 125 -383 192 -144
87 -384 246 -438 290 -27 22 -14 7 29 -34z"/>
</g>
</svg>
