<?xml version="1.0" standalone="no"?>
<!DOCTYPE svg PUBLIC "-//W3C//DTD SVG 20010904//EN"
 "http://www.w3.org/TR/2001/REC-SVG-20010904/DTD/svg10.dtd">
<svg version="1.0" xmlns="http://www.w3.org/2000/svg"
 width="1000.000000pt" height="1000.000000pt" viewBox="0 0 1000.000000 1000.000000"
 preserveAspectRatio="xMidYMid meet">
<metadata>
  <rdf:RDF
    xmlns:rdf = "http://www.w3.org/1999/02/22-rdf-syntax-ns#"
    xmlns:rdfs = "http://www.w3.org/2000/01/rdf-schema#"
    xmlns:dc = "http://purl.org/dc/elements/1.1/"
    xmlns:cc = "http://creativecommons.org/ns#">
    <cc:license rdf:resource="http://creativecommons.org/publicdomain/zero/1.0/deed.en"/>
    <cc:permits rdf:resource="http://creativecommons.org/ns#Reproduction"/>
    <rdf:Description about="https://nft.mir.one/fingerprints"
      dc:title="TON Fingerprints"
      dc:description="This is a unique digital fingerprint created based on the algorithm for generating basic rings using a noise texture. Like human fingerprints, you can now use it for the Web3 and Metaverse era as digital biometric information."
      dc:publisher="https://nft.mir.one"
      dc:date="2022-02-22"
      dc:format="image/svg+xml"
      dc:language="en" >
      <dc:creator>
      <rdf:Bag>
        <rdf:li>EQBondcvD2_aOFADXSWJHs4ZazQDuEl9_wNvGGPxI8hGuOFU</rdf:li>
        <rdf:li>ipfs://bafkreihj7iub3fhmhq6jn62noukt5wxn3gv6bvcg7wmt6ywvlurefezckq</rdf:li>
      </rdf:Bag>
      </dc:creator>
    </rdf:Description>
  </rdf:RDF>
</metadata>
<g transform="translate(0.000000,1000.000000) scale(0.100000,-0.100000)"
fill="#1b1f23" stroke="none">
<path d="M4895 7756 c50 -24 123 -54 164 -66 64 -20 81 -21 135 -12 126 20
279 -31 482 -163 121 -79 209 -168 309 -312 89 -129 220 -268 491 -523 88 -83
104 -103 123 -156 34 -93 163 -247 273 -325 18 -13 -9 33 -79 133 -58 84 -111
166 -118 182 -18 43 -2 86 33 87 26 1 25 2 -6 12 -42 13 -461 446 -597 617
-51 63 -110 131 -131 151 -141 133 -398 277 -589 330 -38 10 -126 26 -195 35
-69 8 -179 24 -245 35 -66 10 -124 19 -130 19 -5 0 31 -20 80 -44z"/>
<path d="M4277 7612 c-47 -7 -47 -7 -5 -33 25 -16 165 -64 328 -113 157 -48
323 -101 370 -118 103 -37 271 -124 485 -250 88 -52 191 -112 228 -132 122
-68 242 -167 486 -401 82 -79 439 -475 708 -786 50 -58 107 -117 126 -132 35
-26 35 -26 -20 81 -121 234 -221 392 -322 510 -31 37 -97 119 -146 182 -59 76
-182 207 -366 390 -265 263 -278 277 -293 330 -8 31 -30 77 -47 104 -75 112
-310 266 -516 337 -94 32 -124 22 -97 -32 17 -34 51 -59 217 -158 137 -82 315
-208 351 -249 10 -12 16 -28 13 -37 -10 -24 -49 -18 -118 18 -85 44 -468 278
-545 333 -163 116 -302 153 -594 159 -107 2 -216 0 -243 -3z"/>
<path d="M4040 7380 c-211 -35 -201 -31 -158 -63 50 -36 345 -142 548 -197
181 -50 257 -81 348 -148 130 -94 482 -293 610 -344 86 -34 135 -35 140 -1 6
40 -68 91 -432 294 -187 104 -254 155 -243 183 6 15 15 18 47 13 51 -7 245
-102 425 -209 143 -85 247 -173 290 -248 11 -19 81 -84 155 -143 190 -152 395
-344 580 -542 204 -219 291 -321 498 -588 93 -120 186 -230 206 -243 36 -25
36 -25 15 28 -12 29 -32 81 -45 116 -32 82 -119 256 -157 311 -79 116 -487
569 -708 788 -167 164 -442 407 -554 489 -79 58 -259 168 -385 237 -148 80
-229 107 -364 122 -97 11 -167 28 -351 84 -220 68 -234 71 -325 70 -52 -1
-115 -5 -140 -9z"/>
<path d="M3755 7103 c-30 -6 -148 -34 -164 -39 -19 -6 23 -38 106 -79 38 -19
97 -59 133 -89 67 -58 78 -63 785 -418 184 -93 403 -211 495 -269 91 -56 212
-129 270 -162 214 -120 399 -271 805 -656 169 -161 234 -211 272 -211 28 0 40
38 22 72 -31 60 -119 159 -299 339 -208 209 -351 337 -547 493 -115 90 -123
99 -123 131 0 26 -9 45 -36 75 -56 62 -24 93 53 52 31 -16 62 -43 342 -286 69
-60 212 -195 316 -300 264 -265 350 -375 402 -511 33 -88 35 -91 225 -337 149
-193 245 -305 253 -296 9 8 -90 327 -124 403 -15 33 -54 94 -87 135 -33 41
-99 134 -146 205 -123 186 -271 359 -513 600 -222 222 -361 348 -486 437 -85
60 -125 78 -252 107 -107 25 -230 83 -497 233 -361 203 -402 218 -520 197 -81
-14 -88 -12 -368 107 -156 67 -178 74 -235 73 -34 -1 -71 -3 -82 -6z m758
-287 c110 -48 770 -410 824 -452 18 -14 43 -44 55 -67 11 -23 37 -56 56 -74
64 -59 0 -74 -86 -20 -29 17 -85 55 -125 83 -90 64 -219 139 -462 267 -292
154 -355 200 -355 258 0 37 19 38 93 5z"/>
<path d="M3540 6841 c-30 -11 -81 -30 -112 -43 -57 -24 -57 -24 0 -40 79 -23
228 -31 272 -15 29 10 35 17 35 42 0 22 -8 35 -34 52 -41 28 -86 29 -161 4z"/>
<path d="M3390 6567 c-41 -18 -91 -43 -110 -55 -19 -12 -44 -22 -55 -22 -54
-2 76 -34 202 -50 281 -37 431 -74 573 -142 74 -36 99 -56 194 -152 60 -61
141 -154 181 -207 40 -53 121 -140 180 -195 59 -54 143 -139 187 -189 44 -49
154 -153 246 -231 139 -117 176 -154 222 -222 60 -89 86 -111 203 -166 256
-122 561 -475 655 -759 31 -94 31 -94 11 -133 -22 -43 -20 -70 12 -189 19 -69
16 -91 -13 -80 -30 12 -69 105 -99 237 -47 207 -132 368 -304 568 -82 96 -191
192 -252 221 -84 41 -123 -3 -66 -73 15 -18 63 -71 108 -118 168 -179 292
-364 370 -553 100 -243 116 -273 190 -367 41 -52 88 -119 104 -150 58 -110
110 -301 137 -498 9 -70 25 -149 34 -177 17 -49 17 -49 35 10 84 290 86 341
21 560 -43 146 -47 165 -40 220 4 33 8 103 8 155 -1 84 -6 110 -42 220 -23 69
-46 153 -51 187 -12 78 -36 132 -104 236 -124 190 -314 386 -582 599 -93 75
-208 171 -255 214 -47 44 -130 117 -185 164 -55 47 -172 148 -260 225 -89 77
-201 174 -250 216 -95 80 -127 121 -108 140 44 44 294 -143 1099 -820 253
-213 552 -508 674 -665 47 -60 113 -142 147 -181 34 -39 75 -98 92 -131 45
-93 116 -323 156 -509 20 -93 37 -171 39 -172 2 -2 8 3 15 10 32 39 42 276 16
376 -8 31 -32 101 -53 156 -49 126 -55 157 -36 181 14 18 15 18 42 -13 35 -41
100 -172 140 -283 17 -47 40 -107 51 -135 20 -50 20 -50 15 60 -13 290 -55
389 -190 458 -54 28 -85 59 -225 222 -303 355 -1103 1046 -1592 1374 -134 91
-236 145 -322 171 -127 39 -153 51 -199 91 -83 73 -48 107 72 70 200 -60 374
-150 636 -325 306 -205 483 -344 851 -670 105 -92 253 -221 330 -286 77 -65
183 -162 235 -217 167 -171 381 -409 423 -468 40 -58 97 -124 97 -114 0 24
-47 213 -71 288 -29 85 -40 103 -127 210 -201 244 -275 315 -419 399 -93 55
-150 101 -374 304 -373 337 -488 426 -829 643 -361 229 -596 344 -822 401 -57
14 -163 48 -236 75 -213 78 -224 80 -452 85 -205 5 -205 5 -280 -29z m2775
-2523 c38 -38 67 -134 80 -267 6 -58 4 -68 -11 -74 -25 -9 -52 29 -58 85 -3
26 -17 94 -31 152 -14 58 -25 108 -25 113 0 13 28 7 45 -9z"/>
<path d="M3304 6296 c-23 -7 -76 -32 -119 -56 -77 -42 -77 -42 -35 -61 23 -11
50 -19 60 -19 46 0 286 -55 393 -90 222 -73 369 -160 647 -380 262 -208 373
-282 400 -265 19 12 9 61 -21 100 -16 22 -81 87 -144 145 -63 58 -174 161
-247 229 -206 192 -320 263 -528 329 -73 23 -349 85 -363 81 -1 0 -21 -6 -43
-13z"/>
<path d="M3117 5971 c-96 -48 -96 -48 -59 -65 20 -8 107 -33 192 -55 312 -79
540 -183 851 -389 265 -175 315 -204 465 -266 71 -29 198 -89 282 -132 146
-76 155 -79 220 -79 63 0 67 1 70 24 6 37 -54 90 -261 229 -189 127 -189 127
-261 127 -64 1 -83 5 -147 37 -41 20 -148 90 -239 154 -277 198 -429 286 -621
360 -92 35 -339 104 -376 104 -11 0 -64 -22 -116 -49z"/>
<path d="M3051 5699 c-83 -41 -83 -41 -49 -63 18 -12 62 -31 98 -40 282 -78
581 -202 800 -331 216 -128 308 -218 428 -417 44 -73 103 -163 130 -199 81
-106 171 -247 219 -344 118 -234 295 -785 310 -965 5 -56 2 -69 -15 -90 -13
-16 -24 -21 -29 -15 -5 6 -24 66 -43 135 -74 282 -196 621 -287 805 -76 152
-218 349 -351 486 -87 91 -101 99 -195 119 -32 6 -124 44 -205 84 -81 40 -185
87 -232 104 -159 58 -528 172 -555 172 -32 0 -55 -12 -117 -58 -47 -36 -47
-36 -12 -60 20 -13 72 -36 117 -52 45 -15 136 -49 202 -75 113 -45 124 -47
188 -42 92 8 156 -10 315 -89 209 -105 322 -176 411 -260 232 -218 394 -494
536 -912 90 -266 113 -320 164 -387 37 -47 41 -59 76 -239 48 -248 52 -317 30
-510 -10 -93 -14 -179 -10 -211 6 -54 6 -54 61 3 66 68 107 125 122 171 16 45
15 230 -2 366 -30 241 -46 396 -55 520 -11 137 -61 357 -135 595 -20 63 -54
180 -77 260 -60 218 -113 318 -307 588 -64 88 -82 121 -82 147 0 19 4 37 10
40 20 12 78 -31 175 -129 83 -84 115 -126 189 -250 100 -167 133 -209 185
-236 52 -26 105 -83 174 -185 33 -49 90 -122 127 -161 98 -104 159 -215 250
-459 44 -115 88 -274 91 -325 4 -63 1 -72 -23 -68 -33 4 -58 57 -133 281 -70
212 -138 377 -185 451 -22 35 -36 46 -55 46 -22 0 -25 -4 -25 -37 0 -20 22
-102 50 -182 27 -80 74 -226 105 -323 30 -98 77 -228 104 -290 75 -172 94
-267 107 -523 3 -71 10 -148 16 -170 10 -39 10 -39 64 60 29 55 63 129 75 164
21 63 21 69 9 227 -9 108 -10 191 -4 246 12 119 8 197 -15 288 -38 145 -142
387 -237 547 -66 112 -262 375 -364 488 -151 166 -229 290 -216 341 15 58 69
11 282 -246 247 -298 356 -465 497 -760 159 -333 179 -410 202 -800 9 -150 23
-297 32 -338 17 -74 17 -74 29 -35 6 21 23 63 37 93 13 30 36 92 51 138 32
102 33 173 6 337 -37 228 -77 342 -184 529 -34 61 -108 203 -163 316 -110 225
-193 352 -352 539 -53 62 -121 150 -151 194 -72 106 -106 127 -213 127 -88 0
-94 3 -236 93 -117 74 -174 99 -273 121 -69 15 -90 26 -195 101 -331 236 -528
355 -733 443 -127 55 -418 152 -454 152 -13 0 -60 -18 -105 -41z"/>
<path d="M3038 5431 c-20 -10 -50 -28 -66 -40 -17 -11 -36 -21 -42 -21 -40 0
79 -54 225 -102 409 -134 596 -213 820 -347 128 -77 158 -84 163 -38 15 125
-371 354 -885 526 -137 46 -162 48 -215 22z"/>
<path d="M3025 4788 c-11 -6 -35 -24 -53 -40 -18 -15 -40 -28 -49 -28 -26 0
55 -54 147 -97 104 -49 218 -118 420 -258 309 -214 509 -396 720 -660 125
-155 171 -202 205 -211 43 -11 47 7 16 71 -37 79 -87 157 -186 290 -188 252
-330 384 -670 622 -55 39 -151 111 -214 161 -175 140 -275 184 -336 150z"/>
<path d="M3434 4765 c-8 -19 22 -65 61 -97 17 -14 102 -73 190 -133 251 -169
363 -264 497 -425 103 -123 215 -291 270 -405 39 -81 43 -97 43 -165 1 -68 4
-82 39 -145 94 -169 193 -305 223 -305 19 0 34 37 27 67 -4 16 -33 84 -64 153
-32 69 -78 190 -103 270 -97 307 -267 582 -493 800 -108 104 -215 181 -398
285 -185 106 -278 138 -292 100z"/>
<path d="M3018 4404 c-57 -37 -57 -37 -20 -63 20 -15 89 -54 152 -87 420 -221
790 -538 1157 -993 69 -86 166 -202 216 -258 116 -132 129 -152 212 -317 39
-77 78 -145 88 -151 15 -8 22 -5 39 15 18 22 20 35 15 100 -6 88 -56 248 -98
315 -17 26 -44 52 -68 65 -62 31 -105 74 -198 194 -47 61 -138 165 -202 231
-64 66 -170 180 -235 253 -190 213 -386 382 -636 547 -182 120 -299 185 -335
185 -17 0 -54 -15 -87 -36z"/>
<path d="M4992 4258 c-21 -21 -13 -79 24 -183 19 -55 64 -217 100 -359 57
-227 85 -368 164 -817 28 -155 43 -359 36 -479 -3 -58 -2 -132 3 -165 5 -33 9
-52 10 -43 0 9 17 38 37 64 60 79 101 147 118 199 15 44 16 64 6 175 -14 156
-29 231 -90 445 -27 94 -70 249 -96 345 -26 96 -58 213 -71 260 -13 47 -28
127 -33 178 -11 105 -54 218 -118 311 -44 65 -73 86 -90 69z"/>
<path d="M6336 4214 c-21 -20 -22 -15 20 -146 40 -128 59 -214 69 -308 3 -36
11 -90 16 -120 19 -100 143 -459 156 -447 6 6 33 203 33 241 0 24 -14 83 -30
129 -17 47 -44 148 -61 224 -69 311 -150 481 -203 427z"/>
<path d="M3093 4047 c-50 -32 -50 -32 11 -74 33 -22 88 -55 121 -73 172 -95
357 -230 568 -418 65 -58 155 -133 200 -166 56 -42 83 -69 85 -85 3 -22 1 -23
-30 -17 -18 4 -60 9 -93 13 -59 6 -59 6 -190 126 -150 139 -250 220 -354 289
-84 55 -133 62 -189 28 -18 -11 -40 -20 -50 -20 -16 0 4 -15 158 -122 245
-168 366 -290 515 -518 59 -91 121 -193 137 -226 29 -63 87 -259 89 -304 1
-25 1 -25 9 0 17 53 91 191 106 197 21 8 26 -1 74 -127 23 -58 53 -132 68
-166 27 -61 27 -61 49 -15 13 25 26 67 29 94 12 87 -70 214 -169 262 -33 16
-57 41 -112 121 -38 56 -97 134 -130 173 -65 77 -95 126 -95 153 0 31 20 30
63 -5 23 -18 58 -43 77 -55 68 -41 347 -346 429 -469 29 -43 90 -154 137 -248
47 -93 87 -171 89 -173 8 -8 85 165 85 191 0 20 -13 44 -41 75 -22 25 -70 96
-106 157 -74 123 -138 209 -306 405 -64 74 -133 166 -153 205 -30 56 -71 103
-204 235 -247 246 -406 375 -635 515 -143 88 -165 92 -242 42z"/>
<path d="M3455 3129 c94 -98 122 -132 217 -272 38 -56 67 -91 63 -78 -4 13 -9
47 -11 74 -8 126 -158 317 -248 317 -17 0 -47 10 -66 21 -26 16 -15 0 45 -62z"/>
</g>
</svg>
