<?xml version="1.0" standalone="no"?>
<!DOCTYPE svg PUBLIC "-//W3C//DTD SVG 20010904//EN"
 "http://www.w3.org/TR/2001/REC-SVG-20010904/DTD/svg10.dtd">
<svg version="1.0" xmlns="http://www.w3.org/2000/svg"
 width="1000.000000pt" height="1000.000000pt" viewBox="0 0 1000.000000 1000.000000"
 preserveAspectRatio="xMidYMid meet">
<metadata>
  <rdf:RDF
    xmlns:rdf = "http://www.w3.org/1999/02/22-rdf-syntax-ns#"
    xmlns:rdfs = "http://www.w3.org/2000/01/rdf-schema#"
    xmlns:dc = "http://purl.org/dc/elements/1.1/"
    xmlns:cc = "http://creativecommons.org/ns#">
    <cc:license rdf:resource="http://creativecommons.org/publicdomain/zero/1.0/deed.en"/>
    <cc:permits rdf:resource="http://creativecommons.org/ns#Reproduction"/>
    <rdf:Description about="https://nft.mir.one/fingerprints"
      dc:title="TON Fingerprints"
      dc:description="This is a unique digital fingerprint created based on the algorithm for generating basic rings using a noise texture. Like human fingerprints, you can now use it for the Web3 and Metaverse era as digital biometric information."
      dc:publisher="https://nft.mir.one"
      dc:date="2022-02-22"
      dc:format="image/svg+xml"
      dc:language="en" >
      <dc:creator>
      <rdf:Bag>
        <rdf:li>EQBondcvD2_aOFADXSWJHs4ZazQDuEl9_wNvGGPxI8hGuOFU</rdf:li>
        <rdf:li>ipfs://bafkreihj7iub3fhmhq6jn62noukt5wxn3gv6bvcg7wmt6ywvlurefezckq</rdf:li>
      </rdf:Bag>
      </dc:creator>
    </rdf:Description>
  </rdf:RDF>
</metadata>
<g transform="translate(0.000000,1000.000000) scale(0.100000,-0.100000)"
fill="#1b1f23" stroke="none">
<path d="M4750 7707 c69 -34 190 -84 270 -111 271 -89 384 -159 468 -288 28
-43 79 -95 161 -165 282 -240 426 -498 346 -620 -12 -17 -24 -23 -42 -21 -22
2 -34 17 -69 88 -47 94 -102 157 -249 284 -148 128 -206 150 -452 165 -348 22
-598 -39 -973 -235 -358 -188 -566 -345 -765 -577 -208 -241 -327 -465 -379
-714 -16 -76 -13 -103 10 -103 27 0 52 39 138 207 146 287 281 474 463 642
161 148 303 240 624 403 290 148 475 198 729 198 123 0 285 -19 361 -42 47
-14 91 -51 83 -71 -7 -19 -72 -53 -117 -61 -21 -4 -89 0 -155 10 -326 48 -631
-11 -815 -157 -26 -21 -78 -48 -115 -60 -185 -61 -409 -204 -573 -368 -166
-165 -240 -270 -390 -553 -43 -81 -98 -177 -123 -215 -86 -128 -110 -242 -110
-498 2 -521 178 -998 483 -1305 239 -240 538 -449 797 -554 328 -134 631 -150
746 -39 36 35 36 57 -3 73 -30 13 -79 67 -79 88 0 7 16 12 36 12 30 0 45 -8
84 -48 47 -47 47 -47 201 -65 126 -15 167 -16 224 -7 119 19 252 70 455 174
300 154 310 158 350 163 38 5 80 -9 80 -28 0 -17 -288 -200 -425 -271 -250
-128 -340 -157 -635 -207 -96 -17 -213 -40 -260 -52 -131 -33 -372 -38 -506
-10 -233 48 -444 146 -754 348 -102 66 -212 135 -245 153 -152 84 -232 162
-340 330 -27 41 -67 102 -89 135 -22 32 -67 111 -99 175 -65 126 -66 118 -5
-35 89 -221 215 -456 320 -598 41 -54 62 -73 103 -92 29 -12 101 -58 161 -102
384 -280 628 -410 888 -471 100 -23 131 -26 316 -26 228 -1 342 13 585 69 170
40 295 85 480 175 178 86 308 173 412 275 86 84 119 140 108 182 -5 20 5 36
51 86 124 134 252 330 326 500 80 185 202 586 222 727 5 40 3 37 -18 -25 -84
-252 -226 -565 -323 -715 -64 -98 -203 -245 -283 -299 -61 -42 -472 -254 -620
-321 -170 -77 -340 -126 -389 -113 -32 8 -27 47 9 73 16 11 89 47 162 79 164
72 440 210 574 286 289 166 461 361 608 692 67 149 99 249 131 406 94 474 31
1012 -176 1482 -85 195 -148 270 -186 220 -23 -31 -10 -87 66 -277 156 -393
204 -610 204 -938 0 -318 -60 -581 -195 -855 -125 -252 -286 -432 -518 -576
-111 -69 -749 -396 -820 -421 -111 -38 -297 -33 -524 13 -130 27 -280 75 -481
155 -88 34 -179 66 -201 70 -45 7 -84 -7 -84 -30 0 -40 127 -126 300 -202 141
-62 257 -101 435 -145 190 -48 218 -60 246 -106 38 -61 2 -66 -206 -28 -227
42 -458 126 -634 231 -107 63 -174 128 -205 197 -19 43 -43 70 -123 139 -187
161 -304 313 -402 518 -103 217 -149 410 -158 655 -9 267 27 411 177 713 95
190 194 348 284 451 108 124 171 169 526 373 74 43 146 91 160 107 45 51 392
141 547 141 127 0 211 -36 201 -87 -3 -15 -18 -19 -108 -25 -127 -9 -232 -28
-409 -74 -73 -19 -142 -34 -153 -34 -10 0 -43 -22 -71 -48 -53 -50 -174 -149
-261 -215 -40 -30 -57 -37 -95 -37 -64 0 -132 -42 -215 -132 -167 -180 -339
-511 -408 -786 -30 -118 -33 -431 -5 -561 61 -281 182 -517 357 -691 101 -102
171 -146 305 -193 55 -19 168 -61 250 -92 313 -118 497 -159 710 -159 210 0
321 34 473 146 44 33 132 81 225 122 176 79 303 151 415 235 450 340 648 1035
486 1701 -36 145 -80 272 -201 580 -58 146 -122 315 -143 377 -144 423 -339
685 -675 906 -230 151 -427 219 -763 262 -106 14 -202 25 -214 25 -12 0 34
-28 102 -63z m912 -1117 c63 -24 151 -88 156 -114 9 -42 -70 -48 -174 -12 -95
32 -151 62 -165 88 -29 54 81 77 183 38z m-252 -242 c47 -16 153 -54 237 -84
177 -62 220 -87 268 -152 67 -91 188 -305 231 -406 205 -484 148 -1046 -138
-1352 -86 -92 -132 -116 -213 -115 -47 0 -73 -5 -97 -18 -51 -30 -153 -61
-200 -61 -46 0 -88 22 -88 45 0 8 37 33 81 56 103 54 159 110 235 240 117 199
149 314 141 514 -7 156 -33 271 -108 471 -67 179 -75 250 -34 321 28 47 28 47
1 99 -32 60 -119 148 -189 188 -26 16 -80 40 -120 54 -223 79 -687 -31 -923
-219 -198 -157 -397 -502 -450 -777 -21 -110 -18 -299 6 -400 40 -166 107
-290 224 -411 154 -159 347 -258 596 -305 108 -21 564 -50 661 -42 138 11 307
67 432 143 76 46 190 157 244 238 86 129 146 272 185 446 20 90 23 131 23 304
0 294 -33 445 -176 802 -77 193 -91 258 -66 297 45 69 109 -27 227 -339 162
-431 190 -827 85 -1196 -114 -400 -377 -683 -751 -808 -50 -17 -116 -33 -147
-37 -55 -7 -292 5 -552 27 -477 40 -849 250 -1029 580 -140 257 -155 587 -39
899 42 116 103 232 220 421 102 165 188 260 306 337 101 66 201 104 417 158
120 31 200 57 255 84 93 47 107 47 245 -2z m-1302 -382 c8 -40 -12 -87 -88
-206 -160 -250 -248 -453 -285 -663 -26 -144 -17 -376 19 -507 97 -349 312
-582 681 -741 242 -103 421 -139 740 -146 127 -3 238 -10 248 -15 48 -25 -12
-67 -135 -94 -100 -22 -333 -23 -458 -1 -281 50 -637 192 -820 327 -237 176
-395 478 -430 825 -39 372 123 813 425 1158 75 86 96 99 103 63z m1177 -1
c124 -26 235 -100 235 -156 0 -40 -39 -44 -166 -15 -322 74 -597 -6 -804 -231
-171 -187 -253 -459 -206 -683 55 -261 267 -462 530 -501 136 -20 279 19 341
93 33 40 133 219 169 303 45 108 96 301 96 366 0 44 -7 71 -35 127 -63 125
-177 199 -323 209 -143 10 -257 -32 -358 -132 -70 -69 -108 -141 -124 -237
-44 -252 184 -463 395 -364 88 40 147 131 148 227 1 121 -100 202 -193 154
-35 -18 -50 -43 -50 -84 0 -36 13 -46 60 -46 32 0 35 -3 38 -31 6 -62 -86 -96
-158 -59 -77 40 -100 167 -47 257 112 191 400 161 463 -48 55 -185 -76 -457
-252 -524 -87 -32 -195 -26 -287 17 -268 127 -341 485 -153 761 148 218 417
315 683 246 196 -51 275 -141 379 -430 82 -230 84 -244 58 -372 -34 -171 -159
-363 -275 -427 -30 -15 -80 -52 -112 -80 -74 -67 -129 -86 -277 -92 -256 -12
-473 69 -641 236 -125 126 -195 270 -219 452 -48 360 194 806 525 972 184 92
396 126 560 92z"/>
<path d="M5801 5836 c-13 -15 8 -87 72 -248 91 -227 123 -398 114 -607 -8
-203 -50 -328 -179 -534 -48 -77 -71 -148 -51 -160 18 -11 75 27 137 93 100
106 171 242 218 418 30 112 36 364 14 503 -38 230 -146 476 -229 521 -38 20
-86 27 -96 14z"/>
<path d="M5576 5014 c-9 -8 -27 -54 -41 -102 -37 -124 -62 -185 -115 -287 -56
-107 -65 -138 -45 -155 68 -56 246 229 262 421 7 80 0 115 -26 129 -15 7 -23
6 -35 -6z"/>
<path d="M4481 7565 c-41 -8 -107 -24 -145 -36 -62 -20 -82 -33 -159 -106 -61
-58 -155 -128 -310 -230 -207 -136 -231 -155 -359 -285 -76 -76 -138 -144
-138 -150 0 -5 17 5 38 23 84 74 269 194 439 285 98 53 242 138 321 190 188
124 222 140 379 180 141 36 170 48 179 77 8 25 -11 45 -55 57 -47 13 -98 11
-190 -5z"/>
<path d="M4053 7495 c-24 -10 -134 -94 -173 -133 -26 -25 52 30 91 64 59 52
85 64 140 64 24 0 38 4 34 10 -9 14 -54 12 -92 -5z"/>
<path d="M4815 7391 c-409 -153 -452 -172 -741 -336 -336 -190 -432 -254 -536
-359 -186 -187 -386 -507 -512 -822 -43 -106 -45 -115 -8 -49 44 78 202 310
283 415 160 208 400 420 633 558 380 227 664 347 911 387 110 18 162 19 336 3
140 -12 190 -6 202 26 17 44 -70 110 -194 149 -163 51 -287 60 -374 28z"/>
<path d="M6135 7345 c31 -38 76 -108 99 -155 24 -47 66 -125 94 -173 28 -49
90 -175 139 -280 93 -203 97 -209 233 -327 62 -53 130 -143 182 -237 21 -37
38 -63 38 -58 0 22 -120 247 -191 360 -42 66 -107 179 -146 250 -143 266 -277
459 -420 604 -85 86 -85 86 -28 16z"/>
<path d="M2922 5310 c0 -19 2 -27 5 -17 2 9 2 25 0 35 -3 9 -5 1 -5 -18z"/>
<path d="M2913 5210 c0 -25 2 -35 4 -22 2 12 2 32 0 45 -2 12 -4 2 -4 -23z"/>
<path d="M2902 5100 c0 -14 2 -19 5 -12 2 6 2 18 0 25 -3 6 -5 1 -5 -13z"/>
<path d="M7071 4664 c0 -11 3 -14 6 -6 3 7 2 16 -1 19 -3 4 -6 -2 -5 -13z"/>
<path d="M3462 3100 c0 -14 2 -19 5 -12 2 6 2 18 0 25 -3 6 -5 1 -5 -13z"/>
<path d="M6484 3008 c-29 -33 -29 -33 4 -4 17 17 32 31 32 33 0 8 -8 1 -36
-29z"/>
<path d="M3585 2961 c22 -10 83 -58 135 -106 326 -297 584 -444 900 -512 119
-25 538 -25 685 0 131 23 284 64 365 97 153 63 592 356 722 482 29 28 44 44
33 35 -39 -31 -293 -171 -511 -282 -284 -146 -415 -186 -714 -220 -180 -21
-525 -16 -634 9 -244 57 -460 166 -740 375 -148 110 -203 141 -251 141 -30 0
-30 -1 10 -19z"/>
</g>
</svg>
