<?xml version="1.0" standalone="no"?>
<!DOCTYPE svg PUBLIC "-//W3C//DTD SVG 20010904//EN"
 "http://www.w3.org/TR/2001/REC-SVG-20010904/DTD/svg10.dtd">
<svg version="1.0" xmlns="http://www.w3.org/2000/svg"
 width="1000.000000pt" height="1000.000000pt" viewBox="0 0 1000.000000 1000.000000"
 preserveAspectRatio="xMidYMid meet">
<metadata>
  <rdf:RDF
    xmlns:rdf = "http://www.w3.org/1999/02/22-rdf-syntax-ns#"
    xmlns:rdfs = "http://www.w3.org/2000/01/rdf-schema#"
    xmlns:dc = "http://purl.org/dc/elements/1.1/"
    xmlns:cc = "http://creativecommons.org/ns#">
    <cc:license rdf:resource="http://creativecommons.org/publicdomain/zero/1.0/deed.en"/>
    <cc:permits rdf:resource="http://creativecommons.org/ns#Reproduction"/>
    <rdf:Description about="https://nft.mir.one/fingerprints"
      dc:title="TON Fingerprints"
      dc:description="This is a unique digital fingerprint created based on the algorithm for generating basic rings using a noise texture. Like human fingerprints, you can now use it for the Web3 and Metaverse era as digital biometric information."
      dc:publisher="https://nft.mir.one"
      dc:date="2022-02-22"
      dc:format="image/svg+xml"
      dc:language="en" >
      <dc:creator>
      <rdf:Bag>
        <rdf:li>EQBondcvD2_aOFADXSWJHs4ZazQDuEl9_wNvGGPxI8hGuOFU</rdf:li>
        <rdf:li>ipfs://bafkreihj7iub3fhmhq6jn62noukt5wxn3gv6bvcg7wmt6ywvlurefezckq</rdf:li>
      </rdf:Bag>
      </dc:creator>
    </rdf:Description>
  </rdf:RDF>
</metadata>
<g transform="translate(0.000000,1000.000000) scale(0.100000,-0.100000)"
fill="#1b1f23" stroke="none">
<path d="M5385 7755 c12 -61 51 -98 186 -180 178 -108 206 -135 225 -210 9
-33 29 -86 46 -117 42 -79 155 -216 200 -242 35 -20 38 -20 55 -4 16 17 16 20
-1 55 -10 21 -61 100 -113 178 -52 77 -99 150 -104 163 -12 32 19 56 84 62 52
5 52 5 -18 27 -77 24 -461 201 -512 236 -18 12 -37 31 -43 42 -9 17 -10 15 -5
-10z"/>
<path d="M4710 7633 c-90 -9 -239 -37 -308 -58 -134 -41 -141 -45 -162 -86
-25 -48 -52 -68 -224 -168 -236 -138 -306 -195 -306 -252 0 -40 14 -43 50 -13
17 15 92 53 166 85 74 32 192 88 262 125 219 117 251 131 335 149 106 23 300
23 420 1 169 -32 339 -104 503 -214 100 -68 536 -451 602 -531 106 -126 191
-293 229 -449 22 -90 24 -311 3 -336 -19 -23 -77 -16 -120 14 -45 32 -78 38
-140 23 -115 -27 -179 -16 -441 71 -256 86 -351 107 -514 113 -140 5 -230 -4
-283 -29 -14 -7 -39 -32 -55 -56 -30 -44 -64 -73 -206 -177 -164 -118 -274
-252 -338 -409 -27 -67 -38 -83 -67 -98 -72 -37 -101 -110 -100 -258 1 -230
100 -428 320 -640 215 -208 427 -300 690 -300 194 0 349 51 477 157 166 139
358 447 416 667 40 153 22 308 -49 420 -84 131 -321 298 -504 355 -264 81
-518 19 -712 -175 -142 -141 -190 -359 -114 -516 30 -62 167 -244 209 -277
203 -161 483 -92 568 141 19 53 33 63 60 43 14 -10 18 -26 18 -67 -2 -144
-155 -289 -338 -320 -288 -48 -595 216 -663 570 -42 221 8 377 172 533 129
122 285 215 403 240 90 18 287 6 406 -25 108 -29 382 -135 510 -197 215 -105
294 -236 282 -469 -8 -154 -29 -210 -165 -445 -100 -172 -173 -281 -303 -451
-138 -179 -214 -234 -394 -286 -71 -20 -101 -23 -260 -22 -166 0 -187 2 -270
27 -246 75 -443 214 -648 457 -180 214 -236 350 -237 576 0 129 25 227 89 355
139 275 279 416 567 570 61 32 119 68 130 80 19 21 18 21 -5 40 -29 24 -97 25
-170 3 -81 -24 -330 -147 -393 -194 -102 -77 -240 -272 -299 -423 -53 -139
-70 -221 -76 -367 -6 -155 6 -270 43 -398 39 -136 60 -172 122 -205 39 -21 77
-58 151 -145 163 -194 277 -294 446 -391 326 -187 713 -205 1080 -51 55 23
145 57 200 74 125 41 283 125 326 174 18 20 67 109 110 197 119 248 141 325
96 333 -31 6 -74 -46 -162 -193 -45 -77 -104 -168 -129 -202 -94 -125 -266
-238 -266 -175 0 25 29 67 99 147 35 39 114 147 177 241 132 198 184 252 273
285 35 12 69 32 77 44 8 12 27 89 44 171 16 82 43 188 60 236 33 98 38 176 19
313 -6 42 -11 177 -13 298 -2 203 -5 230 -28 318 -79 294 -252 572 -429 691
-92 62 -206 173 -323 315 -42 51 -107 118 -144 149 -79 65 -222 156 -307 194
-137 62 -358 92 -545 73z m595 -2057 c95 -25 149 -66 143 -108 -3 -23 -3 -23
-193 -23 -171 0 -196 -2 -255 -23 -127 -44 -217 -137 -272 -280 -32 -86 -47
-103 -72 -83 -38 31 -21 174 31 274 107 204 373 309 618 243z m-1115 -256 c25
-13 46 -76 65 -190 34 -206 110 -356 249 -496 277 -277 666 -294 904 -39 72
77 113 149 137 241 26 101 15 195 -37 297 -34 68 -33 96 3 116 33 18 69 9 114
-31 67 -58 80 -97 79 -233 0 -104 -4 -129 -26 -187 -88 -232 -259 -408 -461
-474 -71 -24 -99 -28 -207 -28 -148 0 -212 14 -345 79 -222 107 -411 326 -485
560 -32 99 -42 395 -14 395 3 0 14 -4 24 -10z m1025 -99 c59 -27 78 -53 83
-115 4 -54 4 -54 -80 -148 -94 -105 -147 -138 -218 -138 -95 1 -168 60 -178
145 -9 85 70 208 163 251 64 30 170 33 230 5z"/>
<path d="M5004 5015 c-5 -21 -12 -25 -40 -25 -27 0 -34 -4 -34 -19 0 -23 36
-51 65 -51 49 0 95 62 75 101 -16 29 -58 25 -66 -6z"/>
<path d="M4150 7543 c14 -3 31 -10 38 -15 15 -13 27 -4 17 11 -3 6 -23 10 -43
10 -28 -1 -31 -3 -12 -6z"/>
<path d="M6050 7309 c0 -11 25 -59 57 -106 31 -47 68 -119 83 -159 32 -85 50
-118 154 -274 96 -144 214 -381 261 -525 20 -60 56 -208 80 -327 63 -307 89
-404 151 -560 93 -234 117 -361 117 -618 0 -243 -35 -418 -111 -552 -34 -61
-77 -93 -92 -68 -10 16 -8 28 25 145 36 127 49 258 42 444 -9 264 -49 459
-107 521 -34 37 -55 36 -84 -3 -19 -26 -21 -41 -20 -150 1 -80 9 -164 23 -242
12 -66 28 -191 36 -277 15 -181 8 -264 -31 -389 -23 -73 -33 -88 -100 -158
-72 -76 -169 -141 -210 -141 -26 0 -77 -33 -172 -110 -201 -163 -451 -272
-747 -327 -62 -11 -145 -16 -270 -16 -194 0 -296 15 -461 68 -353 115 -714
403 -889 710 -59 104 -77 161 -124 400 -53 270 -51 260 -61 409 -25 401 49
622 333 1004 47 64 80 119 87 145 51 211 292 398 596 462 105 23 301 23 418 1
242 -46 448 -141 706 -326 84 -60 115 -78 121 -68 37 58 -82 211 -263 338
-287 202 -622 303 -904 271 -175 -20 -323 -71 -456 -156 -90 -59 -147 -113
-223 -210 -85 -109 -391 -572 -449 -678 -98 -179 -155 -367 -142 -466 3 -25
11 -138 16 -251 24 -474 105 -767 290 -1043 77 -115 220 -272 338 -371 223
-185 509 -327 772 -383 120 -26 495 -26 625 0 263 52 469 135 764 309 75 44
177 104 227 134 143 84 245 165 329 261 96 109 127 162 166 282 58 182 74 305
74 601 0 285 -5 330 -66 630 -121 585 -255 947 -480 1290 -177 272 -390 550
-420 550 -5 0 -9 -9 -9 -21z"/>
<path d="M4635 7229 c-100 -12 -226 -50 -372 -115 -289 -127 -335 -144 -395
-144 -35 0 -75 8 -104 21 -48 20 -48 20 -79 -15 -16 -19 -57 -54 -90 -78 -96
-69 -154 -121 -239 -213 -78 -86 -78 -86 -5 -39 41 26 91 60 111 76 68 53 166
98 214 98 39 0 49 -5 90 -45 43 -43 46 -48 39 -83 -12 -66 -62 -143 -226 -347
-184 -230 -335 -450 -402 -586 -56 -115 -147 -386 -177 -529 -16 -76 -24 -154
-28 -282 -11 -382 48 -624 253 -1043 177 -362 374 -570 874 -923 107 -75 229
-164 273 -197 153 -117 181 -134 247 -156 85 -29 165 -29 264 -2 65 19 106 23
260 24 365 4 507 22 714 91 224 74 424 209 678 460 160 158 160 158 75 112
-47 -26 -103 -59 -125 -74 -159 -108 -431 -249 -595 -308 -257 -94 -411 -116
-815 -116 -367 -1 -392 3 -579 98 -347 177 -725 469 -942 728 -153 183 -352
529 -433 753 -89 245 -104 527 -40 765 22 80 49 133 110 214 21 28 62 105 90
171 101 237 180 370 418 703 98 137 202 289 231 336 98 162 205 251 403 332
438 178 876 98 1320 -243 196 -151 274 -257 372 -503 48 -119 62 -142 89 -138
67 10 58 167 -19 334 -73 158 -204 309 -425 487 -290 234 -528 346 -795 377
-101 11 -139 11 -240 -1z"/>
<path d="M3551 7046 c10 -9 79 -14 74 -5 -4 5 -22 9 -42 9 -20 0 -34 -2 -32
-4z"/>
<path d="M3639 6729 c-172 -111 -365 -353 -504 -629 -73 -146 -156 -336 -138
-315 30 34 90 117 167 230 102 150 201 272 386 475 141 155 185 211 196 253 5
24 3 27 -18 27 -14 0 -54 -19 -89 -41z"/>
<path d="M4712 6470 c-171 -18 -314 -69 -447 -161 -147 -101 -200 -198 -109
-199 11 0 61 20 110 43 220 107 300 126 539 126 272 1 433 -30 720 -136 433
-161 538 -162 398 -4 -48 53 -48 53 -118 55 -66 1 -80 6 -240 83 -333 161
-592 219 -853 193z"/>
<path d="M3231 5249 c-71 -117 -79 -466 -16 -714 89 -351 345 -774 616 -1018
248 -222 565 -422 799 -505 139 -49 259 -65 480 -65 386 0 641 56 969 214 262
126 534 292 620 378 20 20 75 91 122 158 82 115 84 120 46 92 -22 -16 -44 -29
-49 -29 -4 0 -38 -23 -76 -51 -37 -28 -121 -78 -187 -113 -66 -34 -203 -108
-305 -164 -454 -249 -781 -336 -1190 -318 -241 10 -397 50 -615 156 -434 212
-788 568 -965 970 -112 254 -160 500 -160 822 0 175 -8 211 -47 216 -16 2 -28
-6 -42 -29z"/>
<path d="M6412 4783 c-6 -10 -12 -61 -14 -113 -4 -87 -9 -107 -61 -235 -71
-177 -100 -289 -101 -387 -1 -60 3 -81 16 -94 16 -16 18 -16 45 1 37 25 58 51
88 110 21 43 23 55 15 85 -6 19 -10 52 -10 73 0 59 46 182 93 248 40 58 42 64
42 132 0 46 -7 89 -18 120 -26 67 -75 98 -95 60z"/>
<path d="M3810 4475 c-34 -90 99 -315 298 -507 223 -214 513 -359 807 -404
199 -31 471 -8 678 56 226 70 449 208 501 308 22 43 30 100 16 117 -21 25 -46
17 -122 -41 -128 -98 -379 -211 -560 -253 -396 -92 -771 -18 -1102 216 -110
79 -268 239 -346 352 -133 192 -150 208 -170 156z"/>
<path d="M6537 4435 c-16 -15 -46 -99 -71 -199 -18 -67 -9 -98 25 -89 68 18
128 248 75 292 -11 9 -18 8 -29 -4z"/>
<path d="M3160 3695 c195 -363 397 -599 723 -847 67 -51 152 -120 188 -154
123 -115 309 -154 285 -59 -4 16 -32 42 -79 75 -104 72 -391 281 -521 380
-190 146 -384 349 -574 604 -71 94 -73 94 -22 1z"/>
<path d="M3700 2796 c0 -6 182 -122 228 -145 58 -29 89 -25 47 7 -29 22 -275
145 -275 138z"/>
<path d="M6200 2716 c-28 -16 -177 -69 -350 -126 -201 -66 -267 -71 -741 -60
-231 5 -254 1 -247 -43 9 -61 130 -86 436 -89 194 -2 226 0 305 20 106 26 229
76 362 146 97 52 265 154 265 162 0 6 -2 5 -30 -10z"/>
<path d="M4345 2459 c-239 -23 -234 -22 -190 -31 22 -5 101 -20 176 -33 75
-13 153 -31 173 -39 37 -15 57 -43 40 -55 -5 -3 -15 -17 -22 -31 -12 -24 -12
-23 13 3 26 29 26 29 183 2 203 -34 346 -45 505 -38 70 3 125 8 123 10 -2 2
-82 13 -177 23 -96 11 -200 24 -232 30 -70 13 -271 82 -336 114 -90 45 -148
55 -256 45z"/>
</g>
</svg>
