<?xml version="1.0" standalone="no"?>
<!DOCTYPE svg PUBLIC "-//W3C//DTD SVG 20010904//EN"
 "http://www.w3.org/TR/2001/REC-SVG-20010904/DTD/svg10.dtd">
<svg version="1.0" xmlns="http://www.w3.org/2000/svg"
 width="1000.000000pt" height="1000.000000pt" viewBox="0 0 1000.000000 1000.000000"
 preserveAspectRatio="xMidYMid meet">
<metadata>
  <rdf:RDF
    xmlns:rdf = "http://www.w3.org/1999/02/22-rdf-syntax-ns#"
    xmlns:rdfs = "http://www.w3.org/2000/01/rdf-schema#"
    xmlns:dc = "http://purl.org/dc/elements/1.1/"
    xmlns:cc = "http://creativecommons.org/ns#">
    <cc:license rdf:resource="http://creativecommons.org/publicdomain/zero/1.0/deed.en"/>
    <cc:permits rdf:resource="http://creativecommons.org/ns#Reproduction"/>
    <rdf:Description about="https://nft.mir.one/fingerprints"
      dc:title="TON Fingerprints"
      dc:description="This is a unique digital fingerprint created based on the algorithm for generating basic rings using a noise texture. Like human fingerprints, you can now use it for the Web3 and Metaverse era as digital biometric information."
      dc:publisher="https://nft.mir.one"
      dc:date="2022-02-22"
      dc:format="image/svg+xml"
      dc:language="en" >
      <dc:creator>
      <rdf:Bag>
        <rdf:li>EQBondcvD2_aOFADXSWJHs4ZazQDuEl9_wNvGGPxI8hGuOFU</rdf:li>
        <rdf:li>ipfs://bafkreihj7iub3fhmhq6jn62noukt5wxn3gv6bvcg7wmt6ywvlurefezckq</rdf:li>
      </rdf:Bag>
      </dc:creator>
    </rdf:Description>
  </rdf:RDF>
</metadata>
<g transform="translate(0.000000,1000.000000) scale(0.100000,-0.100000)"
fill="#1b1f23" stroke="none">
<path d="M4570 7744 c19 -3 64 -12 100 -20 36 -9 152 -33 258 -55 463 -94 731
-180 1007 -322 183 -95 417 -250 545 -361 25 -21 -7 13 -71 76 -300 295 -608
482 -970 587 -237 69 -393 91 -679 96 -124 2 -209 1 -190 -1z"/>
<path d="M4350 7565 c-76 -14 -364 -105 -356 -112 4 -4 148 10 271 27 192 26
307 6 490 -84 122 -60 140 -66 280 -90 302 -53 501 -115 730 -226 340 -165
632 -419 760 -662 50 -94 64 -138 80 -257 10 -67 35 -165 69 -270 84 -256 116
-396 136 -590 27 -275 -5 -573 -106 -973 -63 -254 -121 -362 -253 -479 -46
-40 -62 -62 -70 -95 -8 -30 -24 -53 -56 -82 -127 -111 -331 -224 -520 -287
-60 -20 -220 -63 -355 -97 -151 -37 -291 -78 -365 -108 -66 -26 -165 -62 -220
-80 -55 -18 -129 -47 -165 -65 -150 -74 -267 -87 -425 -46 -356 92 -751 351
-1015 666 -18 22 -63 72 -98 110 -66 70 -66 70 -22 -10 128 -236 234 -381 399
-546 183 -183 281 -243 621 -379 179 -72 272 -99 371 -107 75 -6 75 -6 108 36
18 23 56 53 83 67 98 50 579 205 913 295 301 81 506 163 765 307 232 128 270
167 425 422 32 52 74 115 94 140 66 81 66 81 7 49 -35 -19 -78 -56 -114 -97
-112 -130 -196 -212 -237 -232 -50 -24 -98 -26 -116 -4 -12 15 -10 20 15 38
137 99 270 257 337 401 49 105 62 165 101 445 29 214 32 258 33 495 0 361 -17
461 -164 977 -84 294 -114 375 -181 487 -218 361 -522 606 -967 779 -156 61
-290 100 -533 158 -102 24 -221 53 -265 65 -104 28 -371 35 -485 14z"/>
<path d="M4250 7370 c-157 -33 -340 -109 -545 -224 -100 -56 -100 -56 -50 -50
28 3 90 17 139 31 196 54 558 142 672 163 135 25 150 31 141 54 -19 48 -197
61 -357 26z"/>
<path d="M4617 7271 c-48 -37 -364 -143 -632 -212 -204 -52 -300 -89 -487
-188 -95 -49 -95 -49 -48 -56 52 -7 109 1 315 46 298 65 559 130 575 141 10 7
36 27 59 45 23 17 77 46 119 63 157 63 221 99 228 126 8 33 -11 53 -57 60 -27
3 -42 -2 -72 -25z"/>
<path d="M4905 7139 c-33 -4 -84 -17 -114 -28 -29 -12 -106 -37 -170 -56 -141
-43 -188 -63 -196 -83 -17 -44 100 -54 290 -27 305 44 631 -13 960 -169 259
-124 439 -264 639 -500 96 -112 132 -141 161 -130 25 10 18 73 -16 144 -106
226 -393 483 -714 643 -292 145 -644 232 -840 206z"/>
<path d="M4164 6818 c-59 -10 -218 -43 -353 -74 -286 -65 -325 -82 -441 -191
-66 -62 -249 -283 -235 -283 3 0 17 7 31 17 14 9 38 23 53 32 16 9 66 41 112
73 132 88 242 131 503 193 368 89 498 106 796 108 226 1 259 -4 380 -58 42
-19 123 -43 185 -55 343 -67 514 -138 726 -302 114 -88 308 -280 382 -380 240
-320 310 -840 171 -1272 -43 -134 -82 -198 -352 -570 -197 -272 -472 -375
-787 -293 -133 35 -328 102 -390 135 -46 25 -120 91 -372 334 -149 143 -300
357 -345 486 -34 100 -32 266 5 377 34 103 88 185 181 272 140 133 292 203
457 211 163 7 273 -38 450 -187 114 -96 138 -132 161 -246 12 -63 7 -85 -22
-85 -14 0 -36 25 -76 87 -62 95 -147 183 -238 244 -158 106 -352 98 -531 -23
-87 -57 -142 -118 -189 -208 -87 -166 -88 -328 -1 -505 104 -215 352 -428 569
-490 75 -22 176 -16 215 12 27 20 203 350 267 501 19 45 53 153 74 238 40 155
40 155 42 402 3 247 3 247 -30 316 -40 86 -159 207 -282 288 -105 70 -163 93
-270 109 -134 19 -323 -11 -441 -72 -20 -10 -81 -53 -135 -96 -186 -145 -225
-173 -245 -173 -25 0 -25 35 1 75 11 17 64 73 119 125 79 75 101 104 110 136
10 37 17 44 61 63 136 58 423 108 565 97 129 -9 171 -26 245 -98 36 -35 113
-102 172 -150 111 -91 189 -177 247 -273 38 -63 42 -98 19 -160 -9 -22 -23
-93 -33 -157 -17 -123 -14 -183 13 -251 33 -84 -19 -274 -144 -527 -42 -85
-84 -182 -94 -215 -10 -33 -29 -82 -44 -109 -60 -112 -18 -141 132 -90 139 48
191 80 287 178 134 136 226 303 282 513 23 86 27 118 27 258 1 141 -2 169 -22
235 -52 163 -125 274 -317 477 -125 132 -228 215 -366 296 -49 28 -91 57 -93
64 -8 20 23 43 58 43 114 0 307 -119 486 -300 200 -201 310 -389 356 -605 71
-332 -27 -700 -265 -997 -110 -138 -210 -209 -389 -277 -107 -40 -143 -72
-123 -109 18 -35 81 -48 161 -34 181 31 335 149 506 388 135 189 193 307 239
486 37 140 46 386 20 540 -45 272 -156 479 -375 698 -141 141 -253 226 -386
291 -123 61 -236 86 -419 95 -118 6 -140 4 -242 -20 -62 -15 -236 -47 -385
-72 -150 -24 -300 -52 -333 -60 -77 -20 -166 -65 -233 -116 -106 -82 -259
-278 -340 -434 -53 -104 -181 -458 -202 -558 -18 -87 -16 -233 4 -293 18 -55
57 -99 80 -90 16 7 36 88 36 152 0 59 25 187 44 223 20 38 63 73 82 65 19 -7
18 -35 -6 -194 -24 -154 -31 -182 -73 -262 -30 -59 -30 -59 -14 -155 30 -182
111 -374 195 -464 35 -38 51 -48 71 -46 40 5 38 49 -8 190 -61 189 -67 276
-41 568 22 249 22 265 -15 400 -8 30 -15 69 -15 86 0 17 -7 51 -15 74 -21 61
-19 104 13 195 44 126 136 273 235 374 104 108 233 169 293 139 15 -7 29 -18
31 -24 2 -6 -27 -26 -64 -45 -48 -24 -93 -59 -153 -119 -80 -80 -91 -97 -173
-260 -117 -230 -127 -297 -41 -276 14 4 67 46 117 94 64 60 112 97 158 119 37
17 122 66 190 109 213 133 312 167 484 167 154 -1 287 -51 412 -155 91 -76
163 -186 163 -251 0 -56 -27 -43 -133 65 -83 85 -116 112 -177 142 -102 50
-169 66 -275 66 -161 0 -291 -47 -488 -176 -130 -85 -195 -140 -261 -223 -113
-140 -128 -199 -131 -531 -2 -157 -7 -256 -15 -275 -23 -59 -14 -152 30 -305
23 -80 52 -163 65 -185 91 -157 308 -297 543 -350 195 -44 251 -63 392 -133
135 -67 135 -67 290 -67 122 0 178 5 261 23 200 42 356 106 476 196 81 61 118
114 191 269 80 168 150 268 222 317 31 21 64 49 72 62 24 38 65 147 88 238 96
376 86 744 -30 1092 -59 176 -104 263 -175 333 -329 326 -420 406 -567 502
-210 138 -498 242 -828 298 -148 26 -720 28 -866 3z m1696 -1283 c54 -28 133
-166 156 -274 18 -86 18 -137 -2 -252 -35 -203 -125 -413 -239 -556 -88 -112
-177 -175 -207 -145 -13 13 -2 34 77 144 113 157 199 351 260 586 39 149 31
237 -29 315 -31 40 -84 167 -79 185 6 16 28 15 63 -3z m-865 -206 c48 -12 88
-43 83 -65 -2 -11 -22 -16 -83 -17 -64 -2 -90 -8 -131 -30 -173 -89 -218 -309
-92 -452 57 -65 108 -89 189 -90 56 0 73 4 114 30 99 61 141 184 95 279 -37
77 -125 111 -170 66 -11 -11 -20 -24 -20 -30 0 -5 9 -14 20 -20 11 -6 20 -21
20 -35 0 -57 -77 -76 -121 -29 -18 19 -24 37 -24 69 0 75 55 128 175 166 60
20 72 21 100 9 47 -19 122 -100 156 -167 25 -51 29 -69 29 -144 0 -78 -3 -91
-38 -162 -48 -97 -121 -178 -195 -214 -47 -23 -70 -28 -128 -28 -62 1 -82 6
-145 37 -122 61 -224 178 -263 303 -29 90 -19 214 22 298 56 112 148 190 262
221 68 18 90 19 145 5z m839 -54 c12 -78 -15 -165 -50 -165 -14 0 -16 12 -12
83 2 45 10 92 17 105 19 36 38 27 45 -23z m-1672 -782 c14 -16 59 -80 100
-143 100 -153 160 -222 290 -330 59 -50 116 -103 125 -117 16 -24 16 -26 -2
-39 -26 -19 -51 -17 -115 9 -102 42 -232 148 -305 247 -66 91 -165 312 -165
370 0 25 4 30 23 30 13 0 35 -12 49 -27z"/>
<path d="M4584 6579 c-187 -12 -344 -37 -529 -84 -94 -24 -211 -50 -260 -59
-118 -22 -174 -40 -265 -87 -179 -92 -279 -199 -380 -404 -127 -257 -211 -613
-209 -882 0 -89 1 -95 58 -368 102 -493 192 -721 369 -941 279 -346 788 -643
1103 -644 76 0 125 14 139 40 24 44 -15 69 -185 120 -427 128 -808 400 -1031
736 -121 182 -194 354 -311 733 -74 242 -75 248 -76 356 -1 329 169 721 423
976 137 137 283 227 352 217 47 -6 30 -35 -79 -133 -218 -198 -327 -346 -426
-575 -78 -182 -107 -317 -107 -493 0 -145 25 -268 96 -476 124 -363 267 -607
446 -762 246 -214 446 -335 739 -448 85 -32 181 -71 214 -86 36 -15 87 -29
126 -32 153 -13 275 74 185 132 -12 8 -107 39 -211 69 -369 106 -494 167 -755
371 -58 44 -131 97 -163 116 -77 44 -171 146 -224 240 -52 90 -239 558 -258
643 -32 146 -26 290 21 466 68 260 182 473 369 690 50 58 116 138 148 177 52
66 67 77 150 117 141 68 280 98 668 145 202 25 261 54 211 103 -15 15 -40 23
-99 29 -88 9 -83 9 -249 -2z"/>
<path d="M7081 4764 c0 -11 3 -14 6 -6 3 7 2 16 -1 19 -3 4 -6 -2 -5 -13z"/>
<path d="M7072 4700 c0 -14 2 -19 5 -12 2 6 2 18 0 25 -3 6 -5 1 -5 -13z"/>
<path d="M7052 4607 c-15 -83 -26 -183 -19 -177 7 6 40 231 34 236 -2 2 -9
-24 -15 -59z"/>
<path d="M6496 4220 c-32 -39 -100 -153 -126 -215 -25 -59 -27 -123 -3 -132
23 -9 68 45 134 164 47 85 54 105 54 153 0 67 -19 77 -59 30z"/>
<path d="M6731 3416 c-6 -8 -35 -24 -64 -36 -29 -12 -96 -49 -150 -82 -232
-141 -439 -220 -917 -348 -326 -87 -367 -99 -521 -159 -59 -22 -147 -47 -195
-55 -49 -8 -124 -20 -166 -27 -71 -11 -78 -14 -78 -34 0 -31 57 -79 117 -99
26 -8 102 -24 168 -35 66 -11 147 -31 180 -44 93 -38 169 -50 267 -43 206 14
450 89 707 217 176 88 176 88 124 88 -31 1 -128 -19 -246 -49 -355 -90 -725
-143 -785 -111 -52 28 -7 70 105 99 43 11 146 34 228 52 217 46 498 117 590
148 169 59 301 156 515 382 78 82 140 150 137 150 -2 0 -10 -6 -16 -14z"/>
<path d="M3605 2903 c59 -54 295 -207 423 -275 145 -77 152 -83 152 -128 0
-27 -6 -43 -20 -53 -17 -12 -13 -13 43 -14 41 0 101 -13 178 -37 159 -49 341
-92 479 -113 167 -25 466 -24 625 2 120 20 120 20 -50 27 -285 12 -578 66
-895 163 -206 63 -226 73 -324 150 -39 30 -107 70 -155 91 -48 20 -135 59
-196 86 -60 28 -128 56 -150 63 -22 7 -58 20 -80 30 -22 9 -35 13 -30 8z"/>
<path d="M6268 2763 c7 -3 16 -2 19 1 4 3 -2 6 -13 5 -11 0 -14 -3 -6 -6z"/>
</g>
</svg>
