<?xml version="1.0" standalone="no"?>
<!DOCTYPE svg PUBLIC "-//W3C//DTD SVG 20010904//EN"
 "http://www.w3.org/TR/2001/REC-SVG-20010904/DTD/svg10.dtd">
<svg version="1.0" xmlns="http://www.w3.org/2000/svg"
 width="1000.000000pt" height="1000.000000pt" viewBox="0 0 1000.000000 1000.000000"
 preserveAspectRatio="xMidYMid meet">
<metadata>
  <rdf:RDF
    xmlns:rdf = "http://www.w3.org/1999/02/22-rdf-syntax-ns#"
    xmlns:rdfs = "http://www.w3.org/2000/01/rdf-schema#"
    xmlns:dc = "http://purl.org/dc/elements/1.1/"
    xmlns:cc = "http://creativecommons.org/ns#">
    <cc:license rdf:resource="http://creativecommons.org/publicdomain/zero/1.0/deed.en"/>
    <cc:permits rdf:resource="http://creativecommons.org/ns#Reproduction"/>
    <rdf:Description about="https://nft.mir.one/fingerprints"
      dc:title="TON Fingerprints"
      dc:description="This is a unique digital fingerprint created based on the algorithm for generating basic rings using a noise texture. Like human fingerprints, you can now use it for the Web3 and Metaverse era as digital biometric information."
      dc:publisher="https://nft.mir.one"
      dc:date="2022-02-22"
      dc:format="image/svg+xml"
      dc:language="en" >
      <dc:creator>
      <rdf:Bag>
        <rdf:li>EQBondcvD2_aOFADXSWJHs4ZazQDuEl9_wNvGGPxI8hGuOFU</rdf:li>
        <rdf:li>ipfs://bafkreihj7iub3fhmhq6jn62noukt5wxn3gv6bvcg7wmt6ywvlurefezckq</rdf:li>
      </rdf:Bag>
      </dc:creator>
    </rdf:Description>
  </rdf:RDF>
</metadata>
<g transform="translate(0.000000,1000.000000) scale(0.100000,-0.100000)"
fill="#1b1f23" stroke="none">
<path d="M5115 7771 c22 -24 57 -56 77 -73 33 -26 39 -27 44 -13 9 22 -25 55
-101 96 -60 32 -60 32 -20 -10z"/>
<path d="M4595 7715 c56 -43 315 -172 473 -234 236 -94 334 -160 532 -360 128
-128 288 -327 360 -446 20 -33 36 -31 55 5 61 119 -70 359 -358 656 -121 125
-218 203 -317 255 -37 19 -61 24 -130 24 -69 1 -115 10 -250 48 -91 26 -210
54 -265 62 -55 9 -111 19 -125 22 -19 5 -13 -3 25 -32z"/>
<path d="M5566 7708 c38 -62 121 -168 189 -239 205 -216 355 -440 415 -620 36
-106 107 -422 165 -737 69 -372 76 -397 129 -507 57 -117 71 -160 101 -311 80
-392 100 -647 70 -889 -11 -87 -20 -269 -25 -480 -7 -291 -12 -364 -34 -502
-26 -162 -26 -162 -2 -207 24 -44 24 -44 30 0 3 24 23 99 45 166 81 248 118
454 131 718 10 220 19 262 68 328 32 44 37 91 23 209 -42 349 -101 583 -234
940 -61 162 -74 216 -92 379 -8 77 -20 164 -26 194 -5 30 -14 141 -18 245 -8
171 -11 198 -36 265 -105 287 -351 618 -621 837 -148 120 -286 225 -278 211z"/>
<path d="M4190 7557 c19 -13 52 -34 74 -45 21 -12 44 -31 50 -43 7 -14 34 -29
76 -44 36 -12 164 -71 285 -131 121 -60 270 -131 332 -157 137 -59 258 -139
384 -254 107 -97 297 -300 384 -408 139 -175 243 -467 310 -878 30 -183 41
-218 95 -307 49 -81 65 -143 91 -345 18 -134 20 -196 16 -380 -6 -302 -29
-418 -108 -557 -21 -37 -70 -140 -109 -230 -107 -240 -189 -381 -332 -570 -95
-126 -215 -316 -269 -425 -52 -107 -72 -124 -90 -76 -31 83 74 303 331 689
164 247 213 336 289 526 101 255 129 377 138 613 10 258 -20 468 -102 729 -24
77 -67 236 -95 351 -137 558 -248 773 -565 1091 -151 152 -236 220 -330 265
-50 24 -73 29 -135 29 -75 0 -75 0 -195 78 -66 43 -172 110 -235 149 -63 39
-140 93 -170 118 -54 47 -54 47 -150 41 -52 -4 -141 -12 -197 -18 -102 -12
-102 -12 -65 -38 20 -14 82 -46 137 -69 118 -51 204 -100 340 -192 152 -103
235 -178 347 -317 57 -70 185 -211 284 -314 261 -269 368 -408 337 -439 -21
-21 -62 0 -141 71 -42 39 -145 131 -229 205 -85 76 -213 205 -291 293 -152
172 -235 254 -327 324 -92 69 -219 150 -328 207 -90 47 -102 51 -165 50 -37 0
-104 -6 -150 -12 -83 -12 -83 -12 -55 -38 15 -14 91 -59 168 -99 375 -196 557
-341 722 -576 90 -128 168 -199 291 -268 116 -65 187 -116 337 -241 152 -128
205 -207 245 -367 12 -45 52 -177 90 -293 38 -115 80 -266 94 -335 48 -240 52
-520 11 -794 -9 -55 -23 -148 -31 -206 -24 -161 -8 -255 41 -236 31 11 82 157
130 371 78 349 75 708 -10 1045 -47 190 -157 542 -215 695 -34 88 -64 186 -73
236 -28 162 -113 288 -385 571 -158 164 -209 228 -218 278 -8 40 10 64 38 49
34 -18 249 -212 349 -315 170 -175 266 -311 334 -472 77 -182 251 -748 321
-1039 94 -399 82 -766 -41 -1138 -65 -200 -113 -283 -182 -318 -30 -16 -44
-42 -83 -148 -38 -103 -91 -121 -101 -34 -3 28 -14 68 -24 90 -15 35 -17 58
-11 185 3 80 15 217 26 305 53 417 32 757 -62 1024 -64 181 -125 275 -212 329
-33 20 -112 79 -176 132 -112 94 -139 125 -263 301 -52 75 -75 89 -95 62 -19
-25 -10 -87 33 -218 32 -99 37 -127 45 -275 40 -718 38 -1037 -9 -1441 -17
-147 -40 -302 -51 -345 -27 -103 -104 -260 -175 -354 -31 -41 -107 -145 -168
-230 -62 -85 -156 -211 -210 -279 -55 -68 -109 -140 -120 -160 -11 -20 -28
-45 -36 -55 -15 -18 -15 -19 9 -3 14 8 52 22 85 30 144 36 169 58 361 312 245
325 358 544 418 815 73 332 102 737 76 1070 -6 69 -9 184 -8 255 3 207 1 227
-21 302 -23 76 -27 138 -11 148 18 11 56 -21 116 -97 32 -40 88 -106 126 -145
146 -156 205 -355 215 -723 9 -333 -38 -724 -114 -949 -117 -349 -253 -658
-360 -820 -69 -103 -190 -233 -293 -311 -72 -55 -141 -120 -128 -120 4 0 19 5
35 11 15 6 77 19 137 30 60 11 134 32 165 46 72 34 164 127 229 233 58 94 256
581 297 730 33 123 44 149 65 160 22 12 36 -3 42 -45 3 -16 11 -51 19 -77 14
-53 14 -53 -116 -370 -32 -78 -73 -203 -95 -291 -36 -145 -74 -241 -117 -295
-10 -12 -56 -48 -102 -80 -59 -40 -93 -72 -116 -108 -33 -51 -33 -51 52 -7 46
23 97 43 112 43 39 0 81 -35 81 -68 1 -26 1 -26 20 8 36 69 271 249 364 280
88 29 167 89 266 202 170 194 241 345 151 323 -35 -8 -76 -49 -174 -170 -102
-125 -201 -230 -245 -257 -31 -19 -35 -19 -49 -5 -14 14 -14 18 -2 35 128 177
303 397 376 473 50 53 115 132 143 175 73 111 160 295 215 454 56 162 83 215
110 215 51 0 36 -160 -35 -379 -25 -78 -75 -191 -135 -309 -95 -186 -95 -187
-95 -261 0 -139 -38 -204 -262 -440 -74 -77 -160 -177 -192 -221 -59 -80 -59
-80 -10 -34 27 25 83 73 125 107 42 34 120 101 172 149 53 48 120 109 149 134
58 50 100 120 162 264 52 122 117 255 165 340 45 80 84 206 107 345 12 74 14
127 8 235 -11 218 -10 354 5 559 15 206 11 304 -20 571 -11 94 -24 236 -28
316 -11 184 -37 251 -86 215 -12 -8 -19 -36 -26 -90 -8 -78 -20 -106 -44 -106
-27 0 -38 69 -30 174 11 139 8 203 -16 331 -49 263 -119 505 -196 683 -45 102
-45 102 -87 102 -65 0 -118 41 -274 211 -224 244 -363 355 -577 459 -465 227
-546 256 -692 246 -57 -3 -93 -1 -115 8 -18 8 -55 17 -83 20 -50 7 -50 7 -15
-17z"/>
<path d="M3555 6889 c-22 -5 -59 -12 -82 -15 -42 -6 -42 -6 -15 -40 34 -43
228 -158 432 -257 85 -41 213 -114 283 -161 71 -47 139 -89 152 -92 107 -27
95 78 -22 187 -100 94 -220 174 -453 303 -166 93 -189 98 -295 75z"/>
<path d="M3405 6586 c-27 -7 -75 -22 -106 -32 -56 -20 -56 -20 -25 -55 17 -19
58 -56 91 -81 185 -143 372 -409 543 -773 44 -93 107 -224 141 -290 109 -215
145 -397 146 -730 0 -295 -30 -474 -125 -750 -127 -368 -233 -562 -404 -740
-48 -49 -96 -102 -107 -117 -20 -27 -20 -27 63 -22 112 6 137 16 196 77 102
105 185 236 245 388 20 52 74 191 121 309 144 368 165 466 173 800 6 237 -4
376 -43 630 -25 164 -25 164 -2 214 18 38 23 65 22 120 -2 124 -64 317 -130
403 -35 46 -29 67 20 71 35 3 43 -1 90 -50 96 -99 131 -244 146 -609 6 -134
15 -291 20 -349 12 -142 12 -548 0 -668 -24 -221 -50 -315 -130 -467 -73 -138
-111 -233 -156 -391 -44 -158 -70 -215 -148 -334 -86 -128 -183 -232 -265
-280 -96 -57 -95 -56 -56 -57 38 -1 68 -19 62 -37 -2 -6 3 -17 10 -24 8 -8 11
-23 7 -36 -6 -21 -6 -21 10 1 9 12 40 29 69 38 28 10 68 26 87 37 40 21 213
246 307 397 32 52 75 108 97 125 100 81 118 101 156 180 57 121 74 200 67 321
-5 73 -1 137 13 236 36 259 43 389 37 719 -8 401 -30 725 -63 910 -21 117 -25
161 -19 227 6 73 4 88 -14 127 -12 24 -46 66 -75 94 -43 41 -68 55 -127 73
-111 33 -148 51 -271 130 -159 103 -237 129 -272 93 -23 -23 -11 -41 128 -184
181 -186 181 -186 181 -289 1 -78 7 -104 63 -274 67 -203 76 -249 51 -254 -49
-11 -100 76 -203 345 -80 209 -99 248 -187 378 -81 120 -99 159 -99 216 0 37
-5 47 -52 92 -66 64 -177 143 -209 150 -13 2 -46 -1 -74 -8z m1081 -2878 c-19
-83 -97 -281 -122 -309 -13 -14 -20 -16 -31 -8 -23 19 -14 93 23 200 61 176
100 236 133 204 11 -11 11 -24 -3 -87z"/>
<path d="M6639 6363 c-15 -38 3 -133 44 -243 30 -78 36 -87 84 -120 70 -47 97
-86 188 -278 43 -89 80 -160 82 -158 2 2 -20 77 -50 167 -40 119 -86 228 -170
397 -64 128 -121 240 -127 248 -19 22 -39 17 -51 -13z"/>
<path d="M3200 6219 c-30 -11 -65 -23 -78 -26 -22 -5 -22 -5 5 -42 16 -21 61
-66 101 -100 256 -220 526 -672 617 -1031 38 -153 48 -244 48 -435 0 -273 -30
-474 -109 -717 -70 -214 -154 -366 -303 -549 -31 -38 -66 -83 -79 -99 -24 -30
-24 -30 0 -21 13 5 47 9 75 9 72 1 112 21 165 83 199 234 367 678 409 1080 14
138 6 454 -14 564 -37 197 -72 294 -202 560 -155 317 -278 503 -437 663 -93
93 -103 96 -198 61z"/>
<path d="M4770 6005 c-6 -8 -10 -21 -8 -28 2 -8 107 -121 235 -252 206 -209
235 -236 260 -233 24 3 28 8 31 40 7 80 -96 217 -270 364 -127 106 -217 146
-248 109z"/>
<path d="M6680 5951 c-36 -68 13 -234 164 -554 55 -117 105 -275 146 -457 16
-74 43 -166 60 -205 31 -70 31 -70 25 -20 -3 28 -12 124 -20 215 -27 294 -53
421 -111 548 -20 42 -67 153 -105 247 -93 228 -130 280 -159 226z"/>
<path d="M3071 5850 c-24 -11 -52 -20 -62 -20 -16 0 -14 -6 14 -42 19 -24 69
-79 113 -124 193 -196 343 -453 414 -712 52 -192 58 -316 16 -351 -36 -30 -68
30 -115 210 -36 137 -76 246 -132 354 -49 96 -134 225 -183 279 -34 37 -38 38
-82 32 -25 -3 -55 -13 -67 -21 -12 -8 -29 -15 -39 -15 -15 0 -10 -12 25 -64
23 -35 66 -94 95 -132 108 -142 206 -370 238 -556 31 -180 -27 -412 -147 -589
-20 -30 -51 -80 -67 -111 -30 -55 -30 -55 19 -47 70 11 110 33 153 85 22 26
57 54 82 64 38 17 44 24 59 72 23 76 45 212 45 274 0 75 13 104 47 104 53 0
70 -28 79 -127 8 -90 -30 -440 -57 -530 -28 -93 -90 -212 -158 -308 -32 -44
-68 -97 -80 -118 -23 -37 -23 -37 1 -28 12 5 42 9 65 9 72 1 107 25 164 115
150 234 219 490 240 895 11 223 3 366 -31 507 -69 295 -246 620 -462 851 -55
59 -64 64 -102 64 -22 0 -61 -9 -85 -20z"/>
<path d="M5033 5118 c-22 -28 -22 -55 -3 -191 50 -353 49 -667 -5 -1009 -44
-283 -94 -447 -209 -683 -112 -229 -231 -400 -450 -650 -102 -116 -161 -203
-128 -190 9 4 41 15 69 25 125 44 187 82 261 159 315 327 552 860 627 1411 23
162 31 559 15 702 -21 196 -77 378 -128 418 -29 23 -36 24 -49 8z"/>
<path d="M2964 4969 c-3 -6 -19 -9 -34 -7 -27 4 -27 4 -3 -50 13 -30 35 -97
49 -151 41 -153 44 -405 7 -510 -6 -14 -4 -14 14 2 11 9 28 17 39 17 26 0 80
34 98 62 36 57 47 267 21 393 -37 174 -84 255 -148 255 -20 0 -39 -5 -43 -11z"/>
<path d="M6917 4392 c-21 -32 -15 -214 11 -397 8 -50 8 -50 15 -10 4 22 10
114 13 205 6 155 5 167 -13 189 -12 15 -22 20 -26 13z"/>
<path d="M3373 4054 c-11 -16 -41 -69 -66 -117 -26 -49 -60 -109 -77 -134 -28
-41 -70 -117 -70 -126 0 -9 110 12 137 27 55 28 133 196 133 285 0 32 -6 56
-18 71 -19 23 -19 23 -39 -6z"/>
<path d="M6400 3124 c-37 -58 -77 -180 -85 -259 -6 -60 -6 -60 33 25 22 47 60
127 86 177 25 51 46 95 46 98 0 3 -11 5 -25 5 -19 0 -33 -11 -55 -46z"/>
</g>
</svg>
