<?xml version="1.0" standalone="no"?>
<!DOCTYPE svg PUBLIC "-//W3C//DTD SVG 20010904//EN"
 "http://www.w3.org/TR/2001/REC-SVG-20010904/DTD/svg10.dtd">
<svg version="1.0" xmlns="http://www.w3.org/2000/svg"
 width="1000.000000pt" height="1000.000000pt" viewBox="0 0 1000.000000 1000.000000"
 preserveAspectRatio="xMidYMid meet">
<metadata>
  <rdf:RDF
    xmlns:rdf = "http://www.w3.org/1999/02/22-rdf-syntax-ns#"
    xmlns:rdfs = "http://www.w3.org/2000/01/rdf-schema#"
    xmlns:dc = "http://purl.org/dc/elements/1.1/"
    xmlns:cc = "http://creativecommons.org/ns#">
    <cc:license rdf:resource="http://creativecommons.org/publicdomain/zero/1.0/deed.en"/>
    <cc:permits rdf:resource="http://creativecommons.org/ns#Reproduction"/>
    <rdf:Description about="https://nft.mir.one/fingerprints"
      dc:title="TON Fingerprints"
      dc:description="This is a unique digital fingerprint created based on the algorithm for generating basic rings using a noise texture. Like human fingerprints, you can now use it for the Web3 and Metaverse era as digital biometric information."
      dc:publisher="https://nft.mir.one"
      dc:date="2022-02-22"
      dc:format="image/svg+xml"
      dc:language="en" >
      <dc:creator>
      <rdf:Bag>
        <rdf:li>EQBondcvD2_aOFADXSWJHs4ZazQDuEl9_wNvGGPxI8hGuOFU</rdf:li>
        <rdf:li>ipfs://bafkreihj7iub3fhmhq6jn62noukt5wxn3gv6bvcg7wmt6ywvlurefezckq</rdf:li>
      </rdf:Bag>
      </dc:creator>
    </rdf:Description>
  </rdf:RDF>
</metadata>
<g transform="translate(0.000000,1000.000000) scale(0.100000,-0.100000)"
fill="#1b1f23" stroke="none">
<path d="M4670 7690 c-188 -26 -362 -75 -527 -147 -105 -46 -133 -66 -52 -38
79 28 342 77 444 82 55 3 240 -3 410 -13 375 -22 432 -22 511 -1 76 21 220 22
329 2 43 -8 80 -13 82 -11 2 1 -57 21 -130 45 -206 65 -344 82 -702 86 -165 2
-329 0 -365 -5z"/>
<path d="M5483 7458 c-57 -28 -16 -81 132 -174 142 -89 197 -138 411 -366 545
-579 717 -819 848 -1183 67 -186 96 -228 96 -141 0 142 -147 526 -288 754
-102 164 -167 242 -455 547 -118 125 -200 221 -242 286 -73 110 -117 152 -216
204 -125 66 -242 96 -286 73z"/>
<path d="M4464 7449 c-135 -16 -310 -83 -464 -178 -138 -86 -246 -175 -415
-345 -88 -89 -181 -176 -205 -195 -65 -50 -68 -53 -36 -41 33 12 79 5 96 -15
15 -18 -5 -65 -69 -165 -161 -250 -246 -504 -258 -772 -7 -165 2 -201 50 -196
22 2 36 12 48 33 29 49 59 222 59 337 0 164 36 274 149 462 73 122 97 175 111
241 7 33 18 72 26 87 23 44 376 359 477 425 130 85 325 159 498 189 117 20
144 17 144 -16 0 -36 -43 -60 -217 -119 -259 -89 -394 -162 -433 -234 -23 -44
-15 -67 25 -67 18 0 95 25 173 56 78 31 250 93 382 137 240 81 240 81 375 81
163 -1 250 -23 430 -110 265 -128 459 -287 635 -518 30 -39 102 -125 160 -191
205 -231 305 -379 467 -688 55 -106 112 -210 127 -232 48 -71 96 -53 89 32 -8
85 -223 516 -349 698 -187 271 -646 773 -839 917 -109 82 -372 245 -433 269
-77 31 -182 48 -351 58 -114 7 -162 14 -198 30 -76 32 -154 42 -254 30z"/>
<path d="M6050 7283 c0 -50 75 -138 387 -458 180 -184 328 -335 330 -335 10 0
-167 237 -260 349 -93 110 -425 455 -443 459 -8 2 -14 -4 -14 -15z"/>
<path d="M4735 6965 c-103 -22 -175 -43 -455 -131 -98 -32 -130 -37 -216 -38
-101 -2 -103 -2 -160 -41 -127 -83 -210 -181 -358 -418 -95 -153 -149 -268
-154 -332 -4 -44 -1 -55 14 -63 42 -22 55 -9 222 228 150 213 272 332 412 404
140 72 491 181 693 216 355 60 651 -16 1040 -269 70 -46 127 -87 127 -92 0 -5
-11 -15 -25 -21 -33 -15 -96 4 -236 73 -371 182 -626 224 -964 159 -215 -42
-478 -142 -625 -239 -83 -54 -221 -191 -333 -331 -56 -69 -140 -168 -187 -221
-80 -90 -90 -106 -164 -270 -74 -162 -80 -180 -84 -254 -5 -88 28 -439 59
-628 43 -269 115 -462 254 -686 116 -186 257 -333 333 -347 73 -14 68 28 -19
141 -160 210 -238 349 -303 545 -44 134 -63 228 -71 360 -4 58 -13 169 -21
247 -18 181 -18 279 1 384 26 148 74 265 174 414 271 409 573 626 994 717 137
29 409 32 537 5 178 -38 576 -194 695 -272 87 -57 236 -205 321 -317 130 -173
336 -548 392 -713 25 -77 27 -89 26 -285 0 -166 -4 -228 -21 -325 -32 -173
-66 -286 -126 -404 -57 -115 -79 -138 -103 -107 -22 31 -17 72 26 219 95 320
120 573 79 793 -46 247 -260 648 -456 855 -163 171 -336 275 -605 363 -183 60
-294 79 -458 79 -274 0 -505 -69 -740 -220 -109 -70 -294 -257 -376 -378 -140
-206 -194 -361 -194 -558 0 -192 43 -312 135 -377 28 -19 95 -82 150 -140 239
-252 407 -406 525 -484 268 -177 539 -179 803 -7 320 209 450 582 305 879 -58
120 -248 286 -414 364 -91 43 -193 49 -291 20 -78 -24 -145 -68 -167 -110 -30
-57 12 -70 135 -41 132 31 222 24 320 -23 188 -90 293 -213 321 -377 45 -264
-150 -541 -432 -616 -72 -19 -220 -19 -295 0 -84 22 -208 84 -285 143 -86 65
-226 215 -269 287 -45 74 -70 148 -71 205 0 64 43 279 74 373 89 267 269 457
517 551 109 41 212 58 354 57 363 0 637 -140 782 -398 47 -84 130 -298 160
-410 34 -133 43 -339 19 -475 -31 -185 -102 -354 -203 -486 -69 -91 -128 -144
-271 -244 -62 -44 -120 -91 -129 -105 -16 -25 -16 -26 7 -45 29 -23 74 -18
169 19 244 97 429 299 520 570 59 175 81 305 81 479 0 217 -45 400 -155 623
-150 302 -338 472 -633 571 -124 42 -245 60 -391 60 -259 -1 -464 -69 -659
-217 -90 -69 -158 -143 -229 -250 -91 -139 -133 -262 -154 -453 -6 -58 -15
-115 -20 -127 -22 -58 -90 1 -110 94 -23 115 4 268 76 419 58 124 113 202 218
311 175 181 382 291 634 339 110 20 319 20 436 -1 197 -35 430 -131 568 -234
243 -184 460 -545 530 -884 26 -127 28 -347 4 -482 -33 -189 -104 -423 -163
-540 -74 -144 -273 -307 -461 -376 -92 -33 -91 -33 -376 -30 -60 0 -126 0
-145 -2 -26 -1 -35 2 -38 16 -6 29 22 61 120 140 51 40 100 82 108 92 8 10 53
50 100 88 176 145 259 238 330 369 79 147 109 261 117 438 6 167 -13 275 -81
443 -26 63 -51 139 -56 170 -5 30 -18 74 -30 97 -52 101 -189 209 -325 256
-77 26 -88 28 -290 28 -239 1 -284 -7 -420 -73 -230 -113 -395 -397 -395 -681
0 -204 135 -401 344 -503 116 -56 177 -71 296 -72 98 0 110 2 172 32 167 79
270 270 238 439 -22 115 -73 170 -239 254 -78 40 -149 48 -225 26 -139 -41
-190 -180 -95 -261 36 -29 93 -34 139 -10 34 17 49 58 30 80 -15 19 3 45 30
45 23 0 60 -46 60 -74 0 -80 -74 -176 -172 -221 -88 -41 -160 -28 -239 42 -64
58 -100 134 -107 223 -5 79 7 136 49 232 16 36 29 83 29 102 0 141 179 257
395 255 98 0 144 -17 222 -81 32 -26 99 -78 148 -114 228 -169 285 -232 332
-365 38 -107 45 -299 14 -420 -26 -101 -76 -210 -135 -293 -95 -132 -317 -316
-468 -386 -136 -63 -271 -76 -414 -40 -177 45 -313 132 -524 335 -80 78 -179
166 -220 196 -55 41 -89 76 -129 135 -70 102 -110 144 -137 144 -63 0 -63 -84
1 -320 56 -208 85 -274 194 -443 91 -141 111 -188 111 -254 0 -42 5 -50 68
-115 118 -123 228 -188 427 -251 236 -75 782 -183 975 -193 272 -14 593 99
938 330 153 103 226 175 319 317 127 194 176 344 208 635 8 72 28 225 44 340
27 192 43 334 56 504 5 65 5 65 -24 -9 -37 -92 -107 -457 -161 -841 -46 -335
-118 -450 -435 -695 -172 -133 -255 -188 -382 -253 -215 -110 -371 -147 -593
-139 -129 4 -162 9 -305 46 -88 23 -221 58 -295 76 -319 80 -481 156 -615 290
-58 58 -245 315 -314 433 -44 74 -64 153 -42 166 20 13 52 -15 145 -132 231
-289 360 -403 545 -482 130 -56 350 -100 495 -100 39 0 47 -4 60 -27 48 -93
195 -141 401 -130 262 13 509 135 766 376 84 79 119 105 165 122 118 44 207
173 259 375 44 171 87 498 89 679 1 209 -2 224 -73 299 -74 78 -80 88 -196
296 -190 343 -339 536 -578 748 -53 47 -59 56 -61 96 -5 82 -78 162 -265 287
-165 111 -340 189 -506 224 -108 23 -288 18 -420 -10z m695 -1335 c29 -11 77
-38 109 -59 70 -48 181 -165 181 -191 0 -40 -46 -22 -155 60 -59 44 -138 98
-175 120 -75 44 -85 53 -76 75 8 21 56 19 116 -5z m-173 -647 c33 -79 7 -212
-57 -293 -61 -77 -178 -124 -211 -84 -11 14 -2 25 68 89 94 87 123 142 131
250 5 80 16 102 40 83 8 -7 21 -27 29 -45z"/>
<path d="M6770 6476 c0 -2 8 -10 18 -17 15 -13 16 -12 3 4 -13 16 -21 21 -21
13z"/>
<path d="M2938 5460 c-2 -63 -8 -123 -12 -132 -5 -12 -4 -18 4 -18 14 0 54
-40 69 -69 6 -10 15 -117 20 -239 19 -385 68 -644 160 -846 37 -80 312 -448
415 -555 45 -46 113 -108 151 -139 91 -71 165 -143 165 -159 0 -7 -9 -17 -20
-23 -38 -20 -115 13 -225 95 -125 94 -207 184 -329 360 -126 182 -190 245
-246 245 -14 0 -32 6 -39 13 -10 10 -10 7 0 -16 7 -16 25 -35 40 -43 40 -20
66 -58 169 -249 101 -186 149 -258 234 -352 89 -97 166 -148 391 -258 116 -57
223 -113 238 -125 15 -12 38 -43 52 -69 43 -85 131 -144 293 -195 155 -49 300
-70 487 -70 215 -1 298 15 475 94 93 41 185 64 327 80 107 12 197 38 298 86
180 85 418 277 618 497 77 85 77 85 24 63 -28 -12 -113 -59 -187 -106 -74 -46
-211 -123 -305 -170 -349 -176 -582 -217 -850 -150 -66 17 -196 41 -288 55
-317 48 -735 139 -856 189 -84 34 -111 55 -192 152 -42 51 -108 113 -167 158
-157 119 -262 237 -401 451 -178 273 -251 502 -296 925 -27 254 -44 317 -114
404 -17 21 -31 43 -31 48 0 5 -10 22 -22 38 -12 16 -27 56 -33 87 -12 58 -12
58 -17 -57z m1624 -2485 c240 -47 347 -61 558 -75 163 -11 240 -26 240 -48 0
-16 -36 -42 -71 -53 -116 -34 -414 -26 -634 16 -150 29 -392 99 -417 122 -22
20 -12 42 26 59 48 21 100 17 298 -21z"/>
<path d="M3583 3008 c108 -108 197 -201 197 -206 0 -26 256 -210 380 -272 275
-139 681 -221 944 -191 167 19 317 67 558 179 100 47 134 73 125 96 -20 51
-111 40 -331 -40 -213 -78 -285 -94 -456 -101 -163 -6 -311 10 -490 53 -259
63 -431 158 -729 403 -122 101 -211 164 -296 210 -33 19 -69 41 -80 50 -11 8
69 -73 178 -181z"/>
<path d="M6169 2744 c-171 -88 -255 -151 -286 -214 -30 -63 -87 -114 -184
-165 -101 -53 -98 -60 4 -9 86 43 136 78 259 181 51 43 149 120 218 172 131
99 147 111 140 111 -3 0 -71 -34 -151 -76z"/>
<path d="M5550 2295 c-14 -8 -20 -14 -15 -14 6 0 21 6 35 14 14 8 21 14 15 14
-5 0 -21 -6 -35 -14z"/>
</g>
</svg>
