<?xml version="1.0" standalone="no"?>
<!DOCTYPE svg PUBLIC "-//W3C//DTD SVG 20010904//EN"
 "http://www.w3.org/TR/2001/REC-SVG-20010904/DTD/svg10.dtd">
<svg version="1.0" xmlns="http://www.w3.org/2000/svg"
 width="1000.000000pt" height="1000.000000pt" viewBox="0 0 1000.000000 1000.000000"
 preserveAspectRatio="xMidYMid meet">
<metadata>
  <rdf:RDF
    xmlns:rdf = "http://www.w3.org/1999/02/22-rdf-syntax-ns#"
    xmlns:rdfs = "http://www.w3.org/2000/01/rdf-schema#"
    xmlns:dc = "http://purl.org/dc/elements/1.1/"
    xmlns:cc = "http://creativecommons.org/ns#">
    <cc:license rdf:resource="http://creativecommons.org/publicdomain/zero/1.0/deed.en"/>
    <cc:permits rdf:resource="http://creativecommons.org/ns#Reproduction"/>
    <rdf:Description about="https://nft.mir.one/fingerprints"
      dc:title="TON Fingerprints"
      dc:description="This is a unique digital fingerprint created based on the algorithm for generating basic rings using a noise texture. Like human fingerprints, you can now use it for the Web3 and Metaverse era as digital biometric information."
      dc:publisher="https://nft.mir.one"
      dc:date="2022-02-22"
      dc:format="image/svg+xml"
      dc:language="en" >
      <dc:creator>
      <rdf:Bag>
        <rdf:li>EQBondcvD2_aOFADXSWJHs4ZazQDuEl9_wNvGGPxI8hGuOFU</rdf:li>
        <rdf:li>ipfs://bafkreihj7iub3fhmhq6jn62noukt5wxn3gv6bvcg7wmt6ywvlurefezckq</rdf:li>
      </rdf:Bag>
      </dc:creator>
    </rdf:Description>
  </rdf:RDF>
</metadata>
<g transform="translate(0.000000,1000.000000) scale(0.100000,-0.100000)"
fill="#1b1f23" stroke="none">
<path d="M4726 7754 c-44 -8 -82 -17 -84 -19 -3 -3 62 -4 144 -4 220 1 411
-28 699 -106 72 -19 183 -46 247 -60 64 -14 136 -32 159 -40 87 -31 46 -5 -72
44 -239 101 -422 155 -630 185 -131 20 -356 19 -463 0z"/>
<path d="M4643 7599 c-30 -30 14 -59 202 -129 138 -52 542 -252 633 -314 304
-207 384 -276 523 -449 176 -218 347 -512 418 -720 47 -135 73 -277 75 -402 1
-93 -4 -130 -31 -240 -18 -71 -42 -179 -53 -240 -27 -141 -72 -277 -149 -441
-33 -72 -70 -158 -82 -190 -28 -75 -39 -92 -121 -190 -147 -176 -116 -231 63
-110 112 75 156 99 225 119 125 37 186 90 346 303 121 161 159 229 187 340 50
195 52 407 7 729 -13 99 -27 207 -31 240 -10 92 -58 224 -145 400 -90 181
-155 286 -310 495 -59 80 -125 177 -145 215 -64 118 -179 222 -330 298 -92 46
-142 62 -266 87 -57 11 -196 49 -309 85 -113 35 -233 71 -267 80 -158 40 -415
59 -440 34z m1177 -389 c152 -60 240 -146 453 -444 338 -472 434 -672 471
-982 50 -424 15 -734 -111 -989 -75 -150 -217 -336 -284 -371 -39 -20 -69 -18
-69 4 0 10 32 67 71 128 198 308 289 615 289 982 0 411 -137 743 -511 1232
-105 138 -188 224 -289 298 -127 94 -158 131 -133 155 12 13 62 7 113 -13z"/>
<path d="M4371 7509 c-146 -25 -339 -109 -507 -220 -103 -68 -264 -187 -264
-195 0 -3 19 5 42 17 23 12 64 29 92 39 28 9 97 36 153 59 124 51 231 79 343
90 144 15 221 2 633 -108 59 -16 111 -32 115 -35 10 -10 -12 -39 -39 -53 -32
-17 -161 -16 -284 2 -307 45 -525 22 -768 -81 -171 -71 -282 -161 -550 -445
-147 -157 -147 -157 -94 -142 32 10 117 58 218 124 293 191 462 274 654 324
152 39 257 48 468 42 429 -13 551 -51 733 -232 55 -55 128 -140 162 -190 34
-49 91 -126 128 -170 176 -210 238 -315 280 -472 14 -53 53 -169 86 -257 97
-261 113 -328 112 -481 0 -153 -21 -252 -87 -415 -77 -191 -207 -380 -334
-485 -87 -72 -241 -148 -368 -181 -81 -21 -131 -27 -260 -31 -186 -6 -308 8
-530 62 -182 45 -278 91 -363 177 -128 130 -179 228 -193 375 -5 53 -16 146
-25 207 -30 205 -6 421 65 573 141 300 450 495 786 496 129 0 193 -16 308 -75
43 -22 81 -37 85 -33 4 4 7 34 7 68 0 47 4 62 15 64 16 3 291 -215 378 -300
207 -201 277 -524 178 -817 -39 -115 -102 -216 -191 -305 -130 -130 -263 -193
-456 -214 -180 -20 -346 9 -559 98 -63 27 -139 56 -167 65 -56 18 -147 81
-198 136 -42 45 -82 65 -101 49 -63 -52 78 -250 247 -346 219 -124 591 -190
841 -149 257 42 466 174 604 381 117 177 173 343 181 536 6 140 -4 215 -43
336 -56 173 -137 304 -213 342 -20 11 -90 60 -156 111 -160 123 -216 150 -325
160 -47 4 -125 19 -174 34 -133 39 -216 49 -351 43 -453 -22 -848 -320 -956
-722 -17 -62 -22 -120 -26 -257 -11 -358 43 -558 229 -858 36 -58 74 -123 86
-146 27 -53 76 -100 137 -132 44 -23 67 -27 190 -33 77 -4 185 -17 240 -29
375 -80 688 -62 958 55 180 77 251 138 382 325 184 262 300 540 335 800 16
116 6 193 -36 280 -19 40 -72 188 -119 329 -128 385 -178 478 -450 832 -79
102 -160 213 -182 246 -21 34 -55 89 -77 123 -49 78 -125 136 -273 207 -74 35
-113 59 -113 69 0 29 -41 89 -80 116 -21 16 -91 51 -156 78 -64 28 -148 71
-185 96 -76 50 -124 60 -218 43z"/>
<path d="M6320 7072 c0 -11 45 -63 185 -217 55 -61 120 -133 143 -160 31 -35
37 -40 21 -15 -86 131 -280 365 -321 386 -15 8 -28 11 -28 6z"/>
<path d="M5552 6928 c-28 -28 -2 -79 114 -218 339 -409 470 -650 575 -1060 22
-85 47 -171 56 -192 18 -43 45 -53 70 -26 24 27 24 180 -1 298 -75 361 -337
817 -637 1106 -98 94 -149 120 -177 92z"/>
<path d="M4409 6770 c-222 -20 -449 -96 -674 -225 -127 -73 -324 -207 -385
-262 -125 -113 -280 -416 -340 -667 -26 -107 -37 -554 -21 -821 29 -475 73
-687 197 -945 98 -204 226 -377 334 -450 90 -61 469 -266 625 -338 269 -124
587 -215 860 -247 180 -21 546 -38 655 -30 208 14 416 63 519 122 151 87 257
157 341 227 120 100 123 103 75 78 -167 -88 -240 -112 -335 -112 -53 0 -88 -8
-171 -40 -262 -98 -440 -125 -794 -117 -349 8 -520 36 -815 133 -282 93 -484
206 -817 455 -220 165 -345 305 -439 491 -80 159 -85 189 -95 567 -9 333 -9
333 -39 419 -34 97 -38 168 -19 358 13 142 31 211 79 312 150 315 499 630 874
788 223 94 489 137 709 115 182 -19 300 -55 491 -148 123 -59 155 -57 140 10
-4 21 -30 55 -78 102 -108 107 -257 178 -438 209 -108 19 -318 27 -439 16z"/>
<path d="M4485 6424 c-343 -51 -621 -191 -871 -439 -175 -173 -249 -292 -372
-596 -60 -147 -90 -279 -73 -322 25 -63 64 -41 118 68 41 82 60 105 84 105 39
0 36 -68 -11 -232 -37 -128 -45 -206 -30 -304 15 -100 35 -145 94 -214 26 -30
86 -113 133 -184 133 -199 252 -308 318 -292 53 13 38 57 -68 205 -81 113
-166 261 -207 363 -49 123 -60 198 -60 401 0 100 -5 220 -12 266 -9 66 -9 97
1 145 41 201 205 437 410 591 224 169 483 256 761 256 138 0 223 -13 450 -67
211 -50 291 -91 435 -224 61 -56 120 -107 132 -112 32 -16 53 -3 53 32 0 89
-157 285 -329 408 -38 28 -52 32 -105 32 -61 0 -91 7 -351 75 -130 34 -152 37
-305 40 -91 2 -178 1 -195 -1z"/>
<path d="M6991 5804 c0 -11 3 -14 6 -6 3 7 2 16 -1 19 -3 4 -6 -2 -5 -13z"/>
<path d="M5130 5752 c-30 -13 -53 -13 -171 -2 -198 18 -315 -2 -464 -78 -83
-43 -109 -62 -178 -129 -189 -183 -276 -494 -198 -704 30 -80 178 -245 246
-274 33 -15 65 -4 65 20 0 8 -28 68 -62 134 -85 164 -87 195 -24 386 55 168
100 249 183 325 122 111 254 155 443 147 180 -8 274 -50 391 -175 179 -191
197 -473 44 -682 -74 -100 -194 -171 -264 -155 -53 11 -45 32 28 80 87 57 135
111 172 190 133 284 -64 594 -377 595 -82 0 -182 -32 -241 -77 -58 -44 -66
-54 -99 -117 -22 -42 -25 -59 -22 -115 5 -86 50 -183 118 -255 62 -65 122 -96
187 -96 157 1 279 186 188 284 -32 34 -69 42 -100 22 -30 -20 -32 -51 -5 -68
44 -28 12 -78 -49 -78 -68 0 -121 62 -121 140 0 88 60 154 153 166 180 25 316
-167 247 -348 -25 -68 -185 -253 -229 -265 -46 -13 -134 -5 -196 18 -75 28
-173 122 -234 227 -53 88 -94 126 -121 112 -48 -26 -37 -93 41 -248 72 -145
109 -189 196 -235 114 -59 175 -71 363 -71 150 0 171 2 225 23 185 73 332 249
381 456 24 105 16 276 -19 373 -52 149 -143 262 -308 387 -135 101 -145 106
-189 87z"/>
<path d="M7082 5325 c0 -16 2 -22 5 -12 2 9 2 23 0 30 -3 6 -5 -1 -5 -18z"/>
<path d="M7077 5128 c-3 -57 -15 -137 -26 -178 -50 -183 -63 -254 -55 -310 4
-30 7 -92 8 -136 1 -80 0 -84 -56 -197 -69 -139 -93 -169 -284 -366 -281 -290
-576 -519 -780 -609 -87 -38 -221 -78 -339 -100 -133 -24 -530 -24 -679 1
-133 23 -324 74 -431 117 -241 96 -433 236 -361 263 22 9 58 -5 208 -77 313
-152 605 -214 948 -203 402 13 660 107 1018 373 142 106 293 256 429 425 153
192 232 342 233 442 0 33 -3 37 -25 37 -32 0 -73 -42 -162 -165 -39 -55 -101
-134 -138 -175 -36 -41 -79 -104 -96 -139 -55 -115 -188 -235 -416 -373 -364
-221 -701 -306 -1097 -276 -267 19 -495 87 -716 213 -60 34 -129 63 -188 80
-103 28 -273 100 -343 145 -97 63 -214 203 -308 370 -64 114 -103 146 -136
113 -21 -20 -19 -108 4 -174 69 -201 204 -368 444 -550 67 -51 165 -134 217
-184 149 -143 301 -227 568 -315 270 -89 551 -128 852 -117 376 13 620 90 797
251 45 41 135 119 200 173 171 142 273 242 387 381 147 180 152 187 197 307
64 170 86 270 98 452 6 89 16 195 21 236 11 91 25 367 18 367 -3 0 -8 -46 -11
-102z"/>
<path d="M6324 4181 c-11 -5 -50 -27 -87 -50 -107 -65 -158 -87 -237 -104 -55
-11 -107 -33 -195 -81 -207 -114 -351 -163 -555 -191 -214 -30 -414 -15 -688
49 -163 39 -223 44 -241 22 -31 -37 45 -91 199 -141 375 -121 772 -119 1125 7
117 41 467 218 575 290 167 111 234 200 155 205 -16 1 -39 -2 -51 -6z"/>
<path d="M6888 3877 c-23 -46 -190 -239 -284 -326 -43 -41 -133 -118 -200
-171 -127 -103 -157 -137 -152 -173 12 -87 225 56 399 269 99 122 274 412 258
429 -3 3 -13 -10 -21 -28z"/>
<path d="M3365 3255 c76 -68 161 -127 320 -223 290 -173 544 -284 885 -386
197 -58 336 -82 575 -96 305 -18 386 -31 399 -66 20 -51 -231 -64 -609 -33
-161 14 -206 25 -525 131 -244 81 -299 104 -488 199 -177 90 -291 140 -321
139 -3 0 12 -11 34 -23 22 -13 96 -64 165 -113 217 -156 290 -194 545 -287 99
-36 218 -82 265 -101 119 -49 223 -60 523 -53 303 6 365 20 432 92 24 26 59
42 190 85 88 29 225 80 305 114 145 61 145 61 92 64 -29 2 -107 -6 -175 -17
-255 -43 -295 -45 -455 -28 -81 9 -212 21 -292 27 -337 24 -495 53 -770 142
-173 56 -310 112 -560 233 -236 113 -455 205 -489 205 -12 0 -36 7 -54 16 -31
15 -31 15 8 -21z"/>
<path d="M4258 2373 c7 -3 16 -2 19 1 4 3 -2 6 -13 5 -11 0 -14 -3 -6 -6z"/>
<path d="M4306 2360 c40 -16 244 -78 244 -74 0 10 -64 34 -150 58 -94 26 -135
33 -94 16z"/>
<path d="M4973 2183 c31 -2 83 -2 115 0 31 2 5 3 -58 3 -63 0 -89 -1 -57 -3z"/>
</g>
</svg>
