<?xml version="1.0" standalone="no"?>
<!DOCTYPE svg PUBLIC "-//W3C//DTD SVG 20010904//EN"
 "http://www.w3.org/TR/2001/REC-SVG-20010904/DTD/svg10.dtd">
<svg version="1.0" xmlns="http://www.w3.org/2000/svg"
 width="1000.000000pt" height="1000.000000pt" viewBox="0 0 1000.000000 1000.000000"
 preserveAspectRatio="xMidYMid meet">
<metadata>
  <rdf:RDF
    xmlns:rdf = "http://www.w3.org/1999/02/22-rdf-syntax-ns#"
    xmlns:rdfs = "http://www.w3.org/2000/01/rdf-schema#"
    xmlns:dc = "http://purl.org/dc/elements/1.1/"
    xmlns:cc = "http://creativecommons.org/ns#">
    <cc:license rdf:resource="http://creativecommons.org/publicdomain/zero/1.0/deed.en"/>
    <cc:permits rdf:resource="http://creativecommons.org/ns#Reproduction"/>
    <rdf:Description about="https://nft.mir.one/fingerprints"
      dc:title="TON Fingerprints"
      dc:description="This is a unique digital fingerprint created based on the algorithm for generating basic rings using a noise texture. Like human fingerprints, you can now use it for the Web3 and Metaverse era as digital biometric information."
      dc:publisher="https://nft.mir.one"
      dc:date="2022-02-22"
      dc:format="image/svg+xml"
      dc:language="en" >
      <dc:creator>
      <rdf:Bag>
        <rdf:li>EQBondcvD2_aOFADXSWJHs4ZazQDuEl9_wNvGGPxI8hGuOFU</rdf:li>
        <rdf:li>ipfs://bafkreihj7iub3fhmhq6jn62noukt5wxn3gv6bvcg7wmt6ywvlurefezckq</rdf:li>
      </rdf:Bag>
      </dc:creator>
    </rdf:Description>
  </rdf:RDF>
</metadata>
<g transform="translate(0.000000,1000.000000) scale(0.100000,-0.100000)"
fill="#1b1f23" stroke="none">
<path d="M4860 7803 c143 -5 366 -24 463 -39 54 -9 101 -14 103 -11 7 6 -179
37 -291 47 -55 5 -156 9 -225 8 -71 -1 -93 -3 -50 -5z"/>
<path d="M5448 7743 c7 -3 16 -2 19 1 4 3 -2 6 -13 5 -11 0 -14 -3 -6 -6z"/>
<path d="M4735 7599 c-243 -26 -514 -111 -732 -230 -84 -47 -397 -254 -368
-244 11 3 43 11 71 16 28 5 118 37 200 70 392 158 673 219 1006 219 417 0 814
-113 1125 -319 108 -72 252 -205 323 -300 71 -93 172 -302 224 -461 71 -217
162 -655 190 -915 36 -330 30 -613 -15 -777 -60 -214 -210 -435 -501 -735
-145 -149 -177 -195 -147 -214 46 -29 202 89 485 368 236 232 288 310 337 501
20 79 22 109 20 317 -3 478 -46 788 -165 1210 -53 190 -126 382 -208 550 -100
206 -212 355 -370 490 -401 344 -941 510 -1475 454z"/>
<path d="M4778 7269 c-324 -23 -680 -141 -1003 -333 -152 -90 -350 -317 -330
-380 3 -11 10 -66 15 -121 5 -55 14 -122 19 -149 14 -64 -4 -189 -59 -396 -57
-219 -96 -398 -114 -520 -23 -153 -38 -429 -31 -550 27 -474 57 -635 151 -820
108 -214 246 -370 394 -445 52 -27 62 -28 165 -27 123 3 147 -3 360 -88 162
-64 309 -111 373 -117 35 -4 71 0 105 10 35 11 125 19 277 26 230 10 294 19
555 73 126 26 182 32 350 37 142 5 207 10 225 20 89 50 483 363 554 441 16 18
47 43 68 56 29 19 48 45 84 117 26 50 55 104 66 119 11 16 17 28 15 28 -15 0
-90 -50 -103 -68 -8 -12 -65 -59 -127 -106 -63 -46 -166 -129 -229 -184 -140
-121 -247 -202 -308 -233 -41 -20 -59 -23 -190 -23 -176 -1 -182 5 -98 93 30
31 72 79 93 106 22 28 73 88 115 135 252 284 398 555 457 846 14 70 18 136 17
309 0 245 -13 361 -69 639 -19 94 -42 216 -50 271 -32 206 -79 349 -168 507
-233 416 -713 686 -1295 728 -75 5 -146 9 -157 8 -11 0 -68 -4 -127 -9z m292
-189 c431 -33 800 -207 1047 -493 162 -188 280 -455 230 -521 -8 -11 -20 -17
-28 -14 -8 3 -40 53 -71 110 -224 411 -552 654 -1003 744 -125 25 -424 26
-548 1 -314 -63 -581 -220 -715 -422 -55 -81 -104 -192 -122 -276 -12 -52 -11
-58 15 -110 25 -49 29 -70 38 -219 9 -148 8 -182 -11 -330 -26 -196 -28 -381
-6 -528 19 -130 30 -158 93 -230 27 -31 83 -112 125 -180 143 -233 248 -343
400 -417 109 -54 182 -74 297 -82 282 -19 597 111 824 341 292 296 372 608
245 959 -45 123 -78 171 -132 189 -37 13 -48 23 -79 79 -67 118 -250 241 -434
290 -116 31 -299 31 -414 0 -345 -92 -630 -386 -631 -652 0 -51 5 -72 19 -90
32 -40 63 -15 117 93 64 128 118 201 221 298 198 185 287 226 498 224 113 -1
141 -4 215 -29 47 -15 112 -41 145 -57 89 -45 235 -129 242 -141 3 -5 -3 -16
-13 -24 -29 -22 -88 -10 -223 47 -165 70 -254 91 -376 93 -119 1 -200 -20
-248 -63 -26 -24 -30 -32 -21 -47 10 -16 32 -19 190 -24 229 -8 291 -24 507
-136 192 -100 267 -217 267 -418 0 -280 -196 -554 -493 -690 -113 -52 -196
-69 -332 -69 -106 -1 -130 2 -209 28 -210 69 -373 233 -506 508 -55 113 -116
313 -130 425 -18 141 21 328 91 429 18 27 81 96 139 154 92 93 117 112 200
152 200 97 357 138 529 138 195 0 348 -46 506 -153 84 -57 144 -120 210 -220
31 -48 63 -87 71 -87 27 0 47 47 40 96 -22 162 -248 379 -484 464 -129 47
-213 61 -347 62 -154 0 -244 -19 -415 -87 -166 -66 -220 -74 -220 -36 0 43
125 136 258 191 223 93 522 93 760 -1 246 -97 464 -295 562 -513 39 -85 105
-331 129 -481 30 -181 21 -359 -26 -510 -31 -99 -69 -170 -142 -260 -87 -108
-298 -314 -386 -377 -202 -142 -442 -224 -696 -235 -152 -7 -253 12 -374 72
-196 96 -334 253 -467 532 -57 119 -95 167 -123 157 -54 -21 -21 -223 64 -392
92 -181 265 -382 398 -461 139 -82 288 -113 449 -92 120 16 380 77 484 113
209 74 325 153 556 379 142 139 182 173 240 201 64 31 71 37 106 103 153 284
176 690 61 1075 -43 144 -110 259 -263 449 -131 163 -263 273 -427 357 -369
188 -828 171 -1110 -41 -82 -61 -129 -132 -154 -231 -24 -98 -151 -331 -193
-354 -24 -13 -28 -13 -36 0 -32 50 21 321 92 469 49 103 165 226 274 290 271
160 660 189 1000 75 170 -57 346 -164 478 -292 37 -37 120 -131 182 -209 70
-87 136 -158 170 -184 45 -33 62 -54 86 -107 74 -162 128 -465 128 -714 0
-266 -25 -384 -149 -698 -94 -239 -125 -290 -306 -505 -69 -82 -146 -180 -170
-217 -50 -75 -79 -99 -168 -135 -174 -71 -417 -122 -629 -130 -117 -5 -141 -3
-163 11 -14 9 -25 23 -25 30 0 20 41 31 215 60 277 47 463 105 584 183 113 73
410 404 467 519 40 82 33 145 -14 130 -12 -4 -70 -64 -130 -134 -191 -222
-335 -348 -482 -422 -109 -55 -195 -83 -404 -134 -119 -29 -218 -61 -278 -87
-91 -41 -92 -42 -183 -36 -152 9 -358 89 -461 180 -55 49 -234 298 -303 422
-28 50 -67 140 -88 200 -38 110 -38 110 -37 535 0 380 2 443 22 595 53 399 63
561 38 571 -37 14 -82 -45 -111 -145 -42 -141 -99 -512 -116 -746 -15 -203 -6
-577 15 -700 37 -206 122 -409 233 -555 138 -183 157 -221 113 -235 -59 -19
-194 98 -288 249 -99 158 -155 320 -189 546 -22 145 -25 629 -5 790 30 246
101 584 162 775 21 66 55 176 75 243 49 170 90 246 181 342 213 223 584 382
954 409 58 5 107 9 110 10 3 0 66 -4 140 -9z"/>
<path d="M4679 5496 c-47 -17 -83 -43 -145 -108 -57 -59 -201 -268 -211 -306
-12 -50 4 -176 32 -245 127 -313 424 -475 729 -397 234 60 425 248 476 469 20
84 8 198 -28 274 -71 153 -274 278 -494 306 -132 17 -320 20 -359 7z m414
-166 c85 -26 178 -88 222 -147 135 -184 49 -447 -182 -556 -122 -56 -287 -48
-397 20 -94 58 -162 147 -191 247 -56 193 83 413 286 456 62 13 186 3 262 -20z"/>
<path d="M4842 5217 c-125 -47 -187 -203 -131 -327 46 -103 137 -160 254 -160
113 1 198 51 241 145 62 132 -2 268 -152 325 -71 27 -167 34 -212 17z m114
-145 c-8 -63 9 -91 44 -72 21 11 26 10 41 -9 31 -38 -1 -88 -62 -97 -73 -11
-140 69 -120 143 13 46 48 83 79 83 24 0 24 -2 18 -48z"/>
<path d="M3320 6534 c-22 -20 -63 -63 -90 -94 -51 -58 -51 -58 5 -28 76 41
160 119 152 141 -9 25 -22 21 -67 -19z"/>
<path d="M3261 6253 c-48 -49 -100 -107 -114 -130 -33 -52 -106 -222 -142
-331 -29 -89 -30 -124 0 -45 28 78 174 349 209 389 23 27 37 36 50 31 23 -9
18 -33 -50 -213 -172 -455 -219 -881 -155 -1414 19 -157 18 -199 -4 -252 -17
-42 73 -306 180 -523 145 -294 370 -597 574 -772 256 -220 778 -491 1083 -563
101 -24 500 -80 571 -80 70 0 130 17 237 67 100 46 451 235 447 240 -5 4 -216
-73 -327 -120 -233 -98 -293 -102 -610 -38 -260 53 -385 95 -525 175 -60 35
-183 102 -272 149 -294 156 -438 257 -566 400 -41 45 -117 128 -168 185 -215
237 -317 376 -399 546 -84 173 -92 206 -101 421 -4 105 -13 244 -18 310 -35
398 5 714 149 1192 36 119 55 205 67 299 24 198 14 205 -116 77z"/>
<path d="M2982 4325 c9 -10 21 -16 28 -13 7 2 -1 10 -16 17 -27 12 -28 11 -12
-4z"/>
<path d="M6880 3921 c0 -27 -10 -43 -58 -90 -82 -80 -256 -224 -375 -308 -55
-40 -104 -78 -109 -85 -23 -37 3 -78 49 -78 65 0 190 105 346 289 135 161 190
262 158 294 -8 8 -11 2 -11 -22z"/>
<path d="M6674 3409 c-40 -26 -100 -80 -135 -120 -35 -40 -93 -91 -129 -114
-36 -23 -97 -71 -136 -107 -118 -108 -198 -155 -379 -223 -293 -109 -548 -121
-933 -44 -84 17 -163 29 -175 27 -31 -4 -32 -30 -3 -65 97 -116 626 -202 873
-143 163 39 341 120 518 235 84 54 174 127 309 252 44 40 88 73 98 73 10 0 18
7 18 15 0 8 -4 15 -10 15 -5 0 -10 13 -10 28 0 30 33 75 124 170 28 28 48 51
46 51 -3 -1 -37 -23 -76 -50z"/>
<path d="M3944 3395 c-30 -76 157 -233 458 -386 77 -38 180 -86 230 -105 91
-36 91 -36 159 -14 68 22 68 22 260 0 321 -37 562 -19 809 61 174 56 280 120
280 168 0 29 -23 36 -74 24 -22 -6 -120 -31 -216 -56 -96 -25 -231 -52 -298
-61 -228 -29 -534 -15 -723 33 -95 24 -370 142 -607 260 -149 73 -192 91 -228
91 -31 0 -46 -5 -50 -15z"/>
<path d="M5895 3340 c-44 -5 -161 -23 -260 -39 -256 -44 -445 -57 -630 -44
-156 12 -195 7 -195 -25 0 -67 174 -112 430 -112 162 1 301 17 558 64 108 20
225 36 265 36 86 0 120 17 115 58 -6 54 -121 79 -283 62z"/>
<path d="M3631 2898 c350 -349 784 -577 1223 -643 119 -18 432 -30 399 -16
-11 5 -106 24 -210 41 -228 39 -334 66 -497 126 -137 50 -378 165 -508 242
-161 95 -404 260 -473 322 -38 34 -9 2 66 -72z"/>
</g>
</svg>
