<?xml version="1.0" standalone="no"?>
<!DOCTYPE svg PUBLIC "-//W3C//DTD SVG 20010904//EN"
 "http://www.w3.org/TR/2001/REC-SVG-20010904/DTD/svg10.dtd">
<svg version="1.0" xmlns="http://www.w3.org/2000/svg"
 width="1000.000000pt" height="1000.000000pt" viewBox="0 0 1000.000000 1000.000000"
 preserveAspectRatio="xMidYMid meet">
<metadata>
  <rdf:RDF
    xmlns:rdf = "http://www.w3.org/1999/02/22-rdf-syntax-ns#"
    xmlns:rdfs = "http://www.w3.org/2000/01/rdf-schema#"
    xmlns:dc = "http://purl.org/dc/elements/1.1/"
    xmlns:cc = "http://creativecommons.org/ns#">
    <cc:license rdf:resource="http://creativecommons.org/publicdomain/zero/1.0/deed.en"/>
    <cc:permits rdf:resource="http://creativecommons.org/ns#Reproduction"/>
    <rdf:Description about="https://nft.mir.one/fingerprints"
      dc:title="TON Fingerprints"
      dc:description="This is a unique digital fingerprint created based on the algorithm for generating basic rings using a noise texture. Like human fingerprints, you can now use it for the Web3 and Metaverse era as digital biometric information."
      dc:publisher="https://nft.mir.one"
      dc:date="2022-02-22"
      dc:format="image/svg+xml"
      dc:language="en" >
      <dc:creator>
      <rdf:Bag>
        <rdf:li>EQBondcvD2_aOFADXSWJHs4ZazQDuEl9_wNvGGPxI8hGuOFU</rdf:li>
        <rdf:li>ipfs://bafkreihj7iub3fhmhq6jn62noukt5wxn3gv6bvcg7wmt6ywvlurefezckq</rdf:li>
      </rdf:Bag>
      </dc:creator>
    </rdf:Description>
  </rdf:RDF>
</metadata>
<g transform="translate(0.000000,1000.000000) scale(0.100000,-0.100000)"
fill="#1b1f23" stroke="none">
<path d="M4475 7705 c-104 -35 -186 -63 -181 -64 13 -1 366 108 386 119 36 21
-23 6 -205 -55z"/>
<path d="M5275 7730 c-175 -8 -247 -19 -445 -71 -520 -137 -875 -287 -992
-418 -24 -27 -104 -92 -178 -146 -74 -54 -139 -101 -143 -105 -11 -9 114 23
193 50 39 13 110 26 180 31 135 11 164 18 460 109 292 90 411 120 470 120 61
0 80 -7 80 -31 0 -26 -50 -47 -270 -114 -96 -29 -254 -78 -350 -108 -96 -30
-234 -71 -306 -91 -276 -74 -356 -117 -514 -276 -98 -98 -148 -161 -272 -344
-63 -91 -80 -122 -56 -100 18 16 51 43 73 59 22 16 72 58 110 92 259 235 649
424 1260 613 110 34 244 79 298 101 97 38 99 39 165 27 57 -9 93 -8 237 11
286 37 326 41 451 41 200 0 391 -43 571 -130 45 -22 88 -40 96 -40 7 0 35 -11
61 -24 48 -24 48 -24 24 1 -40 44 -195 170 -275 224 -144 98 -340 178 -453
186 -54 4 -87 -1 -190 -30 -69 -20 -199 -54 -290 -77 -90 -23 -186 -50 -211
-62 -62 -26 -83 -22 -87 19 -6 60 56 94 312 173 220 67 280 97 299 152 9 26
-18 43 -48 30 -14 -7 -67 -16 -118 -22 -133 -16 -187 -27 -329 -70 -70 -22
-207 -58 -305 -81 -189 -44 -304 -77 -635 -183 -217 -69 -255 -76 -265 -51 -8
21 23 52 80 81 68 35 364 134 627 210 124 36 290 85 370 109 126 38 466 125
540 138 34 6 -23 5 -225 -3z"/>
<path d="M5225 7005 c-110 -8 -238 -21 -285 -29 -108 -20 -435 -112 -565 -161
-100 -37 -445 -210 -625 -313 -185 -106 -396 -272 -476 -374 -99 -127 -211
-358 -269 -558 -35 -121 -99 -410 -92 -417 2 -2 16 27 30 64 124 328 153 390
241 517 195 282 434 478 810 666 170 85 193 99 208 130 35 74 115 123 303 183
396 127 832 159 1185 87 134 -27 233 -61 343 -117 277 -142 513 -415 602 -696
43 -134 88 -431 120 -787 8 -96 24 -220 34 -275 24 -122 35 -426 20 -535 -22
-159 -96 -327 -240 -545 -124 -189 -149 -237 -149 -291 0 -40 -6 -51 -47 -95
-71 -75 -239 -195 -486 -346 -272 -165 -340 -215 -399 -291 -29 -38 -62 -67
-91 -81 -97 -47 -266 -63 -420 -40 -99 15 -509 118 -692 174 -186 57 -240 68
-266 55 -45 -25 -6 -77 96 -128 92 -45 211 -86 443 -152 116 -33 247 -76 289
-96 123 -56 180 -65 478 -76 388 -15 409 -15 495 11 105 32 221 73 217 77 -2
2 -44 -1 -93 -7 -49 -5 -141 -12 -204 -15 -96 -5 -118 -3 -135 10 -20 16 -20
16 3 35 12 11 55 27 95 36 243 54 463 169 709 372 71 58 131 109 133 114 10
14 -109 -39 -255 -115 -255 -132 -612 -276 -685 -276 -42 0 -55 22 -30 50 10
11 137 80 284 154 314 160 505 271 598 350 143 121 244 230 318 341 76 116
155 255 113 200 -42 -55 -219 -245 -251 -269 -73 -54 -133 -70 -157 -41 -10
12 -6 20 23 47 106 99 211 246 277 385 180 379 214 773 125 1483 -13 107 -33
272 -44 365 -11 94 -29 202 -39 240 -78 290 -295 625 -497 764 -283 196 -574
253 -1100 216z"/>
<path d="M6510 6956 c0 -2 8 -10 18 -17 15 -13 16 -12 3 4 -13 16 -21 21 -21
13z"/>
<path d="M5070 6693 c-327 -23 -767 -132 -828 -205 -23 -29 24 -58 96 -58 26
0 143 18 260 40 116 22 274 45 352 51 313 24 616 -41 855 -185 295 -178 472
-449 535 -821 11 -66 32 -167 46 -224 42 -167 19 -262 -107 -431 -39 -52 -110
-153 -158 -225 -165 -244 -298 -392 -443 -492 -216 -150 -409 -199 -687 -175
-357 31 -589 119 -747 284 -67 70 -106 129 -160 243 -81 169 -107 322 -119
680 -3 94 -11 220 -17 282 -10 103 -9 124 12 245 35 203 35 205 98 270 81 85
185 135 312 149 52 6 166 28 254 50 301 74 520 73 668 -2 84 -43 357 -229 416
-284 110 -101 192 -236 227 -370 19 -76 19 -230 0 -334 -20 -102 -100 -333
-153 -437 -129 -253 -345 -426 -597 -475 -27 -6 -102 -10 -165 -10 -341 1
-605 174 -733 481 -52 125 -69 212 -74 390 -6 193 7 292 62 452 19 57 39 128
45 158 5 30 28 91 50 135 43 85 47 104 28 123 -19 19 -51 14 -99 -17 -120 -75
-191 -231 -220 -475 -15 -130 -6 -498 16 -626 44 -259 170 -484 338 -604 172
-122 366 -178 617 -179 159 -1 260 17 382 69 232 97 458 335 611 642 51 102
51 102 33 153 -25 68 -17 136 34 292 33 103 40 138 40 204 0 195 -99 412 -264
578 -172 173 -430 304 -673 340 -185 28 -288 22 -678 -43 -99 -17 -220 -35
-268 -41 -119 -16 -225 -56 -387 -148 -166 -94 -232 -138 -318 -213 -80 -68
-250 -256 -309 -341 -75 -109 -130 -268 -154 -447 -9 -65 -17 -94 -35 -115
-37 -44 -47 -99 -40 -222 17 -314 114 -608 277 -840 82 -115 318 -352 432
-432 124 -87 280 -164 450 -222 300 -102 483 -139 600 -120 98 16 227 90 227
130 0 25 -27 28 -131 12 -164 -25 -249 -12 -480 77 -382 148 -539 237 -754
427 -321 285 -511 671 -541 1098 -7 97 -7 97 16 93 36 -5 58 -52 100 -215 90
-349 193 -547 389 -744 222 -222 469 -378 776 -489 64 -24 104 -45 138 -76 26
-23 68 -49 95 -58 51 -18 244 -40 271 -31 9 3 50 1 90 -4 62 -8 84 -6 135 9
98 30 149 40 274 50 124 10 187 27 292 80 265 133 513 391 745 775 57 94 116
176 161 225 59 63 74 86 85 131 18 72 18 171 0 192 -32 39 -69 11 -119 -89
-40 -79 -270 -427 -380 -572 -337 -448 -748 -641 -1124 -529 -104 31 -251 53
-443 67 -77 5 -167 17 -200 26 -129 34 -286 122 -453 252 -48 38 -118 86 -157
107 -128 70 -227 188 -325 384 -102 204 -190 508 -190 655 0 143 54 304 120
360 35 29 58 33 66 12 3 -8 -9 -59 -27 -113 -26 -82 -32 -118 -37 -224 -8
-203 30 -349 154 -595 116 -231 221 -374 273 -374 29 0 44 26 37 61 -11 54
-164 367 -220 449 -107 156 -141 363 -101 620 8 52 15 129 15 170 0 69 3 81
37 137 70 119 190 220 244 206 10 -3 19 -13 19 -22 0 -9 -45 -106 -100 -216
-91 -181 -102 -209 -117 -295 -33 -203 7 -519 70 -543 40 -15 42 1 42 285 0
260 1 275 22 321 12 26 26 47 31 47 28 0 31 -39 37 -400 4 -206 11 -393 17
-415 12 -49 120 -332 152 -400 56 -117 204 -237 386 -312 95 -39 217 -65 500
-104 343 -47 490 -36 676 50 44 21 116 62 160 91 102 69 290 257 389 390 131
177 428 632 447 685 43 124 -6 559 -93 819 -161 483 -572 779 -1143 826 -124
10 -169 10 -266 3z m-148 -3096 c66 -14 118 -39 118 -57 0 -6 -12 -15 -27 -21
-39 -15 -349 12 -435 37 -25 7 -22 30 5 49 19 14 40 16 147 11 69 -4 155 -12
192 -19z"/>
<path d="M4902 6090 c-141 -20 -273 -69 -342 -127 -37 -31 -127 -163 -136
-200 -9 -33 13 -56 45 -48 14 4 64 33 111 64 175 120 268 151 513 170 142 12
172 20 180 51 8 30 -31 65 -91 80 -63 16 -203 21 -280 10z"/>
<path d="M5146 5830 c-88 -11 -196 -29 -240 -40 -151 -38 -421 -187 -478 -264
-142 -193 -143 -504 0 -780 65 -127 166 -228 283 -284 197 -95 406 -95 599 -1
199 98 357 334 337 505 -2 25 -35 105 -76 190 -62 125 -82 157 -136 211 -92
92 -168 125 -301 131 -140 6 -226 -19 -463 -136 -37 -18 -88 -83 -108 -135
-14 -38 -16 -126 -4 -145 20 -32 46 -6 94 91 46 93 84 136 107 122 18 -11 11
-40 -35 -164 -52 -138 -55 -183 -21 -256 99 -213 416 -238 531 -41 53 91 42
198 -29 272 -51 52 -106 70 -168 54 -45 -13 -92 -56 -102 -94 -13 -52 33 -109
59 -73 18 25 52 21 71 -8 14 -21 14 -30 4 -56 -35 -83 -165 -76 -221 13 -42
68 -10 221 64 300 71 77 204 96 309 45 69 -34 141 -109 176 -185 24 -50 27
-69 27 -157 0 -91 -3 -105 -29 -155 -55 -104 -170 -192 -287 -219 -107 -25
-245 -6 -343 47 -68 37 -154 125 -193 197 -43 82 -109 251 -118 301 -8 53 8
142 39 210 61 134 239 251 459 304 113 27 281 27 369 0 170 -52 286 -184 358
-405 34 -104 47 -125 75 -125 45 0 60 40 59 160 -1 85 -6 121 -27 186 -51 154
-168 294 -301 359 -92 45 -142 49 -340 25z"/>
<path d="M7032 5650 c0 -14 2 -19 5 -12 2 6 2 18 0 25 -3 6 -5 1 -5 -13z"/>
<path d="M7041 5584 c0 -11 3 -14 6 -6 3 7 2 16 -1 19 -3 4 -6 -2 -5 -13z"/>
<path d="M7051 5524 c0 -11 3 -14 6 -6 3 7 2 16 -1 19 -3 4 -6 -2 -5 -13z"/>
<path d="M6228 5233 c-23 -26 -33 -49 -61 -138 -36 -110 -38 -149 -11 -153 75
-11 177 211 130 283 -19 29 -37 32 -58 8z"/>
<path d="M6643 4498 c-11 -13 -57 -96 -102 -185 -134 -266 -315 -519 -488
-683 -56 -54 -153 -126 -274 -206 -145 -95 -200 -138 -246 -190 -60 -68 -181
-155 -267 -193 -131 -57 -254 -66 -366 -27 -38 13 -110 29 -161 36 -51 6 -137
19 -191 30 -154 30 -553 137 -633 171 -252 105 -547 370 -745 670 -31 47 -68
101 -83 121 -15 19 -41 59 -58 89 -71 127 57 -179 147 -350 144 -272 358 -533
530 -644 133 -86 172 -99 329 -108 118 -6 167 -15 310 -52 235 -62 522 -124
631 -136 105 -11 219 0 297 29 77 29 140 68 278 171 68 51 207 148 308 216
196 132 313 225 372 295 45 54 216 310 299 448 124 205 194 397 174 477 -11
45 -32 52 -61 21z"/>
<path d="M5311 3334 c-72 -19 -126 -44 -252 -115 -122 -68 -149 -92 -132 -117
15 -24 110 -20 193 8 78 26 230 102 277 137 41 32 53 71 28 90 -23 16 -45 16
-114 -3z"/>
<path d="M3594 2954 c181 -176 444 -348 681 -445 259 -105 557 -151 543 -83
-6 34 -57 55 -243 103 -312 81 -478 148 -655 265 -52 34 -139 89 -193 122 -55
32 -136 83 -180 111 -82 53 -82 53 47 -73z"/>
<path d="M4955 2313 c-16 -2 -73 -15 -125 -29 -64 -16 -124 -24 -190 -25 -86
-1 -91 -2 -50 -11 88 -18 920 10 920 32 0 3 -46 14 -102 23 -97 16 -365 22
-453 10z"/>
<path d="M4498 2263 c7 -3 16 -2 19 1 4 3 -2 6 -13 5 -11 0 -14 -3 -6 -6z"/>
</g>
</svg>
