<?xml version="1.0" standalone="no"?>
<!DOCTYPE svg PUBLIC "-//W3C//DTD SVG 20010904//EN"
 "http://www.w3.org/TR/2001/REC-SVG-20010904/DTD/svg10.dtd">
<svg version="1.0" xmlns="http://www.w3.org/2000/svg"
 width="1000.000000pt" height="1000.000000pt" viewBox="0 0 1000.000000 1000.000000"
 preserveAspectRatio="xMidYMid meet">
<metadata>
  <rdf:RDF
    xmlns:rdf = "http://www.w3.org/1999/02/22-rdf-syntax-ns#"
    xmlns:rdfs = "http://www.w3.org/2000/01/rdf-schema#"
    xmlns:dc = "http://purl.org/dc/elements/1.1/"
    xmlns:cc = "http://creativecommons.org/ns#">
    <cc:license rdf:resource="http://creativecommons.org/publicdomain/zero/1.0/deed.en"/>
    <cc:permits rdf:resource="http://creativecommons.org/ns#Reproduction"/>
    <rdf:Description about="https://nft.mir.one/fingerprints"
      dc:title="TON Fingerprints"
      dc:description="This is a unique digital fingerprint created based on the algorithm for generating basic rings using a noise texture. Like human fingerprints, you can now use it for the Web3 and Metaverse era as digital biometric information."
      dc:publisher="https://nft.mir.one"
      dc:date="2022-02-22"
      dc:format="image/svg+xml"
      dc:language="en" >
      <dc:creator>
      <rdf:Bag>
        <rdf:li>EQBondcvD2_aOFADXSWJHs4ZazQDuEl9_wNvGGPxI8hGuOFU</rdf:li>
        <rdf:li>ipfs://bafkreihj7iub3fhmhq6jn62noukt5wxn3gv6bvcg7wmt6ywvlurefezckq</rdf:li>
      </rdf:Bag>
      </dc:creator>
    </rdf:Description>
  </rdf:RDF>
</metadata>
<g transform="translate(0.000000,1000.000000) scale(0.100000,-0.100000)"
fill="#1b1f23" stroke="none">
<path d="M4868 7803 c7 -3 16 -2 19 1 4 3 -2 6 -13 5 -11 0 -14 -3 -6 -6z"/>
<path d="M4795 7795 c-5 -2 -59 -14 -118 -26 -59 -12 -106 -24 -103 -26 4 -4
258 47 265 53 5 5 -30 4 -44 -1z"/>
<path d="M4538 7733 c7 -3 16 -2 19 1 4 3 -2 6 -13 5 -11 0 -14 -3 -6 -6z"/>
<path d="M4498 7723 c7 -3 16 -2 19 1 4 3 -2 6 -13 5 -11 0 -14 -3 -6 -6z"/>
<path d="M5015 7659 c-409 -42 -878 -188 -1145 -356 -69 -44 -120 -92 -120
-113 0 -21 -28 -46 -117 -105 -40 -26 -73 -49 -73 -50 0 -1 35 5 78 15 42 10
113 21 157 25 43 4 131 20 195 35 165 40 219 49 365 60 72 6 254 30 405 55
413 67 533 78 750 72 216 -6 328 -22 569 -82 97 -24 194 -46 216 -50 40 -6 40
-6 5 16 -92 57 -292 151 -403 187 -168 56 -250 72 -402 79 -220 10 -447 -16
-975 -112 -368 -67 -424 -80 -575 -139 -134 -53 -175 -58 -175 -23 0 43 29 64
160 118 225 91 880 233 1234 268 135 14 343 14 473 1 54 -5 134 -11 178 -13
80 -4 80 -4 20 15 -87 27 -279 75 -355 88 -91 15 -357 21 -465 9z"/>
<path d="M5265 7173 c-16 -2 -133 -20 -260 -39 -126 -19 -312 -51 -413 -70
-182 -34 -182 -34 -224 -13 -61 31 -157 21 -413 -41 -248 -60 -299 -84 -498
-233 -73 -55 -134 -101 -136 -102 -13 -13 129 30 195 58 155 67 311 119 568
193 143 41 268 74 278 74 36 0 15 -48 -34 -78 -18 -11 -147 -59 -286 -107
-416 -141 -551 -205 -690 -324 -49 -42 -265 -280 -231 -255 7 6 30 17 49 24
19 8 96 49 170 92 277 162 473 253 770 360 91 33 224 84 295 114 156 66 270
95 512 128 101 14 227 37 280 51 146 38 260 48 405 35 313 -27 595 -113 877
-267 47 -26 113 -60 146 -75 60 -28 60 -28 -25 53 -161 153 -324 269 -447 318
-63 25 -215 64 -338 86 -88 17 -479 30 -550 18z"/>
<path d="M5331 6930 c-46 -10 -81 -34 -81 -56 0 -30 48 -44 196 -59 304 -31
465 -68 665 -152 276 -118 476 -267 747 -558 93 -100 93 -100 56 -30 -134 252
-288 450 -429 550 -125 89 -376 200 -566 249 -201 52 -482 78 -588 56z"/>
<path d="M4935 6813 c-205 -12 -379 -50 -630 -138 -351 -123 -514 -197 -703
-316 -53 -34 -144 -91 -202 -126 -153 -93 -243 -184 -354 -356 -57 -88 -57
-88 4 -45 156 111 184 128 262 157 178 67 216 90 323 196 115 113 200 168 379
245 481 206 806 250 1241 164 74 -14 197 -29 285 -34 209 -12 335 -48 529
-151 310 -165 589 -433 723 -697 49 -95 60 -150 35 -171 -17 -14 -53 24 -132
139 -87 126 -160 213 -281 331 -156 151 -308 261 -482 348 -174 87 -349 126
-382 85 -21 -24 9 -46 145 -107 316 -141 578 -348 840 -662 54 -66 143 -163
196 -215 88 -87 99 -102 127 -176 80 -209 102 -344 102 -631 0 -213 4 -246 35
-277 16 -15 16 -18 1 -41 -20 -30 -13 -32 21 -5 14 11 22 20 17 20 -6 0 -16
20 -23 45 -11 37 -11 63 0 152 17 136 17 482 0 588 -7 44 -23 139 -36 210 -13
72 -29 168 -35 215 -20 152 -94 337 -185 465 -49 69 -231 248 -322 318 -260
199 -544 312 -881 352 -180 22 -248 38 -329 78 -72 36 -155 48 -288 40z"/>
<path d="M4510 6485 c-286 -65 -637 -215 -743 -317 -43 -40 -47 -49 -38 -67
21 -38 70 -27 234 50 236 111 398 171 556 204 133 28 235 15 229 -29 -3 -16
-26 -25 -153 -57 -223 -55 -393 -118 -593 -218 -53 -26 -144 -67 -202 -90 -58
-23 -127 -58 -155 -79 -50 -38 -50 -38 -50 -112 -1 -66 -5 -84 -37 -145 -34
-67 -177 -287 -215 -331 -38 -45 -83 -53 -83 -16 0 25 68 152 148 278 82 128
145 251 137 264 -8 13 -51 13 -74 1 -21 -12 -156 -194 -209 -283 -64 -106 -84
-164 -92 -268 -5 -52 -17 -124 -28 -160 -48 -154 -57 -218 -56 -400 0 -188 13
-297 65 -553 17 -81 29 -159 27 -174 -4 -36 -47 -48 -97 -27 -36 15 -36 15 15
-38 29 -30 77 -99 109 -158 109 -198 245 -383 347 -475 166 -149 449 -281 658
-308 74 -9 104 -8 187 7 92 16 107 16 206 1 162 -24 217 -47 217 -91 0 -33
-41 -42 -265 -55 -375 -22 -592 15 -860 146 -60 29 -128 59 -150 65 -22 7 -50
19 -62 26 -44 28 -22 6 85 -83 204 -171 312 -236 492 -295 89 -29 106 -32 276
-36 284 -7 408 17 553 105 50 30 131 63 250 103 209 69 312 114 655 289 142
72 264 131 271 131 7 0 18 -7 26 -16 10 -13 9 -27 -10 -86 -13 -40 -27 -111
-31 -159 -8 -106 -30 -147 -127 -240 -72 -70 -156 -129 -317 -225 -55 -32
-114 -73 -133 -90 -34 -32 -43 -71 -20 -80 15 -5 203 72 277 114 183 103 261
163 425 322 72 70 150 142 174 160 189 146 482 720 566 1113 22 100 19 143
-17 238 -32 84 -32 84 -33 309 -1 218 -2 229 -32 340 -58 219 -105 304 -294
530 -281 335 -572 585 -858 736 -52 27 -120 72 -152 101 -64 57 -107 74 -249
98 -232 40 -637 56 -750 30z m730 -195 c100 -13 184 -42 311 -107 155 -78 219
-123 327 -226 54 -51 148 -138 211 -192 243 -213 449 -480 541 -702 58 -138
118 -413 105 -474 -9 -40 -40 -38 -65 4 -11 17 -45 110 -76 206 -115 359 -297
632 -576 865 -150 125 -193 148 -281 152 -61 2 -102 14 -277 80 -270 101 -276
104 -248 132 35 35 185 -1 389 -94 139 -62 169 -67 169 -27 0 37 -60 89 -167
145 -201 105 -299 122 -547 94 -160 -19 -176 -23 -494 -127 -341 -112 -405
-144 -519 -256 -38 -37 -106 -103 -152 -146 -167 -159 -418 -531 -475 -702
-76 -234 -55 -589 49 -800 45 -92 214 -353 294 -455 118 -149 244 -253 493
-408 116 -72 148 -101 148 -133 0 -25 -24 -30 -83 -17 -117 25 -305 111 -442
203 -208 140 -447 395 -515 549 -11 23 -28 93 -39 156 -11 63 -29 158 -40 210
-32 159 -44 294 -38 450 9 238 48 352 185 534 45 59 140 193 211 299 71 106
156 218 187 250 134 134 356 253 670 360 201 69 243 87 310 137 24 19 60 34
90 39 69 12 255 12 344 1z m-65 -397 c61 -29 215 -93 343 -142 128 -49 258
-104 288 -122 204 -123 425 -372 549 -619 24 -47 69 -160 100 -250 31 -91 81
-211 111 -268 87 -166 116 -258 122 -388 4 -97 1 -124 -22 -216 -37 -147 -101
-306 -223 -550 -103 -207 -157 -288 -194 -288 -28 0 -32 37 -21 168 11 125 16
141 116 386 130 320 150 524 77 801 -17 60 -48 180 -70 265 -69 260 -201 489
-394 682 -150 149 -277 227 -542 331 -423 166 -558 171 -949 32 -124 -44 -129
-45 -214 -39 -94 7 -124 17 -116 38 8 20 81 50 284 115 312 100 411 121 550
118 91 -2 99 -5 205 -54z m-78 -248 c188 -36 446 -146 588 -252 44 -33 121
-102 170 -154 95 -100 267 -339 310 -430 37 -80 32 -169 -10 -169 -6 0 -22 25
-34 55 -15 36 -40 70 -73 100 -28 25 -54 45 -58 45 -5 0 -34 42 -66 93 -158
252 -288 379 -499 484 -341 171 -676 165 -940 -18 -89 -61 -193 -168 -234
-241 -44 -77 -94 -290 -93 -398 0 -47 0 -157 0 -245 -1 -186 0 -239 4 -475 4
-165 5 -178 31 -234 69 -148 293 -355 490 -451 274 -133 566 -116 923 54 218
104 339 216 304 281 -20 38 -72 26 -250 -59 -278 -134 -447 -179 -635 -167
-120 7 -196 26 -291 72 -63 31 -91 56 -262 235 -106 110 -192 208 -192 217 1
59 61 60 186 4 110 -49 175 -62 313 -62 322 0 532 71 697 235 89 88 131 161
160 275 23 91 15 301 -14 383 -53 148 -141 261 -267 346 -85 57 -159 87 -263
107 -95 18 -145 18 -240 -2 -122 -25 -212 -73 -301 -163 -82 -81 -126 -154
-190 -318 -18 -45 -42 -90 -53 -100 -19 -17 -20 -17 -35 2 -11 15 -13 34 -8
75 9 72 58 221 96 287 121 211 351 343 598 343 383 0 740 -271 818 -621 12
-53 17 -126 17 -259 1 -169 -1 -191 -22 -250 -75 -211 -278 -370 -580 -452
-66 -18 -107 -21 -283 -22 -215 -1 -239 -6 -239 -45 0 -30 55 -71 126 -96 265
-92 579 -27 950 196 192 115 272 269 262 504 -4 86 -12 131 -36 205 -40 126
-45 151 -32 184 13 36 28 30 67 -28 42 -64 80 -103 107 -110 68 -17 117 -326
82 -522 -8 -50 -30 -129 -47 -175 -17 -46 -47 -131 -66 -189 -20 -58 -42 -123
-49 -146 -32 -93 -163 -195 -389 -304 -234 -113 -413 -168 -571 -177 -87 -5
-113 -2 -202 20 -133 35 -255 84 -328 134 -126 86 -343 264 -416 342 -95 101
-161 206 -202 319 -29 83 -31 94 -31 247 0 160 0 160 -42 202 -55 55 -68 111
-60 275 10 243 105 456 231 520 23 11 106 84 186 162 80 78 170 161 200 183
181 136 449 193 687 148z m-810 -51 c6 -19 -37 -63 -134 -135 -116 -86 -249
-212 -315 -299 -63 -83 -131 -222 -159 -325 -33 -122 -37 -319 -10 -462 31
-162 26 -223 -19 -223 -75 0 -146 317 -120 535 31 257 147 487 358 707 109
113 167 153 277 190 82 28 116 31 122 12z m813 -455 c72 -16 165 -66 222 -118
109 -100 154 -218 146 -381 -8 -158 -40 -213 -202 -340 -32 -25 -78 -62 -103
-82 -71 -57 -141 -80 -260 -86 -164 -8 -292 29 -388 111 -81 70 -124 195 -104
304 23 121 126 346 200 434 112 134 312 199 489 158z"/>
<path d="M4035 5069 c-75 -90 -131 -286 -141 -498 -6 -126 4 -222 24 -229 20
-6 79 61 91 106 7 22 18 112 27 199 8 94 27 207 45 280 31 128 31 173 -1 173
-10 0 -30 -14 -45 -31z"/>
<path d="M4910 5037 c-118 -27 -217 -107 -273 -220 -136 -277 -15 -518 261
-517 88 0 133 17 200 74 29 24 54 36 74 36 42 0 64 15 92 63 35 59 74 275 62
340 -15 79 -112 176 -211 210 -61 22 -144 27 -205 14z m212 -154 c58 -32 118
-108 118 -149 0 -37 -29 -30 -104 28 -60 46 -74 52 -125 56 -50 4 -61 1 -83
-19 -36 -33 -42 -61 -20 -89 19 -23 19 -23 40 -2 25 25 40 27 62 9 44 -36 65
-100 48 -148 -13 -38 -55 -59 -118 -59 -147 0 -223 147 -150 290 59 115 208
152 332 83z"/>
<path d="M3270 5855 c-61 -32 -121 -96 -163 -175 -94 -174 -199 -591 -196
-775 1 -50 1 -50 11 14 5 35 17 87 27 115 10 28 43 123 75 211 92 261 144 356
270 493 79 86 92 108 75 128 -16 20 -47 17 -99 -11z"/>
<path d="M5865 3061 c-22 -10 -87 -47 -145 -83 -350 -216 -716 -380 -970 -433
-114 -24 -291 -34 -450 -27 -80 4 -181 6 -225 4 -80 -4 -80 -4 -15 -22 260
-70 355 -92 463 -106 223 -30 510 -2 667 65 36 15 135 74 221 132 86 57 203
133 260 169 64 40 137 98 191 151 78 76 88 90 88 121 0 24 -5 38 -16 42 -22 8
-24 8 -69 -13z"/>
<path d="M5300 2263 c-29 -5 -285 -59 -315 -67 -42 -11 135 6 245 24 63 10
137 21 163 25 27 3 47 8 45 9 -7 7 -114 14 -138 9z"/>
<path d="M4923 2183 c9 -2 23 -2 30 0 6 3 -1 5 -18 5 -16 0 -22 -2 -12 -5z"/>
</g>
</svg>
