<?xml version="1.0" standalone="no"?>
<!DOCTYPE svg PUBLIC "-//W3C//DTD SVG 20010904//EN"
 "http://www.w3.org/TR/2001/REC-SVG-20010904/DTD/svg10.dtd">
<svg version="1.0" xmlns="http://www.w3.org/2000/svg"
 width="1000.000000pt" height="1000.000000pt" viewBox="0 0 1000.000000 1000.000000"
 preserveAspectRatio="xMidYMid meet">
<metadata>
  <rdf:RDF
    xmlns:rdf = "http://www.w3.org/1999/02/22-rdf-syntax-ns#"
    xmlns:rdfs = "http://www.w3.org/2000/01/rdf-schema#"
    xmlns:dc = "http://purl.org/dc/elements/1.1/"
    xmlns:cc = "http://creativecommons.org/ns#">
    <cc:license rdf:resource="http://creativecommons.org/publicdomain/zero/1.0/deed.en"/>
    <cc:permits rdf:resource="http://creativecommons.org/ns#Reproduction"/>
    <rdf:Description about="https://nft.mir.one/fingerprints"
      dc:title="TON Fingerprints"
      dc:description="This is a unique digital fingerprint created based on the algorithm for generating basic rings using a noise texture. Like human fingerprints, you can now use it for the Web3 and Metaverse era as digital biometric information."
      dc:publisher="https://nft.mir.one"
      dc:date="2022-02-22"
      dc:format="image/svg+xml"
      dc:language="en" >
      <dc:creator>
      <rdf:Bag>
        <rdf:li>EQBondcvD2_aOFADXSWJHs4ZazQDuEl9_wNvGGPxI8hGuOFU</rdf:li>
        <rdf:li>ipfs://bafkreihj7iub3fhmhq6jn62noukt5wxn3gv6bvcg7wmt6ywvlurefezckq</rdf:li>
      </rdf:Bag>
      </dc:creator>
    </rdf:Description>
  </rdf:RDF>
</metadata>
<g transform="translate(0.000000,1000.000000) scale(0.100000,-0.100000)"
fill="#1b1f23" stroke="none">
<path d="M4671 7754 c-22 -27 -27 -44 -13 -44 6 1 43 70 36 70 -1 0 -12 -12
-23 -26z"/>
<path d="M4960 7723 c-14 -2 -74 -16 -134 -29 -78 -18 -124 -23 -160 -19 -51
6 -51 6 -226 -100 -96 -59 -209 -129 -250 -157 -237 -161 -422 -358 -607 -646
-176 -276 -299 -531 -401 -832 -65 -190 -66 -197 -67 -300 0 -169 64 -370 122
-378 29 -4 47 27 67 116 10 46 43 130 90 225 40 84 108 222 149 308 125 257
296 491 437 594 26 19 130 73 231 119 101 46 230 106 287 134 137 68 223 86
366 79 122 -6 160 -16 285 -79 84 -43 84 -43 270 -44 115 0 203 -5 231 -13
253 -69 477 -184 685 -352 44 -35 192 -174 330 -307 137 -134 276 -267 308
-295 58 -50 58 -50 21 19 -208 386 -300 507 -549 721 -188 162 -378 275 -671
397 -61 26 -148 69 -195 96 -205 122 -318 157 -609 185 -91 9 -194 23 -230 31
-133 31 -158 33 -221 23 -134 -21 -321 -123 -447 -243 -88 -84 -122 -131 -157
-217 -15 -39 -57 -105 -105 -167 -222 -284 -341 -494 -475 -840 -53 -136 -73
-169 -98 -159 -79 30 108 525 332 879 262 416 347 534 444 625 130 120 322
244 485 313 73 31 74 31 122 15 44 -15 54 -15 116 0 304 72 548 98 705 76 116
-17 283 -74 521 -180 181 -80 376 -153 352 -132 -36 32 -367 230 -491 292
-171 88 -271 122 -416 145 -185 30 -332 6 -672 -107 -139 -46 -135 -46 -135
-14 0 39 47 81 111 98 205 57 247 70 273 85 55 32 45 47 -24 35z m2 -679 c225
-29 443 -97 472 -147 30 -49 -71 -49 -269 3 -187 48 -311 64 -430 57 -166 -11
-280 -50 -506 -173 -149 -81 -188 -94 -208 -70 -11 13 -10 19 6 39 83 104 316
245 474 286 95 25 289 27 461 5z"/>
<path d="M4970 7379 c-210 -17 -272 -38 -234 -80 21 -23 50 -28 275 -39 311
-15 381 -34 749 -197 467 -207 589 -283 815 -503 141 -137 282 -256 259 -218
-4 7 -40 56 -79 108 -39 52 -102 140 -140 195 -158 230 -351 386 -640 518
-455 207 -632 245 -1005 216z"/>
<path d="M3532 6998 c-135 -197 -313 -544 -407 -793 -43 -114 -119 -408 -99
-381 7 11 21 53 30 95 40 187 84 300 249 636 92 186 196 378 249 458 10 15 16
27 13 27 -3 0 -19 -19 -35 -42z"/>
<path d="M4686 6739 c-77 -19 -128 -68 -95 -91 8 -5 43 -6 79 -2 36 4 135 7
220 8 86 1 161 6 168 10 24 15 12 44 -25 62 -30 15 -65 19 -173 21 -74 1 -152
-2 -174 -8z"/>
<path d="M4475 6595 c-124 -33 -281 -105 -395 -181 -150 -98 -323 -315 -447
-559 -67 -131 -170 -368 -198 -455 -10 -30 -36 -100 -57 -154 -38 -95 -40
-102 -33 -175 10 -106 51 -261 135 -501 39 -113 78 -232 86 -265 24 -92 61
-158 144 -258 147 -177 486 -493 623 -581 166 -106 428 -168 829 -197 239 -16
362 5 543 97 241 122 420 298 615 603 52 81 120 181 152 222 31 41 63 92 72
113 46 111 60 393 30 595 -40 277 -163 622 -285 802 -121 179 -328 343 -536
423 -220 85 -422 87 -661 7 -122 -41 -376 -166 -492 -242 -175 -116 -356 -320
-417 -471 -27 -66 -23 -98 11 -98 26 0 61 36 146 150 217 292 560 493 920 540
315 41 654 -115 868 -399 229 -304 337 -811 247 -1156 -23 -88 -73 -198 -144
-317 -221 -371 -476 -584 -784 -655 -95 -22 -376 -21 -538 1 -418 58 -724 260
-959 634 -36 57 -110 172 -165 255 -115 176 -155 262 -197 424 -40 154 -49
350 -23 488 39 209 154 483 283 676 124 183 257 309 422 398 156 83 229 100
485 111 221 9 296 23 330 60 15 17 16 22 4 36 -12 15 -35 16 -224 10 -195 -7
-215 -6 -275 13 -36 12 -65 21 -65 20 0 0 -23 -6 -50 -14z"/>
<path d="M5310 6540 c-85 -11 -115 -23 -163 -67 -22 -19 -69 -49 -106 -66 -57
-27 -75 -31 -131 -28 -36 2 -108 3 -160 3 -285 0 -600 -184 -803 -470 -125
-175 -226 -420 -248 -606 -25 -203 39 -616 114 -727 16 -25 31 -35 54 -37 53
-5 56 13 57 278 1 257 2 259 62 312 42 37 81 117 89 183 23 184 103 335 266
496 94 93 222 179 439 295 256 137 305 160 405 193 225 75 463 52 710 -68 235
-115 480 -339 572 -523 43 -86 187 -514 222 -663 53 -215 55 -250 55 -690 0
-358 -2 -418 -17 -475 -45 -166 -149 -361 -276 -520 -80 -100 -261 -276 -381
-373 -194 -157 -462 -315 -618 -367 -86 -28 -476 -125 -585 -145 -151 -27
-171 -51 -83 -94 73 -36 183 -33 401 13 94 20 191 36 217 36 78 0 143 19 245
71 342 174 708 504 935 843 233 349 331 714 332 1246 1 179 -3 243 -17 313
-30 146 -81 312 -152 487 -72 180 -86 238 -62 258 23 19 40 6 91 -71 66 -99
138 -253 185 -394 80 -241 121 -374 121 -395 0 -12 3 -19 6 -16 8 9 -35 330
-62 461 -37 178 -105 355 -168 440 -11 16 -52 48 -91 70 -39 24 -96 70 -130
107 -140 151 -265 276 -336 336 -206 172 -444 296 -650 338 -95 19 -256 27
-339 16z m-445 -230 c15 -24 -23 -53 -133 -105 -262 -123 -364 -188 -488 -312
-176 -176 -270 -369 -315 -651 -14 -82 -28 -97 -62 -64 -65 65 -7 340 115 546
170 290 430 481 778 575 88 23 97 24 105 11z"/>
<path d="M5115 5860 c-112 -24 -186 -50 -295 -105 -158 -79 -261 -170 -422
-371 -53 -65 -117 -139 -143 -164 -61 -59 -107 -137 -140 -233 -22 -66 -28
-109 -37 -260 -12 -224 -8 -289 30 -397 17 -47 40 -122 52 -168 45 -167 166
-296 378 -402 182 -91 312 -116 647 -125 254 -7 291 -2 412 55 275 127 538
469 630 818 22 83 26 119 26 252 1 178 -14 272 -69 432 -117 338 -343 567
-650 659 -102 31 -300 35 -419 9z m370 -173 c156 -51 324 -177 413 -309 165
-243 218 -559 143 -849 -84 -319 -346 -645 -584 -729 -66 -23 -110 -25 -126
-6 -19 23 -2 43 92 107 174 118 292 259 398 474 74 152 102 269 102 435 0 157
-19 245 -82 375 -88 184 -233 314 -426 381 -71 25 -94 28 -210 28 -148 1 -226
-18 -350 -82 -70 -37 -170 -126 -192 -172 -13 -26 -67 -167 -110 -285 -33 -91
-40 -195 -20 -305 9 -47 13 -98 10 -113 -14 -71 78 -195 188 -250 77 -39 188
-60 274 -53 163 13 397 107 475 192 143 154 161 406 42 590 -85 132 -246 214
-417 214 -83 0 -153 -19 -245 -65 -131 -66 -175 -40 -81 48 159 149 425 180
640 74 136 -66 265 -229 305 -384 51 -198 18 -377 -110 -597 -29 -50 -58 -111
-64 -136 -26 -102 -100 -183 -287 -315 -90 -64 -114 -76 -180 -91 -225 -50
-518 43 -706 225 -72 69 -94 106 -76 128 21 25 80 10 171 -45 298 -179 499
-206 726 -97 144 69 267 172 260 218 -5 39 -62 34 -181 -17 -153 -65 -215 -80
-332 -80 -116 1 -160 11 -274 66 -111 53 -197 134 -207 195 -3 24 -12 50 -19
60 -11 15 -17 15 -40 5 -38 -17 -60 -8 -82 36 -25 52 -26 287 0 382 25 91 82
205 174 345 135 205 241 300 416 370 128 52 202 65 357 61 113 -2 148 -7 215
-29z m-329 -528 c66 -31 79 -50 66 -101 -6 -24 -14 -65 -17 -93 -16 -122 -101
-216 -186 -203 -37 5 -33 24 20 77 59 60 79 113 61 167 -6 19 -20 39 -30 44
-47 25 -107 -3 -82 -38 24 -33 24 -43 1 -68 -56 -59 -143 -53 -174 13 -23 47
-8 100 41 147 84 82 198 102 300 55z m199 -83 c109 -83 106 -303 -6 -430 -100
-113 -282 -171 -447 -142 -128 22 -277 104 -270 149 6 42 47 44 186 9 151 -38
236 -41 315 -12 61 23 128 83 158 142 41 81 35 193 -14 260 -11 14 -16 31 -13
37 12 19 58 12 91 -13z"/>
<path d="M2944 5505 c3 -16 13 -88 22 -160 18 -151 64 -375 99 -492 14 -46 50
-138 79 -205 29 -68 66 -157 80 -198 35 -95 68 -153 105 -179 60 -43 110 -15
96 52 -4 18 -36 111 -72 207 -36 96 -94 258 -130 359 -35 102 -90 234 -120
295 -31 61 -66 139 -79 172 -33 88 -87 188 -80 149z"/>
<path d="M2920 4769 c0 -18 93 -278 119 -331 39 -82 58 -100 77 -74 8 11 11
30 8 45 -9 39 -122 260 -157 306 -39 50 -47 60 -47 54z"/>
<path d="M3015 4234 c24 -30 50 -64 56 -76 23 -43 147 -203 186 -239 49 -46
307 -244 443 -341 237 -168 354 -226 438 -219 21 2 13 47 -17 87 -15 22 -94
93 -175 158 -81 65 -222 184 -314 265 -196 172 -228 197 -305 240 -31 18 -96
59 -144 92 -50 34 -101 61 -122 64 -20 3 -48 9 -63 14 -25 8 -24 5 17 -45z"/>
<path d="M6543 4098 c-12 -13 -54 -84 -93 -158 -100 -187 -178 -297 -300 -424
-209 -217 -440 -363 -681 -432 -99 -29 -116 -28 -206 10 -50 21 -88 28 -200
36 -288 21 -440 49 -759 141 -132 37 -144 39 -171 26 -133 -68 -335 26 -793
367 -120 89 -212 146 -238 146 -3 0 8 -15 24 -32 17 -18 61 -73 99 -123 94
-123 295 -322 380 -377 215 -138 300 -167 615 -208 129 -17 314 -47 410 -66
203 -42 351 -48 530 -21 85 13 107 14 118 3 19 -18 -1 -55 -44 -85 -44 -31
-171 -68 -294 -86 -135 -21 -155 -19 -229 19 -103 52 -189 66 -515 86 -92 6
-200 17 -240 26 -97 21 -250 97 -376 186 -58 41 -134 90 -170 110 -65 35 -65
35 120 -152 197 -199 269 -257 396 -317 87 -42 112 -44 264 -26 48 5 176 7
295 4 200 -6 210 -7 210 -26 0 -23 -53 -61 -109 -77 -44 -12 -188 -16 -359 -9
-127 6 -151 -5 -102 -44 68 -55 300 -115 443 -115 74 0 83 2 129 34 82 56 145
84 280 121 232 65 342 106 521 195 312 155 491 275 681 456 160 153 266 292
354 470 74 149 106 271 87 330 -14 41 -45 46 -77 12z"/>
<path d="M5290 2276 c-74 -35 -145 -67 -158 -71 -13 -4 -21 -9 -19 -12 8 -8
256 78 289 101 31 20 48 46 31 46 -4 0 -69 -29 -143 -64z"/>
<path d="M4368 2313 c7 -3 16 -2 19 1 4 3 -2 6 -13 5 -11 0 -14 -3 -6 -6z"/>
<path d="M4525 2286 c72 -12 147 -26 168 -30 48 -9 42 7 -11 31 -26 11 -74 17
-162 19 -125 3 -125 3 5 -20z"/>
</g>
</svg>
