<?xml version="1.0" standalone="no"?>
<!DOCTYPE svg PUBLIC "-//W3C//DTD SVG 20010904//EN"
 "http://www.w3.org/TR/2001/REC-SVG-20010904/DTD/svg10.dtd">
<svg version="1.0" xmlns="http://www.w3.org/2000/svg"
 width="1000.000000pt" height="1000.000000pt" viewBox="0 0 1000.000000 1000.000000"
 preserveAspectRatio="xMidYMid meet">
<metadata>
  <rdf:RDF
    xmlns:rdf = "http://www.w3.org/1999/02/22-rdf-syntax-ns#"
    xmlns:rdfs = "http://www.w3.org/2000/01/rdf-schema#"
    xmlns:dc = "http://purl.org/dc/elements/1.1/"
    xmlns:cc = "http://creativecommons.org/ns#">
    <cc:license rdf:resource="http://creativecommons.org/publicdomain/zero/1.0/deed.en"/>
    <cc:permits rdf:resource="http://creativecommons.org/ns#Reproduction"/>
    <rdf:Description about="https://nft.mir.one/fingerprints"
      dc:title="TON Fingerprints"
      dc:description="This is a unique digital fingerprint created based on the algorithm for generating basic rings using a noise texture. Like human fingerprints, you can now use it for the Web3 and Metaverse era as digital biometric information."
      dc:publisher="https://nft.mir.one"
      dc:date="2022-02-22"
      dc:format="image/svg+xml"
      dc:language="en" >
      <dc:creator>
      <rdf:Bag>
        <rdf:li>EQBondcvD2_aOFADXSWJHs4ZazQDuEl9_wNvGGPxI8hGuOFU</rdf:li>
        <rdf:li>ipfs://bafkreihj7iub3fhmhq6jn62noukt5wxn3gv6bvcg7wmt6ywvlurefezckq</rdf:li>
      </rdf:Bag>
      </dc:creator>
    </rdf:Description>
  </rdf:RDF>
</metadata>
<g transform="translate(0.000000,1000.000000) scale(0.100000,-0.100000)"
fill="#1b1f23" stroke="none">
<path d="M4500 7706 c-115 -11 -115 -11 -5 -29 61 -9 182 -24 270 -32 406 -39
756 -112 1130 -235 108 -36 276 -81 282 -76 6 5 -374 190 -462 224 -179 70
-371 118 -592 147 -133 17 -447 18 -623 1z"/>
<path d="M4400 7510 c-115 -14 -252 -46 -390 -89 -69 -22 -123 -41 -120 -42 3
-1 133 -5 290 -9 270 -7 304 -10 645 -59 509 -73 682 -112 921 -207 269 -106
413 -195 587 -361 162 -157 397 -361 450 -391 23 -14 51 -32 61 -41 33 -28
-182 249 -292 377 -58 67 -127 155 -153 195 -186 292 -714 499 -1549 607 -189
25 -350 32 -450 20z"/>
<path d="M3984 7221 c-109 -30 -215 -74 -330 -138 -105 -58 -105 -58 -63 -61
24 -2 81 4 128 12 223 41 650 61 761 35 72 -16 102 -56 60 -79 -19 -10 -83
-17 -390 -40 -197 -15 -410 -46 -473 -70 -64 -24 -169 -88 -281 -172 -82 -60
-84 -63 -55 -66 16 -2 69 8 117 22 213 62 388 93 734 131 242 26 309 40 458
93 66 24 116 34 220 43 309 27 531 -17 815 -161 239 -121 398 -230 578 -396
222 -205 285 -260 412 -361 162 -130 251 -189 292 -197 33 -5 33 -5 -10 55
-225 322 -223 319 -467 538 -382 342 -485 416 -741 531 -234 105 -443 158
-761 191 -111 11 -243 30 -293 41 -49 11 -128 29 -175 40 -62 14 -137 20 -275
24 -165 4 -199 2 -261 -15z"/>
<path d="M5041 6799 c-30 -5 -77 -22 -105 -38 -44 -25 -69 -31 -171 -40 -66
-6 -172 -18 -235 -26 -63 -8 -187 -22 -275 -30 -317 -31 -561 -69 -735 -116
-79 -21 -204 -98 -319 -195 -54 -46 -54 -46 -5 -42 27 3 130 25 229 51 371 96
650 130 1075 131 295 1 295 1 472 -46 199 -53 389 -83 457 -73 25 4 63 14 84
23 49 19 96 9 242 -53 207 -89 345 -184 345 -238 0 -38 -56 -27 -262 52 -152
58 -249 79 -436 91 -89 6 -269 26 -400 45 -590 87 -1082 66 -1611 -70 -109
-27 -158 -58 -274 -169 -77 -75 -77 -75 -40 -69 21 3 74 16 118 29 270 79 602
139 835 150 80 4 205 1 345 -10 121 -8 299 -20 395 -26 542 -33 789 -59 935
-99 216 -58 437 -127 485 -151 143 -72 480 -315 622 -448 101 -95 127 -135
167 -252 21 -59 46 -111 68 -138 19 -24 37 -42 38 -40 2 2 -7 41 -21 87 -26
90 -30 135 -14 176 12 31 -16 111 -82 237 -71 138 -97 163 -338 344 -218 163
-262 203 -480 432 -97 102 -157 144 -446 313 -133 78 -241 134 -299 155 -136
49 -271 68 -364 53z m103 -134 c201 -35 357 -107 364 -168 5 -40 23 -42 -250
28 -250 65 -298 87 -298 136 0 16 7 19 49 19 26 0 87 -7 135 -15z"/>
<path d="M3900 6024 c-14 -2 -86 -14 -160 -25 -216 -33 -399 -68 -479 -91 -80
-24 -137 -67 -241 -187 -50 -58 -50 -58 -12 -51 20 4 86 27 146 50 170 65 255
84 353 77 71 -5 101 -2 205 24 222 54 461 76 533 49 63 -24 -6 -82 -118 -100
-265 -42 -294 -49 -397 -99 -68 -32 -276 -235 -338 -330 -37 -56 -42 -70 -42
-120 0 -31 -11 -95 -24 -141 -14 -47 -30 -125 -35 -175 -10 -84 -17 -102 -96
-260 -64 -129 -88 -189 -100 -250 -17 -83 -34 -285 -35 -395 0 -65 0 -65 35
10 19 41 35 80 35 86 0 18 77 209 115 285 48 95 132 223 181 274 22 23 77 66
124 97 96 64 139 100 371 313 341 312 409 387 393 428 -11 30 -53 29 -104 0
-27 -16 -179 -155 -344 -314 -286 -278 -348 -329 -403 -329 -24 0 -48 24 -38
40 3 6 21 16 38 24 40 17 66 42 200 193 59 67 161 169 226 225 157 137 188
181 136 194 -32 8 -130 -38 -211 -99 -136 -103 -284 -289 -359 -449 -27 -60
-33 -67 -45 -53 -34 41 33 241 122 367 53 73 161 179 233 228 88 60 149 79
250 80 50 0 125 7 168 15 43 8 96 15 116 15 20 0 77 14 127 30 119 41 252 67
409 80 72 6 203 18 293 26 208 18 299 18 429 -2 184 -27 391 -99 408 -142 8
-21 -28 -52 -60 -52 -13 0 -97 17 -187 37 -142 32 -180 37 -299 37 -135 1
-135 1 -195 -35 -58 -36 -62 -37 -194 -43 -177 -9 -301 -29 -399 -65 -96 -35
-144 -67 -253 -169 -46 -43 -146 -131 -223 -197 -204 -174 -605 -538 -642
-583 -125 -153 -263 -456 -279 -614 -10 -105 12 -277 64 -482 47 -190 47 -190
53 55 6 259 17 335 75 526 40 134 132 317 217 430 156 206 534 538 812 712
231 145 475 186 715 122 412 -110 712 -197 778 -225 245 -105 493 -324 699
-616 64 -91 187 -289 223 -359 24 -48 96 -126 87 -95 -3 10 -9 51 -12 89 -19
209 -57 326 -154 472 -209 316 -355 465 -638 650 -78 51 -147 101 -153 112
-14 27 -13 84 2 99 26 26 93 13 195 -38 256 -129 479 -360 707 -734 84 -137
157 -230 142 -181 -3 11 -17 76 -30 145 -40 202 -86 330 -160 450 -138 224
-287 361 -601 550 -65 40 -147 92 -180 116 -82 58 -160 95 -275 132 -224 71
-342 83 -915 92 -480 7 -480 7 -565 35 -76 25 -102 28 -240 31 -85 1 -166 0
-180 -2z m1541 -514 c297 -48 479 -111 479 -164 0 -19 -8 -27 -32 -35 -39 -13
-84 -6 -278 38 -278 65 -380 106 -380 155 0 39 3 39 211 6z"/>
<path d="M3305 5655 c-77 -29 -153 -58 -168 -65 -39 -17 -114 -93 -168 -171
-52 -74 -65 -76 101 15 101 56 180 44 109 -16 -115 -99 -164 -164 -211 -283
-67 -167 -63 -153 -33 -125 15 14 48 52 73 85 25 33 89 104 141 158 54 55 108
122 126 154 19 37 50 73 85 101 140 111 171 143 168 171 -5 44 -60 39 -223
-24z"/>
<path d="M3226 5219 c-37 -29 -110 -135 -146 -211 -39 -83 -74 -205 -109 -380
-29 -139 -29 -139 0 -106 37 41 136 235 196 382 25 61 65 155 89 209 24 53 44
104 44 112 0 22 -43 19 -74 -6z"/>
<path d="M4815 5153 c-261 -36 -576 -223 -871 -517 -133 -132 -213 -238 -283
-374 -140 -274 -215 -669 -166 -888 22 -102 75 -244 136 -366 43 -85 243 -398
254 -398 3 0 -6 24 -20 53 -45 98 -143 352 -163 427 -55 198 -72 449 -43 620
29 173 109 435 166 550 131 260 493 572 765 658 109 35 188 45 365 45 263 1
402 -33 709 -174 255 -117 420 -225 568 -372 144 -144 257 -311 302 -448 24
-71 28 -100 27 -185 0 -59 6 -125 14 -158 17 -64 78 -191 98 -203 7 -4 21 -19
30 -33 17 -24 17 -24 17 33 0 31 7 101 16 155 10 56 17 158 18 242 1 145 1
145 -41 233 -94 197 -213 367 -367 526 -205 210 -422 342 -736 445 -303 101
-480 137 -654 135 -61 -1 -124 -4 -141 -6z"/>
<path d="M4620 4805 c-137 -37 -333 -164 -483 -312 -161 -159 -221 -257 -238
-394 -5 -44 -28 -137 -49 -206 -108 -338 -92 -636 50 -939 96 -208 265 -378
475 -479 138 -67 228 -89 365 -90 115 0 115 0 290 89 213 108 323 178 408 260
132 126 192 239 213 403 12 95 3 159 -26 183 -27 22 -52 -15 -90 -133 -54
-167 -95 -238 -195 -337 -136 -134 -349 -244 -541 -278 -81 -14 -97 -14 -178
0 -211 38 -383 175 -543 435 -69 111 -107 205 -125 313 -29 161 -1 367 68 508
36 74 257 316 391 429 147 124 438 303 556 342 148 50 428 30 440 -31 7 -37
-44 -53 -263 -78 -54 -7 -129 -21 -165 -32 -157 -49 -379 -176 -507 -291 -153
-137 -299 -323 -347 -444 -68 -165 -73 -394 -11 -512 17 -34 61 -77 95 -94 14
-7 52 -53 87 -102 79 -115 154 -184 245 -229 122 -60 224 -70 368 -36 192 46
365 170 457 327 14 24 45 89 69 144 24 55 58 120 76 145 29 41 33 53 32 108
-1 85 -37 149 -134 238 -90 83 -183 132 -295 155 -100 20 -204 9 -356 -37 -82
-26 -115 -31 -156 -27 -53 6 -53 6 -103 -51 -59 -65 -123 -189 -144 -277 -9
-33 -20 -104 -26 -158 -12 -115 -30 -160 -63 -155 -28 4 -45 76 -46 203 -2
199 62 358 238 592 138 184 379 319 641 358 137 21 349 19 468 -4 53 -10 130
-24 171 -29 153 -22 265 -107 458 -350 137 -171 188 -209 224 -166 55 67 -93
340 -284 521 -126 120 -196 161 -527 315 -41 19 -97 53 -123 75 -120 100 -224
126 -502 128 -110 0 -225 4 -255 8 -38 5 -72 2 -110 -8z m156 -100 c11 -28
-25 -63 -133 -128 -195 -118 -282 -186 -444 -349 -150 -152 -186 -177 -204
-147 -4 6 5 33 19 60 105 203 430 474 671 560 63 22 84 23 91 4z m305 -1005
c120 -37 219 -142 235 -248 10 -65 -11 -165 -52 -247 -88 -179 -239 -277 -429
-278 -78 -1 -98 3 -153 28 -79 35 -153 113 -177 185 -20 59 -22 190 -6 263 46
198 207 314 442 316 51 1 99 -6 140 -19z"/>
<path d="M4795 3575 c-103 -38 -165 -132 -165 -249 0 -83 21 -135 71 -183 101
-96 272 -87 377 20 105 107 115 264 22 354 -18 18 -49 40 -69 49 -49 24 -183
29 -236 9z m75 -165 c0 -47 18 -60 55 -40 30 16 55 0 55 -35 0 -37 -10 -55
-41 -70 -75 -39 -152 11 -151 98 1 44 32 87 64 87 14 0 18 -8 18 -40z"/>
<path d="M4990 4161 c-195 -42 -393 -159 -429 -254 -28 -74 -5 -79 96 -22 196
110 376 146 548 110 93 -20 156 -52 239 -122 108 -91 132 -106 161 -99 71 18
15 188 -100 299 -101 98 -302 133 -515 88z"/>
<path d="M5692 4148 c-21 -21 -14 -50 37 -156 27 -56 54 -131 61 -165 10 -56
9 -73 -10 -153 -19 -79 -22 -121 -24 -364 -1 -151 1 -289 5 -307 17 -81 -132
-280 -314 -420 -93 -72 -183 -123 -332 -188 -138 -60 -171 -86 -125 -98 12 -3
50 -1 83 4 233 37 528 195 693 371 95 102 221 256 290 355 36 51 82 107 104
124 84 68 137 299 95 418 -8 23 -29 63 -47 89 -44 65 -310 391 -344 423 -75
70 -143 96 -172 67z m303 -531 c60 -60 81 -189 50 -312 -34 -133 -141 -305
-189 -305 -35 0 -37 8 -14 64 59 146 70 203 75 386 6 213 14 231 78 167z"/>
<path d="M6441 3377 c-25 -31 -42 -110 -62 -281 -11 -100 -23 -192 -26 -206
-10 -45 6 -16 61 108 93 205 127 347 94 380 -16 16 -53 15 -67 -1z"/>
<path d="M6208 3088 c-10 -7 -43 -60 -74 -118 -85 -157 -140 -236 -229 -329
-112 -117 -293 -277 -378 -335 -40 -26 -74 -51 -77 -54 -11 -12 179 93 235
131 114 76 311 235 363 291 62 68 142 187 183 274 46 96 32 182 -23 140z"/>
</g>
</svg>
