<?xml version="1.0" standalone="no"?>
<!DOCTYPE svg PUBLIC "-//W3C//DTD SVG 20010904//EN"
 "http://www.w3.org/TR/2001/REC-SVG-20010904/DTD/svg10.dtd">
<svg version="1.0" xmlns="http://www.w3.org/2000/svg"
 width="1000.000000pt" height="1000.000000pt" viewBox="0 0 1000.000000 1000.000000"
 preserveAspectRatio="xMidYMid meet">
<metadata>
  <rdf:RDF
    xmlns:rdf = "http://www.w3.org/1999/02/22-rdf-syntax-ns#"
    xmlns:rdfs = "http://www.w3.org/2000/01/rdf-schema#"
    xmlns:dc = "http://purl.org/dc/elements/1.1/"
    xmlns:cc = "http://creativecommons.org/ns#">
    <cc:license rdf:resource="http://creativecommons.org/publicdomain/zero/1.0/deed.en"/>
    <cc:permits rdf:resource="http://creativecommons.org/ns#Reproduction"/>
    <rdf:Description about="https://nft.mir.one/fingerprints"
      dc:title="TON Fingerprints"
      dc:description="This is a unique digital fingerprint created based on the algorithm for generating basic rings using a noise texture. Like human fingerprints, you can now use it for the Web3 and Metaverse era as digital biometric information."
      dc:publisher="https://nft.mir.one"
      dc:date="2022-02-22"
      dc:format="image/svg+xml"
      dc:language="en" >
      <dc:creator>
      <rdf:Bag>
        <rdf:li>EQBondcvD2_aOFADXSWJHs4ZazQDuEl9_wNvGGPxI8hGuOFU</rdf:li>
        <rdf:li>ipfs://bafkreihj7iub3fhmhq6jn62noukt5wxn3gv6bvcg7wmt6ywvlurefezckq</rdf:li>
      </rdf:Bag>
      </dc:creator>
    </rdf:Description>
  </rdf:RDF>
</metadata>
<g transform="translate(0.000000,1000.000000) scale(0.100000,-0.100000)"
fill="#1b1f23" stroke="none">
<path d="M4748 7785 c15 -29 53 -62 85 -74 15 -6 96 -15 180 -21 261 -16 417
-54 417 -99 0 -18 -6 -21 -49 -21 -26 0 -106 9 -177 20 -141 22 -269 26 -279
10 -17 -28 41 -54 189 -85 137 -28 235 -34 321 -20 93 14 160 8 328 -30 100
-23 276 -55 302 -54 20 0 -234 101 -385 154 -85 29 -189 69 -230 89 -98 46
-188 63 -423 81 -196 14 -236 23 -271 53 -18 16 -18 16 -8 -3z"/>
<path d="M4584 7570 c-22 -11 -47 -32 -55 -46 -12 -24 -12 -28 11 -46 18 -14
30 -17 49 -11 53 17 134 7 211 -25 41 -17 109 -45 150 -62 105 -44 226 -74
463 -114 311 -53 575 -124 847 -228 107 -41 250 -83 234 -69 -47 42 -292 194
-395 246 -224 110 -397 156 -664 175 -166 12 -281 30 -382 61 -88 27 -118 43
-159 84 -42 42 -86 55 -189 55 -60 0 -90 -5 -121 -20z"/>
<path d="M4201 7415 c-96 -21 -214 -62 -332 -116 -58 -26 -119 -51 -134 -55
-28 -7 -27 -8 21 -22 27 -8 110 -18 184 -22 201 -12 278 -31 480 -115 200 -84
279 -110 617 -206 433 -123 551 -160 743 -236 320 -127 612 -289 952 -529 68
-48 152 -102 187 -120 63 -33 63 -33 39 -6 -14 15 -58 72 -99 126 -130 176
-220 261 -365 348 -362 215 -667 336 -1239 493 -316 87 -459 135 -580 195
-117 58 -180 109 -235 191 -22 32 -50 65 -62 73 -27 19 -90 19 -177 1z"/>
<path d="M4570 7401 c0 -62 88 -131 254 -200 124 -52 232 -85 541 -165 306
-79 442 -120 610 -184 235 -89 440 -188 638 -309 49 -29 93 -53 98 -53 5 0 29
-9 52 -21 37 -18 27 -6 -78 101 -198 201 -313 286 -474 352 -231 94 -483 168
-825 243 -319 70 -397 94 -659 209 -71 31 -135 56 -143 56 -9 0 -14 -11 -14
-29z"/>
<path d="M3760 6981 c-34 -11 -118 -54 -177 -91 -56 -35 -252 -183 -252 -190
-1 -3 16 -11 38 -17 32 -10 58 -9 167 12 365 67 490 66 1175 -10 383 -43 1025
-265 1329 -461 230 -149 775 -536 886 -631 29 -24 72 -54 96 -66 43 -22 43
-22 13 25 -16 26 -55 88 -85 138 -70 118 -133 195 -195 243 -87 66 -456 311
-572 380 -308 182 -619 307 -1077 431 -280 76 -885 217 -995 232 -113 14 -309
17 -351 5z"/>
<path d="M4571 6550 c-61 -18 -72 -19 -204 -5 -332 35 -552 7 -892 -116 -82
-29 -96 -38 -160 -104 -95 -98 -171 -206 -251 -360 -60 -114 -65 -127 -40
-107 16 12 35 22 42 22 7 0 46 25 86 55 101 77 230 137 426 201 163 53 168 56
220 109 62 63 126 91 246 106 152 19 314 -7 504 -82 70 -28 246 -86 392 -130
146 -44 362 -117 480 -161 378 -141 401 -148 448 -150 26 -1 67 1 92 5 42 8
51 5 135 -43 241 -138 482 -315 834 -614 47 -39 103 -80 125 -91 41 -20 41
-20 -24 110 -100 200 -130 239 -202 269 -41 16 -50 36 -18 36 33 0 23 28 -15
40 -20 7 -86 48 -148 92 -62 45 -186 133 -277 196 -91 63 -214 154 -275 202
-60 48 -139 106 -174 129 -175 112 -522 250 -871 346 -250 68 -363 79 -479 45z
m169 -106 c131 -25 346 -86 559 -159 331 -113 567 -227 640 -310 31 -35 42
-85 19 -85 -6 0 -75 31 -152 69 -251 123 -482 208 -879 327 -214 63 -283 90
-319 122 -21 18 -24 48 -5 55 13 5 12 5 137 -19z"/>
<path d="M3960 6201 c-30 -5 -72 -15 -92 -24 -71 -30 -39 -90 62 -116 19 -6
120 -19 224 -31 416 -46 922 -180 1456 -385 228 -88 370 -156 504 -245 199
-131 316 -224 764 -603 67 -57 140 -111 161 -119 39 -16 39 -16 16 36 -12 28
-37 86 -55 129 -18 43 -45 97 -60 120 -51 81 -554 479 -763 604 -120 72 -206
110 -338 148 -52 15 -195 64 -319 110 -124 45 -281 101 -350 123 -217 70 -754
220 -846 236 -110 19 -291 27 -364 17z"/>
<path d="M3651 5899 c-136 -23 -402 -140 -492 -217 -40 -35 -138 -171 -177
-248 -12 -23 -32 -55 -46 -71 -25 -29 -25 -29 22 -23 26 4 95 30 155 58 136
66 534 234 612 260 123 41 173 47 410 47 252 0 378 -13 630 -66 336 -70 788
-227 976 -339 39 -23 117 -86 174 -140 57 -54 158 -139 224 -190 172 -129 282
-224 387 -331 100 -103 152 -175 209 -289 67 -135 158 -284 194 -320 19 -19
32 -27 28 -17 -3 9 -13 56 -22 105 -8 48 -26 130 -40 182 -28 110 -31 143 -10
160 11 9 23 4 62 -32 100 -90 96 -89 67 -21 -29 68 -67 108 -314 335 -304 280
-690 578 -890 686 -239 130 -784 312 -1155 387 -221 44 -355 62 -605 80 -226
16 -318 17 -399 4z"/>
<path d="M4065 5564 c-223 -26 -335 -72 -335 -137 0 -60 113 -71 371 -36 364
50 744 -8 1228 -187 177 -66 268 -109 283 -134 24 -40 63 -49 127 -30 70 22
79 49 31 104 -44 50 -74 66 -256 139 -487 197 -901 289 -1274 286 -80 -1 -158
-4 -175 -5z m1649 -476 c5 -9 8 -20 5 -23 -10 -9 -80 25 -73 36 9 15 55 6 68
-13z"/>
<path d="M3430 5295 c-36 -8 -125 -33 -199 -57 -125 -40 -136 -45 -175 -89
-23 -26 -57 -75 -75 -110 -19 -35 -44 -78 -57 -96 -24 -31 -24 -31 19 -26 23
3 80 19 127 35 316 110 563 101 1002 -38 210 -66 257 -73 328 -49 148 49 494
-37 918 -227 391 -176 590 -307 864 -567 135 -129 195 -208 263 -346 49 -102
75 -174 153 -423 29 -94 29 -94 38 -10 5 45 9 146 9 223 0 125 -2 146 -24 195
-126 291 -393 597 -701 804 -110 74 -257 146 -515 252 -419 171 -634 230 -951
258 -187 17 -261 36 -305 77 -34 32 -39 69 -9 69 26 0 318 -27 440 -41 221
-25 466 -93 780 -216 91 -36 224 -85 295 -110 217 -76 348 -150 524 -298 213
-179 399 -424 555 -732 24 -48 55 -102 68 -119 24 -32 24 -32 20 40 -3 87 -17
204 -32 273 -12 55 -129 255 -237 406 -139 192 -460 463 -657 553 -51 23 -66
26 -125 20 -85 -9 -141 4 -256 56 -412 187 -901 303 -1204 285 -109 -6 -138
-15 -193 -59 -39 -31 -40 -31 -126 -25 -109 8 -187 28 -281 72 -63 30 -83 35
-145 34 -39 0 -100 -7 -136 -14z"/>
<path d="M3305 4834 c-70 -10 -182 -37 -207 -50 -36 -18 -105 -123 -156 -236
-8 -18 61 -6 119 22 153 70 354 103 394 64 9 -9 14 -23 11 -31 -3 -8 -6 -16
-6 -19 0 -7 -75 -41 -195 -89 -131 -52 -146 -61 -182 -119 -20 -30 -83 -171
-83 -184 0 -14 135 46 495 224 83 40 173 79 200 85 74 17 265 15 380 -6 109
-19 411 -103 600 -166 186 -63 275 -118 275 -169 0 -29 -20 -29 -120 2 -145
44 -390 103 -535 129 -106 19 -165 23 -325 23 -173 1 -205 -2 -280 -22 -170
-46 -467 -158 -501 -188 -8 -7 -37 -54 -63 -104 -47 -90 -47 -90 -19 -90 16 0
69 13 117 30 95 32 363 96 552 132 107 20 150 23 414 23 281 0 302 -1 455 -29
132 -23 173 -27 240 -21 155 14 185 8 393 -81 236 -102 361 -206 602 -504 107
-132 180 -238 288 -419 42 -71 86 -144 97 -161 11 -18 27 -46 36 -61 16 -29
16 -29 23 39 4 37 9 86 12 109 5 36 1 52 -27 100 -18 32 -61 110 -97 173 -67
119 -99 164 -192 265 -31 33 -95 112 -142 175 -171 226 -267 305 -583 480 -82
45 -190 108 -240 140 -141 90 -208 120 -500 226 -55 20 -154 62 -220 94 -192
92 -296 121 -635 174 -229 36 -341 48 -395 40z"/>
<path d="M4408 4793 c-25 -6 -22 -45 5 -70 34 -32 87 -55 277 -122 359 -127
854 -396 1066 -580 96 -82 146 -147 209 -268 73 -140 161 -228 210 -210 17 7
7 34 -63 158 -65 118 -53 181 20 104 72 -77 109 -193 75 -239 -11 -15 -6 -32
39 -121 62 -124 112 -258 122 -329 15 -103 66 -41 85 103 11 90 11 90 -47 268
-93 285 -137 358 -269 447 -45 31 -122 92 -172 137 -173 155 -317 253 -560
380 -287 150 -594 269 -836 323 -117 26 -129 28 -161 19z"/>
<path d="M4270 3940 c-41 -11 -140 -27 -220 -35 -175 -18 -217 -25 -387 -67
-128 -31 -134 -32 -211 -19 -143 23 -190 -1 -250 -127 -30 -64 -30 -64 7 -57
20 3 80 24 133 47 81 34 100 39 113 28 24 -20 18 -45 -26 -100 -53 -67 -65
-98 -79 -200 -6 -47 -13 -93 -16 -103 -5 -15 -1 -14 33 5 21 12 76 54 123 94
180 151 289 204 460 224 115 13 198 -3 439 -86 361 -125 563 -240 765 -434
206 -198 302 -403 325 -694 5 -69 13 -131 16 -137 9 -13 76 102 104 176 27 73
26 107 -5 206 -84 266 -234 479 -498 706 -196 168 -303 226 -563 303 -197 59
-264 101 -218 137 27 20 142 12 290 -22 290 -66 338 -94 591 -342 319 -314
449 -511 544 -823 37 -123 71 -204 80 -193 12 14 50 157 56 213 5 47 1 67 -26
135 -62 158 -171 341 -289 487 -34 43 -135 149 -223 237 -129 128 -159 163
-156 182 11 83 241 -78 434 -304 161 -188 296 -411 379 -626 19 -49 46 -110
60 -137 23 -43 25 -45 25 -19 0 15 7 64 16 107 26 129 17 186 -46 298 -206
366 -480 679 -684 779 -38 19 -98 36 -157 46 -51 9 -134 27 -184 40 -143 38
-440 86 -565 91 -93 3 -129 0 -190 -16z"/>
<path d="M3914 3415 c-73 -16 -177 -58 -267 -108 -72 -41 -88 -64 -107 -162
-6 -33 -15 -77 -20 -98 -8 -35 -7 -37 8 -24 77 65 192 93 192 46 0 -11 -5 -30
-12 -42 -6 -12 -14 -66 -17 -119 -6 -97 -6 -97 17 -76 35 33 68 96 92 174 24
80 41 101 116 138 87 44 174 59 304 53 138 -7 205 -24 327 -83 122 -58 187
-121 251 -239 27 -49 74 -134 105 -187 45 -78 156 -304 234 -478 8 -17 12 -20
12 -8 1 9 34 52 74 95 129 138 138 161 112 288 -32 153 -123 314 -242 425
-103 97 -430 277 -622 344 -205 72 -407 94 -557 61z m1052 -456 c105 -65 254
-339 254 -467 0 -102 -45 -85 -95 36 -47 112 -90 192 -164 306 -39 60 -71 117
-71 128 0 24 34 24 76 -3z"/>
<path d="M4105 3006 c-81 -26 -174 -87 -197 -129 -7 -12 -14 -77 -17 -143 -6
-122 -6 -122 52 -70 102 91 141 116 211 137 206 64 433 -58 560 -301 19 -36
50 -118 70 -183 37 -118 37 -118 63 -80 78 115 81 163 13 296 -138 273 -289
421 -480 472 -67 18 -220 18 -275 1z"/>
<path d="M4192 2645 c-33 -24 -52 -68 -60 -138 -8 -62 -8 -62 30 -43 56 27
150 26 206 -3 49 -25 125 -117 146 -176 8 -22 15 -32 15 -22 1 9 13 35 27 57
39 59 43 118 10 174 -29 50 -89 102 -156 136 -60 31 -184 39 -218 15z"/>
</g>
</svg>
