<?xml version="1.0" standalone="no"?>
<!DOCTYPE svg PUBLIC "-//W3C//DTD SVG 20010904//EN"
 "http://www.w3.org/TR/2001/REC-SVG-20010904/DTD/svg10.dtd">
<svg version="1.0" xmlns="http://www.w3.org/2000/svg"
 width="1000.000000pt" height="1000.000000pt" viewBox="0 0 1000.000000 1000.000000"
 preserveAspectRatio="xMidYMid meet">
<metadata>
  <rdf:RDF
    xmlns:rdf = "http://www.w3.org/1999/02/22-rdf-syntax-ns#"
    xmlns:rdfs = "http://www.w3.org/2000/01/rdf-schema#"
    xmlns:dc = "http://purl.org/dc/elements/1.1/"
    xmlns:cc = "http://creativecommons.org/ns#">
    <cc:license rdf:resource="http://creativecommons.org/publicdomain/zero/1.0/deed.en"/>
    <cc:permits rdf:resource="http://creativecommons.org/ns#Reproduction"/>
    <rdf:Description about="https://nft.mir.one/fingerprints"
      dc:title="TON Fingerprints"
      dc:description="This is a unique digital fingerprint created based on the algorithm for generating basic rings using a noise texture. Like human fingerprints, you can now use it for the Web3 and Metaverse era as digital biometric information."
      dc:publisher="https://nft.mir.one"
      dc:date="2022-02-22"
      dc:format="image/svg+xml"
      dc:language="en" >
      <dc:creator>
      <rdf:Bag>
        <rdf:li>EQBondcvD2_aOFADXSWJHs4ZazQDuEl9_wNvGGPxI8hGuOFU</rdf:li>
        <rdf:li>ipfs://bafkreihj7iub3fhmhq6jn62noukt5wxn3gv6bvcg7wmt6ywvlurefezckq</rdf:li>
      </rdf:Bag>
      </dc:creator>
    </rdf:Description>
  </rdf:RDF>
</metadata>
<g transform="translate(0.000000,1000.000000) scale(0.100000,-0.100000)"
fill="#1b1f23" stroke="none">
<path d="M4805 7771 c28 -15 96 -55 153 -88 96 -57 126 -69 262 -107 115 -32
340 -183 617 -413 162 -134 307 -277 563 -555 157 -171 194 -223 277 -398 167
-348 212 -531 233 -939 10 -196 19 -249 47 -258 6 -3 20 8 30 23 16 25 18 51
18 224 -1 252 -36 497 -101 695 -34 107 -175 438 -232 549 -38 75 -52 93 -93
118 -35 21 -81 71 -160 171 -65 83 -174 204 -264 292 -84 83 -155 158 -158
168 -9 23 -27 22 -27 -3 0 -30 -13 -25 -67 28 -90 88 -354 265 -540 361 -45
24 -102 60 -125 80 -24 21 -59 46 -78 55 -35 17 -35 17 -7 -5 31 -24 56 -68
50 -86 -8 -23 -67 -14 -143 23 -58 28 -271 94 -300 94 -3 0 18 -13 45 -29z"/>
<path d="M5599 7680 c72 -70 302 -245 401 -305 104 -62 321 -213 366 -253 22
-21 7 -4 -34 36 -96 94 -288 237 -529 395 -105 69 -208 140 -230 158 -21 17
-9 3 26 -31z"/>
<path d="M4350 7640 c-63 -3 -105 -7 -93 -8 13 -1 51 -11 85 -22 35 -10 121
-33 193 -51 137 -33 284 -84 480 -169 326 -139 576 -310 707 -483 35 -45 134
-158 221 -252 279 -298 325 -373 426 -684 130 -402 158 -515 202 -821 54 -372
21 -591 -144 -944 -33 -72 -72 -162 -86 -201 -24 -64 -29 -70 -61 -76 -45 -9
-102 -72 -155 -170 -71 -131 -184 -226 -440 -366 -197 -109 -418 -194 -615
-238 -180 -40 -276 -50 -470 -49 -211 1 -310 17 -511 84 -204 68 -285 116
-348 208 -47 69 -79 99 -242 230 -133 107 -244 217 -299 296 -18 27 -58 103
-90 170 -54 112 -139 269 -140 255 0 -4 23 -73 51 -155 120 -356 256 -554 504
-739 122 -91 140 -108 131 -130 -14 -38 -93 -6 -271 110 -66 42 -133 87 -150
98 -23 16 -18 7 22 -39 83 -97 192 -196 294 -266 52 -37 105 -78 119 -93 37
-40 68 -53 236 -101 84 -24 207 -64 274 -89 159 -59 256 -71 459 -55 481 37
905 174 1306 422 383 236 452 285 511 363 62 81 96 150 202 415 130 327 188
531 198 700 6 89 4 100 -24 170 -44 110 -49 135 -82 363 -49 336 -96 519 -201
767 -113 266 -251 448 -633 835 -228 230 -410 373 -617 484 -113 60 -401 178
-493 200 -81 20 -264 43 -315 39 -14 -1 -78 -5 -141 -8z m1996 -3737 c47 -62
-27 -223 -102 -223 -32 0 -31 17 10 98 18 37 39 84 45 105 14 41 27 46 47 20z"/>
<path d="M4280 7463 c-76 -6 -200 -32 -304 -62 -125 -36 -114 -40 144 -51 256
-11 423 -45 669 -137 212 -79 368 -156 603 -300 194 -118 238 -133 238 -79 0
90 -314 306 -662 455 -304 131 -531 188 -688 174z"/>
<path d="M4015 7224 c-61 -16 -223 -73 -314 -111 -57 -23 -111 -43 -120 -44
-49 -2 84 -28 176 -34 162 -10 200 -20 244 -60 55 -50 96 -68 273 -120 316
-93 478 -157 716 -281 140 -74 349 -208 455 -292 164 -130 463 -447 555 -588
180 -276 237 -765 126 -1090 -27 -81 -66 -161 -109 -224 -45 -66 -212 -235
-267 -270 -48 -31 -90 -39 -90 -18 0 6 45 80 100 164 112 170 167 279 203 404
86 297 48 651 -101 933 -145 276 -484 614 -817 814 -220 133 -415 218 -715
313 -107 34 -253 81 -325 105 -141 47 -267 70 -326 61 -48 -8 -156 -54 -252
-109 -77 -45 -77 -45 -40 -52 21 -4 85 -6 143 -6 205 3 389 -28 690 -114 484
-140 825 -329 1116 -619 229 -228 357 -438 430 -706 27 -100 29 -115 28 -305
-1 -238 -12 -292 -119 -562 -79 -197 -92 -275 -57 -323 12 -15 24 -39 27 -53
14 -52 101 -60 188 -15 97 48 306 187 353 233 157 155 242 477 214 812 -21
261 -91 537 -184 728 -50 101 -77 135 -108 135 -52 0 -113 47 -300 233 -111
111 -229 218 -278 252 -201 143 -554 333 -799 432 -203 81 -419 139 -663 178
-43 7 -48 23 -17 51 17 15 40 20 108 22 175 7 467 -74 776 -215 158 -73 600
-312 695 -377 99 -68 264 -232 386 -385 113 -142 126 -153 150 -129 43 42 3
172 -93 307 -63 87 -272 302 -348 356 -44 32 -82 49 -142 64 -91 22 -109 31
-342 159 -283 157 -565 270 -802 323 -91 20 -373 36 -424 23z"/>
<path d="M6435 7040 c10 -11 20 -20 23 -20 3 0 -3 9 -13 20 -10 11 -20 20 -23
20 -3 0 3 -9 13 -20z"/>
<path d="M6460 7006 c0 -2 8 -10 18 -17 15 -13 16 -12 3 4 -13 16 -21 21 -21
13z"/>
<path d="M6540 6890 c6 -11 13 -20 16 -20 2 0 0 9 -6 20 -6 11 -13 20 -16 20
-2 0 0 -9 6 -20z"/>
<path d="M6587 6804 c14 -31 26 -76 27 -100 1 -44 9 -56 19 -30 8 19 -10 80
-39 139 -34 65 -38 59 -7 -9z"/>
<path d="M3410 6542 c-56 -29 -94 -53 -185 -117 -56 -39 -111 -35 465 -39 160
-2 254 -7 325 -19 602 -105 1067 -412 1289 -853 104 -207 141 -379 133 -619
-6 -181 -28 -293 -98 -505 -97 -293 -177 -398 -434 -573 -133 -90 -165 -120
-165 -151 0 -34 20 -46 77 -46 135 0 394 132 538 274 77 77 93 112 111 243 9
58 31 158 51 222 102 335 116 407 117 596 0 77 -5 174 -13 215 -68 381 -318
738 -696 992 -361 243 -836 393 -1280 405 -180 4 -180 4 -235 -25z"/>
<path d="M3292 6264 c-47 -24 -108 -81 -180 -167 -63 -76 -63 -76 -15 -55 70
31 234 127 266 156 32 30 35 57 8 72 -26 14 -40 12 -79 -6z"/>
<path d="M3705 6234 c-11 -2 -45 -9 -75 -15 -69 -14 -112 -36 -181 -91 -30
-24 -95 -72 -146 -107 -129 -88 -208 -192 -298 -391 -72 -161 -72 -163 13 -70
176 193 278 281 444 380 166 99 318 137 516 127 316 -15 623 -149 836 -363
141 -142 209 -293 257 -572 23 -136 24 -254 4 -379 -59 -364 -254 -624 -559
-749 -266 -108 -523 -79 -912 105 -147 69 -186 81 -199 61 -26 -42 166 -195
380 -303 285 -142 564 -181 755 -104 68 28 250 153 359 247 102 88 171 176
230 290 193 374 202 839 25 1193 -60 119 -124 207 -224 307 -199 200 -478 345
-785 410 -96 20 -388 37 -440 24z"/>
<path d="M3875 5929 c-197 -17 -381 -101 -564 -259 -212 -182 -295 -380 -295
-700 0 -220 46 -406 151 -611 47 -93 55 -116 63 -191 19 -187 97 -279 485
-573 249 -189 366 -243 630 -291 79 -14 149 -18 330 -18 200 0 244 3 335 23
203 43 397 121 644 259 197 110 287 177 414 306 84 85 102 108 102 133 0 62
-57 51 -188 -33 -100 -65 -171 -102 -277 -143 -44 -17 -129 -58 -190 -91 -235
-129 -388 -199 -489 -225 -114 -29 -223 -32 -306 -10 -31 9 -141 19 -255 25
-156 7 -223 15 -303 35 -219 53 -565 252 -720 414 -60 62 -75 88 -102 169 -22
67 -15 85 36 102 52 17 115 6 262 -46 225 -80 268 -88 442 -88 140 0 163 3
240 27 47 15 123 37 169 49 190 49 323 200 395 450 54 187 56 328 9 508 -19
75 -23 108 -18 156 11 107 -36 203 -157 324 -159 157 -425 281 -638 296 -41 3
-86 6 -100 8 -14 1 -61 -1 -105 -5z m364 -188 c97 -28 202 -78 282 -132 122
-82 291 -274 276 -314 -14 -36 -78 -4 -177 89 -119 113 -236 183 -380 228 -98
30 -307 33 -410 5 -419 -116 -648 -535 -482 -885 77 -163 277 -283 497 -299
194 -14 330 67 418 247 38 77 42 92 42 160 0 61 -6 85 -28 132 -36 73 -100
144 -187 208 -38 27 -77 64 -86 81 -16 31 -16 32 -82 27 -243 -18 -390 -298
-245 -468 88 -103 237 -113 303 -20 39 55 25 143 -25 156 -36 9 -53 -1 -57
-33 -2 -22 -9 -29 -30 -31 -68 -8 -95 97 -40 156 55 59 149 52 223 -15 133
-120 101 -318 -65 -406 -34 -18 -58 -22 -136 -22 -84 0 -102 3 -158 29 -118
55 -202 174 -218 309 -20 173 100 369 280 457 158 78 341 103 471 66 123 -36
255 -125 380 -257 120 -128 160 -261 115 -384 -12 -33 -28 -91 -36 -130 -36
-174 -71 -250 -146 -321 -86 -81 -112 -35 -58 102 51 127 53 219 6 250 -38 24
-59 5 -101 -93 -73 -173 -125 -244 -212 -290 -139 -74 -316 -69 -576 18 -67
22 -148 55 -180 71 -179 96 -297 369 -267 617 42 334 321 626 675 707 91 21
319 12 414 -15z"/>
<path d="M4049 5356 c-44 -25 -44 -45 -1 -62 189 -76 302 -171 381 -324 59
-115 84 -146 127 -160 48 -16 67 2 66 63 -4 200 -278 480 -484 493 -44 3 -71
0 -89 -10z"/>
<path d="M7060 4549 c0 -8 -22 -59 -49 -114 -27 -56 -68 -152 -91 -215 -59
-162 -189 -426 -265 -540 -78 -118 -198 -234 -333 -324 -175 -117 -364 -225
-564 -325 -358 -179 -666 -261 -1208 -321 -217 -24 -277 -35 -339 -62 -41 -18
-87 -33 -228 -72 -42 -12 -42 -12 85 -34 164 -29 360 -45 442 -37 100 10 622
102 745 132 250 59 518 176 881 382 211 121 263 159 364 261 232 237 403 599
540 1149 17 68 28 126 25 129 -3 3 -5 -1 -5 -9z"/>
<path d="M3444 3132 c3 -5 35 -24 71 -42 47 -24 69 -30 76 -23 15 15 -26 41
-93 59 -63 16 -60 16 -54 6z"/>
<path d="M6405 2991 c-55 -16 -99 -39 -350 -186 -124 -73 -371 -195 -480 -238
-117 -46 -216 -71 -411 -102 -237 -38 -641 -114 -672 -127 -15 -6 -47 -16 -72
-23 -40 -12 -22 -13 175 -14 229 -1 612 30 790 65 230 45 578 236 900 495 77
61 154 120 170 130 36 23 28 23 -50 0z"/>
<path d="M3663 2887 c-45 -11 -51 -8 172 -99 142 -58 267 -75 298 -40 50 55
-18 97 -206 126 -134 21 -216 25 -264 13z"/>
</g>
</svg>
