<?xml version="1.0" standalone="no"?>
<!DOCTYPE svg PUBLIC "-//W3C//DTD SVG 20010904//EN"
 "http://www.w3.org/TR/2001/REC-SVG-20010904/DTD/svg10.dtd">
<svg version="1.0" xmlns="http://www.w3.org/2000/svg"
 width="1000.000000pt" height="1000.000000pt" viewBox="0 0 1000.000000 1000.000000"
 preserveAspectRatio="xMidYMid meet">
<metadata>
  <rdf:RDF
    xmlns:rdf = "http://www.w3.org/1999/02/22-rdf-syntax-ns#"
    xmlns:rdfs = "http://www.w3.org/2000/01/rdf-schema#"
    xmlns:dc = "http://purl.org/dc/elements/1.1/"
    xmlns:cc = "http://creativecommons.org/ns#">
    <cc:license rdf:resource="http://creativecommons.org/publicdomain/zero/1.0/deed.en"/>
    <cc:permits rdf:resource="http://creativecommons.org/ns#Reproduction"/>
    <rdf:Description about="https://nft.mir.one/fingerprints"
      dc:title="TON Fingerprints"
      dc:description="This is a unique digital fingerprint created based on the algorithm for generating basic rings using a noise texture. Like human fingerprints, you can now use it for the Web3 and Metaverse era as digital biometric information."
      dc:publisher="https://nft.mir.one"
      dc:date="2022-02-22"
      dc:format="image/svg+xml"
      dc:language="en" >
      <dc:creator>
      <rdf:Bag>
        <rdf:li>EQBondcvD2_aOFADXSWJHs4ZazQDuEl9_wNvGGPxI8hGuOFU</rdf:li>
        <rdf:li>ipfs://bafkreihj7iub3fhmhq6jn62noukt5wxn3gv6bvcg7wmt6ywvlurefezckq</rdf:li>
      </rdf:Bag>
      </dc:creator>
    </rdf:Description>
  </rdf:RDF>
</metadata>
<g transform="translate(0.000000,1000.000000) scale(0.100000,-0.100000)"
fill="#1b1f23" stroke="none">
<path d="M5045 7761 c145 -80 815 -339 1000 -387 49 -13 91 -22 92 -20 6 6
-460 227 -567 269 -172 67 -380 131 -595 183 -11 3 21 -17 70 -45z"/>
<path d="M4470 7678 c30 -18 93 -50 140 -70 47 -20 184 -82 305 -138 368 -170
489 -214 770 -281 211 -50 449 -150 773 -323 79 -42 142 -69 142 -61 0 7 -225
202 -280 242 -85 62 -255 162 -349 205 -47 22 -180 71 -294 109 -115 38 -300
105 -411 149 -297 116 -453 157 -697 180 -63 6 -123 14 -134 17 -11 3 5 -10
35 -29z"/>
<path d="M4209 7505 c52 -25 119 -63 150 -84 31 -21 99 -63 151 -93 52 -31
151 -95 220 -143 92 -64 200 -125 410 -229 281 -140 406 -214 808 -477 365
-238 572 -426 737 -668 72 -105 130 -223 122 -245 -19 -49 -81 0 -232 183
-207 252 -397 417 -762 662 -384 256 -443 286 -546 275 -61 -6 -63 -6 -147 45
-100 60 -281 150 -396 197 -78 31 -82 34 -89 70 -15 84 -84 162 -195 219 -55
28 -55 28 -235 25 -187 -3 -226 -10 -285 -48 -19 -12 -62 -30 -95 -39 -33 -9
-100 -30 -148 -47 -88 -31 -88 -31 -50 -44 20 -7 68 -18 106 -24 38 -6 119
-26 180 -44 165 -49 237 -61 389 -61 126 0 139 2 167 23 48 35 141 23 141 -19
0 -24 -52 -62 -115 -85 -72 -27 -308 -24 -465 5 -306 56 -315 57 -387 38 -37
-10 -109 -38 -161 -62 -52 -25 -102 -45 -110 -45 -8 0 -13 -2 -10 -5 3 -3 88
-10 189 -15 101 -6 295 -24 430 -40 136 -17 341 -35 455 -40 237 -11 303 -24
419 -80 134 -65 251 -189 243 -257 -5 -44 -33 -39 -151 27 -226 126 -330 155
-727 204 -342 43 -547 60 -653 54 -91 -5 -151 -30 -273 -113 -36 -25 -71 -46
-77 -47 -7 0 8 -4 33 -7 25 -3 74 -2 110 3 101 13 463 12 585 -2 324 -37 534
-86 750 -174 232 -94 270 -107 348 -119 90 -14 370 -99 455 -139 134 -63 283
-171 482 -351 47 -42 124 -102 171 -133 176 -115 289 -282 363 -538 49 -168
69 -394 45 -497 -5 -24 -23 -72 -40 -106 -27 -56 -31 -80 -45 -236 -28 -331
-72 -515 -168 -707 -51 -102 -350 -556 -446 -677 -91 -115 -217 -242 -355
-358 -66 -55 -154 -132 -195 -171 -75 -70 -75 -70 75 9 282 147 392 224 556
385 64 63 152 161 195 216 44 56 112 144 152 195 39 52 99 125 131 162 138
158 221 400 221 641 0 119 17 317 42 491 26 183 27 387 4 530 -64 392 -181
573 -596 929 -172 147 -325 259 -515 376 -190 118 -295 210 -339 298 -31 61
-32 115 -3 120 10 2 42 -17 75 -45 91 -79 164 -131 378 -275 312 -209 429
-302 637 -507 135 -132 286 -307 345 -399 135 -210 181 -653 128 -1226 -23
-243 -7 -350 56 -367 39 -10 60 16 30 37 -29 20 -28 58 3 243 59 351 74 577
56 816 -7 83 -16 220 -21 305 -5 85 -16 189 -25 230 -11 53 -14 97 -9 150 7
87 -10 170 -61 290 -45 108 -104 190 -225 311 -185 186 -397 340 -735 534
-192 110 -238 141 -277 180 -28 27 -37 68 -19 80 14 8 100 -27 276 -113 371
-183 662 -382 895 -611 52 -51 119 -116 149 -145 55 -51 55 -51 16 19 -147
268 -357 516 -532 629 -106 68 -361 197 -493 249 -153 60 -220 73 -303 57 -60
-11 -69 -10 -143 15 -138 46 -350 143 -639 290 -314 161 -347 171 -565 182
-115 5 -115 5 -21 -42z m-49 -365 c187 -17 272 -43 306 -96 22 -33 8 -47 -35
-34 -19 5 -115 21 -215 35 -180 26 -266 51 -266 78 0 31 25 33 210 17z"/>
<path d="M3990 7384 c-36 -8 -85 -18 -110 -22 -45 -8 -45 -8 30 -20 41 -7 138
-13 215 -15 139 -2 140 -2 143 21 3 18 -4 26 -32 37 -45 19 -160 18 -246 -1z"/>
<path d="M3429 6350 c-95 -12 -171 -56 -291 -166 -47 -44 -47 -44 -5 -44 23 0
90 11 149 24 164 37 304 49 515 44 158 -4 207 -9 308 -32 247 -57 433 -148
638 -314 102 -82 119 -90 152 -68 13 9 33 16 45 16 18 0 20 -6 20 -67 0 -38 7
-90 16 -118 8 -27 22 -108 30 -180 16 -146 18 -156 114 -457 108 -340 131
-441 170 -763 24 -199 33 -235 63 -271 20 -23 26 -25 45 -15 34 18 45 80 39
221 -12 236 -78 528 -216 952 -88 270 -100 320 -81 343 30 36 72 -24 144 -207
82 -209 210 -665 252 -898 25 -141 24 -329 -3 -400 -31 -82 -88 -251 -123
-370 -41 -137 -93 -246 -174 -367 -207 -312 -536 -575 -931 -746 -22 -10 -56
-29 -75 -43 -35 -26 -35 -26 135 -21 258 8 332 34 546 193 363 270 620 604
739 961 53 160 63 252 57 502 -6 243 -4 232 -137 699 -121 424 -146 497 -219
637 -80 152 -83 158 -135 265 -63 131 -98 174 -218 270 -135 110 -198 150
-343 220 -188 92 -348 142 -570 182 -124 21 -538 33 -656 18z"/>
<path d="M3645 6089 c-132 -11 -285 -37 -364 -61 -56 -17 -74 -30 -135 -92
-39 -39 -92 -97 -119 -128 -47 -57 -47 -57 -10 -60 52 -4 104 14 170 61 82 59
140 77 381 117 243 40 323 41 469 4 161 -41 203 -70 402 -268 229 -229 236
-239 340 -522 27 -74 79 -207 115 -295 87 -212 118 -320 119 -417 2 -67 -1
-80 -19 -99 -28 -28 -41 -19 -49 34 -31 183 -261 661 -348 722 -12 8 -39 15
-60 15 -43 0 -60 8 -208 95 -58 35 -138 77 -179 95 -160 70 -557 186 -861 252
-178 38 -179 38 -286 -71 -74 -76 -74 -76 -42 -83 18 -3 60 -2 93 4 78 13 184
3 299 -27 51 -13 157 -38 237 -55 319 -69 484 -131 715 -268 219 -130 318
-246 474 -559 57 -114 98 -167 147 -188 26 -11 35 -22 44 -56 31 -116 51 -247
56 -374 6 -120 3 -152 -14 -226 -51 -211 -133 -327 -385 -542 -217 -185 -397
-294 -602 -363 -59 -20 -124 -44 -144 -54 -20 -10 -43 -20 -51 -23 -8 -3 2 -6
23 -6 21 -1 70 -9 110 -18 44 -10 116 -17 183 -17 111 -1 111 -1 215 51 192
95 381 236 546 406 206 212 333 470 333 681 0 41 -12 120 -29 195 -30 127 -42
213 -61 443 -14 158 -43 282 -126 523 -36 105 -90 269 -120 365 -87 280 -127
345 -302 493 -118 100 -202 157 -299 206 -182 91 -420 131 -658 110z"/>
<path d="M5296 5931 c-40 -44 10 -107 154 -191 51 -30 121 -81 156 -113 70
-64 321 -391 361 -471 73 -145 136 -356 153 -519 17 -160 18 -581 1 -647 -26
-103 -77 -172 -116 -156 -13 5 -14 30 -8 185 4 120 2 225 -7 315 -13 134 -13
134 11 173 31 49 31 139 -1 273 -61 256 -162 467 -214 447 -27 -11 -18 -65 37
-243 70 -223 131 -458 124 -478 -10 -27 -52 1 -80 53 -54 98 -177 546 -177
641 0 101 -51 211 -154 334 -77 91 -166 133 -181 86 -7 -21 2 -38 93 -189 63
-102 81 -150 138 -361 75 -276 124 -439 175 -576 56 -153 74 -246 88 -445 7
-98 17 -167 31 -208 11 -33 20 -84 20 -112 0 -73 -58 -239 -136 -389 -220
-422 -535 -745 -1010 -1032 -48 -29 -121 -91 -99 -85 11 4 70 18 131 32 214
48 412 132 539 230 168 129 382 367 534 594 126 189 313 535 382 709 67 167
96 416 66 557 -22 102 -52 252 -81 401 -33 172 -73 288 -158 464 -38 80 -79
170 -89 200 -29 82 -81 154 -185 257 -139 136 -345 267 -442 280 -29 4 -41 0
-56 -16z"/>
<path d="M3730 5848 c-41 -15 -53 -51 -21 -67 11 -6 86 -27 168 -46 81 -19
192 -47 247 -61 78 -21 103 -24 122 -15 108 49 -159 179 -401 196 -52 3 -92 1
-115 -7z"/>
<path d="M3325 5768 c-85 -16 -112 -63 -55 -93 17 -9 86 -27 153 -39 67 -13
192 -46 277 -74 85 -28 229 -73 320 -102 154 -49 289 -106 352 -152 16 -11 69
-55 120 -98 50 -43 97 -76 104 -73 35 13 22 100 -29 179 -34 54 -149 159 -205
188 -26 13 -92 34 -147 45 -266 57 -489 130 -546 179 -22 19 -57 38 -77 43
-48 11 -203 9 -267 -3z"/>
<path d="M6087 5453 c-18 -17 -2 -66 57 -177 114 -218 154 -339 201 -612 27
-155 48 -209 80 -209 87 0 40 426 -76 691 -85 195 -219 351 -262 307z"/>
<path d="M3113 5271 c-50 -13 -93 -51 -154 -138 -57 -80 -57 -80 -15 -67 22 7
70 25 106 39 36 15 100 38 142 50 42 13 86 29 98 35 28 15 23 51 -11 67 -34
16 -126 24 -166 14z"/>
<path d="M7056 5224 c-11 -29 -5 -118 13 -204 23 -104 25 -90 7 62 -8 65 -12
127 -9 138 6 24 -2 27 -11 4z"/>
<path d="M3395 5173 c-11 -3 -37 -20 -57 -39 -21 -19 -87 -58 -147 -89 -138
-69 -152 -85 -231 -282 -43 -108 -53 -110 91 22 120 111 313 202 464 219 174
20 426 -55 632 -189 256 -167 483 -517 538 -830 18 -103 19 -156 4 -262 -9
-73 -74 -285 -105 -345 -12 -23 -11 -27 2 -32 77 -29 188 71 243 220 25 65 51
207 51 275 0 75 -20 197 -45 275 -22 72 -180 366 -271 506 -60 92 -206 238
-304 303 -158 105 -357 188 -543 226 -102 20 -284 33 -322 22z"/>
<path d="M7091 4894 c0 -11 3 -14 6 -6 3 7 2 16 -1 19 -3 4 -6 -2 -5 -13z"/>
<path d="M3462 4870 c-144 -26 -336 -133 -390 -217 -34 -53 -65 -122 -81 -178
-11 -42 -29 -52 131 78 222 182 477 227 696 121 106 -52 238 -147 329 -239 82
-82 97 -104 146 -206 63 -130 86 -213 94 -340 10 -158 -33 -376 -100 -504 -17
-33 -61 -90 -98 -127 -110 -109 -255 -182 -480 -243 -47 -12 -100 -30 -119
-40 -33 -17 -33 -17 84 -56 155 -53 225 -59 308 -29 93 34 203 91 288 151 82
58 218 190 264 257 29 43 29 43 8 81 -27 47 -28 103 -5 226 25 132 22 346 -5
447 -49 181 -129 334 -246 470 -127 147 -330 278 -506 328 -86 24 -240 33
-318 20z"/>
<path d="M3463 4610 c-152 -30 -341 -154 -392 -256 -32 -62 -47 -185 -36 -289
9 -80 9 -80 16 -25 3 30 23 91 43 134 47 103 138 194 254 253 105 54 166 66
323 61 120 -3 129 -2 129 16 0 31 -62 83 -120 100 -57 17 -147 19 -217 6z"/>
<path d="M3786 4441 c-24 -27 -61 -37 -178 -50 -107 -12 -177 -36 -243 -81
-156 -107 -183 -302 -60 -425 78 -79 161 -95 253 -49 90 45 131 144 94 227
-29 64 -82 86 -128 53 -16 -13 -17 -18 -6 -35 16 -28 15 -46 -4 -65 -23 -24
-52 -19 -85 13 -92 93 47 242 202 216 93 -16 161 -125 161 -260 1 -137 -73
-255 -198 -316 -58 -29 -70 -31 -137 -27 -49 3 -91 13 -128 30 -80 37 -179
112 -216 164 -38 54 -42 51 -12 -9 79 -155 230 -319 367 -400 60 -35 84 -55
88 -74 9 -36 -17 -53 -80 -54 -28 0 -71 -4 -95 -7 -43 -7 -43 -7 30 -45 41
-20 106 -44 145 -52 71 -15 71 -15 192 20 165 47 232 82 320 170 57 57 81 91
111 157 155 331 48 735 -230 872 -97 48 -138 55 -163 27z m172 -205 c78 -70
125 -198 125 -336 0 -193 -103 -380 -248 -450 -77 -38 -154 -31 -155 13 0 5
42 52 93 105 137 142 177 225 177 367 0 80 -16 145 -60 237 -39 82 -39 98 0
98 20 0 42 -11 68 -34z"/>
<path d="M6478 3092 c-13 -15 -34 -43 -44 -62 -31 -54 -86 -176 -75 -165 16
17 152 247 148 251 -2 2 -15 -9 -29 -24z"/>
</g>
</svg>
