<?xml version="1.0" standalone="no"?>
<!DOCTYPE svg PUBLIC "-//W3C//DTD SVG 20010904//EN"
 "http://www.w3.org/TR/2001/REC-SVG-20010904/DTD/svg10.dtd">
<svg version="1.0" xmlns="http://www.w3.org/2000/svg"
 width="1000.000000pt" height="1000.000000pt" viewBox="0 0 1000.000000 1000.000000"
 preserveAspectRatio="xMidYMid meet">
<metadata>
  <rdf:RDF
    xmlns:rdf = "http://www.w3.org/1999/02/22-rdf-syntax-ns#"
    xmlns:rdfs = "http://www.w3.org/2000/01/rdf-schema#"
    xmlns:dc = "http://purl.org/dc/elements/1.1/"
    xmlns:cc = "http://creativecommons.org/ns#">
    <cc:license rdf:resource="http://creativecommons.org/publicdomain/zero/1.0/deed.en"/>
    <cc:permits rdf:resource="http://creativecommons.org/ns#Reproduction"/>
    <rdf:Description about="https://nft.mir.one/fingerprints"
      dc:title="TON Fingerprints"
      dc:description="This is a unique digital fingerprint created based on the algorithm for generating basic rings using a noise texture. Like human fingerprints, you can now use it for the Web3 and Metaverse era as digital biometric information."
      dc:publisher="https://nft.mir.one"
      dc:date="2022-02-22"
      dc:format="image/svg+xml"
      dc:language="en" >
      <dc:creator>
      <rdf:Bag>
        <rdf:li>EQBondcvD2_aOFADXSWJHs4ZazQDuEl9_wNvGGPxI8hGuOFU</rdf:li>
        <rdf:li>ipfs://bafkreihj7iub3fhmhq6jn62noukt5wxn3gv6bvcg7wmt6ywvlurefezckq</rdf:li>
      </rdf:Bag>
      </dc:creator>
    </rdf:Description>
  </rdf:RDF>
</metadata>
<g transform="translate(0.000000,1000.000000) scale(0.100000,-0.100000)"
fill="#1b1f23" stroke="none">
<path d="M4778 7803 c6 -2 18 -2 25 0 6 3 1 5 -13 5 -14 0 -19 -2 -12 -5z"/>
<path d="M4905 7801 c-80 -6 -80 -6 -31 -13 70 -11 98 -9 120 7 13 10 15 14 5
13 -8 -1 -50 -4 -94 -7z"/>
<path d="M4999 7729 c-24 -15 10 -60 67 -91 74 -40 493 -198 776 -294 136 -45
256 -87 266 -93 34 -18 216 -81 206 -71 -5 5 -59 39 -119 76 -261 157 -671
326 -995 410 -74 20 -147 44 -161 54 -17 12 -31 15 -40 9z"/>
<path d="M4440 7605 c-47 -8 -155 -34 -240 -58 -155 -44 -155 -44 -97 -52 34
-4 111 -2 187 5 162 16 366 8 477 -19 208 -51 633 -230 800 -337 29 -18 90
-71 135 -116 51 -51 137 -120 222 -178 310 -212 468 -376 581 -604 68 -136 93
-237 76 -308 -16 -69 -14 -97 14 -233 35 -164 43 -369 21 -486 -19 -104 -138
-426 -248 -674 -44 -99 -120 -279 -170 -400 -49 -121 -121 -283 -159 -361
-140 -285 -327 -532 -498 -658 -64 -47 -64 -47 -155 -41 -83 6 -107 3 -274
-34 -213 -47 -374 -66 -489 -57 -188 15 -333 81 -333 150 0 38 30 41 192 21
242 -30 434 -11 708 72 260 78 416 192 607 444 98 129 180 293 275 549 57 152
82 205 179 375 80 142 121 241 150 361 16 69 28 97 54 125 52 58 60 95 59 269
-1 161 -11 228 -54 343 -27 73 -313 504 -413 623 -168 200 -330 319 -353 259
-8 -20 7 -41 116 -164 139 -157 204 -241 312 -406 175 -266 242 -420 272 -627
18 -121 21 -274 6 -283 -14 -9 -40 13 -52 44 -5 14 -22 89 -39 168 -16 78 -43
182 -60 230 -78 219 -228 464 -488 793 -50 63 -107 149 -127 190 -20 41 -45
87 -55 102 -24 33 -24 55 0 68 53 28 203 -16 309 -90 148 -104 323 -306 446
-515 79 -134 121 -185 152 -185 21 0 24 5 24 33 0 104 -129 343 -276 512 -118
135 -235 228 -474 376 -30 19 -100 74 -155 122 -161 143 -380 260 -659 352
-159 53 -260 74 -386 82 -125 7 -208 -7 -396 -67 -107 -35 -171 -50 -208 -50
-30 0 -82 -9 -117 -20 -66 -21 -180 -73 -144 -65 11 2 71 7 132 11 100 6 113
5 119 -10 10 -25 -31 -63 -111 -103 -143 -73 -339 -205 -444 -299 -22 -20 69
6 185 54 55 22 196 71 314 110 211 69 218 71 355 79 77 4 172 6 210 5 224 -7
524 -113 810 -287 128 -77 174 -119 217 -195 47 -82 119 -188 242 -355 273
-371 400 -619 486 -952 44 -169 53 -234 40 -305 -16 -88 -43 -138 -113 -211
-34 -35 -74 -78 -88 -96 -29 -34 -42 -38 -59 -18 -18 21 -144 279 -178 364
-40 99 -62 129 -87 119 -45 -17 20 -275 126 -496 46 -94 51 -112 51 -171 0
-172 -112 -453 -239 -598 -43 -50 -245 -211 -358 -288 -181 -122 -446 -213
-619 -213 -28 0 -89 9 -136 21 -97 24 -163 21 -275 -11 -93 -26 -182 -25 -297
4 -296 75 -595 268 -780 505 -29 36 -76 92 -105 124 -29 32 -53 63 -53 69 0 6
-3 9 -6 5 -9 -9 135 -297 201 -402 75 -118 190 -260 278 -340 78 -71 159 -117
346 -195 180 -75 292 -133 409 -213 125 -85 158 -97 287 -104 250 -14 556 46
756 148 106 54 125 58 134 29 26 -82 -95 -195 -274 -254 -118 -40 -250 -64
-446 -81 -99 -9 -211 -22 -248 -30 -80 -17 -261 -96 -298 -131 -14 -14 -39
-29 -55 -34 -20 -6 9 -9 96 -9 69 -1 141 4 160 10 20 6 151 11 300 13 216 2
286 7 380 24 330 60 512 166 672 392 254 358 450 753 696 1405 61 160 148 389
195 510 155 403 172 540 122 995 -29 259 -37 305 -72 415 -92 285 -293 508
-684 756 -160 101 -199 133 -199 162 0 77 374 -126 615 -335 162 -140 257
-244 293 -319 108 -228 177 -562 189 -925 10 -305 -15 -438 -142 -754 -46
-113 -124 -325 -173 -471 -50 -146 -159 -438 -242 -650 -118 -300 -177 -434
-270 -615 -77 -150 -128 -261 -144 -317 -14 -48 -32 -100 -40 -116 -61 -117
-479 -270 -826 -302 -209 -19 -560 3 -630 41 -18 10 -21 9 -18 -2 6 -18 81
-45 213 -76 102 -24 126 -26 345 -26 217 -1 244 1 360 26 178 38 372 108 543
194 81 41 157 74 168 74 19 0 19 1 4 16 -10 11 -13 23 -8 38 4 11 7 40 7 62 1
45 0 43 172 279 119 164 170 265 185 365 16 117 44 205 139 443 96 244 135
359 175 517 46 185 108 362 171 486 72 141 89 206 105 399 28 348 -34 767
-172 1161 -88 251 -125 307 -364 553 -218 224 -410 340 -626 376 -53 9 -136
33 -189 55 -128 52 -382 158 -565 236 -83 35 -182 71 -220 79 -87 18 -289 18
-405 0z m350 -393 c254 -67 554 -209 683 -322 38 -34 47 -48 45 -69 -5 -41
-36 -37 -139 18 -418 226 -613 293 -901 311 -75 5 -147 14 -158 20 -20 10 -20
13 -7 33 24 37 79 47 227 43 110 -3 157 -10 250 -34z"/>
<path d="M4356 6934 c-19 -19 -7 -47 27 -65 12 -7 108 -40 212 -74 306 -100
488 -200 641 -352 89 -90 272 -330 423 -558 172 -260 331 -592 387 -811 28
-112 33 -244 10 -244 -16 0 -29 33 -77 185 -31 98 -127 308 -244 535 -121 233
-451 695 -596 836 -152 146 -290 221 -604 327 -104 36 -228 79 -275 96 -132
48 -257 39 -490 -35 -209 -66 -279 -107 -445 -264 -44 -42 -97 -90 -118 -108
-37 -32 -37 -32 10 -25 31 4 111 37 223 93 209 104 284 134 404 165 184 47
319 43 552 -15 254 -64 402 -123 529 -211 98 -68 171 -147 275 -299 46 -69
121 -175 166 -235 130 -176 199 -287 299 -487 52 -103 115 -213 140 -246 27
-35 65 -105 94 -174 77 -185 104 -210 180 -167 50 28 74 74 79 158 6 88 -12
180 -68 352 -89 273 -204 483 -458 838 -199 278 -269 367 -333 425 -168 151
-486 300 -757 356 -120 24 -165 25 -186 4z"/>
<path d="M3913 6526 c-127 -24 -259 -78 -358 -146 -22 -15 -89 -54 -149 -86
-88 -48 -121 -72 -177 -132 -38 -41 -94 -113 -125 -161 -31 -47 -70 -106 -87
-131 -18 -27 -23 -38 -11 -28 10 9 30 21 44 26 14 5 69 40 123 76 111 75 201
122 304 159 71 26 74 26 430 29 410 3 392 6 614 -84 146 -58 218 -74 226 -50
7 18 -36 52 -139 108 -61 33 -100 61 -113 82 -22 34 -63 53 -160 74 -91 19
-408 16 -520 -5 -122 -23 -155 -23 -155 3 0 28 35 57 99 81 152 57 356 67 646
30 200 -25 263 -39 345 -81 113 -57 234 -169 215 -200 -10 -17 -40 -3 -142 66
-105 70 -187 106 -250 108 -44 1 -70 -14 -58 -34 4 -7 45 -30 90 -50 45 -21
120 -64 166 -96 46 -31 104 -66 129 -76 55 -24 80 -45 80 -70 0 -15 -8 -18
-42 -18 -23 0 -68 7 -100 16 -48 14 -66 15 -97 5 -58 -17 -73 -15 -267 35
-158 41 -195 47 -320 51 -235 9 -503 -27 -658 -90 -113 -45 -246 -129 -321
-202 -94 -91 -183 -285 -245 -532 -26 -105 -25 -108 9 -48 107 190 144 246
188 286 48 45 288 226 362 274 265 171 593 219 1021 148 102 -17 241 -39 310
-48 213 -30 277 -60 394 -185 155 -169 255 -365 290 -570 43 -259 61 -619 38
-750 -7 -36 -35 -136 -64 -222 -43 -129 -50 -163 -42 -185 16 -48 55 -43 111
14 58 58 101 137 144 264 27 78 33 113 37 209 4 109 1 127 -43 325 -34 154
-49 245 -55 341 -10 149 -26 206 -100 353 -57 115 -143 245 -234 356 -135 163
-167 211 -226 330 -52 107 -68 131 -126 183 -116 107 -269 172 -534 227 -155
32 -386 42 -497 21z"/>
<path d="M4020 5774 c-243 -45 -476 -181 -553 -322 -35 -64 -97 -418 -97 -552
0 -419 290 -782 673 -841 238 -37 515 89 649 295 134 207 115 508 -42 666 -68
69 -129 95 -220 95 -126 0 -202 -53 -264 -185 -73 -156 -32 -304 88 -317 68
-8 108 3 156 44 50 43 79 102 80 158 0 73 -64 141 -94 100 -17 -24 -50 -15
-54 14 -5 29 30 67 68 75 62 12 140 -39 183 -119 18 -33 22 -56 22 -140 0 -92
-2 -105 -32 -166 -100 -204 -343 -294 -592 -217 -234 72 -370 207 -426 423
-33 126 -17 339 35 478 127 338 570 485 1080 357 278 -70 465 -236 577 -510
55 -135 73 -264 41 -296 -15 -15 -17 -14 -31 7 -9 13 -30 65 -47 114 -149 425
-424 626 -855 627 -317 0 -556 -139 -644 -376 -67 -181 -32 -413 79 -528 51
-53 93 -63 123 -30 32 35 14 142 -41 245 -41 77 -48 128 -28 208 67 261 368
410 694 343 137 -28 245 -85 345 -182 84 -81 121 -140 237 -377 103 -209 103
-209 108 -310 10 -233 -82 -521 -218 -682 -66 -79 -145 -140 -307 -237 -155
-92 -193 -142 -133 -174 69 -36 337 50 500 161 68 47 170 147 192 190 10 21
26 72 33 113 8 40 32 143 54 227 49 190 60 291 63 587 2 217 1 242 -20 325
-29 113 -114 289 -185 380 -66 87 -167 172 -249 213 -196 96 -714 159 -948
116z"/>
<path d="M3216 5349 c-56 -49 -122 -192 -142 -309 -24 -143 -15 -416 20 -565
49 -206 93 -308 188 -437 204 -275 510 -457 798 -474 178 -11 276 24 525 187
102 67 166 118 236 188 84 85 102 109 151 207 77 154 102 264 95 417 -6 129
-33 223 -116 392 -63 128 -138 218 -236 283 -216 145 -499 133 -670 -29 -88
-83 -142 -214 -115 -280 23 -56 56 -35 129 83 54 85 127 151 197 177 257 97
514 -64 614 -384 30 -96 37 -247 16 -345 -48 -225 -216 -426 -451 -540 -129
-63 -214 -83 -340 -83 -287 -1 -578 182 -746 469 -150 255 -185 536 -104 834
44 164 50 199 39 218 -18 28 -49 25 -88 -9z"/>
<path d="M6978 4743 c-24 -27 -33 -50 -78 -178 -53 -154 -76 -247 -94 -376
-17 -121 -44 -202 -166 -494 -49 -118 -99 -245 -110 -284 -35 -115 -15 -180
33 -104 46 74 228 485 308 700 36 95 39 109 33 171 -6 59 0 92 45 277 70 290
75 341 29 288z"/>
<path d="M6972 4190 c-19 -18 -26 -30 -18 -30 8 0 24 14 36 30 27 37 24 37
-18 0z"/>
<path d="M3500 3035 c0 -6 242 -187 297 -222 147 -95 322 -161 391 -147 17 3
40 15 51 26 52 48 13 81 -179 147 -85 30 -209 76 -275 103 -66 27 -138 56
-160 63 -44 14 -125 34 -125 30z"/>
</g>
</svg>
