<?xml version="1.0" standalone="no"?>
<!DOCTYPE svg PUBLIC "-//W3C//DTD SVG 20010904//EN"
 "http://www.w3.org/TR/2001/REC-SVG-20010904/DTD/svg10.dtd">
<svg version="1.0" xmlns="http://www.w3.org/2000/svg"
 width="1000.000000pt" height="1000.000000pt" viewBox="0 0 1000.000000 1000.000000"
 preserveAspectRatio="xMidYMid meet">
<metadata>
  <rdf:RDF
    xmlns:rdf = "http://www.w3.org/1999/02/22-rdf-syntax-ns#"
    xmlns:rdfs = "http://www.w3.org/2000/01/rdf-schema#"
    xmlns:dc = "http://purl.org/dc/elements/1.1/"
    xmlns:cc = "http://creativecommons.org/ns#">
    <cc:license rdf:resource="http://creativecommons.org/publicdomain/zero/1.0/deed.en"/>
    <cc:permits rdf:resource="http://creativecommons.org/ns#Reproduction"/>
    <rdf:Description about="https://nft.mir.one/fingerprints"
      dc:title="TON Fingerprints"
      dc:description="This is a unique digital fingerprint created based on the algorithm for generating basic rings using a noise texture. Like human fingerprints, you can now use it for the Web3 and Metaverse era as digital biometric information."
      dc:publisher="https://nft.mir.one"
      dc:date="2022-02-22"
      dc:format="image/svg+xml"
      dc:language="en" >
      <dc:creator>
      <rdf:Bag>
        <rdf:li>EQBondcvD2_aOFADXSWJHs4ZazQDuEl9_wNvGGPxI8hGuOFU</rdf:li>
        <rdf:li>ipfs://bafkreihj7iub3fhmhq6jn62noukt5wxn3gv6bvcg7wmt6ywvlurefezckq</rdf:li>
      </rdf:Bag>
      </dc:creator>
    </rdf:Description>
  </rdf:RDF>
</metadata>
<g transform="translate(0.000000,1000.000000) scale(0.100000,-0.100000)"
fill="#1b1f23" stroke="none">
<path d="M4681 7719 c-95 -9 -342 -47 -350 -55 -2 -2 45 -4 105 -4 379 0 592
-17 879 -69 88 -17 180 -33 205 -36 46 -7 100 7 100 24 0 15 -203 77 -342 105
-212 43 -391 53 -597 35z"/>
<path d="M4585 7519 c-253 -19 -523 -109 -815 -272 -65 -37 -65 -37 -10 -31
30 3 135 26 234 50 493 123 798 129 1447 29 332 -51 449 -86 784 -235 113 -50
146 -60 192 -60 55 0 55 0 -59 82 -176 128 -233 164 -368 232 -194 99 -252
117 -407 127 -73 4 -229 22 -348 39 -118 16 -270 33 -337 35 -68 3 -143 7
-168 8 -25 2 -90 0 -145 -4z"/>
<path d="M4585 7229 c-196 -11 -337 -38 -600 -116 -137 -40 -238 -88 -355
-168 -84 -57 -317 -254 -288 -242 9 3 34 9 55 13 21 3 110 38 198 76 125 56
176 72 232 79 75 8 161 36 348 113 165 68 295 88 560 89 449 0 782 -78 1120
-266 119 -66 207 -123 280 -182 96 -78 442 -393 509 -462 76 -80 163 -201 221
-307 64 -119 171 -397 194 -506 23 -113 27 -90 6 36 -23 134 -73 326 -115 444
-99 279 -226 484 -430 695 -58 61 -135 145 -170 188 -75 92 -159 157 -290 226
-251 131 -507 208 -867 261 -124 18 -182 22 -413 34 -36 1 -123 -1 -195 -5z"/>
<path d="M4514 6940 c-170 -17 -290 -55 -315 -102 -10 -18 -8 -24 11 -40 22
-18 39 -19 289 -12 289 7 476 -3 664 -37 237 -43 383 -114 360 -176 -7 -18
-30 -16 -201 17 -234 46 -380 60 -722 69 -315 9 -315 9 -407 39 -101 35 -128
34 -275 -7 -40 -11 -106 -25 -147 -31 -86 -12 -203 -50 -282 -92 -80 -42 -186
-142 -298 -283 -97 -121 -97 -121 -51 -105 25 8 84 39 132 68 183 111 369 185
577 229 118 25 141 27 356 26 352 -3 751 -21 950 -43 118 -14 232 -20 330 -19
149 3 151 2 227 -30 42 -18 116 -58 165 -91 164 -109 267 -219 313 -336 12
-33 67 -151 121 -264 109 -226 148 -347 133 -410 -7 -25 -14 -35 -28 -35 -16
0 -46 52 -145 250 -70 138 -157 298 -195 355 -151 231 -345 361 -602 404 -275
47 -693 70 -1139 63 -384 -5 -455 -14 -646 -77 -133 -44 -249 -99 -366 -175
-133 -87 -196 -191 -328 -542 -72 -192 -72 -192 -32 -147 22 25 64 83 93 130
152 242 307 387 529 494 186 90 287 110 548 110 111 0 308 5 437 12 182 9 284
9 445 0 340 -20 491 -50 634 -128 189 -104 302 -233 496 -567 54 -93 126 -204
161 -249 93 -116 109 -173 109 -384 0 -145 -2 -164 -19 -183 -40 -44 -55 -22
-87 127 -47 222 -73 285 -214 522 -232 389 -338 512 -525 610 -146 75 -205 84
-605 84 -298 1 -363 -2 -437 -17 -130 -26 -209 -53 -250 -84 -60 -46 -147
-167 -187 -261 -21 -48 -62 -125 -91 -172 -93 -148 -190 -375 -235 -555 -113
-444 20 -917 352 -1250 93 -93 161 -137 204 -133 60 5 51 35 -43 139 -231 255
-321 409 -384 655 -25 95 -28 128 -28 259 -1 162 15 261 61 390 64 177 229
453 354 588 64 70 162 140 244 174 156 65 465 75 575 18 14 -7 51 -36 82 -63
32 -28 109 -85 172 -126 200 -132 272 -216 185 -216 -34 0 -79 21 -232 107
-233 131 -323 158 -492 150 -136 -7 -235 -38 -340 -108 -192 -129 -415 -447
-477 -679 -18 -71 -22 -111 -21 -235 0 -131 3 -163 27 -250 48 -178 148 -361
288 -525 96 -114 123 -150 151 -206 47 -93 112 -135 284 -185 127 -37 148 -47
217 -103 111 -90 328 -182 501 -213 278 -48 571 65 715 276 21 32 61 109 89
172 66 146 124 246 225 387 258 358 355 530 400 704 70 273 56 673 -34 947
-89 273 -227 472 -415 600 -44 30 -145 109 -225 176 -80 66 -174 141 -210 167
-120 85 -420 269 -495 304 -95 44 -267 88 -425 108 -153 20 -433 28 -556 16z
m1882 -921 c80 -49 220 -283 279 -464 50 -155 60 -239 59 -510 0 -225 -2 -258
-22 -330 -44 -160 -126 -285 -187 -285 -48 0 -49 31 -6 139 67 166 73 216 69
558 -4 272 -6 305 -27 372 -32 109 -64 180 -152 342 -74 135 -89 176 -72 192
11 11 24 8 59 -14z m-993 -220 c120 -40 235 -127 322 -243 68 -91 232 -362
297 -491 28 -55 77 -172 110 -260 35 -96 77 -190 105 -235 103 -164 117 -216
88 -316 -35 -122 -135 -283 -231 -375 -66 -63 -92 -74 -214 -89 -111 -14 -199
-33 -400 -86 -289 -77 -486 -117 -585 -118 -167 -1 -285 61 -454 240 -226 238
-335 483 -334 749 0 204 50 337 152 411 28 19 80 73 116 120 108 138 228 221
375 259 93 24 247 16 355 -19 111 -37 348 -154 422 -210 189 -142 323 -480
283 -713 -35 -212 -201 -374 -487 -476 -153 -55 -348 -72 -468 -42 -240 61
-446 285 -501 544 -16 76 -18 242 -4 348 15 112 -12 161 -60 113 -66 -66 -99
-301 -66 -472 49 -246 207 -482 415 -617 117 -75 156 -85 326 -86 165 0 236
12 435 72 359 108 526 208 608 362 73 136 77 246 18 462 -61 222 -135 381
-269 581 -52 78 -88 143 -96 173 -33 130 -116 215 -312 320 -57 30 -107 61
-111 68 -12 18 29 47 68 47 19 0 63 -9 97 -21z m598 -2185 c36 -44 -10 -162
-94 -242 -107 -100 -237 -146 -417 -146 -140 0 -219 19 -311 74 -36 22 -93 50
-128 61 -106 36 -93 67 45 106 297 84 600 153 668 153 27 0 64 -5 82 -12 26
-9 39 -8 70 5 50 21 68 21 85 1z"/>
<path d="M4825 5210 c-163 -35 -297 -143 -339 -274 -22 -66 -46 -232 -46 -316
0 -201 100 -397 257 -503 88 -60 167 -87 274 -94 251 -16 525 132 614 332 70
158 51 358 -50 525 -77 127 -257 257 -429 309 -78 24 -220 35 -281 21z m309
-234 c101 -49 181 -128 227 -221 32 -66 34 -75 34 -175 0 -93 -3 -111 -27
-162 -54 -115 -182 -207 -322 -230 -215 -36 -418 108 -465 330 -33 156 16 322
122 417 74 67 131 86 253 82 94 -2 106 -5 178 -41z"/>
<path d="M4822 4844 c-198 -99 -184 -411 23 -505 64 -29 160 -25 226 9 166 86
184 292 39 441 -82 84 -189 105 -288 55z m149 -124 c29 -16 23 -36 -20 -67
-64 -45 -76 -95 -25 -107 14 -4 24 -14 24 -24 0 -50 -67 -57 -112 -12 -28 29
-30 35 -26 86 4 43 11 61 34 85 44 47 86 60 125 39z"/>
<path d="M5737 3530 c-105 -39 -216 -66 -371 -89 -137 -21 -170 -36 -150 -69
26 -41 221 -55 362 -26 149 30 292 123 292 189 0 34 -32 33 -133 -5z"/>
<path d="M6475 6819 c-14 -21 7 -60 65 -122 33 -35 79 -77 102 -93 24 -15 61
-42 83 -59 34 -26 37 -27 23 -7 -32 47 -249 292 -258 292 -5 0 -12 -5 -15 -11z"/>
<path d="M3780 6777 c0 -19 10 -27 26 -20 21 8 17 33 -6 33 -11 0 -20 -6 -20
-13z"/>
<path d="M3890 5984 c-276 -59 -553 -258 -723 -521 -72 -110 -104 -185 -138
-323 -22 -88 -24 -113 -23 -360 0 -339 21 -498 95 -750 75 -253 166 -449 257
-550 32 -36 105 -126 162 -200 116 -150 306 -351 419 -442 41 -33 120 -91 175
-128 56 -37 153 -104 216 -150 189 -135 326 -194 535 -230 140 -23 450 -44
533 -36 99 10 362 122 612 261 47 26 78 45 70 42 -8 -2 -100 -26 -204 -52
-226 -57 -251 -56 -376 5 -85 42 -85 42 -172 36 -153 -10 -341 37 -545 136
-132 64 -250 143 -530 358 -550 422 -790 758 -880 1235 -26 139 -24 428 5 562
41 189 126 381 207 468 83 90 99 28 31 -123 -103 -234 -135 -365 -143 -592 -4
-140 -2 -184 16 -289 45 -261 150 -494 319 -706 124 -155 221 -242 452 -408
74 -54 187 -140 250 -193 187 -156 352 -248 577 -323 147 -49 213 -60 232 -37
11 13 11 20 -4 42 -17 26 -68 52 -296 154 -229 101 -352 189 -414 295 -45 78
-112 129 -285 215 -141 70 -209 120 -315 232 -188 196 -314 436 -372 708 -14
65 -18 128 -18 265 1 218 18 302 119 585 88 246 99 268 184 379 59 77 72 101
70 126 -6 65 -86 40 -243 -77 -55 -41 -124 -87 -154 -104 -187 -101 -331 -361
-372 -672 -18 -132 -6 -452 21 -577 79 -369 234 -629 585 -980 177 -177 542
-461 760 -590 187 -112 404 -182 655 -212 74 -8 153 -21 175 -27 35 -10 40
-15 40 -41 0 -26 -5 -32 -39 -43 -32 -10 -60 -9 -180 8 -316 46 -458 84 -625
170 -95 49 -470 311 -620 433 -170 138 -561 559 -657 708 -111 170 -205 456
-235 713 -18 150 -6 499 20 602 72 286 229 511 477 681 123 84 212 126 345
165 80 23 123 41 146 61 92 81 -15 130 -197 91z"/>
<path d="M7082 5215 c0 -16 2 -22 5 -12 2 9 2 23 0 30 -3 6 -5 -1 -5 -18z"/>
<path d="M7093 5070 c0 -30 2 -43 4 -27 2 15 2 39 0 55 -2 15 -4 2 -4 -28z"/>
<path d="M7093 4910 c0 -30 2 -43 4 -27 2 15 2 39 0 55 -2 15 -4 2 -4 -28z"/>
<path d="M7082 4765 c0 -16 2 -22 5 -12 2 9 2 23 0 30 -3 6 -5 -1 -5 -18z"/>
<path d="M7062 4654 c-17 -92 -62 -212 -177 -479 -54 -125 -113 -212 -220
-324 -61 -64 -126 -137 -143 -164 -57 -82 -100 -187 -116 -280 -18 -104 -33
-130 -123 -218 -173 -168 -392 -259 -628 -259 -180 0 -344 52 -662 211 -167
84 -232 112 -263 113 -75 2 -73 -46 4 -105 80 -61 204 -130 361 -201 82 -38
211 -99 285 -137 162 -82 217 -96 360 -88 236 12 414 102 630 317 346 344 470
527 457 674 -5 52 0 73 38 175 56 153 107 310 144 451 33 126 74 342 69 367
-2 9 -9 -15 -16 -53z m-262 -939 c20 -33 21 -40 10 -83 -16 -66 -67 -157 -115
-206 -51 -53 -131 -94 -154 -79 -29 19 -16 57 64 193 77 128 140 210 163 210
6 0 20 -16 32 -35z"/>
<path d="M3344 3298 c160 -270 553 -682 684 -718 55 -14 122 -61 215 -147 154
-146 155 -146 86 -50 -84 118 -159 185 -273 240 -110 54 -205 128 -379 297
-129 124 -252 268 -316 368 -40 62 -53 70 -17 10z"/>
</g>
</svg>
