<?xml version="1.0" standalone="no"?>
<!DOCTYPE svg PUBLIC "-//W3C//DTD SVG 20010904//EN"
 "http://www.w3.org/TR/2001/REC-SVG-20010904/DTD/svg10.dtd">
<svg version="1.0" xmlns="http://www.w3.org/2000/svg"
 width="1000.000000pt" height="1000.000000pt" viewBox="0 0 1000.000000 1000.000000"
 preserveAspectRatio="xMidYMid meet">
<metadata>
  <rdf:RDF
    xmlns:rdf = "http://www.w3.org/1999/02/22-rdf-syntax-ns#"
    xmlns:rdfs = "http://www.w3.org/2000/01/rdf-schema#"
    xmlns:dc = "http://purl.org/dc/elements/1.1/"
    xmlns:cc = "http://creativecommons.org/ns#">
    <cc:license rdf:resource="http://creativecommons.org/publicdomain/zero/1.0/deed.en"/>
    <cc:permits rdf:resource="http://creativecommons.org/ns#Reproduction"/>
    <rdf:Description about="https://nft.mir.one/fingerprints"
      dc:title="TON Fingerprints"
      dc:description="This is a unique digital fingerprint created based on the algorithm for generating basic rings using a noise texture. Like human fingerprints, you can now use it for the Web3 and Metaverse era as digital biometric information."
      dc:publisher="https://nft.mir.one"
      dc:date="2022-02-22"
      dc:format="image/svg+xml"
      dc:language="en" >
      <dc:creator>
      <rdf:Bag>
        <rdf:li>EQBondcvD2_aOFADXSWJHs4ZazQDuEl9_wNvGGPxI8hGuOFU</rdf:li>
        <rdf:li>ipfs://bafkreihj7iub3fhmhq6jn62noukt5wxn3gv6bvcg7wmt6ywvlurefezckq</rdf:li>
      </rdf:Bag>
      </dc:creator>
    </rdf:Description>
  </rdf:RDF>
</metadata>
<g transform="translate(0.000000,1000.000000) scale(0.100000,-0.100000)"
fill="#1b1f23" stroke="none">
<path d="M4850 7654 c-290 -25 -477 -54 -720 -113 -75 -18 -75 -18 -35 -26 22
-5 238 -8 480 -6 629 4 697 -4 1053 -125 178 -61 204 -67 335 -80 78 -7 165
-13 192 -13 50 1 50 1 -5 26 -30 14 -135 59 -233 99 -98 41 -236 102 -307 134
-193 90 -252 102 -505 105 -115 1 -230 1 -255 -1z"/>
<path d="M4010 7491 c0 -6 -12 -24 -27 -38 -23 -21 -24 -24 -6 -14 24 12 48
49 39 59 -3 3 -6 0 -6 -7z"/>
<path d="M4295 7354 c-136 -19 -273 -67 -505 -177 -58 -27 -130 -60 -160 -73
-55 -24 -55 -24 16 -24 41 0 166 17 290 39 369 67 517 78 769 61 274 -18 467
-54 680 -125 163 -54 255 -96 415 -189 69 -41 233 -131 363 -200 267 -142 374
-206 462 -276 84 -68 224 -213 275 -287 49 -71 60 -81 30 -25 -11 20 -35 72
-54 115 -57 127 -192 321 -287 412 -113 108 -147 130 -334 215 -202 91 -296
146 -392 232 -86 77 -161 116 -339 178 -291 100 -437 121 -869 125 -181 2
-343 1 -360 -1z"/>
<path d="M5960 7165 c-26 -31 6 -65 105 -115 126 -63 358 -147 430 -155 60 -7
60 -7 -82 87 -246 165 -412 232 -453 183z"/>
<path d="M4210 7028 c-36 -5 -159 -24 -274 -44 -197 -32 -216 -37 -310 -83
-56 -26 -138 -70 -182 -98 -82 -50 -82 -50 -40 -61 35 -9 62 -7 164 13 68 13
189 34 270 45 81 12 203 33 272 47 233 46 437 42 730 -17 432 -87 883 -280
1325 -568 196 -127 296 -212 576 -486 140 -138 271 -260 291 -272 35 -21 35
-21 -14 67 -26 48 -48 91 -48 95 0 11 -140 244 -193 322 -61 89 -223 245 -343
331 -227 161 -756 448 -1016 550 -175 69 -421 129 -643 156 -132 17 -459 18
-565 3z"/>
<path d="M4256 6750 c-27 -5 -77 -23 -110 -41 -56 -29 -72 -32 -196 -40 -237
-15 -324 -35 -392 -89 -20 -16 -62 -41 -93 -55 -77 -34 -142 -82 -253 -189
-93 -89 -93 -89 -20 -83 40 3 105 11 143 17 88 14 187 2 385 -44 289 -68 544
-97 825 -95 180 2 229 -5 410 -57 297 -86 674 -281 958 -496 134 -101 241
-195 452 -395 234 -223 250 -237 415 -356 69 -49 148 -109 175 -131 48 -40
100 -76 109 -76 7 0 -52 149 -94 236 -34 71 -51 92 -132 164 -51 46 -176 161
-278 255 -102 95 -226 208 -275 251 -337 295 -677 506 -1060 657 -129 51 -193
72 -471 156 -72 22 -121 44 -173 80 -71 48 -117 66 -306 120 -75 21 -118 52
-113 79 3 14 16 17 78 14 122 -4 229 -29 509 -118 629 -201 877 -313 1251
-565 218 -147 340 -252 855 -738 88 -83 178 -162 201 -175 40 -23 40 -23 22
13 -10 20 -36 78 -57 128 -79 189 -109 229 -316 428 -340 327 -490 447 -779
620 -269 161 -520 276 -816 373 -368 120 -701 180 -854 152z m-383 -255 c46
-3 126 -17 178 -31 52 -13 172 -45 266 -69 223 -57 234 -63 192 -101 -29 -26
-154 -23 -324 10 -71 13 -217 40 -324 60 -106 20 -210 46 -232 56 -60 31 -72
71 -24 83 20 5 102 2 268 -8z"/>
<path d="M3350 6114 c-79 -16 -104 -28 -161 -81 -33 -31 -81 -84 -106 -117
-26 -34 -59 -75 -76 -93 -29 -31 -29 -31 34 -8 35 12 98 39 140 58 102 48 225
83 346 98 148 18 213 -2 162 -50 -24 -22 -71 -41 -199 -77 -288 -82 -368 -135
-500 -335 -57 -87 -57 -87 -19 -74 20 7 84 42 141 76 56 34 137 78 178 97 95
43 521 196 588 211 197 42 665 11 937 -63 291 -79 617 -249 885 -463 121 -96
357 -333 429 -432 77 -105 134 -223 201 -416 67 -192 94 -258 252 -610 71
-159 141 -303 155 -320 25 -30 25 -30 19 130 -3 88 -12 185 -20 215 -8 30 -54
145 -104 255 -49 110 -104 243 -121 295 -52 156 -52 260 -1 260 29 0 46 -33
102 -192 56 -159 233 -543 273 -590 26 -31 26 -31 20 38 -4 38 -15 123 -26
189 -17 108 -24 132 -79 240 -68 135 -83 191 -54 202 22 8 83 -57 164 -177 32
-47 69 -96 83 -108 25 -24 25 -24 -4 89 -39 150 -80 225 -139 255 -135 67
-260 125 -300 136 -38 11 -58 28 -139 123 -137 159 -408 427 -536 529 -328
263 -744 475 -1066 545 -135 29 -229 38 -544 56 -386 22 -425 27 -536 71 -89
35 -101 37 -224 40 -71 1 -141 0 -155 -2z"/>
<path d="M4030 5690 c-211 -17 -487 -98 -715 -210 -211 -104 -255 -144 -337
-310 -23 -47 -50 -97 -60 -112 -18 -27 -18 -27 22 -11 22 9 69 41 106 72 174
147 215 177 308 222 283 139 643 207 957 180 493 -41 870 -220 1257 -596 267
-259 398 -458 562 -860 34 -82 115 -260 180 -395 65 -135 137 -297 161 -360
23 -63 52 -130 65 -149 22 -33 22 -33 31 25 4 33 8 122 8 199 0 140 0 140 -99
350 -54 116 -145 322 -202 459 -172 407 -228 507 -395 701 -259 302 -662 576
-1021 693 -258 84 -574 123 -828 102z"/>
<path d="M3875 5375 c-303 -45 -603 -162 -649 -253 -30 -61 7 -67 140 -22 225
77 406 115 617 130 78 6 171 8 207 5 36 -3 94 -8 130 -11 162 -14 416 -88 546
-160 105 -58 155 -102 402 -356 289 -297 442 -494 519 -666 26 -58 30 -124 9
-141 -25 -21 -77 30 -240 234 -174 218 -343 394 -449 470 -60 42 -77 49 -145
57 -42 6 -162 36 -267 69 -104 32 -224 65 -265 73 -329 64 -758 40 -1219 -68
-186 -44 -193 -49 -244 -182 -24 -62 -24 -62 12 -47 20 9 52 23 71 33 85 43
274 92 463 121 170 26 621 37 777 20 200 -23 349 -66 515 -148 215 -107 312
-187 483 -398 122 -150 277 -301 382 -370 108 -70 180 -144 263 -266 57 -84
57 -84 51 -149 -9 -91 11 -126 152 -263 140 -136 180 -162 231 -152 23 4 32 9
24 14 -18 11 -30 75 -31 156 0 131 -57 284 -167 454 -93 143 -139 240 -198
409 -65 190 -125 315 -223 463 -154 234 -447 530 -686 693 -182 125 -428 215
-679 251 -126 18 -409 18 -532 0z m2266 -2013 c38 -39 56 -80 45 -107 -10 -27
-32 -16 -94 49 -73 75 -78 96 -26 96 29 0 44 -8 75 -38z"/>
<path d="M3824 5094 c-61 -7 -187 -30 -280 -51 -138 -30 -190 -37 -281 -37
-107 -1 -113 -2 -155 -31 -50 -35 -107 -132 -108 -182 0 -18 4 -33 8 -33 4 0
37 15 72 34 86 46 172 68 425 110 260 44 379 56 551 56 271 0 487 -45 749
-155 124 -53 147 -58 170 -42 38 28 -19 105 -124 167 -250 147 -646 211 -1027
164z"/>
<path d="M3615 4560 c-140 -9 -255 -30 -379 -72 -113 -38 -124 -45 -176 -121
-24 -34 -53 -73 -64 -86 -21 -24 -21 -24 19 -16 22 4 85 26 140 50 243 105
417 137 540 99 43 -13 65 -13 160 -2 162 18 496 15 625 -6 241 -39 259 -41
272 -28 10 10 10 18 -2 40 -32 57 -172 107 -384 137 -109 16 -528 18 -751 5z"/>
<path d="M3494 4325 c-150 -38 -304 -103 -344 -145 -29 -30 -100 -147 -100
-165 0 -12 62 12 146 57 50 26 167 80 259 118 169 70 215 98 215 131 0 36 -49
37 -176 4z"/>
<path d="M4735 4313 c-26 -16 -48 -17 -170 -13 -77 3 -230 5 -340 4 -281 0
-332 -12 -550 -119 -93 -46 -226 -110 -295 -143 -69 -32 -137 -72 -152 -88
-15 -16 -46 -68 -70 -115 -44 -86 -44 -86 -3 -68 22 10 78 41 125 69 147 89
423 217 580 269 116 38 211 52 395 58 273 8 523 -9 664 -48 130 -34 161 -31
161 18 0 60 -173 180 -272 189 -29 3 -53 -1 -73 -13z"/>
<path d="M4205 4053 c-227 -19 -447 -87 -706 -219 -185 -94 -202 -111 -254
-260 -21 -60 -21 -60 19 -39 23 12 84 50 136 85 314 207 694 313 1055 296 288
-13 562 -88 660 -180 43 -41 48 -82 10 -92 -39 -10 -90 3 -224 57 -190 77
-256 90 -471 96 -158 4 -203 2 -305 -15 -220 -38 -405 -104 -582 -208 -118
-69 -149 -109 -174 -224 -5 -25 -12 -53 -15 -63 -6 -18 -5 -18 23 0 15 10 69
49 118 86 97 74 284 171 405 211 138 45 266 67 435 73 239 8 403 -18 453 -74
21 -23 22 -28 9 -41 -14 -13 -39 -13 -204 -3 -401 25 -704 -42 -961 -212 -69
-46 -94 -85 -112 -177 -6 -30 -15 -70 -20 -88 -8 -32 -8 -32 41 10 163 141
286 215 435 261 156 49 233 59 529 67 215 6 291 11 329 24 89 29 302 15 420
-28 210 -76 459 -350 539 -594 17 -51 29 -114 32 -169 3 -48 11 -114 17 -145
12 -57 12 -57 55 24 24 44 70 121 103 171 33 49 60 97 60 106 0 9 3 25 6 37 4
15 -20 59 -85 157 -50 76 -123 192 -162 260 -39 67 -87 142 -107 167 -70 87
-525 531 -565 551 -24 13 -74 24 -126 29 -47 5 -138 18 -201 29 -193 34 -446
48 -615 34z"/>
<path d="M4185 3260 c-155 -25 -354 -102 -437 -170 -41 -34 -61 -87 -74 -195
-8 -68 -19 -72 118 44 74 63 171 112 283 142 63 17 110 22 225 23 158 1 267
-16 395 -62 176 -63 253 -132 344 -310 83 -164 108 -233 131 -365 21 -120 37
-190 39 -169 1 7 20 43 44 80 51 79 77 140 77 184 0 42 -33 151 -77 251 -64
148 -66 187 -12 187 46 0 118 -78 167 -181 43 -90 67 -170 77 -259 3 -30 13
-85 22 -121 16 -66 16 -66 44 -15 56 100 102 200 106 235 11 78 -57 257 -138
364 -76 102 -173 165 -373 242 -126 48 -219 71 -356 85 -134 15 -533 21 -605
10z"/>
<path d="M4128 2960 c-83 -15 -179 -51 -212 -81 -35 -30 -51 -71 -62 -163 -7
-60 -7 -60 60 -12 100 71 159 89 282 84 89 -3 108 -7 166 -36 94 -46 161 -122
188 -210 16 -53 40 -234 40 -298 0 -7 29 18 65 55 67 68 105 129 105 172 1 13
9 49 20 79 11 30 19 66 20 80 0 36 -54 124 -107 175 -54 52 -174 117 -258 139
-72 20 -241 28 -307 16z"/>
<path d="M4151 2594 c-23 -29 -27 -104 -6 -104 23 0 68 -43 85 -83 18 -39 18
-40 30 -16 7 13 23 34 36 45 28 27 41 87 25 120 -15 33 -69 64 -113 64 -28 0
-42 -6 -57 -26z"/>
<path d="M4880 2576 c-14 -18 -6 -246 12 -332 11 -52 11 -52 46 -6 49 65 82
134 82 174 0 37 -40 126 -68 150 -27 25 -58 30 -72 14z"/>
</g>
</svg>
