<?xml version="1.0" standalone="no"?>
<!DOCTYPE svg PUBLIC "-//W3C//DTD SVG 20010904//EN"
 "http://www.w3.org/TR/2001/REC-SVG-20010904/DTD/svg10.dtd">
<svg version="1.0" xmlns="http://www.w3.org/2000/svg"
 width="1000.000000pt" height="1000.000000pt" viewBox="0 0 1000.000000 1000.000000"
 preserveAspectRatio="xMidYMid meet">
<metadata>
  <rdf:RDF
    xmlns:rdf = "http://www.w3.org/1999/02/22-rdf-syntax-ns#"
    xmlns:rdfs = "http://www.w3.org/2000/01/rdf-schema#"
    xmlns:dc = "http://purl.org/dc/elements/1.1/"
    xmlns:cc = "http://creativecommons.org/ns#">
    <cc:license rdf:resource="http://creativecommons.org/publicdomain/zero/1.0/deed.en"/>
    <cc:permits rdf:resource="http://creativecommons.org/ns#Reproduction"/>
    <rdf:Description about="https://nft.mir.one/fingerprints"
      dc:title="TON Fingerprints"
      dc:description="This is a unique digital fingerprint created based on the algorithm for generating basic rings using a noise texture. Like human fingerprints, you can now use it for the Web3 and Metaverse era as digital biometric information."
      dc:publisher="https://nft.mir.one"
      dc:date="2022-02-22"
      dc:format="image/svg+xml"
      dc:language="en" >
      <dc:creator>
      <rdf:Bag>
        <rdf:li>EQBondcvD2_aOFADXSWJHs4ZazQDuEl9_wNvGGPxI8hGuOFU</rdf:li>
        <rdf:li>ipfs://bafkreihj7iub3fhmhq6jn62noukt5wxn3gv6bvcg7wmt6ywvlurefezckq</rdf:li>
      </rdf:Bag>
      </dc:creator>
    </rdf:Description>
  </rdf:RDF>
</metadata>
<g transform="translate(0.000000,1000.000000) scale(0.100000,-0.100000)"
fill="#1b1f23" stroke="none">
<path d="M5168 7803 c6 -2 18 -2 25 0 6 3 1 5 -13 5 -14 0 -19 -2 -12 -5z"/>
<path d="M5012 7789 c-89 -15 -483 -108 -552 -131 -105 -34 -251 -93 -385
-157 -127 -60 -160 -82 -82 -55 23 8 85 26 137 39 52 13 129 36 170 50 41 15
167 50 280 80 145 37 235 67 305 100 55 25 134 55 175 65 81 20 52 25 -48 9z"/>
<path d="M5003 7640 c-52 -11 -83 -27 -83 -43 0 -34 22 -37 260 -37 129 0 300
-5 380 -10 124 -8 318 -4 307 6 -9 9 -343 74 -429 83 -112 13 -373 13 -435 1z"/>
<path d="M4630 7465 c-449 -105 -710 -254 -1013 -578 -220 -235 -225 -240
-246 -234 -15 4 -24 -3 -35 -28 -9 -18 -16 -45 -16 -60 0 -24 3 -26 23 -20 12
3 39 11 60 16 63 16 125 52 267 156 74 54 180 130 235 168 55 38 144 104 198
147 144 115 266 170 487 218 52 12 137 34 188 51 51 16 126 32 165 35 94 8
360 -11 516 -37 230 -38 329 -76 501 -188 49 -33 113 -71 142 -85 61 -30 298
-92 375 -99 52 -4 52 -4 -20 38 -434 252 -454 265 -477 318 -15 34 -27 44 -75
63 -156 64 -312 90 -620 104 -121 6 -258 16 -305 22 -165 21 -237 19 -350 -7z"/>
<path d="M6005 7336 c-11 -8 -18 -16 -15 -19 7 -6 222 -39 226 -34 5 4 -124
53 -161 61 -20 4 -37 1 -50 -8z"/>
<path d="M4902 7230 c-55 -12 -62 -17 -62 -45 0 -45 25 -52 342 -90 307 -37
493 -116 690 -292 76 -68 355 -373 411 -448 16 -22 39 -63 52 -90 14 -32 60
-92 128 -164 58 -62 146 -170 197 -240 120 -169 147 -199 195 -215 32 -10 45
-22 62 -57 33 -65 70 -203 89 -331 21 -138 24 -430 5 -568 -71 -523 -291 -991
-617 -1312 -201 -198 -330 -261 -570 -277 -101 -7 -101 -7 -255 -98 -323 -191
-479 -251 -744 -287 -314 -43 -735 -23 -928 43 -31 11 -89 23 -129 27 -73 6
-73 6 72 -69 235 -122 448 -183 675 -194 226 -10 542 25 706 78 66 21 158 68
314 159 106 62 212 109 401 181 269 101 367 161 518 320 304 320 527 837 590
1371 36 299 29 523 -23 844 -16 99 -34 214 -40 257 -26 189 -150 448 -326 681
-31 42 -106 130 -166 197 -61 66 -123 142 -140 169 -64 104 -200 117 -144 14
23 -44 133 -178 313 -383 292 -333 422 -543 422 -680 0 -63 -24 -89 -49 -52
-9 14 -29 54 -45 90 -61 141 -134 244 -406 577 -269 330 -292 359 -330 429
-45 81 -94 131 -205 210 -144 103 -293 167 -477 204 -175 36 -448 57 -526 41z"/>
<path d="M4600 7083 c-126 -11 -259 -50 -318 -93 -50 -36 -60 -64 -35 -92 16
-18 26 -20 98 -14 248 19 349 18 504 -3 85 -12 208 -21 273 -21 138 0 241 -19
345 -62 81 -33 133 -75 133 -107 0 -28 -14 -27 -118 9 -218 76 -352 91 -352
40 0 -9 8 -24 18 -34 26 -22 282 -105 367 -117 152 -23 170 -29 261 -88 49
-32 139 -100 199 -150 140 -116 176 -141 217 -150 50 -11 68 -4 68 27 0 21
-31 57 -147 173 -82 80 -224 214 -318 298 -146 131 -183 159 -260 196 -111 53
-216 79 -405 100 -170 18 -228 29 -330 60 -80 24 -143 33 -200 28z"/>
<path d="M6410 6816 c0 -16 143 -150 274 -257 58 -46 82 -62 69 -43 -45 62
-206 236 -254 274 -52 41 -89 51 -89 26z"/>
<path d="M4122 6744 c-97 -21 -256 -112 -448 -254 -171 -127 -243 -205 -326
-355 -101 -183 -184 -407 -213 -571 -20 -118 -19 -157 10 -253 35 -118 46
-220 43 -393 -3 -176 -19 -133 156 -423 119 -196 182 -279 289 -382 135 -129
292 -224 375 -225 51 0 62 7 62 40 0 33 -24 62 -110 132 -292 240 -510 550
-573 815 -37 155 -56 472 -37 610 30 218 135 448 290 634 141 169 471 384 676
439 199 54 457 49 644 -11 97 -32 520 -197 593 -231 154 -74 332 -209 444
-339 76 -87 229 -317 275 -412 21 -46 55 -146 78 -235 22 -85 52 -193 66 -240
20 -67 27 -114 31 -220 7 -171 -18 -326 -82 -518 -63 -190 -177 -414 -202
-399 -17 10 -53 -13 -53 -33 0 -26 22 -26 45 0 10 11 22 17 26 14 21 -12 6
-49 -39 -97 -119 -128 -305 -388 -354 -495 -19 -42 -28 -76 -26 -100 3 -33 6
-37 33 -40 50 -5 96 34 111 91 16 62 36 92 179 262 158 190 194 241 274 396
172 334 245 601 244 899 0 177 -9 216 -71 313 -48 74 -74 152 -70 204 2 29 7
38 21 38 14 0 28 -24 58 -95 49 -119 79 -147 100 -93 23 62 -39 196 -108 231
-29 15 -50 40 -87 103 -28 46 -100 158 -161 249 -61 91 -127 194 -145 229 -28
52 -54 80 -145 156 -231 193 -317 243 -545 315 -192 60 -294 103 -358 151
-119 90 -246 111 -646 107 -153 -2 -299 -8 -324 -14z"/>
<path d="M3241 6538 c-7 -24 -53 -150 -102 -282 -50 -131 -88 -240 -86 -242 8
-8 130 274 164 375 32 98 52 191 41 191 -3 0 -10 -19 -17 -42z"/>
<path d="M4445 6447 c-27 -8 -67 -21 -88 -31 -64 -31 -108 -102 -76 -122 6 -3
85 0 176 7 253 20 445 -5 703 -91 138 -47 342 -148 442 -220 320 -229 533
-595 580 -993 15 -123 2 -240 -48 -427 -45 -171 -87 -279 -177 -454 -149 -291
-423 -653 -606 -800 -200 -162 -424 -253 -716 -292 -66 -9 -246 -19 -400 -23
-239 -6 -285 -9 -313 -24 -27 -15 -33 -23 -30 -45 8 -67 146 -94 488 -95 179
-1 262 3 350 17 287 44 464 109 668 246 126 84 176 138 282 303 50 78 135 205
190 282 55 77 118 178 141 225 23 46 58 109 77 139 89 140 172 351 214 544 34
159 32 373 -6 532 -56 239 -111 383 -205 535 -185 297 -409 486 -743 624 -120
50 -339 124 -438 148 -107 26 -386 35 -465 15z"/>
<path d="M4190 6241 c-142 -45 -270 -131 -398 -266 -139 -147 -231 -323 -271
-522 -37 -179 -25 -432 28 -585 58 -168 207 -400 368 -575 76 -82 281 -259
337 -290 46 -25 60 -28 141 -27 115 1 190 28 251 90 41 43 44 44 145 58 127
19 193 38 284 83 185 93 310 245 371 449 16 53 35 99 43 102 29 11 51 -36 51
-107 0 -145 -81 -311 -221 -450 -130 -130 -251 -192 -494 -251 -192 -47 -265
-72 -290 -99 -22 -25 -16 -52 15 -69 35 -19 416 -8 492 14 192 56 426 268 546
494 69 131 87 199 86 330 0 111 -2 121 -53 280 -85 266 -147 379 -268 491
-113 103 -237 159 -398 181 -157 21 -333 -32 -438 -131 -99 -94 -140 -205
-141 -386 -1 -201 72 -354 215 -455 140 -98 294 -113 434 -42 77 39 175 143
221 236 34 69 38 87 38 150 0 127 -72 239 -192 298 -57 28 -77 33 -137 32 -79
0 -131 -21 -183 -75 -112 -115 -86 -305 51 -374 57 -28 75 -30 111 -14 42 19
39 37 -14 92 -53 54 -67 92 -55 146 13 60 103 105 134 67 9 -11 6 -20 -14 -41
-28 -31 -33 -72 -10 -81 8 -3 21 1 30 9 40 41 87 25 99 -34 8 -40 -11 -81 -77
-171 -64 -86 -94 -103 -182 -103 -104 1 -193 64 -252 178 -38 74 -45 216 -14
298 44 115 126 191 245 225 77 21 198 15 276 -16 184 -71 330 -277 331 -468 1
-69 10 -50 -148 -294 -88 -134 -235 -236 -376 -261 -255 -43 -581 187 -651
461 -25 93 -29 198 -17 391 12 207 26 244 120 335 156 148 434 205 687 141
280 -71 493 -260 614 -543 16 -38 54 -151 86 -253 72 -236 79 -312 40 -449
-84 -295 -296 -570 -606 -790 -41 -29 -106 -84 -145 -121 -88 -84 -156 -122
-281 -156 -95 -26 -109 -27 -359 -27 -360 -1 -401 8 -705 144 -197 88 -325
169 -477 301 -34 30 -83 72 -110 94 -48 40 -48 40 -23 0 145 -243 283 -414
392 -488 29 -20 101 -54 160 -77 116 -45 158 -71 158 -100 0 -42 -89 -52 -215
-24 -79 18 -209 33 -197 23 4 -3 44 -31 89 -63 103 -71 202 -118 264 -124 45
-4 52 -1 109 41 34 26 78 51 98 58 20 6 167 15 327 19 362 11 499 31 675 102
300 120 686 504 893 888 61 112 110 241 151 397 19 71 48 166 65 213 38 104
41 194 11 341 -74 363 -304 685 -624 871 -149 88 -354 161 -541 194 -49 8
-187 19 -306 23 -223 9 -255 15 -324 65 -18 13 -27 12 -75 -3z m745 -246 c519
-91 906 -462 1009 -967 16 -77 21 -212 10 -242 -9 -23 -31 -20 -48 7 -8 12
-28 78 -45 147 -36 153 -70 250 -124 355 -199 383 -591 603 -1042 582 -185 -8
-332 -47 -451 -118 -72 -43 -210 -172 -285 -266 -110 -138 -156 -274 -146
-433 8 -127 45 -202 90 -184 23 9 36 50 47 154 19 179 57 284 106 296 48 12
51 -7 29 -166 -8 -58 -18 -169 -21 -247 -7 -130 -5 -147 15 -202 65 -179 202
-326 401 -430 112 -59 170 -103 170 -131 0 -10 -8 -21 -18 -24 -25 -8 -180 20
-246 44 -171 65 -365 259 -501 504 -21 37 -60 94 -87 125 -96 108 -123 200
-115 386 6 140 29 232 88 349 118 236 311 402 527 452 153 36 461 40 637 9z"/>
<path d="M6236 6085 c-21 -22 -14 -36 84 -160 48 -60 116 -150 150 -200 35
-49 91 -126 125 -170 135 -175 145 -210 145 -500 0 -235 -11 -377 -41 -533
-60 -310 -230 -673 -429 -917 -32 -39 -117 -130 -190 -203 -136 -136 -152
-164 -98 -170 62 -7 184 72 313 202 302 304 506 728 581 1205 26 162 24 534
-3 661 -25 118 -66 204 -139 295 -31 39 -107 138 -169 220 -120 160 -203 247
-260 270 -43 19 -50 19 -69 0z"/>
<path d="M3036 5985 c-9 -26 -7 -32 5 -12 6 10 9 21 6 23 -2 3 -7 -2 -11 -11z"/>
<path d="M3003 5253 c-14 -50 -10 -325 6 -352 13 -23 13 -23 35 -2 20 20 21
31 21 169 -1 109 -5 155 -15 176 -20 40 -38 43 -47 9z"/>
<path d="M3068 4575 c-24 -52 50 -323 130 -479 132 -257 511 -499 880 -561
155 -26 354 -45 469 -45 225 0 413 65 387 134 -10 25 -65 34 -182 28 -125 -5
-205 7 -296 45 -91 38 -239 63 -375 63 -92 0 -134 5 -187 21 -150 46 -300 143
-426 277 -93 99 -153 190 -245 367 -90 173 -128 210 -155 150z"/>
<path d="M6560 3155 c-24 -29 -312 -216 -399 -260 -47 -23 -174 -80 -281 -125
-307 -129 -386 -178 -378 -234 14 -101 554 147 825 380 137 118 271 254 250
254 -3 0 -10 -7 -17 -15z"/>
<path d="M5300 2434 c-222 -41 -305 -47 -674 -50 -203 -2 -370 -5 -372 -7 -5
-4 248 -54 376 -73 129 -20 434 -23 575 -5 196 24 471 71 539 90 73 22 105 39
46 25 -19 -4 -79 -7 -132 -7 -75 1 -108 6 -144 22 -53 24 -105 25 -214 5z"/>
</g>
</svg>
