<?xml version="1.0" standalone="no"?>
<!DOCTYPE svg PUBLIC "-//W3C//DTD SVG 20010904//EN"
 "http://www.w3.org/TR/2001/REC-SVG-20010904/DTD/svg10.dtd">
<svg version="1.0" xmlns="http://www.w3.org/2000/svg"
 width="1000.000000pt" height="1000.000000pt" viewBox="0 0 1000.000000 1000.000000"
 preserveAspectRatio="xMidYMid meet">
<metadata>
  <rdf:RDF
    xmlns:rdf = "http://www.w3.org/1999/02/22-rdf-syntax-ns#"
    xmlns:rdfs = "http://www.w3.org/2000/01/rdf-schema#"
    xmlns:dc = "http://purl.org/dc/elements/1.1/"
    xmlns:cc = "http://creativecommons.org/ns#">
    <cc:license rdf:resource="http://creativecommons.org/publicdomain/zero/1.0/deed.en"/>
    <cc:permits rdf:resource="http://creativecommons.org/ns#Reproduction"/>
    <rdf:Description about="https://nft.mir.one/fingerprints"
      dc:title="TON Fingerprints"
      dc:description="This is a unique digital fingerprint created based on the algorithm for generating basic rings using a noise texture. Like human fingerprints, you can now use it for the Web3 and Metaverse era as digital biometric information."
      dc:publisher="https://nft.mir.one"
      dc:date="2022-02-22"
      dc:format="image/svg+xml"
      dc:language="en" >
      <dc:creator>
      <rdf:Bag>
        <rdf:li>EQBondcvD2_aOFADXSWJHs4ZazQDuEl9_wNvGGPxI8hGuOFU</rdf:li>
        <rdf:li>ipfs://bafkreihj7iub3fhmhq6jn62noukt5wxn3gv6bvcg7wmt6ywvlurefezckq</rdf:li>
      </rdf:Bag>
      </dc:creator>
    </rdf:Description>
  </rdf:RDF>
</metadata>
<g transform="translate(0.000000,1000.000000) scale(0.100000,-0.100000)"
fill="#1b1f23" stroke="none">
<path d="M4701 7679 c-115 -12 -293 -53 -415 -96 -99 -34 -320 -133 -313 -139
2 -2 30 5 63 15 264 85 647 140 879 126 316 -18 520 -77 707 -203 149 -100
476 -301 553 -339 127 -64 246 -112 300 -122 27 -5 51 -8 53 -7 4 4 -228 176
-353 261 -55 38 -130 92 -166 121 -378 299 -832 432 -1308 383z"/>
<path d="M4568 7444 c-231 -29 -446 -101 -585 -195 -135 -91 -390 -308 -458
-388 -97 -114 -313 -389 -294 -375 72 53 130 104 222 191 169 162 271 229 386
254 41 8 65 7 127 -7 98 -21 153 -16 364 35 448 108 679 113 1159 25 161 -30
268 -71 311 -121 18 -20 29 -42 26 -50 -3 -8 -6 -17 -6 -19 0 -19 -366 45
-482 85 -112 38 -200 51 -345 51 -231 0 -506 -49 -739 -131 -129 -45 -155 -61
-247 -147 -45 -42 -135 -123 -199 -180 -249 -221 -443 -486 -580 -794 -132
-294 -176 -520 -165 -843 8 -245 39 -392 129 -625 27 -69 60 -171 74 -228 28
-117 48 -163 110 -243 143 -186 378 -352 599 -422 65 -20 89 -22 345 -22 275
0 275 0 275 -24 0 -34 -61 -62 -210 -97 -171 -40 -314 -40 -440 0 -190 59
-425 203 -599 366 -77 73 -128 113 -194 154 -16 9 121 -184 196 -278 225 -281
523 -472 767 -492 89 -8 136 5 202 55 29 21 85 51 125 67 40 15 134 51 208 80
74 29 207 74 295 100 88 25 245 80 348 121 128 50 198 73 220 71 69 -7 36 -56
-84 -128 -148 -88 -302 -143 -877 -315 -85 -25 -164 -53 -178 -61 -26 -18 -31
-46 -11 -62 40 -32 126 -22 412 49 302 75 449 125 607 207 135 69 215 139 263
230 19 37 67 103 106 147 172 193 228 324 210 487 -4 40 -6 157 -3 259 12 456
-58 640 -338 894 -184 166 -345 198 -625 124 -285 -74 -485 -315 -448 -536 24
-136 93 -232 211 -290 70 -35 82 -38 161 -38 71 0 96 5 141 26 120 56 181 143
188 270 5 90 -8 136 -51 185 -104 120 -313 101 -378 -33 -41 -85 -6 -159 74
-154 15 1 18 8 15 38 -2 31 1 39 23 52 52 29 113 -20 111 -89 -2 -80 -72 -134
-164 -128 -199 13 -255 278 -90 430 159 147 437 149 570 4 50 -54 62 -95 62
-212 0 -171 -40 -292 -126 -384 -91 -97 -197 -140 -348 -140 -155 0 -273 48
-374 154 -100 104 -152 241 -152 401 0 75 3 86 35 139 122 203 235 313 393
383 30 13 118 42 195 64 77 22 162 52 189 65 139 70 315 18 473 -141 209 -208
369 -516 421 -810 26 -145 27 -544 1 -665 -45 -208 -157 -388 -382 -614 -232
-233 -468 -335 -1045 -451 -124 -24 -256 -54 -295 -65 -38 -11 -97 -20 -130
-20 -66 0 -336 52 -391 75 -19 8 -65 41 -102 73 -37 33 -107 80 -157 105 -67
35 -82 40 -60 21 115 -98 171 -153 201 -199 36 -54 80 -84 182 -124 104 -41
309 -149 398 -209 102 -70 176 -103 302 -135 77 -20 112 -22 307 -21 199 0
232 3 345 27 384 81 831 302 1020 503 38 40 35 38 -21 -12 -98 -90 -115 -99
-494 -256 -200 -83 -460 -155 -680 -189 -118 -18 -383 -16 -474 4 -137 31
-241 108 -241 178 0 24 9 33 64 64 52 29 83 38 172 50 645 90 946 206 1264
488 269 239 376 411 426 683 26 144 26 500 0 639 -43 230 -130 456 -258 666
-158 262 -159 262 -170 338 -10 67 -13 74 -55 110 -125 111 -457 214 -688 215
-91 0 -127 -5 -210 -28 -55 -16 -160 -43 -232 -61 -157 -38 -214 -69 -317
-171 -137 -134 -224 -303 -245 -473 -10 -76 -14 -87 -45 -117 -19 -19 -40 -51
-45 -72 -16 -54 -13 -187 5 -303 17 -107 11 -149 -21 -149 -20 0 -57 81 -80
177 -14 56 -16 99 -12 195 4 107 10 141 46 260 98 326 197 485 426 684 58 51
124 115 145 142 67 84 187 150 291 159 49 5 59 3 59 -10 0 -26 -27 -46 -135
-98 -116 -56 -156 -90 -138 -117 23 -36 73 -23 373 101 68 28 87 31 211 35
262 8 525 -54 814 -193 176 -85 238 -144 362 -350 67 -112 134 -243 212 -416
59 -131 101 -189 136 -189 83 0 1 287 -173 608 -96 176 -110 217 -93 270 12
37 12 37 -51 95 -177 165 -466 300 -747 348 -144 24 -366 33 -537 22 -77 -6
-168 -6 -219 0 -109 11 -202 -8 -313 -63 -158 -80 -441 -340 -554 -510 -310
-469 -344 -1069 -68 -1210 25 -13 61 -49 102 -102 179 -236 392 -381 622 -425
156 -30 394 1 489 63 43 28 47 47 12 70 -22 14 -47 15 -192 10 -256 -11 -381
19 -550 131 -156 103 -246 234 -282 413 -36 180 -60 430 -41 430 50 0 83 -63
110 -213 41 -234 92 -349 204 -454 136 -130 281 -183 495 -183 150 1 264 19
337 55 69 34 147 120 201 222 60 113 73 172 73 339 0 156 6 173 50 151 32 -16
75 -95 90 -168 7 -33 11 -99 8 -156 -5 -113 -22 -161 -91 -251 -60 -78 -69
-97 -69 -148 0 -39 -4 -48 -41 -80 -23 -19 -79 -60 -124 -90 -58 -38 -88 -65
-102 -92 -40 -79 -113 -127 -249 -164 -112 -31 -325 -30 -437 0 -179 50 -367
178 -548 375 -325 351 -326 352 -352 491 -18 91 -20 282 -4 392 55 397 271
769 600 1033 155 126 280 192 437 232 71 18 404 51 652 64 129 7 330 -7 447
-31 228 -47 408 -129 694 -318 191 -127 288 -208 356 -299 22 -28 68 -90 103
-137 35 -47 60 -76 56 -65 -109 291 -142 362 -233 500 -69 104 -119 152 -265
252 -204 140 -412 235 -599 273 -93 20 -127 21 -324 17 -190 -4 -259 -10 -505
-46 -325 -47 -453 -75 -578 -127 -180 -74 -326 -176 -492 -343 -267 -269 -433
-595 -486 -953 -14 -93 -16 -156 -10 -353 6 -240 6 -240 -21 -328 -25 -84 -26
-93 -15 -159 32 -185 182 -391 375 -516 129 -83 253 -117 276 -74 15 29 -8 56
-119 138 -177 130 -306 274 -364 407 -41 92 -42 157 -5 157 19 0 30 -13 158
-185 56 -76 200 -225 286 -296 22 -18 76 -68 121 -110 91 -86 125 -102 313
-150 188 -48 364 -39 570 30 156 52 283 126 490 283 117 89 161 114 185 105
72 -28 -123 -278 -279 -359 -160 -83 -441 -183 -613 -218 -145 -29 -225 -27
-332 10 -112 39 -254 60 -400 60 -127 0 -187 12 -285 59 -97 45 -171 97 -263
185 -125 119 -173 199 -249 406 -19 52 -55 132 -79 178 -55 100 -90 199 -109
307 -61 352 0 722 180 1090 160 327 384 595 693 828 233 175 599 279 987 281
170 1 219 -9 213 -41 -6 -31 -51 -42 -239 -64 -574 -65 -841 -186 -1179 -535
-170 -176 -272 -321 -375 -537 -125 -261 -185 -514 -185 -777 0 -188 36 -388
81 -451 23 -33 40 -36 63 -13 20 19 20 58 4 272 -28 377 50 720 237 1037 193
329 509 617 805 734 155 61 249 83 607 141 73 11 169 32 215 46 63 19 127 29
268 39 102 7 214 21 250 30 54 14 74 15 124 5 206 -41 549 -214 773 -392 49
-38 145 -98 160 -98 1 0 -44 64 -99 143 -69 96 -142 182 -227 269 -126 126
-126 126 -328 226 -110 55 -251 132 -312 172 -62 39 -155 92 -209 118 -91 44
-101 47 -167 44 -167 -8 -240 -6 -405 12 -303 33 -526 14 -884 -75 -197 -50
-275 -58 -284 -31 -8 24 66 80 149 112 191 73 428 118 669 127 183 6 310 -4
513 -43 149 -28 167 -29 191 -11 15 11 16 17 6 38 -26 56 -155 110 -345 145
-128 23 -447 27 -597 8z m597 -1819 c42 -17 55 -43 32 -60 -10 -7 -51 -18 -92
-24 -194 -32 -374 -100 -484 -185 -89 -68 -146 -139 -204 -253 -29 -57 -57
-103 -63 -103 -22 0 -37 31 -37 73 0 92 64 217 161 315 117 116 261 186 480
232 107 23 162 24 207 5z m602 -1461 c17 -44 -50 -97 -115 -92 -60 5 -53 31
20 72 70 40 86 43 95 20z"/>
<path d="M3853 6800 c-131 -31 -394 -257 -521 -449 -164 -246 -322 -658 -387
-1009 -27 -145 -34 -246 -9 -132 32 147 135 423 224 600 174 346 361 587 615
789 166 133 198 179 139 201 -14 6 -26 10 -27 9 -1 -1 -16 -4 -34 -9z"/>
<path d="M6535 5711 c-3 -6 41 -79 99 -164 166 -245 244 -430 253 -602 5 -82
3 -96 -22 -154 -26 -64 -27 -66 -16 -176 16 -160 14 -434 -5 -623 -10 -102
-13 -185 -8 -220 9 -68 7 -72 58 163 53 243 74 404 92 699 18 310 12 424 -36
611 -43 171 -89 261 -190 369 -64 70 -124 106 -176 106 -24 0 -45 -4 -49 -9z"/>
<path d="M5980 5535 c-14 -17 -1 -37 140 -230 160 -217 320 -572 377 -835 26
-120 26 -591 0 -758 -29 -186 -73 -304 -139 -372 -79 -82 -337 -310 -425 -377
-333 -250 -817 -402 -1282 -403 -140 0 -185 -22 -131 -61 64 -47 278 -70 465
-50 395 42 815 195 1079 393 36 27 126 112 199 189 136 143 164 161 187 120
16 -31 12 -106 -9 -161 -11 -27 -17 -50 -15 -50 11 0 66 129 85 197 12 43 45
137 74 209 99 245 110 312 121 729 7 267 0 371 -32 500 -28 111 -303 660 -395
788 -46 65 -130 147 -171 168 -45 23 -111 25 -128 4z"/>
<path d="M2913 5105 c0 -22 2 -30 4 -17 2 12 2 30 0 40 -3 9 -5 -1 -4 -23z"/>
<path d="M2903 4970 c0 -25 2 -35 4 -22 2 12 2 32 0 45 -2 12 -4 2 -4 -23z"/>
<path d="M2902 4825 c0 -16 2 -22 5 -12 2 9 2 23 0 30 -3 6 -5 -1 -5 -18z"/>
<path d="M2931 4554 c0 -11 3 -14 6 -6 3 7 2 16 -1 19 -3 4 -6 -2 -5 -13z"/>
<path d="M2941 4504 c0 -11 3 -14 6 -6 3 7 2 16 -1 19 -3 4 -6 -2 -5 -13z"/>
<path d="M2950 4468 c-1 -48 115 -399 167 -501 27 -55 48 -54 39 3 -6 39 -70
200 -114 285 -14 27 -40 91 -58 140 -18 50 -33 82 -34 73z"/>
</g>
</svg>
