<?xml version="1.0" standalone="no"?>
<!DOCTYPE svg PUBLIC "-//W3C//DTD SVG 20010904//EN"
 "http://www.w3.org/TR/2001/REC-SVG-20010904/DTD/svg10.dtd">
<svg version="1.0" xmlns="http://www.w3.org/2000/svg"
 width="1000.000000pt" height="1000.000000pt" viewBox="0 0 1000.000000 1000.000000"
 preserveAspectRatio="xMidYMid meet">
<metadata>
  <rdf:RDF
    xmlns:rdf = "http://www.w3.org/1999/02/22-rdf-syntax-ns#"
    xmlns:rdfs = "http://www.w3.org/2000/01/rdf-schema#"
    xmlns:dc = "http://purl.org/dc/elements/1.1/"
    xmlns:cc = "http://creativecommons.org/ns#">
    <cc:license rdf:resource="http://creativecommons.org/publicdomain/zero/1.0/deed.en"/>
    <cc:permits rdf:resource="http://creativecommons.org/ns#Reproduction"/>
    <rdf:Description about="https://nft.mir.one/fingerprints"
      dc:title="TON Fingerprints"
      dc:description="This is a unique digital fingerprint created based on the algorithm for generating basic rings using a noise texture. Like human fingerprints, you can now use it for the Web3 and Metaverse era as digital biometric information."
      dc:publisher="https://nft.mir.one"
      dc:date="2022-02-22"
      dc:format="image/svg+xml"
      dc:language="en" >
      <dc:creator>
      <rdf:Bag>
        <rdf:li>EQBondcvD2_aOFADXSWJHs4ZazQDuEl9_wNvGGPxI8hGuOFU</rdf:li>
        <rdf:li>ipfs://bafkreihj7iub3fhmhq6jn62noukt5wxn3gv6bvcg7wmt6ywvlurefezckq</rdf:li>
      </rdf:Bag>
      </dc:creator>
    </rdf:Description>
  </rdf:RDF>
</metadata>
<g transform="translate(0.000000,1000.000000) scale(0.100000,-0.100000)"
fill="#1b1f23" stroke="none">
<path d="M4550 7744 c8 -4 36 -22 62 -41 32 -23 99 -51 214 -88 131 -43 186
-67 253 -109 47 -29 104 -63 126 -73 90 -45 272 -95 649 -178 221 -49 273 -66
429 -139 76 -35 114 -61 170 -113 69 -66 70 -66 29 -16 -81 98 -210 205 -344
285 -90 53 -224 97 -513 168 -356 87 -486 138 -454 177 18 21 86 15 240 -23
235 -58 280 -65 368 -65 99 0 127 15 47 25 -31 3 -126 27 -213 52 -262 76
-305 84 -441 84 -67 0 -166 6 -220 14 -53 8 -155 19 -227 26 -71 6 -143 13
-160 15 -16 3 -23 2 -15 -1z"/>
<path d="M4235 7571 c-140 -28 -140 -28 -20 -36 193 -13 346 13 321 54 -12 19
-155 10 -301 -18z"/>
<path d="M4510 7450 c-58 -11 -163 -28 -235 -39 -141 -21 -274 -60 -429 -125
-99 -41 -99 -41 -50 -44 26 -2 100 4 163 12 305 41 701 51 827 23 112 -25 189
-55 315 -119 117 -60 117 -60 168 -49 69 15 143 -1 326 -69 77 -28 208 -76
290 -106 83 -30 215 -79 295 -110 151 -57 189 -64 210 -39 19 23 4 49 -66 114
-116 109 -300 182 -759 302 -271 71 -369 103 -511 165 -230 100 -350 119 -544
84z"/>
<path d="M4195 7164 c-16 -2 -79 -9 -140 -15 -172 -17 -313 -72 -507 -200 -51
-33 -94 -62 -96 -64 -11 -11 100 12 203 41 285 81 625 118 888 96 142 -12 224
-24 392 -60 50 -11 99 -16 110 -12 50 18 14 89 -65 130 -56 29 -168 60 -270
75 -86 14 -425 19 -515 9z"/>
<path d="M5241 7037 c-34 -34 14 -98 131 -177 207 -141 382 -291 482 -414 121
-149 460 -445 685 -599 137 -93 206 -156 445 -408 55 -57 96 -95 92 -84 -5 11
-33 85 -62 165 -70 185 -144 336 -195 394 -23 25 -72 64 -109 86 -37 22 -124
80 -192 130 -67 49 -197 142 -288 207 -187 134 -250 190 -250 221 0 51 74 35
254 -55 138 -69 215 -120 380 -250 72 -58 148 -113 168 -124 39 -20 98 -26 98
-9 0 6 -4 10 -9 10 -6 0 -52 61 -103 136 -161 238 -263 341 -361 368 -100 26
-373 96 -456 116 -61 14 -155 54 -350 149 -268 131 -340 158 -360 138z"/>
<path d="M6520 6926 c0 -2 8 -10 18 -17 15 -13 16 -12 3 4 -13 16 -21 21 -21
13z"/>
<path d="M4096 6899 c-174 -18 -403 -77 -506 -129 -60 -31 -165 -109 -283
-210 -75 -65 -75 -65 -36 -68 30 -2 72 11 182 58 381 165 456 190 642 211 122
14 343 5 588 -22 318 -35 400 -54 614 -140 126 -51 170 -59 179 -34 18 46 -51
119 -186 199 -117 69 -166 86 -255 86 -41 0 -139 9 -218 20 -297 41 -523 50
-721 29z"/>
<path d="M4045 6650 c-119 -19 -238 -63 -320 -120 -24 -17 -109 -65 -187 -107
-183 -97 -202 -111 -239 -186 -17 -34 -69 -119 -115 -188 -46 -69 -115 -185
-153 -258 -68 -130 -68 -131 -32 -99 20 17 123 121 230 230 285 292 383 351
615 368 182 14 355 63 430 123 61 47 97 56 243 57 272 0 551 -60 836 -181 213
-90 485 -348 602 -571 54 -101 74 -197 86 -403 12 -201 32 -363 51 -403 9 -18
23 -28 41 -30 45 -5 58 42 68 248 7 145 12 188 34 253 14 43 25 93 25 111 0
44 25 123 45 146 15 16 15 21 2 47 -57 107 -501 580 -652 694 -117 88 -126 91
-228 90 -81 -1 -108 3 -227 39 -246 75 -376 97 -730 125 -280 22 -357 25 -425
15z m180 -120 c30 -11 44 -39 25 -50 -7 -4 -31 -11 -54 -14 -22 -4 -101 -20
-174 -36 -161 -36 -212 -39 -212 -10 0 64 315 148 415 110z"/>
<path d="M4459 6339 c-36 -4 -146 -36 -245 -69 -98 -34 -239 -76 -311 -95
-163 -42 -257 -81 -354 -144 -167 -111 -381 -345 -454 -496 -81 -167 -150
-412 -179 -635 -6 -45 -6 -45 12 1 10 25 26 58 35 75 9 16 30 63 47 104 42
102 108 213 199 334 42 56 107 145 145 199 145 210 276 302 566 402 74 25 178
66 230 90 154 72 229 88 410 89 167 1 256 -11 385 -51 170 -53 285 -135 285
-203 0 -38 -25 -40 -78 -6 -98 65 -317 128 -510 146 -214 21 -452 -24 -452
-85 0 -32 31 -38 213 -40 208 -3 311 -18 537 -75 173 -44 179 -45 262 -28 57
12 57 12 112 -26 123 -84 263 -256 319 -391 64 -153 80 -315 40 -391 -26 -48
-76 -94 -103 -94 -15 0 -20 -10 -25 -57 -30 -290 -51 -399 -100 -529 -68 -180
-198 -375 -321 -477 -84 -71 -137 -103 -221 -134 -60 -22 -77 -23 -312 -23
-267 0 -345 9 -480 55 -91 31 -169 72 -254 136 -181 136 -277 341 -293 624 -5
81 -11 119 -25 143 -33 58 -39 107 -24 200 15 91 9 122 -23 122 -28 0 -62 -37
-91 -99 -25 -54 -26 -63 -25 -226 0 -136 5 -191 22 -275 13 -58 31 -151 41
-206 24 -128 43 -171 118 -264 152 -188 402 -331 686 -392 133 -28 395 -31
530 -4 334 65 555 244 750 606 100 186 147 337 187 595 26 169 40 208 72 203
63 -9 76 -252 25 -448 -36 -138 -78 -241 -155 -376 -37 -65 -88 -155 -112
-199 -79 -147 -166 -241 -315 -344 -211 -146 -430 -213 -700 -214 -266 -1
-507 64 -748 199 -141 80 -240 158 -406 321 -298 295 -337 332 -366 355 -30
23 -30 23 -7 -12 13 -19 46 -80 74 -135 101 -199 207 -364 292 -454 108 -114
431 -299 656 -375 370 -124 762 -112 1065 33 158 75 280 161 480 340 46 41
108 85 145 103 88 42 125 71 155 123 32 54 32 108 -1 113 -16 2 -40 -17 -90
-72 -75 -83 -104 -96 -104 -46 0 46 33 103 107 183 45 49 79 98 105 153 71
153 146 460 135 554 -3 25 -26 106 -51 181 -31 92 -54 186 -71 295 -42 260
-75 357 -171 500 -102 154 -313 356 -463 444 -213 124 -574 200 -802 169z"/>
<path d="M3145 6229 c-22 -23 -33 -38 -25 -34 50 28 90 57 90 65 0 21 -28 8
-65 -31z"/>
<path d="M3930 5874 c-228 -66 -440 -214 -440 -306 0 -25 4 -28 30 -28 17 0
83 27 151 60 214 108 378 148 549 135 276 -20 432 -46 597 -100 296 -97 442
-222 574 -492 66 -136 114 -200 143 -190 6 2 14 21 18 43 31 176 -51 402 -202
554 -89 90 -149 123 -320 178 -238 77 -368 103 -630 126 -91 8 -187 22 -215
30 -71 22 -157 19 -255 -10z"/>
<path d="M6357 5668 c-17 -13 -16 -17 20 -83 22 -39 64 -107 96 -153 92 -134
111 -225 143 -689 15 -212 16 -271 6 -370 -31 -313 -148 -573 -258 -573 -20 0
-41 -36 -160 -267 -138 -268 -138 -268 -259 -388 -148 -148 -226 -194 -345
-205 -61 -5 -98 -17 -201 -63 -164 -74 -340 -131 -487 -159 -141 -26 -457 -32
-582 -10 -194 34 -421 110 -590 197 -87 45 -227 108 -215 97 34 -30 241 -187
297 -225 216 -146 496 -254 713 -272 107 -9 332 10 483 41 273 56 660 207 837
327 75 51 241 211 308 297 28 36 67 83 87 105 63 69 331 477 389 594 61 121
105 267 133 436 22 137 15 447 -16 679 -18 132 -26 233 -24 300 3 98 2 103
-29 156 -45 78 -121 159 -185 197 -62 38 -134 52 -161 31z"/>
<path d="M4112 5610 c-112 -12 -220 -41 -366 -100 -68 -28 -159 -57 -201 -65
-84 -16 -116 -35 -194 -115 -52 -53 -138 -166 -175 -231 -103 -179 -131 -427
-75 -660 39 -163 127 -304 186 -297 24 3 28 8 31 40 2 21 -10 82 -28 140 -38
129 -60 251 -60 337 1 183 64 345 173 447 104 98 196 161 322 223 203 100 339
135 530 135 424 -1 752 -196 885 -526 39 -100 54 -193 47 -302 -8 -117 -27
-189 -82 -303 -59 -122 -141 -220 -270 -327 -58 -48 -110 -97 -114 -109 -32
-84 98 -73 235 20 67 46 185 165 233 236 51 75 128 244 153 337 19 70 23 110
23 225 -1 129 -3 146 -29 215 -66 176 -181 346 -301 442 -146 118 -413 214
-645 233 -153 12 -197 13 -278 5z"/>
<path d="M6343 5352 c-25 -16 -33 -69 -33 -221 0 -190 -10 -236 -84 -375 -30
-56 -64 -130 -76 -166 -54 -166 -142 -519 -151 -603 -12 -115 -31 -175 -76
-234 -45 -59 -70 -81 -173 -153 -47 -32 -157 -118 -245 -190 -247 -202 -362
-270 -550 -325 -152 -44 -269 -57 -460 -52 -332 10 -598 99 -1005 337 -69 40
-154 89 -190 107 -36 19 -72 40 -80 46 -28 22 109 -128 177 -194 243 -234 424
-340 718 -422 395 -111 817 -76 1147 94 69 36 107 66 228 184 239 233 326 295
414 295 41 0 48 4 90 51 26 29 67 93 92 144 42 84 48 105 70 254 27 178 93
491 125 587 32 98 81 124 94 50 9 -46 -8 -167 -57 -411 -42 -213 -45 -279 -13
-315 10 -11 22 -20 27 -20 19 0 90 174 122 302 58 225 66 370 30 523 -8 37
-14 117 -14 205 -1 266 -25 419 -76 479 -27 33 -32 35 -51 23z"/>
<path d="M4075 5323 c-177 -38 -379 -157 -431 -255 -17 -34 -54 -242 -54 -308
0 -104 53 -66 135 95 93 182 190 263 375 312 87 23 262 23 349 -1 203 -55 361
-202 415 -385 18 -61 21 -184 5 -250 -38 -166 -197 -322 -388 -381 -228 -71
-469 39 -554 253 -29 72 -29 211 0 283 45 114 140 205 198 190 32 -8 32 -24
-4 -66 -61 -74 -76 -117 -76 -215 0 -73 4 -98 22 -131 26 -49 92 -110 142
-131 81 -35 215 -12 243 41 36 66 48 227 21 283 -30 63 -103 91 -151 57 -31
-22 -28 -77 5 -82 42 -6 38 -64 -6 -86 -34 -18 -74 -10 -102 20 -53 56 -23
243 45 285 46 28 129 26 194 -7 131 -65 177 -209 122 -380 -26 -81 -23 -104
16 -104 40 0 106 72 133 145 19 50 22 75 19 145 -5 108 -36 178 -113 259 -104
109 -205 145 -384 138 -136 -5 -195 -21 -278 -77 -72 -48 -132 -126 -191 -249
-59 -124 -72 -205 -49 -314 43 -212 190 -377 409 -459 77 -29 93 -32 213 -32
121 -1 134 1 185 25 120 58 340 260 409 376 71 119 95 206 95 348 0 105 -3
129 -26 193 -88 245 -297 415 -576 468 -94 18 -277 17 -367 -3z"/>
<path d="M6837 5313 c-14 -13 -6 -86 22 -215 50 -225 56 -279 55 -518 -1 -263
-19 -387 -84 -583 -52 -156 -102 -260 -211 -442 -148 -248 -287 -430 -363
-476 -64 -40 -105 -79 -166 -159 -99 -130 -219 -218 -444 -325 -170 -81 -296
-128 -465 -171 -215 -56 -299 -65 -601 -72 -275 -6 -275 -6 -200 -24 117 -28
266 -47 411 -54 364 -17 779 104 1109 324 169 112 255 194 286 273 43 109 114
170 114 97 0 -17 -12 -51 -26 -75 -14 -25 -24 -47 -21 -49 11 -11 70 54 104
114 20 37 80 132 134 212 293 439 434 787 494 1220 50 364 11 805 -80 904 -23
25 -54 34 -68 19z"/>
<path d="M5900 3414 c-65 -46 -323 -298 -335 -328 -9 -22 -10 -36 -3 -49 23
-44 126 13 265 146 118 114 169 207 131 245 -16 16 -17 15 -58 -14z"/>
</g>
</svg>
