<?xml version="1.0" standalone="no"?>
<!DOCTYPE svg PUBLIC "-//W3C//DTD SVG 20010904//EN"
 "http://www.w3.org/TR/2001/REC-SVG-20010904/DTD/svg10.dtd">
<svg version="1.0" xmlns="http://www.w3.org/2000/svg"
 width="1000.000000pt" height="1000.000000pt" viewBox="0 0 1000.000000 1000.000000"
 preserveAspectRatio="xMidYMid meet">
<metadata>
  <rdf:RDF
    xmlns:rdf = "http://www.w3.org/1999/02/22-rdf-syntax-ns#"
    xmlns:rdfs = "http://www.w3.org/2000/01/rdf-schema#"
    xmlns:dc = "http://purl.org/dc/elements/1.1/"
    xmlns:cc = "http://creativecommons.org/ns#">
    <cc:license rdf:resource="http://creativecommons.org/publicdomain/zero/1.0/deed.en"/>
    <cc:permits rdf:resource="http://creativecommons.org/ns#Reproduction"/>
    <rdf:Description about="https://nft.mir.one/fingerprints"
      dc:title="TON Fingerprints"
      dc:description="This is a unique digital fingerprint created based on the algorithm for generating basic rings using a noise texture. Like human fingerprints, you can now use it for the Web3 and Metaverse era as digital biometric information."
      dc:publisher="https://nft.mir.one"
      dc:date="2022-02-22"
      dc:format="image/svg+xml"
      dc:language="en" >
      <dc:creator>
      <rdf:Bag>
        <rdf:li>EQBondcvD2_aOFADXSWJHs4ZazQDuEl9_wNvGGPxI8hGuOFU</rdf:li>
        <rdf:li>ipfs://bafkreihj7iub3fhmhq6jn62noukt5wxn3gv6bvcg7wmt6ywvlurefezckq</rdf:li>
      </rdf:Bag>
      </dc:creator>
    </rdf:Description>
  </rdf:RDF>
</metadata>
<g transform="translate(0.000000,1000.000000) scale(0.100000,-0.100000)"
fill="#1b1f23" stroke="none">
<path d="M4943 7813 c9 -2 23 -2 30 0 6 3 -1 5 -18 5 -16 0 -22 -2 -12 -5z"/>
<path d="M4765 7795 c-52 -7 -73 -12 -50 -13 22 0 78 5 125 12 47 8 69 13 50
13 -19 0 -75 -5 -125 -12z"/>
<path d="M5195 7620 c-111 -12 -188 -27 -348 -66 -77 -19 -181 -36 -239 -40
-97 -7 -103 -9 -138 -40 -68 -61 -97 -68 -270 -66 -118 1 -177 -3 -245 -17
-49 -10 -80 -19 -67 -20 36 -2 144 -49 172 -75 14 -13 39 -31 56 -39 45 -23
49 -44 17 -90 -42 -60 -118 -115 -313 -226 -96 -55 -206 -125 -245 -156 -76
-60 -267 -261 -315 -330 -49 -71 -120 -226 -119 -259 0 -30 1 -30 13 10 38
122 165 283 239 303 26 6 63 33 110 78 82 77 127 103 184 103 32 0 60 14 153
76 62 41 160 98 216 125 110 52 124 65 226 209 54 76 118 132 191 168 72 34
84 36 101 10 24 -37 6 -81 -91 -219 -110 -158 -153 -238 -198 -369 -53 -152
-99 -257 -223 -510 -170 -347 -245 -557 -272 -755 -13 -105 -8 -181 27 -355
81 -406 250 -690 433 -729 28 -6 91 -35 141 -66 138 -83 265 -125 377 -125 66
0 102 12 102 34 0 23 -44 53 -170 115 -188 91 -236 141 -339 348 -55 109 -95
218 -116 308 -20 84 -55 403 -55 496 0 165 51 333 176 585 66 133 85 179 82
205 -2 27 -8 35 -26 37 -50 7 -154 -145 -245 -359 -100 -235 -132 -392 -124
-614 9 -258 60 -451 183 -696 61 -123 77 -180 53 -195 -17 -10 -89 68 -148
161 -172 274 -250 685 -186 990 43 211 214 602 327 750 128 167 148 195 205
290 104 174 355 554 396 601 51 58 141 122 247 175 80 40 520 191 542 186 6
-1 13 4 15 11 3 7 -11 19 -34 29 -45 19 -326 27 -458 13z"/>
<path d="M5764 7591 c-41 -10 -54 -19 -54 -37 0 -21 20 -17 69 16 44 30 42 34
-15 21z"/>
<path d="M4265 7558 c-67 -12 -76 -24 -29 -37 42 -12 162 -15 188 -5 24 9 19
29 -9 42 -30 14 -79 14 -150 0z"/>
<path d="M5540 7355 c-147 -53 -306 -129 -372 -179 -60 -46 -112 -114 -133
-174 -35 -100 -59 -138 -162 -258 -211 -246 -297 -376 -314 -471 -20 -110 -41
-168 -109 -298 -78 -149 -114 -243 -141 -370 -51 -243 8 -331 96 -140 19 42
30 86 35 145 9 100 35 164 111 277 192 288 340 425 472 440 34 4 61 -3 137
-35 52 -22 129 -54 170 -71 165 -68 331 -183 411 -284 23 -28 56 -81 74 -117
18 -36 75 -130 125 -210 106 -168 237 -426 274 -537 130 -389 58 -851 -192
-1238 -59 -92 -100 -143 -197 -243 -111 -116 -229 -202 -370 -272 -174 -85
-334 -130 -596 -169 -131 -19 -174 -34 -193 -63 -16 -26 3 -50 50 -67 49 -18
258 -19 369 -2 201 31 430 106 573 190 109 63 259 187 340 281 141 164 292
425 360 621 91 259 116 612 62 853 -32 144 -172 417 -362 708 -115 176 -132
220 -89 226 18 3 39 -12 90 -65 78 -80 155 -193 270 -395 46 -80 105 -172 132
-205 27 -32 58 -82 69 -111 65 -170 75 -515 24 -832 -32 -201 -128 -429 -294
-695 -102 -163 -141 -214 -254 -329 -148 -150 -272 -223 -515 -300 -285 -90
-585 -118 -767 -70 -32 8 -92 30 -134 49 -41 19 -150 58 -240 88 -298 98 -473
190 -892 469 -117 78 -236 153 -263 167 -51 26 -51 26 49 -94 191 -230 331
-355 566 -506 326 -208 650 -326 990 -360 218 -22 410 1 785 92 297 72 364 94
438 143 47 31 59 45 68 79 18 72 51 127 102 173 53 47 83 60 121 50 50 -12 41
-36 -49 -126 -48 -47 -91 -94 -97 -103 -15 -27 -2 -47 30 -47 58 0 168 93 212
180 11 22 55 78 96 123 168 182 287 404 414 772 28 83 65 174 82 204 30 54 30
54 3 32 -15 -11 -36 -21 -46 -21 -25 0 -44 -31 -85 -140 -125 -328 -260 -571
-395 -708 -65 -66 -104 -88 -126 -71 -27 23 -7 77 86 223 147 234 242 441 275
596 24 118 48 618 36 775 -5 72 -12 146 -15 165 -3 19 -10 99 -15 177 -15 211
-74 372 -216 592 -129 197 -221 297 -419 453 -173 137 -235 210 -220 259 9 27
22 24 69 -14 23 -19 107 -78 188 -131 212 -140 268 -196 407 -406 186 -282
268 -458 310 -668 50 -247 65 -578 35 -782 -27 -187 -18 -286 24 -278 19 4 26
28 68 228 62 289 38 732 -56 1050 -44 147 -100 260 -218 438 -85 128 -102 160
-102 192 0 21 5 42 11 45 18 12 185 -180 279 -320 99 -148 140 -206 140 -202
0 13 -76 180 -129 285 -95 186 -184 282 -261 282 -29 0 -56 14 -136 71 -186
133 -379 230 -530 264 -83 20 -99 33 -109 88 -15 91 -3 120 69 162 100 58 266
68 455 26 101 -23 177 -33 165 -22 -26 24 -175 117 -227 143 -145 72 -222 82
-362 49 -79 -19 -133 -40 -313 -120 -138 -61 -283 -102 -383 -108 -79 -5 -88
-4 -107 15 -16 16 -19 27 -13 44 16 43 267 168 511 253 113 39 249 70 375 84
50 6 115 16 146 23 56 12 56 12 -70 54 -138 46 -281 74 -375 73 -46 0 -92 -11
-186 -44z m33 -768 c58 -26 83 -49 181 -165 68 -80 133 -139 321 -289 132
-105 236 -216 318 -339 105 -158 197 -367 197 -449 0 -12 -6 -30 -14 -40 -22
-30 -36 -11 -119 158 -135 273 -278 458 -413 536 -111 64 -160 99 -280 198
-234 194 -311 231 -527 248 -61 5 -79 11 -87 25 -18 34 11 79 70 111 84 44
263 47 353 6z"/>
<path d="M3932 7230 c-112 -40 -274 -152 -427 -294 -60 -55 -60 -55 70 15 72
38 182 95 245 125 63 30 136 69 162 85 50 32 69 66 47 80 -20 13 -38 11 -97
-11z"/>
<path d="M6013 6810 c-55 -12 -100 -36 -113 -60 -15 -27 8 -35 135 -50 166
-18 291 -66 560 -214 72 -39 154 -81 182 -92 53 -22 53 -22 -50 89 -119 129
-225 222 -295 260 -101 55 -316 89 -419 67z"/>
<path d="M4081 6778 c-29 -10 -175 -124 -218 -169 -51 -55 -134 -203 -311
-558 -166 -332 -220 -420 -272 -436 -28 -9 -96 49 -111 93 -17 51 -6 185 21
257 13 33 55 110 95 170 99 149 155 258 155 300 0 77 -50 29 -145 -140 -33
-58 -79 -129 -101 -157 -47 -56 -74 -130 -98 -259 -14 -73 -15 -135 -6 -474 9
-407 17 -484 64 -665 30 -116 75 -236 151 -400 32 -69 70 -163 86 -210 35
-100 66 -149 122 -185 38 -26 41 -27 54 -9 26 36 16 70 -109 363 -154 361
-194 499 -205 716 -6 126 15 303 48 391 11 30 39 77 62 105 95 114 126 169
286 494 223 454 272 535 321 535 32 0 25 -27 -46 -171 -86 -174 -228 -474
-269 -569 -18 -41 -62 -138 -98 -215 -69 -149 -149 -347 -173 -430 -32 -115
-12 -307 53 -510 76 -235 274 -650 353 -738 98 -109 252 -208 420 -270 134
-50 229 -67 368 -67 282 0 522 82 730 249 367 295 539 644 501 1014 -25 242
-143 486 -310 641 -117 109 -233 157 -374 157 -49 0 -106 -5 -127 -10 -29 -7
-42 -5 -65 10 -41 27 -100 24 -165 -8 -84 -43 -216 -143 -261 -198 -23 -27
-62 -73 -88 -102 -53 -59 -69 -107 -69 -211 0 -134 35 -264 109 -406 80 -154
195 -258 375 -340 127 -58 169 -68 264 -64 110 4 164 29 248 112 128 128 161
268 110 467 -48 184 -116 293 -218 343 -104 52 -234 25 -311 -64 -56 -66 -62
-153 -14 -197 34 -32 61 -36 88 -14 20 17 22 22 11 38 -23 34 -24 44 -7 62 37
42 116 29 152 -25 63 -97 -47 -222 -187 -212 -70 5 -118 34 -160 97 -64 95
-50 224 39 340 35 46 152 126 213 147 193 64 414 -88 516 -353 136 -352 18
-712 -305 -933 -90 -62 -89 -61 -97 -112 -9 -58 -72 -120 -170 -168 -309 -152
-703 -100 -1004 132 -147 114 -289 331 -402 615 -92 236 -137 522 -89 579 32
39 53 -4 88 -181 37 -186 76 -307 147 -454 132 -276 294 -444 537 -556 170
-79 401 -102 568 -57 130 35 301 122 296 151 -4 27 -52 51 -113 57 -56 6 -68
3 -143 -31 -65 -29 -100 -38 -160 -42 -180 -13 -420 76 -625 229 -125 94 -241
272 -315 481 -42 119 -141 519 -141 568 0 145 108 447 311 871 60 125 106 234
115 275 8 38 29 111 46 164 41 128 28 173 -41 147z m873 -1193 c11 -31 -18
-71 -130 -178 -96 -92 -120 -121 -152 -185 -36 -73 -37 -80 -37 -182 0 -99 2
-110 32 -171 40 -81 121 -160 200 -197 47 -21 73 -26 133 -26 89 0 136 19 224
88 93 72 127 59 99 -38 -20 -68 -99 -145 -178 -175 -51 -20 -73 -22 -148 -18
-79 4 -98 9 -174 47 -193 96 -313 287 -313 500 0 144 52 252 177 372 54 51
234 178 253 178 4 0 10 -7 14 -15z"/>
<path d="M3636 6587 c-34 -35 -72 -84 -83 -108 -12 -24 -40 -84 -62 -134 -23
-49 -74 -147 -112 -217 -90 -162 -126 -247 -141 -336 -9 -56 -9 -76 0 -98 13
-27 13 -27 37 -4 13 12 40 61 61 109 47 111 259 534 336 674 63 113 77 168 45
175 -12 2 -40 -19 -81 -61z"/>
<path d="M4950 6047 c-78 -27 -154 -76 -243 -157 -115 -106 -215 -248 -200
-287 11 -27 49 -11 147 64 116 88 170 115 287 144 105 27 240 22 339 -11 237
-79 463 -329 595 -657 185 -460 65 -951 -324 -1325 -168 -162 -312 -248 -531
-319 -219 -70 -439 -99 -600 -80 -219 27 -499 158 -724 340 -138 112 -136 111
-187 111 -40 0 -71 12 -176 66 -148 77 -145 75 -254 174 -83 75 -83 75 -54 25
82 -141 174 -263 262 -346 21 -20 97 -73 168 -116 72 -44 186 -116 255 -160
286 -184 530 -286 738 -308 65 -6 51 -9 552 111 301 72 511 184 701 373 388
387 528 908 373 1386 -61 186 -235 492 -391 685 -193 240 -510 364 -733 287z"/>
<path d="M2921 5330 c-2 -88 20 -397 35 -500 43 -306 163 -633 265 -725 45
-40 82 -44 87 -9 2 11 -40 103 -92 205 -163 318 -215 497 -276 944 -10 75 -18
111 -19 85z"/>
<path d="M3465 3105 c17 -15 111 -103 211 -195 220 -205 249 -230 342 -291
297 -195 914 -280 1332 -185 196 45 428 140 469 192 20 25 20 28 5 46 -27 29
-99 22 -288 -27 -237 -61 -324 -75 -526 -82 -286 -10 -558 27 -805 108 -119
40 -240 109 -415 239 -96 71 -215 150 -265 176 -74 37 -85 41 -60 19z"/>
<path d="M6220 2769 c-41 -16 -78 -29 -82 -29 -14 0 -130 -72 -165 -103 -20
-18 -43 -48 -51 -67 -48 -116 -218 -226 -461 -296 -138 -40 -202 -45 -546 -46
-247 -1 -307 -3 -240 -9 50 -5 194 -9 320 -10 200 -1 243 1 331 20 132 27 238
62 351 116 109 51 159 84 275 181 48 40 143 114 210 165 126 94 145 109 138
108 -3 0 -39 -13 -80 -30z"/>
</g>
</svg>
