<?xml version="1.0" standalone="no"?>
<!DOCTYPE svg PUBLIC "-//W3C//DTD SVG 20010904//EN"
 "http://www.w3.org/TR/2001/REC-SVG-20010904/DTD/svg10.dtd">
<svg version="1.0" xmlns="http://www.w3.org/2000/svg"
 width="1000.000000pt" height="1000.000000pt" viewBox="0 0 1000.000000 1000.000000"
 preserveAspectRatio="xMidYMid meet">
<metadata>
  <rdf:RDF
    xmlns:rdf = "http://www.w3.org/1999/02/22-rdf-syntax-ns#"
    xmlns:rdfs = "http://www.w3.org/2000/01/rdf-schema#"
    xmlns:dc = "http://purl.org/dc/elements/1.1/"
    xmlns:cc = "http://creativecommons.org/ns#">
    <cc:license rdf:resource="http://creativecommons.org/publicdomain/zero/1.0/deed.en"/>
    <cc:permits rdf:resource="http://creativecommons.org/ns#Reproduction"/>
    <rdf:Description about="https://nft.mir.one/fingerprints"
      dc:title="TON Fingerprints"
      dc:description="This is a unique digital fingerprint created based on the algorithm for generating basic rings using a noise texture. Like human fingerprints, you can now use it for the Web3 and Metaverse era as digital biometric information."
      dc:publisher="https://nft.mir.one"
      dc:date="2022-02-22"
      dc:format="image/svg+xml"
      dc:language="en" >
      <dc:creator>
      <rdf:Bag>
        <rdf:li>EQBondcvD2_aOFADXSWJHs4ZazQDuEl9_wNvGGPxI8hGuOFU</rdf:li>
        <rdf:li>ipfs://bafkreihj7iub3fhmhq6jn62noukt5wxn3gv6bvcg7wmt6ywvlurefezckq</rdf:li>
      </rdf:Bag>
      </dc:creator>
    </rdf:Description>
  </rdf:RDF>
</metadata>
<g transform="translate(0.000000,1000.000000) scale(0.100000,-0.100000)"
fill="#1b1f23" stroke="none">
<path d="M5035 7673 c-86 -7 -258 -37 -430 -73 -99 -21 -209 -41 -244 -45 -84
-8 -133 -26 -261 -90 -122 -61 -345 -190 -314 -181 12 4 50 12 85 20 35 7 107
29 160 49 140 53 227 74 374 93 72 8 245 38 385 65 384 74 459 82 700 76 179
-6 268 -13 369 -32 52 -10 -117 46 -212 71 -154 39 -279 54 -432 52 -77 -1
-158 -3 -180 -5z"/>
<path d="M5315 7470 c-103 -9 -866 -160 -995 -196 -125 -36 -258 -89 -389
-156 -64 -32 -140 -65 -169 -72 -28 -8 -73 -26 -100 -42 -45 -26 -294 -262
-333 -316 -17 -23 -11 -21 49 17 37 24 121 84 187 134 133 99 209 146 225 136
13 -8 13 -51 -1 -78 -6 -12 -80 -92 -164 -177 -169 -173 -221 -241 -294 -386
-129 -255 -177 -530 -136 -779 41 -254 127 -429 298 -612 51 -55 135 -160 187
-234 205 -290 391 -434 744 -575 213 -85 332 -106 490 -85 224 30 422 128 593
294 181 175 263 359 263 587 0 352 -227 661 -565 769 -305 98 -589 51 -757
-127 -78 -83 -107 -133 -164 -281 -24 -63 -52 -124 -63 -135 -11 -12 -23 -34
-27 -51 -14 -60 -45 -70 -112 -36 -69 36 -128 122 -151 221 -38 164 28 415
166 637 135 216 302 413 419 494 74 51 227 118 331 146 90 24 114 27 293 27
174 0 209 -3 322 -27 140 -30 295 -81 363 -121 51 -30 256 -217 435 -396 116
-116 207 -233 270 -347 17 -30 30 -43 45 -43 34 0 87 -40 122 -93 94 -140 126
-399 84 -669 -11 -68 -25 -202 -31 -298 -14 -213 -36 -341 -91 -525 -62 -208
-88 -311 -100 -389 -13 -85 -49 -166 -117 -261 -179 -252 -428 -434 -932 -686
-351 -175 -469 -216 -804 -279 -251 -47 -286 -57 -351 -100 -27 -18 -41 -29
-30 -25 11 4 140 11 286 16 261 8 407 23 519 55 57 16 692 331 864 428 244
138 379 268 596 572 49 68 110 139 160 184 44 40 90 87 102 104 22 31 22 31
-3 10 -36 -33 -146 -85 -163 -78 -25 10 -19 35 43 186 131 314 184 567 212
998 22 358 -17 621 -120 805 -42 75 -223 306 -329 420 -91 98 -188 184 -319
282 -132 98 -161 130 -139 151 31 32 199 -48 362 -173 159 -122 378 -369 486
-548 55 -90 128 -239 164 -332 33 -87 29 -47 -10 97 -89 322 -245 630 -393
772 -84 82 -223 178 -338 235 -113 56 -149 67 -267 82 -46 6 -164 30 -263 54
-335 82 -617 116 -809 96 -404 -41 -707 -235 -962 -616 -89 -135 -149 -260
-202 -425 -66 -209 -85 -296 -79 -367 11 -117 91 -277 201 -400 23 -26 59 -73
78 -104 59 -93 385 -327 545 -392 150 -61 321 -77 453 -43 247 63 406 238 460
506 28 134 23 206 -19 295 -122 262 -494 362 -745 201 -108 -69 -235 -249
-252 -356 -8 -49 10 -90 39 -90 29 0 62 35 122 130 148 236 348 313 561 216
102 -47 194 -162 194 -242 0 -57 -20 -51 -93 30 -38 42 -88 87 -111 101 -170
100 -374 8 -433 -194 -13 -47 -14 -63 -4 -101 39 -146 245 -188 344 -71 46 55
48 122 5 168 -28 30 -47 29 -73 -3 -39 -49 -90 -5 -65 56 13 31 63 60 102 60
95 -1 208 -130 208 -238 0 -175 -219 -318 -432 -283 -138 23 -266 104 -340
215 -22 33 -64 85 -92 114 -49 50 -51 55 -50 105 2 102 115 321 218 422 107
105 238 155 407 155 192 0 340 -61 476 -196 64 -62 91 -98 118 -155 92 -194
84 -408 -23 -614 -44 -85 -197 -242 -285 -294 -32 -19 -104 -50 -160 -69 -300
-103 -649 -9 -992 265 -112 90 -184 168 -315 343 -117 157 -173 249 -235 388
-29 64 -71 149 -94 187 -71 119 -91 233 -71 400 28 230 123 443 290 645 109
132 345 384 399 426 159 125 429 220 821 289 103 18 189 40 257 66 139 52 250
66 421 50 295 -28 493 -101 380 -140 -25 -9 -68 -6 -202 11 -211 27 -465 31
-511 8 -41 -21 -45 -54 -7 -74 31 -16 479 -68 727 -85 182 -12 284 -44 453
-139 76 -43 212 -108 197 -94 -190 174 -297 261 -420 340 -55 36 -127 91 -160
122 -146 139 -423 214 -700 190z m-1212 -2605 c-4 -15 -36 -12 -41 3 -3 9 3
13 19 10 13 -1 23 -7 22 -13z"/>
<path d="M4875 7063 c-270 -35 -546 -140 -725 -274 -95 -71 -285 -268 -372
-383 -180 -240 -270 -470 -272 -696 -1 -142 15 -190 65 -190 31 0 55 52 89
194 73 303 194 523 413 752 198 207 388 319 662 390 102 27 123 29 290 28 150
0 215 -6 395 -33 303 -46 644 -115 765 -155 169 -57 384 -175 510 -281 33 -27
74 -59 90 -69 17 -10 43 -30 59 -45 24 -21 21 -15 -14 34 -171 237 -320 379
-486 463 -164 83 -290 112 -749 172 -195 26 -351 52 -421 70 -107 29 -200 36
-299 23z"/>
<path d="M5065 6474 c-184 -18 -362 -84 -502 -188 -96 -70 -154 -164 -123
-200 14 -18 91 11 229 86 183 100 246 128 316 143 251 53 591 -35 830 -215
104 -78 243 -216 314 -310 77 -104 129 -207 196 -395 64 -177 81 -212 108
-221 50 -16 52 53 8 257 -18 79 -39 167 -48 194 -51 163 -180 328 -419 535
-208 180 -346 249 -589 294 -86 15 -255 26 -320 20z"/>
<path d="M4998 6210 c-88 -14 -145 -50 -132 -83 9 -23 24 -26 180 -37 321 -23
550 -124 760 -334 148 -148 233 -292 368 -624 107 -261 123 -368 71 -459 -16
-26 -64 -115 -107 -198 -142 -269 -225 -362 -523 -588 -186 -141 -295 -201
-440 -242 -188 -54 -602 -146 -703 -157 -186 -19 -408 15 -722 111 -91 28
-233 72 -317 96 -83 25 -171 54 -195 65 -24 11 -56 20 -71 20 -16 0 -38 5 -49
11 -11 6 15 -30 58 -81 85 -98 157 -151 239 -175 28 -8 124 -37 215 -65 310
-94 491 -133 705 -150 145 -12 214 -3 400 53 137 41 215 60 542 131 183 40
243 76 356 209 33 39 90 85 180 144 278 183 410 358 498 661 25 85 42 98 77
57 23 -28 24 -34 19 -124 -3 -66 -13 -119 -30 -168 -48 -137 -83 -190 -206
-314 -134 -133 -171 -161 -261 -188 -110 -34 -230 -122 -230 -168 0 -20 5 -23
35 -23 40 0 81 19 169 79 83 56 113 37 61 -40 -42 -60 -135 -119 -245 -154
-30 -10 -104 -38 -165 -64 -110 -45 -110 -45 -255 -46 -139 -1 -152 -3 -321
-48 -192 -50 -257 -75 -277 -108 -35 -55 76 -70 248 -35 47 10 152 40 235 67
82 27 155 47 162 44 24 -8 13 -38 -26 -75 -46 -44 -152 -90 -283 -125 -180
-46 -284 -42 -365 15 -47 34 -104 48 -378 91 -326 51 -428 76 -690 171 -181
65 -223 78 -263 78 -34 0 -34 0 15 -37 163 -126 258 -195 291 -212 108 -54
299 -102 562 -140 196 -28 244 -41 264 -73 23 -37 -4 -43 -197 -42 -189 1
-296 14 -447 55 -69 19 -256 88 -340 125 -28 12 -32 13 -20 1 18 -17 151 -122
200 -158 60 -45 202 -117 285 -145 73 -25 93 -27 230 -27 164 0 203 6 334 58
72 28 113 36 241 50 309 32 475 91 719 255 64 42 170 108 236 145 237 134 297
186 412 355 116 171 176 230 218 214 53 -21 -105 -294 -260 -449 -97 -98 -180
-157 -435 -310 -325 -194 -515 -275 -765 -325 -60 -12 -200 -41 -310 -65 -232
-51 -348 -63 -570 -60 -160 3 -160 3 -36 -41 287 -102 403 -106 772 -26 342
75 513 135 779 275 398 208 624 371 774 559 119 149 176 287 176 430 0 52 11
101 50 223 82 257 99 379 81 564 -18 172 -27 206 -75 265 -23 28 -55 73 -70
99 -16 26 -46 69 -68 95 -40 48 -102 168 -178 345 -167 387 -500 672 -878 751
-90 19 -244 27 -314 16z"/>
<path d="M4635 6023 c-64 -13 -118 -12 -187 3 -23 5 -37 -5 -108 -73 -133
-126 -218 -263 -262 -420 -25 -90 -29 -216 -9 -278 27 -81 88 -133 105 -89 3
9 6 37 6 64 0 174 80 364 206 486 161 158 445 196 793 108 343 -87 593 -337
703 -704 13 -42 22 -109 25 -190 5 -107 2 -138 -16 -210 -60 -239 -229 -461
-476 -627 -193 -130 -438 -206 -665 -207 -115 -1 -115 -1 -192 42 -43 23 -146
69 -230 101 -429 164 -572 282 -774 640 -95 167 -156 223 -185 170 -15 -29 -1
-80 68 -254 31 -77 64 -164 74 -194 29 -83 63 -134 131 -196 155 -140 410
-256 713 -324 151 -34 170 -43 155 -71 -40 -75 -335 -39 -627 76 -139 54 -256
115 -411 213 -63 39 -141 86 -175 102 -74 38 -165 123 -195 181 -11 24 -24 63
-27 88 -4 25 -20 114 -36 197 -36 189 -39 312 -9 361 21 34 46 39 61 12 4 -8
17 -82 29 -165 40 -285 90 -435 166 -505 45 -41 71 -49 92 -28 20 20 14 52
-27 160 -59 155 -71 203 -82 323 -7 79 -17 124 -34 160 -28 59 -37 70 -91 112
-26 21 -44 45 -52 70 -17 57 -50 257 -58 348 -3 44 -12 107 -20 140 -8 33 -14
76 -15 95 -1 35 -1 35 -10 -1 -9 -42 -34 -679 -32 -844 1 -60 11 -168 22 -239
12 -70 20 -162 19 -205 -1 -66 3 -86 31 -153 40 -96 132 -243 188 -303 69 -72
309 -181 626 -284 214 -69 352 -95 502 -94 104 0 144 6 295 41 96 22 231 52
299 67 245 53 409 123 590 253 123 88 279 237 354 337 68 92 168 291 193 385
46 171 0 400 -136 670 -60 120 -112 192 -209 293 -180 187 -374 279 -674 323
-62 8 -146 24 -189 35 -88 22 -135 22 -233 2z"/>
<path d="M6531 5621 c-17 -30 -13 -102 10 -214 17 -84 20 -123 15 -222 -6
-131 2 -188 32 -218 28 -27 56 -9 79 50 26 69 23 277 -6 388 -22 84 -88 226
-108 232 -6 3 -16 -5 -22 -16z"/>
<path d="M7071 5334 c0 -11 3 -14 6 -6 3 7 2 16 -1 19 -3 4 -6 -2 -5 -13z"/>
<path d="M6479 2993 c-24 -28 -24 -28 4 -4 15 14 27 26 27 28 0 8 -8 1 -31
-24z"/>
<path d="M6429 2943 c-13 -16 -12 -17 4 -4 16 13 21 21 13 21 -2 0 -10 -8 -17
-17z"/>
<path d="M6350 2890 c-58 -40 -574 -301 -793 -401 -150 -69 -202 -103 -242
-156 -16 -21 -36 -43 -45 -50 -19 -15 -146 -50 -270 -74 -95 -19 -95 -19 -20
-13 41 3 131 14 200 24 69 10 139 16 155 14 17 -2 24 -1 18 2 -15 7 -17 44 -3
44 6 0 10 6 10 13 0 24 33 45 150 92 333 134 743 375 874 514 37 39 34 38 -34
-9z"/>
<path d="M4828 2183 c7 -3 16 -2 19 1 4 3 -2 6 -13 5 -11 0 -14 -3 -6 -6z"/>
</g>
</svg>
