<?xml version="1.0" standalone="no"?>
<!DOCTYPE svg PUBLIC "-//W3C//DTD SVG 20010904//EN"
 "http://www.w3.org/TR/2001/REC-SVG-20010904/DTD/svg10.dtd">
<svg version="1.0" xmlns="http://www.w3.org/2000/svg"
 width="1000.000000pt" height="1000.000000pt" viewBox="0 0 1000.000000 1000.000000"
 preserveAspectRatio="xMidYMid meet">
<metadata>
  <rdf:RDF
    xmlns:rdf = "http://www.w3.org/1999/02/22-rdf-syntax-ns#"
    xmlns:rdfs = "http://www.w3.org/2000/01/rdf-schema#"
    xmlns:dc = "http://purl.org/dc/elements/1.1/"
    xmlns:cc = "http://creativecommons.org/ns#">
    <cc:license rdf:resource="http://creativecommons.org/publicdomain/zero/1.0/deed.en"/>
    <cc:permits rdf:resource="http://creativecommons.org/ns#Reproduction"/>
    <rdf:Description about="https://nft.mir.one/fingerprints"
      dc:title="TON Fingerprints"
      dc:description="This is a unique digital fingerprint created based on the algorithm for generating basic rings using a noise texture. Like human fingerprints, you can now use it for the Web3 and Metaverse era as digital biometric information."
      dc:publisher="https://nft.mir.one"
      dc:date="2022-02-22"
      dc:format="image/svg+xml"
      dc:language="en" >
      <dc:creator>
      <rdf:Bag>
        <rdf:li>EQBondcvD2_aOFADXSWJHs4ZazQDuEl9_wNvGGPxI8hGuOFU</rdf:li>
        <rdf:li>ipfs://bafkreihj7iub3fhmhq6jn62noukt5wxn3gv6bvcg7wmt6ywvlurefezckq</rdf:li>
      </rdf:Bag>
      </dc:creator>
    </rdf:Description>
  </rdf:RDF>
</metadata>
<g transform="translate(0.000000,1000.000000) scale(0.100000,-0.100000)"
fill="#1b1f23" stroke="none">
<path d="M4750 7674 c-78 -16 -415 -180 -602 -291 -248 -148 -454 -320 -525
-438 -20 -33 -84 -107 -143 -165 -110 -109 -210 -247 -300 -415 -46 -85 -44
-87 11 -15 48 63 216 269 248 304 37 41 101 86 121 86 48 0 31 -52 -69 -213
-39 -62 -85 -143 -103 -182 -29 -63 -33 -78 -31 -150 2 -100 20 -159 50 -163
28 -4 54 36 84 128 12 36 51 124 87 195 110 218 119 238 151 336 17 52 45 118
61 147 69 119 259 287 530 467 308 205 512 305 621 305 47 0 54 -11 34 -49
-17 -34 -64 -68 -180 -131 -140 -76 -284 -167 -369 -234 -97 -76 -392 -383
-475 -496 -68 -92 -242 -375 -331 -540 -34 -63 -79 -138 -99 -165 -68 -90 -83
-131 -106 -290 -46 -313 28 -755 163 -973 84 -137 462 -508 625 -614 110 -71
358 -93 542 -47 109 27 209 85 244 143 22 34 28 81 12 90 -5 3 -42 -11 -82
-30 -198 -97 -441 -79 -617 44 -54 37 -54 37 -55 97 -2 57 -6 66 -86 188 -151
233 -208 383 -218 577 -8 149 6 192 148 468 125 244 134 272 82 272 -57 0
-128 -82 -220 -253 -62 -116 -78 -137 -105 -137 -29 0 -33 28 -15 99 49 186
171 345 326 425 118 61 187 79 253 65 64 -14 95 -9 198 34 192 81 446 89 665
20 358 -112 622 -447 628 -798 2 -96 0 -103 -35 -180 -20 -44 -53 -138 -73
-210 -35 -123 -107 -319 -126 -339 -28 -31 30 -36 77 -7 72 44 119 139 165
333 37 157 47 188 64 188 68 0 43 -252 -45 -464 -39 -94 -69 -131 -112 -140
-18 -3 -48 -16 -66 -29 -38 -25 -319 -370 -415 -510 -44 -64 -83 -108 -137
-150 -302 -241 -560 -328 -925 -314 -248 10 -404 48 -737 179 -182 71 -278
125 -373 209 -27 25 -70 60 -94 79 -44 34 -44 34 -16 -11 169 -268 265 -374
401 -442 94 -47 344 -131 464 -156 303 -64 672 -50 938 34 76 24 91 34 167
103 92 85 317 230 418 268 161 62 271 149 390 309 90 121 131 213 198 443 87
302 103 395 96 567 -9 235 -27 433 -48 513 -43 169 -140 326 -303 488 -234
232 -389 295 -811 330 -328 27 -478 8 -661 -81 -216 -105 -409 -292 -517 -503
-75 -144 -93 -256 -62 -372 8 -30 19 -120 25 -200 5 -80 16 -178 25 -218 50
-241 163 -441 359 -636 75 -75 96 -100 85 -107 -58 -37 -173 36 -306 192 -198
235 -279 425 -319 754 -22 177 -15 403 14 495 64 195 277 510 470 691 146 139
260 203 388 219 43 5 119 15 167 21 87 12 88 12 115 -13 58 -55 83 -61 297
-69 306 -13 421 -35 550 -109 117 -67 302 -238 427 -395 134 -169 247 -385
256 -490 3 -38 0 -76 -8 -97 -8 -20 -13 -103 -15 -218 -4 -242 -41 -482 -115
-752 -82 -300 -169 -465 -338 -640 -110 -114 -179 -160 -471 -314 -256 -135
-288 -160 -246 -190 51 -38 219 14 440 137 333 184 550 439 679 799 44 121 85
292 117 490 31 191 50 245 85 245 18 0 19 -7 16 -95 -10 -308 -91 -638 -220
-895 -70 -140 -157 -261 -272 -375 -121 -121 -250 -216 -400 -294 -176 -91
-295 -125 -490 -141 -41 -4 -156 -20 -255 -36 -390 -63 -607 -65 -890 -8 -132
27 -349 98 -455 150 -47 23 -114 52 -150 65 -65 23 -65 23 60 -99 128 -125
261 -224 341 -253 70 -25 264 -62 394 -75 200 -20 362 -8 749 57 260 43 375
68 496 106 263 84 561 275 736 473 246 278 415 695 453 1120 16 172 -3 271
-61 321 -21 18 -26 36 -37 120 -6 54 -20 142 -30 194 -20 103 -19 120 11 120
56 0 104 -99 164 -337 52 -205 61 -304 45 -458 -46 -426 -197 -824 -418 -1099
-200 -251 -517 -466 -842 -572 -169 -55 -507 -126 -856 -180 -227 -35 -501
-20 -767 42 -58 14 -123 24 -144 22 -37 -3 -37 -3 68 -65 241 -144 407 -203
567 -203 111 0 180 10 346 50 66 15 212 47 325 69 604 120 942 278 1263 590
217 211 345 429 456 775 88 275 124 497 124 761 1 357 -40 496 -253 858 -183
313 -240 389 -556 748 -255 291 -259 293 -447 306 -155 10 -473 -36 -638 -92
-40 -14 -79 -23 -86 -21 -39 15 12 97 88 143 112 67 341 139 614 193 61 12
191 42 290 67 162 40 195 45 325 49 80 3 160 8 179 12 33 7 30 9 -101 70 -76
35 -179 74 -233 87 -145 37 -206 34 -404 -21 -363 -99 -564 -187 -838 -365
-175 -114 -243 -136 -243 -79 0 84 152 205 510 405 237 133 276 150 475 200
215 54 240 66 274 133 12 23 12 23 -13 7 -29 -20 -47 -20 -386 -11 -227 7
-272 10 -312 27 -55 22 -134 24 -228 3z m1128 -3197 c7 -80 -102 -257 -255
-417 -100 -105 -154 -143 -175 -122 -18 18 8 63 98 167 95 110 172 213 244
327 60 96 83 107 88 45z"/>
<path d="M5997 7020 c-79 -13 -144 -43 -159 -75 -16 -35 11 -71 83 -108 48
-25 60 -28 104 -21 28 5 88 8 135 8 74 0 95 -4 164 -34 100 -42 243 -137 293
-194 27 -31 46 -67 65 -130 32 -101 95 -213 192 -341 38 -49 71 -92 73 -95 3
-3 -44 93 -104 214 -98 198 -108 223 -106 269 1 50 -1 54 -66 132 -147 174
-287 292 -416 351 -63 29 -164 38 -258 24z"/>
<path d="M6035 6729 c-4 -6 -4 -26 0 -45 4 -26 34 -64 121 -156 196 -205 279
-318 429 -578 151 -262 210 -409 240 -590 29 -183 16 -558 -30 -822 -36 -207
-149 -575 -231 -756 -134 -293 -434 -592 -790 -787 -239 -130 -459 -202 -854
-281 -276 -54 -312 -64 -413 -117 -80 -42 -80 -42 -321 -40 -241 3 -241 3 -96
-48 195 -68 457 -136 577 -150 191 -23 498 3 720 60 442 114 866 400 1166 785
72 94 193 273 242 361 35 62 30 58 -31 -25 -72 -99 -284 -339 -366 -415 -307
-284 -662 -482 -1051 -585 -220 -57 -444 -90 -624 -90 -110 0 -157 10 -167 36
-12 31 -2 33 370 89 327 48 596 130 845 256 395 200 720 502 877 815 42 84
153 421 202 617 59 233 97 540 107 857 10 328 -34 552 -162 817 -67 140 -259
462 -322 538 -120 148 -403 312 -438 254z"/>
<path d="M3221 6125 c-22 -29 -69 -217 -103 -412 -18 -103 -22 -169 -23 -333
0 -240 6 -267 112 -537 66 -169 80 -240 53 -268 -8 -8 -20 -11 -26 -7 -14 8
-159 253 -201 337 -17 33 -36 78 -43 100 -7 22 -17 45 -21 51 -14 17 -49 124
-50 153 -1 16 -3 19 -6 9 -7 -25 24 -243 47 -332 23 -91 104 -266 145 -314 15
-18 48 -44 74 -57 58 -29 75 -49 140 -158 29 -48 78 -122 110 -165 97 -132
119 -166 131 -212 15 -56 29 -72 100 -115 247 -150 706 -204 1032 -121 174 44
352 144 477 268 129 128 481 577 481 613 0 8 -4 17 -10 20 -19 11 -10 106 20
232 103 420 103 531 4 733 -39 77 -62 109 -128 175 -140 138 -284 203 -475
213 -226 11 -346 -54 -481 -259 -154 -234 -224 -464 -200 -657 17 -132 59
-239 136 -341 73 -97 142 -145 317 -221 71 -31 102 -50 110 -67 16 -36 -3 -42
-90 -27 -212 37 -327 101 -430 239 -134 178 -198 399 -174 594 15 118 41 198
143 436 70 163 91 224 95 270 4 48 2 63 -11 74 -14 12 -22 11 -52 -5 -73 -39
-109 -86 -133 -176 -12 -46 -47 -138 -77 -205 -132 -295 -156 -417 -118 -613
31 -166 141 -384 281 -557 100 -125 278 -179 485 -148 58 8 112 13 121 9 10
-4 58 22 129 69 171 113 277 236 278 322 0 68 -28 64 -118 -15 -29 -26 -78
-60 -110 -76 -162 -82 -420 16 -547 209 -52 80 -77 167 -78 272 -2 113 13 175
70 294 36 75 59 108 121 170 49 50 98 88 134 105 269 130 603 -45 683 -359 19
-75 19 -244 0 -350 -9 -44 -24 -134 -36 -200 -31 -188 -62 -241 -264 -466
-201 -223 -217 -239 -285 -284 -180 -119 -401 -161 -700 -131 -85 8 -189 18
-230 21 -184 16 -304 94 -463 303 -91 119 -112 170 -114 283 -2 88 -7 113 -62
280 -72 221 -97 315 -116 434 -20 120 -19 379 1 530 24 179 10 395 -25 395 -5
0 -19 -11 -30 -25z"/>
<path d="M4953 5516 c-107 -35 -189 -110 -246 -225 -30 -62 -32 -71 -32 -181
0 -107 2 -119 28 -168 79 -150 221 -221 377 -188 64 14 250 87 279 110 24 19
49 88 60 166 36 262 -122 486 -352 496 -43 3 -89 -2 -114 -10z m178 -249 c130
-69 166 -255 67 -347 -43 -40 -55 -28 -60 55 -3 68 -6 78 -34 106 -36 35 -79
41 -119 15 -22 -14 -26 -24 -23 -54 2 -31 7 -38 28 -41 69 -9 39 -91 -34 -91
-68 0 -126 76 -126 165 0 158 165 263 301 192z"/>
<path d="M7081 5004 c0 -11 3 -14 6 -6 3 7 2 16 -1 19 -3 4 -6 -2 -5 -13z"/>
<path d="M7061 4908 c-6 -40 -16 -118 -22 -173 -27 -258 -59 -408 -148 -693
-62 -198 -70 -242 -49 -287 17 -37 24 -31 20 19 -3 33 8 84 41 188 75 237 104
358 131 545 17 116 49 463 43 469 -2 3 -9 -28 -16 -68z"/>
<path d="M3034 4377 c137 -273 180 -334 296 -417 81 -58 145 -75 170 -45 16
20 2 42 -103 153 -46 48 -118 132 -162 187 -102 130 -207 246 -260 289 -42 35
-42 35 59 -167z"/>
<path d="M3540 4520 c-16 -30 1 -74 60 -158 128 -182 294 -312 400 -312 34 0
54 22 45 50 -4 11 -46 52 -95 90 -48 39 -141 125 -205 192 -153 161 -183 180
-205 138z"/>
<path d="M5470 2279 c-117 -34 -370 -72 -535 -79 -160 -8 -160 -8 15 -5 215 5
468 45 591 94 39 16 -1 10 -71 -10z"/>
</g>
</svg>
