<?xml version="1.0" standalone="no"?>
<!DOCTYPE svg PUBLIC "-//W3C//DTD SVG 20010904//EN"
 "http://www.w3.org/TR/2001/REC-SVG-20010904/DTD/svg10.dtd">
<svg version="1.0" xmlns="http://www.w3.org/2000/svg"
 width="1000.000000pt" height="1000.000000pt" viewBox="0 0 1000.000000 1000.000000"
 preserveAspectRatio="xMidYMid meet">
<metadata>
  <rdf:RDF
    xmlns:rdf = "http://www.w3.org/1999/02/22-rdf-syntax-ns#"
    xmlns:rdfs = "http://www.w3.org/2000/01/rdf-schema#"
    xmlns:dc = "http://purl.org/dc/elements/1.1/"
    xmlns:cc = "http://creativecommons.org/ns#">
    <cc:license rdf:resource="http://creativecommons.org/publicdomain/zero/1.0/deed.en"/>
    <cc:permits rdf:resource="http://creativecommons.org/ns#Reproduction"/>
    <rdf:Description about="https://nft.mir.one/fingerprints"
      dc:title="TON Fingerprints"
      dc:description="This is a unique digital fingerprint created based on the algorithm for generating basic rings using a noise texture. Like human fingerprints, you can now use it for the Web3 and Metaverse era as digital biometric information."
      dc:publisher="https://nft.mir.one"
      dc:date="2022-02-22"
      dc:format="image/svg+xml"
      dc:language="en" >
      <dc:creator>
      <rdf:Bag>
        <rdf:li>EQBondcvD2_aOFADXSWJHs4ZazQDuEl9_wNvGGPxI8hGuOFU</rdf:li>
        <rdf:li>ipfs://bafkreihj7iub3fhmhq6jn62noukt5wxn3gv6bvcg7wmt6ywvlurefezckq</rdf:li>
      </rdf:Bag>
      </dc:creator>
    </rdf:Description>
  </rdf:RDF>
</metadata>
<g transform="translate(0.000000,1000.000000) scale(0.100000,-0.100000)"
fill="#1b1f23" stroke="none">
<path d="M5280 7772 c13 -9 49 -38 80 -63 30 -25 91 -69 135 -99 257 -172 356
-267 421 -405 55 -119 118 -178 347 -330 202 -134 433 -441 562 -750 134 -320
180 -617 140 -917 -20 -150 -51 -263 -135 -485 -38 -102 -84 -242 -101 -311
-43 -175 -96 -275 -236 -444 -221 -267 -515 -444 -900 -544 -225 -57 -417 -63
-691 -19 -340 55 -628 193 -865 414 -68 64 -79 84 -52 95 24 9 83 -15 163 -67
284 -184 494 -259 800 -287 76 -7 152 -21 198 -36 123 -40 270 -31 519 32 219
56 360 132 494 268 292 298 371 427 505 826 138 412 173 591 163 829 -24 539
-385 1114 -847 1350 -107 55 -137 63 -303 86 -200 27 -313 71 -343 133 -14 31
-14 36 -1 49 14 14 26 12 119 -16 183 -57 298 -51 314 16 4 15 14 38 21 50 50
77 -114 233 -399 379 -126 64 -273 114 -413 140 -112 21 -408 26 -570 10 -90
-9 -90 -9 -25 -23 36 -7 117 -22 180 -33 325 -55 470 -101 822 -258 182 -81
289 -142 336 -188 65 -65 25 -65 -153 -2 -60 21 -145 48 -188 59 -44 11 -125
38 -180 61 -216 86 -406 141 -606 174 -175 28 -357 8 -612 -68 -123 -37 -122
-39 26 -53 486 -43 605 -60 804 -110 254 -64 380 -116 416 -171 16 -24 16 -28
1 -42 -28 -29 -126 -13 -501 78 -178 43 -323 61 -471 59 -92 -2 -102 0 -138
24 -21 15 -54 30 -75 33 -47 9 -143 -16 -241 -62 -67 -31 -270 -152 -270 -160
0 -7 69 9 186 42 151 43 330 84 367 84 25 0 28 -3 25 -27 -4 -40 -74 -78 -263
-143 -135 -46 -175 -64 -260 -121 -55 -37 -136 -98 -180 -135 -44 -38 -96 -82
-115 -98 -23 -19 -28 -27 -15 -23 11 4 38 11 60 16 22 5 99 35 170 66 134 59
545 220 720 283 92 33 109 36 215 37 122 0 167 -13 189 -54 16 -29 -2 -37
-122 -56 -59 -9 -145 -27 -192 -41 -160 -46 -716 -264 -858 -336 -75 -38 -209
-166 -309 -296 -76 -99 -76 -99 -30 -81 26 10 108 54 182 99 188 113 342 186
575 274 756 284 724 270 779 316 68 57 104 64 287 56 302 -12 423 -32 659
-112 458 -156 834 -518 988 -954 48 -138 66 -240 65 -380 0 -120 -3 -136 -66
-385 -125 -493 -214 -695 -392 -883 -82 -88 -116 -109 -191 -123 -68 -12 -208
-79 -309 -148 -60 -40 -70 -52 -70 -77 0 -27 2 -29 37 -27 46 3 138 44 263
118 53 31 103 54 111 51 40 -15 -8 -85 -100 -145 -104 -67 -197 -100 -310
-107 -50 -4 -145 -19 -211 -35 -120 -29 -228 -38 -240 -19 -18 30 30 62 198
130 43 18 103 52 135 76 31 25 88 69 126 99 38 30 139 95 223 145 85 51 180
116 212 146 181 167 322 503 338 804 6 116 6 116 -36 164 -49 57 -58 73 -111
205 -106 266 -208 401 -355 466 -100 45 -338 116 -438 131 -218 34 -473 3
-649 -79 -195 -90 -356 -250 -373 -372 -7 -46 40 -291 75 -394 60 -180 154
-303 281 -368 47 -24 65 -28 139 -28 68 0 93 5 125 22 54 28 89 68 115 127 20
44 21 59 15 157 -6 96 -5 110 9 115 44 17 99 -95 100 -202 1 -129 -75 -241
-204 -303 -48 -23 -68 -26 -155 -26 -94 0 -104 2 -175 36 -90 43 -163 103
-226 184 -88 114 -177 321 -208 484 -22 120 -54 147 -114 97 -16 -14 -44 -53
-62 -88 -18 -35 -50 -81 -70 -104 -48 -52 -64 -101 -57 -175 4 -50 16 -77 78
-181 123 -207 185 -292 289 -392 116 -111 284 -225 378 -258 99 -34 255 -31
372 7 151 49 263 116 370 224 156 157 229 338 216 539 -10 164 -75 315 -187
436 -74 79 -147 122 -240 142 -165 35 -328 -29 -403 -159 -91 -156 -92 -368
-4 -442 41 -34 89 -32 98 5 12 50 70 32 70 -22 0 -21 -11 -41 -34 -64 -30 -30
-40 -34 -87 -34 -171 0 -286 184 -277 445 3 99 7 117 35 178 144 304 682 390
898 144 93 -106 210 -334 252 -487 26 -97 24 -273 -5 -373 -58 -204 -196 -382
-404 -520 -174 -116 -318 -167 -496 -174 -184 -8 -271 16 -336 94 -16 19 -76
71 -135 116 -197 152 -285 254 -402 471 -56 103 -69 121 -92 124 -37 5 -45
-34 -23 -118 63 -240 267 -473 554 -630 46 -26 55 -54 21 -65 -78 -25 -297 99
-432 245 -108 116 -202 285 -233 416 -12 53 -14 100 -9 223 3 86 11 187 17
224 22 146 109 267 384 537 238 234 361 315 583 384 158 50 244 60 531 60 303
1 330 -3 467 -69 282 -137 450 -359 538 -710 36 -147 49 -178 73 -173 26 5 59
63 66 118 4 28 2 87 -4 131 -33 240 -146 468 -323 656 -100 105 -170 161 -328
261 -69 43 -156 102 -193 131 -148 113 -311 163 -576 177 -135 8 -258 -6 -370
-42 -108 -34 -395 -148 -575 -229 -100 -45 -190 -77 -270 -97 -140 -34 -234
-77 -397 -181 -64 -42 -149 -94 -188 -117 -125 -75 -197 -174 -305 -425 -63
-144 -63 -144 -24 -113 21 17 70 72 109 123 80 106 198 222 235 231 35 9 55
-2 55 -29 0 -12 -61 -124 -135 -247 -140 -233 -166 -292 -215 -490 -12 -47
-32 -114 -44 -150 -13 -37 -26 -105 -30 -155 -4 -50 -9 -110 -11 -135 -3 -25
6 2 20 59 29 120 46 154 78 149 20 -3 22 -9 24 -73 6 -172 21 -253 62 -328 21
-40 64 -150 95 -246 102 -314 183 -484 369 -776 95 -149 164 -241 242 -323
243 -258 783 -580 1150 -687 180 -52 451 -59 570 -15 33 13 161 57 285 99 218
74 223 76 173 79 -28 2 -150 -13 -270 -33 -195 -33 -231 -36 -348 -32 -166 6
-275 34 -484 123 -785 335 -1080 587 -1390 1187 -147 283 -381 897 -381 998 0
28 35 24 65 -8 14 -16 39 -64 56 -108 218 -573 403 -954 572 -1180 208 -278
524 -497 947 -655 91 -33 192 -79 225 -100 92 -59 161 -88 259 -105 186 -32
534 -10 698 45 174 58 374 181 538 330 45 41 45 41 5 17 -231 -137 -521 -245
-666 -246 -243 -3 -621 8 -665 18 -64 15 -89 32 -81 55 10 26 51 36 216 52
227 22 263 31 369 97 34 21 143 74 241 116 201 88 324 157 389 218 52 49 54
76 4 81 -24 3 -71 -14 -175 -64 -274 -129 -516 -227 -642 -259 -49 -13 -187
-35 -305 -51 -195 -25 -222 -26 -299 -15 -182 26 -420 125 -621 258 -156 104
-335 282 -404 403 -205 361 -326 606 -421 855 -31 83 -81 211 -111 286 -43
109 -54 148 -54 194 0 63 33 171 80 265 70 139 116 281 146 455 20 115 41 151
152 256 131 123 251 188 268 144 10 -26 -18 -73 -100 -163 -132 -147 -187
-250 -190 -354 -1 -47 3 -61 21 -80 23 -22 23 -22 49 3 14 13 62 76 106 139
101 147 271 367 329 426 121 124 457 283 720 340 128 29 431 26 552 -4 94 -23
135 -41 157 -67 11 -14 10 -19 -8 -37 -20 -21 -30 -22 -294 -23 -248 -1 -282
-3 -372 -24 -130 -30 -250 -73 -361 -129 -181 -90 -283 -174 -456 -374 -191
-220 -256 -285 -315 -313 -65 -31 -89 -60 -114 -142 -27 -87 -25 -117 10 -192
20 -41 36 -100 46 -160 48 -310 69 -384 151 -543 109 -210 251 -351 460 -457
207 -104 581 -140 798 -76 230 67 514 242 686 422 117 122 183 232 230 383 21
66 24 94 24 230 0 152 -1 157 -37 262 -41 118 -79 197 -162 338 -65 108 -70
143 -22 148 25 3 39 -7 100 -70 81 -84 137 -177 196 -325 69 -172 83 -247 77
-393 -13 -301 -146 -540 -417 -745 -254 -192 -482 -325 -690 -400 -185 -67
-480 -31 -748 91 -114 52 -310 172 -366 223 -195 181 -357 552 -397 907 -18
161 -47 200 -102 134 -57 -68 -56 -179 4 -380 82 -278 213 -547 375 -773 54
-75 64 -96 64 -131 1 -54 27 -108 85 -176 194 -224 568 -426 875 -471 121 -17
416 -7 552 20 120 24 322 91 473 156 236 102 472 218 521 256 71 54 247 238
309 321 27 37 76 116 110 176 33 60 73 124 88 142 15 18 39 54 51 79 25 49 76
171 76 180 -1 9 -35 -36 -84 -109 -52 -78 -80 -104 -101 -97 -26 11 -17 58 49
258 90 272 115 417 116 659 0 499 -162 1015 -458 1459 -130 196 -183 256 -255
292 -47 24 -85 56 -157 133 -268 286 -402 388 -756 572 -134 71 -188 93 -134
56z m72 -2410 c194 -95 276 -351 187 -587 -59 -158 -204 -294 -387 -363 -59
-22 -83 -26 -192 -26 -114 0 -131 2 -195 27 -215 85 -412 281 -538 532 -44 89
-67 166 -67 226 0 93 52 68 100 -48 85 -205 166 -330 287 -443 122 -114 238
-168 378 -177 288 -19 547 226 522 493 -14 151 -97 243 -220 244 -81 0 -185
66 -170 107 3 9 24 24 47 34 64 30 164 23 248 -19z"/>
<path d="M6372 7090 c0 -14 2 -19 5 -12 2 6 2 18 0 25 -3 6 -5 1 -5 -13z"/>
<path d="M3039 4417 c-26 -58 47 -386 137 -613 58 -148 114 -259 213 -428 43
-72 97 -167 120 -210 55 -104 115 -177 247 -306 369 -358 827 -593 1299 -665
42 -6 -45 34 -245 115 -344 138 -724 372 -991 612 -119 106 -169 173 -321 425
-258 429 -332 605 -404 951 -14 70 -30 131 -35 136 -4 5 -13 -2 -20 -17z"/>
<path d="M6859 3873 c-47 -49 -165 -169 -261 -268 -126 -129 -180 -191 -189
-219 -40 -113 -212 -232 -497 -342 -141 -55 -188 -79 -196 -100 -26 -66 126
-56 339 23 164 61 272 130 376 241 76 80 277 345 338 444 56 93 180 308 177
308 -1 0 -40 -39 -87 -87z"/>
</g>
</svg>
