<?xml version="1.0" standalone="no"?>
<!DOCTYPE svg PUBLIC "-//W3C//DTD SVG 20010904//EN"
 "http://www.w3.org/TR/2001/REC-SVG-20010904/DTD/svg10.dtd">
<svg version="1.0" xmlns="http://www.w3.org/2000/svg"
 width="1000.000000pt" height="1000.000000pt" viewBox="0 0 1000.000000 1000.000000"
 preserveAspectRatio="xMidYMid meet">
<metadata>
  <rdf:RDF
    xmlns:rdf = "http://www.w3.org/1999/02/22-rdf-syntax-ns#"
    xmlns:rdfs = "http://www.w3.org/2000/01/rdf-schema#"
    xmlns:dc = "http://purl.org/dc/elements/1.1/"
    xmlns:cc = "http://creativecommons.org/ns#">
    <cc:license rdf:resource="http://creativecommons.org/publicdomain/zero/1.0/deed.en"/>
    <cc:permits rdf:resource="http://creativecommons.org/ns#Reproduction"/>
    <rdf:Description about="https://nft.mir.one/fingerprints"
      dc:title="TON Fingerprints"
      dc:description="This is a unique digital fingerprint created based on the algorithm for generating basic rings using a noise texture. Like human fingerprints, you can now use it for the Web3 and Metaverse era as digital biometric information."
      dc:publisher="https://nft.mir.one"
      dc:date="2022-02-22"
      dc:format="image/svg+xml"
      dc:language="en" >
      <dc:creator>
      <rdf:Bag>
        <rdf:li>EQBondcvD2_aOFADXSWJHs4ZazQDuEl9_wNvGGPxI8hGuOFU</rdf:li>
        <rdf:li>ipfs://bafkreihj7iub3fhmhq6jn62noukt5wxn3gv6bvcg7wmt6ywvlurefezckq</rdf:li>
      </rdf:Bag>
      </dc:creator>
    </rdf:Description>
  </rdf:RDF>
</metadata>
<g transform="translate(0.000000,1000.000000) scale(0.100000,-0.100000)"
fill="#1b1f23" stroke="none">
<path d="M5008 7813 c6 -2 18 -2 25 0 6 3 1 5 -13 5 -14 0 -19 -2 -12 -5z"/>
<path d="M5168 7785 c229 -49 482 -129 637 -200 44 -20 75 -31 70 -26 -19 19
-239 113 -355 151 -127 43 -312 86 -405 94 -45 5 -32 0 53 -19z"/>
<path d="M4611 7619 c-181 -20 -345 -63 -570 -148 -103 -39 -103 -39 -15 -35
49 2 145 11 214 20 176 25 559 25 730 1 449 -63 790 -199 1255 -500 234 -152
306 -183 368 -159 14 6 7 13 -35 34 -29 14 -105 72 -168 128 -168 149 -251
214 -385 303 -264 174 -576 295 -883 343 -121 18 -400 26 -511 13z"/>
<path d="M4440 7319 c-289 -20 -444 -64 -650 -187 -114 -68 -173 -115 -320
-256 -96 -91 -96 -91 -25 -57 38 18 86 42 105 53 203 113 476 199 777 245 158
24 531 24 678 0 143 -24 346 -77 463 -121 304 -116 782 -397 938 -551 83 -82
115 -140 137 -249 12 -57 29 -102 61 -155 24 -42 77 -132 118 -201 83 -142
103 -197 116 -325 7 -63 28 -146 70 -275 33 -102 70 -225 81 -275 12 -49 33
-135 46 -190 14 -55 26 -109 29 -120 8 -42 5 75 -5 185 -17 187 -37 304 -86
506 -25 105 -43 198 -40 207 10 27 61 21 98 -10 36 -31 33 -22 -19 50 -46 64
-229 472 -277 617 -60 184 -150 334 -248 413 -43 36 -319 211 -489 310 -130
77 -380 197 -502 242 -213 78 -454 129 -696 145 -161 11 -181 11 -360 -1z"/>
<path d="M4560 6983 c-349 -33 -620 -105 -881 -235 -133 -66 -145 -74 -256
-181 -63 -62 -145 -150 -181 -197 -36 -47 -86 -110 -111 -140 -25 -30 -39 -50
-31 -44 8 7 33 18 55 26 22 7 99 52 170 100 298 197 542 316 817 396 231 68
418 96 643 95 349 0 596 -84 1008 -340 92 -57 227 -133 300 -168 72 -36 165
-83 206 -105 77 -43 116 -48 134 -19 41 65 -140 217 -528 444 -391 229 -674
332 -1004 365 -96 9 -261 11 -341 3z"/>
<path d="M4605 6644 c-139 -18 -230 -39 -375 -86 -348 -112 -638 -257 -895
-447 -116 -86 -144 -126 -378 -521 -20 -35 -20 -35 4 -14 35 30 106 64 135 64
37 0 39 -23 11 -118 -39 -128 -48 -190 -54 -367 -10 -272 17 -420 116 -637
109 -237 180 -337 283 -396 29 -17 105 -74 168 -127 253 -212 405 -286 656
-320 120 -17 164 -33 164 -60 0 -23 -45 -36 -145 -42 -222 -13 -488 108 -749
341 -60 54 -119 101 -132 106 -36 14 -54 2 -54 -34 0 -107 254 -335 501 -450
190 -88 231 -100 359 -100 104 -1 120 2 171 25 35 17 70 44 95 73 22 27 82 74
140 111 124 79 226 176 291 277 89 136 133 302 88 334 -27 20 -46 4 -95 -83
-101 -180 -190 -277 -308 -335 -65 -32 -70 -33 -197 -33 -152 0 -237 18 -361
75 -115 53 -194 110 -307 219 -117 114 -187 204 -257 331 -29 52 -80 133 -115
180 -127 172 -157 269 -158 500 -1 113 5 192 21 292 12 75 22 165 22 199 0 86
26 135 129 242 180 186 375 304 697 417 65 23 167 66 225 96 118 59 179 77
319 94 52 7 124 22 160 33 169 55 387 3 580 -138 168 -124 270 -224 425 -420
44 -55 135 -165 203 -245 311 -363 443 -580 508 -839 45 -176 42 -343 -6 -386
-37 -33 -50 -13 -50 73 0 198 -73 430 -190 602 -21 30 -66 87 -102 125 -35 39
-110 124 -167 190 -57 66 -172 190 -256 275 -109 111 -162 174 -188 220 -19
36 -61 90 -93 120 -78 74 -151 149 -196 203 -92 108 -388 186 -432 113 -18
-29 29 -58 180 -110 200 -69 246 -95 222 -123 -27 -33 -212 2 -370 68 -176 74
-205 81 -308 77 -117 -5 -160 -23 -160 -68 0 -39 30 -54 173 -86 61 -13 179
-43 262 -65 82 -23 223 -56 312 -74 205 -42 313 -88 313 -136 0 -25 -53 -38
-120 -29 -110 16 -424 85 -890 198 -208 50 -280 49 -437 -3 -254 -84 -467
-252 -553 -437 -70 -150 -111 -412 -91 -591 17 -150 63 -247 117 -247 35 0 44
21 42 101 -3 141 20 452 36 497 85 236 289 410 554 473 75 18 108 21 237 16
124 -4 184 -12 345 -46 107 -23 292 -61 411 -86 291 -59 331 -70 424 -118 64
-33 103 -64 191 -152 154 -152 224 -265 224 -362 0 -50 27 -118 91 -233 32
-58 81 -163 109 -234 65 -165 82 -198 126 -242 37 -36 37 -36 31 -138 -11
-198 -143 -624 -302 -976 -54 -118 -104 -232 -111 -254 -17 -47 -18 -110 -3
-138 11 -21 13 -20 46 18 83 93 200 299 291 514 54 127 101 265 173 505 70
232 91 282 148 350 91 108 125 210 125 375 -1 197 -58 415 -173 655 -92 192
-182 324 -366 535 -123 141 -147 176 -185 270 -35 88 -71 126 -220 240 -231
176 -454 287 -650 324 -101 19 -314 19 -455 0z m1484 -1538 c35 -18 103 -116
146 -209 60 -131 115 -336 115 -430 0 -47 -22 -79 -41 -60 -5 5 -27 68 -49
140 -52 174 -89 264 -166 409 -82 155 -83 190 -5 150z"/>
<path d="M6030 6146 c-21 -27 18 -83 132 -189 229 -215 328 -362 452 -674 67
-169 118 -341 140 -473 23 -135 31 -828 11 -942 -32 -178 -71 -296 -219 -661
-42 -104 -76 -191 -76 -195 1 -10 60 101 150 278 215 424 291 755 293 1270 0
258 -14 327 -158 775 -156 480 -257 618 -583 787 -77 40 -122 47 -142 24z"/>
<path d="M4223 5670 c-244 -31 -478 -188 -568 -382 -27 -58 -32 -97 -13 -116
22 -22 46 -13 109 41 173 147 246 191 384 233 120 35 306 38 430 5 111 -29
214 -82 262 -134 133 -144 228 -427 253 -757 6 -74 18 -185 27 -246 10 -69 14
-137 10 -177 -8 -87 -61 -225 -122 -317 -63 -97 -211 -244 -350 -348 -184
-138 -294 -184 -440 -186 -69 -1 -87 3 -130 26 -106 56 -134 70 -259 128 -160
74 -272 148 -381 251 -96 92 -149 165 -190 265 -15 38 -59 137 -98 219 -38 83
-84 186 -102 230 -30 76 -131 278 -121 244 2 -9 23 -88 46 -175 116 -448 240
-724 405 -903 104 -111 283 -216 490 -287 129 -43 148 -56 122 -81 -27 -27
-134 -24 -227 7 -91 29 -234 101 -343 172 -223 146 -212 142 -121 42 107 -117
163 -168 264 -244 135 -100 188 -123 296 -128 56 -3 129 2 190 12 54 8 140 20
190 26 49 5 112 17 140 25 163 49 538 341 686 535 65 85 142 244 169 350 27
108 36 320 20 517 -13 167 -30 263 -76 433 -18 69 -36 151 -40 182 -5 49 -15
69 -61 133 -37 49 -54 83 -52 98 3 19 9 22 53 22 40 -1 74 -12 170 -58 66 -32
143 -76 172 -97 53 -40 123 -130 162 -208 57 -112 89 -361 57 -437 -33 -78
-37 -132 -25 -342 14 -229 6 -330 -36 -479 -33 -114 -130 -312 -192 -389 -74
-91 -439 -372 -579 -445 -73 -38 -126 -44 -132 -17 -6 27 35 66 183 176 171
127 298 235 370 313 154 166 249 385 274 633 6 55 11 244 12 420 1 297 0 326
-19 398 -49 182 -175 341 -247 313 -25 -9 -17 -51 26 -154 68 -158 88 -259
100 -485 28 -526 -51 -801 -309 -1069 -48 -50 -163 -152 -257 -227 -93 -74
-201 -165 -240 -201 -38 -36 -99 -86 -134 -110 -40 -28 -76 -64 -97 -97 -44
-68 -125 -122 -230 -151 -44 -13 -102 -29 -130 -37 -28 -8 -64 -15 -80 -16
-16 0 21 -12 81 -26 89 -20 131 -24 220 -21 110 3 110 3 230 69 139 76 171 89
296 124 150 42 288 121 444 251 120 101 155 124 187 124 57 0 21 -68 -100
-188 -137 -135 -240 -199 -542 -335 -224 -100 -386 -186 -420 -222 -24 -26
-24 -26 45 -20 111 11 313 54 384 82 98 39 297 139 376 191 156 100 289 230
341 335 14 27 31 81 38 121 10 53 37 119 109 266 175 357 214 539 168 777 -11
54 -27 150 -36 213 -8 63 -18 129 -20 145 -10 62 31 70 58 12 20 -42 42 -122
63 -227 17 -91 44 -154 68 -163 70 -27 45 224 -44 445 -46 113 -58 175 -40
207 21 41 41 19 91 -102 73 -178 110 -302 116 -388 6 -87 -5 -131 -46 -183
-23 -28 -30 -53 -41 -128 -27 -200 -84 -381 -208 -663 -38 -88 -89 -207 -113
-264 -57 -138 -124 -239 -222 -334 -132 -128 -319 -244 -581 -359 -75 -33
-206 -105 -206 -113 0 -1 28 4 63 11 34 7 111 22 170 34 304 58 501 156 693
345 124 122 164 187 250 399 40 100 100 246 134 325 77 183 138 364 189 561
76 293 75 334 -6 558 -74 206 -117 288 -185 353 -52 50 -65 70 -108 174 -66
158 -101 214 -190 305 -143 146 -315 221 -571 250 -52 6 -157 26 -234 45 -275
66 -426 83 -572 65z"/>
<path d="M4260 5309 c-138 -15 -245 -60 -413 -175 -168 -114 -193 -142 -248
-277 -33 -79 -35 -99 -14 -117 28 -23 68 1 179 109 121 117 168 153 272 205
194 97 410 92 570 -12 92 -61 154 -139 154 -194 0 -41 -34 -37 -111 14 -216
140 -385 150 -602 36 -79 -41 -260 -220 -302 -298 -54 -101 -36 -217 56 -355
70 -104 179 -202 281 -253 104 -52 180 -72 279 -72 140 0 254 52 352 160 64
71 175 247 199 315 20 56 23 158 8 250 -5 33 -16 114 -25 180 -13 99 -22 133
-52 195 -101 207 -323 317 -583 289z m162 -520 c71 -15 170 -65 223 -111 107
-94 121 -246 37 -402 -38 -71 -121 -152 -189 -184 -50 -23 -71 -27 -148 -27
-82 0 -97 3 -157 33 -81 40 -135 98 -185 200 -68 137 -53 256 47 365 99 108
236 155 372 126z"/>
<path d="M4286 4636 c-75 -28 -126 -96 -126 -166 0 -53 42 -99 92 -101 79 -3
99 8 95 55 -2 28 1 31 28 34 57 7 78 -81 30 -132 -32 -35 -64 -46 -134 -46
-68 0 -102 -19 -85 -46 23 -39 63 -58 128 -62 81 -5 122 8 182 61 136 120 122
311 -30 389 -51 26 -130 32 -180 14z"/>
<path d="M7071 4584 c0 -11 3 -14 6 -6 3 7 2 16 -1 19 -3 4 -6 -2 -5 -13z"/>
<path d="M6591 4143 c-22 -27 -36 -70 -115 -352 -121 -427 -318 -827 -458
-930 -33 -24 -52 -31 -88 -31 -45 0 -48 -2 -98 -63 -65 -80 -230 -243 -307
-303 -54 -42 -341 -235 -390 -262 -41 -23 -3 -10 127 42 283 113 393 182 724
447 212 171 306 293 450 584 94 191 169 404 208 593 27 127 34 249 16 283 -15
27 -45 24 -69 -8z"/>
<path d="M3555 3005 c33 -20 65 -42 71 -50 16 -22 26 -18 22 8 -3 23 -64 59
-123 72 -23 5 -15 -3 30 -30z"/>
<path d="M4045 2935 c-55 -7 -149 -16 -209 -20 -106 -8 -111 -9 -145 -41 -36
-33 -36 -33 -9 -34 14 0 75 -12 135 -27 138 -33 226 -35 319 -6 133 42 181 98
110 128 -41 17 -65 17 -201 0z"/>
</g>
</svg>
