<?xml version="1.0" standalone="no"?>
<!DOCTYPE svg PUBLIC "-//W3C//DTD SVG 20010904//EN"
 "http://www.w3.org/TR/2001/REC-SVG-20010904/DTD/svg10.dtd">
<svg version="1.0" xmlns="http://www.w3.org/2000/svg"
 width="1000.000000pt" height="1000.000000pt" viewBox="0 0 1000.000000 1000.000000"
 preserveAspectRatio="xMidYMid meet">
<metadata>
  <rdf:RDF
    xmlns:rdf = "http://www.w3.org/1999/02/22-rdf-syntax-ns#"
    xmlns:rdfs = "http://www.w3.org/2000/01/rdf-schema#"
    xmlns:dc = "http://purl.org/dc/elements/1.1/"
    xmlns:cc = "http://creativecommons.org/ns#">
    <cc:license rdf:resource="http://creativecommons.org/publicdomain/zero/1.0/deed.en"/>
    <cc:permits rdf:resource="http://creativecommons.org/ns#Reproduction"/>
    <rdf:Description about="https://nft.mir.one/fingerprints"
      dc:title="TON Fingerprints"
      dc:description="This is a unique digital fingerprint created based on the algorithm for generating basic rings using a noise texture. Like human fingerprints, you can now use it for the Web3 and Metaverse era as digital biometric information."
      dc:publisher="https://nft.mir.one"
      dc:date="2022-02-22"
      dc:format="image/svg+xml"
      dc:language="en" >
      <dc:creator>
      <rdf:Bag>
        <rdf:li>EQBondcvD2_aOFADXSWJHs4ZazQDuEl9_wNvGGPxI8hGuOFU</rdf:li>
        <rdf:li>ipfs://bafkreihj7iub3fhmhq6jn62noukt5wxn3gv6bvcg7wmt6ywvlurefezckq</rdf:li>
      </rdf:Bag>
      </dc:creator>
    </rdf:Description>
  </rdf:RDF>
</metadata>
<g transform="translate(0.000000,1000.000000) scale(0.100000,-0.100000)"
fill="#1b1f23" stroke="none">
<path d="M4658 7783 c7 -3 16 -2 19 1 4 3 -2 6 -13 5 -11 0 -14 -3 -6 -6z"/>
<path d="M4855 7726 c281 -99 479 -204 677 -361 71 -55 84 -77 61 -100 -31
-32 -106 -4 -348 131 -148 82 -297 148 -401 175 -135 35 -507 37 -664 2 -45
-9 62 -42 241 -74 338 -59 427 -91 827 -295 327 -167 410 -219 538 -336 50
-46 121 -109 156 -140 121 -106 312 -419 402 -660 52 -140 108 -339 160 -564
53 -237 55 -241 111 -316 69 -92 110 -220 142 -448 13 -98 17 -193 17 -435 0
-401 -8 -449 -119 -670 -49 -97 -95 -209 -130 -317 -50 -152 -55 -175 -54
-250 1 -46 4 -72 6 -58 9 54 30 104 140 335 146 304 195 424 227 555 47 192
76 458 76 692 0 251 -20 342 -149 673 -43 110 -111 306 -150 435 -92 302 -140
437 -211 586 -63 133 -110 207 -211 332 -68 85 -88 127 -70 145 16 16 59 -8
148 -82 102 -84 140 -132 207 -260 73 -142 99 -209 231 -601 62 -184 149 -429
193 -545 44 -115 89 -237 100 -271 11 -34 27 -74 35 -91 9 -16 23 -61 31 -99
16 -69 16 -69 10 -4 -16 194 -69 450 -159 764 -153 532 -238 768 -366 1015
-44 85 -85 177 -91 205 -15 70 -46 129 -126 235 -136 181 -368 408 -593 581
-81 62 -82 62 -44 20 23 -25 56 -67 75 -95 44 -65 238 -288 434 -498 139 -150
196 -224 196 -257 0 -23 -58 -8 -115 31 -33 22 -94 58 -135 80 -56 29 -111 72
-212 166 -171 159 -200 194 -239 280 -36 82 -89 139 -189 205 -206 136 -456
216 -730 234 -95 6 -95 6 65 -50z"/>
<path d="M4060 7359 c-30 -5 -97 -16 -148 -25 -93 -17 -93 -17 -50 -41 127
-73 186 -94 309 -115 82 -13 146 -18 189 -14 36 3 97 8 136 12 130 11 259 -38
441 -168 56 -40 162 -111 235 -158 148 -95 305 -240 375 -345 97 -147 242
-427 288 -555 67 -190 85 -375 49 -530 -26 -118 -7 -268 41 -316 30 -30 40
-30 69 0 30 29 43 92 56 260 17 227 -15 445 -96 660 -19 50 -75 174 -124 276
-48 102 -100 219 -115 260 -14 41 -38 97 -53 124 -61 113 -221 239 -527 413
-316 181 -412 216 -691 253 -152 21 -290 24 -384 9z"/>
<path d="M3750 7131 c-41 -16 -100 -40 -130 -54 -55 -26 -55 -26 25 -26 90 -1
206 21 242 44 16 11 23 24 21 38 -5 34 -66 33 -158 -2z"/>
<path d="M4452 7075 c-19 -14 -20 -19 -10 -38 6 -12 18 -27 27 -34 47 -36 251
-113 300 -113 82 0 47 76 -59 130 -114 57 -222 80 -258 55z"/>
<path d="M3860 6959 c-74 -16 -155 -36 -180 -45 -58 -21 -188 -92 -265 -144
-60 -40 -60 -40 -14 -40 25 0 110 11 190 24 212 36 370 50 484 42 113 -7 167
-18 380 -81 83 -24 211 -60 285 -80 341 -90 580 -272 779 -592 127 -205 201
-403 161 -428 -19 -12 -37 13 -136 179 -166 277 -295 428 -457 534 -113 74
-377 173 -686 258 -232 63 -395 81 -599 64 -283 -23 -353 -47 -510 -174 -43
-34 -87 -69 -100 -78 -22 -15 -21 -15 25 -11 26 3 77 13 113 23 467 133 915
94 1349 -118 110 -53 119 -55 196 -56 74 -1 86 -4 139 -36 121 -73 232 -193
413 -447 91 -128 259 -309 303 -325 39 -15 54 13 60 118 12 185 -9 274 -114
489 -179 366 -396 593 -702 737 -69 32 -97 40 -141 39 -30 0 -63 -3 -74 -6
-48 -16 -205 30 -379 110 -63 29 -139 58 -168 64 -85 18 -205 11 -352 -20z"/>
<path d="M5841 6612 c-16 -30 -1 -72 105 -292 167 -347 230 -565 241 -836 7
-178 -3 -263 -53 -436 -44 -152 -47 -242 -14 -368 19 -73 23 -123 30 -355 7
-277 10 -295 54 -362 46 -70 61 -144 61 -303 0 -160 -11 -224 -72 -415 -88
-275 -189 -443 -382 -636 -169 -168 -402 -347 -489 -373 -26 -8 -40 -15 -31
-15 56 -3 301 117 461 225 295 199 476 411 573 667 33 89 91 311 105 404 10
65 9 85 -14 195 -38 183 -64 389 -76 608 -6 107 -15 263 -21 345 -14 184 -7
313 26 470 42 200 30 365 -45 662 -47 182 -109 345 -194 509 -141 269 -229
372 -265 306z"/>
<path d="M3640 6343 c-87 -11 -285 -55 -314 -70 -47 -24 -112 -78 -198 -164
-72 -74 -74 -78 -45 -72 18 4 87 26 155 50 68 24 181 55 250 70 112 24 149 27
317 27 158 0 207 -4 292 -22 269 -58 434 -151 649 -367 308 -309 489 -614 523
-880 16 -133 24 -367 12 -397 -6 -15 -48 -68 -94 -117 -99 -106 -160 -193
-254 -361 -39 -69 -110 -188 -158 -265 -48 -77 -110 -185 -136 -241 -76 -158
-155 -219 -362 -278 -115 -33 -248 -45 -599 -52 -286 -6 -286 -6 -175 -81 147
-98 260 -159 327 -176 146 -37 765 45 962 127 20 9 86 20 147 26 134 13 195
34 291 102 178 124 365 362 491 625 45 91 64 119 125 178 39 39 78 84 87 100
42 85 87 373 73 467 -9 63 -34 93 -68 85 -37 -10 -59 -51 -123 -237 -32 -91
-86 -221 -120 -290 -36 -73 -71 -160 -84 -209 -26 -106 -46 -140 -167 -281
-191 -222 -358 -370 -452 -401 -31 -10 -37 -9 -48 6 -22 30 1 64 140 205 72
74 156 163 185 198 30 34 85 84 124 110 112 75 176 191 110 200 -17 3 -39 -14
-85 -62 -66 -70 -83 -78 -93 -46 -10 32 29 100 105 186 76 85 117 157 178 309
22 55 68 159 102 230 128 267 135 315 74 469 -73 182 -99 227 -209 356 -59 69
-168 206 -243 305 -198 260 -364 426 -470 471 -41 17 -52 12 -52 -25 0 -38 34
-85 150 -210 161 -174 327 -387 469 -605 103 -158 150 -285 158 -426 8 -141
-25 -255 -87 -302 -53 -39 -57 -25 -62 185 -4 176 -7 199 -33 277 -76 232
-253 497 -549 819 -75 83 -146 160 -156 174 -55 69 -215 162 -365 211 -172 56
-247 67 -460 71 -110 2 -216 1 -235 -2z m1730 -1988 c7 -8 12 -34 12 -56 -1
-42 -21 -88 -130 -294 -26 -50 -64 -127 -84 -172 -45 -97 -160 -253 -252 -341
-57 -55 -70 -63 -98 -60 -63 6 -54 28 104 261 42 62 109 171 148 243 40 71
113 198 163 282 91 153 109 171 137 137z"/>
<path d="M3653 6050 c-187 -20 -404 -80 -469 -130 -22 -17 -52 -45 -67 -63
-51 -57 -137 -166 -137 -172 0 -10 40 5 140 52 216 104 426 153 650 153 261 0
463 -61 680 -205 102 -68 291 -259 366 -370 138 -202 215 -416 184 -509 -23
-71 -57 -37 -100 99 -38 119 -120 267 -216 390 -232 298 -561 465 -918 465
-249 0 -570 -91 -666 -189 -46 -48 -194 -244 -169 -225 8 6 43 21 79 33 36 13
103 45 150 71 112 64 205 94 374 120 113 18 165 21 285 17 172 -5 271 -30 410
-102 227 -118 383 -289 532 -580 36 -71 83 -161 104 -199 38 -69 39 -72 44
-200 6 -121 7 -131 26 -134 11 -1 36 11 56 27 116 96 182 404 130 611 -79 318
-428 741 -747 907 -205 107 -482 158 -721 133z"/>
<path d="M3719 5451 c-73 -10 -194 -47 -206 -63 -6 -7 -16 -30 -23 -51 -6 -21
-35 -66 -64 -99 -127 -150 -190 -250 -238 -379 -23 -65 -32 -106 -36 -180 -6
-116 7 -161 82 -299 123 -229 347 -372 561 -358 88 6 148 33 209 95 51 51 106
151 132 238 26 87 23 223 -5 297 -49 128 -141 216 -248 238 -145 31 -283 -75
-283 -217 0 -93 49 -156 121 -156 35 0 48 6 71 32 48 54 32 135 -28 136 -21 0
-30 5 -32 21 -4 30 31 57 77 57 127 0 203 -177 137 -318 -46 -100 -122 -150
-226 -149 -100 1 -175 45 -229 134 -41 68 -23 257 36 377 36 73 125 155 200
183 87 33 194 25 286 -20 85 -42 183 -142 226 -233 73 -153 81 -338 22 -502
-57 -157 -74 -220 -68 -247 23 -89 154 7 227 165 45 98 60 162 60 263 0 203
-91 423 -235 568 -148 149 -346 210 -514 157 -181 -56 -322 -232 -372 -461
-11 -52 -27 -102 -35 -110 -14 -13 -17 -12 -35 9 -24 29 -26 111 -4 196 43
171 194 372 346 463 87 53 232 66 361 33 259 -66 468 -281 581 -596 65 -183
74 -376 23 -509 -51 -133 -150 -254 -237 -290 -19 -7 -65 -17 -104 -21 -38 -4
-110 -21 -160 -38 -82 -29 -101 -32 -210 -31 -108 0 -129 3 -212 32 -283 97
-487 263 -587 477 -50 107 -61 158 -60 275 2 131 31 236 110 400 91 187 135
245 298 389 37 32 38 35 21 48 -51 37 -172 -4 -244 -82 -76 -82 -178 -317
-217 -495 -25 -118 -30 -308 -10 -413 60 -316 221 -589 414 -700 435 -250 415
-242 592 -242 136 0 150 2 231 31 113 40 210 106 303 205 148 157 293 412 336
589 8 29 4 43 -20 85 -16 29 -45 107 -65 176 -44 152 -147 368 -235 492 -137
192 -324 325 -527 377 -86 22 -217 32 -294 21z"/>
<path d="M3028 5283 c-22 -25 -51 -86 -81 -168 -14 -38 -29 -79 -33 -90 -11
-30 54 59 108 149 48 78 61 126 35 126 -8 0 -21 -8 -29 -17z"/>
<path d="M6494 5142 c-45 -30 -52 -159 -30 -517 9 -143 21 -393 26 -555 6
-162 15 -309 21 -327 14 -43 39 -50 66 -19 52 61 68 186 67 531 -2 454 -53
852 -114 885 -22 12 -22 12 -36 2z"/>
<path d="M5901 3939 c-13 -12 -41 -61 -63 -108 -147 -315 -198 -402 -314 -542
-142 -170 -270 -268 -509 -387 -287 -144 -264 -137 -470 -134 -133 2 -227 -2
-360 -17 -99 -12 -205 -21 -236 -21 -31 0 -70 -7 -85 -15 -16 -8 -38 -15 -48
-15 -36 0 -3 -16 119 -59 216 -75 347 -87 517 -50 53 12 103 19 112 16 10 -4
16 -18 16 -36 0 -40 -55 -93 -139 -133 -36 -17 -84 -45 -106 -61 -40 -29 -40
-29 95 -24 139 6 246 27 336 66 25 11 93 60 152 109 59 49 181 144 272 212
207 156 408 353 499 490 171 258 317 660 259 718 -16 16 -21 15 -47 -9z"/>
<path d="M6076 3918 c-9 -13 -27 -86 -41 -163 -82 -445 -279 -760 -689 -1102
-117 -98 -365 -342 -420 -413 -43 -56 -43 -56 80 -14 94 31 133 50 163 77 22
20 105 79 183 131 369 243 607 542 732 917 53 158 70 257 71 399 0 92 -4 133
-15 155 -19 38 -44 43 -64 13z"/>
<path d="M3250 3566 c142 -160 240 -236 306 -236 33 0 64 26 64 52 0 22 -65
78 -135 118 -33 18 -98 56 -145 84 -47 28 -108 60 -136 72 -52 21 -52 21 46
-90z"/>
</g>
</svg>
