<?xml version="1.0" standalone="no"?>
<!DOCTYPE svg PUBLIC "-//W3C//DTD SVG 20010904//EN"
 "http://www.w3.org/TR/2001/REC-SVG-20010904/DTD/svg10.dtd">
<svg version="1.0" xmlns="http://www.w3.org/2000/svg"
 width="1000.000000pt" height="1000.000000pt" viewBox="0 0 1000.000000 1000.000000"
 preserveAspectRatio="xMidYMid meet">
<metadata>
  <rdf:RDF
    xmlns:rdf = "http://www.w3.org/1999/02/22-rdf-syntax-ns#"
    xmlns:rdfs = "http://www.w3.org/2000/01/rdf-schema#"
    xmlns:dc = "http://purl.org/dc/elements/1.1/"
    xmlns:cc = "http://creativecommons.org/ns#">
    <cc:license rdf:resource="http://creativecommons.org/publicdomain/zero/1.0/deed.en"/>
    <cc:permits rdf:resource="http://creativecommons.org/ns#Reproduction"/>
    <rdf:Description about="https://nft.mir.one/fingerprints"
      dc:title="TON Fingerprints"
      dc:description="This is a unique digital fingerprint created based on the algorithm for generating basic rings using a noise texture. Like human fingerprints, you can now use it for the Web3 and Metaverse era as digital biometric information."
      dc:publisher="https://nft.mir.one"
      dc:date="2022-02-22"
      dc:format="image/svg+xml"
      dc:language="en" >
      <dc:creator>
      <rdf:Bag>
        <rdf:li>EQBondcvD2_aOFADXSWJHs4ZazQDuEl9_wNvGGPxI8hGuOFU</rdf:li>
        <rdf:li>ipfs://bafkreihj7iub3fhmhq6jn62noukt5wxn3gv6bvcg7wmt6ywvlurefezckq</rdf:li>
      </rdf:Bag>
      </dc:creator>
    </rdf:Description>
  </rdf:RDF>
</metadata>
<g transform="translate(0.000000,1000.000000) scale(0.100000,-0.100000)"
fill="#1b1f23" stroke="none">
<path d="M4900 7797 c0 -2 53 -23 118 -47 64 -24 178 -65 252 -93 164 -60 244
-100 330 -162 229 -168 412 -474 535 -894 45 -153 71 -217 134 -324 77 -130
116 -175 386 -442 160 -158 266 -272 290 -310 21 -33 47 -73 59 -90 11 -16 33
-52 48 -80 15 -27 28 -46 28 -41 0 13 -74 250 -108 347 -50 140 -68 175 -131
250 -56 66 -101 154 -101 197 0 66 -156 510 -271 775 -18 40 -49 112 -69 161
-38 89 -38 89 -44 40 -15 -106 93 -493 229 -822 48 -117 53 -154 22 -160 -31
-6 -98 77 -160 196 -74 142 -112 243 -187 497 -35 116 -80 244 -100 285 -101
201 -307 408 -510 510 -131 66 -335 130 -576 180 -139 29 -174 34 -174 27z"/>
<path d="M4379 7639 c41 -24 118 -46 329 -95 327 -76 410 -100 518 -152 97
-48 154 -95 154 -128 0 -35 -20 -32 -177 27 -158 58 -244 82 -358 98 -44 7
-156 26 -250 42 -215 39 -315 38 -396 -5 -30 -15 -99 -44 -154 -63 -55 -19
-134 -53 -175 -77 -93 -52 -125 -66 -153 -66 -12 0 12 -14 53 -31 41 -17 84
-39 95 -49 38 -36 110 -59 310 -99 110 -22 243 -55 295 -72 215 -71 719 -308
953 -447 137 -81 334 -247 537 -451 108 -108 226 -236 264 -286 92 -122 168
-281 205 -425 40 -158 45 -207 31 -314 -13 -91 -13 -91 23 -198 42 -125 91
-225 159 -325 66 -99 100 -136 157 -172 52 -34 74 -73 101 -176 7 -27 19 -57
25 -65 7 -8 20 -28 28 -45 16 -29 16 -26 17 90 0 66 7 163 15 215 38 244 -2
689 -82 932 -32 96 -91 191 -132 212 -37 20 -36 20 -55 0 -24 -23 -20 -63 23
-212 72 -251 160 -596 177 -692 21 -128 7 -210 -36 -210 -26 0 -26 1 -115 265
-84 252 -153 564 -179 805 -7 69 -20 142 -29 162 -24 58 -106 172 -223 313
-59 71 -157 195 -217 275 -144 190 -151 198 -202 206 -63 9 -126 50 -260 168
-65 58 -122 106 -125 107 -3 0 -39 1 -80 2 -66 2 -85 7 -165 46 -49 24 -179
86 -288 137 -109 51 -224 109 -256 128 -195 119 -346 156 -706 174 -136 7
-140 8 -143 30 -3 17 4 26 30 36 54 23 193 39 338 39 113 1 156 -4 265 -29
130 -29 181 -32 307 -19 79 9 146 -6 338 -71 69 -23 143 -45 165 -49 118 -21
220 -106 330 -275 148 -227 257 -360 296 -360 31 0 43 44 30 110 -15 73 -122
290 -209 420 -72 108 -280 352 -348 409 -56 47 -225 127 -329 156 -139 40
-306 65 -460 71 -77 2 -180 6 -229 9 -90 4 -90 4 -37 -26z"/>
<path d="M4041 7506 c2 -2 29 -6 59 -10 38 -4 50 -3 40 4 -13 9 -109 15 -99 6z"/>
<path d="M4788 7173 c-21 -5 -23 -33 -5 -55 25 -31 81 -61 259 -139 101 -44
242 -113 314 -154 72 -41 138 -75 146 -75 29 0 31 38 6 88 -51 99 -184 175
-488 279 -148 51 -202 64 -232 56z"/>
<path d="M3675 7006 c-27 -7 -82 -24 -121 -38 -71 -24 -71 -24 -15 -40 31 -10
108 -27 171 -38 187 -35 489 -116 730 -195 124 -41 268 -86 320 -100 119 -33
243 -97 340 -174 87 -70 395 -397 440 -467 34 -54 41 -122 15 -144 -18 -15
-20 -14 -141 94 -49 43 -120 100 -158 125 -67 44 -72 46 -135 43 -148 -5 -331
44 -570 155 -321 149 -527 218 -796 269 -88 16 -180 27 -246 28 -106 1 -106 1
-209 -51 -95 -48 -102 -53 -80 -61 14 -5 84 -13 155 -16 149 -9 324 -29 440
-52 135 -27 263 -70 507 -168 239 -96 372 -143 608 -216 137 -43 213 -78 379
-175 52 -30 125 -66 163 -81 84 -32 113 -63 253 -274 188 -285 232 -395 183
-457 -6 -7 -16 -9 -23 -5 -7 4 -52 66 -100 137 -216 319 -289 396 -505 523
-47 28 -119 76 -160 108 -105 80 -153 100 -520 220 -202 66 -373 128 -452 165
-192 89 -355 127 -648 150 -178 13 -205 7 -330 -76 -81 -54 -81 -54 -34 -61
26 -4 88 -4 138 0 195 13 598 -29 723 -76 60 -22 91 -55 70 -74 -9 -10 -47 -8
-172 7 -90 11 -266 22 -400 26 -278 7 -282 6 -408 -90 -68 -51 -68 -52 -40
-59 15 -4 69 -3 118 3 50 6 260 9 475 8 331 -1 392 1 435 15 28 8 69 16 93 16
61 0 214 -33 447 -97 304 -83 419 -133 402 -176 -10 -26 -53 -21 -276 34 -252
62 -365 85 -467 98 -47 5 -284 6 -589 2 -510 -7 -510 -7 -564 -36 -29 -16 -72
-46 -95 -65 -22 -20 -50 -42 -61 -49 -17 -10 -10 -11 40 -7 195 15 710 27 955
23 311 -6 342 -9 710 -81 124 -25 275 -49 335 -54 130 -12 199 -37 320 -117
95 -64 146 -114 214 -215 103 -151 227 -250 312 -250 32 0 43 -7 74 -42 52
-60 139 -210 171 -293 22 -56 27 -88 28 -157 1 -77 -2 -90 -21 -109 -12 -12
-28 -19 -36 -16 -8 3 -42 59 -77 124 -107 203 -178 288 -355 420 -125 93 -156
110 -247 127 -40 8 -118 31 -173 51 -366 135 -709 211 -1105 246 -248 22 -588
-6 -740 -60 -30 -10 -111 -46 -180 -79 -127 -62 -126 -61 -254 -199 -39 -42
-39 -42 10 -29 27 7 124 42 214 78 343 137 425 153 755 153 199 -1 265 -5 384
-23 338 -53 599 -117 829 -203 311 -116 382 -169 611 -453 102 -125 172 -196
256 -256 58 -41 102 -122 159 -291 59 -174 76 -271 86 -506 10 -246 15 -278
43 -298 19 -13 23 -13 40 3 29 26 44 67 78 224 36 162 47 311 29 402 -6 34
-32 144 -58 246 -41 163 -46 198 -47 295 0 102 2 113 28 157 15 26 27 57 27
71 0 64 -89 266 -180 407 -39 60 -106 182 -149 272 -44 90 -114 222 -157 293
-95 161 -114 200 -114 246 0 49 21 67 54 46 64 -42 180 -219 306 -467 106
-208 146 -263 189 -258 24 3 26 7 29 55 6 100 -104 378 -216 546 -62 96 -143
180 -237 250 -44 32 -151 133 -238 223 -287 297 -539 473 -857 599 -242 95
-415 152 -660 215 -146 38 -278 73 -293 79 -37 14 -119 13 -182 -3z"/>
<path d="M3510 6760 c-30 -10 -85 -31 -122 -47 -67 -29 -67 -29 -20 -41 26 -6
106 -19 177 -27 399 -48 811 -174 1056 -325 167 -103 221 -124 314 -125 60 -1
92 -7 128 -23 151 -69 146 20 -10 168 -127 121 -239 173 -324 150 -35 -10 -50
-6 -146 31 -284 109 -511 177 -766 230 -164 33 -211 35 -287 9z m1281 -360
c121 -67 168 -111 155 -146 -5 -12 -15 -10 -58 12 -129 65 -197 119 -198 157
0 26 20 21 101 -23z"/>
<path d="M6825 6350 c3 -14 23 -99 45 -190 22 -91 40 -178 40 -193 0 -16 4
-26 10 -22 16 10 12 54 -15 155 -24 94 -89 298 -80 250z"/>
<path d="M3100 5514 c-19 -8 -64 -46 -101 -84 -65 -69 -65 -69 -4 -79 34 -6
83 -11 109 -11 61 0 57 -14 -18 -58 -31 -18 -85 -60 -119 -92 -61 -58 -61 -58
-17 -50 99 17 191 63 270 135 66 61 86 68 255 92 91 13 191 17 410 17 321 0
410 -8 730 -70 320 -62 430 -95 628 -186 132 -60 183 -71 194 -42 18 47 -83
144 -221 212 -111 55 -179 74 -448 126 -525 102 -689 116 -1150 98 -167 -6
-313 -9 -323 -7 -64 13 -163 12 -195 -1z m48 -89 c28 -8 47 -42 33 -59 -8 -10
-22 -7 -66 13 -56 26 -69 46 -37 54 18 5 31 3 70 -8z"/>
<path d="M3795 5029 c-127 -8 -204 -21 -331 -54 -122 -32 -341 -111 -384 -140
-20 -12 -63 -58 -97 -102 -61 -80 -61 -80 -24 -72 20 4 84 28 143 53 243 102
482 167 688 186 141 14 240 6 390 -30 63 -16 201 -42 305 -60 319 -53 560
-124 743 -220 128 -66 190 -139 126 -148 -12 -2 -88 24 -170 56 -263 105 -444
153 -698 187 -171 22 -277 20 -309 -5 -49 -38 -113 -59 -262 -85 -280 -48
-526 -118 -720 -205 -66 -29 -92 -57 -169 -176 -33 -51 -33 -51 13 -34 25 10
89 38 141 63 240 113 406 164 782 239 254 51 269 53 423 52 234 -1 385 -32
762 -155 223 -74 277 -102 271 -143 -6 -43 -62 -35 -338 50 -403 124 -641 154
-928 119 -328 -41 -648 -126 -873 -233 -97 -45 -123 -70 -177 -169 -47 -85
-63 -87 163 23 314 152 643 235 990 250 241 11 438 -20 796 -126 111 -33 238
-67 283 -76 110 -22 162 -43 227 -91 198 -146 322 -384 383 -734 44 -253 49
-320 42 -534 -7 -200 -7 -200 50 -100 71 125 120 230 140 304 16 56 16 59 -11
141 -14 47 -35 139 -46 205 -83 516 -135 639 -387 912 -103 111 -191 232 -239
327 -53 106 -120 165 -266 235 -209 102 -416 161 -797 230 -324 59 -455 71
-635 60z"/>
<path d="M3800 4800 c-207 -26 -494 -106 -666 -186 -51 -24 -96 -73 -152 -165
-22 -37 -22 -37 10 -29 18 4 89 33 158 63 289 126 535 187 902 222 105 10 128
44 54 79 -44 21 -199 29 -306 16z"/>
<path d="M6433 4458 c-18 -22 1 -103 76 -331 38 -116 86 -275 106 -352 53
-206 72 -257 104 -282 29 -23 29 -23 42 95 21 177 19 394 -5 462 -44 130 -169
336 -237 388 -35 28 -73 37 -86 20z"/>
<path d="M4134 4159 c-266 -20 -558 -98 -792 -212 -50 -24 -93 -52 -107 -71
-30 -40 -88 -156 -81 -163 6 -6 23 3 206 99 449 238 996 282 1495 121 378
-122 590 -278 715 -528 77 -152 91 -265 34 -273 -16 -2 -29 15 -68 85 -161
295 -336 451 -642 573 -470 187 -995 169 -1449 -50 -90 -43 -106 -55 -133 -97
-17 -27 -38 -69 -47 -93 -8 -24 -21 -50 -27 -57 -16 -19 53 12 109 50 171 113
463 215 668 232 39 3 94 8 123 10 136 12 402 -28 571 -84 267 -90 466 -235
660 -481 45 -58 108 -128 140 -157 32 -29 66 -68 75 -87 29 -61 54 -179 76
-353 14 -114 27 -183 42 -215 21 -48 21 -48 77 95 56 142 56 142 54 262 -1
156 -29 456 -49 548 -58 260 -231 492 -445 598 -150 75 -482 182 -676 219
-193 36 -337 44 -529 29z"/>
<path d="M4055 3674 c-256 -26 -582 -143 -635 -228 -17 -29 -70 -151 -70 -163
0 -6 84 39 125 67 64 44 179 98 273 130 125 42 245 60 397 60 215 0 383 -39
570 -131 116 -57 192 -112 289 -206 234 -230 339 -498 305 -780 -6 -54 -12
-125 -13 -158 -1 -60 -1 -60 69 14 152 160 168 212 125 420 -33 165 -75 250
-206 422 -273 357 -622 536 -1074 553 -63 2 -133 2 -155 0z"/>
<path d="M3990 3429 c-97 -11 -232 -50 -328 -95 -83 -38 -116 -63 -139 -108
-23 -45 -53 -136 -44 -136 4 0 36 18 72 40 230 143 426 195 650 170 243 -27
445 -123 609 -290 120 -122 191 -261 194 -379 2 -113 -35 -161 -128 -164 -59
-2 -102 28 -200 142 -165 191 -278 277 -431 328 -65 21 -99 26 -185 27 -178 1
-246 -38 -288 -163 -19 -56 -19 -56 69 -12 79 40 98 45 172 49 98 5 167 -12
267 -64 90 -47 170 -122 291 -271 101 -124 148 -175 257 -276 40 -37 52 -44
52 -29 0 22 30 51 130 124 126 93 138 113 147 248 25 407 -407 810 -923 860
-113 11 -140 11 -244 -1z"/>
<path d="M6552 3400 c-12 -13 -36 -91 -69 -223 -28 -111 -54 -211 -57 -222
-21 -62 107 205 133 279 48 136 45 221 -7 166z"/>
<path d="M3958 3190 c-72 -13 -158 -39 -215 -66 -59 -28 -84 -61 -117 -158
-22 -63 -22 -63 28 -33 171 103 273 137 411 137 275 0 512 -137 696 -402 110
-157 140 -183 154 -137 13 39 -8 122 -51 210 -101 200 -321 370 -564 433 -75
20 -273 29 -342 16z"/>
<path d="M3983 2709 c-18 -11 -43 -40 -56 -64 -24 -43 -24 -43 9 -29 65 27
146 -7 223 -93 29 -32 65 -84 81 -116 23 -47 30 -54 35 -37 3 11 19 27 35 36
84 50 60 163 -53 245 -106 78 -209 100 -274 58z"/>
</g>
</svg>
