<?xml version="1.0" standalone="no"?>
<!DOCTYPE svg PUBLIC "-//W3C//DTD SVG 20010904//EN"
 "http://www.w3.org/TR/2001/REC-SVG-20010904/DTD/svg10.dtd">
<svg version="1.0" xmlns="http://www.w3.org/2000/svg"
 width="1000.000000pt" height="1000.000000pt" viewBox="0 0 1000.000000 1000.000000"
 preserveAspectRatio="xMidYMid meet">
<metadata>
  <rdf:RDF
    xmlns:rdf = "http://www.w3.org/1999/02/22-rdf-syntax-ns#"
    xmlns:rdfs = "http://www.w3.org/2000/01/rdf-schema#"
    xmlns:dc = "http://purl.org/dc/elements/1.1/"
    xmlns:cc = "http://creativecommons.org/ns#">
    <cc:license rdf:resource="http://creativecommons.org/publicdomain/zero/1.0/deed.en"/>
    <cc:permits rdf:resource="http://creativecommons.org/ns#Reproduction"/>
    <rdf:Description about="https://nft.mir.one/fingerprints"
      dc:title="TON Fingerprints"
      dc:description="This is a unique digital fingerprint created based on the algorithm for generating basic rings using a noise texture. Like human fingerprints, you can now use it for the Web3 and Metaverse era as digital biometric information."
      dc:publisher="https://nft.mir.one"
      dc:date="2022-02-22"
      dc:format="image/svg+xml"
      dc:language="en" >
      <dc:creator>
      <rdf:Bag>
        <rdf:li>EQBondcvD2_aOFADXSWJHs4ZazQDuEl9_wNvGGPxI8hGuOFU</rdf:li>
        <rdf:li>ipfs://bafkreihj7iub3fhmhq6jn62noukt5wxn3gv6bvcg7wmt6ywvlurefezckq</rdf:li>
      </rdf:Bag>
      </dc:creator>
    </rdf:Description>
  </rdf:RDF>
</metadata>
<g transform="translate(0.000000,1000.000000) scale(0.100000,-0.100000)"
fill="#1b1f23" stroke="none">
<path d="M5330 7720 c40 -44 77 -80 83 -80 5 0 249 -240 541 -533 381 -382
561 -571 636 -665 105 -132 105 -132 152 -132 55 0 93 -13 128 -43 14 -12 2 3
-26 33 -29 30 -103 123 -164 205 -201 267 -452 547 -719 799 -220 208 -337
293 -620 450 -83 46 -83 46 -11 -34z"/>
<path d="M4645 7735 c27 -21 102 -67 165 -103 301 -167 556 -371 818 -655 163
-176 258 -304 277 -375 35 -131 50 -172 105 -293 32 -69 81 -191 108 -270 28
-79 73 -207 102 -284 28 -77 91 -257 140 -400 49 -143 114 -321 146 -395 133
-315 141 -364 174 -961 9 -166 11 -184 50 -300 22 -68 40 -129 40 -136 0 -7 4
-13 9 -13 8 0 10 11 35 310 24 284 29 454 17 610 -14 188 -31 253 -95 380 -70
138 -108 235 -226 574 -217 622 -279 774 -422 1023 -40 71 -68 129 -64 138 3
8 17 15 31 15 58 0 195 -174 285 -363 63 -131 221 -553 350 -933 56 -165 112
-318 126 -341 41 -72 104 -67 104 8 0 112 -88 426 -207 739 -47 124 -113 305
-148 402 -34 98 -81 210 -104 250 -73 127 -176 244 -332 374 -89 75 -209 192
-315 306 -256 275 -477 475 -599 543 -98 55 -267 112 -434 145 -80 15 -155 32
-166 36 -11 4 2 -10 30 -31z"/>
<path d="M4331 7604 c50 -72 105 -124 189 -176 41 -25 136 -83 210 -129 331
-204 609 -453 821 -735 75 -100 263 -393 304 -474 30 -59 32 -90 7 -90 -45 0
-136 98 -300 319 -263 357 -496 586 -797 783 -161 106 -361 204 -455 224 -82
17 -269 21 -399 9 -83 -7 -83 -7 -55 -32 43 -35 97 -58 329 -135 242 -80 388
-147 536 -246 229 -154 420 -340 672 -654 158 -197 188 -227 324 -327 167
-122 221 -227 322 -628 71 -284 76 -333 52 -479 -11 -66 -25 -193 -31 -284
-18 -280 -58 -422 -176 -633 -31 -56 -83 -138 -115 -182 -76 -105 -131 -224
-217 -470 -39 -110 -105 -294 -147 -409 -87 -240 -105 -306 -105 -395 0 -44
-7 -81 -23 -120 -13 -31 -31 -77 -39 -103 -15 -47 -15 -47 24 -14 21 18 75 53
119 77 137 75 224 136 287 203 120 129 123 135 347 722 215 564 236 636 198
683 -17 20 -22 22 -41 12 -38 -20 -157 -284 -344 -761 -145 -372 -205 -506
-269 -604 -52 -78 -93 -116 -127 -116 -44 0 -42 8 77 273 39 86 109 260 157
385 47 125 102 265 121 312 57 139 201 419 262 509 31 46 69 103 84 126 52 78
69 194 73 487 1 142 5 267 9 278 4 12 14 20 23 18 28 -5 58 -63 78 -150 17
-75 19 -123 18 -483 0 -383 -1 -404 -23 -485 -35 -131 -315 -897 -393 -1075
-35 -79 -80 -205 -74 -205 10 0 185 234 229 305 112 184 124 213 287 680 54
154 111 314 126 355 28 73 29 82 32 300 7 411 -24 595 -139 830 -45 92 -89
204 -125 319 -105 334 -137 426 -195 572 -37 94 -64 180 -74 239 -19 112 -29
138 -142 366 -128 261 -204 365 -423 585 -196 197 -393 351 -629 493 -127 77
-148 85 -334 131 -76 19 -143 38 -149 41 -6 4 4 -15 23 -42z"/>
<path d="M4108 7505 c38 -32 93 -55 131 -55 69 0 38 44 -42 59 -127 24 -122
24 -89 -4z"/>
<path d="M6270 7237 c0 -2 15 -16 33 -33 32 -29 32 -29 3 4 -28 30 -36 37 -36
29z"/>
<path d="M3725 7103 c-11 -2 -44 -9 -73 -14 -54 -11 -54 -11 -26 -40 15 -16
59 -48 98 -70 97 -58 246 -161 275 -193 20 -21 25 -40 32 -119 8 -101 32 -181
75 -254 14 -25 110 -150 212 -277 212 -264 315 -415 400 -589 88 -178 222
-524 323 -830 49 -147 94 -278 100 -290 19 -37 51 -67 72 -67 19 0 20 5 14 78
-10 130 -55 318 -127 527 -225 660 -254 730 -379 916 -89 133 -182 248 -354
440 -151 167 -197 230 -197 266 0 53 60 20 219 -121 235 -208 488 -526 597
-749 31 -64 44 -105 49 -155 10 -98 30 -168 100 -352 105 -276 145 -422 165
-607 14 -122 3 -193 -37 -235 -25 -27 -25 -27 -14 -165 7 -76 19 -190 27 -253
24 -197 16 -359 -32 -580 -66 -309 -238 -778 -359 -976 -53 -88 -65 -111 -90
-169 -17 -39 -16 -39 1 -24 11 9 48 31 84 49 81 40 178 108 217 153 20 23 45
80 82 193 29 87 82 242 118 344 35 102 101 309 145 460 81 275 81 275 83 400
1 115 4 131 32 200 77 189 115 398 116 640 0 257 -41 458 -128 616 -62 113
-201 318 -277 409 -42 50 -118 151 -168 225 -148 216 -246 336 -395 485 -203
203 -344 298 -493 331 -41 9 -85 26 -98 38 -22 18 -23 23 -12 39 20 28 84 38
153 26 319 -57 759 -480 1110 -1069 106 -177 183 -289 246 -355 72 -76 104
-141 140 -283 41 -160 55 -356 40 -541 -19 -232 -51 -370 -146 -615 -32 -84
-31 -129 3 -134 45 -7 108 76 174 230 84 194 116 377 125 713 6 237 3 275 -47
505 -16 74 -38 181 -49 238 -12 63 -33 132 -54 175 -42 89 -123 188 -173 212
-36 17 -38 17 -51 -1 -17 -23 -11 -40 54 -156 65 -115 93 -186 93 -233 0 -76
-38 -51 -111 73 -77 131 -109 198 -128 275 -24 97 -44 132 -157 283 -325 433
-636 702 -951 820 -35 13 -118 40 -185 60 -68 19 -163 51 -212 70 -73 28 -100
34 -160 33 -39 -1 -80 -3 -91 -6z m1478 -1553 c60 -47 198 -309 257 -489 53
-161 72 -284 72 -466 0 -150 -20 -321 -57 -483 -42 -182 -105 -123 -86 80 5
51 17 149 26 218 36 270 -13 524 -172 885 -89 201 -105 245 -99 262 8 19 29
16 59 -7z"/>
<path d="M6415 7080 c10 -11 20 -20 23 -20 3 0 -3 9 -13 20 -10 11 -20 20 -23
20 -3 0 3 -9 13 -20z"/>
<path d="M3498 6834 c-3 -3 -27 -8 -52 -12 -46 -7 -46 -7 -13 -39 17 -18 69
-60 114 -93 119 -88 176 -169 151 -214 -13 -23 -35 -15 -141 52 -84 53 -89 55
-141 49 -30 -3 -79 -13 -109 -23 -55 -17 -55 -17 -26 -46 31 -32 260 -145 349
-173 86 -27 139 -66 266 -198 303 -312 507 -600 684 -969 65 -137 398 -917
454 -1064 53 -140 116 -155 116 -27 0 76 -25 160 -83 289 -30 65 -85 202 -122
304 -80 220 -151 397 -235 586 -142 322 -258 503 -550 859 -153 185 -214 278
-277 422 -59 131 -105 197 -180 258 -54 44 -56 45 -127 45 -40 0 -75 -3 -78
-6z"/>
<path d="M3262 6294 c-29 -7 -66 -21 -82 -29 -16 -8 -37 -15 -47 -15 -30 0 50
-59 184 -135 300 -171 508 -357 728 -648 130 -173 209 -306 361 -612 85 -170
189 -377 232 -460 95 -182 237 -514 262 -610 91 -354 -58 -878 -374 -1320 -39
-55 -79 -117 -89 -138 -17 -37 -17 -37 11 -23 15 8 47 19 72 26 58 16 148 61
189 96 41 34 67 75 137 215 184 367 290 799 264 1075 -12 136 -24 168 -85 234
-60 66 -71 85 -150 265 -51 118 -177 393 -337 740 -135 292 -283 536 -454 750
-107 133 -314 343 -406 411 -74 54 -298 178 -338 187 -14 3 -49 -1 -78 -9z"/>
<path d="M6683 6278 c-36 -46 -20 -117 77 -343 169 -395 262 -713 263 -900 0
-41 -9 -101 -21 -145 -19 -69 -20 -99 -18 -387 1 -172 5 -315 8 -318 3 -3 10
41 16 97 6 57 18 166 26 243 23 221 35 499 26 607 -31 344 -146 752 -299 1055
-44 89 -63 110 -78 91z"/>
<path d="M3150 5976 c-19 -8 -56 -25 -81 -38 -46 -25 -46 -25 -15 -60 17 -20
90 -72 162 -117 172 -106 296 -202 419 -326 281 -282 539 -733 562 -980 8 -89
-14 -367 -37 -470 -11 -49 -36 -162 -55 -250 -42 -195 -80 -310 -139 -421 -48
-90 -138 -219 -221 -319 -27 -33 -62 -79 -77 -101 -27 -41 -27 -41 20 -37 74
7 164 32 185 51 11 9 49 60 85 112 36 52 89 121 118 152 82 89 124 224 168
538 32 225 63 300 97 238 9 -16 13 -73 13 -193 -1 -137 -6 -201 -28 -330 -43
-253 -35 -380 24 -380 81 0 170 435 141 689 -13 117 -39 203 -75 250 -48 63
-63 113 -81 271 -11 91 31 139 67 78 27 -46 168 -410 190 -491 30 -107 32
-405 4 -532 -35 -161 -76 -256 -162 -373 -23 -31 -72 -106 -108 -165 -36 -59
-93 -141 -126 -182 -33 -41 -60 -80 -60 -86 0 -6 -10 -24 -22 -39 -21 -26 -21
-27 -1 -17 11 6 52 18 90 26 100 21 169 53 206 97 76 90 229 363 283 507 14
36 37 114 52 172 24 95 27 123 27 295 0 211 -5 241 -77 440 -61 169 -157 360
-229 455 -39 52 -84 129 -114 195 -288 641 -590 1018 -1039 1299 -94 59 -109
63 -166 42z"/>
<path d="M3075 5589 c-22 -12 -58 -37 -79 -55 -22 -19 -46 -34 -54 -34 -22 0
41 -42 149 -100 199 -107 380 -272 522 -475 42 -60 101 -144 131 -186 108
-151 142 -250 153 -434 20 -379 -117 -818 -341 -1090 -23 -27 -53 -68 -67 -90
-26 -40 -26 -40 55 -34 108 9 127 18 179 84 140 178 221 373 286 690 59 280
65 501 21 670 -66 250 -328 642 -566 847 -124 107 -306 228 -341 228 -5 0 -26
-10 -48 -21z"/>
<path d="M3034 5196 c-18 -8 -50 -30 -72 -50 -22 -20 -48 -36 -58 -36 -14 0
-11 -5 12 -19 18 -11 35 -24 38 -30 4 -6 51 -40 105 -76 171 -112 272 -243
335 -435 42 -129 55 -157 74 -165 39 -15 57 39 67 196 5 93 4 112 -15 163 -48
128 -206 312 -356 416 -79 54 -84 56 -130 36z"/>
<path d="M3015 4755 c-16 -9 -44 -26 -62 -38 -31 -24 -31 -24 70 -134 119
-128 196 -251 234 -371 23 -74 25 -94 21 -205 -4 -109 -9 -135 -45 -243 -23
-67 -46 -132 -53 -145 -10 -20 -10 -22 1 -11 7 6 30 12 51 12 63 0 116 27 138
71 60 117 97 350 80 499 -8 70 -15 92 -40 125 -45 60 -99 145 -155 242 -59
102 -157 213 -189 213 -11 -1 -34 -7 -51 -15z"/>
<path d="M3639 4604 c-9 -11 -16 -65 -21 -168 -25 -539 -66 -721 -214 -948
-26 -40 -57 -91 -69 -113 -22 -40 -22 -40 56 -34 48 3 87 12 103 23 63 41 168
256 215 440 45 173 55 257 56 451 0 199 -15 280 -63 336 -27 33 -44 36 -63 13z"/>
<path d="M6560 3658 c-11 -18 -25 -51 -31 -73 -20 -73 -86 -277 -157 -485 -39
-113 -73 -230 -77 -260 -6 -51 4 -34 133 226 140 285 196 426 208 526 11 94
-35 133 -76 66z"/>
<path d="M4138 3103 c-9 -10 -41 -67 -72 -128 -31 -60 -80 -141 -108 -179 -42
-55 -98 -141 -98 -151 0 -1 37 5 82 13 126 21 160 41 212 126 60 97 79 157 72
224 -11 96 -50 138 -88 95z"/>
</g>
</svg>
