<?xml version="1.0" standalone="no"?>
<!DOCTYPE svg PUBLIC "-//W3C//DTD SVG 20010904//EN"
 "http://www.w3.org/TR/2001/REC-SVG-20010904/DTD/svg10.dtd">
<svg version="1.0" xmlns="http://www.w3.org/2000/svg"
 width="1000.000000pt" height="1000.000000pt" viewBox="0 0 1000.000000 1000.000000"
 preserveAspectRatio="xMidYMid meet">
<metadata>
  <rdf:RDF
    xmlns:rdf = "http://www.w3.org/1999/02/22-rdf-syntax-ns#"
    xmlns:rdfs = "http://www.w3.org/2000/01/rdf-schema#"
    xmlns:dc = "http://purl.org/dc/elements/1.1/"
    xmlns:cc = "http://creativecommons.org/ns#">
    <cc:license rdf:resource="http://creativecommons.org/publicdomain/zero/1.0/deed.en"/>
    <cc:permits rdf:resource="http://creativecommons.org/ns#Reproduction"/>
    <rdf:Description about="https://nft.mir.one/fingerprints"
      dc:title="TON Fingerprints"
      dc:description="This is a unique digital fingerprint created based on the algorithm for generating basic rings using a noise texture. Like human fingerprints, you can now use it for the Web3 and Metaverse era as digital biometric information."
      dc:publisher="https://nft.mir.one"
      dc:date="2022-02-22"
      dc:format="image/svg+xml"
      dc:language="en" >
      <dc:creator>
      <rdf:Bag>
        <rdf:li>EQBondcvD2_aOFADXSWJHs4ZazQDuEl9_wNvGGPxI8hGuOFU</rdf:li>
        <rdf:li>ipfs://bafkreihj7iub3fhmhq6jn62noukt5wxn3gv6bvcg7wmt6ywvlurefezckq</rdf:li>
      </rdf:Bag>
      </dc:creator>
    </rdf:Description>
  </rdf:RDF>
</metadata>
<g transform="translate(0.000000,1000.000000) scale(0.100000,-0.100000)"
fill="#1b1f23" stroke="none">
<path d="M4863 7803 c26 -2 68 -2 95 0 26 2 4 3 -48 3 -52 0 -74 -1 -47 -3z"/>
<path d="M4753 7793 c9 -2 25 -2 35 0 9 3 1 5 -18 5 -19 0 -27 -2 -17 -5z"/>
<path d="M4698 7783 c6 -2 18 -2 25 0 6 3 1 5 -13 5 -14 0 -19 -2 -12 -5z"/>
<path d="M4658 7773 c7 -3 16 -2 19 1 4 3 -2 6 -13 5 -11 0 -14 -3 -6 -6z"/>
<path d="M4595 7760 c-13 -5 -14 -9 -5 -9 8 0 24 4 35 9 13 5 14 9 5 9 -8 0
-24 -4 -35 -9z"/>
<path d="M4548 7743 c7 -3 16 -2 19 1 4 3 -2 6 -13 5 -11 0 -14 -3 -6 -6z"/>
<path d="M4660 7579 c-276 -30 -567 -134 -850 -304 -52 -32 -99 -61 -103 -65
-13 -12 129 30 223 66 257 97 485 154 620 154 68 0 93 -5 148 -29 63 -27 77
-29 242 -34 256 -7 307 -23 544 -167 237 -142 357 -236 591 -460 61 -58 186
-177 279 -265 329 -311 486 -538 641 -925 36 -91 70 -169 76 -175 7 -7 7 -2 0
15 -6 14 -26 88 -46 165 -87 338 -251 677 -422 876 -26 31 -133 132 -238 225
-104 93 -280 257 -390 364 -193 189 -227 216 -400 318 -83 49 -120 91 -98 113
40 40 280 -32 398 -120 22 -16 56 -56 75 -88 96 -163 277 -340 640 -628 62
-49 138 -112 169 -140 55 -50 55 -50 -24 55 -53 70 -174 199 -361 385 -271
269 -324 329 -324 368 0 27 37 57 70 57 49 0 34 18 -21 25 -33 5 -99 31 -187
76 -202 103 -263 120 -462 130 -268 14 -699 18 -790 8z"/>
<path d="M4420 7304 c-240 -55 -459 -148 -620 -263 -47 -33 -137 -106 -200
-161 -63 -56 -149 -126 -190 -156 -41 -29 -86 -63 -100 -74 -25 -20 -25 -20
20 0 54 24 93 25 110 5 18 -22 6 -46 -105 -200 -51 -71 -124 -182 -162 -245
-39 -63 -87 -141 -107 -174 -38 -58 -38 -58 19 -15 33 25 109 106 179 192 66
81 149 183 184 225 34 42 80 107 102 144 50 84 120 146 257 228 59 36 123 83
143 104 109 122 190 166 440 241 85 25 174 53 198 61 80 29 129 91 86 108 -33
13 -154 4 -254 -20z"/>
<path d="M6167 7313 c-20 -31 30 -85 188 -207 55 -43 84 -63 65 -46 -205 189
-239 223 -242 243 -2 15 -6 18 -11 10z"/>
<path d="M4890 7179 c-36 -4 -150 -34 -255 -67 -104 -34 -244 -77 -310 -97
-217 -66 -312 -126 -269 -170 26 -25 91 -18 320 39 412 102 551 120 729 93
187 -29 413 -122 598 -245 134 -89 196 -149 241 -230 34 -63 57 -87 195 -205
279 -239 465 -471 627 -780 64 -124 75 -156 52 -158 -50 -5 -69 15 -201 210
-175 260 -298 407 -447 534 -165 140 -202 162 -406 231 -87 30 -224 77 -304
105 -204 71 -312 91 -510 98 -251 8 -507 -32 -757 -118 -208 -72 -341 -153
-563 -343 -141 -120 -187 -150 -215 -140 -42 17 18 106 176 262 226 222 372
304 683 382 258 65 439 91 626 91 261 0 400 -34 747 -183 115 -49 172 -68 195
-66 111 10 -38 141 -307 269 -141 67 -279 113 -408 135 -129 23 -367 14 -537
-20 -69 -14 -204 -41 -300 -60 -96 -19 -211 -42 -254 -50 -94 -18 -205 -69
-285 -130 -137 -105 -394 -402 -451 -521 -158 -328 -197 -515 -106 -515 26 0
62 30 112 95 70 91 108 126 224 205 63 43 172 121 242 172 214 156 379 240
598 303 201 57 290 69 530 70 258 0 347 -15 622 -105 283 -93 428 -171 600
-322 139 -123 256 -270 570 -716 54 -77 101 -187 118 -282 17 -90 15 -252 -4
-332 -24 -104 -143 -416 -187 -489 -59 -101 -131 -152 -165 -117 -13 13 -11
23 15 84 43 101 73 228 75 314 1 70 -1 79 -36 135 -24 39 -53 113 -82 210 -68
229 -131 363 -259 555 -294 440 -545 599 -1022 651 -144 15 -352 6 -485 -21
-281 -57 -553 -191 -784 -388 -190 -160 -290 -330 -317 -539 -12 -94 -29 -201
-55 -340 -20 -107 -14 -379 10 -488 49 -224 105 -327 218 -402 40 -27 94 -64
119 -82 47 -34 121 -52 133 -32 10 16 -15 58 -88 148 -157 195 -212 325 -237
567 -17 163 12 315 63 332 40 12 50 -15 59 -163 17 -270 43 -364 167 -605 85
-164 86 -169 84 -233 -2 -66 -2 -66 81 -152 141 -147 263 -218 492 -288 251
-76 507 -122 735 -132 127 -5 160 -3 254 16 231 48 452 143 620 268 147 110
427 402 526 550 81 121 164 364 205 598 36 208 29 440 -19 650 -14 58 -23 131
-23 175 0 100 -39 213 -129 371 -129 226 -227 343 -569 682 -409 404 -497 473
-770 608 -204 101 -376 138 -545 118z m445 -1389 c159 -22 309 -90 420 -192
55 -50 248 -311 333 -450 74 -120 124 -230 173 -379 73 -222 89 -315 89 -523
0 -134 4 -185 15 -213 21 -50 19 -68 -15 -132 -135 -252 -421 -469 -719 -544
-71 -18 -114 -21 -246 -21 -140 0 -180 5 -320 33 -610 124 -761 222 -965 630
-112 226 -155 413 -148 645 5 148 9 158 132 286 71 75 100 114 134 183 51 102
99 149 229 224 46 26 120 70 166 97 127 75 167 88 287 94 178 8 215 -6 558
-210 176 -104 219 -135 287 -203 245 -245 349 -693 239 -1025 -55 -163 -183
-314 -330 -386 -75 -38 -82 -39 -218 -46 -78 -4 -159 -11 -180 -17 -26 -6 -46
-6 -58 0 -34 18 -20 53 51 135 139 160 265 358 305 479 41 128 39 292 -8 425
-81 234 -297 422 -562 489 -94 23 -277 51 -339 51 -81 0 -189 -55 -272 -138
-60 -59 -182 -232 -218 -307 -71 -148 -74 -308 -10 -520 48 -159 139 -311 255
-425 146 -144 315 -215 573 -241 98 -9 122 -16 192 -50 100 -49 174 -63 290
-55 218 14 413 109 565 274 83 90 143 204 166 317 25 122 23 362 -5 491 -56
267 -176 512 -345 704 -57 64 -66 80 -66 113 0 52 -19 85 -85 145 -133 121
-305 180 -398 136 -32 -15 -41 -15 -125 0 -104 19 -301 22 -382 6 -179 -36
-370 -124 -619 -285 -219 -141 -261 -187 -321 -348 -50 -134 -130 -121 -108
18 10 68 77 198 133 262 184 209 575 422 875 477 97 18 453 15 595 -4z m88
-226 c123 -62 317 -190 317 -209 0 -21 -45 -26 -89 -10 -23 8 -106 52 -185 99
-136 81 -196 130 -196 162 0 26 40 15 153 -42z m-1303 -402 c0 -36 -107 -162
-136 -162 -44 0 -11 95 53 150 39 34 83 40 83 12z m850 -127 c268 -69 450
-295 450 -558 0 -186 -95 -370 -265 -515 -151 -129 -315 -145 -514 -50 -47 22
-89 54 -147 112 -120 121 -184 249 -204 415 -29 225 101 475 297 575 93 47
249 56 383 21z"/>
<path d="M4815 5413 c-120 -26 -119 -94 2 -108 192 -21 306 -56 438 -132 319
-184 478 -450 463 -773 -9 -175 -64 -307 -201 -476 -35 -43 -69 -89 -75 -101
-36 -66 10 -91 92 -51 155 77 285 250 333 445 25 104 23 303 -5 417 -24 97
-90 246 -143 322 -114 167 -479 405 -685 449 -65 14 -175 18 -219 8z"/>
<path d="M4765 4930 c-99 -20 -205 -94 -261 -182 -65 -102 -82 -256 -44 -381
68 -220 293 -363 490 -313 183 47 323 219 338 417 21 279 -247 514 -523 459z
m215 -157 c160 -65 191 -322 55 -442 -51 -45 -93 -61 -158 -61 -97 0 -177 51
-224 144 -30 59 -36 146 -14 210 15 44 81 120 123 142 67 35 145 37 218 7z"/>
<path d="M4844 4671 c-46 -28 -64 -59 -64 -109 0 -37 6 -50 34 -78 37 -37 77
-44 113 -19 33 23 35 52 5 86 -25 30 -25 32 -7 45 10 8 27 14 36 14 40 0 35
50 -7 68 -36 17 -75 15 -110 -7z"/>
<path d="M4655 6235 c-383 -62 -690 -217 -1074 -539 -97 -82 -262 -270 -297
-339 -34 -67 -50 -136 -76 -342 -19 -148 -23 -227 -23 -445 1 -245 3 -283 33
-492 38 -265 52 -316 131 -471 70 -139 137 -232 230 -319 82 -78 153 -122 286
-179 55 -24 150 -67 210 -97 110 -54 110 -54 150 -32 61 35 123 30 346 -30
304 -82 357 -90 591 -97 220 -6 227 -8 204 -54 -66 -133 -445 -112 -897 51
-99 36 -259 90 -266 90 -2 0 -3 -17 -3 -37 0 -124 380 -297 787 -358 188 -28
607 -14 716 24 152 53 301 155 374 258 25 35 100 113 166 174 212 193 366 366
473 529 59 92 214 371 214 386 0 11 -97 -98 -170 -191 -80 -102 -291 -310
-398 -395 -149 -117 -255 -177 -377 -215 -528 -162 -529 -162 -617 -140 -31 9
-142 26 -246 40 -209 27 -267 38 -469 89 -308 78 -463 133 -540 192 -18 14
-60 60 -93 104 -59 77 -92 109 -240 231 -91 75 -114 87 -135 69 -41 -34 0
-107 146 -256 66 -67 119 -129 119 -138 0 -8 -11 -18 -25 -22 -62 -16 -233
114 -314 239 -42 63 -121 290 -161 460 -78 327 -79 706 -4 1082 55 277 234
506 571 731 461 308 1009 383 1528 210 313 -105 540 -296 784 -659 148 -222
215 -378 261 -609 17 -83 36 -158 42 -165 18 -23 51 -10 72 27 18 30 21 52 21
160 -1 87 -6 145 -19 190 -28 105 -105 254 -214 415 -227 337 -417 533 -642
660 -141 80 -383 164 -577 201 -123 23 -457 28 -578 9z m1349 -3315 c17 -17
-4 -40 -76 -87 -140 -91 -343 -157 -382 -124 -40 34 24 88 183 155 167 71 244
86 275 56z"/>
<path d="M2977 5665 c-24 -213 -32 -259 -53 -309 -5 -13 -4 -17 3 -13 22 14
41 -5 48 -46 8 -47 8 -93 4 -487 -4 -337 7 -437 88 -779 23 -101 28 -111 35
-86 9 34 9 40 -29 260 -24 142 -27 185 -28 390 0 161 6 278 19 390 21 186 17
248 -23 319 -25 44 -30 66 -36 161 -3 61 -10 146 -14 190 -7 80 -7 80 -14 10z"/>
<path d="M3360 3265 c101 -125 343 -361 475 -463 385 -298 676 -430 1110 -503
261 -44 482 -29 739 51 105 34 127 49 33 24 -40 -10 -119 -15 -274 -16 -187
-2 -237 1 -348 21 -345 60 -656 163 -855 283 -30 19 -108 73 -173 121 -64 49
-177 125 -250 170 -72 44 -157 99 -188 122 -153 109 -199 145 -263 205 -70 65
-70 65 -6 -15z"/>
<path d="M6265 2758 c-70 -73 -70 -73 3 -3 67 64 77 75 69 75 -1 0 -34 -33
-72 -72z"/>
</g>
</svg>
