<?xml version="1.0" standalone="no"?>
<!DOCTYPE svg PUBLIC "-//W3C//DTD SVG 20010904//EN"
 "http://www.w3.org/TR/2001/REC-SVG-20010904/DTD/svg10.dtd">
<svg version="1.0" xmlns="http://www.w3.org/2000/svg"
 width="1000.000000pt" height="1000.000000pt" viewBox="0 0 1000.000000 1000.000000"
 preserveAspectRatio="xMidYMid meet">
<metadata>
  <rdf:RDF
    xmlns:rdf = "http://www.w3.org/1999/02/22-rdf-syntax-ns#"
    xmlns:rdfs = "http://www.w3.org/2000/01/rdf-schema#"
    xmlns:dc = "http://purl.org/dc/elements/1.1/"
    xmlns:cc = "http://creativecommons.org/ns#">
    <cc:license rdf:resource="http://creativecommons.org/publicdomain/zero/1.0/deed.en"/>
    <cc:permits rdf:resource="http://creativecommons.org/ns#Reproduction"/>
    <rdf:Description about="https://nft.mir.one/fingerprints"
      dc:title="TON Fingerprints"
      dc:description="This is a unique digital fingerprint created based on the algorithm for generating basic rings using a noise texture. Like human fingerprints, you can now use it for the Web3 and Metaverse era as digital biometric information."
      dc:publisher="https://nft.mir.one"
      dc:date="2022-02-22"
      dc:format="image/svg+xml"
      dc:language="en" >
      <dc:creator>
      <rdf:Bag>
        <rdf:li>EQBondcvD2_aOFADXSWJHs4ZazQDuEl9_wNvGGPxI8hGuOFU</rdf:li>
        <rdf:li>ipfs://bafkreihj7iub3fhmhq6jn62noukt5wxn3gv6bvcg7wmt6ywvlurefezckq</rdf:li>
      </rdf:Bag>
      </dc:creator>
    </rdf:Description>
  </rdf:RDF>
</metadata>
<g transform="translate(0.000000,1000.000000) scale(0.100000,-0.100000)"
fill="#1b1f23" stroke="none">
<path d="M5325 7766 c-22 -9 -105 -15 -275 -19 -181 -4 -282 -11 -385 -27 -77
-12 -178 -25 -225 -29 -85 -6 -85 -6 -1 -35 83 -29 83 -29 295 -17 255 14 420
14 465 1 19 -5 65 -28 103 -51 38 -23 133 -66 211 -96 266 -101 424 -188 466
-256 11 -19 26 -58 33 -88 16 -74 30 -92 107 -143 88 -58 364 -218 471 -273
85 -44 85 -44 -32 71 -64 63 -184 168 -266 235 -82 66 -157 132 -166 145 -35
55 -12 89 60 88 26 -1 45 0 43 3 -3 2 -37 13 -77 24 -45 12 -109 42 -172 81
-151 91 -321 174 -452 219 -153 52 -168 61 -183 104 -10 30 -10 40 2 57 16 23
17 23 -22 6z"/>
<path d="M4845 7433 c-62 -8 -187 -14 -330 -14 -158 0 -251 -5 -297 -14 -109
-23 -282 -83 -406 -141 -131 -60 -135 -58 68 -33 91 12 156 2 180 -26 23 -27
2 -43 -97 -74 -144 -45 -295 -137 -483 -293 -41 -35 -88 -73 -104 -84 -30 -21
-30 -21 25 -16 133 12 439 157 666 315 65 45 75 49 98 39 34 -15 32 -49 -3
-98 -39 -53 -84 -93 -248 -216 -180 -136 -217 -174 -269 -278 -51 -101 -86
-148 -213 -290 -105 -115 -139 -165 -199 -285 -100 -199 -155 -422 -193 -778
-11 -105 -25 -218 -32 -250 -41 -214 74 -671 215 -853 108 -139 471 -397 777
-553 121 -62 160 -87 158 -99 -5 -26 -87 -27 -167 -3 -36 11 -113 45 -171 74
-102 52 -585 351 -625 387 -19 17 -121 80 -130 80 -4 0 101 -153 135 -197 38
-49 266 -225 377 -291 215 -129 354 -180 571 -211 145 -21 350 -67 432 -96 47
-17 90 -50 90 -71 0 -33 -73 -30 -355 17 -337 56 -481 97 -659 186 -129 65
-309 186 -426 287 -22 19 -22 17 5 -19 142 -196 329 -372 470 -443 160 -80
572 -166 795 -165 98 0 127 4 194 26 76 26 85 27 315 27 341 0 478 27 700 139
225 113 346 202 582 427 101 96 137 125 165 130 39 7 57 -6 46 -35 -13 -37
-117 -163 -214 -260 -152 -152 -314 -271 -578 -423 -110 -63 -186 -94 -285
-114 -79 -17 -893 -39 -1030 -29 -198 15 -452 68 -649 134 -61 21 -132 43
-157 49 -26 7 -55 15 -65 18 -47 17 241 -163 331 -206 206 -100 317 -124 650
-139 913 -44 939 -45 1062 -32 70 7 130 7 171 1 39 -5 86 -5 120 0 100 17 286
118 391 214 68 63 282 306 359 409 66 87 177 257 168 257 -2 0 -36 -41 -77
-92 -97 -122 -395 -419 -499 -497 -130 -98 -368 -205 -415 -187 -19 7 -19 35
0 63 9 12 75 59 148 104 179 111 261 174 396 304 172 166 253 284 267 387 5
34 0 58 -21 108 -32 76 -30 122 10 240 50 145 96 316 115 425 26 147 48 781
30 865 -15 74 -55 195 -101 310 -111 279 -184 397 -384 615 -56 61 -127 143
-159 183 -71 89 -112 121 -241 183 -172 83 -577 204 -850 255 -121 22 -295 15
-381 -15 -136 -48 -306 -167 -490 -343 -221 -212 -294 -336 -428 -728 -102
-297 -136 -573 -106 -855 16 -146 100 -343 221 -514 137 -195 387 -405 627
-525 175 -88 329 -127 502 -127 166 -1 223 17 400 124 284 171 453 336 550
538 56 116 73 207 67 344 -5 112 -18 166 -45 198 -38 43 -67 7 -95 -115 -13
-57 -13 -69 -1 -79 27 -22 34 -79 19 -146 -51 -218 -266 -456 -540 -597 -151
-78 -205 -91 -385 -91 -132 0 -167 3 -235 23 -405 117 -790 508 -895 911 -86
328 -18 798 153 1058 55 83 282 335 380 421 132 116 271 195 413 234 95 26
324 31 444 9 316 -55 625 -165 770 -273 88 -66 222 -191 286 -268 126 -151
177 -249 259 -493 80 -241 95 -325 102 -567 11 -390 -42 -684 -171 -954 -56
-118 -110 -188 -248 -322 -322 -312 -612 -445 -998 -461 -187 -7 -290 7 -433
58 -62 22 -176 63 -255 90 -191 66 -232 87 -275 147 -37 52 -52 64 -292 222
-256 168 -450 336 -565 488 -27 37 -77 121 -110 187 -77 153 -110 279 -110
415 0 112 39 430 76 608 73 363 230 682 337 682 33 0 28 -28 -26 -136 -149
-297 -224 -613 -234 -979 -4 -157 -2 -193 16 -284 64 -309 248 -565 591 -822
202 -151 468 -329 543 -364 91 -41 296 -108 407 -132 105 -22 473 -26 585 -5
197 36 369 122 554 277 152 128 255 253 328 400 110 219 162 458 163 742 0
232 -29 404 -107 623 -17 47 -36 119 -42 160 -26 171 -156 350 -367 507 -104
77 -177 108 -320 138 -66 13 -150 34 -189 45 -219 65 -444 86 -594 56 -177
-36 -316 -110 -441 -236 -102 -102 -127 -152 -145 -287 -8 -59 -29 -171 -46
-248 -79 -359 -44 -620 114 -832 57 -76 114 -119 170 -128 23 -4 94 -20 157
-36 215 -55 348 -47 498 27 145 71 285 235 339 398 26 75 27 92 27 241 -2 230
-36 339 -140 448 -103 108 -216 157 -360 157 -233 0 -421 -157 -502 -420 -80
-261 7 -504 217 -608 71 -35 80 -37 170 -37 85 0 103 3 153 28 62 30 115 83
150 149 18 35 23 59 23 128 0 76 -3 91 -30 139 -86 156 -291 153 -351 -4 -32
-85 -5 -171 65 -207 48 -24 75 -11 81 38 4 33 9 39 32 42 20 2 31 -4 43 -22
32 -48 -1 -118 -72 -155 -40 -21 -116 -13 -174 17 -220 115 -186 477 56 599
67 34 163 42 234 18 254 -84 335 -467 148 -705 -52 -66 -130 -122 -212 -152
-90 -33 -232 -30 -342 6 -242 79 -362 263 -363 552 0 169 45 349 128 509 46
87 154 198 237 242 192 101 434 105 619 11 102 -52 236 -215 316 -383 51 -106
63 -124 109 -158 76 -58 135 -156 208 -343 90 -233 98 -265 97 -424 -1 -161
-21 -246 -89 -388 -57 -118 -91 -168 -184 -266 -85 -88 -177 -161 -327 -258
-108 -70 -144 -106 -144 -146 0 -24 2 -24 45 -19 187 26 499 252 645 466 68
101 137 255 167 376 24 96 27 130 27 265 1 328 -83 539 -319 805 -98 110 -121
176 -57 160 37 -9 79 -42 206 -165 157 -152 209 -240 255 -440 90 -382 15
-792 -197 -1090 -215 -301 -610 -524 -755 -425 -37 24 -37 24 -114 9 -117 -24
-324 -22 -450 5 -206 43 -348 106 -568 252 -171 114 -268 194 -390 320 -112
115 -173 196 -234 310 -51 95 -76 165 -106 304 -32 150 -39 257 -25 410 16
191 52 355 127 575 57 171 66 207 72 295 6 95 8 105 49 175 75 131 172 251
301 375 69 66 198 192 286 281 142 142 168 164 220 183 80 30 143 41 235 41
90 0 147 -15 274 -75 52 -24 161 -65 243 -90 427 -134 623 -200 728 -245 64
-27 164 -64 223 -81 58 -17 131 -43 162 -59 128 -65 283 -203 421 -376 49 -61
109 -125 134 -143 45 -32 45 -32 7 31 -22 35 -65 109 -96 165 -77 139 -161
251 -270 359 -90 90 -96 93 -293 191 -195 97 -282 130 -533 201 -58 17 -184
53 -280 82 -96 29 -212 63 -258 77 -94 27 -128 53 -112 82 5 10 24 24 41 30
80 28 199 5 480 -90 218 -74 298 -91 324 -69 23 19 18 36 -22 81 -27 30 -73
58 -167 104 -211 103 -439 174 -628 194 -117 13 -144 13 -273 -6z m175 -147
c0 -17 -27 -29 -35 -16 -4 6 -3 15 0 20 9 15 35 12 35 -4z m747 -1296 c193
-100 421 -320 449 -432 5 -25 3 -28 -20 -28 -19 0 -48 20 -100 68 -109 102
-152 134 -247 191 -141 82 -233 179 -215 226 9 25 51 17 133 -25z"/>
<path d="M3465 6594 c-70 -36 -193 -182 -265 -317 -62 -115 -231 -572 -230
-621 0 -6 18 30 39 79 73 171 173 370 226 450 29 44 103 133 164 198 102 109
141 160 141 186 0 11 -28 41 -38 41 -4 0 -20 -7 -37 -16z"/>
<path d="M6191 6432 c-14 -26 -1 -43 135 -183 130 -135 221 -250 280 -355 73
-131 217 -463 266 -614 40 -121 59 -165 88 -200 44 -54 66 -94 97 -180 24 -65
24 -65 18 -10 -8 78 -102 497 -131 586 -13 41 -46 123 -73 182 -26 59 -58 139
-71 177 -48 150 -143 289 -304 442 -154 146 -276 209 -305 155z"/>
<path d="M6905 5860 c-15 -48 55 -170 98 -170 13 0 11 5 -7 25 -12 13 -33 56
-47 95 -25 73 -33 83 -44 50z"/>
<path d="M4049 5788 c-74 -75 -149 -306 -169 -527 -31 -333 58 -616 278 -883
118 -145 230 -237 371 -308 218 -109 469 -120 685 -30 161 67 329 197 432 333
89 117 173 327 132 327 -28 0 -69 -42 -152 -154 -133 -180 -272 -295 -434
-361 -256 -104 -573 -54 -750 118 -24 23 -79 89 -122 147 -229 306 -289 475
-277 780 6 147 21 232 71 405 14 49 26 105 26 125 0 67 -40 79 -91 28z"/>
<path d="M5659 5363 c-11 -12 -13 -49 -11 -158 4 -171 -9 -230 -76 -358 -80
-152 -212 -296 -343 -375 -60 -36 -161 -70 -246 -82 -106 -16 -205 -3 -354 46
-82 27 -116 34 -128 27 -67 -42 69 -152 244 -198 75 -19 240 -19 322 0 125 29
256 103 366 204 71 66 229 267 318 406 64 100 64 100 63 175 -1 135 -82 330
-137 330 -3 0 -11 -7 -18 -17z"/>
<path d="M6859 5013 c-11 -12 -15 -82 -20 -307 -8 -374 -23 -458 -139 -770
-47 -129 -61 -198 -41 -210 5 -3 24 4 42 17 79 53 191 361 234 644 18 120 20
404 4 520 -15 109 -45 149 -80 106z"/>
<path d="M7081 4804 c0 -11 3 -14 6 -6 3 7 2 16 -1 19 -3 4 -6 -2 -5 -13z"/>
<path d="M4024 2564 c76 -30 182 -66 236 -79 166 -42 462 -81 796 -105 203
-14 239 -32 186 -91 -22 -24 -40 -32 -95 -42 -58 -10 -88 -8 -225 12 -100 15
-215 25 -317 27 -88 1 -146 0 -130 -2 201 -31 500 -64 579 -64 116 0 163 11
226 50 31 19 97 41 210 69 91 22 219 56 285 75 120 34 120 34 30 38 -49 2
-139 0 -200 -5 -135 -11 -204 -5 -331 27 -152 38 -246 48 -664 71 -293 16
-298 17 -490 45 -69 10 -150 21 -180 24 -52 4 -48 2 84 -50z"/>
</g>
</svg>
