<?xml version="1.0" standalone="no"?>
<!DOCTYPE svg PUBLIC "-//W3C//DTD SVG 20010904//EN"
 "http://www.w3.org/TR/2001/REC-SVG-20010904/DTD/svg10.dtd">
<svg version="1.0" xmlns="http://www.w3.org/2000/svg"
 width="1000.000000pt" height="1000.000000pt" viewBox="0 0 1000.000000 1000.000000"
 preserveAspectRatio="xMidYMid meet">
<metadata>
  <rdf:RDF
    xmlns:rdf = "http://www.w3.org/1999/02/22-rdf-syntax-ns#"
    xmlns:rdfs = "http://www.w3.org/2000/01/rdf-schema#"
    xmlns:dc = "http://purl.org/dc/elements/1.1/"
    xmlns:cc = "http://creativecommons.org/ns#">
    <cc:license rdf:resource="http://creativecommons.org/publicdomain/zero/1.0/deed.en"/>
    <cc:permits rdf:resource="http://creativecommons.org/ns#Reproduction"/>
    <rdf:Description about="https://nft.mir.one/fingerprints"
      dc:title="TON Fingerprints"
      dc:description="This is a unique digital fingerprint created based on the algorithm for generating basic rings using a noise texture. Like human fingerprints, you can now use it for the Web3 and Metaverse era as digital biometric information."
      dc:publisher="https://nft.mir.one"
      dc:date="2022-02-22"
      dc:format="image/svg+xml"
      dc:language="en" >
      <dc:creator>
      <rdf:Bag>
        <rdf:li>EQBondcvD2_aOFADXSWJHs4ZazQDuEl9_wNvGGPxI8hGuOFU</rdf:li>
        <rdf:li>ipfs://bafkreihj7iub3fhmhq6jn62noukt5wxn3gv6bvcg7wmt6ywvlurefezckq</rdf:li>
      </rdf:Bag>
      </dc:creator>
    </rdf:Description>
  </rdf:RDF>
</metadata>
<g transform="translate(0.000000,1000.000000) scale(0.100000,-0.100000)"
fill="#1b1f23" stroke="none">
<path d="M5080 7805 c0 -11 166 -108 305 -178 94 -47 235 -123 315 -167 178
-100 302 -163 355 -180 22 -7 74 -14 116 -14 75 -2 75 -2 17 26 -32 15 -142
76 -246 136 -206 121 -352 196 -470 243 -76 31 -392 139 -392 134z"/>
<path d="M4574 7739 c14 -17 26 -37 26 -45 0 -24 68 -91 135 -133 35 -23 228
-123 429 -224 527 -266 561 -291 854 -629 295 -341 353 -421 496 -683 48 -87
138 -236 201 -330 157 -237 222 -369 271 -550 32 -121 32 -174 -3 -227 -28
-42 -28 -42 -27 -247 1 -194 7 -263 38 -406 12 -55 13 -32 20 280 6 277 10
342 22 351 8 6 14 21 14 33 0 24 27 29 50 9 8 -7 7 -3 -3 8 -12 14 -28 80 -48
190 -51 280 -131 495 -303 808 -30 54 -64 131 -76 170 -62 204 -131 303 -440
631 -73 77 -170 190 -215 250 -45 61 -104 129 -131 152 -112 93 -332 221 -664
386 -221 110 -359 162 -500 189 -58 11 -120 26 -138 34 -33 14 -33 14 -8 -17z"/>
<path d="M4308 7570 c-15 -4 -40 -17 -55 -28 -47 -33 -103 -58 -231 -102 -67
-24 -121 -44 -120 -45 13 -11 244 19 338 43 63 17 136 34 163 37 47 7 107 39
114 61 2 7 -3 19 -12 28 -13 12 -35 16 -93 15 -42 0 -89 -4 -104 -9z"/>
<path d="M4270 7300 c-85 -9 -171 -20 -190 -24 -57 -12 -186 -56 -205 -70 -17
-12 -17 -14 3 -34 29 -29 100 -40 337 -52 392 -20 610 -68 861 -191 126 -63
165 -95 205 -169 55 -104 181 -201 262 -204 23 0 52 2 63 7 18 6 37 -8 122
-93 235 -233 414 -480 579 -797 56 -108 63 -129 63 -179 0 -49 7 -70 55 -163
59 -112 193 -408 228 -501 21 -57 23 -104 16 -380 -3 -99 4 -160 49 -443 29
-181 59 -341 67 -357 8 -16 15 -37 15 -46 0 -10 2 -15 4 -13 3 3 12 77 21 164
19 196 22 447 11 835 -8 285 -7 297 13 354 42 118 24 232 -64 411 -55 113 -86
159 -222 326 -43 54 -130 182 -193 285 -129 211 -226 344 -425 584 -75 91
-163 198 -196 237 -69 85 -165 161 -264 208 -249 121 -628 278 -734 305 -99
25 -258 25 -481 0z m1207 -475 c97 -49 179 -166 152 -216 -14 -26 -20 -24 -60
17 -18 20 -76 70 -126 111 -51 41 -93 77 -93 81 0 16 25 32 50 32 14 0 49 -11
77 -25z m1060 -1330 c93 -72 223 -347 223 -474 0 -94 -48 -56 -105 84 -50 121
-108 236 -162 319 -24 38 -42 75 -39 82 8 22 46 16 83 -11z"/>
<path d="M6120 7115 c-22 -27 8 -72 119 -178 58 -55 192 -187 297 -291 105
-105 214 -208 242 -228 52 -37 52 -37 -5 45 -209 303 -410 531 -552 625 -69
46 -82 49 -101 27z"/>
<path d="M3653 7005 c-61 -20 -111 -31 -125 -28 -20 6 -21 4 -10 -9 7 -9 17
-31 22 -49 15 -51 1 -69 -145 -181 -80 -61 -80 -61 -15 -56 44 4 103 20 182
51 157 62 210 70 438 71 207 1 295 -12 350 -53 28 -21 38 -60 18 -72 -7 -5
-79 -9 -159 -9 -164 0 -211 -10 -291 -61 -45 -29 -64 -34 -172 -46 -229 -25
-290 -40 -368 -92 -38 -26 -109 -83 -158 -127 -87 -79 -87 -79 -51 -84 20 -3
85 6 146 19 90 19 142 24 285 25 162 1 182 -1 270 -26 473 -135 746 -274 1170
-592 184 -138 263 -181 314 -172 77 15 61 73 -49 181 -209 204 -481 400 -761
547 -125 65 -174 84 -359 134 -142 38 -216 73 -236 110 -11 21 -10 27 2 39 12
13 36 13 184 0 250 -22 309 -31 341 -47 75 -39 485 -305 590 -383 138 -103
309 -265 360 -342 20 -30 46 -85 58 -123 20 -61 32 -77 107 -152 87 -86 134
-155 174 -255 33 -82 39 -124 22 -148 -13 -17 -17 -18 -33 -5 -9 8 -46 59 -81
113 -101 157 -176 226 -228 213 -13 -3 -26 -13 -29 -22 -17 -45 126 -251 259
-370 90 -81 122 -134 199 -326 108 -268 171 -502 200 -733 22 -172 38 -451 31
-510 -26 -201 -178 -539 -391 -870 -60 -93 -119 -192 -132 -220 -23 -50 -23
-50 89 60 149 147 281 295 335 377 25 37 67 124 95 195 75 194 100 242 143
279 29 25 41 44 47 76 18 93 6 350 -27 578 -35 244 -56 316 -253 883 -32 91
-58 187 -67 250 -29 187 -60 295 -123 422 -87 176 -245 407 -360 528 -163 170
-408 352 -671 499 -157 88 -160 90 -167 117 -12 50 56 65 158 35 119 -35 239
-107 508 -303 286 -208 479 -429 621 -711 63 -125 92 -222 130 -426 45 -246
87 -387 209 -691 123 -310 165 -505 206 -958 23 -264 43 -408 62 -465 5 -17
54 168 82 315 34 177 35 223 7 417 -57 391 -91 530 -151 633 -73 124 -136 265
-189 425 -71 215 -86 292 -90 480 -2 128 -7 165 -24 214 -73 200 -234 450
-408 635 -92 98 -167 158 -299 239 -55 33 -134 89 -175 122 -250 204 -361 260
-606 305 -49 10 -149 32 -222 51 -72 19 -219 45 -325 59 -106 13 -212 31 -236
40 -65 22 -115 18 -228 -20z"/>
<path d="M6787 6193 c-13 -12 -7 -68 12 -108 37 -82 142 -238 217 -324 11 -12
-172 369 -192 401 -26 41 -27 42 -37 31z"/>
<path d="M3360 6116 c-47 -7 -95 -18 -107 -24 -35 -19 -117 -93 -186 -167 -64
-70 -64 -70 -13 -69 28 1 78 8 111 17 194 50 449 57 645 18 367 -72 753 -283
1064 -581 109 -104 146 -159 146 -215 0 -68 25 -132 111 -285 106 -191 148
-275 194 -390 107 -269 138 -518 99 -807 -21 -156 -21 -256 -1 -320 15 -49 15
-57 -3 -133 -36 -149 -132 -365 -227 -515 -61 -95 -182 -242 -251 -307 -32
-29 -77 -74 -101 -100 -39 -43 -40 -46 -15 -34 197 94 249 123 305 168 113 90
226 261 380 577 50 103 115 227 144 276 29 50 72 130 94 177 47 98 95 149 118
125 12 -12 12 -23 -2 -77 -25 -97 -65 -191 -181 -422 -157 -315 -206 -395
-441 -737 -29 -42 -53 -79 -53 -83 0 -19 194 136 280 222 80 81 110 121 187
251 95 159 234 438 271 544 50 143 57 233 23 311 -18 41 -21 66 -21 205 0 250
-35 465 -115 703 -53 158 -115 294 -178 388 -67 101 -323 415 -390 480 -66 64
-447 349 -589 442 -267 174 -533 288 -804 346 -126 27 -372 35 -494 16z m1852
-1005 c26 -17 75 -65 109 -108 241 -302 382 -642 419 -1008 17 -168 1 -281
-62 -440 -79 -198 -137 -285 -172 -256 -12 10 -10 28 15 119 52 190 68 265 78
367 34 380 -117 809 -440 1246 -47 64 -57 88 -42 102 14 15 51 6 95 -22z"/>
<path d="M3355 5739 c-167 -19 -195 -28 -253 -83 -29 -27 -70 -73 -89 -101
-20 -27 -48 -63 -62 -78 -26 -29 -26 -29 24 -24 28 3 95 18 150 35 326 97 674
54 969 -119 131 -78 220 -151 386 -319 91 -91 189 -184 218 -205 95 -71 161
-170 296 -445 93 -188 137 -309 156 -433 18 -111 7 -329 -25 -512 -25 -139
-26 -156 -14 -231 25 -166 -8 -288 -126 -465 -74 -111 -230 -280 -334 -362
-36 -28 -84 -70 -106 -92 -40 -40 -40 -40 66 -4 167 57 237 99 329 195 175
186 302 428 329 630 18 133 36 489 36 699 0 186 -2 207 -29 309 -52 203 -136
390 -309 686 -160 274 -224 356 -389 494 -387 324 -813 473 -1223 425z"/>
<path d="M3256 5354 c-160 -31 -201 -60 -276 -193 -19 -34 -45 -77 -57 -96
-21 -33 -21 -33 15 -28 20 4 74 24 120 45 98 47 236 83 347 92 192 16 395 -52
395 -134 0 -36 -22 -41 -120 -30 -176 21 -352 3 -492 -49 -120 -46 -155 -89
-218 -270 -22 -61 -38 -111 -35 -111 16 0 70 32 130 77 145 110 283 158 500
174 208 16 310 10 366 -23 141 -82 217 -268 191 -463 -34 -258 -176 -493 -348
-576 -62 -30 -78 -33 -159 -34 -113 0 -161 20 -250 106 -73 70 -98 75 -103 17
-6 -71 65 -170 151 -212 180 -88 409 -39 581 124 95 91 162 195 247 385 37 83
80 177 95 210 27 56 29 68 29 185 -1 138 -15 219 -51 295 -39 81 -121 182
-215 263 -232 199 -392 263 -651 261 -68 0 -154 -7 -192 -15z"/>
<path d="M6274 5313 c-11 -44 12 -151 70 -326 106 -318 155 -427 195 -427 46
0 53 60 22 181 -19 75 -176 491 -212 562 -25 47 -65 53 -75 10z"/>
<path d="M4556 4718 c-9 -12 -16 -39 -16 -59 0 -49 25 -182 57 -299 34 -126
29 -154 -55 -341 -117 -259 -186 -365 -318 -494 -197 -193 -451 -289 -704
-266 -46 4 -100 4 -120 1 -34 -5 -33 -7 80 -63 158 -79 200 -86 321 -58 188
43 375 157 539 327 131 136 193 236 275 447 60 152 114 193 102 78 -16 -143
-71 -290 -162 -426 -205 -308 -611 -568 -886 -568 -47 1 -101 3 -120 7 -29 5
-30 5 -10 -4 13 -6 40 -23 60 -39 67 -53 100 -64 202 -69 96 -5 96 -5 192 41
180 85 341 202 505 368 165 167 241 283 281 429 32 115 37 195 16 284 -25 107
-5 139 49 75 38 -45 59 -128 58 -234 0 -187 -60 -334 -200 -490 -222 -249
-472 -444 -724 -565 -68 -33 -136 -68 -152 -79 -28 -19 -28 -19 60 -26 126 -9
201 5 286 56 121 71 263 185 422 339 85 81 192 176 236 210 47 36 94 82 111
108 82 130 122 398 84 574 -17 85 -43 142 -104 238 -27 41 -89 158 -138 260
-95 197 -140 260 -186 260 -15 0 -32 -9 -41 -22z"/>
<path d="M3485 4654 c-163 -25 -336 -128 -371 -221 -17 -42 -18 -70 -15 -223
2 -96 5 -221 5 -278 1 -103 1 -103 23 -77 26 30 47 96 68 217 21 121 49 189
101 247 103 114 269 142 386 65 64 -41 99 -141 63 -178 -14 -13 -22 -12 -81
16 -54 25 -74 30 -119 26 -119 -10 -205 -127 -175 -238 18 -66 109 -153 178
-170 128 -30 252 41 330 188 140 265 74 529 -151 606 -49 16 -189 28 -242 20z
m175 -654 c0 -18 -24 -43 -53 -53 -24 -9 -64 8 -77 34 -17 31 1 46 36 30 23
-10 29 -9 46 9 16 17 23 19 34 9 8 -6 14 -19 14 -29z"/>
<path d="M4410 4242 c-12 -16 -45 -81 -75 -145 -87 -189 -147 -281 -254 -387
-78 -78 -112 -103 -181 -138 -47 -22 -112 -48 -145 -57 -76 -19 -234 -19 -310
0 -61 16 -225 94 -257 123 -11 9 -18 10 -18 4 0 -6 42 -53 93 -104 67 -69 112
-104 167 -133 73 -39 77 -40 175 -39 260 2 503 139 678 382 102 141 207 373
207 455 0 70 -42 91 -80 39z"/>
<path d="M6286 3208 c-8 -24 -28 -95 -45 -158 -30 -119 -103 -326 -142 -401
-12 -24 -42 -66 -68 -94 -25 -29 -10 -15 34 30 127 131 250 344 291 504 17 69
13 114 -13 143 -25 28 -40 22 -57 -24z"/>
<path d="M4839 3192 c-24 -16 -82 -69 -128 -118 -179 -190 -362 -344 -541
-452 -47 -29 -98 -63 -115 -77 -30 -24 -30 -24 15 -25 58 0 151 15 217 36 111
35 383 287 557 516 87 116 100 148 58 148 -10 0 -38 -13 -63 -28z"/>
<path d="M4952 3123 c-65 -177 -271 -417 -532 -619 -58 -45 -118 -96 -134
-113 -30 -31 -30 -31 15 -17 24 7 78 23 119 36 122 36 185 76 296 185 179 177
300 368 311 493 6 66 -5 92 -37 92 -12 0 -24 -18 -38 -57z"/>
</g>
</svg>
