<?xml version="1.0" standalone="no"?>
<!DOCTYPE svg PUBLIC "-//W3C//DTD SVG 20010904//EN"
 "http://www.w3.org/TR/2001/REC-SVG-20010904/DTD/svg10.dtd">
<svg version="1.0" xmlns="http://www.w3.org/2000/svg"
 width="1000.000000pt" height="1000.000000pt" viewBox="0 0 1000.000000 1000.000000"
 preserveAspectRatio="xMidYMid meet">
<metadata>
  <rdf:RDF
    xmlns:rdf = "http://www.w3.org/1999/02/22-rdf-syntax-ns#"
    xmlns:rdfs = "http://www.w3.org/2000/01/rdf-schema#"
    xmlns:dc = "http://purl.org/dc/elements/1.1/"
    xmlns:cc = "http://creativecommons.org/ns#">
    <cc:license rdf:resource="http://creativecommons.org/publicdomain/zero/1.0/deed.en"/>
    <cc:permits rdf:resource="http://creativecommons.org/ns#Reproduction"/>
    <rdf:Description about="https://nft.mir.one/fingerprints"
      dc:title="TON Fingerprints"
      dc:description="This is a unique digital fingerprint created based on the algorithm for generating basic rings using a noise texture. Like human fingerprints, you can now use it for the Web3 and Metaverse era as digital biometric information."
      dc:publisher="https://nft.mir.one"
      dc:date="2022-02-22"
      dc:format="image/svg+xml"
      dc:language="en" >
      <dc:creator>
      <rdf:Bag>
        <rdf:li>EQBondcvD2_aOFADXSWJHs4ZazQDuEl9_wNvGGPxI8hGuOFU</rdf:li>
        <rdf:li>ipfs://bafkreihj7iub3fhmhq6jn62noukt5wxn3gv6bvcg7wmt6ywvlurefezckq</rdf:li>
      </rdf:Bag>
      </dc:creator>
    </rdf:Description>
  </rdf:RDF>
</metadata>
<g transform="translate(0.000000,1000.000000) scale(0.100000,-0.100000)"
fill="#1b1f23" stroke="none">
<path d="M5022 7784 c-409 -62 -673 -166 -1032 -406 -108 -72 -371 -269 -418
-313 -2 -2 37 14 86 35 50 22 170 87 268 146 219 132 540 297 696 358 64 25
179 63 256 85 128 36 264 86 302 111 18 12 29 13 -158 -16z"/>
<path d="M5280 7737 c0 -22 35 -47 73 -54 36 -6 212 5 204 13 -2 2 -52 9 -112
14 -59 6 -120 17 -136 26 -24 12 -29 12 -29 1z"/>
<path d="M4945 7525 c-597 -154 -1273 -569 -1466 -901 -114 -194 -280 -642
-359 -964 -52 -216 -63 -318 -64 -615 -1 -262 0 -273 25 -365 15 -52 54 -152
88 -221 64 -133 77 -189 42 -189 -21 0 -82 68 -130 146 -42 70 -118 242 -141
322 -27 96 -24 46 5 -83 38 -167 82 -290 129 -359 34 -49 54 -67 103 -91 44
-22 99 -68 204 -169 169 -163 287 -260 475 -387 75 -51 161 -115 193 -144 74
-69 120 -91 341 -163 209 -68 307 -91 431 -99 128 -9 209 13 398 107 277 137
414 233 599 422 172 175 292 341 382 530 102 215 129 376 109 664 -12 167 -11
184 4 208 26 39 43 32 70 -26 41 -87 59 -190 64 -353 6 -179 -11 -298 -60
-421 -37 -90 -186 -345 -280 -476 -206 -287 -460 -501 -782 -659 -267 -130
-410 -161 -562 -121 -43 12 -107 26 -143 32 -36 7 -106 29 -157 51 -143 61
-272 89 -458 99 -118 6 -175 13 -217 28 -130 46 -337 172 -487 295 -42 35
-101 80 -131 102 -55 40 -55 40 29 -70 196 -258 397 -419 587 -469 32 -9 138
-21 234 -26 312 -18 410 -34 410 -67 0 -26 -57 -34 -299 -44 -342 -13 -443 4
-555 94 -68 55 -102 76 -163 103 -58 26 -58 26 20 -47 43 -39 93 -95 112 -124
37 -59 92 -101 191 -147 89 -41 171 -47 279 -19 44 11 132 25 195 31 136 12
145 14 276 46 76 19 122 24 185 22 77 -3 84 -5 87 -24 4 -31 -60 -59 -200 -89
-141 -29 -179 -34 -351 -44 -108 -6 -142 -12 -155 -25 -24 -23 -6 -47 49 -65
73 -23 361 -19 481 7 92 20 138 36 383 134 61 25 151 59 200 77 502 184 880
495 1137 935 115 197 137 228 199 286 55 51 60 60 79 133 33 133 43 241 37
422 -8 275 -53 406 -178 517 -38 35 -109 112 -156 172 -138 172 -243 258 -416
342 -113 54 -225 81 -265 62 -37 -18 -40 -52 -7 -82 15 -14 75 -55 134 -91
185 -115 282 -210 347 -340 53 -107 67 -201 67 -465 1 -213 0 -230 -25 -320
-51 -187 -160 -376 -305 -530 -75 -80 -299 -285 -378 -346 -79 -62 -208 -114
-280 -114 -24 0 -62 7 -86 16 -24 8 -109 26 -189 39 -309 51 -502 121 -720
262 -342 222 -577 498 -798 938 -38 77 -84 158 -101 179 -43 54 -46 70 -45
231 1 255 94 649 230 973 85 203 140 282 269 385 44 35 135 116 203 180 138
130 235 206 347 272 89 53 150 79 333 145 75 26 194 69 264 94 160 57 272 85
518 131 255 47 382 79 455 115 60 30 60 30 25 31 -19 0 -204 3 -410 4 -375 4
-375 4 -505 -30z m-1699 -2696 c51 -150 160 -370 253 -511 81 -122 240 -289
381 -401 362 -284 666 -410 1034 -426 162 -7 176 -12 133 -55 -72 -72 -328
-61 -589 25 -150 49 -301 129 -472 248 -231 162 -382 291 -494 421 -78 92
-107 141 -200 341 -92 200 -133 323 -134 399 -1 59 14 94 35 87 6 -2 30 -59
53 -128z"/>
<path d="M5686 7334 c-211 -38 -616 -168 -793 -254 -152 -74 -192 -111 -222
-203 -13 -37 -65 -137 -118 -224 -203 -336 -219 -384 -284 -893 -51 -397 -53
-508 -15 -654 49 -190 165 -379 294 -481 77 -62 222 -132 307 -150 262 -55
498 47 657 284 136 201 148 306 57 518 -44 106 -47 119 -19 128 25 8 67 -15
111 -62 76 -80 119 -191 139 -357 6 -53 20 -116 30 -139 29 -66 33 -116 16
-197 -55 -262 -272 -482 -531 -536 -111 -24 -371 -24 -478 0 -295 64 -553 227
-725 455 -74 99 -125 198 -205 401 -87 218 -105 250 -208 351 -103 102 -109
117 -109 275 0 193 31 314 141 547 103 217 113 288 42 295 -25 3 -37 -5 -71
-43 -23 -26 -63 -90 -90 -143 -104 -203 -159 -380 -213 -682 -17 -96 -38 -213
-46 -260 -22 -125 -14 -216 32 -331 50 -127 96 -209 169 -304 34 -44 95 -128
135 -187 252 -372 604 -625 1015 -728 236 -59 459 -73 567 -35 98 34 156 115
93 131 -14 4 -80 1 -146 -6 -379 -39 -781 91 -1101 358 -191 159 -387 437
-387 548 0 67 -25 174 -75 324 -50 148 -54 173 -28 168 48 -9 115 -143 182
-367 71 -235 141 -352 310 -522 163 -163 338 -269 553 -338 164 -52 246 -62
536 -65 262 -3 262 -3 317 25 211 106 406 364 466 616 19 78 21 107 16 253 -7
200 -30 310 -88 429 -62 125 -145 205 -333 316 -177 105 -234 129 -341 145
-119 18 -332 0 -454 -38 -228 -71 -335 -471 -199 -742 42 -82 134 -175 213
-215 55 -27 69 -30 160 -30 90 0 105 3 153 28 115 60 174 153 180 284 3 71 1
89 -20 135 -53 115 -125 163 -232 156 -76 -5 -131 -37 -173 -99 -31 -47 -42
-128 -24 -182 23 -70 113 -121 149 -85 15 15 16 48 1 48 -6 0 -9 14 -7 32 2
24 10 36 30 46 65 31 127 -55 97 -134 -36 -94 -150 -130 -253 -80 -63 31 -99
70 -133 143 -62 135 -26 320 84 425 15 15 55 39 88 55 54 25 70 28 170 28 100
0 116 -3 170 -28 101 -47 126 -82 170 -233 35 -121 41 -204 21 -283 -38 -148
-129 -262 -262 -328 -78 -38 -79 -38 -198 -38 -109 1 -128 3 -186 28 -178 75
-312 235 -372 444 -18 63 -22 104 -23 213 0 144 7 185 71 420 18 69 43 188 54
266 31 217 60 294 168 448 48 70 56 87 62 146 8 74 16 93 71 167 74 99 223
185 398 229 123 31 150 31 208 -6 61 -39 83 -44 283 -71 174 -22 300 -53 378
-93 45 -23 113 -89 213 -207 36 -42 75 -70 177 -128 72 -41 170 -104 218 -140
74 -56 188 -131 200 -131 2 0 -41 62 -94 138 -123 174 -198 250 -342 344 -127
84 -164 117 -158 145 6 30 65 21 165 -25 58 -27 104 -42 129 -42 39 1 39 1 9
14 -16 7 -50 31 -75 53 -108 96 -226 148 -426 187 -185 36 -363 48 -529 35
-167 -12 -178 -8 -130 50 66 78 374 114 645 76 58 -9 143 -18 190 -21 85 -5
85 -5 -30 57 -134 72 -245 115 -348 135 -88 17 -113 17 -216 -2z m-2125 -2079
c-2 -16 -4 -66 -4 -110 -1 -70 5 -97 46 -219 51 -147 51 -174 3 -142 -56 36
-136 246 -136 358 0 88 32 152 74 146 17 -2 20 -9 17 -33z"/>
<path d="M4443 6960 c-161 -72 -389 -304 -444 -449 -9 -26 -26 -96 -38 -157
-30 -158 -53 -218 -105 -274 -86 -92 -127 -217 -129 -395 -2 -138 15 -198 86
-300 96 -140 117 -179 174 -325 113 -291 188 -415 342 -562 105 -100 187 -154
321 -210 147 -62 205 -73 390 -73 187 0 244 12 370 73 95 47 229 177 278 269
65 124 87 219 59 257 -25 34 -55 10 -132 -109 -116 -179 -217 -266 -377 -323
-66 -23 -87 -26 -228 -26 -150 -1 -158 0 -250 32 -149 52 -231 103 -346 217
-151 149 -242 315 -305 555 -27 104 -29 176 -7 300 21 118 38 347 38 518 0
328 80 523 332 811 95 108 116 145 104 176 -8 21 -81 19 -133 -5z m-477 -941
c18 -20 19 -42 21 -304 2 -247 0 -285 -14 -296 -13 -11 -19 -9 -39 14 -57 66
-77 241 -50 426 17 114 37 181 54 181 5 0 17 -9 28 -21z"/>
<path d="M5235 6785 c-173 -32 -360 -141 -412 -239 -14 -27 -14 -31 3 -43 28
-20 53 -16 204 32 203 65 293 79 475 72 158 -6 254 -20 450 -67 174 -41 179
-42 208 -31 92 35 -67 159 -268 210 -104 26 -228 46 -395 66 -157 17 -172 18
-265 0z"/>
<path d="M3182 6357 c-116 -325 -172 -489 -172 -500 1 -17 102 249 167 435 30
87 53 164 51 173 -2 8 -23 -40 -46 -108z"/>
<path d="M5344 6459 c-142 -13 -338 -66 -446 -120 -124 -63 -181 -146 -177
-265 1 -38 -1 -87 -6 -109 -6 -33 -3 -45 13 -65 18 -23 27 -25 89 -23 37 1
115 9 173 18 58 9 197 20 310 25 159 6 215 12 250 26 72 28 213 24 320 -11
232 -74 444 -229 633 -464 134 -166 197 -296 234 -477 29 -151 21 -786 -13
-998 -15 -91 -88 -328 -131 -426 -93 -212 -380 -515 -665 -702 -268 -177 -600
-319 -943 -404 -184 -45 -329 -64 -555 -71 -102 -3 -186 -7 -188 -8 -6 -5 226
-46 323 -57 184 -20 439 2 656 57 526 134 979 434 1297 859 125 168 155 229
238 479 114 346 151 554 161 902 6 230 -8 475 -32 570 -61 238 -305 558 -550
720 -379 251 -811 291 -1405 130 -165 -45 -200 -11 -79 74 89 63 199 106 354
139 107 23 143 26 325 26 181 0 221 -3 340 -27 74 -14 176 -38 225 -52 120
-34 292 -119 396 -195 163 -121 349 -333 454 -520 26 -47 56 -96 67 -110 51
-69 78 -103 78 -99 0 3 -29 93 -63 200 -100 306 -193 487 -311 604 -133 132
-346 254 -492 280 -525 97 -680 114 -880 94z"/>
<path d="M7076 5078 c-23 -36 -27 -106 -12 -203 13 -90 13 -90 15 48 0 76 6
147 11 158 15 26 4 24 -14 -3z"/>
<path d="M2901 4924 c0 -11 3 -14 6 -6 3 7 2 16 -1 19 -3 4 -6 -2 -5 -13z"/>
<path d="M2912 4840 c0 -14 2 -19 5 -12 2 6 2 18 0 25 -3 6 -5 1 -5 -13z"/>
<path d="M7082 4725 c0 -16 2 -22 5 -12 2 9 2 23 0 30 -3 6 -5 -1 -5 -18z"/>
<path d="M6552 4137 c-12 -13 -51 -87 -86 -164 -119 -262 -212 -400 -396 -584
-188 -189 -338 -298 -576 -418 -225 -113 -625 -258 -839 -302 -89 -19 -141
-23 -275 -23 -192 0 -257 13 -382 74 -83 40 -145 51 -178 30 -11 -7 -12 -10
-2 -10 8 0 60 -27 115 -60 166 -98 328 -151 512 -166 255 -20 772 125 1177
332 312 160 617 424 785 679 140 212 246 537 199 610 -20 31 -27 31 -54 2z"/>
<path d="M3043 4109 c15 -12 67 -76 114 -143 115 -163 160 -214 251 -287 216
-175 479 -307 566 -285 36 9 33 39 -6 69 -18 13 -73 48 -121 76 -201 117 -356
235 -541 410 -145 137 -209 181 -263 181 -28 -1 -28 -1 0 -21z"/>
<path d="M5885 2473 c-142 -72 -306 -142 -485 -205 -195 -69 -159 -67 55 3
137 45 455 190 510 233 31 24 17 19 -80 -31z"/>
</g>
</svg>
