<?xml version="1.0" standalone="no"?>
<!DOCTYPE svg PUBLIC "-//W3C//DTD SVG 20010904//EN"
 "http://www.w3.org/TR/2001/REC-SVG-20010904/DTD/svg10.dtd">
<svg version="1.0" xmlns="http://www.w3.org/2000/svg"
 width="1000.000000pt" height="1000.000000pt" viewBox="0 0 1000.000000 1000.000000"
 preserveAspectRatio="xMidYMid meet">
<metadata>
  <rdf:RDF
    xmlns:rdf = "http://www.w3.org/1999/02/22-rdf-syntax-ns#"
    xmlns:rdfs = "http://www.w3.org/2000/01/rdf-schema#"
    xmlns:dc = "http://purl.org/dc/elements/1.1/"
    xmlns:cc = "http://creativecommons.org/ns#">
    <cc:license rdf:resource="http://creativecommons.org/publicdomain/zero/1.0/deed.en"/>
    <cc:permits rdf:resource="http://creativecommons.org/ns#Reproduction"/>
    <rdf:Description about="https://nft.mir.one/fingerprints"
      dc:title="TON Fingerprints"
      dc:description="This is a unique digital fingerprint created based on the algorithm for generating basic rings using a noise texture. Like human fingerprints, you can now use it for the Web3 and Metaverse era as digital biometric information."
      dc:publisher="https://nft.mir.one"
      dc:date="2022-02-22"
      dc:format="image/svg+xml"
      dc:language="en" >
      <dc:creator>
      <rdf:Bag>
        <rdf:li>EQBondcvD2_aOFADXSWJHs4ZazQDuEl9_wNvGGPxI8hGuOFU</rdf:li>
        <rdf:li>ipfs://bafkreihj7iub3fhmhq6jn62noukt5wxn3gv6bvcg7wmt6ywvlurefezckq</rdf:li>
      </rdf:Bag>
      </dc:creator>
    </rdf:Description>
  </rdf:RDF>
</metadata>
<g transform="translate(0.000000,1000.000000) scale(0.100000,-0.100000)"
fill="#1b1f23" stroke="none">
<path d="M5065 7789 c-33 -5 -157 -28 -275 -51 -142 -27 -242 -41 -296 -41
-81 0 -81 0 -52 -26 38 -34 50 -96 20 -103 -11 -3 -25 -2 -31 1 -22 14 -140
-8 -228 -42 -93 -36 -315 -138 -311 -143 4 -3 185 51 353 105 168 55 175 56
175 31 0 -35 -43 -65 -253 -172 -218 -112 -395 -219 -577 -348 -115 -81 -115
-81 -70 -74 107 15 391 129 519 207 47 29 142 83 211 120 190 102 240 152 264
262 11 50 11 50 131 90 97 32 291 106 490 186 25 10 7 9 -70 -2z"/>
<path d="M5187 7644 c-172 -26 -247 -58 -247 -104 0 -42 54 -49 190 -25 182
32 290 44 418 46 114 3 132 5 130 18 -5 25 -64 49 -162 66 -106 18 -210 18
-329 -1z"/>
<path d="M5724 7556 c-4 -9 -5 -18 -3 -20 2 -2 51 -6 109 -9 105 -6 105 -6 45
13 -95 31 -144 35 -151 16z"/>
<path d="M4775 7406 c-56 -18 -127 -55 -253 -133 -59 -36 -163 -93 -231 -126
-121 -59 -191 -107 -191 -132 0 -41 90 -50 196 -20 32 10 139 48 236 86 204
79 288 102 466 129 295 45 490 49 685 14 184 -32 431 -115 610 -206 65 -33
247 -104 235 -92 -26 25 -261 207 -313 242 -108 72 -298 164 -425 207 -146 49
-233 54 -534 30 -207 -17 -226 -17 -302 -1 -95 19 -125 19 -179 2z"/>
<path d="M5200 7099 c-25 -5 -78 -20 -118 -34 -41 -14 -139 -39 -219 -56 -79
-16 -197 -46 -261 -66 -390 -120 -374 -117 -473 -67 -55 28 -86 37 -121 37
-42 -1 -264 -59 -376 -100 -61 -21 -170 -96 -282 -193 -114 -99 -122 -106 -92
-90 13 6 49 18 80 26 31 8 102 36 156 61 112 52 191 67 202 38 5 -13 -14 -37
-78 -96 -63 -58 -94 -96 -122 -148 -46 -87 -104 -164 -205 -274 -127 -136
-168 -239 -196 -487 -8 -74 -22 -187 -31 -250 -10 -72 -16 -185 -16 -300 0
-313 37 -461 189 -769 72 -145 88 -184 91 -232 4 -54 7 -60 43 -84 21 -15 42
-24 48 -21 21 13 31 80 21 139 -5 32 -47 153 -94 270 -117 291 -156 452 -156
637 0 144 36 331 83 434 13 28 56 89 96 134 39 46 109 138 156 205 247 355
448 575 692 754 184 136 437 217 678 218 114 0 127 -2 250 -41 72 -23 191 -59
265 -79 358 -100 651 -255 868 -460 176 -166 228 -262 361 -660 165 -497 222
-800 208 -1120 -9 -184 -25 -253 -96 -404 -33 -69 -80 -178 -106 -241 -123
-301 -242 -480 -292 -439 -26 22 -9 79 80 266 88 186 160 359 207 503 88 270
83 635 -14 1020 -65 257 -178 559 -265 709 -218 372 -674 648 -1259 761 -421
81 -836 -84 -1180 -470 -271 -304 -517 -717 -584 -983 -50 -197 2 -444 181
-869 103 -242 153 -302 346 -413 55 -31 127 -77 161 -101 96 -69 157 -87 299
-88 147 -1 255 24 391 88 110 52 184 102 284 190 78 69 120 85 120 46 0 -75
-134 -214 -299 -310 -199 -116 -459 -165 -663 -126 -186 36 -455 169 -659 327
-79 62 -79 62 -137 50 -43 -10 -69 -10 -107 -1 -54 12 -188 72 -219 99 -45 37
126 -160 200 -231 101 -98 86 -88 294 -195 192 -98 339 -159 470 -193 121 -31
334 -39 459 -16 247 46 486 170 640 331 95 100 107 123 262 490 50 117 72 218
73 335 1 112 -12 169 -47 208 -51 56 -82 15 -107 -145 -40 -248 -105 -385
-223 -469 -29 -21 -81 -63 -117 -94 -97 -83 -127 -104 -215 -148 -146 -72
-314 -109 -463 -99 -102 6 -165 25 -170 50 -6 28 50 44 178 51 192 12 334 47
473 118 69 36 127 85 127 108 0 4 -7 14 -16 21 -17 14 -11 15 -229 -49 -163
-48 -281 -65 -470 -66 -166 -1 -171 0 -230 27 -203 95 -300 255 -422 692 -33
119 -43 312 -20 368 16 38 36 47 56 24 6 -7 24 -82 41 -166 19 -98 46 -193 74
-265 26 -67 46 -137 50 -175 8 -85 43 -159 107 -226 169 -178 374 -204 840
-105 77 17 161 30 187 30 90 0 185 68 236 167 9 18 25 76 36 128 11 53 40 148
65 211 26 67 45 132 45 154 0 87 -78 223 -173 299 -113 91 -257 115 -402 67
-129 -43 -210 -110 -245 -201 -19 -48 -15 -146 7 -196 21 -46 78 -104 120
-120 132 -50 289 87 212 185 -29 37 -65 50 -101 35 -23 -9 -28 -18 -28 -44 0
-40 -23 -52 -56 -30 -28 18 -38 47 -30 90 21 111 182 162 307 97 131 -68 160
-243 58 -351 -37 -39 -111 -81 -183 -103 -158 -48 -316 12 -380 145 -55 112
-70 245 -41 344 32 106 113 178 264 233 109 40 138 55 157 85 15 22 23 25 83
25 181 0 382 -105 514 -270 74 -92 187 -289 229 -397 62 -159 61 -366 -2 -556
-53 -159 -206 -431 -309 -552 -156 -182 -414 -337 -681 -408 -110 -30 -123
-31 -315 -31 -186 0 -207 2 -297 27 -141 39 -281 97 -478 199 -96 49 -194 96
-218 103 -42 13 -42 13 28 -64 146 -163 297 -290 405 -341 254 -120 473 -144
771 -85 427 85 787 324 1020 675 49 74 117 175 151 224 101 143 147 317 147
551 -1 243 -73 471 -216 682 -163 242 -388 385 -673 428 -172 26 -290 15 -343
-30 -25 -22 -26 -25 -11 -40 9 -9 44 -20 78 -25 66 -9 111 -31 111 -54 0 -21
-24 -26 -127 -26 -86 0 -109 -4 -217 -41 -140 -47 -170 -71 -207 -165 -20 -50
-23 -77 -23 -179 0 -113 2 -126 37 -225 41 -117 44 -138 20 -147 -12 -5 -27 5
-51 33 -77 89 -132 227 -147 370 -14 126 36 353 111 510 99 208 323 380 579
445 115 29 319 31 438 5 541 -118 928 -530 1061 -1127 60 -274 60 -515 0 -801
-64 -306 -155 -518 -221 -518 -18 0 -16 59 3 140 104 441 137 702 115 920 -58
574 -365 1015 -828 1194 -118 46 -231 66 -372 66 -195 0 -356 -53 -490 -162
-149 -120 -241 -297 -160 -306 34 -4 166 93 232 171 84 99 228 145 416 132
383 -26 717 -268 897 -650 89 -188 123 -330 131 -545 6 -169 -3 -261 -43 -455
-23 -108 -34 -261 -20 -284 3 -4 -1 -68 -8 -143 -11 -115 -17 -145 -41 -193
-77 -152 -320 -373 -660 -600 -270 -180 -602 -297 -949 -335 -55 -6 -102 -13
-104 -15 -12 -12 27 -37 85 -55 89 -27 232 -43 331 -37 143 10 450 127 598
227 27 19 96 71 154 116 58 45 170 128 250 184 236 168 317 240 532 480 127
142 168 209 234 383 80 209 123 419 131 637 9 241 -22 454 -103 699 -90 275
-210 479 -383 651 -211 210 -493 356 -787 406 -131 22 -356 15 -468 -15 -362
-97 -668 -389 -798 -761 -31 -90 -33 -102 -32 -230 1 -106 5 -152 23 -215 33
-122 82 -217 148 -287 60 -62 99 -87 170 -108 23 -7 77 -39 120 -72 122 -93
143 -101 257 -106 118 -5 175 6 309 60 101 41 137 43 137 7 0 -29 -66 -96
-123 -124 -76 -36 -196 -63 -337 -75 -69 -5 -169 -17 -223 -27 -79 -13 -109
-14 -158 -5 -121 22 -246 99 -320 197 -71 95 -22 102 107 16 113 -74 160 -98
233 -116 67 -18 111 -8 111 23 0 28 -34 54 -150 117 -193 105 -285 186 -340
300 -43 88 -130 399 -130 464 0 231 265 650 554 873 213 165 408 237 663 246
220 7 438 -39 671 -141 466 -205 745 -546 901 -1102 73 -258 96 -440 88 -680
-8 -230 -47 -405 -149 -660 -99 -249 -208 -427 -352 -573 -134 -137 -189 -180
-401 -312 -216 -134 -231 -146 -370 -280 -93 -89 -126 -114 -210 -157 -127
-65 -230 -106 -375 -149 -63 -19 -146 -45 -185 -60 -70 -25 -70 -25 115 -20
211 6 356 31 525 90 55 19 163 57 241 84 77 26 176 69 220 94 140 80 181 98
228 98 38 0 48 4 65 29 36 51 22 81 -39 81 -61 0 -139 -29 -285 -105 -165 -86
-210 -98 -203 -52 7 49 239 190 448 273 121 47 178 86 317 217 128 121 164
144 199 128 16 -7 24 -19 24 -34 0 -29 -68 -127 -189 -271 -128 -153 -128
-152 -160 -273 -16 -60 -36 -124 -46 -143 -23 -46 -13 -35 77 85 42 55 117
150 168 210 124 148 184 234 232 333 21 46 66 119 98 162 75 102 161 272 244
487 42 108 80 188 101 215 66 83 99 298 100 638 0 340 -21 469 -134 822 -118
368 -132 434 -102 505 16 40 10 52 -83 162 -152 180 -383 361 -626 489 -183
96 -372 161 -634 216 -182 38 -236 58 -236 87 0 29 39 39 154 39 240 0 551
-88 833 -235 192 -100 354 -213 597 -417 38 -32 75 -58 83 -58 8 0 28 -7 46
-16 32 -17 32 -17 11 7 -12 13 -63 82 -115 154 -101 140 -266 318 -363 392
-69 52 -273 153 -417 207 -117 43 -263 82 -384 101 -97 16 -322 18 -395 4z
m-1052 -340 c4 -24 -39 -70 -144 -155 -63 -51 -132 -122 -212 -217 -161 -192
-342 -429 -436 -571 -81 -120 -104 -144 -124 -124 -44 44 21 196 149 353 103
127 355 463 401 535 41 65 81 101 152 137 117 60 207 77 214 42z"/>
<path d="M3328 6422 c-25 -27 -67 -82 -93 -123 -27 -41 -57 -86 -67 -101 -19
-28 -19 -28 4 -28 40 0 253 242 246 279 -7 34 -44 23 -90 -27z"/>
<path d="M6790 5964 c0 -9 13 -46 29 -82 16 -37 46 -122 65 -188 44 -149 129
-391 155 -442 10 -20 24 -56 31 -80 7 -23 15 -40 17 -38 5 5 -37 196 -90 411
-25 99 -48 198 -52 219 -12 68 -45 145 -79 181 -35 37 -76 47 -76 19z"/>
<path d="M2920 4727 c0 -18 43 -178 77 -282 57 -175 136 -322 203 -379 31 -26
93 -36 104 -17 3 5 -23 46 -57 92 -35 46 -81 111 -101 144 -40 61 -160 298
-202 395 -13 30 -23 51 -24 47z"/>
<path d="M5663 3877 c-16 -19 -47 -65 -68 -103 -109 -195 -279 -385 -465 -516
-250 -177 -573 -301 -893 -343 -250 -32 -330 -19 -549 91 -95 47 -206 89 -215
80 -2 -2 18 -18 45 -37 58 -41 162 -130 260 -221 92 -85 181 -131 255 -131 96
0 520 101 679 163 199 77 397 191 588 339 112 87 266 241 317 318 77 117 143
315 123 369 -13 34 -43 30 -77 -9z"/>
<path d="M5728 2557 c-59 -45 -166 -115 -238 -156 -73 -41 -162 -96 -198 -124
-37 -27 -75 -53 -85 -59 -10 -5 -17 -12 -14 -14 7 -7 195 78 327 148 205 108
330 208 330 263 0 14 -3 25 -7 24 -5 0 -56 -37 -115 -82z"/>
</g>
</svg>
