<?xml version="1.0" standalone="no"?>
<!DOCTYPE svg PUBLIC "-//W3C//DTD SVG 20010904//EN"
 "http://www.w3.org/TR/2001/REC-SVG-20010904/DTD/svg10.dtd">
<svg version="1.0" xmlns="http://www.w3.org/2000/svg"
 width="1000.000000pt" height="1000.000000pt" viewBox="0 0 1000.000000 1000.000000"
 preserveAspectRatio="xMidYMid meet">
<metadata>
  <rdf:RDF
    xmlns:rdf = "http://www.w3.org/1999/02/22-rdf-syntax-ns#"
    xmlns:rdfs = "http://www.w3.org/2000/01/rdf-schema#"
    xmlns:dc = "http://purl.org/dc/elements/1.1/"
    xmlns:cc = "http://creativecommons.org/ns#">
    <cc:license rdf:resource="http://creativecommons.org/publicdomain/zero/1.0/deed.en"/>
    <cc:permits rdf:resource="http://creativecommons.org/ns#Reproduction"/>
    <rdf:Description about="https://nft.mir.one/fingerprints"
      dc:title="TON Fingerprints"
      dc:description="This is a unique digital fingerprint created based on the algorithm for generating basic rings using a noise texture. Like human fingerprints, you can now use it for the Web3 and Metaverse era as digital biometric information."
      dc:publisher="https://nft.mir.one"
      dc:date="2022-02-22"
      dc:format="image/svg+xml"
      dc:language="en" >
      <dc:creator>
      <rdf:Bag>
        <rdf:li>EQBondcvD2_aOFADXSWJHs4ZazQDuEl9_wNvGGPxI8hGuOFU</rdf:li>
        <rdf:li>ipfs://bafkreihj7iub3fhmhq6jn62noukt5wxn3gv6bvcg7wmt6ywvlurefezckq</rdf:li>
      </rdf:Bag>
      </dc:creator>
    </rdf:Description>
  </rdf:RDF>
</metadata>
<g transform="translate(0.000000,1000.000000) scale(0.100000,-0.100000)"
fill="#1b1f23" stroke="none">
<path d="M4968 7813 c7 -3 16 -2 19 1 4 3 -2 6 -13 5 -11 0 -14 -3 -6 -6z"/>
<path d="M5048 7803 c23 -2 59 -2 80 0 20 2 1 4 -43 4 -44 0 -61 -2 -37 -4z"/>
<path d="M4528 7731 c-366 -165 -715 -426 -948 -710 -94 -114 -145 -197 -165
-270 -9 -31 -47 -112 -85 -181 -91 -168 -139 -265 -195 -396 -48 -111 -135
-357 -135 -378 1 -6 20 36 44 94 55 135 169 361 289 573 52 93 105 196 117
230 70 197 96 236 279 417 134 133 294 261 487 392 66 44 153 105 196 134 42
30 114 74 160 99 108 58 90 56 -44 -4z"/>
<path d="M5185 7640 c-315 -19 -432 -39 -593 -105 -212 -86 -616 -375 -808
-577 -92 -97 -138 -160 -211 -288 -281 -492 -326 -585 -408 -835 -104 -315
-140 -539 -132 -830 5 -203 17 -284 71 -510 94 -385 200 -596 443 -884 106
-125 235 -245 488 -452 105 -86 251 -214 325 -284 237 -224 321 -282 485 -331
120 -35 322 -45 442 -20 131 26 572 177 711 243 273 129 532 401 812 853 53
85 53 85 -66 -39 -66 -69 -218 -225 -339 -346 -233 -235 -272 -264 -420 -321
-39 -14 -123 -37 -189 -50 -72 -15 -134 -33 -160 -48 -174 -104 -289 -137
-476 -138 -261 -2 -304 23 -714 411 -72 67 -221 196 -331 284 -460 371 -618
581 -820 1092 -120 303 -159 524 -136 771 40 439 210 866 535 1344 130 191
288 339 546 510 69 45 158 109 198 142 185 152 320 201 719 259 235 34 455 80
525 109 26 11 57 21 70 21 13 1 -4 5 -37 9 -110 14 -378 19 -530 10z"/>
<path d="M5605 7405 c-74 -31 -131 -41 -310 -55 -443 -35 -745 -127 -745 -227
0 -45 37 -48 225 -19 412 65 578 58 833 -33 75 -27 143 -44 205 -51 50 -6 118
-17 150 -25 182 -46 436 -188 619 -346 31 -27 61 -49 66 -49 5 0 35 -18 66
-40 58 -41 58 -41 -5 36 -189 228 -287 324 -438 426 -114 78 -184 105 -368
147 -167 37 -225 59 -247 93 -8 13 -7 21 2 30 21 21 228 14 347 -11 55 -12
131 -26 170 -31 38 -6 78 -12 90 -15 51 -14 -247 129 -328 157 -131 44 -248
49 -332 13z"/>
<path d="M4875 6978 c-55 -5 -173 -7 -263 -4 -190 5 -216 0 -362 -75 -229
-117 -413 -300 -597 -593 -131 -208 -244 -457 -302 -663 -54 -190 -65 -278
-66 -498 0 -278 22 -375 123 -543 24 -40 66 -125 93 -188 27 -63 63 -142 79
-175 150 -296 375 -530 674 -701 104 -59 169 -112 226 -184 32 -40 97 -84 124
-84 12 0 41 7 66 16 34 12 111 18 310 24 380 13 496 36 778 158 348 151 554
299 662 478 19 32 46 100 61 158 15 56 39 135 52 176 15 44 38 171 57 305 42
299 39 401 -20 690 -76 371 -141 602 -211 754 -79 171 -132 236 -441 545 -279
278 -292 289 -371 326 -176 81 -378 105 -672 78z m382 -193 c232 -44 404 -148
520 -314 26 -36 92 -113 148 -171 56 -58 123 -134 149 -170 121 -164 225 -448
301 -823 14 -70 39 -156 55 -192 41 -92 54 -169 47 -288 -12 -203 -83 -404
-174 -488 -27 -25 -113 -84 -193 -133 -80 -48 -210 -132 -290 -187 -293 -202
-644 -339 -765 -299 -71 24 -39 53 123 111 239 87 426 200 621 374 115 103
125 108 206 125 87 18 143 47 203 107 98 97 163 287 165 478 1 113 -9 145 -49
145 -32 0 -45 -30 -74 -175 -41 -205 -81 -304 -152 -381 -27 -29 -49 -44 -65
-44 -31 0 -29 13 22 128 20 45 49 135 65 200 69 288 90 391 90 443 0 87 -26
207 -80 362 -26 78 -58 178 -70 222 -11 43 -35 106 -53 140 -42 80 -174 213
-247 248 -57 27 -355 97 -493 116 -316 44 -589 -55 -865 -313 -63 -59 -161
-179 -214 -262 -79 -124 -277 -582 -304 -704 -23 -108 -24 -350 0 -452 39
-171 123 -316 257 -442 60 -56 104 -88 172 -121 229 -113 455 -99 738 46 374
192 520 380 559 719 38 323 -116 584 -390 661 -74 21 -224 16 -300 -10 -85
-29 -185 -89 -254 -152 -197 -180 -170 -503 54 -648 71 -46 247 -105 311 -104
91 1 193 83 251 201 30 60 33 75 33 157 0 73 -4 100 -23 140 -79 172 -286 220
-399 92 -55 -62 -56 -141 -3 -192 39 -37 94 -40 121 -6 24 29 24 36 -1 61 -35
35 -19 70 32 70 81 0 132 -105 97 -197 -54 -144 -274 -152 -374 -14 -109 149
-44 346 143 434 60 29 77 32 157 32 80 0 97 -3 157 -32 198 -94 281 -325 206
-573 -43 -142 -133 -252 -319 -391 -161 -120 -269 -162 -419 -162 -102 0 -167
16 -270 66 -122 59 -220 159 -284 287 -69 142 -81 198 -80 375 0 129 4 164 27
248 31 116 122 349 180 462 133 256 361 448 634 532 82 25 101 27 263 27 163
0 183 -3 293 -32 194 -51 346 -138 422 -242 77 -104 38 -141 -75 -70 -169 105
-204 123 -292 155 -377 134 -762 47 -1016 -230 -75 -82 -108 -145 -182 -343
-92 -248 -104 -303 -105 -467 0 -131 2 -146 31 -225 54 -153 157 -274 285
-337 81 -40 135 -52 230 -53 125 0 209 40 195 94 -7 27 -20 33 -158 61 -211
44 -351 186 -395 400 -26 129 2 292 72 412 20 34 49 59 123 107 165 106 234
144 317 172 69 24 96 28 200 28 100 1 132 -3 190 -22 226 -75 381 -241 429
-459 30 -134 16 -403 -30 -598 -24 -100 -65 -175 -138 -253 -88 -93 -193 -166
-382 -265 -88 -46 -182 -98 -208 -116 -26 -18 -66 -41 -89 -51 -105 -47 -368
-65 -496 -35 -133 32 -319 155 -430 286 -153 180 -243 383 -244 544 0 106 32
505 43 547 7 23 24 48 45 64 44 33 64 69 126 222 148 365 296 571 566 786 211
168 340 223 554 233 141 7 241 -6 404 -54 175 -51 193 -55 215 -43 78 42 -77
168 -285 233 -124 39 -230 51 -390 44 -147 -7 -279 -31 -362 -67 -40 -17 -53
-29 -77 -76 -22 -41 -52 -75 -115 -127 -202 -168 -303 -273 -403 -422 -119
-177 -225 -427 -264 -620 -15 -77 -19 -86 -38 -83 -15 2 -25 16 -36 45 -28 84
22 296 119 498 135 284 319 503 556 665 55 37 110 79 123 93 22 23 22 25 6 42
-26 26 -125 17 -197 -19 -260 -127 -550 -514 -682 -908 -60 -182 -67 -258 -54
-597 9 -223 9 -302 0 -332 -14 -47 -40 -52 -66 -13 -48 74 -79 429 -56 645 31
283 143 574 330 856 192 289 409 472 619 519 193 44 720 67 869 39z m128 -950
c111 -32 189 -68 324 -148 174 -103 244 -190 292 -362 19 -64 23 -105 23 -205
-1 -135 -9 -202 -55 -440 -18 -92 -28 -170 -25 -191 7 -45 -12 -74 -41 -65
-49 16 -57 109 -27 326 24 177 22 373 -5 473 -50 190 -171 327 -376 430 -134
67 -202 82 -365 82 -136 0 -150 -2 -232 -31 -108 -39 -199 -92 -302 -178 -43
-36 -84 -66 -92 -66 -48 0 -8 96 73 177 104 104 250 181 409 217 104 24 283
15 399 -19z m965 -1719 c0 -35 -79 -134 -163 -206 -258 -221 -646 -400 -952
-439 -44 -6 -216 -12 -382 -13 -269 -3 -304 -1 -319 13 -25 25 -9 58 39 79 72
32 195 43 402 35 219 -7 303 4 471 60 201 67 395 171 599 321 194 142 244 174
276 174 24 0 29 -4 29 -24z"/>
<path d="M5811 6886 c-22 -26 0 -58 82 -123 41 -32 121 -95 179 -141 122 -95
266 -241 325 -327 48 -72 107 -186 140 -275 44 -117 161 -658 188 -870 20
-156 16 -355 -10 -510 -28 -168 -21 -240 25 -240 41 0 86 96 122 265 20 96 23
137 23 320 -1 238 -15 343 -87 640 -49 203 -53 270 -20 314 26 36 24 44 -40
128 -46 60 -67 112 -68 164 0 58 -46 133 -147 239 -154 162 -323 287 -508 377
-108 52 -182 66 -204 39z"/>
<path d="M6750 6233 c0 -9 11 -31 26 -50 41 -53 75 -38 38 17 -31 47 -64 64
-64 33z"/>
<path d="M6820 5949 c0 -6 18 -62 41 -123 52 -142 112 -377 135 -531 23 -156
23 -423 1 -555 -35 -203 -83 -313 -186 -418 -55 -56 -78 -92 -141 -217 -137
-273 -256 -422 -431 -538 -114 -75 -615 -299 -730 -327 -149 -35 -264 -44
-514 -42 -132 1 -267 3 -300 4 -58 3 -60 2 -63 -23 -4 -36 32 -77 92 -105 47
-22 63 -24 226 -24 172 0 566 16 645 26 29 3 62 21 115 61 75 56 235 138 340
173 30 10 88 23 127 28 55 8 88 20 135 48 82 49 290 257 355 354 110 164 284
559 334 759 89 349 77 783 -31 1200 -34 130 -67 208 -101 239 -25 24 -49 29
-49 11z"/>
<path d="M2961 4354 c0 -11 3 -14 6 -6 3 7 2 16 -1 19 -3 4 -6 -2 -5 -13z"/>
<path d="M2971 4314 c0 -11 3 -14 6 -6 3 7 2 16 -1 19 -3 4 -6 -2 -5 -13z"/>
<path d="M2981 4274 c0 -11 3 -14 6 -6 3 7 2 16 -1 19 -3 4 -6 -2 -5 -13z"/>
<path d="M2991 4241 c-2 -27 52 -229 81 -301 55 -139 173 -363 261 -495 61
-91 182 -240 272 -334 104 -109 220 -205 379 -316 157 -109 229 -176 224 -208
-5 -37 -41 -31 -157 28 -98 50 -300 128 -276 107 20 -18 312 -179 353 -195 23
-9 53 -17 66 -17 13 0 58 -23 100 -50 227 -148 401 -193 741 -193 205 0 269
11 400 68 55 24 176 74 270 111 137 53 514 233 440 209 -11 -4 -60 -17 -110
-30 -125 -32 -470 -146 -590 -195 -129 -53 -189 -67 -305 -75 -103 -7 -309 13
-415 40 -88 22 -215 88 -275 142 -28 25 -79 83 -113 127 -86 114 -168 192
-363 341 -367 281 -584 499 -754 755 -30 47 -71 105 -89 130 -49 66 -82 141
-112 260 -15 58 -28 99 -28 91z"/>
<path d="M6140 3241 c-22 -7 -159 -69 -325 -147 -27 -13 -56 -33 -64 -46 -12
-19 -11 -24 9 -40 43 -35 132 -18 268 48 98 49 182 119 182 153 0 16 -29 44
-42 40 -2 0 -14 -4 -28 -8z"/>
<path d="M4847 2927 c-16 -16 -17 -21 -4 -40 49 -75 290 -108 514 -72 159 26
219 63 174 108 -20 21 -30 21 -343 22 -300 0 -324 -1 -341 -18z"/>
</g>
</svg>
