<?xml version="1.0" standalone="no"?>
<!DOCTYPE svg PUBLIC "-//W3C//DTD SVG 20010904//EN"
 "http://www.w3.org/TR/2001/REC-SVG-20010904/DTD/svg10.dtd">
<svg version="1.0" xmlns="http://www.w3.org/2000/svg"
 width="1000.000000pt" height="1000.000000pt" viewBox="0 0 1000.000000 1000.000000"
 preserveAspectRatio="xMidYMid meet">
<metadata>
  <rdf:RDF
    xmlns:rdf = "http://www.w3.org/1999/02/22-rdf-syntax-ns#"
    xmlns:rdfs = "http://www.w3.org/2000/01/rdf-schema#"
    xmlns:dc = "http://purl.org/dc/elements/1.1/"
    xmlns:cc = "http://creativecommons.org/ns#">
    <cc:license rdf:resource="http://creativecommons.org/publicdomain/zero/1.0/deed.en"/>
    <cc:permits rdf:resource="http://creativecommons.org/ns#Reproduction"/>
    <rdf:Description about="https://nft.mir.one/fingerprints"
      dc:title="TON Fingerprints"
      dc:description="This is a unique digital fingerprint created based on the algorithm for generating basic rings using a noise texture. Like human fingerprints, you can now use it for the Web3 and Metaverse era as digital biometric information."
      dc:publisher="https://nft.mir.one"
      dc:date="2022-02-22"
      dc:format="image/svg+xml"
      dc:language="en" >
      <dc:creator>
      <rdf:Bag>
        <rdf:li>EQBondcvD2_aOFADXSWJHs4ZazQDuEl9_wNvGGPxI8hGuOFU</rdf:li>
        <rdf:li>ipfs://bafkreihj7iub3fhmhq6jn62noukt5wxn3gv6bvcg7wmt6ywvlurefezckq</rdf:li>
      </rdf:Bag>
      </dc:creator>
    </rdf:Description>
  </rdf:RDF>
</metadata>
<g transform="translate(0.000000,1000.000000) scale(0.100000,-0.100000)"
fill="#1b1f23" stroke="none">
<path d="M5056 7808 c12 -12 30 -39 39 -58 10 -19 84 -111 165 -205 285 -331
540 -678 635 -865 27 -54 27 -54 10 -103 -32 -89 -15 -153 144 -544 116 -285
172 -411 225 -503 159 -277 248 -563 310 -1000 42 -297 50 -448 43 -877 -4
-252 -3 -394 3 -398 6 -3 10 1 10 9 0 8 18 82 40 164 112 417 121 674 39 1167
-53 318 -144 627 -269 915 -39 91 -114 273 -167 405 -97 247 -229 532 -283
611 -78 116 18 128 122 15 97 -105 192 -298 302 -616 37 -104 101 -280 142
-390 97 -253 125 -336 175 -509 68 -240 124 -544 148 -806 14 -142 31 -262 41
-273 13 -15 33 410 27 571 -14 343 -49 492 -234 987 -43 117 -95 279 -123 390
-107 426 -215 634 -473 914 -38 40 -146 166 -241 280 -283 336 -335 389 -499
510 -124 92 -359 240 -331 209z"/>
<path d="M4655 7749 c10 -13 78 -83 150 -154 269 -269 342 -374 543 -775 162
-321 248 -525 366 -865 87 -248 99 -278 147 -352 56 -85 75 -142 94 -274 9
-63 29 -186 45 -274 60 -336 77 -546 86 -1045 3 -190 10 -379 14 -420 7 -59 6
-78 -5 -89 -11 -12 -18 -11 -46 5 -78 46 -89 111 -89 524 0 555 -19 787 -94
1178 -47 244 -62 294 -95 311 -29 16 -58 -15 -66 -72 -11 -69 11 -233 44 -332
51 -155 56 -225 54 -720 0 -247 -6 -533 -11 -635 -11 -190 -12 -198 -113 -635
-28 -120 -47 -162 -110 -237 -37 -44 -78 -115 -136 -238 -46 -96 -106 -219
-133 -273 -28 -54 -50 -104 -50 -113 0 -8 -7 -29 -16 -46 -25 -47 168 122 237
209 57 71 77 115 142 302 35 103 58 129 84 96 22 -29 11 -152 -25 -290 -32
-121 -49 -226 -34 -210 30 32 150 220 176 275 30 65 30 65 37 305 8 260 29
456 54 504 37 72 83 8 92 -129 6 -77 -12 -467 -27 -600 -5 -41 -6 -96 -3 -121
6 -47 6 -47 64 72 101 206 119 269 130 454 5 88 6 198 3 245 -6 79 -4 90 25
162 51 125 63 341 41 743 -18 328 -45 538 -111 860 -43 212 -46 241 -23 273
24 35 39 14 79 -111 126 -388 195 -934 182 -1432 -3 -121 -13 -265 -21 -320
-9 -55 -22 -197 -31 -315 -8 -118 -17 -233 -19 -255 -3 -22 -1 -67 3 -100 5
-33 9 -52 10 -43 0 10 23 74 51 143 55 138 113 327 129 420 35 208 39 725 6
1025 -42 393 -119 735 -206 917 -29 62 -52 93 -90 125 -55 47 -76 83 -170 295
-113 254 -200 488 -280 753 -31 100 -71 206 -104 271 -131 262 -382 624 -555
799 -83 84 -169 135 -320 188 -47 16 -94 33 -105 38 -20 7 -20 7 0 -17z"/>
<path d="M5550 7684 c30 -33 118 -124 196 -204 274 -281 551 -595 661 -747 82
-114 175 -303 258 -525 66 -177 66 -177 59 -256 -9 -103 0 -139 101 -402 45
-118 121 -334 170 -480 48 -146 89 -267 92 -270 3 -3 2 11 -1 30 -3 19 -20
121 -36 225 -44 270 -107 499 -228 822 -26 68 -29 83 -17 93 10 8 19 8 34 0
24 -12 106 -109 140 -163 12 -20 24 -37 27 -37 6 0 -43 108 -78 170 -92 166
-133 250 -177 366 -107 279 -161 384 -291 559 -229 310 -489 552 -880 819 -85
59 -85 59 -30 0z"/>
<path d="M4350 7663 c0 -16 62 -86 185 -208 242 -242 499 -548 493 -589 -4
-31 -42 -32 -93 -2 -24 14 -108 94 -187 178 -402 428 -398 425 -575 471 -90
23 -90 23 -70 -13 11 -19 68 -84 126 -145 59 -60 162 -171 230 -245 67 -74
221 -232 340 -350 192 -190 228 -230 300 -339 92 -140 212 -373 259 -504 56
-156 75 -270 75 -467 0 -246 -18 -339 -152 -820 -65 -236 -91 -351 -141 -635
-46 -265 -48 -304 -18 -371 55 -126 5 -343 -163 -707 -38 -82 -72 -160 -75
-173 -8 -31 -35 -45 -72 -38 -26 5 -30 3 -35 -24 -7 -35 -77 -139 -163 -243
-34 -41 -71 -98 -82 -125 -18 -49 -18 -49 93 8 155 81 180 104 233 216 36 76
58 107 117 165 64 64 81 89 142 212 117 238 166 405 183 623 37 471 64 684
150 1167 46 262 58 314 108 455 13 35 22 97 27 170 4 63 13 158 20 210 22 146
1 256 -97 520 -67 180 -164 382 -283 584 -95 164 -97 168 -104 249 -5 55 -16
102 -33 138 -69 149 -358 483 -466 538 -45 23 -272 101 -272 94z"/>
<path d="M3857 7296 c15 -18 57 -58 93 -88 70 -59 101 -95 409 -465 249 -301
327 -403 431 -568 50 -79 113 -162 160 -211 87 -90 124 -158 164 -296 42 -145
56 -274 55 -504 -1 -241 -6 -297 -31 -302 -35 -7 -48 49 -64 261 -24 329 -69
553 -137 682 -22 42 -40 63 -60 69 -65 23 -67 -43 -8 -294 22 -96 50 -245 61
-330 12 -85 33 -222 47 -305 14 -82 28 -184 30 -225 5 -91 -12 -155 -42 -155
-29 0 -43 38 -65 187 -50 326 -103 625 -136 768 -19 85 -42 198 -50 250 -29
179 -45 238 -88 322 -69 136 -177 288 -378 532 -55 67 -137 178 -184 247 -96
144 -153 213 -195 235 -16 8 -69 21 -118 28 -48 7 -94 17 -102 21 -21 13 43
-58 135 -149 80 -80 124 -150 113 -180 -11 -28 -41 -17 -115 44 -79 64 -110
76 -214 82 -67 4 -67 4 -50 -25 19 -33 173 -153 239 -186 23 -11 68 -31 100
-43 71 -26 159 -112 317 -309 206 -257 303 -425 380 -661 91 -280 148 -539
206 -940 18 -117 36 -235 41 -262 24 -125 8 -243 -71 -551 -27 -104 -63 -256
-80 -337 -77 -371 -206 -608 -502 -925 -53 -56 -109 -122 -126 -146 -30 -44
-30 -44 7 -32 20 7 61 20 91 29 30 9 76 28 101 43 53 32 171 158 265 283 80
106 195 337 265 530 28 80 78 204 109 276 69 156 87 217 144 492 35 167 54
232 90 315 25 58 53 139 62 180 9 42 27 93 40 114 88 143 108 243 108 538 1
234 -11 318 -66 473 -38 108 -81 195 -165 331 -138 225 -215 324 -447 580 -83
91 -191 211 -240 266 -200 224 -263 288 -296 305 -44 22 -136 40 -208 40 -53
0 -53 0 -25 -34z"/>
<path d="M3387 6716 c-48 -11 -48 -11 -15 -42 18 -17 72 -56 119 -87 166 -109
238 -196 226 -273 -6 -33 -2 -39 56 -92 157 -144 358 -372 454 -516 131 -195
228 -491 277 -844 39 -276 3 -497 -80 -497 -28 0 -29 2 -28 45 0 25 6 84 12
132 20 139 -7 360 -74 616 -61 235 -136 393 -226 477 -29 28 -120 118 -203
201 -162 163 -216 204 -370 282 -56 27 -128 66 -160 86 -67 40 -120 46 -208
23 -48 -12 -48 -12 -24 -45 32 -42 287 -239 409 -314 161 -98 243 -202 283
-357 9 -36 41 -139 70 -230 64 -198 83 -270 134 -518 45 -219 67 -282 127
-366 24 -34 58 -89 74 -122 27 -54 30 -69 30 -155 0 -117 -21 -211 -95 -440
-69 -211 -97 -283 -170 -434 -56 -118 -79 -140 -91 -90 -11 42 3 103 49 230
67 181 77 232 77 380 0 71 5 171 10 223 13 124 1 214 -55 418 -24 90 -56 241
-70 335 -34 218 -68 351 -145 564 -79 217 -124 307 -181 367 -47 48 -77 58
-99 32 -22 -27 -5 -84 108 -355 158 -380 180 -467 169 -648 -6 -77 -2 -133 19
-272 21 -143 25 -200 21 -310 -5 -150 -10 -170 -95 -355 -27 -60 -77 -186
-110 -280 -33 -93 -72 -201 -86 -239 -15 -38 -32 -96 -40 -128 -12 -54 -12
-58 3 -45 9 8 27 18 41 22 14 4 44 18 66 31 48 27 50 31 135 280 90 267 139
357 185 340 24 -9 13 -75 -36 -222 -23 -65 -61 -188 -86 -272 -24 -85 -60
-185 -79 -222 -19 -38 -43 -91 -53 -117 -19 -49 -19 -49 59 -22 100 35 110 43
167 124 41 59 54 70 100 87 85 31 150 126 257 373 54 123 90 185 125 212 17
14 70 17 70 4 0 -17 -120 -311 -156 -384 -56 -112 -110 -183 -278 -364 -138
-150 -235 -266 -208 -249 6 3 44 12 84 20 138 27 153 37 316 231 136 162 231
328 286 503 35 111 35 186 1 237 -26 37 -26 37 21 209 25 94 65 232 89 306 58
183 68 237 68 365 -2 270 -84 712 -185 990 -103 282 -232 484 -526 829 -47 54
-106 118 -131 143 -55 54 -226 178 -265 192 -34 14 -106 12 -169 -3z m693
-1248 c129 -247 266 -911 206 -993 -34 -47 -66 36 -116 305 -40 213 -86 390
-149 569 -31 87 -51 161 -51 187 0 84 46 56 110 -68z"/>
<path d="M3345 6485 c-5 -2 -38 -9 -73 -16 -62 -13 -62 -13 -35 -36 40 -33
235 -142 293 -164 58 -22 119 -25 144 -6 17 12 16 15 -11 46 -35 40 -180 146
-227 166 -33 14 -68 18 -91 10z"/>
<path d="M3095 5915 c-22 -8 -50 -15 -63 -15 -22 0 -22 0 5 -42 15 -24 52 -74
81 -113 93 -123 170 -304 193 -454 10 -66 9 -96 -4 -187 -37 -248 -36 -256 54
-524 119 -356 118 -544 -4 -960 -25 -85 -48 -178 -51 -206 -5 -52 -5 -52 27
-41 74 23 109 42 126 66 25 35 156 436 177 540 13 67 15 117 11 235 -6 174
-30 289 -79 375 -84 151 -100 185 -118 257 -25 98 -27 225 -4 249 28 27 42 0
91 -166 50 -173 68 -212 102 -217 31 -5 41 12 41 74 0 114 -54 268 -145 413
-34 54 -126 315 -163 463 -23 92 -53 146 -119 216 -55 58 -82 64 -158 37z"/>
<path d="M2947 5505 c11 -16 29 -48 41 -70 11 -22 43 -84 71 -138 61 -118 65
-147 16 -138 -5 2 -42 4 -83 7 -41 2 -79 7 -84 10 -24 15 97 -129 144 -171 77
-69 118 -59 118 31 0 28 7 84 16 123 19 83 10 150 -33 258 -35 88 -61 107
-139 100 -41 -4 -65 -2 -74 6 -7 7 -4 -1 7 -18z"/>
<path d="M5617 5068 c-8 -13 -18 -36 -21 -53 -7 -39 -88 -830 -121 -1185 -46
-496 -85 -653 -236 -950 -53 -106 -256 -428 -347 -553 -37 -51 -84 -127 -78
-127 1 0 43 21 91 46 176 91 245 150 312 269 86 150 273 513 297 575 59 157
117 457 135 700 26 327 44 724 45 960 1 236 0 258 -19 294 -24 48 -39 54 -58
24z"/>
<path d="M2918 4783 c5 -21 7 -23 10 -9 2 10 0 22 -6 28 -6 6 -7 0 -4 -19z"/>
<path d="M3010 4799 c-33 -13 -41 -28 -34 -66 9 -47 -14 -134 -37 -140 -17 -5
-17 -8 7 -42 28 -41 97 -213 125 -311 24 -83 43 -272 37 -367 -4 -52 -2 -71 5
-64 6 6 28 11 49 11 22 0 52 7 68 15 45 23 55 69 55 245 -1 133 -5 170 -27
260 -26 103 -136 404 -164 448 -15 23 -43 27 -84 11z"/>
<path d="M4975 3613 c-36 -37 -52 -70 -120 -253 -70 -191 -198 -455 -259 -535
-26 -33 -113 -127 -196 -210 -90 -90 -155 -165 -164 -187 -16 -36 -16 -36 27
-13 23 13 74 33 112 46 105 33 122 44 226 145 70 67 107 95 135 103 38 10 40
12 51 70 6 32 43 135 83 227 154 357 220 634 151 634 -10 0 -31 -12 -46 -27z"/>
<path d="M6621 3214 c0 -11 3 -14 6 -6 3 7 2 16 -1 19 -3 4 -6 -2 -5 -13z"/>
<path d="M4380 2340 c-11 -8 -7 -9 15 -4 37 8 45 14 19 14 -10 0 -26 -5 -34
-10z"/>
</g>
</svg>
