<?xml version="1.0" standalone="no"?>
<!DOCTYPE svg PUBLIC "-//W3C//DTD SVG 20010904//EN"
 "http://www.w3.org/TR/2001/REC-SVG-20010904/DTD/svg10.dtd">
<svg version="1.0" xmlns="http://www.w3.org/2000/svg"
 width="1000.000000pt" height="1000.000000pt" viewBox="0 0 1000.000000 1000.000000"
 preserveAspectRatio="xMidYMid meet">
<metadata>
  <rdf:RDF
    xmlns:rdf = "http://www.w3.org/1999/02/22-rdf-syntax-ns#"
    xmlns:rdfs = "http://www.w3.org/2000/01/rdf-schema#"
    xmlns:dc = "http://purl.org/dc/elements/1.1/"
    xmlns:cc = "http://creativecommons.org/ns#">
    <cc:license rdf:resource="http://creativecommons.org/publicdomain/zero/1.0/deed.en"/>
    <cc:permits rdf:resource="http://creativecommons.org/ns#Reproduction"/>
    <rdf:Description about="https://nft.mir.one/fingerprints"
      dc:title="TON Fingerprints"
      dc:description="This is a unique digital fingerprint created based on the algorithm for generating basic rings using a noise texture. Like human fingerprints, you can now use it for the Web3 and Metaverse era as digital biometric information."
      dc:publisher="https://nft.mir.one"
      dc:date="2022-02-22"
      dc:format="image/svg+xml"
      dc:language="en" >
      <dc:creator>
      <rdf:Bag>
        <rdf:li>EQBondcvD2_aOFADXSWJHs4ZazQDuEl9_wNvGGPxI8hGuOFU</rdf:li>
        <rdf:li>ipfs://bafkreihj7iub3fhmhq6jn62noukt5wxn3gv6bvcg7wmt6ywvlurefezckq</rdf:li>
      </rdf:Bag>
      </dc:creator>
    </rdf:Description>
  </rdf:RDF>
</metadata>
<g transform="translate(0.000000,1000.000000) scale(0.100000,-0.100000)"
fill="#1b1f23" stroke="none">
<path d="M4730 7745 c36 -20 119 -59 185 -86 553 -233 1280 -695 1391 -885 28
-47 25 -64 -9 -64 -26 0 -55 19 -244 162 -314 236 -685 455 -1047 618 -231
104 -393 140 -631 140 -110 0 -110 0 -60 -23 28 -13 82 -34 120 -47 535 -176
1027 -431 1559 -808 71 -51 179 -117 239 -148 135 -69 217 -145 390 -359 67
-82 153 -183 193 -222 66 -69 73 -73 115 -73 44 0 44 0 12 19 -31 20 -42 37
-177 276 -38 66 -121 201 -185 300 -65 99 -140 217 -166 263 -92 156 -250 300
-520 478 -403 264 -734 406 -1090 469 -49 8 -101 18 -115 20 -14 3 4 -11 40
-30z"/>
<path d="M5441 7703 c68 -42 203 -124 299 -183 525 -322 554 -340 627 -403 48
-41 48 -41 13 -3 -87 95 -390 316 -604 441 -95 55 -435 225 -452 225 -4 0 48
-34 117 -77z"/>
<path d="M4060 7441 c30 -15 125 -56 210 -89 85 -34 254 -100 374 -147 401
-158 647 -282 946 -479 433 -285 630 -454 871 -751 130 -160 402 -448 460
-487 46 -31 82 -33 87 -6 2 9 -6 26 -18 38 -11 11 -43 67 -69 125 -61 130 -95
178 -196 285 -45 47 -133 146 -197 221 -64 75 -152 169 -196 210 -98 92 -605
447 -844 590 -286 172 -623 330 -964 454 -146 53 -215 65 -389 65 -130 0 -130
0 -75 -29z"/>
<path d="M3856 7306 c23 -13 68 -26 100 -30 134 -16 148 -47 32 -71 -33 -6
-38 -39 -9 -55 11 -5 58 -19 106 -30 77 -18 531 -181 770 -277 418 -167 1009
-577 1226 -851 33 -41 85 -126 118 -195 33 -67 83 -158 111 -202 33 -54 63
-119 89 -200 21 -66 57 -168 80 -227 45 -117 49 -139 26 -158 -12 -10 -18 -10
-31 1 -28 23 -89 119 -164 259 -123 229 -200 321 -320 384 -81 43 -128 79
-312 239 -210 183 -359 300 -518 406 -280 186 -550 296 -574 234 -13 -33 31
-68 197 -155 256 -134 432 -261 756 -547 85 -75 191 -167 235 -205 212 -183
263 -237 404 -436 112 -157 174 -226 255 -283 189 -132 266 -436 198 -777 -33
-164 -58 -204 -102 -164 -12 11 -34 44 -49 74 -16 32 -63 91 -111 140 -68 69
-105 121 -199 275 -164 270 -322 489 -495 685 -153 174 -586 618 -744 762
-302 279 -312 290 -275 305 62 24 337 -202 778 -637 319 -315 420 -428 599
-665 168 -223 226 -315 320 -504 50 -100 91 -170 106 -179 22 -15 25 -15 42 7
14 17 19 40 19 89 0 165 -84 357 -230 527 -29 33 -112 137 -185 230 -72 94
-168 209 -211 256 -134 145 -537 518 -738 683 -198 163 -279 214 -506 320 -31
14 -95 59 -143 100 -124 106 -223 148 -311 132 -43 -8 -97 -51 -89 -72 3 -8
44 -32 90 -55 47 -22 109 -55 138 -74 84 -53 189 -158 231 -232 23 -40 88
-118 159 -192 236 -248 293 -309 486 -526 108 -121 238 -265 289 -320 179
-194 302 -363 515 -713 55 -89 163 -249 241 -354 78 -105 154 -215 168 -244
62 -126 71 -411 22 -647 -14 -65 -28 -123 -32 -130 -4 -7 5 -1 20 12 32 30
113 193 154 311 16 47 49 159 72 250 23 91 64 234 91 319 82 253 96 343 108
697 8 214 12 258 31 314 27 80 36 196 21 273 -22 119 -111 245 -259 368 -116
95 -140 122 -307 344 -173 231 -320 378 -545 547 -433 324 -693 461 -1337 707
-142 54 -293 117 -336 139 -79 42 -79 42 -195 42 -117 0 -117 0 -76 -24z
m2760 -1911 c80 -86 144 -252 144 -374 0 -50 -3 -62 -20 -71 -35 -19 -63 24
-108 161 -22 68 -56 164 -77 212 -20 49 -34 95 -31 103 11 28 49 15 92 -31z"/>
<path d="M3663 7102 c35 -36 220 -143 372 -216 55 -26 132 -67 172 -92 148
-92 288 -144 389 -144 87 0 201 -36 359 -114 284 -140 532 -321 921 -670 130
-116 182 -140 200 -91 27 69 -266 359 -615 608 -269 192 -496 308 -799 406
-246 80 -624 236 -735 303 -71 43 -71 43 -184 43 -112 0 -112 0 -80 -33z"/>
<path d="M3600 6913 c-39 -5 -141 -31 -147 -36 -19 -19 340 -186 489 -227 95
-26 179 -27 202 -1 28 31 5 56 -97 105 -334 161 -361 171 -447 159z"/>
<path d="M3370 6630 c-46 -17 -86 -30 -88 -30 -2 0 9 -11 25 -24 16 -13 78
-44 138 -69 61 -25 162 -68 225 -95 64 -27 152 -60 195 -72 107 -30 171 -64
290 -153 189 -141 402 -368 630 -672 167 -223 266 -369 326 -479 40 -74 43
-87 50 -182 8 -109 11 -120 163 -549 90 -251 122 -395 161 -715 9 -74 31 -198
48 -275 29 -130 31 -154 31 -330 0 -283 -43 -480 -159 -720 -25 -50 -25 -50
68 45 101 103 171 198 198 269 59 155 69 490 26 801 -15 102 -33 255 -42 340
-34 341 -80 482 -301 939 -52 107 -94 202 -94 213 0 13 7 18 27 18 79 0 282
-322 443 -702 75 -178 85 -227 71 -341 -13 -98 -10 -132 29 -422 30 -219 36
-479 16 -635 -9 -69 -26 -161 -37 -204 -24 -99 -36 -195 -22 -181 27 27 146
215 182 288 54 110 65 186 58 402 -7 198 -27 364 -64 525 -53 231 -52 224 -36
240 12 13 17 13 41 0 64 -36 135 -201 166 -390 23 -141 39 -415 34 -585 -7
-228 -4 -232 64 -89 64 133 72 160 87 289 21 173 8 407 -29 542 -30 109 -88
216 -195 358 -96 128 -136 191 -285 455 -148 263 -240 389 -400 555 -81 83
-210 229 -288 327 -162 202 -267 326 -478 564 -205 232 -324 350 -422 419 -82
56 -126 95 -168 148 -15 18 -47 33 -110 52 -49 15 -161 56 -250 91 -103 41
-175 64 -200 64 -21 0 -77 -14 -124 -30z"/>
<path d="M3318 6369 c-21 -5 -65 -22 -98 -39 -33 -16 -67 -30 -77 -31 -14 0
-15 -2 -3 -6 8 -3 26 -13 40 -23 14 -9 57 -27 95 -40 161 -53 267 -120 456
-291 152 -137 321 -276 403 -331 33 -23 107 -77 164 -120 98 -75 133 -91 147
-67 25 40 -53 126 -325 357 -264 225 -281 242 -351 336 -70 95 -125 137 -261
205 -117 57 -138 63 -190 50z"/>
<path d="M3852 6204 c-20 -39 3 -65 223 -249 164 -138 363 -335 404 -400 18
-27 39 -75 48 -105 15 -54 32 -84 118 -205 122 -173 181 -309 236 -549 22 -94
64 -252 94 -351 122 -407 149 -553 149 -805 1 -165 -2 -199 -27 -315 -41 -195
-154 -944 -149 -992 4 -41 4 -41 63 20 96 100 101 114 158 512 28 193 57 373
66 401 23 78 88 135 97 87 8 -44 -36 -449 -72 -661 -17 -95 -30 -191 -30 -213
0 -41 14 -79 29 -79 11 0 102 147 117 190 39 113 74 356 74 512 0 153 -13 203
-66 257 -41 42 -44 48 -44 100 0 31 -5 110 -10 176 -25 296 -64 478 -179 843
-39 123 -85 278 -101 345 -68 270 -100 337 -329 679 -177 267 -256 364 -415
515 -240 229 -423 345 -454 287z"/>
<path d="M3172 6081 c-83 -29 -83 -31 20 -91 311 -184 618 -444 743 -630 37
-54 118 -158 182 -232 124 -145 224 -285 243 -343 14 -42 6 -88 -15 -83 -7 2
-47 47 -88 101 -131 172 -464 561 -559 653 -112 107 -200 180 -375 307 -146
108 -176 118 -257 93 -27 -8 -54 -12 -60 -9 -17 11 30 -50 61 -78 15 -14 96
-75 178 -134 314 -227 468 -368 720 -660 235 -271 273 -307 348 -320 29 -6 52
-24 113 -88 41 -44 94 -107 116 -140 113 -167 217 -486 249 -767 31 -275 -19
-768 -119 -1179 -19 -81 -37 -170 -40 -200 -4 -54 -4 -54 38 -20 155 124 159
133 199 364 61 355 102 669 108 820 9 259 -30 478 -154 860 -73 223 -75 234
-83 365 -9 142 -21 192 -79 312 -74 155 -175 275 -306 364 -44 30 -111 77
-150 104 -38 27 -96 59 -127 70 -65 23 -101 51 -313 233 -199 171 -302 248
-407 302 -96 50 -110 52 -186 26z m944 -681 c104 -78 294 -271 349 -355 87
-131 176 -341 161 -381 -8 -22 -44 -17 -71 11 -14 13 -52 80 -84 148 -71 147
-137 239 -294 406 -115 123 -150 172 -140 198 8 21 22 16 79 -27z"/>
<path d="M3020 5544 c-19 -9 -46 -19 -58 -23 -23 -6 -22 -8 25 -50 26 -24 156
-115 289 -201 209 -137 257 -173 363 -276 143 -138 231 -240 389 -453 63 -85
144 -190 179 -233 137 -171 236 -438 274 -741 7 -64 10 -167 6 -290 -6 -222
-34 -407 -99 -667 -23 -91 -44 -190 -47 -221 -6 -56 -6 -56 49 -21 88 55 139
110 155 167 55 193 104 533 112 770 10 348 -40 616 -166 881 -71 148 -120 215
-256 350 -68 67 -187 195 -266 285 -164 189 -341 368 -449 456 -41 33 -145
110 -230 172 -169 121 -193 129 -270 95z"/>
<path d="M2972 5198 c-62 -32 -62 -32 -29 -66 17 -19 60 -57 95 -84 46 -37 82
-79 128 -151 52 -79 108 -143 273 -309 187 -189 211 -209 237 -206 81 9 11
117 -258 394 -173 179 -194 211 -133 207 43 -3 118 -60 237 -180 178 -180 230
-252 273 -378 32 -92 63 -141 132 -206 43 -41 55 -62 115 -215 103 -260 140
-408 154 -624 9 -135 -7 -241 -81 -536 -36 -142 -65 -279 -65 -305 0 -47 0
-47 60 -15 97 50 127 79 145 139 33 109 85 395 96 532 26 306 -36 630 -177
922 -61 126 -85 151 -133 135 -34 -12 -58 6 -47 34 18 46 -70 220 -191 381
-75 100 -249 281 -327 340 -34 25 -109 70 -168 99 -59 30 -132 70 -162 89 -30
19 -68 35 -84 35 -15 0 -56 -14 -90 -32z"/>
<path d="M2953 4801 c-32 -16 -32 -16 0 -57 18 -22 84 -89 147 -149 249 -235
505 -493 555 -560 127 -171 220 -406 260 -660 19 -121 38 -342 30 -354 -12
-20 -57 13 -80 60 -13 25 -38 113 -55 195 -57 278 -118 451 -218 616 -73 119
-160 223 -324 385 -158 157 -178 167 -262 142 -36 -10 -43 -16 -36 -29 5 -8
74 -83 155 -165 81 -83 183 -197 227 -255 94 -125 193 -317 243 -474 57 -179
135 -542 152 -714 5 -50 7 -52 23 -37 10 9 33 20 52 26 90 24 126 75 128 179
0 52 2 56 33 70 22 10 40 31 57 65 24 47 25 59 25 210 0 176 -18 279 -76 454
-88 264 -200 430 -369 543 -47 32 -160 135 -305 280 -126 126 -237 233 -245
238 -23 14 -81 10 -117 -9z"/>
<path d="M7071 4624 c0 -11 3 -14 6 -6 3 7 2 16 -1 19 -3 4 -6 -2 -5 -13z"/>
<path d="M7052 4527 c-7 -43 -12 -92 -11 -110 1 -18 7 13 15 68 7 55 12 105
10 110 -1 6 -8 -25 -14 -68z"/>
<path d="M3116 3938 c-9 -5 -25 -6 -36 -3 -16 5 -11 -7 24 -57 86 -124 203
-390 270 -618 14 -49 25 -73 25 -58 1 20 9 32 30 42 38 20 64 85 56 140 -26
169 -177 475 -260 526 -47 29 -88 40 -109 28z"/>
</g>
</svg>
