<?xml version="1.0" standalone="no"?>
<!DOCTYPE svg PUBLIC "-//W3C//DTD SVG 20010904//EN"
 "http://www.w3.org/TR/2001/REC-SVG-20010904/DTD/svg10.dtd">
<svg version="1.0" xmlns="http://www.w3.org/2000/svg"
 width="1000.000000pt" height="1000.000000pt" viewBox="0 0 1000.000000 1000.000000"
 preserveAspectRatio="xMidYMid meet">
<metadata>
  <rdf:RDF
    xmlns:rdf = "http://www.w3.org/1999/02/22-rdf-syntax-ns#"
    xmlns:rdfs = "http://www.w3.org/2000/01/rdf-schema#"
    xmlns:dc = "http://purl.org/dc/elements/1.1/"
    xmlns:cc = "http://creativecommons.org/ns#">
    <cc:license rdf:resource="http://creativecommons.org/publicdomain/zero/1.0/deed.en"/>
    <cc:permits rdf:resource="http://creativecommons.org/ns#Reproduction"/>
    <rdf:Description about="https://nft.mir.one/fingerprints"
      dc:title="TON Fingerprints"
      dc:description="This is a unique digital fingerprint created based on the algorithm for generating basic rings using a noise texture. Like human fingerprints, you can now use it for the Web3 and Metaverse era as digital biometric information."
      dc:publisher="https://nft.mir.one"
      dc:date="2022-02-22"
      dc:format="image/svg+xml"
      dc:language="en" >
      <dc:creator>
      <rdf:Bag>
        <rdf:li>EQBondcvD2_aOFADXSWJHs4ZazQDuEl9_wNvGGPxI8hGuOFU</rdf:li>
        <rdf:li>ipfs://bafkreihj7iub3fhmhq6jn62noukt5wxn3gv6bvcg7wmt6ywvlurefezckq</rdf:li>
      </rdf:Bag>
      </dc:creator>
    </rdf:Description>
  </rdf:RDF>
</metadata>
<g transform="translate(0.000000,1000.000000) scale(0.100000,-0.100000)"
fill="#1b1f23" stroke="none">
<path d="M5030 7754 c-257 -30 -521 -124 -732 -259 -99 -64 -125 -91 -133
-134 -3 -21 -19 -59 -35 -87 -80 -140 -476 -570 -517 -562 -29 5 -27 48 5 98
34 52 354 424 448 521 36 36 61 68 58 72 -15 15 -53 6 -97 -24 -59 -39 -287
-283 -419 -448 -102 -128 -153 -218 -299 -528 -37 -79 -88 -174 -113 -212 -80
-120 -110 -205 -141 -406 -9 -55 -23 -122 -33 -150 -30 -88 -18 -409 24 -609
23 -110 53 -169 189 -376 171 -260 222 -324 362 -461 288 -283 449 -389 689
-456 92 -26 113 -28 284 -28 206 0 254 8 465 75 66 22 167 51 225 65 201 51
305 110 440 251 93 98 154 189 225 336 78 163 108 282 109 433 0 153 -25 259
-99 410 -142 293 -339 439 -639 475 -166 20 -315 -11 -413 -86 -41 -31 -79
-95 -93 -158 -6 -27 -31 -86 -55 -130 -24 -45 -49 -101 -55 -126 -19 -69 -15
-167 9 -230 45 -119 167 -198 266 -170 82 23 132 112 86 154 -21 19 -22 19
-42 -2 -25 -27 -39 -28 -71 -2 -73 57 -15 173 78 155 43 -8 99 -56 125 -106
41 -81 17 -206 -51 -262 -65 -55 -109 -72 -190 -72 -67 0 -82 4 -140 35 -232
124 -316 381 -218 668 89 258 256 437 440 472 29 6 64 8 78 5 14 -2 107 -14
207 -25 100 -11 208 -27 240 -36 72 -18 167 -62 230 -105 161 -111 324 -358
399 -604 25 -81 28 -105 28 -250 1 -191 -10 -235 -110 -444 -88 -183 -178
-316 -294 -431 -145 -146 -272 -222 -532 -319 -448 -168 -743 -191 -1059 -82
-201 69 -276 115 -414 255 -60 62 -155 148 -210 193 -55 44 -127 107 -159 139
-112 112 -243 296 -343 480 -51 96 -129 211 -120 179 4 -11 27 -95 52 -187 51
-188 96 -311 160 -443 79 -160 155 -237 277 -284 119 -44 254 -149 246 -189
-6 -29 -66 -15 -160 39 -101 58 -141 63 -146 17 -2 -19 7 -38 33 -67 54 -60
120 -97 246 -140 63 -21 173 -64 246 -95 303 -129 438 -161 683 -161 150 1
188 4 265 24 237 61 639 238 800 352 118 84 303 270 387 389 37 52 99 158 139
235 40 77 90 166 111 198 64 94 71 124 72 287 1 237 -49 405 -199 665 -134
233 -265 376 -409 445 -101 48 -153 57 -386 66 -186 6 -220 13 -220 39 0 35
132 65 283 65 32 0 85 9 120 21 84 28 130 22 245 -37 117 -59 238 -169 316
-288 68 -102 236 -402 293 -523 63 -132 91 -267 103 -488 25 -460 24 -424 2
-512 -26 -103 -73 -205 -147 -319 -44 -68 -104 -135 -257 -286 -139 -137 -199
-202 -196 -215 5 -26 58 -28 105 -4 135 68 378 296 477 444 150 225 206 460
192 797 -8 181 -27 325 -61 466 -33 139 -62 199 -130 269 -49 50 -72 89 -145
240 -48 99 -97 206 -110 238 -71 180 -198 291 -505 443 -200 98 -270 117 -450
117 -112 0 -166 -5 -270 -26 -71 -15 -147 -27 -167 -27 -34 0 -38 3 -38 24 0
107 405 189 686 141 258 -45 566 -196 799 -390 43 -37 106 -80 138 -97 67 -33
132 -90 182 -158 33 -45 35 -51 29 -107 -5 -48 -1 -79 24 -168 17 -61 36 -150
42 -200 6 -49 24 -148 40 -220 57 -258 65 -332 65 -590 0 -192 -4 -258 -18
-329 -39 -189 -109 -359 -205 -496 -92 -131 -318 -334 -466 -419 -48 -27 -104
-49 -162 -62 -49 -11 -168 -52 -264 -89 -284 -111 -566 -193 -580 -169 -14 22
16 64 67 91 26 15 117 54 201 87 84 33 197 83 253 112 87 45 109 62 177 136
42 47 136 145 207 217 160 161 249 278 319 421 59 118 86 206 86 278 0 88 -54
88 -96 -1 -149 -320 -219 -426 -409 -617 -215 -216 -315 -287 -560 -395 -77
-34 -205 -93 -285 -130 -178 -83 -251 -106 -379 -119 -267 -28 -584 53 -998
254 -263 128 -344 189 -437 328 -30 45 -83 109 -117 142 -35 33 -59 53 -53 45
7 -8 46 -78 89 -155 102 -185 150 -251 265 -366 110 -110 175 -156 317 -227
318 -160 602 -239 899 -249 152 -6 152 -6 243 37 114 52 156 59 219 34 123
-48 362 -1 756 148 187 70 273 112 374 180 112 75 367 285 420 344 110 124
219 413 269 719 25 153 25 538 0 675 -59 321 -151 601 -245 742 -29 44 -21 63
22 52 69 -17 177 -190 249 -400 41 -117 123 -426 143 -534 13 -75 13 -75 8 15
-17 289 -89 618 -179 811 -49 107 -87 158 -195 264 -54 53 -119 129 -146 170
-60 94 -84 116 -214 202 -227 150 -563 290 -805 334 -137 26 -396 26 -513 0
-162 -35 -246 -70 -391 -164 -90 -57 -171 -100 -333 -175 -142 -66 -209 -116
-354 -266 -271 -281 -336 -362 -346 -431 -3 -21 1 -25 27 -28 22 -2 60 15 142
63 97 58 121 78 191 159 206 237 320 306 436 265 28 -10 38 -7 101 30 93 55
172 79 280 86 50 4 155 18 235 31 268 47 455 27 506 -52 28 -42 9 -48 -102
-34 -152 19 -225 8 -440 -66 -217 -74 -290 -111 -359 -179 -88 -89 -210 -280
-263 -415 -66 -168 -86 -379 -48 -520 44 -162 160 -309 306 -384 106 -55 142
-83 138 -109 -3 -20 -8 -22 -62 -20 -193 7 -384 141 -481 338 -89 182 -97 439
-19 685 32 103 78 196 155 315 71 110 89 152 89 205 0 53 -17 58 -72 25 -97
-60 -235 -219 -296 -340 -29 -59 -76 -248 -103 -418 -17 -110 -7 -320 21 -417
75 -263 279 -465 521 -516 121 -25 199 -7 281 64 26 22 64 46 85 52 91 30 260
130 319 189 102 102 109 274 18 437 -60 108 -33 141 48 59 60 -60 96 -129 114
-217 19 -91 12 -169 -27 -296 -16 -52 -29 -118 -29 -146 0 -56 -29 -127 -97
-237 -22 -35 -59 -97 -82 -137 -55 -95 -91 -135 -154 -171 -185 -103 -464
-123 -705 -49 -290 88 -640 403 -776 700 -57 123 -61 152 -42 291 10 67 24
150 33 184 8 34 13 77 11 95 -4 47 -32 49 -59 3 -12 -20 -27 -34 -33 -32 -19
6 -18 69 2 116 11 26 33 87 50 136 16 50 41 117 55 150 23 54 24 65 15 111
-22 112 39 222 233 419 127 130 166 187 154 226 -8 25 -15 24 -81 -12 -162
-87 -327 -217 -382 -299 -58 -86 -82 -158 -97 -290 -15 -131 -20 -150 -44
-150 -24 0 -53 34 -87 100 -26 49 -29 65 -29 150 0 86 3 101 31 160 31 66 123
188 186 248 26 24 48 35 89 41 31 5 102 32 160 59 120 58 171 69 213 47 37
-20 39 -19 86 10 57 36 236 124 365 180 61 26 172 79 249 117 255 128 461 179
726 180 153 0 259 -14 430 -57 205 -52 356 -113 650 -260 210 -106 313 -148
384 -159 40 -5 40 -5 -80 110 -168 163 -265 239 -369 289 -174 83 -414 159
-686 216 -238 50 -393 45 -746 -26 -160 -33 -234 -60 -443 -166 -157 -80 -184
-91 -268 -104 -80 -12 -105 -22 -190 -69 -53 -30 -146 -76 -207 -101 -137 -58
-165 -75 -242 -148 -69 -65 -96 -71 -101 -22 -4 39 17 89 65 153 52 69 82 90
143 102 140 27 262 116 383 280 148 200 346 436 408 486 192 154 399 253 607
289 113 20 151 19 250 -6 82 -21 84 -21 167 -3 86 19 94 34 20 34 -22 0 -80 7
-130 15 -96 16 -267 26 -325 19z m-1888 -2182 c54 -81 81 -149 108 -277 16
-73 37 -162 48 -197 27 -85 43 -174 36 -193 -10 -25 -45 -17 -80 20 -41 43
-86 160 -129 330 -55 216 -70 302 -57 330 17 36 45 31 74 -13z m2260 18 c307
-95 525 -468 480 -824 -20 -164 -86 -332 -188 -487 -54 -81 -184 -208 -245
-237 -56 -27 -149 -47 -183 -38 -30 7 -32 23 -12 81 7 22 19 58 26 80 7 22 39
85 71 140 65 109 105 206 140 335 31 114 33 307 5 390 -53 156 -160 264 -284
285 -24 4 -72 20 -107 36 -34 15 -85 33 -111 39 -109 26 -138 50 -106 89 15
19 61 39 262 117 53 20 177 17 252 -6z"/>
<path d="M5192 5510 c-37 -16 -39 -40 -6 -67 16 -12 33 -23 38 -23 4 0 46 -18
93 -40 150 -70 255 -203 299 -380 22 -88 14 -275 -16 -380 -32 -113 -119 -284
-199 -392 -77 -104 -86 -134 -38 -131 108 7 317 300 378 528 32 123 37 288 10
399 -52 216 -200 396 -383 464 -68 26 -145 35 -176 22z"/>
<path d="M5125 7589 c-134 -20 -329 -98 -416 -166 -94 -73 -402 -349 -472
-422 -107 -112 -134 -181 -72 -181 36 0 86 27 232 126 193 130 247 153 401
169 70 7 219 32 330 55 260 53 317 54 442 12 52 -17 178 -50 280 -73 207 -46
362 -93 495 -151 50 -21 108 -43 131 -48 22 -5 49 -12 60 -16 25 -9 -194 162
-266 208 -79 51 -195 107 -274 134 -66 23 -144 35 -308 49 -122 10 -142 46
-51 88 43 20 65 22 218 23 247 1 245 0 145 35 -109 38 -226 66 -315 74 -112
10 -179 -6 -327 -79 -141 -69 -448 -172 -545 -183 -50 -5 -53 -4 -53 16 0 50
71 92 290 171 80 28 164 62 187 76 43 25 63 58 45 76 -15 15 -87 18 -157 7z"/>
<path d="M6098 7393 c7 -3 16 -2 19 1 4 3 -2 6 -13 5 -11 0 -14 -3 -6 -6z"/>
<path d="M6650 6262 c0 -29 77 -110 249 -263 84 -74 84 -74 26 16 -84 130 -96
148 -135 191 -51 56 -89 84 -116 84 -20 0 -24 -5 -24 -28z"/>
<path d="M6320 5976 c-5 -15 -5 -39 2 -63 12 -44 130 -339 159 -394 41 -82 96
-69 85 20 -9 64 -74 277 -103 338 -51 105 -122 154 -143 99z"/>
<path d="M3770 5593 c-72 -74 -114 -149 -130 -231 -5 -29 -10 -152 -11 -275
-2 -256 7 -311 71 -444 78 -161 218 -316 386 -429 164 -110 305 -154 489 -154
244 0 380 70 557 288 70 85 128 178 128 204 0 47 -51 31 -146 -47 -209 -171
-301 -224 -433 -251 -90 -18 -160 -15 -263 12 -281 72 -530 343 -592 646 -20
98 -21 320 -2 420 8 40 28 114 45 165 34 100 38 132 19 151 -25 25 -53 11
-118 -55z"/>
<path d="M7091 4754 c0 -11 3 -14 6 -6 3 7 2 16 -1 19 -3 4 -6 -2 -5 -13z"/>
<path d="M6790 3559 c-7 -11 -10 -23 -7 -25 2 -2 9 7 15 21 14 30 7 33 -8 4z"/>
<path d="M6568 3468 c-25 -18 -88 -69 -140 -112 -230 -196 -521 -339 -864
-425 -174 -43 -243 -51 -441 -51 -147 0 -183 -3 -201 -16 -29 -20 -25 -51 8
-76 76 -56 373 -63 608 -13 202 42 384 105 566 196 178 89 297 188 458 381 49
59 96 108 104 108 8 0 14 9 14 20 0 33 -56 26 -112 -12z"/>
<path d="M6761 3474 c0 -11 3 -14 6 -6 3 7 2 16 -1 19 -3 4 -6 -2 -5 -13z"/>
<path d="M3435 3148 c22 -18 85 -73 140 -121 212 -187 356 -283 549 -365 132
-57 198 -74 505 -132 434 -82 627 -87 911 -24 204 46 452 151 615 260 105 70
259 201 360 305 75 77 79 83 24 33 -109 -98 -369 -249 -559 -323 -258 -102
-472 -150 -707 -158 -193 -7 -269 3 -438 57 -66 22 -204 55 -307 74 -221 42
-353 74 -474 117 -102 35 -326 141 -415 194 -33 20 -101 54 -152 76 -92 40
-92 40 -52 7z"/>
<path d="M4195 2420 c44 -18 136 -47 205 -66 466 -129 870 -124 1287 16 65 22
102 37 83 34 -441 -68 -439 -67 -665 -68 -228 0 -301 7 -602 59 -78 14 -182
29 -231 35 -49 5 -104 12 -123 15 -20 3 0 -7 46 -25z"/>
</g>
</svg>
