<?xml version="1.0" standalone="no"?>
<!DOCTYPE svg PUBLIC "-//W3C//DTD SVG 20010904//EN"
 "http://www.w3.org/TR/2001/REC-SVG-20010904/DTD/svg10.dtd">
<svg version="1.0" xmlns="http://www.w3.org/2000/svg"
 width="1000.000000pt" height="1000.000000pt" viewBox="0 0 1000.000000 1000.000000"
 preserveAspectRatio="xMidYMid meet">
<metadata>
  <rdf:RDF
    xmlns:rdf = "http://www.w3.org/1999/02/22-rdf-syntax-ns#"
    xmlns:rdfs = "http://www.w3.org/2000/01/rdf-schema#"
    xmlns:dc = "http://purl.org/dc/elements/1.1/"
    xmlns:cc = "http://creativecommons.org/ns#">
    <cc:license rdf:resource="http://creativecommons.org/publicdomain/zero/1.0/deed.en"/>
    <cc:permits rdf:resource="http://creativecommons.org/ns#Reproduction"/>
    <rdf:Description about="https://nft.mir.one/fingerprints"
      dc:title="TON Fingerprints"
      dc:description="This is a unique digital fingerprint created based on the algorithm for generating basic rings using a noise texture. Like human fingerprints, you can now use it for the Web3 and Metaverse era as digital biometric information."
      dc:publisher="https://nft.mir.one"
      dc:date="2022-02-22"
      dc:format="image/svg+xml"
      dc:language="en" >
      <dc:creator>
      <rdf:Bag>
        <rdf:li>EQBondcvD2_aOFADXSWJHs4ZazQDuEl9_wNvGGPxI8hGuOFU</rdf:li>
        <rdf:li>ipfs://bafkreihj7iub3fhmhq6jn62noukt5wxn3gv6bvcg7wmt6ywvlurefezckq</rdf:li>
      </rdf:Bag>
      </dc:creator>
    </rdf:Description>
  </rdf:RDF>
</metadata>
<g transform="translate(0.000000,1000.000000) scale(0.100000,-0.100000)"
fill="#1b1f23" stroke="none">
<path d="M4804 7797 c10 -6 37 -26 60 -43 23 -18 116 -69 207 -114 90 -45 269
-141 398 -213 259 -144 340 -182 440 -202 145 -31 211 -69 288 -167 32 -41
100 -102 196 -175 81 -62 149 -113 153 -113 4 0 33 -14 66 -30 59 -30 59 -30
-121 167 -215 238 -283 305 -377 375 -40 29 -90 77 -112 107 -49 65 -106 113
-232 195 -206 135 -223 138 -52 10 118 -88 226 -185 243 -216 14 -26 0 -48
-30 -48 -14 0 -76 28 -136 61 -386 217 -495 265 -788 349 -95 28 -183 54 -197
60 -21 8 -22 8 -6 -3z"/>
<path d="M4431 7689 c54 -41 140 -90 479 -274 195 -105 450 -247 565 -314 350
-204 390 -218 518 -191 75 15 102 36 88 71 -13 36 -59 62 -182 104 -133 46
-280 117 -505 242 -435 243 -570 302 -771 338 -48 9 -117 22 -152 30 -64 13
-64 13 -40 -6z"/>
<path d="M4150 7526 c19 -12 77 -44 128 -69 52 -26 119 -64 150 -85 32 -21 91
-61 132 -89 41 -28 165 -99 275 -158 492 -263 661 -393 857 -655 135 -183 192
-220 224 -145 11 27 12 45 4 81 -23 101 -138 283 -237 374 -116 106 -380 275
-718 460 -93 51 -235 130 -315 176 -85 48 -171 90 -205 99 -53 13 -237 35
-305 35 -23 0 -23 -1 10 -24z"/>
<path d="M3938 7367 c-78 -9 -78 -9 -40 -28 20 -11 140 -54 265 -96 137 -46
231 -82 235 -91 9 -24 -28 -42 -84 -42 -29 0 -115 16 -191 36 -161 43 -237 46
-369 14 -47 -11 -98 -20 -112 -21 -73 -1 360 -116 676 -179 133 -27 235 -59
375 -119 208 -89 310 -141 407 -205 137 -92 210 -173 295 -331 170 -315 194
-382 216 -591 16 -165 17 -591 1 -674 -25 -126 -79 -202 -131 -185 -27 8 -27
34 2 138 19 72 22 105 21 277 -1 432 -48 646 -177 810 -44 56 -53 62 -190 124
-135 61 -347 219 -347 258 0 9 8 18 18 20 38 9 111 -25 246 -116 136 -92 185
-113 201 -86 22 36 -41 125 -144 204 -83 64 -157 102 -267 140 -55 18 -171 63
-259 99 -198 80 -298 113 -574 183 -257 66 -303 68 -466 14 -99 -34 -99 -34
-45 -51 30 -9 100 -25 155 -34 306 -54 665 -174 858 -287 88 -51 135 -94 192
-173 72 -102 192 -206 306 -266 222 -116 319 -265 319 -488 0 -53 9 -150 20
-216 41 -243 37 -405 -10 -405 -23 0 -33 28 -71 204 -45 203 -68 258 -150 357
-94 113 -196 267 -226 342 -54 134 -65 150 -228 313 -160 160 -233 217 -363
283 -157 79 -400 161 -610 205 -120 26 -120 26 -194 7 -40 -11 -102 -33 -137
-49 -63 -29 -63 -29 -20 -41 24 -6 98 -20 164 -31 337 -57 682 -191 890 -347
175 -131 266 -235 456 -520 188 -282 234 -367 280 -518 45 -148 68 -201 115
-265 66 -89 84 -132 84 -194 0 -132 -77 -813 -126 -1111 -28 -176 -29 -216 -8
-283 21 -65 15 -96 -45 -219 -141 -288 -321 -500 -561 -660 -41 -28 -91 -58
-110 -68 -19 -10 -54 -35 -77 -57 -34 -30 -38 -37 -20 -33 12 2 74 9 138 15
131 11 243 37 330 76 46 21 81 50 162 133 118 123 174 202 282 396 42 77 103
178 134 225 220 328 272 402 318 458 75 90 118 155 224 342 149 263 152 277
124 465 -35 237 -56 457 -66 705 -16 403 -16 530 0 568 15 35 46 44 55 15 20
-68 52 -399 65 -694 9 -189 13 -214 41 -299 29 -89 30 -99 24 -201 -6 -92 -4
-112 10 -134 37 -56 78 -18 165 154 125 246 158 386 148 615 -10 200 -56 397
-148 625 -51 126 -57 163 -28 169 69 13 184 -229 271 -565 30 -117 32 -141 33
-283 0 -112 -5 -179 -18 -240 -40 -189 -133 -407 -254 -596 -38 -60 -85 -137
-103 -172 -25 -47 -39 -64 -59 -68 -83 -17 -109 -45 -234 -249 -47 -77 -137
-216 -201 -309 -160 -233 -245 -378 -335 -573 -116 -252 -183 -354 -329 -502
-67 -68 -138 -143 -157 -167 -35 -42 -35 -42 108 12 178 69 311 147 397 233
56 57 71 81 113 178 29 70 47 126 47 151 0 128 43 222 240 522 168 256 279
449 330 574 42 104 62 118 86 61 24 -59 0 -154 -82 -316 -48 -96 -130 -227
-312 -501 -145 -219 -182 -288 -169 -322 18 -46 95 7 194 130 168 212 326 450
417 632 63 124 80 168 136 351 23 73 71 202 107 285 195 452 237 595 250 851
7 161 -5 241 -56 355 -21 47 -60 150 -86 230 -77 234 -131 326 -237 408 -104
79 -146 122 -198 199 -52 77 -61 112 -35 133 43 36 144 -20 288 -159 165 -160
210 -242 283 -524 24 -92 51 -183 60 -202 28 -59 73 -56 74 4 0 64 -72 466
-96 533 -82 228 -216 415 -385 537 -229 166 -398 241 -492 217 -53 -13 -42
-57 48 -181 66 -92 94 -148 95 -188 0 -15 -18 -70 -40 -121 -28 -67 -42 -118
-49 -177 -5 -46 -28 -142 -51 -214 -73 -236 -73 -227 -66 -763 4 -262 9 -557
12 -655 7 -205 -4 -279 -63 -437 -77 -206 -167 -352 -207 -337 -23 9 -20 32
21 164 58 190 82 282 98 378 18 106 19 307 4 443 -8 69 -8 144 0 262 6 91 12
361 13 600 3 515 7 491 -122 689 -242 369 -381 490 -820 710 -96 48 -223 109
-282 136 -99 45 -109 52 -119 84 -26 81 -147 164 -265 181 -80 11 -120 11
-226 -3z m2244 -1438 c24 -13 54 -79 109 -237 101 -294 134 -678 74 -878 -15
-53 -49 -98 -68 -91 -9 3 -14 86 -18 288 -8 381 -43 599 -120 751 -36 70 -45
152 -18 169 18 11 16 11 41 -2z m-581 -1280 c13 -44 9 -227 -6 -346 -9 -65
-30 -185 -47 -268 -22 -110 -31 -183 -33 -275 -2 -112 -6 -133 -33 -202 -52
-134 -125 -228 -177 -228 -34 0 -36 21 -10 86 44 109 75 235 95 387 11 84 29
211 40 282 10 72 29 209 40 305 24 201 35 251 62 286 18 23 22 24 41 11 12 -8
25 -25 28 -38z"/>
<path d="M3335 6456 c-90 -35 -145 -60 -145 -67 0 -10 67 -26 195 -49 610
-107 1047 -395 1384 -914 105 -163 163 -320 132 -365 -17 -26 -38 -3 -91 96
-192 360 -453 635 -780 823 -210 120 -560 241 -705 244 -63 1 -78 -3 -143 -36
-41 -21 -81 -38 -90 -38 -38 -1 61 -33 169 -56 461 -94 851 -296 1149 -595
109 -109 191 -213 279 -356 33 -54 84 -123 112 -153 58 -61 80 -106 108 -218
43 -172 56 -372 41 -631 -28 -489 -111 -804 -279 -1056 -59 -88 -204 -240
-289 -304 -123 -90 -189 -119 -404 -177 -68 -19 -68 -19 35 -41 213 -45 336
-39 437 22 74 45 234 181 291 247 110 128 199 272 245 393 43 115 129 673 154
994 13 172 13 407 0 491 -6 36 -24 108 -40 161 -16 53 -43 155 -59 226 -46
204 -91 296 -268 551 -171 245 -318 397 -508 523 -182 121 -444 228 -696 283
-140 31 -157 31 -234 2z"/>
<path d="M4960 5972 c0 -35 201 -338 231 -347 33 -11 52 13 45 58 -20 123
-171 317 -248 317 -24 0 -28 -4 -28 -28z"/>
<path d="M3155 5960 c-27 -10 -71 -29 -96 -43 -46 -24 -46 -24 10 -41 31 -10
92 -31 136 -48 44 -16 157 -57 250 -90 229 -80 351 -140 605 -298 180 -112
229 -147 301 -219 133 -134 230 -284 201 -313 -21 -21 -54 7 -157 127 -137
162 -216 225 -279 225 -34 0 -41 -16 -20 -48 27 -41 216 -254 335 -377 118
-122 144 -170 144 -263 0 -41 -5 -57 -18 -67 -28 -20 -39 -11 -75 60 -38 73
-108 167 -276 370 -125 151 -166 219 -166 274 0 29 -9 43 -53 86 -144 140
-423 275 -631 306 -67 10 -76 9 -166 -20 -101 -32 -124 -46 -214 -128 -56 -52
-56 -52 -24 -55 18 -2 69 3 113 10 44 8 134 14 200 14 144 0 250 -27 383 -97
166 -89 193 -116 466 -485 260 -351 270 -364 330 -404 69 -46 81 -62 111 -159
97 -304 3 -731 -229 -1037 -58 -77 -112 -132 -333 -342 -121 -115 -122 -164
-4 -147 104 15 230 95 374 237 251 248 381 561 417 1007 12 152 -3 535 -25
653 -21 108 -101 348 -140 417 -147 263 -478 547 -842 720 -144 69 -516 196
-567 195 -6 -1 -33 -9 -61 -20z"/>
<path d="M3070 5721 c-19 -9 -50 -27 -68 -38 -32 -20 -32 -21 -10 -27 71 -19
190 4 196 38 9 44 -57 59 -118 27z"/>
<path d="M7031 5422 c-20 -48 -25 -88 -36 -252 -24 -357 -45 -439 -244 -938
-76 -191 -157 -396 -181 -457 -136 -353 -402 -747 -700 -1040 -139 -136 -181
-212 -146 -260 12 -17 15 -16 50 22 20 23 89 88 154 146 190 172 394 410 544
637 146 222 303 580 431 990 126 400 136 465 147 885 4 176 7 321 6 322 0 0
-12 -24 -25 -55z"/>
<path d="M3075 5272 c-33 -21 -81 -71 -138 -143 -36 -47 -36 -47 66 -21 248
61 464 17 653 -134 172 -137 353 -413 400 -609 44 -189 -40 -585 -109 -516 -8
8 -14 84 -18 234 -5 187 -10 234 -28 296 -83 282 -278 510 -511 596 -65 25
-90 28 -186 29 -105 1 -112 0 -146 -26 -20 -15 -62 -67 -95 -116 -51 -76 -56
-87 -34 -76 97 50 167 68 256 68 271 -2 473 -211 544 -561 11 -54 27 -127 35
-163 23 -98 21 -291 -4 -372 -38 -123 -170 -276 -303 -350 -32 -18 -74 -48
-93 -65 -18 -18 -39 -34 -46 -34 -7 -1 3 -5 22 -9 19 -4 67 -20 105 -34 103
-38 142 -35 207 15 112 87 210 198 317 357 23 34 66 90 96 123 69 77 96 135
130 277 28 116 53 162 85 162 25 0 30 -19 30 -118 0 -214 -98 -429 -317 -699
-88 -109 -187 -203 -298 -285 -44 -32 -95 -73 -112 -91 -33 -32 -33 -32 10
-45 23 -7 72 -18 109 -24 109 -19 120 -13 309 179 237 242 341 403 415 648 23
76 27 109 28 215 1 150 -13 191 -96 273 -38 38 -71 88 -118 177 -36 69 -108
190 -162 270 -225 338 -373 475 -596 553 -78 27 -102 31 -232 34 -131 4 -148
2 -175 -15z"/>
<path d="M3094 4726 c-70 -32 -129 -156 -122 -256 7 -92 74 -174 152 -187 31
-5 37 -2 55 28 37 60 22 148 -28 174 -30 14 -71 4 -71 -18 0 -27 -28 -41 -55
-29 -51 23 -21 111 48 143 51 23 86 24 135 3 130 -54 179 -206 111 -342 -37
-75 -86 -118 -196 -173 -46 -24 -80 -45 -76 -49 131 -109 190 -123 268 -62 52
40 161 169 202 239 88 151 -16 412 -201 503 -74 36 -174 48 -222 26z"/>
<path d="M3584 4078 c-11 -13 -36 -48 -54 -78 -78 -126 -165 -215 -260 -262
-25 -13 -59 -35 -77 -50 -32 -27 -32 -27 49 -67 111 -56 149 -56 220 2 115 93
202 261 203 388 0 84 -38 115 -81 67z"/>
<path d="M6529 3093 c-13 -16 -12 -17 4 -4 9 7 17 15 17 17 0 8 -8 3 -21 -13z"/>
<path d="M6356 2884 c-87 -103 -154 -184 -148 -180 20 12 320 366 310 366 -2
0 -75 -84 -162 -186z"/>
<path d="M6144 2638 c-19 -23 -19 -23 4 -4 12 11 22 21 22 23 0 8 -8 2 -26
-19z"/>
</g>
</svg>
