<?xml version="1.0" standalone="no"?>
<!DOCTYPE svg PUBLIC "-//W3C//DTD SVG 20010904//EN"
 "http://www.w3.org/TR/2001/REC-SVG-20010904/DTD/svg10.dtd">
<svg version="1.0" xmlns="http://www.w3.org/2000/svg"
 width="1000.000000pt" height="1000.000000pt" viewBox="0 0 1000.000000 1000.000000"
 preserveAspectRatio="xMidYMid meet">
<metadata>
  <rdf:RDF
    xmlns:rdf = "http://www.w3.org/1999/02/22-rdf-syntax-ns#"
    xmlns:rdfs = "http://www.w3.org/2000/01/rdf-schema#"
    xmlns:dc = "http://purl.org/dc/elements/1.1/"
    xmlns:cc = "http://creativecommons.org/ns#">
    <cc:license rdf:resource="http://creativecommons.org/publicdomain/zero/1.0/deed.en"/>
    <cc:permits rdf:resource="http://creativecommons.org/ns#Reproduction"/>
    <rdf:Description about="https://nft.mir.one/fingerprints"
      dc:title="TON Fingerprints"
      dc:description="This is a unique digital fingerprint created based on the algorithm for generating basic rings using a noise texture. Like human fingerprints, you can now use it for the Web3 and Metaverse era as digital biometric information."
      dc:publisher="https://nft.mir.one"
      dc:date="2022-02-22"
      dc:format="image/svg+xml"
      dc:language="en" >
      <dc:creator>
      <rdf:Bag>
        <rdf:li>EQBondcvD2_aOFADXSWJHs4ZazQDuEl9_wNvGGPxI8hGuOFU</rdf:li>
        <rdf:li>ipfs://bafkreihj7iub3fhmhq6jn62noukt5wxn3gv6bvcg7wmt6ywvlurefezckq</rdf:li>
      </rdf:Bag>
      </dc:creator>
    </rdf:Description>
  </rdf:RDF>
</metadata>
<g transform="translate(0.000000,1000.000000) scale(0.100000,-0.100000)"
fill="#1b1f23" stroke="none">
<path d="M4545 7669 c-78 -11 -318 -59 -324 -65 -2 -2 72 -4 166 -4 243 0 453
-24 688 -80 144 -33 192 -57 272 -131 95 -89 163 -110 163 -51 0 19 -16 41
-56 79 -68 63 -68 83 2 83 50 0 60 -7 164 -130 24 -29 67 -67 95 -85 57 -37
731 -378 815 -413 64 -27 62 -24 -85 93 -133 107 -358 256 -518 345 -307 169
-316 175 -289 202 28 28 190 -10 373 -87 46 -19 84 -33 86 -32 5 6 -234 127
-302 152 -42 16 -132 35 -234 50 -91 13 -249 36 -351 51 -205 29 -536 41 -665
23z"/>
<path d="M4188 7593 c7 -3 16 -2 19 1 4 3 -2 6 -13 5 -11 0 -14 -3 -6 -6z"/>
<path d="M4340 7463 c-98 -17 -327 -91 -403 -130 -29 -14 -88 -41 -131 -59
-79 -32 -79 -32 -15 -27 35 2 123 17 194 33 191 42 328 60 462 60 141 0 204
-15 262 -64 44 -37 45 -37 191 -61 121 -20 204 -42 410 -105 215 -66 322 -107
505 -195 319 -152 576 -313 789 -492 196 -165 286 -233 286 -218 0 2 -47 69
-104 147 -170 234 -310 377 -461 469 -44 27 -232 126 -418 220 -328 165 -342
171 -433 185 -69 10 -121 26 -193 59 -133 59 -192 78 -389 126 -298 71 -392
80 -552 52z"/>
<path d="M4298 7225 c-376 -52 -569 -132 -793 -330 -44 -39 -91 -79 -105 -89
-25 -18 -25 -18 19 -12 26 4 81 28 131 56 212 123 497 207 875 259 165 23 205
32 241 56 96 63 -105 96 -368 60z"/>
<path d="M4555 7024 c-110 -18 -258 -45 -330 -59 -259 -52 -512 -154 -622
-251 -70 -60 -158 -195 -193 -293 -15 -44 -38 -94 -50 -111 -26 -37 -57 -40
-66 -5 -12 48 7 115 67 236 37 76 59 132 57 148 -4 33 -33 40 -34 9 -1 -13
-27 -68 -58 -123 -30 -55 -74 -149 -96 -210 -23 -60 -71 -180 -107 -265 -73
-173 -148 -392 -157 -460 -5 -36 -2 -30 17 30 32 102 37 113 95 210 78 131
157 251 196 296 32 38 40 41 98 47 98 10 229 60 384 148 318 180 573 259 834
259 88 0 123 -5 191 -26 46 -14 176 -50 289 -78 262 -68 362 -102 538 -187
225 -108 400 -229 575 -398 207 -201 397 -475 367 -531 -27 -51 -94 2 -280
220 -295 344 -560 534 -926 660 -114 39 -262 73 -372 85 -52 6 -87 2 -195 -23
-73 -17 -186 -41 -252 -53 -153 -27 -271 -66 -413 -134 -261 -125 -460 -285
-651 -525 -47 -58 -150 -172 -231 -255 -127 -130 -150 -158 -170 -210 -157
-417 -30 -1113 259 -1427 111 -120 262 -212 338 -206 31 2 39 7 41 26 5 37
-18 63 -191 213 -184 160 -251 232 -302 324 -118 210 -172 569 -117 775 28
106 79 234 101 254 22 20 48 12 57 -17 18 -53 6 -132 -32 -212 -35 -73 -38
-86 -42 -192 -5 -127 7 -224 44 -358 53 -188 128 -302 238 -357 115 -58 286
-247 328 -361 12 -33 37 -75 55 -93 102 -102 460 -255 711 -304 375 -73 845
56 1220 334 121 90 305 265 395 376 167 206 283 456 337 720 17 83 21 130 18
225 -3 111 -6 125 -36 185 -18 36 -40 77 -50 92 -22 36 -9 59 47 77 147 47
248 -73 245 -294 -3 -195 -94 -540 -204 -772 -88 -185 -167 -284 -360 -450
-301 -259 -439 -360 -628 -457 -129 -66 -459 -179 -586 -201 -124 -21 -277
-19 -396 5 -124 25 -406 118 -633 209 -95 38 -220 86 -278 106 -125 43 -208
87 -309 163 -41 32 -88 65 -105 75 -16 11 -47 35 -69 55 -71 68 156 -220 238
-301 181 -179 270 -222 751 -367 94 -28 217 -74 274 -101 133 -64 215 -77 399
-61 158 14 267 42 346 87 117 67 181 95 247 104 130 18 340 151 673 424 100
82 159 122 259 173 150 78 201 123 266 237 107 189 194 423 264 708 25 101 59
214 76 249 29 61 31 72 31 182 0 141 -24 449 -46 573 -20 119 -74 278 -132
390 -40 78 -64 108 -182 226 -372 374 -943 680 -1520 815 -170 40 -301 40
-545 -2z m520 -167 c223 -51 488 -144 680 -240 450 -224 816 -541 960 -832 75
-150 95 -285 50 -335 -39 -43 -69 -17 -95 80 -38 143 -150 319 -305 479 -361
373 -833 614 -1435 733 -93 18 -148 22 -290 22 -186 0 -271 -11 -450 -59 -196
-53 -323 -113 -529 -252 -124 -83 -181 -104 -181 -68 0 27 161 184 245 241
174 115 408 195 695 238 162 24 164 24 360 21 152 -3 205 -8 295 -28z m-226
-671 c64 -8 160 -20 214 -26 230 -27 460 -120 680 -277 153 -109 388 -365 541
-591 35 -53 38 -60 32 -107 -4 -27 -11 -135 -15 -240 -16 -343 -66 -492 -297
-865 -121 -197 -155 -242 -243 -317 -229 -196 -538 -324 -852 -354 -335 -32
-719 97 -919 308 -123 130 -169 222 -170 339 0 39 -11 131 -25 205 -43 233
-58 396 -52 579 7 211 33 306 123 441 78 118 143 169 355 275 303 151 454 206
664 240 90 15 119 16 194 6 265 -36 521 -203 678 -444 161 -246 176 -549 40
-813 -94 -183 -378 -394 -640 -474 -208 -63 -423 -43 -500 48 -54 64 -32 80
78 56 121 -27 263 -18 390 26 148 51 253 117 366 229 79 79 103 109 137 180
57 116 73 184 73 310 0 82 -5 123 -23 186 -78 264 -310 479 -582 539 -167 37
-397 4 -600 -85 -338 -149 -570 -385 -622 -630 -25 -120 -14 -485 20 -647 56
-264 116 -383 251 -496 83 -70 252 -155 375 -191 388 -111 856 0 1188 281 145
123 127 239 -23 147 -285 -177 -366 -216 -535 -260 -69 -19 -132 -27 -230 -31
-157 -6 -264 12 -416 69 -277 104 -422 252 -484 497 -21 80 -22 92 -12 345 10
263 20 325 56 381 16 24 50 33 60 16 3 -4 8 -57 11 -117 8 -134 19 -184 52
-246 33 -61 114 -138 145 -138 13 0 81 -28 152 -62 125 -60 133 -62 220 -66
187 -8 354 55 468 177 76 80 113 151 130 250 29 169 -51 344 -202 441 -151 97
-378 96 -532 -1 -109 -70 -162 -161 -162 -279 0 -171 118 -305 281 -318 105
-8 197 40 234 123 54 117 -23 244 -141 232 -94 -10 -127 -116 -40 -129 62 -8
19 -83 -47 -81 -68 2 -123 69 -123 151 0 113 103 201 236 202 89 0 150 -24
210 -84 60 -60 84 -121 84 -211 0 -117 -85 -236 -208 -293 -50 -23 -70 -26
-167 -27 -109 0 -111 0 -198 42 -103 50 -171 113 -209 193 -47 99 -73 300 -47
367 46 121 231 254 423 303 96 24 242 26 334 5 202 -48 378 -216 437 -419 20
-68 22 -193 5 -268 -39 -168 -170 -323 -346 -411 -102 -51 -162 -66 -333 -83
-85 -8 -158 -17 -162 -20 -5 -2 -25 2 -45 11 -33 13 -70 42 -208 156 -47 40
-74 45 -81 17 -9 -33 7 -67 74 -166 74 -109 81 -124 81 -161 0 -62 -32 -51
-106 38 -53 64 -114 175 -149 274 -40 113 -97 128 -103 27 -6 -101 68 -280
151 -369 38 -40 120 -81 163 -81 18 0 72 -21 125 -49 152 -79 219 -96 384 -96
120 1 154 4 236 27 115 32 218 77 394 174 72 40 162 84 202 99 60 22 82 37
130 89 227 244 310 714 177 1014 -63 143 -246 362 -398 476 -162 121 -340 201
-519 232 -129 23 -207 14 -316 -35 -48 -22 -146 -60 -219 -85 -157 -55 -259
-99 -400 -173 -103 -53 -160 -66 -169 -37 -11 34 138 143 295 216 47 22 152
61 233 88 161 53 207 73 216 96 29 75 -210 51 -443 -45 -204 -84 -329 -177
-399 -297 -22 -37 -77 -115 -122 -171 -147 -185 -202 -300 -223 -467 -20 -164
19 -509 96 -853 42 -190 42 -195 7 -191 -20 2 -34 14 -49 42 -39 69 -106 348
-139 576 -9 63 -28 171 -41 240 -47 231 -32 363 55 513 81 138 275 372 398
480 172 151 435 268 693 310 53 9 128 6 239 -7z m-1504 -1340 c8 -19 26 -110
40 -202 24 -162 62 -326 105 -448 26 -76 27 -139 3 -134 -42 8 -127 190 -168
360 -40 168 -57 375 -35 432 13 36 38 32 55 -8z"/>
<path d="M4440 6516 c-237 -42 -380 -98 -700 -274 -85 -46 -183 -100 -216
-118 -34 -18 -89 -54 -122 -79 -174 -131 -347 -490 -251 -520 32 -11 63 18
156 143 156 212 278 321 528 471 262 158 465 232 729 267 160 21 200 33 204
61 2 15 -6 27 -24 40 -35 23 -197 28 -304 9z"/>
<path d="M2952 5565 c0 -16 2 -22 5 -12 2 9 2 23 0 30 -3 6 -5 -1 -5 -18z"/>
<path d="M2942 5505 c0 -16 2 -22 5 -12 2 9 2 23 0 30 -3 6 -5 -1 -5 -18z"/>
<path d="M2931 5454 c0 -11 3 -14 6 -6 3 7 2 16 -1 19 -3 4 -6 -2 -5 -13z"/>
<path d="M7037 4768 c10 -38 13 -85 9 -163 -5 -121 -27 -211 -76 -320 -49
-107 -216 -544 -229 -600 -7 -27 -14 -102 -15 -165 -3 -115 -3 -115 21 -35 13
44 68 211 122 370 109 322 152 466 177 600 21 111 24 310 6 343 -22 39 -30 24
-15 -30z"/>
<path d="M6501 3551 c-11 -11 -31 -57 -45 -103 -54 -176 -223 -376 -480 -565
-55 -41 -183 -126 -285 -191 -209 -132 -254 -169 -249 -204 2 -18 10 -24 34
-26 38 -4 104 25 259 113 407 230 654 468 790 759 52 111 71 185 55 215 -14
27 -54 27 -79 2z"/>
<path d="M6311 3513 c-18 -9 -88 -66 -155 -126 -161 -146 -274 -236 -430 -342
-71 -49 -163 -117 -204 -152 -92 -79 -115 -91 -205 -109 -40 -8 -107 -26 -151
-40 -114 -36 -226 -52 -446 -64 -147 -8 -222 -17 -305 -37 -98 -24 -131 -27
-302 -28 -105 0 -194 -3 -197 -6 -3 -3 54 -24 127 -48 167 -53 299 -70 537
-71 102 0 239 -5 305 -10 138 -11 257 0 341 31 30 11 88 48 131 83 43 35 174
130 292 211 326 224 460 331 578 463 125 141 169 211 152 244 -12 22 -25 22
-68 1z"/>
<path d="M3466 3081 c5 -5 59 -44 119 -88 217 -157 390 -237 551 -255 161 -17
256 7 239 61 -9 31 -50 46 -229 87 -195 44 -368 94 -481 139 -49 19 -99 35
-110 35 -11 1 -37 7 -59 15 -21 7 -35 10 -30 6z"/>
<path d="M5355 2952 c-46 -29 -60 -49 -45 -67 18 -22 44 -18 79 11 34 28 40
58 15 68 -20 8 -14 9 -49 -12z"/>
<path d="M6025 2577 c-44 -23 -138 -70 -210 -104 -140 -65 -185 -99 -185 -135
0 -23 0 -23 13 2 9 17 57 48 159 100 143 74 308 168 308 176 0 6 3 7 -85 -39z"/>
<path d="M4475 2339 c-22 -6 -60 -14 -85 -19 -43 -7 -43 -8 25 -9 101 -2 357
-28 406 -41 27 -8 43 -18 46 -31 4 -15 13 -19 32 -17 21 2 26 8 26 33 0 26 -7
33 -59 60 -57 29 -64 30 -205 32 -80 1 -164 -3 -186 -8z"/>
<path d="M5130 2234 c-159 -18 -176 -22 -191 -41 -12 -14 -10 -15 16 -10 17 3
59 9 95 12 36 3 133 15 215 25 83 11 164 21 180 23 17 2 -22 4 -85 4 -63 1
-167 -5 -230 -13z"/>
</g>
</svg>
