<?xml version="1.0" standalone="no"?>
<!DOCTYPE svg PUBLIC "-//W3C//DTD SVG 20010904//EN"
 "http://www.w3.org/TR/2001/REC-SVG-20010904/DTD/svg10.dtd">
<svg version="1.0" xmlns="http://www.w3.org/2000/svg"
 width="1000.000000pt" height="1000.000000pt" viewBox="0 0 1000.000000 1000.000000"
 preserveAspectRatio="xMidYMid meet">
<metadata>
  <rdf:RDF
    xmlns:rdf = "http://www.w3.org/1999/02/22-rdf-syntax-ns#"
    xmlns:rdfs = "http://www.w3.org/2000/01/rdf-schema#"
    xmlns:dc = "http://purl.org/dc/elements/1.1/"
    xmlns:cc = "http://creativecommons.org/ns#">
    <cc:license rdf:resource="http://creativecommons.org/publicdomain/zero/1.0/deed.en"/>
    <cc:permits rdf:resource="http://creativecommons.org/ns#Reproduction"/>
    <rdf:Description about="https://nft.mir.one/fingerprints"
      dc:title="TON Fingerprints"
      dc:description="This is a unique digital fingerprint created based on the algorithm for generating basic rings using a noise texture. Like human fingerprints, you can now use it for the Web3 and Metaverse era as digital biometric information."
      dc:publisher="https://nft.mir.one"
      dc:date="2022-02-22"
      dc:format="image/svg+xml"
      dc:language="en" >
      <dc:creator>
      <rdf:Bag>
        <rdf:li>EQBondcvD2_aOFADXSWJHs4ZazQDuEl9_wNvGGPxI8hGuOFU</rdf:li>
        <rdf:li>ipfs://bafkreihj7iub3fhmhq6jn62noukt5wxn3gv6bvcg7wmt6ywvlurefezckq</rdf:li>
      </rdf:Bag>
      </dc:creator>
    </rdf:Description>
  </rdf:RDF>
</metadata>
<g transform="translate(0.000000,1000.000000) scale(0.100000,-0.100000)"
fill="#1b1f23" stroke="none">
<path d="M4625 7686 c-100 -17 -223 -49 -317 -82 -93 -33 -329 -136 -324 -142
2 -2 13 1 23 6 33 18 459 121 565 136 184 28 308 18 308 -25 0 -27 -41 -44
-180 -74 -292 -61 -432 -106 -603 -191 -265 -133 -446 -279 -707 -570 -118
-131 -118 -131 -54 -90 35 23 110 76 166 120 312 238 597 390 963 509 166 55
500 145 585 158 154 24 621 -7 845 -56 61 -13 140 -29 177 -35 37 -6 75 -13
85 -16 72 -23 -197 115 -306 157 -177 69 -418 118 -756 154 -77 8 -162 22
-190 30 -71 22 -186 27 -280 11z"/>
<path d="M4745 7235 c-145 -45 -375 -131 -505 -190 -380 -171 -758 -454 -858
-643 -28 -53 -71 -169 -143 -384 -32 -96 -108 -464 -134 -653 -38 -265 7 -536
134 -800 54 -113 91 -156 116 -135 29 24 19 106 -34 261 -79 234 -86 275 -86
504 0 219 9 289 71 543 81 333 194 548 381 722 223 208 507 379 878 530 72 29
186 79 255 111 140 65 187 79 200 58 13 -19 -5 -46 -79 -119 -36 -36 -74 -77
-83 -91 -14 -21 -46 -36 -160 -75 -179 -61 -420 -179 -574 -283 -256 -171
-476 -369 -558 -503 -154 -249 -258 -718 -228 -1021 14 -137 30 -197 86 -341
24 -61 56 -155 71 -209 44 -162 75 -220 192 -354 89 -101 103 -122 103 -154 0
-37 -22 -42 -85 -18 -110 41 -204 131 -320 307 -41 61 -54 74 -87 83 -60 16
-120 78 -171 177 -75 147 -112 276 -147 517 -25 176 -25 225 -1 267 11 18 27
74 36 123 9 50 29 159 46 243 20 105 29 180 28 241 -1 95 0 99 84 254 24 45
37 81 36 105 0 35 -2 32 -46 -52 -73 -144 -100 -223 -107 -311 -4 -44 -18
-134 -32 -200 -13 -66 -34 -178 -45 -248 -11 -71 -27 -143 -36 -160 -14 -28
-15 -52 -4 -227 24 -431 98 -677 271 -910 39 -52 81 -117 93 -144 88 -199 83
-196 401 -216 144 -9 153 -11 230 -48 45 -21 143 -78 219 -126 77 -48 170
-101 209 -118 205 -87 433 -101 488 -30 11 14 17 28 13 32 -4 4 -66 19 -138
35 -217 46 -353 102 -391 160 -19 29 -13 55 14 55 10 0 114 -31 230 -69 219
-71 276 -100 288 -146 8 -33 38 -38 224 -37 336 0 642 93 847 257 179 143 350
387 422 602 25 74 28 155 6 173 -27 23 -60 -14 -123 -137 -86 -169 -169 -290
-270 -395 -105 -109 -180 -164 -304 -223 -123 -58 -233 -84 -388 -92 -172 -8
-265 7 -493 78 -260 82 -336 99 -438 99 -76 0 -93 4 -148 31 -72 36 -161 115
-238 211 -29 37 -85 93 -124 124 -85 68 -136 142 -173 253 -39 118 -43 185
-18 258 17 47 23 103 31 260 19 363 55 509 217 873 28 64 38 102 42 157 4 67
7 76 46 120 86 101 227 216 380 312 89 56 286 154 353 175 67 22 152 18 167
-7 9 -16 5 -24 -29 -54 -51 -44 -169 -122 -315 -208 -299 -176 -421 -307 -571
-610 -146 -297 -192 -527 -193 -975 -1 -231 -1 -236 26 -308 32 -87 63 -137
98 -152 21 -10 27 -9 42 10 23 28 23 23 -8 198 -66 367 -14 833 123 1107 56
110 91 152 168 200 38 25 103 78 142 119 122 125 248 212 380 263 62 23 89 26
288 35 367 15 550 -18 758 -136 207 -118 465 -394 585 -625 109 -210 149 -385
139 -615 -10 -221 -35 -475 -52 -540 -77 -281 -337 -640 -561 -772 -205 -121
-539 -204 -949 -236 -429 -33 -569 -4 -971 202 -239 122 -333 152 -405 131
-42 -13 -68 -44 -47 -58 7 -4 42 -22 78 -39 36 -17 106 -63 155 -102 111 -88
204 -138 360 -192 203 -70 341 -94 545 -94 96 -1 212 3 257 8 94 10 106 2 82
-56 -18 -44 -76 -66 -205 -79 -223 -21 -527 26 -869 133 -131 42 -179 52 -265
58 -150 9 -175 23 -342 192 -75 76 -141 138 -147 138 -17 0 169 -263 232 -328
67 -68 167 -140 241 -173 54 -23 566 -130 746 -154 147 -20 439 -26 661 -14
175 9 336 38 529 95 215 63 281 77 307 65 67 -31 -63 -109 -317 -189 -235 -75
-465 -106 -775 -105 -253 0 -325 8 -799 88 -322 55 -371 60 -413 49 -18 -5 -2
-16 80 -56 209 -103 334 -141 612 -187 264 -44 409 -55 624 -48 276 9 491 46
716 124 193 67 277 113 393 217 93 83 219 156 366 211 103 39 128 -1 54 -81
-48 -52 -376 -272 -513 -345 -325 -172 -781 -272 -1162 -255 -185 8 -329 27
-570 76 -191 39 -313 50 -313 30 0 -5 9 -10 21 -10 12 0 82 -24 158 -54 361
-144 617 -194 921 -183 169 6 275 22 446 66 369 96 714 291 970 547 72 71 99
107 127 165 19 41 73 131 120 200 102 151 161 272 175 356 6 34 39 133 73 220
75 194 135 373 142 433 6 44 6 44 -9 -10 -8 -30 -53 -134 -99 -230 -109 -231
-131 -284 -159 -390 -44 -164 -135 -294 -244 -347 -52 -26 -67 -28 -177 -29
-116 -1 -123 -2 -199 -38 -99 -45 -187 -72 -291 -86 -44 -7 -161 -32 -260 -56
-388 -97 -517 -116 -532 -78 -7 19 30 60 78 84 19 10 163 50 320 89 402 100
505 136 615 220 98 74 307 356 402 543 97 189 138 322 198 638 57 297 51 467
-22 690 -55 164 -160 353 -281 503 -80 100 -317 354 -382 410 -73 63 -230 139
-356 173 -84 22 -128 27 -270 31 -155 4 -181 3 -294 -21 -69 -14 -133 -24
-143 -20 -48 15 15 115 101 158 78 40 152 51 346 51 137 0 200 -5 265 -19 138
-29 266 -74 409 -142 135 -64 135 -64 177 -48 51 19 94 14 171 -21 117 -53
285 -191 403 -331 41 -49 99 -112 127 -140 53 -52 53 -52 -13 76 -79 157 -145
259 -235 367 -120 143 -188 184 -491 297 -224 83 -377 129 -503 152 -130 22
-353 23 -503 1 -62 -9 -130 -17 -152 -17 -73 0 -149 45 -122 72 11 11 215 84
307 109 142 40 373 35 590 -12 187 -40 439 -137 661 -254 66 -35 145 -73 175
-84 54 -20 54 -20 -67 97 -181 176 -357 309 -499 377 -188 89 -526 136 -832
114 -121 -9 -173 -9 -207 0 -82 20 -172 13 -291 -24z m-879 -1120 c3 -8 -19
-51 -50 -98 -129 -194 -214 -447 -247 -737 -8 -70 -10 -169 -5 -297 7 -186 6
-193 -12 -193 -48 0 -81 112 -89 300 -17 402 143 913 321 1021 37 23 75 25 82
4z"/>
<path d="M6187 6403 c-13 -12 -7 -64 12 -101 10 -20 74 -95 141 -167 67 -71
146 -159 175 -195 184 -226 310 -500 357 -774 27 -163 22 -254 -22 -361 -17
-44 -56 -174 -85 -290 -82 -325 -200 -598 -345 -795 -130 -175 -149 -211 -136
-245 13 -34 99 -6 179 59 87 69 147 170 266 445 113 260 150 378 191 619 24
143 36 174 63 170 32 -5 60 -53 74 -126 13 -67 13 -67 8 13 -3 44 -11 102 -20
128 -8 27 -19 117 -25 200 -23 337 -91 621 -199 835 -91 180 -380 472 -556
561 -65 33 -68 34 -78 24z"/>
<path d="M4995 6133 c-237 -33 -442 -165 -525 -337 -54 -114 -146 -388 -169
-504 -51 -254 -29 -474 67 -670 103 -212 361 -367 633 -379 81 -4 119 -2 164
12 221 64 449 274 538 498 46 116 61 216 51 352 -5 66 -9 172 -9 235 0 133 -3
141 -108 235 -235 213 -613 233 -840 45 -228 -188 -316 -551 -190 -783 37 -67
121 -141 184 -162 145 -48 346 49 416 201 43 94 29 221 -38 355 -49 98 -214
70 -290 -48 -51 -81 -36 -193 31 -228 38 -20 53 -19 80 3 20 16 21 21 10 42
-11 21 -10 26 9 41 29 24 60 13 78 -28 18 -43 10 -83 -24 -124 -37 -43 -74
-59 -139 -59 -137 0 -221 113 -212 284 17 310 364 497 669 360 70 -32 150
-112 180 -181 134 -309 -13 -704 -316 -854 -68 -34 -100 -44 -148 -46 -70 -4
-112 12 -112 42 0 16 15 23 75 40 109 30 175 70 261 155 122 121 178 264 166
426 -10 128 -76 238 -156 257 -31 8 -61 -8 -61 -32 0 -10 14 -48 31 -85 109
-234 27 -446 -231 -598 -52 -31 -106 -68 -119 -82 -21 -22 -33 -26 -78 -26
-136 0 -297 108 -372 249 -119 226 -103 523 45 811 131 255 340 380 634 380
270 0 493 -106 745 -355 179 -177 243 -311 253 -525 6 -146 -16 -241 -91 -390
-160 -319 -388 -556 -614 -636 -78 -27 -135 -31 -153 -9 -18 22 -1 38 99 92
138 75 200 120 296 217 134 134 236 301 291 471 68 211 28 476 -88 581 -40 36
-84 45 -94 19 -3 -8 8 -69 25 -136 67 -262 29 -479 -125 -710 -54 -81 -157
-189 -234 -246 -99 -72 -290 -185 -337 -199 -191 -57 -586 57 -760 220 -152
142 -233 382 -233 690 0 208 26 341 116 600 55 159 37 241 -38 169 -64 -61
-157 -299 -194 -498 -15 -80 -19 -147 -19 -330 1 -226 1 -233 37 -400 47 -218
67 -271 130 -341 95 -103 170 -141 448 -224 229 -69 316 -86 541 -106 182 -17
201 -17 277 -2 192 38 394 179 546 383 29 39 87 126 129 195 42 69 97 148 122
175 73 79 90 123 105 274 32 307 -92 610 -357 874 -263 261 -495 359 -842 356
-75 -1 -149 -4 -166 -6z"/>
<path d="M7052 4520 c0 -19 2 -27 5 -17 2 9 2 25 0 35 -3 9 -5 1 -5 -18z"/>
<path d="M7042 4450 c0 -14 2 -19 5 -12 2 6 2 18 0 25 -3 6 -5 1 -5 -13z"/>
<path d="M3039 4135 c70 -133 100 -177 137 -202 30 -19 48 -7 39 28 -9 34 -97
151 -174 229 -65 65 -65 65 -2 -55z"/>
<path d="M3467 3622 c-22 -24 -21 -54 2 -101 41 -78 168 -164 211 -141 37 20
18 57 -72 139 -31 29 -67 68 -78 87 -24 38 -39 42 -63 16z"/>
<path d="M5870 2450 c-8 -5 -10 -10 -5 -10 6 0 17 5 25 10 8 5 11 10 5 10 -5
0 -17 -5 -25 -10z"/>
<path d="M5775 2419 c-431 -140 -649 -181 -960 -182 -146 0 -178 -3 -140 -10
28 -5 138 -9 245 -10 268 -1 426 27 705 128 188 69 294 120 150 74z"/>
<path d="M4573 2243 c9 -2 23 -2 30 0 6 3 -1 5 -18 5 -16 0 -22 -2 -12 -5z"/>
</g>
</svg>
