<?xml version="1.0" standalone="no"?>
<!DOCTYPE svg PUBLIC "-//W3C//DTD SVG 20010904//EN"
 "http://www.w3.org/TR/2001/REC-SVG-20010904/DTD/svg10.dtd">
<svg version="1.0" xmlns="http://www.w3.org/2000/svg"
 width="1000.000000pt" height="1000.000000pt" viewBox="0 0 1000.000000 1000.000000"
 preserveAspectRatio="xMidYMid meet">
<metadata>
  <rdf:RDF
    xmlns:rdf = "http://www.w3.org/1999/02/22-rdf-syntax-ns#"
    xmlns:rdfs = "http://www.w3.org/2000/01/rdf-schema#"
    xmlns:dc = "http://purl.org/dc/elements/1.1/"
    xmlns:cc = "http://creativecommons.org/ns#">
    <cc:license rdf:resource="http://creativecommons.org/publicdomain/zero/1.0/deed.en"/>
    <cc:permits rdf:resource="http://creativecommons.org/ns#Reproduction"/>
    <rdf:Description about="https://nft.mir.one/fingerprints"
      dc:title="TON Fingerprints"
      dc:description="This is a unique digital fingerprint created based on the algorithm for generating basic rings using a noise texture. Like human fingerprints, you can now use it for the Web3 and Metaverse era as digital biometric information."
      dc:publisher="https://nft.mir.one"
      dc:date="2022-02-22"
      dc:format="image/svg+xml"
      dc:language="en" >
      <dc:creator>
      <rdf:Bag>
        <rdf:li>EQBondcvD2_aOFADXSWJHs4ZazQDuEl9_wNvGGPxI8hGuOFU</rdf:li>
        <rdf:li>ipfs://bafkreihj7iub3fhmhq6jn62noukt5wxn3gv6bvcg7wmt6ywvlurefezckq</rdf:li>
      </rdf:Bag>
      </dc:creator>
    </rdf:Description>
  </rdf:RDF>
</metadata>
<g transform="translate(0.000000,1000.000000) scale(0.100000,-0.100000)"
fill="#1b1f23" stroke="none">
<path d="M4805 7714 c-108 -11 -261 -39 -360 -64 -112 -29 -349 -109 -342
-116 2 -2 28 0 58 6 117 21 379 60 469 70 137 16 491 13 665 -5 195 -19 274
-19 303 1 30 21 28 34 -5 34 -16 1 -55 7 -88 15 -150 37 -304 56 -480 60 -99
1 -198 1 -220 -1z"/>
<path d="M5780 7552 c0 -21 44 -63 123 -118 45 -32 112 -83 148 -114 84 -72
132 -105 244 -165 103 -55 102 -53 -20 41 -49 38 -135 110 -191 159 -56 50
-143 115 -194 145 -108 64 -110 65 -110 52z"/>
<path d="M4718 7480 c-245 -18 -424 -59 -683 -155 -393 -146 -356 -129 -300
-137 95 -15 338 12 640 72 342 67 558 75 867 30 326 -48 468 -108 893 -377
105 -66 240 -147 300 -180 61 -33 151 -87 200 -120 50 -33 97 -63 105 -68 31
-18 -158 181 -248 261 -245 219 -643 504 -817 585 -128 60 -666 110 -957 89z"/>
<path d="M4595 7165 c-44 -8 -143 -33 -220 -55 -136 -41 -144 -42 -314 -46
-234 -5 -292 -23 -459 -141 -52 -37 -199 -160 -261 -218 -19 -18 91 23 224 83
260 117 486 166 520 112 13 -20 -54 -67 -152 -105 -392 -153 -408 -160 -503
-231 -80 -61 -287 -257 -263 -250 10 3 32 8 48 12 17 4 107 41 200 82 94 41
265 112 380 159 116 47 275 118 355 159 172 87 202 94 268 66 75 -32 128 -35
303 -17 205 21 253 18 257 -12 3 -17 -6 -27 -36 -42 -70 -36 -259 -76 -472
-101 -138 -16 -236 -41 -437 -113 -161 -58 -583 -225 -708 -281 -57 -26 -153
-110 -194 -170 -15 -23 -56 -95 -90 -161 -71 -134 -77 -134 77 1 83 73 172
122 372 207 409 174 591 232 960 302 47 9 114 29 150 45 36 15 101 38 145 50
44 12 121 41 170 66 123 60 199 78 301 71 293 -21 668 -208 942 -471 80 -76
106 -136 59 -136 -13 0 -63 28 -113 62 -306 212 -474 306 -662 368 -199 66
-439 75 -485 19 -17 -22 -17 -23 0 -41 10 -9 47 -24 83 -32 421 -94 516 -132
864 -341 149 -89 196 -111 285 -131 35 -8 82 -25 105 -36 125 -63 336 -261
448 -418 76 -108 188 -317 247 -465 21 -55 51 -127 66 -160 26 -60 26 -60 20
-10 -26 206 -92 467 -157 623 -60 144 -156 260 -361 436 -68 58 -146 136 -177
176 -233 305 -379 434 -643 567 -186 93 -316 134 -542 172 -84 14 -142 30
-190 53 -64 30 -80 33 -190 36 -92 3 -150 -1 -249 -18 -141 -24 -157 -21 -140
27 21 60 198 113 379 113 97 0 257 -26 475 -76 195 -46 291 -79 460 -160 230
-111 390 -229 502 -373 98 -124 255 -306 309 -357 30 -27 95 -77 144 -111 98
-65 143 -110 228 -224 55 -74 125 -147 114 -119 -13 36 -141 328 -157 360 -9
19 -25 69 -34 111 -26 118 -136 296 -261 423 -68 70 -113 95 -201 111 -52 10
-85 28 -212 113 -378 255 -622 362 -962 422 -160 29 -491 37 -615 15z m1961
-789 c183 -182 263 -297 224 -321 -20 -12 -70 27 -188 149 -206 214 -268 299
-241 332 18 22 42 4 205 -160z"/>
<path d="M4680 6357 c-33 -17 -33 -54 1 -79 14 -11 144 -55 288 -99 433 -131
576 -195 855 -382 117 -78 172 -130 187 -175 21 -66 48 -110 155 -254 115
-155 223 -330 280 -454 92 -199 168 -434 200 -614 22 -119 24 -360 5 -445 -15
-66 -136 -382 -198 -515 -77 -166 -195 -340 -323 -474 -169 -178 -355 -311
-640 -456 -98 -49 -204 -109 -237 -133 -33 -25 -70 -50 -82 -57 -13 -6 -21
-14 -18 -16 8 -8 386 145 492 199 278 143 523 348 703 590 120 162 194 295
293 525 27 62 65 138 85 168 66 99 106 282 106 489 1 144 -20 234 -107 461
-161 420 -297 649 -532 894 -106 111 -121 140 -70 140 49 0 132 -54 227 -150
156 -156 283 -354 400 -623 34 -78 89 -202 122 -276 33 -74 71 -164 83 -200
13 -36 33 -91 44 -121 20 -55 20 -55 20 15 1 290 -124 689 -308 985 -77 124
-169 237 -264 326 -104 97 -163 133 -318 195 -66 26 -197 92 -292 147 -302
175 -423 227 -690 302 -79 22 -181 54 -226 70 -90 33 -195 40 -241 17z"/>
<path d="M4259 6195 c-171 -28 -297 -67 -572 -176 -419 -168 -531 -265 -641
-561 -56 -152 -107 -377 -130 -583 -6 -50 -6 -50 7 -10 8 22 21 54 29 70 9 17
33 75 53 130 113 303 287 541 485 667 73 46 111 58 187 58 54 0 71 4 106 29
161 110 402 181 616 181 127 0 256 -22 504 -85 308 -78 468 -142 640 -255 334
-221 666 -743 757 -1190 27 -134 39 -248 46 -455 8 -214 -5 -303 -67 -460
-129 -330 -366 -589 -688 -750 -182 -91 -298 -124 -522 -150 -164 -19 -209
-27 -372 -71 -155 -41 -260 -59 -432 -74 -160 -14 -259 -27 -222 -29 15 0 98
-18 185 -38 142 -33 171 -36 307 -37 142 -1 154 1 225 27 166 63 291 81 369
53 24 -9 56 -16 71 -16 87 0 456 171 620 287 133 95 320 284 402 408 122 182
214 389 265 592 25 98 28 125 28 293 0 193 -8 259 -51 435 -76 307 -189 538
-428 875 -155 219 -233 301 -380 399 -202 134 -359 200 -731 310 -132 39 -278
84 -325 101 -103 38 -213 46 -341 25z"/>
<path d="M4285 5839 c-176 -23 -337 -90 -410 -171 -34 -38 -45 -58 -45 -83 0
-54 34 -54 191 -1 174 58 273 76 423 76 139 0 267 -19 405 -61 90 -27 96 -27
128 -12 62 29 147 15 265 -45 128 -64 217 -130 333 -247 286 -289 462 -700
442 -1035 -7 -119 -23 -165 -98 -281 -61 -96 -74 -139 -40 -139 10 0 29 8 42
19 40 30 64 40 79 31 15 -9 -6 -41 -90 -136 -25 -28 -82 -105 -127 -171 -46
-66 -128 -172 -183 -237 -111 -130 -120 -144 -120 -180 0 -37 27 -33 98 15
172 114 460 517 479 670 6 49 27 79 53 79 25 0 28 -16 19 -95 -22 -181 -154
-412 -343 -600 -112 -112 -172 -145 -262 -145 -50 0 -80 -7 -141 -34 -115 -51
-187 -69 -250 -64 -65 6 -108 38 -83 62 8 7 40 22 70 31 156 50 231 108 399
310 161 194 264 370 274 470 4 33 25 114 49 180 39 113 42 128 46 251 5 144
-9 238 -54 373 -113 337 -385 655 -699 817 -136 70 -196 70 -163 1 16 -33 31
-46 223 -188 397 -294 607 -730 545 -1129 -17 -104 -79 -318 -116 -399 -86
-187 -279 -417 -412 -491 -165 -92 -166 -93 -195 -150 -15 -30 -36 -63 -48
-72 -40 -34 -340 -122 -514 -152 -192 -33 -526 -38 -692 -11 -24 4 -63 2 -92
-5 -50 -12 -50 -12 82 -77 150 -74 269 -117 374 -134 96 -16 268 1 490 47 256
53 306 61 458 79 207 25 399 81 578 171 225 113 459 402 553 681 34 100 37
220 8 273 -16 30 -19 65 -25 250 -5 162 -12 240 -28 316 -88 421 -368 853
-696 1074 -160 108 -258 145 -539 204 -343 72 -476 86 -641 65z"/>
<path d="M3685 5723 c-85 -44 -289 -258 -388 -408 -115 -174 -195 -369 -216
-528 -50 -362 59 -855 242 -1103 63 -86 149 -134 202 -114 56 21 41 69 -67
217 -128 174 -193 321 -223 504 -30 188 -14 406 45 581 63 187 159 343 328
532 56 63 109 131 117 150 18 44 20 159 3 174 -9 7 -22 6 -43 -5z"/>
<path d="M4355 5514 c-174 -19 -447 -102 -547 -166 -185 -119 -354 -370 -419
-623 -30 -117 -33 -311 -6 -427 48 -205 125 -332 326 -541 86 -89 117 -114
175 -142 91 -43 176 -59 274 -52 98 7 177 36 237 89 51 45 144 177 193 274 93
185 86 364 -20 459 -48 44 -78 56 -139 57 -85 0 -156 -51 -180 -131 -33 -109
56 -195 151 -146 42 22 66 70 49 102 -16 30 0 48 35 39 57 -14 73 -115 32
-203 -63 -135 -225 -226 -346 -193 -56 15 -114 72 -129 125 -39 140 18 343
125 448 66 65 135 90 235 85 275 -16 420 -319 309 -644 -11 -32 -43 -104 -70
-160 -65 -134 -66 -184 -4 -184 33 0 96 75 139 164 62 130 79 206 79 356 1
149 -18 236 -75 356 -44 94 -103 157 -187 202 -82 44 -224 84 -303 85 -87 1
-160 -34 -245 -119 -53 -53 -75 -86 -145 -228 -83 -166 -83 -166 -87 -263 -2
-54 -9 -104 -14 -110 -37 -46 -108 26 -187 190 -83 171 -97 253 -67 410 51
266 242 508 492 623 232 108 511 122 718 38 143 -58 336 -194 464 -328 197
-205 294 -431 294 -681 0 -135 -21 -238 -73 -368 -78 -197 -161 -313 -328
-459 -31 -26 -42 -43 -39 -59 10 -73 110 -35 234 89 157 157 276 398 319 646
61 353 -69 701 -366 980 -107 101 -376 298 -464 340 -38 19 -102 41 -140 50
-75 16 -233 27 -300 20z"/>
<path d="M4296 5179 c-274 -67 -499 -260 -597 -513 -40 -103 -52 -251 -25
-305 14 -26 22 -32 44 -29 28 3 28 2 92 173 62 168 164 296 296 372 216 126
267 151 330 163 169 32 382 -54 592 -239 198 -174 279 -352 270 -594 -4 -118
-19 -169 -73 -247 -36 -51 -155 -349 -155 -386 0 -38 19 -48 50 -27 52 37 213
330 259 471 84 261 24 544 -165 780 -144 181 -395 348 -581 387 -95 20 -241
18 -337 -6z"/>
<path d="M4415 4925 c-22 -8 -41 -15 -42 -15 -2 0 -3 -11 -3 -25 0 -30 29 -47
120 -70 151 -38 301 -138 344 -228 53 -112 104 -333 113 -486 9 -162 -26 -322
-104 -473 -55 -105 -106 -146 -261 -207 -197 -78 -263 -93 -433 -98 -161 -6
-235 3 -369 44 -124 38 -145 42 -252 53 -90 9 -188 28 -263 51 -26 8 -23 3 30
-52 62 -64 297 -245 370 -286 84 -47 210 -66 425 -67 218 0 333 15 482 65 124
41 197 80 266 143 70 65 102 129 131 262 11 50 36 144 57 210 44 136 48 197
26 379 -17 140 -35 221 -67 314 -39 116 -30 164 23 109 58 -63 104 -217 117
-398 4 -52 11 -103 16 -112 15 -27 37 -21 56 15 14 25 18 57 18 152 0 218 -61
353 -210 466 -27 21 -84 65 -124 98 -160 130 -358 196 -466 156z"/>
<path d="M6803 3615 c0 -22 2 -30 4 -17 2 12 2 30 0 40 -3 9 -5 -1 -4 -23z"/>
<path d="M5070 2413 c-154 -26 -300 -76 -300 -103 0 -27 241 0 315 36 47 22
62 49 36 64 -11 5 -21 9 -23 9 -2 -1 -14 -4 -28 -6z"/>
</g>
</svg>
