<?xml version="1.0" standalone="no"?>
<!DOCTYPE svg PUBLIC "-//W3C//DTD SVG 20010904//EN"
 "http://www.w3.org/TR/2001/REC-SVG-20010904/DTD/svg10.dtd">
<svg version="1.0" xmlns="http://www.w3.org/2000/svg"
 width="1000.000000pt" height="1000.000000pt" viewBox="0 0 1000.000000 1000.000000"
 preserveAspectRatio="xMidYMid meet">
<metadata>
  <rdf:RDF
    xmlns:rdf = "http://www.w3.org/1999/02/22-rdf-syntax-ns#"
    xmlns:rdfs = "http://www.w3.org/2000/01/rdf-schema#"
    xmlns:dc = "http://purl.org/dc/elements/1.1/"
    xmlns:cc = "http://creativecommons.org/ns#">
    <cc:license rdf:resource="http://creativecommons.org/publicdomain/zero/1.0/deed.en"/>
    <cc:permits rdf:resource="http://creativecommons.org/ns#Reproduction"/>
    <rdf:Description about="https://nft.mir.one/fingerprints"
      dc:title="TON Fingerprints"
      dc:description="This is a unique digital fingerprint created based on the algorithm for generating basic rings using a noise texture. Like human fingerprints, you can now use it for the Web3 and Metaverse era as digital biometric information."
      dc:publisher="https://nft.mir.one"
      dc:date="2022-02-22"
      dc:format="image/svg+xml"
      dc:language="en" >
      <dc:creator>
      <rdf:Bag>
        <rdf:li>EQBondcvD2_aOFADXSWJHs4ZazQDuEl9_wNvGGPxI8hGuOFU</rdf:li>
        <rdf:li>ipfs://bafkreihj7iub3fhmhq6jn62noukt5wxn3gv6bvcg7wmt6ywvlurefezckq</rdf:li>
      </rdf:Bag>
      </dc:creator>
    </rdf:Description>
  </rdf:RDF>
</metadata>
<g transform="translate(0.000000,1000.000000) scale(0.100000,-0.100000)"
fill="#1b1f23" stroke="none">
<path d="M4775 7745 c177 -31 266 -41 543 -60 123 -8 257 -22 299 -30 42 -8
78 -13 80 -11 6 6 -179 54 -267 70 -123 22 -400 45 -612 51 -183 5 -183 5 -43
-20z"/>
<path d="M5718 7633 c7 -3 16 -2 19 1 4 3 -2 6 -13 5 -11 0 -14 -3 -6 -6z"/>
<path d="M4420 7605 c-8 -2 -64 -7 -125 -11 -110 -6 -110 -6 -60 -26 71 -28
165 -42 650 -93 496 -52 422 -43 783 -96 156 -23 285 -39 289 -36 45 46 -284
166 -582 211 -205 32 -407 47 -670 51 -148 2 -277 2 -285 0z"/>
<path d="M4210 7413 c-66 -7 -225 -43 -313 -72 -88 -28 -88 -28 -30 -39 32 -6
126 -14 208 -17 193 -7 585 -44 1095 -102 368 -42 429 -46 670 -48 194 -2 287
-7 349 -18 52 -11 105 -14 141 -10 58 6 58 6 -56 65 -179 93 -173 91 -394 93
-153 2 -260 10 -500 38 -453 54 -1053 117 -1097 115 -21 0 -54 -3 -73 -5z"/>
<path d="M3930 7153 c-58 -10 -192 -60 -303 -113 -118 -58 -118 -58 -65 -62
29 -2 89 1 133 6 121 13 669 12 850 -2 211 -17 480 -47 690 -77 288 -41 416
-55 509 -55 77 0 98 4 155 29 36 16 92 41 124 55 47 20 57 29 57 49 0 45 -41
52 -219 39 -183 -14 -275 -8 -696 43 -567 68 -1120 107 -1235 88z"/>
<path d="M6210 6910 c-42 -10 -229 -86 -247 -102 -24 -20 -15 -48 22 -64 26
-11 82 -14 233 -14 109 0 236 -5 281 -11 45 -6 98 -8 117 -4 35 6 35 6 -38 53
-103 67 -174 106 -241 130 -61 23 -72 24 -127 12z"/>
<path d="M3815 6859 c-187 -14 -212 -23 -465 -180 -56 -34 -56 -34 -10 -36 25
-1 122 9 215 22 273 39 447 48 805 42 563 -9 735 -39 1500 -260 85 -25 181
-51 212 -58 56 -12 60 -11 108 15 27 15 71 29 98 33 66 7 193 -11 332 -48 63
-17 142 -33 175 -36 60 -5 60 -5 35 13 -14 10 -47 38 -75 62 -57 51 -165 123
-210 140 -45 16 -92 21 -295 27 -200 7 -226 11 -370 56 -99 30 -590 123 -840
158 -353 49 -911 72 -1215 50z"/>
<path d="M4095 6584 c-222 -11 -583 -53 -652 -75 -37 -12 -149 -86 -241 -159
-63 -50 -63 -50 -20 -50 24 0 111 13 193 30 405 79 574 95 1015 95 476 0 697
-22 809 -77 37 -18 47 -29 49 -52 4 -29 4 -29 -65 -22 -286 28 -952 38 -1163
17 -173 -17 -364 -46 -565 -87 -190 -38 -207 -46 -343 -168 -72 -65 -72 -65
-35 -72 39 -7 201 22 498 91 332 77 562 98 1015 93 349 -3 581 10 664 38 33
11 67 15 110 12 127 -11 463 -147 581 -236 28 -21 66 -60 85 -87 62 -88 162
-177 372 -330 229 -166 331 -226 428 -251 36 -9 91 -24 122 -34 35 -11 72 -16
96 -13 39 5 39 5 16 52 -38 81 -47 128 -40 231 6 89 5 100 -24 180 -17 47 -41
122 -54 167 -28 100 -74 173 -170 268 -64 64 -81 74 -161 103 -143 51 -313 92
-382 92 -58 0 -63 -2 -63 -22 0 -42 68 -90 210 -147 260 -104 429 -204 486
-289 14 -20 52 -82 84 -137 62 -104 76 -160 46 -185 -31 -25 -58 -7 -108 75
-121 196 -305 327 -648 460 -75 29 -170 70 -211 90 -87 44 -250 108 -409 160
-63 20 -185 64 -270 98 -181 70 -314 99 -545 121 -160 15 -577 27 -710 20z
m2233 -678 c111 -56 230 -136 402 -270 194 -152 195 -153 180 -171 -38 -46
-130 -3 -401 186 -113 79 -241 168 -283 197 -79 55 -93 70 -82 98 10 27 83 11
184 -40z"/>
<path d="M4981 6043 c-71 -37 -48 -55 131 -101 139 -37 215 -66 363 -140 137
-68 274 -150 430 -257 66 -45 202 -137 302 -204 180 -120 227 -160 221 -190
-3 -12 -16 -16 -55 -16 -68 1 -189 61 -463 231 -113 69 -276 167 -364 216 -87
49 -198 117 -246 152 -50 36 -123 77 -171 96 -127 50 -160 68 -205 112 -64 62
-136 72 -524 72 -257 1 -336 -2 -430 -17 -172 -27 -307 -60 -485 -117 -106
-34 -186 -53 -235 -57 -92 -7 -143 -31 -229 -108 -71 -63 -78 -61 75 -33 119
22 123 -5 16 -116 -42 -45 -103 -118 -134 -164 -57 -83 -57 -83 -20 -76 45 8
213 94 309 157 38 26 110 84 159 128 110 99 205 148 366 189 209 52 319 65
578 65 312 0 361 -9 659 -125 80 -31 146 -64 165 -81 30 -28 30 -30 11 -44
-24 -19 -43 -16 -262 46 -222 62 -315 78 -493 86 -216 9 -466 -22 -684 -83
-141 -40 -206 -78 -206 -120 0 -54 65 -56 290 -10 334 69 489 84 680 66 132
-12 174 -20 415 -75 83 -18 195 -39 249 -45 142 -17 234 -54 462 -186 386
-224 525 -290 728 -345 161 -43 322 -97 391 -132 64 -32 172 -114 192 -146 7
-11 33 -34 59 -52 38 -26 46 -28 40 -13 -4 10 -21 68 -37 128 -31 113 -77 235
-104 273 -9 12 -55 43 -103 69 -161 87 -204 117 -302 209 -53 50 -169 144
-256 207 -88 64 -209 157 -269 207 -134 112 -212 165 -331 225 -194 97 -300
125 -499 132 -133 5 -154 3 -184 -13z"/>
<path d="M4185 5479 c-27 -5 -115 -25 -195 -43 -171 -41 -252 -52 -415 -61
-143 -8 -192 -22 -370 -110 -146 -72 -157 -83 -248 -257 -46 -86 -46 -86 -9
-74 20 6 78 34 127 63 196 112 371 171 625 209 267 40 304 49 367 88 92 56
167 69 373 63 212 -7 301 -24 560 -109 267 -88 362 -141 385 -220 4 -13 22
-39 40 -58 43 -46 50 -72 27 -93 -36 -32 -134 -58 -262 -68 -254 -20 -404 -41
-541 -75 -145 -35 -203 -42 -214 -24 -12 19 15 39 119 91 149 74 350 118 581
128 170 7 215 16 215 46 0 25 -82 63 -219 100 -75 20 -170 54 -215 77 -140 71
-335 108 -562 108 -189 0 -278 -25 -254 -71 15 -27 65 -36 270 -48 179 -11
381 -39 457 -64 44 -14 54 -40 21 -58 -32 -17 -186 -14 -273 5 -38 9 -137 19
-220 22 -82 3 -204 12 -270 21 -281 37 -607 -27 -912 -180 -103 -52 -119 -70
-197 -220 -44 -85 -44 -85 -3 -73 23 7 62 25 86 40 88 56 266 138 381 177 202
67 404 99 632 99 59 0 176 7 260 16 149 15 211 13 224 -7 12 -20 -20 -36 -146
-77 -142 -47 -197 -57 -400 -72 -355 -26 -533 -71 -787 -199 -122 -61 -147
-89 -216 -252 -24 -56 -24 -56 13 -43 21 7 67 32 102 55 86 56 306 161 403
193 127 41 226 56 435 66 107 5 235 14 283 19 55 6 109 6 145 0 86 -14 165
-11 344 12 140 18 196 20 398 16 255 -6 286 -11 365 -62 28 -18 116 -70 196
-115 171 -98 273 -170 394 -280 160 -144 379 -398 528 -611 36 -52 78 -104 95
-116 29 -21 29 -21 25 75 -5 132 -20 220 -44 260 -30 53 -263 326 -379 446
-111 115 -205 195 -309 265 -90 61 -272 146 -370 172 -45 13 -85 29 -88 36
-10 26 8 64 40 84 113 71 504 -101 726 -320 42 -42 177 -195 299 -341 158
-190 233 -271 262 -287 22 -12 38 -17 34 -12 -3 5 -21 70 -39 145 -18 74 -42
150 -53 168 -11 19 -63 88 -114 153 -104 131 -160 211 -203 291 -63 116 -151
173 -583 376 -142 66 -247 124 -348 191 -161 106 -247 152 -344 183 -111 36
-464 120 -573 137 -114 16 -379 19 -462 4z"/>
<path d="M6648 4677 c-45 -36 -31 -63 135 -272 135 -170 226 -272 213 -239 -4
10 -16 60 -26 109 -10 50 -31 128 -45 174 -23 72 -34 91 -77 132 -80 79 -169
121 -200 96z"/>
<path d="M4520 4490 c-118 -16 -279 -41 -358 -56 -143 -28 -143 -28 -205 -6
-145 52 -348 12 -610 -119 -180 -91 -208 -121 -262 -279 -24 -71 -24 -71 -2
-65 12 4 38 18 57 32 248 178 483 288 719 338 56 12 68 12 80 0 12 -12 12 -18
-3 -40 -24 -36 -62 -57 -211 -116 -232 -92 -436 -210 -483 -279 -12 -19 -32
-66 -43 -104 -11 -39 -26 -88 -34 -109 -14 -37 -14 -37 16 -15 17 13 59 49 96
81 188 164 382 260 725 357 162 46 225 51 254 19 10 -12 35 -29 55 -40 74 -37
413 -94 649 -108 91 -6 191 -17 223 -26 141 -37 327 -125 406 -191 65 -55 21
-90 -79 -62 -30 9 -119 39 -197 67 -169 60 -265 78 -663 127 -359 44 -727 61
-815 38 -122 -31 -247 -95 -397 -202 -89 -63 -98 -74 -139 -180 -17 -42 -33
-83 -36 -89 -12 -30 68 16 186 104 140 106 274 188 381 234 83 35 152 43 158
18 5 -25 -44 -65 -183 -149 -72 -43 -177 -113 -234 -156 -112 -83 -140 -123
-160 -230 -5 -27 -13 -57 -17 -67 -14 -36 74 20 220 142 198 166 433 316 562
362 158 55 583 31 906 -52 121 -31 467 -153 542 -191 199 -100 432 -386 536
-658 7 -19 19 -42 26 -50 7 -8 20 -29 28 -45 16 -30 16 -30 16 9 0 21 7 66 16
100 10 34 17 103 18 156 1 95 1 95 -43 170 -77 133 -191 279 -325 419 -94 98
-142 158 -171 210 -77 142 -222 244 -470 331 -44 16 -108 34 -141 40 -59 12
-63 11 -107 -15 -84 -49 -212 -43 -391 16 -85 28 -99 30 -213 27 -141 -3 -160
4 -127 49 29 39 79 62 191 84 54 11 127 31 163 44 145 51 266 43 498 -36 378
-129 518 -212 731 -435 253 -263 437 -503 538 -702 29 -57 63 -116 76 -131 24
-28 24 -28 36 73 7 55 12 142 10 191 -4 90 -4 90 -73 190 -91 132 -191 255
-317 392 -168 181 -314 302 -494 408 -337 198 -606 241 -1115 175z"/>
<path d="M4704 4301 c-61 -16 -71 -39 -30 -66 30 -20 269 -52 309 -42 59 15
16 73 -73 97 -51 14 -170 20 -206 11z"/>
<path d="M4327 3609 c-98 -14 -192 -47 -327 -115 -134 -67 -138 -70 -306 -246
-74 -77 -89 -104 -104 -188 -7 -36 -16 -75 -21 -87 -5 -13 -6 -23 -3 -23 3 0
53 22 112 49 59 28 127 54 152 60 125 28 427 82 515 92 406 45 827 -145 999
-453 40 -72 91 -219 102 -293 4 -27 15 -70 26 -94 19 -44 19 -44 53 27 53 110
77 199 70 252 -30 221 -225 455 -491 588 -82 41 -241 96 -344 118 -63 14 -130
18 -260 19 -191 0 -237 -7 -459 -70 -127 -36 -175 -42 -200 -26 -38 24 39 80
197 142 133 52 227 75 354 89 246 27 594 -43 833 -166 232 -119 374 -256 534
-512 24 -38 60 -83 81 -98 21 -16 60 -57 87 -91 48 -62 48 -62 60 -5 7 31 12
93 13 137 0 76 -2 84 -40 149 -170 291 -340 444 -641 577 -307 136 -727 207
-992 168z"/>
<path d="M4310 3013 c-101 -12 -438 -86 -459 -101 -23 -17 -52 -66 -85 -145
-16 -37 -16 -37 12 -24 49 25 121 38 142 27 17 -9 20 -21 20 -80 0 -38 -5 -81
-11 -97 -10 -28 -10 -28 26 7 21 19 55 61 76 92 32 47 51 62 102 86 94 44 187
63 307 63 268 0 491 -124 618 -345 18 -31 81 -197 109 -288 4 -13 11 -7 29 25
97 170 101 208 34 342 -36 73 -61 107 -135 181 -101 102 -187 158 -313 204
-136 49 -320 70 -472 53z"/>
<path d="M4384 2690 c-28 -4 -75 -15 -103 -25 -80 -26 -97 -65 -86 -192 5 -66
9 -81 18 -69 21 26 118 77 178 92 46 12 71 13 115 5 75 -14 169 -66 208 -115
39 -50 106 -160 106 -175 0 -22 15 -10 40 30 76 125 79 160 21 241 -42 57
-119 122 -187 156 -83 42 -219 64 -310 52z"/>
<path d="M5740 2581 c-16 -31 -12 -111 9 -165 18 -49 18 -49 24 -15 2 19 10
59 17 89 16 67 8 110 -20 110 -11 0 -24 -9 -30 -19z"/>
</g>
</svg>
