<?xml version="1.0" standalone="no"?>
<!DOCTYPE svg PUBLIC "-//W3C//DTD SVG 20010904//EN"
 "http://www.w3.org/TR/2001/REC-SVG-20010904/DTD/svg10.dtd">
<svg version="1.0" xmlns="http://www.w3.org/2000/svg"
 width="1000.000000pt" height="1000.000000pt" viewBox="0 0 1000.000000 1000.000000"
 preserveAspectRatio="xMidYMid meet">
<metadata>
  <rdf:RDF
    xmlns:rdf = "http://www.w3.org/1999/02/22-rdf-syntax-ns#"
    xmlns:rdfs = "http://www.w3.org/2000/01/rdf-schema#"
    xmlns:dc = "http://purl.org/dc/elements/1.1/"
    xmlns:cc = "http://creativecommons.org/ns#">
    <cc:license rdf:resource="http://creativecommons.org/publicdomain/zero/1.0/deed.en"/>
    <cc:permits rdf:resource="http://creativecommons.org/ns#Reproduction"/>
    <rdf:Description about="https://nft.mir.one/fingerprints"
      dc:title="TON Fingerprints"
      dc:description="This is a unique digital fingerprint created based on the algorithm for generating basic rings using a noise texture. Like human fingerprints, you can now use it for the Web3 and Metaverse era as digital biometric information."
      dc:publisher="https://nft.mir.one"
      dc:date="2022-02-22"
      dc:format="image/svg+xml"
      dc:language="en" >
      <dc:creator>
      <rdf:Bag>
        <rdf:li>EQBondcvD2_aOFADXSWJHs4ZazQDuEl9_wNvGGPxI8hGuOFU</rdf:li>
        <rdf:li>ipfs://bafkreihj7iub3fhmhq6jn62noukt5wxn3gv6bvcg7wmt6ywvlurefezckq</rdf:li>
      </rdf:Bag>
      </dc:creator>
    </rdf:Description>
  </rdf:RDF>
</metadata>
<g transform="translate(0.000000,1000.000000) scale(0.100000,-0.100000)"
fill="#1b1f23" stroke="none">
<path d="M4820 7799 c-172 -20 -123 -19 135 1 90 7 90 7 15 7 -41 0 -109 -3
-150 -8z"/>
<path d="M4653 7773 c9 -2 23 -2 30 0 6 3 -1 5 -18 5 -16 0 -22 -2 -12 -5z"/>
<path d="M4588 7763 c7 -3 16 -2 19 1 4 3 -2 6 -13 5 -11 0 -14 -3 -6 -6z"/>
<path d="M4845 7619 c-129 -13 -270 -38 -425 -75 -285 -68 -383 -110 -560
-242 -111 -83 -243 -200 -301 -267 -34 -40 -34 -40 16 3 27 24 76 60 108 80
31 20 112 74 180 119 67 46 155 99 195 119 69 35 80 37 210 45 75 4 209 19
297 33 258 41 357 49 590 49 309 1 460 -21 755 -108 80 -24 169 -46 198 -49
29 -4 60 -9 70 -12 62 -18 -393 194 -473 221 -243 82 -570 114 -860 84z"/>
<path d="M4885 7339 c-190 -18 -407 -62 -493 -100 -24 -10 -61 -32 -82 -49
-64 -51 -126 -73 -228 -81 -79 -6 -105 -13 -165 -42 -95 -47 -180 -121 -274
-238 -43 -53 -112 -136 -154 -185 -101 -118 -229 -294 -308 -424 -36 -58 -77
-121 -93 -141 -15 -20 -28 -39 -28 -42 0 -3 17 1 39 10 21 8 89 62 152 120
308 286 424 363 613 408 58 13 195 58 303 99 327 122 452 158 673 193 159 24
488 24 655 -1 250 -38 456 -106 463 -154 3 -16 -4 -25 -25 -33 -31 -12 -81 -6
-314 35 -401 72 -787 51 -1129 -63 -134 -45 -645 -263 -740 -316 -177 -99
-522 -386 -594 -494 -86 -130 -137 -248 -209 -481 -23 -75 -30 -106 -19 -90 9
13 28 38 42 55 15 16 43 55 64 85 65 92 134 167 284 307 299 279 436 378 722
519 102 51 217 115 255 143 165 121 389 186 739 212 182 13 358 3 596 -36 85
-14 205 -33 265 -41 62 -8 156 -31 215 -50 227 -77 547 -262 710 -410 41 -38
94 -84 118 -102 42 -33 42 -33 -9 55 -84 142 -143 223 -222 302 -87 86 -106
99 -292 193 -239 120 -279 152 -325 254 -32 69 -73 108 -163 152 -232 112
-653 167 -1008 132 -239 -24 -521 -104 -889 -250 -80 -31 -157 -60 -172 -64
-71 -17 -78 33 -14 92 59 54 156 102 328 161 79 27 184 65 233 84 244 94 583
138 897 117 246 -16 414 -51 676 -140 81 -27 194 -61 252 -74 58 -13 150 -36
205 -50 55 -14 104 -26 108 -26 17 0 -212 149 -318 207 -152 84 -235 117 -404
163 -168 45 -273 65 -420 80 -119 12 -385 11 -516 -1z"/>
<path d="M4124 7281 c-88 -40 -90 -100 -2 -87 65 10 123 46 123 76 0 22 -5 25
-40 28 -23 1 -57 -6 -81 -17z"/>
<path d="M6211 6827 c-35 -17 -36 -30 -5 -67 38 -45 554 -296 570 -277 4 5
-209 193 -271 238 -122 90 -241 133 -294 106z"/>
<path d="M5034 6460 c-278 -20 -571 -88 -636 -147 -10 -9 -18 -26 -18 -39 0
-49 57 -55 262 -25 171 25 383 48 523 57 193 11 402 -23 583 -97 72 -30 86
-41 212 -169 74 -76 180 -175 235 -220 341 -282 524 -520 779 -1015 56 -109
118 -201 97 -145 -5 14 -19 75 -31 135 -27 136 -75 309 -110 395 -14 36 -56
111 -93 165 -185 279 -356 447 -716 709 -44 32 -83 67 -86 77 -25 77 126 33
309 -90 236 -159 404 -336 614 -646 45 -66 93 -133 107 -150 26 -30 26 -30 11
10 -8 22 -36 97 -61 167 -53 150 -118 292 -170 374 -64 102 -196 224 -355 330
-183 122 -276 160 -505 208 -93 19 -219 46 -280 60 -218 51 -462 71 -671 56z"/>
<path d="M5130 6169 c-88 -18 -587 -59 -711 -59 -150 0 -205 -9 -314 -53 -219
-88 -397 -225 -661 -507 -45 -48 -91 -87 -131 -108 -126 -66 -215 -203 -256
-388 -18 -84 -21 -132 -21 -314 0 -339 12 -386 203 -814 193 -431 245 -528
416 -766 112 -156 158 -205 289 -310 62 -49 131 -111 155 -140 48 -57 85 -78
266 -150 69 -28 154 -65 188 -82 56 -29 73 -32 168 -36 123 -5 197 12 349 77
433 188 770 555 957 1042 70 181 101 324 119 549 3 47 10 95 15 108 13 35 44
27 65 -15 16 -32 19 -61 19 -178 0 -159 -15 -237 -75 -405 -187 -516 -429
-851 -789 -1092 -152 -101 -322 -182 -481 -228 -89 -25 -237 -93 -190 -86 19
3 78 10 130 17 238 28 398 73 580 164 201 101 373 245 494 414 133 186 195
305 347 666 130 307 124 283 124 495 0 185 0 185 -38 290 -21 58 -64 182 -96
275 -129 373 -172 466 -268 563 -51 52 -67 63 -90 60 -45 -5 -42 -43 11 -135
60 -104 76 -152 76 -227 0 -34 7 -86 15 -116 8 -30 24 -89 35 -130 32 -115 35
-191 12 -290 -11 -47 -28 -137 -37 -200 -38 -266 -88 -429 -191 -631 -168
-326 -397 -542 -776 -730 -237 -117 -304 -123 -470 -42 -51 25 -120 55 -153
68 -147 55 -291 145 -409 256 -68 63 -276 322 -341 424 -48 75 -82 151 -135
299 -23 65 -94 223 -159 350 -157 309 -182 393 -182 620 0 226 42 410 133 588
40 77 55 92 83 82 35 -14 32 -99 -9 -288 -77 -357 -51 -594 96 -876 60 -117
138 -223 187 -255 20 -13 77 -33 128 -44 50 -11 147 -37 215 -59 167 -54 243
-66 374 -60 104 5 116 8 254 63 192 76 221 93 317 192 45 47 87 82 92 78 18
-10 13 -63 -10 -107 -29 -56 -100 -131 -173 -179 -49 -33 -68 -40 -101 -38
-66 3 -80 0 -103 -21 -34 -32 -28 -43 21 -37 23 3 52 9 65 13 16 4 22 2 22 -8
0 -38 -73 -68 -119 -49 -22 10 -47 9 -122 -4 -107 -19 -268 -21 -349 -5 -30 5
-117 31 -194 56 -90 29 -166 48 -212 51 -68 5 -73 4 -84 -17 -19 -36 -6 -153
24 -214 35 -72 123 -174 206 -241 67 -55 71 -57 100 -45 51 21 134 7 278 -49
193 -75 241 -84 402 -78 158 6 257 29 369 84 242 120 449 371 512 624 23 88
23 90 -5 356 -18 174 -26 217 -61 309 -69 183 -225 368 -373 443 -47 24 -49
38 -11 60 21 12 32 11 80 -2 141 -41 313 -217 421 -431 60 -120 79 -205 85
-391 9 -255 -23 -412 -120 -599 -77 -149 -230 -325 -359 -414 -150 -103 -275
-140 -508 -149 -249 -9 -320 7 -573 134 -81 40 -152 71 -157 68 -6 -4 -10 -16
-10 -28 2 -102 271 -287 467 -320 51 -9 83 -8 165 6 133 22 180 22 256 -4 62
-21 62 -21 135 1 162 49 323 156 473 312 234 246 357 537 394 933 20 214 7
331 -47 446 -37 77 -289 387 -367 450 -33 28 -97 68 -141 89 -122 58 -210 75
-405 75 -164 0 -165 0 -244 -33 -91 -38 -139 -40 -144 -5 -4 29 50 89 107 118
195 98 494 80 746 -45 130 -64 195 -123 316 -287 100 -134 134 -167 166 -161
38 7 27 60 -35 180 -32 62 -67 134 -77 160 -33 89 -117 164 -270 240 -245 123
-581 174 -788 119 -101 -27 -203 -81 -266 -141 -95 -91 -242 -345 -278 -480
-26 -98 -24 -247 5 -332 29 -85 86 -173 144 -223 25 -22 92 -65 149 -95 108
-57 132 -84 85 -96 -44 -11 -162 16 -243 55 -156 76 -257 191 -317 360 -28 80
-30 95 -30 221 1 163 20 246 92 395 62 128 150 237 254 315 121 91 225 138
383 172 86 18 292 15 400 -6 197 -38 432 -117 580 -196 312 -165 331 -176 398
-239 140 -132 283 -405 377 -721 58 -196 73 -308 75 -575 2 -232 3 -242 26
-285 34 -64 31 -178 -10 -377 -17 -84 -34 -161 -38 -170 -3 -10 -3 -15 0 -12
12 10 115 276 136 350 45 162 60 372 41 579 -6 58 -14 185 -20 283 -9 169 -12
185 -50 299 -22 67 -71 184 -109 262 -165 338 -352 547 -642 713 -92 52 -111
59 -517 183 -332 101 -345 103 -507 103 -344 0 -625 -109 -828 -322 -111 -117
-174 -233 -222 -414 -95 -351 -26 -683 180 -876 120 -112 284 -187 431 -198
88 -7 152 8 209 47 24 16 67 39 96 50 166 65 264 185 245 301 -24 153 -199
259 -307 186 -59 -40 -75 -105 -42 -174 31 -66 113 -82 121 -24 7 44 65 34 74
-13 12 -60 -52 -126 -122 -126 -86 1 -199 89 -245 192 -71 158 -3 338 137 363
54 10 175 -20 267 -66 178 -89 286 -285 251 -453 -14 -71 -29 -86 -175 -188
-120 -83 -252 -149 -361 -179 -179 -49 -435 7 -649 142 -136 85 -247 256 -297
454 -32 128 -32 370 0 535 65 330 118 439 288 600 211 199 427 279 846 311
216 17 311 5 413 -51 79 -44 184 -82 354 -130 79 -23 125 -30 190 -30 84 0 89
-1 166 -45 115 -66 292 -203 399 -310 175 -175 277 -331 454 -695 112 -230
129 -260 181 -310 31 -30 74 -75 95 -100 32 -38 38 -41 33 -20 -4 14 -11 50
-18 80 -37 182 -82 308 -173 485 -210 409 -364 606 -683 875 -87 74 -205 179
-263 235 -58 56 -128 115 -155 133 -63 39 -166 78 -257 97 -76 16 -256 18
-328 4z m358 -158 c109 -36 171 -70 207 -113 28 -33 34 -78 10 -78 -8 0 -63
20 -122 44 -59 24 -169 61 -243 81 -137 37 -160 48 -160 70 0 46 167 44 308
-4z m-560 -996 c83 -19 129 -46 142 -83 19 -50 33 -72 104 -155 164 -190 222
-331 214 -521 -4 -101 -4 -101 -72 -236 -89 -175 -120 -223 -202 -310 -149
-157 -289 -227 -542 -270 -79 -14 -107 -24 -154 -56 -36 -25 -38 -25 -115 -14
-111 16 -228 46 -287 74 -70 32 -167 107 -199 154 -58 83 -30 86 116 14 230
-115 350 -129 627 -78 177 32 225 48 301 99 241 160 372 372 386 627 9 156
-32 277 -146 427 -102 135 -173 188 -325 239 -100 35 -132 69 -83 92 33 16
158 14 235 -3z m570 -1037 c4 -52 -46 -192 -105 -291 -66 -112 -221 -267 -326
-326 -200 -112 -462 -152 -589 -88 -30 15 -44 29 -46 46 -4 24 -3 24 61 17 73
-7 211 6 302 29 90 23 235 98 320 166 100 81 182 187 257 334 33 66 68 128 76
138 25 28 47 17 50 -25z"/>
<path d="M6770 4294 c-6 -14 -10 -39 -10 -56 0 -31 31 -301 51 -443 7 -44 15
-107 19 -140 7 -57 7 -58 9 -15 0 25 8 101 16 170 17 144 19 364 4 430 -18 77
-69 108 -89 54z"/>
<path d="M3070 3915 c0 -5 5 -17 10 -25 5 -8 10 -10 10 -5 0 6 -5 17 -10 25
-5 8 -10 11 -10 5z"/>
<path d="M3091 3867 c-2 -17 89 -228 149 -347 75 -151 134 -245 238 -387 89
-122 102 -143 102 -172 0 -25 15 -28 24 -5 15 40 -34 134 -135 255 -105 126
-267 409 -367 639 -6 14 -11 21 -11 17z"/>
<path d="M6410 3560 c-12 -17 -43 -90 -70 -163 -125 -342 -217 -525 -363 -719
-74 -97 -201 -255 -240 -297 -68 -74 97 64 221 184 297 287 511 675 516 935 1
80 0 85 -20 88 -15 2 -29 -7 -44 -28z"/>
<path d="M3620 2876 c0 -5 202 -141 265 -178 74 -44 133 -64 147 -50 15 15
-39 51 -182 124 -116 59 -230 111 -230 104z"/>
<path d="M4730 2803 c-88 -15 -118 -44 -78 -76 33 -27 164 -21 205 9 32 24 41
53 21 65 -13 9 -101 10 -148 2z"/>
<path d="M4185 2430 c137 -45 251 -72 292 -68 38 3 38 3 11 21 -35 24 -152 53
-243 61 -38 4 -88 9 -110 11 -27 3 -12 -4 50 -25z"/>
</g>
</svg>
