<?xml version="1.0" standalone="no"?>
<!DOCTYPE svg PUBLIC "-//W3C//DTD SVG 20010904//EN"
 "http://www.w3.org/TR/2001/REC-SVG-20010904/DTD/svg10.dtd">
<svg version="1.0" xmlns="http://www.w3.org/2000/svg"
 width="1000.000000pt" height="1000.000000pt" viewBox="0 0 1000.000000 1000.000000"
 preserveAspectRatio="xMidYMid meet">
<metadata>
  <rdf:RDF
    xmlns:rdf = "http://www.w3.org/1999/02/22-rdf-syntax-ns#"
    xmlns:rdfs = "http://www.w3.org/2000/01/rdf-schema#"
    xmlns:dc = "http://purl.org/dc/elements/1.1/"
    xmlns:cc = "http://creativecommons.org/ns#">
    <cc:license rdf:resource="http://creativecommons.org/publicdomain/zero/1.0/deed.en"/>
    <cc:permits rdf:resource="http://creativecommons.org/ns#Reproduction"/>
    <rdf:Description about="https://nft.mir.one/fingerprints"
      dc:title="TON Fingerprints"
      dc:description="This is a unique digital fingerprint created based on the algorithm for generating basic rings using a noise texture. Like human fingerprints, you can now use it for the Web3 and Metaverse era as digital biometric information."
      dc:publisher="https://nft.mir.one"
      dc:date="2022-02-22"
      dc:format="image/svg+xml"
      dc:language="en" >
      <dc:creator>
      <rdf:Bag>
        <rdf:li>EQBondcvD2_aOFADXSWJHs4ZazQDuEl9_wNvGGPxI8hGuOFU</rdf:li>
        <rdf:li>ipfs://bafkreihj7iub3fhmhq6jn62noukt5wxn3gv6bvcg7wmt6ywvlurefezckq</rdf:li>
      </rdf:Bag>
      </dc:creator>
    </rdf:Description>
  </rdf:RDF>
</metadata>
<g transform="translate(0.000000,1000.000000) scale(0.100000,-0.100000)"
fill="#1b1f23" stroke="none">
<path d="M4819 7770 c30 -17 62 -37 71 -45 9 -8 21 -15 27 -15 20 0 220 -127
338 -214 202 -150 320 -278 398 -432 14 -27 56 -126 92 -220 37 -93 137 -313
222 -489 86 -176 203 -419 260 -540 58 -121 138 -283 178 -360 86 -165 90
-177 150 -405 39 -150 220 -749 330 -1090 34 -105 34 -105 34 -10 1 131 -16
373 -33 469 -14 79 -205 688 -273 871 -20 52 -92 210 -160 350 -69 140 -171
352 -228 470 -56 118 -146 301 -198 407 -126 256 -155 337 -166 472 -7 75 -17
124 -35 168 -29 70 -34 144 -11 163 18 15 38 3 117 -67 72 -64 131 -100 196
-119 125 -36 223 -139 521 -546 18 -26 59 -68 90 -94 50 -44 53 -45 29 -14
-15 19 -58 82 -95 140 -133 208 -303 422 -419 529 -75 68 -223 172 -286 201
-27 12 -65 20 -102 20 -54 0 -66 5 -145 54 -185 116 -457 252 -605 302 -61 21
-306 74 -339 74 -6 0 12 -14 42 -30z"/>
<path d="M4395 7585 c-33 -7 -89 -24 -124 -39 -73 -29 -263 -86 -295 -87 -17
-1 -17 -2 6 -9 14 -4 39 -15 55 -24 15 -8 57 -22 92 -31 40 -10 85 -30 120
-55 31 -21 120 -79 199 -127 268 -164 402 -283 521 -464 125 -189 173 -320
134 -368 -19 -23 -19 -23 -48 31 -38 70 -133 213 -191 285 -156 195 -364 357
-613 477 -130 62 -251 63 -251 1 0 -34 59 -75 254 -177 245 -127 340 -203 552
-444 74 -84 149 -163 166 -176 18 -12 53 -25 78 -28 45 -5 45 -5 175 -217 143
-232 244 -405 448 -769 74 -132 176 -306 227 -385 117 -183 179 -312 240 -497
56 -172 83 -295 105 -482 35 -304 58 -419 126 -635 23 -71 50 -168 60 -215 32
-148 35 -158 42 -135 69 222 71 303 13 432 -70 157 -94 285 -106 563 -9 227
-24 304 -102 540 -77 236 -138 354 -243 471 -82 91 -126 162 -267 434 -69 132
-191 362 -273 510 -162 297 -197 369 -250 515 -59 165 -171 407 -218 473 -59
82 -188 203 -285 268 -42 28 -150 86 -239 130 -125 62 -163 85 -163 99 0 73
201 43 399 -61 172 -90 366 -250 451 -374 31 -44 34 -57 32 -105 -3 -71 15
-128 89 -298 122 -277 155 -344 329 -677 97 -187 222 -434 276 -550 98 -207
154 -293 186 -283 25 9 19 50 -28 191 -63 190 -135 352 -322 722 -87 171 -207
414 -269 540 -61 127 -129 258 -152 293 -44 68 -49 87 -26 96 36 13 101 -34
154 -113 22 -32 142 -264 266 -517 264 -534 352 -721 389 -822 23 -66 66 -312
66 -383 0 -14 18 -51 41 -84 23 -31 57 -96 75 -142 53 -135 149 -433 199 -618
42 -159 48 -172 81 -199 19 -16 44 -46 55 -67 48 -96 82 -345 60 -447 -6 -29
-22 -70 -37 -91 -22 -34 -24 -45 -17 -83 9 -43 9 -43 50 52 68 156 77 202 78
395 0 170 0 170 -52 305 -54 142 -217 658 -252 795 -11 44 -25 124 -30 177
-15 132 -42 211 -103 291 -29 40 -83 139 -130 240 -44 94 -162 341 -263 547
-100 206 -211 436 -245 510 -115 250 -190 357 -366 516 -183 165 -325 269
-457 334 -114 56 -329 77 -472 45z m1899 -2290 c11 -22 21 -68 24 -111 4 -63
2 -75 -12 -80 -10 -4 -22 -2 -28 4 -14 14 -43 194 -35 216 10 26 29 15 51 -29z"/>
<path d="M3796 7097 c-68 -38 -68 -48 0 -114 68 -66 138 -152 241 -298 39 -55
135 -170 213 -255 312 -340 435 -495 674 -857 90 -136 199 -288 242 -338 156
-180 281 -407 411 -745 124 -324 227 -814 264 -1255 14 -166 6 -468 -16 -600
-9 -49 -18 -124 -21 -165 -6 -75 -6 -75 46 10 65 107 112 199 136 270 16 46
19 83 18 235 -1 329 -98 935 -209 1305 -96 320 -287 711 -485 990 -37 53 -132
192 -210 310 -248 373 -361 514 -693 868 -183 194 -232 256 -244 300 -7 31 10
48 36 36 46 -21 247 -213 433 -412 317 -340 345 -376 624 -807 514 -795 646
-1094 758 -1715 109 -607 132 -794 122 -1010 -3 -74 -3 -150 2 -168 7 -32 9
-28 59 90 100 239 110 313 67 513 -70 330 -85 411 -114 598 -62 396 -126 617
-254 870 -92 181 -445 786 -644 1102 -142 226 -202 304 -316 412 -57 54 -162
162 -235 239 -212 229 -358 342 -470 364 -31 6 -68 16 -83 21 -38 15 -137 103
-192 172 -42 51 -51 57 -84 57 -20 0 -55 -10 -76 -23z"/>
<path d="M6090 7027 c0 -13 51 -100 113 -193 144 -219 206 -331 277 -507 85
-210 81 -201 235 -497 79 -151 175 -347 214 -435 69 -155 153 -326 158 -321 7
7 -105 397 -147 515 -29 77 -110 256 -190 416 -126 250 -142 289 -154 361 -18
113 -80 229 -239 444 -133 179 -195 240 -246 240 -15 0 -21 -6 -21 -23z"/>
<path d="M5960 6985 c-29 -35 11 -144 149 -408 49 -95 139 -278 199 -407 61
-129 167 -350 236 -490 150 -303 210 -453 351 -876 96 -285 143 -410 145 -377
1 37 -34 310 -56 433 -50 278 -99 407 -337 885 -88 176 -199 408 -247 515 -89
198 -127 272 -285 550 -112 199 -124 212 -155 175z"/>
<path d="M3540 6944 c-25 -8 -50 -12 -56 -10 -21 8 31 -99 80 -164 26 -36 59
-84 72 -106 42 -71 85 -205 94 -291 6 -58 15 -94 34 -125 14 -24 117 -159 230
-301 296 -371 323 -415 312 -507 -6 -43 -3 -49 63 -141 216 -300 338 -576 470
-1059 145 -536 181 -829 151 -1245 -15 -199 -46 -441 -76 -580 -14 -66 -26
-145 -28 -175 -3 -55 -3 -55 89 35 66 64 96 103 108 135 21 57 53 312 68 545
26 398 -20 789 -146 1241 -91 327 -259 782 -364 987 -118 230 -241 458 -277
514 -82 128 -321 423 -478 591 -98 105 -105 127 -39 126 73 -1 174 -94 404
-369 253 -304 494 -713 588 -1002 27 -81 85 -245 129 -364 166 -445 255 -796
296 -1159 35 -321 29 -583 -23 -1000 -18 -148 -26 -244 -22 -280 5 -41 9 -50
14 -34 4 11 26 45 48 75 22 30 57 88 78 129 34 68 40 92 57 230 26 210 26 703
1 892 -57 423 -138 722 -328 1205 -113 285 -123 326 -104 391 13 43 13 47 -17
106 -43 86 -197 340 -290 479 -166 250 -347 469 -634 767 -164 171 -261 295
-318 407 -14 29 -35 57 -45 63 -26 14 -86 11 -141 -6z"/>
<path d="M3327 6598 c-58 -20 -58 -20 -36 -44 25 -27 105 -66 180 -89 64 -18
99 -7 99 31 0 31 -33 88 -63 109 -30 21 -110 18 -180 -7z"/>
<path d="M6664 6385 c-8 -20 31 -102 132 -272 75 -126 214 -341 214 -330 0 2
-38 86 -85 187 -148 319 -242 467 -261 415z"/>
<path d="M3271 6329 c-29 -10 -59 -23 -66 -29 -7 -5 -30 -16 -51 -24 -21 -8
-33 -15 -26 -15 8 -1 26 -9 40 -19 15 -10 56 -29 92 -42 157 -56 307 -149 416
-258 72 -72 95 -115 72 -138 -12 -13 -25 -7 -104 42 -174 111 -234 146 -314
180 -94 41 -107 40 -220 -15 -75 -37 -75 -37 -40 -53 19 -9 77 -30 128 -47 51
-17 170 -66 265 -110 108 -50 196 -84 237 -91 88 -16 121 -35 268 -154 186
-150 243 -182 282 -157 29 19 -20 90 -199 286 -45 50 -120 142 -166 206 -95
131 -232 289 -298 343 -52 42 -205 116 -238 115 -13 0 -48 -9 -78 -20z"/>
<path d="M3065 5765 c-33 -14 -69 -25 -79 -25 -35 0 52 -49 153 -87 662 -247
1042 -527 1275 -940 79 -140 110 -238 101 -322 -6 -58 -3 -78 25 -161 38 -114
120 -449 151 -615 17 -88 23 -158 23 -265 0 -136 -1 -149 -28 -215 -24 -62
-29 -89 -36 -240 -12 -232 -30 -358 -67 -480 -20 -69 -41 -155 -37 -155 2 0
34 18 71 41 76 46 128 92 148 129 32 62 91 534 102 821 10 253 -19 438 -148
949 -98 389 -106 414 -184 575 -139 290 -239 403 -528 602 -250 173 -246 171
-502 281 -348 150 -340 148 -440 107z"/>
<path d="M3045 5512 c-22 -10 -55 -25 -74 -35 -33 -19 -33 -19 2 -43 20 -13
78 -39 129 -58 293 -106 515 -222 693 -361 116 -91 292 -276 437 -461 128
-162 177 -206 205 -182 20 17 16 38 -26 125 -139 287 -397 564 -706 758 -156
97 -545 276 -599 274 -11 0 -39 -8 -61 -17z"/>
<path d="M3010 5220 c-19 -11 -53 -28 -75 -39 -22 -11 -34 -21 -27 -21 8 0 26
-9 41 -19 14 -11 71 -35 126 -54 134 -47 378 -143 429 -169 70 -35 134 -90
204 -173 37 -44 167 -181 289 -305 237 -239 291 -303 330 -388 26 -56 25 -82
-3 -82 -10 0 -99 81 -198 179 -188 186 -220 215 -377 343 -107 88 -110 92
-134 173 -32 112 -166 212 -232 174 -24 -13 -32 -11 -122 33 -52 27 -117 55
-143 64 -47 15 -49 15 -100 -11 -29 -14 -67 -34 -84 -44 -32 -17 -32 -17 10
-39 22 -12 73 -33 111 -48 73 -27 160 -71 282 -143 49 -30 89 -45 125 -50 67
-8 78 -34 24 -56 -48 -20 -108 -8 -265 56 -88 35 -132 48 -150 44 -29 -7 -131
-66 -131 -75 0 -21 317 -124 491 -159 136 -28 219 -62 329 -136 89 -59 150
-110 424 -353 157 -140 193 -206 251 -465 41 -180 62 -241 93 -274 27 -29 52
-27 70 7 30 56 -6 316 -78 575 -22 77 -45 176 -51 220 -12 93 -38 171 -70 217
-13 18 -66 80 -119 138 -52 58 -148 164 -212 235 -160 180 -349 361 -437 419
-142 95 -484 246 -552 246 -19 -1 -50 -10 -69 -20z m446 -474 c61 -55 93 -109
73 -122 -14 -8 -146 101 -165 137 -19 38 -12 64 13 50 10 -5 46 -34 79 -65z"/>
<path d="M5035 5128 c4 -18 39 -100 77 -183 235 -504 352 -882 417 -1346 58
-416 51 -810 -20 -1158 -10 -51 -19 -111 -19 -134 0 -40 0 -40 40 14 62 85
137 213 153 261 27 80 40 285 34 536 -16 643 -187 1314 -464 1817 -87 159
-147 225 -202 225 -20 0 -22 -3 -16 -32z"/>
<path d="M3075 4349 c-22 -12 -49 -30 -61 -40 -11 -10 -27 -19 -35 -19 -33 -1
74 -45 174 -71 253 -67 383 -125 595 -266 153 -103 243 -181 328 -287 118
-147 154 -235 94 -228 -18 1 -74 53 -190 174 -153 159 -215 209 -240 193 -6
-4 -7 -17 -4 -31 3 -13 3 -31 0 -40 -5 -14 -9 -14 -22 -3 -11 9 -14 22 -9 46
5 29 2 38 -27 65 -79 75 -215 149 -368 203 -102 35 -106 36 -146 20 -22 -8
-53 -29 -69 -45 -16 -17 -36 -30 -44 -30 -24 0 83 -45 179 -75 116 -36 227
-90 340 -164 52 -34 108 -65 124 -68 39 -8 397 -368 461 -464 97 -144 147
-314 147 -499 0 -63 -5 -144 -11 -180 -12 -71 -14 -150 -5 -173 6 -17 17 -8
115 82 51 46 60 60 71 110 7 32 12 125 12 216 0 148 -2 166 -27 238 -15 43
-44 112 -66 155 -60 119 -91 215 -91 280 0 124 -51 235 -166 359 -166 181
-418 367 -599 443 -78 32 -373 120 -403 120 -10 0 -35 -9 -57 -21z"/>
<path d="M6489 4019 c-24 -45 0 -310 41 -449 16 -55 48 -102 68 -98 15 3 17
17 16 113 -1 125 -36 348 -64 413 -21 46 -43 54 -61 21z"/>
<path d="M3250 3742 c-19 -9 -49 -26 -67 -37 -32 -20 -32 -20 95 -84 168 -85
252 -143 367 -253 208 -198 325 -415 349 -644 4 -32 11 -91 17 -130 11 -71 11
-71 80 -4 69 66 69 66 69 126 0 109 -35 253 -88 359 -59 120 -209 306 -335
416 -125 109 -386 270 -437 269 -8 0 -31 -8 -50 -18z"/>
<path d="M3385 3320 c-3 -5 -17 -10 -30 -10 -21 0 -13 -11 58 -83 99 -99 208
-258 254 -371 24 -60 33 -73 33 -52 0 17 12 42 30 63 43 49 42 107 -5 201 -41
82 -158 213 -216 243 -41 20 -114 26 -124 9z"/>
</g>
</svg>
