<?xml version="1.0" standalone="no"?>
<!DOCTYPE svg PUBLIC "-//W3C//DTD SVG 20010904//EN"
 "http://www.w3.org/TR/2001/REC-SVG-20010904/DTD/svg10.dtd">
<svg version="1.0" xmlns="http://www.w3.org/2000/svg"
 width="1000.000000pt" height="1000.000000pt" viewBox="0 0 1000.000000 1000.000000"
 preserveAspectRatio="xMidYMid meet">
<metadata>
  <rdf:RDF
    xmlns:rdf = "http://www.w3.org/1999/02/22-rdf-syntax-ns#"
    xmlns:rdfs = "http://www.w3.org/2000/01/rdf-schema#"
    xmlns:dc = "http://purl.org/dc/elements/1.1/"
    xmlns:cc = "http://creativecommons.org/ns#">
    <cc:license rdf:resource="http://creativecommons.org/publicdomain/zero/1.0/deed.en"/>
    <cc:permits rdf:resource="http://creativecommons.org/ns#Reproduction"/>
    <rdf:Description about="https://nft.mir.one/fingerprints"
      dc:title="TON Fingerprints"
      dc:description="This is a unique digital fingerprint created based on the algorithm for generating basic rings using a noise texture. Like human fingerprints, you can now use it for the Web3 and Metaverse era as digital biometric information."
      dc:publisher="https://nft.mir.one"
      dc:date="2022-02-22"
      dc:format="image/svg+xml"
      dc:language="en" >
      <dc:creator>
      <rdf:Bag>
        <rdf:li>EQBondcvD2_aOFADXSWJHs4ZazQDuEl9_wNvGGPxI8hGuOFU</rdf:li>
        <rdf:li>ipfs://bafkreihj7iub3fhmhq6jn62noukt5wxn3gv6bvcg7wmt6ywvlurefezckq</rdf:li>
      </rdf:Bag>
      </dc:creator>
    </rdf:Description>
  </rdf:RDF>
</metadata>
<g transform="translate(0.000000,1000.000000) scale(0.100000,-0.100000)"
fill="#1b1f23" stroke="none">
<path d="M4705 7710 c-120 -14 -333 -49 -390 -64 -50 -14 -50 -14 50 -15 670
-3 937 -26 1315 -113 74 -17 173 -36 220 -43 47 -7 97 -16 110 -20 51 -15 12
4 -95 48 -245 100 -456 162 -666 192 -127 19 -435 27 -544 15z"/>
<path d="M4333 7493 c-7 -3 -13 -11 -13 -19 0 -16 27 -18 49 -5 11 7 10 11 -5
19 -11 5 -25 7 -31 5z"/>
<path d="M4437 7470 c-21 -4 -44 -16 -51 -26 -12 -16 -28 -19 -88 -20 -132 -1
-344 -89 -568 -235 -69 -45 -116 -78 -105 -74 11 5 49 16 85 26 36 10 105 31
153 48 367 126 987 151 1514 61 463 -80 822 -206 1048 -369 44 -32 111 -77
150 -101 69 -42 69 -42 -40 75 -141 151 -199 203 -309 276 -198 131 -380 205
-626 257 -322 67 -569 92 -894 91 -127 -1 -248 -5 -269 -9z"/>
<path d="M4340 7149 c-147 -15 -313 -47 -412 -79 -92 -29 -147 -60 -255 -143
-22 -18 -68 -49 -101 -70 -55 -34 -83 -69 -68 -84 3 -3 34 0 69 7 73 15 97 10
97 -19 0 -27 -33 -47 -105 -64 -105 -25 -151 -58 -303 -218 -92 -96 -92 -96
-44 -81 26 8 88 34 137 57 102 48 424 157 530 179 190 39 364 60 515 60 138 0
176 -4 345 -37 105 -20 291 -48 415 -62 277 -32 441 -62 630 -115 246 -68 291
-78 423 -91 141 -14 156 -10 136 34 -25 55 -135 109 -399 195 -320 105 -546
148 -1100 213 -128 15 -243 22 -375 22 -184 -1 -217 -4 -520 -49 -101 -15
-114 -15 -148 -1 -46 20 -50 50 -9 71 43 22 205 63 342 87 93 16 185 22 360
26 578 12 1259 -113 1666 -306 123 -59 198 -109 292 -195 128 -118 304 -239
381 -262 25 -8 48 -14 51 -14 2 0 -16 21 -41 48 -25 26 -79 87 -120 137 -129
156 -278 303 -364 360 -288 192 -776 335 -1324 390 -167 16 -556 18 -701 4z"/>
<path d="M4167 6554 c-227 -35 -516 -125 -722 -224 -105 -50 -129 -66 -186
-127 -35 -38 -87 -100 -114 -137 -28 -38 -71 -97 -96 -131 -40 -55 -43 -61
-20 -49 14 8 31 14 37 14 6 0 67 36 135 81 163 106 299 182 434 242 300 133
689 231 845 213 65 -8 206 -48 221 -63 54 -54 -168 -241 -439 -370 -510 -242
-663 -333 -818 -487 -87 -87 -93 -95 -119 -174 -18 -55 -59 -136 -122 -240
-118 -195 -128 -214 -148 -290 -29 -114 -34 -196 -19 -295 7 -51 14 -128 14
-172 0 -44 5 -165 12 -269 12 -188 12 -188 30 -125 18 63 37 223 58 490 5 75
19 172 30 214 41 161 233 510 377 687 134 164 397 335 703 456 99 39 124 45
180 44 36 -1 154 -2 262 -1 211 0 258 -9 258 -50 0 -37 -85 -55 -415 -87 -298
-29 -665 -225 -880 -471 -139 -158 -268 -380 -325 -559 -52 -162 -64 -261 -64
-539 -1 -282 1 -293 69 -390 24 -33 65 -108 93 -166 44 -96 53 -108 84 -118
45 -15 80 -53 176 -186 91 -127 146 -175 200 -175 32 0 45 -9 122 -88 224
-231 465 -347 771 -368 216 -15 498 65 487 138 -6 40 -28 43 -167 24 -98 -14
-162 -17 -263 -13 -168 7 -258 30 -408 104 -101 50 -126 68 -206 148 -87 85
-96 98 -157 225 -137 284 -184 431 -213 660 -20 157 -14 202 41 317 193 408
488 616 1049 739 152 34 384 43 476 20 324 -81 608 -433 700 -869 54 -252 49
-417 -25 -849 -62 -364 -87 -453 -162 -565 -38 -57 -56 -70 -141 -98 -29 -9
-115 -59 -191 -109 -179 -120 -274 -168 -420 -216 -141 -46 -241 -67 -376 -79
-93 -9 -89 -9 70 -6 319 6 547 79 836 266 81 53 114 69 142 69 40 0 67 -21 67
-53 1 -17 6 -13 22 18 11 22 53 78 93 125 79 93 144 190 196 290 32 63 33 70
35 190 1 86 9 167 27 261 71 375 61 651 -35 939 -36 110 -161 362 -231 467
-108 162 -409 403 -578 463 -53 18 -53 18 -88 -10 -46 -36 -89 -47 -236 -60
-335 -28 -604 -104 -808 -227 -242 -147 -386 -313 -503 -585 -25 -57 -52 -109
-61 -115 -28 -21 -43 3 -43 66 0 228 210 541 486 724 288 191 670 287 1027
256 81 -6 150 -9 153 -6 13 12 -8 61 -39 92 -104 103 -356 112 -722 25 -241
-57 -410 -136 -590 -275 -254 -197 -436 -500 -452 -754 -5 -75 0 -112 36 -288
56 -272 86 -357 223 -637 121 -245 138 -297 103 -326 -12 -10 -24 3 -72 80
-32 50 -102 160 -156 243 -209 320 -267 498 -267 814 0 215 35 359 131 543
201 384 581 655 1036 739 59 11 184 34 278 52 134 25 184 30 235 25 191 -20
497 -185 640 -347 164 -184 228 -235 338 -269 57 -18 57 -18 58 -86 0 -68 3
-74 110 -284 156 -304 210 -484 221 -740 9 -197 -16 -370 -91 -645 -39 -141
-44 -185 -22 -185 50 0 193 294 262 535 35 123 43 306 20 464 -46 311 -213
662 -404 847 -69 68 -72 73 -56 89 39 38 133 -2 229 -99 165 -167 317 -475
370 -747 9 -46 21 -145 26 -219 6 -74 13 -160 17 -190 7 -55 7 -55 29 75 37
220 46 347 34 496 -12 158 -27 215 -88 329 -97 184 -144 243 -393 490 -131
129 -240 245 -243 256 -15 64 47 53 173 -31 254 -170 483 -422 606 -667 36
-71 111 -178 101 -143 -3 11 -18 82 -32 159 -55 295 -93 372 -254 528 -219
213 -427 320 -585 304 -78 -9 -284 23 -404 63 -166 54 -522 189 -557 211 -66
41 -107 115 -75 135 6 4 36 -1 68 -10 31 -10 102 -28 157 -42 55 -13 183 -48
285 -78 258 -75 323 -90 504 -120 87 -15 193 -38 235 -51 172 -57 346 -171
516 -341 55 -55 114 -109 132 -122 32 -22 32 -22 -21 109 -64 156 -136 279
-191 327 -22 19 -80 59 -130 88 -172 102 -276 138 -463 159 -135 16 -199 31
-436 102 -213 63 -333 87 -456 88 -115 1 -161 -14 -208 -69 -14 -16 -30 -24
-40 -21 -57 16 -184 28 -251 23 -43 -2 -137 -20 -209 -38 -103 -26 -134 -31
-144 -21 -43 43 187 181 388 232 117 30 361 53 479 46 196 -13 349 -53 715
-185 80 -29 158 -39 194 -25 9 3 16 17 16 30 0 19 -11 32 -46 52 -25 15 -79
50 -120 77 -124 83 -164 103 -274 139 -254 83 -551 125 -875 126 -137 1 -197
11 -240 44 -48 37 -110 65 -177 81 -79 18 -280 18 -401 -1z m1865 -1195 c36
-26 102 -108 129 -160 10 -21 19 -54 19 -74 0 -30 -3 -35 -23 -35 -17 0 -45
26 -102 91 -118 135 -143 178 -118 203 12 12 62 -2 95 -25z"/>
<path d="M4415 6338 c-202 -38 -560 -165 -786 -278 -175 -88 -437 -257 -487
-314 -36 -41 -114 -156 -157 -231 -15 -27 -35 -60 -42 -72 -14 -21 -12 -21 40
6 30 15 67 37 83 48 16 11 65 39 109 63 44 23 136 82 205 129 240 165 422 267
650 361 480 199 540 229 540 270 0 31 -53 38 -155 18z"/>
<path d="M6168 6299 c-10 -6 -18 -16 -18 -24 0 -17 48 -54 109 -85 24 -12 74
-50 110 -84 52 -49 100 -80 218 -140 83 -43 199 -109 258 -147 58 -38 111 -69
116 -69 6 0 23 -7 38 -15 26 -13 25 -9 -25 68 -143 222 -196 276 -374 383 -74
45 -148 88 -165 96 -37 19 -242 31 -267 17z"/>
<path d="M3143 5400 c-69 -31 -118 -119 -197 -348 -43 -123 -43 -123 -9 -90
38 37 251 325 277 375 20 40 20 48 0 67 -19 20 -20 20 -71 -4z"/>
<path d="M5139 4880 c-36 -5 -98 -22 -138 -39 -41 -17 -137 -46 -215 -65 -278
-67 -442 -152 -598 -309 -145 -147 -244 -344 -193 -387 26 -21 54 0 129 99
142 187 278 285 482 347 76 23 107 27 214 28 117 0 131 -2 215 -33 116 -42
262 -111 317 -149 25 -17 87 -68 139 -115 105 -93 130 -110 153 -101 52 20 4
143 -97 247 -85 88 -194 156 -338 212 -130 51 -176 81 -166 108 7 18 33 21
117 18 174 -9 393 -131 507 -284 77 -104 95 -154 104 -286 4 -64 13 -150 19
-191 18 -110 8 -325 -20 -420 -57 -199 -147 -313 -310 -394 -104 -50 -191 -74
-373 -101 -290 -43 -548 47 -714 246 -89 108 -163 303 -163 428 0 121 55 251
153 357 88 97 216 163 233 121 9 -25 -17 -61 -82 -115 -72 -60 -93 -87 -135
-177 -37 -78 -49 -195 -29 -288 40 -197 206 -371 407 -430 240 -71 553 21 704
206 27 34 76 113 107 176 57 114 57 114 57 220 0 92 -3 112 -24 156 -48 97
-247 269 -394 340 -164 79 -299 99 -472 72 -55 -9 -127 -19 -160 -23 -151 -16
-239 -80 -434 -314 -48 -57 -76 -101 -86 -134 -40 -132 2 -334 116 -557 118
-230 306 -371 569 -425 90 -18 221 -21 482 -11 142 6 152 8 245 45 54 22 110
42 126 46 33 8 67 -8 67 -32 0 -26 -53 -86 -123 -139 -34 -26 -102 -80 -152
-121 -152 -127 -295 -180 -515 -189 -264 -11 -513 62 -738 215 -109 74 -370
302 -429 375 -29 35 -77 104 -107 153 -96 155 -105 167 -121 154 -26 -21 -16
-67 33 -164 74 -143 153 -247 302 -396 154 -154 276 -245 435 -324 211 -106
389 -149 615 -149 274 0 446 62 702 253 173 129 218 186 253 319 9 35 32 106
51 159 113 310 153 523 141 757 -24 461 -199 786 -502 936 -125 61 -242 83
-366 69z m37 -739 c162 -81 284 -233 284 -357 0 -27 -6 -58 -13 -68 -22 -30
-49 -6 -103 86 -59 104 -135 180 -215 218 -121 57 -224 49 -291 -21 -61 -64
-50 -79 56 -79 104 0 161 -23 231 -93 70 -71 105 -146 105 -228 0 -120 -107
-219 -270 -249 -124 -22 -254 25 -353 129 -65 68 -103 142 -117 228 -18 104
16 243 75 309 29 33 36 37 45 24 6 -9 9 -36 5 -65 -3 -27 -8 -91 -11 -141 -6
-84 -4 -96 19 -147 17 -38 35 -61 56 -71 39 -21 36 -21 60 17 19 31 19 34 3
91 -15 55 -15 62 2 120 18 60 19 79 15 175 -4 63 31 119 93 150 37 19 56 22
139 19 91 -3 102 -6 185 -47z"/>
<path d="M4868 3795 c-30 -17 -45 -52 -30 -67 6 -6 21 -16 34 -22 56 -28 15
-86 -81 -112 -63 -18 -70 -28 -50 -66 24 -44 143 -63 212 -34 39 16 82 61 96
99 28 74 -6 158 -79 195 -51 26 -65 27 -102 7z"/>
<path d="M3235 3681 c-10 -32 106 -433 121 -418 2 2 -2 21 -9 43 -8 21 -17 75
-21 119 -16 178 -68 327 -91 256z"/>
<path d="M6841 3664 c0 -11 3 -14 6 -6 3 7 2 16 -1 19 -3 4 -6 -2 -5 -13z"/>
<path d="M4638 2223 c6 -2 18 -2 25 0 6 3 1 5 -13 5 -14 0 -19 -2 -12 -5z"/>
</g>
</svg>
