<?xml version="1.0" standalone="no"?>
<!DOCTYPE svg PUBLIC "-//W3C//DTD SVG 20010904//EN"
 "http://www.w3.org/TR/2001/REC-SVG-20010904/DTD/svg10.dtd">
<svg version="1.0" xmlns="http://www.w3.org/2000/svg"
 width="1000.000000pt" height="1000.000000pt" viewBox="0 0 1000.000000 1000.000000"
 preserveAspectRatio="xMidYMid meet">
<metadata>
  <rdf:RDF
    xmlns:rdf = "http://www.w3.org/1999/02/22-rdf-syntax-ns#"
    xmlns:rdfs = "http://www.w3.org/2000/01/rdf-schema#"
    xmlns:dc = "http://purl.org/dc/elements/1.1/"
    xmlns:cc = "http://creativecommons.org/ns#">
    <cc:license rdf:resource="http://creativecommons.org/publicdomain/zero/1.0/deed.en"/>
    <cc:permits rdf:resource="http://creativecommons.org/ns#Reproduction"/>
    <rdf:Description about="https://nft.mir.one/fingerprints"
      dc:title="TON Fingerprints"
      dc:description="This is a unique digital fingerprint created based on the algorithm for generating basic rings using a noise texture. Like human fingerprints, you can now use it for the Web3 and Metaverse era as digital biometric information."
      dc:publisher="https://nft.mir.one"
      dc:date="2022-02-22"
      dc:format="image/svg+xml"
      dc:language="en" >
      <dc:creator>
      <rdf:Bag>
        <rdf:li>EQBondcvD2_aOFADXSWJHs4ZazQDuEl9_wNvGGPxI8hGuOFU</rdf:li>
        <rdf:li>ipfs://bafkreihj7iub3fhmhq6jn62noukt5wxn3gv6bvcg7wmt6ywvlurefezckq</rdf:li>
      </rdf:Bag>
      </dc:creator>
    </rdf:Description>
  </rdf:RDF>
</metadata>
<g transform="translate(0.000000,1000.000000) scale(0.100000,-0.100000)"
fill="#1b1f23" stroke="none">
<path d="M4900 7799 c-80 -5 -170 -13 -200 -18 -55 -10 -55 -10 5 -6 33 3 144
8 248 12 103 3 186 7 185 8 -11 9 -116 11 -238 4z"/>
<path d="M5233 7793 c15 -2 39 -2 55 0 15 2 2 4 -28 4 -30 0 -43 -2 -27 -4z"/>
<path d="M4598 7763 c7 -3 16 -2 19 1 4 3 -2 6 -13 5 -11 0 -14 -3 -6 -6z"/>
<path d="M4797 7605 c-273 -34 -582 -124 -792 -230 -76 -39 -316 -177 -312
-181 6 -6 148 28 267 64 231 71 637 162 885 199 189 28 643 25 870 -6 168 -23
337 -41 343 -36 1 1 -66 27 -150 58 -162 58 -302 96 -458 123 -131 22 -508 28
-653 9z"/>
<path d="M4970 7335 c-58 -8 -136 -20 -175 -29 -159 -34 -698 -169 -810 -202
-207 -61 -352 -154 -609 -391 -78 -71 -78 -71 -29 -55 26 9 98 40 160 69 256
121 457 186 781 253 267 55 299 64 415 116 218 98 481 122 959 88 267 -19 492
-14 568 13 28 10 50 20 50 23 0 8 -158 46 -311 75 -278 52 -752 71 -999 40z"/>
<path d="M5050 7063 c-175 -17 -281 -54 -288 -100 -7 -46 14 -48 458 -48 415
0 415 0 550 -28 109 -23 179 -30 360 -37 125 -6 254 -16 290 -25 36 -8 92 -14
124 -15 60 0 60 0 -30 61 -49 34 -131 82 -182 107 -93 45 -93 45 -260 54 -92
4 -250 15 -352 23 -163 13 -569 18 -670 8z"/>
<path d="M4520 6833 c-372 -29 -642 -92 -910 -212 -132 -59 -176 -89 -273
-185 -71 -71 -240 -267 -234 -272 9 -9 98 33 181 86 307 193 489 274 741 329
130 28 208 34 310 22 90 -11 127 -9 703 30 89 6 281 16 425 23 171 9 272 17
290 26 52 25 26 69 -60 98 -42 14 -104 17 -468 17 -354 0 -430 3 -485 17 -75
18 -156 26 -220 21z"/>
<path d="M5970 6672 c-69 -18 -122 -38 -155 -60 -66 -44 -127 -60 -270 -72
-465 -40 -645 -64 -857 -114 -142 -34 -200 -57 -303 -123 -124 -78 -228 -125
-284 -127 -89 -2 -57 55 78 142 106 67 131 90 131 117 0 52 -62 59 -191 20
-46 -14 -129 -32 -184 -40 -127 -19 -210 -58 -475 -223 -228 -142 -284 -196
-409 -383 -43 -65 -78 -119 -76 -119 17 0 95 43 155 85 41 29 149 94 240 145
189 106 202 115 284 188 66 59 198 156 265 193 36 21 43 22 51 9 26 -40 -18
-121 -98 -180 -85 -63 -122 -101 -122 -125 0 -50 51 -58 165 -25 39 11 126 32
195 46 69 14 177 42 240 61 63 19 185 55 270 80 85 25 200 64 255 88 55 24
136 53 180 64 169 42 531 77 725 69 115 -5 115 -5 371 -101 141 -53 350 -139
465 -191 227 -102 275 -120 316 -114 25 3 18 12 -97 118 -84 77 -151 129 -203
157 -88 49 -279 125 -431 173 -209 66 -216 149 -10 120 166 -24 281 -65 509
-182 175 -91 175 -91 125 -36 -27 29 -76 84 -108 121 -66 76 -171 164 -233
195 -112 57 -345 68 -514 24z"/>
<path d="M5455 6249 c-55 -4 -167 -20 -248 -33 -199 -34 -268 -66 -252 -116
12 -37 69 -53 185 -53 85 -1 119 4 180 24 68 22 91 24 245 24 149 -1 184 -4
287 -28 308 -73 723 -252 1028 -446 61 -39 117 -71 123 -71 7 0 24 -6 39 -14
26 -14 26 -14 -5 29 -18 24 -52 75 -76 113 -86 139 -120 168 -281 245 -325
155 -630 271 -808 306 -120 24 -285 32 -417 20z"/>
<path d="M5373 5980 c-32 -13 -30 -53 3 -75 14 -9 121 -41 238 -70 252 -64
315 -83 466 -142 288 -113 524 -257 763 -467 117 -102 124 -107 199 -115 58
-7 58 -7 39 13 -10 12 -38 57 -61 101 -88 166 -117 201 -225 274 -327 222
-706 388 -1055 461 -115 24 -331 36 -367 20z"/>
<path d="M4620 5973 c-72 -8 -282 -45 -505 -90 -201 -39 -249 -45 -380 -48
-100 -2 -170 -8 -210 -19 -82 -23 -214 -87 -311 -151 -98 -66 -141 -123 -239
-321 -79 -159 -81 -158 63 -30 250 223 425 336 519 336 23 0 45 -5 48 -10 11
-17 -22 -58 -82 -103 -163 -123 -307 -244 -379 -319 -92 -96 -119 -149 -189
-380 -42 -136 -42 -136 -12 -110 16 15 56 63 90 107 145 191 280 331 507 525
41 35 116 104 166 152 99 96 138 117 289 162 179 52 224 58 525 63 307 6 389
0 570 -43 150 -35 634 -178 764 -226 239 -87 482 -220 635 -348 35 -29 80 -59
100 -66 30 -10 37 -18 42 -47 5 -34 116 -221 192 -325 66 -91 162 -186 199
-197 34 -11 34 -11 -3 80 -77 189 -99 236 -154 336 -65 118 -77 135 -171 241
-204 228 -534 407 -999 543 -243 70 -281 84 -395 136 -90 41 -173 68 -455 145
-46 13 -144 16 -225 7z"/>
<path d="M4153 5571 c-172 -47 -295 -116 -473 -266 -228 -192 -362 -329 -494
-505 -125 -166 -146 -245 -152 -555 -3 -190 -3 -206 10 -165 7 25 19 59 25 75
6 17 23 68 37 115 73 233 217 459 434 683 174 180 350 315 540 411 117 60 334
141 350 131 5 -3 10 -17 10 -31 0 -37 -65 -92 -181 -153 -231 -121 -365 -213
-531 -363 -224 -204 -388 -447 -473 -701 -43 -128 -50 -203 -36 -342 15 -136
85 -506 109 -575 10 -30 19 79 26 310 3 129 11 276 17 325 38 315 177 577 445
836 165 159 338 275 627 419 219 109 274 123 492 124 194 0 324 -18 580 -84
404 -104 678 -238 878 -429 109 -105 136 -161 77 -161 -21 0 -64 23 -142 77
-351 240 -412 268 -768 353 -314 75 -372 84 -565 84 -231 0 -346 -28 -589
-143 -469 -222 -827 -626 -885 -1001 -17 -108 -44 -560 -37 -635 13 -166 79
-359 187 -547 51 -89 66 -109 49 -63 -5 14 -24 87 -41 162 -56 244 -49 564 16
772 24 74 30 84 90 137 36 31 120 128 187 216 143 188 250 298 363 373 219
146 447 206 785 209 195 1 238 -8 392 -79 82 -38 99 -52 77 -66 -34 -22 -71
-21 -201 6 -149 30 -208 30 -240 -3 -20 -19 -20 -20 2 -40 33 -30 157 -77 300
-112 69 -17 153 -45 186 -61 94 -44 155 -128 108 -146 -9 -3 -75 13 -148 36
-115 36 -174 49 -353 76 -35 5 -43 11 -52 36 -17 50 -112 169 -140 177 -42 12
-251 7 -311 -7 -201 -47 -333 -115 -451 -231 -94 -94 -346 -404 -402 -496 -73
-121 -107 -265 -107 -461 0 -272 53 -398 245 -586 75 -74 119 -108 177 -137
58 -30 79 -36 86 -27 5 7 6 21 2 33 -13 33 -78 84 -108 84 -55 0 -69 32 -17
42 36 6 26 33 -39 101 -118 125 -176 284 -176 481 0 123 16 214 53 306 52 127
156 268 251 340 51 39 63 43 158 57 172 24 303 27 382 9 39 -9 119 -23 179
-31 107 -14 111 -16 273 -101 203 -108 286 -169 340 -250 88 -132 103 -323 45
-569 -66 -278 -132 -418 -256 -541 -126 -125 -272 -196 -405 -197 -93 -1 -360
64 -518 126 -100 39 -114 41 -212 42 -58 1 -121 5 -140 9 -19 4 78 -31 215
-78 138 -47 302 -98 365 -112 63 -14 146 -35 184 -46 81 -24 164 -21 290 12
199 53 394 174 475 297 42 62 84 202 117 383 27 153 47 205 79 205 16 0 21
-10 27 -50 14 -92 -30 -434 -73 -572 -55 -176 -56 -166 12 -93 34 36 71 81 84
100 39 58 93 254 101 366 8 125 -6 197 -57 291 -70 128 -111 332 -74 363 40
33 126 -99 190 -291 44 -133 59 -238 51 -352 -7 -95 -48 -268 -72 -305 -15
-22 -14 -23 5 -12 50 26 152 214 193 353 21 72 21 84 10 180 -23 204 -90 383
-179 478 -54 58 -300 224 -407 275 -39 19 -138 58 -220 89 -155 56 -183 72
-173 99 17 44 121 45 292 2 55 -14 136 -30 181 -35 45 -6 94 -16 110 -23 55
-23 147 -91 222 -162 166 -158 241 -312 287 -596 8 -52 15 -127 15 -166 0 -39
3 -107 7 -150 6 -79 6 -79 40 26 76 240 88 331 67 523 -28 252 -80 343 -374
640 -203 207 -315 308 -412 372 -49 32 -58 42 -58 67 0 45 -26 92 -80 142 -91
85 -226 131 -420 142 -290 18 -614 -75 -869 -248 -178 -122 -369 -350 -486
-581 -53 -104 -69 -114 -93 -64 -30 62 43 253 159 417 66 94 221 250 319 322
433 317 949 393 1397 207 69 -29 73 -33 73 -63 0 -73 78 -162 303 -347 362
-296 481 -417 636 -645 81 -119 144 -190 207 -234 40 -28 40 -28 33 28 -4 31
-13 100 -19 152 -6 52 -16 112 -22 133 -14 48 -157 227 -269 337 -134 132
-695 534 -803 575 -81 31 -46 71 55 62 79 -7 191 -64 410 -209 96 -63 215
-137 264 -164 74 -40 112 -71 216 -174 69 -69 157 -168 196 -220 39 -52 84
-105 101 -117 29 -22 29 -22 21 20 -4 23 -15 85 -23 137 -28 174 -45 212 -152
335 -81 94 -105 130 -161 245 -59 120 -74 143 -142 210 -138 137 -384 282
-634 374 -144 54 -419 131 -602 171 -266 57 -421 65 -672 33 -92 -11 -92 -11
-134 18 -37 25 -52 29 -123 31 -55 2 -104 -3 -153 -16z m920 -1270 c59 -10
110 -21 113 -24 13 -13 -21 -51 -64 -70 -39 -17 -78 -22 -232 -28 -207 -9
-289 -23 -421 -74 -50 -19 -95 -32 -100 -29 -19 11 -8 54 22 83 42 42 106 78
192 108 155 54 306 65 490 34z"/>
<path d="M6960 5020 c-12 -23 3 -75 43 -142 26 -45 84 -105 75 -78 -81 246
-93 267 -118 220z"/>
<path d="M4498 3886 c-153 -45 -266 -142 -339 -291 -55 -112 -72 -190 -72
-315 0 -169 31 -261 149 -437 106 -157 189 -240 295 -292 126 -62 220 -84 364
-84 104 -1 128 2 185 24 254 97 421 359 437 684 7 132 -5 199 -53 295 -97 193
-391 322 -538 236 -55 -32 -197 -199 -238 -281 -78 -152 -31 -316 101 -356 46
-14 77 -8 115 22 49 38 57 107 15 129 -14 8 -24 4 -45 -15 -24 -22 -30 -24
-48 -12 -30 20 -39 59 -26 108 14 52 104 145 171 177 127 61 286 -10 351 -156
33 -75 37 -219 7 -317 -42 -144 -138 -259 -268 -323 -74 -37 -76 -37 -200 -37
-106 0 -137 4 -193 23 -162 56 -313 213 -385 400 -31 82 -43 242 -23 331 44
205 211 373 408 412 78 15 95 37 58 74 -22 22 -34 25 -88 24 -35 0 -97 -10
-140 -23z"/>
<path d="M4685 3745 c-85 -36 -193 -138 -248 -235 -87 -153 -77 -368 24 -519
179 -268 539 -290 698 -43 41 64 65 161 56 226 -13 102 -82 186 -153 186 -51
0 -59 -30 -28 -100 75 -166 -26 -320 -209 -320 -78 0 -146 32 -206 97 -67 71
-92 144 -87 253 4 108 37 183 127 295 93 115 107 146 73 164 -11 6 -27 5 -47
-4z"/>
<path d="M6600 3545 c-19 -22 -8 -177 17 -239 20 -49 20 -49 26 -10 13 81 18
200 9 229 -10 34 -33 43 -52 20z"/>
</g>
</svg>
