<?xml version="1.0" standalone="no"?>
<!DOCTYPE svg PUBLIC "-//W3C//DTD SVG 20010904//EN"
 "http://www.w3.org/TR/2001/REC-SVG-20010904/DTD/svg10.dtd">
<svg version="1.0" xmlns="http://www.w3.org/2000/svg"
 width="1000.000000pt" height="1000.000000pt" viewBox="0 0 1000.000000 1000.000000"
 preserveAspectRatio="xMidYMid meet">
<metadata>
  <rdf:RDF
    xmlns:rdf = "http://www.w3.org/1999/02/22-rdf-syntax-ns#"
    xmlns:rdfs = "http://www.w3.org/2000/01/rdf-schema#"
    xmlns:dc = "http://purl.org/dc/elements/1.1/"
    xmlns:cc = "http://creativecommons.org/ns#">
    <cc:license rdf:resource="http://creativecommons.org/publicdomain/zero/1.0/deed.en"/>
    <cc:permits rdf:resource="http://creativecommons.org/ns#Reproduction"/>
    <rdf:Description about="https://nft.mir.one/fingerprints"
      dc:title="TON Fingerprints"
      dc:description="This is a unique digital fingerprint created based on the algorithm for generating basic rings using a noise texture. Like human fingerprints, you can now use it for the Web3 and Metaverse era as digital biometric information."
      dc:publisher="https://nft.mir.one"
      dc:date="2022-02-22"
      dc:format="image/svg+xml"
      dc:language="en" >
      <dc:creator>
      <rdf:Bag>
        <rdf:li>EQBondcvD2_aOFADXSWJHs4ZazQDuEl9_wNvGGPxI8hGuOFU</rdf:li>
        <rdf:li>ipfs://bafkreihj7iub3fhmhq6jn62noukt5wxn3gv6bvcg7wmt6ywvlurefezckq</rdf:li>
      </rdf:Bag>
      </dc:creator>
    </rdf:Description>
  </rdf:RDF>
</metadata>
<g transform="translate(0.000000,1000.000000) scale(0.100000,-0.100000)"
fill="#1b1f23" stroke="none">
<path d="M4991 7772 c29 -26 110 -84 181 -129 295 -188 641 -454 860 -662 105
-100 151 -159 185 -243 33 -82 73 -141 176 -259 109 -126 121 -143 182 -268
29 -58 88 -155 132 -216 197 -273 266 -363 304 -400 41 -40 41 -40 14 20 -14
33 -45 103 -67 155 -22 52 -71 156 -108 230 -37 74 -86 178 -109 230 -47 109
-98 178 -249 340 -140 150 -176 195 -169 214 18 46 91 4 248 -141 58 -54 125
-109 149 -122 40 -22 35 -15 -75 118 -64 78 -153 174 -198 214 -44 39 -127
115 -182 168 -253 237 -473 404 -723 547 -142 82 -237 123 -447 197 -157 55
-157 55 -104 7z"/>
<path d="M4440 7667 c19 -20 116 -81 215 -138 517 -293 826 -526 1254 -944
278 -271 452 -410 508 -403 65 7 35 71 -102 217 -57 61 -158 178 -224 260
-130 160 -228 258 -416 415 -206 171 -519 396 -676 485 -103 58 -298 110 -474
126 -38 4 -81 9 -95 12 -24 5 -23 4 10 -30z"/>
<path d="M4050 7450 c38 -49 186 -136 475 -282 353 -178 418 -223 836 -578
406 -345 460 -402 547 -575 22 -45 86 -150 143 -235 121 -183 153 -247 174
-355 19 -91 62 -207 165 -444 103 -237 133 -331 133 -417 -1 -81 -18 -129 -48
-129 -14 0 -23 12 -33 50 -41 141 -89 271 -172 470 -51 121 -117 285 -147 365
-70 188 -101 251 -223 455 -166 276 -217 339 -373 457 -157 120 -353 282 -452
376 -163 155 -298 258 -412 316 -29 14 -101 40 -160 57 -122 35 -174 60 -353
165 -73 42 -142 76 -165 79 -73 11 -173 -11 -271 -60 -92 -46 -92 -46 -64 -74
18 -18 52 -34 95 -46 94 -25 307 -133 402 -203 55 -41 111 -97 178 -178 136
-164 314 -361 385 -427 33 -31 92 -78 132 -106 45 -31 83 -67 100 -93 58 -94
334 -662 404 -832 42 -99 134 -297 205 -439 71 -142 129 -267 129 -278 0 -43
-60 -36 -117 14 -20 17 -66 77 -101 131 -109 168 -177 309 -237 489 -58 178
-128 325 -260 551 -115 197 -174 272 -345 439 -86 84 -192 198 -235 253 -192
241 -387 378 -630 439 -117 30 -139 26 -214 -38 -27 -23 -94 -65 -149 -94
-100 -52 -100 -52 -70 -62 17 -6 74 -11 127 -11 123 0 270 -16 346 -37 213
-58 452 -215 443 -291 -3 -23 -7 -27 -30 -24 -15 1 -76 24 -135 51 -203 91
-374 136 -566 148 -102 6 -106 5 -171 -25 -36 -17 -86 -45 -110 -62 -25 -16
-55 -34 -68 -40 -13 -5 -16 -9 -8 -9 8 -1 26 -7 40 -14 16 -8 82 -16 166 -20
247 -12 379 -33 608 -98 77 -21 180 -46 229 -55 102 -17 144 -36 238 -105 143
-105 323 -332 531 -669 89 -143 123 -248 88 -270 -23 -14 -44 5 -133 122 -48
62 -131 165 -186 228 -75 85 -112 139 -146 207 -95 191 -253 302 -558 392
-208 61 -326 81 -551 92 -231 11 -231 11 -356 -87 -38 -30 -74 -54 -82 -55 -7
0 6 -9 29 -19 28 -13 90 -22 195 -31 143 -12 159 -11 219 6 124 36 275 19 504
-57 248 -82 532 -256 500 -308 -15 -24 -83 -9 -200 46 -269 126 -467 197 -640
229 -164 31 -197 -39 -51 -108 28 -13 116 -48 196 -77 80 -29 215 -82 300
-118 85 -36 211 -88 280 -116 69 -28 150 -68 182 -89 66 -44 198 -162 261
-232 24 -27 81 -79 126 -115 92 -73 161 -159 321 -400 122 -184 148 -235 191
-366 37 -116 86 -222 127 -280 25 -34 42 -45 94 -62 152 -48 203 -71 235 -108
44 -50 146 -260 188 -387 55 -170 69 -273 62 -477 -3 -96 -2 -195 3 -220 4
-25 8 -37 9 -28 0 10 21 62 45 115 54 122 95 249 103 323 11 105 -40 331 -128
569 -28 75 -72 197 -99 271 -60 169 -84 225 -164 369 -35 64 -83 170 -106 236
-45 128 -240 566 -450 1010 -162 342 -214 486 -195 545 5 16 15 20 46 20 48 0
74 -23 89 -82 34 -125 62 -192 194 -460 141 -286 270 -571 415 -911 39 -92
117 -258 172 -369 202 -404 324 -753 364 -1043 16 -117 35 -205 44 -205 10 0
70 269 82 364 17 133 5 190 -97 462 -70 187 -124 299 -227 473 -87 145 -122
221 -332 706 -140 324 -269 580 -405 810 -55 93 -99 177 -98 185 2 8 13 16 26
18 58 9 146 -88 275 -302 110 -182 191 -353 367 -771 213 -504 219 -517 301
-595 66 -64 69 -69 159 -275 51 -115 116 -280 144 -365 28 -85 61 -172 72
-193 20 -38 20 -38 33 122 12 155 9 278 -10 352 -5 20 -32 78 -60 128 -28 51
-62 122 -75 159 -28 79 -33 179 -9 188 24 10 41 -12 97 -117 57 -110 140 -209
190 -229 18 -7 41 -20 52 -29 18 -15 18 -14 12 15 -5 20 -2 45 7 66 14 34 14
34 -20 35 -46 1 -58 14 -89 96 -31 81 -53 119 -135 227 -63 83 -84 123 -163
302 -29 68 -99 218 -155 335 -57 116 -101 220 -99 230 6 32 38 27 80 -14 75
-72 179 -259 313 -561 92 -208 173 -343 268 -447 18 -20 22 -33 31 -90 3 -16
3 7 0 53 -4 68 -10 93 -34 135 -16 29 -42 106 -59 174 -34 142 -99 311 -182
473 -101 198 -147 260 -330 440 -251 246 -409 434 -409 486 0 57 44 36 199
-95 114 -95 326 -305 416 -411 73 -86 188 -264 248 -385 31 -61 84 -193 119
-294 34 -101 64 -177 66 -168 7 35 -40 349 -68 452 -70 264 -133 378 -363 651
-108 128 -177 188 -276 240 -47 24 -125 68 -173 97 -48 28 -114 68 -148 86
-37 21 -132 101 -238 200 -339 316 -637 556 -877 709 -155 98 -470 272 -525
290 -30 10 -101 16 -213 18 -168 3 -168 3 -137 -36z m514 -655 c158 -95 370
-311 411 -420 28 -71 9 -155 -34 -155 -10 0 -51 45 -98 108 -44 59 -141 170
-215 247 -145 152 -178 193 -178 222 0 45 38 44 114 -2z m625 -529 c15 -8 33
-27 40 -43 11 -25 10 -29 -9 -45 -12 -10 -28 -18 -35 -18 -33 0 -67 79 -45
105 15 18 15 18 49 1z m518 -1972 c76 -57 195 -265 197 -341 1 -45 -16 -68
-41 -55 -21 12 -170 208 -213 281 -46 77 -60 128 -39 142 20 13 58 2 96 -27z"/>
<path d="M3455 6840 c28 -12 47 -12 40 0 -3 6 -18 10 -33 9 -24 0 -25 -1 -7
-9z"/>
<path d="M3115 5749 c-22 -12 -55 -33 -73 -48 -19 -14 -45 -34 -59 -43 -26
-17 -26 -17 12 -32 21 -9 82 -25 137 -36 134 -28 220 -56 518 -170 313 -120
438 -173 602 -256 185 -94 499 -308 515 -351 8 -19 -14 -33 -52 -33 -40 0
-121 40 -285 140 -240 146 -551 285 -915 410 -162 55 -362 110 -402 110 -32 0
-72 -22 -128 -70 -25 -22 -52 -40 -58 -40 -7 0 3 -9 20 -20 18 -11 79 -29 135
-40 316 -64 711 -196 1013 -339 66 -32 194 -102 284 -156 90 -53 215 -126 278
-161 148 -83 210 -129 308 -228 128 -130 189 -233 161 -272 -19 -26 -46 -11
-164 88 -59 49 -179 137 -267 195 -88 58 -194 133 -235 166 -164 132 -333 225
-600 330 -193 76 -368 132 -568 182 -205 51 -219 52 -268 18 -48 -33 -118 -93
-113 -97 22 -20 94 -41 221 -67 429 -86 855 -230 1087 -368 136 -80 180 -178
64 -141 -21 7 -112 44 -203 82 -192 81 -405 154 -575 197 -124 31 -381 81
-417 81 -20 0 -79 -55 -139 -127 -26 -31 -26 -31 15 -47 23 -8 95 -20 161 -26
280 -26 517 -78 790 -175 257 -92 299 -104 397 -116 111 -14 349 -91 447 -145
103 -57 297 -201 351 -262 56 -63 105 -151 154 -278 47 -122 69 -213 115 -480
65 -368 72 -428 80 -634 4 -108 11 -202 15 -208 9 -15 72 79 123 183 33 66 34
74 29 145 -3 41 -26 174 -51 295 -35 170 -47 256 -55 380 -8 143 -14 177 -54
320 -58 207 -66 232 -109 346 -20 53 -48 141 -62 195 -47 185 -137 328 -359
569 -61 66 -83 98 -97 141 -10 31 -35 78 -54 105 -42 56 -189 183 -289 247
-120 78 -407 207 -781 352 -60 23 -167 71 -237 106 -123 61 -245 104 -298 104
-14 0 -43 -9 -65 -21z"/>
<path d="M7071 4704 c0 -11 3 -14 6 -6 3 7 2 16 -1 19 -3 4 -6 -2 -5 -13z"/>
<path d="M3124 4410 c-27 -11 -66 -57 -100 -120 -15 -28 -32 -50 -38 -50 -6
-1 11 -9 38 -20 46 -18 56 -18 197 -5 236 23 423 -5 666 -100 242 -95 379
-185 519 -342 223 -251 335 -455 399 -728 53 -224 73 -459 55 -635 -6 -63 -12
-140 -13 -171 -2 -55 -2 -55 26 -17 15 21 31 38 37 38 5 0 31 30 57 67 48 68
48 68 47 268 0 218 -11 306 -66 520 -66 258 -148 418 -340 660 -52 66 -113
147 -135 180 -82 121 -156 167 -457 279 -276 104 -491 157 -686 171 -41 3
-100 7 -130 9 -30 3 -64 1 -76 -4z"/>
<path d="M3295 4075 c-22 -8 -45 -22 -52 -31 -19 -25 8 -67 56 -89 35 -15 50
-17 103 -8 107 18 230 -13 409 -103 158 -79 294 -178 430 -313 192 -193 264
-317 281 -486 5 -49 20 -142 34 -205 38 -180 45 -260 38 -440 -7 -164 -7 -164
41 -110 26 30 61 74 77 99 27 43 28 50 28 165 -1 252 -70 586 -158 761 -100
200 -292 417 -477 540 -155 103 -361 191 -513 221 -94 18 -245 17 -297 -1z"/>
<path d="M4586 4054 c-9 -8 -16 -21 -16 -28 0 -18 46 -79 130 -170 201 -220
304 -417 380 -728 59 -243 88 -532 73 -728 -5 -64 -6 -138 -3 -165 4 -28 8
-45 9 -40 0 6 24 38 51 70 28 33 64 87 80 119 26 52 30 70 30 147 0 117 -15
260 -50 464 -72 424 -169 667 -339 848 -114 121 -258 226 -313 227 -9 0 -24
-7 -32 -16z"/>
<path d="M3391 3866 c-11 -13 -11 -20 4 -43 24 -39 39 -50 217 -168 87 -57
202 -137 255 -178 54 -41 139 -99 188 -130 97 -60 158 -117 257 -242 46 -58
71 -81 89 -83 18 -2 29 3 33 14 18 46 -72 206 -179 322 -148 160 -459 375
-684 472 -112 48 -162 58 -180 36z"/>
<path d="M5590 3811 c-24 -45 -3 -128 69 -285 25 -54 58 -105 94 -144 31 -33
65 -78 75 -99 57 -112 110 -374 83 -407 -10 -12 -18 -13 -32 -5 -28 14 -42 48
-93 218 -53 173 -67 205 -98 222 -19 10 -24 8 -41 -12 -16 -20 -18 -34 -13
-89 7 -82 43 -229 95 -391 27 -85 44 -161 51 -230 5 -56 15 -120 21 -142 10
-39 10 -39 54 47 74 143 175 403 182 467 18 175 -79 455 -239 686 -53 77 -159
183 -183 183 -8 0 -19 -9 -25 -19z"/>
<path d="M3202 3691 c-39 -40 -39 -40 32 -104 39 -35 111 -87 159 -116 270
-163 493 -423 702 -821 70 -134 182 -307 192 -297 1 2 -2 17 -7 33 -5 16 -16
78 -24 138 -17 135 -48 201 -208 441 -69 104 -121 194 -133 230 -16 46 -35 76
-87 131 -63 66 -113 105 -412 324 -132 97 -154 101 -214 41z"/>
<path d="M4002 3233 c-14 -26 -3 -47 95 -178 162 -218 203 -286 243 -404 33
-99 42 -160 29 -199 -9 -27 -9 -36 1 -42 30 -18 95 35 110 89 20 72 -30 289
-87 375 -14 22 -53 70 -87 106 -33 37 -94 104 -135 150 -100 111 -149 141
-169 103z"/>
<path d="M3426 3140 c12 -14 33 -43 48 -65 14 -22 26 -36 26 -32 0 13 -56 92
-77 107 -14 11 -13 9 3 -10z"/>
<path d="M3643 3009 c-23 -23 -15 -57 16 -74 34 -17 97 -102 167 -225 49 -86
49 -86 45 -10 -7 152 -94 297 -188 316 -16 3 -33 0 -40 -7z"/>
</g>
</svg>
