<?xml version="1.0" standalone="no"?>
<!DOCTYPE svg PUBLIC "-//W3C//DTD SVG 20010904//EN"
 "http://www.w3.org/TR/2001/REC-SVG-20010904/DTD/svg10.dtd">
<svg version="1.0" xmlns="http://www.w3.org/2000/svg"
 width="1000.000000pt" height="1000.000000pt" viewBox="0 0 1000.000000 1000.000000"
 preserveAspectRatio="xMidYMid meet">
<metadata>
  <rdf:RDF
    xmlns:rdf = "http://www.w3.org/1999/02/22-rdf-syntax-ns#"
    xmlns:rdfs = "http://www.w3.org/2000/01/rdf-schema#"
    xmlns:dc = "http://purl.org/dc/elements/1.1/"
    xmlns:cc = "http://creativecommons.org/ns#">
    <cc:license rdf:resource="http://creativecommons.org/publicdomain/zero/1.0/deed.en"/>
    <cc:permits rdf:resource="http://creativecommons.org/ns#Reproduction"/>
    <rdf:Description about="https://nft.mir.one/fingerprints"
      dc:title="TON Fingerprints"
      dc:description="This is a unique digital fingerprint created based on the algorithm for generating basic rings using a noise texture. Like human fingerprints, you can now use it for the Web3 and Metaverse era as digital biometric information."
      dc:publisher="https://nft.mir.one"
      dc:date="2022-02-22"
      dc:format="image/svg+xml"
      dc:language="en" >
      <dc:creator>
      <rdf:Bag>
        <rdf:li>EQBondcvD2_aOFADXSWJHs4ZazQDuEl9_wNvGGPxI8hGuOFU</rdf:li>
        <rdf:li>ipfs://bafkreihj7iub3fhmhq6jn62noukt5wxn3gv6bvcg7wmt6ywvlurefezckq</rdf:li>
      </rdf:Bag>
      </dc:creator>
    </rdf:Description>
  </rdf:RDF>
</metadata>
<g transform="translate(0.000000,1000.000000) scale(0.100000,-0.100000)"
fill="#1b1f23" stroke="none">
<path d="M4595 7709 c-44 -11 -116 -24 -160 -28 -80 -7 -80 -7 -1 -25 61 -14
99 -17 166 -12 89 7 199 -2 594 -49 240 -29 412 -62 576 -112 63 -19 153 -46
200 -60 46 -13 107 -35 135 -49 104 -51 1 15 -125 80 -212 109 -413 180 -635
225 -266 53 -602 67 -750 30z"/>
<path d="M4145 7485 c-5 -2 -41 -6 -79 -10 -68 -7 -68 -7 -35 -36 72 -62 342
-131 838 -214 118 -20 224 -40 236 -45 13 -5 33 -26 45 -48 28 -50 82 -85 184
-118 144 -47 318 -115 458 -179 75 -35 194 -82 265 -105 152 -49 229 -89 508
-265 116 -73 221 -136 235 -140 14 -4 36 -14 50 -23 29 -18 -188 216 -270 291
-129 118 -230 176 -550 315 -342 148 -469 194 -660 238 -58 13 -121 24 -141
24 -19 0 -44 7 -55 15 -18 14 -18 16 12 44 41 37 103 46 214 31 227 -31 523
-146 945 -368 126 -67 312 -154 293 -138 -1 2 -55 47 -118 101 -289 246 -533
404 -733 474 -207 72 -353 97 -652 111 -121 5 -303 19 -405 30 -163 17 -549
27 -585 15z"/>
<path d="M3860 7215 c-30 -6 -79 -19 -109 -28 -30 -10 -68 -17 -84 -17 -28 0
-27 -1 19 -26 27 -14 78 -37 114 -50 36 -14 108 -49 160 -79 52 -30 111 -61
131 -69 20 -8 194 -47 385 -86 192 -40 391 -85 442 -102 82 -27 102 -39 161
-92 36 -34 98 -84 136 -111 39 -27 135 -96 215 -155 237 -173 372 -249 574
-321 138 -50 272 -115 536 -259 291 -160 339 -182 391 -178 32 2 45 8 47 21 2
9 -3 17 -10 17 -7 0 -45 32 -83 71 -82 83 -141 124 -405 284 -308 186 -325
199 -364 279 -14 28 -53 83 -87 121 -33 39 -69 86 -79 106 -27 52 -84 99 -196
162 -177 99 -341 165 -549 220 -49 14 -142 40 -205 60 -63 19 -248 65 -411
101 -163 36 -353 84 -422 106 -136 44 -203 49 -307 25z m1499 -482 c192 -81
335 -172 556 -349 152 -123 168 -146 107 -152 -50 -5 -135 40 -355 187 -109
72 -257 166 -330 207 -153 88 -182 111 -166 131 21 25 97 15 188 -24z"/>
<path d="M3675 6946 c-72 -19 -94 -29 -195 -90 -92 -55 -92 -55 -55 -70 34
-14 44 -14 128 5 54 13 134 22 193 24 55 1 105 5 111 8 21 13 21 47 1 72 -40
52 -107 70 -183 51z"/>
<path d="M3705 6711 c-39 -18 -76 -52 -107 -98 -8 -13 -43 -44 -78 -70 -81
-60 -113 -106 -105 -148 17 -80 71 -83 400 -18 220 43 253 47 390 48 216 0
330 -32 504 -144 84 -53 251 -139 333 -171 29 -12 116 -36 194 -55 169 -41
177 -44 469 -180 127 -59 320 -145 430 -192 440 -187 699 -308 810 -380 33
-21 79 -46 101 -55 42 -15 42 -15 11 36 -56 96 -116 181 -144 208 -15 14 -68
44 -118 66 -49 22 -220 103 -380 180 -159 77 -348 165 -420 195 -374 159 -499
231 -623 355 -90 90 -244 202 -354 258 -70 36 -152 54 -240 54 -48 0 -130 11
-217 30 -76 16 -191 35 -254 41 -169 17 -231 6 -384 -72 -127 -65 -199 -83
-242 -60 -35 19 -25 40 32 66 65 28 117 71 117 95 0 35 -62 40 -125 11z m1262
-296 c114 -54 273 -147 297 -174 32 -35 14 -54 -45 -49 -61 6 -312 128 -376
183 -40 34 -55 70 -36 89 12 12 65 -4 160 -49z"/>
<path d="M6030 6610 c-27 -17 3 -59 125 -171 92 -85 177 -148 365 -274 234
-155 385 -261 459 -322 30 -24 25 -13 -39 82 -87 131 -193 260 -252 307 -88
70 -519 350 -568 369 -56 21 -69 23 -90 9z"/>
<path d="M3947 6245 c-199 -33 -304 -71 -357 -131 -43 -49 -38 -76 15 -86 77
-13 151 -8 236 17 159 48 349 43 574 -15 126 -33 737 -260 942 -350 156 -69
372 -184 513 -272 143 -90 160 -105 160 -137 0 -52 22 -95 139 -270 118 -177
183 -258 367 -456 342 -370 457 -482 441 -428 -3 10 -17 59 -31 109 -49 179
-50 179 -334 467 -142 144 -266 273 -275 287 -21 30 -23 80 -3 80 42 0 274
-191 501 -410 88 -86 173 -164 189 -174 28 -18 29 -18 22 0 -4 11 -17 48 -28
84 -11 36 -38 102 -60 148 -34 73 -48 90 -123 154 -211 178 -346 260 -472 284
-62 12 -98 27 -180 75 -114 67 -128 89 -69 109 42 14 92 3 246 -51 225 -81
418 -195 609 -361 24 -21 62 -48 85 -61 41 -23 41 -23 -27 116 -48 97 -81 151
-111 180 -90 89 -393 236 -710 346 -203 71 -202 71 -503 215 -257 123 -315
146 -553 228 -96 33 -260 97 -365 143 -265 116 -259 113 -365 141 -121 32
-338 41 -473 19z"/>
<path d="M3073 5995 c-43 -55 -43 -55 -9 -55 48 0 71 31 67 93 -2 28 -13 20
-58 -38z"/>
<path d="M3445 5989 c-38 -12 -68 -37 -94 -80 -29 -48 -26 -73 22 -164 40 -76
45 -82 107 -112 102 -51 430 -155 720 -227 474 -119 663 -183 920 -313 243
-122 425 -261 596 -455 160 -180 254 -331 254 -408 0 -80 -57 -71 -108 17 -83
142 -294 379 -452 508 -200 162 -459 289 -785 385 -140 41 -809 182 -959 202
-132 17 -282 6 -436 -35 -135 -35 -135 -35 -185 -89 -27 -30 -69 -84 -92 -121
-42 -66 -42 -66 -9 -72 18 -4 80 3 142 15 300 58 524 65 830 26 104 -14 254
-32 334 -41 204 -23 329 -49 493 -102 240 -77 434 -172 562 -277 78 -64 379
-360 416 -410 16 -21 29 -47 29 -58 0 -79 -272 101 -422 279 -118 141 -249
215 -561 318 -232 76 -285 83 -597 75 -78 -1 -172 4 -250 14 -201 27 -399 31
-614 11 -104 -9 -199 -20 -210 -25 -32 -12 -70 -57 -120 -140 -30 -50 -42 -78
-35 -85 6 -6 74 -8 182 -5 95 3 298 5 452 4 276 0 281 -1 370 -28 98 -29 192
-79 298 -157 57 -42 67 -54 67 -80 0 -43 31 -99 82 -145 23 -21 131 -105 238
-186 286 -214 412 -333 560 -529 165 -220 344 -576 463 -925 25 -73 54 -149
64 -169 19 -37 19 -37 37 27 25 94 34 176 24 220 -15 71 -127 342 -202 494
-143 288 -296 517 -439 657 -148 145 -474 394 -652 498 -140 81 -148 88 -135
104 50 60 229 -7 430 -159 58 -44 177 -134 265 -200 88 -65 193 -152 233 -193
183 -184 455 -698 616 -1161 20 -57 46 -121 59 -143 24 -39 24 -39 38 48 24
152 19 201 -38 348 -80 207 -169 400 -251 545 -133 238 -143 257 -149 312 -5
47 -11 59 -57 103 -66 65 -223 177 -351 251 -152 87 -211 132 -265 200 -42 53
-62 69 -141 108 -50 25 -162 69 -249 96 -87 28 -170 60 -184 71 -63 50 -7 85
111 68 89 -13 157 -31 353 -94 91 -29 201 -63 245 -75 121 -32 231 -106 210
-140 -10 -16 -38 -12 -125 20 -126 46 -186 36 -139 -24 28 -35 109 -79 218
-117 54 -19 140 -60 200 -97 172 -104 214 -122 334 -143 121 -22 191 -52 231
-100 62 -74 181 -354 299 -704 50 -148 100 -285 113 -303 22 -34 22 -34 29 73
4 59 5 139 2 178 -7 92 -91 385 -156 543 -26 65 -51 133 -55 149 -8 39 12 70
40 61 30 -9 88 -73 129 -141 46 -78 68 -149 100 -332 27 -158 54 -257 84 -312
19 -35 19 -35 23 125 5 160 15 214 42 214 7 0 19 -13 25 -28 6 -15 25 -48 42
-72 27 -41 29 -43 24 -15 -14 65 -27 95 -50 113 -17 13 -30 42 -43 92 -34 130
-8 150 81 63 34 -33 74 -67 89 -76 27 -17 27 -17 2 55 -34 102 -66 145 -121
169 -31 13 -91 63 -182 150 -75 72 -163 156 -196 188 -45 42 -75 83 -119 166
-128 241 -271 430 -469 622 -306 295 -684 475 -1420 677 -258 71 -368 110
-442 157 -86 55 -213 158 -247 202 -48 62 -58 66 -123 46z"/>
<path d="M3857 5932 c-24 -26 -21 -37 13 -65 42 -36 114 -60 371 -127 367 -95
710 -217 974 -345 403 -195 593 -371 965 -890 176 -245 322 -407 548 -603 74
-65 141 -112 157 -112 2 0 -1 11 -51 173 -27 89 -27 89 -197 270 -224 241
-333 372 -559 674 -108 144 -218 279 -257 316 -192 181 -562 366 -1128 566
-301 106 -550 161 -727 161 -77 0 -96 -3 -109 -18z"/>
<path d="M3093 5634 c-27 -27 -68 -78 -92 -113 -24 -35 -51 -71 -60 -80 -16
-16 -14 -17 29 -15 52 2 168 42 253 87 58 30 92 72 82 99 -10 23 -78 61 -121
66 -40 4 -45 2 -91 -44z"/>
<path d="M3672 4425 c-23 -7 -54 -21 -69 -30 -28 -19 -66 -18 -268 4 -207 23
-195 24 -239 -22 -21 -22 -48 -61 -59 -86 -11 -25 -26 -53 -33 -62 -12 -14 -8
-18 33 -37 27 -12 84 -28 128 -36 44 -8 120 -29 168 -46 167 -61 541 -333 683
-497 106 -123 372 -453 449 -559 161 -220 305 -472 389 -683 20 -52 48 -115
61 -139 20 -38 25 -42 31 -26 3 10 15 41 25 67 38 93 36 132 -11 243 -120 281
-278 532 -549 869 -66 83 -151 201 -188 263 -84 140 -185 242 -418 419 -163
124 -209 173 -203 215 5 40 51 35 157 -17 125 -61 230 -131 376 -250 145 -118
175 -138 261 -170 211 -79 500 -377 719 -740 105 -173 254 -507 300 -670 9
-33 29 -86 43 -118 25 -58 25 -58 49 15 13 40 26 102 29 138 5 59 2 75 -34
170 -99 259 -209 478 -337 670 -185 278 -357 448 -673 668 -69 48 -163 121
-209 162 -228 204 -291 245 -429 280 -89 23 -122 24 -182 5z"/>
<path d="M3215 3896 c-14 -14 -37 -50 -51 -80 -16 -33 -33 -56 -42 -56 -24 0
78 -61 213 -127 137 -68 312 -183 432 -285 227 -192 524 -555 706 -863 83
-140 151 -245 157 -245 14 0 52 154 47 191 -13 99 -258 475 -488 751 -230 276
-381 421 -574 550 -119 81 -324 188 -358 188 -10 0 -29 -11 -42 -24z"/>
<path d="M5621 3866 c-16 -19 -7 -35 74 -142 134 -175 239 -392 385 -794 35
-96 74 -190 85 -207 22 -33 22 -33 33 61 18 145 15 179 -24 293 -156 458 -297
716 -426 781 -51 25 -110 29 -127 8z"/>
<path d="M4340 3724 c-19 -22 12 -80 100 -184 288 -340 419 -528 551 -792 66
-131 105 -225 154 -368 18 -52 44 -117 58 -144 25 -48 25 -48 30 -15 3 19 13
54 22 79 32 85 31 145 -5 240 -152 397 -363 730 -649 1023 -158 162 -226 204
-261 161z"/>
<path d="M3511 3234 c-14 -18 -21 -41 -21 -72 0 -27 -6 -52 -16 -63 -14 -16
-14 -18 8 -30 42 -22 191 -142 272 -219 91 -87 214 -230 266 -311 33 -52 38
-55 48 -38 7 10 27 25 46 33 27 11 37 23 46 54 16 52 -4 98 -97 218 -170 218
-434 454 -509 454 -13 0 -32 -12 -43 -26z"/>
</g>
</svg>
