<?xml version="1.0" standalone="no"?>
<!DOCTYPE svg PUBLIC "-//W3C//DTD SVG 20010904//EN"
 "http://www.w3.org/TR/2001/REC-SVG-20010904/DTD/svg10.dtd">
<svg version="1.0" xmlns="http://www.w3.org/2000/svg"
 width="1000.000000pt" height="1000.000000pt" viewBox="0 0 1000.000000 1000.000000"
 preserveAspectRatio="xMidYMid meet">
<metadata>
  <rdf:RDF
    xmlns:rdf = "http://www.w3.org/1999/02/22-rdf-syntax-ns#"
    xmlns:rdfs = "http://www.w3.org/2000/01/rdf-schema#"
    xmlns:dc = "http://purl.org/dc/elements/1.1/"
    xmlns:cc = "http://creativecommons.org/ns#">
    <cc:license rdf:resource="http://creativecommons.org/publicdomain/zero/1.0/deed.en"/>
    <cc:permits rdf:resource="http://creativecommons.org/ns#Reproduction"/>
    <rdf:Description about="https://nft.mir.one/fingerprints"
      dc:title="TON Fingerprints"
      dc:description="This is a unique digital fingerprint created based on the algorithm for generating basic rings using a noise texture. Like human fingerprints, you can now use it for the Web3 and Metaverse era as digital biometric information."
      dc:publisher="https://nft.mir.one"
      dc:date="2022-02-22"
      dc:format="image/svg+xml"
      dc:language="en" >
      <dc:creator>
      <rdf:Bag>
        <rdf:li>EQBondcvD2_aOFADXSWJHs4ZazQDuEl9_wNvGGPxI8hGuOFU</rdf:li>
        <rdf:li>ipfs://bafkreihj7iub3fhmhq6jn62noukt5wxn3gv6bvcg7wmt6ywvlurefezckq</rdf:li>
      </rdf:Bag>
      </dc:creator>
    </rdf:Description>
  </rdf:RDF>
</metadata>
<g transform="translate(0.000000,1000.000000) scale(0.100000,-0.100000)"
fill="#1b1f23" stroke="none">
<path d="M5393 7758 c2 -20 -2 -23 -27 -21 -15 1 -35 -4 -43 -12 -18 -19 -22
-19 -188 6 -87 12 -212 22 -330 24 -190 5 -190 5 -100 -15 152 -33 493 -90
536 -90 61 0 128 20 144 43 14 20 18 20 52 8 76 -27 346 -161 463 -230 220
-130 390 -275 455 -385 14 -23 64 -171 111 -327 104 -339 120 -407 106 -421
-33 -33 -80 37 -168 254 -89 218 -146 328 -215 414 -174 219 -569 450 -844
493 -38 6 -155 25 -258 41 -370 59 -558 60 -827 3 -69 -14 -145 -29 -170 -32
-45 -6 -45 -6 20 -18 36 -7 148 -18 249 -23 296 -17 542 -56 846 -134 235 -61
464 -160 650 -283 193 -128 278 -232 424 -521 54 -108 124 -239 154 -290 100
-169 155 -387 164 -652 4 -141 2 -179 -15 -262 -25 -121 -88 -279 -207 -523
-129 -265 -237 -422 -365 -531 -88 -75 -139 -96 -260 -105 -58 -4 -139 -14
-180 -23 -146 -31 -542 -77 -664 -78 -200 -1 -328 43 -482 166 -241 193 -363
505 -310 790 44 231 144 411 343 616 115 119 177 160 289 186 82 19 235 14
329 -11 149 -40 319 -150 416 -268 64 -78 152 -258 178 -362 11 -44 24 -120
30 -168 10 -96 21 -118 49 -101 65 41 77 158 33 326 -89 349 -283 584 -589
713 -203 85 -393 101 -622 52 -69 -14 -163 -31 -209 -37 -167 -20 -331 -128
-481 -317 -70 -87 -227 -340 -252 -407 -41 -105 -53 -194 -53 -381 0 -193 15
-289 71 -463 53 -162 178 -390 271 -493 32 -35 40 -39 83 -39 63 0 113 -19
227 -86 52 -31 111 -62 130 -70 68 -29 48 -78 -31 -77 -59 1 -130 35 -251 117
-53 36 -100 66 -105 66 -21 0 -31 -40 -20 -79 32 -122 204 -247 445 -324 150
-48 258 -67 385 -67 170 0 283 35 401 126 31 24 105 69 165 100 193 102 266
161 303 244 25 58 45 75 161 143 349 204 517 413 745 927 21 47 62 127 92 177
68 115 89 169 108 279 30 170 19 302 -50 653 -34 167 -45 247 -45 315 0 115
-18 185 -109 424 -86 224 -134 316 -217 415 -170 202 -486 417 -812 553 -51
21 -102 47 -113 57 -18 17 -19 17 -16 -5z m-1003 -1931 c0 -30 -19 -57 -111
-154 -155 -163 -217 -271 -341 -593 -32 -81 -31 -308 0 -433 71 -285 206 -460
520 -675 123 -84 183 -107 256 -98 28 4 159 11 291 16 143 5 277 15 330 25
127 24 214 25 249 2 15 -10 26 -24 24 -30 -6 -17 -76 -49 -203 -94 -121 -42
-148 -44 -498 -32 -128 4 -139 3 -153 -15 -19 -27 -18 -33 11 -60 30 -28 78
-42 204 -61 53 -7 100 -20 109 -28 58 -59 -147 -99 -308 -61 -64 15 -268 110
-302 141 -10 9 -18 25 -18 36 0 12 -10 40 -21 64 -23 47 -87 103 -244 214
-222 156 -343 350 -406 652 -19 90 -22 131 -20 351 1 241 5 276 33 276 5 0 15
-15 23 -34 31 -74 65 -46 85 69 14 88 54 172 129 272 132 179 361 337 361 250z"/>
<path d="M4082 7349 c-95 -9 -154 -25 -268 -72 -81 -33 -81 -33 -18 -45 35 -7
95 -12 133 -12 103 0 588 -47 717 -70 150 -26 215 -48 427 -141 251 -110 415
-192 461 -230 21 -18 64 -71 94 -118 62 -97 219 -307 248 -333 19 -16 36 -22
62 -19 21 2 13 74 -15 132 -15 29 -62 100 -104 155 -109 144 -117 164 -66 164
48 0 138 -78 207 -180 52 -76 73 -120 113 -235 19 -55 62 -161 95 -235 119
-269 158 -438 149 -655 -8 -194 -53 -338 -186 -605 -102 -204 -177 -314 -308
-452 -78 -82 -93 -120 -51 -131 79 -21 260 147 389 360 65 107 187 362 233
485 61 168 79 277 73 463 -9 261 -48 395 -226 766 -198 413 -244 464 -558 622
-477 239 -804 335 -1304 382 -179 16 -174 16 -297 4z"/>
<path d="M3840 7060 c-67 -14 -231 -100 -344 -179 -99 -70 -99 -70 -45 -64 30
3 90 14 134 25 150 37 854 42 1174 9 144 -15 194 3 154 57 -56 75 -222 117
-568 141 -221 16 -456 21 -505 11z"/>
<path d="M4901 6768 c-65 -32 -65 -32 -340 -40 -152 -4 -355 -15 -452 -23
-164 -15 -181 -15 -240 1 -129 34 -274 13 -377 -52 -84 -54 -190 -144 -255
-217 -56 -65 -56 -65 -5 -45 28 10 67 27 87 37 20 10 70 29 111 41 41 12 116
40 165 62 159 71 235 92 250 68 13 -21 -8 -51 -68 -97 -119 -91 -156 -132
-207 -232 -32 -63 -90 -147 -165 -241 -208 -260 -271 -364 -331 -548 -94 -288
-128 -661 -80 -887 40 -190 133 -544 173 -657 209 -602 551 -1015 1144 -1381
332 -205 604 -290 989 -312 115 -6 115 -6 15 29 -55 19 -154 51 -219 71 -198
61 -412 160 -526 244 -19 14 -75 58 -125 97 -49 40 -151 114 -225 165 -229
157 -321 229 -441 349 -234 233 -388 481 -521 835 -41 110 -155 511 -174 615
-22 117 -14 308 20 450 81 346 242 629 559 983 78 87 78 87 133 87 106 0 261
114 238 174 -15 40 -98 6 -199 -79 -35 -30 -69 -55 -75 -55 -5 0 -10 18 -10
41 0 35 7 47 51 94 63 67 136 105 200 105 26 0 98 13 161 30 156 40 268 57
471 71 375 25 554 -13 652 -142 58 -74 118 -116 213 -146 95 -30 101 -33 198
-109 176 -136 281 -301 346 -542 28 -104 31 -318 6 -375 -19 -41 -45 -58 -59
-36 -5 8 -9 37 -9 64 0 89 -29 246 -63 346 -47 137 -108 238 -203 338 -87 91
-159 142 -379 268 -285 163 -334 177 -585 177 -184 0 -291 -14 -420 -56 -90
-29 -107 -38 -223 -127 -56 -42 -149 -106 -206 -142 -111 -68 -223 -170 -302
-274 -184 -241 -293 -466 -346 -715 -28 -132 -25 -392 6 -530 131 -590 412
-1092 755 -1349 149 -112 349 -225 470 -265 47 -16 51 -16 115 6 53 18 90 22
192 23 123 1 128 2 159 29 49 40 95 61 200 89 136 36 143 40 218 109 65 61
102 90 297 228 127 90 258 197 341 277 113 110 380 402 440 483 113 151 344
686 344 795 0 58 -30 72 -68 32 -12 -12 -56 -101 -97 -197 -107 -244 -204
-430 -280 -533 -112 -151 -169 -206 -663 -641 -84 -73 -434 -306 -527 -351
-38 -19 -117 -48 -175 -66 -101 -31 -112 -33 -275 -33 -199 -1 -262 13 -431
93 -128 61 -207 114 -300 203 -88 83 -130 146 -253 375 -148 278 -215 442
-268 663 -33 140 -43 400 -19 535 58 339 305 718 594 913 241 164 445 227 737
226 133 0 174 -3 240 -22 137 -37 323 -123 445 -205 80 -54 201 -180 261 -269
64 -97 104 -193 144 -343 14 -55 38 -135 53 -177 25 -73 26 -80 13 -140 -14
-73 -39 -125 -179 -380 -109 -199 -123 -236 -98 -257 23 -19 50 -5 107 56 112
123 223 315 349 600 82 188 100 258 100 404 0 221 -72 451 -204 654 -51 78
-60 87 -127 120 -81 42 -145 101 -209 195 -75 112 -156 183 -273 240 -127 61
-302 120 -371 126 -42 3 -62 -2 -115 -28z m547 -287 c39 -20 95 -75 105 -102
3 -9 2 -22 -3 -29 -10 -16 -86 24 -150 79 -39 34 -43 40 -31 55 17 21 34 20
79 -3z"/>
<path d="M6801 6325 c-1 -114 6 -164 66 -475 48 -252 54 -401 22 -560 -17 -89
-23 -152 -24 -275 -1 -186 -12 -228 -120 -470 -34 -77 -75 -178 -90 -225 -38
-116 -89 -189 -254 -365 -78 -82 -171 -194 -208 -249 -56 -82 -84 -112 -172
-182 -130 -103 -336 -248 -450 -316 -106 -63 -131 -85 -131 -114 0 -30 27 -44
83 -44 80 0 139 26 258 113 241 176 410 282 527 328 229 91 387 217 536 430
33 46 81 115 108 152 48 68 48 68 -11 28 -33 -22 -137 -109 -233 -192 -202
-177 -268 -229 -333 -264 -51 -27 -80 -31 -90 -15 -12 19 18 50 256 275 349
330 360 342 400 420 52 100 150 408 135 423 -3 3 -6 -2 -6 -11 0 -9 -39 -93
-86 -187 -68 -134 -98 -183 -143 -230 -31 -33 -62 -60 -69 -60 -32 0 -20 40
52 185 94 187 130 316 146 523 6 75 18 201 26 279 21 216 4 337 -121 863 -30
124 -58 248 -63 275 -9 45 -10 39 -11 -60z"/>
<path d="M3385 6341 c-52 -23 -121 -100 -202 -223 -59 -89 -82 -135 -180 -348
-34 -75 -34 -75 19 -16 29 33 64 75 77 95 44 64 133 172 239 290 115 128 143
172 126 199 -15 24 -33 25 -79 3z"/>
<path d="M4804 5676 c-230 -53 -452 -298 -524 -580 -27 -105 -27 -255 -1 -358
59 -231 232 -418 456 -493 70 -24 92 -27 180 -23 87 3 106 7 146 30 53 31 80
78 59 103 -9 11 -33 15 -84 15 -260 1 -478 158 -561 403 -20 62 -26 97 -26
170 1 167 56 303 172 420 287 289 737 125 855 -313 26 -93 25 -276 0 -350 -27
-81 -82 -188 -126 -245 -34 -45 -70 -106 -70 -119 0 -2 7 -12 16 -20 37 -37
169 -6 213 50 10 13 26 53 35 89 9 36 34 111 57 167 22 55 47 129 55 164 14
62 14 65 -11 124 -14 33 -32 91 -41 128 -47 209 -107 325 -229 447 -97 98
-163 139 -279 174 -90 28 -213 35 -292 17z"/>
<path d="M4897 5360 c-144 -37 -261 -168 -285 -322 -21 -133 25 -257 140 -382
86 -94 129 -124 238 -165 46 -18 93 -39 104 -47 34 -23 52 -16 102 39 125 138
189 281 187 422 -1 143 -44 246 -143 346 -49 50 -79 71 -124 88 -69 25 -164
34 -219 21z m198 -179 c94 -43 149 -135 149 -251 0 -166 -114 -291 -255 -278
-55 6 -85 27 -75 53 3 9 30 27 60 40 104 46 158 112 159 194 1 60 -25 108 -69
129 -32 15 -38 15 -62 1 -37 -20 -41 -56 -8 -69 35 -13 33 -42 -5 -74 -60 -51
-144 -26 -169 50 -48 145 125 274 275 205z"/>
<path d="M6752 3632 c-45 -32 -119 -82 -165 -114 -45 -31 -159 -97 -252 -146
-358 -189 -556 -327 -529 -369 31 -49 97 -39 197 29 33 23 144 86 246 140 101
55 212 121 245 148 94 75 356 353 345 365 -2 2 -41 -22 -87 -53z"/>
<path d="M6610 3230 c-32 -19 -388 -188 -451 -214 -36 -15 -79 -38 -95 -51
-40 -33 -25 -59 38 -63 86 -6 273 109 493 302 39 35 44 43 15 26z"/>
<path d="M5003 2940 c-58 -18 -37 -67 46 -109 76 -39 248 -78 546 -123 270
-40 422 -25 635 66 85 35 85 35 -35 33 -124 -2 -156 4 -400 68 -50 13 -137 26
-196 29 -59 4 -144 13 -189 21 -107 19 -364 28 -407 15z"/>
<path d="M4575 2839 c-11 -16 3 -55 31 -89 75 -89 335 -216 584 -286 163 -46
401 -42 641 11 62 14 124 25 138 26 14 0 22 2 16 4 -29 9 -217 37 -340 50
-285 32 -494 86 -690 177 -71 33 -165 73 -208 89 -79 29 -160 38 -172 18z"/>
<path d="M3910 2596 c0 -2 8 -10 18 -17 15 -13 16 -12 3 4 -13 16 -21 21 -21
13z"/>
<path d="M3950 2566 c0 -2 8 -10 18 -17 15 -13 16 -12 3 4 -13 16 -21 21 -21
13z"/>
<path d="M3990 2537 c0 -2 27 -23 60 -46 33 -23 60 -40 60 -38 0 3 -21 20 -47
39 -58 41 -73 50 -73 45z"/>
</g>
</svg>
