<?xml version="1.0" standalone="no"?>
<!DOCTYPE svg PUBLIC "-//W3C//DTD SVG 20010904//EN"
 "http://www.w3.org/TR/2001/REC-SVG-20010904/DTD/svg10.dtd">
<svg version="1.0" xmlns="http://www.w3.org/2000/svg"
 width="1000.000000pt" height="1000.000000pt" viewBox="0 0 1000.000000 1000.000000"
 preserveAspectRatio="xMidYMid meet">
<metadata>
  <rdf:RDF
    xmlns:rdf = "http://www.w3.org/1999/02/22-rdf-syntax-ns#"
    xmlns:rdfs = "http://www.w3.org/2000/01/rdf-schema#"
    xmlns:dc = "http://purl.org/dc/elements/1.1/"
    xmlns:cc = "http://creativecommons.org/ns#">
    <cc:license rdf:resource="http://creativecommons.org/publicdomain/zero/1.0/deed.en"/>
    <cc:permits rdf:resource="http://creativecommons.org/ns#Reproduction"/>
    <rdf:Description about="https://nft.mir.one/fingerprints"
      dc:title="TON Fingerprints"
      dc:description="This is a unique digital fingerprint created based on the algorithm for generating basic rings using a noise texture. Like human fingerprints, you can now use it for the Web3 and Metaverse era as digital biometric information."
      dc:publisher="https://nft.mir.one"
      dc:date="2022-02-22"
      dc:format="image/svg+xml"
      dc:language="en" >
      <dc:creator>
      <rdf:Bag>
        <rdf:li>EQBondcvD2_aOFADXSWJHs4ZazQDuEl9_wNvGGPxI8hGuOFU</rdf:li>
        <rdf:li>ipfs://bafkreihj7iub3fhmhq6jn62noukt5wxn3gv6bvcg7wmt6ywvlurefezckq</rdf:li>
      </rdf:Bag>
      </dc:creator>
    </rdf:Description>
  </rdf:RDF>
</metadata>
<g transform="translate(0.000000,1000.000000) scale(0.100000,-0.100000)"
fill="#1b1f23" stroke="none">
<path d="M4809 7790 c135 -11 244 -35 531 -116 234 -66 582 -155 587 -150 5 4
-265 106 -392 148 -245 81 -440 116 -675 123 -145 4 -148 3 -51 -5z"/>
<path d="M4635 7603 c-189 -40 -611 -243 -835 -401 -107 -75 -377 -299 -295
-244 17 11 62 35 100 54 39 19 113 58 165 86 192 103 470 208 619 234 68 12
70 11 152 -22 84 -34 84 -34 259 -35 137 0 182 3 205 15 42 21 45 54 6 74 -43
23 -219 39 -336 31 -140 -9 -167 6 -105 58 38 32 108 47 218 47 123 0 212 -22
292 -70 45 -27 96 -47 156 -61 464 -110 582 -160 812 -349 183 -149 246 -228
240 -298 -4 -54 -33 -54 -116 2 -75 49 -259 146 -280 146 -7 0 -26 -10 -43
-22 -45 -34 -126 -34 -334 -2 -221 34 -487 38 -676 11 -169 -25 -209 -39 -278
-100 -34 -29 -126 -88 -208 -132 -238 -129 -365 -220 -468 -334 -22 -24 -69
-102 -105 -174 -61 -122 -67 -130 -104 -143 -102 -34 -204 -214 -263 -464 -31
-131 -42 -405 -24 -555 38 -296 133 -516 291 -675 126 -126 244 -180 630 -286
248 -68 509 -92 712 -64 40 6 123 14 184 19 127 10 174 29 271 110 121 101
265 315 316 469 37 112 50 204 51 372 1 184 -14 261 -57 293 -77 56 -154 146
-202 237 -33 63 -61 102 -82 116 -49 33 -149 48 -277 41 -140 -7 -222 -32
-320 -98 -94 -62 -156 -132 -204 -228 -35 -71 -37 -80 -37 -175 0 -118 18
-169 82 -233 52 -52 105 -76 181 -81 85 -6 161 30 203 96 40 64 46 104 23 160
-34 81 -113 115 -166 72 -45 -35 -41 -100 6 -100 41 0 42 -58 0 -74 -92 -35
-188 66 -167 176 27 144 168 226 289 168 54 -26 129 -107 157 -168 34 -73 30
-179 -8 -255 -36 -73 -98 -130 -183 -170 -60 -28 -77 -32 -158 -32 -84 0 -95
2 -166 38 -193 95 -277 312 -211 546 48 174 163 318 398 498 44 34 97 82 118
107 21 25 82 77 136 115 192 136 213 196 94 271 -135 86 -326 63 -625 -73 -90
-41 -181 -80 -203 -87 -61 -19 -103 -43 -183 -104 -80 -61 -112 -70 -112 -33
0 49 75 136 176 205 33 21 114 67 182 101 252 126 382 164 562 164 136 0 207
-15 358 -77 59 -24 159 -60 222 -81 380 -124 532 -272 614 -601 75 -297 74
-665 -3 -950 -6 -22 -35 -70 -64 -107 -39 -49 -70 -106 -112 -205 -79 -184
-268 -601 -312 -684 -111 -213 -372 -376 -694 -434 -125 -22 -360 -22 -494 0
-137 24 -293 65 -470 127 -224 77 -306 123 -264 150 28 17 91 8 241 -35 359
-104 493 -128 708 -128 392 0 678 148 885 458 139 209 414 793 455 968 78 327
33 722 -106 932 -110 168 -312 282 -482 272 -62 -3 -79 -10 -222 -88 -145 -79
-210 -125 -210 -149 0 -21 33 -41 68 -41 20 0 99 7 174 17 118 14 149 15 223
4 211 -32 346 -160 391 -373 23 -108 14 -475 -15 -610 -44 -201 -145 -441
-261 -618 -70 -106 -177 -232 -332 -391 -116 -119 -186 -161 -338 -201 -74
-20 -109 -23 -270 -22 -212 0 -257 6 -605 89 -300 72 -330 81 -368 115 -31 28
-31 29 -14 47 28 29 109 20 353 -36 391 -91 552 -111 734 -92 215 22 380 91
380 158 0 42 -36 45 -182 17 -178 -35 -396 -37 -575 -6 -184 32 -690 160 -758
192 -131 61 -252 194 -344 379 -120 238 -168 476 -158 776 7 188 27 307 77
456 58 175 123 287 242 417 102 113 136 192 88 207 -32 10 -90 -25 -171 -102
-279 -266 -431 -719 -404 -1203 22 -415 155 -750 430 -1085 45 -55 108 -140
141 -190 33 -49 74 -110 91 -135 17 -25 43 -66 57 -93 36 -64 71 -85 271 -163
371 -145 543 -190 773 -201 378 -18 788 108 1020 312 81 72 102 116 119 251
17 140 41 220 137 445 40 96 92 231 115 300 23 69 48 134 55 145 12 16 16 17
31 4 15 -12 17 -26 12 -90 -6 -92 -47 -219 -145 -450 -102 -241 -111 -288 -69
-370 27 -54 55 -61 119 -29 60 30 184 159 241 251 97 155 143 301 222 693 29
149 65 317 79 375 58 235 55 377 -16 733 -42 214 -43 218 -67 215 -57 -7 -84
-103 -70 -256 4 -48 13 -145 19 -217 14 -149 8 -285 -21 -478 -11 -73 -33
-222 -50 -332 -46 -308 -85 -447 -177 -630 -94 -187 -232 -352 -232 -277 0 10
42 104 94 210 147 300 182 429 206 747 6 77 17 185 25 240 27 186 29 415 6
667 -12 124 -21 257 -21 295 -1 179 -68 324 -200 427 -131 102 -341 175 -760
262 -148 30 -201 37 -345 41 -148 4 -184 2 -275 -17 -123 -25 -244 -71 -389
-147 -271 -141 -412 -283 -451 -453 -10 -44 -107 -346 -183 -574 -18 -52 -43
-68 -64 -41 -25 34 -9 148 62 430 87 347 120 413 281 555 142 124 491 313 659
355 120 31 294 44 455 34 147 -9 599 -74 710 -101 65 -17 117 -22 221 -22 137
-1 137 -1 195 -41 32 -22 135 -115 229 -206 93 -91 180 -171 193 -178 21 -11
26 -9 47 13 13 14 30 26 36 26 7 0 1 12 -13 28 -15 15 -66 90 -114 167 -246
394 -473 667 -689 828 -106 79 -307 181 -455 232 -143 49 -486 142 -589 160
-106 19 -305 18 -396 -2z m599 -1473 c17 -17 -16 -40 -148 -104 -219 -106
-362 -227 -527 -446 -137 -182 -199 -343 -199 -520 0 -441 432 -709 815 -507
111 59 234 204 277 325 16 44 19 74 16 130 -7 109 -54 196 -163 303 -47 46
-85 90 -85 97 0 7 11 18 25 24 37 17 119 -12 178 -63 63 -54 162 -207 187
-287 24 -76 26 -178 5 -227 -8 -20 -36 -59 -63 -88 -26 -28 -72 -82 -101 -119
-159 -203 -329 -292 -561 -291 -318 1 -541 173 -641 493 -33 105 -33 280 -1
394 50 173 100 265 264 476 150 193 233 274 334 326 161 85 346 124 388 84z
m-1496 -192 c22 -22 13 -120 -23 -253 -45 -166 -58 -270 -46 -360 57 -436 75
-519 136 -651 85 -185 235 -330 291 -283 24 20 12 65 -46 167 -107 189 -144
313 -145 487 0 120 0 120 51 230 29 61 64 142 79 180 41 102 103 224 138 269
27 34 222 186 275 215 32 17 62 14 62 -7 0 -26 -23 -56 -139 -178 -119 -124
-168 -202 -237 -373 -122 -303 -113 -472 42 -789 85 -174 140 -234 268 -297
132 -66 222 -86 396 -92 122 -4 160 -2 239 16 223 49 385 181 512 417 28 51
54 96 59 99 17 10 40 -27 40 -65 0 -119 -147 -350 -289 -454 -146 -107 -341
-154 -600 -143 -199 8 -355 48 -574 144 -45 20 -119 44 -165 54 -175 39 -287
137 -392 347 -85 172 -124 379 -124 662 0 167 2 195 27 292 21 87 110 333 133
370 7 11 18 10 32 -4z"/>
<path d="M5025 7179 c-89 -18 -131 -19 -385 -14 -192 4 -305 2 -345 -6 -154
-29 -435 -146 -568 -236 -88 -61 -184 -149 -248 -230 -65 -82 -74 -113 -34
-113 34 0 62 15 206 110 237 157 423 248 587 289 116 29 176 33 302 21 93 -9
166 -8 387 6 368 24 456 15 828 -85 61 -16 114 -26 119 -21 4 4 5 22 1 38 -21
97 -231 199 -504 246 -120 20 -220 19 -346 -5z"/>
<path d="M4298 6871 c-139 -38 -272 -101 -488 -231 -171 -103 -218 -127 -325
-169 -88 -34 -120 -61 -199 -170 -147 -202 -264 -487 -331 -803 -31 -148 -32
-192 -1 -73 27 101 109 311 166 426 98 194 257 384 375 446 33 17 90 39 128
47 76 18 75 17 247 137 159 111 295 186 467 261 143 61 173 80 173 108 0 41
-99 51 -212 21z"/>
<path d="M6849 6044 c-24 -29 0 -57 95 -114 38 -23 38 -23 2 24 -20 26 -36 58
-36 71 0 27 -43 40 -61 19z"/>
<path d="M6758 5915 c-10 -22 -9 -31 6 -53 73 -112 167 -364 187 -501 21 -150
0 -359 -46 -451 -36 -73 -62 -163 -105 -373 -67 -320 -123 -534 -164 -619 -41
-86 -131 -212 -197 -275 -24 -23 -80 -66 -124 -95 -62 -42 -81 -60 -83 -81 -3
-22 2 -28 24 -33 71 -18 190 44 309 161 132 131 224 299 244 450 6 44 29 154
51 245 22 91 53 246 70 345 32 189 46 227 79 218 30 -8 46 -59 44 -149 -2
-117 -27 -234 -94 -441 -36 -111 -59 -197 -57 -216 3 -30 4 -29 26 28 68 174
128 442 138 620 5 82 3 108 -11 145 -15 37 -19 92 -25 310 -7 241 -10 274 -34
369 -31 120 -101 293 -148 366 -39 60 -71 70 -90 30z"/>
<path d="M5653 5549 c-21 -22 -15 -44 30 -105 24 -33 59 -84 78 -114 20 -30
44 -62 53 -70 16 -13 20 -12 37 9 61 74 -43 265 -156 287 -18 3 -35 0 -42 -7z"/>
<path d="M2922 5305 c0 -16 2 -22 5 -12 2 9 2 23 0 30 -3 6 -5 -1 -5 -18z"/>
<path d="M2912 5230 c0 -14 2 -19 5 -12 2 6 2 18 0 25 -3 6 -5 1 -5 -13z"/>
<path d="M2902 5110 c0 -19 2 -27 5 -17 2 9 2 25 0 35 -3 9 -5 1 -5 -18z"/>
<path d="M2902 4865 c0 -16 2 -22 5 -12 2 9 2 23 0 30 -3 6 -5 -1 -5 -18z"/>
<path d="M2912 4750 c0 -14 2 -19 5 -12 2 6 2 18 0 25 -3 6 -5 1 -5 -13z"/>
<path d="M2922 4675 c0 -16 2 -22 5 -12 2 9 2 23 0 30 -3 6 -5 -1 -5 -18z"/>
<path d="M2930 4623 c0 -36 48 -255 85 -382 90 -315 226 -605 411 -882 64 -96
152 -226 194 -289 103 -154 156 -200 233 -200 72 0 164 -65 208 -147 28 -52
258 -154 467 -208 373 -95 737 -98 1070 -10 195 52 415 157 588 281 72 51 259
198 293 230 23 21 -102 -31 -299 -126 -393 -188 -663 -258 -1036 -267 -280 -7
-482 18 -703 89 -131 42 -229 93 -347 181 -108 81 -264 235 -264 261 0 32 38
15 191 -85 219 -143 327 -196 502 -243 138 -38 266 -56 432 -63 402 -16 756
76 1290 332 224 108 378 258 570 554 67 104 67 104 -47 -13 -212 -220 -321
-291 -512 -332 -149 -31 -153 -33 -376 -139 -297 -143 -496 -202 -755 -226
-248 -22 -509 10 -743 92 -48 17 -157 64 -242 104 -189 89 -223 99 -282 84
-24 -7 -56 -9 -71 -5 -66 16 -222 199 -429 506 -127 189 -208 331 -266 470
-24 58 -59 141 -77 185 -19 44 -45 123 -59 175 -14 52 -25 85 -26 73z m889
-1592 c48 -65 59 -90 45 -104 -19 -18 -109 61 -125 110 -11 33 -1 63 21 63 5
0 31 -31 59 -69z"/>
<path d="M3850 2770 c0 -15 86 -68 122 -75 44 -10 56 8 21 33 -58 41 -143 66
-143 42z"/>
<path d="M4031 2506 c2 -2 63 -29 134 -61 349 -154 642 -214 984 -202 131 5
405 37 417 50 1 1 -133 3 -297 4 -326 3 -474 16 -669 59 -105 24 -391 100
-515 138 -52 17 -61 18 -54 12z"/>
<path d="M5598 2303 c7 -3 16 -2 19 1 4 3 -2 6 -13 5 -11 0 -14 -3 -6 -6z"/>
</g>
</svg>
