<?xml version="1.0" standalone="no"?>
<!DOCTYPE svg PUBLIC "-//W3C//DTD SVG 20010904//EN"
 "http://www.w3.org/TR/2001/REC-SVG-20010904/DTD/svg10.dtd">
<svg version="1.0" xmlns="http://www.w3.org/2000/svg"
 width="1000.000000pt" height="1000.000000pt" viewBox="0 0 1000.000000 1000.000000"
 preserveAspectRatio="xMidYMid meet">
<metadata>
  <rdf:RDF
    xmlns:rdf = "http://www.w3.org/1999/02/22-rdf-syntax-ns#"
    xmlns:rdfs = "http://www.w3.org/2000/01/rdf-schema#"
    xmlns:dc = "http://purl.org/dc/elements/1.1/"
    xmlns:cc = "http://creativecommons.org/ns#">
    <cc:license rdf:resource="http://creativecommons.org/publicdomain/zero/1.0/deed.en"/>
    <cc:permits rdf:resource="http://creativecommons.org/ns#Reproduction"/>
    <rdf:Description about="https://nft.mir.one/fingerprints"
      dc:title="TON Fingerprints"
      dc:description="This is a unique digital fingerprint created based on the algorithm for generating basic rings using a noise texture. Like human fingerprints, you can now use it for the Web3 and Metaverse era as digital biometric information."
      dc:publisher="https://nft.mir.one"
      dc:date="2022-02-22"
      dc:format="image/svg+xml"
      dc:language="en" >
      <dc:creator>
      <rdf:Bag>
        <rdf:li>EQBondcvD2_aOFADXSWJHs4ZazQDuEl9_wNvGGPxI8hGuOFU</rdf:li>
        <rdf:li>ipfs://bafkreihj7iub3fhmhq6jn62noukt5wxn3gv6bvcg7wmt6ywvlurefezckq</rdf:li>
      </rdf:Bag>
      </dc:creator>
    </rdf:Description>
  </rdf:RDF>
</metadata>
<g transform="translate(0.000000,1000.000000) scale(0.100000,-0.100000)"
fill="#1b1f23" stroke="none">
<path d="M4553 7705 c39 -30 85 -48 240 -95 245 -75 279 -89 330 -146 50 -55
102 -83 165 -90 54 -6 90 12 79 40 -4 10 -48 36 -97 59 -74 34 -90 46 -88 62
2 15 12 21 38 23 74 7 148 -34 196 -109 20 -32 49 -50 216 -133 372 -183 636
-387 966 -745 63 -69 149 -157 190 -195 73 -69 73 -69 1 35 -40 57 -109 155
-153 218 -211 301 -468 547 -758 727 -149 92 -456 251 -538 277 -83 28 -446
82 -605 92 -55 3 -129 8 -165 11 -65 6 -65 6 -17 -31z"/>
<path d="M4148 7533 c6 -2 18 -2 25 0 6 3 1 5 -13 5 -14 0 -19 -2 -12 -5z"/>
<path d="M4365 7455 c-33 -8 -84 -23 -113 -34 -35 -14 -75 -21 -121 -21 -51 0
-98 -9 -178 -34 -59 -18 -117 -36 -128 -39 -22 -7 172 0 278 9 58 6 67 4 67
-10 0 -29 -48 -63 -128 -92 -158 -56 -300 -117 -400 -172 -103 -57 -103 -57
-57 -60 65 -4 415 71 555 120 272 94 257 90 395 95 164 6 256 -8 587 -87 506
-122 718 -220 879 -405 31 -36 139 -131 238 -211 283 -227 446 -399 514 -543
24 -50 28 -69 21 -89 -5 -14 -14 -27 -20 -29 -7 -2 -43 36 -80 84 -98 125
-194 223 -309 316 -210 169 -359 249 -495 267 -47 6 -159 33 -250 60 -223 66
-272 74 -379 60 -80 -11 -98 -9 -266 20 -363 64 -649 52 -1156 -50 -358 -72
-406 -93 -589 -251 -52 -45 -96 -82 -97 -83 -16 -12 99 14 192 44 291 93 623
158 975 190 356 32 649 -11 835 -121 142 -84 256 -143 480 -248 248 -117 272
-126 354 -137 106 -13 200 -56 349 -157 78 -54 101 -82 83 -100 -19 -19 -92 8
-233 85 -107 59 -139 72 -177 72 -36 1 -46 -3 -49 -17 -6 -28 73 -98 185 -163
143 -84 222 -113 311 -114 63 0 151 -16 285 -51 87 -23 139 -97 241 -345 40
-98 86 -206 100 -239 27 -60 27 -60 21 -15 -4 25 -20 106 -36 180 -16 74 -33
170 -39 214 -5 43 -30 148 -54 235 -24 86 -56 208 -71 271 -46 201 -160 402
-324 574 -80 83 -372 351 -496 455 -112 93 -221 164 -350 229 -139 69 -228
100 -386 132 -90 18 -182 46 -275 83 -155 61 -296 99 -449 122 -120 18 -161
18 -240 0z m995 -934 c36 -10 186 -60 335 -111 415 -142 570 -229 800 -450 73
-70 154 -140 181 -155 62 -36 83 -62 84 -103 0 -62 -29 -55 -176 39 -35 22
-82 66 -112 103 -61 77 -195 180 -312 241 -48 24 -228 100 -401 168 -174 69
-352 143 -396 166 -83 41 -126 81 -116 107 7 19 35 18 113 -5z"/>
<path d="M4428 7039 c-38 -5 -139 -25 -225 -45 -87 -20 -238 -53 -335 -74 -98
-22 -197 -48 -220 -58 -65 -28 -171 -96 -265 -168 -84 -64 -84 -64 -49 -64 19
0 88 15 153 34 219 63 588 139 828 170 148 20 406 20 545 1 58 -7 193 -26 300
-40 238 -32 357 -59 520 -120 69 -26 145 -47 170 -48 42 -2 45 0 48 26 4 37
-41 79 -145 134 -184 97 -443 168 -873 238 -117 19 -362 27 -452 14z"/>
<path d="M4260 6359 c-250 -23 -404 -44 -560 -75 -152 -30 -358 -88 -414 -116
-23 -11 -93 -73 -158 -138 -116 -117 -116 -117 -75 -107 23 5 80 26 127 45
332 137 655 196 1098 202 82 1 115 6 167 25 162 61 383 16 700 -142 255 -128
390 -209 585 -353 58 -43 152 -104 210 -135 161 -87 249 -161 365 -305 166
-205 280 -438 325 -663 23 -110 51 -157 97 -157 34 0 38 35 19 167 -36 250
-122 443 -309 693 -136 182 -162 208 -287 288 -170 109 -207 136 -295 221
-107 103 -166 141 -470 300 -519 273 -627 297 -1125 250z"/>
<path d="M4471 6103 c-20 -17 -21 -19 -6 -41 20 -28 71 -54 181 -93 199 -70
307 -129 729 -398 200 -127 215 -142 657 -670 150 -178 182 -208 205 -189 45
37 -44 185 -269 449 -82 97 -140 174 -155 209 -13 30 -30 69 -38 87 -39 89
-407 340 -751 511 -244 122 -494 183 -553 135z"/>
<path d="M3840 6008 c-206 -19 -445 -81 -597 -154 -76 -36 -120 -78 -201 -194
-25 -36 -59 -80 -76 -97 -30 -33 -30 -33 5 -33 18 0 79 16 135 36 96 34 101
37 120 77 24 52 77 90 173 122 219 74 540 104 766 70 220 -33 745 -215 745
-258 0 -54 -90 -47 -345 26 -232 67 -347 92 -490 108 -239 26 -645 -23 -792
-94 -64 -31 -56 -55 26 -77 34 -9 83 -8 235 6 135 12 245 15 376 11 211 -6
312 -22 605 -97 215 -55 350 -82 544 -110 150 -22 220 -49 325 -124 91 -66
237 -204 381 -361 71 -77 269 -279 440 -450 276 -274 316 -318 348 -381 64
-125 79 -209 83 -449 1 -115 3 -235 4 -265 2 -55 2 -55 31 35 51 157 97 345
129 520 53 291 84 395 119 395 22 0 72 39 100 79 19 27 19 27 -42 -3 -34 -16
-68 -38 -77 -48 -14 -18 -18 -18 -45 -5 -17 9 -65 21 -109 27 -101 15 -140 29
-254 92 -63 35 -123 79 -181 134 -60 56 -107 91 -151 111 -72 33 -94 54 -349
341 -274 308 -378 392 -636 519 -121 59 -149 77 -210 138 -38 39 -95 85 -125
102 -54 31 -394 174 -520 218 -120 43 -276 54 -490 33z"/>
<path d="M6440 5505 c-18 -22 -4 -49 62 -121 125 -136 192 -240 252 -391 59
-147 77 -232 85 -400 8 -150 16 -183 46 -183 33 0 65 136 65 280 0 218 -68
440 -188 617 -52 77 -122 140 -202 181 -69 35 -101 40 -120 17z"/>
<path d="M5867 5463 c-18 -17 -1 -49 61 -115 252 -271 334 -384 412 -575 62
-152 131 -243 185 -243 46 0 39 44 -33 206 -99 223 -170 342 -289 486 -136
164 -298 280 -336 241z"/>
<path d="M3665 5434 c-11 -2 -128 -8 -260 -14 -132 -5 -256 -14 -276 -20 -41
-12 -104 -72 -173 -166 -44 -62 -44 -62 -3 -57 23 3 76 16 118 28 302 93 835
104 1193 24 475 -105 636 -193 1081 -589 262 -234 333 -284 444 -311 97 -24
316 -293 402 -494 64 -149 85 -344 44 -414 -48 -81 -75 -65 -100 57 -68 345
-226 588 -514 791 -118 84 -224 171 -398 328 -182 165 -304 253 -453 328 -144
73 -493 175 -721 212 -147 24 -503 24 -657 0 -138 -22 -282 -58 -316 -81 -29
-18 -85 -88 -133 -165 -32 -52 -32 -52 5 -45 20 3 75 21 122 40 206 81 407
116 655 116 254 0 318 -14 903 -188 178 -53 374 -178 484 -308 72 -85 87 -100
250 -227 344 -269 431 -380 593 -755 29 -67 74 -152 101 -190 49 -69 49 -69
48 -194 -1 -138 -20 -239 -80 -411 -32 -94 -68 -238 -54 -222 40 47 202 281
249 360 190 320 248 502 238 738 -11 259 -86 412 -342 700 -54 61 -135 160
-180 220 -213 284 -549 601 -722 682 -67 31 -117 29 -121 -6 -5 -29 27 -63
133 -144 184 -141 498 -440 558 -532 34 -53 42 -88 24 -104 -17 -14 -35 1
-314 260 -92 86 -226 205 -298 264 -71 59 -159 137 -195 174 -95 97 -188 136
-518 220 -204 52 -348 78 -497 91 -113 9 -276 11 -320 4z"/>
<path d="M3570 4874 c-114 -13 -240 -41 -348 -76 -142 -45 -168 -66 -227 -181
-21 -40 -44 -80 -52 -89 -14 -15 -12 -16 29 -3 23 7 86 33 138 58 213 100 393
141 625 141 234 1 341 -29 425 -120 23 -25 79 -68 125 -95 102 -60 312 -214
378 -278 55 -52 78 -91 102 -174 18 -62 13 -97 -14 -97 -9 0 -50 38 -90 85
-119 142 -309 266 -459 301 -54 13 -99 15 -237 9 -295 -11 -465 -46 -641 -130
-116 -56 -151 -86 -182 -155 -24 -54 -63 -180 -56 -180 10 0 54 30 131 87 149
112 339 188 530 214 49 6 148 9 227 7 125 -4 152 -8 235 -37 105 -35 206 -92
333 -185 46 -34 112 -78 147 -96 80 -43 131 -109 206 -265 78 -164 124 -321
125 -428 0 -68 -31 -136 -62 -137 -14 0 -35 55 -58 150 -60 250 -166 452 -297
570 -68 60 -236 176 -310 214 -226 113 -514 121 -773 19 -84 -33 -191 -95
-228 -133 -34 -33 -68 -125 -78 -210 -4 -30 -11 -66 -16 -79 -8 -22 -7 -22 24
6 18 17 69 66 114 109 121 118 234 177 402 210 257 49 523 -40 732 -246 113
-111 169 -209 255 -441 24 -64 65 -160 93 -212 35 -66 53 -114 57 -152 16
-127 -38 -358 -115 -489 -22 -37 -40 -74 -40 -80 0 -6 -8 -28 -19 -48 -18 -37
-18 -37 3 -23 12 7 56 28 99 45 89 35 169 83 211 128 27 29 34 56 94 339 106
511 100 598 -69 972 -40 86 -86 197 -104 246 -18 50 -45 115 -59 145 -14 30
-26 60 -26 67 0 42 109 4 173 -61 31 -31 34 -38 33 -92 -1 -55 5 -71 91 -239
145 -287 184 -421 184 -642 0 -137 -16 -244 -66 -443 -19 -74 -37 -159 -41
-187 -7 -57 7 -107 33 -118 21 -7 93 72 132 145 37 69 94 236 117 345 23 109
23 331 0 440 -53 248 -174 485 -337 659 -76 81 -83 106 -29 106 141 0 397
-335 494 -648 93 -297 69 -585 -69 -867 -53 -108 -100 -167 -178 -226 -32 -24
-76 -65 -98 -91 -40 -47 -40 -47 73 14 151 81 217 129 315 231 103 108 144
170 176 273 38 120 50 197 50 324 0 130 -11 182 -78 361 -94 252 -197 421
-350 574 -167 168 -315 254 -479 280 -127 20 -190 43 -282 100 -147 92 -213
159 -198 200 10 25 42 13 194 -70 248 -136 298 -153 324 -113 8 13 6 24 -10
45 -34 46 -142 121 -253 176 -104 52 -104 52 -225 58 -112 5 -127 8 -206 43
-244 108 -355 135 -575 140 -88 3 -176 2 -195 0z"/>
<path d="M3605 4599 c-110 -15 -258 -56 -366 -101 -133 -55 -160 -87 -236
-284 -7 -20 50 1 105 38 24 17 94 54 157 84 186 90 401 134 654 134 118 0 176
12 190 39 15 27 -22 57 -94 76 -73 20 -311 28 -410 14z"/>
<path d="M3730 3774 c-155 -33 -326 -152 -350 -244 -14 -52 -15 -202 -1 -275
5 -27 9 -42 10 -33 0 9 21 60 45 112 90 193 239 296 424 296 137 -1 236 -42
332 -139 83 -84 112 -145 150 -314 32 -141 31 -167 -7 -209 -19 -21 -53 -24
-54 -5 0 6 -1 37 -2 67 -3 81 -24 80 -106 -8 -55 -59 -75 -73 -120 -86 -69
-20 -104 -20 -171 0 -61 18 -124 72 -114 98 3 9 26 21 51 28 37 9 48 17 59 44
17 41 18 96 2 112 -17 17 -45 15 -52 -3 -8 -23 -63 -19 -76 5 -28 52 32 120
107 120 39 0 50 -5 84 -39 35 -34 39 -44 39 -87 0 -34 -7 -61 -25 -89 -42 -68
-29 -94 40 -81 44 9 88 46 122 103 70 119 -3 276 -154 333 -128 48 -273 5
-354 -104 -62 -84 -58 -163 13 -306 56 -112 137 -198 229 -244 112 -56 156
-62 332 -44 137 14 160 20 227 52 80 39 99 43 118 24 18 -18 15 -37 -18 -106
-50 -105 -145 -235 -222 -301 -71 -62 -71 -62 18 -56 191 15 281 50 319 125
64 126 71 250 20 350 -18 36 -34 94 -47 170 -22 129 -64 266 -109 349 -158
298 -459 450 -759 385z"/>
<path d="M4145 2658 c-33 -5 -109 -14 -170 -21 -110 -13 -110 -13 -3 -40 114
-29 195 -34 247 -16 39 14 55 40 38 61 -17 22 -43 25 -112 16z"/>
</g>
</svg>
