<?xml version="1.0" standalone="no"?>
<!DOCTYPE svg PUBLIC "-//W3C//DTD SVG 20010904//EN"
 "http://www.w3.org/TR/2001/REC-SVG-20010904/DTD/svg10.dtd">
<svg version="1.0" xmlns="http://www.w3.org/2000/svg"
 width="1000.000000pt" height="1000.000000pt" viewBox="0 0 1000.000000 1000.000000"
 preserveAspectRatio="xMidYMid meet">
<metadata>
  <rdf:RDF
    xmlns:rdf = "http://www.w3.org/1999/02/22-rdf-syntax-ns#"
    xmlns:rdfs = "http://www.w3.org/2000/01/rdf-schema#"
    xmlns:dc = "http://purl.org/dc/elements/1.1/"
    xmlns:cc = "http://creativecommons.org/ns#">
    <cc:license rdf:resource="http://creativecommons.org/publicdomain/zero/1.0/deed.en"/>
    <cc:permits rdf:resource="http://creativecommons.org/ns#Reproduction"/>
    <rdf:Description about="https://nft.mir.one/fingerprints"
      dc:title="TON Fingerprints"
      dc:description="This is a unique digital fingerprint created based on the algorithm for generating basic rings using a noise texture. Like human fingerprints, you can now use it for the Web3 and Metaverse era as digital biometric information."
      dc:publisher="https://nft.mir.one"
      dc:date="2022-02-22"
      dc:format="image/svg+xml"
      dc:language="en" >
      <dc:creator>
      <rdf:Bag>
        <rdf:li>EQBondcvD2_aOFADXSWJHs4ZazQDuEl9_wNvGGPxI8hGuOFU</rdf:li>
        <rdf:li>ipfs://bafkreihj7iub3fhmhq6jn62noukt5wxn3gv6bvcg7wmt6ywvlurefezckq</rdf:li>
      </rdf:Bag>
      </dc:creator>
    </rdf:Description>
  </rdf:RDF>
</metadata>
<g transform="translate(0.000000,1000.000000) scale(0.100000,-0.100000)"
fill="#1b1f23" stroke="none">
<path d="M5360 7715 c376 -350 520 -526 645 -787 58 -121 105 -252 105 -290 0
-13 -7 -34 -16 -46 -21 -30 -39 -19 -112 72 -50 63 -62 85 -77 147 -34 146
-124 288 -324 513 -149 168 -245 245 -395 317 -85 41 -174 57 -183 33 -2 -6
36 -44 84 -85 206 -171 465 -445 630 -664 77 -102 96 -138 80 -154 -36 -36
-111 21 -269 203 -73 83 -218 239 -323 346 -105 107 -211 224 -236 260 -55 80
-91 101 -236 139 -60 15 -119 32 -132 36 -21 6 -21 5 7 -34 16 -23 52 -59 78
-81 74 -61 520 -526 662 -690 69 -80 181 -201 247 -270 129 -132 147 -158 166
-236 6 -27 45 -121 86 -208 96 -203 137 -311 169 -439 22 -88 25 -121 23 -237
-6 -305 16 -484 91 -730 22 -74 51 -187 65 -251 38 -179 50 -198 94 -143 49
63 51 182 6 553 -13 113 -34 307 -45 431 -24 261 -55 428 -110 593 -55 164
-125 295 -210 392 -38 44 -70 85 -70 91 0 6 7 17 15 24 23 19 181 -8 216 -37
30 -26 101 -158 147 -274 130 -328 214 -875 216 -1414 1 -231 0 -246 -31 -405
-18 -91 -44 -277 -57 -415 -41 -410 -63 -498 -172 -710 -36 -70 -93 -189 -126
-264 -32 -75 -101 -224 -152 -331 -51 -107 -103 -217 -115 -245 -22 -50 -22
-50 5 -17 14 18 62 75 105 125 108 125 213 283 306 462 77 148 108 188 197
259 76 59 91 119 106 401 6 110 28 353 50 540 51 434 59 523 66 730 17 443
-76 965 -283 1600 -136 415 -263 636 -494 861 -157 152 -289 248 -504 364 -80
44 -80 44 5 -35z"/>
<path d="M4215 7535 c-38 -7 -95 -14 -125 -15 -55 0 -55 0 -15 -20 22 -11 47
-24 55 -29 8 -5 49 -26 91 -45 42 -20 99 -53 127 -75 49 -39 49 -39 44 -89 -8
-91 11 -116 338 -442 163 -162 310 -312 325 -334 27 -36 28 -39 11 -51 -40
-29 -110 12 -269 159 -285 261 -509 455 -530 457 -7 1 -36 0 -65 -1 -29 -1
-82 4 -117 11 -52 10 -67 10 -79 -1 -41 -33 -6 -72 139 -155 143 -82 225 -143
451 -336 109 -94 256 -216 326 -270 81 -63 152 -129 196 -182 189 -224 453
-711 481 -885 10 -63 5 -112 -20 -204 -15 -56 3 -157 51 -298 64 -188 102
-421 102 -635 0 -106 -5 -144 -46 -330 -56 -249 -83 -352 -135 -506 -102 -304
-283 -669 -374 -757 -30 -29 -35 -31 -47 -17 -23 28 -4 97 70 255 180 385 288
712 319 970 7 52 14 114 17 138 4 30 12 47 29 58 23 15 38 44 49 96 8 35 -40
478 -59 543 -20 72 -38 90 -82 86 -7 0 -20 -16 -30 -33 -15 -28 -18 -69 -21
-263 -3 -203 -6 -232 -22 -250 -38 -43 -44 -69 -51 -240 -13 -318 -90 -601
-289 -1060 -28 -66 -72 -174 -96 -239 -24 -65 -61 -151 -82 -190 -22 -39 -42
-84 -46 -101 -4 -16 -10 -39 -13 -50 -5 -19 -5 -19 13 -3 11 9 53 35 95 57 42
22 98 53 125 69 27 15 82 41 123 57 89 35 149 87 221 191 112 162 271 511 363
799 130 406 160 699 103 1017 -37 210 -33 315 12 333 9 3 21 0 27 -7 7 -7 39
-116 71 -243 59 -230 59 -230 58 -405 -1 -301 -54 -529 -216 -935 -124 -310
-272 -584 -407 -749 -72 -89 -145 -201 -110 -170 13 12 69 53 124 91 63 44
141 113 207 182 96 100 113 123 171 238 139 275 311 691 350 848 51 202 85
540 72 703 -7 79 -9 85 -42 115 -41 38 -57 67 -108 207 -34 92 -46 112 -92
156 -29 28 -59 67 -67 86 -8 19 -29 110 -46 203 -43 227 -59 274 -130 385 -34
52 -106 183 -160 290 -115 227 -207 383 -332 562 -83 119 -91 133 -98 193 -10
81 -37 138 -110 229 -120 151 -435 458 -562 549 -32 23 -58 46 -58 53 0 7 15
17 33 23 85 28 193 -43 443 -293 191 -191 284 -307 379 -471 32 -55 98 -166
146 -246 117 -195 213 -380 298 -576 81 -188 107 -231 140 -240 33 -8 61 27
61 77 0 57 -42 212 -95 345 -69 175 -245 516 -321 622 -189 263 -393 497 -639
731 -158 150 -256 224 -330 247 -71 22 -235 27 -320 10z m1287 -3505 c9 -19
20 -55 24 -78 7 -42 6 -44 -17 -40 -28 4 -55 51 -65 116 -7 42 -6 44 17 40 16
-2 30 -15 41 -38z"/>
<path d="M6083 7398 c14 -18 52 -80 84 -138 33 -58 98 -168 145 -245 171 -281
204 -367 294 -765 175 -769 187 -844 188 -1105 0 -149 -6 -236 -27 -400 -14
-115 -36 -313 -47 -440 -12 -126 -30 -287 -40 -357 -11 -70 -20 -157 -20 -195
0 -106 25 -242 53 -294 24 -47 24 -47 31 40 4 47 11 140 15 206 7 98 14 134
39 196 36 89 52 191 82 508 12 123 32 282 45 352 78 410 53 646 -145 1382 -95
353 -117 421 -177 542 -76 151 -251 401 -451 643 -82 99 -118 136 -69 70z"/>
<path d="M3975 7299 c-38 -4 -88 -12 -110 -18 -22 -6 -60 -11 -85 -11 -38 -1
-42 -2 -25 -12 11 -6 29 -19 40 -29 30 -27 96 -47 193 -59 48 -6 124 -24 169
-40 68 -23 84 -26 93 -15 28 33 -23 121 -93 163 -40 24 -91 30 -182 21z"/>
<path d="M3615 7005 c-27 -8 -62 -14 -78 -15 -27 0 -27 0 10 -34 21 -18 61
-45 88 -59 151 -76 597 -397 820 -591 384 -333 517 -498 754 -940 111 -206
146 -260 188 -288 53 -34 83 -15 83 55 0 110 -195 501 -382 764 -83 117 -216
253 -428 437 -231 201 -371 313 -543 432 -78 54 -164 119 -192 144 -124 113
-118 110 -198 109 -40 0 -94 -7 -122 -14z"/>
<path d="M3423 6727 c-39 -12 -74 -25 -77 -28 -12 -11 42 -48 155 -107 541
-279 1065 -741 1278 -1125 113 -204 260 -565 292 -717 20 -93 23 -134 23 -355
-1 -345 -38 -660 -120 -992 -116 -475 -271 -748 -521 -921 -89 -61 -176 -141
-139 -128 11 4 85 13 165 22 191 19 233 38 290 129 109 171 233 441 304 660
84 256 116 403 142 635 9 80 25 202 36 272 10 69 24 208 29 307 6 100 14 211
20 249 14 100 12 163 -8 229 -22 69 -284 578 -367 713 -100 160 -203 289 -355
441 -248 248 -555 487 -866 674 -125 75 -156 80 -281 42z"/>
<path d="M3264 6427 c-80 -32 -80 -32 -51 -57 17 -13 84 -50 149 -82 335 -162
646 -384 889 -635 141 -146 245 -278 290 -370 37 -73 35 -97 -5 -101 -26 -3
-41 9 -130 104 -342 365 -462 473 -696 629 -69 46 -188 117 -266 159 -169 91
-185 93 -297 39 -78 -38 -78 -38 -48 -74 22 -26 56 -47 118 -74 375 -161 585
-307 913 -636 123 -123 244 -234 302 -277 131 -96 199 -190 258 -350 114 -314
103 -781 -30 -1237 -18 -61 -31 -123 -30 -140 10 -141 6 -179 -31 -255 -70
-144 -146 -220 -222 -220 -38 0 -47 -7 -176 -132 -75 -73 -148 -149 -162 -168
-26 -36 -26 -36 20 -28 262 42 260 41 367 129 134 109 216 207 278 331 61 121
76 173 145 496 77 360 108 635 98 882 -10 243 -35 351 -142 630 -35 91 -78
210 -94 265 -57 188 -156 330 -396 570 -241 241 -489 425 -787 585 -115 61
-148 63 -264 17z"/>
<path d="M3105 5760 c-27 -17 -69 -46 -93 -65 -43 -34 -43 -34 -5 -53 21 -11
55 -22 76 -26 112 -20 303 -103 433 -188 215 -140 403 -340 490 -523 26 -56
37 -98 53 -213 18 -125 26 -156 63 -235 42 -90 43 -94 43 -197 -1 -100 -3
-112 -52 -255 -58 -167 -270 -613 -330 -692 -20 -26 -74 -92 -121 -146 -46
-54 -94 -117 -106 -140 -21 -42 -21 -42 62 -45 152 -4 163 2 308 195 76 100
90 114 127 124 52 14 82 38 124 97 61 85 81 202 34 202 -26 0 -48 -28 -117
-149 -44 -75 -67 -106 -80 -106 -15 0 -20 9 -22 40 -4 57 63 190 121 239 89
77 95 86 126 171 53 147 75 272 74 430 0 148 0 146 -73 391 -35 116 -35 164
-2 164 65 -1 158 -181 197 -383 19 -102 19 -315 0 -437 -29 -176 -95 -462
-119 -516 -32 -69 -72 -128 -166 -239 -41 -49 -107 -130 -145 -180 -39 -49
-99 -121 -136 -160 -36 -38 -74 -86 -85 -105 -21 -35 -21 -35 60 -29 95 7 141
16 176 34 38 20 111 117 175 235 52 95 107 179 245 375 63 89 103 199 140 384
58 289 60 539 6 752 -47 188 -111 290 -258 409 -50 42 -160 149 -242 239 -239
261 -418 407 -636 520 -124 64 -240 111 -274 111 -11 0 -43 -14 -71 -30z"/>
<path d="M3035 5420 c-27 -17 -64 -41 -81 -53 -31 -23 -31 -23 0 -42 17 -10
86 -40 153 -66 309 -120 455 -235 552 -434 65 -133 70 -173 70 -574 0 -389 -2
-408 -65 -636 -20 -71 -36 -145 -36 -164 0 -89 85 -43 148 81 67 132 142 361
159 489 6 39 2 54 -26 108 -29 56 -33 71 -33 144 0 45 8 127 18 182 19 108 16
183 -10 289 -69 272 -330 536 -658 666 -113 46 -132 46 -191 10z"/>
<path d="M3006 5058 c-106 -71 -102 -50 -29 -161 43 -64 113 -147 206 -243
138 -143 177 -174 215 -174 19 0 34 -26 46 -81 7 -33 -15 -54 -48 -45 -32 8
-126 72 -213 145 -90 77 -114 82 -188 45 -65 -33 -73 -18 90 -150 104 -84 211
-189 241 -236 55 -86 68 -150 68 -323 0 -109 -6 -184 -17 -235 -16 -73 -57
-270 -57 -273 0 -3 63 -6 130 -7 51 0 68 4 84 19 18 18 18 25 7 93 -12 75 -11
82 24 313 17 116 19 271 5 411 -9 85 -7 114 10 208 25 138 25 202 0 300 -32
128 -106 238 -208 316 -55 40 -97 58 -202 85 -114 28 -111 29 -164 -7z m244
-144 c140 -111 243 -313 201 -393 -19 -35 -34 -23 -73 57 -20 42 -72 122 -114
177 -81 107 -107 154 -98 179 10 25 35 19 84 -20z"/>
<path d="M7054 4715 c-9 -13 -20 -42 -25 -62 -9 -39 -13 -330 -4 -322 2 3 9
79 16 169 6 91 17 182 24 203 15 43 12 47 -11 12z"/>
<path d="M4001 4406 c-6 -8 -16 -29 -21 -48 -12 -39 -15 -185 -5 -211 13 -32
48 -16 73 33 38 77 26 229 -19 238 -9 1 -21 -4 -28 -12z"/>
<path d="M3090 4050 c-13 -24 -28 -25 -51 -4 -14 13 -13 6 6 -43 14 -32 27
-77 31 -100 7 -48 11 -51 29 -26 12 17 14 17 34 -1 21 -19 22 -19 49 1 44 33
42 108 -4 163 -31 36 -77 41 -94 10z"/>
<path d="M6873 3790 c0 -41 2 -58 4 -37 2 20 2 54 0 75 -2 20 -4 3 -4 -38z"/>
<path d="M4512 3280 c-68 -42 -202 -270 -202 -345 0 -24 4 -47 10 -50 43 -27
232 249 247 361 6 50 -11 61 -55 34z"/>
<path d="M6573 3155 c0 -22 2 -30 4 -17 2 12 2 30 0 40 -3 9 -5 -1 -4 -23z"/>
<path d="M6413 3158 c-17 -21 -44 -78 -65 -137 -18 -51 -69 -244 -65 -247 8
-6 157 329 159 355 3 36 -12 50 -29 29z"/>
</g>
</svg>
