<?xml version="1.0" standalone="no"?>
<!DOCTYPE svg PUBLIC "-//W3C//DTD SVG 20010904//EN"
 "http://www.w3.org/TR/2001/REC-SVG-20010904/DTD/svg10.dtd">
<svg version="1.0" xmlns="http://www.w3.org/2000/svg"
 width="1000.000000pt" height="1000.000000pt" viewBox="0 0 1000.000000 1000.000000"
 preserveAspectRatio="xMidYMid meet">
<metadata>
  <rdf:RDF
    xmlns:rdf = "http://www.w3.org/1999/02/22-rdf-syntax-ns#"
    xmlns:rdfs = "http://www.w3.org/2000/01/rdf-schema#"
    xmlns:dc = "http://purl.org/dc/elements/1.1/"
    xmlns:cc = "http://creativecommons.org/ns#">
    <cc:license rdf:resource="http://creativecommons.org/publicdomain/zero/1.0/deed.en"/>
    <cc:permits rdf:resource="http://creativecommons.org/ns#Reproduction"/>
    <rdf:Description about="https://nft.mir.one/fingerprints"
      dc:title="TON Fingerprints"
      dc:description="This is a unique digital fingerprint created based on the algorithm for generating basic rings using a noise texture. Like human fingerprints, you can now use it for the Web3 and Metaverse era as digital biometric information."
      dc:publisher="https://nft.mir.one"
      dc:date="2022-02-22"
      dc:format="image/svg+xml"
      dc:language="en" >
      <dc:creator>
      <rdf:Bag>
        <rdf:li>EQBondcvD2_aOFADXSWJHs4ZazQDuEl9_wNvGGPxI8hGuOFU</rdf:li>
        <rdf:li>ipfs://bafkreihj7iub3fhmhq6jn62noukt5wxn3gv6bvcg7wmt6ywvlurefezckq</rdf:li>
      </rdf:Bag>
      </dc:creator>
    </rdf:Description>
  </rdf:RDF>
</metadata>
<g transform="translate(0.000000,1000.000000) scale(0.100000,-0.100000)"
fill="#1b1f23" stroke="none">
<path d="M4560 7701 c42 -22 120 -43 315 -85 143 -30 344 -80 447 -110 113
-33 226 -59 285 -66 122 -14 227 -40 357 -89 100 -37 235 -75 242 -68 4 4
-171 100 -303 166 -102 51 -275 108 -482 160 -255 64 -447 92 -741 106 -69 4
-136 9 -150 11 -14 3 -1 -8 30 -25z"/>
<path d="M4295 7550 c-33 -5 -109 -19 -169 -32 -109 -24 -109 -24 -44 -36 35
-7 111 -17 169 -23 186 -19 508 -83 719 -144 206 -60 404 -151 464 -214 25
-26 27 -32 15 -47 -23 -28 -103 -11 -295 64 -99 39 -219 82 -269 96 -190 54
-522 106 -676 106 -135 0 -306 -56 -497 -164 -114 -63 -114 -63 -60 -59 29 3
99 13 156 24 252 47 548 45 847 -6 228 -39 335 -75 451 -152 64 -43 116 -58
274 -84 155 -24 239 -47 372 -100 248 -98 406 -199 568 -359 70 -69 95 -103
124 -164 24 -50 61 -104 109 -157 186 -207 225 -271 237 -390 8 -87 21 -113
166 -334 70 -107 137 -185 120 -140 -107 290 -142 399 -151 475 -13 109 -63
225 -170 395 -116 184 -200 292 -320 410 -79 79 -128 136 -143 167 -11 25 -34
55 -49 66 -39 27 -150 82 -308 152 -295 130 -336 158 -400 269 -52 91 -91 129
-174 170 -111 57 -387 138 -647 190 -115 24 -330 34 -419 21z"/>
<path d="M5610 7305 c-49 -59 110 -166 445 -298 187 -74 323 -107 439 -107 50
0 50 0 -45 56 -282 168 -491 271 -680 335 -97 32 -141 36 -159 14z"/>
<path d="M3980 7010 c-198 -28 -276 -56 -415 -150 -53 -36 -229 -181 -275
-228 -3 -2 9 3 27 12 18 9 37 16 43 16 5 0 56 20 113 44 358 153 693 191 1232
140 256 -24 325 -17 325 32 0 44 -122 83 -365 119 -128 19 -583 29 -685 15z"/>
<path d="M6361 6771 c-9 -6 -11 -18 -7 -35 5 -20 39 -48 137 -112 161 -106
197 -142 248 -242 26 -52 63 -104 110 -153 70 -74 70 -74 17 8 -29 45 -60 101
-68 125 -9 24 -23 63 -32 88 -32 91 -188 249 -300 305 -52 26 -82 31 -105 16z"/>
<path d="M4080 6730 c-199 -22 -515 -105 -609 -161 -53 -31 -230 -182 -225
-191 12 -19 84 -4 242 51 396 139 692 180 1097 152 94 -6 280 -16 415 -21 266
-10 374 -24 550 -71 162 -43 315 -106 537 -220 201 -103 243 -116 263 -79 15
27 3 46 -70 114 -141 130 -382 264 -613 341 -220 73 -315 90 -502 86 -301 -5
-450 -5 -725 2 -152 3 -313 2 -360 -3z"/>
<path d="M4174 6459 c-192 -14 -372 -51 -624 -129 -69 -21 -152 -46 -184 -55
-94 -26 -142 -65 -289 -238 -47 -56 -47 -56 5 -38 29 11 93 38 142 61 103 49
362 136 532 179 353 90 611 102 869 40 46 -10 184 -28 309 -39 495 -43 744
-102 1141 -270 215 -91 297 -133 412 -208 119 -79 145 -92 183 -92 27 0 30 3
30 31 0 41 -44 103 -134 185 -97 90 -161 128 -304 179 -64 23 -178 69 -252
102 -372 166 -585 217 -1050 253 -140 11 -300 24 -355 30 -160 15 -312 18
-431 9z"/>
<path d="M4214 6200 c-305 -29 -636 -118 -882 -236 -131 -63 -178 -105 -258
-230 -59 -92 -134 -224 -128 -224 12 0 96 59 144 102 30 27 100 80 155 117
282 193 587 288 1105 346 152 17 211 41 196 80 -15 41 -163 61 -332 45z"/>
<path d="M4720 6080 c-61 -5 -87 -13 -140 -42 -83 -47 -130 -59 -429 -108
-280 -46 -368 -67 -496 -116 -153 -59 -284 -141 -453 -282 -115 -95 -157 -161
-245 -380 -45 -112 -45 -112 -12 -84 19 15 59 55 90 89 58 64 330 310 444 401
79 63 210 132 306 161 38 12 128 28 200 37 156 18 189 23 465 77 215 42 215
42 455 41 192 0 268 -5 380 -22 77 -12 232 -35 345 -52 216 -32 264 -43 293
-68 43 -38 17 -50 -168 -81 -128 -21 -156 -20 -353 14 -278 47 -646 68 -847
46 -133 -14 -309 -49 -427 -85 -79 -24 -87 -29 -93 -56 -3 -16 -25 -46 -47
-66 -44 -39 -253 -144 -327 -164 -54 -14 -94 -6 -89 18 5 24 138 101 282 163
150 64 176 80 157 103 -35 42 -156 25 -301 -45 -104 -50 -160 -94 -208 -167
-21 -31 -66 -79 -102 -107 -222 -174 -305 -251 -361 -335 -85 -129 -136 -224
-113 -211 10 6 30 15 44 20 14 5 90 60 170 122 277 214 336 249 530 315 63 21
180 72 260 113 80 40 183 93 230 117 110 57 242 94 355 101 74 5 106 2 175
-17 59 -15 137 -25 255 -31 263 -14 442 -48 602 -115 133 -54 502 -238 573
-284 143 -94 254 -202 436 -426 27 -33 73 -90 103 -125 119 -140 177 -327 220
-709 7 -65 7 -65 21 55 23 183 19 462 -8 612 -12 66 -22 143 -22 170 0 124
-84 291 -237 475 -146 173 -393 335 -585 384 -77 19 -87 37 -42 73 68 53 246
-4 462 -149 227 -151 435 -438 507 -700 15 -52 40 -126 56 -165 30 -70 30 -70
24 -5 -23 247 -54 401 -114 557 -35 89 -158 262 -240 336 -82 72 -363 232
-523 296 -40 16 -118 50 -172 75 -240 112 -669 206 -1014 221 -64 3 -135 7
-157 9 -22 1 -74 0 -115 -4z m1187 -568 c17 -9 47 -29 65 -44 18 -14 89 -59
158 -98 180 -105 242 -151 360 -270 178 -177 331 -435 267 -448 -26 -5 -56 25
-160 163 -114 150 -246 282 -362 361 -50 34 -169 107 -265 163 -184 107 -237
148 -227 175 9 23 121 22 164 -2z"/>
<path d="M4435 5416 c-122 -32 -189 -59 -397 -160 -97 -47 -237 -112 -311
-146 -202 -90 -319 -161 -530 -323 -112 -85 -134 -113 -189 -241 -22 -50 -44
-97 -50 -103 -7 -9 -7 -13 1 -13 23 0 74 32 184 118 283 221 442 324 712 459
250 126 401 193 590 264 211 79 258 115 203 153 -32 22 -107 19 -213 -8z"/>
<path d="M4835 5296 c-28 -8 -86 -30 -130 -49 -44 -20 -161 -67 -260 -106
-297 -116 -682 -315 -900 -465 -49 -34 -162 -115 -251 -178 -176 -128 -186
-140 -238 -288 -15 -41 -32 -81 -39 -89 -27 -32 61 24 118 76 77 70 127 96
184 95 44 -1 48 1 145 96 115 111 148 135 411 292 330 196 485 271 728 349
238 76 407 87 577 40 135 -37 202 -80 332 -212 130 -131 284 -313 383 -452
175 -244 292 -575 283 -795 -3 -67 -5 -75 -23 -75 -29 0 -50 50 -80 189 -79
370 -244 652 -547 941 -168 160 -295 231 -469 261 -312 54 -735 -94 -1106
-388 -69 -54 -93 -67 -142 -77 -107 -21 -209 -112 -275 -245 -36 -72 -171
-372 -197 -436 -19 -46 -16 -201 6 -305 16 -81 76 -265 120 -372 24 -58 24
-58 17 97 -18 411 12 601 118 746 32 44 59 96 76 149 32 96 63 160 116 238 42
62 65 78 79 56 16 -25 10 -75 -21 -174 -41 -133 -40 -185 5 -259 23 -38 39
-80 45 -122 25 -154 69 -160 157 -21 136 215 217 329 275 388 152 156 310 227
523 236 101 5 134 2 202 -15 162 -41 311 -136 430 -274 235 -273 306 -637 182
-934 -93 -223 -313 -440 -534 -525 -131 -51 -254 -50 -271 3 -8 27 0 33 86 58
157 47 311 140 422 258 171 182 266 431 238 631 -44 321 -281 591 -576 657
-154 34 -338 2 -479 -84 -154 -93 -313 -313 -391 -542 -26 -76 -24 -187 5
-261 44 -115 183 -282 292 -352 108 -69 230 -85 355 -46 186 57 345 184 389
309 40 112 -3 298 -88 388 -94 99 -204 101 -329 6 -76 -57 -89 -62 -107 -40
-32 38 42 141 133 186 61 30 71 32 143 28 90 -5 141 -28 209 -90 60 -56 83
-96 124 -217 38 -113 58 -137 87 -108 26 26 23 153 -7 230 -50 132 -163 253
-280 299 -44 18 -76 22 -160 23 -97 0 -110 -2 -172 -32 -111 -52 -183 -142
-194 -241 -5 -40 0 -59 35 -130 52 -105 85 -148 132 -173 76 -38 182 -17 220
45 26 42 22 98 -8 111 -56 24 -5 73 52 51 67 -27 99 -124 71 -218 -20 -71 -77
-135 -152 -173 -53 -27 -69 -30 -154 -30 -84 0 -102 3 -151 27 -31 16 -77 49
-103 75 -130 132 -153 326 -61 518 133 278 472 381 740 226 122 -70 236 -211
278 -345 30 -97 30 -214 -1 -273 -12 -23 -26 -45 -32 -48 -6 -4 -33 -52 -60
-106 -91 -182 -171 -263 -382 -385 -62 -36 -133 -83 -158 -103 -64 -54 -82
-61 -147 -61 -121 0 -258 56 -351 143 -30 29 -88 95 -128 149 -40 53 -99 118
-130 145 -129 109 -141 132 -179 338 -13 70 -25 103 -54 150 -21 33 -49 88
-62 123 -41 109 -86 133 -117 65 -23 -52 -23 -388 1 -554 32 -215 65 -300 164
-409 64 -71 116 -108 195 -139 31 -13 107 -57 170 -98 138 -93 253 -147 378
-180 129 -34 354 -36 472 -5 411 111 758 458 825 827 35 191 -21 479 -137 705
-142 275 -373 481 -630 562 -65 20 -94 23 -220 22 -172 -1 -255 -19 -395 -89
-182 -90 -293 -199 -405 -396 -35 -63 -77 -127 -92 -142 -130 -132 -5 293 131
444 132 147 380 277 611 319 96 18 256 15 342 -5 171 -41 343 -149 505 -319
206 -215 312 -427 393 -786 38 -167 42 -194 37 -280 -11 -208 -126 -433 -321
-625 -121 -120 -238 -201 -437 -301 -179 -89 -238 -110 -360 -125 -56 -7 -124
-23 -169 -41 -88 -34 -100 -43 -45 -33 22 4 121 10 220 14 163 7 186 10 245
35 36 15 115 46 175 70 377 148 606 338 754 626 64 124 92 200 125 340 15 63
41 143 58 178 64 134 58 306 -21 541 -78 234 -143 340 -445 726 -155 198 -196
261 -196 296 0 36 22 47 54 26 60 -39 145 -131 175 -187 18 -34 82 -123 142
-198 138 -172 213 -281 277 -402 143 -270 196 -593 141 -863 -72 -355 -236
-662 -509 -951 -75 -80 -75 -80 -20 -37 244 189 450 440 586 715 123 250 133
314 95 610 -32 240 -69 371 -153 540 -79 159 -200 326 -348 481 -131 138 -155
175 -110 175 40 0 104 -43 198 -133 220 -213 388 -474 457 -712 15 -49 35
-155 46 -235 11 -80 24 -175 30 -212 11 -67 38 -118 64 -118 18 0 28 30 15 45
-8 10 -6 56 6 161 15 123 16 162 6 238 -27 215 -106 398 -258 601 -113 151
-323 364 -406 413 -31 18 -123 61 -204 94 -143 59 -152 61 -231 60 -78 -1 -89
2 -184 44 -157 70 -268 95 -434 100 -101 3 -154 0 -190 -10z m-837 -2210 c77
-117 99 -189 68 -216 -9 -7 -21 -8 -29 -3 -25 14 -89 96 -108 138 -31 66 -22
145 16 145 6 0 30 -29 53 -64z"/>
<path d="M3270 4189 c-93 -95 -120 -170 -135 -373 -6 -88 -6 -88 23 -55 16 19
44 63 62 99 18 36 56 108 86 160 29 52 58 116 65 141 14 52 6 99 -17 99 -8 0
-46 -32 -84 -71z"/>
<path d="M6789 3533 c-13 -16 -12 -17 4 -4 16 13 21 21 13 21 -2 0 -10 -8 -17
-17z"/>
<path d="M6760 3489 c-7 -11 -10 -23 -7 -25 2 -2 9 7 15 21 14 30 7 33 -8 4z"/>
<path d="M3760 2726 c0 -2 8 -10 18 -17 15 -13 16 -12 3 4 -13 16 -21 21 -21
13z"/>
<path d="M3830 2665 c13 -14 26 -25 28 -25 3 0 -5 11 -18 25 -13 14 -26 25
-28 25 -3 0 5 -11 18 -25z"/>
<path d="M3878 2628 c15 -19 172 -141 172 -135 0 3 -42 38 -92 78 -51 40 -87
65 -80 57z"/>
<path d="M4060 2486 c0 -2 14 -14 30 -26 17 -12 30 -19 30 -16 0 2 -13 14 -30
26 -16 12 -30 19 -30 16z"/>
<path d="M5769 2383 c-13 -16 -12 -17 4 -4 9 7 17 15 17 17 0 8 -8 3 -21 -13z"/>
</g>
</svg>
