<?xml version="1.0" standalone="no"?>
<!DOCTYPE svg PUBLIC "-//W3C//DTD SVG 20010904//EN"
 "http://www.w3.org/TR/2001/REC-SVG-20010904/DTD/svg10.dtd">
<svg version="1.0" xmlns="http://www.w3.org/2000/svg"
 width="1000.000000pt" height="1000.000000pt" viewBox="0 0 1000.000000 1000.000000"
 preserveAspectRatio="xMidYMid meet">
<metadata>
  <rdf:RDF
    xmlns:rdf = "http://www.w3.org/1999/02/22-rdf-syntax-ns#"
    xmlns:rdfs = "http://www.w3.org/2000/01/rdf-schema#"
    xmlns:dc = "http://purl.org/dc/elements/1.1/"
    xmlns:cc = "http://creativecommons.org/ns#">
    <cc:license rdf:resource="http://creativecommons.org/publicdomain/zero/1.0/deed.en"/>
    <cc:permits rdf:resource="http://creativecommons.org/ns#Reproduction"/>
    <rdf:Description about="https://nft.mir.one/fingerprints"
      dc:title="TON Fingerprints"
      dc:description="This is a unique digital fingerprint created based on the algorithm for generating basic rings using a noise texture. Like human fingerprints, you can now use it for the Web3 and Metaverse era as digital biometric information."
      dc:publisher="https://nft.mir.one"
      dc:date="2022-02-22"
      dc:format="image/svg+xml"
      dc:language="en" >
      <dc:creator>
      <rdf:Bag>
        <rdf:li>EQBondcvD2_aOFADXSWJHs4ZazQDuEl9_wNvGGPxI8hGuOFU</rdf:li>
        <rdf:li>ipfs://bafkreihj7iub3fhmhq6jn62noukt5wxn3gv6bvcg7wmt6ywvlurefezckq</rdf:li>
      </rdf:Bag>
      </dc:creator>
    </rdf:Description>
  </rdf:RDF>
</metadata>
<g transform="translate(0.000000,1000.000000) scale(0.100000,-0.100000)"
fill="#1b1f23" stroke="none">
<path d="M5000 7779 c58 -51 120 -80 367 -173 111 -41 221 -85 245 -97 23 -12
99 -77 169 -144 135 -130 183 -164 285 -202 88 -31 155 -66 249 -128 111 -73
244 -150 220 -128 -39 38 -191 170 -240 209 -27 23 -117 85 -199 139 -156 102
-309 236 -332 290 -13 33 -36 41 -537 181 -103 28 -206 61 -230 72 -42 21 -42
21 3 -19z"/>
<path d="M4477 7687 c28 -19 95 -51 149 -72 263 -101 647 -289 801 -391 143
-96 230 -171 370 -321 70 -75 183 -194 250 -264 164 -170 198 -229 135 -229
-47 0 -115 54 -341 274 -257 249 -356 333 -515 438 -172 112 -448 252 -662
334 -93 36 -105 38 -209 38 -60 0 -142 -4 -181 -8 -67 -8 -72 -7 -86 13 -9 12
-31 30 -51 40 -35 18 -36 18 -41 -4 -6 -24 -61 -66 -156 -119 -65 -36 -65 -36
-29 -36 19 0 44 -7 55 -15 10 -8 28 -15 39 -15 40 -1 104 -40 185 -111 157
-141 240 -193 433 -271 357 -143 573 -300 1096 -792 312 -293 464 -467 618
-710 77 -120 183 -331 214 -424 20 -61 21 -72 10 -141 -10 -63 -10 -96 3 -196
22 -167 21 -242 -5 -284 -30 -50 -47 -128 -64 -306 -55 -562 -165 -908 -426
-1335 -114 -187 -204 -349 -181 -325 48 50 242 276 283 330 179 234 324 513
384 737 49 183 66 334 72 613 3 143 9 264 14 269 4 5 18 2 33 -7 79 -52 99
-412 40 -742 -8 -44 -25 -143 -39 -221 -13 -77 -27 -149 -30 -160 -5 -15 -4
-16 3 -4 19 29 114 317 147 445 46 177 66 325 66 482 1 150 0 153 -140 512
-40 101 -71 191 -69 200 13 66 128 -43 205 -194 28 -55 67 -149 87 -210 19
-60 44 -132 55 -160 20 -50 20 -50 20 10 1 175 -34 436 -67 500 -8 17 -50 67
-92 112 -97 102 -141 168 -270 408 -245 452 -348 589 -602 801 -84 71 -218
187 -298 259 -289 260 -386 338 -555 450 -144 94 -227 139 -464 249 -256 120
-290 138 -325 175 -24 25 -27 33 -16 46 29 35 157 5 370 -87 414 -181 638
-330 1022 -685 198 -183 254 -227 381 -305 120 -73 239 -186 315 -299 28 -43
101 -173 163 -290 202 -387 302 -573 349 -649 71 -116 95 -97 65 52 -33 158
-93 323 -195 529 -81 164 -103 219 -122 302 -25 114 -60 175 -184 327 -85 103
-122 157 -159 230 -40 80 -85 138 -213 274 -62 66 -135 155 -162 196 -82 126
-102 149 -195 233 -178 158 -283 225 -541 340 -224 101 -391 148 -609 172 -77
8 -151 18 -165 21 -16 4 -8 -6 27 -29z"/>
<path d="M5776 7594 c-8 -21 -8 -21 7 -27 10 -4 13 2 9 19 -5 28 -8 30 -16 8z"/>
<path d="M3791 7094 c-40 -13 -122 -49 -182 -79 -109 -54 -109 -54 -76 -64 17
-5 91 -14 162 -20 165 -13 264 -39 391 -101 127 -62 202 -122 239 -192 29 -56
30 -108 1 -108 -7 0 -44 21 -82 46 -132 88 -258 140 -423 174 -152 31 -221 27
-310 -15 -41 -20 -114 -62 -163 -95 -89 -60 -89 -60 -51 -60 21 -1 135 -2 253
-3 235 -3 249 -5 504 -79 127 -37 146 -40 222 -35 84 5 84 5 141 -35 253 -178
607 -495 724 -651 100 -132 178 -320 162 -388 -3 -13 -14 -53 -24 -88 -13 -43
-23 -122 -29 -240 -18 -314 -52 -499 -126 -683 -46 -116 -83 -190 -226 -453
-63 -116 -139 -264 -169 -330 -98 -217 -189 -331 -461 -578 -87 -79 -110 -106
-123 -145 -26 -74 -27 -75 -120 -123 -49 -26 -105 -63 -125 -82 -36 -34 -36
-34 64 -43 179 -16 283 -11 351 14 85 33 255 124 334 179 180 127 613 483 662
546 47 59 151 232 208 344 21 43 48 89 59 103 17 21 22 22 36 11 34 -29 11
-132 -67 -291 -103 -211 -220 -346 -473 -541 -348 -271 -475 -354 -690 -454
-73 -34 -150 -75 -172 -91 -40 -30 -40 -30 32 -26 95 5 249 28 311 46 62 19
241 135 451 293 88 66 192 141 233 167 173 111 328 310 438 558 50 113 77 220
92 358 6 52 24 164 41 249 81 412 87 655 26 1005 -24 136 -43 188 -74 205 -44
24 -62 -30 -50 -154 38 -418 26 -664 -48 -945 -46 -176 -70 -227 -149 -310
-96 -102 -281 -381 -290 -438 -5 -30 -14 -48 -31 -59 -32 -21 -41 -10 -26 30
16 46 15 57 -6 57 -22 0 -43 -22 -66 -67 -16 -32 -241 -241 -421 -391 -112
-95 -282 -206 -354 -233 -66 -24 -129 -22 -145 5 -8 14 -8 20 1 23 6 2 50 27
98 56 175 104 414 316 544 481 62 79 62 79 55 132 -9 77 10 124 142 345 287
481 350 694 363 1224 6 260 6 260 30 260 54 0 80 -107 81 -325 0 -326 -55
-620 -161 -848 -54 -118 -160 -292 -287 -474 -109 -156 -132 -202 -113 -221
21 -21 81 16 173 106 69 68 125 138 212 266 171 250 218 356 265 588 35 171
43 296 40 573 -2 146 0 297 5 335 8 68 7 73 -27 140 -49 98 -179 292 -274 410
-103 128 -295 314 -498 485 -267 224 -333 305 -322 397 4 41 2 46 -36 78 -106
91 -352 237 -462 275 -76 26 -124 25 -214 -6z"/>
<path d="M6035 7049 c-18 -29 14 -72 174 -229 92 -91 229 -235 303 -320 206
-236 295 -324 352 -349 27 -11 51 -21 53 -21 3 0 -8 17 -24 38 -16 20 -64 93
-107 161 -107 171 -210 305 -344 443 -202 208 -377 327 -407 277z"/>
<path d="M4540 6805 c-13 -16 -9 -23 46 -74 33 -31 140 -119 239 -196 385
-302 559 -474 865 -855 145 -181 212 -251 296 -308 122 -82 202 -209 249 -396
56 -219 54 -445 -5 -859 -80 -558 -170 -811 -451 -1282 -110 -184 -212 -341
-293 -448 -87 -115 -118 -159 -104 -151 65 40 245 194 338 290 121 124 183
211 294 405 199 350 297 664 362 1168 13 108 32 237 41 286 33 176 15 512 -34
669 -71 228 -163 357 -585 823 -347 383 -799 769 -1046 895 -97 49 -187 63
-212 33z"/>
<path d="M3388 6417 c-50 -19 -160 -102 -232 -176 -59 -59 -59 -59 -15 -54 24
3 71 13 104 23 313 93 777 10 1080 -193 81 -54 216 -192 242 -247 12 -25 27
-76 33 -113 6 -38 26 -126 45 -195 97 -351 113 -618 50 -801 -31 -92 -33 -172
-5 -218 11 -18 27 -33 35 -33 24 0 69 107 106 245 28 105 32 141 36 290 8 257
-21 421 -113 638 -53 127 -40 166 38 111 73 -52 141 -186 175 -346 25 -118 25
-465 0 -592 -42 -209 -95 -319 -177 -366 -43 -25 -47 -31 -105 -176 -72 -176
-101 -234 -167 -332 -81 -119 -115 -147 -276 -225 -184 -88 -220 -100 -411
-138 -182 -37 -329 -42 -449 -15 -89 19 -178 22 -147 4 11 -7 73 -52 138 -100
66 -49 136 -98 158 -108 45 -24 104 -25 179 -6 109 29 430 156 497 197 121 75
153 91 168 85 36 -13 9 -69 -74 -151 -80 -80 -172 -135 -224 -135 -76 0 -118
-20 -184 -87 -74 -76 -122 -99 -245 -117 -51 -7 -108 -20 -127 -28 -33 -15
-33 -15 0 -27 18 -6 65 -32 105 -56 86 -54 171 -85 231 -85 92 0 206 81 408
287 185 191 212 225 271 351 25 51 98 190 163 310 391 720 405 756 432 1161
17 245 9 406 -25 506 -57 167 -123 247 -383 464 -197 164 -300 239 -388 283
-84 42 -309 110 -493 149 -127 27 -399 36 -454 16z m705 -3209 c8 -25 -23 -66
-66 -87 -52 -25 -70 -26 -87 -5 -17 20 -5 31 75 73 68 35 72 36 78 19z"/>
<path d="M3417 6100 c-43 -4 -99 -13 -124 -21 -79 -22 -151 -110 -111 -135 7
-5 103 -9 213 -10 288 -2 442 -37 635 -142 121 -67 252 -198 306 -306 36 -73
39 -89 45 -185 5 -91 11 -122 46 -216 23 -60 55 -162 73 -226 35 -130 61 -182
88 -177 63 12 55 215 -25 573 -65 295 -116 413 -225 530 -102 109 -222 184
-391 244 -169 59 -368 86 -530 71z"/>
<path d="M6790 5940 c0 -34 10 -56 113 -245 65 -120 177 -300 165 -265 -3 8
-29 83 -57 165 -59 167 -127 318 -160 353 -32 33 -61 29 -61 -8z"/>
<path d="M3134 5802 c-40 -25 -83 -81 -130 -167 -20 -38 -47 -83 -58 -100 -20
-29 -20 -29 4 -12 13 9 33 17 43 17 10 0 28 7 40 15 85 55 276 83 457 65 252
-24 419 -94 625 -261 88 -71 134 -99 163 -99 23 0 26 7 22 50 -5 63 -132 215
-245 295 -171 122 -346 176 -622 195 -81 5 -175 12 -208 15 -48 5 -66 2 -91
-13z"/>
<path d="M3338 5470 c-72 -9 -115 -20 -190 -52 -71 -30 -126 -114 -204 -311
-42 -107 -42 -107 17 -55 218 195 313 239 519 239 167 0 307 -45 459 -145 177
-118 291 -280 368 -521 25 -82 28 -103 28 -230 -1 -126 -3 -147 -27 -207 -14
-37 -41 -94 -59 -125 -39 -67 -160 -191 -271 -281 -84 -67 -96 -94 -53 -114
62 -28 284 88 395 208 132 142 210 325 210 492 0 101 -14 169 -52 252 -17 36
-54 125 -83 198 -93 234 -139 293 -341 438 -175 126 -339 193 -517 213 -105
12 -101 12 -199 1z"/>
<path d="M5917 5263 c-13 -13 -7 -65 22 -176 16 -62 35 -148 42 -192 17 -102
17 -438 1 -565 -18 -132 -89 -536 -112 -634 -62 -266 -197 -526 -409 -791 -53
-67 -56 -73 -62 -140 -4 -58 -12 -80 -41 -125 -49 -78 -165 -198 -282 -295
-56 -46 -117 -99 -136 -119 -35 -37 -35 -37 75 9 177 74 321 167 401 259 22
24 61 81 88 127 26 46 106 181 177 299 137 230 228 410 279 555 99 281 190
821 190 1127 0 271 -67 538 -159 637 -27 29 -59 40 -74 24z"/>
<path d="M3374 5136 c-75 -17 -163 -61 -231 -115 -93 -74 -136 -204 -137 -411
-1 -154 33 -368 70 -447 29 -61 113 -157 158 -180 41 -21 194 -29 268 -14 240
50 425 298 391 522 -28 177 -147 307 -309 339 -135 26 -273 -41 -336 -163 -15
-30 -23 -66 -26 -122 -3 -73 -1 -85 25 -135 55 -107 166 -148 263 -98 59 30
90 77 90 138 0 49 -21 83 -59 95 -31 9 -64 -12 -57 -38 13 -50 -49 -64 -84
-19 -57 71 22 182 130 182 53 0 98 -20 137 -61 124 -131 65 -351 -117 -438
-76 -36 -200 -37 -277 -2 -67 30 -124 92 -154 167 -20 51 -23 77 -24 189 0
126 1 132 32 198 138 291 505 339 744 97 113 -115 166 -254 156 -415 -8 -145
-59 -257 -172 -383 -152 -167 -340 -236 -555 -203 -41 7 -106 15 -145 18 -69
6 -69 6 -15 -40 75 -64 164 -126 205 -143 46 -19 221 -18 303 1 94 22 136 48
184 113 23 31 81 98 129 147 159 166 227 303 236 475 14 274 -152 561 -397
685 -129 65 -300 90 -426 61z"/>
<path d="M5287 2815 c-48 -16 -73 -33 -187 -125 -160 -129 -298 -229 -404
-290 -93 -54 -205 -130 -194 -130 3 0 59 11 124 24 261 54 367 113 587 325 65
63 147 166 147 186 0 19 -33 24 -73 10z"/>
</g>
</svg>
