<?xml version="1.0" standalone="no"?>
<!DOCTYPE svg PUBLIC "-//W3C//DTD SVG 20010904//EN"
 "http://www.w3.org/TR/2001/REC-SVG-20010904/DTD/svg10.dtd">
<svg version="1.0" xmlns="http://www.w3.org/2000/svg"
 width="1000.000000pt" height="1000.000000pt" viewBox="0 0 1000.000000 1000.000000"
 preserveAspectRatio="xMidYMid meet">
<metadata>
  <rdf:RDF
    xmlns:rdf = "http://www.w3.org/1999/02/22-rdf-syntax-ns#"
    xmlns:rdfs = "http://www.w3.org/2000/01/rdf-schema#"
    xmlns:dc = "http://purl.org/dc/elements/1.1/"
    xmlns:cc = "http://creativecommons.org/ns#">
    <cc:license rdf:resource="http://creativecommons.org/publicdomain/zero/1.0/deed.en"/>
    <cc:permits rdf:resource="http://creativecommons.org/ns#Reproduction"/>
    <rdf:Description about="https://nft.mir.one/fingerprints"
      dc:title="TON Fingerprints"
      dc:description="This is a unique digital fingerprint created based on the algorithm for generating basic rings using a noise texture. Like human fingerprints, you can now use it for the Web3 and Metaverse era as digital biometric information."
      dc:publisher="https://nft.mir.one"
      dc:date="2022-02-22"
      dc:format="image/svg+xml"
      dc:language="en" >
      <dc:creator>
      <rdf:Bag>
        <rdf:li>EQBondcvD2_aOFADXSWJHs4ZazQDuEl9_wNvGGPxI8hGuOFU</rdf:li>
        <rdf:li>ipfs://bafkreihj7iub3fhmhq6jn62noukt5wxn3gv6bvcg7wmt6ywvlurefezckq</rdf:li>
      </rdf:Bag>
      </dc:creator>
    </rdf:Description>
  </rdf:RDF>
</metadata>
<g transform="translate(0.000000,1000.000000) scale(0.100000,-0.100000)"
fill="#1b1f23" stroke="none">
<path d="M5105 7780 c22 -11 126 -53 230 -93 202 -79 445 -196 579 -279 71
-44 260 -176 451 -316 59 -43 58 -42 -25 38 -352 340 -650 509 -1114 631 -81
21 -151 39 -155 38 -3 0 12 -9 34 -19z"/>
<path d="M4680 7671 c-100 -14 -152 -40 -162 -79 -2 -11 32 -14 172 -17 139
-2 192 -7 260 -24 222 -56 359 -116 446 -194 87 -77 99 -84 319 -199 234 -123
246 -130 520 -308 265 -173 355 -225 438 -254 37 -13 67 -22 67 -20 0 2 -137
121 -434 378 -193 167 -342 269 -626 427 -228 126 -320 170 -453 214 -188 61
-420 94 -547 76z"/>
<path d="M4444 7529 c-34 -10 -94 -60 -94 -78 0 -6 10 -15 22 -22 43 -23 215
-154 275 -210 119 -110 258 -175 533 -249 767 -206 1295 -524 1570 -945 157
-240 227 -482 217 -750 -5 -167 -33 -268 -96 -356 -59 -80 -137 -197 -241
-359 -187 -291 -320 -446 -517 -602 -108 -86 -145 -101 -151 -61 -5 36 25 80
135 196 276 292 434 531 478 722 15 65 15 80 0 201 -17 131 -17 131 9 176 47
81 31 210 -44 365 -32 65 -57 99 -116 155 -41 40 -112 120 -156 178 -105 135
-223 257 -371 382 -123 104 -153 138 -143 163 31 81 360 -142 580 -394 233
-265 323 -414 361 -598 14 -64 15 -110 10 -259 -7 -181 -7 -181 15 -197 33
-23 57 -7 85 56 33 72 49 199 42 321 -23 370 -275 758 -684 1052 -125 91 -243
149 -379 188 -66 18 -189 61 -274 94 -85 33 -266 97 -401 141 -362 119 -542
216 -710 382 -62 61 -80 86 -92 125 -13 47 -16 49 -52 52 -66 6 -191 -41 -315
-119 -151 -93 -391 -251 -388 -255 6 -5 137 24 223 51 73 23 109 28 195 28
129 1 152 -8 329 -132 224 -157 221 -155 566 -262 265 -81 423 -141 550 -207
85 -44 103 -60 324 -284 299 -304 353 -373 399 -513 30 -88 46 -269 33 -353
-6 -37 -15 -130 -21 -207 -13 -200 -37 -269 -151 -435 -76 -112 -365 -398
-471 -468 -87 -56 -195 -101 -313 -128 -104 -25 -335 -25 -443 0 -262 58 -470
174 -668 371 -159 156 -249 297 -339 529 -70 180 -116 342 -122 431 -5 71 -2
90 24 167 40 116 110 224 213 332 254 266 554 386 866 347 205 -25 373 -92
507 -202 132 -107 148 -118 186 -125 129 -21 207 -67 298 -176 159 -188 219
-489 177 -875 -4 -40 -3 -43 20 -43 33 0 72 48 91 113 9 29 20 116 26 195 23
316 -31 521 -187 714 -85 105 -317 302 -488 413 -278 181 -717 293 -906 231
-68 -23 -335 -157 -450 -226 -250 -150 -435 -336 -622 -625 -36 -56 -100 -147
-142 -205 -169 -226 -188 -309 -162 -675 16 -223 16 -244 -15 -470 -13 -99 -8
-203 18 -420 20 -156 20 -156 43 65 8 83 16 117 40 163 25 48 30 69 30 127 0
149 47 181 109 75 50 -87 200 -230 338 -324 65 -44 177 -121 248 -171 200
-142 494 -279 727 -340 157 -41 299 -60 458 -60 208 0 350 32 350 78 0 43 -21
47 -274 53 -253 7 -363 20 -523 64 -416 112 -836 377 -1177 740 -118 127 -149
166 -166 211 -33 90 -52 227 -48 344 4 112 2 105 110 338 23 49 59 72 82 53 8
-7 27 -45 42 -84 14 -40 39 -94 54 -122 14 -27 44 -90 65 -140 107 -252 194
-392 339 -543 229 -237 505 -394 817 -464 139 -31 436 -33 569 -4 240 52 385
142 595 369 286 310 373 517 345 819 -8 93 -9 132 0 147 23 45 44 17 92 -119
30 -89 33 -104 32 -225 0 -122 -2 -135 -32 -214 -71 -186 -199 -364 -447 -620
-223 -231 -343 -281 -706 -297 -481 -22 -917 136 -1284 463 -199 178 -316 343
-396 559 -55 150 -80 204 -100 215 -93 49 -85 -211 12 -416 99 -211 401 -503
710 -686 219 -130 441 -213 684 -255 121 -21 734 -39 799 -23 59 14 175 58
248 95 45 23 57 25 122 19 87 -8 138 9 247 81 143 95 290 258 459 506 65 96
127 165 189 208 47 32 116 304 131 515 28 399 -90 852 -308 1181 -85 127 -148
186 -314 296 -306 203 -513 321 -731 417 -165 73 -215 87 -352 101 -174 17
-380 75 -508 143 -66 34 -85 58 -62 77 23 19 88 8 285 -49 203 -59 266 -69
295 -48 89 67 -270 208 -577 226 -128 7 -141 10 -205 42 -83 42 -72 39 -109
28z m1923 -1921 c59 -65 189 -396 165 -420 -27 -27 -78 44 -189 265 -25 49
-40 134 -30 161 9 22 30 20 54 -6z"/>
<path d="M6445 7030 c10 -11 20 -20 23 -20 3 0 -3 9 -13 20 -10 11 -20 20 -23
20 -3 0 3 -9 13 -20z"/>
<path d="M3830 6930 c-41 -10 -93 -26 -114 -35 -117 -49 -304 -220 -449 -409
-104 -136 -121 -160 -91 -135 10 9 35 25 54 34 19 10 71 46 115 80 182 142
380 249 600 325 133 46 157 62 153 99 -7 59 -123 77 -268 41z"/>
<path d="M4186 6753 c-47 -12 -421 -195 -505 -247 -206 -129 -355 -258 -436
-381 -88 -131 -177 -323 -254 -543 -39 -112 -71 -205 -71 -208 0 -17 96 109
182 237 313 469 543 680 995 915 206 107 239 134 226 183 -10 39 -75 60 -137
44z"/>
<path d="M4365 6091 c-241 -87 -457 -321 -516 -561 -19 -75 -16 -228 6 -325
107 -480 416 -829 851 -961 80 -25 105 -28 249 -28 156 -1 162 0 255 32 52 18
127 53 165 77 144 90 266 248 251 327 -3 18 -10 96 -16 173 -12 165 -31 248
-73 328 -32 62 -53 77 -131 96 -26 6 -85 30 -129 53 -60 30 -98 42 -143 46
-120 9 -233 -47 -286 -143 -68 -125 -6 -286 112 -289 71 -1 112 72 46 84 -79
14 -29 130 56 130 39 0 85 -35 98 -75 18 -54 8 -135 -20 -175 -50 -70 -178
-92 -276 -46 -171 80 -230 285 -132 467 57 108 144 164 309 199 105 23 135 44
124 89 -36 145 -323 112 -491 -56 -207 -207 -211 -520 -10 -718 106 -105 197
-135 406 -135 130 0 130 0 169 35 63 57 84 120 88 255 5 143 8 160 32 160 80
0 124 -258 72 -421 -39 -121 -146 -251 -253 -305 -73 -37 -153 -54 -254 -54
-318 0 -653 237 -799 566 -77 173 -105 384 -71 536 44 200 176 370 383 496
101 61 129 71 150 50 26 -26 -6 -75 -128 -198 -128 -129 -180 -200 -221 -306
-87 -225 -46 -493 108 -710 75 -106 184 -199 298 -254 115 -55 175 -70 285
-70 95 0 169 21 210 59 31 29 40 64 21 76 -6 4 -59 1 -117 -6 -93 -12 -115
-11 -187 4 -119 24 -197 68 -292 162 -227 226 -255 550 -70 810 78 109 211
215 311 250 28 9 94 19 150 22 121 5 139 9 159 29 26 26 20 67 -16 101 -74 71
-222 110 -377 100 -74 -6 -90 -3 -142 18 -70 30 -143 32 -214 6z"/>
<path d="M5399 5834 c-14 -39 -4 -60 66 -134 116 -123 142 -181 191 -425 49
-243 64 -351 64 -468 0 -104 13 -147 44 -147 26 0 67 43 96 101 31 61 38 103
19 115 -25 15 -40 83 -54 237 -32 349 -94 517 -245 661 -90 86 -162 109 -181
60z"/>
<path d="M5311 5629 c-6 -18 -11 -44 -11 -59 0 -41 47 -125 104 -185 113 -120
153 -37 66 135 -49 96 -86 140 -119 140 -24 0 -31 -6 -40 -31z"/>
<path d="M2909 4975 c18 -53 32 -185 38 -358 3 -92 7 -166 9 -164 2 1 8 48 13
105 8 71 8 133 0 204 -10 97 -39 211 -60 233 -6 6 -6 -2 0 -20z"/>
<path d="M6929 4523 c-9 -10 -44 -67 -79 -128 -165 -289 -335 -487 -525 -610
-114 -74 -129 -81 -437 -193 -286 -105 -313 -116 -411 -175 -98 -59 -171 -72
-412 -71 -188 0 -223 3 -336 27 -193 41 -348 99 -654 247 -55 27 -140 80 -190
117 -49 38 -120 92 -156 120 -63 47 -117 74 -181 87 -16 4 -69 45 -125 100
-54 51 -108 98 -120 104 -35 19 -53 5 -53 -39 0 -61 33 -134 91 -198 30 -32
78 -101 107 -153 74 -131 141 -218 257 -333 139 -139 205 -181 427 -269 356
-142 499 -175 868 -196 96 -5 219 -15 272 -21 72 -8 120 -8 185 1 305 40 838
248 1027 401 118 96 242 247 349 427 131 221 135 220 -65 20 -189 -191 -281
-265 -444 -357 -193 -110 -505 -235 -741 -298 -138 -37 -138 -37 -413 -37
-297 -1 -407 10 -605 60 -127 32 -286 95 -347 137 -46 32 -147 151 -148 175 0
26 58 11 130 -35 165 -103 333 -163 566 -204 173 -30 494 -33 624 -6 230 49
736 249 943 373 156 94 346 265 428 385 54 80 130 241 168 354 38 118 46 165
29 188 -13 18 -14 18 -29 0z m-3275 -741 c56 -53 153 -143 216 -199 101 -89
120 -111 158 -182 36 -70 40 -82 26 -88 -32 -12 -89 33 -269 212 -172 170
-238 250 -251 302 -6 24 1 53 12 53 4 0 53 -44 108 -98z"/>
<path d="M3253 3798 c6 -63 58 -188 121 -297 134 -229 306 -403 513 -519 329
-185 726 -276 1093 -252 204 14 284 35 278 74 -5 34 -62 45 -275 51 -405 13
-685 80 -1006 241 -262 132 -472 344 -607 614 -55 111 -77 140 -102 140 -19 0
-20 -4 -15 -52z"/>
<path d="M3361 3244 c252 -314 458 -485 751 -624 353 -166 689 -197 1033 -94
44 13 132 38 195 56 450 122 597 169 725 232 155 77 279 161 419 284 149 132
153 138 80 106 -32 -14 -95 -45 -139 -69 -252 -137 -607 -265 -945 -339 -130
-29 -153 -37 -186 -66 -51 -44 -109 -68 -218 -91 -375 -78 -862 15 -1247 238
-120 70 -309 213 -404 307 -44 44 -73 71 -64 60z"/>
<path d="M6080 2655 c-123 -22 -472 -131 -552 -171 -26 -13 -52 -36 -60 -51
-8 -16 -22 -40 -32 -55 -18 -28 -18 -28 3 -28 12 0 48 13 81 30 32 16 114 52
182 79 200 80 488 212 458 209 -8 0 -44 -6 -80 -13z"/>
<path d="M5250 2449 c-144 -50 -330 -96 -437 -109 -93 -10 -360 8 -497 35 -44
8 -81 13 -83 11 -2 -2 46 -18 106 -35 274 -80 466 -98 661 -62 197 37 300 68
357 107 69 47 79 60 63 79 -18 22 -43 18 -170 -26z"/>
</g>
</svg>
