<?xml version="1.0" standalone="no"?>
<!DOCTYPE svg PUBLIC "-//W3C//DTD SVG 20010904//EN"
 "http://www.w3.org/TR/2001/REC-SVG-20010904/DTD/svg10.dtd">
<svg version="1.0" xmlns="http://www.w3.org/2000/svg"
 width="1000.000000pt" height="1000.000000pt" viewBox="0 0 1000.000000 1000.000000"
 preserveAspectRatio="xMidYMid meet">
<metadata>
  <rdf:RDF
    xmlns:rdf = "http://www.w3.org/1999/02/22-rdf-syntax-ns#"
    xmlns:rdfs = "http://www.w3.org/2000/01/rdf-schema#"
    xmlns:dc = "http://purl.org/dc/elements/1.1/"
    xmlns:cc = "http://creativecommons.org/ns#">
    <cc:license rdf:resource="http://creativecommons.org/publicdomain/zero/1.0/deed.en"/>
    <cc:permits rdf:resource="http://creativecommons.org/ns#Reproduction"/>
    <rdf:Description about="https://nft.mir.one/fingerprints"
      dc:title="TON Fingerprints"
      dc:description="This is a unique digital fingerprint created based on the algorithm for generating basic rings using a noise texture. Like human fingerprints, you can now use it for the Web3 and Metaverse era as digital biometric information."
      dc:publisher="https://nft.mir.one"
      dc:date="2022-02-22"
      dc:format="image/svg+xml"
      dc:language="en" >
      <dc:creator>
      <rdf:Bag>
        <rdf:li>EQBondcvD2_aOFADXSWJHs4ZazQDuEl9_wNvGGPxI8hGuOFU</rdf:li>
        <rdf:li>ipfs://bafkreihj7iub3fhmhq6jn62noukt5wxn3gv6bvcg7wmt6ywvlurefezckq</rdf:li>
      </rdf:Bag>
      </dc:creator>
    </rdf:Description>
  </rdf:RDF>
</metadata>
<g transform="translate(0.000000,1000.000000) scale(0.100000,-0.100000)"
fill="#1b1f23" stroke="none">
<path d="M4853 7794 c32 -7 90 -27 130 -43 40 -16 115 -46 167 -67 245 -95
359 -168 595 -379 50 -44 216 -182 370 -305 335 -269 420 -343 521 -457 42
-47 105 -113 140 -145 64 -60 64 -60 -45 101 -60 89 -132 189 -159 224 -87
108 -305 312 -577 537 -82 68 -184 156 -226 194 -43 39 -114 93 -160 120 -168
100 -433 186 -678 220 -134 19 -156 19 -78 0z"/>
<path d="M4720 7596 c-19 -7 -52 -21 -72 -30 -21 -9 -63 -16 -95 -16 -104 0
-316 -30 -423 -59 -58 -16 -120 -33 -139 -36 -31 -7 -32 -8 -15 -18 10 -5 28
-18 40 -29 12 -11 65 -29 128 -43 59 -13 155 -41 214 -61 90 -32 122 -38 197
-39 73 -2 104 -7 165 -32 141 -55 364 -192 702 -431 70 -49 173 -115 230 -147
215 -120 352 -230 589 -471 324 -331 502 -603 669 -1019 60 -151 66 -160 88
-143 42 35 -55 443 -149 630 -122 241 -460 625 -799 908 -47 38 -157 121 -245
182 -88 61 -240 167 -337 235 -234 163 -358 238 -565 340 -95 46 -187 98 -203
115 -38 38 -37 72 2 76 43 5 242 -67 398 -144 176 -87 314 -177 642 -420 421
-311 571 -441 843 -730 176 -187 243 -272 320 -399 26 -44 62 -99 79 -121 17
-23 37 -50 43 -60 36 -55 -99 283 -163 406 -82 160 -274 393 -472 573 -150
138 -793 648 -948 753 -102 69 -259 152 -364 191 -129 49 -288 66 -360 39z"/>
<path d="M5888 7527 c8 -9 60 -51 115 -94 56 -42 147 -112 202 -156 55 -43 80
-60 55 -37 -93 87 -403 326 -372 287z"/>
<path d="M3765 7234 c-46 -22 -48 -24 -20 -24 35 0 77 19 83 38 5 16 -5 14
-63 -14z"/>
<path d="M4531 7156 c-36 -44 20 -106 235 -259 314 -224 500 -391 636 -572 89
-119 141 -177 389 -435 423 -441 532 -594 496 -696 -6 -16 5 -37 51 -95 82
-103 152 -209 152 -231 0 -27 -27 -33 -63 -15 -18 9 -69 49 -115 90 -46 40
-120 95 -165 121 -215 126 -267 169 -724 610 -130 126 -313 297 -407 381 -198
176 -211 190 -257 269 -92 158 -402 361 -641 419 -132 33 -261 17 -292 -36
-15 -25 11 -43 99 -68 243 -71 370 -125 543 -228 145 -87 209 -140 199 -165
-14 -37 -90 -16 -293 81 -104 50 -252 117 -329 148 -171 69 -219 96 -248 141
-25 39 -53 49 -164 58 -105 9 -186 -23 -351 -140 -63 -44 -63 -44 -25 -44 222
-1 322 -9 403 -33 101 -30 405 -153 655 -265 99 -45 217 -94 262 -111 239 -88
410 -221 969 -752 138 -132 268 -253 290 -269 21 -16 68 -39 104 -50 36 -11
93 -36 128 -57 71 -42 298 -237 361 -310 113 -132 217 -425 306 -867 14 -71
31 -139 37 -150 6 -11 14 -31 18 -45 13 -49 45 283 45 464 -1 148 -4 180 -24
249 -33 113 -79 231 -149 381 -46 99 -63 148 -71 205 -13 100 -21 120 -144
370 -151 306 -242 425 -661 858 -119 122 -225 240 -236 262 -24 46 -26 88 -5
96 33 13 538 -479 709 -691 163 -204 237 -328 403 -678 185 -389 215 -459 263
-607 27 -80 60 -167 74 -195 26 -50 26 -50 21 25 -2 41 -7 131 -10 200 -7 134
-29 324 -44 378 -6 18 -33 58 -61 89 -39 43 -79 112 -175 302 -68 135 -155
293 -193 351 -131 200 -332 432 -543 627 -201 185 -318 263 -397 263 -62 0
-84 12 -234 131 -266 212 -512 380 -675 463 -88 45 -134 54 -152 32z"/>
<path d="M3940 7118 c-55 -16 -234 -103 -355 -172 -60 -35 -123 -70 -140 -79
-30 -15 -30 -15 35 -22 66 -7 186 5 295 30 168 39 306 38 430 -1 123 -39 327
-159 470 -276 44 -35 352 -337 685 -669 595 -595 722 -713 808 -751 45 -20 92
-18 92 4 0 33 -120 166 -530 593 -174 182 -381 401 -459 487 -152 169 -318
325 -471 444 -222 173 -449 336 -506 364 -111 54 -262 74 -354 48z"/>
<path d="M3315 6332 c-22 -11 -67 -36 -100 -56 -33 -20 -71 -36 -85 -36 -25
-1 -25 -1 5 -17 22 -12 62 -17 160 -18 159 -3 223 -18 513 -119 369 -130 457
-174 763 -381 353 -239 487 -346 722 -574 212 -205 322 -333 518 -596 255
-342 287 -381 353 -428 83 -59 92 -71 141 -172 78 -160 193 -538 211 -692 6
-50 8 -53 24 -38 34 31 70 214 70 357 0 63 -9 116 -36 218 -19 74 -60 232 -89
350 -62 244 -99 331 -192 455 -72 95 -289 309 -337 332 -43 20 -66 12 -66 -24
0 -37 18 -64 143 -221 203 -253 275 -388 253 -476 -12 -48 -42 -32 -92 47 -69
109 -138 208 -250 359 -56 75 -131 185 -166 245 -57 99 -81 127 -278 324 -299
300 -524 493 -752 645 -243 162 -815 419 -1113 500 -50 14 -132 27 -185 30
-80 4 -101 2 -135 -14z"/>
<path d="M3224 6079 c-23 -11 -50 -29 -59 -39 -31 -34 -13 -48 72 -54 235 -18
298 -35 261 -72 -22 -22 -136 -35 -244 -28 -104 7 -128 -1 -208 -72 -26 -24
-56 -44 -65 -44 -9 -1 10 -12 42 -26 78 -33 192 -36 258 -5 61 27 289 55 389
47 140 -11 395 -84 548 -157 45 -22 82 -45 82 -52 0 -49 -83 -48 -286 3 -226
58 -367 80 -544 87 -125 4 -159 2 -174 -9 -70 -54 113 -130 429 -179 72 -11
195 -35 275 -54 80 -19 198 -43 262 -54 65 -12 146 -32 180 -45 263 -99 526
-305 734 -576 86 -112 88 -116 85 -200 -1 -55 4 -93 20 -144 13 -38 118 -261
235 -495 116 -234 223 -453 237 -486 69 -168 108 -334 114 -490 5 -120 5 -120
-41 -213 -54 -111 -93 -235 -98 -317 -4 -60 -4 -60 51 20 61 89 104 155 141
215 31 52 62 61 97 29 14 -13 33 -36 43 -52 17 -27 17 -27 45 90 50 205 50
202 -49 474 -100 277 -142 376 -237 557 -82 155 -346 607 -430 736 -66 100
-73 126 -34 126 72 0 140 -74 329 -360 275 -415 329 -513 456 -820 98 -239
201 -449 236 -482 30 -28 30 -28 48 77 21 119 18 143 -41 285 -19 47 -59 153
-89 235 -89 244 -135 329 -306 558 -84 112 -200 269 -257 348 -89 124 -145
185 -395 435 -362 361 -488 463 -781 635 -63 37 -126 83 -150 109 -143 157
-245 212 -601 320 -92 28 -202 69 -243 91 -77 40 -184 69 -256 69 -22 0 -59
-9 -81 -21z"/>
<path d="M3084 5514 c-17 -8 -60 -41 -96 -73 -65 -57 -65 -57 -24 -73 23 -9
75 -21 116 -28 121 -20 296 -77 433 -142 75 -35 134 -58 143 -54 19 7 15 60
-8 131 -15 47 -57 73 -208 131 -52 20 -143 56 -202 80 -59 24 -111 44 -115 44
-4 0 -22 -7 -39 -16z"/>
<path d="M3742 5343 c-32 -6 -38 -28 -17 -61 25 -40 65 -73 214 -174 79 -54
144 -106 158 -127 56 -82 159 -283 198 -386 23 -60 67 -171 97 -245 30 -74 72
-178 91 -230 20 -52 58 -131 84 -175 46 -78 48 -81 51 -176 8 -184 -37 -455
-113 -684 -47 -144 -151 -367 -235 -505 -28 -47 -59 -105 -69 -130 -17 -45
-17 -45 80 2 124 62 153 94 251 284 128 249 182 409 247 732 22 108 56 243 76
300 42 121 58 223 49 307 -22 211 -95 394 -218 552 -56 71 -108 112 -230 178
-38 21 -101 68 -140 106 -61 58 -69 70 -60 86 42 66 325 -75 491 -245 149
-153 225 -313 323 -681 26 -101 59 -194 95 -270 60 -130 81 -215 72 -299 -10
-89 -82 -408 -112 -497 -50 -146 -155 -336 -319 -580 -67 -100 -116 -184 -116
-201 0 -4 78 42 157 92 87 56 120 92 226 245 204 298 232 361 262 585 25 195
34 237 50 253 60 61 112 -172 86 -386 -13 -103 -51 -245 -84 -312 -18 -35 -30
-47 -60 -55 -21 -6 -53 -23 -71 -38 -61 -49 -311 -441 -263 -411 51 30 172
128 223 179 45 45 74 86 103 147 23 46 44 87 48 90 3 4 15 0 25 -10 31 -28 24
-104 -18 -198 -20 -44 -47 -107 -60 -140 -24 -60 -24 -60 89 55 158 162 179
196 221 360 49 186 61 303 47 429 -21 174 -47 250 -142 406 -81 132 -276 589
-385 898 -34 98 -77 203 -96 234 -91 151 -237 297 -403 405 -113 73 -197 108
-355 148 -69 17 -199 55 -290 84 -170 55 -218 66 -258 59z m762 -709 c93 -98
193 -301 224 -455 17 -87 11 -140 -19 -170 -30 -30 -44 -12 -74 89 -41 139
-84 248 -152 386 -67 137 -80 196 -43 196 10 0 39 -21 64 -46z"/>
<path d="M3054 5170 c-22 -11 -63 -44 -93 -74 -53 -53 -53 -53 -12 -70 23 -9
60 -16 84 -16 119 0 422 -67 553 -121 84 -35 190 -107 251 -170 69 -74 264
-340 294 -404 38 -81 58 -163 65 -265 3 -47 17 -152 31 -235 65 -382 5 -713
-196 -1075 -52 -94 -86 -170 -76 -170 19 0 156 54 185 74 78 52 229 414 281
676 19 93 23 149 24 290 0 175 0 175 -43 329 -72 258 -119 390 -192 536 -127
258 -228 391 -384 507 -116 87 -147 100 -209 93 -39 -4 -74 0 -142 19 -115 33
-311 82 -351 89 -20 4 -45 -1 -70 -13z"/>
<path d="M3080 4852 c-33 -11 -73 -47 -111 -98 -22 -30 -47 -54 -57 -55 -9 0
6 -6 33 -13 28 -8 122 -16 210 -19 242 -9 379 -53 472 -150 44 -46 57 -74 44
-96 -7 -11 -30 -4 -117 37 -131 61 -186 76 -261 70 -45 -4 -61 -10 -79 -31
-18 -21 -32 -27 -62 -27 -44 0 -79 -31 -132 -117 -17 -29 -39 -53 -48 -53 -14
-1 -13 -3 3 -12 11 -6 38 -26 60 -44 22 -17 67 -45 100 -62 71 -35 86 -51 109
-114 11 -30 44 -77 88 -125 147 -161 209 -263 244 -403 20 -80 14 -268 -11
-345 -9 -27 -25 -80 -34 -116 -17 -66 -17 -66 9 -58 14 5 41 11 61 14 66 10
101 43 127 118 69 208 45 430 -69 625 -45 76 -196 226 -289 287 -96 62 -96 61
-80 80 31 38 151 -1 275 -90 33 -23 99 -83 146 -132 144 -152 198 -290 199
-505 0 -166 -38 -324 -116 -480 -18 -37 -42 -90 -53 -118 -18 -47 -18 -51 -3
-45 9 3 38 10 64 15 68 13 123 44 146 82 36 60 93 217 119 331 36 152 38 379
4 502 -45 167 -77 205 -333 396 -124 93 -197 131 -367 194 -110 41 -164 80
-177 129 -12 48 -39 54 346 -79 137 -48 164 -63 258 -147 48 -44 93 -61 105
-40 3 4 -3 32 -13 63 -9 31 -20 85 -24 119 -9 80 -28 128 -83 213 -96 146
-269 241 -511 281 -119 19 -174 25 -192 18z"/>
<path d="M3949 4343 c0 -5 -2 -57 -3 -118 -2 -109 -2 -109 40 -152 45 -48 55
-51 80 -26 34 34 -4 225 -56 281 -20 21 -59 30 -61 15z"/>
<path d="M3164 3825 c-10 -8 -30 -15 -44 -15 -23 0 -22 -2 17 -42 83 -85 150
-231 168 -366 5 -39 10 -51 18 -43 6 6 21 11 33 11 12 0 36 14 54 30 32 30 33
32 28 101 -9 118 -108 293 -184 325 -43 18 -65 18 -90 -1z"/>
<path d="M4993 3722 c-23 -15 -41 -77 -67 -226 -52 -295 -108 -472 -226 -711
-43 -88 -115 -215 -159 -283 -77 -118 -125 -202 -114 -202 15 0 184 95 217
122 88 72 284 432 355 651 62 192 86 321 86 469 0 113 -2 129 -21 155 -22 29
-50 39 -71 25z"/>
</g>
</svg>
