<?xml version="1.0" standalone="no"?>
<!DOCTYPE svg PUBLIC "-//W3C//DTD SVG 20010904//EN"
 "http://www.w3.org/TR/2001/REC-SVG-20010904/DTD/svg10.dtd">
<svg version="1.0" xmlns="http://www.w3.org/2000/svg"
 width="1000.000000pt" height="1000.000000pt" viewBox="0 0 1000.000000 1000.000000"
 preserveAspectRatio="xMidYMid meet">
<metadata>
  <rdf:RDF
    xmlns:rdf = "http://www.w3.org/1999/02/22-rdf-syntax-ns#"
    xmlns:rdfs = "http://www.w3.org/2000/01/rdf-schema#"
    xmlns:dc = "http://purl.org/dc/elements/1.1/"
    xmlns:cc = "http://creativecommons.org/ns#">
    <cc:license rdf:resource="http://creativecommons.org/publicdomain/zero/1.0/deed.en"/>
    <cc:permits rdf:resource="http://creativecommons.org/ns#Reproduction"/>
    <rdf:Description about="https://nft.mir.one/fingerprints"
      dc:title="TON Fingerprints"
      dc:description="This is a unique digital fingerprint created based on the algorithm for generating basic rings using a noise texture. Like human fingerprints, you can now use it for the Web3 and Metaverse era as digital biometric information."
      dc:publisher="https://nft.mir.one"
      dc:date="2022-02-22"
      dc:format="image/svg+xml"
      dc:language="en" >
      <dc:creator>
      <rdf:Bag>
        <rdf:li>EQBondcvD2_aOFADXSWJHs4ZazQDuEl9_wNvGGPxI8hGuOFU</rdf:li>
        <rdf:li>ipfs://bafkreihj7iub3fhmhq6jn62noukt5wxn3gv6bvcg7wmt6ywvlurefezckq</rdf:li>
      </rdf:Bag>
      </dc:creator>
    </rdf:Description>
  </rdf:RDF>
</metadata>
<g transform="translate(0.000000,1000.000000) scale(0.100000,-0.100000)"
fill="#1b1f23" stroke="none">
<path d="M4778 7803 c12 -2 32 -2 45 0 12 2 2 4 -23 4 -25 0 -35 -2 -22 -4z"/>
<path d="M4963 7803 c26 -2 67 -2 90 0 23 2 2 3 -48 3 -49 0 -68 -1 -42 -3z"/>
<path d="M5180 7785 c47 -8 99 -19 115 -25 20 -8 27 -8 19 0 -13 13 -138 40
-184 39 -19 -1 3 -7 50 -14z"/>
<path d="M5040 7630 c-233 -8 -333 -21 -499 -66 -338 -92 -681 -310 -965 -617
-100 -108 -296 -340 -291 -345 5 -5 104 70 214 163 294 249 518 396 818 536
294 137 451 173 894 204 270 18 363 10 552 -51 108 -34 168 -62 277 -129 84
-51 303 -166 290 -152 -3 3 -88 67 -190 142 -203 151 -321 215 -515 281 -101
34 -120 37 -235 39 -69 2 -226 -1 -350 -5z"/>
<path d="M5068 7360 c-138 -12 -262 -35 -359 -66 -100 -31 -135 -49 -254 -124
-50 -32 -178 -101 -285 -155 -386 -192 -686 -424 -850 -656 -69 -99 -176 -279
-212 -359 -43 -93 -138 -313 -138 -318 0 -8 87 104 167 215 204 282 477 550
718 705 244 158 488 233 673 208 163 -21 179 -27 209 -73 37 -55 107 -90 259
-127 196 -48 279 -60 348 -48 79 12 152 3 250 -33 275 -100 550 -362 687 -654
57 -121 99 -292 106 -432 5 -102 4 -113 -12 -119 -25 -10 -40 14 -65 109 -91
349 -201 552 -407 748 -150 142 -370 272 -483 286 -47 5 -80 -6 -80 -27 0 -24
68 -81 183 -157 223 -147 358 -273 472 -443 74 -111 120 -205 210 -430 84
-208 87 -219 111 -380 27 -188 24 -228 -27 -359 -81 -204 -239 -400 -378 -468
-48 -24 -73 -28 -200 -36 -213 -12 -258 -7 -376 43 -100 43 -100 43 -280 45
-162 1 -190 4 -275 29 -255 72 -255 72 -282 54 -37 -24 -26 -59 35 -114 105
-94 232 -144 592 -231 305 -74 395 -85 516 -60 202 42 362 129 510 276 118
119 204 247 302 451 41 85 95 190 120 233 83 144 124 319 134 577 7 204 32
266 72 184 11 -20 16 -76 19 -186 8 -304 -39 -486 -223 -847 -124 -243 -239
-406 -394 -553 -93 -89 -215 -183 -304 -232 -106 -60 -192 -90 -420 -151 -40
-11 -72 -28 -100 -54 -23 -21 -55 -45 -72 -53 -97 -49 -291 -50 -485 -1 -92
23 -142 46 -188 87 -45 41 -115 75 -153 76 -57 0 -168 69 -271 168 -248 238
-441 582 -493 876 -38 219 0 484 72 494 28 4 32 -19 28 -158 -7 -248 42 -453
154 -643 58 -99 238 -342 316 -425 80 -87 154 -137 330 -225 220 -111 328
-142 530 -153 146 -8 230 23 199 74 -21 33 -73 53 -285 106 -242 61 -372 112
-493 196 -91 63 -121 96 -153 170 -71 164 -137 251 -223 295 -133 67 -200 222
-240 552 -14 112 -28 184 -46 231 -22 57 -25 78 -21 137 14 178 104 335 288
501 35 31 148 113 251 181 219 144 260 160 397 149 278 -23 589 -182 837 -430
126 -127 294 -346 352 -461 95 -190 113 -419 50 -623 -40 -131 -133 -286 -223
-372 -20 -19 -43 -48 -52 -64 -13 -25 -13 -30 1 -44 13 -13 21 -14 55 -3 126
37 296 258 363 471 30 98 32 292 4 415 -36 157 -116 345 -218 509 -120 194
-262 343 -465 486 -65 46 -161 113 -213 150 -142 101 -125 94 -515 211 -287
86 -309 91 -430 86 -195 -8 -379 -92 -608 -277 -223 -179 -524 -530 -606 -705
-90 -193 -146 -464 -157 -760 -3 -88 -12 -183 -20 -212 -19 -70 -18 -80 7 -49
22 29 60 34 78 12 7 -8 23 -72 35 -143 105 -571 314 -1003 692 -1427 361 -407
549 -544 940 -690 40 -15 79 -35 89 -46 15 -17 16 -22 2 -49 -15 -30 -15 -30
34 -24 36 4 55 1 74 -11 26 -17 26 -17 14 6 -35 67 -97 141 -143 171 -28 19
-103 60 -166 93 -95 48 -128 71 -191 135 -42 42 -103 97 -135 122 -73 56 -110
95 -122 127 -22 59 8 63 129 19 59 -22 121 -36 206 -45 67 -8 184 -30 260 -50
295 -77 367 -93 459 -105 177 -22 346 4 419 64 48 39 95 113 95 148 0 58 -34
60 -205 16 -195 -51 -350 -46 -695 20 -102 19 -255 48 -340 64 -85 17 -206 36
-267 44 -133 16 -168 31 -279 119 -200 161 -418 448 -556 735 -71 149 -111
258 -174 476 -36 128 -68 216 -97 270 -42 80 -42 80 -41 205 2 251 87 519 234
735 98 144 451 513 590 616 172 128 331 199 446 199 73 0 117 -25 98 -57 -6
-10 -73 -49 -150 -88 -237 -119 -364 -221 -564 -455 -80 -94 -129 -142 -182
-177 -88 -59 -150 -133 -206 -247 -83 -168 -117 -334 -109 -526 4 -113 10
-142 55 -295 28 -93 67 -217 87 -274 161 -460 456 -864 746 -1020 98 -53 163
-75 339 -116 438 -101 712 -126 1017 -90 70 8 162 14 203 13 87 -3 112 8 243
111 127 101 231 164 442 266 194 95 202 100 280 179 84 85 170 206 225 316 50
98 161 359 142 330 -9 -13 -31 -43 -47 -65 -17 -22 -64 -89 -105 -150 -162
-238 -438 -473 -543 -463 -57 5 -46 36 40 103 188 147 394 384 482 555 152
293 255 827 223 1155 -9 90 -9 90 -11 -22 -3 -238 -90 -578 -215 -838 -120
-249 -235 -416 -440 -635 -130 -139 -167 -187 -185 -242 -19 -57 -45 -84 -156
-158 -296 -198 -524 -274 -860 -287 -176 -6 -294 4 -500 42 -239 45 -370 92
-502 179 -343 225 -619 652 -756 1165 -29 109 -31 127 -31 296 0 154 3 191 22
259 37 133 147 344 188 360 20 8 44 -22 44 -56 0 -16 -20 -81 -45 -144 -75
-188 -80 -217 -79 -409 1 -156 3 -179 31 -285 98 -368 315 -724 580 -951 186
-159 258 -205 368 -233 287 -73 593 -95 792 -57 211 40 480 148 648 259 75 50
341 314 464 462 229 273 440 710 487 1009 12 77 15 143 12 250 -7 186 -25 263
-87 370 -27 46 -63 124 -81 174 -35 103 -125 296 -173 372 -192 306 -550 582
-911 699 -168 55 -283 71 -511 70 -190 0 -222 -3 -335 -27 -141 -30 -197 -34
-226 -13 -15 12 -17 19 -8 33 61 100 474 177 779 144 341 -37 604 -150 938
-403 119 -90 285 -260 346 -353 66 -102 158 -281 209 -410 22 -55 64 -149 92
-209 28 -59 60 -140 70 -180 10 -39 19 -62 19 -50 2 53 -117 433 -195 620 -51
124 -143 304 -205 399 -62 95 -314 352 -434 442 -213 159 -400 247 -628 294
-118 24 -354 33 -509 19z m320 -485 c189 -29 375 -94 521 -181 318 -189 554
-468 657 -774 28 -83 29 -89 28 -295 -2 -221 -11 -303 -60 -506 -26 -110 -53
-169 -79 -169 -22 0 -28 43 -22 155 5 67 16 131 32 183 32 103 40 208 26 347
-15 147 -41 237 -106 371 -178 367 -552 654 -935 718 -135 22 -371 46 -533 53
-75 3 -144 11 -153 17 -38 29 33 80 134 96 80 13 367 4 490 -15z m-860 -3251
c28 -18 24 -38 -8 -42 -42 -7 -90 33 -74 60 7 12 50 2 82 -18z"/>
<path d="M4705 6064 c-215 -46 -491 -256 -593 -452 -57 -110 -72 -174 -72
-314 0 -330 82 -658 177 -709 62 -33 75 31 39 196 -14 67 -31 162 -37 211 -14
108 -6 287 16 368 38 137 131 273 245 360 176 132 381 174 585 121 71 -18 206
-81 273 -127 115 -78 220 -203 263 -309 27 -69 66 -238 85 -364 15 -101 30
-133 58 -122 18 7 36 67 36 122 0 22 -10 102 -22 178 -22 136 -22 138 -3 173
19 36 19 36 -14 100 -119 229 -389 451 -656 538 -146 47 -256 56 -380 30z"/>
<path d="M4850 5700 c-245 -34 -440 -226 -486 -480 -21 -113 -13 -254 21 -390
58 -230 120 -301 315 -361 88 -27 222 -32 284 -10 84 29 183 152 225 278 38
114 23 254 -31 287 -31 19 -48 -10 -48 -83 0 -79 -29 -147 -85 -203 -51 -51
-99 -71 -176 -76 -313 -19 -455 460 -213 718 30 33 74 64 122 87 67 34 84 38
171 41 153 6 263 -39 378 -156 111 -112 200 -333 210 -523 5 -81 2 -111 -22
-205 -15 -60 -43 -148 -63 -196 -29 -72 -33 -90 -22 -103 21 -26 81 -19 135
17 35 23 58 31 82 29 88 -7 254 254 309 487 35 146 13 355 -49 479 -29 56 -52
79 -89 88 -36 9 -36 6 3 -125 23 -78 33 -133 36 -214 6 -110 6 -110 -48 -270
-59 -176 -175 -421 -199 -421 -30 0 -23 78 19 207 22 68 43 150 46 184 6 53 4
68 -18 115 -15 30 -42 113 -61 186 -43 161 -73 237 -128 320 -129 199 -393
324 -618 293z"/>
<path d="M7042 5535 c0 -16 2 -22 5 -12 2 9 2 23 0 30 -3 6 -5 -1 -5 -18z"/>
<path d="M4881 5339 c-65 -26 -134 -92 -164 -157 -32 -70 -31 -181 4 -247 66
-129 231 -153 311 -44 25 33 35 104 18 124 -19 22 -39 18 -50 -10 -20 -52
-110 -13 -110 47 0 64 74 128 148 128 87 0 204 -76 247 -160 60 -118 55 -234
-21 -458 -47 -140 -52 -193 -18 -206 20 -8 68 17 86 46 25 40 58 130 84 227
60 230 7 458 -141 607 -82 83 -155 116 -260 121 -64 2 -91 -1 -134 -18z"/>
<path d="M2931 4544 c0 -11 3 -14 6 -6 3 7 2 16 -1 19 -3 4 -6 -2 -5 -13z"/>
<path d="M6731 3509 c-29 -16 -85 -48 -125 -72 -39 -25 -136 -79 -216 -122
-252 -134 -361 -217 -396 -301 -25 -60 -14 -104 28 -104 10 0 47 27 83 60 36
32 92 74 123 91 168 95 328 224 470 378 52 56 92 100 90 100 -2 -1 -27 -15
-57 -30z"/>
<path d="M3320 3325 c145 -245 325 -479 497 -645 98 -95 98 -95 -3 10 -146
152 -257 295 -423 545 -77 115 -111 159 -71 90z"/>
<path d="M6455 3043 c-78 -24 -314 -125 -326 -140 -16 -18 -4 -43 20 -43 43 0
134 44 252 120 67 44 118 80 113 79 -5 0 -31 -8 -59 -16z"/>
<path d="M5914 2801 c-23 -11 -60 -36 -83 -57 -35 -31 -41 -43 -39 -68 3 -29
6 -31 48 -34 24 -2 65 2 90 8 51 12 267 70 290 77 8 3 -14 13 -50 22 -36 10
-92 29 -124 44 -69 32 -78 32 -132 8z"/>
<path d="M4483 2733 c-7 -2 -13 -15 -13 -28 0 -31 55 -69 196 -135 60 -28 155
-78 210 -111 56 -33 127 -69 159 -80 145 -51 346 -46 630 17 221 48 214 46
190 51 -11 2 -38 11 -60 20 -29 11 -104 17 -270 24 -299 11 -323 16 -652 140
-253 95 -347 120 -390 102z"/>
<path d="M3930 2576 c0 -2 8 -10 18 -17 15 -13 16 -12 3 4 -13 16 -21 21 -21
13z"/>
<path d="M4708 2213 c12 -2 32 -2 45 0 12 2 2 4 -23 4 -25 0 -35 -2 -22 -4z"/>
</g>
</svg>
