<?xml version="1.0" standalone="no"?>
<!DOCTYPE svg PUBLIC "-//W3C//DTD SVG 20010904//EN"
 "http://www.w3.org/TR/2001/REC-SVG-20010904/DTD/svg10.dtd">
<svg version="1.0" xmlns="http://www.w3.org/2000/svg"
 width="1000.000000pt" height="1000.000000pt" viewBox="0 0 1000.000000 1000.000000"
 preserveAspectRatio="xMidYMid meet">
<metadata>
  <rdf:RDF
    xmlns:rdf = "http://www.w3.org/1999/02/22-rdf-syntax-ns#"
    xmlns:rdfs = "http://www.w3.org/2000/01/rdf-schema#"
    xmlns:dc = "http://purl.org/dc/elements/1.1/"
    xmlns:cc = "http://creativecommons.org/ns#">
    <cc:license rdf:resource="http://creativecommons.org/publicdomain/zero/1.0/deed.en"/>
    <cc:permits rdf:resource="http://creativecommons.org/ns#Reproduction"/>
    <rdf:Description about="https://nft.mir.one/fingerprints"
      dc:title="TON Fingerprints"
      dc:description="This is a unique digital fingerprint created based on the algorithm for generating basic rings using a noise texture. Like human fingerprints, you can now use it for the Web3 and Metaverse era as digital biometric information."
      dc:publisher="https://nft.mir.one"
      dc:date="2022-02-22"
      dc:format="image/svg+xml"
      dc:language="en" >
      <dc:creator>
      <rdf:Bag>
        <rdf:li>EQBondcvD2_aOFADXSWJHs4ZazQDuEl9_wNvGGPxI8hGuOFU</rdf:li>
        <rdf:li>ipfs://bafkreihj7iub3fhmhq6jn62noukt5wxn3gv6bvcg7wmt6ywvlurefezckq</rdf:li>
      </rdf:Bag>
      </dc:creator>
    </rdf:Description>
  </rdf:RDF>
</metadata>
<g transform="translate(0.000000,1000.000000) scale(0.100000,-0.100000)"
fill="#1b1f23" stroke="none">
<path d="M5420 7761 c0 -12 52 -35 122 -55 85 -24 82 -18 -7 14 -44 16 -88 34
-97 40 -10 6 -18 6 -18 1z"/>
<path d="M5327 7728 c-3 -10 -80 -13 -343 -13 -330 0 -343 -1 -474 -28 -330
-67 -340 -64 245 -62 512 2 521 2 570 24 66 29 78 47 49 75 -19 19 -41 21 -47
4z"/>
<path d="M4611 7459 c-177 -10 -298 -31 -416 -70 -150 -49 -342 -151 -503
-266 -81 -57 -151 -109 -156 -113 -10 -10 95 23 314 99 217 75 439 111 885
142 235 16 576 7 725 -20 234 -41 393 -101 549 -205 132 -88 215 -167 340
-320 58 -72 149 -174 202 -226 84 -85 101 -107 146 -200 136 -282 201 -610
174 -891 -31 -328 -130 -594 -334 -902 -101 -151 -126 -211 -93 -223 71 -27
281 208 401 451 100 202 130 353 129 660 -1 349 -66 644 -221 994 -41 93 -57
144 -63 196 -7 62 -37 171 -45 163 -2 -2 4 -31 13 -65 14 -53 14 -65 2 -87
-29 -55 -61 -27 -185 164 -137 212 -291 381 -465 510 -100 74 -272 159 -385
191 -76 22 -98 23 -475 25 -217 1 -460 -2 -539 -7z"/>
<path d="M4735 7060 c-71 -11 -218 -24 -325 -30 -107 -5 -233 -15 -280 -20
-145 -18 -335 -68 -425 -112 -55 -28 -170 -115 -251 -190 -60 -57 -272 -298
-261 -298 9 0 124 75 212 137 281 200 613 290 877 239 157 -31 233 -68 348
-171 95 -84 127 -103 290 -170 166 -68 190 -83 375 -218 183 -133 236 -183
331 -310 240 -319 344 -642 290 -898 -16 -74 -52 -149 -157 -330 -120 -207
-129 -223 -129 -250 -1 -131 242 121 360 373 104 222 105 437 4 729 -48 140
-106 259 -204 414 -126 200 -153 262 -164 384 -13 137 -108 226 -269 252 -68
11 -474 132 -517 154 -61 31 -65 67 -10 99 101 60 554 -15 698 -114 26 -18 65
-55 87 -83 69 -88 196 -216 259 -261 85 -61 207 -191 272 -291 136 -209 211
-436 221 -677 6 -115 5 -118 -15 -118 -33 0 -49 36 -92 201 -60 236 -99 339
-185 484 -134 225 -293 361 -303 258 -4 -38 0 -46 97 -193 142 -217 210 -372
284 -650 36 -136 41 -168 40 -260 0 -127 -23 -221 -87 -356 -81 -170 -142
-247 -351 -443 -78 -73 -78 -73 -176 -69 -78 3 -102 7 -118 22 -28 25 -27 31
15 79 21 24 59 95 90 167 111 256 120 300 84 376 -11 23 -30 90 -41 149 -51
269 -173 464 -361 578 -97 59 -181 80 -292 75 -84 -3 -102 -8 -172 -42 -152
-75 -274 -228 -325 -411 -31 -108 -31 -284 0 -399 57 -213 180 -370 361 -460
83 -40 138 -58 312 -98 22 -5 68 -35 120 -78 107 -89 184 -134 283 -166 99
-32 254 -43 347 -24 182 35 362 162 448 315 18 33 65 112 103 175 130 212 218
423 276 655 80 323 37 695 -117 1000 -48 97 -94 162 -206 292 -211 247 -329
353 -473 424 -83 41 -356 117 -558 154 -141 27 -457 29 -620 5z m1133 -319
c127 -64 346 -273 478 -457 117 -163 206 -371 239 -561 19 -107 19 -297 1
-383 -21 -98 -103 -361 -148 -475 -152 -384 -383 -646 -582 -662 -50 -4 -65
-2 -85 14 -27 22 -23 53 6 53 46 0 164 71 241 144 172 164 298 415 355 706 19
94 30 126 53 157 46 59 56 91 61 193 6 117 -14 245 -62 387 -89 266 -253 487
-541 729 -136 114 -169 151 -153 170 18 22 75 16 137 -15z m-409 -327 c96 -72
113 -114 47 -114 -57 0 -166 85 -166 130 0 46 45 40 119 -16z m-376 -909 c164
-34 304 -170 373 -361 28 -75 54 -215 54 -284 0 -73 -35 -193 -90 -309 -77
-160 -121 -207 -169 -182 -35 19 -27 66 37 192 72 143 92 204 99 301 15 198
-83 390 -236 465 -47 24 -69 28 -136 28 -71 0 -86 -4 -135 -31 -167 -94 -214
-332 -93 -473 112 -131 298 -100 334 57 13 58 -6 110 -49 135 -50 29 -77 14
-77 -44 0 -34 -4 -44 -18 -47 -34 -7 -67 8 -82 38 -46 89 28 190 141 190 74 0
138 -45 179 -124 26 -51 30 -70 29 -136 0 -64 -6 -87 -32 -143 -99 -213 -316
-246 -485 -75 -92 94 -137 207 -137 348 0 229 142 420 342 459 62 13 76 12
151 -4z"/>
<path d="M3919 6634 c-201 -36 -443 -166 -577 -309 -113 -120 -233 -322 -338
-568 -35 -82 -35 -82 3 -38 21 25 68 85 104 133 190 256 402 450 604 555 132
68 170 75 404 77 206 1 206 1 209 27 6 54 -66 108 -173 128 -75 14 -141 13
-236 -5z"/>
<path d="M4210 6387 c-39 -15 -70 -37 -105 -75 -27 -30 -125 -131 -216 -226
-91 -94 -216 -227 -277 -296 -62 -69 -132 -145 -158 -170 -165 -163 -284 -492
-284 -783 0 -282 144 -743 329 -1055 196 -331 462 -587 692 -665 634 -215 821
-260 1089 -260 175 -1 221 8 333 60 95 45 111 38 85 -35 -17 -45 -17 -48 2
-67 20 -19 20 -19 127 3 86 17 128 20 203 16 86 -5 102 -4 165 20 39 14 117
50 173 79 104 54 104 54 45 49 -32 -2 -103 -15 -158 -28 -55 -14 -128 -27
-162 -31 -53 -5 -63 -3 -63 10 0 49 33 71 187 125 145 51 331 164 466 283 16
13 -107 -18 -328 -84 -226 -68 -284 -89 -417 -151 -124 -57 -175 -69 -249 -56
-48 7 -108 6 -244 -6 -308 -27 -542 2 -875 108 -335 107 -494 193 -672 366
-256 247 -431 567 -528 965 -82 332 -58 619 71 884 63 127 155 211 175 159 3
-8 -20 -72 -51 -141 -99 -225 -133 -393 -122 -596 29 -509 314 -1046 686
-1294 216 -144 568 -271 841 -305 228 -28 706 11 920 74 178 53 370 106 495
135 71 18 147 42 170 55 59 36 181 143 252 223 63 71 63 71 15 53 -26 -10 -90
-41 -142 -69 -110 -58 -257 -110 -321 -113 -24 -1 -73 2 -109 6 -60 8 -77 5
-220 -38 -197 -58 -287 -77 -628 -126 -411 -59 -463 -56 -781 50 -196 65 -373
152 -480 234 -143 110 -296 305 -383 485 -54 114 -122 322 -149 461 -18 90
-23 149 -23 270 0 179 15 262 70 385 56 125 63 148 70 236 12 140 85 261 323
539 63 74 147 169 187 210 39 42 76 86 83 98 29 54 -15 66 -109 29z"/>
<path d="M3920 6376 c-61 -16 -168 -75 -260 -143 -166 -123 -453 -439 -520
-572 -69 -137 -126 -335 -156 -540 -12 -87 -15 -160 -11 -300 4 -184 5 -188
56 -391 100 -394 151 -542 267 -771 145 -286 278 -464 548 -735 111 -110 232
-223 270 -251 136 -101 277 -170 511 -253 66 -23 158 -62 205 -87 73 -37 99
-45 180 -54 106 -12 288 -6 425 16 154 23 235 38 232 41 -2 2 -113 8 -248 14
-274 12 -382 29 -500 80 -41 17 -164 70 -273 116 -388 164 -490 231 -535 354
-14 37 -36 60 -135 141 -209 171 -354 329 -495 539 -154 229 -253 457 -356
815 -79 275 -89 335 -81 490 16 316 132 605 349 865 107 128 360 378 462 455
156 119 181 151 136 175 -11 5 -21 10 -23 9 -2 0 -23 -6 -48 -13z"/>
<path d="M4404 6342 c-6 -4 -25 -34 -43 -68 -18 -33 -92 -138 -165 -232 -211
-271 -280 -390 -311 -540 -20 -91 -19 -139 5 -224 11 -40 26 -145 34 -233 32
-335 97 -470 246 -512 57 -16 65 -22 210 -174 218 -228 286 -276 566 -397 263
-114 374 -186 374 -242 0 -45 -56 -34 -221 44 -118 55 -173 76 -319 120 -144
43 -284 151 -487 378 -169 188 -215 225 -248 198 -22 -18 -19 -40 15 -106 49
-99 166 -243 353 -438 130 -136 189 -204 215 -253 61 -111 182 -178 344 -190
70 -5 81 -3 141 25 36 17 91 35 121 42 30 6 81 20 112 31 32 11 98 25 148 30
367 37 491 69 626 159 30 20 106 71 168 113 62 42 173 110 245 151 176 100
276 175 325 245 50 70 102 174 136 271 30 82 100 340 94 345 -2 2 -37 -60 -77
-138 -104 -198 -172 -297 -276 -403 -98 -100 -171 -147 -254 -166 -38 -8 -93
-37 -190 -101 -263 -171 -395 -220 -596 -220 -152 0 -194 14 -410 133 -88 48
-233 121 -322 162 -193 90 -306 163 -405 262 -91 92 -140 174 -178 296 -88
282 -91 509 -10 718 68 176 226 354 382 432 74 36 97 43 169 47 319 20 657
-275 755 -659 9 -35 22 -124 28 -198 11 -134 11 -135 36 -135 19 0 31 11 50
45 23 42 25 54 24 180 0 117 -4 146 -27 223 -96 313 -320 583 -604 730 -172
89 -336 111 -443 59 -129 -63 -381 -355 -485 -561 -63 -126 -87 -240 -88 -416
0 -160 14 -258 59 -415 30 -106 32 -170 5 -170 -58 0 -147 221 -170 420 -31
260 -24 397 28 547 39 113 92 202 236 396 138 186 175 252 175 311 0 47 -6 58
-37 75 -25 13 -43 14 -59 3z m495 -2626 c156 -60 211 -94 211 -128 0 -23 -39
-24 -122 -3 -124 33 -238 102 -238 146 0 29 47 24 149 -15z"/>
<path d="M3751 5257 c-43 -53 -69 -263 -52 -429 30 -292 126 -582 255 -777
102 -152 278 -323 360 -351 65 -21 98 23 59 80 -9 14 -60 70 -113 125 -189
196 -295 367 -325 525 -9 47 -28 123 -42 169 -49 164 -64 259 -70 446 -3 99
-9 190 -14 203 -9 24 -40 29 -58 9z"/>
<path d="M6965 4164 c-27 -19 -86 -60 -130 -93 -77 -57 -146 -100 -390 -242
-113 -66 -195 -134 -195 -161 0 -28 27 -41 71 -34 50 8 235 89 327 144 81 48
189 159 263 268 29 44 65 96 81 117 17 20 28 37 26 36 -1 -1 -25 -16 -53 -35z"/>
<path d="M4455 3659 c-13 -20 5 -57 35 -69 36 -15 60 -7 60 19 0 38 -78 79
-95 50z"/>
<path d="M3450 3096 c0 -2 8 -10 18 -17 15 -13 16 -12 3 4 -13 16 -21 21 -21
13z"/>
<path d="M3490 3046 c0 -2 8 -10 18 -17 15 -13 16 -12 3 4 -13 16 -21 21 -21
13z"/>
<path d="M3561 2960 c131 -162 343 -357 496 -457 236 -154 611 -288 719 -258
24 7 16 10 -51 16 -128 12 -394 103 -545 187 -204 113 -343 227 -569 467 -52
55 -74 75 -50 45z"/>
<path d="M4180 2962 c-23 -19 -23 -19 16 -58 72 -71 321 -185 639 -294 215
-73 308 -90 515 -97 135 -4 198 -1 275 11 129 21 301 66 442 115 112 39 112
39 65 45 -26 3 -134 6 -240 6 -106 -1 -197 2 -204 6 -6 4 -131 8 -277 9 -233
1 -280 4 -374 24 -156 32 -322 82 -525 158 -175 65 -262 93 -293 93 -9 0 -27
-8 -39 -18z"/>
</g>
</svg>
