<?xml version="1.0" standalone="no"?>
<!DOCTYPE svg PUBLIC "-//W3C//DTD SVG 20010904//EN"
 "http://www.w3.org/TR/2001/REC-SVG-20010904/DTD/svg10.dtd">
<svg version="1.0" xmlns="http://www.w3.org/2000/svg"
 width="1000.000000pt" height="1000.000000pt" viewBox="0 0 1000.000000 1000.000000"
 preserveAspectRatio="xMidYMid meet">
<metadata>
  <rdf:RDF
    xmlns:rdf = "http://www.w3.org/1999/02/22-rdf-syntax-ns#"
    xmlns:rdfs = "http://www.w3.org/2000/01/rdf-schema#"
    xmlns:dc = "http://purl.org/dc/elements/1.1/"
    xmlns:cc = "http://creativecommons.org/ns#">
    <cc:license rdf:resource="http://creativecommons.org/publicdomain/zero/1.0/deed.en"/>
    <cc:permits rdf:resource="http://creativecommons.org/ns#Reproduction"/>
    <rdf:Description about="https://nft.mir.one/fingerprints"
      dc:title="TON Fingerprints"
      dc:description="This is a unique digital fingerprint created based on the algorithm for generating basic rings using a noise texture. Like human fingerprints, you can now use it for the Web3 and Metaverse era as digital biometric information."
      dc:publisher="https://nft.mir.one"
      dc:date="2022-02-22"
      dc:format="image/svg+xml"
      dc:language="en" >
      <dc:creator>
      <rdf:Bag>
        <rdf:li>EQBondcvD2_aOFADXSWJHs4ZazQDuEl9_wNvGGPxI8hGuOFU</rdf:li>
        <rdf:li>ipfs://bafkreihj7iub3fhmhq6jn62noukt5wxn3gv6bvcg7wmt6ywvlurefezckq</rdf:li>
      </rdf:Bag>
      </dc:creator>
    </rdf:Description>
  </rdf:RDF>
</metadata>
<g transform="translate(0.000000,1000.000000) scale(0.100000,-0.100000)"
fill="#1b1f23" stroke="none">
<path d="M4875 7723 c-16 -2 -106 -15 -200 -29 -93 -14 -211 -28 -262 -31 -92
-6 -92 -6 -40 -32 58 -28 4 -27 622 -20 256 3 294 1 329 -14 40 -18 141 -23
164 -8 20 12 -4 27 -58 36 -50 8 -80 24 -80 42 0 23 44 43 94 43 27 0 47 3 43
6 -6 6 -563 13 -612 7z"/>
<path d="M5528 7545 c-4 -4 -37 -14 -75 -23 -57 -14 -69 -21 -71 -40 -5 -32
39 -48 168 -61 116 -11 240 -44 364 -95 62 -26 407 -189 471 -224 21 -11 -12
16 -94 78 -189 142 -459 296 -606 345 -57 19 -147 31 -157 20z"/>
<path d="M4230 7503 c-14 -2 -83 -21 -155 -41 -130 -37 -130 -37 -75 -43 62
-7 237 15 287 36 35 15 43 39 17 49 -16 6 -32 6 -74 -1z"/>
<path d="M4715 7449 c-188 -9 -247 -20 -344 -63 -42 -20 -135 -51 -207 -70
-177 -47 -276 -85 -432 -164 -125 -63 -131 -67 -98 -70 20 -2 93 8 164 22 70
14 181 35 247 46 66 12 209 39 318 61 327 65 601 70 865 14 538 -114 942 -257
942 -334 0 -41 -43 -35 -282 39 -419 131 -722 183 -1068 183 -209 -1 -252 -5
-605 -59 -520 -80 -558 -95 -750 -290 -66 -66 -140 -134 -164 -150 -44 -29
-44 -29 -10 -37 69 -16 467 -7 689 16 174 17 279 21 550 22 440 0 564 -16 642
-85 60 -52 89 -65 300 -136 219 -74 299 -109 447 -199 138 -82 232 -125 360
-164 56 -17 145 -44 199 -61 119 -36 246 -96 297 -141 21 -19 57 -64 81 -100
60 -95 98 -134 159 -167 54 -30 54 -30 31 2 -29 38 -91 161 -100 198 -3 15 -2
29 3 32 5 3 7 15 4 26 -4 14 3 30 17 45 19 21 21 25 7 25 -9 0 -47 41 -86 93
-102 136 -166 206 -238 261 -35 26 -86 76 -113 110 -72 92 -192 169 -345 224
-88 32 -533 156 -655 184 -103 23 -115 23 -645 23 -565 0 -592 -1 -975 -51
-305 -40 -398 -36 -370 16 21 40 180 80 490 124 346 50 480 60 775 60 451 0
599 -19 994 -123 124 -33 274 -67 333 -76 59 -9 125 -22 146 -29 69 -25 196
-93 302 -163 58 -38 125 -74 150 -81 24 -6 45 -10 47 -9 6 7 -208 236 -292
312 -55 50 -142 131 -195 181 -53 50 -125 110 -159 134 -121 82 -314 155 -575
219 -94 23 -201 57 -244 76 -104 48 -172 64 -320 75 -70 5 -129 9 -132 8 -3
-1 -72 -4 -155 -9z m790 -820 c205 -41 740 -236 889 -323 58 -34 67 -53 37
-78 -50 -40 -129 -19 -435 111 -245 105 -448 174 -611 211 -169 37 -175 39
-175 60 0 51 100 58 295 19z"/>
<path d="M4175 6479 c-214 -13 -645 -58 -717 -75 -96 -22 -142 -57 -323 -244
-60 -62 -60 -62 -15 -55 25 4 88 24 140 45 310 123 617 171 1089 171 247 -1
386 -11 566 -41 146 -25 544 -123 651 -161 105 -37 236 -100 241 -116 2 -6 -8
-20 -23 -29 -26 -17 -29 -17 -88 5 -98 37 -226 67 -461 110 -468 84 -699 106
-1044 98 -311 -7 -514 -38 -741 -114 -217 -72 -282 -117 -377 -262 -39 -59
-95 -150 -101 -163 -10 -20 73 23 153 80 174 124 402 217 651 266 259 50 467
56 764 21 201 -23 811 -84 985 -97 139 -11 160 -15 163 -31 3 -13 -10 -23 -45
-39 -42 -19 -71 -22 -227 -26 -314 -8 -760 22 -958 65 -216 46 -481 33 -756
-38 -128 -33 -292 -94 -369 -139 -61 -35 -276 -230 -318 -289 -16 -24 -47 -64
-67 -91 -37 -48 -37 -48 10 -30 26 10 77 32 114 49 81 39 141 40 146 4 3 -17
-8 -30 -44 -55 -104 -72 -144 -120 -228 -271 -38 -68 -38 -68 3 -47 23 11 112
73 198 138 244 183 252 189 359 232 224 89 442 149 639 175 188 25 257 41 334
75 40 17 98 36 129 41 31 5 226 14 432 19 405 10 464 16 630 70 163 53 302 52
332 -3 14 -27 -7 -43 -81 -58 -210 -43 -280 -62 -352 -94 -91 -41 -127 -46
-554 -65 -240 -11 -321 -22 -495 -64 -89 -21 -125 -25 -235 -23 -157 2 -230
-12 -463 -89 -250 -82 -369 -142 -587 -297 -160 -113 -179 -134 -246 -274 -33
-67 -59 -124 -59 -127 0 -12 85 48 155 108 84 73 253 197 350 256 167 103 431
214 678 285 139 41 197 45 197 16 0 -36 -66 -72 -297 -163 -362 -142 -576
-256 -763 -407 -153 -123 -169 -145 -239 -329 -37 -99 -37 -99 -2 -78 20 11
106 89 191 172 104 101 188 173 251 214 105 69 324 179 529 265 208 87 283
122 388 182 121 68 186 96 287 122 166 42 298 55 550 55 232 0 243 -1 335 -27
52 -15 163 -41 245 -57 335 -65 455 -102 623 -191 174 -92 321 -199 497 -363
55 -51 114 -100 131 -109 31 -16 31 -16 -2 91 -19 59 -52 144 -73 188 -36 76
-46 87 -133 157 -231 185 -450 300 -653 343 -38 8 -155 19 -259 25 -202 10
-270 21 -298 46 -41 37 -10 51 155 69 73 8 173 22 222 30 115 20 196 20 281
-1 182 -46 365 -152 626 -361 71 -57 135 -104 141 -104 7 0 22 -7 35 -15 34
-25 -128 311 -185 382 -33 40 -220 187 -301 236 -43 26 -148 76 -233 111 -85
35 -229 100 -321 145 -165 80 -168 82 -192 129 -32 63 -78 103 -168 146 -109
51 -664 234 -765 251 -189 32 -461 41 -738 24z m213 -723 c37 -19 47 -43 24
-55 -25 -13 -65 -20 -192 -31 -228 -21 -386 -56 -668 -145 -153 -48 -239 -58
-262 -30 -25 30 -6 49 85 87 218 91 497 165 705 188 115 12 272 5 308 -14z"/>
<path d="M4950 5179 c-238 -29 -323 -55 -720 -226 -733 -315 -835 -372 -904
-503 -29 -55 -49 -78 -104 -118 -73 -55 -75 -57 -143 -184 -46 -87 -46 -87
-15 -81 17 3 92 38 166 78 74 40 180 91 235 114 134 57 240 127 240 161 0 23
-4 25 -45 25 -27 -1 -76 -14 -123 -33 -42 -18 -93 -33 -112 -34 -42 -2 -64 14
-47 35 23 27 192 108 327 156 77 27 230 90 340 139 451 203 711 279 1028 302
265 20 563 -16 812 -96 97 -32 437 -207 555 -286 109 -72 154 -116 330 -321
88 -101 160 -175 182 -187 37 -19 37 -19 29 4 -5 12 -17 62 -26 110 -24 132
-60 236 -96 280 -108 130 -379 330 -579 429 -200 97 -341 141 -675 208 -144
28 -181 32 -370 35 -115 1 -244 -2 -285 -7z"/>
<path d="M4940 4855 c-304 -44 -720 -184 -1005 -340 -107 -58 -140 -86 -170
-144 -45 -88 -131 -153 -380 -290 -82 -45 -160 -94 -172 -109 -13 -15 -37 -56
-54 -92 -18 -36 -38 -72 -45 -81 -13 -14 -9 -14 45 -3 99 20 156 43 253 101
174 105 309 208 405 312 149 159 296 243 621 350 341 114 553 146 902 138 182
-4 264 -11 429 -36 112 -17 206 -31 210 -31 3 0 12 -4 20 -9 23 -14 -4 -48
-54 -67 -41 -15 -65 -16 -228 -8 -100 5 -301 9 -447 8 -230 0 -282 -3 -395
-23 -387 -68 -809 -227 -941 -355 -42 -41 -55 -60 -52 -77 5 -39 45 -34 184
21 357 143 682 229 974 260 128 13 394 12 565 -2 220 -18 368 -16 450 6 88 23
157 17 274 -25 191 -68 181 -66 196 -45 20 27 2 67 -55 120 -61 57 -166 110
-310 156 -111 36 -116 39 -138 79 -33 58 -73 85 -179 120 -164 56 -289 72
-563 76 -172 3 -273 0 -340 -10z"/>
<path d="M6081 4273 c-49 -40 1 -78 214 -163 72 -29 161 -71 199 -92 77 -46
199 -156 253 -232 20 -28 52 -68 70 -88 32 -37 32 -37 28 -10 -3 15 -10 72
-15 127 -17 166 -34 210 -104 279 -107 103 -136 118 -245 127 -53 4 -134 19
-181 33 -124 38 -189 43 -219 19z"/>
<path d="M5055 4239 c-152 -13 -356 -54 -531 -105 -299 -88 -495 -135 -589
-141 -102 -6 -140 -21 -270 -108 -103 -68 -204 -161 -245 -224 -31 -49 -48
-115 -77 -303 -8 -50 -8 -56 6 -48 33 19 61 49 166 179 60 73 137 157 171 186
191 162 464 260 546 195 25 -19 25 -19 139 26 335 132 609 181 967 171 280 -8
445 -39 665 -128 244 -98 388 -189 537 -340 110 -112 138 -133 165 -123 12 5
13 9 4 20 -6 8 -18 43 -25 79 -19 89 -34 122 -83 177 -71 80 -192 162 -373
253 -95 48 -198 103 -229 121 -31 19 -76 41 -100 50 -170 60 -547 88 -844 63z"/>
<path d="M4943 3904 c-239 -34 -428 -100 -558 -192 -156 -111 -388 -328 -454
-425 -81 -119 -137 -284 -126 -371 9 -70 36 -156 49 -156 6 0 21 41 33 91 43
182 157 366 317 516 145 135 307 237 473 296 172 62 455 91 678 68 173 -17
421 -48 529 -66 205 -33 341 -103 498 -256 89 -86 98 -98 98 -132 0 -23 -5
-37 -13 -37 -16 0 -75 40 -162 110 -191 155 -327 216 -396 180 -10 -6 -19 -15
-19 -19 0 -5 42 -37 93 -72 50 -34 115 -81 142 -103 44 -36 255 -216 295 -252
8 -8 29 -25 45 -38 30 -23 30 -23 33 71 2 77 6 100 23 122 51 69 43 168 -21
242 -53 63 -162 150 -260 209 -163 98 -411 175 -679 211 -170 23 -474 24 -618
3z"/>
<path d="M4185 3821 c-72 -26 -169 -76 -250 -130 -198 -131 -443 -439 -458
-578 -5 -42 -5 -42 38 20 68 99 86 89 106 -59 6 -49 19 -125 28 -169 20 -90
11 -111 67 170 28 145 53 209 118 299 56 78 133 152 271 263 113 91 155 139
155 179 0 28 -8 29 -75 5z"/>
<path d="M3252 3678 c-6 -7 -19 -37 -30 -65 -17 -46 -18 -52 -3 -44 49 27 95
121 58 121 -8 0 -19 -6 -25 -12z"/>
<path d="M4919 3575 c-290 -47 -527 -173 -720 -383 -108 -118 -293 -422 -274
-452 10 -17 41 -11 81 16 45 29 46 30 180 195 109 134 201 226 276 277 81 55
228 121 333 148 86 23 122 27 250 27 108 1 169 -4 216 -15 159 -40 208 -70
473 -288 181 -149 232 -181 276 -178 31 3 35 6 32 27 -6 39 -42 79 -211 235
-86 79 -169 162 -183 183 -30 44 -41 82 -29 102 13 21 53 -5 176 -116 224
-203 325 -327 325 -399 0 -32 69 -128 115 -162 40 -29 40 -29 40 97 -1 101 -5
133 -19 161 -10 19 -97 112 -193 206 -131 129 -177 180 -187 210 -12 34 -20
41 -62 57 -62 22 -135 17 -174 -11 -28 -21 -28 -21 -107 8 -44 16 -118 36
-164 45 -119 23 -343 28 -450 10z"/>
<path d="M4920 3260 c-169 -20 -338 -85 -452 -175 -33 -26 -82 -80 -115 -127
-32 -46 -99 -126 -150 -179 -81 -84 -94 -101 -103 -146 -8 -37 -8 -63 -1 -90
6 -21 11 -53 11 -71 0 -32 1 -31 103 72 130 134 186 167 331 200 163 38 228
46 356 46 173 -1 307 -16 381 -43 125 -45 188 -96 410 -333 47 -51 47 -51 54
32 11 125 3 150 -63 212 -139 131 -314 233 -467 273 -104 26 -285 36 -396 20
-46 -7 -134 -28 -196 -47 -125 -38 -161 -42 -170 -18 -16 44 161 146 322 185
114 28 303 30 414 5 204 -46 439 -189 692 -423 52 -48 104 -96 115 -105 19
-16 19 -15 18 87 0 125 -7 138 -107 202 -39 25 -123 85 -187 133 -288 218
-420 278 -655 293 -38 3 -104 1 -145 -3z"/>
<path d="M5125 2649 c-15 -23 9 -61 80 -124 42 -38 96 -95 120 -127 25 -33 62
-80 84 -104 43 -49 40 -54 57 79 13 98 -54 183 -200 257 -60 30 -129 40 -141
19z"/>
<path d="M4622 2630 c-105 -28 -191 -76 -208 -117 -19 -45 -18 -78 7 -157 21
-67 22 -68 38 -44 35 52 104 111 159 136 46 21 71 26 132 26 128 -1 205 -51
317 -205 58 -79 58 -79 75 -32 19 56 23 145 6 176 -18 35 -139 175 -164 192
-70 46 -238 57 -362 25z"/>
</g>
</svg>
