<?xml version="1.0" standalone="no"?>
<!DOCTYPE svg PUBLIC "-//W3C//DTD SVG 20010904//EN"
 "http://www.w3.org/TR/2001/REC-SVG-20010904/DTD/svg10.dtd">
<svg version="1.0" xmlns="http://www.w3.org/2000/svg"
 width="1000.000000pt" height="1000.000000pt" viewBox="0 0 1000.000000 1000.000000"
 preserveAspectRatio="xMidYMid meet">
<metadata>
  <rdf:RDF
    xmlns:rdf = "http://www.w3.org/1999/02/22-rdf-syntax-ns#"
    xmlns:rdfs = "http://www.w3.org/2000/01/rdf-schema#"
    xmlns:dc = "http://purl.org/dc/elements/1.1/"
    xmlns:cc = "http://creativecommons.org/ns#">
    <cc:license rdf:resource="http://creativecommons.org/publicdomain/zero/1.0/deed.en"/>
    <cc:permits rdf:resource="http://creativecommons.org/ns#Reproduction"/>
    <rdf:Description about="https://nft.mir.one/fingerprints"
      dc:title="TON Fingerprints"
      dc:description="This is a unique digital fingerprint created based on the algorithm for generating basic rings using a noise texture. Like human fingerprints, you can now use it for the Web3 and Metaverse era as digital biometric information."
      dc:publisher="https://nft.mir.one"
      dc:date="2022-02-22"
      dc:format="image/svg+xml"
      dc:language="en" >
      <dc:creator>
      <rdf:Bag>
        <rdf:li>EQBondcvD2_aOFADXSWJHs4ZazQDuEl9_wNvGGPxI8hGuOFU</rdf:li>
        <rdf:li>ipfs://bafkreihj7iub3fhmhq6jn62noukt5wxn3gv6bvcg7wmt6ywvlurefezckq</rdf:li>
      </rdf:Bag>
      </dc:creator>
    </rdf:Description>
  </rdf:RDF>
</metadata>
<g transform="translate(0.000000,1000.000000) scale(0.100000,-0.100000)"
fill="#1b1f23" stroke="none">
<path d="M4870 7720 c-159 -7 -188 -13 -400 -76 -130 -39 -421 -136 -417 -140
2 -2 130 16 362 51 86 14 128 26 192 57 72 36 93 41 170 45 48 3 167 0 263 -6
199 -11 262 -26 441 -101 137 -58 164 -66 174 -50 30 49 -169 162 -369 210
-86 21 -137 22 -416 10z"/>
<path d="M4668 7564 c-14 -3 -32 -12 -39 -21 -21 -25 19 -49 125 -73 51 -11
121 -34 154 -50 34 -16 92 -38 130 -50 37 -11 85 -31 107 -45 84 -52 122 -64
299 -90 200 -30 317 -64 439 -127 236 -123 542 -373 710 -581 117 -144 171
-235 339 -567 37 -74 68 -132 68 -129 0 3 -20 59 -44 125 -166 455 -313 694
-615 994 -203 203 -444 387 -596 456 -54 25 -60 26 -111 14 -74 -18 -138 -9
-354 50 -278 76 -511 111 -612 94z"/>
<path d="M4345 7419 c-143 -24 -389 -114 -577 -212 -65 -33 -117 -62 -115 -63
6 -6 134 17 252 44 299 71 528 101 774 103 131 0 186 13 186 44 0 29 -33 40
-201 69 -155 27 -231 30 -319 15z"/>
<path d="M4939 7246 c-16 -16 -198 -50 -389 -71 -266 -30 -497 -67 -626 -100
-153 -39 -293 -123 -487 -293 -53 -46 -104 -90 -114 -97 -35 -27 117 35 244
98 247 124 380 166 603 192 74 8 249 36 389 60 464 83 581 116 581 166 0 33
-39 49 -121 49 -41 0 -78 -2 -80 -4z"/>
<path d="M5160 7045 c-52 -13 -194 -45 -315 -70 -264 -55 -421 -94 -535 -133
-79 -27 -85 -31 -91 -62 -11 -54 -39 -81 -202 -191 -205 -139 -294 -206 -382
-291 -63 -59 -83 -87 -139 -196 -36 -70 -94 -170 -129 -222 -56 -84 -66 -95
-90 -92 -39 4 -103 -33 -132 -76 -112 -169 -181 -582 -155 -922 19 -248 59
-419 157 -664 68 -173 122 -282 178 -362 50 -69 93 -105 177 -146 41 -20 97
-65 186 -149 148 -142 232 -207 322 -252 65 -32 65 -32 300 -33 233 0 237 -1
410 -38 96 -21 229 -51 295 -68 255 -64 527 -46 850 58 118 38 327 144 435
221 122 88 323 287 388 384 129 194 244 454 387 874 7 20 7 20 -6 0 -6 -11
-31 -40 -55 -65 -28 -29 -75 -106 -133 -217 -161 -307 -258 -448 -431 -627
-246 -254 -531 -410 -890 -487 -79 -17 -140 -23 -245 -23 -154 -1 -197 10
-203 52 -4 29 16 36 148 52 429 49 735 174 1006 409 242 209 458 545 495 770
6 41 4 78 -11 155 -11 55 -26 142 -33 191 -18 110 -37 158 -72 181 -26 17 -28
17 -40 0 -35 -47 -41 -188 -19 -429 19 -209 -165 -531 -431 -755 -226 -190
-436 -284 -800 -358 -99 -20 -220 -51 -269 -70 -110 -42 -168 -50 -280 -35
-156 21 -267 56 -438 137 -184 87 -241 100 -246 53 -4 -37 29 -73 124 -134
122 -79 137 -122 38 -112 -118 12 -221 80 -346 227 -121 141 -148 185 -234
373 -83 183 -89 207 -45 207 42 0 74 -30 181 -174 98 -133 173 -211 227 -239
16 -9 54 -19 84 -22 30 -4 101 -20 159 -36 65 -19 149 -33 220 -39 63 -5 156
-19 205 -30 127 -28 272 -26 481 6 222 34 350 64 476 114 261 103 484 285 645
525 129 192 187 415 109 415 -32 0 -56 -30 -121 -150 -89 -161 -151 -245 -265
-361 -109 -110 -205 -181 -325 -241 -179 -90 -314 -118 -570 -118 -280 0 -387
31 -557 162 -240 184 -344 290 -431 441 -157 270 -168 658 -26 944 99 200 332
371 597 439 86 23 112 25 232 21 127 -3 142 -6 257 -45 164 -57 199 -55 173 8
-34 81 -231 166 -411 177 -215 13 -429 -47 -758 -212 -73 -36 -119 -67 -147
-96 -109 -119 -191 -322 -225 -557 -19 -133 -7 -385 24 -502 65 -250 202 -435
464 -631 140 -105 163 -129 163 -168 0 -22 -3 -23 -39 -18 -49 6 -206 80 -298
139 -128 83 -320 306 -390 454 -89 187 -113 582 -52 877 32 160 75 280 169
477 48 102 104 219 123 261 22 48 60 105 101 153 37 41 82 102 101 135 122
208 487 353 890 354 239 0 415 -40 661 -150 170 -76 267 -145 440 -314 116
-113 167 -156 210 -176 64 -29 99 -72 138 -168 38 -96 43 -136 17 -159 -31
-29 -43 -88 -39 -199 2 -85 0 -101 -14 -110 -42 -27 -81 55 -107 225 -31 201
-54 245 -225 438 -100 112 -194 195 -283 249 -89 55 -487 193 -623 217 -124
22 -335 22 -460 0 -186 -33 -417 -127 -494 -202 -39 -38 -44 -55 -21 -74 20
-16 53 -9 230 53 197 70 270 82 470 81 149 -1 182 -4 266 -26 108 -29 220 -82
274 -130 20 -17 63 -70 94 -117 32 -47 87 -126 124 -176 84 -112 152 -247 173
-345 16 -69 16 -83 1 -200 -9 -69 -19 -159 -22 -201 -16 -218 -117 -437 -282
-610 -124 -130 -270 -222 -436 -274 -178 -57 -392 -11 -564 119 -82 62 -129
117 -167 196 -31 65 -31 65 -28 270 2 113 8 225 14 250 16 69 62 159 113 220
25 30 50 73 56 95 16 61 53 101 122 134 118 59 272 60 439 5 222 -73 377 -272
378 -484 0 -164 -102 -359 -244 -469 -73 -57 -206 -131 -233 -131 -18 0 -23 6
-23 28 0 21 16 41 72 92 199 180 257 263 280 403 36 220 -114 434 -342 486
-127 30 -299 0 -368 -64 -33 -29 -35 -35 -22 -50 13 -15 24 -17 95 -9 44 5
121 9 170 9 79 0 97 -4 147 -28 112 -55 153 -139 146 -301 -3 -77 -8 -99 -33
-144 -41 -76 -140 -165 -212 -192 -92 -35 -164 -26 -289 34 -121 58 -157 59
-162 8 -10 -98 170 -253 327 -282 29 -5 83 -10 119 -10 57 0 69 -3 93 -26 52
-50 169 -31 290 47 221 143 372 400 373 634 0 108 -17 153 -111 285 -81 114
-147 185 -197 215 -22 13 -108 43 -191 67 -147 42 -153 43 -300 43 -130 -1
-159 -4 -215 -23 -201 -71 -394 -257 -469 -451 -47 -121 -64 -236 -58 -376 7
-149 25 -222 88 -352 40 -84 63 -117 133 -191 92 -96 224 -196 320 -242 90
-42 196 -69 326 -80 63 -5 138 -17 165 -25 63 -20 173 -20 248 0 126 33 283
121 409 229 95 82 175 178 286 346 52 80 119 175 147 212 32 41 69 106 96 169
34 82 53 113 92 150 47 45 48 47 56 125 6 59 16 93 39 134 40 72 47 136 28
230 -21 99 -20 110 5 110 32 0 73 -49 98 -115 18 -47 25 -94 32 -220 5 -88 16
-207 24 -265 8 -58 19 -158 24 -223 9 -119 25 -167 56 -167 42 0 65 123 65
350 0 326 -39 550 -136 788 -30 75 -78 198 -106 272 -81 218 -150 328 -307
492 -396 413 -872 608 -1251 513z m363 -186 c227 -46 463 -165 672 -341 108
-90 162 -147 243 -256 58 -78 102 -170 102 -213 0 -28 -18 -59 -35 -59 -8 0
-42 41 -76 90 -214 313 -573 555 -944 635 -171 38 -420 30 -671 -20 -313 -63
-498 -168 -745 -423 -232 -239 -361 -476 -459 -847 -74 -277 -87 -450 -69
-895 15 -382 15 -415 1 -468 -13 -44 -8 -77 33 -235 19 -72 12 -117 -20 -117
-35 0 -123 159 -184 332 -39 112 -63 158 -114 222 -190 234 -229 757 -88 1182
46 141 122 316 138 321 17 6 43 -50 43 -93 0 -20 -20 -116 -45 -213 -57 -220
-74 -322 -82 -486 -9 -203 23 -430 73 -516 23 -39 76 -58 101 -37 14 11 15 31
7 153 -16 246 -10 494 15 635 33 192 116 520 157 617 117 283 272 459 670 761
159 120 301 177 578 233 315 64 519 75 699 38z m306 -748 c134 -69 336 -319
400 -495 42 -117 73 -275 78 -402 7 -144 -15 -234 -102 -409 -180 -367 -393
-601 -659 -726 -139 -65 -257 -86 -264 -47 -5 25 34 55 143 110 140 70 227
130 323 222 171 164 310 401 374 636 19 72 22 109 22 245 0 115 -5 179 -17
227 -44 179 -126 325 -279 498 -47 52 -90 105 -97 118 -24 45 13 55 78 23z"/>
<path d="M3312 4358 c4 -30 48 -39 48 -10 0 18 -18 32 -42 32 -5 0 -8 -10 -6
-22z"/>
<path d="M4055 6853 c-102 -23 -271 -94 -440 -186 -139 -75 -177 -105 -386
-302 -86 -81 -86 -81 -45 -75 59 10 212 63 274 94 30 15 115 67 190 115 173
110 263 162 430 245 72 36 132 70 132 76 0 28 -91 47 -155 33z"/>
<path d="M3305 6201 c-79 -37 -195 -189 -300 -391 -17 -32 -17 -32 22 -4 69
51 237 200 295 261 59 62 78 104 61 132 -14 23 -33 23 -78 2z"/>
<path d="M4830 6159 c-84 -12 -177 -35 -374 -93 -182 -54 -202 -63 -261 -117
-53 -49 -71 -88 -55 -119 16 -31 54 -23 182 35 522 240 1010 199 1183 -100 58
-100 277 -415 295 -425 43 -23 68 18 56 92 -18 112 -195 398 -331 535 -92 93
-172 138 -310 174 -92 24 -284 33 -385 18z"/>
<path d="M4875 5196 c-109 -35 -164 -84 -186 -168 -48 -179 214 -325 362 -201
62 53 77 126 34 168 -31 32 -64 32 -90 -1 -43 -54 -100 8 -58 64 27 36 73 48
136 35 62 -13 77 -8 77 21 0 72 -157 119 -275 82z"/>
<path d="M3140 3720 c55 -104 218 -335 329 -465 160 -187 418 -419 591 -530
250 -162 641 -295 935 -320 200 -16 626 82 957 221 73 31 171 71 218 90 47 18
78 35 70 38 -59 19 -108 11 -442 -68 -334 -79 -629 -114 -814 -95 -380 37
-804 198 -925 350 -17 21 -88 80 -157 131 -207 149 -448 354 -656 557 -65 64
-113 105 -106 91z"/>
<path d="M6665 3507 c-201 -205 -324 -304 -480 -384 -204 -105 -513 -189 -782
-214 -209 -19 -371 1 -868 106 -207 43 -344 55 -363 32 -53 -63 77 -134 412
-226 245 -67 372 -86 591 -85 128 0 227 6 305 18 247 38 583 122 682 172 180
90 414 336 610 639 78 121 80 125 76 125 -2 0 -84 -83 -183 -183z"/>
<path d="M3905 2604 c41 -32 211 -128 318 -179 249 -117 584 -218 767 -231 65
-4 65 -4 -15 15 -44 11 -138 40 -210 66 -71 25 -152 53 -180 62 -136 41 -474
172 -580 224 -66 33 -111 52 -100 43z"/>
<path d="M5718 2363 c7 -3 16 -2 19 1 4 3 -2 6 -13 5 -11 0 -14 -3 -6 -6z"/>
<path d="M5540 2335 c-63 -13 -135 -31 -159 -39 -42 -15 -145 -86 -137 -94 2
-2 28 10 57 27 31 17 127 50 224 76 94 26 172 49 174 51 9 9 -49 1 -159 -21z"/>
<path d="M5208 2193 c7 -3 16 -2 19 1 4 3 -2 6 -13 5 -11 0 -14 -3 -6 -6z"/>
<path d="M5083 2183 c9 -2 25 -2 35 0 9 3 1 5 -18 5 -19 0 -27 -2 -17 -5z"/>
</g>
</svg>
