<?xml version="1.0" standalone="no"?>
<!DOCTYPE svg PUBLIC "-//W3C//DTD SVG 20010904//EN"
 "http://www.w3.org/TR/2001/REC-SVG-20010904/DTD/svg10.dtd">
<svg version="1.0" xmlns="http://www.w3.org/2000/svg"
 width="1000.000000pt" height="1000.000000pt" viewBox="0 0 1000.000000 1000.000000"
 preserveAspectRatio="xMidYMid meet">
<metadata>
  <rdf:RDF
    xmlns:rdf = "http://www.w3.org/1999/02/22-rdf-syntax-ns#"
    xmlns:rdfs = "http://www.w3.org/2000/01/rdf-schema#"
    xmlns:dc = "http://purl.org/dc/elements/1.1/"
    xmlns:cc = "http://creativecommons.org/ns#">
    <cc:license rdf:resource="http://creativecommons.org/publicdomain/zero/1.0/deed.en"/>
    <cc:permits rdf:resource="http://creativecommons.org/ns#Reproduction"/>
    <rdf:Description about="https://nft.mir.one/fingerprints"
      dc:title="TON Fingerprints"
      dc:description="This is a unique digital fingerprint created based on the algorithm for generating basic rings using a noise texture. Like human fingerprints, you can now use it for the Web3 and Metaverse era as digital biometric information."
      dc:publisher="https://nft.mir.one"
      dc:date="2022-02-22"
      dc:format="image/svg+xml"
      dc:language="en" >
      <dc:creator>
      <rdf:Bag>
        <rdf:li>EQBondcvD2_aOFADXSWJHs4ZazQDuEl9_wNvGGPxI8hGuOFU</rdf:li>
        <rdf:li>ipfs://bafkreihj7iub3fhmhq6jn62noukt5wxn3gv6bvcg7wmt6ywvlurefezckq</rdf:li>
      </rdf:Bag>
      </dc:creator>
    </rdf:Description>
  </rdf:RDF>
</metadata>
<g transform="translate(0.000000,1000.000000) scale(0.100000,-0.100000)"
fill="#1b1f23" stroke="none">
<path d="M4700 7694 c-127 -16 -254 -39 -375 -69 -140 -35 -140 -35 70 -28
411 15 647 1 857 -52 158 -40 683 -213 806 -266 116 -50 203 -79 231 -79 9 1
1 7 -17 15 -18 8 -81 44 -139 81 -145 91 -266 147 -548 252 -332 124 -413 141
-675 147 -96 2 -191 1 -210 -1z"/>
<path d="M4525 7470 c-257 -17 -499 -97 -772 -257 -62 -36 -113 -67 -113 -68
0 -3 122 26 230 56 415 114 856 143 1255 83 432 -64 1104 -288 1249 -415 50
-43 47 -59 -10 -59 -33 0 -100 21 -247 79 -328 128 -572 198 -860 245 -217 36
-333 46 -546 46 -263 0 -476 -27 -721 -91 -247 -65 -406 -178 -673 -477 -86
-97 -100 -117 -65 -90 25 18 67 46 94 61 27 15 92 57 144 93 238 164 547 275
910 326 139 19 538 17 720 -5 426 -52 638 -106 1053 -273 283 -113 327 -146
549 -414 84 -102 252 -254 195 -178 -13 18 -48 74 -77 123 -147 251 -224 361
-346 498 -40 46 -62 78 -59 88 14 42 -64 140 -160 203 -80 54 -259 141 -370
181 -233 85 -613 189 -795 219 -91 15 -382 38 -445 34 -16 0 -79 -4 -140 -8z"/>
<path d="M4560 6880 c-481 -37 -905 -204 -1156 -454 -121 -121 -251 -332 -334
-541 -31 -78 -120 -332 -120 -343 0 -12 100 140 140 213 105 195 285 426 429
552 225 197 386 276 708 347 303 67 476 81 643 51 159 -29 236 -34 355 -25
186 16 345 -8 586 -86 286 -92 539 -232 527 -291 -7 -39 -45 -29 -310 85 -250
109 -464 170 -623 178 -110 6 -148 -5 -153 -43 -5 -34 28 -49 233 -102 201
-53 292 -83 531 -179 82 -33 187 -72 234 -87 47 -15 106 -38 131 -51 94 -47
201 -168 185 -210 -12 -31 -76 -16 -200 50 -138 73 -497 230 -655 286 -58 21
-164 54 -236 74 -75 22 -177 60 -240 91 -60 30 -123 56 -140 59 -47 7 -124
-11 -175 -43 -27 -16 -113 -55 -191 -86 -255 -101 -339 -155 -510 -332 -219
-227 -293 -373 -360 -711 -34 -176 -34 -227 3 -367 76 -287 277 -589 361 -543
27 14 17 54 -37 147 -140 244 -186 387 -186 586 0 533 403 998 962 1111 100
20 190 14 338 -21 301 -73 549 -175 875 -360 61 -34 180 -97 265 -140 145 -73
161 -85 246 -169 121 -120 160 -199 209 -415 19 -85 35 -177 35 -203 0 -62
-29 -119 -72 -145 -30 -17 -36 -30 -62 -119 -60 -211 -181 -511 -247 -614 -93
-144 -296 -361 -479 -511 -127 -104 -236 -180 -480 -334 -200 -126 -230 -149
-230 -176 0 -31 -61 -89 -129 -124 -96 -48 -189 -73 -309 -85 -123 -11 -258
-42 -434 -99 -68 -22 -158 -47 -200 -56 -43 -9 -80 -20 -83 -25 -17 -27 72
-85 160 -104 17 -4 69 -25 116 -47 47 -21 108 -43 136 -48 141 -27 361 -46
528 -46 165 0 189 3 290 29 195 50 419 146 602 257 67 41 349 233 368 251 6 6
-8 2 -30 -7 -22 -9 -62 -25 -90 -35 -27 -10 -125 -56 -216 -102 -416 -211
-692 -301 -926 -302 -102 -1 -114 1 -134 20 -12 12 -19 26 -16 32 4 5 35 12
69 15 270 25 607 155 1048 402 259 145 437 321 678 667 81 118 81 118 24 81
-31 -20 -104 -82 -162 -138 -243 -233 -470 -389 -954 -655 -244 -134 -313
-165 -484 -220 -170 -55 -205 -71 -245 -108 -33 -31 -99 -41 -284 -41 -124 -1
-178 9 -171 31 10 28 74 51 203 74 150 26 173 31 330 80 214 67 285 100 452
212 49 32 129 82 178 112 270 161 462 289 605 404 104 85 311 287 380 372 76
95 101 149 111 243 5 48 27 129 59 219 65 186 178 579 190 662 30 208 -66 627
-214 935 -74 154 -127 239 -220 349 -37 44 -95 117 -129 164 -36 49 -86 102
-121 128 -154 116 -583 272 -876 318 -100 16 -511 51 -690 59 -58 3 -152 1
-210 -3z"/>
<path d="M4525 6570 c-49 -10 -133 -29 -185 -44 -52 -14 -134 -30 -181 -36
-110 -13 -177 -33 -264 -78 -266 -139 -518 -431 -722 -836 -69 -138 -102 -261
-110 -416 -6 -113 -5 -117 30 -220 20 -58 50 -172 67 -255 36 -171 68 -274
113 -360 49 -94 196 -229 227 -210 19 12 9 73 -21 131 -99 186 -123 239 -154
334 -72 223 -99 450 -77 640 17 138 43 208 107 279 37 42 72 100 118 195 77
160 163 289 265 398 127 134 323 268 394 268 26 0 29 -3 26 -27 -2 -20 -35
-56 -124 -138 -150 -137 -222 -217 -292 -324 -108 -165 -141 -284 -123 -443
15 -122 36 -195 61 -208 42 -22 63 22 80 164 24 203 78 344 189 493 83 112
360 401 428 445 66 43 182 88 338 129 159 42 202 83 125 121 -47 24 -193 23
-315 -2z"/>
<path d="M4988 6070 c-203 -32 -396 -126 -548 -266 -223 -207 -349 -535 -310
-813 17 -128 53 -230 143 -411 71 -144 90 -173 147 -230 136 -135 327 -196
680 -216 63 -3 135 -13 159 -21 81 -27 128 22 75 78 -37 38 -95 54 -271 74
-179 20 -276 44 -380 95 -131 64 -235 174 -312 327 -167 333 -114 696 139 953
136 138 273 213 455 247 105 20 280 12 390 -17 319 -85 591 -289 652 -488 7
-26 25 -146 39 -267 13 -121 34 -274 45 -340 15 -87 19 -142 15 -200 -9 -119
-61 -402 -85 -467 -73 -191 -341 -463 -578 -586 -63 -32 -134 -56 -295 -98
-117 -30 -244 -63 -283 -74 -221 -61 -472 -89 -638 -71 -149 16 -245 44 -374
106 -134 65 -260 158 -396 291 -182 179 -265 317 -238 396 10 28 7 39 -28 107
-74 146 -110 276 -131 476 -19 176 -38 245 -68 245 -10 0 -12 -23 -7 -112 16
-311 34 -417 115 -698 117 -408 369 -734 689 -894 155 -78 238 -97 421 -97
213 0 380 33 715 141 188 60 279 79 329 66 30 -7 34 -31 8 -45 -9 -5 -78 -29
-152 -54 -74 -25 -188 -68 -252 -96 -144 -61 -234 -90 -408 -129 -198 -45
-343 -65 -420 -57 -149 16 -303 89 -475 227 -47 38 -105 80 -128 95 -23 14
-60 40 -82 56 -40 31 -40 31 -14 1 316 -363 454 -490 629 -579 61 -30 159 -65
185 -65 7 0 32 20 56 43 52 52 89 67 367 148 223 65 246 74 312 129 57 48 133
85 284 141 96 35 129 53 170 90 28 26 94 70 146 99 124 68 278 168 365 238 98
78 263 240 353 347 41 50 119 133 172 185 74 74 105 113 137 175 93 179 148
356 164 525 6 63 20 155 31 204 25 109 20 182 -19 268 -29 66 -72 108 -109
108 -40 0 -46 -36 -28 -143 30 -171 5 -372 -80 -634 -71 -217 -135 -355 -177
-381 -27 -17 -49 10 -49 61 0 70 77 343 126 448 68 147 77 205 70 451 -6 237
-8 243 -88 312 -355 303 -542 421 -826 520 -192 66 -403 97 -534 76z m1275
-747 c31 -36 41 -104 42 -288 0 -150 -3 -186 -17 -218 -22 -49 -48 -46 -65 5
-14 43 -38 405 -30 455 10 60 39 79 70 46z"/>
<path d="M4970 5745 c-337 -68 -570 -347 -570 -680 0 -115 17 -197 60 -291
124 -273 356 -401 715 -392 130 3 144 5 197 31 138 68 203 214 202 457 -1 118
-4 145 -27 215 -72 219 -249 355 -462 355 -148 0 -276 -65 -352 -178 -55 -81
-68 -127 -68 -232 1 -71 5 -95 28 -143 51 -112 133 -183 250 -219 88 -26 182
-21 289 17 43 14 82 24 88 20 5 -3 10 -20 10 -37 0 -23 -10 -41 -40 -69 -50
-48 -118 -69 -220 -69 -148 0 -269 49 -372 151 -253 250 -187 668 133 838 78
43 169 64 269 64 174 0 320 -61 446 -187 140 -140 193 -283 201 -542 10 -285
-51 -461 -223 -644 -54 -58 -75 -89 -83 -122 -25 -100 -33 -119 -71 -166 -26
-34 -58 -60 -101 -81 -62 -31 -62 -31 -323 -31 -374 0 -518 23 -734 115 -353
152 -526 368 -713 894 -32 91 -68 174 -79 185 -21 21 -21 21 -41 -3 -39 -48
-18 -198 58 -401 49 -131 201 -432 256 -507 93 -126 291 -262 489 -337 215
-80 524 -102 803 -56 33 5 79 10 103 10 39 0 43 -2 40 -22 -5 -35 -76 -67
-211 -96 -108 -23 -146 -26 -332 -26 -165 -1 -228 3 -292 17 -174 37 -311 95
-460 193 -72 48 -128 95 -285 242 -25 24 -51 37 -85 43 -26 5 -71 18 -100 30
-52 21 -94 22 -100 3 -8 -24 69 -113 211 -244 180 -167 277 -241 396 -304 200
-106 372 -142 634 -133 223 7 442 48 609 113 86 34 278 147 361 214 203 163
357 384 421 605 60 209 67 388 25 672 -39 268 -80 364 -210 493 -195 195 -485
287 -740 235z m173 -491 c174 -59 246 -313 112 -393 -93 -57 -246 -72 -321
-34 -97 51 -149 155 -124 251 37 150 183 227 333 176z"/>
<path d="M4972 5120 c-58 -35 -74 -117 -32 -155 10 -9 29 -15 42 -13 19 2 23
9 23 38 0 35 0 35 52 35 28 0 57 5 64 12 19 19 1 62 -34 83 -41 25 -73 25
-115 0z"/>
<path d="M3427 5442 c-39 -43 -45 -210 -11 -320 11 -35 24 -54 54 -75 54 -37
89 -94 151 -250 183 -461 344 -634 731 -783 284 -110 701 -138 863 -59 49 23
85 66 85 99 0 20 -13 20 -114 0 -63 -13 -114 -15 -241 -11 -239 9 -400 52
-595 161 -53 30 -129 64 -169 76 -175 52 -314 247 -455 639 -57 156 -80 203
-140 277 -23 29 -40 69 -56 125 -36 136 -62 166 -103 121z"/>
<path d="M6796 4941 c-36 -40 -26 -151 15 -159 19 -3 39 56 39 116 0 51 -27
73 -54 43z"/>
<path d="M6957 4251 c-52 -104 -88 -188 -87 -205 0 -28 1 -28 19 -12 11 10 31
43 46 73 26 55 118 314 113 318 -2 1 -43 -77 -91 -174z"/>
<path d="M5175 3041 c-186 -66 -245 -98 -245 -131 0 -41 92 -29 236 31 118 49
177 98 144 119 -24 15 -49 12 -135 -19z"/>
<path d="M4384 2310 c46 -14 307 -58 451 -75 132 -15 396 -19 495 -6 38 5 6 7
-105 8 -88 1 -216 8 -285 17 -69 9 -213 25 -320 36 -107 11 -211 22 -230 25
-34 5 -34 5 -6 -5z"/>
<path d="M5418 2243 c7 -3 16 -2 19 1 4 3 -2 6 -13 5 -11 0 -14 -3 -6 -6z"/>
</g>
</svg>
