<?xml version="1.0" standalone="no"?>
<!DOCTYPE svg PUBLIC "-//W3C//DTD SVG 20010904//EN"
 "http://www.w3.org/TR/2001/REC-SVG-20010904/DTD/svg10.dtd">
<svg version="1.0" xmlns="http://www.w3.org/2000/svg"
 width="1000.000000pt" height="1000.000000pt" viewBox="0 0 1000.000000 1000.000000"
 preserveAspectRatio="xMidYMid meet">
<metadata>
  <rdf:RDF
    xmlns:rdf = "http://www.w3.org/1999/02/22-rdf-syntax-ns#"
    xmlns:rdfs = "http://www.w3.org/2000/01/rdf-schema#"
    xmlns:dc = "http://purl.org/dc/elements/1.1/"
    xmlns:cc = "http://creativecommons.org/ns#">
    <cc:license rdf:resource="http://creativecommons.org/publicdomain/zero/1.0/deed.en"/>
    <cc:permits rdf:resource="http://creativecommons.org/ns#Reproduction"/>
    <rdf:Description about="https://nft.mir.one/fingerprints"
      dc:title="TON Fingerprints"
      dc:description="This is a unique digital fingerprint created based on the algorithm for generating basic rings using a noise texture. Like human fingerprints, you can now use it for the Web3 and Metaverse era as digital biometric information."
      dc:publisher="https://nft.mir.one"
      dc:date="2022-02-22"
      dc:format="image/svg+xml"
      dc:language="en" >
      <dc:creator>
      <rdf:Bag>
        <rdf:li>EQBondcvD2_aOFADXSWJHs4ZazQDuEl9_wNvGGPxI8hGuOFU</rdf:li>
        <rdf:li>ipfs://bafkreihj7iub3fhmhq6jn62noukt5wxn3gv6bvcg7wmt6ywvlurefezckq</rdf:li>
      </rdf:Bag>
      </dc:creator>
    </rdf:Description>
  </rdf:RDF>
</metadata>
<g transform="translate(0.000000,1000.000000) scale(0.100000,-0.100000)"
fill="#1b1f23" stroke="none">
<path d="M4820 7778 c208 -111 397 -253 615 -458 165 -155 353 -314 402 -338
21 -11 61 -27 90 -36 104 -34 256 -150 476 -364 145 -140 241 -213 323 -245
35 -13 48 -14 84 -3 43 12 43 12 -26 58 -82 54 -146 119 -249 253 -43 55 -103
126 -134 159 -65 68 -284 217 -491 336 -185 106 -268 168 -383 290 -50 54
-115 114 -143 134 -119 84 -393 194 -574 231 -35 7 -35 7 10 -17z"/>
<path d="M5444 7742 c3 -5 30 -26 61 -47 44 -31 69 -40 120 -46 35 -5 87 -20
114 -34 28 -14 51 -23 51 -20 0 9 -96 53 -154 70 -33 9 -91 32 -129 51 -38 20
-66 31 -63 26z"/>
<path d="M4673 7674 c-17 -46 39 -107 262 -287 400 -322 555 -472 622 -604 22
-43 48 -103 58 -133 37 -117 153 -321 309 -545 346 -498 465 -711 566 -1013
70 -209 84 -291 84 -509 1 -178 0 -193 -20 -219 -11 -15 -25 -29 -31 -31 -22
-8 -44 45 -64 153 -11 60 -29 159 -40 219 -61 324 -245 710 -555 1162 -153
222 -159 232 -235 384 -88 175 -122 218 -223 283 -45 29 -111 80 -147 113
-142 132 -195 166 -300 193 -35 9 -94 49 -245 166 -243 189 -242 188 -290 275
-71 131 -139 168 -324 176 -105 4 -105 4 -75 -22 17 -14 64 -44 107 -66 118
-62 213 -131 213 -154 0 -16 -8 -21 -42 -23 -31 -2 -66 7 -137 36 -114 48
-165 56 -302 47 -106 -8 -106 -8 -78 -31 32 -25 324 -148 474 -199 249 -84
413 -206 604 -449 112 -142 139 -186 130 -210 -14 -37 -56 -9 -239 165 -245
232 -336 287 -744 455 -175 73 -216 78 -369 48 -82 -17 -82 -17 -50 -39 18
-12 121 -57 228 -100 375 -148 528 -232 820 -450 173 -129 241 -169 306 -181
56 -10 85 -26 204 -114 58 -43 146 -101 196 -129 51 -28 115 -72 143 -97 115
-103 252 -300 473 -679 195 -334 217 -384 303 -698 25 -92 68 -218 95 -280 70
-162 74 -201 75 -627 0 -335 -2 -376 -22 -493 -20 -110 -31 -300 -16 -257 3 8
38 98 78 200 136 346 178 505 190 725 11 203 24 319 55 467 41 201 64 460 50
569 -29 234 -178 625 -335 879 -56 89 -111 165 -381 520 -150 197 -228 316
-276 419 -116 248 -99 224 -267 391 -266 263 -533 478 -661 531 -41 16 -97 41
-123 54 -39 18 -50 20 -54 9z m510 -1126 c220 -225 277 -295 277 -341 0 -68
-62 -41 -194 84 -92 87 -296 344 -322 406 -16 36 -9 63 14 63 9 0 110 -96 225
-212z"/>
<path d="M4292 7613 c13 -14 106 -109 208 -211 207 -209 339 -320 546 -457 99
-66 178 -130 267 -214 134 -127 170 -147 182 -98 8 31 -8 70 -59 141 -64 90
-175 191 -422 388 -122 97 -268 222 -325 278 -123 120 -180 152 -323 179 -97
18 -97 18 -74 -6z"/>
<path d="M5800 7588 c3 -3 36 -29 74 -58 87 -65 105 -87 106 -126 0 -44 -22
-49 -87 -20 -69 32 -218 129 -261 169 -37 36 -59 27 -48 -18 16 -62 186 -202
293 -240 112 -40 194 -87 288 -162 55 -43 114 -89 132 -101 29 -20 73 -29 85
-17 5 5 -257 266 -328 325 -23 19 -44 47 -47 62 -10 38 -50 82 -121 132 -59
42 -96 65 -86 54z"/>
<path d="M5863 6853 c-25 -10 -14 -69 25 -129 53 -82 210 -274 402 -494 238
-272 334 -399 405 -540 52 -102 210 -545 296 -827 20 -67 24 -73 48 -73 15 0
33 -6 40 -12 11 -11 12 -9 7 10 -3 12 -8 30 -11 40 -2 9 -16 96 -30 192 -14
96 -44 245 -66 330 -22 86 -44 198 -49 250 -7 82 -15 111 -59 215 -93 215
-131 268 -316 430 -60 54 -211 199 -335 324 -251 253 -313 302 -357 284z"/>
<path d="M3510 6818 c-41 -11 -88 -23 -105 -27 -30 -7 -30 -7 15 -33 25 -14
72 -34 105 -43 170 -48 516 -201 711 -316 121 -71 526 -345 649 -438 373 -285
599 -648 635 -1019 46 -484 60 -643 65 -747 3 -66 13 -177 22 -247 17 -136 12
-242 -12 -275 -13 -17 -14 -17 -34 2 -12 12 -26 49 -36 93 -18 89 -30 112 -55
112 -39 0 -57 -57 -75 -245 -10 -100 -48 -224 -105 -341 -40 -83 -60 -112
-109 -156 -77 -69 -95 -109 -166 -363 -76 -271 -82 -355 -25 -355 27 0 90 58
148 138 75 102 82 119 70 173 -15 67 15 159 98 295 121 198 148 247 220 409
59 132 78 164 105 183 109 74 149 155 169 341 13 118 0 295 -41 576 -37 248
-41 351 -15 390 12 18 24 25 39 23 27 -4 61 -95 112 -301 104 -426 119 -738
42 -892 -21 -43 -53 -85 -160 -210 -66 -77 -106 -138 -237 -370 -34 -60 -103
-172 -152 -247 -87 -135 -118 -193 -118 -222 0 -26 38 -29 85 -6 87 42 210
205 361 478 97 176 135 227 201 272 28 19 66 55 85 80 42 55 71 63 91 23 41
-78 49 -282 17 -430 -42 -200 -93 -315 -198 -445 -105 -130 -131 -171 -158
-251 -24 -72 -24 -72 8 -32 69 86 220 232 264 256 37 20 57 41 92 100 66 107
128 254 149 350 25 118 25 411 0 524 -10 44 -25 166 -33 270 -17 214 -33 307
-104 580 -91 350 -131 439 -248 543 -71 64 -78 75 -159 236 -140 279 -256 450
-393 579 -113 106 -307 250 -461 341 -74 43 -206 129 -294 189 -295 205 -480
305 -772 421 -158 63 -180 65 -293 34z"/>
<path d="M3402 6574 c-29 -7 -63 -19 -75 -26 -12 -6 -39 -16 -59 -23 -38 -11
-38 -11 5 -32 23 -12 96 -38 162 -58 376 -115 774 -324 1087 -574 276 -218
423 -406 497 -631 55 -171 144 -642 161 -858 15 -187 5 -290 -65 -669 -66
-358 -76 -431 -65 -479 11 -46 22 -58 49 -49 42 13 107 185 156 415 45 207 54
240 97 340 42 95 42 95 46 265 5 187 -6 333 -43 590 -90 620 -302 923 -945
1352 -291 194 -515 308 -813 414 -120 43 -121 43 -195 23z"/>
<path d="M3265 6301 c-27 -10 -71 -29 -97 -43 -47 -24 -47 -24 -15 -41 18 -9
80 -30 139 -47 370 -103 791 -319 1057 -542 171 -144 287 -278 381 -442 53
-92 60 -129 25 -134 -36 -5 -86 39 -174 153 -200 258 -445 452 -786 625 -206
105 -486 210 -559 210 -20 0 -69 -18 -120 -44 -86 -44 -86 -44 -53 -64 18 -10
58 -25 88 -32 254 -60 596 -207 827 -357 323 -208 593 -491 553 -579 -6 -13
-15 -24 -19 -24 -5 0 -56 45 -113 101 -345 334 -719 560 -1135 684 -110 33
-139 30 -222 -25 -33 -22 -68 -40 -78 -41 -15 0 -14 -2 6 -10 13 -6 31 -16 40
-23 8 -7 47 -21 85 -30 115 -28 312 -95 432 -146 218 -94 416 -217 653 -404
163 -130 220 -164 285 -172 74 -9 146 -86 214 -225 147 -303 166 -647 71
-1309 -31 -217 -58 -337 -110 -485 -56 -159 -94 -220 -203 -325 -59 -56 -109
-115 -123 -143 -25 -48 -25 -48 3 -34 59 29 224 78 243 72 27 -9 35 -46 24
-120 -10 -62 -10 -62 31 -31 149 114 160 129 174 245 6 46 29 154 52 240 61
238 69 282 79 466 5 94 20 247 34 340 83 569 75 830 -39 1198 -87 280 -81 251
-61 308 118 328 -564 931 -1368 1208 -133 46 -151 48 -221 22z"/>
<path d="M7010 5610 c8 -5 20 -10 25 -10 6 0 3 5 -5 10 -8 5 -19 10 -25 10 -5
0 -3 -5 5 -10z"/>
<path d="M3063 5424 c-18 -9 -58 -38 -88 -65 -57 -49 -57 -49 -13 -69 24 -11
51 -20 61 -20 77 -1 284 -62 447 -132 481 -205 804 -498 914 -830 59 -175 81
-377 65 -597 -29 -422 -140 -719 -374 -1001 -39 -47 -80 -101 -92 -120 -22
-35 -22 -35 72 -29 126 10 201 32 238 72 51 54 139 197 179 289 112 261 173
611 172 988 0 183 -4 231 -23 319 -44 208 -108 346 -211 455 -79 85 -369 318
-510 411 -198 130 -452 250 -671 315 -117 35 -123 35 -166 14z"/>
<path d="M3034 5084 c-21 -14 -58 -46 -82 -70 -42 -44 -42 -44 -10 -57 18 -8
66 -17 106 -20 149 -14 336 -94 426 -182 58 -58 189 -323 210 -426 17 -85 23
-246 12 -359 -4 -41 -3 -123 2 -181 23 -245 -39 -457 -177 -611 -24 -27 -42
-51 -39 -53 9 -9 118 -17 152 -11 97 18 211 203 262 421 27 113 27 489 1 617
-37 181 -85 295 -191 451 -73 106 -79 127 -41 127 40 0 75 -23 141 -91 78 -82
116 -139 170 -253 86 -182 119 -365 111 -614 -7 -224 -35 -348 -117 -517 -63
-131 -130 -204 -295 -319 -56 -40 -56 -40 76 -73 178 -44 181 -43 279 88 108
145 185 324 230 534 31 146 39 435 15 576 -31 185 -84 324 -183 474 -56 84
-187 217 -262 267 -51 33 -247 128 -453 219 -77 35 -256 89 -292 89 -7 0 -30
-12 -51 -26z"/>
<path d="M3021 4755 c-29 -27 -41 -45 -41 -65 0 -26 2 -27 43 -23 115 13 298
-117 437 -311 70 -97 120 -115 120 -43 -1 79 -100 248 -200 340 -74 69 -186
126 -262 134 -53 5 -57 4 -97 -32z"/>
<path d="M6947 4691 c-31 -37 -43 -106 -57 -311 -6 -85 -19 -231 -28 -325 -9
-93 -15 -219 -14 -280 4 -110 4 -110 48 105 55 269 82 451 89 605 4 66 11 140
16 163 7 32 7 48 -2 58 -16 20 -24 18 -52 -15z"/>
<path d="M2964 4543 c-32 -4 -32 -4 20 -52 28 -26 86 -73 129 -105 91 -66 218
-184 259 -240 34 -47 38 -96 8 -96 -10 0 -59 33 -108 74 -48 40 -98 78 -109
85 -30 16 -84 14 -121 -5 -18 -8 -37 -12 -44 -8 -23 13 124 -120 176 -160 28
-21 75 -50 104 -63 47 -22 61 -24 125 -18 98 9 132 21 146 51 25 56 3 141 -52
192 -21 20 -92 89 -156 153 -64 64 -145 135 -180 158 -66 42 -93 47 -197 34z"/>
<path d="M3379 3813 c-10 -11 -16 -63 -20 -177 -4 -89 -9 -168 -12 -176 -3 -8
-8 -45 -11 -81 -6 -66 -6 -66 51 -51 32 8 70 23 85 34 42 29 62 110 63 243 0
95 -3 116 -23 152 -33 64 -103 93 -133 56z"/>
<path d="M5956 3385 c-13 -13 -47 -77 -76 -142 -147 -328 -303 -546 -479 -671
-36 -25 -113 -83 -171 -128 -58 -44 -127 -94 -155 -109 -70 -39 -83 -52 -105
-103 -11 -25 -20 -46 -20 -47 0 -3 52 22 364 176 234 115 253 127 321 193 198
195 371 530 383 743 3 58 1 88 -8 98 -17 21 -27 19 -54 -10z"/>
<path d="M5467 2269 c-42 -41 -42 -41 6 -3 26 21 47 40 47 41 0 10 -16 -2 -53
-38z"/>
</g>
</svg>
