<?xml version="1.0" standalone="no"?>
<!DOCTYPE svg PUBLIC "-//W3C//DTD SVG 20010904//EN"
 "http://www.w3.org/TR/2001/REC-SVG-20010904/DTD/svg10.dtd">
<svg version="1.0" xmlns="http://www.w3.org/2000/svg"
 width="1000.000000pt" height="1000.000000pt" viewBox="0 0 1000.000000 1000.000000"
 preserveAspectRatio="xMidYMid meet">
<metadata>
  <rdf:RDF
    xmlns:rdf = "http://www.w3.org/1999/02/22-rdf-syntax-ns#"
    xmlns:rdfs = "http://www.w3.org/2000/01/rdf-schema#"
    xmlns:dc = "http://purl.org/dc/elements/1.1/"
    xmlns:cc = "http://creativecommons.org/ns#">
    <cc:license rdf:resource="http://creativecommons.org/publicdomain/zero/1.0/deed.en"/>
    <cc:permits rdf:resource="http://creativecommons.org/ns#Reproduction"/>
    <rdf:Description about="https://nft.mir.one/fingerprints"
      dc:title="TON Fingerprints"
      dc:description="This is a unique digital fingerprint created based on the algorithm for generating basic rings using a noise texture. Like human fingerprints, you can now use it for the Web3 and Metaverse era as digital biometric information."
      dc:publisher="https://nft.mir.one"
      dc:date="2022-02-22"
      dc:format="image/svg+xml"
      dc:language="en" >
      <dc:creator>
      <rdf:Bag>
        <rdf:li>EQBondcvD2_aOFADXSWJHs4ZazQDuEl9_wNvGGPxI8hGuOFU</rdf:li>
        <rdf:li>ipfs://bafkreihj7iub3fhmhq6jn62noukt5wxn3gv6bvcg7wmt6ywvlurefezckq</rdf:li>
      </rdf:Bag>
      </dc:creator>
    </rdf:Description>
  </rdf:RDF>
</metadata>
<g transform="translate(0.000000,1000.000000) scale(0.100000,-0.100000)"
fill="#1b1f23" stroke="none">
<path d="M4575 7715 c-5 -2 -50 -7 -100 -11 -90 -7 -90 -7 5 -20 155 -21 475
-44 625 -44 325 -2 480 -23 610 -85 95 -46 265 -176 357 -274 67 -71 86 -102
172 -270 105 -207 132 -246 175 -256 46 -10 106 -61 167 -142 69 -91 202 -316
254 -428 99 -213 158 -500 161 -793 2 -92 -1 -116 -14 -130 -38 -37 -69 38
-117 283 -69 353 -143 565 -308 879 -80 152 -140 244 -174 265 -19 12 -24 11
-40 -9 -10 -12 -18 -30 -18 -39 0 -42 36 -145 129 -368 118 -284 176 -446 231
-643 86 -304 110 -364 184 -450 59 -70 70 -104 63 -204 -12 -159 -79 -364
-175 -530 -82 -143 -430 -594 -597 -774 -129 -140 -351 -303 -565 -415 -104
-55 -192 -92 -385 -162 -55 -20 -129 -54 -165 -75 -92 -55 -144 -76 -230 -94
-223 -45 -477 -22 -730 66 -133 46 -186 81 -295 192 -83 85 -136 127 -305 240
-193 130 -297 192 -306 183 -9 -8 338 -350 431 -424 120 -96 133 -109 117
-125 -25 -25 -128 2 -277 74 -47 22 -39 15 75 -71 122 -92 390 -221 540 -260
375 -98 646 -92 995 24 498 164 877 374 1155 642 54 51 151 162 216 246 132
169 284 356 351 431 64 71 117 174 162 312 50 153 75 283 100 522 21 191 26
222 41 222 5 0 6 9 3 21 -5 16 -8 18 -15 7 -7 -10 -11 -10 -22 4 -9 12 -15 65
-19 160 -8 186 -30 337 -77 525 -87 340 -222 609 -457 906 -51 66 -138 186
-193 267 -77 113 -123 169 -194 237 -194 183 -420 317 -597 353 -132 27 -349
40 -664 39 -148 0 -274 -2 -280 -4z"/>
<path d="M4435 7515 c-117 -22 -332 -88 -491 -150 -139 -55 -139 -55 -69 -49
39 3 140 14 226 25 338 42 525 43 822 4 99 -12 120 -13 167 0 154 41 291 -3
546 -173 66 -44 178 -129 249 -189 182 -152 190 -157 209 -137 40 39 1 154
-91 268 -99 121 -300 265 -458 326 -125 47 -211 61 -445 71 -461 19 -581 19
-665 4z"/>
<path d="M5116 7267 c-19 -14 -19 -16 -4 -38 8 -13 53 -46 98 -74 92 -55 114
-79 90 -96 -28 -19 -94 0 -229 65 -141 68 -193 85 -327 107 -160 25 -584 11
-764 -26 -36 -8 -116 -30 -179 -50 -63 -20 -122 -33 -130 -30 -9 3 -5 -4 8
-15 18 -16 38 -20 90 -20 36 0 104 -7 150 -14 72 -12 108 -12 250 1 219 20
478 13 614 -17 54 -11 155 -41 225 -66 70 -24 179 -59 242 -76 175 -47 234
-77 382 -194 68 -54 91 -91 133 -206 21 -59 100 -182 157 -245 27 -29 66 -57
106 -75 80 -36 101 -65 212 -293 180 -366 286 -763 264 -988 -8 -87 -47 -227
-78 -282 -60 -105 -289 -460 -345 -535 -93 -124 -281 -305 -403 -387 -273
-184 -451 -244 -727 -245 -260 0 -416 24 -668 104 -139 44 -166 50 -188 40
-94 -43 95 -186 324 -247 52 -13 155 -32 230 -40 75 -9 183 -23 241 -31 180
-27 241 -28 326 -9 256 57 558 228 791 449 139 131 348 394 500 628 140 216
213 416 213 584 0 103 -9 146 -72 354 -111 368 -143 464 -225 670 -47 118
-114 301 -149 407 -72 219 -117 323 -162 375 -30 34 -36 36 -92 36 -48 0 -75
7 -133 35 -102 48 -394 245 -478 322 -108 99 -247 157 -293 122z m820 -643
c48 -23 119 -105 154 -180 49 -102 51 -194 4 -194 -7 0 -34 35 -59 78 -26 43
-81 125 -122 181 -62 84 -73 104 -63 116 16 19 44 19 86 -1z"/>
<path d="M3744 6996 c-80 -18 -170 -65 -269 -139 -44 -33 -84 -63 -88 -67 -10
-9 96 20 162 44 25 9 103 32 175 52 72 19 141 42 154 50 22 14 30 48 14 58
-22 13 -93 14 -148 2z"/>
<path d="M4275 6959 c-137 -13 -230 -37 -314 -81 -42 -22 -145 -67 -229 -99
-181 -69 -238 -105 -357 -224 -75 -75 -255 -295 -241 -295 7 0 110 73 192 136
159 122 302 199 562 301 187 73 282 98 437 113 321 33 658 -58 960 -257 165
-110 302 -262 293 -326 -6 -42 -41 -31 -144 46 -111 83 -380 264 -459 308 -67
38 -177 75 -284 96 -114 22 -345 22 -468 0 -311 -56 -711 -254 -904 -447 -113
-113 -240 -354 -323 -609 -85 -265 -83 -264 62 14 183 350 451 618 764 765
119 55 304 116 418 135 124 22 338 22 451 1 159 -30 269 -81 269 -127 0 -26
-35 -25 -175 3 -148 30 -436 32 -565 5 -467 -100 -817 -384 -1035 -840 -101
-209 -138 -387 -139 -662 -1 -190 11 -290 47 -384 25 -70 225 -403 303 -506
71 -95 219 -251 303 -320 71 -58 78 -88 24 -93 -45 -4 -130 43 -230 128 -143
121 -258 274 -369 488 -63 121 -93 162 -120 162 -12 0 -14 -4 -6 -12 5 -7 28
-72 51 -144 49 -153 139 -344 211 -449 84 -121 158 -182 380 -316 58 -34 161
-107 230 -161 253 -201 492 -277 828 -265 158 6 218 17 252 49 54 51 -6 84
-168 92 -338 18 -558 80 -721 202 -33 25 -99 88 -145 139 -75 85 -84 99 -89
144 -8 64 -34 114 -99 192 -29 34 -84 99 -121 143 -144 170 -296 431 -356 613
-89 265 -51 595 108 928 154 322 316 504 558 624 242 121 486 161 771 127 74
-9 185 -16 246 -16 133 0 162 -8 346 -99 68 -34 168 -75 220 -92 80 -24 108
-39 162 -83 87 -72 249 -256 320 -363 117 -174 178 -407 178 -672 0 -99 18
-247 35 -288 10 -24 20 -33 38 -33 51 0 90 86 108 235 34 285 -83 704 -278
1000 -33 50 -101 135 -152 190 -91 99 -146 176 -252 349 -129 212 -289 319
-667 445 -266 90 -460 114 -717 90z"/>
<path d="M4295 6184 c-226 -41 -443 -149 -572 -287 -51 -54 -78 -100 -156
-254 -104 -206 -136 -288 -173 -438 -31 -126 -42 -320 -24 -432 46 -287 215
-579 520 -896 102 -107 143 -132 235 -147 39 -6 131 -26 205 -45 204 -51 292
-65 445 -72 398 -17 699 98 993 382 131 125 219 241 284 373 65 132 72 192 34
301 -55 159 -94 149 -152 -38 -42 -135 -91 -237 -164 -339 -62 -89 -180 -208
-275 -280 -97 -73 -270 -157 -390 -189 -93 -25 -115 -27 -315 -27 -241 -1
-325 12 -523 80 -140 49 -225 102 -339 211 -115 112 -202 232 -269 368 -74
153 -100 255 -106 410 -6 148 10 245 73 451 59 198 83 229 239 314 289 160
398 199 641 230 166 21 180 25 188 46 18 48 -38 69 -179 68 -222 -2 -416 -66
-631 -209 -119 -79 -154 -86 -132 -24 12 36 117 134 191 177 262 156 588 199
801 106 44 -20 127 -51 183 -69 200 -66 321 -135 430 -245 111 -112 144 -206
223 -623 42 -218 42 -218 26 -295 -21 -101 -97 -257 -172 -351 -272 -340 -771
-430 -1160 -210 -99 56 -226 180 -282 274 -78 133 -114 293 -93 410 23 125 93
229 214 321 125 95 265 145 407 145 187 0 325 -82 398 -238 24 -51 27 -70 27
-153 0 -84 -4 -101 -28 -150 -34 -66 -68 -103 -114 -126 -26 -12 -38 -13 -46
-5 -12 12 -12 10 37 126 39 91 37 183 -7 266 -69 134 -225 197 -383 155 -132
-35 -258 -136 -316 -254 -31 -62 -33 -74 -33 -167 0 -117 16 -172 76 -265 131
-204 387 -325 647 -307 113 8 187 28 292 80 152 74 300 246 351 407 74 230 -9
632 -168 822 -90 108 -233 194 -371 224 -63 13 -78 12 -232 -12 -334 -51 -433
-78 -600 -166 -120 -62 -206 -125 -242 -179 -33 -50 -37 -95 -8 -104 24 -8 44
3 145 76 203 147 404 215 660 226 111 5 142 3 213 -15 108 -28 181 -70 262
-151 76 -76 128 -169 161 -286 29 -104 31 -262 5 -350 -54 -180 -188 -320
-355 -369 -71 -21 -211 -21 -282 0 -139 41 -293 156 -343 257 -32 64 -35 152
-7 212 26 56 105 142 153 166 78 40 184 20 233 -45 52 -69 54 -145 8 -266 -54
-142 -50 -159 44 -186 176 -51 353 70 408 281 56 217 -57 475 -253 574 -94 47
-162 62 -287 62 -194 0 -345 -52 -559 -191 -59 -39 -125 -79 -146 -90 -79 -40
-127 -132 -151 -289 -27 -177 46 -430 174 -601 198 -266 463 -400 823 -417
323 -15 617 102 831 331 91 98 151 189 235 358 58 119 79 151 129 198 77 74
90 111 96 270 4 103 1 140 -16 212 -39 165 -103 263 -211 325 -36 20 -79 59
-124 111 -109 129 -188 187 -382 285 -160 80 -339 130 -599 167 -98 14 -275
11 -370 -6z m1438 -651 c20 -24 61 -125 83 -210 25 -95 26 -266 1 -310 -20
-37 -51 -43 -67 -13 -6 11 -17 68 -25 127 -9 60 -25 157 -36 217 -21 109 -20
165 2 192 15 18 23 18 42 -3z"/>
<path d="M4495 4998 c-2 -7 -5 -22 -7 -33 -3 -16 -13 -21 -56 -25 -72 -8 -89
-38 -57 -100 16 -31 61 -60 94 -60 48 0 111 84 111 148 0 53 -71 111 -85 70z"/>
<path d="M6933 4081 c-32 -15 -74 -59 -186 -193 -167 -201 -202 -249 -248
-338 -40 -80 -148 -189 -309 -314 -370 -287 -685 -442 -1143 -565 -275 -73
-354 -84 -565 -78 -179 5 -275 18 -457 61 -55 13 -127 26 -160 29 -60 5 -60 5
80 -63 221 -108 406 -164 625 -191 145 -17 242 -6 395 46 72 25 175 51 230 60
136 21 244 55 410 130 344 156 577 316 875 600 58 55 142 126 187 157 45 32
84 61 87 66 3 4 -22 2 -54 -6 -116 -28 -118 1 -11 152 86 120 152 228 205 335
19 37 47 82 61 99 15 18 25 32 23 32 -1 0 -22 -9 -45 -19z"/>
<path d="M6410 2992 c-52 -32 -135 -90 -185 -131 -188 -152 -347 -243 -705
-401 -177 -78 -188 -84 -250 -148 -92 -94 -163 -113 -273 -72 -51 19 -58 19
-167 5 -63 -8 -137 -16 -164 -17 -69 -2 209 -16 364 -18 143 -3 127 -7 440
127 414 179 579 281 812 501 62 59 140 131 173 160 32 28 57 52 54 52 -2 -1
-47 -26 -99 -58z"/>
<path d="M5073 2399 c-40 -20 -61 -48 -49 -68 8 -12 178 27 196 45 13 14 13
17 -4 30 -28 20 -94 17 -143 -7z"/>
</g>
</svg>
