<?xml version="1.0" standalone="no"?>
<!DOCTYPE svg PUBLIC "-//W3C//DTD SVG 20010904//EN"
 "http://www.w3.org/TR/2001/REC-SVG-20010904/DTD/svg10.dtd">
<svg version="1.0" xmlns="http://www.w3.org/2000/svg"
 width="1000.000000pt" height="1000.000000pt" viewBox="0 0 1000.000000 1000.000000"
 preserveAspectRatio="xMidYMid meet">
<metadata>
  <rdf:RDF
    xmlns:rdf = "http://www.w3.org/1999/02/22-rdf-syntax-ns#"
    xmlns:rdfs = "http://www.w3.org/2000/01/rdf-schema#"
    xmlns:dc = "http://purl.org/dc/elements/1.1/"
    xmlns:cc = "http://creativecommons.org/ns#">
    <cc:license rdf:resource="http://creativecommons.org/publicdomain/zero/1.0/deed.en"/>
    <cc:permits rdf:resource="http://creativecommons.org/ns#Reproduction"/>
    <rdf:Description about="https://nft.mir.one/fingerprints"
      dc:title="TON Fingerprints"
      dc:description="This is a unique digital fingerprint created based on the algorithm for generating basic rings using a noise texture. Like human fingerprints, you can now use it for the Web3 and Metaverse era as digital biometric information."
      dc:publisher="https://nft.mir.one"
      dc:date="2022-02-22"
      dc:format="image/svg+xml"
      dc:language="en" >
      <dc:creator>
      <rdf:Bag>
        <rdf:li>EQBondcvD2_aOFADXSWJHs4ZazQDuEl9_wNvGGPxI8hGuOFU</rdf:li>
        <rdf:li>ipfs://bafkreihj7iub3fhmhq6jn62noukt5wxn3gv6bvcg7wmt6ywvlurefezckq</rdf:li>
      </rdf:Bag>
      </dc:creator>
    </rdf:Description>
  </rdf:RDF>
</metadata>
<g transform="translate(0.000000,1000.000000) scale(0.100000,-0.100000)"
fill="#1b1f23" stroke="none">
<path d="M4678 7763 c3 -16 -1 -30 -10 -37 -8 -6 -18 -21 -22 -33 -8 -26 -62
-52 -241 -118 -275 -100 -433 -194 -692 -410 -84 -69 -153 -128 -153 -130 0
-8 158 71 221 111 188 120 331 188 556 264 193 66 240 91 339 181 62 57 95 80
122 85 91 17 403 -7 757 -60 122 -18 262 -30 254 -22 -3 3 -77 26 -165 51
-204 59 -393 91 -619 104 -269 16 -315 20 -334 31 -16 8 -17 5 -13 -17z"/>
<path d="M4903 7520 c-110 -15 -192 -65 -178 -109 11 -35 40 -43 219 -57 393
-32 694 -125 951 -295 94 -62 246 -210 297 -290 101 -154 308 -581 308 -633 0
-11 -9 -16 -29 -16 -42 0 -79 47 -190 242 -51 89 -117 199 -146 243 -100 151
-227 276 -330 324 -269 127 -366 171 -402 185 -95 35 -318 82 -483 101 -30 3
-117 18 -193 32 -139 26 -139 26 -235 9 -209 -37 -507 -162 -712 -298 -253
-168 -457 -413 -670 -803 -44 -80 -44 -80 23 -21 37 32 67 62 67 67 0 16 285
301 374 373 281 229 597 391 869 447 195 39 549 18 773 -47 193 -56 292 -111
377 -211 46 -54 48 -58 30 -70 -26 -20 -70 -9 -195 48 -115 53 -227 88 -366
116 -125 25 -453 25 -571 0 -335 -72 -669 -261 -960 -542 -130 -126 -244 -259
-310 -360 -82 -127 -200 -429 -236 -603 -21 -103 -24 -546 -5 -693 10 -83 10
-101 -4 -143 -21 -60 -20 -87 4 -206 24 -118 85 -298 147 -434 57 -125 200
-387 261 -481 89 -134 256 -291 452 -422 89 -60 125 -96 117 -117 -14 -36 -78
-16 -219 70 -51 31 -112 65 -134 75 -23 9 -61 29 -84 44 -23 15 -40 22 -36 17
10 -17 307 -244 352 -269 24 -13 119 -49 211 -79 257 -84 480 -117 788 -118
178 -1 195 1 280 26 50 15 157 41 239 58 283 60 450 121 639 235 174 104 291
198 463 369 118 119 178 187 226 261 106 161 189 337 266 570 72 215 61 214
-45 -5 -154 -318 -248 -456 -429 -630 -384 -368 -684 -548 -1103 -662 -101
-28 -131 -32 -231 -31 -646 8 -703 11 -868 59 -110 32 -143 50 -237 128 -44
36 -152 116 -241 177 -249 170 -363 286 -379 382 -9 54 -16 66 -90 162 -89
116 -134 185 -204 315 -146 271 -184 453 -107 504 24 15 26 14 49 -13 13 -16
34 -57 47 -92 77 -212 96 -261 127 -324 52 -104 136 -226 201 -293 32 -32 99
-83 148 -112 49 -30 149 -94 223 -142 220 -144 439 -249 594 -283 124 -27 209
-8 193 43 -8 25 -54 47 -221 107 -323 116 -632 300 -801 477 -104 109 -170
223 -265 461 -62 154 -93 208 -154 266 -79 74 -99 123 -100 236 0 128 17 166
116 259 84 79 138 107 164 86 23 -19 19 -29 -36 -87 -67 -71 -101 -147 -107
-239 -6 -89 3 -139 29 -165 49 -49 74 -9 99 161 33 223 59 284 91 208 14 -35
16 -110 9 -378 -4 -165 -4 -165 43 -325 79 -267 147 -378 320 -523 114 -97
239 -173 355 -218 229 -88 413 -168 494 -215 74 -42 98 -51 163 -58 161 -18
426 38 596 126 73 37 119 78 155 135 15 23 60 62 116 99 304 204 503 432 620
709 76 179 93 319 78 635 -20 429 -50 595 -145 820 -124 291 -259 504 -448
702 -98 104 -98 104 -92 161 13 115 26 119 111 30 157 -165 243 -282 424 -578
194 -316 236 -412 276 -625 17 -87 19 -151 19 -480 0 -490 -7 -532 -130 -780
-150 -301 -356 -518 -810 -849 -154 -113 -416 -210 -746 -276 -112 -23 -207
-44 -211 -46 -5 -3 -52 -5 -106 -5 -203 0 -382 79 -766 336 -149 100 -194 125
-222 125 -30 0 -34 -3 -34 -26 0 -56 185 -210 480 -399 267 -170 381 -209 625
-209 189 -1 266 16 435 94 69 32 166 72 215 90 234 85 403 177 607 330 358
269 555 503 746 885 84 168 82 155 86 555 2 277 7 374 20 440 9 47 16 102 16
123 0 67 -38 227 -96 408 -46 144 -54 181 -48 214 4 22 7 85 7 140 0 119 -19
181 -119 370 -34 66 -70 151 -80 188 -27 111 -135 234 -361 414 -122 97 -195
143 -296 183 -220 88 -634 154 -814 130z m229 -860 c180 -38 388 -123 501
-204 113 -81 232 -221 279 -331 10 -22 44 -115 77 -206 89 -249 130 -450 151
-749 7 -98 20 -189 36 -250 28 -110 30 -172 8 -278 -64 -315 -347 -663 -632
-778 -104 -42 -336 -78 -507 -78 -139 -1 -156 1 -230 27 -99 35 -119 47 -280
168 -285 214 -494 438 -595 639 -64 128 -91 229 -130 483 -24 153 -44 229 -72
275 -59 97 57 328 277 547 176 176 367 296 585 369 164 54 263 69 415 63 259
-12 425 -82 659 -281 96 -82 131 -94 142 -52 21 85 -154 276 -344 375 -183 95
-353 135 -567 135 -242 0 -417 -43 -640 -154 -280 -141 -478 -320 -760 -690
-73 -96 -170 -218 -214 -270 -45 -52 -114 -134 -152 -182 -39 -49 -77 -88 -85
-88 -7 0 -19 10 -25 22 -29 54 34 196 196 438 151 225 273 378 420 525 190
190 351 307 570 411 156 74 300 116 475 138 85 10 347 -3 442 -24z m-1491
-1425 c7 -154 45 -394 84 -529 28 -97 57 -158 107 -227 119 -166 598 -639 716
-708 210 -123 413 -156 667 -111 209 38 265 38 265 1 0 -39 -250 -121 -428
-141 -176 -20 -317 12 -537 120 -164 80 -200 108 -230 175 -20 46 -64 95 -254
284 -126 126 -257 248 -290 270 -49 33 -65 52 -90 103 -43 88 -68 195 -91 398
-10 96 -29 208 -40 247 -11 40 -20 91 -20 114 0 73 63 153 115 146 19 -2 20
-12 26 -142z m110 -1012 c127 -162 219 -252 405 -391 47 -35 83 -69 81 -75 -7
-22 -66 -19 -121 6 -215 99 -493 405 -461 507 12 37 42 22 96 -47z"/>
<path d="M4915 6219 c-66 -11 -239 -71 -332 -115 -291 -139 -559 -417 -617
-640 -21 -81 -21 -297 -1 -444 35 -249 108 -416 268 -610 104 -126 293 -270
400 -306 43 -14 51 -14 94 0 26 9 74 16 107 16 121 0 285 20 372 45 232 68
427 232 539 455 51 101 162 370 176 423 15 62 7 245 -16 347 -10 44 -17 128
-18 205 -2 120 -4 135 -31 193 -31 66 -72 109 -134 141 -21 11 -101 62 -178
113 -236 159 -424 212 -629 177z m300 -159 c205 -63 458 -256 531 -406 30 -61
26 -84 -12 -84 -41 0 -83 31 -153 115 -105 124 -216 206 -345 256 -90 35 -204
59 -277 59 -35 0 -51 4 -56 15 -7 21 23 53 61 65 46 14 171 4 251 -20z m-331
-125 c27 -14 98 -39 159 -56 213 -58 343 -142 402 -259 29 -57 31 -82 10 -100
-12 -10 -22 -9 -52 3 -25 9 -58 13 -95 9 -40 -3 -88 3 -155 19 -126 29 -260
32 -277 6 -9 -15 -6 -22 15 -41 45 -39 332 -103 499 -112 113 -6 141 -17 191
-71 76 -82 103 -175 97 -327 -15 -332 -232 -620 -539 -714 -156 -48 -376 -49
-500 -3 -205 77 -393 301 -461 548 -18 65 -22 105 -22 243 0 153 2 171 27 245
15 44 40 103 57 132 40 70 131 166 218 231 41 30 86 72 100 94 67 100 128 148
216 169 51 12 61 10 110 -16z"/>
<path d="M4737 5796 c-56 -16 -99 -52 -95 -81 2 -11 18 -28 38 -38 31 -15 53
-17 185 -11 162 7 213 -1 379 -60 74 -26 96 -25 96 6 0 102 -430 233 -603 184z"/>
<path d="M4621 5459 c-146 -29 -266 -167 -301 -347 -19 -93 -8 -241 23 -331
55 -156 166 -289 298 -353 90 -44 154 -58 262 -58 189 0 370 85 474 221 177
232 172 523 -10 642 -68 44 -129 68 -312 121 -82 24 -184 57 -225 73 -87 35
-148 44 -209 32z m395 -250 c142 -44 217 -98 263 -191 92 -184 -28 -420 -247
-488 -117 -36 -246 -20 -345 43 -68 44 -113 96 -151 177 -28 58 -31 74 -31
160 0 76 4 104 21 141 42 90 119 155 211 179 56 14 200 3 279 -21z"/>
<path d="M4835 5042 c-33 -16 -77 -33 -97 -36 -67 -12 -107 -84 -94 -171 21
-134 180 -238 317 -205 167 40 251 217 163 343 -39 54 -99 88 -172 94 -49 4
-66 0 -117 -25z m7 -124 c35 -66 55 -79 94 -58 52 29 75 -30 29 -75 -30 -31
-87 -33 -133 -5 -55 34 -88 131 -62 181 18 33 38 21 72 -43z"/>
<path d="M6014 4876 c-20 -14 -46 -66 -113 -224 -60 -142 -126 -245 -221 -342
-163 -168 -339 -252 -589 -281 -71 -9 -123 -9 -212 1 -64 6 -127 9 -138 5 -27
-8 -27 -36 2 -63 151 -142 647 -86 911 102 76 54 199 182 256 265 143 212 218
488 144 537 -17 12 -23 12 -40 0z"/>
<path d="M6095 7380 c23 -28 52 -53 109 -94 54 -39 28 -13 -59 60 -38 31 -61
47 -50 34z"/>
<path d="M6450 6826 c0 -7 46 -83 103 -167 56 -85 108 -173 115 -197 7 -23 17
-92 23 -153 16 -186 36 -266 154 -609 50 -148 82 -222 132 -308 35 -63 73
-137 84 -165 19 -52 19 -52 14 -7 -11 89 -138 550 -226 818 -75 227 -89 282
-88 330 2 46 -4 69 -29 118 -43 86 -162 262 -211 312 -41 42 -71 54 -71 28z"/>
<path d="M6816 5318 c-10 -17 -16 -87 -22 -273 -11 -359 -11 -365 11 -381 26
-19 33 -18 65 14 36 36 48 80 63 215 12 114 0 307 -24 377 -23 69 -66 91 -93
48z"/>
<path d="M7082 5150 c0 -14 2 -19 5 -12 2 6 2 18 0 25 -3 6 -5 1 -5 -13z"/>
<path d="M7091 5074 c0 -11 3 -14 6 -6 3 7 2 16 -1 19 -3 4 -6 -2 -5 -13z"/>
<path d="M7081 4754 c0 -11 3 -14 6 -6 3 7 2 16 -1 19 -3 4 -6 -2 -5 -13z"/>
<path d="M7067 4710 c-8 -34 -96 -134 -176 -201 -75 -64 -137 -145 -223 -289
-97 -166 -199 -318 -269 -405 -192 -237 -510 -495 -790 -637 -102 -52 -192
-90 -394 -164 -110 -40 -165 -75 -165 -104 0 -51 82 -49 270 5 381 111 698
301 1019 610 192 185 307 345 486 675 31 58 78 130 103 160 25 30 60 87 78
126 36 76 78 217 71 237 -2 6 -6 0 -10 -13z"/>
<path d="M6560 3193 c-41 -31 -124 -99 -185 -151 -246 -211 -479 -345 -708
-406 -51 -14 -164 -37 -252 -51 -182 -30 -251 -49 -264 -74 -33 -62 81 -76
322 -41 163 24 270 56 392 117 194 97 333 202 520 395 194 199 260 268 255
267 -3 0 -39 -25 -80 -56z"/>
<path d="M4020 2518 c3 -3 78 -31 168 -62 266 -91 415 -123 716 -151 222 -21
380 -19 543 6 74 11 151 19 169 17 41 -5 43 -1 7 14 -18 7 -103 12 -233 13
-198 1 -208 2 -280 29 -59 21 -110 30 -240 42 -270 24 -447 44 -565 64 -112
19 -294 37 -285 28z"/>
</g>
</svg>
