<?xml version="1.0" standalone="no"?>
<!DOCTYPE svg PUBLIC "-//W3C//DTD SVG 20010904//EN"
 "http://www.w3.org/TR/2001/REC-SVG-20010904/DTD/svg10.dtd">
<svg version="1.0" xmlns="http://www.w3.org/2000/svg"
 width="1000.000000pt" height="1000.000000pt" viewBox="0 0 1000.000000 1000.000000"
 preserveAspectRatio="xMidYMid meet">
<metadata>
  <rdf:RDF
    xmlns:rdf = "http://www.w3.org/1999/02/22-rdf-syntax-ns#"
    xmlns:rdfs = "http://www.w3.org/2000/01/rdf-schema#"
    xmlns:dc = "http://purl.org/dc/elements/1.1/"
    xmlns:cc = "http://creativecommons.org/ns#">
    <cc:license rdf:resource="http://creativecommons.org/publicdomain/zero/1.0/deed.en"/>
    <cc:permits rdf:resource="http://creativecommons.org/ns#Reproduction"/>
    <rdf:Description about="https://nft.mir.one/fingerprints"
      dc:title="TON Fingerprints"
      dc:description="This is a unique digital fingerprint created based on the algorithm for generating basic rings using a noise texture. Like human fingerprints, you can now use it for the Web3 and Metaverse era as digital biometric information."
      dc:publisher="https://nft.mir.one"
      dc:date="2022-02-22"
      dc:format="image/svg+xml"
      dc:language="en" >
      <dc:creator>
      <rdf:Bag>
        <rdf:li>EQBondcvD2_aOFADXSWJHs4ZazQDuEl9_wNvGGPxI8hGuOFU</rdf:li>
        <rdf:li>ipfs://bafkreihj7iub3fhmhq6jn62noukt5wxn3gv6bvcg7wmt6ywvlurefezckq</rdf:li>
      </rdf:Bag>
      </dc:creator>
    </rdf:Description>
  </rdf:RDF>
</metadata>
<g transform="translate(0.000000,1000.000000) scale(0.100000,-0.100000)"
fill="#1b1f23" stroke="none">
<path d="M4685 7763 c-21 -14 -111 -57 -200 -95 -182 -79 -347 -170 -485 -268
-105 -75 -266 -208 -320 -264 -34 -36 -34 -36 0 -24 19 6 130 76 245 154 285
192 406 260 640 361 86 37 115 57 115 81 0 8 11 30 26 49 14 18 24 33 22 32
-2 0 -21 -12 -43 -26z"/>
<path d="M5105 7721 c-49 -4 -154 -18 -232 -31 -116 -20 -143 -27 -143 -40 0
-21 41 -40 85 -40 19 0 122 13 228 29 105 16 256 37 335 47 78 10 142 22 142
26 0 4 -30 8 -67 8 -38 0 -111 2 -163 4 -52 2 -135 1 -185 -3z"/>
<path d="M5090 7539 c-69 -10 -199 -28 -290 -38 -92 -11 -194 -28 -230 -41
-119 -39 -263 -117 -461 -248 -108 -71 -250 -158 -315 -193 -101 -54 -133 -77
-209 -154 -135 -134 -254 -321 -462 -723 -95 -183 -95 -183 -37 -125 32 32 90
99 128 148 206 268 406 481 561 598 48 36 157 105 243 153 123 70 174 106 242
170 106 100 142 123 278 178 129 53 251 87 435 121 295 54 369 60 727 59 335
-1 335 -1 275 18 -299 95 -597 121 -885 77z"/>
<path d="M5370 7333 c-101 -8 -330 -46 -444 -75 -124 -31 -211 -62 -326 -117
-36 -17 -81 -31 -100 -31 -71 0 -141 -60 -119 -102 14 -26 35 -22 85 14 33 23
47 29 56 20 8 -8 5 -20 -11 -47 -11 -20 -21 -43 -21 -51 0 -22 49 -37 99 -30
36 5 52 1 95 -23 61 -35 140 -51 249 -51 77 0 81 1 146 44 90 60 154 84 266
98 306 37 858 -108 1203 -315 31 -19 87 -48 123 -65 67 -30 67 -30 -43 77
-174 168 -315 267 -444 311 -207 72 -456 114 -679 114 -179 0 -256 -12 -450
-69 -128 -38 -325 -85 -356 -85 -21 0 -24 21 -9 50 13 25 82 65 156 90 101 36
334 90 452 105 276 36 633 1 927 -92 73 -24 197 -53 202 -49 1 1 -55 36 -125
78 -199 119 -358 180 -511 198 -80 9 -318 11 -421 3z"/>
<path d="M5280 6891 c-41 -9 -80 -28 -80 -40 0 -21 39 -33 181 -56 221 -34
334 -60 499 -115 325 -107 597 -262 865 -492 129 -110 195 -163 195 -153 0 12
-146 223 -201 290 -130 159 -207 219 -409 320 -218 109 -444 184 -679 225
-122 22 -319 33 -371 21z"/>
<path d="M4210 6805 c-156 -43 -301 -144 -315 -219 -9 -45 0 -70 21 -62 8 3
77 22 152 42 219 57 386 58 667 3 108 -21 641 -197 870 -287 361 -141 620
-316 772 -522 31 -41 108 -127 173 -190 171 -169 293 -366 369 -595 49 -147
54 -208 47 -525 -6 -268 -9 -292 -36 -405 -16 -66 -31 -145 -34 -175 -6 -54
-5 -53 13 20 10 41 32 127 49 190 16 63 35 167 41 230 47 492 47 520 10 713
-42 224 -94 350 -201 492 -97 127 -361 409 -465 498 -166 138 -390 271 -608
357 -44 18 -179 66 -300 107 -121 41 -276 101 -345 135 -166 80 -168 81 -440
144 -261 62 -356 72 -440 49z"/>
<path d="M5088 6799 c-26 -15 -22 -37 14 -71 59 -55 134 -86 443 -183 359
-113 571 -215 801 -386 194 -143 411 -361 580 -584 91 -120 150 -189 141 -165
-67 182 -168 392 -242 506 -107 164 -432 413 -720 554 -176 86 -352 147 -623
215 -209 54 -253 69 -301 106 -26 21 -66 24 -93 8z"/>
<path d="M3824 6469 c-180 -96 -402 -301 -577 -534 -101 -134 -190 -345 -237
-560 -50 -231 -64 -477 -34 -605 8 -36 26 -135 39 -222 13 -86 27 -169 31
-185 8 -35 41 -102 61 -124 7 -9 38 -74 68 -144 63 -147 97 -198 128 -193 19
3 22 10 25 56 3 43 -9 88 -67 260 -67 197 -71 213 -71 298 0 73 5 100 26 149
15 33 66 157 114 275 107 264 158 366 251 505 80 120 163 208 242 259 60 38
134 66 177 66 34 0 72 -32 64 -54 -3 -7 -47 -43 -98 -79 -109 -77 -200 -166
-255 -251 -49 -75 -247 -525 -289 -657 -71 -221 -68 -296 30 -817 10 -57 49
-112 78 -112 52 0 61 84 39 379 -17 229 7 400 80 580 62 153 140 255 229 297
31 15 122 68 201 117 246 152 342 186 551 194 221 9 383 -34 669 -176 157 -78
211 -90 211 -48 0 81 -398 304 -657 369 -123 31 -362 31 -474 0 -132 -36 -272
-117 -426 -248 -109 -93 -119 -99 -139 -83 -37 31 18 132 130 236 113 106 259
213 311 228 77 24 252 38 381 32 186 -10 255 -29 434 -120 346 -177 465 -266
508 -382 14 -39 49 -94 100 -156 42 -54 97 -132 121 -174 83 -144 141 -365
127 -475 -22 -162 -73 -420 -98 -500 -80 -255 -206 -419 -472 -618 -169 -125
-305 -182 -442 -182 -33 0 -107 -6 -165 -14 -249 -35 -392 -30 -594 20 -178
44 -361 152 -394 232 -15 36 -4 68 45 121 51 57 76 55 152 -13 74 -66 124 -96
217 -131 152 -58 346 -72 488 -36 89 23 83 19 307 182 336 244 456 413 468
654 5 121 -10 194 -67 310 -72 146 -179 241 -327 291 -160 53 -317 18 -432
-97 -60 -59 -97 -129 -113 -212 -42 -206 147 -375 330 -296 90 38 137 132 101
200 -13 23 -43 25 -60 4 -20 -24 -67 -19 -86 10 -34 51 5 85 98 85 100 0 163
-72 162 -185 -2 -219 -271 -372 -506 -288 -148 52 -251 235 -234 415 17 187
138 360 309 442 93 45 152 58 257 59 208 0 413 -106 534 -276 55 -77 85 -138
127 -252 29 -81 32 -101 33 -200 0 -94 -4 -121 -28 -190 -72 -210 -218 -381
-470 -550 -89 -60 -146 -114 -146 -140 0 -22 38 -38 76 -31 133 25 396 217
532 389 130 163 212 382 212 567 0 68 -11 101 -47 144 -14 17 -52 85 -83 152
-114 241 -216 350 -415 445 -127 60 -229 83 -370 84 -130 0 -188 -11 -297 -56
-169 -70 -299 -194 -379 -364 -117 -249 -81 -584 79 -744 53 -53 147 -106 227
-127 68 -19 195 -17 274 2 169 42 347 179 413 320 30 64 33 77 33 169 0 89 -3
106 -28 157 -48 97 -151 168 -244 168 -18 0 -53 -5 -78 -12 -56 -15 -75 -3
-57 37 19 42 92 68 171 63 175 -13 321 -165 352 -368 38 -243 -126 -490 -430
-649 -183 -95 -352 -116 -527 -65 -134 38 -278 125 -333 200 -58 79 -93 257
-94 474 -1 295 76 496 254 666 297 282 684 329 1094 134 241 -115 379 -279
460 -547 15 -48 35 -96 45 -107 17 -18 18 -18 39 3 17 17 21 33 21 92 0 93
-21 173 -75 284 -54 112 -129 213 -198 264 -60 45 -351 179 -479 222 -147 48
-246 62 -393 56 -203 -8 -342 -58 -549 -197 -179 -120 -267 -222 -336 -388
-58 -138 -70 -224 -79 -552 -5 -162 -13 -311 -19 -330 -6 -19 -18 -79 -26
-132 -7 -54 -23 -116 -34 -139 -18 -37 -19 -44 -6 -74 22 -52 18 -73 -18 -96
-30 -18 -44 -20 -156 -15 -67 3 -128 8 -135 11 -7 4 6 -8 28 -27 21 -18 78
-67 125 -108 197 -173 359 -284 465 -316 86 -26 312 -54 490 -60 133 -5 195
-3 285 10 208 31 473 135 635 251 109 78 360 280 412 332 173 171 304 584 304
957 0 315 -100 560 -358 882 -123 151 -223 229 -451 348 -140 73 -199 136
-128 136 62 0 287 -102 421 -192 96 -64 272 -235 347 -338 198 -271 288 -540
288 -860 0 -296 -78 -628 -209 -887 -57 -114 -86 -144 -194 -196 -62 -31 -124
-73 -191 -129 -154 -129 -216 -177 -288 -225 -79 -51 -396 -216 -458 -238 -85
-30 -262 -38 -460 -21 -192 17 -360 20 -474 9 -70 -6 -70 -6 16 -39 47 -18
126 -42 174 -53 49 -11 153 -38 232 -60 179 -51 267 -66 512 -88 338 -31 431
-22 598 58 139 67 252 203 379 456 51 101 56 118 57 180 1 54 4 68 17 71 24 4
47 -23 55 -66 13 -68 -19 -184 -97 -347 -40 -82 -94 -197 -121 -255 -28 -58
-64 -120 -81 -139 -18 -18 -72 -54 -122 -78 -100 -49 -81 -48 37 2 85 36 169
89 210 132 15 15 52 75 84 133 31 58 81 142 110 187 78 121 84 135 84 203 0
131 30 279 95 475 98 295 136 446 166 665 15 113 15 376 0 475 -49 316 -182
604 -377 814 -183 198 -481 383 -688 428 -65 14 -84 15 -145 3 -40 -7 -87 -10
-113 -6 -199 32 -272 39 -495 45 -245 6 -253 7 -275 29 -31 31 -16 52 53 76
43 15 92 20 239 24 165 4 214 1 450 -28 284 -34 377 -56 521 -119 248 -109
564 -357 678 -531 103 -158 211 -418 252 -608 30 -139 37 -450 15 -622 -37
-279 -90 -479 -236 -895 -38 -110 -70 -212 -70 -227 0 -44 36 -36 90 20 137
143 290 611 356 1092 20 151 23 459 5 575 -29 185 -91 374 -182 551 -29 54
-65 133 -81 174 -48 119 -55 128 -131 177 -40 26 -115 79 -168 119 -313 236
-557 350 -909 423 -257 53 -360 65 -560 65 -202 -1 -279 -14 -399 -70 -31 -14
-113 -50 -183 -79 -146 -60 -215 -99 -300 -171 -90 -76 -161 -165 -219 -275
-32 -62 -64 -108 -85 -124 -58 -44 -117 -185 -193 -455 -56 -198 -74 -226
-117 -179 -16 18 -19 36 -19 113 1 115 23 220 87 416 60 183 85 237 142 299
23 25 73 87 111 136 185 241 389 393 616 458 282 82 581 94 889 36 512 -98
846 -237 1189 -497 143 -109 172 -126 201 -117 52 17 25 79 -78 177 -232 221
-548 375 -1092 533 -405 117 -511 128 -990 99 -108 -7 -141 0 -196 41 -19 14
-25 13 -80 -16z m2016 -3319 c0 -15 -162 -238 -234 -322 -78 -92 -161 -162
-253 -217 -122 -71 -284 -111 -312 -77 -23 27 9 58 121 117 186 97 272 161
427 318 79 80 157 156 174 168 31 23 77 31 77 13z"/>
<path d="M3292 5528 c-15 -15 -16 -45 -2 -53 16 -10 41 16 38 38 -4 25 -20 31
-36 15z"/>
<path d="M6393 5475 c-10 -28 5 -70 63 -171 116 -201 184 -370 221 -551 15
-72 18 -137 18 -348 -1 -234 -4 -277 -28 -430 -56 -344 -110 -557 -204 -794
-83 -210 -137 -283 -268 -359 -102 -59 -205 -167 -205 -215 0 -16 16 -5 73 50
39 38 106 92 148 120 141 95 235 224 356 488 104 227 162 417 231 760 44 214
56 344 49 530 -9 258 -47 409 -158 625 -69 133 -145 240 -202 281 -44 32 -84
38 -94 14z"/>
<path d="M3016 4153 c11 -62 43 -151 84 -232 46 -91 173 -275 252 -364 82 -93
172 -130 223 -94 17 13 17 16 -11 68 -38 73 -240 270 -309 303 -98 46 -200
184 -226 305 -12 59 -23 69 -13 14z"/>
<path d="M6881 3764 c0 -11 3 -14 6 -6 3 7 2 16 -1 19 -3 4 -6 -2 -5 -13z"/>
<path d="M5385 2240 c-13 -5 -14 -9 -5 -9 8 0 24 4 35 9 13 5 14 9 5 9 -8 0
-24 -4 -35 -9z"/>
<path d="M5338 2223 c7 -3 16 -2 19 1 4 3 -2 6 -13 5 -11 0 -14 -3 -6 -6z"/>
<path d="M5288 2213 c7 -3 16 -2 19 1 4 3 -2 6 -13 5 -11 0 -14 -3 -6 -6z"/>
<path d="M4708 2203 c7 -3 16 -2 19 1 4 3 -2 6 -13 5 -11 0 -14 -3 -6 -6z"/>
<path d="M5223 2203 c9 -2 23 -2 30 0 6 3 -1 5 -18 5 -16 0 -22 -2 -12 -5z"/>
<path d="M4843 2193 c32 -2 81 -2 110 0 29 2 3 3 -58 3 -60 0 -84 -1 -52 -3z"/>
<path d="M5058 2193 c23 -2 61 -2 85 0 23 2 4 4 -43 4 -47 0 -66 -2 -42 -4z"/>
</g>
</svg>
