<?xml version="1.0" standalone="no"?>
<!DOCTYPE svg PUBLIC "-//W3C//DTD SVG 20010904//EN"
 "http://www.w3.org/TR/2001/REC-SVG-20010904/DTD/svg10.dtd">
<svg version="1.0" xmlns="http://www.w3.org/2000/svg"
 width="1000.000000pt" height="1000.000000pt" viewBox="0 0 1000.000000 1000.000000"
 preserveAspectRatio="xMidYMid meet">
<metadata>
  <rdf:RDF
    xmlns:rdf = "http://www.w3.org/1999/02/22-rdf-syntax-ns#"
    xmlns:rdfs = "http://www.w3.org/2000/01/rdf-schema#"
    xmlns:dc = "http://purl.org/dc/elements/1.1/"
    xmlns:cc = "http://creativecommons.org/ns#">
    <cc:license rdf:resource="http://creativecommons.org/publicdomain/zero/1.0/deed.en"/>
    <cc:permits rdf:resource="http://creativecommons.org/ns#Reproduction"/>
    <rdf:Description about="https://nft.mir.one/fingerprints"
      dc:title="TON Fingerprints"
      dc:description="This is a unique digital fingerprint created based on the algorithm for generating basic rings using a noise texture. Like human fingerprints, you can now use it for the Web3 and Metaverse era as digital biometric information."
      dc:publisher="https://nft.mir.one"
      dc:date="2022-02-22"
      dc:format="image/svg+xml"
      dc:language="en" >
      <dc:creator>
      <rdf:Bag>
        <rdf:li>EQBondcvD2_aOFADXSWJHs4ZazQDuEl9_wNvGGPxI8hGuOFU</rdf:li>
        <rdf:li>ipfs://bafkreihj7iub3fhmhq6jn62noukt5wxn3gv6bvcg7wmt6ywvlurefezckq</rdf:li>
      </rdf:Bag>
      </dc:creator>
    </rdf:Description>
  </rdf:RDF>
</metadata>
<g transform="translate(0.000000,1000.000000) scale(0.100000,-0.100000)"
fill="#1b1f23" stroke="none">
<path d="M5255 7740 c49 -54 253 -127 328 -117 57 8 72 27 21 27 -46 0 -220
50 -302 86 -66 29 -70 29 -47 4z"/>
<path d="M4655 7729 c-55 -5 -140 -15 -190 -23 -90 -14 -90 -14 15 -15 161 -2
374 -19 453 -37 83 -19 314 -100 341 -120 12 -8 16 -19 12 -30 -5 -14 -17 -16
-79 -11 -39 3 -130 17 -202 31 -281 55 -523 41 -875 -50 -30 -8 -75 -14 -100
-14 -45 -1 -45 -1 -9 -20 34 -18 59 -19 390 -17 308 1 381 -1 559 -21 185 -20
218 -21 335 -11 159 15 326 2 466 -36 260 -70 360 -94 422 -99 68 -5 68 -5
-103 79 -218 108 -331 147 -504 175 -156 25 -198 37 -269 81 -74 45 -221 108
-291 124 -83 18 -250 25 -371 14z"/>
<path d="M4200 7310 c-196 -11 -297 -39 -468 -132 -51 -27 -92 -51 -90 -53 2
-1 50 6 108 16 240 43 638 51 1101 23 201 -12 341 -14 585 -9 212 5 324 3 328
-3 11 -18 -5 -40 -39 -56 -41 -20 -255 -54 -390 -62 -61 -4 -210 1 -380 12
-325 22 -894 25 -1045 6 -52 -6 -135 -25 -183 -41 -69 -24 -201 -51 -244 -51
-3 0 15 -11 41 -25 66 -35 147 -39 371 -21 346 29 645 22 1264 -30 305 -25
305 -25 328 5 30 39 89 56 243 72 122 12 220 7 335 -17 98 -20 254 -69 355
-111 84 -36 220 -78 203 -64 -76 66 -227 181 -293 224 -155 100 -211 122 -403
156 -101 18 -111 23 -152 60 -23 22 -60 45 -81 51 -72 20 -228 31 -379 24 -98
-4 -225 0 -365 10 -278 20 -568 26 -750 16z"/>
<path d="M5470 6846 c0 -27 55 -73 108 -90 26 -9 133 -33 238 -55 310 -64 502
-127 798 -263 72 -33 151 -66 175 -74 45 -13 45 -13 -35 67 -83 85 -201 184
-267 226 -94 59 -385 150 -570 177 -56 9 -180 19 -274 22 -161 7 -173 6 -173
-10z"/>
<path d="M3975 6810 c-44 -4 -145 -13 -225 -19 -183 -15 -242 -34 -355 -111
-22 -15 -57 -36 -78 -48 -37 -20 -37 -20 8 -26 64 -10 306 11 470 40 207 37
374 46 620 34 253 -13 448 -32 654 -65 182 -30 226 -41 596 -146 494 -142 659
-201 1012 -365 126 -59 214 -94 235 -94 32 0 31 2 -82 115 -63 64 -135 129
-160 145 -130 83 -519 224 -870 315 -118 30 -273 75 -345 100 -149 51 -229 66
-491 94 -361 39 -764 52 -989 31z"/>
<path d="M3980 6570 c-82 -10 -139 -33 -167 -68 -23 -27 -23 -27 -210 -33
-185 -5 -189 -6 -248 -36 -33 -17 -91 -54 -130 -82 -38 -28 -74 -52 -80 -52
-5 -1 8 -5 30 -9 22 -5 102 -4 178 1 159 11 317 1 447 -30 124 -29 236 -47
510 -81 613 -77 946 -158 1408 -342 162 -64 185 -71 277 -78 57 -4 128 -17
164 -29 179 -61 506 -259 763 -461 76 -61 175 -121 166 -102 -83 178 -175 322
-230 363 -114 83 -419 247 -573 308 -55 21 -165 58 -245 81 -80 23 -224 68
-320 100 -488 165 -824 240 -1295 290 -374 40 -465 51 -513 65 -51 15 -92 47
-92 70 0 18 20 19 270 5 660 -36 1043 -105 1650 -296 339 -107 550 -180 650
-224 129 -57 408 -197 503 -254 43 -25 85 -46 93 -46 8 0 29 -7 47 -16 32 -17
32 -17 -2 21 -18 21 -49 63 -68 92 -64 100 -149 177 -248 223 -325 151 -507
223 -815 318 -560 174 -799 229 -1180 272 -308 35 -598 46 -740 30z"/>
<path d="M3251 6140 c-51 -23 -203 -131 -197 -138 3 -2 144 -5 313 -6 333 -3
391 -8 1023 -101 463 -68 732 -136 998 -251 205 -88 300 -150 542 -352 271
-228 407 -366 514 -527 50 -75 332 -637 385 -770 18 -44 44 -93 57 -110 24
-30 24 -30 24 5 -1 87 -20 293 -34 360 -11 50 -37 115 -80 200 -38 75 -77 169
-95 230 -20 68 -43 122 -68 159 -60 89 -293 316 -473 462 -91 73 -213 179
-271 234 -126 119 -201 164 -419 252 -333 133 -580 189 -1310 294 -437 63
-517 72 -680 76 -171 4 -188 2 -229 -17z"/>
<path d="M3136 5836 c-33 -20 -79 -54 -102 -76 -24 -22 -49 -40 -56 -41 -7 -1
-2 -4 12 -8 14 -4 140 -6 280 -3 283 5 305 3 880 -74 621 -83 681 -94 884
-161 237 -79 469 -206 676 -371 127 -101 322 -299 393 -398 117 -166 210 -374
227 -512 14 -108 39 -129 81 -71 22 32 22 32 40 10 9 -11 23 -52 29 -91 6 -38
36 -147 66 -242 30 -94 64 -212 75 -262 12 -50 31 -117 43 -148 22 -57 22 -57
42 80 11 79 19 192 18 267 0 126 -1 133 -38 230 -38 98 -231 484 -328 657
-118 210 -320 425 -610 651 -313 244 -665 382 -1188 466 -175 28 -603 87 -810
111 -52 6 -198 14 -325 17 -230 5 -230 5 -289 -31z"/>
<path d="M5988 5659 c-10 -5 -18 -17 -18 -24 0 -29 76 -98 232 -212 177 -128
326 -248 468 -377 77 -70 270 -214 349 -261 9 -5 28 -17 42 -26 26 -17 26 -16
-16 79 -61 140 -91 197 -126 237 -73 83 -434 350 -630 466 -178 105 -265 140
-301 118z"/>
<path d="M3199 5581 c-89 -8 -117 -25 -214 -127 -60 -63 -60 -63 -5 -60 30 2
98 11 150 21 64 12 145 19 245 19 141 1 154 -1 225 -28 118 -44 157 -53 295
-66 152 -13 361 -44 494 -71 110 -23 152 -24 189 -5 97 48 254 14 517 -113
365 -177 724 -482 840 -715 40 -78 47 -153 19 -177 -19 -16 -15 -20 -93 101
-118 182 -328 374 -622 567 -214 140 -517 273 -623 273 -42 0 -46 -2 -46 -24
0 -39 46 -73 210 -157 294 -150 683 -429 942 -676 68 -65 140 -127 161 -138
28 -15 46 -36 73 -90 20 -38 62 -113 92 -165 89 -151 260 -514 287 -606 13
-46 29 -135 35 -197 10 -106 31 -230 37 -223 8 8 65 223 78 295 22 124 19 185
-15 297 -54 182 -146 409 -204 505 -41 68 -69 132 -106 246 -83 255 -165 390
-344 567 -328 325 -766 555 -1136 596 -52 6 -156 17 -230 25 -149 16 -569 73
-780 105 -152 23 -357 32 -471 21z"/>
<path d="M3280 5314 c-195 -26 -231 -47 -334 -191 -37 -52 -37 -52 1 -46 21 3
83 21 138 39 55 18 177 49 270 68 94 19 182 39 196 44 32 13 52 36 47 59 -8
42 -128 52 -318 27z"/>
<path d="M3750 5174 c-14 -3 -74 -21 -135 -39 -60 -19 -162 -46 -225 -60 -63
-14 -159 -39 -213 -56 -87 -28 -102 -36 -135 -75 -32 -38 -136 -224 -125 -224
13 0 74 38 108 67 84 72 217 117 496 167 422 77 641 50 1088 -135 224 -93 312
-147 298 -184 -11 -27 -70 -17 -284 51 -538 170 -711 191 -1115 139 -273 -35
-378 -64 -427 -116 -53 -58 -11 -76 122 -53 76 12 128 15 208 10 78 -5 140 -2
226 10 143 20 276 14 383 -16 122 -34 743 -158 853 -170 174 -19 273 -63 567
-250 196 -125 236 -147 283 -161 38 -11 67 5 67 35 0 48 -243 246 -539 441
-90 59 -195 137 -235 173 -89 81 -170 134 -316 207 -63 32 -149 77 -190 100
-160 90 -345 135 -585 140 -82 2 -161 1 -175 -1z"/>
<path d="M6817 4743 c-14 -13 -7 -65 14 -106 65 -128 199 -318 199 -281 0 32
-62 250 -85 298 -33 70 -100 117 -128 89z"/>
<path d="M3270 4575 c-30 -7 -81 -18 -112 -25 -69 -14 -106 -46 -149 -132 -16
-32 -36 -61 -45 -65 -12 -4 -12 -7 3 -19 28 -21 52 -17 107 20 28 19 94 53
146 76 174 78 217 112 184 144 -18 19 -59 19 -134 1z"/>
<path d="M3744 4560 c-33 -5 -85 -16 -116 -24 -55 -17 -74 -27 -263 -146 -219
-137 -203 -123 -246 -218 -22 -48 -49 -104 -60 -125 -20 -38 -20 -38 22 -17
22 12 75 49 117 82 111 88 214 155 328 214 106 55 174 78 337 114 96 21 143
47 134 73 -14 43 -128 65 -253 47z"/>
<path d="M4155 4430 c-27 -4 -86 -26 -130 -48 -51 -26 -121 -50 -193 -66 -62
-14 -143 -37 -180 -52 -113 -45 -320 -173 -405 -253 -37 -33 -63 -85 -96 -187
-26 -80 -26 -80 6 -58 18 12 74 57 125 101 181 156 366 272 491 308 104 30
151 -5 70 -53 -248 -145 -350 -216 -465 -321 -69 -63 -84 -94 -112 -232 -23
-110 -23 -110 7 -82 17 15 40 39 51 53 91 114 257 263 421 380 116 82 151 113
198 171 47 59 80 80 178 113 205 69 497 50 794 -51 122 -42 392 -174 556 -272
211 -126 323 -247 388 -422 55 -149 82 -186 118 -163 21 13 63 145 63 201 0
86 -83 252 -176 348 -39 41 -75 65 -160 105 -60 29 -188 98 -284 153 -307 176
-429 225 -671 271 -277 52 -495 73 -594 56z"/>
<path d="M2976 4295 c4 -8 8 -15 10 -15 2 0 4 7 4 15 0 8 -4 15 -10 15 -5 0
-7 -7 -4 -15z"/>
<path d="M4270 4085 c-111 -25 -179 -56 -293 -132 -235 -159 -452 -343 -521
-442 -30 -43 -56 -160 -56 -253 0 -55 2 -59 16 -47 9 8 45 56 79 109 114 176
245 304 440 433 181 119 308 166 476 174 125 7 213 -7 318 -48 85 -33 234
-135 322 -219 46 -45 58 -63 63 -98 7 -50 36 -110 111 -232 91 -148 142 -268
170 -400 45 -216 22 -372 -85 -561 -21 -37 -43 -84 -50 -105 -7 -22 -18 -45
-24 -53 -20 -26 24 5 119 81 92 75 172 164 200 225 43 89 45 339 6 493 -46
174 -149 355 -288 502 -83 87 -93 110 -52 121 74 19 222 -94 328 -252 63 -93
128 -237 158 -348 36 -134 38 -345 6 -508 -12 -60 -24 -129 -26 -152 -5 -42
-5 -42 31 10 19 29 51 72 69 97 19 25 56 87 81 139 47 94 47 94 46 220 -1 189
-21 268 -106 431 -131 250 -218 359 -366 459 -80 54 -521 269 -623 305 -121
41 -214 57 -354 62 -91 3 -149 -1 -195 -11z"/>
<path d="M4332 3789 c-125 -21 -299 -102 -433 -201 -93 -69 -243 -227 -289
-303 -35 -59 -35 -59 -34 -185 0 -69 3 -134 7 -144 8 -21 13 -13 76 127 114
255 362 465 641 543 52 15 102 19 252 19 164 0 189 2 204 17 15 15 16 21 5 41
-40 74 -248 116 -429 86z"/>
<path d="M4565 3530 c-204 -8 -267 -21 -391 -80 -150 -72 -287 -197 -373 -341
-40 -66 -45 -82 -49 -151 -2 -42 -1 -115 3 -163 7 -86 7 -86 36 -39 17 25 41
75 54 111 102 270 271 433 515 494 70 18 103 21 190 16 119 -6 181 -24 259
-75 51 -34 124 -119 158 -186 31 -60 64 -173 70 -239 5 -58 2 -77 -20 -135
-15 -37 -36 -106 -47 -155 -26 -112 -63 -186 -136 -267 -110 -122 -110 -115 2
-75 132 48 216 97 275 159 27 28 69 71 93 96 25 25 52 62 60 82 45 107 -8 377
-114 588 -78 155 -195 302 -273 342 -49 25 -92 27 -312 18z m592 -850 c15 -29
17 -108 4 -129 -12 -19 -39 -7 -51 24 -11 30 -13 95 -4 120 9 22 36 15 51 -15z"/>
<path d="M6112 3393 c-5 -10 -19 -56 -31 -103 -19 -77 -21 -112 -20 -369 1
-156 4 -294 8 -306 5 -19 16 -1 63 99 32 68 69 163 83 212 24 79 26 100 21
189 -9 139 -24 219 -50 258 -25 37 -60 47 -74 20z"/>
<path d="M4383 3245 c-182 -41 -335 -186 -387 -365 -18 -63 -11 -108 23 -164
29 -47 111 -120 164 -145 47 -23 112 -28 123 -10 3 6 -22 38 -58 72 -78 75
-104 131 -95 207 17 141 145 256 299 268 106 8 202 -27 245 -88 14 -20 14 -23
-1 -38 -14 -14 -22 -14 -88 1 -96 23 -162 21 -218 -4 -56 -25 -77 -44 -101
-91 -36 -71 -23 -132 42 -203 49 -53 86 -59 124 -20 45 44 26 108 -35 117 -16
2 -26 10 -28 24 -9 61 113 81 187 30 117 -82 82 -260 -73 -365 -52 -35 -198
-91 -239 -91 -57 0 -22 -8 82 -20 150 -16 282 8 373 67 71 47 137 223 138 365
0 88 -35 251 -67 310 -33 61 -98 113 -167 133 -75 23 -172 27 -243 10z"/>
</g>
</svg>
