<?xml version="1.0" standalone="no"?>
<!DOCTYPE svg PUBLIC "-//W3C//DTD SVG 20010904//EN"
 "http://www.w3.org/TR/2001/REC-SVG-20010904/DTD/svg10.dtd">
<svg version="1.0" xmlns="http://www.w3.org/2000/svg"
 width="1000.000000pt" height="1000.000000pt" viewBox="0 0 1000.000000 1000.000000"
 preserveAspectRatio="xMidYMid meet">
<metadata>
  <rdf:RDF
    xmlns:rdf = "http://www.w3.org/1999/02/22-rdf-syntax-ns#"
    xmlns:rdfs = "http://www.w3.org/2000/01/rdf-schema#"
    xmlns:dc = "http://purl.org/dc/elements/1.1/"
    xmlns:cc = "http://creativecommons.org/ns#">
    <cc:license rdf:resource="http://creativecommons.org/publicdomain/zero/1.0/deed.en"/>
    <cc:permits rdf:resource="http://creativecommons.org/ns#Reproduction"/>
    <rdf:Description about="https://nft.mir.one/fingerprints"
      dc:title="TON Fingerprints"
      dc:description="This is a unique digital fingerprint created based on the algorithm for generating basic rings using a noise texture. Like human fingerprints, you can now use it for the Web3 and Metaverse era as digital biometric information."
      dc:publisher="https://nft.mir.one"
      dc:date="2022-02-22"
      dc:format="image/svg+xml"
      dc:language="en" >
      <dc:creator>
      <rdf:Bag>
        <rdf:li>EQBondcvD2_aOFADXSWJHs4ZazQDuEl9_wNvGGPxI8hGuOFU</rdf:li>
        <rdf:li>ipfs://bafkreihj7iub3fhmhq6jn62noukt5wxn3gv6bvcg7wmt6ywvlurefezckq</rdf:li>
      </rdf:Bag>
      </dc:creator>
    </rdf:Description>
  </rdf:RDF>
</metadata>
<g transform="translate(0.000000,1000.000000) scale(0.100000,-0.100000)"
fill="#1b1f23" stroke="none">
<path d="M4760 7726 c-168 -22 -253 -42 -460 -112 -195 -65 -195 -65 -85 -59
88 5 129 13 206 39 155 54 213 61 524 61 362 0 399 -9 650 -167 210 -132 713
-416 767 -433 29 -10 67 -24 83 -33 43 -21 42 -20 -192 155 -125 93 -302 213
-433 293 -302 184 -341 205 -445 236 -83 25 -105 27 -300 30 -133 2 -248 -2
-315 -10z"/>
<path d="M4578 7516 c-66 -14 -90 -31 -86 -60 5 -34 62 -53 208 -71 340 -42
539 -99 805 -230 301 -149 727 -416 960 -601 128 -102 291 -257 311 -296 8
-15 14 -53 14 -85 1 -96 74 -238 185 -358 47 -50 47 -50 12 20 -90 184 -139
308 -134 341 4 22 1 37 -9 45 -22 18 -13 53 14 57 23 3 23 3 -2 23 -14 11 -63
73 -110 137 -161 225 -335 396 -518 511 -156 98 -524 309 -683 391 -165 86
-278 129 -400 154 -180 35 -454 46 -567 22z"/>
<path d="M3994 7459 c-3 -6 -27 -24 -52 -40 -25 -16 -42 -29 -37 -29 17 0 93
50 99 65 6 17 0 20 -10 4z"/>
<path d="M4235 7350 c-104 -19 -304 -116 -550 -270 -77 -48 -153 -94 -169
-102 -28 -14 -27 -15 30 -10 83 6 220 46 351 104 271 118 412 121 823 18 251
-63 424 -127 638 -234 420 -210 807 -507 1010 -773 103 -136 247 -369 421
-683 155 -279 235 -408 269 -435 29 -23 34 -25 28 -9 -4 10 -21 75 -38 144
-67 282 -156 524 -251 683 -30 51 -89 155 -132 232 -42 77 -95 165 -118 195
-171 231 -593 545 -1032 771 -284 146 -439 200 -772 269 -107 23 -231 54 -274
70 -91 33 -163 42 -234 30z"/>
<path d="M4063 7016 c-65 -16 -103 -41 -103 -66 0 -30 32 -40 163 -51 314 -24
541 -84 847 -224 562 -258 975 -605 1246 -1051 126 -208 220 -418 300 -669 26
-82 53 -158 59 -167 23 -35 149 -139 174 -144 89 -20 105 -28 149 -72 26 -26
67 -75 91 -110 24 -34 46 -61 48 -58 7 7 -38 193 -73 299 -28 84 -52 131 -106
213 -38 57 -129 218 -203 357 -273 520 -393 695 -636 932 -391 381 -936 672
-1492 796 -117 27 -385 35 -464 15z"/>
<path d="M3750 6859 c-116 -17 -212 -73 -423 -249 -66 -55 -66 -55 -29 -58 49
-5 109 13 222 64 182 82 284 92 530 49 299 -52 433 -96 597 -198 49 -30 128
-74 174 -97 307 -155 527 -307 719 -500 322 -321 510 -717 510 -1072 0 -164
-40 -404 -93 -554 -37 -105 -155 -344 -174 -351 -10 -4 -22 1 -30 13 -21 28
-11 106 32 254 138 471 122 805 -56 1163 -184 368 -545 703 -943 874 -98 42
-118 47 -176 46 -280 -8 -276 -8 -575 41 -159 26 -350 63 -422 82 -73 19 -152
34 -175 34 -68 -1 -124 -32 -276 -156 -51 -42 -51 -42 -17 -47 19 -3 69 1 112
8 43 8 128 14 188 14 111 0 148 -5 375 -52 69 -14 258 -44 420 -66 343 -47
419 -65 556 -130 363 -173 672 -513 803 -884 57 -162 74 -272 74 -462 0 -178
-2 -192 -82 -609 -55 -290 -78 -335 -297 -598 -67 -80 -155 -191 -195 -245
-158 -213 -183 -245 -228 -284 -129 -114 -477 -259 -620 -259 -32 0 -122 13
-202 29 -79 16 -166 31 -194 34 -47 5 -41 1 107 -71 86 -42 166 -86 177 -96
22 -20 28 -46 11 -46 -5 0 -10 -8 -10 -17 1 -16 2 -16 13 -2 10 12 31 14 118
11 155 -6 226 9 370 78 134 65 188 78 244 60 37 -12 37 -12 117 66 196 193
522 640 758 1037 19 32 61 81 93 109 32 27 80 82 106 122 47 68 121 146 140
146 13 0 45 89 65 180 9 41 39 172 66 290 62 274 65 303 46 422 -52 318 -275
718 -561 1004 -212 212 -470 387 -820 558 -290 142 -450 195 -724 241 -84 14
-181 37 -215 51 -74 30 -121 35 -206 23z"/>
<path d="M3669 6561 c-71 -22 -90 -57 -46 -85 23 -15 53 -21 312 -56 83 -12
241 -39 353 -61 237 -46 274 -43 251 18 -23 63 -232 132 -537 178 -106 16
-289 19 -333 6z"/>
<path d="M3375 6089 c-38 -5 -86 -14 -106 -19 -43 -12 -122 -79 -211 -181 -66
-76 -66 -76 -14 -64 28 7 65 19 81 27 50 26 215 76 308 93 48 9 129 17 179 18
92 2 93 2 93 -22 0 -35 -36 -53 -205 -101 -181 -51 -322 -104 -360 -136 -36
-31 -117 -141 -160 -219 -18 -33 -40 -68 -49 -79 -16 -18 -15 -18 19 -1 19 9
75 44 123 77 131 89 264 148 552 245 256 85 262 87 376 91 131 5 263 -12 400
-52 421 -122 778 -497 888 -932 64 -253 53 -524 -31 -764 -69 -200 -98 -303
-105 -371 -5 -61 -4 -68 16 -78 29 -16 81 9 122 58 95 114 187 416 220 726 43
406 -86 800 -359 1097 -304 330 -569 442 -1162 493 -175 15 -189 18 -255 50
-102 50 -207 63 -360 44z"/>
<path d="M3965 5684 c-33 -6 -264 -74 -453 -135 -190 -61 -371 -160 -425 -232
-41 -53 -84 -148 -131 -287 -39 -112 -43 -129 -26 -120 28 15 83 73 148 158
103 135 168 198 251 240 139 73 341 121 441 106 25 -4 73 -20 108 -35 35 -16
116 -47 180 -70 128 -44 283 -117 321 -150 20 -16 23 -24 14 -37 -20 -32 -69
-25 -250 38 -320 110 -442 129 -611 94 -191 -39 -333 -137 -279 -192 15 -14
25 -13 124 13 152 39 317 45 463 15 128 -26 443 -130 525 -173 108 -58 211
-170 277 -302 36 -70 78 -201 78 -240 0 -40 -17 -48 -58 -28 -32 15 -52 42
-122 158 -158 262 -339 373 -740 454 -189 38 -280 39 -449 6 -224 -44 -276
-91 -333 -303 -17 -63 -21 -113 -24 -272 -2 -138 0 -176 6 -130 42 322 200
528 456 594 71 18 127 20 155 6 32 -18 22 -40 -28 -61 -229 -97 -320 -167
-386 -302 -45 -91 -61 -169 -53 -265 17 -212 142 -501 265 -613 60 -56 183
-119 281 -144 86 -22 301 -31 382 -16 203 39 379 136 481 267 24 30 84 132
134 227 84 161 90 177 96 248 4 51 15 94 34 135 24 50 28 72 27 144 -1 182
-92 375 -271 572 -34 36 -78 99 -99 138 -69 132 -183 198 -447 260 -112 27
-117 29 -117 49 0 67 221 60 402 -13 105 -43 171 -89 278 -196 135 -134 226
-257 295 -395 86 -173 115 -317 115 -575 0 -111 4 -142 20 -177 22 -50 59 -66
90 -38 65 59 90 385 45 599 -112 536 -576 966 -1060 981 -55 2 -113 1 -130 -1z
m40 -961 c184 -68 309 -185 396 -368 50 -106 66 -195 51 -277 -59 -317 -405
-515 -746 -428 -108 27 -170 63 -251 145 -177 177 -231 424 -137 625 51 109
217 241 406 323 61 26 178 17 281 -20z"/>
<path d="M3695 4587 c-270 -90 -382 -320 -271 -554 81 -169 244 -264 435 -250
174 12 314 111 371 264 18 47 21 73 18 140 -4 69 -10 93 -41 156 -46 93 -125
173 -215 218 -59 29 -78 33 -162 36 -60 2 -110 -2 -135 -10z m159 -189 c58
-17 128 -90 145 -150 41 -147 -72 -283 -233 -281 -105 2 -189 55 -232 148 -44
93 -22 208 49 259 43 32 199 45 271 24z"/>
<path d="M3638 4323 c-43 -49 -49 -100 -18 -150 39 -64 129 -81 165 -30 35 50
11 90 -52 85 -38 -3 -38 -3 -39 42 -1 25 -2 51 -3 58 -2 18 -36 15 -53 -5z"/>
<path d="M6443 4666 c-35 -38 -66 -114 -93 -226 -34 -135 -41 -202 -50 -440
-6 -173 -14 -263 -30 -340 -11 -58 -30 -163 -41 -235 -31 -203 -52 -224 -109
-110 -19 38 -41 71 -48 73 -17 5 -38 -48 -61 -162 -12 -61 -35 -128 -61 -182
-57 -117 -217 -355 -363 -537 -67 -83 -135 -174 -151 -202 -16 -27 -38 -61
-50 -75 -21 -25 -21 -25 9 1 17 15 93 73 170 130 235 172 469 423 610 654 27
44 73 112 102 150 76 100 107 189 143 410 11 66 25 206 30 310 20 377 28 444
65 591 32 128 34 145 23 180 -18 54 -53 58 -95 10z"/>
<path d="M6662 4515 c-69 -109 -72 -129 -82 -505 -11 -447 -39 -635 -130 -875
-21 -55 -45 -127 -55 -159 -18 -63 -41 -90 -114 -139 -44 -29 -81 -76 -133
-167 -37 -65 -37 -66 40 31 33 42 79 91 103 110 93 74 116 105 207 291 101
202 139 304 183 483 46 190 55 302 40 517 -27 381 -27 358 -3 358 44 0 90
-144 117 -365 21 -179 36 -275 44 -298 13 -34 34 291 28 424 -8 172 -23 217
-102 296 -35 35 -72 63 -82 63 -13 0 -33 -22 -61 -65z"/>
<path d="M6118 4023 c-8 -10 -42 -75 -76 -145 -75 -157 -135 -260 -324 -552
-189 -292 -264 -399 -432 -614 -74 -95 -163 -214 -197 -265 -35 -51 -79 -113
-99 -139 -43 -58 -83 -121 -73 -116 144 65 371 208 429 270 60 62 253 318 338
446 46 70 119 192 162 271 87 162 120 205 169 221 34 11 36 15 80 154 57 182
81 276 89 351 9 99 -26 163 -66 118z"/>
<path d="M4867 4007 c-9 -13 -29 -78 -45 -143 -36 -147 -71 -221 -140 -296
-156 -168 -487 -282 -772 -264 -214 13 -417 78 -563 182 -26 19 -51 34 -55 34
-4 0 -24 13 -43 30 -30 24 -37 38 -43 80 -6 46 -102 257 -113 247 -2 -2 15
-44 37 -93 23 -49 48 -118 56 -153 18 -75 66 -142 186 -256 128 -123 228 -186
333 -209 141 -31 202 -38 335 -38 162 1 274 21 468 86 73 25 170 52 215 62 45
9 98 25 118 35 49 24 143 130 175 196 23 45 26 61 20 106 -4 28 -10 111 -15
182 -9 140 -21 177 -67 214 -35 28 -68 27 -87 -2z"/>
<path d="M3070 3925 c0 -5 5 -17 10 -25 5 -8 10 -10 10 -5 0 6 -5 17 -10 25
-5 8 -10 11 -10 5z"/>
<path d="M4589 3091 c-195 -78 -286 -101 -439 -108 -143 -6 -280 10 -475 57
-135 32 -203 45 -194 36 24 -24 214 -137 304 -181 170 -83 203 -90 395 -90
164 0 165 1 274 38 134 46 213 88 278 145 80 72 100 141 46 156 -35 9 -34 9
-189 -53z"/>
<path d="M4744 2464 c-136 -91 -250 -181 -241 -190 2 -2 50 8 108 21 165 37
271 91 305 156 17 33 16 110 -2 116 -6 2 -83 -44 -170 -103z"/>
</g>
</svg>
