<?xml version="1.0" standalone="no"?>
<!DOCTYPE svg PUBLIC "-//W3C//DTD SVG 20010904//EN"
 "http://www.w3.org/TR/2001/REC-SVG-20010904/DTD/svg10.dtd">
<svg version="1.0" xmlns="http://www.w3.org/2000/svg"
 width="1000.000000pt" height="1000.000000pt" viewBox="0 0 1000.000000 1000.000000"
 preserveAspectRatio="xMidYMid meet">
<metadata>
  <rdf:RDF
    xmlns:rdf = "http://www.w3.org/1999/02/22-rdf-syntax-ns#"
    xmlns:rdfs = "http://www.w3.org/2000/01/rdf-schema#"
    xmlns:dc = "http://purl.org/dc/elements/1.1/"
    xmlns:cc = "http://creativecommons.org/ns#">
    <cc:license rdf:resource="http://creativecommons.org/publicdomain/zero/1.0/deed.en"/>
    <cc:permits rdf:resource="http://creativecommons.org/ns#Reproduction"/>
    <rdf:Description about="https://nft.mir.one/fingerprints"
      dc:title="TON Fingerprints"
      dc:description="This is a unique digital fingerprint created based on the algorithm for generating basic rings using a noise texture. Like human fingerprints, you can now use it for the Web3 and Metaverse era as digital biometric information."
      dc:publisher="https://nft.mir.one"
      dc:date="2022-02-22"
      dc:format="image/svg+xml"
      dc:language="en" >
      <dc:creator>
      <rdf:Bag>
        <rdf:li>EQBondcvD2_aOFADXSWJHs4ZazQDuEl9_wNvGGPxI8hGuOFU</rdf:li>
        <rdf:li>ipfs://bafkreihj7iub3fhmhq6jn62noukt5wxn3gv6bvcg7wmt6ywvlurefezckq</rdf:li>
      </rdf:Bag>
      </dc:creator>
    </rdf:Description>
  </rdf:RDF>
</metadata>
<g transform="translate(0.000000,1000.000000) scale(0.100000,-0.100000)"
fill="#1b1f23" stroke="none">
<path d="M4810 7774 c-14 -3 -70 -17 -125 -31 -55 -14 -161 -36 -235 -48 -93
-16 -121 -24 -90 -24 25 -1 77 -8 115 -16 90 -19 158 -11 210 25 96 66 92 65
315 64 152 0 246 -6 365 -22 240 -33 246 -33 165 -12 -172 45 -300 62 -500 65
-107 2 -206 1 -220 -1z"/>
<path d="M5618 7683 c7 -3 16 -2 19 1 4 3 -2 6 -13 5 -11 0 -14 -3 -6 -6z"/>
<path d="M4717 7603 c-15 -14 -6 -43 19 -62 43 -34 140 -58 325 -81 421 -51
658 -109 1044 -255 77 -29 163 -58 190 -63 28 -6 59 -14 70 -18 21 -7 -80 57
-250 159 -357 214 -782 327 -1236 327 -86 0 -159 -3 -162 -7z"/>
<path d="M4315 7449 c-98 -15 -218 -48 -379 -103 -152 -53 -152 -53 -102 -71
44 -16 98 -19 376 -25 196 -5 341 -12 365 -19 22 -7 122 -35 223 -63 182 -51
182 -51 205 -31 37 35 96 45 190 33 300 -41 977 -281 1258 -446 45 -26 123
-80 175 -121 52 -40 94 -69 94 -64 0 16 -142 194 -198 248 -131 127 -288 227
-462 294 -378 146 -689 223 -1010 249 -142 11 -235 31 -450 95 -97 29 -198 38
-285 24z"/>
<path d="M4314 7100 c-27 -11 -37 -36 -24 -60 16 -30 63 -58 188 -114 64 -29
232 -110 372 -179 255 -125 400 -185 710 -292 220 -76 399 -146 610 -240 202
-89 577 -246 665 -280 34 -12 81 -26 105 -30 45 -7 45 -7 -90 127 -115 115
-144 138 -195 158 -33 13 -202 84 -375 158 -365 156 -449 189 -774 307 -288
104 -426 164 -554 243 -123 75 -183 105 -285 143 -158 59 -297 82 -353 59z"/>
<path d="M4993 7084 c-17 -46 63 -113 207 -173 52 -21 205 -78 340 -126 321
-114 475 -175 738 -294 216 -97 487 -203 550 -215 33 -6 33 -6 -28 62 -33 38
-86 83 -118 102 -31 19 -83 51 -115 73 -90 60 -404 211 -601 288 -300 118
-800 277 -919 293 -38 4 -49 3 -54 -10z"/>
<path d="M3740 7056 c-41 -13 -112 -39 -157 -58 -82 -35 -82 -35 -30 -50 29
-9 79 -19 111 -23 146 -17 288 -69 437 -161 52 -31 123 -75 159 -97 36 -22
121 -71 191 -108 69 -37 176 -98 237 -137 62 -39 145 -84 185 -100 112 -47
348 -118 627 -188 255 -64 255 -64 535 -203 300 -150 448 -212 615 -259 162
-46 323 -82 363 -82 37 0 37 0 -41 78 -104 106 -135 128 -233 161 -176 61
-369 141 -652 271 -225 103 -293 128 -607 230 -345 111 -497 172 -750 302
-326 167 -421 224 -507 300 -92 83 -105 90 -218 123 -107 31 -168 31 -265 1z"/>
<path d="M3490 6761 c-99 -37 -153 -61 -148 -66 2 -2 62 -14 133 -25 239 -38
413 -117 403 -183 -3 -20 -8 -22 -50 -19 -25 2 -100 21 -165 44 -154 53 -220
56 -346 14 -88 -30 -88 -30 -55 -47 18 -9 102 -28 186 -42 160 -26 213 -46
192 -73 -22 -25 -88 -35 -222 -32 -132 3 -133 2 -205 -31 -40 -19 -70 -38 -67
-42 3 -5 32 -9 64 -9 68 0 110 -13 110 -35 0 -8 -30 -35 -67 -59 -38 -25 -101
-74 -141 -110 -73 -66 -73 -66 -36 -66 49 0 200 61 302 122 46 28 123 67 172
89 49 21 118 56 152 78 82 51 238 121 272 121 14 0 44 -7 66 -16 30 -12 40
-22 40 -39 0 -33 -24 -49 -176 -119 -420 -194 -721 -345 -768 -387 -66 -58
-204 -242 -167 -223 14 8 34 14 44 14 9 0 67 25 128 56 238 119 962 445 1079
486 30 10 118 25 197 33 150 14 178 23 188 55 15 49 -44 88 -248 165 -102 38
-118 48 -306 184 -172 124 -330 192 -442 190 -24 0 -78 -13 -119 -28z"/>
<path d="M4630 6089 c-36 -10 -128 -33 -205 -50 -208 -47 -432 -126 -775 -274
-240 -104 -475 -223 -524 -266 -45 -40 -92 -104 -150 -207 -18 -31 -40 -69
-50 -84 -18 -28 -18 -28 20 -12 20 9 98 56 172 105 237 157 549 301 917 423
335 112 501 146 711 146 245 0 493 -64 684 -177 136 -80 209 -107 377 -137
159 -29 280 -68 408 -130 155 -76 191 -103 431 -319 54 -49 134 -109 178 -135
56 -32 109 -75 170 -137 49 -49 85 -81 81 -70 -4 11 -20 58 -37 105 -64 181
-93 221 -232 329 -58 44 -116 95 -130 113 -33 44 -42 81 -22 97 13 11 32 4
113 -40 54 -28 135 -74 179 -100 45 -27 89 -49 99 -49 9 0 26 -5 37 -11 19
-10 18 -8 -4 22 -14 19 -41 61 -61 95 -81 135 -169 184 -306 169 -36 -4 -77
-7 -91 -7 -24 -1 -496 203 -614 265 -32 17 -68 44 -80 60 -36 49 -125 106
-207 132 -54 17 -119 27 -211 34 -98 7 -175 20 -293 49 -336 85 -461 98 -585
61z m1089 -276 c46 -15 95 -36 109 -48 24 -20 24 -22 6 -39 -23 -23 -101 -18
-189 13 -72 25 -109 51 -113 79 -6 38 50 37 187 -5z"/>
<path d="M4460 5685 c-71 -16 -292 -81 -520 -152 -288 -90 -536 -204 -756
-348 -102 -67 -115 -79 -157 -146 -25 -41 -56 -96 -68 -124 -12 -27 -30 -62
-41 -78 -20 -27 -20 -27 19 -10 21 9 76 45 123 79 355 257 691 414 1004 469
159 27 220 20 283 -35 54 -48 127 -79 266 -115 135 -35 180 -57 185 -93 5 -31
-49 -42 -209 -42 -135 0 -135 0 -220 -44 -49 -25 -145 -61 -229 -86 -294 -85
-509 -181 -740 -327 -69 -44 -174 -111 -235 -149 -110 -70 -110 -70 -140 -160
-17 -49 -34 -94 -38 -101 -5 -8 4 -7 25 3 54 24 73 35 346 198 294 175 423
242 595 310 142 56 450 148 567 170 311 56 398 68 461 63 163 -14 295 -100
275 -180 -9 -37 -38 -41 -137 -22 -189 37 -437 29 -689 -21 -281 -56 -589
-186 -935 -394 -293 -177 -307 -188 -342 -267 -17 -37 -36 -93 -43 -123 -7
-30 -17 -63 -21 -72 -16 -30 55 7 130 66 247 199 781 506 997 574 167 53 264
66 489 66 239 -1 468 -28 563 -67 33 -13 129 -73 214 -133 120 -85 188 -144
314 -269 182 -181 226 -236 283 -351 26 -54 64 -107 113 -161 94 -102 173
-220 240 -358 29 -60 57 -112 62 -114 5 -2 20 -15 33 -29 22 -24 23 -24 23 -3
0 11 12 70 27 129 21 87 26 132 27 242 1 135 1 135 -79 278 -91 161 -138 228
-253 357 -141 159 -273 254 -416 301 -44 14 -108 42 -140 62 -119 71 -256 225
-256 289 0 34 24 50 118 79 148 45 238 32 429 -63 172 -85 403 -284 546 -471
86 -112 118 -212 67 -212 -11 0 -60 47 -124 118 -191 216 -342 344 -526 445
-229 125 -403 148 -335 43 23 -35 114 -95 275 -180 187 -100 263 -158 440
-337 88 -89 171 -162 211 -187 69 -44 96 -72 177 -193 29 -44 66 -85 86 -97
34 -20 34 -20 31 11 -2 18 -6 88 -9 157 -8 190 -26 265 -86 365 -63 105 -237
321 -350 436 -149 152 -327 265 -518 330 -49 17 -178 45 -292 65 -218 36 -429
100 -625 186 -226 100 -282 117 -473 143 -64 9 -121 20 -125 25 -17 15 4 48
41 67 31 15 60 18 182 18 178 -1 241 -16 610 -140 140 -47 325 -104 410 -126
511 -133 723 -264 983 -607 55 -74 139 -178 186 -231 47 -53 101 -115 118
-137 18 -23 47 -53 65 -66 33 -26 33 -26 15 56 -29 127 -46 163 -101 228 -28
32 -73 85 -99 116 -27 32 -75 111 -109 181 -53 108 -71 134 -140 203 -190 190
-396 308 -688 393 -272 79 -351 105 -495 163 -297 118 -409 144 -650 148 -132
3 -197 0 -245 -11z m1470 -1422 c126 -82 346 -336 365 -423 9 -39 -2 -70 -24
-70 -22 0 -50 31 -138 150 -38 52 -124 150 -191 217 -112 111 -136 146 -115
166 10 11 43 -2 103 -40z"/>
<path d="M4055 5229 c-316 -46 -917 -362 -995 -523 -46 -96 -63 -203 -35 -226
9 -7 17 -11 18 -9 1 2 9 17 17 33 23 44 149 157 257 228 272 180 543 297 809
348 208 40 224 46 224 80 0 27 -31 48 -95 65 -64 16 -108 17 -200 4z"/>
<path d="M6777 4853 c-21 -21 -2 -68 73 -174 44 -63 91 -127 104 -144 23 -28
25 -29 32 -11 10 27 -19 136 -57 213 -42 87 -121 147 -152 116z"/>
<path d="M4416 4450 c-121 -14 -219 -47 -315 -108 -47 -30 -111 -67 -141 -82
-30 -15 -104 -61 -165 -100 -60 -40 -168 -108 -238 -151 -70 -43 -161 -103
-201 -133 -82 -60 -102 -96 -127 -226 -6 -36 -16 -73 -21 -82 -8 -16 -6 -16
29 0 21 9 66 41 101 69 128 107 264 187 386 228 76 26 83 26 180 16 56 -6 236
-18 401 -26 165 -8 336 -17 380 -20 137 -7 314 -69 470 -165 125 -76 488 -354
599 -459 76 -72 150 -186 176 -268 21 -68 27 -218 12 -313 -4 -25 -6 -67 -4
-93 3 -48 3 -48 61 44 32 50 85 128 119 173 82 110 105 164 106 247 1 61 -2
70 -49 148 -72 120 -139 178 -266 231 -166 70 -262 132 -514 335 -279 225
-381 279 -656 344 -108 26 -120 31 -155 68 -50 53 -113 71 -267 80 -68 3 -125
11 -135 19 -16 11 -16 13 1 32 28 30 109 46 232 45 95 -1 133 -6 275 -43 273
-70 412 -123 530 -203 25 -17 115 -99 200 -182 172 -167 299 -267 406 -320 80
-40 123 -44 149 -15 28 31 7 61 -82 115 -143 86 -325 250 -364 327 -21 41 -25
93 -9 103 6 4 61 -42 123 -102 251 -242 347 -306 347 -231 0 42 -89 149 -220
265 -106 93 -146 115 -210 112 -45 -2 -54 2 -123 54 -93 70 -183 125 -264 160
-171 76 -552 130 -757 107z m-19 -363 c89 -7 165 -15 169 -19 11 -12 -3 -36
-33 -55 -25 -16 -55 -18 -326 -18 -211 0 -301 3 -308 11 -16 19 37 72 89 89
51 16 107 15 409 -8z"/>
<path d="M3854 3735 c-146 -26 -390 -154 -435 -229 -10 -17 -26 -65 -34 -106
-8 -41 -19 -91 -23 -111 -8 -36 -8 -36 27 -16 20 11 56 39 81 62 179 163 405
258 676 285 124 13 174 6 174 -23 0 -26 -36 -46 -130 -72 -284 -78 -388 -121
-526 -216 -95 -66 -103 -84 -127 -286 -3 -32 -3 -32 27 -10 17 11 56 43 86 70
147 133 287 207 585 308 177 59 224 72 297 76 157 10 302 -25 473 -116 288
-151 499 -407 545 -661 10 -53 16 -260 9 -296 -1 -5 -1 -34 0 -64 1 -55 1 -55
24 -15 13 22 41 64 64 93 22 30 58 88 79 130 36 71 39 83 38 152 -5 231 -127
426 -409 653 -263 212 -457 300 -731 332 -138 16 -218 31 -324 60 -68 19 -343
19 -446 0z"/>
<path d="M4373 3289 c-112 -23 -243 -69 -344 -119 -84 -41 -217 -128 -248
-162 -27 -28 -61 -132 -61 -184 0 -44 22 -76 36 -53 4 7 3 9 -4 5 -6 -3 -14
-1 -17 4 -11 18 4 59 24 70 54 28 71 -45 24 -101 -27 -32 -27 -32 -2 -24 43
12 73 40 103 95 93 171 358 300 617 300 315 0 589 -195 685 -487 28 -84 29
-97 29 -264 0 -175 0 -175 25 -143 14 18 44 56 68 85 71 87 95 143 94 219 -8
297 -242 597 -567 725 -142 56 -302 68 -462 34z"/>
<path d="M4360 2964 c-142 -27 -326 -135 -349 -206 -12 -37 -16 -96 -13 -181
2 -58 2 -58 67 15 138 154 250 206 423 196 153 -9 294 -102 360 -238 39 -81
52 -160 43 -275 -6 -90 -6 -90 65 -18 90 90 119 146 110 211 -29 212 -180 396
-387 469 -60 22 -94 27 -184 29 -60 1 -121 0 -135 -2z"/>
<path d="M4361 2636 c-29 -8 -64 -25 -77 -38 -31 -31 -43 -104 -29 -182 10
-57 11 -58 22 -33 7 15 34 41 60 57 76 48 163 40 220 -22 26 -28 73 -137 73
-170 0 -26 -7 -34 67 77 44 65 50 102 25 152 -26 50 -101 119 -155 143 -58 25
-141 32 -206 16z"/>
</g>
</svg>
