<?xml version="1.0" standalone="no"?>
<!DOCTYPE svg PUBLIC "-//W3C//DTD SVG 20010904//EN"
 "http://www.w3.org/TR/2001/REC-SVG-20010904/DTD/svg10.dtd">
<svg version="1.0" xmlns="http://www.w3.org/2000/svg"
 width="1000.000000pt" height="1000.000000pt" viewBox="0 0 1000.000000 1000.000000"
 preserveAspectRatio="xMidYMid meet">
<metadata>
  <rdf:RDF
    xmlns:rdf = "http://www.w3.org/1999/02/22-rdf-syntax-ns#"
    xmlns:rdfs = "http://www.w3.org/2000/01/rdf-schema#"
    xmlns:dc = "http://purl.org/dc/elements/1.1/"
    xmlns:cc = "http://creativecommons.org/ns#">
    <cc:license rdf:resource="http://creativecommons.org/publicdomain/zero/1.0/deed.en"/>
    <cc:permits rdf:resource="http://creativecommons.org/ns#Reproduction"/>
    <rdf:Description about="https://nft.mir.one/fingerprints"
      dc:title="TON Fingerprints"
      dc:description="This is a unique digital fingerprint created based on the algorithm for generating basic rings using a noise texture. Like human fingerprints, you can now use it for the Web3 and Metaverse era as digital biometric information."
      dc:publisher="https://nft.mir.one"
      dc:date="2022-02-22"
      dc:format="image/svg+xml"
      dc:language="en" >
      <dc:creator>
      <rdf:Bag>
        <rdf:li>EQBondcvD2_aOFADXSWJHs4ZazQDuEl9_wNvGGPxI8hGuOFU</rdf:li>
        <rdf:li>ipfs://bafkreihj7iub3fhmhq6jn62noukt5wxn3gv6bvcg7wmt6ywvlurefezckq</rdf:li>
      </rdf:Bag>
      </dc:creator>
    </rdf:Description>
  </rdf:RDF>
</metadata>
<g transform="translate(0.000000,1000.000000) scale(0.100000,-0.100000)"
fill="#1b1f23" stroke="none">
<path d="M5496 7725 c-3 -8 -13 -15 -21 -15 -9 0 -13 -5 -10 -10 15 -25 -50
-32 -187 -19 -170 15 -491 7 -608 -15 -201 -38 -320 -76 -500 -162 -105 -51
-440 -255 -440 -269 0 -5 246 99 332 139 119 56 229 94 394 136 226 58 397 80
699 90 268 8 310 15 353 54 27 24 80 25 157 2 83 -26 61 -10 -27 19 -46 15
-95 35 -110 46 -22 15 -27 16 -32 4z"/>
<path d="M5119 7480 c-224 -14 -402 -47 -644 -117 -133 -38 -363 -127 -470
-180 -186 -94 -373 -247 -539 -443 -75 -88 -310 -400 -301 -400 12 0 126 97
262 224 273 255 481 389 801 515 162 64 602 209 682 225 217 44 639 48 796 8
161 -41 254 -96 286 -169 18 -41 26 -47 157 -113 76 -38 192 -104 257 -148 65
-43 146 -96 178 -116 59 -38 59 -38 10 20 -102 119 -444 415 -614 531 -98 66
-244 130 -360 158 -70 16 -288 18 -501 5z"/>
<path d="M5043 7205 c-140 -20 -236 -53 -317 -108 -42 -29 -95 -54 -139 -67
-330 -94 -567 -194 -763 -322 -124 -82 -189 -132 -337 -265 -186 -167 -310
-341 -452 -640 -74 -153 -74 -153 -26 -104 26 27 63 68 81 92 285 369 673 706
993 863 227 112 431 162 617 152 359 -19 422 -19 510 0 171 38 584 16 790 -42
240 -67 549 -272 802 -532 125 -128 125 -128 77 -46 -172 298 -403 531 -649
654 -128 64 -190 79 -420 101 -253 24 -475 27 -689 9 -225 -18 -341 -3 -341
45 0 22 30 33 132 49 258 41 567 45 834 11 141 -17 209 -11 221 22 13 33 -95
81 -267 119 -106 23 -516 29 -657 9z"/>
<path d="M5273 6706 c-39 -18 -44 -49 -10 -70 12 -9 72 -28 132 -43 97 -24
127 -27 251 -25 125 2 152 -1 230 -23 116 -33 325 -138 439 -220 229 -164 353
-311 549 -647 59 -101 73 -118 86 -99 26 44 -106 378 -211 533 -107 158 -362
358 -602 474 -187 89 -329 117 -667 129 -134 5 -171 3 -197 -9z"/>
<path d="M4556 6649 c-214 -29 -450 -123 -652 -259 -231 -157 -544 -456 -721
-691 -96 -127 -179 -334 -239 -592 -19 -81 -34 -151 -34 -155 0 -4 38 70 84
163 137 280 269 458 546 736 334 335 530 476 779 559 138 46 225 62 381 67
301 10 516 -57 949 -299 353 -197 462 -265 632 -395 92 -71 134 -88 145 -59 9
24 -34 95 -96 156 -110 108 -251 204 -507 346 -76 42 -174 102 -218 134 -95
68 -110 76 -242 128 -56 23 -130 59 -165 82 -68 44 -97 54 -203 70 -103 15
-360 20 -439 9z"/>
<path d="M5660 6475 c-24 -29 14 -60 169 -139 362 -186 567 -347 671 -528 89
-154 140 -218 296 -378 89 -91 171 -183 182 -205 26 -52 90 -215 102 -263 8
-29 8 -21 4 38 -8 112 -52 360 -68 385 -8 11 -65 73 -127 136 -83 83 -140 152
-208 254 -52 77 -119 171 -150 209 -152 188 -452 390 -708 476 -101 33 -144
37 -163 15z"/>
<path d="M4565 6329 c-222 -32 -430 -125 -581 -259 -319 -282 -520 -483 -666
-666 -255 -320 -281 -398 -304 -914 -7 -171 5 -327 36 -479 20 -96 37 -142 23
-61 -4 25 -8 117 -7 205 1 125 6 193 27 310 14 83 31 196 36 253 14 136 26
181 71 278 33 68 64 108 202 259 212 233 312 331 428 419 136 103 170 117 299
126 58 5 153 20 211 34 181 45 308 59 470 53 160 -6 245 -22 398 -73 203 -67
382 -173 499 -298 258 -271 427 -571 479 -843 24 -128 15 -355 -19 -478 -45
-162 -137 -463 -163 -537 -36 -100 -107 -240 -161 -318 -105 -150 -187 -226
-400 -368 -129 -86 -153 -110 -153 -153 0 -86 149 -90 314 -7 192 96 353 262
464 476 85 164 96 195 169 482 105 409 114 457 120 625 14 379 -93 651 -397
1010 -56 66 -113 141 -126 167 -13 26 -38 63 -55 83 -72 82 -340 234 -529 300
-364 127 -669 122 -1025 -15 -134 -52 -149 -54 -153 -19 -7 57 142 152 322
204 134 38 217 49 371 48 293 -1 555 -88 946 -313 78 -45 171 -93 206 -106
102 -38 159 -70 293 -163 326 -226 507 -510 566 -888 23 -149 23 -463 0 -593
-33 -185 -111 -370 -206 -489 -35 -43 -62 -64 -118 -92 -56 -27 -81 -47 -107
-83 -56 -79 -114 -199 -131 -272 -22 -99 -53 -144 -188 -279 -176 -175 -303
-266 -429 -309 -119 -40 -211 -41 -427 -2 -47 8 -173 22 -280 31 -107 9 -239
22 -292 30 -116 18 -242 19 -303 4 -95 -24 -144 17 -224 185 -32 67 -89 171
-128 231 -147 230 -226 389 -256 520 -21 87 -63 389 -72 510 -12 179 17 355
105 638 52 165 60 216 36 236 -38 32 -78 -27 -165 -244 -101 -255 -127 -387
-118 -609 3 -78 15 -190 26 -251 24 -129 27 -223 7 -250 -23 -31 -42 -4 -80
114 -61 189 -71 255 -70 466 0 228 12 281 106 480 155 329 140 304 240 406 51
53 127 132 168 176 164 174 355 274 640 334 138 29 373 32 503 6 242 -49 452
-160 617 -327 85 -86 123 -148 151 -251 11 -39 36 -103 56 -142 94 -187 111
-284 88 -484 -20 -174 -20 -175 -53 -171 -23 3 -33 16 -67 85 -25 53 -53 94
-76 113 -20 16 -69 77 -109 135 -155 229 -332 368 -512 405 -66 13 -259 -1
-368 -27 -188 -45 -344 -184 -422 -375 -18 -46 -21 -72 -21 -193 1 -223 46
-351 205 -585 125 -184 166 -258 189 -339 27 -101 47 -136 127 -224 73 -80 90
-114 72 -147 -29 -55 -234 20 -322 118 -24 27 -43 66 -66 137 -17 55 -61 156
-97 225 -100 191 -151 301 -184 397 -135 405 -36 813 244 1005 131 89 268 128
455 128 135 0 227 -19 337 -70 208 -97 367 -246 461 -435 22 -44 49 -89 61
-99 20 -19 23 -19 39 -2 50 50 -22 276 -122 379 -51 52 -274 206 -381 263
-264 139 -583 149 -840 25 -201 -97 -322 -239 -399 -471 -57 -172 -69 -259
-63 -455 10 -303 90 -546 275 -826 94 -143 96 -147 81 -165 -21 -25 -74 -17
-121 19 -131 100 -268 365 -327 632 -61 278 -51 507 35 809 102 358 285 544
623 633 82 22 118 26 246 26 104 0 172 -4 220 -16 173 -39 333 -117 473 -229
127 -102 165 -119 179 -82 22 59 -200 269 -378 357 -172 84 -328 120 -524 120
-328 -2 -634 -128 -805 -333 -65 -79 -85 -125 -130 -301 -21 -85 -50 -197 -64
-249 -46 -170 -59 -266 -59 -425 0 -322 79 -633 220 -867 152 -251 317 -386
538 -436 195 -45 314 -38 421 23 32 19 107 60 167 90 525 270 705 479 837 970
20 76 48 150 75 200 24 44 51 105 59 135 39 133 30 326 -24 495 -42 130 -167
374 -243 475 -243 321 -601 494 -1022 494 -160 0 -227 -9 -425 -55 -215 -50
-311 -88 -435 -172 -76 -51 -277 -247 -362 -352 -63 -78 -64 -81 -59 -127 6
-60 -5 -102 -61 -216 -35 -72 -57 -103 -98 -138 -46 -40 -55 -54 -73 -117 -56
-191 -70 -406 -38 -569 17 -92 74 -265 107 -331 24 -47 87 -117 105 -117 37 0
93 -88 257 -405 32 -60 89 -153 128 -205 39 -52 79 -113 90 -135 20 -43 25
-90 10 -100 -6 -3 -6 -17 1 -36 6 -16 8 -43 4 -59 -5 -27 -3 -30 30 -36 48 -9
167 -88 251 -168 72 -68 96 -83 69 -44 -16 22 -22 111 -10 142 10 26 46 19
178 -34 241 -96 458 -134 766 -134 406 -1 549 70 995 488 72 67 164 149 205
183 67 54 294 268 245 230 -11 -8 -74 -47 -140 -86 -89 -54 -128 -71 -150 -69
-21 2 -31 9 -33 23 -2 21 24 54 191 240 108 121 163 196 221 306 147 276 190
486 191 934 0 251 -2 276 -23 353 -50 184 -105 272 -330 525 -102 116 -133
140 -210 162 -27 8 -107 53 -178 99 -232 150 -723 416 -895 485 -107 42 -239
79 -344 96 -97 16 -283 18 -380 4z m583 -1494 c158 -74 280 -198 404 -415 119
-207 152 -335 125 -477 -17 -87 -73 -220 -127 -298 -49 -71 -138 -158 -210
-204 -157 -102 -329 -107 -476 -14 -103 65 -49 111 132 112 272 3 514 263 514
552 0 176 -112 421 -257 561 -26 26 -91 75 -143 110 -52 35 -96 71 -98 81 -5
26 71 22 136 -8z m-247 -69 c107 -38 287 -201 347 -313 61 -116 87 -273 61
-382 -25 -109 -103 -219 -199 -281 -96 -62 -239 -89 -288 -54 -47 33 -22 67
97 130 41 21 97 60 126 86 168 153 174 413 13 584 -97 104 -218 140 -315 93
-177 -86 -157 -379 27 -379 34 0 48 6 75 33 41 41 51 77 35 117 -11 26 -18 30
-51 30 -37 0 -39 2 -39 30 0 25 6 33 32 44 90 38 188 -60 188 -188 0 -149
-128 -276 -277 -276 -69 0 -111 20 -163 77 -83 90 -109 192 -85 335 19 112 43
164 101 222 87 88 219 126 315 92z m-491 -276 c0 -5 -4 -10 -10 -10 -5 0 -10
5 -10 10 0 6 5 10 10 10 6 0 10 -4 10 -10z"/>
<path d="M5900 5624 c0 -20 31 -57 128 -158 70 -72 146 -153 168 -181 260
-322 352 -722 269 -1164 -9 -45 -38 -156 -65 -247 -27 -90 -51 -184 -55 -207
-6 -43 9 -87 32 -94 22 -8 81 69 131 170 99 201 140 371 149 612 17 500 -149
870 -529 1175 -107 87 -163 120 -203 120 -20 0 -25 -5 -25 -26z"/>
<path d="M3374 5071 c-87 -53 -174 -278 -130 -336 15 -20 15 -20 34 0 29 30
165 322 158 340 -7 20 -25 19 -62 -4z"/>
<path d="M7091 4884 c0 -11 3 -14 6 -6 3 7 2 16 -1 19 -3 4 -6 -2 -5 -13z"/>
<path d="M3081 3884 c0 -11 3 -14 6 -6 3 7 2 16 -1 19 -3 4 -6 -2 -5 -13z"/>
<path d="M3110 3795 c0 -5 5 -17 10 -25 5 -8 10 -10 10 -5 0 6 -5 17 -10 25
-5 8 -10 11 -10 5z"/>
<path d="M3130 3745 c0 -5 22 -54 49 -107 54 -106 170 -287 299 -467 45 -63
82 -122 82 -132 0 -12 5 -16 15 -13 27 11 17 66 -24 136 -51 87 -190 273 -273
365 -36 40 -84 108 -106 150 -23 43 -41 74 -42 68z"/>
<path d="M3616 2892 c78 -66 219 -162 237 -162 24 0 -54 65 -139 115 -81 49
-126 70 -98 47z"/>
</g>
</svg>
