<?xml version="1.0" standalone="no"?>
<!DOCTYPE svg PUBLIC "-//W3C//DTD SVG 20010904//EN"
 "http://www.w3.org/TR/2001/REC-SVG-20010904/DTD/svg10.dtd">
<svg version="1.0" xmlns="http://www.w3.org/2000/svg"
 width="1000.000000pt" height="1000.000000pt" viewBox="0 0 1000.000000 1000.000000"
 preserveAspectRatio="xMidYMid meet">
<metadata>
  <rdf:RDF
    xmlns:rdf = "http://www.w3.org/1999/02/22-rdf-syntax-ns#"
    xmlns:rdfs = "http://www.w3.org/2000/01/rdf-schema#"
    xmlns:dc = "http://purl.org/dc/elements/1.1/"
    xmlns:cc = "http://creativecommons.org/ns#">
    <cc:license rdf:resource="http://creativecommons.org/publicdomain/zero/1.0/deed.en"/>
    <cc:permits rdf:resource="http://creativecommons.org/ns#Reproduction"/>
    <rdf:Description about="https://nft.mir.one/fingerprints"
      dc:title="TON Fingerprints"
      dc:description="This is a unique digital fingerprint created based on the algorithm for generating basic rings using a noise texture. Like human fingerprints, you can now use it for the Web3 and Metaverse era as digital biometric information."
      dc:publisher="https://nft.mir.one"
      dc:date="2022-02-22"
      dc:format="image/svg+xml"
      dc:language="en" >
      <dc:creator>
      <rdf:Bag>
        <rdf:li>EQBondcvD2_aOFADXSWJHs4ZazQDuEl9_wNvGGPxI8hGuOFU</rdf:li>
        <rdf:li>ipfs://bafkreihj7iub3fhmhq6jn62noukt5wxn3gv6bvcg7wmt6ywvlurefezckq</rdf:li>
      </rdf:Bag>
      </dc:creator>
    </rdf:Description>
  </rdf:RDF>
</metadata>
<g transform="translate(0.000000,1000.000000) scale(0.100000,-0.100000)"
fill="#1b1f23" stroke="none">
<path d="M4715 7761 c-65 -10 -85 -19 -85 -40 0 -12 2 -13 9 -3 13 21 70 29
146 21 39 -5 165 -17 280 -29 333 -32 588 -75 740 -125 15 -5 17 -4 5 3 -29
19 -246 89 -355 115 -60 15 -166 33 -235 41 -150 18 -435 28 -505 17z"/>
<path d="M4416 7657 c124 -112 536 -250 694 -233 165 18 199 18 276 1 116 -26
224 -66 459 -172 220 -99 343 -164 491 -260 49 -33 112 -72 139 -88 28 -15 61
-35 75 -44 25 -15 25 -15 5 8 -33 38 -240 220 -323 284 -245 188 -615 359
-867 401 -49 9 -157 20 -240 26 -158 11 -392 36 -435 47 -14 3 -46 16 -71 29
-34 17 -72 25 -144 30 -98 7 -98 7 -59 -29z"/>
<path d="M4253 7440 c-127 -23 -322 -119 -438 -216 -44 -37 -120 -94 -170
-127 -49 -33 -81 -57 -70 -54 11 3 40 9 65 12 25 4 105 34 178 66 176 78 266
100 424 107 145 5 260 -6 470 -49 146 -29 242 -58 530 -158 149 -52 234 -73
343 -86 76 -9 90 -17 114 -63 22 -42 59 -78 151 -148 36 -26 100 -81 142 -121
42 -40 83 -73 91 -73 17 0 29 24 22 43 -7 17 11 41 24 33 6 -4 22 -28 35 -54
13 -26 51 -78 85 -116 64 -72 79 -102 63 -118 -15 -15 -49 -4 -117 38 -33 20
-91 56 -130 80 -38 24 -108 75 -155 115 -115 97 -280 213 -354 248 -122 58
-601 197 -801 232 -186 33 -455 37 -612 10 -127 -21 -372 -96 -456 -137 -68
-35 -219 -139 -310 -214 -77 -65 -77 -65 -43 -68 22 -2 97 17 203 51 283 92
539 157 738 188 122 19 437 17 575 -4 247 -38 524 -122 715 -218 163 -81 267
-156 310 -224 19 -29 47 -62 62 -73 23 -16 210 -111 373 -190 51 -25 239 -216
292 -297 56 -86 74 -136 58 -165 -6 -11 -16 -20 -23 -20 -7 0 -86 75 -177 166
-91 91 -194 185 -230 209 -138 92 -299 158 -494 200 -43 9 -160 46 -260 82
-420 151 -660 204 -721 159 -44 -32 10 -66 180 -115 175 -50 953 -310 1030
-343 156 -67 249 -136 305 -224 53 -84 192 -181 309 -215 63 -19 114 -71 141
-147 17 -46 35 -73 66 -101 52 -45 161 -101 198 -101 24 0 26 3 20 28 -16 61
-189 522 -219 583 -44 86 -135 220 -234 344 -44 55 -94 129 -112 165 -69 143
-176 262 -276 307 -32 15 -95 53 -141 86 -46 33 -129 84 -185 112 -56 29 -103
59 -105 67 -4 23 50 41 97 33 79 -13 331 -152 470 -259 132 -102 375 -403 540
-671 59 -95 152 -227 158 -222 1 2 -22 62 -53 133 -286 665 -549 949 -1073
1158 -63 25 -158 70 -210 100 -183 103 -416 176 -470 146 -55 -29 -1 -73 171
-140 73 -28 152 -62 175 -76 71 -41 67 -91 -7 -77 -76 13 -243 78 -395 152
-100 49 -196 88 -255 104 -52 14 -178 49 -280 77 -196 55 -263 64 -347 50z"/>
<path d="M4510 6733 c-184 -18 -406 -63 -720 -144 -364 -94 -401 -113 -579
-288 -109 -107 -109 -107 -57 -100 28 4 71 16 96 27 74 32 347 118 463 146 59
15 174 38 255 51 194 33 238 43 292 70 73 37 146 54 269 66 64 5 154 17 201
26 59 10 109 13 163 8 148 -13 404 -86 657 -189 151 -62 204 -78 246 -74 89 7
40 58 -153 156 -344 174 -650 254 -961 250 -75 0 -153 -3 -172 -5z"/>
<path d="M4353 6415 c-25 -11 -33 -20 -33 -39 0 -33 41 -54 175 -92 55 -15
206 -66 335 -112 129 -46 381 -135 560 -197 179 -62 404 -142 500 -178 224
-85 261 -94 294 -79 14 6 26 17 26 23 0 26 -81 87 -180 135 -133 65 -195 88
-760 279 -334 112 -490 170 -555 205 -49 26 -114 53 -143 59 -72 15 -180 13
-219 -4z"/>
<path d="M3835 6241 c-180 -33 -477 -120 -568 -168 -43 -22 -120 -96 -180
-173 -28 -36 -64 -79 -80 -97 -30 -32 -30 -32 24 -19 30 8 90 30 134 51 195
91 444 173 640 212 127 25 404 24 540 -1 261 -48 466 -110 660 -198 61 -28
243 -95 405 -148 162 -54 403 -138 535 -188 472 -177 596 -211 665 -182 35 15
38 37 9 74 -41 53 -292 161 -454 195 -55 12 -156 41 -225 65 -69 24 -273 95
-455 159 -181 63 -379 134 -440 157 -166 64 -351 126 -540 180 -93 27 -197 59
-230 71 -85 31 -299 36 -440 10z"/>
<path d="M3955 5918 c-114 -13 -291 -54 -426 -99 -146 -48 -343 -133 -387
-166 -35 -26 -120 -138 -183 -241 -37 -59 -37 -59 6 -47 23 7 83 36 134 65
272 153 590 269 866 317 154 26 438 23 633 -6 175 -26 299 -54 315 -70 8 -8 7
-16 -6 -29 -21 -21 -137 -22 -397 -5 -427 29 -798 -60 -1264 -300 -166 -86
-189 -109 -278 -280 -63 -123 -63 -123 -25 -110 22 8 64 31 95 52 185 123 416
240 695 351 356 141 410 150 922 150 422 0 471 -5 704 -66 74 -19 195 -55 268
-80 214 -71 303 -124 303 -179 0 -30 -17 -32 -81 -9 -107 38 -500 146 -611
168 -176 36 -283 45 -580 52 -371 9 -543 -12 -672 -84 -31 -18 -80 -46 -110
-62 -29 -17 -100 -47 -157 -69 -194 -72 -415 -182 -558 -279 -95 -64 -125
-107 -180 -257 -16 -44 -32 -87 -36 -97 -12 -30 54 3 156 79 241 180 520 325
704 366 54 12 132 16 335 16 625 0 873 -39 1476 -233 241 -77 317 -95 457
-106 147 -12 179 -20 282 -73 61 -32 103 -65 176 -137 134 -133 232 -290 293
-470 14 -41 37 -102 51 -135 25 -60 25 -60 25 80 0 257 -25 382 -98 485 -228
320 -477 455 -917 500 -147 15 -237 33 -440 85 -445 116 -743 151 -1184 138
-206 -5 -228 -5 -244 11 -25 25 -21 35 20 52 93 39 179 48 478 48 399 0 537
-18 989 -130 250 -62 337 -69 415 -34 24 11 51 20 61 20 33 0 259 -69 378
-115 64 -26 149 -65 187 -87 91 -54 218 -183 344 -351 54 -73 111 -143 126
-157 28 -25 28 -25 20 5 -4 17 -15 71 -25 120 -28 136 -57 222 -106 312 -47
86 -54 122 -28 144 17 14 45 2 114 -50 19 -14 51 -33 71 -42 36 -16 36 -16
-10 69 -32 59 -58 94 -85 114 -36 26 -44 28 -101 22 -52 -5 -78 -2 -161 24
-54 17 -137 40 -184 52 -202 51 -311 92 -550 205 -186 88 -348 148 -604 222
-367 106 -352 101 -402 144 -62 54 -127 85 -237 114 -277 73 -549 99 -772 73z"/>
<path d="M4056 4870 c-180 -17 -330 -63 -495 -151 -136 -72 -406 -254 -434
-292 -29 -39 -60 -116 -88 -217 -11 -41 -26 -81 -32 -89 -9 -11 -5 -10 13 2
13 9 30 17 37 17 7 0 50 29 95 64 46 35 145 104 220 152 75 49 190 125 255
170 183 124 343 182 567 205 319 32 776 -58 1124 -221 254 -120 364 -234 621
-644 95 -151 266 -463 349 -636 86 -179 103 -206 134 -213 13 -2 32 -8 42 -12
15 -7 17 -5 11 5 -5 7 -7 78 -6 157 2 166 -5 191 -85 288 -67 80 -118 158
-189 285 -32 58 -107 183 -167 278 -119 190 -149 245 -185 341 -32 86 -54 114
-125 163 -195 132 -617 275 -971 329 -149 23 -539 34 -691 19z"/>
<path d="M4158 4610 c-118 -20 -273 -87 -395 -172 -46 -31 -76 -77 -67 -102 9
-22 59 -36 135 -36 41 0 108 -10 164 -25 81 -21 135 -26 348 -36 259 -11 301
-8 313 26 14 36 -59 77 -171 95 -39 7 -159 13 -267 14 -142 1 -201 5 -210 14
-19 19 2 44 58 67 43 17 73 20 244 20 228 0 261 -7 440 -90 63 -29 151 -67
195 -85 301 -119 479 -251 656 -485 93 -122 171 -258 224 -390 87 -215 99
-381 45 -590 -44 -169 -66 -214 -133 -264 -59 -45 -123 -121 -203 -243 -52
-78 -52 -78 30 -6 44 39 106 96 136 125 54 52 106 78 128 64 6 -4 18 -22 25
-41 15 -33 15 -33 22 -1 9 44 204 420 238 460 23 28 27 42 27 94 0 119 -79
346 -197 566 -178 334 -370 575 -557 701 -201 134 -576 275 -841 315 -105 16
-307 18 -387 5z"/>
<path d="M6118 4514 c-22 -22 0 -54 116 -168 170 -166 271 -322 342 -533 23
-67 28 -103 34 -248 7 -154 10 -175 34 -225 26 -55 26 -55 26 -18 0 21 9 84
20 140 29 150 42 307 31 376 -36 221 -244 529 -435 641 -57 34 -151 53 -168
35z"/>
<path d="M5969 4406 c-16 -33 23 -115 128 -272 94 -141 169 -267 249 -423 56
-109 100 -171 122 -171 6 0 18 8 27 17 49 48 -45 305 -192 528 -61 92 -177
240 -241 308 -42 44 -77 49 -93 13z"/>
<path d="M3528 4205 c-68 -17 -167 -61 -250 -111 -68 -41 -94 -85 -123 -204
-8 -36 -19 -80 -24 -97 -5 -18 -7 -33 -5 -33 12 0 85 48 117 77 90 81 218 143
294 143 49 0 87 -20 91 -47 3 -17 -10 -27 -71 -57 -108 -51 -213 -132 -237
-181 -10 -22 -24 -71 -30 -110 -6 -38 -15 -91 -19 -116 -8 -46 -8 -46 23 -24
52 37 349 336 386 389 45 63 77 82 161 95 108 18 406 33 669 34 283 2 323 -5
478 -78 116 -55 208 -122 298 -218 117 -123 205 -279 244 -431 24 -97 27 -261
5 -354 -40 -170 -179 -382 -328 -500 -81 -64 -221 -148 -288 -172 -75 -27 -43
-25 73 5 217 55 379 146 514 287 168 175 243 369 231 602 -7 140 -31 226 -106
381 -128 263 -317 460 -555 579 -186 93 -299 114 -421 81 -84 -23 -324 -30
-536 -16 -210 14 -316 30 -427 65 -94 29 -88 29 -164 11z"/>
<path d="M4350 3813 c-110 -9 -393 -55 -451 -73 -94 -29 -178 -83 -285 -183
-137 -129 -145 -147 -153 -317 -6 -138 -6 -138 34 -116 28 16 59 52 113 131
122 182 206 266 293 294 89 29 90 -18 4 -135 -143 -193 -171 -302 -122 -465
45 -147 155 -340 244 -429 25 -25 25 -25 5 10 -11 19 -37 87 -57 150 -78 245
-53 421 97 683 87 152 139 195 279 233 88 23 272 24 359 1 133 -36 244 -100
340 -198 246 -249 251 -558 15 -794 -108 -108 -229 -165 -350 -165 -149 0
-415 182 -485 332 -36 77 -48 155 -27 182 21 28 48 8 93 -66 81 -137 185 -214
278 -206 62 5 149 43 199 87 50 44 94 139 112 238 17 100 29 125 58 121 29 -4
40 -54 34 -148 -10 -167 -112 -294 -284 -351 -76 -25 -96 -50 -58 -75 20 -13
41 -16 93 -12 137 10 271 110 339 254 31 65 37 91 41 160 4 72 1 89 -21 137
-15 34 -39 65 -63 83 -22 15 -73 60 -114 99 -130 124 -219 160 -374 153 -187
-9 -283 -86 -392 -313 -79 -166 -91 -215 -74 -307 20 -116 108 -225 259 -323
191 -123 402 -165 593 -116 103 27 165 60 238 128 157 145 245 334 244 528 -1
260 -138 496 -382 656 -172 113 -387 155 -672 132z m323 -666 c99 -75 96 -254
-5 -330 -31 -23 -54 -31 -85 -28 -22 2 -14 22 22 62 38 43 46 87 19 110 -14
11 -18 10 -30 -6 -27 -39 -35 -45 -68 -45 -83 0 -129 139 -69 211 15 17 41 38
58 45 45 21 117 12 158 -19z"/>
<path d="M3590 3038 c1 -2 12 -46 25 -98 24 -95 24 -95 24 -14 1 66 -2 84 -17
97 -16 15 -33 22 -32 15z"/>
<path d="M6381 2884 c0 -11 3 -14 6 -6 3 7 2 16 -1 19 -3 4 -6 -2 -5 -13z"/>
<path d="M6167 2863 c-15 -55 -17 -82 -11 -146 7 -71 7 -71 31 8 26 91 27 148
1 153 -9 2 -18 -5 -21 -15z"/>
<path d="M4050 2486 c0 -2 8 -10 18 -17 15 -13 16 -12 3 4 -13 16 -21 21 -21
13z"/>
</g>
</svg>
