<?xml version="1.0" standalone="no"?>
<!DOCTYPE svg PUBLIC "-//W3C//DTD SVG 20010904//EN"
 "http://www.w3.org/TR/2001/REC-SVG-20010904/DTD/svg10.dtd">
<svg version="1.0" xmlns="http://www.w3.org/2000/svg"
 width="1000.000000pt" height="1000.000000pt" viewBox="0 0 1000.000000 1000.000000"
 preserveAspectRatio="xMidYMid meet">
<metadata>
  <rdf:RDF
    xmlns:rdf = "http://www.w3.org/1999/02/22-rdf-syntax-ns#"
    xmlns:rdfs = "http://www.w3.org/2000/01/rdf-schema#"
    xmlns:dc = "http://purl.org/dc/elements/1.1/"
    xmlns:cc = "http://creativecommons.org/ns#">
    <cc:license rdf:resource="http://creativecommons.org/publicdomain/zero/1.0/deed.en"/>
    <cc:permits rdf:resource="http://creativecommons.org/ns#Reproduction"/>
    <rdf:Description about="https://nft.mir.one/fingerprints"
      dc:title="TON Fingerprints"
      dc:description="This is a unique digital fingerprint created based on the algorithm for generating basic rings using a noise texture. Like human fingerprints, you can now use it for the Web3 and Metaverse era as digital biometric information."
      dc:publisher="https://nft.mir.one"
      dc:date="2022-02-22"
      dc:format="image/svg+xml"
      dc:language="en" >
      <dc:creator>
      <rdf:Bag>
        <rdf:li>EQBondcvD2_aOFADXSWJHs4ZazQDuEl9_wNvGGPxI8hGuOFU</rdf:li>
        <rdf:li>ipfs://bafkreihj7iub3fhmhq6jn62noukt5wxn3gv6bvcg7wmt6ywvlurefezckq</rdf:li>
      </rdf:Bag>
      </dc:creator>
    </rdf:Description>
  </rdf:RDF>
</metadata>
<g transform="translate(0.000000,1000.000000) scale(0.100000,-0.100000)"
fill="#1b1f23" stroke="none">
<path d="M5310 7778 c3 -3 55 -45 115 -93 61 -48 114 -97 119 -108 4 -12 15
-38 23 -59 19 -46 62 -87 137 -132 93 -56 161 -78 266 -85 90 -7 100 -10 180
-56 105 -61 189 -129 304 -248 89 -92 89 -92 28 -17 -84 103 -209 230 -325
329 -54 46 -111 102 -126 125 -16 23 -38 49 -48 56 -13 10 -12 7 4 -10 20 -24
27 -42 24 -66 -1 -13 -45 -34 -71 -34 -24 0 -208 94 -274 140 -85 58 -87 110
-5 120 44 6 44 6 -27 18 -39 8 -122 36 -185 63 -133 59 -146 64 -139 57z"/>
<path d="M4701 7727 c-38 -19 -40 -41 -4 -33 82 18 338 -146 648 -415 172
-149 196 -166 276 -189 38 -12 101 -38 141 -59 40 -21 103 -48 139 -60 174
-57 280 -157 567 -531 203 -264 213 -278 322 -450 117 -183 143 -216 193 -241
40 -21 40 -21 19 15 -12 20 -51 105 -88 188 -83 191 -152 328 -196 393 -257
377 -344 490 -461 602 -117 111 -199 160 -372 223 -105 38 -228 98 -290 140
-23 16 -85 68 -136 116 -52 47 -113 100 -137 116 -101 70 -329 159 -470 183
-102 18 -120 18 -151 2z"/>
<path d="M4474 7699 c14 -17 26 -35 26 -40 0 -18 123 -173 204 -258 45 -46
173 -163 286 -261 222 -191 271 -243 374 -392 80 -115 121 -155 143 -136 26
21 9 102 -47 236 -62 145 -105 207 -226 322 -93 88 -413 351 -496 408 -26 18
-62 50 -79 71 -27 34 -39 41 -97 51 -37 7 -78 17 -91 22 -23 8 -23 8 3 -23z"/>
<path d="M4131 7508 c19 -18 53 -45 77 -60 96 -63 172 -150 172 -198 0 -38
-29 -33 -129 25 -90 51 -107 57 -174 62 -40 3 -113 2 -160 -2 -86 -7 -86 -7
-57 -31 30 -26 256 -128 345 -157 28 -9 86 -21 131 -26 97 -10 126 -26 276
-145 133 -108 189 -171 235 -266 19 -41 63 -117 96 -169 47 -73 61 -102 61
-134 1 -23 -4 -42 -11 -44 -14 -5 -111 95 -230 237 -93 111 -170 183 -268 252
-94 67 -146 92 -384 187 -188 75 -209 81 -275 81 -39 0 -110 -8 -157 -18 -86
-18 -86 -18 -50 -43 20 -14 113 -56 206 -93 230 -91 491 -222 598 -299 49 -35
144 -112 212 -171 145 -125 212 -172 263 -185 20 -5 55 -14 77 -20 27 -7 72
-38 137 -95 54 -47 142 -116 196 -155 178 -126 264 -241 492 -656 45 -82 119
-206 163 -275 189 -291 250 -484 337 -1065 17 -115 49 -300 70 -410 41 -212
60 -354 60 -457 1 -70 24 -182 33 -158 18 46 69 271 82 368 19 128 21 100 -50
607 -85 600 -143 820 -297 1129 -81 161 -270 505 -389 709 -126 214 -149 260
-189 382 -36 111 -97 246 -129 287 -12 14 -40 36 -64 47 -50 24 -79 51 -204
187 -62 68 -121 121 -185 164 -210 143 -402 320 -549 505 -69 85 -146 116
-323 129 -78 6 -78 6 -45 -26z m915 -767 c46 -33 298 -326 361 -419 100 -148
48 -205 -79 -85 -65 62 -119 132 -255 328 -105 151 -116 172 -109 191 8 22 39
17 82 -15z"/>
<path d="M5557 6983 c-15 -14 -5 -70 27 -157 19 -50 46 -134 60 -187 48 -178
153 -407 326 -709 393 -687 517 -966 590 -1328 39 -194 94 -586 119 -847 20
-204 38 -315 50 -315 4 0 15 53 25 118 62 399 68 530 33 782 -14 102 -31 228
-37 280 -23 206 -61 338 -172 595 -112 260 -199 425 -434 820 -253 427 -338
589 -384 730 -29 91 -59 143 -109 188 -38 34 -78 47 -94 30z"/>
<path d="M6550 6886 c0 -2 8 -10 18 -17 15 -13 16 -12 3 4 -13 16 -21 21 -21
13z"/>
<path d="M3540 6849 c-36 -11 -82 -25 -102 -32 -21 -6 -38 -14 -38 -17 0 -14
73 -47 190 -86 352 -118 612 -260 1000 -544 347 -254 494 -395 634 -605 118
-176 211 -411 240 -605 20 -129 89 -630 111 -799 8 -68 24 -164 35 -212 38
-169 14 -319 -40 -254 -6 8 -20 47 -30 87 -13 47 -27 79 -41 91 -22 17 -23 17
-43 -3 -20 -19 -21 -30 -18 -181 4 -224 -23 -346 -131 -586 -26 -56 -55 -129
-66 -161 -56 -164 -22 -281 54 -190 57 68 178 333 277 611 59 167 62 173 132
276 110 160 112 328 16 911 -38 225 -41 319 -15 417 19 72 19 72 -15 174 -39
120 -151 347 -234 474 -143 219 -327 394 -612 580 -78 51 -205 140 -282 199
-205 154 -308 219 -487 307 -210 104 -377 169 -429 168 -23 0 -70 -9 -106 -20z"/>
<path d="M5860 6845 c-22 -26 10 -86 217 -406 265 -412 357 -561 441 -714 122
-221 365 -781 393 -903 10 -40 10 -67 1 -116 -7 -35 -12 -90 -12 -122 0 -78
36 -306 60 -374 10 -30 21 -64 23 -75 3 -11 5 104 6 256 1 275 1 275 29 302
15 15 36 27 45 27 16 0 16 2 3 23 -8 12 -28 93 -45 180 -36 178 -87 365 -127
459 -15 35 -44 110 -65 167 -74 197 -211 427 -473 794 -306 429 -443 566 -496
502z"/>
<path d="M3385 6571 c-27 -10 -73 -30 -102 -43 -51 -24 -51 -24 -10 -46 23
-11 109 -42 191 -67 82 -26 196 -67 255 -92 523 -222 1016 -612 1187 -935 48
-92 70 -160 95 -292 11 -61 47 -214 79 -341 111 -437 124 -580 91 -1005 -31
-396 -53 -569 -74 -582 -19 -11 -45 10 -59 49 -10 30 -12 124 -9 433 4 479 -9
614 -85 872 -69 236 -152 407 -231 475 -31 26 -97 99 -148 162 -246 309 -569
546 -979 720 -126 54 -323 121 -357 121 -31 0 -105 -31 -156 -66 -20 -13 -45
-24 -57 -24 -39 0 55 -41 189 -82 71 -21 172 -55 225 -74 145 -53 421 -193
555 -281 269 -177 515 -411 515 -490 0 -59 -46 -38 -202 90 -350 289 -612 439
-997 571 -74 25 -142 46 -153 46 -23 0 -91 -34 -133 -66 -17 -13 -40 -27 -52
-31 -20 -7 -17 -11 30 -35 29 -15 108 -43 176 -63 170 -49 293 -96 446 -169
197 -94 312 -166 580 -361 61 -44 156 -104 213 -134 118 -62 177 -119 248
-240 131 -224 187 -487 204 -966 6 -154 17 -356 26 -449 14 -146 15 -197 4
-383 -14 -235 -11 -297 19 -389 11 -37 18 -78 15 -103 -14 -137 -15 -125 9
-103 12 11 69 43 127 72 228 113 404 256 510 414 72 108 148 270 215 464 65
184 107 262 147 276 15 5 30 7 34 4 9 -10 -64 -320 -106 -448 -40 -122 -95
-239 -193 -410 -96 -167 -112 -188 -157 -200 -48 -13 -93 -50 -139 -116 -34
-49 -34 -49 0 -18 53 48 111 84 138 84 13 0 29 7 35 16 15 19 43 9 52 -19 6
-19 7 -18 19 9 7 16 37 56 67 89 109 120 271 329 294 379 48 107 92 419 74
530 -5 32 -18 74 -30 93 -25 43 -25 78 -1 123 13 25 25 35 42 35 30 0 51 -40
78 -156 30 -125 35 -265 18 -477 -14 -168 -14 -187 1 -228 16 -44 16 -44 45
34 103 280 111 310 110 427 -1 139 -25 282 -70 410 -55 159 -62 188 -89 405
-66 544 -154 861 -265 954 -37 32 -64 33 -80 4 -15 -28 -8 -79 40 -288 75
-327 106 -558 99 -748 -6 -155 -20 -195 -119 -348 -90 -138 -102 -163 -184
-369 -131 -331 -223 -480 -322 -523 -56 -24 -71 -39 -143 -145 -29 -43 -69
-92 -89 -108 -38 -31 -78 -38 -87 -15 -3 7 9 60 26 117 17 57 35 149 41 204
17 176 40 327 51 349 6 12 28 40 49 62 83 92 118 214 144 502 18 191 18 194
58 287 30 70 30 70 24 220 -6 156 -27 317 -78 594 -99 538 -217 783 -520 1076
-242 234 -634 500 -941 637 -289 130 -381 153 -473 119z"/>
<path d="M3260 6281 c-25 -10 -68 -32 -97 -48 -52 -29 -52 -29 -10 -51 23 -12
70 -29 105 -37 97 -24 313 -102 433 -156 200 -90 409 -215 579 -347 106 -83
280 -257 340 -341 140 -196 164 -220 202 -200 25 14 24 93 -3 161 -53 136
-230 345 -424 501 -260 209 -601 396 -919 503 -117 39 -143 40 -206 15z"/>
<path d="M6974 5595 c-13 -32 8 -81 56 -133 50 -53 50 -53 10 29 -22 46 -40
91 -40 101 0 22 -18 24 -26 3z"/>
<path d="M3035 5324 c-21 -14 -57 -45 -80 -68 -41 -42 -41 -42 0 -58 22 -9 80
-24 130 -33 161 -30 293 -81 606 -233 183 -88 286 -160 415 -287 253 -251 370
-530 425 -1015 19 -162 16 -571 -4 -710 -29 -198 -55 -273 -143 -416 -48 -77
-86 -188 -55 -160 25 22 176 86 205 86 35 0 46 -26 46 -111 0 -73 0 -73 46
-29 72 71 97 120 95 192 -1 33 -4 64 -7 69 -3 5 3 114 12 241 15 204 16 270 5
529 -14 362 -24 484 -56 660 -57 317 -156 522 -333 690 -286 273 -711 523
-1095 644 -132 42 -162 43 -212 9z"/>
<path d="M3035 4991 c-16 -10 -51 -39 -77 -65 -47 -46 -47 -46 -11 -61 19 -8
47 -15 62 -15 113 -1 278 -71 371 -157 91 -84 196 -250 221 -346 10 -41 9 -51
-9 -88 -20 -40 -20 -41 -2 -85 31 -71 36 -135 12 -163 -17 -23 -22 -24 -49
-12 -35 14 -80 55 -140 128 -47 57 -133 117 -206 145 -58 22 -86 16 -162 -34
-47 -31 -47 -31 -10 -50 20 -11 71 -31 113 -45 86 -29 176 -67 209 -89 48 -31
-14 -70 -94 -60 -54 8 -97 -9 -155 -60 -33 -29 -33 -29 17 -62 28 -19 66 -42
86 -53 56 -28 115 -103 174 -220 68 -136 87 -221 83 -360 -3 -119 -14 -113 96
-59 61 30 74 62 75 184 2 153 -50 287 -151 392 -38 40 -58 69 -56 81 5 28 66
53 130 53 54 0 58 -1 97 -46 178 -203 192 -646 27 -841 -15 -18 -38 -52 -50
-76 -20 -41 -20 -44 -3 -39 10 2 65 -3 123 -13 103 -18 105 -18 131 1 48 36
107 233 122 406 17 200 -12 396 -99 658 -114 344 -169 476 -262 628 -43 71
-61 143 -38 157 19 12 173 -151 243 -256 104 -158 192 -352 255 -565 116 -388
99 -815 -45 -1164 -19 -47 -45 -113 -57 -147 -23 -61 -23 -61 -2 -54 12 5 45
11 74 15 78 10 158 48 181 87 27 44 77 205 96 309 30 163 40 365 27 545 -37
503 -176 851 -451 1125 -126 126 -184 160 -280 167 -55 5 -77 12 -129 45 -144
90 -358 178 -430 178 -15 0 -40 -9 -57 -19z"/>
<path d="M3040 4697 c-24 -13 -45 -28 -47 -33 -2 -6 22 -25 54 -42 97 -51 140
-88 192 -164 72 -106 231 -238 288 -238 34 0 34 11 3 75 -51 104 -175 258
-274 338 -41 35 -145 87 -170 87 -1 0 -22 -10 -46 -23z"/>
<path d="M2978 4480 c-15 -4 -28 -7 -30 -6 -2 0 6 -7 17 -16 36 -32 108 -62
149 -62 34 -1 41 2 44 20 5 36 -50 74 -106 73 -26 0 -59 -4 -74 -9z"/>
<path d="M6000 2578 c-11 -18 -20 -37 -20 -42 0 -5 1 -7 3 -5 2 2 15 21 30 42
16 20 23 37 17 37 -5 0 -19 -15 -30 -32z"/>
</g>
</svg>
