<?xml version="1.0" standalone="no"?>
<!DOCTYPE svg PUBLIC "-//W3C//DTD SVG 20010904//EN"
 "http://www.w3.org/TR/2001/REC-SVG-20010904/DTD/svg10.dtd">
<svg version="1.0" xmlns="http://www.w3.org/2000/svg"
 width="1000.000000pt" height="1000.000000pt" viewBox="0 0 1000.000000 1000.000000"
 preserveAspectRatio="xMidYMid meet">
<metadata>
  <rdf:RDF
    xmlns:rdf = "http://www.w3.org/1999/02/22-rdf-syntax-ns#"
    xmlns:rdfs = "http://www.w3.org/2000/01/rdf-schema#"
    xmlns:dc = "http://purl.org/dc/elements/1.1/"
    xmlns:cc = "http://creativecommons.org/ns#">
    <cc:license rdf:resource="http://creativecommons.org/publicdomain/zero/1.0/deed.en"/>
    <cc:permits rdf:resource="http://creativecommons.org/ns#Reproduction"/>
    <rdf:Description about="https://nft.mir.one/fingerprints"
      dc:title="TON Fingerprints"
      dc:description="This is a unique digital fingerprint created based on the algorithm for generating basic rings using a noise texture. Like human fingerprints, you can now use it for the Web3 and Metaverse era as digital biometric information."
      dc:publisher="https://nft.mir.one"
      dc:date="2022-02-22"
      dc:format="image/svg+xml"
      dc:language="en" >
      <dc:creator>
      <rdf:Bag>
        <rdf:li>EQBondcvD2_aOFADXSWJHs4ZazQDuEl9_wNvGGPxI8hGuOFU</rdf:li>
        <rdf:li>ipfs://bafkreihj7iub3fhmhq6jn62noukt5wxn3gv6bvcg7wmt6ywvlurefezckq</rdf:li>
      </rdf:Bag>
      </dc:creator>
    </rdf:Description>
  </rdf:RDF>
</metadata>
<g transform="translate(0.000000,1000.000000) scale(0.100000,-0.100000)"
fill="#1b1f23" stroke="none">
<path d="M4925 7770 c39 -23 105 -59 147 -81 412 -208 729 -513 914 -881 62
-124 79 -171 130 -373 77 -303 221 -665 332 -836 120 -186 147 -286 140 -513
-8 -207 -50 -366 -99 -366 -36 0 -46 51 -52 256 -9 286 -28 367 -162 669 -85
192 -193 473 -275 710 -112 324 -183 473 -309 643 -158 213 -389 405 -647 536
-165 84 -399 124 -629 106 -60 -5 -123 -9 -140 -10 -26 -1 -23 -3 25 -21 30
-12 98 -31 150 -44 371 -91 700 -262 938 -489 122 -117 203 -226 268 -361 107
-224 407 -956 489 -1196 70 -204 92 -332 111 -637 16 -246 16 -270 0 -349 -9
-47 -29 -113 -45 -146 -53 -117 -242 -331 -369 -418 -126 -86 -159 -116 -242
-223 -135 -174 -269 -287 -614 -518 -116 -78 -247 -168 -291 -201 -188 -139
-373 -196 -711 -217 -166 -11 -185 -13 -231 -31 -27 -10 -25 -12 42 -30 332
-89 383 -94 555 -55 128 29 240 71 341 129 111 63 490 331 734 518 238 183
255 194 347 233 113 47 147 86 190 216 18 57 228 342 264 358 82 38 54 -61
-92 -325 -90 -163 -149 -246 -202 -286 -20 -15 -107 -74 -192 -130 -85 -56
-240 -168 -345 -248 -104 -79 -239 -180 -300 -223 -60 -44 -157 -114 -215
-156 -58 -43 -130 -92 -161 -109 -109 -61 -282 -109 -491 -137 -237 -32 -230
-25 -68 -59 131 -27 163 -30 330 -30 145 0 204 4 273 19 80 17 98 18 176 7
112 -16 197 1 370 71 120 49 125 50 152 34 60 -35 165 -7 324 88 248 148 407
303 582 566 128 192 136 210 144 324 6 94 13 119 97 353 50 139 99 267 107
283 39 75 79 40 72 -60 -6 -84 -43 -197 -128 -396 -71 -166 -80 -200 -53 -211
35 -13 114 109 190 295 56 138 89 266 103 407 14 127 87 574 102 622 6 18 16
36 23 40 7 5 19 22 27 38 9 17 22 29 32 29 9 -1 14 2 11 7 -3 5 -10 96 -15
202 -5 105 -17 237 -25 292 -9 55 -18 120 -20 145 -1 25 -3 47 -4 50 0 3 -4
-1 -9 -9 -12 -19 -46 1 -66 38 -8 16 -42 119 -75 229 -74 247 -147 432 -249
627 -43 82 -88 180 -100 216 -47 145 -235 397 -496 667 -91 95 -161 151 -97
78 18 -21 59 -77 90 -124 32 -48 94 -136 138 -197 106 -147 183 -278 242 -412
27 -61 72 -148 99 -194 114 -188 193 -374 288 -674 62 -194 85 -248 135 -310
80 -100 110 -200 110 -366 0 -132 -21 -212 -71 -266 -49 -54 -75 -106 -155
-315 -83 -216 -99 -247 -168 -328 -70 -82 -93 -130 -166 -343 -126 -370 -195
-524 -364 -816 -74 -127 -265 -294 -530 -461 -133 -83 -164 -92 -151 -43 12
48 43 80 188 190 182 138 290 231 349 301 106 124 78 202 -39 115 -74 -55
-403 -320 -562 -452 -112 -93 -157 -124 -258 -173 -128 -63 -185 -76 -191 -46
-6 32 37 76 158 157 66 45 211 152 322 239 419 325 467 359 558 388 105 33
167 102 268 302 104 205 138 302 177 509 9 50 35 126 66 195 59 132 73 156
151 264 65 91 101 165 149 309 32 96 33 106 34 260 0 148 -2 169 -32 280 -17
66 -36 160 -43 208 -18 142 -95 380 -199 615 -76 172 -127 242 -177 242 -36 0
-10 -97 104 -395 120 -314 157 -433 148 -471 -13 -52 -59 -17 -105 81 -44 94
-139 337 -187 480 -53 161 -62 217 -40 269 22 53 20 75 -14 165 -70 180 -214
420 -343 571 -204 240 -513 423 -867 514 -205 52 -204 52 -125 6z m961 -3972
c10 -15 -120 -138 -146 -138 -13 0 -20 7 -20 20 0 65 138 164 166 118z"/>
<path d="M4100 7410 c-47 -10 -129 -32 -182 -47 -97 -29 -97 -29 -25 -41 39
-7 122 -17 182 -23 400 -37 798 -193 1088 -426 146 -117 306 -296 293 -328 -8
-21 -55 -19 -93 4 -17 11 -91 68 -164 127 -206 166 -352 255 -557 339 -195 79
-494 145 -662 145 -89 0 -196 -34 -359 -114 -132 -65 -149 -59 169 -57 444 5
820 -101 1160 -326 147 -98 410 -305 470 -370 68 -74 139 -184 215 -333 191
-377 276 -727 253 -1053 -9 -130 -37 -220 -93 -299 -107 -152 -138 -202 -207
-334 -101 -192 -148 -256 -312 -420 -202 -202 -402 -330 -597 -383 -136 -37
-671 -87 -839 -78 -173 9 -326 60 -446 149 -75 56 -113 113 -147 221 -28 86
-104 223 -160 286 -16 20 -43 55 -59 80 -15 25 -28 42 -28 38 0 -3 36 -85 80
-182 44 -97 96 -219 116 -273 20 -53 43 -110 51 -127 50 -100 199 -242 307
-295 135 -65 417 -76 771 -30 176 24 212 22 292 -11 40 -16 64 -9 205 61 265
133 473 295 678 527 190 215 230 253 265 253 90 0 230 150 275 297 50 162 65
647 26 853 -58 309 -215 719 -423 1102 -74 138 -86 167 -94 230 -17 135 -110
278 -271 418 -213 185 -477 324 -778 410 -128 37 -264 40 -400 10z m1808
-2961 c4 -45 -23 -108 -95 -219 -59 -91 -80 -111 -95 -88 -18 30 -6 81 44 179
53 105 108 174 130 167 7 -3 14 -20 16 -39z"/>
<path d="M3687 6840 c-100 -13 -246 -99 -382 -226 -27 -25 -43 -41 -34 -35 9
6 36 15 60 21 24 5 80 18 124 29 353 90 864 28 1215 -148 229 -115 355 -226
518 -459 273 -390 323 -510 352 -862 26 -308 -41 -539 -218 -746 -42 -50 -116
-141 -165 -202 -85 -108 -197 -216 -288 -279 -59 -41 -195 -109 -264 -133
-157 -54 -382 -70 -500 -36 -79 23 -461 211 -550 271 -185 124 -308 304 -372
543 -24 88 -26 115 -26 277 0 155 3 199 26 314 31 152 32 180 14 206 -21 28
-59 13 -85 -33 -44 -78 -82 -307 -82 -491 0 -261 82 -579 190 -736 71 -104
117 -138 311 -236 101 -50 224 -109 274 -131 98 -43 135 -71 135 -101 0 -18
-5 -19 -68 -14 -89 7 -211 53 -354 133 -129 72 -161 78 -166 31 -9 -81 158
-208 343 -263 77 -22 202 -23 285 -2 36 9 130 19 210 23 361 16 576 80 795
238 122 88 200 161 296 275 159 191 354 514 408 676 118 356 7 872 -281 1302
-201 302 -553 566 -925 694 -246 85 -583 127 -796 100z"/>
<path d="M3528 6509 c-52 -6 -104 -21 -157 -44 -72 -32 -111 -37 -111 -15 0 5
-12 10 -27 12 -45 5 -56 -28 -24 -72 14 -19 30 -39 36 -43 5 -4 87 -7 180 -6
249 3 706 -17 808 -36 207 -37 398 -115 588 -239 133 -88 153 -98 168 -83 32
32 -3 109 -86 189 -186 177 -506 303 -857 337 -127 13 -407 12 -518 0z"/>
<path d="M3435 6210 c-107 -28 -139 -45 -186 -98 -78 -86 -200 -363 -233 -527
-9 -44 -32 -136 -51 -205 -52 -189 -51 -193 5 -85 28 55 78 143 109 195 32 52
88 155 124 228 37 74 81 153 97 176 41 60 125 135 208 185 117 70 141 101 106
135 -21 21 -91 20 -179 -4z"/>
<path d="M3925 6164 c-121 -25 -149 -38 -269 -127 -144 -106 -201 -159 -227
-209 -23 -44 -24 -71 -4 -88 23 -19 63 -4 170 66 229 149 371 192 590 181 231
-13 431 -88 590 -222 28 -23 113 -84 190 -135 77 -52 163 -116 192 -143 99
-93 144 -196 84 -189 -13 1 -53 25 -90 52 -63 48 -118 69 -140 55 -25 -15 -8
-56 59 -139 85 -106 113 -154 136 -231 22 -76 24 -222 5 -373 -13 -102 -13
-114 1 -129 61 -60 155 115 177 329 9 93 2 220 -18 326 -6 29 -8 86 -4 126 8
101 -19 186 -95 302 -60 91 -167 215 -235 274 -34 30 -43 32 -111 34 -69 1
-80 5 -221 74 -254 126 -433 173 -650 171 -60 -1 -119 -3 -130 -5z"/>
<path d="M4037 5840 c-102 -16 -192 -49 -345 -125 -83 -40 -169 -79 -191 -86
-54 -16 -114 -69 -140 -122 -12 -24 -26 -81 -31 -128 -6 -46 -20 -142 -32
-214 -27 -163 -30 -395 -6 -500 39 -171 116 -317 229 -432 155 -158 451 -305
668 -332 333 -42 719 165 868 466 35 71 35 71 40 284 6 295 -11 380 -110 555
-24 44 -52 101 -62 127 -21 56 -48 78 -131 106 -75 25 -403 87 -509 96 -162
14 -343 -32 -475 -120 -113 -75 -178 -164 -227 -310 -23 -70 -26 -97 -27 -215
-1 -126 1 -141 30 -220 53 -149 153 -273 283 -350 383 -226 851 -48 936 355
28 132 18 241 -44 472 -24 89 -19 123 19 123 37 0 103 -127 142 -272 30 -114
30 -317 -1 -431 -69 -258 -292 -445 -580 -487 -193 -29 -438 44 -619 184 -262
201 -357 529 -262 901 24 95 68 192 110 245 71 90 260 199 415 241 114 31 308
31 467 1 139 -26 166 -27 196 -6 99 69 -170 189 -448 199 -58 2 -131 0 -163
-5z m269 -489 c186 -36 279 -128 333 -334 28 -104 33 -174 21 -253 -23 -143
-98 -247 -219 -303 -240 -111 -491 -61 -633 126 -60 80 -89 158 -95 258 -21
321 268 567 593 506z"/>
<path d="M4099 5197 c-104 -29 -181 -97 -228 -197 -50 -107 -28 -251 52 -345
33 -40 114 -84 169 -91 101 -14 168 33 188 131 23 113 -20 200 -96 193 -24 -2
-42 -10 -51 -25 -13 -20 -13 -24 6 -40 40 -34 17 -76 -41 -76 -22 0 -39 9 -60
31 -53 60 -31 170 43 219 73 48 167 40 235 -20 74 -64 96 -151 69 -276 -14
-65 -15 -83 -5 -96 21 -25 51 -17 91 25 114 120 81 384 -63 505 -74 62 -211
90 -309 62z"/>
<path d="M6671 3352 c-24 -20 -98 -104 -164 -187 -169 -210 -219 -266 -322
-357 -116 -103 -266 -203 -407 -273 -97 -48 -146 -64 -349 -114 -304 -76 -313
-78 -514 -101 -106 -12 -200 -29 -250 -45 -80 -25 -80 -25 160 -21 268 5 376
19 598 80 173 48 312 104 435 175 280 162 475 345 689 646 58 83 122 169 140
193 19 23 33 42 31 42 -2 -1 -23 -18 -47 -38z"/>
<path d="M4565 3193 c-16 -2 -73 -15 -125 -28 -208 -52 -272 -59 -515 -59
-186 0 -244 3 -305 18 -72 17 -192 36 -198 31 -6 -5 189 -127 257 -160 108
-53 170 -63 330 -54 306 19 561 104 602 200 11 28 7 60 -8 58 -4 -1 -21 -4
-38 -6z"/>
<path d="M4548 2243 c7 -3 16 -2 19 1 4 3 -2 6 -13 5 -11 0 -14 -3 -6 -6z"/>
</g>
</svg>
