<?xml version="1.0" standalone="no"?>
<!DOCTYPE svg PUBLIC "-//W3C//DTD SVG 20010904//EN"
 "http://www.w3.org/TR/2001/REC-SVG-20010904/DTD/svg10.dtd">
<svg version="1.0" xmlns="http://www.w3.org/2000/svg"
 width="1000.000000pt" height="1000.000000pt" viewBox="0 0 1000.000000 1000.000000"
 preserveAspectRatio="xMidYMid meet">
<metadata>
  <rdf:RDF
    xmlns:rdf = "http://www.w3.org/1999/02/22-rdf-syntax-ns#"
    xmlns:rdfs = "http://www.w3.org/2000/01/rdf-schema#"
    xmlns:dc = "http://purl.org/dc/elements/1.1/"
    xmlns:cc = "http://creativecommons.org/ns#">
    <cc:license rdf:resource="http://creativecommons.org/publicdomain/zero/1.0/deed.en"/>
    <cc:permits rdf:resource="http://creativecommons.org/ns#Reproduction"/>
    <rdf:Description about="https://nft.mir.one/fingerprints"
      dc:title="TON Fingerprints"
      dc:description="This is a unique digital fingerprint created based on the algorithm for generating basic rings using a noise texture. Like human fingerprints, you can now use it for the Web3 and Metaverse era as digital biometric information."
      dc:publisher="https://nft.mir.one"
      dc:date="2022-02-22"
      dc:format="image/svg+xml"
      dc:language="en" >
      <dc:creator>
      <rdf:Bag>
        <rdf:li>EQBondcvD2_aOFADXSWJHs4ZazQDuEl9_wNvGGPxI8hGuOFU</rdf:li>
        <rdf:li>ipfs://bafkreihj7iub3fhmhq6jn62noukt5wxn3gv6bvcg7wmt6ywvlurefezckq</rdf:li>
      </rdf:Bag>
      </dc:creator>
    </rdf:Description>
  </rdf:RDF>
</metadata>
<g transform="translate(0.000000,1000.000000) scale(0.100000,-0.100000)"
fill="#1b1f23" stroke="none">
<path d="M4428 7713 c6 -2 18 -2 25 0 6 3 1 5 -13 5 -14 0 -19 -2 -12 -5z"/>
<path d="M4488 7700 c13 -6 52 -30 87 -55 63 -45 63 -45 232 -71 408 -61 573
-115 918 -304 260 -143 588 -275 725 -294 43 -6 36 0 -125 106 -94 62 -238
151 -320 198 -83 46 -186 109 -230 139 -44 30 -105 71 -135 91 -129 87 -392
156 -690 179 -189 15 -489 22 -462 11z"/>
<path d="M5810 7564 c64 -37 178 -94 187 -94 11 0 -210 119 -222 120 -5 0 10
-12 35 -26z"/>
<path d="M4390 7554 c-52 -8 -134 -25 -182 -39 -91 -26 -281 -95 -275 -101 2
-2 35 3 73 11 38 8 130 19 204 25 74 6 168 15 208 20 109 15 162 49 132 85
-15 18 -35 18 -160 -1z"/>
<path d="M4555 7374 c-85 -22 -124 -26 -260 -27 -174 -2 -200 -8 -297 -75 -24
-16 -110 -65 -193 -109 -82 -45 -180 -98 -217 -120 -66 -39 -66 -39 -5 -35 34
2 118 19 187 39 105 29 149 36 275 42 126 7 162 12 225 35 204 75 308 96 464
96 131 0 205 -18 347 -85 64 -30 237 -95 385 -145 372 -126 501 -192 492 -252
-5 -38 -58 -34 -269 21 -196 50 -349 79 -536 102 -171 21 -410 -5 -856 -96
-270 -55 -403 -72 -454 -59 -50 12 -54 37 -11 64 46 28 64 32 398 100 356 71
410 79 590 89 108 5 144 11 156 23 44 44 -34 95 -164 107 -115 11 -258 -5
-442 -49 -91 -21 -223 -48 -295 -60 -71 -11 -159 -30 -194 -41 -174 -56 -357
-178 -571 -385 -106 -102 -106 -102 -65 -97 22 3 83 20 135 38 170 58 219 65
443 63 222 -2 251 2 547 72 243 57 525 110 587 110 60 0 77 -17 48 -49 -29
-33 -111 -61 -327 -112 -115 -27 -275 -69 -355 -94 -164 -51 -263 -69 -473
-85 -242 -18 -453 -64 -530 -114 -20 -13 -87 -75 -151 -138 -115 -115 -115
-115 -69 -112 26 1 91 16 146 34 229 73 426 110 719 135 265 23 293 21 379
-20 92 -45 183 -56 355 -44 157 11 265 29 440 75 120 32 155 37 293 41 319 11
557 -44 858 -198 229 -116 367 -216 575 -419 77 -75 154 -146 170 -157 28 -20
26 -12 -45 131 -80 159 -130 243 -187 313 -88 110 -536 359 -784 438 -105 33
-266 61 -437 75 -177 15 -304 2 -525 -55 -267 -68 -637 -129 -682 -111 -26 10
-14 48 23 73 41 27 89 41 302 88 152 34 235 59 425 128 152 56 263 58 605 12
326 -44 298 -36 548 -159 243 -121 375 -193 487 -265 39 -25 97 -59 131 -76
60 -30 60 -30 20 21 -23 28 -72 90 -109 137 -100 128 -179 191 -353 281 -179
94 -267 154 -283 195 -16 37 -11 65 12 69 9 2 117 -45 240 -103 122 -59 246
-113 275 -120 30 -7 50 -9 45 -5 -4 4 -48 43 -98 87 -120 106 -240 194 -301
220 -27 12 -90 25 -140 31 -87 9 -98 13 -210 75 -203 113 -561 273 -769 344
-199 67 -279 84 -430 89 -126 3 -150 1 -240 -22z m-297 -121 c-7 -37 -159 -85
-185 -59 -25 25 75 75 150 76 31 0 38 -3 35 -17z"/>
<path d="M5262 6106 c-97 -24 -142 -79 -86 -105 58 -26 259 -53 424 -57 190
-4 268 -20 414 -84 336 -148 669 -420 956 -780 57 -72 141 -149 121 -112 -6
12 -28 68 -47 124 -20 57 -59 150 -87 208 -42 85 -65 120 -131 188 -299 312
-699 545 -1044 608 -120 22 -449 28 -520 10z"/>
<path d="M3845 6019 c-215 -19 -606 -99 -667 -138 -36 -22 -102 -88 -167 -168
-43 -53 -43 -53 -9 -54 40 -2 29 -4 147 26 252 64 645 115 881 115 85 0 256
-9 379 -21 201 -20 235 -21 336 -9 207 24 311 3 540 -110 120 -58 414 -244
595 -375 402 -290 748 -672 969 -1069 56 -101 129 -201 117 -161 -3 11 -13 71
-21 132 -22 156 -50 258 -88 321 -92 153 -302 407 -473 571 -179 173 -306 268
-671 504 -56 36 -129 91 -162 121 -65 60 -99 79 -216 126 -117 47 -156 68
-203 114 -43 41 -43 41 -340 42 -241 1 -328 5 -462 23 -171 22 -310 25 -485
10z"/>
<path d="M5643 5830 c-13 -5 -23 -18 -23 -28 0 -30 48 -66 200 -149 80 -44
179 -101 220 -128 329 -211 639 -520 888 -883 44 -64 91 -127 104 -140 25 -22
25 -22 -12 125 -65 260 -99 322 -292 528 -184 198 -328 322 -518 448 -230 152
-494 257 -567 227z"/>
<path d="M4823 5640 c-31 -13 -39 -47 -17 -77 22 -28 30 -33 354 -191 135 -66
292 -152 350 -190 238 -157 458 -349 691 -599 275 -297 302 -335 465 -644 90
-170 161 -288 169 -276 5 7 -17 226 -30 304 -15 83 -24 105 -91 219 -240 412
-643 823 -1106 1127 -254 167 -471 276 -634 317 -83 22 -117 24 -151 10z"/>
<path d="M3845 5603 c-22 -2 -98 -10 -170 -19 -71 -8 -200 -21 -285 -29 -216
-19 -254 -29 -307 -78 -24 -22 -69 -81 -100 -131 -30 -50 -63 -100 -72 -111
-12 -15 -12 -17 -1 -9 8 6 28 14 44 18 16 4 79 31 140 61 121 58 201 80 240
65 64 -24 42 -53 -108 -145 -68 -42 -135 -89 -149 -103 -33 -35 -80 -129 -127
-253 -37 -98 -37 -98 -7 -82 17 8 67 48 112 88 45 40 151 125 236 189 85 64
181 139 214 166 113 95 234 125 505 125 178 0 204 -3 301 -27 58 -15 166 -49
240 -76 74 -27 166 -60 204 -72 85 -28 162 -65 254 -125 67 -43 72 -45 124
-39 102 12 198 -48 417 -261 74 -72 171 -158 214 -190 86 -64 152 -144 197
-240 46 -97 100 -387 106 -572 10 -271 -51 -668 -144 -942 -23 -69 -52 -133
-174 -384 -38 -78 -38 -78 30 -5 205 220 302 375 336 538 16 76 98 615 110
726 8 74 -8 198 -41 321 -13 51 -29 114 -33 140 -10 52 0 93 23 93 54 0 181
-309 192 -469 5 -67 2 -87 -24 -167 -37 -108 -56 -210 -77 -404 -9 -80 -24
-194 -34 -255 -11 -60 -22 -141 -25 -180 -7 -70 -7 -70 35 15 99 206 143 356
158 543 14 169 43 258 81 245 8 -2 12 -77 13 -238 1 -129 6 -242 11 -250 13
-19 53 163 62 282 5 69 3 97 -10 139 -19 57 -12 78 21 61 28 -16 47 -41 87
-117 36 -70 36 -70 36 1 0 94 -30 203 -75 272 -20 32 -52 91 -71 132 -151 322
-196 392 -308 474 -46 34 -105 94 -158 158 -102 123 -246 264 -423 411 -154
129 -274 211 -387 265 -373 179 -490 239 -572 292 -104 68 -160 92 -263 115
-158 35 -430 53 -598 38z"/>
<path d="M3895 5154 c-169 -25 -290 -72 -450 -178 -194 -127 -326 -240 -360
-306 -33 -65 -62 -166 -80 -278 -9 -53 -18 -107 -22 -120 -5 -21 -2 -20 28 10
18 18 55 66 83 107 107 160 301 331 479 424 261 136 545 134 752 -4 161 -108
272 -278 375 -576 56 -159 80 -271 80 -374 0 -100 -11 -139 -55 -194 -24 -30
-36 -60 -48 -123 -42 -212 -152 -364 -324 -449 -75 -37 -80 -38 -187 -38 -107
0 -114 1 -176 34 -238 124 -374 280 -415 476 -18 88 -18 132 0 218 46 220 217
381 450 424 149 27 365 -6 365 -56 0 -32 -37 -44 -160 -52 -63 -4 -137 -13
-165 -19 -142 -35 -261 -127 -318 -247 -30 -63 -32 -75 -32 -173 0 -93 3 -112
26 -161 32 -69 90 -134 140 -160 115 -58 319 36 319 147 0 42 -21 58 -65 50
-32 -6 -35 -5 -35 18 0 38 10 55 41 71 87 46 184 -29 183 -140 -2 -89 -59
-163 -161 -209 -98 -45 -108 -51 -111 -74 -3 -18 4 -26 34 -38 84 -35 225 16
317 116 101 108 124 232 66 348 -83 167 -284 226 -406 119 -70 -61 -89 -150
-47 -215 38 -58 -36 -74 -91 -19 -82 82 -59 239 51 335 71 63 139 86 259 86
149 1 208 -31 310 -170 79 -106 117 -120 130 -47 11 69 -19 177 -89 318 -69
139 -88 193 -111 322 -17 98 -32 130 -94 196 -59 64 -145 120 -229 149 -97 33
-285 33 -392 0 -195 -62 -372 -188 -501 -358 -102 -133 -114 -180 -107 -401 4
-112 12 -177 32 -265 48 -209 51 -210 51 -15 1 132 5 188 19 242 24 95 105
257 166 332 165 205 424 318 651 284 93 -14 219 -74 274 -130 37 -39 38 -42
22 -58 -16 -17 -21 -17 -85 1 -176 48 -253 55 -366 31 -197 -42 -364 -173
-456 -360 -140 -284 -87 -541 178 -857 147 -175 292 -241 532 -242 99 0 125 4
187 26 89 32 190 98 275 181 111 108 181 226 241 408 49 145 67 251 67 390 0
269 -87 524 -278 815 -44 67 -98 153 -121 192 -22 39 -59 84 -80 101 -52 41
-156 88 -247 111 -71 19 -260 32 -319 24z"/>
<path d="M4682 5018 c-21 -21 -13 -65 23 -114 277 -388 365 -616 365 -948 0
-344 -103 -667 -270 -849 -75 -82 -289 -253 -353 -283 -135 -61 -386 -55 -637
16 -36 10 -92 21 -125 24 -60 6 -60 6 60 -59 217 -117 375 -163 590 -171 189
-8 348 7 417 38 71 33 120 82 116 117 -4 38 -27 37 -116 -3 -93 -42 -122 -46
-122 -15 0 31 55 77 159 133 107 58 168 117 231 226 128 219 195 503 207 875
7 214 -5 292 -70 455 -58 145 -199 390 -267 464 -76 82 -175 127 -208 94z"/>
<path d="M5087 4953 c-14 -13 -7 -65 14 -106 12 -23 45 -78 73 -122 120 -185
176 -326 198 -496 10 -86 10 -105 -10 -205 -11 -60 -26 -163 -32 -229 -34
-365 -96 -571 -253 -829 -43 -72 -94 -165 -113 -206 -19 -41 -54 -95 -77 -119
-56 -58 -169 -132 -247 -161 -59 -22 -68 -23 -145 -12 -45 7 -109 21 -141 33
-71 24 -184 36 -279 29 -70 -5 -70 -5 55 -34 180 -42 200 -51 200 -90 0 -18
-5 -37 -12 -44 -7 -7 11 -2 39 9 39 17 60 20 97 15 25 -4 46 -11 46 -17 0 -5
7 -9 15 -9 19 0 30 -43 16 -68 -17 -32 -13 -34 17 -13 15 11 80 40 144 65 65
24 137 55 161 69 141 83 381 445 490 737 75 201 106 373 116 648 6 160 10 196
24 210 15 15 19 15 32 1 42 -41 63 -241 46 -424 -32 -335 -147 -657 -335 -940
-71 -106 -226 -290 -280 -332 -14 -11 -43 -43 -65 -71 -40 -50 -40 -50 72 2
218 103 299 166 397 314 223 333 350 737 350 1113 0 151 -22 273 -66 374 -62
139 -86 216 -110 353 -18 107 -29 144 -58 195 -101 180 -336 403 -379 360z"/>
<path d="M5650 4455 c-19 -23 -6 -85 50 -235 100 -265 129 -447 110 -685 -36
-443 -181 -826 -439 -1160 -25 -33 -59 -80 -75 -105 -16 -25 -38 -56 -50 -70
-16 -19 -13 -18 14 6 20 16 74 56 120 89 47 32 133 106 191 164 91 92 112 119
156 206 117 229 195 536 223 873 28 332 -66 738 -206 888 -42 46 -72 55 -94
29z"/>
<path d="M3370 3226 c0 -2 8 -10 18 -17 15 -13 16 -12 3 4 -13 16 -21 21 -21
13z"/>
<path d="M3441 3142 c24 -29 63 -77 87 -105 29 -35 42 -59 39 -74 -2 -12 0
-20 4 -17 5 3 9 19 9 35 0 24 -17 47 -91 122 -58 59 -76 73 -48 39z"/>
</g>
</svg>
