<?xml version="1.0" standalone="no"?>
<!DOCTYPE svg PUBLIC "-//W3C//DTD SVG 20010904//EN"
 "http://www.w3.org/TR/2001/REC-SVG-20010904/DTD/svg10.dtd">
<svg version="1.0" xmlns="http://www.w3.org/2000/svg"
 width="1000.000000pt" height="1000.000000pt" viewBox="0 0 1000.000000 1000.000000"
 preserveAspectRatio="xMidYMid meet">
<metadata>
  <rdf:RDF
    xmlns:rdf = "http://www.w3.org/1999/02/22-rdf-syntax-ns#"
    xmlns:rdfs = "http://www.w3.org/2000/01/rdf-schema#"
    xmlns:dc = "http://purl.org/dc/elements/1.1/"
    xmlns:cc = "http://creativecommons.org/ns#">
    <cc:license rdf:resource="http://creativecommons.org/publicdomain/zero/1.0/deed.en"/>
    <cc:permits rdf:resource="http://creativecommons.org/ns#Reproduction"/>
    <rdf:Description about="https://nft.mir.one/fingerprints"
      dc:title="TON Fingerprints"
      dc:description="This is a unique digital fingerprint created based on the algorithm for generating basic rings using a noise texture. Like human fingerprints, you can now use it for the Web3 and Metaverse era as digital biometric information."
      dc:publisher="https://nft.mir.one"
      dc:date="2022-02-22"
      dc:format="image/svg+xml"
      dc:language="en" >
      <dc:creator>
      <rdf:Bag>
        <rdf:li>EQBondcvD2_aOFADXSWJHs4ZazQDuEl9_wNvGGPxI8hGuOFU</rdf:li>
        <rdf:li>ipfs://bafkreihj7iub3fhmhq6jn62noukt5wxn3gv6bvcg7wmt6ywvlurefezckq</rdf:li>
      </rdf:Bag>
      </dc:creator>
    </rdf:Description>
  </rdf:RDF>
</metadata>
<g transform="translate(0.000000,1000.000000) scale(0.100000,-0.100000)"
fill="#1b1f23" stroke="none">
<path d="M4490 7635 c-80 -13 -176 -26 -215 -30 -70 -7 -70 -7 -25 -30 56 -29
151 -42 386 -55 100 -5 226 -16 280 -24 55 -8 173 -25 264 -36 91 -12 216 -35
278 -51 264 -68 565 -214 921 -448 51 -33 98 -61 103 -61 6 0 34 -14 62 -31
50 -31 49 -30 -26 41 -176 163 -290 256 -418 342 -485 324 -1081 466 -1610
383z"/>
<path d="M4120 7379 c-52 -5 -128 -15 -169 -24 -40 -8 -85 -15 -99 -15 -53 0
49 -56 262 -145 272 -112 274 -113 353 -193 81 -80 116 -105 288 -201 137 -77
202 -122 300 -207 82 -71 210 -153 336 -214 124 -61 174 -76 294 -89 57 -6
119 -21 170 -41 97 -38 171 -48 200 -27 18 14 18 17 5 43 -8 15 -49 55 -90 88
-41 34 -115 99 -165 147 -110 103 -189 161 -315 227 -129 69 -213 99 -310 111
-68 9 -108 23 -243 85 -89 41 -196 88 -237 105 -102 42 -140 67 -140 91 0 29
30 40 108 40 117 0 289 -54 425 -132 38 -22 133 -66 212 -98 285 -117 420
-199 638 -388 111 -96 161 -158 188 -233 12 -32 33 -70 46 -83 28 -28 577
-442 668 -504 92 -62 158 -70 115 -14 -12 15 -53 75 -91 135 -48 73 -86 120
-122 148 -29 22 -180 167 -337 323 -157 156 -330 318 -385 362 -198 157 -385
264 -633 363 -141 57 -192 89 -192 123 0 52 238 -8 468 -117 246 -117 434
-247 742 -514 224 -195 280 -250 280 -277 0 -40 31 -103 61 -125 16 -11 45
-23 64 -26 31 -5 35 -3 35 15 0 13 -11 26 -27 34 -35 17 -88 91 -80 112 10 26
71 20 108 -11 25 -21 30 -23 21 -8 -5 11 -20 29 -32 40 -13 11 -66 72 -118
135 -231 278 -315 356 -557 516 -237 156 -453 265 -650 327 -129 41 -198 50
-325 43 -90 -5 -144 -2 -245 14 -71 11 -220 25 -329 30 -109 6 -226 14 -260
19 -106 17 -139 18 -236 10z m1202 -703 c241 -123 368 -214 368 -263 0 -37
-29 -29 -188 53 -236 121 -365 216 -349 258 11 27 40 18 169 -48z"/>
<path d="M3755 7105 c-5 -1 -47 -11 -92 -20 -83 -18 -83 -18 -50 -40 17 -12
59 -31 92 -44 77 -29 140 -65 160 -93 37 -54 5 -72 -90 -51 -39 8 -93 12 -122
10 -73 -7 -175 -59 -215 -108 -73 -91 -95 -114 -132 -141 -39 -28 -39 -28 6
-28 34 0 74 14 164 56 65 31 143 65 173 75 59 21 156 25 166 8 10 -15 -24 -49
-70 -69 -77 -34 -95 -79 -38 -101 37 -14 92 -3 198 39 79 31 100 35 175 35
196 -2 420 -88 930 -358 233 -124 384 -192 705 -315 328 -127 386 -152 570
-245 262 -134 602 -339 677 -410 15 -14 50 -38 78 -55 51 -30 51 -30 -15 99
-78 153 -122 207 -213 256 -37 21 -146 88 -242 150 -399 256 -379 247 -795
371 -387 115 -485 159 -797 358 -149 95 -517 300 -734 409 -49 25 -137 77
-196 115 -146 97 -158 102 -225 101 -32 0 -62 -2 -68 -4z"/>
<path d="M3461 6452 c-76 -38 -63 -76 49 -137 72 -40 98 -69 87 -99 -11 -28
-136 -10 -244 35 -41 17 -71 3 -166 -75 -38 -31 -75 -56 -83 -56 -16 0 -19
-16 -5 -25 6 -3 17 -20 25 -37 15 -30 15 -33 -8 -72 -13 -23 -44 -61 -67 -85
-43 -44 -43 -44 4 -39 33 4 74 22 139 61 68 41 122 64 203 88 130 37 196 70
231 117 36 46 66 57 226 81 285 44 482 16 798 -111 163 -66 667 -309 895 -432
301 -162 433 -224 525 -246 232 -55 355 -106 527 -220 99 -65 280 -232 364
-335 56 -69 141 -137 118 -94 -6 12 -25 63 -41 113 -49 154 -99 246 -168 309
-142 131 -395 276 -740 422 -340 145 -749 329 -1045 472 -389 188 -483 230
-615 274 -203 67 -246 73 -507 71 -205 -2 -242 0 -312 18 -97 25 -146 25 -190
2z"/>
<path d="M6901 6149 c-1 -14 6 -34 14 -45 14 -18 14 -17 6 11 -17 57 -19 60
-20 34z"/>
<path d="M3961 6065 c-107 -30 -158 -83 -126 -131 21 -32 52 -38 104 -19 113
40 319 -2 631 -127 351 -142 708 -341 903 -502 87 -73 141 -143 212 -275 32
-58 89 -158 128 -221 38 -63 94 -163 124 -222 29 -60 58 -108 63 -108 20 0 40
34 40 69 0 77 -19 123 -192 461 -50 96 -47 169 5 141 47 -25 169 -234 237
-405 46 -117 56 -188 40 -303 -14 -110 -3 -237 28 -321 15 -41 26 -52 91 -91
54 -32 85 -60 118 -105 55 -74 116 -197 145 -290 19 -63 20 -74 8 -137 -18
-92 -8 -216 23 -298 24 -64 24 -64 30 5 11 130 29 258 38 276 14 27 50 22 91
-12 36 -30 36 -30 28 2 -5 18 -16 95 -25 171 -8 78 -22 152 -32 170 -9 18 -70
122 -136 232 -142 237 -151 255 -233 497 -99 293 -222 545 -323 659 -22 25
-68 60 -103 79 -35 18 -121 74 -193 125 -377 268 -992 572 -1337 660 -131 34
-306 43 -387 20z"/>
<path d="M3923 5839 c-23 -23 16 -65 143 -154 113 -78 151 -98 321 -166 349
-141 579 -262 781 -413 135 -100 229 -191 380 -366 228 -264 301 -330 367
-330 39 0 32 32 -25 102 -28 35 -110 146 -182 248 -232 326 -305 403 -518 545
-239 160 -486 281 -890 437 -271 104 -350 124 -377 97z"/>
<path d="M3455 5815 c-101 -18 -233 -53 -284 -76 -26 -11 -79 -55 -132 -108
-89 -90 -89 -90 -56 -96 18 -4 100 4 183 16 213 33 482 33 644 1 64 -13 138
-22 165 -20 48 3 50 4 50 33 0 27 -10 37 -97 95 -53 36 -121 84 -150 107 -29
22 -71 46 -93 52 -51 14 -141 13 -230 -4z"/>
<path d="M3855 5419 c-66 -5 -262 -12 -436 -16 -316 -8 -316 -8 -355 -35 -21
-15 -61 -50 -89 -78 -27 -27 -56 -50 -65 -51 -8 -1 1 -6 20 -11 19 -6 112 -14
205 -18 305 -16 372 -30 576 -125 159 -74 427 -171 595 -215 147 -38 303 -113
434 -209 52 -39 111 -82 132 -96 20 -15 68 -39 107 -55 92 -38 147 -76 250
-175 107 -102 313 -332 392 -438 116 -156 218 -404 294 -717 36 -151 80 -380
92 -478 7 -63 39 -146 47 -122 2 8 16 49 30 90 34 99 56 195 56 248 0 81 -96
501 -171 743 -69 227 -90 259 -263 415 -61 54 -187 173 -280 264 -187 180
-223 210 -431 352 -363 247 -490 305 -959 439 -116 33 -224 69 -242 80 -41 25
-51 49 -27 67 43 33 339 -14 567 -89 370 -122 735 -350 1076 -674 306 -290
400 -364 475 -373 37 -4 45 -1 55 17 27 51 -9 101 -130 181 -37 25 -171 148
-310 285 -135 132 -283 271 -330 307 -246 190 -570 361 -875 460 -103 34 -229
42 -440 27z"/>
<path d="M6094 5265 c-10 -26 4 -57 54 -127 27 -37 60 -93 72 -125 13 -32 96
-204 185 -383 176 -351 405 -754 462 -810 20 -19 33 -30 30 -24 -4 6 -11 73
-17 148 -11 146 -31 260 -54 305 -29 55 -304 489 -399 629 -99 146 -114 182
-76 182 75 0 267 -220 512 -587 92 -137 180 -238 158 -181 -5 13 -16 65 -26
114 -18 100 -59 244 -83 289 -18 36 -116 157 -196 243 -85 90 -201 181 -276
215 -36 16 -112 51 -170 78 -108 50 -166 61 -176 34z"/>
<path d="M2985 4978 c-76 -75 -76 -75 -38 -90 21 -9 93 -21 159 -27 154 -14
306 -43 459 -87 367 -107 472 -169 763 -449 149 -144 228 -241 238 -294 6 -26
4 -31 -13 -31 -26 0 -58 25 -173 134 -213 203 -397 339 -539 395 -135 54 -413
126 -626 161 -135 22 -148 18 -227 -72 -56 -64 -56 -64 0 -80 32 -8 96 -21
145 -27 90 -12 279 -58 357 -87 27 -10 96 -19 170 -24 104 -6 135 -12 185 -34
87 -39 230 -139 390 -271 77 -64 184 -146 239 -182 73 -50 111 -84 148 -133
94 -123 170 -318 208 -535 14 -77 44 -181 91 -311 77 -216 119 -376 144 -544
9 -61 23 -126 31 -145 8 -19 14 -45 15 -57 1 -20 2 -20 9 5 5 16 20 44 35 63
14 19 40 64 57 101 31 66 31 66 19 157 -18 123 -68 322 -140 556 -121 393
-172 523 -297 751 -41 74 -88 171 -105 215 -63 165 -133 261 -313 429 -95 88
-122 121 -147 171 -16 35 -42 72 -57 82 -72 51 -316 156 -550 236 -158 54
-307 84 -454 93 -108 6 -108 6 -183 -69z"/>
<path d="M4293 4730 c-47 -19 -34 -37 122 -161 192 -154 241 -214 381 -474 53
-99 113 -209 134 -245 231 -400 420 -988 465 -1450 4 -36 14 -85 22 -108 16
-44 16 -44 33 -10 9 18 28 53 42 78 15 25 36 73 47 107 20 60 20 67 6 160 -49
330 -143 648 -275 936 -48 105 -121 233 -255 447 -67 107 -150 250 -184 316
-54 107 -71 131 -142 198 -151 145 -324 235 -396 206z"/>
<path d="M4936 4405 c-10 -11 -12 -23 -6 -44 10 -37 22 -54 157 -243 283 -392
398 -619 502 -988 50 -179 85 -353 106 -530 16 -137 33 -220 44 -220 9 1 97
198 111 250 15 54 9 112 -26 285 -81 403 -194 705 -351 938 -131 193 -378 482
-459 536 -54 36 -57 36 -78 16z"/>
<path d="M3049 4290 c-59 -60 -59 -60 -27 -73 18 -8 76 -26 128 -41 52 -14
138 -47 189 -72 155 -74 490 -307 831 -578 122 -97 330 -244 432 -305 33 -19
44 -22 64 -12 32 14 32 58 -1 144 -13 36 -29 94 -35 129 -13 82 -56 169 -121
241 -28 32 -145 133 -258 223 -353 283 -550 401 -605 361 -43 -31 -3 -75 210
-228 337 -241 622 -489 670 -581 21 -41 12 -62 -24 -53 -31 8 -64 31 -187 135
-147 125 -328 267 -520 407 -99 72 -209 156 -245 187 -36 31 -94 71 -130 90
-81 42 -218 86 -271 86 -36 0 -47 -7 -100 -60z"/>
<path d="M3175 3996 c-16 -7 -44 -25 -61 -39 -18 -15 -38 -27 -45 -27 -18 0
81 -58 181 -106 232 -111 510 -305 921 -641 277 -226 346 -298 433 -448 56
-97 100 -222 116 -330 12 -82 59 -246 60 -210 0 11 18 43 41 70 81 98 92 144
64 259 -50 197 -137 393 -212 476 -26 29 -87 79 -137 113 -128 86 -247 173
-426 312 -255 199 -352 270 -512 376 -142 93 -354 210 -381 209 -7 -1 -25 -7
-42 -14z"/>
<path d="M6113 3924 c-27 -42 -19 -113 36 -336 28 -112 71 -313 97 -448 25
-134 54 -260 63 -279 18 -34 18 -34 40 62 47 205 51 318 16 542 -27 178 -99
374 -165 448 -38 44 -63 47 -87 11z"/>
<path d="M3300 3599 c-13 -5 -32 -17 -41 -25 -9 -8 -27 -16 -39 -17 -18 -1
-19 -3 -6 -13 8 -6 48 -36 88 -67 40 -31 123 -91 185 -134 382 -266 637 -514
938 -911 44 -58 85 -107 91 -109 14 -5 44 93 44 143 0 48 -65 172 -144 277
-53 70 -242 264 -356 363 -154 135 -460 364 -617 463 -57 36 -105 46 -143 30z"/>
<path d="M3630 2856 c0 -2 8 -10 18 -17 15 -13 16 -12 3 4 -13 16 -21 21 -21
13z"/>
<path d="M3729 2765 c93 -101 97 -105 60 -55 -18 25 -54 63 -79 85 -35 31 -31
25 19 -30z"/>
</g>
</svg>
