<?xml version="1.0" standalone="no"?>
<!DOCTYPE svg PUBLIC "-//W3C//DTD SVG 20010904//EN"
 "http://www.w3.org/TR/2001/REC-SVG-20010904/DTD/svg10.dtd">
<svg version="1.0" xmlns="http://www.w3.org/2000/svg"
 width="1000.000000pt" height="1000.000000pt" viewBox="0 0 1000.000000 1000.000000"
 preserveAspectRatio="xMidYMid meet">
<metadata>
  <rdf:RDF
    xmlns:rdf = "http://www.w3.org/1999/02/22-rdf-syntax-ns#"
    xmlns:rdfs = "http://www.w3.org/2000/01/rdf-schema#"
    xmlns:dc = "http://purl.org/dc/elements/1.1/"
    xmlns:cc = "http://creativecommons.org/ns#">
    <cc:license rdf:resource="http://creativecommons.org/publicdomain/zero/1.0/deed.en"/>
    <cc:permits rdf:resource="http://creativecommons.org/ns#Reproduction"/>
    <rdf:Description about="https://nft.mir.one/fingerprints"
      dc:title="TON Fingerprints"
      dc:description="This is a unique digital fingerprint created based on the algorithm for generating basic rings using a noise texture. Like human fingerprints, you can now use it for the Web3 and Metaverse era as digital biometric information."
      dc:publisher="https://nft.mir.one"
      dc:date="2022-02-22"
      dc:format="image/svg+xml"
      dc:language="en" >
      <dc:creator>
      <rdf:Bag>
        <rdf:li>EQBondcvD2_aOFADXSWJHs4ZazQDuEl9_wNvGGPxI8hGuOFU</rdf:li>
        <rdf:li>ipfs://bafkreihj7iub3fhmhq6jn62noukt5wxn3gv6bvcg7wmt6ywvlurefezckq</rdf:li>
      </rdf:Bag>
      </dc:creator>
    </rdf:Description>
  </rdf:RDF>
</metadata>
<g transform="translate(0.000000,1000.000000) scale(0.100000,-0.100000)"
fill="#1b1f23" stroke="none">
<path d="M4750 7729 c-130 -15 -503 -94 -468 -98 4 -1 106 9 225 21 233 23
624 30 988 16 180 -6 180 -6 90 12 -207 43 -300 53 -530 56 -126 1 -264 -2
-305 -7z"/>
<path d="M4248 7623 c7 -3 16 -2 19 1 4 3 -2 6 -13 5 -11 0 -14 -3 -6 -6z"/>
<path d="M4675 7550 c-230 -23 -487 -84 -655 -156 -184 -78 -190 -90 -30 -54
201 45 406 64 815 76 324 9 763 -18 1142 -71 56 -8 125 -11 154 -8 52 6 52 6
-87 55 -171 61 -401 120 -554 143 -133 20 -634 29 -785 15z"/>
<path d="M4410 7290 c-273 -7 -291 -8 -424 -39 -133 -30 -200 -53 -212 -72
-11 -19 61 -22 254 -11 168 10 229 9 355 -3 84 -8 348 -19 587 -25 587 -14
891 -43 1287 -124 65 -13 145 -27 178 -30 60 -7 60 -7 -20 40 -115 67 -239
127 -325 158 -131 48 -485 89 -906 106 -254 10 -324 10 -774 0z"/>
<path d="M3925 7081 c-184 -9 -220 -20 -361 -112 -107 -69 -107 -69 -58 -63
27 4 81 15 121 25 98 25 719 77 734 62 38 -38 -51 -67 -331 -108 -363 -54
-409 -67 -542 -156 -59 -39 -228 -169 -228 -175 0 -11 111 19 234 63 217 79
348 114 659 177 278 56 278 56 620 56 392 0 764 -14 952 -35 231 -27 605 -111
805 -181 107 -37 219 -67 203 -55 -4 4 -46 39 -93 78 -182 151 -277 202 -444
238 -380 82 -693 110 -1371 121 -400 6 -400 6 -455 38 -53 30 -60 31 -175 32
-66 1 -187 -2 -270 -5z"/>
<path d="M4250 6721 c-313 -66 -560 -144 -767 -241 -88 -42 -113 -59 -185
-132 -96 -95 -240 -275 -212 -263 11 4 30 11 44 15 14 4 61 30 105 57 298 186
532 303 730 369 137 45 519 144 555 144 42 0 13 -53 -47 -83 -15 -8 -118 -43
-228 -77 -349 -108 -466 -161 -641 -292 -56 -41 -157 -106 -225 -144 -68 -37
-143 -86 -167 -108 -56 -52 -143 -183 -183 -277 -29 -66 -99 -265 -99 -278 0
-6 42 53 117 163 93 137 213 245 335 301 59 27 246 75 368 95 92 15 136 31
320 110 246 105 661 238 690 220 21 -13 3 -53 -36 -79 -19 -14 -118 -53 -218
-87 -246 -84 -331 -120 -536 -227 -212 -112 -251 -140 -331 -242 -80 -102
-228 -275 -293 -342 -60 -63 -96 -71 -96 -22 0 63 58 153 227 349 57 66 72
102 53 125 -18 21 -43 19 -100 -10 -107 -54 -250 -219 -300 -345 -23 -59 -70
-343 -70 -425 0 -27 5 -68 11 -90 5 -22 16 -157 24 -300 8 -143 24 -321 35
-395 39 -254 39 -267 -4 -296 -20 -13 -29 -13 -48 -3 -20 11 -19 8 7 -22 17
-19 70 -111 118 -204 135 -261 272 -437 449 -579 101 -81 185 -125 319 -170
193 -64 242 -71 556 -71 248 0 284 2 299 16 45 46 -31 92 -230 140 -133 31
-133 31 -195 10 -75 -26 -104 -26 -206 -1 -231 55 -456 191 -666 400 -194 193
-301 370 -283 470 5 25 8 104 7 175 -1 72 -3 279 -5 460 -4 481 -7 473 273
765 194 202 283 283 399 360 36 24 99 75 140 115 111 107 175 136 603 275 391
127 614 157 768 102 142 -50 292 -140 330 -199 22 -33 25 -73 6 -73 -8 0 -54
22 -103 50 -183 103 -368 158 -430 129 -17 -8 -30 -24 -32 -36 -4 -28 31 -45
278 -139 149 -56 188 -67 261 -73 82 -6 88 -8 144 -50 270 -204 513 -552 654
-936 28 -77 59 -159 67 -183 20 -54 60 -102 85 -102 71 0 40 216 -67 470 -85
202 -247 468 -392 643 -107 130 -396 421 -467 471 -74 53 -314 189 -375 213
-39 16 -79 18 -320 18 -243 0 -279 2 -307 18 -50 27 -150 22 -274 -12 -142
-40 -357 -117 -519 -186 -200 -86 -250 -97 -250 -60 0 45 113 117 305 193 141
56 551 188 624 202 39 7 202 10 449 10 271 -1 403 2 442 11 116 25 301 -8 486
-87 90 -39 156 -89 180 -138 9 -17 89 -103 179 -191 149 -148 165 -166 199
-240 51 -113 67 -142 169 -304 49 -79 134 -230 189 -335 54 -105 110 -204 125
-221 18 -21 23 -24 18 -10 -3 11 -24 83 -45 160 -79 284 -144 438 -244 576
-66 89 -96 139 -96 159 0 5 13 10 28 10 39 0 104 -53 185 -148 36 -42 80 -90
97 -107 32 -30 32 -30 -15 65 -98 196 -172 284 -315 374 -179 113 -400 269
-400 282 0 8 11 19 24 26 50 22 182 -32 407 -169 62 -39 135 -80 162 -91 48
-21 48 -21 -33 78 -112 137 -219 236 -293 271 -33 15 -113 40 -176 55 -64 14
-199 46 -301 70 -102 25 -224 52 -270 60 -125 21 -835 38 -1060 25 -175 -10
-175 -10 -213 16 -54 38 -115 39 -277 4z"/>
<path d="M5556 6421 c-19 -21 -19 -22 5 -47 13 -14 76 -52 139 -84 63 -32 149
-82 190 -110 103 -72 358 -331 457 -464 168 -226 354 -553 423 -743 78 -216
87 -336 34 -448 -24 -53 -29 -76 -35 -205 -11 -187 -32 -332 -69 -463 -97
-346 -264 -602 -477 -733 -90 -54 -138 -97 -160 -138 -44 -85 -179 -190 -348
-271 -230 -110 -650 -222 -963 -256 -108 -11 -155 -11 -547 6 -120 5 -120 5
-20 -25 164 -48 312 -78 450 -91 427 -38 951 95 1321 336 160 104 424 353 545
515 214 285 354 646 424 1095 49 317 50 495 4 667 -13 49 -57 150 -108 252
-89 175 -299 526 -390 651 -59 80 -322 350 -396 406 -104 78 -289 155 -400
166 -53 5 -62 3 -79 -16z"/>
<path d="M4910 5973 c-135 -15 -321 -60 -505 -120 -231 -76 -321 -138 -254
-174 29 -15 81 -7 257 40 248 67 301 75 472 76 153 0 156 -1 267 -38 227 -76
463 -183 575 -258 139 -94 266 -229 389 -412 138 -206 162 -267 208 -537 40
-233 45 -315 31 -435 -23 -194 -87 -394 -206 -644 -64 -133 -75 -176 -52 -199
16 -16 53 -15 86 2 61 32 167 167 231 294 117 230 186 548 162 742 -14 109
-162 542 -235 689 -160 318 -400 584 -611 678 -28 12 -142 58 -255 103 -113
44 -232 96 -265 115 -122 72 -193 90 -295 78z"/>
<path d="M4625 5654 c-44 -8 -136 -28 -205 -44 -69 -16 -156 -34 -195 -40
-148 -25 -175 -32 -246 -66 -177 -85 -423 -323 -522 -504 -73 -134 -103 -311
-94 -568 7 -218 51 -441 119 -606 62 -151 220 -351 375 -476 214 -172 563
-315 563 -230 0 33 -49 78 -180 165 -146 98 -257 189 -316 261 -104 124 -170
249 -205 383 -26 101 -24 128 11 181 45 69 55 130 42 263 -20 212 26 388 148
567 56 80 144 164 165 156 29 -11 12 -66 -60 -186 -82 -139 -129 -252 -151
-363 -20 -100 -12 -150 23 -155 31 -5 54 32 107 165 81 209 204 423 290 506
99 96 271 167 453 187 265 29 525 -64 692 -245 208 -228 258 -598 115 -843
-67 -115 -226 -232 -314 -232 -34 0 -60 14 -60 33 0 4 44 52 99 106 83 82 106
112 144 188 73 147 85 290 36 448 -84 277 -299 429 -604 429 -281 0 -488 -125
-635 -379 -22 -39 -69 -136 -105 -215 -36 -79 -83 -174 -106 -211 -156 -259
-102 -557 145 -805 78 -78 371 -301 444 -338 60 -30 286 -112 348 -126 78 -18
236 -13 352 11 224 45 501 162 587 247 64 65 131 202 152 312 8 47 37 150 64
230 87 260 101 446 49 640 -8 28 -31 63 -70 105 -58 62 -100 130 -100 160 0 9
9 15 23 15 24 0 61 -33 92 -83 26 -41 55 -54 72 -31 35 48 -4 133 -157 343
-194 267 -325 384 -559 499 -146 73 -279 121 -403 146 -97 20 -312 20 -423 0z
m495 -168 c278 -78 520 -243 669 -456 91 -130 104 -161 111 -280 5 -68 17
-136 34 -195 75 -248 28 -510 -119 -660 -65 -67 -243 -184 -342 -225 -229 -96
-482 -91 -722 13 -104 45 -172 92 -302 208 -114 103 -148 119 -169 80 -16 -31
-12 -54 21 -121 61 -121 247 -281 414 -355 217 -96 452 -113 671 -49 123 35
215 80 343 168 86 58 121 76 147 76 29 0 34 -3 34 -23 0 -57 -131 -201 -246
-270 -85 -51 -223 -102 -341 -126 -328 -67 -636 21 -939 271 -159 131 -242
278 -231 411 19 236 49 389 103 535 123 331 335 504 619 504 120 0 202 -23
292 -81 71 -46 113 -101 113 -148 0 -40 -26 -45 -56 -12 -69 77 -199 128 -325
129 -145 0 -256 -46 -359 -151 -156 -158 -220 -440 -134 -587 53 -89 199 -214
328 -279 137 -69 404 -115 540 -93 147 23 261 83 371 194 117 118 167 250 166
436 0 121 -31 312 -66 413 -99 286 -408 521 -758 577 -114 19 -317 8 -442 -24
-126 -31 -208 -62 -336 -126 -55 -28 -126 -56 -157 -61 -80 -15 -145 -54 -209
-124 -99 -109 -165 -242 -197 -399 -20 -93 -22 -287 -5 -427 14 -116 7 -135
-38 -109 -68 39 -98 171 -90 400 6 163 20 236 70 358 56 137 192 300 316 381
136 87 436 193 685 241 152 29 404 22 536 -14z m-48 -762 c40 -14 98 -35 128
-45 68 -24 95 -53 111 -123 10 -48 10 -58 -7 -92 -29 -60 -48 -56 -83 20 -33
73 -78 112 -167 146 -126 47 -247 12 -316 -91 -74 -111 -23 -263 101 -300 110
-33 207 73 156 171 -17 34 -58 49 -80 30 -31 -26 -61 20 -37 56 22 34 90 43
145 20 40 -16 164 -141 172 -173 9 -37 -11 -95 -56 -162 -76 -113 -134 -146
-249 -139 -207 13 -362 198 -330 394 23 142 122 258 255 300 70 22 174 17 257
-12z"/>
<path d="M2956 4850 c-14 -96 -16 -154 -9 -293 8 -152 8 -152 14 -37 3 63 10
163 14 221 5 70 4 112 -3 125 -9 16 -11 14 -16 -16z"/>
<path d="M2961 4324 c0 -11 3 -14 6 -6 3 7 2 16 -1 19 -3 4 -6 -2 -5 -13z"/>
<path d="M5849 3100 c-19 -5 -87 -30 -150 -56 -237 -97 -394 -141 -619 -174
-172 -25 -172 -25 -209 -56 -45 -37 -108 -61 -194 -73 -231 -32 -612 12 -835
96 -101 37 -224 74 -230 68 -8 -7 218 -149 303 -190 112 -54 246 -99 362 -121
132 -25 427 -15 583 19 415 91 665 165 845 252 217 105 307 202 218 236 -27
10 -25 10 -74 -1z"/>
<path d="M5565 2304 c-22 -8 -103 -33 -180 -55 -77 -22 -122 -37 -101 -33 48
7 267 70 310 89 41 18 21 17 -29 -1z"/>
<path d="M5218 2203 c7 -3 16 -2 19 1 4 3 -2 6 -13 5 -11 0 -14 -3 -6 -6z"/>
</g>
</svg>
