<?xml version="1.0" standalone="no"?>
<!DOCTYPE svg PUBLIC "-//W3C//DTD SVG 20010904//EN"
 "http://www.w3.org/TR/2001/REC-SVG-20010904/DTD/svg10.dtd">
<svg version="1.0" xmlns="http://www.w3.org/2000/svg"
 width="1000.000000pt" height="1000.000000pt" viewBox="0 0 1000.000000 1000.000000"
 preserveAspectRatio="xMidYMid meet">
<metadata>
  <rdf:RDF
    xmlns:rdf = "http://www.w3.org/1999/02/22-rdf-syntax-ns#"
    xmlns:rdfs = "http://www.w3.org/2000/01/rdf-schema#"
    xmlns:dc = "http://purl.org/dc/elements/1.1/"
    xmlns:cc = "http://creativecommons.org/ns#">
    <cc:license rdf:resource="http://creativecommons.org/publicdomain/zero/1.0/deed.en"/>
    <cc:permits rdf:resource="http://creativecommons.org/ns#Reproduction"/>
    <rdf:Description about="https://nft.mir.one/fingerprints"
      dc:title="TON Fingerprints"
      dc:description="This is a unique digital fingerprint created based on the algorithm for generating basic rings using a noise texture. Like human fingerprints, you can now use it for the Web3 and Metaverse era as digital biometric information."
      dc:publisher="https://nft.mir.one"
      dc:date="2022-02-22"
      dc:format="image/svg+xml"
      dc:language="en" >
      <dc:creator>
      <rdf:Bag>
        <rdf:li>EQBondcvD2_aOFADXSWJHs4ZazQDuEl9_wNvGGPxI8hGuOFU</rdf:li>
        <rdf:li>ipfs://bafkreihj7iub3fhmhq6jn62noukt5wxn3gv6bvcg7wmt6ywvlurefezckq</rdf:li>
      </rdf:Bag>
      </dc:creator>
    </rdf:Description>
  </rdf:RDF>
</metadata>
<g transform="translate(0.000000,1000.000000) scale(0.100000,-0.100000)"
fill="#1b1f23" stroke="none">
<path d="M4748 7803 c18 -2 45 -2 60 0 15 2 0 4 -33 4 -33 0 -45 -2 -27 -4z"/>
<path d="M4920 7716 c-56 -29 -135 -43 -323 -56 -102 -7 -183 -20 -260 -40
-102 -26 -249 -78 -185 -65 62 12 236 27 418 35 204 9 263 17 370 53 58 20 85
22 240 21 184 -1 302 -18 559 -79 57 -14 106 -24 108 -22 2 3 -49 23 -114 46
-237 83 -486 131 -676 131 -76 -1 -100 -5 -137 -24z"/>
<path d="M5110 7553 c-25 -2 -128 -17 -230 -33 -102 -16 -234 -34 -295 -40
-347 -34 -607 -144 -968 -411 -45 -34 -84 -63 -86 -65 -6 -6 163 63 234 96
304 139 485 188 1005 272 248 40 277 42 460 42 231 -1 299 -15 444 -93 50 -26
156 -72 236 -101 143 -52 334 -133 357 -152 15 -12 228 -99 217 -88 -31 30
-309 228 -380 270 -166 101 -427 217 -581 259 -119 32 -308 52 -413 44z"/>
<path d="M5105 7310 c-96 -11 -565 -95 -705 -126 -240 -54 -542 -162 -680
-244 -77 -45 -423 -300 -417 -306 12 -12 149 37 396 142 452 194 626 249 971
310 80 14 215 44 300 66 155 41 155 41 390 42 129 1 241 5 248 9 22 15 13 46
-19 62 -76 40 -331 63 -484 45z"/>
<path d="M5610 7109 c-25 -4 -133 -8 -241 -8 -247 -1 -334 -16 -363 -63 -24
-39 1 -42 348 -55 370 -13 458 -24 623 -79 133 -44 341 -144 448 -215 44 -29
130 -102 191 -161 61 -59 114 -108 118 -108 3 0 24 -11 46 -25 22 -14 42 -25
45 -25 8 0 -188 252 -244 312 -125 136 -287 251 -451 320 -244 104 -381 132
-520 107z"/>
<path d="M4710 6964 c-238 -33 -471 -99 -740 -211 -85 -36 -229 -94 -320 -130
-91 -36 -186 -78 -211 -94 -90 -57 -208 -193 -293 -339 -44 -74 -87 -146 -95
-160 -25 -40 102 78 172 161 140 164 230 216 493 285 108 28 170 52 279 107
171 85 275 126 425 166 240 64 383 73 638 41 86 -11 240 -29 342 -40 360 -39
554 -95 865 -249 110 -55 209 -101 220 -103 31 -5 32 49 2 89 -83 113 -375
263 -648 333 -109 28 -254 47 -498 65 -254 19 -297 27 -350 66 -36 26 -49 29
-108 28 -38 -1 -115 -7 -173 -15z"/>
<path d="M4730 6680 c-193 -20 -428 -87 -580 -166 -94 -48 -140 -90 -140 -128
0 -55 55 -60 167 -15 327 132 566 177 858 165 351 -14 694 -82 980 -194 185
-73 411 -179 476 -222 169 -115 309 -320 310 -457 1 -59 -12 -83 -45 -83 -16
0 -32 21 -70 90 -62 115 -157 232 -243 303 -222 181 -621 341 -1018 407 -421
69 -708 50 -1050 -72 -77 -27 -180 -63 -230 -80 -150 -50 -148 -47 -249 -270
-19 -43 -70 -135 -112 -205 -147 -243 -200 -386 -224 -603 -18 -156 -7 -423
24 -635 28 -187 24 -245 -14 -245 -37 0 -82 127 -117 325 -14 81 -17 158 -17
400 0 278 2 306 22 379 33 118 97 244 211 415 57 85 112 172 122 195 50 110
-13 158 -80 61 -13 -19 -75 -92 -138 -163 -63 -70 -135 -157 -159 -194 -62
-92 -130 -241 -149 -322 -15 -62 -15 -72 0 -120 13 -39 19 -118 25 -326 8
-282 19 -369 62 -508 28 -93 57 -146 121 -224 31 -38 90 -135 137 -225 86
-165 139 -255 333 -561 132 -210 177 -270 250 -339 159 -151 317 -230 638
-323 79 -23 179 -60 227 -85 221 -113 520 -127 790 -39 128 43 310 137 442
229 188 132 192 130 -70 35 -110 -40 -348 -96 -535 -127 -136 -22 -447 -25
-513 -5 -50 15 -62 35 -37 61 22 25 29 26 256 56 129 16 251 39 364 69 94 24
216 49 272 55 56 6 125 20 153 31 207 82 446 365 635 751 71 145 109 252 120
339 4 30 24 138 45 240 65 310 74 392 75 625 0 224 -5 260 -55 420 -16 50 -36
133 -45 185 -57 338 -186 594 -368 727 -50 37 -54 38 -142 39 -89 0 -91 1
-267 77 -297 128 -475 178 -768 216 -307 40 -547 54 -680 41z m645 -439 c66
-12 181 -37 255 -57 426 -111 636 -234 857 -500 49 -60 113 -131 142 -159 88
-83 86 -75 83 -360 -3 -288 -13 -405 -48 -564 -75 -336 -236 -612 -530 -911
-80 -81 -101 -108 -94 -120 18 -29 10 -84 -20 -137 -17 -29 -76 -99 -133 -156
-151 -152 -235 -188 -638 -273 -272 -57 -357 -60 -514 -20 -186 48 -417 183
-499 291 -40 52 -59 110 -46 135 6 11 15 20 21 20 6 0 54 -33 107 -73 266
-199 526 -268 837 -222 361 54 572 152 793 368 39 39 72 77 72 83 0 16 -24 24
-75 24 -45 0 -48 -1 -318 -145 -299 -158 -637 -202 -921 -120 -46 13 -142 51
-214 84 -127 58 -197 83 -272 95 -49 8 -98 52 -178 159 -176 234 -262 419
-282 610 -6 56 -21 172 -33 257 -30 221 -30 522 1 667 29 133 61 223 130 357
57 113 169 289 230 364 115 140 395 269 688 317 131 21 442 14 599 -14z m1575
-933 c44 -47 64 -187 57 -383 -7 -172 -20 -257 -82 -515 -24 -102 -49 -212
-55 -245 -28 -148 -79 -263 -186 -421 -210 -310 -542 -624 -659 -624 -31 0
-41 20 -25 50 7 12 47 60 89 106 43 46 105 116 137 156 32 40 91 112 131 160
255 310 351 496 442 863 61 245 81 411 81 678 0 90 4 167 10 178 14 25 34 24
60 -3z"/>
<path d="M4856 6139 c-190 -22 -395 -96 -544 -197 -201 -138 -391 -450 -457
-752 -22 -104 -30 -351 -16 -480 41 -350 114 -556 284 -794 131 -185 214 -259
387 -346 275 -138 576 -159 872 -60 105 35 194 79 393 195 229 133 267 165
456 385 145 169 181 219 223 311 83 180 111 334 110 604 0 184 -3 220 -22 289
-25 92 -71 178 -146 280 -182 244 -378 380 -641 445 -66 16 -182 45 -257 65
-228 59 -445 78 -642 55z m419 -164 c207 -43 315 -97 388 -195 27 -36 85 -107
130 -158 150 -171 230 -314 274 -489 27 -111 23 -343 -9 -523 -15 -80 -32
-185 -38 -235 -19 -161 -82 -255 -309 -460 -140 -127 -225 -185 -332 -228
-297 -119 -692 -85 -864 74 -82 76 -119 168 -75 189 8 4 60 22 114 40 88 28
120 33 270 41 238 11 293 17 436 45 69 14 163 27 210 31 109 8 157 30 241 113
85 84 147 206 188 370 112 446 32 739 -289 1060 -74 75 -103 96 -182 133 -141
68 -205 81 -393 82 -136 0 -173 -4 -245 -23 -344 -93 -587 -362 -656 -729 -22
-118 -15 -324 16 -438 63 -237 187 -380 382 -441 31 -9 59 -23 62 -30 15 -39
-86 -84 -189 -84 -182 1 -340 230 -401 580 -24 140 -15 381 19 512 67 255 217
480 405 607 128 86 303 151 462 171 101 12 287 5 385 -15z m604 -134 c107 -55
205 -138 301 -258 176 -219 247 -487 210 -793 -29 -235 -119 -450 -189 -450
-33 0 -34 38 -7 146 58 233 76 406 57 559 -36 296 -149 483 -445 741 -45 38
-67 64 -62 72 13 21 75 13 135 -17z m-661 -146 c194 -46 380 -200 481 -395 64
-125 76 -171 76 -300 0 -100 -5 -130 -33 -230 -70 -246 -164 -377 -326 -455
-192 -92 -499 -130 -682 -84 -58 15 -293 245 -351 344 -168 285 -125 662 103
904 118 125 268 206 429 231 77 11 222 4 303 -15z"/>
<path d="M5314 3960 c-190 -49 -322 -61 -555 -53 -168 6 -183 5 -195 -12 -21
-28 0 -53 69 -85 88 -41 196 -60 335 -60 190 0 381 47 486 119 71 49 89 103
40 121 -14 6 -26 10 -27 9 -1 0 -70 -18 -153 -39z"/>
<path d="M4872 5570 c-108 -29 -187 -75 -273 -160 -122 -122 -179 -260 -179
-438 0 -179 54 -307 184 -437 131 -130 238 -172 416 -162 104 5 219 38 298 84
113 66 202 196 224 325 12 66 12 66 -29 112 -22 25 -64 92 -94 148 -33 63 -73
122 -105 155 -181 185 -471 150 -569 -70 -24 -53 -27 -69 -23 -137 4 -60 10
-87 31 -123 53 -91 126 -130 228 -125 54 3 73 9 103 31 46 35 65 65 73 110 9
56 -5 103 -42 142 -29 31 -39 36 -71 33 -45 -4 -65 -28 -46 -58 16 -26 15 -35
-4 -54 -23 -24 -52 -19 -85 13 -77 78 8 211 136 211 137 -1 252 -129 263 -294
3 -58 0 -82 -16 -118 -30 -68 -84 -121 -154 -154 -56 -26 -74 -29 -158 -29
-82 0 -103 4 -153 27 -109 51 -201 162 -233 282 -51 192 50 412 232 504 185
93 389 60 546 -87 80 -75 121 -144 167 -279 40 -118 56 -131 94 -80 29 39 28
132 -2 221 -30 88 -106 202 -179 266 -71 63 -189 126 -273 146 -88 20 -218 18
-307 -5z"/>
<path d="M3645 6335 c-169 -38 -285 -113 -285 -186 0 -38 14 -37 110 6 82 37
155 55 225 55 61 0 109 35 113 81 3 30 -1 37 -23 47 -32 15 -63 14 -140 -3z"/>
<path d="M3527 6099 c-38 -17 -98 -34 -134 -38 -66 -8 -67 -8 -134 -79 -80
-83 -152 -221 -219 -417 -41 -121 -114 -396 -125 -470 -5 -40 -5 -40 14 10 16
43 109 221 131 250 4 6 42 75 85 155 43 80 96 172 118 205 57 85 158 187 252
255 100 73 150 123 142 144 -9 24 -53 18 -130 -15z"/>
<path d="M3131 5224 c-32 -23 -52 -69 -67 -153 -18 -102 -17 -363 1 -505 49
-375 243 -858 498 -1241 114 -170 374 -510 439 -571 128 -123 302 -219 528
-292 276 -89 508 -126 790 -127 178 0 222 3 335 25 130 25 130 25 75 32 -30 4
-118 11 -195 17 -234 17 -344 41 -715 154 -536 163 -676 262 -970 682 -166
237 -256 387 -406 678 -193 372 -227 465 -259 703 -18 133 -19 248 -3 420 15
172 3 215 -51 178z"/>
<path d="M2901 5024 c0 -11 3 -14 6 -6 3 7 2 16 -1 19 -3 4 -6 -2 -5 -13z"/>
<path d="M3101 3828 c-1 -3 19 -56 44 -117 99 -247 232 -471 419 -706 52 -66
113 -146 136 -179 22 -32 40 -51 40 -42 0 38 -60 134 -177 283 -237 302 -291
385 -377 580 -73 164 -85 189 -85 181z"/>
<path d="M4638 2223 c7 -3 16 -2 19 1 4 3 -2 6 -13 5 -11 0 -14 -3 -6 -6z"/>
</g>
</svg>
