<?xml version="1.0" standalone="no"?>
<!DOCTYPE svg PUBLIC "-//W3C//DTD SVG 20010904//EN"
 "http://www.w3.org/TR/2001/REC-SVG-20010904/DTD/svg10.dtd">
<svg version="1.0" xmlns="http://www.w3.org/2000/svg"
 width="1000.000000pt" height="1000.000000pt" viewBox="0 0 1000.000000 1000.000000"
 preserveAspectRatio="xMidYMid meet">
<metadata>
  <rdf:RDF
    xmlns:rdf = "http://www.w3.org/1999/02/22-rdf-syntax-ns#"
    xmlns:rdfs = "http://www.w3.org/2000/01/rdf-schema#"
    xmlns:dc = "http://purl.org/dc/elements/1.1/"
    xmlns:cc = "http://creativecommons.org/ns#">
    <cc:license rdf:resource="http://creativecommons.org/publicdomain/zero/1.0/deed.en"/>
    <cc:permits rdf:resource="http://creativecommons.org/ns#Reproduction"/>
    <rdf:Description about="https://nft.mir.one/fingerprints"
      dc:title="TON Fingerprints"
      dc:description="This is a unique digital fingerprint created based on the algorithm for generating basic rings using a noise texture. Like human fingerprints, you can now use it for the Web3 and Metaverse era as digital biometric information."
      dc:publisher="https://nft.mir.one"
      dc:date="2022-02-22"
      dc:format="image/svg+xml"
      dc:language="en" >
      <dc:creator>
      <rdf:Bag>
        <rdf:li>EQBondcvD2_aOFADXSWJHs4ZazQDuEl9_wNvGGPxI8hGuOFU</rdf:li>
        <rdf:li>ipfs://bafkreihj7iub3fhmhq6jn62noukt5wxn3gv6bvcg7wmt6ywvlurefezckq</rdf:li>
      </rdf:Bag>
      </dc:creator>
    </rdf:Description>
  </rdf:RDF>
</metadata>
<g transform="translate(0.000000,1000.000000) scale(0.100000,-0.100000)"
fill="#1b1f23" stroke="none">
<path d="M4715 7744 c39 -13 138 -42 221 -64 194 -51 272 -79 419 -152 159
-80 227 -118 365 -204 158 -97 177 -106 361 -169 165 -56 205 -63 241 -44 19
10 18 12 -20 29 -23 10 -65 36 -94 58 -61 46 -112 72 -184 96 -27 9 -107 50
-177 91 -211 124 -552 290 -642 313 -95 25 -248 48 -400 62 -160 15 -169 13
-90 -16z"/>
<path d="M5543 7695 c48 -14 101 -32 118 -40 17 -9 33 -15 35 -12 12 11 -188
78 -227 76 -8 0 25 -11 74 -24z"/>
<path d="M4355 7610 c33 -17 65 -30 71 -30 6 0 19 -9 29 -20 32 -35 3 -49
-141 -71 -71 -10 -158 -28 -194 -40 -65 -20 -293 -119 -288 -124 3 -3 39 3
193 30 44 8 139 20 210 25 72 6 178 20 236 30 128 24 161 25 298 4 145 -21
328 -66 485 -121 241 -84 356 -148 356 -199 0 -28 -4 -29 -61 -8 -95 33 -496
144 -616 171 -118 25 -145 27 -343 27 -265 0 -475 -23 -602 -64 -96 -32 -241
-101 -321 -152 -72 -46 -48 -47 170 -4 242 48 395 66 608 73 255 8 373 -7 785
-102 125 -29 206 -35 318 -21 62 7 72 6 72 -7 0 -16 -11 -25 -110 -98 -53 -39
-57 -40 -114 -35 -32 3 -153 28 -270 56 -287 67 -373 80 -572 87 -181 6 -282
-1 -636 -43 -272 -32 -331 -48 -443 -118 -89 -56 -89 -56 -40 -50 28 3 75 10
105 15 30 6 165 14 300 19 135 6 281 14 324 20 400 49 754 -5 1191 -181 66
-26 181 -64 255 -84 313 -85 512 -200 759 -440 203 -197 324 -382 337 -515 8
-82 38 -136 106 -192 112 -93 144 -130 177 -213 18 -44 40 -87 48 -97 8 -9 26
-43 39 -75 15 -34 23 -46 20 -28 -36 195 -57 378 -51 440 6 66 5 69 -10 48
-20 -29 -75 -31 -99 -4 -9 10 -41 91 -71 179 -30 88 -66 185 -81 214 -51 102
-150 234 -259 347 -258 266 -505 413 -803 475 -140 30 -179 44 -207 76 -18 20
-19 23 -3 34 21 15 96 21 243 20 91 -1 124 -6 190 -28 133 -45 297 -130 407
-213 132 -99 348 -313 427 -423 33 -47 77 -107 98 -134 21 -28 54 -82 75 -120
21 -39 38 -68 38 -65 0 10 -63 163 -103 251 -107 233 -302 507 -501 701 -75
74 -106 91 -303 161 -244 87 -277 104 -373 190 -222 198 -645 364 -1023 401
-84 8 -172 21 -197 29 -25 7 -79 16 -120 19 -75 6 -75 6 -15 -23z"/>
<path d="M5730 7627 c0 -2 35 -25 78 -49 96 -56 234 -158 256 -189 9 -13 16
-19 16 -12 0 16 -77 84 -160 140 -81 54 -190 118 -190 110z"/>
<path d="M4255 6753 c-22 -2 -95 -13 -163 -23 -145 -24 -184 -24 -237 -5 -78
28 -246 11 -331 -33 -62 -32 -138 -93 -242 -194 -97 -94 -97 -94 -47 -75 28
10 82 36 120 57 139 77 463 191 500 176 48 -18 -18 -72 -172 -141 -337 -150
-419 -221 -607 -523 -76 -123 -76 -123 -30 -85 25 21 85 74 133 118 167 154
281 231 613 409 236 127 285 146 437 171 152 26 408 17 543 -18 97 -26 187
-64 221 -95 11 -9 17 -26 15 -41 -4 -36 -41 -38 -136 -7 -154 50 -195 57 -354
63 -255 9 -402 -24 -630 -141 -370 -189 -664 -423 -755 -601 -23 -44 -51 -105
-63 -135 -25 -61 -78 -302 -115 -515 -24 -140 -24 -140 -4 -185 17 -39 21 -79
29 -285 14 -400 66 -636 201 -924 79 -169 166 -289 319 -442 156 -156 218
-204 425 -328 337 -202 508 -250 849 -238 253 9 489 49 602 103 30 14 87 56
127 92 40 37 117 106 172 153 220 189 354 349 445 529 102 203 125 323 125
645 -1 259 -7 309 -65 540 -35 139 -37 184 -12 216 27 33 46 20 85 -58 129
-255 173 -591 126 -958 -38 -300 -175 -563 -418 -805 -69 -69 -176 -163 -237
-210 -124 -94 -164 -140 -144 -165 20 -24 60 -18 139 20 231 111 502 368 649
615 110 185 170 369 192 585 18 174 8 509 -20 640 -51 237 -163 395 -293 411
-50 6 -55 10 -142 102 -194 205 -468 421 -538 423 -12 1 -49 -5 -83 -11 -50
-11 -86 -10 -215 4 -177 19 -268 20 -428 6 -149 -13 -245 -36 -279 -65 -26
-23 -26 -24 -9 -42 16 -16 43 -19 235 -24 234 -7 312 -16 467 -56 120 -31 210
-65 286 -109 57 -34 327 -278 371 -337 62 -80 106 -203 133 -372 22 -137 29
-675 10 -750 -46 -175 -160 -358 -334 -538 -195 -201 -339 -310 -451 -341 -55
-16 -70 -16 -126 -5 -60 12 -72 11 -172 -14 -159 -40 -251 -50 -392 -44 -132
6 -248 30 -318 66 -23 11 -68 44 -102 72 -34 28 -137 92 -229 142 -494 267
-713 503 -826 892 -50 175 -57 251 -59 645 -1 365 -1 365 41 450 53 107 70
126 163 185 55 34 128 101 270 246 107 109 236 231 285 270 50 40 115 97 145
126 67 67 199 134 320 164 74 19 99 21 190 14 149 -12 252 -9 314 9 56 17 92
46 83 69 -7 18 -44 23 -250 37 -184 13 -274 6 -408 -31 -261 -71 -622 -346
-920 -700 -62 -74 -107 -119 -116 -117 -30 6 -37 32 -24 81 39 138 270 385
536 573 378 267 681 348 1035 277 88 -18 120 -33 152 -72 19 -25 34 -31 95
-40 83 -13 219 -58 318 -107 112 -55 249 -159 395 -299 156 -151 383 -350 590
-519 236 -193 302 -265 361 -390 78 -166 92 -289 86 -722 -4 -297 -6 -337 -26
-414 -72 -278 -229 -539 -457 -760 -196 -189 -425 -331 -569 -351 -134 -19
-241 -39 -370 -69 -207 -48 -368 -63 -595 -57 -355 10 -538 70 -886 289 -82
52 -185 115 -229 141 -80 47 -80 47 -35 6 210 -193 420 -354 547 -421 382
-200 824 -239 1323 -117 337 83 602 228 847 463 191 183 307 343 424 581 66
134 127 296 149 399 6 26 15 128 20 225 6 97 19 255 30 351 26 230 26 305 -4
421 -43 169 -117 301 -227 404 -30 28 -108 88 -174 133 -66 45 -181 134 -256
199 -75 65 -197 170 -270 234 -74 63 -210 176 -304 251 -93 75 -182 151 -196
170 -15 18 -42 67 -61 108 -55 118 -109 158 -334 246 -126 49 -277 88 -404
104 -79 9 -306 11 -395 3z m948 -326 c45 -19 63 -43 47 -62 -28 -33 -151 -3
-158 39 -7 36 51 48 111 23z"/>
<path d="M5528 6459 c-31 -17 -21 -54 25 -96 23 -21 105 -81 182 -133 207
-140 295 -213 606 -498 142 -131 193 -165 241 -160 29 3 33 7 36 34 5 54 -122
218 -320 409 -218 213 -449 368 -646 434 -68 23 -98 26 -124 10z"/>
<path d="M4355 6085 c-134 -30 -282 -94 -329 -144 -24 -25 -27 -33 -16 -46 7
-8 20 -15 30 -15 21 0 347 112 412 142 53 24 68 46 42 65 -22 16 -61 15 -139
-2z"/>
<path d="M4794 6066 c-144 -30 -177 -41 -246 -83 -115 -68 -373 -158 -511
-178 -74 -10 -110 -21 -152 -45 -75 -43 -158 -120 -224 -210 -30 -41 -114
-135 -186 -210 -254 -262 -280 -331 -280 -755 0 -225 2 -260 23 -355 79 -352
269 -613 588 -807 122 -75 231 -115 327 -121 160 -10 477 30 611 77 300 105
640 429 776 738 83 189 92 275 56 583 -30 257 -47 306 -133 394 -140 142 -350
225 -662 261 -75 9 -178 25 -229 37 -115 26 -177 21 -333 -26 -403 -122 -594
-288 -670 -581 -24 -94 -29 -299 -10 -405 56 -308 234 -553 492 -674 105 -50
177 -67 309 -73 317 -14 623 141 833 422 105 140 177 324 177 452 0 45 -3 53
-19 53 -33 0 -69 -46 -129 -166 -93 -186 -170 -289 -286 -382 -139 -113 -235
-160 -384 -188 -234 -44 -473 40 -623 219 -107 128 -158 257 -180 456 -35 325
72 523 356 661 146 72 242 95 390 94 318 -3 630 -118 759 -280 70 -88 116
-224 116 -344 0 -62 1 -66 29 -78 88 -39 81 -231 -15 -419 -164 -321 -465
-557 -804 -629 -118 -25 -348 -25 -445 0 -319 83 -595 359 -694 693 -41 137
-54 248 -48 408 6 158 20 236 63 345 50 127 167 272 279 346 27 18 102 51 165
73 402 137 556 194 640 235 124 60 203 79 445 106 230 26 312 23 430 -15 135
-43 177 -28 140 48 -30 63 -92 110 -373 283 -55 33 -165 65 -224 63 -18 0 -83
-11 -144 -23z m286 -146 c25 -13 40 -29 40 -42 0 -17 -47 -29 -152 -39 -172
-15 -298 -45 -458 -106 -80 -30 -215 -79 -300 -109 -85 -30 -204 -75 -263
-100 -154 -65 -210 -52 -125 29 57 55 161 105 328 157 74 23 221 75 325 115
166 63 259 92 355 109 50 9 225 -1 250 -14z"/>
<path d="M7052 5580 c0 -19 2 -27 5 -17 2 9 2 25 0 35 -3 9 -5 1 -5 -18z"/>
<path d="M4334 5126 c-197 -45 -371 -166 -436 -301 -30 -64 -38 -141 -16 -163
25 -25 48 -11 102 61 108 146 232 230 388 263 86 19 213 13 298 -12 297 -88
410 -377 224 -572 -51 -53 -72 -52 -99 5 -28 59 -139 179 -188 204 -50 26
-139 29 -183 6 -50 -26 -92 -81 -99 -130 -14 -93 67 -169 145 -137 36 15 56
60 40 89 -6 12 -15 21 -21 21 -6 0 -9 10 -7 23 2 17 10 23 39 25 67 6 132 -78
133 -173 1 -66 -27 -105 -102 -142 -110 -54 -237 -29 -322 63 -53 58 -70 99
-70 172 0 107 80 225 192 283 32 17 66 24 131 27 83 4 91 3 152 -27 69 -34
110 -77 155 -159 33 -62 63 -68 80 -16 17 51 -1 128 -44 189 -122 171 -404
207 -597 78 -31 -21 -110 -89 -175 -151 -119 -113 -119 -113 -119 -215 0 -97
2 -106 37 -180 119 -248 383 -351 654 -253 137 50 351 235 433 373 98 166 123
319 69 433 -69 148 -205 248 -409 301 -107 27 -297 35 -385 15z"/>
<path d="M5729 4863 c-18 -21 -18 -101 -1 -263 22 -199 0 -333 -82 -505 -94
-198 -215 -364 -383 -525 -194 -186 -392 -309 -564 -350 -47 -11 -156 -24
-248 -30 -178 -11 -216 -22 -216 -59 0 -99 383 -134 608 -55 97 33 140 61 280
177 290 239 404 363 539 582 44 72 109 174 146 228 84 126 101 184 101 358 1
190 -37 359 -96 429 -28 33 -63 39 -84 13z"/>
<path d="M7045 4536 c-20 -30 -41 -151 -48 -276 -5 -89 -4 -86 18 65 14 88 31
177 39 198 17 43 13 47 -9 13z"/>
<path d="M6981 4124 c0 -11 3 -14 6 -6 3 7 2 16 -1 19 -3 4 -6 -2 -5 -13z"/>
<path d="M5900 4012 c-12 -9 -53 -77 -93 -149 -135 -249 -273 -416 -507 -613
-139 -117 -180 -162 -180 -197 0 -25 2 -25 50 -21 136 13 467 300 637 553 75
112 135 245 153 338 15 78 -16 125 -60 89z"/>
<path d="M5795 2420 c-71 -39 -173 -84 -225 -100 -108 -34 -380 -83 -550 -99
-63 -6 -133 -13 -155 -15 -22 -2 32 -3 120 -1 232 5 509 58 671 130 90 40 298
158 272 155 -2 -1 -61 -32 -133 -70z"/>
</g>
</svg>
