<?xml version="1.0" standalone="no"?>
<!DOCTYPE svg PUBLIC "-//W3C//DTD SVG 20010904//EN"
 "http://www.w3.org/TR/2001/REC-SVG-20010904/DTD/svg10.dtd">
<svg version="1.0" xmlns="http://www.w3.org/2000/svg"
 width="1000.000000pt" height="1000.000000pt" viewBox="0 0 1000.000000 1000.000000"
 preserveAspectRatio="xMidYMid meet">
<metadata>
  <rdf:RDF
    xmlns:rdf = "http://www.w3.org/1999/02/22-rdf-syntax-ns#"
    xmlns:rdfs = "http://www.w3.org/2000/01/rdf-schema#"
    xmlns:dc = "http://purl.org/dc/elements/1.1/"
    xmlns:cc = "http://creativecommons.org/ns#">
    <cc:license rdf:resource="http://creativecommons.org/publicdomain/zero/1.0/deed.en"/>
    <cc:permits rdf:resource="http://creativecommons.org/ns#Reproduction"/>
    <rdf:Description about="https://nft.mir.one/fingerprints"
      dc:title="TON Fingerprints"
      dc:description="This is a unique digital fingerprint created based on the algorithm for generating basic rings using a noise texture. Like human fingerprints, you can now use it for the Web3 and Metaverse era as digital biometric information."
      dc:publisher="https://nft.mir.one"
      dc:date="2022-02-22"
      dc:format="image/svg+xml"
      dc:language="en" >
      <dc:creator>
      <rdf:Bag>
        <rdf:li>EQBondcvD2_aOFADXSWJHs4ZazQDuEl9_wNvGGPxI8hGuOFU</rdf:li>
        <rdf:li>ipfs://bafkreihj7iub3fhmhq6jn62noukt5wxn3gv6bvcg7wmt6ywvlurefezckq</rdf:li>
      </rdf:Bag>
      </dc:creator>
    </rdf:Description>
  </rdf:RDF>
</metadata>
<g transform="translate(0.000000,1000.000000) scale(0.100000,-0.100000)"
fill="#1b1f23" stroke="none">
<path d="M4891 7781 c20 -11 98 -31 175 -45 77 -14 175 -35 219 -47 243 -63
425 -189 541 -372 90 -143 157 -233 314 -417 258 -303 362 -451 456 -649 104
-215 143 -383 151 -636 12 -411 -55 -863 -187 -1249 -87 -255 -156 -391 -304
-601 -194 -273 -227 -326 -224 -352 5 -45 24 -48 182 -31 132 14 152 19 223
54 145 72 288 232 305 341 5 32 28 99 52 148 24 50 46 113 50 140 4 28 25 104
46 171 105 326 150 597 150 919 0 72 5 168 10 214 5 47 8 86 6 88 -2 2 -13
-23 -25 -54 -17 -42 -28 -111 -42 -248 -38 -378 -72 -530 -203 -905 -134 -386
-192 -496 -329 -627 -114 -108 -227 -165 -227 -115 0 23 28 61 116 159 156
175 239 333 357 684 90 266 128 439 169 771 30 245 32 581 5 708 -55 255 -143
477 -280 702 -87 143 -168 250 -387 513 -101 121 -212 256 -246 300 -103 134
-175 191 -351 279 -171 85 -330 127 -574 151 -79 7 -153 16 -164 20 -11 3 -4
-3 16 -14z"/>
<path d="M4660 7620 c-323 -45 -517 -120 -811 -311 -58 -38 -110 -69 -116 -69
-6 0 -13 -9 -16 -20 -3 -11 -1 -20 4 -20 16 0 10 -34 -12 -69 -12 -19 -76 -91
-142 -160 -151 -156 -230 -242 -197 -214 14 12 59 43 100 71 111 73 263 221
310 302 49 83 79 109 185 160 192 92 346 128 595 140 165 7 178 10 230 36 47
25 65 29 135 28 237 -3 555 -132 555 -226 0 -27 -19 -23 -182 35 -139 51 -341
97 -419 97 -85 0 -110 -26 -66 -68 33 -31 76 -47 253 -91 228 -57 320 -73 381
-65 63 8 111 -7 154 -47 31 -29 31 -30 13 -51 -18 -19 -26 -20 -134 -15 -174
10 -445 64 -710 142 -113 33 -136 37 -240 37 -210 0 -425 -68 -575 -181 -76
-58 -351 -308 -428 -390 -293 -311 -490 -760 -561 -1277 -16 -111 -40 -504
-32 -512 3 -2 14 14 25 35 15 30 25 90 41 238 39 373 91 569 221 828 133 267
378 554 667 785 245 195 443 273 697 275 72 0 166 -5 210 -12 172 -26 778
-142 823 -157 204 -69 464 -313 626 -589 90 -155 149 -335 183 -565 24 -160
24 -618 0 -773 -41 -267 -132 -573 -231 -782 -138 -291 -352 -538 -554 -639
-263 -132 -667 -156 -1002 -59 -126 36 -240 88 -383 175 -280 169 -426 290
-472 391 -21 45 -23 54 -10 66 20 20 59 1 150 -74 432 -355 857 -510 1270
-466 431 47 687 227 875 615 52 108 77 176 135 376 106 366 126 610 85 1023
-26 253 -45 372 -76 465 -100 300 -369 587 -661 703 -135 53 -456 123 -688
149 -428 48 -722 -64 -1078 -410 -336 -325 -522 -660 -592 -1063 -8 -49 -22
-159 -30 -245 -18 -181 -31 -273 -51 -357 -14 -62 -17 -182 -5 -225 4 -14 31
-42 63 -65 31 -22 76 -57 101 -78 29 -24 65 -43 103 -53 73 -19 123 -52 176
-118 64 -81 88 -137 99 -234 5 -48 15 -105 21 -126 18 -58 107 -148 212 -213
50 -31 178 -114 284 -186 107 -71 226 -144 266 -163 309 -142 803 -166 1144
-55 130 43 232 92 280 136 48 43 295 371 372 495 82 131 163 309 224 490 93
281 137 518 157 856 30 487 -56 841 -287 1180 -99 147 -170 230 -384 449 -174
179 -197 206 -217 260 -32 85 -93 173 -169 244 -105 98 -239 156 -444 192
-132 23 -355 32 -450 19z m353 -906 c132 -18 327 -66 425 -105 272 -108 493
-301 596 -519 61 -130 70 -287 22 -376 -23 -41 -23 -41 15 -155 53 -159 73
-307 66 -484 -7 -168 -32 -290 -92 -462 -31 -87 -45 -143 -45 -178 0 -69 -24
-147 -69 -225 -21 -36 -57 -102 -81 -148 -51 -100 -103 -149 -215 -202 -90
-44 -252 -92 -371 -111 -128 -20 -331 -16 -462 10 -275 53 -433 134 -881 451
-185 131 -380 339 -452 482 -58 115 -71 189 -76 440 -6 258 3 342 49 488 83
261 256 522 503 759 331 316 598 400 1068 335z"/>
<path d="M4695 6603 c-147 -9 -295 -55 -401 -124 -84 -55 -320 -285 -421 -410
-137 -170 -229 -328 -285 -492 -27 -78 -32 -107 -32 -192 -1 -90 2 -106 27
-160 23 -47 31 -84 38 -170 24 -264 100 -432 283 -623 199 -208 500 -405 732
-481 158 -51 264 -64 457 -58 133 4 196 11 278 30 58 14 132 28 165 32 91 10
151 33 195 74 39 38 51 77 26 87 -8 3 -47 -11 -88 -31 -77 -37 -119 -44 -119
-21 0 24 67 74 159 121 62 31 101 58 131 92 73 82 100 173 51 173 -22 0 -76
-36 -151 -100 -87 -74 -284 -209 -330 -225 -24 -8 -62 -15 -86 -15 -24 0 -92
-7 -151 -16 -345 -51 -672 50 -944 292 -275 245 -375 520 -279 764 90 229 234
412 385 492 76 40 257 103 418 146 127 34 310 37 417 8 231 -63 490 -255 583
-434 59 -112 72 -170 71 -317 -1 -113 -4 -141 -27 -210 -15 -44 -43 -109 -64
-144 -40 -68 -173 -209 -326 -345 -74 -66 -88 -83 -85 -105 8 -68 134 -6 334
165 222 189 270 255 316 439 29 117 31 342 4 450 -38 155 -87 226 -240 348
-293 234 -526 338 -761 340 -93 1 -107 -1 -191 -35 -109 -43 -283 -94 -375
-110 -58 -10 -73 -9 -113 6 -47 18 -47 18 -84 -7 -116 -76 -230 -214 -339
-408 -78 -140 -118 -189 -156 -189 -37 0 -40 24 -17 115 55 216 193 443 399
658 124 128 155 147 273 157 51 5 127 14 168 20 85 14 174 8 240 -15 24 -9
112 -27 195 -41 281 -48 437 -115 700 -301 264 -186 370 -213 305 -78 -17 35
-35 53 -83 81 -34 20 -111 76 -172 124 -230 183 -384 261 -639 320 -118 28
-283 50 -382 50 -97 0 -172 -13 -280 -47 -81 -26 -114 -26 -114 0 0 43 104
111 215 142 33 9 119 19 190 22 271 12 587 -66 807 -198 119 -72 180 -121 305
-247 121 -123 145 -134 151 -73 5 47 -43 140 -116 226 -175 208 -432 349 -752
414 -129 26 -312 41 -415 34z"/>
<path d="M4576 6099 c-87 -13 -206 -47 -244 -71 -54 -33 -92 -114 -63 -132 5
-3 42 6 82 19 41 14 117 37 169 51 52 14 123 34 158 45 90 30 104 68 31 89
-38 11 -50 11 -133 -1z"/>
<path d="M4795 5670 c-315 -72 -507 -210 -615 -443 -48 -102 -63 -179 -57
-287 6 -117 32 -194 97 -294 151 -231 413 -386 682 -403 98 -6 191 8 253 39
55 28 250 194 338 288 133 142 187 261 195 430 3 78 0 122 -12 170 -50 194
-176 340 -381 440 -163 80 -328 99 -500 60z m369 -168 c332 -121 462 -461 293
-762 -17 -30 -62 -87 -101 -125 -157 -155 -362 -211 -566 -154 -262 72 -439
280 -440 515 0 247 166 447 440 531 101 31 283 28 374 -5z"/>
<path d="M4920 5399 c-160 -20 -296 -119 -363 -266 -31 -69 -31 -208 1 -277
70 -154 214 -240 391 -235 49 2 103 -3 126 -10 77 -24 170 22 247 124 63 83
82 144 83 260 0 88 -4 107 -27 158 -31 66 -112 155 -172 191 -78 46 -190 67
-286 55z m193 -182 c140 -58 194 -232 120 -384 -33 -68 -133 -163 -170 -163
-23 0 -25 3 -20 29 4 16 26 59 51 95 85 124 87 221 7 289 -62 52 -171 25 -171
-43 0 -38 21 -53 64 -45 32 6 36 5 42 -19 13 -54 -61 -126 -129 -126 -46 0
-97 30 -125 73 -58 87 -21 218 79 279 79 49 160 54 252 15z"/>
<path d="M6253 7235 c8 -16 30 -51 49 -76 34 -48 267 -309 276 -309 5 0 -38
52 -173 210 -45 52 -99 118 -119 145 -48 63 -52 67 -33 30z"/>
<path d="M3042 4423 c-5 -10 -12 -88 -15 -173 -3 -85 -3 -146 -1 -135 3 11 7
30 10 42 5 27 38 46 63 38 20 -6 29 -25 91 -187 46 -121 111 -233 209 -363 37
-49 106 -143 154 -207 168 -225 332 -332 572 -372 55 -10 150 -30 210 -46 280
-75 573 -114 850 -115 215 0 252 6 571 95 250 70 314 82 433 82 77 0 114 4
145 17 65 29 192 130 311 251 110 111 110 111 50 84 -33 -15 -72 -36 -87 -46
-59 -41 -217 -107 -293 -123 -45 -9 -144 -18 -225 -20 -165 -4 -144 0 -393
-71 -283 -81 -335 -89 -587 -88 -281 1 -491 34 -691 110 -87 33 -137 66 -234
154 -143 130 -342 260 -401 260 -11 0 -25 -5 -31 -11 -29 -29 43 -105 233
-247 86 -64 130 -104 132 -119 11 -74 -178 6 -323 138 -61 57 -105 136 -105
191 0 33 -11 50 -84 135 -46 54 -114 125 -152 157 -79 70 -135 144 -199 262
-26 48 -63 104 -83 126 -22 24 -46 69 -62 116 -28 78 -50 100 -68 65z"/>
<path d="M3305 4297 c-9 -33 15 -96 71 -188 68 -112 106 -151 141 -147 26 3
28 6 27 49 -4 100 -146 309 -211 309 -15 0 -25 -8 -28 -23z"/>
<path d="M6951 4095 c-24 -25 -40 -45 -34 -45 9 0 44 35 72 73 22 29 8 19 -38
-28z"/>
<path d="M3022 4070 c0 -14 2 -19 5 -12 2 6 2 18 0 25 -3 6 -5 1 -5 -13z"/>
<path d="M6848 3812 c-38 -31 -52 -48 -42 -50 17 -4 54 27 86 71 25 35 24 34
-44 -21z"/>
<path d="M3110 3796 c0 -16 115 -228 181 -335 156 -251 338 -449 526 -574 258
-172 500 -234 953 -244 135 -2 262 -9 283 -14 53 -14 51 -44 -5 -69 -78 -34
-173 -44 -413 -45 -243 0 -351 14 -519 66 -85 26 -250 68 -254 64 -9 -8 305
-157 396 -189 169 -59 249 -70 482 -70 236 1 294 12 460 89 52 24 196 78 320
120 411 140 584 222 698 328 37 36 39 43 12 57 -28 15 -108 -5 -384 -96 -441
-145 -561 -164 -762 -125 -60 11 -185 28 -279 36 -211 19 -332 37 -483 71
-463 103 -679 232 -931 554 -45 58 -110 141 -145 185 -35 44 -80 107 -100 140
-20 33 -36 56 -36 51z"/>
<path d="M6227 2748 c-125 -79 -916 -402 -1157 -473 -69 -20 -163 -43 -210
-50 -85 -15 -85 -15 45 -11 358 12 827 187 1247 468 64 43 120 83 123 88 8 14
7 13 -48 -22z"/>
<path d="M4718 2203 c6 -2 18 -2 25 0 6 3 1 5 -13 5 -14 0 -19 -2 -12 -5z"/>
</g>
</svg>
