<?xml version="1.0" standalone="no"?>
<!DOCTYPE svg PUBLIC "-//W3C//DTD SVG 20010904//EN"
 "http://www.w3.org/TR/2001/REC-SVG-20010904/DTD/svg10.dtd">
<svg version="1.0" xmlns="http://www.w3.org/2000/svg"
 width="1000.000000pt" height="1000.000000pt" viewBox="0 0 1000.000000 1000.000000"
 preserveAspectRatio="xMidYMid meet">
<metadata>
  <rdf:RDF
    xmlns:rdf = "http://www.w3.org/1999/02/22-rdf-syntax-ns#"
    xmlns:rdfs = "http://www.w3.org/2000/01/rdf-schema#"
    xmlns:dc = "http://purl.org/dc/elements/1.1/"
    xmlns:cc = "http://creativecommons.org/ns#">
    <cc:license rdf:resource="http://creativecommons.org/publicdomain/zero/1.0/deed.en"/>
    <cc:permits rdf:resource="http://creativecommons.org/ns#Reproduction"/>
    <rdf:Description about="https://nft.mir.one/fingerprints"
      dc:title="TON Fingerprints"
      dc:description="This is a unique digital fingerprint created based on the algorithm for generating basic rings using a noise texture. Like human fingerprints, you can now use it for the Web3 and Metaverse era as digital biometric information."
      dc:publisher="https://nft.mir.one"
      dc:date="2022-02-22"
      dc:format="image/svg+xml"
      dc:language="en" >
      <dc:creator>
      <rdf:Bag>
        <rdf:li>EQBondcvD2_aOFADXSWJHs4ZazQDuEl9_wNvGGPxI8hGuOFU</rdf:li>
        <rdf:li>ipfs://bafkreihj7iub3fhmhq6jn62noukt5wxn3gv6bvcg7wmt6ywvlurefezckq</rdf:li>
      </rdf:Bag>
      </dc:creator>
    </rdf:Description>
  </rdf:RDF>
</metadata>
<g transform="translate(0.000000,1000.000000) scale(0.100000,-0.100000)"
fill="#1b1f23" stroke="none">
<path d="M5011 7769 c44 -53 429 -319 669 -462 115 -68 152 -97 246 -191 61
-61 164 -178 229 -261 172 -217 221 -271 286 -316 68 -46 105 -96 166 -227
123 -262 187 -569 164 -776 -12 -104 -22 -142 -71 -271 -21 -55 -52 -149 -70
-209 -17 -60 -50 -150 -72 -200 -77 -174 -99 -239 -149 -429 -62 -236 -101
-344 -186 -515 -117 -236 -345 -561 -523 -746 -106 -110 -225 -201 -505 -387
-299 -199 -469 -293 -655 -362 -52 -20 -120 -47 -150 -61 -55 -26 -55 -26 91
-26 313 0 428 45 778 303 96 70 213 148 374 248 167 103 329 264 517 515 216
288 382 618 474 945 68 240 239 895 257 984 35 166 21 405 -36 645 -34 140
-64 232 -145 435 -37 94 -77 201 -89 239 -53 167 -179 363 -385 601 -34 39
-74 86 -89 105 -21 25 -25 28 -16 10 12 -26 63 -101 232 -344 151 -216 212
-355 174 -394 -23 -22 -35 -9 -127 128 -141 211 -289 390 -459 557 -91 90 -96
93 -140 93 -52 0 -74 12 -281 142 -139 88 -242 141 -437 227 -113 49 -113 49
-72 0z"/>
<path d="M4720 7750 c25 -10 61 -19 80 -18 35 0 35 0 -5 13 -22 6 -58 15 -80
18 -40 7 -40 7 5 -13z"/>
<path d="M4462 7677 c40 -54 128 -110 263 -167 55 -23 168 -76 250 -118 83
-41 198 -96 257 -122 313 -139 561 -355 855 -746 174 -233 311 -430 346 -499
75 -150 120 -343 121 -520 1 -103 -1 -120 -15 -123 -23 -4 -41 46 -83 233 -52
227 -118 397 -174 448 -11 10 -32 19 -48 20 -27 2 -29 0 -26 -33 2 -19 25
-102 52 -185 27 -82 67 -211 90 -285 42 -133 90 -243 127 -289 19 -23 19 -23
86 35 91 78 102 109 101 279 0 198 -39 356 -138 560 -60 123 -117 208 -231
340 -43 50 -123 146 -179 215 -277 343 -386 434 -854 708 -287 169 -304 176
-476 192 -110 11 -250 46 -317 81 -41 20 -41 20 -7 -24z"/>
<path d="M5577 7687 c29 -38 240 -257 247 -257 3 0 6 12 6 27 0 19 -15 41 -53
77 -72 70 -228 189 -200 153z"/>
<path d="M4166 7532 c-80 -3 -80 -3 -45 -24 19 -12 81 -41 139 -65 133 -55
215 -103 448 -260 181 -123 195 -135 450 -388 276 -272 355 -359 440 -487 96
-143 140 -244 178 -411 19 -84 57 -224 85 -312 51 -164 61 -217 41 -237 -19
-19 -62 20 -99 88 -42 77 -85 205 -127 385 -41 170 -70 253 -126 354 -88 160
-206 295 -443 508 -255 230 -317 277 -491 373 -68 38 -92 57 -106 85 -38 74
-131 131 -289 179 -62 19 -86 22 -157 16 -46 -4 -126 -18 -177 -31 -50 -14
-103 -25 -117 -26 -20 -1 -21 -2 -5 -6 11 -2 36 -10 55 -18 19 -7 116 -30 215
-50 257 -53 386 -82 418 -94 60 -23 4 -61 -90 -61 -35 0 -94 -5 -132 -12 -67
-11 -76 -10 -201 21 -165 42 -228 40 -380 -12 -58 -19 -114 -38 -125 -40 -15
-4 -13 -5 7 -6 15 0 47 -5 70 -11 24 -5 80 -16 125 -25 128 -25 211 -63 598
-274 198 -109 300 -174 407 -260 110 -88 153 -141 179 -218 23 -71 73 -149
184 -288 118 -148 195 -204 195 -142 0 30 -85 167 -182 293 -129 168 -133 173
-121 185 28 28 118 -36 196 -140 95 -124 145 -229 151 -312 7 -100 65 -108 87
-12 11 52 -11 154 -52 234 -75 149 -174 263 -314 359 -44 30 -139 100 -211
156 -163 126 -253 180 -417 255 -144 65 -182 89 -190 119 -8 31 15 35 102 21
239 -40 369 -114 727 -413 330 -275 438 -453 473 -782 17 -156 73 -322 143
-425 18 -25 69 -85 114 -132 74 -77 83 -90 89 -135 3 -27 18 -89 32 -139 70
-246 75 -272 70 -405 -5 -140 -28 -233 -92 -380 -83 -187 -223 -387 -326 -467
-49 -37 -198 -111 -465 -229 -55 -24 -156 -76 -225 -115 -391 -221 -640 -313
-1018 -375 -86 -14 -175 -33 -199 -43 -43 -18 -43 -18 45 -48 118 -41 220 -63
290 -63 119 1 395 81 608 177 155 70 505 267 759 427 172 108 216 52 67 -86
-100 -93 -280 -212 -552 -366 -251 -142 -507 -240 -734 -282 -131 -23 -225
-50 -225 -62 0 -4 9 -8 21 -8 11 0 55 -9 97 -19 108 -27 264 -44 335 -36 150
18 423 147 739 349 341 217 433 300 585 526 57 85 144 213 193 285 200 289
320 600 320 823 0 93 -10 125 -65 212 -67 105 -177 321 -171 336 9 22 42 16
77 -13 18 -16 65 -78 105 -140 40 -61 82 -117 93 -122 46 -25 81 -3 81 50 0
23 -39 93 -133 244 -115 182 -125 204 -161 355 -20 80 -60 222 -91 316 -56
174 -63 208 -45 219 15 9 66 -22 90 -55 11 -16 61 -151 110 -300 73 -224 100
-290 154 -387 35 -65 75 -152 87 -193 39 -132 56 -151 96 -107 31 34 44 87 44
181 1 105 -4 121 -41 136 -77 32 -138 149 -230 440 -75 236 -85 315 -49 379
23 41 23 41 -34 155 -131 263 -417 603 -663 787 -142 107 -201 134 -289 134
-70 0 -70 0 -230 96 -88 53 -228 133 -311 177 -191 103 -266 122 -468 114z
m1122 -544 c141 -113 369 -335 454 -444 79 -99 192 -273 229 -352 39 -80 49
-149 25 -158 -37 -14 -89 39 -169 175 -132 221 -208 316 -457 562 -166 165
-231 236 -239 262 -13 39 -9 57 15 57 8 0 72 -46 142 -102z"/>
<path d="M3585 6846 c-50 -16 -125 -53 -190 -95 -50 -32 -50 -32 15 -27 36 3
103 10 150 15 47 6 119 10 161 10 123 1 145 40 49 89 -50 25 -121 28 -185 8z"/>
<path d="M3823 6685 c-40 -16 -101 -28 -175 -36 -156 -15 -233 -51 -253 -117
-6 -22 -6 -22 52 -15 32 5 157 8 278 7 210 0 224 -1 310 -27 121 -37 310 -131
420 -208 127 -91 216 -178 395 -389 86 -102 196 -227 242 -279 131 -145 177
-233 198 -383 12 -81 11 -87 -36 -468 -46 -366 -69 -445 -181 -627 -63 -101
-251 -351 -317 -422 -135 -144 -398 -299 -601 -356 -147 -40 -350 -67 -555
-71 -102 -3 -202 -7 -222 -11 -38 -5 -38 -5 62 -69 55 -36 135 -78 177 -96 71
-28 85 -30 153 -25 101 8 316 51 431 86 200 61 382 148 574 276 146 96 190
140 199 194 10 64 45 124 141 245 119 150 160 212 216 330 63 131 83 218 68
283 -34 143 4 459 72 595 37 73 37 127 3 244 -29 103 -102 262 -130 285 -10 8
-50 28 -89 44 -110 46 -220 165 -455 494 -101 142 -299 292 -545 412 -145 71
-262 114 -330 123 -28 4 -58 -2 -102 -19z"/>
<path d="M3330 6463 c-85 -51 -161 -111 -149 -119 7 -4 64 -10 128 -15 159
-11 461 -55 574 -83 275 -70 504 -212 767 -476 278 -277 397 -523 362 -746
-43 -273 -110 -522 -168 -623 -83 -144 -266 -334 -465 -484 -65 -48 -156 -127
-205 -176 -90 -93 -158 -139 -187 -128 -27 10 -20 41 23 98 42 57 50 89 25
109 -22 18 -67 6 -180 -50 -55 -27 -131 -57 -170 -66 -124 -28 -339 -16 -448
25 -16 6 -47 11 -70 11 -42 -1 -42 -1 54 -95 53 -52 125 -112 159 -134 63 -41
63 -41 180 -41 65 0 157 7 206 16 49 9 148 17 219 18 115 1 137 4 192 27 341
143 733 543 864 882 68 179 124 521 117 717 -5 107 -10 137 -36 207 -57 154
-234 387 -476 628 -147 146 -273 240 -421 315 -183 92 -297 120 -574 145 -140
12 -172 18 -214 40 -27 14 -52 25 -55 25 -4 0 -27 -12 -52 -27z"/>
<path d="M3283 6190 c-39 -16 -118 -73 -180 -131 -60 -55 -60 -55 -19 -53 22
2 81 10 130 18 111 20 303 20 421 1 253 -41 450 -131 671 -306 43 -35 109 -78
146 -96 157 -76 283 -270 363 -560 10 -34 25 -69 35 -78 17 -15 20 -15 39 4
18 18 21 33 21 99 0 61 -7 97 -34 175 -65 190 -190 350 -405 523 -202 163
-352 252 -525 313 -193 68 -586 122 -663 91z"/>
<path d="M3318 5910 c-37 -5 -84 -14 -105 -21 -44 -14 -128 -90 -191 -174 -24
-33 -49 -65 -54 -72 -12 -16 55 6 157 51 319 139 739 64 973 -174 131 -133
273 -415 312 -620 6 -30 11 -98 11 -150 1 -212 -95 -498 -164 -488 -34 5 -47
44 -47 146 0 86 -3 99 -35 165 -19 40 -44 117 -56 172 -42 196 -79 289 -162
402 -159 215 -438 284 -670 167 -28 -15 -84 -59 -123 -98 -63 -63 -75 -80 -94
-141 -28 -90 -37 -247 -20 -352 7 -43 27 -127 46 -186 37 -119 41 -149 20
-166 -23 -19 -106 25 -159 84 -13 15 -11 6 7 -31 27 -56 62 -95 146 -162 46
-38 58 -43 85 -37 74 17 124 24 185 25 196 2 361 85 433 218 94 173 65 431
-62 559 -57 56 -103 76 -186 81 -59 3 -77 0 -115 -20 -54 -29 -104 -99 -114
-158 -20 -126 88 -232 188 -185 81 38 90 160 13 160 -32 0 -45 30 -23 54 39
43 121 20 166 -47 36 -52 40 -159 10 -231 -27 -62 -101 -132 -158 -149 -159
-48 -314 77 -340 274 -23 173 56 320 208 393 75 35 196 36 285 1 80 -31 188
-138 233 -230 59 -121 75 -205 76 -395 1 -170 1 -170 -32 -237 -54 -111 -163
-191 -322 -239 -66 -20 -97 -23 -267 -23 -126 -1 -196 -5 -203 -12 -19 -19 1
-65 49 -115 63 -65 126 -83 281 -83 130 0 158 6 413 91 130 43 187 67 255 110
48 31 110 63 137 73 28 10 72 28 97 41 45 23 203 154 282 233 81 83 141 262
134 406 -3 66 -8 82 -40 135 -20 33 -60 119 -87 191 -84 215 -216 410 -274
402 -13 -2 -23 -11 -25 -24 -2 -12 37 -99 86 -195 114 -224 173 -396 180 -526
5 -107 -9 -195 -44 -269 -31 -66 -48 -81 -70 -63 -14 11 -15 26 -10 84 24 255
18 321 -41 505 -37 112 -212 472 -261 536 -84 108 -291 231 -472 278 -162 43
-292 53 -442 36z"/>
<path d="M3330 5625 c-169 -37 -230 -79 -303 -203 -33 -56 -122 -280 -115
-288 2 -1 26 25 53 58 116 143 162 183 273 238 82 40 170 60 272 60 241 0 449
-128 579 -355 60 -105 97 -219 125 -385 26 -157 41 -187 75 -156 33 30 46 117
33 223 -29 235 -157 486 -324 637 -70 64 -205 136 -303 162 -85 22 -283 27
-365 9z"/>
<path d="M7050 5502 c0 -21 -9 -74 -20 -118 -10 -43 -35 -151 -54 -239 -19
-88 -51 -232 -70 -320 -19 -88 -42 -216 -51 -285 -28 -222 -91 -413 -226 -681
-177 -354 -351 -601 -604 -855 -165 -167 -241 -224 -332 -255 -136 -44 -242
-109 -402 -247 -36 -32 -118 -94 -182 -140 -63 -45 -136 -107 -162 -136 -46
-54 -46 -54 6 -25 29 15 93 43 143 62 147 56 222 99 339 194 200 160 285 206
285 151 0 -33 -39 -77 -143 -158 -142 -112 -156 -145 -36 -84 113 56 186 110
279 204 47 47 146 140 220 207 377 337 663 777 841 1291 69 201 90 301 99 472
5 85 18 218 29 295 30 217 63 705 47 705 -3 0 -6 -17 -6 -38z"/>
<path d="M5566 5071 c-25 -27 -43 -104 -66 -275 -25 -187 -26 -228 -1 -250 25
-22 48 -11 71 34 26 50 35 97 55 270 21 178 21 197 -1 221 -22 24 -36 24 -58
0z"/>
<path d="M5731 4986 c-7 -8 -13 -69 -15 -157 -5 -214 -13 -241 -143 -499 -139
-276 -199 -361 -389 -552 -116 -117 -145 -151 -142 -170 4 -30 50 -36 116 -14
67 23 214 120 295 196 214 200 379 540 394 811 9 149 -25 337 -68 380 -23 23
-33 24 -48 5z"/>
</g>
</svg>
