<?xml version="1.0" standalone="no"?>
<!DOCTYPE svg PUBLIC "-//W3C//DTD SVG 20010904//EN"
 "http://www.w3.org/TR/2001/REC-SVG-20010904/DTD/svg10.dtd">
<svg version="1.0" xmlns="http://www.w3.org/2000/svg"
 width="1000.000000pt" height="1000.000000pt" viewBox="0 0 1000.000000 1000.000000"
 preserveAspectRatio="xMidYMid meet">
<metadata>
  <rdf:RDF
    xmlns:rdf = "http://www.w3.org/1999/02/22-rdf-syntax-ns#"
    xmlns:rdfs = "http://www.w3.org/2000/01/rdf-schema#"
    xmlns:dc = "http://purl.org/dc/elements/1.1/"
    xmlns:cc = "http://creativecommons.org/ns#">
    <cc:license rdf:resource="http://creativecommons.org/publicdomain/zero/1.0/deed.en"/>
    <cc:permits rdf:resource="http://creativecommons.org/ns#Reproduction"/>
    <rdf:Description about="https://nft.mir.one/fingerprints"
      dc:title="TON Fingerprints"
      dc:description="This is a unique digital fingerprint created based on the algorithm for generating basic rings using a noise texture. Like human fingerprints, you can now use it for the Web3 and Metaverse era as digital biometric information."
      dc:publisher="https://nft.mir.one"
      dc:date="2022-02-22"
      dc:format="image/svg+xml"
      dc:language="en" >
      <dc:creator>
      <rdf:Bag>
        <rdf:li>EQBondcvD2_aOFADXSWJHs4ZazQDuEl9_wNvGGPxI8hGuOFU</rdf:li>
        <rdf:li>ipfs://bafkreihj7iub3fhmhq6jn62noukt5wxn3gv6bvcg7wmt6ywvlurefezckq</rdf:li>
      </rdf:Bag>
      </dc:creator>
    </rdf:Description>
  </rdf:RDF>
</metadata>
<g transform="translate(0.000000,1000.000000) scale(0.100000,-0.100000)"
fill="#1b1f23" stroke="none">
<path d="M4980 7789 c248 -44 748 -187 908 -260 34 -15 62 -25 62 -23 0 9
-201 100 -329 148 -211 81 -457 135 -676 150 -80 6 -80 6 35 -15z"/>
<path d="M4602 7620 c-149 -15 -277 -39 -427 -82 -77 -22 -141 -41 -142 -42
-1 0 152 -2 340 -2 526 -2 720 -25 1174 -140 302 -77 363 -82 506 -45 69 18
94 20 117 12 17 -5 30 -9 30 -7 0 2 -27 20 -61 41 -33 20 -81 58 -106 83 -25
26 -38 36 -29 22 23 -35 20 -45 -20 -69 -45 -27 -45 -27 -277 56 -210 75 -433
134 -595 157 -140 20 -386 28 -510 16z"/>
<path d="M4145 7355 c-145 -39 -280 -105 -452 -217 -68 -44 -123 -82 -123 -83
0 -5 164 49 275 90 260 96 505 130 505 71 0 -24 -43 -44 -247 -111 -221 -73
-366 -140 -463 -214 -143 -108 -295 -277 -435 -481 -58 -85 -58 -85 -9 -39
325 306 530 435 959 604 94 37 210 87 259 112 101 51 176 69 326 78 270 18
612 -45 969 -176 298 -110 476 -215 659 -393 191 -185 322 -356 477 -625 56
-98 101 -163 136 -196 28 -28 45 -39 36 -25 -8 14 -43 95 -77 180 -184 460
-400 799 -645 1012 -145 127 -164 134 -665 258 -483 119 -531 126 -950 147
-489 24 -481 24 -535 8z"/>
<path d="M4720 7019 c-124 -13 -248 -49 -464 -135 -387 -154 -634 -301 -835
-497 -92 -90 -157 -186 -232 -341 -106 -220 -175 -461 -198 -690 -18 -183 -11
-706 10 -706 5 0 16 11 24 24 14 20 16 61 15 255 -1 433 34 635 154 885 147
305 394 555 750 757 201 115 475 220 676 260 345 69 805 -4 898 -142 50 -75
77 -97 192 -159 313 -168 484 -326 713 -657 62 -90 135 -196 163 -237 56 -80
83 -143 120 -283 62 -230 87 -409 68 -480 -4 -14 -19 -26 -39 -33 -53 -18
-103 -83 -171 -224 -75 -158 -100 -236 -84 -266 28 -51 95 15 173 169 58 114
90 191 107 259 12 47 27 53 56 21 39 -43 18 -148 -62 -314 -53 -110 -116 -183
-197 -231 -34 -20 -112 -85 -174 -145 -153 -147 -288 -245 -446 -325 -73 -36
-206 -115 -297 -174 -169 -110 -243 -151 -404 -222 -50 -22 -131 -63 -181 -91
-89 -52 -89 -52 -200 -51 -112 0 -220 23 -350 73 -322 124 -680 385 -859 626
-33 44 -106 127 -161 185 -109 113 -124 135 -162 244 -34 102 -51 211 -63 415
-27 432 42 762 210 1005 94 137 313 325 578 497 351 229 677 300 1170 255 134
-12 193 -14 221 -6 45 12 64 31 55 54 -10 27 -123 74 -234 98 -91 19 -135 22
-330 22 -194 0 -239 -3 -325 -22 -208 -45 -426 -132 -614 -245 -419 -253 -658
-523 -776 -880 -54 -163 -66 -259 -78 -612 -14 -407 -13 -562 2 -650 16 -94
77 -308 103 -359 50 -101 165 -173 183 -116 4 14 -6 42 -30 85 -37 67 -44 124
-17 133 7 2 29 -13 49 -35 34 -35 49 -63 99 -183 58 -140 509 -487 864 -665
234 -117 522 -210 690 -222 185 -13 467 79 685 222 120 79 175 133 175 171 0
35 22 70 38 61 6 -4 8 -24 5 -47 -5 -36 -3 -40 16 -40 37 0 97 75 160 203 61
122 62 122 263 332 364 380 413 450 487 693 21 71 51 148 67 172 29 43 29 45
28 187 0 132 -2 145 -22 171 -12 15 -28 38 -36 52 -16 28 -71 235 -111 415
-52 232 -225 524 -479 809 -158 176 -359 320 -660 471 -272 137 -420 182 -676
205 -131 11 -180 11 -300 -1z m1330 -3414 c26 -32 -32 -95 -135 -148 -27 -14
-93 -57 -145 -96 -115 -86 -325 -193 -434 -221 -133 -34 -226 -22 -226 29 0
21 -4 19 146 71 189 66 238 92 532 275 98 61 193 104 228 105 12 0 27 -7 34
-15z"/>
<path d="M4695 6409 c-227 -20 -422 -111 -695 -324 -58 -44 -145 -106 -194
-136 -54 -33 -125 -89 -182 -144 -82 -80 -97 -101 -143 -196 -162 -333 -174
-821 -28 -1157 40 -93 86 -164 180 -282 205 -255 333 -379 516 -502 135 -90
237 -141 380 -188 247 -82 396 -75 662 30 194 78 266 123 415 260 54 51 151
126 214 168 301 201 435 298 471 344 22 28 55 93 79 155 23 60 79 196 126 303
101 235 113 295 96 452 -26 237 -104 405 -170 369 -29 -16 -35 -62 -23 -172
27 -248 23 -340 -25 -518 -29 -108 -97 -289 -143 -380 -41 -80 -107 -153 -135
-149 -40 6 -31 54 39 229 37 90 81 216 98 279 31 115 31 115 32 476 0 360 0
360 -42 445 -111 220 -323 416 -598 550 -114 55 -180 74 -317 89 -111 11 -479
11 -613 -1z m46 -159 c37 -20 23 -47 -33 -66 -89 -29 -221 -100 -308 -165
-155 -117 -229 -234 -314 -496 -89 -275 -123 -463 -136 -761 -10 -218 -18
-264 -53 -270 -33 -6 -41 42 -41 228 1 184 20 366 55 526 29 134 157 601 174
633 46 90 181 214 313 288 131 74 288 112 343 83z m622 -11 c44 -11 87 -40 87
-59 0 -25 -52 -39 -175 -50 -254 -22 -329 -47 -525 -180 -266 -181 -400 -355
-493 -645 -65 -202 -81 -298 -81 -500 -1 -159 2 -189 22 -260 33 -114 77 -190
157 -271 89 -89 155 -122 273 -135 48 -5 125 -18 172 -30 100 -24 381 -36 500
-21 41 5 80 7 87 5 44 -17 -4 -80 -79 -103 -273 -84 -615 -58 -868 67 -79 39
-109 61 -180 132 -90 91 -135 162 -167 266 -26 87 -26 464 1 615 42 238 124
475 212 618 64 103 193 230 337 330 78 55 126 97 145 125 36 56 46 63 122 82
140 34 348 41 453 14z m343 -293 c93 -46 223 -169 271 -256 83 -149 117 -312
117 -550 -1 -184 -13 -257 -70 -430 -76 -227 -167 -364 -311 -467 -129 -92
-238 -116 -303 -68 -46 34 -82 43 -243 60 -156 17 -210 28 -285 61 -95 42
-260 220 -328 357 -37 73 -74 199 -74 251 1 73 36 70 70 -7 75 -172 112 -237
174 -304 80 -86 152 -137 242 -170 56 -21 93 -26 197 -31 216 -8 315 29 369
138 75 150 106 462 60 606 -27 89 -90 184 -153 234 -214 169 -557 87 -673
-159 -25 -55 -30 -78 -29 -136 3 -244 244 -409 423 -291 115 76 109 264 -10
324 -53 26 -80 28 -127 5 -59 -27 -77 -113 -25 -113 21 0 42 -18 42 -36 0 -23
-31 -44 -63 -44 -64 0 -107 55 -107 135 0 61 23 107 76 154 55 48 114 65 203
59 113 -8 186 -62 240 -178 23 -48 26 -68 26 -155 0 -89 -3 -107 -29 -163 -60
-130 -164 -188 -320 -180 -104 5 -189 45 -271 126 -96 97 -174 263 -175 373
-1 218 197 440 450 506 88 23 237 22 315 -1 173 -52 308 -199 361 -396 30
-109 25 -294 -11 -467 -33 -162 -30 -196 18 -201 61 -7 130 114 173 303 29
123 26 380 -4 494 -69 254 -204 403 -417 462 -111 30 -307 24 -438 -15 -162
-48 -289 -126 -398 -244 -105 -114 -162 -225 -200 -390 -12 -48 -34 -118 -51
-155 -29 -65 -30 -74 -26 -170 7 -165 46 -254 190 -436 64 -80 81 -122 58
-136 -34 -21 -192 114 -253 216 -86 146 -117 337 -82 514 22 113 77 298 116
389 111 260 366 479 654 560 121 35 349 66 461 63 84 -3 98 -6 170 -41z
m-1786 -139 c0 -41 -26 -162 -84 -388 -48 -185 -71 -325 -81 -479 -3 -52 -13
-142 -22 -199 -15 -95 -15 -108 0 -155 19 -59 52 -98 107 -126 31 -16 47 -34
71 -83 157 -310 444 -528 782 -592 103 -19 282 -19 388 1 46 8 143 35 216 60
72 24 139 41 147 38 28 -11 18 -50 -21 -85 -52 -45 -199 -113 -313 -144 -119
-33 -312 -44 -416 -25 -333 62 -614 252 -881 596 -126 163 -173 236 -256 396
-82 160 -92 212 -84 428 8 211 43 370 117 526 33 67 99 149 129 157 42 11 40
-9 -8 -105 -90 -179 -138 -373 -148 -595 -9 -199 16 -313 68 -313 11 0 22 6
24 13 2 6 9 100 14 207 11 223 32 345 92 541 30 95 42 154 43 204 2 77 12 103
52 134 41 32 64 28 64 -12z"/>
<path d="M6963 5583 c-4 -19 3 -64 22 -133 52 -192 59 -238 46 -293 -13 -55
-7 -72 15 -43 17 24 19 164 3 252 -15 87 -60 244 -70 244 -5 0 -12 -12 -16
-27z"/>
<path d="M7025 4673 c17 -42 22 -83 14 -136 -10 -77 -24 -116 -82 -232 -97
-196 -206 -344 -447 -610 -75 -82 -179 -202 -232 -265 -124 -149 -158 -180
-308 -286 -265 -185 -306 -207 -531 -278 -146 -46 -189 -71 -189 -110 0 -45
142 -59 306 -31 173 31 208 46 284 124 30 32 103 89 161 128 158 106 239 175
404 344 208 213 302 339 424 572 147 278 255 647 222 757 -6 22 -17 40 -22 40
-7 0 -8 -7 -4 -17z"/>
<path d="M2931 4569 c-1 -3 4 -20 10 -37 6 -17 14 -61 19 -99 9 -68 9 -68 6 2
-1 39 -10 86 -18 105 -9 19 -17 32 -17 29z"/>
<path d="M3113 3760 c6 -16 15 -30 19 -30 5 0 2 14 -7 30 -9 17 -17 30 -19 30
-3 0 1 -13 7 -30z"/>
<path d="M3174 3755 c-24 -18 -9 -48 26 -50 14 -1 42 -22 69 -52 25 -28 86
-94 135 -147 71 -78 117 -116 235 -196 81 -54 224 -158 317 -231 195 -152 290
-217 464 -319 69 -41 171 -104 227 -142 127 -86 184 -111 353 -156 130 -35
141 -36 315 -36 153 -1 195 2 283 22 121 27 277 80 377 127 70 33 70 33 -17
34 -48 1 -156 -6 -240 -15 -84 -9 -202 -14 -263 -12 -120 4 -174 22 -260 87
-29 22 -66 36 -131 50 -162 35 -313 92 -534 202 -119 59 -275 147 -350 196
-163 107 -482 339 -640 463 -72 57 -149 107 -205 135 -109 52 -136 59 -161 40z"/>
<path d="M6658 3366 c-43 -29 -148 -122 -235 -207 -183 -179 -268 -247 -373
-295 -144 -66 -165 -78 -168 -101 -5 -33 30 -47 97 -39 151 18 265 112 551
456 58 69 129 151 159 183 30 31 52 56 50 56 -2 -1 -39 -25 -81 -53z"/>
<path d="M3306 3349 c118 -139 138 -158 177 -174 23 -9 71 -41 107 -70 57 -47
115 -105 336 -335 139 -146 467 -334 596 -342 40 -3 43 -1 46 23 4 35 -38 74
-144 135 -188 108 -351 224 -492 353 -184 166 -286 238 -442 312 -69 33 -143
74 -165 91 -32 25 -36 26 -19 7z"/>
<path d="M3585 2920 c10 -11 20 -20 23 -20 3 0 -3 9 -13 20 -10 11 -20 20 -23
20 -3 0 3 -9 13 -20z"/>
<path d="M3675 2845 c28 -25 64 -56 80 -68 30 -21 30 -21 12 0 -10 12 -46 42
-80 68 -62 47 -62 47 -12 0z"/>
<path d="M4625 2270 c-38 -10 -65 -18 -60 -19 149 -20 446 -42 600 -45 161 -4
181 -3 100 4 -55 5 -182 25 -283 44 -203 40 -254 42 -357 16z"/>
</g>
</svg>
