<?xml version="1.0" standalone="no"?>
<!DOCTYPE svg PUBLIC "-//W3C//DTD SVG 20010904//EN"
 "http://www.w3.org/TR/2001/REC-SVG-20010904/DTD/svg10.dtd">
<svg version="1.0" xmlns="http://www.w3.org/2000/svg"
 width="1000.000000pt" height="1000.000000pt" viewBox="0 0 1000.000000 1000.000000"
 preserveAspectRatio="xMidYMid meet">
<metadata>
  <rdf:RDF
    xmlns:rdf = "http://www.w3.org/1999/02/22-rdf-syntax-ns#"
    xmlns:rdfs = "http://www.w3.org/2000/01/rdf-schema#"
    xmlns:dc = "http://purl.org/dc/elements/1.1/"
    xmlns:cc = "http://creativecommons.org/ns#">
    <cc:license rdf:resource="http://creativecommons.org/publicdomain/zero/1.0/deed.en"/>
    <cc:permits rdf:resource="http://creativecommons.org/ns#Reproduction"/>
    <rdf:Description about="https://nft.mir.one/fingerprints"
      dc:title="TON Fingerprints"
      dc:description="This is a unique digital fingerprint created based on the algorithm for generating basic rings using a noise texture. Like human fingerprints, you can now use it for the Web3 and Metaverse era as digital biometric information."
      dc:publisher="https://nft.mir.one"
      dc:date="2022-02-22"
      dc:format="image/svg+xml"
      dc:language="en" >
      <dc:creator>
      <rdf:Bag>
        <rdf:li>EQBondcvD2_aOFADXSWJHs4ZazQDuEl9_wNvGGPxI8hGuOFU</rdf:li>
        <rdf:li>ipfs://bafkreihj7iub3fhmhq6jn62noukt5wxn3gv6bvcg7wmt6ywvlurefezckq</rdf:li>
      </rdf:Bag>
      </dc:creator>
    </rdf:Description>
  </rdf:RDF>
</metadata>
<g transform="translate(0.000000,1000.000000) scale(0.100000,-0.100000)"
fill="#1b1f23" stroke="none">
<path d="M4825 7794 c17 -9 47 -30 68 -47 56 -44 143 -76 204 -77 101 0 135
-20 268 -156 66 -68 146 -151 177 -184 60 -63 107 -90 323 -180 139 -58 201
-93 435 -249 203 -135 205 -135 270 -139 65 -4 65 -4 20 29 -25 18 -83 67
-130 110 -209 191 -363 299 -598 418 -182 92 -469 262 -495 292 -14 17 -15 24
-5 36 24 29 96 6 318 -102 160 -78 243 -112 325 -134 60 -16 110 -29 111 -28
4 5 -529 259 -589 282 -37 14 -112 32 -165 39 -121 18 -433 73 -487 87 -77 20
-80 20 -50 3z"/>
<path d="M4330 7667 c0 -8 112 -78 205 -127 127 -67 242 -144 403 -268 135
-105 219 -163 372 -257 80 -50 142 -105 408 -364 303 -296 440 -441 626 -661
136 -161 176 -199 240 -232 148 -75 310 -316 365 -542 29 -117 61 -194 106
-253 21 -26 35 -39 31 -27 -3 11 -24 108 -46 215 -44 218 -80 331 -148 464
-42 82 -63 107 -237 285 -105 107 -247 258 -315 335 -176 199 -273 298 -450
454 -173 153 -217 199 -226 237 -19 75 50 47 246 -99 186 -139 282 -230 478
-454 97 -111 245 -273 327 -361 83 -87 187 -199 233 -248 83 -89 83 -89 12 53
-93 186 -223 381 -350 523 -56 63 -123 144 -148 180 -25 36 -63 88 -84 116
-76 101 -315 282 -483 365 -87 43 -112 51 -185 58 -64 6 -105 17 -167 44 -45
20 -108 44 -140 53 -135 39 -259 123 -423 286 -63 63 -130 123 -149 132 -53
28 -210 64 -328 76 -59 6 -123 13 -140 16 -18 3 -33 3 -33 1z"/>
<path d="M5071 7562 c-15 -29 11 -72 84 -141 111 -103 229 -170 271 -154 30
11 14 50 -43 104 -196 184 -286 239 -312 191z"/>
<path d="M4030 7460 c-36 -4 -59 -7 -52 -8 8 -1 26 -11 41 -21 15 -11 56 -31
92 -44 382 -145 883 -470 1299 -842 403 -362 687 -680 843 -948 184 -315 225
-382 288 -468 146 -199 215 -311 318 -519 94 -189 184 -342 168 -285 -4 11
-13 74 -22 140 -36 259 -73 400 -137 508 -44 73 -67 99 -146 165 -96 80 -243
300 -302 455 -49 125 -81 183 -160 287 -156 205 -341 402 -639 684 -277 263
-272 259 -616 501 -405 286 -554 375 -659 394 -63 12 -207 12 -316 1z"/>
<path d="M3807 7251 c-59 -6 -59 -6 -30 -32 15 -15 89 -53 163 -84 504 -213
774 -383 1218 -762 500 -429 778 -746 1052 -1203 74 -122 280 -527 365 -715
101 -225 116 -276 125 -405 9 -129 54 -319 94 -393 23 -44 23 -44 30 78 3 67
1 167 -4 225 -10 90 -9 105 5 119 14 14 21 12 75 -17 33 -19 60 -31 60 -27 0
3 -14 32 -30 65 -17 33 -41 93 -55 134 -44 136 -265 555 -459 871 -372 606
-436 693 -731 994 -517 527 -1050 918 -1526 1120 -93 39 -100 41 -195 39 -55
-1 -125 -4 -157 -7z"/>
<path d="M3645 7029 c-16 -5 -52 -13 -79 -17 -49 -7 -49 -7 127 -94 97 -48
247 -117 333 -153 355 -150 525 -252 705 -423 63 -59 184 -166 269 -237 478
-398 800 -742 986 -1052 71 -117 89 -164 108 -284 9 -56 29 -118 61 -189 105
-236 177 -441 220 -625 31 -136 115 -537 134 -643 11 -59 28 -125 37 -147 18
-40 18 -40 25 5 4 25 17 88 29 140 11 52 23 149 26 215 6 115 5 128 -36 315
-79 367 -101 433 -307 910 -95 219 -137 304 -210 425 -218 358 -526 688 -1095
1172 -368 314 -523 411 -984 617 -165 73 -174 76 -245 75 -41 0 -87 -5 -104
-10z"/>
<path d="M3457 6793 c-43 -14 -74 -30 -70 -34 13 -13 132 -29 216 -29 80 0 86
4 71 45 -9 23 -58 45 -101 45 -21 -1 -73 -12 -116 -27z"/>
<path d="M3676 6681 c-18 -20 -70 -36 -151 -46 -49 -7 -124 -33 -220 -76 -50
-22 -50 -22 -12 -35 25 -9 101 -14 225 -15 286 -2 407 -22 627 -104 107 -39
384 -173 425 -204 21 -17 22 -21 10 -36 -24 -29 -108 -13 -282 54 -299 115
-426 144 -717 166 -198 15 -202 15 -263 -6 -34 -11 -82 -31 -107 -45 -25 -13
-55 -24 -66 -25 -16 -1 -15 -2 6 -8 14 -5 34 -13 45 -19 10 -5 96 -17 189 -26
476 -46 553 -62 935 -190 362 -122 410 -147 640 -331 311 -248 646 -573 824
-798 114 -143 164 -191 192 -180 30 11 26 46 -14 127 -154 309 -669 835 -1176
1201 -101 73 -114 86 -143 144 -18 35 -42 74 -54 87 -103 109 -490 293 -768
364 -98 25 -123 25 -145 1z"/>
<path d="M6533 6644 c-3 -9 2 -31 11 -50 20 -44 168 -198 262 -274 71 -58 71
-58 -46 99 -125 166 -190 241 -209 241 -6 0 -14 -7 -18 -16z"/>
<path d="M3210 6117 c-30 -13 -73 -35 -94 -50 -21 -15 -43 -27 -47 -27 -5 0
-9 -4 -9 -8 0 -30 169 -54 505 -72 286 -15 459 -50 667 -134 259 -105 410
-208 699 -478 176 -164 238 -213 326 -256 91 -45 138 -81 224 -169 158 -163
320 -384 400 -548 127 -260 209 -621 197 -873 -4 -89 -8 -104 -46 -182 -45
-91 -84 -227 -101 -355 -14 -99 -26 -423 -17 -458 6 -25 11 -19 55 65 82 158
121 267 131 371 5 51 14 140 19 198 12 126 16 139 45 139 51 0 78 -119 75
-330 -1 -69 2 -142 6 -163 8 -39 8 -39 47 65 46 123 76 232 85 309 4 45 -1 79
-30 185 -20 71 -50 206 -67 299 -58 317 -94 456 -167 645 -75 194 -115 260
-238 390 -60 63 -158 172 -216 241 -107 125 -205 219 -354 340 -44 35 -154
129 -245 208 -183 159 -326 270 -429 331 -202 120 -610 257 -876 294 -46 7
-460 46 -478 46 -6 0 -37 -11 -67 -23z"/>
<path d="M3168 5840 c-24 -7 -72 -38 -164 -104 -31 -22 -31 -22 10 -39 23 -9
91 -23 151 -32 219 -30 276 -44 386 -96 75 -35 131 -54 195 -65 110 -19 182
-43 300 -98 147 -70 294 -175 294 -212 0 -34 -66 -13 -219 70 -237 128 -375
176 -411 140 -28 -28 89 -99 514 -315 145 -74 168 -89 243 -163 46 -45 83 -87
83 -93 0 -7 -9 -17 -20 -23 -30 -16 -80 7 -247 116 -84 54 -237 148 -340 209
-156 91 -200 122 -259 182 -104 106 -171 133 -432 173 -156 24 -159 23 -259
-64 -62 -54 -62 -54 -37 -71 14 -9 75 -32 136 -51 107 -34 112 -37 181 -106
75 -76 153 -129 367 -253 257 -149 350 -219 350 -266 0 -23 -21 -24 -63 -3
-89 45 -484 265 -726 404 -120 68 -146 66 -248 -19 -42 -35 -42 -35 -10 -54
17 -11 52 -26 78 -33 90 -27 223 -85 507 -223 300 -145 353 -166 440 -177 117
-15 313 -174 466 -378 68 -92 133 -206 180 -319 24 -56 53 -122 65 -145 32
-63 89 -122 117 -122 34 0 31 25 -12 123 -29 66 -36 96 -38 153 -2 66 -6 78
-61 175 -161 287 -233 374 -560 672 -168 153 -183 164 -495 355 -293 180 -299
184 -281 206 34 41 139 5 298 -102 48 -32 151 -98 228 -146 184 -116 552 -394
623 -472 36 -39 103 -139 182 -275 69 -118 153 -251 188 -297 35 -46 78 -107
97 -137 40 -61 47 -67 69 -59 24 9 20 78 -8 146 -13 31 -57 114 -98 185 -98
167 -141 252 -195 393 -24 63 -58 146 -75 185 -23 53 -31 86 -32 140 -3 88
-30 150 -115 259 -34 44 -76 106 -93 139 -79 148 -307 281 -598 349 -201 47
-232 62 -198 96 23 23 166 14 289 -17 246 -62 456 -183 601 -346 139 -155 249
-317 303 -445 25 -59 29 -81 35 -230 8 -195 17 -221 135 -420 151 -255 165
-304 144 -514 -8 -84 -12 -199 -10 -286 10 -304 8 -361 -15 -405 -17 -33 -26
-40 -50 -40 -27 0 -30 3 -42 60 -55 259 -90 360 -141 409 -14 14 -58 41 -97
60 -104 50 -155 112 -254 305 -188 369 -361 539 -685 671 -44 18 -172 75 -285
125 -232 104 -363 158 -432 176 -55 15 -90 3 -151 -50 -19 -17 -41 -31 -48
-31 -25 0 85 -46 141 -60 156 -37 532 -185 760 -300 145 -73 241 -141 340
-240 125 -125 208 -253 256 -393 28 -81 80 -156 203 -292 50 -55 107 -129 128
-164 45 -77 171 -360 185 -416 18 -74 -13 -285 -70 -475 -14 -47 -28 -108 -31
-136 -7 -52 -7 -52 29 -25 19 15 61 47 93 71 107 80 129 114 181 275 26 80 74
209 107 287 33 79 67 170 74 203 16 67 18 165 5 240 -5 28 -14 149 -19 270
-20 405 -43 495 -176 680 -102 141 -167 255 -180 313 -6 28 -4 32 13 32 24 0
64 -44 133 -147 54 -80 127 -158 157 -167 45 -15 112 -171 148 -346 17 -81 27
-179 35 -330 11 -223 19 -278 45 -305 22 -21 40 -19 62 10 37 47 47 118 46
330 -1 236 -9 285 -110 614 -86 283 -114 336 -272 525 -46 54 -109 138 -142
185 -130 189 -426 494 -594 612 -97 69 -267 153 -388 193 -189 63 -331 83
-494 68 -87 -8 -309 -1 -369 12 -11 2 -32 0 -47 -4z m1939 -1132 c109 -106
210 -276 201 -340 -7 -50 -34 -30 -101 75 -37 58 -97 138 -133 178 -98 110
-113 149 -58 149 18 0 46 -19 91 -62z"/>
<path d="M6517 5673 c-25 -24 22 -126 144 -313 87 -134 130 -176 161 -159 25
14 21 55 -16 135 -34 74 -145 243 -197 299 -38 42 -74 57 -92 38z"/>
<path d="M5199 4974 c-17 -21 4 -59 78 -145 162 -184 264 -369 351 -630 71
-213 92 -324 99 -504 8 -232 -20 -349 -118 -481 -27 -37 -59 -97 -74 -141 -16
-43 -70 -166 -121 -273 -99 -209 -199 -474 -208 -555 -6 -50 -6 -50 85 40 120
118 171 188 207 284 52 135 102 195 147 177 22 -8 16 -52 -29 -220 -19 -66
-36 -147 -39 -179 -6 -58 -6 -58 67 41 122 168 147 250 112 367 -29 94 -17
169 74 449 70 218 81 278 81 431 -1 422 -197 895 -511 1229 -67 71 -141 126
-171 126 -9 0 -22 -7 -30 -16z"/>
<path d="M3082 4506 c-32 -11 -121 -75 -122 -87 0 -10 78 -36 175 -59 253 -58
566 -191 740 -314 44 -32 143 -122 220 -201 147 -150 185 -176 211 -140 11 15
11 24 -1 53 -44 104 -248 326 -381 415 -178 118 -496 257 -744 326 -53 15 -72
16 -98 7z"/>
<path d="M3125 4216 c-16 -7 -49 -29 -73 -49 -43 -36 -43 -36 -5 -52 21 -9 61
-21 88 -26 28 -5 92 -21 142 -34 298 -81 674 -285 649 -351 -10 -25 -48 -13
-214 65 -237 111 -442 181 -493 168 -13 -4 -48 -26 -76 -49 -53 -43 -53 -43
-15 -56 20 -8 89 -27 152 -44 63 -16 185 -56 270 -90 85 -33 223 -82 305 -110
204 -67 331 -144 468 -285 95 -98 150 -173 203 -278 51 -101 68 -191 41 -213
-8 -7 -22 -10 -30 -6 -9 3 -60 72 -114 152 -149 225 -306 373 -501 471 -127
64 -519 211 -563 211 -31 0 -99 -29 -99 -42 0 -5 -15 -17 -32 -28 -18 -11 -27
-20 -20 -20 7 0 31 -9 55 -19 23 -11 96 -37 162 -59 374 -124 607 -268 784
-487 104 -128 235 -319 258 -377 17 -40 26 -92 32 -175 14 -181 10 -178 113
-83 48 44 89 88 92 98 9 28 36 320 36 386 0 188 -116 409 -325 620 -72 72
-109 101 -184 141 -101 54 -168 113 -244 213 -64 85 -183 170 -352 253 -132
64 -368 151 -445 163 -20 4 -48 0 -65 -8z"/>
<path d="M4800 3886 c0 -13 17 -61 39 -107 21 -46 43 -100 50 -120 25 -76 72
-86 92 -20 13 43 1 80 -52 158 -69 103 -129 144 -129 89z"/>
<path d="M3485 3271 c-22 -10 -49 -28 -59 -40 -11 -11 -26 -21 -35 -21 -17 0
70 -53 239 -145 209 -114 279 -170 366 -292 43 -59 174 -324 174 -351 0 -20
94 79 109 115 19 47 8 88 -50 184 -143 239 -299 384 -544 506 -125 63 -149 68
-200 44z"/>
</g>
</svg>
