<?xml version="1.0" standalone="no"?>
<!DOCTYPE svg PUBLIC "-//W3C//DTD SVG 20010904//EN"
 "http://www.w3.org/TR/2001/REC-SVG-20010904/DTD/svg10.dtd">
<svg version="1.0" xmlns="http://www.w3.org/2000/svg"
 width="1000.000000pt" height="1000.000000pt" viewBox="0 0 1000.000000 1000.000000"
 preserveAspectRatio="xMidYMid meet">
<metadata>
  <rdf:RDF
    xmlns:rdf = "http://www.w3.org/1999/02/22-rdf-syntax-ns#"
    xmlns:rdfs = "http://www.w3.org/2000/01/rdf-schema#"
    xmlns:dc = "http://purl.org/dc/elements/1.1/"
    xmlns:cc = "http://creativecommons.org/ns#">
    <cc:license rdf:resource="http://creativecommons.org/publicdomain/zero/1.0/deed.en"/>
    <cc:permits rdf:resource="http://creativecommons.org/ns#Reproduction"/>
    <rdf:Description about="https://nft.mir.one/fingerprints"
      dc:title="TON Fingerprints"
      dc:description="This is a unique digital fingerprint created based on the algorithm for generating basic rings using a noise texture. Like human fingerprints, you can now use it for the Web3 and Metaverse era as digital biometric information."
      dc:publisher="https://nft.mir.one"
      dc:date="2022-02-22"
      dc:format="image/svg+xml"
      dc:language="en" >
      <dc:creator>
      <rdf:Bag>
        <rdf:li>EQBondcvD2_aOFADXSWJHs4ZazQDuEl9_wNvGGPxI8hGuOFU</rdf:li>
        <rdf:li>ipfs://bafkreihj7iub3fhmhq6jn62noukt5wxn3gv6bvcg7wmt6ywvlurefezckq</rdf:li>
      </rdf:Bag>
      </dc:creator>
    </rdf:Description>
  </rdf:RDF>
</metadata>
<g transform="translate(0.000000,1000.000000) scale(0.100000,-0.100000)"
fill="#1b1f23" stroke="none">
<path d="M4885 7801 c-22 -4 48 -5 155 -3 107 2 200 5 205 7 19 6 -320 2 -360
-4z"/>
<path d="M4640 7750 c-14 -4 -78 -20 -143 -35 -65 -15 -117 -29 -115 -31 5 -5
202 33 245 47 18 6 35 15 38 20 4 5 5 9 3 8 -2 0 -14 -4 -28 -9z"/>
<path d="M4905 7620 c-131 -8 -137 -9 -337 -66 -180 -51 -264 -81 -543 -191
-168 -67 -347 -149 -280 -128 11 4 57 9 101 12 63 5 93 2 130 -12 49 -17 49
-17 272 59 427 145 612 180 952 180 327 1 476 -25 644 -110 107 -55 238 -100
343 -118 43 -7 79 -13 81 -11 6 5 -412 232 -482 261 -173 70 -345 108 -564
124 -139 10 -155 10 -317 0z"/>
<path d="M5000 7328 c-267 -25 -640 -133 -797 -231 -82 -51 -400 -317 -494
-414 -47 -48 -117 -131 -156 -183 -102 -139 -309 -451 -343 -519 -36 -69 -40
-127 -10 -136 43 -14 91 37 258 272 233 328 355 466 550 621 254 202 422 288
697 358 200 50 328 64 656 74 163 5 314 12 335 15 115 21 111 89 -8 120 -124
33 -467 44 -688 23z"/>
<path d="M3881 7138 c-82 -42 -250 -177 -340 -274 -54 -58 -87 -105 -127 -183
-29 -59 -81 -153 -115 -211 -34 -58 -91 -168 -126 -245 -35 -77 -71 -147 -80
-157 -19 -22 -11 -23 25 -4 18 9 54 60 105 146 146 244 328 513 391 576 34 33
108 96 166 139 182 137 220 175 220 223 0 32 -44 29 -119 -10z"/>
<path d="M5753 7085 c-129 -42 -202 -52 -443 -60 -232 -7 -381 -25 -550 -66
-306 -73 -582 -229 -837 -473 -118 -112 -222 -238 -389 -471 -71 -99 -162
-217 -201 -263 -96 -111 -115 -160 -121 -318 -3 -99 -1 -135 16 -200 38 -152
117 -350 214 -543 54 -107 98 -202 98 -212 0 -30 -22 -69 -39 -69 -30 0 -60
30 -121 122 -74 111 -111 182 -180 353 -67 166 -93 217 -134 263 -18 20 -39
48 -46 62 -19 35 -31 153 -38 370 -7 185 -7 185 -24 -5 -10 -104 -20 -235 -24
-290 -3 -55 -12 -117 -19 -139 -9 -25 -10 -35 -2 -27 17 17 39 13 70 -13 25
-20 31 -38 53 -147 49 -250 96 -366 206 -513 53 -70 207 -219 322 -311 119
-94 241 -147 261 -114 16 25 -13 70 -119 179 -120 123 -145 165 -127 214 6 14
13 26 16 26 20 0 69 -42 226 -193 196 -187 197 -188 461 -346 215 -128 243
-155 202 -195 -21 -21 -151 -22 -200 -1 -20 8 -59 33 -87 56 -29 23 -108 69
-176 102 -123 61 -125 61 -233 68 -104 6 -113 8 -201 52 -220 110 -455 336
-554 532 -14 28 -31 57 -39 66 -8 8 -27 40 -44 70 -16 30 -30 51 -30 47 0 -20
75 -258 108 -339 90 -226 178 -334 352 -437 138 -82 261 -129 510 -196 288
-77 295 -80 246 -123 -24 -20 -37 -23 -114 -23 -196 0 -534 119 -799 281 -37
23 -85 48 -107 55 -21 8 -46 20 -55 27 -8 6 27 -38 77 -100 177 -214 260 -271
529 -359 181 -60 290 -78 423 -71 178 10 334 58 486 149 56 33 127 63 225 94
169 54 253 89 358 151 286 168 651 534 781 784 76 147 104 311 94 556 -6 128
-4 157 10 192 25 65 21 173 -13 309 -16 64 -35 146 -41 182 -29 164 -149 296
-365 400 -285 139 -599 155 -905 48 -423 -149 -746 -519 -789 -903 -31 -267
90 -601 277 -763 36 -31 95 -85 132 -119 69 -65 145 -107 217 -118 52 -8 187
16 293 54 160 56 257 138 323 272 67 137 74 259 20 347 -41 67 -92 94 -167 89
-53 -3 -62 -7 -92 -40 -24 -26 -34 -46 -34 -70 0 -82 87 -109 102 -32 5 31 42
30 67 -1 56 -71 -7 -204 -119 -252 -19 -8 -69 -18 -110 -22 -41 -4 -95 -15
-120 -25 -64 -24 -105 -13 -157 41 -85 88 -113 273 -61 402 72 176 204 313
359 374 83 32 237 37 326 10 169 -52 309 -191 381 -380 23 -59 26 -82 27 -192
0 -97 -4 -137 -19 -180 -44 -129 -113 -233 -178 -270 -70 -40 -88 -8 -37 66
40 58 87 160 105 226 21 78 18 213 -6 290 -40 130 -129 233 -250 292 -61 29
-72 31 -175 31 -104 0 -114 -2 -176 -32 -84 -42 -169 -129 -212 -220 -29 -62
-32 -77 -32 -164 0 -89 2 -99 30 -144 33 -53 91 -92 120 -82 16 7 17 15 9 95
-17 178 -5 238 64 314 102 113 273 118 391 12 76 -68 105 -136 109 -255 4 -93
3 -102 -41 -230 -25 -74 -48 -150 -52 -169 -11 -55 -35 -88 -100 -137 -77 -58
-146 -93 -273 -137 -125 -43 -158 -60 -173 -87 -15 -28 14 -69 62 -87 76 -27
250 12 391 90 113 62 309 201 374 265 182 180 264 453 205 685 -52 203 -217
421 -386 510 -107 56 -174 72 -295 72 -122 0 -214 -23 -320 -81 -90 -50 -222
-185 -291 -298 -35 -57 -69 -100 -96 -120 -29 -21 -44 -40 -49 -63 -10 -51 5
-173 37 -290 33 -121 35 -154 14 -172 -23 -19 -42 -6 -85 61 -49 76 -94 190
-132 339 -25 94 -30 136 -31 230 -1 104 2 124 30 202 107 304 412 559 758 634
105 22 313 23 412 1 235 -53 416 -175 521 -352 60 -102 152 -354 152 -417 0
-29 -28 -33 -56 -7 -13 12 -50 72 -81 133 -133 263 -266 394 -471 467 -261 92
-564 50 -804 -112 -136 -92 -261 -245 -315 -386 -32 -85 -37 -195 -10 -236 29
-44 49 -35 76 36 99 261 208 390 420 496 141 72 354 96 501 58 152 -40 300
-138 403 -269 65 -83 173 -262 204 -339 67 -166 51 -391 -42 -587 -56 -118
-118 -202 -232 -314 -308 -303 -632 -455 -840 -393 -29 9 -105 51 -170 94
-124 83 -309 180 -430 225 -101 38 -179 92 -288 197 -153 148 -230 263 -305
456 -66 167 -94 298 -94 438 0 143 15 209 82 344 52 108 217 360 309 472 389
476 905 711 1508 686 185 -8 229 -18 360 -87 61 -32 177 -84 259 -115 377
-142 543 -221 736 -350 137 -91 207 -135 216 -135 14 0 -186 242 -270 325 -83
82 -118 109 -191 147 -174 89 -338 149 -560 204 -77 19 -147 41 -155 50 -13
14 -12 18 12 39 90 78 411 14 724 -146 93 -47 204 -93 204 -84 0 13 -255 233
-328 283 -231 158 -375 186 -589 117z"/>
<path d="M5065 6680 c-347 -29 -652 -159 -924 -393 -220 -189 -420 -474 -502
-717 -28 -83 -33 -112 -37 -230 -3 -103 0 -155 13 -220 21 -102 65 -231 110
-320 133 -262 406 -496 449 -385 8 23 -19 71 -74 129 -139 149 -237 320 -287
501 -24 87 -27 118 -27 240 0 115 4 155 22 225 53 195 174 392 347 565 172
173 357 286 580 358 155 49 238 62 415 62 228 0 395 -41 615 -151 170 -85 260
-154 321 -246 28 -43 94 -122 145 -176 74 -77 110 -126 166 -224 40 -70 98
-161 128 -203 58 -82 82 -143 135 -355 52 -206 63 -296 63 -525 0 -321 -39
-634 -97 -788 -95 -254 -301 -492 -511 -593 -38 -19 -76 -34 -84 -34 -8 0
-103 -42 -210 -94 -288 -138 -472 -203 -666 -232 -140 -22 -316 -14 -460 20
-116 28 -199 39 -227 30 -52 -16 15 -115 105 -158 180 -85 529 -109 752 -51
167 44 675 277 870 400 236 149 408 354 527 629 155 357 206 962 109 1296 -10
36 -37 111 -60 168 -42 103 -51 167 -23 167 18 0 137 -149 167 -210 66 -132
99 -365 100 -695 0 -223 0 -224 12 -130 33 257 26 651 -14 835 -9 39 -19 116
-23 172 -7 95 -10 108 -58 205 -61 126 -116 200 -233 318 -83 83 -88 90 -69
100 49 26 151 -36 258 -157 34 -38 79 -84 101 -101 39 -32 39 -32 -21 76 -125
221 -197 299 -383 410 -139 82 -186 104 -349 162 -65 23 -195 75 -290 117
-360 158 -448 186 -637 203 -63 5 -123 9 -134 8 -11 0 -60 -4 -110 -8z m1290
-532 c52 -27 161 -107 203 -151 30 -31 34 -42 35 -94 2 -48 8 -68 37 -113 44
-69 170 -233 220 -285 74 -78 110 -152 81 -169 -5 -3 -29 10 -54 29 -26 20
-66 44 -90 54 -37 16 -57 37 -124 133 -44 62 -97 142 -118 178 -106 178 -130
211 -224 305 -56 55 -101 104 -101 110 0 40 59 41 135 3z"/>
<path d="M6107 5853 c-15 -14 -5 -83 25 -173 32 -95 32 -95 35 -350 6 -432
-17 -616 -93 -760 -47 -90 -312 -409 -474 -570 -149 -148 -377 -337 -486 -401
-44 -26 -128 -68 -189 -94 -60 -26 -189 -85 -285 -131 -98 -47 -211 -93 -255
-104 -108 -28 -279 -28 -438 -1 -140 25 -365 96 -497 158 -52 25 -125 55 -162
68 -68 22 -68 22 23 -63 255 -240 294 -259 808 -397 243 -65 304 -75 317 -54
13 21 98 69 160 89 54 18 64 25 69 51 8 37 55 84 114 113 25 13 116 49 201 81
252 93 298 122 360 225 14 23 99 112 189 198 116 111 216 220 343 374 98 119
191 226 207 237 38 27 81 28 81 2 0 -11 -46 -79 -102 -153 -57 -73 -143 -187
-193 -253 -113 -151 -190 -233 -333 -352 -62 -53 -118 -106 -124 -119 -15 -32
5 -54 46 -54 122 1 368 220 501 446 39 65 107 166 153 223 112 140 122 162
122 258 0 50 8 101 21 143 55 175 72 362 58 639 -6 123 -6 214 1 258 20 139
11 190 -56 329 -53 108 -117 168 -147 137z"/>
<path d="M6405 5416 c-16 -24 -15 -36 5 -193 40 -316 38 -525 -10 -833 -25
-158 -41 -200 -83 -225 -49 -28 -164 -143 -212 -210 -46 -66 -65 -112 -65
-159 0 -35 -44 -96 -179 -245 -138 -152 -247 -220 -431 -266 -58 -14 -166 -44
-241 -65 -74 -22 -203 -55 -285 -74 -154 -36 -224 -59 -224 -76 0 -16 42 -49
74 -59 90 -27 260 -20 446 21 133 28 341 98 452 151 143 69 197 113 264 214
39 59 109 138 209 238 119 119 158 163 183 214 34 69 40 112 18 130 -11 10
-20 5 -42 -26 -110 -150 -133 -173 -174 -173 -33 0 -24 21 51 114 52 64 83 93
114 107 35 15 46 28 64 69 15 34 27 50 40 50 31 0 44 -50 39 -149 -4 -81 -8
-98 -47 -175 -37 -76 -61 -106 -201 -251 -149 -154 -182 -198 -165 -224 13
-22 64 -10 122 28 72 49 245 225 297 304 21 32 50 86 66 121 57 125 62 163
101 761 15 247 -6 484 -67 724 -25 101 -47 146 -81 168 -20 13 -23 12 -38 -11z"/>
<path d="M7002 4205 c0 -16 2 -22 5 -12 2 9 2 23 0 30 -3 6 -5 -1 -5 -18z"/>
<path d="M6740 3473 c-51 -72 -304 -326 -395 -398 -165 -129 -348 -233 -602
-344 -98 -42 -208 -97 -245 -123 -98 -67 -134 -73 -403 -72 -187 1 -251 5
-345 22 -214 39 -351 97 -503 213 -51 38 -123 85 -162 103 -112 53 -637 222
-608 196 4 -4 62 -43 128 -87 136 -91 213 -136 372 -218 126 -65 164 -96 146
-123 -9 -14 -26 -17 -103 -16 -50 1 -106 4 -123 8 -32 5 -32 5 -7 -8 47 -25
175 -65 245 -76 39 -6 131 -31 205 -55 330 -107 417 -119 870 -121 382 -2 484
4 578 36 57 20 57 20 10 15 -57 -5 -185 9 -221 26 -32 14 -42 38 -25 55 7 7
67 32 133 54 387 133 741 426 1025 850 66 99 73 110 67 110 -2 0 -19 -21 -37
-47z"/>
<path d="M4848 2183 c6 -2 18 -2 25 0 6 3 1 5 -13 5 -14 0 -19 -2 -12 -5z"/>
<path d="M5073 2173 c15 -2 37 -2 50 0 12 2 0 4 -28 4 -27 0 -38 -2 -22 -4z"/>
</g>
</svg>
