<?xml version="1.0" standalone="no"?>
<!DOCTYPE svg PUBLIC "-//W3C//DTD SVG 20010904//EN"
 "http://www.w3.org/TR/2001/REC-SVG-20010904/DTD/svg10.dtd">
<svg version="1.0" xmlns="http://www.w3.org/2000/svg"
 width="1000.000000pt" height="1000.000000pt" viewBox="0 0 1000.000000 1000.000000"
 preserveAspectRatio="xMidYMid meet">
<metadata>
  <rdf:RDF
    xmlns:rdf = "http://www.w3.org/1999/02/22-rdf-syntax-ns#"
    xmlns:rdfs = "http://www.w3.org/2000/01/rdf-schema#"
    xmlns:dc = "http://purl.org/dc/elements/1.1/"
    xmlns:cc = "http://creativecommons.org/ns#">
    <cc:license rdf:resource="http://creativecommons.org/publicdomain/zero/1.0/deed.en"/>
    <cc:permits rdf:resource="http://creativecommons.org/ns#Reproduction"/>
    <rdf:Description about="https://nft.mir.one/fingerprints"
      dc:title="TON Fingerprints"
      dc:description="This is a unique digital fingerprint created based on the algorithm for generating basic rings using a noise texture. Like human fingerprints, you can now use it for the Web3 and Metaverse era as digital biometric information."
      dc:publisher="https://nft.mir.one"
      dc:date="2022-02-22"
      dc:format="image/svg+xml"
      dc:language="en" >
      <dc:creator>
      <rdf:Bag>
        <rdf:li>EQBondcvD2_aOFADXSWJHs4ZazQDuEl9_wNvGGPxI8hGuOFU</rdf:li>
        <rdf:li>ipfs://bafkreihj7iub3fhmhq6jn62noukt5wxn3gv6bvcg7wmt6ywvlurefezckq</rdf:li>
      </rdf:Bag>
      </dc:creator>
    </rdf:Description>
  </rdf:RDF>
</metadata>
<g transform="translate(0.000000,1000.000000) scale(0.100000,-0.100000)"
fill="#1b1f23" stroke="none">
<path d="M5185 7759 c50 -28 204 -107 344 -175 274 -134 356 -180 556 -315 72
-47 153 -98 180 -112 28 -14 82 -46 120 -71 82 -54 73 -45 -128 125 -270 228
-401 308 -722 441 -117 48 -418 158 -433 158 -4 0 34 -23 83 -51z"/>
<path d="M4706 7733 c81 -75 206 -156 368 -237 267 -135 471 -282 682 -491
125 -123 164 -180 164 -237 0 -93 56 -211 223 -467 125 -193 154 -248 296
-555 125 -270 220 -444 376 -686 62 -96 136 -220 164 -275 60 -115 105 -189
97 -160 -3 11 -17 83 -31 160 -52 285 -107 447 -220 645 -172 302 -216 396
-262 554 -51 179 -126 296 -412 640 -83 99 -130 164 -127 173 3 8 6 17 6 19 0
2 17 4 38 4 84 0 228 -123 487 -415 138 -155 201 -211 270 -240 22 -9 53 -23
69 -31 29 -15 29 -15 1 22 -16 21 -79 113 -140 205 -62 92 -149 215 -194 272
-94 121 -261 285 -341 338 -263 173 -329 217 -425 284 -128 89 -339 217 -451
273 -117 58 -196 88 -429 162 -115 37 -219 71 -230 75 -12 4 -4 -9 21 -32z"/>
<path d="M4425 7645 c41 -35 218 -120 274 -131 29 -6 61 7 61 26 0 20 -58 61
-113 79 -53 18 -239 62 -256 61 -3 -1 12 -16 34 -35z"/>
<path d="M4132 7507 c50 -36 193 -101 428 -194 185 -73 201 -82 250 -148 76
-101 277 -224 340 -208 58 15 -2 86 -161 192 -63 42 -114 83 -114 90 0 27 31
36 82 23 117 -31 248 -140 278 -232 15 -46 38 -75 145 -187 164 -169 220 -272
174 -317 -21 -22 -36 -13 -169 102 -129 111 -193 156 -295 207 -96 48 -188
107 -313 202 -123 93 -232 152 -444 237 -162 66 -162 66 -260 65 -54 0 -137
-8 -185 -17 -87 -17 -87 -17 -45 -40 23 -12 89 -35 147 -51 408 -115 661 -248
975 -513 198 -167 366 -277 503 -328 97 -37 159 -90 257 -214 176 -227 303
-463 390 -729 56 -172 61 -184 151 -318 63 -95 100 -161 113 -204 40 -129 72
-550 52 -688 -6 -43 -31 -139 -56 -214 -56 -167 -74 -258 -120 -588 -34 -243
-72 -450 -115 -625 -17 -70 -33 -190 -25 -190 9 0 157 266 193 346 83 185 100
256 133 538 45 398 66 487 116 494 18 3 24 -4 34 -40 13 -50 7 -269 -16 -503
-16 -162 -18 -246 -8 -283 13 -49 130 378 158 578 21 143 15 190 -35 309 -22
51 -36 113 -54 242 -14 96 -37 241 -51 323 -27 156 -25 210 5 226 59 31 129
-178 257 -765 66 -307 57 -293 71 -110 15 197 15 355 2 483 -23 206 -80 331
-220 477 -99 103 -130 150 -261 400 -32 61 -99 200 -149 310 -113 248 -163
342 -305 570 -126 202 -154 255 -215 405 -72 175 -109 228 -290 413 -183 188
-254 246 -381 312 -132 68 -238 95 -367 93 -99 -2 -114 1 -212 34 -107 37
-200 54 -348 62 -82 4 -82 4 -40 -27z"/>
<path d="M3786 7094 c-38 -8 -98 -26 -133 -40 -36 -13 -74 -24 -84 -24 -29 0
-23 -13 19 -36 62 -36 212 -65 376 -73 130 -7 164 -13 245 -40 117 -39 295
-130 448 -228 219 -139 223 -141 223 -79 0 63 -78 143 -240 249 -188 122 -406
213 -630 262 -129 28 -131 29 -224 9z"/>
<path d="M3973 6810 c-33 -13 -30 -54 5 -78 15 -10 63 -34 107 -52 117 -48
246 -114 339 -174 136 -88 221 -135 303 -167 117 -47 177 -79 303 -164 331
-223 485 -380 660 -671 86 -144 122 -184 166 -184 127 0 56 266 -148 555 -79
111 -219 259 -306 323 -102 75 -373 249 -414 266 -36 15 -38 15 -69 -11 -30
-26 -32 -26 -45 -8 -8 10 -14 25 -14 32 0 9 -15 13 -45 13 -63 0 -139 31 -305
125 -266 151 -468 224 -537 195z"/>
<path d="M3525 6784 c-38 -7 -88 -16 -111 -20 -41 -6 -41 -6 -22 -42 23 -45
23 -71 1 -79 -10 -4 -26 -17 -36 -29 -9 -12 -39 -33 -66 -47 -50 -24 -50 -24
0 -30 38 -5 64 -1 105 14 64 24 91 21 191 -20 92 -38 140 -69 226 -148 85 -79
152 -123 261 -173 89 -41 156 -60 211 -60 89 0 185 -80 244 -204 24 -50 64
-109 103 -153 66 -74 76 -91 127 -228 20 -51 71 -142 141 -250 170 -261 235
-411 279 -637 86 -445 36 -819 -156 -1178 -25 -47 -89 -149 -142 -228 -256
-380 -294 -452 -241 -452 38 0 76 28 164 120 297 313 523 715 582 1040 21 114
24 439 5 595 -47 397 -135 614 -372 922 -105 137 -120 162 -108 185 7 13 21
18 49 18 111 0 321 -231 450 -495 97 -197 131 -408 147 -920 6 -205 -2 -314
-33 -431 -65 -250 -305 -640 -554 -898 -109 -114 -182 -171 -300 -236 -52 -29
-138 -82 -190 -118 -52 -36 -115 -80 -140 -97 -42 -27 -161 -128 -134 -112 6
4 53 14 105 23 166 28 238 59 408 174 345 232 531 416 729 720 52 80 130 198
173 262 84 126 116 208 139 351 14 82 10 140 -16 297 -12 70 -18 203 -23 505
-7 474 9 401 -143 639 -112 174 -162 240 -253 334 -95 100 -166 155 -325 252
-171 105 -392 260 -524 367 -204 167 -316 235 -475 288 -43 14 -117 50 -164
80 -88 56 -172 97 -217 107 -14 3 -56 0 -95 -8z m472 -300 c74 -25 223 -113
270 -161 42 -41 54 -75 33 -88 -6 -4 -57 18 -114 48 -207 110 -290 173 -265
203 14 18 18 17 76 -2z"/>
<path d="M3298 6332 c-40 -21 -95 -55 -121 -75 -27 -20 -56 -37 -65 -37 -9 0
1 -9 23 -18 22 -10 97 -26 167 -36 154 -21 266 -50 429 -111 613 -230 644
-239 683 -196 16 17 16 22 3 48 -29 54 -83 86 -268 154 -143 52 -225 90 -364
166 -138 75 -226 110 -322 129 -41 8 -79 14 -83 14 -5 0 -42 -17 -82 -38z"/>
<path d="M6710 6030 c-13 -23 0 -81 32 -145 51 -103 254 -436 296 -485 25 -30
42 -46 38 -35 -4 11 -35 97 -68 190 -65 185 -168 411 -212 463 -32 37 -70 42
-86 12z"/>
<path d="M3212 5989 c-13 -5 -57 -32 -98 -60 -49 -34 -79 -49 -91 -45 -16 6
-16 6 0 -12 9 -10 17 -22 17 -27 0 -4 7 -13 16 -20 15 -11 15 -15 -3 -56 -11
-24 -36 -65 -55 -90 -35 -45 -35 -45 6 -39 23 4 70 23 106 43 36 19 85 41 110
47 63 17 241 14 357 -5 193 -33 544 -132 684 -193 66 -29 75 -67 23 -91 -43
-19 -116 -12 -301 29 -379 84 -630 100 -796 52 -84 -24 -114 -52 -206 -188
-68 -100 -68 -100 -22 -93 25 4 91 19 146 34 84 23 120 28 230 28 72 0 159 -5
195 -13 38 -8 137 -14 240 -14 165 -2 180 -3 258 -30 106 -37 199 -92 237
-143 39 -50 188 -441 220 -577 13 -55 29 -152 35 -214 7 -62 20 -143 31 -180
24 -86 24 -169 -1 -267 -51 -199 -198 -417 -400 -593 -110 -96 -193 -146 -285
-173 -106 -30 -226 -79 -268 -110 -37 -27 -37 -27 35 -40 40 -7 105 -13 143
-13 64 0 78 4 175 52 114 57 206 122 353 250 292 255 427 533 427 879 0 294
-51 520 -179 791 -64 134 -72 165 -45 180 29 16 68 -1 119 -52 179 -180 290
-642 245 -1016 -29 -235 -132 -479 -278 -662 -46 -58 -238 -220 -431 -365 -53
-40 -154 -103 -226 -139 -71 -37 -143 -78 -158 -91 -29 -23 -29 -23 90 -23 65
0 136 5 158 11 60 17 197 115 325 234 118 110 161 140 186 131 25 -9 15 -32
-48 -118 -104 -140 -208 -233 -382 -341 -45 -27 -96 -63 -114 -79 -30 -26 -31
-28 -10 -24 13 3 60 7 105 11 119 8 188 33 275 98 86 65 178 159 178 182 0 9
18 57 39 108 21 51 42 111 46 134 5 30 39 90 118 210 214 322 290 520 318 832
24 261 -31 588 -137 808 -69 145 -149 250 -323 423 -112 111 -175 182 -193
217 -49 94 -130 138 -448 245 -231 77 -399 123 -540 147 -167 28 -183 30 -208
20z"/>
<path d="M3748 5139 c-37 -21 -22 -70 52 -183 85 -129 111 -181 139 -270 25
-80 21 -91 -50 -148 -108 -87 -118 -99 -185 -231 -37 -73 -84 -158 -106 -189
-81 -120 -198 -214 -348 -279 -47 -21 -97 -43 -111 -51 -27 -14 -26 -14 37
-32 99 -29 148 -25 229 16 220 112 352 286 455 600 24 76 35 88 58 64 23 -23
19 -134 -8 -221 -60 -194 -223 -421 -347 -483 -21 -11 -96 -43 -168 -73 -71
-29 -143 -62 -158 -73 -29 -21 -29 -21 5 -28 69 -16 162 -11 204 10 56 29 104
33 104 8 0 -19 -67 -78 -126 -111 -27 -16 -68 -41 -92 -56 -43 -27 -43 -27 23
-34 138 -15 182 8 272 145 31 47 86 121 123 165 101 121 156 200 209 305 104
202 122 347 62 494 -37 93 -35 111 11 102 82 -16 139 -125 140 -262 0 -110
-28 -210 -101 -359 -69 -141 -115 -208 -303 -442 -133 -166 -199 -231 -277
-274 -20 -11 -51 -30 -68 -43 -33 -24 -33 -24 60 -32 103 -8 143 -7 170 8 10
5 43 44 74 86 31 42 110 139 176 216 178 207 252 327 375 606 66 150 76 193
69 291 -11 139 -104 373 -210 529 -54 79 -143 157 -229 200 -80 40 -127 49
-160 29z"/>
<path d="M3125 5093 c-61 -13 -95 -54 -171 -204 -47 -92 -48 -95 -24 -88 134
42 168 49 225 49 133 0 246 -78 289 -200 54 -152 -10 -376 -144 -502 -44 -41
-83 -64 -221 -127 -36 -17 -36 -17 18 -39 91 -37 133 -39 191 -7 147 80 257
228 345 465 70 189 70 270 0 410 -64 127 -165 212 -285 240 -43 9 -184 12
-223 3z"/>
<path d="M5920 5012 c-40 -40 -49 -84 -62 -279 -12 -191 0 -478 22 -525 23
-48 60 -46 86 3 27 54 36 133 45 424 5 160 11 306 15 327 5 29 2 40 -15 57
-29 29 -57 26 -91 -7z"/>
<path d="M6124 4962 c-13 -12 -15 -28 -11 -71 25 -256 29 -358 18 -466 -14
-139 -38 -219 -91 -308 -52 -85 -61 -112 -101 -289 -31 -135 -33 -154 -34
-348 -1 -197 -2 -208 -29 -290 -15 -47 -49 -125 -74 -175 -40 -77 -65 -109
-177 -223 -117 -119 -133 -132 -164 -132 -50 0 -103 -29 -216 -120 -55 -44
-154 -113 -219 -153 -127 -76 -282 -207 -201 -169 78 37 251 102 299 112 93
20 185 86 285 205 35 42 69 74 75 72 17 -6 19 -61 3 -100 -8 -19 -36 -66 -61
-104 -25 -38 -57 -96 -71 -128 -26 -57 -26 -57 64 26 106 100 168 174 246 292
61 94 86 117 124 117 22 0 23 -3 17 -41 -4 -22 -24 -76 -47 -120 -40 -80 -94
-219 -79 -203 64 69 169 202 195 249 36 64 151 426 185 580 10 50 26 147 35
215 41 333 57 418 125 645 64 214 75 282 74 460 -1 165 -16 282 -46 363 -34
92 -90 139 -124 104z"/>
<path d="M3071 4621 c-51 -71 -74 -164 -55 -215 8 -20 34 -21 34 -2 0 13 20
26 40 26 19 0 40 -34 40 -64 0 -45 -29 -79 -91 -105 -52 -23 -52 -23 1 -48 28
-13 71 -25 95 -26 38 -2 49 3 80 33 126 123 121 333 -10 407 -58 33 -108 31
-134 -6z"/>
<path d="M4409 4091 c-14 -11 -51 -77 -88 -159 -104 -234 -184 -351 -372 -546
-142 -148 -158 -171 -137 -193 32 -31 139 30 269 154 219 209 369 467 386 663
5 56 3 67 -14 83 -19 17 -21 16 -44 -2z"/>
<path d="M5744 3490 c-30 -12 -65 -56 -140 -182 -207 -348 -372 -501 -991
-922 -39 -27 -86 -63 -103 -81 -32 -33 -32 -33 77 0 250 76 316 112 598 324
77 58 172 130 212 159 122 89 246 239 322 389 43 85 81 204 81 251 0 47 -24
74 -56 62z"/>
<path d="M5105 2212 c-38 -47 -38 -47 6 -5 23 23 41 45 38 47 -3 3 -22 -16
-44 -42z"/>
</g>
</svg>
