<?xml version="1.0" standalone="no"?>
<!DOCTYPE svg PUBLIC "-//W3C//DTD SVG 20010904//EN"
 "http://www.w3.org/TR/2001/REC-SVG-20010904/DTD/svg10.dtd">
<svg version="1.0" xmlns="http://www.w3.org/2000/svg"
 width="1000.000000pt" height="1000.000000pt" viewBox="0 0 1000.000000 1000.000000"
 preserveAspectRatio="xMidYMid meet">
<metadata>
  <rdf:RDF
    xmlns:rdf = "http://www.w3.org/1999/02/22-rdf-syntax-ns#"
    xmlns:rdfs = "http://www.w3.org/2000/01/rdf-schema#"
    xmlns:dc = "http://purl.org/dc/elements/1.1/"
    xmlns:cc = "http://creativecommons.org/ns#">
    <cc:license rdf:resource="http://creativecommons.org/publicdomain/zero/1.0/deed.en"/>
    <cc:permits rdf:resource="http://creativecommons.org/ns#Reproduction"/>
    <rdf:Description about="https://nft.mir.one/fingerprints"
      dc:title="TON Fingerprints"
      dc:description="This is a unique digital fingerprint created based on the algorithm for generating basic rings using a noise texture. Like human fingerprints, you can now use it for the Web3 and Metaverse era as digital biometric information."
      dc:publisher="https://nft.mir.one"
      dc:date="2022-02-22"
      dc:format="image/svg+xml"
      dc:language="en" >
      <dc:creator>
      <rdf:Bag>
        <rdf:li>EQBondcvD2_aOFADXSWJHs4ZazQDuEl9_wNvGGPxI8hGuOFU</rdf:li>
        <rdf:li>ipfs://bafkreihj7iub3fhmhq6jn62noukt5wxn3gv6bvcg7wmt6ywvlurefezckq</rdf:li>
      </rdf:Bag>
      </dc:creator>
    </rdf:Description>
  </rdf:RDF>
</metadata>
<g transform="translate(0.000000,1000.000000) scale(0.100000,-0.100000)"
fill="#1b1f23" stroke="none">
<path d="M4785 7700 c-33 -6 -67 -13 -75 -16 -8 -3 -71 -10 -140 -14 -152 -10
-223 -32 -437 -135 -150 -72 -200 -103 -105 -66 26 11 71 29 101 41 30 11 113
39 185 61 149 45 229 51 245 20 18 -32 -21 -66 -142 -123 -198 -93 -319 -158
-428 -229 -68 -45 -116 -69 -135 -69 -52 -1 -111 -37 -200 -122 -164 -156
-313 -366 -436 -610 -56 -113 -149 -340 -147 -363 0 -5 17 33 38 85 44 110
114 251 172 347 143 234 422 538 557 607 29 15 33 15 38 1 15 -37 -2 -61 -190
-272 -232 -260 -439 -692 -521 -1085 -32 -153 -44 -410 -26 -567 16 -132 46
-250 71 -275 18 -19 20 -19 39 -2 33 30 41 95 41 323 1 427 29 553 229 1027
143 340 166 376 387 631 178 206 226 245 413 339 121 61 304 136 331 136 12 0
45 -6 73 -14 32 -9 129 -17 252 -20 197 -6 365 -21 560 -50 55 -8 161 -20 235
-26 159 -13 253 -35 387 -91 78 -32 205 -70 233 -69 17 1 -331 219 -407 256
-91 44 -93 44 -170 38 -62 -4 -114 1 -258 26 -361 63 -595 77 -740 44 -106
-25 -119 -24 -123 8 -4 37 47 92 106 113 80 29 253 31 427 6 230 -33 499 -97
573 -135 40 -20 42 -20 42 4 0 60 -298 170 -610 225 -113 20 -361 28 -445 15z"/>
<path d="M4636 7194 c-242 -44 -491 -198 -703 -435 -145 -162 -197 -260 -232
-439 -18 -89 -33 -130 -100 -265 -142 -287 -159 -359 -171 -715 -9 -275 -22
-376 -58 -446 -30 -59 -55 -77 -116 -82 -50 -4 -56 -2 -94 32 -53 48 -107 154
-132 257 -10 46 -27 158 -36 249 -17 176 -14 288 12 439 8 46 13 86 10 88 -4
4 -29 -128 -46 -242 -18 -125 -23 -373 -11 -502 19 -198 63 -326 146 -428 26
-31 54 -82 70 -126 40 -114 90 -208 188 -357 235 -359 398 -504 697 -622 129
-51 170 -76 170 -101 0 -41 -105 -51 -233 -23 -91 20 -252 97 -337 162 -101
76 -217 208 -300 339 -41 65 -99 156 -129 203 -62 94 -207 280 -231 294 -8 5
-27 23 -42 39 -28 29 -28 29 -10 -20 9 -26 41 -93 69 -148 98 -187 190 -380
228 -475 59 -152 94 -209 180 -296 122 -124 273 -218 425 -265 57 -18 98 -24
170 -23 84 0 107 5 200 38 144 52 204 66 280 66 85 0 133 -14 176 -52 36 -32
36 -32 145 0 145 42 257 86 294 116 23 19 29 31 28 61 -1 24 -9 45 -22 59 -25
24 -77 26 -264 8 -116 -11 -252 -3 -382 23 -70 14 -345 142 -480 223 -230 138
-439 368 -572 629 -47 94 -57 122 -58 165 0 52 1 53 30 56 40 4 65 -24 150
-163 100 -164 150 -230 253 -337 110 -114 222 -196 370 -271 209 -107 324
-138 522 -139 259 -1 437 52 600 177 220 170 440 551 481 834 45 314 -109 615
-387 754 -183 92 -405 100 -651 22 -183 -57 -269 -167 -292 -369 -12 -107 2
-263 33 -360 54 -170 165 -308 306 -378 52 -26 82 -49 97 -73 74 -113 250 -96
384 39 59 59 92 114 174 286 60 125 60 125 60 230 0 97 -2 110 -32 173 -105
221 -365 329 -591 245 -78 -29 -97 -42 -174 -116 -75 -74 -98 -77 -98 -14 0
47 41 116 97 160 81 63 207 102 338 102 169 0 299 -53 415 -170 122 -121 170
-236 170 -406 0 -117 -25 -217 -89 -349 -111 -234 -257 -383 -434 -445 -67
-24 -228 -38 -291 -26 -31 6 -40 14 -62 59 -18 36 -66 91 -154 177 -138 135
-157 164 -235 370 -57 150 -70 221 -69 365 1 150 28 270 87 396 72 154 119
192 251 203 43 4 140 19 215 33 176 34 338 35 454 5 379 -102 640 -468 613
-859 -12 -178 -67 -338 -199 -580 -41 -76 -95 -179 -121 -230 -51 -102 -100
-157 -225 -252 -126 -96 -145 -133 -95 -186 22 -24 31 -27 74 -23 73 7 184 66
372 196 196 134 262 200 374 367 209 314 305 585 290 820 -34 558 -484 1053
-1047 1151 -69 12 -131 15 -234 11 -178 -6 -235 -22 -271 -77 -14 -22 -51 -58
-81 -81 -67 -52 -93 -84 -93 -116 0 -30 11 -28 132 33 155 78 226 97 358 97
63 1 142 -5 175 -12 404 -84 737 -387 849 -772 84 -292 40 -572 -142 -894
-110 -196 -216 -325 -266 -325 -27 0 -28 2 -23 34 3 19 43 97 88 173 190 318
260 540 246 777 -14 237 -113 453 -286 626 -248 247 -574 334 -901 242 -140
-39 -169 -44 -205 -28 -26 11 -35 10 -71 -7 -72 -34 -93 -4 -54 73 30 59 74
105 150 155 86 57 97 70 79 91 -36 43 -191 -21 -301 -125 -72 -67 -224 -246
-248 -291 -8 -14 -14 -60 -15 -105 -1 -66 -10 -105 -48 -221 -95 -292 -87
-463 36 -731 74 -161 80 -193 34 -193 -74 0 -207 199 -256 382 -28 105 -34
181 -21 283 14 113 46 208 120 360 70 143 79 172 56 181 -65 25 -172 -87 -286
-299 -52 -96 -67 -146 -80 -261 -26 -229 63 -478 235 -652 78 -79 85 -83 290
-183 116 -57 246 -114 290 -128 123 -39 127 -40 123 -65 -9 -63 -149 -82 -288
-39 -86 26 -243 103 -341 166 -248 160 -460 492 -476 744 -6 95 10 268 34 375
13 58 19 71 45 85 56 30 85 60 149 153 35 51 82 113 104 137 48 52 359 313
465 390 82 59 209 122 280 139 87 21 401 44 505 37 346 -23 652 -159 908 -405
277 -265 431 -607 430 -955 0 -140 -17 -221 -72 -340 -52 -111 -190 -350 -272
-470 -116 -169 -301 -396 -364 -448 -96 -78 -233 -154 -403 -222 -343 -139
-521 -220 -677 -309 -179 -102 -300 -146 -405 -146 -86 0 -129 41 -77 74 12 8
74 32 137 54 198 68 300 133 300 193 0 35 -14 37 -128 13 -110 -22 -239 -67
-359 -124 -134 -65 -176 -74 -272 -59 -149 22 -293 90 -474 225 -48 35 -105
73 -129 85 -24 12 -52 29 -63 38 -19 15 -19 15 -4 -4 8 -11 67 -81 131 -155
268 -313 487 -477 683 -511 90 -15 332 -7 405 15 30 9 168 73 305 141 221 111
269 131 410 171 241 68 413 145 685 304 75 44 176 96 225 116 110 44 193 102
275 191 181 197 361 576 307 648 -29 38 -57 8 -145 -156 -46 -85 -113 -197
-148 -250 -119 -177 -290 -337 -325 -302 -20 20 -2 56 92 173 103 129 172 230
278 406 76 125 107 165 165 209 69 52 109 200 109 405 1 158 -18 256 -90 463
-81 237 -171 383 -352 570 -305 316 -669 486 -1098 513 -204 14 -486 -33 -661
-109 -140 -61 -462 -266 -575 -367 -112 -101 -214 -263 -257 -410 -25 -85 -30
-93 -52 -85 -59 23 -48 183 22 341 74 163 180 281 321 354 46 24 162 88 258
142 275 157 429 214 648 243 352 46 690 -14 1013 -181 192 -100 293 -177 485
-369 240 -239 282 -307 394 -640 33 -99 72 -214 87 -255 24 -67 27 -89 26
-205 0 -143 -10 -234 -48 -430 -82 -419 -296 -782 -574 -971 -144 -98 -377
-230 -655 -369 -274 -137 -280 -141 -300 -183 -12 -23 -42 -64 -68 -90 -50
-51 -58 -76 -29 -90 34 -19 89 3 371 143 328 163 430 219 591 323 379 245 518
433 686 922 37 107 77 225 90 261 28 80 50 249 65 509 8 145 16 209 30 250 18
50 44 219 35 227 -2 2 -9 -25 -16 -60 -14 -78 -48 -141 -77 -145 -31 -5 -38
15 -67 183 -29 164 -75 314 -132 427 -51 102 -77 134 -130 158 -32 14 -100 72
-223 193 -192 189 -253 233 -482 348 -156 78 -267 121 -394 152 -181 45 -240
52 -460 51 -237 0 -328 -14 -516 -80 -125 -43 -192 -77 -390 -194 -206 -121
-303 -157 -344 -126 -18 13 -19 17 -6 48 7 18 14 59 16 90 3 76 44 145 155
257 151 153 332 272 508 335 249 89 618 100 1027 31 320 -54 541 -151 663
-291 87 -100 112 -174 55 -159 -14 3 -73 39 -132 79 -194 135 -367 205 -616
251 -274 50 -574 54 -789 9 -232 -48 -453 -161 -655 -336 -146 -125 -207 -218
-146 -218 35 0 61 15 241 136 291 195 495 270 800 293 350 27 703 -45 1004
-204 58 -30 161 -83 229 -116 108 -53 134 -71 200 -137 42 -43 119 -133 171
-202 100 -131 142 -167 161 -140 35 52 -27 196 -185 432 -135 202 -226 376
-226 434 0 38 -5 47 -42 78 -85 73 -302 164 -478 200 -111 22 -398 63 -530 75
-166 16 -537 12 -634 -5z m511 -1966 c107 -40 198 -150 223 -270 14 -72 0
-138 -30 -138 -22 0 -38 27 -69 120 -42 127 -136 210 -236 210 -54 0 -124 -37
-152 -79 -48 -71 -14 -161 60 -161 49 0 71 28 63 79 -5 35 -3 41 15 46 27 9
67 -19 94 -66 27 -46 27 -139 1 -168 -44 -49 -217 -86 -290 -61 -105 34 -176
168 -147 277 12 43 103 139 174 182 89 54 198 65 294 29z m21 -550 c7 -7 12
-28 12 -48 0 -72 -85 -152 -197 -186 -55 -17 -83 -11 -83 17 0 35 17 54 92
107 40 27 89 66 107 86 37 39 50 43 69 24z"/>
<path d="M6365 6880 c-3 -6 30 -50 74 -100 135 -150 198 -243 295 -440 70
-140 102 -220 135 -330 23 -80 65 -197 92 -260 28 -63 61 -151 74 -195 29 -99
32 -79 5 35 -96 401 -273 862 -410 1065 -106 157 -238 269 -265 225z"/>
<path d="M3046 6004 c-4 -14 -5 -28 -3 -31 3 -2 8 8 11 23 4 14 5 28 3 31 -3
2 -8 -8 -11 -23z"/>
<path d="M3031 5944 c0 -11 3 -14 6 -6 3 7 2 16 -1 19 -3 4 -6 -2 -5 -13z"/>
<path d="M3021 5904 c0 -11 3 -14 6 -6 3 7 2 16 -1 19 -3 4 -6 -2 -5 -13z"/>
<path d="M7062 5435 c0 -16 2 -22 5 -12 2 9 2 23 0 30 -3 6 -5 -1 -5 -18z"/>
<path d="M3090 3879 c0 -4 7 -22 15 -40 8 -19 14 -27 14 -19 0 14 -28 72 -29
59z"/>
<path d="M6732 3479 c-43 -53 -211 -214 -297 -285 -230 -190 -687 -437 -1010
-546 -78 -27 -111 -32 -250 -39 -88 -5 -203 -11 -256 -15 -116 -8 -155 -2
-205 32 -35 24 -44 26 -102 20 -71 -8 -456 -101 -487 -118 -11 -7 -33 -19 -50
-27 -30 -15 -29 -15 93 -40 120 -23 125 -23 192 -7 84 20 146 20 325 1 323
-34 635 -6 886 81 376 129 749 389 1001 698 104 126 221 296 205 296 -2 0 -22
-23 -45 -51z"/>
<path d="M5130 2951 c-92 -30 -343 -155 -383 -191 -51 -44 -48 -74 7 -78 48
-4 172 23 249 54 59 23 243 162 254 190 14 38 -51 51 -127 25z"/>
<path d="M6010 2546 c-92 -49 -453 -160 -637 -196 -171 -33 -396 -45 -575 -32
-266 20 -372 33 -402 48 -38 18 -44 12 -12 -14 52 -41 314 -90 521 -99 342
-13 631 51 973 217 89 43 162 81 162 84 0 8 -1 8 -30 -8z"/>
</g>
</svg>
