<?xml version="1.0" standalone="no"?>
<!DOCTYPE svg PUBLIC "-//W3C//DTD SVG 20010904//EN"
 "http://www.w3.org/TR/2001/REC-SVG-20010904/DTD/svg10.dtd">
<svg version="1.0" xmlns="http://www.w3.org/2000/svg"
 width="1000.000000pt" height="1000.000000pt" viewBox="0 0 1000.000000 1000.000000"
 preserveAspectRatio="xMidYMid meet">
<metadata>
  <rdf:RDF
    xmlns:rdf = "http://www.w3.org/1999/02/22-rdf-syntax-ns#"
    xmlns:rdfs = "http://www.w3.org/2000/01/rdf-schema#"
    xmlns:dc = "http://purl.org/dc/elements/1.1/"
    xmlns:cc = "http://creativecommons.org/ns#">
    <cc:license rdf:resource="http://creativecommons.org/publicdomain/zero/1.0/deed.en"/>
    <cc:permits rdf:resource="http://creativecommons.org/ns#Reproduction"/>
    <rdf:Description about="https://nft.mir.one/fingerprints"
      dc:title="TON Fingerprints"
      dc:description="This is a unique digital fingerprint created based on the algorithm for generating basic rings using a noise texture. Like human fingerprints, you can now use it for the Web3 and Metaverse era as digital biometric information."
      dc:publisher="https://nft.mir.one"
      dc:date="2022-02-22"
      dc:format="image/svg+xml"
      dc:language="en" >
      <dc:creator>
      <rdf:Bag>
        <rdf:li>EQBondcvD2_aOFADXSWJHs4ZazQDuEl9_wNvGGPxI8hGuOFU</rdf:li>
        <rdf:li>ipfs://bafkreihj7iub3fhmhq6jn62noukt5wxn3gv6bvcg7wmt6ywvlurefezckq</rdf:li>
      </rdf:Bag>
      </dc:creator>
    </rdf:Description>
  </rdf:RDF>
</metadata>
<g transform="translate(0.000000,1000.000000) scale(0.100000,-0.100000)"
fill="#1b1f23" stroke="none">
<path d="M5045 7802 c62 -56 180 -142 195 -142 30 0 24 26 -12 53 -48 36 -213
116 -183 89z"/>
<path d="M5459 7709 c18 -39 48 -80 75 -105 25 -23 157 -117 293 -209 370
-250 615 -439 742 -572 73 -78 73 -78 10 7 -83 111 -325 353 -464 464 -112 89
-357 257 -519 355 -49 29 -106 69 -127 89 -39 35 -39 35 -10 -29z"/>
<path d="M4568 7705 c114 -66 425 -165 519 -165 24 0 53 5 64 10 28 15 24 47
-9 64 -49 25 -313 85 -447 101 -71 8 -143 18 -160 21 -23 4 -16 -3 33 -31z"/>
<path d="M4185 7527 c20 -25 54 -54 74 -65 65 -37 510 -163 801 -228 91 -20
221 -53 290 -74 69 -21 181 -54 248 -74 291 -86 506 -236 887 -621 190 -191
238 -235 277 -250 39 -14 51 -15 63 -5 23 19 18 34 -13 46 -21 8 -61 57 -141
171 -196 281 -321 417 -523 568 -151 113 -287 196 -485 297 -247 125 -272 132
-466 130 -176 -3 -267 11 -468 72 -140 43 -206 53 -379 61 -74 3 -150 8 -169
11 -33 5 -33 5 4 -39z"/>
<path d="M4000 7415 c-36 -7 -69 -14 -75 -15 -19 -4 90 -30 125 -30 43 0 84
20 88 43 4 21 -37 21 -138 2z"/>
<path d="M4105 7260 c-84 -7 -214 -34 -378 -78 -68 -19 -68 -19 -25 -35 42
-16 87 -22 398 -52 310 -31 656 -124 925 -250 165 -77 298 -178 482 -368 100
-103 105 -110 179 -264 41 -87 89 -196 106 -243 16 -47 51 -116 77 -155 223
-328 284 -426 338 -535 157 -318 195 -550 159 -967 -24 -283 -29 -307 -96
-521 -94 -300 -116 -344 -154 -313 -23 19 -21 113 5 268 12 71 22 175 23 233
1 141 -17 191 -97 276 -67 72 -119 104 -170 104 -33 0 -36 4 -127 154 -107
176 -186 290 -300 431 -45 55 -118 147 -163 205 -166 215 -266 293 -642 499
-242 133 -328 170 -455 196 -108 23 -315 23 -465 0 -116 -17 -382 -73 -500
-106 -82 -22 -127 -62 -207 -179 -28 -41 -62 -87 -76 -102 -25 -27 -25 -27 28
-7 28 11 73 30 99 43 69 36 199 74 326 96 63 12 147 32 187 46 284 97 615 91
748 -14 19 -16 44 -47 56 -70 11 -24 29 -51 40 -61 10 -11 80 -40 154 -66 248
-86 448 -198 493 -273 19 -33 22 -68 7 -77 -5 -3 -61 15 -123 40 -248 98 -416
123 -613 91 -159 -25 -251 -16 -278 27 -15 24 1 33 73 41 115 13 203 61 187
102 -6 14 -17 16 -79 11 -93 -7 -153 -29 -198 -73 -35 -34 -42 -36 -205 -64
-286 -49 -307 -60 -618 -335 -116 -102 -141 -129 -172 -189 -33 -63 -107 -266
-100 -274 2 -1 75 68 162 156 177 176 315 285 449 354 186 96 311 112 620 79
220 -24 320 -42 402 -73 50 -18 56 -24 79 -76 19 -43 55 -87 148 -182 68 -69
131 -140 141 -159 10 -19 23 -76 31 -125 7 -50 24 -140 38 -201 36 -153 49
-275 42 -377 -13 -166 -70 -287 -104 -220 -5 9 -12 105 -15 212 -4 160 -10
214 -30 300 -55 235 -103 339 -213 464 -165 189 -311 264 -574 296 -188 23
-367 -3 -520 -76 -149 -70 -333 -212 -440 -339 -61 -72 -94 -166 -110 -307 -5
-51 -12 -113 -15 -138 -5 -44 -5 -44 23 0 16 25 47 82 71 126 101 195 278 371
471 469 358 181 793 83 1015 -229 133 -188 186 -397 189 -736 1 -195 1 -195
-30 -260 -17 -36 -61 -106 -97 -156 -77 -108 -89 -137 -57 -154 74 -40 208 64
348 270 39 58 89 127 111 155 90 111 125 227 124 415 0 149 -18 242 -75 390
-50 130 -51 144 -16 148 59 7 153 -132 192 -284 40 -156 40 -353 0 -509 -20
-78 -80 -205 -134 -286 -71 -105 -247 -325 -290 -361 -60 -52 -137 -85 -272
-118 -482 -115 -737 -65 -1024 203 -52 49 -83 87 -105 133 -29 59 -31 69 -22
109 8 34 7 49 -3 63 -35 50 -87 170 -99 230 -57 266 82 550 327 671 85 42 191
71 263 71 117 0 284 -65 362 -140 147 -142 213 -300 213 -509 0 -164 -35 -279
-122 -402 -102 -146 -267 -214 -472 -194 -134 12 -111 58 49 100 136 35 195
64 264 130 197 187 203 521 14 725 -139 150 -350 183 -535 83 -58 -31 -147
-123 -177 -181 -101 -197 -40 -416 134 -481 160 -60 314 -19 390 104 25 41 30
58 30 115 0 84 -31 136 -100 170 -56 27 -102 21 -145 -18 -43 -40 -48 -75 -16
-107 26 -26 26 -26 57 -8 30 17 31 17 45 -1 21 -30 17 -54 -15 -86 -55 -55
-132 -52 -192 9 -83 83 -71 214 27 301 53 46 99 63 174 64 84 0 155 -30 211
-91 65 -71 84 -122 84 -228 0 -82 -3 -97 -32 -156 -40 -81 -103 -141 -186
-179 -124 -56 -223 -61 -357 -20 -72 22 -130 26 -147 9 -8 -8 -2 -24 24 -60
39 -54 96 -99 196 -154 41 -23 73 -48 82 -65 21 -40 67 -75 132 -101 49 -19
77 -22 183 -22 108 0 136 3 205 26 44 14 101 40 126 56 39 24 50 38 64 83 10
29 37 92 61 140 77 153 96 225 101 373 15 431 -176 752 -512 862 -110 35 -272
37 -390 4 -220 -62 -418 -228 -525 -440 -44 -87 -54 -162 -40 -285 16 -134 48
-241 129 -422 86 -191 140 -273 266 -400 140 -142 277 -230 452 -291 74 -26
87 -27 248 -26 197 1 329 21 525 79 115 34 160 44 334 75 33 6 90 26 126 44
67 34 289 174 344 216 39 31 71 105 106 243 62 246 81 493 55 729 -9 87 -14
175 -10 197 7 39 36 77 53 66 11 -7 66 -151 87 -231 9 -33 19 -107 22 -165 6
-119 -19 -478 -42 -597 -18 -94 -19 -185 -3 -201 16 -16 59 -15 85 3 11 8 53
62 92 120 46 67 87 115 114 134 93 63 145 145 220 342 35 90 66 139 87 139 22
0 42 -51 41 -108 0 -109 -72 -271 -187 -425 -75 -100 -257 -287 -339 -348 -51
-38 -71 -64 -130 -164 -91 -156 -133 -212 -254 -339 -88 -92 -101 -111 -101
-140 0 -19 -5 -47 -11 -63 -9 -25 -6 -24 38 18 26 25 95 82 153 125 127 95
241 208 425 419 77 88 172 196 213 240 92 99 130 155 219 320 38 72 82 150 96
175 57 98 76 265 37 320 -50 71 -72 138 -86 272 -7 72 -22 158 -33 192 -32 95
-39 138 -56 335 -9 102 -25 227 -36 279 -49 225 -159 464 -329 712 -210 308
-374 556 -384 582 -7 20 -7 31 1 39 31 31 124 -47 269 -226 294 -364 449 -618
534 -874 49 -147 67 -274 76 -529 8 -218 18 -267 59 -267 47 0 75 84 96 290
19 186 15 347 -9 447 -76 309 -269 627 -608 1003 -124 137 -216 215 -348 293
-183 108 -329 241 -396 356 -17 31 -48 69 -68 86 -103 86 -427 204 -867 314
-122 30 -289 59 -320 55 -5 -1 -50 -5 -100 -9z m819 -2280 c50 -11 119 -27
154 -35 76 -17 125 -50 226 -150 133 -132 238 -290 287 -433 53 -153 71 -533
35 -717 -51 -265 -130 -408 -309 -562 -81 -70 -182 -133 -213 -133 -29 0 -37
25 -19 60 8 15 58 77 111 136 109 123 156 188 208 291 148 295 139 753 -20
1015 -99 162 -315 331 -561 438 -114 49 -124 56 -116 77 14 37 87 42 217 13z"/>
<path d="M3655 6966 c-38 -14 -103 -40 -143 -59 -74 -36 -74 -36 -35 -46 21
-6 110 -15 197 -21 197 -13 337 -37 531 -90 254 -69 472 -147 630 -225 238
-116 352 -200 616 -453 75 -71 145 -135 157 -141 33 -17 70 -14 77 8 9 29 -15
79 -97 198 -154 226 -392 435 -635 557 -246 123 -580 220 -933 272 -209 30
-275 30 -365 0z"/>
<path d="M5568 6920 c-55 -34 2 -92 283 -292 229 -163 346 -264 499 -429 301
-326 388 -444 510 -694 76 -155 121 -278 151 -417 23 -108 21 -103 60 -122 27
-13 30 -13 25 -1 -3 8 -19 97 -37 197 -17 101 -43 233 -59 293 -45 178 -152
433 -227 541 -43 62 -544 548 -663 643 -126 101 -292 213 -375 252 -68 32
-141 45 -167 29z"/>
<path d="M3540 6701 c-51 -17 -137 -65 -209 -117 -40 -30 -79 -55 -85 -55 -6
-1 7 -5 29 -8 22 -3 74 -1 115 6 203 33 493 25 586 -17 48 -20 71 -52 51 -68
-6 -5 -109 -12 -227 -15 -264 -8 -379 -21 -445 -52 -46 -21 -102 -61 -213
-150 -43 -34 -43 -34 15 -31 32 2 120 15 196 29 75 15 208 34 295 42 256 25
323 35 397 57 97 30 191 27 335 -10 207 -53 404 -142 603 -272 177 -115 468
-342 596 -464 206 -199 420 -538 535 -848 43 -115 46 -148 14 -148 -37 0 -99
78 -198 251 -179 311 -308 486 -486 660 -389 378 -858 639 -1222 680 -125 14
-469 -14 -752 -61 -236 -39 -246 -44 -389 -175 -81 -75 -81 -75 -35 -75 26 0
137 20 248 45 472 104 787 121 1040 55 222 -59 602 -270 832 -463 178 -149
364 -372 578 -691 154 -229 192 -275 308 -373 97 -82 116 -91 148 -65 23 19
31 68 47 298 12 173 -105 470 -298 759 -140 209 -237 314 -354 380 -75 43
-131 85 -288 217 -294 247 -515 370 -877 488 -118 39 -260 88 -315 110 -55 21
-146 48 -203 60 -110 22 -331 35 -372 21z"/>
<path d="M3837 5565 c-108 -19 -210 -51 -230 -73 -9 -10 -20 -33 -23 -50 -6
-30 -4 -33 32 -48 36 -15 48 -15 159 0 66 9 156 26 200 37 51 13 131 22 218
26 149 6 167 14 131 55 -43 48 -98 62 -259 65 -92 1 -180 -3 -228 -12z"/>
<path d="M3320 5434 c-36 -8 -101 -25 -146 -39 -69 -21 -87 -32 -125 -72 -41
-44 -129 -165 -129 -177 0 -9 65 18 120 50 92 55 200 70 200 29 0 -8 -37 -40
-82 -70 -93 -62 -118 -92 -198 -245 -55 -106 -55 -106 -22 -85 42 26 166 130
260 220 45 43 85 91 102 125 22 44 43 65 106 110 44 31 86 68 94 83 14 25 13
28 -11 53 -33 32 -83 38 -169 18z"/>
<path d="M6991 4898 c-27 -53 -35 -87 -52 -223 -20 -155 -32 -200 -99 -390
-49 -136 -55 -335 -10 -335 18 0 48 77 93 240 57 205 73 292 91 495 16 171 20
192 41 197 10 2 11 10 1 37 -6 19 -16 36 -22 38 -6 2 -25 -25 -43 -59z"/>
<path d="M5539 2874 c-168 -123 -257 -161 -568 -245 -306 -81 -564 -107 -811
-80 -147 17 -216 20 -199 11 49 -28 359 -121 454 -137 141 -23 398 -23 500 0
92 21 499 154 550 179 148 76 281 249 247 323 -20 44 -58 33 -173 -51z"/>
<path d="M5305 2406 c-22 -7 -89 -32 -150 -56 -60 -23 -173 -64 -250 -91 -128
-45 -136 -49 -93 -49 120 0 377 60 537 126 100 42 109 48 91 69 -15 18 -79 19
-135 1z"/>
<path d="M4713 2203 c9 -2 25 -2 35 0 9 3 1 5 -18 5 -19 0 -27 -2 -17 -5z"/>
</g>
</svg>
