<?xml version="1.0" standalone="no"?>
<!DOCTYPE svg PUBLIC "-//W3C//DTD SVG 20010904//EN"
 "http://www.w3.org/TR/2001/REC-SVG-20010904/DTD/svg10.dtd">
<svg version="1.0" xmlns="http://www.w3.org/2000/svg"
 width="1000.000000pt" height="1000.000000pt" viewBox="0 0 1000.000000 1000.000000"
 preserveAspectRatio="xMidYMid meet">
<metadata>
  <rdf:RDF
    xmlns:rdf = "http://www.w3.org/1999/02/22-rdf-syntax-ns#"
    xmlns:rdfs = "http://www.w3.org/2000/01/rdf-schema#"
    xmlns:dc = "http://purl.org/dc/elements/1.1/"
    xmlns:cc = "http://creativecommons.org/ns#">
    <cc:license rdf:resource="http://creativecommons.org/publicdomain/zero/1.0/deed.en"/>
    <cc:permits rdf:resource="http://creativecommons.org/ns#Reproduction"/>
    <rdf:Description about="https://nft.mir.one/fingerprints"
      dc:title="TON Fingerprints"
      dc:description="This is a unique digital fingerprint created based on the algorithm for generating basic rings using a noise texture. Like human fingerprints, you can now use it for the Web3 and Metaverse era as digital biometric information."
      dc:publisher="https://nft.mir.one"
      dc:date="2022-02-22"
      dc:format="image/svg+xml"
      dc:language="en" >
      <dc:creator>
      <rdf:Bag>
        <rdf:li>EQBondcvD2_aOFADXSWJHs4ZazQDuEl9_wNvGGPxI8hGuOFU</rdf:li>
        <rdf:li>ipfs://bafkreihj7iub3fhmhq6jn62noukt5wxn3gv6bvcg7wmt6ywvlurefezckq</rdf:li>
      </rdf:Bag>
      </dc:creator>
    </rdf:Description>
  </rdf:RDF>
</metadata>
<g transform="translate(0.000000,1000.000000) scale(0.100000,-0.100000)"
fill="#1b1f23" stroke="none">
<path d="M5127 7800 c21 -27 35 -110 22 -126 -23 -28 -33 -24 -364 106 -49 20
-49 20 -5 -26 59 -61 206 -158 272 -179 95 -32 143 -62 216 -140 229 -240 351
-475 552 -1061 38 -110 100 -258 160 -384 112 -232 120 -257 120 -357 0 -55
13 -125 54 -285 50 -196 185 -856 222 -1086 24 -154 30 -467 10 -582 -45 -258
-128 -430 -352 -725 -128 -169 -263 -302 -343 -338 -39 -17 -45 -17 -58 -4
-14 14 -13 20 6 59 11 23 82 115 156 203 399 473 510 732 492 1150 -7 150 -21
235 -82 470 -24 94 -63 260 -85 370 -84 404 -130 545 -218 675 -31 46 -91 149
-132 229 -80 155 -101 179 -126 146 -30 -40 5 -168 125 -456 75 -182 119 -331
165 -569 65 -329 75 -366 132 -484 70 -144 84 -202 91 -366 6 -162 -11 -287
-60 -430 -49 -144 -93 -213 -291 -458 -225 -279 -266 -335 -322 -443 -60 -116
-110 -186 -227 -315 -54 -60 -111 -133 -128 -162 -30 -53 -30 -53 23 -19 29
19 107 65 173 102 66 38 154 88 195 112 41 24 95 51 120 59 164 59 283 138
409 270 109 114 326 402 380 504 76 144 121 352 121 555 0 272 -99 970 -220
1554 -87 422 -85 415 -146 483 -71 80 -180 337 -209 493 -21 113 -30 146 -94
323 -28 79 -62 194 -75 256 -29 134 -70 222 -186 395 -106 156 -141 195 -279
307 -64 52 -141 115 -171 141 -30 27 -50 41 -43 33z"/>
<path d="M5609 7638 c20 -40 62 -107 92 -148 30 -41 89 -124 131 -185 103
-149 131 -182 215 -254 91 -77 164 -185 281 -418 103 -203 266 -570 312 -699
128 -363 221 -1049 224 -1649 1 -241 0 -263 -19 -299 -43 -85 -63 -51 -76 127
-5 73 -16 233 -24 357 -26 389 -71 732 -146 1100 -93 464 -170 684 -333 950
-29 47 -83 141 -121 210 -107 197 -151 249 -197 235 -47 -15 -10 -143 123
-421 32 -69 46 -86 82 -107 67 -39 119 -129 182 -308 29 -84 39 -132 50 -249
8 -80 36 -260 64 -400 87 -447 124 -696 171 -1154 16 -163 39 -338 51 -388 25
-113 22 -275 -9 -433 -11 -55 -23 -138 -26 -185 -5 -85 -5 -85 69 135 40 121
85 267 99 325 15 59 37 119 51 140 37 54 52 97 69 205 41 265 47 848 12 1145
-50 422 -115 662 -227 846 -86 140 -109 188 -173 364 -99 269 -200 451 -350
630 -103 124 -324 347 -456 463 -63 55 -125 109 -136 119 -17 15 -14 4 15 -54z"/>
<path d="M4421 7648 c25 -23 101 -81 169 -128 522 -357 686 -568 981 -1265 91
-215 94 -221 158 -285 47 -47 83 -96 126 -174 63 -115 103 -166 129 -166 26 0
36 33 25 76 -11 41 -103 229 -143 293 -48 76 -106 202 -196 426 -190 475 -326
707 -530 898 -37 36 -135 110 -217 164 -125 84 -164 104 -248 131 -55 18 -136
39 -179 47 -43 8 -88 17 -100 21 -14 4 -6 -8 25 -38z"/>
<path d="M4110 7494 c19 -17 96 -72 170 -121 190 -126 306 -219 449 -358 238
-231 372 -429 516 -758 30 -71 72 -154 91 -185 54 -83 64 -121 80 -296 13
-137 26 -203 90 -454 105 -417 118 -491 119 -697 0 -154 -3 -186 -33 -330 -41
-201 -100 -591 -109 -712 -6 -87 -4 -95 22 -148 25 -53 27 -60 15 -99 -30
-101 -113 -226 -150 -226 -22 0 -26 75 -10 161 6 30 15 122 20 204 5 83 25
260 44 395 73 513 81 610 66 770 -18 193 -35 282 -144 735 -20 83 -42 198 -51
255 -14 100 -13 107 7 174 18 60 19 75 9 119 -13 58 -26 77 -52 77 -26 0 -32
-31 -24 -121 6 -66 5 -79 -7 -79 -19 0 -44 27 -58 65 -7 17 -16 84 -20 150
-10 137 -25 188 -104 350 -158 321 -442 628 -814 880 -111 75 -149 85 -317 85
-99 0 -99 0 -65 -30 19 -16 67 -48 105 -71 441 -265 812 -635 966 -964 22 -46
59 -153 83 -237 24 -84 60 -200 80 -258 32 -95 35 -115 34 -200 -2 -87 2 -108
45 -250 54 -180 90 -331 144 -595 36 -182 38 -198 37 -385 0 -218 -21 -398
-94 -795 -22 -121 -46 -291 -55 -378 -19 -209 -50 -288 -198 -512 -80 -121
-264 -305 -329 -330 -27 -10 -48 -22 -48 -26 0 -28 129 -22 221 10 198 68 278
146 480 463 55 87 119 173 163 218 40 41 110 122 156 180 46 58 130 153 186
211 113 117 149 176 188 311 49 171 59 423 22 545 -17 55 -59 113 -81 113 -30
0 -36 -26 -20 -91 28 -120 15 -336 -31 -517 -36 -144 -92 -252 -131 -252 -20
0 -16 47 17 171 38 141 65 312 81 492 12 146 8 165 -29 153 -34 -11 -61 -97
-97 -313 -60 -358 -93 -521 -111 -547 -16 -25 -59 -45 -71 -32 -3 3 -1 31 6
63 6 32 31 186 57 343 58 365 73 423 136 550 53 105 53 105 52 245 -3 214 -50
444 -168 810 -73 226 -93 309 -106 440 -16 153 -29 200 -111 386 -243 555
-424 793 -844 1109 -60 46 -132 93 -160 106 -56 25 -185 51 -285 56 -65 4 -65
4 -30 -28z"/>
<path d="M3710 7115 c-8 -2 -32 -7 -54 -10 -38 -6 -38 -6 -15 -32 13 -14 51
-39 84 -55 230 -117 454 -290 590 -458 28 -33 92 -93 143 -131 105 -80 186
-171 232 -265 36 -74 43 -145 17 -171 -14 -14 -18 -11 -40 34 -55 107 -204
282 -253 297 -29 9 -57 -19 -48 -48 19 -64 137 -215 212 -273 32 -24 54 -33
82 -33 39 0 39 0 132 -157 104 -176 163 -247 200 -241 42 6 36 60 -26 216 -31
77 -76 202 -101 278 -49 154 -103 257 -191 367 -82 103 -352 369 -464 458
-118 94 -273 199 -320 216 -31 11 -141 16 -180 8z"/>
<path d="M6493 6950 c33 -89 104 -323 132 -433 19 -75 50 -168 69 -205 41 -82
120 -159 195 -190 59 -24 66 -36 -73 109 -59 62 -76 97 -130 278 -44 143 -144
382 -182 434 -9 12 -14 15 -11 7z"/>
<path d="M3498 6873 c-66 -15 -66 -15 -35 -43 18 -15 78 -51 135 -79 140 -70
297 -164 422 -254 117 -83 149 -97 170 -72 38 46 -67 181 -230 296 -49 35
-131 87 -182 116 -85 49 -97 53 -153 52 -33 -1 -90 -8 -127 -16z"/>
<path d="M3435 6633 c-11 -2 -50 -13 -87 -24 -67 -21 -67 -21 -51 -45 23 -36
58 -57 153 -94 338 -133 498 -214 630 -320 80 -64 370 -373 473 -505 162 -208
264 -384 322 -558 68 -202 79 -353 45 -587 -26 -181 -63 -697 -57 -790 3 -41
13 -102 22 -134 20 -68 17 -139 -10 -271 -60 -291 -195 -552 -416 -802 -46
-52 -91 -113 -99 -137 -17 -42 -17 -42 44 -29 34 7 71 13 83 13 38 0 163 105
237 197 130 165 216 312 270 461 14 40 42 150 61 245 20 94 55 232 79 307 65
201 109 501 110 750 0 150 -10 200 -55 271 -24 38 -34 73 -55 200 -57 349
-129 550 -243 687 -31 37 -104 130 -163 208 -59 78 -140 172 -184 212 -110
100 -196 200 -269 312 -77 117 -88 127 -153 140 -58 11 -97 29 -300 142 -250
139 -319 166 -387 151z m1688 -2119 c18 -62 -11 -497 -49 -724 -19 -111 -39
-167 -65 -181 -35 -19 -43 24 -30 163 7 68 23 249 36 404 24 279 32 323 62
357 21 23 35 17 46 -19z"/>
<path d="M6078 6375 c-16 -35 2 -110 69 -280 64 -163 87 -205 114 -205 58 0
23 168 -85 405 -48 103 -76 127 -98 80z"/>
<path d="M3259 6262 c-36 -20 -78 -47 -95 -58 -16 -12 -39 -25 -52 -28 -22 -7
-22 -8 10 -30 18 -12 53 -30 78 -40 62 -24 103 -52 265 -179 312 -246 453
-387 587 -586 233 -348 329 -707 315 -1171 -9 -290 -54 -525 -144 -765 -114
-302 -213 -457 -359 -565 -28 -21 -64 -52 -81 -69 -31 -31 -31 -31 107 -31 76
0 150 4 164 10 61 23 206 258 292 475 90 223 138 456 165 799 15 191 7 560
-15 681 -62 341 -218 647 -478 937 -98 109 -210 208 -385 340 -140 105 -163
128 -163 165 0 35 43 30 133 -17 172 -88 370 -245 523 -417 296 -333 454 -644
505 -994 15 -105 15 -472 0 -684 -44 -611 -76 -746 -262 -1113 -75 -147 -109
-225 -109 -248 0 -38 29 -74 60 -74 70 0 242 257 336 502 70 179 84 266 94
548 5 140 18 401 30 580 24 353 23 534 -4 660 -68 314 -232 595 -553 944 -168
182 -315 297 -491 385 -97 49 -171 67 -307 75 -100 5 -100 5 -166 -32z"/>
<path d="M3150 5923 c-8 -3 -43 -18 -77 -35 -62 -29 -62 -29 -25 -62 20 -18
74 -52 120 -76 170 -88 332 -209 457 -342 214 -227 381 -592 447 -973 28 -167
22 -404 -16 -550 -67 -264 -155 -403 -311 -490 -106 -60 -169 -81 -201 -66
-13 6 -24 15 -24 20 0 6 49 51 108 100 155 128 220 220 281 395 59 167 76 357
46 498 -20 97 -120 414 -166 530 -89 223 -172 360 -291 478 -86 86 -186 158
-295 214 -65 34 -76 37 -106 27 -18 -6 -60 -34 -94 -63 -62 -52 -62 -52 -25
-68 20 -9 59 -22 86 -29 75 -18 196 -84 277 -150 116 -93 175 -182 200 -302 6
-30 29 -99 51 -154 50 -125 78 -233 78 -299 0 -30 -12 -85 -29 -136 -16 -47
-46 -142 -65 -212 -61 -222 -125 -346 -269 -528 -37 -46 -67 -88 -67 -92 0 -5
35 -8 77 -8 77 0 77 0 126 52 150 162 245 373 282 625 22 154 22 155 48 151
74 -11 74 -254 -1 -467 -40 -111 -103 -216 -205 -339 -48 -59 -100 -127 -115
-152 -14 -25 -46 -69 -70 -97 -25 -30 -38 -53 -31 -53 8 0 47 -16 87 -36 48
-24 92 -38 131 -41 55 -5 62 -3 153 46 98 53 123 60 131 39 13 -37 -56 -120
-173 -210 -36 -27 -78 -66 -94 -85 -30 -36 -30 -36 80 -31 126 5 154 16 206
80 60 74 87 121 118 206 16 45 53 133 81 194 255 557 229 1201 -68 1732 -134
239 -311 430 -582 629 -169 125 -219 149 -271 130z"/>
<path d="M3030 5262 c-49 -26 -109 -66 -110 -73 0 -7 76 -41 120 -54 44 -13
142 -66 230 -122 95 -62 154 -78 162 -46 17 66 -121 207 -279 287 -62 31 -78
32 -123 8z"/>
<path d="M2995 4960 c-22 -11 -50 -28 -63 -38 -23 -18 -23 -18 80 -72 190
-102 287 -224 310 -392 20 -142 -31 -341 -127 -496 -24 -40 -55 -94 -68 -120
-24 -47 -24 -47 40 -45 97 2 117 14 169 102 126 216 196 545 150 706 -19 64
-55 135 -90 174 -24 27 -163 122 -247 170 -65 36 -99 39 -154 11z"/>
<path d="M2984 4615 c-10 -8 -27 -15 -37 -15 -14 0 -12 -7 13 -42 17 -23 38
-67 47 -97 22 -73 22 -212 -1 -265 -12 -29 -13 -36 -2 -27 8 7 29 9 53 5 53
-8 97 15 112 58 41 117 12 295 -62 376 -24 26 -92 31 -123 7z"/>
<path d="M6433 3008 c-34 -39 -92 -148 -78 -148 2 0 18 25 35 55 18 31 43 69
57 85 29 35 16 41 -14 8z"/>
<path d="M4043 2544 c-28 -25 -28 -25 7 -18 43 8 70 21 70 34 0 20 -50 9 -77
-16z"/>
</g>
</svg>
