<?xml version="1.0" standalone="no"?>
<!DOCTYPE svg PUBLIC "-//W3C//DTD SVG 20010904//EN"
 "http://www.w3.org/TR/2001/REC-SVG-20010904/DTD/svg10.dtd">
<svg version="1.0" xmlns="http://www.w3.org/2000/svg"
 width="1000.000000pt" height="1000.000000pt" viewBox="0 0 1000.000000 1000.000000"
 preserveAspectRatio="xMidYMid meet">
<metadata>
  <rdf:RDF
    xmlns:rdf = "http://www.w3.org/1999/02/22-rdf-syntax-ns#"
    xmlns:rdfs = "http://www.w3.org/2000/01/rdf-schema#"
    xmlns:dc = "http://purl.org/dc/elements/1.1/"
    xmlns:cc = "http://creativecommons.org/ns#">
    <cc:license rdf:resource="http://creativecommons.org/publicdomain/zero/1.0/deed.en"/>
    <cc:permits rdf:resource="http://creativecommons.org/ns#Reproduction"/>
    <rdf:Description about="https://nft.mir.one/fingerprints"
      dc:title="TON Fingerprints"
      dc:description="This is a unique digital fingerprint created based on the algorithm for generating basic rings using a noise texture. Like human fingerprints, you can now use it for the Web3 and Metaverse era as digital biometric information."
      dc:publisher="https://nft.mir.one"
      dc:date="2022-02-22"
      dc:format="image/svg+xml"
      dc:language="en" >
      <dc:creator>
      <rdf:Bag>
        <rdf:li>EQBondcvD2_aOFADXSWJHs4ZazQDuEl9_wNvGGPxI8hGuOFU</rdf:li>
        <rdf:li>ipfs://bafkreihj7iub3fhmhq6jn62noukt5wxn3gv6bvcg7wmt6ywvlurefezckq</rdf:li>
      </rdf:Bag>
      </dc:creator>
    </rdf:Description>
  </rdf:RDF>
</metadata>
<g transform="translate(0.000000,1000.000000) scale(0.100000,-0.100000)"
fill="#1b1f23" stroke="none">
<path d="M5370 7773 c0 -16 384 -172 396 -160 2 2 -86 39 -196 83 -110 45
-200 79 -200 77z"/>
<path d="M4520 7721 c-69 -4 -109 -8 -90 -9 19 -1 85 -11 145 -22 164 -30 576
-90 619 -90 40 0 57 20 36 45 -47 57 -386 93 -710 76z"/>
<path d="M4410 7533 c-175 -27 -236 -40 -346 -72 -128 -38 -128 -38 -58 -44
38 -4 139 -7 224 -7 163 0 240 -6 615 -45 127 -13 286 -29 355 -35 218 -20
373 -64 640 -182 288 -127 475 -239 654 -390 95 -80 191 -155 230 -179 18 -11
-30 52 -169 221 -282 344 -683 597 -1120 708 -98 24 -100 24 -170 8 -92 -21
-204 -20 -400 4 -144 18 -382 25 -455 13z"/>
<path d="M4035 7275 c-120 -26 -275 -91 -275 -114 0 -5 96 -11 213 -14 235 -7
243 -8 787 -78 557 -72 668 -98 749 -179 41 -41 42 -80 3 -80 -15 0 -43 5 -62
10 -62 18 -259 49 -515 80 -137 17 -356 48 -485 70 -318 54 -642 93 -712 87
-36 -3 -84 -17 -125 -37 -38 -18 -84 -39 -103 -46 -31 -12 -32 -13 -10 -14 81
-1 268 -23 350 -40 52 -10 158 -30 235 -44 77 -14 212 -46 300 -71 88 -25 196
-52 241 -60 146 -26 426 -48 619 -49 202 -1 221 2 298 52 37 25 37 25 110 7
236 -56 530 -207 748 -383 129 -104 283 -272 323 -353 37 -74 46 -135 24 -157
-22 -22 -35 -13 -93 59 -234 289 -593 529 -915 611 -30 8 -219 13 -565 15
-286 2 -563 5 -616 6 -96 2 -96 2 -144 -42 -57 -52 -235 -139 -358 -175 -47
-14 -134 -34 -192 -46 -238 -45 -503 -118 -587 -161 -41 -21 -143 -119 -225
-215 -51 -61 -51 -61 -5 -48 26 7 94 33 151 59 194 86 519 187 711 221 64 11
124 15 186 11 92 -5 114 -13 182 -62 42 -30 112 -39 193 -25 104 19 135 53 88
96 -17 15 -36 19 -103 19 -44 0 -103 -2 -131 -5 -46 -5 -50 -3 -53 17 -4 31
37 67 107 95 62 25 112 26 531 18 187 -3 215 -2 320 20 391 82 749 -35 1185
-386 139 -112 181 -140 239 -160 92 -32 102 -44 266 -353 51 -96 111 -197 133
-225 22 -28 37 -42 33 -32 -24 67 -151 529 -171 626 -43 202 -100 338 -211
502 -82 121 -137 182 -244 271 -161 133 -289 211 -606 368 -439 217 -481 229
-1049 293 -513 58 -658 66 -770 41z"/>
<path d="M3666 6819 c-63 -10 -194 -74 -278 -135 -37 -27 -75 -55 -85 -62 -15
-10 -8 -12 47 -9 36 3 108 12 160 22 132 24 498 19 548 -8 37 -20 42 -44 9
-56 -12 -5 -124 -18 -247 -30 -321 -30 -376 -42 -464 -102 -39 -26 -109 -82
-155 -124 -84 -77 -84 -77 -40 -70 24 4 93 22 153 41 140 45 268 75 481 113
192 34 255 54 338 104 40 25 80 39 130 47 103 17 139 34 135 62 -5 34 -60 65
-182 103 -201 64 -331 81 -372 50 -21 -16 -64 -20 -64 -7 0 5 9 17 20 27 43
39 -15 54 -134 34z"/>
<path d="M5315 6200 c-62 -24 -53 -79 18 -110 23 -10 110 -37 192 -59 193 -51
275 -81 409 -147 192 -96 358 -215 482 -346 53 -56 84 -101 128 -186 31 -62
80 -142 108 -180 165 -217 236 -377 298 -677 16 -77 39 -171 50 -210 20 -70
20 -70 16 170 -6 323 -44 541 -118 690 -50 99 -207 356 -257 419 -51 65 -171
169 -336 291 -255 188 -460 287 -695 335 -100 20 -257 26 -295 10z"/>
<path d="M4756 6070 c-41 -7 -77 -22 -120 -49 -77 -51 -110 -64 -243 -100 -63
-17 -165 -57 -243 -94 -182 -87 -397 -171 -558 -219 -185 -54 -306 -108 -454
-200 -51 -32 -123 -129 -178 -238 -18 -36 -39 -73 -48 -83 -28 -32 66 15 149
73 193 138 428 265 509 276 56 7 92 -14 74 -43 -6 -10 -134 -100 -285 -200
-180 -120 -283 -195 -302 -220 -29 -39 -141 -253 -133 -253 8 0 76 39 106 60
14 10 63 36 110 59 89 44 311 189 417 273 75 59 144 148 169 219 25 71 71 116
180 176 346 194 790 321 1029 294 101 -12 132 -20 294 -73 122 -40 127 -41
195 -30 114 17 201 -5 385 -97 125 -63 256 -143 371 -226 139 -101 166 -117
196 -113 151 18 -104 284 -448 467 -130 69 -224 105 -417 157 -119 32 -202 61
-291 104 -69 33 -145 64 -170 69 -70 15 -229 21 -294 11z"/>
<path d="M3948 6031 c-195 -42 -536 -155 -708 -234 -90 -42 -140 -91 -237
-233 -70 -101 -70 -101 -29 -86 23 7 66 29 97 48 124 75 334 166 564 245 398
136 480 172 491 217 15 55 -49 70 -178 43z"/>
<path d="M4589 5596 c-243 -43 -544 -170 -668 -283 -109 -98 -134 -193 -51
-193 14 0 99 35 190 79 346 164 452 195 670 195 115 -1 161 -5 221 -22 178
-48 331 -144 500 -312 127 -126 239 -283 305 -425 46 -99 124 -405 127 -495 2
-80 -16 -130 -48 -130 -19 0 -28 15 -64 113 -23 61 -56 139 -74 172 -28 52
-37 60 -70 67 -64 13 -91 33 -242 178 -260 249 -425 335 -751 394 -132 24
-189 46 -181 69 2 6 16 20 31 31 22 17 46 21 132 24 161 6 287 -24 447 -105
48 -25 118 -67 155 -94 94 -69 240 -216 330 -334 106 -139 108 -141 127 -125
22 18 18 95 -8 160 -62 151 -272 392 -438 503 -184 123 -327 169 -519 171
-150 0 -205 -12 -354 -84 -210 -101 -347 -140 -490 -140 -89 0 -89 0 -215 -66
-162 -85 -282 -164 -319 -212 -16 -20 -44 -66 -62 -102 -18 -35 -54 -98 -79
-140 -26 -41 -54 -93 -63 -116 -25 -62 -47 -192 -54 -317 -6 -112 -6 -112 18
-72 13 22 34 69 47 105 62 171 190 386 291 489 86 88 185 132 218 99 24 -24
11 -50 -55 -111 -184 -171 -245 -257 -325 -456 -43 -106 -43 -106 -43 -266 0
-137 4 -181 29 -307 16 -81 31 -146 33 -144 2 2 10 85 18 185 24 287 67 458
168 655 51 101 116 181 139 174 27 -9 17 -60 -40 -204 -97 -243 -134 -405
-135 -599 -1 -134 21 -222 93 -372 56 -119 88 -168 181 -280 253 -302 728
-484 1015 -388 91 31 258 114 339 168 98 67 231 203 301 308 79 119 116 198
193 418 71 203 77 257 37 365 -109 301 -461 627 -801 741 -197 66 -437 89
-558 52 -149 -45 -252 -125 -314 -243 -82 -155 -162 -402 -184 -569 -24 -183
12 -422 83 -558 71 -135 221 -253 373 -292 181 -46 303 7 537 237 142 139 176
196 205 333 28 140 3 246 -103 427 -104 176 16 167 143 -11 133 -185 139 -447
14 -637 -44 -67 -77 -99 -178 -173 -74 -53 -133 -113 -133 -133 0 -6 -36 -46
-81 -89 -95 -91 -100 -112 -27 -117 56 -4 203 30 275 63 73 33 135 95 170 168
17 34 55 99 86 145 102 152 150 299 151 457 0 164 -56 304 -171 426 -82 87
-157 127 -260 139 -43 5 -121 19 -173 30 -113 24 -155 25 -238 5 -139 -33
-241 -115 -305 -245 -107 -218 -57 -390 140 -482 68 -32 90 -33 266 -12 93 12
77 -30 -33 -84 -47 -23 -67 -27 -140 -27 -79 1 -92 4 -177 43 -105 49 -136 51
-141 10 -4 -38 70 -116 145 -153 146 -71 337 -28 421 95 19 28 23 44 18 76 -4
28 1 58 15 95 50 131 -21 269 -138 269 -58 0 -103 -41 -103 -94 0 -36 30 -69
55 -60 16 7 37 -20 30 -38 -4 -9 -17 -20 -31 -27 -88 -40 -194 54 -194 171 0
151 158 269 307 229 50 -14 133 -86 169 -148 111 -188 76 -414 -90 -578 -83
-82 -149 -120 -243 -140 -130 -27 -265 15 -360 112 -59 60 -90 138 -79 198 4
21 -2 64 -16 117 -30 112 -30 269 1 383 60 225 200 394 377 456 163 57 430 21
649 -87 242 -118 432 -375 452 -610 19 -234 -136 -586 -356 -804 -57 -56 -97
-86 -161 -118 -170 -84 -298 -95 -368 -29 -20 18 -39 22 -150 28 -213 12 -373
76 -509 203 -90 84 -160 186 -203 296 -48 127 -62 208 -62 365 0 168 18 267
92 498 27 87 57 198 65 245 46 266 123 356 356 422 139 39 210 37 414 -10 296
-69 432 -121 593 -227 146 -97 385 -319 480 -446 39 -51 101 -121 140 -157 67
-63 70 -68 87 -140 10 -41 38 -131 62 -200 60 -167 66 -259 29 -405 -33 -129
-133 -332 -220 -446 -101 -133 -179 -201 -278 -240 -46 -19 -140 -62 -211 -96
-155 -76 -234 -103 -303 -103 -53 0 -89 19 -81 44 2 6 46 25 98 43 170 58 431
201 546 299 119 102 267 346 315 519 42 154 25 285 -37 285 -32 0 -45 -25 -99
-193 -121 -371 -303 -576 -686 -771 -64 -33 -135 -79 -166 -107 -29 -27 -66
-52 -81 -56 -54 -15 -403 -8 -473 9 -36 9 -66 15 -68 13 -6 -5 179 -64 268
-84 47 -11 159 -30 250 -42 268 -35 368 -21 609 86 56 25 115 45 131 45 26 0
30 -4 30 -27 0 -21 -18 -45 -76 -101 -75 -74 -75 -74 -27 -47 75 43 82 50 179
143 50 48 133 126 185 173 103 94 169 182 247 329 84 160 168 414 187 572 7
53 5 59 -25 96 -54 68 -62 110 -71 397 -6 228 -10 272 -33 360 -56 224 -111
350 -266 609 -129 216 -185 281 -395 458 -137 115 -234 171 -350 203 -81 23
-324 29 -426 11z m348 -2543 c13 -34 -128 -128 -183 -121 -48 5 -37 24 43 75
107 69 129 76 140 46z"/>
<path d="M5405 5599 c-12 -18 4 -57 37 -95 17 -20 98 -88 180 -152 82 -65 159
-125 171 -135 17 -13 29 -15 54 -8 20 6 46 6 67 0 55 -15 151 -85 216 -157 69
-77 117 -164 190 -346 82 -207 105 -246 147 -246 57 0 51 93 -18 303 -22 67
-45 160 -51 205 -8 63 -17 91 -34 112 -21 24 -162 128 -294 217 -73 49 -465
262 -530 289 -62 25 -124 31 -135 13z"/>
<path d="M5807 5173 c-10 -10 -8 -68 3 -99 6 -15 46 -83 89 -153 99 -159 135
-231 204 -406 87 -222 101 -290 102 -485 0 -91 -4 -231 -9 -312 -8 -135 -8
-148 8 -154 81 -31 180 208 201 486 10 127 -12 228 -74 350 -28 55 -80 164
-115 244 -94 212 -161 319 -270 434 -35 38 -117 102 -129 102 -2 0 -7 -3 -10
-7z"/>
<path d="M6487 5033 c-14 -13 -6 -47 37 -151 80 -196 102 -300 85 -402 -5 -30
-14 -142 -19 -248 -14 -281 -46 -395 -199 -699 -38 -76 -92 -201 -121 -278
-115 -307 -169 -424 -283 -605 -36 -58 -82 -132 -102 -165 -37 -60 -37 -60 20
-5 98 94 245 271 316 378 89 134 157 263 262 493 118 258 172 364 218 424 78
103 104 230 103 485 -2 264 -33 434 -110 596 -37 78 -82 140 -122 166 -27 18
-73 24 -85 11z"/>
<path d="M3114 4710 c-45 -18 -80 -88 -124 -250 -29 -105 -29 -105 1 -70 51
59 189 271 189 289 0 19 -19 41 -34 40 -6 0 -21 -4 -32 -9z"/>
<path d="M6770 3710 c-6 -11 -22 -49 -35 -83 -13 -34 -40 -100 -59 -146 -31
-72 -119 -342 -113 -348 1 -1 48 102 105 228 109 246 143 342 125 360 -8 8
-14 5 -23 -11z"/>
</g>
</svg>
