<?xml version="1.0" standalone="no"?>
<!DOCTYPE svg PUBLIC "-//W3C//DTD SVG 20010904//EN"
 "http://www.w3.org/TR/2001/REC-SVG-20010904/DTD/svg10.dtd">
<svg version="1.0" xmlns="http://www.w3.org/2000/svg"
 width="1000.000000pt" height="1000.000000pt" viewBox="0 0 1000.000000 1000.000000"
 preserveAspectRatio="xMidYMid meet">
<metadata>
  <rdf:RDF
    xmlns:rdf = "http://www.w3.org/1999/02/22-rdf-syntax-ns#"
    xmlns:rdfs = "http://www.w3.org/2000/01/rdf-schema#"
    xmlns:dc = "http://purl.org/dc/elements/1.1/"
    xmlns:cc = "http://creativecommons.org/ns#">
    <cc:license rdf:resource="http://creativecommons.org/publicdomain/zero/1.0/deed.en"/>
    <cc:permits rdf:resource="http://creativecommons.org/ns#Reproduction"/>
    <rdf:Description about="https://nft.mir.one/fingerprints"
      dc:title="TON Fingerprints"
      dc:description="This is a unique digital fingerprint created based on the algorithm for generating basic rings using a noise texture. Like human fingerprints, you can now use it for the Web3 and Metaverse era as digital biometric information."
      dc:publisher="https://nft.mir.one"
      dc:date="2022-02-22"
      dc:format="image/svg+xml"
      dc:language="en" >
      <dc:creator>
      <rdf:Bag>
        <rdf:li>EQBondcvD2_aOFADXSWJHs4ZazQDuEl9_wNvGGPxI8hGuOFU</rdf:li>
        <rdf:li>ipfs://bafkreihj7iub3fhmhq6jn62noukt5wxn3gv6bvcg7wmt6ywvlurefezckq</rdf:li>
      </rdf:Bag>
      </dc:creator>
    </rdf:Description>
  </rdf:RDF>
</metadata>
<g transform="translate(0.000000,1000.000000) scale(0.100000,-0.100000)"
fill="#1b1f23" stroke="none">
<path d="M5065 7763 c-104 -7 -333 -35 -400 -49 -126 -26 -423 -177 -598 -302
-159 -114 -414 -344 -521 -471 -151 -180 -281 -411 -355 -634 -24 -70 -49
-134 -57 -141 -18 -18 -18 -26 0 -26 26 0 54 50 92 163 49 151 109 273 196
403 94 140 194 244 321 334 56 39 149 112 207 161 136 116 248 195 412 291
208 123 289 144 381 98 44 -22 44 -22 193 28 82 27 183 57 224 67 41 10 93 27
115 38 22 11 58 26 80 33 36 11 26 13 -100 12 -77 -1 -162 -3 -190 -5z"/>
<path d="M4674 7506 c-169 -61 -480 -266 -648 -426 -93 -88 -130 -140 -146
-200 -16 -60 -67 -155 -178 -330 -152 -239 -297 -548 -361 -769 -16 -57 -35
-109 -41 -115 -18 -18 -44 6 -59 55 -26 81 -9 132 162 479 125 254 178 349
271 488 82 123 116 182 116 203 0 63 -78 25 -163 -79 -117 -144 -204 -295
-312 -542 -42 -96 -88 -196 -102 -222 -42 -77 -72 -73 -94 13 -17 64 -40 88
-33 32 3 -21 10 -59 15 -85 6 -25 12 -135 13 -245 3 -192 4 -203 44 -368 86
-363 182 -593 332 -794 75 -102 251 -267 365 -342 145 -96 214 -132 406 -212
172 -72 206 -94 181 -119 -22 -21 -146 -13 -246 17 -330 97 -610 283 -810 540
-165 210 -265 427 -360 780 -19 72 -46 159 -60 195 -29 74 -29 98 -5 -215 20
-281 80 -550 154 -694 70 -138 265 -362 409 -468 166 -123 350 -209 563 -265
118 -31 118 -31 543 -31 404 0 429 1 513 21 316 78 585 285 739 570 122 224
160 424 110 573 -15 42 -26 107 -30 175 -10 141 -7 164 24 164 79 0 149 -371
115 -610 -56 -379 -352 -768 -713 -935 -178 -82 -320 -111 -486 -101 -59 4
-242 11 -407 16 -303 9 -375 16 -543 60 -185 47 -364 130 -515 237 -105 75
-256 227 -332 332 -61 85 -174 217 -163 190 4 -8 34 -81 68 -164 119 -291 220
-446 350 -535 275 -188 654 -269 1260 -270 96 0 191 -5 211 -10 45 -13 78 -45
61 -62 -29 -29 -484 -47 -747 -28 -400 28 -656 95 -858 224 -29 18 -63 37 -77
41 -14 4 -36 14 -49 22 -32 21 -24 9 83 -121 98 -119 194 -204 271 -241 95
-45 259 -59 725 -59 358 -1 426 1 492 16 95 21 143 45 185 92 21 22 48 39 75
46 326 83 481 150 668 289 102 75 242 219 319 327 114 161 215 397 240 564 5
36 11 176 13 311 3 245 3 245 -39 330 -31 62 -68 113 -141 194 -113 126 -153
162 -189 171 -62 16 -76 -36 -42 -160 20 -77 21 -87 9 -196 -17 -154 -38 -230
-107 -391 -87 -199 -136 -280 -228 -374 -120 -123 -245 -189 -411 -215 -257
-42 -567 116 -734 373 -33 50 -75 100 -98 117 -80 58 -113 182 -93 344 28 215
137 425 324 622 101 107 189 174 302 229 119 58 216 78 380 78 197 0 330 -44
545 -177 47 -29 129 -77 182 -106 185 -101 300 -223 438 -465 35 -60 85 -140
111 -176 26 -36 57 -87 69 -113 36 -84 70 -244 85 -396 11 -117 25 -179 55
-241 41 -87 54 -177 40 -278 -34 -247 -177 -497 -490 -855 -169 -193 -288
-289 -490 -394 -168 -88 -222 -102 -425 -112 -93 -5 -226 -16 -295 -26 -175
-23 -465 -23 -646 0 -110 14 -147 15 -164 6 -71 -38 58 -108 270 -146 126 -23
408 -20 580 6 318 48 288 46 308 26 16 -16 15 -19 -15 -46 -66 -59 -291 -109
-529 -117 -184 -7 -315 6 -442 43 -116 34 -177 67 -252 139 -36 34 -87 77
-115 95 -27 19 -88 62 -134 97 -88 68 -156 106 -173 101 -15 -5 158 -164 312
-288 180 -144 345 -224 550 -265 106 -22 374 -30 485 -16 167 22 335 77 423
139 15 11 111 65 213 120 299 161 433 257 533 380 120 148 322 412 377 494
165 244 268 515 272 713 2 84 -1 97 -37 184 -37 91 -48 135 -96 396 -32 171
-82 315 -165 478 -132 259 -246 428 -361 538 -33 30 -111 94 -174 141 -440
327 -624 386 -982 314 -130 -26 -140 -27 -188 -13 -51 15 -51 15 -113 -34
-259 -207 -493 -483 -613 -722 -104 -205 -135 -374 -100 -544 25 -123 21 -173
-15 -173 -26 0 -84 90 -114 176 -51 146 -44 225 40 422 114 265 259 480 526
775 121 133 176 208 202 275 35 89 16 124 -50 91 -87 -43 -394 -409 -615 -734
-104 -152 -139 -216 -188 -344 -30 -77 -58 -121 -78 -121 -15 0 -32 49 -32 90
0 109 48 229 136 340 33 41 109 145 168 230 146 208 253 345 359 456 106 111
158 147 250 175 68 20 72 23 261 207 166 162 214 203 365 306 287 196 385 231
686 245 100 4 189 12 199 18 14 8 -10 20 -122 61 -192 70 -315 95 -472 95
-116 1 -131 -1 -215 -32 -131 -47 -239 -103 -330 -170 -193 -143 -206 -150
-285 -165 -97 -19 -155 -44 -260 -114 -103 -68 -293 -254 -379 -372 -100 -134
-244 -355 -310 -475 -87 -157 -121 -250 -132 -363 -5 -52 -22 -142 -39 -200
-39 -138 -41 -255 -6 -352 13 -36 46 -126 74 -201 91 -250 162 -351 297 -422
39 -20 106 -67 150 -104 222 -187 450 -339 582 -389 143 -54 273 -66 429 -39
228 40 439 179 573 378 62 93 83 135 138 276 52 136 67 161 93 161 16 0 20 -7
20 -34 0 -93 -55 -274 -121 -395 -135 -251 -345 -425 -616 -508 -82 -25 -101
-27 -268 -27 -142 -1 -194 3 -245 17 -64 17 -79 26 -216 118 -38 26 -132 84
-209 129 -263 155 -471 317 -577 450 -158 197 -290 541 -292 760 0 92 1 98 45
195 25 55 58 145 73 199 69 245 147 399 403 796 148 229 217 315 324 405 108
90 169 132 324 221 140 80 208 140 225 201 11 34 10 45 0 58 -16 19 -21 18
-96 -9z m56 -481 c23 -27 3 -80 -53 -141 -29 -32 -116 -108 -193 -170 -152
-122 -247 -217 -357 -359 -74 -96 -190 -265 -277 -405 -61 -100 -106 -150
-133 -150 -17 0 -19 5 -14 36 14 87 190 386 358 612 155 207 369 409 588 556
60 41 64 42 81 21z"/>
<path d="M5805 7149 c-103 -13 -224 -53 -267 -89 -100 -83 9 -165 184 -139
184 27 222 30 312 20 99 -12 296 -57 391 -91 52 -19 177 -51 182 -46 4 4 -229
187 -279 219 -198 126 -308 152 -523 126z"/>
<path d="M5833 6791 c-32 -14 -39 -48 -16 -80 11 -14 63 -55 116 -91 128 -86
184 -143 274 -277 95 -143 128 -224 104 -261 -15 -25 -64 12 -164 125 -124
140 -151 166 -341 318 -194 155 -228 178 -325 209 -107 35 -139 39 -212 26
-177 -32 -394 -189 -463 -334 -29 -62 -35 -143 -12 -152 8 -3 48 15 89 40 188
114 288 149 432 148 145 -1 267 -46 446 -163 96 -63 120 -81 272 -206 48 -40
120 -95 160 -121 121 -82 195 -175 332 -417 174 -306 260 -552 315 -901 11
-71 25 -151 31 -179 24 -104 62 -138 75 -68 11 56 -3 396 -20 498 -40 236
-144 504 -336 865 -116 219 -128 250 -141 388 -11 122 -19 142 -93 253 -118
177 -47 198 140 42 44 -36 111 -89 149 -118 39 -28 86 -69 105 -91 44 -49 165
-223 202 -289 41 -74 34 -51 -22 75 -101 229 -214 404 -351 540 -81 82 -127
105 -245 123 -50 8 -147 33 -217 56 -129 42 -244 59 -284 42z"/>
<path d="M6553 6215 c-15 -40 14 -114 151 -394 157 -320 236 -511 285 -691 17
-63 40 -146 51 -185 10 -38 23 -90 28 -115 30 -140 -4 196 -39 387 -50 278
-189 679 -296 857 -74 122 -161 190 -180 141z"/>
<path d="M4965 5855 c-294 -64 -565 -331 -661 -650 -35 -119 -40 -296 -10
-363 15 -33 24 -42 40 -40 33 5 56 60 81 195 35 192 72 284 160 401 146 194
403 300 604 248 226 -58 351 -233 351 -492 0 -239 -124 -470 -298 -556 -59
-29 -76 -33 -152 -33 -71 0 -94 4 -142 27 -44 20 -59 33 -64 54 -8 33 9 49 64
58 31 4 49 18 93 68 115 131 139 196 101 281 -35 80 -127 104 -183 48 -54 -54
-26 -119 45 -106 35 7 36 6 36 -22 0 -60 -72 -113 -153 -113 -145 0 -174 222
-45 347 56 54 99 74 167 80 177 16 302 -164 246 -354 -20 -66 -63 -123 -135
-180 -60 -46 -74 -75 -44 -87 71 -27 190 41 260 150 91 142 105 336 34 474
-81 158 -264 234 -438 181 -222 -67 -358 -266 -379 -551 -10 -149 29 -253 137
-359 164 -161 399 -196 604 -89 97 51 221 182 280 296 91 177 126 314 126 490
0 137 -34 308 -75 377 -54 93 -210 191 -350 220 -85 18 -219 18 -300 0z"/>
<path d="M6329 5029 c-8 -16 -8 -59 1 -170 21 -262 -14 -422 -150 -696 -87
-177 -169 -292 -300 -423 -204 -204 -382 -306 -779 -445 -367 -128 -344 -125
-936 -136 -341 -6 -526 -6 -582 1 -45 6 -100 8 -123 4 -41 -7 -41 -7 -1 -29
21 -13 59 -37 84 -54 56 -38 119 -63 220 -87 77 -18 77 -18 125 7 47 24 50 24
427 30 417 7 477 13 720 75 211 53 336 97 490 174 313 155 584 424 739 735 66
130 181 406 197 471 18 69 6 320 -20 418 -34 128 -81 181 -112 125z"/>
<path d="M7082 4730 c0 -14 2 -19 5 -12 2 6 2 18 0 25 -3 6 -5 1 -5 -13z"/>
<path d="M6521 4332 c-13 -10 -40 -75 -71 -164 -83 -246 -193 -437 -363 -629
-261 -295 -558 -460 -982 -548 -368 -76 -601 -85 -1143 -44 -74 5 -74 5 -70
-23 2 -20 15 -36 42 -55 71 -48 125 -61 269 -64 72 -1 197 -6 277 -10 87 -4
204 -3 293 4 193 15 537 65 656 96 337 89 670 359 942 763 119 178 191 351
211 512 17 131 -11 204 -61 162z"/>
<path d="M6716 3409 c-8 -12 -52 -61 -98 -108 -215 -223 -276 -313 -252 -375
9 -24 24 -19 24 8 0 28 43 91 177 263 104 133 177 233 169 233 -3 0 -12 -10
-20 -21z"/>
<path d="M6245 2754 c-93 -65 -220 -141 -350 -209 -71 -37 -191 -103 -265
-145 -163 -93 -245 -135 -325 -166 -94 -36 -48 -28 67 12 213 74 446 193 648
329 128 86 300 219 278 214 -2 0 -25 -16 -53 -35z"/>
</g>
</svg>
