<?xml version="1.0" standalone="no"?>
<!DOCTYPE svg PUBLIC "-//W3C//DTD SVG 20010904//EN"
 "http://www.w3.org/TR/2001/REC-SVG-20010904/DTD/svg10.dtd">
<svg version="1.0" xmlns="http://www.w3.org/2000/svg"
 width="1000.000000pt" height="1000.000000pt" viewBox="0 0 1000.000000 1000.000000"
 preserveAspectRatio="xMidYMid meet">
<metadata>
  <rdf:RDF
    xmlns:rdf = "http://www.w3.org/1999/02/22-rdf-syntax-ns#"
    xmlns:rdfs = "http://www.w3.org/2000/01/rdf-schema#"
    xmlns:dc = "http://purl.org/dc/elements/1.1/"
    xmlns:cc = "http://creativecommons.org/ns#">
    <cc:license rdf:resource="http://creativecommons.org/publicdomain/zero/1.0/deed.en"/>
    <cc:permits rdf:resource="http://creativecommons.org/ns#Reproduction"/>
    <rdf:Description about="https://nft.mir.one/fingerprints"
      dc:title="TON Fingerprints"
      dc:description="This is a unique digital fingerprint created based on the algorithm for generating basic rings using a noise texture. Like human fingerprints, you can now use it for the Web3 and Metaverse era as digital biometric information."
      dc:publisher="https://nft.mir.one"
      dc:date="2022-02-22"
      dc:format="image/svg+xml"
      dc:language="en" >
      <dc:creator>
      <rdf:Bag>
        <rdf:li>EQBondcvD2_aOFADXSWJHs4ZazQDuEl9_wNvGGPxI8hGuOFU</rdf:li>
        <rdf:li>ipfs://bafkreihj7iub3fhmhq6jn62noukt5wxn3gv6bvcg7wmt6ywvlurefezckq</rdf:li>
      </rdf:Bag>
      </dc:creator>
    </rdf:Description>
  </rdf:RDF>
</metadata>
<g transform="translate(0.000000,1000.000000) scale(0.100000,-0.100000)"
fill="#1b1f23" stroke="none">
<path d="M5068 7694 c-31 -9 -2 -40 49 -54 86 -21 285 -60 310 -60 34 0 27 29
-13 52 -64 38 -291 78 -346 62z"/>
<path d="M4631 7639 c-30 -5 -93 -25 -141 -45 -48 -19 -143 -52 -211 -74 -68
-21 -189 -61 -269 -90 -145 -51 -145 -51 -25 -47 98 3 162 14 345 55 265 60
326 70 480 74 107 3 118 1 147 -20 81 -57 249 -111 398 -127 117 -13 235 -36
312 -61 117 -38 334 -147 567 -284 115 -67 232 -130 260 -140 28 -10 60 -21
71 -26 11 -4 -2 11 -30 33 -27 22 -95 79 -150 127 -278 244 -533 402 -789 488
-91 30 -91 30 -162 12 -63 -15 -80 -16 -150 -5 -43 7 -122 26 -174 43 -63 19
-106 27 -127 23 -27 -5 -35 -1 -54 25 -13 17 -38 34 -58 40 -43 12 -165 11
-240 -1z"/>
<path d="M4535 7349 c-126 -13 -233 -38 -320 -74 -44 -18 -120 -40 -170 -50
-98 -18 -266 -74 -388 -128 -77 -35 -77 -35 -33 -46 25 -6 100 -11 168 -11
133 0 286 -19 358 -45 108 -39 243 -66 451 -90 259 -30 543 -77 817 -135 249
-52 332 -53 332 -6 0 67 -190 139 -567 215 -247 50 -360 66 -593 86 -206 17
-284 30 -317 51 -32 20 -30 52 5 61 15 5 142 8 282 7 278 0 316 -5 668 -80
332 -71 468 -125 617 -243 69 -55 126 -87 254 -147 232 -107 386 -185 526
-264 66 -38 138 -71 159 -75 39 -6 39 -6 -30 70 -163 183 -296 289 -494 395
-74 40 -198 109 -275 153 -253 146 -371 190 -660 251 -93 19 -226 49 -295 65
-210 51 -310 59 -495 40z"/>
<path d="M3672 6894 c-57 -15 -162 -63 -256 -118 -59 -34 -59 -34 -23 -41 19
-4 100 -2 179 5 274 22 495 -27 486 -109 -3 -24 -6 -26 -43 -23 -124 9 -474 6
-510 -5 -57 -17 -151 -76 -244 -153 -80 -65 -80 -65 -47 -68 19 -2 107 15 197
37 230 57 351 74 457 67 164 -13 158 -13 200 25 60 57 64 58 178 75 142 21
401 22 509 1 276 -53 392 -72 708 -117 393 -57 455 -69 677 -139 85 -27 189
-59 230 -71 118 -33 131 -40 128 -64 -2 -13 -20 -30 -48 -44 -70 -36 -175 -27
-361 32 -279 87 -473 126 -919 181 -178 22 -236 34 -340 68 -117 38 -132 40
-245 40 -136 1 -170 -9 -262 -71 -32 -22 -81 -51 -110 -66 -29 -14 -105 -58
-170 -97 -158 -95 -300 -162 -533 -254 -107 -43 -225 -92 -261 -110 -76 -39
-151 -114 -223 -226 -27 -41 -60 -87 -75 -103 -26 -28 -26 -28 6 -12 18 9 37
16 43 16 6 0 53 25 105 55 126 74 234 123 460 207 209 78 254 99 346 158 74
48 141 80 229 111 58 20 92 23 305 29 227 6 247 8 370 40 130 33 130 33 320
27 364 -11 708 -88 983 -222 132 -65 234 -154 246 -215 38 -185 90 -259 409
-572 144 -141 274 -264 289 -272 26 -16 26 -16 -9 81 -87 245 -122 301 -266
434 -203 187 -327 313 -327 331 0 80 182 -15 421 -220 103 -88 176 -140 183
-130 7 9 -131 252 -176 312 -62 81 -125 123 -285 187 -101 40 -153 74 -153 98
0 20 47 35 110 34 77 -1 162 -28 280 -88 97 -50 158 -72 142 -52 -5 6 -38 50
-73 96 -83 112 -183 213 -239 241 -25 12 -73 49 -107 81 -95 89 -244 163 -523
261 -114 40 -117 40 -310 49 -169 7 -236 15 -505 63 -371 65 -479 81 -690 101
-215 21 -264 29 -442 75 -84 22 -189 42 -235 45 -46 3 -94 8 -108 9 -14 2 -49
-2 -78 -10z m1003 -554 c44 -7 77 -17 89 -29 18 -19 18 -19 -10 -37 -23 -16
-52 -20 -160 -22 -145 -4 -204 10 -204 46 0 24 18 32 95 42 88 11 113 11 190
0z"/>
<path d="M3800 6389 c-169 -44 -382 -106 -442 -129 -73 -27 -155 -97 -249
-211 -79 -97 -79 -97 -31 -84 26 7 82 29 126 49 43 20 185 76 315 125 295 110
357 139 410 186 32 29 41 44 39 64 -4 36 -31 36 -168 0z"/>
<path d="M4945 6019 c-277 -30 -374 -39 -442 -39 -272 0 -513 -61 -521 -133
-6 -49 7 -50 464 -38 231 6 460 16 509 22 330 38 484 26 731 -56 140 -46 264
-111 428 -222 155 -105 179 -112 184 -51 4 43 -20 95 -73 158 -147 176 -487
316 -870 360 -102 11 -305 11 -410 -1z"/>
<path d="M5183 5720 c-28 -4 -77 -22 -108 -40 -58 -33 -58 -33 -429 -21 -508
15 -563 19 -681 42 -99 19 -108 20 -197 4 -200 -34 -592 -190 -667 -265 -51
-52 -111 -146 -152 -242 -22 -49 -39 -92 -39 -95 0 -3 35 28 78 68 121 116
296 209 534 283 228 72 348 79 738 46 445 -38 561 -57 767 -121 167 -53 605
-159 666 -162 33 -1 51 2 57 13 13 21 13 24 -12 55 -33 43 -163 98 -363 155
-99 28 -200 61 -225 73 -51 26 -82 69 -63 88 24 24 366 -47 528 -110 45 -17
138 -66 208 -110 70 -43 180 -102 244 -131 145 -66 206 -103 261 -164 49 -53
57 -70 67 -146 4 -30 18 -74 32 -98 27 -48 24 -77 -10 -86 -32 -8 -156 20
-292 66 -140 47 -155 54 -155 73 0 39 95 46 207 14 93 -26 137 -23 141 9 10
69 -193 171 -430 217 -65 12 -82 12 -129 0 -74 -20 -152 -19 -294 5 -66 11
-190 31 -276 45 -86 14 -217 39 -290 55 -148 33 -636 112 -805 131 -200 21
-411 -5 -632 -78 -189 -62 -355 -145 -436 -218 -45 -40 -43 -61 7 -70 40 -8
99 8 332 88 239 82 369 109 552 115 176 5 213 -1 328 -58 72 -36 96 -42 235
-60 147 -20 332 -55 520 -99 102 -25 144 -26 200 -6 23 8 75 15 116 15 111 0
480 -77 554 -115 16 -8 45 -39 64 -67 42 -64 95 -100 241 -169 171 -80 242
-125 333 -213 99 -95 197 -222 287 -372 36 -59 66 -110 67 -113 2 -3 17 -18
34 -34 31 -27 31 -27 23 35 -4 35 -12 104 -18 153 -23 193 -37 221 -216 445
-150 187 -147 182 -141 257 8 101 38 130 83 81 22 -24 183 -235 288 -378 65
-87 133 -151 121 -114 -3 11 -12 53 -21 94 -23 110 -54 217 -81 278 -29 67
-139 182 -249 262 -44 32 -129 109 -190 170 -142 144 -174 166 -261 180 -72
11 -106 27 -364 163 -253 133 -517 201 -687 177z"/>
<path d="M3845 5079 c-120 -16 -293 -59 -490 -120 -104 -33 -209 -65 -233 -71
-52 -13 -101 -65 -158 -170 -40 -74 -40 -74 0 -67 23 3 72 21 110 38 98 46
399 145 565 185 78 20 211 47 294 61 183 30 217 39 251 66 31 25 33 40 5 65
-18 16 -39 19 -148 21 -69 1 -157 -3 -196 -8z"/>
<path d="M5213 4903 c-18 -3 -23 -11 -23 -33 0 -43 66 -95 231 -180 79 -41
197 -107 263 -146 74 -43 158 -84 216 -103 52 -18 127 -51 165 -73 98 -58 264
-226 347 -353 113 -173 162 -305 193 -524 9 -63 25 -135 34 -159 18 -45 18
-45 25 14 3 32 20 131 37 219 46 235 40 278 -69 460 -138 232 -308 392 -557
525 -44 24 -134 76 -200 115 -150 90 -179 105 -285 143 -195 71 -326 104 -377
95z"/>
<path d="M4325 4883 c-11 -2 -69 -15 -130 -29 -60 -13 -194 -40 -297 -59 -303
-57 -711 -187 -787 -251 -34 -29 -72 -90 -101 -165 -12 -30 -28 -62 -37 -71
-13 -15 -9 -14 37 3 29 11 85 38 124 59 217 119 571 232 866 277 155 23 403
23 530 0 368 -68 526 -123 725 -255 196 -130 330 -272 500 -527 108 -162 178
-298 228 -441 77 -220 104 -464 74 -664 -9 -58 -18 -130 -22 -160 -6 -55 -6
-55 64 65 86 146 132 265 138 361 11 143 -76 464 -181 674 -30 60 -110 192
-179 292 -68 101 -137 208 -153 237 -65 122 -162 201 -489 402 -268 164 -379
208 -620 244 -93 14 -244 18 -290 8z"/>
<path d="M3970 4504 c-254 -46 -568 -148 -750 -245 -63 -34 -93 -75 -135 -189
-15 -41 -32 -81 -38 -88 -6 -8 0 -7 19 3 16 8 33 15 37 15 4 0 34 17 65 39 87
58 139 82 367 164 340 123 489 157 614 143 56 -7 261 -61 294 -78 39 -20 16
-68 -60 -124 -21 -16 -59 -46 -85 -67 -26 -21 -116 -77 -199 -123 -84 -47
-179 -104 -213 -126 -124 -85 -337 -313 -389 -418 -20 -40 -22 -62 -24 -198
-1 -175 -10 -176 87 8 65 125 130 208 240 313 117 111 265 210 464 308 237
116 309 131 526 108 91 -10 110 -10 143 4 70 30 46 71 -91 161 -104 67 -129
94 -147 165 -11 44 -15 47 -125 113 -164 98 -208 110 -410 114 -91 1 -176 0
-190 -2z"/>
<path d="M4807 4389 c-21 -3 -48 -16 -60 -28 -22 -22 -22 -22 8 -46 16 -13 58
-41 94 -62 96 -56 155 -106 202 -170 48 -66 55 -73 164 -150 220 -155 381
-370 464 -619 87 -259 80 -553 -18 -768 -36 -79 -136 -233 -175 -270 -41 -39
-18 -25 76 46 104 79 192 169 257 262 88 128 95 153 95 351 1 106 -4 197 -13
240 -78 397 -337 784 -714 1066 -146 109 -287 164 -380 148z"/>
<path d="M5850 4306 c-18 -23 15 -86 107 -201 223 -282 317 -483 397 -857 20
-92 36 -175 36 -185 0 -20 32 -103 40 -103 13 0 53 226 58 325 4 99 1 122 -27
232 -67 263 -170 455 -343 639 -126 133 -232 193 -268 150z"/>
<path d="M3975 4205 c-110 -29 -185 -59 -329 -133 -106 -53 -115 -56 -191 -57
-123 -1 -201 -48 -244 -145 -11 -25 -24 -74 -31 -110 -6 -36 -13 -78 -16 -93
-5 -23 11 -10 86 73 104 114 226 223 243 217 7 -2 13 -20 15 -39 3 -37 3 -37
-130 -209 -39 -52 -72 -159 -82 -271 -6 -67 -6 -67 22 -38 16 16 46 53 67 82
72 100 273 344 319 386 73 68 173 127 332 197 152 68 194 95 194 126 0 45
-114 52 -255 14z"/>
<path d="M4527 3754 c-181 -32 -439 -161 -632 -317 -86 -69 -139 -128 -201
-221 -34 -51 -39 -67 -43 -130 -2 -39 2 -116 10 -170 13 -99 13 -99 46 -5 85
245 169 347 336 409 33 12 128 57 212 100 181 93 261 115 395 108 74 -3 98 -9
154 -37 77 -38 176 -125 212 -188 49 -82 8 -95 -114 -34 -164 82 -276 96 -407
52 -84 -29 -166 -103 -184 -167 -47 -166 -68 -421 -43 -510 14 -49 48 -100 82
-126 14 -10 80 -32 145 -49 181 -46 260 -34 348 50 53 50 79 104 85 178 6 81
-11 141 -56 194 -44 51 -101 78 -165 79 -62 0 -105 -19 -144 -63 -62 -71 -62
-165 -1 -210 23 -18 31 -19 54 -8 21 9 25 16 20 37 -14 56 55 76 93 28 26 -33
27 -70 1 -111 -50 -82 -188 -89 -274 -14 -40 36 -60 92 -59 176 0 143 66 258
175 306 132 58 355 -1 444 -118 114 -149 84 -418 -62 -566 -54 -55 -100 -81
-181 -102 -118 -31 -215 -14 -322 55 -95 62 -101 26 -6 -38 81 -55 171 -77
310 -77 131 1 196 15 295 65 98 50 139 113 197 305 27 89 24 314 -5 410 -11
39 -36 122 -55 185 -38 131 -51 158 -117 249 -62 86 -72 108 -65 131 15 48
105 2 197 -100 136 -150 230 -444 215 -674 -7 -113 -33 -215 -87 -341 -49
-115 -58 -156 -37 -173 11 -10 31 6 113 91 89 91 103 110 128 177 57 155 75
298 57 447 -38 306 -206 600 -398 695 -62 30 -62 30 -325 33 -189 2 -285 -1
-341 -11z"/>
<path d="M3970 3165 c-41 -31 -91 -99 -120 -167 -19 -45 -22 -64 -17 -128 3
-41 19 -118 35 -170 29 -94 29 -94 41 -5 26 205 55 302 122 405 22 34 38 69
35 76 -8 22 -59 16 -96 -11z"/>
<path d="M4123 3143 c-15 -5 -66 -163 -89 -273 -9 -46 -13 -92 -9 -119 10 -63
50 -170 96 -254 39 -72 39 -72 39 -14 0 32 -5 99 -10 150 -10 92 -7 145 21
360 11 85 11 102 -1 124 -16 28 -27 34 -47 26z"/>
</g>
</svg>
