<?xml version="1.0" standalone="no"?>
<!DOCTYPE svg PUBLIC "-//W3C//DTD SVG 20010904//EN"
 "http://www.w3.org/TR/2001/REC-SVG-20010904/DTD/svg10.dtd">
<svg version="1.0" xmlns="http://www.w3.org/2000/svg"
 width="1000.000000pt" height="1000.000000pt" viewBox="0 0 1000.000000 1000.000000"
 preserveAspectRatio="xMidYMid meet">
<metadata>
  <rdf:RDF
    xmlns:rdf = "http://www.w3.org/1999/02/22-rdf-syntax-ns#"
    xmlns:rdfs = "http://www.w3.org/2000/01/rdf-schema#"
    xmlns:dc = "http://purl.org/dc/elements/1.1/"
    xmlns:cc = "http://creativecommons.org/ns#">
    <cc:license rdf:resource="http://creativecommons.org/publicdomain/zero/1.0/deed.en"/>
    <cc:permits rdf:resource="http://creativecommons.org/ns#Reproduction"/>
    <rdf:Description about="https://nft.mir.one/fingerprints"
      dc:title="TON Fingerprints"
      dc:description="This is a unique digital fingerprint created based on the algorithm for generating basic rings using a noise texture. Like human fingerprints, you can now use it for the Web3 and Metaverse era as digital biometric information."
      dc:publisher="https://nft.mir.one"
      dc:date="2022-02-22"
      dc:format="image/svg+xml"
      dc:language="en" >
      <dc:creator>
      <rdf:Bag>
        <rdf:li>EQBondcvD2_aOFADXSWJHs4ZazQDuEl9_wNvGGPxI8hGuOFU</rdf:li>
        <rdf:li>ipfs://bafkreihj7iub3fhmhq6jn62noukt5wxn3gv6bvcg7wmt6ywvlurefezckq</rdf:li>
      </rdf:Bag>
      </dc:creator>
    </rdf:Description>
  </rdf:RDF>
</metadata>
<g transform="translate(0.000000,1000.000000) scale(0.100000,-0.100000)"
fill="#1b1f23" stroke="none">
<path d="M4633 7773 c9 -2 23 -2 30 0 6 3 -1 5 -18 5 -16 0 -22 -2 -12 -5z"/>
<path d="M4740 7754 c30 -7 132 -29 225 -49 251 -53 559 -133 645 -167 104
-41 164 -79 245 -158 39 -37 93 -78 120 -92 66 -33 200 -75 249 -77 21 -1 56
-11 77 -22 22 -10 39 -17 39 -15 0 12 -138 101 -227 148 -54 28 -147 83 -208
123 -146 96 -185 118 -280 156 -204 82 -675 171 -884 168 -56 -1 -56 -1 -1
-15z"/>
<path d="M4490 7609 c-58 -5 -170 -22 -250 -38 -145 -28 -145 -28 -50 -34 52
-4 160 -9 240 -12 186 -8 390 -30 560 -61 123 -23 214 -45 608 -149 101 -27
138 -33 153 -25 64 35 -43 112 -241 174 -227 72 -503 129 -705 146 -134 11
-165 11 -315 -1z"/>
<path d="M4305 7413 c-134 -12 -325 -67 -490 -143 -90 -41 -90 -41 -15 -35 41
4 100 10 130 15 275 46 823 33 1125 -26 93 -18 156 -37 239 -71 84 -35 191
-53 314 -53 120 0 174 17 180 57 4 30 -23 42 -126 54 -95 11 -226 39 -427 94
-224 60 -489 97 -785 108 -58 2 -123 2 -145 0z"/>
<path d="M4116 7159 c-157 -14 -239 -33 -336 -80 -90 -43 -140 -82 -140 -110
0 -15 6 -15 88 1 212 44 622 75 852 65 58 -3 214 -10 347 -16 261 -12 313 -7
313 32 0 43 -86 67 -330 94 -175 19 -643 27 -794 14z"/>
<path d="M5805 7019 c-91 -28 -118 -31 -300 -39 -177 -7 -206 -10 -255 -31
-55 -23 -57 -24 -610 -30 -392 -4 -604 -11 -720 -22 -93 -10 -194 -14 -232
-10 -59 5 -73 3 -120 -20 -42 -21 -169 -119 -241 -187 -10 -9 56 6 138 32 124
39 581 67 1270 79 286 5 552 13 590 18 39 5 248 13 465 17 217 4 405 11 418
15 31 12 48 52 34 83 -27 60 -148 115 -267 122 -57 3 -88 -2 -170 -27z"/>
<path d="M5349 6686 c-4 -4 -287 -11 -630 -16 -661 -9 -934 -24 -1111 -60 -55
-12 -117 -30 -138 -40 -56 -28 -174 -127 -265 -220 -92 -94 -101 -94 125 11
232 108 348 130 783 154 329 17 1198 20 1424 5 179 -12 240 -26 486 -111 243
-84 321 -116 462 -190 74 -39 147 -68 224 -89 63 -17 118 -33 123 -36 4 -3 26
3 48 12 40 18 40 18 6 53 -18 20 -53 63 -77 96 -109 152 -269 323 -325 350
-55 26 -162 45 -259 45 -49 0 -169 7 -265 15 -201 17 -602 31 -611 21z"/>
<path d="M4340 6407 c-3 -3 -131 -10 -286 -16 -167 -6 -314 -17 -363 -26 -151
-29 -335 -104 -417 -170 -57 -47 -141 -153 -213 -268 -58 -93 -59 -97 -29 -75
18 12 62 50 98 82 141 129 279 210 461 270 185 62 282 67 340 19 29 -25 29
-25 146 -4 259 45 499 53 743 25 87 -9 283 -17 550 -21 416 -6 416 -6 445 20
35 30 30 47 -24 84 -58 40 -158 54 -436 63 -389 13 -1009 23 -1015 17z"/>
<path d="M3885 6183 c-59 -8 -214 -53 -301 -89 -209 -84 -336 -168 -378 -253
-13 -26 -56 -80 -94 -120 -54 -57 -74 -73 -90 -69 -27 7 -35 -14 -16 -41 20
-29 44 -27 236 14 197 43 250 60 578 185 246 95 370 136 475 159 146 32 373
51 433 35 32 -9 28 -41 -8 -63 -31 -18 -67 -27 -320 -76 -173 -34 -296 -72
-635 -195 -152 -55 -360 -125 -463 -156 -103 -30 -197 -62 -210 -70 -25 -16
-103 -118 -133 -174 -11 -19 -26 -44 -34 -56 -15 -21 -15 -21 27 -14 24 3 61
16 83 27 134 69 652 268 965 371 198 65 300 92 530 142 80 18 195 47 256 65
154 47 213 55 416 55 154 0 190 3 280 25 208 50 440 21 607 -77 83 -49 234
-205 356 -368 60 -80 152 -190 205 -245 108 -112 122 -139 166 -322 51 -211
80 -502 54 -543 -7 -11 -15 -12 -37 -4 -40 14 -74 91 -122 281 -71 277 -117
377 -273 585 -169 224 -302 362 -436 451 -163 107 -437 172 -492 117 -37 -37
-2 -72 155 -155 270 -142 426 -276 594 -510 137 -190 195 -319 286 -639 79
-279 89 -342 82 -504 -9 -198 -55 -368 -154 -571 -76 -156 -159 -277 -262
-379 -114 -115 -208 -180 -431 -300 -102 -55 -225 -123 -274 -152 -110 -63
-220 -110 -346 -145 -52 -14 -154 -46 -227 -71 -236 -80 -342 -72 -688 50 -11
4 -4 -2 15 -12 55 -31 226 -88 336 -112 128 -28 286 -32 330 -8 17 9 106 31
197 47 229 42 325 75 466 159 64 38 179 106 256 152 367 216 578 425 763 755
122 218 234 571 267 847 6 44 15 68 41 101 62 80 67 129 60 612 -4 231 -11
445 -17 475 -24 128 -87 280 -184 445 -72 122 -128 161 -170 118 -35 -34 -14
-101 102 -331 105 -206 108 -215 108 -279 0 -68 -14 -93 -46 -81 -8 3 -97 144
-199 313 -103 172 -205 331 -232 361 -86 93 -214 164 -336 185 -49 9 -71 7
-141 -11 -128 -32 -278 -43 -636 -44 -330 -1 -330 -1 -439 32 -99 29 -121 32
-240 32 -242 0 -387 -32 -596 -129 -182 -86 -543 -229 -601 -239 -61 -10 -89
-5 -89 19 0 24 165 108 390 199 241 97 300 132 300 180 0 20 -4 21 -65 13z"/>
<path d="M6867 5976 c-14 -37 33 -124 106 -194 44 -44 44 -44 -17 82 -58 120
-77 143 -89 112z"/>
<path d="M4800 5655 c-356 -58 -582 -113 -868 -210 -321 -109 -536 -203 -740
-324 -118 -69 -119 -70 -180 -164 -49 -73 -65 -106 -72 -151 -5 -32 -12 -68
-15 -79 -4 -12 9 5 28 38 19 33 46 67 61 75 25 14 28 13 42 -5 17 -22 15 -51
-17 -204 -17 -84 -59 -324 -59 -338 0 -3 12 12 27 33 39 57 125 243 172 373
23 63 51 132 63 155 50 98 210 227 379 305 112 51 501 184 664 226 176 45 312
64 555 78 288 15 344 14 410 -11 235 -91 572 -369 724 -600 156 -234 214 -468
143 -574 -32 -47 -63 -49 -82 -4 -8 19 -15 46 -15 59 0 35 -44 165 -85 252
-102 214 -263 392 -547 604 -217 162 -288 197 -326 159 -20 -20 -14 -38 33
-90 93 -103 41 -117 -123 -32 -130 67 -188 78 -362 70 -179 -8 -335 -46 -580
-139 -58 -21 -153 -52 -212 -68 -120 -31 -166 -52 -253 -114 -130 -92 -202
-190 -306 -415 -36 -80 -80 -174 -97 -210 -47 -100 -62 -194 -61 -382 1 -90 4
-152 6 -138 2 14 10 45 18 70 7 25 21 80 30 122 21 102 68 196 101 204 14 4
28 4 31 1 3 -3 -4 -57 -16 -119 -12 -66 -21 -153 -21 -208 0 -233 79 -517 216
-780 66 -128 109 -187 54 -75 -42 85 -98 271 -127 420 -14 73 -17 150 -18 410
-1 222 -5 329 -13 348 -27 65 -7 154 73 323 57 123 114 205 200 290 153 152
291 164 163 13 -154 -180 -242 -323 -283 -459 -32 -107 -45 -494 -24 -737 29
-354 116 -543 363 -789 222 -220 474 -356 746 -400 118 -19 209 -13 368 26
213 52 350 108 558 226 72 40 169 87 217 103 130 43 217 100 333 215 117 117
133 146 229 407 95 260 108 337 102 584 -12 477 -124 801 -377 1094 -131 151
-299 281 -610 469 -159 97 -326 114 -620 67z m90 -578 c74 -20 176 -42 226
-50 242 -39 488 -255 670 -589 80 -145 113 -189 178 -237 57 -43 72 -73 64
-135 -2 -23 -11 -31 -43 -41 -56 -19 -97 -71 -171 -216 -154 -303 -339 -539
-525 -672 -86 -61 -232 -130 -334 -157 -114 -31 -331 -39 -446 -15 -240 48
-431 172 -583 377 -129 172 -126 169 -149 166 -20 -3 -22 -9 -21 -60 3 -129
174 -359 365 -489 290 -197 634 -235 978 -110 229 84 334 170 650 534 51 60
111 119 132 133 53 33 51 62 -2 34 -34 -19 -24 28 10 48 64 36 128 187 138
324 6 85 19 106 51 89 94 -50 115 -216 47 -382 -33 -82 -67 -125 -166 -212
-101 -89 -248 -245 -330 -353 -83 -109 -123 -148 -204 -204 -97 -65 -199 -115
-318 -155 -166 -55 -245 -68 -407 -68 -124 0 -159 4 -243 26 -357 95 -671 367
-778 674 -14 40 -23 102 -29 203 -5 80 -14 192 -21 250 -15 132 -6 354 20 475
34 167 100 292 273 526 98 133 139 171 233 217 239 119 465 140 735 69z m1214
-1774 c-3 -68 -172 -256 -308 -345 -63 -41 -81 -46 -89 -25 -10 28 27 76 186
240 135 140 168 168 188 165 20 -2 24 -8 23 -35z"/>
<path d="M4420 4959 c-237 -62 -424 -225 -565 -493 -121 -229 -151 -539 -74
-773 15 -47 35 -78 82 -130 34 -37 95 -107 136 -155 176 -211 366 -305 636
-315 74 -3 161 -1 202 6 103 16 235 64 327 118 98 59 242 198 314 305 111 164
206 391 218 524 19 217 -169 538 -413 703 -81 54 -128 74 -293 126 -74 24
-173 57 -220 74 -73 26 -98 31 -180 30 -61 0 -122 -7 -170 -20z m308 -141 c38
-31 2 -57 -138 -103 -135 -44 -223 -88 -302 -150 -121 -95 -226 -258 -263
-410 -23 -91 -23 -240 0 -325 49 -188 229 -403 377 -449 42 -14 78 -2 78 26 0
9 -48 62 -107 118 -167 159 -224 274 -224 450 0 167 49 283 171 405 57 57 97
87 165 122 98 50 244 100 349 119 239 44 518 -166 591 -446 31 -120 13 -282
-49 -448 -76 -200 -165 -303 -334 -387 -133 -65 -259 -84 -487 -71 -183 11
-230 24 -331 97 -117 83 -260 271 -303 399 -36 104 -41 297 -12 419 23 95 80
227 130 300 102 148 258 268 416 320 103 33 239 40 273 14z"/>
<path d="M4666 4425 c-161 -41 -309 -151 -368 -274 -27 -57 -33 -79 -36 -161
-7 -168 40 -263 208 -423 130 -123 159 -139 270 -145 183 -9 393 86 450 202
17 36 19 49 10 65 -15 29 -30 27 -110 -15 -57 -30 -86 -39 -167 -47 -176 -19
-250 -16 -316 15 -206 97 -290 354 -159 491 37 39 56 48 121 57 31 5 85 14
121 21 57 10 73 10 125 -5 113 -33 190 -148 170 -254 -4 -20 -20 -69 -37 -109
-56 -136 -22 -155 128 -72 110 61 138 97 155 199 27 169 -71 350 -234 430 -62
30 -78 34 -170 36 -67 2 -122 -2 -161 -11z"/>
<path d="M4552 4118 c-58 -28 -88 -143 -58 -222 34 -89 134 -148 214 -126 93
25 136 148 73 211 -48 48 -107 32 -120 -33 -5 -23 -13 -34 -28 -36 -34 -5 -45
29 -41 125 3 91 -1 99 -40 81z"/>
<path d="M5894 2464 c-18 -14 -18 -15 4 -4 12 6 22 13 22 15 0 8 -5 6 -26 -11z"/>
<path d="M5780 2405 c-25 -13 -41 -24 -37 -25 11 0 87 39 87 45 0 7 0 7 -50
-20z"/>
<path d="M5705 2370 c-3 -6 1 -7 9 -4 18 7 21 14 7 14 -6 0 -13 -4 -16 -10z"/>
</g>
</svg>
