<?xml version="1.0" standalone="no"?>
<!DOCTYPE svg PUBLIC "-//W3C//DTD SVG 20010904//EN"
 "http://www.w3.org/TR/2001/REC-SVG-20010904/DTD/svg10.dtd">
<svg version="1.0" xmlns="http://www.w3.org/2000/svg"
 width="1000.000000pt" height="1000.000000pt" viewBox="0 0 1000.000000 1000.000000"
 preserveAspectRatio="xMidYMid meet">
<metadata>
  <rdf:RDF
    xmlns:rdf = "http://www.w3.org/1999/02/22-rdf-syntax-ns#"
    xmlns:rdfs = "http://www.w3.org/2000/01/rdf-schema#"
    xmlns:dc = "http://purl.org/dc/elements/1.1/"
    xmlns:cc = "http://creativecommons.org/ns#">
    <cc:license rdf:resource="http://creativecommons.org/publicdomain/zero/1.0/deed.en"/>
    <cc:permits rdf:resource="http://creativecommons.org/ns#Reproduction"/>
    <rdf:Description about="https://nft.mir.one/fingerprints"
      dc:title="TON Fingerprints"
      dc:description="This is a unique digital fingerprint created based on the algorithm for generating basic rings using a noise texture. Like human fingerprints, you can now use it for the Web3 and Metaverse era as digital biometric information."
      dc:publisher="https://nft.mir.one"
      dc:date="2022-02-22"
      dc:format="image/svg+xml"
      dc:language="en" >
      <dc:creator>
      <rdf:Bag>
        <rdf:li>EQBondcvD2_aOFADXSWJHs4ZazQDuEl9_wNvGGPxI8hGuOFU</rdf:li>
        <rdf:li>ipfs://bafkreihj7iub3fhmhq6jn62noukt5wxn3gv6bvcg7wmt6ywvlurefezckq</rdf:li>
      </rdf:Bag>
      </dc:creator>
    </rdf:Description>
  </rdf:RDF>
</metadata>
<g transform="translate(0.000000,1000.000000) scale(0.100000,-0.100000)"
fill="#1b1f23" stroke="none">
<path d="M4875 7744 c-203 -27 -428 -85 -652 -167 -99 -37 -223 -93 -158 -72
11 4 73 13 139 21 65 7 195 34 290 58 237 62 383 91 578 116 92 11 193 25 225
30 32 6 78 10 103 11 41 1 42 2 15 9 -51 13 -433 9 -540 -6z"/>
<path d="M5165 7564 c-247 -26 -506 -89 -674 -165 -99 -45 -125 -69 -170 -161
-57 -117 -110 -183 -348 -432 -241 -254 -250 -264 -389 -488 -201 -322 -321
-569 -414 -847 -163 -487 -158 -738 23 -1306 30 -93 60 -204 67 -245 7 -41 23
-111 36 -154 18 -59 21 -82 13 -93 -6 -7 -16 -13 -21 -13 -5 0 -47 36 -93 80
-46 44 -86 80 -90 80 -9 0 93 -147 149 -214 28 -33 82 -101 120 -149 81 -105
194 -220 238 -243 25 -13 32 -14 39 -2 24 36 -7 97 -115 226 -141 169 -139
163 -141 365 -3 172 -3 172 -45 287 -113 309 -151 443 -175 613 -28 196 -18
294 44 427 22 47 59 148 84 225 73 230 243 575 410 831 77 118 88 140 116 224
39 118 133 216 233 241 32 9 80 37 145 87 113 86 153 106 243 122 36 6 146 38
245 70 344 113 470 134 785 134 344 0 573 -40 890 -154 115 -41 220 -65 198
-45 -7 7 -62 50 -123 97 -129 101 -293 195 -402 231 -108 35 -310 57 -536 57
-213 0 -329 -10 -503 -45 -160 -32 -269 -71 -440 -157 -139 -70 -174 -78 -174
-42 0 56 95 158 203 218 115 63 305 120 507 151 142 22 520 31 675 16 66 -7
174 -14 240 -17 120 -5 120 -5 -25 51 -239 92 -426 132 -655 139 -71 2 -148 2
-170 0z"/>
<path d="M4148 7345 c-49 -18 -155 -87 -281 -183 -64 -48 -125 -86 -163 -100
-77 -28 -181 -116 -288 -243 -79 -94 -79 -94 -10 -28 71 68 197 165 252 193
42 22 82 21 82 -1 0 -19 -17 -40 -158 -209 -178 -212 -325 -464 -444 -759
-125 -312 -209 -707 -222 -1040 -4 -123 -4 -121 15 50 13 118 71 353 138 555
114 342 296 683 535 1000 60 80 117 163 126 185 10 22 38 57 63 78 26 21 67
64 92 97 25 32 113 120 195 195 163 148 190 183 164 209 -19 19 -46 19 -96 1z"/>
<path d="M5350 6914 c-210 -13 -400 -52 -617 -124 -172 -58 -297 -115 -370
-171 -29 -21 -96 -94 -150 -161 -75 -93 -119 -138 -188 -190 -49 -37 -109 -88
-133 -114 -68 -75 -153 -211 -248 -397 -48 -95 -109 -210 -136 -256 -62 -105
-85 -163 -98 -244 -9 -57 -6 -91 30 -303 45 -270 73 -385 131 -529 75 -189
182 -349 328 -495 115 -113 201 -151 201 -88 0 23 -17 46 -160 214 -174 206
-288 432 -349 691 -50 213 -65 442 -36 540 18 60 49 103 76 103 23 0 25 -31 7
-161 -29 -218 53 -584 184 -829 56 -103 143 -228 229 -330 39 -47 96 -117 125
-157 64 -86 117 -130 267 -219 62 -37 139 -86 172 -109 84 -59 151 -91 238
-114 126 -33 232 -44 351 -38 121 7 198 25 361 87 113 43 172 51 182 24 3 -9
2 -24 -4 -33 -20 -33 -131 -114 -208 -152 -192 -95 -368 -107 -650 -44 -154
34 -185 38 -330 39 -160 2 -160 2 -313 54 -85 29 -164 52 -175 52 -64 -1 -60
-53 8 -100 64 -44 156 -85 256 -114 85 -24 133 -32 365 -61 169 -21 245 -46
284 -93 30 -37 30 -37 118 -34 114 4 276 28 360 54 194 60 329 184 388 359 30
89 39 106 123 223 84 116 175 297 228 451 38 110 38 110 37 270 -1 192 -26
413 -60 533 -84 294 -378 688 -597 799 -181 91 -386 103 -578 33 -199 -72
-356 -234 -404 -416 -61 -229 48 -554 226 -673 72 -48 110 -61 205 -68 87 -7
167 14 241 62 90 59 133 138 133 244 0 72 -12 115 -50 174 -37 59 -39 84 -4
93 64 16 164 -72 201 -178 28 -83 25 -208 -9 -280 -68 -147 -218 -234 -423
-245 -168 -9 -295 35 -401 142 -50 49 -73 85 -123 185 -203 416 -178 691 88
945 249 239 675 301 976 142 119 -64 295 -270 522 -612 176 -266 182 -285 212
-648 11 -124 22 -161 57 -184 18 -12 24 -11 46 7 63 49 88 236 70 518 -7 103
-12 237 -11 297 0 61 -4 130 -10 155 -42 180 -137 346 -273 476 -100 95 -173
132 -290 144 -54 5 -114 21 -173 44 -194 75 -353 102 -545 93 -196 -10 -358
-58 -524 -155 -85 -50 -234 -184 -290 -261 -52 -70 -105 -182 -126 -268 -22
-86 -27 -243 -9 -308 11 -41 128 -309 193 -445 37 -77 43 -108 26 -140 -8 -15
1 -28 54 -78 231 -215 519 -265 881 -151 133 42 184 69 233 125 62 70 85 138
90 270 5 128 -9 198 -63 312 -102 216 -288 342 -506 342 -209 0 -371 -126
-395 -309 -21 -160 126 -297 224 -208 47 44 14 111 -42 86 -52 -24 -73 33 -37
101 39 74 160 106 216 58 21 -19 28 -37 37 -97 26 -177 -58 -291 -215 -291
-148 0 -258 114 -288 296 -48 299 226 566 556 540 156 -13 282 -74 411 -201
236 -233 344 -561 289 -878 -19 -110 -67 -241 -115 -315 -32 -51 -52 -67 -146
-124 -203 -122 -286 -155 -449 -178 -346 -49 -738 123 -1017 445 -177 204
-255 381 -298 677 -12 78 -26 163 -31 189 -12 55 -42 99 -69 99 -34 0 -38 -59
-14 -259 38 -334 134 -561 342 -811 218 -262 504 -442 789 -496 128 -24 326
-15 448 20 142 41 246 97 331 178 78 75 102 82 118 36 22 -61 -39 -164 -134
-228 -86 -58 -279 -126 -423 -150 -98 -16 -262 -12 -362 9 -225 46 -494 199
-681 385 -344 345 -515 718 -518 1131 -1 112 2 137 21 180 15 35 23 78 26 145
6 112 30 195 97 335 67 139 149 246 319 414 230 227 324 294 520 374 215 86
445 128 701 128 397 0 763 -110 1005 -301 131 -104 317 -318 396 -455 52 -90
54 -96 119 -357 33 -134 71 -283 85 -333 13 -49 31 -126 39 -170 19 -108 20
-47 1 100 -15 110 -86 494 -120 641 -44 195 -260 575 -422 745 -104 109 -253
184 -495 249 -194 52 -504 85 -688 74z m682 -994 c58 -39 183 -169 235 -246
119 -175 189 -391 131 -402 -25 -5 -61 38 -120 142 -72 127 -118 194 -220 322
-92 116 -119 164 -111 195 7 27 33 23 85 -11z"/>
<path d="M3786 6773 c-4 -9 -3 -20 2 -25 11 -11 45 19 37 33 -10 15 -32 10
-39 -8z"/>
<path d="M4024 6538 c-65 -59 -104 -116 -104 -150 0 -57 53 -43 126 34 73 76
95 149 47 156 -15 2 -38 -11 -69 -40z"/>
<path d="M5255 6559 c-259 -20 -512 -105 -710 -239 -146 -99 -321 -272 -414
-408 -94 -139 -151 -295 -151 -413 0 -37 11 -120 24 -185 14 -66 32 -186 40
-268 19 -177 57 -302 132 -428 59 -99 241 -288 354 -367 213 -149 454 -223
673 -207 161 12 372 81 420 137 26 32 22 68 -10 80 -30 11 -62 7 -213 -28 -60
-13 -154 -26 -220 -30 -259 -13 -449 61 -730 282 -109 86 -172 160 -225 266
-54 105 -68 169 -60 258 4 42 6 119 4 171 -9 237 -4 342 20 420 93 306 390
585 742 700 305 100 620 88 997 -36 226 -75 342 -144 470 -279 165 -173 256
-373 296 -648 24 -160 39 -423 32 -532 -15 -211 -51 -321 -144 -434 -35 -43
-83 -125 -138 -236 -95 -193 -160 -299 -359 -587 -192 -278 -233 -360 -202
-402 13 -18 15 -17 58 4 105 53 218 175 460 495 87 116 188 248 224 295 71 92
155 252 203 391 116 330 116 750 3 1192 -77 296 -175 472 -364 654 -185 177
-418 293 -712 352 -91 18 -328 43 -379 40 -12 -1 -66 -5 -121 -10z"/>
<path d="M3273 5063 c-29 -43 -23 -261 10 -423 43 -206 137 -467 213 -586 57
-91 288 -333 381 -400 58 -42 152 -84 189 -84 8 0 103 -29 211 -66 151 -50
206 -64 241 -62 35 2 48 7 50 21 6 29 -47 68 -174 131 -196 97 -241 116 -319
131 -40 7 -89 21 -107 31 -120 61 -303 262 -398 434 -104 190 -175 426 -210
703 -10 86 -24 166 -30 177 -15 28 -36 25 -57 -7z"/>
<path d="M4225 5037 c-11 -43 33 -180 92 -286 51 -92 113 -151 158 -151 19 0
35 4 35 8 0 4 -15 30 -32 58 -18 27 -71 126 -118 219 -68 136 -89 171 -107
173 -17 2 -24 -3 -28 -21z"/>
<path d="M7093 4955 c0 -22 2 -30 4 -17 2 12 2 30 0 40 -3 9 -5 -1 -4 -23z"/>
<path d="M2925 4740 c9 -164 56 -370 147 -648 32 -100 58 -190 56 -200 -3 -17
2 -22 23 -22 8 0 10 21 6 68 -4 50 -26 124 -87 292 -85 236 -123 371 -139 505
-10 80 -10 80 -6 5z"/>
<path d="M6961 4034 c0 -11 3 -14 6 -6 3 7 2 16 -1 19 -3 4 -6 -2 -5 -13z"/>
<path d="M6927 3928 c-9 -30 -17 -61 -16 -69 0 -8 9 13 19 46 11 33 18 64 17
69 -1 4 -10 -16 -20 -46z"/>
<path d="M3463 3841 c9 -75 60 -187 125 -272 31 -42 96 -127 143 -190 129
-171 206 -237 364 -316 172 -87 381 -136 580 -136 188 -1 300 34 300 93 0 29
-10 31 -280 49 -394 27 -663 139 -750 311 -16 32 -69 94 -143 168 -64 64 -144
153 -176 197 -83 112 -116 145 -144 145 -24 0 -25 -2 -19 -49z"/>
<path d="M6902 3820 c0 -14 2 -19 5 -12 2 6 2 18 0 25 -3 6 -5 1 -5 -13z"/>
<path d="M6715 3769 c-44 -25 -103 -92 -225 -255 -142 -190 -233 -292 -324
-361 -95 -71 -137 -86 -225 -80 -70 5 -78 4 -145 -30 -157 -79 -274 -111 -521
-143 -88 -11 -216 -33 -284 -49 -311 -75 -530 -64 -809 38 -112 41 -307 143
-428 225 -87 58 -105 66 -122 57 -12 -6 -35 -11 -52 -11 -37 0 -131 26 -175
47 -59 30 36 -44 231 -179 272 -188 409 -263 603 -327 226 -74 361 -81 621
-30 158 30 180 32 490 39 313 6 328 8 413 33 126 39 293 116 383 178 190 130
383 369 549 678 28 51 61 105 74 119 17 19 21 30 14 41 -13 20 -42 24 -68 10z"/>
<path d="M3750 2748 c5 -6 203 -123 384 -227 198 -115 298 -150 488 -171 57
-6 135 -20 174 -31 144 -39 345 -16 480 55 106 57 204 59 204 5 0 -32 -65 -89
-147 -129 -40 -19 -71 -36 -69 -37 5 -5 170 63 233 96 32 17 99 44 148 62 50
17 124 49 167 70 83 42 322 199 378 249 35 31 35 31 -15 1 -106 -62 -355 -171
-450 -196 -94 -24 -158 -20 -232 15 -36 17 -110 42 -166 55 -174 43 -331 31
-534 -40 -120 -42 -212 -52 -322 -36 -108 16 -173 38 -381 131 -97 43 -207 88
-245 100 -39 12 -77 24 -85 27 -8 3 -13 3 -10 1z m1488 -292 c8 -8 12 -18 8
-24 -12 -20 -254 -72 -335 -72 -20 0 -47 7 -59 16 -22 15 -22 17 -6 35 27 29
240 71 328 64 28 -3 56 -11 64 -19z"/>
<path d="M6239 2733 c-13 -16 -12 -17 4 -4 9 7 17 15 17 17 0 8 -8 3 -21 -13z"/>
</g>
</svg>
