<?xml version="1.0" standalone="no"?>
<!DOCTYPE svg PUBLIC "-//W3C//DTD SVG 20010904//EN"
 "http://www.w3.org/TR/2001/REC-SVG-20010904/DTD/svg10.dtd">
<svg version="1.0" xmlns="http://www.w3.org/2000/svg"
 width="1000.000000pt" height="1000.000000pt" viewBox="0 0 1000.000000 1000.000000"
 preserveAspectRatio="xMidYMid meet">
<metadata>
  <rdf:RDF
    xmlns:rdf = "http://www.w3.org/1999/02/22-rdf-syntax-ns#"
    xmlns:rdfs = "http://www.w3.org/2000/01/rdf-schema#"
    xmlns:dc = "http://purl.org/dc/elements/1.1/"
    xmlns:cc = "http://creativecommons.org/ns#">
    <cc:license rdf:resource="http://creativecommons.org/publicdomain/zero/1.0/deed.en"/>
    <cc:permits rdf:resource="http://creativecommons.org/ns#Reproduction"/>
    <rdf:Description about="https://nft.mir.one/fingerprints"
      dc:title="TON Fingerprints"
      dc:description="This is a unique digital fingerprint created based on the algorithm for generating basic rings using a noise texture. Like human fingerprints, you can now use it for the Web3 and Metaverse era as digital biometric information."
      dc:publisher="https://nft.mir.one"
      dc:date="2022-02-22"
      dc:format="image/svg+xml"
      dc:language="en" >
      <dc:creator>
      <rdf:Bag>
        <rdf:li>EQBondcvD2_aOFADXSWJHs4ZazQDuEl9_wNvGGPxI8hGuOFU</rdf:li>
        <rdf:li>ipfs://bafkreihj7iub3fhmhq6jn62noukt5wxn3gv6bvcg7wmt6ywvlurefezckq</rdf:li>
      </rdf:Bag>
      </dc:creator>
    </rdf:Description>
  </rdf:RDF>
</metadata>
<g transform="translate(0.000000,1000.000000) scale(0.100000,-0.100000)"
fill="#1b1f23" stroke="none">
<path d="M4995 7760 c-295 -74 -330 -91 -572 -275 -249 -190 -305 -251 -267
-290 20 -20 28 -19 94 8 78 32 193 113 327 228 148 128 208 169 357 240 142
68 275 139 261 138 -5 0 -95 -22 -200 -49z"/>
<path d="M4424 7671 c-10 -10 -73 -51 -139 -92 -66 -40 -158 -102 -204 -137
-204 -153 -572 -483 -643 -576 -32 -41 -32 -41 3 -10 19 18 68 54 109 80 74
47 113 75 315 224 55 41 146 119 202 173 56 55 153 138 214 186 62 47 126 103
142 123 33 41 33 59 1 29z"/>
<path d="M5276 7629 c-239 -31 -419 -121 -628 -315 -113 -105 -179 -150 -280
-192 -55 -23 -76 -26 -168 -25 -102 2 -107 1 -175 -33 -92 -47 -241 -145 -339
-224 -172 -139 -340 -379 -454 -650 -78 -185 -190 -496 -216 -600 -77 -310
-86 -661 -26 -1050 11 -69 24 -174 29 -233 18 -187 118 -443 265 -681 148
-239 258 -366 486 -561 115 -98 189 -171 234 -229 181 -232 368 -327 766 -391
134 -22 437 -30 607 -16 273 22 405 59 658 185 170 85 170 85 105 80 -36 -3
-94 -14 -130 -24 -230 -65 -423 -84 -792 -77 -310 5 -415 16 -603 63 -238 59
-345 123 -436 263 -44 67 -72 93 -227 216 -383 304 -649 609 -792 908 -54 111
-70 173 -94 372 -9 72 -25 186 -36 255 -42 270 -36 567 15 779 30 125 62 204
119 295 24 39 91 168 149 286 58 118 128 251 157 295 187 284 479 527 687 570
67 14 79 14 161 -7 54 -14 117 8 290 99 101 54 136 67 206 78 47 8 169 36 273
64 361 97 526 121 838 121 150 0 223 4 255 14 27 8 39 16 30 19 -329 114 -401
131 -540 131 -189 -1 -449 -68 -727 -186 -78 -33 -149 -58 -158 -55 -25 10
-17 44 19 85 92 102 421 235 725 293 115 22 221 49 234 59 12 11 -199 30 -313
29 -58 -1 -136 -5 -174 -10z"/>
<path d="M5705 7100 c-157 -13 -301 -35 -529 -81 -228 -45 -288 -61 -333 -89
-40 -24 -44 -61 -11 -84 32 -23 98 -20 373 13 132 16 357 40 500 52 227 20
275 21 376 11 118 -12 231 -40 367 -91 63 -24 174 -49 160 -36 -47 44 -246
192 -301 223 -127 73 -172 84 -342 88 -82 1 -199 -2 -260 -6z"/>
<path d="M4240 6801 c-129 -41 -357 -211 -496 -368 -139 -160 -266 -374 -328
-557 -30 -85 -32 -120 -21 -267 5 -60 3 -148 -5 -230 -39 -426 11 -801 142
-1064 142 -282 466 -650 718 -815 55 -36 161 -90 323 -165 45 -21 50 -51 10
-66 -67 -26 -273 32 -409 115 -281 171 -608 536 -743 829 -78 167 -138 404
-162 636 -15 150 -6 428 20 601 24 156 26 191 9 208 -58 58 -128 -92 -164
-349 -20 -140 -14 -480 11 -634 60 -379 115 -544 252 -758 184 -289 545 -632
771 -733 77 -34 226 -59 422 -69 63 -3 180 -13 260 -22 562 -62 1088 42 1432
283 42 29 112 73 155 97 71 39 84 51 146 137 89 124 142 231 162 327 9 43 31
148 50 233 74 338 67 550 -17 550 -26 0 -38 -37 -54 -170 -27 -233 -76 -460
-134 -625 -56 -158 -162 -345 -195 -345 -9 0 -20 12 -25 26 -13 34 -2 75 65
239 101 247 137 390 190 743 41 274 40 291 -16 507 -103 401 -278 748 -484
964 -138 145 -340 286 -472 330 -79 27 -115 27 -139 0 -17 -19 -17 -23 -3 -47
8 -15 65 -61 126 -103 248 -168 397 -308 513 -480 186 -279 350 -758 350
-1025 0 -259 -72 -548 -218 -879 -126 -286 -185 -359 -368 -449 -94 -46 -156
-63 -298 -81 -66 -9 -165 -25 -219 -37 -84 -17 -123 -20 -265 -16 -249 7 -355
37 -453 126 -30 27 -104 83 -164 122 -233 154 -369 281 -565 525 -57 72 -134
162 -171 201 -87 93 -140 185 -183 314 -59 183 -71 273 -71 555 0 435 38 667
145 880 104 210 232 361 483 572 145 122 180 165 175 210 -2 23 -8 28 -33 30
-16 1 -41 -2 -55 -6z"/>
<path d="M5905 6780 c-16 -4 -57 -15 -90 -24 -32 -9 -98 -16 -145 -16 -47 0
-139 -5 -205 -10 -361 -27 -493 -32 -592 -18 -166 22 -217 18 -303 -23 -82
-39 -316 -220 -458 -354 -157 -148 -286 -332 -358 -510 -123 -305 -151 -829
-63 -1170 45 -174 116 -299 167 -293 48 6 50 27 13 166 -51 194 -70 290 -81
429 -24 296 36 624 156 859 124 243 354 472 599 594 170 86 207 92 610 102
591 16 519 19 616 -29 128 -63 322 -196 412 -282 237 -227 409 -565 563 -1110
66 -233 73 -250 124 -311 22 -27 49 -68 60 -93 46 -103 33 -296 -36 -541 -34
-124 -42 -205 -19 -213 6 -2 16 18 22 44 5 27 26 102 46 168 53 181 70 297 71
475 1 155 1 155 -32 216 -22 40 -48 119 -78 240 -89 357 -226 713 -363 943
-163 273 -246 353 -516 496 -122 65 -155 91 -155 121 0 22 4 24 43 24 91 0
280 -69 427 -156 85 -50 190 -137 190 -158 1 -27 53 -136 119 -246 142 -236
323 -748 387 -1093 14 -77 15 -105 7 -128 -7 -17 -7 -29 -2 -29 64 0 4 487
-101 825 -23 72 -55 180 -71 240 -44 163 -94 258 -201 386 -44 53 -47 66 -14
80 19 9 41 6 107 -14 84 -26 84 -26 29 25 -109 102 -292 248 -338 272 -69 35
-239 92 -326 110 -79 17 -171 19 -221 6z"/>
<path d="M4900 6334 c-154 -20 -365 -107 -492 -204 -313 -238 -481 -581 -495
-1010 -6 -180 3 -270 53 -488 19 -84 39 -194 44 -245 12 -114 46 -188 158
-337 171 -228 288 -342 457 -447 207 -129 333 -169 565 -179 111 -6 142 -4
173 9 56 24 52 59 -15 118 -70 62 -64 79 29 79 80 0 130 21 241 100 317 224
516 582 552 990 5 63 10 119 10 123 0 5 10 7 22 5 80 -11 75 -278 -8 -528
-101 -303 -255 -521 -476 -670 -51 -35 -103 -72 -115 -83 -51 -46 -8 -105 67
-93 148 23 316 141 418 294 176 262 295 627 296 907 0 138 -3 149 -109 471
-80 244 -143 383 -233 519 -120 181 -225 284 -473 460 -203 145 -249 171 -332
190 -71 17 -269 27 -337 19z m296 -234 c233 -60 507 -257 667 -481 100 -141
169 -298 223 -507 38 -149 41 -183 18 -237 -9 -21 -29 -97 -46 -169 -53 -236
-107 -367 -212 -525 -104 -156 -233 -275 -435 -405 -58 -37 -102 -72 -118 -97
-31 -46 -70 -55 -207 -45 -182 13 -356 73 -481 169 -69 52 -105 108 -105 163
0 47 -61 147 -168 274 -115 136 -195 315 -244 544 -28 133 -30 360 -5 489 20
97 66 235 104 312 71 140 242 329 366 403 80 48 206 101 279 117 98 21 270 19
364 -5z"/>
<path d="M4865 5936 c-314 -72 -559 -331 -647 -683 -32 -126 -31 -332 1 -453
59 -221 183 -384 318 -419 75 -20 285 -31 378 -20 174 19 293 76 416 199 125
124 196 263 219 433 36 258 -143 511 -406 573 -232 54 -477 -79 -555 -302 -27
-77 -25 -106 10 -132 17 -12 46 -53 66 -90 38 -74 76 -105 98 -83 8 8 11 41 9
106 -4 114 9 162 60 219 97 111 262 125 397 35 165 -110 208 -336 103 -533
-35 -66 -143 -174 -209 -209 -205 -109 -479 -79 -627 69 -141 142 -181 353
-107 573 75 224 202 381 375 464 94 45 163 61 266 60 279 -2 549 -200 642
-472 18 -52 23 -86 22 -166 -1 -87 -6 -114 -37 -207 -99 -293 -241 -476 -455
-583 -125 -62 -201 -77 -412 -79 -201 -3 -230 -9 -230 -51 0 -38 47 -61 165
-79 310 -48 540 21 754 228 116 112 191 233 281 456 44 108 82 171 120 203 21
18 22 25 17 120 -5 110 -28 189 -87 307 -114 228 -342 423 -585 500 -89 28
-271 36 -360 16z"/>
<path d="M4972 5199 c-94 -47 -125 -191 -53 -246 40 -31 94 0 84 47 -4 22 0
31 17 40 19 10 27 9 49 -7 21 -16 27 -30 29 -71 3 -46 0 -54 -33 -91 -45 -49
-88 -64 -168 -59 -63 4 -184 50 -238 91 -37 27 -75 100 -90 175 -11 53 -16 62
-33 60 -39 -6 -61 -53 -61 -131 0 -264 323 -447 578 -327 70 33 142 102 174
168 37 75 39 185 6 247 -58 109 -165 151 -261 104z"/>
<path d="M5915 4927 c-8 -13 -33 -79 -55 -147 -74 -228 -163 -389 -288 -522
-85 -90 -161 -148 -265 -203 -182 -97 -346 -113 -582 -57 -133 32 -175 33
-175 3 0 -27 69 -86 146 -124 86 -43 155 -64 257 -77 157 -20 283 18 473 141
183 119 333 288 432 485 71 141 141 397 126 461 -7 29 -31 63 -45 63 -5 0 -15
-10 -24 -23z"/>
<path d="M6788 3676 c-105 -102 -158 -169 -158 -198 0 -30 21 -21 69 30 37 38
197 262 188 262 -2 0 -46 -42 -99 -94z"/>
<path d="M6475 3236 c-44 -18 -138 -59 -209 -90 -236 -104 -418 -158 -686
-203 -82 -13 -165 -17 -380 -17 -290 -1 -340 4 -655 60 -249 44 -275 43 -275
-12 0 -68 215 -155 505 -204 435 -74 1057 -25 1335 106 102 48 276 166 385
261 50 43 104 88 120 100 30 22 30 22 5 23 -14 0 -34 2 -45 5 -11 3 -56 -10
-100 -29z"/>
<path d="M3449 3123 c35 -46 200 -200 354 -332 53 -45 97 -87 97 -92 0 -6 5
-7 10 -4 18 11 10 52 -19 92 -32 44 -223 199 -340 276 -42 27 -89 61 -105 76
-30 26 -30 26 3 -16z"/>
<path d="M4240 2377 c0 -3 44 -19 98 -36 316 -99 555 -125 920 -101 255 17
225 25 -158 39 -337 13 -702 55 -842 97 -10 3 -18 3 -18 1z"/>
</g>
</svg>
