<?xml version="1.0" standalone="no"?>
<!DOCTYPE svg PUBLIC "-//W3C//DTD SVG 20010904//EN"
 "http://www.w3.org/TR/2001/REC-SVG-20010904/DTD/svg10.dtd">
<svg version="1.0" xmlns="http://www.w3.org/2000/svg"
 width="1000.000000pt" height="1000.000000pt" viewBox="0 0 1000.000000 1000.000000"
 preserveAspectRatio="xMidYMid meet">
<metadata>
  <rdf:RDF
    xmlns:rdf = "http://www.w3.org/1999/02/22-rdf-syntax-ns#"
    xmlns:rdfs = "http://www.w3.org/2000/01/rdf-schema#"
    xmlns:dc = "http://purl.org/dc/elements/1.1/"
    xmlns:cc = "http://creativecommons.org/ns#">
    <cc:license rdf:resource="http://creativecommons.org/publicdomain/zero/1.0/deed.en"/>
    <cc:permits rdf:resource="http://creativecommons.org/ns#Reproduction"/>
    <rdf:Description about="https://nft.mir.one/fingerprints"
      dc:title="TON Fingerprints"
      dc:description="This is a unique digital fingerprint created based on the algorithm for generating basic rings using a noise texture. Like human fingerprints, you can now use it for the Web3 and Metaverse era as digital biometric information."
      dc:publisher="https://nft.mir.one"
      dc:date="2022-02-22"
      dc:format="image/svg+xml"
      dc:language="en" >
      <dc:creator>
      <rdf:Bag>
        <rdf:li>EQBondcvD2_aOFADXSWJHs4ZazQDuEl9_wNvGGPxI8hGuOFU</rdf:li>
        <rdf:li>ipfs://bafkreihj7iub3fhmhq6jn62noukt5wxn3gv6bvcg7wmt6ywvlurefezckq</rdf:li>
      </rdf:Bag>
      </dc:creator>
    </rdf:Description>
  </rdf:RDF>
</metadata>
<g transform="translate(0.000000,1000.000000) scale(0.100000,-0.100000)"
fill="#1b1f23" stroke="none">
<path d="M5485 7689 c265 -141 647 -326 620 -301 -23 22 -299 177 -420 237
-116 57 -346 155 -363 155 -4 0 70 -41 163 -91z"/>
<path d="M4460 7672 c31 -16 155 -57 275 -91 274 -76 271 -76 279 -111 6 -34
63 -76 114 -86 19 -4 58 -1 87 6 67 16 43 25 420 -157 594 -288 722 -353 827
-420 59 -37 134 -83 165 -101 55 -31 51 -26 -92 116 -82 82 -199 185 -260 230
-297 220 -968 564 -1165 596 -112 19 -340 37 -510 42 -195 5 -195 5 -140 -24z
m697 -137 c50 -21 73 -43 73 -72 0 -27 -18 -30 -60 -8 -16 8 -53 21 -82 29
-59 15 -75 40 -36 55 34 14 64 13 105 -4z"/>
<path d="M4130 7485 c-58 -7 -112 -14 -120 -14 -25 -2 65 -48 127 -66 173 -50
484 -182 541 -230 16 -14 42 -49 56 -80 34 -69 88 -116 286 -252 206 -141 262
-186 407 -325 129 -123 166 -145 190 -112 19 26 9 82 -29 164 -65 138 -248
282 -603 475 -99 54 -186 105 -192 113 -17 21 0 40 42 48 106 20 577 -216 808
-404 104 -84 109 -94 101 -199 -11 -159 30 -275 158 -444 224 -294 409 -520
533 -652 165 -176 226 -254 281 -362 38 -73 162 -407 229 -615 15 -47 43 -110
62 -140 33 -53 34 -54 29 -20 -3 19 -10 89 -16 155 -12 133 -31 256 -61 385
-11 47 -23 121 -26 165 -3 44 -13 98 -23 120 -32 74 -226 319 -541 680 -367
422 -427 496 -474 586 -33 63 -49 149 -27 149 11 0 540 -551 667 -695 130
-146 270 -315 380 -456 76 -99 114 -137 158 -157 5 -2 1 10 -8 28 -9 18 -32
73 -52 123 -50 132 -154 342 -205 414 -65 92 -303 346 -451 480 -268 244 -392
316 -477 279 -19 -8 -53 44 -44 67 18 48 149 48 255 0 171 -78 482 -334 689
-567 47 -53 109 -115 139 -137 61 -47 69 -69 -64 161 -239 411 -457 598 -890
760 -77 29 -245 106 -373 172 -186 95 -266 130 -395 173 -89 29 -196 66 -237
83 -41 16 -169 57 -284 92 -194 58 -216 62 -325 66 -65 2 -162 -3 -221 -11z"/>
<path d="M3925 7259 c-32 -5 -82 -15 -110 -23 -27 -8 -63 -17 -80 -21 -30 -7
-30 -7 5 -25 19 -10 79 -29 132 -43 196 -53 376 -132 523 -230 33 -22 116 -84
185 -137 69 -53 208 -157 310 -230 296 -214 549 -409 634 -490 93 -89 213
-235 280 -342 69 -112 96 -193 96 -300 0 -76 -3 -90 -24 -115 -12 -15 -29 -39
-37 -53 -20 -38 -15 -159 15 -303 30 -148 32 -195 10 -257 -22 -64 -12 -123
32 -188 31 -44 38 -64 44 -130 11 -105 -5 -271 -36 -378 -43 -149 -107 -234
-176 -234 -24 0 -36 -13 -95 -102 -85 -130 -126 -212 -208 -418 -89 -222 -202
-449 -286 -575 -82 -122 -201 -252 -302 -329 -40 -30 -88 -70 -107 -90 -35
-37 -35 -37 100 9 157 54 266 111 330 175 79 78 185 254 351 583 180 359 226
438 344 587 101 129 146 198 178 276 60 146 83 261 97 496 12 211 5 265 -64
478 -139 426 -143 440 -100 440 38 0 76 -32 107 -87 33 -62 137 -369 165 -488
73 -313 39 -673 -88 -927 -47 -94 -75 -136 -207 -307 -123 -158 -166 -230
-314 -519 -184 -357 -247 -465 -356 -610 -35 -46 -68 -93 -74 -105 -6 -12 -21
-32 -33 -45 -28 -31 186 110 251 165 104 89 154 164 315 478 85 165 176 334
203 375 27 41 98 126 158 189 168 175 230 269 296 449 54 145 66 228 66 442
-1 264 -26 392 -140 700 -63 168 -76 220 -66 258 19 71 68 18 161 -173 172
-352 243 -741 195 -1070 -19 -129 -29 -163 -78 -260 -80 -159 -88 -206 -61
-335 11 -51 14 -96 9 -140 -7 -78 -43 -303 -52 -328 -3 -9 -4 -15 0 -12 8 7
92 216 116 288 11 34 36 144 56 243 19 100 40 189 45 200 6 10 20 19 31 19 25
0 41 -38 59 -138 8 -43 17 -69 22 -64 5 5 13 103 18 218 6 156 15 243 34 343
32 166 32 234 1 384 -73 350 -210 692 -334 829 -42 47 -73 69 -127 94 -88 40
-110 64 -270 305 -140 212 -340 474 -429 564 -39 39 -77 67 -110 79 -70 27
-100 47 -271 182 -82 65 -229 176 -325 247 -96 70 -219 166 -274 213 -123 107
-208 163 -339 224 -201 95 -265 109 -401 89z m2045 -2569 c39 -21 52 -113 21
-151 -27 -33 -38 -18 -50 70 -12 91 -9 101 29 81z"/>
<path d="M3699 7005 c-31 -8 -85 -25 -120 -38 -35 -14 -73 -28 -84 -32 -17 -6
-14 -9 20 -21 22 -8 74 -19 115 -25 331 -45 640 -202 640 -325 0 -43 -22 -45
-71 -8 -101 76 -318 160 -495 191 -119 21 -167 13 -298 -52 -50 -25 -98 -45
-106 -46 -53 -2 107 -28 205 -33 205 -10 397 -51 554 -118 97 -41 113 -42 206
-23 23 5 50 -4 120 -38 218 -107 522 -298 705 -444 118 -93 313 -285 435 -428
107 -124 146 -160 186 -170 37 -8 52 8 52 58 0 91 -118 263 -317 463 -179 179
-325 292 -774 601 -65 45 -172 126 -238 180 -195 160 -292 216 -493 284 -125
42 -155 45 -242 24z"/>
<path d="M3378 6476 c-31 -13 -90 -43 -132 -68 -76 -45 -76 -46 -45 -52 17 -3
90 -6 162 -6 72 0 240 -7 373 -16 180 -11 252 -13 282 -5 41 11 56 29 46 56
-14 36 -238 85 -479 105 -154 12 -141 13 -207 -14z"/>
<path d="M4070 6234 c-55 -13 -120 -15 -408 -11 -386 6 -373 8 -499 -68 -40
-25 -79 -45 -85 -45 -6 0 -9 -2 -7 -4 2 -3 68 -12 146 -20 102 -12 242 -16
492 -16 387 0 510 -9 639 -46 246 -70 538 -267 808 -545 292 -302 423 -564
424 -848 0 -57 9 -123 30 -210 46 -195 52 -258 44 -438 -6 -142 -4 -166 10
-188 9 -14 21 -25 27 -25 13 0 64 110 85 185 10 38 18 114 21 206 5 134 3 159
-26 302 -17 86 -31 178 -31 204 0 124 -48 370 -93 478 -34 81 -79 146 -205
292 -137 158 -308 328 -432 427 -190 152 -447 302 -610 357 -85 29 -239 34
-330 13z"/>
<path d="M3136 5968 c-15 -6 -46 -21 -68 -33 -40 -22 -40 -22 -7 -27 44 -7
119 9 141 29 18 16 18 18 2 30 -21 15 -29 15 -68 1z"/>
<path d="M3485 5940 c-66 -4 -136 -11 -155 -15 -36 -8 -247 -144 -312 -202
-38 -33 -38 -33 -11 -39 17 -5 91 9 212 39 241 60 338 71 575 64 278 -8 449
-43 619 -128 96 -47 131 -74 268 -204 58 -55 161 -151 227 -213 151 -140 227
-235 345 -426 106 -172 134 -206 171 -206 65 0 50 113 -38 296 -113 236 -290
447 -571 681 -301 250 -501 329 -886 353 -179 11 -261 11 -444 0z"/>
<path d="M3552 5659 c-149 -12 -398 -65 -447 -94 -22 -13 -71 -55 -108 -92
-68 -69 -68 -69 -10 -62 32 4 107 19 167 33 226 52 305 61 561 61 270 0 343
-10 602 -85 148 -43 172 -47 191 -28 20 20 13 43 -25 80 -99 94 -338 167 -623
188 -149 11 -160 11 -308 -1z"/>
<path d="M3437 5375 c-119 -15 -297 -50 -340 -67 -23 -9 -192 -177 -184 -184
5 -4 98 15 186 39 204 57 326 72 581 71 244 0 236 1 552 -58 155 -29 287 -79
408 -154 98 -61 261 -223 333 -332 103 -157 135 -233 188 -452 78 -316 119
-418 169 -418 40 0 37 73 -16 318 -28 135 -31 204 -8 223 14 11 19 10 35 -9
68 -85 119 -413 80 -525 -37 -107 62 -143 106 -39 22 50 30 278 13 380 -13 84
-45 174 -82 228 -12 19 -53 55 -90 80 -78 53 -105 85 -216 251 -137 204 -229
309 -367 418 -134 105 -178 125 -297 136 -57 5 -155 21 -218 35 -239 54 -319
64 -525 69 -136 3 -235 0 -308 -10z"/>
<path d="M3430 5109 c-81 -9 -263 -43 -321 -59 -36 -10 -102 -69 -160 -141
-31 -39 -31 -39 4 -39 19 0 54 7 78 15 84 30 335 74 481 85 460 34 931 -107
1159 -346 65 -69 90 -127 65 -152 -14 -14 -19 -13 -56 17 -127 102 -197 148
-305 201 -319 157 -702 204 -1096 135 -193 -33 -189 -32 -255 -99 -34 -34 -67
-73 -74 -86 -12 -23 -12 -23 31 -17 24 3 94 17 154 31 375 87 743 73 1057 -40
81 -29 220 -98 343 -168 44 -26 104 -54 134 -63 134 -43 243 -215 355 -562 59
-182 70 -251 63 -371 -20 -296 -208 -725 -378 -863 -43 -34 -101 -42 -107 -15
-2 9 19 50 46 90 111 165 180 339 217 550 13 76 33 168 45 204 25 84 26 169 0
316 -49 285 -148 440 -374 583 -174 110 -439 217 -621 251 -191 35 -475 29
-715 -13 -95 -17 -95 -17 -169 -89 -73 -71 -73 -71 -39 -78 21 -4 99 4 194 20
286 47 548 48 759 3 345 -73 669 -280 778 -499 37 -74 44 -104 28 -129 -14
-22 -35 -7 -96 69 -154 194 -330 316 -568 395 -182 60 -248 70 -482 70 -234
-1 -421 -22 -465 -54 -14 -10 -39 -38 -57 -62 -18 -24 -41 -56 -53 -70 -20
-27 -20 -27 22 -31 23 -2 105 8 183 24 421 82 721 53 1004 -99 103 -55 164
-99 289 -210 53 -47 117 -98 142 -114 52 -32 92 -95 110 -173 13 -61 6 -86
-25 -86 -18 0 -42 22 -94 84 -140 167 -340 331 -496 406 -241 117 -503 139
-810 69 -109 -25 -128 -37 -156 -91 -18 -35 -55 -215 -46 -224 4 -4 88 40 149
78 122 75 347 127 499 114 330 -27 667 -265 811 -572 30 -63 32 -77 32 -164 0
-110 -13 -163 -82 -351 -27 -74 -53 -158 -57 -186 -7 -56 -51 -125 -99 -156
-13 -9 -39 -37 -57 -63 -25 -37 -28 -45 -13 -40 11 3 52 10 92 16 122 17 251
48 309 74 70 33 201 164 275 276 138 211 269 540 298 748 14 108 2 162 -62
259 -65 99 -92 158 -163 363 -67 192 -179 457 -227 537 -72 121 -218 253 -357
323 -75 38 -333 121 -446 144 -182 36 -439 46 -625 25z"/>
<path d="M4325 5090 c-3 -5 -1 -10 4 -10 6 0 11 5 11 10 0 6 -2 10 -4 10 -3 0
-8 -4 -11 -10z"/>
<path d="M7017 5071 c3 -10 21 -34 40 -52 35 -34 35 -34 18 1 -29 59 -70 94
-58 51z"/>
<path d="M3640 3724 c-77 -20 -151 -58 -201 -103 -43 -38 -43 -38 -25 -192 36
-300 107 -442 282 -558 87 -59 153 -81 238 -81 91 0 147 46 204 167 23 50 27
71 27 148 0 76 -4 99 -26 146 -102 216 -385 262 -480 77 -21 -42 -25 -127 -8
-161 21 -41 73 -87 105 -93 36 -7 88 15 98 41 16 43 -7 97 -34 80 -15 -9 -40
13 -40 35 0 10 12 28 28 40 81 65 211 -55 187 -171 -32 -152 -189 -218 -340
-144 -79 40 -110 84 -132 194 -45 228 69 406 274 427 184 19 378 -97 469 -280
34 -69 38 -88 42 -168 5 -110 -8 -180 -54 -273 -42 -87 -106 -162 -176 -206
-29 -19 -55 -37 -56 -42 -2 -4 -20 -19 -40 -32 -37 -25 -37 -25 84 -25 129 0
202 15 247 50 30 24 106 175 143 285 35 104 40 287 11 375 -67 200 -285 398
-507 459 -89 25 -237 27 -320 5z"/>
<path d="M3292 3483 c-5 -10 -12 -34 -15 -53 -7 -39 3 -27 29 35 14 35 2 50
-14 18z"/>
<path d="M6313 3442 c-45 -36 -63 -82 -63 -162 0 -115 -34 -224 -160 -505 -66
-150 -102 -237 -97 -241 5 -6 171 237 220 321 113 196 153 312 164 468 8 126
-11 161 -64 119z"/>
<path d="M6110 3284 c-44 -37 -96 -130 -291 -517 -148 -295 -209 -430 -197
-442 7 -7 232 272 301 375 50 74 152 283 222 456 56 140 42 192 -35 128z"/>
</g>
</svg>
