<?xml version="1.0" standalone="no"?>
<!DOCTYPE svg PUBLIC "-//W3C//DTD SVG 20010904//EN"
 "http://www.w3.org/TR/2001/REC-SVG-20010904/DTD/svg10.dtd">
<svg version="1.0" xmlns="http://www.w3.org/2000/svg"
 width="1000.000000pt" height="1000.000000pt" viewBox="0 0 1000.000000 1000.000000"
 preserveAspectRatio="xMidYMid meet">
<metadata>
  <rdf:RDF
    xmlns:rdf = "http://www.w3.org/1999/02/22-rdf-syntax-ns#"
    xmlns:rdfs = "http://www.w3.org/2000/01/rdf-schema#"
    xmlns:dc = "http://purl.org/dc/elements/1.1/"
    xmlns:cc = "http://creativecommons.org/ns#">
    <cc:license rdf:resource="http://creativecommons.org/publicdomain/zero/1.0/deed.en"/>
    <cc:permits rdf:resource="http://creativecommons.org/ns#Reproduction"/>
    <rdf:Description about="https://nft.mir.one/fingerprints"
      dc:title="TON Fingerprints"
      dc:description="This is a unique digital fingerprint created based on the algorithm for generating basic rings using a noise texture. Like human fingerprints, you can now use it for the Web3 and Metaverse era as digital biometric information."
      dc:publisher="https://nft.mir.one"
      dc:date="2022-02-22"
      dc:format="image/svg+xml"
      dc:language="en" >
      <dc:creator>
      <rdf:Bag>
        <rdf:li>EQBondcvD2_aOFADXSWJHs4ZazQDuEl9_wNvGGPxI8hGuOFU</rdf:li>
        <rdf:li>ipfs://bafkreihj7iub3fhmhq6jn62noukt5wxn3gv6bvcg7wmt6ywvlurefezckq</rdf:li>
      </rdf:Bag>
      </dc:creator>
    </rdf:Description>
  </rdf:RDF>
</metadata>
<g transform="translate(0.000000,1000.000000) scale(0.100000,-0.100000)"
fill="#1b1f23" stroke="none">
<path d="M4592 7674 c-100 -16 -146 -30 -397 -119 -88 -31 -144 -54 -125 -51
19 3 64 8 100 12 36 3 110 17 165 30 172 40 263 47 485 41 370 -11 549 -57
575 -146 8 -26 9 -26 -105 -1 -75 17 -461 23 -645 11 -280 -18 -464 -60 -682
-153 -88 -38 -348 -177 -331 -178 18 0 122 25 211 51 232 68 512 105 860 115
116 3 257 12 312 21 55 8 145 21 200 28 118 16 150 27 167 55 7 11 22 20 34
20 41 0 272 -69 392 -118 216 -88 376 -188 567 -357 116 -102 275 -229 275
-219 0 11 -237 269 -316 344 -194 184 -389 305 -729 450 -342 147 -435 169
-735 175 -134 3 -211 0 -278 -11z"/>
<path d="M5270 7249 c-101 -10 -163 -33 -168 -62 -6 -28 53 -45 199 -57 271
-22 420 -60 628 -162 165 -81 273 -182 217 -204 -8 -3 -72 24 -142 59 -213
107 -357 151 -627 193 -204 32 -228 38 -306 81 -62 34 -68 36 -212 44 -190 10
-635 -5 -754 -26 -119 -21 -238 -53 -303 -81 -107 -47 -278 -169 -417 -298
-60 -56 -60 -56 -20 -40 22 9 108 49 190 89 174 85 298 132 445 171 87 22 127
27 230 27 202 1 633 -21 738 -38 53 -8 199 -31 324 -50 320 -48 451 -81 655
-164 81 -33 113 -41 165 -41 74 0 114 -17 220 -88 286 -194 491 -400 549 -553
43 -112 10 -333 -67 -451 -17 -25 -17 -29 9 -115 15 -48 39 -160 54 -248 23
-134 27 -191 28 -350 0 -200 -6 -247 -53 -385 -30 -91 -63 -158 -180 -363 -49
-86 -93 -173 -96 -193 -22 -113 112 -67 206 71 68 101 153 276 182 375 45 159
60 287 60 520 1 385 -22 719 -70 1001 -48 285 -185 488 -593 876 -192 182
-255 232 -375 298 -254 138 -475 188 -716 164z"/>
<path d="M4112 6874 c-123 -27 -318 -99 -464 -171 -142 -70 -153 -78 -259
-180 -90 -88 -235 -257 -273 -321 -11 -19 64 30 144 93 274 216 562 364 910
469 69 21 135 44 148 52 27 18 29 50 3 64 -27 14 -132 11 -209 -6z"/>
<path d="M4487 6800 c-21 -6 -70 -28 -110 -49 -40 -22 -137 -65 -217 -94 -323
-122 -523 -226 -751 -394 -138 -100 -219 -198 -350 -416 -34 -56 -68 -111 -78
-121 -16 -19 -16 -19 18 0 19 10 95 77 170 147 342 324 621 502 1062 677 184
74 182 73 604 75 265 1 395 5 430 14 97 24 348 -22 518 -96 45 -19 140 -57
210 -83 296 -113 525 -292 574 -448 13 -41 32 -71 69 -109 119 -124 167 -21
75 160 -137 270 -530 537 -789 537 -61 0 -82 12 -41 25 27 9 20 38 -11 47 -46
13 -334 78 -390 88 -180 33 -906 61 -993 40z"/>
<path d="M5266 6547 c-45 -33 8 -70 174 -123 276 -88 550 -212 780 -354 161
-100 206 -122 238 -118 115 13 -123 227 -403 363 -340 165 -727 279 -789 232z"/>
<path d="M4372 6494 c-93 -31 -285 -119 -422 -191 -268 -143 -465 -288 -671
-493 -135 -134 -149 -152 -196 -245 -28 -55 -62 -132 -76 -172 -22 -61 -97
-323 -97 -339 0 -14 70 89 109 161 113 207 250 383 438 565 201 195 336 284
770 510 157 83 292 155 300 161 18 16 16 56 -3 63 -30 12 -80 5 -152 -20z"/>
<path d="M4795 6474 c-74 -12 -137 -37 -191 -77 -109 -79 -328 -213 -469 -287
-320 -168 -517 -311 -668 -485 -140 -161 -352 -511 -391 -645 -64 -218 -72
-575 -20 -885 31 -187 108 -448 169 -577 28 -58 27 -56 -21 82 -69 197 -99
433 -91 710 9 322 80 556 260 862 30 51 78 141 106 199 28 58 76 135 105 171
111 134 318 285 538 393 149 73 228 100 283 97 22 -1 103 -1 180 0 410 6 486
3 595 -21 195 -43 379 -110 513 -188 34 -20 98 -71 142 -113 44 -43 132 -117
195 -166 292 -225 409 -388 440 -611 16 -117 0 -210 -71 -436 -200 -632 -278
-745 -659 -958 -93 -52 -130 -80 -200 -151 -72 -73 -98 -93 -170 -126 -143
-67 -244 -86 -460 -86 -208 -1 -224 3 -308 73 -26 22 -108 72 -182 111 -270
144 -410 258 -416 338 -2 28 -14 49 -49 87 -60 64 -128 205 -156 320 -27 112
-29 269 -5 370 45 190 211 422 411 574 84 63 242 142 345 172 95 27 342 37
434 17 53 -11 61 -16 67 -42 11 -41 32 -61 145 -136 123 -83 183 -134 252
-214 55 -65 127 -193 168 -302 33 -87 60 -141 97 -187 26 -33 29 -44 25 -85
-3 -27 -17 -75 -32 -107 -97 -212 -322 -347 -644 -385 -227 -28 -469 29 -686
159 -196 119 -296 279 -296 477 0 86 15 134 41 134 27 0 45 -34 69 -130 33
-132 73 -204 160 -291 61 -61 96 -86 171 -123 134 -66 228 -88 369 -88 143 0
240 20 346 72 111 54 175 114 220 205 33 66 37 82 36 152 0 200 -107 423 -264
554 -74 62 -187 138 -253 171 -172 87 -409 55 -615 -83 -99 -66 -155 -124
-242 -249 -32 -47 -81 -112 -108 -144 -58 -69 -79 -123 -87 -227 -7 -96 15
-203 63 -298 57 -113 128 -168 390 -299 322 -161 525 -191 917 -137 216 30
267 44 369 97 98 50 238 181 308 285 90 135 157 296 181 436 14 83 2 139 -42
203 -17 24 -59 99 -95 166 -133 249 -252 367 -477 473 -206 97 -297 115 -585
115 -251 0 -355 -13 -512 -66 -191 -64 -359 -168 -526 -326 -232 -222 -339
-492 -320 -811 8 -144 22 -213 91 -449 88 -301 94 -317 142 -413 54 -108 80
-138 141 -160 26 -9 122 -54 213 -100 220 -110 273 -122 459 -107 74 7 180 14
235 17 362 21 511 70 795 260 203 136 292 170 345 131 23 -16 15 -39 -22 -63
-15 -9 -80 -56 -143 -103 -231 -173 -337 -235 -485 -283 -144 -47 -240 -61
-517 -76 -149 -8 -188 -14 -254 -37 -69 -24 -81 -25 -118 -14 -64 19 -168 75
-322 171 -153 96 -187 113 -215 104 -57 -19 17 -111 197 -247 113 -86 154
-129 154 -163 0 -35 -22 -36 -86 -3 -128 66 -278 199 -350 308 -27 41 -68 70
-99 70 -10 0 -15 -10 -15 -33 0 -80 216 -322 349 -391 65 -34 86 -40 170 -46
81 -6 113 -14 206 -52 127 -52 235 -82 353 -99 120 -17 447 -6 582 19 199 37
505 114 577 144 76 31 218 114 275 160 33 28 33 28 -12 3 -25 -13 -97 -41
-160 -61 -123 -40 -191 -46 -320 -30 -56 7 -90 3 -240 -27 -246 -50 -353 -60
-559 -54 -185 5 -247 17 -323 58 -50 28 -79 72 -61 90 10 10 26 10 75 0 97
-19 392 -26 516 -11 145 17 322 62 407 105 72 35 309 219 401 311 69 67 97
123 92 183 -3 47 -3 47 114 172 135 143 217 243 259 314 25 43 29 61 29 124 0
97 16 156 104 373 41 101 86 233 102 293 25 97 28 128 28 260 0 177 -22 284
-80 396 -70 133 -111 168 -524 454 -311 214 -389 261 -555 329 -245 100 -448
147 -635 147 -123 0 -172 -7 -318 -46 -110 -29 -142 -31 -142 -10 0 27 47 65
133 105 223 107 410 105 744 -6 299 -100 463 -177 738 -349 200 -124 359 -215
479 -271 87 -41 168 -51 200 -25 15 13 14 17 -10 60 -15 25 -36 56 -47 68 -21
24 -195 112 -310 158 -37 15 -140 70 -230 122 -273 161 -436 237 -717 335 -63
23 -153 59 -200 80 -47 22 -107 47 -135 54 -51 15 -245 26 -300 18z m481
-1215 c277 -85 518 -314 611 -581 44 -127 29 -254 -35 -296 -41 -27 -56 -7
-64 87 -17 204 -131 410 -301 549 -118 95 -259 169 -370 192 -64 13 -73 31
-29 54 38 21 109 19 188 -5z m-401 -314 c149 -39 304 -169 372 -311 36 -74 38
-85 38 -174 0 -83 -3 -101 -27 -145 -52 -99 -156 -173 -288 -205 -66 -16 -196
-16 -265 -1 -184 43 -326 186 -370 373 -32 136 -9 230 80 327 116 125 296 178
460 136z m-903 -1402 c18 -20 51 -57 72 -81 74 -81 248 -185 431 -257 88 -34
102 -46 80 -69 -44 -43 -206 -3 -375 94 -125 72 -185 122 -231 192 -76 119
-58 213 23 121z"/>
<path d="M4663 4812 c-149 -53 -222 -196 -178 -347 23 -81 105 -163 189 -189
75 -24 154 -17 224 18 29 14 81 32 117 40 105 22 141 69 132 172 -9 113 -103
236 -224 291 -77 35 -186 41 -260 15z m230 -168 c21 -14 50 -44 65 -67 15 -23
39 -54 55 -69 30 -30 36 -72 14 -103 -19 -25 -37 -11 -37 30 0 42 -9 65 -25
65 -16 0 -25 -22 -25 -60 0 -15 -6 -33 -14 -39 -20 -17 -41 8 -56 68 -14 60
-41 91 -79 91 -32 0 -43 -16 -34 -51 4 -15 0 -26 -12 -35 -27 -20 -43 -17 -70
11 -30 29 -34 97 -9 134 44 62 152 75 227 25z"/>
<path d="M4568 5914 c-215 -18 -306 -42 -479 -129 -170 -86 -398 -266 -461
-364 -45 -72 -33 -124 25 -102 12 5 67 44 122 87 371 290 633 384 1070 384
250 0 421 -32 692 -130 179 -65 223 -71 223 -31 0 64 -227 181 -479 247 -205
53 -407 64 -713 38z"/>
<path d="M4675 5669 c-181 -19 -352 -67 -504 -142 -47 -23 -161 -93 -253 -154
-92 -62 -199 -128 -237 -148 -94 -47 -131 -82 -201 -187 -222 -337 -283 -791
-165 -1236 80 -301 297 -672 393 -672 70 0 71 62 1 177 -82 136 -167 350 -219
552 -117 458 -24 917 238 1179 117 117 397 310 542 374 223 99 486 140 763
119 213 -17 344 -48 584 -142 268 -105 432 -276 537 -559 42 -111 72 -148 106
-130 71 38 65 220 -12 374 -63 126 -157 234 -289 331 -93 68 -144 91 -234 105
-44 7 -150 34 -235 61 -302 97 -547 126 -815 98z"/>
<path d="M6761 3784 c-178 -159 -274 -261 -485 -514 -152 -183 -201 -231 -344
-338 -130 -98 -163 -133 -145 -160 8 -12 24 -17 61 -17 62 1 183 58 287 136
91 68 253 232 336 339 116 149 488 717 466 709 -1 0 -80 -70 -176 -155z"/>
<path d="M4054 3761 c-39 -17 -35 -29 27 -75 102 -77 235 -155 414 -243 245
-121 273 -128 475 -127 145 1 177 4 263 27 121 32 206 73 227 109 13 25 13 29
-3 45 -22 22 -95 22 -227 -2 -57 -11 -151 -18 -235 -19 -219 -2 -326 29 -655
190 -195 95 -246 112 -286 95z"/>
<path d="M3330 3300 c6 -11 13 -20 16 -20 2 0 0 9 -6 20 -6 11 -13 20 -16 20
-2 0 0 -9 6 -20z"/>
<path d="M3360 3250 c6 -11 13 -20 16 -20 2 0 0 9 -6 20 -6 11 -13 20 -16 20
-2 0 0 -9 6 -20z"/>
<path d="M3421 3158 c47 -69 211 -288 216 -288 6 0 -22 39 -135 193 -52 70
-97 127 -99 127 -2 0 6 -15 18 -32z"/>
<path d="M3650 2846 c0 -2 8 -10 18 -17 15 -13 16 -12 3 4 -13 16 -21 21 -21
13z"/>
<path d="M3725 2760 c10 -11 20 -20 23 -20 3 0 -3 9 -13 20 -10 11 -20 20 -23
20 -3 0 3 -9 13 -20z"/>
<path d="M4220 2388 c8 -8 268 -86 366 -109 277 -66 583 -65 902 2 56 12 101
24 99 26 -3 2 -70 -3 -150 -12 -191 -20 -511 -20 -664 0 -65 9 -185 29 -268
45 -82 15 -170 31 -195 35 -25 3 -56 9 -70 12 -14 3 -23 3 -20 1z"/>
<path d="M5618 2313 c7 -3 16 -2 19 1 4 3 -2 6 -13 5 -11 0 -14 -3 -6 -6z"/>
</g>
</svg>
