<?xml version="1.0" standalone="no"?>
<!DOCTYPE svg PUBLIC "-//W3C//DTD SVG 20010904//EN"
 "http://www.w3.org/TR/2001/REC-SVG-20010904/DTD/svg10.dtd">
<svg version="1.0" xmlns="http://www.w3.org/2000/svg"
 width="1000.000000pt" height="1000.000000pt" viewBox="0 0 1000.000000 1000.000000"
 preserveAspectRatio="xMidYMid meet">
<metadata>
  <rdf:RDF
    xmlns:rdf = "http://www.w3.org/1999/02/22-rdf-syntax-ns#"
    xmlns:rdfs = "http://www.w3.org/2000/01/rdf-schema#"
    xmlns:dc = "http://purl.org/dc/elements/1.1/"
    xmlns:cc = "http://creativecommons.org/ns#">
    <cc:license rdf:resource="http://creativecommons.org/publicdomain/zero/1.0/deed.en"/>
    <cc:permits rdf:resource="http://creativecommons.org/ns#Reproduction"/>
    <rdf:Description about="https://nft.mir.one/fingerprints"
      dc:title="TON Fingerprints"
      dc:description="This is a unique digital fingerprint created based on the algorithm for generating basic rings using a noise texture. Like human fingerprints, you can now use it for the Web3 and Metaverse era as digital biometric information."
      dc:publisher="https://nft.mir.one"
      dc:date="2022-02-22"
      dc:format="image/svg+xml"
      dc:language="en" >
      <dc:creator>
      <rdf:Bag>
        <rdf:li>EQBondcvD2_aOFADXSWJHs4ZazQDuEl9_wNvGGPxI8hGuOFU</rdf:li>
        <rdf:li>ipfs://bafkreihj7iub3fhmhq6jn62noukt5wxn3gv6bvcg7wmt6ywvlurefezckq</rdf:li>
      </rdf:Bag>
      </dc:creator>
    </rdf:Description>
  </rdf:RDF>
</metadata>
<g transform="translate(0.000000,1000.000000) scale(0.100000,-0.100000)"
fill="#1b1f23" stroke="none">
<path d="M4965 7708 c-65 -12 -172 -63 -185 -89 -14 -25 -7 -35 35 -49 20 -6
60 -26 90 -44 77 -47 209 -69 610 -101 105 -8 223 -20 263 -26 113 -16 174
-13 213 10 19 12 45 21 59 22 14 1 0 5 -30 10 -30 5 -97 23 -150 39 -52 16
-117 34 -144 40 -52 11 -435 44 -663 56 -72 4 -137 10 -144 14 -23 15 1 39 55
55 44 13 100 16 293 14 204 -2 242 0 268 14 30 16 30 16 -25 17 -30 0 -109 7
-175 15 -134 16 -295 18 -370 3z"/>
<path d="M4523 7515 c-324 -84 -624 -312 -961 -732 -68 -84 -126 -153 -131
-153 -4 0 -29 -21 -54 -46 -85 -83 -238 -419 -342 -748 -26 -82 -56 -169 -66
-194 -20 -45 -20 -45 30 7 31 33 59 75 76 119 217 529 288 636 704 1053 167
166 280 252 436 329 159 79 215 92 410 100 88 4 186 13 218 20 51 13 70 12
161 -3 167 -28 522 -121 636 -166 304 -119 622 -383 755 -625 62 -111 261
-683 296 -846 31 -149 32 -336 2 -402 -20 -43 -51 -67 -71 -54 -5 3 -12 63
-15 133 -11 227 -70 433 -200 698 -77 155 -79 162 -73 215 9 74 -12 139 -73
232 -120 185 -346 372 -596 493 -117 58 -359 141 -594 205 -197 54 -275 53
-249 -5 15 -33 53 -51 353 -170 349 -137 355 -140 455 -190 134 -67 259 -156
375 -267 110 -104 265 -288 265 -313 0 -25 -39 -27 -85 -5 -25 12 -107 80
-183 152 -256 242 -381 318 -703 427 -91 31 -142 55 -180 84 -68 51 -157 92
-330 151 -119 40 -145 46 -220 46 -118 0 -233 -30 -364 -95 -249 -123 -479
-330 -562 -505 -19 -41 -66 -118 -103 -170 -127 -177 -191 -297 -247 -463 -33
-97 -36 -194 -15 -502 19 -279 44 -419 98 -547 81 -194 323 -512 426 -561 86
-41 91 18 11 129 -109 152 -184 273 -238 386 -86 179 -120 332 -131 583 -13
286 37 495 161 685 88 133 147 181 396 322 396 225 486 253 907 287 273 22
333 18 494 -36 177 -58 317 -148 430 -275 33 -38 124 -122 202 -188 77 -65
158 -141 179 -167 100 -124 173 -288 243 -540 49 -179 51 -186 97 -250 29 -41
30 -45 24 -125 -10 -147 -84 -337 -169 -433 -22 -25 -66 -63 -99 -86 -42 -30
-95 -87 -183 -198 -220 -276 -384 -411 -607 -500 -214 -85 -410 -110 -559 -71
-97 26 -225 30 -283 11 -49 -17 -102 -7 -134 25 -24 24 -24 26 -8 44 30 33 94
42 390 50 247 7 301 11 367 29 301 82 557 287 688 549 21 42 60 145 86 227 48
150 48 150 48 305 0 140 -3 164 -27 245 -38 125 -115 276 -187 367 -189 237
-513 368 -875 355 -173 -7 -260 -28 -410 -102 -181 -89 -304 -208 -384 -370
-57 -114 -74 -190 -75 -320 -1 -93 2 -117 21 -157 23 -50 49 -62 73 -33 6 8
18 61 25 119 19 141 31 187 75 281 101 218 284 360 540 420 94 21 283 19 392
-5 356 -78 606 -336 682 -703 19 -92 21 -242 3 -277 -7 -14 -20 -26 -30 -28
-24 -5 -41 40 -67 177 -41 219 -120 381 -244 506 -86 86 -179 143 -306 187
-90 31 -103 32 -240 33 -126 0 -154 -3 -215 -23 -212 -71 -352 -198 -433 -394
-39 -94 -96 -367 -88 -421 19 -118 152 -268 201 -227 21 17 19 41 -10 145 -81
295 40 600 286 718 94 45 143 56 249 57 287 0 521 -180 619 -475 50 -151 84
-336 79 -426 -13 -219 -219 -439 -503 -536 -106 -36 -213 -51 -411 -58 -98 -4
-215 -11 -259 -16 -133 -15 -228 -11 -290 12 -76 28 -110 60 -134 124 -27 71
-115 247 -204 404 -158 283 -205 428 -214 661 -11 293 64 509 244 700 225 240
536 383 912 421 206 20 400 -9 633 -96 134 -50 171 -54 176 -16 9 58 -168 172
-350 225 -281 81 -714 40 -1025 -97 -278 -123 -521 -313 -623 -487 -96 -164
-135 -324 -134 -555 0 -303 57 -486 253 -818 49 -84 100 -179 112 -212 24 -64
63 -128 98 -159 54 -48 3 -86 -89 -66 -152 34 -267 94 -361 190 -52 53 -222
268 -310 392 -41 57 -81 164 -104 276 -16 79 -35 332 -35 477 0 94 -13 137
-42 143 -23 4 -43 -38 -59 -128 -23 -124 -18 -502 8 -685 12 -82 25 -189 28
-237 7 -104 24 -174 69 -284 77 -188 245 -376 491 -546 287 -200 751 -410 999
-453 135 -23 324 -20 501 10 83 13 205 29 271 34 181 15 315 65 681 258 103
54 247 125 318 157 238 107 302 152 410 291 65 83 202 290 188 283 -4 -2 -21
-10 -38 -18 -16 -8 -79 -55 -140 -105 -277 -228 -408 -307 -481 -289 -45 11
-26 40 89 131 225 181 395 350 441 442 60 117 120 339 147 541 20 145 17 529
-5 668 -34 222 -96 445 -203 732 -125 336 -209 476 -403 670 -120 120 -228
203 -343 264 -70 37 -87 38 -87 8 0 -34 32 -62 160 -142 170 -105 357 -246
413 -312 102 -121 142 -203 243 -501 181 -534 216 -715 195 -1003 -27 -378
-148 -698 -361 -954 -28 -33 -100 -111 -158 -173 -169 -176 -204 -225 -217
-302 -4 -22 -19 -53 -33 -68 -67 -72 -400 -262 -577 -331 -121 -46 -211 -68
-460 -112 -336 -58 -472 -51 -695 37 -111 44 -597 284 -714 353 -125 73 -248
166 -324 243 -133 135 -258 339 -269 437 -5 42 -4 46 16 46 28 0 43 -16 135
-149 85 -123 195 -244 280 -311 90 -68 198 -124 399 -205 241 -97 261 -108
432 -218 245 -160 351 -184 551 -127 38 11 121 29 184 41 257 46 433 104 605
201 172 97 268 181 405 353 48 61 127 154 176 208 252 279 304 366 409 688 87
268 102 406 69 627 -48 327 -230 828 -385 1059 -71 107 -221 252 -359 348 -63
43 -144 101 -180 128 -134 100 -215 126 -615 193 -417 69 -496 93 -575 170
-44 42 -83 44 -217 9z m384 -673 c147 -32 185 -60 119 -87 -27 -12 -80 -15
-230 -15 -131 0 -220 -5 -273 -15 -171 -33 -326 -101 -536 -237 -65 -42 -139
-85 -163 -94 -41 -15 -47 -16 -61 -2 -21 22 -9 41 85 130 170 159 420 297 613
338 73 15 342 4 446 -18z m-91 -3182 c81 -15 114 -29 114 -50 0 -22 -19 -30
-76 -30 -91 0 -174 36 -174 75 0 18 50 20 136 5z"/>
<path d="M3714 7228 c-19 -23 -19 -23 4 -4 21 18 27 26 19 26 -2 0 -12 -10
-23 -22z"/>
<path d="M3659 7163 c-24 -28 -24 -28 4 -4 25 23 32 31 24 31 -2 0 -14 -12
-28 -27z"/>
<path d="M3614 7108 c-19 -23 -19 -23 4 -4 21 18 27 26 19 26 -2 0 -12 -10
-23 -22z"/>
<path d="M3574 7058 c-19 -23 -19 -23 4 -4 21 18 27 26 19 26 -2 0 -12 -10
-23 -22z"/>
<path d="M3539 7013 c-29 -35 -41 -53 -36 -53 2 0 17 16 31 35 28 36 31 49 5
18z"/>
<path d="M3479 6933 c-13 -16 -12 -17 4 -4 9 7 17 15 17 17 0 8 -8 3 -21 -13z"/>
<path d="M3375 6769 c-9 -17 -15 -33 -13 -35 3 -2 12 12 21 31 21 43 13 47 -8
4z"/>
<path d="M4815 6204 c-176 -31 -376 -110 -518 -206 -92 -61 -237 -211 -286
-295 -96 -163 -137 -330 -128 -518 10 -193 66 -340 253 -662 124 -214 155
-257 212 -290 38 -23 56 -27 102 -24 112 7 157 5 260 -8 368 -48 688 70 830
305 126 210 71 565 -118 753 -111 110 -236 158 -388 148 -291 -18 -475 -314
-373 -602 50 -143 156 -225 289 -225 219 0 374 192 317 391 -30 101 -121 178
-210 179 -104 0 -180 -98 -131 -168 22 -32 66 -27 74 8 8 34 45 38 76 9 18
-17 24 -33 24 -63 0 -77 -59 -136 -134 -136 -105 0 -175 82 -176 206 -1 202
218 322 413 226 116 -57 197 -177 220 -322 28 -184 -70 -367 -244 -454 -90
-45 -162 -59 -273 -54 -103 5 -170 28 -286 98 -67 40 -72 42 -128 35 -34 -4
-76 -2 -99 4 -51 14 -115 81 -172 181 -24 41 -58 98 -76 126 -85 132 -109 211
-108 359 6 517 508 907 1111 864 204 -15 483 -92 616 -170 96 -57 238 -200
304 -309 61 -98 123 -251 154 -377 30 -125 30 -282 0 -433 -27 -130 -22 -170
21 -170 48 0 110 98 147 231 32 115 28 229 -14 391 -103 399 -226 605 -470
790 -109 82 -145 97 -231 98 -48 0 -111 11 -200 35 -71 20 -170 42 -220 50
-112 18 -333 18 -440 -1z m-364 -1789 c63 -44 90 -125 41 -125 -20 0 -95 74
-106 104 -6 17 8 46 22 46 3 0 22 -11 43 -25z"/>
<path d="M3019 4110 c18 -51 110 -238 158 -321 104 -180 272 -374 398 -459 97
-65 288 -173 403 -227 485 -226 848 -282 1161 -178 146 49 283 122 296 158 7
22 6 30 -5 37 -26 17 -101 11 -209 -15 -229 -56 -370 -67 -550 -45 -409 52
-1031 368 -1348 687 -84 86 -236 272 -300 369 -11 17 -11 16 -4 -6z"/>
<path d="M6810 3731 c-30 -15 -84 -45 -120 -68 -83 -51 -444 -240 -815 -426
-279 -139 -293 -148 -365 -219 -124 -122 -320 -238 -462 -274 -108 -28 -336
-25 -483 5 -277 57 -668 222 -970 407 -60 37 -144 85 -185 106 -75 40 -75 40
30 -67 284 -288 604 -481 991 -599 191 -58 273 -70 469 -70 157 -1 183 1 250
23 72 22 79 27 180 131 129 132 296 245 551 374 384 194 617 328 715 409 81
67 282 283 272 292 -1 2 -28 -9 -58 -24z"/>
<path d="M6600 3297 c-30 -13 -129 -66 -220 -119 -91 -53 -284 -155 -430 -228
-415 -207 -540 -289 -540 -354 0 -37 14 -39 72 -10 29 15 132 60 229 100 409
169 534 247 839 522 58 53 109 99 115 104 16 14 -7 9 -65 -15z"/>
<path d="M6235 2775 c-438 -176 -592 -226 -743 -241 -67 -6 -73 -9 -70 -28 7
-48 99 -59 233 -27 153 37 330 118 525 239 146 90 151 95 55 57z"/>
<path d="M3925 2615 c168 -101 455 -241 574 -279 135 -44 221 -61 401 -81 90
-10 159 -23 183 -34 37 -19 37 -19 100 14 34 18 81 38 104 44 34 10 262 38
338 42 29 2 -156 27 -250 35 -64 5 -96 2 -162 -15 -100 -26 -118 -26 -318 -1
-292 36 -420 72 -708 196 -84 36 -192 81 -242 98 -49 18 -99 36 -110 40 -11 4
30 -22 90 -59z"/>
<path d="M5108 2183 c7 -3 16 -2 19 1 4 3 -2 6 -13 5 -11 0 -14 -3 -6 -6z"/>
</g>
</svg>
