<?xml version="1.0" standalone="no"?>
<!DOCTYPE svg PUBLIC "-//W3C//DTD SVG 20010904//EN"
 "http://www.w3.org/TR/2001/REC-SVG-20010904/DTD/svg10.dtd">
<svg version="1.0" xmlns="http://www.w3.org/2000/svg"
 width="1000.000000pt" height="1000.000000pt" viewBox="0 0 1000.000000 1000.000000"
 preserveAspectRatio="xMidYMid meet">
<metadata>
  <rdf:RDF
    xmlns:rdf = "http://www.w3.org/1999/02/22-rdf-syntax-ns#"
    xmlns:rdfs = "http://www.w3.org/2000/01/rdf-schema#"
    xmlns:dc = "http://purl.org/dc/elements/1.1/"
    xmlns:cc = "http://creativecommons.org/ns#">
    <cc:license rdf:resource="http://creativecommons.org/publicdomain/zero/1.0/deed.en"/>
    <cc:permits rdf:resource="http://creativecommons.org/ns#Reproduction"/>
    <rdf:Description about="https://nft.mir.one/fingerprints"
      dc:title="TON Fingerprints"
      dc:description="This is a unique digital fingerprint created based on the algorithm for generating basic rings using a noise texture. Like human fingerprints, you can now use it for the Web3 and Metaverse era as digital biometric information."
      dc:publisher="https://nft.mir.one"
      dc:date="2022-02-22"
      dc:format="image/svg+xml"
      dc:language="en" >
      <dc:creator>
      <rdf:Bag>
        <rdf:li>EQBondcvD2_aOFADXSWJHs4ZazQDuEl9_wNvGGPxI8hGuOFU</rdf:li>
        <rdf:li>ipfs://bafkreihj7iub3fhmhq6jn62noukt5wxn3gv6bvcg7wmt6ywvlurefezckq</rdf:li>
      </rdf:Bag>
      </dc:creator>
    </rdf:Description>
  </rdf:RDF>
</metadata>
<g transform="translate(0.000000,1000.000000) scale(0.100000,-0.100000)"
fill="#1b1f23" stroke="none">
<path d="M4908 7813 c7 -3 16 -2 19 1 4 3 -2 6 -13 5 -11 0 -14 -3 -6 -6z"/>
<path d="M4858 7803 c7 -3 16 -2 19 1 4 3 -2 6 -13 5 -11 0 -14 -3 -6 -6z"/>
<path d="M4675 7765 c-268 -69 -450 -154 -606 -281 -62 -51 -256 -256 -448
-472 -173 -197 -334 -431 -422 -617 -48 -101 -141 -336 -135 -342 1 -2 31 62
65 141 63 145 94 196 210 347 85 111 310 334 441 438 206 162 200 156 200 210
0 75 26 142 84 222 108 149 280 243 627 343 181 53 171 60 -16 11z"/>
<path d="M5010 7639 c-120 -14 -314 -57 -441 -99 -262 -86 -441 -205 -464
-309 -3 -16 -17 -39 -31 -51 -62 -59 7 -127 153 -151 56 -9 103 -7 273 10 281
29 411 28 541 -4 97 -23 143 -29 424 -55 149 -14 307 -45 585 -113 233 -58
345 -103 470 -189 113 -77 229 -156 242 -164 23 -14 -188 229 -248 287 -80 75
-204 166 -289 211 -76 40 -308 107 -465 134 -71 12 -138 16 -265 13 -318 -7
-380 -4 -409 14 -21 14 -24 21 -16 37 13 24 52 36 185 56 61 8 150 29 199 46
78 27 98 30 165 25 100 -7 252 -39 420 -89 116 -34 271 -70 278 -64 5 4 -255
153 -338 193 -94 47 -423 178 -560 223 -135 45 -254 57 -409 39z m363 -146
c33 -10 52 -23 60 -40 15 -34 2 -40 -107 -47 -140 -10 -211 -25 -336 -71 -100
-37 -546 -144 -707 -170 -59 -9 -103 2 -103 25 0 52 276 157 699 266 257 66
377 75 494 37z"/>
<path d="M4495 6894 c-16 -3 -108 -16 -203 -30 -96 -14 -208 -36 -250 -49
-152 -49 -378 -192 -508 -321 -122 -122 -200 -254 -332 -564 -104 -245 -127
-306 -150 -400 -42 -173 -44 -213 -33 -699 9 -396 13 -474 31 -560 57 -280
235 -627 425 -829 135 -144 301 -269 622 -467 103 -64 238 -150 299 -190 135
-89 185 -114 289 -148 133 -43 247 -61 395 -61 163 0 224 19 287 87 22 23 46
48 55 55 9 7 114 37 234 67 250 61 426 119 534 176 97 50 239 158 383 289 115
105 115 105 77 108 -44 3 -79 -12 -211 -93 -315 -194 -659 -309 -924 -308
-184 0 -576 88 -818 183 -204 80 -429 206 -620 347 -334 248 -575 517 -734
820 -71 137 -90 163 -113 163 -97 0 18 -318 207 -572 210 -283 523 -546 918
-769 287 -162 426 -210 834 -288 109 -21 154 -43 159 -79 5 -30 -41 -36 -212
-29 -218 9 -409 58 -598 153 -216 108 -567 331 -749 474 -456 361 -759 878
-660 1128 22 55 56 239 66 352 9 112 22 148 80 228 30 40 63 98 75 128 51 136
68 382 35 487 -17 51 -17 64 -6 120 23 114 115 325 184 427 94 137 205 205
240 148 9 -13 4 -28 -23 -70 -115 -182 -168 -297 -206 -447 -20 -79 -27 -139
-35 -341 -14 -321 -12 -347 39 -441 22 -41 54 -108 70 -150 36 -91 84 -189
180 -372 72 -136 84 -179 51 -185 -28 -5 -67 37 -147 156 -92 138 -171 290
-201 387 -35 108 -42 125 -63 136 -16 9 -25 6 -44 -12 -61 -57 -58 -201 5
-294 231 -339 279 -398 380 -467 44 -30 143 -114 220 -185 256 -239 446 -383
596 -454 113 -52 208 -82 396 -123 90 -20 193 -45 229 -56 100 -31 347 -80
404 -80 226 1 523 194 714 465 113 160 178 322 219 545 26 145 24 458 -6 660
-41 285 -91 487 -156 639 -91 214 -243 409 -301 387 -9 -3 -14 -21 -14 -48 0
-34 17 -78 76 -198 95 -194 136 -299 175 -447 83 -324 103 -675 58 -1008 -31
-232 -150 -448 -356 -646 -104 -100 -192 -162 -286 -202 -109 -45 -224 -47
-187 -2 7 8 58 39 114 67 93 47 112 62 231 182 198 200 297 343 341 491 13 45
15 79 11 144 -4 53 0 134 9 216 33 272 -14 624 -123 915 -51 136 -235 522
-276 578 -88 120 -247 241 -400 305 -260 108 -586 128 -757 44 -38 -19 -45
-26 -45 -52 0 -44 34 -55 220 -71 331 -27 514 -90 701 -238 273 -216 501 -752
521 -1224 6 -137 -4 -205 -43 -287 -69 -146 -326 -421 -479 -514 -186 -113
-281 -179 -310 -214 -117 -145 -134 -152 -324 -144 -246 10 -429 95 -502 233
-8 16 -54 55 -103 88 -96 65 -237 192 -279 254 -15 21 -56 104 -91 183 -35 79
-90 200 -121 268 -72 159 -130 334 -151 453 -13 71 -15 128 -11 243 11 269 45
434 142 680 35 88 66 177 70 197 15 83 89 159 225 234 107 60 376 183 412 189
44 8 78 -1 78 -21 0 -8 -26 -43 -59 -78 -64 -69 -79 -99 -61 -121 26 -31 74
-17 175 50 130 87 175 100 345 99 263 -2 543 -76 715 -189 33 -22 124 -102
203 -177 136 -131 146 -138 212 -158 115 -34 211 -128 313 -305 97 -168 142
-339 211 -800 40 -270 48 -380 36 -507 -39 -414 -161 -688 -425 -954 -147
-148 -289 -233 -481 -289 -193 -56 -375 -44 -759 51 -525 130 -766 275 -1274
769 -145 142 -214 223 -333 395 -79 114 -108 143 -140 138 -19 -2 -23 -10 -26
-43 -3 -45 18 -86 163 -305 106 -160 211 -285 367 -435 359 -347 709 -554
1135 -670 267 -73 370 -90 568 -90 165 0 189 2 288 28 311 81 560 235 688 424
27 40 77 105 111 145 79 95 133 178 152 236 23 70 105 443 122 552 20 138 18
261 -6 345 -21 72 -87 464 -115 685 -9 69 -25 154 -36 190 -45 141 -161 324
-283 445 -34 34 -125 109 -203 169 -78 59 -160 127 -182 152 -46 53 -61 99
-38 122 14 13 23 11 89 -28 400 -237 639 -497 789 -861 33 -79 33 -79 66 -73
21 4 39 1 50 -7 13 -11 12 -6 -4 21 -12 20 -47 100 -77 179 -142 364 -300 596
-494 725 -145 96 -266 143 -339 133 -137 -20 -135 -20 -213 11 -266 106 -582
164 -995 182 -110 5 -240 11 -290 14 -49 2 -103 2 -120 0z m-1201 -1223 c5 -8
-76 -407 -103 -507 -15 -57 -34 -71 -59 -46 -29 29 -35 97 -18 208 24 159 70
289 118 334 23 21 53 26 62 11z m2890 -1284 c-2 -73 -118 -259 -235 -376 -79
-79 -121 -104 -190 -112 -44 -5 -97 -25 -200 -74 -145 -71 -210 -86 -217 -53
-4 20 107 91 299 188 75 38 163 90 197 115 59 44 146 142 226 252 42 60 93
106 110 100 6 -2 11 -20 10 -40z m-384 -572 c0 -38 -62 -91 -190 -164 -94 -54
-122 -66 -169 -69 -45 -3 -61 0 -80 15 -33 27 -22 50 26 59 67 12 185 62 288
123 55 33 106 60 113 60 6 1 12 -10 12 -24z"/>
<path d="M4320 6359 c-75 -15 -145 -56 -207 -123 -97 -103 -172 -281 -173
-407 0 -26 -12 -107 -26 -180 -18 -93 -28 -180 -31 -284 -6 -172 12 -281 73
-465 46 -136 179 -407 243 -491 90 -121 225 -214 345 -239 143 -29 403 -27
521 5 89 23 270 115 361 183 92 68 203 182 257 264 20 31 65 111 98 178 64
127 98 166 123 139 11 -12 11 -26 -1 -84 -59 -282 -303 -554 -658 -730 -192
-95 -300 -116 -505 -96 -121 12 -167 6 -184 -23 -17 -28 39 -70 136 -103 76
-25 96 -27 233 -28 141 0 153 2 205 26 72 34 392 236 491 311 153 115 309 309
366 454 21 55 27 87 27 154 1 75 -3 92 -27 138 -21 40 -31 78 -38 145 -49 464
-276 822 -623 982 -108 50 -225 81 -414 109 -194 29 -273 52 -357 101 -114 67
-158 79 -235 64z m103 -190 c21 -33 -5 -73 -124 -194 -123 -126 -173 -163
-204 -151 -67 25 100 271 230 339 55 29 83 31 98 6z m627 -209 c344 -90 584
-317 671 -635 45 -166 25 -294 -80 -503 -111 -220 -271 -376 -476 -461 -107
-45 -191 -61 -321 -61 -282 0 -487 124 -628 381 -197 358 -201 787 -9 985 143
146 344 287 449 314 67 16 298 5 394 -20z"/>
<path d="M4662 5794 c-148 -39 -317 -183 -387 -329 -151 -315 -16 -771 284
-960 169 -106 418 -112 616 -15 152 74 262 185 341 345 56 114 74 187 74 295
0 102 -18 176 -65 269 -105 210 -292 333 -592 391 -120 23 -197 24 -271 4z
m146 -177 c6 -5 12 -14 12 -19 0 -5 -45 -52 -100 -105 -117 -112 -164 -192
-182 -311 -29 -187 66 -379 229 -459 52 -25 68 -28 158 -28 89 0 106 3 157 28
190 93 258 333 137 480 -88 106 -240 107 -327 1 -64 -77 -64 -186 1 -240 54
-45 142 -16 109 36 -18 30 -15 49 12 61 84 39 139 -84 74 -166 -47 -60 -155
-82 -233 -46 -96 43 -149 132 -149 251 -1 66 4 85 32 142 60 122 196 233 299
244 98 11 229 -60 303 -164 128 -178 98 -433 -71 -601 -99 -100 -222 -151
-359 -151 -146 1 -240 40 -346 145 -111 109 -162 227 -171 390 -6 114 9 191
57 286 82 161 280 286 358 226z"/>
<path d="M6905 5590 c-17 -33 -20 -113 -5 -188 5 -27 23 -148 40 -268 31 -212
47 -271 78 -282 25 -8 -4 375 -47 608 -11 58 -17 108 -14 112 8 14 -8 48 -22
48 -8 0 -21 -13 -30 -30z"/>
<path d="M6977 4182 c-20 -59 -37 -123 -36 -142 1 -35 1 -35 9 0 4 19 22 81
39 138 18 57 31 105 29 107 -2 2 -20 -44 -41 -103z"/>
<path d="M6785 3673 c-57 -14 -175 -138 -175 -184 0 -47 46 -15 128 90 14 18
46 48 70 67 39 29 42 34 21 33 -13 -1 -33 -4 -44 -6z"/>
<path d="M3316 3370 c112 -144 283 -322 394 -409 187 -149 480 -328 609 -372
61 -21 77 -15 67 26 -12 47 -88 107 -277 219 -382 227 -549 348 -827 601 -54
49 -53 47 34 -65z"/>
<path d="M6329 2855 c-3 -2 -29 -11 -59 -19 -30 -8 -123 -39 -207 -70 -83 -31
-223 -77 -309 -102 -87 -25 -180 -56 -208 -68 -63 -28 -116 -79 -116 -112 0
-30 24 -31 136 -4 195 46 409 141 634 280 143 88 160 100 144 100 -6 0 -13 -2
-15 -5z"/>
<path d="M3800 2706 c0 -2 48 -32 108 -66 59 -35 146 -89 193 -120 96 -63 102
-65 419 -135 327 -72 381 -77 775 -69 284 6 333 9 300 19 -65 19 -141 62 -162
91 -20 27 -20 27 -110 16 -254 -33 -557 1 -861 97 -64 19 -64 19 -100 -6 -33
-22 -45 -24 -100 -20 -52 4 -77 13 -150 55 -49 28 -137 72 -197 97 -111 46
-115 48 -115 41z"/>
</g>
</svg>
