<?xml version="1.0" standalone="no"?>
<!DOCTYPE svg PUBLIC "-//W3C//DTD SVG 20010904//EN"
 "http://www.w3.org/TR/2001/REC-SVG-20010904/DTD/svg10.dtd">
<svg version="1.0" xmlns="http://www.w3.org/2000/svg"
 width="1000.000000pt" height="1000.000000pt" viewBox="0 0 1000.000000 1000.000000"
 preserveAspectRatio="xMidYMid meet">
<metadata>
  <rdf:RDF
    xmlns:rdf = "http://www.w3.org/1999/02/22-rdf-syntax-ns#"
    xmlns:rdfs = "http://www.w3.org/2000/01/rdf-schema#"
    xmlns:dc = "http://purl.org/dc/elements/1.1/"
    xmlns:cc = "http://creativecommons.org/ns#">
    <cc:license rdf:resource="http://creativecommons.org/publicdomain/zero/1.0/deed.en"/>
    <cc:permits rdf:resource="http://creativecommons.org/ns#Reproduction"/>
    <rdf:Description about="https://nft.mir.one/fingerprints"
      dc:title="TON Fingerprints"
      dc:description="This is a unique digital fingerprint created based on the algorithm for generating basic rings using a noise texture. Like human fingerprints, you can now use it for the Web3 and Metaverse era as digital biometric information."
      dc:publisher="https://nft.mir.one"
      dc:date="2022-02-22"
      dc:format="image/svg+xml"
      dc:language="en" >
      <dc:creator>
      <rdf:Bag>
        <rdf:li>EQBondcvD2_aOFADXSWJHs4ZazQDuEl9_wNvGGPxI8hGuOFU</rdf:li>
        <rdf:li>ipfs://bafkreihj7iub3fhmhq6jn62noukt5wxn3gv6bvcg7wmt6ywvlurefezckq</rdf:li>
      </rdf:Bag>
      </dc:creator>
    </rdf:Description>
  </rdf:RDF>
</metadata>
<g transform="translate(0.000000,1000.000000) scale(0.100000,-0.100000)"
fill="#1b1f23" stroke="none">
<path d="M4770 7770 c-236 -25 -232 -27 60 -29 365 -2 606 -22 784 -67 32 -8
60 -13 62 -11 8 7 -227 66 -351 87 -138 24 -419 34 -555 20z"/>
<path d="M4468 7733 c6 -2 18 -2 25 0 6 3 1 5 -13 5 -14 0 -19 -2 -12 -5z"/>
<path d="M4865 7594 c-266 -15 -612 -76 -786 -139 -72 -26 -229 -102 -229
-110 0 -3 10 0 22 6 63 34 125 42 353 44 127 1 266 7 310 13 680 95 1342 -46
1678 -357 131 -122 207 -168 207 -127 0 35 -114 163 -230 260 -307 256 -692
393 -1145 409 -66 2 -147 2 -180 1z"/>
<path d="M4065 7282 c-319 -115 -355 -136 -526 -303 -52 -51 -84 -84 -72 -74
23 18 142 83 248 135 33 16 128 50 210 75 160 50 273 99 290 128 29 49 -58 72
-150 39z"/>
<path d="M4719 7286 c-225 -29 -329 -60 -431 -130 -80 -55 -135 -82 -320 -162
-315 -134 -433 -236 -676 -581 -40 -56 -72 -104 -72 -107 0 -14 67 -4 95 13
17 10 82 65 146 123 151 136 233 202 349 278 98 64 475 255 613 309 361 143
877 143 1319 1 169 -55 382 -137 386 -149 2 -5 -8 -17 -23 -27 -37 -24 -121
-15 -295 34 -300 84 -477 112 -713 112 -302 -1 -520 -49 -812 -182 -279 -127
-468 -252 -730 -482 -49 -44 -131 -112 -182 -153 -51 -40 -103 -88 -117 -106
-42 -55 -77 -143 -91 -230 -7 -45 -18 -102 -24 -127 -15 -65 -13 -95 7 -120
18 -23 18 -23 51 29 35 53 64 77 82 65 29 -18 -27 -110 -74 -122 -37 -10 -46
-30 -76 -180 -83 -408 -27 -869 149 -1237 126 -261 251 -428 415 -553 33 -25
98 -82 145 -127 151 -145 272 -221 490 -308 574 -230 800 -245 1411 -92 280
70 381 113 594 252 280 183 428 340 509 540 14 34 48 148 76 255 28 106 73
260 101 341 27 82 49 156 49 165 0 8 -31 -45 -68 -119 -46 -91 -89 -199 -135
-340 -38 -115 -86 -237 -108 -278 -93 -168 -410 -437 -642 -546 -116 -54 -195
-74 -322 -81 -72 -4 -146 -18 -265 -50 -273 -72 -473 -91 -625 -59 -87 18
-113 29 -195 76 -40 23 -120 53 -206 78 -77 23 -176 55 -219 72 -231 89 -372
200 -282 223 27 6 88 -8 267 -63 185 -56 320 -78 402 -63 119 21 403 83 477
103 476 133 898 612 1006 1143 38 186 42 463 9 637 -78 415 -371 690 -814 764
-112 19 -299 16 -377 -5 -48 -14 -85 -45 -81 -68 6 -31 57 -44 212 -53 248
-16 406 -57 552 -145 273 -164 411 -477 391 -889 -16 -333 -135 -630 -354
-878 -90 -101 -184 -174 -296 -230 -286 -140 -595 -206 -844 -180 -92 10 -480
89 -608 124 -81 22 -159 73 -251 164 -184 183 -314 438 -374 737 -55 268 -42
503 45 827 17 62 25 119 25 172 0 152 70 271 284 484 210 209 381 330 641 456
311 151 577 208 900 196 186 -8 274 -22 595 -98 311 -73 458 -119 542 -167 82
-48 239 -205 306 -307 61 -91 195 -356 243 -478 27 -69 34 -101 40 -202 8
-139 37 -236 81 -268 32 -24 58 -14 28 11 -35 30 -78 259 -51 276 6 4 11 19
11 33 0 37 -130 418 -189 557 -91 211 -218 416 -332 533 -60 61 -87 78 -144
88 -22 4 -74 21 -116 36 -75 29 -77 30 -83 70 -10 61 -73 116 -209 183 -167
82 -351 138 -563 172 -136 22 -515 27 -655 10z"/>
<path d="M4995 6700 c-491 -56 -1013 -352 -1303 -740 -124 -167 -227 -532
-239 -850 -10 -253 32 -451 142 -675 164 -335 365 -477 800 -564 372 -74 518
-66 775 44 46 20 118 43 159 50 96 19 148 50 247 149 173 173 296 415 340 666
25 143 15 411 -19 541 -80 306 -282 482 -612 534 -49 8 -171 19 -270 25 -152
10 -191 9 -251 -4 -247 -51 -480 -293 -548 -567 -20 -83 -21 -236 -1 -314 40
-156 142 -291 266 -352 83 -41 134 -52 244 -54 111 -1 140 -9 140 -34 0 -29
-94 -72 -188 -87 -283 -43 -544 152 -628 470 -26 99 -29 285 -5 390 70 317
286 566 628 726 51 24 124 69 161 99 100 80 164 99 347 105 215 6 375 -30 575
-128 192 -95 344 -244 434 -427 52 -105 99 -283 107 -403 8 -121 -12 -511 -31
-600 -38 -176 -122 -378 -222 -535 -111 -172 -376 -459 -515 -558 -139 -99
-308 -159 -544 -192 -65 -10 -138 -26 -162 -36 -38 -16 -43 -22 -40 -46 2 -24
11 -31 53 -46 42 -15 73 -17 195 -13 156 5 247 21 378 66 143 48 179 76 338
265 80 94 187 220 240 280 170 195 293 402 362 610 69 209 98 434 68 537 -9
31 -16 66 -16 77 0 24 22 28 40 6 16 -19 39 -19 46 -1 3 8 -4 43 -15 79 -10
35 -29 144 -41 242 -12 98 -31 208 -42 244 -70 228 -263 450 -497 570 -218
111 -437 165 -676 165 -221 0 -345 -32 -586 -151 -436 -215 -679 -482 -776
-851 -36 -139 -43 -367 -15 -502 67 -325 286 -568 562 -626 124 -26 260 -1
404 74 77 40 120 82 231 222 103 129 137 200 143 295 6 94 -13 149 -69 199
-33 30 -47 36 -84 36 -51 0 -85 -25 -85 -62 0 -38 17 -53 57 -53 32 0 39 -4
47 -28 9 -24 4 -40 -37 -121 -52 -101 -76 -122 -149 -132 -53 -7 -160 17 -227
50 -100 51 -185 166 -210 284 -47 224 81 473 300 581 117 58 200 73 394 73
176 -1 267 -12 350 -43 112 -42 222 -152 264 -263 26 -71 61 -325 61 -447 0
-281 -113 -556 -315 -767 -86 -90 -148 -137 -170 -128 -26 10 -17 42 30 103
25 32 77 99 116 148 163 211 243 459 219 679 -14 116 -35 171 -84 214 -22 21
-110 105 -194 189 -141 140 -157 152 -198 159 -55 8 -256 -25 -335 -55 -122
-46 -208 -129 -249 -238 -29 -77 -25 -196 8 -264 47 -97 151 -169 242 -169 44
0 90 21 90 40 0 5 -24 28 -52 51 -129 100 -139 231 -25 322 74 61 181 37 292
-65 80 -73 118 -155 123 -267 4 -73 0 -98 -22 -163 -32 -96 -89 -193 -169
-284 -87 -100 -152 -153 -265 -214 -53 -29 -131 -75 -172 -102 -75 -50 -75
-50 -185 -45 -296 12 -553 183 -697 463 -95 184 -133 367 -124 589 12 297 96
555 248 757 214 283 632 537 1022 620 120 25 381 30 511 10 267 -43 522 -137
692 -254 186 -128 338 -333 412 -555 24 -71 26 -109 10 -200 -9 -51 -8 -92 6
-211 18 -154 18 -157 -17 -482 -19 -184 -88 -411 -179 -593 -83 -165 -162
-272 -359 -487 -123 -135 -240 -299 -240 -336 0 -42 29 -46 156 -25 140 23
205 53 342 155 209 157 339 303 427 481 66 132 187 463 220 597 48 199 57 453
20 608 -74 308 -229 680 -374 897 -176 263 -375 386 -806 497 -279 71 -548 99
-750 76z m1709 -1180 c54 -65 108 -314 108 -505 1 -194 -30 -361 -108 -586
-78 -225 -157 -385 -260 -522 -121 -161 -410 -411 -484 -419 -60 -7 -33 31
152 215 116 115 206 214 245 270 148 211 267 509 319 797 27 147 25 421 -4
577 -28 156 -29 203 -1 203 4 0 19 -14 33 -30z m-1470 -139 c23 -16 81 -70
128 -120 152 -159 197 -293 164 -485 -29 -175 -101 -313 -272 -525 -155 -192
-258 -257 -426 -268 -85 -6 -128 10 -128 47 0 15 17 24 87 45 178 55 298 137
419 289 150 187 216 343 216 506 0 164 -48 260 -209 416 -87 85 -104 110 -86
128 13 13 62 -2 107 -33z"/>
<path d="M3041 5837 c-6 -8 -20 -40 -31 -72 -35 -103 -99 -475 -87 -506 3 -8
6 -1 6 14 2 56 73 394 102 481 29 90 32 108 10 83z"/>
<path d="M5330 5565 c-16 -19 -10 -26 76 -91 41 -31 101 -87 135 -124 68 -77
88 -89 106 -64 25 34 -15 123 -88 196 -79 79 -197 122 -229 83z"/>
<path d="M2913 5200 c0 -25 2 -35 4 -22 2 12 2 32 0 45 -2 12 -4 2 -4 -23z"/>
<path d="M2904 4980 c0 -63 1 -89 3 -57 2 31 2 83 0 115 -2 31 -3 5 -3 -58z"/>
<path d="M2912 4760 c0 -19 2 -27 5 -17 2 9 2 25 0 35 -3 9 -5 1 -5 -18z"/>
<path d="M2922 4680 c0 -19 2 -27 5 -17 2 9 2 25 0 35 -3 9 -5 1 -5 -18z"/>
<path d="M2930 4623 c0 -13 12 -82 26 -154 63 -325 196 -691 404 -1114 108
-219 155 -288 289 -423 165 -166 357 -287 616 -390 345 -136 610 -188 915
-179 249 8 376 42 615 167 142 74 363 174 410 186 28 8 27 8 -20 16 -59 9
-157 -12 -310 -66 -426 -150 -432 -151 -705 -151 -170 0 -228 4 -340 23 -330
58 -730 191 -945 315 -171 99 -329 246 -384 359 -23 47 -34 86 -40 146 -8 78
-12 88 -106 257 -53 97 -124 232 -157 302 -88 186 -207 493 -239 618 -15 60
-28 100 -29 88z"/>
<path d="M6684 3447 c-22 -12 -84 -55 -136 -94 -118 -90 -382 -260 -474 -306
-121 -60 -387 -140 -614 -184 -173 -33 -448 -38 -600 -9 -419 77 -769 227
-1050 450 -107 85 -151 108 -198 104 -32 -3 -37 -7 -40 -31 -11 -95 229 -317
480 -443 341 -171 755 -275 1098 -276 233 0 342 21 715 138 235 74 289 98 331
145 60 68 112 117 214 200 96 78 344 330 324 329 -5 -1 -27 -11 -50 -23z"/>
<path d="M6385 2981 c-86 -34 -115 -49 -115 -61 0 -22 50 -8 116 31 112 67
112 74 -1 30z"/>
<path d="M4478 2273 c7 -3 16 -2 19 1 4 3 -2 6 -13 5 -11 0 -14 -3 -6 -6z"/>
<path d="M4548 2253 c7 -3 16 -2 19 1 4 3 -2 6 -13 5 -11 0 -14 -3 -6 -6z"/>
<path d="M4618 2233 c6 -2 18 -2 25 0 6 3 1 5 -13 5 -14 0 -19 -2 -12 -5z"/>
<path d="M4668 2223 c7 -3 16 -2 19 1 4 3 -2 6 -13 5 -11 0 -14 -3 -6 -6z"/>
<path d="M4708 2213 c7 -3 16 -2 19 1 4 3 -2 6 -13 5 -11 0 -14 -3 -6 -6z"/>
<path d="M4758 2203 c7 -3 16 -2 19 1 4 3 -2 6 -13 5 -11 0 -14 -3 -6 -6z"/>
<path d="M4808 2193 c7 -3 16 -2 19 1 4 3 -2 6 -13 5 -11 0 -14 -3 -6 -6z"/>
</g>
</svg>
