<?xml version="1.0" standalone="no"?>
<!DOCTYPE svg PUBLIC "-//W3C//DTD SVG 20010904//EN"
 "http://www.w3.org/TR/2001/REC-SVG-20010904/DTD/svg10.dtd">
<svg version="1.0" xmlns="http://www.w3.org/2000/svg"
 width="1000.000000pt" height="1000.000000pt" viewBox="0 0 1000.000000 1000.000000"
 preserveAspectRatio="xMidYMid meet">
<metadata>
  <rdf:RDF
    xmlns:rdf = "http://www.w3.org/1999/02/22-rdf-syntax-ns#"
    xmlns:rdfs = "http://www.w3.org/2000/01/rdf-schema#"
    xmlns:dc = "http://purl.org/dc/elements/1.1/"
    xmlns:cc = "http://creativecommons.org/ns#">
    <cc:license rdf:resource="http://creativecommons.org/publicdomain/zero/1.0/deed.en"/>
    <cc:permits rdf:resource="http://creativecommons.org/ns#Reproduction"/>
    <rdf:Description about="https://nft.mir.one/fingerprints"
      dc:title="TON Fingerprints"
      dc:description="This is a unique digital fingerprint created based on the algorithm for generating basic rings using a noise texture. Like human fingerprints, you can now use it for the Web3 and Metaverse era as digital biometric information."
      dc:publisher="https://nft.mir.one"
      dc:date="2022-02-22"
      dc:format="image/svg+xml"
      dc:language="en" >
      <dc:creator>
      <rdf:Bag>
        <rdf:li>EQBondcvD2_aOFADXSWJHs4ZazQDuEl9_wNvGGPxI8hGuOFU</rdf:li>
        <rdf:li>ipfs://bafkreihj7iub3fhmhq6jn62noukt5wxn3gv6bvcg7wmt6ywvlurefezckq</rdf:li>
      </rdf:Bag>
      </dc:creator>
    </rdf:Description>
  </rdf:RDF>
</metadata>
<g transform="translate(0.000000,1000.000000) scale(0.100000,-0.100000)"
fill="#1b1f23" stroke="none">
<path d="M4638 7773 c7 -3 16 -2 19 1 4 3 -2 6 -13 5 -11 0 -14 -3 -6 -6z"/>
<path d="M4671 7766 c6 -6 118 -51 229 -93 131 -49 284 -128 425 -221 267
-175 474 -381 602 -600 31 -54 93 -151 138 -217 194 -285 212 -325 142 -325
-44 0 -61 13 -223 171 -158 154 -181 166 -288 155 -87 -9 -103 -28 -68 -84 9
-16 119 -129 244 -251 125 -123 249 -253 276 -289 86 -118 256 -429 342 -626
49 -114 60 -131 86 -139 64 -21 110 -92 146 -225 27 -101 30 -323 5 -425 -19
-75 -47 -136 -72 -157 -15 -13 -20 -11 -37 10 -18 22 -20 34 -14 100 25 312
17 457 -31 602 -26 81 -38 91 -66 60 -27 -29 -37 -112 -37 -293 0 -187 -28
-444 -58 -533 -30 -88 -82 -163 -182 -260 -207 -200 -606 -445 -940 -577 -141
-55 -191 -89 -171 -113 57 -68 374 40 715 244 77 46 193 111 257 146 65 34
151 87 191 117 40 29 118 83 173 119 79 52 128 96 232 207 193 204 216 263
217 536 1 154 0 163 -31 250 -17 50 -79 193 -137 318 -58 125 -106 230 -106
233 0 2 -65 141 -145 308 -80 167 -148 318 -151 336 -4 17 -1 62 6 99 17 91 2
158 -65 287 -116 224 -293 462 -475 638 -215 207 -428 337 -700 426 -110 36
-453 89 -429 66z"/>
<path d="M5445 7743 c16 -15 210 -173 321 -262 289 -230 521 -525 706 -898 85
-172 92 -183 118 -183 15 0 54 -13 85 -30 97 -51 98 -44 4 115 -40 66 -107
180 -151 253 -250 423 -526 692 -963 942 -132 75 -133 76 -120 63z"/>
<path d="M4370 7580 c-67 -9 -253 -46 -280 -57 -21 -9 53 -21 200 -33 290 -24
521 -85 750 -200 190 -95 272 -159 490 -381 127 -129 163 -160 197 -170 49
-14 73 -2 73 35 -1 85 -199 315 -410 476 -225 172 -499 304 -685 329 -86 12
-237 12 -335 1z"/>
<path d="M4173 7348 c-96 -10 -263 -65 -408 -137 -120 -58 -120 -58 -45 -55
41 2 100 8 130 14 94 17 405 24 525 11 343 -37 682 -159 827 -298 45 -44 66
-89 49 -106 -9 -9 -23 -5 -59 16 -321 192 -765 289 -1169 257 -212 -17 -285
-41 -439 -146 -66 -45 -90 -65 -216 -180 -57 -52 -57 -52 20 -19 42 18 119 52
170 74 200 89 380 117 692 108 291 -8 444 -34 725 -123 125 -40 163 -48 231
-48 78 -1 84 -3 139 -40 31 -22 64 -50 72 -63 35 -53 -41 -69 -158 -34 -143
44 -501 130 -609 146 -150 22 -573 37 -711 24 -171 -15 -359 -80 -449 -156
-45 -38 -227 -266 -305 -383 -35 -52 -87 -140 -116 -195 -53 -100 -53 -100
-11 -65 23 19 75 66 115 103 77 73 208 165 271 191 21 9 83 25 139 36 114 23
250 67 352 115 110 51 142 93 90 117 -35 16 -123 -1 -292 -57 -143 -48 -190
-55 -200 -29 -20 52 175 150 349 175 74 11 89 10 143 -7 53 -16 96 -18 370
-19 335 0 439 -12 643 -71 161 -47 207 -82 251 -196 35 -88 27 -98 -97 -123
-18 -4 -165 -8 -325 -9 -250 -2 -306 -6 -393 -24 -316 -65 -682 -259 -899
-476 -212 -213 -380 -540 -393 -768 -4 -82 -3 -90 28 -155 17 -37 54 -133 81
-212 95 -277 199 -437 349 -541 47 -32 143 -108 213 -168 70 -61 167 -137 215
-170 250 -171 524 -252 751 -223 135 17 193 38 252 88 36 30 130 83 284 158
334 164 567 323 740 507 118 125 174 228 215 395 35 145 45 244 45 458 0 210
0 210 -32 275 -18 36 -60 95 -92 133 -46 51 -80 107 -140 230 -96 192 -156
277 -351 487 -160 173 -212 246 -239 333 -16 53 -16 66 -5 103 20 66 -1 118
-92 241 -107 143 -231 243 -409 328 -245 117 -610 194 -822 173z m1302 -1329
c70 -35 171 -124 232 -204 113 -148 145 -295 104 -468 -22 -93 -40 -135 -66
-157 -29 -24 -44 8 -64 140 -23 153 -46 219 -107 311 -74 111 -183 188 -319
223 -168 43 -532 47 -692 7 -191 -48 -341 -130 -545 -300 -208 -173 -376 -419
-429 -632 -39 -151 -13 -332 71 -501 56 -112 91 -159 200 -272 278 -288 620
-447 910 -422 357 30 855 316 1088 625 109 144 186 326 234 551 22 103 35 331
21 368 -8 21 -10 21 -31 6 -35 -24 -57 -77 -123 -296 -94 -310 -150 -434 -263
-585 -139 -185 -416 -379 -652 -459 -257 -86 -489 -71 -727 46 -278 139 -504
397 -562 643 -31 131 -10 267 45 297 36 19 50 -3 50 -81 0 -194 80 -377 238
-540 211 -220 486 -325 757 -290 273 36 557 206 731 437 84 112 138 223 199
408 78 236 176 429 238 466 40 25 52 25 75 2 10 -10 33 -24 50 -31 57 -24 76
-76 80 -218 6 -189 -36 -411 -108 -570 -97 -213 -299 -424 -565 -590 -161
-101 -471 -249 -610 -293 -99 -31 -282 -39 -396 -16 -168 34 -353 123 -520
249 -107 80 -307 257 -351 310 -102 123 -183 286 -229 463 -35 134 -33 307 5
424 90 273 275 507 548 691 183 124 353 198 546 239 80 18 154 23 425 29 180
5 331 12 335 16 14 14 130 -3 177 -26z m-535 -289 c189 -23 311 -78 422 -190
84 -85 131 -170 203 -365 36 -97 37 -103 32 -200 -13 -238 -150 -481 -362
-642 -215 -163 -514 -207 -755 -110 -105 43 -172 89 -271 187 -86 86 -102 106
-147 200 -28 58 -62 151 -76 207 -15 56 -33 118 -41 137 -41 99 4 206 150 352
33 33 92 84 129 112 76 57 90 73 100 115 18 75 135 151 276 181 129 27 215 31
340 16z"/>
<path d="M4600 5584 c-36 -7 -86 -21 -113 -31 -53 -19 -117 -67 -117 -88 0
-34 41 -40 260 -40 199 0 220 -2 282 -23 214 -74 348 -256 348 -472 0 -189
-113 -371 -282 -454 -133 -66 -260 -59 -435 25 -109 52 -188 131 -243 242 -35
73 -70 200 -70 256 0 11 -11 32 -24 48 -21 25 -26 26 -50 15 -87 -39 -69 -266
35 -438 149 -247 445 -379 714 -319 359 79 609 474 515 813 -55 198 -190 360
-356 426 -134 54 -324 71 -464 40z"/>
<path d="M4630 5284 c-139 -23 -210 -53 -254 -104 -14 -17 -29 -42 -32 -56
-12 -48 37 -272 76 -344 21 -40 93 -111 130 -130 51 -26 104 -34 131 -20 34
17 118 100 135 132 38 73 -1 163 -68 156 -44 -4 -57 -30 -35 -67 16 -27 16
-31 1 -45 -20 -20 -73 -21 -102 0 -32 22 -54 70 -54 118 0 56 14 88 52 119
133 112 344 1 343 -181 0 -100 -44 -170 -150 -239 -61 -39 -69 -67 -26 -84 89
-34 248 73 311 209 23 49 27 70 27 152 0 81 -4 103 -26 150 -47 101 -129 174
-235 210 -55 19 -177 32 -224 24z"/>
<path d="M4400 6444 c-134 -20 -200 -41 -316 -100 -67 -35 -216 -102 -329
-149 -219 -91 -300 -135 -403 -218 -163 -132 -254 -295 -347 -621 -25 -87 -98
-457 -91 -463 10 -10 71 100 111 202 119 303 241 504 409 671 133 133 236 203
461 313 216 106 313 146 425 175 182 49 356 57 643 30 166 -15 209 -13 234 8
19 15 -1 45 -47 68 -97 49 -368 91 -583 89 -78 -1 -153 -3 -167 -5z"/>
<path d="M6543 6358 c-39 -49 -23 -114 75 -319 92 -190 146 -323 249 -614 102
-287 127 -336 185 -362 14 -7 28 -22 31 -35 3 -15 5 -11 6 14 0 20 4 43 7 52
4 11 0 16 -15 16 -35 0 -49 37 -86 230 -65 330 -148 620 -230 798 -27 58 -51
90 -116 153 -45 43 -85 79 -89 79 -4 0 -12 -6 -17 -12z"/>
<path d="M7083 4800 c0 -30 2 -43 4 -27 2 15 2 39 0 55 -2 15 -4 2 -4 -28z"/>
<path d="M3065 4706 c-18 -13 -20 -26 -19 -123 0 -123 23 -231 100 -464 33
-102 43 -144 35 -152 -19 -19 -12 -88 15 -172 15 -44 74 -171 130 -283 78
-152 104 -212 104 -241 0 -106 320 -416 591 -573 228 -132 654 -274 969 -324
128 -20 447 -15 581 10 106 19 241 63 365 118 100 44 122 60 36 28 -101 -39
-275 -62 -412 -57 -445 20 -684 60 -1045 177 -406 132 -667 269 -860 451 -92
88 -121 129 -156 224 -12 33 -59 130 -105 215 -81 150 -175 356 -189 413 -6
23 -4 27 14 27 42 0 89 -58 162 -203 39 -78 112 -212 163 -297 78 -134 105
-169 191 -255 155 -156 324 -260 601 -369 377 -148 744 -228 969 -211 126 9
160 20 190 59 30 39 76 65 249 140 265 116 432 227 637 424 184 176 298 327
421 557 101 189 224 481 242 575 7 32 5 30 -17 -15 -13 -27 -32 -57 -41 -65
-10 -8 -37 -41 -59 -75 -23 -33 -72 -101 -109 -152 -60 -81 -148 -236 -148
-261 0 -34 -184 -271 -329 -425 -192 -203 -455 -370 -806 -510 -304 -122 -446
-116 -905 36 -362 120 -533 201 -709 337 -196 152 -390 417 -450 615 -15 52
-38 93 -87 160 -37 49 -80 111 -95 136 -45 77 -98 222 -135 367 -38 150 -56
182 -89 158z"/>
<path d="M7073 4660 c0 -25 2 -35 4 -22 2 12 2 32 0 45 -2 12 -4 2 -4 -23z"/>
<path d="M7062 4535 c0 -16 2 -22 5 -12 2 9 2 23 0 30 -3 6 -5 -1 -5 -18z"/>
<path d="M7051 4454 c0 -11 3 -14 6 -6 3 7 2 16 -1 19 -3 4 -6 -2 -5 -13z"/>
<path d="M6470 3920 c-19 -10 -82 -59 -140 -110 -101 -88 -106 -92 -144 -87
-58 8 -110 -14 -281 -118 -353 -216 -505 -271 -795 -286 -96 -5 -204 -15 -240
-23 -204 -47 -489 24 -755 187 -110 67 -197 139 -351 289 -130 126 -176 156
-195 127 -18 -30 21 -101 132 -239 231 -287 485 -443 926 -569 79 -22 171 -55
205 -72 110 -56 165 -70 283 -76 195 -9 374 39 650 177 276 138 419 255 614
503 172 218 202 272 169 305 -16 16 -37 14 -78 -8z m-252 -263 c4 -36 -18 -74
-80 -135 -175 -172 -492 -343 -755 -409 -93 -23 -129 -27 -258 -28 -154 0
-215 12 -215 41 0 31 48 45 202 59 239 21 365 54 553 144 174 83 417 244 500
330 33 36 49 35 53 -2z"/>
<path d="M6739 3444 c-13 -14 -53 -49 -89 -77 -36 -28 -123 -107 -195 -175
-145 -139 -255 -228 -360 -292 -114 -70 -282 -147 -415 -190 -144 -47 -170
-62 -154 -88 55 -87 310 -17 570 156 172 115 267 211 587 590 83 97 109 132
56 76z"/>
<path d="M4091 2467 c12 -14 360 -140 488 -177 176 -50 382 -102 388 -97 7 8
-261 105 -418 152 -85 25 -215 61 -290 80 -75 19 -145 38 -155 41 -10 4 -16 4
-13 1z"/>
</g>
</svg>
