<?xml version="1.0" standalone="no"?>
<!DOCTYPE svg PUBLIC "-//W3C//DTD SVG 20010904//EN"
 "http://www.w3.org/TR/2001/REC-SVG-20010904/DTD/svg10.dtd">
<svg version="1.0" xmlns="http://www.w3.org/2000/svg"
 width="1000.000000pt" height="1000.000000pt" viewBox="0 0 1000.000000 1000.000000"
 preserveAspectRatio="xMidYMid meet">
<metadata>
  <rdf:RDF
    xmlns:rdf = "http://www.w3.org/1999/02/22-rdf-syntax-ns#"
    xmlns:rdfs = "http://www.w3.org/2000/01/rdf-schema#"
    xmlns:dc = "http://purl.org/dc/elements/1.1/"
    xmlns:cc = "http://creativecommons.org/ns#">
    <cc:license rdf:resource="http://creativecommons.org/publicdomain/zero/1.0/deed.en"/>
    <cc:permits rdf:resource="http://creativecommons.org/ns#Reproduction"/>
    <rdf:Description about="https://nft.mir.one/fingerprints"
      dc:title="TON Fingerprints"
      dc:description="This is a unique digital fingerprint created based on the algorithm for generating basic rings using a noise texture. Like human fingerprints, you can now use it for the Web3 and Metaverse era as digital biometric information."
      dc:publisher="https://nft.mir.one"
      dc:date="2022-02-22"
      dc:format="image/svg+xml"
      dc:language="en" >
      <dc:creator>
      <rdf:Bag>
        <rdf:li>EQBondcvD2_aOFADXSWJHs4ZazQDuEl9_wNvGGPxI8hGuOFU</rdf:li>
        <rdf:li>ipfs://bafkreihj7iub3fhmhq6jn62noukt5wxn3gv6bvcg7wmt6ywvlurefezckq</rdf:li>
      </rdf:Bag>
      </dc:creator>
    </rdf:Description>
  </rdf:RDF>
</metadata>
<g transform="translate(0.000000,1000.000000) scale(0.100000,-0.100000)"
fill="#1b1f23" stroke="none">
<path d="M4840 7730 c-31 -4 -85 -17 -120 -28 -36 -12 -184 -46 -328 -75 -264
-54 -264 -54 -165 -60 54 -4 216 -7 361 -7 324 0 334 -2 577 -124 99 -50 221
-110 271 -133 50 -23 123 -67 161 -97 102 -80 163 -113 408 -221 265 -118 323
-152 463 -276 82 -74 116 -111 140 -158 35 -65 81 -104 161 -135 44 -17 44
-17 0 32 -55 61 -206 266 -277 375 -68 105 -99 137 -197 202 -109 72 -217 125
-361 174 -160 56 -228 91 -232 118 -8 53 69 54 278 3 79 -20 144 -30 176 -28
52 3 52 3 -103 72 -108 47 -195 78 -290 102 -187 46 -212 55 -428 150 -247
108 -349 132 -495 114z"/>
<path d="M4220 7403 c-77 -13 -246 -58 -348 -93 -117 -40 -117 -40 8 -40 130
0 443 -23 564 -40 193 -29 310 -109 292 -201 -4 -19 -6 -48 -6 -65 1 -76 -69
-110 -295 -144 -82 -12 -229 -43 -325 -68 -175 -46 -175 -46 -365 -46 -190 -1
-190 -1 -285 -48 -52 -26 -124 -66 -160 -89 -65 -41 -65 -41 -10 -34 30 3 123
21 205 40 177 40 260 52 269 37 21 -35 -39 -69 -216 -121 -175 -51 -192 -60
-366 -192 -61 -46 -61 -46 -14 -42 53 6 398 110 512 155 41 16 112 50 158 74
99 54 181 83 362 129 221 55 311 69 465 68 194 0 281 -24 522 -143 100 -49
274 -129 385 -176 268 -114 393 -174 709 -339 295 -154 461 -249 592 -337 48
-32 107 -67 131 -77 42 -19 42 -19 -28 88 -39 58 -102 137 -141 176 -61 61
-97 85 -276 182 -113 62 -243 137 -290 166 -46 30 -128 82 -181 116 -53 33
-208 120 -343 191 -267 141 -345 190 -413 257 -62 63 -89 140 -63 182 12 19
56 7 100 -28 58 -45 170 -110 425 -245 286 -152 348 -191 446 -282 98 -90 130
-112 340 -226 96 -53 200 -110 230 -128 30 -18 74 -38 98 -45 42 -13 42 -13
13 24 -74 93 -193 220 -242 258 -32 25 -96 58 -159 82 -98 38 -170 85 -170
111 0 20 31 22 89 6 74 -21 110 -21 118 1 10 25 -57 78 -141 110 -39 16 -125
56 -191 91 -243 126 -691 343 -739 357 -68 20 -124 19 -171 -5 -22 -11 -46
-20 -55 -20 -22 0 -146 78 -270 170 -174 129 -257 166 -432 195 -85 14 -277
18 -338 8z"/>
<path d="M3825 7135 c-44 -13 -125 -42 -180 -65 -100 -41 -100 -41 25 -36 69
3 171 9 226 12 111 7 154 1 154 -21 0 -36 -66 -59 -233 -80 -131 -18 -198 -39
-332 -109 -90 -47 -90 -47 -5 -42 184 11 378 27 435 37 33 6 114 28 180 49
138 45 204 57 370 65 140 7 219 21 235 39 8 11 3 20 -20 40 -56 47 -171 70
-395 81 -96 5 -150 13 -208 31 -96 30 -149 30 -252 -1z"/>
<path d="M4500 6553 c-191 -33 -439 -104 -640 -183 -85 -34 -248 -93 -363
-132 -114 -39 -227 -84 -252 -100 -24 -16 -84 -69 -133 -118 -108 -108 -106
-108 148 -10 357 138 858 298 1210 385 247 61 295 90 240 145 -17 17 -32 20
-102 19 -46 -1 -94 -4 -108 -6z"/>
<path d="M4850 6372 c-14 -2 -97 -25 -185 -52 -88 -27 -266 -77 -395 -110
-432 -113 -709 -200 -955 -302 -147 -60 -191 -96 -302 -245 -73 -97 -90 -100
192 38 300 147 527 226 825 288 216 44 325 71 649 160 304 84 371 95 371 64 0
-33 -38 -81 -86 -109 -129 -76 -645 -214 -894 -239 -244 -24 -448 -89 -757
-242 -200 -98 -234 -129 -339 -301 -62 -100 -62 -100 -25 -85 20 8 65 36 101
62 208 150 501 299 762 385 164 54 258 60 258 16 0 -25 -31 -41 -245 -125
-319 -125 -614 -287 -730 -400 -51 -50 -72 -82 -122 -185 -34 -69 -59 -126
-58 -128 6 -7 62 34 125 92 190 175 445 330 774 471 165 70 254 118 321 170
108 85 186 114 561 210 121 31 271 70 334 87 139 35 329 48 461 29 280 -40
768 -205 1012 -342 173 -97 352 -222 472 -329 22 -20 57 -46 77 -58 38 -21 38
-21 -8 71 -69 138 -147 250 -202 290 -240 174 -762 429 -1157 564 -194 66
-455 123 -566 123 -41 0 -49 5 -77 50 -34 57 -119 93 -192 82z"/>
<path d="M5230 5724 c-82 -8 -253 -35 -405 -65 -286 -57 -477 -114 -621 -187
-33 -17 -161 -74 -284 -127 -362 -155 -541 -258 -741 -423 -107 -89 -135 -132
-199 -309 -21 -57 -37 -103 -35 -101 2 2 68 66 147 144 311 305 552 444 1083
622 327 110 494 144 915 182 118 11 256 24 307 29 139 14 287 -4 433 -54 118
-40 136 -52 154 -100 23 -58 71 -101 266 -232 261 -176 502 -398 652 -598 68
-91 144 -176 134 -149 -4 11 -18 62 -32 114 -54 208 -81 257 -208 383 -199
199 -400 344 -633 459 -79 39 -143 77 -143 84 0 33 86 44 165 23 104 -29 291
-137 470 -272 44 -34 148 -126 230 -206 226 -220 210 -211 166 -94 -88 230
-114 270 -245 375 -184 148 -396 275 -556 333 -85 30 -433 117 -590 146 -102
19 -334 32 -430 23z"/>
<path d="M5422 5315 c-41 -18 -49 -38 -27 -71 18 -27 57 -47 219 -110 54 -21
139 -62 190 -91 50 -30 145 -80 211 -112 152 -74 212 -119 372 -283 71 -73
168 -168 216 -211 96 -86 169 -188 239 -332 24 -49 56 -108 71 -130 27 -39 27
-40 22 -10 -3 17 -9 72 -14 122 -12 108 -36 213 -62 265 -33 65 -134 181 -292
335 -176 171 -272 248 -437 354 -63 40 -146 96 -185 123 -38 27 -102 67 -141
88 -126 68 -303 97 -382 63z"/>
<path d="M4770 5240 c-164 -11 -344 -44 -631 -115 -337 -85 -568 -201 -833
-419 -151 -124 -212 -195 -277 -323 -52 -103 -54 -109 -30 -97 14 8 31 14 36
14 6 0 66 51 135 112 277 247 430 359 605 443 140 68 244 94 419 106 83 5 220
19 304 30 442 56 727 -21 893 -242 31 -41 93 -114 139 -164 140 -153 206 -248
226 -329 10 -42 77 -102 135 -121 63 -21 89 -56 170 -220 68 -141 107 -251
115 -332 5 -48 2 -68 -16 -110 -22 -51 -22 -51 4 -175 34 -164 46 -261 46
-373 0 -52 5 -117 11 -146 11 -52 11 -52 51 52 55 146 89 282 89 359 1 92 -37
407 -60 504 -11 44 -47 160 -80 256 -34 96 -75 224 -92 284 -39 140 -65 203
-143 334 -35 59 -82 144 -106 190 -60 117 -148 182 -333 248 -96 35 -159 71
-237 139 -44 38 -81 60 -116 71 -49 14 -231 35 -284 32 -14 -1 -77 -4 -140 -8z
m831 -410 c160 -82 419 -518 371 -624 -6 -14 -18 -26 -25 -26 -7 0 -39 51 -69
113 -77 153 -157 273 -265 393 -95 106 -118 138 -108 154 10 16 53 11 96 -10z"/>
<path d="M3980 4823 c-187 -50 -434 -215 -714 -476 -124 -115 -141 -145 -179
-307 -24 -98 -24 -98 5 -77 16 12 47 45 69 74 60 77 319 326 444 426 192 154
379 258 490 272 77 10 92 14 109 31 12 11 13 20 6 34 -21 40 -127 51 -230 23z"/>
<path d="M4660 4823 c-160 -19 -293 -55 -332 -90 -12 -10 -32 -43 -45 -73 -39
-89 -70 -125 -193 -230 -67 -56 -141 -130 -173 -172 -31 -41 -143 -156 -249
-257 -277 -263 -320 -313 -346 -403 -11 -40 -23 -95 -27 -122 -4 -27 -9 -56
-13 -65 -8 -23 48 36 90 94 47 64 131 145 187 180 24 15 81 62 126 105 192
180 245 216 392 266 59 21 155 58 213 84 210 95 340 130 477 130 174 0 336
-47 561 -161 301 -152 431 -262 590 -496 87 -129 123 -166 156 -161 45 6 28
92 -48 248 -103 212 -206 321 -386 407 -63 31 -186 96 -273 146 -249 141 -418
197 -599 197 -157 0 -277 -42 -527 -185 -91 -51 -179 -95 -196 -97 -43 -4 -45
26 -3 69 50 52 354 273 426 309 95 48 209 68 339 61 130 -7 227 -33 348 -92
93 -45 102 -51 317 -198 70 -47 139 -89 153 -93 32 -8 55 1 55 22 0 40 -134
179 -335 351 -139 118 -283 189 -427 212 -68 11 -217 19 -258 14z"/>
<path d="M5981 4806 c-17 -20 3 -62 83 -171 99 -136 138 -223 242 -544 131
-404 150 -485 189 -796 8 -66 20 -141 28 -167 13 -46 13 -46 40 90 36 178 50
295 43 357 -9 75 -51 231 -102 373 -92 257 -105 299 -119 390 -14 98 -32 138
-107 239 -91 124 -223 243 -269 243 -9 0 -22 -6 -28 -14z"/>
<path d="M4044 4635 c-174 -89 -386 -257 -625 -496 -103 -103 -163 -172 -178
-203 -18 -37 -69 -246 -71 -290 0 -13 46 38 104 114 27 36 79 98 115 139 106
119 517 507 627 592 114 88 167 143 162 167 -6 30 -43 24 -134 -23z"/>
<path d="M6481 4361 c-14 -25 0 -69 71 -231 68 -153 118 -292 157 -430 16 -58
38 -127 49 -153 19 -49 19 -49 25 100 4 81 2 191 -3 243 -9 84 -16 107 -65
207 -62 129 -120 219 -165 257 -37 31 -56 33 -69 7z"/>
<path d="M4580 4111 c-107 -24 -226 -66 -382 -136 -265 -119 -413 -257 -474
-445 -15 -47 -49 -135 -75 -196 -47 -106 -49 -116 -49 -202 0 -75 17 -193 37
-252 7 -22 30 37 64 163 55 209 170 455 264 570 126 153 371 288 612 336 266
54 537 -8 806 -186 163 -107 361 -347 437 -529 59 -142 73 -213 74 -384 1
-135 -3 -172 -27 -284 -15 -70 -26 -130 -24 -132 7 -7 124 170 159 241 62 124
72 165 65 284 -8 128 -35 244 -80 331 -47 92 -218 329 -305 421 -41 43 -101
99 -135 125 -146 109 -358 215 -522 261 -126 34 -324 41 -445 14z"/>
<path d="M4580 3820 c-208 -44 -402 -158 -525 -307 -101 -123 -207 -374 -222
-525 -11 -116 58 -279 165 -387 124 -125 373 -273 532 -318 52 -14 100 -18
240 -18 165 1 180 2 255 29 164 57 298 144 351 228 65 103 87 343 45 502 -33
124 -93 227 -191 327 -73 74 -99 93 -180 132 -52 25 -120 51 -150 58 -80 19
-233 16 -305 -5 -307 -91 -505 -413 -429 -701 49 -189 230 -334 457 -365 62
-9 84 -7 150 10 106 27 167 62 237 136 81 87 104 149 105 279 0 88 -3 107 -27
158 -38 81 -115 158 -191 193 -51 22 -76 27 -138 27 -117 -1 -201 -47 -257
-142 -23 -39 -27 -57 -27 -123 0 -69 3 -81 30 -120 56 -80 159 -110 235 -67
64 36 90 115 54 167 -22 32 -71 30 -84 -3 -5 -14 -14 -25 -19 -25 -45 0 -68
45 -47 94 20 48 51 66 116 66 63 0 105 -21 143 -72 75 -101 56 -234 -48 -326
-122 -107 -303 -95 -426 27 -78 78 -102 145 -97 262 5 111 42 192 123 268 140
133 340 159 523 69 171 -84 285 -276 286 -478 0 -206 -114 -387 -308 -485 -94
-47 -160 -64 -281 -72 -174 -10 -281 31 -452 172 -114 94 -175 173 -201 255
-26 84 -23 271 6 374 73 255 255 450 497 532 96 32 262 43 371 25 147 -26 310
-112 426 -225 210 -205 292 -454 259 -792 -13 -129 -4 -186 31 -207 25 -16 40
2 95 110 48 95 48 95 47 262 -1 200 -16 269 -98 436 -204 414 -661 654 -1076
565z"/>
<path d="M3531 3545 c-28 -26 -59 -66 -70 -88 -19 -41 -36 -137 -44 -245 -4
-53 -4 -53 24 -20 15 18 60 94 100 168 58 108 73 144 73 180 1 62 -21 63 -83
5z"/>
<path d="M5437 2369 c-9 -5 -40 -45 -69 -87 -52 -77 -52 -77 -2 -38 74 59 124
109 124 123 0 15 -28 17 -53 2z"/>
</g>
</svg>
