<?xml version="1.0" standalone="no"?>
<!DOCTYPE svg PUBLIC "-//W3C//DTD SVG 20010904//EN"
 "http://www.w3.org/TR/2001/REC-SVG-20010904/DTD/svg10.dtd">
<svg version="1.0" xmlns="http://www.w3.org/2000/svg"
 width="1000.000000pt" height="1000.000000pt" viewBox="0 0 1000.000000 1000.000000"
 preserveAspectRatio="xMidYMid meet">
<metadata>
  <rdf:RDF
    xmlns:rdf = "http://www.w3.org/1999/02/22-rdf-syntax-ns#"
    xmlns:rdfs = "http://www.w3.org/2000/01/rdf-schema#"
    xmlns:dc = "http://purl.org/dc/elements/1.1/"
    xmlns:cc = "http://creativecommons.org/ns#">
    <cc:license rdf:resource="http://creativecommons.org/publicdomain/zero/1.0/deed.en"/>
    <cc:permits rdf:resource="http://creativecommons.org/ns#Reproduction"/>
    <rdf:Description about="https://nft.mir.one/fingerprints"
      dc:title="TON Fingerprints"
      dc:description="This is a unique digital fingerprint created based on the algorithm for generating basic rings using a noise texture. Like human fingerprints, you can now use it for the Web3 and Metaverse era as digital biometric information."
      dc:publisher="https://nft.mir.one"
      dc:date="2022-02-22"
      dc:format="image/svg+xml"
      dc:language="en" >
      <dc:creator>
      <rdf:Bag>
        <rdf:li>EQBondcvD2_aOFADXSWJHs4ZazQDuEl9_wNvGGPxI8hGuOFU</rdf:li>
        <rdf:li>ipfs://bafkreihj7iub3fhmhq6jn62noukt5wxn3gv6bvcg7wmt6ywvlurefezckq</rdf:li>
      </rdf:Bag>
      </dc:creator>
    </rdf:Description>
  </rdf:RDF>
</metadata>
<g transform="translate(0.000000,1000.000000) scale(0.100000,-0.100000)"
fill="#1b1f23" stroke="none">
<path d="M4858 7803 c6 -2 18 -2 25 0 6 3 1 5 -13 5 -14 0 -19 -2 -12 -5z"/>
<path d="M4793 7793 c9 -2 25 -2 35 0 9 3 1 5 -18 5 -19 0 -27 -2 -17 -5z"/>
<path d="M4723 7783 c9 -2 25 -2 35 0 9 3 1 5 -18 5 -19 0 -27 -2 -17 -5z"/>
<path d="M4643 7773 c9 -2 23 -2 30 0 6 3 -1 5 -18 5 -16 0 -22 -2 -12 -5z"/>
<path d="M5005 7634 c-130 -11 -392 -48 -499 -70 -219 -46 -349 -96 -489 -185
-44 -28 -134 -80 -201 -116 -100 -52 -114 -63 -81 -57 83 12 157 35 293 88
171 68 247 89 405 115 218 36 434 54 662 55 284 1 258 7 853 -178 118 -37 242
-69 275 -72 62 -6 62 -6 -78 72 -131 73 -499 244 -630 293 -32 12 -90 29 -129
37 -71 15 -288 25 -381 18z"/>
<path d="M4700 7300 c-410 -38 -757 -136 -1016 -288 -59 -34 -239 -157 -267
-182 -19 -17 117 22 298 84 590 203 1111 260 1644 180 149 -22 379 -79 701
-171 419 -121 459 -131 507 -126 42 5 42 5 -95 97 -202 134 -310 184 -557 255
-265 75 -425 116 -545 137 -111 19 -521 27 -670 14z"/>
<path d="M4580 6974 c-406 -36 -879 -153 -1026 -255 -62 -43 -123 -96 -260
-230 -119 -114 -121 -117 -85 -112 20 3 81 22 136 43 55 21 124 46 154 55 51
17 54 17 63 0 27 -48 122 -56 300 -26 385 66 524 74 730 42 68 -11 184 -22
258 -26 689 -32 1207 -207 1610 -542 52 -44 196 -176 318 -294 123 -117 233
-218 245 -222 12 -4 30 -15 40 -24 19 -18 -67 165 -145 307 -75 137 -140 221
-250 324 -145 136 -258 214 -443 306 -354 176 -745 280 -1190 320 -232 20
-556 29 -695 19 -243 -17 -591 -89 -742 -153 -43 -18 -52 -10 -37 33 30 87
277 174 669 236 162 26 636 32 860 10 371 -35 745 -126 1098 -266 309 -123
483 -237 615 -402 69 -85 220 -229 165 -157 -15 19 -54 94 -88 165 -102 216
-240 398 -360 475 -79 51 -647 232 -910 290 -288 64 -430 80 -730 84 -140 2
-275 2 -300 0z"/>
<path d="M4245 6393 c-16 -2 -115 -18 -220 -34 -104 -16 -262 -34 -350 -40
-342 -22 -399 -55 -610 -352 -56 -79 -56 -79 -18 -57 21 13 70 44 108 70 39
26 106 65 150 87 134 67 211 86 420 103 156 13 716 114 765 138 50 24 53 58 6
77 -34 14 -172 19 -251 8z"/>
<path d="M4732 6299 c-62 -6 -95 -15 -130 -35 -127 -74 -142 -78 -582 -183
-228 -54 -255 -58 -327 -40 -56 15 -146 0 -243 -38 -97 -38 -241 -126 -283
-172 -60 -66 -237 -351 -218 -351 3 0 45 34 91 75 132 116 264 217 352 270 97
58 244 124 293 132 31 5 35 3 35 -17 0 -32 -43 -68 -191 -156 -166 -100 -318
-214 -394 -296 -69 -74 -117 -160 -180 -319 -44 -112 -44 -112 -9 -78 20 19
63 70 97 114 134 177 281 300 597 501 313 199 321 202 770 320 349 91 447 103
668 85 333 -27 648 -117 864 -248 79 -47 136 -97 506 -443 307 -288 545 -496
603 -531 29 -17 48 -24 41 -16 -7 7 -29 61 -51 118 -41 111 -98 233 -130 277
-22 32 -391 380 -532 503 -148 130 -271 213 -434 294 -274 136 -557 208 -920
235 -154 11 -172 11 -293 -1z"/>
<path d="M4765 5963 c-169 -20 -469 -88 -635 -143 -126 -41 -343 -149 -510
-252 -317 -196 -449 -324 -559 -544 -62 -125 -84 -200 -77 -262 6 -49 -2 -87
-40 -187 -6 -16 -5 -18 7 -9 30 24 422 231 584 309 399 193 606 267 880 316
96 18 160 22 325 22 281 1 371 -15 780 -140 235 -71 250 -77 250 -98 0 -63
-127 -60 -372 8 -534 149 -873 150 -1323 6 -296 -94 -882 -376 -969 -466 -17
-17 -46 -62 -65 -100 -19 -37 -43 -81 -54 -96 -19 -28 -19 -28 17 -13 20 8 83
49 139 89 124 90 215 143 372 218 269 127 531 228 715 274 172 42 237 50 445
50 268 -1 374 -21 835 -157 277 -81 352 -120 461 -235 100 -104 195 -279 220
-401 11 -55 11 -67 -2 -90 -23 -42 -44 -39 -75 10 -258 406 -357 484 -807 633
-276 92 -399 116 -624 122 -313 9 -471 -27 -908 -206 -271 -111 -373 -161
-487 -237 -143 -95 -173 -131 -218 -259 -10 -27 -21 -58 -25 -67 -14 -34 13
-17 132 85 217 187 310 244 469 286 63 16 165 55 242 90 274 128 464 175 702
175 213 0 383 -38 653 -145 318 -127 510 -265 695 -500 31 -41 80 -86 126
-118 87 -60 138 -130 235 -321 73 -143 94 -202 129 -360 22 -97 35 -135 60
-169 32 -44 32 -44 32 -10 0 19 9 70 19 114 25 102 44 279 36 323 -3 18 -36
113 -71 210 -39 104 -90 271 -124 407 -117 466 -199 617 -433 798 -56 43 -88
77 -109 115 -42 74 -79 100 -205 143 -59 20 -173 60 -253 87 -217 76 -369 102
-597 102 -266 0 -521 -50 -818 -162 -137 -52 -715 -338 -817 -404 -53 -35
-104 -64 -112 -64 -21 0 -21 39 1 70 58 88 144 152 245 185 47 15 158 68 255
122 510 281 923 397 1353 380 258 -11 426 -52 631 -156 159 -81 202 -93 219
-62 10 19 2 31 -69 109 -44 48 -93 101 -108 118 -21 22 -53 39 -123 62 -212
71 -407 97 -650 89 -473 -16 -927 -179 -1407 -505 -116 -79 -132 -87 -146 -73
-51 51 244 277 588 451 344 175 708 264 1070 264 222 0 321 -14 636 -93 239
-60 327 -93 382 -143 24 -23 27 -31 17 -43 -17 -21 -45 -19 -130 10 -84 29
-132 32 -150 10 -16 -20 3 -43 80 -95 31 -21 96 -75 146 -121 50 -46 150 -138
222 -203 140 -126 221 -213 287 -305 40 -56 40 -56 41 -171 1 -124 11 -173 86
-420 71 -237 210 -623 238 -663 28 -38 28 -38 35 120 9 223 -1 295 -71 478
-32 83 -76 213 -99 290 -23 77 -50 161 -60 186 -10 25 -15 54 -12 63 10 26 73
20 133 -14 29 -16 74 -35 101 -41 71 -17 90 -30 183 -113 46 -42 85 -74 87
-72 7 6 -69 212 -100 269 -28 53 -48 71 -201 187 -169 127 -205 158 -512 441
-134 123 -165 157 -198 218 -51 91 -122 159 -222 209 -163 81 -429 152 -684
182 -80 9 -299 11 -365 3z"/>
<path d="M4415 4583 c-64 -9 -226 -54 -301 -83 -173 -69 -254 -118 -334 -203
-41 -43 -143 -149 -225 -236 -164 -170 -223 -239 -249 -288 -20 -39 -42 -151
-50 -248 -6 -70 -6 -70 19 -40 14 17 37 53 52 80 45 87 141 223 232 328 122
142 318 329 399 381 192 124 411 195 602 196 108 0 148 -9 200 -45 20 -14 75
-38 124 -55 104 -35 134 -52 236 -139 65 -55 126 -90 352 -204 150 -75 281
-137 291 -137 31 0 57 20 57 43 0 13 -13 43 -28 68 -117 184 -693 499 -1050
574 -68 14 -249 18 -327 8z"/>
<path d="M6720 4520 c0 -22 11 -68 24 -102 49 -127 153 -346 180 -379 27 -34
27 -34 20 56 -9 130 -40 281 -69 341 -31 63 -95 124 -130 124 -22 0 -25 -4
-25 -40z"/>
<path d="M4476 4374 c-161 -29 -308 -90 -466 -191 -108 -70 -358 -320 -450
-450 -143 -203 -159 -253 -145 -469 7 -116 7 -116 27 -73 11 24 29 73 40 109
57 189 212 431 387 606 199 199 391 304 688 375 134 32 169 45 177 65 16 43
-104 56 -258 28z"/>
<path d="M3593 4330 c-104 -47 -342 -240 -381 -308 -28 -51 -51 -113 -63 -177
-5 -27 -12 -58 -15 -68 -11 -35 30 -1 91 75 83 103 181 204 317 325 117 104
147 145 117 164 -18 11 -17 12 -66 -11z"/>
<path d="M4620 4210 c-96 -26 -214 -65 -263 -85 -337 -142 -636 -464 -753
-810 -32 -96 -29 -162 13 -343 27 -115 27 -115 40 -66 7 27 13 65 13 85 0 20
7 73 15 118 72 380 320 712 659 885 144 74 388 147 537 162 38 3 77 12 86 19
17 13 17 15 -5 38 -26 27 -83 47 -133 46 -19 0 -113 -22 -209 -49z"/>
<path d="M4950 4103 c-19 -8 -86 -28 -150 -43 -402 -100 -633 -240 -809 -491
-98 -139 -180 -342 -204 -500 -10 -69 -8 -86 11 -165 14 -56 44 -134 82 -209
33 -66 58 -112 55 -101 -13 44 -35 235 -35 301 0 144 41 306 125 489 94 207
223 340 425 440 108 54 169 76 354 126 212 58 256 79 256 125 0 45 -44 57
-110 28z"/>
<path d="M5070 3913 c-296 -60 -476 -111 -585 -165 -141 -71 -288 -205 -320
-295 -10 -26 -42 -109 -71 -184 -60 -153 -80 -228 -90 -345 -9 -110 5 -166 78
-312 81 -162 101 -146 63 51 -21 107 -21 284 0 362 20 75 58 159 92 203 29 39
218 181 308 233 119 69 234 105 250 80 11 -19 -11 -37 -104 -87 -138 -75 -214
-128 -294 -203 -122 -116 -170 -232 -170 -406 0 -55 5 -127 12 -160 34 -177
156 -307 346 -364 145 -45 286 -35 424 29 94 44 127 73 161 141 128 253 40
504 -199 565 -136 34 -282 -13 -311 -101 -19 -57 24 -104 50 -55 8 15 21 20
52 20 34 0 47 -6 79 -39 62 -62 48 -130 -32 -151 -80 -22 -184 21 -220 91 -59
117 10 260 156 325 100 43 171 57 285 51 122 -5 184 -25 264 -86 97 -72 154
-188 163 -328 10 -141 -28 -272 -118 -414 -27 -42 -49 -81 -49 -87 0 -6 -15
-31 -34 -55 -34 -44 -32 -44 113 53 153 102 264 205 314 291 36 62 53 198 38
307 -41 308 -250 522 -510 522 -64 0 -208 -26 -284 -51 -34 -11 -112 -44 -173
-74 -134 -66 -215 -136 -265 -227 -33 -60 -34 -67 -34 -168 0 -96 2 -110 29
-163 34 -67 89 -120 155 -151 35 -16 67 -21 136 -22 120 -1 115 0 115 -32 0
-61 -86 -111 -191 -112 -83 0 -167 39 -229 106 -137 149 -161 439 -49 607 44
67 143 154 240 211 46 27 125 73 175 103 55 32 135 68 200 89 66 21 126 48
155 69 59 44 113 46 231 9 146 -46 282 -129 330 -201 58 -88 142 -293 169
-411 16 -71 12 -249 -7 -338 -10 -44 -17 -92 -16 -109 1 -16 -3 -45 -8 -64
-11 -42 -13 -44 92 104 148 208 236 386 223 454 -11 57 -41 107 -86 139 -65
49 -107 120 -94 162 11 35 44 22 104 -40 32 -33 64 -60 72 -60 26 0 39 23 39
67 0 51 -28 112 -78 168 -77 86 -245 236 -290 259 -26 13 -89 31 -141 40 -56
10 -164 43 -270 83 -165 62 -182 66 -271 69 -52 1 -106 0 -120 -3z m71 -179
c24 -14 34 -27 34 -45 0 -23 -3 -24 -85 -31 -47 -4 -155 -12 -240 -17 -218
-14 -292 -42 -475 -181 -134 -102 -184 -107 -116 -13 68 94 234 204 376 249
185 59 437 78 506 38z"/>
</g>
</svg>
