<?xml version="1.0" standalone="no"?>
<!DOCTYPE svg PUBLIC "-//W3C//DTD SVG 20010904//EN"
 "http://www.w3.org/TR/2001/REC-SVG-20010904/DTD/svg10.dtd">
<svg version="1.0" xmlns="http://www.w3.org/2000/svg"
 width="1000.000000pt" height="1000.000000pt" viewBox="0 0 1000.000000 1000.000000"
 preserveAspectRatio="xMidYMid meet">
<metadata>
  <rdf:RDF
    xmlns:rdf = "http://www.w3.org/1999/02/22-rdf-syntax-ns#"
    xmlns:rdfs = "http://www.w3.org/2000/01/rdf-schema#"
    xmlns:dc = "http://purl.org/dc/elements/1.1/"
    xmlns:cc = "http://creativecommons.org/ns#">
    <cc:license rdf:resource="http://creativecommons.org/publicdomain/zero/1.0/deed.en"/>
    <cc:permits rdf:resource="http://creativecommons.org/ns#Reproduction"/>
    <rdf:Description about="https://nft.mir.one/fingerprints"
      dc:title="TON Fingerprints"
      dc:description="This is a unique digital fingerprint created based on the algorithm for generating basic rings using a noise texture. Like human fingerprints, you can now use it for the Web3 and Metaverse era as digital biometric information."
      dc:publisher="https://nft.mir.one"
      dc:date="2022-02-22"
      dc:format="image/svg+xml"
      dc:language="en" >
      <dc:creator>
      <rdf:Bag>
        <rdf:li>EQBondcvD2_aOFADXSWJHs4ZazQDuEl9_wNvGGPxI8hGuOFU</rdf:li>
        <rdf:li>ipfs://bafkreihj7iub3fhmhq6jn62noukt5wxn3gv6bvcg7wmt6ywvlurefezckq</rdf:li>
      </rdf:Bag>
      </dc:creator>
    </rdf:Description>
  </rdf:RDF>
</metadata>
<g transform="translate(0.000000,1000.000000) scale(0.100000,-0.100000)"
fill="#1b1f23" stroke="none">
<path d="M5261 7778 c-19 -12 -98 -38 -175 -59 -250 -65 -825 -303 -898 -372
-34 -31 -35 -43 -6 -58 33 -18 118 -5 278 41 292 84 363 93 489 60 40 -11 127
-27 193 -35 66 -9 141 -23 166 -32 57 -19 642 -319 767 -393 133 -79 272 -174
451 -308 153 -114 288 -197 253 -155 -249 293 -424 461 -612 584 -48 32 -209
119 -357 194 -181 92 -278 146 -295 167 -31 36 -31 44 -4 59 38 20 109 5 183
-39 38 -23 133 -69 210 -103 78 -34 221 -103 319 -154 97 -51 177 -91 177 -89
0 7 -187 148 -275 207 -49 34 -158 93 -241 133 -82 40 -156 79 -163 88 -19 23
-6 63 27 81 27 16 27 16 -8 10 -19 -3 -93 -9 -165 -14 -130 -10 -207 -21 -408
-60 -59 -12 -133 -21 -163 -21 -51 0 -54 1 -54 24 0 31 43 65 130 101 123 52
158 73 190 120 17 25 30 45 28 45 -2 0 -18 -10 -37 -22z"/>
<path d="M4450 7682 c-225 -113 -260 -136 -470 -311 -208 -173 -325 -281 -439
-405 -117 -127 -141 -161 -141 -206 0 -48 -32 -109 -156 -297 -99 -150 -99
-150 -34 -95 116 98 230 260 259 368 25 95 75 144 406 404 194 152 235 188
235 207 0 29 41 92 85 131 25 22 121 86 213 142 145 88 238 151 222 149 -3 0
-84 -39 -180 -87z"/>
<path d="M4660 7233 c-90 -11 -439 -86 -482 -105 -60 -25 -100 -71 -96 -107 3
-24 7 -26 58 -29 30 -1 125 9 210 23 469 77 727 51 1121 -110 373 -153 732
-386 985 -639 97 -99 173 -197 195 -253 5 -15 15 -63 20 -106 5 -43 39 -192
74 -330 84 -329 106 -451 111 -622 5 -147 -2 -186 -39 -193 -25 -5 -35 29 -62
213 -33 222 -67 378 -130 595 -66 227 -104 333 -149 413 -179 319 -688 674
-1201 840 -273 88 -473 104 -848 67 -229 -23 -235 -23 -310 -5 -96 22 -130 17
-225 -37 -114 -65 -227 -178 -374 -375 -71 -95 -167 -216 -214 -269 -92 -103
-142 -176 -176 -252 -31 -73 -77 -210 -94 -284 -17 -72 -16 -159 2 -165 6 -2
30 49 54 118 71 201 173 394 222 420 18 10 24 8 35 -7 20 -26 10 -67 -49 -214
-74 -183 -130 -289 -183 -348 -33 -37 -51 -68 -61 -105 -43 -165 -66 -572 -45
-778 22 -207 79 -427 147 -560 92 -182 372 -506 554 -641 178 -132 320 -177
320 -100 0 31 -25 57 -156 165 -149 122 -307 304 -375 430 -26 49 -33 75 -39
160 -5 56 -22 157 -39 224 -56 228 -63 384 -21 435 17 21 20 22 35 7 8 -8 22
-49 30 -90 52 -274 68 -348 100 -459 72 -253 164 -391 439 -664 195 -194 227
-216 366 -249 382 -94 881 -3 1176 214 159 117 244 255 264 428 5 42 20 104
34 138 30 71 33 105 11 123 -22 18 -54 6 -115 -45 -96 -80 -347 -258 -431
-307 -177 -102 -331 -142 -549 -142 -202 1 -296 24 -494 124 -141 71 -182 83
-193 54 -19 -50 106 -168 252 -239 259 -127 597 -125 910 6 93 38 229 128 337
222 97 85 123 101 144 93 22 -9 17 -29 -27 -97 -238 -369 -875 -554 -1324
-384 -96 36 -219 121 -301 207 -77 82 -244 333 -315 475 -59 117 -103 256
-128 405 -13 75 -33 150 -56 205 -19 49 -38 104 -41 124 -8 45 11 106 37 119
28 16 48 -10 123 -163 63 -129 107 -187 141 -187 25 0 127 -104 225 -230 126
-162 189 -219 304 -275 155 -75 224 -90 416 -90 145 0 174 3 240 23 157 49
178 66 392 304 170 188 218 293 218 480 0 171 -55 323 -156 428 -56 58 -66 83
-38 94 111 43 270 -140 319 -367 26 -119 17 -307 -19 -405 -50 -135 -111 -219
-259 -356 -119 -111 -199 -173 -280 -216 -245 -132 -563 -133 -857 -4 -183 80
-295 179 -410 362 -120 192 -149 223 -176 187 -51 -67 82 -367 231 -521 62
-64 77 -75 130 -89 33 -9 128 -43 210 -75 206 -81 321 -104 490 -97 298 12
498 112 880 439 128 110 165 162 206 287 77 242 47 546 -77 769 -132 237 -400
393 -679 395 -122 1 -197 -17 -323 -78 -85 -41 -98 -44 -146 -39 -44 5 -60 2
-107 -21 -67 -35 -170 -139 -204 -208 -102 -210 42 -499 313 -628 35 -17 116
-44 179 -59 63 -16 121 -34 129 -41 43 -35 -14 -56 -124 -44 -284 30 -536 194
-646 420 -51 102 -65 171 -78 355 -20 289 -16 320 59 438 118 187 307 297 635
372 143 32 194 53 203 81 29 89 -279 98 -523 15 -352 -120 -576 -410 -610
-790 -24 -264 64 -497 273 -715 72 -75 91 -89 200 -142 180 -88 287 -120 420
-126 128 -6 180 5 229 48 19 16 63 41 98 55 133 54 228 158 228 249 0 23 -23
55 -40 55 -5 0 -36 -24 -70 -54 -33 -29 -77 -62 -97 -72 -53 -25 -155 -30
-234 -10 -295 75 -455 337 -351 576 25 59 122 188 146 196 22 7 36 -11 36 -47
0 -15 -17 -71 -37 -125 -64 -174 -46 -306 57 -413 86 -88 227 -125 321 -84 55
24 111 72 140 119 45 74 9 198 -71 239 -87 45 -200 -19 -200 -113 0 -51 16
-72 54 -72 39 0 51 -19 30 -48 -37 -53 -135 -24 -181 56 -71 121 -2 308 140
385 60 31 210 32 278 1 72 -33 89 -55 89 -114 0 -27 13 -91 29 -142 103 -324
95 -449 -37 -590 -62 -67 -103 -89 -262 -140 -135 -43 -135 -43 -285 -43 -150
1 -150 1 -316 58 -107 36 -183 57 -212 57 -56 0 -101 33 -240 180 -99 104
-205 254 -288 405 -40 73 -43 86 -47 167 -8 166 48 406 138 595 85 178 176
293 310 393 185 137 495 220 715 191 108 -15 147 -29 231 -84 46 -31 103 -56
173 -77 450 -139 751 -382 926 -751 135 -286 224 -739 196 -995 -15 -137 -41
-231 -123 -434 -83 -206 -116 -275 -171 -353 -52 -75 -123 -119 -141 -88 -4 5
21 63 54 128 106 211 220 593 239 803 24 258 -34 580 -149 827 -155 334 -456
586 -784 658 -106 24 -205 16 -380 -30 -290 -76 -429 -141 -557 -262 -103 -98
-165 -215 -139 -263 23 -43 62 -25 177 81 186 172 578 300 823 269 227 -29
444 -154 596 -344 158 -198 246 -467 246 -751 0 -144 -15 -241 -62 -405 -19
-64 -34 -146 -40 -210 -6 -74 -22 -152 -54 -265 -25 -88 -46 -179 -46 -203 0
-62 -32 -116 -119 -201 -317 -312 -863 -446 -1463 -357 -97 14 -205 26 -240
26 -214 1 -406 107 -673 375 -82 83 -172 171 -199 195 -49 45 -49 45 4 -40
170 -273 305 -434 478 -572 178 -141 275 -162 797 -175 363 -8 546 12 809 92
246 74 435 173 578 302 48 43 137 123 199 177 163 146 199 197 321 466 19 41
60 117 91 169 67 110 93 187 108 317 13 113 5 198 -46 469 -64 338 -125 541
-220 740 -190 394 -529 654 -1127 863 -180 63 -258 77 -443 76 -377 0 -650
-103 -856 -321 -148 -158 -210 -291 -393 -852 -47 -145 -104 -312 -125 -370
-22 -59 -56 -163 -76 -231 -63 -211 -52 -372 41 -641 52 -149 53 -159 18 -159
-85 0 -197 262 -224 521 -12 123 -1 269 36 447 31 154 75 279 154 447 34 72
79 173 100 225 34 86 52 141 136 416 34 113 121 243 248 370 160 160 282 218
556 265 113 19 172 23 365 23 255 1 308 -6 508 -71 447 -143 836 -394 1049
-677 147 -195 264 -516 354 -972 19 -98 46 -210 60 -249 14 -38 32 -95 40
-125 28 -113 12 -301 -42 -472 -16 -49 -27 -111 -29 -153 -3 -98 -59 -205
-107 -205 -25 0 -23 28 8 103 24 60 33 111 21 123 -3 4 -18 3 -32 0 -39 -10
-80 -84 -104 -187 -35 -152 -87 -229 -300 -439 -80 -80 -176 -179 -213 -221
-49 -56 -83 -85 -135 -111 -148 -78 -428 -180 -628 -229 -213 -52 -314 -61
-735 -66 -212 -2 -416 -5 -455 -6 -38 0 -99 3 -133 8 -55 7 -71 14 -115 52
-99 84 -112 80 -26 -8 73 -75 100 -95 190 -140 75 -38 114 -52 139 -51 103 7
197 5 403 -8 414 -25 614 4 1062 155 224 75 303 97 394 110 158 21 231 40 300
74 205 104 464 407 629 737 53 107 105 240 99 258 -2 5 -31 -42 -66 -106 -73
-138 -142 -237 -256 -368 -160 -183 -314 -319 -428 -377 -56 -28 -110 -28
-115 0 -4 20 31 56 193 198 61 53 151 143 200 200 49 57 126 142 170 189 71
76 90 105 168 259 104 204 120 263 137 506 6 88 20 203 30 255 28 144 33 242
21 388 -17 198 -76 494 -148 745 -27 95 -25 117 7 117 22 0 104 -70 122 -104
6 -11 15 -57 19 -101 7 -74 89 -361 97 -337 1 5 -13 77 -33 159 -19 83 -35
171 -35 196 0 77 -34 144 -175 342 -149 210 -215 279 -407 428 -294 227 -637
424 -1003 577 -224 93 -523 138 -745 113z m-245 -2903 c208 -101 404 -114 645
-45 91 27 135 31 145 15 16 -25 -56 -75 -161 -113 -200 -72 -439 -56 -640 43
-89 44 -164 113 -164 153 0 37 10 39 54 11 23 -14 77 -42 121 -64z"/>
<path d="M7061 5384 c0 -11 3 -14 6 -6 3 7 2 16 -1 19 -3 4 -6 -2 -5 -13z"/>
<path d="M6343 2865 c-12 -8 -57 -30 -101 -49 -112 -48 -204 -109 -252 -166
-61 -73 -122 -113 -349 -231 -437 -226 -442 -229 -326 -189 184 63 532 238
642 323 236 181 413 320 413 323 0 7 -5 5 -27 -11z"/>
<path d="M5710 2726 c-52 -19 -155 -57 -229 -85 -163 -63 -332 -112 -466 -137
-79 -15 -147 -19 -325 -19 -310 1 -546 30 -604 76 -29 22 -36 24 -36 6 0 -82
421 -201 760 -214 242 -9 461 39 756 168 209 91 318 153 329 190 19 57 -51 63
-185 15z"/>
<path d="M5178 2193 c7 -3 16 -2 19 1 4 3 -2 6 -13 5 -11 0 -14 -3 -6 -6z"/>
</g>
</svg>
