<?xml version="1.0" standalone="no"?>
<!DOCTYPE svg PUBLIC "-//W3C//DTD SVG 20010904//EN"
 "http://www.w3.org/TR/2001/REC-SVG-20010904/DTD/svg10.dtd">
<svg version="1.0" xmlns="http://www.w3.org/2000/svg"
 width="1000.000000pt" height="1000.000000pt" viewBox="0 0 1000.000000 1000.000000"
 preserveAspectRatio="xMidYMid meet">
<metadata>
  <rdf:RDF
    xmlns:rdf = "http://www.w3.org/1999/02/22-rdf-syntax-ns#"
    xmlns:rdfs = "http://www.w3.org/2000/01/rdf-schema#"
    xmlns:dc = "http://purl.org/dc/elements/1.1/"
    xmlns:cc = "http://creativecommons.org/ns#">
    <cc:license rdf:resource="http://creativecommons.org/publicdomain/zero/1.0/deed.en"/>
    <cc:permits rdf:resource="http://creativecommons.org/ns#Reproduction"/>
    <rdf:Description about="https://nft.mir.one/fingerprints"
      dc:title="TON Fingerprints"
      dc:description="This is a unique digital fingerprint created based on the algorithm for generating basic rings using a noise texture. Like human fingerprints, you can now use it for the Web3 and Metaverse era as digital biometric information."
      dc:publisher="https://nft.mir.one"
      dc:date="2022-02-22"
      dc:format="image/svg+xml"
      dc:language="en" >
      <dc:creator>
      <rdf:Bag>
        <rdf:li>EQBondcvD2_aOFADXSWJHs4ZazQDuEl9_wNvGGPxI8hGuOFU</rdf:li>
        <rdf:li>ipfs://bafkreihj7iub3fhmhq6jn62noukt5wxn3gv6bvcg7wmt6ywvlurefezckq</rdf:li>
      </rdf:Bag>
      </dc:creator>
    </rdf:Description>
  </rdf:RDF>
</metadata>
<g transform="translate(0.000000,1000.000000) scale(0.100000,-0.100000)"
fill="#1b1f23" stroke="none">
<path d="M4705 7784 c11 -3 74 -18 140 -34 66 -16 183 -43 260 -60 178 -40
437 -125 552 -181 68 -34 107 -62 173 -125 61 -59 116 -99 195 -144 195 -111
239 -146 376 -301 56 -63 76 -78 132 -100 66 -26 66 -26 -6 55 -220 246 -310
327 -575 514 -290 205 -578 312 -952 356 -125 14 -333 28 -295 20z"/>
<path d="M4520 7599 c-69 -4 -183 -19 -255 -33 -71 -14 -141 -26 -155 -27 -17
-1 -7 -7 30 -18 34 -11 126 -22 235 -30 424 -29 666 -70 1123 -191 162 -42
226 -49 257 -26 54 39 -44 102 -279 181 -356 119 -650 163 -956 144z"/>
<path d="M4165 7354 c-16 -2 -66 -9 -110 -15 -107 -14 -280 -60 -263 -70 7 -4
42 -11 78 -14 99 -10 167 -32 186 -60 9 -13 13 -28 10 -33 -3 -5 -47 -12 -98
-14 -108 -6 -232 -44 -355 -108 -78 -41 -78 -41 2 -35 44 4 139 10 210 13 153
9 207 28 248 91 26 38 28 39 104 47 115 11 472 8 593 -5 285 -32 871 -156
1175 -248 200 -60 268 -70 291 -39 8 11 14 26 14 34 0 28 -77 89 -176 139
-115 59 -202 88 -294 97 -140 15 -223 29 -430 76 -359 82 -608 119 -910 135
-63 3 -144 7 -180 9 -36 2 -78 2 -95 0z"/>
<path d="M4375 7014 c-92 -14 -190 -41 -268 -74 -95 -41 -129 -63 -219 -138
-32 -27 -124 -86 -205 -132 -81 -46 -173 -100 -204 -121 -80 -54 -241 -228
-337 -364 -94 -134 -103 -137 115 41 145 120 289 215 553 365 251 143 326 179
441 212 134 39 247 50 446 44 331 -10 687 -96 1238 -301 210 -79 376 -156 536
-251 114 -68 282 -151 413 -205 69 -29 69 -29 44 -2 -14 15 -59 72 -99 127
-95 129 -236 293 -285 332 -52 40 -166 98 -234 117 -30 9 -101 24 -157 35 -57
11 -194 47 -305 80 -343 102 -661 177 -908 216 -101 16 -497 29 -565 19z"/>
<path d="M3689 6906 c-87 -35 -186 -110 -321 -241 -123 -120 -123 -120 -48
-80 41 23 107 61 145 85 39 23 134 74 213 113 149 72 186 103 162 132 -18 22
-86 18 -151 -9z"/>
<path d="M4462 6709 c-189 -26 -355 -86 -597 -217 -371 -200 -588 -360 -674
-497 -22 -35 -82 -151 -132 -257 -50 -106 -98 -206 -106 -223 -10 -20 15 1 73
60 168 168 191 187 228 180 48 -9 99 8 211 71 55 31 210 114 345 184 135 70
283 148 330 173 213 115 483 141 752 73 153 -39 220 -79 204 -123 -9 -23 -139
-12 -286 23 -269 64 -587 11 -654 -110 -14 -25 -33 -43 -56 -52 -19 -7 -84
-32 -145 -54 -167 -64 -741 -351 -796 -399 -51 -45 -169 -211 -218 -308 -17
-34 -31 -65 -31 -68 0 -3 63 48 141 112 77 65 179 144 227 176 101 66 382 208
544 273 158 63 243 83 408 94 314 22 457 45 530 87 83 48 95 52 180 63 47 6
119 20 162 31 42 10 100 19 130 19 56 0 194 -30 254 -55 30 -12 35 -19 32 -42
-5 -49 -57 -65 -242 -74 -200 -10 -294 -22 -466 -59 -182 -39 -224 -46 -445
-70 -293 -33 -421 -66 -657 -171 -350 -155 -579 -310 -645 -435 -17 -33 -43
-99 -58 -149 -15 -49 -30 -96 -32 -102 -3 -8 3 -13 14 -13 24 0 57 35 114 120
52 78 127 159 189 205 65 48 504 255 644 304 159 56 314 85 601 115 340 36
500 45 655 36 155 -9 248 -28 323 -66 28 -15 112 -49 186 -75 73 -27 164 -66
201 -88 152 -91 389 -311 505 -470 215 -295 345 -690 361 -1096 3 -77 10 -171
16 -210 11 -70 11 -70 24 -10 53 246 67 370 68 575 0 196 -1 209 -28 295 -93
305 -227 561 -411 790 -172 215 -521 549 -690 660 -61 40 -125 91 -142 113
-47 58 -144 118 -364 227 -215 106 -311 136 -496 156 -258 27 -480 -24 -788
-181 -276 -142 -477 -265 -624 -384 -80 -65 -111 -76 -111 -40 0 91 228 277
575 470 267 149 443 217 645 250 121 20 354 13 490 -15 257 -52 573 -188 860
-368 316 -198 426 -301 730 -683 135 -170 209 -278 263 -385 44 -88 135 -319
177 -450 29 -90 80 -208 87 -201 8 7 -31 372 -58 540 -32 204 -49 280 -78 349
-11 24 -75 112 -144 195 -167 200 -202 249 -266 370 -60 114 -128 187 -261
278 -313 215 -916 454 -1310 519 -118 20 -371 27 -468 14z m266 -665 c21 -9
32 -20 32 -33 0 -24 -4 -25 -240 -46 -239 -21 -302 -20 -331 4 -35 28 -18 38
102 62 194 38 364 43 437 13z m1000 -320 c30 -21 29 -52 -2 -60 -29 -7 -89 11
-106 32 -32 37 60 62 108 28z"/>
<path d="M6648 5975 c-19 -43 20 -101 178 -265 113 -116 152 -149 194 -167 44
-19 50 -19 37 -5 -8 9 -43 69 -77 132 -125 233 -197 319 -274 327 -42 5 -46 3
-58 -22z"/>
<path d="M4580 5469 c-339 -18 -571 -74 -820 -199 -154 -77 -189 -105 -222
-179 -16 -36 -61 -105 -100 -154 -38 -50 -90 -121 -115 -159 -25 -38 -50 -67
-56 -65 -7 2 -13 22 -15 45 -5 65 33 129 166 281 72 83 79 111 28 111 -45 0
-135 -66 -201 -148 -66 -82 -162 -236 -175 -281 -34 -121 -37 -391 -6 -631 8
-63 18 -142 21 -175 7 -60 7 -60 22 -20 10 26 18 100 24 213 12 251 44 402
110 518 26 45 34 52 69 58 51 8 94 46 221 197 128 152 162 180 294 244 323
155 494 189 829 167 226 -15 328 -32 469 -79 255 -85 432 -246 473 -431 14
-62 16 -105 11 -237 -10 -254 -43 -385 -163 -650 -70 -156 -88 -217 -103 -353
-12 -111 -39 -175 -107 -254 -94 -110 -280 -246 -536 -391 -215 -123 -344
-163 -574 -177 -82 -5 -160 -7 -171 -4 -12 3 -47 0 -80 -6 -66 -14 -67 -14 72
-54 140 -40 229 -56 318 -56 212 0 495 132 866 402 147 108 260 213 334 310
33 44 61 71 77 74 14 3 35 7 48 10 12 2 88 70 168 150 162 162 179 192 191
325 6 70 -13 129 -42 129 -27 0 -65 -46 -116 -140 -28 -52 -88 -153 -134 -225
-45 -71 -92 -149 -104 -173 -25 -50 -50 -53 -62 -8 -17 63 21 165 167 451 118
230 136 284 154 485 15 169 64 346 104 379 22 19 60 7 134 -41 162 -105 263
-291 335 -618 35 -157 47 -279 47 -479 0 -307 -25 -444 -128 -711 -33 -85 -63
-164 -67 -175 -8 -24 52 68 124 187 153 254 261 573 261 770 0 281 -79 647
-185 859 -96 191 -198 304 -390 430 -72 47 -180 123 -240 167 -130 97 -340
207 -475 250 -179 57 -432 78 -750 61z"/>
<path d="M4275 5155 c-86 -16 -137 -34 -223 -80 -106 -55 -140 -87 -148 -140
-6 -44 -16 -63 -124 -235 -121 -193 -166 -332 -158 -490 9 -167 76 -310 202
-435 88 -86 171 -136 296 -177 84 -28 109 -31 215 -32 87 -1 135 4 176 16 103
32 154 85 114 118 -13 11 -38 11 -138 1 -235 -23 -408 30 -547 169 -174 174
-205 437 -84 699 50 108 155 260 221 321 122 112 393 195 393 121 0 -26 -22
-42 -150 -107 -97 -49 -127 -71 -195 -139 -87 -87 -133 -157 -173 -263 -24
-61 -26 -81 -26 -222 -1 -140 1 -160 23 -214 30 -75 123 -171 205 -210 103
-49 189 -61 357 -48 83 6 162 17 182 26 75 31 189 175 238 301 18 48 23 80 23
160 1 92 -2 105 -31 167 -95 202 -316 269 -541 163 -101 -48 -171 -117 -214
-211 -34 -77 -57 -93 -78 -55 -37 70 13 194 118 293 119 112 336 208 470 208
257 0 462 -201 479 -471 11 -169 -46 -322 -182 -484 -42 -50 -82 -109 -91
-135 -28 -78 -36 -89 -118 -161 -140 -121 -278 -167 -471 -156 -345 20 -606
194 -750 500 -47 98 -65 176 -65 273 0 182 83 366 271 599 35 44 72 91 82 105
48 70 -19 85 -100 23 -57 -44 -90 -80 -234 -256 -119 -146 -162 -221 -186
-327 -20 -90 -22 -253 -4 -329 15 -57 147 -268 248 -394 178 -222 434 -328
793 -329 238 0 301 21 635 216 180 105 211 129 199 159 -10 27 -37 28 -105 7
-79 -24 -127 -26 -136 -4 -8 22 20 42 145 106 124 62 169 107 224 224 124 266
126 578 3 770 -105 164 -295 269 -560 309 -60 9 -165 28 -232 41 -137 27 -150
27 -248 9z m321 -707 c84 -39 130 -128 122 -232 -9 -107 -73 -195 -178 -245
-48 -23 -67 -26 -160 -26 -121 0 -168 16 -240 81 -68 62 -102 164 -53 164 8 0
38 -21 66 -46 73 -65 120 -87 192 -88 108 -1 185 64 185 156 0 55 -26 92 -74
108 -67 22 -141 -36 -102 -79 25 -27 10 -51 -31 -51 -44 0 -93 45 -93 87 0 53
69 135 144 173 57 28 160 27 222 -2z"/>
<path d="M5963 4574 c-16 -25 -16 -38 5 -253 21 -215 24 -229 56 -296 51 -105
56 -133 56 -335 -1 -209 -6 -232 -68 -313 -35 -45 -201 -319 -377 -624 -89
-154 -226 -294 -390 -399 -42 -27 -93 -60 -113 -73 -20 -14 -59 -37 -87 -53
-68 -38 -48 -35 90 12 250 87 476 231 581 374 91 123 271 461 344 644 24 61
37 82 51 82 26 0 33 -18 32 -80 -3 -80 -43 -191 -142 -395 -82 -167 -238 -422
-299 -487 -14 -15 -23 -30 -21 -32 7 -8 204 175 265 246 77 87 186 254 245
373 82 164 92 235 86 595 -5 322 -11 368 -74 615 -87 340 -178 493 -240 399z"/>
<path d="M3240 3831 c-24 -47 84 -298 191 -441 102 -136 193 -208 317 -249
143 -48 203 -55 472 -56 140 0 261 -4 268 -8 21 -14 -12 -43 -73 -66 -89 -34
-202 -44 -399 -38 -192 7 -228 12 -371 53 -126 36 -158 44 -162 40 -7 -6 177
-131 239 -163 35 -17 99 -42 143 -54 72 -19 96 -21 230 -16 227 9 340 40 474
131 42 29 119 76 171 105 307 172 510 363 498 468 -5 50 -37 41 -129 -37 -163
-139 -313 -232 -442 -275 -77 -25 -80 -26 -290 -19 -117 3 -256 12 -311 20
-302 43 -512 175 -656 413 -91 150 -114 184 -137 198 -19 13 -23 12 -33 -6z"/>
<path d="M5858 3533 c-13 -16 -47 -57 -74 -93 -27 -36 -111 -129 -188 -208
-145 -148 -155 -155 -605 -462 -239 -163 -428 -250 -617 -285 -248 -45 -248
-45 -149 -61 196 -32 375 -26 490 17 80 30 285 161 481 309 184 139 236 169
260 149 21 -17 -6 -56 -101 -148 -110 -105 -214 -182 -647 -479 -63 -44 -63
-44 -18 -37 99 16 162 39 315 114 173 85 280 158 388 266 86 85 131 153 153
230 23 82 32 98 139 245 135 184 233 335 246 380 25 82 -20 120 -73 63z"/>
</g>
</svg>
