<?xml version="1.0" standalone="no"?>
<!DOCTYPE svg PUBLIC "-//W3C//DTD SVG 20010904//EN"
 "http://www.w3.org/TR/2001/REC-SVG-20010904/DTD/svg10.dtd">
<svg version="1.0" xmlns="http://www.w3.org/2000/svg"
 width="1000.000000pt" height="1000.000000pt" viewBox="0 0 1000.000000 1000.000000"
 preserveAspectRatio="xMidYMid meet">
<metadata>
  <rdf:RDF
    xmlns:rdf = "http://www.w3.org/1999/02/22-rdf-syntax-ns#"
    xmlns:rdfs = "http://www.w3.org/2000/01/rdf-schema#"
    xmlns:dc = "http://purl.org/dc/elements/1.1/"
    xmlns:cc = "http://creativecommons.org/ns#">
    <cc:license rdf:resource="http://creativecommons.org/publicdomain/zero/1.0/deed.en"/>
    <cc:permits rdf:resource="http://creativecommons.org/ns#Reproduction"/>
    <rdf:Description about="https://nft.mir.one/fingerprints"
      dc:title="TON Fingerprints"
      dc:description="This is a unique digital fingerprint created based on the algorithm for generating basic rings using a noise texture. Like human fingerprints, you can now use it for the Web3 and Metaverse era as digital biometric information."
      dc:publisher="https://nft.mir.one"
      dc:date="2022-02-22"
      dc:format="image/svg+xml"
      dc:language="en" >
      <dc:creator>
      <rdf:Bag>
        <rdf:li>EQBondcvD2_aOFADXSWJHs4ZazQDuEl9_wNvGGPxI8hGuOFU</rdf:li>
        <rdf:li>ipfs://bafkreihj7iub3fhmhq6jn62noukt5wxn3gv6bvcg7wmt6ywvlurefezckq</rdf:li>
      </rdf:Bag>
      </dc:creator>
    </rdf:Description>
  </rdf:RDF>
</metadata>
<g transform="translate(0.000000,1000.000000) scale(0.100000,-0.100000)"
fill="#1b1f23" stroke="none">
<path d="M5019 7810 c-25 -14 -95 -28 -282 -55 -178 -25 -396 -68 -302 -60 28
3 128 12 223 20 216 18 301 40 382 94 19 13 1 14 -21 1z"/>
<path d="M5240 7660 c-19 -5 -42 -17 -50 -28 -14 -17 -34 -21 -126 -26 -539
-33 -877 -123 -1201 -320 -126 -76 -237 -151 -208 -141 11 4 63 22 115 40 52
18 160 56 240 84 320 112 777 182 999 151 83 -11 351 -83 531 -142 155 -50
240 -100 240 -139 0 -38 -61 -30 -306 39 -321 91 -486 117 -689 109 -382 -17
-811 -140 -1042 -299 -88 -61 -240 -208 -330 -319 -60 -74 -194 -268 -262
-379 -34 -55 -34 -55 25 1 33 31 118 115 189 188 72 73 164 160 205 194 310
250 709 407 1140 448 217 20 411 -2 720 -83 194 -52 196 -52 360 -53 220 -2
287 -22 637 -184 98 -45 143 -61 175 -61 43 1 43 1 14 22 -16 12 -67 54 -112
94 -117 102 -256 199 -424 295 -80 45 -175 102 -212 125 -127 82 -227 122
-465 189 -138 39 -197 65 -213 94 -21 41 -14 44 73 37 192 -16 398 -75 618
-176 118 -55 320 -133 326 -126 1 1 -60 39 -136 84 -267 158 -482 247 -664
277 -101 16 -116 17 -167 5z"/>
<path d="M4712 6989 c-313 -30 -645 -147 -902 -318 -193 -127 -409 -327 -515
-476 -59 -82 -154 -266 -210 -405 -72 -180 -151 -513 -169 -710 -6 -65 -6 -65
9 -5 17 66 83 272 123 380 160 439 536 888 947 1130 266 157 548 240 850 252
273 11 567 -47 661 -129 36 -32 44 -65 19 -75 -9 -3 -75 8 -148 25 -196 45
-276 55 -442 55 -224 -1 -398 -36 -620 -124 -431 -172 -848 -570 -1071 -1024
-191 -390 -225 -716 -139 -1341 37 -265 67 -369 163 -560 98 -196 252 -400
388 -515 174 -147 425 -226 635 -201 63 7 119 8 169 2 320 -39 616 -49 900
-30 157 11 180 8 180 -20 0 -44 -89 -81 -240 -100 -122 -15 -458 -12 -676 5
-104 8 -279 19 -389 25 -225 11 -347 33 -458 81 -40 17 -107 46 -151 65 -43
18 -90 40 -105 49 -45 28 59 -64 161 -140 182 -138 306 -179 598 -200 107 -8
254 -20 325 -27 172 -16 645 -16 750 0 44 7 154 31 245 52 91 22 215 50 276
64 128 28 228 71 341 146 115 77 201 150 300 254 101 106 277 320 217 265 -21
-21 -64 -53 -94 -73 -30 -20 -95 -67 -143 -105 -49 -38 -137 -96 -195 -129
-214 -119 -377 -172 -535 -172 -93 0 -126 9 -191 54 -21 14 -56 31 -78 37 -23
6 -183 11 -386 13 -450 4 -580 24 -742 114 -36 19 -153 82 -260 138 -112 58
-196 109 -198 118 -2 9 7 21 22 28 41 18 104 -1 324 -101 234 -106 322 -135
471 -155 226 -32 661 -14 791 31 30 11 154 79 275 152 121 73 272 163 335 200
197 113 311 246 339 395 5 28 22 139 37 246 31 226 29 350 -7 490 -34 136 -71
200 -200 351 -31 37 -122 154 -202 260 -79 107 -170 222 -202 256 -120 132
-278 237 -415 276 -164 47 -461 48 -735 3 -88 -14 -201 -33 -252 -41 -105 -17
-175 -45 -273 -111 -78 -52 -206 -181 -264 -266 -32 -48 -47 -60 -87 -73 -79
-27 -137 -108 -188 -265 -42 -127 -54 -231 -48 -417 3 -111 2 -175 -5 -179
-17 -11 -54 16 -76 55 -35 62 -45 138 -39 282 6 164 37 292 101 423 53 108 96
166 245 332 125 139 220 224 366 326 55 39 136 108 180 153 63 65 96 90 155
118 146 69 355 104 559 93 237 -12 384 -61 335 -111 -16 -15 -37 -16 -233 -10
-172 6 -241 4 -338 -9 -196 -26 -374 -91 -394 -144 -23 -60 47 -67 266 -26
252 46 717 43 846 -5 83 -32 168 -90 265 -183 96 -92 159 -170 322 -398 105
-148 182 -235 229 -259 12 -6 37 -11 56 -11 40 0 56 -12 125 -97 89 -109 120
-195 148 -408 30 -221 2 -408 -94 -647 -122 -304 -304 -473 -752 -700 -205
-105 -245 -144 -185 -184 104 -68 558 140 795 363 140 131 268 352 360 618 80
231 81 241 85 610 2 182 -1 349 -6 373 -5 24 -14 105 -19 180 -7 108 -18 168
-49 282 -68 252 -104 323 -260 520 -176 221 -242 324 -226 350 4 6 18 10 33
10 34 0 123 -91 247 -252 151 -196 223 -337 276 -542 21 -80 50 -139 62 -126
5 5 0 32 -39 210 -37 167 -112 348 -215 517 -55 90 -201 292 -231 320 -29 28
-327 193 -422 235 -95 41 -182 56 -221 37 -65 -31 -40 -68 120 -182 163 -116
202 -160 283 -328 39 -79 104 -193 144 -254 61 -92 79 -111 107 -119 93 -26
206 -232 230 -418 36 -278 34 -358 -9 -358 -25 0 -51 39 -85 128 -18 46 -46
93 -76 127 -85 98 -157 233 -222 422 -42 120 -59 154 -145 293 -97 159 -163
241 -298 374 -106 105 -127 131 -157 196 -30 67 -40 79 -88 107 -251 149 -637
225 -977 192z m528 -444 c371 -54 379 -56 481 -136 244 -192 393 -378 572
-714 47 -88 117 -211 156 -274 87 -141 106 -197 78 -234 -10 -15 -15 -15 -28
-5 -15 13 -188 275 -325 493 -144 230 -266 365 -457 508 -61 46 -132 101 -157
122 -61 51 -148 90 -250 112 -68 14 -129 18 -305 17 -204 0 -227 -2 -316 -26
-206 -56 -322 -117 -561 -296 -353 -263 -606 -586 -711 -907 -81 -246 -88
-521 -18 -706 31 -81 81 -160 216 -336 139 -182 260 -308 363 -376 185 -123
547 -270 750 -303 143 -23 412 -16 526 15 106 28 218 78 324 143 154 95 349
309 459 505 36 64 39 81 20 107 -11 15 -21 17 -48 11 -26 -6 -71 -45 -204
-179 -192 -194 -372 -337 -500 -397 -269 -125 -643 -91 -1008 92 -239 120
-439 316 -541 529 -48 99 -52 136 -26 211 13 38 27 121 36 213 19 190 44 317
95 474 39 118 58 147 80 125 34 -34 26 -163 -27 -423 -24 -117 -27 -160 -28
-320 -1 -180 0 -187 26 -248 104 -242 366 -455 685 -555 286 -91 645 -60 716
60 34 58 10 64 -164 37 -142 -22 -310 -14 -444 20 -285 74 -547 274 -637 488
-21 49 -23 69 -23 245 0 185 1 193 22 214 18 19 24 20 37 9 9 -7 16 -16 16
-21 0 -23 45 -123 67 -150 36 -42 288 -230 348 -259 54 -26 47 -26 265 -12
204 13 300 48 300 108 0 32 -24 36 -114 19 -153 -29 -324 -12 -437 45 -31 16
-88 52 -125 80 -69 52 -276 257 -295 293 -17 30 -22 186 -10 272 20 146 87
244 191 281 25 9 88 36 140 60 105 47 324 115 459 140 179 34 422 16 565 -42
239 -97 494 -370 667 -714 100 -199 117 -332 74 -595 -31 -192 -37 -210 -127
-355 -35 -58 -83 -144 -106 -191 -33 -69 -55 -99 -104 -144 -140 -127 -358
-248 -519 -289 -273 -70 -617 -56 -872 34 -182 64 -556 228 -623 273 -84 55
-199 174 -310 318 -88 113 -124 148 -186 180 -45 23 -72 62 -94 139 -104 358
-71 757 93 1110 147 316 422 629 742 844 359 242 706 322 1131 261z m-1861
-2540 c36 -71 88 -161 116 -200 60 -85 204 -235 296 -311 54 -44 68 -61 74
-92 15 -83 85 -143 271 -233 126 -61 150 -79 140 -104 -20 -52 -296 41 -432
146 -75 58 -331 322 -397 410 -125 166 -205 350 -194 444 5 50 22 77 45 73 8
-2 44 -61 81 -133z m2949 16 c9 -60 -120 -241 -183 -257 -33 -8 -49 7 -40 36
9 29 110 177 149 218 36 38 69 40 74 3z"/>
<path d="M5005 5576 c-88 -17 -170 -55 -213 -99 -68 -70 -111 -368 -73 -502
22 -73 95 -143 187 -179 40 -15 79 -35 88 -45 27 -30 -2 -45 -73 -38 -113 12
-219 67 -277 143 -27 34 -29 46 -38 175 -8 116 -6 155 8 247 20 122 19 150 -6
166 -23 14 -67 -17 -90 -65 -40 -80 -46 -248 -12 -358 20 -66 18 -91 -6 -91
-28 0 -58 33 -86 94 -32 71 -39 148 -24 272 12 95 11 107 -3 121 -38 38 -104
-35 -133 -147 -34 -134 1 -276 95 -381 51 -59 197 -167 277 -207 140 -70 284
-80 445 -29 104 33 156 74 196 155 25 51 28 69 31 177 3 107 1 124 -17 153
-53 83 -186 107 -272 49 -74 -49 -103 -143 -59 -187 11 -11 24 -20 30 -20 5 0
14 9 20 20 14 27 65 27 80 1 16 -32 12 -60 -15 -86 -47 -48 -140 -25 -199 48
-27 33 -31 48 -34 110 -6 126 46 226 149 282 47 25 67 30 149 33 83 4 105 1
175 -23 220 -73 374 -208 447 -390 30 -75 32 -88 33 -205 0 -96 -4 -137 -18
-177 -50 -142 -223 -331 -370 -402 -116 -57 -217 -76 -407 -76 -169 0 -222 11
-330 65 -77 39 -234 163 -357 282 -79 77 -107 99 -125 96 -19 -2 -24 -10 -26
-40 -5 -57 48 -148 138 -239 129 -130 266 -214 435 -266 86 -26 100 -27 310
-28 149 -1 237 -6 272 -15 70 -18 108 -6 225 72 96 64 353 309 416 397 122
168 87 449 -87 712 -141 213 -320 352 -523 409 -95 26 -242 33 -333 16z"/>
<path d="M5429 5098 c-9 -16 -8 -39 1 -94 7 -40 11 -111 8 -158 -4 -75 -9 -95
-47 -171 -33 -68 -60 -104 -129 -173 -99 -100 -157 -134 -272 -158 -71 -15
-181 -14 -275 2 -18 3 -38 -1 -49 -9 -49 -36 53 -99 191 -116 322 -40 643 143
744 425 28 76 31 215 7 294 -40 130 -144 223 -179 158z"/>
<path d="M6670 6542 c0 -23 39 -66 110 -122 45 -35 45 -35 -19 42 -80 98 -91
107 -91 80z"/>
<path d="M6487 5883 c-15 -14 -5 -88 19 -151 38 -96 119 -256 138 -271 27 -23
46 -6 46 40 0 70 -103 306 -160 367 -22 23 -32 27 -43 15z"/>
<path d="M7081 5244 c0 -11 3 -14 6 -6 3 7 2 16 -1 19 -3 4 -6 -2 -5 -13z"/>
<path d="M7062 5161 c-7 -30 -10 -56 -8 -59 7 -6 28 77 24 96 -2 9 -9 -7 -16
-37z"/>
<path d="M2901 4974 c0 -11 3 -14 6 -6 3 7 2 16 -1 19 -3 4 -6 -2 -5 -13z"/>
<path d="M6120 2665 c-30 -7 -82 -18 -115 -25 -33 -6 -91 -18 -128 -26 -116
-25 -455 -72 -596 -83 -245 -20 -431 -13 -848 29 -226 23 -368 25 -438 6 -50
-14 -50 -14 -12 -15 21 -1 145 -26 275 -56 406 -93 547 -110 846 -102 253 7
523 50 717 114 69 22 387 172 364 171 -5 0 -35 -6 -65 -13z"/>
<path d="M4408 2303 c7 -3 16 -2 19 1 4 3 -2 6 -13 5 -11 0 -14 -3 -6 -6z"/>
<path d="M4515 2280 c182 -44 289 -55 535 -53 139 0 272 7 325 15 86 12 77 13
-235 14 -307 0 -384 5 -665 39 -22 3 -4 -4 40 -15z"/>
<path d="M5508 2263 c7 -3 16 -2 19 1 4 3 -2 6 -13 5 -11 0 -14 -3 -6 -6z"/>
</g>
</svg>
