<?xml version="1.0" standalone="no"?>
<!DOCTYPE svg PUBLIC "-//W3C//DTD SVG 20010904//EN"
 "http://www.w3.org/TR/2001/REC-SVG-20010904/DTD/svg10.dtd">
<svg version="1.0" xmlns="http://www.w3.org/2000/svg"
 width="1000.000000pt" height="1000.000000pt" viewBox="0 0 1000.000000 1000.000000"
 preserveAspectRatio="xMidYMid meet">
<metadata>
  <rdf:RDF
    xmlns:rdf = "http://www.w3.org/1999/02/22-rdf-syntax-ns#"
    xmlns:rdfs = "http://www.w3.org/2000/01/rdf-schema#"
    xmlns:dc = "http://purl.org/dc/elements/1.1/"
    xmlns:cc = "http://creativecommons.org/ns#">
    <cc:license rdf:resource="http://creativecommons.org/publicdomain/zero/1.0/deed.en"/>
    <cc:permits rdf:resource="http://creativecommons.org/ns#Reproduction"/>
    <rdf:Description about="https://nft.mir.one/fingerprints"
      dc:title="TON Fingerprints"
      dc:description="This is a unique digital fingerprint created based on the algorithm for generating basic rings using a noise texture. Like human fingerprints, you can now use it for the Web3 and Metaverse era as digital biometric information."
      dc:publisher="https://nft.mir.one"
      dc:date="2022-02-22"
      dc:format="image/svg+xml"
      dc:language="en" >
      <dc:creator>
      <rdf:Bag>
        <rdf:li>EQBondcvD2_aOFADXSWJHs4ZazQDuEl9_wNvGGPxI8hGuOFU</rdf:li>
        <rdf:li>ipfs://bafkreihj7iub3fhmhq6jn62noukt5wxn3gv6bvcg7wmt6ywvlurefezckq</rdf:li>
      </rdf:Bag>
      </dc:creator>
    </rdf:Description>
  </rdf:RDF>
</metadata>
<g transform="translate(0.000000,1000.000000) scale(0.100000,-0.100000)"
fill="#1b1f23" stroke="none">
<path d="M4665 7761 c-63 -10 -115 -36 -115 -57 0 -13 4 -12 18 5 37 46 127
45 365 -3 189 -38 255 -58 490 -148 238 -91 383 -110 482 -63 50 23 50 23 -16
24 -80 1 -124 14 -349 101 -185 72 -286 100 -440 125 -113 18 -365 27 -435 16z"/>
<path d="M4350 7644 c-47 -7 -92 -14 -100 -14 -8 -1 5 -7 30 -15 78 -23 183
-62 245 -89 33 -15 146 -57 250 -93 238 -82 370 -141 547 -244 118 -68 150
-82 206 -90 92 -14 113 -23 222 -95 206 -135 469 -380 676 -630 269 -323 425
-565 529 -818 20 -48 54 -123 74 -165 21 -42 41 -83 44 -91 5 -13 6 -13 6 0 2
28 -69 284 -121 440 -61 181 -193 453 -295 610 -174 266 -425 508 -738 715
-153 101 -193 135 -201 174 -3 14 -7 31 -9 38 -2 6 -37 22 -77 33 -40 12 -174
61 -298 110 -303 119 -433 157 -595 174 -100 11 -168 27 -201 47 -36 22 -74
23 -194 3z"/>
<path d="M4095 7380 c-60 -15 -164 -51 -229 -78 -119 -50 -119 -50 -60 -55 32
-4 138 -6 234 -6 134 0 203 -5 295 -21 276 -48 527 -139 651 -238 35 -27 61
-61 87 -110 29 -54 56 -87 115 -139 141 -123 327 -317 403 -418 88 -119 157
-248 198 -371 32 -98 93 -457 112 -664 17 -186 6 -569 -19 -685 -46 -206 -122
-360 -241 -487 -91 -97 -170 -155 -293 -213 -142 -67 -200 -80 -358 -79 -119
0 -145 3 -215 27 -99 33 -217 101 -279 162 -48 46 -54 67 -22 73 9 2 72 -24
139 -57 188 -93 319 -117 474 -88 151 29 272 90 386 197 89 83 140 151 188
255 68 146 84 230 84 460 0 205 -11 306 -55 491 -35 149 -87 262 -129 280 -9
3 -45 12 -81 19 -36 7 -102 20 -147 29 -71 15 -110 16 -310 7 -189 -8 -245
-14 -325 -35 -200 -51 -494 -196 -616 -302 -46 -41 -50 -47 -50 -88 1 -55 -12
-87 -80 -201 -120 -198 -164 -309 -202 -512 -12 -68 -33 -139 -52 -180 -26
-54 -33 -84 -36 -151 -14 -262 128 -603 342 -818 125 -125 188 -152 509 -215
322 -62 376 -69 582 -76 271 -8 442 14 582 77 75 34 407 252 515 338 182 145
312 347 414 644 19 57 50 128 69 158 43 71 60 136 46 173 -8 21 -17 28 -33 25
-17 -2 -28 -18 -46 -66 -18 -46 -29 -62 -41 -60 -12 2 -17 16 -19 52 -3 38 4
61 30 114 32 64 33 72 36 202 6 220 -25 393 -98 555 -18 39 -60 135 -95 215
-78 178 -108 232 -146 265 -38 32 -54 32 -75 0 -21 -32 -16 -89 26 -275 36
-165 37 -194 5 -287 -19 -55 -28 -108 -35 -216 -26 -370 -47 -515 -100 -677
-91 -278 -264 -482 -515 -608 -115 -57 -391 -161 -459 -173 -85 -14 -260 -7
-341 15 -185 51 -382 197 -495 366 -58 88 -109 140 -137 140 -61 0 -5 -150
112 -297 68 -87 213 -221 298 -278 119 -79 306 -120 512 -112 146 5 184 15
237 63 52 47 101 69 225 104 149 43 207 66 288 118 166 106 318 293 395 485
44 110 67 206 96 407 23 158 25 199 22 415 -3 221 -2 240 14 243 26 5 66 -44
82 -99 39 -131 43 -332 11 -534 -8 -50 -19 -146 -25 -214 -11 -141 -45 -254
-113 -385 -111 -213 -323 -420 -532 -518 -61 -28 -65 -29 -123 -17 -51 11 -72
10 -143 -5 -46 -10 -100 -25 -119 -34 -37 -18 -51 -49 -28 -63 27 -17 136 -9
215 16 96 30 93 30 93 1 0 -33 -58 -79 -128 -102 -51 -17 -86 -19 -332 -16
-297 3 -420 15 -566 58 -126 36 -181 67 -199 111 -9 21 -68 91 -133 158 -124
126 -186 208 -230 303 -22 48 -26 72 -27 157 -2 93 -6 112 -55 260 -51 152
-54 165 -54 260 0 73 6 122 23 180 38 137 147 348 231 450 118 141 336 257
569 301 112 21 312 21 406 0 127 -30 225 -105 227 -176 2 -49 -15 -58 -70 -36
-203 80 -206 80 -372 81 -120 0 -170 -4 -223 -19 -215 -58 -377 -168 -486
-331 -139 -208 -178 -451 -103 -652 33 -89 49 -115 125 -207 26 -33 61 -88 77
-122 16 -35 41 -80 56 -100 42 -54 158 -140 248 -184 122 -58 191 -74 331 -73
139 1 222 19 373 84 278 118 441 266 558 504 97 199 132 390 155 855 12 232
11 255 -10 435 -43 374 -47 391 -122 540 -83 163 -171 282 -394 530 -79 88
-181 210 -228 270 -161 212 -325 316 -689 439 -288 97 -373 106 -563 56z
m1153 -2240 c68 -18 138 -42 155 -54 81 -55 134 -175 144 -330 20 -314 -180
-608 -463 -680 -78 -20 -222 -20 -299 -1 -87 22 -257 107 -308 154 -124 114
-172 340 -112 529 62 196 224 345 438 402 113 31 285 23 445 -20z m-1416 -821
c30 -16 54 -79 92 -247 40 -174 80 -276 147 -377 61 -91 195 -219 283 -269
101 -59 100 -92 -1 -82 -174 16 -396 254 -492 529 -65 186 -97 457 -55 457 3
0 14 -5 26 -11z"/>
<path d="M4842 5014 c-135 -36 -241 -120 -296 -234 -28 -59 -31 -74 -31 -160
0 -81 3 -100 22 -131 19 -30 33 -39 80 -51 32 -8 92 -25 134 -38 57 -17 86
-21 121 -16 82 12 145 71 155 143 13 100 -91 169 -157 103 -25 -25 -25 -45 1
-71 30 -30 21 -53 -21 -57 -50 -5 -96 23 -121 74 -67 139 106 292 276 244 108
-30 176 -121 176 -234 0 -86 -29 -152 -92 -211 -114 -107 -259 -119 -425 -34
-95 49 -114 50 -114 7 0 -45 77 -118 156 -148 192 -73 384 -38 523 95 179 170
203 463 52 614 -100 100 -290 146 -439 105z"/>
<path d="M5753 7325 c-13 -9 -23 -22 -23 -28 0 -7 57 -37 126 -67 248 -108
381 -201 628 -438 100 -95 207 -201 240 -235 58 -62 58 -62 -20 48 -134 189
-222 296 -348 421 -130 129 -290 245 -395 285 -74 29 -178 36 -208 14z"/>
<path d="M3792 7065 c-40 -14 -103 -40 -140 -59 -76 -38 -218 -122 -187 -111
35 13 613 16 735 5 151 -15 344 -51 535 -100 159 -41 221 -48 256 -30 70 38
-64 134 -291 210 -219 73 -446 110 -680 110 -139 -1 -163 -3 -228 -25z"/>
<path d="M5495 6989 c-14 -22 7 -80 47 -131 23 -29 107 -120 186 -202 172
-179 280 -312 427 -528 81 -120 124 -173 165 -205 140 -109 207 -201 301 -412
102 -228 129 -343 154 -649 8 -103 23 -229 31 -281 23 -130 15 -248 -24 -371
-138 -435 -289 -687 -497 -827 -100 -67 -456 -274 -525 -305 -166 -75 -355
-108 -617 -108 -257 0 -447 27 -875 125 -171 39 -230 67 -311 144 -91 86 -251
335 -322 501 -63 146 -86 248 -92 405 -5 126 -2 159 26 328 18 104 45 224 60
267 44 124 140 274 279 434 77 88 91 114 72 126 -75 48 -244 -80 -456 -344
-123 -153 -149 -201 -139 -254 21 -112 22 -135 9 -267 -23 -238 -14 -387 35
-560 42 -150 82 -228 270 -535 45 -74 52 -91 49 -129 -2 -24 -8 -46 -15 -48
-13 -5 -158 170 -233 281 -70 105 -151 269 -189 382 -70 208 -79 449 -27 698
15 71 25 139 22 152 -18 69 -123 -12 -167 -127 -22 -59 -24 -77 -23 -229 1
-130 6 -187 23 -270 63 -300 235 -651 405 -828 72 -76 100 -92 158 -92 39 -1
55 -10 180 -108 75 -59 155 -131 178 -160 22 -29 60 -66 83 -84 101 -74 307
-145 552 -189 123 -22 152 -24 540 -23 401 1 411 1 475 24 191 67 325 156 609
405 48 43 70 55 90 53 21 -2 27 -9 32 -38 5 -35 5 -35 13 10 4 25 10 53 13 64
4 14 2 16 -8 10 -8 -5 -43 -9 -79 -9 -72 0 -88 -8 -301 -143 -177 -112 -320
-175 -473 -206 -187 -39 -622 -44 -846 -10 -206 31 -435 94 -549 152 -62 31
-82 55 -63 74 19 19 88 13 214 -20 142 -38 279 -67 405 -87 142 -23 434 -30
589 -16 277 26 411 71 689 231 146 84 212 115 292 140 39 12 87 34 107 48 112
84 285 404 392 727 102 309 112 413 86 900 -17 327 -26 406 -62 516 -41 127
-147 343 -225 459 -107 160 -447 577 -611 749 -106 112 -326 307 -408 362 -57
38 -108 50 -121 28z"/>
<path d="M3575 6788 c-93 -49 -176 -125 -281 -257 -32 -41 -69 -86 -82 -102
-22 -27 -22 -27 30 -6 38 16 78 47 143 112 74 75 108 100 192 144 56 29 110
62 119 72 45 49 -46 77 -121 37z"/>
<path d="M3902 6745 c-41 -9 -91 -31 -140 -63 -42 -27 -116 -70 -164 -96 -110
-59 -150 -92 -146 -120 6 -42 63 -33 241 38 261 104 346 116 465 61 44 -20 79
-26 210 -34 435 -28 713 -127 891 -316 77 -82 110 -147 126 -247 9 -55 20 -90
41 -119 36 -53 133 -139 155 -139 51 0 66 122 28 232 -106 316 -363 590 -619
662 -108 30 -438 96 -610 121 -222 33 -393 40 -478 20z"/>
<path d="M3950 6480 c-41 -11 -140 -42 -220 -70 -80 -28 -190 -61 -245 -72
-55 -11 -116 -28 -135 -38 -55 -29 -250 -239 -303 -327 -13 -21 65 9 128 50
115 74 302 157 570 253 319 114 372 137 388 171 24 54 -48 67 -183 33z"/>
<path d="M4289 6359 c-20 -4 -83 -27 -140 -50 -57 -22 -157 -61 -221 -85 -333
-124 -511 -206 -661 -305 -119 -78 -193 -187 -292 -431 -55 -133 -55 -133 13
-58 158 176 298 306 407 379 130 86 315 179 510 254 413 161 548 172 891 73
163 -48 278 -97 375 -162 64 -43 84 -52 95 -43 23 19 16 64 -18 115 -92 136
-342 262 -617 309 -90 16 -283 18 -342 4z"/>
<path d="M4213 6041 c-121 -32 -350 -119 -475 -182 -245 -123 -430 -264 -560
-428 -101 -127 -127 -197 -173 -469 -29 -171 -67 -493 -60 -501 3 -2 5 3 5 11
0 28 137 305 190 385 62 93 73 103 117 103 58 0 103 33 263 192 85 85 184 174
218 197 125 84 713 352 942 429 32 11 109 17 271 21 204 5 229 8 248 25 27 24
27 42 0 57 -42 22 -225 70 -379 98 -99 19 -177 40 -215 57 -52 25 -74 29 -170
31 -95 3 -125 -1 -222 -26z m353 -105 c37 -29 -14 -59 -211 -127 -392 -133
-672 -283 -856 -457 -86 -81 -188 -205 -237 -289 -42 -73 -65 -80 -82 -29 -49
149 232 472 570 656 325 176 740 302 816 246z"/>
<path d="M7057 5102 c-40 -44 -38 -185 3 -342 11 -41 17 -60 15 -42 -3 19 -8
102 -11 186 -6 128 -4 158 9 184 17 35 9 42 -16 14z"/>
<path d="M3485 3053 c38 -38 220 -200 316 -280 286 -240 500 -333 969 -424
164 -32 164 -32 310 -15 221 26 386 65 406 97 12 20 -27 39 -77 39 -25 0 -111
-7 -190 -16 -257 -29 -517 -3 -809 81 -226 65 -315 113 -605 326 -60 44 -146
99 -190 121 -44 22 -96 52 -115 66 -22 16 -28 18 -15 5z"/>
<path d="M5955 2513 c-27 -15 -108 -50 -179 -79 -74 -30 -161 -75 -206 -106
-43 -29 -77 -54 -76 -55 4 -4 479 234 501 251 29 22 17 19 -40 -11z"/>
<path d="M5450 2260 c-8 -5 -10 -10 -5 -10 6 0 17 5 25 10 8 5 11 10 5 10 -5
0 -17 -5 -25 -10z"/>
</g>
</svg>
