<?xml version="1.0" standalone="no"?>
<!DOCTYPE svg PUBLIC "-//W3C//DTD SVG 20010904//EN"
 "http://www.w3.org/TR/2001/REC-SVG-20010904/DTD/svg10.dtd">
<svg version="1.0" xmlns="http://www.w3.org/2000/svg"
 width="1000.000000pt" height="1000.000000pt" viewBox="0 0 1000.000000 1000.000000"
 preserveAspectRatio="xMidYMid meet">
<metadata>
  <rdf:RDF
    xmlns:rdf = "http://www.w3.org/1999/02/22-rdf-syntax-ns#"
    xmlns:rdfs = "http://www.w3.org/2000/01/rdf-schema#"
    xmlns:dc = "http://purl.org/dc/elements/1.1/"
    xmlns:cc = "http://creativecommons.org/ns#">
    <cc:license rdf:resource="http://creativecommons.org/publicdomain/zero/1.0/deed.en"/>
    <cc:permits rdf:resource="http://creativecommons.org/ns#Reproduction"/>
    <rdf:Description about="https://nft.mir.one/fingerprints"
      dc:title="TON Fingerprints"
      dc:description="This is a unique digital fingerprint created based on the algorithm for generating basic rings using a noise texture. Like human fingerprints, you can now use it for the Web3 and Metaverse era as digital biometric information."
      dc:publisher="https://nft.mir.one"
      dc:date="2022-02-22"
      dc:format="image/svg+xml"
      dc:language="en" >
      <dc:creator>
      <rdf:Bag>
        <rdf:li>EQBondcvD2_aOFADXSWJHs4ZazQDuEl9_wNvGGPxI8hGuOFU</rdf:li>
        <rdf:li>ipfs://bafkreihj7iub3fhmhq6jn62noukt5wxn3gv6bvcg7wmt6ywvlurefezckq</rdf:li>
      </rdf:Bag>
      </dc:creator>
    </rdf:Description>
  </rdf:RDF>
</metadata>
<g transform="translate(0.000000,1000.000000) scale(0.100000,-0.100000)"
fill="#1b1f23" stroke="none">
<path d="M4607 7750 c12 -5 39 -20 61 -34 27 -17 78 -32 149 -46 283 -54 417
-90 559 -149 154 -65 257 -131 399 -256 81 -71 121 -99 264 -184 120 -71 275
-186 446 -330 66 -56 148 -117 182 -135 73 -39 84 -55 -118 179 -176 204 -341
367 -427 420 -35 22 -152 99 -261 170 -108 72 -239 151 -291 177 -209 102
-433 159 -695 178 -82 5 -181 12 -220 15 -48 3 -63 2 -48 -5z"/>
<path d="M4390 7584 c-36 -7 -103 -27 -150 -43 -109 -38 -344 -144 -305 -137
17 3 59 10 95 16 36 7 97 20 135 31 39 10 126 30 195 44 69 14 139 30 157 36
74 24 64 70 -16 68 -25 0 -75 -7 -111 -15z"/>
<path d="M4735 7490 c-27 -4 -95 -26 -150 -48 -55 -23 -176 -62 -270 -87 -426
-117 -713 -275 -846 -465 -21 -30 -53 -73 -70 -95 -17 -22 11 3 62 56 99 102
173 151 304 205 59 24 86 28 171 30 96 2 110 5 325 77 260 87 399 123 532 137
190 20 410 -20 642 -115 136 -55 193 -67 214 -41 49 59 -180 213 -424 284
-171 51 -388 78 -490 62z"/>
<path d="M4750 7154 c-200 -38 -348 -81 -476 -139 -93 -42 -149 -82 -238 -164
-39 -37 -111 -100 -161 -141 -214 -178 -473 -454 -593 -632 -132 -195 -230
-457 -308 -823 -19 -87 -42 -171 -51 -185 -17 -25 -17 -25 8 -9 40 27 65 74
140 263 157 399 261 589 457 836 165 207 478 493 691 629 160 102 370 176 578
202 173 22 478 -4 596 -50 35 -14 44 -38 23 -59 -15 -15 -50 -17 -319 -17
-324 0 -370 -5 -547 -65 -241 -81 -503 -262 -752 -519 -260 -267 -407 -506
-573 -926 -37 -92 -88 -206 -115 -254 -89 -156 -114 -267 -113 -496 1 -330 82
-587 315 -1004 145 -260 249 -385 302 -365 30 11 16 51 -50 150 -37 55 -80
128 -97 164 -16 36 -70 128 -121 205 -257 395 -323 648 -247 946 16 63 39 140
50 171 25 66 72 121 98 116 16 -3 18 -18 18 -156 0 -153 0 -153 37 -185 43
-38 63 -75 119 -228 81 -222 172 -382 276 -487 51 -52 68 -63 90 -60 49 5 41
41 -37 172 -94 158 -137 243 -205 416 -78 195 -112 295 -135 395 -11 46 -29
107 -40 137 -26 69 -25 135 4 249 47 187 145 411 262 599 236 382 639 713
1004 824 156 47 241 56 555 56 160 1 342 1 405 2 105 1 123 -2 207 -30 400
-136 787 -490 1006 -919 132 -259 212 -582 191 -775 -7 -71 -74 -377 -105
-480 -44 -149 -154 -318 -207 -318 -11 0 -23 4 -26 8 -3 4 17 55 44 113 103
225 144 413 145 664 0 247 -35 389 -157 629 -192 377 -457 659 -763 811 -170
85 -267 106 -505 113 -187 4 -197 6 -270 34 -72 30 -79 30 -195 25 -309 -14
-632 -171 -919 -447 -175 -169 -277 -310 -386 -535 -131 -269 -168 -444 -139
-652 30 -216 120 -476 268 -778 60 -121 112 -231 116 -245 21 -71 66 -133 183
-252 128 -131 143 -158 85 -158 -45 1 -100 31 -223 123 -63 48 -149 103 -190
123 -108 52 -162 95 -228 182 -105 140 -180 306 -233 516 -17 66 -35 128 -40
138 -15 27 -37 22 -59 -14 -48 -80 -11 -296 85 -496 110 -229 235 -384 335
-417 70 -22 101 -41 230 -135 138 -102 197 -134 304 -164 222 -65 309 -10 195
122 -16 17 -44 66 -64 108 -19 42 -70 125 -113 183 -107 144 -110 149 -186
289 -281 517 -365 935 -257 1274 50 153 95 208 150 178 27 -14 26 -37 -4 -135
-89 -289 -80 -542 32 -870 45 -133 176 -397 255 -515 89 -133 279 -379 361
-466 98 -105 211 -154 430 -183 111 -15 332 -14 420 3 96 19 138 37 464 204
400 205 465 257 558 448 58 119 103 257 154 469 54 228 57 346 12 447 -12 26
-28 97 -37 163 -25 194 -64 285 -121 285 -36 0 -49 -46 -57 -192 -5 -111 -13
-150 -55 -300 -27 -95 -68 -240 -91 -323 -51 -182 -90 -285 -164 -432 -58
-116 -68 -156 -40 -167 46 -18 133 75 204 219 58 116 101 245 160 475 47 183
70 240 100 240 28 0 33 -34 21 -126 -30 -212 -118 -512 -192 -655 -48 -91
-134 -191 -188 -218 -20 -10 -58 -23 -86 -30 -27 -7 -156 -63 -285 -126 -299
-145 -374 -167 -575 -169 -158 0 -261 19 -381 74 -277 125 -588 508 -713 877
-95 279 -110 527 -46 780 79 316 355 623 710 789 105 49 407 152 540 184 292
71 635 -46 889 -305 85 -87 154 -177 241 -319 37 -60 90 -137 119 -172 29 -35
65 -86 79 -112 59 -109 107 -355 107 -550 0 -125 -14 -210 -66 -397 -22 -79
-37 -158 -39 -200 -3 -80 -4 -83 -62 -185 -63 -110 -56 -170 15 -141 15 6 84
62 152 124 98 89 135 129 171 190 51 84 100 225 123 357 9 47 26 137 38 200
29 149 31 408 5 575 -78 481 -270 917 -498 1129 -175 162 -404 326 -587 419
-162 83 -204 98 -317 107 -83 6 -116 14 -197 48 -53 22 -143 53 -200 67 -90
24 -126 28 -283 30 -99 2 -191 1 -205 -1z m404 -680 c8 -20 -17 -50 -58 -71
-16 -8 -103 -39 -192 -68 -405 -132 -639 -299 -884 -630 -81 -110 -90 -117
-132 -113 -26 2 -34 8 -36 27 -8 55 100 220 243 370 251 262 545 421 900 485
111 20 151 20 159 0z"/>
<path d="M3883 6990 c-83 -29 -171 -88 -257 -170 -130 -124 -298 -332 -394
-486 -55 -88 -215 -394 -185 -355 9 13 47 61 83 106 36 45 95 120 131 166 136
173 375 411 555 555 153 122 186 164 148 191 -22 16 -18 16 -81 -7z"/>
<path d="M5295 6134 c-161 -17 -369 -77 -531 -154 -256 -120 -440 -295 -554
-525 -80 -159 -94 -226 -94 -445 -1 -156 3 -201 21 -283 62 -272 155 -454 322
-630 207 -218 449 -331 706 -330 171 0 305 42 418 128 54 41 73 74 98 165 9
36 33 110 53 165 20 58 40 138 46 190 6 50 26 162 45 250 19 89 40 215 46 282
34 356 -92 627 -350 758 -108 54 -178 69 -321 68 -106 0 -139 -4 -214 -27
-167 -50 -277 -117 -389 -235 -74 -79 -125 -164 -159 -266 -19 -59 -23 -90
-23 -195 1 -107 4 -134 24 -185 29 -75 92 -139 221 -224 123 -81 201 -105 313
-99 104 7 166 30 300 116 59 37 126 79 150 93 54 32 84 90 95 183 35 289 -157
509 -433 494 -298 -16 -481 -340 -302 -535 23 -25 60 -54 82 -64 55 -25 137
-24 193 2 118 58 131 225 19 253 -68 17 -122 -39 -82 -84 36 -40 -33 -69 -82
-35 -13 9 -28 33 -34 54 -33 111 65 220 199 221 92 0 169 -48 215 -135 30 -57
29 -154 -2 -215 -31 -60 -109 -133 -179 -167 -50 -25 -68 -28 -152 -28 -82 0
-103 4 -153 27 -75 35 -160 117 -194 187 -25 51 -28 66 -28 167 0 110 0 111
42 195 89 179 269 298 478 315 352 28 605 -249 581 -636 -7 -124 -46 -304 -81
-376 -32 -66 -225 -264 -320 -329 -83 -57 -135 -104 -135 -122 0 -7 11 -20 26
-29 22 -15 32 -15 78 -5 98 22 192 96 297 235 65 86 92 111 109 101 36 -22
-53 -221 -145 -322 -106 -118 -245 -159 -392 -115 -37 11 -113 30 -168 42
-127 28 -200 59 -301 126 -179 118 -303 293 -325 459 -6 44 -20 123 -31 175
-31 148 -34 285 -9 405 69 333 328 590 704 699 308 89 599 31 808 -162 200
-184 261 -437 203 -836 -30 -213 -123 -568 -194 -745 -48 -121 -50 -164 -9
-169 40 -5 87 58 147 196 84 195 139 374 206 677 44 201 58 319 60 515 1 147
0 158 -25 218 -42 99 -88 169 -168 254 -165 176 -375 278 -601 291 -47 2 -103
3 -125 1z"/>
<path d="M5432 4652 c-17 -9 -66 -46 -109 -81 -45 -37 -118 -83 -173 -110 -95
-46 -95 -46 -211 -46 -116 0 -116 0 -200 42 -47 24 -121 74 -167 113 -84 71
-110 82 -132 55 -20 -24 2 -82 56 -155 109 -144 302 -251 452 -250 158 2 518
263 538 392 8 48 -12 63 -54 40z"/>
<path d="M6918 4072 c-37 -31 -98 -83 -135 -115 -83 -71 -171 -122 -237 -137
-64 -14 -73 -19 -196 -110 -161 -119 -228 -159 -450 -270 -217 -107 -273 -147
-268 -190 5 -43 58 -48 181 -18 185 46 395 150 567 280 122 93 211 157 290
211 84 57 156 142 251 296 38 61 68 111 66 111 -1 -1 -32 -27 -69 -58z"/>
<path d="M6711 3623 c-34 -17 -98 -77 -204 -191 -97 -105 -293 -218 -507 -293
-85 -29 -107 -33 -210 -33 -111 -1 -117 0 -170 30 -55 32 -55 32 -305 37 -154
3 -325 14 -445 27 -163 18 -223 21 -365 15 -222 -10 -256 -8 -343 15 -144 39
-233 95 -394 246 -119 111 -156 138 -182 128 -29 -11 -18 -60 31 -131 25 -37
54 -79 63 -93 10 -14 38 -57 64 -96 68 -106 171 -177 369 -256 56 -22 152 -52
214 -65 112 -25 112 -25 180 8 63 31 77 34 178 37 133 4 605 -46 830 -89 211
-40 295 -32 530 48 198 68 250 95 367 192 129 107 194 182 213 246 23 80 128
215 168 215 10 0 15 5 12 10 -9 15 -56 12 -94 -7z"/>
<path d="M3495 3115 c262 -256 436 -387 670 -500 348 -169 759 -255 1078 -226
133 13 192 33 192 66 0 29 -47 41 -236 60 -357 35 -550 79 -753 171 -66 31
-183 82 -260 115 -188 81 -277 127 -416 214 -64 40 -165 96 -224 123 -59 28
-126 65 -149 82 -23 18 21 -30 98 -105z"/>
<path d="M4574 2894 c-5 -1 -21 -5 -36 -8 -63 -14 -17 -86 82 -128 67 -29 224
-64 415 -92 298 -45 368 -63 448 -113 30 -19 62 -28 118 -34 101 -10 119 -20
119 -66 0 -50 -46 -90 -156 -138 -175 -75 -204 -80 -439 -79 -222 1 -209 -1
-608 74 -93 17 -174 29 -180 27 -14 -4 299 -82 418 -103 120 -22 397 -30 508
-15 194 26 432 122 494 199 34 43 97 72 197 94 41 9 47 12 31 19 -11 4 -42 30
-69 58 -55 56 -86 69 -346 140 -193 52 -302 73 -635 120 -289 41 -347 48 -361
45z"/>
<path d="M6245 2883 c-44 -9 -183 -57 -227 -79 -110 -55 -118 -148 -8 -104 25
10 119 56 210 102 165 83 165 83 105 84 -33 0 -69 -1 -80 -3z"/>
<path d="M4298 2343 c7 -3 16 -2 19 1 4 3 -2 6 -13 5 -11 0 -14 -3 -6 -6z"/>
</g>
</svg>
