<?xml version="1.0" standalone="no"?>
<!DOCTYPE svg PUBLIC "-//W3C//DTD SVG 20010904//EN"
 "http://www.w3.org/TR/2001/REC-SVG-20010904/DTD/svg10.dtd">
<svg version="1.0" xmlns="http://www.w3.org/2000/svg"
 width="1000.000000pt" height="1000.000000pt" viewBox="0 0 1000.000000 1000.000000"
 preserveAspectRatio="xMidYMid meet">
<metadata>
  <rdf:RDF
    xmlns:rdf = "http://www.w3.org/1999/02/22-rdf-syntax-ns#"
    xmlns:rdfs = "http://www.w3.org/2000/01/rdf-schema#"
    xmlns:dc = "http://purl.org/dc/elements/1.1/"
    xmlns:cc = "http://creativecommons.org/ns#">
    <cc:license rdf:resource="http://creativecommons.org/publicdomain/zero/1.0/deed.en"/>
    <cc:permits rdf:resource="http://creativecommons.org/ns#Reproduction"/>
    <rdf:Description about="https://nft.mir.one/fingerprints"
      dc:title="TON Fingerprints"
      dc:description="This is a unique digital fingerprint created based on the algorithm for generating basic rings using a noise texture. Like human fingerprints, you can now use it for the Web3 and Metaverse era as digital biometric information."
      dc:publisher="https://nft.mir.one"
      dc:date="2022-02-22"
      dc:format="image/svg+xml"
      dc:language="en" >
      <dc:creator>
      <rdf:Bag>
        <rdf:li>EQBondcvD2_aOFADXSWJHs4ZazQDuEl9_wNvGGPxI8hGuOFU</rdf:li>
        <rdf:li>ipfs://bafkreihj7iub3fhmhq6jn62noukt5wxn3gv6bvcg7wmt6ywvlurefezckq</rdf:li>
      </rdf:Bag>
      </dc:creator>
    </rdf:Description>
  </rdf:RDF>
</metadata>
<g transform="translate(0.000000,1000.000000) scale(0.100000,-0.100000)"
fill="#1b1f23" stroke="none">
<path d="M4730 7753 c0 -45 5 -54 70 -130 82 -97 149 -146 353 -260 248 -139
286 -169 380 -293 31 -41 72 -95 92 -119 39 -49 42 -59 18 -68 -25 -10 -90 30
-183 113 -47 41 -128 104 -180 139 -185 122 -560 314 -670 341 -116 29 -212 4
-337 -89 -74 -55 -121 -80 -270 -140 -131 -54 -244 -110 -368 -182 -49 -29
-97 -55 -105 -58 -35 -12 126 7 249 29 320 58 498 66 577 26 22 -10 80 -39
129 -64 167 -85 357 -159 469 -184 132 -29 229 -74 386 -179 206 -138 369
-282 450 -400 54 -79 59 -135 10 -120 -12 4 -73 54 -134 112 -267 253 -585
472 -687 475 -27 1 -48 -14 -49 -33 0 -20 62 -75 233 -203 106 -79 253 -196
327 -260 74 -64 179 -146 232 -183 109 -73 149 -122 174 -213 23 -83 30 -97
106 -203 132 -184 228 -361 302 -559 74 -199 128 -491 109 -587 -10 -51 -33
-72 -57 -52 -16 14 -24 38 -96 296 -111 399 -277 719 -424 819 -58 40 -113 53
-146 36 -31 -17 -20 -48 49 -145 123 -172 201 -327 310 -625 40 -107 108 -269
153 -360 44 -91 84 -178 89 -195 19 -60 27 -270 18 -459 -17 -343 -65 -591
-174 -901 -31 -88 -65 -189 -75 -225 -10 -36 -21 -74 -25 -85 -5 -11 5 -2 22
20 186 251 350 569 388 749 8 40 21 210 30 377 21 426 31 528 62 659 22 96 27
138 27 250 -1 260 -58 457 -230 795 -61 121 -161 317 -221 435 -60 118 -124
256 -141 306 -43 119 -115 228 -227 339 -120 120 -388 301 -606 410 -107 54
-376 162 -525 210 -129 42 -144 50 -144 79 0 39 58 60 144 53 146 -11 484
-164 741 -334 83 -55 186 -119 230 -142 103 -56 167 -105 257 -199 87 -92 150
-172 207 -265 67 -110 556 -1095 584 -1177 78 -229 92 -471 44 -770 -45 -273
-59 -432 -63 -710 -2 -146 -5 -309 -7 -362 -3 -110 -2 -109 54 54 21 61 34
124 40 191 4 54 24 174 43 265 19 92 49 259 66 372 18 113 43 257 56 320 46
222 40 396 -25 652 -33 133 -51 170 -120 256 -65 81 -104 151 -200 363 -249
548 -310 645 -609 963 -96 102 -141 157 -168 210 -20 39 -53 91 -74 116 -59
72 -75 99 -62 112 32 32 115 -33 260 -200 60 -70 180 -201 266 -291 93 -97
182 -201 218 -255 79 -118 206 -381 303 -625 90 -227 128 -306 154 -321 25
-13 27 -13 45 6 86 85 -208 890 -421 1152 -19 23 -72 67 -118 97 -61 41 -127
101 -256 236 -189 197 -270 264 -369 306 -126 54 -715 355 -739 378 -21 20
-22 26 -11 39 7 9 28 16 47 16 124 0 697 -266 896 -416 81 -61 179 -158 370
-367 72 -78 105 -107 122 -107 13 0 27 4 30 10 16 26 -70 158 -199 304 -241
272 -626 498 -1011 592 -95 23 -120 25 -295 21 -22 -1 -60 11 -98 31 -33 18
-64 32 -67 32 -3 0 -5 -21 -5 -47z"/>
<path d="M4100 7475 c-19 -7 -73 -27 -120 -44 -85 -30 -85 -30 -15 -25 88 7
131 18 173 44 58 36 33 52 -38 25z"/>
<path d="M3811 6894 c-52 -7 -116 -21 -142 -29 -62 -21 -181 -93 -294 -179
-90 -68 -90 -68 -40 -61 28 3 106 19 175 36 438 102 770 75 1084 -89 147 -78
481 -335 702 -543 160 -149 285 -251 350 -284 68 -35 140 -40 158 -12 20 32
-23 86 -160 196 -71 58 -194 161 -274 229 -80 69 -203 170 -275 225 -71 56
-177 149 -235 208 -95 96 -115 112 -210 159 -134 67 -285 124 -382 144 -95 20
-323 20 -457 0z"/>
<path d="M6551 6878 c-3 -31 68 -206 154 -382 106 -216 167 -375 229 -604 53
-195 58 -229 61 -450 3 -217 1 -206 69 -487 14 -55 25 -89 25 -75 1 34 -45
534 -64 690 -25 211 -99 494 -189 725 -39 99 -284 600 -285 583z"/>
<path d="M3834 6568 c-135 -8 -350 -51 -407 -80 -58 -29 -148 -102 -241 -196
-78 -80 -78 -80 -25 -67 30 7 88 26 129 43 223 91 508 141 720 128 121 -8 299
-45 411 -86 158 -59 349 -168 507 -289 106 -83 157 -148 173 -222 11 -49 21
-63 128 -174 134 -138 174 -195 275 -395 176 -348 239 -580 217 -802 -6 -62
-16 -196 -21 -298 -17 -303 -46 -471 -126 -743 -37 -123 -47 -175 -54 -272 -5
-85 -15 -143 -34 -197 -50 -151 -279 -615 -353 -715 -36 -49 166 106 260 200
71 71 84 90 151 230 88 179 122 278 181 522 110 451 126 563 131 910 3 149 7
284 10 302 5 32 27 63 44 63 33 0 78 -206 87 -394 20 -454 -142 -1135 -367
-1537 -33 -59 -69 -130 -80 -159 -21 -53 -21 -53 49 9 137 122 282 295 337
403 33 65 107 291 143 439 78 317 111 702 80 926 -17 123 -65 257 -126 346
-67 98 -84 132 -118 237 -65 200 -112 317 -206 510 -74 154 -102 223 -113 278
-13 73 -13 73 -197 259 -101 102 -224 227 -274 277 -49 50 -126 119 -170 152
-413 314 -712 418 -1121 392z"/>
<path d="M3801 6250 c-168 -17 -380 -72 -503 -130 -62 -29 -156 -130 -249
-266 -74 -109 -74 -109 -24 -84 27 14 78 44 113 68 255 175 611 269 919 242
222 -20 421 -87 696 -237 188 -102 237 -121 273 -105 13 7 24 16 24 22 0 48
-253 232 -455 331 -265 129 -540 184 -794 159z"/>
<path d="M3805 5939 c-255 -35 -527 -151 -655 -279 -71 -71 -135 -193 -194
-372 -25 -75 -46 -139 -46 -142 0 -11 77 80 111 129 51 76 184 211 274 278
102 77 272 159 400 193 82 21 129 27 260 31 175 5 288 -11 445 -64 201 -67
492 -242 617 -369 157 -162 277 -392 340 -654 34 -145 43 -435 19 -627 -51
-402 -163 -635 -446 -927 -280 -289 -558 -462 -835 -521 -39 -8 -91 -20 -117
-27 -47 -12 -47 -12 50 -35 242 -57 375 -52 484 19 195 126 453 343 607 512
73 80 138 147 145 149 7 3 36 36 64 74 150 198 242 613 242 1089 0 192 -17
301 -71 469 -96 293 -266 561 -433 679 -79 57 -516 275 -631 316 -207 73 -451
104 -630 79z"/>
<path d="M3910 5645 c-8 -2 -49 -9 -90 -15 -217 -36 -423 -158 -592 -354 -85
-98 -141 -182 -163 -243 -10 -27 -36 -93 -58 -148 -39 -97 -41 -104 -45 -240
-2 -83 1 -170 8 -215 16 -101 64 -228 112 -300 37 -57 114 -119 147 -121 9 0
59 0 111 1 115 1 183 27 188 71 3 23 -5 30 -67 63 -39 20 -82 51 -95 69 -32
41 -41 80 -24 95 10 8 37 -3 113 -49 55 -32 114 -64 132 -70 91 -30 238 84
250 193 6 53 -42 187 -91 251 -36 47 -158 144 -195 153 -33 9 -87 -19 -111
-58 -24 -40 -27 -126 -5 -168 16 -31 61 -60 93 -60 29 0 54 33 47 62 -14 55
64 37 86 -20 16 -41 3 -92 -31 -127 -28 -27 -36 -30 -98 -30 -89 0 -157 21
-197 61 -45 44 -63 125 -70 308 -6 171 -3 180 87 261 56 50 71 53 143 26 28
-10 97 -26 155 -35 193 -30 328 -122 404 -277 62 -127 60 -232 -9 -372 -76
-155 -184 -265 -389 -394 -160 -102 -275 -133 -416 -114 -175 24 -168 29 -78
-58 44 -42 103 -92 130 -111 45 -32 56 -35 117 -34 93 1 144 18 201 69 27 24
116 89 197 143 247 167 329 247 394 385 65 139 74 295 25 439 -34 100 -69 160
-140 235 -104 112 -233 183 -413 229 -63 16 -78 17 -115 5 -24 -7 -56 -14 -73
-14 -24 -2 -31 2 -33 21 -6 42 19 81 104 161 120 114 181 138 409 163 218 24
309 11 460 -65 325 -162 555 -479 619 -852 35 -200 14 -494 -50 -695 -93 -296
-307 -582 -570 -760 -170 -116 -350 -186 -576 -225 -159 -28 -224 -42 -192
-44 11 -1 54 -12 95 -26 179 -62 297 -70 417 -29 191 65 400 197 573 362 279
265 428 545 485 910 22 142 22 397 1 517 -53 294 -171 530 -359 710 -190 185
-426 310 -657 350 -72 13 -255 19 -301 10z m-745 -805 c4 -6 -4 -41 -17 -78
-19 -55 -23 -87 -23 -182 0 -132 9 -165 87 -332 66 -140 57 -168 -34 -108 -50
33 -115 120 -155 207 -47 102 -41 298 12 402 37 75 109 125 130 91z"/>
<path d="M4091 5386 c-26 -31 -19 -37 166 -156 230 -148 379 -353 445 -617 19
-75 23 -114 22 -258 -1 -156 -3 -180 -31 -286 -39 -148 -105 -312 -165 -412
-175 -291 -470 -460 -883 -507 -55 -6 -122 -19 -148 -28 -48 -16 -48 -16 74
-59 165 -59 208 -62 345 -28 384 95 686 339 855 693 152 316 182 681 84 991
-71 223 -225 426 -424 559 -143 96 -307 148 -340 108z"/>
<path d="M3763 5331 c-41 -11 -83 -38 -83 -54 0 -27 21 -39 106 -61 113 -29
147 -44 236 -102 283 -182 425 -501 362 -812 -19 -95 -70 -206 -120 -261 -66
-74 -303 -238 -470 -325 -39 -20 -81 -46 -93 -57 -30 -28 -27 -57 7 -70 63
-25 241 39 381 138 137 97 164 113 187 113 28 0 32 -26 10 -68 -22 -41 -134
-145 -205 -191 -78 -50 -197 -97 -282 -110 -35 -6 -156 -11 -269 -12 -113 0
-225 -4 -250 -8 -25 -5 -40 -9 -34 -10 6 0 46 -24 89 -52 134 -87 177 -103
275 -102 246 3 514 110 678 272 76 75 107 128 148 254 18 56 51 153 73 215
136 377 74 727 -174 990 -76 81 -301 260 -373 296 -38 20 -152 29 -199 17z"/>
<path d="M3653 4883 c-27 -10 -12 -44 34 -76 107 -74 162 -141 198 -242 32
-88 72 -109 96 -48 50 130 -135 374 -281 372 -19 0 -41 -3 -47 -6z"/>
<path d="M7091 4804 c0 -11 3 -14 6 -6 3 7 2 16 -1 19 -3 4 -6 -2 -5 -13z"/>
<path d="M7011 4476 c-31 -33 -49 -100 -60 -224 -13 -135 -22 -320 -16 -307 3
6 22 119 44 252 22 134 46 256 54 273 18 36 9 39 -22 6z"/>
<path d="M6921 3904 c0 -11 3 -14 6 -6 3 7 2 16 -1 19 -3 4 -6 -2 -5 -13z"/>
<path d="M5322 3114 c-12 -8 -65 -69 -117 -134 -104 -129 -150 -174 -265 -254
-41 -30 -136 -107 -210 -172 -74 -66 -153 -133 -175 -149 -54 -40 -128 -115
-112 -115 6 0 54 7 105 15 138 23 212 64 342 190 108 105 157 139 184 129 28
-11 17 -41 -49 -131 -36 -48 -85 -115 -110 -149 -30 -41 -46 -75 -51 -105 -6
-43 -6 -43 11 -21 9 12 51 46 93 74 152 102 195 160 222 293 6 33 31 96 55
140 23 44 63 118 88 165 61 114 83 183 69 216 -13 28 -46 32 -80 8z"/>
</g>
</svg>
