<?xml version="1.0" standalone="no"?>
<!DOCTYPE svg PUBLIC "-//W3C//DTD SVG 20010904//EN"
 "http://www.w3.org/TR/2001/REC-SVG-20010904/DTD/svg10.dtd">
<svg version="1.0" xmlns="http://www.w3.org/2000/svg"
 width="1000.000000pt" height="1000.000000pt" viewBox="0 0 1000.000000 1000.000000"
 preserveAspectRatio="xMidYMid meet">
<metadata>
  <rdf:RDF
    xmlns:rdf = "http://www.w3.org/1999/02/22-rdf-syntax-ns#"
    xmlns:rdfs = "http://www.w3.org/2000/01/rdf-schema#"
    xmlns:dc = "http://purl.org/dc/elements/1.1/"
    xmlns:cc = "http://creativecommons.org/ns#">
    <cc:license rdf:resource="http://creativecommons.org/publicdomain/zero/1.0/deed.en"/>
    <cc:permits rdf:resource="http://creativecommons.org/ns#Reproduction"/>
    <rdf:Description about="https://nft.mir.one/fingerprints"
      dc:title="TON Fingerprints"
      dc:description="This is a unique digital fingerprint created based on the algorithm for generating basic rings using a noise texture. Like human fingerprints, you can now use it for the Web3 and Metaverse era as digital biometric information."
      dc:publisher="https://nft.mir.one"
      dc:date="2022-02-22"
      dc:format="image/svg+xml"
      dc:language="en" >
      <dc:creator>
      <rdf:Bag>
        <rdf:li>EQBondcvD2_aOFADXSWJHs4ZazQDuEl9_wNvGGPxI8hGuOFU</rdf:li>
        <rdf:li>ipfs://bafkreihj7iub3fhmhq6jn62noukt5wxn3gv6bvcg7wmt6ywvlurefezckq</rdf:li>
      </rdf:Bag>
      </dc:creator>
    </rdf:Description>
  </rdf:RDF>
</metadata>
<g transform="translate(0.000000,1000.000000) scale(0.100000,-0.100000)"
fill="#1b1f23" stroke="none">
<path d="M5045 7750 c-326 -50 -618 -141 -808 -252 -103 -60 -506 -387 -651
-528 -133 -129 -271 -280 -225 -245 100 76 155 119 229 180 47 39 150 117 229
175 79 58 189 138 245 179 274 202 445 277 916 401 107 29 224 60 259 71 35
11 97 20 140 20 70 1 73 2 31 10 -76 13 -239 8 -365 -11z"/>
<path d="M5604 7651 c66 -81 78 -91 84 -72 4 12 -79 103 -121 133 -19 14 -7
-6 37 -61z"/>
<path d="M5096 7545 c-176 -34 -407 -100 -576 -167 -117 -46 -270 -130 -445
-245 -307 -202 -472 -337 -572 -466 -63 -82 -183 -286 -183 -313 0 -53 58 -35
166 49 67 53 74 55 125 55 65 -2 88 9 289 135 599 375 1150 523 1788 478 197
-14 257 -9 307 25 20 13 47 24 60 24 14 0 82 -25 153 -56 70 -31 147 -64 172
-74 44 -17 144 -50 138 -45 -2 1 -111 92 -244 203 -265 220 -340 274 -459 332
-94 45 -97 46 -151 36 -28 -5 -70 -1 -140 14 -129 28 -321 35 -428 15z m687
-179 c88 -24 163 -65 207 -113 38 -41 52 -84 31 -97 -5 -3 -40 6 -77 20 -123
47 -234 65 -439 71 -533 16 -1029 -136 -1554 -474 -108 -70 -250 -175 -319
-237 -57 -50 -72 -51 -72 -7 0 81 192 247 516 447 368 226 680 343 1064 399
131 20 560 13 643 -9z"/>
<path d="M5320 6934 c-277 -19 -523 -68 -796 -159 -217 -73 -389 -155 -619
-298 -44 -27 -145 -84 -225 -127 -175 -93 -321 -182 -372 -228 -42 -38 -92
-131 -83 -155 10 -25 29 -27 95 -6 39 12 75 17 95 13 30 -5 40 1 127 78 230
205 593 433 813 511 83 29 342 96 511 131 261 55 511 74 734 57 415 -31 659
-127 877 -343 92 -90 142 -164 184 -271 31 -78 58 -131 270 -542 128 -249 149
-289 149 -279 0 46 -120 437 -177 578 -71 176 -84 216 -92 299 -8 68 -15 88
-57 158 -66 109 -199 273 -281 348 -103 93 -286 177 -438 201 -129 20 -592 42
-715 34z"/>
<path d="M3319 6683 c-13 -16 -12 -17 4 -4 9 7 17 15 17 17 0 8 -8 3 -21 -13z"/>
<path d="M5285 6604 c-113 -8 -290 -35 -448 -70 -87 -18 -215 -41 -285 -49
-185 -23 -279 -57 -456 -167 -190 -118 -387 -293 -451 -401 -56 -96 -75 -171
-75 -299 0 -83 -11 -185 -37 -360 -37 -236 -38 -251 -38 -517 0 -253 -1 -275
-18 -285 -34 -21 -55 28 -83 194 -25 146 -22 302 8 440 14 63 41 206 59 318
30 185 32 204 17 218 -24 24 -52 9 -80 -44 -32 -60 -53 -145 -73 -302 -18
-139 -32 -195 -52 -212 -30 -25 -38 8 -36 150 3 254 39 383 143 512 58 72 80
114 80 158 0 52 -19 54 -95 7 -98 -60 -141 -99 -175 -158 -51 -89 -62 -167
-58 -403 3 -209 3 -209 40 -289 30 -63 42 -109 59 -215 12 -74 36 -195 54
-270 18 -74 36 -164 39 -199 9 -78 43 -175 107 -303 109 -217 236 -381 395
-508 101 -81 648 -352 835 -414 221 -74 313 -89 534 -90 190 -1 190 -1 330 46
77 25 201 65 275 88 195 61 270 101 270 145 0 38 -44 37 -252 -6 -414 -86
-388 -83 -598 -83 -163 0 -212 4 -297 22 -123 27 -247 69 -368 126 -185 87
-279 164 -353 289 -26 43 -83 125 -127 181 -123 154 -159 205 -236 333 -97
162 -154 217 -173 167 -39 -101 84 -345 286 -572 119 -134 148 -171 148 -193
0 -14 -7 -19 -27 -19 -100 0 -345 255 -454 473 -47 92 -73 195 -64 249 4 22
21 56 41 79 19 23 35 46 36 52 1 7 2 165 3 352 0 320 2 350 28 520 58 377 80
456 170 593 141 216 544 497 667 465 44 -12 19 -39 -96 -108 -261 -157 -447
-349 -534 -553 -131 -308 -167 -914 -71 -1188 61 -173 411 -655 596 -821 168
-151 435 -262 700 -293 174 -19 370 -9 663 35 133 20 246 19 306 -1 29 -10 63
-14 87 -11 97 13 280 162 388 317 146 208 251 503 251 704 0 74 -13 112 -43
130 -30 18 -50 -20 -86 -160 -98 -380 -277 -647 -507 -756 -123 -58 -302 -78
-711 -81 -230 -2 -294 1 -373 16 -318 60 -570 214 -814 497 -291 339 -388 598
-373 990 13 314 89 559 239 762 108 147 439 419 526 433 20 4 106 29 191 56
214 69 346 91 551 92 187 0 307 -17 460 -65 162 -51 330 -148 380 -217 21 -30
21 -30 -1 -52 -29 -29 -69 -22 -239 46 -74 29 -166 62 -205 74 -292 84 -603
75 -824 -25 -60 -28 -93 -53 -179 -137 -325 -318 -445 -488 -508 -722 -27 -98
-27 -361 -1 -455 78 -282 324 -523 537 -524 56 -1 77 5 152 41 199 95 328 202
328 269 0 30 -3 34 -26 34 -15 0 -65 -22 -113 -49 -247 -142 -430 -129 -600
41 -135 135 -193 338 -157 547 34 196 123 352 300 526 216 213 377 294 620
311 286 20 690 -121 1007 -353 159 -116 225 -188 288 -317 61 -124 90 -220
136 -446 41 -202 57 -257 97 -321 50 -82 60 -125 60 -244 0 -121 -15 -207 -63
-357 -39 -124 -149 -349 -224 -458 -53 -78 -95 -129 -269 -328 -39 -44 -71
-93 -82 -123 -23 -64 -62 -110 -132 -158 -164 -111 -376 -175 -502 -151 -54
10 -78 21 -122 53 -24 18 -51 21 -245 28 -248 9 -331 19 -492 59 -166 42 -275
84 -461 176 -345 172 -521 286 -675 439 -134 134 -219 252 -380 529 -32 55
-85 130 -119 166 -34 36 -89 98 -123 139 -35 40 -63 70 -63 68 0 -10 128 -281
250 -532 131 -267 215 -384 400 -550 244 -221 673 -473 977 -574 182 -61 337
-88 622 -111 138 -11 291 -26 339 -34 163 -27 187 -28 254 -12 183 45 477 246
616 419 227 286 428 678 513 1001 66 255 76 423 45 746 -44 451 -108 620 -399
1055 -68 102 -138 219 -160 270 -49 109 -80 156 -143 215 -126 118 -322 199
-567 234 -110 16 -316 26 -412 20z"/>
<path d="M3180 6390 c0 -11 -19 -75 -41 -143 -47 -138 -159 -511 -155 -515 9
-8 89 199 106 272 11 48 36 127 56 174 25 61 38 108 41 159 3 40 3 73 -1 73
-3 0 -6 -9 -6 -20z"/>
<path d="M4569 6123 c-95 -71 -273 -247 -339 -335 -154 -204 -233 -456 -233
-748 -1 -218 34 -366 127 -547 176 -339 572 -658 934 -751 53 -13 112 -17 287
-17 146 -1 241 -5 283 -14 96 -21 277 -10 370 23 251 87 425 305 557 697 49
148 54 186 26 220 -18 23 -19 23 -46 5 -19 -12 -45 -55 -82 -134 -119 -254
-165 -341 -229 -425 -119 -158 -273 -262 -383 -258 -68 2 -131 1 -191 -2 -86
-4 -67 34 142 283 108 128 143 193 167 307 11 48 40 138 65 199 89 218 100
267 100 459 -1 213 -27 375 -76 467 -47 89 -138 166 -272 233 -164 81 -237 98
-426 99 -136 1 -164 -2 -230 -22 -272 -85 -509 -311 -596 -567 -36 -108 -39
-260 -5 -347 67 -172 208 -273 381 -272 84 0 137 15 275 79 102 48 127 73 146
149 24 97 -27 213 -113 255 -51 24 -132 28 -181 7 -38 -16 -84 -67 -93 -103
-15 -60 40 -112 66 -64 15 29 64 28 84 -1 47 -67 -23 -148 -126 -148 -84 0
-118 51 -118 177 0 61 5 89 24 128 58 126 213 201 360 174 153 -27 256 -135
286 -298 20 -111 -11 -239 -101 -411 -53 -103 -118 -169 -260 -262 -132 -87
-164 -117 -154 -147 11 -36 40 -34 142 10 133 59 223 122 324 226 104 108 169
198 213 295 46 100 61 167 60 273 -1 154 -47 271 -148 370 -196 194 -516 191
-722 -6 -70 -68 -107 -130 -130 -220 -18 -69 -15 -120 13 -207 19 -61 11 -78
-29 -63 -37 14 -65 59 -84 132 -65 251 176 568 492 649 285 73 605 -61 719
-301 53 -112 69 -187 69 -319 0 -136 -19 -219 -75 -336 -33 -70 -57 -101 -181
-229 -227 -235 -324 -303 -498 -346 -92 -23 -114 -36 -104 -63 20 -51 160 -66
267 -27 95 33 153 77 323 243 126 123 167 158 188 158 39 0 33 -27 -26 -117
-70 -104 -316 -353 -383 -386 -106 -53 -244 -59 -356 -18 -30 11 -93 49 -141
85 -48 35 -143 94 -212 131 -303 163 -479 378 -557 681 -29 113 -32 345 -6
461 57 253 149 407 396 665 72 76 136 150 142 165 26 70 -33 72 -122 6z"/>
<path d="M2985 5238 c1 -271 3 -304 27 -438 50 -275 124 -450 184 -438 40 7
39 31 -9 184 -42 134 -92 328 -133 519 -9 39 -19 154 -22 258 -6 151 -10 190
-22 197 -8 5 -17 10 -20 10 -3 0 -5 -132 -5 -292z"/>
<path d="M6276 5468 c-20 -28 -20 -67 -2 -155 44 -213 42 -347 -8 -497 -41
-120 -213 -505 -261 -582 -24 -38 -87 -117 -140 -174 -94 -101 -118 -141 -97
-162 26 -26 161 52 260 152 88 87 143 174 256 397 77 153 108 205 157 258 83
92 92 116 92 250 -1 194 -64 404 -148 491 -48 50 -84 58 -109 22z"/>
<path d="M3176 3620 c28 -53 176 -265 243 -347 97 -121 294 -314 421 -412 226
-176 484 -324 677 -390 310 -106 657 -116 1026 -30 73 17 87 24 87 40 0 42
-55 51 -341 60 -285 9 -390 18 -539 51 -332 71 -742 286 -1120 587 -92 74
-361 335 -429 416 -19 22 -30 33 -25 25z"/>
<path d="M6030 3154 c-47 -20 -160 -62 -252 -95 -191 -67 -223 -81 -238 -110
-26 -48 20 -64 138 -48 216 30 492 170 492 249 0 26 -15 40 -43 40 -7 0 -50
-16 -97 -36z"/>
<path d="M3990 2535 c0 -2 26 -22 58 -43 70 -47 82 -54 82 -49 0 2 -31 25 -70
51 -38 25 -70 44 -70 41z"/>
<path d="M5861 2465 c-81 -33 -107 -50 -181 -115 -28 -25 -21 -22 35 13 39 25
107 63 153 86 45 23 82 43 82 46 0 7 6 9 -89 -30z"/>
<path d="M4170 2416 c0 -3 9 -10 20 -16 11 -6 20 -8 20 -6 0 3 -9 10 -20 16
-11 6 -20 8 -20 6z"/>
<path d="M4260 2366 c0 -3 9 -10 20 -16 11 -6 20 -8 20 -6 0 3 -9 10 -20 16
-11 6 -20 8 -20 6z"/>
<path d="M4628 2223 c7 -3 16 -2 19 1 4 3 -2 6 -13 5 -11 0 -14 -3 -6 -6z"/>
<path d="M4678 2213 c6 -2 18 -2 25 0 6 3 1 5 -13 5 -14 0 -19 -2 -12 -5z"/>
<path d="M4738 2203 c6 -2 18 -2 25 0 6 3 1 5 -13 5 -14 0 -19 -2 -12 -5z"/>
<path d="M5243 2203 c9 -2 23 -2 30 0 6 3 -1 5 -18 5 -16 0 -22 -2 -12 -5z"/>
<path d="M4818 2193 c12 -2 32 -2 45 0 12 2 2 4 -23 4 -25 0 -35 -2 -22 -4z"/>
<path d="M5113 2193 c15 -2 39 -2 55 0 15 2 2 4 -28 4 -30 0 -43 -2 -27 -4z"/>
<path d="M4968 2183 c6 -2 18 -2 25 0 6 3 1 5 -13 5 -14 0 -19 -2 -12 -5z"/>
</g>
</svg>
