<?xml version="1.0" standalone="no"?>
<!DOCTYPE svg PUBLIC "-//W3C//DTD SVG 20010904//EN"
 "http://www.w3.org/TR/2001/REC-SVG-20010904/DTD/svg10.dtd">
<svg version="1.0" xmlns="http://www.w3.org/2000/svg"
 width="1000.000000pt" height="1000.000000pt" viewBox="0 0 1000.000000 1000.000000"
 preserveAspectRatio="xMidYMid meet">
<metadata>
  <rdf:RDF
    xmlns:rdf = "http://www.w3.org/1999/02/22-rdf-syntax-ns#"
    xmlns:rdfs = "http://www.w3.org/2000/01/rdf-schema#"
    xmlns:dc = "http://purl.org/dc/elements/1.1/"
    xmlns:cc = "http://creativecommons.org/ns#">
    <cc:license rdf:resource="http://creativecommons.org/publicdomain/zero/1.0/deed.en"/>
    <cc:permits rdf:resource="http://creativecommons.org/ns#Reproduction"/>
    <rdf:Description about="https://nft.mir.one/fingerprints"
      dc:title="TON Fingerprints"
      dc:description="This is a unique digital fingerprint created based on the algorithm for generating basic rings using a noise texture. Like human fingerprints, you can now use it for the Web3 and Metaverse era as digital biometric information."
      dc:publisher="https://nft.mir.one"
      dc:date="2022-02-22"
      dc:format="image/svg+xml"
      dc:language="en" >
      <dc:creator>
      <rdf:Bag>
        <rdf:li>EQBondcvD2_aOFADXSWJHs4ZazQDuEl9_wNvGGPxI8hGuOFU</rdf:li>
        <rdf:li>ipfs://bafkreihj7iub3fhmhq6jn62noukt5wxn3gv6bvcg7wmt6ywvlurefezckq</rdf:li>
      </rdf:Bag>
      </dc:creator>
    </rdf:Description>
  </rdf:RDF>
</metadata>
<g transform="translate(0.000000,1000.000000) scale(0.100000,-0.100000)"
fill="#1b1f23" stroke="none">
<path d="M4713 7759 c31 -18 129 -49 237 -74 459 -106 802 -291 1327 -717 158
-129 214 -191 270 -301 58 -116 132 -197 179 -197 19 0 34 5 34 10 0 6 -6 10
-14 10 -23 0 -63 55 -121 168 -65 128 -147 233 -286 367 -319 307 -665 530
-989 638 -139 47 -224 63 -415 81 -88 9 -178 18 -200 21 -31 4 -36 3 -22 -6z"/>
<path d="M4375 7655 c128 -78 328 -163 573 -241 356 -115 504 -178 637 -272
39 -28 131 -92 205 -143 74 -51 171 -120 215 -154 167 -128 349 -235 402 -235
64 0 47 57 -40 136 -136 125 -621 473 -803 577 -109 63 -262 129 -424 183
-183 62 -561 152 -663 159 -45 3 -95 8 -112 10 -29 5 -29 4 10 -20z"/>
<path d="M4073 7471 c-102 -16 -102 -16 -45 -33 31 -10 98 -27 149 -37 124
-27 185 -55 233 -108 23 -24 53 -49 68 -54 15 -6 106 -28 202 -50 215 -48 467
-114 665 -172 83 -25 165 -48 183 -52 69 -14 11 -65 -75 -65 -26 0 -124 16
-218 36 -612 128 -662 134 -847 115 -68 -7 -229 -17 -358 -21 -280 -8 -314
-17 -523 -138 -88 -50 -88 -50 -50 -56 21 -4 94 0 163 8 299 36 825 55 1025
37 72 -7 236 -30 365 -52 129 -22 296 -44 370 -49 240 -18 317 -29 406 -59 88
-30 111 -46 93 -67 -16 -20 -67 -24 -162 -14 -51 6 -182 14 -292 20 -133 6
-279 21 -436 44 -129 19 -312 40 -405 47 -342 23 -947 -19 -1069 -75 -61 -28
-160 -101 -246 -180 -64 -59 -64 -59 -19 -52 25 4 86 20 135 35 326 104 874
145 1326 101 57 -6 214 -27 348 -46 195 -29 261 -35 325 -30 205 16 278 17
411 7 85 -7 181 -21 236 -35 235 -61 575 -204 634 -266 29 -31 29 -32 10 -46
-27 -20 -60 -12 -265 61 -333 119 -422 144 -645 180 -173 29 -267 32 -285 10
-31 -38 22 -72 174 -114 61 -16 180 -48 264 -70 83 -23 248 -73 365 -111 192
-62 254 -77 460 -110 52 -8 89 -22 208 -79 35 -17 35 -17 -40 105 -41 68 -86
128 -99 136 -13 7 -43 39 -65 72 -96 141 -198 217 -361 267 -55 17 -164 58
-241 92 -135 59 -143 64 -220 144 -74 75 -91 87 -200 138 -158 73 -150 68
-153 99 -2 15 -19 42 -38 61 -68 68 -188 115 -734 285 -91 29 -212 72 -269 97
-155 67 -256 77 -458 44z"/>
<path d="M3930 7261 c-58 -16 -141 -42 -185 -58 -81 -29 -81 -29 -20 -39 33
-5 179 -10 325 -9 227 0 270 2 303 17 46 21 50 51 9 72 -41 21 -184 46 -261
46 -40 -1 -108 -12 -171 -29z"/>
<path d="M4060 6459 c-233 -17 -466 -56 -626 -104 -96 -29 -160 -73 -282 -194
-83 -82 -83 -82 -45 -75 21 3 94 26 163 51 368 132 797 189 1232 164 371 -21
594 -64 923 -179 110 -39 358 -122 550 -185 667 -218 769 -265 937 -424 69
-66 81 -73 115 -72 21 1 31 3 21 6 -9 2 -33 36 -53 76 -105 202 -155 266 -238
309 -60 31 -361 130 -797 264 -118 36 -258 79 -310 95 -52 16 -149 56 -215 89
-130 65 -230 95 -435 129 -284 48 -682 69 -940 50z"/>
<path d="M4078 6169 c-259 -17 -498 -63 -733 -139 -130 -43 -130 -43 -249
-160 -120 -117 -120 -117 -75 -110 24 4 97 28 162 54 348 136 691 199 1097
199 476 1 736 -48 1350 -253 439 -146 671 -233 791 -296 81 -43 96 -55 122
-99 41 -71 60 -90 162 -158 129 -86 184 -136 251 -224 75 -100 137 -170 131
-146 -3 10 -20 72 -37 138 -39 147 -103 287 -153 335 -24 23 -37 43 -37 61 0
37 -37 87 -93 127 -75 54 -452 196 -1025 387 -574 192 -661 216 -927 254 -246
36 -501 46 -737 30z m2678 -778 c84 -40 98 -53 68 -65 -35 -14 -90 -4 -151 26
-69 34 -78 42 -69 63 9 26 65 17 152 -24z"/>
<path d="M4058 5879 c-249 -17 -493 -64 -733 -143 -77 -25 -161 -59 -187 -75
-41 -26 -120 -112 -180 -194 -20 -28 -20 -28 9 -21 15 3 80 28 143 55 521 220
1106 280 1725 178 307 -51 736 -187 1076 -340 98 -44 117 -49 191 -52 71 -2
92 -7 144 -36 86 -46 207 -145 309 -253 229 -243 334 -507 335 -843 0 -83 4
-110 25 -160 13 -33 25 -52 25 -43 0 9 7 95 16 190 26 278 4 540 -56 659 -55
108 -153 217 -367 407 -171 151 -206 171 -473 265 -102 36 -280 99 -396 141
-474 169 -796 241 -1184 266 -182 11 -249 11 -422 -1z"/>
<path d="M4023 5590 c-249 -17 -469 -59 -683 -130 -244 -81 -268 -97 -367
-243 -63 -93 -68 -101 -57 -95 132 70 344 165 427 192 252 82 521 119 862 119
441 1 786 -59 1148 -197 480 -183 451 -170 565 -256 159 -119 340 -315 397
-428 37 -73 30 -153 -9 -105 -8 10 -43 54 -77 98 -125 158 -350 358 -464 411
-52 25 -114 31 -144 15 -14 -8 -56 9 -182 73 -250 126 -471 191 -794 233 -113
14 -207 18 -485 18 -305 -1 -361 -3 -486 -23 -211 -33 -425 -98 -557 -170 -56
-30 -127 -127 -127 -173 0 -29 13 -38 25 -19 12 20 163 89 280 130 237 81 463
106 885 97 365 -8 653 -40 832 -92 203 -58 344 -137 495 -276 54 -50 143 -122
198 -160 55 -39 163 -123 240 -187 76 -64 166 -140 200 -168 91 -76 85 -130
-10 -84 -62 30 -143 91 -261 196 -117 103 -169 138 -238 158 -40 12 -76 37
-160 111 -132 116 -214 171 -340 231 -145 69 -245 90 -486 104 -112 6 -208 14
-213 17 -5 3 -190 9 -413 14 -453 10 -480 7 -684 -56 -63 -20 -151 -47 -194
-60 -118 -37 -146 -54 -188 -115 -38 -55 -38 -55 -8 -58 33 -4 155 28 364 94
172 54 328 87 380 81 45 -6 76 -31 59 -48 -6 -6 -89 -34 -184 -63 -176 -53
-408 -135 -457 -160 -37 -19 -66 -61 -116 -169 -43 -94 -43 -94 8 -67 28 15
88 50 134 78 88 54 232 117 427 189 66 24 149 60 185 80 36 20 85 46 110 59
115 60 487 53 696 -13 33 -10 75 -34 106 -60 68 -59 114 -89 238 -157 194
-107 297 -183 447 -328 139 -136 175 -159 189 -123 11 28 -6 64 -79 162 -133
178 -281 297 -502 405 -60 30 -128 61 -150 70 -22 9 -49 23 -60 32 -19 14 -19
16 -3 32 73 74 441 -89 634 -281 108 -107 233 -322 234 -401 0 -43 37 -90 183
-235 125 -124 125 -124 120 -171 -3 -25 0 -62 6 -81 17 -51 87 -127 117 -127
58 0 32 96 -51 188 -38 43 -45 56 -34 63 64 41 187 -58 235 -190 68 -188 211
-532 233 -561 26 -35 26 -35 29 0 1 19 9 81 17 136 22 149 19 211 -11 296 -33
90 -93 213 -133 271 -44 65 -143 151 -219 193 -118 64 -226 141 -288 206 -60
63 -168 209 -198 267 -19 35 -21 81 -4 81 6 0 86 -73 177 -162 185 -182 232
-214 383 -264 116 -39 153 -60 221 -130 88 -90 181 -266 231 -436 9 -32 27
-73 40 -92 23 -34 23 -34 40 102 9 76 17 192 17 260 1 110 -2 132 -28 205 -26
76 -34 88 -110 162 -88 86 -83 76 -103 231 -22 173 -70 295 -165 419 -76 100
-378 395 -453 443 -132 85 -523 229 -816 302 -329 81 -683 112 -1023 90z
m1705 -732 c145 -111 204 -161 365 -311 83 -78 155 -136 182 -148 50 -22 90
-73 101 -127 8 -38 -11 -50 -47 -31 -25 13 -147 115 -329 274 -63 56 -160 138
-216 182 -133 107 -184 165 -184 209 0 19 5 34 10 34 6 0 59 -37 118 -82z"/>
<path d="M6063 5204 c-11 -29 17 -65 138 -182 237 -229 321 -364 387 -628 53
-208 87 -259 138 -203 16 18 19 35 18 113 -4 255 -173 560 -433 780 -136 115
-232 161 -248 120z"/>
<path d="M4040 4683 c-192 -22 -686 -219 -851 -339 -54 -40 -86 -101 -122
-242 -24 -94 -24 -94 72 5 150 153 326 258 576 341 169 57 276 75 425 75 148
-1 264 -24 403 -79 147 -59 439 -208 604 -310 200 -124 233 -136 233 -89 0 50
-150 183 -340 302 -111 70 -366 209 -471 257 -148 68 -356 99 -529 79z"/>
<path d="M3914 4384 c-216 -36 -447 -140 -623 -280 -60 -48 -78 -69 -106 -129
-32 -67 -43 -105 -30 -105 16 0 86 43 239 148 241 164 350 209 566 233 228 26
440 -23 689 -160 113 -62 133 -69 195 -74 62 -4 85 -14 270 -107 263 -134 322
-173 436 -289 101 -102 281 -321 356 -433 61 -92 134 -233 179 -348 21 -52 50
-112 65 -133 27 -37 27 -37 55 65 20 71 29 128 29 183 1 79 0 82 -57 193 -78
150 -131 219 -210 275 -66 48 -108 96 -207 240 -64 94 -193 218 -281 269 -59
35 -68 38 -138 36 -74 -1 -76 -1 -215 72 -190 98 -561 265 -666 301 -172 57
-369 73 -546 43z"/>
<path d="M3925 4140 c-176 -20 -318 -75 -363 -141 -22 -32 -51 -52 -152 -103
-132 -68 -169 -99 -219 -183 -30 -52 -30 -52 2 -46 18 3 68 21 112 38 156 64
209 75 395 86 289 17 426 -1 708 -95 181 -60 235 -89 352 -188 223 -190 404
-499 465 -792 21 -102 19 -208 -5 -297 -22 -81 -36 -139 -48 -197 -8 -37 -8
-37 34 3 23 23 84 69 135 102 180 117 199 150 167 290 -79 358 -267 677 -551
935 -213 194 -261 245 -296 313 -61 117 -162 189 -334 239 -81 24 -245 48
-304 45 -15 -1 -59 -5 -98 -9z m195 -130 c47 -6 118 -20 159 -31 135 -36 281
-117 281 -155 0 -29 -51 -27 -163 9 -251 80 -356 93 -592 76 -166 -11 -215 -6
-215 25 0 8 15 19 33 25 169 53 336 70 497 51z"/>
<path d="M4790 3921 c0 -15 10 -43 23 -61 22 -33 51 -60 286 -258 210 -178
356 -365 475 -607 84 -170 113 -248 156 -413 17 -64 37 -123 45 -132 8 -8 18
-27 24 -40 7 -18 10 -20 10 -7 1 10 16 48 35 85 52 104 79 197 74 251 -10 106
-146 366 -296 569 -174 232 -304 346 -648 562 -142 89 -184 101 -184 51z"/>
<path d="M3695 3694 c-200 -29 -302 -61 -345 -110 -29 -34 -85 -143 -76 -151
4 -4 48 11 168 61 162 68 222 79 418 80 163 1 180 -1 245 -24 108 -39 377
-204 451 -277 77 -75 116 -148 112 -206 -3 -38 -6 -42 -29 -42 -19 0 -38 14
-73 55 -64 75 -138 134 -221 176 -70 36 -70 36 -195 29 -241 -12 -348 -25
-427 -50 -111 -35 -140 -68 -168 -197 -12 -56 -12 -56 61 -1 99 74 151 92 298
103 144 10 257 -1 339 -31 32 -12 109 -57 170 -100 62 -43 129 -89 149 -103
52 -35 72 -78 72 -156 0 -79 -33 -152 -124 -275 -32 -44 -71 -102 -87 -130
-29 -50 -29 -50 70 -18 124 40 158 61 230 136 55 58 58 59 76 42 26 -23 34
-63 23 -111 -11 -45 -39 -150 -48 -177 -12 -38 161 89 219 161 25 32 27 42 27
125 0 169 -80 472 -171 647 -91 175 -231 310 -414 400 -226 110 -341 140 -560
145 -88 2 -173 1 -190 -1z"/>
<path d="M3795 3478 c-86 -7 -229 -44 -287 -74 -33 -17 -64 -67 -93 -149 -22
-63 -22 -63 14 -47 20 9 43 22 51 28 35 29 166 86 238 105 57 16 119 22 237
26 189 5 205 7 205 32 0 61 -163 97 -365 79z"/>
<path d="M3772 3027 c-42 -20 -62 -76 -62 -174 0 -88 0 -88 23 -33 20 48 41
83 106 171 11 15 11 22 1 34 -14 17 -36 18 -68 2z"/>
<path d="M3970 3008 c-19 -8 -48 -31 -67 -56 -51 -67 -56 -139 -12 -183 27
-27 45 -19 42 19 -4 39 26 62 80 62 98 0 160 -117 110 -207 -22 -38 -74 -97
-99 -111 -27 -15 59 -26 158 -19 151 10 208 61 208 188 0 81 -31 149 -96 209
-90 83 -240 128 -324 98z"/>
</g>
</svg>
