<?xml version="1.0" standalone="no"?>
<!DOCTYPE svg PUBLIC "-//W3C//DTD SVG 20010904//EN"
 "http://www.w3.org/TR/2001/REC-SVG-20010904/DTD/svg10.dtd">
<svg version="1.0" xmlns="http://www.w3.org/2000/svg"
 width="1000.000000pt" height="1000.000000pt" viewBox="0 0 1000.000000 1000.000000"
 preserveAspectRatio="xMidYMid meet">
<metadata>
  <rdf:RDF
    xmlns:rdf = "http://www.w3.org/1999/02/22-rdf-syntax-ns#"
    xmlns:rdfs = "http://www.w3.org/2000/01/rdf-schema#"
    xmlns:dc = "http://purl.org/dc/elements/1.1/"
    xmlns:cc = "http://creativecommons.org/ns#">
    <cc:license rdf:resource="http://creativecommons.org/publicdomain/zero/1.0/deed.en"/>
    <cc:permits rdf:resource="http://creativecommons.org/ns#Reproduction"/>
    <rdf:Description about="https://nft.mir.one/fingerprints"
      dc:title="TON Fingerprints"
      dc:description="This is a unique digital fingerprint created based on the algorithm for generating basic rings using a noise texture. Like human fingerprints, you can now use it for the Web3 and Metaverse era as digital biometric information."
      dc:publisher="https://nft.mir.one"
      dc:date="2022-02-22"
      dc:format="image/svg+xml"
      dc:language="en" >
      <dc:creator>
      <rdf:Bag>
        <rdf:li>EQBondcvD2_aOFADXSWJHs4ZazQDuEl9_wNvGGPxI8hGuOFU</rdf:li>
        <rdf:li>ipfs://bafkreihj7iub3fhmhq6jn62noukt5wxn3gv6bvcg7wmt6ywvlurefezckq</rdf:li>
      </rdf:Bag>
      </dc:creator>
    </rdf:Description>
  </rdf:RDF>
</metadata>
<g transform="translate(0.000000,1000.000000) scale(0.100000,-0.100000)"
fill="#1b1f23" stroke="none">
<path d="M4575 7684 c-16 -2 -93 -14 -169 -26 -169 -27 -157 -33 89 -48 222
-13 381 -33 592 -75 387 -77 575 -168 925 -450 175 -140 193 -158 184 -181
-17 -45 -174 28 -586 272 -101 59 -237 124 -327 153 -256 85 -715 153 -887
131 -149 -19 -337 -80 -466 -152 -60 -33 -329 -220 -329 -228 -1 -4 15 -12 34
-19 34 -12 38 -11 102 29 190 120 358 177 590 200 150 15 287 1 566 -56 335
-69 468 -113 530 -171 29 -29 36 -70 12 -79 -8 -3 -144 15 -302 41 -234 39
-309 55 -403 88 -115 41 -115 41 -285 41 -194 1 -288 -17 -420 -78 -94 -43
-151 -97 -201 -187 -33 -61 -63 -95 -195 -215 -168 -155 -211 -202 -283 -309
-166 -248 -380 -800 -352 -910 9 -36 36 -32 36 5 0 41 42 147 104 265 82 155
285 494 331 555 106 139 305 294 440 345 36 14 213 55 393 90 180 36 360 75
400 86 109 30 200 37 367 27 199 -11 276 -1 378 52 61 31 90 40 128 40 121 0
288 -53 493 -158 82 -41 125 -71 170 -116 68 -67 216 -269 351 -476 49 -74
119 -178 156 -230 100 -141 125 -211 168 -470 34 -209 64 -280 118 -280 20 0
23 3 15 13 -6 7 -22 104 -36 216 -25 197 -62 389 -91 472 -8 22 -33 62 -56 87
-28 31 -76 118 -144 257 -132 272 -221 413 -373 590 -31 36 -58 80 -68 110
-26 79 -50 112 -184 248 -147 152 -215 208 -341 282 -244 144 -538 213 -939
220 -113 2 -218 1 -235 -1z m69 -686 c15 -6 25 -18 24 -27 -6 -30 -65 -50
-223 -76 -88 -14 -218 -39 -288 -55 -170 -40 -227 -39 -227 1 0 56 242 143
474 169 87 10 205 5 240 -12z"/>
<path d="M6130 7355 c0 -3 53 -61 118 -128 65 -67 174 -196 242 -287 140 -188
181 -235 95 -110 -114 166 -212 286 -332 408 -68 68 -123 121 -123 117z"/>
<path d="M3605 6982 c-6 -4 -15 -18 -22 -33 -6 -14 -52 -74 -103 -135 -51 -60
-134 -163 -184 -229 -90 -120 -90 -120 -16 -55 170 149 321 305 347 357 34 70
21 126 -22 95z"/>
<path d="M5672 6758 c-79 -22 -48 -60 123 -148 66 -34 167 -89 225 -121 58
-32 119 -59 135 -61 28 -3 30 -1 33 36 3 36 -1 43 -60 100 -45 44 -92 77 -163
113 -146 74 -233 98 -293 81z"/>
<path d="M5424 6683 c-12 -2 -30 -13 -40 -24 -17 -19 -17 -23 -3 -47 15 -28
140 -125 359 -279 169 -120 217 -143 294 -143 91 0 151 -33 256 -138 144 -146
287 -382 298 -493 4 -47 3 -49 -20 -49 -34 0 -70 42 -176 202 -152 227 -288
374 -369 397 -40 11 -53 4 -53 -33 0 -36 25 -79 127 -217 38 -52 110 -155 160
-229 50 -74 125 -180 167 -235 89 -116 127 -200 163 -359 42 -182 34 -413 -22
-636 -8 -30 -25 -119 -38 -197 -28 -161 -60 -240 -150 -365 -29 -41 -86 -123
-126 -181 -40 -59 -99 -130 -130 -158 -174 -156 -514 -292 -808 -325 -57 -6
-63 -5 -63 11 0 35 34 56 149 91 297 91 443 153 576 245 113 78 171 153 144
185 -20 24 -43 16 -155 -52 -149 -91 -304 -164 -464 -219 -227 -78 -336 -105
-416 -105 -90 0 -416 67 -563 116 -322 107 -530 283 -712 603 -34 61 -95 151
-135 200 -80 97 -230 330 -258 401 -27 66 -33 216 -12 319 77 378 413 746 800
876 44 15 97 25 130 25 110 0 80 -39 -93 -121 -299 -142 -494 -326 -617 -584
-61 -128 -82 -206 -91 -327 -7 -103 8 -172 43 -195 54 -35 76 1 120 202 52
239 127 385 280 545 93 98 191 167 384 273 202 112 261 125 415 92 200 -43
443 -231 433 -336 -2 -22 -9 -35 -20 -37 -9 -2 -90 43 -179 99 -89 56 -183
110 -208 119 -149 56 -321 15 -531 -125 -259 -172 -392 -384 -449 -719 -37
-209 -29 -281 47 -446 16 -36 37 -103 46 -150 26 -129 74 -218 170 -315 45
-45 109 -101 143 -123 186 -125 430 -201 610 -190 61 3 73 8 121 44 72 55 285
142 392 161 96 17 169 45 285 110 209 119 356 234 539 424 92 95 123 134 150
192 51 108 70 208 70 362 -2 314 -73 464 -573 1220 -41 62 -124 140 -282 266
-80 64 -178 153 -219 197 -79 88 -103 102 -221 126 -179 36 -340 31 -668 -25
-337 -56 -496 -107 -649 -209 -172 -113 -258 -212 -286 -327 -14 -58 -31 -87
-105 -188 -49 -67 -123 -177 -166 -245 -106 -170 -135 -210 -167 -226 -31 -16
-48 -64 -72 -206 -78 -449 1 -1033 172 -1286 22 -31 67 -104 101 -162 88 -147
134 -205 189 -236 26 -15 74 -44 107 -65 78 -49 126 -69 169 -69 34 0 67 -19
200 -117 177 -130 418 -246 651 -312 193 -54 660 -131 801 -131 172 0 368 50
611 156 142 62 212 84 263 84 91 0 245 172 456 506 56 90 120 184 142 211 23
26 57 83 77 125 37 82 47 117 15 56 -11 -20 -34 -47 -52 -60 -64 -47 -206
-196 -288 -303 -106 -138 -227 -264 -307 -322 -69 -49 -231 -128 -403 -196
-269 -107 -448 -136 -630 -103 -41 8 -156 28 -255 45 -99 18 -229 44 -290 58
-348 82 -675 254 -817 430 -280 348 -387 512 -388 590 0 41 14 49 48 27 34
-22 35 -23 135 -169 236 -345 384 -487 637 -609 189 -92 494 -172 754 -197
108 -10 123 -14 163 -43 41 -28 52 -31 138 -34 164 -6 352 46 601 168 213 104
327 203 508 444 179 239 240 350 300 547 44 146 71 290 86 449 17 188 3 295
-62 468 -50 134 -75 242 -82 363 -11 167 -43 253 -173 449 -117 176 -260 337
-339 378 -12 6 -55 11 -95 11 -57 -1 -90 5 -143 25 -102 39 -303 161 -371 227
-78 75 -112 88 -191 72z m-439 -252 c115 -31 227 -91 372 -200 147 -110 294
-254 375 -367 213 -298 353 -592 388 -817 35 -217 -24 -524 -137 -711 -48 -79
-195 -226 -303 -302 -149 -105 -330 -215 -348 -212 -23 5 -19 50 8 89 12 16
93 83 179 147 247 184 367 320 359 409 -3 35 -6 38 -35 41 -28 3 -45 -10 -163
-123 -147 -139 -272 -237 -371 -289 -99 -53 -370 -117 -519 -123 -190 -8 -290
19 -544 147 -131 67 -172 92 -174 108 -3 16 3 23 24 28 37 9 93 -7 215 -61
273 -123 443 -141 704 -75 206 52 332 127 550 330 61 56 145 127 188 157 82
59 111 96 143 193 28 81 26 305 -4 413 -139 508 -547 951 -978 1063 -81 21
-130 27 -269 31 -320 10 -553 -44 -810 -188 -163 -91 -200 -109 -229 -109 -51
0 -44 29 22 91 256 241 632 363 1092 355 150 -3 200 -8 265 -25z m-249 -316
c178 -30 302 -79 441 -171 235 -157 427 -441 484 -719 44 -214 10 -357 -133
-546 -304 -404 -689 -549 -1073 -404 -37 14 -121 53 -187 87 -200 103 -253
183 -253 378 1 125 19 203 74 315 49 99 115 181 206 258 74 62 216 137 297
156 93 22 209 9 222 -25 8 -21 -28 -39 -124 -64 -145 -38 -242 -92 -341 -190
-136 -134 -186 -256 -177 -430 6 -108 31 -164 113 -246 46 -47 83 -72 155
-107 152 -72 264 -90 401 -63 135 27 237 82 339 185 52 52 103 116 130 161 23
41 65 110 92 152 86 133 104 231 72 386 -63 306 -232 528 -497 652 -107 50
-210 75 -412 97 -237 27 -328 23 -445 -16 -52 -18 -137 -55 -189 -82 -207
-111 -332 -215 -460 -385 -201 -268 -273 -454 -274 -709 -1 -145 18 -247 77
-428 24 -73 60 -184 79 -247 53 -169 106 -254 301 -475 79 -90 112 -145 102
-171 -3 -8 -11 -14 -19 -14 -19 0 -248 205 -304 273 -78 94 -209 286 -257 377
-53 101 -99 229 -121 337 -53 253 -30 572 55 760 38 84 288 429 384 530 91 96
152 137 371 248 250 127 352 153 611 154 112 1 202 -4 260 -14z m376 -854 c37
-12 81 -34 99 -48 62 -53 108 -193 83 -257 -13 -34 -52 -17 -116 49 -110 115
-238 160 -377 135 -87 -16 -161 -50 -216 -101 -69 -64 -97 -118 -102 -197 -4
-59 -1 -74 24 -122 41 -81 93 -114 186 -118 63 -3 77 -1 107 20 84 57 101 136
40 191 -54 48 -110 31 -110 -33 0 -38 -2 -40 -29 -40 -44 0 -74 43 -68 94 15
107 146 169 271 127 51 -17 114 -76 137 -126 51 -112 -17 -249 -161 -321 -70
-36 -198 -45 -281 -21 -169 50 -281 218 -251 380 17 90 57 164 126 232 82 80
196 137 361 179 45 11 212 -2 277 -23z m-955 -1201 c182 -153 377 -231 577
-232 117 0 193 14 330 63 127 44 156 48 156 20 0 -52 -95 -115 -260 -172 -86
-29 -106 -33 -215 -33 -96 -1 -136 4 -199 22 -217 62 -431 211 -487 337 -20
45 -19 65 4 65 7 0 49 -32 94 -70z"/>
<path d="M6841 6324 c0 -11 3 -14 6 -6 3 7 2 16 -1 19 -3 4 -6 -2 -5 -13z"/>
<path d="M6851 6284 c0 -11 3 -14 6 -6 3 7 2 16 -1 19 -3 4 -6 -2 -5 -13z"/>
<path d="M6860 6255 c0 -5 5 -17 10 -25 5 -8 10 -10 10 -5 0 6 -5 17 -10 25
-5 8 -10 11 -10 5z"/>
<path d="M6911 6104 c0 -11 3 -14 6 -6 3 7 2 16 -1 19 -3 4 -6 -2 -5 -13z"/>
<path d="M6921 6063 c0 -12 -4 -30 -7 -40 -5 -17 -5 -17 6 0 6 10 9 28 7 40
-4 22 -4 22 -6 0z"/>
<path d="M6263 4168 c-22 -18 -55 -49 -72 -69 -79 -93 -287 -231 -522 -350
-137 -68 -190 -88 -437 -159 -237 -69 -254 -76 -250 -104 16 -109 408 -17 818
191 136 70 227 110 272 120 52 12 78 24 113 55 93 82 186 227 188 294 2 62
-48 72 -110 22z"/>
<path d="M3400 3428 c0 -40 150 -206 279 -310 103 -82 317 -222 436 -284 220
-114 461 -176 838 -215 214 -21 267 -35 267 -68 0 -31 -35 -36 -265 -35 -227
0 -309 10 -525 64 -228 58 -362 112 -460 187 -57 44 -145 105 -395 278 -38 26
-99 76 -134 109 -65 61 -65 61 -24 11 61 -75 244 -249 365 -347 58 -48 126
-108 149 -133 92 -100 460 -240 754 -286 109 -18 375 -17 445 0 57 14 93 30
171 75 26 14 116 46 202 71 182 51 346 117 472 187 195 109 331 235 285 263
-6 4 -92 -34 -193 -83 -208 -103 -369 -162 -522 -191 -132 -26 -202 -26 -341
-1 -60 10 -174 29 -254 40 -483 70 -708 154 -1096 406 -93 61 -203 132 -244
158 -41 25 -97 62 -124 81 -49 36 -86 45 -86 23z"/>
<path d="M6117 2649 c-110 -58 -846 -343 -967 -375 -112 -29 -286 -45 -425
-39 -90 4 -94 3 -45 -6 96 -18 373 -15 485 5 175 31 439 128 677 247 103 52
318 176 318 184 0 7 0 7 -43 -16z"/>
<path d="M4578 2243 c6 -2 18 -2 25 0 6 3 1 5 -13 5 -14 0 -19 -2 -12 -5z"/>
</g>
</svg>
