<?xml version="1.0" standalone="no"?>
<!DOCTYPE svg PUBLIC "-//W3C//DTD SVG 20010904//EN"
 "http://www.w3.org/TR/2001/REC-SVG-20010904/DTD/svg10.dtd">
<svg version="1.0" xmlns="http://www.w3.org/2000/svg"
 width="1000.000000pt" height="1000.000000pt" viewBox="0 0 1000.000000 1000.000000"
 preserveAspectRatio="xMidYMid meet">
<metadata>
  <rdf:RDF
    xmlns:rdf = "http://www.w3.org/1999/02/22-rdf-syntax-ns#"
    xmlns:rdfs = "http://www.w3.org/2000/01/rdf-schema#"
    xmlns:dc = "http://purl.org/dc/elements/1.1/"
    xmlns:cc = "http://creativecommons.org/ns#">
    <cc:license rdf:resource="http://creativecommons.org/publicdomain/zero/1.0/deed.en"/>
    <cc:permits rdf:resource="http://creativecommons.org/ns#Reproduction"/>
    <rdf:Description about="https://nft.mir.one/fingerprints"
      dc:title="TON Fingerprints"
      dc:description="This is a unique digital fingerprint created based on the algorithm for generating basic rings using a noise texture. Like human fingerprints, you can now use it for the Web3 and Metaverse era as digital biometric information."
      dc:publisher="https://nft.mir.one"
      dc:date="2022-02-22"
      dc:format="image/svg+xml"
      dc:language="en" >
      <dc:creator>
      <rdf:Bag>
        <rdf:li>EQBondcvD2_aOFADXSWJHs4ZazQDuEl9_wNvGGPxI8hGuOFU</rdf:li>
        <rdf:li>ipfs://bafkreihj7iub3fhmhq6jn62noukt5wxn3gv6bvcg7wmt6ywvlurefezckq</rdf:li>
      </rdf:Bag>
      </dc:creator>
    </rdf:Description>
  </rdf:RDF>
</metadata>
<g transform="translate(0.000000,1000.000000) scale(0.100000,-0.100000)"
fill="#1b1f23" stroke="none">
<path d="M4890 7787 c36 -13 83 -33 105 -44 47 -24 161 -62 390 -128 88 -26
230 -68 315 -95 160 -51 329 -94 336 -87 9 8 -357 158 -501 206 -144 47 -571
154 -665 166 -44 6 -43 6 20 -18z"/>
<path d="M4560 7595 c-137 -22 -325 -70 -480 -124 -162 -55 -159 -56 95 -23
94 12 203 17 395 17 265 -1 265 -1 440 -37 497 -105 1116 -324 1367 -484 29
-19 81 -48 115 -65 35 -17 79 -43 98 -57 37 -27 -105 110 -205 198 -170 148
-430 288 -719 384 -159 53 -453 137 -602 172 -136 32 -371 41 -504 19z"/>
<path d="M4150 7335 c-135 -27 -329 -104 -365 -145 -20 -22 -20 -22 10 -16
104 22 317 46 412 46 104 0 314 -19 598 -56 396 -50 903 -201 1220 -363 179
-91 381 -227 483 -325 94 -90 197 -222 298 -384 97 -155 188 -291 191 -288 2
2 -20 59 -48 127 -172 420 -378 719 -599 869 -359 243 -1124 492 -1660 540
-157 14 -460 11 -540 -5z"/>
<path d="M4010 7119 c-231 -19 -292 -33 -395 -85 -52 -27 -92 -50 -90 -53 3
-2 73 1 157 7 295 22 594 35 631 28 75 -14 32 -61 -73 -80 -19 -3 -152 -17
-296 -30 -299 -28 -317 -33 -499 -142 -110 -66 -110 -66 -30 -61 44 3 139 17
210 31 72 13 240 39 375 56 135 17 302 44 371 60 97 23 150 30 230 30 219 0
549 -68 1008 -206 262 -79 454 -201 568 -361 59 -83 102 -119 152 -127 35 -5
49 -16 97 -74 101 -122 215 -304 305 -487 97 -198 140 -314 199 -538 60 -225
90 -267 90 -124 -1 246 -99 638 -218 871 -67 133 -315 507 -368 558 -22 20
-77 59 -124 86 -47 27 -130 79 -185 116 -349 233 -955 412 -1570 462 -44 3
-119 19 -166 35 -103 34 -212 42 -379 28z m2329 -783 c25 -26 34 -44 35 -72 2
-55 -18 -52 -58 8 -59 87 -42 132 23 64z"/>
<path d="M4315 6730 c-77 -11 -220 -31 -317 -45 -97 -14 -248 -39 -335 -56
-210 -42 -251 -62 -451 -225 -50 -41 -50 -41 -4 -37 26 3 133 29 237 59 258
72 383 101 560 129 379 59 573 59 831 1 386 -87 525 -138 622 -229 31 -29 97
-86 145 -126 134 -111 190 -174 241 -269 26 -48 80 -130 122 -182 234 -296
367 -546 501 -943 38 -113 87 -235 123 -305 47 -91 62 -133 70 -187 20 -144 9
-446 -26 -695 -21 -153 -97 -439 -153 -580 -37 -92 -6 -43 72 115 126 251 199
458 261 736 52 233 119 681 120 799 0 90 -2 100 -41 185 -22 50 -58 142 -78
205 -111 340 -243 611 -403 826 -64 87 -405 429 -493 495 -99 74 -222 128
-343 149 -60 11 -189 42 -285 69 -336 94 -483 121 -686 126 -113 3 -185 -1
-290 -15z m1371 -339 c110 -55 228 -154 367 -306 328 -358 490 -644 668 -1176
68 -205 76 -325 23 -346 -29 -11 -49 29 -114 229 -79 245 -143 405 -237 589
-90 178 -167 295 -338 516 -154 198 -244 292 -380 394 -113 86 -130 103 -121
124 9 25 49 17 132 -24z"/>
<path d="M4275 6479 c-138 -10 -336 -41 -444 -69 -131 -33 -494 -160 -533
-185 -60 -40 -107 -85 -177 -170 -103 -125 -98 -114 -54 -105 21 5 76 27 123
49 86 39 165 68 320 116 52 16 110 43 150 70 81 55 142 81 246 106 200 47 526
71 703 51 106 -13 147 -32 131 -61 -16 -31 -66 -41 -209 -41 -312 0 -652 -45
-763 -101 -45 -23 -52 -61 -16 -80 27 -14 168 -7 328 17 80 12 176 17 315 17
205 -1 315 -12 367 -39 112 -58 533 -414 691 -584 100 -108 186 -234 247 -363
70 -147 88 -223 100 -417 5 -91 12 -192 15 -225 9 -93 -12 -266 -45 -370 -35
-108 -95 -212 -210 -361 -182 -237 -327 -390 -470 -496 -103 -77 -189 -122
-295 -153 -49 -15 -119 -36 -155 -47 -36 -10 -113 -44 -172 -73 -176 -90 -337
-134 -563 -154 -60 -5 -128 -15 -149 -21 -40 -12 -40 -12 49 -41 183 -59 323
-63 475 -14 47 15 161 58 253 96 185 77 253 92 277 64 13 -16 11 -21 -25 -51
-90 -79 -360 -195 -579 -250 -131 -33 -190 -54 -178 -66 16 -16 358 -22 423
-9 75 16 279 118 352 176 32 25 81 77 108 115 36 49 92 102 193 184 194 156
346 309 508 512 131 164 170 205 268 277 53 39 99 123 127 231 14 56 18 108
17 241 0 170 0 170 -42 298 -41 126 -48 160 -36 191 10 26 42 18 59 -15 27
-52 85 -109 111 -109 28 0 29 9 9 77 -10 35 -33 70 -72 114 -40 45 -74 100
-116 189 -172 357 -258 467 -580 738 -86 74 -172 152 -190 174 -85 106 -92
112 -194 160 -81 38 -103 53 -103 69 0 22 51 49 95 49 41 0 307 -57 356 -76
64 -26 140 -72 259 -158 106 -77 137 -93 165 -82 43 16 -9 92 -135 196 -146
122 -271 197 -396 240 -32 11 -122 34 -200 50 -79 16 -180 45 -226 64 -134 56
-289 72 -513 55z"/>
<path d="M5213 6033 c-23 -9 -13 -39 25 -75 20 -19 120 -97 222 -173 221 -166
323 -266 424 -417 79 -119 259 -456 295 -552 25 -68 27 -147 5 -182 -18 -27
-17 -44 16 -194 27 -124 36 -349 21 -495 -19 -169 -28 -200 -74 -253 -50 -58
-69 -100 -101 -226 -33 -127 -34 -186 -2 -223 24 -27 24 -27 55 22 35 56 73
167 99 295 18 89 34 107 66 75 28 -29 39 -91 27 -161 -26 -146 -96 -255 -174
-269 -51 -10 -60 -30 -67 -156 -6 -90 -11 -116 -39 -174 -51 -109 -163 -257
-311 -406 -36 -37 -96 -100 -135 -140 -70 -73 -70 -73 45 5 300 206 435 343
616 629 151 237 211 376 233 543 6 43 12 221 13 394 1 359 1 358 -87 711 -68
269 -87 324 -185 524 -170 346 -336 559 -504 646 -44 23 -141 83 -215 132
-175 117 -224 138 -268 120z"/>
<path d="M4050 5954 c-141 -22 -173 -24 -365 -19 -174 5 -222 4 -280 -10 -100
-23 -207 -77 -248 -126 -72 -83 -142 -243 -182 -414 -30 -129 -68 -368 -62
-392 4 -14 5 -13 6 5 0 13 16 64 35 115 18 51 48 137 66 192 49 153 92 227
190 326 93 93 184 147 263 156 88 10 74 -36 -36 -119 -178 -135 -258 -249
-271 -389 -4 -41 -22 -122 -41 -180 -45 -139 -55 -207 -55 -369 0 -201 28
-360 106 -602 21 -67 34 -128 34 -161 0 -61 32 -120 94 -175 73 -64 271 -138
516 -192 80 -18 179 -45 220 -61 105 -40 152 -48 258 -49 230 0 409 84 597
282 150 157 245 347 245 488 0 63 -4 74 -93 251 -183 367 -334 541 -562 654
-147 72 -376 135 -492 135 -160 -1 -375 -116 -499 -268 -157 -191 -188 -474
-81 -732 51 -124 162 -219 219 -189 30 16 21 64 -26 147 -66 114 -89 189 -94
308 -5 125 8 192 59 294 83 166 265 299 409 300 98 0 135 -49 53 -70 -170 -42
-319 -177 -374 -338 -50 -146 -33 -266 66 -462 87 -171 106 -185 244 -185 88
0 102 3 161 32 190 94 298 255 262 391 -25 93 -77 143 -156 150 -42 3 -56 0
-79 -18 -37 -29 -35 -74 3 -76 45 -2 47 -4 59 -33 18 -42 -6 -92 -53 -115 -57
-27 -97 -9 -127 59 -38 83 -15 181 56 243 48 43 77 54 146 54 156 0 287 -143
297 -324 8 -145 -32 -230 -157 -330 -92 -74 -121 -106 -121 -135 0 -37 40 -39
159 -9 164 42 216 80 274 204 21 46 30 83 34 142 8 107 -9 186 -63 299 -35 72
-61 108 -113 161 -92 91 -174 132 -282 138 -76 4 -83 3 -155 -32 -177 -88
-253 -231 -221 -417 16 -88 14 -109 -10 -109 -69 0 -121 134 -102 264 17 122
91 229 219 316 36 24 84 62 107 83 43 40 43 40 131 35 255 -16 494 -223 609
-529 85 -226 64 -396 -72 -579 -151 -203 -227 -271 -345 -310 -120 -40 -320
-37 -320 5 0 36 40 53 199 85 161 32 238 80 210 131 -10 20 -16 21 -110 14
-66 -5 -115 -3 -149 5 -45 11 -61 9 -182 -20 -157 -38 -232 -37 -387 5 -194
53 -287 126 -366 289 -70 143 -96 254 -102 426 -10 295 56 439 283 616 292
228 473 258 833 137 226 -75 394 -186 535 -353 83 -98 273 -389 303 -465 44
-108 93 -132 130 -62 19 38 41 168 50 294 5 81 3 102 -20 175 -97 311 -477
661 -827 761 -163 47 -346 55 -371 16 -27 -42 3 -60 166 -99 224 -55 361 -116
519 -233 216 -160 408 -431 423 -596 5 -56 4 -61 -14 -61 -26 0 -41 18 -98
120 -111 198 -245 353 -395 459 -99 70 -252 145 -370 181 -52 16 -149 46 -215
66 -272 86 -403 42 -774 -260 -58 -48 -95 -61 -112 -40 -14 17 21 80 87 153
76 85 293 260 361 293 34 16 99 36 145 45 98 18 190 43 273 74 51 19 78 22
180 22 299 -3 572 -142 860 -441 233 -241 325 -460 312 -742 -7 -144 -29 -231
-109 -429 -115 -285 -208 -431 -373 -589 -124 -118 -241 -193 -378 -241 -102
-36 -102 -36 -282 -36 -193 0 -292 12 -556 66 -162 33 -305 72 -431 117 -46
17 -103 32 -128 35 -45 4 -45 4 40 -77 128 -123 237 -201 310 -225 76 -24 323
-52 533 -61 138 -6 243 -15 277 -25 80 -22 156 -18 256 11 305 88 559 292 786
634 181 272 235 469 225 816 -6 236 -37 352 -138 526 -161 277 -562 637 -827
744 -146 59 -381 69 -642 28z"/>
<path d="M2902 4940 c0 -14 2 -19 5 -12 2 6 2 18 0 25 -3 6 -5 1 -5 -13z"/>
<path d="M3020 4097 c0 -14 42 -91 67 -124 13 -18 33 -33 44 -33 29 0 23 16
-18 47 -20 15 -49 48 -65 72 -15 25 -28 42 -28 38z"/>
<path d="M5873 3638 c-17 -18 -65 -85 -105 -148 -153 -236 -296 -389 -681
-725 -222 -194 -339 -269 -539 -345 -57 -21 -130 -50 -163 -64 -71 -30 -68
-30 140 -16 162 11 309 45 395 91 79 42 211 139 342 251 156 132 535 521 575
589 57 95 117 266 117 334 1 57 0 60 -24 63 -18 2 -34 -7 -57 -30z"/>
<path d="M3472 3133 c-32 -4 -30 -7 74 -68 59 -36 146 -79 193 -96 84 -31 89
-31 211 -25 213 10 411 63 444 118 24 40 3 43 -357 43 -281 1 -357 4 -427 18
-47 9 -89 16 -95 15 -5 0 -25 -3 -43 -5z"/>
<path d="M5865 3072 c-16 -11 -109 -101 -204 -202 -247 -257 -437 -417 -641
-538 -52 -31 -120 -74 -150 -96 -65 -46 -63 -45 140 15 149 44 330 128 455
210 143 94 398 375 464 511 30 62 26 112 -9 116 -14 1 -38 -6 -55 -16z"/>
</g>
</svg>
