<?xml version="1.0" standalone="no"?>
<!DOCTYPE svg PUBLIC "-//W3C//DTD SVG 20010904//EN"
 "http://www.w3.org/TR/2001/REC-SVG-20010904/DTD/svg10.dtd">
<svg version="1.0" xmlns="http://www.w3.org/2000/svg"
 width="1000.000000pt" height="1000.000000pt" viewBox="0 0 1000.000000 1000.000000"
 preserveAspectRatio="xMidYMid meet">
<metadata>
  <rdf:RDF
    xmlns:rdf = "http://www.w3.org/1999/02/22-rdf-syntax-ns#"
    xmlns:rdfs = "http://www.w3.org/2000/01/rdf-schema#"
    xmlns:dc = "http://purl.org/dc/elements/1.1/"
    xmlns:cc = "http://creativecommons.org/ns#">
    <cc:license rdf:resource="http://creativecommons.org/publicdomain/zero/1.0/deed.en"/>
    <cc:permits rdf:resource="http://creativecommons.org/ns#Reproduction"/>
    <rdf:Description about="https://nft.mir.one/fingerprints"
      dc:title="TON Fingerprints"
      dc:description="This is a unique digital fingerprint created based on the algorithm for generating basic rings using a noise texture. Like human fingerprints, you can now use it for the Web3 and Metaverse era as digital biometric information."
      dc:publisher="https://nft.mir.one"
      dc:date="2022-02-22"
      dc:format="image/svg+xml"
      dc:language="en" >
      <dc:creator>
      <rdf:Bag>
        <rdf:li>EQBondcvD2_aOFADXSWJHs4ZazQDuEl9_wNvGGPxI8hGuOFU</rdf:li>
        <rdf:li>ipfs://bafkreihj7iub3fhmhq6jn62noukt5wxn3gv6bvcg7wmt6ywvlurefezckq</rdf:li>
      </rdf:Bag>
      </dc:creator>
    </rdf:Description>
  </rdf:RDF>
</metadata>
<g transform="translate(0.000000,1000.000000) scale(0.100000,-0.100000)"
fill="#1b1f23" stroke="none">
<path d="M4961 7806 c18 -17 141 -81 187 -97 73 -25 558 -170 720 -215 67 -18
132 -39 143 -45 11 -6 23 -9 25 -6 8 8 -248 119 -391 169 -77 27 -243 76 -370
109 -126 32 -247 66 -268 74 -37 15 -54 19 -46 11z"/>
<path d="M4525 7695 c47 -41 133 -74 673 -256 210 -71 482 -169 605 -219 216
-87 567 -211 637 -225 26 -5 3 13 -95 75 -335 212 -520 302 -826 404 -396 132
-636 194 -853 221 -69 9 -139 20 -154 25 -24 9 -22 6 13 -25z"/>
<path d="M4210 7544 c-52 -7 -106 -13 -120 -14 -48 -2 28 -27 565 -190 483
-146 786 -247 898 -298 86 -40 363 -223 445 -295 62 -53 187 -111 407 -187
204 -71 285 -107 334 -148 29 -24 33 -33 27 -56 -10 -41 -29 -41 -103 -3 -66
33 -124 55 -448 168 -82 28 -208 78 -280 109 -71 32 -143 61 -160 65 -16 4
-88 9 -160 10 -121 3 -144 7 -320 54 -499 134 -528 140 -1130 232 -227 34
-344 48 -375 44 -25 -4 -92 -22 -149 -42 -57 -19 -114 -33 -127 -30 -15 2 -21
0 -17 -9 2 -6 0 -15 -6 -19 -6 -3 -11 -17 -11 -30 0 -15 -12 -33 -32 -49 -38
-30 -34 -31 47 -11 113 27 279 16 644 -45 144 -23 216 -30 326 -30 178 0 255
-13 622 -106 161 -41 371 -90 465 -110 95 -19 218 -48 273 -64 55 -16 164 -45
243 -64 79 -20 234 -67 346 -105 232 -79 283 -91 393 -94 80 -2 80 -2 37 47
-29 32 -44 57 -44 75 0 63 -109 182 -240 263 -44 27 -130 66 -210 93 -221 77
-305 123 -285 156 13 21 103 3 295 -60 112 -37 202 -61 229 -61 45 0 45 0 -73
70 -218 130 -267 151 -430 180 -108 19 -158 38 -421 155 -178 80 -1056 377
-1161 393 -117 18 -195 20 -294 6z"/>
<path d="M4110 7324 c-105 -15 -178 -30 -255 -54 -49 -16 -99 -30 -110 -32
-45 -9 65 -40 225 -64 434 -66 886 -167 1312 -294 269 -80 322 -92 355 -79 50
19 12 75 -82 122 -140 70 -655 226 -1145 347 -201 49 -257 59 -300 54z"/>
<path d="M3485 6657 c-38 -19 -107 -60 -153 -91 -46 -31 -92 -61 -104 -65 -41
-15 87 -22 209 -11 157 14 411 14 498 0 104 -17 196 -52 270 -104 127 -89 246
-134 672 -256 117 -33 270 -79 340 -101 71 -22 166 -45 213 -50 197 -24 297
-65 563 -231 274 -173 449 -301 612 -451 100 -92 316 -318 369 -387 19 -25 56
-62 81 -84 47 -39 47 -39 30 -7 -9 18 -32 78 -51 134 -20 56 -54 139 -76 185
-36 73 -54 95 -152 187 -205 192 -347 296 -720 525 -332 203 -389 229 -645
296 -237 62 -722 201 -816 234 -109 38 -183 78 -250 135 -126 106 -334 162
-640 171 -180 6 -180 6 -250 -29z"/>
<path d="M4471 6643 c-56 -45 11 -91 229 -157 63 -19 284 -79 491 -135 528
-141 573 -158 759 -286 58 -40 182 -116 275 -170 316 -183 494 -309 695 -493
52 -48 112 -100 133 -116 38 -28 38 -28 -24 96 -33 67 -86 160 -116 205 -46
71 -67 92 -146 147 -136 94 -203 133 -444 259 -251 131 -299 160 -318 197 -18
34 -5 55 26 45 47 -15 416 -178 555 -246 77 -37 190 -101 250 -141 60 -40 127
-81 147 -91 38 -17 38 -17 -43 102 -45 67 -108 145 -143 178 -60 55 -72 61
-238 122 -402 146 -427 154 -503 151 -123 -4 -132 -2 -260 39 -113 37 -744
202 -1041 272 -66 16 -151 31 -190 35 -60 5 -73 4 -94 -13z"/>
<path d="M3515 6343 c-123 -10 -169 -18 -200 -34 -45 -23 -214 -141 -215 -149
0 -3 21 -12 46 -19 68 -20 368 -8 489 19 155 36 187 40 318 50 145 11 182 23
182 60 0 20 -10 30 -45 47 -91 45 -268 53 -575 26z"/>
<path d="M4025 6105 c-248 -33 -305 -52 -305 -102 0 -44 45 -53 262 -52 219 1
293 -7 504 -57 82 -19 209 -46 282 -60 231 -43 354 -91 524 -205 507 -340 656
-457 883 -690 245 -252 347 -414 400 -634 15 -60 40 -157 56 -214 32 -116 37
-182 14 -201 -23 -19 -35 -3 -97 127 -46 94 -60 137 -73 213 -34 210 -186 433
-506 745 -188 183 -524 428 -814 594 -186 106 -351 148 -405 102 -25 -21 -25
-21 0 -41 14 -11 93 -57 175 -102 416 -226 747 -451 911 -620 120 -122 333
-367 410 -470 77 -103 140 -220 129 -237 -17 -28 -51 -8 -129 76 -45 48 -144
152 -222 232 -85 88 -163 181 -198 234 -103 155 -210 236 -708 535 -318 191
-392 248 -411 319 -10 39 -17 46 -62 68 -83 39 -304 112 -432 141 -103 25
-138 28 -283 29 -155 0 -168 1 -210 24 -104 57 -118 61 -220 71 -58 6 -144 17
-192 26 -101 17 -118 13 -224 -56 -33 -22 -66 -40 -74 -40 -21 0 51 -44 105
-64 156 -58 221 -116 292 -266 52 -109 63 -159 39 -179 -14 -12 -25 -10 -72 8
-50 19 -69 21 -168 15 -146 -7 -142 -6 -221 -63 -67 -49 -67 -49 -34 -66 25
-14 76 -19 239 -25 216 -9 213 -9 370 -73 47 -19 150 -60 230 -90 168 -65 284
-129 419 -231 116 -87 108 -82 317 -202 186 -106 250 -148 431 -280 172 -126
223 -154 321 -181 159 -42 296 -132 496 -324 255 -245 438 -496 544 -748 25
-58 55 -120 67 -138 21 -32 21 -32 33 51 15 106 15 221 -2 267 -19 54 -151
250 -241 359 -154 186 -424 436 -585 539 -30 19 -126 72 -214 118 -189 98
-247 140 -320 232 -30 37 -76 84 -103 104 -46 33 -406 253 -893 544 -268 161
-337 214 -431 336 -106 137 -132 198 -89 212 35 11 105 -31 197 -117 115 -110
185 -161 363 -266 80 -47 279 -166 442 -264 344 -206 482 -280 564 -303 158
-43 239 -72 349 -122 66 -30 160 -71 210 -90 49 -18 105 -43 125 -55 57 -34
167 -125 290 -240 63 -58 140 -125 170 -149 30 -23 107 -93 170 -155 63 -61
131 -119 151 -127 42 -17 70 -52 128 -158 22 -41 51 -85 63 -97 23 -21 23 -21
21 223 -2 244 -2 244 -43 392 -33 122 -40 162 -39 230 1 72 -2 89 -26 135 -73
139 -212 315 -386 488 -171 171 -335 300 -663 526 -88 60 -198 144 -244 187
-128 118 -237 164 -647 271 -434 114 -448 115 -710 81z m76 -430 c230 -85 392
-167 554 -284 150 -108 335 -221 615 -376 291 -162 460 -281 460 -326 0 -33
-53 -22 -152 31 -51 28 -202 104 -335 170 -247 120 -388 200 -613 343 -186
119 -255 159 -479 275 -218 114 -291 167 -291 209 0 25 2 25 43 20 24 -4 113
-32 198 -62z"/>
<path d="M5455 5850 c-11 -34 29 -68 218 -188 464 -295 755 -548 1029 -893
102 -127 333 -389 345 -389 2 0 0 8 -5 18 -5 9 -19 55 -32 102 -12 47 -38 127
-58 178 -32 86 -45 105 -157 235 -229 267 -458 469 -765 676 -271 183 -435
271 -520 279 -43 4 -49 2 -55 -18z"/>
<path d="M3066 5614 c-22 -8 -47 -21 -56 -29 -8 -7 -26 -18 -39 -23 -24 -9
-24 -9 10 -29 42 -26 221 -75 257 -71 64 7 19 104 -69 149 -44 22 -51 22 -103
3z"/>
<path d="M3112 5081 c-59 -10 -94 -48 -150 -163 -48 -97 -48 -97 -17 -91 16 4
57 19 90 34 33 15 107 41 165 58 130 38 190 69 210 105 14 26 14 28 -9 47 -20
16 -38 19 -135 18 -61 -1 -130 -5 -154 -8z"/>
<path d="M3465 4845 c-49 -13 -155 -46 -235 -72 -145 -48 -145 -48 -190 -110
-25 -34 -59 -84 -75 -111 -31 -48 -31 -48 15 -35 25 6 75 23 111 37 37 14 116
32 175 41 60 9 170 25 244 36 117 18 161 20 333 14 181 -6 200 -5 218 11 65
58 -57 151 -261 199 -97 22 -228 18 -335 -10z"/>
<path d="M5162 4621 c-8 -5 -12 -21 -10 -37 4 -40 66 -83 266 -188 288 -151
446 -270 708 -531 164 -163 283 -309 374 -461 36 -59 79 -123 95 -142 31 -34
31 -34 28 76 -3 155 -16 216 -59 280 -87 125 -518 535 -741 704 -119 90 -568
308 -632 308 -9 0 -22 -4 -29 -9z"/>
<path d="M4060 4515 c-36 -7 -135 -18 -220 -24 -189 -14 -261 -25 -365 -56
-72 -22 -86 -30 -140 -86 -33 -33 -86 -78 -117 -100 -64 -44 -85 -70 -129
-161 -17 -35 -38 -71 -47 -81 -15 -17 -14 -17 14 -2 16 8 34 15 39 15 6 0 27
11 48 25 75 52 260 146 344 175 130 46 245 63 428 63 183 1 271 -15 400 -68
106 -44 194 -94 282 -162 105 -79 128 -110 157 -205 30 -100 70 -163 201 -323
181 -220 211 -259 374 -480 183 -250 243 -360 312 -573 43 -133 43 -133 66
-55 50 167 44 218 -52 418 -111 231 -305 493 -674 909 -77 86 -131 155 -129
165 2 11 16 17 44 19 35 3 49 -3 100 -41 33 -24 127 -118 208 -208 396 -438
562 -703 661 -1059 14 -47 30 -101 37 -121 12 -37 12 -37 30 30 10 36 25 103
34 148 16 82 16 84 -7 155 -33 103 -136 306 -217 428 -97 146 -194 263 -380
463 -88 95 -187 207 -221 249 -52 67 -81 90 -203 171 -310 204 -477 298 -627
351 -91 33 -166 39 -251 21z"/>
<path d="M3134 4450 c-25 -10 -85 -81 -109 -130 -10 -19 -26 -45 -37 -57 -21
-22 -21 -22 28 -4 46 18 213 110 242 134 7 5 12 22 10 36 -3 24 -7 26 -58 28
-30 1 -65 -2 -76 -7z"/>
<path d="M6777 4428 c-3 -12 6 -53 20 -92 14 -39 44 -125 67 -191 23 -66 50
-133 60 -150 16 -29 17 -27 11 90 -6 118 -23 222 -45 280 -26 70 -101 111
-113 63z"/>
<path d="M3606 4094 c-120 -16 -218 -44 -307 -90 -74 -37 -88 -53 -146 -165
-39 -76 -39 -76 -3 -60 19 9 64 33 100 53 105 59 175 88 229 95 52 6 81 -6 81
-33 0 -8 -51 -39 -112 -70 -62 -30 -123 -65 -135 -76 -19 -18 -103 -174 -103
-192 0 -27 355 209 403 267 43 53 96 75 202 84 137 11 280 -31 372 -111 28
-25 57 -67 88 -128 25 -49 45 -96 45 -104 0 -26 62 -83 139 -128 218 -126 439
-362 514 -549 31 -77 48 -168 82 -422 14 -111 33 -211 44 -240 11 -27 20 -41
21 -31 0 11 13 40 29 65 16 25 37 72 47 103 17 55 17 64 -1 211 -16 133 -17
156 -4 182 23 48 46 44 70 -12 33 -77 59 -191 59 -262 0 -88 14 -135 56 -180
19 -21 34 -44 34 -51 0 -7 11 2 25 21 79 110 79 108 79 172 0 55 -7 75 -58
180 -64 131 -98 176 -172 223 -43 27 -63 53 -123 149 -85 139 -181 266 -326
435 -59 69 -153 184 -209 255 -55 72 -125 154 -156 183 -116 113 -270 195
-422 226 -94 20 -301 20 -442 0z m1833 -1658 c7 -8 11 -30 9 -48 -2 -25 -8
-34 -25 -36 -27 -4 -39 31 -24 71 12 30 23 34 40 13z"/>
<path d="M5256 4057 c-14 -10 -16 -20 -11 -38 4 -13 103 -121 219 -239 274
-279 411 -458 524 -685 60 -120 95 -209 116 -291 9 -34 25 -81 35 -105 20 -43
20 -43 26 -14 4 17 14 55 23 85 9 33 16 95 16 155 1 100 1 100 -57 215 -115
227 -276 439 -493 650 -128 124 -221 200 -298 245 -57 32 -79 37 -100 22z"/>
<path d="M3758 3741 c-102 -33 -332 -175 -366 -225 -11 -17 -34 -66 -50 -108
-30 -78 -30 -78 1 -62 17 9 80 50 141 91 220 148 339 189 518 179 103 -7 107
-6 118 15 16 29 -12 66 -75 99 -65 33 -203 39 -287 11z"/>
<path d="M3895 3515 c-75 -16 -151 -46 -231 -91 -106 -59 -144 -92 -166 -142
-19 -42 -48 -135 -48 -155 0 -10 35 13 150 98 107 79 234 148 369 200 103 40
121 42 121 17 0 -30 -59 -77 -190 -153 -140 -80 -222 -138 -245 -172 -8 -13
-22 -55 -30 -93 -9 -38 -20 -81 -25 -96 -8 -28 -8 -28 28 -1 21 15 57 46 82
68 61 56 152 118 299 206 173 104 251 177 251 237 0 30 -25 44 -93 52 -34 4
-80 15 -102 24 -48 18 -90 19 -170 1z"/>
<path d="M4300 3170 c-104 -18 -304 -107 -412 -183 -47 -32 -61 -49 -76 -91
-11 -28 -22 -79 -25 -113 -6 -74 -6 -74 88 7 112 96 216 142 351 155 214 20
390 -118 465 -364 20 -66 21 -88 16 -205 -3 -73 -9 -139 -13 -149 -4 -12 14
-5 62 24 87 52 111 74 136 123 17 34 19 51 14 114 -9 92 -46 239 -80 316 -57
128 -186 270 -295 325 -47 24 -158 55 -180 50 -3 -1 -26 -5 -51 -9z"/>
<path d="M4135 2780 c-78 -16 -95 -28 -117 -77 -12 -26 -24 -76 -28 -110 -6
-63 -6 -63 14 -44 34 32 114 54 169 48 63 -8 111 -39 141 -90 27 -46 60 -162
52 -182 -6 -17 89 51 130 92 44 45 49 78 24 146 -56 150 -231 249 -385 217z"/>
</g>
</svg>
