<?xml version="1.0" standalone="no"?>
<!DOCTYPE svg PUBLIC "-//W3C//DTD SVG 20010904//EN"
 "http://www.w3.org/TR/2001/REC-SVG-20010904/DTD/svg10.dtd">
<svg version="1.0" xmlns="http://www.w3.org/2000/svg"
 width="1000.000000pt" height="1000.000000pt" viewBox="0 0 1000.000000 1000.000000"
 preserveAspectRatio="xMidYMid meet">
<metadata>
  <rdf:RDF
    xmlns:rdf = "http://www.w3.org/1999/02/22-rdf-syntax-ns#"
    xmlns:rdfs = "http://www.w3.org/2000/01/rdf-schema#"
    xmlns:dc = "http://purl.org/dc/elements/1.1/"
    xmlns:cc = "http://creativecommons.org/ns#">
    <cc:license rdf:resource="http://creativecommons.org/publicdomain/zero/1.0/deed.en"/>
    <cc:permits rdf:resource="http://creativecommons.org/ns#Reproduction"/>
    <rdf:Description about="https://nft.mir.one/fingerprints"
      dc:title="TON Fingerprints"
      dc:description="This is a unique digital fingerprint created based on the algorithm for generating basic rings using a noise texture. Like human fingerprints, you can now use it for the Web3 and Metaverse era as digital biometric information."
      dc:publisher="https://nft.mir.one"
      dc:date="2022-02-22"
      dc:format="image/svg+xml"
      dc:language="en" >
      <dc:creator>
      <rdf:Bag>
        <rdf:li>EQBondcvD2_aOFADXSWJHs4ZazQDuEl9_wNvGGPxI8hGuOFU</rdf:li>
        <rdf:li>ipfs://bafkreihj7iub3fhmhq6jn62noukt5wxn3gv6bvcg7wmt6ywvlurefezckq</rdf:li>
      </rdf:Bag>
      </dc:creator>
    </rdf:Description>
  </rdf:RDF>
</metadata>
<g transform="translate(0.000000,1000.000000) scale(0.100000,-0.100000)"
fill="#1b1f23" stroke="none">
<path d="M4870 7720 c-358 -94 -493 -148 -589 -236 -76 -68 -90 -77 -286 -181
-167 -89 -449 -261 -410 -249 11 3 44 10 73 16 29 5 61 14 72 20 29 15 240 75
371 104 64 14 175 31 245 36 71 6 221 26 334 45 373 63 547 68 760 25 166 -34
298 -88 463 -192 44 -27 94 -52 113 -55 29 -5 34 -2 40 21 22 88 -165 267
-370 353 -147 62 -253 85 -426 90 -181 6 -280 -8 -592 -83 -223 -54 -316 -65
-337 -40 -38 45 77 95 539 233 195 58 195 58 430 57 195 -1 250 -5 325 -21 50
-12 91 -19 93 -18 7 6 -178 58 -288 82 -77 16 -163 25 -260 29 -145 5 -145 5
-300 -36z"/>
<path d="M6090 7400 c0 -31 29 -123 64 -204 39 -89 76 -221 76 -267 0 -44 -31
-46 -103 -8 -38 20 -91 37 -137 44 -43 7 -135 37 -215 68 -272 108 -423 140
-670 139 -88 0 -200 -5 -250 -11 -142 -18 -497 -79 -593 -102 -48 -11 -148
-25 -222 -29 -74 -5 -160 -16 -190 -25 -194 -59 -425 -250 -616 -510 -29 -39
-29 -39 11 -9 269 205 453 315 655 393 87 34 128 39 136 16 11 -27 -34 -70
-141 -135 -251 -152 -380 -244 -466 -329 -125 -125 -182 -252 -123 -275 29
-11 98 31 209 129 124 110 247 205 415 320 63 43 152 107 198 142 45 35 108
76 140 92 225 113 703 179 1022 141 190 -23 581 -144 807 -250 126 -59 190
-108 365 -278 163 -159 254 -263 365 -418 46 -64 106 -141 133 -172 51 -57 51
-57 -31 118 -126 271 -202 395 -356 583 -218 268 -243 311 -243 418 0 57 -28
114 -127 254 -39 55 -80 118 -92 140 -11 22 -21 33 -21 25z"/>
<path d="M6434 6963 c23 -26 86 -93 141 -148 54 -55 81 -80 59 -55 -22 25 -60
70 -84 100 -60 76 -132 150 -145 150 -6 0 7 -21 29 -47z"/>
<path d="M4810 6830 c-196 -27 -379 -82 -518 -156 -109 -57 -311 -191 -438
-290 -122 -95 -455 -393 -489 -438 -46 -61 -66 -124 -91 -294 -59 -406 -38
-653 78 -918 80 -180 140 -257 283 -363 49 -37 122 -95 161 -129 68 -58 72
-64 76 -111 12 -121 160 -228 486 -352 86 -33 186 -79 221 -102 83 -54 127
-62 460 -87 218 -16 289 -18 351 -10 140 19 252 57 463 157 101 47 154 66 195
70 76 8 91 16 202 118 52 48 123 102 157 122 80 44 111 83 178 218 94 192 135
356 142 570 11 303 -60 605 -142 605 -36 0 -40 -34 -25 -190 42 -420 -17 -729
-185 -966 -58 -81 -197 -211 -297 -277 -162 -107 -477 -238 -656 -274 -158
-31 -496 -19 -672 23 -85 21 -386 142 -525 212 -104 51 -282 159 -315 189 -13
13 -13 16 5 29 33 26 90 8 253 -77 275 -143 515 -234 697 -265 152 -26 401
-24 532 4 282 61 564 206 740 381 168 168 263 365 302 628 6 39 11 173 11 296
0 170 4 236 15 273 20 67 19 93 -10 170 -54 145 -182 321 -347 480 -496 477
-1250 570 -1822 225 -236 -143 -421 -329 -514 -516 -49 -98 -68 -161 -87 -285
-61 -399 67 -764 351 -999 172 -144 461 -308 649 -369 448 -146 925 -34 1229
289 128 136 205 289 246 490 19 89 21 127 17 264 -6 211 -34 291 -126 366 -22
17 -73 78 -112 135 -77 112 -209 246 -302 307 -436 288 -1032 235 -1399 -126
-110 -108 -177 -215 -178 -284 0 -37 30 -64 63 -55 12 3 78 60 147 127 144
139 193 177 307 234 126 63 237 92 378 98 261 12 495 -75 656 -243 69 -72 101
-122 131 -206 20 -57 22 -81 23 -268 0 -185 -2 -213 -23 -285 -38 -132 -85
-209 -186 -310 -76 -75 -107 -99 -186 -138 -114 -57 -186 -76 -305 -84 -206
-13 -355 54 -499 223 -79 93 -110 168 -86 212 8 14 20 27 27 29 6 3 46 -27 88
-66 42 -39 88 -74 102 -77 38 -10 272 3 315 17 50 16 107 65 124 105 55 131
-57 286 -165 229 -44 -22 -58 -61 -33 -94 14 -19 29 -26 53 -26 69 0 39 -78
-36 -95 -72 -16 -157 13 -220 76 -41 40 -44 67 -14 125 56 110 158 179 267
179 78 0 125 -19 180 -73 62 -61 80 -117 83 -268 3 -139 -1 -153 -58 -192 -97
-67 -212 -90 -347 -69 -107 17 -136 -10 -71 -67 47 -41 121 -61 227 -61 115 0
161 11 283 70 179 87 280 193 329 348 63 201 35 429 -73 587 -180 265 -580
346 -906 185 -179 -89 -394 -305 -451 -455 -25 -65 -25 -213 -1 -305 56 -210
197 -400 393 -529 438 -287 1042 -118 1259 352 58 125 76 217 84 432 7 196 15
235 50 235 62 0 90 -341 43 -533 -70 -283 -238 -499 -487 -625 -428 -216 -925
-114 -1306 267 -140 141 -228 293 -265 462 -23 101 -27 548 -7 628 22 86 72
168 157 258 185 196 439 332 706 379 142 24 389 15 530 -20 308 -78 569 -256
773 -527 133 -177 171 -273 187 -483 18 -220 -11 -449 -76 -613 -120 -300
-369 -522 -717 -638 -162 -54 -265 -68 -457 -62 -301 9 -461 66 -959 336 -168
91 -216 126 -317 226 -144 144 -228 300 -275 515 -19 85 -23 135 -24 260 0
217 28 357 102 505 146 293 590 652 958 774 176 59 280 74 495 75 206 1 270
-6 445 -51 172 -44 371 -130 510 -218 163 -105 350 -284 483 -464 68 -91 239
-356 271 -419 22 -43 63 -218 103 -437 16 -93 19 -138 14 -290 -7 -240 -27
-326 -145 -624 -33 -80 -71 -191 -85 -245 -32 -121 -85 -247 -178 -426 -86
-166 -247 -436 -305 -511 -115 -152 -305 -266 -628 -379 -82 -29 -192 -70
-244 -92 -235 -99 -390 -104 -813 -23 -170 33 -257 57 -371 101 -133 52 -235
107 -308 167 -60 50 -82 78 -171 217 -19 30 -66 89 -103 130 -37 41 -88 104
-113 140 -47 67 -72 98 -57 70 59 -109 347 -482 433 -561 128 -117 325 -232
495 -288 51 -17 162 -46 247 -65 451 -101 583 -92 1024 71 204 76 323 132 440
210 277 185 449 424 680 946 70 158 205 505 239 612 61 193 90 397 90 615 0
165 -14 265 -58 422 -26 90 -31 143 -16 152 19 12 43 -9 96 -84 58 -83 81
-108 66 -68 -43 108 -75 177 -96 204 -13 17 -53 93 -89 168 -108 227 -257 428
-485 656 -213 212 -350 303 -616 405 -134 52 -259 89 -391 116 -112 23 -468
35 -584 19z m315 -1215 c191 -50 339 -218 365 -416 18 -133 -17 -274 -83 -336
-37 -35 -59 -44 -77 -33 -9 6 -6 23 14 75 124 308 -111 616 -430 565 -181 -29
-334 -175 -334 -317 0 -123 -106 -129 -140 -7 -48 172 143 402 390 468 73 20
221 20 295 1z"/>
<path d="M3034 5757 c0 -28 -13 -113 -27 -187 -39 -203 -50 -339 -44 -533 4
-146 10 -192 36 -302 46 -192 74 -277 139 -420 32 -72 75 -173 95 -225 77
-200 138 -291 266 -397 47 -40 127 -106 176 -147 131 -110 369 -279 450 -319
147 -73 309 -109 395 -87 25 6 153 15 285 20 251 9 348 22 462 63 37 14 140
50 228 82 299 107 466 195 555 291 69 75 86 144 36 144 -13 0 -71 -30 -131
-66 -139 -84 -197 -113 -317 -158 -203 -76 -329 -92 -413 -55 -38 17 -80 23
-209 30 -228 12 -366 11 -477 -3 -85 -10 -114 -9 -245 9 -82 11 -175 18 -206
16 -46 -4 -68 0 -112 20 -113 52 -280 179 -393 301 -125 134 -181 236 -214
391 -15 71 -39 130 -113 280 -98 199 -155 339 -183 452 -25 101 -23 366 5 546
34 217 26 307 -26 307 -14 0 -17 -10 -18 -53z m1171 -2346 c143 -41 193 -44
555 -38 190 4 373 10 408 13 57 6 62 5 62 -13 0 -56 -92 -80 -360 -94 -113 -6
-279 -9 -370 -7 -145 4 -175 8 -246 31 -90 30 -164 77 -164 105 0 24 10 33 29
28 9 -3 48 -14 86 -25z"/>
<path d="M3036 4136 c25 -87 75 -244 112 -350 38 -105 74 -211 81 -236 15 -55
52 -152 57 -147 2 1 -4 23 -12 47 -10 27 -16 76 -15 124 0 76 -3 87 -80 285
-44 113 -96 248 -115 299 -20 50 -44 102 -54 115 -14 17 -8 -15 26 -137z"/>
<path d="M3497 4263 c-15 -14 -6 -76 17 -121 59 -116 219 -298 346 -392 117
-88 249 -133 516 -176 113 -19 157 -12 162 24 4 27 -7 33 -184 86 -189 57
-275 93 -363 150 -95 61 -142 105 -229 216 -128 162 -191 220 -240 220 -10 0
-22 -3 -25 -7z"/>
<path d="M6407 3921 c-46 -49 -133 -177 -195 -289 -103 -182 -219 -263 -577
-405 -332 -131 -468 -157 -828 -157 -195 0 -247 -3 -256 -14 -29 -35 21 -64
149 -87 120 -22 522 -19 630 5 127 27 274 79 433 152 147 68 227 94 285 94 76
0 234 203 376 483 77 150 99 224 76 252 -21 26 -46 17 -93 -34z"/>
<path d="M6822 3645 c-17 -37 -14 -45 4 -12 9 16 14 31 11 33 -2 2 -9 -7 -15
-21z"/>
<path d="M3371 3611 c-56 -35 202 -394 344 -476 22 -13 78 -37 125 -54 47 -16
130 -51 185 -76 151 -71 432 -181 531 -209 123 -35 181 -44 391 -61 160 -13
188 -18 237 -42 55 -27 57 -27 133 -14 116 19 327 92 450 155 194 100 308 205
301 279 -3 29 -6 32 -32 29 -17 -2 -73 -30 -125 -62 -190 -116 -386 -195 -561
-226 -74 -12 -127 -15 -240 -10 -362 16 -475 37 -628 114 -54 27 -151 68 -217
92 -134 49 -347 154 -445 220 -84 56 -153 114 -265 220 -132 125 -154 140
-184 121z"/>
<path d="M6786 3565 c-9 -26 -7 -32 5 -12 6 10 9 21 6 23 -2 3 -7 -2 -11 -11z"/>
<path d="M6756 3495 c-9 -26 -7 -32 5 -12 6 10 9 21 6 23 -2 3 -7 -2 -11 -11z"/>
<path d="M3290 3384 c0 -6 7 -19 16 -30 14 -18 14 -18 3 6 -14 31 -19 36 -19
24z"/>
<path d="M3772 2981 c-24 -15 8 -60 90 -125 181 -145 379 -230 683 -291 316
-64 554 -56 626 21 24 25 24 26 5 40 -15 10 -55 14 -160 14 -363 0 -639 73
-1045 274 -153 76 -174 83 -199 67z"/>
</g>
</svg>
