<?xml version="1.0" standalone="no"?>
<!DOCTYPE svg PUBLIC "-//W3C//DTD SVG 20010904//EN"
 "http://www.w3.org/TR/2001/REC-SVG-20010904/DTD/svg10.dtd">
<svg version="1.0" xmlns="http://www.w3.org/2000/svg"
 width="1000.000000pt" height="1000.000000pt" viewBox="0 0 1000.000000 1000.000000"
 preserveAspectRatio="xMidYMid meet">
<metadata>
  <rdf:RDF
    xmlns:rdf = "http://www.w3.org/1999/02/22-rdf-syntax-ns#"
    xmlns:rdfs = "http://www.w3.org/2000/01/rdf-schema#"
    xmlns:dc = "http://purl.org/dc/elements/1.1/"
    xmlns:cc = "http://creativecommons.org/ns#">
    <cc:license rdf:resource="http://creativecommons.org/publicdomain/zero/1.0/deed.en"/>
    <cc:permits rdf:resource="http://creativecommons.org/ns#Reproduction"/>
    <rdf:Description about="https://nft.mir.one/fingerprints"
      dc:title="TON Fingerprints"
      dc:description="This is a unique digital fingerprint created based on the algorithm for generating basic rings using a noise texture. Like human fingerprints, you can now use it for the Web3 and Metaverse era as digital biometric information."
      dc:publisher="https://nft.mir.one"
      dc:date="2022-02-22"
      dc:format="image/svg+xml"
      dc:language="en" >
      <dc:creator>
      <rdf:Bag>
        <rdf:li>EQBondcvD2_aOFADXSWJHs4ZazQDuEl9_wNvGGPxI8hGuOFU</rdf:li>
        <rdf:li>ipfs://bafkreihj7iub3fhmhq6jn62noukt5wxn3gv6bvcg7wmt6ywvlurefezckq</rdf:li>
      </rdf:Bag>
      </dc:creator>
    </rdf:Description>
  </rdf:RDF>
</metadata>
<g transform="translate(0.000000,1000.000000) scale(0.100000,-0.100000)"
fill="#1b1f23" stroke="none">
<path d="M5285 7734 c128 -78 235 -129 286 -139 65 -12 54 12 -22 50 -67 34
-355 155 -368 155 -3 0 44 -30 104 -66z"/>
<path d="M4703 7730 c30 -22 58 -40 61 -40 6 0 583 -278 750 -361 189 -95 264
-157 689 -579 413 -408 466 -474 467 -574 0 -33 14 -60 74 -150 121 -182 166
-275 296 -611 22 -55 40 -96 40 -92 0 5 -16 74 -36 155 -49 203 -119 408 -203
595 -166 368 -152 349 -642 884 -382 416 -441 465 -634 524 -54 17 -169 59
-255 94 -200 80 -353 130 -515 166 -71 16 -134 29 -139 29 -5 0 16 -18 47 -40z"/>
<path d="M4273 7565 c-50 -13 -142 -46 -205 -73 -62 -28 -122 -52 -133 -55
-11 -3 12 -5 51 -6 52 -1 89 6 145 25 210 74 461 26 845 -160 402 -195 610
-339 996 -687 185 -166 456 -389 537 -441 42 -26 89 -36 104 -22 10 10 -11 54
-50 100 -20 25 -117 120 -217 212 -99 92 -239 223 -311 291 -338 322 -458 408
-850 606 -399 202 -500 235 -708 235 -84 -1 -135 -7 -204 -25z"/>
<path d="M6004 7411 c46 -90 85 -144 272 -369 193 -231 288 -333 379 -405 90
-71 90 -71 29 -1 -33 38 -139 168 -235 289 -96 121 -215 265 -264 320 -50 55
-119 135 -154 178 -35 42 -65 77 -67 77 -3 0 16 -40 40 -89z"/>
<path d="M4281 7360 c-24 -5 -55 -17 -70 -27 -14 -9 -53 -24 -86 -34 -60 -16
-60 -16 -60 -65 1 -42 10 -66 64 -159 36 -61 81 -135 102 -166 21 -31 41 -68
45 -83 6 -24 4 -26 -23 -26 -43 0 -103 50 -223 185 -66 75 -116 123 -138 132
-40 16 -123 11 -206 -13 -27 -8 -63 -14 -80 -14 -30 0 -30 0 15 -28 24 -15 75
-42 112 -61 74 -35 184 -120 261 -200 58 -61 121 -98 241 -141 50 -18 125 -50
167 -71 43 -21 136 -59 208 -84 329 -112 660 -337 1170 -796 315 -283 436
-374 591 -440 47 -21 108 -51 135 -68 55 -35 79 -39 92 -13 5 9 15 64 22 121
11 84 11 115 1 164 -30 144 -118 282 -303 473 -123 126 -143 153 -115 155 53
5 124 -39 238 -148 102 -98 158 -173 214 -287 74 -150 87 -217 89 -452 1 -202
1 -202 50 -298 72 -143 197 -327 239 -353 36 -22 36 -22 23 15 -25 70 -85 355
-126 601 -58 343 -102 481 -206 648 -80 129 -138 181 -373 338 -168 111 -259
181 -402 305 -331 290 -523 435 -769 583 -377 225 -721 343 -899 307z m64
-115 c111 -21 245 -59 340 -95 337 -130 931 -553 1348 -959 66 -65 80 -84 93
-131 21 -72 41 -102 164 -245 118 -136 190 -241 221 -323 24 -64 31 -153 12
-159 -17 -6 -53 33 -53 58 0 57 -94 193 -269 389 -42 47 -115 137 -162 200
-166 221 -468 479 -959 817 -196 135 -311 206 -379 232 -100 39 -319 110 -373
121 -45 9 -63 19 -87 46 -33 37 -32 64 3 64 11 0 57 -7 101 -15z m43 -225 c44
-36 69 -68 97 -122 25 -49 63 -99 117 -154 46 -47 78 -87 74 -93 -23 -36 -143
15 -220 93 -43 43 -166 270 -166 306 0 34 34 23 98 -30z m281 -100 c31 -17 99
-66 151 -111 52 -44 200 -155 328 -246 432 -308 533 -399 1047 -940 126 -132
231 -245 233 -251 6 -19 -25 -20 -64 -2 -59 27 -203 153 -471 413 -345 334
-498 460 -851 696 -210 140 -240 165 -292 240 -21 31 -72 89 -114 130 -42 40
-76 77 -76 81 0 29 42 26 109 -10z"/>
<path d="M3545 6865 c-27 -7 -63 -18 -78 -24 -16 -6 -40 -11 -55 -11 -46 -1
67 -43 234 -89 163 -44 205 -49 224 -26 26 32 -28 88 -137 144 -49 24 -113 27
-188 6z"/>
<path d="M3424 6631 c-33 -10 -71 -24 -84 -31 -13 -7 -35 -16 -49 -20 -26 -7
-26 -7 4 -22 17 -8 131 -36 255 -62 379 -78 405 -85 740 -193 537 -173 703
-269 1250 -723 256 -212 465 -354 681 -461 174 -87 286 -110 313 -66 19 30 -5
48 -157 118 -81 37 -181 88 -224 115 -105 65 -284 200 -423 318 -621 528 -793
638 -1290 826 -440 166 -457 171 -600 175 -70 2 -156 11 -195 20 -106 25 -153
27 -221 6z"/>
<path d="M3247 6367 c-88 -33 -88 -33 -50 -54 21 -11 110 -39 198 -63 196 -51
478 -144 603 -199 151 -65 218 -107 305 -192 47 -46 146 -123 232 -181 342
-232 481 -342 670 -532 154 -156 206 -223 372 -481 126 -197 187 -279 360
-487 283 -341 439 -607 514 -880 18 -62 42 -137 54 -166 22 -53 22 -53 45 70
15 78 24 163 24 233 1 110 1 110 -65 245 -120 244 -219 379 -444 610 -184 189
-219 233 -432 558 -127 193 -175 256 -257 340 -224 231 -489 434 -866 665 -89
54 -125 89 -116 113 19 50 224 -39 478 -208 230 -154 467 -349 674 -553 86
-84 93 -94 113 -162 15 -51 38 -94 82 -155 33 -45 86 -121 116 -168 30 -47 67
-102 81 -123 45 -67 130 -144 210 -191 75 -43 159 -121 233 -216 95 -120 241
-360 311 -506 23 -49 54 -104 70 -121 27 -33 27 -33 30 75 3 126 -5 250 -21
308 -11 41 -127 222 -272 424 -42 58 -104 148 -139 200 -35 52 -85 115 -112
141 -53 51 -143 103 -198 114 -19 4 -54 18 -77 31 -59 34 -248 217 -239 232
17 28 73 12 162 -44 49 -31 146 -87 216 -125 167 -89 228 -130 316 -214 104
-98 249 -288 395 -520 42 -67 90 -131 108 -144 27 -20 30 -21 25 -5 -3 11 -10
60 -16 110 -13 115 -36 241 -55 295 -21 59 -166 258 -247 339 -73 73 -87 81
-301 174 -130 57 -356 177 -588 313 -41 25 -156 112 -255 195 -289 241 -439
355 -610 460 -190 117 -307 166 -470 197 -119 23 -147 31 -394 116 -196 67
-580 165 -641 164 -24 0 -84 -15 -132 -32z m2890 -1710 c63 -65 88 -109 79
-134 -10 -26 -39 -12 -106 53 -81 78 -121 144 -101 168 12 14 16 14 40 -3 14
-10 54 -48 88 -84z"/>
<path d="M3195 6131 c-27 -10 -69 -27 -92 -38 -42 -19 -42 -19 11 -46 29 -15
58 -27 64 -27 26 0 392 -125 495 -169 154 -66 219 -100 387 -201 80 -48 206
-122 280 -165 314 -181 585 -402 800 -652 145 -167 200 -262 200 -345 0 -54
14 -77 165 -278 73 -97 201 -276 284 -399 84 -123 175 -254 202 -291 103 -143
180 -341 220 -573 11 -64 27 -134 36 -155 15 -37 15 -37 49 98 53 206 54 252
10 385 -81 243 -222 472 -567 922 -122 159 -172 234 -297 450 -96 166 -181
274 -346 438 -178 176 -313 284 -606 481 -118 80 -259 175 -313 213 -116 80
-278 163 -443 227 -147 56 -429 144 -463 144 -14 -1 -48 -9 -76 -19z"/>
<path d="M3128 5861 c-25 -10 -60 -28 -76 -40 -17 -11 -35 -21 -41 -21 -6 0
-11 -4 -11 -8 0 -15 56 -41 135 -61 301 -77 615 -231 836 -409 57 -46 94 -87
150 -169 82 -121 292 -336 772 -791 276 -262 351 -345 469 -522 146 -219 180
-312 253 -700 45 -236 56 -377 31 -415 -9 -14 -23 -25 -30 -25 -19 0 -33 45
-110 360 -36 146 -79 306 -97 355 -61 173 -168 361 -308 540 -35 44 -253 269
-486 500 -233 231 -474 479 -535 550 -129 151 -229 243 -355 327 -122 81 -342
189 -477 234 -129 43 -144 41 -251 -29 -66 -43 -66 -43 11 -56 164 -28 403
-134 613 -273 141 -93 297 -241 463 -440 54 -65 202 -217 330 -340 474 -456
623 -634 763 -913 70 -139 116 -260 188 -500 59 -197 96 -286 164 -393 29 -47
42 -82 51 -135 7 -40 20 -94 29 -120 17 -48 17 -48 63 30 26 43 64 115 86 160
65 135 66 254 2 580 -33 168 -36 206 -17 243 21 41 46 32 68 -25 64 -167 112
-389 129 -605 7 -84 20 -168 31 -200 10 -30 18 -45 19 -33 0 12 14 57 31 100
16 42 39 115 50 161 23 95 20 130 -26 312 -50 199 -111 308 -203 364 -54 32
-63 44 -117 143 -139 255 -292 479 -424 616 -25 27 -98 89 -161 137 -63 48
-196 166 -295 262 -100 95 -274 260 -388 366 -196 183 -246 240 -232 262 34
56 244 -105 650 -497 135 -131 266 -253 291 -270 45 -32 97 -43 109 -23 21 34
-76 160 -290 379 -319 326 -503 463 -757 566 -37 15 -139 71 -227 125 -179
111 -314 181 -470 245 -111 45 -322 115 -343 115 -7 -1 -34 -9 -60 -19z"/>
<path d="M3020 5338 c-25 -6 -57 -11 -72 -12 -28 -1 -28 -1 10 -38 20 -20 116
-81 212 -134 287 -158 509 -312 613 -422 53 -58 62 -92 22 -92 -36 0 -79 24
-261 143 -88 57 -225 143 -306 190 -162 96 -191 104 -263 67 -22 -11 -47 -20
-57 -20 -36 0 79 -88 217 -167 77 -45 205 -120 284 -168 170 -102 247 -142
357 -184 119 -46 199 -104 459 -331 492 -429 674 -695 860 -1254 75 -224 123
-400 145 -536 12 -74 49 -199 50 -170 0 8 21 49 45 90 25 41 53 98 62 126 15
50 15 54 -9 125 -230 688 -240 714 -323 881 -128 256 -302 477 -596 755 -464
439 -450 424 -517 528 -141 217 -358 391 -696 556 -159 77 -173 81 -236 67z"/>
<path d="M2987 4683 c-31 -21 -57 -41 -57 -44 0 -3 27 -21 61 -40 33 -19 109
-65 167 -103 59 -38 177 -109 262 -159 289 -167 410 -253 595 -427 126 -119
158 -143 248 -189 147 -75 316 -303 442 -596 96 -223 176 -511 210 -750 14
-105 43 -229 44 -193 1 9 17 37 36 62 51 67 85 140 85 184 0 50 -59 288 -111
449 -121 376 -268 644 -468 856 -71 75 -468 419 -587 508 -77 58 -151 102
-344 209 -63 35 -194 110 -290 167 -120 71 -185 103 -206 103 -19 0 -52 -14
-87 -37z"/>
<path d="M2981 4373 c-9 -4 -2 -10 19 -19 36 -16 46 -13 37 11 -6 15 -29 18
-56 8z"/>
<path d="M3073 4218 c-59 -73 -59 -73 -13 -95 25 -12 63 -27 85 -34 189 -57
471 -251 620 -426 86 -100 158 -217 265 -428 129 -254 193 -450 220 -670 12
-92 48 -259 49 -225 1 8 25 41 55 72 74 77 81 106 56 229 -45 220 -112 403
-243 665 -47 95 -101 209 -120 255 -45 112 -74 156 -170 256 -97 102 -188 177
-317 264 -113 76 -370 209 -403 209 -18 0 -40 -19 -84 -72z"/>
<path d="M3206 3855 c-16 -9 -39 -27 -52 -40 -13 -14 -28 -25 -34 -25 -15 0
65 -66 151 -125 227 -155 450 -425 594 -720 64 -130 86 -209 87 -314 1 -77 1
-77 25 -57 115 100 124 121 92 241 -69 268 -305 661 -507 846 -109 100 -270
209 -308 209 -10 0 -32 -7 -48 -15z"/>
<path d="M4177 3623 c-11 -10 -8 -60 5 -90 7 -15 44 -84 82 -153 178 -320 267
-582 325 -951 18 -111 49 -235 50 -201 1 7 23 42 51 77 74 98 78 117 46 270
-38 180 -88 347 -147 489 -116 282 -307 566 -382 566 -13 0 -27 -3 -30 -7z"/>
</g>
</svg>
