<?xml version="1.0" standalone="no"?>
<!DOCTYPE svg PUBLIC "-//W3C//DTD SVG 20010904//EN"
 "http://www.w3.org/TR/2001/REC-SVG-20010904/DTD/svg10.dtd">
<svg version="1.0" xmlns="http://www.w3.org/2000/svg"
 width="1000.000000pt" height="1000.000000pt" viewBox="0 0 1000.000000 1000.000000"
 preserveAspectRatio="xMidYMid meet">
<metadata>
  <rdf:RDF
    xmlns:rdf = "http://www.w3.org/1999/02/22-rdf-syntax-ns#"
    xmlns:rdfs = "http://www.w3.org/2000/01/rdf-schema#"
    xmlns:dc = "http://purl.org/dc/elements/1.1/"
    xmlns:cc = "http://creativecommons.org/ns#">
    <cc:license rdf:resource="http://creativecommons.org/publicdomain/zero/1.0/deed.en"/>
    <cc:permits rdf:resource="http://creativecommons.org/ns#Reproduction"/>
    <rdf:Description about="https://nft.mir.one/fingerprints"
      dc:title="TON Fingerprints"
      dc:description="This is a unique digital fingerprint created based on the algorithm for generating basic rings using a noise texture. Like human fingerprints, you can now use it for the Web3 and Metaverse era as digital biometric information."
      dc:publisher="https://nft.mir.one"
      dc:date="2022-02-22"
      dc:format="image/svg+xml"
      dc:language="en" >
      <dc:creator>
      <rdf:Bag>
        <rdf:li>EQBondcvD2_aOFADXSWJHs4ZazQDuEl9_wNvGGPxI8hGuOFU</rdf:li>
        <rdf:li>ipfs://bafkreihj7iub3fhmhq6jn62noukt5wxn3gv6bvcg7wmt6ywvlurefezckq</rdf:li>
      </rdf:Bag>
      </dc:creator>
    </rdf:Description>
  </rdf:RDF>
</metadata>
<g transform="translate(0.000000,1000.000000) scale(0.100000,-0.100000)"
fill="#1b1f23" stroke="none">
<path d="M4879 7760 c79 -51 245 -135 377 -190 176 -74 267 -120 364 -185 203
-136 360 -279 517 -472 118 -145 425 -564 525 -718 129 -197 221 -399 262
-578 19 -85 49 -126 93 -126 25 -1 34 -7 42 -28 10 -26 11 -25 6 12 -3 22 -5
47 -5 56 0 9 -7 16 -16 15 -30 -2 -54 48 -88 184 -85 336 -193 550 -553 1098
-138 209 -388 441 -693 642 -136 89 -218 128 -330 155 -54 14 -135 38 -181 55
-69 26 -291 96 -364 116 -11 3 9 -13 44 -36z"/>
<path d="M5340 7767 c0 -2 19 -17 43 -32 23 -16 37 -22 30 -14 -12 15 -73 53
-73 46z"/>
<path d="M4482 7681 c26 -17 119 -62 205 -102 236 -106 634 -310 753 -385 204
-127 389 -281 403 -333 3 -11 -1 -25 -8 -31 -21 -17 -68 8 -242 128 -87 61
-212 143 -278 182 -134 80 -672 350 -750 375 -62 20 -212 42 -333 48 -94 5
-94 5 -43 -24 27 -16 95 -47 150 -69 394 -157 780 -357 1138 -592 101 -65 222
-138 270 -160 123 -57 192 -109 318 -239 247 -256 429 -484 560 -699 112 -184
169 -239 204 -196 15 18 7 52 -39 152 -113 246 -302 517 -635 914 -67 80 -148
186 -180 235 -81 127 -116 167 -219 253 -117 97 -264 194 -402 264 -354 181
-535 248 -754 282 -58 9 -118 19 -135 22 -27 5 -25 3 17 -25z"/>
<path d="M5860 7566 c0 -2 8 -10 18 -17 15 -13 16 -12 3 4 -13 16 -21 21 -21
13z"/>
<path d="M5900 7537 c0 -3 30 -29 68 -59 77 -62 184 -139 162 -116 -22 22
-230 180 -230 175z"/>
<path d="M3935 7376 c22 -13 107 -49 189 -80 536 -201 981 -441 1387 -747 171
-129 252 -203 383 -351 148 -166 183 -198 277 -252 135 -79 233 -206 275 -358
11 -41 49 -110 129 -230 62 -95 167 -275 234 -399 115 -216 159 -316 175 -403
4 -21 15 -50 23 -63 9 -13 22 -48 29 -76 12 -52 12 -52 13 58 1 214 -14 340
-58 471 -22 65 -51 157 -65 202 -37 117 -94 207 -210 331 -73 78 -119 138
-165 217 -35 60 -87 140 -115 178 -57 78 -480 519 -583 608 -73 64 -485 341
-692 466 -255 154 -784 406 -921 439 -32 7 -116 13 -200 13 -145 0 -145 0
-105 -24z"/>
<path d="M3757 7206 c-58 -11 -58 -11 -25 -28 18 -10 125 -49 238 -87 901
-305 1617 -813 1770 -1257 12 -32 36 -120 55 -194 86 -341 141 -491 254 -695
94 -169 94 -170 74 -190 -34 -35 -119 18 -212 130 -120 145 -139 191 -161 390
-12 114 -74 370 -120 498 -105 289 -354 541 -802 813 -260 158 -703 353 -966
425 -82 22 -83 22 -180 5 -53 -10 -117 -20 -141 -23 -43 -5 -43 -5 0 -25 24
-11 100 -35 169 -54 624 -167 1226 -485 1551 -821 170 -175 215 -264 294 -583
47 -190 55 -237 48 -268 -15 -62 -39 -49 -94 48 -55 98 -99 244 -99 332 0 78
-22 138 -85 233 -240 363 -924 764 -1601 940 -87 23 -104 24 -158 14 -34 -6
-86 -19 -116 -30 -30 -10 -63 -19 -75 -19 -48 -1 57 -39 180 -65 620 -131
1211 -425 1575 -786 122 -120 224 -269 202 -291 -17 -17 -53 10 -177 136 -194
195 -388 339 -650 483 -290 160 -668 295 -960 344 -83 14 -139 4 -249 -47 -59
-27 -59 -27 -30 -39 16 -7 67 -17 114 -24 144 -20 369 -68 496 -105 392 -114
816 -347 1132 -622 279 -243 331 -297 318 -329 -16 -42 -94 4 -225 129 -300
288 -770 569 -1164 695 -218 69 -525 125 -601 109 -22 -5 -79 -28 -127 -52
-87 -43 -87 -43 -50 -55 21 -6 96 -16 167 -21 563 -47 845 -154 1439 -545 250
-164 325 -229 297 -257 -15 -15 -88 21 -302 152 -488 299 -631 375 -826 439
-155 51 -332 80 -524 88 -155 6 -155 6 -209 -22 -30 -15 -77 -42 -104 -61 -27
-19 -54 -34 -61 -34 -6 -1 7 -8 29 -16 29 -11 70 -15 150 -13 277 7 473 3 540
-10 167 -33 321 -99 530 -228 163 -100 422 -246 540 -306 100 -50 182 -77 232
-77 43 0 235 -62 332 -107 42 -20 94 -41 116 -48 74 -23 42 -85 -45 -85 -50 0
-118 20 -350 102 -293 103 -735 326 -921 464 -107 80 -249 148 -375 180 -84
21 -119 24 -273 24 -139 0 -181 -3 -197 -14 -30 -23 -9 -46 92 -96 50 -25 122
-68 161 -96 46 -32 118 -69 202 -103 145 -58 237 -81 325 -81 47 0 78 -9 165
-46 115 -51 554 -266 746 -367 81 -43 174 -80 285 -116 231 -74 238 -76 308
-118 148 -87 388 -306 464 -423 87 -133 156 -301 204 -495 29 -123 30 -160 3
-205 -12 -19 -39 -68 -61 -109 -37 -70 -40 -80 -35 -131 13 -124 128 -400 167
-400 22 0 40 40 40 89 0 21 -9 80 -21 132 -12 59 -22 151 -26 247 -6 149 -5
152 15 152 55 0 88 -97 101 -302 10 -152 26 -231 45 -225 6 2 10 15 8 28 -1
13 14 87 34 164 20 77 38 174 41 215 5 72 3 81 -32 160 -52 118 -71 174 -111
335 -46 182 -105 362 -162 494 -43 101 -45 112 -52 231 -9 154 -20 189 -147
449 -155 318 -183 405 -182 566 1 92 -11 125 -79 230 -178 276 -526 564 -997
826 -225 125 -576 282 -788 353 -56 19 -210 20 -300 2z m57 -1473 c98 -31 220
-86 263 -119 34 -26 45 -64 17 -64 -16 0 -332 117 -421 156 -51 22 -67 46 -40
58 20 9 97 -4 181 -31z"/>
<path d="M6110 5830 c-9 -16 1 -33 66 -112 90 -110 121 -138 152 -138 74 0
-66 223 -164 260 -35 14 -42 13 -54 -10z"/>
<path d="M3130 5776 c-19 -7 -62 -31 -95 -52 -61 -39 -61 -39 -25 -55 19 -9
73 -28 119 -43 46 -14 163 -63 260 -107 234 -108 402 -178 596 -248 155 -57
762 -301 838 -337 39 -18 49 -47 21 -58 -26 -10 -83 -7 -143 9 -92 24 -379
129 -528 193 -251 109 -865 362 -951 392 -46 17 -96 30 -110 30 -31 0 -91 -26
-143 -62 -37 -25 -37 -25 -5 -37 17 -7 67 -21 111 -32 235 -57 603 -204 935
-372 228 -115 268 -132 375 -159 66 -16 174 -46 240 -68 66 -21 165 -51 220
-65 128 -34 423 -144 543 -202 256 -124 430 -322 562 -638 101 -242 133 -295
177 -295 30 0 39 32 36 136 -6 265 -182 604 -418 806 -144 122 -275 195 -529
292 -227 87 -265 108 -306 163 -49 67 -117 109 -324 203 -263 120 -379 166
-507 200 -158 43 -228 66 -349 118 -117 49 -370 186 -441 238 -39 29 -111 66
-121 63 -2 0 -19 -6 -38 -13z"/>
<path d="M6020 5755 c-32 -39 22 -171 158 -388 151 -240 182 -310 297 -677 89
-286 116 -398 145 -610 33 -238 54 -300 101 -300 23 0 41 58 69 223 50 296 12
527 -146 888 -124 282 -248 480 -377 607 -79 76 -109 114 -181 230 -28 44 -45
52 -66 27z"/>
<path d="M7071 5414 c0 -11 3 -14 6 -6 3 7 2 16 -1 19 -3 4 -6 -2 -5 -13z"/>
<path d="M3050 5239 c-36 -14 -130 -72 -130 -80 0 -9 59 -25 192 -54 232 -51
485 -145 648 -241 95 -56 191 -146 335 -314 54 -63 153 -176 220 -250 229
-252 288 -336 420 -603 158 -318 225 -568 212 -792 -13 -229 -62 -357 -223
-590 -72 -105 -72 -97 4 -69 165 61 270 131 306 202 91 180 130 491 91 718
-23 130 -63 239 -182 498 -209 457 -218 471 -463 721 -106 109 -206 220 -232
260 -121 185 -545 424 -988 558 -141 43 -178 49 -210 36z"/>
<path d="M3018 4980 c-21 -11 -53 -31 -73 -44 -35 -24 -35 -24 7 -39 24 -8
105 -26 180 -41 231 -44 483 -138 642 -240 48 -31 56 -39 46 -51 -21 -25 -55
-18 -213 44 -239 93 -489 161 -540 146 -26 -8 -136 -77 -137 -86 0 -10 32 -17
165 -40 213 -35 556 -136 643 -189 37 -22 61 -65 46 -80 -6 -6 -56 5 -139 31
-161 50 -368 103 -467 119 -72 12 -76 11 -124 -14 -52 -27 -100 -64 -93 -71 8
-7 92 -24 224 -45 72 -11 207 -38 300 -60 121 -28 193 -40 248 -40 52 0 91 -6
113 -16 43 -21 95 -80 113 -131 10 -27 61 -85 176 -198 121 -120 178 -185 228
-260 193 -292 290 -642 258 -928 -13 -115 -32 -170 -58 -165 -34 6 -52 67 -68
241 -37 392 -169 698 -392 909 -119 112 -178 138 -458 204 -331 78 -418 95
-446 89 -27 -6 -129 -74 -129 -86 0 -8 116 -44 295 -90 210 -54 304 -84 393
-125 254 -116 443 -366 527 -698 23 -92 69 -383 86 -546 11 -112 34 -212 41
-184 3 12 30 37 59 57 151 100 242 197 279 294 53 139 62 335 25 519 -53 256
-215 593 -390 809 -73 90 -380 440 -456 520 -55 58 -67 77 -72 113 -3 24 -17
58 -33 79 -63 83 -303 200 -551 269 -168 46 -208 50 -255 24z"/>
<path d="M4357 4723 c-15 -15 -5 -53 21 -80 15 -16 100 -84 188 -151 246 -185
290 -241 369 -462 57 -160 153 -370 239 -520 88 -156 101 -193 123 -350 36
-270 -7 -569 -116 -805 -42 -89 -65 -169 -47 -158 53 32 163 117 214 167 83
80 109 126 134 238 19 84 21 133 25 523 2 237 4 458 4 493 0 78 -21 152 -73
256 -51 101 -88 156 -152 224 -53 56 -100 87 -116 77 -24 -15 -5 -74 74 -229
139 -273 171 -409 89 -381 -24 8 -42 38 -118 190 -95 189 -123 261 -131 335
-6 57 10 88 61 117 76 43 151 22 251 -70 116 -106 204 -264 282 -508 27 -86
55 -166 62 -178 6 -12 33 -35 60 -52 57 -35 87 -73 135 -167 68 -136 165 -404
165 -456 0 -10 12 -44 26 -74 26 -55 26 -55 76 64 36 84 52 136 55 179 4 58 3
62 -42 130 -25 38 -74 128 -109 200 -34 72 -90 171 -123 221 -71 106 -82 125
-172 316 -106 226 -205 364 -326 455 -88 67 -167 101 -291 124 -90 17 -128 30
-219 77 -415 214 -588 285 -618 255z"/>
<path d="M3104 4262 c-17 -9 -47 -30 -68 -47 -38 -29 -38 -29 -10 -37 16 -5
92 -19 169 -33 77 -13 204 -38 282 -55 294 -64 366 -72 403 -42 22 18 22 20 6
44 -9 13 -37 34 -64 46 -46 22 -612 142 -662 142 -14 -1 -39 -9 -56 -18z"/>
<path d="M3282 3676 c-16 -18 -33 -51 -36 -72 -4 -22 -13 -48 -20 -59 -13 -20
-11 -20 73 -23 105 -4 183 -23 272 -67 198 -100 340 -300 395 -558 12 -59 34
-289 34 -366 0 -22 1 -23 18 -8 9 8 37 24 62 35 52 22 98 65 106 99 9 34 -24
252 -52 353 -14 47 -45 127 -69 178 -127 265 -302 407 -609 496 -118 35 -137
34 -174 -8z"/>
<path d="M5690 3350 c-11 -11 -20 -23 -20 -27 -1 -5 -5 -28 -10 -53 -6 -29 -3
-116 7 -250 18 -232 10 -392 -27 -534 -11 -44 -20 -101 -20 -128 0 -49 0 -49
53 12 100 118 156 193 189 258 30 61 33 74 32 152 -2 141 -85 469 -140 553
-28 42 -36 45 -64 17z"/>
<path d="M3425 3284 c-26 -14 -55 -22 -64 -19 -9 3 0 -8 19 -24 19 -17 38 -30
42 -31 4 0 35 -34 68 -75 62 -79 123 -193 139 -261 5 -21 9 -30 10 -18 1 26
20 44 46 44 36 0 75 50 75 96 0 107 -172 314 -260 314 -15 0 -49 -11 -75 -26z"/>
</g>
</svg>
