<?xml version="1.0" standalone="no"?>
<!DOCTYPE svg PUBLIC "-//W3C//DTD SVG 20010904//EN"
 "http://www.w3.org/TR/2001/REC-SVG-20010904/DTD/svg10.dtd">
<svg version="1.0" xmlns="http://www.w3.org/2000/svg"
 width="1000.000000pt" height="1000.000000pt" viewBox="0 0 1000.000000 1000.000000"
 preserveAspectRatio="xMidYMid meet">
<metadata>
  <rdf:RDF
    xmlns:rdf = "http://www.w3.org/1999/02/22-rdf-syntax-ns#"
    xmlns:rdfs = "http://www.w3.org/2000/01/rdf-schema#"
    xmlns:dc = "http://purl.org/dc/elements/1.1/"
    xmlns:cc = "http://creativecommons.org/ns#">
    <cc:license rdf:resource="http://creativecommons.org/publicdomain/zero/1.0/deed.en"/>
    <cc:permits rdf:resource="http://creativecommons.org/ns#Reproduction"/>
    <rdf:Description about="https://nft.mir.one/fingerprints"
      dc:title="TON Fingerprints"
      dc:description="This is a unique digital fingerprint created based on the algorithm for generating basic rings using a noise texture. Like human fingerprints, you can now use it for the Web3 and Metaverse era as digital biometric information."
      dc:publisher="https://nft.mir.one"
      dc:date="2022-02-22"
      dc:format="image/svg+xml"
      dc:language="en" >
      <dc:creator>
      <rdf:Bag>
        <rdf:li>EQBondcvD2_aOFADXSWJHs4ZazQDuEl9_wNvGGPxI8hGuOFU</rdf:li>
        <rdf:li>ipfs://bafkreihj7iub3fhmhq6jn62noukt5wxn3gv6bvcg7wmt6ywvlurefezckq</rdf:li>
      </rdf:Bag>
      </dc:creator>
    </rdf:Description>
  </rdf:RDF>
</metadata>
<g transform="translate(0.000000,1000.000000) scale(0.100000,-0.100000)"
fill="#1b1f23" stroke="none">
<path d="M5168 7803 c7 -3 16 -2 19 1 4 3 -2 6 -13 5 -11 0 -14 -3 -6 -6z"/>
<path d="M5218 7793 c7 -3 16 -2 19 1 4 3 -2 6 -13 5 -11 0 -14 -3 -6 -6z"/>
<path d="M5258 7783 c6 -2 18 -2 25 0 6 3 1 5 -13 5 -14 0 -19 -2 -12 -5z"/>
<path d="M5308 7773 c6 -2 18 -2 25 0 6 3 1 5 -13 5 -14 0 -19 -2 -12 -5z"/>
<path d="M5358 7763 c7 -3 16 -2 19 1 4 3 -2 6 -13 5 -11 0 -14 -3 -6 -6z"/>
<path d="M5408 7753 c7 -3 16 -2 19 1 4 3 -2 6 -13 5 -11 0 -14 -3 -6 -6z"/>
<path d="M5458 7743 c7 -3 16 -2 19 1 4 3 -2 6 -13 5 -11 0 -14 -3 -6 -6z"/>
<path d="M4445 7691 c-38 -4 -60 -8 -49 -9 12 -1 41 -9 65 -17 24 -9 103 -27
174 -41 224 -44 549 -121 789 -188 127 -35 317 -85 421 -111 201 -49 280 -77
294 -104 5 -9 12 -34 16 -56 20 -112 162 -272 310 -348 35 -18 145 -50 151
-44 2 1 -29 27 -68 57 -133 104 -308 302 -308 349 0 14 -13 27 -39 40 -44 23
-55 48 -35 86 12 23 11 27 -4 32 -9 3 -80 31 -157 63 -265 109 -738 230 -1080
275 -138 18 -378 26 -480 16z"/>
<path d="M4380 7504 c-95 -9 -190 -25 -323 -56 -138 -32 -138 -32 -80 -44 32
-6 96 -15 143 -18 353 -29 912 -123 1100 -186 84 -28 138 -63 146 -96 7 -28
-10 -47 -36 -39 -72 21 -590 106 -915 150 -291 40 -370 42 -500 15 -60 -12
-124 -22 -142 -22 -37 0 -39 -4 -18 -35 21 -30 85 -49 265 -77 315 -50 983
-134 1146 -143 96 -5 120 -3 181 16 92 27 124 27 225 -5 226 -71 469 -234 640
-430 426 -487 572 -683 737 -992 88 -164 134 -242 127 -217 -56 209 -133 419
-221 600 -84 173 -138 253 -284 419 -126 144 -156 187 -186 269 -15 41 -47 76
-189 212 -249 239 -273 255 -543 364 -92 38 -211 87 -264 109 -257 107 -819
222 -1009 206z"/>
<path d="M3720 6981 c-50 -16 -114 -54 -189 -113 -42 -34 -96 -74 -121 -90
-45 -30 -45 -30 5 -26 28 3 94 17 149 31 75 21 121 27 195 27 104 0 155 -11
271 -58 49 -20 108 -34 170 -41 302 -34 559 -54 820 -61 265 -8 305 -11 395
-33 272 -69 482 -203 757 -485 287 -295 511 -618 622 -897 58 -149 70 -215 56
-315 -11 -77 -10 -96 10 -195 33 -165 36 -314 11 -550 -39 -364 -88 -540 -151
-540 -34 0 -36 25 -11 165 50 274 53 625 8 801 -28 108 -49 153 -117 254 -26
39 -96 151 -155 250 -179 300 -327 496 -501 666 -233 227 -405 337 -719 460
-167 66 -235 109 -222 142 10 26 79 21 209 -12 313 -82 574 -243 844 -522 192
-199 341 -405 504 -699 123 -223 191 -285 198 -182 4 60 -27 149 -112 317
-236 466 -645 910 -1016 1104 -240 124 -481 166 -649 112 -82 -26 -77 -26
-456 15 -98 10 -200 14 -295 11 -128 -4 -156 -8 -245 -36 -55 -17 -188 -50
-295 -72 -284 -58 -334 -73 -406 -124 -73 -52 -137 -122 -169 -185 -13 -25
-34 -56 -47 -70 -23 -25 -23 -25 12 -43 96 -51 227 -59 491 -30 85 9 228 16
319 16 187 0 254 -11 522 -87 191 -55 277 -93 433 -195 66 -43 192 -125 280
-183 337 -219 549 -446 699 -744 109 -219 154 -387 217 -821 22 -153 54 -348
72 -433 28 -139 32 -172 31 -320 0 -183 -16 -264 -75 -390 -46 -98 -75 -135
-163 -205 -45 -35 -92 -75 -106 -87 -41 -38 -167 -194 -139 -173 15 11 80 61
145 110 66 50 144 105 175 122 173 97 409 505 409 707 0 90 -12 132 -49 170
-64 67 -87 152 -131 486 -17 129 -42 291 -56 360 -81 402 -281 771 -572 1051
-132 129 -209 188 -430 333 -192 126 -235 164 -230 200 6 39 48 30 178 -36
160 -81 329 -194 466 -311 358 -306 630 -760 719 -1203 14 -67 39 -258 55
-424 34 -339 43 -391 71 -416 18 -16 20 -16 39 1 39 35 43 75 37 345 -14 545
-70 774 -274 1130 -227 396 -490 679 -826 886 -184 114 -305 157 -436 155 -74
-1 -107 5 -241 44 -443 128 -706 136 -1290 39 -85 -14 -172 -30 -193 -36 -32
-10 -41 -9 -54 5 -15 15 -15 18 1 42 38 57 188 103 523 159 297 49 412 60 582
53 283 -11 456 -53 881 -214 452 -171 819 -502 1128 -1016 275 -458 312 -596
313 -1181 0 -138 1 -285 2 -326 1 -41 -6 -115 -16 -163 -14 -75 -15 -93 -3
-120 7 -18 19 -37 27 -44 12 -9 14 -3 15 35 1 66 70 232 136 329 72 104 106
212 169 528 68 346 73 394 59 659 -19 363 -55 517 -172 731 -158 289 -379 574
-673 870 -147 147 -273 242 -420 315 -171 84 -232 95 -685 120 -343 18 -710
62 -1024 121 -211 39 -251 43 -296 30z"/>
<path d="M3640 6674 c-109 -19 -215 -71 -341 -166 -90 -68 -95 -73 -68 -76 16
-2 77 10 136 27 60 17 200 49 311 71 112 23 219 49 238 57 43 21 53 49 25 76
-18 18 -35 22 -118 24 -55 1 -136 -4 -183 -13z"/>
<path d="M6474 6645 c-4 -8 2 -27 12 -43 15 -24 197 -207 358 -361 59 -56 59
-56 31 -11 -183 296 -372 491 -401 415z"/>
<path d="M3560 5825 c-80 -7 -196 -14 -258 -14 -71 -1 -125 -6 -146 -15 -18
-7 -69 -47 -113 -89 -81 -75 -81 -75 -49 -81 17 -3 69 -1 116 4 47 5 141 10
210 10 69 0 181 7 250 15 211 24 340 34 464 36 125 1 145 -6 125 -43 -25 -46
-85 -65 -334 -103 -204 -32 -394 -71 -447 -92 -26 -10 -53 -34 -79 -69 -27
-37 -68 -72 -134 -115 -101 -66 -129 -99 -222 -265 -40 -71 -40 -71 1 -56 23
9 93 50 156 92 291 193 399 247 589 295 109 28 400 78 545 94 147 17 322 -9
534 -78 338 -111 641 -366 791 -667 89 -177 133 -457 96 -609 -21 -88 -19
-106 27 -286 39 -151 43 -174 42 -289 0 -179 -3 -184 -181 -355 -171 -164
-251 -227 -353 -277 -156 -76 -293 -108 -463 -108 -340 1 -614 154 -743 415
-91 184 -97 351 -24 645 11 47 23 125 27 173 6 85 7 89 42 119 19 17 60 43 91
57 47 22 68 26 145 26 92 -1 280 -25 395 -51 101 -23 240 -95 305 -158 98 -96
131 -205 101 -338 -41 -184 -191 -327 -375 -359 -121 -22 -233 14 -348 110
-45 38 -63 47 -71 39 -30 -30 5 -114 72 -176 131 -120 345 -151 528 -78 199
81 309 207 433 496 64 150 40 239 -106 394 -86 91 -112 107 -299 181 -356 142
-442 166 -595 166 -118 1 -200 -19 -337 -82 -349 -159 -495 -285 -610 -525
-41 -86 -42 -88 -42 -203 -1 -91 5 -147 29 -261 30 -145 30 -145 42 0 22 247
82 429 186 565 55 73 119 116 213 146 110 34 157 9 104 -58 -11 -14 -22 -41
-26 -62 -3 -20 -21 -97 -40 -171 -42 -168 -57 -284 -49 -375 31 -341 245 -606
583 -721 251 -86 521 -85 779 1 130 44 200 79 298 152 89 66 141 121 222 236
60 85 83 95 103 47 40 -96 -100 -309 -277 -423 -188 -122 -475 -199 -737 -198
-411 1 -766 172 -949 457 -84 132 -126 265 -134 434 -6 140 14 249 77 417 55
147 50 184 -18 143 -100 -61 -202 -331 -202 -534 0 -216 152 -499 374 -695
279 -245 705 -381 1076 -342 133 14 497 104 571 142 126 63 287 219 346 334
93 181 100 399 28 900 -19 132 -44 315 -55 406 -54 431 -169 687 -434 957
-167 171 -324 280 -598 417 -163 81 -319 134 -481 165 -59 11 -110 20 -113 20
-2 0 -24 18 -48 40 -80 74 -117 84 -311 86 -93 1 -235 -4 -315 -11z"/>
<path d="M3105 5498 c-32 -17 -93 -79 -141 -141 -45 -58 -45 -58 -7 -51 44 8
259 107 285 131 26 23 22 40 -12 58 -34 17 -96 19 -125 3z"/>
<path d="M4055 5243 c-345 -43 -512 -94 -728 -222 -147 -88 -234 -152 -262
-194 -42 -60 -74 -157 -90 -266 -9 -58 -18 -115 -22 -126 -7 -25 53 54 90 118
16 26 60 79 99 117 168 167 412 297 634 340 100 19 317 29 434 19 203 -16 251
-36 488 -198 287 -198 385 -288 457 -421 30 -56 72 -107 170 -207 136 -139
171 -161 203 -129 24 24 20 95 -11 196 -23 73 -25 91 -16 125 56 201 -245 594
-574 751 -80 38 -162 55 -347 75 -63 6 -140 15 -170 20 -55 7 -299 9 -355 2z
m781 -209 c189 -89 379 -262 506 -459 109 -169 118 -226 27 -180 -23 12 -164
175 -238 277 -26 35 -184 162 -307 246 -121 82 -154 118 -131 142 16 16 77 5
143 -26z"/>
<path d="M3765 4860 c-180 -32 -378 -143 -530 -296 -110 -111 -137 -176 -187
-456 -14 -78 -14 -78 16 -42 16 20 51 72 78 117 131 218 305 381 511 477 134
63 237 78 245 37 6 -29 -22 -52 -147 -124 -64 -36 -143 -84 -176 -106 -128
-87 -319 -297 -366 -402 -19 -44 -45 -207 -52 -323 -4 -73 -4 -73 20 -30 14
24 47 87 73 141 73 146 133 232 234 332 100 99 181 157 416 295 180 105 231
123 355 124 171 0 352 -58 587 -190 122 -68 173 -87 199 -74 43 24 11 81 -96
167 -97 78 -219 155 -351 221 -173 86 -253 105 -509 122 -88 5 -185 12 -215
14 -30 3 -77 1 -105 -4z"/>
<path d="M4245 4061 c-73 -33 -121 -103 -169 -246 -76 -225 -74 -431 3 -584
59 -116 166 -216 293 -276 122 -58 184 -70 348 -69 128 0 155 4 233 27 164 50
288 126 412 251 147 148 199 253 193 389 -3 72 -6 81 -31 103 -23 20 -31 22
-51 13 -27 -13 -40 -37 -87 -153 -119 -295 -392 -486 -694 -486 -122 0 -206
19 -297 67 -124 65 -210 174 -237 301 -26 126 -6 278 40 303 30 16 36 5 41
-74 6 -97 32 -151 73 -155 17 -2 66 -20 110 -40 71 -33 89 -37 160 -37 130 0
218 54 275 167 70 141 18 292 -125 359 -76 36 -142 38 -205 7 -50 -26 -97 -91
-106 -149 -13 -81 44 -179 105 -179 28 0 31 3 31 33 0 36 25 67 52 67 31 0 60
-34 60 -72 0 -66 -59 -118 -134 -118 -52 0 -131 42 -169 91 -19 23 -54 63 -78
88 -44 46 -44 46 -33 101 7 30 30 91 52 136 44 90 50 128 21 144 -27 14 -39
13 -86 -9z"/>
<path d="M5270 2299 c-146 -64 -235 -88 -357 -98 -77 -6 -86 -8 -40 -10 92 -2
242 18 335 45 99 29 232 88 232 103 0 23 -59 9 -170 -40z"/>
</g>
</svg>
