<?xml version="1.0" standalone="no"?>
<!DOCTYPE svg PUBLIC "-//W3C//DTD SVG 20010904//EN"
 "http://www.w3.org/TR/2001/REC-SVG-20010904/DTD/svg10.dtd">
<svg version="1.0" xmlns="http://www.w3.org/2000/svg"
 width="1000.000000pt" height="1000.000000pt" viewBox="0 0 1000.000000 1000.000000"
 preserveAspectRatio="xMidYMid meet">
<metadata>
  <rdf:RDF
    xmlns:rdf = "http://www.w3.org/1999/02/22-rdf-syntax-ns#"
    xmlns:rdfs = "http://www.w3.org/2000/01/rdf-schema#"
    xmlns:dc = "http://purl.org/dc/elements/1.1/"
    xmlns:cc = "http://creativecommons.org/ns#">
    <cc:license rdf:resource="http://creativecommons.org/publicdomain/zero/1.0/deed.en"/>
    <cc:permits rdf:resource="http://creativecommons.org/ns#Reproduction"/>
    <rdf:Description about="https://nft.mir.one/fingerprints"
      dc:title="TON Fingerprints"
      dc:description="This is a unique digital fingerprint created based on the algorithm for generating basic rings using a noise texture. Like human fingerprints, you can now use it for the Web3 and Metaverse era as digital biometric information."
      dc:publisher="https://nft.mir.one"
      dc:date="2022-02-22"
      dc:format="image/svg+xml"
      dc:language="en" >
      <dc:creator>
      <rdf:Bag>
        <rdf:li>EQBondcvD2_aOFADXSWJHs4ZazQDuEl9_wNvGGPxI8hGuOFU</rdf:li>
        <rdf:li>ipfs://bafkreihj7iub3fhmhq6jn62noukt5wxn3gv6bvcg7wmt6ywvlurefezckq</rdf:li>
      </rdf:Bag>
      </dc:creator>
    </rdf:Description>
  </rdf:RDF>
</metadata>
<g transform="translate(0.000000,1000.000000) scale(0.100000,-0.100000)"
fill="#1b1f23" stroke="none">
<path d="M4880 7797 c0 -17 159 -87 333 -146 111 -38 238 -83 282 -101 209
-83 509 -268 750 -465 72 -58 179 -139 238 -180 108 -74 108 -74 22 20 -239
260 -513 475 -777 611 -160 82 -262 118 -494 173 -237 58 -311 77 -336 86 -10
4 -18 5 -18 2z"/>
<path d="M4650 7680 c-13 -9 -12 -13 5 -26 35 -28 187 -100 411 -197 308 -134
323 -140 426 -198 224 -126 410 -270 508 -393 25 -31 91 -95 148 -142 103 -85
141 -136 128 -169 -10 -28 -95 -14 -226 38 -80 31 -142 49 -205 56 -49 7 -139
26 -200 42 -70 20 -152 34 -225 40 -63 4 -144 15 -180 24 -97 24 -348 110
-829 286 -479 175 -460 171 -642 148 -88 -11 -88 -11 -46 -46 93 -76 100 -107
28 -117 -51 -7 -114 -27 -215 -69 -59 -25 -59 -25 -15 -37 86 -23 227 7 273
59 25 28 66 27 215 -4 144 -31 309 -78 661 -191 363 -117 474 -148 700 -199
221 -50 364 -89 495 -135 167 -59 202 -82 447 -282 163 -135 181 -158 134
-179 -40 -19 -109 13 -292 132 -93 60 -210 130 -260 154 -121 59 -333 129
-639 210 -137 37 -412 113 -610 171 -562 163 -670 179 -925 135 -140 -24 -211
-53 -354 -144 -87 -55 -88 -57 -62 -67 15 -5 102 -10 192 -10 165 0 166 0 237
32 63 28 85 32 177 36 132 5 235 -15 680 -133 1054 -279 1133 -309 1545 -573
341 -218 352 -230 574 -622 123 -217 288 -475 339 -529 32 -34 40 -40 33 -21
-6 14 -26 81 -45 150 -45 161 -90 278 -160 415 -38 76 -65 146 -86 226 -45
177 -82 264 -150 354 -33 44 -65 98 -71 120 -45 163 -82 211 -281 359 -48 35
-50 66 -8 96 72 51 181 -22 441 -296 108 -115 127 -129 187 -143 40 -8 42 -8
29 7 -8 10 -56 82 -107 162 -177 278 -329 455 -590 686 -297 263 -447 370
-690 493 -232 118 -565 239 -771 281 -112 23 -109 23 -129 10z"/>
<path d="M4300 7598 c25 -19 61 -43 80 -53 19 -10 89 -50 155 -90 154 -93 198
-115 503 -250 297 -133 369 -174 471 -268 120 -111 319 -196 366 -157 37 30
-6 80 -165 195 -247 177 -323 220 -685 382 -115 52 -268 127 -340 168 -149 84
-170 91 -320 100 -110 7 -110 7 -65 -27z"/>
<path d="M3992 7421 c-62 -6 -62 -6 -28 -33 60 -48 996 -431 1288 -527 119
-40 183 -40 183 -2 0 50 -70 87 -530 281 -93 39 -268 119 -388 177 -218 106
-218 106 -340 108 -67 2 -150 0 -185 -4z"/>
<path d="M3774 6520 c-46 -18 -38 -54 18 -88 34 -21 506 -179 613 -206 33 -8
130 -27 215 -42 276 -47 609 -138 847 -230 371 -143 642 -359 922 -734 150
-200 372 -539 524 -800 55 -95 116 -168 104 -125 -4 11 -13 61 -22 110 -18
109 -59 263 -84 319 -25 58 -390 623 -471 731 -117 155 -262 283 -497 435
-259 170 -547 277 -1113 415 -146 36 -377 94 -515 130 -343 88 -480 110 -541
85z"/>
<path d="M3345 6391 c-61 -28 -122 -77 -140 -111 -19 -38 -12 -54 17 -39 33
17 187 4 298 -25 52 -13 169 -52 260 -86 354 -133 507 -229 429 -270 -31 -17
-88 -4 -259 62 -231 89 -409 151 -557 193 -158 45 -207 43 -258 -8 -52 -52
-82 -157 -45 -157 5 0 10 7 10 15 0 25 40 38 104 32 34 -2 128 -27 211 -55
253 -84 786 -291 856 -332 106 -63 266 -196 389 -324 63 -66 255 -260 426
-430 394 -393 492 -509 570 -671 39 -80 42 -105 15 -105 -38 0 -52 14 -168
154 -182 220 -282 324 -656 683 -435 416 -572 522 -821 638 -123 57 -357 151
-611 246 -244 92 -293 99 -371 53 -44 -26 -44 -26 -22 -50 33 -36 73 -55 347
-164 465 -185 640 -270 850 -411 303 -203 652 -522 1183 -1081 216 -227 268
-300 268 -375 0 -51 -30 -43 -87 23 -132 154 -165 188 -248 256 -49 41 -155
145 -234 232 -157 170 -324 329 -502 477 -424 352 -706 517 -1266 739 -226 90
-223 90 -317 25 -37 -25 -71 -45 -77 -45 -33 0 80 -58 176 -90 435 -147 894
-391 1305 -693 153 -112 246 -192 388 -331 213 -208 333 -364 347 -449 12 -69
48 -155 122 -287 99 -177 136 -252 197 -403 76 -187 91 -218 141 -275 54 -65
62 -99 76 -336 10 -171 26 -279 36 -246 3 8 27 60 53 115 73 152 76 168 90
412 15 259 9 333 -46 574 -26 112 -38 192 -44 294 -4 77 -14 167 -21 201 -10
52 -10 68 5 109 35 104 15 196 -71 329 -97 151 -228 294 -488 531 -242 221
-300 282 -321 331 -15 36 -11 74 7 74 6 0 78 -57 162 -127 516 -432 645 -566
824 -856 45 -73 104 -152 147 -197 57 -60 83 -98 124 -181 28 -57 61 -134 73
-171 23 -64 23 -68 6 -103 -33 -70 -23 -166 53 -480 49 -206 67 -258 97 -287
28 -27 28 -27 29 5 0 18 6 85 12 151 7 65 10 135 6 155 -7 45 -64 225 -111
353 -19 53 -32 102 -28 107 23 38 95 -28 145 -133 21 -44 58 -135 81 -201 24
-66 53 -135 65 -153 22 -33 22 -33 26 60 2 51 1 133 -2 183 -8 104 -34 163
-140 325 -35 52 -101 158 -148 235 -85 140 -288 430 -420 601 -142 184 -280
313 -587 550 -239 185 -305 221 -386 210 -57 -8 -56 -8 -202 107 -118 94 -309
301 -332 361 -15 38 -16 50 -5 76 7 16 18 30 25 30 8 0 52 -20 99 -45 85 -44
86 -45 183 -43 120 1 196 -17 436 -106 116 -43 198 -67 253 -74 45 -6 104 -20
133 -31 127 -51 253 -158 304 -259 17 -33 81 -112 171 -207 153 -164 250 -281
361 -435 143 -197 328 -496 453 -730 34 -63 73 -128 87 -145 26 -30 26 -30 21
0 -3 17 -8 64 -11 105 -12 139 -44 270 -82 340 -56 101 -207 342 -301 480
-164 241 -274 378 -490 614 -245 266 -347 329 -735 457 -432 142 -725 196
-861 158 -42 -11 -34 -14 -206 79 -41 22 -165 77 -275 121 -110 43 -238 95
-285 115 -81 33 -180 56 -245 56 -16 0 -48 -9 -70 -19z m2014 -2518 c118 -121
242 -283 282 -368 77 -163 123 -431 85 -490 -35 -53 -46 -37 -86 122 -52 209
-112 339 -258 560 -141 212 -155 243 -110 243 13 0 46 -25 87 -67z"/>
<path d="M6890 5790 c0 -51 41 -97 107 -122 41 -16 41 -16 -4 46 -69 93 -103
118 -103 76z"/>
<path d="M4668 5779 c-69 -40 62 -155 292 -258 148 -66 172 -81 357 -219 87
-65 201 -148 253 -184 195 -135 341 -284 533 -543 196 -265 459 -686 567 -912
27 -56 60 -117 73 -136 24 -36 24 -36 20 61 -7 168 -22 262 -52 327 -79 169
-374 635 -527 831 -223 286 -351 406 -524 491 -151 73 -240 134 -358 246 -112
106 -173 141 -407 235 -168 67 -202 76 -227 61z"/>
<path d="M5372 5588 c-7 -7 -12 -18 -12 -24 0 -45 277 -230 333 -222 15 2 23
11 25 29 4 38 -95 125 -209 183 -94 48 -117 54 -137 34z"/>
<path d="M6910 5530 c0 -52 69 -170 143 -245 37 -37 39 -38 25 -10 -9 17 -32
70 -52 120 -41 102 -80 165 -101 165 -10 0 -15 -10 -15 -30z"/>
<path d="M3045 5226 c-16 -8 -53 -32 -82 -53 -52 -39 -52 -39 0 -70 29 -17 70
-37 92 -43 165 -51 451 -191 724 -355 105 -63 264 -152 354 -196 247 -124 365
-208 538 -386 188 -192 284 -353 515 -862 167 -367 190 -449 204 -726 5 -111
16 -220 23 -244 14 -44 14 -44 65 50 79 146 86 179 72 299 -18 160 -30 196
-163 509 -66 157 -334 705 -395 810 -108 186 -365 434 -642 620 -254 171 -632
391 -844 491 -132 63 -397 170 -418 170 -7 -1 -26 -7 -43 -14z"/>
<path d="M3033 4870 c-21 -9 -52 -29 -69 -43 -18 -15 -40 -27 -50 -27 -15 0
-14 -3 6 -17 14 -9 37 -27 51 -40 14 -13 102 -59 195 -102 348 -161 494 -278
494 -395 0 -77 -19 -84 -75 -25 -71 73 -239 173 -387 229 -92 35 -109 29 -187
-67 -42 -52 -42 -52 -4 -71 21 -11 73 -29 115 -41 42 -11 139 -44 215 -72 154
-58 237 -72 277 -46 23 16 25 15 68 -31 43 -46 246 -326 326 -450 23 -35 51
-93 62 -130 21 -63 196 -416 263 -529 24 -40 40 -55 73 -68 26 -10 62 -37 92
-69 57 -64 162 -261 227 -432 25 -65 60 -149 77 -186 32 -68 32 -68 46 -30 44
115 51 140 52 165 0 34 -81 214 -166 367 -65 118 -128 205 -272 376 -88 104
-249 337 -271 391 -14 34 -10 63 9 63 17 0 98 -79 164 -160 33 -40 114 -133
179 -205 66 -71 147 -173 182 -225 96 -145 310 -555 344 -656 16 -49 35 -104
43 -122 14 -32 14 -32 64 65 48 95 49 100 50 188 0 67 5 98 18 124 29 52 17
169 -28 298 -54 154 -299 690 -372 814 -204 349 -579 658 -799 659 -85 0 -121
17 -266 127 -78 58 -178 128 -222 156 -83 51 -424 220 -464 230 -11 2 -38 -3
-60 -13z m1067 -641 c116 -51 200 -106 307 -201 213 -191 352 -385 422 -594
17 -51 76 -183 130 -295 54 -112 125 -269 156 -349 78 -196 79 -258 1 -190
-25 22 -61 83 -125 213 -90 183 -205 384 -257 452 -15 20 -53 49 -83 65 -66
33 -100 64 -212 188 -46 52 -124 124 -174 161 -144 108 -258 248 -290 354 -18
61 -20 208 -3 225 17 17 24 16 128 -29z"/>
<path d="M4050 4101 c0 -45 70 -131 243 -296 87 -82 192 -193 235 -245 124
-152 142 -170 168 -170 21 0 24 5 24 39 0 101 -177 333 -420 549 -118 105
-186 152 -222 152 -24 0 -28 -4 -28 -29z"/>
<path d="M5890 4091 c-5 -11 -10 -39 -10 -63 0 -54 49 -393 92 -638 31 -178
32 -196 34 -485 1 -167 6 -316 12 -335 5 -19 10 -29 11 -21 1 7 35 97 76 200
89 222 89 223 45 476 -33 185 -53 325 -70 480 -22 208 -101 405 -161 405 -10
0 -23 -9 -29 -19z"/>
<path d="M3155 4071 c-16 -10 -46 -37 -66 -58 -36 -39 -36 -39 15 -66 28 -14
85 -38 126 -53 152 -53 294 -140 409 -248 198 -188 413 -542 352 -580 -20 -13
-45 12 -142 142 -169 227 -438 472 -517 472 -30 0 -71 -21 -110 -58 -31 -30
-31 -30 99 -118 165 -111 248 -182 374 -319 55 -60 140 -147 188 -194 100 -96
128 -145 195 -341 39 -111 102 -257 102 -234 0 6 12 28 26 49 14 21 31 62 37
90 9 45 7 65 -16 156 -14 57 -40 169 -57 248 -18 79 -43 175 -56 214 -32 95
-161 339 -237 451 -89 130 -253 292 -342 338 -81 41 -306 128 -332 128 -10 0
-31 -9 -48 -19z"/>
<path d="M3557 2987 c100 -104 141 -155 170 -210 19 -38 19 -38 15 30 -3 37
-11 81 -19 97 -23 45 -111 126 -137 126 -12 0 -44 11 -70 24 -48 24 -48 24 41
-67z"/>
<path d="M4330 2881 c-14 -27 -13 -63 5 -130 21 -83 128 -379 158 -436 25 -50
25 -50 56 15 43 90 41 133 -10 255 -81 197 -151 315 -185 315 -7 0 -18 -9 -24
-19z"/>
</g>
</svg>
