<?xml version="1.0" standalone="no"?>
<!DOCTYPE svg PUBLIC "-//W3C//DTD SVG 20010904//EN"
 "http://www.w3.org/TR/2001/REC-SVG-20010904/DTD/svg10.dtd">
<svg version="1.0" xmlns="http://www.w3.org/2000/svg"
 width="1000.000000pt" height="1000.000000pt" viewBox="0 0 1000.000000 1000.000000"
 preserveAspectRatio="xMidYMid meet">
<metadata>
  <rdf:RDF
    xmlns:rdf = "http://www.w3.org/1999/02/22-rdf-syntax-ns#"
    xmlns:rdfs = "http://www.w3.org/2000/01/rdf-schema#"
    xmlns:dc = "http://purl.org/dc/elements/1.1/"
    xmlns:cc = "http://creativecommons.org/ns#">
    <cc:license rdf:resource="http://creativecommons.org/publicdomain/zero/1.0/deed.en"/>
    <cc:permits rdf:resource="http://creativecommons.org/ns#Reproduction"/>
    <rdf:Description about="https://nft.mir.one/fingerprints"
      dc:title="TON Fingerprints"
      dc:description="This is a unique digital fingerprint created based on the algorithm for generating basic rings using a noise texture. Like human fingerprints, you can now use it for the Web3 and Metaverse era as digital biometric information."
      dc:publisher="https://nft.mir.one"
      dc:date="2022-02-22"
      dc:format="image/svg+xml"
      dc:language="en" >
      <dc:creator>
      <rdf:Bag>
        <rdf:li>EQBondcvD2_aOFADXSWJHs4ZazQDuEl9_wNvGGPxI8hGuOFU</rdf:li>
        <rdf:li>ipfs://bafkreihj7iub3fhmhq6jn62noukt5wxn3gv6bvcg7wmt6ywvlurefezckq</rdf:li>
      </rdf:Bag>
      </dc:creator>
    </rdf:Description>
  </rdf:RDF>
</metadata>
<g transform="translate(0.000000,1000.000000) scale(0.100000,-0.100000)"
fill="#1b1f23" stroke="none">
<path d="M4938 7803 c7 -3 16 -2 19 1 4 3 -2 6 -13 5 -11 0 -14 -3 -6 -6z"/>
<path d="M4970 7797 c7 -7 611 -109 616 -104 7 6 -270 66 -381 81 -132 19
-241 30 -235 23z"/>
<path d="M4585 7700 c-22 -5 -100 -27 -173 -49 -74 -23 -152 -44 -175 -47 -58
-9 -76 -20 -49 -28 12 -4 27 -16 32 -26 5 -10 43 -35 84 -54 74 -36 74 -36
115 -121 95 -199 233 -287 796 -510 374 -148 429 -172 685 -295 124 -59 243
-113 265 -120 136 -42 211 -86 400 -235 180 -141 302 -222 356 -239 47 -13 47
-13 5 43 -23 31 -68 90 -98 131 -127 170 -185 227 -312 311 -223 148 -603 323
-1144 525 -526 197 -678 268 -755 354 -34 37 -50 90 -28 90 5 0 40 -14 78 -31
104 -47 343 -141 488 -192 72 -25 229 -80 350 -122 519 -181 801 -311 1092
-506 39 -27 94 -57 122 -68 52 -19 52 -19 -21 62 -195 220 -396 394 -523 453
-103 47 -341 130 -675 234 -162 50 -387 121 -499 156 -266 84 -323 94 -396 69
-53 -18 -56 -18 -75 0 -26 24 -25 57 3 82 75 69 124 65 487 -36 626 -175 821
-232 1005 -289 105 -33 216 -61 248 -64 58 -5 58 -5 -25 44 -365 212 -661 316
-1173 413 -105 19 -234 44 -287 55 -102 21 -138 23 -203 10z"/>
<path d="M5608 7683 c7 -3 16 -2 19 1 4 3 -2 6 -13 5 -11 0 -14 -3 -6 -6z"/>
<path d="M4000 7270 c-78 -14 -310 -87 -326 -102 -2 -3 11 -18 29 -35 22 -21
87 -52 207 -98 96 -38 270 -106 385 -153 116 -46 424 -170 685 -274 720 -288
814 -339 1011 -548 119 -125 156 -151 279 -196 90 -32 205 -89 359 -178 77
-44 128 -67 160 -71 25 -3 75 -15 111 -27 163 -52 154 -50 139 -29 -8 10 -29
41 -48 67 -94 134 -161 202 -254 259 -148 93 -232 161 -311 254 -113 133 -229
201 -265 157 -19 -23 -7 -46 73 -135 73 -81 86 -121 41 -121 -15 0 -38 6 -53
14 -39 20 -126 115 -151 164 -77 151 -270 257 -981 542 -330 132 -522 227
-712 352 -251 165 -278 176 -378 158z"/>
<path d="M3549 6861 c-26 -10 -82 -42 -125 -72 -78 -54 -78 -54 -35 -63 34 -7
64 -4 140 14 124 29 171 53 171 84 0 56 -64 71 -151 37z"/>
<path d="M3801 6729 c-14 -5 -43 -27 -67 -48 -48 -45 -88 -71 -206 -136 -93
-52 -175 -127 -277 -255 -78 -98 -244 -344 -214 -318 11 10 33 19 49 20 16 1
40 9 54 18 14 9 85 49 158 89 79 44 176 107 240 158 176 141 301 192 492 200
235 11 518 -58 950 -230 91 -36 217 -79 281 -96 146 -37 211 -63 422 -168 179
-88 236 -103 255 -65 14 26 0 52 -56 104 -70 65 -187 140 -317 203 -234 113
-1050 413 -1305 479 -188 50 -397 70 -459 45z"/>
<path d="M3975 6270 c-188 -21 -328 -89 -311 -153 10 -42 41 -47 281 -47 253
0 394 -15 584 -60 290 -70 504 -197 406 -242 -22 -10 -56 -4 -235 41 -329 83
-385 90 -785 101 -192 6 -368 8 -390 4 -65 -9 -163 -42 -260 -88 -104 -49
-125 -70 -246 -248 -80 -118 -80 -118 -45 -118 20 0 91 22 158 49 228 91 472
164 648 193 41 7 156 12 255 12 196 0 308 -13 590 -69 94 -18 217 -41 275 -50
135 -22 227 -56 413 -153 311 -161 490 -307 463 -377 -11 -30 -62 -15 -186 56
-210 118 -438 226 -580 273 -149 50 -504 125 -718 151 -94 12 -179 16 -290 13
-179 -5 -210 -14 -312 -83 -60 -41 -77 -46 -220 -75 -168 -33 -329 -75 -372
-97 -25 -12 -91 -91 -132 -158 -10 -16 -30 -42 -44 -57 -26 -28 -26 -28 25
-28 28 0 89 9 135 20 273 64 433 68 693 17 99 -20 268 -52 375 -72 522 -97
847 -199 1225 -385 339 -167 553 -346 793 -666 146 -194 294 -475 342 -649 12
-44 32 -104 43 -133 21 -53 21 -53 40 70 11 78 17 160 15 223 -4 96 -5 104
-54 205 -138 287 -349 586 -551 781 -158 152 -254 216 -493 328 -530 249 -829
341 -1410 431 -107 16 -224 39 -260 50 -75 22 -116 57 -105 89 6 20 13 21 148
21 235 0 535 -43 852 -122 199 -50 374 -114 625 -230 107 -49 247 -107 311
-128 137 -45 165 -59 240 -116 273 -209 533 -556 759 -1009 47 -94 96 -184
109 -200 24 -30 24 -30 18 125 -9 232 -13 246 -134 470 -153 282 -255 426
-473 665 -107 117 -181 212 -238 307 -102 167 -184 243 -405 373 -270 160
-298 177 -347 216 -39 31 -58 57 -91 125 -23 47 -57 101 -75 119 -123 124
-503 254 -829 285 -120 11 -127 11 -230 0z"/>
<path d="M5223 5983 c-7 -2 -13 -17 -13 -33 0 -57 88 -121 380 -275 337 -177
364 -199 472 -373 76 -123 160 -233 332 -432 214 -248 269 -331 354 -530 57
-133 137 -279 176 -318 32 -33 32 -33 19 50 -7 46 -25 144 -40 219 -15 74 -24
143 -20 152 10 26 40 21 83 -14 70 -56 76 -56 52 -2 -33 75 -117 193 -174 246
-82 75 -596 653 -623 700 -31 54 -24 77 22 77 36 0 99 -36 174 -98 24 -20 129
-130 234 -244 214 -233 333 -347 403 -382 36 -18 43 -20 31 -7 -8 10 -29 55
-46 101 -65 178 -103 243 -208 354 -54 56 -125 139 -158 182 -76 99 -156 173
-236 218 -80 45 -394 151 -506 171 -124 23 -166 38 -356 127 -235 111 -302
132 -352 111z"/>
<path d="M6787 5493 c-16 -15 -5 -63 24 -102 44 -61 198 -208 242 -230 37 -19
37 -19 -23 99 -69 134 -118 203 -160 225 -30 16 -72 20 -83 8z"/>
<path d="M3320 4934 c-14 -2 -65 -9 -115 -15 -120 -14 -137 -22 -186 -88 -24
-31 -55 -73 -71 -93 -29 -38 -29 -38 8 -53 47 -19 77 -19 259 5 179 23 380 25
525 5 183 -26 610 -106 753 -141 251 -62 561 -171 739 -260 193 -97 322 -189
487 -349 190 -184 344 -392 515 -695 70 -123 113 -180 136 -180 15 0 30 61 30
121 0 122 -135 390 -324 643 -294 394 -599 612 -1135 811 -275 101 -676 196
-1151 270 -99 16 -416 29 -470 19z"/>
<path d="M3326 4514 c-38 -7 -97 -23 -132 -34 -73 -25 -89 -45 -144 -185 -18
-44 -36 -84 -41 -89 -36 -38 24 -27 176 34 156 62 276 91 400 97 109 5 155 -5
155 -35 0 -22 -32 -53 -77 -76 -18 -9 -124 -46 -235 -82 -139 -45 -211 -74
-229 -91 -15 -13 -41 -57 -59 -96 -18 -40 -40 -80 -48 -89 -14 -17 -8 -17 101
-13 137 5 207 25 459 136 284 124 321 138 413 154 50 9 146 16 215 16 161 0
249 -18 298 -63 50 -48 12 -81 -108 -93 -92 -10 -181 -31 -248 -59 -32 -14
-124 -43 -203 -65 -235 -64 -397 -134 -502 -216 -115 -91 -132 -141 -121 -357
6 -137 6 -137 63 -76 175 190 247 243 396 294 67 23 97 28 185 28 95 0 115 -4
214 -37 134 -46 325 -137 432 -205 91 -58 211 -176 243 -240 12 -23 28 -80 36
-125 17 -96 117 -432 147 -492 11 -22 33 -53 48 -70 21 -23 29 -44 34 -87 9
-83 15 -94 34 -66 9 13 40 51 69 85 29 35 65 86 80 115 27 51 28 59 28 193 0
166 -19 260 -72 368 -30 60 -63 99 -192 231 -86 87 -196 191 -244 232 -85 72
-89 74 -140 74 -44 0 -64 7 -113 36 -32 20 -115 63 -184 96 -140 67 -160 81
-160 115 0 37 38 46 175 40 108 -4 132 -8 236 -44 64 -23 129 -48 145 -56 47
-24 310 -255 406 -355 101 -107 167 -196 204 -276 49 -107 70 -444 39 -631 -8
-49 -15 -112 -15 -139 0 -49 0 -49 52 30 28 44 67 113 87 154 31 65 36 86 39
160 2 47 -3 126 -11 175 -17 114 -13 137 21 133 35 -4 75 -63 107 -160 42
-123 43 -172 7 -243 -21 -42 -32 -80 -36 -127 -5 -68 -5 -68 34 8 65 125 102
148 148 89 19 -24 19 -24 31 43 7 37 15 99 18 137 5 66 3 74 -32 140 -48 91
-99 158 -204 269 -48 50 -125 138 -171 196 -176 219 -369 388 -612 534 -69 42
-131 82 -137 90 -18 22 -10 48 21 65 39 22 120 3 243 -58 263 -130 501 -359
833 -800 64 -84 144 -201 178 -260 35 -58 76 -122 92 -142 28 -36 28 -36 42
45 8 44 15 109 14 143 0 54 -4 68 -31 105 -18 24 -78 110 -135 193 -173 252
-274 380 -400 511 -238 246 -439 378 -702 461 -61 19 -199 63 -306 98 -216 70
-333 95 -585 124 -102 12 -206 31 -260 47 -50 15 -117 33 -150 40 -76 17 -269
16 -359 -2z m1840 -1549 c66 -66 109 -216 109 -382 0 -108 -2 -125 -21 -150
-36 -48 -48 -37 -56 52 -10 108 -32 215 -74 351 -19 63 -34 123 -34 134 0 29
45 26 76 -5z"/>
<path d="M3214 3653 c-10 -27 -22 -54 -28 -61 -5 -8 7 -3 28 9 41 24 62 58 53
83 -12 30 -35 16 -53 -31z"/>
<path d="M4737 3653 c-14 -13 -6 -40 16 -61 32 -30 47 -28 47 6 0 40 -42 76
-63 55z"/>
<path d="M3930 3314 c-110 -29 -240 -105 -276 -159 -13 -20 -19 -58 -23 -151
-3 -68 -5 -124 -4 -124 9 0 86 51 118 78 49 41 143 88 215 107 122 33 310 10
432 -51 185 -92 307 -233 433 -498 35 -72 71 -156 80 -186 26 -79 65 -160 65
-134 0 12 10 43 21 70 36 81 31 140 -24 284 -125 323 -179 424 -282 525 -195
192 -532 298 -755 239z"/>
<path d="M3968 2874 c-58 -18 -70 -38 -91 -149 -8 -44 -14 -81 -13 -81 0 -1
35 4 76 12 97 17 215 18 271 1 159 -49 326 -192 458 -394 28 -42 28 -42 46 16
12 39 16 79 13 118 -3 50 -11 71 -53 134 -27 41 -89 115 -139 164 -101 101
-186 152 -297 179 -80 20 -208 20 -271 0z"/>
</g>
</svg>
