<?xml version="1.0" standalone="no"?>
<!DOCTYPE svg PUBLIC "-//W3C//DTD SVG 20010904//EN"
 "http://www.w3.org/TR/2001/REC-SVG-20010904/DTD/svg10.dtd">
<svg version="1.0" xmlns="http://www.w3.org/2000/svg"
 width="1000.000000pt" height="1000.000000pt" viewBox="0 0 1000.000000 1000.000000"
 preserveAspectRatio="xMidYMid meet">
<metadata>
  <rdf:RDF
    xmlns:rdf = "http://www.w3.org/1999/02/22-rdf-syntax-ns#"
    xmlns:rdfs = "http://www.w3.org/2000/01/rdf-schema#"
    xmlns:dc = "http://purl.org/dc/elements/1.1/"
    xmlns:cc = "http://creativecommons.org/ns#">
    <cc:license rdf:resource="http://creativecommons.org/publicdomain/zero/1.0/deed.en"/>
    <cc:permits rdf:resource="http://creativecommons.org/ns#Reproduction"/>
    <rdf:Description about="https://nft.mir.one/fingerprints"
      dc:title="TON Fingerprints"
      dc:description="This is a unique digital fingerprint created based on the algorithm for generating basic rings using a noise texture. Like human fingerprints, you can now use it for the Web3 and Metaverse era as digital biometric information."
      dc:publisher="https://nft.mir.one"
      dc:date="2022-02-22"
      dc:format="image/svg+xml"
      dc:language="en" >
      <dc:creator>
      <rdf:Bag>
        <rdf:li>EQBondcvD2_aOFADXSWJHs4ZazQDuEl9_wNvGGPxI8hGuOFU</rdf:li>
        <rdf:li>ipfs://bafkreihj7iub3fhmhq6jn62noukt5wxn3gv6bvcg7wmt6ywvlurefezckq</rdf:li>
      </rdf:Bag>
      </dc:creator>
    </rdf:Description>
  </rdf:RDF>
</metadata>
<g transform="translate(0.000000,1000.000000) scale(0.100000,-0.100000)"
fill="#1b1f23" stroke="none">
<path d="M4995 7693 c-391 -24 -638 -99 -900 -274 -177 -118 -336 -293 -388
-426 -31 -79 -77 -334 -87 -477 -11 -158 -17 -198 -66 -411 -46 -198 -71 -358
-84 -535 -16 -230 -28 -277 -77 -316 -27 -21 -27 -21 -14 -90 54 -296 300
-722 581 -1005 163 -165 322 -259 504 -296 93 -19 161 -13 200 18 45 35 34 46
-91 84 -217 68 -363 154 -514 305 -205 205 -388 515 -439 747 -25 113 -25 219
1 451 39 354 85 546 201 842 51 128 63 169 69 240 9 111 15 132 57 214 68 131
261 308 457 420 84 48 377 176 402 176 7 0 13 -12 13 -27 0 -41 -61 -90 -215
-172 -326 -171 -535 -343 -535 -438 0 -52 32 -43 158 46 62 44 161 108 220
144 177 106 523 285 602 312 142 48 518 111 805 135 72 6 160 16 196 22 67 12
67 12 -20 35 -47 13 -120 33 -161 44 -185 51 -524 30 -917 -57 -111 -25 -111
-25 -149 1 -97 66 -335 -1 -578 -162 -71 -47 -138 -104 -226 -193 -128 -130
-161 -156 -186 -146 -20 8 -17 40 7 89 118 233 434 463 739 537 47 11 153 25
235 30 83 6 240 19 350 30 110 10 243 22 295 26 58 4 117 15 150 27 55 22 55
22 -40 28 -52 4 -149 12 -215 18 -112 10 -222 12 -340 4z"/>
<path d="M5735 7195 c-567 -58 -804 -136 -1333 -439 -151 -87 -240 -126 -285
-126 -34 0 -74 -34 -87 -76 -10 -31 -10 -39 4 -52 44 -44 157 -7 486 158 457
229 614 277 1020 315 91 8 242 22 335 31 179 17 336 14 450 -9 33 -7 82 -11
109 -9 49 3 49 3 -35 54 -262 157 -372 182 -664 153z"/>
<path d="M6006 6863 c-17 -3 -62 -18 -102 -33 -72 -29 -72 -29 -300 -29 -250
0 -395 -14 -556 -55 -134 -34 -197 -62 -602 -261 -333 -165 -363 -182 -416
-236 -166 -169 -275 -561 -274 -989 0 -170 3 -193 28 -285 62 -226 206 -466
382 -636 103 -99 180 -152 344 -238 135 -71 190 -114 190 -150 0 -38 192 -40
370 -4 248 49 432 153 679 385 123 115 170 146 203 131 18 -8 12 -18 -63 -113
-281 -358 -564 -517 -1054 -591 -294 -45 -450 -28 -650 70 -217 107 -379 278
-693 733 -185 268 -230 362 -363 759 -72 215 -80 246 -85 340 -7 113 5 248 36
399 11 52 18 96 16 98 -5 5 -61 -233 -81 -343 -26 -145 -30 -299 -11 -373 10
-36 23 -155 31 -275 7 -117 18 -225 25 -242 30 -79 158 -275 226 -345 39 -41
129 -154 199 -250 286 -391 401 -521 532 -599 273 -162 599 -200 993 -116 272
58 538 198 736 387 187 179 286 359 243 440 -12 22 9 60 126 233 40 60 69 115
84 165 36 115 63 160 96 160 18 0 30 -69 38 -210 4 -91 11 -203 13 -249 6 -95
-8 -170 -63 -345 -67 -212 -128 -305 -332 -504 -229 -224 -363 -319 -586 -413
-245 -104 -439 -141 -720 -141 -369 1 -614 60 -945 228 -173 87 -300 165 -394
242 -95 79 -168 134 -171 130 -8 -9 204 -276 278 -350 120 -120 191 -172 320
-233 195 -93 365 -140 602 -167 143 -16 526 -16 630 1 181 28 367 92 577 197
156 78 243 138 313 213 33 35 148 153 256 260 108 108 213 223 234 255 35 54
39 68 46 150 4 54 20 136 39 200 96 330 90 607 -19 800 -15 28 -50 116 -76
196 -49 149 -103 270 -154 344 -37 54 -104 114 -135 122 -76 19 -84 -28 -26
-156 69 -155 92 -235 98 -341 5 -112 -4 -163 -59 -302 -71 -181 -134 -269
-307 -428 -279 -255 -510 -373 -755 -386 -129 -7 -208 12 -362 87 -258 126
-423 272 -547 483 -147 253 -182 494 -124 876 40 265 65 347 142 463 94 141
239 239 557 378 54 23 119 60 145 81 96 80 195 106 432 116 290 12 442 -23
684 -154 327 -176 498 -308 624 -478 60 -81 67 -96 196 -418 124 -307 162
-419 206 -600 49 -199 49 -217 1 -338 -23 -57 -58 -130 -77 -161 -19 -31 -66
-123 -104 -204 -39 -81 -90 -174 -114 -208 -61 -85 -302 -319 -476 -463 -162
-133 -200 -173 -200 -209 0 -20 5 -24 32 -24 37 0 63 15 297 167 318 208 449
369 551 678 53 162 69 195 95 195 34 0 49 -26 56 -94 6 -61 6 -61 7 0 1 34 -4
80 -12 102 -12 32 -12 56 -5 112 13 91 24 121 48 127 21 5 35 29 26 43 -3 5
-19 114 -35 242 -36 282 -65 413 -136 623 -82 238 -90 270 -76 319 11 39 9 46
-28 121 -99 203 -323 395 -660 565 -87 44 -172 93 -189 109 -34 32 -41 68 -14
78 25 10 138 -13 244 -48 195 -65 357 -158 514 -296 50 -43 113 -95 141 -114
50 -36 50 -36 -50 115 -150 224 -326 399 -447 442 -86 30 -253 49 -333 37z"/>
<path d="M3394 6798 c-16 -34 -51 -98 -77 -143 -49 -80 -49 -80 -7 -40 23 22
49 53 57 69 18 35 64 168 60 173 -2 1 -17 -25 -33 -59z"/>
<path d="M3396 6501 c-38 -42 -128 -312 -178 -531 -19 -89 -23 -132 -23 -285
0 -184 13 -270 52 -350 22 -43 64 -85 85 -85 17 0 18 15 17 253 -2 284 5 351
72 652 51 227 57 290 35 333 -19 37 -36 40 -60 13z"/>
<path d="M4924 6454 c-12 -3 -30 -14 -40 -25 -28 -31 -8 -52 57 -62 89 -13
114 -22 117 -40 6 -28 -55 -46 -180 -53 -126 -6 -216 -28 -323 -79 -109 -52
-194 -111 -271 -189 -123 -125 -180 -280 -123 -332 23 -21 7 -35 159 136 147
167 293 244 616 326 120 31 235 60 254 65 89 22 267 3 406 -45 139 -47 446
-224 579 -333 128 -106 224 -268 339 -574 86 -230 106 -315 113 -469 8 -187
-21 -320 -136 -629 -34 -91 -33 -121 4 -121 53 0 152 165 239 402 53 144 67
203 73 310 9 162 -40 369 -158 665 -154 386 -283 558 -554 738 -229 153 -443
243 -640 270 -228 31 -482 49 -531 39z"/>
<path d="M3101 6184 c0 -11 3 -14 6 -6 3 7 2 16 -1 19 -3 4 -6 -2 -5 -13z"/>
<path d="M5145 6033 c-100 -12 -233 -39 -315 -65 -167 -53 -270 -112 -454
-262 -43 -36 -91 -69 -107 -75 -16 -6 -42 -16 -58 -22 -56 -21 -108 -178 -118
-355 -10 -183 18 -318 100 -482 117 -236 371 -440 627 -503 268 -67 594 52
858 314 185 182 282 394 282 613 0 71 -7 119 -31 210 -31 119 -47 189 -69 297
-9 47 -20 66 -59 106 -157 161 -424 252 -656 224z m219 -227 c43 -15 100 -39
125 -53 233 -135 352 -519 252 -810 -41 -118 -84 -186 -181 -283 -71 -72 -101
-94 -180 -132 -283 -139 -487 -148 -710 -32 -239 124 -390 374 -390 643 0 178
42 275 174 407 129 128 257 207 413 254 110 33 158 39 293 36 104 -3 138 -8
204 -30z"/>
<path d="M4900 5656 c-139 -41 -233 -98 -328 -201 -98 -105 -142 -211 -142
-345 0 -154 55 -284 165 -396 176 -177 420 -211 629 -89 38 22 53 26 86 20
105 -18 232 112 296 301 34 99 38 244 10 338 -58 195 -194 334 -372 380 -93
24 -250 20 -344 -8z m332 -203 c85 -40 151 -106 190 -188 80 -172 55 -346 -76
-522 -25 -35 -53 -63 -61 -63 -25 0 -27 44 -4 106 64 172 72 274 30 369 -85
193 -341 240 -482 88 -52 -57 -71 -103 -71 -175 0 -145 124 -249 241 -202 60
24 87 85 61 135 -13 23 -48 25 -56 4 -7 -18 -45 -20 -62 -3 -23 23 -14 82 16
112 86 82 232 -6 232 -139 0 -105 -81 -221 -170 -245 -145 -39 -307 46 -378
198 -23 49 -27 70 -27 152 0 83 4 103 27 153 54 115 139 190 266 234 56 20 83
23 162 20 82 -2 104 -7 162 -34z"/>
<path d="M6880 5860 c0 -18 92 -154 153 -225 10 -12 -33 85 -68 155 -13 26
-31 55 -40 64 -18 18 -45 22 -45 6z"/>
<path d="M2970 4765 c0 -71 33 -314 56 -414 44 -193 161 -435 276 -573 58 -70
174 -142 428 -267 316 -155 471 -204 725 -232 129 -14 372 -6 490 15 384 69
671 222 961 514 184 185 261 323 329 592 41 163 30 245 -29 207 -32 -21 -67
-98 -105 -231 -40 -136 -92 -237 -177 -344 -205 -257 -515 -454 -851 -542
-263 -69 -595 -69 -843 0 -236 66 -484 217 -519 316 -21 62 -52 111 -156 244
-54 69 -136 184 -183 255 -124 189 -165 226 -192 175 -14 -27 1 -84 49 -181
73 -145 165 -270 319 -432 46 -48 82 -93 79 -100 -2 -7 -20 -12 -44 -11 -95 1
-276 183 -406 409 -62 108 -94 209 -106 336 -13 138 -69 329 -96 329 -3 0 -5
-29 -5 -65z"/>
<path d="M6946 4005 c-9 -26 -7 -32 5 -12 6 10 9 21 6 23 -2 3 -7 -2 -11 -11z"/>
<path d="M6909 3922 c-38 -68 -182 -258 -242 -320 -78 -80 -135 -118 -224
-150 -44 -15 -128 -56 -186 -91 -124 -73 -180 -96 -259 -106 -40 -5 -87 -23
-160 -62 -333 -175 -560 -276 -726 -321 -94 -25 -105 -26 -392 -26 -540 -1
-745 33 -1020 166 -96 46 -250 110 -250 103 0 -1 57 -50 128 -107 149 -124
266 -202 389 -260 88 -43 88 -43 328 -49 132 -4 355 -12 495 -19 140 -7 275
-9 301 -6 72 10 148 39 256 99 83 45 355 179 778 382 50 24 148 82 219 129 70
47 135 86 142 86 22 0 16 -41 -11 -80 -79 -115 -309 -250 -890 -527 -147 -70
-199 -110 -219 -168 -12 -37 -19 -42 -82 -68 -38 -15 -98 -40 -133 -54 -36
-15 -87 -47 -115 -71 -90 -81 -196 -111 -421 -121 -140 -6 -140 -6 -49 -19
109 -15 314 -16 404 -2 36 6 130 33 210 59 80 27 208 63 285 79 285 61 508
169 796 388 55 41 99 77 99 79 0 2 -28 -13 -62 -34 -98 -59 -399 -206 -514
-251 -197 -76 -314 -96 -374 -65 -43 22 -38 42 13 55 174 44 499 185 671 292
189 117 396 312 475 448 24 41 66 105 92 142 77 106 182 289 234 404 50 113
56 142 14 66z"/>
<path d="M4170 2575 c-7 -9 -11 -17 -9 -19 15 -13 95 -47 154 -65 311 -92 639
-89 653 7 6 42 -44 54 -263 64 -110 4 -244 12 -299 18 -145 15 -221 13 -236
-5z"/>
</g>
</svg>
