<?xml version="1.0" standalone="no"?>
<!DOCTYPE svg PUBLIC "-//W3C//DTD SVG 20010904//EN"
 "http://www.w3.org/TR/2001/REC-SVG-20010904/DTD/svg10.dtd">
<svg version="1.0" xmlns="http://www.w3.org/2000/svg"
 width="1000.000000pt" height="1000.000000pt" viewBox="0 0 1000.000000 1000.000000"
 preserveAspectRatio="xMidYMid meet">
<metadata>
  <rdf:RDF
    xmlns:rdf = "http://www.w3.org/1999/02/22-rdf-syntax-ns#"
    xmlns:rdfs = "http://www.w3.org/2000/01/rdf-schema#"
    xmlns:dc = "http://purl.org/dc/elements/1.1/"
    xmlns:cc = "http://creativecommons.org/ns#">
    <cc:license rdf:resource="http://creativecommons.org/publicdomain/zero/1.0/deed.en"/>
    <cc:permits rdf:resource="http://creativecommons.org/ns#Reproduction"/>
    <rdf:Description about="https://nft.mir.one/fingerprints"
      dc:title="TON Fingerprints"
      dc:description="This is a unique digital fingerprint created based on the algorithm for generating basic rings using a noise texture. Like human fingerprints, you can now use it for the Web3 and Metaverse era as digital biometric information."
      dc:publisher="https://nft.mir.one"
      dc:date="2022-02-22"
      dc:format="image/svg+xml"
      dc:language="en" >
      <dc:creator>
      <rdf:Bag>
        <rdf:li>EQBondcvD2_aOFADXSWJHs4ZazQDuEl9_wNvGGPxI8hGuOFU</rdf:li>
        <rdf:li>ipfs://bafkreihj7iub3fhmhq6jn62noukt5wxn3gv6bvcg7wmt6ywvlurefezckq</rdf:li>
      </rdf:Bag>
      </dc:creator>
    </rdf:Description>
  </rdf:RDF>
</metadata>
<g transform="translate(0.000000,1000.000000) scale(0.100000,-0.100000)"
fill="#1b1f23" stroke="none">
<path d="M4685 7734 c-153 -23 -444 -99 -431 -111 2 -3 40 3 83 11 122 25 435
56 571 56 318 0 580 -60 847 -195 190 -96 521 -307 625 -399 19 -17 10 -4 -20
28 -80 85 -258 228 -395 318 -245 161 -478 252 -750 293 -125 19 -407 18 -530
-1z"/>
<path d="M4667 7535 c-193 -31 -377 -93 -513 -173 -153 -89 -475 -353 -694
-570 -129 -127 -150 -152 -125 -146 57 11 122 51 470 291 193 133 388 261 435
286 105 57 293 120 420 142 423 72 956 -30 1005 -193 11 -36 -13 -35 -127 3
-172 57 -311 78 -538 79 -351 1 -557 -57 -809 -228 -425 -288 -846 -595 -926
-674 -105 -103 -199 -310 -244 -537 -43 -214 -51 -299 -51 -542 0 -472 38
-755 142 -1058 68 -199 152 -359 283 -540 36 -49 92 -126 123 -169 141 -196
391 -324 677 -346 612 -46 980 0 1260 160 42 25 94 60 116 78 36 31 39 36 33
72 -12 75 30 169 171 380 305 457 387 856 254 1238 -64 182 -160 324 -281 417
-70 53 -258 155 -367 199 -219 88 -464 106 -623 46 -64 -24 -88 -46 -88 -81 0
-48 27 -56 210 -62 251 -8 378 -50 500 -163 55 -52 55 -52 35 -90 -17 -34 -19
-61 -20 -224 0 -177 -1 -188 -26 -248 -90 -211 -236 -349 -424 -397 -177 -45
-410 16 -480 127 -42 67 13 75 158 23 54 -19 128 -38 165 -41 299 -27 542 226
501 523 -13 92 -31 146 -66 192 -34 45 -47 56 -106 87 -121 63 -300 53 -482
-27 -118 -52 -170 -99 -229 -207 -48 -88 -70 -110 -94 -96 -12 8 -18 28 -20
63 -4 68 33 150 117 258 74 96 80 140 23 158 -58 18 -201 -95 -255 -201 -79
-156 -76 -288 13 -554 94 -278 215 -404 439 -456 84 -20 247 -20 326 1 99 25
216 88 282 152 77 75 240 319 265 396 25 81 24 215 -3 337 -12 52 -22 109 -23
125 -1 26 3 30 29 33 17 1 47 7 67 14 121 36 258 -122 354 -407 85 -252 47
-513 -117 -800 -105 -185 -242 -340 -327 -371 -26 -9 -121 -48 -212 -85 -252
-103 -380 -130 -621 -130 -286 1 -423 35 -828 209 -194 84 -247 118 -350 229
-137 146 -233 310 -295 503 -52 162 -68 269 -73 500 -5 205 -5 205 -41 259
-35 51 -37 58 -40 147 -4 102 8 213 39 368 34 167 104 307 210 421 66 70 115
98 130 74 17 -28 8 -58 -57 -190 -87 -176 -125 -278 -167 -446 -60 -239 -68
-373 -23 -381 20 -4 59 28 86 73 10 16 46 109 80 205 52 148 117 314 267 679
66 161 224 306 529 487 102 60 148 93 163 118 125 202 528 287 1065 225 196
-23 250 -20 303 12 34 21 34 21 96 -1 160 -58 384 -193 572 -345 155 -126 185
-139 185 -82 0 50 -67 146 -179 257 -117 117 -204 183 -437 335 -269 175 -393
228 -624 272 -119 22 -475 27 -593 8z m9 -2300 c8 -21 14 -69 14 -122 0 -64 5
-99 19 -128 36 -79 111 -125 201 -125 58 0 99 18 129 56 47 60 7 141 -42 84
-23 -27 -43 -25 -78 9 -23 23 -29 38 -29 71 0 35 6 48 35 77 33 33 39 35 84
31 93 -9 151 -83 151 -191 0 -183 -196 -301 -401 -241 -118 35 -208 107 -229
183 -14 52 6 151 49 246 44 96 71 110 97 50z m831 -1561 c20 -52 -108 -190
-229 -248 -193 -91 -354 -120 -673 -120 -263 0 -412 18 -573 70 -205 66 -391
203 -366 268 11 29 63 17 197 -43 279 -124 456 -163 757 -164 253 -1 404 25
582 99 54 23 81 37 212 118 66 40 84 44 93 20z"/>
<path d="M3869 7363 c-13 -16 -12 -17 4 -4 9 7 17 15 17 17 0 8 -8 3 -21 -13z"/>
<path d="M3829 7333 c-13 -16 -12 -17 4 -4 9 7 17 15 17 17 0 8 -8 3 -21 -13z"/>
<path d="M4930 6974 c-290 -24 -542 -94 -572 -159 -25 -56 43 -66 233 -36 290
45 484 52 730 26 350 -37 543 -105 847 -299 183 -117 251 -174 322 -267 76
-102 130 -215 191 -401 84 -257 126 -453 154 -716 8 -79 18 -148 21 -153 10
-17 45 12 61 49 11 27 16 70 16 152 -1 180 -26 333 -113 697 -75 308 -116 414
-220 568 -66 97 -87 114 -153 125 -76 12 -120 33 -267 129 -158 104 -343 196
-441 220 -126 32 -677 76 -809 65z"/>
<path d="M4805 6683 c-16 -2 -139 -17 -272 -34 -304 -37 -373 -60 -543 -180
-165 -117 -247 -228 -308 -419 -16 -52 -64 -167 -105 -255 -91 -195 -241 -578
-263 -671 -34 -142 -15 -374 44 -542 57 -161 134 -267 271 -372 42 -32 114
-95 161 -140 47 -44 111 -99 144 -122 123 -85 298 -157 476 -195 120 -25 410
-25 530 0 176 38 385 122 506 205 155 104 339 367 403 576 27 87 37 214 22
291 -17 92 -163 404 -215 463 -36 40 -91 71 -103 58 -8 -8 4 -50 43 -156 35
-98 42 -201 19 -290 -22 -82 -23 -337 -1 -358 11 -12 17 -10 34 8 26 28 40 88
51 222 10 112 14 128 35 128 24 0 40 -62 40 -150 -1 -105 -22 -181 -71 -251
-20 -30 -64 -94 -97 -144 -111 -164 -220 -262 -375 -340 -167 -84 -318 -119
-516 -119 -212 -1 -369 34 -535 120 -103 53 -152 92 -174 139 -38 78 28 86
165 19 193 -94 304 -128 474 -144 356 -35 736 145 856 405 22 49 29 81 34 167
6 96 5 109 -10 114 -25 10 -49 -21 -85 -106 -43 -104 -81 -159 -155 -229 -76
-71 -160 -120 -270 -157 -66 -22 -103 -28 -211 -32 -203 -7 -348 30 -522 133
-201 120 -256 192 -312 412 -91 353 1 696 235 872 31 24 109 68 173 99 65 31
150 76 189 100 157 94 299 128 493 118 423 -21 822 -273 1003 -631 32 -64 83
-208 101 -289 102 -438 -53 -943 -448 -1461 -42 -55 -76 -103 -76 -108 0 -4
11 -12 24 -17 53 -20 140 26 232 122 67 70 99 119 169 258 106 211 183 427
231 650 27 121 27 449 1 568 -125 567 -488 941 -1027 1058 -118 26 -391 26
-507 1 -228 -49 -526 -191 -715 -341 -132 -105 -250 -298 -304 -501 -25 -90
-28 -117 -28 -275 0 -163 2 -185 32 -313 45 -194 42 -267 -12 -267 -60 0 -150
170 -192 363 -22 99 -21 299 0 402 57 269 204 567 329 669 45 36 328 206 429
257 423 213 935 223 1343 24 271 -132 465 -326 600 -600 183 -374 230 -751
139 -1128 -42 -174 -103 -363 -155 -485 -28 -64 -64 -154 -79 -199 -34 -99
-67 -148 -151 -229 -89 -84 -134 -113 -326 -207 -259 -127 -353 -161 -533
-192 -208 -35 -373 -44 -630 -34 -180 7 -230 6 -310 -7 -113 -19 -163 -15
-287 27 -174 58 -346 158 -476 278 -34 31 -80 69 -102 85 -22 16 -55 43 -74
60 -33 29 -32 27 14 -39 201 -292 396 -464 725 -640 250 -134 368 -165 795
-210 346 -37 458 -30 687 39 229 70 432 175 647 336 155 115 209 167 370 348
202 228 251 296 419 582 9 14 0 7 -19 -15 -142 -167 -311 -332 -521 -506 -318
-264 -452 -357 -663 -459 -286 -138 -484 -176 -860 -167 -396 9 -652 65 -663
144 -5 31 18 34 141 18 303 -38 572 -46 737 -20 52 8 133 19 178 25 236 26
604 209 898 446 54 44 147 112 205 152 76 52 143 110 240 209 147 150 204 231
269 383 122 281 204 718 204 1090 1 216 -9 290 -75 597 -21 101 -39 194 -39
207 0 14 -5 28 -10 31 -20 13 -2 -101 70 -435 24 -113 33 -180 37 -300 5 -150
4 -159 -26 -285 -18 -71 -47 -204 -66 -295 -42 -201 -73 -313 -126 -445 -69
-174 -137 -274 -236 -346 -28 -21 -84 -77 -123 -124 -125 -150 -184 -195 -213
-166 -12 12 -1 36 93 206 33 60 55 115 66 165 8 41 38 156 64 255 72 262 84
336 83 505 0 162 -24 304 -88 526 -93 324 -199 518 -385 705 -265 268 -594
402 -1015 416 -418 13 -716 -66 -1017 -273 -124 -84 -159 -104 -188 -104 -83
0 34 168 194 278 162 112 308 165 571 206 625 98 1176 -47 1536 -404 212 -211
323 -448 446 -947 48 -199 56 -245 60 -356 8 -186 -20 -336 -110 -602 -57
-167 -61 -186 -44 -210 14 -18 16 -18 40 -2 54 35 142 216 202 412 38 128 72
317 81 460 6 100 6 100 -25 117 -43 24 -54 56 -100 276 -109 525 -253 837
-477 1027 -264 224 -595 364 -959 405 -85 9 -414 12 -480 3z m455 -3713 c0 -5
-4 -10 -10 -10 -5 0 -10 5 -10 10 0 6 5 10 10 10 6 0 10 -4 10 -10z"/>
<path d="M6580 3179 c-7 -11 -10 -23 -7 -25 2 -2 9 7 15 21 14 30 7 33 -8 4z"/>
<path d="M6400 2973 c-52 -31 -156 -104 -230 -163 -74 -59 -155 -120 -179
-135 -119 -74 -308 -153 -571 -240 -128 -42 -156 -48 -235 -48 -66 -1 -111 5
-168 22 -43 12 -175 35 -295 52 -303 41 -389 56 -532 96 -130 37 -323 83 -328
79 -3 -4 203 -100 293 -138 156 -65 390 -120 645 -153 150 -19 186 -29 223
-63 27 -26 27 -26 140 -14 232 26 687 214 885 365 44 34 147 123 229 197 81
74 166 150 188 168 22 17 37 32 35 32 -3 -1 -48 -26 -100 -57z"/>
<path d="M4987 2225 c-10 -14 -14 -25 -9 -25 10 0 42 33 42 43 0 14 -16 5 -33
-18z"/>
<path d="M4888 2183 c7 -3 16 -2 19 1 4 3 -2 6 -13 5 -11 0 -14 -3 -6 -6z"/>
</g>
</svg>
