<?xml version="1.0" standalone="no"?>
<!DOCTYPE svg PUBLIC "-//W3C//DTD SVG 20010904//EN"
 "http://www.w3.org/TR/2001/REC-SVG-20010904/DTD/svg10.dtd">
<svg version="1.0" xmlns="http://www.w3.org/2000/svg"
 width="1000.000000pt" height="1000.000000pt" viewBox="0 0 1000.000000 1000.000000"
 preserveAspectRatio="xMidYMid meet">
<metadata>
  <rdf:RDF
    xmlns:rdf = "http://www.w3.org/1999/02/22-rdf-syntax-ns#"
    xmlns:rdfs = "http://www.w3.org/2000/01/rdf-schema#"
    xmlns:dc = "http://purl.org/dc/elements/1.1/"
    xmlns:cc = "http://creativecommons.org/ns#">
    <cc:license rdf:resource="http://creativecommons.org/publicdomain/zero/1.0/deed.en"/>
    <cc:permits rdf:resource="http://creativecommons.org/ns#Reproduction"/>
    <rdf:Description about="https://nft.mir.one/fingerprints"
      dc:title="TON Fingerprints"
      dc:description="This is a unique digital fingerprint created based on the algorithm for generating basic rings using a noise texture. Like human fingerprints, you can now use it for the Web3 and Metaverse era as digital biometric information."
      dc:publisher="https://nft.mir.one"
      dc:date="2022-02-22"
      dc:format="image/svg+xml"
      dc:language="en" >
      <dc:creator>
      <rdf:Bag>
        <rdf:li>EQBondcvD2_aOFADXSWJHs4ZazQDuEl9_wNvGGPxI8hGuOFU</rdf:li>
        <rdf:li>ipfs://bafkreihj7iub3fhmhq6jn62noukt5wxn3gv6bvcg7wmt6ywvlurefezckq</rdf:li>
      </rdf:Bag>
      </dc:creator>
    </rdf:Description>
  </rdf:RDF>
</metadata>
<g transform="translate(0.000000,1000.000000) scale(0.100000,-0.100000)"
fill="#1b1f23" stroke="none">
<path d="M4835 7755 c152 -49 402 -98 503 -99 72 -1 86 2 98 18 21 29 17 35
-18 29 -18 -2 -92 7 -164 21 -131 25 -313 50 -454 60 -75 6 -75 6 35 -29z"/>
<path d="M4328 7635 c12 -9 47 -27 77 -41 111 -48 85 -79 -91 -105 -155 -23
-199 -36 -346 -95 -113 -45 -113 -45 22 -40 239 10 408 26 503 47 79 18 113
20 242 16 169 -6 475 -45 640 -82 127 -29 221 -71 331 -148 44 -30 106 -66
139 -80 87 -36 327 -111 420 -132 98 -21 126 -35 192 -95 29 -27 85 -72 125
-101 73 -53 73 -53 17 12 -31 35 -79 99 -107 141 -60 89 -97 121 -174 147 -73
25 -80 29 -393 207 -149 85 -307 167 -352 183 -48 18 -129 36 -199 46 -66 9
-211 29 -324 45 -113 16 -261 32 -330 35 -69 4 -168 15 -220 25 -52 10 -117
21 -145 24 -47 6 -49 6 -27 -9z"/>
<path d="M5796 7595 c57 -73 80 -91 172 -136 93 -45 121 -48 40 -4 -83 44
-139 84 -197 139 -55 51 -55 51 -15 1z"/>
<path d="M4505 7260 c-44 -4 -170 -15 -279 -25 -252 -21 -294 -33 -609 -168
-58 -24 -58 -24 -13 -36 24 -6 71 -8 103 -6 825 76 1066 80 1550 25 257 -30
331 -26 347 15 24 64 -132 124 -432 165 -285 38 -479 47 -667 30z"/>
<path d="M4295 6934 c-22 -2 -155 -13 -295 -24 -140 -11 -278 -25 -306 -30
-61 -13 -174 -69 -284 -142 -73 -48 -78 -53 -57 -61 26 -10 65 -7 357 27 610
71 951 78 1490 31 91 -8 275 -21 410 -30 296 -18 412 -35 533 -75 162 -55 342
-167 556 -347 57 -49 132 -107 166 -130 63 -41 63 -41 -28 85 -117 165 -152
207 -267 326 -147 151 -271 225 -480 285 -238 67 -303 74 -575 57 -99 -6 -173
-4 -310 9 -168 16 -799 29 -910 19z"/>
<path d="M4325 6614 c-22 -2 -98 -9 -170 -14 -162 -13 -625 -68 -684 -81 -55
-12 -131 -58 -231 -138 -41 -33 -82 -61 -90 -62 -8 0 5 -7 30 -15 52 -16 17
-19 590 61 463 65 646 80 876 71 294 -10 508 -38 782 -102 84 -19 197 -39 250
-43 110 -9 135 -19 276 -114 105 -70 170 -132 180 -172 10 -39 -7 -54 -39 -35
-13 8 -77 48 -142 89 -187 117 -253 142 -284 105 -11 -13 -11 -20 2 -42 24
-43 123 -116 227 -168 93 -47 100 -49 183 -49 98 0 110 -6 304 -151 309 -230
516 -471 610 -709 24 -60 83 -160 91 -152 5 5 -57 266 -81 342 -15 44 -49 126
-76 183 -46 94 -59 112 -172 226 -67 68 -185 176 -262 242 -77 65 -178 154
-225 198 -47 44 -121 106 -165 137 -167 121 -176 129 -173 152 5 35 67 25 173
-27 107 -53 174 -101 360 -257 198 -165 323 -282 425 -394 74 -80 143 -145
157 -145 8 0 -134 271 -184 352 -70 113 -146 194 -292 312 -306 247 -456 314
-671 301 -87 -5 -156 -1 -400 29 -486 58 -593 67 -870 71 -146 2 -283 1 -305
-1z"/>
<path d="M4330 6283 c-142 -13 -247 -29 -390 -59 -91 -19 -237 -44 -325 -55
-236 -30 -343 -53 -372 -81 -14 -13 -49 -57 -78 -98 -29 -41 -81 -110 -115
-152 -61 -78 -61 -78 -28 -71 18 3 85 34 148 69 156 85 224 107 330 108 61 1
98 -4 133 -18 83 -33 203 -7 315 70 118 81 257 109 542 108 285 0 498 -29 710
-94 121 -37 222 -86 407 -198 180 -109 252 -146 408 -207 131 -52 225 -102
325 -173 86 -61 291 -261 386 -377 82 -100 116 -127 137 -106 33 33 -7 147
-95 266 -69 93 -202 229 -310 315 -162 131 -265 190 -448 255 -172 62 -275
121 -436 251 -143 116 -284 170 -559 214 -208 33 -526 49 -685 33z"/>
<path d="M4220 5954 c-75 -9 -156 -27 -182 -40 -32 -17 -45 -49 -26 -71 29
-36 80 -45 329 -58 393 -22 607 -48 754 -90 225 -65 459 -170 485 -217 27 -49
8 -54 -142 -34 -115 15 -146 24 -230 62 -124 56 -189 71 -363 83 -77 5 -230
19 -340 30 -435 43 -604 50 -697 29 -30 -7 -197 -84 -381 -176 -319 -159 -330
-166 -371 -218 -33 -43 -123 -189 -144 -236 -7 -14 75 17 123 47 99 62 313
175 430 228 273 124 411 157 658 157 177 0 294 -11 432 -39 131 -27 195 -55
272 -118 44 -36 121 -82 216 -128 160 -79 235 -131 301 -209 76 -90 482 -707
544 -826 72 -138 96 -210 78 -235 -11 -16 -15 -15 -44 9 -17 15 -70 93 -118
174 -169 285 -408 615 -549 757 -106 107 -172 152 -400 274 -279 148 -389 176
-695 176 -226 0 -296 -10 -470 -67 -182 -60 -542 -239 -613 -306 -16 -15 -57
-84 -91 -153 -62 -126 -62 -126 -26 -115 19 5 102 50 184 99 318 191 534 288
736 332 115 25 364 31 487 11 201 -31 440 -128 633 -257 198 -131 441 -411
665 -765 55 -87 130 -201 168 -253 113 -159 160 -321 161 -551 0 -227 -32
-312 -222 -579 -136 -191 -207 -271 -314 -351 -88 -65 -89 -73 -7 -36 109 48
214 129 380 290 91 89 191 182 222 209 39 33 65 66 87 110 72 147 62 417 -30
787 -12 47 -25 137 -29 200 -5 63 -16 138 -26 165 -36 108 -110 241 -253 456
-224 338 -305 509 -240 509 23 0 120 -70 143 -104 8 -11 12 -30 9 -42 -9 -35
34 -116 131 -249 123 -168 185 -264 243 -380 64 -129 89 -209 156 -490 72
-301 93 -425 110 -631 7 -93 19 -182 25 -199 12 -29 13 -28 47 75 88 265 93
364 34 585 -126 466 -216 690 -370 915 -78 113 -202 262 -280 333 -63 59 -72
87 -28 87 88 0 275 -180 431 -413 147 -219 259 -485 383 -907 25 -85 58 -175
72 -200 27 -45 27 -45 35 70 4 63 6 165 3 226 -4 102 -7 118 -51 230 -124 311
-222 506 -337 668 -76 107 -249 291 -336 357 -134 101 -321 178 -433 179 -45
0 -146 51 -199 100 -31 28 -40 44 -40 69 0 42 18 47 93 26 34 -10 108 -24 165
-31 57 -8 124 -23 150 -34 25 -11 114 -69 196 -128 113 -80 188 -143 297 -252
257 -255 330 -377 591 -985 17 -38 36 -77 44 -85 7 -9 18 -27 23 -40 20 -48 0
191 -26 310 -27 123 -114 351 -176 462 -99 177 -320 417 -557 606 -80 64 -155
127 -167 141 -23 27 -30 66 -13 76 27 17 208 -93 357 -219 109 -91 398 -384
442 -449 53 -78 97 -183 152 -362 51 -165 89 -266 89 -235 0 91 -32 558 -41
600 -21 99 -81 190 -126 190 -39 0 -112 57 -267 209 -198 192 -276 254 -401
317 -70 35 -110 48 -180 58 -116 18 -137 27 -275 126 -274 195 -506 284 -870
336 -101 14 -517 27 -590 18z m837 -539 c122 -36 168 -114 67 -115 -34 0 -125
29 -191 61 -103 50 -5 92 124 54z"/>
<path d="M3432 5805 c-40 -14 -121 -49 -181 -79 -122 -62 -163 -100 -263 -249
-57 -85 -58 -87 -31 -81 15 3 57 21 93 40 36 18 159 82 274 141 255 132 332
194 296 238 -19 23 -105 18 -188 -10z"/>
<path d="M3947 4935 c-169 -29 -272 -70 -487 -197 -80 -47 -191 -111 -248
-142 -115 -65 -124 -75 -189 -223 -41 -93 -41 -93 -4 -93 25 0 83 23 189 74
259 127 332 148 433 119 54 -15 111 -18 360 -19 163 -1 328 -7 367 -13 245
-38 487 -174 693 -389 255 -265 388 -588 350 -849 -15 -106 -34 -158 -103
-275 -66 -113 -101 -198 -162 -388 -25 -80 -59 -167 -76 -195 -41 -68 -51 -84
-78 -128 -23 -39 -23 -39 67 8 155 80 213 141 226 237 11 76 34 137 129 335
116 244 138 321 139 488 1 101 -3 149 -20 215 -96 384 -446 810 -817 997 -85
43 -246 96 -346 114 -115 21 -415 17 -575 -9 -107 -17 -132 -18 -143 -7 -31
29 36 93 132 125 151 50 392 64 576 35 192 -32 419 -128 592 -252 224 -160
468 -459 609 -748 82 -169 110 -270 116 -426 9 -203 -32 -351 -158 -581 -107
-193 -159 -298 -159 -318 0 -15 7 -20 26 -20 44 0 167 134 258 280 148 239
193 359 203 545 10 200 -34 365 -153 574 -270 473 -556 794 -857 958 -283 156
-604 216 -890 168z"/>
<path d="M3885 4300 c-341 -7 -365 -10 -496 -66 -34 -14 -90 -43 -125 -65 -73
-47 -81 -61 -119 -243 -14 -66 -28 -123 -31 -128 -18 -29 40 8 121 76 145 123
269 184 426 212 175 31 387 6 489 -57 19 -12 91 -53 160 -92 69 -38 172 -100
230 -137 58 -37 138 -84 178 -105 88 -46 165 -126 211 -220 18 -36 47 -125 66
-199 37 -146 63 -209 96 -227 40 -21 44 0 26 147 -36 288 -127 459 -331 618
-105 82 -214 150 -357 221 -132 66 -179 99 -179 124 0 46 131 25 278 -44 247
-117 438 -281 552 -475 109 -185 149 -442 89 -568 -17 -34 -19 -45 -9 -57 34
-41 100 16 130 113 43 138 15 342 -70 516 -134 274 -406 522 -690 627 -101 38
-146 40 -645 29z"/>
<path d="M3670 3915 c-36 -8 -95 -26 -131 -40 -67 -26 -193 -104 -216 -134
-18 -23 -42 -106 -54 -186 -5 -38 -14 -80 -19 -93 -10 -22 -10 -22 23 0 17 13
64 50 103 83 158 133 276 181 444 179 237 -2 505 -116 660 -280 159 -169 288
-319 318 -372 93 -163 96 -348 9 -517 -22 -44 -65 -94 -156 -184 -69 -68 -117
-119 -106 -113 11 5 64 21 118 36 114 30 208 74 255 119 70 67 143 275 146
412 1 81 1 81 -51 160 -81 124 -105 186 -114 286 -8 107 -46 193 -121 275 -52
56 -82 75 -105 67 -26 -10 -12 -53 45 -139 86 -131 112 -178 112 -202 0 -26
-17 -28 -49 -6 -34 24 -164 203 -207 285 -43 81 -97 133 -212 202 -96 58 -257
131 -337 152 -84 23 -273 28 -355 10z"/>
<path d="M3698 3561 c-69 -22 -137 -61 -188 -107 -48 -43 -61 -93 -63 -241 -2
-111 -2 -111 33 -80 19 17 49 51 66 76 46 68 172 183 250 229 86 50 112 77 98
100 -28 44 -102 53 -196 23z"/>
<path d="M3933 3404 c-114 -121 -171 -191 -198 -244 -44 -87 -37 -107 97 -267
83 -100 157 -160 254 -208 95 -46 154 -59 207 -44 152 41 234 217 177 379 -11
30 -19 61 -20 68 0 24 43 11 75 -23 103 -109 82 -329 -45 -456 -82 -82 -164
-116 -330 -137 -55 -7 -55 -7 10 -26 36 -10 106 -21 156 -24 76 -4 105 -1 165
18 63 18 82 30 125 74 101 104 149 252 126 388 -20 113 -63 188 -176 306 -181
187 -305 260 -464 270 -84 5 -84 5 -159 -74z m353 -182 c61 -31 117 -97 110
-130 -3 -15 -8 -61 -11 -102 -4 -41 -11 -91 -17 -110 -21 -69 -85 -130 -138
-130 -30 0 -25 26 17 87 64 93 56 203 -18 233 -27 12 -36 11 -58 -1 -34 -19
-36 -68 -3 -85 33 -16 34 -19 21 -47 -6 -14 -28 -34 -47 -43 -105 -50 -215 96
-167 221 19 51 64 101 110 122 42 19 149 11 201 -15z"/>
<path d="M3670 2893 c1 -16 12 -48 26 -73 14 -25 23 -38 20 -30 -2 8 -10 41
-17 73 -14 60 -29 76 -29 30z"/>
<path d="M6043 2658 c-20 -22 -106 -168 -99 -168 9 0 126 164 126 176 0 19 -3
18 -27 -8z"/>
</g>
</svg>
