<?xml version="1.0" standalone="no"?>
<!DOCTYPE svg PUBLIC "-//W3C//DTD SVG 20010904//EN"
 "http://www.w3.org/TR/2001/REC-SVG-20010904/DTD/svg10.dtd">
<svg version="1.0" xmlns="http://www.w3.org/2000/svg"
 width="1000.000000pt" height="1000.000000pt" viewBox="0 0 1000.000000 1000.000000"
 preserveAspectRatio="xMidYMid meet">
<metadata>
  <rdf:RDF
    xmlns:rdf = "http://www.w3.org/1999/02/22-rdf-syntax-ns#"
    xmlns:rdfs = "http://www.w3.org/2000/01/rdf-schema#"
    xmlns:dc = "http://purl.org/dc/elements/1.1/"
    xmlns:cc = "http://creativecommons.org/ns#">
    <cc:license rdf:resource="http://creativecommons.org/publicdomain/zero/1.0/deed.en"/>
    <cc:permits rdf:resource="http://creativecommons.org/ns#Reproduction"/>
    <rdf:Description about="https://nft.mir.one/fingerprints"
      dc:title="TON Fingerprints"
      dc:description="This is a unique digital fingerprint created based on the algorithm for generating basic rings using a noise texture. Like human fingerprints, you can now use it for the Web3 and Metaverse era as digital biometric information."
      dc:publisher="https://nft.mir.one"
      dc:date="2022-02-22"
      dc:format="image/svg+xml"
      dc:language="en" >
      <dc:creator>
      <rdf:Bag>
        <rdf:li>EQBondcvD2_aOFADXSWJHs4ZazQDuEl9_wNvGGPxI8hGuOFU</rdf:li>
        <rdf:li>ipfs://bafkreihj7iub3fhmhq6jn62noukt5wxn3gv6bvcg7wmt6ywvlurefezckq</rdf:li>
      </rdf:Bag>
      </dc:creator>
    </rdf:Description>
  </rdf:RDF>
</metadata>
<g transform="translate(0.000000,1000.000000) scale(0.100000,-0.100000)"
fill="#1b1f23" stroke="none">
<path d="M4622 7765 c11 -12 245 -43 363 -49 137 -7 475 -32 560 -41 28 -3 68
-8 90 -10 68 -8 -87 33 -230 59 -71 14 -188 29 -258 35 -127 11 -535 15 -525
6z"/>
<path d="M4620 7570 c-113 -10 -201 -29 -290 -63 -147 -56 -336 -138 -388
-169 -94 -57 -252 -191 -387 -329 -71 -73 -98 -104 -60 -68 79 71 116 100 290
223 194 137 313 188 332 140 8 -22 -24 -52 -172 -164 -298 -223 -521 -484
-671 -783 -109 -217 -146 -336 -171 -554 -16 -146 -15 -173 12 -173 29 0 53
62 80 204 42 223 80 333 171 491 131 225 323 436 615 672 96 77 202 172 235
210 71 79 126 112 244 146 113 33 254 47 468 47 347 0 625 -40 1061 -152 169
-43 332 -79 338 -74 1 1 -60 35 -135 76 -324 178 -591 265 -928 305 -157 19
-514 27 -644 15z"/>
<path d="M4695 7234 c-203 -31 -310 -81 -535 -249 -278 -209 -437 -360 -570
-539 -155 -212 -221 -354 -285 -621 -19 -77 -50 -185 -69 -240 -44 -126 -56
-217 -56 -411 0 -256 32 -470 97 -658 84 -242 211 -419 453 -631 120 -104 152
-148 128 -172 -42 -42 -277 104 -431 266 -167 178 -277 383 -327 611 -39 176
-52 320 -59 650 -7 318 -7 326 -30 363 -13 21 -27 52 -30 68 -12 57 -13 -773
-1 -901 24 -272 67 -452 154 -650 87 -198 174 -302 350 -417 120 -80 214 -112
370 -128 72 -7 151 -18 176 -24 25 -5 106 -15 180 -21 234 -20 411 -54 509
-100 47 -21 111 -45 141 -52 114 -27 633 -7 838 32 70 13 197 63 267 105 98
59 161 121 229 223 35 53 96 135 136 182 280 332 392 645 425 1185 9 141 23
253 45 373 11 57 20 133 20 170 0 252 -211 620 -475 829 -46 37 -136 92 -210
130 -71 36 -164 85 -207 109 -157 89 -325 144 -549 180 -144 24 -523 24 -666
1 -173 -28 -317 -85 -473 -190 -316 -210 -561 -514 -666 -824 -22 -66 -28
-105 -35 -248 -4 -93 -15 -217 -23 -275 -9 -58 -16 -163 -16 -235 0 -381 124
-697 380 -968 191 -202 358 -300 589 -347 143 -28 357 -22 656 21 501 71 899
280 1058 553 99 171 140 331 140 556 1 233 -41 412 -148 635 -203 422 -500
639 -907 662 -228 13 -462 -60 -698 -218 -208 -139 -406 -382 -354 -434 22
-22 41 -9 174 117 173 166 327 261 518 322 306 96 659 31 860 -159 74 -70 82
-82 146 -237 71 -171 79 -252 32 -323 -21 -32 -37 -31 -75 1 -26 22 -31 33
-31 72 0 60 -27 105 -80 132 -49 25 -257 76 -389 95 -53 7 -177 17 -276 20
-169 7 -183 6 -238 -15 -246 -93 -428 -330 -427 -558 0 -66 26 -167 57 -224
49 -90 143 -157 178 -128 21 18 19 30 -16 96 -119 227 -84 441 100 605 103 92
271 155 271 101 0 -21 -25 -45 -95 -93 -233 -156 -292 -356 -174 -590 52 -104
108 -139 222 -139 124 0 246 83 282 191 24 70 16 167 -18 243 -34 74 -75 94
-152 77 -91 -20 -155 -81 -155 -146 0 -58 47 -88 70 -45 27 51 99 1 85 -59
-21 -95 -162 -109 -224 -22 -36 50 -46 118 -27 182 23 81 73 140 178 209 164
108 207 115 558 94 146 -8 170 -12 203 -33 56 -35 43 -46 -54 -46 -46 0 -90
-4 -96 -8 -20 -13 -15 -41 10 -64 54 -50 134 -69 220 -52 61 12 61 12 95 -27
47 -55 120 -207 133 -279 16 -86 5 -197 -29 -292 -71 -202 -216 -356 -443
-473 -212 -109 -402 -159 -694 -181 -392 -29 -708 90 -937 354 -204 237 -300
492 -299 800 0 218 28 330 125 489 34 57 82 139 106 183 102 187 220 338 355
456 97 84 169 134 315 219 69 39 135 81 148 93 29 27 28 55 -3 69 -37 17 -116
-4 -232 -61 -135 -67 -259 -157 -383 -281 -120 -120 -192 -217 -278 -375 -108
-198 -124 -223 -147 -233 -13 -6 -26 -8 -29 -5 -25 25 24 182 102 326 106 196
281 401 452 528 108 81 244 156 330 183 69 21 98 24 361 29 494 10 673 -23
989 -184 295 -149 467 -299 614 -533 119 -189 165 -406 87 -406 -26 0 -42 21
-121 165 -103 185 -161 266 -275 381 -155 155 -353 277 -569 349 -167 56 -252
70 -426 70 -208 0 -268 -16 -400 -105 -30 -20 -116 -74 -190 -120 -321 -196
-489 -375 -629 -671 -101 -214 -130 -300 -151 -444 -49 -348 98 -720 371 -938
186 -149 388 -217 647 -217 334 0 652 110 864 299 63 56 154 194 184 279 40
114 29 256 -21 276 -52 19 -79 -9 -116 -124 -107 -328 -382 -529 -775 -570
-177 -18 -351 10 -504 81 -296 139 -480 430 -480 762 0 125 16 211 65 358 20
57 42 136 50 175 32 165 158 329 380 496 148 111 399 235 537 265 90 19 268
21 368 4 337 -59 631 -257 826 -558 237 -365 259 -405 281 -507 24 -108 21
-396 -5 -546 -62 -349 -250 -661 -455 -759 -122 -58 -404 -170 -505 -200 -144
-43 -273 -66 -532 -96 -124 -14 -243 -30 -265 -35 -96 -23 -310 -6 -470 37
-136 36 -211 81 -350 211 -226 210 -331 342 -420 527 -93 192 -127 326 -147
566 -14 180 -4 319 46 599 44 245 73 346 140 486 139 290 362 534 687 752 157
106 315 170 499 203 97 18 513 18 625 1 167 -27 294 -55 410 -93 128 -42 164
-62 246 -135 66 -58 121 -83 213 -96 96 -13 157 -50 281 -173 140 -138 300
-348 428 -558 20 -34 37 -58 37 -54 0 18 -76 190 -136 309 -179 352 -458 704
-624 788 -40 20 -104 39 -183 55 -67 13 -186 39 -264 59 -160 39 -339 71 -492
86 -144 14 -467 11 -576 -6z m1497 -316 c40 -23 74 -70 63 -88 -11 -18 -39
-10 -110 28 -49 27 -71 45 -73 60 -3 20 1 22 38 22 25 0 59 -9 82 -22z m-134
-3121 c8 -39 -109 -126 -256 -190 -176 -79 -590 -137 -868 -124 -172 9 -213
30 -133 69 24 12 84 20 204 28 383 24 578 65 824 169 75 32 143 61 151 64 30
12 75 3 78 -16z"/>
<path d="M5025 5924 c-149 -37 -193 -52 -270 -88 -49 -24 -121 -66 -160 -94
-101 -72 -351 -307 -379 -355 -50 -87 -71 -181 -71 -322 0 -146 12 -199 73
-324 46 -95 159 -217 253 -272 38 -23 110 -55 161 -71 122 -40 308 -50 439
-23 277 56 462 218 539 474 39 127 15 221 -82 322 -67 70 -152 101 -186 67
-20 -20 -14 -44 31 -129 41 -79 42 -85 42 -173 0 -81 -4 -98 -30 -150 -79
-158 -255 -256 -456 -256 -107 0 -297 39 -372 75 -179 88 -284 325 -244 550
28 154 127 301 290 430 151 120 292 172 492 181 164 8 289 -12 477 -77 164
-56 191 -58 196 -17 5 47 -65 112 -183 168 -143 69 -202 82 -385 86 -85 1
-164 0 -175 -2z"/>
<path d="M6972 5368 c-28 -46 -40 -118 -52 -303 -13 -211 -26 -316 -57 -454
-82 -375 -266 -693 -588 -1017 -141 -142 -268 -228 -438 -295 -46 -19 -81 -22
-297 -27 -385 -10 -618 -7 -695 6 -38 7 -126 29 -195 47 -252 70 -405 91 -444
62 -25 -18 -17 -47 21 -73 54 -36 330 -117 508 -150 118 -21 500 -30 660 -15
66 6 147 13 180 16 68 7 90 -3 81 -33 -8 -25 -74 -57 -152 -72 -83 -17 -614
-25 -739 -11 -119 12 -304 59 -427 106 -107 42 -129 55 -198 121 -69 67 -97
79 -355 154 -241 70 -394 138 -490 219 -33 28 -76 59 -96 70 -20 11 -51 32
-68 47 -53 44 134 -209 221 -301 90 -95 140 -125 275 -164 131 -38 244 -83
448 -179 201 -94 298 -130 500 -183 164 -43 231 -48 322 -24 48 13 101 14 303
9 152 -4 273 -2 318 4 83 12 177 52 266 115 34 24 120 76 191 117 72 40 157
91 190 113 182 121 432 354 517 482 112 169 198 372 258 609 61 244 72 342 78
686 2 198 8 310 15 318 8 10 7 16 -4 23 -24 15 -37 10 -57 -23z"/>
<path d="M6809 3604 c-7 -9 -33 -30 -58 -47 -25 -17 -77 -59 -114 -94 -94 -88
-242 -204 -367 -289 -118 -80 -421 -258 -580 -342 -72 -37 -125 -74 -170 -117
-75 -72 -79 -74 -271 -153 -181 -74 -226 -87 -381 -111 -68 -11 -163 -27 -212
-35 -57 -10 -154 -16 -270 -17 -181 -1 -181 -1 -96 -20 184 -40 307 -52 466
-45 192 8 308 27 458 77 151 50 253 98 418 197 73 44 201 117 283 162 370 204
585 395 834 738 45 61 80 112 77 112 -2 0 -9 -7 -17 -16z"/>
<path d="M3467 3204 c-7 -8 152 -134 260 -207 159 -106 297 -160 641 -253 225
-60 264 -76 316 -131 35 -38 35 -38 183 -38 161 0 187 6 260 63 27 21 69 37
146 56 127 31 194 60 203 88 11 37 -10 43 -144 41 -72 -2 -174 4 -235 12 -136
19 -178 19 -203 0 -19 -15 -18 -15 8 -39 15 -13 56 -31 97 -41 144 -35 149
-81 9 -73 -84 5 -112 13 -278 82 -47 19 -168 60 -269 90 -241 73 -353 115
-606 226 -115 51 -234 101 -264 111 -53 19 -112 25 -124 13z"/>
<path d="M3660 2844 c0 -8 254 -160 325 -194 235 -112 532 -177 628 -137 44
19 58 44 33 63 -10 7 -61 20 -114 29 -252 44 -469 99 -617 156 -90 34 -255 88
-255 83z"/>
<path d="M6105 2721 c-121 -59 -287 -145 -370 -191 -82 -46 -215 -115 -295
-153 -80 -37 -171 -82 -203 -99 -32 -16 -93 -43 -135 -58 -95 -36 -83 -37 39
-6 220 58 508 185 785 346 175 102 428 271 404 269 -3 0 -104 -49 -225 -108z"/>
<path d="M4998 2183 c7 -3 16 -2 19 1 4 3 -2 6 -13 5 -11 0 -14 -3 -6 -6z"/>
</g>
</svg>
