<?xml version="1.0" standalone="no"?>
<!DOCTYPE svg PUBLIC "-//W3C//DTD SVG 20010904//EN"
 "http://www.w3.org/TR/2001/REC-SVG-20010904/DTD/svg10.dtd">
<svg version="1.0" xmlns="http://www.w3.org/2000/svg"
 width="1000.000000pt" height="1000.000000pt" viewBox="0 0 1000.000000 1000.000000"
 preserveAspectRatio="xMidYMid meet">
<metadata>
  <rdf:RDF
    xmlns:rdf = "http://www.w3.org/1999/02/22-rdf-syntax-ns#"
    xmlns:rdfs = "http://www.w3.org/2000/01/rdf-schema#"
    xmlns:dc = "http://purl.org/dc/elements/1.1/"
    xmlns:cc = "http://creativecommons.org/ns#">
    <cc:license rdf:resource="http://creativecommons.org/publicdomain/zero/1.0/deed.en"/>
    <cc:permits rdf:resource="http://creativecommons.org/ns#Reproduction"/>
    <rdf:Description about="https://nft.mir.one/fingerprints"
      dc:title="TON Fingerprints"
      dc:description="This is a unique digital fingerprint created based on the algorithm for generating basic rings using a noise texture. Like human fingerprints, you can now use it for the Web3 and Metaverse era as digital biometric information."
      dc:publisher="https://nft.mir.one"
      dc:date="2022-02-22"
      dc:format="image/svg+xml"
      dc:language="en" >
      <dc:creator>
      <rdf:Bag>
        <rdf:li>EQBondcvD2_aOFADXSWJHs4ZazQDuEl9_wNvGGPxI8hGuOFU</rdf:li>
        <rdf:li>ipfs://bafkreihj7iub3fhmhq6jn62noukt5wxn3gv6bvcg7wmt6ywvlurefezckq</rdf:li>
      </rdf:Bag>
      </dc:creator>
    </rdf:Description>
  </rdf:RDF>
</metadata>
<g transform="translate(0.000000,1000.000000) scale(0.100000,-0.100000)"
fill="#1b1f23" stroke="none">
<path d="M4958 7813 c6 -2 18 -2 25 0 6 3 1 5 -13 5 -14 0 -19 -2 -12 -5z"/>
<path d="M4765 7776 c-201 -52 -635 -200 -622 -212 6 -6 364 102 570 171 106
35 201 66 212 68 16 4 15 5 -5 5 -14 1 -83 -14 -155 -32z"/>
<path d="M5125 7640 c-228 -16 -406 -55 -661 -145 -350 -125 -446 -174 -828
-424 -110 -71 -110 -71 -60 -71 75 0 354 93 407 136 76 61 124 85 209 104 45
10 122 28 171 39 48 11 114 34 148 51 186 94 340 131 744 175 141 16 570 35
635 29 94 -10 -262 88 -383 105 -86 12 -211 12 -382 1z"/>
<path d="M5685 7359 c-22 -5 -157 -12 -300 -14 -297 -5 -457 -18 -599 -46
-141 -28 -196 -60 -180 -104 14 -35 46 -39 359 -46 412 -9 459 -18 685 -128
173 -85 295 -125 444 -147 134 -19 237 -52 325 -103 97 -57 150 -109 203 -198
53 -89 106 -153 177 -212 49 -41 49 -41 -17 57 -36 53 -78 126 -94 162 -64
143 -72 154 -223 302 -82 81 -156 153 -163 160 -7 7 -52 54 -100 104 -77 79
-99 96 -192 142 -61 31 -134 59 -175 67 -78 16 -93 17 -150 4z m260 -170 c92
-29 190 -81 208 -110 18 -29 1 -49 -40 -49 -79 0 -320 82 -373 127 -88 73 20
90 205 32z"/>
<path d="M4111 7118 c-47 -18 -61 -42 -38 -65 14 -14 37 -19 100 -20 45 -1 85
-2 90 -3 14 0 7 -37 -11 -53 -30 -28 -74 -38 -197 -48 -138 -11 -282 -46 -373
-90 -69 -34 -85 -52 -107 -125 -13 -43 -13 -50 1 -64 25 -25 91 -16 244 33 80
26 242 70 360 99 215 53 215 53 440 52 330 -1 503 -28 695 -109 50 -20 162
-62 250 -92 88 -30 215 -80 283 -110 124 -54 124 -54 200 -48 133 12 223 -35
393 -204 157 -157 375 -438 501 -646 100 -164 128 -209 128 -203 0 11 -88 263
-120 343 -148 371 -406 719 -630 848 -53 30 -175 72 -350 121 -70 19 -216 68
-325 109 -110 41 -230 84 -266 95 -99 31 -294 60 -479 72 -144 10 -216 21
-395 60 -22 5 -69 9 -105 10 -43 0 -80 7 -110 21 -56 26 -134 33 -179 17z"/>
<path d="M3410 6708 c-39 -35 -90 -78 -113 -97 -23 -19 -33 -31 -22 -27 11 5
38 10 60 13 62 8 164 60 170 86 23 103 0 109 -95 25z"/>
<path d="M4375 6664 c-202 -31 -392 -87 -550 -163 -116 -55 -148 -80 -213
-165 -25 -33 -93 -113 -151 -176 -133 -147 -165 -197 -192 -295 -12 -44 -52
-150 -90 -235 -76 -173 -111 -285 -165 -523 -60 -262 -58 -491 7 -876 16 -96
27 -181 24 -190 -3 -11 1 -17 13 -18 37 -2 65 -13 78 -30 7 -10 34 -70 60
-133 69 -167 114 -254 195 -375 157 -235 380 -411 649 -514 148 -57 346 -87
505 -76 123 8 376 47 510 79 269 65 577 199 765 333 174 125 362 322 464 486
144 232 196 548 133 802 -26 105 -29 149 -12 226 23 111 19 174 -25 404 -74
389 -97 453 -225 645 -88 133 -311 397 -376 446 -145 111 -328 156 -410 101
-40 -27 -50 -68 -23 -98 9 -10 55 -37 102 -59 123 -59 210 -119 303 -207 153
-146 278 -328 349 -509 75 -191 116 -489 91 -654 -17 -108 -32 -149 -116 -300
-120 -219 -133 -237 -205 -284 -36 -24 -108 -80 -160 -126 -150 -130 -291
-203 -483 -251 -118 -29 -324 -36 -446 -15 -269 47 -517 190 -657 379 -43 58
-43 58 -38 140 6 78 4 88 -36 197 -60 166 -79 256 -90 423 -10 149 -19 187
-45 187 -49 0 -85 -110 -85 -262 0 -176 53 -342 164 -513 25 -38 46 -73 46
-77 0 -18 -43 -17 -79 2 -83 42 -192 219 -231 374 -24 96 -26 249 -5 349 8 38
37 119 66 180 87 190 100 287 41 295 -69 10 -219 -272 -263 -493 -20 -99 -17
-294 4 -375 46 -170 154 -318 352 -482 284 -236 433 -333 621 -404 156 -59
349 -83 504 -65 167 20 260 51 555 183 124 55 166 88 282 221 23 26 47 47 53
47 6 0 15 -11 21 -24 16 -34 -9 -103 -75 -207 -29 -47 -69 -119 -89 -160 -119
-248 -562 -451 -987 -452 -157 0 -201 10 -289 65 -35 22 -136 75 -225 117
-189 91 -311 171 -579 380 -213 165 -287 238 -336 330 -35 66 -38 86 -16 95
30 11 69 -16 178 -125 161 -160 435 -376 607 -481 143 -86 398 -203 512 -235
88 -24 322 -24 438 0 247 52 542 202 603 307 46 77 -13 78 -152 1 -213 -119
-386 -170 -596 -178 -216 -8 -370 29 -605 147 -326 164 -782 565 -882 776 -90
192 -71 492 51 774 76 176 142 265 243 324 43 26 106 83 195 176 142 148 199
194 390 314 123 78 163 113 163 147 0 68 -170 45 -353 -47 -270 -137 -575
-446 -720 -732 -179 -351 -246 -697 -193 -992 13 -71 16 -120 11 -196 -7 -93
-5 -105 18 -163 14 -34 48 -97 77 -141 43 -66 54 -93 65 -155 15 -86 39 -132
126 -240 148 -183 403 -358 629 -430 108 -35 238 -38 528 -12 260 23 391 47
557 101 327 108 542 263 702 508 99 150 129 225 178 441 61 271 92 346 133
321 28 -18 35 -72 23 -191 -14 -138 -57 -313 -105 -423 -85 -197 -281 -428
-474 -558 -177 -121 -441 -231 -675 -281 -252 -54 -614 -79 -772 -52 -223 38
-472 172 -667 359 -138 133 -187 202 -283 399 -66 135 -96 186 -140 233 -31
33 -61 73 -66 88 -52 132 -69 578 -29 757 55 248 204 632 337 868 102 182 314
417 469 519 224 148 458 208 633 162 66 -16 90 -17 333 -6 278 12 326 19 364
57 65 65 -2 117 -191 145 -71 11 -596 22 -650 14z m-826 -2749 c16 -8 82 -60
148 -117 231 -199 405 -305 635 -388 65 -24 123 -49 129 -56 21 -26 -8 -44
-70 -44 -238 0 -639 248 -875 542 -53 67 -36 99 33 63z"/>
<path d="M3377 6445 c-59 -45 -142 -144 -219 -259 -33 -50 -75 -106 -92 -124
-31 -34 -31 -34 -1 -19 17 8 46 22 65 30 35 15 320 263 359 313 65 83 -21 128
-112 59z"/>
<path d="M6007 6393 c-16 -15 -5 -72 22 -114 15 -24 81 -107 146 -184 126
-151 237 -310 308 -444 45 -84 45 -84 25 -111 -42 -57 -35 -147 29 -345 46
-142 74 -198 187 -363 52 -76 105 -161 120 -190 101 -200 93 -508 -22 -922
-72 -254 -71 -269 4 -60 132 372 170 580 162 887 -3 107 -2 211 3 231 15 63
10 222 -11 338 -43 238 -95 371 -202 511 -375 491 -467 596 -616 706 -69 51
-138 78 -155 60z m629 -854 c61 -37 147 -190 223 -398 39 -106 81 -256 81
-292 0 -8 -6 -24 -14 -34 -14 -19 -15 -19 -37 0 -27 25 -84 142 -184 385 -42
102 -97 223 -122 269 -35 65 -42 86 -31 92 16 10 42 3 84 -22z"/>
<path d="M4903 6249 c-130 -14 -219 -48 -346 -130 -175 -113 -287 -201 -373
-292 -116 -122 -156 -213 -184 -423 -10 -75 -9 -86 11 -135 31 -78 36 -99 59
-249 25 -168 64 -295 132 -430 53 -105 53 -105 94 -105 31 -1 63 -13 125 -50
151 -89 203 -113 294 -141 80 -24 107 -28 250 -29 131 -2 166 -5 194 -20 41
-22 105 -16 221 21 134 42 182 18 83 -42 -98 -58 -215 -84 -383 -84 -122 0
-258 14 -350 36 -111 27 -274 113 -369 196 -111 97 -110 96 -121 78 -5 -8 -10
-28 -10 -43 -1 -132 227 -301 500 -370 71 -18 114 -22 265 -22 154 0 193 4
270 23 129 33 229 84 285 145 25 28 83 89 130 136 129 130 178 195 236 316 86
178 99 239 98 440 -1 150 -4 181 -27 268 -86 321 -256 542 -590 766 -92 62
-184 119 -202 127 -45 18 -188 25 -292 13z m180 -264 c92 -16 233 -79 321
-144 181 -133 310 -313 366 -511 27 -94 37 -271 21 -363 -11 -61 -72 -277
-107 -374 -23 -64 -95 -138 -167 -172 -113 -52 -367 -135 -379 -123 -25 25 21
60 184 140 139 68 171 88 216 135 54 58 65 93 37 117 -21 17 -47 6 -165 -70
-136 -88 -329 -186 -405 -205 -32 -8 -82 -15 -110 -15 -198 1 -471 148 -575
310 -97 151 -155 488 -116 678 9 46 28 108 41 137 113 257 433 467 720 473 22
1 75 -5 118 -13z"/>
<path d="M4810 5775 c-129 -36 -267 -125 -343 -219 -97 -122 -142 -274 -134
-446 10 -199 63 -327 181 -437 84 -78 168 -124 272 -149 178 -42 347 20 616
225 165 127 211 207 211 376 1 104 -15 170 -68 281 -77 160 -230 298 -395 355
-84 29 -258 36 -340 14z m271 -245 c209 -64 342 -280 296 -477 -35 -150 -199
-327 -362 -389 -72 -27 -194 -25 -260 4 -79 36 -125 72 -172 136 -64 87 -87
171 -81 301 4 92 8 110 41 178 58 124 152 208 275 248 77 24 183 24 263 -1z"/>
<path d="M4850 5343 c-161 -55 -253 -233 -206 -396 46 -157 209 -241 336 -174
52 27 97 80 106 124 5 27 2 37 -23 62 -37 37 -96 50 -132 30 -30 -17 -39 -53
-20 -76 11 -13 10 -17 -6 -29 -25 -19 -38 -18 -68 6 -32 26 -51 81 -42 126 9
49 66 109 115 122 67 17 123 -3 199 -70 24 -21 48 -38 52 -38 5 0 18 9 29 20
29 29 27 113 -3 171 -58 109 -213 166 -337 122z"/>
<path d="M3103 5867 c-33 -48 -69 -135 -117 -281 -58 -176 -64 -205 -28 -136
204 392 228 450 185 450 -10 0 -28 -15 -40 -33z"/>
<path d="M6526 4828 c-22 -31 -20 -52 16 -201 29 -121 32 -146 32 -302 1 -185
-9 -245 -64 -396 -56 -153 -121 -248 -290 -423 -395 -409 -803 -603 -1525
-727 -305 -52 -542 -16 -825 126 -140 70 -340 213 -484 345 -60 55 -60 55 4
-25 100 -123 306 -323 410 -397 119 -85 297 -177 420 -219 76 -26 116 -33 200
-37 97 -4 112 -2 202 27 53 17 179 49 279 71 622 135 1000 325 1399 707 74 71
163 148 197 171 81 55 131 137 191 318 55 164 67 243 66 424 -1 150 -3 173
-28 255 -36 120 -98 247 -137 279 -37 32 -44 32 -63 4z"/>
<path d="M6445 3363 c-132 -147 -263 -258 -460 -390 -311 -207 -654 -338
-1106 -424 -173 -32 -233 -55 -227 -87 6 -32 57 -46 163 -46 128 1 224 16 404
66 405 111 711 261 988 485 204 166 277 247 340 380 38 78 39 106 7 111 -16 2
-43 -21 -109 -95z"/>
<path d="M6329 2904 c-46 -31 -115 -80 -154 -109 -232 -173 -509 -305 -842
-400 -276 -79 -374 -98 -508 -99 -115 0 -124 2 -213 37 -123 48 -149 55 -294
72 -68 8 -134 17 -148 20 -56 11 391 -135 471 -155 128 -30 244 -35 376 -16
464 65 855 230 1170 493 121 101 244 213 235 213 -5 0 -46 -25 -93 -56z"/>
</g>
</svg>
