<?xml version="1.0" standalone="no"?>
<!DOCTYPE svg PUBLIC "-//W3C//DTD SVG 20010904//EN"
 "http://www.w3.org/TR/2001/REC-SVG-20010904/DTD/svg10.dtd">
<svg version="1.0" xmlns="http://www.w3.org/2000/svg"
 width="1000.000000pt" height="1000.000000pt" viewBox="0 0 1000.000000 1000.000000"
 preserveAspectRatio="xMidYMid meet">
<metadata>
  <rdf:RDF
    xmlns:rdf = "http://www.w3.org/1999/02/22-rdf-syntax-ns#"
    xmlns:rdfs = "http://www.w3.org/2000/01/rdf-schema#"
    xmlns:dc = "http://purl.org/dc/elements/1.1/"
    xmlns:cc = "http://creativecommons.org/ns#">
    <cc:license rdf:resource="http://creativecommons.org/publicdomain/zero/1.0/deed.en"/>
    <cc:permits rdf:resource="http://creativecommons.org/ns#Reproduction"/>
    <rdf:Description about="https://nft.mir.one/fingerprints"
      dc:title="TON Fingerprints"
      dc:description="This is a unique digital fingerprint created based on the algorithm for generating basic rings using a noise texture. Like human fingerprints, you can now use it for the Web3 and Metaverse era as digital biometric information."
      dc:publisher="https://nft.mir.one"
      dc:date="2022-02-22"
      dc:format="image/svg+xml"
      dc:language="en" >
      <dc:creator>
      <rdf:Bag>
        <rdf:li>EQBondcvD2_aOFADXSWJHs4ZazQDuEl9_wNvGGPxI8hGuOFU</rdf:li>
        <rdf:li>ipfs://bafkreihj7iub3fhmhq6jn62noukt5wxn3gv6bvcg7wmt6ywvlurefezckq</rdf:li>
      </rdf:Bag>
      </dc:creator>
    </rdf:Description>
  </rdf:RDF>
</metadata>
<g transform="translate(0.000000,1000.000000) scale(0.100000,-0.100000)"
fill="#1b1f23" stroke="none">
<path d="M4588 7763 c7 -3 16 -2 19 1 4 3 -2 6 -13 5 -11 0 -14 -3 -6 -6z"/>
<path d="M4640 7761 c-19 -6 -5 -9 55 -15 44 -4 134 -16 200 -26 282 -46 386
-49 545 -18 115 23 115 23 -55 30 -93 4 -215 12 -270 19 -122 14 -440 21 -475
10z"/>
<path d="M4161 7558 c-1 -15 4 -30 9 -33 12 -7 12 12 0 40 -8 18 -9 17 -9 -7z"/>
<path d="M4568 7559 c-76 -9 -179 -37 -290 -78 -32 -11 -72 -21 -90 -21 -18 0
-47 -9 -65 -19 -66 -41 -536 -423 -673 -548 -17 -16 72 17 150 56 30 15 123
64 205 108 83 45 186 97 230 115 80 33 80 33 251 30 158 -2 173 -1 195 17 20
16 22 23 13 38 -14 22 -47 40 -99 53 -22 5 -49 16 -60 24 -20 15 -20 15 3 38
21 21 31 23 120 22 138 0 794 -32 942 -45 159 -14 240 -29 391 -74 133 -40
240 -55 399 -54 105 0 105 0 50 19 -145 50 -307 122 -425 187 -158 87 -200 97
-516 113 -118 6 -272 15 -344 20 -152 12 -279 11 -387 -1z"/>
<path d="M4775 7210 c-139 -10 -181 -21 -238 -65 -59 -45 -107 -66 -237 -100
-206 -54 -343 -106 -561 -215 -145 -73 -206 -119 -339 -257 -96 -99 -312 -374
-283 -361 28 13 86 52 166 111 170 127 397 257 591 337 54 23 191 73 305 111
146 50 234 86 303 125 182 104 274 126 528 126 358 1 629 -61 917 -209 292
-149 316 -167 392 -290 52 -85 78 -100 181 -107 50 -3 108 -16 175 -39 55 -19
118 -38 139 -41 39 -5 39 -5 15 12 -13 9 -54 41 -90 72 -80 67 -171 121 -259
155 -81 32 -113 55 -105 77 10 26 56 30 152 14 48 -8 108 -17 132 -20 45 -5
45 -5 -25 40 -99 63 -206 113 -283 131 -186 43 -321 107 -370 175 -14 20 -42
46 -61 56 -48 27 -235 86 -350 110 -206 45 -573 68 -795 52z"/>
<path d="M6034 7089 c-19 -21 -18 -21 9 -45 51 -43 339 -118 432 -112 46 3 46
3 -87 70 -216 109 -312 133 -354 87z"/>
<path d="M4735 6855 c-38 -7 -89 -20 -113 -30 -65 -27 -82 -72 -36 -101 21
-15 66 -19 272 -25 457 -14 682 -64 1140 -254 128 -53 175 -63 197 -45 52 43
-31 135 -200 222 -257 132 -491 205 -765 238 -115 14 -409 11 -495 -5z"/>
<path d="M4251 6589 c-431 -91 -966 -383 -1062 -582 -50 -103 20 -104 198 -3
365 208 648 319 928 366 87 14 443 15 629 0 313 -24 506 -64 836 -172 312
-102 458 -174 652 -317 97 -73 346 -290 503 -440 39 -37 90 -82 115 -101 45
-35 45 -35 24 -5 -12 17 -36 59 -54 95 -101 201 -337 468 -570 645 -196 147
-201 151 -381 209 -90 30 -231 77 -314 106 -294 101 -496 140 -865 165 -124 8
-275 24 -337 35 -137 24 -181 24 -302 -1z"/>
<path d="M6420 6310 c0 -39 45 -89 134 -150 127 -85 171 -103 281 -117 55 -6
101 -11 102 -10 4 5 -185 166 -232 199 -70 48 -207 108 -250 108 -32 0 -35 -2
-35 -30z"/>
<path d="M4460 6209 c-180 -19 -386 -68 -570 -135 -76 -29 -316 -140 -690
-322 -67 -33 -121 -139 -226 -452 -34 -102 -61 -186 -60 -187 8 -9 80 68 152
164 160 213 300 328 559 460 279 142 475 201 890 265 214 33 545 33 720 0 166
-31 361 -83 550 -147 410 -138 626 -271 1049 -649 139 -124 208 -232 160 -250
-19 -7 -42 5 -69 34 -38 43 -471 385 -576 456 -191 128 -378 203 -805 324
-269 76 -406 102 -579 108 -158 5 -164 4 -365 -53 -30 -9 -118 -23 -195 -31
-348 -37 -600 -123 -845 -286 -148 -98 -335 -287 -443 -446 -81 -120 -127
-317 -127 -552 0 -85 -4 -170 -9 -188 -5 -17 -8 -32 -5 -32 11 0 56 108 83
205 69 242 214 469 446 698 327 324 680 433 1040 323 201 -61 618 -212 698
-252 140 -69 197 -117 444 -368 240 -244 348 -365 402 -450 35 -56 38 -71 15
-80 -29 -11 -79 27 -244 188 -275 268 -415 390 -543 476 -206 137 -532 249
-820 281 -89 10 -114 16 -137 36 -75 62 -192 71 -328 24 -153 -54 -221 -105
-433 -334 -208 -223 -287 -339 -391 -572 -74 -168 -116 -326 -124 -470 -6
-110 -6 -110 31 -40 46 86 82 127 110 123 19 -3 20 -9 16 -103 -5 -160 23
-275 163 -662 22 -63 29 -96 35 -188 1 -12 10 -1 22 30 25 63 22 107 -26 315
-33 146 -51 256 -74 463 -6 48 -20 108 -31 134 -11 25 -20 60 -20 78 0 65 96
297 172 416 97 152 242 296 339 338 24 10 82 24 128 31 47 6 152 34 235 60
206 67 266 80 371 80 266 -1 634 -158 945 -404 47 -37 159 -132 250 -211 91
-79 203 -172 250 -207 107 -81 173 -166 250 -323 132 -267 177 -490 165 -815
-4 -102 -5 -183 -1 -180 17 18 108 292 125 383 28 143 26 193 -8 328 -41 164
-90 287 -201 514 -54 110 -104 225 -110 255 -27 120 -102 231 -315 465 -177
194 -249 291 -271 360 -22 70 -57 102 -169 158 -124 62 -253 108 -435 157
-224 60 -274 78 -300 105 -48 52 3 72 159 62 151 -9 307 -45 611 -140 80 -25
224 -62 320 -82 96 -21 212 -51 258 -67 100 -36 269 -147 430 -282 63 -52 141
-108 173 -126 33 -17 106 -59 163 -93 137 -82 164 -98 206 -117 36 -17 36 -17
14 48 -13 39 -20 78 -17 97 11 66 -54 236 -130 342 -30 43 -249 239 -392 353
-111 88 -273 194 -377 246 -305 154 -742 278 -1097 314 -121 12 -469 11 -591
-1z m-120 -942 c0 -40 -53 -77 -198 -137 -183 -77 -237 -93 -252 -75 -15 18 2
56 42 90 66 56 292 143 376 144 27 1 32 -3 32 -22z"/>
<path d="M6775 5950 c-11 -18 24 -67 91 -129 62 -57 163 -124 147 -98 -30 48
-101 144 -139 186 -44 49 -84 66 -99 41z"/>
<path d="M5717 5326 c-16 -16 -16 -19 0 -49 23 -46 154 -204 278 -337 223
-238 334 -417 500 -805 91 -213 156 -400 185 -530 11 -54 26 -107 32 -118 6
-12 14 -32 18 -46 11 -42 33 253 28 374 -4 104 -7 116 -52 225 -27 63 -64 152
-83 198 -39 94 -41 145 -7 150 43 6 141 -140 224 -333 19 -44 47 -97 61 -117
26 -38 26 -38 23 5 -26 300 -41 367 -99 450 -24 34 -57 84 -72 110 -134 231
-151 263 -216 410 -25 58 -195 227 -309 307 -136 97 -208 122 -323 111 -16 -1
-62 1 -101 5 -59 5 -73 4 -87 -10z m287 -101 c147 -96 314 -255 395 -374 64
-94 198 -316 205 -339 9 -27 -8 -52 -34 -52 -33 0 -78 49 -169 185 -127 187
-187 260 -349 421 -123 122 -142 145 -142 173 0 19 5 31 13 31 7 0 44 -20 81
-45z"/>
<path d="M6651 4906 c-18 -21 1 -57 87 -170 43 -55 111 -148 152 -206 77 -110
159 -207 146 -174 -4 10 -16 57 -26 104 -24 105 -63 221 -90 265 -33 53 -211
195 -245 195 -7 0 -18 -6 -24 -14z"/>
<path d="M4325 4895 c-86 -19 -245 -71 -334 -109 -101 -43 -182 -99 -262 -182
-75 -79 -113 -132 -159 -224 -78 -155 -96 -263 -80 -480 12 -164 23 -233 75
-477 45 -214 55 -244 126 -383 73 -144 108 -194 210 -297 201 -203 421 -300
712 -310 88 -4 159 -1 200 7 80 15 212 69 300 121 76 45 195 152 228 205 22
37 43 44 53 18 48 -125 -206 -358 -485 -442 -105 -32 -311 -72 -380 -73 -57
-2 -53 -3 36 -10 302 -26 606 45 793 186 116 88 229 297 299 555 19 70 27 129
30 226 7 161 -4 227 -63 403 -63 188 -53 245 29 159 51 -53 97 -144 133 -263
22 -75 27 -115 31 -241 6 -172 -6 -251 -62 -421 -70 -209 -161 -355 -332 -530
-131 -134 -128 -135 72 -5 113 73 277 231 339 325 69 105 127 298 146 480 26
255 -45 527 -181 696 -30 37 -79 79 -134 115 -47 31 -131 92 -186 135 -264
206 -463 264 -647 190 -254 -101 -459 -256 -555 -420 -73 -124 -80 -164 -85
-436 -4 -279 -3 -284 81 -337 260 -163 577 -148 763 38 72 73 107 141 128 256
18 95 25 106 54 91 27 -15 42 -62 42 -136 0 -160 -106 -309 -289 -404 -171
-89 -340 -106 -576 -57 -169 35 -229 25 -206 -35 12 -33 38 -54 101 -83 208
-95 478 -82 712 35 102 50 246 148 285 193 74 83 123 219 123 336 0 135 -86
348 -185 457 -98 109 -195 153 -336 153 -181 0 -342 -94 -454 -264 -38 -57
-55 -75 -70 -73 -35 4 -33 77 6 155 60 121 199 239 363 304 77 31 88 32 211
33 130 0 130 0 219 -43 121 -58 210 -146 253 -252 50 -121 102 -304 113 -398
18 -162 -19 -335 -102 -482 -43 -75 -43 -75 -88 -76 -49 0 -77 -13 -191 -85
-103 -66 -227 -123 -329 -150 -113 -31 -350 -34 -450 -6 -153 42 -228 94 -283
194 -21 37 -65 99 -97 136 -108 123 -185 253 -228 387 -40 120 -102 395 -113
499 -22 208 25 410 134 571 47 68 145 168 211 212 81 56 226 123 321 149 140
38 276 25 283 -28 4 -24 12 -20 -154 -61 -178 -44 -337 -133 -459 -257 -196
-199 -273 -511 -179 -722 14 -32 34 -98 45 -148 35 -161 67 -242 113 -291 50
-52 90 -59 108 -20 8 19 7 46 -8 118 -10 52 -18 133 -18 183 1 79 5 102 39
190 119 316 258 471 550 618 80 40 125 78 125 105 0 77 -163 44 -362 -74 -108
-64 -250 -204 -308 -302 -24 -41 -63 -126 -87 -190 -24 -64 -51 -125 -60 -134
-82 -91 -63 184 25 357 69 137 195 271 328 349 92 54 355 167 404 173 48 6
394 -104 528 -168 171 -83 450 -286 603 -442 295 -297 371 -787 194 -1237 -19
-47 -48 -119 -65 -160 -43 -102 -50 -120 -46 -120 9 0 193 250 233 317 102
173 133 273 133 438 0 217 -42 408 -130 594 -85 177 -174 279 -425 488 -368
305 -592 433 -979 559 -99 33 -125 37 -236 40 -82 2 -146 -2 -185 -11z m650
-1190 c64 -40 108 -101 108 -152 -1 -22 -21 -89 -49 -158 -41 -104 -55 -127
-104 -176 -40 -41 -70 -61 -110 -74 -107 -37 -221 -20 -306 44 -58 44 -93 102
-101 169 -9 79 9 112 115 221 132 134 187 162 318 158 70 -2 87 -6 129 -32z"/>
<path d="M4725 3591 c-84 -38 -145 -139 -131 -215 9 -47 65 -103 112 -112 42
-8 104 8 127 33 43 49 20 107 -39 101 -25 -3 -29 1 -32 23 -4 38 22 53 102 59
69 5 71 6 74 33 9 77 -115 123 -213 78z"/>
</g>
</svg>
