<?xml version="1.0" standalone="no"?>
<!DOCTYPE svg PUBLIC "-//W3C//DTD SVG 20010904//EN"
 "http://www.w3.org/TR/2001/REC-SVG-20010904/DTD/svg10.dtd">
<svg version="1.0" xmlns="http://www.w3.org/2000/svg"
 width="1000.000000pt" height="1000.000000pt" viewBox="0 0 1000.000000 1000.000000"
 preserveAspectRatio="xMidYMid meet">
<metadata>
  <rdf:RDF
    xmlns:rdf = "http://www.w3.org/1999/02/22-rdf-syntax-ns#"
    xmlns:rdfs = "http://www.w3.org/2000/01/rdf-schema#"
    xmlns:dc = "http://purl.org/dc/elements/1.1/"
    xmlns:cc = "http://creativecommons.org/ns#">
    <cc:license rdf:resource="http://creativecommons.org/publicdomain/zero/1.0/deed.en"/>
    <cc:permits rdf:resource="http://creativecommons.org/ns#Reproduction"/>
    <rdf:Description about="https://nft.mir.one/fingerprints"
      dc:title="TON Fingerprints"
      dc:description="This is a unique digital fingerprint created based on the algorithm for generating basic rings using a noise texture. Like human fingerprints, you can now use it for the Web3 and Metaverse era as digital biometric information."
      dc:publisher="https://nft.mir.one"
      dc:date="2022-02-22"
      dc:format="image/svg+xml"
      dc:language="en" >
      <dc:creator>
      <rdf:Bag>
        <rdf:li>EQBondcvD2_aOFADXSWJHs4ZazQDuEl9_wNvGGPxI8hGuOFU</rdf:li>
        <rdf:li>ipfs://bafkreihj7iub3fhmhq6jn62noukt5wxn3gv6bvcg7wmt6ywvlurefezckq</rdf:li>
      </rdf:Bag>
      </dc:creator>
    </rdf:Description>
  </rdf:RDF>
</metadata>
<g transform="translate(0.000000,1000.000000) scale(0.100000,-0.100000)"
fill="#1b1f23" stroke="none">
<path d="M4940 7775 c42 -43 322 -266 394 -312 79 -52 123 -39 96 27 -28 67
-197 186 -364 255 -183 76 -166 72 -126 30z"/>
<path d="M5376 7769 c34 -38 115 -185 130 -236 8 -25 14 -63 14 -84 0 -21 7
-64 15 -95 28 -109 0 -134 -84 -76 -31 22 -85 54 -121 72 -66 33 -100 55 -275
174 -137 94 -244 138 -432 176 -54 11 -107 23 -118 26 -41 13 69 -70 227 -170
90 -57 224 -142 298 -190 191 -122 313 -183 413 -205 46 -10 92 -23 104 -29
50 -27 215 -237 248 -316 13 -30 13 -36 0 -46 -19 -16 -68 -7 -104 19 -15 11
-65 52 -112 91 -92 78 -163 124 -344 222 -66 35 -199 113 -295 173 -336 208
-383 235 -434 250 -62 19 -151 32 -269 39 -88 6 -88 6 -55 -22 18 -16 105 -68
193 -117 191 -105 883 -530 994 -610 134 -96 328 -262 371 -316 61 -77 107
-160 171 -309 53 -122 83 -208 180 -520 17 -52 72 -180 124 -285 100 -202 132
-288 168 -449 21 -98 22 -117 22 -686 0 -578 -6 -694 -37 -818 -9 -36 -20 -49
-69 -82 -73 -50 -125 -119 -229 -300 -46 -80 -107 -179 -136 -220 -28 -41 -98
-163 -154 -270 -57 -107 -114 -211 -127 -230 -39 -56 140 136 226 241 104 129
205 281 275 416 32 61 85 144 118 185 33 40 66 85 73 99 32 60 40 58 118 -22
40 -41 79 -84 87 -95 18 -25 17 -47 18 706 1 547 7 637 54 775 28 83 30 97 25
185 -3 52 -20 167 -37 255 -42 214 -48 304 -25 401 33 141 7 324 -81 560 -45
122 -140 324 -184 391 -53 81 -112 103 -126 46 -13 -49 6 -123 84 -334 135
-363 206 -624 180 -656 -27 -33 -85 12 -129 97 -25 50 -176 477 -246 695 -126
392 -144 457 -153 537 -11 97 -28 149 -98 303 -27 61 -61 147 -76 192 -46 139
-142 267 -302 403 -55 46 -89 73 -78 59z"/>
<path d="M5871 7538 c5 -18 9 -49 9 -68 0 -53 69 -245 158 -440 150 -331 175
-370 278 -442 98 -67 157 -146 249 -333 129 -263 179 -443 195 -705 19 -302
43 -461 96 -640 33 -110 136 -307 176 -340 31 -24 31 -24 25 0 -18 67 -91 611
-117 874 -11 114 -31 259 -44 321 -50 235 -169 535 -295 745 -34 58 -168 249
-297 425 -129 176 -251 347 -271 380 -46 76 -164 255 -168 255 -2 0 1 -15 6
-32z"/>
<path d="M3937 7371 c-69 -6 -69 -6 -36 -30 18 -14 77 -46 130 -72 136 -67
304 -163 509 -292 96 -61 254 -160 350 -220 238 -150 305 -201 445 -341 142
-142 256 -304 348 -494 50 -104 60 -133 61 -180 2 -117 -56 -70 -199 159 -168
270 -333 467 -490 584 -38 29 -117 78 -175 110 -58 31 -213 128 -345 215 -260
171 -537 334 -594 350 -40 11 -137 12 -219 2 -54 -7 -54 -7 -25 -34 15 -14 93
-63 173 -108 303 -171 538 -332 738 -503 80 -69 96 -92 127 -181 10 -26 39
-76 66 -110 69 -87 129 -176 129 -191 0 -19 -26 -26 -54 -15 -31 11 -290 259
-379 361 -87 100 -168 174 -294 266 -139 101 -455 291 -500 299 -20 4 -75 1
-122 -7 -47 -8 -94 -14 -104 -13 -41 2 55 -71 208 -158 195 -111 363 -219 471
-303 164 -129 249 -253 200 -294 -21 -17 -58 4 -181 104 -136 110 -287 210
-469 312 -119 66 -158 83 -191 83 -47 0 -115 -20 -173 -49 -23 -12 -49 -21
-58 -21 -30 0 51 -47 148 -86 113 -45 236 -106 355 -175 108 -64 507 -332 547
-368 49 -44 268 -312 338 -411 151 -219 219 -356 318 -648 78 -225 85 -282 70
-505 -24 -366 -128 -1254 -166 -1424 -53 -238 -132 -438 -232 -585 -27 -40
-60 -93 -74 -118 -24 -45 -24 -45 83 8 58 28 127 70 152 92 51 45 72 91 136
305 79 263 118 473 226 1215 68 462 98 633 129 722 27 77 111 207 191 296 53
58 55 62 55 119 0 58 -24 164 -60 258 -34 92 -161 379 -185 421 -13 22 -68 85
-122 140 -88 88 -103 109 -138 189 -51 119 -89 175 -183 276 -44 46 -77 90
-75 97 7 19 62 14 111 -9 58 -29 163 -135 242 -245 35 -49 103 -141 150 -204
48 -63 123 -169 167 -235 44 -66 106 -151 137 -190 37 -46 83 -124 132 -225
42 -85 111 -227 155 -315 117 -240 158 -377 198 -665 42 -305 37 -507 -19
-725 -16 -62 -68 -206 -119 -329 -96 -231 -137 -348 -126 -366 12 -20 43 -10
72 23 17 19 56 85 88 148 32 63 91 170 131 240 40 69 80 143 89 165 61 144 83
403 66 755 -25 502 -58 650 -239 1066 -87 198 -108 266 -126 410 -35 270 -186
571 -389 776 -182 184 -377 320 -979 683 -335 202 -371 214 -601 195z m801
-1410 c183 -176 183 -176 239 -289 45 -93 70 -129 135 -198 86 -92 135 -178
164 -293 21 -82 16 -241 -9 -287 -37 -71 -75 -42 -107 79 -56 215 -92 292
-251 542 -108 169 -125 192 -271 364 -93 110 -130 170 -131 217 -1 36 17 58
38 46 5 -3 92 -85 193 -181z m444 -272 c31 -39 49 -111 30 -123 -28 -17 -91
62 -100 127 -4 36 -3 39 18 35 13 -1 36 -19 52 -39z"/>
<path d="M3280 6352 c-25 -9 -59 -25 -77 -35 -18 -9 -40 -17 -50 -17 -39 0 44
-49 152 -91 251 -96 542 -263 742 -426 234 -189 434 -456 532 -708 54 -138 71
-229 71 -382 0 -70 7 -195 16 -278 28 -272 17 -671 -26 -930 -16 -97 -13 -142
13 -176 33 -45 30 -179 -6 -312 -69 -252 -193 -487 -258 -487 -33 0 -32 25 6
117 155 376 238 672 195 698 -19 12 -67 -25 -92 -72 -14 -26 -50 -115 -78
-198 -29 -82 -73 -202 -97 -265 -64 -166 -113 -306 -113 -327 0 -10 -6 -30
-14 -44 -13 -26 -13 -26 17 -11 19 9 76 18 146 22 175 10 213 37 301 211 94
185 146 404 160 667 5 97 18 269 29 382 80 811 46 1150 -155 1555 -94 188
-243 394 -399 551 -154 155 -455 359 -724 492 -170 84 -215 93 -291 64z"/>
<path d="M3180 6051 c-25 -10 -66 -29 -92 -43 -48 -24 -48 -24 -20 -51 17 -17
85 -49 173 -83 351 -134 603 -294 811 -514 132 -139 198 -244 253 -403 63
-185 102 -247 156 -247 35 0 49 23 49 83 0 120 -125 412 -243 567 -154 202
-376 388 -642 538 -107 60 -357 172 -382 172 -10 -1 -38 -9 -63 -19z"/>
<path d="M3110 5710 c-19 -10 -59 -39 -88 -64 -30 -25 -59 -46 -65 -46 -29 -1
67 -34 150 -51 308 -64 577 -221 882 -514 70 -67 137 -124 149 -127 31 -9 55
18 47 51 -34 140 -261 379 -517 545 -104 68 -279 153 -401 195 -103 36 -110
36 -157 11z"/>
<path d="M3045 5378 c-22 -11 -51 -30 -65 -43 -14 -12 -34 -27 -44 -33 -18 -9
-17 -11 12 -26 18 -9 74 -27 125 -41 296 -77 597 -257 911 -546 204 -187 306
-401 337 -702 27 -266 -7 -452 -171 -950 -75 -226 -114 -312 -177 -398 -41
-56 -41 -56 19 -42 69 16 125 42 150 70 27 30 70 131 153 363 42 118 96 262
121 318 85 196 110 359 101 656 -4 137 -12 210 -31 300 -35 169 -64 222 -199
362 -92 96 -124 122 -187 154 -47 24 -134 86 -230 165 -188 154 -300 229 -445
301 -112 54 -279 114 -318 114 -12 -1 -40 -10 -62 -22z"/>
<path d="M3024 5067 c-22 -12 -57 -35 -77 -51 -36 -30 -36 -30 -7 -47 16 -10
71 -32 122 -49 314 -105 648 -331 736 -499 38 -72 135 -361 159 -471 14 -65
18 -127 18 -260 -1 -207 -12 -276 -96 -608 -32 -129 -59 -248 -59 -266 0 -38
27 -137 42 -151 7 -7 8 -3 4 11 -4 14 3 33 24 60 16 21 41 55 54 74 41 59 174
527 207 726 20 119 17 400 -5 504 -53 258 -159 455 -329 617 -182 172 -430
327 -655 407 -87 31 -86 31 -138 3z"/>
<path d="M5628 4908 c-9 -7 -26 -44 -38 -83 -11 -38 -38 -97 -60 -130 -21 -33
-48 -81 -59 -107 -42 -100 -97 -361 -191 -909 -39 -228 -82 -472 -96 -544 -30
-154 -165 -700 -199 -800 -12 -38 -25 -87 -28 -108 -6 -38 -6 -38 46 -1 76 54
126 104 147 145 11 20 26 81 34 135 8 55 40 203 70 329 50 208 123 559 219
1065 20 102 52 244 71 315 20 72 45 191 56 266 10 75 22 143 26 153 12 33 47
14 74 -39 22 -44 25 -66 28 -180 4 -125 3 -132 -22 -175 -69 -119 -79 -154
-132 -435 -57 -307 -160 -781 -230 -1053 -39 -153 -64 -273 -64 -305 0 -54 22
-103 42 -91 36 22 162 393 213 624 20 91 63 276 96 412 63 261 99 459 119 649
7 64 16 122 20 129 12 19 45 3 60 -28 19 -41 24 -177 11 -288 -17 -140 -42
-257 -110 -509 -33 -121 -72 -285 -86 -365 -14 -80 -40 -185 -57 -235 -31 -94
-118 -279 -163 -352 -25 -40 -26 -43 -8 -43 29 0 89 47 164 128 73 79 109 140
168 290 41 103 41 103 25 153 -22 67 -13 111 86 408 104 311 124 417 125 631
0 157 -2 174 -43 363 -24 109 -52 228 -63 265 -42 136 -135 284 -200 317 -34
18 -31 18 -51 3z"/>
<path d="M3029 4737 c-20 -12 -51 -35 -70 -50 -33 -29 -33 -29 -8 -48 13 -10
40 -26 59 -35 166 -78 283 -152 318 -202 11 -15 27 -50 36 -79 10 -28 57 -113
106 -188 48 -75 100 -168 114 -207 75 -201 74 -459 -3 -753 -16 -60 -31 -129
-34 -153 -5 -38 -3 -43 11 -37 10 4 36 10 59 14 72 14 106 41 125 99 29 85 67
288 80 420 19 209 -14 416 -91 557 -29 55 -51 80 -102 118 -83 62 -191 166
-186 181 6 18 53 18 89 0 18 -9 53 -32 77 -51 114 -87 141 9 33 117 -38 37
-105 84 -198 138 -160 92 -339 182 -363 182 -9 0 -32 -10 -52 -23z"/>
<path d="M6742 4608 c-30 -37 -52 -233 -52 -476 0 -257 17 -536 37 -605 9 -31
18 -55 20 -53 5 4 24 135 48 316 9 63 20 212 25 330 8 172 14 228 31 280 24
74 18 119 -24 181 -24 37 -66 50 -85 27z"/>
<path d="M6923 4298 c4 -51 16 -127 27 -168 20 -75 20 -75 17 76 -1 111 -6
155 -16 167 -28 35 -34 19 -28 -75z"/>
<path d="M3050 4350 c-19 -11 -43 -22 -52 -26 -10 -3 -18 -7 -18 -8 0 -1 25
-28 56 -61 100 -107 157 -213 209 -391 20 -68 29 -128 36 -254 6 -91 9 -184 6
-207 -4 -37 -3 -40 11 -27 10 11 25 13 52 9 45 -8 103 14 119 43 16 30 14 257
-3 344 -44 230 -262 599 -353 598 -15 -1 -44 -10 -63 -20z"/>
<path d="M6375 3150 c-10 -11 -26 -22 -36 -25 -27 -9 -71 -83 -129 -217 -45
-105 -121 -308 -115 -308 8 0 154 258 205 360 33 69 66 130 71 135 16 15 39
-23 40 -64 0 -20 4 -45 8 -56 15 -37 28 123 15 173 -8 27 -35 29 -59 2z"/>
<path d="M6411 2934 c0 -11 3 -14 6 -6 3 7 2 16 -1 19 -3 4 -6 -2 -5 -13z"/>
</g>
</svg>
