<?xml version="1.0" standalone="no"?>
<!DOCTYPE svg PUBLIC "-//W3C//DTD SVG 20010904//EN"
 "http://www.w3.org/TR/2001/REC-SVG-20010904/DTD/svg10.dtd">
<svg version="1.0" xmlns="http://www.w3.org/2000/svg"
 width="1000.000000pt" height="1000.000000pt" viewBox="0 0 1000.000000 1000.000000"
 preserveAspectRatio="xMidYMid meet">
<metadata>
  <rdf:RDF
    xmlns:rdf = "http://www.w3.org/1999/02/22-rdf-syntax-ns#"
    xmlns:rdfs = "http://www.w3.org/2000/01/rdf-schema#"
    xmlns:dc = "http://purl.org/dc/elements/1.1/"
    xmlns:cc = "http://creativecommons.org/ns#">
    <cc:license rdf:resource="http://creativecommons.org/publicdomain/zero/1.0/deed.en"/>
    <cc:permits rdf:resource="http://creativecommons.org/ns#Reproduction"/>
    <rdf:Description about="https://nft.mir.one/fingerprints"
      dc:title="TON Fingerprints"
      dc:description="This is a unique digital fingerprint created based on the algorithm for generating basic rings using a noise texture. Like human fingerprints, you can now use it for the Web3 and Metaverse era as digital biometric information."
      dc:publisher="https://nft.mir.one"
      dc:date="2022-02-22"
      dc:format="image/svg+xml"
      dc:language="en" >
      <dc:creator>
      <rdf:Bag>
        <rdf:li>EQBondcvD2_aOFADXSWJHs4ZazQDuEl9_wNvGGPxI8hGuOFU</rdf:li>
        <rdf:li>ipfs://bafkreihj7iub3fhmhq6jn62noukt5wxn3gv6bvcg7wmt6ywvlurefezckq</rdf:li>
      </rdf:Bag>
      </dc:creator>
    </rdf:Description>
  </rdf:RDF>
</metadata>
<g transform="translate(0.000000,1000.000000) scale(0.100000,-0.100000)"
fill="#1b1f23" stroke="none">
<path d="M5154 7769 c22 -24 81 -84 132 -134 72 -70 99 -104 119 -150 15 -33
31 -70 37 -82 6 -12 54 -60 107 -107 137 -120 291 -281 408 -427 100 -124 116
-139 153 -139 26 0 31 12 20 51 -34 121 -300 462 -551 704 -121 117 -195 175
-299 235 -184 105 -170 99 -126 49z"/>
<path d="M4719 7751 c41 -52 87 -89 226 -183 187 -128 336 -198 390 -184 54
14 27 60 -84 144 -95 71 -245 146 -403 201 -65 22 -128 45 -140 52 -18 10 -16
4 11 -30z"/>
<path d="M5603 7694 c50 -80 126 -180 232 -306 164 -195 252 -318 312 -437 46
-89 48 -97 49 -181 1 -98 -16 -64 189 -395 100 -161 148 -267 153 -334 3 -42
0 -60 -11 -69 -20 -17 -18 -18 -121 144 -107 170 -233 339 -328 441 -42 44
-86 99 -97 121 -73 144 -420 475 -583 558 -27 14 -109 41 -181 60 -152 41
-227 76 -381 178 -61 41 -125 81 -142 89 -47 24 -182 57 -254 63 -36 2 -87 7
-113 9 -48 4 -48 4 -18 -33 18 -23 66 -58 127 -92 110 -60 332 -205 441 -287
44 -33 99 -88 138 -139 36 -46 96 -108 133 -138 89 -71 554 -376 662 -434 154
-82 201 -125 397 -360 147 -176 203 -225 270 -238 25 -5 54 -29 122 -103 49
-53 102 -121 118 -151 34 -63 58 -72 103 -40 37 27 57 89 69 224 17 172 -29
376 -123 551 -178 331 -439 785 -452 785 -2 0 5 -18 15 -39 11 -21 39 -85 62
-142 59 -150 176 -388 247 -505 124 -203 172 -338 172 -477 0 -83 -31 -167
-61 -167 -21 0 -41 56 -63 173 -31 159 -66 247 -188 467 -53 96 -116 222 -138
280 -117 296 -275 504 -603 792 -88 78 -158 137 -154 132z m-350 -542 c182
-81 669 -479 641 -524 -9 -15 -49 -8 -90 16 -23 13 -95 64 -160 113 -65 49
-202 147 -304 217 -102 70 -195 138 -207 152 -58 64 4 77 120 26z"/>
<path d="M4090 7520 c36 -12 88 -12 95 0 4 6 -17 10 -57 9 -47 -1 -57 -3 -38
-9z"/>
<path d="M4090 7375 c-63 -8 -146 -17 -183 -21 -68 -7 -68 -7 -25 -26 24 -11
95 -33 158 -48 159 -39 276 -83 369 -139 120 -73 550 -410 681 -535 35 -33 67
-77 89 -122 30 -60 64 -99 258 -292 317 -317 383 -405 423 -562 11 -45 47
-123 94 -209 112 -206 170 -365 206 -570 6 -35 18 -82 27 -103 31 -77 97 -53
124 45 17 65 6 285 -20 382 -40 150 -251 533 -406 740 -85 113 -206 237 -369
378 -201 174 -256 228 -256 249 0 26 40 23 98 -6 26 -13 101 -65 166 -115 268
-205 374 -314 635 -655 172 -226 211 -283 255 -377 59 -123 78 -213 78 -374 1
-172 -12 -238 -86 -422 -60 -152 -106 -305 -162 -548 -44 -190 -88 -324 -154
-461 -51 -105 -82 -141 -175 -198 -28 -17 -68 -57 -96 -95 -60 -80 -183 -328
-235 -471 -43 -119 -126 -284 -208 -418 -31 -50 -62 -106 -68 -124 -6 -18 -20
-46 -32 -63 -21 -30 -21 -30 24 6 25 19 76 57 113 83 38 26 134 116 215 198
129 132 156 154 218 183 155 71 293 271 400 580 21 61 89 212 151 336 62 125
113 236 113 247 0 11 -7 37 -16 58 -28 68 -16 187 35 329 159 446 179 518 200
717 14 127 14 434 0 515 -11 63 -11 63 -80 99 -90 47 -355 295 -510 477 -132
154 -230 254 -314 318 -131 101 -376 260 -490 318 -142 73 -247 148 -406 293
-197 178 -350 287 -516 365 -112 53 -154 58 -323 38z m1960 -4054 c30 -56 -1
-158 -99 -335 -94 -168 -143 -237 -166 -234 -32 5 -32 81 -1 158 24 60 198
392 218 418 15 18 36 15 48 -7z"/>
<path d="M3825 7173 c-16 -2 -63 -11 -104 -20 -74 -16 -74 -16 -40 -33 19 -10
102 -36 186 -59 190 -51 277 -82 376 -134 83 -42 115 -79 86 -98 -23 -14 -51
-11 -155 21 -389 119 -406 123 -476 116 -36 -3 -95 -15 -130 -26 -34 -11 -76
-20 -93 -20 -29 0 -29 -1 12 -20 23 -10 97 -32 165 -49 68 -16 210 -55 317
-86 107 -30 253 -67 325 -81 149 -29 258 -75 403 -170 153 -99 209 -149 593
-530 395 -392 433 -424 460 -374 28 52 -69 178 -385 500 -121 124 -254 263
-295 309 -91 102 -196 191 -400 338 -85 61 -177 135 -205 163 -104 108 -238
184 -410 234 -84 24 -148 30 -230 19z"/>
<path d="M3470 6726 c-25 -7 -62 -21 -84 -30 -21 -9 -50 -16 -65 -16 -50 -1
48 -34 244 -81 224 -54 568 -176 746 -265 36 -18 111 -48 166 -68 229 -79 273
-113 739 -580 417 -417 452 -458 538 -640 77 -161 146 -393 146 -491 0 -89
-44 -172 -87 -163 -19 3 -20 4 -53 183 -43 224 -143 463 -264 627 -77 104
-666 711 -785 810 -140 115 -232 148 -239 85 -3 -24 16 -47 135 -170 151 -154
248 -262 390 -432 52 -63 123 -134 163 -164 189 -144 291 -314 414 -690 63
-192 71 -210 130 -294 41 -59 41 -59 41 -150 -2 -228 -62 -399 -316 -902 -108
-214 -222 -435 -254 -490 -79 -136 -199 -313 -284 -415 -39 -47 -83 -109 -100
-137 -27 -49 -29 -66 -5 -44 5 4 50 25 99 45 91 38 202 98 264 145 47 35 157
206 235 365 35 72 105 214 155 316 51 105 134 252 191 340 56 85 116 182 135
215 52 92 108 243 159 425 113 407 120 477 67 600 -18 41 -57 149 -87 240 -63
192 -141 356 -216 455 -32 42 -89 97 -146 142 -52 39 -230 206 -396 370 -380
376 -472 451 -684 557 -133 67 -215 98 -470 177 -452 140 -519 154 -622 125z"/>
<path d="M3335 6480 c-27 -10 -71 -27 -97 -37 -46 -18 -46 -18 -5 -35 23 -9
87 -26 142 -38 232 -51 516 -165 686 -275 93 -60 171 -135 324 -310 219 -251
333 -415 401 -577 59 -138 155 -466 183 -623 10 -50 9 -62 -3 -71 -21 -15 -38
-63 -31 -85 9 -29 -22 -36 -47 -11 -16 15 -29 63 -55 187 -62 308 -172 597
-301 790 -110 164 -293 378 -412 481 -181 158 -416 278 -689 355 -125 34 -139
33 -260 -25 -70 -33 -70 -33 -33 -49 20 -9 73 -24 117 -33 203 -43 447 -146
619 -262 175 -117 376 -325 509 -527 131 -200 202 -373 288 -710 33 -126 71
-268 85 -315 64 -208 35 -447 -87 -709 -81 -174 -251 -392 -332 -426 -20 -8
-62 -15 -93 -15 -43 0 -81 -10 -156 -40 -120 -48 -158 -52 -158 -15 0 40 78
115 214 207 142 96 227 179 301 291 105 162 145 293 152 497 5 126 2 166 -22
305 -90 543 -228 838 -535 1146 -206 207 -402 328 -679 419 -139 46 -148 45
-265 -10 -78 -37 -78 -37 -5 -59 439 -132 599 -220 839 -461 146 -145 227
-253 302 -405 104 -208 139 -354 157 -667 10 -184 -1 -327 -34 -443 -47 -163
-114 -254 -240 -327 -50 -30 -105 -77 -193 -169 -109 -112 -131 -131 -190
-155 -89 -37 -212 -116 -240 -153 -12 -16 -18 -32 -14 -34 26 -15 185 -39 202
-31 11 5 32 34 47 64 32 63 68 80 78 37 7 -26 -16 -90 -41 -118 -12 -13 -13
-22 -5 -37 18 -34 69 -47 181 -46 121 0 180 17 292 85 63 38 71 41 85 26 28
-27 8 -85 -46 -138 -77 -74 -288 -147 -431 -149 -46 -1 -138 -17 -108 -19 9 0
52 -20 95 -43 75 -40 82 -42 183 -46 58 -2 128 0 156 5 56 11 94 2 94 -22 0
-8 -27 -41 -59 -73 -84 -81 -132 -139 -104 -124 12 7 45 17 75 23 112 24 171
68 194 146 9 32 41 89 82 145 116 161 321 497 398 652 77 156 151 363 178 501
8 44 22 139 31 210 13 112 21 140 53 205 61 124 52 202 -64 568 -31 96 -62
213 -70 260 -29 171 -121 312 -427 656 -63 71 -136 164 -161 207 -26 43 -67
96 -93 118 -117 103 -395 230 -696 317 -134 38 -190 42 -262 14z m1677 -1977
c33 -37 34 -103 2 -103 -17 0 -20 8 -29 73 -7 50 2 59 27 30z"/>
<path d="M3095 5741 c-138 -52 -128 -45 -92 -66 18 -11 77 -37 132 -58 390
-147 666 -371 846 -684 98 -172 157 -373 115 -389 -28 -11 -62 31 -131 167
-37 70 -94 169 -127 221 -80 121 -270 312 -392 392 -112 74 -302 166 -342 166
-17 0 -64 -17 -105 -38 -74 -38 -74 -38 -39 -61 19 -13 66 -34 105 -48 311
-112 554 -318 726 -619 138 -239 183 -322 201 -373 30 -83 35 -263 13 -438
-15 -128 -16 -142 -1 -177 14 -35 19 -38 43 -31 41 10 67 39 101 113 62 135
87 294 77 492 -4 69 -2 164 4 211 11 99 3 181 -30 279 -112 342 -402 667 -754
844 -95 47 -265 116 -287 116 -7 -1 -35 -9 -63 -19z"/>
<path d="M7000 5375 c-24 -29 -41 -114 -55 -280 -35 -398 -69 -517 -247 -885
-55 -113 -109 -232 -119 -265 -18 -56 -18 -61 -2 -72 36 -27 116 15 173 91 51
68 154 276 190 385 66 198 90 371 97 706 4 191 9 279 19 303 13 32 13 32 -15
32 -16 0 -34 -7 -41 -15z"/>
<path d="M5087 5213 c-18 -18 -1 -88 57 -236 115 -291 139 -397 139 -602 -1
-435 -142 -862 -458 -1385 -74 -122 -282 -434 -354 -530 -31 -41 -63 -90 -72
-110 -16 -36 -16 -36 62 -14 103 30 218 79 250 107 97 84 353 495 528 852 251
509 316 789 252 1090 -57 269 -117 449 -204 618 -81 159 -165 246 -200 210z"/>
<path d="M3015 5167 c-22 -13 -56 -35 -76 -48 -35 -25 -35 -25 15 -45 28 -12
82 -33 120 -48 199 -78 376 -252 486 -480 72 -147 91 -225 97 -388 5 -119 3
-151 -17 -234 -13 -58 -39 -129 -63 -178 -42 -80 -72 -115 -251 -285 -65 -61
-75 -50 84 -95 100 -29 122 -21 239 89 125 118 161 194 192 400 43 297 18 462
-111 718 -144 284 -345 491 -576 593 -68 30 -88 30 -139 1z"/>
<path d="M2995 4855 c-22 -14 -48 -28 -57 -31 -10 -4 -18 -9 -18 -13 0 -4 41
-34 91 -66 208 -135 310 -325 297 -559 -7 -113 -36 -194 -110 -304 -85 -126
-83 -113 -19 -140 31 -12 77 -25 102 -29 44 -5 47 -4 83 38 48 57 100 165 121
256 28 116 18 291 -24 412 -59 176 -176 334 -313 424 -66 43 -98 46 -153 12z"/>
<path d="M2996 4455 c-13 -10 -24 -11 -37 -5 -16 9 -16 6 4 -37 15 -35 21 -68
22 -124 0 -70 1 -75 18 -65 12 8 22 8 37 -2 32 -20 77 -15 94 10 33 47 8 179
-41 218 -30 23 -70 25 -97 5z"/>
<path d="M6870 3842 c-276 -284 -333 -361 -492 -667 -124 -237 -182 -332 -284
-466 -86 -111 -146 -170 -278 -268 -50 -37 -100 -79 -111 -92 -18 -22 -18 -22
10 2 17 14 83 61 147 103 230 150 427 379 670 781 47 77 120 194 163 260 99
153 247 409 233 404 -2 0 -28 -26 -58 -57z"/>
</g>
</svg>
