<?xml version="1.0" standalone="no"?>
<!DOCTYPE svg PUBLIC "-//W3C//DTD SVG 20010904//EN"
 "http://www.w3.org/TR/2001/REC-SVG-20010904/DTD/svg10.dtd">
<svg version="1.0" xmlns="http://www.w3.org/2000/svg"
 width="1000.000000pt" height="1000.000000pt" viewBox="0 0 1000.000000 1000.000000"
 preserveAspectRatio="xMidYMid meet">
<metadata>
  <rdf:RDF
    xmlns:rdf = "http://www.w3.org/1999/02/22-rdf-syntax-ns#"
    xmlns:rdfs = "http://www.w3.org/2000/01/rdf-schema#"
    xmlns:dc = "http://purl.org/dc/elements/1.1/"
    xmlns:cc = "http://creativecommons.org/ns#">
    <cc:license rdf:resource="http://creativecommons.org/publicdomain/zero/1.0/deed.en"/>
    <cc:permits rdf:resource="http://creativecommons.org/ns#Reproduction"/>
    <rdf:Description about="https://nft.mir.one/fingerprints"
      dc:title="TON Fingerprints"
      dc:description="This is a unique digital fingerprint created based on the algorithm for generating basic rings using a noise texture. Like human fingerprints, you can now use it for the Web3 and Metaverse era as digital biometric information."
      dc:publisher="https://nft.mir.one"
      dc:date="2022-02-22"
      dc:format="image/svg+xml"
      dc:language="en" >
      <dc:creator>
      <rdf:Bag>
        <rdf:li>EQBondcvD2_aOFADXSWJHs4ZazQDuEl9_wNvGGPxI8hGuOFU</rdf:li>
        <rdf:li>ipfs://bafkreihj7iub3fhmhq6jn62noukt5wxn3gv6bvcg7wmt6ywvlurefezckq</rdf:li>
      </rdf:Bag>
      </dc:creator>
    </rdf:Description>
  </rdf:RDF>
</metadata>
<g transform="translate(0.000000,1000.000000) scale(0.100000,-0.100000)"
fill="#1b1f23" stroke="none">
<path d="M4689 7737 c19 -20 66 -53 105 -73 60 -32 84 -38 163 -45 111 -10
161 -31 409 -174 290 -168 335 -206 546 -470 141 -176 210 -250 413 -445 155
-148 238 -260 325 -435 98 -196 110 -250 110 -489 0 -197 -13 -354 -31 -388
-16 -29 -42 -17 -56 25 -7 21 -20 113 -28 205 -21 224 -40 327 -80 449 -42
125 -95 231 -175 352 -74 109 -136 175 -245 256 -63 47 -118 105 -255 270
-275 331 -363 411 -680 620 -151 99 -219 135 -260 135 -35 0 -45 -16 -31 -52
17 -45 69 -95 250 -240 341 -275 616 -576 711 -781 34 -71 73 -235 90 -370 11
-94 26 -139 113 -337 100 -229 213 -565 306 -915 49 -183 70 -300 91 -505 13
-130 24 -172 55 -207 19 -23 27 -26 42 -17 29 17 42 54 53 150 13 113 13 246
0 313 -5 29 -23 83 -40 120 -16 38 -49 144 -73 237 -64 245 -199 701 -245 829
-22 61 -79 210 -126 331 -86 221 -100 279 -71 290 42 16 120 -90 221 -300 83
-174 140 -349 199 -611 26 -115 62 -249 80 -296 36 -93 47 -140 70 -298 16
-112 33 -151 66 -151 32 0 48 56 64 218 13 134 19 161 70 306 55 158 55 158
54 309 0 124 2 155 17 182 17 32 16 34 -20 144 -78 239 -192 468 -307 621 -34
45 -101 114 -157 161 -122 103 -296 279 -362 367 -27 37 -62 98 -76 136 -32
83 -63 119 -178 208 -107 83 -132 96 -273 147 -60 21 -165 64 -236 95 -157 69
-228 89 -435 121 -89 13 -175 28 -190 31 -27 7 -27 7 7 -29z"/>
<path d="M5420 7730 c59 -52 138 -106 170 -115 25 -8 25 -8 5 14 -10 12 -64
49 -120 82 -96 57 -98 58 -55 19z"/>
<path d="M4260 7594 c19 -22 69 -63 110 -90 141 -93 265 -191 470 -371 363
-320 568 -541 797 -862 119 -165 152 -201 183 -201 61 0 47 91 -40 265 -122
246 -327 481 -705 812 -82 72 -202 185 -265 251 -67 69 -133 129 -157 141 -57
28 -186 58 -305 70 -54 5 -103 13 -110 17 -7 4 3 -10 22 -32z"/>
<path d="M3933 7368 c34 -43 50 -54 274 -189 412 -249 609 -412 825 -680 51
-64 195 -228 319 -365 338 -373 400 -455 513 -683 155 -308 340 -894 319
-1004 -13 -64 -60 -38 -103 58 -16 33 -58 155 -95 270 -120 373 -213 580 -360
800 -105 156 -239 308 -499 562 -222 216 -227 222 -242 279 -20 79 -40 108
-136 200 -141 135 -342 265 -645 421 -127 65 -192 93 -217 93 -19 0 -70 -11
-113 -25 -43 -13 -102 -29 -131 -36 -54 -11 -54 -11 -33 -30 26 -24 27 -70 4
-91 -25 -22 -158 -88 -180 -89 -30 -2 39 -17 85 -18 24 0 88 11 143 25 90 23
106 24 169 15 141 -22 366 -108 555 -212 124 -69 340 -210 400 -262 36 -31 38
-36 25 -52 -11 -13 -25 -16 -66 -13 -40 3 -93 26 -244 102 -353 179 -533 238
-790 258 -147 12 -147 12 -223 -15 -41 -15 -104 -40 -138 -57 -62 -29 -62 -29
-35 -40 16 -6 59 -15 97 -20 37 -5 108 -23 158 -40 49 -16 152 -39 230 -50
152 -22 283 -53 401 -95 73 -27 395 -168 555 -245 251 -120 605 -465 800 -781
114 -184 177 -328 254 -579 88 -285 130 -371 243 -498 94 -105 173 -279 198
-436 19 -114 8 -316 -20 -389 -24 -63 -43 -78 -67 -54 -12 12 -18 52 -24 174
-10 181 -30 294 -66 374 -29 66 -83 122 -134 138 -40 13 -39 11 -136 235 -85
198 -110 273 -128 396 -20 132 -53 229 -121 360 -155 293 -384 563 -646 761
-142 107 -254 173 -467 278 -258 126 -467 184 -671 183 -97 0 -115 -3 -245
-45 -77 -26 -165 -53 -195 -61 -62 -17 -139 -77 -239 -187 -60 -66 -60 -66
-23 -59 20 4 84 24 142 44 233 83 453 122 632 113 228 -10 385 -63 578 -191
69 -46 175 -114 235 -151 320 -197 547 -423 742 -742 154 -251 185 -369 79
-304 -50 31 -102 92 -193 226 -217 319 -426 514 -692 648 -124 62 -125 62
-205 60 -45 -1 -223 -1 -396 -1 -538 -1 -798 -36 -903 -123 -32 -27 -128 -139
-150 -175 -11 -19 46 -1 153 46 108 47 223 80 285 80 23 0 65 -7 94 -16 49
-14 66 -14 191 0 249 29 571 18 737 -25 315 -80 655 -392 835 -765 56 -116 87
-146 114 -109 8 10 14 36 14 57 0 44 16 49 48 16 21 -23 95 -206 162 -403 48
-140 113 -503 139 -786 14 -144 26 -224 41 -265 50 -139 50 -138 35 -207 -32
-154 -132 -324 -268 -454 -78 -75 -178 -143 -306 -208 -38 -19 -159 -103 -190
-131 -8 -8 308 105 384 137 168 69 343 196 500 361 130 136 213 254 288 408
33 69 82 159 107 200 67 107 77 128 105 225 32 112 47 269 35 373 -5 45 -25
127 -45 184 -48 141 -65 226 -65 338 0 168 -41 357 -146 682 -91 280 -194 525
-291 693 -36 60 -80 112 -178 210 -72 72 -183 194 -247 272 -369 455 -648 726
-1024 993 -198 141 -201 142 -405 144 -136 1 -136 1 -106 -36z m1972 -3317
c14 -24 58 -266 80 -451 30 -248 31 -330 6 -387 -23 -50 -65 -82 -90 -66 -13
8 -17 37 -23 169 -3 87 -13 220 -22 294 -33 275 -36 319 -25 368 14 64 54 104
74 73z"/>
<path d="M6080 7211 c0 -11 17 -41 39 -68 58 -73 350 -356 396 -383 22 -14 63
-27 92 -30 29 -3 53 -5 53 -4 0 1 -24 15 -52 32 -31 17 -80 60 -118 103 -96
110 -268 286 -323 330 -54 43 -87 50 -87 20z"/>
<path d="M3332 6430 c-35 -16 -88 -48 -119 -69 -55 -40 -55 -40 -27 -47 57
-15 290 34 319 66 23 25 11 56 -27 69 -49 17 -78 13 -146 -19z"/>
<path d="M3515 5940 c-129 -23 -258 -56 -315 -81 -53 -24 -242 -212 -217 -217
8 -2 69 15 136 38 66 22 158 49 203 60 214 50 512 64 748 34 160 -19 215 -21
234 -4 63 51 -81 138 -292 175 -112 20 -372 18 -497 -5z"/>
<path d="M6950 5735 c0 -3 18 -23 40 -45 22 -22 40 -37 40 -32 0 17 -52 82
-65 82 -8 0 -15 -2 -15 -5z"/>
<path d="M3350 5385 c-65 -16 -188 -66 -245 -99 -45 -27 -102 -98 -174 -218
-23 -38 -23 -38 21 -19 24 10 72 37 108 60 35 23 126 73 201 111 76 39 151 81
168 96 37 31 42 69 9 78 -27 7 -20 8 -88 -9z"/>
<path d="M3789 5330 c-107 -15 -181 -43 -342 -131 -260 -141 -356 -200 -387
-237 -30 -37 -146 -252 -135 -252 12 0 54 28 125 84 211 166 498 309 709 351
115 24 362 17 473 -13 190 -51 357 -150 503 -297 113 -114 167 -201 163 -265
-5 -73 -25 -66 -147 52 -194 190 -275 252 -414 319 -198 95 -487 106 -727 28
-152 -50 -320 -138 -447 -236 -62 -47 -78 -66 -108 -127 -19 -39 -48 -115 -64
-169 -29 -99 -29 -99 103 36 95 98 156 151 221 193 155 101 318 160 503 185
283 38 632 -92 632 -235 0 -35 -15 -34 -113 13 -144 70 -225 86 -427 85 -162
0 -182 -2 -265 -28 -177 -54 -321 -141 -440 -267 -74 -78 -91 -115 -114 -243
-10 -55 -14 -356 -4 -311 2 11 18 65 35 120 75 245 193 388 403 490 139 67
203 80 385 79 120 0 177 -6 254 -22 137 -31 211 -29 260 4 38 26 38 26 179
-26 91 -33 168 -54 215 -60 88 -10 115 -31 194 -150 125 -187 150 -314 107
-532 -24 -120 -21 -158 14 -158 12 0 31 7 41 15 23 18 56 20 56 4 0 -6 -17
-38 -37 -71 -30 -48 -38 -72 -41 -122 -3 -49 -1 -65 13 -76 43 -36 104 37 125
149 8 43 7 66 -6 112 -17 62 -9 114 24 152 41 47 73 -2 92 -143 26 -190 -17
-318 -167 -496 -70 -84 -143 -198 -239 -379 -57 -107 -83 -144 -149 -211 -46
-47 -123 -110 -180 -148 -114 -75 -181 -130 -150 -122 11 3 72 14 135 25 139
24 304 78 419 135 47 24 109 51 137 60 140 46 266 171 331 329 25 61 26 66 29
377 5 416 -5 491 -91 680 -23 52 -55 134 -69 182 -54 177 -103 273 -215 413
-22 28 -74 111 -116 185 -43 74 -98 161 -123 194 -191 248 -433 405 -712 461
-91 19 -361 27 -451 15z m1614 -2377 c-3 -71 -82 -202 -176 -290 -56 -53 -90
-66 -100 -39 -12 31 18 98 96 216 70 106 126 162 157 158 23 -3 25 -7 23 -45z"/>
<path d="M6973 5328 c-23 -29 -59 -200 -89 -413 -9 -66 -32 -168 -50 -226 -22
-69 -43 -167 -59 -280 -28 -201 -43 -257 -95 -355 -25 -48 -42 -96 -49 -145
-60 -375 -72 -424 -162 -633 -74 -172 -90 -240 -64 -280 10 -15 26 -31 35 -36
15 -8 16 -4 12 38 -4 41 2 58 43 137 172 324 183 353 291 729 88 308 105 384
149 666 61 390 90 810 55 810 -4 0 -12 -6 -17 -12z"/>
<path d="M3790 4424 c-99 -17 -176 -42 -241 -75 -196 -102 -322 -294 -305
-470 9 -101 49 -216 104 -300 102 -156 213 -211 452 -225 241 -15 395 53 530
236 57 76 85 93 108 64 18 -25 9 -102 -19 -161 -45 -94 -179 -211 -312 -273
-85 -40 -123 -46 -188 -27 -30 9 -113 25 -186 36 -72 11 -160 30 -194 41 -70
24 -214 94 -243 119 -11 9 -5 -2 12 -24 44 -56 170 -163 244 -208 92 -55 154
-71 260 -64 66 4 89 2 98 -8 17 -20 -3 -51 -48 -74 -48 -24 -75 -29 -202 -37
-58 -3 -106 -7 -108 -8 -1 -2 46 -22 105 -46 89 -35 123 -44 193 -47 85 -5 85
-5 168 45 118 72 226 151 323 238 109 98 152 127 202 133 38 6 41 9 60 61 16
43 20 81 21 180 1 125 1 125 -52 282 -66 192 -166 401 -221 461 -49 53 -124
89 -259 123 -92 23 -247 38 -302 28z m205 -193 c166 -59 275 -199 275 -355 0
-50 -6 -75 -31 -124 -34 -69 -107 -155 -150 -177 -33 -18 -75 -19 -85 -4 -3 6
13 50 37 97 41 81 44 92 44 167 0 92 -18 138 -75 195 -143 143 -406 108 -486
-64 -61 -131 9 -276 133 -276 36 0 50 6 74 29 33 33 38 74 12 103 -18 20 -48
24 -58 8 -11 -18 -35 -11 -44 12 -25 68 61 130 146 106 87 -24 135 -114 116
-223 -24 -140 -69 -180 -203 -180 -73 0 -93 4 -142 28 -202 99 -238 369 -74
545 51 55 135 104 217 127 74 20 215 14 294 -14z"/>
<path d="M4546 4334 c-28 -27 -18 -60 50 -160 116 -169 168 -307 199 -525 19
-134 19 -402 0 -491 -49 -234 -198 -428 -470 -610 -49 -33 -107 -76 -127 -94
-38 -34 -38 -34 40 -28 151 11 266 40 337 85 68 43 192 172 249 257 65 98 167
303 196 391 26 82 25 119 -10 341 -11 74 -27 197 -35 272 -18 169 -36 243 -83
332 -51 98 -119 168 -204 211 -77 38 -118 44 -142 19z"/>
<path d="M4569 3248 c-27 -51 -165 -221 -222 -275 -118 -109 -273 -204 -402
-247 -27 -9 -65 -25 -84 -35 -35 -19 -35 -19 20 -30 263 -57 354 -31 550 156
172 165 253 357 183 434 -22 25 -31 24 -45 -3z"/>
</g>
</svg>
