<?xml version="1.0" standalone="no"?>
<!DOCTYPE svg PUBLIC "-//W3C//DTD SVG 20010904//EN"
 "http://www.w3.org/TR/2001/REC-SVG-20010904/DTD/svg10.dtd">
<svg version="1.0" xmlns="http://www.w3.org/2000/svg"
 width="1000.000000pt" height="1000.000000pt" viewBox="0 0 1000.000000 1000.000000"
 preserveAspectRatio="xMidYMid meet">
<metadata>
  <rdf:RDF
    xmlns:rdf = "http://www.w3.org/1999/02/22-rdf-syntax-ns#"
    xmlns:rdfs = "http://www.w3.org/2000/01/rdf-schema#"
    xmlns:dc = "http://purl.org/dc/elements/1.1/"
    xmlns:cc = "http://creativecommons.org/ns#">
    <cc:license rdf:resource="http://creativecommons.org/publicdomain/zero/1.0/deed.en"/>
    <cc:permits rdf:resource="http://creativecommons.org/ns#Reproduction"/>
    <rdf:Description about="https://nft.mir.one/fingerprints"
      dc:title="TON Fingerprints"
      dc:description="This is a unique digital fingerprint created based on the algorithm for generating basic rings using a noise texture. Like human fingerprints, you can now use it for the Web3 and Metaverse era as digital biometric information."
      dc:publisher="https://nft.mir.one"
      dc:date="2022-02-22"
      dc:format="image/svg+xml"
      dc:language="en" >
      <dc:creator>
      <rdf:Bag>
        <rdf:li>EQBondcvD2_aOFADXSWJHs4ZazQDuEl9_wNvGGPxI8hGuOFU</rdf:li>
        <rdf:li>ipfs://bafkreihj7iub3fhmhq6jn62noukt5wxn3gv6bvcg7wmt6ywvlurefezckq</rdf:li>
      </rdf:Bag>
      </dc:creator>
    </rdf:Description>
  </rdf:RDF>
</metadata>
<g transform="translate(0.000000,1000.000000) scale(0.100000,-0.100000)"
fill="#1b1f23" stroke="none">
<path d="M4850 7753 c41 -27 106 -67 143 -87 155 -86 402 -299 505 -436 23
-31 61 -101 85 -156 24 -55 58 -122 77 -149 34 -51 490 -505 613 -611 110 -95
162 -172 355 -524 114 -208 155 -300 205 -456 74 -230 118 -533 84 -578 -14
-19 -15 -19 -39 5 -29 29 -63 128 -112 325 -69 276 -138 430 -256 572 -46 55
-91 126 -135 212 -87 172 -157 274 -320 465 -179 210 -234 266 -327 332 -93
65 -144 127 -222 270 -100 183 -165 273 -271 378 -229 227 -410 317 -697 345
-56 6 -123 12 -148 15 -45 5 -45 5 10 -26 30 -17 84 -42 119 -55 206 -78 432
-218 578 -357 139 -133 205 -234 267 -406 28 -79 137 -293 218 -429 50 -82 55
-112 21 -112 -29 0 -58 24 -193 155 -141 137 -171 154 -310 179 -52 9 -162 39
-243 67 -110 37 -173 52 -245 59 -118 12 -185 30 -445 122 -260 92 -350 118
-407 118 -46 0 -123 -20 -241 -63 -67 -24 -67 -24 -24 -35 23 -6 92 -18 151
-27 139 -21 258 -50 522 -131 117 -36 290 -85 385 -109 228 -58 481 -145 592
-204 117 -61 412 -277 493 -361 109 -111 175 -227 262 -455 44 -117 64 -147
98 -143 90 10 50 289 -73 500 -24 42 -75 121 -113 175 -86 122 -90 130 -103
199 -6 31 -24 89 -40 130 -29 72 -31 114 -7 114 19 0 93 -84 133 -151 21 -35
89 -138 151 -229 169 -249 223 -366 232 -504 6 -96 -9 -166 -55 -266 -29 -63
-36 -93 -44 -184 -10 -112 -20 -146 -43 -146 -23 0 -45 35 -82 126 -20 49 -57
121 -84 159 -63 94 -93 155 -120 245 -65 217 -206 377 -522 589 -216 144 -355
198 -973 376 -359 103 -509 139 -628 151 -69 7 -124 -8 -255 -69 -73 -34 -73
-34 -5 -45 37 -6 106 -14 152 -17 180 -12 427 -68 817 -186 501 -150 735 -263
1012 -486 152 -124 282 -278 282 -335 0 -58 -49 -32 -190 97 -325 299 -630
463 -1165 625 -346 105 -641 169 -797 173 -69 2 -78 -1 -180 -51 -59 -28 -113
-52 -120 -52 -6 0 -9 -2 -6 -5 3 -3 92 -12 199 -20 227 -17 320 -32 524 -85
677 -176 1007 -329 1425 -660 85 -67 187 -144 226 -171 83 -56 159 -139 236
-259 146 -225 178 -304 178 -435 0 -87 -14 -140 -43 -160 -32 -23 -42 -6 -70
121 -33 147 -73 240 -159 370 -94 143 -188 239 -398 407 -412 332 -649 449
-1291 638 -280 82 -385 105 -542 119 -107 9 -122 8 -173 -10 -31 -11 -85 -38
-119 -60 -34 -22 -68 -41 -76 -41 -8 -1 6 -5 31 -10 25 -4 79 -6 120 -2 98 7
320 -13 414 -37 40 -10 107 -33 147 -50 40 -17 167 -58 282 -91 115 -32 263
-80 330 -105 342 -129 652 -326 924 -588 180 -173 258 -287 359 -523 30 -69
71 -149 92 -177 52 -68 50 -63 62 -141 11 -71 30 -647 36 -1140 2 -159 5 -324
5 -365 1 -53 -6 -105 -25 -175 -15 -56 -26 -126 -26 -161 0 -61 1 -63 30 -69
37 -8 63 10 55 36 -3 10 2 33 11 51 23 44 148 206 226 293 35 39 79 91 98 115
19 25 68 81 110 126 54 58 92 112 137 195 186 343 266 573 267 775 1 95 -1
104 -32 165 -25 48 -37 89 -47 164 -18 128 -39 195 -69 228 -26 28 -34 31 -52
19 -22 -15 -34 -53 -44 -147 -6 -53 -20 -129 -31 -168 -79 -294 -139 -574
-139 -647 0 -15 9 -38 19 -51 19 -24 19 -24 41 -4 35 31 58 95 101 275 54 229
76 297 102 315 18 13 23 13 36 1 12 -13 12 -32 -2 -143 -32 -252 -89 -415
-185 -527 -43 -49 -54 -71 -71 -140 -52 -204 -84 -265 -117 -222 -9 12 -14 44
-14 82 0 76 -13 114 -38 114 -43 0 -63 -52 -81 -204 -15 -130 -61 -210 -108
-192 -14 6 -15 23 -10 129 10 190 50 307 130 370 63 51 83 108 111 322 14 105
37 244 50 310 65 314 106 486 132 550 26 64 28 80 27 195 -1 248 -46 437 -105
448 -30 6 -40 -39 -59 -254 -22 -251 -26 -279 -84 -575 -49 -250 -78 -457 -96
-688 -6 -84 -14 -165 -18 -180 -9 -31 -32 -38 -55 -16 -33 33 -39 92 -33 330
7 273 17 365 62 590 18 94 39 222 45 285 6 63 24 162 39 220 16 58 36 135 46
172 9 38 34 96 55 130 20 35 42 86 49 113 14 58 36 95 55 95 21 0 41 -29 104
-155 65 -130 87 -196 126 -377 35 -162 57 -218 125 -322 69 -104 84 -137 105
-227 64 -276 58 -551 -18 -809 -37 -129 -23 -108 22 32 75 230 106 425 122
758 5 115 16 231 25 265 44 177 -11 616 -119 947 -46 139 -106 280 -216 508
-65 134 -118 257 -130 304 -35 134 -29 127 -394 466 -200 187 -278 250 -403
328 -37 24 -113 84 -168 134 -194 177 -361 266 -630 338 -66 17 -129 34 -140
37 -11 3 14 -17 55 -44z m929 -637 c18 -13 149 -136 293 -273 312 -298 363
-360 308 -378 -46 -15 -109 35 -365 284 -248 242 -339 350 -320 381 11 17 50
11 84 -14z"/>
<path d="M5475 7719 c22 -24 53 -60 68 -80 31 -41 212 -205 337 -305 47 -38
168 -150 270 -250 102 -100 201 -189 219 -199 18 -9 62 -43 97 -76 35 -32 73
-59 84 -59 21 0 27 14 10 25 -22 14 -94 149 -92 174 2 26 2 26 -17 2 -17 -22
-19 -22 -47 -8 -17 8 -73 64 -126 124 -197 223 -374 372 -758 638 -85 58 -85
58 -45 14z"/>
<path d="M4115 7484 c-38 -7 -86 -16 -105 -20 -35 -6 -35 -6 15 -19 28 -7 91
-18 140 -24 278 -33 583 -191 842 -434 116 -110 158 -207 71 -165 -18 8 -121
81 -228 162 -208 156 -334 229 -495 286 -105 37 -209 49 -255 30 -36 -15 -58
-48 -38 -55 7 -2 74 -25 148 -51 74 -25 194 -74 266 -109 111 -55 144 -76 221
-148 94 -86 195 -147 301 -182 70 -22 191 -14 217 16 25 27 15 94 -25 176 -40
81 -193 238 -315 324 -143 101 -342 201 -434 219 -74 14 -241 11 -326 -6z"/>
<path d="M3870 7225 c-36 -7 -85 -21 -109 -29 -24 -9 -52 -16 -62 -16 -11 0
-19 -4 -19 -8 0 -10 49 -29 139 -52 40 -11 130 -44 200 -74 408 -175 598 -235
614 -192 16 40 -82 100 -331 204 -183 77 -230 105 -248 148 -14 33 -16 34 -67
33 -28 0 -81 -7 -117 -14z"/>
<path d="M6760 6513 c-1 -36 166 -470 177 -459 2 2 -37 109 -86 237 -50 129
-90 229 -91 222z"/>
<path d="M3176 6001 c-32 -17 -75 -44 -95 -60 -20 -15 -45 -33 -56 -40 -16
-10 4 -11 100 -5 66 5 224 8 350 9 127 1 240 5 253 9 52 17 -1 69 -94 93 -34
8 -132 17 -229 20 -170 5 -170 5 -229 -26z"/>
<path d="M3737 5843 c-52 -21 -80 -25 -280 -33 -122 -6 -238 -13 -257 -16 -45
-8 -99 -39 -180 -104 -65 -52 -65 -52 -5 -47 33 3 110 12 170 21 128 18 444
36 629 36 287 0 658 -122 946 -310 276 -181 555 -460 677 -678 56 -99 56 -173
0 -142 -12 6 -69 70 -127 142 -183 228 -415 447 -621 584 -177 118 -400 208
-646 261 -123 26 -139 27 -413 27 -356 -1 -485 -16 -557 -65 -25 -18 -70 -54
-98 -79 -52 -47 -52 -47 -6 -43 25 3 89 13 141 24 389 76 856 39 1225 -98 107
-39 259 -121 320 -172 83 -70 342 -307 415 -381 36 -36 135 -140 221 -231 139
-148 160 -175 187 -240 80 -193 84 -440 9 -481 -28 -15 -43 8 -52 80 -10 82
-69 281 -108 365 -88 188 -367 476 -585 604 -40 24 -54 26 -126 24 -70 -1
-103 5 -241 44 -231 66 -334 85 -480 91 -120 5 -136 4 -205 -19 -41 -14 -149
-42 -240 -62 -307 -69 -380 -99 -444 -187 -95 -128 -90 -117 -53 -105 17 5 61
24 97 40 151 69 292 114 451 146 224 44 363 51 555 26 136 -18 467 -100 583
-145 146 -56 313 -183 423 -319 76 -94 105 -155 118 -251 7 -53 21 -98 50
-155 61 -120 101 -170 160 -197 39 -18 53 -30 61 -55 19 -60 39 -217 49 -403
5 -102 15 -265 21 -362 6 -97 8 -194 5 -215 -14 -80 -18 -92 -32 -97 -33 -13
-53 14 -80 102 -27 90 -46 122 -72 122 -32 0 -53 -37 -92 -160 -61 -195 -153
-316 -307 -406 -37 -21 -81 -51 -98 -65 -16 -14 -43 -33 -60 -42 -16 -9 -24
-16 -18 -17 28 -1 263 53 333 76 93 32 250 112 321 164 88 66 219 201 245 252
56 110 57 130 55 793 -2 641 -7 727 -48 885 -13 52 -37 147 -53 210 -55 215
-163 394 -360 590 -351 351 -793 586 -1275 679 -132 26 -175 25 -248 -6z"/>
<path d="M3275 5345 c-188 -27 -219 -42 -327 -161 -38 -41 -38 -41 10 -33 26
4 99 21 162 38 235 60 445 67 572 18 37 -14 128 -35 203 -47 254 -38 381 -73
596 -160 144 -59 169 -62 169 -23 0 37 -76 108 -165 154 -303 158 -891 261
-1220 214z"/>
<path d="M3315 5130 c-224 -40 -257 -55 -347 -163 -36 -44 -47 -63 -36 -65 8
-2 73 17 144 41 145 50 219 68 412 102 73 13 139 29 147 35 23 19 18 49 -11
60 -39 15 -198 10 -309 -10z"/>
<path d="M3529 4750 c-77 -13 -199 -49 -309 -92 -118 -46 -163 -84 -214 -180
-16 -29 -38 -63 -49 -75 -22 -25 17 -6 193 89 242 132 490 189 570 130 22 -17
49 -20 215 -24 159 -4 210 -10 310 -33 273 -62 435 -146 659 -341 132 -115
176 -130 176 -62 0 87 -191 282 -385 393 -150 85 -412 162 -646 189 -139 17
-438 20 -520 6z"/>
<path d="M3570 4560 c-99 -24 -212 -69 -334 -133 -77 -40 -104 -60 -128 -95
-31 -46 -101 -192 -92 -192 7 0 61 37 168 114 83 60 273 158 416 215 85 34
135 71 127 94 -6 19 -75 18 -157 -3z"/>
<path d="M3864 4470 c-60 -11 -340 -125 -434 -177 -87 -48 -199 -124 -232
-157 -27 -28 -63 -108 -96 -214 -19 -63 -19 -63 7 -40 14 12 64 60 111 105
116 113 203 174 345 244 151 74 243 99 356 99 176 0 443 -62 594 -137 197 -99
358 -257 314 -309 -18 -22 -26 -18 -103 40 -213 164 -423 246 -625 246 -80 0
-80 0 -107 -35 -20 -26 -59 -51 -150 -95 -197 -95 -304 -176 -390 -296 -71
-100 -84 -135 -84 -244 0 -266 141 -528 365 -678 131 -87 295 -149 420 -159
144 -11 338 69 460 192 125 124 183 246 192 400 12 207 -59 339 -257 474 -152
105 -297 161 -415 161 -69 0 -177 -28 -255 -66 -94 -47 -205 -153 -242 -234
-145 -310 79 -624 412 -579 124 17 230 91 279 194 34 69 34 170 3 241 -29 64
-102 136 -166 165 -130 57 -284 -1 -303 -115 -10 -60 44 -119 87 -96 19 10 21
18 16 51 -6 36 -4 40 20 49 37 14 69 3 103 -36 41 -46 48 -91 23 -146 -47
-107 -193 -129 -290 -44 -109 95 -97 278 25 385 154 137 402 111 574 -59 183
-181 182 -433 -4 -606 -114 -106 -242 -154 -411 -154 -107 0 -175 15 -287 61
-151 62 -212 143 -243 324 -20 111 -20 151 -1 238 47 223 208 394 465 495 213
84 355 64 628 -87 72 -40 160 -80 198 -91 59 -16 76 -26 116 -70 56 -60 111
-168 132 -260 20 -84 20 -229 1 -305 -48 -184 -187 -382 -348 -493 -121 -84
-219 -120 -399 -149 -170 -26 -184 -29 -168 -36 34 -14 261 -55 337 -61 91 -7
243 8 305 30 107 38 251 175 347 332 34 54 84 125 111 156 28 32 57 70 65 86
42 80 45 353 6 504 -46 177 -175 381 -337 535 -248 235 -441 342 -726 401
-112 23 -274 32 -344 20z"/>
<path d="M3803 4225 c-143 -32 -325 -135 -461 -260 -93 -86 -116 -147 -136
-355 -5 -55 -5 -55 14 -30 11 14 43 65 72 114 126 213 315 358 580 445 54 18
101 37 104 43 11 17 -29 47 -71 52 -22 3 -68 -1 -102 -9z"/>
<path d="M6786 3565 c-9 -26 -7 -32 5 -12 6 10 9 21 6 23 -2 3 -7 -2 -11 -11z"/>
<path d="M4058 2473 c7 -3 16 -2 19 1 4 3 -2 6 -13 5 -11 0 -14 -3 -6 -6z"/>
</g>
</svg>
