<?xml version="1.0" standalone="no"?>
<!DOCTYPE svg PUBLIC "-//W3C//DTD SVG 20010904//EN"
 "http://www.w3.org/TR/2001/REC-SVG-20010904/DTD/svg10.dtd">
<svg version="1.0" xmlns="http://www.w3.org/2000/svg"
 width="1000.000000pt" height="1000.000000pt" viewBox="0 0 1000.000000 1000.000000"
 preserveAspectRatio="xMidYMid meet">
<metadata>
  <rdf:RDF
    xmlns:rdf = "http://www.w3.org/1999/02/22-rdf-syntax-ns#"
    xmlns:rdfs = "http://www.w3.org/2000/01/rdf-schema#"
    xmlns:dc = "http://purl.org/dc/elements/1.1/"
    xmlns:cc = "http://creativecommons.org/ns#">
    <cc:license rdf:resource="http://creativecommons.org/publicdomain/zero/1.0/deed.en"/>
    <cc:permits rdf:resource="http://creativecommons.org/ns#Reproduction"/>
    <rdf:Description about="https://nft.mir.one/fingerprints"
      dc:title="TON Fingerprints"
      dc:description="This is a unique digital fingerprint created based on the algorithm for generating basic rings using a noise texture. Like human fingerprints, you can now use it for the Web3 and Metaverse era as digital biometric information."
      dc:publisher="https://nft.mir.one"
      dc:date="2022-02-22"
      dc:format="image/svg+xml"
      dc:language="en" >
      <dc:creator>
      <rdf:Bag>
        <rdf:li>EQBondcvD2_aOFADXSWJHs4ZazQDuEl9_wNvGGPxI8hGuOFU</rdf:li>
        <rdf:li>ipfs://bafkreihj7iub3fhmhq6jn62noukt5wxn3gv6bvcg7wmt6ywvlurefezckq</rdf:li>
      </rdf:Bag>
      </dc:creator>
    </rdf:Description>
  </rdf:RDF>
</metadata>
<g transform="translate(0.000000,1000.000000) scale(0.100000,-0.100000)"
fill="#1b1f23" stroke="none">
<path d="M4820 7756 c47 -20 132 -50 190 -67 146 -43 345 -122 413 -164 32
-19 91 -63 130 -98 92 -82 199 -155 522 -357 143 -90 305 -193 360 -231 56
-37 132 -84 169 -103 69 -34 69 -34 -90 126 -235 236 -406 367 -694 533 -131
75 -200 127 -200 150 0 31 101 45 185 25 67 -15 51 -2 -25 21 -52 15 -87 20
-128 16 -49 -4 -78 2 -203 43 -211 70 -425 114 -649 135 -65 6 -65 6 20 -29z"/>
<path d="M4410 7580 c-79 -11 -350 -74 -350 -81 0 -11 136 -28 266 -33 389
-15 816 -138 1069 -309 33 -23 106 -85 162 -138 159 -153 329 -273 618 -439
329 -188 444 -279 508 -405 20 -39 45 -83 56 -100 28 -40 27 -73 -1 -84 -13
-4 -85 -13 -160 -20 -168 -14 -222 -7 -448 60 -217 65 -367 95 -578 116 -172
17 -172 17 -200 -5 -76 -61 -98 -67 -242 -67 -160 0 -214 15 -295 80 -63 52
-89 65 -180 95 -38 13 -115 43 -169 67 -169 74 -287 94 -440 74 -151 -20 -260
-63 -375 -146 -19 -14 -111 -50 -206 -80 -207 -66 -257 -99 -393 -260 -59 -71
-59 -71 22 -29 96 50 223 96 361 131 95 24 120 26 533 35 498 12 486 13 579
-74 63 -61 90 -66 383 -75 163 -4 238 -2 365 12 325 37 523 19 785 -70 189
-65 253 -99 340 -180 41 -39 102 -93 135 -120 33 -27 105 -93 160 -145 152
-145 291 -253 342 -266 33 -8 41 -8 33 1 -5 6 -33 68 -61 136 -62 152 -112
242 -159 289 -22 22 -99 68 -195 116 -87 44 -163 88 -169 97 -45 71 235 76
382 7 35 -17 79 -30 96 -30 18 0 38 -6 45 -12 8 -7 -2 7 -20 32 -49 65 -102
171 -139 275 -104 298 -270 510 -528 675 -316 201 -559 366 -730 493 -101 75
-214 155 -252 177 -137 80 -378 169 -529 195 -89 16 -325 18 -421 5z m-103
-1344 c44 -19 61 -42 43 -60 -7 -7 -113 -14 -293 -18 -245 -7 -284 -5 -305 8
-44 29 -3 51 143 78 113 21 355 16 412 -8z"/>
<path d="M4110 7324 c-155 -31 -423 -125 -399 -140 7 -4 117 -11 244 -15 583
-20 998 -99 1348 -255 106 -48 123 -51 152 -30 19 13 19 16 3 49 -68 142 -508
313 -953 371 -127 17 -353 28 -395 20z"/>
<path d="M3730 7012 c-76 -27 -132 -52 -220 -101 -75 -42 -75 -42 85 -36 118
5 192 3 280 -9 66 -8 190 -20 275 -26 207 -14 279 -23 662 -75 180 -25 360
-46 401 -47 76 -2 137 15 137 37 0 38 -81 73 -290 124 -331 81 -743 137 -1090
146 -164 5 -191 3 -240 -13z"/>
<path d="M3618 6760 c-64 -11 -154 -61 -275 -151 -102 -77 -102 -77 -60 -72
23 3 83 18 133 34 50 15 156 44 235 64 177 44 199 52 199 76 0 41 -127 68
-232 49z"/>
<path d="M5453 6729 c-18 -5 -44 -25 -59 -45 -36 -47 -91 -74 -167 -81 -84 -7
-455 22 -689 54 -159 22 -232 27 -410 27 -218 1 -218 1 -260 -43 -50 -51 -79
-65 -288 -138 -207 -72 -230 -86 -394 -240 -86 -80 -86 -80 -34 -68 70 17 395
140 528 200 58 26 152 63 210 83 104 36 107 37 265 37 145 -1 175 -4 320 -35
160 -35 160 -35 392 -32 278 3 385 -10 518 -63 116 -46 173 -60 320 -80 157
-21 274 -51 470 -121 88 -31 189 -65 225 -75 67 -20 159 -27 179 -15 21 13 11
52 -22 84 -64 62 -315 192 -612 317 -170 71 -170 71 -196 119 -14 27 -38 59
-55 72 -59 48 -162 66 -241 43z m250 -161 c49 -25 -12 -78 -90 -78 -85 0 -160
42 -134 74 7 8 25 17 39 19 39 6 164 -4 185 -15z"/>
<path d="M4929 6321 c-108 -36 -88 -90 45 -118 81 -17 326 -28 346 -14 11 7
12 16 5 37 -20 55 -120 91 -275 99 -52 2 -107 1 -121 -4z"/>
<path d="M4160 5954 c-8 -2 -127 -10 -265 -19 -137 -9 -297 -23 -354 -31 -140
-20 -323 -68 -371 -96 -80 -47 -129 -83 -126 -93 5 -18 126 -10 346 23 118 17
343 48 500 67 255 31 374 49 478 71 28 6 32 4 32 -14 0 -28 -53 -67 -123 -91
-133 -46 -732 -141 -892 -141 -55 0 -138 -5 -185 -10 -71 -8 -92 -15 -135 -44
-58 -41 -120 -112 -89 -103 54 16 189 39 259 44 70 5 83 3 104 -14 25 -20 25
-20 -6 -36 -16 -9 -76 -25 -133 -37 -114 -23 -172 -49 -242 -108 -48 -40 -48
-40 -5 -44 45 -4 144 10 246 37 76 19 160 60 215 104 54 44 139 65 576 150
275 53 419 106 498 181 48 46 67 93 47 113 -7 8 -37 17 -65 20 -37 5 -59 13
-75 31 -12 13 -40 29 -61 35 -36 10 -139 13 -174 5z"/>
<path d="M5530 5754 c-25 -2 -101 -8 -170 -14 -230 -18 -514 -50 -595 -66 -44
-8 -142 -40 -218 -70 -175 -69 -297 -103 -572 -160 -300 -62 -385 -85 -565
-159 -85 -34 -195 -75 -245 -90 -80 -24 -96 -33 -140 -79 -27 -28 -66 -74 -86
-102 -36 -50 -36 -50 10 -43 25 4 67 16 93 28 103 44 519 191 623 220 111 31
906 191 1045 211 41 6 147 15 235 19 158 9 161 9 240 47 79 38 82 39 195 39
116 0 116 0 215 -49 144 -71 250 -76 225 -10 -5 11 -39 37 -79 58 -38 20 -73
41 -76 46 -3 4 2 16 12 25 35 35 143 0 233 -76 45 -38 487 -255 570 -280 46
-14 90 -1 90 27 0 105 -349 345 -655 450 -69 24 -98 28 -210 30 -71 1 -150 0
-175 -2z"/>
<path d="M5210 5392 c-18 -15 -20 -21 -10 -42 29 -64 149 -111 579 -226 170
-45 419 -126 631 -205 180 -68 341 -168 519 -323 36 -31 73 -56 83 -56 11 0
29 -5 40 -11 19 -10 20 -9 13 7 -4 11 -18 57 -31 104 -29 103 -59 189 -91 252
-24 50 -92 104 -237 191 -68 40 -71 41 -190 48 -109 6 -136 12 -256 54 -276
96 -308 105 -437 120 -72 8 -182 30 -251 49 -213 61 -320 72 -362 38z"/>
<path d="M4555 5244 c-485 -57 -846 -126 -1085 -209 -58 -20 -168 -63 -245
-96 -154 -65 -175 -82 -235 -189 -19 -34 -45 -74 -57 -89 -22 -28 -22 -28 30
-14 29 7 115 45 192 84 77 40 183 94 235 120 143 73 378 126 775 175 203 25
585 25 720 0 119 -22 324 -84 644 -195 769 -268 994 -399 1094 -636 31 -73 54
-109 127 -194 49 -57 108 -115 131 -128 35 -20 40 -21 34 -6 -3 10 -11 86 -16
168 -9 152 -22 246 -40 292 -29 76 -227 256 -381 347 -183 107 -446 209 -878
341 -102 32 -270 91 -374 132 -103 41 -218 81 -255 89 -60 12 -329 18 -416 8z"/>
<path d="M4192 4890 c-63 -5 -205 -21 -315 -35 -335 -42 -456 -74 -493 -130
-21 -32 -8 -49 38 -48 204 4 445 15 538 25 172 18 490 15 635 -6 228 -34 461
-104 770 -231 613 -252 960 -375 1059 -375 81 0 96 21 63 88 -43 90 -382 255
-957 467 -411 151 -579 200 -790 229 -137 19 -405 27 -548 16z"/>
<path d="M3255 4605 c-136 -37 -173 -69 -243 -206 -40 -81 -40 -81 -4 -74 19
4 67 23 106 42 100 51 186 78 339 108 141 28 200 50 205 77 5 29 -38 41 -173
49 -71 4 -141 10 -155 13 -14 3 -47 -1 -75 -9z"/>
<path d="M3980 4564 c-78 -10 -197 -33 -222 -43 -15 -5 -44 -25 -65 -44 -51
-46 -76 -58 -244 -115 -172 -59 -256 -95 -287 -125 -28 -26 -64 -93 -95 -180
-23 -64 -23 -64 2 -51 14 8 29 14 33 14 4 0 35 20 70 44 102 71 221 130 426
210 260 103 318 117 524 123 321 10 515 -46 823 -239 66 -41 175 -103 243
-138 154 -79 247 -161 291 -253 36 -77 111 -384 117 -480 6 -80 -9 -122 -41
-122 -17 0 -31 30 -87 178 -85 226 -128 307 -203 383 -89 90 -168 109 -194 46
-18 -43 -6 -73 88 -216 48 -72 111 -174 141 -226 69 -123 97 -163 163 -231 86
-90 114 -212 126 -544 5 -115 12 -218 16 -228 6 -14 15 -4 47 49 22 36 59 105
81 153 41 85 42 88 41 191 -2 259 -24 608 -44 715 -37 193 -28 298 26 311 34
9 44 -2 44 -50 0 -23 11 -85 25 -137 77 -286 96 -429 101 -754 2 -132 8 -260
13 -285 5 -25 9 -39 10 -31 1 8 25 66 55 130 29 64 66 150 81 191 25 70 27 83
22 185 -13 277 -121 600 -238 713 -45 43 -47 48 -32 64 34 38 139 7 186 -55
44 -57 129 -239 167 -357 37 -114 72 -271 90 -405 5 -38 12 -87 16 -108 4 -23
2 -44 -6 -55 -7 -9 -1 -5 13 10 43 46 107 292 107 411 0 50 -34 184 -67 261
-14 33 -54 105 -89 160 -35 55 -64 110 -64 122 0 88 202 -31 298 -175 39 -58
39 -60 44 -175 5 -102 9 -122 34 -173 29 -57 29 -57 37 50 5 59 14 124 21 145
11 33 17 37 50 40 22 2 47 -3 61 -12 23 -15 23 -15 10 12 -8 15 -21 72 -30
127 -22 144 -28 157 -93 207 -106 84 -191 117 -382 148 -155 26 -463 103 -550
137 -36 14 -145 66 -243 115 -357 178 -634 285 -862 334 -105 23 -148 26 -345
29 -124 2 -241 1 -260 -1z"/>
<path d="M3992 4260 c-214 -27 -489 -130 -684 -256 -79 -51 -117 -112 -125
-205 -6 -61 6 -82 26 -46 13 25 46 48 237 166 225 139 389 184 674 185 184 1
279 -13 377 -55 44 -19 93 -60 93 -78 0 -27 -40 -29 -181 -9 -181 25 -423 27
-559 4 -186 -30 -295 -77 -295 -126 0 -24 2 -25 70 -25 39 1 143 6 231 14 124
10 199 10 325 2 218 -15 331 -14 404 3 33 8 85 17 115 21 112 15 141 54 100
133 -57 106 -225 214 -396 252 -104 24 -304 33 -412 20z"/>
<path d="M3379 3741 c-65 -21 -130 -69 -159 -119 -12 -19 -20 -36 -18 -37 2
-1 44 2 93 7 50 6 169 7 265 4 295 -9 521 -40 760 -103 56 -15 144 -29 216
-33 133 -9 192 -27 270 -80 144 -99 304 -328 382 -552 48 -136 61 -222 63
-441 2 -196 2 -197 20 -167 10 16 40 55 65 87 60 73 104 166 104 218 0 131
-42 327 -94 439 -73 159 -273 454 -404 597 -90 98 -114 105 -352 113 -107 4
-265 14 -350 22 -85 9 -265 19 -400 23 -193 6 -253 11 -284 24 -49 22 -106 21
-177 -2z"/>
<path d="M3399 3461 c-53 -35 -103 -90 -86 -96 52 -17 102 -25 160 -25 114 0
343 -29 433 -56 150 -43 208 -83 254 -174 20 -39 52 -78 100 -121 190 -168
303 -373 331 -599 13 -104 26 -180 28 -162 0 7 26 38 56 69 30 30 64 75 75 99
21 42 21 46 7 121 -22 113 -71 240 -133 343 -75 124 -273 389 -320 429 -121
100 -353 165 -688 191 -172 13 -166 14 -217 -19z"/>
<path d="M4540 3310 c-32 -32 -21 -57 90 -195 203 -252 290 -481 290 -761 0
-56 3 -115 6 -132 6 -30 6 -30 70 41 94 104 108 139 101 246 -25 348 -283 761
-509 816 -19 5 -32 1 -48 -15z"/>
<path d="M3556 3155 c-58 -62 -78 -86 -74 -89 27 -18 148 -41 248 -47 69 -4
166 -11 215 -14 138 -11 186 18 128 76 -48 49 -222 99 -395 115 -78 7 -78 7
-122 -41z"/>
<path d="M3860 2824 c-25 -23 -40 -45 -40 -60 0 -13 -9 -33 -20 -44 -20 -20
-20 -20 8 -20 60 0 217 -55 285 -101 54 -35 138 -134 171 -202 21 -40 25 -45
31 -28 3 11 17 29 31 40 34 27 67 105 59 141 -10 44 -76 139 -134 193 -80 75
-191 117 -307 117 -36 0 -51 -6 -84 -36z"/>
</g>
</svg>
