<?xml version="1.0" standalone="no"?>
<!DOCTYPE svg PUBLIC "-//W3C//DTD SVG 20010904//EN"
 "http://www.w3.org/TR/2001/REC-SVG-20010904/DTD/svg10.dtd">
<svg version="1.0" xmlns="http://www.w3.org/2000/svg"
 width="1000.000000pt" height="1000.000000pt" viewBox="0 0 1000.000000 1000.000000"
 preserveAspectRatio="xMidYMid meet">
<metadata>
  <rdf:RDF
    xmlns:rdf = "http://www.w3.org/1999/02/22-rdf-syntax-ns#"
    xmlns:rdfs = "http://www.w3.org/2000/01/rdf-schema#"
    xmlns:dc = "http://purl.org/dc/elements/1.1/"
    xmlns:cc = "http://creativecommons.org/ns#">
    <cc:license rdf:resource="http://creativecommons.org/publicdomain/zero/1.0/deed.en"/>
    <cc:permits rdf:resource="http://creativecommons.org/ns#Reproduction"/>
    <rdf:Description about="https://nft.mir.one/fingerprints"
      dc:title="TON Fingerprints"
      dc:description="This is a unique digital fingerprint created based on the algorithm for generating basic rings using a noise texture. Like human fingerprints, you can now use it for the Web3 and Metaverse era as digital biometric information."
      dc:publisher="https://nft.mir.one"
      dc:date="2022-02-22"
      dc:format="image/svg+xml"
      dc:language="en" >
      <dc:creator>
      <rdf:Bag>
        <rdf:li>EQBondcvD2_aOFADXSWJHs4ZazQDuEl9_wNvGGPxI8hGuOFU</rdf:li>
        <rdf:li>ipfs://bafkreihj7iub3fhmhq6jn62noukt5wxn3gv6bvcg7wmt6ywvlurefezckq</rdf:li>
      </rdf:Bag>
      </dc:creator>
    </rdf:Description>
  </rdf:RDF>
</metadata>
<g transform="translate(0.000000,1000.000000) scale(0.100000,-0.100000)"
fill="#1b1f23" stroke="none">
<path d="M4978 7813 c7 -3 16 -2 19 1 4 3 -2 6 -13 5 -11 0 -14 -3 -6 -6z"/>
<path d="M5120 7772 c201 -68 411 -152 558 -224 134 -66 410 -240 653 -412 84
-60 89 -62 44 -21 -401 367 -741 560 -1165 659 -58 14 -127 27 -155 31 -41 4
-29 -2 65 -33z"/>
<path d="M4618 7763 c7 -3 16 -2 19 1 4 3 -2 6 -13 5 -11 0 -14 -3 -6 -6z"/>
<path d="M4528 7753 c6 -2 18 -2 25 0 6 3 1 5 -13 5 -14 0 -19 -2 -12 -5z"/>
<path d="M4688 7595 c-122 -17 -289 -50 -391 -77 -65 -17 -82 -26 -104 -55
-14 -19 -45 -45 -67 -58 -46 -26 -360 -154 -385 -156 -9 -1 11 -5 44 -9 68 -8
201 4 290 27 33 8 112 39 175 68 67 31 147 60 190 69 387 78 752 27 1118 -154
207 -103 311 -176 682 -478 36 -30 112 -81 169 -115 93 -56 261 -187 261 -205
0 -4 48 -56 107 -117 59 -60 100 -99 92 -85 -159 261 -229 352 -423 546 -209
208 -342 320 -535 449 -431 287 -835 403 -1223 350z"/>
<path d="M4105 7523 c11 -3 27 -12 37 -20 10 -9 18 -11 22 -4 8 13 -26 31 -56
30 -20 -1 -21 -2 -3 -6z"/>
<path d="M4653 7289 c-200 -18 -365 -78 -387 -142 -7 -19 -6 -31 3 -40 18 -18
204 -15 350 7 371 56 786 -64 1074 -308 94 -80 320 -327 392 -428 32 -45 154
-211 271 -368 439 -592 516 -733 517 -945 1 -85 -33 -221 -125 -505 -47 -144
-64 -182 -125 -267 -24 -34 -55 -90 -69 -125 -41 -100 -112 -359 -139 -507
-32 -170 -37 -185 -87 -263 -23 -35 -70 -123 -105 -196 -117 -247 -139 -272
-425 -503 -292 -235 -364 -284 -635 -430 -82 -43 -145 -79 -141 -79 4 0 58 15
120 34 257 78 435 172 691 364 83 63 177 127 208 142 96 49 195 175 333 425
69 124 105 168 131 159 22 -9 28 -44 23 -146 -4 -92 -4 -92 14 -48 11 25 34
95 52 156 25 85 46 132 90 201 68 108 124 235 166 373 41 140 58 243 65 400 8
170 42 519 56 583 6 27 23 62 37 78 24 29 25 34 18 122 -14 193 -62 405 -113
499 -14 26 -55 82 -92 126 -95 114 -471 606 -519 680 -22 35 -50 92 -62 127
-30 90 -68 141 -188 256 -377 357 -720 530 -1127 569 -121 11 -138 11 -272 -1z
m2123 -3057 c58 -38 46 -240 -27 -464 -52 -161 -111 -251 -154 -234 -30 11
-17 102 56 385 78 305 91 336 125 313z"/>
<path d="M3850 7095 c-78 -19 -181 -64 -285 -123 -90 -52 -90 -52 -30 -52 33
0 99 7 147 15 200 32 330 28 345 -11 15 -41 -46 -64 -279 -104 -65 -12 -134
-28 -153 -35 -104 -44 -300 -192 -345 -260 -24 -36 -26 -75 -5 -75 13 0 14 4
5 20 -13 24 0 54 30 70 50 27 224 73 409 110 112 22 265 56 340 76 125 33 144
36 236 31 126 -6 182 -22 375 -104 260 -109 315 -141 408 -237 44 -47 157
-142 249 -213 295 -225 512 -457 712 -759 84 -127 161 -271 276 -519 49 -106
77 -145 106 -145 47 0 48 94 3 261 -74 278 -318 666 -609 968 -141 146 -234
218 -437 338 -185 109 -228 141 -228 169 0 32 94 12 255 -56 206 -86 251 -110
336 -178 276 -219 686 -797 784 -1102 36 -111 45 -273 21 -373 -19 -81 -20
-119 -4 -135 49 -49 139 57 174 205 22 92 14 262 -16 358 -50 158 -183 380
-415 690 -194 260 -273 355 -426 510 -96 98 -156 168 -172 201 -56 111 -215
217 -434 288 -161 52 -301 78 -423 80 -102 1 -107 0 -165 -33 -56 -32 -63 -33
-130 -28 -114 9 -194 39 -247 93 -45 45 -45 45 -179 60 -158 16 -158 16 -229
-1z m1020 -239 c318 -72 449 -113 579 -181 37 -20 83 -48 102 -64 29 -25 32
-31 20 -45 -21 -25 -61 -19 -189 29 -72 27 -167 53 -238 66 -119 21 -323 81
-421 125 -61 27 -103 65 -103 94 0 29 25 27 250 -24z"/>
<path d="M3980 6565 c-69 -14 -224 -40 -345 -59 -141 -22 -236 -41 -265 -55
-25 -11 -66 -21 -91 -21 -32 0 -55 -7 -79 -25 -19 -14 -28 -25 -22 -25 7 0 26
-9 41 -21 27 -20 43 -21 302 -24 274 -4 274 -4 419 33 140 36 151 37 315 36
156 0 177 -2 259 -28 138 -42 226 -82 323 -146 102 -67 137 -102 196 -190 23
-36 75 -92 117 -128 147 -124 269 -243 334 -324 85 -107 288 -383 356 -483 69
-102 303 -554 324 -624 21 -71 21 -211 0 -304 -9 -40 -38 -133 -65 -207 -26
-74 -58 -172 -70 -218 -29 -113 -78 -186 -165 -247 -131 -92 -172 -126 -325
-272 -207 -196 -319 -288 -479 -395 -294 -196 -527 -273 -900 -299 -175 -13
-175 -13 -45 -41 161 -35 349 -47 462 -28 95 15 235 64 368 130 257 126 416
244 803 595 60 55 131 111 156 123 47 24 106 27 113 5 10 -28 -291 -333 -473
-480 -303 -245 -571 -387 -899 -477 -245 -67 -245 -67 -50 -62 252 6 487 60
654 152 188 103 459 312 642 494 94 93 123 129 153 190 33 67 36 81 34 145 -2
68 0 73 50 159 76 132 102 202 196 527 94 327 126 469 126 556 0 71 -11 89
-87 138 -113 74 -144 115 -284 380 -122 231 -293 477 -476 689 -102 116 -625
585 -732 657 -84 55 -243 125 -376 165 -76 23 -113 27 -240 30 -129 3 -168 0
-275 -21z"/>
<path d="M6340 6520 c-15 -27 5 -67 76 -156 159 -196 331 -413 417 -526 93
-122 147 -178 169 -178 7 0 7 4 0 13 -5 6 -28 56 -51 111 -128 309 -403 681
-548 742 -43 18 -50 18 -63 -6z"/>
<path d="M4111 6264 c-65 -17 -113 -45 -135 -78 -8 -13 -37 -32 -63 -41 -74
-27 -171 -72 -203 -95 -16 -11 -114 -65 -219 -119 -320 -167 -354 -195 -477
-396 -31 -49 -64 -102 -75 -117 -18 -25 -15 -24 54 15 39 23 106 58 147 78 42
20 134 75 205 122 151 99 288 171 412 217 75 28 105 34 205 38 180 7 443 -24
588 -69 85 -27 141 -60 173 -103 22 -28 49 -43 144 -80 188 -74 338 -175 389
-262 21 -36 24 -47 14 -59 -20 -25 -45 -18 -173 49 -67 35 -156 76 -197 92
-75 29 -75 29 -355 28 -317 -1 -416 -13 -578 -68 -249 -85 -444 -269 -587
-555 -138 -277 -169 -620 -80 -902 23 -76 24 -97 5 -123 -33 -43 -11 -158 53
-281 50 -96 174 -220 262 -262 92 -43 177 -70 268 -83 87 -13 73 -15 317 55
169 48 306 57 435 27 47 -11 102 -27 122 -36 36 -16 38 -15 102 18 120 63 248
176 262 232 18 71 -42 80 -164 25 -162 -73 -181 -76 -427 -76 -220 0 -220 0
-280 37 -33 20 -107 51 -165 68 -254 77 -440 216 -582 435 -66 101 -83 175
-83 355 0 182 18 265 90 417 73 154 154 260 274 355 182 145 397 211 696 211
164 1 260 -12 375 -50 100 -34 315 -143 367 -188 86 -73 152 -269 172 -510 8
-90 15 -126 29 -145 25 -33 46 -36 71 -9 45 49 54 216 20 400 -23 119 -21 162
6 173 57 22 145 -191 145 -351 0 -95 -18 -169 -70 -284 -31 -70 -42 -110 -54
-205 -9 -66 -28 -157 -43 -204 -30 -93 -223 -481 -284 -572 -21 -31 -87 -100
-145 -155 -59 -54 -142 -130 -186 -170 -143 -132 -269 -203 -447 -251 -93 -25
-106 -26 -381 -27 -157 -1 -296 -5 -309 -9 -22 -7 -14 -12 55 -32 172 -52 299
-83 363 -89 122 -12 340 32 507 102 241 101 543 340 791 628 153 177 171 206
182 292 13 103 46 157 167 269 160 148 209 246 202 404 -4 102 -24 148 -78
184 -35 23 -39 31 -55 103 -22 101 -58 200 -103 288 -28 54 -64 98 -157 190
-108 108 -126 132 -174 225 -69 135 -124 213 -201 283 -111 103 -222 169 -350
208 -41 12 -106 36 -145 52 -187 78 -306 110 -535 142 -128 19 -185 38 -202
68 -8 17 -7 23 8 35 25 18 262 11 380 -12 89 -18 234 -65 364 -120 125 -52
202 -46 170 14 -30 56 -204 159 -357 211 -168 57 -357 74 -472 43z m1782
-1749 c4 -8 0 -56 -8 -108 -22 -148 -71 -257 -115 -257 -29 0 -43 35 -35 89
12 81 66 230 95 261 30 33 55 38 63 15z m-2485 -664 c8 -5 71 -64 140 -133
203 -199 329 -257 625 -284 56 -5 68 -9 65 -22 -2 -10 -21 -26 -43 -37 -34
-17 -60 -20 -165 -20 -136 0 -202 15 -319 75 -134 67 -227 158 -310 302 -53
94 -62 114 -54 122 9 9 46 7 61 -3z"/>
<path d="M3402 6210 c-77 -13 -113 -25 -144 -46 -47 -33 -119 -121 -200 -246
-57 -86 -57 -86 -14 -68 23 11 73 40 111 66 87 57 137 83 265 134 56 22 119
49 139 59 73 38 90 83 41 108 -33 17 -73 15 -198 -7z"/>
<path d="M4023 5749 c-214 -20 -468 -137 -617 -284 -41 -40 -70 -83 -107 -158
-28 -56 -84 -160 -124 -232 -40 -71 -83 -158 -94 -192 -36 -108 -54 -245 -54
-423 1 -181 15 -295 64 -505 17 -71 39 -168 49 -215 18 -85 18 -85 13 30 -3
63 -13 176 -24 250 -48 338 -8 601 136 895 187 382 387 566 713 652 89 24 119
26 377 32 292 6 325 11 325 50 0 27 -67 57 -170 75 -74 14 -348 38 -390 34 -8
0 -52 -4 -97 -9z"/>
<path d="M3120 5383 c-14 -9 -31 -24 -38 -33 -31 -35 -94 -185 -125 -296 -54
-189 -54 -186 -12 -125 20 29 58 89 84 134 26 45 73 122 104 171 60 93 73 148
41 160 -23 9 -27 8 -54 -11z"/>
<path d="M4343 5200 c-221 -28 -384 -101 -527 -239 -271 -261 -340 -667 -160
-948 117 -184 275 -293 551 -383 250 -82 443 -72 705 35 223 91 265 124 326
248 64 131 80 278 42 398 -28 90 -51 123 -104 149 -30 14 -71 50 -114 99 -37
42 -101 111 -144 153 -327 326 -886 230 -1034 -177 -77 -213 -4 -441 183 -568
80 -55 157 -84 262 -99 138 -20 291 28 386 121 104 101 130 242 69 371 -60
126 -168 214 -297 240 -176 36 -348 -86 -350 -248 0 -96 49 -168 134 -194 105
-31 203 69 134 137 -30 31 -39 31 -65 3 -28 -30 -54 -14 -58 36 -3 29 2 42 26
65 83 83 244 22 277 -105 20 -79 4 -136 -55 -195 -141 -141 -393 -80 -492 120
-18 37 -23 63 -23 136 0 82 3 97 32 156 41 83 112 151 201 191 55 26 84 32
163 36 165 8 283 -41 414 -173 183 -184 236 -370 156 -540 -43 -94 -118 -163
-234 -219 -115 -55 -183 -70 -317 -69 -265 2 -514 140 -639 354 -63 108 -86
270 -56 405 71 327 357 544 717 544 291 0 504 -114 659 -355 119 -185 129
-195 155 -160 35 47 0 213 -69 335 -84 148 -289 279 -507 323 -99 20 -257 28
-347 17z"/>
<path d="M7045 4900 c-4 -6 -1 -10 6 -10 7 0 21 -8 32 -17 19 -18 19 -17 6 4
-16 26 -36 36 -44 23z"/>
<path d="M5810 3768 c-40 -27 -86 -107 -77 -131 11 -29 62 -21 103 15 46 41
69 90 54 118 -14 26 -39 25 -80 -2z"/>
<path d="M3445 3174 c173 -164 334 -250 515 -275 148 -20 358 -16 455 10 195
52 365 173 365 260 0 11 -4 23 -10 26 -21 13 -89 -17 -154 -69 -76 -61 -139
-88 -258 -112 -99 -20 -218 -15 -298 14 -31 11 -118 31 -193 46 -146 28 -246
60 -337 106 -30 16 -82 40 -115 54 -60 26 -60 26 30 -60z"/>
<path d="M4445 3223 c-82 -11 -293 -57 -317 -69 -34 -17 -36 -39 -6 -55 60
-32 360 13 436 66 60 43 0 73 -113 58z"/>
<path d="M6051 2608 c-18 -28 -25 -46 -17 -39 20 17 60 81 54 87 -3 2 -19 -19
-37 -48z"/>
<path d="M5989 2523 c-24 -28 -24 -28 4 -4 15 14 27 26 27 28 0 8 -8 1 -31
-24z"/>
</g>
</svg>
