<?xml version="1.0" standalone="no"?>
<!DOCTYPE svg PUBLIC "-//W3C//DTD SVG 20010904//EN"
 "http://www.w3.org/TR/2001/REC-SVG-20010904/DTD/svg10.dtd">
<svg version="1.0" xmlns="http://www.w3.org/2000/svg"
 width="1000.000000pt" height="1000.000000pt" viewBox="0 0 1000.000000 1000.000000"
 preserveAspectRatio="xMidYMid meet">
<metadata>
  <rdf:RDF
    xmlns:rdf = "http://www.w3.org/1999/02/22-rdf-syntax-ns#"
    xmlns:rdfs = "http://www.w3.org/2000/01/rdf-schema#"
    xmlns:dc = "http://purl.org/dc/elements/1.1/"
    xmlns:cc = "http://creativecommons.org/ns#">
    <cc:license rdf:resource="http://creativecommons.org/publicdomain/zero/1.0/deed.en"/>
    <cc:permits rdf:resource="http://creativecommons.org/ns#Reproduction"/>
    <rdf:Description about="https://nft.mir.one/fingerprints"
      dc:title="TON Fingerprints"
      dc:description="This is a unique digital fingerprint created based on the algorithm for generating basic rings using a noise texture. Like human fingerprints, you can now use it for the Web3 and Metaverse era as digital biometric information."
      dc:publisher="https://nft.mir.one"
      dc:date="2022-02-22"
      dc:format="image/svg+xml"
      dc:language="en" >
      <dc:creator>
      <rdf:Bag>
        <rdf:li>EQBondcvD2_aOFADXSWJHs4ZazQDuEl9_wNvGGPxI8hGuOFU</rdf:li>
        <rdf:li>ipfs://bafkreihj7iub3fhmhq6jn62noukt5wxn3gv6bvcg7wmt6ywvlurefezckq</rdf:li>
      </rdf:Bag>
      </dc:creator>
    </rdf:Description>
  </rdf:RDF>
</metadata>
<g transform="translate(0.000000,1000.000000) scale(0.100000,-0.100000)"
fill="#1b1f23" stroke="none">
<path d="M5290 7754 c170 -62 239 -78 287 -69 38 8 38 8 -12 15 -27 4 -124 28
-214 54 -90 25 -169 46 -175 45 -6 0 45 -21 114 -45z"/>
<path d="M4420 7667 c-125 -12 -125 -12 -30 -34 52 -12 133 -27 180 -33 463
-60 661 -123 970 -310 206 -124 328 -206 550 -370 102 -76 237 -171 300 -212
137 -89 213 -157 318 -285 42 -52 93 -113 112 -136 19 -24 43 -54 53 -67 33
-47 -55 125 -120 232 -126 211 -175 268 -344 395 -42 32 -125 98 -185 146
-190 153 -727 510 -838 556 -101 42 -232 79 -366 102 -142 25 -421 32 -600 16z"/>
<path d="M5605 7600 c-3 -5 1 -23 10 -39 15 -30 41 -48 290 -203 72 -44 177
-114 235 -156 58 -41 149 -107 204 -146 54 -39 121 -95 149 -126 28 -30 44
-44 37 -30 -21 40 -257 270 -365 356 -130 102 -289 208 -395 263 -47 24 -99
54 -117 67 -36 27 -39 28 -48 14z"/>
<path d="M4310 7469 c-111 -13 -199 -34 -350 -84 -135 -44 -135 -44 -75 -45
397 -4 502 -12 654 -51 93 -24 155 -60 198 -117 66 -87 40 -97 -120 -44 -152
51 -299 73 -487 74 -137 1 -150 -1 -237 -30 -98 -33 -153 -59 -295 -140 -88
-49 -88 -49 -35 -45 28 2 106 14 172 26 166 30 586 32 740 3 55 -10 165 -22
245 -25 144 -7 146 -7 285 -60 178 -67 448 -200 588 -288 179 -113 206 -142
152 -163 -38 -14 -113 13 -266 96 -170 92 -278 139 -442 193 -167 54 -255 74
-467 106 -323 49 -727 43 -897 -14 -81 -27 -279 -157 -390 -255 -12 -11 128
19 225 48 241 71 410 96 642 96 246 0 426 -29 663 -106 84 -28 170 -49 220
-54 130 -13 165 -28 409 -167 174 -98 260 -134 387 -162 234 -51 380 -169 614
-493 81 -111 119 -150 171 -172 40 -17 60 -41 129 -153 97 -158 122 -267 114
-487 -6 -166 -16 -203 -97 -371 -33 -66 -72 -165 -88 -220 -106 -356 -215
-662 -327 -912 -135 -302 -254 -496 -490 -803 -86 -111 -156 -214 -177 -258
-35 -73 -35 -73 -4 -44 17 16 85 77 151 136 409 367 611 689 868 1381 234 631
305 962 278 1286 -11 125 -82 509 -127 682 -47 185 -144 369 -275 523 -84 99
-141 150 -374 329 -420 324 -488 372 -723 506 -255 145 -463 221 -639 234 -49
4 -140 15 -203 26 -155 25 -231 29 -320 18z m760 -249 c360 -153 644 -328 870
-537 47 -43 156 -136 242 -206 225 -183 334 -304 437 -482 83 -145 118 -292
79 -331 -9 -9 -23 -14 -30 -11 -8 3 -36 49 -62 103 -118 246 -301 455 -551
631 -141 99 -165 122 -214 200 -82 131 -307 281 -688 458 -235 109 -343 181
-343 228 0 37 97 17 260 -53z"/>
<path d="M3910 6605 c-187 -26 -425 -89 -495 -130 -58 -34 -152 -118 -244
-216 -80 -86 -80 -86 -33 -77 26 6 81 26 122 45 321 148 589 220 861 230 278
10 459 -33 680 -163 87 -51 102 -69 74 -90 -44 -32 -135 -14 -300 59 -108 48
-209 67 -352 67 -267 0 -528 -68 -830 -217 -151 -74 -197 -113 -271 -232 -46
-74 -207 -459 -172 -411 10 14 58 74 107 135 95 118 113 132 376 292 239 145
393 210 601 255 135 29 410 32 469 6 20 -9 37 -24 37 -33 0 -26 -55 -42 -245
-69 -99 -14 -220 -37 -270 -52 -169 -49 -350 -148 -433 -238 -79 -85 -86 -112
-123 -438 -29 -257 -27 -435 4 -559 42 -164 123 -298 247 -411 171 -157 401
-238 635 -225 125 7 234 36 352 92 184 90 314 223 374 385 29 77 32 99 36 225
4 116 1 156 -16 232 -53 243 -158 403 -336 512 -38 23 -113 69 -165 101 -115
70 -149 77 -287 56 -245 -37 -427 -156 -517 -340 -57 -117 -70 -182 -71 -346
0 -135 2 -151 29 -226 67 -190 215 -331 397 -379 84 -23 231 -19 310 8 141 48
242 134 299 252 133 279 -35 621 -332 675 -152 28 -321 -58 -385 -196 -62
-136 -47 -275 43 -374 75 -83 187 -112 279 -71 27 12 58 29 69 39 28 25 56 92
56 137 0 109 -125 183 -187 111 -29 -35 -27 -57 10 -74 29 -14 32 -23 17 -52
-24 -46 -110 -27 -145 32 -48 83 -6 196 90 244 207 101 421 -135 338 -370 -24
-67 -100 -148 -171 -183 -51 -25 -68 -28 -157 -28 -93 0 -105 2 -166 32 -253
125 -324 477 -144 717 52 69 138 137 215 166 78 31 217 38 296 15 169 -48 320
-174 392 -325 72 -153 90 -306 52 -454 -27 -108 -63 -169 -150 -257 -62 -63
-92 -84 -170 -122 -122 -58 -181 -72 -310 -71 -186 0 -341 60 -473 184 -183
171 -261 405 -228 690 31 266 104 428 241 533 121 94 220 135 454 187 105 24
212 55 276 81 98 40 111 43 195 42 117 -1 189 -20 345 -93 89 -42 140 -60 168
-60 118 0 47 111 -168 262 -93 66 -150 116 -150 132 0 28 -62 136 -99 174 -81
83 -276 155 -486 181 -118 14 -346 12 -465 -4z"/>
<path d="M5008 6484 c-31 -31 31 -116 171 -233 188 -159 228 -214 241 -332 6
-56 18 -84 79 -195 40 -71 100 -166 133 -212 33 -45 77 -119 98 -165 135 -287
212 -811 165 -1122 -62 -408 -301 -853 -590 -1095 -120 -101 -471 -344 -559
-388 -170 -84 -280 -102 -451 -73 -130 21 -373 34 -444 23 -45 -7 -45 -7 110
-69 237 -96 327 -117 484 -118 117 0 138 3 209 28 127 45 261 115 416 217 80
54 192 128 250 165 212 138 404 364 551 650 139 269 229 579 229 789 0 67 -62
461 -105 667 -15 68 -53 205 -85 304 -33 99 -64 213 -70 253 -12 87 -43 155
-68 150 -14 -3 -17 -16 -17 -78 0 -74 -2 -77 -34 -71 -13 2 -41 77 -41 110 0
16 7 48 16 72 23 66 12 126 -45 243 -39 80 -63 115 -116 168 -124 123 -402
307 -477 315 -24 3 -46 1 -50 -3z"/>
<path d="M5810 6099 c-20 -36 17 -87 116 -161 49 -37 116 -97 149 -132 106
-115 212 -305 249 -450 30 -113 86 -554 86 -671 0 -49 -25 -121 -44 -128 -7
-3 -18 -2 -25 2 -13 8 -18 37 -62 351 -48 348 -102 536 -207 715 -53 92 -154
200 -195 210 -33 9 -60 -10 -52 -36 3 -10 25 -46 49 -82 88 -131 190 -421 242
-690 19 -100 46 -237 58 -304 15 -77 36 -148 57 -194 32 -69 34 -80 34 -179
-1 -128 -27 -257 -95 -460 -126 -380 -323 -716 -549 -940 -98 -97 -114 -108
-301 -193 -41 -19 -112 -64 -158 -100 -136 -109 -324 -206 -542 -282 -52 -19
-122 -45 -155 -60 -60 -26 -60 -26 85 -20 168 8 312 36 488 96 64 22 125 45
135 51 10 5 83 18 162 28 94 12 152 24 170 36 25 16 266 296 364 422 184 238
371 598 490 945 59 172 182 623 188 689 3 31 1 99 -6 150 -16 136 -31 328 -40
535 -8 174 -10 185 -40 248 -34 73 -118 207 -189 300 -172 226 -418 388 -462
304z m-390 -3458 c0 -28 -62 -72 -110 -78 -43 -6 -52 7 -27 39 38 50 137 77
137 39z"/>
<path d="M4685 5871 c-48 -12 -75 -30 -75 -51 0 -26 22 -46 77 -66 240 -87
364 -177 426 -307 33 -70 111 -313 133 -412 24 -112 24 -315 0 -420 -41 -181
-116 -287 -280 -397 -246 -164 -448 -226 -703 -215 -152 6 -248 29 -379 91
-325 154 -516 412 -554 746 -11 101 -9 160 17 360 10 81 13 156 9 213 -3 50
-1 108 5 137 9 43 8 55 -5 75 -32 48 -87 23 -193 -86 -59 -62 -102 -147 -133
-264 -31 -119 -62 -373 -63 -515 -1 -146 25 -266 100 -460 106 -276 196 -394
358 -469 50 -23 185 -89 300 -147 116 -57 237 -112 270 -121 42 -11 119 -17
256 -20 174 -5 205 -3 275 15 44 11 105 25 136 32 32 6 113 34 180 61 74 30
145 52 178 55 81 8 105 21 165 86 80 89 122 182 140 309 7 57 28 149 45 204
48 154 61 229 67 371 9 219 -21 389 -113 622 -45 117 -54 180 -26 190 21 7 94
-77 134 -154 113 -215 172 -531 148 -804 -25 -298 -106 -582 -224 -788 -151
-263 -224 -354 -345 -434 -95 -62 -151 -78 -271 -76 -91 1 -102 -2 -240 -51
-186 -67 -316 -100 -440 -110 -111 -10 -280 0 -385 24 -39 8 -101 22 -140 30
-38 8 -81 18 -95 21 -35 8 177 -140 275 -193 125 -66 184 -83 286 -83 122 0
175 13 319 80 271 125 459 165 436 92 -8 -24 -85 -65 -241 -127 -143 -57 -175
-77 -175 -111 0 -111 403 23 516 172 15 19 78 69 140 109 213 141 325 250 456
444 134 200 230 430 279 671 22 103 24 140 23 350 -1 194 -4 255 -22 350 -54
292 -147 504 -281 639 -85 85 -384 254 -539 305 -85 27 -181 39 -227 27z
m-1419 -446 c4 -8 -8 -66 -25 -128 -49 -181 -64 -287 -64 -447 0 -129 3 -155
27 -235 90 -297 320 -541 641 -679 191 -82 384 -115 568 -96 183 18 385 85
529 173 40 24 100 60 132 80 63 39 113 48 122 22 9 -23 -40 -97 -102 -154 -60
-55 -222 -140 -344 -181 -289 -97 -576 -104 -819 -18 -100 35 -328 149 -421
210 -181 119 -328 308 -422 540 -37 93 -42 114 -46 209 -10 239 88 630 175
698 31 25 42 26 49 6z"/>
<path d="M6609 5313 c-8 -20 -8 -64 0 -158 6 -71 13 -199 17 -283 5 -126 10
-157 25 -175 14 -18 21 -20 36 -11 77 47 84 473 10 608 -29 53 -71 62 -88 19z"/>
<path d="M7015 4313 c-3 -15 -79 -208 -167 -428 -157 -392 -291 -745 -285
-752 6 -6 206 433 265 582 85 213 211 609 199 621 -3 3 -8 -8 -12 -23z"/>
<path d="M3149 3758 c37 -62 90 -151 117 -197 83 -140 229 -274 338 -306 64
-20 361 -39 486 -32 148 9 327 44 392 77 32 17 68 51 68 65 0 6 -17 19 -37 29
-32 15 -57 17 -232 10 -200 -7 -289 0 -397 31 -38 11 -71 32 -124 80 -77 69
-163 123 -263 163 -69 28 -107 24 -107 -11 0 -41 86 -107 248 -192 39 -20 72
-43 72 -50 0 -46 -93 -44 -194 5 -95 45 -163 111 -201 195 -25 53 -49 85 -101
135 -38 36 -84 76 -101 88 -29 21 -26 13 36 -90z"/>
<path d="M5038 3626 c-34 -12 -104 -54 -224 -132 -56 -37 -88 -85 -83 -124 4
-23 8 -25 54 -25 40 1 63 8 115 40 74 44 165 126 186 167 31 61 10 94 -48 74z"/>
<path d="M4567 3474 c-13 -13 -7 -51 9 -65 23 -19 69 8 69 41 0 21 -5 25 -35
28 -20 2 -39 0 -43 -4z"/>
<path d="M5282 2350 c-109 -49 -243 -124 -285 -160 -14 -13 316 105 363 129
53 27 90 59 90 78 0 23 -32 14 -168 -47z"/>
</g>
</svg>
