<?xml version="1.0" standalone="no"?>
<!DOCTYPE svg PUBLIC "-//W3C//DTD SVG 20010904//EN"
 "http://www.w3.org/TR/2001/REC-SVG-20010904/DTD/svg10.dtd">
<svg version="1.0" xmlns="http://www.w3.org/2000/svg"
 width="1000.000000pt" height="1000.000000pt" viewBox="0 0 1000.000000 1000.000000"
 preserveAspectRatio="xMidYMid meet">
<metadata>
  <rdf:RDF
    xmlns:rdf = "http://www.w3.org/1999/02/22-rdf-syntax-ns#"
    xmlns:rdfs = "http://www.w3.org/2000/01/rdf-schema#"
    xmlns:dc = "http://purl.org/dc/elements/1.1/"
    xmlns:cc = "http://creativecommons.org/ns#">
    <cc:license rdf:resource="http://creativecommons.org/publicdomain/zero/1.0/deed.en"/>
    <cc:permits rdf:resource="http://creativecommons.org/ns#Reproduction"/>
    <rdf:Description about="https://nft.mir.one/fingerprints"
      dc:title="TON Fingerprints"
      dc:description="This is a unique digital fingerprint created based on the algorithm for generating basic rings using a noise texture. Like human fingerprints, you can now use it for the Web3 and Metaverse era as digital biometric information."
      dc:publisher="https://nft.mir.one"
      dc:date="2022-02-22"
      dc:format="image/svg+xml"
      dc:language="en" >
      <dc:creator>
      <rdf:Bag>
        <rdf:li>EQBondcvD2_aOFADXSWJHs4ZazQDuEl9_wNvGGPxI8hGuOFU</rdf:li>
        <rdf:li>ipfs://bafkreihj7iub3fhmhq6jn62noukt5wxn3gv6bvcg7wmt6ywvlurefezckq</rdf:li>
      </rdf:Bag>
      </dc:creator>
    </rdf:Description>
  </rdf:RDF>
</metadata>
<g transform="translate(0.000000,1000.000000) scale(0.100000,-0.100000)"
fill="#1b1f23" stroke="none">
<path d="M4970 7763 c41 -27 123 -74 182 -105 206 -109 291 -177 436 -345 48
-57 108 -104 499 -390 85 -63 85 -63 154 -63 45 0 87 -7 124 -21 62 -23 287
-169 350 -227 53 -50 -128 148 -202 220 -32 31 -148 125 -258 208 -672 512
-825 608 -1139 709 -225 72 -237 74 -146 14z"/>
<path d="M4385 7620 c-55 -10 -131 -23 -170 -30 -70 -13 -70 -13 -5 -30 36
-10 114 -21 174 -24 223 -14 429 -67 733 -190 228 -92 270 -104 302 -87 47 26
15 79 -90 149 -83 56 -303 160 -389 185 -168 49 -378 59 -555 27z"/>
<path d="M4007 7464 c-15 -13 -24 -24 -19 -24 14 0 58 37 52 43 -3 3 -18 -6
-33 -19z"/>
<path d="M4180 7347 c-90 -28 -294 -114 -405 -169 -44 -23 -105 -51 -135 -63
-54 -23 -54 -23 8 -24 34 0 126 11 204 24 359 63 393 67 588 62 316 -7 513
-61 868 -237 397 -197 479 -268 794 -690 112 -151 254 -353 314 -448 126 -202
175 -262 210 -262 57 0 20 112 -117 360 -41 74 -85 157 -99 184 -14 26 -60 87
-103 135 -99 109 -151 186 -220 331 -84 177 -167 272 -349 403 -117 84 -222
133 -364 171 -71 19 -194 59 -274 89 -297 111 -454 146 -685 153 -147 4 -166
2 -235 -19z"/>
<path d="M4170 7025 c-411 -52 -536 -88 -740 -210 -45 -27 -45 -27 35 -19 110
11 168 8 204 -10 40 -21 59 -20 192 10 272 61 546 85 764 65 217 -20 447 -72
476 -107 11 -14 10 -19 -10 -35 -30 -24 -97 -25 -315 -3 -300 30 -632 6 -851
-61 -44 -14 -134 -54 -200 -90 -66 -36 -174 -92 -240 -124 -137 -67 -162 -85
-302 -222 -98 -96 -100 -99 -65 -93 20 4 88 32 151 62 215 101 465 214 564
253 268 107 540 141 959 120 434 -22 508 -36 674 -126 212 -115 359 -255 554
-525 98 -136 263 -348 373 -478 101 -119 182 -232 218 -304 82 -163 147 -390
173 -606 22 -181 38 -215 78 -174 30 30 48 123 48 255 0 142 -15 222 -79 417
-79 237 -156 369 -260 439 -78 54 -109 91 -305 364 -400 561 -553 713 -890
883 -110 56 -167 92 -211 132 -91 84 -227 138 -445 176 -133 24 -406 29 -550
11z"/>
<path d="M6197 6784 c-14 -15 -6 -78 15 -115 16 -29 28 -39 47 -39 72 -1 179
-88 268 -220 28 -41 77 -100 108 -130 123 -118 231 -295 291 -475 35 -105 45
-274 20 -323 -18 -35 -41 -41 -54 -14 -5 9 -17 62 -27 117 -32 183 -91 332
-197 498 -70 109 -108 136 -143 101 -23 -24 -13 -61 59 -199 91 -175 134 -282
157 -386 24 -110 28 -120 90 -185 28 -30 52 -67 58 -90 5 -21 33 -127 61 -234
28 -107 63 -222 77 -255 14 -33 31 -80 38 -105 19 -62 19 -19 0 95 -37 229
-56 435 -59 643 -3 177 -8 232 -24 297 -29 113 -77 245 -127 350 -76 158 -255
414 -357 511 -91 87 -275 184 -301 158z"/>
<path d="M3569 6716 c-66 -23 -193 -111 -304 -211 -50 -44 -50 -44 5 -30 64
17 278 111 338 149 47 30 77 69 68 91 -7 19 -57 19 -107 1z"/>
<path d="M6223 6585 c-19 -52 31 -162 118 -256 38 -42 52 -50 75 -47 27 3 29
6 28 41 -2 45 -49 120 -138 214 -61 66 -73 73 -83 48z"/>
<path d="M4305 6419 c-281 -37 -526 -120 -932 -314 -153 -73 -205 -116 -319
-266 -73 -96 -73 -96 -33 -83 21 8 87 42 146 76 235 135 586 288 810 352 190
55 342 77 563 83 389 11 678 -50 942 -196 160 -89 308 -210 308 -253 0 -4 -9
-10 -21 -13 -15 -5 -81 22 -238 99 -312 153 -478 201 -771 227 -311 26 -649
-25 -985 -151 -243 -90 -600 -275 -653 -338 -60 -71 -212 -323 -194 -321 17 2
87 50 172 117 286 225 709 419 1070 490 169 34 252 42 420 42 317 0 480 -38
960 -224 250 -98 273 -109 350 -171 184 -151 487 -581 545 -775 16 -54 88
-367 125 -545 25 -118 44 -357 37 -465 -6 -98 -41 -212 -111 -368 -67 -149
-163 -338 -204 -402 -19 -30 -52 -92 -73 -138 -48 -103 -120 -181 -244 -264
-518 -347 -1264 -407 -1725 -141 -69 40 -295 258 -348 336 -38 56 -213 421
-252 527 -101 272 -117 570 -43 805 52 165 131 292 259 416 118 114 154 131
154 74 0 -39 -14 -65 -95 -175 -88 -119 -155 -251 -187 -366 -18 -66 -21 -106
-21 -239 -1 -138 3 -177 27 -284 65 -294 154 -481 288 -607 75 -71 123 -93
252 -114 61 -11 164 -30 228 -44 321 -68 575 -57 867 36 111 35 271 108 354
161 47 31 57 42 57 65 0 43 52 113 132 176 102 81 141 100 212 100 58 -1 58
-1 102 55 25 31 64 97 88 146 125 255 136 474 52 973 -54 317 -69 366 -132
420 -26 23 -63 74 -90 123 -76 138 -143 228 -249 335 -122 124 -210 178 -374
230 -64 20 -204 65 -311 99 -205 67 -297 88 -445 105 -456 51 -1005 -99 -1450
-395 -193 -129 -235 -169 -292 -282 -28 -54 -63 -136 -78 -183 -15 -47 -35
-98 -43 -115 -15 -30 -15 -30 27 8 24 21 69 69 101 105 351 406 891 665 1475
707 197 14 467 -32 653 -113 123 -53 155 -76 199 -142 20 -30 86 -104 147
-165 139 -137 196 -206 296 -355 84 -125 118 -160 156 -160 33 0 31 23 -11
127 -47 116 -102 206 -189 311 -67 80 -108 118 -266 244 -62 50 -73 74 -38 83
62 16 200 -67 329 -195 103 -102 175 -202 217 -302 22 -53 26 -80 28 -173 2
-60 3 -113 3 -117 1 -4 13 -15 27 -24 39 -26 54 -3 66 97 11 91 21 119 42 119
33 0 46 -134 21 -200 -29 -74 -28 -118 0 -256 51 -241 45 -467 -17 -642 -59
-169 -114 -239 -351 -454 -226 -205 -258 -230 -355 -280 -190 -100 -396 -144
-641 -135 -168 5 -275 21 -416 62 -148 43 -227 87 -315 174 -113 111 -162 224
-117 268 15 16 23 11 104 -68 49 -47 110 -100 136 -118 174 -118 441 -180 727
-168 222 9 401 68 568 186 95 68 263 230 344 332 180 227 251 479 202 717 -23
115 -62 184 -167 298 -51 55 -116 136 -146 180 -114 165 -178 243 -309 372
-193 192 -276 249 -443 305 -198 66 -489 75 -734 23 -315 -68 -592 -186 -828
-353 -106 -75 -314 -283 -349 -348 -39 -74 -75 -208 -93 -347 -8 -68 -18 -134
-21 -148 -8 -36 41 43 111 178 197 386 529 652 982 786 142 42 384 95 483 106
222 23 457 -39 654 -173 188 -128 370 -338 468 -543 48 -100 57 -161 34 -230
-26 -79 -36 -153 -37 -258 -1 -87 1 -101 20 -120 28 -28 48 -15 81 50 22 43
25 65 28 181 5 157 16 178 63 126 15 -18 33 -49 38 -70 18 -63 13 -193 -9
-265 -21 -68 -159 -309 -240 -418 -70 -94 -214 -229 -295 -278 -146 -86 -262
-109 -468 -92 -300 24 -436 57 -597 142 -52 28 -133 71 -180 95 -104 55 -132
81 -160 145 -56 129 -64 312 -20 453 67 214 228 409 376 455 126 39 261 24
389 -43 108 -57 297 -266 358 -396 51 -108 48 -264 -5 -321 -32 -34 -44 -9
-56 119 -9 103 -14 123 -52 198 -57 116 -164 224 -274 279 -76 37 -84 39 -175
39 -83 0 -104 -4 -153 -27 -82 -38 -123 -72 -175 -145 -109 -153 -131 -349
-56 -497 80 -157 334 -278 516 -245 75 13 97 31 97 77 0 19 12 82 26 141 33
133 30 213 -11 296 -61 126 -204 164 -279 74 -50 -59 -27 -149 38 -149 38 0
56 15 56 47 0 35 28 40 58 10 49 -50 24 -166 -47 -214 -67 -46 -152 -38 -217
19 -131 115 -100 336 58 424 72 40 177 42 253 4 148 -72 236 -252 223 -456 -5
-77 -37 -157 -85 -214 -29 -35 -25 -56 14 -71 50 -19 84 -3 170 79 44 42 110
104 146 138 82 78 110 142 110 259 1 127 -32 184 -222 389 -53 56 -104 123
-121 156 -49 97 -158 167 -322 209 -165 43 -289 38 -452 -18 -69 -24 -93 -28
-119 -20 -88 25 -187 -14 -297 -118 -202 -190 -320 -488 -320 -806 0 -234 61
-408 250 -717 49 -80 98 -170 110 -200 38 -98 103 -169 280 -306 156 -122 295
-197 467 -253 251 -82 548 -97 826 -41 355 72 723 274 912 500 243 291 456
663 560 978 26 80 27 83 11 124 -15 35 -16 66 -10 217 6 176 6 176 -31 218
-44 52 -65 110 -105 290 -88 398 -189 574 -608 1058 -69 80 -127 159 -151 205
-88 167 -265 321 -495 431 -195 93 -355 120 -741 124 -154 2 -311 -1 -350 -6z"/>
<path d="M4545 5253 c-11 -3 -50 -18 -86 -34 -37 -16 -133 -42 -213 -59 -364
-76 -582 -184 -787 -389 -119 -119 -188 -215 -260 -364 -44 -92 -50 -112 -59
-204 -11 -115 -1 -288 25 -423 16 -84 76 -323 80 -318 1 2 -2 75 -7 163 -13
246 2 393 59 570 97 303 308 553 553 656 118 50 293 90 415 96 121 6 168 -3
377 -71 169 -55 247 -95 291 -150 55 -66 160 -116 173 -81 8 21 -26 57 -82 87
-55 29 -55 54 -1 52 50 -2 107 -48 128 -103 8 -23 39 -72 69 -109 29 -37 66
-96 83 -130 27 -58 29 -67 18 -103 -11 -36 -9 -47 14 -105 38 -95 52 -207 37
-296 -26 -149 -108 -261 -282 -384 -65 -46 -86 -66 -88 -86 -7 -58 90 -62 202
-10 138 66 254 182 327 329 50 101 58 161 34 264 -9 41 -19 119 -22 174 -5 92
-3 105 21 162 49 116 26 228 -79 389 -150 231 -414 416 -668 468 -71 15 -226
20 -272 9z m198 -139 c161 -31 339 -108 458 -200 140 -108 275 -324 287 -461
4 -43 2 -53 -11 -53 -24 0 -45 26 -84 104 -85 170 -203 316 -299 368 -59 32
-264 103 -427 148 -121 33 -170 60 -165 89 6 31 95 33 241 5z"/>
<path d="M4949 4593 c-11 -13 6 -33 111 -135 131 -126 173 -158 204 -158 15 0
17 5 12 30 -13 70 -122 192 -208 236 -77 39 -104 45 -119 27z"/>
<path d="M6970 4138 c-51 -146 -73 -193 -108 -230 -14 -15 -23 -30 -20 -34 14
-13 49 20 73 66 24 47 108 310 101 317 -2 2 -22 -52 -46 -119z"/>
<path d="M6069 3227 c-53 -40 -128 -94 -165 -122 -77 -56 -89 -80 -48 -95 63
-24 256 55 311 128 49 64 58 163 15 161 -9 0 -60 -33 -113 -72z"/>
<path d="M5905 2891 c-82 -31 -193 -76 -245 -98 -268 -116 -446 -160 -690
-170 -172 -7 -324 13 -524 67 -92 26 -164 40 -190 38 -37 -3 -41 -6 -44 -31
-5 -38 40 -78 142 -127 268 -129 636 -155 993 -70 267 63 628 240 737 360 38
43 43 59 24 78 -20 20 -46 14 -203 -47z"/>
</g>
</svg>
