<?xml version="1.0" standalone="no"?>
<!DOCTYPE svg PUBLIC "-//W3C//DTD SVG 20010904//EN"
 "http://www.w3.org/TR/2001/REC-SVG-20010904/DTD/svg10.dtd">
<svg version="1.0" xmlns="http://www.w3.org/2000/svg"
 width="1000.000000pt" height="1000.000000pt" viewBox="0 0 1000.000000 1000.000000"
 preserveAspectRatio="xMidYMid meet">
<metadata>
  <rdf:RDF
    xmlns:rdf = "http://www.w3.org/1999/02/22-rdf-syntax-ns#"
    xmlns:rdfs = "http://www.w3.org/2000/01/rdf-schema#"
    xmlns:dc = "http://purl.org/dc/elements/1.1/"
    xmlns:cc = "http://creativecommons.org/ns#">
    <cc:license rdf:resource="http://creativecommons.org/publicdomain/zero/1.0/deed.en"/>
    <cc:permits rdf:resource="http://creativecommons.org/ns#Reproduction"/>
    <rdf:Description about="https://nft.mir.one/fingerprints"
      dc:title="TON Fingerprints"
      dc:description="This is a unique digital fingerprint created based on the algorithm for generating basic rings using a noise texture. Like human fingerprints, you can now use it for the Web3 and Metaverse era as digital biometric information."
      dc:publisher="https://nft.mir.one"
      dc:date="2022-02-22"
      dc:format="image/svg+xml"
      dc:language="en" >
      <dc:creator>
      <rdf:Bag>
        <rdf:li>EQBondcvD2_aOFADXSWJHs4ZazQDuEl9_wNvGGPxI8hGuOFU</rdf:li>
        <rdf:li>ipfs://bafkreihj7iub3fhmhq6jn62noukt5wxn3gv6bvcg7wmt6ywvlurefezckq</rdf:li>
      </rdf:Bag>
      </dc:creator>
    </rdf:Description>
  </rdf:RDF>
</metadata>
<g transform="translate(0.000000,1000.000000) scale(0.100000,-0.100000)"
fill="#1b1f23" stroke="none">
<path d="M4881 7763 c24 -24 89 -76 144 -116 411 -293 576 -435 700 -605 95
-130 209 -323 300 -507 106 -217 147 -321 189 -492 19 -76 55 -210 81 -298 25
-88 60 -227 76 -310 39 -199 64 -233 105 -147 13 29 16 53 11 126 -7 108 -22
178 -85 386 -43 145 -47 163 -47 270 0 69 -6 131 -14 155 -18 52 -197 448
-257 568 -97 194 -233 414 -337 545 -56 71 -106 109 -193 145 -33 14 -109 54
-169 88 -152 86 -257 135 -414 190 -133 47 -133 47 -90 2z"/>
<path d="M5457 7713 c60 -72 120 -123 143 -123 42 0 21 24 -105 116 -80 58
-80 58 -38 7z"/>
<path d="M4370 7632 c30 -19 76 -42 102 -53 213 -84 527 -286 748 -481 273
-240 536 -626 718 -1053 75 -175 216 -551 236 -627 15 -60 12 -98 -9 -98 -31
0 -71 75 -195 365 -395 928 -815 1418 -1470 1716 -126 58 -204 71 -389 67
-120 -3 -120 -3 -88 -31 44 -38 254 -143 442 -221 181 -75 281 -131 404 -226
226 -175 412 -387 624 -711 128 -196 211 -343 339 -607 142 -290 167 -332 254
-422 115 -120 165 -226 240 -514 47 -183 81 -268 111 -284 79 -43 83 152 12
543 -31 171 -45 211 -78 231 -41 24 -66 76 -86 174 -21 107 -39 169 -132 460
-137 425 -243 651 -451 955 -180 264 -376 450 -729 692 -155 106 -305 149
-543 155 -116 3 -116 3 -60 -30z"/>
<path d="M5886 7500 c10 -41 37 -105 77 -175 147 -263 193 -353 288 -570 150
-339 211 -459 290 -565 162 -219 297 -580 348 -936 60 -412 56 -728 -15 -1198
-25 -162 -25 -171 -9 -212 18 -47 35 -50 35 -7 0 15 16 107 35 205 65 330 79
469 80 788 0 220 -4 316 -18 420 -48 358 -157 688 -327 991 -102 181 -143 263
-217 433 -135 313 -216 446 -425 698 -57 69 -115 140 -130 159 -26 34 -26 34
-12 -31z"/>
<path d="M3773 7220 c42 -48 164 -152 288 -245 157 -120 483 -433 615 -591
196 -237 309 -447 374 -694 23 -85 78 -247 122 -360 136 -347 166 -455 233
-840 63 -368 67 -410 74 -810 4 -206 4 -404 -1 -440 -18 -136 -89 -321 -173
-450 -33 -52 -114 -141 -265 -290 -181 -180 -260 -269 -260 -295 0 -3 28 8 63
25 34 16 134 61 221 101 88 39 195 89 237 111 47 24 101 43 134 47 31 4 62 14
69 22 36 37 149 390 181 558 78 421 8 1121 -175 1753 -50 172 -95 296 -200
547 -121 291 -138 353 -107 396 18 24 29 16 65 -48 106 -188 291 -621 377
-882 187 -564 279 -1147 254 -1614 -10 -178 -24 -269 -79 -501 -54 -230 -53
-225 -40 -281 12 -51 12 -51 26 -22 8 15 33 53 56 83 109 144 202 281 230 339
43 91 54 238 38 551 -14 295 -27 397 -85 657 -132 584 -265 955 -531 1473 -96
187 -150 259 -230 310 -57 36 -69 50 -157 192 -193 311 -288 430 -532 666
-170 165 -215 219 -215 259 0 58 51 33 240 -118 195 -156 385 -371 590 -669
51 -74 130 -182 176 -240 45 -58 108 -146 139 -195 76 -121 381 -732 438 -875
58 -147 144 -427 207 -669 27 -104 63 -224 80 -267 34 -85 49 -196 50 -364 0
-52 7 -140 15 -195 8 -55 15 -152 15 -215 1 -122 9 -181 33 -243 14 -39 14
-39 20 -5 5 33 86 259 126 350 11 26 40 68 65 95 55 58 80 103 141 253 26 63
51 119 56 125 19 20 10 45 -17 45 -45 0 -88 -57 -133 -177 -59 -154 -82 -197
-108 -201 -36 -5 -49 57 -34 161 14 106 42 189 88 264 102 165 120 212 163
426 63 316 72 467 45 804 -21 270 -33 364 -61 490 -35 158 -86 309 -149 440
-54 110 -89 153 -126 153 -32 0 -23 -52 46 -261 97 -293 107 -345 110 -589 2
-113 9 -273 15 -356 7 -83 11 -206 8 -273 -4 -119 -5 -122 -46 -202 -38 -72
-44 -93 -52 -183 -19 -195 -55 -306 -100 -306 -30 0 -40 30 -56 173 -11 97
-24 158 -51 232 -19 55 -70 204 -112 330 -94 277 -121 337 -237 525 -50 80
-138 237 -196 350 -129 252 -201 373 -360 607 -176 260 -295 410 -438 553
-141 142 -270 244 -378 297 -61 30 -88 38 -160 43 -95 7 -112 14 -264 107
-135 81 -141 83 -292 86 -134 2 -134 2 -103 -33z"/>
<path d="M3600 7052 c-35 -7 -35 -7 17 -30 56 -24 108 -29 119 -11 19 31 -61
55 -136 41z"/>
<path d="M3715 6909 c-77 -18 -280 -72 -289 -77 -17 -10 53 -42 155 -72 72
-22 124 -44 169 -75 36 -23 92 -60 125 -80 90 -56 125 -92 125 -132 0 -52 20
-90 111 -209 115 -152 169 -235 221 -339 58 -116 78 -178 133 -413 54 -230 65
-334 56 -507 -9 -176 0 -239 59 -442 64 -220 87 -328 101 -484 22 -254 -19
-549 -107 -768 -66 -165 -164 -312 -286 -432 -106 -104 -202 -146 -400 -174
-27 -4 -48 -10 -48 -14 0 -3 28 -14 63 -24 34 -10 98 -35 142 -54 91 -41 187
-54 250 -33 51 17 196 163 304 306 100 133 200 329 236 464 14 52 34 156 45
230 56 388 26 706 -94 1007 -31 79 -66 178 -77 220 -26 100 -28 236 -5 321 14
52 15 73 6 125 -33 184 -130 493 -204 652 -87 187 -257 414 -407 547 -70 62
-71 83 -4 81 152 -4 462 -387 605 -747 16 -41 59 -164 95 -273 49 -145 86
-235 140 -338 82 -156 125 -285 125 -376 0 -61 -14 -104 -36 -113 -21 -8 -30
13 -63 138 -52 195 -97 286 -142 286 -45 0 -42 -109 8 -268 30 -98 63 -150
119 -192 34 -24 44 -40 57 -87 71 -262 97 -646 62 -928 -8 -66 -19 -170 -25
-232 -24 -263 -139 -467 -484 -863 -95 -109 -129 -156 -139 -190 -8 -25 -13
-46 -13 -47 3 -5 234 79 280 101 87 43 313 292 431 474 73 114 235 438 235
471 0 42 -23 58 -63 42 -95 -38 -102 -20 -48 115 23 59 44 131 50 177 23 165
10 426 -39 762 -10 72 -21 164 -25 205 -19 227 -43 323 -143 570 -41 102 -105
277 -143 390 -106 315 -210 509 -385 727 -142 174 -279 290 -499 420 -60 35
-139 84 -175 109 -72 48 -106 57 -165 43z m103 -131 c-5 -15 -48 -24 -48 -10
0 14 12 22 33 22 10 0 17 -5 15 -12z"/>
<path d="M6520 6914 c0 -34 36 -179 62 -244 37 -93 157 -330 243 -480 37 -63
80 -141 97 -173 17 -31 33 -56 35 -54 7 8 -90 224 -222 497 -73 151 -152 318
-174 370 -22 52 -41 90 -41 84z"/>
<path d="M3385 6620 c-38 -10 -81 -19 -94 -19 -24 -1 -23 -2 10 -26 19 -15 76
-46 126 -70 155 -73 257 -146 383 -274 192 -193 286 -334 364 -544 29 -78 35
-102 25 -113 -15 -19 -46 -9 -82 25 -35 32 -52 64 -61 115 -30 164 -322 476
-591 631 -77 45 -82 46 -140 41 -33 -3 -83 -14 -111 -24 -51 -18 -51 -18 -15
-42 20 -13 74 -43 121 -65 174 -86 381 -242 530 -401 138 -147 166 -194 117
-194 -29 0 -87 40 -192 135 -218 195 -448 345 -528 345 -19 0 -66 -10 -105
-23 -70 -23 -70 -23 -38 -43 17 -11 83 -46 146 -77 149 -73 293 -167 455 -298
72 -58 173 -134 225 -169 137 -93 238 -197 283 -290 51 -108 61 -190 22 -190
-8 0 -50 44 -93 98 -83 101 -123 141 -257 258 -44 38 -120 107 -170 152 -103
96 -287 223 -416 288 -98 49 -144 55 -214 28 -22 -9 -50 -18 -63 -21 -22 -5
-21 -7 14 -30 20 -14 64 -37 98 -50 256 -104 536 -292 536 -360 0 -31 -34 -20
-161 52 -140 79 -277 148 -343 171 -43 16 -78 10 -161 -27 -47 -21 -47 -21
-19 -40 16 -10 72 -35 124 -55 52 -20 170 -70 262 -111 141 -63 179 -76 245
-82 45 -5 95 -17 119 -29 48 -24 169 -114 279 -206 94 -79 273 -171 312 -161
33 8 54 62 61 157 6 90 -6 162 -54 312 -29 94 -34 124 -34 208 0 188 -71 333
-315 648 -163 210 -248 285 -408 361 -72 34 -96 35 -192 9z"/>
<path d="M3035 5381 c-59 -22 -105 -44 -105 -51 0 -10 67 -40 205 -91 176 -65
439 -190 541 -259 118 -79 249 -188 345 -287 121 -126 181 -239 230 -435 21
-83 24 -116 24 -298 -1 -187 -3 -215 -27 -317 -59 -251 -172 -462 -341 -640
-73 -77 -149 -133 -179 -133 -30 0 -21 -20 16 -35 38 -16 131 -12 196 7 84 26
214 134 300 249 173 233 261 521 261 854 0 246 -52 491 -147 690 -47 99 -80
134 -187 198 -51 30 -160 105 -243 166 -172 128 -229 160 -431 242 -347 141
-393 159 -400 159 -4 -1 -30 -9 -58 -19z"/>
<path d="M3035 5125 c-46 -14 -144 -65 -126 -65 7 0 25 -8 39 -18 15 -10 68
-33 117 -51 356 -132 643 -367 760 -625 44 -97 56 -152 56 -260 0 -102 -31
-325 -62 -443 -27 -104 -83 -230 -132 -301 -47 -67 -52 -72 -92 -72 -44 0
-127 -42 -159 -81 -29 -34 -29 -34 20 -37 69 -5 109 5 143 33 35 30 47 31 62
4 13 -26 5 -78 -23 -139 -20 -43 -50 -160 -41 -160 13 0 87 44 130 79 42 33
65 64 123 171 96 175 135 261 180 400 91 276 94 561 8 798 -102 281 -417 559
-824 728 -122 50 -133 53 -179 39z"/>
<path d="M3000 4832 c-97 -52 -92 -46 -56 -66 17 -11 72 -40 123 -66 242 -126
395 -277 523 -515 52 -97 76 -125 106 -125 34 0 47 33 41 104 -18 220 -258
496 -564 650 -81 40 -123 45 -173 18z"/>
<path d="M3031 4523 c-8 -3 -29 -16 -47 -28 -38 -26 -48 -12 113 -147 115 -97
220 -245 275 -386 39 -98 48 -217 25 -309 -17 -65 -75 -190 -101 -215 -12 -13
-2 -15 81 -17 95 -2 95 -2 135 40 111 117 161 369 96 479 -68 114 -244 364
-299 424 -92 100 -183 166 -228 165 -20 0 -42 -3 -50 -6z"/>
<path d="M3050 3955 c0 -5 5 -17 10 -25 5 -8 10 -10 10 -5 0 6 -5 17 -10 25
-5 8 -10 11 -10 5z"/>
<path d="M3071 3894 c0 -11 3 -14 6 -6 3 7 2 16 -1 19 -3 4 -6 -2 -5 -13z"/>
<path d="M5436 2380 c-22 -34 -53 -137 -43 -146 5 -5 71 80 88 114 13 25 16
40 8 53 -14 27 -23 24 -53 -21z"/>
</g>
</svg>
