<?xml version="1.0" standalone="no"?>
<!DOCTYPE svg PUBLIC "-//W3C//DTD SVG 20010904//EN"
 "http://www.w3.org/TR/2001/REC-SVG-20010904/DTD/svg10.dtd">
<svg version="1.0" xmlns="http://www.w3.org/2000/svg"
 width="1000.000000pt" height="1000.000000pt" viewBox="0 0 1000.000000 1000.000000"
 preserveAspectRatio="xMidYMid meet">
<metadata>
  <rdf:RDF
    xmlns:rdf = "http://www.w3.org/1999/02/22-rdf-syntax-ns#"
    xmlns:rdfs = "http://www.w3.org/2000/01/rdf-schema#"
    xmlns:dc = "http://purl.org/dc/elements/1.1/"
    xmlns:cc = "http://creativecommons.org/ns#">
    <cc:license rdf:resource="http://creativecommons.org/publicdomain/zero/1.0/deed.en"/>
    <cc:permits rdf:resource="http://creativecommons.org/ns#Reproduction"/>
    <rdf:Description about="https://nft.mir.one/fingerprints"
      dc:title="TON Fingerprints"
      dc:description="This is a unique digital fingerprint created based on the algorithm for generating basic rings using a noise texture. Like human fingerprints, you can now use it for the Web3 and Metaverse era as digital biometric information."
      dc:publisher="https://nft.mir.one"
      dc:date="2022-02-22"
      dc:format="image/svg+xml"
      dc:language="en" >
      <dc:creator>
      <rdf:Bag>
        <rdf:li>EQBondcvD2_aOFADXSWJHs4ZazQDuEl9_wNvGGPxI8hGuOFU</rdf:li>
        <rdf:li>ipfs://bafkreihj7iub3fhmhq6jn62noukt5wxn3gv6bvcg7wmt6ywvlurefezckq</rdf:li>
      </rdf:Bag>
      </dc:creator>
    </rdf:Description>
  </rdf:RDF>
</metadata>
<g transform="translate(0.000000,1000.000000) scale(0.100000,-0.100000)"
fill="#1b1f23" stroke="none">
<path d="M4681 7761 c46 -62 -15 -108 -188 -140 -153 -29 -230 -54 -348 -114
-55 -28 -128 -60 -162 -72 -63 -22 -63 -22 -10 -29 54 -6 119 8 249 53 32 11
121 32 199 46 158 29 223 51 277 92 33 25 45 28 107 27 39 0 133 -10 210 -23
183 -29 578 -41 716 -20 50 7 87 14 83 16 -49 14 -333 59 -504 79 -118 13
-262 33 -320 44 -58 10 -140 24 -183 29 -42 6 -93 17 -112 25 -35 15 -35 15
-14 -13z"/>
<path d="M4787 7419 c-125 -18 -478 -103 -610 -146 -159 -52 -160 -53 -537
-327 -91 -67 -236 -184 -304 -247 -34 -31 158 51 431 185 472 230 701 298
1138 335 284 25 869 0 1245 -52 47 -7 112 -11 144 -9 59 3 59 3 -95 77 -167
79 -321 135 -439 159 -48 9 -190 19 -390 25 -358 12 -500 12 -583 0z"/>
<path d="M3811 7256 c-7 -9 -47 -36 -89 -61 -82 -50 -67 -52 35 -5 39 18 63
36 68 50 9 27 2 35 -14 16z"/>
<path d="M5005 7060 c-479 -26 -771 -101 -1228 -316 -273 -128 -322 -161 -500
-334 -151 -147 -151 -147 -102 -140 54 7 133 45 383 182 243 134 397 204 576
263 305 101 547 134 1026 142 352 6 494 -1 850 -43 213 -25 485 -42 568 -36
44 3 44 3 -15 39 -265 160 -307 176 -553 202 -366 39 -745 55 -1005 41z"/>
<path d="M5035 6694 c-33 -2 -148 -8 -255 -14 -297 -16 -458 -44 -682 -116
-151 -49 -261 -101 -388 -183 -58 -38 -179 -110 -270 -161 -91 -50 -186 -112
-212 -136 -30 -28 -56 -44 -72 -44 -17 0 -44 -18 -83 -55 -58 -56 -58 -56 25
-15 46 22 87 38 92 35 21 -13 8 -54 -45 -145 -68 -116 -209 -393 -198 -388 59
27 133 106 279 298 49 63 114 140 145 171 70 69 184 141 287 181 77 31 77 31
187 18 61 -7 128 -19 150 -26 68 -23 116 -16 342 51 256 76 311 99 320 133 18
74 -113 77 -417 9 -113 -25 -252 -53 -308 -62 -115 -19 -134 -14 -114 29 33
74 498 207 727 208 55 0 195 1 310 2 620 2 771 -1 895 -18 250 -34 371 -67
595 -159 217 -89 450 -150 525 -137 25 4 40 8 35 9 -6 0 -44 31 -85 67 -95 83
-169 128 -256 155 -38 12 -81 28 -96 35 -48 25 -96 74 -103 104 -7 33 -12 35
-185 69 -286 56 -528 81 -845 85 -132 2 -267 2 -300 0z"/>
<path d="M6440 6639 c-31 -13 -60 -39 -60 -54 0 -29 278 -96 351 -85 24 4 39
8 33 9 -6 0 -49 24 -95 52 -74 46 -174 90 -196 88 -5 0 -19 -5 -33 -10z"/>
<path d="M5120 6314 c-80 -9 -189 -27 -253 -41 -53 -12 -82 -26 -131 -63 -80
-62 -148 -95 -319 -159 -181 -67 -245 -97 -343 -159 -45 -28 -142 -81 -215
-118 -74 -36 -186 -94 -249 -129 -63 -34 -136 -70 -162 -80 -51 -19 -98 -14
-98 9 0 41 214 184 447 297 211 104 257 144 198 171 -20 9 -46 8 -121 -5 -185
-33 -341 -114 -476 -248 -63 -61 -85 -91 -113 -155 -28 -61 -53 -96 -110 -154
-82 -84 -128 -163 -123 -213 3 -29 6 -32 32 -30 17 1 64 23 105 49 112 70 187
109 276 144 44 17 184 81 310 142 476 229 587 278 840 376 385 149 470 167
795 167 160 0 243 -5 325 -18 162 -27 356 -80 523 -143 318 -121 621 -215 731
-227 43 -5 43 -5 14 26 -17 18 -51 60 -76 93 -77 102 -138 151 -220 174 -40
11 -198 63 -352 115 -447 151 -576 176 -950 180 -137 2 -266 1 -285 -1z"/>
<path d="M5228 5949 c-260 -25 -650 -152 -1133 -367 -472 -210 -689 -314 -790
-377 -60 -38 -137 -78 -170 -90 -79 -27 -96 -57 -106 -179 -7 -80 -53 -248
-94 -339 -7 -18 -5 -17 33 2 23 12 70 46 104 77 124 111 182 140 328 168 101
19 192 49 435 144 318 123 448 166 1055 341 448 130 658 146 1035 80 169 -29
211 -11 145 64 -111 127 -532 181 -904 117 -325 -56 -819 -219 -1469 -487
-298 -123 -359 -139 -365 -95 -8 55 104 120 508 292 1032 443 1523 545 2015
420 176 -44 259 -88 460 -243 155 -120 272 -239 491 -497 136 -159 198 -223
248 -254 28 -18 29 -18 21 0 -4 11 -25 66 -46 124 -66 174 -112 257 -209 375
-122 148 -159 203 -184 277 -18 52 -30 69 -71 101 -71 54 -411 220 -535 261
-245 80 -533 111 -802 85z"/>
<path d="M6721 5587 c-22 -27 -2 -58 94 -152 50 -49 111 -119 135 -155 50 -76
75 -104 113 -132 29 -21 29 -21 9 18 -24 49 -47 122 -62 196 -12 61 -66 153
-119 203 -26 24 -41 30 -94 33 -48 3 -66 0 -76 -11z"/>
<path d="M6106 5313 c-4 -5 -166 -8 -359 -8 -329 0 -359 -2 -461 -23 -60 -13
-152 -39 -205 -59 -53 -19 -130 -48 -172 -64 -42 -15 -150 -44 -240 -64 -321
-71 -559 -147 -1029 -328 -254 -98 -330 -132 -428 -194 -106 -66 -129 -100
-188 -275 -33 -97 -33 -97 -6 -81 15 10 48 35 75 56 26 22 92 61 147 88 55 27
147 76 204 109 321 185 866 374 1181 410 125 14 221 13 286 -4 72 -19 345
-140 387 -172 17 -14 41 -42 52 -63 40 -79 150 -155 370 -256 485 -221 730
-390 959 -659 60 -70 159 -163 138 -130 -3 6 -13 55 -22 110 -23 146 -40 190
-99 253 -190 202 -484 384 -881 546 -198 80 -363 155 -388 175 -18 15 -19 20
-8 34 25 30 89 18 316 -58 518 -174 789 -325 1056 -588 79 -77 137 -124 144
-116 8 8 -56 231 -79 276 -43 85 -275 259 -438 329 -308 131 -551 213 -753
253 -143 28 -173 38 -185 60 -17 31 22 44 127 43 178 -3 344 -42 617 -144 87
-33 198 -68 247 -79 48 -10 101 -26 117 -34 52 -27 185 -131 277 -216 81 -75
139 -120 156 -120 8 0 -40 154 -77 245 -22 55 -46 88 -117 165 -49 52 -124
140 -165 195 -42 55 -108 130 -146 167 -145 141 -369 262 -410 221z m-215
-163 c203 -20 319 -54 450 -133 128 -77 208 -167 179 -202 -15 -18 -41 -10
-185 63 -216 108 -368 149 -597 159 -152 7 -219 -2 -319 -43 -181 -74 -456
-14 -300 65 43 22 257 71 411 95 54 8 263 5 361 -4z"/>
<path d="M4455 4696 c-398 -86 -851 -280 -987 -423 -15 -16 -71 -109 -126
-208 -104 -186 -127 -212 -152 -166 -16 30 2 86 63 204 40 77 49 102 41 115
-16 26 -46 25 -84 0 -74 -50 -108 -216 -75 -363 9 -43 15 -97 13 -120 -5 -41
-5 -41 41 -35 25 4 57 12 71 18 14 6 70 18 125 26 95 15 112 22 350 141 372
187 592 251 897 262 169 6 232 -3 264 -38 29 -33 4 -44 -99 -45 -80 -1 -104
-6 -183 -37 -50 -19 -133 -45 -185 -57 -254 -60 -310 -74 -403 -107 -56 -19
-219 -92 -363 -163 -214 -105 -264 -133 -276 -156 -19 -38 -37 -124 -37 -179
0 -24 -5 -56 -10 -70 -10 -27 -10 -27 16 -6 15 12 31 21 36 21 5 0 39 24 76
54 210 169 514 317 732 356 35 6 103 12 151 12 95 0 123 -9 236 -80 37 -24
125 -61 214 -91 184 -63 277 -105 349 -160 72 -54 257 -263 327 -369 102 -155
195 -375 208 -494 9 -79 27 -168 34 -168 9 0 60 104 82 169 34 97 27 142 -42
282 -72 147 -139 252 -259 404 -95 122 -119 170 -100 205 14 27 28 19 111 -67
105 -108 187 -209 260 -320 73 -111 202 -342 214 -383 4 -14 16 -37 26 -52 11
-14 19 -32 19 -39 0 -24 13 1 41 82 16 46 29 95 29 109 0 14 -16 50 -36 80
-20 30 -60 96 -89 145 -89 150 -154 235 -259 340 -120 120 -179 160 -254 175
-40 8 -79 26 -127 59 -139 95 -214 121 -447 151 -161 22 -288 54 -295 76 -2 7
3 19 12 28 13 13 38 16 124 16 71 0 142 7 207 21 121 26 169 22 353 -27 87
-23 156 -35 195 -35 104 1 186 -18 281 -63 217 -103 440 -329 560 -566 23 -47
46 -96 50 -109 4 -14 20 -42 35 -62 27 -38 27 -38 40 66 14 113 9 209 -14 253
-31 60 -158 211 -252 302 -190 182 -347 269 -698 390 -262 90 -386 141 -451
184 -108 72 -130 79 -268 86 -118 7 -133 10 -189 40 -61 32 -61 32 -162 15
-202 -34 -447 -119 -621 -216 -49 -27 -150 -92 -224 -144 -131 -92 -184 -120
-202 -109 -30 18 21 93 148 215 191 184 382 279 820 406 210 61 236 66 328 67
109 1 91 7 245 -84 133 -78 439 -233 590 -300 263 -115 458 -212 550 -275 185
-126 354 -290 475 -460 72 -102 138 -168 131 -132 -3 12 -7 58 -10 103 -12
169 -36 215 -194 371 -178 177 -335 279 -711 465 -230 113 -338 173 -445 246
-155 105 -271 167 -391 208 -117 39 -295 44 -450 10z m379 -712 c27 -10 18
-34 -19 -50 -41 -17 -111 -19 -121 -3 -14 23 26 43 118 58 3 1 13 -2 22 -5z"/>
<path d="M4645 4443 c-54 -14 -86 -63 -49 -77 26 -10 164 -7 185 4 10 6 19 20
19 31 0 35 -87 59 -155 42z"/>
<path d="M5533 3674 c-23 -10 -13 -50 20 -81 17 -16 68 -54 112 -84 219 -149
440 -452 471 -648 8 -53 18 -58 48 -28 29 30 49 94 50 162 1 132 -200 409
-409 563 -113 83 -247 136 -292 116z"/>
<path d="M4192 3569 c-164 -27 -354 -122 -534 -265 -82 -66 -90 -87 -92 -244
-1 -117 -1 -117 29 -96 17 11 100 89 185 172 89 86 181 166 215 187 161 96
413 127 480 60 30 -29 -8 -49 -145 -76 -69 -14 -151 -35 -183 -47 -128 -49
-207 -147 -132 -166 12 -3 80 10 151 30 193 53 397 96 457 96 73 0 157 -24
252 -70 112 -56 184 -116 259 -217 36 -49 92 -114 125 -146 99 -96 181 -255
181 -353 0 -32 5 -46 17 -51 23 -9 79 55 93 108 16 57 -6 137 -73 273 -27 56
-58 127 -68 159 -25 82 -49 112 -142 185 -45 34 -113 87 -152 118 -84 66 -204
129 -357 188 -62 24 -157 66 -210 94 -131 67 -223 83 -356 61z m1092 -590 c35
-28 51 -58 37 -72 -24 -24 -104 54 -86 83 9 15 19 12 49 -11z"/>
<path d="M4290 3034 c-69 -14 -177 -29 -241 -33 -103 -6 -121 -10 -157 -34
-59 -38 -70 -86 -56 -238 7 -67 7 -67 43 -46 20 11 52 35 71 52 47 43 97 72
166 96 129 44 194 54 354 54 164 0 227 -13 334 -67 153 -77 312 -242 440 -454
26 -43 57 -93 70 -110 22 -30 22 -30 44 20 28 63 27 70 -2 150 -36 99 -141
248 -263 372 -117 119 -208 185 -318 230 -64 25 -83 28 -215 31 -123 2 -164
-1 -270 -23z"/>
<path d="M4310 2743 c-41 -7 -124 -34 -147 -49 -37 -23 -55 -71 -59 -156 -4
-78 -4 -78 65 -28 38 28 85 57 105 65 88 37 190 -3 125 -49 -35 -24 -49 -53
-63 -125 -13 -70 -13 -70 39 -25 29 25 67 65 85 89 52 69 120 82 232 44 121
-41 207 -123 304 -292 14 -25 24 -35 24 -24 0 10 9 35 19 55 28 56 36 122 18
164 -37 89 -219 241 -345 288 -106 41 -296 61 -402 43z"/>
</g>
</svg>
