<?xml version="1.0" standalone="no"?>
<!DOCTYPE svg PUBLIC "-//W3C//DTD SVG 20010904//EN"
 "http://www.w3.org/TR/2001/REC-SVG-20010904/DTD/svg10.dtd">
<svg version="1.0" xmlns="http://www.w3.org/2000/svg"
 width="1000.000000pt" height="1000.000000pt" viewBox="0 0 1000.000000 1000.000000"
 preserveAspectRatio="xMidYMid meet">
<metadata>
  <rdf:RDF
    xmlns:rdf = "http://www.w3.org/1999/02/22-rdf-syntax-ns#"
    xmlns:rdfs = "http://www.w3.org/2000/01/rdf-schema#"
    xmlns:dc = "http://purl.org/dc/elements/1.1/"
    xmlns:cc = "http://creativecommons.org/ns#">
    <cc:license rdf:resource="http://creativecommons.org/publicdomain/zero/1.0/deed.en"/>
    <cc:permits rdf:resource="http://creativecommons.org/ns#Reproduction"/>
    <rdf:Description about="https://nft.mir.one/fingerprints"
      dc:title="TON Fingerprints"
      dc:description="This is a unique digital fingerprint created based on the algorithm for generating basic rings using a noise texture. Like human fingerprints, you can now use it for the Web3 and Metaverse era as digital biometric information."
      dc:publisher="https://nft.mir.one"
      dc:date="2022-02-22"
      dc:format="image/svg+xml"
      dc:language="en" >
      <dc:creator>
      <rdf:Bag>
        <rdf:li>EQBondcvD2_aOFADXSWJHs4ZazQDuEl9_wNvGGPxI8hGuOFU</rdf:li>
        <rdf:li>ipfs://bafkreihj7iub3fhmhq6jn62noukt5wxn3gv6bvcg7wmt6ywvlurefezckq</rdf:li>
      </rdf:Bag>
      </dc:creator>
    </rdf:Description>
  </rdf:RDF>
</metadata>
<g transform="translate(0.000000,1000.000000) scale(0.100000,-0.100000)"
fill="#1b1f23" stroke="none">
<path d="M4658 7715 c-47 -8 -112 -21 -143 -29 -56 -14 -457 -177 -452 -183 5
-5 141 34 302 87 189 61 269 73 475 73 258 0 418 -30 572 -108 49 -25 145 -65
212 -90 178 -64 267 -100 348 -141 215 -108 363 -251 344 -330 -4 -13 -13 -24
-21 -24 -7 0 -47 26 -87 58 -108 86 -152 114 -267 172 -125 62 -309 125 -414
142 -69 10 -84 9 -164 -10 -70 -17 -120 -22 -228 -22 -403 -1 -707 -51 -1096
-181 -185 -62 -285 -111 -449 -220 -68 -46 -145 -97 -170 -112 -45 -29 -45
-29 5 -22 28 4 151 46 275 95 602 237 878 294 1495 307 261 5 311 4 385 -11
136 -28 242 -68 439 -165 156 -78 190 -91 232 -91 66 0 93 -16 169 -96 118
-127 258 -329 339 -492 50 -99 100 -261 107 -343 10 -119 -45 -322 -94 -348
-27 -14 -40 -1 -57 56 -8 27 -37 80 -65 117 -27 37 -66 98 -86 134 -145 261
-360 479 -545 552 -33 14 -94 25 -164 31 -60 5 -162 18 -225 29 -146 26 -306
36 -343 21 -23 -9 -28 -16 -25 -38 4 -39 58 -56 302 -98 262 -46 342 -67 440
-114 215 -104 433 -343 500 -546 22 -68 93 -147 160 -179 29 -14 57 -31 63
-38 26 -32 46 -167 51 -338 3 -134 -1 -219 -17 -365 -33 -295 -25 -404 33
-471 22 -27 22 -27 112 63 101 101 114 129 159 328 32 142 31 158 -5 65 -78
-206 -140 -330 -164 -330 -32 0 -34 73 -7 198 71 319 83 674 41 1159 -25 277
-142 559 -379 913 -58 85 -135 200 -171 255 -148 222 -387 389 -776 543 -310
123 -397 142 -664 148 -137 2 -221 -1 -282 -11z"/>
<path d="M4680 7540 c-268 -37 -639 -181 -930 -360 -82 -51 -150 -94 -150 -95
0 -6 150 45 245 83 220 87 548 183 742 217 139 24 360 34 543 25 175 -9 213
-6 231 16 9 11 8 19 -7 36 -47 53 -172 77 -419 83 -104 2 -219 0 -255 -5z"/>
<path d="M5004 7059 c-364 -17 -641 -66 -939 -164 -146 -49 -467 -171 -530
-203 -64 -32 -185 -113 -255 -171 -30 -25 -59 -48 -64 -52 -5 -4 11 -5 35 -2
52 7 163 46 514 181 379 146 579 202 835 236 304 41 778 51 944 22 193 -35
323 -90 426 -182 32 -28 107 -85 167 -125 216 -147 376 -338 503 -602 65 -134
92 -165 117 -131 20 28 16 95 -13 186 -89 284 -319 585 -549 720 -475 278
-629 315 -1191 287z"/>
<path d="M5055 6799 c-413 -22 -506 -31 -625 -55 -256 -51 -483 -132 -973
-345 -137 -59 -238 -164 -370 -383 -77 -127 -77 -127 -19 -87 32 21 64 47 72
56 25 30 152 131 225 177 234 152 625 328 907 409 208 60 303 70 593 63 245
-5 265 -5 340 16 153 41 257 37 513 -16 124 -26 168 -26 179 2 14 37 -90 98
-232 134 -157 40 -287 46 -610 29z"/>
<path d="M4485 6514 c-342 -73 -777 -271 -1061 -484 -111 -83 -228 -200 -272
-272 -74 -123 -159 -374 -207 -614 -21 -102 -25 -147 -23 -280 1 -159 1 -159
8 -34 8 132 11 142 106 370 110 263 278 507 455 661 319 277 772 492 1193 565
93 16 113 12 102 -23 -10 -30 -66 -56 -281 -128 -701 -234 -1149 -631 -1334
-1184 -49 -146 -65 -254 -65 -436 1 -538 212 -1025 588 -1357 146 -129 165
-140 263 -149 82 -7 93 -12 351 -137 282 -138 375 -173 512 -193 159 -23 427
10 691 86 189 55 275 99 305 157 14 28 14 32 0 47 -24 23 -79 19 -301 -22
-605 -113 -722 -110 -1074 27 -492 192 -610 261 -767 444 -273 320 -416 730
-384 1101 35 396 173 709 425 965 206 210 456 375 740 489 167 67 443 154 511
162 83 9 198 -9 372 -57 132 -38 157 -41 246 -40 119 3 175 -11 301 -76 103
-53 200 -124 335 -246 104 -93 149 -122 174 -113 85 33 -191 340 -414 460 -97
53 -197 83 -391 117 -215 38 -227 41 -369 97 -111 44 -120 46 -245 51 -118 4
-135 7 -184 33 -48 26 -63 29 -145 28 -50 0 -122 -7 -161 -15z"/>
<path d="M4915 6133 c-72 -11 -230 -55 -311 -87 -289 -111 -481 -235 -710
-458 -261 -254 -326 -377 -418 -800 -64 -290 -61 -397 20 -631 74 -212 206
-437 338 -575 140 -146 292 -231 581 -326 246 -80 317 -97 437 -103 102 -6
113 -4 200 25 100 34 213 46 533 59 120 4 162 2 211 -11 89 -23 124 -20 226
19 181 70 446 236 576 359 40 39 42 42 42 102 0 45 6 72 24 105 46 86 285 423
345 488 27 29 27 29 -62 30 -49 1 -98 6 -107 11 -15 8 -24 3 -48 -28 -45 -56
-167 -222 -266 -361 -110 -153 -188 -237 -290 -313 -168 -125 -335 -181 -594
-198 -170 -12 -310 -6 -410 16 -70 16 -291 111 -422 181 -105 56 -188 114
-455 316 -337 255 -377 303 -538 639 -85 179 -91 195 -95 267 -10 196 78 397
222 507 39 29 106 94 149 144 168 194 386 343 615 419 221 74 450 68 618 -17
152 -77 399 -256 525 -382 113 -113 180 -203 239 -325 56 -114 84 -216 101
-360 12 -110 30 -165 53 -165 25 0 64 57 75 110 23 107 8 262 -38 394 -74 210
-272 429 -601 663 -63 45 -140 103 -170 128 -116 97 -278 153 -460 160 -58 2
-118 1 -135 -2z m-1261 -1526 c8 -12 34 -76 56 -142 50 -144 123 -290 190
-378 40 -53 58 -68 97 -82 26 -9 67 -25 89 -35 63 -28 315 -223 431 -332 112
-107 128 -116 317 -199 147 -64 199 -100 194 -132 -3 -20 -9 -22 -63 -20 -66
1 -212 36 -348 82 -49 17 -116 33 -150 36 -144 14 -264 62 -390 156 -134 101
-177 160 -306 419 -147 296 -203 470 -188 581 9 67 43 89 71 46z"/>
<path d="M3960 3889 c0 -47 26 -92 93 -160 100 -100 301 -229 358 -229 51 0
63 30 29 73 -11 14 -64 58 -118 98 -53 40 -135 104 -182 144 -109 91 -129 105
-157 105 -19 0 -23 -5 -23 -31z"/>
<path d="M5574 6086 c-11 -29 19 -58 150 -145 189 -127 323 -236 466 -380 163
-164 219 -260 254 -433 20 -99 21 -277 0 -375 -53 -257 -206 -553 -355 -687
-173 -155 -361 -232 -594 -243 -264 -12 -555 83 -850 277 -271 179 -441 370
-529 594 -45 111 -56 186 -56 369 0 175 -6 207 -41 207 -74 0 -149 -213 -135
-384 15 -176 126 -415 274 -592 82 -98 287 -264 497 -402 194 -128 438 -233
623 -268 131 -24 383 -15 512 19 224 59 393 170 550 362 112 136 202 298 229
409 26 106 53 360 58 542 7 230 -7 316 -67 439 -51 105 -113 173 -224 247 -50
34 -145 106 -210 161 -143 120 -291 218 -395 264 -81 35 -148 43 -157 19z"/>
<path d="M4931 5859 c-207 -27 -422 -139 -576 -301 -142 -148 -171 -236 -162
-487 7 -208 52 -358 148 -497 215 -312 716 -575 1104 -577 135 -1 206 16 332
79 216 108 376 308 390 489 5 55 2 65 -30 118 -19 31 -45 94 -56 140 -82 314
-152 455 -310 620 -92 96 -176 160 -373 282 -203 127 -304 156 -467 134z m247
-149 c40 -18 54 -42 32 -55 -6 -4 -52 -11 -103 -15 -123 -12 -210 -40 -298
-98 -149 -97 -255 -248 -281 -400 -33 -197 64 -402 228 -483 58 -29 71 -31
132 -27 166 12 310 169 288 312 -16 95 -110 190 -190 191 -48 0 -86 -39 -86
-88 0 -38 7 -50 39 -66 20 -11 27 -10 54 9 29 22 31 22 44 5 45 -62 -34 -165
-127 -165 -68 0 -159 75 -179 147 -33 119 19 263 117 325 28 17 37 18 62 8 20
-8 53 -10 97 -6 190 18 201 18 256 2 114 -33 225 -146 278 -284 76 -199 -4
-443 -217 -655 -76 -76 -105 -91 -179 -91 -75 0 -136 29 -169 82 -21 33 -32
40 -82 51 -173 39 -317 139 -416 290 -124 189 -143 458 -46 652 78 156 291
319 476 364 87 21 218 19 270 -5z m263 -197 c79 -39 110 -62 190 -142 151
-150 212 -272 287 -571 47 -191 49 -272 7 -349 -34 -61 -74 -91 -123 -91 -27
0 -47 -12 -99 -60 -75 -68 -157 -111 -225 -118 -107 -10 -128 23 -50 85 107
86 147 137 196 250 26 59 60 124 75 143 45 56 51 75 51 148 0 92 -31 209 -82
312 -57 114 -172 232 -273 280 -59 29 -84 34 -159 38 -105 5 -175 -8 -269 -51
-76 -34 -93 -28 -75 24 19 54 93 93 237 124 166 36 201 34 312 -22z"/>
<path d="M5102 5228 c-20 -20 -14 -34 26 -63 106 -79 151 -150 160 -251 9
-119 -58 -255 -166 -337 -92 -69 -142 -120 -144 -147 -3 -24 0 -25 55 -28 116
-6 224 59 310 184 130 190 128 398 -6 550 -66 75 -200 127 -235 92z"/>
<path d="M5775 4630 c-47 -52 -63 -240 -20 -240 20 0 63 56 75 98 28 100 -8
194 -55 142z"/>
<path d="M2923 4585 c0 -22 2 -30 4 -17 2 12 2 30 0 40 -3 9 -5 -1 -4 -23z"/>
<path d="M6895 3887 c-64 -51 -195 -187 -195 -203 0 -25 47 -15 79 17 24 23
166 221 158 218 -1 0 -20 -14 -42 -32z"/>
<path d="M3100 3816 c0 -16 126 -260 177 -343 113 -181 252 -352 453 -554 188
-188 357 -297 478 -307 47 -4 52 -3 52 16 0 26 -36 53 -162 121 -114 63 -213
139 -281 218 -28 32 -134 144 -237 248 -233 237 -366 401 -447 550 -18 33 -33
56 -33 51z"/>
<path d="M6657 3364 c-26 -7 -94 -41 -150 -76 -56 -35 -169 -102 -252 -150
-82 -47 -212 -125 -288 -173 -213 -134 -295 -170 -542 -235 -297 -79 -501
-104 -655 -81 -91 14 -184 57 -365 172 -220 139 -436 259 -467 259 -36 0 -44
-20 -24 -58 21 -41 71 -83 218 -179 82 -54 145 -104 175 -139 32 -37 71 -68
116 -91 160 -84 98 -119 -225 -125 -69 -2 -121 -6 -115 -9 7 -4 59 -19 117
-35 105 -29 105 -29 405 -26 406 3 503 15 637 73 38 16 153 52 257 79 103 27
224 63 267 80 264 104 560 320 827 604 65 69 117 125 115 125 -2 -1 -25 -7
-51 -15z"/>
<path d="M6039 2575 c-6 -5 -295 -91 -429 -126 -71 -19 -131 -28 -185 -29 -92
0 -121 -6 -129 -26 -3 -9 6 -19 28 -28 46 -19 51 -32 23 -60 -18 -18 -40 -26
-83 -31 -33 -3 -140 -19 -239 -35 -99 -16 -193 -31 -210 -34 -16 -3 38 -3 120
-1 144 4 325 29 389 54 16 6 41 20 56 31 15 11 101 44 191 74 159 52 326 122
439 185 30 17 50 31 44 31 -6 0 -13 -2 -15 -5z"/>
</g>
</svg>
