<?xml version="1.0" standalone="no"?>
<!DOCTYPE svg PUBLIC "-//W3C//DTD SVG 20010904//EN"
 "http://www.w3.org/TR/2001/REC-SVG-20010904/DTD/svg10.dtd">
<svg version="1.0" xmlns="http://www.w3.org/2000/svg"
 width="1000.000000pt" height="1000.000000pt" viewBox="0 0 1000.000000 1000.000000"
 preserveAspectRatio="xMidYMid meet">
<metadata>
  <rdf:RDF
    xmlns:rdf = "http://www.w3.org/1999/02/22-rdf-syntax-ns#"
    xmlns:rdfs = "http://www.w3.org/2000/01/rdf-schema#"
    xmlns:dc = "http://purl.org/dc/elements/1.1/"
    xmlns:cc = "http://creativecommons.org/ns#">
    <cc:license rdf:resource="http://creativecommons.org/publicdomain/zero/1.0/deed.en"/>
    <cc:permits rdf:resource="http://creativecommons.org/ns#Reproduction"/>
    <rdf:Description about="https://nft.mir.one/fingerprints"
      dc:title="TON Fingerprints"
      dc:description="This is a unique digital fingerprint created based on the algorithm for generating basic rings using a noise texture. Like human fingerprints, you can now use it for the Web3 and Metaverse era as digital biometric information."
      dc:publisher="https://nft.mir.one"
      dc:date="2022-02-22"
      dc:format="image/svg+xml"
      dc:language="en" >
      <dc:creator>
      <rdf:Bag>
        <rdf:li>EQBondcvD2_aOFADXSWJHs4ZazQDuEl9_wNvGGPxI8hGuOFU</rdf:li>
        <rdf:li>ipfs://bafkreihj7iub3fhmhq6jn62noukt5wxn3gv6bvcg7wmt6ywvlurefezckq</rdf:li>
      </rdf:Bag>
      </dc:creator>
    </rdf:Description>
  </rdf:RDF>
</metadata>
<g transform="translate(0.000000,1000.000000) scale(0.100000,-0.100000)"
fill="#1b1f23" stroke="none">
<path d="M4626 7722 c120 -67 424 -154 669 -191 203 -31 287 -62 705 -261 118
-56 245 -112 281 -125 37 -13 76 -28 88 -34 49 -26 13 2 -106 87 -301 212
-520 339 -728 423 -70 28 -97 33 -215 40 -74 4 -195 20 -269 34 -74 14 -202
32 -285 40 -83 9 -164 18 -181 21 -21 4 -10 -6 41 -34z"/>
<path d="M4195 7538 c-119 -14 -126 -18 -79 -49 50 -33 492 -169 839 -258 346
-89 394 -104 666 -212 285 -113 320 -134 373 -221 23 -37 91 -123 152 -190
366 -405 592 -716 785 -1085 34 -65 79 -139 98 -164 20 -26 41 -55 48 -65 11
-19 -75 261 -124 401 -41 117 -179 385 -240 467 -153 202 -431 504 -576 625
-91 76 -97 98 -25 97 95 -1 223 -108 498 -415 137 -152 190 -204 273 -269 10
-7 -32 60 -94 151 -235 342 -355 492 -468 581 -86 69 -122 88 -256 138 -55 21
-176 70 -270 109 -240 102 -366 144 -640 212 -132 33 -301 78 -375 99 -74 22
-166 44 -205 50 -83 12 -269 11 -380 -2z"/>
<path d="M3965 7275 c-38 -7 -107 -24 -153 -39 -46 -14 -95 -26 -109 -26 -48
0 62 -49 202 -91 72 -21 202 -66 290 -99 428 -164 473 -176 735 -195 107 -8
215 -20 239 -25 141 -34 308 -126 392 -216 25 -27 84 -108 131 -179 48 -72
150 -210 227 -308 252 -319 325 -458 227 -433 -27 7 -65 50 -258 287 -64 79
-157 191 -207 248 -50 57 -91 106 -92 110 0 3 -1 25 -3 48 -3 52 -43 114 -99
154 -38 27 -213 108 -312 145 -78 29 -165 18 -165 -22 0 -7 26 -32 58 -55 78
-57 136 -114 184 -179 59 -80 111 -132 218 -220 98 -80 179 -164 387 -405 66
-77 162 -178 212 -224 104 -95 146 -152 220 -298 147 -294 227 -582 255 -916
18 -215 38 -253 100 -188 47 49 89 172 94 276 9 204 -93 538 -294 955 -63 133
-113 251 -129 310 -46 165 -104 263 -316 535 -279 357 -330 433 -344 508 -10
51 -65 96 -190 158 -136 66 -241 98 -516 160 -245 54 -380 91 -667 183 -182
59 -205 62 -317 41z m1446 -828 c48 -29 139 -112 139 -126 0 -6 -15 -11 -34
-11 -58 0 -174 106 -159 146 7 19 12 18 54 -9z"/>
<path d="M3615 6942 c-196 -71 -181 -62 -143 -85 18 -11 80 -32 138 -48 308
-82 481 -195 595 -389 27 -47 81 -127 121 -180 82 -108 398 -446 528 -564 113
-102 365 -369 554 -589 82 -94 183 -199 223 -233 81 -66 123 -131 155 -239 24
-81 24 -214 1 -282 -14 -39 -17 -66 -11 -113 6 -51 4 -64 -12 -81 -56 -62
-193 -93 -373 -86 -205 8 -316 46 -555 191 -183 110 -208 122 -516 223 -231
76 -300 103 -365 142 -152 94 -255 118 -463 108 -146 -6 -264 -28 -338 -62
-57 -25 -109 -91 -161 -201 -15 -33 -29 -62 -31 -66 -6 -11 82 19 139 48 138
69 285 104 474 111 146 6 229 -4 273 -33 18 -12 20 -18 12 -34 -14 -27 -56
-37 -225 -55 -161 -17 -250 -34 -360 -66 -113 -34 -142 -53 -185 -122 -86
-139 -83 -124 -31 -116 25 4 85 21 133 38 133 48 221 68 518 117 236 39 287
45 360 39 208 -15 450 -92 586 -186 70 -48 208 -235 253 -342 29 -70 30 -80
28 -198 -2 -117 0 -130 31 -218 18 -52 62 -149 97 -215 59 -113 67 -136 124
-364 40 -159 64 -282 71 -355 6 -62 15 -131 20 -155 6 -23 10 -55 10 -70 1
-27 1 -27 15 6 8 18 35 59 59 90 25 31 57 83 72 116 22 49 25 67 20 111 -12
107 -86 327 -219 657 -41 101 -84 216 -96 256 -12 39 -33 93 -46 119 -36 67
-34 100 10 119 45 19 187 18 251 -1 59 -17 120 -67 162 -131 17 -25 49 -102
71 -172 38 -117 132 -327 163 -362 30 -35 46 -42 67 -30 14 7 21 21 21 41 0
39 -38 153 -91 271 -43 95 -55 157 -31 166 23 7 105 -89 143 -168 44 -90 64
-158 78 -265 16 -116 61 -165 107 -114 15 17 20 39 22 114 5 116 -13 190 -73
311 -55 109 -119 184 -229 266 -158 119 -196 171 -144 199 38 21 132 5 195
-33 77 -46 135 -113 234 -274 111 -178 127 -211 146 -298 26 -124 6 -237 -62
-348 -48 -77 -57 -132 -35 -199 16 -46 19 -49 25 -28 4 13 41 76 81 140 40 65
81 134 92 155 40 80 91 223 117 329 15 61 40 142 57 180 58 137 85 338 68 513
-8 84 -12 99 -40 133 -62 78 -81 133 -131 386 -27 134 -60 283 -74 332 -58
206 -145 413 -225 532 -93 139 -471 568 -676 769 -193 189 -377 402 -408 473
-25 54 -41 67 -92 67 -28 0 -54 -30 -54 -63 0 -62 187 -297 487 -608 287 -299
514 -574 600 -727 52 -92 104 -224 147 -372 44 -154 60 -230 92 -440 33 -218
45 -266 120 -455 81 -207 91 -258 70 -356 -9 -41 -17 -94 -18 -119 -3 -37 -7
-46 -24 -48 -26 -4 -68 31 -122 101 -73 95 -64 166 13 98 37 -32 70 -40 77
-19 11 31 -10 66 -77 132 -79 78 -227 291 -246 356 -10 32 -9 55 5 123 25 129
30 204 17 302 -14 106 -83 408 -117 516 -59 183 -225 407 -594 799 -261 278
-283 302 -366 405 -44 55 -104 136 -134 180 -89 135 -119 159 -241 190 -62 16
-107 38 -333 163 -60 33 -168 84 -240 113 -168 68 -224 73 -341 31z m931 -484
c21 -18 78 -85 128 -148 120 -151 209 -252 446 -505 306 -326 433 -476 534
-632 61 -95 88 -159 84 -202 -6 -67 -34 -48 -136 89 -184 247 -306 386 -657
750 -372 386 -512 578 -477 655 15 33 34 32 78 -7z"/>
<path d="M5726 6787 c-25 -19 -15 -35 109 -182 258 -305 435 -539 522 -690 48
-83 324 -660 381 -795 75 -178 123 -323 198 -587 20 -73 40 -133 44 -133 4 0
20 -12 35 -27 28 -28 28 -28 22 -3 -3 14 -11 102 -17 195 -27 423 -79 617
-247 935 -243 457 -384 662 -731 1064 -139 159 -187 204 -245 225 -37 14 -49
14 -71 -2z"/>
<path d="M3445 6644 c-22 -8 -70 -30 -107 -49 -37 -19 -75 -35 -84 -35 -38 0
77 -48 141 -59 97 -16 192 -43 393 -108 197 -65 224 -65 230 -4 3 28 -3 39
-40 75 -56 53 -177 116 -311 161 -113 38 -160 42 -222 19z"/>
<path d="M3310 6329 c-25 -11 -80 -43 -123 -72 -77 -51 -77 -51 -35 -64 24 -7
66 -13 93 -13 112 0 347 -50 534 -114 145 -49 261 -114 386 -216 61 -50 187
-152 280 -227 206 -166 285 -235 432 -371 123 -114 479 -487 566 -594 93 -113
197 -255 197 -268 0 -9 -14 -11 -46 -7 -57 6 -92 34 -204 159 -140 158 -463
488 -595 608 -151 137 -282 238 -439 337 -141 88 -197 132 -285 226 -71 75
-167 143 -263 186 -179 81 -490 154 -582 137 -19 -4 -69 -29 -110 -56 -42 -28
-82 -50 -89 -51 -7 0 2 -7 20 -14 17 -8 92 -21 165 -30 74 -8 179 -26 234 -40
296 -71 554 -210 503 -271 -17 -20 -55 -17 -134 12 -309 114 -452 155 -603
170 -64 7 -99 -6 -195 -72 -48 -33 -48 -33 -11 -49 20 -8 53 -15 73 -15 53 0
212 -27 321 -55 166 -42 329 -104 479 -182 145 -75 145 -75 206 -67 137 18
207 2 344 -83 122 -76 216 -156 436 -372 116 -113 264 -256 328 -316 103 -97
117 -114 117 -143 0 -26 -4 -32 -20 -32 -44 0 -183 88 -350 221 -97 77 -157
138 -224 226 -128 170 -476 410 -581 401 -37 -3 -40 -6 -43 -35 -5 -48 55
-106 232 -225 200 -134 263 -183 281 -218 22 -43 19 -50 -24 -50 -47 0 -174
63 -428 214 -100 59 -206 117 -235 128 -41 16 -103 24 -280 36 -227 15 -227
15 -256 -16 -37 -40 -86 -52 -210 -52 -111 0 -125 -4 -214 -66 -48 -32 -48
-32 0 -48 26 -8 88 -23 139 -32 84 -15 102 -15 232 0 336 38 461 17 771 -132
197 -94 307 -136 449 -171 131 -33 173 -52 366 -165 186 -110 212 -118 385
-127 80 -4 174 -12 210 -19 87 -15 191 2 203 34 3 7 -3 32 -13 54 -15 33 -18
56 -13 109 6 81 -16 149 -77 240 -47 70 -426 489 -605 668 -71 72 -249 241
-394 375 -483 448 -482 447 -627 481 -49 12 -161 41 -249 64 -141 38 -348 85
-372 85 -4 0 -28 -10 -53 -21z"/>
<path d="M3045 5467 c-22 -13 -57 -36 -79 -50 -38 -27 -38 -27 -13 -36 14 -5
63 -15 109 -21 140 -18 187 -30 355 -86 241 -81 373 -85 373 -13 0 22 -9 34
-37 53 -79 51 -462 162 -593 172 -67 5 -79 3 -115 -19z"/>
<path d="M3025 5217 c-22 -13 -57 -35 -78 -49 -37 -26 -37 -26 -5 -37 43 -14
374 -41 416 -34 22 4 32 11 32 23 0 48 -128 105 -259 116 -58 4 -71 2 -106
-19z"/>
<path d="M2961 4716 c-34 -25 -34 -25 -8 -31 30 -8 87 19 87 40 0 23 -42 18
-79 -9z"/>
<path d="M6836 4220 c-40 -48 -91 -225 -126 -435 -17 -104 -40 -230 -51 -280
-11 -49 -22 -130 -25 -180 -5 -90 -5 -90 61 95 141 396 231 771 195 815 -18
21 -25 19 -54 -15z"/>
<path d="M3720 4135 c-273 -33 -490 -87 -527 -129 -22 -26 -93 -142 -93 -153
0 -11 100 5 215 35 253 66 485 83 785 58 447 -36 506 -39 528 -27 49 26 11 84
-83 127 -71 33 -256 79 -370 93 -116 14 -322 12 -455 -4z"/>
<path d="M3590 3794 c-112 -14 -248 -37 -265 -46 -27 -14 -51 -44 -81 -103
-15 -27 -32 -57 -39 -65 -12 -13 -7 -15 38 -14 29 1 95 9 147 19 117 22 395
26 485 7 85 -19 211 -60 270 -90 140 -69 352 -240 434 -349 53 -69 196 -348
249 -483 40 -103 61 -192 72 -307 5 -54 14 -115 20 -135 11 -37 11 -37 64 21
29 32 66 79 81 105 25 43 27 54 22 115 -12 148 -72 321 -135 392 -55 61 -72
104 -72 178 0 50 -6 72 -39 135 -88 171 -162 245 -330 336 -108 57 -177 119
-191 169 -9 36 -14 39 -68 54 -135 38 -288 58 -457 62 -93 2 -186 1 -205 -1z"/>
<path d="M4404 3789 c-35 -10 -68 -42 -62 -59 12 -36 286 -107 365 -95 57 8
88 34 80 67 -8 32 -69 74 -127 87 -54 13 -213 13 -256 0z"/>
<path d="M5270 3535 c-8 -9 -11 -30 -8 -53 6 -40 95 -254 231 -554 114 -251
128 -290 147 -428 6 -41 18 -94 27 -118 16 -43 16 -43 50 15 59 101 115 225
120 264 8 54 -40 150 -117 234 -75 84 -135 184 -196 330 -88 207 -133 284
-185 311 -36 18 -53 18 -69 -1z"/>
<path d="M3480 3444 c-32 -14 -63 -52 -94 -116 -18 -38 -30 -68 -27 -69 3 0
85 -4 181 -9 224 -11 333 -43 480 -143 141 -96 280 -280 319 -422 10 -36 8
-45 -21 -100 -31 -61 -49 -171 -34 -211 6 -15 9 -15 33 7 61 57 83 99 83 161
0 56 1 58 26 58 41 0 90 -59 114 -136 11 -37 20 -76 20 -89 0 -12 4 -35 9 -51
5 -16 12 -41 15 -57 6 -27 6 -27 61 33 29 34 61 81 71 106 17 44 17 46 -10
127 -46 140 -155 340 -262 483 -147 195 -369 346 -594 404 -85 21 -336 38
-370 24z"/>
<path d="M3710 3043 c-30 -11 -61 -48 -71 -86 -7 -25 -17 -41 -30 -44 -15 -4
-10 -10 28 -28 107 -50 226 -164 277 -267 21 -42 26 -46 37 -32 7 9 32 25 56
36 49 23 83 61 83 92 0 72 -152 240 -270 300 -73 36 -83 39 -110 29z"/>
<path d="M4953 3024 c-3 -9 2 -31 11 -51 12 -26 22 -34 39 -31 28 4 34 40 13
74 -19 27 -54 32 -63 8z"/>
</g>
</svg>
