<?xml version="1.0" standalone="no"?>
<!DOCTYPE svg PUBLIC "-//W3C//DTD SVG 20010904//EN"
 "http://www.w3.org/TR/2001/REC-SVG-20010904/DTD/svg10.dtd">
<svg version="1.0" xmlns="http://www.w3.org/2000/svg"
 width="1000.000000pt" height="1000.000000pt" viewBox="0 0 1000.000000 1000.000000"
 preserveAspectRatio="xMidYMid meet">
<metadata>
  <rdf:RDF
    xmlns:rdf = "http://www.w3.org/1999/02/22-rdf-syntax-ns#"
    xmlns:rdfs = "http://www.w3.org/2000/01/rdf-schema#"
    xmlns:dc = "http://purl.org/dc/elements/1.1/"
    xmlns:cc = "http://creativecommons.org/ns#">
    <cc:license rdf:resource="http://creativecommons.org/publicdomain/zero/1.0/deed.en"/>
    <cc:permits rdf:resource="http://creativecommons.org/ns#Reproduction"/>
    <rdf:Description about="https://nft.mir.one/fingerprints"
      dc:title="TON Fingerprints"
      dc:description="This is a unique digital fingerprint created based on the algorithm for generating basic rings using a noise texture. Like human fingerprints, you can now use it for the Web3 and Metaverse era as digital biometric information."
      dc:publisher="https://nft.mir.one"
      dc:date="2022-02-22"
      dc:format="image/svg+xml"
      dc:language="en" >
      <dc:creator>
      <rdf:Bag>
        <rdf:li>EQBondcvD2_aOFADXSWJHs4ZazQDuEl9_wNvGGPxI8hGuOFU</rdf:li>
        <rdf:li>ipfs://bafkreihj7iub3fhmhq6jn62noukt5wxn3gv6bvcg7wmt6ywvlurefezckq</rdf:li>
      </rdf:Bag>
      </dc:creator>
    </rdf:Description>
  </rdf:RDF>
</metadata>
<g transform="translate(0.000000,1000.000000) scale(0.100000,-0.100000)"
fill="#1b1f23" stroke="none">
<path d="M5065 7760 c119 -45 240 -80 279 -80 29 0 17 18 -22 33 -40 16 -355
97 -375 97 -7 0 46 -23 118 -50z"/>
<path d="M4390 7671 c-47 -4 -74 -8 -61 -9 66 -5 500 -99 681 -148 113 -30
256 -64 319 -75 149 -27 226 -51 336 -106 214 -107 408 -257 645 -499 366
-375 518 -621 610 -984 33 -132 50 -170 76 -170 13 0 14 3 5 13 -6 8 -24 72
-40 144 -43 190 -91 327 -180 508 -131 266 -326 532 -570 776 -194 193 -423
356 -621 441 -73 32 -78 33 -205 31 -84 -2 -160 3 -215 13 -330 60 -359 64
-525 68 -93 2 -208 1 -255 -3z"/>
<path d="M4275 7503 c-95 -21 -150 -40 -275 -93 -145 -61 -145 -61 -69 -56 42
3 112 17 155 32 57 18 109 27 184 31 97 5 111 3 180 -22 41 -15 154 -44 250
-65 267 -58 342 -83 384 -129 15 -17 16 -23 6 -36 -18 -21 -47 -19 -227 16
-227 43 -309 47 -419 19 -114 -29 -243 -25 -318 10 -38 17 -59 21 -93 16 -67
-9 -183 -51 -330 -119 -134 -62 -134 -62 -91 -67 24 -3 95 3 158 13 91 14 195
19 495 22 380 4 380 4 530 -27 135 -27 160 -29 250 -22 55 4 127 8 160 7 240
-2 738 -281 1059 -593 209 -203 339 -392 473 -689 37 -84 41 -97 28 -110 -13
-13 -18 -13 -42 5 -27 19 -52 55 -221 316 -165 257 -399 471 -653 598 -42 22
-118 64 -169 95 -129 78 -217 121 -318 155 -109 36 -186 48 -379 58 -153 8
-153 8 -185 40 -65 62 -92 67 -398 65 -466 -4 -647 -25 -781 -92 -76 -39 -192
-115 -264 -176 -30 -25 -30 -25 10 -19 22 3 74 16 115 30 166 53 381 93 600
113 155 14 482 31 608 31 96 0 102 -1 102 -20 0 -27 -48 -55 -118 -69 -31 -6
-172 -20 -313 -31 -513 -40 -800 -102 -944 -205 -59 -42 -289 -264 -281 -272
7 -7 79 24 226 96 300 148 508 198 1022 246 146 13 310 31 364 39 275 41 433
24 631 -69 156 -73 250 -186 198 -239 -20 -19 -39 -13 -195 62 -261 127 -383
138 -950 91 -510 -43 -770 -107 -1046 -260 -160 -89 -250 -205 -389 -506 -43
-91 -43 -91 23 -20 221 240 350 346 539 441 114 57 173 80 288 111 278 75 922
115 1155 72 202 -38 472 -150 562 -235 112 -104 194 -266 268 -529 63 -220 71
-300 41 -397 -11 -37 -21 -81 -21 -97 0 -55 -22 -130 -47 -159 -41 -49 -55
-38 -86 67 -14 49 -47 122 -87 189 -35 60 -86 147 -113 194 -167 287 -353 429
-648 496 -103 24 -385 24 -489 1 -227 -51 -539 -281 -735 -542 -167 -222 -212
-323 -260 -580 -51 -269 -44 -401 31 -616 40 -115 135 -312 199 -409 90 -140
206 -241 360 -315 163 -79 342 -108 655 -108 238 -1 323 11 600 78 168 41 197
45 307 45 104 0 132 4 188 24 272 99 650 488 827 852 44 89 52 115 56 179 5
86 -9 132 -43 141 -50 12 -57 1 -166 -250 -117 -271 -336 -548 -559 -705 -157
-110 -330 -172 -330 -117 0 19 46 57 173 140 138 91 290 231 382 354 78 104
142 227 236 447 39 94 82 195 95 225 48 114 41 196 -37 451 -108 349 -248 606
-327 597 -37 -4 -33 -27 27 -175 114 -279 161 -551 132 -753 -18 -118 -135
-521 -177 -605 -78 -158 -211 -298 -467 -491 -100 -76 -211 -151 -247 -167
-163 -74 -432 -114 -690 -103 -356 16 -582 87 -740 233 -80 74 -110 124 -110
182 0 60 21 59 88 -2 114 -104 278 -188 446 -227 165 -38 556 -61 691 -40 208
32 431 141 641 315 221 182 371 432 301 502 -15 16 -18 15 -38 -3 -12 -10 -44
-53 -72 -94 -112 -166 -227 -287 -354 -372 -66 -43 -263 -134 -380 -175 -102
-35 -236 -40 -259 -8 -19 26 -7 36 91 69 44 16 132 55 195 88 92 48 128 61
183 68 115 13 214 93 391 314 90 113 123 147 166 170 46 25 56 37 81 92 37 82
83 246 99 355 8 56 11 139 7 235 -4 125 -10 168 -37 269 -62 234 -64 242 -51
299 12 51 12 52 -34 149 -26 55 -53 131 -62 175 -10 50 -33 109 -64 170 -48
90 -58 132 -40 161 16 25 65 5 196 -81 176 -116 268 -190 348 -283 83 -96 337
-472 378 -560 33 -69 56 -170 61 -260 3 -50 0 -60 -14 -63 -28 -5 -65 43 -100
132 -112 278 -281 545 -457 726 -85 87 -133 120 -174 120 -77 0 -31 -102 114
-255 149 -157 221 -273 328 -523 114 -267 161 -343 236 -387 45 -27 45 -27 45
-128 1 -163 33 -277 79 -277 27 0 89 74 121 144 36 78 95 267 115 364 15 74
45 321 45 372 -1 25 -24 -34 -75 -190 -45 -139 -144 -269 -215 -285 -39 -9
-50 0 -50 38 1 65 18 110 54 141 76 66 104 217 72 387 -10 55 -14 107 -10 145
7 70 -14 160 -76 319 -108 274 -355 588 -670 853 -234 195 -445 319 -715 417
-71 27 -164 63 -205 82 -117 53 -259 97 -457 142 -162 37 -194 41 -305 40 -67
-1 -132 -3 -143 -6z m626 -1852 c191 -49 369 -182 486 -364 24 -37 80 -142
125 -233 69 -143 86 -169 120 -192 86 -58 91 -65 96 -125 7 -89 -24 -174 -117
-313 -88 -132 -186 -247 -274 -324 -60 -51 -84 -61 -93 -36 -8 22 22 72 107
178 103 129 153 204 197 295 42 90 53 169 28 208 -34 51 -64 24 -136 -127 -60
-126 -134 -240 -255 -396 -98 -125 -141 -165 -265 -242 -47 -29 -110 -76 -141
-105 -71 -68 -121 -80 -299 -72 -152 7 -234 27 -433 107 -129 52 -157 60 -214
60 -65 0 -67 1 -105 43 -126 136 -227 390 -198 497 22 81 58 61 121 -67 113
-230 214 -317 481 -417 131 -48 220 -66 337 -66 149 0 251 35 426 147 146 94
334 320 419 504 107 233 109 326 9 529 -38 77 -61 110 -127 176 -134 133 -275
189 -461 182 -134 -5 -181 -28 -308 -151 -157 -153 -212 -257 -212 -407 0 -73
4 -94 29 -148 94 -204 353 -263 514 -117 106 95 115 254 20 352 -47 48 -89 59
-145 38 -52 -20 -83 -63 -83 -116 0 -67 70 -105 103 -56 21 30 51 12 55 -33 7
-67 -84 -123 -165 -101 -158 43 -191 248 -64 393 37 42 111 91 161 106 35 11
221 26 292 24 114 -4 241 -138 283 -297 50 -195 -45 -439 -248 -631 -87 -83
-182 -142 -293 -181 -72 -25 -91 -28 -214 -27 -124 0 -142 3 -223 31 -125 44
-235 114 -320 203 -87 90 -215 276 -239 345 -32 93 -17 226 42 368 92 222 329
472 518 546 44 18 81 22 209 25 85 3 158 8 161 11 12 13 215 -4 293 -24z"/>
<path d="M4291 5545 c-90 -40 -238 -173 -310 -278 -17 -26 -47 -80 -66 -120
-117 -248 -77 -465 125 -668 70 -71 101 -94 170 -127 47 -22 110 -46 140 -53
84 -20 222 -16 305 9 191 58 365 227 424 410 32 98 27 230 -11 313 -45 99
-138 180 -188 164 -30 -9 -25 -49 14 -119 73 -131 84 -249 33 -360 -36 -77
-72 -122 -139 -172 -150 -110 -359 -116 -519 -13 -143 91 -232 273 -214 433
18 148 81 261 232 418 97 100 114 122 111 145 -3 24 -8 28 -38 30 -19 2 -50
-4 -69 -12z"/>
<path d="M4190 7322 c-22 -11 -35 -24 -35 -37 0 -14 10 -21 35 -27 41 -10 197
0 223 13 28 16 21 46 -14 58 -50 17 -168 14 -209 -7z"/>
<path d="M4470 6203 c-416 -32 -536 -45 -614 -68 -331 -96 -663 -371 -743
-617 -30 -90 -40 -158 -58 -393 -26 -350 -18 -657 25 -875 63 -328 212 -666
398 -905 128 -166 238 -257 437 -366 44 -24 117 -71 162 -106 133 -101 219
-136 419 -169 129 -22 422 -25 524 -5 78 15 112 32 167 82 45 41 96 69 268
145 60 27 157 81 215 120 58 39 164 110 235 158 236 160 367 279 714 656 160
174 179 201 238 333 46 104 183 357 212 391 14 16 11 16 -29 -4 -25 -12 -61
-35 -80 -50 -19 -15 -57 -40 -85 -55 -63 -35 -73 -48 -136 -165 -69 -128 -133
-222 -247 -364 -255 -317 -490 -523 -719 -631 -73 -35 -81 -37 -138 -29 -120
17 -190 9 -416 -50 -337 -86 -483 -99 -924 -76 -216 11 -277 23 -390 80 -323
161 -578 521 -683 965 -24 101 -27 127 -26 325 0 223 9 307 55 484 26 102 50
149 96 182 66 48 93 76 189 195 126 157 241 262 415 380 81 54 165 119 187
144 66 75 163 102 413 112 378 15 655 -78 855 -288 85 -90 133 -165 230 -359
91 -184 123 -222 151 -184 45 59 -78 423 -208 615 -196 290 -598 431 -1109
392z m-395 -187 c31 -22 12 -40 -91 -84 -293 -126 -528 -341 -663 -610 -43
-84 -86 -60 -78 43 16 220 352 546 657 640 30 9 60 18 65 20 27 9 93 3 110 -9z
m1553 -2817 c9 -48 -101 -112 -403 -232 -215 -86 -288 -105 -454 -113 -254
-14 -591 52 -591 116 0 38 39 43 235 29 206 -14 446 -7 550 15 99 22 242 67
450 141 99 35 187 63 195 62 8 -1 16 -9 18 -18z"/>
<path d="M6920 3920 c-8 -5 -25 -10 -38 -10 -54 0 -137 -74 -361 -320 -345
-380 -693 -627 -1128 -800 -76 -30 -142 -63 -155 -77 -23 -25 -23 -25 1 -44
13 -10 34 -19 48 -19 79 0 294 72 473 158 396 190 670 435 959 856 51 74 114
154 139 178 43 39 88 88 80 88 -2 0 -10 -5 -18 -10z"/>
<path d="M6534 3235 c-109 -113 -234 -234 -277 -268 -174 -138 -405 -257 -677
-348 -228 -76 -250 -79 -585 -79 -508 0 -734 48 -1075 228 -69 36 -171 89
-228 118 -56 28 -110 57 -120 64 -57 40 121 -115 204 -178 135 -102 243 -166
392 -229 273 -118 527 -166 877 -167 187 0 204 1 260 23 33 13 130 47 216 76
281 95 449 176 628 302 134 94 313 289 511 553 35 47 68 91 73 98 31 41 -22
-11 -199 -193z"/>
<path d="M5765 2409 c-16 -5 -93 -18 -170 -30 -151 -22 -205 -35 -205 -50 0
-15 91 -10 180 11 84 20 241 68 249 76 7 7 -22 3 -54 -7z"/>
<path d="M4668 2213 c7 -3 16 -2 19 1 4 3 -2 6 -13 5 -11 0 -14 -3 -6 -6z"/>
<path d="M4753 2203 c9 -2 25 -2 35 0 9 3 1 5 -18 5 -19 0 -27 -2 -17 -5z"/>
<path d="M4858 2193 c12 -2 30 -2 40 0 9 3 -1 5 -23 4 -22 0 -30 -2 -17 -4z"/>
<path d="M4963 2183 c9 -2 23 -2 30 0 6 3 -1 5 -18 5 -16 0 -22 -2 -12 -5z"/>
<path d="M5088 2173 c7 -3 16 -2 19 1 4 3 -2 6 -13 5 -11 0 -14 -3 -6 -6z"/>
</g>
</svg>
