<?xml version="1.0" standalone="no"?>
<!DOCTYPE svg PUBLIC "-//W3C//DTD SVG 20010904//EN"
 "http://www.w3.org/TR/2001/REC-SVG-20010904/DTD/svg10.dtd">
<svg version="1.0" xmlns="http://www.w3.org/2000/svg"
 width="1000.000000pt" height="1000.000000pt" viewBox="0 0 1000.000000 1000.000000"
 preserveAspectRatio="xMidYMid meet">
<metadata>
  <rdf:RDF
    xmlns:rdf = "http://www.w3.org/1999/02/22-rdf-syntax-ns#"
    xmlns:rdfs = "http://www.w3.org/2000/01/rdf-schema#"
    xmlns:dc = "http://purl.org/dc/elements/1.1/"
    xmlns:cc = "http://creativecommons.org/ns#">
    <cc:license rdf:resource="http://creativecommons.org/publicdomain/zero/1.0/deed.en"/>
    <cc:permits rdf:resource="http://creativecommons.org/ns#Reproduction"/>
    <rdf:Description about="https://nft.mir.one/fingerprints"
      dc:title="TON Fingerprints"
      dc:description="This is a unique digital fingerprint created based on the algorithm for generating basic rings using a noise texture. Like human fingerprints, you can now use it for the Web3 and Metaverse era as digital biometric information."
      dc:publisher="https://nft.mir.one"
      dc:date="2022-02-22"
      dc:format="image/svg+xml"
      dc:language="en" >
      <dc:creator>
      <rdf:Bag>
        <rdf:li>EQBondcvD2_aOFADXSWJHs4ZazQDuEl9_wNvGGPxI8hGuOFU</rdf:li>
        <rdf:li>ipfs://bafkreihj7iub3fhmhq6jn62noukt5wxn3gv6bvcg7wmt6ywvlurefezckq</rdf:li>
      </rdf:Bag>
      </dc:creator>
    </rdf:Description>
  </rdf:RDF>
</metadata>
<g transform="translate(0.000000,1000.000000) scale(0.100000,-0.100000)"
fill="#1b1f23" stroke="none">
<path d="M5100 7679 c-120 -10 -434 -69 -608 -114 -178 -47 -324 -102 -523
-196 -92 -44 -173 -79 -180 -80 -28 -1 27 -18 62 -18 20 -1 114 17 210 40 258
60 435 87 646 99 301 17 285 14 305 61 14 33 27 44 75 67 51 23 73 27 178 30
202 6 314 -24 611 -161 77 -36 181 -78 230 -92 49 -15 96 -30 104 -32 8 -3
-66 40 -165 95 -99 55 -216 121 -260 146 -133 77 -315 138 -450 151 -118 11
-141 12 -235 4z"/>
<path d="M5050 7433 c-19 -3 -39 -8 -43 -13 -16 -15 22 -68 65 -89 40 -19 234
-58 482 -96 132 -20 261 -64 438 -148 178 -85 320 -164 455 -253 61 -41 116
-74 120 -74 5 0 31 -14 59 -30 39 -25 20 -2 -101 117 -168 167 -305 265 -515
372 -297 152 -559 223 -810 219 -63 0 -131 -3 -150 -5z"/>
<path d="M4415 7209 c-98 -10 -312 -51 -438 -83 -314 -80 -535 -320 -848 -923
-45 -87 -80 -156 -77 -153 9 8 126 164 217 290 265 366 402 484 648 555 120
35 511 113 603 121 84 7 154 -7 164 -33 19 -50 -84 -105 -344 -184 -163 -50
-183 -54 -285 -55 -129 -2 -192 -20 -294 -86 -213 -138 -496 -531 -575 -796
-15 -51 -14 -56 4 -93 25 -47 25 -103 5 -304 -32 -306 -27 -280 -57 -283 -22
-3 -30 3 -45 30 -28 52 -23 229 10 388 32 150 34 173 10 168 -28 -5 -70 -103
-93 -213 -24 -115 -46 -593 -35 -755 8 -111 38 -304 59 -375 19 -63 242 -505
300 -595 52 -80 159 -196 227 -246 26 -19 85 -76 129 -127 219 -247 439 -395
790 -527 154 -58 203 -87 232 -136 11 -19 31 -37 46 -41 43 -10 302 16 409 42
387 94 790 336 1157 694 191 188 370 420 459 596 84 168 159 423 216 738 17
92 39 202 50 245 11 42 22 106 25 142 6 65 6 65 -7 14 -8 -28 -23 -64 -34 -80
-31 -43 -68 -136 -149 -375 -130 -385 -248 -619 -443 -879 -274 -366 -730
-698 -1151 -837 -292 -97 -463 -84 -839 63 -267 104 -527 274 -603 393 -32 51
-35 73 -12 91 13 11 24 7 72 -28 374 -273 714 -412 1011 -412 137 0 224 18
371 77 461 183 795 427 1044 763 178 239 347 582 479 975 59 175 61 184 65
305 4 125 4 125 -37 202 -45 87 -91 211 -121 330 -28 109 -13 149 38 96 25
-28 49 -82 92 -213 40 -122 56 -155 75 -155 34 0 6 177 -50 321 -14 34 -44 94
-69 133 -61 99 -105 190 -160 333 -75 193 -161 299 -363 442 -243 174 -600
351 -705 351 -36 0 -68 -16 -68 -35 0 -21 41 -49 215 -147 457 -257 665 -451
791 -739 52 -118 70 -187 79 -304 4 -53 23 -154 47 -245 75 -287 83 -361 53
-487 -30 -127 -143 -390 -278 -645 -180 -342 -271 -474 -431 -626 -197 -187
-403 -305 -666 -381 -97 -28 -108 -34 -150 -80 -63 -68 -102 -83 -240 -88
-239 -10 -507 75 -835 266 -55 32 -131 74 -170 94 -38 19 -82 48 -96 64 -43
45 -245 377 -304 498 -71 146 -115 283 -160 495 -20 96 -47 212 -61 256 -26
88 -30 148 -14 204 5 19 23 153 40 300 16 146 39 298 50 339 52 185 195 407
372 577 129 124 276 216 305 192 36 -29 8 -71 -158 -238 -148 -148 -200 -212
-277 -340 -125 -209 -185 -462 -185 -775 1 -125 6 -176 31 -310 17 -88 41
-218 53 -290 11 -71 32 -166 46 -210 55 -172 218 -448 337 -570 144 -147 462
-308 766 -388 104 -27 131 -30 275 -31 138 -1 164 1 188 17 23 15 26 21 17 38
-18 33 -70 58 -170 80 -230 51 -345 81 -495 129 -175 57 -268 100 -360 165
-257 182 -517 645 -426 756 25 31 36 20 65 -62 60 -169 189 -373 316 -499 142
-142 253 -203 368 -202 51 0 91 -9 215 -53 84 -29 218 -68 297 -86 126 -29
163 -34 280 -34 116 0 145 3 205 24 331 112 620 397 759 748 53 135 56 177 17
261 -19 43 -42 124 -61 218 -38 187 -53 241 -155 549 -88 267 -113 325 -180
420 -91 128 -289 291 -437 360 -67 31 -142 47 -393 82 -415 58 -559 33 -781
-136 -238 -180 -412 -435 -483 -706 -46 -174 -47 -293 -4 -322 19 -13 24 -12
41 5 21 21 34 53 86 220 104 333 293 575 549 703 114 58 215 79 374 79 412 0
709 -118 927 -369 86 -100 129 -221 78 -221 -10 0 -53 36 -97 81 -213 215
-425 321 -709 355 -283 34 -478 -8 -653 -140 -116 -88 -207 -203 -287 -363
-49 -97 -171 -444 -180 -511 -17 -116 37 -257 193 -506 101 -160 163 -238 312
-391 119 -122 140 -155 119 -180 -10 -13 -16 -12 -44 2 -63 32 -164 114 -252
205 -99 103 -149 169 -249 333 -78 127 -105 159 -158 187 -46 23 -58 48 -86
183 -42 202 -50 231 -75 300 -33 90 -35 222 -6 366 58 283 186 498 446 748
198 190 306 257 460 284 70 12 73 12 364 -57 108 -25 221 -48 251 -52 90 -10
128 26 77 73 -56 51 -240 121 -375 143 -78 13 -123 28 -123 42 0 42 76 87 148
88 98 0 296 -93 382 -180 30 -31 70 -75 88 -98 19 -24 84 -77 151 -121 280
-188 423 -337 531 -552 108 -214 269 -772 285 -984 8 -115 17 -145 43 -145 37
0 86 69 108 155 23 84 18 145 -14 191 -39 53 -44 68 -101 304 -85 349 -166
557 -283 728 -75 109 -248 278 -423 412 -82 63 -189 147 -237 186 -48 40 -147
113 -220 163 -129 87 -150 108 -186 181 -14 30 -29 40 -99 68 -168 67 -318 89
-478 71z m555 -1319 c210 -12 341 -60 524 -187 90 -63 217 -147 268 -178 47
-29 110 -127 156 -247 100 -258 134 -551 83 -718 -67 -221 -252 -440 -460
-545 -195 -97 -413 -114 -638 -49 -151 44 -212 82 -367 234 -152 149 -229 238
-301 348 -65 101 -141 264 -159 342 -24 99 -20 230 8 341 86 340 262 571 506
665 36 14 62 14 380 -6z m-1811 -834 c7 -8 19 -66 27 -128 21 -168 42 -271 80
-388 36 -113 171 -395 251 -525 27 -44 73 -118 101 -164 69 -112 70 -171 3
-137 -54 28 -151 158 -248 331 -202 363 -230 421 -263 549 -37 147 -51 332
-30 405 17 60 54 87 79 57z"/>
<path d="M4652 5801 c-132 -45 -266 -179 -351 -350 -189 -379 -111 -731 239
-1082 131 -132 225 -195 358 -243 82 -29 95 -30 232 -30 131 0 153 2 225 27
108 36 195 89 281 170 190 179 265 413 219 683 -39 228 -125 389 -266 501
-296 234 -549 315 -718 229 -84 -43 -196 -163 -258 -276 -80 -147 -107 -234
-107 -355 0 -187 68 -317 275 -527 184 -186 510 -144 662 85 60 90 80 165 75
283 -4 91 -8 109 -40 175 -46 96 -101 157 -180 200 -83 44 -156 46 -275 6
-147 -50 -213 -113 -221 -210 -3 -43 1 -58 20 -87 19 -29 30 -35 58 -35 35 0
35 0 41 63 7 78 39 115 114 137 197 59 366 -174 273 -377 -35 -76 -80 -123
-153 -159 -52 -25 -76 -31 -132 -31 -103 -1 -176 38 -144 76 6 7 39 19 74 26
88 17 136 41 179 88 41 46 63 109 54 157 -16 85 -100 144 -161 114 -37 -18
-42 -42 -16 -68 67 -67 -51 -174 -172 -158 -51 7 -106 52 -137 113 -21 41 -25
62 -25 134 0 73 4 92 27 137 37 70 70 91 222 146 138 50 176 70 176 91 0 51
-116 48 -235 -6 -43 -20 -83 -34 -87 -32 -17 11 -7 45 23 78 73 83 219 116
304 68 22 -12 90 -47 151 -77 191 -93 292 -187 360 -330 115 -242 71 -521
-110 -700 -276 -274 -671 -222 -948 124 -130 163 -188 312 -188 485 0 122 19
202 75 321 53 114 115 195 220 291 46 42 86 83 90 92 4 11 -2 23 -15 34 -27
22 -23 22 -88 -1z"/>
<path d="M5085 7161 c-12 -5 -27 -17 -35 -26 -13 -16 -11 -20 15 -42 17 -13
73 -46 125 -73 52 -27 132 -78 177 -112 45 -35 182 -139 305 -233 478 -363
604 -547 738 -1070 35 -136 47 -200 79 -419 11 -77 20 -91 49 -82 42 14 57 70
56 206 -1 118 -5 141 -66 400 -64 269 -93 361 -138 451 -79 155 -225 328 -390
459 -47 37 -157 116 -245 175 -211 143 -241 168 -270 226 -31 60 -46 70 -163
109 -97 32 -203 46 -237 31z"/>
<path d="M6780 6372 c0 -12 5 -34 12 -49 13 -31 108 -183 114 -183 4 0 -113
241 -121 249 -3 2 -5 -5 -5 -17z"/>
<path d="M3024 4205 c14 -81 109 -346 166 -463 104 -216 239 -392 492 -644 92
-92 204 -195 250 -229 91 -67 283 -165 393 -199 97 -31 250 -38 309 -16 78 30
110 86 54 98 -312 69 -429 111 -623 228 -126 76 -273 201 -497 421 -282 279
-332 351 -473 680 -37 84 -69 156 -72 159 -3 3 -3 -13 1 -35z"/>
<path d="M6939 4008 c-6 -12 -34 -52 -60 -88 -27 -36 -89 -119 -138 -185 -219
-295 -524 -577 -886 -820 -267 -178 -493 -272 -810 -335 -60 -12 -182 -38
-270 -57 -131 -30 -180 -36 -270 -36 -146 0 -210 21 -497 166 -223 112 -223
112 -256 172 -43 78 -76 111 -197 202 -100 75 -100 75 25 -53 76 -78 133 -146
144 -171 22 -50 98 -107 316 -237 169 -102 280 -156 380 -187 68 -20 85 -21
314 -16 254 6 371 19 537 62 302 78 474 168 769 404 274 219 502 461 661 701
71 107 267 486 256 496 -3 3 -11 -5 -18 -18z"/>
<path d="M6270 2818 c-87 -66 -195 -162 -270 -238 -69 -70 -144 -140 -167
-155 -49 -32 -58 -45 -12 -18 47 28 159 122 355 298 98 88 194 174 213 192 64
57 29 34 -119 -79z"/>
<path d="M5650 2330 c-8 -5 -10 -10 -5 -10 6 0 17 5 25 10 8 5 11 10 5 10 -5
0 -17 -5 -25 -10z"/>
<path d="M5600 2310 c-8 -5 -10 -10 -5 -10 6 0 17 5 25 10 8 5 11 10 5 10 -5
0 -17 -5 -25 -10z"/>
<path d="M5515 2279 c-27 -10 -37 -17 -21 -14 31 7 97 33 81 33 -5 0 -32 -8
-60 -19z"/>
<path d="M5385 2240 c-13 -5 -14 -9 -5 -9 8 0 24 4 35 9 13 5 14 9 5 9 -8 0
-24 -4 -35 -9z"/>
<path d="M5338 2223 c7 -3 16 -2 19 1 4 3 -2 6 -13 5 -11 0 -14 -3 -6 -6z"/>
<path d="M5298 2213 c7 -3 16 -2 19 1 4 3 -2 6 -13 5 -11 0 -14 -3 -6 -6z"/>
<path d="M5258 2203 c7 -3 16 -2 19 1 4 3 -2 6 -13 5 -11 0 -14 -3 -6 -6z"/>
</g>
</svg>
