<?xml version="1.0" standalone="no"?>
<!DOCTYPE svg PUBLIC "-//W3C//DTD SVG 20010904//EN"
 "http://www.w3.org/TR/2001/REC-SVG-20010904/DTD/svg10.dtd">
<svg version="1.0" xmlns="http://www.w3.org/2000/svg"
 width="1000.000000pt" height="1000.000000pt" viewBox="0 0 1000.000000 1000.000000"
 preserveAspectRatio="xMidYMid meet">
<metadata>
  <rdf:RDF
    xmlns:rdf = "http://www.w3.org/1999/02/22-rdf-syntax-ns#"
    xmlns:rdfs = "http://www.w3.org/2000/01/rdf-schema#"
    xmlns:dc = "http://purl.org/dc/elements/1.1/"
    xmlns:cc = "http://creativecommons.org/ns#">
    <cc:license rdf:resource="http://creativecommons.org/publicdomain/zero/1.0/deed.en"/>
    <cc:permits rdf:resource="http://creativecommons.org/ns#Reproduction"/>
    <rdf:Description about="https://nft.mir.one/fingerprints"
      dc:title="TON Fingerprints"
      dc:description="This is a unique digital fingerprint created based on the algorithm for generating basic rings using a noise texture. Like human fingerprints, you can now use it for the Web3 and Metaverse era as digital biometric information."
      dc:publisher="https://nft.mir.one"
      dc:date="2022-02-22"
      dc:format="image/svg+xml"
      dc:language="en" >
      <dc:creator>
      <rdf:Bag>
        <rdf:li>EQBondcvD2_aOFADXSWJHs4ZazQDuEl9_wNvGGPxI8hGuOFU</rdf:li>
        <rdf:li>ipfs://bafkreihj7iub3fhmhq6jn62noukt5wxn3gv6bvcg7wmt6ywvlurefezckq</rdf:li>
      </rdf:Bag>
      </dc:creator>
    </rdf:Description>
  </rdf:RDF>
</metadata>
<g transform="translate(0.000000,1000.000000) scale(0.100000,-0.100000)"
fill="#1b1f23" stroke="none">
<path d="M4595 7735 c-88 -36 -173 -65 -190 -65 -26 -1 -28 -2 -11 -11 34 -20
98 -1 239 70 77 39 136 71 131 71 -5 0 -81 -30 -169 -65z"/>
<path d="M5106 7684 c-217 -33 -695 -178 -820 -248 -200 -112 -589 -482 -840
-799 -93 -117 -216 -297 -216 -315 0 -33 47 4 218 170 222 216 356 332 552
478 112 83 156 124 194 175 58 79 115 124 221 175 75 36 274 105 480 165 50
15 158 49 242 75 146 47 221 65 383 90 130 20 131 23 20 36 -139 16 -324 15
-434 -2z"/>
<path d="M4029 7503 c-13 -16 -12 -17 4 -4 16 13 21 21 13 21 -2 0 -10 -8 -17
-17z"/>
<path d="M5394 7499 c-22 -5 -65 -25 -95 -44 -94 -60 -129 -72 -311 -110 -411
-83 -680 -185 -701 -265 -4 -15 2 -25 19 -37 30 -19 73 -14 255 28 329 76 501
90 702 60 76 -11 213 -28 305 -36 92 -9 211 -25 265 -36 209 -42 439 -137 617
-255 47 -32 121 -77 165 -101 80 -44 80 -44 -60 97 -149 151 -260 241 -381
310 -146 84 -254 110 -554 136 -261 22 -325 39 -318 87 5 33 63 39 318 33 159
-3 260 -10 345 -24 66 -11 145 -23 175 -26 55 -5 55 -5 15 16 -247 130 -590
205 -761 167z"/>
<path d="M3891 7383 c-104 -97 -487 -533 -468 -533 3 0 83 89 178 198 96 108
223 248 283 310 61 61 108 112 105 112 -3 0 -47 -39 -98 -87z"/>
<path d="M4825 6974 c-16 -2 -118 -18 -225 -34 -107 -16 -234 -34 -281 -40
-209 -25 -375 -124 -762 -453 -77 -65 -180 -148 -228 -183 -60 -44 -110 -92
-155 -149 -36 -45 -83 -97 -105 -114 -21 -18 -39 -36 -39 -40 0 -5 19 -4 43 2
51 13 302 178 545 359 424 316 576 385 987 444 168 25 472 25 620 0 124 -20
177 -40 238 -89 62 -51 109 -78 242 -139 412 -191 692 -441 850 -760 64 -130
93 -236 124 -448 55 -383 47 -658 -25 -908 -54 -187 -130 -293 -251 -354 -69
-34 -97 -63 -214 -218 -82 -109 -206 -239 -289 -302 -164 -125 -454 -216 -525
-165 -17 14 -17 15 2 34 11 11 66 37 124 58 247 90 401 202 543 395 84 114
121 201 156 366 18 82 45 212 62 289 29 132 31 153 32 370 1 186 -3 247 -17
320 -67 327 -222 597 -443 770 -98 77 -337 230 -391 251 -58 22 -93 13 -93
-25 0 -22 20 -50 88 -124 109 -117 122 -142 97 -197 -34 -75 -26 -98 90 -275
170 -261 188 -300 211 -470 42 -303 10 -541 -97 -722 -41 -70 -229 -261 -320
-326 -83 -59 -136 -82 -228 -102 -39 -8 -118 -30 -174 -49 -127 -42 -268 -68
-372 -70 -70 -1 -87 3 -140 29 -33 17 -92 60 -131 98 -224 212 -350 568 -241
685 33 36 47 28 47 -26 0 -73 34 -193 80 -281 96 -184 248 -302 411 -320 126
-13 250 14 333 73 47 33 164 157 261 276 197 241 230 532 93 810 -34 68 -60
102 -128 170 -98 98 -164 140 -287 183 -158 54 -369 49 -557 -14 -281 -95
-534 -307 -637 -535 -103 -226 -110 -521 -20 -784 51 -151 105 -254 193 -367
89 -116 183 -125 147 -15 -6 20 -45 100 -86 178 -118 226 -154 355 -154 544 0
248 98 458 280 601 94 74 262 158 401 200 144 43 296 51 397 21 225 -69 383
-288 383 -532 0 -186 -99 -377 -260 -504 -114 -89 -224 -124 -339 -105 -163
25 -280 123 -381 321 -28 53 -63 108 -80 121 -24 21 -30 33 -30 66 0 80 59
191 102 191 21 0 25 -17 31 -115 12 -205 197 -417 384 -440 62 -8 158 14 221
51 65 38 145 125 180 197 88 178 56 385 -81 522 -74 73 -134 100 -225 100 -65
0 -76 -3 -92 -23 -11 -13 -17 -29 -14 -37 3 -8 45 -34 93 -59 101 -52 151 -97
188 -169 38 -72 40 -188 4 -260 -45 -91 -123 -147 -217 -155 -165 -14 -303
138 -320 353 -6 62 -4 73 16 98 12 15 28 27 35 27 24 0 48 -49 67 -139 22
-101 54 -161 103 -191 43 -27 112 -29 150 -4 73 48 84 186 20 262 -25 30 -161
106 -217 123 -21 5 -44 3 -75 -7 -35 -12 -58 -13 -98 -7 -63 11 -197 -12 -260
-45 -84 -43 -167 -159 -212 -297 -22 -66 -26 -99 -27 -190 0 -173 39 -289 185
-553 132 -237 165 -277 380 -459 170 -144 271 -186 564 -234 99 -17 214 -40
255 -51 141 -39 332 -7 526 87 155 75 232 147 461 430 114 141 165 185 215
185 60 0 40 -34 -222 -385 -162 -217 -196 -254 -276 -301 -57 -34 -267 -107
-388 -137 -79 -19 -119 -21 -306 -22 -501 0 -685 68 -1096 406 -154 128 -189
150 -285 183 -123 43 -273 248 -358 489 -58 166 -75 271 -75 477 1 167 3 194
26 281 47 175 135 318 279 453 143 135 318 240 502 301 145 48 217 58 376 53
112 -5 151 -10 221 -33 227 -73 415 -219 509 -394 41 -78 97 -249 112 -341 21
-139 -2 -293 -66 -428 -51 -108 -96 -170 -210 -291 -104 -109 -131 -155 -104
-172 8 -5 21 -9 29 -9 34 0 148 80 230 160 202 200 281 376 283 630 0 134 -7
175 -54 282 -18 42 -29 83 -29 112 0 85 -111 267 -229 378 -113 107 -366 237
-532 274 -103 24 -308 23 -419 0 -454 -97 -948 -481 -1056 -820 -47 -149 -53
-382 -18 -636 27 -187 74 -341 155 -501 105 -210 215 -330 494 -539 99 -74
249 -189 333 -256 85 -67 184 -138 220 -157 141 -74 320 -102 610 -94 235 6
350 24 607 98 211 60 314 69 374 34 56 -33 58 -44 27 -125 -63 -159 -242 -289
-550 -396 -250 -87 -436 -118 -990 -165 -90 -7 -163 -19 -205 -34 -66 -22 -66
-22 9 -28 41 -4 147 -12 234 -17 655 -43 1284 195 1583 599 77 104 105 133
198 205 92 71 115 90 98 81 -31 -15 -184 -33 -219 -25 -60 14 -67 41 -34 150
21 71 57 132 177 299 104 143 142 228 153 333 6 65 16 101 48 169 83 177 129
342 153 549 16 142 6 436 -21 615 -12 77 -23 199 -25 270 -4 147 -10 170 -86
316 -72 136 -187 286 -316 410 -216 206 -428 332 -740 439 -132 46 -153 56
-153 75 0 56 164 48 346 -16 401 -141 753 -432 998 -822 30 -48 79 -114 109
-146 54 -59 54 -59 5 53 -167 378 -258 531 -413 691 -160 166 -495 341 -766
401 -99 22 -877 52 -974 38z m906 -1093 c90 -65 203 -209 274 -351 136 -271
175 -626 105 -965 -35 -171 -120 -479 -149 -540 -79 -167 -249 -320 -477 -427
-103 -48 -177 -65 -217 -49 -30 12 -34 38 -7 51 8 4 58 28 111 53 282 135 518
364 507 493 -5 67 -27 56 -170 -89 -112 -114 -155 -149 -268 -222 -157 -102
-217 -155 -230 -206 -14 -50 -44 -61 -178 -67 -167 -7 -287 26 -336 91 -19 26
-19 28 -3 44 14 14 44 19 155 24 162 7 218 24 367 106 224 125 272 158 433
301 52 47 119 96 148 109 63 28 83 54 124 156 72 181 107 425 90 625 -26 297
-105 484 -313 751 -98 124 -100 128 -92 141 14 23 72 10 126 -29z m-921 -1013
c0 -16 -30 -48 -45 -48 -18 0 -27 30 -14 46 14 17 59 19 59 2z"/>
<path d="M4615 6618 c-110 -12 -293 -54 -386 -88 -91 -34 -257 -116 -348 -173
-93 -58 -611 -421 -661 -464 -50 -43 -143 -177 -138 -201 5 -25 50 -26 95 -4
21 11 119 80 218 153 594 437 896 575 1301 595 159 8 280 -5 463 -52 81 -21
158 -34 195 -34 88 0 165 -23 285 -86 544 -283 810 -763 788 -1419 -6 -172
-25 -295 -77 -480 -39 -138 -45 -185 -28 -208 28 -38 87 11 140 118 97 193
143 495 119 786 -35 433 -131 692 -352 948 -170 197 -441 373 -788 510 -128
51 -234 78 -371 97 -116 15 -331 16 -455 2z"/>
<path d="M4620 6279 c-192 -13 -378 -68 -585 -173 -174 -88 -339 -198 -610
-406 -331 -255 -330 -254 -395 -515 -21 -82 -48 -184 -60 -225 -20 -65 -23
-102 -25 -275 -3 -167 -2 -181 5 -85 12 186 60 330 111 330 25 0 27 -13 33
-230 14 -523 198 -1005 503 -1315 123 -127 252 -222 483 -360 118 -70 197
-136 185 -155 -30 -49 -355 84 -554 227 -105 76 -254 218 -323 308 -107 141
-248 405 -327 615 -51 134 -52 118 -2 -30 74 -220 172 -439 262 -587 176 -287
460 -546 684 -623 71 -24 185 -26 250 -4 57 19 85 12 85 -23 0 -35 -51 -79
-113 -98 -53 -17 -298 -22 -355 -9 -49 12 -18 -5 78 -42 224 -86 349 -100 675
-75 77 6 214 15 305 21 399 26 745 108 980 232 140 74 202 131 187 172 -11 28
-69 18 -258 -48 -288 -100 -492 -139 -784 -152 -221 -10 -544 20 -622 58 -21
10 -33 28 -49 73 -43 125 -73 157 -343 358 -122 91 -259 202 -317 259 -161
156 -282 343 -363 559 -77 203 -104 340 -126 639 -8 113 -20 223 -25 245 -16
67 -11 126 19 211 40 117 107 212 245 349 249 248 545 437 831 530 142 46 230
60 390 59 216 -1 326 -35 540 -169 154 -97 205 -108 205 -46 0 38 -39 89 -152
198 -135 130 -260 186 -438 199 -41 2 -88 6 -105 7 -16 2 -73 0 -125 -4z"/>
<path d="M6924 5533 c-7 -27 -3 -59 41 -298 19 -104 27 -189 32 -330 10 -335
-25 -527 -168 -922 -94 -258 -144 -349 -289 -523 -118 -141 -144 -200 -88
-200 52 0 231 225 320 405 108 215 210 550 255 835 26 163 26 605 0 770 -36
229 -82 348 -103 263z"/>
<path d="M5700 5256 c0 -27 28 -43 36 -21 6 16 -12 45 -27 45 -5 0 -9 -11 -9
-24z"/>
<path d="M2952 4440 c0 -19 2 -27 5 -17 2 9 2 25 0 35 -3 9 -5 1 -5 -18z"/>
<path d="M2962 4370 c0 -14 2 -19 5 -12 2 6 2 18 0 25 -3 6 -5 1 -5 -13z"/>
<path d="M2972 4310 c0 -14 2 -19 5 -12 2 6 2 18 0 25 -3 6 -5 1 -5 -13z"/>
<path d="M2981 4264 c0 -11 3 -14 6 -6 3 7 2 16 -1 19 -3 4 -6 -2 -5 -13z"/>
<path d="M2991 4214 c0 -11 3 -14 6 -6 3 7 2 16 -1 19 -3 4 -6 -2 -5 -13z"/>
<path d="M3001 4180 c0 -8 4 -24 9 -35 5 -13 9 -14 9 -5 0 8 -4 24 -9 35 -5
13 -9 14 -9 5z"/>
</g>
</svg>
