<?xml version="1.0" standalone="no"?>
<!DOCTYPE svg PUBLIC "-//W3C//DTD SVG 20010904//EN"
 "http://www.w3.org/TR/2001/REC-SVG-20010904/DTD/svg10.dtd">
<svg version="1.0" xmlns="http://www.w3.org/2000/svg"
 width="1000.000000pt" height="1000.000000pt" viewBox="0 0 1000.000000 1000.000000"
 preserveAspectRatio="xMidYMid meet">
<metadata>
  <rdf:RDF
    xmlns:rdf = "http://www.w3.org/1999/02/22-rdf-syntax-ns#"
    xmlns:rdfs = "http://www.w3.org/2000/01/rdf-schema#"
    xmlns:dc = "http://purl.org/dc/elements/1.1/"
    xmlns:cc = "http://creativecommons.org/ns#">
    <cc:license rdf:resource="http://creativecommons.org/publicdomain/zero/1.0/deed.en"/>
    <cc:permits rdf:resource="http://creativecommons.org/ns#Reproduction"/>
    <rdf:Description about="https://nft.mir.one/fingerprints"
      dc:title="TON Fingerprints"
      dc:description="This is a unique digital fingerprint created based on the algorithm for generating basic rings using a noise texture. Like human fingerprints, you can now use it for the Web3 and Metaverse era as digital biometric information."
      dc:publisher="https://nft.mir.one"
      dc:date="2022-02-22"
      dc:format="image/svg+xml"
      dc:language="en" >
      <dc:creator>
      <rdf:Bag>
        <rdf:li>EQBondcvD2_aOFADXSWJHs4ZazQDuEl9_wNvGGPxI8hGuOFU</rdf:li>
        <rdf:li>ipfs://bafkreihj7iub3fhmhq6jn62noukt5wxn3gv6bvcg7wmt6ywvlurefezckq</rdf:li>
      </rdf:Bag>
      </dc:creator>
    </rdf:Description>
  </rdf:RDF>
</metadata>
<g transform="translate(0.000000,1000.000000) scale(0.100000,-0.100000)"
fill="#1b1f23" stroke="none">
<path d="M4747 7744 c26 -24 89 -69 138 -100 211 -134 307 -213 409 -334 203
-242 378 -581 446 -863 32 -133 90 -505 120 -767 42 -372 36 -542 -27 -794
-67 -269 -127 -412 -215 -512 -58 -66 -71 -92 -173 -334 -163 -385 -325 -673
-489 -869 -70 -84 -201 -200 -308 -272 -98 -67 -330 -203 -457 -269 -64 -33
-130 -72 -148 -88 -32 -28 -32 -28 120 -26 181 2 208 9 338 89 352 217 508
358 673 608 126 190 213 347 312 557 45 96 111 228 148 293 36 64 94 168 129
230 75 133 118 231 187 427 28 80 63 177 77 215 21 57 27 93 31 193 5 140 -1
197 -68 639 -53 344 -70 494 -70 613 -1 242 -166 633 -432 1023 -124 180 -210
225 -670 351 -119 33 -119 33 -71 -10z"/>
<path d="M5544 7715 c9 -16 19 -46 22 -65 4 -19 52 -118 107 -220 206 -381
230 -427 274 -524 79 -176 133 -363 133 -461 0 -26 -8 -58 -20 -78 -28 -48
-35 -117 -20 -223 19 -146 96 -561 144 -777 24 -111 50 -249 56 -307 8 -76 20
-124 42 -174 39 -90 51 -174 38 -284 -23 -209 -86 -378 -237 -640 -36 -61 -78
-146 -93 -187 -37 -100 -66 -146 -144 -233 -36 -40 -94 -114 -128 -165 -34
-50 -97 -141 -140 -200 -106 -145 -138 -197 -138 -223 0 -27 22 -37 56 -24 67
26 327 321 350 398 18 58 32 79 114 173 92 104 129 157 260 363 129 205 179
305 214 426 65 231 74 419 32 735 -34 250 -39 270 -88 323 -49 54 -69 99 -101
237 -56 239 -159 756 -153 770 17 46 68 -16 105 -128 37 -110 97 -356 146
-597 49 -240 60 -269 98 -254 41 15 51 146 22 303 -26 141 -93 395 -136 520
-80 230 -90 264 -84 292 9 38 30 55 50 39 8 -7 15 -17 15 -22 0 -5 23 -61 50
-125 64 -147 119 -311 164 -488 67 -269 71 -298 68 -549 -2 -157 2 -280 14
-395 25 -257 6 -477 -66 -749 -43 -160 -69 -213 -140 -283 -34 -33 -95 -113
-137 -177 -74 -114 -194 -245 -352 -384 -63 -54 -61 -73 5 -63 85 12 80 -12
-20 -94 -36 -30 -105 -99 -153 -154 -83 -94 -299 -298 -443 -417 -89 -74 -226
-162 -415 -267 -164 -92 -255 -150 -220 -140 11 4 74 18 140 32 257 55 580
184 722 288 62 46 66 53 77 119 8 46 64 120 201 268 140 151 218 255 245 327
23 63 97 173 132 198 34 23 58 19 58 -9 0 -40 -155 -335 -226 -430 -37 -48
-134 -158 -216 -243 -82 -85 -148 -159 -145 -166 7 -21 64 -19 109 4 157 79
367 316 478 539 60 120 79 180 96 302 14 107 52 223 112 343 31 63 42 70 65
44 27 -33 21 -82 -39 -316 -95 -373 -170 -528 -374 -781 -109 -136 -188 -206
-329 -290 -129 -77 -292 -179 -300 -188 -12 -13 141 68 260 137 161 94 242
155 361 276 110 111 177 192 253 308 144 219 295 598 330 827 22 142 48 302
83 508 17 96 42 260 56 364 23 167 25 191 12 205 -40 44 -48 91 -57 326 -9
262 -11 272 -86 570 -127 506 -243 759 -357 780 -19 4 -40 12 -45 19 -5 6 -45
90 -89 186 -164 362 -204 429 -375 637 -119 143 -327 356 -303 308z"/>
<path d="M4337 7626 c24 -21 109 -81 191 -136 240 -159 387 -285 528 -453 205
-244 414 -640 479 -909 49 -202 60 -306 60 -578 0 -255 0 -255 -52 -585 -65
-415 -67 -434 -53 -484 9 -34 15 -41 35 -41 45 0 83 85 139 305 110 437 117
814 25 1335 -70 401 -222 744 -464 1055 -119 153 -375 374 -500 431 -62 29
-191 60 -307 74 -48 6 -96 13 -105 17 -10 3 1 -11 24 -31z"/>
<path d="M4030 7436 c25 -20 102 -72 171 -115 183 -112 316 -218 470 -371 162
-161 278 -314 357 -468 57 -114 57 -114 57 -305 0 -106 -4 -241 -9 -302 -15
-188 18 -440 75 -584 16 -41 34 -92 39 -115 5 -23 10 -230 11 -461 2 -473 0
-494 -72 -701 -101 -294 -284 -595 -459 -757 -89 -82 -146 -111 -222 -112 -50
-1 -65 -7 -145 -56 -161 -101 -310 -175 -453 -224 -36 -12 -86 -36 -112 -52
-48 -30 -48 -30 0 -36 26 -3 79 -12 117 -21 112 -25 194 -21 268 12 83 38 457
244 526 290 231 153 484 526 639 942 85 227 85 229 87 545 2 320 19 499 66
695 42 173 52 299 39 478 -16 226 -47 396 -90 496 -10 25 -40 78 -66 117 -25
39 -77 129 -116 201 -187 351 -409 597 -749 831 -116 80 -164 95 -344 104
-130 6 -130 6 -85 -31z m1253 -1280 c25 -79 45 -228 57 -436 12 -196 7 -301
-17 -362 -18 -45 -48 -51 -63 -13 -11 28 -26 189 -34 360 -3 61 -11 201 -17
313 -9 162 -9 205 1 217 12 14 15 13 35 -5 12 -11 29 -44 38 -74z"/>
<path d="M6121 7343 c172 -354 295 -588 357 -683 147 -226 209 -376 322 -785
22 -82 59 -194 80 -247 52 -129 63 -194 62 -368 0 -109 -5 -170 -21 -244 -26
-121 -26 -126 -2 -126 28 0 89 73 98 117 12 55 8 362 -6 473 -9 73 -19 110
-45 160 -20 39 -54 141 -84 255 -82 308 -147 481 -266 710 -78 149 -164 296
-255 435 -53 81 -259 360 -265 360 -2 0 9 -26 25 -57z"/>
<path d="M3790 7217 c25 -21 113 -82 195 -136 265 -172 471 -358 643 -581 44
-58 108 -129 141 -158 68 -60 106 -127 141 -257 22 -82 34 -105 55 -105 38 0
47 142 15 264 -11 42 -35 107 -55 145 -96 182 -380 503 -585 661 -137 105
-266 188 -312 201 -23 6 -95 9 -162 7 -121 -3 -121 -3 -76 -41z"/>
<path d="M3556 7031 c2 -2 42 -46 89 -97 66 -71 112 -109 193 -160 322 -204
481 -363 638 -639 94 -166 139 -232 200 -292 63 -62 78 -102 62 -177 -10 -50
-8 -61 37 -197 41 -123 48 -159 52 -244 5 -95 3 -102 -23 -150 -28 -50 -28
-51 -29 -235 0 -184 0 -185 -31 -260 -17 -41 -43 -132 -58 -202 -49 -237 -145
-459 -297 -693 -174 -268 -293 -385 -389 -385 -56 0 -48 25 37 113 162 166
334 434 455 707 87 195 108 319 67 395 -20 36 -21 45 -10 101 16 89 14 231 -5
295 -22 74 -141 306 -210 409 -244 367 -597 655 -949 775 -123 42 -132 40
-299 -49 -27 -14 -44 -26 -37 -26 7 0 27 -6 44 -14 18 -8 66 -22 107 -31 385
-90 785 -387 999 -744 97 -161 144 -305 144 -441 0 -133 -47 -248 -183 -455
-159 -240 -233 -321 -349 -380 -39 -19 -96 -51 -127 -71 -152 -97 -291 -141
-328 -104 -21 20 -11 32 59 71 170 94 380 245 461 330 27 30 73 88 101 129 28
41 69 90 91 107 50 41 97 131 118 233 57 269 -101 621 -379 849 -167 135 -402
271 -556 320 -78 26 -112 19 -197 -39 -33 -22 -66 -40 -74 -40 -25 -1 50 -30
129 -51 95 -24 186 -69 341 -167 69 -43 160 -97 202 -121 130 -71 220 -167
293 -311 68 -133 95 -258 94 -423 -1 -132 -14 -200 -42 -205 -21 -4 -31 19
-50 123 -30 155 -66 318 -83 368 -60 187 -211 365 -269 317 -23 -19 -19 -37
45 -170 100 -210 117 -326 67 -475 -58 -178 -73 -280 -41 -292 39 -15 72 33
109 162 40 138 74 153 83 37 9 -119 -42 -218 -137 -267 -25 -13 -71 -49 -101
-80 -30 -31 -108 -102 -173 -157 -64 -54 -135 -124 -157 -154 -22 -29 -55 -61
-73 -70 -17 -9 -44 -27 -59 -39 -26 -22 -26 -22 35 -62 133 -87 174 -99 258
-78 90 24 153 54 263 129 125 85 155 101 168 88 23 -23 -5 -69 -97 -159 -81
-80 -107 -98 -197 -142 -56 -27 -135 -56 -174 -65 -70 -15 -173 -55 -144 -56
8 0 33 -10 55 -21 64 -35 163 -69 198 -69 54 0 167 62 242 131 104 97 180 200
237 318 28 58 87 162 131 231 44 69 120 197 169 285 49 88 101 175 114 192 27
35 69 52 86 35 13 -13 -58 -193 -140 -357 -73 -147 -282 -495 -376 -625 -41
-58 -85 -131 -96 -163 -16 -44 -31 -65 -63 -89 -54 -40 -166 -92 -242 -113
-63 -17 -135 -46 -135 -55 0 -3 26 -16 58 -29 194 -80 235 -84 354 -42 128 46
266 113 324 157 63 48 86 76 203 237 276 383 376 602 432 946 18 116 32 147
61 136 61 -24 52 -248 -18 -463 -32 -96 -130 -302 -191 -402 -26 -41 -90 -134
-144 -207 -112 -151 -129 -180 -129 -223 0 -105 210 83 380 340 129 197 229
430 271 634 24 114 22 256 -5 446 -9 58 -16 168 -16 245 0 177 -14 321 -44
472 -33 163 -45 246 -56 407 -9 125 -12 143 -36 177 -14 21 -45 84 -69 141
-57 140 -71 165 -101 184 -18 13 -28 14 -36 6 -20 -20 -9 -80 36 -196 25 -63
47 -130 51 -148 6 -39 -6 -63 -29 -55 -23 9 -123 215 -162 334 -39 121 -69
181 -120 249 -130 170 -282 304 -573 505 -93 64 -93 64 -216 64 -68 0 -122 -2
-119 -4z"/>
<path d="M3460 6845 c-55 -11 -55 -11 -9 -29 55 -21 118 -18 133 7 8 14 8 20
-4 27 -18 12 -49 11 -120 -5z"/>
<path d="M3440 6651 c-47 -16 -103 -36 -125 -46 -40 -18 -40 -18 0 -35 22 -10
96 -32 165 -48 319 -76 539 -230 836 -583 173 -206 227 -262 277 -289 49 -26
77 -22 77 12 0 30 -29 76 -104 168 -34 41 -102 131 -151 200 -164 231 -263
338 -417 453 -154 115 -293 180 -413 191 -50 5 -74 1 -145 -23z"/>
<path d="M3289 6380 c-25 -10 -61 -28 -80 -39 -19 -12 -43 -21 -54 -21 -35 -1
63 -39 164 -65 228 -58 424 -158 616 -315 90 -74 309 -298 410 -420 82 -99
156 -208 220 -323 48 -87 94 -137 128 -137 48 0 47 80 0 215 -44 124 -88 190
-217 324 -66 70 -170 180 -229 246 -258 285 -456 429 -716 519 -117 41 -173
44 -242 16z"/>
<path d="M3068 5536 c-20 -7 -56 -27 -79 -45 -24 -17 -50 -31 -58 -32 -21 -1
35 -15 132 -33 141 -26 162 -68 50 -99 -47 -13 -73 -29 -127 -78 -63 -58 -66
-63 -47 -71 12 -4 66 -7 120 -7 135 2 189 -17 261 -90 67 -69 104 -135 130
-237 35 -135 19 -282 -45 -421 -54 -118 -142 -194 -292 -253 -18 -6 -47 -26
-65 -43 -34 -31 -34 -31 7 -54 121 -69 147 -73 210 -31 72 47 219 195 245 247
12 24 38 111 58 195 31 127 36 169 37 266 0 135 -10 172 -107 386 -62 138 -62
138 -181 256 -103 103 -176 159 -204 158 -4 -1 -25 -7 -45 -14z"/>
<path d="M3054 5024 c-40 -19 -73 -54 -119 -127 -34 -55 -35 -57 -11 -42 17
12 49 18 94 19 59 1 74 -3 109 -26 56 -37 86 -100 85 -181 0 -74 -17 -123 -71
-213 -23 -37 -41 -75 -41 -84 0 -45 59 -53 110 -15 161 119 189 430 52 586
-31 36 -107 82 -152 92 -14 3 -39 -1 -56 -9z"/>
<path d="M7037 4867 c-2 -12 -12 -49 -21 -82 -8 -33 -34 -188 -56 -344 -22
-156 -42 -287 -44 -290 -3 -4 -12 -72 -21 -151 -9 -80 -23 -178 -31 -219 -7
-41 -12 -76 -10 -78 5 -5 60 209 95 367 66 304 129 798 103 813 -5 4 -12 -3
-15 -16z"/>
<path d="M6131 4831 c-20 -21 -45 -82 -90 -220 -72 -220 -157 -397 -276 -578
-115 -174 -133 -206 -190 -344 -28 -69 -86 -183 -127 -255 -274 -467 -274
-467 -359 -558 -97 -104 -244 -212 -564 -416 -48 -30 -104 -76 -125 -101 -39
-46 -39 -46 43 -23 45 12 127 35 182 50 118 32 206 73 329 156 178 119 315
237 380 327 26 36 34 59 39 107 6 78 37 138 194 381 123 191 144 216 222 262
52 32 103 102 99 138 -5 46 -28 38 -94 -32 -42 -45 -69 -65 -79 -61 -39 15 13
115 99 192 155 137 316 453 376 736 42 199 13 316 -59 239z"/>
<path d="M2997 4704 c-18 -20 -41 -39 -51 -43 -17 -7 -16 -10 16 -34 50 -38
91 -44 117 -18 28 28 28 84 1 111 -29 29 -47 25 -83 -16z"/>
</g>
</svg>
