<?xml version="1.0" standalone="no"?>
<!DOCTYPE svg PUBLIC "-//W3C//DTD SVG 20010904//EN"
 "http://www.w3.org/TR/2001/REC-SVG-20010904/DTD/svg10.dtd">
<svg version="1.0" xmlns="http://www.w3.org/2000/svg"
 width="1000.000000pt" height="1000.000000pt" viewBox="0 0 1000.000000 1000.000000"
 preserveAspectRatio="xMidYMid meet">
<metadata>
  <rdf:RDF
    xmlns:rdf = "http://www.w3.org/1999/02/22-rdf-syntax-ns#"
    xmlns:rdfs = "http://www.w3.org/2000/01/rdf-schema#"
    xmlns:dc = "http://purl.org/dc/elements/1.1/"
    xmlns:cc = "http://creativecommons.org/ns#">
    <cc:license rdf:resource="http://creativecommons.org/publicdomain/zero/1.0/deed.en"/>
    <cc:permits rdf:resource="http://creativecommons.org/ns#Reproduction"/>
    <rdf:Description about="https://nft.mir.one/fingerprints"
      dc:title="TON Fingerprints"
      dc:description="This is a unique digital fingerprint created based on the algorithm for generating basic rings using a noise texture. Like human fingerprints, you can now use it for the Web3 and Metaverse era as digital biometric information."
      dc:publisher="https://nft.mir.one"
      dc:date="2022-02-22"
      dc:format="image/svg+xml"
      dc:language="en" >
      <dc:creator>
      <rdf:Bag>
        <rdf:li>EQBondcvD2_aOFADXSWJHs4ZazQDuEl9_wNvGGPxI8hGuOFU</rdf:li>
        <rdf:li>ipfs://bafkreihj7iub3fhmhq6jn62noukt5wxn3gv6bvcg7wmt6ywvlurefezckq</rdf:li>
      </rdf:Bag>
      </dc:creator>
    </rdf:Description>
  </rdf:RDF>
</metadata>
<g transform="translate(0.000000,1000.000000) scale(0.100000,-0.100000)"
fill="#1b1f23" stroke="none">
<path d="M4550 7743 c-65 -6 -65 -6 30 -24 52 -10 140 -25 195 -34 276 -43
441 -105 755 -283 210 -118 310 -192 635 -467 83 -69 203 -163 268 -207 65
-45 140 -100 165 -122 26 -23 83 -70 127 -106 71 -58 77 -61 53 -27 -16 20
-40 54 -55 75 -105 144 -235 286 -442 485 -235 226 -449 375 -746 522 -327
162 -412 184 -720 189 -110 2 -229 1 -265 -1z"/>
<path d="M4520 7525 c-8 -2 -49 -9 -90 -15 -158 -26 -341 -94 -567 -209 -155
-80 -155 -80 -96 -74 32 2 112 18 178 34 453 110 801 102 1179 -27 134 -46
385 -171 467 -233 101 -77 151 -166 108 -194 -12 -8 -29 -1 -75 30 -245 167
-604 297 -918 334 -282 33 -721 -23 -904 -115 -134 -67 -234 -141 -396 -293
-90 -83 -90 -83 -35 -61 30 12 108 48 174 79 300 143 607 212 945 212 283 0
495 -42 792 -159 260 -102 275 -106 368 -106 81 1 87 -1 140 -35 73 -48 195
-172 248 -253 103 -157 261 -508 353 -780 79 -236 109 -420 109 -665 0 -225
-27 -388 -90 -537 -38 -92 -185 -359 -252 -458 -221 -326 -502 -562 -819 -686
-133 -52 -156 -72 -120 -108 19 -18 33 -21 109 -21 97 1 86 -3 292 110 237
129 372 228 536 390 127 126 212 241 254 342 17 43 58 139 90 213 131 305 170
504 170 866 0 432 -64 661 -309 1113 -89 163 -114 238 -101 297 7 31 5 45 -10
69 -27 43 -473 482 -547 538 -234 178 -570 328 -853 382 -79 15 -296 29 -330
20z"/>
<path d="M4310 6840 c-258 -24 -513 -94 -746 -207 -67 -32 -97 -56 -199 -158
-66 -66 -143 -146 -172 -177 -51 -57 -51 -58 -24 -58 16 0 84 33 167 82 320
187 558 278 849 322 320 49 607 22 941 -89 188 -61 380 -150 491 -227 156
-106 333 -314 333 -390 0 -24 -4 -28 -28 -28 -34 0 -71 26 -207 145 -340 297
-786 465 -1238 465 -336 0 -601 -70 -980 -257 -215 -107 -232 -117 -300 -186
-75 -74 -224 -296 -189 -282 9 4 26 10 37 13 11 3 54 31 97 63 172 127 514
302 730 374 551 181 1079 116 1533 -188 100 -67 407 -294 480 -355 88 -73 201
-276 249 -447 60 -211 78 -451 53 -683 -8 -73 -17 -135 -20 -138 -3 -3 -14 -3
-25 0 -37 12 -52 66 -67 258 -25 297 -59 454 -134 614 -88 187 -186 292 -481
513 -238 179 -335 240 -465 290 -173 68 -277 85 -520 85 -177 0 -229 -3 -330
-22 -152 -29 -357 -97 -500 -166 -206 -100 -455 -287 -523 -393 -74 -115 -155
-329 -185 -488 -13 -65 -14 -128 -9 -330 6 -250 6 -250 18 -135 7 63 13 147
13 187 2 207 65 336 272 559 61 65 129 146 151 178 84 122 164 190 313 263
244 121 493 177 795 177 355 0 526 -64 690 -259 65 -77 98 -104 220 -186 281
-188 393 -341 459 -624 42 -185 73 -383 78 -510 4 -122 3 -133 -19 -175 -13
-25 -31 -46 -40 -48 -32 -6 -49 43 -73 210 -23 158 -58 305 -91 384 -9 21 -20
81 -25 133 -12 128 -46 200 -136 290 -109 107 -256 171 -361 157 -64 -9 -224
-62 -292 -96 -93 -48 -130 -100 -130 -186 0 -43 -4 -49 -104 -154 -75 -78
-114 -128 -139 -179 -94 -188 -64 -425 71 -560 150 -150 392 -129 477 40 64
125 1 285 -126 319 -46 13 -82 7 -125 -19 -74 -45 -85 -169 -18 -200 21 -9 27
-7 46 14 26 30 39 31 62 6 26 -29 13 -77 -27 -102 -74 -45 -172 -9 -223 83
-25 46 -29 63 -29 128 1 91 29 153 98 217 75 69 182 82 282 33 69 -34 175
-142 211 -215 24 -52 29 -72 29 -145 0 -76 -3 -92 -33 -152 -100 -204 -363
-284 -580 -178 -181 90 -301 323 -302 585 0 166 47 268 197 427 102 108 125
146 106 177 -25 40 -165 7 -258 -60 -68 -49 -184 -218 -225 -326 -26 -71 -25
-119 4 -184 13 -30 34 -103 46 -164 11 -60 34 -147 49 -192 76 -220 247 -385
456 -438 76 -19 214 -19 289 0 167 44 348 184 424 329 24 46 27 61 26 156 0
85 -4 116 -23 162 -36 93 -97 174 -191 255 -95 81 -120 117 -98 139 36 36 256
-80 351 -185 75 -83 119 -206 138 -381 21 -187 -2 -269 -83 -300 -51 -19 -79
-38 -186 -122 -157 -124 -289 -178 -459 -185 -177 -8 -319 32 -456 131 -203
144 -313 357 -347 669 -14 138 -32 163 -77 115 -44 -48 -53 -146 -28 -289 80
-460 446 -779 893 -779 256 0 514 138 694 371 22 29 29 32 45 23 11 -7 19 -25
21 -48 12 -142 -270 -367 -569 -452 -82 -24 -103 -26 -203 -21 -300 14 -610
169 -778 388 -168 219 -267 604 -213 823 24 95 126 290 201 385 131 165 134
170 134 211 0 50 -19 65 -64 50 -54 -18 -174 -106 -262 -194 -102 -102 -135
-169 -164 -323 -35 -189 -35 -227 -6 -319 14 -44 35 -127 46 -185 58 -293 146
-484 290 -630 198 -202 616 -372 915 -374 104 0 113 2 160 29 28 16 121 66
207 111 86 45 188 106 227 134 105 78 226 213 303 337 37 60 90 138 118 172
74 92 116 160 148 244 25 61 35 76 65 90 107 52 157 213 157 508 0 242 -44
464 -135 690 -26 63 -60 147 -76 187 -16 39 -38 111 -49 158 -57 246 -247 491
-457 591 -90 42 -462 180 -575 213 -266 77 -509 103 -758 81z m1055 -1694
c117 -53 242 -178 214 -213 -18 -21 -42 -16 -149 36 -145 71 -191 79 -303 51
-98 -25 -197 -23 -263 5 -40 17 -45 47 -11 69 82 54 223 87 352 83 84 -3 110
-8 160 -31z"/>
<path d="M6314 6555 c-4 -8 15 -46 43 -87 192 -282 233 -348 294 -473 126
-253 159 -400 159 -700 0 -535 -54 -840 -200 -1135 -47 -95 -63 -144 -55 -170
17 -55 132 7 201 108 83 121 145 342 174 622 14 147 32 685 25 775 -16 194
-82 418 -185 630 -133 273 -290 445 -407 445 -29 0 -45 -5 -49 -15z"/>
<path d="M4350 5879 c-271 -30 -444 -74 -616 -159 -177 -88 -252 -166 -199
-210 23 -19 67 -8 214 54 169 71 251 93 409 106 70 6 168 18 217 26 148 24
362 29 502 10 148 -19 138 -19 157 0 44 44 -81 128 -239 159 -97 20 -329 27
-445 14z"/>
<path d="M4781 5594 c-280 -21 -430 -62 -479 -132 -38 -52 -25 -106 30 -125
10 -4 60 7 112 23 51 15 145 36 207 45 191 28 364 80 411 122 22 20 23 47 2
67 -18 19 -39 19 -283 0z"/>
<path d="M4035 5533 c-50 -11 -129 -40 -245 -88 -69 -28 -156 -62 -195 -75
-117 -38 -184 -79 -270 -166 -117 -117 -175 -226 -211 -398 -49 -232 -14 -714
76 -1031 62 -220 181 -487 313 -704 59 -96 192 -281 203 -281 3 0 -8 17 -24
38 -118 149 -308 556 -387 832 -60 209 -79 348 -79 585 -1 278 27 439 99 590
45 95 100 154 209 228 50 33 127 87 170 120 86 63 256 166 358 218 78 39 108
65 108 96 0 35 -56 52 -125 36z"/>
<path d="M3502 4883 c-43 -46 -92 -148 -126 -267 -115 -396 -48 -834 203
-1335 108 -214 196 -345 326 -480 97 -101 184 -171 365 -291 243 -162 335
-198 520 -207 91 -4 138 0 350 35 135 22 291 47 347 56 171 26 314 85 498 207
144 95 237 173 361 302 117 122 152 172 275 397 169 308 216 413 304 665 83
241 107 325 61 215 -32 -76 -65 -139 -91 -175 -43 -57 -62 -109 -67 -180 -6
-84 -9 -91 -161 -324 -99 -152 -125 -199 -147 -272 -34 -108 -56 -145 -139
-233 -140 -146 -323 -278 -516 -371 -187 -91 -301 -119 -545 -133 -211 -12
-273 -4 -351 45 -35 22 -122 64 -194 93 -258 106 -452 218 -568 328 -62 60
-87 97 -87 131 0 34 16 32 62 -6 59 -50 216 -151 318 -206 149 -80 475 -207
595 -232 146 -30 384 -16 520 30 153 52 403 185 530 281 187 141 319 308 260
330 -34 13 -83 -14 -270 -150 -49 -36 -133 -87 -185 -115 -91 -47 -240 -101
-280 -101 -12 0 -30 -16 -46 -41 -32 -52 -87 -77 -196 -89 -242 -28 -571 60
-1003 269 -184 88 -205 96 -260 96 -57 0 -64 3 -129 53 -140 106 -174 50 -73
-120 101 -168 200 -268 390 -395 173 -116 278 -162 520 -228 45 -12 57 -20 57
-36 0 -26 -54 -49 -115 -49 -121 0 -272 57 -427 161 -335 224 -494 398 -594
648 -23 58 -83 189 -133 291 -148 302 -205 512 -205 760 0 131 1 138 38 240
101 278 127 408 87 430 -31 16 -41 12 -79 -27z"/>
<path d="M3598 4459 c-42 -23 -53 -207 -23 -379 45 -257 204 -591 327 -683 18
-13 96 -51 173 -82 77 -32 230 -96 340 -143 377 -159 706 -252 956 -268 130
-8 238 2 246 22 17 44 -110 107 -259 129 -123 19 -136 22 -213 45 -33 11 -127
33 -210 50 -287 61 -641 198 -843 327 -226 144 -375 439 -422 833 -6 52 -14
105 -17 118 -7 29 -33 43 -55 31z"/>
<path d="M2942 4430 c0 -14 2 -19 5 -12 2 6 2 18 0 25 -3 6 -5 1 -5 -13z"/>
<path d="M6655 3885 c-5 -2 -30 -9 -54 -15 -36 -10 -68 -35 -190 -154 -264
-257 -497 -417 -748 -517 -43 -17 -86 -38 -95 -46 -46 -42 5 -79 107 -77 108
1 223 51 420 181 66 44 165 106 220 138 115 68 167 114 277 244 98 116 158
204 158 230 0 18 -6 21 -42 20 -24 0 -47 -2 -53 -4z"/>
<path d="M3735 2750 c10 -11 20 -20 23 -20 3 0 -3 9 -13 20 -10 11 -20 20 -23
20 -3 0 3 -9 13 -20z"/>
</g>
</svg>
