<?xml version="1.0" standalone="no"?>
<!DOCTYPE svg PUBLIC "-//W3C//DTD SVG 20010904//EN"
 "http://www.w3.org/TR/2001/REC-SVG-20010904/DTD/svg10.dtd">
<svg version="1.0" xmlns="http://www.w3.org/2000/svg"
 width="1000.000000pt" height="1000.000000pt" viewBox="0 0 1000.000000 1000.000000"
 preserveAspectRatio="xMidYMid meet">
<metadata>
  <rdf:RDF
    xmlns:rdf = "http://www.w3.org/1999/02/22-rdf-syntax-ns#"
    xmlns:rdfs = "http://www.w3.org/2000/01/rdf-schema#"
    xmlns:dc = "http://purl.org/dc/elements/1.1/"
    xmlns:cc = "http://creativecommons.org/ns#">
    <cc:license rdf:resource="http://creativecommons.org/publicdomain/zero/1.0/deed.en"/>
    <cc:permits rdf:resource="http://creativecommons.org/ns#Reproduction"/>
    <rdf:Description about="https://nft.mir.one/fingerprints"
      dc:title="TON Fingerprints"
      dc:description="This is a unique digital fingerprint created based on the algorithm for generating basic rings using a noise texture. Like human fingerprints, you can now use it for the Web3 and Metaverse era as digital biometric information."
      dc:publisher="https://nft.mir.one"
      dc:date="2022-02-22"
      dc:format="image/svg+xml"
      dc:language="en" >
      <dc:creator>
      <rdf:Bag>
        <rdf:li>EQBondcvD2_aOFADXSWJHs4ZazQDuEl9_wNvGGPxI8hGuOFU</rdf:li>
        <rdf:li>ipfs://bafkreihj7iub3fhmhq6jn62noukt5wxn3gv6bvcg7wmt6ywvlurefezckq</rdf:li>
      </rdf:Bag>
      </dc:creator>
    </rdf:Description>
  </rdf:RDF>
</metadata>
<g transform="translate(0.000000,1000.000000) scale(0.100000,-0.100000)"
fill="#1b1f23" stroke="none">
<path d="M4918 7803 c7 -3 16 -2 19 1 4 3 -2 6 -13 5 -11 0 -14 -3 -6 -6z"/>
<path d="M4785 7775 c-184 -48 -364 -126 -569 -245 -60 -34 -121 -66 -135 -70
-26 -6 -26 -7 -5 -18 30 -16 70 -2 189 63 184 102 420 216 531 255 124 44 120
50 -11 15z"/>
<path d="M5097 7680 c-133 -14 -321 -55 -438 -95 -95 -33 -138 -54 -339 -164
-36 -19 -115 -56 -175 -81 -142 -59 -218 -111 -332 -227 -112 -114 -174 -198
-211 -291 -16 -39 -54 -113 -85 -164 -67 -114 -99 -188 -127 -298 -12 -47 -54
-170 -94 -275 -109 -282 -176 -545 -194 -751 -5 -66 -11 -89 -24 -98 -13 -8
-23 -8 -35 0 -28 17 -75 142 -81 212 -2 34 -9 62 -13 62 -12 0 -11 -95 1 -195
5 -44 18 -161 30 -260 44 -383 117 -700 200 -865 50 -99 150 -222 305 -375 84
-82 178 -183 209 -223 68 -86 104 -112 211 -148 60 -20 106 -28 185 -32 130
-5 177 6 207 50 12 18 43 47 68 63 42 28 66 67 50 83 -4 4 -88 7 -188 7 -180
0 -183 0 -257 31 -100 40 -167 84 -294 194 -172 149 -283 287 -356 444 -105
225 -199 592 -203 791 -2 81 -2 81 44 132 41 46 128 182 173 271 10 18 42 95
72 170 88 219 158 323 267 393 73 47 135 71 302 115 178 47 326 97 477 161
227 95 363 123 635 130 294 8 543 -26 843 -117 380 -116 655 -260 915 -481 61
-52 127 -106 147 -122 36 -26 35 -24 -34 85 -168 268 -253 341 -571 493 -392
187 -865 288 -1282 272 -290 -12 -418 -38 -795 -162 -286 -94 -354 -110 -400
-94 -81 29 -12 73 263 167 435 151 713 198 1112 189 239 -5 350 -18 554 -63
321 -72 635 -201 891 -369 52 -34 116 -73 141 -87 47 -25 47 -25 -37 77 -136
167 -230 248 -359 310 -246 118 -534 200 -865 247 -142 19 -581 17 -745 -5
-348 -47 -761 -159 -930 -254 -50 -27 -83 -58 -138 -126 -56 -70 -134 -103
-191 -81 -41 16 11 121 100 203 94 86 240 150 528 232 501 142 1044 187 1489
124 280 -39 620 -140 832 -248 33 -17 89 -41 125 -53 64 -23 64 -23 10 26
-153 138 -267 221 -371 270 -83 38 -338 103 -520 132 -125 19 -183 22 -444 23
-315 0 -379 -5 -735 -61 -166 -26 -684 -151 -789 -190 -108 -41 -165 -27 -127
31 9 13 49 52 90 86 53 44 82 78 102 117 48 95 138 152 374 238 128 46 138 52
195 109 48 49 76 67 140 93 150 60 368 115 560 142 95 13 433 39 525 41 58 1
51 3 -70 20 -164 22 -404 31 -523 19z"/>
<path d="M5160 7494 c-219 -28 -574 -116 -652 -162 -33 -19 -36 -37 -9 -52 31
-16 81 -12 244 20 478 94 816 109 1200 55 92 -13 230 -24 224 -19 -9 9 -278
105 -342 122 -197 53 -437 66 -665 36z"/>
<path d="M5195 7269 c-60 -5 -184 -21 -275 -35 -268 -40 -372 -54 -428 -54
-194 -1 -565 -155 -539 -224 10 -26 79 -19 206 19 178 53 268 72 501 105 329
46 460 60 640 66 331 13 667 -32 1000 -133 80 -24 204 -53 197 -46 -2 1 -55
35 -118 74 -206 130 -356 189 -545 214 -145 20 -490 27 -639 14z"/>
<path d="M4955 6344 c-145 -20 -190 -28 -253 -45 -88 -23 -158 -58 -192 -94
-35 -38 -61 -50 -257 -116 -337 -114 -480 -210 -579 -385 -43 -78 -71 -159
-79 -232 -5 -44 1 -96 29 -233 55 -274 80 -321 228 -441 127 -102 198 -221
154 -257 -11 -9 -32 3 -102 59 -108 84 -183 126 -247 135 -43 7 -50 12 -73 52
-37 62 -71 175 -84 279 -28 220 -39 254 -81 254 -28 0 -67 -56 -89 -127 -31
-100 -35 -182 -15 -318 19 -133 100 -467 135 -558 52 -138 217 -323 384 -432
147 -96 227 -124 431 -149 66 -8 140 -22 164 -30 98 -35 291 -3 450 76 150 74
308 251 373 420 89 230 88 434 -2 712 -46 140 -85 204 -168 269 -112 88 -235
136 -440 173 -151 27 -181 76 -55 88 132 13 332 -34 473 -110 75 -41 189 -126
240 -179 23 -24 53 -41 90 -52 111 -32 218 -190 277 -409 24 -88 27 -117 27
-269 1 -129 -3 -191 -17 -255 -26 -118 -80 -281 -146 -440 -101 -241 -160
-326 -291 -418 -115 -81 -159 -122 -220 -207 -101 -139 -211 -225 -373 -289
-149 -59 -285 -68 -383 -25 -48 20 -54 21 -244 9 -171 -11 -201 -15 -240 -36
-33 -17 -39 -23 -23 -24 12 0 63 -16 113 -35 207 -79 378 -110 523 -95 292 29
529 148 741 371 118 124 174 169 210 169 28 0 28 -1 23 -41 -12 -88 -185 -290
-341 -398 -100 -69 -279 -154 -391 -186 -49 -14 -153 -36 -230 -49 -147 -26
-235 -49 -219 -58 25 -15 283 -30 405 -25 166 7 236 24 364 86 135 66 256 154
363 265 110 114 161 198 211 351 21 66 53 155 70 199 21 51 37 116 46 186 10
79 33 167 84 322 102 314 116 386 116 593 -1 141 -4 185 -23 257 -69 276 -184
450 -410 618 -251 187 -506 294 -707 295 -78 0 -97 -4 -145 -27 -33 -17 -63
-41 -76 -60 -17 -27 -45 -44 -145 -87 -148 -65 -212 -74 -217 -30 -6 55 227
232 380 287 64 24 88 27 193 27 119 0 122 -1 273 -53 282 -97 480 -211 642
-371 102 -101 161 -182 225 -308 99 -196 139 -363 140 -573 0 -135 -3 -155
-38 -291 -20 -80 -68 -237 -107 -349 -38 -113 -70 -215 -70 -227 0 -22 24 -53
40 -53 5 0 25 14 45 32 48 41 112 176 170 358 26 80 63 192 83 250 32 94 36
119 40 230 6 197 -43 397 -153 625 -185 386 -458 619 -886 758 -138 46 -184
65 -230 99 -54 40 -270 41 -421 3 -220 -56 -408 -225 -408 -367 0 -15 5 -47
12 -71 10 -38 8 -55 -15 -138 -14 -52 -31 -137 -37 -191 -11 -107 -16 -124
-35 -131 -38 -15 -85 65 -111 193 -22 113 -16 328 14 418 45 139 156 261 311
340 146 75 262 102 451 102 63 1 151 7 195 15 168 31 232 36 340 25 189 -19
414 -91 568 -180 84 -49 320 -283 375 -371 30 -48 96 -166 249 -444 131 -238
227 -520 280 -820 27 -154 24 -447 -6 -585 -75 -353 -260 -692 -472 -866 -30
-24 -94 -65 -144 -91 -127 -65 -195 -116 -310 -233 -100 -102 -100 -102 -20
-50 215 143 436 300 503 358 238 208 460 583 552 933 48 184 63 304 57 464 -4
122 -10 160 -45 295 -22 85 -54 193 -71 240 -53 144 -165 357 -281 534 -109
167 -128 205 -115 225 13 22 34 9 106 -67 243 -255 431 -621 510 -992 12 -58
32 -148 44 -200 22 -95 22 -95 30 35 12 207 -13 479 -56 610 -50 149 -205 379
-364 541 -102 104 -118 116 -215 163 -80 38 -126 69 -193 128 -117 103 -172
187 -137 208 5 3 130 -74 277 -172 229 -151 283 -192 369 -278 144 -144 269
-309 348 -460 26 -50 76 -117 76 -102 0 21 -63 255 -84 310 -45 120 -78 171
-170 266 -203 209 -487 410 -668 472 -60 21 -71 22 -115 11 -48 -13 -49 -13
-163 41 -383 180 -669 229 -1055 182 -158 -19 -238 -17 -263 9 -31 32 4 46
207 82 342 60 625 31 1044 -105 117 -38 253 -81 302 -96 232 -69 454 -210 739
-470 119 -108 203 -175 220 -175 5 0 -112 192 -164 270 -49 71 -115 136 -234
225 -205 153 -372 237 -667 336 -357 119 -559 159 -839 164 -102 2 -198 1
-215 -1z m-218 -1140 c286 -70 436 -278 437 -604 1 -104 -3 -138 -23 -200
-110 -357 -406 -550 -782 -511 -217 22 -364 73 -525 182 -96 64 -215 183 -244
244 -22 46 -24 106 -3 112 6 2 48 -32 92 -76 90 -91 242 -195 349 -241 167
-71 399 -94 556 -56 164 39 325 161 398 301 48 93 68 174 68 282 0 197 -85
345 -245 424 -60 29 -80 34 -164 37 -81 3 -105 0 -156 -19 -157 -59 -233 -247
-162 -401 32 -70 113 -176 151 -199 106 -65 282 31 316 170 23 97 -32 195
-106 189 -51 -4 -66 -29 -36 -61 29 -31 28 -51 -4 -76 -66 -52 -154 8 -154
104 0 36 34 99 63 118 107 70 258 21 325 -107 24 -45 27 -62 27 -147 0 -90 -2
-99 -38 -171 -67 -136 -190 -220 -383 -260 -125 -25 -258 -21 -354 11 -133 45
-438 209 -523 279 -39 33 -47 135 -12 149 10 3 41 -19 84 -60 92 -86 180 -135
276 -152 47 -8 106 -28 159 -55 128 -63 246 -67 246 -8 0 13 -28 48 -74 92
-118 114 -162 213 -154 345 12 190 137 345 308 381 61 13 204 5 287 -16z"/>
<path d="M4990 5913 c-43 -7 -80 -25 -80 -39 0 -23 41 -41 145 -64 464 -103
746 -310 981 -721 137 -238 218 -483 259 -782 13 -94 24 -133 53 -195 37 -76
37 -78 37 -202 -1 -271 -90 -503 -331 -861 -74 -110 -138 -214 -142 -232 -11
-38 1 -67 27 -67 31 0 110 60 179 137 186 207 312 441 378 706 32 126 44 363
24 485 -23 149 -92 438 -135 569 -65 198 -210 490 -344 693 -65 98 -218 261
-309 331 -82 62 -233 139 -349 177 -130 44 -325 76 -393 65z"/>
<path d="M2952 5615 c0 -16 2 -22 5 -12 2 9 2 23 0 30 -3 6 -5 -1 -5 -18z"/>
<path d="M5337 5053 c-15 -14 -5 -74 28 -173 63 -187 83 -331 66 -481 -37
-332 -227 -642 -465 -759 -55 -28 -137 -54 -256 -84 -164 -41 -345 -108 -379
-141 -21 -21 -6 -43 38 -55 33 -9 66 -7 168 10 98 16 164 20 278 18 149 -2
150 -2 215 28 170 81 298 222 406 449 180 378 191 755 30 1060 -31 59 -94 135
-113 135 -5 0 -13 -3 -16 -7z"/>
<path d="M3010 4135 c0 -11 80 -165 129 -247 60 -101 161 -228 236 -296 99
-90 215 -130 223 -75 5 35 -22 66 -157 183 -124 106 -240 220 -296 290 -40 50
-135 152 -135 145z"/>
<path d="M6216 4075 c-13 -14 -32 -57 -44 -97 -11 -40 -35 -122 -52 -183 -53
-187 -129 -330 -238 -448 -74 -80 -120 -156 -213 -344 -92 -187 -162 -287
-275 -392 -174 -163 -291 -229 -659 -377 -34 -14 -47 -22 -30 -20 17 3 83 12
148 21 273 36 493 123 694 274 131 98 199 183 237 299 37 109 90 209 205 386
54 83 115 180 134 216 78 143 137 330 158 499 18 149 -12 224 -65 166z"/>
<path d="M3327 3427 c70 -68 124 -130 139 -158 13 -26 43 -64 68 -85 24 -22
62 -62 85 -91 27 -35 58 -60 98 -80 55 -26 64 -28 172 -25 149 3 224 16 346
58 55 19 158 51 229 70 293 81 384 128 317 164 -29 15 -93 12 -216 -10 -152
-28 -383 -43 -550 -37 -111 4 -158 10 -228 31 -104 31 -241 93 -370 169 -52
31 -119 67 -149 80 -56 25 -56 25 59 -86z"/>
<path d="M3395 3230 c-19 -8 -19 -9 2 -9 12 -1 25 4 28 9 7 12 -2 12 -30 0z"/>
<path d="M4805 3165 c-59 -51 -154 -98 -302 -149 -147 -50 -168 -59 -200 -89
-80 -72 52 -89 237 -32 215 68 399 213 360 285 -16 29 -50 24 -95 -15z"/>
<path d="M3508 3023 c7 -3 16 -2 19 1 4 3 -2 6 -13 5 -11 0 -14 -3 -6 -6z"/>
</g>
</svg>
