<?xml version="1.0" standalone="no"?>
<!DOCTYPE svg PUBLIC "-//W3C//DTD SVG 20010904//EN"
 "http://www.w3.org/TR/2001/REC-SVG-20010904/DTD/svg10.dtd">
<svg version="1.0" xmlns="http://www.w3.org/2000/svg"
 width="1000.000000pt" height="1000.000000pt" viewBox="0 0 1000.000000 1000.000000"
 preserveAspectRatio="xMidYMid meet">
<metadata>
  <rdf:RDF
    xmlns:rdf = "http://www.w3.org/1999/02/22-rdf-syntax-ns#"
    xmlns:rdfs = "http://www.w3.org/2000/01/rdf-schema#"
    xmlns:dc = "http://purl.org/dc/elements/1.1/"
    xmlns:cc = "http://creativecommons.org/ns#">
    <cc:license rdf:resource="http://creativecommons.org/publicdomain/zero/1.0/deed.en"/>
    <cc:permits rdf:resource="http://creativecommons.org/ns#Reproduction"/>
    <rdf:Description about="https://nft.mir.one/fingerprints"
      dc:title="TON Fingerprints"
      dc:description="This is a unique digital fingerprint created based on the algorithm for generating basic rings using a noise texture. Like human fingerprints, you can now use it for the Web3 and Metaverse era as digital biometric information."
      dc:publisher="https://nft.mir.one"
      dc:date="2022-02-22"
      dc:format="image/svg+xml"
      dc:language="en" >
      <dc:creator>
      <rdf:Bag>
        <rdf:li>EQBondcvD2_aOFADXSWJHs4ZazQDuEl9_wNvGGPxI8hGuOFU</rdf:li>
        <rdf:li>ipfs://bafkreihj7iub3fhmhq6jn62noukt5wxn3gv6bvcg7wmt6ywvlurefezckq</rdf:li>
      </rdf:Bag>
      </dc:creator>
    </rdf:Description>
  </rdf:RDF>
</metadata>
<g transform="translate(0.000000,1000.000000) scale(0.100000,-0.100000)"
fill="#1b1f23" stroke="none">
<path d="M4795 7777 c61 -21 258 -132 370 -208 55 -37 147 -110 203 -161 289
-260 407 -349 562 -425 99 -48 125 -67 191 -133 195 -198 396 -601 464 -934
37 -179 52 -496 37 -759 -14 -230 -26 -306 -83 -535 -75 -303 -154 -521 -303
-837 -64 -135 -66 -142 -66 -218 0 -204 -90 -435 -219 -561 -33 -32 -50 -40
-111 -52 -49 -9 -101 -29 -159 -61 -47 -25 -120 -65 -161 -88 -142 -77 -227
-103 -244 -76 -18 29 65 86 479 326 119 69 196 144 236 229 30 64 35 91 20
115 -14 21 -43 5 -120 -64 -93 -83 -181 -146 -401 -286 -151 -95 -216 -144
-290 -215 -106 -101 -347 -288 -457 -353 -84 -50 -81 -46 -123 -131 -19 -36
-40 -73 -48 -82 -18 -21 -14 -22 25 -7 64 25 238 51 383 58 142 7 171 12 350
60 238 64 269 74 345 120 96 57 285 203 346 268 132 138 233 349 338 702 29
96 89 276 135 400 88 238 144 404 196 586 17 61 52 173 76 250 70 218 75 271
68 685 -5 326 -8 364 -30 467 -54 246 -108 392 -235 628 -122 228 -222 376
-332 491 -115 121 -185 171 -324 232 -165 73 -226 114 -358 242 -129 126 -182
160 -350 230 -112 46 -299 97 -390 105 -60 5 -60 5 -20 -8z m1099 -4924 c-2
-43 -33 -83 -114 -149 -91 -73 -206 -138 -299 -168 -198 -64 -425 -127 -449
-124 -42 5 -40 39 5 78 56 50 145 87 274 114 64 13 149 38 191 55 71 30 235
131 323 200 50 38 71 36 69 -6z"/>
<path d="M4645 7679 c-15 -23 7 -80 50 -127 25 -28 100 -92 167 -144 545 -419
646 -523 792 -815 71 -143 113 -250 215 -543 45 -129 91 -260 103 -290 44
-111 86 -152 127 -124 18 13 21 25 21 87 -1 174 -113 512 -285 857 -29 58 -69
149 -90 203 -21 55 -54 119 -75 145 -89 111 -373 369 -562 508 -141 104 -201
140 -306 181 -48 19 -94 43 -104 54 -18 21 -43 25 -53 8z"/>
<path d="M4196 7549 c16 -17 49 -45 74 -62 84 -57 121 -92 176 -164 30 -40 80
-95 112 -123 100 -88 360 -268 464 -322 78 -40 117 -68 174 -124 118 -118 271
-372 292 -484 10 -54 2 -94 -20 -98 -21 -4 -49 34 -141 189 -183 310 -307 445
-363 398 -23 -19 -16 -42 41 -135 31 -49 80 -138 110 -199 73 -146 161 -258
255 -320 86 -57 117 -97 180 -230 124 -262 181 -459 183 -630 1 -124 -4 -140
-90 -286 -60 -101 -100 -190 -189 -414 -231 -587 -462 -936 -941 -1421 -158
-160 -187 -185 -258 -221 -98 -50 -154 -68 -270 -88 -96 -16 -128 -14 -187 16
-25 13 -57 19 -100 18 -63 0 -63 0 -13 -16 62 -19 108 -51 101 -69 -3 -8 1
-14 10 -14 12 0 15 -7 12 -24 -5 -22 -1 -24 51 -29 31 -3 97 -13 146 -22 131
-25 213 -23 320 9 50 15 113 38 141 50 46 21 52 28 59 62 12 64 33 94 174 239
75 77 163 178 196 224 33 47 114 157 181 245 155 208 208 287 292 438 163 290
244 470 346 772 43 126 78 214 88 220 26 15 56 -18 64 -70 8 -55 -16 -201 -52
-314 -47 -149 -123 -315 -236 -512 -60 -106 -127 -227 -148 -268 -44 -87 -94
-155 -215 -295 -136 -157 -175 -223 -175 -298 0 -23 -14 -43 -68 -96 -80 -79
-183 -162 -314 -256 -54 -39 -98 -75 -98 -82 0 -6 12 -21 28 -33 23 -19 37
-21 93 -18 88 5 155 39 342 178 81 60 187 133 235 161 48 29 189 121 314 206
253 171 329 213 381 213 57 0 114 77 105 141 -2 20 -10 24 -44 27 -34 3 -69
-12 -230 -92 -159 -80 -216 -116 -359 -222 -93 -70 -189 -136 -213 -146 -68
-31 -136 -14 -98 24 66 66 378 340 419 368 29 20 77 41 106 48 110 25 325 155
404 242 169 188 330 641 383 1081 22 178 26 836 6 949 -59 336 -247 735 -434
923 -59 60 -71 68 -100 65 -30 -3 -33 -6 -36 -38 -2 -28 12 -60 69 -160 259
-451 364 -820 300 -1052 -24 -90 -26 -121 -22 -488 3 -309 -8 -415 -60 -610
-80 -299 -178 -481 -362 -667 -166 -169 -215 -196 -204 -112 4 28 35 81 116
196 225 320 341 628 341 905 0 112 -41 467 -65 560 -8 32 -41 113 -74 180
-101 209 -178 415 -242 648 -61 222 -168 431 -301 587 -69 82 -148 150 -343
296 -216 163 -293 226 -406 334 -79 75 -105 94 -150 108 -48 14 -202 34 -268
35 -25 0 -25 0 5 -31z"/>
<path d="M5610 7561 c0 -73 263 -237 346 -217 29 8 34 46 6 46 -10 0 -76 34
-146 76 -71 41 -146 84 -168 95 -38 19 -38 19 -38 0z"/>
<path d="M6226 7270 c153 -159 190 -202 278 -333 74 -109 139 -233 185 -353
29 -76 73 -136 88 -121 3 4 2 7 -4 7 -6 0 -32 48 -58 108 -124 278 -279 497
-511 722 -105 102 -105 101 22 -30z"/>
<path d="M4020 7346 c-30 -7 -92 -25 -138 -39 -46 -15 -95 -27 -110 -28 -48
-1 66 -29 163 -40 50 -5 135 -18 190 -28 159 -30 162 -31 195 -20 56 20 37 72
-48 126 -49 32 -65 37 -127 39 -38 2 -95 -3 -125 -10z"/>
<path d="M3835 7099 c-47 -8 -90 -21 -257 -82 -67 -24 -67 -24 5 -40 40 -8
128 -21 197 -27 151 -14 354 -50 473 -85 204 -59 308 -126 523 -336 139 -136
167 -159 193 -159 28 0 31 3 31 30 0 35 -13 63 -74 158 -24 37 -58 96 -77 131
-44 83 -110 156 -201 218 -138 95 -230 131 -383 148 -33 4 -130 18 -215 31
-85 13 -157 23 -160 23 -3 -1 -27 -5 -55 -10z"/>
<path d="M3562 6800 c-29 -10 -96 -42 -149 -71 -96 -52 -96 -52 -52 -65 25 -8
93 -14 157 -14 289 0 593 -65 806 -172 150 -75 426 -261 589 -396 148 -123
301 -333 368 -506 53 -138 71 -243 66 -386 -4 -144 -24 -210 -61 -210 -32 0
-45 31 -62 148 -42 306 -83 428 -213 622 -156 235 -521 511 -845 640 -170 67
-404 109 -609 110 -100 0 -124 -3 -160 -21 -66 -33 -122 -84 -182 -164 -31
-41 -71 -86 -88 -101 -22 -19 -26 -25 -12 -21 11 3 34 9 50 13 17 4 55 19 85
34 177 89 431 100 702 31 219 -55 428 -162 623 -318 265 -212 409 -443 459
-734 68 -398 70 -477 17 -681 -107 -415 -377 -817 -663 -989 -85 -51 -156 -74
-334 -105 -231 -40 -460 -49 -646 -25 -31 4 -74 5 -96 2 -40 -6 -40 -6 54 -65
152 -94 187 -105 334 -106 76 0 177 8 260 21 198 30 244 33 268 20 43 -23 27
-49 -50 -86 -121 -57 -224 -76 -448 -81 -107 -2 -215 -6 -239 -10 -44 -6 -44
-6 35 -41 122 -54 257 -101 311 -108 79 -11 225 19 318 64 88 44 145 95 184
168 18 32 65 81 151 155 147 126 222 203 328 336 208 262 337 505 467 881 69
201 97 265 147 339 127 185 146 407 57 672 -65 194 -133 306 -296 485 -144
158 -192 199 -256 220 -61 19 -140 71 -295 193 -183 144 -329 219 -532 271
-254 65 -459 84 -548 51z"/>
<path d="M3535 6164 c-76 -11 -153 -27 -212 -45 -52 -16 -77 -32 -135 -87 -39
-37 -97 -99 -130 -139 -59 -72 -59 -72 -16 -58 24 7 93 34 154 59 146 61 246
85 374 93 362 20 743 -155 992 -458 145 -177 258 -434 195 -447 -32 -7 -66 27
-146 146 -187 279 -327 410 -555 518 -258 122 -537 133 -800 32 -118 -46 -173
-102 -279 -289 -54 -96 -54 -96 -18 -73 20 13 68 47 106 75 161 119 345 180
541 180 151 0 257 -25 399 -96 189 -93 322 -219 480 -455 150 -224 183 -324
172 -510 -15 -233 -114 -453 -281 -628 -128 -134 -263 -210 -441 -252 -121
-28 -181 -31 -415 -21 -162 7 -232 14 -285 29 -135 39 -134 39 -33 -47 51 -45
120 -95 153 -113 60 -33 60 -33 295 -33 222 1 242 2 353 28 195 46 304 99 430
206 222 189 387 484 442 795 15 83 17 129 11 274 -5 123 -3 198 6 250 17 105
-4 201 -77 347 -171 342 -556 622 -965 701 -77 15 -262 26 -315 18z"/>
<path d="M6982 5602 c-18 -6 -15 -89 7 -212 11 -58 26 -177 35 -265 23 -220
34 -293 51 -324 14 -24 15 -22 10 39 -2 36 -7 133 -10 215 -10 249 -62 558
-93 547z"/>
<path d="M3520 5529 c-99 -8 -177 -32 -272 -81 -110 -57 -161 -106 -203 -193
-60 -125 -78 -209 -78 -375 0 -165 18 -250 77 -374 48 -100 95 -151 156 -171
71 -24 159 -21 212 6 54 27 197 138 232 180 63 74 83 160 50 207 -23 33 -36
27 -68 -33 -81 -156 -267 -231 -402 -162 -201 102 -251 377 -108 592 164 248
530 310 798 136 75 -50 179 -155 229 -232 80 -125 116 -247 124 -419 7 -149
-4 -211 -54 -313 -102 -204 -367 -350 -581 -320 -83 12 -103 24 -86 51 8 12
46 24 125 40 71 14 141 36 187 58 81 39 189 133 227 198 34 57 50 133 36 169
-20 52 -55 32 -134 -79 -46 -64 -119 -133 -180 -168 -84 -49 -146 -67 -264
-76 -88 -7 -126 -15 -169 -34 -31 -14 -69 -26 -85 -26 -22 0 -188 75 -294 132
-19 11 -19 10 -2 -13 9 -13 39 -60 67 -104 75 -121 175 -243 226 -274 77 -49
144 -49 144 -1 0 10 -23 46 -50 81 -53 65 -64 110 -29 117 31 6 113 -53 149
-106 52 -78 116 -107 235 -106 274 2 539 175 664 437 54 112 71 182 78 317 7
144 -14 238 -86 385 -105 218 -270 389 -464 480 -128 61 -265 86 -407 74z"/>
<path d="M3449 5206 c-200 -56 -322 -251 -265 -424 20 -61 86 -125 142 -141
50 -14 51 -14 110 4 67 20 189 134 179 167 -18 64 -103 98 -153 62 -19 -13
-23 -24 -20 -57 2 -34 0 -42 -15 -45 -34 -7 -67 8 -82 38 -55 107 51 230 200
230 112 0 229 -79 277 -188 69 -155 3 -318 -191 -470 -70 -56 -91 -78 -91 -97
0 -32 26 -38 83 -21 85 26 141 67 288 217 140 141 147 150 154 196 15 115 -53
289 -154 391 -122 124 -309 180 -462 138z"/>
<path d="M6959 4715 c-43 -23 -76 -104 -143 -346 -35 -129 -106 -351 -156
-494 -51 -143 -126 -359 -167 -480 -41 -121 -96 -274 -123 -340 -27 -66 -56
-149 -65 -185 -9 -36 -19 -74 -22 -85 -9 -33 164 270 237 415 113 225 225 505
323 805 60 185 84 286 121 500 14 78 30 153 37 167 11 26 7 58 -8 58 -4 -1
-19 -7 -34 -15z"/>
<path d="M6013 2595 c-21 -15 -149 -165 -140 -165 2 0 41 41 86 90 45 50 81
90 79 90 -2 0 -13 -7 -25 -15z"/>
<path d="M4310 2501 c-41 -10 -91 -26 -110 -36 -19 -10 -46 -21 -60 -25 -40
-11 269 -33 348 -25 82 8 108 22 98 52 -17 53 -134 67 -276 34z"/>
<path d="M5451 2285 c-30 -14 -51 -28 -48 -31 3 -3 31 8 63 25 71 36 60 41
-15 6z"/>
</g>
</svg>
