<?xml version="1.0" standalone="no"?>
<!DOCTYPE svg PUBLIC "-//W3C//DTD SVG 20010904//EN"
 "http://www.w3.org/TR/2001/REC-SVG-20010904/DTD/svg10.dtd">
<svg version="1.0" xmlns="http://www.w3.org/2000/svg"
 width="1000.000000pt" height="1000.000000pt" viewBox="0 0 1000.000000 1000.000000"
 preserveAspectRatio="xMidYMid meet">
<metadata>
  <rdf:RDF
    xmlns:rdf = "http://www.w3.org/1999/02/22-rdf-syntax-ns#"
    xmlns:rdfs = "http://www.w3.org/2000/01/rdf-schema#"
    xmlns:dc = "http://purl.org/dc/elements/1.1/"
    xmlns:cc = "http://creativecommons.org/ns#">
    <cc:license rdf:resource="http://creativecommons.org/publicdomain/zero/1.0/deed.en"/>
    <cc:permits rdf:resource="http://creativecommons.org/ns#Reproduction"/>
    <rdf:Description about="https://nft.mir.one/fingerprints"
      dc:title="TON Fingerprints"
      dc:description="This is a unique digital fingerprint created based on the algorithm for generating basic rings using a noise texture. Like human fingerprints, you can now use it for the Web3 and Metaverse era as digital biometric information."
      dc:publisher="https://nft.mir.one"
      dc:date="2022-02-22"
      dc:format="image/svg+xml"
      dc:language="en" >
      <dc:creator>
      <rdf:Bag>
        <rdf:li>EQBondcvD2_aOFADXSWJHs4ZazQDuEl9_wNvGGPxI8hGuOFU</rdf:li>
        <rdf:li>ipfs://bafkreihj7iub3fhmhq6jn62noukt5wxn3gv6bvcg7wmt6ywvlurefezckq</rdf:li>
      </rdf:Bag>
      </dc:creator>
    </rdf:Description>
  </rdf:RDF>
</metadata>
<g transform="translate(0.000000,1000.000000) scale(0.100000,-0.100000)"
fill="#1b1f23" stroke="none">
<path d="M4855 7774 c-220 -33 -445 -101 -635 -190 -107 -51 -260 -139 -260
-150 0 -3 19 7 43 21 221 138 815 315 1068 319 84 1 100 -2 119 -19 16 -14 22
-16 18 -5 -9 29 -51 40 -158 39 -58 -1 -145 -7 -195 -15z"/>
<path d="M5212 7694 c-33 -21 -84 -33 -240 -60 -312 -52 -486 -103 -700 -205
-206 -98 -319 -182 -395 -297 -25 -37 -86 -112 -136 -167 -261 -286 -359 -508
-428 -970 -25 -174 -25 -609 1 -750 22 -124 68 -269 111 -355 43 -86 115 -180
156 -204 31 -18 33 -18 45 -1 17 23 12 42 -47 190 -104 259 -137 511 -109 835
13 152 32 254 80 432 22 81 44 187 49 237 11 102 39 179 96 266 52 79 146 174
215 217 58 36 466 215 611 268 211 76 554 159 824 200 234 36 659 38 805 4 44
-10 -132 67 -222 97 -156 53 -269 72 -423 72 -140 1 -140 1 -428 -71 -466
-117 -603 -163 -878 -293 -174 -83 -239 -99 -239 -61 0 52 204 178 437 271
144 57 266 94 515 156 123 31 266 73 319 95 90 36 280 80 344 80 17 0 25 4 20
9 -11 9 -223 31 -297 31 -28 -1 -58 -10 -86 -26z"/>
<path d="M3929 7413 c-13 -16 -12 -17 4 -4 9 7 17 15 17 17 0 8 -8 3 -21 -13z"/>
<path d="M3889 7383 c-13 -16 -12 -17 4 -4 9 7 17 15 17 17 0 8 -8 3 -21 -13z"/>
<path d="M3825 7328 c-40 -43 -40 -43 3 -3 23 21 42 40 42 42 0 8 -9 0 -45
-39z"/>
<path d="M3685 7188 c-60 -63 -60 -63 3 -3 58 55 67 65 59 65 -1 0 -29 -28
-62 -62z"/>
<path d="M5750 7230 c-30 -5 -131 -13 -225 -19 -509 -33 -945 -148 -1355 -357
-163 -83 -258 -152 -341 -250 -64 -74 -119 -169 -119 -207 0 -31 23 -51 52
-44 13 4 77 58 143 122 66 63 154 140 195 169 93 67 253 152 386 204 369 147
917 226 1172 171 23 -5 89 -32 145 -59 71 -34 145 -60 247 -85 240 -60 397
-119 495 -189 16 -11 66 -39 111 -61 81 -40 81 -40 -37 84 -201 211 -317 284
-469 296 -172 13 -330 48 -330 74 0 6 11 18 25 27 22 14 45 15 179 9 149 -7
196 -1 196 24 0 11 -119 64 -189 85 -58 17 -185 20 -281 6z"/>
<path d="M3584 7078 c-29 -33 -29 -33 4 -4 30 28 37 36 29 36 -2 0 -16 -15
-33 -32z"/>
<path d="M3519 7003 c-13 -16 -12 -17 4 -4 16 13 21 21 13 21 -2 0 -10 -8 -17
-17z"/>
<path d="M5205 6893 c-187 -16 -482 -77 -625 -129 -260 -93 -409 -193 -681
-458 -119 -116 -141 -143 -173 -209 -77 -159 -119 -409 -119 -712 -1 -210 4
-244 74 -483 41 -143 49 -222 29 -294 -15 -51 -36 -54 -122 -18 -108 45 -193
120 -265 234 -68 106 -131 316 -158 523 -17 130 -20 460 -5 623 6 58 15 166
20 240 6 74 17 162 25 195 7 33 12 61 10 63 -1 2 -12 -25 -24 -60 -52 -160
-111 -447 -138 -678 -21 -187 -13 -556 15 -685 22 -97 81 -272 106 -310 28
-43 248 -223 310 -254 33 -17 99 -40 146 -52 50 -12 120 -39 170 -66 314 -170
397 -205 558 -238 92 -18 278 -21 377 -6 476 77 830 404 871 805 29 291 -238
546 -573 546 -141 0 -353 -39 -438 -80 -83 -40 -131 -93 -189 -212 -57 -114
-83 -140 -111 -111 -16 15 -17 32 -12 153 6 139 24 229 52 260 9 9 36 20 61
24 25 3 76 15 115 27 55 17 87 20 157 17 48 -3 148 2 222 10 229 24 370 7 518
-63 224 -106 355 -306 339 -515 -12 -152 -75 -328 -169 -472 -174 -266 -454
-446 -833 -534 -103 -24 -141 -28 -270 -28 -124 0 -167 4 -245 23 -196 48
-369 123 -610 262 -192 111 -261 162 -373 280 -57 60 -111 109 -120 109 -29 0
-50 -45 -42 -89 27 -158 224 -356 553 -555 203 -122 397 -192 598 -216 211
-25 246 -38 229 -86 -18 -50 -73 -69 -217 -72 -140 -4 -205 6 -354 59 -240 84
-569 306 -766 518 -40 44 -95 99 -122 122 -48 42 -48 42 22 -98 89 -177 213
-364 289 -434 63 -58 209 -159 338 -233 153 -88 382 -166 484 -166 31 0 90 10
131 22 63 18 102 22 250 23 96 0 183 4 192 9 41 19 28 60 -22 71 -33 7 -55 29
-45 46 7 11 28 10 146 -7 46 -7 185 44 374 137 312 153 554 346 703 562 59 86
143 249 192 372 17 44 47 112 66 151 32 65 34 75 25 110 -16 58 -47 103 -77
110 -36 9 -48 -9 -69 -104 -35 -160 -129 -374 -232 -531 -73 -111 -259 -297
-378 -377 -176 -119 -383 -216 -575 -269 -52 -14 -130 -37 -174 -50 -86 -27
-109 -23 -120 19 -14 56 16 75 215 135 183 56 287 95 399 151 213 107 401 261
519 427 76 106 167 291 211 428 18 55 47 128 66 163 39 73 42 106 14 188 -60
173 -227 358 -405 447 -80 40 -209 76 -311 88 -113 12 -221 2 -386 -37 -64
-15 -123 -24 -132 -21 -29 11 -1 44 64 77 202 102 483 119 725 43 252 -79 402
-207 615 -522 69 -102 151 -223 183 -270 82 -121 109 -178 169 -358 53 -157
53 -159 52 -278 -1 -143 -27 -253 -98 -422 -110 -260 -266 -506 -415 -654
-156 -155 -328 -262 -498 -311 -68 -20 -102 -22 -268 -23 -287 0 -476 12 -628
40 -186 34 -280 66 -432 144 -71 37 -195 93 -275 125 -206 82 -376 181 -582
338 -42 32 -81 58 -85 58 -5 0 -31 14 -59 31 -49 31 -49 31 -18 -2 17 -19 66
-79 109 -134 170 -217 340 -383 452 -442 63 -33 426 -167 593 -218 257 -80
487 -116 730 -117 303 0 483 33 675 126 183 89 330 208 486 394 321 384 493
839 458 1211 -17 178 -81 469 -121 545 -7 14 -38 40 -68 58 -48 29 -66 50
-137 158 -152 234 -198 295 -283 381 -165 167 -345 258 -601 305 -140 26 -351
23 -453 -4 -105 -29 -249 -99 -315 -153 -102 -84 -131 -96 -131 -56 0 86 219
242 445 318 61 21 88 24 215 23 174 -1 392 -26 507 -60 307 -89 560 -332 728
-700 84 -184 106 -210 139 -162 40 57 6 260 -70 411 -142 282 -430 531 -712
614 -45 13 -104 16 -282 17 -236 1 -271 7 -322 53 -16 14 -25 15 -70 4 -116
-26 -458 -215 -557 -307 -31 -29 -70 -76 -87 -105 -17 -30 -51 -88 -75 -129
-24 -41 -47 -83 -51 -92 -4 -9 -17 -22 -29 -29 -20 -10 -25 -9 -41 11 -29 36
-23 84 21 148 21 31 62 94 90 139 69 107 136 169 246 226 50 26 148 91 219
144 71 54 143 108 160 121 177 133 446 157 620 57 62 -36 123 -66 326 -162
156 -74 293 -167 411 -281 126 -120 187 -201 249 -327 71 -144 89 -229 100
-475 5 -113 21 -297 36 -410 23 -178 25 -229 21 -385 -8 -270 -53 -450 -177
-702 -117 -239 -225 -386 -460 -627 -159 -162 -223 -213 -348 -276 -206 -102
-447 -159 -717 -167 -197 -6 -281 2 -509 54 -152 33 -247 59 -684 187 -138 41
-206 56 -239 54 -45 -3 -45 -3 88 -79 209 -119 444 -218 669 -282 385 -111
377 -109 520 -114 280 -11 605 61 875 192 171 83 254 143 337 243 40 48 108
125 151 170 457 487 667 1082 627 1774 -5 95 -14 225 -19 288 -5 63 -13 183
-16 265 -4 83 -13 184 -21 225 -44 243 -316 553 -662 757 -177 104 -497 235
-656 267 -96 20 -273 20 -396 1 -52 -9 -167 -20 -255 -25 -177 -10 -250 -27
-374 -85 -190 -91 -385 -285 -471 -470 -52 -110 -65 -171 -63 -300 1 -125 10
-171 57 -293 19 -48 48 -136 66 -197 30 -105 41 -128 102 -227 18 -29 35 -80
48 -146 11 -56 26 -115 32 -130 25 -57 81 -122 139 -161 220 -147 556 -114
743 73 156 156 179 360 56 500 -151 171 -467 97 -496 -116 -21 -151 161 -248
272 -145 43 40 53 84 27 116 -16 19 -23 22 -39 13 -25 -13 -54 2 -54 28 0 61
102 82 161 33 112 -95 61 -274 -104 -361 -47 -24 -62 -27 -157 -27 -115 0
-152 13 -224 76 -107 94 -108 276 -1 421 118 161 411 217 607 117 62 -31 141
-111 171 -172 137 -280 -74 -641 -448 -766 -127 -42 -262 -57 -379 -41 -215
28 -367 107 -577 300 -99 91 -136 153 -183 310 -60 203 -71 343 -36 465 11 39
27 144 35 234 27 276 71 405 194 568 151 200 371 364 591 441 220 77 707 132
910 103 236 -33 623 -179 848 -319 173 -108 352 -262 486 -418 34 -40 82 -88
108 -107 46 -35 46 -35 1 51 -226 431 -375 589 -681 722 -135 58 -597 207
-696 225 -81 14 -261 18 -371 8z m-305 -453 c22 -14 4 -37 -66 -86 -32 -23
-73 -61 -89 -85 -37 -51 -90 -95 -127 -104 -46 -12 -35 21 28 81 58 56 64 77
23 82 -38 4 -111 -49 -152 -111 -20 -30 -58 -79 -83 -109 -95 -109 -148 -201
-184 -312 -12 -37 -29 -70 -37 -73 -24 -9 -45 22 -50 74 -10 101 65 250 204
405 129 144 195 185 356 223 113 26 154 29 177 15z"/>
<path d="M5290 6344 c-68 -29 -93 -75 -47 -88 39 -10 313 -6 346 5 27 9 32 16
29 37 -2 21 -12 30 -48 44 -59 22 -230 24 -280 2z"/>
<path d="M7042 5423 c-28 -62 -21 -235 17 -418 17 -83 29 -125 27 -95 -3 30
-13 144 -22 253 -13 147 -15 211 -8 248 6 27 9 49 7 49 -2 0 -12 -17 -21 -37z"/>
<path d="M3887 5342 c-39 -43 -8 -266 63 -451 36 -94 67 -131 108 -131 55 0
57 71 6 237 -20 65 -49 160 -64 212 -40 133 -75 175 -113 133z"/>
<path d="M2910 5003 c0 -26 59 -272 73 -306 19 -45 47 -50 47 -8 0 43 -36 150
-80 243 -22 45 -40 77 -40 71z"/>
<path d="M6212 4737 c-7 -7 -23 -52 -36 -99 -149 -513 -424 -804 -1054 -1115
-214 -106 -236 -119 -279 -169 -63 -73 -82 -77 -332 -75 -178 1 -206 -1 -222
-15 -62 -56 37 -116 254 -153 189 -33 405 -54 493 -47 106 8 154 26 226 85 33
26 120 83 194 126 153 88 250 155 389 270 109 90 131 103 147 87 18 -18 1 -58
-53 -122 -99 -119 -266 -240 -476 -344 -73 -36 -139 -76 -148 -88 -15 -22 -14
-24 6 -40 26 -22 57 -23 134 -3 144 37 352 164 485 295 94 94 123 135 192 276
30 60 78 152 107 204 103 187 161 345 182 491 13 94 2 162 -28 173 -29 12 -50
-25 -97 -170 -54 -164 -106 -277 -181 -390 -66 -98 -110 -140 -201 -188 -38
-20 -132 -82 -209 -137 -242 -174 -530 -335 -642 -358 -35 -8 -83 -11 -108 -9
-49 6 -87 31 -79 53 3 7 51 27 107 45 199 62 440 194 715 392 308 222 368 301
546 726 44 105 56 143 56 186 0 81 -56 152 -88 113z"/>
<path d="M6303 2834 c-79 -59 -100 -84 -30 -35 46 32 115 90 107 90 -3 0 -38
-25 -77 -55z"/>
<path d="M4160 2431 c36 -21 201 -73 337 -106 81 -20 156 -44 166 -52 16 -15
17 -14 17 10 0 21 -9 31 -40 47 -42 22 -172 54 -260 65 -30 3 -92 15 -138 26
-92 21 -104 22 -82 10z"/>
<path d="M5690 2374 c-125 -41 -364 -93 -585 -128 -196 -32 -286 -49 -282 -53
6 -6 261 17 367 33 181 27 435 98 580 163 65 28 40 24 -80 -15z"/>
</g>
</svg>
