<?xml version="1.0" standalone="no"?>
<!DOCTYPE svg PUBLIC "-//W3C//DTD SVG 20010904//EN"
 "http://www.w3.org/TR/2001/REC-SVG-20010904/DTD/svg10.dtd">
<svg version="1.0" xmlns="http://www.w3.org/2000/svg"
 width="1000.000000pt" height="1000.000000pt" viewBox="0 0 1000.000000 1000.000000"
 preserveAspectRatio="xMidYMid meet">
<metadata>
  <rdf:RDF
    xmlns:rdf = "http://www.w3.org/1999/02/22-rdf-syntax-ns#"
    xmlns:rdfs = "http://www.w3.org/2000/01/rdf-schema#"
    xmlns:dc = "http://purl.org/dc/elements/1.1/"
    xmlns:cc = "http://creativecommons.org/ns#">
    <cc:license rdf:resource="http://creativecommons.org/publicdomain/zero/1.0/deed.en"/>
    <cc:permits rdf:resource="http://creativecommons.org/ns#Reproduction"/>
    <rdf:Description about="https://nft.mir.one/fingerprints"
      dc:title="TON Fingerprints"
      dc:description="This is a unique digital fingerprint created based on the algorithm for generating basic rings using a noise texture. Like human fingerprints, you can now use it for the Web3 and Metaverse era as digital biometric information."
      dc:publisher="https://nft.mir.one"
      dc:date="2022-02-22"
      dc:format="image/svg+xml"
      dc:language="en" >
      <dc:creator>
      <rdf:Bag>
        <rdf:li>EQBondcvD2_aOFADXSWJHs4ZazQDuEl9_wNvGGPxI8hGuOFU</rdf:li>
        <rdf:li>ipfs://bafkreihj7iub3fhmhq6jn62noukt5wxn3gv6bvcg7wmt6ywvlurefezckq</rdf:li>
      </rdf:Bag>
      </dc:creator>
    </rdf:Description>
  </rdf:RDF>
</metadata>
<g transform="translate(0.000000,1000.000000) scale(0.100000,-0.100000)"
fill="#1b1f23" stroke="none">
<path d="M4960 7804 c0 -7 151 -96 201 -118 30 -14 93 -35 139 -46 281 -71
668 -398 735 -622 15 -53 8 -88 -19 -88 -8 0 -45 37 -82 83 -91 111 -220 237
-318 309 -169 125 -321 202 -686 345 -91 35 -180 73 -199 84 -33 20 -33 20
-14 -13 25 -44 165 -148 326 -243 73 -43 190 -112 260 -154 144 -85 311 -209
475 -352 61 -52 138 -110 171 -128 91 -48 143 -135 197 -331 28 -102 49 -143
189 -369 167 -270 257 -438 346 -644 53 -121 95 -202 115 -224 35 -37 42 -39
70 -19 72 53 -65 402 -351 891 -239 408 -273 490 -284 673 -8 119 -9 125 -54
215 -116 231 -318 422 -587 557 -154 77 -219 99 -270 94 -36 -4 -76 6 -202 49
-87 29 -158 52 -158 51z"/>
<path d="M4460 7716 c0 -2 12 -25 26 -50 56 -100 313 -309 709 -576 321 -217
535 -376 664 -495 52 -47 108 -93 124 -102 26 -13 31 -13 45 0 23 24 7 76 -48
155 -73 104 -393 363 -680 550 -175 115 -464 308 -540 362 -30 22 -102 62
-160 90 -58 28 -113 56 -122 61 -10 5 -18 7 -18 5z"/>
<path d="M4185 7548 c17 -20 90 -82 163 -137 209 -158 271 -212 369 -318 81
-87 107 -108 225 -178 73 -43 194 -118 268 -166 74 -47 178 -110 230 -139 52
-28 127 -76 165 -105 120 -92 310 -270 379 -357 165 -206 384 -552 431 -683
24 -66 27 -84 21 -146 -6 -71 -6 -71 80 -215 47 -80 105 -186 129 -237 74
-159 163 -420 230 -675 15 -56 39 -125 55 -153 27 -50 27 -50 24 23 -2 40 -6
174 -8 298 -5 257 -21 379 -67 513 -42 123 -80 198 -144 283 -70 93 -105 158
-154 281 -86 218 -245 501 -413 736 -101 142 -125 167 -223 231 -44 29 -122
87 -173 130 -127 106 -220 172 -537 381 -312 205 -330 219 -568 420 -98 82
-190 156 -204 163 -47 25 -137 53 -204 62 -36 5 -75 13 -85 17 -14 5 -12 -2
11 -29z"/>
<path d="M3920 7349 c19 -17 105 -70 190 -119 85 -48 207 -117 270 -154 129
-75 201 -101 231 -85 23 12 24 37 3 67 -18 26 -124 107 -280 215 -135 92 -181
107 -339 107 -110 -1 -110 -1 -75 -31z"/>
<path d="M6339 7098 c31 -89 44 -111 95 -165 32 -35 88 -86 125 -115 66 -52
66 -52 -4 28 -96 108 -122 143 -190 257 -31 53 -59 97 -60 97 -1 0 14 -46 34
-102z"/>
<path d="M3715 7155 c-33 -7 -62 -13 -65 -14 -14 -4 78 -51 185 -96 142 -60
671 -332 737 -380 25 -19 71 -65 101 -103 53 -66 112 -123 441 -426 178 -165
217 -194 268 -203 47 -7 51 -11 121 -111 30 -42 101 -131 158 -197 426 -499
609 -796 787 -1275 127 -343 184 -531 227 -750 9 -47 25 -103 35 -125 10 -22
20 -47 23 -55 3 -8 6 2 6 23 1 20 8 83 17 140 10 61 16 166 17 262 0 160 0
160 -62 355 -87 272 -152 444 -227 595 -84 172 -143 260 -260 386 -99 107
-118 131 -365 454 -160 208 -217 291 -302 436 -31 53 -89 138 -130 190 -94
119 -111 151 -104 200 5 37 3 39 -77 102 -227 180 -390 259 -621 302 -119 23
-179 45 -324 121 -378 200 -341 184 -438 183 -49 -1 -115 -7 -148 -14z m1133
-499 c52 -19 170 -98 245 -166 61 -55 284 -335 325 -407 39 -70 27 -154 -15
-103 -165 204 -345 394 -483 510 -138 116 -165 147 -149 166 14 18 27 17 77 0z"/>
<path d="M3625 6939 c-27 -5 -76 -17 -108 -26 -58 -18 -58 -18 -15 -40 24 -12
90 -38 148 -58 214 -75 542 -254 753 -409 56 -42 208 -159 337 -261 266 -210
383 -296 486 -355 86 -49 127 -56 132 -22 5 37 -18 63 -150 165 -68 53 -223
183 -346 289 -122 106 -262 227 -310 268 -132 115 -415 281 -674 397 -130 58
-174 67 -253 52z"/>
<path d="M6320 6831 c-17 -32 18 -108 179 -388 342 -597 432 -770 478 -921 23
-76 26 -107 28 -242 3 -180 5 -192 51 -296 36 -79 36 -79 30 -29 -4 27 -11
104 -16 170 -23 271 -33 351 -55 443 -85 352 -432 1052 -614 1240 -46 46 -65
52 -81 23z"/>
<path d="M3460 6705 c-86 -21 -140 -39 -140 -46 0 -3 60 -26 133 -50 247 -80
466 -211 1090 -648 253 -177 412 -275 620 -383 104 -53 214 -116 246 -139 215
-162 365 -348 391 -486 9 -46 34 -107 81 -197 65 -126 94 -204 175 -461 26
-83 71 -185 146 -334 115 -225 137 -293 104 -320 -13 -11 -24 -6 -73 36 -98
82 -146 135 -212 233 -87 128 -165 224 -193 237 -38 18 -243 38 -398 39 -213
1 -301 29 -465 151 -179 133 -355 237 -541 321 -60 27 -150 74 -200 105 -213
132 -314 168 -634 227 -537 99 -509 96 -554 71 -23 -12 -60 -39 -84 -60 -43
-37 -43 -37 10 -54 29 -9 118 -28 197 -42 382 -67 668 -161 849 -278 103 -67
146 -110 195 -195 25 -43 76 -116 114 -164 51 -65 75 -105 91 -155 24 -75 39
-100 193 -330 126 -188 162 -254 239 -433 114 -268 224 -645 270 -930 19 -121
47 -221 60 -219 17 1 114 177 124 224 21 99 -219 815 -386 1149 -78 155 -132
233 -288 411 -117 133 -137 162 -122 177 31 31 131 -34 276 -178 165 -165 203
-227 331 -539 217 -528 308 -782 355 -989 21 -93 70 -221 70 -184 0 9 18 53
39 98 22 45 45 106 52 135 10 47 9 59 -11 121 -33 99 -134 341 -262 624 -124
273 -145 332 -158 438 -18 139 -52 185 -258 355 -157 129 -231 181 -347 242
-115 61 -201 122 -249 175 -35 39 -37 44 -22 58 14 14 22 15 63 4 65 -17 306
-156 483 -277 274 -190 336 -219 505 -235 208 -19 306 -61 425 -180 91 -91
126 -155 208 -381 91 -249 106 -312 105 -451 0 -95 3 -118 15 -123 24 -9 60
22 89 78 26 48 28 61 28 162 -1 131 -22 215 -91 366 -46 101 -52 149 -19 149
8 0 48 -24 89 -54 58 -44 77 -64 94 -104 53 -122 72 -266 65 -467 -3 -71 -3
-128 0 -125 15 14 102 254 123 340 38 153 39 214 10 385 -40 232 -56 281 -251
775 -141 358 -308 684 -443 865 -75 101 -325 359 -388 399 -30 19 -62 29 -118
35 -54 6 -97 19 -142 41 -92 45 -304 189 -569 386 -262 195 -406 295 -550 381
-195 118 -451 234 -508 232 -12 0 -47 -7 -77 -14z"/>
<path d="M5344 6499 c-7 -11 -3 -16 142 -170 86 -91 247 -303 554 -729 168
-233 211 -284 264 -310 89 -43 95 0 19 135 -67 118 -279 435 -381 571 -172
228 -404 461 -499 501 -39 16 -89 17 -99 2z"/>
<path d="M3305 6489 c-71 -18 -70 -18 -49 -33 10 -7 59 -30 108 -50 199 -83
283 -135 412 -257 66 -63 155 -129 325 -241 313 -207 375 -244 719 -435 336
-187 498 -292 655 -424 169 -141 215 -167 235 -130 17 32 -20 91 -123 199
-154 158 -263 239 -497 367 -311 170 -699 418 -1105 704 -232 163 -290 200
-404 254 -90 43 -116 52 -171 54 -36 1 -83 -3 -105 -8z"/>
<path d="M3260 6315 c-8 -2 -37 -7 -63 -10 -47 -6 -48 -7 -32 -25 30 -34 347
-186 436 -210 45 -12 69 -2 69 30 0 61 -329 233 -410 215z"/>
<path d="M3169 6095 c-3 -2 -29 -10 -58 -18 -52 -13 -52 -13 -14 -38 21 -14
142 -65 268 -114 293 -112 335 -134 535 -270 265 -180 403 -258 635 -355 381
-159 797 -409 995 -597 115 -109 173 -217 149 -279 -14 -38 -32 -29 -78 41
-95 146 -205 239 -461 393 -279 169 -459 251 -755 346 -128 40 -236 88 -329
145 -80 48 -258 187 -355 276 -81 74 -166 120 -362 195 -151 58 -184 61 -282
20 -57 -23 -57 -23 -24 -45 17 -12 115 -50 217 -85 266 -91 379 -147 367 -183
-9 -28 -83 -17 -283 43 -227 68 -227 68 -321 14 -23 -13 -50 -24 -60 -24 -11
0 0 -11 27 -26 61 -35 412 -120 573 -139 140 -16 206 -38 232 -79 26 -40 14
-56 -44 -56 -68 0 -297 34 -477 70 -81 17 -157 30 -168 30 -26 0 -88 -32 -138
-73 -38 -31 -38 -31 -6 -45 18 -7 159 -36 313 -64 250 -44 302 -51 485 -57
197 -7 208 -9 291 -40 48 -17 124 -51 169 -74 76 -38 87 -48 119 -101 44 -74
81 -100 296 -216 210 -114 289 -166 390 -258 44 -40 107 -86 139 -102 55 -28
67 -30 167 -30 96 0 109 2 118 19 13 23 -17 71 -92 149 -66 68 -120 99 -217
127 -52 15 -135 54 -247 116 -92 51 -242 128 -333 170 -90 42 -166 82 -168 88
-8 25 20 41 73 41 94 0 207 -48 576 -245 139 -75 276 -153 305 -175 28 -21 85
-75 125 -120 81 -90 111 -110 161 -110 27 0 48 -12 98 -55 100 -85 135 -72
134 49 0 76 -29 188 -69 266 -43 86 -100 144 -238 245 -75 55 -183 134 -239
175 -143 104 -292 192 -583 343 -311 161 -410 218 -654 375 -267 171 -320 199
-411 212 -99 15 -143 28 -278 84 -80 33 -127 46 -161 46 -26 0 -50 -2 -52 -5z
m2012 -1605 c49 -26 119 -88 119 -106 0 -26 -47 -14 -109 27 -58 39 -81 64
-81 88 0 17 27 13 71 -9z"/>
<path d="M3018 4750 c-24 -16 -53 -39 -63 -50 -10 -11 -25 -20 -34 -20 -37 -1
83 -44 194 -70 470 -110 762 -280 1001 -580 75 -95 223 -315 299 -443 197
-338 290 -663 335 -1169 6 -70 17 -143 25 -163 8 -19 15 -45 16 -57 0 -23 0
-23 10 1 5 14 32 49 60 78 28 29 59 73 70 98 20 45 20 45 -1 171 -76 466 -215
846 -437 1191 -42 65 -118 185 -169 266 -242 384 -423 538 -787 666 -106 37
-400 111 -443 111 -17 0 -50 -13 -76 -30z"/>
<path d="M3070 4443 c-14 -9 -43 -33 -66 -53 -40 -37 -40 -37 0 -58 23 -12
100 -42 171 -66 362 -123 503 -203 686 -385 225 -225 415 -536 483 -790 32
-119 61 -344 52 -405 -9 -59 -38 -95 -63 -80 -31 18 -82 213 -83 314 -1 116
-21 195 -86 330 -152 316 -421 624 -639 732 -83 42 -319 112 -349 104 -15 -4
-46 -27 -70 -51 -23 -25 -49 -45 -57 -45 -7 0 -2 -8 11 -17 54 -37 153 -135
202 -199 28 -37 90 -108 137 -158 183 -193 279 -313 446 -556 44 -63 117 -160
164 -215 46 -55 105 -131 131 -170 26 -38 74 -93 106 -121 40 -35 64 -66 75
-95 10 -24 28 -69 40 -99 24 -54 24 -55 44 -37 11 10 43 33 70 51 28 18 61 48
74 67 23 33 23 38 18 204 -11 368 -118 683 -349 1030 -272 409 -522 606 -951
746 -131 43 -161 47 -197 22z m410 -590 c128 -76 331 -292 474 -508 80 -120
185 -326 193 -377 5 -35 4 -38 -19 -38 -34 0 -63 34 -168 200 -143 225 -250
360 -432 546 -174 177 -198 214 -140 214 15 0 56 -17 92 -37z"/>
<path d="M5341 3867 c-25 -31 -8 -60 64 -110 162 -111 233 -208 398 -548 121
-248 163 -309 211 -309 23 0 26 4 26 34 0 45 -98 330 -164 476 -100 222 -217
365 -354 432 -75 37 -161 49 -181 25z"/>
<path d="M5297 3693 c-20 -20 1 -79 87 -246 130 -254 390 -801 411 -867 10
-30 30 -76 45 -102 26 -47 26 -47 42 0 9 26 28 74 42 107 13 33 28 83 31 110
7 50 6 52 -40 105 -79 92 -118 156 -233 385 -183 363 -333 561 -385 508z"/>
<path d="M3296 3369 c6 -8 40 -50 76 -94 91 -112 194 -253 309 -423 54 -80 99
-143 99 -140 0 3 -5 19 -11 37 -8 23 -8 39 1 60 22 55 -49 212 -167 368 -87
115 -182 186 -236 176 -17 -3 -37 1 -54 13 -18 11 -24 12 -17 3z"/>
</g>
</svg>
