<?xml version="1.0" standalone="no"?>
<!DOCTYPE svg PUBLIC "-//W3C//DTD SVG 20010904//EN"
 "http://www.w3.org/TR/2001/REC-SVG-20010904/DTD/svg10.dtd">
<svg version="1.0" xmlns="http://www.w3.org/2000/svg"
 width="1000.000000pt" height="1000.000000pt" viewBox="0 0 1000.000000 1000.000000"
 preserveAspectRatio="xMidYMid meet">
<metadata>
  <rdf:RDF
    xmlns:rdf = "http://www.w3.org/1999/02/22-rdf-syntax-ns#"
    xmlns:rdfs = "http://www.w3.org/2000/01/rdf-schema#"
    xmlns:dc = "http://purl.org/dc/elements/1.1/"
    xmlns:cc = "http://creativecommons.org/ns#">
    <cc:license rdf:resource="http://creativecommons.org/publicdomain/zero/1.0/deed.en"/>
    <cc:permits rdf:resource="http://creativecommons.org/ns#Reproduction"/>
    <rdf:Description about="https://nft.mir.one/fingerprints"
      dc:title="TON Fingerprints"
      dc:description="This is a unique digital fingerprint created based on the algorithm for generating basic rings using a noise texture. Like human fingerprints, you can now use it for the Web3 and Metaverse era as digital biometric information."
      dc:publisher="https://nft.mir.one"
      dc:date="2022-02-22"
      dc:format="image/svg+xml"
      dc:language="en" >
      <dc:creator>
      <rdf:Bag>
        <rdf:li>EQBondcvD2_aOFADXSWJHs4ZazQDuEl9_wNvGGPxI8hGuOFU</rdf:li>
        <rdf:li>ipfs://bafkreihj7iub3fhmhq6jn62noukt5wxn3gv6bvcg7wmt6ywvlurefezckq</rdf:li>
      </rdf:Bag>
      </dc:creator>
    </rdf:Description>
  </rdf:RDF>
</metadata>
<g transform="translate(0.000000,1000.000000) scale(0.100000,-0.100000)"
fill="#1b1f23" stroke="none">
<path d="M4680 7749 c30 -17 108 -58 172 -90 84 -41 128 -70 155 -100 113
-125 172 -170 368 -277 155 -85 189 -114 287 -243 48 -63 124 -155 170 -205
46 -51 127 -140 182 -200 122 -134 186 -223 242 -339 50 -103 67 -181 40 -191
-24 -9 -39 8 -112 125 -87 140 -149 215 -237 287 -40 32 -137 122 -217 200
-80 77 -156 147 -170 154 -14 7 -55 19 -92 26 -52 10 -135 46 -341 148 -354
175 -505 231 -700 256 -152 20 -445 -33 -704 -127 -82 -30 -82 -30 20 -41 149
-17 211 -18 417 -9 215 10 326 0 498 -44 194 -50 570 -211 718 -307 33 -22 81
-63 105 -92 24 -29 73 -87 109 -129 87 -100 103 -125 129 -194 32 -86 60 -138
165 -302 53 -82 131 -217 172 -298 78 -152 110 -191 138 -167 25 20 27 63 6
145 -28 111 -72 192 -223 410 -140 204 -160 241 -138 254 37 23 113 -44 223
-200 37 -52 90 -121 118 -154 91 -106 133 -219 131 -355 -8 -829 -4 -755 -52
-982 -20 -95 3 -133 62 -102 58 30 116 154 139 294 16 104 12 782 -6 925 -8
66 -19 179 -24 250 -11 153 -26 218 -81 334 -55 117 -146 252 -280 411 -395
470 -441 527 -468 585 -67 141 -260 257 -484 291 -120 18 -444 73 -472 80 -11
3 5 -9 35 -27z m541 -153 c111 -45 289 -181 289 -219 0 -24 -41 -22 -92 4 -75
39 -298 188 -305 205 -6 17 12 34 37 34 8 0 40 -11 71 -24z"/>
<path d="M5535 7667 c45 -45 134 -149 200 -232 65 -82 185 -229 266 -326 204
-244 288 -353 355 -461 190 -307 229 -516 244 -1305 10 -547 12 -533 -65 -690
-53 -107 -107 -169 -269 -311 -61 -53 -169 -153 -241 -222 -304 -294 -482
-425 -925 -683 -180 -104 -260 -178 -260 -240 0 -63 79 -40 369 109 486 249
622 347 893 642 78 85 162 168 187 183 75 48 119 33 87 -30 -22 -41 -238 -330
-313 -416 -136 -159 -361 -300 -754 -473 -64 -28 -155 -72 -203 -98 -110 -58
-164 -63 -244 -21 -53 28 -53 28 -140 12 -329 -57 -685 -31 -897 65 -153 69
-377 243 -504 391 -35 41 -87 101 -116 134 -30 33 -63 71 -75 85 -18 22 -17
18 5 -29 189 -386 591 -831 809 -896 35 -11 137 -18 331 -25 154 -6 356 -15
449 -20 93 -5 173 -7 177 -4 4 2 140 9 301 14 377 12 487 35 856 174 192 73
248 99 352 169 72 48 300 216 300 221 0 2 -33 -3 -72 -11 -40 -8 -121 -18
-180 -22 -106 -7 -106 -7 -325 -114 -305 -149 -488 -216 -718 -266 -174 -38
-275 -37 -275 4 0 24 36 41 190 91 408 131 701 280 826 417 29 31 69 94 97
151 26 54 79 147 117 207 92 144 105 171 130 269 13 49 39 114 65 159 24 42
98 189 164 327 65 139 136 277 156 307 53 80 64 129 75 338 21 384 -26 757
-142 1122 -32 102 -51 130 -23 34 56 -194 89 -709 66 -1044 -18 -262 -35 -344
-73 -351 -40 -8 -43 24 -43 463 -1 350 -4 441 -19 545 -70 486 -248 796 -746
1304 -190 194 -372 345 -515 428 -5 3 26 -31 70 -75z"/>
<path d="M4256 7565 c48 -56 67 -66 229 -114 256 -77 418 -153 820 -386 147
-86 177 -99 213 -96 22 2 13 47 -18 89 -32 45 -85 83 -271 195 -70 41 -176
109 -236 151 -130 89 -226 140 -307 160 -53 14 -195 28 -393 39 -72 4 -72 4
-37 -38z"/>
<path d="M4035 7442 c-117 -26 -119 -27 -75 -34 136 -21 260 0 268 45 5 24
-44 21 -193 -11z"/>
<path d="M6320 7185 c13 -14 26 -25 28 -25 3 0 -5 11 -18 25 -13 14 -26 25
-28 25 -3 0 5 -11 18 -25z"/>
<path d="M3670 6986 c-59 -24 -101 -49 -195 -115 -60 -43 -60 -43 -20 -36 74
12 316 97 343 120 23 20 24 25 13 39 -19 23 -76 20 -141 -8z"/>
<path d="M4109 6980 c-110 -13 -176 -30 -208 -53 -16 -12 -51 -37 -77 -56 -25
-18 -87 -51 -138 -73 -50 -22 -107 -49 -126 -61 -69 -41 -197 -147 -285 -236
-89 -91 -89 -91 -40 -72 28 11 84 38 125 62 159 90 534 256 669 295 120 35
289 48 437 34 212 -19 407 -72 701 -191 141 -57 186 -68 208 -49 40 33 -8 85
-143 153 -237 121 -541 221 -747 246 -100 12 -275 12 -376 1z"/>
<path d="M4225 6689 c-201 -21 -506 -134 -783 -289 -136 -76 -250 -212 -406
-484 -29 -49 -29 -49 15 -15 24 18 82 70 129 115 263 250 662 454 998 510 138
22 394 15 532 -14 186 -40 413 -118 560 -192 215 -107 410 -348 605 -745 110
-226 137 -333 136 -555 0 -248 -42 -384 -170 -556 -117 -158 -214 -235 -275
-220 -36 9 -33 36 9 107 89 146 118 244 90 299 -29 55 -34 87 -45 250 -14 199
-36 304 -109 522 -71 208 -86 240 -156 333 -162 212 -451 358 -786 395 -391
44 -827 -128 -1103 -432 -216 -239 -339 -549 -339 -858 0 -115 4 -156 31 -278
36 -161 38 -190 17 -199 -37 -14 -73 49 -141 239 -66 187 -57 376 31 643 89
273 221 477 413 641 156 133 326 229 521 294 157 53 265 70 436 70 172 0 291
-19 446 -70 375 -124 585 -326 738 -710 96 -240 127 -420 116 -670 -3 -86 -2
-151 3 -159 16 -23 60 -4 87 37 43 65 59 151 59 307 -1 215 -35 344 -156 595
-161 336 -343 534 -601 655 -125 58 -279 109 -418 137 -96 19 -144 23 -299 22
-162 0 -198 -3 -295 -26 -334 -78 -690 -283 -892 -512 -161 -182 -297 -696
-280 -1054 4 -98 12 -139 47 -257 23 -77 68 -201 100 -275 32 -74 77 -180 100
-235 77 -182 172 -319 322 -460 235 -223 490 -319 795 -300 149 9 280 36 367
78 97 47 538 313 661 400 99 70 235 174 410 312 112 89 241 218 310 310 83
110 88 125 91 250 1 61 8 148 14 195 16 112 16 344 0 445 -16 103 -37 157 -97
253 -28 42 -82 137 -122 210 -98 178 -316 505 -393 587 -71 76 -117 102 -243
138 -49 14 -173 54 -275 90 -333 117 -558 152 -805 126z m430 -691 c81 -12
197 -47 281 -84 146 -64 318 -205 379 -308 26 -45 31 -96 9 -103 -6 -2 -51 35
-100 82 -232 225 -487 325 -794 312 -208 -9 -372 -63 -548 -180 -324 -216
-502 -591 -477 -1007 8 -152 32 -332 51 -400 22 -78 74 -187 124 -260 144
-212 410 -397 560 -388 51 3 55 5 58 30 4 36 -47 91 -173 186 -318 239 -449
481 -462 857 -11 320 74 555 276 755 185 184 394 270 655 270 229 0 410 -65
615 -221 52 -39 117 -86 146 -105 72 -45 110 -94 146 -187 54 -140 64 -210 64
-437 0 -151 -5 -234 -19 -315 -13 -79 -16 -132 -11 -188 6 -73 5 -81 -21 -124
-36 -63 -170 -196 -269 -269 -286 -210 -532 -304 -797 -304 -109 0 -115 -2
-157 -30 -52 -35 -94 -44 -169 -37 -244 23 -567 321 -694 640 -31 79 -32 87
-33 237 -1 85 -5 229 -9 320 -13 254 17 409 119 615 232 467 727 722 1250 643z"/>
<path d="M4450 5653 c-304 -21 -583 -222 -696 -501 -50 -124 -59 -178 -59
-347 0 -177 16 -262 75 -391 90 -199 283 -385 513 -495 140 -67 281 -70 445
-10 253 92 449 291 506 513 111 439 119 496 92 637 -24 128 -72 220 -159 306
-201 197 -469 305 -717 288z m276 -159 c184 -52 348 -172 411 -299 25 -51 38
-105 54 -225 10 -83 10 -100 -5 -134 -15 -36 -17 -37 -37 -25 -11 8 -37 48
-57 88 -35 71 -42 78 -137 144 -226 155 -374 190 -520 123 -70 -32 -109 -68
-139 -128 -31 -63 -33 -126 -6 -185 33 -75 108 -101 197 -69 52 18 68 8 60
-38 -8 -52 -43 -96 -95 -118 -101 -45 -226 21 -286 151 -16 36 -21 65 -21 131
0 74 4 93 31 150 82 173 280 267 478 227 104 -21 207 -71 287 -139 89 -76 109
-85 125 -63 26 35 -30 125 -119 193 -341 261 -808 143 -939 -236 -30 -88 -32
-249 -4 -332 45 -135 137 -245 251 -301 53 -26 82 -33 144 -37 106 -6 169 15
231 78 95 94 89 238 -15 364 -37 46 -55 99 -36 111 30 18 132 -70 270 -234 76
-91 87 -120 78 -201 -22 -185 -224 -341 -443 -342 -262 0 -506 190 -600 467
-35 104 -44 264 -20 374 46 217 201 404 399 482 94 37 151 48 263 48 91 1 128
-4 200 -25z m37 -457 c126 -63 244 -188 235 -250 -6 -45 -38 -31 -124 56 -87
88 -180 147 -234 147 -14 0 -54 -10 -89 -21 -46 -16 -65 -28 -71 -45 -5 -13
-18 -24 -28 -24 -54 0 -58 73 -7 124 44 44 81 56 171 53 59 -2 83 -8 147 -40z"/>
<path d="M7048 4807 c-39 -34 -158 -224 -215 -343 -27 -57 -34 -82 -31 -120 4
-58 25 -69 65 -32 38 34 116 203 171 373 27 83 49 151 48 152 0 0 -18 -13 -38
-30z"/>
<path d="M6876 4240 c-69 -5 -69 -5 -126 -67 -70 -77 -290 -392 -342 -491 -41
-79 -47 -112 -23 -136 23 -22 47 -9 96 54 24 30 94 113 156 183 62 71 144 172
182 225 39 54 98 130 131 170 62 72 62 72 28 70 -18 -2 -64 -5 -102 -8z"/>
<path d="M6865 3844 c-33 -25 -100 -85 -150 -133 -49 -48 -120 -113 -157 -145
-72 -61 -85 -91 -44 -102 59 -14 171 83 288 251 39 55 84 117 100 138 16 20
28 37 26 36 -2 0 -30 -21 -63 -45z"/>
<path d="M6370 2940 c-25 -4 -146 -42 -269 -84 -219 -75 -410 -129 -502 -141
-25 -4 -140 -8 -255 -8 -179 -2 -214 -5 -241 -20 -38 -20 -42 -46 -12 -73 18
-16 43 -20 168 -25 80 -3 154 -9 164 -13 32 -15 18 -37 -40 -64 -52 -24 -70
-27 -163 -27 -104 0 -107 1 -190 41 -47 23 -103 47 -125 53 -65 17 -367 59
-519 71 -207 17 -351 -4 -374 -55 -17 -38 -15 -63 7 -75 28 -15 39 -12 37 8
-3 36 79 26 356 -42 414 -103 655 -142 816 -133 101 6 98 5 234 102 70 50 110
69 255 121 214 77 418 177 588 289 72 47 126 84 120 84 -5 -1 -30 -5 -55 -9z"/>
<path d="M5740 2419 c-233 -51 -320 -73 -320 -81 0 -16 50 -20 107 -8 32 7
112 30 178 52 181 60 192 71 35 37z"/>
<path d="M4578 2243 c7 -3 16 -2 19 1 4 3 -2 6 -13 5 -11 0 -14 -3 -6 -6z"/>
<path d="M4618 2233 c7 -3 16 -2 19 1 4 3 -2 6 -13 5 -11 0 -14 -3 -6 -6z"/>
<path d="M4658 2223 c7 -3 16 -2 19 1 4 3 -2 6 -13 5 -11 0 -14 -3 -6 -6z"/>
<path d="M4698 2213 c7 -3 16 -2 19 1 4 3 -2 6 -13 5 -11 0 -14 -3 -6 -6z"/>
<path d="M4748 2203 c7 -3 16 -2 19 1 4 3 -2 6 -13 5 -11 0 -14 -3 -6 -6z"/>
</g>
</svg>
