<?xml version="1.0" standalone="no"?>
<!DOCTYPE svg PUBLIC "-//W3C//DTD SVG 20010904//EN"
 "http://www.w3.org/TR/2001/REC-SVG-20010904/DTD/svg10.dtd">
<svg version="1.0" xmlns="http://www.w3.org/2000/svg"
 width="1000.000000pt" height="1000.000000pt" viewBox="0 0 1000.000000 1000.000000"
 preserveAspectRatio="xMidYMid meet">
<metadata>
  <rdf:RDF
    xmlns:rdf = "http://www.w3.org/1999/02/22-rdf-syntax-ns#"
    xmlns:rdfs = "http://www.w3.org/2000/01/rdf-schema#"
    xmlns:dc = "http://purl.org/dc/elements/1.1/"
    xmlns:cc = "http://creativecommons.org/ns#">
    <cc:license rdf:resource="http://creativecommons.org/publicdomain/zero/1.0/deed.en"/>
    <cc:permits rdf:resource="http://creativecommons.org/ns#Reproduction"/>
    <rdf:Description about="https://nft.mir.one/fingerprints"
      dc:title="TON Fingerprints"
      dc:description="This is a unique digital fingerprint created based on the algorithm for generating basic rings using a noise texture. Like human fingerprints, you can now use it for the Web3 and Metaverse era as digital biometric information."
      dc:publisher="https://nft.mir.one"
      dc:date="2022-02-22"
      dc:format="image/svg+xml"
      dc:language="en" >
      <dc:creator>
      <rdf:Bag>
        <rdf:li>EQBondcvD2_aOFADXSWJHs4ZazQDuEl9_wNvGGPxI8hGuOFU</rdf:li>
        <rdf:li>ipfs://bafkreihj7iub3fhmhq6jn62noukt5wxn3gv6bvcg7wmt6ywvlurefezckq</rdf:li>
      </rdf:Bag>
      </dc:creator>
    </rdf:Description>
  </rdf:RDF>
</metadata>
<g transform="translate(0.000000,1000.000000) scale(0.100000,-0.100000)"
fill="#1b1f23" stroke="none">
<path d="M4854 7766 c33 -40 71 -62 309 -183 460 -233 665 -390 789 -603 31
-52 83 -131 117 -174 33 -44 58 -83 55 -88 -10 -16 -51 -8 -87 17 -20 13 -66
49 -102 80 -58 49 -70 55 -110 55 -59 0 -99 17 -295 124 -348 189 -606 303
-795 351 -155 39 -378 68 -480 61 -158 -10 -230 -19 -236 -29 -11 -17 3 -47
32 -68 67 -48 356 -123 439 -115 178 19 196 18 276 -4 120 -32 284 -100 554
-230 135 -65 299 -139 365 -165 162 -63 248 -110 290 -156 69 -76 36 -85 -94
-25 -125 57 -177 78 -319 127 -62 22 -210 84 -328 140 -250 116 -431 189 -551
224 -98 29 -112 30 -137 12 -17 -12 -17 -16 -3 -43 21 -41 92 -80 332 -182
116 -50 281 -124 368 -166 168 -80 239 -106 296 -106 44 0 93 -15 246 -75 72
-28 148 -51 189 -56 42 -5 85 -18 110 -33 98 -57 350 -304 459 -449 76 -101
126 -186 228 -382 187 -365 270 -645 189 -645 -30 0 -81 70 -164 226 -44 82
-129 239 -189 349 -247 451 -256 464 -401 614 -125 128 -185 168 -407 271
-215 101 -263 117 -284 100 -12 -10 -12 -16 0 -39 15 -29 64 -63 260 -181 190
-114 249 -168 385 -350 99 -133 134 -228 96 -259 -21 -18 -40 -5 -137 96 -64
66 -95 108 -122 165 -47 98 -109 155 -322 299 -91 60 -195 140 -232 176 -116
113 -240 182 -593 333 -118 50 -287 129 -375 175 -156 81 -311 140 -472 179
-67 17 -75 17 -130 1 -82 -24 -182 -72 -296 -142 -97 -61 -97 -61 -42 -68 30
-3 59 -4 64 0 6 3 71 6 146 6 230 0 352 -28 765 -176 497 -177 634 -245 905
-446 55 -41 168 -120 251 -177 83 -56 176 -125 208 -153 47 -43 55 -54 44 -66
-32 -38 -119 8 -461 241 -454 311 -554 357 -1026 478 -403 103 -470 117 -636
129 -206 16 -198 19 -478 -154 -59 -36 -59 -36 -15 -39 23 -2 95 1 158 6 219
17 464 -18 786 -114 92 -28 175 -50 186 -50 10 0 31 8 45 18 43 27 140 21 250
-16 180 -61 342 -152 733 -412 123 -82 274 -172 354 -212 77 -38 176 -89 220
-113 45 -24 112 -52 151 -61 112 -28 164 -85 398 -438 107 -162 182 -261 288
-382 168 -192 165 -192 149 7 -9 109 -8 134 5 165 79 189 -155 1013 -343 1207
-20 21 -71 62 -112 91 -85 61 -293 269 -363 365 -47 63 -47 64 -41 125 6 59 4
64 -51 176 -80 162 -152 265 -248 357 -177 167 -436 307 -768 417 -108 35
-215 74 -239 86 -43 22 -43 22 -6 -24z"/>
<path d="M5561 7672 c221 -145 479 -375 542 -483 14 -24 39 -78 55 -119 66
-165 170 -367 232 -449 180 -237 354 -352 273 -179 -17 35 -55 97 -85 138
-154 213 -191 265 -261 375 -53 83 -80 136 -89 174 -11 48 -22 66 -88 135
-149 157 -344 302 -563 420 -58 31 -109 56 -113 56 -4 0 39 -31 97 -68z"/>
<path d="M4355 7629 c-165 -23 -156 -20 -100 -35 28 -8 97 -23 155 -34 422
-80 842 -263 1285 -560 123 -83 153 -97 161 -75 25 65 -134 215 -394 373 -134
80 -487 255 -584 288 -146 50 -353 67 -523 43z"/>
<path d="M6301 7137 c43 -26 70 -57 171 -197 42 -58 98 -125 125 -150 34 -32
39 -35 17 -10 -17 19 -71 89 -119 155 -102 141 -181 225 -210 225 -15 0 -12
-5 16 -23z"/>
<path d="M3365 6421 c-27 -10 -87 -36 -132 -58 -81 -40 -81 -40 -30 -57 29 -9
122 -26 207 -37 263 -34 468 -86 633 -158 82 -35 178 -104 280 -199 54 -50
171 -144 260 -209 189 -138 281 -213 472 -388 152 -140 258 -221 435 -337 154
-101 161 -108 170 -207 5 -44 25 -133 45 -197 52 -167 65 -235 65 -355 0 -145
-35 -259 -80 -259 -26 0 -30 19 -30 140 0 135 -20 249 -70 404 -56 171 -99
256 -167 328 -64 66 -109 96 -195 128 -51 19 -71 36 -175 148 -64 70 -178 188
-253 263 -116 115 -160 152 -296 241 -87 58 -211 143 -275 190 -135 98 -254
162 -394 211 -142 49 -540 140 -582 134 -35 -6 -183 -76 -183 -87 0 -8 57 -27
106 -35 58 -9 104 -39 104 -69 0 -21 -5 -24 -50 -28 -55 -6 -128 -45 -199
-109 -44 -39 -44 -39 5 -39 71 0 190 35 256 75 51 32 63 35 132 35 238 0 528
-110 790 -300 117 -85 138 -95 198 -104 60 -9 149 -67 219 -144 68 -75 246
-345 298 -452 22 -47 66 -150 97 -230 31 -80 84 -194 119 -255 85 -148 101
-182 146 -302 21 -56 57 -146 80 -199 23 -53 52 -137 65 -188 14 -50 33 -100
44 -110 36 -37 95 7 187 139 24 33 68 80 99 104 68 53 124 137 150 223 27 91
25 284 -4 392 -24 87 -99 252 -138 303 -54 71 -3 108 81 58 86 -50 182 -223
221 -396 10 -46 17 -118 17 -189 0 -201 -35 -288 -241 -603 -89 -135 -173
-279 -230 -393 -91 -182 -147 -266 -297 -449 -128 -156 -211 -228 -420 -365
-110 -72 -207 -143 -230 -169 -22 -24 -35 -42 -29 -38 6 3 62 17 125 32 149
33 225 58 328 108 106 51 181 120 317 294 58 72 118 143 135 157 34 29 77 34
86 10 14 -37 -123 -269 -249 -420 -59 -71 -143 -194 -132 -194 3 0 51 31 107
69 116 78 213 161 281 240 78 92 94 140 114 331 6 62 20 113 49 185 95 233
270 568 392 749 97 143 121 221 121 391 0 311 -103 561 -349 843 -49 57 -111
136 -137 175 -72 108 -209 238 -404 384 -470 350 -802 551 -965 583 -35 7
-102 34 -160 65 -230 121 -497 191 -800 209 -72 4 -100 2 -140 -13z m1164
-397 c257 -140 936 -644 1084 -803 43 -47 57 -70 57 -92 0 -87 -92 -33 -470
275 -244 200 -322 260 -525 403 -203 144 -277 217 -248 246 13 13 37 6 102
-29z m703 -1191 c78 -83 174 -270 238 -462 41 -121 100 -356 100 -399 0 -33
-27 -38 -56 -11 -35 33 -44 51 -104 224 -29 83 -82 213 -118 290 -125 271
-143 324 -126 369 9 24 37 19 66 -11z"/>
<path d="M4467 6363 c-13 -12 -7 -31 19 -62 17 -20 90 -62 217 -125 221 -110
355 -193 726 -452 325 -228 385 -276 528 -421 314 -317 497 -628 547 -933 9
-52 23 -184 31 -292 11 -138 23 -230 42 -305 20 -82 27 -134 27 -216 1 -107 1
-107 -47 -148 -26 -23 -59 -64 -73 -92 -40 -78 -123 -314 -139 -392 -7 -38
-16 -79 -20 -90 -23 -67 134 227 200 375 81 180 113 217 162 184 23 -14 23
-14 23 25 0 21 9 81 19 134 22 105 47 288 56 417 5 64 1 118 -15 220 -13 75
-23 191 -25 261 -2 123 -3 129 -37 196 -49 95 -243 396 -343 528 -147 196
-284 308 -640 525 -66 41 -221 141 -344 223 -124 82 -265 174 -314 204 -249
151 -562 274 -600 236z"/>
<path d="M3290 5698 c-63 -11 -131 -27 -150 -36 -19 -9 -72 -55 -118 -102 -84
-85 -84 -85 -52 -88 17 -2 68 6 113 17 197 48 407 52 562 12 107 -28 283 -116
381 -189 43 -33 124 -101 179 -152 55 -51 125 -112 157 -137 63 -50 92 -97 77
-125 -19 -35 -104 3 -244 110 -219 168 -254 193 -316 230 -88 53 -193 99 -287
124 -95 26 -319 31 -424 9 -81 -16 -127 -52 -207 -161 -51 -71 -51 -71 -14
-65 21 4 65 15 98 26 169 54 351 65 490 29 90 -23 229 -93 365 -185 120 -81
354 -267 374 -297 8 -13 20 -45 26 -73 6 -27 29 -105 51 -172 63 -197 70 -234
76 -423 7 -206 -5 -316 -48 -445 -88 -264 -323 -495 -635 -622 -49 -20 -101
-45 -117 -56 -27 -21 -27 -21 65 -44 52 -14 126 -25 168 -25 70 -1 79 1 143
38 145 84 301 219 451 390 112 127 124 159 141 360 17 198 19 446 5 561 -23
184 -82 339 -165 431 -51 56 -55 74 -23 96 28 20 71 20 107 1 71 -36 161 -180
195 -310 28 -107 39 -294 31 -540 -10 -317 -10 -332 5 -349 40 -49 108 8 142
118 24 76 27 171 18 461 -4 117 -2 146 13 179 9 21 17 53 17 71 0 81 -84 289
-211 520 -55 102 -97 192 -113 246 -28 93 -80 176 -150 237 -53 46 -87 58
-103 36 -17 -23 2 -67 66 -153 63 -86 86 -130 73 -143 -32 -32 -119 42 -240
204 -40 53 -94 114 -120 136 -155 130 -373 229 -567 258 -115 18 -145 17 -285
-8z"/>
<path d="M3265 5089 c-120 -23 -179 -49 -222 -96 -22 -25 -53 -68 -68 -97 -15
-28 -39 -66 -53 -85 -14 -19 -20 -31 -12 -26 7 5 30 12 49 16 73 15 267 90
306 117 53 38 97 52 159 52 57 0 122 -15 132 -31 15 -25 -26 -42 -123 -51
-125 -12 -165 -35 -128 -72 22 -21 74 -34 190 -46 54 -6 117 -15 139 -21 79
-21 160 -73 242 -155 70 -69 89 -95 132 -185 68 -142 87 -223 86 -379 -1 -243
-76 -416 -249 -578 -89 -83 -217 -152 -330 -178 -38 -9 -85 -23 -103 -31 -33
-15 -33 -15 37 -48 161 -77 217 -81 330 -24 172 88 328 243 407 404 73 149 88
219 88 435 1 193 -3 225 -51 375 -75 236 -190 370 -452 527 -47 28 -111 71
-141 94 -82 64 -139 86 -234 90 -45 2 -103 -1 -131 -7z"/>
<path d="M3125 4692 c-36 -12 -52 -26 -84 -73 -29 -43 -94 -189 -85 -189 3 0
46 20 97 45 108 53 177 64 285 45 189 -31 345 -166 396 -339 21 -70 21 -202 0
-272 -49 -169 -194 -303 -364 -338 -176 -37 -165 -31 -107 -63 87 -48 155 -77
196 -84 34 -5 53 0 127 36 169 82 297 247 340 436 12 58 15 104 11 183 -10
209 -107 385 -273 494 -113 75 -448 148 -539 119z"/>
<path d="M6887 4533 c-24 -23 33 -231 88 -323 27 -45 27 -45 21 80 -3 69 -11
142 -17 164 -16 58 -69 103 -92 79z"/>
<path d="M3170 4377 c-81 -30 -125 -214 -74 -312 26 -49 76 -85 120 -85 27 0
36 6 50 31 19 37 12 74 -17 90 -16 8 -25 7 -39 -6 -15 -13 -23 -14 -39 -5 -32
17 -28 65 9 102 28 28 35 30 84 26 94 -8 150 -72 150 -174 1 -113 -90 -194
-241 -216 -81 -12 -81 -12 -16 -51 128 -77 183 -87 255 -44 252 149 246 507
-10 625 -66 30 -177 39 -232 19z"/>
<path d="M5008 4284 c-10 -21 -6 -62 22 -227 53 -316 45 -457 -31 -570 -13
-19 -58 -72 -99 -117 -110 -120 -110 -122 -104 -205 7 -89 -13 -148 -98 -293
-77 -129 -205 -264 -323 -340 -84 -54 -176 -124 -170 -130 1 -2 68 1 146 7
182 13 258 35 331 97 77 65 105 107 134 203 28 92 166 371 232 467 79 116 164
165 186 107 13 -32 -101 -249 -234 -448 -63 -94 -80 -128 -80 -163 0 -40 22
-46 73 -23 102 45 301 305 364 475 11 29 16 91 18 215 3 175 3 175 -41 260
-29 56 -64 152 -99 271 -79 272 -111 355 -155 401 -43 46 -56 48 -72 13z"/>
<path d="M6328 3693 c-38 -40 -74 -106 -168 -303 -104 -219 -173 -391 -239
-593 -28 -88 -59 -175 -67 -195 -26 -59 -82 -224 -74 -215 55 59 197 242 255
328 94 141 151 249 213 405 28 69 77 186 110 260 63 144 88 232 77 280 -14 64
-64 79 -107 33z"/>
<path d="M4620 3209 c-19 -12 -98 -83 -175 -157 -167 -162 -274 -243 -415
-317 -58 -30 -118 -65 -133 -78 -28 -23 -28 -23 80 -34 135 -15 241 -3 292 30
93 62 197 155 267 239 130 156 205 284 190 323 -8 22 -65 18 -106 -6z"/>
</g>
</svg>
