<?xml version="1.0" standalone="no"?>
<!DOCTYPE svg PUBLIC "-//W3C//DTD SVG 20010904//EN"
 "http://www.w3.org/TR/2001/REC-SVG-20010904/DTD/svg10.dtd">
<svg version="1.0" xmlns="http://www.w3.org/2000/svg"
 width="1000.000000pt" height="1000.000000pt" viewBox="0 0 1000.000000 1000.000000"
 preserveAspectRatio="xMidYMid meet">
<metadata>
  <rdf:RDF
    xmlns:rdf = "http://www.w3.org/1999/02/22-rdf-syntax-ns#"
    xmlns:rdfs = "http://www.w3.org/2000/01/rdf-schema#"
    xmlns:dc = "http://purl.org/dc/elements/1.1/"
    xmlns:cc = "http://creativecommons.org/ns#">
    <cc:license rdf:resource="http://creativecommons.org/publicdomain/zero/1.0/deed.en"/>
    <cc:permits rdf:resource="http://creativecommons.org/ns#Reproduction"/>
    <rdf:Description about="https://nft.mir.one/fingerprints"
      dc:title="TON Fingerprints"
      dc:description="This is a unique digital fingerprint created based on the algorithm for generating basic rings using a noise texture. Like human fingerprints, you can now use it for the Web3 and Metaverse era as digital biometric information."
      dc:publisher="https://nft.mir.one"
      dc:date="2022-02-22"
      dc:format="image/svg+xml"
      dc:language="en" >
      <dc:creator>
      <rdf:Bag>
        <rdf:li>EQBondcvD2_aOFADXSWJHs4ZazQDuEl9_wNvGGPxI8hGuOFU</rdf:li>
        <rdf:li>ipfs://bafkreihj7iub3fhmhq6jn62noukt5wxn3gv6bvcg7wmt6ywvlurefezckq</rdf:li>
      </rdf:Bag>
      </dc:creator>
    </rdf:Description>
  </rdf:RDF>
</metadata>
<g transform="translate(0.000000,1000.000000) scale(0.100000,-0.100000)"
fill="#1b1f23" stroke="none">
<path d="M5443 7734 c54 -103 102 -142 562 -454 243 -166 475 -309 475 -295 0
5 -246 212 -345 291 -122 97 -295 214 -475 322 -75 44 -157 100 -184 123 -45
40 -48 41 -33 13z"/>
<path d="M4540 7731 c-85 -7 -93 -4 110 -47 267 -58 417 -130 755 -364 120
-83 444 -294 710 -461 286 -180 404 -318 606 -714 141 -277 181 -340 237 -375
26 -16 48 -27 50 -25 3 2 -5 16 -16 30 -11 14 -41 74 -65 133 -25 59 -68 163
-97 232 -133 320 -240 492 -419 671 -119 119 -144 137 -446 339 -176 117 -373
251 -437 297 -203 146 -330 209 -528 260 -103 26 -310 37 -460 24z"/>
<path d="M4415 7519 c-33 -5 -100 -22 -150 -38 -96 -32 -278 -71 -327 -71 -30
0 -30 0 3 -32 19 -18 61 -48 93 -68 76 -47 312 -265 379 -350 76 -97 116 -138
302 -305 261 -235 424 -411 619 -668 184 -245 238 -353 235 -471 -2 -57 2 -80
21 -116 41 -81 120 -203 212 -328 104 -142 160 -231 152 -243 -15 -24 -57 -6
-121 52 -38 34 -92 79 -121 101 -29 21 -91 87 -139 146 -48 59 -151 170 -229
247 -78 77 -200 207 -271 290 -243 283 -550 596 -672 683 -55 40 -109 52 -127
28 -37 -52 58 -175 416 -541 161 -165 305 -324 420 -464 96 -118 202 -246 235
-284 124 -142 137 -166 224 -429 44 -134 90 -288 101 -343 27 -126 38 -405 21
-527 -35 -239 -171 -633 -309 -890 -161 -304 -392 -532 -612 -607 -161 -55
-162 -56 -31 -53 135 4 210 22 345 87 135 65 207 115 258 182 144 186 319 561
412 881 75 258 102 450 93 672 -9 244 -45 396 -148 628 -57 129 -71 184 -49
197 19 12 55 -21 119 -111 99 -138 139 -234 178 -429 26 -130 26 -556 -1 -700
-74 -405 -289 -957 -488 -1252 -15 -22 -38 -70 -51 -106 -24 -65 -24 -65 77
22 118 101 233 224 282 301 40 64 91 191 186 465 125 360 164 553 175 860 10
291 -17 512 -89 734 -39 120 -40 127 -28 177 23 93 5 142 -153 434 -25 47 -71
159 -102 250 -65 190 -119 294 -245 470 -251 351 -508 634 -755 831 -152 120
-197 166 -193 194 5 35 48 29 144 -19 112 -56 279 -182 393 -295 189 -188 649
-805 755 -1013 31 -61 40 -92 47 -161 10 -104 25 -144 103 -272 76 -126 108
-208 141 -365 14 -68 39 -174 55 -235 87 -336 75 -993 -25 -1320 -13 -44 -76
-231 -140 -415 -105 -301 -152 -456 -142 -467 2 -2 47 61 100 139 103 154 179
297 228 430 16 45 44 110 61 143 62 119 67 132 82 211 31 154 38 264 46 704 9
524 9 522 96 597 90 79 99 100 98 223 -1 113 -27 255 -91 505 -50 197 -71 253
-184 485 -74 154 -102 224 -113 280 -8 41 -21 92 -30 112 -16 36 -27 55 -125
217 -54 90 -68 151 -34 151 39 0 193 -192 260 -325 86 -168 252 -536 282 -625
27 -79 125 -438 187 -685 51 -202 82 -278 144 -348 38 -43 140 -231 140 -259
0 -6 2 -9 5 -7 7 8 -22 188 -71 439 -36 183 -62 285 -119 460 -54 163 -77 252
-85 320 -14 118 -34 167 -176 455 -129 263 -221 409 -321 511 -78 80 -136 118
-223 144 -42 13 -90 40 -153 87 -102 76 -149 106 -283 181 -51 28 -181 111
-290 184 -226 152 -376 233 -526 282 -160 54 -250 64 -383 45z m171 -174 c72
-18 177 -51 233 -74 179 -72 392 -210 546 -353 75 -71 87 -86 101 -136 23 -82
69 -161 190 -329 164 -227 230 -308 339 -418 132 -131 242 -294 305 -454 10
-27 43 -163 72 -303 48 -233 52 -264 53 -390 0 -115 -3 -140 -17 -154 -41 -42
-68 8 -109 202 -34 165 -78 312 -109 362 -11 18 -32 37 -48 43 -70 26 -180
190 -143 213 22 14 69 -25 120 -98 28 -41 57 -78 63 -82 16 -10 38 25 38 63 0
85 -56 172 -370 568 -156 197 -325 425 -454 613 -151 218 -332 379 -550 489
-92 46 -129 59 -259 88 -195 44 -347 150 -264 185 32 14 113 3 263 -35z m1071
-536 c78 -38 161 -132 259 -294 50 -82 114 -188 143 -234 56 -93 65 -131 29
-131 -45 1 -110 76 -256 292 -50 73 -128 177 -174 231 -105 125 -102 121 -95
141 9 22 42 20 94 -5z"/>
<path d="M3730 7140 c-14 -4 -45 -8 -69 -9 -45 -1 -45 -1 -15 -30 16 -16 70
-56 119 -89 166 -111 257 -231 227 -297 -22 -49 -58 -35 -180 71 -113 97 -138
108 -219 100 -35 -4 -75 -11 -89 -16 -14 -6 -39 -10 -55 -10 -30 0 -30 0 3
-29 18 -15 53 -39 78 -51 122 -62 230 -158 230 -205 0 -44 -27 -41 -136 13
-119 59 -155 64 -256 32 -34 -11 -74 -20 -88 -21 -15 0 -19 -3 -10 -6 8 -3 27
-14 41 -24 42 -29 299 -127 378 -144 39 -8 89 -24 110 -35 84 -43 185 -189
245 -358 34 -97 32 -94 142 -238 108 -141 134 -190 158 -289 10 -42 62 -162
131 -305 130 -270 171 -386 161 -458 -16 -113 -18 -198 -7 -304 7 -62 19 -234
26 -383 10 -181 20 -290 31 -330 19 -70 14 -143 -17 -255 -76 -275 -231 -535
-464 -779 -67 -69 -130 -142 -142 -162 -21 -36 -21 -36 31 -22 206 60 219 65
270 117 72 74 277 391 356 551 44 88 96 218 141 350 88 263 104 327 124 495
28 250 17 429 -40 607 -31 99 -230 500 -320 648 -158 257 -173 289 -140 301
48 19 168 -98 293 -286 149 -223 235 -426 296 -701 40 -179 49 -295 31 -409
-8 -52 -26 -185 -41 -295 -52 -402 -150 -670 -352 -968 -130 -191 -151 -227
-162 -284 -13 -58 -41 -89 -151 -163 -35 -24 -67 -47 -70 -52 -3 -4 -21 -20
-40 -34 -19 -15 -26 -24 -16 -20 10 3 60 11 110 16 318 36 414 63 534 154 220
167 392 453 561 936 84 238 102 313 109 455 9 194 -43 467 -147 770 -45 129
-75 185 -116 212 -26 16 -27 16 -45 -6 -22 -26 -20 -36 27 -211 18 -69 60
-231 91 -360 57 -231 58 -238 57 -375 0 -154 -13 -207 -72 -304 -17 -27 -46
-93 -66 -147 -104 -285 -155 -397 -247 -549 -132 -219 -311 -385 -414 -385
-61 0 -53 22 47 122 194 193 326 413 431 711 42 122 42 122 43 347 1 124 7
249 13 279 16 80 47 121 67 89 4 -6 7 -94 5 -194 -1 -153 1 -185 14 -198 38
-37 72 18 88 145 14 115 -1 213 -44 283 -24 39 -35 77 -55 193 -14 79 -41 213
-59 296 -26 111 -35 176 -35 242 -1 106 -17 153 -99 285 -138 222 -321 430
-512 584 -220 177 -388 429 -389 584 0 44 -8 69 -50 148 -54 103 -57 117 -36
169 19 45 48 46 110 3 469 -329 578 -433 1071 -1022 96 -115 164 -169 205
-164 59 7 14 106 -147 323 -238 321 -456 550 -830 872 -150 129 -319 277 -375
329 -57 53 -123 109 -147 125 -41 27 -51 29 -130 28 -47 -1 -97 -5 -111 -9z
m1058 -2477 c53 -78 73 -183 79 -419 6 -213 -7 -378 -34 -445 -14 -37 -40 -57
-54 -42 -4 4 -9 154 -12 333 -4 270 -8 347 -26 453 -12 71 -19 132 -16 138 12
18 44 9 63 -18z"/>
<path d="M3302 6384 c-29 -7 -63 -19 -74 -25 -12 -7 -33 -15 -46 -18 -25 -7
-25 -7 2 -24 15 -10 65 -29 112 -43 131 -37 194 -76 194 -117 0 -19 -4 -20
-87 -12 -148 14 -162 12 -256 -37 -86 -45 -86 -45 -49 -61 49 -21 211 -37 376
-37 126 0 141 -2 251 -37 137 -42 168 -40 173 15 6 61 -54 129 -218 246 -89
64 -279 166 -308 165 -9 0 -41 -7 -70 -15z"/>
<path d="M3124 5862 c-28 -16 -66 -40 -86 -55 -19 -15 -41 -27 -49 -28 -42 -1
88 -37 156 -43 330 -26 593 -118 740 -257 83 -79 131 -150 260 -382 143 -258
193 -398 240 -672 36 -213 48 -383 42 -609 -6 -224 -19 -298 -84 -461 -71
-180 -169 -316 -271 -379 -63 -39 -217 -190 -251 -248 -23 -38 -23 -38 6 -33
15 2 55 6 88 9 113 10 144 27 259 146 125 130 190 219 261 360 111 221 140
358 131 605 -16 393 -62 875 -97 1004 -29 109 -78 222 -194 448 -120 235 -165
304 -252 388 -75 74 -148 112 -293 153 -135 39 -183 48 -332 67 -176 22 -213
20 -274 -13z"/>
<path d="M6875 5641 c-7 -23 15 -84 87 -246 52 -118 134 -269 124 -230 -3 11
-17 67 -31 125 -33 136 -62 223 -93 285 -40 83 -73 108 -87 66z"/>
<path d="M3095 5581 c-22 -11 -65 -40 -95 -65 -30 -25 -59 -46 -65 -46 -23 -2
92 -40 119 -40 53 0 238 -31 335 -56 147 -38 353 -144 415 -213 15 -17 16 -23
6 -36 -21 -26 -75 -17 -217 36 -178 66 -297 96 -414 105 -95 6 -95 6 -161 -50
-45 -38 -75 -56 -94 -56 -27 0 -27 0 10 -25 20 -14 41 -25 46 -25 13 0 30 -35
30 -62 0 -25 -62 -136 -87 -155 -13 -10 -10 -14 19 -26 19 -8 55 -18 79 -22
131 -22 338 -110 413 -176 34 -30 47 -50 56 -88 6 -28 37 -92 67 -143 134
-227 170 -331 213 -614 10 -72 28 -155 40 -183 11 -28 20 -71 20 -95 0 -57
-40 -212 -80 -312 -29 -73 -44 -102 -135 -256 -33 -57 -33 -57 -7 -53 15 2 54
7 86 10 121 12 139 34 200 250 19 66 58 183 86 260 101 272 102 277 108 427
14 409 -146 780 -395 910 -86 46 -253 114 -405 167 -140 48 -174 64 -189 93
-17 32 19 58 81 58 102 0 420 -102 579 -185 242 -127 409 -477 437 -919 13
-200 -23 -379 -131 -652 -95 -240 -102 -284 -50 -284 34 0 95 75 153 188 131
255 178 513 152 827 -30 369 -126 659 -295 890 -107 146 -116 160 -129 218
-18 75 -56 137 -118 190 -109 92 -272 161 -468 196 -173 32 -172 32 -215 12z
m581 -962 c83 -51 188 -217 238 -378 42 -133 58 -250 54 -386 -4 -133 -24
-197 -64 -203 -21 -3 -21 1 -27 165 -11 311 -90 538 -256 728 -60 69 -68 84
-53 99 12 12 70 -1 108 -25z"/>
<path d="M3082 4662 c-22 -3 -142 -116 -142 -132 0 -9 20 -15 114 -35 38 -9
87 -24 110 -34 192 -86 354 -377 388 -697 19 -188 -7 -319 -104 -521 -24 -51
-39 -88 -33 -83 6 5 39 13 74 19 102 16 124 38 166 160 53 155 54 265 8 536
-53 316 -246 645 -433 740 -71 36 -120 52 -148 47z"/>
<path d="M6610 4642 c-58 -58 -62 -93 -71 -582 -4 -245 -12 -514 -18 -598 -12
-172 -7 -229 23 -287 21 -40 21 -40 24 -10 1 17 23 113 47 215 77 320 77 327
70 818 -3 238 -8 439 -11 446 -10 27 -35 26 -64 -2z"/>
<path d="M6792 4598 c-14 -14 -15 -114 -2 -249 5 -53 14 -193 19 -310 14 -277
22 -375 31 -358 4 8 18 91 31 184 20 138 24 212 24 395 0 237 -7 287 -45 328
-23 25 -40 28 -58 10z"/>
<path d="M3027 4331 c-38 -6 -38 -6 51 -93 129 -124 189 -221 223 -358 26
-106 10 -335 -31 -436 -8 -21 -8 -21 48 -2 108 36 127 75 127 263 -1 103 -6
148 -23 215 -43 159 -135 313 -230 385 -47 37 -74 41 -165 26z"/>
<path d="M6383 3148 c-37 -47 -86 -227 -81 -299 3 -43 4 -42 57 91 53 130 69
209 45 217 -6 2 -16 -2 -21 -9z"/>
<path d="M5298 2203 c7 -3 16 -2 19 1 4 3 -2 6 -13 5 -11 0 -14 -3 -6 -6z"/>
</g>
</svg>
