<?xml version="1.0" standalone="no"?>
<!DOCTYPE svg PUBLIC "-//W3C//DTD SVG 20010904//EN"
 "http://www.w3.org/TR/2001/REC-SVG-20010904/DTD/svg10.dtd">
<svg version="1.0" xmlns="http://www.w3.org/2000/svg"
 width="1000.000000pt" height="1000.000000pt" viewBox="0 0 1000.000000 1000.000000"
 preserveAspectRatio="xMidYMid meet">
<metadata>
  <rdf:RDF
    xmlns:rdf = "http://www.w3.org/1999/02/22-rdf-syntax-ns#"
    xmlns:rdfs = "http://www.w3.org/2000/01/rdf-schema#"
    xmlns:dc = "http://purl.org/dc/elements/1.1/"
    xmlns:cc = "http://creativecommons.org/ns#">
    <cc:license rdf:resource="http://creativecommons.org/publicdomain/zero/1.0/deed.en"/>
    <cc:permits rdf:resource="http://creativecommons.org/ns#Reproduction"/>
    <rdf:Description about="https://nft.mir.one/fingerprints"
      dc:title="TON Fingerprints"
      dc:description="This is a unique digital fingerprint created based on the algorithm for generating basic rings using a noise texture. Like human fingerprints, you can now use it for the Web3 and Metaverse era as digital biometric information."
      dc:publisher="https://nft.mir.one"
      dc:date="2022-02-22"
      dc:format="image/svg+xml"
      dc:language="en" >
      <dc:creator>
      <rdf:Bag>
        <rdf:li>EQBondcvD2_aOFADXSWJHs4ZazQDuEl9_wNvGGPxI8hGuOFU</rdf:li>
        <rdf:li>ipfs://bafkreihj7iub3fhmhq6jn62noukt5wxn3gv6bvcg7wmt6ywvlurefezckq</rdf:li>
      </rdf:Bag>
      </dc:creator>
    </rdf:Description>
  </rdf:RDF>
</metadata>
<g transform="translate(0.000000,1000.000000) scale(0.100000,-0.100000)"
fill="#1b1f23" stroke="none">
<path d="M4605 7736 c-44 -7 -107 -21 -140 -30 -75 -22 -227 -78 -222 -82 2
-2 49 12 105 30 142 48 228 59 391 51 325 -16 600 -79 889 -201 265 -113 545
-307 688 -476 60 -71 118 -117 130 -105 12 12 -142 221 -203 277 -280 257
-630 437 -1003 515 -107 23 -156 27 -340 30 -147 3 -240 0 -295 -9z"/>
<path d="M4615 7565 c-5 -1 -43 -8 -82 -15 -130 -21 -159 -78 -51 -99 29 -5
98 -13 153 -16 234 -15 453 -58 689 -136 163 -53 352 -139 404 -184 45 -38 67
-82 51 -101 -14 -17 -9 -19 -224 61 -369 137 -616 203 -905 240 -107 13 -226
34 -265 45 -38 11 -88 20 -110 20 -98 0 -333 -91 -545 -211 -71 -41 -128 -74
-127 -75 1 -1 34 2 72 7 39 4 124 13 190 19 66 6 194 20 284 32 137 17 198 20
360 15 231 -7 335 -25 510 -93 125 -47 283 -96 476 -146 104 -27 136 -31 238
-30 143 1 169 -7 348 -109 276 -158 403 -267 522 -446 129 -194 192 -381 286
-852 54 -270 71 -599 52 -1036 -10 -239 -9 -266 7 -323 18 -63 18 -63 40 150
70 672 52 1080 -68 1558 -71 283 -171 516 -311 728 -87 133 -167 213 -294 298
-60 40 -195 141 -300 225 -104 84 -215 168 -244 187 -182 117 -526 235 -802
276 -91 14 -323 21 -354 11z"/>
<path d="M4375 7021 c-161 -44 -269 -99 -377 -194 -88 -76 -161 -124 -335
-221 -56 -31 -138 -83 -182 -116 -198 -147 -403 -504 -512 -889 -33 -117 -37
-148 -10 -81 29 75 170 329 232 421 191 278 406 474 578 525 88 26 133 46 301
134 129 67 170 74 339 61 75 -6 276 -16 446 -21 412 -12 522 -31 946 -160 293
-90 369 -130 510 -277 144 -149 247 -339 195 -359 -28 -11 -74 27 -172 142
-186 220 -368 338 -428 279 -26 -26 0 -70 90 -153 122 -112 413 -433 456 -504
63 -103 111 -252 150 -464 21 -118 23 -156 22 -434 -1 -343 -8 -400 -68 -526
-79 -167 -186 -294 -268 -319 -39 -11 -68 -32 -127 -88 -43 -41 -104 -92 -137
-114 -155 -106 -343 -170 -381 -132 -22 22 8 56 94 110 135 85 234 161 282
215 24 27 67 99 99 164 94 196 183 357 214 389 31 32 78 42 78 17 0 -19 -47
-129 -120 -281 -67 -137 -85 -210 -56 -221 28 -11 66 25 127 119 113 175 148
298 111 392 -18 46 -18 56 -6 140 33 233 0 533 -88 785 -68 194 -146 307 -428
621 -62 68 -122 147 -145 189 -22 40 -53 83 -70 95 -123 92 -377 163 -665 185
-179 13 -199 17 -280 48 -125 48 -388 41 -544 -15 -86 -31 -195 -101 -234
-151 -56 -72 -195 -296 -233 -376 -59 -127 -65 -163 -40 -231 27 -71 26 -97
-4 -291 -38 -242 -33 -398 17 -554 52 -162 229 -467 361 -621 214 -250 559
-452 849 -499 100 -16 303 -8 378 15 221 69 508 281 608 450 61 104 199 403
217 470 22 85 20 167 -4 189 -39 35 -70 5 -120 -114 -41 -98 -110 -230 -152
-292 -30 -44 -38 -63 -30 -71 33 -33 -3 -122 -77 -188 -58 -52 -299 -188 -406
-230 -278 -108 -606 -57 -902 141 -106 71 -296 263 -366 370 -116 176 -196
369 -219 529 -31 216 29 561 114 654 60 66 302 282 369 330 80 57 211 120 293
140 97 25 406 51 514 44 270 -17 441 -113 684 -382 210 -233 308 -425 361
-705 9 -47 29 -123 46 -170 35 -99 40 -199 15 -295 -17 -65 -216 -443 -295
-560 -26 -38 -78 -100 -115 -137 -62 -61 -307 -245 -396 -297 -65 -38 -183
-61 -314 -62 -196 0 -312 30 -530 136 -295 143 -545 350 -707 584 -46 67 -225
364 -299 497 -43 77 -61 170 -61 319 0 143 16 252 62 420 33 121 38 192 16
201 -24 9 -74 -24 -106 -71 -43 -63 -77 -143 -105 -249 -46 -171 -53 -282 -40
-656 7 -208 8 -219 41 -318 62 -189 192 -425 315 -571 70 -83 258 -244 381
-327 199 -134 427 -231 483 -206 58 27 12 77 -156 171 -251 141 -399 251 -550
408 -171 178 -333 452 -384 649 -17 66 -12 94 15 94 25 0 43 -27 139 -208 165
-311 306 -480 548 -659 86 -64 126 -89 388 -245 274 -163 305 -170 805 -174
336 -3 372 -2 449 17 152 35 335 135 444 242 68 67 186 216 267 337 34 52 89
122 120 155 51 54 59 68 73 131 27 118 40 341 34 584 -8 307 -35 488 -113 760
-22 79 -40 171 -49 251 -11 105 -19 142 -47 206 -101 233 -304 432 -569 557
-124 59 -217 88 -380 121 -74 15 -213 44 -309 65 -96 21 -215 46 -265 54 -90
16 -90 16 -113 -14 -40 -51 -94 -60 -353 -60 -185 0 -229 3 -238 14 -20 23 3
52 56 73 43 16 76 18 296 16 243 -2 247 -1 247 19 0 32 -56 76 -128 99 -99 32
-367 37 -467 10z m379 -627 c26 -10 18 -43 -14 -63 -17 -10 -81 -33 -142 -50
-251 -73 -377 -160 -581 -404 -51 -61 -70 -69 -87 -37 -34 64 107 285 251 395
131 99 313 159 496 164 34 0 68 -2 77 -5z"/>
<path d="M3735 6961 c-113 -53 -255 -176 -415 -361 -119 -138 -119 -138 -27
-75 51 34 135 91 188 127 53 36 152 95 221 133 69 37 142 80 162 97 37 30 46
64 24 86 -18 18 -108 14 -153 -7z"/>
<path d="M3735 6338 c-104 -69 -315 -307 -438 -493 -108 -165 -173 -329 -202
-510 -25 -153 -36 -425 -25 -602 12 -180 22 -229 50 -238 45 -14 79 -76 167
-302 50 -125 100 -256 113 -291 34 -95 91 -175 161 -229 35 -26 133 -104 218
-172 322 -257 527 -362 791 -405 295 -48 468 -61 800 -61 291 0 340 2 468 23
164 26 314 67 450 123 119 48 142 64 268 177 126 113 214 226 329 422 5 8 -31
-27 -80 -79 -117 -123 -161 -151 -235 -151 -52 0 -62 -4 -155 -66 -129 -85
-251 -147 -379 -189 -171 -57 -239 -66 -569 -72 -311 -6 -414 0 -646 38 -116
19 -127 19 -193 4 -105 -24 -210 0 -384 88 -159 80 -464 312 -579 439 -107
119 -195 284 -319 594 -94 238 -109 311 -109 554 0 275 31 458 105 635 42 98
87 170 189 300 121 154 270 356 296 400 37 64 28 95 -26 95 -10 0 -39 -14 -66
-32z"/>
<path d="M4615 6016 c-123 -60 -219 -130 -333 -244 -206 -206 -270 -369 -259
-656 7 -173 26 -246 107 -411 95 -193 230 -350 393 -459 164 -109 300 -155
483 -163 152 -7 242 11 369 72 119 58 159 93 197 173 24 50 55 90 129 164 114
115 165 193 251 383 61 136 63 143 66 236 3 75 -1 114 -17 173 -72 262 -326
558 -561 653 -108 43 -176 55 -289 51 -134 -5 -155 -15 -354 -155 -175 -123
-325 -266 -380 -360 -157 -272 -128 -600 76 -841 133 -158 312 -244 507 -245
154 0 294 59 415 177 149 146 245 347 245 516 0 190 -124 391 -277 451 -51 20
-76 23 -213 23 -181 0 -238 -14 -353 -91 -283 -188 -285 -592 -5 -744 60 -32
68 -34 163 -34 86 0 107 3 150 24 112 56 186 170 193 296 3 60 -1 86 -33 180
-21 64 -37 133 -38 165 -2 50 0 55 21 58 53 8 147 -104 182 -217 71 -228 -44
-488 -266 -597 -77 -39 -79 -39 -198 -39 -119 0 -122 1 -199 37 -134 64 -234
176 -285 320 -20 59 -25 92 -26 173 0 178 49 290 189 430 206 206 462 284 691
211 262 -84 454 -342 454 -610 0 -223 -92 -413 -312 -641 -93 -97 -122 -121
-189 -154 -201 -101 -435 -94 -648 20 -353 189 -551 614 -456 980 56 215 191
382 464 572 118 82 151 118 135 145 -22 34 -90 26 -189 -22z m469 -690 c18 -8
41 -24 49 -36 25 -36 7 -56 -63 -68 -127 -23 -185 -76 -185 -170 0 -47 4 -57
28 -78 30 -26 71 -32 84 -11 4 6 8 28 8 47 0 28 5 36 27 44 31 11 73 -11 90
-49 26 -58 -25 -143 -102 -166 -131 -39 -260 73 -260 226 0 177 179 322 324
261z"/>
<path d="M2931 5454 c0 -11 3 -14 6 -6 3 7 2 16 -1 19 -3 4 -6 -2 -5 -13z"/>
<path d="M2912 5320 c0 -14 2 -19 5 -12 2 6 2 18 0 25 -3 6 -5 1 -5 -13z"/>
<path d="M2902 5150 c0 -14 2 -19 5 -12 2 6 2 18 0 25 -3 6 -5 1 -5 -13z"/>
<path d="M3060 4461 c-26 -50 4 -192 90 -420 49 -131 61 -193 39 -206 -18 -12
-55 4 -89 37 -33 33 -33 33 -10 -2 13 -19 39 -54 57 -76 18 -23 74 -125 123
-227 143 -297 217 -404 406 -588 228 -221 463 -362 782 -468 214 -72 362 -91
704 -91 303 0 433 21 838 134 85 23 85 23 -15 30 -55 4 -167 3 -250 -3 -82 -6
-245 -11 -361 -11 -428 0 -723 39 -991 131 -320 111 -558 254 -769 464 -145
145 -198 228 -229 361 -8 35 -37 108 -65 163 -47 95 -49 103 -48 178 0 65 -5
94 -32 168 -18 50 -60 170 -93 268 -33 97 -64 177 -69 177 -4 0 -12 -9 -18
-19z"/>
<path d="M5738 4400 c-54 -36 -101 -93 -96 -118 5 -28 46 -26 89 4 46 31 113
119 104 134 -11 19 -51 10 -97 -20z"/>
<path d="M6757 4078 c-9 -7 -34 -46 -57 -86 -22 -39 -72 -120 -110 -178 -75
-114 -98 -171 -80 -204 14 -25 13 -26 64 9 73 51 173 201 216 326 37 106 20
173 -33 133z"/>
<path d="M3490 3517 c0 -82 195 -287 422 -444 109 -75 315 -179 443 -223 100
-35 286 -82 385 -99 352 -58 1075 -53 1260 8 112 38 249 111 379 204 69 49
130 93 135 98 18 16 -84 -5 -179 -38 -318 -109 -628 -150 -1055 -140 -507 12
-833 76 -1125 222 -153 77 -271 159 -447 312 -140 123 -155 133 -192 133 -23
0 -26 -4 -26 -33z"/>
<path d="M4090 2471 c67 -37 318 -140 452 -186 134 -45 134 -45 484 -44 192 0
369 4 394 8 45 8 45 9 -20 10 -36 0 -130 8 -210 17 -95 10 -216 14 -350 13
-205 -3 -205 -3 -475 93 -333 118 -317 113 -275 89z"/>
</g>
</svg>
