<?xml version="1.0" standalone="no"?>
<!DOCTYPE svg PUBLIC "-//W3C//DTD SVG 20010904//EN"
 "http://www.w3.org/TR/2001/REC-SVG-20010904/DTD/svg10.dtd">
<svg version="1.0" xmlns="http://www.w3.org/2000/svg"
 width="1000.000000pt" height="1000.000000pt" viewBox="0 0 1000.000000 1000.000000"
 preserveAspectRatio="xMidYMid meet">
<metadata>
  <rdf:RDF
    xmlns:rdf = "http://www.w3.org/1999/02/22-rdf-syntax-ns#"
    xmlns:rdfs = "http://www.w3.org/2000/01/rdf-schema#"
    xmlns:dc = "http://purl.org/dc/elements/1.1/"
    xmlns:cc = "http://creativecommons.org/ns#">
    <cc:license rdf:resource="http://creativecommons.org/publicdomain/zero/1.0/deed.en"/>
    <cc:permits rdf:resource="http://creativecommons.org/ns#Reproduction"/>
    <rdf:Description about="https://nft.mir.one/fingerprints"
      dc:title="TON Fingerprints"
      dc:description="This is a unique digital fingerprint created based on the algorithm for generating basic rings using a noise texture. Like human fingerprints, you can now use it for the Web3 and Metaverse era as digital biometric information."
      dc:publisher="https://nft.mir.one"
      dc:date="2022-02-22"
      dc:format="image/svg+xml"
      dc:language="en" >
      <dc:creator>
      <rdf:Bag>
        <rdf:li>EQBondcvD2_aOFADXSWJHs4ZazQDuEl9_wNvGGPxI8hGuOFU</rdf:li>
        <rdf:li>ipfs://bafkreihj7iub3fhmhq6jn62noukt5wxn3gv6bvcg7wmt6ywvlurefezckq</rdf:li>
      </rdf:Bag>
      </dc:creator>
    </rdf:Description>
  </rdf:RDF>
</metadata>
<g transform="translate(0.000000,1000.000000) scale(0.100000,-0.100000)"
fill="#1b1f23" stroke="none">
<path d="M4952 7815 c3 -3 92 -17 199 -30 107 -13 220 -29 252 -35 33 -6 61
-9 63 -7 9 8 -217 47 -361 62 -159 17 -160 17 -153 10z"/>
<path d="M5488 7733 c7 -3 16 -2 19 1 4 3 -2 6 -13 5 -11 0 -14 -3 -6 -6z"/>
<path d="M4785 7721 c-6 -5 -55 -21 -111 -35 -220 -56 -459 -153 -717 -294
-86 -47 -156 -86 -154 -88 5 -5 169 47 307 99 74 27 248 89 387 137 263 91
327 123 321 163 -3 23 -19 32 -33 18z"/>
<path d="M5019 7569 c-36 -5 -117 -27 -180 -50 -63 -22 -216 -76 -341 -120
-378 -131 -502 -185 -653 -284 -103 -67 -256 -186 -370 -289 -50 -45 -106 -93
-125 -108 -35 -27 -35 -27 5 -13 22 8 47 14 56 15 45 1 284 112 394 184 203
132 387 214 755 337 249 83 372 115 493 130 203 25 482 -26 620 -113 48 -31
69 -70 49 -90 -14 -14 -98 -6 -262 27 -112 23 -161 28 -290 28 -135 0 -168 -4
-254 -27 -169 -44 -594 -185 -715 -237 -212 -91 -336 -186 -329 -252 6 -60 53
-50 308 58 173 74 333 127 449 149 128 24 161 22 212 -17 64 -48 190 -122 229
-135 19 -7 112 -27 206 -47 289 -59 435 -117 552 -218 81 -71 340 -343 441
-463 151 -181 366 -466 554 -734 103 -146 200 -283 217 -305 16 -22 37 -49 45
-60 8 -11 -2 32 -21 95 -64 214 -170 397 -484 840 -163 229 -261 353 -403 510
-147 161 -167 189 -167 228 0 42 24 47 75 18 97 -57 233 -195 369 -374 56 -73
391 -576 494 -742 122 -195 129 -198 67 -25 -63 172 -261 576 -365 744 -163
263 -323 442 -452 506 -67 33 -84 37 -198 45 -69 4 -174 20 -235 34 -201 46
-759 136 -845 136 -82 0 -63 65 27 91 70 20 279 16 463 -10 193 -27 543 -46
570 -31 42 22 52 78 24 133 -29 56 -151 193 -216 242 -73 56 -193 114 -293
143 -157 46 -356 67 -476 51z"/>
<path d="M6035 7431 c18 -37 94 -105 144 -130 60 -31 62 -25 4 14 -29 19 -77
59 -107 89 -39 38 -51 46 -41 27z"/>
<path d="M6178 7045 c-23 -50 17 -98 193 -237 79 -62 96 -82 224 -269 99 -146
158 -243 208 -348 60 -126 150 -281 163 -281 2 0 -8 26 -22 58 -14 31 -50 118
-79 193 -62 158 -117 270 -187 382 -27 43 -64 111 -82 151 -40 87 -107 169
-216 261 -136 116 -181 136 -202 90z"/>
<path d="M4595 6764 c-38 -8 -160 -51 -270 -94 -250 -98 -258 -100 -385 -100
-126 0 -134 -4 -218 -110 -32 -41 -105 -113 -162 -160 -229 -187 -281 -233
-324 -282 -66 -76 -161 -249 -236 -434 -65 -158 -67 -165 -38 -138 16 16 66
76 111 133 161 209 374 408 615 578 163 114 244 155 428 214 175 57 233 83
308 139 104 77 185 106 376 135 117 17 151 36 131 73 -26 49 -208 74 -336 46z"/>
<path d="M3485 6588 c-54 -28 -197 -176 -269 -279 -33 -46 -81 -114 -106 -150
-47 -66 -47 -66 14 -25 33 22 93 68 131 101 39 33 124 102 190 151 167 126
208 177 173 212 -18 18 -89 13 -133 -10z"/>
<path d="M4855 6547 c-93 -18 -196 -42 -229 -52 -55 -18 -126 -70 -126 -93 0
-21 33 -44 54 -38 158 42 542 47 686 8 151 -41 233 -75 355 -147 173 -103 348
-262 572 -522 68 -78 159 -174 203 -215 93 -84 176 -187 253 -314 179 -294
250 -523 277 -894 7 -109 17 -172 32 -212 11 -32 22 -58 25 -58 2 0 3 26 2 58
-1 31 2 170 6 307 14 443 -6 523 -213 840 -105 162 -163 237 -394 512 -493
587 -706 749 -1086 828 -141 30 -228 28 -417 -8z"/>
<path d="M4600 6291 c-38 -7 -50 -31 -28 -58 23 -29 89 -51 278 -93 249 -56
351 -90 505 -165 270 -133 548 -394 665 -625 53 -106 201 -462 240 -578 63
-190 81 -292 87 -502 5 -159 2 -202 -16 -309 -34 -202 -129 -454 -188 -501
-63 -49 -61 15 11 301 64 255 81 379 73 544 -13 263 -72 467 -228 794 -119
250 -261 434 -443 575 -201 157 -352 227 -740 345 -111 34 -246 82 -305 110
-130 62 -188 74 -284 61 -166 -24 -309 -81 -492 -198 -253 -162 -579 -488
-699 -700 -47 -83 -63 -124 -92 -239 -19 -76 -37 -147 -40 -158 -3 -11 4 -5
15 13 12 18 27 35 35 38 7 3 36 40 64 82 56 86 329 389 471 524 208 198 433
337 628 389 153 41 339 27 536 -41 317 -108 592 -229 732 -321 111 -74 305
-270 384 -389 127 -191 241 -459 287 -670 23 -105 26 -391 6 -485 -21 -94 -62
-225 -88 -281 -21 -44 -33 -56 -77 -77 -36 -18 -80 -56 -145 -126 -116 -125
-217 -202 -368 -278 -231 -118 -389 -163 -567 -163 -234 0 -495 82 -627 197
-92 81 -59 92 95 32 44 -17 132 -44 195 -61 106 -29 128 -31 285 -32 156 -1
179 1 278 27 320 84 555 235 769 498 45 55 99 169 123 259 25 99 31 314 11
430 -33 189 -124 404 -255 600 -181 275 -405 441 -742 551 -169 55 -179 59
-233 105 -106 91 -340 118 -552 64 -103 -26 -256 -102 -369 -182 -49 -34 -150
-121 -223 -193 -305 -295 -453 -520 -483 -732 -16 -117 -5 -181 46 -258 25
-38 60 -115 85 -187 84 -239 152 -383 273 -573 77 -121 313 -462 367 -530 183
-229 420 -366 772 -446 144 -32 177 -46 206 -86 20 -27 20 -27 258 -27 270 0
360 12 530 69 449 149 816 479 1025 920 103 219 145 415 134 625 -18 343 -72
571 -195 825 -119 246 -239 400 -294 379 -30 -11 -16 -58 68 -223 196 -388
266 -657 266 -1014 -1 -272 -47 -456 -170 -670 -77 -135 -239 -301 -451 -461
-296 -225 -621 -330 -839 -272 -36 9 -112 21 -170 27 -120 12 -367 60 -467 90
-187 57 -350 148 -452 250 -65 66 -94 114 -136 227 -60 162 -105 234 -258 411
-158 183 -237 320 -311 541 -51 154 -71 276 -57 366 23 158 59 217 279 468
223 255 362 368 548 444 164 68 382 95 522 66 33 -7 25 -43 -14 -66 -17 -10
-101 -36 -186 -57 -240 -60 -384 -136 -524 -275 -81 -81 -145 -174 -170 -248
-15 -46 -15 -64 -5 -172 34 -343 44 -393 114 -582 57 -152 65 -201 40 -233
-26 -32 -51 -18 -97 57 -127 209 -165 343 -175 605 -5 161 -8 180 -25 193 -26
19 -30 18 -64 -11 -154 -130 -84 -617 121 -842 59 -64 102 -88 177 -98 30 -4
71 -14 90 -22 62 -26 92 -33 265 -55 220 -28 426 -30 510 -4 133 40 215 109
309 259 174 279 182 544 20 697 -30 28 -80 63 -111 78 -52 24 -69 27 -168 27
-103 0 -114 -2 -177 -32 -86 -40 -147 -97 -218 -203 -66 -98 -91 -123 -117
-118 -60 11 7 230 102 336 125 139 333 208 517 173 155 -30 319 -153 384 -286
26 -54 28 -70 29 -165 0 -163 -50 -309 -208 -610 -102 -193 -126 -220 -232
-259 -124 -47 -218 -55 -471 -41 -127 7 -242 10 -257 6 -15 -3 -34 -17 -43
-31 -15 -23 -15 -27 -1 -49 23 -35 58 -43 278 -66 308 -32 382 -28 654 35 83
19 179 42 215 50 113 26 186 69 280 164 138 139 200 287 200 482 0 170 -47
308 -143 415 -29 32 -80 99 -112 149 -135 205 -307 339 -500 390 -68 18 -225
21 -300 6 -210 -41 -404 -169 -484 -320 -84 -158 -82 -297 3 -390 31 -33 49
-66 65 -116 57 -180 193 -287 366 -289 103 -1 167 24 237 94 98 99 113 213 39
293 -30 31 -46 40 -82 44 -38 4 -50 1 -77 -22 -24 -20 -32 -35 -32 -59 0 -51
48 -84 79 -53 10 10 15 8 27 -7 44 -61 -67 -141 -159 -115 -109 30 -156 140
-106 249 99 219 411 211 485 -13 12 -36 15 -73 12 -133 -4 -70 -10 -94 -41
-157 -104 -211 -306 -302 -555 -251 -209 43 -314 152 -411 428 -160 454 11
777 496 935 136 44 254 64 343 58 203 -15 443 -147 604 -332 139 -161 274
-391 322 -551 24 -79 28 -106 28 -239 1 -173 -11 -234 -74 -360 -72 -146 -214
-287 -370 -369 -143 -75 -373 -139 -555 -155 -132 -11 -205 -7 -394 25 -182
30 -254 31 -281 4 -11 -11 -20 -26 -20 -34 0 -7 -7 -19 -15 -26 -25 -20 -18
-81 14 -131 146 -231 784 -385 1021 -247 19 11 109 55 200 97 316 147 445 254
559 468 25 47 52 88 58 91 24 7 36 -48 25 -120 -14 -92 -49 -162 -118 -237
-113 -123 -258 -214 -501 -316 -62 -26 -124 -56 -138 -67 -28 -22 -32 -50 -10
-68 24 -20 147 -6 253 29 195 64 382 178 549 334 54 51 126 113 159 139 123
95 190 193 252 370 133 376 95 829 -108 1293 -98 225 -111 260 -120 332 -14
110 -50 170 -220 367 -318 369 -677 554 -1130 581 -52 3 -122 7 -155 9 -33 2
-76 1 -95 -3z m914 -1709 c24 -46 67 -221 73 -297 7 -90 -22 -211 -74 -304
-44 -80 -141 -179 -204 -209 -50 -24 -121 -29 -137 -9 -16 19 -2 34 47 47 92
24 221 190 265 339 27 92 17 196 -21 208 -16 6 -31 -25 -55 -111 -27 -100 -85
-217 -154 -313 -32 -45 -64 -90 -70 -99 -6 -11 -15 -15 -23 -9 -24 14 -5 80
57 191 33 60 80 155 103 212 24 59 56 118 76 139 18 20 33 39 34 42 0 4 4 43
8 88 8 82 21 113 47 113 7 0 20 -13 28 -28z"/>
<path d="M3026 4365 c-21 -82 62 -389 174 -652 188 -437 496 -833 820 -1053
109 -74 289 -158 455 -211 88 -28 192 -66 230 -85 105 -51 153 -57 369 -51
217 6 357 30 536 93 255 88 540 259 716 429 51 49 53 52 14 22 -59 -46 -137
-94 -235 -147 -290 -157 -481 -227 -715 -265 -118 -18 -582 -45 -618 -36 -40
11 -38 34 5 67 45 33 63 55 59 69 -1 6 -68 12 -157 16 -147 5 -160 7 -275 46
-312 106 -516 255 -751 548 -295 367 -495 754 -563 1089 -12 55 -23 111 -26
124 -6 30 -30 28 -38 -3z"/>
</g>
</svg>
