<?xml version="1.0" standalone="no"?>
<!DOCTYPE svg PUBLIC "-//W3C//DTD SVG 20010904//EN"
 "http://www.w3.org/TR/2001/REC-SVG-20010904/DTD/svg10.dtd">
<svg version="1.0" xmlns="http://www.w3.org/2000/svg"
 width="1000.000000pt" height="1000.000000pt" viewBox="0 0 1000.000000 1000.000000"
 preserveAspectRatio="xMidYMid meet">
<metadata>
  <rdf:RDF
    xmlns:rdf = "http://www.w3.org/1999/02/22-rdf-syntax-ns#"
    xmlns:rdfs = "http://www.w3.org/2000/01/rdf-schema#"
    xmlns:dc = "http://purl.org/dc/elements/1.1/"
    xmlns:cc = "http://creativecommons.org/ns#">
    <cc:license rdf:resource="http://creativecommons.org/publicdomain/zero/1.0/deed.en"/>
    <cc:permits rdf:resource="http://creativecommons.org/ns#Reproduction"/>
    <rdf:Description about="https://nft.mir.one/fingerprints"
      dc:title="TON Fingerprints"
      dc:description="This is a unique digital fingerprint created based on the algorithm for generating basic rings using a noise texture. Like human fingerprints, you can now use it for the Web3 and Metaverse era as digital biometric information."
      dc:publisher="https://nft.mir.one"
      dc:date="2022-02-22"
      dc:format="image/svg+xml"
      dc:language="en" >
      <dc:creator>
      <rdf:Bag>
        <rdf:li>EQBondcvD2_aOFADXSWJHs4ZazQDuEl9_wNvGGPxI8hGuOFU</rdf:li>
        <rdf:li>ipfs://bafkreihj7iub3fhmhq6jn62noukt5wxn3gv6bvcg7wmt6ywvlurefezckq</rdf:li>
      </rdf:Bag>
      </dc:creator>
    </rdf:Description>
  </rdf:RDF>
</metadata>
<g transform="translate(0.000000,1000.000000) scale(0.100000,-0.100000)"
fill="#1b1f23" stroke="none">
<path d="M4953 7813 c9 -2 25 -2 35 0 9 3 1 5 -18 5 -19 0 -27 -2 -17 -5z"/>
<path d="M4853 7803 c9 -2 25 -2 35 0 9 3 1 5 -18 5 -19 0 -27 -2 -17 -5z"/>
<path d="M4783 7793 c9 -2 23 -2 30 0 6 3 -1 5 -18 5 -16 0 -22 -2 -12 -5z"/>
<path d="M4713 7783 c9 -2 23 -2 30 0 6 3 -1 5 -18 5 -16 0 -22 -2 -12 -5z"/>
<path d="M4658 7773 c6 -2 18 -2 25 0 6 3 1 5 -13 5 -14 0 -19 -2 -12 -5z"/>
<path d="M4860 7620 c-259 -35 -300 -44 -660 -141 -58 -15 -127 -29 -155 -29
-27 -1 -68 -7 -90 -15 -40 -13 -40 -13 -5 -14 19 -1 57 -8 84 -16 67 -20 128
-19 393 10 125 13 299 29 387 34 96 7 169 16 185 25 14 7 42 22 61 32 79 42
248 24 550 -60 280 -77 453 -176 704 -400 56 -50 123 -109 151 -131 27 -22 79
-67 114 -100 65 -60 65 -60 -14 35 -123 149 -388 407 -493 480 -183 129 -354
206 -592 268 -125 32 -148 35 -310 38 -130 2 -210 -2 -310 -16z"/>
<path d="M5056 7427 c-29 -22 -13 -45 51 -73 32 -14 73 -32 91 -40 23 -10 32
-20 30 -32 -5 -25 -95 -27 -243 -6 -99 14 -162 16 -360 11 -451 -12 -561 -22
-666 -57 -127 -42 -224 -95 -357 -194 -122 -90 -141 -106 -102 -86 14 8 52 21
85 31 33 10 90 29 127 43 176 67 410 90 850 83 365 -5 406 -12 472 -75 22 -22
92 -65 153 -97 62 -31 161 -91 220 -132 140 -99 202 -130 290 -146 86 -16 120
-38 236 -150 239 -232 412 -530 545 -937 62 -187 82 -377 46 -428 -34 -49 -53
-17 -103 178 -55 217 -100 342 -185 515 -140 285 -304 489 -499 624 -25 17
-95 59 -154 92 -59 34 -142 87 -183 118 -168 128 -308 207 -457 258 -76 25
-86 26 -363 31 -563 8 -554 8 -674 -21 -245 -61 -357 -137 -621 -422 -74 -80
-91 -104 -68 -91 18 9 37 16 43 16 6 0 82 44 168 97 303 187 554 282 743 283
61 0 82 -4 100 -19 22 -18 23 -21 8 -36 -9 -9 -82 -36 -162 -61 -80 -24 -181
-58 -224 -75 -185 -72 -492 -256 -580 -346 -64 -66 -152 -186 -217 -297 -30
-51 -67 -108 -83 -126 -27 -33 -27 -33 5 -16 17 9 40 16 50 16 27 0 85 45 202
155 259 245 504 400 843 534 70 28 168 72 218 96 158 80 243 82 353 10 49 -32
117 -60 264 -109 207 -69 286 -82 299 -50 19 51 -211 164 -451 220 -86 20
-102 36 -65 67 21 17 35 19 104 14 91 -5 143 -21 270 -82 102 -49 167 -108
188 -170 12 -35 26 -48 113 -101 278 -173 373 -247 486 -381 144 -171 267
-400 342 -638 137 -430 139 -438 133 -538 -8 -119 -36 -216 -101 -352 -104
-215 -270 -403 -481 -544 -163 -109 -254 -150 -432 -195 -115 -30 -145 -47
-141 -84 5 -44 78 -74 177 -74 104 1 203 34 341 114 297 172 491 344 634 562
101 154 160 290 221 511 20 72 50 171 67 220 45 136 50 265 13 411 -53 214
-172 523 -286 744 -103 199 -163 280 -443 586 -135 148 -202 205 -290 249 -74
38 -107 43 -125 21 -18 -22 -4 -41 104 -141 106 -97 138 -146 111 -173 -13
-13 -23 -9 -88 39 -40 30 -115 89 -165 132 -114 95 -165 122 -285 147 -51 11
-103 22 -115 25 -13 3 -23 12 -23 20 0 26 44 43 144 56 79 9 118 9 196 -1 54
-7 112 -10 129 -7 70 14 201 -31 318 -111 138 -94 383 -343 504 -512 105 -146
206 -376 343 -776 35 -105 76 -217 91 -250 74 -166 72 -331 -6 -623 -69 -256
-149 -444 -266 -621 -165 -248 -328 -393 -703 -623 -41 -25 -103 -68 -138 -96
-76 -62 -119 -75 -242 -74 -125 0 -219 27 -374 105 -322 161 -421 229 -691
476 -250 229 -269 251 -325 365 -68 139 -100 268 -107 428 -7 147 4 218 54
364 82 235 159 358 293 466 138 111 387 198 444 156 32 -24 12 -46 -81 -89
-226 -104 -250 -117 -321 -183 -111 -103 -193 -250 -245 -440 -31 -116 -31
-352 1 -478 38 -150 118 -304 173 -333 70 -36 76 14 19 176 -60 175 -73 246
-73 400 -1 185 33 314 121 465 40 68 123 160 164 181 35 18 78 18 78 0 0 -8
-25 -48 -55 -88 -129 -171 -195 -358 -195 -552 0 -108 13 -180 65 -376 24 -91
47 -184 50 -207 23 -146 300 -382 528 -448 94 -27 152 -24 232 14 39 18 124
53 190 78 163 62 262 114 376 200 209 157 357 365 422 593 31 109 30 288 -2
430 -37 166 -85 304 -161 455 -81 164 -163 277 -286 395 -115 110 -191 160
-428 279 -197 99 -256 120 -556 197 -139 36 -262 38 -375 6 -434 -124 -884
-427 -1022 -689 -36 -67 -133 -388 -169 -558 -27 -127 -32 -141 -63 -169 -59
-53 -72 -286 -32 -551 12 -77 26 -194 31 -260 10 -141 33 -214 116 -375 76
-147 138 -225 272 -343 64 -56 164 -147 222 -202 192 -183 363 -296 738 -488
117 -60 216 -116 219 -125 10 -24 -26 -42 -84 -42 -129 0 -439 161 -728 378
-138 104 -376 307 -531 453 -214 202 -205 196 -134 89 166 -249 291 -390 545
-612 187 -164 330 -265 505 -357 206 -107 276 -126 590 -157 182 -17 285 -36
331 -60 42 -21 36 -53 -16 -79 -35 -17 -65 -20 -240 -23 -224 -4 -340 9 -447
53 -73 30 -225 116 -482 273 -161 99 -196 125 -233 172 -24 31 -56 66 -71 77
-28 20 -132 76 -132 70 0 -1 29 -25 65 -51 35 -27 83 -75 105 -107 55 -79 278
-242 533 -388 254 -147 353 -174 642 -175 198 -1 267 11 350 60 26 15 123 46
235 74 105 27 234 68 287 90 96 40 475 259 489 282 5 8 -3 6 -17 -4 -15 -9
-53 -24 -85 -33 -32 -9 -121 -37 -198 -61 -198 -63 -311 -84 -453 -84 -134 0
-177 9 -437 92 -230 73 -237 76 -340 181 -75 77 -114 106 -221 169 -71 42
-199 110 -283 152 -225 111 -361 217 -427 330 -26 44 -29 61 -35 168 -6 118
-6 118 -107 316 -154 299 -189 418 -259 862 -52 336 -54 355 -43 449 41 359
344 733 754 931 258 124 455 152 735 104 219 -38 323 -75 294 -104 -25 -25
-87 -28 -233 -13 -202 20 -385 13 -514 -20 -268 -71 -530 -256 -686 -486 -23
-34 -68 -89 -100 -124 -129 -138 -152 -256 -111 -588 61 -494 136 -740 315
-1029 68 -110 121 -169 225 -253 201 -163 290 -259 290 -313 0 -53 -45 -29
-235 126 -133 108 -197 139 -224 107 -30 -37 56 -144 195 -243 83 -59 165 -93
227 -94 27 0 64 -8 86 -19 36 -19 224 -137 404 -255 123 -80 218 -129 317
-164 238 -83 484 -99 750 -49 80 15 214 33 299 41 140 13 160 18 220 48 65 33
65 33 -89 38 -108 4 -155 9 -157 17 -7 21 41 59 103 82 156 58 324 196 524
431 44 52 49 60 23 42 -17 -12 -44 -28 -60 -35 -15 -7 -77 -46 -138 -86 -105
-70 -541 -292 -641 -326 -199 -67 -541 -56 -794 26 -141 47 -362 166 -505 273
-38 29 -196 179 -350 332 -302 302 -361 374 -454 561 -91 182 -139 365 -166
628 -9 83 -25 211 -35 285 -17 110 -18 147 -10 199 13 78 34 129 56 138 28 11
35 -18 30 -123 -7 -119 4 -167 38 -162 31 4 52 56 80 203 36 182 72 252 190
371 105 105 217 178 345 224 160 59 198 62 574 54 332 -6 339 -7 416 -34 353
-122 644 -556 667 -995 14 -248 -80 -477 -272 -668 -207 -206 -528 -328 -744
-283 -232 49 -391 210 -478 486 -45 142 -55 204 -55 325 1 140 23 226 103 394
35 74 62 147 66 176 9 69 33 104 115 170 105 85 146 105 228 112 371 31 757
-379 703 -748 -23 -156 -76 -262 -192 -380 -59 -59 -95 -85 -163 -119 -80 -40
-97 -44 -177 -48 -111 -5 -182 15 -244 69 -52 46 -71 89 -52 115 13 17 16 16
67 -7 46 -20 70 -24 154 -24 90 0 105 3 153 28 70 37 125 88 175 162 22 33 55
78 74 101 46 57 64 107 65 179 1 118 -46 223 -142 321 -61 62 -230 178 -292
200 -53 18 -143 18 -200 -2 -79 -26 -158 -108 -158 -163 0 -36 21 -34 110 8
95 46 181 62 218 42 28 -15 28 -37 0 -52 -42 -23 -241 -79 -278 -79 -31 0 -44
-7 -75 -41 -44 -48 -98 -159 -120 -244 -31 -123 -16 -279 45 -448 56 -154 149
-267 264 -321 224 -106 525 -23 738 202 235 249 280 587 122 921 -57 122 -115
201 -212 292 -139 130 -276 193 -457 209 -188 18 -380 30 -451 30 -237 0 -517
-165 -643 -377 -23 -39 -64 -131 -91 -207 -27 -75 -65 -165 -85 -200 -45 -81
-59 -176 -46 -325 23 -262 108 -506 237 -681 135 -183 518 -541 740 -690 88
-60 285 -161 370 -190 163 -57 377 -84 605 -78 139 4 163 8 249 36 211 70 515
246 641 371 107 108 226 299 303 488 41 100 136 381 136 400 0 4 -13 -15 -29
-43 -15 -29 -37 -65 -48 -80 -11 -16 -37 -63 -58 -104 -191 -380 -597 -742
-975 -870 -115 -39 -226 -27 -207 24 3 8 71 46 151 85 174 83 240 122 364 214
236 173 425 402 556 672 119 246 158 450 162 845 1 161 6 265 13 283 38 96
-29 390 -168 740 -17 43 -31 90 -31 105 -1 26 -1 26 -16 7 -22 -29 -14 -67 57
-262 127 -349 165 -593 94 -593 -21 0 -40 43 -75 167 -32 111 -193 607 -237
724 -51 142 -146 272 -333 459 -270 272 -427 366 -735 444 -77 19 -186 51
-243 71 -119 42 -217 54 -246 32z m172 -2134 c85 -41 155 -146 168 -253 5 -46
3 -58 -11 -70 -24 -20 -41 -6 -100 81 -27 40 -69 87 -92 103 -96 67 -258 33
-308 -64 -37 -71 -8 -161 56 -175 60 -13 102 43 63 87 -14 14 -14 21 -4 32 34
42 107 20 139 -43 43 -82 15 -157 -74 -201 -42 -21 -64 -25 -141 -25 -103 0
-120 8 -155 78 -43 84 -43 201 1 287 19 38 81 99 122 121 100 54 267 75 336
42z m-1988 -294 c6 -21 19 -109 30 -196 65 -516 120 -687 317 -980 41 -62 73
-120 71 -130 -2 -11 -14 -19 -29 -21 -78 -9 -268 230 -345 436 -54 145 -116
560 -118 790 -1 125 2 154 14 162 21 13 48 -15 60 -61z"/>
<path d="M3111 5739 c-77 -83 -189 -588 -196 -884 -3 -150 -3 -150 4 -20 8
130 8 130 131 498 102 303 122 373 114 394 -12 35 -28 39 -53 12z"/>
<path d="M2921 4624 c0 -11 3 -14 6 -6 3 7 2 16 -1 19 -3 4 -6 -2 -5 -13z"/>
<path d="M2931 4554 c0 -11 3 -14 6 -6 3 7 2 16 -1 19 -3 4 -6 -2 -5 -13z"/>
<path d="M2941 4504 c0 -11 3 -14 6 -6 3 7 2 16 -1 19 -3 4 -6 -2 -5 -13z"/>
<path d="M2951 4454 c0 -11 3 -14 6 -6 3 7 2 16 -1 19 -3 4 -6 -2 -5 -13z"/>
<path d="M2961 4426 c-2 -16 31 -131 44 -156 8 -14 14 -23 14 -20 1 10 -57
185 -58 176z"/>
</g>
</svg>
