<?xml version="1.0" standalone="no"?>
<!DOCTYPE svg PUBLIC "-//W3C//DTD SVG 20010904//EN"
 "http://www.w3.org/TR/2001/REC-SVG-20010904/DTD/svg10.dtd">
<svg version="1.0" xmlns="http://www.w3.org/2000/svg"
 width="1000.000000pt" height="1000.000000pt" viewBox="0 0 1000.000000 1000.000000"
 preserveAspectRatio="xMidYMid meet">
<metadata>
  <rdf:RDF
    xmlns:rdf = "http://www.w3.org/1999/02/22-rdf-syntax-ns#"
    xmlns:rdfs = "http://www.w3.org/2000/01/rdf-schema#"
    xmlns:dc = "http://purl.org/dc/elements/1.1/"
    xmlns:cc = "http://creativecommons.org/ns#">
    <cc:license rdf:resource="http://creativecommons.org/publicdomain/zero/1.0/deed.en"/>
    <cc:permits rdf:resource="http://creativecommons.org/ns#Reproduction"/>
    <rdf:Description about="https://nft.mir.one/fingerprints"
      dc:title="TON Fingerprints"
      dc:description="This is a unique digital fingerprint created based on the algorithm for generating basic rings using a noise texture. Like human fingerprints, you can now use it for the Web3 and Metaverse era as digital biometric information."
      dc:publisher="https://nft.mir.one"
      dc:date="2022-02-22"
      dc:format="image/svg+xml"
      dc:language="en" >
      <dc:creator>
      <rdf:Bag>
        <rdf:li>EQBondcvD2_aOFADXSWJHs4ZazQDuEl9_wNvGGPxI8hGuOFU</rdf:li>
        <rdf:li>ipfs://bafkreihj7iub3fhmhq6jn62noukt5wxn3gv6bvcg7wmt6ywvlurefezckq</rdf:li>
      </rdf:Bag>
      </dc:creator>
    </rdf:Description>
  </rdf:RDF>
</metadata>
<g transform="translate(0.000000,1000.000000) scale(0.100000,-0.100000)"
fill="#1b1f23" stroke="none">
<path d="M4890 7783 c-27 -12 -59 -14 -140 -11 -105 5 -105 5 -30 -14 73 -18
112 -19 227 -2 31 4 63 -1 120 -19 43 -15 152 -47 243 -72 91 -25 242 -70 335
-100 94 -30 209 -66 258 -80 48 -14 95 -28 105 -31 35 -10 -146 80 -243 122
-206 87 -416 151 -658 199 -146 29 -168 29 -217 8z"/>
<path d="M4465 7589 c-66 -4 -151 -12 -190 -18 -38 -6 -92 -11 -120 -11 -50 0
-50 0 10 -25 44 -19 139 -37 365 -70 383 -57 494 -77 700 -125 406 -95 644
-177 990 -345 183 -88 268 -125 302 -128 48 -4 48 -4 5 26 -23 17 -80 62 -127
100 -119 98 -327 234 -462 299 -149 73 -272 119 -501 184 -288 82 -405 103
-634 114 -109 5 -202 9 -208 8 -5 0 -64 -4 -130 -9z"/>
<path d="M4075 7345 c-39 -7 -112 -24 -162 -39 -51 -14 -102 -26 -115 -26 -20
0 -19 -3 13 -24 37 -26 134 -48 289 -66 336 -40 631 -94 970 -176 124 -30 300
-65 391 -79 197 -28 327 -68 506 -155 171 -84 247 -160 198 -200 -18 -15 -21
-14 -256 86 -108 45 -229 93 -269 105 -92 28 -173 30 -197 6 -44 -43 42 -101
360 -242 174 -77 241 -95 363 -95 69 0 114 -6 180 -26 130 -38 275 -64 352
-64 56 1 72 5 97 25 17 14 24 25 18 25 -7 0 -50 35 -95 78 -114 107 -225 194
-306 239 -37 20 -112 65 -168 99 -248 152 -442 228 -815 318 -399 96 -625 141
-1018 201 -180 28 -232 29 -336 10z"/>
<path d="M3800 7035 c-54 -17 -270 -177 -399 -295 -50 -46 -90 -85 -88 -86 5
-6 108 27 187 59 201 82 321 107 520 107 352 0 811 -100 1085 -237 97 -48 500
-312 655 -429 164 -124 282 -263 330 -390 11 -30 25 -98 31 -152 13 -122 30
-200 74 -332 45 -135 83 -201 137 -237 50 -34 53 -39 102 -258 166 -737 211
-973 226 -1185 9 -121 28 -255 36 -248 7 7 64 313 73 393 6 50 11 145 11 211
0 137 -6 174 -106 619 -76 340 -90 423 -99 605 -4 102 -3 141 7 159 34 64 51
32 104 -189 20 -85 69 -292 109 -460 41 -168 85 -361 99 -428 15 -68 32 -134
38 -145 6 -12 17 -40 25 -62 11 -35 13 -4 9 235 -6 366 -21 489 -87 710 -41
136 -95 274 -129 328 -15 24 -49 61 -76 81 -38 29 -60 58 -102 135 -29 54 -85
145 -126 202 -40 56 -99 154 -129 217 -86 174 -118 201 -430 364 -348 181
-458 254 -522 348 -33 47 -51 62 -110 90 -248 118 -831 242 -1265 270 -52 3
-106 8 -120 10 -14 2 -45 -3 -70 -10z m2533 -1415 c57 -45 101 -183 112 -355
8 -111 -4 -178 -34 -195 -27 -14 -35 1 -55 110 -9 52 -33 160 -52 239 -34 145
-39 177 -28 205 8 21 26 20 57 -4z"/>
<path d="M3815 6635 c-106 -19 -252 -63 -325 -97 -85 -41 -201 -157 -309 -311
-44 -63 -87 -120 -96 -127 -24 -20 -17 -30 18 -23 54 10 88 33 167 108 131
125 227 177 420 227 202 52 484 51 740 -4 183 -39 493 -149 669 -237 197 -100
410 -279 531 -448 65 -92 341 -638 405 -804 89 -226 101 -499 28 -644 -11 -22
-58 -114 -105 -205 -46 -91 -115 -235 -153 -320 -189 -429 -334 -681 -525
-915 -155 -189 -366 -371 -549 -472 -68 -38 -170 -113 -153 -113 33 0 250 55
317 81 148 56 199 92 356 248 216 217 384 438 522 686 65 117 289 601 354 762
24 61 53 119 63 128 38 34 70 -7 70 -89 0 -90 -21 -161 -85 -288 -36 -69 -92
-188 -126 -265 -137 -310 -228 -465 -402 -681 -150 -186 -272 -317 -429 -460
-228 -207 -227 -205 -68 -127 150 75 267 148 373 233 65 53 269 275 398 433
99 123 202 332 308 631 48 133 77 188 100 188 41 0 46 -117 11 -252 -41 -161
-237 -612 -289 -665 -12 -13 -36 -30 -54 -39 -18 -9 -47 -29 -66 -43 -38 -28
-197 -214 -309 -358 -72 -94 -72 -94 30 -12 57 45 159 138 228 205 69 68 137
127 152 133 31 12 52 -6 64 -53 7 -28 7 -28 27 25 11 30 58 118 104 197 108
186 226 422 259 519 35 104 37 241 5 363 -13 47 -33 149 -46 227 -13 78 -35
175 -49 215 -39 117 -45 144 -72 318 -38 244 -64 332 -154 520 -90 190 -102
218 -171 418 -108 312 -190 440 -398 614 -452 379 -1015 590 -1564 587 -84 0
-184 -7 -222 -14z"/>
<path d="M3745 6275 c-111 -20 -194 -44 -264 -76 -78 -36 -101 -55 -101 -85 0
-48 61 -55 237 -27 163 26 435 24 579 -5 200 -40 375 -113 473 -199 48 -42
184 -215 280 -356 76 -112 123 -247 107 -311 -7 -30 -34 -58 -47 -50 -5 3 -29
45 -53 93 -56 110 -146 245 -229 341 -163 189 -357 293 -642 342 -109 19 -144
20 -385 14 -316 -8 -436 -18 -486 -42 -40 -19 -128 -120 -194 -224 -23 -36
-51 -75 -61 -86 -20 -21 -20 -21 28 -5 26 10 89 38 138 63 172 86 308 117 560
125 192 6 331 -9 483 -53 248 -72 463 -227 571 -412 23 -39 53 -84 67 -101 38
-45 104 -81 163 -88 50 -6 50 -6 95 -92 60 -116 96 -208 177 -455 71 -215 92
-262 154 -336 57 -68 67 -94 67 -179 0 -185 -67 -388 -249 -754 -175 -352
-219 -416 -377 -543 -166 -134 -322 -213 -520 -264 -61 -16 -131 -35 -155 -43
-45 -14 -45 -14 5 -21 106 -14 291 -18 364 -7 142 21 333 141 510 321 218 221
402 535 604 1029 70 171 112 260 164 344 130 206 158 297 148 482 -10 210 -63
358 -168 472 -56 61 -72 89 -131 224 -119 272 -254 463 -420 595 -98 78 -189
123 -317 158 -52 14 -151 48 -220 76 -272 111 -461 150 -718 149 -92 0 -198
-7 -237 -14z m1260 -400 c139 -81 302 -292 395 -510 52 -121 77 -231 90 -400
6 -77 17 -192 25 -255 34 -281 28 -395 -20 -395 -29 0 -43 51 -119 425 -126
625 -159 714 -366 970 -100 125 -118 156 -106 186 8 20 44 13 101 -21z m721
-880 c24 -58 53 -194 64 -299 11 -108 2 -225 -25 -315 -20 -64 -73 -125 -100
-114 -16 5 -17 15 -9 87 11 104 11 335 0 498 -8 111 -7 130 8 152 23 36 44 32
62 -9z"/>
<path d="M6506 6078 c-9 -12 -16 -34 -16 -48 0 -49 103 -238 283 -520 92 -143
145 -252 210 -430 41 -109 106 -256 107 -239 0 4 -18 96 -39 205 -66 331 -135
539 -245 733 -29 53 -68 125 -86 161 -18 36 -43 80 -57 98 -46 62 -128 82
-157 40z"/>
<path d="M6847 6069 c-14 -20 -15 -32 -6 -64 18 -66 68 -151 125 -212 54 -58
54 -58 -2 60 -31 66 -66 146 -78 180 -23 60 -23 60 -39 36z"/>
<path d="M3524 5636 c-175 -28 -360 -105 -425 -176 -70 -77 -125 -207 -144
-342 -3 -26 -15 -58 -26 -72 -19 -25 -19 -25 16 -63 44 -48 45 -78 6 -225 -28
-107 -28 -107 4 -80 17 15 51 56 76 92 77 113 117 150 209 194 85 40 85 40
260 42 161 1 185 3 300 32 176 45 258 41 453 -19 331 -102 516 -246 645 -504
98 -197 137 -360 130 -550 -5 -110 -10 -145 -36 -225 -18 -52 -48 -124 -69
-160 -49 -83 -160 -200 -289 -303 -306 -245 -563 -336 -951 -337 -118 -1 -118
-1 -28 -36 197 -78 277 -92 399 -69 102 19 263 73 356 120 69 35 213 130 355
235 48 36 105 68 142 81 85 28 135 86 218 254 104 209 146 397 124 554 -17
124 -144 477 -234 649 -101 196 -237 313 -418 362 -45 12 -156 49 -246 82 -90
32 -228 74 -305 93 -78 19 -172 46 -211 61 -59 23 -86 28 -165 28 -117 1 -186
-21 -321 -100 -217 -127 -290 -150 -297 -91 -2 16 5 39 18 56 51 72 243 186
391 233 65 20 94 23 234 23 142 0 173 -3 275 -29 161 -40 293 -87 450 -161
154 -72 187 -82 214 -62 44 32 -26 120 -171 214 -136 89 -277 145 -460 184
-124 27 -363 34 -479 15z m268 -414 c15 -15 -2 -39 -40 -56 -41 -18 -240 -66
-272 -66 -11 0 -23 7 -27 16 -14 36 84 95 189 113 57 10 137 6 150 -7z"/>
<path d="M3832 4909 c-160 -19 -375 -60 -437 -84 -86 -32 -159 -81 -228 -153
-60 -64 -80 -103 -103 -201 -27 -113 -34 -221 -24 -327 13 -134 32 -202 86
-311 59 -118 134 -202 217 -242 109 -53 293 -64 430 -25 28 8 87 19 129 23 90
9 137 36 185 104 49 69 68 132 68 222 -1 93 -22 149 -80 213 -72 80 -192 114
-278 78 -74 -31 -123 -125 -95 -183 11 -24 20 -28 53 -28 38 0 41 -3 37 -35
-1 -5 -16 -17 -33 -26 -92 -47 -191 65 -176 198 12 103 70 182 162 224 181 83
419 -13 514 -209 65 -132 63 -275 -5 -413 -68 -138 -194 -232 -370 -276 -125
-31 -339 -31 -471 0 -82 19 -181 30 -144 15 7 -3 47 -30 90 -60 113 -82 162
-103 252 -112 99 -11 254 3 344 30 258 77 432 235 511 464 23 68 28 96 28 185
0 118 -10 163 -61 269 -44 93 -158 210 -250 259 -121 64 -292 88 -425 61 -86
-18 -191 -73 -237 -125 -58 -67 -75 -126 -75 -264 1 -100 4 -124 29 -190 44
-119 62 -150 100 -166 59 -24 134 -18 204 17 71 35 93 62 89 109 -6 72 66 62
106 -15 28 -54 28 -145 -1 -200 -31 -58 -80 -102 -95 -87 -10 10 -8 26 10 75
12 34 22 70 22 80 0 37 -30 30 -83 -21 -80 -75 -106 -85 -223 -90 -202 -8
-327 30 -418 129 -75 81 -99 135 -104 236 -8 147 30 269 106 337 20 18 75 68
121 111 136 125 213 167 381 207 117 28 294 28 405 -1 453 -118 689 -597 496
-1006 -121 -255 -368 -437 -680 -500 -67 -14 -115 -16 -240 -11 -86 3 -185 10
-221 15 -36 5 -66 9 -67 8 -6 -7 208 -118 272 -140 72 -25 89 -27 165 -21 295
21 570 151 787 370 114 116 181 224 225 364 20 65 23 94 22 225 0 133 -3 160
-27 238 -52 170 -137 309 -255 418 -192 177 -480 269 -740 238z"/>
<path d="M3263 4325 c-59 -41 -76 -204 -34 -327 27 -80 93 -161 147 -178 75
-25 82 8 24 114 -47 85 -70 179 -70 286 0 52 -5 83 -16 98 -18 26 -23 27 -51
7z"/>
<path d="M6571 3209 c-19 -20 -51 -99 -51 -123 0 -6 12 14 26 44 14 30 35 65
46 78 12 12 16 22 10 22 -6 0 -20 -10 -31 -21z"/>
<path d="M4925 3188 c-11 -6 -54 -41 -95 -78 -269 -239 -492 -349 -805 -395
-55 -9 -124 -20 -153 -27 -54 -12 -54 -12 40 -35 64 -16 135 -25 228 -29 133
-6 136 -6 225 26 190 68 350 166 486 299 63 62 95 103 114 144 40 86 21 130
-40 95z"/>
</g>
</svg>
