<?xml version="1.0" standalone="no"?>
<!DOCTYPE svg PUBLIC "-//W3C//DTD SVG 20010904//EN"
 "http://www.w3.org/TR/2001/REC-SVG-20010904/DTD/svg10.dtd">
<svg version="1.0" xmlns="http://www.w3.org/2000/svg"
 width="1000.000000pt" height="1000.000000pt" viewBox="0 0 1000.000000 1000.000000"
 preserveAspectRatio="xMidYMid meet">
<metadata>
  <rdf:RDF
    xmlns:rdf = "http://www.w3.org/1999/02/22-rdf-syntax-ns#"
    xmlns:rdfs = "http://www.w3.org/2000/01/rdf-schema#"
    xmlns:dc = "http://purl.org/dc/elements/1.1/"
    xmlns:cc = "http://creativecommons.org/ns#">
    <cc:license rdf:resource="http://creativecommons.org/publicdomain/zero/1.0/deed.en"/>
    <cc:permits rdf:resource="http://creativecommons.org/ns#Reproduction"/>
    <rdf:Description about="https://nft.mir.one/fingerprints"
      dc:title="TON Fingerprints"
      dc:description="This is a unique digital fingerprint created based on the algorithm for generating basic rings using a noise texture. Like human fingerprints, you can now use it for the Web3 and Metaverse era as digital biometric information."
      dc:publisher="https://nft.mir.one"
      dc:date="2022-02-22"
      dc:format="image/svg+xml"
      dc:language="en" >
      <dc:creator>
      <rdf:Bag>
        <rdf:li>EQBondcvD2_aOFADXSWJHs4ZazQDuEl9_wNvGGPxI8hGuOFU</rdf:li>
        <rdf:li>ipfs://bafkreihj7iub3fhmhq6jn62noukt5wxn3gv6bvcg7wmt6ywvlurefezckq</rdf:li>
      </rdf:Bag>
      </dc:creator>
    </rdf:Description>
  </rdf:RDF>
</metadata>
<g transform="translate(0.000000,1000.000000) scale(0.100000,-0.100000)"
fill="#1b1f23" stroke="none">
<path d="M4405 7682 c-82 -43 -181 -98 -220 -122 -151 -94 -365 -268 -555
-449 -85 -82 -85 -82 -15 -33 39 27 113 78 165 115 52 36 136 102 185 146 160
143 397 310 553 390 23 12 42 24 42 26 0 7 5 10 -155 -73z"/>
<path d="M5005 7703 c-284 -60 -731 -267 -850 -392 -16 -17 -43 -57 -60 -89
-23 -44 -44 -66 -95 -101 -344 -234 -503 -386 -662 -631 -118 -181 -247 -485
-354 -835 -36 -117 -45 -173 -14 -90 25 67 320 651 363 717 104 161 236 288
452 433 239 159 326 194 645 255 118 23 265 57 325 77 145 46 201 51 290 25
39 -12 124 -30 189 -41 88 -14 134 -28 175 -50 31 -17 148 -76 261 -131 113
-56 238 -121 278 -146 68 -43 76 -45 121 -39 126 17 282 -118 438 -380 115
-191 143 -273 143 -408 0 -87 31 -448 65 -759 14 -124 25 -241 25 -260 0 -18
-16 -67 -36 -108 -22 -47 -51 -140 -79 -255 -66 -274 -122 -416 -221 -567 -57
-85 -101 -124 -167 -143 -45 -13 -58 -23 -97 -76 -75 -101 -207 -220 -296
-266 -113 -58 -163 -71 -394 -95 -297 -31 -620 -31 -785 0 -228 44 -412 117
-671 270 -130 76 -154 86 -183 77 -76 -24 22 -148 219 -278 295 -193 717 -289
1136 -259 278 20 531 72 693 141 149 64 309 181 484 355 265 263 420 601 444
967 6 106 17 128 51 110 76 -41 79 -263 7 -486 -33 -102 -119 -282 -180 -377
-88 -136 -244 -335 -310 -396 -303 -277 -824 -452 -1348 -452 -264 0 -444 28
-677 106 -215 71 -387 172 -520 303 -62 62 -86 96 -129 181 -30 58 -88 155
-131 215 -147 209 -200 320 -245 507 -52 218 -70 495 -40 610 8 31 37 96 65
145 80 139 106 256 119 538 8 154 13 191 35 259 73 216 245 476 315 476 44 0
35 -37 -52 -218 -127 -262 -145 -326 -178 -632 -29 -269 -28 -359 4 -440 15
-36 42 -130 61 -211 51 -215 74 -265 167 -366 54 -57 79 -92 79 -109 0 -33
-24 -31 -80 6 -50 33 -78 38 -86 15 -18 -46 25 -101 150 -193 188 -140 303
-206 463 -266 39 -15 100 -45 135 -67 142 -89 227 -113 398 -114 207 0 220 5
728 273 210 111 270 159 392 312 25 30 73 86 108 124 108 116 145 235 145 471
-1 232 -60 508 -143 664 -43 79 -114 163 -185 216 -77 58 -333 185 -455 226
-229 76 -419 77 -641 4 -110 -37 -205 -103 -337 -237 -175 -177 -246 -285
-288 -438 -27 -98 -25 -337 5 -445 72 -269 286 -532 486 -597 91 -30 282 -32
389 -4 169 45 319 131 432 248 92 95 140 167 222 334 64 131 67 141 70 220 11
254 -185 496 -472 582 -115 35 -279 36 -386 4 -321 -99 -523 -421 -456 -725
65 -289 318 -460 581 -392 179 47 330 210 353 384 17 120 -14 217 -91 295 -70
70 -125 91 -237 91 -110 0 -167 -22 -232 -87 -63 -63 -82 -111 -83 -204 0 -72
3 -85 30 -130 37 -59 93 -94 153 -94 82 0 142 48 142 114 0 54 -72 79 -90 31
-20 -52 -80 -12 -80 54 0 91 120 153 208 107 139 -73 131 -284 -15 -376 -62
-40 -114 -53 -188 -48 -77 5 -143 38 -201 100 -110 117 -129 284 -53 445 90
190 322 298 533 249 242 -57 401 -272 366 -494 -43 -269 -244 -491 -505 -557
-73 -19 -213 -21 -280 -4 -227 55 -420 297 -453 569 -34 276 90 531 351 724
64 47 197 104 287 122 107 21 271 15 380 -16 98 -28 246 -98 325 -154 130 -94
234 -238 284 -396 11 -36 29 -119 41 -185 11 -66 25 -136 30 -155 52 -170 18
-315 -114 -495 -132 -180 -274 -291 -543 -427 -181 -91 -308 -134 -444 -150
-164 -19 -358 14 -367 64 -6 31 38 42 213 49 239 10 346 36 545 130 254 121
444 290 553 490 79 144 89 279 22 279 -28 0 -44 -22 -119 -163 -57 -106 -150
-231 -214 -288 -178 -158 -384 -254 -614 -286 -106 -15 -143 -15 -301 -5 -176
12 -181 11 -202 -8 -75 -70 -239 -23 -364 105 -47 47 -90 122 -228 399 -68
136 -122 363 -130 547 -11 240 52 594 144 814 49 116 135 280 170 323 70 85
198 162 437 263 138 58 176 84 176 122 0 37 -33 60 -95 65 -145 12 -395 -77
-616 -220 -47 -31 -132 -79 -188 -108 -177 -91 -274 -209 -418 -508 -42 -86
-100 -191 -129 -233 -82 -117 -124 -246 -146 -443 -9 -87 -8 -123 5 -218 9
-62 21 -194 27 -293 5 -99 21 -269 35 -379 38 -304 89 -436 268 -704 246 -366
355 -482 573 -611 300 -177 796 -278 1189 -242 239 22 570 104 797 196 134 55
376 179 469 241 79 52 146 122 155 161 14 67 28 96 94 199 213 331 323 667
322 980 0 103 -3 117 -32 183 -43 100 -66 194 -96 409 -22 156 -26 209 -21
317 5 108 2 147 -14 220 -23 109 -24 151 -3 159 21 8 49 -8 123 -73 65 -56 65
-56 36 -6 -16 28 -53 88 -83 135 -30 47 -90 149 -132 226 -194 354 -348 516
-596 630 -154 71 -354 145 -486 180 -159 42 -188 53 -188 68 1 56 128 82 276
55 206 -36 490 -162 704 -311 30 -21 86 -58 123 -83 68 -44 68 -44 19 13 -92
106 -287 287 -382 354 -115 81 -257 157 -365 194 -68 24 -97 28 -195 28 -115
1 -115 1 -216 -51 -118 -60 -195 -82 -314 -90 -75 -5 -88 -3 -93 11 -17 44 40
80 206 130 137 40 167 56 167 91 0 37 -44 55 -136 55 -112 0 -178 -21 -394
-125 -308 -148 -586 -244 -674 -232 -47 7 -72 32 -54 55 16 18 103 62 454 225
440 206 488 222 644 221 83 -1 110 -6 220 -42 151 -50 265 -77 387 -91 51 -6
100 -14 110 -18 10 -3 16 -4 13 0 -10 11 -272 114 -410 162 -74 26 -173 55
-220 66 -103 23 -264 24 -365 2z m-1691 -2059 c23 -60 -39 -386 -94 -495 -26
-51 -56 -53 -65 -5 -16 85 67 443 117 503 14 18 35 16 42 -3z"/>
<path d="M4860 6903 c-27 -14 -36 -25 -38 -50 -5 -51 37 -73 275 -147 116 -36
242 -78 280 -92 123 -46 286 -133 378 -201 125 -94 255 -222 255 -251 0 -54
-45 -39 -229 77 -224 142 -393 213 -636 266 -85 18 -137 36 -176 59 -150 89
-222 79 -384 -50 -65 -51 -104 -73 -285 -156 -129 -60 -212 -144 -286 -293
-31 -63 -49 -116 -60 -175 -8 -47 -28 -152 -45 -235 -44 -223 -49 -258 -49
-396 0 -219 46 -411 147 -614 106 -212 201 -324 325 -384 83 -39 123 -47 132
-26 11 30 -21 81 -112 178 -140 149 -215 272 -271 445 -40 123 -55 219 -54
357 1 138 20 246 65 353 26 64 47 90 166 215 74 78 175 190 223 248 112 135
137 148 366 202 329 76 463 57 842 -122 143 -68 195 -86 315 -111 51 -10 67
-20 111 -64 97 -97 182 -294 230 -529 61 -309 60 -506 -5 -825 -11 -55 -20
-123 -20 -151 0 -86 -28 -195 -86 -332 -72 -171 -83 -219 -60 -254 18 -27 18
-27 52 6 64 62 160 244 208 396 32 104 123 517 137 623 6 47 8 129 4 185 -14
230 -63 580 -104 755 -31 133 -162 497 -213 592 -38 72 -123 166 -175 195 -36
20 -42 21 -53 8 -19 -23 -5 -71 52 -170 41 -71 52 -99 53 -135 0 -38 -3 -45
-21 -48 -17 -2 -41 24 -118 127 -152 202 -223 260 -471 376 -276 131 -572 196
-665 148z m62 -436 c31 -48 -165 -123 -217 -83 -16 12 -18 19 -9 32 32 53 200
90 226 51z m-526 -282 c8 -20 -10 -47 -134 -195 -114 -136 -138 -159 -164
-160 -14 0 -18 8 -18 36 0 73 114 241 204 302 52 34 103 42 112 17z"/>
<path d="M6947 5574 c-13 -14 -7 -91 18 -225 14 -74 36 -217 49 -319 21 -168
25 -182 36 -155 24 59 -8 436 -53 613 -21 80 -33 102 -50 86z"/>
<path d="M2903 5160 c0 -36 2 -50 4 -32 2 17 2 47 0 65 -2 17 -4 3 -4 -33z"/>
<path d="M3408 5003 c-31 -65 -38 -252 -13 -410 46 -296 127 -490 270 -642 64
-68 110 -99 215 -144 47 -19 168 -78 270 -129 197 -100 371 -164 525 -194 141
-27 607 -22 765 8 48 9 62 18 110 68 30 31 86 81 124 110 103 80 159 170 107
170 -11 0 -90 -47 -175 -104 -153 -104 -206 -129 -246 -119 -47 12 -11 52 130
140 165 104 203 120 300 124 85 4 85 4 84 -48 -3 -94 -69 -175 -220 -269 -101
-63 -107 -94 -19 -94 100 0 280 130 343 247 16 32 42 104 55 159 16 64 50 154
91 243 92 196 111 279 69 295 -27 11 -51 -14 -141 -146 -81 -120 -155 -207
-196 -230 -8 -4 -61 -24 -118 -44 -154 -53 -301 -134 -456 -251 -121 -91 -180
-108 -387 -108 -212 0 -290 19 -545 132 -303 134 -480 241 -596 358 -86 87
-128 167 -149 283 -8 46 -28 137 -44 202 -17 66 -38 183 -47 262 -9 79 -20
151 -25 161 -5 9 -20 17 -33 17 -19 0 -29 -11 -48 -47z"/>
<path d="M2911 4988 c-2 -59 19 -281 40 -433 10 -77 19 -162 20 -190 1 -50 1
-50 11 -12 8 30 4 81 -16 230 -15 106 -33 248 -40 317 -8 69 -14 108 -15 88z"/>
<path d="M3150 3736 c34 -65 90 -165 126 -223 81 -131 268 -406 307 -453 119
-140 409 -325 607 -388 99 -32 288 -71 450 -94 113 -16 197 -21 385 -21 264
-1 263 -1 480 76 55 20 177 59 270 87 269 80 438 171 697 372 78 61 135 109
126 105 -9 -3 -33 -9 -54 -13 -21 -4 -108 -40 -193 -81 -306 -146 -447 -200
-740 -284 -282 -80 -341 -90 -561 -96 -518 -14 -1040 133 -1351 381 -57 45
-207 226 -376 452 -50 67 -112 149 -139 181 -27 33 -59 73 -72 89 -13 16 4
-24 38 -90z"/>
<path d="M6755 3563 c-93 -71 -127 -102 -120 -113 10 -17 23 -11 65 26 37 34
126 134 118 134 -1 -1 -30 -21 -63 -47z"/>
<path d="M6210 2739 c-163 -57 -413 -135 -525 -164 -164 -42 -209 -61 -213
-92 -6 -42 61 -42 217 -1 108 28 225 78 386 165 180 98 211 119 135 92z"/>
<path d="M3940 2577 c0 -10 289 -127 399 -161 139 -44 327 -81 481 -95 63 -6
261 -12 440 -14 325 -2 325 -2 220 48 -105 49 -105 49 -335 56 -264 9 -343 14
-510 35 -128 16 -410 69 -450 84 -14 5 -66 16 -117 25 -51 9 -101 18 -110 21
-10 3 -18 3 -18 1z"/>
</g>
</svg>
