<?xml version="1.0" standalone="no"?>
<!DOCTYPE svg PUBLIC "-//W3C//DTD SVG 20010904//EN"
 "http://www.w3.org/TR/2001/REC-SVG-20010904/DTD/svg10.dtd">
<svg version="1.0" xmlns="http://www.w3.org/2000/svg"
 width="1000.000000pt" height="1000.000000pt" viewBox="0 0 1000.000000 1000.000000"
 preserveAspectRatio="xMidYMid meet">
<metadata>
  <rdf:RDF
    xmlns:rdf = "http://www.w3.org/1999/02/22-rdf-syntax-ns#"
    xmlns:rdfs = "http://www.w3.org/2000/01/rdf-schema#"
    xmlns:dc = "http://purl.org/dc/elements/1.1/"
    xmlns:cc = "http://creativecommons.org/ns#">
    <cc:license rdf:resource="http://creativecommons.org/publicdomain/zero/1.0/deed.en"/>
    <cc:permits rdf:resource="http://creativecommons.org/ns#Reproduction"/>
    <rdf:Description about="https://nft.mir.one/fingerprints"
      dc:title="TON Fingerprints"
      dc:description="This is a unique digital fingerprint created based on the algorithm for generating basic rings using a noise texture. Like human fingerprints, you can now use it for the Web3 and Metaverse era as digital biometric information."
      dc:publisher="https://nft.mir.one"
      dc:date="2022-02-22"
      dc:format="image/svg+xml"
      dc:language="en" >
      <dc:creator>
      <rdf:Bag>
        <rdf:li>EQBondcvD2_aOFADXSWJHs4ZazQDuEl9_wNvGGPxI8hGuOFU</rdf:li>
        <rdf:li>ipfs://bafkreihj7iub3fhmhq6jn62noukt5wxn3gv6bvcg7wmt6ywvlurefezckq</rdf:li>
      </rdf:Bag>
      </dc:creator>
    </rdf:Description>
  </rdf:RDF>
</metadata>
<g transform="translate(0.000000,1000.000000) scale(0.100000,-0.100000)"
fill="#1b1f23" stroke="none">
<path d="M5210 7761 c83 -50 1094 -560 1075 -543 -22 21 -177 124 -275 184
-207 127 -374 208 -680 333 -205 83 -221 87 -120 26z"/>
<path d="M4740 7635 c-30 -7 -84 -25 -120 -38 -36 -14 -137 -37 -225 -52 -149
-25 -345 -75 -425 -108 -34 -15 -34 -15 35 -21 265 -25 368 -54 473 -134 28
-22 32 -29 26 -58 -9 -47 19 -98 124 -229 144 -179 212 -232 617 -480 409
-251 532 -339 720 -517 70 -66 92 -94 130 -171 47 -92 60 -113 214 -326 101
-143 196 -304 255 -438 81 -183 227 -631 295 -908 16 -66 40 -144 53 -173 23
-52 23 -52 20 95 -3 179 -18 355 -38 443 -27 120 -185 574 -239 688 -83 174
-176 309 -350 512 -124 145 -138 170 -90 170 116 0 418 -342 560 -635 29 -58
54 -134 74 -215 34 -143 132 -425 180 -515 17 -33 29 -51 27 -40 -3 11 -12 67
-21 125 -8 58 -31 182 -50 275 -19 94 -32 180 -29 193 10 36 39 26 89 -30 47
-53 47 -53 31 -14 -18 43 -26 55 -66 101 -15 17 -37 57 -50 90 -39 102 -79
175 -166 306 -144 219 -319 381 -514 476 -171 83 -298 173 -455 323 -107 103
-151 133 -405 280 -362 210 -506 308 -690 471 -52 47 -119 104 -149 129 -50
41 -52 45 -35 58 32 23 90 8 162 -42 37 -25 117 -82 177 -126 149 -110 319
-215 575 -355 333 -183 365 -196 490 -205 65 -5 132 -17 174 -31 107 -35 323
-145 526 -266 154 -92 255 -142 266 -130 6 6 -229 255 -285 302 -36 30 -113
78 -175 109 -103 52 -182 80 -524 187 -202 63 -728 334 -1014 523 -95 62 -213
164 -242 208 -26 40 -11 52 84 74 240 53 291 36 1050 -343 256 -128 476 -241
489 -251 35 -28 22 -52 -27 -52 -80 0 -253 73 -697 293 -438 217 -550 267
-658 287 -51 10 -87 0 -87 -23 0 -28 65 -71 301 -195 630 -334 828 -421 1113
-493 141 -36 203 -61 328 -132 51 -29 109 -59 128 -67 19 -7 42 -18 50 -24 44
-32 -180 199 -268 276 -79 70 -108 102 -128 144 -56 119 -306 281 -792 513
-350 167 -429 192 -627 197 -99 2 -156 -1 -195 -11z"/>
<path d="M3973 7245 c-37 -16 -38 -18 -21 -48 17 -33 33 -44 143 -96 98 -48
183 -101 339 -214 57 -42 87 -57 105 -55 36 4 39 38 7 91 -37 63 -178 210
-242 252 -112 75 -253 104 -331 70z"/>
<path d="M3700 7041 c-30 -10 -84 -32 -120 -50 -36 -17 -74 -31 -84 -31 -33 0
74 -45 149 -64 87 -21 186 -67 239 -110 62 -51 108 -76 139 -76 37 0 35 23 -8
84 -19 27 -32 53 -29 57 3 5 18 9 34 9 20 0 53 -20 112 -67 132 -105 281 -199
449 -283 267 -134 499 -276 669 -409 46 -36 91 -71 99 -77 9 -7 15 -31 17 -61
3 -79 14 -96 214 -333 258 -305 429 -558 577 -852 102 -203 135 -313 102 -334
-21 -13 -67 52 -163 228 -197 363 -366 608 -656 948 -58 69 -135 163 -170 210
-35 47 -90 110 -123 141 -173 167 -515 354 -744 408 -46 11 -62 10 -140 -10
-108 -27 -190 -24 -542 21 -133 17 -263 31 -289 31 -57 2 -113 -21 -218 -88
-74 -47 -74 -47 -42 -60 57 -24 647 -78 1018 -93 239 -10 316 -27 487 -110
226 -108 364 -222 620 -509 273 -306 427 -514 633 -856 133 -220 164 -266 240
-350 52 -56 76 -97 132 -215 128 -274 175 -348 241 -381 64 -33 125 -112 152
-198 4 -12 17 -38 30 -56 22 -34 22 -34 29 33 12 132 7 496 -9 578 -21 108
-116 444 -174 616 -87 254 -199 481 -335 678 -29 41 -108 156 -177 254 -188
272 -306 381 -579 537 -80 45 -291 175 -470 287 -469 296 -426 272 -486 272
-73 0 -112 17 -261 110 -86 53 -165 93 -228 116 -53 19 -113 43 -135 54 -49
25 -125 25 -200 1z m1838 -1045 c196 -100 577 -592 782 -1011 89 -182 135
-308 186 -510 19 -77 53 -203 75 -279 49 -168 57 -227 36 -244 -8 -7 -22 -10
-30 -6 -56 21 -174 322 -196 499 -18 146 -47 240 -126 410 -164 354 -526 850
-776 1062 -49 41 -89 79 -89 83 0 29 78 27 138 -4z"/>
<path d="M3500 6722 c-25 -10 -84 -39 -131 -64 -87 -46 -87 -46 -45 -61 22 -8
90 -20 151 -26 60 -7 168 -23 240 -37 71 -14 204 -36 295 -49 230 -35 270 -33
270 10 0 28 -52 76 -123 112 -41 20 -73 28 -152 33 -78 6 -127 17 -225 50
-149 50 -216 58 -280 32z"/>
<path d="M5927 6449 c-12 -7 -16 -17 -11 -32 15 -53 105 -120 334 -252 240
-138 331 -200 457 -312 88 -78 142 -149 214 -279 30 -54 78 -123 107 -153 52
-54 52 -54 18 20 -36 78 -86 228 -86 257 0 45 -101 217 -172 293 -67 73 -386
266 -643 390 -150 72 -190 85 -218 68z"/>
<path d="M3180 6061 c-30 -15 -72 -37 -92 -47 -21 -10 -37 -22 -38 -25 0 -12
75 -58 127 -78 110 -43 232 -112 341 -192 62 -46 183 -125 270 -175 466 -269
566 -326 662 -372 235 -112 463 -328 709 -670 166 -233 302 -482 422 -775 39
-95 92 -219 119 -277 62 -135 74 -193 73 -365 -1 -217 -43 -394 -142 -600 -26
-55 -57 -125 -69 -155 -22 -55 -22 -55 64 30 104 103 199 222 247 310 54 98
76 233 87 515 5 127 16 265 25 308 19 99 19 154 -1 257 -61 324 -401 907 -781
1340 -238 271 -447 439 -781 628 -157 89 -191 113 -209 145 -14 26 -1 47 29
47 37 0 200 -60 290 -106 384 -199 762 -575 1114 -1109 235 -357 372 -607 427
-780 56 -175 63 -269 48 -624 -12 -274 -28 -420 -60 -556 -11 -44 -22 -104
-25 -134 -5 -55 -5 -55 71 70 80 130 119 208 161 324 26 69 26 76 30 388 4
359 -2 407 -63 572 -51 135 -99 229 -185 360 -40 61 -129 200 -198 310 -233
375 -373 560 -631 840 -268 290 -539 478 -786 546 -71 19 -95 21 -216 15 -112
-5 -161 -2 -275 15 -117 18 -165 20 -300 15 -138 -5 -177 -3 -265 14 -131 25
-133 25 -199 -9z m589 -161 c147 -41 226 -79 354 -168 68 -49 211 -142 317
-208 242 -151 370 -246 515 -386 360 -345 722 -899 861 -1315 71 -212 68 -380
-5 -288 -19 26 -35 63 -106 260 -85 234 -274 576 -459 829 -173 237 -393 465
-564 586 -142 100 -712 447 -903 550 -107 57 -159 100 -159 130 0 35 46 38
149 10z"/>
<path d="M3075 5703 c-16 -9 -43 -27 -58 -39 -16 -13 -37 -24 -47 -24 -16 0
-14 -7 16 -57 29 -49 47 -65 117 -106 100 -59 120 -77 164 -145 19 -30 46 -58
61 -63 15 -6 106 -32 202 -59 252 -70 404 -140 532 -244 59 -48 374 -397 494
-547 244 -306 450 -659 544 -934 68 -199 89 -326 100 -595 6 -167 14 -251 26
-290 21 -72 14 -129 -30 -233 -18 -45 -41 -103 -49 -129 -15 -46 -15 -46 51 5
123 97 265 231 297 282 83 129 124 279 132 482 9 214 -11 308 -122 593 -110
282 -218 494 -370 725 -244 371 -535 671 -698 720 -52 15 -97 7 -97 -18 0 -8
69 -80 154 -160 292 -278 514 -570 692 -912 119 -227 219 -491 261 -685 26
-120 25 -396 -1 -495 -25 -93 -61 -163 -92 -177 -43 -20 -47 -2 -28 118 22
146 22 369 -1 499 -46 261 -164 559 -340 850 -139 231 -267 400 -486 641 -161
177 -191 220 -193 277 0 24 -8 52 -16 62 -28 35 -276 191 -436 274 -276 145
-342 183 -513 293 -178 116 -204 125 -266 91z"/>
<path d="M3080 5288 c-34 -12 -74 -52 -122 -120 -23 -32 -46 -59 -52 -59 -6
-1 9 -5 33 -9 44 -7 124 10 203 43 47 20 88 60 88 86 0 35 -105 76 -150 59z"/>
<path d="M3520 4979 c-42 -16 -94 -22 -225 -29 -93 -5 -184 -14 -202 -20 -33
-12 -95 -85 -131 -156 -11 -22 -28 -47 -37 -54 -15 -12 -12 -15 27 -27 24 -7
91 -13 149 -13 140 0 232 -24 381 -100 230 -116 381 -222 529 -370 133 -133
190 -250 138 -283 -13 -8 -35 9 -115 93 -106 110 -257 230 -378 299 -158 90
-374 161 -492 161 -58 0 -82 -24 -140 -138 -40 -80 -40 -80 -10 -86 16 -4 64
-3 106 0 231 20 493 -80 771 -292 77 -59 151 -101 200 -114 91 -25 148 -131
209 -385 68 -281 82 -379 83 -570 1 -222 -17 -328 -76 -446 -41 -84 -41 -86
-17 -77 31 12 70 2 70 -17 0 -8 6 -12 13 -10 17 7 33 -6 51 -40 16 -30 16 -30
16 -3 0 17 15 47 36 75 21 27 42 62 49 78 18 44 27 349 15 500 -13 161 -23
222 -67 405 -39 165 -44 233 -21 257 9 8 21 12 27 9 32 -20 107 -227 145 -397
40 -182 49 -294 50 -614 1 -284 2 -302 22 -346 27 -58 41 -68 36 -25 -3 24 7
54 37 112 40 77 41 82 52 226 32 449 -80 933 -250 1077 -99 83 -115 106 -211
291 -52 101 -114 211 -139 244 -121 166 -274 303 -501 453 -163 107 -193 133
-211 175 -10 25 -9 32 4 45 14 15 21 14 79 -6 165 -60 367 -199 538 -371 131
-133 214 -241 360 -470 62 -96 133 -204 159 -240 106 -147 157 -248 210 -413
83 -260 113 -680 65 -913 -17 -84 -68 -240 -86 -263 -24 -30 144 123 187 171
57 64 65 104 65 336 0 489 -80 797 -300 1157 -175 286 -328 496 -511 701 -215
242 -408 385 -576 429 -76 20 -117 18 -183 -6z"/>
<path d="M3168 4063 c-30 -31 -101 -153 -90 -153 303 -19 347 -28 489 -95 115
-54 170 -92 256 -174 123 -118 191 -234 233 -399 31 -119 42 -305 25 -408 -10
-55 -52 -203 -87 -303 -3 -11 -1 -11 9 -2 8 6 39 19 70 30 73 23 123 58 141
96 37 77 48 346 21 510 -48 293 -135 477 -280 593 -221 178 -434 289 -619 321
-102 18 -139 15 -168 -16z"/>
<path d="M3275 3709 c-20 -18 -42 -44 -50 -60 -8 -15 -21 -33 -29 -41 -12 -12
-5 -16 48 -27 134 -28 181 -43 245 -76 121 -64 225 -186 271 -318 28 -79 37
-232 21 -331 -24 -139 -24 -128 7 -113 15 8 39 17 54 21 15 3 45 23 67 44 37
35 39 41 46 116 9 92 -6 214 -36 308 -75 230 -242 399 -471 479 -106 37 -129
37 -173 -2z"/>
<path d="M6449 3674 c-7 -9 -15 -43 -17 -76 -6 -82 16 -491 30 -552 11 -49 11
-49 45 70 83 285 83 463 2 550 -26 28 -42 30 -60 8z"/>
<path d="M3418 3291 c-14 -12 -39 -21 -55 -21 -28 0 -28 0 2 -19 76 -46 153
-170 156 -254 2 -30 2 -30 6 -5 2 15 17 38 34 52 51 44 62 101 30 164 -44 86
-121 123 -173 83z"/>
</g>
</svg>
