<?xml version="1.0" standalone="no"?>
<!DOCTYPE svg PUBLIC "-//W3C//DTD SVG 20010904//EN"
 "http://www.w3.org/TR/2001/REC-SVG-20010904/DTD/svg10.dtd">
<svg version="1.0" xmlns="http://www.w3.org/2000/svg"
 width="1000.000000pt" height="1000.000000pt" viewBox="0 0 1000.000000 1000.000000"
 preserveAspectRatio="xMidYMid meet">
<metadata>
  <rdf:RDF
    xmlns:rdf = "http://www.w3.org/1999/02/22-rdf-syntax-ns#"
    xmlns:rdfs = "http://www.w3.org/2000/01/rdf-schema#"
    xmlns:dc = "http://purl.org/dc/elements/1.1/"
    xmlns:cc = "http://creativecommons.org/ns#">
    <cc:license rdf:resource="http://creativecommons.org/publicdomain/zero/1.0/deed.en"/>
    <cc:permits rdf:resource="http://creativecommons.org/ns#Reproduction"/>
    <rdf:Description about="https://nft.mir.one/fingerprints"
      dc:title="TON Fingerprints"
      dc:description="This is a unique digital fingerprint created based on the algorithm for generating basic rings using a noise texture. Like human fingerprints, you can now use it for the Web3 and Metaverse era as digital biometric information."
      dc:publisher="https://nft.mir.one"
      dc:date="2022-02-22"
      dc:format="image/svg+xml"
      dc:language="en" >
      <dc:creator>
      <rdf:Bag>
        <rdf:li>EQBondcvD2_aOFADXSWJHs4ZazQDuEl9_wNvGGPxI8hGuOFU</rdf:li>
        <rdf:li>ipfs://bafkreihj7iub3fhmhq6jn62noukt5wxn3gv6bvcg7wmt6ywvlurefezckq</rdf:li>
      </rdf:Bag>
      </dc:creator>
    </rdf:Description>
  </rdf:RDF>
</metadata>
<g transform="translate(0.000000,1000.000000) scale(0.100000,-0.100000)"
fill="#1b1f23" stroke="none">
<path d="M4705 7748 c28 -18 142 -79 255 -135 257 -128 387 -213 720 -471 342
-266 409 -330 462 -442 36 -77 55 -100 192 -240 244 -249 418 -462 565 -690
33 -52 72 -107 85 -122 14 -15 33 -39 42 -53 35 -53 23 -12 -46 163 -150 381
-278 586 -561 899 -238 262 -390 407 -624 594 -304 243 -333 263 -480 335
-158 77 -305 126 -485 160 -74 14 -144 28 -155 30 -11 3 3 -9 30 -28z"/>
<path d="M5385 7758 c16 -13 55 -44 85 -70 90 -77 425 -355 570 -473 74 -61
231 -204 350 -320 118 -115 244 -232 280 -260 64 -49 64 -49 -26 64 -226 288
-389 455 -627 645 -160 127 -360 270 -457 325 -116 67 -206 113 -175 89z"/>
<path d="M4228 7609 c54 -42 108 -69 270 -133 448 -177 779 -343 840 -421 26
-32 29 -75 7 -75 -24 0 -157 53 -406 161 -263 114 -343 146 -459 184 -47 15
-110 38 -140 50 -66 27 -115 34 -281 39 -126 4 -126 4 -95 -27 17 -17 92 -77
166 -132 74 -56 140 -108 147 -116 6 -8 23 -45 36 -81 13 -37 42 -98 64 -135
22 -37 52 -89 67 -115 31 -56 61 -75 258 -164 190 -86 226 -112 303 -216 77
-102 137 -158 350 -326 221 -173 327 -265 428 -372 117 -123 140 -170 83 -170
-33 0 -96 45 -241 171 -130 113 -605 497 -738 597 -77 58 -177 109 -275 141
-118 38 -198 44 -472 34 -140 -5 -356 -6 -480 -3 -131 4 -240 3 -260 -3 -19
-5 -75 -29 -124 -53 -90 -43 -90 -43 -60 -55 16 -6 160 -20 319 -30 383 -24
556 -38 695 -55 312 -39 359 -46 414 -60 152 -39 354 -177 796 -539 102 -84
239 -193 306 -242 146 -110 205 -180 235 -280 23 -80 74 -106 117 -60 50 53
38 138 -43 305 -31 65 -59 139 -65 175 -22 119 -104 238 -261 376 -86 76 -133
113 -349 273 -63 47 -136 108 -162 134 -64 67 -128 146 -128 160 0 24 38 43
118 59 134 27 240 0 457 -114 305 -160 475 -294 648 -511 199 -250 456 -710
647 -1160 44 -102 110 -221 110 -198 0 33 -68 391 -96 505 -73 299 -124 415
-294 671 -171 257 -387 503 -532 605 -73 51 -597 308 -678 332 -34 10 -125 20
-235 26 -210 11 -293 27 -424 80 -111 46 -211 104 -333 195 -94 69 -110 98
-62 110 46 12 103 -4 227 -61 165 -76 294 -128 402 -161 82 -26 105 -28 255
-29 165 -1 165 -1 240 -36 41 -20 135 -70 207 -112 209 -121 263 -144 297
-131 9 3 16 18 16 32 0 41 -109 139 -314 281 -98 68 -219 159 -270 203 -132
114 -270 203 -483 311 -199 101 -274 129 -388 148 -76 12 -388 27 -377 18z"/>
<path d="M3764 7241 c3 -4 39 -24 81 -42 115 -52 101 -72 -66 -94 -63 -8 -134
-18 -158 -21 -44 -7 -44 -7 12 -24 31 -10 85 -23 120 -30 71 -13 120 -38 137
-70 15 -28 -1 -33 -84 -21 -79 11 -151 2 -264 -34 -42 -14 -86 -25 -97 -26
-11 0 3 -7 30 -15 56 -16 288 -24 347 -11 21 4 51 19 68 34 30 25 33 25 87 14
67 -13 142 -48 150 -68 12 -31 -24 -45 -163 -64 -77 -10 -200 -21 -274 -25
-143 -6 -196 -17 -312 -63 -72 -29 -72 -29 -17 -45 131 -36 560 -29 801 15
206 37 227 64 131 171 -32 36 -79 94 -105 131 -29 41 -81 93 -140 140 -51 40
-99 86 -107 100 -8 14 -29 33 -46 42 -35 16 -140 21 -131 6z"/>
<path d="M5241 6516 c-22 -26 8 -51 212 -186 324 -215 481 -354 594 -527 53
-81 166 -306 252 -503 30 -68 58 -114 101 -163 76 -86 125 -159 189 -278 101
-190 198 -429 275 -680 19 -63 46 -139 59 -170 23 -57 23 -57 19 125 -4 221
-24 395 -58 495 -53 159 -280 592 -547 1044 -173 293 -333 463 -601 639 -252
165 -458 249 -495 204z"/>
<path d="M3260 6227 c-30 -12 -80 -40 -110 -60 -30 -20 -62 -37 -70 -38 -8 0
8 -6 35 -13 28 -8 122 -16 210 -19 264 -10 584 -59 767 -118 150 -49 360 -180
668 -418 202 -157 843 -714 944 -821 69 -74 87 -101 148 -229 92 -191 123
-238 227 -346 78 -81 92 -102 141 -210 30 -66 75 -156 99 -200 159 -292 178
-336 202 -468 6 -34 19 -87 29 -117 17 -47 19 -51 20 -24 0 17 14 78 30 135
36 124 52 236 44 302 -5 34 -21 71 -56 124 -109 168 -185 349 -239 572 -42
173 -101 294 -182 375 -105 103 -263 228 -362 286 -139 81 -246 160 -470 346
-287 239 -469 384 -635 504 -136 99 -198 152 -280 244 -19 22 -59 50 -88 63
-152 67 -490 121 -922 148 -85 5 -101 3 -150 -18z m2806 -1644 c14 -15 46 -69
71 -120 53 -107 68 -188 38 -213 -15 -13 -20 -12 -38 10 -31 38 -127 240 -134
282 -5 37 8 68 29 68 5 0 20 -12 34 -27z"/>
<path d="M4529 6104 c-24 -29 11 -65 173 -174 196 -132 330 -234 622 -473 400
-327 497 -391 555 -370 61 22 13 98 -141 225 -464 382 -804 645 -928 719 -139
82 -249 111 -281 73z"/>
<path d="M3175 5956 c-27 -12 -70 -39 -95 -58 -25 -19 -54 -39 -65 -45 -24
-14 29 -20 235 -27 429 -15 797 -120 1114 -318 191 -120 334 -240 506 -424 58
-62 175 -179 260 -260 465 -439 788 -898 721 -1023 -25 -46 -60 -14 -143 129
-76 130 -136 209 -237 315 -48 50 -107 113 -131 140 -87 100 -239 253 -387
393 -117 109 -160 157 -188 208 -113 201 -451 447 -794 576 -189 71 -476 129
-711 144 -118 7 -122 6 -238 -69 -62 -41 -62 -41 -24 -52 21 -7 92 -15 158
-19 232 -13 529 -67 724 -133 231 -79 370 -153 565 -305 205 -159 247 -210
190 -224 -52 -13 -190 60 -301 161 -83 74 -100 87 -194 134 -219 112 -572 204
-927 242 -112 12 -112 12 -165 -15 -29 -15 -68 -39 -86 -55 -34 -27 -34 -27 5
-43 21 -9 121 -26 223 -38 296 -34 511 -82 820 -181 181 -58 265 -108 232
-141 -13 -13 -11 -13 -248 31 -55 10 -168 37 -250 59 -194 53 -319 77 -502 98
-176 21 -181 19 -273 -63 -60 -53 -60 -53 -25 -68 19 -8 74 -17 123 -20 48 -2
134 -7 190 -10 177 -10 330 -44 513 -113 87 -33 101 -43 170 -112 67 -68 100
-91 305 -207 127 -72 275 -153 330 -181 234 -120 332 -252 480 -647 77 -206
96 -246 158 -333 34 -48 47 -78 56 -125 30 -180 20 -428 -24 -557 -14 -41 -32
-100 -40 -130 -19 -74 -34 -292 -25 -360 4 -30 8 -49 9 -42 0 7 21 43 46 79
51 74 70 133 80 243 7 80 27 130 51 130 24 0 34 -45 34 -154 0 -70 4 -108 14
-121 12 -17 15 -15 39 26 59 100 67 145 47 250 -35 181 -31 436 12 674 11 66
21 161 21 210 -1 110 -27 198 -119 397 -35 76 -64 145 -64 154 0 23 25 27 59
10 41 -22 93 -93 187 -256 133 -229 138 -241 138 -328 0 -64 -5 -88 -31 -147
-67 -152 -73 -194 -83 -570 -5 -170 -13 -328 -18 -350 -5 -22 -13 -62 -16 -90
-6 -50 -6 -50 47 26 29 42 70 113 91 158 43 92 42 86 65 542 5 103 14 196 20
208 22 41 58 18 82 -54 18 -52 18 -381 0 -557 -7 -70 -10 -146 -6 -168 7 -40
7 -40 47 42 22 46 61 135 86 198 46 115 46 115 47 260 0 123 -4 164 -29 274
-36 164 -28 226 29 226 18 0 28 -14 54 -70 41 -89 87 -268 101 -399 11 -102
11 -102 -24 -174 -30 -61 -36 -82 -35 -137 0 -65 0 -65 23 -5 36 92 36 92 72
120 32 24 37 25 57 12 22 -14 22 -13 23 32 0 25 10 104 23 176 22 125 22 132
6 197 -35 143 -79 228 -176 334 -74 82 -78 90 -124 239 -21 66 -51 147 -68
180 -36 73 -299 483 -364 569 -65 85 -242 259 -553 543 -312 285 -439 389
-633 517 -323 213 -547 287 -1007 331 -192 19 -207 19 -265 -9z m1037 -1102
c96 -12 153 -27 282 -73 88 -32 184 -70 212 -84 162 -82 414 -328 513 -500 27
-47 33 -71 40 -154 7 -68 22 -137 49 -223 67 -209 76 -306 31 -345 -28 -27
-44 -6 -74 93 -56 186 -149 460 -175 518 -38 85 -102 177 -179 258 -162 170
-350 271 -804 436 -64 23 -120 46 -123 52 -3 5 0 15 6 23 16 19 71 19 222 -1z"/>
<path d="M6221 5024 c-42 -53 -19 -143 71 -284 69 -108 138 -260 204 -451 121
-354 172 -467 231 -519 61 -54 64 -47 54 117 -8 120 -14 144 -64 294 -30 90
-76 218 -102 284 -80 202 -234 496 -293 558 -34 35 -74 36 -101 1z"/>
<path d="M3175 4858 c-33 -5 -71 -12 -85 -14 -14 -3 -55 -36 -92 -75 -37 -38
-73 -69 -80 -69 -19 -1 47 -35 125 -66 125 -48 402 -192 483 -250 43 -31 140
-100 214 -153 172 -123 325 -274 465 -460 60 -79 144 -181 187 -228 110 -119
173 -261 216 -487 24 -128 23 -455 -2 -581 -10 -49 -21 -122 -25 -162 -6 -72
-6 -72 24 -45 148 132 154 141 171 255 46 303 25 561 -75 891 -22 72 -47 173
-56 225 -21 123 -60 226 -139 369 -35 64 -79 152 -96 194 -26 64 -43 88 -100
141 -37 36 -126 104 -196 152 -71 49 -172 119 -225 157 -235 167 -497 242
-714 206z m250 -140 c173 -59 337 -152 565 -322 143 -107 236 -204 329 -346
144 -218 219 -391 181 -415 -22 -14 -60 28 -156 172 -165 248 -246 340 -416
476 -154 124 -313 224 -505 319 -179 87 -217 115 -206 145 9 22 95 10 208 -29z"/>
<path d="M3059 4431 c-13 -10 -40 -34 -60 -53 -36 -34 -36 -34 5 -51 42 -18
401 -97 442 -97 32 0 37 14 20 48 -20 40 -91 83 -213 131 -114 45 -158 50
-194 22z"/>
<path d="M4514 4235 c-6 -26 -3 -33 106 -210 69 -111 106 -202 185 -453 122
-384 130 -426 129 -687 0 -192 -4 -243 -28 -395 -16 -96 -30 -206 -33 -245 -5
-70 -5 -70 15 -45 11 14 43 48 70 77 76 81 97 133 127 328 49 306 51 484 7
650 -21 79 -175 494 -232 626 -65 151 -173 302 -249 351 -57 36 -88 37 -97 3z"/>
<path d="M3450 4173 c-22 -10 -79 -17 -154 -21 -114 -5 -120 -6 -153 -35 -19
-17 -45 -52 -59 -79 -15 -29 -31 -48 -42 -48 -9 0 2 -9 25 -21 30 -15 53 -39
85 -87 23 -37 95 -121 159 -187 110 -114 149 -166 149 -199 0 -25 -16 -26 -76
-5 -33 11 -84 24 -114 28 -54 8 -54 8 5 -45 33 -29 85 -67 115 -83 126 -68
237 -231 356 -523 25 -62 52 -135 59 -163 10 -36 14 -42 14 -22 1 15 10 36 22
48 28 28 59 97 59 132 0 78 -89 282 -218 495 -48 81 -103 174 -122 207 -21 39
-75 102 -151 176 -64 64 -120 127 -124 140 -4 13 -18 36 -32 50 -20 22 -23 31
-14 47 27 51 193 70 297 34 165 -57 374 -259 554 -532 120 -183 192 -359 225
-546 17 -97 20 -340 6 -425 -5 -30 -12 -77 -15 -106 -5 -52 -5 -52 43 -18 27
20 67 55 89 79 36 39 41 51 47 111 4 38 5 143 2 234 -11 347 -98 547 -405 931
-158 198 -313 331 -476 411 -87 43 -104 45 -156 22z"/>
<path d="M3323 3944 c-28 -12 -9 -35 70 -87 104 -68 170 -125 240 -207 88
-104 204 -285 272 -425 105 -215 138 -336 155 -573 5 -77 12 -147 16 -155 4
-11 18 -1 53 37 76 81 85 104 77 209 -19 255 -98 482 -246 707 -164 249 -304
391 -457 462 -63 30 -151 45 -180 32z"/>
</g>
</svg>
