<?xml version="1.0" standalone="no"?>
<!DOCTYPE svg PUBLIC "-//W3C//DTD SVG 20010904//EN"
 "http://www.w3.org/TR/2001/REC-SVG-20010904/DTD/svg10.dtd">
<svg version="1.0" xmlns="http://www.w3.org/2000/svg"
 width="1000.000000pt" height="1000.000000pt" viewBox="0 0 1000.000000 1000.000000"
 preserveAspectRatio="xMidYMid meet">
<metadata>
  <rdf:RDF
    xmlns:rdf = "http://www.w3.org/1999/02/22-rdf-syntax-ns#"
    xmlns:rdfs = "http://www.w3.org/2000/01/rdf-schema#"
    xmlns:dc = "http://purl.org/dc/elements/1.1/"
    xmlns:cc = "http://creativecommons.org/ns#">
    <cc:license rdf:resource="http://creativecommons.org/publicdomain/zero/1.0/deed.en"/>
    <cc:permits rdf:resource="http://creativecommons.org/ns#Reproduction"/>
    <rdf:Description about="https://nft.mir.one/fingerprints"
      dc:title="TON Fingerprints"
      dc:description="This is a unique digital fingerprint created based on the algorithm for generating basic rings using a noise texture. Like human fingerprints, you can now use it for the Web3 and Metaverse era as digital biometric information."
      dc:publisher="https://nft.mir.one"
      dc:date="2022-02-22"
      dc:format="image/svg+xml"
      dc:language="en" >
      <dc:creator>
      <rdf:Bag>
        <rdf:li>EQBondcvD2_aOFADXSWJHs4ZazQDuEl9_wNvGGPxI8hGuOFU</rdf:li>
        <rdf:li>ipfs://bafkreihj7iub3fhmhq6jn62noukt5wxn3gv6bvcg7wmt6ywvlurefezckq</rdf:li>
      </rdf:Bag>
      </dc:creator>
    </rdf:Description>
  </rdf:RDF>
</metadata>
<g transform="translate(0.000000,1000.000000) scale(0.100000,-0.100000)"
fill="#1b1f23" stroke="none">
<path d="M5200 7773 c-315 -32 -447 -56 -572 -103 -31 -11 -90 -45 -130 -74
-40 -30 -134 -84 -208 -121 -74 -37 -227 -123 -340 -190 -113 -67 -236 -139
-275 -158 -70 -36 -70 -36 22 -37 92 0 92 0 350 129 322 160 375 180 518 191
61 5 220 27 355 49 400 65 502 74 754 67 120 -4 232 -9 250 -12 52 -8 -140 53
-259 83 -100 25 -126 27 -290 27 -204 -1 -343 -17 -593 -69 -174 -37 -227 -42
-237 -25 -26 43 169 119 434 170 108 21 291 67 300 75 4 5 -17 5 -79 -2z"/>
<path d="M5345 7404 c-255 -17 -766 -94 -890 -135 -88 -29 -398 -187 -502
-256 -98 -65 -205 -198 -190 -237 12 -31 61 -16 187 55 68 39 174 94 235 124
60 29 135 74 165 99 102 87 205 121 485 161 557 80 929 51 1305 -100 62 -25
138 -59 169 -75 31 -16 81 -39 111 -50 30 -12 65 -28 78 -36 46 -30 18 -4 -85
78 -251 199 -482 319 -688 357 -64 12 -289 21 -380 15z"/>
<path d="M5045 7133 c-109 -9 -311 -36 -398 -54 -129 -26 -204 -54 -224 -86
-16 -24 -16 -26 3 -40 23 -18 110 -14 329 17 191 27 546 37 706 21 371 -39
689 -165 949 -376 78 -64 259 -248 357 -365 40 -47 95 -110 123 -140 50 -55
50 -55 -34 92 -191 335 -393 580 -570 693 -172 110 -474 207 -728 234 -88 10
-416 12 -513 4z"/>
<path d="M3629 6937 c-224 -192 -394 -428 -419 -580 -5 -35 -33 -118 -61 -183
-72 -168 -125 -318 -165 -472 -39 -146 -41 -183 -5 -70 28 85 136 304 202 408
61 95 94 127 197 184 46 26 138 83 205 128 152 100 218 133 427 215 207 82
340 116 555 142 373 45 587 52 809 26 420 -49 737 -198 1029 -484 343 -335
519 -688 613 -1226 29 -168 42 -251 48 -310 2 -22 3 50 1 160 -6 298 -45 537
-128 788 -106 315 -222 497 -471 734 -368 351 -826 511 -1401 490 -93 -4 -231
-14 -305 -23 -74 -8 -214 -19 -310 -23 -193 -8 -204 -11 -455 -115 -64 -26
-142 -50 -185 -57 -41 -6 -93 -20 -115 -31 -64 -33 -196 -131 -290 -218 -97
-88 -128 -99 -146 -54 -23 63 52 165 239 323 150 126 262 260 248 297 -10 27
-44 13 -117 -49z"/>
<path d="M4899 6630 c-564 -39 -1000 -201 -1389 -517 -217 -177 -357 -434
-415 -763 -26 -147 -36 -365 -25 -536 12 -176 67 -570 105 -744 13 -63 29
-144 34 -179 12 -72 44 -146 68 -155 9 -4 24 0 32 9 14 14 13 31 -13 183 -45
255 -46 269 -28 344 14 64 14 75 -7 200 -112 671 12 1131 405 1507 222 212
517 368 849 450 186 46 288 56 555 56 283 0 378 -13 571 -76 313 -103 596
-312 791 -585 152 -213 204 -358 267 -744 44 -269 54 -374 54 -575 0 -288 -51
-531 -157 -750 -55 -113 -102 -173 -159 -201 -51 -26 -61 -38 -163 -199 -192
-302 -369 -475 -486 -475 -82 0 -72 49 34 170 239 275 321 414 377 635 16 66
54 206 84 310 61 211 79 303 79 403 1 80 -13 112 -47 112 -33 0 -44 -24 -105
-231 -104 -352 -222 -633 -341 -809 -57 -84 -218 -298 -335 -444 -105 -132
-251 -190 -504 -203 -266 -12 -508 64 -821 259 -220 138 -323 233 -463 429
-104 146 -156 251 -226 454 -59 170 -109 284 -133 303 -9 8 -24 12 -34 10 -30
-5 -27 -62 12 -218 20 -80 44 -202 55 -273 11 -70 27 -142 36 -160 17 -33 58
-93 156 -229 33 -45 65 -105 78 -142 17 -53 30 -73 68 -104 75 -62 699 -470
777 -507 79 -38 196 -69 325 -85 141 -17 553 -24 655 -11 169 23 360 103 506
213 149 112 274 263 479 578 189 290 269 463 335 725 55 220 69 342 69 595 0
202 -2 241 -28 385 -34 196 -75 356 -119 472 -174 450 -533 821 -959 991 -254
101 -570 144 -899 122z"/>
<path d="M4920 6370 c-260 -21 -504 -86 -710 -190 -259 -130 -431 -287 -624
-569 -126 -185 -164 -257 -190 -361 -39 -162 -46 -549 -12 -710 12 -54 43
-130 115 -275 55 -110 127 -258 160 -328 145 -308 334 -526 596 -687 110 -68
289 -149 394 -178 86 -24 112 -27 256 -27 149 1 166 3 240 28 148 52 228 114
414 322 259 289 369 475 516 871 36 99 87 224 113 279 42 91 47 108 50 191 7
163 -33 304 -142 495 -149 259 -324 438 -533 543 -122 61 -218 77 -347 56 -33
-5 -122 -14 -196 -19 -218 -16 -371 -70 -516 -184 -119 -94 -192 -203 -254
-382 -33 -98 -48 -127 -80 -158 -67 -67 -86 -163 -55 -282 37 -141 98 -255
192 -355 85 -91 135 -115 243 -116 64 -1 103 -7 158 -27 236 -84 472 -37 616
124 55 61 80 113 80 164 0 70 -24 278 -40 339 -44 176 -175 298 -322 298 -128
1 -210 -71 -242 -212 -6 -30 -19 -74 -27 -97 -15 -40 -14 -44 7 -78 31 -50 95
-85 156 -85 92 0 154 63 154 155 -1 73 -49 124 -85 89 -24 -24 -50 -13 -53 22
-6 65 94 98 164 55 37 -22 75 -71 95 -121 20 -49 18 -174 -4 -236 -70 -202
-329 -252 -486 -95 -59 59 -187 234 -222 303 -59 117 -73 238 -38 340 75 223
324 382 569 365 63 -5 89 -13 166 -52 205 -103 337 -212 431 -352 76 -114 115
-228 121 -353 8 -159 -26 -254 -155 -437 -186 -263 -354 -369 -603 -380 -172
-8 -344 33 -538 128 -167 83 -297 219 -395 414 -78 156 -130 354 -107 406 6
13 28 46 49 73 26 33 58 99 100 205 73 189 131 281 242 385 194 183 413 262
779 282 328 18 575 -79 810 -316 47 -48 113 -127 148 -176 155 -220 232 -335
251 -372 32 -62 59 -173 80 -328 11 -77 29 -174 41 -215 41 -149 24 -340 -55
-606 -57 -190 -69 -251 -59 -292 11 -42 36 -51 66 -24 65 59 173 369 209 598
26 171 4 511 -52 787 -11 57 -24 166 -29 243 -7 120 -12 152 -39 224 -87 235
-293 485 -536 648 -274 184 -658 274 -1035 243z m492 -170 c415 -88 772 -371
954 -754 49 -105 61 -168 31 -174 -28 -6 -51 21 -128 145 -130 209 -242 339
-387 447 -150 113 -312 185 -500 223 -118 24 -408 23 -539 -1 -295 -54 -547
-182 -710 -360 -132 -145 -192 -297 -208 -528 -10 -141 -20 -155 -68 -98 -32
37 -47 125 -49 280 -2 136 13 188 88 303 154 232 460 425 799 503 214 49 526
55 717 14z m-51 -476 c227 -68 451 -268 582 -522 75 -145 99 -228 105 -367 5
-137 -8 -205 -73 -380 -103 -277 -238 -499 -404 -666 -88 -88 -120 -113 -191
-148 -94 -47 -77 -46 -290 -17 -376 52 -455 72 -621 158 -295 153 -514 406
-686 792 -57 128 -98 182 -131 172 -69 -22 0 -256 157 -532 141 -249 305 -436
487 -557 253 -168 474 -228 761 -204 105 9 126 8 134 -4 17 -27 9 -53 -31 -90
-107 -102 -371 -113 -605 -24 -180 67 -359 182 -493 314 -147 145 -242 285
-386 571 -96 188 -123 257 -143 359 -15 73 -15 92 -3 160 8 45 14 156 15 271
2 200 10 259 47 333 39 79 78 53 78 -52 0 -151 30 -314 74 -400 106 -211 239
-458 277 -517 190 -292 495 -487 844 -541 130 -20 304 -13 395 16 197 62 388
257 531 544 81 161 111 262 117 397 4 96 1 130 -17 200 -42 169 -164 370 -288
478 -64 54 -164 121 -264 175 -74 41 -94 60 -85 82 7 19 39 19 107 -1z m-1066
-678 c9 -13 29 -58 45 -100 43 -110 67 -153 115 -205 53 -57 66 -83 55 -101
-7 -12 -12 -12 -22 -2 -16 16 -58 16 -58 0 0 -22 13 -35 58 -57 67 -34 127
-144 91 -166 -23 -15 -62 9 -136 83 -74 73 -81 84 -131 204 -29 70 -59 158
-67 195 -15 72 -19 155 -8 166 14 15 43 6 58 -17z"/>
<path d="M4865 5483 c-118 -43 -215 -128 -263 -231 -50 -108 -30 -268 40 -327
53 -45 63 -33 64 76 2 130 22 188 88 255 72 71 143 97 251 92 110 -6 196 -47
286 -137 113 -113 156 -223 166 -429 7 -135 15 -154 59 -133 45 20 69 91 69
206 0 174 -60 310 -196 445 -80 80 -150 126 -251 168 -84 34 -237 42 -313 15z"/>
<path d="M2911 4704 c0 -11 3 -14 6 -6 3 7 2 16 -1 19 -3 4 -6 -2 -5 -13z"/>
<path d="M2921 4634 c0 -11 3 -14 6 -6 3 7 2 16 -1 19 -3 4 -6 -2 -5 -13z"/>
<path d="M2931 4574 c0 -11 3 -14 6 -6 3 7 2 16 -1 19 -3 4 -6 -2 -5 -13z"/>
<path d="M2942 4520 c0 -14 2 -19 5 -12 2 6 2 18 0 25 -3 6 -5 1 -5 -13z"/>
<path d="M2951 4477 c-1 -24 44 -235 74 -339 31 -106 86 -261 91 -255 3 2 -16
69 -41 148 -37 117 -75 259 -118 444 -4 16 -5 17 -6 2z"/>
<path d="M3251 3506 c125 -164 198 -245 253 -283 57 -39 106 -45 106 -12 0 28
-295 315 -362 351 -28 15 -57 33 -66 40 -8 7 23 -36 69 -96z"/>
<path d="M3628 2934 c59 -40 188 -129 287 -196 191 -130 242 -175 290 -253 41
-68 130 -126 250 -164 154 -50 252 -62 575 -70 175 -5 307 -13 325 -20 27 -10
25 -6 -18 33 -64 57 -96 63 -417 81 -279 15 -337 23 -430 60 -83 33 -114 58
-213 173 -97 112 -189 183 -371 288 -156 89 -253 130 -328 137 -56 5 -56 5 50
-69z"/>
<path d="M4108 2453 c7 -3 16 -2 19 1 4 3 -2 6 -13 5 -11 0 -14 -3 -6 -6z"/>
</g>
</svg>
