<?xml version="1.0" standalone="no"?>
<!DOCTYPE svg PUBLIC "-//W3C//DTD SVG 20010904//EN"
 "http://www.w3.org/TR/2001/REC-SVG-20010904/DTD/svg10.dtd">
<svg version="1.0" xmlns="http://www.w3.org/2000/svg"
 width="1000.000000pt" height="1000.000000pt" viewBox="0 0 1000.000000 1000.000000"
 preserveAspectRatio="xMidYMid meet">
<metadata>
  <rdf:RDF
    xmlns:rdf = "http://www.w3.org/1999/02/22-rdf-syntax-ns#"
    xmlns:rdfs = "http://www.w3.org/2000/01/rdf-schema#"
    xmlns:dc = "http://purl.org/dc/elements/1.1/"
    xmlns:cc = "http://creativecommons.org/ns#">
    <cc:license rdf:resource="http://creativecommons.org/publicdomain/zero/1.0/deed.en"/>
    <cc:permits rdf:resource="http://creativecommons.org/ns#Reproduction"/>
    <rdf:Description about="https://nft.mir.one/fingerprints"
      dc:title="TON Fingerprints"
      dc:description="This is a unique digital fingerprint created based on the algorithm for generating basic rings using a noise texture. Like human fingerprints, you can now use it for the Web3 and Metaverse era as digital biometric information."
      dc:publisher="https://nft.mir.one"
      dc:date="2022-02-22"
      dc:format="image/svg+xml"
      dc:language="en" >
      <dc:creator>
      <rdf:Bag>
        <rdf:li>EQBondcvD2_aOFADXSWJHs4ZazQDuEl9_wNvGGPxI8hGuOFU</rdf:li>
        <rdf:li>ipfs://bafkreihj7iub3fhmhq6jn62noukt5wxn3gv6bvcg7wmt6ywvlurefezckq</rdf:li>
      </rdf:Bag>
      </dc:creator>
    </rdf:Description>
  </rdf:RDF>
</metadata>
<g transform="translate(0.000000,1000.000000) scale(0.100000,-0.100000)"
fill="#1b1f23" stroke="none">
<path d="M5064 7780 c-362 -25 -616 -127 -1065 -431 -256 -174 -516 -434 -681
-684 -40 -60 -40 -60 3 -10 68 77 323 299 418 364 100 68 268 166 465 271 108
58 151 87 190 129 134 142 186 178 346 236 96 34 404 105 495 113 67 6 68 6
30 13 -45 9 -49 9 -201 -1z"/>
<path d="M5065 7584 c-224 -34 -478 -122 -526 -182 -69 -88 36 -110 261 -54
277 69 380 84 595 83 186 0 340 -19 510 -63 132 -33 289 -68 292 -64 2 1 -68
37 -155 79 -289 141 -508 197 -782 202 -91 2 -178 1 -195 -1z"/>
<path d="M5257 7289 c-135 -11 -235 -31 -421 -84 -87 -25 -210 -54 -274 -64
-152 -26 -228 -50 -386 -123 -72 -34 -177 -80 -234 -103 -128 -53 -194 -93
-286 -171 -89 -76 -158 -155 -228 -264 -72 -110 -111 -190 -202 -407 -41 -98
-100 -236 -131 -308 -64 -145 -91 -239 -105 -365 -17 -151 -14 -206 19 -274
17 -35 43 -122 61 -202 39 -179 151 -547 192 -627 88 -177 264 -350 453 -444
159 -80 387 -149 720 -218 207 -43 239 -47 320 -42 211 13 475 133 725 331
424 334 598 539 683 801 42 129 49 193 45 410 -3 180 -1 204 15 228 28 43 49
31 64 -33 63 -272 56 -475 -23 -689 -97 -259 -249 -451 -574 -723 -340 -285
-601 -416 -942 -472 -129 -22 -140 -25 -177 -58 -26 -24 -55 -39 -90 -47 -111
-24 -320 -7 -503 39 -102 26 -326 108 -335 123 -10 17 37 47 75 47 20 0 104
-18 186 -39 321 -84 591 -111 653 -65 17 12 17 14 -5 37 -28 29 -62 40 -217
67 -258 46 -636 150 -749 207 -168 84 -373 279 -474 452 -21 37 -27 62 -33
150 -6 85 -19 144 -64 301 -89 304 -100 367 -71 423 8 15 10 27 5 27 -47 0
-31 -256 35 -547 42 -185 42 -203 9 -239 -27 -28 -27 -31 -11 -45 9 -8 46 -77
81 -154 73 -161 150 -290 234 -390 43 -52 90 -91 178 -151 105 -70 122 -85
133 -120 20 -59 68 -102 167 -150 197 -94 508 -138 725 -103 105 17 446 105
560 144 322 112 615 311 951 645 224 223 316 363 408 623 48 137 64 243 58
382 -6 128 -22 204 -64 298 -26 57 -81 117 -108 117 -26 0 -45 44 -116 261
-77 238 -102 286 -215 407 -179 194 -494 398 -756 490 -190 67 -429 96 -568
68 -143 -29 -280 -106 -344 -195 -40 -55 -48 -84 -35 -119 20 -53 53 -54 169
-6 191 80 254 96 398 102 208 7 353 -24 547 -119 120 -58 233 -145 336 -260
213 -235 297 -418 319 -692 6 -73 16 -157 22 -187 65 -303 -119 -703 -383
-835 -58 -29 -100 -62 -189 -150 -163 -159 -415 -347 -518 -385 -110 -41 -196
-53 -347 -47 -397 16 -837 191 -1050 418 -136 145 -209 288 -334 660 -48 145
-99 289 -111 319 -54 131 -63 241 -30 380 27 109 83 227 116 242 44 20 47 2
25 -123 -23 -123 -27 -284 -10 -359 20 -91 188 -588 232 -688 119 -270 321
-477 582 -598 108 -50 266 -101 369 -119 229 -39 552 1 625 79 30 32 21 62
-21 71 -45 10 -259 -3 -353 -22 -189 -37 -424 28 -655 182 -110 73 -238 201
-305 304 -94 145 -169 337 -224 575 -12 50 -30 106 -41 125 -75 134 -74 126
-83 381 -11 319 -11 308 18 397 73 216 197 416 365 584 121 122 189 166 235
155 56 -14 23 -77 -136 -261 -114 -133 -174 -215 -228 -317 -90 -165 -122
-294 -141 -564 -13 -191 -2 -283 37 -298 38 -15 57 32 93 231 37 210 61 303
110 420 69 170 152 283 316 433 47 43 72 78 114 160 96 185 225 286 435 340
121 31 197 27 286 -14 53 -25 120 -44 232 -65 154 -30 211 -50 272 -96 17 -13
100 -60 185 -105 266 -140 448 -271 663 -477 62 -59 139 -121 179 -144 83 -48
161 -125 239 -235 168 -235 258 -462 308 -784 21 -132 44 -253 75 -395 9 -38
16 -95 17 -125 2 -49 3 -47 9 25 8 94 -6 492 -21 615 -24 203 -84 432 -149
575 -32 70 -116 190 -207 294 -36 41 -95 115 -133 165 -61 82 -101 120 -235
223 -50 39 -462 306 -530 344 -27 16 -112 49 -187 74 -137 46 -165 62 -155 89
11 29 82 38 191 26 219 -26 233 -25 321 11 114 46 211 51 318 15 73 -25 232
-99 286 -134 13 -9 49 -26 80 -39 55 -22 55 -22 -49 83 -117 118 -223 201
-415 324 -150 97 -213 125 -340 151 -173 35 -361 44 -558 28z m493 -169 c171
-20 259 -52 260 -93 0 -22 -70 -29 -295 -28 -169 1 -266 -3 -330 -14 -49 -8
-182 -19 -294 -25 -177 -10 -206 -9 -219 4 -38 37 60 103 188 126 198 36 521
50 690 30z"/>
<path d="M5933 6773 c-23 -9 -14 -50 16 -76 16 -13 94 -58 173 -99 79 -42 196
-108 262 -147 65 -40 140 -83 167 -97 61 -30 198 -64 263 -64 50 0 50 0 5 29
-24 16 -96 77 -159 135 -63 59 -139 123 -168 142 -83 56 -270 142 -356 164
-73 19 -174 25 -203 13z"/>
<path d="M4781 6250 c-174 -37 -348 -130 -421 -226 -22 -29 -30 -50 -30 -84
-1 -70 -45 -132 -79 -111 -11 7 -11 16 4 54 28 74 2 102 -46 51 -21 -22 -24
-34 -22 -87 1 -50 -6 -82 -35 -162 -32 -84 -42 -102 -67 -114 -74 -34 -117
-108 -141 -241 -38 -214 6 -440 121 -625 97 -156 238 -279 437 -380 62 -32
140 -75 173 -95 82 -50 109 -58 287 -80 166 -20 205 -17 279 20 21 11 55 36
74 56 29 28 36 42 33 67 -5 47 -37 55 -146 34 -203 -39 -367 -14 -587 88 -121
56 -196 105 -273 179 -166 159 -250 344 -260 575 -5 138 13 340 33 368 13 17
14 17 34 -1 31 -28 38 -72 45 -251 9 -265 63 -428 191 -578 164 -192 502 -293
809 -243 191 32 228 66 332 306 28 65 35 114 50 315 14 207 -74 377 -237 459
-90 45 -162 59 -273 54 -113 -6 -183 -32 -255 -93 -30 -25 -58 -44 -64 -42
-42 14 -27 95 29 157 43 47 133 94 212 111 72 15 256 6 337 -16 156 -43 251
-119 318 -253 42 -86 42 -86 42 -221 -1 -126 -3 -143 -33 -232 -39 -116 -40
-129 -8 -129 44 0 76 40 152 194 87 174 98 225 71 353 -33 154 -92 261 -219
401 -49 52 -88 102 -88 111 0 35 -50 119 -91 155 -54 46 -179 108 -279 137
-85 24 -330 35 -409 19z m443 -210 c96 -24 245 -89 260 -112 8 -14 7 -21 -6
-34 -22 -22 -99 -22 -208 1 -127 27 -285 26 -380 -4 -246 -75 -375 -253 -412
-568 -13 -119 -2 -237 33 -342 26 -76 100 -188 168 -255 39 -38 48 -53 39 -63
-47 -56 -218 78 -292 229 -65 133 -79 207 -80 423 0 216 10 275 70 384 114
208 256 315 469 357 89 17 236 11 339 -16z m9 -638 c77 -38 158 -120 193 -196
23 -50 63 -208 64 -249 0 -26 -28 -32 -51 -11 -11 10 -45 67 -75 126 -64 124
-122 185 -210 217 -147 55 -324 -4 -369 -124 -24 -62 -17 -164 15 -229 48 -94
144 -150 220 -127 83 25 124 120 81 188 -33 52 -101 54 -101 2 0 -26 -37 -34
-61 -13 -13 11 -19 30 -19 57 0 31 7 46 34 73 30 30 40 34 86 34 65 0 111 -21
155 -73 71 -83 97 -225 55 -306 -45 -89 -142 -135 -268 -129 -114 5 -145 24
-210 128 -29 47 -69 118 -89 158 -31 64 -36 85 -41 168 -6 111 13 197 59 269
29 45 29 45 91 45 35 1 90 7 123 15 37 9 98 13 157 11 85 -3 105 -7 161 -34z"/>
<path d="M4035 6179 c-24 -22 -68 -77 -96 -122 -105 -163 -165 -322 -245 -644
-55 -223 -56 -231 -51 -338 13 -295 205 -627 464 -803 223 -151 535 -235 521
-139 -3 24 -19 33 -200 116 -140 64 -233 128 -334 226 -122 121 -197 242 -248
402 -54 174 -55 340 -1 542 27 100 196 479 274 616 72 125 69 185 -6 185 -25
0 -44 -10 -78 -41z"/>
<path d="M6650 6185 c-22 -27 -1 -62 97 -167 53 -57 115 -129 139 -160 23 -32
65 -84 94 -115 51 -58 51 -58 25 1 -47 107 -125 257 -157 304 -85 124 -164
178 -198 137z"/>
<path d="M6328 5853 c-36 -9 -35 -76 5 -162 11 -25 58 -109 104 -186 130 -220
173 -361 173 -569 0 -163 -47 -326 -165 -571 -84 -175 -142 -254 -309 -419
-519 -511 -867 -712 -1425 -820 -323 -63 -603 -52 -865 36 -156 52 -223 91
-406 234 -106 82 -253 166 -212 120 10 -11 57 -66 104 -121 175 -206 338 -333
482 -376 438 -131 980 -91 1454 107 276 115 509 279 816 575 76 74 166 153
200 177 87 61 112 87 168 172 62 93 109 191 186 388 36 90 78 177 104 213 43
62 43 62 46 189 7 275 -72 525 -255 805 -110 167 -160 218 -205 208z"/>
<path d="M5911 5111 c-10 -10 -29 -49 -41 -87 -32 -96 -51 -132 -145 -269
-120 -175 -157 -255 -135 -295 20 -38 65 -26 125 34 126 126 238 342 260 503
12 91 -23 155 -64 114z"/>
<path d="M6812 4596 c-10 -14 -31 -71 -46 -127 -44 -163 -82 -261 -171 -449
-46 -96 -93 -211 -105 -254 -42 -159 -147 -319 -343 -522 -470 -489 -1106
-724 -1842 -682 -199 11 -382 17 -370 13 6 -3 75 -25 155 -49 419 -129 737
-136 1124 -25 422 121 786 351 1068 676 98 112 181 226 241 328 49 84 202 409
262 556 86 211 128 456 91 527 -20 38 -38 40 -64 8z"/>
<path d="M7022 4325 c0 -16 2 -22 5 -12 2 9 2 23 0 30 -3 6 -5 -1 -5 -18z"/>
<path d="M7012 4260 c0 -14 2 -19 5 -12 2 6 2 18 0 25 -3 6 -5 1 -5 -13z"/>
<path d="M7001 4214 c0 -11 3 -14 6 -6 3 7 2 16 -1 19 -3 4 -6 -2 -5 -13z"/>
<path d="M6980 4148 c-15 -52 -61 -144 -107 -216 -18 -29 -77 -139 -129 -245
-53 -105 -121 -232 -151 -282 -128 -210 -330 -445 -517 -602 -252 -212 -598
-379 -948 -457 -119 -27 -468 -75 -553 -77 -50 -1 -50 -1 -10 -11 23 -5 140
-8 275 -5 324 6 493 40 747 147 251 106 436 232 639 435 271 270 424 508 642
1000 78 176 139 341 130 351 -3 2 -11 -15 -18 -38z"/>
<path d="M6325 3792 c-16 -10 -87 -81 -157 -158 -179 -195 -322 -319 -513
-446 -523 -347 -1259 -458 -1885 -284 -47 13 -110 27 -140 30 -55 6 -55 6 30
-44 193 -115 362 -181 515 -201 131 -17 528 -6 670 19 242 43 418 99 623 197
219 106 408 239 586 413 211 206 361 420 330 469 -15 24 -25 25 -59 5z"/>
</g>
</svg>
