<?xml version="1.0" standalone="no"?>
<!DOCTYPE svg PUBLIC "-//W3C//DTD SVG 20010904//EN"
 "http://www.w3.org/TR/2001/REC-SVG-20010904/DTD/svg10.dtd">
<svg version="1.0" xmlns="http://www.w3.org/2000/svg"
 width="1000.000000pt" height="1000.000000pt" viewBox="0 0 1000.000000 1000.000000"
 preserveAspectRatio="xMidYMid meet">
<metadata>
  <rdf:RDF
    xmlns:rdf = "http://www.w3.org/1999/02/22-rdf-syntax-ns#"
    xmlns:rdfs = "http://www.w3.org/2000/01/rdf-schema#"
    xmlns:dc = "http://purl.org/dc/elements/1.1/"
    xmlns:cc = "http://creativecommons.org/ns#">
    <cc:license rdf:resource="http://creativecommons.org/publicdomain/zero/1.0/deed.en"/>
    <cc:permits rdf:resource="http://creativecommons.org/ns#Reproduction"/>
    <rdf:Description about="https://nft.mir.one/fingerprints"
      dc:title="TON Fingerprints"
      dc:description="This is a unique digital fingerprint created based on the algorithm for generating basic rings using a noise texture. Like human fingerprints, you can now use it for the Web3 and Metaverse era as digital biometric information."
      dc:publisher="https://nft.mir.one"
      dc:date="2022-02-22"
      dc:format="image/svg+xml"
      dc:language="en" >
      <dc:creator>
      <rdf:Bag>
        <rdf:li>EQBondcvD2_aOFADXSWJHs4ZazQDuEl9_wNvGGPxI8hGuOFU</rdf:li>
        <rdf:li>ipfs://bafkreihj7iub3fhmhq6jn62noukt5wxn3gv6bvcg7wmt6ywvlurefezckq</rdf:li>
      </rdf:Bag>
      </dc:creator>
    </rdf:Description>
  </rdf:RDF>
</metadata>
<g transform="translate(0.000000,1000.000000) scale(0.100000,-0.100000)"
fill="#1b1f23" stroke="none">
<path d="M4710 7774 c19 -2 112 -16 205 -31 180 -28 376 -36 395 -17 19 19
-214 46 -435 49 -110 2 -184 1 -165 -1z"/>
<path d="M4655 7579 c-239 -20 -462 -84 -714 -205 -89 -42 -160 -78 -159 -79
10 -6 183 17 283 38 274 58 638 80 1085 66 279 -8 387 -21 534 -64 179 -52
308 -120 500 -264 195 -146 447 -387 531 -507 59 -84 76 -103 45 -49 -109 186
-205 310 -385 494 -225 231 -382 353 -560 437 -123 58 -283 110 -381 123 -104
13 -651 21 -779 10z"/>
<path d="M4810 7239 c-312 -14 -684 -61 -860 -110 -84 -23 -511 -241 -498
-254 2 -2 32 0 68 4 131 16 144 -19 38 -105 -103 -83 -209 -191 -317 -322 -84
-103 -88 -110 -46 -77 26 19 50 35 55 35 4 0 28 16 52 36 23 20 104 80 178
132 74 53 176 135 225 182 71 66 104 90 150 107 148 55 294 83 570 108 94 9
234 27 313 41 263 44 493 32 877 -46 267 -55 358 -92 508 -207 353 -272 589
-692 664 -1183 25 -165 25 -562 0 -677 -41 -193 -120 -371 -235 -533 -74 -104
-290 -327 -422 -437 -224 -186 -385 -252 -612 -253 -77 0 -77 0 -134 -55 -31
-31 -75 -66 -98 -80 -99 -58 -272 -88 -661 -116 -152 -11 -181 -10 -274 5
-237 40 -409 128 -548 279 -101 111 -152 206 -229 432 -82 236 -105 349 -111
530 -8 250 30 418 147 649 62 123 77 190 47 215 -42 34 -201 -210 -275 -419
-65 -186 -77 -257 -77 -470 0 -225 16 -320 90 -547 84 -254 179 -419 329 -568
165 -164 321 -241 561 -274 202 -28 548 -22 760 15 298 50 813 231 972 340 67
47 619 592 687 679 221 283 282 530 242 975 -32 348 -65 526 -142 753 -55 165
-174 404 -260 524 -117 163 -338 362 -528 474 -289 169 -687 241 -1206 218z"/>
<path d="M4846 6865 c-54 -19 -70 -37 -62 -69 9 -38 52 -60 226 -117 151 -50
159 -52 310 -58 146 -7 159 -9 220 -39 171 -82 427 -345 567 -580 88 -148 168
-352 212 -540 32 -136 53 -170 87 -141 74 61 6 392 -137 669 -107 208 -233
363 -437 542 -131 115 -145 130 -167 175 -8 17 -27 41 -42 52 -96 76 -650 152
-777 106z"/>
<path d="M5719 6784 c-19 -23 -4 -41 97 -111 354 -247 591 -586 690 -986 37
-150 41 -275 15 -417 -11 -63 -29 -169 -40 -235 -41 -250 -121 -445 -255 -623
-131 -173 -233 -251 -446 -342 -176 -74 -240 -122 -240 -177 0 -62 110 -69
242 -14 285 119 579 397 733 692 120 232 173 506 162 843 -8 255 -53 436 -167
671 -150 310 -392 576 -622 685 -72 34 -147 40 -169 14z"/>
<path d="M4124 6745 c-209 -32 -351 -101 -639 -310 -143 -104 -223 -195 -335
-380 -65 -107 -189 -370 -158 -333 49 57 89 106 150 183 142 181 392 401 573
504 135 78 186 91 391 102 257 15 326 -1 414 -93 39 -41 59 -52 150 -83 123
-43 228 -97 311 -161 154 -118 380 -362 491 -529 139 -210 205 -398 236 -675
6 -55 10 -65 26 -65 53 0 83 117 67 253 -33 272 -163 524 -439 855 -73 87
-163 204 -201 260 -85 126 -135 173 -281 264 -63 39 -140 93 -170 119 -67 57
-114 79 -200 93 -86 14 -285 12 -386 -4z"/>
<path d="M5375 6486 c-27 -19 -14 -39 57 -87 82 -55 276 -250 361 -363 149
-201 265 -456 348 -766 31 -115 31 -289 0 -404 -50 -188 -143 -353 -283 -502
-98 -104 -112 -127 -82 -138 52 -20 137 20 227 108 151 147 272 375 318 601 7
33 13 110 13 170 1 110 1 110 -36 170 -23 36 -62 133 -98 240 -67 197 -129
336 -208 463 -201 323 -516 582 -617 508z"/>
<path d="M5282 6408 c-18 -18 -15 -67 8 -112 20 -42 59 -93 209 -276 216 -264
352 -532 396 -784 29 -167 18 -247 -67 -470 -93 -248 -163 -372 -197 -351 -17
10 -13 42 23 170 18 66 37 145 40 175 4 30 9 67 12 81 4 19 -4 34 -30 61 -22
23 -40 55 -50 89 -56 206 -71 253 -101 328 -141 346 -496 695 -774 761 -201
47 -497 -84 -741 -329 -111 -111 -151 -174 -204 -314 -16 -43 -42 -87 -70
-118 -81 -90 -125 -217 -147 -419 -22 -197 12 -376 115 -620 40 -94 55 -142
59 -195 9 -94 51 -178 134 -266 112 -119 274 -209 403 -224 30 -4 85 -16 122
-28 72 -22 130 -16 136 15 4 20 -23 47 -54 53 -13 3 -35 7 -47 10 -13 2 -28
14 -33 26 -6 13 -41 34 -99 58 -106 45 -192 94 -266 153 -110 86 -213 206
-202 234 12 31 70 16 147 -38 42 -29 140 -98 218 -152 79 -55 163 -118 188
-141 29 -27 62 -47 91 -55 26 -6 72 -29 104 -51 31 -21 73 -42 93 -46 21 -5
109 -8 197 -7 245 2 444 51 453 112 4 28 -38 68 -87 83 -20 6 -137 15 -261 19
-177 6 -240 12 -295 27 -147 42 -251 97 -440 233 -66 47 -162 115 -213 149
-159 109 -244 227 -294 409 -40 145 -26 461 26 585 16 38 37 42 52 9 4 -9 8
-107 9 -217 2 -168 6 -213 23 -278 49 -180 133 -282 328 -396 74 -44 137 -91
194 -147 144 -138 251 -178 470 -178 144 0 208 12 400 72 52 17 129 37 171 46
153 30 234 74 273 146 14 25 49 75 78 112 110 137 199 318 238 480 25 103 26
267 4 376 -56 275 -211 584 -411 818 -135 158 -297 334 -308 334 -6 0 -16 -5
-23 -12z m-526 -553 c261 -50 542 -314 674 -635 17 -41 49 -138 71 -215 52
-181 57 -263 30 -452 -23 -159 -45 -219 -87 -229 -45 -11 -50 6 -30 108 27
135 32 342 12 450 -80 427 -358 759 -682 815 -181 31 -356 -28 -495 -166 -121
-121 -168 -259 -155 -456 7 -124 33 -233 86 -363 22 -55 37 -107 34 -116 -10
-27 -52 -18 -94 20 -45 41 -92 131 -115 219 -40 156 -44 461 -7 568 71 211
294 399 537 452 80 18 128 18 221 0z m-4 -339 c202 -36 399 -218 489 -451 59
-151 72 -243 66 -478 -5 -222 -10 -247 -54 -233 -39 13 -46 51 -54 286 -8 257
-15 296 -85 439 -126 257 -385 374 -602 271 -109 -51 -191 -158 -208 -267 -7
-50 -23 -55 -54 -15 -52 66 0 232 105 331 80 76 181 118 310 129 6 1 45 -5 87
-12z m43 -307 c113 -42 215 -173 250 -320 31 -134 12 -339 -42 -462 -56 -124
-174 -184 -346 -175 -101 6 -164 23 -181 51 -17 29 30 62 113 81 112 26 176
54 228 101 119 106 157 309 88 463 -82 182 -283 223 -397 81 -44 -54 -53 -109
-29 -165 34 -75 112 -94 167 -39 33 33 31 73 -3 101 -26 21 -27 24 -11 40 25
25 73 22 104 -7 76 -70 71 -186 -13 -279 -91 -101 -249 -115 -330 -28 -83 88
-138 378 -72 378 11 0 55 34 100 75 110 104 150 123 256 124 40 1 82 -6 118
-20z"/>
<path d="M3875 6359 c-69 -28 -223 -131 -330 -221 -105 -87 -283 -269 -342
-348 -104 -139 -194 -386 -239 -655 -9 -55 -22 -115 -30 -133 -12 -31 -12 -32
6 -22 27 14 44 50 91 188 48 140 131 316 189 403 129 191 331 389 629 614 155
116 179 142 161 174 -14 27 -67 27 -135 0z"/>
<path d="M4302 6349 c-74 -14 -144 -54 -222 -126 -41 -38 -124 -108 -183 -157
-137 -112 -424 -373 -501 -457 -111 -120 -184 -252 -276 -504 -83 -224 -99
-329 -81 -530 28 -315 119 -655 246 -922 99 -207 206 -363 354 -517 101 -103
163 -153 286 -226 50 -30 119 -75 155 -101 80 -58 142 -89 243 -122 171 -58
505 -113 622 -103 136 11 456 106 611 181 105 51 167 109 162 153 -5 44 -51
40 -245 -22 -388 -124 -600 -147 -918 -100 -263 39 -407 98 -365 149 17 20 83
18 340 -10 111 -12 201 -15 315 -12 178 6 262 19 510 80 152 37 184 42 295 42
143 1 142 1 285 100 129 88 236 150 434 250 196 100 236 132 384 305 49 58
106 115 126 127 36 23 36 23 -5 23 -46 0 -72 -15 -248 -144 -144 -105 -236
-150 -336 -166 -65 -9 -99 -24 -260 -110 -235 -126 -314 -156 -590 -224 -333
-82 -431 -98 -665 -104 -240 -5 -646 13 -729 34 -241 61 -512 314 -666 619
-108 215 -190 506 -213 753 -14 157 -1 282 48 452 108 376 267 620 404 620 25
0 44 17 127 111 161 183 362 351 544 454 148 84 180 107 196 137 19 37 8 52
-51 67 -49 12 -71 12 -133 0z"/>
<path d="M7019 4483 c-44 -60 -54 -74 -107 -155 -65 -101 -175 -212 -388 -394
-204 -174 -250 -220 -260 -260 -17 -65 51 -56 167 24 157 108 314 229 361 280
58 62 110 143 153 236 35 78 118 307 112 312 -2 2 -19 -17 -38 -43z"/>
<path d="M6670 3430 c-52 -33 -158 -96 -235 -141 -345 -200 -397 -237 -429
-304 -13 -26 -14 -40 -6 -55 14 -27 41 -21 155 36 150 74 334 222 509 409 59
63 106 115 104 115 -2 -1 -46 -28 -98 -60z"/>
<path d="M6320 2908 c-156 -60 -198 -70 -255 -63 -93 12 -98 11 -229 -74 -165
-107 -292 -167 -496 -234 -181 -59 -213 -74 -280 -125 -43 -32 -48 -34 -105
-29 -33 3 -94 19 -135 35 -41 16 -149 46 -240 66 -206 47 -266 64 -464 138
-88 32 -192 65 -232 73 -40 8 -86 21 -103 30 -50 25 -36 10 32 -33 74 -48 318
-166 472 -227 61 -24 193 -65 295 -90 102 -26 195 -53 207 -61 18 -11 22 -22
19 -53 -2 -21 -7 -44 -11 -52 -5 -7 7 -3 27 9 43 27 109 29 252 7 55 -8 118
-15 140 -14 45 1 41 4 -16 14 -46 7 -98 49 -98 79 0 32 40 50 160 76 236 50
373 107 800 334 123 65 370 221 370 232 0 2 -1 4 -2 3 -2 -1 -50 -19 -108 -41z"/>
<path d="M5328 2213 c7 -3 16 -2 19 1 4 3 -2 6 -13 5 -11 0 -14 -3 -6 -6z"/>
</g>
</svg>
