<?xml version="1.0" standalone="no"?>
<!DOCTYPE svg PUBLIC "-//W3C//DTD SVG 20010904//EN"
 "http://www.w3.org/TR/2001/REC-SVG-20010904/DTD/svg10.dtd">
<svg version="1.0" xmlns="http://www.w3.org/2000/svg"
 width="1000.000000pt" height="1000.000000pt" viewBox="0 0 1000.000000 1000.000000"
 preserveAspectRatio="xMidYMid meet">
<metadata>
  <rdf:RDF
    xmlns:rdf = "http://www.w3.org/1999/02/22-rdf-syntax-ns#"
    xmlns:rdfs = "http://www.w3.org/2000/01/rdf-schema#"
    xmlns:dc = "http://purl.org/dc/elements/1.1/"
    xmlns:cc = "http://creativecommons.org/ns#">
    <cc:license rdf:resource="http://creativecommons.org/publicdomain/zero/1.0/deed.en"/>
    <cc:permits rdf:resource="http://creativecommons.org/ns#Reproduction"/>
    <rdf:Description about="https://nft.mir.one/fingerprints"
      dc:title="TON Fingerprints"
      dc:description="This is a unique digital fingerprint created based on the algorithm for generating basic rings using a noise texture. Like human fingerprints, you can now use it for the Web3 and Metaverse era as digital biometric information."
      dc:publisher="https://nft.mir.one"
      dc:date="2022-02-22"
      dc:format="image/svg+xml"
      dc:language="en" >
      <dc:creator>
      <rdf:Bag>
        <rdf:li>EQBondcvD2_aOFADXSWJHs4ZazQDuEl9_wNvGGPxI8hGuOFU</rdf:li>
        <rdf:li>ipfs://bafkreihj7iub3fhmhq6jn62noukt5wxn3gv6bvcg7wmt6ywvlurefezckq</rdf:li>
      </rdf:Bag>
      </dc:creator>
    </rdf:Description>
  </rdf:RDF>
</metadata>
<g transform="translate(0.000000,1000.000000) scale(0.100000,-0.100000)"
fill="#1b1f23" stroke="none">
<path d="M4848 7743 c66 -68 92 -109 92 -145 0 -34 -10 -26 380 -288 374 -251
472 -330 700 -560 200 -202 262 -256 352 -301 105 -53 121 -40 119 98 -3 161
-36 215 -345 556 -145 160 -350 329 -536 441 -165 100 -341 174 -369 157 -17
-11 25 -45 194 -159 247 -167 378 -274 580 -477 193 -193 305 -318 369 -414
42 -63 45 -81 12 -81 -33 0 -80 42 -273 246 -233 246 -362 357 -667 575 -100
71 -216 160 -259 198 -88 78 -172 126 -310 175 -94 34 -94 34 -39 -21z"/>
<path d="M4385 7645 c67 -35 335 -114 410 -121 40 -3 68 -1 85 8 96 51 -112
120 -400 133 -145 6 -145 6 -95 -20z"/>
<path d="M5880 7556 c0 -2 8 -10 18 -17 15 -13 16 -12 3 4 -13 16 -21 21 -21
13z"/>
<path d="M6020 7420 c53 -58 147 -168 209 -245 63 -77 158 -185 211 -240 54
-55 107 -119 119 -142 27 -55 56 -161 80 -303 25 -141 35 -171 149 -435 49
-115 111 -268 136 -340 26 -71 58 -157 73 -190 14 -33 38 -98 54 -145 36 -109
36 -93 -1 81 -60 285 -134 521 -289 924 -107 278 -174 423 -222 482 -64 78
-328 381 -389 447 -34 36 -99 98 -143 138 -82 73 -82 73 13 -32z"/>
<path d="M4100 7469 c-25 -4 -65 -8 -89 -8 -44 -1 -44 -1 5 -27 45 -24 300
-91 694 -184 169 -40 286 -83 465 -170 246 -120 489 -278 621 -403 56 -52 78
-82 99 -132 26 -60 37 -73 166 -181 203 -169 234 -208 302 -369 14 -33 64
-130 112 -215 173 -309 248 -496 309 -765 26 -118 47 -182 77 -243 41 -83 41
-83 36 -350 -3 -154 -12 -323 -21 -400 -9 -72 -16 -165 -14 -205 3 -72 3 -72
45 133 51 246 57 282 88 558 23 201 44 295 100 467 4 11 -17 -22 -47 -74 -60
-107 -81 -126 -104 -97 -10 15 -14 52 -14 150 0 165 -20 299 -66 446 -91 292
-298 731 -393 834 -14 15 -73 60 -131 98 -144 97 -243 182 -346 299 -160 183
-340 331 -589 485 -308 191 -427 245 -620 284 -60 12 -163 35 -227 51 -105 26
-132 29 -265 28 -81 -1 -168 -5 -193 -10z"/>
<path d="M3885 7245 c-38 -7 -96 -19 -127 -27 -57 -13 -57 -13 -15 -35 23 -13
98 -40 167 -61 69 -22 193 -61 275 -87 142 -45 158 -48 305 -56 168 -8 222
-20 425 -89 256 -89 484 -191 669 -300 103 -61 205 -110 227 -110 9 0 22 6 28
14 25 30 -100 136 -314 267 -322 198 -626 317 -985 389 -113 22 -264 56 -336
75 -143 38 -203 42 -319 20z"/>
<path d="M3635 6984 c-27 -8 -73 -20 -102 -26 -52 -12 -52 -12 -15 -34 20 -12
107 -49 192 -83 375 -147 655 -319 990 -609 58 -50 132 -106 165 -123 111 -59
170 -104 289 -219 240 -233 441 -512 491 -683 12 -42 14 -61 5 -77 -6 -11 -14
-20 -18 -20 -17 0 -62 59 -133 170 -219 345 -461 630 -596 702 -40 22 -43 22
-60 5 -17 -16 -17 -19 0 -50 10 -17 60 -78 112 -135 124 -136 139 -156 234
-306 113 -179 239 -346 336 -446 97 -101 114 -131 193 -358 79 -225 122 -283
160 -212 17 33 9 110 -34 334 -20 98 -42 231 -50 295 -23 190 -64 291 -192
471 -85 121 -375 413 -577 582 -85 71 -181 163 -222 211 -56 66 -103 108 -205
180 -73 52 -173 129 -223 172 -103 88 -228 154 -437 229 -141 51 -208 58 -303
30z"/>
<path d="M4493 6859 c-35 -36 -1 -79 115 -148 116 -70 219 -110 323 -127 112
-18 394 -98 477 -135 83 -37 318 -169 410 -230 39 -27 128 -92 197 -144 102
-77 132 -95 159 -95 78 0 52 73 -67 187 -111 106 -199 167 -316 219 -54 23
-168 79 -252 122 -189 98 -264 128 -638 254 -300 101 -385 121 -408 97z"/>
<path d="M3465 6725 c-33 -8 -75 -18 -93 -21 -18 -4 -31 -12 -29 -18 2 -5 35
-27 73 -48 110 -59 163 -137 89 -130 -93 8 -133 3 -196 -22 -36 -14 -71 -26
-77 -26 -19 0 -14 -15 14 -41 23 -22 34 -24 113 -24 79 0 93 3 153 34 57 29
72 32 110 26 67 -11 206 -63 283 -105 101 -55 436 -268 527 -335 89 -66 613
-599 603 -615 -11 -18 -49 -11 -100 19 -27 16 -135 104 -240 195 -104 92 -230
196 -280 231 -100 72 -269 160 -390 204 -76 27 -81 31 -105 76 -27 54 -80 93
-164 122 -69 24 -243 24 -347 0 -94 -22 -136 -49 -267 -172 -120 -112 -116
-116 63 -60 238 74 361 92 550 80 124 -8 158 -20 139 -52 -21 -37 -77 -52
-262 -73 -162 -18 -356 -58 -435 -89 -16 -6 -77 -58 -135 -116 -119 -116 -121
-113 33 -65 248 79 691 143 860 125 208 -22 391 -115 719 -363 78 -59 189
-140 247 -180 158 -107 320 -288 429 -477 96 -169 203 -449 234 -614 20 -106
21 -302 1 -416 -14 -80 -29 -128 -129 -410 -23 -67 -38 -132 -45 -196 -7 -68
-17 -111 -34 -145 -125 -247 -501 -524 -852 -629 -220 -66 -219 -64 -35 -64
347 -1 526 62 845 300 95 71 124 95 367 310 84 75 163 141 176 148 35 19 52 7
52 -36 -1 -81 -80 -204 -229 -354 -120 -121 -190 -170 -456 -314 -196 -107
-342 -202 -290 -189 159 39 612 205 697 255 171 100 344 273 415 413 14 28 43
119 64 203 41 163 89 280 156 379 62 91 93 159 119 260 52 205 68 449 40 595
-8 41 -17 153 -20 249 -7 191 -23 320 -61 478 -28 117 -74 232 -93 232 -7 0
-21 -15 -33 -32 -18 -29 -20 -45 -16 -128 3 -52 13 -171 23 -264 14 -141 16
-187 7 -269 -13 -109 -45 -191 -90 -227 -33 -26 -41 -25 -54 4 -8 17 -7 49 5
123 9 55 16 145 16 199 0 117 -34 493 -56 613 -22 125 -97 272 -196 391 -66
78 -259 266 -348 340 -52 43 -146 120 -209 171 -96 78 -120 104 -146 154 -28
56 -36 63 -107 99 -84 43 -143 52 -162 24 -8 -14 -7 -24 4 -42 15 -25 177
-176 430 -402 262 -234 409 -406 495 -579 57 -114 78 -198 116 -460 39 -261
43 -427 15 -529 -18 -61 -18 -77 -8 -150 16 -106 15 -194 -2 -396 -8 -91 -18
-221 -21 -290 -12 -208 -40 -277 -152 -380 -115 -105 -188 -145 -219 -119 -21
18 -12 49 47 145 111 185 147 292 174 516 33 292 17 435 -73 626 -33 70 -84
185 -112 255 -29 71 -74 164 -100 207 -47 78 -196 273 -325 424 -74 88 -81
101 -90 167 -7 57 -42 113 -137 219 -134 151 -159 184 -198 261 -27 52 -60 98
-107 144 -82 81 -286 236 -448 340 -136 88 -586 314 -637 320 -18 2 -60 -2
-93 -10z m2862 -2462 c11 -28 -46 -372 -88 -537 -35 -136 -78 -196 -113 -157
-22 24 -21 113 4 278 36 245 63 331 120 397 34 38 67 47 77 19z"/>
<path d="M5225 6396 c-19 -14 -19 -14 -1 -35 11 -12 90 -71 176 -130 328 -229
618 -487 727 -647 44 -65 110 -192 138 -266 14 -39 22 -48 42 -48 88 0 157
-119 212 -367 76 -338 93 -839 40 -1178 -17 -114 -54 -231 -132 -421 -109
-263 -158 -401 -168 -474 -5 -36 -12 -74 -15 -85 -12 -41 250 415 321 560 120
244 140 319 176 640 17 151 18 600 1 690 -25 134 -111 463 -141 541 -17 44
-61 133 -97 199 -168 303 -253 412 -374 484 -39 23 -152 104 -253 179 -203
153 -372 264 -492 322 -97 47 -134 56 -160 36z"/>
<path d="M3176 6309 c-16 -16 -25 -29 -19 -29 17 0 56 36 52 48 -2 6 -17 -3
-33 -19z"/>
<path d="M3540 5664 c-162 -22 -391 -64 -414 -76 -43 -23 -84 -60 -151 -135
-38 -43 -60 -70 -50 -61 32 27 185 80 237 81 33 2 54 -4 74 -19 28 -21 28 -21
122 3 288 73 552 71 784 -7 319 -107 736 -413 901 -661 71 -107 102 -178 134
-299 13 -52 37 -147 53 -210 59 -231 60 -407 2 -520 -35 -69 -79 -100 -141
-100 -93 0 -132 48 -205 246 -23 66 -56 146 -71 178 -49 103 -145 236 -249
344 -209 217 -415 335 -655 377 -251 44 -513 -23 -739 -189 -48 -36 -68 -59
-93 -108 -29 -58 -86 -255 -76 -265 3 -2 39 39 82 91 295 368 768 445 1157
190 95 -62 261 -228 328 -328 129 -193 252 -556 235 -694 -7 -58 -54 -157
-107 -225 -148 -191 -292 -309 -546 -449 -105 -58 -202 -139 -202 -169 0 -11
-11 -31 -25 -44 -24 -25 -24 -25 1 -25 14 0 43 -9 65 -21 80 -40 183 -59 326
-59 153 0 194 10 347 87 249 125 443 308 501 474 9 24 20 88 26 143 14 122 31
168 116 309 113 188 151 335 140 536 -14 226 -124 562 -249 756 -112 175 -216
281 -427 439 -353 262 -562 373 -778 411 -106 18 -311 18 -453 -1z m1477
-2435 c17 -17 -7 -85 -51 -152 -49 -74 -203 -219 -301 -285 -175 -117 -398
-201 -550 -209 -105 -5 -122 2 -108 43 8 25 18 31 64 41 214 50 422 158 609
318 45 38 102 94 127 123 92 107 176 155 210 121z"/>
<path d="M3175 5405 c-27 -8 -53 -14 -56 -15 -10 0 -99 -69 -155 -119 -49 -44
-49 -44 6 -39 38 3 85 18 151 50 95 45 139 83 139 119 0 22 -16 23 -85 4z"/>
<path d="M3630 5370 c-140 -17 -201 -39 -390 -138 -182 -95 -186 -98 -235
-164 -27 -37 -60 -85 -72 -107 -23 -40 -23 -40 10 -29 17 6 66 30 107 54 115
66 328 161 422 188 417 121 879 -26 1254 -399 67 -66 151 -160 188 -209 77
-104 100 -124 121 -106 25 21 17 81 -19 155 -91 189 -297 389 -569 553 -275
166 -549 234 -817 202z"/>
<path d="M7081 5264 c0 -11 3 -14 6 -6 3 7 2 16 -1 19 -3 4 -6 -2 -5 -13z"/>
<path d="M3615 5079 c-33 -5 -100 -20 -150 -34 -100 -29 -333 -137 -381 -178
-33 -28 -85 -120 -127 -224 -25 -62 -25 -62 1 -46 15 10 52 39 83 65 132 112
299 198 478 246 83 22 117 25 246 25 130 0 163 -3 248 -26 253 -68 451 -200
707 -474 174 -186 231 -288 290 -522 40 -160 53 -191 80 -191 39 0 55 59 54
195 -2 139 -29 262 -87 388 -34 72 -39 78 -92 103 -43 21 -83 55 -171 148
-142 150 -233 231 -348 309 -265 179 -559 255 -831 216z"/>
<path d="M3607 4544 c-123 -29 -247 -100 -375 -213 -113 -100 -162 -239 -146
-421 6 -71 9 -79 15 -50 12 60 94 212 148 275 100 117 296 254 404 282 256 66
572 -122 707 -421 48 -105 64 -180 63 -301 0 -128 -19 -197 -86 -310 -100
-170 -374 -371 -587 -431 -30 -9 -76 -26 -101 -38 -45 -22 -45 -22 40 -50 100
-33 185 -43 233 -27 50 16 282 164 379 241 135 106 243 246 291 376 31 82 31
263 0 376 -98 360 -367 642 -679 712 -87 19 -227 20 -306 0z"/>
<path d="M3648 4314 c-41 -17 -55 -41 -36 -61 7 -7 51 -19 97 -27 168 -30 290
-119 358 -262 32 -67 38 -90 41 -167 6 -110 -15 -194 -67 -275 -76 -116 -205
-200 -324 -209 -75 -6 -144 14 -292 87 -55 26 -111 51 -124 55 -13 4 -42 23
-64 44 -41 36 -41 36 8 -29 135 -175 308 -323 408 -348 116 -30 368 98 495
251 52 62 106 172 121 245 60 288 -116 593 -398 689 -77 26 -169 29 -223 7z"/>
<path d="M3480 4152 c-19 -9 -53 -35 -76 -57 -136 -136 -122 -360 29 -436 80
-42 197 1 261 95 28 41 35 101 16 136 -23 42 -80 48 -80 9 0 -27 -41 -44 -69
-30 -46 25 -34 109 20 136 67 35 175 2 217 -67 75 -123 38 -252 -107 -371 -51
-42 -71 -65 -71 -81 0 -84 164 -54 258 48 68 74 95 138 100 236 5 108 -20 181
-87 253 -59 63 -106 90 -215 121 -103 30 -148 32 -196 8z"/>
</g>
</svg>
