<?xml version="1.0" standalone="no"?>
<!DOCTYPE svg PUBLIC "-//W3C//DTD SVG 20010904//EN"
 "http://www.w3.org/TR/2001/REC-SVG-20010904/DTD/svg10.dtd">
<svg version="1.0" xmlns="http://www.w3.org/2000/svg"
 width="1000.000000pt" height="1000.000000pt" viewBox="0 0 1000.000000 1000.000000"
 preserveAspectRatio="xMidYMid meet">
<metadata>
  <rdf:RDF
    xmlns:rdf = "http://www.w3.org/1999/02/22-rdf-syntax-ns#"
    xmlns:rdfs = "http://www.w3.org/2000/01/rdf-schema#"
    xmlns:dc = "http://purl.org/dc/elements/1.1/"
    xmlns:cc = "http://creativecommons.org/ns#">
    <cc:license rdf:resource="http://creativecommons.org/publicdomain/zero/1.0/deed.en"/>
    <cc:permits rdf:resource="http://creativecommons.org/ns#Reproduction"/>
    <rdf:Description about="https://nft.mir.one/fingerprints"
      dc:title="TON Fingerprints"
      dc:description="This is a unique digital fingerprint created based on the algorithm for generating basic rings using a noise texture. Like human fingerprints, you can now use it for the Web3 and Metaverse era as digital biometric information."
      dc:publisher="https://nft.mir.one"
      dc:date="2022-02-22"
      dc:format="image/svg+xml"
      dc:language="en" >
      <dc:creator>
      <rdf:Bag>
        <rdf:li>EQBondcvD2_aOFADXSWJHs4ZazQDuEl9_wNvGGPxI8hGuOFU</rdf:li>
        <rdf:li>ipfs://bafkreihj7iub3fhmhq6jn62noukt5wxn3gv6bvcg7wmt6ywvlurefezckq</rdf:li>
      </rdf:Bag>
      </dc:creator>
    </rdf:Description>
  </rdf:RDF>
</metadata>
<g transform="translate(0.000000,1000.000000) scale(0.100000,-0.100000)"
fill="#1b1f23" stroke="none">
<path d="M4938 7639 c-49 -19 -30 -67 40 -103 16 -8 109 -42 207 -76 219 -75
237 -84 327 -166 135 -122 273 -208 398 -249 128 -41 233 -107 415 -260 66
-55 181 -152 257 -215 75 -63 162 -130 195 -148 58 -33 58 -33 12 15 -25 26
-85 95 -135 153 -132 156 -355 375 -470 461 -71 54 -163 108 -311 182 -115 59
-223 119 -238 133 -29 27 -29 27 -5 46 20 16 33 18 69 13 154 -23 400 -155
681 -367 105 -78 105 -78 0 23 -254 245 -481 391 -680 438 -134 31 -449 99
-511 110 -93 16 -222 21 -251 10z"/>
<path d="M4415 7585 c-146 -27 -318 -99 -447 -186 -61 -42 -358 -286 -358
-295 0 -2 17 7 38 20 21 13 72 41 113 61 40 20 106 63 144 95 104 85 160 118
260 149 119 38 261 55 392 47 113 -6 143 -16 143 -46 0 -44 -57 -63 -255 -85
-195 -22 -328 -61 -387 -113 -21 -17 -23 -53 -6 -70 16 -16 100 -15 223 3 408
59 871 -47 1209 -278 98 -68 488 -434 601 -567 188 -219 324 -485 420 -823 99
-349 132 -776 76 -1002 -59 -240 -192 -493 -374 -712 -123 -147 -250 -243
-444 -335 -242 -114 -475 -167 -532 -121 -37 30 -21 48 71 78 529 175 819 407
1027 823 98 195 141 385 141 622 0 169 -11 278 -45 445 -77 383 -212 688 -411
926 -167 200 -531 507 -709 597 -125 62 -297 106 -489 122 -119 10 -119 10
-161 49 -59 54 -115 66 -279 57 -72 -4 -205 -11 -296 -15 -136 -6 -175 -11
-223 -30 -90 -36 -201 -115 -312 -225 -130 -130 -210 -231 -346 -439 -107
-165 -108 -168 -63 -130 25 21 103 92 173 157 202 191 346 299 509 381 157 79
280 110 631 160 165 23 186 24 200 10 13 -13 13 -18 -5 -42 -32 -43 -97 -69
-305 -122 -224 -57 -309 -86 -434 -149 -170 -85 -335 -208 -543 -407 -159
-151 -285 -352 -357 -568 -35 -105 -70 -260 -80 -357 -5 -47 -2 -42 20 40 31
119 87 267 131 346 51 93 114 156 222 222 70 43 138 99 246 201 316 302 492
402 899 516 268 74 383 95 531 95 198 0 312 -40 444 -155 35 -30 107 -83 160
-119 220 -145 404 -350 515 -572 72 -143 155 -426 193 -659 27 -164 25 -425
-5 -565 -71 -330 -269 -631 -546 -828 -49 -35 -184 -111 -300 -169 -115 -58
-235 -125 -266 -149 -66 -50 -85 -59 -155 -69 -93 -12 -239 11 -624 99 -278
64 -423 159 -537 355 -31 53 -81 137 -110 186 -155 258 -223 479 -223 726 0
162 18 242 102 449 39 96 95 247 125 335 34 102 71 188 101 239 54 89 160 202
254 269 130 93 319 172 469 197 216 35 417 -28 585 -184 44 -40 131 -112 194
-161 63 -49 185 -157 270 -241 85 -83 175 -165 199 -183 71 -50 114 -129 152
-283 26 -108 36 -316 19 -429 -53 -367 -286 -667 -665 -857 -252 -127 -440
-161 -627 -113 -104 27 -173 64 -383 204 -290 194 -391 311 -469 547 -42 127
-60 255 -53 372 7 104 27 154 57 138 24 -13 34 -52 55 -205 29 -214 106 -402
220 -535 140 -162 411 -338 582 -376 100 -22 244 -16 333 15 103 36 305 136
394 195 348 234 505 655 386 1038 -35 112 -85 183 -235 334 -93 93 -170 160
-228 198 -90 60 -199 105 -252 106 -62 0 -353 -41 -424 -61 -144 -39 -285
-129 -381 -244 -54 -65 -126 -214 -141 -293 -17 -89 -6 -296 20 -397 89 -340
351 -583 697 -649 125 -23 139 -35 89 -74 -79 -62 -304 -16 -477 97 -275 180
-397 384 -463 776 -32 188 -29 256 14 381 75 218 219 383 416 479 131 64 193
77 391 84 177 7 204 13 204 50 0 21 -33 53 -77 75 -96 48 -289 60 -433 26
-104 -25 -262 -101 -351 -168 -163 -124 -255 -270 -359 -567 -30 -86 -70 -180
-95 -220 -71 -116 -80 -155 -80 -345 0 -144 3 -176 24 -250 73 -258 212 -473
337 -519 164 -62 367 -203 425 -297 13 -22 42 -44 82 -64 97 -47 191 -64 357
-64 145 -1 145 -1 245 38 141 55 375 173 480 244 275 185 448 430 532 752 34
131 42 350 19 508 -16 108 -88 427 -122 542 -64 214 -297 503 -488 604 -61 32
-121 35 -136 6 -16 -30 8 -67 86 -130 229 -185 421 -439 412 -546 -5 -69 -28
-56 -124 73 -62 84 -151 181 -308 336 -215 214 -222 219 -327 273 -102 52
-139 82 -190 156 -16 23 -20 23 -185 23 -149 -1 -182 -4 -276 -28 -264 -66
-473 -170 -652 -325 -102 -89 -209 -218 -238 -289 -6 -15 -12 -80 -13 -143 -2
-138 -18 -192 -110 -390 -112 -240 -141 -366 -132 -590 12 -301 105 -567 298
-860 211 -319 443 -454 1074 -625 94 -25 218 -61 276 -80 182 -59 188 -59 261
-25 35 16 106 38 158 50 140 30 207 51 380 117 85 33 176 68 201 77 71 26 129
68 215 159 267 278 525 746 566 1025 10 66 8 109 -11 287 -54 508 -114 740
-297 1147 -108 241 -174 330 -450 603 -127 127 -206 213 -236 260 -53 84 -107
134 -256 238 -142 100 -272 167 -491 253 -208 81 -257 111 -288 175 -17 37
-30 50 -65 64 -58 23 -176 28 -273 10z m777 -1968 c37 -13 94 -40 125 -58 74
-44 228 -198 272 -272 187 -318 89 -726 -224 -936 -142 -94 -248 -112 -375
-61 -41 16 -118 46 -170 66 -166 64 -278 143 -360 252 -229 307 -196 690 78
892 182 135 467 186 654 117z"/>
<path d="M4910 5485 c-55 -10 -110 -31 -207 -80 -146 -73 -188 -110 -232 -204
-37 -79 -42 -230 -12 -329 48 -158 164 -290 323 -366 251 -120 451 -98 606 69
108 115 161 261 149 414 -19 238 -201 447 -435 497 -80 16 -94 16 -192 -1z
m258 -214 c66 -34 128 -96 159 -160 25 -49 28 -68 28 -151 0 -81 -4 -103 -26
-150 -50 -107 -121 -166 -237 -195 -51 -13 -76 -14 -128 -6 -252 39 -426 278
-373 511 13 59 54 120 79 120 24 0 23 4 24 -140 1 -101 4 -122 27 -170 49
-106 134 -172 239 -186 90 -12 191 39 231 118 27 52 30 139 7 183 -51 96 -161
130 -222 69 -33 -34 -41 -70 -21 -100 12 -19 21 -23 40 -18 27 7 55 -10 55
-33 0 -8 -11 -25 -25 -38 -49 -50 -136 -22 -174 57 -52 108 -7 253 93 299 55
27 163 21 224 -10z"/>
<path d="M5886 6925 c-9 -9 -16 -20 -16 -24 0 -21 70 -94 227 -235 180 -163
314 -306 378 -402 21 -31 52 -97 70 -148 18 -50 60 -152 93 -227 138 -312 210
-595 242 -952 12 -140 26 -194 52 -211 38 -23 43 3 43 222 0 234 -20 392 -80
627 -40 162 -85 274 -169 430 -70 128 -82 175 -44 175 57 0 259 -288 324 -462
35 -96 28 -53 -11 69 -44 132 -128 310 -181 379 -41 55 -383 383 -548 528
-218 190 -344 267 -380 231z"/>
<path d="M5055 6543 c-26 -7 -55 -32 -55 -49 0 -18 57 -46 158 -78 119 -37
172 -32 172 18 0 64 -176 133 -275 109z"/>
<path d="M3246 5716 c-79 -78 -127 -197 -140 -346 -4 -41 -15 -129 -24 -195
-24 -168 -23 -569 1 -710 77 -444 242 -785 500 -1032 113 -108 167 -142 327
-206 74 -30 203 -88 285 -129 83 -42 202 -96 266 -121 109 -43 505 -167 534
-167 7 0 23 -9 36 -19 24 -20 24 -20 1 -43 -21 -21 -31 -23 -125 -22 -82 0
-124 6 -218 32 -220 60 -346 114 -582 250 -87 50 -178 98 -202 108 -76 29
-118 1 -80 -53 21 -30 311 -256 383 -298 134 -80 387 -161 652 -209 328 -59
525 -70 665 -37 163 39 340 114 572 242 117 65 341 209 386 249 10 9 -154 -44
-181 -59 -36 -19 -109 -29 -154 -21 -38 7 -52 3 -163 -51 -236 -115 -437 -161
-622 -141 -143 16 -232 47 -258 91 -37 62 -95 118 -154 150 -32 17 -159 64
-282 105 -123 41 -276 95 -339 121 -166 67 -407 186 -479 235 -290 196 -541
619 -617 1036 -23 124 -25 413 -5 524 24 137 58 225 111 294 59 77 102 159
136 257 39 117 28 198 -25 170 -20 -11 -36 -42 -110 -211 -50 -115 -72 -146
-96 -136 -33 12 -15 100 44 223 56 117 62 156 24 161 -15 2 -36 -10 -67 -42z"/>
<path d="M2912 5190 c0 -14 2 -19 5 -12 2 6 2 18 0 25 -3 6 -5 1 -5 -13z"/>
<path d="M7051 4660 c-13 -11 -29 -20 -36 -20 -15 0 -30 -35 -91 -205 -121
-339 -373 -762 -661 -1108 -127 -153 -201 -337 -135 -337 64 0 288 203 352
318 19 34 75 131 124 215 211 361 311 591 400 915 31 112 61 212 66 223 13 24
11 23 -19 -1z"/>
<path d="M3983 3923 c-22 -8 -14 -48 16 -90 43 -59 107 -110 196 -154 64 -32
88 -39 124 -37 35 2 47 7 49 21 6 28 -19 49 -172 151 -182 121 -184 121 -213
109z"/>
<path d="M3161 3680 c143 -296 473 -709 704 -883 44 -33 93 -73 110 -90 29
-29 29 -29 6 -48 -15 -12 -40 -19 -70 -20 -46 -1 -46 -1 34 -29 44 -15 136
-53 205 -85 171 -79 382 -147 590 -190 96 -20 202 -48 235 -63 58 -25 68 -26
275 -29 215 -2 215 -2 110 26 -58 16 -125 32 -150 36 -57 8 -92 19 -206 61
-50 18 -198 60 -330 92 -238 59 -418 119 -566 186 -64 29 -78 40 -84 63 -11
53 -14 59 -42 88 -15 17 -68 64 -117 106 -71 60 -98 90 -128 145 -30 55 -68
98 -182 207 -144 137 -303 320 -408 467 -9 14 -3 -4 14 -40z"/>
<path d="M6682 3374 c-34 -42 -62 -81 -62 -88 0 -6 11 3 25 19 34 42 107 145
102 145 -2 0 -31 -34 -65 -76z"/>
<path d="M5838 3169 c-148 -70 -275 -105 -430 -119 -59 -5 -117 -14 -128 -20
-49 -26 2 -97 87 -121 27 -8 85 -13 133 -12 220 5 461 123 520 255 22 51 13
78 -28 78 -15 0 -84 -27 -154 -61z"/>
<path d="M5761 2399 c-34 -13 -93 -50 -88 -55 2 -2 32 12 68 31 62 33 71 44
20 24z"/>
</g>
</svg>
