<?xml version="1.0" standalone="no"?>
<!DOCTYPE svg PUBLIC "-//W3C//DTD SVG 20010904//EN"
 "http://www.w3.org/TR/2001/REC-SVG-20010904/DTD/svg10.dtd">
<svg version="1.0" xmlns="http://www.w3.org/2000/svg"
 width="1000.000000pt" height="1000.000000pt" viewBox="0 0 1000.000000 1000.000000"
 preserveAspectRatio="xMidYMid meet">
<metadata>
  <rdf:RDF
    xmlns:rdf = "http://www.w3.org/1999/02/22-rdf-syntax-ns#"
    xmlns:rdfs = "http://www.w3.org/2000/01/rdf-schema#"
    xmlns:dc = "http://purl.org/dc/elements/1.1/"
    xmlns:cc = "http://creativecommons.org/ns#">
    <cc:license rdf:resource="http://creativecommons.org/publicdomain/zero/1.0/deed.en"/>
    <cc:permits rdf:resource="http://creativecommons.org/ns#Reproduction"/>
    <rdf:Description about="https://nft.mir.one/fingerprints"
      dc:title="TON Fingerprints"
      dc:description="This is a unique digital fingerprint created based on the algorithm for generating basic rings using a noise texture. Like human fingerprints, you can now use it for the Web3 and Metaverse era as digital biometric information."
      dc:publisher="https://nft.mir.one"
      dc:date="2022-02-22"
      dc:format="image/svg+xml"
      dc:language="en" >
      <dc:creator>
      <rdf:Bag>
        <rdf:li>EQBondcvD2_aOFADXSWJHs4ZazQDuEl9_wNvGGPxI8hGuOFU</rdf:li>
        <rdf:li>ipfs://bafkreihj7iub3fhmhq6jn62noukt5wxn3gv6bvcg7wmt6ywvlurefezckq</rdf:li>
      </rdf:Bag>
      </dc:creator>
    </rdf:Description>
  </rdf:RDF>
</metadata>
<rect width="100%" height="100%" fill="#1b1f23"/>
<g transform="translate(0.000000,1000.000000) scale(0.100000,-0.100000)"
fill="#ffffff" stroke="none">
<path d="M4631 7709 c-97 -13 -318 -70 -401 -103 -36 -15 -53 -24 -39 -21 28
5 105 15 279 37 161 20 374 17 433 -5 26 -10 52 -28 58 -39 21 -39 -6 -49
-192 -69 -189 -21 -362 -57 -474 -96 -109 -39 -299 -134 -421 -212 -68 -43
-122 -71 -139 -71 -30 0 -124 -48 -170 -86 -27 -23 -24 -22 26 6 68 37 155 51
165 27 9 -25 -12 -53 -132 -180 -257 -269 -411 -535 -549 -950 -106 -320 -144
-529 -152 -828 -6 -232 4 -368 43 -559 64 -314 224 -672 352 -792 65 -61 110
-83 234 -112 58 -14 151 -44 209 -67 304 -122 626 -218 799 -239 312 -37 592
40 883 244 306 215 461 395 535 626 32 99 110 433 128 551 20 125 22 379 5
498 -28 188 -95 390 -175 524 -190 321 -618 509 -1161 510 -118 0 -151 -4
-210 -23 -148 -47 -301 -144 -420 -265 -92 -93 -126 -157 -135 -251 -6 -61
-14 -85 -50 -146 -55 -91 -92 -130 -122 -126 -22 3 -23 7 -20 78 11 283 192
545 530 770 193 128 297 157 437 118 33 -9 136 -22 228 -28 323 -22 488 -66
674 -182 153 -95 301 -262 391 -444 47 -93 100 -255 129 -393 24 -114 27 -147
27 -341 1 -234 -5 -277 -70 -555 -19 -82 -39 -199 -45 -260 -5 -60 -18 -139
-29 -175 -100 -339 -716 -793 -1188 -875 -157 -28 -357 -15 -554 36 -46 11
-158 45 -249 74 -91 30 -206 61 -255 70 -209 38 -300 71 -489 176 -49 28 -111
57 -137 63 -47 13 -47 13 44 -88 167 -183 512 -536 564 -575 70 -54 123 -79
379 -181 325 -129 428 -159 740 -216 199 -37 397 -39 525 -7 188 48 345 130
530 278 124 99 188 138 229 139 65 2 44 -32 -139 -223 -148 -155 -179 -182
-247 -218 -311 -165 -627 -203 -1033 -122 -166 33 -322 90 -547 198 -199 96
-294 131 -355 131 -53 0 -93 26 -221 145 -70 66 -145 130 -165 143 -37 24 -37
24 5 -14 56 -53 287 -306 308 -338 12 -17 21 -23 29 -17 6 5 34 8 61 7 43 -2
69 -14 194 -91 323 -197 489 -260 781 -296 128 -16 367 -6 492 21 259 54 555
199 658 322 25 29 89 99 143 156 77 81 100 112 109 148 15 54 41 82 114 124
65 36 116 81 187 163 52 61 52 61 -13 6 -113 -95 -201 -134 -216 -95 -9 23 19
67 129 203 159 197 249 319 338 460 45 70 89 137 98 148 9 11 -9 -2 -39 -29
-99 -87 -523 -529 -610 -636 -83 -102 -92 -109 -289 -241 -203 -137 -348 -220
-451 -258 -219 -82 -455 -82 -455 -1 0 27 -2 26 145 55 244 48 531 193 795
400 111 87 705 687 748 755 125 199 190 395 234 710 21 155 25 607 5 745 -18
129 -70 465 -88 570 -14 82 -91 341 -99 333 -2 -2 12 -55 32 -118 29 -96 36
-138 43 -255 5 -77 21 -228 36 -335 26 -178 29 -220 29 -480 0 -297 -8 -380
-55 -586 -67 -287 -219 -523 -470 -728 -41 -33 -151 -134 -245 -224 -345 -331
-542 -463 -919 -616 -145 -59 -178 -78 -237 -133 -50 -47 -122 -59 -276 -44
-64 7 -160 21 -212 32 -127 28 -373 108 -500 163 -181 79 -317 172 -309 213 7
37 60 27 247 -46 481 -188 767 -229 1007 -147 325 111 612 262 829 437 44 35
164 146 266 246 146 143 198 188 240 207 189 84 372 330 454 611 51 176 67
302 72 555 6 260 -4 383 -58 709 -45 275 -113 483 -255 778 -123 258 -236 437
-400 635 -51 62 -85 113 -93 140 -11 38 -57 128 -65 128 -2 0 4 -21 12 -46 11
-33 13 -56 6 -83 -15 -61 -49 -55 -179 29 -226 147 -370 205 -705 286 -214 51
-350 62 -499 43z m697 -289 c126 -30 238 -81 460 -208 169 -97 214 -128 273
-187 121 -122 232 -289 359 -540 122 -242 201 -463 250 -707 133 -650 69
-1219 -175 -1563 -44 -62 -177 -195 -195 -195 -6 0 -15 11 -21 24 -9 18 -7 31
9 62 11 21 30 48 42 59 12 11 42 47 65 80 338 476 303 1430 -78 2120 -114 207
-259 385 -418 515 -57 46 -146 122 -198 168 -141 125 -290 189 -481 207 -204
19 -613 -90 -908 -242 -161 -83 -170 -86 -237 -87 -58 -1 -79 -7 -119 -30 -90
-53 -311 -277 -404 -409 -59 -83 -85 -137 -131 -264 -21 -60 -65 -169 -98
-243 -155 -349 -209 -555 -220 -838 -16 -421 99 -768 380 -1141 91 -121 120
-176 106 -202 -13 -26 -28 -24 -82 12 -144 95 -351 396 -451 654 -51 133 -104
351 -117 481 -14 134 -1 333 30 474 48 215 163 523 306 815 140 286 204 373
477 641 183 181 204 195 463 297 183 72 307 111 488 153 153 36 212 54 332 99
81 30 151 29 293 -5z m-6 -374 c114 -21 203 -53 240 -88 32 -30 32 -30 8 -50
-23 -19 -32 -20 -135 -12 -184 15 -399 11 -495 -9 -159 -34 -308 -111 -524
-273 -222 -167 -437 -370 -612 -579 -64 -76 -101 -132 -153 -236 -37 -74 -85
-159 -106 -187 -83 -117 -120 -302 -112 -567 10 -313 92 -566 271 -834 131
-197 214 -267 454 -385 171 -83 306 -130 438 -151 214 -35 472 -1 557 73 20
18 23 57 5 69 -7 4 -112 8 -233 9 -168 0 -237 4 -291 17 -206 48 -362 147
-380 242 -6 35 -1 100 11 140 4 14 -16 52 -71 135 -97 145 -167 290 -201 417
-23 84 -27 119 -27 248 -1 113 3 165 16 213 53 191 153 307 416 486 143 96
348 184 373 159 25 -25 0 -62 -76 -110 -42 -26 -117 -75 -168 -107 -58 -37
-129 -96 -193 -160 -83 -84 -108 -116 -142 -186 -57 -115 -75 -206 -69 -345
12 -266 144 -494 346 -599 293 -151 581 -162 807 -31 67 39 171 147 217 225
78 134 115 316 97 468 -28 223 -131 361 -349 470 -94 47 -94 47 -215 47 -106
0 -128 -3 -176 -24 -128 -56 -243 -152 -310 -258 -80 -125 -93 -306 -33 -435
42 -89 85 -141 156 -189 220 -146 506 -81 614 139 23 46 29 73 31 144 4 77 1
94 -23 145 -48 106 -124 162 -230 171 -84 6 -140 -15 -194 -73 -66 -72 -76
-154 -28 -226 46 -69 132 -86 184 -37 35 33 29 81 -12 88 -63 11 -33 90 35 90
37 0 84 -33 103 -73 72 -151 -106 -315 -286 -263 -120 35 -201 149 -200 283 0
232 248 405 480 335 176 -54 289 -200 300 -392 7 -106 -8 -179 -54 -272 -88
-175 -263 -280 -467 -280 -104 0 -179 18 -281 67 -146 70 -246 184 -296 337
-34 104 -34 253 0 357 60 183 219 345 458 467 196 100 367 79 568 -70 44 -33
105 -72 136 -88 87 -43 120 -90 168 -233 59 -179 65 -359 17 -546 -72 -283
-242 -487 -469 -564 -208 -69 -440 -53 -705 50 -182 72 -243 55 -168 -46 68
-92 222 -166 407 -195 73 -12 153 -15 307 -12 209 3 209 3 293 45 254 126 424
386 495 758 26 133 23 349 -5 484 -39 186 -130 432 -187 506 -49 65 -114 81
-114 29 0 -14 12 -52 26 -85 27 -66 29 -122 3 -127 -10 -2 -37 27 -75 80 -93
130 -139 175 -218 213 -99 48 -171 65 -321 74 -101 6 -139 13 -170 29 -59 29
-105 35 -171 22 -85 -17 -202 -77 -333 -169 -131 -93 -201 -115 -201 -66 0 20
144 164 220 220 198 144 364 179 672 139 186 -24 292 -55 457 -132 80 -38 169
-78 196 -88 213 -76 391 -574 355 -991 -23 -255 -103 -535 -204 -707 -74 -127
-201 -255 -355 -358 -42 -28 -110 -83 -152 -122 -90 -85 -145 -116 -264 -151
-111 -33 -298 -44 -426 -26 -276 39 -620 178 -756 305 -105 97 -276 343 -370
531 -65 129 -123 300 -149 440 -15 77 -19 145 -18 290 1 286 37 431 182 725
71 146 81 160 155 230 43 41 230 227 415 412 364 365 405 398 587 477 236 104
493 143 697 107z m-1192 -219 c0 -47 -40 -105 -165 -237 -59 -63 -159 -174
-222 -247 -111 -129 -144 -156 -165 -135 -46 46 101 253 366 515 152 149 186
168 186 104z m1216 -97 c296 -20 361 -35 481 -112 174 -113 321 -295 449 -553
214 -434 273 -980 155 -1438 -58 -223 -152 -416 -190 -392 -19 11 -12 61 34
220 101 348 124 574 90 870 -27 225 -81 418 -170 600 -78 159 -146 256 -265
376 -151 152 -271 218 -472 259 -188 39 -457 43 -637 10 -75 -13 -90 -6 -75
37 20 57 139 105 301 122 113 12 124 12 299 1z m-1661 -1168 c6 -4 33 -34 59
-67 47 -58 48 -61 42 -110 -3 -27 -9 -131 -12 -231 -12 -343 42 -533 255 -883
104 -172 112 -201 53 -201 -97 0 -294 278 -391 553 -71 202 -92 405 -72 703
15 224 27 264 66 236z"/>
</g>
</svg>
