<?xml version="1.0" standalone="no"?>
<!DOCTYPE svg PUBLIC "-//W3C//DTD SVG 20010904//EN"
 "http://www.w3.org/TR/2001/REC-SVG-20010904/DTD/svg10.dtd">
<svg version="1.0" xmlns="http://www.w3.org/2000/svg"
 width="1000.000000pt" height="1000.000000pt" viewBox="0 0 1000.000000 1000.000000"
 preserveAspectRatio="xMidYMid meet">
<metadata>
  <rdf:RDF
    xmlns:rdf = "http://www.w3.org/1999/02/22-rdf-syntax-ns#"
    xmlns:rdfs = "http://www.w3.org/2000/01/rdf-schema#"
    xmlns:dc = "http://purl.org/dc/elements/1.1/"
    xmlns:cc = "http://creativecommons.org/ns#">
    <cc:license rdf:resource="http://creativecommons.org/publicdomain/zero/1.0/deed.en"/>
    <cc:permits rdf:resource="http://creativecommons.org/ns#Reproduction"/>
    <rdf:Description about="https://nft.mir.one/fingerprints"
      dc:title="TON Fingerprints"
      dc:description="This is a unique digital fingerprint created based on the algorithm for generating basic rings using a noise texture. Like human fingerprints, you can now use it for the Web3 and Metaverse era as digital biometric information."
      dc:publisher="https://nft.mir.one"
      dc:date="2022-02-22"
      dc:format="image/svg+xml"
      dc:language="en" >
      <dc:creator>
      <rdf:Bag>
        <rdf:li>EQBondcvD2_aOFADXSWJHs4ZazQDuEl9_wNvGGPxI8hGuOFU</rdf:li>
        <rdf:li>ipfs://bafkreihj7iub3fhmhq6jn62noukt5wxn3gv6bvcg7wmt6ywvlurefezckq</rdf:li>
      </rdf:Bag>
      </dc:creator>
    </rdf:Description>
  </rdf:RDF>
</metadata>
<rect width="100%" height="100%" fill="#1b1f23"/>
<g transform="translate(0.000000,1000.000000) scale(0.100000,-0.100000)"
fill="#ffffff" stroke="none">
<path d="M5134 7797 c10 -6 71 -45 135 -86 64 -41 153 -103 197 -137 45 -35
148 -107 230 -160 201 -131 326 -228 420 -327 89 -92 113 -125 207 -282 36
-60 127 -189 203 -285 75 -96 154 -201 176 -233 79 -116 118 -228 118 -339 0
-57 -4 -71 -24 -95 -22 -25 -26 -26 -40 -13 -8 8 -31 67 -51 130 -67 208 -133
312 -379 589 -134 151 -136 154 -136 200 0 30 -9 65 -25 97 -75 151 -349 361
-625 479 -89 38 -124 42 -185 20 -28 -10 -87 -14 -200 -15 -136 0 -192 5 -375
35 -157 26 -246 35 -331 35 -114 0 -122 -2 -340 -65 -285 -83 -391 -121 -365
-131 10 -4 77 -4 150 0 474 23 546 20 799 -30 167 -33 258 -65 338 -118 36
-24 88 -55 115 -69 72 -36 247 -92 334 -107 156 -25 184 -33 269 -76 107 -53
167 -105 186 -159 11 -35 24 -46 98 -90 115 -68 176 -117 288 -232 154 -157
225 -269 217 -339 -4 -40 -31 -42 -55 -4 -35 56 -193 218 -291 301 -125 104
-206 152 -340 200 -163 59 -282 123 -362 194 -62 56 -83 68 -188 105 -64 24
-191 73 -282 111 -307 125 -675 209 -920 209 -206 0 -302 -23 -498 -114 -112
-53 -112 -53 -71 -59 22 -3 93 1 157 9 179 21 444 29 530 15 88 -14 127 -32
167 -77 28 -32 36 -35 140 -50 159 -23 308 -64 490 -135 118 -45 180 -64 235
-69 89 -10 136 -27 250 -93 47 -27 157 -87 245 -134 201 -106 284 -162 465
-312 162 -135 206 -161 272 -161 41 0 51 -5 99 -50 30 -28 74 -62 99 -77 54
-32 60 -39 60 -80 0 -52 -8 -63 -49 -63 -28 0 -60 14 -122 51 -46 28 -126 77
-178 108 -51 31 -168 116 -260 189 -91 74 -209 162 -261 197 -97 64 -450 275
-528 314 -85 43 -131 7 -76 -59 15 -18 141 -107 278 -198 275 -181 310 -207
532 -397 83 -71 228 -190 322 -263 190 -148 248 -205 286 -280 32 -63 81 -229
102 -347 24 -133 29 -397 11 -520 -27 -171 -122 -450 -174 -507 -24 -27 -62
-23 -73 8 -15 40 -12 93 20 314 88 601 27 891 -246 1177 -32 34 -158 157 -279
275 -231 224 -336 308 -615 495 -91 61 -199 141 -240 178 -134 120 -245 180
-415 224 -162 43 -245 47 -422 23 -87 -12 -237 -29 -333 -37 -307 -26 -513
-54 -575 -77 -54 -21 -189 -113 -283 -193 -9 -8 94 9 183 31 229 54 481 83
922 105 260 13 364 6 513 -38 132 -38 235 -94 513 -279 385 -258 484 -341 579
-489 25 -39 96 -124 157 -189 146 -155 221 -256 276 -369 77 -160 93 -291 55
-465 -17 -79 -20 -130 -21 -364 0 -150 4 -318 9 -372 11 -122 4 -191 -43 -411
-86 -398 -110 -473 -196 -616 -71 -118 -143 -188 -258 -249 -115 -61 -324
-232 -407 -334 -57 -69 -57 -69 -13 -39 24 17 144 89 266 162 241 143 336 212
427 312 87 95 207 284 290 453 191 389 272 551 339 678 87 164 172 387 198
519 40 207 44 507 10 792 -6 45 -17 215 -26 377 -18 342 -34 468 -77 589 -47
133 -74 181 -290 504 -230 343 -322 463 -447 578 -192 177 -510 385 -748 490
-110 48 -267 105 -239 86z m241 -602 c235 -38 457 -154 656 -340 123 -116 126
-121 99 -135 -30 -16 -88 14 -200 104 -97 79 -224 148 -340 186 -35 12 -141
42 -235 66 -186 49 -238 70 -243 97 -7 38 106 48 263 22z"/>
<path d="M4496 7669 c-38 -5 -98 -16 -133 -24 -35 -8 -76 -15 -91 -16 -67 -2
80 -36 181 -43 136 -8 247 -28 606 -106 157 -33 294 -60 305 -58 27 4 32 32
12 64 -43 64 -208 128 -441 170 -101 19 -348 26 -439 13z"/>
<path d="M4172 7523 c-13 -9 -55 -24 -95 -34 -72 -18 -72 -18 -4 -18 77 -1
127 18 127 49 0 23 1 23 -28 3z"/>
<path d="M3815 6844 c-173 -15 -251 -39 -367 -111 -40 -25 -91 -57 -113 -69
-40 -24 -40 -24 5 -24 25 0 79 6 120 14 128 25 295 45 545 66 133 11 261 27
287 36 46 15 93 58 83 74 -19 31 -294 38 -560 14z"/>
<path d="M5539 6774 c-19 -23 -2 -43 66 -82 152 -86 276 -122 304 -89 11 14 6
20 -28 45 -85 61 -265 142 -317 142 -6 0 -17 -7 -25 -16z"/>
<path d="M4025 6330 c-246 -8 -407 -26 -593 -65 -134 -28 -174 -51 -301 -170
-82 -76 -82 -76 -44 -69 21 3 84 21 140 39 224 73 440 105 716 105 118 0 242
-6 324 -17 133 -16 133 -16 186 10 63 33 112 34 222 8 185 -45 415 -168 814
-434 90 -60 179 -116 198 -124 46 -19 73 -9 73 25 0 93 -647 536 -939 642
-166 61 -254 66 -796 50z"/>
<path d="M4443 6099 c-16 -20 0 -53 39 -82 18 -14 123 -70 233 -124 263 -131
696 -382 922 -535 170 -115 303 -271 428 -502 55 -101 99 -156 125 -156 75 0
64 159 -23 330 -99 195 -298 414 -416 456 -100 36 -215 96 -391 206 -352 219
-539 317 -717 377 -114 38 -185 48 -200 30z"/>
<path d="M3695 6044 c-227 -26 -405 -67 -485 -110 -26 -14 -89 -68 -141 -120
-94 -94 -94 -94 -57 -94 22 0 86 22 165 56 223 98 406 131 668 121 159 -6 250
-21 380 -64 156 -51 411 -182 660 -340 128 -81 178 -108 298 -162 116 -53 200
-113 320 -230 145 -141 262 -308 333 -471 37 -87 40 -188 7 -222 -22 -21 -23
-21 -43 -3 -11 10 -20 24 -20 30 0 29 -155 318 -217 405 -87 121 -299 336
-371 374 -92 48 -133 14 -75 -63 15 -20 71 -86 124 -148 104 -121 182 -234
304 -441 75 -127 102 -158 213 -252 60 -52 96 -274 74 -467 -22 -198 -42 -250
-286 -744 -159 -323 -206 -395 -363 -555 -48 -50 -140 -133 -203 -186 -63 -53
-130 -112 -149 -131 -33 -35 -33 -35 110 17 267 97 416 188 537 326 89 102
121 155 163 274 50 140 150 355 203 434 26 39 62 80 80 91 35 22 96 29 96 11
0 -6 -22 -56 -49 -113 -208 -434 -228 -494 -171 -512 88 -28 289 309 292 490
1 63 -18 116 -49 133 -15 9 -14 17 10 103 41 146 56 228 67 372 12 165 -2 546
-25 629 -17 67 -57 148 -149 307 -157 271 -285 409 -521 565 -174 115 -845
490 -1105 617 -68 33 -157 55 -275 69 -84 9 -282 11 -350 4z"/>
<path d="M3470 5764 c-122 -23 -187 -50 -234 -98 -23 -23 -62 -52 -87 -64 -43
-21 -98 -73 -189 -179 -35 -41 -35 -41 0 -41 19 0 62 6 95 14 125 29 591 14
795 -26 379 -73 693 -285 920 -620 73 -108 102 -167 129 -257 29 -99 71 -120
71 -38 0 67 50 14 53 -57 2 -43 2 -43 -33 -42 -112 3 -138 23 -235 184 -250
415 -534 633 -943 721 -126 27 -492 38 -627 19 -82 -12 -91 -15 -133 -54 -25
-22 -67 -74 -94 -115 -50 -73 -50 -73 -16 -66 18 4 78 22 133 41 378 127 850
63 1144 -155 81 -61 199 -181 274 -281 78 -105 271 -427 297 -497 43 -114 50
-213 25 -321 -25 -106 -57 -157 -189 -305 -141 -157 -244 -222 -435 -271 -209
-55 -298 -106 -278 -160 8 -21 31 -20 182 4 106 18 130 19 153 8 59 -29 12
-68 -109 -94 -89 -19 -161 -14 -219 16 -29 15 -58 21 -89 20 -25 -2 -52 -2
-58 -1 -17 1 -16 36 2 71 30 58 0 75 -97 54 -35 -7 -83 -13 -108 -14 -25 0
-68 -3 -96 -6 -50 -6 -50 -6 35 -50 46 -24 104 -51 129 -61 24 -9 65 -34 91
-55 109 -91 238 -127 388 -108 111 14 175 47 258 133 39 39 102 98 141 130 72
58 118 105 253 256 41 45 84 87 97 91 93 36 60 -111 -64 -285 -109 -153 -315
-345 -431 -402 -47 -23 -75 -28 -211 -38 -165 -12 -237 -8 -335 18 -33 9 -76
19 -95 22 -31 6 -28 2 30 -32 36 -22 83 -51 105 -66 62 -41 153 -60 282 -59
124 0 138 -7 101 -53 -11 -14 -51 -47 -89 -71 -38 -25 -69 -48 -69 -50 0 -11
165 12 231 32 65 21 92 37 175 105 335 275 508 493 570 724 18 68 39 385 38
580 -1 143 -4 174 -32 289 -31 129 -31 129 -2 163 44 50 42 106 -10 201 -225
413 -444 644 -760 802 -241 121 -410 157 -778 169 -218 6 -233 8 -253 28 -12
11 -19 25 -15 31 8 14 110 30 265 43 299 24 582 -32 847 -166 319 -162 471
-311 724 -710 113 -178 151 -279 211 -567 29 -137 33 -171 33 -318 0 -175 -13
-270 -59 -448 -103 -389 -325 -685 -755 -1004 -88 -65 -147 -124 -115 -114 11
3 54 11 95 17 106 16 234 55 305 92 77 41 318 278 402 397 106 150 194 324
287 568 122 321 144 553 75 774 -13 39 -73 173 -134 297 -107 216 -166 313
-332 546 -39 55 -81 125 -93 155 -30 76 -59 111 -154 186 -227 181 -558 347
-806 406 -118 27 -456 35 -580 12z"/>
<path d="M3329 5020 c-67 -11 -196 -48 -229 -65 -40 -21 -81 -76 -137 -187
-36 -71 -44 -93 -29 -82 11 8 26 14 33 14 7 0 43 20 80 45 217 146 530 183
795 95 116 -39 191 -82 259 -150 45 -45 59 -66 70 -110 8 -33 37 -91 71 -143
74 -112 101 -165 129 -257 78 -250 -32 -507 -250 -586 -25 -9 -97 -37 -159
-61 -146 -58 -197 -71 -307 -79 -98 -7 -198 5 -298 35 -155 47 -152 49 -63
-33 43 -41 111 -93 152 -116 82 -47 139 -58 312 -61 97 -2 97 -2 257 60 259
102 326 140 430 247 152 157 207 345 156 543 -37 149 -167 384 -314 570 -128
160 -326 271 -566 316 -88 16 -309 19 -392 5z"/>
<path d="M3395 4754 c-90 -20 -206 -68 -258 -108 -70 -52 -111 -153 -151 -375
-6 -34 -6 -34 16 -3 13 17 42 57 65 90 127 180 349 285 565 269 98 -8 175 -28
300 -78 143 -58 197 -55 163 10 -30 59 -173 143 -307 181 -100 29 -296 36
-393 14z"/>
<path d="M3471 4495 c-121 -34 -253 -132 -297 -222 -26 -53 -31 -205 -9 -298
32 -138 130 -292 214 -334 135 -69 349 -43 446 54 59 59 80 124 80 250 0 110
-13 148 -76 219 -96 110 -294 116 -374 12 -50 -65 -44 -162 13 -206 32 -26 93
-26 115 -2 24 26 22 69 -4 77 -28 9 -21 45 12 64 23 13 30 12 65 -5 97 -48
105 -191 14 -267 -120 -101 -328 -24 -376 139 -72 249 181 458 453 376 188
-58 302 -198 303 -372 0 -41 -6 -108 -14 -149 -15 -79 -10 -114 20 -125 44
-17 130 78 159 177 34 116 11 274 -55 377 -58 90 -140 143 -325 210 -76 28
-107 33 -200 36 -77 3 -126 -1 -164 -11z"/>
</g>
</svg>
