<?xml version="1.0" standalone="no"?>
<!DOCTYPE svg PUBLIC "-//W3C//DTD SVG 20010904//EN"
 "http://www.w3.org/TR/2001/REC-SVG-20010904/DTD/svg10.dtd">
<svg version="1.0" xmlns="http://www.w3.org/2000/svg"
 width="1000.000000pt" height="1000.000000pt" viewBox="0 0 1000.000000 1000.000000"
 preserveAspectRatio="xMidYMid meet">
<metadata>
  <rdf:RDF
    xmlns:rdf = "http://www.w3.org/1999/02/22-rdf-syntax-ns#"
    xmlns:rdfs = "http://www.w3.org/2000/01/rdf-schema#"
    xmlns:dc = "http://purl.org/dc/elements/1.1/"
    xmlns:cc = "http://creativecommons.org/ns#">
    <cc:license rdf:resource="http://creativecommons.org/publicdomain/zero/1.0/deed.en"/>
    <cc:permits rdf:resource="http://creativecommons.org/ns#Reproduction"/>
    <rdf:Description about="https://nft.mir.one/fingerprints"
      dc:title="TON Fingerprints"
      dc:description="This is a unique digital fingerprint created based on the algorithm for generating basic rings using a noise texture. Like human fingerprints, you can now use it for the Web3 and Metaverse era as digital biometric information."
      dc:publisher="https://nft.mir.one"
      dc:date="2022-02-22"
      dc:format="image/svg+xml"
      dc:language="en" >
      <dc:creator>
      <rdf:Bag>
        <rdf:li>EQBondcvD2_aOFADXSWJHs4ZazQDuEl9_wNvGGPxI8hGuOFU</rdf:li>
        <rdf:li>ipfs://bafkreihj7iub3fhmhq6jn62noukt5wxn3gv6bvcg7wmt6ywvlurefezckq</rdf:li>
      </rdf:Bag>
      </dc:creator>
    </rdf:Description>
  </rdf:RDF>
</metadata>
<rect width="100%" height="100%" fill="#1b1f23"/>
<g transform="translate(0.000000,1000.000000) scale(0.100000,-0.100000)"
fill="#ffffff" stroke="none">
<path d="M4945 7785 c-51 -26 -111 -43 -225 -66 -223 -45 -422 -113 -628 -215
-95 -47 -171 -88 -169 -90 2 -2 34 9 70 26 106 48 417 147 617 196 261 64 306
80 356 126 24 22 55 43 71 48 27 8 27 8 3 9 -14 0 -56 -15 -95 -34z"/>
<path d="M5015 7614 c-104 -17 -369 -83 -515 -128 -299 -91 -556 -231 -813
-444 -112 -93 -307 -263 -307 -268 0 -2 26 6 58 18 31 12 145 76 252 143 451
281 674 379 1118 490 298 74 341 79 707 80 357 1 391 2 383 10 -13 13 -344 85
-456 99 -148 19 -317 19 -427 0z"/>
<path d="M5135 7365 c-417 -56 -793 -186 -1158 -402 -246 -145 -421 -269 -504
-356 -264 -280 -466 -770 -527 -1287 -17 -144 -37 -429 -35 -510 2 -47 3 -42
9 30 13 141 98 630 129 741 53 186 135 374 239 544 157 258 359 448 716 671
477 298 853 415 1381 431 324 9 619 -18 785 -72 83 -27 223 -64 228 -60 5 5
-242 162 -307 195 -36 17 -108 44 -160 58 -92 24 -110 26 -396 28 -209 2 -330
-1 -400 -11z"/>
<path d="M5195 7093 c-338 -39 -568 -99 -770 -201 -92 -46 -373 -221 -505
-315 -291 -206 -457 -408 -610 -745 -119 -261 -159 -423 -167 -682 -5 -171 -6
-176 -34 -218 -36 -56 -45 -127 -30 -241 16 -126 46 -233 95 -336 50 -105 211
-379 303 -513 35 -51 63 -101 63 -111 0 -53 -84 -16 -169 74 -86 92 -212 286
-298 459 -73 148 -132 301 -134 347 0 13 -3 18 -6 11 -8 -19 34 -200 78 -339
92 -287 221 -529 342 -640 25 -23 74 -56 109 -74 69 -35 141 -82 262 -171 225
-167 442 -251 884 -344 325 -68 537 -54 781 51 304 130 511 230 687 331 93 53
122 65 183 74 40 6 111 26 158 46 87 36 113 38 113 8 0 -29 -39 -72 -103 -112
-101 -63 -699 -355 -862 -420 -268 -108 -458 -154 -630 -155 -77 0 -113 5
-158 21 -32 12 -154 42 -272 67 -437 93 -632 173 -1018 419 -87 56 -181 113
-209 128 -28 15 -60 35 -71 45 -41 35 169 -203 238 -270 99 -97 227 -191 320
-236 184 -90 517 -185 779 -222 171 -24 199 -32 194 -56 -6 -31 -48 -43 -155
-43 -189 0 -383 41 -701 150 -163 56 -342 111 -342 105 0 -9 250 -160 329
-199 227 -114 399 -171 554 -184 148 -12 253 1 392 47 66 22 183 53 260 71
353 78 673 194 1010 365 356 180 430 243 607 509 166 249 228 377 333 681 4
11 -9 -8 -28 -42 -19 -35 -48 -78 -63 -97 -16 -19 -51 -68 -77 -109 -101 -159
-237 -278 -362 -317 -38 -12 -109 -43 -157 -68 -119 -62 -151 -44 -89 49 30
45 48 59 228 194 119 88 180 154 269 286 103 154 150 276 218 574 47 201 60
314 52 459 -24 459 -195 938 -409 1143 -87 83 -205 159 -399 252 -277 135
-454 188 -708 212 -404 38 -1062 -99 -1038 -217 7 -37 32 -39 160 -15 365 69
540 87 761 78 262 -9 449 -67 703 -218 61 -36 130 -68 174 -80 98 -27 152 -60
236 -145 217 -219 376 -606 391 -955 7 -162 -5 -259 -53 -416 -123 -406 -298
-683 -534 -843 -101 -68 -134 -80 -236 -80 -107 0 -157 -13 -320 -85 -269
-118 -388 -145 -685 -152 -244 -6 -360 5 -544 52 -252 65 -467 160 -677 300
-77 52 -159 100 -181 106 -47 13 -87 5 -87 -17 0 -49 222 -275 310 -316 30
-14 136 -55 235 -91 436 -160 588 -187 1061 -187 246 0 267 1 360 25 106 27
292 112 452 208 52 31 100 53 107 51 46 -18 13 -96 -75 -177 -102 -95 -264
-177 -554 -282 -33 -12 -65 -34 -93 -65 -79 -86 -230 -130 -442 -130 -336 1
-847 148 -1038 299 -38 29 -60 58 -83 105 -17 36 -48 87 -69 114 -48 61 -166
250 -197 317 -15 31 -24 69 -24 99 0 45 -4 54 -68 130 -155 183 -196 270 -252
531 -32 146 -33 175 -7 175 50 0 122 -124 138 -236 14 -101 33 -151 89 -226
81 -110 153 -158 296 -197 23 -6 111 -60 200 -121 239 -167 433 -256 690 -316
110 -26 135 -28 324 -29 159 0 224 4 290 18 231 48 519 177 628 281 18 17 49
61 69 99 20 37 80 129 134 205 208 289 292 536 276 808 -8 126 -27 215 -77
371 -37 112 -39 128 -34 196 8 93 -4 134 -98 319 -59 117 -77 145 -133 196
-109 103 -269 182 -437 217 -127 27 -479 14 -807 -30 -101 -14 -215 -25 -255
-25 -130 0 -237 -41 -413 -159 -180 -120 -330 -289 -340 -383 -6 -52 11 -72
50 -62 14 3 72 48 128 100 244 223 419 313 706 364 152 27 419 38 523 20 69
-12 78 -16 130 -65 30 -29 102 -81 160 -115 187 -112 246 -168 362 -345 36
-55 100 -140 142 -190 141 -168 181 -281 181 -515 0 -135 -3 -165 -23 -230
-45 -140 -72 -185 -264 -432 -112 -144 -169 -199 -283 -273 -118 -78 -335
-183 -423 -206 -110 -29 -309 -29 -452 1 -342 71 -658 273 -756 484 -33 73
-87 243 -119 375 -11 43 -26 80 -37 90 -92 77 -117 132 -125 277 -6 92 5 179
32 271 18 61 41 75 69 41 17 -21 18 -36 12 -193 -9 -221 11 -365 50 -365 7 0
21 11 32 25 20 26 27 57 57 275 33 243 72 328 209 458 97 92 200 159 385 252
175 87 258 110 395 110 120 0 207 -17 319 -62 139 -56 235 -116 321 -201 69
-68 84 -78 110 -75 27 3 31 7 34 36 9 92 -132 223 -389 361 -130 69 -219 91
-375 91 -314 0 -560 -96 -879 -344 -60 -47 -139 -100 -174 -117 -37 -18 -90
-57 -126 -93 -35 -33 -82 -74 -105 -91 -89 -62 -135 -195 -128 -365 6 -128 27
-196 108 -340 36 -64 67 -136 80 -185 12 -44 35 -119 51 -167 23 -69 28 -92
19 -108 -6 -11 -17 -20 -25 -20 -7 0 -47 30 -88 68 -41 37 -100 89 -132 116
-60 52 -82 85 -71 111 7 19 30 9 86 -37 39 -32 52 -34 69 -14 17 20 -7 73 -68
149 -135 170 -189 339 -170 530 11 114 40 201 133 397 46 96 102 215 125 264
56 119 110 193 222 301 97 94 210 177 385 284 56 34 132 89 170 122 286 252
1024 341 1566 189 243 -69 482 -188 702 -351 200 -149 196 -147 112 -39 -222
287 -413 450 -610 519 -108 38 -293 76 -440 90 -100 10 -440 13 -511 4z m325
-720 c130 -36 262 -115 362 -215 95 -97 257 -359 244 -394 -3 -8 -17 -14 -31
-14 -35 0 -101 63 -190 180 -157 206 -292 304 -520 379 -64 21 -80 30 -80 46
0 44 94 52 215 18z"/>
<path d="M6211 6241 c-14 -26 -3 -60 62 -181 30 -58 69 -145 86 -194 49 -139
110 -371 126 -481 45 -302 -14 -601 -173 -868 -42 -70 -83 -123 -249 -319 -67
-78 -54 -125 32 -116 97 11 254 143 360 302 100 151 188 361 230 547 22 99 31
345 16 451 -44 304 -182 623 -345 796 -74 79 -125 101 -145 63z"/>
<path d="M4738 5947 c-61 -18 -98 -43 -98 -67 0 -29 29 -38 162 -50 152 -13
268 -44 456 -119 159 -64 219 -75 257 -47 36 26 7 57 -116 123 -206 112 -359
161 -519 169 -61 2 -112 -1 -142 -9z"/>
<path d="M4447 5766 c-183 -76 -337 -225 -397 -384 -58 -152 -105 -425 -97
-553 9 -143 71 -298 166 -415 121 -151 347 -276 593 -330 93 -20 295 -23 366
-5 55 14 112 53 112 76 0 31 -42 45 -140 45 -491 0 -851 231 -924 592 -20 96
-20 158 -1 273 28 176 85 295 191 402 51 52 91 82 140 105 65 31 76 33 179 33
106 0 113 -1 185 -36 41 -20 117 -49 169 -63 254 -71 409 -218 466 -441 22
-88 20 -247 -5 -328 -36 -118 -128 -208 -250 -245 -78 -23 -238 -23 -307 1
-58 21 -106 68 -101 101 3 23 0 23 140 10 153 -13 294 62 348 188 89 205 -30
473 -242 544 -83 27 -153 23 -233 -14 -141 -67 -227 -157 -265 -280 -39 -125
-21 -223 60 -345 55 -82 60 -102 30 -112 -52 -16 -142 65 -194 174 -29 63 -31
72 -31 187 0 121 0 121 42 206 52 104 121 172 243 238 100 55 115 73 81 101
-29 24 -87 25 -162 3 -202 -59 -344 -255 -365 -502 -19 -225 92 -434 283 -535
148 -77 288 -118 488 -142 72 -9 156 -22 188 -30 51 -12 66 -12 114 1 116 30
262 149 338 274 45 74 54 124 31 180 -9 23 -23 106 -31 186 -8 79 -22 172 -31
206 -30 120 -122 278 -200 347 -100 88 -366 193 -639 252 -55 11 -121 30 -148
40 -63 25 -120 24 -190 -5z m554 -612 c42 -21 96 -91 108 -140 32 -126 -48
-239 -202 -286 -95 -29 -130 -28 -163 3 -70 65 -107 187 -68 220 15 12 20 10
38 -16 68 -95 150 -112 218 -45 24 25 29 36 26 71 -6 76 -82 106 -98 38 -13
-54 -112 -15 -112 45 0 101 147 165 253 110z"/>
<path d="M5633 5593 c-23 -4 -53 -38 -53 -59 0 -6 25 -48 56 -94 133 -195 170
-339 144 -564 -15 -131 -10 -156 29 -156 31 0 77 43 106 100 47 91 59 300 26
432 -54 210 -194 365 -308 341z"/>
<path d="M2922 4675 c0 -16 2 -22 5 -12 2 9 2 23 0 30 -3 6 -5 -1 -5 -18z"/>
<path d="M3900 3653 c-110 -42 148 -197 485 -292 236 -66 309 -76 555 -76 185
0 237 3 290 18 110 30 136 60 83 94 -24 16 -63 19 -313 24 -253 6 -299 9 -410
32 -143 30 -299 78 -480 147 -128 49 -184 63 -210 53z"/>
<path d="M6615 3241 c-6 -4 -35 -22 -65 -38 -30 -17 -104 -62 -165 -102 -224
-146 -572 -299 -965 -422 -134 -43 -601 -165 -699 -183 -107 -21 -314 -21
-420 -1 -44 9 -111 27 -148 41 -73 27 -232 68 -240 61 -2 -3 9 -8 24 -12 15
-3 85 -35 154 -70 218 -109 348 -140 594 -139 225 0 385 34 842 180 369 117
585 227 814 412 69 57 300 282 288 282 -3 0 -9 -4 -14 -9z"/>
<path d="M5990 2573 c-231 -65 -934 -288 -1095 -346 -231 -84 375 46 647 139
172 59 581 233 543 232 -5 0 -48 -11 -95 -25z"/>
</g>
</svg>
