<?xml version="1.0" standalone="no"?>
<!DOCTYPE svg PUBLIC "-//W3C//DTD SVG 20010904//EN"
 "http://www.w3.org/TR/2001/REC-SVG-20010904/DTD/svg10.dtd">
<svg version="1.0" xmlns="http://www.w3.org/2000/svg"
 width="1000.000000pt" height="1000.000000pt" viewBox="0 0 1000.000000 1000.000000"
 preserveAspectRatio="xMidYMid meet">
<metadata>
  <rdf:RDF
    xmlns:rdf = "http://www.w3.org/1999/02/22-rdf-syntax-ns#"
    xmlns:rdfs = "http://www.w3.org/2000/01/rdf-schema#"
    xmlns:dc = "http://purl.org/dc/elements/1.1/"
    xmlns:cc = "http://creativecommons.org/ns#">
    <cc:license rdf:resource="http://creativecommons.org/publicdomain/zero/1.0/deed.en"/>
    <cc:permits rdf:resource="http://creativecommons.org/ns#Reproduction"/>
    <rdf:Description about="https://nft.mir.one/fingerprints"
      dc:title="TON Fingerprints"
      dc:description="This is a unique digital fingerprint created based on the algorithm for generating basic rings using a noise texture. Like human fingerprints, you can now use it for the Web3 and Metaverse era as digital biometric information."
      dc:publisher="https://nft.mir.one"
      dc:date="2022-02-22"
      dc:format="image/svg+xml"
      dc:language="en" >
      <dc:creator>
      <rdf:Bag>
        <rdf:li>EQBondcvD2_aOFADXSWJHs4ZazQDuEl9_wNvGGPxI8hGuOFU</rdf:li>
        <rdf:li>ipfs://bafkreihj7iub3fhmhq6jn62noukt5wxn3gv6bvcg7wmt6ywvlurefezckq</rdf:li>
      </rdf:Bag>
      </dc:creator>
    </rdf:Description>
  </rdf:RDF>
</metadata>
<rect width="100%" height="100%" fill="#1b1f23"/>
<g transform="translate(0.000000,1000.000000) scale(0.100000,-0.100000)"
fill="#ffffff" stroke="none">
<path d="M4748 7793 c7 -3 16 -2 19 1 4 3 -2 6 -13 5 -11 0 -14 -3 -6 -6z"/>
<path d="M4630 7763 c-204 -68 -398 -159 -586 -274 -63 -39 -114 -73 -114 -75
0 -3 42 18 93 46 165 92 469 239 577 279 101 39 122 55 30 24z"/>
<path d="M5050 7654 c-14 -2 -59 -9 -100 -15 -170 -24 -372 -87 -545 -168
-177 -84 -588 -312 -661 -367 -86 -66 -200 -183 -314 -324 -46 -58 -105 -127
-130 -154 -45 -49 -45 -49 24 -6 39 23 118 87 177 142 198 186 299 249 503
318 122 41 175 66 314 147 314 184 582 270 1030 327 191 25 261 44 270 75 3 8
1 11 -4 9 -5 -3 -54 1 -109 8 -90 12 -391 17 -455 8z"/>
<path d="M5579 7446 c-3 -3 -104 -19 -225 -36 -355 -50 -570 -107 -757 -202
-195 -98 -285 -182 -359 -338 -65 -134 -90 -171 -213 -305 -154 -168 -219
-247 -283 -342 -82 -122 -270 -455 -299 -528 -39 -100 -63 -240 -63 -373 0
-277 72 -481 266 -748 96 -132 124 -187 124 -239 0 -40 6 -49 105 -156 61 -67
134 -133 173 -160 142 -95 343 -157 539 -166 184 -9 329 21 472 97 59 32 59
32 58 78 -1 26 7 73 16 105 17 54 29 70 171 210 124 124 159 165 189 223 56
110 71 178 71 334 0 158 -14 224 -77 345 -49 95 -177 229 -271 284 -209 123
-444 104 -597 -49 -102 -102 -151 -234 -163 -442 -4 -65 -14 -137 -22 -160
-14 -39 -14 -51 3 -132 10 -50 27 -104 38 -120 30 -44 117 -102 194 -128 135
-46 301 -22 309 45 4 31 -7 38 -111 66 -95 26 -126 41 -178 88 -84 76 -118
202 -99 360 30 241 172 393 366 393 86 0 161 -43 152 -86 -3 -16 -14 -19 -88
-19 -69 0 -94 -4 -134 -24 -66 -33 -122 -91 -154 -160 -22 -47 -27 -70 -27
-147 0 -81 3 -96 30 -149 21 -41 46 -71 80 -97 60 -46 196 -102 243 -101 66 2
152 85 182 176 16 51 9 152 -15 200 -47 98 -191 121 -254 41 -38 -48 -18 -109
28 -85 42 23 74 -23 55 -78 -12 -33 -65 -52 -109 -40 -43 12 -91 68 -100 117
-16 99 41 180 170 242 45 21 88 46 95 55 19 22 51 18 101 -13 184 -118 243
-371 136 -590 -57 -119 -224 -271 -341 -312 -130 -46 -293 -50 -435 -10 -86
24 -292 117 -370 168 -154 98 -292 312 -350 542 -29 118 -43 284 -36 420 4 68
2 154 -4 210 -10 79 -9 105 4 152 20 79 81 196 156 303 78 110 362 399 442
449 77 49 460 200 589 232 139 35 363 44 490 20 166 -31 309 -91 487 -201 118
-74 179 -130 269 -249 42 -55 106 -137 142 -181 105 -126 210 -272 273 -376
210 -354 308 -748 294 -1184 -9 -289 -41 -415 -135 -529 -32 -39 -93 -122
-137 -184 -86 -125 -199 -252 -221 -252 -22 0 -27 25 -14 65 7 20 55 107 107
193 112 184 175 306 197 380 53 182 66 555 28 782 -51 298 -146 539 -310 789
-78 119 -273 360 -369 456 -305 307 -760 438 -1123 324 -82 -26 -248 -104
-326 -154 -32 -21 -93 -70 -134 -110 -41 -39 -116 -105 -165 -147 -160 -134
-263 -258 -326 -391 -104 -223 -118 -646 -30 -900 48 -138 157 -292 246 -347
41 -25 88 -24 93 3 7 35 -7 62 -72 142 -123 150 -169 289 -169 505 1 270 75
472 233 630 119 120 214 160 377 160 190 0 432 -46 599 -114 390 -159 664
-541 664 -926 0 -167 -49 -322 -115 -366 -48 -32 -55 0 -29 131 117 588 -346
1115 -980 1115 -122 0 -199 -15 -283 -56 -109 -53 -212 -163 -270 -290 -56
-121 -68 -182 -68 -349 0 -129 3 -160 23 -223 26 -84 77 -150 107 -139 16 7
16 17 9 120 -12 153 -7 248 17 337 56 208 196 356 384 405 78 20 231 19 314
-1 220 -54 425 -216 525 -416 77 -154 88 -214 87 -478 -1 -224 -1 -224 -30
-285 -54 -115 -110 -176 -415 -459 -108 -100 -117 -111 -100 -123 79 -58 276
59 534 317 381 380 442 478 457 730 26 451 -320 937 -794 1115 -114 43 -358
100 -551 129 -98 15 -145 36 -140 64 5 24 76 60 140 72 51 10 62 8 129 -19 41
-16 142 -44 224 -61 83 -17 191 -45 240 -61 515 -172 917 -736 892 -1254 -12
-236 -105 -410 -359 -665 -121 -123 -306 -287 -395 -352 -98 -72 -225 -131
-418 -197 -237 -79 -328 -95 -515 -88 -213 8 -377 50 -605 154 -85 39 -144 59
-203 68 -95 16 -174 54 -247 119 -35 30 -47 47 -42 59 10 27 37 21 156 -38
118 -58 141 -64 160 -41 10 11 9 21 -3 44 -24 47 -82 88 -186 133 -138 60
-177 88 -293 210 -92 97 -108 110 -133 107 -23 -2 -30 -9 -32 -31 -6 -51 66
-179 173 -307 20 -24 54 -78 75 -120 45 -90 112 -159 228 -237 248 -166 571
-273 912 -304 230 -20 336 -1 578 102 323 138 440 207 602 354 52 48 140 122
195 165 55 43 125 104 155 136 48 51 209 245 292 352 112 144 114 544 5 833
-86 227 -218 431 -392 605 -126 126 -207 189 -327 254 -176 94 -321 131 -553
139 -164 6 -170 7 -173 27 -7 49 118 94 264 94 311 0 627 -147 880 -412 261
-273 431 -582 506 -920 19 -88 23 -131 23 -303 0 -110 -5 -288 -11 -395 -13
-223 -22 -254 -122 -440 -83 -154 -110 -213 -149 -323 -37 -108 -60 -149 -122
-220 -132 -153 -385 -315 -628 -401 -60 -21 -73 -23 -83 -11 -27 33 19 72 205
175 354 196 504 351 535 554 12 74 31 118 115 256 74 122 100 175 120 244 20
69 10 106 -28 106 -29 0 -65 -38 -157 -170 -99 -141 -175 -213 -291 -275 -96
-51 -164 -110 -211 -182 -46 -72 -258 -201 -528 -323 -142 -64 -196 -99 -210
-134 -11 -31 6 -46 55 -46 118 0 323 85 591 247 82 50 181 109 220 131 77 44
124 91 124 123 0 25 -7 24 -85 -8 -50 -20 -68 -24 -77 -15 -9 9 -7 16 6 31 26
29 90 49 179 56 76 6 77 6 77 -18 0 -39 -57 -142 -109 -194 -66 -67 -220 -170
-452 -303 -206 -118 -287 -150 -379 -150 -73 0 -105 12 -150 54 -35 34 -35 34
-190 40 -411 17 -751 76 -984 170 -134 54 -168 78 -337 238 -160 152 -246 255
-361 439 -74 117 -97 182 -109 299 -10 92 -43 227 -95 380 -14 41 -32 104 -39
140 -19 93 -19 28 0 -117 22 -163 73 -465 91 -538 27 -102 60 -190 119 -307
71 -143 153 -258 231 -322 33 -28 82 -69 108 -91 26 -22 48 -49 49 -60 3 -31
-52 -31 -120 -1 -51 24 -225 141 -282 190 -45 39 143 -195 194 -242 71 -65
155 -107 241 -121 40 -6 123 -27 185 -47 267 -84 500 -130 804 -159 220 -21
288 -36 393 -84 113 -52 181 -58 369 -37 128 15 146 15 172 2 97 -50 258 -13
475 110 139 78 232 150 371 284 91 88 138 126 195 156 51 26 100 63 151 114
63 63 85 95 138 197 34 67 69 127 76 133 10 8 24 8 49 2 34 -10 34 -9 24 13
-8 17 -5 47 11 121 110 515 85 1038 -70 1480 -83 238 -185 395 -422 653 -80
87 -117 140 -117 168 0 80 190 -61 372 -277 49 -58 116 -136 148 -175 33 -38
66 -79 75 -90 43 -55 -128 260 -196 360 -69 102 -152 199 -209 244 -49 38 -81
53 -190 86 -30 9 -129 61 -220 114 -390 231 -464 263 -657 281 -250 23 -495
-22 -815 -152 -163 -65 -210 -72 -216 -29 -9 57 169 169 385 241 211 70 413
103 648 104 226 1 297 -20 413 -122 35 -30 110 -83 167 -117 122 -74 476 -255
555 -284 55 -20 55 -20 -30 60 -144 136 -345 285 -495 369 -124 68 -149 99
-100 122 27 12 62 6 220 -36 50 -13 91 -23 92 -22 1 1 -46 29 -104 61 -59 33
-184 88 -277 124 -148 55 -182 64 -256 68 -47 3 -87 3 -91 -1z m-1894 -1736
c4 -12 1 -62 -6 -113 -19 -131 -16 -363 5 -462 54 -248 175 -477 350 -662 127
-134 282 -226 465 -275 103 -27 285 -30 396 -4 102 23 159 19 163 -10 4 -30
-98 -97 -192 -127 -94 -29 -315 -31 -416 -4 -181 49 -350 145 -456 259 -70 76
-256 357 -323 488 -92 179 -131 340 -131 534 0 129 12 214 42 293 32 87 88
131 103 83z"/>
<path d="M3978 6925 c-168 -62 -541 -413 -635 -598 -13 -27 -58 -146 -99 -265
-122 -353 -153 -499 -161 -750 -8 -249 22 -418 103 -572 41 -78 296 -344 386
-404 60 -40 139 -59 153 -37 9 16 -8 40 -110 151 -276 301 -375 532 -375 870
0 226 56 428 201 730 116 241 189 340 449 605 98 99 182 190 189 203 13 24 6
62 -13 74 -16 11 -46 8 -88 -7z"/>
<path d="M3103 6168 c-13 -34 -21 -63 -19 -65 6 -6 47 108 44 118 -2 5 -13
-19 -25 -53z"/>
<path d="M3066 6075 c-9 -26 -7 -32 5 -12 6 10 9 21 6 23 -2 3 -7 -2 -11 -11z"/>
<path d="M2902 5160 c0 -14 2 -19 5 -12 2 6 2 18 0 25 -3 6 -5 1 -5 -13z"/>
<path d="M6709 3652 c-21 -15 -92 -77 -159 -137 -308 -277 -337 -300 -478
-386 -189 -116 -380 -180 -577 -194 -323 -23 -436 -39 -621 -89 -235 -63 -625
-57 -1031 18 -74 13 -140 20 -168 17 -45 -6 -45 -6 83 -69 155 -75 304 -127
426 -148 133 -23 419 -15 636 19 91 14 244 33 340 42 320 29 496 63 677 131
118 43 290 131 393 199 100 66 274 242 385 389 50 65 109 142 133 172 23 30
42 56 42 59 0 15 -50 1 -81 -23z"/>
<path d="M3365 3277 c28 -13 104 -64 170 -111 66 -48 152 -102 190 -121 107
-50 357 -93 671 -115 169 -12 391 0 446 23 40 17 60 39 53 59 -14 36 -75 46
-395 68 -306 20 -546 65 -839 156 -134 42 -196 56 -261 60 -85 6 -85 6 -35
-19z"/>
<path d="M6530 3114 c-73 -58 -318 -218 -410 -267 -172 -93 -421 -179 -652
-228 -79 -16 -159 -23 -343 -29 -198 -7 -264 -13 -375 -35 -153 -30 -367 -42
-515 -28 -49 4 -124 6 -165 5 -75 -4 -75 -4 60 -43 184 -53 316 -79 435 -86
87 -5 113 -2 200 20 212 55 355 55 355 1 0 -20 -27 -28 -168 -53 -124 -21
-182 -42 -182 -63 0 -7 38 -9 128 -6 137 6 189 19 269 68 31 18 95 40 178 60
376 89 692 236 935 434 73 59 310 285 300 286 -3 0 -25 -16 -50 -36z"/>
<path d="M5555 2313 c-260 -79 -345 -107 -341 -110 5 -5 369 101 416 121 52
22 16 17 -75 -11z"/>
</g>
</svg>
