<?xml version="1.0" standalone="no"?>
<!DOCTYPE svg PUBLIC "-//W3C//DTD SVG 20010904//EN"
 "http://www.w3.org/TR/2001/REC-SVG-20010904/DTD/svg10.dtd">
<svg version="1.0" xmlns="http://www.w3.org/2000/svg"
 width="1000.000000pt" height="1000.000000pt" viewBox="0 0 1000.000000 1000.000000"
 preserveAspectRatio="xMidYMid meet">
<metadata>
  <rdf:RDF
    xmlns:rdf = "http://www.w3.org/1999/02/22-rdf-syntax-ns#"
    xmlns:rdfs = "http://www.w3.org/2000/01/rdf-schema#"
    xmlns:dc = "http://purl.org/dc/elements/1.1/"
    xmlns:cc = "http://creativecommons.org/ns#">
    <cc:license rdf:resource="http://creativecommons.org/publicdomain/zero/1.0/deed.en"/>
    <cc:permits rdf:resource="http://creativecommons.org/ns#Reproduction"/>
    <rdf:Description about="https://nft.mir.one/fingerprints"
      dc:title="TON Fingerprints"
      dc:description="This is a unique digital fingerprint created based on the algorithm for generating basic rings using a noise texture. Like human fingerprints, you can now use it for the Web3 and Metaverse era as digital biometric information."
      dc:publisher="https://nft.mir.one"
      dc:date="2022-02-22"
      dc:format="image/svg+xml"
      dc:language="en" >
      <dc:creator>
      <rdf:Bag>
        <rdf:li>EQBondcvD2_aOFADXSWJHs4ZazQDuEl9_wNvGGPxI8hGuOFU</rdf:li>
        <rdf:li>ipfs://bafkreihj7iub3fhmhq6jn62noukt5wxn3gv6bvcg7wmt6ywvlurefezckq</rdf:li>
      </rdf:Bag>
      </dc:creator>
    </rdf:Description>
  </rdf:RDF>
</metadata>
<rect width="100%" height="100%" fill="#1b1f23"/>
<g transform="translate(0.000000,1000.000000) scale(0.100000,-0.100000)"
fill="#ffffff" stroke="none">
<path d="M4646 7750 c-254 -89 -533 -241 -727 -398 -316 -254 -655 -805 -769
-1248 -34 -130 -36 -160 -16 -230 8 -27 20 -76 26 -109 17 -84 68 -241 98
-300 13 -27 46 -81 72 -120 54 -80 98 -165 164 -318 49 -113 56 -159 23 -165
-34 -7 -101 78 -176 224 -78 152 -86 165 -117 182 -16 9 -25 8 -39 -2 -15 -11
-17 -23 -13 -77 10 -122 96 -297 210 -426 34 -39 115 -132 180 -205 193 -222
342 -351 471 -408 46 -20 317 -85 487 -116 141 -26 396 -24 516 3 353 82 607
291 704 582 122 364 -9 754 -337 1004 -223 170 -418 198 -678 98 -113 -43
-219 -116 -328 -226 -52 -52 -99 -95 -105 -95 -6 0 -16 9 -22 21 -14 26 2 101
30 144 113 172 442 344 689 361 166 12 249 -19 416 -152 279 -222 414 -410
477 -661 27 -107 31 -327 9 -438 -57 -288 -228 -503 -517 -650 -182 -93 -366
-135 -589 -135 -157 0 -260 14 -451 59 -150 35 -171 37 -201 16 -52 -36 32
-101 207 -159 490 -164 1077 -36 1442 312 202 193 272 389 272 757 0 163 -3
189 -27 280 -31 115 -115 292 -182 380 -63 84 -183 203 -279 277 -110 85 -148
124 -144 145 14 74 241 -58 418 -243 47 -49 107 -119 133 -156 95 -132 170
-318 197 -481 13 -81 13 -316 0 -392 -6 -33 -14 -123 -18 -201 -7 -137 -9
-142 -42 -199 -81 -134 -234 -284 -405 -397 -290 -193 -639 -291 -975 -275
-344 17 -612 124 -690 276 -15 30 -55 66 -157 143 -205 152 -390 345 -601 626
-79 106 -170 281 -198 382 -15 52 -18 96 -16 214 2 157 -13 250 -58 358 -32
76 -20 183 26 233 13 14 19 25 15 25 -13 0 -39 -33 -50 -63 -26 -68 -30 -160
-21 -482 10 -364 21 -446 89 -621 124 -320 756 -959 1109 -1120 167 -76 328
-112 552 -121 468 -19 906 141 1314 480 124 103 384 373 443 460 91 135 135
306 135 522 0 160 -22 292 -73 448 -106 324 -297 552 -648 771 -58 36 -131 75
-163 87 -42 15 -58 27 -58 40 0 40 78 51 152 22 133 -53 379 -218 510 -342
206 -195 317 -406 385 -730 23 -109 27 -151 27 -311 1 -233 -22 -347 -101
-506 -160 -322 -721 -773 -1168 -939 -129 -48 -334 -100 -458 -115 -127 -16
-450 -8 -572 14 -482 89 -968 459 -1368 1041 -41 61 -93 127 -115 148 -39 38
-39 38 28 -131 126 -316 218 -481 333 -600 281 -289 691 -530 1017 -596 190
-38 547 -49 732 -21 357 54 692 195 1031 433 72 52 184 129 247 172 129 88
202 159 347 340 117 146 137 181 168 305 56 220 60 563 10 795 -57 266 -127
456 -208 572 -124 177 -323 337 -602 484 -66 35 -131 73 -143 84 -27 25 -29
60 -4 60 83 0 352 -118 512 -225 265 -177 443 -371 470 -514 30 -160 52 -250
121 -489 17 -56 36 -142 44 -190 15 -87 15 -87 9 3 -7 117 -26 247 -64 431
-17 81 -35 189 -39 239 -10 110 -48 207 -131 335 -94 142 -169 213 -319 303
-153 92 -278 149 -386 177 -110 28 -158 26 -232 -10 -61 -30 -61 -30 -414 -29
-402 1 -491 -8 -652 -62 -169 -58 -431 -217 -550 -334 -76 -75 -100 -114 -95
-153 5 -42 44 -41 109 4 308 213 431 275 649 325 161 38 518 36 629 -2 18 -6
40 -29 59 -58 20 -32 57 -67 112 -107 312 -222 471 -392 580 -619 48 -101 86
-222 106 -339 23 -131 15 -382 -16 -486 -41 -143 -117 -249 -159 -223 -19 12
-17 30 14 139 39 134 48 202 48 344 1 438 -204 797 -618 1085 -172 120 -192
125 -478 126 -343 1 -478 -39 -808 -239 -63 -38 -133 -79 -157 -91 -58 -30
-100 -75 -133 -146 -54 -115 -58 -195 -19 -390 38 -186 90 -279 185 -331 38
-21 79 -56 115 -98 88 -104 182 -166 304 -201 88 -26 233 -18 308 17 199 92
272 320 147 462 -49 55 -93 76 -161 76 -98 0 -168 -61 -168 -147 0 -58 41
-103 93 -103 43 0 62 22 62 69 0 30 4 37 22 39 35 5 73 -39 73 -84 0 -115
-135 -197 -262 -160 -69 20 -131 73 -154 131 -46 120 36 285 176 356 67 34
186 38 262 9 80 -30 159 -104 200 -188 31 -62 33 -73 33 -172 0 -102 -1 -109
-37 -182 -90 -180 -273 -282 -503 -280 -220 2 -419 90 -607 270 -164 157 -252
348 -289 626 -22 172 0 269 124 526 87 180 139 255 245 346 103 88 324 234
447 295 177 87 262 99 699 99 237 0 353 4 446 16 101 13 140 14 203 5 151 -21
353 -106 580 -243 55 -33 117 -66 139 -74 40 -14 40 -14 -12 46 -73 84 -195
202 -260 251 -99 74 -222 126 -445 189 -87 25 -144 46 -150 56 -26 43 -62 77
-104 98 -102 52 -339 100 -701 141 -234 27 -489 68 -534 85 -65 25 -27 80 69
100 48 10 72 8 187 -14 73 -14 223 -37 333 -51 372 -47 580 -102 791 -208 60
-30 168 -78 239 -107 72 -29 164 -69 205 -88 96 -44 244 -96 210 -74 -13 10
-65 51 -115 92 -114 95 -304 222 -420 282 -279 142 -668 240 -1072 267 -79 6
-152 15 -164 21 -30 16 -20 42 26 65 56 28 263 33 407 11 229 -36 497 -109
720 -197 123 -49 258 -92 265 -85 7 7 -302 180 -396 222 -190 83 -428 157
-616 190 -103 18 -271 18 -359 -1 -80 -17 -265 -103 -435 -203 -64 -38 -161
-93 -216 -122 -274 -146 -322 -195 -593 -600 -129 -193 -202 -380 -202 -519 0
-127 55 -265 113 -285 26 -9 33 -4 143 112 63 67 141 154 171 194 139 180 203
237 408 363 72 44 151 101 177 127 41 40 48 53 48 87 0 22 5 43 10 46 6 3 10
19 10 35 0 39 -46 76 -115 90 -86 18 -153 4 -297 -62 -98 -44 -141 -47 -146
-11 -5 32 78 110 164 155 91 48 164 68 242 68 55 0 80 -7 178 -51 147 -64 197
-74 489 -94 351 -23 826 -82 849 -105 15 -15 -23 -49 -68 -61 -42 -12 -193 -8
-466 11 -271 19 -498 10 -617 -25 -45 -13 -70 -32 -156 -113 -57 -53 -154
-133 -217 -176 -221 -152 -275 -205 -447 -431 -50 -66 -128 -159 -172 -207
-93 -101 -96 -110 -89 -266 8 -177 114 -588 192 -747 232 -471 943 -688 1364
-416 116 76 209 192 252 314 30 86 38 231 16 317 -47 189 -186 342 -362 400
-55 19 -83 22 -167 18 -96 -3 -107 -6 -187 -45 -147 -72 -232 -166 -300 -331
-69 -168 -130 -160 -130 16 0 108 24 155 136 263 134 129 226 185 362 220 205
52 401 -10 573 -181 69 -69 94 -102 131 -177 63 -126 82 -214 76 -361 -9 -194
-63 -316 -203 -457 -124 -124 -287 -205 -478 -235 -115 -19 -335 -8 -467 23
-282 66 -447 154 -612 325 -143 148 -207 261 -208 365 0 26 -7 83 -16 125 -19
93 -186 568 -305 867 -44 110 -44 110 -43 235 0 106 5 139 27 215 55 182 231
502 398 722 139 182 323 327 634 498 77 43 179 99 227 126 48 27 120 65 160
84 102 48 68 42 -96 -15z m-163 -927 c20 -12 1 -32 -50 -53 -55 -22 -318 -141
-393 -178 -86 -41 -236 -225 -318 -387 -56 -113 -94 -134 -107 -62 -21 110
115 377 284 556 62 67 91 76 109 36 16 -34 39 -32 130 14 80 40 185 77 237 84
30 4 93 -2 108 -10z"/>
<path d="M7093 4815 c0 -33 2 -45 4 -27 2 18 2 45 0 60 -2 15 -4 0 -4 -33z"/>
<path d="M6843 4105 c-12 -8 -43 -48 -69 -88 -26 -39 -80 -121 -119 -182 -62
-94 -73 -118 -79 -168 -9 -80 -42 -140 -127 -230 -132 -143 -348 -289 -583
-394 -127 -58 -575 -211 -711 -243 -176 -42 -298 -36 -547 26 -157 40 -208 59
-208 78 0 44 71 49 290 21 178 -23 363 -16 510 19 517 122 944 339 1217 618
68 69 100 127 81 146 -30 30 -87 1 -268 -133 -258 -191 -483 -310 -755 -400
-299 -99 -489 -123 -820 -106 -121 7 -258 17 -305 22 -280 33 -766 296 -1074
581 -145 135 -190 174 -181 158 4 -8 56 -87 114 -175 123 -187 262 -335 401
-427 92 -61 357 -196 497 -254 172 -71 208 -92 240 -136 42 -58 115 -100 293
-169 196 -75 236 -83 385 -75 176 11 196 16 254 69 44 38 68 50 168 82 405
127 520 172 694 270 126 72 200 127 289 216 137 138 217 261 321 490 55 121
149 367 149 389 0 15 -32 12 -57 -5z"/>
<path d="M3421 3156 c83 -76 308 -251 414 -321 212 -141 594 -355 679 -380 95
-29 188 -13 194 32 4 28 -23 46 -135 87 -110 41 -166 69 -285 145 -52 32 -200
112 -328 176 -129 65 -274 140 -323 167 -89 51 -240 116 -216 94z"/>
<path d="M6560 3135 c-20 -24 -336 -218 -440 -270 -194 -97 -409 -167 -692
-226 -122 -24 -149 -38 -132 -66 45 -75 298 -55 542 43 191 77 356 179 527
327 108 93 225 207 213 207 -3 0 -11 -7 -18 -15z"/>
<path d="M3946 2570 c5 -5 94 -52 197 -103 103 -52 194 -100 202 -107 8 -7 15
-8 15 -3 0 14 -51 59 -89 78 -62 31 -334 144 -325 135z"/>
<path d="M5815 2455 c-212 -39 -373 -44 -560 -19 -205 27 -374 5 -473 -63 -73
-50 -92 -77 -92 -129 0 -42 12 -64 25 -44 3 5 16 11 28 11 18 1 19 2 4 6 -26
7 -17 34 18 54 68 40 142 50 420 59 318 10 444 32 665 115 73 27 67 28 -35 10z"/>
</g>
</svg>
