<?xml version="1.0" standalone="no"?>
<!DOCTYPE svg PUBLIC "-//W3C//DTD SVG 20010904//EN"
 "http://www.w3.org/TR/2001/REC-SVG-20010904/DTD/svg10.dtd">
<svg version="1.0" xmlns="http://www.w3.org/2000/svg"
 width="1000.000000pt" height="1000.000000pt" viewBox="0 0 1000.000000 1000.000000"
 preserveAspectRatio="xMidYMid meet">
<metadata>
  <rdf:RDF
    xmlns:rdf = "http://www.w3.org/1999/02/22-rdf-syntax-ns#"
    xmlns:rdfs = "http://www.w3.org/2000/01/rdf-schema#"
    xmlns:dc = "http://purl.org/dc/elements/1.1/"
    xmlns:cc = "http://creativecommons.org/ns#">
    <cc:license rdf:resource="http://creativecommons.org/publicdomain/zero/1.0/deed.en"/>
    <cc:permits rdf:resource="http://creativecommons.org/ns#Reproduction"/>
    <rdf:Description about="https://nft.mir.one/fingerprints"
      dc:title="TON Fingerprints"
      dc:description="This is a unique digital fingerprint created based on the algorithm for generating basic rings using a noise texture. Like human fingerprints, you can now use it for the Web3 and Metaverse era as digital biometric information."
      dc:publisher="https://nft.mir.one"
      dc:date="2022-02-22"
      dc:format="image/svg+xml"
      dc:language="en" >
      <dc:creator>
      <rdf:Bag>
        <rdf:li>EQBondcvD2_aOFADXSWJHs4ZazQDuEl9_wNvGGPxI8hGuOFU</rdf:li>
        <rdf:li>ipfs://bafkreihj7iub3fhmhq6jn62noukt5wxn3gv6bvcg7wmt6ywvlurefezckq</rdf:li>
      </rdf:Bag>
      </dc:creator>
    </rdf:Description>
  </rdf:RDF>
</metadata>
<rect width="100%" height="100%" fill="#1b1f23"/>
<g transform="translate(0.000000,1000.000000) scale(0.100000,-0.100000)"
fill="#ffffff" stroke="none">
<path d="M4775 7733 c-140 -12 -435 -72 -506 -103 -24 -10 -24 -10 1 -6 47 9
225 25 396 37 345 22 718 -27 1035 -137 134 -46 364 -157 476 -228 97 -62 68
-35 -66 61 -387 279 -875 416 -1336 376z"/>
<path d="M4546 7515 c-219 -36 -430 -114 -631 -233 -51 -30 -309 -216 -340
-245 -6 -6 7 -7 35 -3 26 4 91 33 162 73 302 168 583 247 928 260 226 9 472
-17 812 -83 290 -56 467 -145 662 -334 126 -122 171 -181 242 -318 32 -62 123
-203 203 -315 163 -229 212 -305 253 -395 38 -84 74 -220 89 -340 13 -108 23
-129 39 -86 30 77 -46 407 -133 579 -38 75 -126 223 -234 388 -116 179 -139
228 -117 250 17 17 100 -52 203 -168 53 -60 53 -60 0 19 -71 104 -141 176
-172 176 -18 0 -41 21 -93 83 -169 202 -332 347 -506 451 -190 114 -395 178
-738 231 -149 23 -545 29 -664 10z"/>
<path d="M4548 7229 c-207 -20 -404 -76 -593 -168 -164 -80 -234 -134 -293
-228 -26 -41 -85 -125 -131 -186 -94 -127 -151 -234 -151 -287 0 -37 14 -60
36 -60 7 0 67 52 134 115 144 136 178 158 308 195 53 16 162 54 241 85 187 73
350 115 472 122 112 7 160 -5 202 -50 25 -27 36 -31 116 -38 118 -11 171 -24
266 -69 128 -59 235 -150 235 -200 0 -20 -41 -10 -118 29 -141 70 -203 86
-332 86 -133 0 -128 1 -465 -137 -357 -146 -516 -233 -683 -378 -260 -225
-368 -511 -518 -1365 -31 -180 -42 -401 -25 -528 22 -167 71 -306 192 -549 91
-182 150 -283 228 -388 67 -91 331 -356 421 -424 159 -120 310 -141 310 -44 0
34 -40 76 -229 238 -291 250 -465 469 -624 785 -111 223 -159 408 -160 620 -1
124 1 135 35 235 26 73 42 144 53 235 62 500 207 847 449 1073 145 134 310
232 537 317 91 34 141 58 178 89 69 57 141 79 271 84 82 3 128 -1 210 -18 169
-36 192 -39 243 -27 46 10 50 9 130 -32 255 -134 470 -311 692 -571 120 -140
162 -179 214 -202 24 -10 62 -39 84 -64 50 -57 76 -57 95 1 16 48 3 171 -27
257 -52 151 -176 339 -358 544 -86 97 -168 160 -298 235 -61 34 -175 103 -255
154 -80 51 -159 99 -177 109 -39 20 -87 21 -102 2 -25 -30 94 -129 419 -346
160 -106 203 -141 316 -254 186 -187 329 -388 360 -506 13 -52 9 -90 -11 -90
-6 0 -44 49 -83 108 -184 282 -365 463 -667 669 -168 114 -332 255 -397 341
-69 90 -134 118 -403 174 -328 68 -555 34 -930 -138 -77 -36 -149 -63 -160
-62 -39 6 -29 38 29 94 94 92 329 191 566 241 118 25 403 24 555 -1 161 -26
431 -84 470 -100 18 -8 69 -38 112 -67 193 -130 382 -237 440 -249 93 -18 94
-19 178 -105 153 -155 369 -453 445 -610 54 -111 78 -191 101 -330 10 -66 31
-178 45 -250 65 -321 35 -659 -91 -1042 -111 -338 -250 -553 -461 -712 -93
-70 -187 -114 -246 -115 -53 -1 -73 12 -64 42 4 11 55 57 114 103 240 187 383
374 485 634 142 361 175 744 87 1006 -29 85 -50 112 -128 164 -101 66 -203
159 -351 319 -211 228 -379 364 -566 458 -80 41 -128 57 -250 83 -211 47 -301
58 -418 52 -123 -6 -181 -23 -185 -54 -5 -34 25 -43 174 -53 338 -25 612 -121
852 -299 104 -77 438 -409 540 -536 81 -100 142 -217 166 -315 50 -211 20
-484 -83 -741 -77 -192 -169 -324 -366 -529 -72 -74 -152 -161 -179 -193 -27
-32 -67 -70 -90 -85 -55 -35 -96 -73 -96 -89 0 -7 12 -38 27 -68 42 -85 34
-91 -113 -87 -129 4 -383 -20 -459 -43 -110 -33 -116 -100 -13 -146 48 -22 66
-24 203 -24 124 1 163 5 228 23 99 28 124 41 187 97 57 50 52 49 213 70 247
33 432 128 614 318 140 146 211 271 297 525 123 361 186 708 186 1022 0 163
-14 248 -54 326 -20 38 -52 129 -71 204 -62 234 -112 335 -291 590 -52 74
-163 234 -247 355 -175 253 -266 352 -395 429 -121 72 -220 104 -360 116 -64
6 -205 23 -312 40 -322 48 -486 58 -682 39z m1139 -220 c86 -32 208 -107 276
-169 76 -70 108 -140 64 -140 -7 0 -49 27 -94 59 -95 70 -187 127 -280 175
-90 46 -108 60 -100 80 9 23 63 21 134 -5z"/>
<path d="M3453 6827 c-65 -69 -138 -164 -178 -232 -17 -30 -17 -30 5 0 13 17
68 74 124 128 100 98 136 141 136 165 0 24 -18 11 -87 -61z"/>
<path d="M4600 6723 c-150 -25 -291 -68 -510 -156 -221 -88 -268 -112 -412
-209 -127 -86 -172 -108 -217 -108 -42 0 -79 -36 -129 -123 -60 -105 -88 -192
-106 -332 -9 -66 -44 -237 -80 -380 -77 -316 -93 -418 -107 -712 -26 -542 9
-715 248 -1218 52 -110 106 -224 120 -254 43 -90 140 -209 304 -373 175 -174
192 -195 187 -234 -3 -26 4 -30 145 -96 334 -154 680 -237 994 -238 258 0 440
44 736 180 121 55 484 266 475 276 -7 6 -139 -40 -308 -106 -216 -84 -392
-142 -530 -171 -88 -19 -135 -23 -295 -23 -172 0 -210 3 -405 36 -118 20 -278
41 -355 47 -132 10 -178 20 -308 66 -41 15 -53 26 -93 88 -30 47 -96 120 -187
207 -186 179 -260 267 -307 365 -283 590 -306 647 -335 809 -19 111 -19 201 0
402 40 416 148 931 270 1285 68 196 144 297 327 434 206 156 426 263 787 386
156 53 220 79 242 100 45 42 35 54 -52 55 -41 1 -85 0 -99 -3z"/>
<path d="M3161 6332 c-18 -53 -46 -125 -62 -159 -15 -35 -26 -63 -23 -63 18 0
135 302 122 315 -2 2 -18 -40 -37 -93z"/>
<path d="M4542 6149 c-116 -20 -306 -115 -432 -217 -282 -230 -463 -611 -487
-1027 -4 -73 -1 -116 10 -160 22 -84 152 -454 188 -533 48 -108 137 -230 254
-351 201 -208 384 -343 558 -410 86 -32 100 -35 202 -35 92 1 147 9 335 48
266 56 306 72 356 135 21 25 132 141 248 256 222 221 293 309 366 453 125 248
163 527 106 756 -46 179 -170 380 -297 482 -37 30 -85 75 -106 100 -92 111
-278 252 -428 324 -96 46 -290 114 -400 140 -63 15 -392 54 -415 49 -3 -1 -29
-5 -58 -10z m428 -144 c25 -8 61 -27 80 -40 19 -13 89 -43 155 -65 288 -99
494 -257 581 -446 44 -96 72 -105 89 -26 8 37 28 42 49 10 22 -34 115 -282
139 -368 30 -111 30 -343 0 -455 -71 -259 -190 -422 -413 -567 -335 -218 -600
-334 -785 -345 -195 -11 -354 62 -565 262 -66 61 -99 84 -140 99 -134 45 -247
239 -331 572 -29 114 -33 144 -32 259 1 368 175 721 472 957 113 91 244 150
376 172 64 10 280 -2 325 -19z"/>
<path d="M4715 5933 c-74 -11 -155 -37 -220 -71 -81 -41 -241 -195 -343 -332
-178 -235 -254 -539 -207 -821 44 -266 192 -579 273 -579 48 0 42 78 -19 238
-51 137 -86 269 -100 385 -31 252 49 516 208 687 65 71 120 105 183 115 25 4
113 24 195 45 310 79 457 74 638 -22 74 -40 207 -164 280 -261 121 -161 161
-271 162 -442 0 -171 -16 -219 -177 -526 -24 -45 -27 -60 -19 -81 36 -96 189
17 282 207 63 130 89 239 89 377 0 123 -17 214 -61 330 -27 72 -41 92 -99 148
-37 36 -96 100 -130 144 -130 162 -333 287 -506 310 -74 11 -390 -45 -519 -91
-120 -43 -162 -47 -157 -18 12 71 172 138 392 164 52 6 107 16 123 22 33 14
36 44 5 60 -23 13 -217 21 -273 12z"/>
<path d="M4859 5545 c-191 -36 -343 -101 -432 -185 -75 -70 -119 -141 -161
-257 -30 -85 -31 -93 -31 -253 1 -140 4 -178 24 -250 29 -110 114 -335 159
-425 68 -137 221 -253 365 -278 78 -13 122 -3 150 35 34 46 12 77 -117 162
-177 116 -274 232 -351 421 -53 130 -69 206 -69 335 0 180 48 306 158 415 176
174 504 232 663 116 41 -30 57 -59 43 -81 -6 -10 -18 -8 -54 8 -129 61 -299
55 -430 -16 -246 -133 -315 -434 -166 -720 81 -157 198 -264 384 -353 104 -50
178 -60 256 -34 81 27 124 73 191 204 32 64 77 150 99 191 152 285 104 539
-153 807 -71 75 -132 116 -213 143 -78 27 -216 34 -315 15z m347 -310 c96 -2
122 -16 177 -97 93 -135 104 -325 25 -410 -18 -19 -35 -28 -50 -26 -23 3 -23
5 -20 113 5 130 -15 198 -75 260 -66 68 -182 100 -273 75 -59 -16 -126 -82
-135 -133 -16 -86 37 -177 104 -177 83 0 115 135 39 163 -10 3 -10 9 -2 23 17
29 73 30 114 2 57 -39 80 -97 93 -242 13 -148 8 -164 -65 -206 -116 -67 -290
-1 -375 141 -50 83 -68 169 -54 248 15 78 31 110 84 168 72 78 177 117 282
106 28 -3 86 -7 131 -8z"/>
<path d="M3066 5833 c-5 -17 -20 -90 -111 -528 -18 -88 -35 -189 -39 -225 -6
-65 -6 -65 13 10 11 41 27 92 35 112 30 69 114 384 132 490 14 85 16 111 6
132 -13 30 -28 34 -36 9z"/>
<path d="M2901 4984 c0 -11 3 -14 6 -6 3 7 2 16 -1 19 -3 4 -6 -2 -5 -13z"/>
<path d="M3509 4594 c-37 -45 -15 -282 42 -461 112 -350 342 -668 724 -998 72
-62 184 -166 250 -231 128 -127 164 -150 309 -199 178 -60 427 -69 641 -25
187 39 543 169 680 249 285 165 575 502 699 811 29 73 198 699 195 726 -2 24
-124 -359 -155 -486 -41 -170 -61 -218 -140 -331 -158 -226 -372 -396 -646
-512 -133 -57 -505 -191 -583 -211 -150 -37 -314 -45 -428 -21 -97 20 -161 52
-252 126 -44 36 -144 105 -223 155 -264 164 -452 317 -605 492 -213 243 -305
416 -387 722 -22 83 -47 164 -55 180 -17 33 -45 39 -66 14z"/>
</g>
</svg>
