<?xml version="1.0" standalone="no"?>
<!DOCTYPE svg PUBLIC "-//W3C//DTD SVG 20010904//EN"
 "http://www.w3.org/TR/2001/REC-SVG-20010904/DTD/svg10.dtd">
<svg version="1.0" xmlns="http://www.w3.org/2000/svg"
 width="1000.000000pt" height="1000.000000pt" viewBox="0 0 1000.000000 1000.000000"
 preserveAspectRatio="xMidYMid meet">
<metadata>
  <rdf:RDF
    xmlns:rdf = "http://www.w3.org/1999/02/22-rdf-syntax-ns#"
    xmlns:rdfs = "http://www.w3.org/2000/01/rdf-schema#"
    xmlns:dc = "http://purl.org/dc/elements/1.1/"
    xmlns:cc = "http://creativecommons.org/ns#">
    <cc:license rdf:resource="http://creativecommons.org/publicdomain/zero/1.0/deed.en"/>
    <cc:permits rdf:resource="http://creativecommons.org/ns#Reproduction"/>
    <rdf:Description about="https://nft.mir.one/fingerprints"
      dc:title="TON Fingerprints"
      dc:description="This is a unique digital fingerprint created based on the algorithm for generating basic rings using a noise texture. Like human fingerprints, you can now use it for the Web3 and Metaverse era as digital biometric information."
      dc:publisher="https://nft.mir.one"
      dc:date="2022-02-22"
      dc:format="image/svg+xml"
      dc:language="en" >
      <dc:creator>
      <rdf:Bag>
        <rdf:li>EQBondcvD2_aOFADXSWJHs4ZazQDuEl9_wNvGGPxI8hGuOFU</rdf:li>
        <rdf:li>ipfs://bafkreihj7iub3fhmhq6jn62noukt5wxn3gv6bvcg7wmt6ywvlurefezckq</rdf:li>
      </rdf:Bag>
      </dc:creator>
    </rdf:Description>
  </rdf:RDF>
</metadata>
<rect width="100%" height="100%" fill="#1b1f23"/>
<g transform="translate(0.000000,1000.000000) scale(0.100000,-0.100000)"
fill="#ffffff" stroke="none">
<path d="M4673 7783 c9 -2 23 -2 30 0 6 3 -1 5 -18 5 -16 0 -22 -2 -12 -5z"/>
<path d="M4735 7773 c132 -29 438 -108 499 -128 293 -96 706 -308 971 -499 60
-44 137 -97 170 -119 33 -22 86 -60 118 -84 31 -24 57 -42 57 -39 0 11 -312
294 -395 359 -367 286 -783 460 -1207 506 -93 11 -254 13 -213 4z"/>
<path d="M4470 7593 c-19 -2 -94 -12 -167 -23 -73 -11 -149 -20 -170 -20 -38
-1 -38 -1 17 -21 84 -32 204 -48 445 -59 382 -17 544 -55 755 -177 47 -27 182
-96 300 -155 303 -149 404 -217 610 -413 153 -146 473 -392 565 -434 50 -23
50 -23 14 16 -20 21 -62 72 -94 113 -171 220 -460 512 -613 620 -145 103 -301
193 -527 305 -436 215 -584 256 -920 253 -99 0 -196 -3 -215 -5z"/>
<path d="M3995 7356 c-56 -14 -225 -76 -225 -83 0 -3 82 -1 183 2 147 6 185 4
200 -7 43 -32 -8 -65 -149 -98 -163 -38 -303 -121 -519 -308 -60 -53 -114 -99
-119 -103 -26 -23 142 51 284 125 173 88 235 115 335 140 124 32 311 56 427
56 117 0 117 0 167 -44 66 -59 122 -70 456 -91 285 -17 356 -29 508 -81 200
-70 527 -240 527 -274 0 -25 -37 -35 -92 -26 -23 4 -128 42 -233 85 -374 155
-558 195 -879 193 -164 -1 -205 3 -305 23 -64 13 -162 29 -219 34 -56 6 -123
16 -148 22 -57 15 -174 7 -239 -16 -27 -9 -104 -50 -170 -89 -66 -40 -153 -92
-193 -115 -83 -48 -203 -147 -340 -279 -94 -91 -94 -91 -40 -78 29 7 91 29
138 48 47 20 125 50 174 68 65 25 102 46 140 80 85 78 100 83 281 91 121 5
181 12 245 30 67 18 108 23 195 22 145 -1 239 -26 365 -97 112 -64 164 -86
365 -156 399 -139 786 -312 993 -444 373 -238 684 -557 886 -910 16 -26 45
-65 65 -86 37 -38 37 -38 -6 123 -49 184 -88 297 -145 412 -33 66 -58 98 -139
177 -205 201 -515 422 -744 533 -253 122 -603 251 -1040 384 -116 35 -168 64
-163 89 3 15 15 17 88 16 143 -2 419 -73 700 -181 80 -30 222 -82 315 -115 94
-33 204 -77 245 -98 163 -82 567 -371 715 -510 28 -26 71 -58 96 -72 46 -25
46 -25 -27 103 -137 242 -202 311 -489 514 -320 226 -318 225 -335 274 -19 59
-87 131 -184 195 -161 108 -523 265 -616 268 -19 0 -53 -6 -75 -15 -47 -19
-132 -21 -295 -7 -63 5 -171 12 -239 14 -68 3 -128 9 -134 15 -15 15 27 57 72
73 57 20 231 15 411 -12 91 -13 174 -21 183 -17 24 9 21 40 -6 65 -88 83 -383
135 -644 113 -212 -17 -277 -15 -373 14 -91 27 -157 30 -235 11z m169 -546
c28 -28 -74 -72 -196 -86 -50 -6 -59 -4 -64 11 -10 24 25 49 95 69 93 26 142
28 165 6z"/>
<path d="M4190 6544 c-14 -2 -104 -8 -200 -14 -181 -10 -239 -20 -265 -46 -24
-24 -18 -44 20 -60 26 -10 81 -14 222 -14 231 0 400 -14 502 -40 42 -10 155
-51 251 -89 96 -38 240 -94 320 -124 599 -228 958 -446 1263 -767 282 -296
436 -585 538 -1005 17 -71 44 -157 60 -190 32 -66 85 -152 74 -120 -4 11 -11
153 -16 315 -10 341 -20 405 -82 535 -185 383 -536 753 -952 1002 -204 123
-439 230 -810 371 -116 44 -250 96 -300 117 -256 107 -325 126 -485 130 -63 2
-126 2 -140 -1z"/>
<path d="M3475 6291 c-164 -44 -239 -94 -375 -243 -52 -58 -52 -58 -18 -51 18
3 78 24 133 46 130 51 294 93 418 108 138 16 646 6 745 -15 40 -8 84 -21 99
-28 30 -15 51 -43 39 -55 -4 -4 -177 -8 -384 -8 -460 -1 -570 -14 -847 -106
-94 -30 -124 -51 -246 -163 -58 -54 -58 -54 -23 -59 24 -4 72 6 161 34 414
129 525 147 1013 160 190 6 381 12 425 15 250 16 822 -238 1170 -519 106 -85
284 -270 366 -380 185 -247 306 -543 327 -800 5 -56 8 -342 8 -635 -1 -406 1
-529 10 -517 18 25 71 216 104 375 24 115 30 171 30 270 0 157 16 330 35 394
44 143 -16 420 -149 691 -212 432 -575 779 -1075 1030 -202 101 -300 142 -591
244 -74 27 -186 74 -249 105 -190 96 -286 111 -776 120 -254 5 -287 4 -350
-13z"/>
<path d="M3840 5775 c-201 -25 -357 -60 -545 -122 -146 -48 -176 -64 -227
-122 -32 -38 -148 -222 -148 -236 0 -9 76 27 130 61 216 137 488 227 809 269
161 21 520 21 687 0 718 -89 1403 -666 1579 -1330 38 -140 55 -256 64 -430 9
-163 -1 -576 -14 -607 -12 -29 -33 -21 -60 22 -15 24 -33 40 -45 40 -23 0 -26
-18 -34 -165 -3 -55 -12 -147 -20 -205 -27 -199 -30 -282 -11 -347 17 -58 17
-58 30 -18 6 22 31 85 55 140 64 150 79 199 90 299 13 114 31 163 74 205 40
38 73 37 62 -2 -11 -38 -17 -289 -9 -357 8 -65 8 -65 46 47 33 99 37 122 37
212 0 84 -4 109 -21 143 -21 40 -21 50 -15 272 12 384 -11 671 -69 870 -110
381 -402 761 -779 1015 -237 160 -508 282 -746 337 -101 23 -758 30 -920 9z"/>
<path d="M3985 5513 c-393 -34 -827 -199 -923 -351 -41 -64 -78 -158 -107
-274 -14 -53 -29 -109 -35 -123 -10 -26 -10 -26 30 6 22 18 68 72 101 121 134
196 271 294 531 379 166 54 313 80 505 86 446 16 815 -102 1147 -367 221 -176
446 -459 546 -687 83 -188 129 -455 115 -658 -9 -134 -41 -252 -113 -420 -33
-77 -78 -184 -101 -238 -55 -131 -79 -166 -175 -267 -88 -92 -125 -153 -109
-179 17 -27 37 -23 108 24 77 50 78 50 94 32 8 -10 4 -25 -18 -59 -32 -51 -75
-81 -140 -98 -63 -17 -150 -102 -183 -179 -26 -60 -26 -60 37 -12 82 63 159
106 215 121 57 15 110 65 161 151 21 37 46 70 56 73 23 9 43 -19 43 -60 0 -18
5 -57 12 -86 11 -53 11 -53 30 6 12 41 20 106 24 205 6 147 23 249 79 473 33
129 47 162 89 208 44 49 51 103 50 390 0 325 -40 505 -164 755 -87 175 -174
298 -315 443 -341 354 -726 541 -1195 582 -108 9 -306 11 -395 3z"/>
<path d="M3985 5223 c-171 -15 -414 -85 -558 -161 -139 -72 -241 -184 -212
-232 15 -24 76 -8 192 49 244 120 439 170 698 178 196 6 301 -8 450 -59 264
-90 499 -271 653 -502 68 -102 80 -146 68 -236 -9 -64 -6 -95 22 -269 42 -251
55 -429 50 -661 -5 -216 -19 -270 -112 -454 -115 -226 -265 -414 -416 -523
-105 -75 -179 -137 -155 -130 11 3 76 20 144 37 206 52 334 122 400 219 21 31
57 93 79 138 23 45 66 119 96 166 68 105 105 178 156 309 33 83 50 111 86 145
202 188 182 799 -37 1120 -131 192 -390 473 -529 575 -308 225 -682 326 -1075
291z m1445 -940 c34 -23 46 -39 79 -103 66 -127 101 -304 101 -515 0 -136 -18
-303 -39 -358 -13 -34 -36 -34 -58 0 -15 23 -19 62 -24 277 -8 286 -24 390
-88 578 -22 61 -37 118 -34 125 7 18 34 16 63 -4z"/>
<path d="M4040 4916 c-170 -25 -301 -57 -499 -123 -121 -40 -220 -66 -260 -70
-135 -12 -183 -65 -230 -249 -20 -79 -42 -270 -40 -349 1 -40 1 -40 8 -3 10
51 76 181 112 222 39 45 206 164 284 203 130 66 338 116 486 117 96 1 96 1
155 -54 33 -30 100 -79 149 -109 170 -105 263 -202 331 -346 74 -161 87 -305
39 -455 -38 -118 -86 -220 -141 -297 -44 -62 -48 -65 -79 -59 -58 11 -159 -35
-414 -187 -134 -80 -228 -101 -348 -78 -26 5 -68 12 -93 15 -45 6 -45 6 47
-54 105 -69 212 -117 279 -127 44 -6 47 -4 92 40 26 25 92 73 146 107 123 76
197 133 260 199 26 29 53 50 60 48 6 -2 12 -20 14 -41 8 -93 -144 -241 -337
-329 -124 -56 -146 -83 -89 -113 101 -52 340 59 481 223 66 79 147 248 213
450 63 190 76 216 107 211 20 -3 22 -9 25 -91 6 -200 -98 -475 -246 -649 -142
-167 -362 -287 -532 -289 -30 0 -84 -6 -119 -12 -64 -13 -64 -13 35 -45 171
-56 289 -64 395 -27 69 25 208 124 294 210 158 159 263 358 300 574 28 157 17
269 -35 385 -16 35 -43 118 -59 185 -57 226 -127 364 -247 485 -112 114 -234
185 -389 227 -121 32 -132 42 -94 78 97 90 433 -30 623 -224 158 -160 229
-325 312 -730 85 -413 -26 -795 -315 -1084 -82 -82 -220 -180 -334 -237 -38
-19 -86 -47 -107 -63 -38 -27 -38 -27 54 -23 131 6 280 36 354 73 82 40 225
181 310 307 83 121 156 276 189 399 25 93 27 111 27 333 1 150 -4 264 -12 315
-37 221 -94 482 -120 543 -89 212 -289 398 -542 504 -156 66 -329 88 -500 64z"/>
<path d="M3783 4437 c-55 -20 -73 -42 -73 -87 0 -22 -9 -73 -20 -112 -25 -91
-26 -189 -1 -243 36 -79 117 -126 190 -110 34 7 81 57 81 86 0 20 -33 59 -50
59 -5 0 -19 -9 -30 -20 -55 -55 -99 20 -62 104 76 171 336 62 308 -129 -14
-88 -102 -180 -201 -206 -156 -43 -325 78 -364 259 -22 105 -8 177 54 287 51
89 48 105 -18 105 -64 0 -120 -39 -153 -107 -26 -52 -28 -67 -29 -168 0 -133
24 -222 85 -313 49 -73 108 -123 194 -163 184 -86 351 -54 499 96 81 81 113
105 145 105 31 0 29 -27 -8 -99 -68 -136 -206 -238 -352 -263 -163 -28 -400
66 -528 210 -102 114 -150 254 -150 442 0 109 -7 130 -41 130 -10 0 -29 -13
-42 -30 -100 -119 -13 -465 165 -655 83 -89 177 -145 333 -198 72 -24 151 -53
177 -63 47 -18 48 -18 125 5 185 54 335 157 392 272 51 102 52 182 5 239 -20
23 -27 46 -34 112 -4 46 -16 103 -26 128 -47 122 -148 226 -283 293 -77 38
-92 42 -170 44 -49 1 -100 -3 -118 -10z"/>
<path d="M6766 4068 c-13 -19 -16 -57 -15 -223 0 -110 6 -231 12 -270 12 -70
12 -70 40 105 32 201 36 353 11 388 -8 12 -19 22 -24 22 -5 0 -16 -10 -24 -22z"/>
<path d="M3186 3620 c144 -209 268 -335 394 -401 61 -31 179 -33 229 -4 80 47
62 76 -59 95 -113 18 -225 58 -304 110 -80 53 -214 163 -264 218 -34 37 -34
37 4 -18z"/>
</g>
</svg>
