<?xml version="1.0" standalone="no"?>
<!DOCTYPE svg PUBLIC "-//W3C//DTD SVG 20010904//EN"
 "http://www.w3.org/TR/2001/REC-SVG-20010904/DTD/svg10.dtd">
<svg version="1.0" xmlns="http://www.w3.org/2000/svg"
 width="1000.000000pt" height="1000.000000pt" viewBox="0 0 1000.000000 1000.000000"
 preserveAspectRatio="xMidYMid meet">
<metadata>
  <rdf:RDF
    xmlns:rdf = "http://www.w3.org/1999/02/22-rdf-syntax-ns#"
    xmlns:rdfs = "http://www.w3.org/2000/01/rdf-schema#"
    xmlns:dc = "http://purl.org/dc/elements/1.1/"
    xmlns:cc = "http://creativecommons.org/ns#">
    <cc:license rdf:resource="http://creativecommons.org/publicdomain/zero/1.0/deed.en"/>
    <cc:permits rdf:resource="http://creativecommons.org/ns#Reproduction"/>
    <rdf:Description about="https://nft.mir.one/fingerprints"
      dc:title="TON Fingerprints"
      dc:description="This is a unique digital fingerprint created based on the algorithm for generating basic rings using a noise texture. Like human fingerprints, you can now use it for the Web3 and Metaverse era as digital biometric information."
      dc:publisher="https://nft.mir.one"
      dc:date="2022-02-22"
      dc:format="image/svg+xml"
      dc:language="en" >
      <dc:creator>
      <rdf:Bag>
        <rdf:li>EQBondcvD2_aOFADXSWJHs4ZazQDuEl9_wNvGGPxI8hGuOFU</rdf:li>
        <rdf:li>ipfs://bafkreihj7iub3fhmhq6jn62noukt5wxn3gv6bvcg7wmt6ywvlurefezckq</rdf:li>
      </rdf:Bag>
      </dc:creator>
    </rdf:Description>
  </rdf:RDF>
</metadata>
<rect width="100%" height="100%" fill="#1b1f23"/>
<g transform="translate(0.000000,1000.000000) scale(0.100000,-0.100000)"
fill="#ffffff" stroke="none">
<path d="M4838 7803 c17 -2 47 -2 65 0 17 2 3 4 -33 4 -36 0 -50 -2 -32 -4z"/>
<path d="M5030 7784 c184 -28 436 -98 585 -163 104 -46 174 -98 310 -231 77
-75 185 -170 240 -210 55 -40 132 -103 170 -141 45 -44 100 -84 153 -113 83
-45 83 -45 -34 77 -145 150 -219 217 -404 367 -177 142 -238 184 -356 243
-202 102 -539 190 -711 186 -38 -1 -28 -4 47 -15z"/>
<path d="M4706 7639 c-256 -22 -480 -88 -714 -209 -53 -28 -88 -48 -77 -45 32
10 241 65 345 90 475 116 1031 65 1419 -129 96 -48 121 -52 121 -16 0 37 -68
98 -161 145 -170 85 -398 145 -624 164 -133 12 -178 12 -309 0z"/>
<path d="M4595 7419 c-121 -13 -323 -54 -415 -85 -253 -84 -598 -323 -544
-377 4 -4 20 3 35 14 55 39 294 147 424 192 244 83 455 124 705 133 187 8 305
-4 518 -50 86 -19 201 -42 255 -51 231 -36 221 -83 -18 -84 -119 -1 -194 10
-300 44 -161 51 -371 55 -655 15 -221 -32 -425 -91 -715 -205 -66 -26 -153
-53 -193 -60 -48 -9 -86 -22 -113 -41 -75 -52 -216 -224 -359 -439 -73 -110
-73 -110 61 22 159 157 240 223 323 265 112 56 645 244 806 283 366 89 830
113 830 44 0 -21 -71 -38 -250 -58 -334 -39 -530 -81 -794 -171 -490 -167
-705 -294 -866 -510 -113 -153 -174 -295 -220 -516 -78 -372 -81 -390 -87
-604 -6 -244 -1 -270 64 -309 24 -14 51 -37 62 -51 36 -48 306 -595 328 -665
12 -38 27 -95 33 -126 6 -31 27 -84 48 -119 45 -76 185 -227 266 -287 55 -41
62 -43 127 -43 61 0 91 -8 242 -65 324 -120 458 -149 702 -149 225 -1 364 32
725 169 183 70 261 85 280 55 15 -22 -15 -43 -175 -121 -145 -70 -311 -130
-500 -179 -374 -97 -725 -51 -1120 145 -83 41 -163 75 -178 75 -24 0 -27 -4
-27 -31 0 -52 110 -151 246 -221 211 -110 392 -157 630 -165 207 -7 313 9 529
82 88 29 187 59 220 65 137 27 383 187 430 280 16 32 48 68 98 108 92 76 126
117 231 284 130 208 186 329 221 482 51 219 70 561 41 735 -30 176 -98 338
-194 457 -83 103 -185 154 -212 105 -18 -35 -11 -60 59 -199 134 -264 176
-466 151 -717 -37 -371 -177 -620 -385 -685 -22 -7 -121 -44 -219 -82 -267
-103 -373 -128 -576 -134 -103 -4 -200 -13 -259 -25 -113 -23 -200 -24 -339
-3 -252 37 -437 129 -598 295 -198 205 -353 574 -328 779 7 59 111 368 174
516 124 291 347 573 552 696 135 80 239 113 584 182 387 78 626 106 904 106
344 0 493 -36 845 -205 142 -69 237 -109 214 -92 -9 7 -56 64 -103 127 -287
380 -350 414 -724 390 -335 -21 -674 -69 -1092 -155 -335 -69 -467 -108 -635
-190 -164 -79 -226 -132 -356 -298 -213 -274 -308 -432 -389 -645 -60 -161
-84 -208 -111 -223 -17 -9 -25 -8 -37 4 -13 14 -14 27 -3 102 31 221 132 417
371 715 55 70 107 145 116 170 9 25 21 58 27 74 14 39 103 102 245 174 247
125 381 163 1145 317 361 72 573 110 673 120 186 18 224 38 190 104 -29 56
-159 111 -262 111 -42 0 -72 -10 -165 -55 -81 -39 -148 -62 -229 -81 -63 -15
-178 -42 -255 -61 -76 -19 -250 -57 -385 -84 -454 -92 -540 -120 -960 -309
-113 -51 -241 -116 -285 -145 -103 -68 -220 -190 -324 -337 -45 -64 -88 -122
-96 -128 -24 -20 -45 -4 -45 32 1 119 192 377 385 521 183 136 611 316 958
402 78 19 234 51 347 70 218 38 282 53 370 90 30 13 102 30 160 39 187 29 240
45 288 89 12 11 22 28 22 36 0 9 11 29 25 45 27 32 32 67 12 84 -28 24 -466
144 -627 173 -134 24 -432 33 -575 18z m-690 -1202 c16 -13 8 -24 -112 -143
-144 -143 -350 -408 -401 -515 -48 -100 -65 -180 -60 -284 4 -95 3 -92 80
-214 9 -14 28 -80 43 -146 59 -269 185 -571 326 -780 170 -254 464 -404 930
-474 75 -12 156 -28 180 -37 29 -12 76 -18 139 -18 102 -1 133 9 195 63 22 19
66 36 150 59 174 46 347 103 484 161 67 28 132 51 146 51 61 0 31 -82 -49
-136 -35 -23 -132 -61 -311 -120 -143 -47 -307 -103 -365 -124 -145 -51 -222
-64 -344 -57 -305 18 -654 110 -931 247 -124 61 -222 148 -299 263 -55 84
-191 369 -318 666 -39 91 -94 214 -124 272 -70 141 -87 208 -86 339 1 191 59
351 156 436 31 27 101 103 155 169 162 198 262 290 348 321 48 17 46 17 68 1z
m1267 -2474 c34 -31 3 -44 -105 -46 -76 -1 -100 2 -113 14 -13 14 -13 17 1 29
39 32 183 34 217 3z"/>
<path d="M5494 6250 c-153 -11 -311 -33 -487 -71 -76 -16 -181 -34 -235 -39
-104 -11 -212 -39 -277 -72 -292 -148 -565 -550 -616 -908 -15 -101 -11 -122
35 -180 18 -25 55 -99 81 -165 113 -289 227 -437 459 -598 99 -69 120 -92 96
-108 -63 -42 -308 104 -432 258 -76 95 -90 116 -141 218 -45 92 -73 170 -102
283 -19 76 -34 102 -57 102 -32 0 -53 -58 -52 -140 3 -175 126 -428 291 -601
116 -122 249 -205 376 -234 147 -34 642 -28 870 11 228 39 527 178 659 307
101 98 174 250 204 419 23 134 15 330 -21 458 -24 87 -126 342 -181 451 -31
63 -92 114 -188 160 -111 53 -204 72 -356 72 -150 0 -244 -18 -349 -68 -114
-54 -157 -94 -177 -163 -9 -31 -47 -113 -85 -182 -97 -178 -112 -223 -113
-345 -1 -88 2 -107 25 -155 14 -31 40 -72 57 -91 78 -89 216 -122 339 -80 154
52 170 60 187 95 50 105 -29 253 -155 290 -86 26 -125 20 -177 -27 -29 -27
-45 -87 -32 -121 12 -34 35 -42 66 -25 18 9 30 10 42 3 29 -19 26 -49 -9 -79
-28 -23 -40 -26 -73 -22 -84 12 -136 83 -135 187 0 78 14 119 97 277 40 77 80
138 110 169 130 132 366 159 567 65 216 -101 366 -404 352 -710 -13 -293 -159
-507 -442 -649 -163 -81 -321 -116 -525 -116 -139 1 -225 15 -285 48 -64 35
-335 268 -390 335 -144 176 -256 453 -257 636 -2 334 283 741 591 845 68 22
103 18 99 -14 -2 -14 -39 -45 -113 -95 -317 -214 -484 -522 -446 -821 11 -88
54 -226 93 -305 65 -127 218 -298 346 -384 147 -99 252 -127 437 -118 286 14
537 167 645 392 52 109 65 171 64 295 -4 256 -132 450 -348 526 -56 20 -185
19 -247 -1 -53 -18 -129 -81 -129 -108 0 -28 41 -47 100 -47 221 0 377 -149
388 -370 15 -308 -211 -539 -528 -540 -339 -1 -655 320 -677 685 -10 160 29
305 120 443 67 103 141 174 277 266 63 43 143 97 178 121 68 48 164 83 308
112 68 13 135 17 284 17 218 0 292 -13 549 -94 241 -75 339 -140 460 -301 120
-159 188 -318 212 -495 14 -104 7 -351 -16 -554 -8 -74 -15 -171 -15 -215 0
-44 -7 -110 -15 -147 -37 -177 -234 -486 -445 -699 -86 -88 -101 -99 -162
-119 -46 -15 -99 -44 -165 -92 -171 -123 -222 -169 -270 -243 -25 -38 -61 -89
-79 -111 -18 -23 -39 -54 -46 -69 -11 -24 -10 -29 7 -41 23 -17 61 -11 119 18
32 17 43 18 67 7 60 -24 153 9 298 106 93 62 186 149 264 243 34 42 122 144
196 227 74 82 154 177 178 209 66 90 145 236 211 392 33 77 83 183 110 235 52
97 80 183 106 328 20 103 20 160 1 72 -33 -148 -112 -325 -157 -350 -58 -33
-65 22 -29 234 34 202 45 331 45 545 0 194 -1 209 -25 281 -30 89 -84 174
-203 322 -99 124 -112 146 -127 217 -7 32 -21 60 -37 76 -35 32 -177 105 -272
139 -192 69 -501 103 -766 85z m633 -2927 c12 -31 -39 -105 -122 -174 -124
-104 -314 -239 -321 -228 -22 37 39 117 168 222 51 41 127 102 168 136 78 64
97 72 107 44z"/>
<path d="M6653 6040 c-52 -22 -30 -52 160 -213 70 -59 127 -112 127 -117 0 -5
22 -21 49 -34 49 -25 49 -25 -9 87 -66 127 -126 208 -186 250 -44 31 -105 43
-141 27z"/>
<path d="M4714 5662 c-59 -43 -140 -136 -179 -206 -78 -140 -106 -287 -82
-428 51 -293 287 -508 557 -508 119 0 238 51 288 124 25 37 29 94 7 102 -8 3
-56 -14 -107 -38 -90 -42 -96 -43 -193 -43 -92 0 -106 3 -168 32 -216 103
-311 364 -222 612 30 83 66 147 135 241 59 81 73 108 66 126 -9 23 -60 16
-102 -14z"/>
<path d="M7092 4900 c0 -14 2 -19 5 -12 2 6 2 18 0 25 -3 6 -5 1 -5 -13z"/>
<path d="M3006 4844 c-10 -27 -7 -83 14 -203 27 -156 31 -170 60 -184 18 -9
50 -61 114 -186 59 -114 103 -189 132 -218 51 -54 78 -55 82 -2 2 28 -15 71
-82 206 -46 94 -108 208 -136 254 -45 70 -150 309 -150 339 0 16 -27 11 -34
-6z"/>
<path d="M7082 4795 c0 -16 2 -22 5 -12 2 9 2 23 0 30 -3 6 -5 -1 -5 -18z"/>
<path d="M3031 4441 c-17 -30 -13 -80 13 -183 45 -179 110 -313 261 -543 176
-267 422 -522 637 -662 159 -103 379 -194 566 -233 259 -55 625 -25 805 67 56
28 210 170 233 216 35 67 -26 63 -169 -11 -211 -109 -350 -138 -621 -129 -138
4 -191 10 -271 30 -204 52 -386 134 -524 237 -83 63 -117 97 -213 211 -148
178 -355 409 -424 472 -81 75 -147 168 -193 270 -40 88 -71 191 -71 232 0 40
-15 53 -29 26z"/>
<path d="M3250 3485 c362 -545 746 -850 1230 -976 153 -40 290 -48 465 -25
231 30 423 65 611 111 278 68 370 105 526 211 255 173 433 350 652 647 57 78
57 78 -5 30 -34 -26 -127 -109 -208 -184 -334 -312 -509 -436 -702 -498 -79
-26 -242 -51 -329 -51 -36 0 -112 -12 -170 -26 -493 -120 -826 -95 -1219 92
-259 123 -357 198 -660 503 -236 237 -242 243 -191 166z"/>
<path d="M6129 2685 c-88 -56 -131 -74 -284 -124 -99 -32 -227 -77 -285 -99
-118 -45 -157 -53 -385 -82 -88 -11 -202 -32 -255 -47 -86 -23 -107 -25 -215
-20 -131 6 -314 41 -460 87 -49 16 -90 28 -92 26 -3 -3 154 -66 242 -96 207
-72 455 -107 529 -76 21 9 80 20 130 26 50 5 138 14 196 20 152 16 263 45 344
89 39 22 134 64 211 96 169 68 224 98 335 183 138 106 137 109 -11 17z"/>
</g>
</svg>
