<?xml version="1.0" standalone="no"?>
<!DOCTYPE svg PUBLIC "-//W3C//DTD SVG 20010904//EN"
 "http://www.w3.org/TR/2001/REC-SVG-20010904/DTD/svg10.dtd">
<svg version="1.0" xmlns="http://www.w3.org/2000/svg"
 width="1000.000000pt" height="1000.000000pt" viewBox="0 0 1000.000000 1000.000000"
 preserveAspectRatio="xMidYMid meet">
<metadata>
  <rdf:RDF
    xmlns:rdf = "http://www.w3.org/1999/02/22-rdf-syntax-ns#"
    xmlns:rdfs = "http://www.w3.org/2000/01/rdf-schema#"
    xmlns:dc = "http://purl.org/dc/elements/1.1/"
    xmlns:cc = "http://creativecommons.org/ns#">
    <cc:license rdf:resource="http://creativecommons.org/publicdomain/zero/1.0/deed.en"/>
    <cc:permits rdf:resource="http://creativecommons.org/ns#Reproduction"/>
    <rdf:Description about="https://nft.mir.one/fingerprints"
      dc:title="TON Fingerprints"
      dc:description="This is a unique digital fingerprint created based on the algorithm for generating basic rings using a noise texture. Like human fingerprints, you can now use it for the Web3 and Metaverse era as digital biometric information."
      dc:publisher="https://nft.mir.one"
      dc:date="2022-02-22"
      dc:format="image/svg+xml"
      dc:language="en" >
      <dc:creator>
      <rdf:Bag>
        <rdf:li>EQBondcvD2_aOFADXSWJHs4ZazQDuEl9_wNvGGPxI8hGuOFU</rdf:li>
        <rdf:li>ipfs://bafkreihj7iub3fhmhq6jn62noukt5wxn3gv6bvcg7wmt6ywvlurefezckq</rdf:li>
      </rdf:Bag>
      </dc:creator>
    </rdf:Description>
  </rdf:RDF>
</metadata>
<rect width="100%" height="100%" fill="#1b1f23"/>
<g transform="translate(0.000000,1000.000000) scale(0.100000,-0.100000)"
fill="#ffffff" stroke="none">
<path d="M4645 7689 c-187 -26 -254 -47 -420 -133 -125 -65 -430 -246 -413
-246 5 0 146 63 448 200 141 65 195 77 400 96 205 19 347 14 440 -15 81 -25
210 -127 210 -166 0 -48 -182 -174 -296 -204 -22 -6 -114 -22 -205 -36 -275
-42 -384 -72 -589 -162 -166 -73 -495 -240 -597 -303 -90 -55 -381 -324 -421
-388 -30 -49 -115 -216 -136 -267 -15 -38 -15 -39 2 -15 9 13 57 69 107 123
80 88 111 113 305 241 257 170 308 200 510 301 85 42 202 104 260 136 191 105
405 159 637 159 136 0 182 -12 358 -94 283 -132 351 -177 431 -279 27 -34 145
-161 264 -282 225 -230 335 -364 435 -534 52 -88 63 -100 96 -110 76 -23 128
-105 193 -303 120 -366 145 -774 71 -1144 -58 -286 -187 -575 -252 -562 -10 2
-19 12 -21 24 -2 11 24 101 57 200 64 192 103 352 122 504 18 137 15 421 -5
565 -40 281 -129 586 -199 679 -14 19 -14 19 -35 -2 -33 -33 -28 -101 22 -339
118 -551 114 -834 -20 -1328 -25 -93 -50 -210 -55 -260 -12 -117 -35 -178
-130 -355 -43 -80 -98 -199 -124 -264 -57 -148 -102 -223 -182 -304 -107 -107
-184 -151 -509 -290 -309 -133 -430 -170 -744 -232 -58 -11 -121 -21 -140 -21
-29 -1 -25 -3 20 -11 81 -14 367 -2 480 21 394 80 847 284 1032 465 75 73 112
129 158 236 102 234 224 434 360 590 110 127 167 233 234 435 72 219 104 407
113 660 9 268 -19 461 -107 726 -61 185 -131 352 -179 427 -87 134 -383 447
-715 757 -87 82 -117 116 -115 130 18 91 258 -80 654 -465 387 -376 372 -363
450 -383 39 -11 76 -23 83 -29 25 -22 -154 240 -215 313 -66 78 -320 319 -467
441 -177 148 -320 237 -453 282 -39 13 -121 46 -184 74 -147 65 -190 79 -328
107 -148 30 -178 60 -99 101 93 48 233 57 344 23 92 -28 136 -52 297 -156 75
-48 173 -110 218 -138 173 -105 334 -235 565 -454 61 -58 131 -117 155 -130
44 -24 44 -24 18 5 -15 16 -62 79 -104 139 -171 242 -349 422 -540 546 -176
114 -211 140 -230 172 -15 26 -16 31 -3 44 13 13 24 11 91 -15 41 -16 131 -61
199 -99 190 -108 238 -134 238 -129 0 3 -39 38 -87 79 -195 164 -304 228 -431
252 -97 19 -320 127 -512 249 -207 132 -285 157 -515 162 -120 2 -195 -2 -300
-17z"/>
<path d="M5735 7615 c36 -29 111 -70 145 -80 14 -3 -9 13 -50 36 -41 23 -82
48 -91 55 -8 8 -20 14 -25 14 -5 0 5 -11 21 -25z"/>
<path d="M5920 7520 c8 -5 20 -10 25 -10 6 0 3 5 -5 10 -8 5 -19 10 -25 10 -5
0 -3 -5 5 -10z"/>
<path d="M4695 7474 c-345 -42 -673 -192 -1082 -495 -116 -86 -158 -124 -235
-213 -42 -48 -49 -59 -22 -35 47 43 176 112 539 287 460 222 562 255 975 316
91 14 188 32 216 40 97 30 107 83 20 105 -59 15 -273 12 -411 -5z"/>
<path d="M4635 6859 c-179 -23 -305 -87 -305 -156 0 -28 3 -28 152 -7 153 22
346 15 443 -16 117 -36 411 -202 575 -324 124 -92 329 -298 409 -411 147 -209
201 -367 276 -813 79 -471 72 -700 -36 -1069 -67 -233 -159 -420 -269 -551
-56 -67 -409 -364 -513 -433 -111 -73 -364 -159 -522 -178 -221 -26 -543 -35
-827 -21 -301 14 -289 15 -328 -40 -19 -26 -19 -26 8 -22 15 2 96 -19 183 -47
223 -72 248 -75 516 -62 360 16 521 45 762 135 177 66 236 55 149 -27 -86 -83
-310 -167 -548 -206 -153 -25 -217 -30 -490 -42 -118 -5 -237 -12 -265 -15
-50 -7 -49 -7 93 -40 314 -73 565 -89 749 -46 199 47 393 122 531 206 36 21
86 41 131 50 97 20 192 77 295 177 99 94 156 185 156 247 0 84 -32 70 -185
-77 -147 -141 -303 -281 -315 -281 -17 0 -32 43 -27 76 9 51 38 85 176 206
148 130 206 169 281 191 62 18 86 39 155 141 92 137 139 246 204 471 89 313
116 445 132 645 17 225 -3 430 -87 870 -19 102 -41 217 -49 256 -39 205 -153
373 -459 679 -232 231 -331 309 -506 399 -248 128 -419 163 -645 135z"/>
<path d="M4187 6626 c-365 -128 -749 -398 -902 -635 -140 -217 -186 -450 -151
-761 61 -524 209 -818 513 -1017 247 -162 473 -223 473 -130 0 28 -33 59 -120
117 -80 53 -166 125 -186 156 -11 15 -16 53 -18 116 -2 80 -10 117 -54 258
-70 226 -86 321 -79 490 4 106 11 154 32 225 113 383 471 675 902 737 118 16
434 16 493 0 322 -92 610 -366 708 -672 35 -111 76 -377 88 -579 7 -106 9
-116 36 -146 45 -52 58 -95 58 -194 0 -240 -110 -559 -270 -784 -121 -168
-420 -421 -474 -401 -12 5 -52 8 -91 8 -61 -1 -87 -7 -198 -52 -70 -29 -163
-70 -205 -91 -121 -61 -169 -72 -337 -78 -350 -13 -626 51 -955 220 -74 38
-157 77 -185 88 -50 19 -50 19 85 -114 133 -131 251 -228 341 -280 112 -66
322 -93 674 -88 302 4 342 4 470 1 85 -2 112 2 185 25 148 47 241 103 410 246
306 258 420 391 520 602 100 211 159 441 167 652 4 118 1 154 -36 390 -75 474
-109 613 -195 782 -134 268 -429 535 -708 643 -91 35 -128 37 -207 10 -44 -15
-107 -22 -247 -29 -287 -15 -400 -35 -550 -96 -263 -108 -491 -315 -605 -550
-117 -242 -130 -585 -34 -880 37 -112 114 -269 169 -343 25 -34 46 -64 46 -67
0 -2 -9 -9 -20 -15 -44 -24 -136 42 -212 153 -126 184 -200 464 -200 757 -1
234 43 399 153 575 150 241 469 474 748 546 98 26 365 41 576 32 145 -5 162
-4 178 12 16 15 16 20 4 39 -40 60 -138 85 -362 92 -209 6 -224 8 -269 39 -20
14 -42 25 -49 25 -7 0 -56 -16 -110 -34z m1053 -3281 c0 -35 -59 -96 -127
-132 -134 -71 -306 -113 -319 -79 -11 29 23 52 166 110 76 32 162 72 192 91
66 41 88 44 88 10z"/>
<path d="M4635 6059 c-146 -21 -266 -73 -395 -170 -292 -220 -420 -447 -420
-745 0 -122 18 -221 65 -350 29 -81 34 -105 32 -176 -1 -75 2 -90 30 -148 36
-73 83 -128 195 -223 112 -96 144 -110 259 -115 115 -5 190 12 304 67 91 45
148 98 198 186 19 33 57 96 84 141 71 117 88 176 88 309 0 103 -2 114 -32 178
-80 168 -267 269 -420 227 -61 -18 -123 -73 -123 -110 0 -45 20 -54 81 -36
132 40 242 -1 303 -114 58 -107 42 -237 -41 -330 -63 -70 -140 -97 -363 -126
-128 -17 -185 -38 -185 -69 0 -60 191 -80 352 -37 145 39 186 25 114 -39 -98
-87 -300 -123 -416 -75 -20 9 -74 53 -121 98 -47 46 -119 116 -161 156 -112
109 -87 144 57 78 99 -45 145 -53 193 -32 62 25 53 43 -60 115 -149 95 -211
186 -233 342 -17 116 13 259 76 367 42 71 140 169 200 198 54 26 54 26 286 21
262 -5 309 -13 443 -77 135 -65 257 -170 379 -328 132 -172 154 -345 81 -618
-64 -234 -175 -427 -331 -573 -140 -131 -299 -217 -568 -310 -83 -29 -165 -61
-183 -72 -37 -23 -54 -66 -32 -80 58 -37 341 35 575 145 197 94 333 200 444
347 119 158 175 283 262 579 55 189 60 213 60 305 0 55 -7 140 -17 189 -12 66
-15 107 -9 155 11 91 6 136 -21 204 -37 93 -84 163 -173 258 -145 154 -318
251 -507 284 -94 16 -252 18 -350 4z m227 -149 c298 -34 569 -223 704 -492 43
-84 44 -108 7 -108 -22 0 -43 16 -98 77 -202 224 -310 305 -485 364 -83 28
-112 33 -231 37 -101 3 -156 0 -216 -12 -114 -23 -133 -22 -133 8 0 51 110
108 238 125 94 12 116 12 214 1z"/>
<path d="M6820 5795 c-20 -24 -6 -88 50 -225 93 -229 166 -517 190 -755 5 -55
12 -118 14 -140 2 -22 3 43 0 145 -4 205 -21 362 -59 547 -36 175 -108 375
-153 426 -19 21 -26 21 -42 2z"/>
<path d="M4555 5520 c-169 -24 -271 -96 -339 -239 -28 -60 -31 -75 -31 -167 0
-96 2 -103 37 -175 52 -103 197 -266 244 -275 108 -20 244 26 291 98 36 53 42
131 14 175 -26 42 -66 67 -106 67 -63 0 -88 -52 -38 -76 37 -18 40 -42 9 -73
-42 -42 -120 -30 -173 27 -41 43 -76 137 -81 214 -4 60 -1 80 17 118 47 95
138 147 272 154 322 16 589 -289 542 -617 -28 -191 -128 -379 -284 -533 -65
-65 -94 -85 -191 -132 -117 -57 -248 -96 -390 -115 -42 -6 -117 -20 -167 -31
-166 -37 -293 -20 -459 63 -297 148 -507 387 -620 707 -39 112 -66 233 -92
410 -12 80 -30 168 -42 195 -23 57 -44 85 -34 45 3 -14 10 -110 16 -215 6
-104 17 -241 26 -303 31 -234 112 -480 199 -612 107 -160 354 -348 568 -430
126 -49 200 -63 337 -64 125 0 125 0 366 81 132 45 275 98 317 117 266 121
470 343 566 618 39 112 53 191 52 302 -1 180 -55 300 -201 447 -107 108 -190
160 -310 195 -88 26 -229 36 -315 24z"/>
<path d="M5821 4753 c-21 -21 -37 -56 -56 -119 -94 -320 -140 -434 -231 -571
-101 -152 -234 -277 -382 -360 -91 -51 -334 -148 -461 -184 -77 -22 -129 -30
-189 -31 -78 -1 -85 1 -141 36 -56 34 -63 36 -148 36 -308 0 -604 100 -856
289 -42 31 -141 121 -222 200 -147 143 -147 143 -94 45 120 -226 219 -368 314
-452 56 -49 270 -157 399 -202 123 -42 300 -76 504 -96 219 -22 300 -13 480
49 474 166 522 185 588 227 142 92 312 288 401 464 120 235 200 635 137 686
-11 10 -20 6 -43 -17z"/>
<path d="M7062 4510 c0 -14 2 -19 5 -12 2 6 2 18 0 25 -3 6 -5 1 -5 -13z"/>
<path d="M6851 3749 c-24 -43 -64 -104 -90 -136 -82 -103 -267 -356 -331 -453
-98 -151 -131 -227 -111 -259 7 -11 13 -6 26 20 10 19 54 86 100 149 107 149
209 302 279 419 58 95 180 331 174 336 -2 2 -23 -32 -47 -76z"/>
<path d="M3553 2980 c20 -17 38 -41 38 -53 1 -16 2 -18 6 -5 6 25 -11 51 -49
72 -33 18 -33 18 5 -14z"/>
</g>
</svg>
