<?xml version="1.0" standalone="no"?>
<!DOCTYPE svg PUBLIC "-//W3C//DTD SVG 20010904//EN"
 "http://www.w3.org/TR/2001/REC-SVG-20010904/DTD/svg10.dtd">
<svg version="1.0" xmlns="http://www.w3.org/2000/svg"
 width="1000.000000pt" height="1000.000000pt" viewBox="0 0 1000.000000 1000.000000"
 preserveAspectRatio="xMidYMid meet">
<metadata>
  <rdf:RDF
    xmlns:rdf = "http://www.w3.org/1999/02/22-rdf-syntax-ns#"
    xmlns:rdfs = "http://www.w3.org/2000/01/rdf-schema#"
    xmlns:dc = "http://purl.org/dc/elements/1.1/"
    xmlns:cc = "http://creativecommons.org/ns#">
    <cc:license rdf:resource="http://creativecommons.org/publicdomain/zero/1.0/deed.en"/>
    <cc:permits rdf:resource="http://creativecommons.org/ns#Reproduction"/>
    <rdf:Description about="https://nft.mir.one/fingerprints"
      dc:title="TON Fingerprints"
      dc:description="This is a unique digital fingerprint created based on the algorithm for generating basic rings using a noise texture. Like human fingerprints, you can now use it for the Web3 and Metaverse era as digital biometric information."
      dc:publisher="https://nft.mir.one"
      dc:date="2022-02-22"
      dc:format="image/svg+xml"
      dc:language="en" >
      <dc:creator>
      <rdf:Bag>
        <rdf:li>EQBondcvD2_aOFADXSWJHs4ZazQDuEl9_wNvGGPxI8hGuOFU</rdf:li>
        <rdf:li>ipfs://bafkreihj7iub3fhmhq6jn62noukt5wxn3gv6bvcg7wmt6ywvlurefezckq</rdf:li>
      </rdf:Bag>
      </dc:creator>
    </rdf:Description>
  </rdf:RDF>
</metadata>
<rect width="100%" height="100%" fill="#1b1f23"/>
<g transform="translate(0.000000,1000.000000) scale(0.100000,-0.100000)"
fill="#ffffff" stroke="none">
<path d="M4515 7723 c-50 -6 -50 -6 10 -20 75 -17 143 -30 475 -93 146 -28
337 -66 425 -85 88 -19 223 -44 300 -56 124 -19 147 -20 207 -9 38 7 67 15 65
16 -5 5 -307 91 -412 118 -170 42 -386 85 -541 105 -152 20 -439 33 -529 24z"/>
<path d="M4420 7530 c-120 -15 -226 -38 -366 -81 -71 -21 -139 -40 -150 -41
-60 -4 171 -16 345 -17 231 -1 465 -20 690 -57 259 -41 356 -71 481 -148 36
-22 128 -67 205 -101 178 -77 257 -121 347 -194 158 -127 256 -233 345 -369
29 -45 94 -137 145 -205 270 -361 443 -705 519 -1033 39 -168 35 -535 -7 -738
-15 -74 -87 -285 -211 -620 -82 -222 -93 -266 -70 -285 13 -10 19 -6 40 31 63
108 136 302 231 613 60 197 70 244 86 415 37 413 -23 803 -185 1202 -89 218
-159 337 -296 510 -45 56 -91 117 -101 133 -22 36 -24 81 -4 88 21 8 53 -18
235 -197 176 -173 182 -171 49 19 -97 138 -155 195 -249 246 -103 55 -267 209
-370 346 -75 101 -125 143 -215 180 -74 32 -559 177 -710 214 -313 75 -616
109 -784 89z"/>
<path d="M4050 7253 c-14 -2 -78 -17 -142 -34 -126 -31 -163 -35 -174 -18 -14
24 -25 -20 -12 -48 24 -51 80 -57 743 -83 143 -5 380 -20 527 -32 279 -23 330
-21 352 15 56 89 -324 168 -949 197 -214 10 -300 11 -345 3z"/>
<path d="M6240 7174 c0 -77 151 -240 270 -292 75 -32 75 -32 40 -5 -70 56
-114 100 -203 203 -49 58 -94 109 -99 115 -4 5 -8 -4 -8 -21z"/>
<path d="M3705 6930 c-27 -11 -90 -52 -140 -91 -111 -87 -265 -213 -265 -216
0 -10 94 18 181 53 235 96 370 116 486 72 96 -36 120 -37 358 -28 361 15 966
15 1064 1 332 -48 607 -248 920 -666 122 -163 183 -260 256 -404 114 -228 191
-466 202 -623 5 -78 4 -88 -12 -94 -30 -12 -58 33 -98 161 -150 470 -324 774
-617 1078 -189 196 -406 335 -605 387 -153 40 -264 45 -463 22 -97 -11 -271
-23 -387 -26 -311 -9 -397 -25 -595 -111 -47 -20 -182 -73 -300 -117 -291
-108 -402 -162 -464 -226 -60 -62 -58 -82 10 -82 32 0 144 33 373 109 340 115
557 174 701 191 108 13 384 13 475 0 46 -7 105 -27 175 -59 58 -27 152 -65
210 -85 492 -172 845 -527 1060 -1065 140 -353 156 -653 57 -1051 -82 -323
-163 -604 -196 -675 -48 -102 -263 -390 -333 -446 -242 -191 -736 -244 -1153
-124 -108 32 -271 107 -366 170 -131 88 -274 253 -352 410 -69 138 -117 329
-117 465 0 87 5 110 26 110 23 0 43 -41 75 -156 86 -309 186 -505 329 -645
266 -262 779 -369 1209 -253 114 31 234 90 277 136 37 39 44 57 32 81 -14 28
-65 21 -202 -28 -226 -80 -428 -108 -628 -86 -255 28 -487 125 -605 254 -47
50 -139 229 -196 377 -20 52 -71 162 -112 244 -59 116 -73 152 -64 162 35 42
99 -8 206 -158 34 -47 73 -94 87 -103 44 -29 396 -143 490 -160 181 -31 338
-16 559 55 138 44 209 52 234 27 24 -24 3 -43 -102 -93 -227 -108 -470 -138
-705 -89 -88 18 -242 67 -320 102 -84 38 -106 43 -126 29 -13 -10 -15 -20 -10
-41 12 -47 65 -87 152 -117 43 -14 126 -43 184 -63 136 -46 245 -65 385 -65
187 0 373 47 486 122 69 46 104 94 114 155 6 36 19 56 85 122 220 222 320 459
320 761 0 484 -296 946 -778 1212 -214 119 -217 121 -217 148 0 22 5 25 44 28
116 8 374 -130 571 -307 231 -206 418 -531 479 -832 80 -390 -42 -848 -318
-1198 -77 -98 -155 -159 -278 -218 -141 -67 -259 -94 -436 -100 -225 -8 -354
19 -569 119 -60 27 -116 48 -125 46 -38 -7 -27 -48 25 -98 63 -61 153 -111
267 -149 148 -49 257 -64 430 -58 167 6 238 19 412 76 65 22 152 49 193 61
107 32 139 51 203 120 99 107 170 250 256 514 145 445 153 746 30 1102 -92
266 -226 482 -423 680 -186 185 -367 300 -582 367 -140 44 -402 79 -629 84
-315 8 -502 -23 -903 -149 -122 -38 -266 -78 -318 -88 -74 -14 -105 -25 -133
-47 -31 -25 -153 -176 -181 -224 -17 -30 25 -18 581 162 364 118 388 122 709
116 371 -8 467 -28 588 -120 37 -28 132 -91 212 -140 209 -128 288 -187 398
-301 304 -313 419 -711 307 -1064 -45 -143 -134 -248 -202 -240 -39 4 -39 27
1 86 41 61 93 191 112 282 60 283 -56 605 -310 855 -115 115 -238 201 -406
285 -245 123 -422 161 -595 129 -76 -14 -107 -30 -177 -94 -32 -29 -123 -89
-203 -134 -194 -111 -302 -188 -410 -296 -207 -206 -333 -416 -397 -664 -27
-102 -31 -138 -35 -296 -6 -190 3 -299 39 -525 22 -135 22 -135 39 72 19 229
28 297 66 468 91 418 233 649 548 895 157 122 379 249 530 303 58 20 94 25
205 29 120 4 146 2 232 -21 410 -105 734 -462 755 -831 6 -96 0 -118 -62 -265
-30 -69 -39 -174 -21 -253 9 -37 7 -40 -45 -90 -35 -34 -90 -71 -154 -104
-257 -131 -480 -155 -727 -77 -187 59 -279 131 -319 252 -12 37 -35 93 -51
124 -15 32 -35 84 -43 115 -30 114 -12 308 39 419 54 118 192 213 322 222 64
4 79 1 165 -33 257 -102 377 -193 450 -341 55 -110 57 -173 9 -287 -44 -105
-85 -164 -143 -204 -67 -45 -136 -64 -232 -63 -95 0 -147 13 -276 69 -104 44
-119 47 -137 29 -49 -49 78 -153 253 -208 266 -82 601 26 694 225 29 61 44
148 36 202 -12 82 -56 218 -100 308 -78 160 -183 261 -355 341 -165 78 -165
78 -165 99 0 58 119 54 249 -8 210 -100 338 -265 416 -534 34 -120 77 -147
100 -63 15 55 -1 165 -40 270 -118 325 -450 563 -747 536 -228 -21 -451 -116
-680 -289 -54 -41 -126 -92 -158 -113 -178 -113 -284 -273 -380 -575 -59 -189
-87 -336 -92 -499 -4 -131 -2 -154 20 -240 85 -325 314 -651 597 -853 327
-232 807 -365 1188 -328 247 24 256 25 290 7 29 -15 34 -15 104 10 40 15 130
55 199 90 70 34 166 79 214 98 48 20 113 54 144 77 151 113 469 485 487 569
23 107 86 226 168 317 48 53 48 53 -15 15 -49 -29 -75 -55 -111 -107 -60 -86
-89 -161 -81 -209 8 -50 -23 -98 -167 -257 -204 -225 -270 -273 -480 -350
-382 -138 -333 -128 -665 -135 -316 -7 -401 -2 -589 37 -309 64 -608 215 -795
401 -219 217 -337 473 -348 754 -6 150 4 225 46 347 103 292 148 413 185 492
82 174 176 239 176 121 0 -22 -13 -95 -30 -161 -16 -66 -36 -173 -45 -238 -20
-157 -37 -188 -138 -259 -92 -64 -101 -314 -20 -541 158 -445 558 -739 1119
-822 139 -21 422 -20 581 0 215 29 443 124 606 254 109 88 238 244 324 394 60
103 78 127 122 157 83 57 114 114 145 269 10 46 40 154 67 240 119 371 161
548 179 751 6 69 20 159 31 202 55 217 -12 509 -202 876 -105 205 -257 425
-463 672 -175 210 -363 355 -555 429 -119 46 -186 55 -309 41 -108 -13 -625
-3 -1152 21 -459 21 -430 21 -485 -1z m1575 -504 c146 -31 312 -105 449 -199
90 -62 280 -242 364 -347 88 -109 198 -280 265 -411 54 -107 94 -203 193 -464
22 -60 53 -141 68 -180 24 -65 26 -81 26 -230 -1 -134 -5 -180 -28 -285 -32
-151 -189 -741 -210 -793 -19 -43 -40 -47 -63 -12 -27 41 -13 141 60 426 84
328 106 455 106 619 0 158 -16 248 -79 432 -119 346 -238 573 -418 795 -201
249 -463 435 -728 517 -251 77 -260 81 -264 100 -2 11 5 26 15 33 24 17 160
17 244 -1z"/>
<path d="M3745 6635 c-115 -30 -269 -89 -317 -120 -70 -47 -173 -142 -252
-235 -89 -103 -90 -103 74 -9 106 60 216 108 446 194 193 72 257 104 275 137
10 18 8 24 -11 40 -31 25 -104 23 -215 -7z"/>
<path d="M3960 5763 c-120 -20 -312 -94 -527 -202 -140 -70 -140 -70 -181 -56
-107 37 -190 -25 -273 -205 -22 -47 -48 -102 -58 -122 -19 -37 -19 -37 13 -15
17 12 67 56 111 97 203 191 246 218 253 158 5 -39 -37 -111 -129 -223 -90
-111 -116 -159 -153 -286 -38 -133 -45 -215 -39 -433 6 -198 6 -198 25 -140
10 33 25 111 34 174 29 215 85 331 289 600 200 263 317 353 640 490 132 56
187 98 169 128 -23 37 -88 50 -174 35z"/>
<path d="M4567 4720 c-95 -16 -181 -89 -212 -179 -21 -62 -19 -166 4 -216 25
-55 108 -128 197 -171 171 -85 347 -41 361 90 5 38 1 53 -20 84 -31 48 -77 70
-112 54 -28 -13 -33 -43 -10 -62 21 -17 19 -47 -4 -60 -72 -38 -171 36 -171
130 0 79 60 130 153 130 78 0 126 -26 208 -111 37 -38 72 -69 78 -69 6 0 16
11 23 25 28 62 -54 202 -162 273 -97 65 -234 99 -333 82z"/>
<path d="M5419 2300 c-26 -26 -60 -44 -115 -64 -51 -17 -65 -25 -40 -21 94 15
206 78 206 116 0 16 -14 7 -51 -31z"/>
<path d="M4458 2283 c7 -3 16 -2 19 1 4 3 -2 6 -13 5 -11 0 -14 -3 -6 -6z"/>
<path d="M4498 2273 c7 -3 16 -2 19 1 4 3 -2 6 -13 5 -11 0 -14 -3 -6 -6z"/>
<path d="M4530 2267 c22 -24 427 -79 552 -75 58 1 58 1 -142 19 -108 9 -252
30 -380 55 -19 4 -33 4 -30 1z"/>
<path d="M5173 2203 c9 -2 25 -2 35 0 9 3 1 5 -18 5 -19 0 -27 -2 -17 -5z"/>
</g>
</svg>
