<?xml version="1.0" standalone="no"?>
<!DOCTYPE svg PUBLIC "-//W3C//DTD SVG 20010904//EN"
 "http://www.w3.org/TR/2001/REC-SVG-20010904/DTD/svg10.dtd">
<svg version="1.0" xmlns="http://www.w3.org/2000/svg"
 width="1000.000000pt" height="1000.000000pt" viewBox="0 0 1000.000000 1000.000000"
 preserveAspectRatio="xMidYMid meet">
<metadata>
  <rdf:RDF
    xmlns:rdf = "http://www.w3.org/1999/02/22-rdf-syntax-ns#"
    xmlns:rdfs = "http://www.w3.org/2000/01/rdf-schema#"
    xmlns:dc = "http://purl.org/dc/elements/1.1/"
    xmlns:cc = "http://creativecommons.org/ns#">
    <cc:license rdf:resource="http://creativecommons.org/publicdomain/zero/1.0/deed.en"/>
    <cc:permits rdf:resource="http://creativecommons.org/ns#Reproduction"/>
    <rdf:Description about="https://nft.mir.one/fingerprints"
      dc:title="TON Fingerprints"
      dc:description="This is a unique digital fingerprint created based on the algorithm for generating basic rings using a noise texture. Like human fingerprints, you can now use it for the Web3 and Metaverse era as digital biometric information."
      dc:publisher="https://nft.mir.one"
      dc:date="2022-02-22"
      dc:format="image/svg+xml"
      dc:language="en" >
      <dc:creator>
      <rdf:Bag>
        <rdf:li>EQBondcvD2_aOFADXSWJHs4ZazQDuEl9_wNvGGPxI8hGuOFU</rdf:li>
        <rdf:li>ipfs://bafkreihj7iub3fhmhq6jn62noukt5wxn3gv6bvcg7wmt6ywvlurefezckq</rdf:li>
      </rdf:Bag>
      </dc:creator>
    </rdf:Description>
  </rdf:RDF>
</metadata>
<rect width="100%" height="100%" fill="#1b1f23"/>
<g transform="translate(0.000000,1000.000000) scale(0.100000,-0.100000)"
fill="#ffffff" stroke="none">
<path d="M5275 7722 c-11 -4 -31 -13 -45 -19 -14 -6 -38 -14 -54 -19 -16 -5
-31 -15 -34 -22 -2 -6 25 -40 60 -75 54 -54 89 -76 238 -152 212 -107 287
-153 334 -205 36 -40 47 -84 24 -93 -15 -5 -522 254 -596 304 -26 18 -74 59
-108 91 -33 31 -76 64 -96 72 -95 40 -386 39 -649 -3 -68 -11 -139 -21 -158
-23 -35 -3 -35 -3 4 -32 37 -28 46 -30 234 -48 226 -21 336 -39 438 -74 40
-13 203 -89 363 -169 357 -179 408 -197 534 -193 92 3 92 3 175 -47 46 -27
147 -101 225 -163 77 -63 177 -132 221 -155 139 -72 349 -306 494 -550 60
-100 46 -53 -29 95 -109 218 -192 335 -402 563 -175 190 -260 270 -478 450
-173 143 -316 224 -543 309 -125 46 -177 73 -177 90 0 27 31 39 94 38 156 -2
412 -94 624 -224 37 -22 78 -47 92 -56 65 -38 -28 32 -110 82 -161 100 -315
169 -460 206 -88 22 -187 32 -215 22z"/>
<path d="M4015 7461 c-3 -6 -27 -22 -53 -36 -50 -26 -43 -34 11 -12 33 15 64
44 54 53 -3 3 -8 0 -12 -5z"/>
<path d="M4205 7294 c-88 -19 -184 -61 -300 -129 -131 -78 -202 -139 -275
-241 -36 -49 -112 -146 -169 -214 -162 -194 -315 -442 -365 -595 -21 -65 -156
-615 -155 -635 0 -27 99 301 139 463 42 171 57 203 158 347 79 111 186 227
373 406 163 155 234 211 332 261 324 163 669 179 1131 53 164 -45 205 -61 229
-88 16 -18 16 -20 -3 -37 -33 -30 -110 -29 -339 5 -640 94 -976 -14 -1409
-451 -162 -165 -260 -313 -316 -483 -32 -96 -141 -618 -161 -773 -22 -171 -19
-418 10 -701 14 -133 31 -271 39 -305 34 -144 118 -343 184 -434 17 -22 68
-70 114 -104 46 -35 139 -108 208 -163 213 -170 391 -275 620 -366 131 -52
599 -197 698 -216 186 -35 501 -25 737 25 285 61 570 198 733 355 116 110 284
356 333 485 22 59 20 81 -8 81 -27 0 -61 -33 -170 -165 -340 -409 -666 -583
-1171 -627 -246 -21 -498 11 -801 102 -444 134 -728 299 -1027 595 -140 139
-214 254 -268 417 -52 156 -81 426 -73 681 6 206 27 325 98 567 52 180 53 186
28 291 -11 49 -10 66 4 125 39 163 163 353 331 511 203 190 415 304 666 359
161 36 665 20 873 -27 26 -6 71 -27 100 -47 29 -20 104 -65 167 -100 171 -96
253 -156 365 -267 318 -316 572 -809 533 -1034 -9 -52 -5 -61 27 -61 83 0 112
174 59 356 -76 264 -291 615 -529 863 -144 151 -292 244 -487 307 -77 24 -88
31 -88 51 0 49 93 67 204 38 205 -54 376 -180 544 -404 302 -401 462 -715 494
-964 20 -161 16 -177 -212 -827 -111 -317 -200 -469 -384 -651 -144 -144 -290
-237 -496 -319 -143 -57 -168 -81 -115 -116 21 -13 41 -16 103 -11 279 20 657
297 887 650 79 122 119 220 161 394 36 152 53 193 80 193 31 0 47 -68 48 -200
1 -142 -12 -196 -74 -319 -47 -95 -101 -167 -233 -318 -232 -264 -483 -435
-732 -498 -111 -28 -213 -31 -516 -15 -350 18 -594 77 -839 200 -472 237 -710
620 -710 1141 0 149 15 253 55 369 58 171 149 280 351 422 219 153 326 207
517 258 60 16 112 32 115 35 4 3 2 13 -4 22 -39 61 -134 77 -265 44 -115 -29
-227 -85 -377 -188 -153 -104 -192 -122 -257 -123 -47 0 -54 -3 -97 -47 -99
-103 -158 -226 -205 -423 -20 -86 -26 -140 -30 -300 -6 -217 8 -350 53 -508
128 -454 593 -840 1207 -1002 473 -124 893 -116 1227 24 201 85 355 200 573
429 84 88 183 185 220 215 38 30 82 75 97 99 35 54 81 179 121 325 18 69 40
123 60 151 43 61 58 132 71 345 18 269 -6 584 -57 760 -21 71 -143 349 -215
492 -98 192 -260 405 -356 469 -54 36 -57 36 -77 16 -28 -27 -14 -53 173 -315
172 -240 362 -603 405 -773 44 -175 56 -427 35 -772 -9 -154 -19 -205 -43
-205 -29 0 -48 41 -74 156 -25 114 -26 133 -27 424 -1 297 -2 307 -28 402 -61
221 -207 500 -420 801 -39 54 -97 149 -129 210 -113 212 -267 327 -548 407
-176 50 -206 62 -301 118 -149 89 -394 184 -586 227 -102 24 -146 28 -309 31
-146 3 -206 0 -260 -12z"/>
<path d="M4500 6549 c-301 -34 -568 -165 -787 -386 -127 -129 -237 -306 -264
-428 -14 -63 -8 -85 23 -85 39 0 65 27 142 144 132 203 286 342 490 441 156
77 274 106 452 112 241 9 363 -23 474 -122 38 -34 112 -91 163 -126 167 -114
251 -181 363 -293 172 -173 296 -349 415 -592 109 -223 136 -339 118 -499 -20
-167 -107 -381 -216 -525 -94 -124 -242 -250 -368 -312 -92 -46 -316 -129
-388 -145 -250 -54 -575 18 -822 182 -184 122 -316 320 -250 375 13 11 30 -2
113 -87 92 -95 202 -178 307 -231 75 -38 242 -91 325 -103 150 -22 331 13 436
84 41 27 51 41 69 93 13 37 50 101 93 161 129 180 191 316 231 512 38 180 23
301 -51 445 -75 142 -216 268 -302 268 -17 0 -59 -5 -93 -12 -46 -9 -81 -10
-144 -1 -130 17 -254 14 -339 -10 -371 -102 -614 -458 -520 -761 39 -127 149
-241 308 -321 120 -59 173 -61 332 -12 89 27 124 35 132 27 20 -20 -7 -55 -68
-91 -77 -45 -94 -60 -94 -83 0 -50 117 -43 203 12 77 48 209 232 246 342 56
165 1 350 -144 487 -30 29 -81 64 -112 78 -152 70 -341 1 -421 -152 -21 -40
-26 -64 -26 -120 0 -108 47 -180 144 -224 92 -42 218 -17 260 51 47 78 10 183
-63 176 -30 -3 -32 -5 -32 -43 0 -34 -4 -41 -28 -49 -22 -8 -32 -6 -55 11 -65
48 -46 148 38 191 57 29 94 28 157 -3 117 -59 170 -214 116 -336 -44 -96 -111
-130 -283 -145 -303 -26 -509 259 -382 529 104 224 401 348 607 253 91 -41
212 -171 290 -311 15 -27 45 -77 66 -111 23 -36 41 -78 45 -105 14 -106 -53
-284 -167 -442 -74 -104 -130 -156 -208 -194 -48 -24 -68 -28 -146 -28 -81 0
-99 4 -180 37 -49 20 -128 51 -175 69 -56 21 -132 64 -224 126 -76 52 -159
104 -183 115 -86 40 -139 154 -150 323 -20 306 162 585 495 758 224 116 348
136 559 89 55 -13 118 -22 140 -20 33 3 38 6 41 31 10 86 -289 217 -493 217
-61 0 -65 -2 -80 -29 -22 -43 -56 -66 -202 -136 -361 -172 -565 -378 -644
-647 -30 -104 -38 -338 -15 -463 41 -221 97 -372 180 -489 135 -189 407 -360
693 -436 180 -48 442 -64 586 -36 63 12 73 18 121 67 40 41 88 72 194 128 169
89 281 171 390 285 172 182 284 399 342 664 23 103 26 248 6 296 -7 18 -41 69
-74 113 -32 45 -101 157 -152 250 -257 466 -456 676 -868 913 -81 46 -95 65
-66 87 83 62 438 -146 649 -381 150 -167 241 -303 392 -593 40 -76 86 -153
102 -170 30 -33 70 -49 96 -39 14 5 14 9 1 33 -7 16 -35 84 -61 153 -150 395
-393 735 -680 950 -96 72 -317 185 -400 205 -134 32 -586 60 -725 44z m777
-1260 c124 -60 258 -308 223 -414 -18 -55 -44 -47 -70 23 -36 96 -86 183 -160
276 -65 82 -80 113 -63 129 10 11 24 8 70 -14z"/>
<path d="M4397 6180 c-72 -13 -184 -48 -256 -81 -157 -71 -372 -252 -439 -369
-32 -55 -43 -122 -22 -135 12 -8 55 21 140 96 247 215 466 319 675 319 175 0
508 -117 684 -240 52 -37 337 -324 402 -407 80 -100 146 -240 174 -369 23
-102 16 -287 -15 -394 -50 -175 -140 -325 -292 -485 -54 -58 -98 -111 -98
-119 0 -9 9 -20 20 -26 77 -41 308 145 428 346 175 294 189 584 43 890 -94
197 -206 348 -393 530 -197 193 -486 377 -673 429 -70 19 -305 29 -378 15z"/>
<path d="M3291 3537 c-8 -11 -6 -18 10 -33 12 -10 49 -55 82 -99 84 -110 227
-256 317 -324 186 -140 471 -251 829 -322 181 -37 201 -43 201 -64 0 -59 -225
-57 -472 5 -206 52 -347 108 -598 239 -85 44 -144 71 -130 59 268 -227 460
-343 692 -417 190 -60 337 -74 518 -47 126 19 194 24 385 31 171 6 432 28 554
46 187 28 430 141 614 288 105 84 245 219 301 292 49 64 49 64 5 23 -119 -111
-442 -297 -620 -357 -281 -95 -668 -143 -966 -119 -148 11 -148 11 -258 67
-77 39 -162 70 -282 105 -413 119 -656 244 -943 485 -166 140 -215 170 -239
142z"/>
<path d="M6649 3273 c-13 -16 -12 -17 4 -4 16 13 21 21 13 21 -2 0 -10 -8 -17
-17z"/>
<path d="M5763 2479 c-78 -4 -224 -14 -325 -23 -360 -31 -587 -41 -883 -40
-165 0 -325 3 -355 7 -55 6 -55 6 10 -13 99 -30 283 -67 399 -81 69 -7 191
-10 355 -6 263 5 396 20 656 73 119 25 347 93 305 92 -11 -1 -84 -4 -162 -9z"/>
</g>
</svg>
