<?xml version="1.0" standalone="no"?>
<!DOCTYPE svg PUBLIC "-//W3C//DTD SVG 20010904//EN"
 "http://www.w3.org/TR/2001/REC-SVG-20010904/DTD/svg10.dtd">
<svg version="1.0" xmlns="http://www.w3.org/2000/svg"
 width="1000.000000pt" height="1000.000000pt" viewBox="0 0 1000.000000 1000.000000"
 preserveAspectRatio="xMidYMid meet">
<metadata>
  <rdf:RDF
    xmlns:rdf = "http://www.w3.org/1999/02/22-rdf-syntax-ns#"
    xmlns:rdfs = "http://www.w3.org/2000/01/rdf-schema#"
    xmlns:dc = "http://purl.org/dc/elements/1.1/"
    xmlns:cc = "http://creativecommons.org/ns#">
    <cc:license rdf:resource="http://creativecommons.org/publicdomain/zero/1.0/deed.en"/>
    <cc:permits rdf:resource="http://creativecommons.org/ns#Reproduction"/>
    <rdf:Description about="https://nft.mir.one/fingerprints"
      dc:title="TON Fingerprints"
      dc:description="This is a unique digital fingerprint created based on the algorithm for generating basic rings using a noise texture. Like human fingerprints, you can now use it for the Web3 and Metaverse era as digital biometric information."
      dc:publisher="https://nft.mir.one"
      dc:date="2022-02-22"
      dc:format="image/svg+xml"
      dc:language="en" >
      <dc:creator>
      <rdf:Bag>
        <rdf:li>EQBondcvD2_aOFADXSWJHs4ZazQDuEl9_wNvGGPxI8hGuOFU</rdf:li>
        <rdf:li>ipfs://bafkreihj7iub3fhmhq6jn62noukt5wxn3gv6bvcg7wmt6ywvlurefezckq</rdf:li>
      </rdf:Bag>
      </dc:creator>
    </rdf:Description>
  </rdf:RDF>
</metadata>
<rect width="100%" height="100%" fill="#1b1f23"/>
<g transform="translate(0.000000,1000.000000) scale(0.100000,-0.100000)"
fill="#ffffff" stroke="none">
<path d="M4925 7693 c-354 -28 -633 -119 -902 -295 -89 -58 -144 -107 -308
-272 -179 -180 -213 -219 -318 -371 -169 -244 -170 -247 -58 -134 67 67 117
128 149 182 35 59 70 101 137 161 49 44 115 108 145 141 130 142 215 207 376
288 273 138 488 187 821 187 262 0 392 -18 569 -81 129 -45 218 -93 462 -246
262 -164 298 -189 384 -272 73 -69 108 -137 108 -208 0 -23 11 -53 29 -82 16
-25 35 -66 41 -91 19 -70 43 -109 117 -190 80 -87 188 -212 221 -255 52 -68
-45 97 -201 344 -28 44 -41 74 -40 97 1 19 -3 37 -8 40 -15 9 -10 42 8 53 16
9 15 11 -8 30 -15 11 -64 75 -110 143 -46 68 -120 159 -164 203 -264 264 -673
513 -968 589 -140 37 -327 52 -482 39z"/>
<path d="M4698 7450 c-42 -5 -122 -20 -178 -34 -285 -73 -630 -260 -630 -343
0 -39 50 -28 229 51 291 130 515 196 661 196 75 0 110 -11 110 -35 0 -22 -20
-29 -210 -78 -168 -44 -301 -88 -534 -177 -60 -23 -133 -46 -163 -51 -29 -5
-78 -13 -109 -19 -104 -18 -310 -170 -302 -223 6 -41 54 -34 216 31 81 33 180
70 220 81 40 12 160 53 266 91 106 38 276 94 377 125 122 38 218 74 283 108
99 52 99 52 270 52 180 -1 258 -12 421 -60 99 -30 124 -47 109 -72 -21 -34
-66 -37 -270 -19 -211 19 -298 16 -429 -14 -150 -35 -569 -168 -880 -280 -298
-107 -447 -159 -565 -195 -75 -23 -144 -69 -186 -124 -75 -98 -14 -130 133
-70 43 17 220 85 393 151 936 357 1148 403 1666 364 247 -18 315 -35 511 -125
185 -84 245 -98 291 -65 20 14 21 17 8 42 -16 30 -91 104 -146 144 -49 35
-208 127 -316 182 -72 37 -102 59 -148 111 -48 54 -74 73 -150 110 -151 74
-249 94 -666 135 -172 18 -201 19 -282 10z"/>
<path d="M5035 6764 c-266 -40 -517 -119 -884 -276 -90 -38 -223 -90 -295
-115 -72 -24 -186 -71 -253 -104 -72 -35 -152 -65 -193 -74 -82 -17 -104 -27
-143 -64 -131 -122 -267 -582 -267 -906 0 -101 64 -468 101 -578 11 -31 50
-108 89 -170 109 -178 118 -189 143 -185 20 3 22 8 21 58 -1 41 -17 97 -62
215 -66 176 -109 329 -143 505 -42 225 -12 479 86 715 65 157 146 275 191 275
40 0 40 -37 -2 -177 -20 -71 -52 -179 -71 -242 -97 -331 -87 -566 48 -1049 34
-124 42 -169 49 -287 8 -158 35 -256 111 -407 62 -123 244 -383 297 -424 130
-99 360 -160 456 -120 38 16 77 61 70 81 -3 7 -56 34 -117 61 -141 60 -233
114 -307 182 -150 135 -278 348 -329 548 -51 197 -141 675 -151 800 -17 210
10 408 82 596 41 106 65 138 128 171 30 15 72 44 93 65 71 68 168 196 202 267
18 39 46 82 62 96 136 125 542 300 828 358 382 76 745 41 1030 -99 191 -94
281 -181 415 -402 168 -276 263 -500 310 -728 12 -58 33 -140 46 -183 24 -77
24 -86 22 -370 -3 -286 -2 -294 22 -377 33 -113 34 -298 2 -476 -27 -149 -28
-227 -3 -274 19 -34 19 -36 -1 -75 -60 -117 -262 -342 -413 -460 -175 -136
-383 -253 -493 -276 -47 -9 -65 -9 -106 4 -50 16 -50 16 -173 -33 -243 -98
-387 -129 -643 -137 -217 -6 -528 17 -566 42 -23 15 -24 18 -11 38 8 12 29 32
47 44 32 23 37 23 314 21 226 -2 300 1 376 14 226 40 387 107 510 210 42 35
116 96 165 137 367 305 484 447 529 641 8 36 23 99 32 140 24 107 97 305 164
450 32 69 64 152 70 185 7 33 14 177 17 320 6 297 -3 375 -63 555 -88 263
-290 591 -447 723 -321 270 -811 344 -1306 197 -191 -57 -401 -163 -527 -267
-42 -34 -266 -296 -397 -466 -136 -174 -196 -435 -168 -730 22 -234 100 -598
161 -753 75 -188 216 -363 391 -485 148 -103 190 -139 218 -185 15 -26 38 -48
56 -54 17 -7 120 -14 230 -17 162 -4 217 -2 288 11 154 29 257 82 257 132 0
39 -33 45 -152 27 -56 -8 -157 -16 -223 -16 -155 -1 -220 22 -276 97 -32 42
-49 54 -128 86 -273 113 -449 292 -530 539 -31 96 -99 450 -111 584 -19 201
12 406 85 564 65 140 207 333 351 477 237 236 566 366 930 366 484 0 833 -222
1082 -690 126 -235 187 -490 117 -490 -21 0 -39 31 -94 161 -108 256 -204 411
-344 556 -147 152 -302 244 -502 299 -93 26 -114 28 -290 28 -174 -1 -198 -3
-290 -27 -120 -32 -276 -107 -365 -175 -95 -72 -266 -254 -338 -360 -135 -197
-182 -338 -189 -567 -6 -164 6 -251 54 -412 20 -69 26 -111 27 -193 1 -95 4
-111 30 -162 41 -82 117 -171 190 -223 118 -84 199 -104 322 -80 43 9 158 20
255 25 193 11 283 21 371 45 305 80 558 324 633 611 20 76 19 213 -1 285 -17
61 -69 133 -105 144 -13 4 -35 39 -64 98 -83 175 -198 296 -350 369 -99 47
-193 68 -313 68 -99 0 -326 -31 -391 -54 -182 -62 -332 -335 -318 -576 10
-171 79 -304 229 -445 91 -85 159 -131 260 -173 57 -24 76 -27 188 -27 96 0
138 4 180 19 178 60 317 177 388 326 24 51 51 132 67 200 27 120 45 160 70
160 24 0 35 -44 35 -144 0 -320 -206 -583 -540 -688 -65 -20 -96 -23 -225 -23
-147 0 -151 1 -215 31 -126 60 -396 293 -487 422 -139 194 -144 493 -13 752
45 88 93 154 193 264 41 45 97 109 126 144 126 151 326 220 603 209 271 -10
476 -102 673 -301 111 -112 188 -224 300 -436 47 -89 99 -182 116 -207 60 -87
72 -128 77 -261 7 -183 -25 -313 -128 -527 -72 -150 -99 -186 -197 -266 -43
-35 -114 -95 -158 -134 -108 -95 -199 -167 -325 -255 -58 -41 -135 -98 -171
-126 -180 -146 -313 -189 -620 -204 -186 -9 -242 -22 -254 -59 -20 -64 53 -93
245 -99 294 -8 513 61 763 240 158 114 309 243 453 387 82 83 158 151 167 151
30 0 31 -46 3 -104 -77 -158 -355 -425 -639 -616 -216 -144 -457 -208 -746
-197 -161 6 -206 16 -342 78 -48 22 -149 55 -225 75 -77 19 -200 53 -275 74
-75 22 -187 49 -250 59 -63 11 -150 31 -194 44 -44 14 -96 28 -115 31 -30 6
-33 4 -20 -7 178 -163 358 -287 458 -317 37 -11 128 -31 202 -45 244 -46 279
-56 308 -80 36 -31 23 -54 -44 -78 -61 -22 -178 -17 -369 16 -71 12 -153 21
-182 19 -52 -3 -52 -3 80 -71 73 -38 182 -87 242 -109 324 -118 373 -134 481
-152 186 -32 469 -46 637 -32 168 14 260 35 422 95 66 25 176 61 245 82 227
67 409 178 613 375 130 125 205 216 317 385 40 61 84 122 98 138 24 25 24 27
7 26 -55 -5 -56 -3 -49 64 3 34 21 114 40 179 69 242 69 248 66 713 -3 351 -1
432 12 495 9 41 23 81 31 89 13 14 17 13 35 -4 30 -30 37 -95 45 -375 4 -140
13 -289 19 -330 12 -75 12 -75 21 35 4 61 9 218 9 350 1 234 0 245 -37 460
-70 409 -136 613 -279 863 -84 148 -174 234 -212 203 -34 -29 -25 -55 85 -242
186 -315 289 -597 289 -792 0 -82 -16 -114 -69 -142 -42 -21 -51 -5 -51 96 0
178 -58 372 -184 619 -44 85 -101 198 -128 250 -27 54 -54 124 -62 163 -7 37
-26 85 -40 107 -65 98 -351 253 -573 309 -193 49 -547 66 -748 35z m-1141
-550 c29 -11 17 -33 -62 -111 -75 -75 -140 -160 -176 -230 -32 -62 -72 -26
-64 57 10 101 93 211 199 264 54 27 75 31 103 20z m1235 -749 c198 -47 348
-205 359 -380 17 -266 -162 -499 -418 -545 -242 -44 -500 128 -565 375 -52
203 48 423 232 510 111 53 269 69 392 40z m-925 -991 c10 -7 57 -48 105 -91
47 -44 119 -105 159 -136 40 -32 80 -70 89 -84 16 -24 16 -26 -2 -40 -25 -17
-61 -10 -140 29 -121 61 -330 309 -285 338 16 10 45 4 74 -16z"/>
<path d="M4874 5332 c-101 -36 -188 -124 -214 -217 -18 -64 -9 -179 19 -233
96 -187 311 -243 522 -137 179 91 214 350 67 498 -71 71 -142 100 -253 104
-68 3 -102 -1 -141 -15z m236 -164 c111 -56 147 -221 65 -298 -31 -29 -45 -19
-45 33 0 95 -42 167 -98 167 -51 0 -69 -41 -31 -73 24 -21 19 -52 -13 -79 -25
-22 -50 -23 -88 -3 -77 40 -81 164 -8 232 52 49 145 57 218 21z"/>
<path d="M3220 6490 c-6 -11 -8 -20 -6 -20 3 0 10 9 16 20 6 11 8 20 6 20 -3
0 -10 -9 -16 -20z"/>
<path d="M4975 5899 c-151 -17 -315 -92 -323 -148 -7 -47 31 -51 181 -20 310
63 583 -11 790 -216 98 -95 223 -278 305 -441 110 -219 85 -484 -67 -717 -101
-154 -262 -293 -436 -377 -124 -61 -233 -83 -505 -105 -210 -16 -253 -24 -294
-56 -34 -27 -33 -45 4 -64 54 -28 175 -37 346 -27 88 6 202 8 254 5 90 -5 100
-4 167 24 141 60 374 231 513 380 228 241 319 581 228 853 -30 92 -143 309
-224 431 -90 136 -240 286 -352 353 -103 61 -250 111 -367 125 -99 12 -118 12
-220 0z"/>
<path d="M2924 4685 c2 -16 10 -68 16 -115 6 -47 15 -101 20 -120 7 -31 8 -29
9 25 0 35 -10 97 -24 150 -14 50 -23 77 -21 60z"/>
<path d="M3060 4440 c0 -5 16 -53 36 -107 20 -54 47 -127 60 -163 13 -36 24
-81 24 -100 0 -19 14 -73 30 -120 17 -46 30 -94 30 -107 0 -31 -33 -37 -95
-19 -50 15 -50 15 5 -32 71 -61 110 -100 193 -194 53 -60 83 -84 138 -112 103
-52 159 -47 159 14 0 24 -19 51 -138 190 -66 78 -101 146 -142 285 -18 61 -41
129 -51 153 -19 45 -158 262 -192 300 -21 22 -57 30 -57 12z"/>
<path d="M2962 4370 c0 -14 2 -19 5 -12 2 6 2 18 0 25 -3 6 -5 1 -5 -13z"/>
<path d="M6551 4363 c-26 -32 -56 -131 -117 -378 -54 -223 -84 -306 -150 -412
-63 -102 -241 -281 -409 -410 -140 -108 -191 -158 -201 -199 -17 -66 61 -50
222 45 285 169 504 379 605 579 74 149 161 708 121 780 -17 30 -46 28 -71 -5z"/>
<path d="M7032 4350 c0 -14 2 -19 5 -12 2 6 2 18 0 25 -3 6 -5 1 -5 -13z"/>
<path d="M2995 4250 c10 -42 89 -194 103 -198 21 -6 13 22 -20 74 -17 27 -45
72 -60 99 -16 28 -26 39 -23 25z"/>
<path d="M6105 2673 c-313 -112 -417 -154 -530 -213 -71 -37 -155 -74 -185
-81 -39 -10 -121 -14 -290 -13 -244 1 -437 17 -650 54 -153 27 -339 52 -352
48 -16 -6 305 -105 427 -132 187 -42 312 -57 520 -63 287 -7 450 21 540 96 25
21 112 69 193 106 137 63 385 195 407 216 13 13 -1 10 -80 -18z"/>
</g>
</svg>
