<?xml version="1.0" standalone="no"?>
<!DOCTYPE svg PUBLIC "-//W3C//DTD SVG 20010904//EN"
 "http://www.w3.org/TR/2001/REC-SVG-20010904/DTD/svg10.dtd">
<svg version="1.0" xmlns="http://www.w3.org/2000/svg"
 width="1000.000000pt" height="1000.000000pt" viewBox="0 0 1000.000000 1000.000000"
 preserveAspectRatio="xMidYMid meet">
<metadata>
  <rdf:RDF
    xmlns:rdf = "http://www.w3.org/1999/02/22-rdf-syntax-ns#"
    xmlns:rdfs = "http://www.w3.org/2000/01/rdf-schema#"
    xmlns:dc = "http://purl.org/dc/elements/1.1/"
    xmlns:cc = "http://creativecommons.org/ns#">
    <cc:license rdf:resource="http://creativecommons.org/publicdomain/zero/1.0/deed.en"/>
    <cc:permits rdf:resource="http://creativecommons.org/ns#Reproduction"/>
    <rdf:Description about="https://nft.mir.one/fingerprints"
      dc:title="TON Fingerprints"
      dc:description="This is a unique digital fingerprint created based on the algorithm for generating basic rings using a noise texture. Like human fingerprints, you can now use it for the Web3 and Metaverse era as digital biometric information."
      dc:publisher="https://nft.mir.one"
      dc:date="2022-02-22"
      dc:format="image/svg+xml"
      dc:language="en" >
      <dc:creator>
      <rdf:Bag>
        <rdf:li>EQBondcvD2_aOFADXSWJHs4ZazQDuEl9_wNvGGPxI8hGuOFU</rdf:li>
        <rdf:li>ipfs://bafkreihj7iub3fhmhq6jn62noukt5wxn3gv6bvcg7wmt6ywvlurefezckq</rdf:li>
      </rdf:Bag>
      </dc:creator>
    </rdf:Description>
  </rdf:RDF>
</metadata>
<rect width="100%" height="100%" fill="#1b1f23"/>
<g transform="translate(0.000000,1000.000000) scale(0.100000,-0.100000)"
fill="#ffffff" stroke="none">
<path d="M5078 7813 c7 -3 16 -2 19 1 4 3 -2 6 -13 5 -11 0 -14 -3 -6 -6z"/>
<path d="M4960 7796 c-58 -16 -106 -42 -113 -60 -10 -26 5 -25 42 4 20 16 63
38 96 49 65 22 48 27 -25 7z"/>
<path d="M4842 7638 c2 -15 19 -31 48 -47 41 -23 58 -25 240 -32 257 -10 455
-49 755 -152 125 -43 308 -98 312 -93 6 6 -397 200 -480 230 -117 44 -311 92
-427 106 -46 5 -167 10 -268 10 -183 0 -183 0 -180 -22z"/>
<path d="M4539 7569 c-138 -20 -332 -81 -464 -145 -146 -71 -376 -225 -390
-262 -4 -10 5 -6 23 11 32 31 229 117 337 147 83 24 147 25 264 6 47 -8 129
-20 182 -25 116 -13 236 -47 361 -102 51 -22 197 -83 323 -134 127 -51 281
-114 344 -140 62 -25 148 -53 190 -61 168 -32 246 -88 565 -407 219 -219 246
-242 315 -276 95 -45 128 -86 221 -276 102 -209 154 -374 205 -660 47 -256 40
-370 -35 -555 -28 -69 -30 -192 -5 -331 9 -51 20 -112 24 -134 5 -29 10 13 19
145 7 102 20 232 28 290 26 183 33 318 23 470 -22 333 -92 633 -229 980 -31
80 -67 173 -79 207 -67 182 -244 408 -458 586 -83 68 -94 97 -38 97 34 0 125
-40 246 -109 54 -31 54 -31 4 15 -99 92 -166 135 -396 251 -250 127 -394 181
-659 247 -251 63 -400 78 -429 42 -33 -40 23 -69 289 -150 555 -168 743 -252
831 -373 23 -32 135 -150 249 -263 227 -226 273 -289 274 -368 1 -76 -20 -66
-121 55 -115 137 -482 498 -564 553 -88 61 -169 95 -479 205 -438 155 -477
174 -548 256 -18 21 -66 62 -107 90 -41 28 -81 62 -90 76 -32 49 -98 61 -226
42z"/>
<path d="M4064 7200 c-40 -10 -119 -41 -177 -68 -58 -27 -135 -60 -172 -72
-68 -23 -120 -60 -249 -176 -68 -62 -68 -62 11 -34 43 14 92 34 109 43 17 9
101 36 185 61 376 109 527 194 447 250 -29 20 -66 19 -154 -4z"/>
<path d="M4475 7061 c-78 -13 -102 -21 -410 -146 -485 -195 -552 -241 -646
-443 -22 -46 -63 -125 -92 -175 -85 -146 -111 -196 -155 -293 -84 -187 -144
-389 -179 -599 -25 -156 -25 -528 1 -670 41 -224 111 -438 189 -574 26 -45 80
-114 140 -177 103 -108 166 -150 199 -133 37 20 21 55 -102 224 -190 259 -305
505 -357 761 -27 135 -24 423 6 564 63 298 207 592 448 918 126 170 241 266
436 361 317 154 497 194 497 110 0 -42 -47 -74 -206 -139 -248 -101 -382 -180
-510 -302 -203 -193 -406 -513 -493 -776 -60 -181 -75 -278 -75 -477 1 -161 3
-190 27 -277 54 -202 168 -444 324 -685 50 -76 110 -173 134 -217 55 -98 140
-179 302 -287 193 -129 354 -199 547 -239 136 -28 348 -24 449 8 101 33 143
88 84 110 -16 6 -94 13 -174 16 -235 9 -366 44 -614 166 -361 178 -601 438
-761 827 -20 48 -60 133 -89 188 -30 55 -61 129 -71 165 -25 90 -25 322 -1
443 90 446 396 876 765 1070 107 56 242 109 342 132 155 36 433 13 638 -54
133 -44 215 -82 398 -182 89 -49 203 -107 255 -129 52 -22 123 -62 160 -89
133 -101 310 -310 375 -446 35 -71 44 -124 22 -126 -45 -4 -53 2 -183 161
-180 219 -287 311 -507 431 -399 219 -595 285 -873 295 -129 5 -165 3 -253
-15 -296 -62 -563 -235 -756 -491 -173 -229 -271 -487 -291 -765 -12 -161 23
-316 72 -323 34 -5 43 25 53 192 12 187 30 285 76 419 140 404 453 687 874
789 87 21 376 17 475 -6 195 -45 451 -160 645 -288 109 -71 289 -245 474 -458
140 -160 155 -184 217 -349 26 -69 61 -156 77 -192 55 -119 63 -234 26 -354
-9 -27 -51 -124 -94 -215 -46 -95 -88 -201 -100 -249 -43 -170 -137 -310 -354
-527 -145 -144 -232 -218 -488 -412 -170 -129 -247 -170 -379 -206 -137 -37
-244 -49 -419 -48 -179 1 -336 24 -473 71 -120 41 -160 66 -264 168 -61 60
-160 137 -314 244 -123 86 -244 166 -268 178 -43 22 -43 22 -10 -20 67 -85
307 -324 412 -411 85 -70 108 -94 105 -111 -2 -16 -11 -23 -31 -25 -26 -3
-133 19 -184 39 -13 5 -23 7 -23 5 0 -5 115 -78 155 -99 81 -43 376 -177 421
-191 192 -62 637 -60 948 4 137 28 181 27 211 -6 14 -15 25 -31 25 -35 0 -17
33 -9 62 16 25 21 40 25 93 25 195 0 540 202 755 442 170 189 279 368 387 631
64 158 70 169 95 165 69 -10 21 -251 -96 -482 -151 -296 -343 -519 -586 -682
-245 -163 -484 -229 -646 -177 -49 15 -55 15 -88 -1 -158 -75 -668 -132 -946
-106 -145 13 -326 23 -319 16 8 -8 194 -76 280 -101 240 -73 565 -81 992 -24
187 25 268 42 384 80 241 80 511 264 696 476 158 180 352 516 416 718 38 118
47 182 62 410 11 171 10 196 -5 247 -19 66 -44 88 -81 68 -27 -14 -42 -48 -85
-185 -25 -79 -43 -116 -91 -182 -32 -45 -91 -142 -130 -215 -94 -177 -148
-264 -235 -378 -181 -237 -428 -437 -742 -601 -74 -39 -84 -41 -98 -28 -22 23
-8 65 35 108 20 20 102 83 181 140 298 214 489 404 643 642 31 47 130 232 221
412 90 179 173 339 185 355 30 42 42 109 32 173 -12 72 -28 133 -121 464 -44
154 -86 326 -94 382 -32 218 -105 342 -366 618 -62 66 -141 163 -176 215 -82
125 -339 398 -426 453 -126 81 -474 215 -664 257 -105 23 -258 32 -329 21z
m396 -227 c185 -35 419 -129 567 -228 84 -56 253 -198 310 -259 43 -48 52 -74
28 -83 -24 -9 -76 20 -238 129 -293 199 -503 278 -838 318 -52 6 -107 17 -122
25 -48 25 -32 77 32 103 38 15 169 13 261 -5z"/>
<path d="M5703 6764 c-7 -3 -13 -18 -13 -32 0 -20 24 -50 103 -127 56 -56 151
-157 212 -225 60 -69 159 -178 219 -242 126 -135 226 -265 274 -355 49 -93
113 -300 171 -548 87 -379 93 -399 112 -437 35 -68 85 -71 108 -7 41 118 -38
607 -142 875 -81 210 -150 317 -294 454 -48 47 -162 161 -252 255 -298 307
-436 415 -498 389z"/>
<path d="M3299 6524 c-34 -40 -194 -292 -167 -264 47 49 158 190 172 218 22
43 19 73 -5 46z"/>
<path d="M4605 6050 c-235 -33 -463 -142 -622 -297 -199 -195 -296 -416 -338
-768 -8 -71 -22 -164 -31 -205 -22 -98 -14 -171 30 -294 71 -199 169 -333 284
-386 37 -18 99 -58 137 -89 39 -32 90 -71 115 -88 59 -40 483 -248 535 -263
61 -17 310 -24 380 -11 191 35 333 182 487 501 162 335 184 418 175 645 -6
149 -24 227 -77 342 -51 109 -101 183 -185 272 -196 208 -442 321 -700 321
-129 0 -214 -18 -351 -76 -49 -20 -115 -43 -147 -50 -78 -19 -125 -44 -176
-95 -181 -181 -267 -524 -215 -853 9 -55 36 -167 60 -248 47 -158 54 -215 28
-225 -26 -10 -62 36 -119 151 -77 156 -105 271 -105 437 0 397 120 711 338
885 117 93 349 188 526 215 177 28 405 -11 592 -100 141 -67 230 -129 343
-236 116 -111 199 -220 256 -339 65 -138 76 -192 82 -417 8 -292 -3 -336 -150
-586 -58 -96 -70 -155 -38 -172 30 -17 50 -4 205 138 93 85 151 146 183 195
26 39 67 98 92 130 61 81 90 156 91 233 0 71 -14 109 -42 116 -31 8 -54 -24
-82 -115 -27 -89 -49 -128 -71 -128 -40 0 -45 88 -14 230 36 165 25 259 -46
399 -94 187 -335 451 -528 580 -177 117 -377 203 -547 235 -101 20 -276 27
-355 16z m423 -533 c231 -81 423 -281 508 -532 36 -107 45 -284 20 -401 -38
-175 -175 -393 -279 -443 -82 -39 -575 -131 -707 -131 -59 0 -147 23 -212 56
-143 72 -248 245 -248 407 0 34 -14 114 -32 186 -28 110 -32 142 -32 256 0
155 23 255 85 382 70 143 195 257 207 190 2 -10 -28 -80 -66 -156 -88 -172
-107 -249 -100 -400 10 -204 70 -293 270 -400 98 -53 166 -71 263 -71 121 0
224 35 312 107 55 44 99 108 138 202 27 64 36 76 56 76 50 0 62 -80 29 -187
-45 -147 -181 -265 -360 -314 -91 -25 -257 -25 -330 0 -74 25 -138 58 -215
111 -76 51 -101 61 -120 45 -23 -19 -18 -50 16 -109 62 -109 177 -191 308
-221 36 -9 97 -11 185 -7 155 6 293 38 405 93 174 86 291 279 291 482 0 98
-13 149 -70 267 -130 270 -318 405 -549 393 -69 -4 -98 -10 -144 -33 -116 -58
-205 -193 -215 -326 -8 -116 44 -216 139 -263 101 -50 214 -28 282 57 38 46
48 126 23 175 -32 63 -126 83 -171 37 -32 -31 -32 -54 1 -80 45 -36 -2 -81
-64 -59 -59 21 -85 121 -49 190 90 174 359 157 451 -28 36 -73 34 -121 -9
-204 -92 -175 -209 -252 -374 -242 -194 12 -338 155 -349 350 -6 103 9 171 63
283 77 159 166 244 293 281 78 22 260 12 350 -19z m201 -1561 c35 -42 -72
-121 -206 -152 -98 -23 -292 -21 -341 3 -20 10 -37 25 -37 33 0 25 46 39 186
56 74 9 181 29 239 44 124 33 144 35 159 16z"/>
<path d="M3059 4045 c143 -270 233 -371 495 -549 99 -67 240 -165 311 -215
159 -114 277 -172 415 -205 338 -82 663 -40 905 116 273 176 783 634 868 778
40 69 45 115 15 133 -19 12 -45 -4 -154 -96 -38 -31 -102 -74 -144 -95 -55
-27 -101 -62 -175 -132 -136 -129 -208 -188 -329 -269 -63 -42 -112 -84 -130
-109 -158 -228 -689 -240 -1076 -24 -89 49 -211 128 -338 219 -102 74 -186
121 -300 171 -68 30 -183 123 -251 203 -29 35 -81 93 -114 129 -61 65 -61 65
2 -55z"/>
<path d="M5313 2213 c9 -2 23 -2 30 0 6 3 -1 5 -18 5 -16 0 -22 -2 -12 -5z"/>
<path d="M5020 2200 c-65 -7 -65 -7 -10 -7 30 -1 96 2 145 6 90 8 90 8 10 8
-44 0 -109 -3 -145 -7z"/>
<path d="M4883 2183 c9 -2 23 -2 30 0 6 3 -1 5 -18 5 -16 0 -22 -2 -12 -5z"/>
</g>
</svg>
