<?xml version="1.0" standalone="no"?>
<!DOCTYPE svg PUBLIC "-//W3C//DTD SVG 20010904//EN"
 "http://www.w3.org/TR/2001/REC-SVG-20010904/DTD/svg10.dtd">
<svg version="1.0" xmlns="http://www.w3.org/2000/svg"
 width="1000.000000pt" height="1000.000000pt" viewBox="0 0 1000.000000 1000.000000"
 preserveAspectRatio="xMidYMid meet">
<metadata>
  <rdf:RDF
    xmlns:rdf = "http://www.w3.org/1999/02/22-rdf-syntax-ns#"
    xmlns:rdfs = "http://www.w3.org/2000/01/rdf-schema#"
    xmlns:dc = "http://purl.org/dc/elements/1.1/"
    xmlns:cc = "http://creativecommons.org/ns#">
    <cc:license rdf:resource="http://creativecommons.org/publicdomain/zero/1.0/deed.en"/>
    <cc:permits rdf:resource="http://creativecommons.org/ns#Reproduction"/>
    <rdf:Description about="https://nft.mir.one/fingerprints"
      dc:title="TON Fingerprints"
      dc:description="This is a unique digital fingerprint created based on the algorithm for generating basic rings using a noise texture. Like human fingerprints, you can now use it for the Web3 and Metaverse era as digital biometric information."
      dc:publisher="https://nft.mir.one"
      dc:date="2022-02-22"
      dc:format="image/svg+xml"
      dc:language="en" >
      <dc:creator>
      <rdf:Bag>
        <rdf:li>EQBondcvD2_aOFADXSWJHs4ZazQDuEl9_wNvGGPxI8hGuOFU</rdf:li>
        <rdf:li>ipfs://bafkreihj7iub3fhmhq6jn62noukt5wxn3gv6bvcg7wmt6ywvlurefezckq</rdf:li>
      </rdf:Bag>
      </dc:creator>
    </rdf:Description>
  </rdf:RDF>
</metadata>
<rect width="100%" height="100%" fill="#1b1f23"/>
<g transform="translate(0.000000,1000.000000) scale(0.100000,-0.100000)"
fill="#ffffff" stroke="none">
<path d="M5036 7762 c83 -58 239 -145 367 -205 52 -25 123 -64 158 -88 91 -61
258 -227 428 -424 204 -236 245 -275 298 -275 33 0 34 11 7 70 -55 120 -224
340 -374 490 -163 163 -327 274 -440 300 -30 7 -89 26 -130 42 -87 35 -370
138 -378 138 -3 0 26 -22 64 -48z"/>
<path d="M4530 7689 c30 -17 103 -50 161 -74 230 -94 497 -239 643 -350 210
-158 864 -785 992 -951 13 -17 40 -39 60 -50 35 -19 35 -19 60 9 19 22 24 39
24 79 0 99 -43 152 -255 313 -50 38 -197 178 -330 313 -259 264 -344 339 -475
424 -289 188 -503 270 -782 303 -162 19 -162 19 -98 -16z"/>
<path d="M4245 7545 c-11 -2 -51 -7 -89 -10 -69 -7 -69 -7 -25 -27 24 -11 92
-33 151 -49 446 -118 938 -363 938 -466 0 -17 -6 -23 -21 -23 -11 0 -100 38
-197 84 -278 132 -516 222 -736 277 -83 21 -96 21 -190 10 -56 -6 -148 -24
-206 -40 -105 -28 -105 -28 -50 -44 30 -9 107 -23 170 -32 225 -29 460 -98
833 -242 225 -86 258 -96 389 -112 93 -11 142 -37 313 -166 148 -111 336 -292
420 -404 72 -95 162 -264 194 -361 24 -75 40 -186 41 -282 0 -36 14 -138 30
-225 63 -328 120 -830 120 -1058 0 -174 -17 -278 -99 -599 -38 -149 -78 -314
-90 -366 -12 -52 -42 -144 -67 -205 -70 -168 -85 -221 -74 -250 5 -14 14 -25
18 -25 15 0 98 94 135 152 154 240 320 756 368 1143 15 124 15 454 0 640 -29
352 -120 933 -172 1101 -31 100 -62 156 -154 279 -155 205 -315 369 -605 620
-63 55 -168 150 -232 211 -124 119 -224 191 -378 272 -134 71 -341 160 -414
177 -58 14 -279 28 -321 20z"/>
<path d="M6152 7298 c28 -51 75 -136 104 -188 97 -174 122 -247 104 -309 -11
-38 -5 -54 43 -114 34 -44 64 -59 90 -45 23 12 22 36 -9 126 -59 173 -137 309
-302 525 -41 53 -75 97 -77 97 -2 0 20 -42 47 -92z"/>
<path d="M3791 7090 c-40 -11 -117 -40 -172 -65 -54 -25 -104 -46 -111 -46 -7
-1 12 -5 42 -10 30 -5 78 -6 105 -3 126 14 422 -32 685 -106 161 -46 718 -242
850 -300 172 -75 335 -187 468 -319 110 -109 153 -178 132 -211 -14 -22 -54 3
-185 116 -133 116 -272 210 -386 263 -93 43 -622 236 -822 300 -229 73 -442
118 -634 136 -89 8 -167 -12 -213 -55 -44 -41 -30 -55 63 -65 285 -27 720
-148 1120 -309 117 -48 220 -82 287 -96 166 -35 248 -79 492 -263 70 -53 160
-115 199 -137 42 -25 104 -76 152 -125 87 -87 114 -103 147 -85 38 20 27 83
-50 278 -39 97 -87 201 -106 231 -75 112 -277 300 -425 394 -104 66 -183 101
-409 178 -124 42 -296 102 -383 133 -203 72 -360 117 -517 150 -182 37 -241
40 -329 16z"/>
<path d="M3435 6671 c-22 -10 -72 -38 -111 -63 -71 -44 -71 -44 -30 -61 23 -9
58 -17 79 -17 84 0 298 -59 438 -120 48 -22 181 -66 296 -99 218 -62 407 -134
514 -194 100 -56 189 -122 389 -289 200 -167 339 -306 465 -465 76 -95 127
-143 153 -143 6 0 19 11 28 25 22 34 8 85 -51 180 -81 130 -213 263 -489 494
-81 69 -171 153 -198 187 -60 74 -109 111 -226 169 -187 93 -339 145 -782 271
-193 54 -324 96 -356 115 -60 34 -66 34 -119 10z"/>
<path d="M6684 6594 c-15 -110 5 -190 77 -300 75 -114 104 -171 132 -254 58
-169 131 -499 166 -750 11 -80 23 -158 25 -175 11 -74 -6 162 -20 268 -47 371
-115 633 -241 926 -41 95 -87 212 -102 259 -28 86 -28 86 -37 26z"/>
<path d="M3362 6370 c-35 -15 -100 -61 -186 -134 -77 -66 -77 -66 -44 -66 18
0 83 11 143 25 64 15 175 30 265 36 173 12 205 22 205 59 0 19 -9 29 -38 43
-75 37 -288 60 -345 37z"/>
<path d="M6573 6215 c-12 -8 -29 -35 -38 -60 -21 -53 -18 -87 30 -335 168
-859 185 -1409 59 -1918 -65 -264 -172 -537 -283 -724 -118 -198 -201 -278
-289 -278 -34 0 -49 -8 -98 -49 -79 -68 -150 -100 -237 -110 -109 -12 -189
-60 -352 -210 -55 -51 -106 -90 -115 -89 -32 6 -24 66 20 139 43 73 70 138 70
172 0 11 20 63 44 116 24 53 63 150 86 216 91 256 201 430 225 356 8 -25 0
-54 -46 -176 -53 -143 -64 -210 -50 -295 14 -84 28 -118 53 -126 30 -9 140 50
183 98 44 48 101 165 146 298 32 98 35 131 29 320 -2 67 4 94 55 255 95 304
110 371 109 520 0 123 -1 134 -31 205 -27 64 -34 97 -43 210 -30 376 -74 610
-140 740 -62 123 -620 590 -824 690 -100 49 -165 31 -122 -35 8 -12 82 -75
163 -138 294 -227 435 -360 530 -500 61 -88 83 -166 83 -291 0 -57 9 -151 21
-216 24 -139 27 -308 5 -405 -76 -350 -82 -371 -110 -362 -6 2 -19 16 -30 31
-19 25 -22 47 -28 269 -7 249 -17 323 -57 425 -26 66 -31 74 -167 262 -177
245 -262 335 -499 525 -287 231 -553 362 -862 424 -136 28 -209 27 -299 -4
-39 -14 -143 -36 -230 -50 -298 -48 -313 -55 -449 -192 -71 -73 -74 -78 -51
-81 14 -2 61 8 103 23 116 39 250 71 423 102 130 23 183 27 330 27 194 0 266
-13 445 -81 368 -140 833 -508 928 -735 8 -20 21 -62 27 -94 7 -31 28 -93 47
-138 99 -228 135 -424 136 -726 0 -130 -3 -155 -27 -235 -37 -121 -109 -262
-220 -430 -151 -228 -256 -347 -416 -470 -138 -106 -359 -224 -450 -239 -80
-14 -76 36 8 90 26 17 101 66 167 109 204 132 348 264 474 434 248 335 338
644 287 989 -21 140 -46 225 -98 325 -37 71 -57 93 -201 225 -243 224 -278
248 -387 271 -37 8 -88 33 -156 75 -298 189 -511 243 -720 183 -49 -14 -146
-33 -216 -42 -138 -17 -291 -53 -370 -87 -54 -23 -124 -94 -165 -167 -14 -25
-37 -63 -50 -84 -24 -39 -24 -39 -1 -32 13 4 43 18 68 31 190 104 329 146 485
147 72 1 115 -4 155 -18 77 -25 302 -139 385 -194 189 -126 357 -364 427 -606
20 -68 23 -103 23 -235 0 -135 -3 -165 -23 -230 -46 -145 -98 -219 -203 -291
-32 -21 -77 -62 -101 -90 -101 -120 -255 -227 -451 -315 -59 -26 -126 -63
-148 -82 -27 -23 -51 -35 -70 -35 -36 0 -36 -4 -1 -53 65 -89 159 -151 274
-180 73 -19 137 -10 260 38 135 52 400 242 564 405 201 200 337 451 375 693
16 105 6 305 -20 405 -28 105 -115 278 -197 390 -36 50 -86 118 -111 153 -46
64 -63 130 -37 139 32 11 255 -220 362 -375 98 -143 142 -263 163 -448 28
-252 -45 -515 -214 -772 -122 -185 -259 -320 -512 -503 -55 -40 -130 -96 -166
-126 -102 -82 -200 -121 -361 -143 -40 -6 -96 -16 -125 -22 -51 -12 -51 -12
70 -50 174 -56 242 -64 390 -50 67 7 142 12 167 12 180 0 548 195 746 397 36
36 114 134 173 217 59 83 151 210 205 281 106 143 165 253 223 418 35 101 41
111 92 155 46 39 62 63 104 152 52 112 79 150 109 150 28 0 33 -26 20 -111
-14 -100 -42 -181 -141 -414 -114 -266 -177 -365 -272 -425 -65 -42 -137 -122
-195 -218 -173 -283 -230 -345 -431 -470 -257 -159 -412 -219 -713 -276 -102
-19 -210 -44 -240 -55 -55 -20 -55 -20 -13 -21 23 0 91 -7 150 -16 165 -25
329 -15 458 26 167 54 264 101 451 219 92 58 164 70 164 27 0 -21 -154 -180
-207 -214 -62 -40 -214 -100 -394 -156 -79 -24 -171 -56 -204 -70 -60 -25 -60
-25 10 -21 239 16 358 28 420 41 112 25 153 28 170 14 20 -17 12 -41 -40 -116
-43 -62 -43 -62 8 -30 28 17 74 54 102 82 61 62 94 79 163 87 38 4 83 22 157
62 123 66 175 71 175 18 0 -3 -40 -44 -89 -91 -93 -92 -151 -169 -77 -105 20
18 76 59 124 92 48 32 98 71 112 86 14 15 81 68 150 118 197 143 351 269 444
368 92 96 220 281 304 439 240 451 359 1031 323 1577 -20 314 -62 595 -137
923 -76 327 -115 398 -191 345z m-2578 -800 c171 -56 342 -167 417 -271 156
-217 301 -479 336 -611 75 -276 30 -557 -129 -803 -109 -170 -367 -405 -568
-518 -184 -102 -421 -132 -492 -61 -30 30 -9 49 55 49 130 0 361 95 517 214
117 89 277 242 337 324 165 224 217 496 147 767 -40 154 -152 364 -274 517
-109 136 -213 208 -474 327 -87 40 -105 56 -93 87 5 14 17 16 75 10 37 -3 103
-17 146 -31z m1919 -1923 c8 -13 -20 -137 -55 -242 -54 -164 -124 -277 -159
-255 -17 10 -13 26 55 235 68 209 86 255 107 263 21 8 46 8 52 -1z"/>
<path d="M3685 5853 c-106 -13 -326 -58 -418 -85 -125 -36 -167 -67 -267 -198
-59 -77 -59 -77 -22 -70 20 4 64 18 97 32 202 86 596 168 804 168 131 0 307
-43 464 -114 76 -35 387 -208 457 -256 30 -21 108 -85 173 -144 109 -98 161
-136 187 -136 6 0 15 11 21 24 34 75 -194 312 -476 495 -317 206 -571 293
-852 290 -76 -1 -151 -4 -168 -6z"/>
<path d="M3306 5150 c-122 -31 -220 -82 -254 -133 -43 -62 -72 -122 -103 -216
-33 -96 -41 -98 88 20 202 186 465 230 707 120 216 -98 370 -286 433 -530 28
-111 34 -285 14 -411 -17 -100 -12 -164 12 -168 57 -11 125 136 147 316 14
111 -1 246 -41 367 -100 301 -322 518 -641 625 -94 32 -258 36 -362 10z"/>
<path d="M7093 5010 c0 -25 2 -35 4 -22 2 12 2 32 0 45 -2 12 -4 2 -4 -23z"/>
<path d="M3356 4854 c-79 -19 -169 -69 -227 -125 -54 -52 -79 -118 -100 -259
-32 -221 34 -468 153 -575 62 -56 87 -57 198 -10 163 68 289 175 347 294 88
180 -44 401 -239 401 -94 0 -169 -44 -208 -121 -24 -46 -26 -128 -5 -169 39
-76 164 -80 201 -8 18 35 10 66 -18 70 -34 5 -46 33 -24 57 38 42 121 18 150
-43 34 -71 10 -153 -64 -220 -63 -56 -122 -80 -205 -80 -95 -1 -152 31 -189
106 -58 116 -18 309 86 418 221 229 588 111 673 -217 33 -127 18 -192 -67
-282 -35 -37 -86 -94 -115 -127 -66 -78 -161 -142 -292 -199 -150 -65 -159
-76 -91 -121 34 -23 47 -26 89 -21 27 3 78 19 114 35 175 80 301 209 362 375
23 60 49 64 66 9 24 -82 -36 -223 -140 -328 -100 -101 -287 -205 -429 -238
-53 -12 -142 -56 -115 -56 7 0 38 -16 70 -35 90 -54 136 -50 272 22 160 85
269 159 337 228 109 111 135 199 135 449 -1 234 -37 382 -127 517 -136 205
-376 307 -598 253z"/>
</g>
</svg>
