<?xml version="1.0" standalone="no"?>
<!DOCTYPE svg PUBLIC "-//W3C//DTD SVG 20010904//EN"
 "http://www.w3.org/TR/2001/REC-SVG-20010904/DTD/svg10.dtd">
<svg version="1.0" xmlns="http://www.w3.org/2000/svg"
 width="1000.000000pt" height="1000.000000pt" viewBox="0 0 1000.000000 1000.000000"
 preserveAspectRatio="xMidYMid meet">
<metadata>
  <rdf:RDF
    xmlns:rdf = "http://www.w3.org/1999/02/22-rdf-syntax-ns#"
    xmlns:rdfs = "http://www.w3.org/2000/01/rdf-schema#"
    xmlns:dc = "http://purl.org/dc/elements/1.1/"
    xmlns:cc = "http://creativecommons.org/ns#">
    <cc:license rdf:resource="http://creativecommons.org/publicdomain/zero/1.0/deed.en"/>
    <cc:permits rdf:resource="http://creativecommons.org/ns#Reproduction"/>
    <rdf:Description about="https://nft.mir.one/fingerprints"
      dc:title="TON Fingerprints"
      dc:description="This is a unique digital fingerprint created based on the algorithm for generating basic rings using a noise texture. Like human fingerprints, you can now use it for the Web3 and Metaverse era as digital biometric information."
      dc:publisher="https://nft.mir.one"
      dc:date="2022-02-22"
      dc:format="image/svg+xml"
      dc:language="en" >
      <dc:creator>
      <rdf:Bag>
        <rdf:li>EQBondcvD2_aOFADXSWJHs4ZazQDuEl9_wNvGGPxI8hGuOFU</rdf:li>
        <rdf:li>ipfs://bafkreihj7iub3fhmhq6jn62noukt5wxn3gv6bvcg7wmt6ywvlurefezckq</rdf:li>
      </rdf:Bag>
      </dc:creator>
    </rdf:Description>
  </rdf:RDF>
</metadata>
<rect width="100%" height="100%" fill="#1b1f23"/>
<g transform="translate(0.000000,1000.000000) scale(0.100000,-0.100000)"
fill="#ffffff" stroke="none">
<path d="M4641 7668 c-114 -13 -317 -65 -478 -124 -73 -26 -132 -49 -130 -50
4 -4 194 24 305 45 264 51 431 52 632 2 69 -16 195 -39 281 -51 322 -41 582
-111 827 -221 74 -34 250 -93 236 -79 -5 4 -70 47 -144 94 -365 234 -702 344
-1185 385 -139 12 -226 12 -344 -1z"/>
<path d="M4560 7449 c-282 -44 -463 -111 -696 -259 -50 -32 -108 -65 -129 -74
-87 -37 -193 -129 -300 -261 -49 -60 -49 -60 21 7 126 121 265 201 296 170 16
-16 1 -48 -51 -110 -91 -109 -167 -219 -310 -445 -127 -202 -148 -230 -184
-247 -49 -24 -73 -25 -85 -4 -6 11 -11 -17 -15 -83 -3 -54 -9 -120 -13 -148
-7 -50 -7 -50 15 -30 12 10 38 50 58 88 33 62 42 71 89 92 72 32 133 75 215
153 102 95 155 171 180 255 12 40 32 94 46 120 52 104 206 337 246 374 120
111 378 207 732 273 204 39 223 45 231 77 7 26 -6 40 -51 55 -29 9 -230 7
-295 -3z"/>
<path d="M5050 7331 c-19 -4 -69 -24 -111 -44 -47 -23 -150 -55 -272 -86 -396
-101 -553 -175 -699 -329 -81 -86 -208 -299 -208 -350 0 -40 55 -55 117 -31
15 6 68 19 118 29 60 12 138 39 235 83 360 161 608 224 921 234 181 6 285 -3
502 -43 152 -28 214 -28 231 -1 53 84 -252 195 -584 213 -327 18 -815 -105
-1122 -283 -199 -116 -206 -119 -219 -106 -43 43 116 192 306 286 147 73 279
117 545 182 277 68 422 79 630 50 219 -31 390 -93 540 -195 101 -69 157 -98
333 -176 94 -42 209 -98 254 -124 45 -27 92 -51 105 -55 13 -4 39 -16 58 -27
53 -29 -183 206 -314 314 -60 49 -143 112 -184 140 -100 68 -330 177 -467 222
-236 79 -578 125 -715 97z"/>
<path d="M4991 6699 c-242 -27 -470 -93 -786 -229 -426 -182 -513 -232 -885
-511 -163 -122 -178 -141 -235 -293 -88 -237 -135 -506 -135 -766 0 -177 9
-219 101 -504 152 -472 252 -661 452 -853 284 -273 688 -399 1040 -324 118 25
228 61 305 100 65 33 80 47 125 116 19 29 80 90 148 147 153 127 216 214 234
323 4 22 20 85 35 140 65 228 79 436 40 591 -50 201 -180 367 -375 479 -55 31
-136 81 -180 111 -86 57 -136 73 -228 74 -210 1 -398 -128 -507 -348 -64 -130
-80 -258 -55 -456 16 -128 16 -217 -1 -273 -14 -50 142 -175 286 -228 62 -23
96 -29 197 -33 109 -4 130 -2 212 22 106 30 172 61 257 122 324 229 214 725
-175 795 -170 30 -319 -62 -366 -226 -72 -247 177 -458 399 -337 63 34 106 98
106 158 0 53 -30 94 -70 94 -36 0 -45 -13 -29 -42 10 -19 8 -25 -15 -45 -33
-28 -61 -29 -102 -4 -91 56 -54 196 59 218 94 20 182 -25 229 -116 92 -176
-46 -393 -282 -442 -31 -6 -90 -9 -134 -6 -64 4 -93 12 -152 41 -151 75 -224
225 -211 434 19 300 246 489 518 431 177 -38 356 -160 437 -298 99 -169 108
-403 22 -578 -38 -78 -105 -138 -242 -221 -279 -168 -506 -209 -753 -137 -203
59 -432 208 -562 364 -71 86 -157 260 -190 386 -36 136 -38 347 -4 470 44 164
150 332 270 432 118 97 246 142 287 101 23 -23 9 -45 -110 -168 -111 -116
-161 -185 -211 -293 -58 -126 -70 -185 -69 -347 1 -128 4 -156 28 -235 48
-159 124 -273 209 -314 50 -24 67 -26 90 -8 16 11 14 22 -32 137 -59 148 -81
248 -81 364 0 224 93 427 288 624 136 138 228 170 442 152 58 -5 163 -9 233
-10 153 0 254 -19 355 -66 252 -116 441 -359 524 -674 26 -99 35 -303 18 -407
-14 -89 -56 -229 -71 -238 -5 -4 -17 -1 -26 6 -13 12 -14 27 -7 109 5 52 9
172 8 265 -1 202 -16 273 -93 430 -81 167 -195 293 -344 383 -103 62 -237 97
-291 76 -26 -10 -19 -50 12 -72 15 -10 56 -33 92 -50 245 -116 407 -300 481
-548 30 -98 36 -311 15 -519 -36 -363 -124 -518 -398 -703 -118 -80 -142 -107
-112 -129 23 -17 29 -16 95 3 70 21 136 55 228 117 76 51 224 185 244 222 6
11 14 52 17 91 9 97 70 224 134 277 144 119 191 434 110 744 -85 330 -274 588
-524 717 -137 70 -222 93 -453 121 -137 16 -205 37 -259 79 -54 41 -273 85
-458 93 -217 9 -315 -16 -476 -123 -251 -165 -416 -459 -431 -764 -6 -136 10
-239 64 -399 124 -373 358 -667 651 -818 163 -85 286 -116 457 -116 231 0 423
79 697 287 75 58 98 68 118 56 37 -23 -72 -154 -223 -268 -266 -201 -389 -247
-647 -246 -180 1 -291 27 -455 108 -359 178 -591 489 -828 1111 -42 110 -42
110 -41 260 0 129 4 164 27 247 56 210 144 378 266 510 126 135 304 262 470
334 111 48 167 57 268 43 116 -17 169 -4 338 81 220 110 396 151 651 151 349
0 621 -84 836 -257 83 -67 138 -143 218 -303 142 -285 225 -569 237 -808 5
-94 3 -116 -11 -138 -9 -14 -20 -25 -25 -25 -15 0 -29 50 -51 175 -40 231
-101 423 -195 612 -137 278 -303 439 -550 534 -306 118 -715 116 -990 -6 -72
-32 -95 -51 -95 -81 0 -53 80 -57 230 -12 104 32 107 32 315 32 198 0 216 -2
310 -28 115 -31 255 -95 346 -157 229 -155 405 -456 510 -873 17 -66 47 -161
66 -211 32 -80 36 -100 36 -180 0 -104 -22 -230 -59 -342 -85 -254 -233 -454
-438 -591 -56 -38 -159 -108 -231 -157 -147 -100 -273 -164 -390 -196 -44 -12
-109 -30 -145 -40 -36 -10 -93 -36 -126 -57 -72 -47 -104 -58 -209 -72 -107
-14 -148 -26 -170 -50 -27 -30 -12 -48 72 -86 185 -85 339 -116 476 -96 144
21 382 104 581 203 433 217 687 459 867 824 137 281 209 606 209 948 0 178
-13 284 -65 549 -40 201 -45 286 -17 311 40 36 54 -7 126 -372 57 -288 71
-423 63 -621 -19 -468 -174 -900 -444 -1232 -199 -244 -529 -456 -973 -622
-96 -36 -212 -81 -257 -101 -108 -47 -210 -61 -363 -48 -63 5 -128 6 -145 1
-16 -4 -56 -15 -89 -23 -64 -18 -97 -16 -321 24 -139 25 -292 35 -370 24 -60
-8 -60 -8 70 -50 553 -178 575 -182 1085 -188 374 -4 407 -1 592 61 134 44
349 151 493 244 61 39 135 84 166 100 176 90 443 457 613 842 31 70 56 131 56
135 0 5 -27 -47 -60 -114 -101 -210 -281 -466 -439 -623 -90 -89 -107 -101
-271 -188 -359 -191 -540 -270 -730 -319 -107 -27 -203 -34 -222 -15 -24 24
27 52 208 113 277 94 546 224 768 373 414 277 707 873 756 1541 17 223 -2 401
-70 691 -16 66 -35 161 -43 211 -18 107 -40 154 -101 214 -32 31 -55 66 -75
116 -16 39 -43 90 -60 113 -18 26 -31 55 -31 73 0 55 -39 114 -123 190 -153
136 -179 164 -175 189 3 20 8 23 42 21 67 -4 198 -90 341 -223 39 -36 96 -87
128 -114 47 -39 58 -53 55 -74 -2 -20 -11 -28 -35 -34 -70 -18 -56 -75 27
-113 41 -18 45 -18 107 -2 36 9 69 14 74 11 6 -3 -10 15 -35 40 -38 40 -86
131 -86 166 0 27 -154 235 -229 311 -98 98 -187 147 -311 175 -41 9 -129 30
-195 46 -93 23 -138 29 -200 27 -138 -5 -218 -1 -371 21 -170 25 -437 34 -563
19z m369 -159 c131 -14 316 -46 433 -75 146 -36 225 -79 342 -185 55 -50 155
-128 223 -173 127 -85 145 -109 97 -127 -30 -11 -72 -3 -191 35 -65 20 -101
41 -199 115 -66 50 -154 108 -196 130 -235 122 -622 185 -934 150 -202 -23
-336 -60 -612 -172 -193 -78 -256 -90 -261 -50 -7 47 54 90 233 167 374 160
721 220 1065 185z m943 -675 c51 -39 95 -98 119 -160 17 -43 94 -392 124 -560
12 -68 18 -152 18 -265 0 -142 -4 -191 -32 -352 -62 -355 -135 -556 -282 -777
-122 -182 -324 -363 -565 -508 -127 -77 -180 -103 -314 -158 -221 -90 -420
-121 -457 -70 -22 30 -1 42 142 79 71 19 163 46 204 61 173 63 461 232 632
372 201 164 365 407 442 652 15 46 38 143 52 215 39 200 51 265 68 341 32 146
15 338 -55 618 -48 191 -75 266 -140 400 -27 55 -49 108 -49 117 0 42 34 40
93 -5z"/>
<path d="M4779 5870 c-71 -12 -119 -38 -119 -65 0 -33 35 -43 188 -55 387 -30
582 -109 783 -316 94 -99 147 -176 215 -318 103 -216 161 -468 151 -655 -11
-201 -61 -329 -202 -521 -87 -118 -139 -206 -129 -221 11 -18 62 -8 106 21 77
51 198 211 262 345 68 141 98 274 97 429 0 204 -130 627 -257 839 -176 292
-429 462 -764 513 -101 15 -255 17 -331 4z"/>
<path d="M6857 5791 c-6 -24 14 -80 42 -120 18 -25 71 -61 133 -89 4 -2 -25
49 -65 112 -71 114 -99 139 -110 97z"/>
<path d="M6893 5543 c-7 -17 3 -59 71 -298 40 -143 83 -396 95 -555 8 -115 8
-115 10 30 1 172 -12 332 -40 490 -42 243 -109 404 -136 333z"/>
<path d="M7053 4505 c0 -22 2 -30 4 -17 2 12 2 30 0 40 -3 9 -5 -1 -4 -23z"/>
<path d="M7041 4404 c0 -11 3 -14 6 -6 3 7 2 16 -1 19 -3 4 -6 -2 -5 -13z"/>
<path d="M3195 3585 c131 -232 311 -455 459 -567 121 -91 216 -132 366 -158
143 -24 246 -47 374 -84 97 -28 146 -32 164 -14 21 21 13 38 -47 95 -33 31
-65 68 -71 84 -16 36 -32 42 -263 89 -302 62 -456 117 -607 220 -63 43 -322
283 -361 335 -39 52 -43 52 -14 0z"/>
<path d="M6259 2753 c-24 -28 -24 -28 4 -4 15 14 27 26 27 28 0 8 -8 1 -31
-24z"/>
<path d="M6189 2693 c-13 -16 -12 -17 4 -4 16 13 21 21 13 21 -2 0 -10 -8 -17
-17z"/>
<path d="M6155 2670 c-16 -27 -160 -97 -340 -165 -224 -86 -328 -116 -495
-140 -63 -9 -158 -25 -212 -36 -125 -25 -264 -24 -487 2 -167 19 -352 49 -396
64 -16 5 -17 4 -5 -4 23 -14 238 -78 344 -102 246 -55 432 -63 584 -25 53 13
148 33 210 45 62 11 161 37 220 56 123 40 402 174 503 241 63 43 100 74 86 74
-3 0 -9 -4 -12 -10z"/>
</g>
</svg>
