<?xml version="1.0" standalone="no"?>
<!DOCTYPE svg PUBLIC "-//W3C//DTD SVG 20010904//EN"
 "http://www.w3.org/TR/2001/REC-SVG-20010904/DTD/svg10.dtd">
<svg version="1.0" xmlns="http://www.w3.org/2000/svg"
 width="1000.000000pt" height="1000.000000pt" viewBox="0 0 1000.000000 1000.000000"
 preserveAspectRatio="xMidYMid meet">
<metadata>
  <rdf:RDF
    xmlns:rdf = "http://www.w3.org/1999/02/22-rdf-syntax-ns#"
    xmlns:rdfs = "http://www.w3.org/2000/01/rdf-schema#"
    xmlns:dc = "http://purl.org/dc/elements/1.1/"
    xmlns:cc = "http://creativecommons.org/ns#">
    <cc:license rdf:resource="http://creativecommons.org/publicdomain/zero/1.0/deed.en"/>
    <cc:permits rdf:resource="http://creativecommons.org/ns#Reproduction"/>
    <rdf:Description about="https://nft.mir.one/fingerprints"
      dc:title="TON Fingerprints"
      dc:description="This is a unique digital fingerprint created based on the algorithm for generating basic rings using a noise texture. Like human fingerprints, you can now use it for the Web3 and Metaverse era as digital biometric information."
      dc:publisher="https://nft.mir.one"
      dc:date="2022-02-22"
      dc:format="image/svg+xml"
      dc:language="en" >
      <dc:creator>
      <rdf:Bag>
        <rdf:li>EQBondcvD2_aOFADXSWJHs4ZazQDuEl9_wNvGGPxI8hGuOFU</rdf:li>
        <rdf:li>ipfs://bafkreihj7iub3fhmhq6jn62noukt5wxn3gv6bvcg7wmt6ywvlurefezckq</rdf:li>
      </rdf:Bag>
      </dc:creator>
    </rdf:Description>
  </rdf:RDF>
</metadata>
<rect width="100%" height="100%" fill="#1b1f23"/>
<g transform="translate(0.000000,1000.000000) scale(0.100000,-0.100000)"
fill="#ffffff" stroke="none">
<path d="M4875 7669 c-372 -77 -476 -108 -587 -174 -49 -30 -109 -55 -168 -71
-101 -27 -206 -66 -295 -112 -58 -29 -58 -29 1 -25 32 3 83 9 113 14 70 12
173 12 204 0 70 -27 27 -74 -116 -126 -358 -130 -597 -386 -897 -960 -63 -120
-63 -120 6 -46 38 41 94 109 124 152 137 191 293 360 423 456 127 93 416 243
614 319 86 33 252 53 483 61 283 9 457 -15 685 -94 203 -71 368 -173 575 -358
127 -114 164 -139 185 -131 20 7 19 50 -2 84 -72 114 -272 318 -413 422 -178
130 -405 230 -604 265 -112 19 -342 19 -536 0 -188 -19 -251 -19 -299 1 -44
17 -61 48 -40 70 21 20 108 40 357 80 188 31 253 38 377 38 133 1 161 -2 245
-26 243 -68 445 -187 649 -383 154 -148 275 -309 365 -482 51 -100 100 -161
271 -343 64 -69 156 -177 203 -240 92 -124 190 -254 209 -279 7 -9 -28 69 -78
174 -105 220 -172 325 -333 525 -123 152 -258 345 -303 433 -51 102 -108 174
-252 318 -244 244 -470 375 -761 440 -111 24 -282 24 -405 -2z"/>
<path d="M6247 7245 c23 -27 65 -72 94 -100 44 -41 41 -36 -16 25 -98 107
-125 133 -78 75z"/>
<path d="M4675 6990 c-188 -17 -336 -56 -523 -139 -215 -95 -380 -209 -538
-374 -162 -168 -303 -384 -349 -537 -24 -80 -68 -620 -61 -740 9 -133 22 -212
53 -308 59 -188 160 -341 354 -533 132 -131 139 -140 193 -250 68 -138 122
-209 212 -278 92 -69 183 -112 371 -175 86 -29 158 -57 160 -62 7 -22 -18 -37
-70 -42 -70 -6 -323 56 -415 100 -140 69 -252 192 -369 405 -102 186 -181 260
-199 186 -10 -37 45 -197 111 -328 68 -136 145 -235 287 -368 76 -71 128 -129
143 -158 97 -189 483 -295 950 -259 366 27 590 97 831 259 152 101 284 247
284 313 0 32 -18 43 -53 34 -12 -3 -80 -49 -152 -101 -313 -232 -548 -317
-960 -345 -171 -12 -399 -2 -521 24 -83 18 -226 68 -272 96 -38 23 -51 48 -31
61 23 14 62 10 171 -17 92 -24 127 -27 330 -31 561 -12 818 53 1218 308 63 40
151 88 195 106 83 35 91 41 257 210 109 110 146 160 203 273 104 206 140 379
139 665 0 187 -2 206 -28 300 -43 152 -43 155 -13 155 47 0 109 -107 148 -256
27 -102 37 -333 19 -471 -14 -119 -64 -316 -121 -478 -40 -116 -42 -125 -49
-290 -9 -194 -24 -253 -109 -430 -148 -303 -353 -507 -670 -665 -131 -65 -308
-125 -433 -146 -97 -16 -97 -16 -182 11 -76 24 -97 27 -188 23 -93 -4 -110 -8
-168 -37 -63 -33 -67 -33 -155 -28 -196 12 -454 85 -644 182 -265 136 -508
361 -696 647 -76 115 -227 328 -233 328 -8 0 180 -353 234 -440 169 -274 369
-485 609 -643 180 -118 338 -181 608 -241 87 -20 187 -44 222 -55 109 -34 224
-46 316 -33 81 12 491 139 629 195 214 87 483 280 624 447 87 103 166 228 252
396 86 169 106 229 139 421 14 78 39 193 55 255 17 62 43 163 59 223 82 310
97 634 40 821 -32 104 -101 238 -178 344 -39 52 -113 157 -167 233 -115 163
-252 326 -355 421 -144 133 -471 364 -640 451 -96 49 -114 69 -84 91 39 29
133 4 255 -66 103 -60 466 -315 538 -378 187 -164 488 -559 657 -862 32 -58
79 -139 103 -180 25 -41 51 -92 59 -115 13 -40 13 -40 7 15 -10 96 -146 467
-230 630 -85 165 -265 390 -481 601 -84 83 -129 120 -158 129 -73 23 -129 57
-270 164 -192 145 -312 205 -515 256 -295 73 -536 99 -755 80z m335 -210 c99
-13 232 -47 297 -75 40 -18 59 -35 86 -77 45 -69 55 -78 232 -198 193 -132
311 -221 409 -308 158 -142 315 -339 402 -507 47 -89 47 -89 50 -302 1 -118
-2 -228 -7 -246 -5 -17 -16 -106 -23 -197 -21 -247 -52 -343 -153 -466 -27
-32 -76 -97 -108 -143 -138 -195 -359 -370 -640 -506 -229 -112 -355 -144
-594 -152 -184 -6 -283 6 -330 40 -17 12 -50 36 -74 54 -24 17 -107 60 -185
96 -78 35 -176 86 -219 113 -90 55 -233 192 -233 222 0 48 41 34 195 -67 186
-122 488 -265 637 -303 116 -29 339 -22 480 15 361 95 706 346 804 585 21 52
24 72 24 217 0 249 -23 356 -98 453 -20 26 -60 103 -90 172 -29 69 -74 159
-99 201 -121 203 -311 367 -528 453 -124 50 -181 61 -330 61 -119 0 -151 -3
-215 -23 -163 -52 -280 -131 -429 -292 -61 -65 -110 -109 -142 -125 -27 -14
-55 -35 -63 -48 -24 -36 -39 -153 -33 -246 17 -232 110 -428 287 -601 258
-253 610 -329 895 -192 229 111 365 337 365 609 0 161 -48 278 -162 398 -142
150 -334 222 -525 196 -221 -30 -425 -222 -411 -386 11 -128 93 -125 158 4 32
65 120 148 187 178 81 36 204 42 289 15 330 -104 420 -525 168 -777 -101 -102
-215 -148 -369 -149 -158 0 -301 55 -416 161 -72 67 -111 128 -148 229 -71
196 -79 358 -23 479 85 179 263 325 460 376 353 90 768 -144 894 -506 43 -123
36 -271 -22 -483 -97 -353 -450 -581 -824 -534 -238 30 -475 148 -672 335
-217 205 -317 429 -345 772 -23 289 18 494 132 662 43 63 161 186 224 232 305
226 698 284 1030 152 223 -89 495 -271 681 -456 186 -184 287 -349 374 -615
54 -162 73 -200 99 -200 47 0 52 58 21 242 -25 144 -39 187 -96 298 -94 183
-282 392 -499 556 -152 114 -459 316 -548 361 -107 54 -202 75 -369 80 -112 4
-171 1 -250 -12 -433 -72 -809 -368 -953 -750 -48 -125 -66 -228 -72 -406 -11
-318 48 -544 204 -778 84 -126 197 -233 357 -339 251 -167 460 -258 658 -288
431 -65 876 201 973 583 8 35 22 116 31 180 16 126 29 166 55 171 25 5 40 -49
46 -163 14 -254 -49 -434 -207 -595 -183 -187 -440 -301 -710 -316 -231 -14
-478 68 -818 270 -59 34 -145 82 -192 106 -157 81 -380 333 -468 530 -79 178
-106 316 -106 550 0 190 12 299 49 445 123 484 594 884 1141 969 106 17 299
19 404 6z m165 -4160 c9 -14 -11 -37 -49 -58 -48 -26 -200 -23 -246 4 -20 11
-36 29 -38 42 -3 22 -3 22 162 22 104 0 167 -4 171 -10z"/>
<path d="M4670 6245 c-201 -45 -338 -116 -479 -250 -156 -148 -240 -335 -197
-438 30 -72 59 -59 126 54 102 172 237 300 395 375 144 68 196 79 380 78 145
0 168 -3 250 -28 308 -94 573 -300 745 -581 55 -90 224 -448 251 -534 16 -50
22 -102 26 -219 5 -123 9 -157 22 -174 44 -54 101 33 121 184 17 126 2 209
-55 321 -25 48 -68 142 -96 209 -28 67 -68 156 -89 198 -183 364 -559 673
-960 787 -109 32 -338 41 -440 18z"/>
<path d="M4913 5263 c-56 -19 -133 -89 -162 -148 -36 -72 -26 -117 37 -176 83
-76 191 -86 241 -22 38 47 23 85 -35 87 -29 1 -40 6 -42 19 -16 83 96 117 161
49 85 -89 49 -227 -78 -295 -31 -17 -58 -22 -120 -22 -92 0 -143 19 -258 98
-67 46 -89 53 -121 41 -27 -10 -20 -75 13 -120 99 -138 312 -208 482 -158 185
54 304 236 269 411 -38 185 -219 296 -387 236z"/>
<path d="M6370 6973 c0 -76 241 -380 375 -472 50 -34 50 -34 4 15 -47 49 -346
446 -356 471 -9 23 -23 14 -23 -14z"/>
<path d="M3037 5787 c3 -13 -7 -77 -20 -143 -51 -240 -61 -337 -61 -564 0
-196 2 -226 27 -340 15 -69 34 -177 42 -240 11 -80 33 -168 71 -290 66 -206
82 -240 139 -300 24 -25 69 -90 101 -145 146 -255 299 -445 488 -603 195 -165
398 -264 634 -311 154 -31 224 -34 370 -17 74 9 207 16 296 16 252 0 396 31
606 131 359 171 584 430 716 825 38 113 41 145 18 168 -19 19 -18 19 -54 1
-52 -27 -131 -153 -199 -317 -81 -195 -269 -377 -518 -502 -98 -49 -162 -72
-273 -101 -124 -31 -204 -41 -435 -56 -371 -23 -591 9 -810 118 -108 54 -188
119 -341 275 -249 255 -342 404 -394 633 -16 72 -32 164 -36 205 -8 105 -45
177 -145 285 -91 98 -146 199 -195 360 -27 85 -28 100 -28 290 0 174 3 221 28
365 30 176 30 245 0 267 -25 19 -32 16 -27 -10z m194 -1459 c37 -74 89 -258
89 -319 0 -50 -19 -80 -37 -57 -31 39 -153 375 -155 426 -3 78 52 51 103 -50z"/>
<path d="M7092 5025 c0 -16 2 -22 5 -12 2 9 2 23 0 30 -3 6 -5 -1 -5 -18z"/>
<path d="M7081 4694 c0 -11 3 -14 6 -6 3 7 2 16 -1 19 -3 4 -6 -2 -5 -13z"/>
<path d="M7071 4624 c0 -11 3 -14 6 -6 3 7 2 16 -1 19 -3 4 -6 -2 -5 -13z"/>
<path d="M7061 4564 c0 -11 3 -14 6 -6 3 7 2 16 -1 19 -3 4 -6 -2 -5 -13z"/>
<path d="M7041 4473 c-7 -32 -48 -164 -91 -293 -87 -260 -110 -356 -92 -392
11 -23 11 -23 11 3 1 15 26 107 56 204 73 234 144 519 132 531 -2 2 -9 -22
-16 -53z"/>
<path d="M6098 2622 c-20 -15 -60 -48 -90 -73 -72 -62 -78 -65 -219 -93 -68
-14 -198 -48 -289 -76 -300 -93 -309 -94 -470 -94 -136 -1 -153 2 -280 36
-154 43 -298 68 -385 68 -33 0 -91 7 -129 15 -38 8 -71 13 -73 12 -7 -7 209
-68 327 -93 69 -14 179 -39 245 -56 93 -24 149 -32 250 -35 151 -6 247 8 431
61 137 40 450 153 509 184 32 16 156 113 210 163 18 18 -1 8 -37 -19z"/>
</g>
</svg>
