<?xml version="1.0" standalone="no"?>
<!DOCTYPE svg PUBLIC "-//W3C//DTD SVG 20010904//EN"
 "http://www.w3.org/TR/2001/REC-SVG-20010904/DTD/svg10.dtd">
<svg version="1.0" xmlns="http://www.w3.org/2000/svg"
 width="1000.000000pt" height="1000.000000pt" viewBox="0 0 1000.000000 1000.000000"
 preserveAspectRatio="xMidYMid meet">
<metadata>
  <rdf:RDF
    xmlns:rdf = "http://www.w3.org/1999/02/22-rdf-syntax-ns#"
    xmlns:rdfs = "http://www.w3.org/2000/01/rdf-schema#"
    xmlns:dc = "http://purl.org/dc/elements/1.1/"
    xmlns:cc = "http://creativecommons.org/ns#">
    <cc:license rdf:resource="http://creativecommons.org/publicdomain/zero/1.0/deed.en"/>
    <cc:permits rdf:resource="http://creativecommons.org/ns#Reproduction"/>
    <rdf:Description about="https://nft.mir.one/fingerprints"
      dc:title="TON Fingerprints"
      dc:description="This is a unique digital fingerprint created based on the algorithm for generating basic rings using a noise texture. Like human fingerprints, you can now use it for the Web3 and Metaverse era as digital biometric information."
      dc:publisher="https://nft.mir.one"
      dc:date="2022-02-22"
      dc:format="image/svg+xml"
      dc:language="en" >
      <dc:creator>
      <rdf:Bag>
        <rdf:li>EQBondcvD2_aOFADXSWJHs4ZazQDuEl9_wNvGGPxI8hGuOFU</rdf:li>
        <rdf:li>ipfs://bafkreihj7iub3fhmhq6jn62noukt5wxn3gv6bvcg7wmt6ywvlurefezckq</rdf:li>
      </rdf:Bag>
      </dc:creator>
    </rdf:Description>
  </rdf:RDF>
</metadata>
<rect width="100%" height="100%" fill="#1b1f23"/>
<g transform="translate(0.000000,1000.000000) scale(0.100000,-0.100000)"
fill="#ffffff" stroke="none">
<path d="M5162 7739 c-447 -27 -868 -197 -1194 -483 -97 -85 -182 -176 -204
-218 -14 -27 -14 -32 -1 -45 27 -27 77 2 228 128 372 312 645 440 1180 554 63
13 157 35 209 49 95 25 95 25 5 24 -49 0 -150 -5 -223 -9z"/>
<path d="M5291 7560 c-94 -12 -492 -110 -591 -145 -193 -69 -406 -199 -622
-379 -70 -58 -175 -140 -232 -181 -136 -98 -302 -286 -441 -500 -109 -167
-153 -273 -230 -560 -112 -418 -129 -519 -129 -765 0 -196 7 -268 54 -525 73
-396 119 -481 313 -576 46 -22 129 -75 183 -116 283 -214 568 -364 813 -429
118 -30 225 -31 473 -3 323 36 508 81 698 170 459 217 725 543 820 1009 90
442 -38 945 -310 1220 -76 77 -100 94 -235 165 -392 207 -518 260 -565 235
-56 -30 -8 -75 194 -185 222 -121 224 -123 312 -305 78 -160 97 -224 155 -513
71 -357 -36 -711 -301 -999 -404 -440 -1140 -467 -1605 -58 -132 116 -283 321
-369 500 -73 151 -98 265 -99 445 -1 173 15 274 68 422 89 249 226 399 411
452 194 54 193 54 170 99 -28 54 -152 112 -242 112 -183 0 -402 -244 -517
-577 -69 -196 -82 -282 -81 -518 0 -193 2 -218 26 -306 32 -119 69 -193 151
-300 35 -46 100 -138 145 -205 134 -198 275 -327 470 -428 235 -121 453 -165
719 -145 355 26 653 157 880 386 236 238 355 528 355 863 -1 158 -18 270 -68
428 -46 149 -87 237 -167 356 -37 54 -64 102 -61 107 19 32 100 -21 173 -113
104 -130 196 -350 238 -563 23 -122 23 -367 -1 -490 -48 -249 -154 -463 -312
-634 -161 -173 -385 -315 -614 -390 -250 -80 -585 -112 -801 -75 -265 46 -573
205 -759 393 -74 75 -94 103 -154 219 -76 146 -134 222 -171 222 -46 0 -46
-48 1 -160 46 -110 55 -141 48 -162 -9 -29 -39 -21 -77 22 -73 80 -111 194
-101 300 5 54 0 90 -29 215 -50 211 -60 290 -60 455 0 153 15 260 59 433 83
328 206 579 385 782 146 166 209 248 286 370 129 206 236 316 443 455 194 131
362 203 500 215 41 4 170 31 285 60 197 50 436 95 585 111 36 4 82 13 104 20
21 8 50 14 65 15 14 1 -37 12 -114 24 -160 27 -411 39 -524 25z"/>
<path d="M5700 7339 c-25 -6 -113 -23 -197 -39 -188 -37 -304 -71 -389 -112
-68 -33 -81 -46 -287 -281 -38 -44 -81 -79 -124 -103 -104 -59 -415 -194 -445
-194 -82 0 20 98 244 235 166 101 330 219 381 273 35 37 34 75 -2 80 -43 6
-111 -20 -234 -91 -380 -217 -556 -397 -497 -507 17 -32 95 -71 152 -77 52 -5
83 1 388 66 119 26 153 26 293 1 62 -11 182 -29 267 -40 260 -33 334 -61 576
-215 157 -101 282 -168 399 -216 70 -28 90 -43 166 -119 235 -238 406 -608
455 -984 20 -149 15 -436 -10 -571 -64 -350 -174 -605 -397 -916 -67 -93 -68
-96 -67 -155 2 -84 -33 -146 -141 -254 -115 -115 -261 -210 -507 -330 -111
-55 -232 -117 -269 -140 -166 -102 -357 -134 -528 -91 -117 30 -219 82 -294
150 -82 74 -168 122 -718 403 -242 124 -462 239 -490 256 -27 17 -70 38 -95
48 -25 10 -56 24 -70 33 -14 8 26 -35 88 -97 170 -168 322 -279 547 -397 72
-38 202 -108 289 -157 88 -48 202 -106 255 -129 111 -48 121 -55 121 -80 0
-30 -37 -42 -114 -36 -95 6 -166 35 -294 119 -137 91 -446 256 -542 291 -41
14 -67 21 -57 14 11 -6 69 -49 130 -95 62 -46 159 -113 217 -150 128 -81 174
-115 221 -164 107 -113 414 -178 839 -178 263 0 423 41 705 180 292 143 468
263 621 421 108 112 158 181 252 350 250 447 356 734 419 1125 13 83 18 170
18 364 0 276 -15 401 -71 597 -51 178 -189 423 -360 638 -108 135 -130 169
-209 320 -37 72 -101 181 -142 243 -93 138 -89 168 16 126 30 -12 44 -13 60
-5 28 15 75 14 118 -4 22 -10 89 -70 176 -160 76 -80 173 -173 214 -206 75
-61 75 -61 -2 42 -43 56 -116 144 -162 196 -45 52 -83 98 -83 103 0 24 35 42
72 37 21 -3 38 -4 38 -2 0 2 -24 11 -52 20 -29 10 -93 36 -143 59 -99 45 -90
44 -375 35 -115 -4 -198 17 -274 70 -51 36 -51 36 -178 39 -219 6 -459 -43
-582 -119 -47 -29 -76 -32 -76 -9 0 25 32 71 73 104 99 81 228 128 467 171 80
14 201 41 270 60 146 39 171 43 299 56 53 5 116 12 141 15 44 7 44 7 -55 35
-189 55 -342 71 -455 48z m-165 -539 c39 -6 117 -23 175 -39 58 -16 130 -32
160 -35 30 -4 78 -18 107 -32 103 -50 274 -274 209 -274 -7 0 -51 34 -97 75
-114 102 -166 137 -204 133 -49 -5 -44 -35 17 -95 73 -70 201 -160 251 -175
52 -16 117 -79 117 -113 0 -36 -20 -32 -129 26 -132 70 -245 148 -333 227 -94
86 -123 106 -188 132 -81 32 -178 49 -339 60 -80 6 -165 13 -189 16 -48 7
-105 41 -110 67 -3 15 7 17 75 18 43 1 110 5 148 9 107 11 252 11 330 0z"/>
<path d="M3621 7096 c-28 -46 -92 -142 -142 -212 -92 -129 -218 -316 -233
-344 -5 -8 11 8 35 35 24 28 80 88 124 135 76 79 146 166 189 234 10 16 24 57
31 91 8 35 23 81 34 104 35 68 16 46 -38 -43z"/>
<path d="M5990 7118 c-96 -10 -165 -43 -165 -78 0 -43 41 -49 330 -49 143 -1
270 2 283 5 20 6 16 10 -30 31 -77 36 -246 90 -298 95 -25 3 -79 1 -120 -4z"/>
<path d="M6250 6703 c0 -10 10 -35 23 -55 47 -78 227 -329 343 -478 159 -204
240 -328 349 -537 50 -95 91 -169 93 -164 1 4 -22 84 -53 177 -107 325 -254
583 -485 849 -133 153 -157 177 -212 206 -46 24 -58 24 -58 2z"/>
<path d="M4670 6428 c-111 -15 -170 -18 -333 -14 -187 5 -198 5 -217 -14 -35
-35 -25 -79 23 -109 77 -47 217 -76 427 -91 203 -14 209 -15 225 -55 20 -46
67 -84 176 -140 117 -60 221 -129 287 -192 70 -65 364 -539 393 -633 27 -86
34 -190 20 -276 -24 -137 -145 -336 -249 -408 -34 -23 -57 -30 -125 -36 -45
-5 -120 -16 -167 -26 -125 -27 -283 -25 -380 5 -195 60 -330 176 -417 356 -65
136 -80 316 -39 470 40 149 156 333 247 390 168 107 472 46 655 -130 63 -60
87 -106 66 -127 -8 -8 -27 -1 -69 24 -144 88 -232 118 -348 118 -39 0 -94 -7
-121 -15 -110 -33 -214 -139 -265 -273 -27 -72 -37 -226 -19 -303 63 -266 318
-437 593 -399 153 22 260 75 332 166 22 28 62 64 88 80 71 42 102 111 101 219
-1 53 -9 102 -24 145 -25 73 -150 310 -217 411 -103 157 -267 265 -543 361
-91 31 -102 32 -245 33 -182 0 -208 -7 -257 -74 -34 -45 -41 -49 -98 -60 -80
-14 -140 -49 -216 -127 -191 -197 -270 -569 -188 -888 41 -159 161 -367 294
-509 282 -302 713 -419 1094 -297 180 58 307 158 462 365 187 251 260 525 206
772 -30 133 -54 183 -117 237 -34 29 -88 98 -149 189 -101 151 -120 192 -91
203 26 11 98 -67 190 -207 46 -70 91 -129 100 -133 73 -28 27 140 -80 289 -50
71 -93 103 -190 142 -77 32 -149 78 -271 175 -45 35 -105 75 -134 87 -56 24
-167 50 -215 51 -70 1 -71 46 -2 79 41 20 56 21 293 16 319 -6 334 -10 659
-190 271 -149 361 -218 463 -354 113 -150 203 -357 254 -581 20 -93 23 -131
23 -325 0 -194 -3 -232 -23 -324 -71 -318 -200 -562 -389 -741 -160 -152 -464
-329 -683 -400 -122 -39 -312 -74 -518 -95 -177 -18 -227 -31 -275 -71 -26
-22 -38 -25 -72 -21 -178 25 -583 198 -865 370 -137 83 -501 323 -563 370 -27
20 -55 37 -62 37 -7 0 -28 12 -46 28 -31 25 -29 22 16 -43 104 -149 245 -315
325 -383 89 -76 451 -273 813 -442 130 -62 287 -138 347 -171 196 -105 230
-111 420 -74 95 19 320 25 440 11 67 -7 84 -5 160 19 125 40 299 126 427 210
126 84 266 212 301 273 22 40 22 41 3 51 -45 25 -89 6 -279 -118 -222 -144
-398 -224 -559 -255 -115 -22 -484 -49 -590 -44 -103 6 -172 32 -207 81 -32
44 -15 50 105 38 173 -17 495 13 687 64 184 49 312 111 597 288 202 125 283
196 366 320 419 627 391 1482 -68 2049 -77 95 -162 155 -458 323 -367 210
-422 229 -724 260 -196 19 -341 17 -511 -7z m-414 -684 c10 -41 -2 -90 -51
-197 -72 -159 -94 -221 -111 -320 -32 -181 -3 -366 81 -525 91 -171 204 -281
370 -362 126 -61 227 -84 362 -83 121 1 214 21 334 73 47 20 91 34 97 32 7 -2
12 -17 12 -32 0 -60 -122 -143 -267 -181 -99 -26 -294 -29 -398 -7 -363 80
-651 371 -742 746 -10 43 -16 111 -16 192 0 163 26 272 96 413 68 134 173 277
204 277 16 0 25 -8 29 -26z m895 -417 c131 -41 153 -56 199 -127 47 -73 70
-157 70 -255 0 -96 -5 -115 -31 -115 -24 0 -45 41 -65 126 -32 141 -96 224
-200 264 -75 28 -179 25 -239 -6 -106 -55 -139 -204 -63 -290 39 -44 77 -64
123 -64 50 0 90 23 105 61 12 27 11 36 -1 58 -12 21 -21 25 -47 23 -36 -4 -48
13 -38 52 7 29 56 51 93 41 72 -18 122 -91 123 -178 0 -124 -91 -201 -236
-200 -302 3 -438 398 -202 586 97 77 216 84 409 24z"/>
<path d="M3022 5925 c0 -16 2 -22 5 -12 2 9 2 23 0 30 -3 6 -5 -1 -5 -18z"/>
<path d="M2998 5798 c-10 -45 -16 -84 -14 -86 6 -5 38 146 34 158 -2 6 -11
-26 -20 -72z"/>
<path d="M2971 5684 c0 -11 3 -14 6 -6 3 7 2 16 -1 19 -3 4 -6 -2 -5 -13z"/>
<path d="M5145 2785 c-173 -19 -189 -22 -209 -44 -14 -15 -15 -24 -7 -39 16
-30 74 -45 170 -44 168 2 319 68 270 118 -23 22 -75 24 -224 9z"/>
<path d="M5930 2529 c-414 -210 -618 -282 -920 -324 -76 -10 -85 -13 -45 -14
69 -1 240 24 362 54 136 32 270 83 426 162 117 58 357 199 357 209 0 2 -1 3
-2 3 -2 -1 -82 -42 -178 -90z"/>
<path d="M4833 2183 c9 -2 25 -2 35 0 9 3 1 5 -18 5 -19 0 -27 -2 -17 -5z"/>
</g>
</svg>
