<?xml version="1.0" standalone="no"?>
<!DOCTYPE svg PUBLIC "-//W3C//DTD SVG 20010904//EN"
 "http://www.w3.org/TR/2001/REC-SVG-20010904/DTD/svg10.dtd">
<svg version="1.0" xmlns="http://www.w3.org/2000/svg"
 width="1000.000000pt" height="1000.000000pt" viewBox="0 0 1000.000000 1000.000000"
 preserveAspectRatio="xMidYMid meet">
<metadata>
  <rdf:RDF
    xmlns:rdf = "http://www.w3.org/1999/02/22-rdf-syntax-ns#"
    xmlns:rdfs = "http://www.w3.org/2000/01/rdf-schema#"
    xmlns:dc = "http://purl.org/dc/elements/1.1/"
    xmlns:cc = "http://creativecommons.org/ns#">
    <cc:license rdf:resource="http://creativecommons.org/publicdomain/zero/1.0/deed.en"/>
    <cc:permits rdf:resource="http://creativecommons.org/ns#Reproduction"/>
    <rdf:Description about="https://nft.mir.one/fingerprints"
      dc:title="TON Fingerprints"
      dc:description="This is a unique digital fingerprint created based on the algorithm for generating basic rings using a noise texture. Like human fingerprints, you can now use it for the Web3 and Metaverse era as digital biometric information."
      dc:publisher="https://nft.mir.one"
      dc:date="2022-02-22"
      dc:format="image/svg+xml"
      dc:language="en" >
      <dc:creator>
      <rdf:Bag>
        <rdf:li>EQBondcvD2_aOFADXSWJHs4ZazQDuEl9_wNvGGPxI8hGuOFU</rdf:li>
        <rdf:li>ipfs://bafkreihj7iub3fhmhq6jn62noukt5wxn3gv6bvcg7wmt6ywvlurefezckq</rdf:li>
      </rdf:Bag>
      </dc:creator>
    </rdf:Description>
  </rdf:RDF>
</metadata>
<rect width="100%" height="100%" fill="#1b1f23"/>
<g transform="translate(0.000000,1000.000000) scale(0.100000,-0.100000)"
fill="#ffffff" stroke="none">
<path d="M4710 7756 c-145 -11 -145 -11 -80 -25 85 -19 341 -17 523 4 77 8
160 15 185 15 34 0 43 3 32 10 -20 13 -473 10 -660 -4z"/>
<path d="M5050 7574 c-217 -6 -471 -25 -552 -40 -166 -31 -333 -106 -468 -209
-69 -53 -311 -265 -409 -359 -41 -39 -133 -134 -205 -211 -131 -139 -131 -139
-72 -105 32 18 158 108 280 199 503 378 625 446 886 495 87 17 433 41 456 32
7 -3 78 -6 158 -7 141 -2 146 -2 183 23 73 50 178 60 348 34 298 -47 311 -49
378 -42 68 8 68 8 -45 48 -380 135 -506 154 -938 142z"/>
<path d="M5342 7333 c-55 -11 -30 -69 47 -108 27 -13 107 -47 178 -75 71 -27
156 -66 188 -86 131 -81 143 -86 164 -74 21 11 29 41 33 129 3 54 3 55 -37 78
-122 69 -483 155 -573 136z"/>
<path d="M6030 7212 c-27 -4 -50 -19 -50 -33 0 -14 49 -35 135 -58 65 -18 333
-142 395 -183 36 -24 -73 70 -153 133 -131 102 -248 152 -327 141z"/>
<path d="M4616 7195 c-245 -40 -401 -106 -681 -289 -338 -222 -527 -380 -647
-540 -143 -192 -272 -556 -338 -952 -45 -270 -37 -281 21 -29 72 317 178 584
299 761 174 252 785 676 1150 798 148 50 260 67 425 68 168 0 279 -20 471 -86
349 -120 633 -274 832 -452 62 -55 76 -86 46 -98 -45 -17 -117 12 -279 114
-129 82 -313 176 -445 228 -441 172 -742 185 -1085 47 -302 -122 -740 -409
-910 -597 -153 -168 -274 -394 -331 -615 -23 -88 -25 -110 -20 -219 6 -121 6
-121 -24 -159 -48 -61 -62 -121 -67 -305 -6 -177 22 -510 53 -635 19 -78 110
-265 163 -335 46 -62 264 -268 386 -366 44 -36 124 -93 177 -127 258 -164 253
-161 253 -187 0 -22 -5 -25 -43 -28 -146 -11 -430 168 -734 460 -54 51 -121
113 -149 138 -52 45 -52 45 59 -122 126 -189 225 -311 336 -416 163 -154 305
-212 561 -227 61 -4 182 -15 270 -26 450 -55 899 15 1189 185 99 58 172 135
244 253 34 57 110 167 170 245 59 79 116 162 125 186 21 53 22 101 2 108 -31
12 -79 -22 -228 -163 -182 -174 -219 -201 -295 -215 -65 -12 -185 -48 -350
-107 -170 -60 -292 -65 -292 -12 0 15 17 26 73 47 158 60 477 201 558 247 35
19 118 76 184 126 153 116 216 150 298 159 50 6 73 15 103 39 125 100 351 381
409 507 18 39 56 122 85 184 51 110 52 115 46 178 -19 187 -138 521 -207 578
-36 30 -42 31 -63 10 -22 -22 -20 -75 8 -184 46 -179 59 -267 54 -390 -4 -96
-10 -131 -37 -210 -85 -250 -267 -489 -343 -449 -10 5 -18 15 -18 21 0 6 27
54 61 105 125 194 187 365 196 548 5 93 1 138 -25 295 -17 102 -33 225 -36
274 -5 78 -10 101 -45 173 -67 140 -171 257 -336 379 -281 208 -641 358 -983
409 -225 34 -389 6 -368 -63 8 -23 33 -34 141 -61 44 -11 114 -32 155 -46 41
-14 136 -41 210 -60 359 -91 560 -194 751 -384 137 -137 191 -228 286 -480 30
-79 60 -171 68 -205 49 -216 19 -402 -107 -666 -33 -69 -69 -149 -80 -179 -29
-76 -72 -119 -246 -243 -85 -60 -189 -138 -233 -173 -73 -59 -188 -123 -283
-156 -25 -9 -50 -28 -68 -54 -36 -49 -53 -61 -208 -137 -124 -62 -126 -63
-222 -66 -186 -7 -388 68 -594 221 -102 76 -231 210 -297 308 -95 143 -228
417 -277 569 -24 74 -61 178 -83 230 -46 108 -57 198 -38 292 13 63 205 449
278 560 67 102 155 168 204 153 27 -9 25 -17 -27 -87 -64 -87 -130 -222 -175
-358 -21 -63 -43 -116 -49 -118 -7 -3 -27 -18 -45 -34 -47 -40 -69 -112 -68
-218 0 -92 13 -147 75 -340 48 -150 81 -217 159 -330 33 -47 92 -134 131 -195
120 -185 292 -337 473 -421 187 -86 348 -100 554 -49 108 27 178 59 175 80 -1
6 -13 18 -27 29 -22 16 -53 20 -229 27 -211 8 -276 19 -384 63 -197 81 -367
242 -456 432 -26 55 -32 84 -38 172 -4 59 -22 179 -39 267 -33 173 -56 339
-67 482 -8 110 9 202 67 364 33 90 41 127 41 178 -1 60 1 65 41 108 91 99 234
187 352 218 40 10 106 15 200 15 111 0 145 3 163 16 53 37 12 81 -112 119
-137 42 -191 48 -275 31 -100 -21 -257 -98 -409 -202 -308 -210 -365 -280
-557 -686 -55 -117 -88 -157 -120 -144 -62 23 81 403 231 613 132 184 401 395
674 525 69 33 193 93 275 134 119 60 167 78 235 90 211 39 540 -24 852 -162
116 -52 171 -81 378 -202 316 -185 361 -225 512 -451 50 -75 111 -160 135
-190 70 -86 117 -174 189 -351 75 -187 88 -213 155 -325 63 -106 83 -159 113
-304 18 -86 26 -156 27 -239 2 -102 3 -109 9 -57 12 93 11 382 -1 541 -10 135
-10 146 7 172 56 81 -35 519 -158 761 -49 97 -76 122 -103 95 -25 -26 -15 -57
84 -264 93 -192 168 -395 178 -480 5 -42 2 -55 -18 -85 -13 -19 -27 -35 -31
-35 -19 0 -52 64 -80 154 -39 128 -93 256 -170 410 -34 66 -80 174 -103 238
-51 141 -83 197 -187 320 -120 141 -135 164 -158 235 -12 37 -34 85 -50 107
-53 77 -261 263 -334 300 -121 61 -713 308 -786 328 -100 27 -383 34 -514 13z
m-892 -1934 c8 -14 19 -60 25 -101 6 -41 18 -123 26 -181 9 -59 34 -175 55
-258 46 -175 49 -211 20 -211 -43 0 -107 147 -156 359 -30 124 -45 372 -25
409 14 26 37 19 55 -17z m-505 -137 c30 -38 36 -118 17 -227 -21 -125 -20
-250 3 -389 32 -183 106 -367 180 -447 35 -37 58 -39 73 -7 12 27 5 52 -81
297 -90 254 -118 499 -57 499 18 0 29 -31 70 -196 19 -78 52 -188 74 -245 22
-57 63 -163 91 -236 65 -170 78 -196 150 -285 134 -166 453 -406 641 -481 97
-38 168 -54 351 -76 340 -43 485 -20 756 119 45 23 87 39 93 35 5 -3 10 -20
10 -36 0 -66 -145 -166 -325 -222 -156 -48 -187 -52 -450 -52 -235 1 -257 2
-363 27 -141 34 -200 61 -277 128 -33 29 -129 104 -212 167 -187 140 -316 255
-408 361 -66 78 -91 96 -163 123 -80 29 -182 185 -221 341 -23 90 -51 313 -51
408 0 62 26 350 36 398 6 30 37 28 63 -4z"/>
<path d="M6031 7042 c-7 -13 -7 -31 2 -58 12 -40 54 -86 227 -249 47 -44 130
-134 184 -200 238 -287 382 -435 425 -435 9 0 31 -9 50 -21 33 -20 33 -20 -2
23 -19 24 -67 97 -107 163 -215 357 -406 575 -641 733 -93 62 -123 72 -138 44z"/>
<path d="M4850 6096 c-19 -8 -63 -26 -98 -41 -63 -26 -63 -26 -132 -9 -59 16
-79 17 -135 7 -154 -26 -308 -137 -378 -271 -48 -92 -103 -260 -118 -361 -20
-141 2 -390 62 -701 16 -85 39 -184 50 -220 77 -243 267 -416 516 -470 241
-52 580 -71 663 -37 56 23 90 54 90 83 0 42 -22 48 -219 55 -198 8 -299 26
-391 72 -35 17 -50 33 -69 72 -13 28 -47 79 -76 115 -111 137 -122 165 -166
390 -36 182 -36 298 -1 388 34 87 117 230 204 347 44 61 93 137 108 170 60
134 212 201 394 176 205 -29 385 -153 361 -248 -7 -31 -27 -29 -122 12 -174
75 -307 83 -431 25 -122 -57 -308 -278 -376 -445 -56 -137 -45 -320 23 -398
39 -44 221 -165 296 -196 51 -22 75 -26 165 -26 125 0 171 17 250 91 114 107
159 307 105 466 -38 110 -157 191 -285 191 -89 1 -158 -24 -221 -81 -114 -103
-132 -250 -41 -335 53 -50 130 -55 177 -11 31 29 33 74 4 100 -19 17 -22 18
-50 2 -26 -15 -30 -15 -44 -2 -25 25 -18 63 18 99 85 85 222 35 256 -91 25
-95 -38 -213 -134 -249 -99 -38 -236 -4 -320 79 -63 64 -80 107 -80 207 0 79
3 91 39 163 50 102 137 190 232 237 67 33 72 34 189 34 101 -1 134 -5 210 -28
102 -31 129 -48 167 -103 84 -119 82 -403 -4 -641 -71 -195 -187 -275 -403
-277 -166 -1 -285 49 -436 182 -74 65 -112 79 -124 42 -16 -50 95 -201 211
-288 94 -70 184 -99 356 -112 73 -5 176 -10 228 -10 85 0 102 3 159 31 36 16
94 52 130 78 37 26 90 61 120 77 29 15 70 48 91 72 49 55 112 183 146 297 24
78 27 108 28 230 1 128 -1 144 -23 188 -16 32 -31 49 -48 53 -45 12 -56 -12
-65 -153 -15 -231 -67 -431 -141 -540 -39 -57 -51 -62 -73 -28 -17 26 -16 32
24 193 43 170 55 239 67 372 4 41 18 112 31 158 31 106 30 149 -5 249 -99 285
-307 469 -619 549 -122 31 -290 41 -342 20z m-212 -145 c5 -30 -7 -43 -118
-121 -53 -37 -113 -87 -133 -110 -128 -140 -187 -328 -142 -446 13 -35 18 -82
20 -207 6 -388 115 -655 326 -798 33 -22 59 -44 59 -49 0 -13 -35 -30 -63 -30
-49 0 -144 59 -211 131 -145 157 -215 396 -247 847 -10 137 -10 189 0 254 40
261 197 451 449 543 46 17 56 14 60 -14z m39 -206 c3 -10 -16 -40 -54 -83 -82
-93 -131 -161 -197 -275 -58 -100 -98 -136 -116 -107 -28 45 113 317 211 406
72 66 143 92 156 59z"/>
<path d="M2911 5174 c0 -11 3 -14 6 -6 3 7 2 16 -1 19 -3 4 -6 -2 -5 -13z"/>
<path d="M6746 4762 c-9 -17 -25 -89 -37 -162 -21 -125 -22 -133 -6 -184 24
-73 21 -149 -7 -248 -87 -298 -343 -700 -539 -844 -58 -43 -81 -52 -184 -73
-35 -7 -82 -31 -150 -75 -134 -87 -211 -128 -323 -172 -271 -105 -726 -200
-905 -188 -249 15 -623 58 -714 80 -36 9 -97 30 -136 47 -38 16 -98 40 -133
53 -35 13 -78 31 -95 40 -41 21 -28 8 78 -77 196 -157 313 -222 477 -264 189
-47 586 -92 717 -79 60 5 90 15 157 51 69 36 123 53 306 98 325 79 511 146
748 268 136 71 219 128 316 219 243 231 431 554 515 884 75 297 52 641 -43
652 -21 3 -30 -3 -42 -26z"/>
<path d="M6553 4381 c-43 -43 -241 -357 -303 -481 -64 -127 -99 -183 -200
-320 -91 -123 -110 -158 -110 -200 0 -34 17 -45 55 -36 38 10 167 138 249 246
128 170 312 508 365 672 41 125 11 187 -56 119z"/>
<path d="M7021 4274 c0 -11 3 -14 6 -6 3 7 2 16 -1 19 -3 4 -6 -2 -5 -13z"/>
<path d="M6869 3778 c-84 -176 -291 -451 -488 -649 -209 -209 -278 -251 -573
-348 -192 -63 -389 -111 -616 -151 -95 -17 -181 -36 -192 -42 -73 -46 10 -98
154 -98 140 0 406 47 576 101 123 40 317 119 373 153 31 19 81 56 112 82 127
110 368 412 491 615 67 111 209 397 202 404 -2 3 -20 -28 -39 -67z"/>
<path d="M4015 2533 c11 -3 90 -32 176 -64 185 -69 296 -102 433 -129 355 -69
616 -68 891 1 101 26 388 119 383 125 -6 6 -189 -22 -335 -51 -270 -53 -442
-56 -639 -11 -60 14 -179 34 -264 46 -172 23 -288 42 -429 71 -78 16 -277 27
-216 12z"/>
</g>
</svg>
