<?xml version="1.0" standalone="no"?>
<!DOCTYPE svg PUBLIC "-//W3C//DTD SVG 20010904//EN"
 "http://www.w3.org/TR/2001/REC-SVG-20010904/DTD/svg10.dtd">
<svg version="1.0" xmlns="http://www.w3.org/2000/svg"
 width="1000.000000pt" height="1000.000000pt" viewBox="0 0 1000.000000 1000.000000"
 preserveAspectRatio="xMidYMid meet">
<metadata>
  <rdf:RDF
    xmlns:rdf = "http://www.w3.org/1999/02/22-rdf-syntax-ns#"
    xmlns:rdfs = "http://www.w3.org/2000/01/rdf-schema#"
    xmlns:dc = "http://purl.org/dc/elements/1.1/"
    xmlns:cc = "http://creativecommons.org/ns#">
    <cc:license rdf:resource="http://creativecommons.org/publicdomain/zero/1.0/deed.en"/>
    <cc:permits rdf:resource="http://creativecommons.org/ns#Reproduction"/>
    <rdf:Description about="https://nft.mir.one/fingerprints"
      dc:title="TON Fingerprints"
      dc:description="This is a unique digital fingerprint created based on the algorithm for generating basic rings using a noise texture. Like human fingerprints, you can now use it for the Web3 and Metaverse era as digital biometric information."
      dc:publisher="https://nft.mir.one"
      dc:date="2022-02-22"
      dc:format="image/svg+xml"
      dc:language="en" >
      <dc:creator>
      <rdf:Bag>
        <rdf:li>EQBondcvD2_aOFADXSWJHs4ZazQDuEl9_wNvGGPxI8hGuOFU</rdf:li>
        <rdf:li>ipfs://bafkreihj7iub3fhmhq6jn62noukt5wxn3gv6bvcg7wmt6ywvlurefezckq</rdf:li>
      </rdf:Bag>
      </dc:creator>
    </rdf:Description>
  </rdf:RDF>
</metadata>
<rect width="100%" height="100%" fill="#1b1f23"/>
<g transform="translate(0.000000,1000.000000) scale(0.100000,-0.100000)"
fill="#ffffff" stroke="none">
<path d="M4990 7704 c-215 -25 -287 -45 -554 -150 -218 -86 -270 -112 -416
-214 -252 -177 -304 -215 -421 -311 -109 -89 -174 -146 -128 -111 8 6 44 23
80 36 35 13 110 47 167 75 217 109 273 124 436 122 77 -1 144 3 165 10 53 18
106 56 120 87 11 23 10 29 -9 44 -27 22 -27 22 -128 -2 -108 -26 -152 -26
-152 -2 0 10 10 28 23 39 50 46 126 71 257 83 62 6 117 20 206 54 176 66 281
94 418 112 120 16 198 16 666 -1 125 -4 125 -4 65 16 -100 33 -244 69 -365 90
-109 19 -354 32 -430 23z"/>
<path d="M5194 7419 c-207 -15 -431 -75 -532 -143 -61 -41 -101 -100 -110
-162 -7 -49 -7 -49 -95 -82 -97 -36 -213 -55 -281 -46 -143 20 -406 -67 -571
-188 -73 -54 -207 -186 -279 -276 -75 -94 -210 -286 -194 -276 32 19 118 86
173 135 298 263 789 513 854 435 29 -35 -14 -70 -219 -183 -259 -143 -383
-225 -550 -368 -105 -89 -175 -186 -259 -356 -202 -406 -238 -804 -135 -1492
39 -263 99 -467 137 -467 12 0 8 22 -19 104 -25 77 -37 141 -49 252 -18 183
-18 182 -52 384 -47 284 -35 589 32 793 57 176 177 367 329 525 151 157 305
270 616 452 69 40 179 109 244 153 66 44 143 90 171 104 85 38 215 61 471 82
131 11 327 28 434 37 312 26 461 29 563 10 209 -40 435 -148 667 -319 86 -64
132 -101 299 -245 55 -47 55 -47 -19 53 -133 178 -182 237 -282 337 -115 115
-195 176 -298 228 -313 157 -697 194 -1268 119 -201 -26 -307 -27 -354 -5 -36
17 -53 40 -43 57 13 21 301 98 470 126 170 28 596 26 760 -4 268 -49 443 -118
698 -276 58 -36 60 -37 32 -9 -176 173 -312 278 -454 351 -210 108 -339 145
-556 161 -154 11 -170 11 -331 -1z"/>
<path d="M5674 6720 c-23 -5 -65 -20 -93 -34 -87 -45 -182 -58 -481 -66 -312
-9 -402 -21 -584 -81 -136 -45 -299 -127 -572 -290 -265 -157 -356 -221 -454
-320 -187 -188 -311 -414 -366 -669 -13 -61 -18 -128 -19 -240 0 -151 1 -157
33 -245 21 -58 42 -146 58 -248 25 -158 25 -158 4 -204 -22 -50 -25 -119 -9
-193 5 -25 13 -95 17 -155 7 -104 11 -117 54 -205 135 -276 371 -527 600 -639
168 -82 395 -124 481 -88 90 38 53 78 -118 123 -218 58 -344 119 -487 233
-150 119 -305 319 -362 466 -15 37 -116 426 -116 445 0 18 30 18 55 -2 32 -25
66 -92 117 -228 93 -250 205 -433 331 -543 134 -116 241 -174 462 -250 72 -24
162 -59 200 -77 55 -26 87 -34 150 -37 394 -23 1044 379 1258 777 64 119 82
190 82 323 0 112 -1 120 -23 137 -44 36 -67 5 -121 -164 -76 -238 -184 -385
-406 -550 -209 -156 -423 -263 -606 -301 -195 -41 -466 4 -694 114 -166 81
-276 176 -329 284 -163 334 -298 625 -316 681 -37 114 -33 201 19 381 59 204
95 303 148 410 53 104 71 133 205 312 108 145 137 199 138 256 0 75 -56 62
-158 -36 -146 -141 -276 -332 -347 -510 -20 -51 -57 -170 -81 -266 -24 -95
-49 -180 -55 -187 -18 -21 -46 -17 -53 9 -11 41 -6 171 10 262 43 252 171 507
344 689 113 119 170 152 316 181 11 3 72 39 134 81 203 135 373 208 665 284
91 24 150 33 246 37 197 9 259 -16 463 -180 238 -192 342 -326 441 -571 152
-374 211 -508 332 -752 198 -399 240 -551 229 -824 -26 -649 -29 -676 -92
-908 -60 -221 -174 -426 -319 -581 -66 -70 -78 -86 -45 -61 126 97 289 286
381 440 74 126 183 393 225 553 46 179 79 654 55 806 -25 160 -114 362 -280
636 -118 193 -283 500 -336 623 -39 89 -46 167 -15 167 9 0 60 -78 125 -190
170 -295 254 -428 371 -585 74 -101 124 -180 162 -260 30 -63 63 -128 74 -143
22 -31 66 -53 79 -40 19 19 28 151 18 273 -10 125 -10 125 27 235 33 97 38
121 37 205 0 77 -5 111 -28 178 -37 111 -72 162 -140 207 -31 21 -84 69 -118
107 -98 110 -192 184 -317 249 -63 32 -148 77 -188 99 -77 42 -128 51 -138 25
-14 -34 11 -73 100 -160 54 -52 105 -112 121 -141 15 -28 69 -108 121 -178 51
-69 141 -194 200 -278 59 -84 133 -180 165 -214 76 -80 90 -134 35 -134 -66 0
-152 101 -387 452 -174 260 -221 319 -272 339 -17 7 -40 19 -51 28 -23 20
-101 135 -148 221 -43 77 -94 127 -244 243 -125 97 -164 137 -164 173 0 58 51
43 239 -71 181 -109 205 -121 313 -151 111 -31 258 -101 388 -185 91 -59 227
-185 341 -316 56 -65 89 -72 89 -18 0 112 -188 330 -414 480 -125 83 -258 149
-522 260 -191 80 -261 125 -249 158 10 23 43 22 156 -7 372 -94 777 -339 975
-589 111 -141 123 -170 229 -568 47 -174 51 -339 14 -624 -20 -160 -65 -266
-129 -309 -37 -24 -38 -26 -44 -103 -3 -43 -8 -132 -11 -198 -8 -164 -23 -331
-40 -450 -16 -109 -36 -308 -31 -312 5 -6 94 303 126 437 16 69 43 202 60 295
16 94 48 235 70 315 53 191 70 327 70 562 0 258 -41 515 -121 759 -59 183
-182 383 -306 499 -203 189 -554 374 -791 415 -93 16 -107 17 -168 5z m639
-891 c71 -37 284 -263 368 -389 72 -108 106 -233 76 -274 -12 -16 -13 -16 -28
1 -9 10 -40 61 -69 113 -77 139 -160 250 -332 442 -43 48 -78 95 -78 103 0 18
32 20 63 4z"/>
<path d="M4913 6209 c-18 -5 -40 -21 -49 -35 -16 -23 -16 -26 5 -48 12 -13 54
-36 94 -51 188 -73 325 -162 467 -305 194 -193 422 -580 343 -580 -30 0 -67
40 -186 201 -188 253 -326 378 -576 517 -111 62 -161 95 -234 154 -26 21 -38
23 -140 22 -134 0 -205 -17 -332 -79 -109 -52 -175 -108 -209 -177 -29 -58
-33 -95 -13 -122 12 -17 20 -15 123 37 166 83 235 102 374 102 104 -1 124 -4
210 -33 172 -60 355 -170 501 -301 37 -33 113 -115 170 -183 57 -67 145 -166
195 -220 111 -117 170 -224 238 -432 30 -91 60 -161 87 -202 68 -105 90 -218
69 -359 -25 -169 -104 -306 -277 -486 -236 -244 -505 -431 -776 -538 -88 -35
-226 -73 -362 -101 -55 -11 -138 -31 -185 -45 -160 -48 -347 -44 -525 12 -176
56 -253 111 -514 367 -187 184 -192 188 -136 111 180 -248 349 -444 443 -516
89 -67 231 -136 323 -155 102 -22 369 -14 534 16 499 88 768 228 1217 633 170
153 372 357 393 396 54 105 78 342 52 496 -26 149 -74 276 -241 637 -58 126
-82 191 -96 261 -24 121 -54 197 -140 365 -83 163 -170 281 -282 387 -214 201
-423 295 -565 254z"/>
<path d="M4445 5674 c-139 -32 -236 -46 -296 -41 -66 6 -69 5 -113 -29 -53
-41 -210 -213 -271 -298 -93 -132 -165 -297 -199 -462 -44 -216 -25 -347 84
-569 57 -115 123 -204 178 -238 100 -64 334 -189 386 -207 93 -32 146 -24 146
21 0 21 -40 52 -135 104 -265 145 -408 299 -482 520 -24 71 -27 96 -27 220 -1
118 3 153 22 220 50 173 147 301 313 415 103 70 175 103 292 130 182 41 328
34 494 -25 139 -50 248 -121 373 -245 303 -300 386 -585 267 -912 -48 -132
-133 -243 -180 -236 -33 5 -31 27 7 126 61 156 79 236 80 352 1 158 -34 272
-129 415 -63 96 -195 225 -282 278 -215 131 -459 152 -661 57 -121 -56 -172
-112 -172 -188 0 -21 -14 -83 -30 -138 -42 -136 -49 -211 -23 -243 28 -34 49
-22 79 46 105 239 166 319 279 362 75 28 185 37 267 22 175 -34 354 -173 437
-341 84 -171 91 -318 26 -564 -20 -77 -45 -161 -57 -188 -27 -64 -110 -139
-201 -182 -85 -40 -104 -59 -109 -106 -3 -35 -3 -35 -268 -37 -154 -1 -286 3
-315 9 -70 15 -161 57 -261 123 -100 65 -137 77 -153 48 -28 -53 99 -178 264
-260 131 -65 301 -103 464 -103 119 0 199 19 298 69 43 21 110 51 148 66 95
37 158 73 305 174 153 105 198 145 254 230 53 80 83 146 133 294 35 103 38
121 38 227 0 100 -4 125 -27 188 -58 160 -197 354 -392 547 -165 164 -317 260
-506 320 -68 22 -108 28 -205 31 -66 1 -129 1 -140 -2z"/>
<path d="M4005 5126 c-37 -16 -78 -63 -109 -125 -74 -146 -79 -317 -17 -497
36 -105 79 -178 155 -260 75 -82 138 -131 306 -234 153 -94 195 -110 292 -110
81 0 132 22 227 98 106 86 166 180 202 320 68 267 -34 518 -255 628 -130 64
-266 58 -379 -17 -102 -67 -215 -281 -204 -385 18 -172 218 -310 385 -264 57
15 126 79 148 135 24 65 16 152 -20 199 -53 70 -139 88 -195 40 -50 -42 -37
-112 17 -97 50 13 68 -42 27 -82 -48 -49 -144 -25 -180 45 -19 37 -19 110 -1
154 37 89 156 157 249 142 181 -29 293 -210 252 -407 -41 -198 -203 -319 -389
-289 -94 15 -215 80 -301 161 -78 74 -104 117 -181 294 -42 97 -48 120 -52
195 -4 90 -3 94 69 288 21 55 22 64 9 72 -19 12 -19 12 -55 -4z"/>
<path d="M6158 3588 c-21 -24 -58 -68 -81 -98 -23 -30 -75 -77 -115 -106 -40
-28 -130 -104 -200 -169 -149 -138 -270 -234 -392 -309 -349 -216 -631 -288
-1140 -291 -372 -2 -359 1 -195 -50 283 -90 536 -121 735 -91 145 22 258 52
358 94 93 39 301 161 426 250 105 75 259 223 361 347 46 55 92 108 103 119 31
27 52 14 52 -33 0 -133 -261 -438 -514 -601 -64 -41 -163 -107 -219 -146 -56
-39 -121 -81 -143 -92 -64 -33 -189 -60 -345 -77 -79 -8 -196 -22 -259 -30
-63 -8 -128 -16 -145 -18 -16 -1 56 -9 160 -16 243 -18 481 -11 628 19 103 20
111 20 152 4 38 -14 54 -15 129 -4 97 14 118 26 26 15 -72 -8 -127 0 -159 24
-24 18 -24 20 -8 44 11 17 65 49 154 92 177 86 282 156 399 267 188 181 252
315 313 659 25 140 26 187 5 217 -22 32 -43 27 -86 -20z"/>
<path d="M5889 2453 c-13 -16 -12 -17 4 -4 16 13 21 21 13 21 -2 0 -10 -8 -17
-17z"/>
</g>
</svg>
