<?xml version="1.0" standalone="no"?>
<!DOCTYPE svg PUBLIC "-//W3C//DTD SVG 20010904//EN"
 "http://www.w3.org/TR/2001/REC-SVG-20010904/DTD/svg10.dtd">
<svg version="1.0" xmlns="http://www.w3.org/2000/svg"
 width="1000.000000pt" height="1000.000000pt" viewBox="0 0 1000.000000 1000.000000"
 preserveAspectRatio="xMidYMid meet">
<metadata>
  <rdf:RDF
    xmlns:rdf = "http://www.w3.org/1999/02/22-rdf-syntax-ns#"
    xmlns:rdfs = "http://www.w3.org/2000/01/rdf-schema#"
    xmlns:dc = "http://purl.org/dc/elements/1.1/"
    xmlns:cc = "http://creativecommons.org/ns#">
    <cc:license rdf:resource="http://creativecommons.org/publicdomain/zero/1.0/deed.en"/>
    <cc:permits rdf:resource="http://creativecommons.org/ns#Reproduction"/>
    <rdf:Description about="https://nft.mir.one/fingerprints"
      dc:title="TON Fingerprints"
      dc:description="This is a unique digital fingerprint created based on the algorithm for generating basic rings using a noise texture. Like human fingerprints, you can now use it for the Web3 and Metaverse era as digital biometric information."
      dc:publisher="https://nft.mir.one"
      dc:date="2022-02-22"
      dc:format="image/svg+xml"
      dc:language="en" >
      <dc:creator>
      <rdf:Bag>
        <rdf:li>EQBondcvD2_aOFADXSWJHs4ZazQDuEl9_wNvGGPxI8hGuOFU</rdf:li>
        <rdf:li>ipfs://bafkreihj7iub3fhmhq6jn62noukt5wxn3gv6bvcg7wmt6ywvlurefezckq</rdf:li>
      </rdf:Bag>
      </dc:creator>
    </rdf:Description>
  </rdf:RDF>
</metadata>
<rect width="100%" height="100%" fill="#1b1f23"/>
<g transform="translate(0.000000,1000.000000) scale(0.100000,-0.100000)"
fill="#ffffff" stroke="none">
<path d="M4890 7680 c-155 -6 -183 -10 -250 -34 -41 -15 -150 -49 -241 -76
-133 -40 -329 -114 -504 -191 -36 -16 95 2 230 32 190 41 264 51 362 46 89 -4
291 -45 351 -72 35 -16 42 -40 14 -49 -9 -3 -123 -5 -252 -4 -202 1 -252 -2
-354 -20 -221 -41 -426 -126 -618 -258 -62 -42 -117 -81 -122 -85 -11 -10 137
33 199 58 188 76 498 134 978 183 62 6 149 24 205 41 102 31 156 32 215 2 31
-16 33 -25 11 -47 -38 -38 -395 -109 -939 -186 -166 -23 -218 -35 -349 -80
-160 -54 -280 -138 -490 -341 -121 -118 -121 -118 -56 -95 36 13 154 73 263
134 275 153 468 232 571 232 20 0 56 -5 81 -12 50 -13 54 -13 280 46 77 20
212 50 300 67 88 16 230 46 315 66 139 32 165 35 250 30 290 -18 709 -244
1011 -546 183 -183 248 -286 318 -506 23 -71 78 -204 121 -295 44 -91 88 -199
99 -240 47 -173 76 -575 52 -716 -14 -80 -42 -137 -65 -128 -23 9 -35 57 -46
184 -5 63 -17 153 -25 200 -9 47 -20 159 -25 250 -9 179 -25 251 -66 300 -52
61 -91 22 -80 -80 8 -71 -6 -147 -33 -173 -34 -35 -49 -8 -57 103 -5 83 -3
104 16 160 24 71 23 96 -9 180 -25 68 -70 123 -128 159 -24 15 -112 95 -197
177 -168 165 -256 230 -431 317 -221 110 -390 160 -592 177 -289 23 -591 -44
-806 -179 -62 -39 -187 -160 -187 -181 0 -5 -28 -45 -63 -87 -98 -121 -124
-164 -176 -285 -27 -62 -72 -163 -100 -225 -157 -344 -203 -697 -140 -1071 31
-186 81 -289 225 -462 128 -156 224 -228 440 -332 136 -66 154 -87 89 -108
-43 -14 -61 -10 -241 46 -182 57 -225 87 -379 271 -63 76 -135 154 -160 173
-89 68 -107 125 -130 410 -33 420 -11 661 91 1000 101 332 236 554 481 791
212 205 400 299 703 354 143 26 402 31 520 11 196 -34 418 -127 616 -258 108
-71 266 -218 420 -391 48 -55 66 -68 85 -65 20 2 25 9 27 42 2 21 -2 53 -9 70
-39 100 -203 293 -354 416 -233 191 -548 340 -780 371 -160 21 -444 -13 -735
-87 -205 -52 -277 -92 -520 -287 -215 -172 -347 -300 -418 -404 -61 -89 -136
-240 -166 -331 -24 -75 -78 -312 -118 -517 -29 -151 -35 -448 -14 -647 15
-132 15 -162 4 -184 -7 -15 -18 -29 -24 -31 -22 -7 -64 51 -84 115 -41 133
-52 242 -47 457 6 208 9 228 82 545 27 113 27 130 9 242 -5 33 1 50 56 144 34
58 82 149 106 201 36 77 59 111 117 170 76 78 207 183 342 273 198 132 265
194 236 223 -42 42 -242 -46 -581 -258 -63 -39 -146 -89 -185 -110 -99 -54
-221 -151 -294 -234 -35 -39 -61 -71 -59 -71 16 0 85 29 162 66 95 47 117 52
135 30 18 -22 1 -47 -108 -161 -125 -131 -206 -266 -260 -431 -71 -218 -102
-428 -99 -674 1 -155 1 -155 8 30 7 201 18 259 76 430 72 209 143 328 217 363
37 18 67 14 67 -9 0 -8 -20 -54 -44 -102 -53 -105 -110 -279 -131 -399 -23
-124 -30 -356 -16 -486 24 -216 91 -407 175 -497 54 -57 73 -93 127 -241 45
-124 73 -183 126 -272 32 -53 34 -60 20 -74 -35 -35 -128 30 -207 147 -66 98
-248 442 -299 566 -56 137 -78 207 -96 308 -8 41 -14 58 -14 40 -3 -92 69
-398 141 -599 100 -279 218 -489 355 -631 122 -126 374 -326 541 -429 74 -46
101 -69 131 -114 21 -31 53 -66 70 -79 54 -39 182 -98 296 -135 448 -148 779
-154 1350 -27 222 49 381 115 507 208 60 45 234 217 311 307 28 33 40 50 27
39 -27 -23 -188 -132 -297 -201 -130 -83 -360 -161 -639 -217 -353 -71 -624
-74 -949 -10 -227 44 -575 142 -604 169 -40 38 42 70 153 60 101 -9 239 -31
406 -65 80 -16 201 -39 270 -51 487 -85 1119 70 1468 360 146 121 341 420 472
721 18 41 46 102 63 135 29 60 29 60 -14 11 -59 -67 -68 -79 -125 -171 -164
-266 -383 -497 -617 -649 -235 -154 -565 -259 -858 -273 -145 -7 -226 5 -338
49 -40 16 -143 42 -230 58 -365 68 -392 76 -423 133 -17 32 -49 59 -127 112
-111 74 -128 92 -117 120 9 24 52 16 163 -30 337 -141 570 -177 764 -120 46
14 172 43 279 64 297 60 446 112 623 220 283 172 530 471 593 721 13 52 15 84
8 160 -12 143 -9 310 5 353 16 47 46 48 73 1 27 -47 72 -350 65 -444 -14 -189
-157 -440 -377 -661 -270 -270 -535 -398 -990 -474 -185 -31 -240 -52 -240
-90 0 -40 48 -55 172 -55 115 0 244 18 393 56 418 106 766 361 1025 752 92
138 150 254 198 393 22 64 52 139 65 166 55 107 62 157 61 428 -1 348 -28 511
-143 845 -139 407 -241 591 -441 790 -298 299 -668 525 -1070 655 -30 10 -102
39 -160 65 -131 60 -335 124 -460 145 -109 19 -131 32 -100 60 29 27 146 31
315 11 261 -31 438 -87 720 -228 310 -155 565 -344 916 -678 163 -155 163
-155 105 -75 -228 312 -496 577 -777 764 -286 192 -558 302 -774 314 -49 3
-169 1 -265 -3z m452 -1283 c53 -14 152 -49 220 -78 68 -28 164 -65 213 -81
142 -46 246 -123 389 -287 152 -175 191 -251 232 -457 26 -132 41 -175 82
-237 41 -62 37 -130 -16 -238 -22 -46 -56 -118 -75 -159 -54 -119 -305 -486
-403 -589 -144 -152 -292 -251 -456 -305 -91 -31 -200 -35 -236 -10 -41 28
-23 45 73 71 189 50 385 170 530 326 150 160 327 463 380 651 41 144 28 330
-37 551 -52 176 -200 392 -351 510 -75 59 -121 76 -144 52 -23 -22 -10 -48 82
-162 216 -266 278 -420 278 -690 -1 -155 -15 -242 -64 -383 -61 -174 -162
-335 -294 -468 -97 -99 -199 -170 -360 -252 -64 -33 -116 -68 -142 -95 -45
-47 -73 -57 -165 -57 -275 -1 -615 218 -737 473 -66 138 -97 359 -72 516 48
304 261 556 532 626 81 22 242 22 329 1 104 -25 252 -75 295 -101 81 -47 207
-202 263 -323 68 -149 26 -377 -103 -557 -100 -140 -291 -275 -389 -275 -97 1
-87 37 29 106 114 68 226 181 277 279 56 107 71 172 66 281 -4 85 -7 99 -47
179 -77 155 -202 254 -379 300 -238 61 -458 -6 -507 -156 -9 -25 -35 -71 -58
-101 -50 -65 -93 -156 -106 -224 -5 -27 -8 -141 -7 -254 2 -206 2 -206 36
-269 98 -184 367 -322 599 -308 289 17 613 267 748 579 48 111 72 212 83 362
6 72 15 149 20 171 36 150 -17 298 -198 559 -54 77 -108 157 -120 177 -101
169 -429 280 -736 249 -133 -13 -232 -37 -386 -94 -149 -55 -163 -58 -185 -43
-16 13 -15 16 14 49 38 44 176 117 298 158 150 50 227 60 428 56 154 -3 194
-7 277 -29z m-188 -263 c202 -39 323 -122 465 -323 136 -190 221 -361 221
-441 0 -49 -23 -54 -62 -12 -24 25 -202 289 -291 432 -97 154 -295 241 -547
242 -196 0 -401 -51 -633 -159 -65 -30 -128 -53 -140 -51 -33 5 -33 43 -2 84
49 64 118 99 300 153 346 102 472 116 689 75z m-28 -264 c143 -37 284 -122
284 -171 0 -29 -45 -24 -147 15 -244 95 -469 86 -709 -28 -296 -140 -435 -321
-490 -636 -32 -184 -2 -425 74 -592 60 -133 167 -267 300 -377 268 -221 362
-267 583 -291 443 -46 750 57 1039 349 116 117 186 211 270 366 24 44 57 93
73 109 26 27 30 28 45 13 26 -27 2 -123 -62 -252 -125 -251 -340 -465 -594
-590 -159 -78 -322 -122 -562 -149 -231 -27 -381 -19 -524 27 -76 24 -109 51
-160 132 -21 34 -66 77 -146 138 -311 238 -449 448 -495 754 -50 331 42 726
209 897 91 94 433 251 632 290 109 22 286 20 380 -4z m-41 -474 c291 -77 404
-386 237 -641 -22 -33 -59 -78 -83 -101 -61 -57 -200 -169 -224 -181 -113 -57
-322 27 -427 171 -67 92 -18 108 125 41 128 -60 208 -70 299 -35 63 23 155
100 194 161 86 136 62 360 -47 438 -80 59 -176 73 -330 50 -89 -14 -129 -7
-129 21 0 23 54 53 133 75 67 18 188 19 252 1z m-8 -225 c50 -23 84 -68 62
-82 -8 -5 -23 -7 -34 -4 -92 24 -156 9 -175 -41 -20 -52 30 -85 71 -48 17 15
20 15 44 0 19 -13 25 -25 25 -54 0 -48 -22 -79 -74 -103 -75 -34 -149 -18
-213 45 -47 48 -60 92 -44 152 31 115 217 189 338 135z m-1717 -822 c0 -20
-24 -26 -35 -9 -4 6 -4 17 -1 25 7 20 36 7 36 -16z m272 -286 c8 -10 48 -83
89 -163 79 -156 115 -208 254 -369 106 -123 174 -171 295 -208 96 -29 103 -33
95 -55 -10 -25 -51 -38 -118 -38 -156 1 -286 70 -467 250 -117 116 -142 157
-151 254 -4 45 -19 119 -33 165 -30 98 -32 128 -10 159 18 27 26 27 46 5z"/>
<path d="M3334 3315 c333 -400 620 -636 957 -787 310 -138 634 -206 857 -180
201 23 578 132 817 235 77 33 151 63 165 68 18 5 9 8 -35 8 -40 1 -128 -15
-250 -43 -490 -115 -734 -143 -955 -112 -215 30 -477 110 -674 205 -108 52
-417 268 -629 440 -65 53 -150 117 -188 142 -38 25 -82 57 -96 70 -15 13 -1
-7 31 -46z"/>
</g>
</svg>
