<?xml version="1.0" standalone="no"?>
<!DOCTYPE svg PUBLIC "-//W3C//DTD SVG 20010904//EN"
 "http://www.w3.org/TR/2001/REC-SVG-20010904/DTD/svg10.dtd">
<svg version="1.0" xmlns="http://www.w3.org/2000/svg"
 width="1000.000000pt" height="1000.000000pt" viewBox="0 0 1000.000000 1000.000000"
 preserveAspectRatio="xMidYMid meet">
<metadata>
  <rdf:RDF
    xmlns:rdf = "http://www.w3.org/1999/02/22-rdf-syntax-ns#"
    xmlns:rdfs = "http://www.w3.org/2000/01/rdf-schema#"
    xmlns:dc = "http://purl.org/dc/elements/1.1/"
    xmlns:cc = "http://creativecommons.org/ns#">
    <cc:license rdf:resource="http://creativecommons.org/publicdomain/zero/1.0/deed.en"/>
    <cc:permits rdf:resource="http://creativecommons.org/ns#Reproduction"/>
    <rdf:Description about="https://nft.mir.one/fingerprints"
      dc:title="TON Fingerprints"
      dc:description="This is a unique digital fingerprint created based on the algorithm for generating basic rings using a noise texture. Like human fingerprints, you can now use it for the Web3 and Metaverse era as digital biometric information."
      dc:publisher="https://nft.mir.one"
      dc:date="2022-02-22"
      dc:format="image/svg+xml"
      dc:language="en" >
      <dc:creator>
      <rdf:Bag>
        <rdf:li>EQBondcvD2_aOFADXSWJHs4ZazQDuEl9_wNvGGPxI8hGuOFU</rdf:li>
        <rdf:li>ipfs://bafkreihj7iub3fhmhq6jn62noukt5wxn3gv6bvcg7wmt6ywvlurefezckq</rdf:li>
      </rdf:Bag>
      </dc:creator>
    </rdf:Description>
  </rdf:RDF>
</metadata>
<rect width="100%" height="100%" fill="#1b1f23"/>
<g transform="translate(0.000000,1000.000000) scale(0.100000,-0.100000)"
fill="#ffffff" stroke="none">
<path d="M4855 7733 c-16 -2 -77 -10 -135 -17 -58 -8 -143 -17 -190 -21 -47
-3 -110 -12 -140 -19 -55 -14 -55 -14 25 -15 81 -1 144 -21 153 -48 8 -27 -54
-70 -158 -107 -228 -83 -324 -124 -533 -229 -120 -60 -217 -110 -215 -112 2
-2 26 3 54 10 46 12 70 12 132 -1 38 -8 26 -39 -35 -85 -86 -64 -246 -223
-323 -319 -258 -324 -462 -794 -541 -1247 -53 -303 -28 -778 55 -1065 39 -133
261 -540 362 -662 126 -153 390 -318 594 -372 130 -35 290 -16 290 34 0 25
-24 37 -174 86 -202 67 -358 154 -518 289 -70 59 -189 203 -309 374 -113 162
-176 275 -208 373 -32 100 -90 402 -102 530 -15 173 5 379 55 550 32 110 175
426 261 577 165 288 271 430 485 643 102 101 161 167 169 190 27 75 36 85 119
127 46 23 175 71 286 108 111 36 224 79 251 94 45 26 53 36 80 102 34 83 63
108 154 137 91 28 347 22 526 -12 346 -66 521 -134 498 -192 -8 -22 -60 -17
-210 20 -336 82 -592 104 -748 62 -63 -16 -92 -31 -127 -64 -34 -31 -35 -46
-6 -66 28 -20 70 -20 173 -1 139 25 318 14 595 -35 63 -12 189 -25 280 -30
148 -7 174 -11 255 -40 115 -41 279 -90 268 -80 -13 12 -211 133 -303 186 -47
27 -109 71 -139 98 -68 61 -182 115 -340 161 -258 74 -508 107 -666 88z"/>
<path d="M4298 7653 c7 -3 16 -2 19 1 4 3 -2 6 -13 5 -11 0 -14 -3 -6 -6z"/>
<path d="M4900 7277 c-49 -25 -31 -67 38 -87 20 -5 145 -26 277 -46 403 -59
567 -96 720 -159 166 -69 252 -135 330 -255 52 -81 68 -125 54 -151 -5 -10
-12 -19 -14 -19 -3 0 -47 39 -97 86 -236 221 -435 298 -976 379 -210 32 -320
62 -420 118 -77 42 -77 42 -202 42 -139 0 -227 -18 -376 -79 -110 -45 -171
-87 -310 -216 -209 -194 -266 -270 -445 -586 -143 -254 -230 -425 -274 -539
-78 -202 -112 -418 -101 -635 7 -129 63 -483 92 -580 62 -210 315 -530 555
-703 55 -39 170 -105 279 -158 150 -74 195 -101 240 -145 55 -53 55 -53 190
-75 74 -11 166 -29 205 -40 115 -31 237 -24 382 22 95 31 133 99 82 145 -19
17 -40 19 -224 21 -330 3 -446 30 -736 171 -393 192 -674 439 -811 713 -31 61
-40 131 -21 150 18 18 34 0 125 -133 44 -65 114 -153 156 -196 77 -79 250
-212 373 -289 186 -116 421 -211 578 -234 123 -17 394 -7 493 20 274 72 675
379 826 631 69 115 85 177 79 300 -9 180 -91 400 -205 550 -179 237 -420 360
-677 347 -210 -11 -401 -124 -479 -283 -38 -75 -47 -165 -21 -194 17 -19 19
-19 38 -3 10 10 28 36 39 58 57 113 161 206 275 246 84 30 203 36 297 15 124
-28 207 -76 312 -181 81 -80 98 -103 142 -195 61 -127 82 -209 82 -321 0 -206
-103 -386 -262 -458 -35 -16 -86 -49 -114 -73 -171 -148 -292 -201 -498 -219
-83 -7 -144 -18 -194 -36 -62 -22 -83 -25 -150 -20 -135 9 -326 94 -577 256
-66 43 -142 91 -170 106 -67 38 -144 112 -223 215 -36 47 -100 121 -142 165
-65 67 -80 91 -99 145 -72 220 -79 521 -16 704 28 81 164 321 280 496 98 147
101 153 115 247 21 146 79 252 204 370 142 136 283 221 441 269 77 23 109 27
220 28 121 0 140 -2 285 -41 213 -56 242 -62 424 -79 295 -28 508 -100 755
-256 124 -78 160 -96 223 -109 41 -9 63 -22 106 -63 100 -94 294 -374 308
-445 6 -28 4 -31 -18 -31 -36 0 -59 20 -183 165 -63 74 -142 157 -175 184
-105 87 -454 284 -623 351 -202 79 -389 104 -461 62 -21 -12 -45 -22 -54 -22
-9 0 -75 21 -147 46 -188 66 -250 83 -346 95 -147 18 -306 -14 -463 -92 -224
-111 -397 -299 -348 -377 6 -9 31 4 95 52 263 195 461 273 677 264 121 -5 181
-26 221 -77 13 -17 39 -50 57 -72 17 -23 32 -51 32 -64 0 -18 -7 -25 -32 -30
-158 -32 -704 -242 -1018 -392 -107 -52 -231 -194 -267 -309 -14 -46 -15 -64
-4 -141 18 -130 24 -155 43 -167 28 -17 52 15 96 132 49 128 81 180 153 252
117 117 403 275 730 404 214 84 272 115 314 170 43 57 71 54 345 -36 401 -131
679 -296 900 -537 224 -242 331 -467 334 -701 1 -118 3 -112 -108 -305 -68
-118 -83 -136 -156 -180 -56 -34 -127 -111 -290 -315 -184 -230 -369 -395
-596 -535 -163 -100 -199 -150 -137 -190 54 -36 147 -15 283 65 174 102 366
283 563 532 114 143 162 186 194 174 26 -10 9 -79 -38 -162 -74 -129 -198
-284 -343 -430 -191 -190 -342 -289 -541 -354 -38 -13 -115 -43 -170 -68 -55
-24 -165 -66 -245 -92 -80 -26 -186 -68 -236 -93 -117 -59 -182 -80 -324 -107
-137 -26 -170 -41 -170 -75 0 -42 48 -59 165 -58 124 1 265 32 465 102 80 29
224 74 320 102 445 127 779 368 1053 761 130 186 183 281 217 386 18 53 47
124 65 157 43 78 61 143 80 290 8 65 15 122 15 126 0 14 39 20 60 9 32 -17 58
-80 90 -217 17 -71 48 -180 70 -243 21 -63 46 -153 55 -200 8 -47 22 -115 30
-151 8 -37 15 -84 15 -105 0 -80 9 -22 20 139 10 129 10 216 1 380 -19 356
-33 418 -120 562 -67 110 -82 142 -131 280 -92 256 -163 377 -329 562 -246
274 -497 440 -901 598 -160 62 -221 94 -245 127 -21 31 -20 68 3 68 11 0 106
-29 213 -65 310 -104 604 -261 794 -423 39 -33 147 -141 242 -241 159 -168
175 -188 226 -288 30 -60 78 -173 107 -253 62 -171 93 -233 126 -251 45 -24
50 -3 30 128 -23 158 -73 349 -135 516 -31 85 -51 155 -51 181 0 115 -87 306
-276 608 -143 229 -160 261 -141 276 20 17 70 -11 139 -80 88 -87 181 -206
211 -270 112 -236 172 -374 218 -500 29 -81 55 -146 57 -143 17 16 -218 617
-289 737 -89 151 -205 275 -303 325 -37 19 -98 56 -135 82 -125 91 -235 141
-384 176 -74 17 -454 78 -620 100 -144 18 -322 20 -357 2z"/>
<path d="M4590 6579 c-121 -13 -243 -54 -442 -150 -146 -71 -195 -90 -225 -89
-62 3 -63 2 -85 -47 -21 -47 -21 -47 2 -65 46 -37 130 -17 395 97 193 83 252
102 420 139 138 31 171 42 179 62 16 41 -107 68 -244 53z"/>
<path d="M4995 6225 c-173 -46 -501 -189 -650 -281 -137 -85 -330 -231 -380
-286 -30 -33 -72 -102 -115 -190 -85 -173 -99 -235 -82 -382 14 -128 46 -231
132 -421 37 -82 75 -172 85 -200 30 -83 88 -129 295 -237 214 -112 290 -140
364 -136 44 3 51 6 54 25 5 35 -19 61 -135 148 -59 44 -121 98 -138 120 -17
23 -63 122 -102 222 -148 372 -159 498 -79 855 40 180 50 202 120 276 179 190
574 348 821 328 156 -13 281 -52 446 -138 264 -137 479 -365 621 -659 59 -120
85 -153 115 -147 61 12 50 141 -27 296 -137 278 -374 510 -680 666 -254 130
-507 184 -665 141z m-845 -641 c0 -7 -16 -59 -35 -115 -106 -308 -86 -535 76
-878 77 -161 77 -196 1 -157 -76 39 -214 333 -253 537 -18 99 -16 242 6 333
26 107 100 254 143 283 34 23 62 21 62 -3z"/>
<path d="M4955 5915 c-172 -38 -347 -129 -454 -236 -74 -74 -130 -182 -162
-314 -26 -105 -31 -299 -10 -403 29 -149 108 -338 187 -449 54 -76 180 -179
274 -226 60 -30 72 -32 165 -32 89 0 106 3 157 28 98 48 142 120 104 172 -12
16 -23 19 -67 15 -30 -3 -102 -5 -160 -5 -102 0 -108 1 -182 38 -206 102 -327
329 -344 647 -10 185 33 298 162 426 92 91 171 136 310 175 108 31 275 31 390
0 367 -98 679 -450 786 -888 36 -147 69 -182 120 -125 54 60 71 204 32 278
-46 89 -193 336 -244 409 -168 244 -443 433 -712 490 -84 18 -270 18 -352 0z"/>
<path d="M3471 5594 c-44 -57 -60 -196 -42 -383 23 -229 59 -326 199 -536 109
-162 189 -248 229 -243 48 5 41 38 -35 171 -158 275 -191 376 -211 630 -6 73
-18 144 -30 177 -10 30 -22 82 -26 115 -4 33 -12 68 -17 78 -13 25 -43 21 -67
-9z"/>
<path d="M4966 5359 c-78 -27 -126 -61 -212 -150 -39 -41 -83 -84 -99 -97 -27
-22 -27 -24 -23 -110 5 -104 41 -193 108 -266 110 -119 317 -152 442 -71 86
56 121 221 70 327 -64 130 -206 176 -289 93 -35 -35 -40 -54 -23 -86 13 -23
48 -25 56 -4 8 20 47 19 66 -2 25 -29 30 -59 14 -97 -19 -46 -65 -70 -124 -63
-84 9 -142 76 -142 164 0 64 23 113 77 164 62 60 98 73 188 74 100 0 172 -30
241 -102 116 -119 145 -286 89 -504 -17 -66 -20 -152 -5 -180 18 -33 63 -24
103 21 48 52 74 106 98 197 89 348 -170 714 -505 713 -45 -1 -93 -8 -130 -21z"/>
<path d="M6632 4353 c-13 -11 -31 -53 -46 -110 -36 -129 -39 -134 -98 -201
-29 -33 -88 -115 -130 -183 -229 -371 -461 -584 -873 -800 -140 -74 -140 -74
-250 -75 -108 -1 -112 -2 -255 -56 -274 -105 -529 -148 -691 -118 -102 19
-484 152 -624 217 -77 35 -160 73 -185 84 -45 19 -45 19 0 -22 296 -272 592
-444 790 -456 91 -6 390 28 540 62 147 33 209 58 298 123 132 97 156 109 168
78 7 -19 -11 -54 -53 -97 -72 -76 -15 -116 89 -63 54 27 250 142 413 242 385
237 632 514 790 887 50 117 61 136 79 133 73 -11 22 -258 -96 -464 -75 -132
-149 -226 -278 -354 -180 -181 -396 -332 -663 -463 -179 -89 -210 -98 -362
-107 -71 -5 -137 -11 -145 -14 -33 -12 -312 -55 -425 -65 -66 -6 -145 -16
-175 -22 -55 -11 -163 -60 -175 -79 -3 -5 -32 -10 -63 -11 -57 0 -57 0 7 -24
34 -13 77 -36 93 -52 27 -25 29 -25 17 -4 -12 20 -12 24 4 35 10 6 28 19 40
29 20 17 32 18 127 10 58 -4 195 -8 305 -7 374 1 637 59 922 205 484 249 870
685 998 1125 42 144 49 232 30 378 -19 143 -35 209 -61 237 -21 24 -36 24 -62
2z"/>
<path d="M3068 4000 c33 -69 64 -141 71 -161 11 -35 7 -69 -9 -69 -12 0 -6
-34 8 -43 6 -4 47 -54 89 -110 147 -194 313 -354 432 -416 136 -70 307 -121
405 -121 25 0 86 15 140 35 53 19 153 48 222 65 70 16 146 39 171 50 39 17 44
23 41 47 -2 17 -12 32 -28 40 -42 21 -188 16 -328 -13 -215 -44 -335 -34 -520
44 -156 65 -355 198 -483 322 -67 65 -78 81 -84 120 -10 63 -43 134 -111 231
-31 46 -61 88 -66 94 -5 5 18 -46 50 -115z"/>
<path d="M6229 2723 c-13 -16 -12 -17 4 -4 9 7 17 15 17 17 0 8 -8 3 -21 -13z"/>
<path d="M6115 2649 c-153 -101 -423 -225 -630 -291 -187 -59 -586 -126 -770
-129 -70 -2 -70 -2 25 -10 163 -14 437 9 630 55 196 45 458 163 655 295 106
70 199 141 185 140 -3 0 -45 -27 -95 -60z"/>
<path d="M4578 2233 c7 -3 16 -2 19 1 4 3 -2 6 -13 5 -11 0 -14 -3 -6 -6z"/>
</g>
</svg>
