<?xml version="1.0" standalone="no"?>
<!DOCTYPE svg PUBLIC "-//W3C//DTD SVG 20010904//EN"
 "http://www.w3.org/TR/2001/REC-SVG-20010904/DTD/svg10.dtd">
<svg version="1.0" xmlns="http://www.w3.org/2000/svg"
 width="1000.000000pt" height="1000.000000pt" viewBox="0 0 1000.000000 1000.000000"
 preserveAspectRatio="xMidYMid meet">
<metadata>
  <rdf:RDF
    xmlns:rdf = "http://www.w3.org/1999/02/22-rdf-syntax-ns#"
    xmlns:rdfs = "http://www.w3.org/2000/01/rdf-schema#"
    xmlns:dc = "http://purl.org/dc/elements/1.1/"
    xmlns:cc = "http://creativecommons.org/ns#">
    <cc:license rdf:resource="http://creativecommons.org/publicdomain/zero/1.0/deed.en"/>
    <cc:permits rdf:resource="http://creativecommons.org/ns#Reproduction"/>
    <rdf:Description about="https://nft.mir.one/fingerprints"
      dc:title="TON Fingerprints"
      dc:description="This is a unique digital fingerprint created based on the algorithm for generating basic rings using a noise texture. Like human fingerprints, you can now use it for the Web3 and Metaverse era as digital biometric information."
      dc:publisher="https://nft.mir.one"
      dc:date="2022-02-22"
      dc:format="image/svg+xml"
      dc:language="en" >
      <dc:creator>
      <rdf:Bag>
        <rdf:li>EQBondcvD2_aOFADXSWJHs4ZazQDuEl9_wNvGGPxI8hGuOFU</rdf:li>
        <rdf:li>ipfs://bafkreihj7iub3fhmhq6jn62noukt5wxn3gv6bvcg7wmt6ywvlurefezckq</rdf:li>
      </rdf:Bag>
      </dc:creator>
    </rdf:Description>
  </rdf:RDF>
</metadata>
<rect width="100%" height="100%" fill="#1b1f23"/>
<g transform="translate(0.000000,1000.000000) scale(0.100000,-0.100000)"
fill="#ffffff" stroke="none">
<path d="M4570 7736 c-66 -7 -90 -12 -65 -14 146 -10 492 -56 596 -78 343 -72
675 -226 929 -431 148 -120 344 -341 399 -450 40 -80 24 -102 -57 -78 -66 20
-115 57 -203 156 -221 247 -270 293 -411 386 -190 125 -447 226 -725 284 -192
40 -428 50 -603 25 -132 -19 -206 -20 -215 -6 -9 15 -35 -8 -35 -31 0 -52 106
-81 380 -104 406 -34 686 -101 948 -226 124 -58 219 -120 288 -186 61 -59 91
-105 127 -196 15 -37 61 -120 103 -185 88 -136 283 -477 326 -572 17 -36 54
-126 83 -200 29 -74 69 -170 88 -212 148 -322 142 -513 -28 -953 -93 -240
-163 -392 -196 -423 -16 -15 -29 -33 -29 -39 0 -36 -320 -423 -458 -555 -169
-160 -296 -232 -542 -308 -266 -82 -320 -91 -575 -99 -126 -3 -297 -6 -380 -5
-142 0 -156 2 -250 34 -291 96 -527 260 -789 548 -122 135 -148 158 -197 172
-29 9 -29 9 1 -22 17 -16 42 -51 57 -76 112 -195 269 -403 362 -481 206 -171
491 -307 756 -362 105 -21 105 -21 129 8 36 43 80 52 296 63 207 11 266 19
535 73 94 19 210 42 260 52 160 29 265 96 451 286 60 63 154 170 208 239 54
69 145 170 201 226 121 119 136 144 241 421 79 209 95 243 152 332 40 61 52
95 121 342 61 217 57 269 -32 425 -24 44 -81 160 -127 259 -112 248 -214 443
-298 572 -107 164 -122 213 -63 213 39 0 122 -52 163 -102 102 -125 223 -343
343 -617 90 -208 118 -259 151 -272 34 -12 36 -12 24 9 -5 9 -30 91 -55 182
-74 265 -165 480 -324 759 -39 69 -83 161 -97 205 -36 109 -62 159 -132 252
-67 89 -234 257 -332 335 -225 180 -514 320 -800 389 -195 47 -465 61 -700 36z"/>
<path d="M4020 7272 c-60 -20 -196 -86 -261 -127 -22 -15 -85 -60 -140 -101
-55 -41 -106 -74 -112 -74 -8 0 -7 -4 1 -12 16 -16 15 -43 -3 -58 -9 -7 -13
-21 -9 -34 6 -23 5 -24 -142 -228 -45 -62 -107 -153 -139 -202 -57 -88 -57
-88 37 5 206 205 300 323 328 412 8 25 26 48 51 67 81 58 256 117 422 141 103
15 394 15 552 -1 366 -35 787 -146 1037 -273 127 -64 149 -67 156 -18 11 75
-165 205 -407 301 -231 92 -481 145 -871 185 -355 37 -432 40 -500 17z"/>
<path d="M4235 6899 c-128 -15 -272 -55 -375 -105 -91 -44 -103 -54 -275 -228
-119 -120 -201 -211 -241 -271 -124 -182 -234 -439 -304 -708 -56 -219 -73
-347 -68 -541 3 -161 3 -161 58 -276 30 -63 69 -137 86 -165 68 -109 558 -673
657 -757 159 -135 341 -214 544 -238 126 -15 237 -3 419 45 140 37 179 42 190
23 13 -20 -44 -54 -180 -107 -191 -75 -290 -90 -447 -72 -241 29 -451 128
-646 304 -102 92 -427 430 -504 523 -61 75 -169 241 -200 309 -26 57 -23 34
10 -86 57 -200 120 -337 205 -447 62 -81 357 -376 446 -449 203 -164 424 -266
635 -294 95 -12 270 -7 383 11 61 10 65 10 93 -15 25 -20 41 -25 88 -25 175 0
598 168 791 314 155 116 379 366 513 568 153 232 279 540 322 786 40 228 -3
468 -96 547 -33 27 -73 33 -86 13 -4 -7 -8 -132 -8 -278 -1 -240 -3 -274 -24
-364 -73 -314 -221 -606 -439 -867 -184 -219 -371 -362 -665 -508 -148 -74
-403 -169 -416 -155 -3 3 1 17 9 32 11 19 54 47 141 92 69 36 143 79 164 96
22 17 88 59 147 93 147 88 266 179 378 292 242 244 426 555 503 854 37 143 47
224 53 424 3 97 12 211 21 253 9 42 13 84 10 92 -3 8 -23 24 -44 35 -52 26
-96 71 -191 193 -163 212 -248 286 -496 432 -254 151 -369 199 -560 235 -357
69 -675 13 -941 -163 -113 -75 -287 -249 -377 -376 -175 -246 -338 -686 -338
-908 0 -102 12 -152 45 -189 20 -23 27 -26 42 -17 14 8 21 33 29 102 14 111
24 142 69 207 23 33 45 86 64 155 143 511 409 826 809 960 222 74 523 64 772
-25 296 -107 583 -320 733 -546 110 -166 147 -294 147 -506 0 -417 -156 -759
-516 -1132 -192 -200 -309 -274 -452 -286 -42 -4 -144 -18 -227 -31 -277 -45
-460 -25 -660 71 -106 52 -164 100 -222 189 -29 44 -82 114 -118 156 -89 104
-147 188 -191 277 -40 81 -41 101 -14 263 5 30 9 120 9 198 1 162 -13 216 -53
210 -28 -4 -43 -39 -56 -129 -6 -40 -18 -105 -27 -142 -13 -59 -14 -79 -3
-143 14 -84 8 -101 -34 -90 -35 9 -199 205 -239 286 -32 64 -32 65 -31 215 0
136 4 161 32 268 100 371 286 702 537 952 266 267 513 368 895 367 168 0 303
-17 462 -57 147 -37 238 -79 341 -156 51 -38 151 -99 222 -135 160 -82 233
-133 312 -217 80 -86 135 -164 231 -328 85 -145 99 -156 136 -106 32 43 27
139 -13 242 -57 149 -194 351 -308 455 -84 77 -118 91 -247 100 -117 8 -189
31 -233 72 -48 45 19 62 127 33 99 -27 148 -17 137 27 -12 45 -136 98 -282
118 -44 6 -159 31 -255 55 -373 93 -655 122 -915 94z"/>
<path d="M4380 6141 c-351 -76 -607 -316 -730 -682 -45 -131 -52 -201 -40
-364 6 -82 15 -231 20 -330 10 -195 22 -255 70 -352 33 -67 126 -175 169 -198
54 -28 322 -125 399 -145 223 -56 512 -42 662 34 49 24 66 61 34 73 -10 3 -74
-2 -143 -12 -147 -21 -325 -24 -431 -5 -233 40 -465 162 -519 273 -21 43 -26
105 -12 141 5 13 -3 53 -21 110 -59 184 -60 417 -3 606 14 47 39 129 55 182
38 129 64 180 128 250 101 108 237 182 396 214 104 21 279 14 388 -15 94 -26
300 -102 366 -135 148 -75 267 -234 324 -433 32 -111 32 -341 0 -458 -65 -237
-221 -439 -378 -489 -78 -25 -367 -58 -509 -59 -211 0 -359 46 -519 162 -101
73 -117 81 -156 81 -30 0 -32 -2 -25 -27 18 -72 128 -174 250 -233 163 -78
355 -107 582 -89 172 14 314 7 349 -16 23 -15 23 -17 10 -44 -30 -58 -94 -127
-142 -153 -119 -65 -356 -100 -536 -80 -135 15 -207 34 -356 94 -130 52 -165
57 -170 22 -8 -53 172 -162 338 -205 118 -30 317 -37 467 -15 295 43 401 98
521 270 31 44 97 126 146 181 107 121 161 195 215 297 165 305 192 662 70 936
-125 281 -414 500 -790 597 -142 37 -353 44 -479 16z"/>
<path d="M4465 5774 c-11 -2 -45 -9 -75 -15 -30 -6 -91 -28 -135 -49 -133 -64
-226 -164 -211 -226 10 -40 49 -41 135 -5 244 104 388 116 540 45 30 -14 94
-54 142 -90 82 -61 109 -75 171 -88 34 -8 62 -58 83 -148 42 -177 -5 -357
-123 -476 -68 -69 -122 -102 -228 -139 -70 -24 -93 -27 -204 -27 -143 1 -206
18 -297 80 -64 44 -102 111 -84 150 9 20 7 32 -9 64 -45 88 -46 189 -1 233 17
18 22 19 37 6 10 -8 28 -39 41 -69 14 -30 36 -69 49 -87 29 -38 135 -93 181
-93 75 0 129 59 98 106 -19 29 -23 30 -52 2 -30 -28 -63 -14 -86 35 -21 44
-21 70 -1 112 48 101 227 77 283 -37 70 -146 -46 -302 -224 -302 -55 0 -86 7
-148 32 -74 30 -147 42 -147 24 0 -24 78 -95 133 -122 126 -62 262 -62 392 -1
173 80 261 261 209 427 -15 49 -30 72 -88 130 -118 118 -261 169 -403 144
-129 -22 -325 -104 -390 -164 -116 -105 -137 -350 -42 -498 45 -69 157 -169
238 -212 182 -95 440 -103 693 -20 150 49 257 143 328 288 60 122 75 189 74
341 -1 149 -21 241 -79 364 -45 95 -83 142 -139 171 -37 20 -47 22 -60 11 -22
-19 -20 -52 9 -121 27 -63 31 -109 15 -141 -19 -35 -38 -20 -86 69 -107 197
-142 232 -274 273 -62 19 -222 33 -265 23z"/>
<path d="M7021 5079 c-53 -57 -75 -238 -47 -394 39 -222 1 -566 -99 -890 -13
-44 -22 -81 -20 -83 5 -5 68 200 99 323 58 233 67 311 76 655 6 241 12 336 23
368 12 35 12 42 1 42 -7 0 -22 -10 -33 -21z"/>
<path d="M2921 4694 c0 -11 3 -14 6 -6 3 7 2 16 -1 19 -3 4 -6 -2 -5 -13z"/>
<path d="M6806 4659 c-27 -21 -40 -58 -111 -299 -24 -85 -58 -199 -75 -253
-16 -55 -35 -140 -41 -190 -26 -220 -122 -403 -384 -731 -159 -198 -185 -239
-185 -287 0 -83 62 -56 201 87 221 228 393 502 489 779 79 232 180 680 180
804 0 47 -17 98 -35 105 -8 3 -25 -4 -39 -15z"/>
<path d="M6391 3904 c-17 -14 -68 -78 -113 -142 -140 -198 -235 -311 -387
-462 -142 -142 -254 -230 -292 -230 -10 0 -54 12 -96 26 -95 32 -176 30 -353
-11 -207 -47 -295 -57 -539 -61 -129 -2 -237 -7 -240 -9 -9 -10 36 -60 70 -77
55 -28 172 -41 299 -34 147 7 254 26 466 81 182 48 234 54 234 31 0 -24 -47
-53 -154 -95 -221 -87 -436 -126 -656 -119 -145 4 -145 4 -315 63 -450 154
-629 248 -955 500 -115 88 -115 88 -31 -11 120 -142 153 -175 274 -279 252
-218 465 -326 754 -384 311 -63 683 -11 978 136 69 35 106 62 157 115 72 74
101 84 106 36 15 -131 -308 -319 -672 -393 -311 -63 -564 -52 -822 34 -189 63
-266 91 -316 116 -45 21 -49 22 -29 5 13 -11 63 -45 111 -75 200 -123 389
-199 574 -231 143 -24 374 -15 511 19 209 53 383 127 615 261 207 119 207 119
300 258 47 70 133 185 191 255 200 242 291 374 360 516 45 95 58 149 39 172
-18 21 -34 19 -69 -11z"/>
<path d="M6826 3655 c-9 -26 -7 -32 5 -12 6 10 9 21 6 23 -2 3 -7 -2 -11 -11z"/>
<path d="M6802 3595 c-17 -37 -14 -45 4 -12 9 16 14 31 11 33 -2 2 -9 -7 -15
-21z"/>
<path d="M6737 3455 c-20 -41 -35 -75 -32 -75 7 0 77 141 73 146 -2 2 -21 -30
-41 -71z"/>
<path d="M6635 3278 c-180 -280 -383 -468 -565 -523 -74 -22 -136 -74 -209
-174 -69 -96 -161 -192 -226 -236 -68 -47 -71 -56 -7 -20 74 43 159 106 271
199 57 48 158 126 225 174 216 155 398 361 550 625 46 78 24 53 -39 -45z"/>
<path d="M5625 2634 c-286 -176 -433 -238 -745 -314 -69 -17 -161 -42 -205
-55 -80 -26 -80 -26 30 -20 344 19 645 99 869 232 100 60 179 134 174 166 -5
37 -53 34 -123 -9z"/>
</g>
</svg>
