<?xml version="1.0" standalone="no"?>
<!DOCTYPE svg PUBLIC "-//W3C//DTD SVG 20010904//EN"
 "http://www.w3.org/TR/2001/REC-SVG-20010904/DTD/svg10.dtd">
<svg version="1.0" xmlns="http://www.w3.org/2000/svg"
 width="1000.000000pt" height="1000.000000pt" viewBox="0 0 1000.000000 1000.000000"
 preserveAspectRatio="xMidYMid meet">
<metadata>
  <rdf:RDF
    xmlns:rdf = "http://www.w3.org/1999/02/22-rdf-syntax-ns#"
    xmlns:rdfs = "http://www.w3.org/2000/01/rdf-schema#"
    xmlns:dc = "http://purl.org/dc/elements/1.1/"
    xmlns:cc = "http://creativecommons.org/ns#">
    <cc:license rdf:resource="http://creativecommons.org/publicdomain/zero/1.0/deed.en"/>
    <cc:permits rdf:resource="http://creativecommons.org/ns#Reproduction"/>
    <rdf:Description about="https://nft.mir.one/fingerprints"
      dc:title="TON Fingerprints"
      dc:description="This is a unique digital fingerprint created based on the algorithm for generating basic rings using a noise texture. Like human fingerprints, you can now use it for the Web3 and Metaverse era as digital biometric information."
      dc:publisher="https://nft.mir.one"
      dc:date="2022-02-22"
      dc:format="image/svg+xml"
      dc:language="en" >
      <dc:creator>
      <rdf:Bag>
        <rdf:li>EQBondcvD2_aOFADXSWJHs4ZazQDuEl9_wNvGGPxI8hGuOFU</rdf:li>
        <rdf:li>ipfs://bafkreihj7iub3fhmhq6jn62noukt5wxn3gv6bvcg7wmt6ywvlurefezckq</rdf:li>
      </rdf:Bag>
      </dc:creator>
    </rdf:Description>
  </rdf:RDF>
</metadata>
<rect width="100%" height="100%" fill="#1b1f23"/>
<g transform="translate(0.000000,1000.000000) scale(0.100000,-0.100000)"
fill="#ffffff" stroke="none">
<path d="M4661 7707 c-41 -21 -34 -32 22 -33 30 -1 106 -16 169 -33 64 -17
221 -55 349 -85 273 -63 389 -99 554 -170 147 -64 289 -142 460 -256 72 -47
164 -106 205 -129 41 -24 84 -51 95 -60 38 -30 -134 130 -215 200 -269 232
-542 381 -842 459 -148 39 -630 120 -710 120 -35 0 -74 -6 -87 -13z"/>
<path d="M4332 7618 c-78 -12 -139 -24 -135 -28 11 -9 95 -29 190 -46 46 -8
113 -26 150 -40 143 -55 215 -77 438 -135 348 -90 477 -135 667 -230 141 -70
253 -145 342 -227 41 -38 124 -108 183 -155 60 -47 126 -106 147 -132 21 -25
72 -69 114 -97 255 -171 397 -310 390 -383 -6 -59 -38 -46 -223 86 -93 66
-212 141 -263 166 -99 48 -100 51 -77 106 11 27 -35 61 -160 120 -110 52 -110
52 -240 58 -71 4 -165 14 -208 23 -52 11 -133 16 -235 16 -103 0 -229 9 -365
25 -534 63 -839 55 -1081 -26 -131 -44 -199 -83 -257 -150 -45 -53 -59 -61
-176 -110 -131 -55 -204 -103 -283 -184 -44 -45 -44 -47 -25 -61 24 -17 37
-15 210 36 171 51 212 58 390 65 83 3 308 15 500 26 499 30 845 20 1192 -36
211 -34 453 -113 453 -149 0 -21 -32 -36 -77 -36 -22 0 -115 15 -209 34 -337
69 -596 92 -904 82 -113 -4 -232 -11 -265 -16 -33 -5 -206 -14 -385 -19 -179
-6 -372 -17 -430 -25 -106 -15 -393 -78 -441 -97 -14 -5 -52 -37 -85 -70 -32
-32 -64 -59 -71 -59 -16 0 -17 -22 -1 -38 20 -20 70 -14 275 37 314 78 542
109 701 96 152 -12 228 -50 263 -133 11 -25 34 -66 52 -91 18 -25 40 -62 49
-81 13 -29 27 -40 84 -64 198 -81 208 -84 481 -121 141 -19 203 -41 322 -112
171 -102 321 -157 402 -146 45 6 96 -19 198 -95 357 -269 663 -771 826 -1357
19 -66 43 -142 53 -170 20 -49 20 -49 27 120 11 233 -2 351 -50 480 -80 213
-232 490 -371 675 -120 159 -227 273 -402 426 -180 158 -254 213 -336 249
-117 52 -153 58 -326 60 -155 1 -460 30 -587 56 -29 6 -63 19 -75 30 -23 19
-23 19 0 38 44 38 108 38 605 1 334 -25 494 -81 734 -257 342 -250 676 -707
872 -1193 26 -63 54 -126 63 -140 8 -14 21 -34 27 -45 11 -18 11 -17 7 10 -3
17 -8 73 -11 125 -17 260 -53 397 -147 554 -87 146 -265 400 -363 521 -241
296 -508 452 -902 529 -301 59 -707 78 -913 43 -163 -28 -267 -8 -239 45 52
98 599 122 1059 47 174 -29 473 -94 544 -119 77 -26 173 -79 261 -143 171
-123 230 -191 417 -471 66 -100 149 -221 183 -271 34 -49 78 -117 99 -150 43
-70 113 -159 103 -131 -4 10 -21 73 -38 140 -42 167 -98 304 -169 416 -33 52
-74 131 -91 175 -96 248 -152 306 -535 557 -98 64 -172 120 -190 143 -97 127
-169 173 -334 214 -198 49 -590 89 -970 98 -250 6 -412 -3 -735 -38 -188 -21
-202 -21 -238 -6 -80 34 -22 66 211 117 220 48 614 65 917 40 66 -6 233 -19
370 -30 512 -41 738 -104 872 -242 102 -105 312 -257 452 -327 104 -53 246
-75 317 -49 32 11 32 11 7 49 -14 21 -40 79 -58 129 -42 117 -107 223 -224
368 -255 315 -561 563 -906 732 -193 95 -323 140 -640 220 -302 77 -438 116
-495 143 -63 28 -114 29 -278 5z m1149 -2044 c80 -24 189 -81 232 -122 37 -36
50 -82 23 -82 -25 0 -340 156 -359 178 -38 43 8 54 104 26z"/>
<path d="M4140 7380 c-86 -18 -129 -32 -303 -93 -97 -35 -97 -35 -45 -48 36
-8 142 -13 323 -14 203 -1 297 -6 380 -19 420 -67 781 -153 905 -216 20 -10
58 -37 85 -60 62 -51 114 -79 228 -119 96 -34 158 -39 176 -17 36 43 -89 135
-379 281 -154 77 -270 114 -633 204 -530 131 -572 137 -737 101z"/>
<path d="M4010 7065 c-144 -21 -167 -30 -203 -81 -20 -28 -63 -66 -113 -99
-122 -80 -266 -200 -389 -324 -95 -96 -104 -108 -71 -93 102 45 267 135 426
230 203 122 267 153 376 181 234 60 544 50 1075 -35 239 -38 286 -41 315 -20
26 20 11 45 -48 74 -96 48 -509 133 -808 167 -160 18 -441 18 -560 0z"/>
<path d="M3671 7049 c-24 -9 -191 -109 -191 -114 0 -6 123 27 187 50 74 27
100 46 88 65 -8 12 -52 12 -84 -1z"/>
<path d="M3880 5919 c-163 -19 -439 -81 -647 -144 -72 -22 -86 -31 -130 -78
-26 -30 -75 -96 -109 -148 -60 -95 -60 -95 -20 -84 23 6 71 28 108 49 201 113
544 215 913 272 242 37 294 64 222 117 -23 18 -44 21 -145 23 -64 2 -151 -2
-192 -7z"/>
<path d="M6882 5798 c-17 -17 -15 -59 6 -93 18 -29 40 -43 127 -80 40 -17 40
-17 14 12 -14 15 -44 55 -67 88 -50 76 -64 89 -80 73z"/>
<path d="M4025 5671 c-360 -75 -533 -128 -740 -225 -161 -76 -190 -97 -239
-174 -48 -74 -153 -290 -133 -274 6 5 23 13 37 17 14 4 61 36 105 70 222 173
465 293 760 376 39 11 163 42 277 69 204 48 270 72 308 110 34 34 26 56 -24
69 -68 17 -102 13 -351 -38z"/>
<path d="M6907 5553 c-17 -16 -4 -65 32 -119 51 -75 59 -85 98 -112 43 -31 47
-28 20 16 -13 20 -41 71 -61 112 -48 97 -71 122 -89 103z"/>
<path d="M4285 5435 c-509 -97 -852 -240 -1128 -470 -113 -95 -154 -204 -168
-445 -5 -85 -11 -168 -15 -185 -5 -27 -3 -26 23 15 16 25 39 74 52 110 85 237
261 422 553 583 271 150 703 249 949 217 126 -16 166 -32 395 -153 446 -236
544 -299 702 -451 190 -184 282 -350 357 -645 42 -168 48 -248 36 -484 -16
-303 -17 -307 -191 -617 -47 -85 -108 -202 -135 -260 -26 -58 -51 -109 -56
-115 -4 -5 -37 -68 -73 -140 -66 -130 -66 -130 52 -10 149 152 215 246 319
457 87 176 119 223 149 211 30 -11 10 -94 -67 -272 -60 -139 -105 -269 -95
-278 4 -5 200 303 237 372 48 92 54 130 32 202 -15 49 -18 96 -18 308 0 222 2
254 18 283 19 35 43 50 57 36 5 -5 23 -121 40 -259 42 -347 58 -442 80 -484
18 -35 18 -35 23 -11 3 14 13 57 21 95 43 193 46 287 12 436 -35 152 -72 217
-150 264 -11 6 -34 68 -62 165 -112 385 -246 631 -456 837 -142 139 -289 234
-618 398 -198 99 -250 133 -250 168 0 18 5 19 49 14 71 -8 204 -63 433 -177
309 -154 446 -253 591 -428 147 -175 240 -344 362 -652 43 -107 93 -228 112
-270 53 -116 90 -228 117 -357 14 -65 34 -140 45 -168 20 -50 20 -50 21 0 0
28 5 82 11 120 5 39 10 126 10 195 0 124 0 126 -49 270 -180 522 -361 844
-617 1093 -110 107 -218 178 -355 233 -63 25 -194 84 -292 130 -223 108 -313
132 -431 118 -66 -8 -105 -7 -202 8 -159 23 -283 22 -430 -7z"/>
<path d="M4250 5109 c-330 -42 -659 -203 -868 -424 -126 -132 -220 -301 -241
-435 -22 -133 -4 -506 29 -600 8 -24 8 -24 9 7 1 17 5 53 11 80 5 26 17 95 26
153 82 538 455 935 971 1037 113 22 319 22 423 -1 235 -51 517 -187 735 -355
213 -163 430 -481 329 -481 -18 0 -42 24 -213 209 -309 335 -726 526 -1105
508 -194 -9 -346 -58 -504 -164 -252 -167 -439 -472 -488 -795 -18 -117 -14
-188 17 -298 63 -228 221 -450 406 -571 148 -96 266 -119 413 -79 102 28 185
32 185 10 0 -20 -110 -93 -182 -120 -106 -41 -300 -36 -483 10 -32 8 -33 8
-15 -6 48 -36 218 -115 290 -135 116 -31 209 -29 275 7 62 34 128 97 146 141
8 18 14 52 14 75 1 33 10 57 41 103 55 82 91 162 129 280 35 108 61 148 82
127 19 -19 13 -117 -12 -209 -33 -122 -150 -444 -176 -483 -56 -86 -116 -132
-264 -203 -115 -56 -115 -56 -15 -59 242 -7 341 25 427 139 43 56 43 56 44
147 0 69 7 114 28 186 47 159 95 406 86 445 -8 35 -37 82 -66 106 -9 7 -34 41
-55 75 -83 131 -217 221 -342 231 -124 10 -217 -44 -217 -125 0 -37 19 -73 38
-72 4 0 25 12 47 25 79 49 215 24 270 -49 39 -52 50 -105 35 -178 -26 -135
-106 -255 -200 -303 -106 -54 -259 -73 -308 -39 -43 30 -22 46 90 69 143 31
242 97 294 197 43 84 41 170 -5 212 -30 27 -48 11 -54 -48 -10 -97 -69 -176
-161 -216 -73 -31 -227 -62 -278 -57 -180 21 -338 258 -338 507 0 190 66 372
218 605 89 136 175 219 282 273 116 57 182 73 335 79 108 4 148 1 234 -17 246
-50 485 -179 686 -370 169 -161 334 -339 359 -388 71 -139 107 -371 87 -558
-13 -127 -45 -268 -68 -303 -16 -25 -16 -25 -35 -1 -18 22 -19 35 -13 204 16
422 -59 614 -354 906 -171 169 -328 274 -512 341 -261 95 -522 87 -700 -23
-82 -50 -129 -131 -101 -176 7 -10 31 -1 103 37 130 67 216 85 373 78 268 -11
510 -130 735 -362 172 -176 256 -328 302 -546 20 -91 23 -135 23 -359 1 -255
1 -255 -31 -338 -49 -126 -91 -185 -237 -334 -74 -75 -147 -156 -162 -180 -15
-23 -39 -56 -53 -72 -26 -29 -26 -29 9 -4 19 14 76 47 125 74 130 69 258 158
314 219 50 56 111 165 180 323 27 64 56 110 91 148 107 118 159 280 167 524 6
166 -4 276 -38 420 -11 47 -28 135 -39 195 -10 61 -28 136 -40 167 -80 213
-331 449 -675 636 -118 64 -329 159 -410 185 -129 42 -304 56 -455 36z"/>
<path d="M4260 4264 c-14 -3 -70 -16 -125 -29 -55 -14 -113 -26 -129 -27 -30
-3 -75 -56 -186 -222 -156 -232 -117 -532 83 -638 35 -19 58 -23 132 -23 78 0
96 3 135 25 79 44 120 143 70 170 -17 9 -22 7 -30 -14 -12 -32 -39 -46 -90
-46 -51 0 -88 19 -128 64 -36 41 -46 84 -40 161 8 99 80 169 200 195 80 18
237 8 318 -20 183 -62 310 -185 470 -457 80 -136 98 -185 106 -288 11 -126
-40 -347 -106 -462 -36 -62 -181 -217 -259 -276 -70 -53 -145 -133 -116 -124
11 4 60 16 109 27 168 39 286 96 349 170 51 60 65 95 76 191 5 46 21 131 35
189 61 247 40 443 -70 663 -133 266 -326 439 -566 508 -54 15 -118 23 -245 28
-135 6 -177 11 -197 25 -66 43 -7 69 187 82 179 13 367 -32 522 -123 106 -63
274 -229 340 -336 109 -177 165 -375 165 -580 0 -131 -15 -220 -60 -360 -35
-109 -36 -140 -4 -145 49 -7 120 93 164 233 31 96 40 365 17 511 -41 254 -148
457 -341 642 -194 186 -405 280 -646 287 -63 2 -126 1 -140 -1z"/>
<path d="M3171 3604 c0 -11 3 -14 6 -6 3 7 2 16 -1 19 -3 4 -6 -2 -5 -13z"/>
<path d="M4876 3248 c-7 -13 -17 -57 -21 -98 -9 -106 -29 -197 -71 -332 -46
-145 -40 -173 31 -129 60 36 120 193 140 362 11 98 -20 219 -56 219 -5 0 -15
-10 -23 -22z"/>
</g>
</svg>
