<?xml version="1.0" standalone="no"?>
<!DOCTYPE svg PUBLIC "-//W3C//DTD SVG 20010904//EN"
 "http://www.w3.org/TR/2001/REC-SVG-20010904/DTD/svg10.dtd">
<svg version="1.0" xmlns="http://www.w3.org/2000/svg"
 width="1000.000000pt" height="1000.000000pt" viewBox="0 0 1000.000000 1000.000000"
 preserveAspectRatio="xMidYMid meet">
<metadata>
  <rdf:RDF
    xmlns:rdf = "http://www.w3.org/1999/02/22-rdf-syntax-ns#"
    xmlns:rdfs = "http://www.w3.org/2000/01/rdf-schema#"
    xmlns:dc = "http://purl.org/dc/elements/1.1/"
    xmlns:cc = "http://creativecommons.org/ns#">
    <cc:license rdf:resource="http://creativecommons.org/publicdomain/zero/1.0/deed.en"/>
    <cc:permits rdf:resource="http://creativecommons.org/ns#Reproduction"/>
    <rdf:Description about="https://nft.mir.one/fingerprints"
      dc:title="TON Fingerprints"
      dc:description="This is a unique digital fingerprint created based on the algorithm for generating basic rings using a noise texture. Like human fingerprints, you can now use it for the Web3 and Metaverse era as digital biometric information."
      dc:publisher="https://nft.mir.one"
      dc:date="2022-02-22"
      dc:format="image/svg+xml"
      dc:language="en" >
      <dc:creator>
      <rdf:Bag>
        <rdf:li>EQBondcvD2_aOFADXSWJHs4ZazQDuEl9_wNvGGPxI8hGuOFU</rdf:li>
        <rdf:li>ipfs://bafkreihj7iub3fhmhq6jn62noukt5wxn3gv6bvcg7wmt6ywvlurefezckq</rdf:li>
      </rdf:Bag>
      </dc:creator>
    </rdf:Description>
  </rdf:RDF>
</metadata>
<rect width="100%" height="100%" fill="#1b1f23"/>
<g transform="translate(0.000000,1000.000000) scale(0.100000,-0.100000)"
fill="#ffffff" stroke="none">
<path d="M5005 7784 c149 -53 474 -121 650 -138 78 -7 54 1 -170 58 -142 37
-507 108 -541 105 -5 0 23 -12 61 -25z"/>
<path d="M4660 7778 c0 -15 -10 -18 -62 -19 -54 -1 -58 -2 -29 -9 19 -5 45
-22 62 -43 35 -42 118 -77 184 -77 34 0 45 4 45 16 0 17 -40 36 -117 54 -54
12 -97 45 -76 58 8 5 9 13 3 22 -8 13 -10 12 -10 -2z"/>
<path d="M4875 7567 c-37 -20 -54 -22 -240 -23 -225 0 -326 -16 -504 -79 -316
-111 -298 -102 -212 -108 45 -3 123 1 191 9 77 11 242 17 500 21 438 6 471 3
868 -72 280 -53 358 -61 443 -47 35 6 118 14 183 18 119 6 119 6 65 26 -307
111 -742 219 -1057 262 -148 21 -189 20 -237 -7z"/>
<path d="M4480 7240 c-264 -16 -495 -60 -601 -116 -54 -29 -81 -51 -112 -93
-22 -30 -115 -129 -207 -220 -182 -180 -209 -216 -378 -501 -103 -175 -103
-175 -52 -125 29 28 96 102 149 165 161 190 321 327 584 504 157 105 360 170
618 200 262 31 427 19 624 -44 66 -21 199 -59 296 -84 210 -53 309 -91 531
-202 311 -155 486 -273 634 -426 121 -124 181 -226 240 -407 56 -171 141 -325
255 -464 19 -23 -247 741 -285 818 -87 178 -225 342 -366 433 -47 31 -168 99
-270 152 -102 53 -225 123 -274 155 -134 88 -254 128 -596 200 -261 55 -510
72 -790 55z"/>
<path d="M5960 7152 c-21 -17 -23 -23 -13 -45 15 -33 72 -65 241 -139 75 -33
180 -83 232 -111 83 -45 210 -101 210 -91 0 11 -248 225 -308 266 -100 68
-227 127 -287 134 -41 5 -55 3 -75 -14z"/>
<path d="M3632 7079 c-13 -5 -33 -16 -45 -25 -22 -16 -22 -16 8 -10 74 17 105
27 105 36 0 12 -37 12 -68 -1z"/>
<path d="M4600 6920 c-350 -43 -584 -140 -895 -373 -105 -79 -323 -299 -408
-412 -82 -109 -195 -329 -271 -525 -31 -80 -68 -169 -81 -198 -25 -53 -25 -53
16 -30 51 29 64 45 239 303 78 116 177 253 218 305 107 135 299 323 426 418
290 214 550 310 1006 367 130 17 166 28 184 58 15 24 -1 47 -49 71 -32 16 -64
20 -175 22 -74 2 -169 -1 -210 -6z"/>
<path d="M5180 6740 c-25 -5 -76 -21 -115 -37 -84 -35 -112 -43 -329 -89 -308
-65 -522 -149 -731 -289 -280 -186 -516 -457 -673 -772 -40 -79 -68 -124 -81
-128 -30 -9 -69 -61 -77 -100 -4 -24 1 -54 16 -97 19 -54 24 -97 32 -293 5
-126 10 -309 12 -405 2 -157 6 -193 39 -354 95 -457 226 -693 560 -1005 41
-38 67 -71 67 -84 0 -35 47 -102 102 -145 130 -100 358 -192 529 -214 87 -11
102 -10 189 10 115 27 304 30 392 7 67 -17 93 -11 178 43 30 19 126 70 213
113 190 95 273 146 435 267 116 86 153 105 166 83 17 -27 -55 -121 -166 -219
-118 -103 -753 -517 -873 -570 -131 -57 -215 -74 -385 -79 -133 -4 -176 -1
-300 21 -80 13 -183 38 -230 55 -46 16 -86 28 -88 27 -6 -7 214 -94 298 -120
169 -50 245 -61 415 -60 147 1 170 3 280 33 217 58 451 162 556 248 26 21 114
92 195 157 265 213 347 305 408 461 27 68 150 293 200 368 30 44 40 46 62 11
15 -22 15 -32 4 -82 -16 -75 -231 -496 -290 -570 -51 -63 -137 -139 -290 -257
-104 -80 -150 -131 -150 -167 0 -28 29 -34 46 -10 8 11 65 55 127 98 227 156
362 285 421 401 20 40 68 123 108 185 93 146 138 244 184 398 20 69 69 229
109 355 41 127 82 266 94 310 98 390 12 705 -315 1146 -35 48 -64 95 -64 106
0 58 118 16 196 -70 144 -159 302 -468 344 -672 7 -33 18 -85 26 -115 8 -30
14 -70 14 -90 0 -19 5 -42 11 -50 8 -11 9 35 5 160 -6 169 -21 307 -45 400
-23 89 -84 266 -109 315 -62 125 -190 265 -272 299 -130 53 -215 104 -340 202
-373 294 -664 424 -1005 449 -174 12 -457 -30 -670 -101 -263 -87 -456 -204
-641 -388 -128 -128 -199 -226 -263 -361 -130 -273 -172 -631 -98 -824 46
-120 228 -460 273 -510 46 -51 232 -201 377 -304 143 -102 348 -194 442 -198
47 -2 317 17 459 32 253 27 474 133 651 313 101 103 153 184 192 301 25 74 27
93 27 250 1 147 -2 182 -23 260 -80 307 -246 529 -481 639 -146 69 -301 91
-445 63 -180 -34 -252 -82 -316 -208 -21 -43 -55 -104 -75 -135 -182 -284
-173 -551 22 -723 151 -133 388 -99 471 68 26 52 25 163 -3 216 -45 87 -161
130 -232 85 -37 -23 -71 -88 -72 -135 0 -41 34 -93 66 -101 21 -5 31 -2 45 17
15 20 21 22 36 13 45 -28 17 -96 -47 -115 -81 -24 -177 34 -220 133 -19 44
-22 65 -18 133 8 138 73 241 214 336 41 27 80 62 88 77 38 73 112 112 214 112
181 0 351 -126 462 -341 28 -55 64 -114 79 -132 68 -78 95 -187 80 -324 -16
-146 -78 -275 -188 -395 -162 -176 -379 -272 -678 -299 -279 -25 -452 18 -672
166 -146 97 -292 236 -371 350 -50 72 -136 261 -165 360 -100 343 20 759 299
1038 259 259 663 417 1067 417 327 0 635 -116 930 -351 134 -106 223 -205 238
-265 35 -132 45 -161 86 -239 24 -46 73 -130 110 -187 87 -136 121 -209 151
-326 22 -85 25 -113 22 -232 -3 -128 -5 -138 -36 -200 -17 -36 -47 -83 -65
-106 -18 -22 -46 -76 -61 -120 -53 -148 -105 -242 -176 -318 -50 -54 -70 -84
-78 -118 -14 -57 -81 -157 -135 -204 -23 -20 -78 -54 -122 -76 -44 -23 -122
-67 -173 -100 -199 -127 -365 -196 -492 -205 -131 -9 -458 65 -675 154 -184
75 -450 208 -557 278 -198 130 -322 287 -349 440 -7 42 -35 122 -69 200 -32
72 -77 173 -99 226 -47 108 -73 142 -104 137 -58 -8 -43 -122 54 -413 180
-540 331 -677 1079 -980 197 -80 225 -89 395 -125 147 -32 191 -54 166 -83
-17 -22 -65 -26 -171 -16 -128 13 -197 31 -310 84 -52 24 -142 62 -199 85
-182 72 -552 240 -609 277 -112 71 -243 219 -325 365 -73 130 -155 362 -191
535 -28 135 -29 185 -7 275 18 73 20 112 19 318 -1 211 1 243 19 310 12 41 38
136 57 210 61 229 159 400 338 586 149 155 282 251 483 349 161 79 339 136
560 180 313 63 465 65 675 10 312 -83 580 -236 875 -501 141 -127 175 -152
211 -160 96 -19 55 111 -90 286 -243 294 -827 609 -1196 645 -36 3 -78 7 -95
9 -16 2 -50 0 -75 -4z m-1850 -1382 c20 -37 4 -102 -27 -106 -22 -3 -23 0 -23
61 0 35 3 67 7 71 11 11 27 1 43 -26z m865 -2293 c83 -38 224 -94 314 -126 91
-32 173 -67 184 -78 75 -74 -159 -42 -398 55 -104 43 -328 164 -341 185 -3 6
-3 17 0 26 11 28 84 9 241 -62z"/>
<path d="M4910 5910 c-505 -89 -847 -373 -962 -798 -16 -60 -21 -108 -21 -217
-1 -123 2 -152 26 -240 92 -337 355 -621 679 -733 91 -31 118 -36 230 -40 73
-3 161 0 209 8 361 52 621 276 684 589 27 130 8 242 -42 258 -26 9 -52 -43
-82 -164 -42 -170 -92 -264 -192 -364 -132 -134 -303 -199 -517 -199 -75 0
-132 6 -184 19 -286 73 -527 320 -609 626 -31 113 -31 297 0 410 59 220 201
401 386 490 79 38 267 95 418 126 86 18 127 20 262 16 136 -4 174 -8 250 -31
321 -96 568 -329 665 -632 37 -116 60 -320 60 -531 0 -190 -15 -268 -69 -379
-96 -194 -374 -413 -631 -498 -153 -50 -222 -60 -440 -61 -113 0 -211 -4 -217
-8 -7 -5 -13 -17 -13 -28 0 -46 169 -88 356 -89 142 0 255 20 402 71 176 62
228 74 247 59 9 -8 15 -25 13 -39 -2 -22 -17 -33 -88 -69 -109 -54 -272 -107
-379 -123 -98 -14 -261 -7 -367 15 -99 21 -171 50 -245 98 -35 23 -125 69
-199 103 -212 97 -317 164 -483 309 -96 83 -138 109 -161 100 -58 -22 44 -177
198 -300 130 -104 276 -186 578 -325 155 -71 255 -102 418 -130 179 -30 298
-24 442 24 132 44 192 75 335 168 62 41 139 89 171 107 67 38 151 108 183 153
17 24 18 33 9 44 -22 27 -69 16 -183 -44 -153 -80 -217 -95 -217 -51 0 29 61
82 189 167 160 106 188 129 237 196 84 114 99 225 74 537 -22 278 -24 343 -7
383 15 36 41 56 54 43 13 -12 62 -292 73 -414 14 -158 23 -199 49 -226 17 -16
25 -18 39 -10 39 24 47 63 47 219 0 167 -13 235 -66 342 -32 66 -67 99 -113
105 -25 3 -32 14 -75 118 -117 279 -166 364 -278 481 -184 192 -432 321 -696
364 -124 20 -317 18 -447 -5z"/>
<path d="M4575 5419 c-83 -25 -190 -140 -255 -274 -55 -114 -74 -212 -68 -349
9 -191 78 -347 212 -481 123 -123 264 -189 427 -201 226 -16 453 105 552 294
68 130 109 325 88 422 -40 188 -244 334 -401 288 -37 -11 -46 -19 -48 -40 -3
-21 8 -35 54 -74 182 -155 206 -193 212 -325 5 -107 -12 -173 -68 -257 -70
-104 -183 -168 -315 -179 -185 -16 -386 105 -478 288 -113 223 -79 478 93 704
95 125 110 164 71 185 -23 12 -35 12 -76 -1z"/>
<path d="M3016 5208 c-17 -39 -42 -172 -51 -268 -6 -60 -26 -155 -42 -197 -4
-11 2 -8 18 9 13 15 36 30 50 33 23 6 27 3 33 -26 15 -78 -12 -338 -42 -400
-18 -36 -18 -36 18 -13 86 55 105 105 105 280 0 104 -2 113 -27 150 -33 48
-34 63 -11 245 12 98 14 148 8 175 -13 52 -40 57 -59 12z"/>
<path d="M7042 4395 c0 -16 2 -22 5 -12 2 9 2 23 0 30 -3 6 -5 -1 -5 -18z"/>
<path d="M3089 4314 c-16 -20 -5 -177 22 -303 45 -209 160 -485 280 -672 165
-258 428 -527 644 -659 212 -130 465 -201 666 -187 224 16 429 91 429 158 0
31 -40 32 -227 3 -338 -52 -513 -32 -768 91 -146 70 -215 125 -403 325 -210
223 -311 354 -390 509 -98 190 -147 350 -176 572 -15 119 -29 164 -52 173 -7
3 -18 -2 -25 -10z"/>
<path d="M5423 2307 c-138 -56 -251 -103 -249 -104 6 -6 277 78 411 127 77 28
163 54 190 58 50 6 50 6 10 13 -81 15 -109 8 -362 -94z"/>
</g>
</svg>
