<?xml version="1.0" standalone="no"?>
<!DOCTYPE svg PUBLIC "-//W3C//DTD SVG 20010904//EN"
 "http://www.w3.org/TR/2001/REC-SVG-20010904/DTD/svg10.dtd">
<svg version="1.0" xmlns="http://www.w3.org/2000/svg"
 width="1000.000000pt" height="1000.000000pt" viewBox="0 0 1000.000000 1000.000000"
 preserveAspectRatio="xMidYMid meet">
<metadata>
  <rdf:RDF
    xmlns:rdf = "http://www.w3.org/1999/02/22-rdf-syntax-ns#"
    xmlns:rdfs = "http://www.w3.org/2000/01/rdf-schema#"
    xmlns:dc = "http://purl.org/dc/elements/1.1/"
    xmlns:cc = "http://creativecommons.org/ns#">
    <cc:license rdf:resource="http://creativecommons.org/publicdomain/zero/1.0/deed.en"/>
    <cc:permits rdf:resource="http://creativecommons.org/ns#Reproduction"/>
    <rdf:Description about="https://nft.mir.one/fingerprints"
      dc:title="TON Fingerprints"
      dc:description="This is a unique digital fingerprint created based on the algorithm for generating basic rings using a noise texture. Like human fingerprints, you can now use it for the Web3 and Metaverse era as digital biometric information."
      dc:publisher="https://nft.mir.one"
      dc:date="2022-02-22"
      dc:format="image/svg+xml"
      dc:language="en" >
      <dc:creator>
      <rdf:Bag>
        <rdf:li>EQBondcvD2_aOFADXSWJHs4ZazQDuEl9_wNvGGPxI8hGuOFU</rdf:li>
        <rdf:li>ipfs://bafkreihj7iub3fhmhq6jn62noukt5wxn3gv6bvcg7wmt6ywvlurefezckq</rdf:li>
      </rdf:Bag>
      </dc:creator>
    </rdf:Description>
  </rdf:RDF>
</metadata>
<rect width="100%" height="100%" fill="#1b1f23"/>
<g transform="translate(0.000000,1000.000000) scale(0.100000,-0.100000)"
fill="#ffffff" stroke="none">
<path d="M4715 7730 c132 -34 260 -49 415 -49 93 1 148 -6 290 -35 96 -19 211
-40 255 -46 44 -6 97 -15 118 -21 22 -6 41 -8 44 -5 13 12 -369 118 -547 150
-99 19 -370 36 -555 35 -130 0 -130 0 -20 -29z"/>
<path d="M4330 7568 c-52 -5 -119 -7 -148 -6 -28 2 -52 2 -52 1 0 -1 20 -13
45 -27 29 -15 95 -35 178 -51 175 -35 341 -79 431 -115 40 -16 156 -71 257
-124 175 -90 228 -110 434 -166 168 -45 386 -174 569 -336 86 -76 105 -88 148
-95 27 -4 68 -18 92 -29 97 -49 294 -258 493 -525 138 -184 217 -285 221 -280
2 2 -33 78 -77 168 -156 317 -347 589 -496 707 -128 101 -554 377 -665 432
-63 31 -203 86 -310 123 -248 85 -337 127 -429 203 -60 49 -91 66 -155 86
-139 44 -313 55 -536 34z"/>
<path d="M5112 7568 c-26 -7 -33 -13 -30 -31 5 -38 65 -65 327 -151 141 -46
306 -105 366 -132 212 -95 484 -273 775 -508 74 -60 142 -114 150 -120 33 -24
-123 156 -235 272 -261 271 -517 448 -805 555 -101 37 -394 112 -470 120 -25
3 -60 0 -78 -5z"/>
<path d="M4055 7365 c-44 -7 -117 -24 -163 -39 -46 -14 -91 -26 -100 -27 -50
-2 83 -33 213 -50 569 -73 810 -175 1175 -497 64 -57 152 -123 198 -149 46
-27 141 -84 210 -127 70 -44 168 -101 218 -128 50 -26 115 -68 143 -94 66 -59
201 -214 388 -444 175 -215 221 -261 306 -299 69 -32 90 -53 197 -191 108
-140 178 -210 213 -210 28 0 28 0 8 21 -18 19 -84 209 -181 515 -48 152 -99
248 -217 406 -165 219 -418 505 -475 534 -37 19 -48 11 -48 -33 0 -52 50 -137
162 -275 365 -451 465 -615 418 -688 -16 -25 -38 -3 -154 156 -60 82 -182 239
-271 349 -195 241 -226 287 -266 391 -44 114 -68 151 -151 230 -177 168 -468
310 -515 252 -22 -26 9 -60 122 -135 175 -114 241 -162 305 -220 93 -85 136
-173 83 -173 -10 0 -61 32 -113 71 -52 39 -147 106 -210 148 -171 116 -217
155 -251 216 -42 74 -73 102 -194 174 -294 175 -485 251 -782 311 -114 23
-154 23 -268 5z"/>
<path d="M3755 7066 c-49 -18 -124 -50 -165 -70 -41 -20 -81 -36 -89 -36 -7 0
4 -14 25 -31 39 -32 39 -32 264 -23 124 5 302 8 395 8 148 -1 183 -5 269 -27
131 -35 228 -81 271 -129 39 -42 46 -78 16 -78 -10 0 -47 13 -82 29 -124 58
-339 99 -459 87 -36 -3 -103 -19 -150 -35 -50 -18 -144 -38 -231 -50 -265 -38
-338 -67 -361 -144 -10 -34 -45 -74 -190 -218 -177 -176 -177 -176 -125 -164
29 7 156 64 283 127 322 160 412 179 660 139 90 -14 175 -21 277 -21 119 0
170 -5 264 -25 147 -31 199 -33 208 -5 24 76 -132 127 -490 160 -186 18 -245
36 -245 77 0 42 180 41 433 -2 119 -20 158 -23 194 -15 79 18 101 1 348 -270
77 -85 246 -260 376 -389 326 -325 472 -514 604 -786 120 -246 173 -489 191
-875 7 -164 21 -213 56 -208 80 11 107 291 62 638 -38 294 -95 451 -246 681
-150 227 -299 401 -525 615 -225 213 -260 249 -283 287 -23 37 -26 85 -6 93
21 8 380 -289 521 -431 196 -197 491 -582 574 -750 46 -92 52 -115 82 -330 18
-128 23 -207 24 -390 0 -266 -9 -322 -80 -489 -44 -103 -56 -142 -144 -468
-28 -103 -78 -262 -111 -353 -88 -241 -110 -356 -76 -384 24 -20 50 2 110 93
90 134 132 238 221 551 46 160 107 348 135 419 79 197 89 256 102 586 11 285
11 285 -16 419 -22 104 -25 139 -17 158 26 57 78 6 179 -180 43 -79 68 -113
102 -139 24 -18 68 -67 97 -107 29 -41 53 -69 53 -62 0 24 -42 210 -67 291
-47 159 -102 232 -274 362 -59 46 -308 322 -480 533 -224 276 -394 444 -577
569 -201 138 -240 158 -323 164 -65 4 -72 7 -131 57 -35 28 -124 107 -198 175
-173 158 -246 213 -346 261 -179 85 -460 139 -719 138 -88 0 -111 -4 -190 -33z"/>
<path d="M3344 6600 c-21 -10 -48 -25 -59 -35 -19 -16 -18 -16 24 -10 46 6
101 30 101 44 0 18 -28 19 -66 1z"/>
<path d="M4372 6341 c-44 -27 24 -67 365 -214 212 -92 339 -183 564 -407 370
-368 556 -711 644 -1185 87 -476 89 -724 5 -1056 -46 -184 -81 -239 -121 -190
-26 32 -25 101 6 289 50 306 53 486 10 788 -71 509 -269 907 -626 1263 -165
165 -302 263 -509 367 -77 38 -159 87 -190 114 -30 26 -82 63 -115 82 -33 19
-84 50 -114 69 -53 33 -57 34 -179 38 -146 4 -275 -11 -404 -45 -88 -24 -310
-110 -410 -160 -65 -33 -148 -121 -225 -239 -36 -55 -79 -120 -96 -145 -17
-26 -22 -38 -11 -28 11 9 35 23 54 32 19 9 67 41 105 71 81 64 242 146 400
203 173 62 237 76 361 76 106 1 112 0 147 -27 68 -51 198 -93 400 -127 65 -12
141 -30 170 -41 327 -128 676 -462 875 -840 118 -223 192 -473 222 -757 19
-168 7 -433 -25 -597 -14 -71 -36 -197 -50 -280 -14 -82 -33 -172 -41 -198 -9
-27 -51 -95 -97 -157 -45 -60 -118 -166 -161 -237 -122 -197 -239 -371 -297
-443 -29 -36 -67 -92 -84 -125 -30 -60 -30 -60 100 6 158 79 269 154 334 225
46 51 136 216 229 421 38 85 59 102 94 74 21 -18 23 -26 23 -118 0 -116 -21
-188 -95 -328 -75 -143 -77 -147 -98 -202 -20 -53 -20 -53 51 9 128 111 291
282 327 343 35 59 35 59 35 235 0 177 0 177 67 311 95 189 174 473 194 690 6
70 4 85 -26 169 -20 60 -37 136 -46 214 -29 240 -56 403 -84 513 -106 408
-349 773 -779 1168 -250 230 -333 284 -466 305 -38 6 -131 27 -205 45 -134 35
-203 42 -228 26z m-64 -214 c144 -51 199 -98 122 -105 -39 -3 -335 69 -352 86
-7 7 -3 17 12 32 20 20 30 22 84 17 33 -2 94 -16 134 -30z"/>
<path d="M3800 5904 c-103 -20 -453 -147 -555 -203 -43 -23 -76 -49 -87 -68
-18 -29 -18 -31 1 -54 19 -23 24 -24 113 -19 51 2 136 4 188 5 86 0 100 -3
145 -28 28 -15 84 -44 125 -64 41 -20 158 -76 260 -125 243 -117 356 -193 501
-338 168 -168 285 -355 353 -566 56 -173 68 -284 41 -384 -8 -30 -15 -68 -15
-84 0 -45 29 -154 57 -214 32 -67 137 -182 167 -181 27 0 120 128 152 209 112
275 44 764 -152 1105 -123 213 -319 428 -500 548 -193 128 -469 240 -598 241
-132 2 -85 -51 126 -143 303 -132 478 -251 643 -439 280 -318 413 -702 384
-1114 -9 -129 -23 -194 -46 -220 -45 -50 -56 -5 -64 262 -8 251 -18 324 -70
486 -100 314 -347 623 -639 801 -97 59 -537 278 -597 298 -45 14 -53 20 -53
41 0 33 41 52 137 63 43 5 96 19 118 30 68 36 164 25 365 -41 218 -71 408
-183 567 -333 324 -305 515 -695 552 -1130 21 -243 -20 -471 -109 -600 -33
-49 -88 -90 -133 -101 -39 -9 -61 -41 -103 -152 -69 -182 -164 -347 -288 -500
-63 -77 -76 -106 -76 -164 0 -120 -146 -260 -316 -302 -32 -8 -79 -21 -104
-29 -45 -15 -45 -15 -5 -21 22 -4 76 -13 120 -21 107 -20 157 -19 249 5 155
39 190 72 358 330 213 326 353 568 417 720 100 237 139 399 148 620 17 429
-112 843 -373 1196 -80 109 -241 272 -349 355 -184 139 -290 187 -614 271
-168 43 -212 51 -306 54 -60 1 -121 0 -135 -2z"/>
<path d="M3067 5390 c-20 -17 -58 -62 -84 -98 -25 -37 -55 -77 -66 -89 -19
-21 -19 -21 25 -6 23 8 69 17 100 20 75 7 84 -10 39 -73 -52 -71 -99 -184
-131 -312 -17 -66 -30 -123 -30 -128 0 -8 29 32 93 126 24 36 88 114 142 174
83 91 109 113 163 139 60 28 76 31 199 35 80 3 158 0 195 -7 263 -50 517 -214
693 -450 72 -95 170 -281 234 -441 72 -182 111 -238 149 -214 26 17 26 75 -2
185 -114 440 -378 770 -777 967 -245 120 -419 168 -668 182 -96 5 -188 12
-205 15 -25 5 -39 0 -69 -25z"/>
<path d="M3604 5020 c-23 -10 -77 -25 -120 -34 -43 -9 -106 -29 -140 -45 -70
-33 -178 -130 -224 -200 -75 -118 -78 -352 -6 -545 13 -34 29 -85 35 -113 17
-72 68 -127 145 -156 71 -27 89 -48 63 -74 -16 -16 -35 -18 -145 -16 -124 3
-126 2 -101 -15 15 -9 46 -32 70 -50 67 -51 134 -82 178 -82 96 0 306 111 390
206 164 186 156 445 -19 607 -188 175 -439 101 -440 -128 0 -130 105 -219 199
-170 32 16 41 33 41 75 0 41 -25 62 -65 54 -28 -5 -34 -3 -40 16 -9 28 21 71
57 84 62 22 145 -24 179 -99 60 -131 -25 -299 -164 -322 -45 -7 -145 37 -204
90 -114 103 -155 308 -91 449 72 158 218 227 374 180 256 -78 444 -325 444
-582 0 -211 -149 -430 -365 -535 -119 -58 -187 -70 -414 -74 -33 -1 -33 -1 20
-38 214 -147 232 -154 318 -130 155 43 279 113 381 215 121 121 248 352 257
465 10 120 -41 296 -129 445 -55 94 -197 228 -318 299 -119 70 -154 101 -144
127 6 15 14 17 47 12 160 -26 362 -161 486 -327 78 -103 157 -266 211 -434 23
-71 66 -175 95 -231 69 -131 88 -197 89 -309 0 -320 -227 -540 -731 -704 -133
-44 -173 -60 -173 -73 0 -4 8 -8 18 -8 11 0 53 -9 95 -20 42 -10 110 -22 150
-26 64 -6 82 -3 162 24 134 45 354 143 438 196 175 108 287 299 287 486 0 71
-35 230 -73 332 -14 36 -45 98 -70 139 -59 98 -93 167 -161 327 -117 275 -236
443 -408 572 -186 140 -366 193 -484 140z"/>
<path d="M6803 4643 c-16 -24 -18 -50 -15 -245 4 -230 -10 -431 -34 -487 -8
-18 -30 -51 -48 -72 -19 -21 -41 -50 -49 -66 -49 -95 -218 -773 -193 -773 7 0
152 349 189 455 19 55 47 143 62 195 32 111 62 170 86 170 9 0 28 -13 42 -29
24 -30 24 -30 30 77 4 59 13 161 21 227 18 141 21 403 5 474 -11 54 -42 101
-64 101 -8 0 -23 -12 -32 -27z"/>
<path d="M3037 4089 c18 -18 35 -31 37 -28 3 3 -12 18 -32 33 -37 29 -37 29
-5 -5z"/>
<path d="M4303 3848 c-12 -13 -39 -65 -62 -116 -75 -174 -163 -280 -314 -379
-88 -58 -173 -96 -319 -143 -116 -38 -185 -75 -157 -84 8 -3 50 -17 94 -32 44
-14 108 -29 142 -32 54 -4 74 0 145 28 310 123 495 296 553 516 27 105 15 233
-25 254 -27 14 -34 13 -57 -12z"/>
<path d="M4350 2769 c-91 -33 -214 -74 -273 -90 -60 -16 -125 -38 -145 -48
-36 -18 -36 -18 29 -30 143 -24 236 -33 315 -29 73 4 94 9 171 48 95 47 193
133 193 169 0 11 -9 25 -19 31 -41 21 -106 9 -271 -51z"/>
</g>
</svg>
