<?xml version="1.0" standalone="no"?>
<!DOCTYPE svg PUBLIC "-//W3C//DTD SVG 20010904//EN"
 "http://www.w3.org/TR/2001/REC-SVG-20010904/DTD/svg10.dtd">
<svg version="1.0" xmlns="http://www.w3.org/2000/svg"
 width="1000.000000pt" height="1000.000000pt" viewBox="0 0 1000.000000 1000.000000"
 preserveAspectRatio="xMidYMid meet">
<metadata>
  <rdf:RDF
    xmlns:rdf = "http://www.w3.org/1999/02/22-rdf-syntax-ns#"
    xmlns:rdfs = "http://www.w3.org/2000/01/rdf-schema#"
    xmlns:dc = "http://purl.org/dc/elements/1.1/"
    xmlns:cc = "http://creativecommons.org/ns#">
    <cc:license rdf:resource="http://creativecommons.org/publicdomain/zero/1.0/deed.en"/>
    <cc:permits rdf:resource="http://creativecommons.org/ns#Reproduction"/>
    <rdf:Description about="https://nft.mir.one/fingerprints"
      dc:title="TON Fingerprints"
      dc:description="This is a unique digital fingerprint created based on the algorithm for generating basic rings using a noise texture. Like human fingerprints, you can now use it for the Web3 and Metaverse era as digital biometric information."
      dc:publisher="https://nft.mir.one"
      dc:date="2022-02-22"
      dc:format="image/svg+xml"
      dc:language="en" >
      <dc:creator>
      <rdf:Bag>
        <rdf:li>EQBondcvD2_aOFADXSWJHs4ZazQDuEl9_wNvGGPxI8hGuOFU</rdf:li>
        <rdf:li>ipfs://bafkreihj7iub3fhmhq6jn62noukt5wxn3gv6bvcg7wmt6ywvlurefezckq</rdf:li>
      </rdf:Bag>
      </dc:creator>
    </rdf:Description>
  </rdf:RDF>
</metadata>
<rect width="100%" height="100%" fill="#1b1f23"/>
<g transform="translate(0.000000,1000.000000) scale(0.100000,-0.100000)"
fill="#ffffff" stroke="none">
<path d="M4780 7791 c-19 -7 -8 -9 45 -10 39 -1 158 -10 265 -21 221 -23 242
-24 220 -10 -45 26 -477 59 -530 41z"/>
<path d="M4628 7783 c7 -3 16 -2 19 1 4 3 -2 6 -13 5 -11 0 -14 -3 -6 -6z"/>
<path d="M4835 7603 c-335 -20 -655 -116 -905 -270 -72 -45 -300 -202 -300
-207 0 -5 189 64 306 112 314 129 619 184 1137 203 323 12 446 4 602 -36 225
-59 373 -147 655 -391 63 -55 151 -124 195 -154 80 -54 80 -54 -80 115 -336
354 -509 481 -780 573 -165 57 -210 62 -508 60 -150 -1 -294 -3 -322 -5z"/>
<path d="M4930 7283 c-392 -28 -916 -157 -1136 -279 -144 -79 -310 -227 -476
-424 -94 -110 -114 -140 -88 -123 82 49 99 61 170 114 208 153 430 262 695
339 90 26 226 57 663 151 134 28 291 41 417 34 253 -16 598 -97 765 -180 207
-104 457 -345 594 -572 150 -251 230 -587 185 -783 -15 -66 -76 -187 -169
-335 -45 -71 -152 -269 -238 -438 -143 -282 -162 -314 -218 -371 -103 -105
-223 -172 -291 -164 -48 5 -32 30 60 92 164 109 284 253 244 293 -23 24 -49 9
-154 -88 -54 -50 -136 -119 -183 -155 -93 -70 -144 -87 -260 -88 -79 -1 -89
16 -38 72 18 20 55 77 82 127 75 139 173 284 235 350 109 115 136 190 129 354
-6 123 -32 212 -104 357 -114 229 -286 395 -541 523 -190 95 -324 133 -468
133 -115 0 -178 -22 -288 -98 -222 -155 -377 -315 -471 -486 -76 -137 -93
-234 -71 -400 8 -62 15 -113 15 -114 0 0 16 -18 35 -40 27 -29 43 -65 66 -139
17 -55 49 -152 71 -215 22 -63 42 -125 45 -137 7 -31 -20 -40 -53 -18 -61 39
-116 171 -149 355 -26 146 -56 174 -91 84 -14 -36 -16 -64 -11 -142 10 -166
53 -282 149 -405 117 -149 177 -229 255 -343 45 -65 132 -177 193 -249 74 -87
122 -153 144 -200 48 -102 116 -154 256 -200 64 -21 176 -24 235 -5 26 8 132
14 310 16 288 4 378 15 513 60 132 44 187 78 248 153 31 38 121 123 200 190
203 174 318 300 393 433 58 102 64 178 16 178 -25 0 -47 -23 -194 -205 -144
-181 -398 -404 -569 -501 -188 -108 -441 -141 -572 -74 -43 22 -73 62 -68 93
3 22 5 22 153 19 112 -3 170 0 230 13 253 53 482 213 759 533 100 116 147 161
203 195 105 66 175 240 204 512 14 130 6 246 -20 332 -11 33 -27 119 -36 190
-71 563 -274 975 -625 1274 -351 299 -675 413 -1159 407 -80 -1 -166 -3 -191
-5z m129 -1313 c212 -51 430 -198 557 -375 84 -117 145 -272 159 -407 12 -108
-27 -258 -66 -258 -23 0 -27 14 -39 152 -17 200 -83 356 -203 484 -106 114
-210 179 -357 225 -107 34 -256 34 -359 0 -133 -44 -270 -152 -348 -276 -17
-27 -44 -86 -59 -130 -38 -108 -40 -269 -5 -425 35 -162 87 -312 129 -374 48
-70 94 -107 216 -168 127 -64 245 -102 382 -123 95 -15 123 -25 225 -76 141
-71 168 -78 339 -85 222 -11 321 16 472 128 101 75 185 175 329 391 122 183
213 356 294 557 67 165 92 201 126 179 46 -28 -27 -339 -126 -539 -52 -103
-247 -361 -406 -534 -117 -128 -287 -241 -431 -285 -129 -39 -445 -55 -558
-27 -94 22 -488 185 -637 262 -99 51 -154 74 -178 74 -73 0 -52 -54 59 -157
90 -82 193 -145 347 -211 213 -92 313 -153 358 -218 34 -49 25 -69 -29 -68
-34 0 -61 10 -112 42 -101 62 -174 97 -288 136 -148 52 -193 80 -296 181 -103
103 -144 172 -144 245 0 38 -7 57 -39 101 -69 97 -81 130 -81 218 0 65 -11
122 -56 298 -86 332 -86 470 1 642 101 202 301 370 505 425 80 22 219 20 319
-4z m14 -365 c104 -22 200 -77 288 -165 125 -125 185 -277 196 -496 7 -128 -2
-164 -74 -307 -94 -189 -174 -288 -213 -267 -37 20 -25 66 49 195 110 193 141
303 121 441 -32 237 -179 408 -383 445 -168 31 -325 -51 -400 -209 -30 -62
-32 -74 -32 -172 1 -128 23 -193 92 -270 78 -87 176 -123 272 -100 157 37 249
232 167 353 -49 72 -122 95 -183 57 -37 -22 -51 -60 -34 -97 10 -22 16 -25 48
-20 65 11 83 -28 38 -81 -80 -96 -235 0 -235 145 0 74 55 159 124 192 137 64
306 -18 367 -178 17 -46 20 -72 17 -147 -3 -81 -8 -100 -40 -166 -42 -84 -115
-165 -179 -200 -37 -19 -59 -23 -134 -23 -83 0 -96 3 -165 36 -179 86 -282
252 -297 483 -11 172 37 312 142 418 124 123 279 169 448 133z m-128 -1915
c123 -59 162 -88 152 -115 -8 -19 -28 -19 -100 0 -139 36 -295 155 -234 178
22 9 61 -4 182 -63z"/>
<path d="M4883 6926 c-72 -17 -91 -26 -155 -77 -52 -41 -40 -38 -273 -60 -290
-26 -564 -98 -762 -197 -111 -57 -268 -169 -337 -243 -114 -120 -218 -289
-343 -559 -44 -94 -44 -94 12 -33 30 34 75 88 99 120 175 231 441 463 642 559
96 46 104 48 397 85 190 24 227 22 381 -21 56 -15 146 -38 201 -50 254 -56
338 -89 590 -234 217 -124 253 -148 325 -219 161 -158 275 -351 360 -612 24
-73 34 -125 38 -192 8 -164 -39 -266 -203 -443 -109 -118 -223 -264 -231 -297
-8 -31 8 -47 39 -39 14 3 87 65 163 137 76 71 168 150 204 174 36 23 80 59 98
79 61 70 136 247 148 351 6 48 3 58 -56 170 -34 66 -87 180 -117 255 -116 285
-199 415 -385 606 -110 113 -128 135 -128 163 0 43 -21 80 -69 124 -57 51
-111 66 -168 45 -45 -16 -46 -16 -132 17 -47 18 -146 50 -219 70 -150 43 -231
85 -246 128 -15 42 4 49 104 42 216 -15 496 -73 605 -125 88 -42 131 -84 312
-302 260 -314 328 -428 423 -714 55 -163 90 -224 123 -211 14 5 17 22 17 96 0
213 -79 444 -228 667 -69 102 -143 191 -299 356 -117 124 -141 163 -119 194
13 16 16 16 59 -10 144 -83 359 -299 476 -477 127 -192 198 -384 208 -564 7
-126 -7 -198 -51 -260 -28 -39 -33 -52 -26 -76 12 -42 19 -49 45 -49 36 0 79
42 118 118 83 158 89 357 16 582 -33 102 -123 276 -197 379 -123 174 -330 360
-469 424 -39 17 -67 22 -148 22 -87 1 -116 6 -218 38 -66 20 -158 44 -205 53
-125 22 -342 27 -419 10z m575 -529 c56 -38 102 -73 102 -78 0 -5 -10 -13 -21
-20 -40 -21 -163 35 -204 93 -15 23 -20 69 -9 81 8 8 3 10 132 -76z"/>
<path d="M3886 6355 c-230 -94 -651 -497 -765 -730 -75 -156 -137 -387 -160
-597 -15 -138 -13 -350 4 -428 8 -36 34 -158 59 -272 70 -318 118 -475 217
-706 160 -374 477 -841 706 -1039 69 -60 204 -158 248 -180 43 -22 30 -12 -60
48 -100 67 -233 200 -304 304 -30 44 -96 141 -146 215 -183 269 -346 567 -439
804 -55 138 -101 297 -182 631 -57 233 -59 244 -59 375 1 260 86 529 242 764
79 119 357 408 548 569 153 130 225 200 225 220 0 22 -28 47 -53 47 -12 0 -49
-11 -81 -25z"/>
<path d="M4320 6366 c-30 -7 -73 -22 -96 -33 -23 -13 -163 -146 -340 -325
-164 -167 -333 -331 -375 -364 -89 -73 -132 -123 -199 -234 -126 -210 -194
-507 -170 -742 5 -56 24 -169 41 -252 124 -600 295 -959 716 -1493 174 -222
282 -317 468 -411 79 -40 242 -107 320 -132 61 -19 115 -49 141 -77 29 -31 68
-40 209 -48 116 -8 285 5 409 30 77 16 297 77 293 81 -2 2 -43 -4 -92 -12 -50
-8 -180 -17 -290 -21 -269 -8 -321 2 -510 96 -77 39 -200 97 -273 130 -206 93
-345 184 -403 264 -30 42 -38 94 -16 103 7 2 58 -26 112 -62 229 -154 663
-333 879 -363 248 -35 432 4 814 170 173 75 412 193 412 203 0 3 -19 0 -168
-29 -94 -19 -166 -9 -198 26 -9 10 -22 19 -28 19 -6 0 -83 -36 -171 -80 -222
-111 -280 -125 -510 -124 -149 0 -196 4 -272 22 -179 42 -295 84 -610 221
-118 51 -155 63 -215 68 -92 7 -123 25 -249 153 -338 343 -561 827 -645 1400
-29 202 -12 415 48 600 46 145 161 335 218 365 39 20 47 19 55 -6 5 -15 -15
-67 -69 -177 -118 -246 -154 -401 -143 -632 13 -267 105 -642 218 -879 126
-267 315 -504 499 -626 73 -49 362 -174 577 -251 277 -99 517 -137 720 -114
126 14 193 33 233 66 37 32 38 58 4 81 -23 14 -58 17 -248 19 -237 2 -366 16
-530 59 -181 47 -432 146 -581 229 -260 146 -495 426 -598 712 -29 81 -120
471 -138 589 -6 44 -11 134 -12 200 0 217 50 393 148 528 45 61 59 92 79 166
32 119 60 177 137 285 74 104 295 331 389 401 139 103 173 152 133 187 -27 23
-62 27 -123 14z"/>
<path d="M3760 5238 c-56 -91 -94 -294 -87 -463 5 -132 19 -208 72 -395 22
-78 35 -146 35 -183 0 -77 15 -135 60 -233 149 -322 421 -551 845 -709 217
-81 374 -107 770 -127 397 -20 359 -25 580 69 105 45 247 104 317 133 70 29
149 66 174 83 71 47 190 169 287 295 86 111 87 113 47 90 -22 -13 -72 -48
-110 -80 -161 -131 -277 -192 -441 -234 -55 -14 -173 -49 -262 -78 -244 -80
-248 -81 -677 -81 -422 0 -455 5 -630 80 -47 20 -123 52 -170 71 -107 43 -136
59 -181 99 -20 18 -64 47 -99 66 -107 57 -233 196 -338 374 -40 68 -72 144
-72 171 0 8 10 14 23 14 29 0 76 -49 162 -170 132 -185 236 -296 300 -320 46
-17 65 -13 65 15 0 38 -24 79 -114 195 -45 58 -116 150 -158 205 -42 55 -107
135 -146 177 -83 91 -112 138 -152 247 -62 169 -75 365 -34 516 20 77 23 167
5 189 -21 25 -49 19 -71 -16z"/>
<path d="M7041 4656 c-18 -44 -46 -128 -63 -186 -35 -126 -72 -207 -135 -291
-109 -149 -221 -258 -432 -417 -62 -47 -118 -96 -123 -108 -14 -30 4 -54 41
-54 62 0 268 126 374 228 100 98 221 303 277 470 28 85 103 418 98 432 -2 4
-18 -29 -37 -74z"/>
<path d="M4444 3685 c-10 -24 17 -66 50 -80 57 -24 80 9 38 55 -34 36 -79 50
-88 25z"/>
<path d="M6655 3325 c-16 -8 -122 -55 -235 -105 -296 -132 -350 -160 -391
-201 -36 -36 -52 -77 -39 -100 13 -19 141 15 232 63 127 66 251 159 458 345
18 16 14 16 -25 -2z"/>
<path d="M4230 2385 c0 -7 121 -67 126 -63 2 2 -26 18 -61 36 -36 17 -65 30
-65 27z"/>
<path d="M4776 2245 c-11 -8 -43 -16 -70 -17 -47 -1 -48 -2 -11 -5 53 -6 102
4 109 22 7 19 -3 19 -28 0z"/>
<path d="M4618 2233 c7 -3 16 -2 19 1 4 3 -2 6 -13 5 -11 0 -14 -3 -6 -6z"/>
</g>
</svg>
