<?xml version="1.0" standalone="no"?>
<!DOCTYPE svg PUBLIC "-//W3C//DTD SVG 20010904//EN"
 "http://www.w3.org/TR/2001/REC-SVG-20010904/DTD/svg10.dtd">
<svg version="1.0" xmlns="http://www.w3.org/2000/svg"
 width="1000.000000pt" height="1000.000000pt" viewBox="0 0 1000.000000 1000.000000"
 preserveAspectRatio="xMidYMid meet">
<metadata>
  <rdf:RDF
    xmlns:rdf = "http://www.w3.org/1999/02/22-rdf-syntax-ns#"
    xmlns:rdfs = "http://www.w3.org/2000/01/rdf-schema#"
    xmlns:dc = "http://purl.org/dc/elements/1.1/"
    xmlns:cc = "http://creativecommons.org/ns#">
    <cc:license rdf:resource="http://creativecommons.org/publicdomain/zero/1.0/deed.en"/>
    <cc:permits rdf:resource="http://creativecommons.org/ns#Reproduction"/>
    <rdf:Description about="https://nft.mir.one/fingerprints"
      dc:title="TON Fingerprints"
      dc:description="This is a unique digital fingerprint created based on the algorithm for generating basic rings using a noise texture. Like human fingerprints, you can now use it for the Web3 and Metaverse era as digital biometric information."
      dc:publisher="https://nft.mir.one"
      dc:date="2022-02-22"
      dc:format="image/svg+xml"
      dc:language="en" >
      <dc:creator>
      <rdf:Bag>
        <rdf:li>EQBondcvD2_aOFADXSWJHs4ZazQDuEl9_wNvGGPxI8hGuOFU</rdf:li>
        <rdf:li>ipfs://bafkreihj7iub3fhmhq6jn62noukt5wxn3gv6bvcg7wmt6ywvlurefezckq</rdf:li>
      </rdf:Bag>
      </dc:creator>
    </rdf:Description>
  </rdf:RDF>
</metadata>
<rect width="100%" height="100%" fill="#1b1f23"/>
<g transform="translate(0.000000,1000.000000) scale(0.100000,-0.100000)"
fill="#ffffff" stroke="none">
<path d="M5330 7678 c-14 -6 -142 -14 -285 -19 -334 -10 -467 -32 -706 -115
-131 -45 -259 -106 -372 -178 -85 -53 -278 -195 -342 -251 -30 -26 -29 -26 30
4 362 184 496 242 687 297 214 61 388 91 701 119 98 9 229 25 290 36 111 20
248 21 472 4 54 -5 45 -1 -90 40 -240 73 -328 87 -385 63z"/>
<path d="M5310 7414 c-19 -2 -91 -9 -160 -14 -468 -40 -856 -141 -1199 -311
-196 -97 -336 -206 -491 -384 -123 -141 -224 -287 -329 -480 -33 -60 -33 -60
40 16 41 42 127 133 191 201 188 201 324 301 573 424 178 87 320 141 593 223
360 108 560 137 881 128 210 -6 323 -24 464 -71 209 -70 424 -214 688 -460 41
-39 100 -84 130 -100 54 -29 54 -29 3 25 -28 30 -89 101 -136 159 -153 187
-336 354 -517 472 -191 124 -328 167 -551 173 -80 2 -161 1 -180 -1z"/>
<path d="M4995 7045 c-115 -19 -176 -37 -306 -91 -59 -24 -180 -64 -269 -89
-347 -98 -583 -200 -740 -318 -182 -138 -382 -379 -475 -571 -84 -175 -161
-435 -205 -688 -98 -576 -6 -1182 265 -1745 85 -177 148 -285 296 -513 59 -91
112 -181 117 -200 7 -24 10 -28 11 -14 3 58 -47 170 -167 374 -154 262 -246
442 -311 609 -224 572 -249 1110 -75 1631 77 233 178 413 401 720 120 165 163
212 244 270 79 55 124 72 349 134 268 74 403 81 595 30 49 -13 153 -40 230
-58 212 -52 245 -67 318 -143 34 -36 129 -117 210 -181 306 -239 452 -419 558
-692 159 -405 112 -634 -215 -1045 -48 -60 -99 -131 -112 -157 -29 -57 -73
-92 -149 -118 -78 -27 -161 -25 -270 5 -50 14 -145 34 -212 45 -157 26 -254
57 -437 141 -217 100 -235 121 -280 334 -54 260 -55 416 -5 581 56 187 202
339 397 412 57 22 84 26 177 26 94 0 121 -4 190 -28 210 -72 385 -240 464
-446 16 -41 39 -124 50 -185 31 -159 60 -192 102 -115 20 36 17 209 -5 290
-91 343 -420 636 -764 681 -204 27 -420 -64 -597 -253 -113 -120 -171 -237
-196 -398 -16 -106 -6 -351 21 -465 11 -49 23 -118 27 -152 5 -55 3 -63 -12
-70 -49 -18 -120 132 -150 318 -21 134 -30 388 -16 478 23 146 85 261 213 396
144 151 335 277 471 311 139 34 327 5 485 -75 166 -84 355 -241 457 -381 60
-82 126 -214 157 -311 19 -61 23 -96 23 -199 0 -141 -9 -169 -75 -255 -22 -28
-57 -90 -79 -137 -54 -116 -92 -176 -173 -272 -85 -100 -104 -132 -87 -152 14
-17 52 -18 82 -3 36 18 77 61 77 80 0 10 3 25 7 34 5 15 8 15 24 -6 18 -24 18
-24 38 -4 11 11 60 83 109 160 182 287 212 361 220 532 5 131 -11 220 -65 358
-110 280 -300 491 -650 721 -181 119 -329 167 -523 167 -141 1 -177 -13 -242
-93 -24 -30 -96 -97 -159 -148 -245 -199 -395 -355 -455 -474 -55 -109 -71
-268 -35 -350 22 -48 32 -113 51 -327 13 -139 46 -267 92 -353 16 -31 64 -94
105 -140 79 -87 114 -136 206 -283 120 -193 335 -393 518 -480 185 -87 424
-110 459 -44 25 46 -24 82 -185 139 -237 83 -404 177 -542 305 -101 93 -140
185 -79 185 11 0 71 -33 131 -73 187 -125 271 -165 577 -276 155 -57 199 -86
248 -164 57 -91 116 -130 256 -168 66 -18 96 -21 194 -16 159 7 226 31 300
107 30 31 125 112 210 180 352 281 510 508 448 644 -9 22 -6 38 21 106 117
297 135 770 44 1155 -54 231 -146 447 -253 597 -104 145 -297 326 -481 451
-246 166 -439 216 -869 222 -173 3 -258 0 -325 -10z m520 -205 c103 -16 140
-18 178 -10 108 23 189 6 328 -71 124 -67 244 -163 400 -318 207 -207 302
-356 377 -592 105 -331 81 -742 -62 -1034 -51 -104 -189 -276 -376 -469 -180
-185 -312 -275 -545 -371 -49 -20 -117 -57 -149 -81 -61 -45 -83 -52 -117 -34
-34 19 -24 63 25 108 51 47 112 80 240 128 236 90 409 232 611 501 203 272
298 546 298 858 -2 416 -223 807 -632 1116 -211 159 -420 231 -386 133 11 -30
55 -68 216 -184 173 -125 359 -317 461 -476 129 -202 200 -456 178 -644 -11
-91 -107 -408 -160 -529 -62 -142 -142 -263 -264 -404 -144 -165 -323 -274
-365 -223 -10 11 2 25 61 74 244 199 426 482 473 738 21 107 15 159 -24 228
-16 28 -52 118 -81 200 -90 261 -179 412 -345 585 -118 122 -218 205 -373 307
-62 41 -116 82 -119 91 -4 9 1 22 13 30 66 49 290 -77 507 -287 240 -230 356
-428 432 -733 33 -132 43 -155 68 -163 49 -15 74 75 58 205 -32 263 -181 535
-420 763 -122 118 -370 306 -466 354 -78 38 -141 49 -493 79 -192 17 -248 29
-266 57 -23 37 42 70 172 89 97 13 404 2 547 -21z m1295 -2315 c0 -8 -33 -61
-72 -118 -130 -183 -392 -427 -602 -562 -160 -102 -374 -131 -446 -60 -15 15
-21 28 -15 33 6 5 54 16 108 25 235 41 443 168 687 421 269 280 265 276 304
276 25 0 36 -4 36 -15z"/>
<path d="M4260 6410 c-75 -27 -111 -55 -169 -131 -88 -115 -190 -199 -242
-199 -63 0 -41 44 80 165 83 81 98 114 64 133 -44 25 -171 -53 -233 -142 -16
-24 -39 -68 -50 -97 -31 -81 -42 -99 -190 -299 -152 -206 -204 -289 -250 -400
-202 -491 -157 -1143 122 -1755 44 -96 157 -304 246 -450 30 -49 95 -164 145
-255 49 -91 113 -199 141 -239 91 -134 222 -252 381 -345 155 -90 416 -173
467 -148 23 11 23 11 -2 11 -86 3 -291 90 -436 186 -92 61 -202 174 -253 259
-18 31 -53 112 -77 181 -56 159 -62 172 -212 405 -248 386 -335 575 -422 920
-118 467 -101 889 49 1196 57 115 107 168 179 186 37 9 49 19 84 72 85 126
144 190 268 286 69 54 161 130 205 169 44 40 123 101 175 136 119 80 148 109
134 133 -29 45 -113 54 -204 22z"/>
<path d="M4815 5562 c-169 -58 -297 -203 -340 -383 -32 -137 -13 -326 46 -457
85 -190 368 -316 534 -238 70 32 156 130 208 235 41 83 42 86 42 190 0 95 -3
112 -28 167 -111 240 -425 251 -493 18 -18 -62 -13 -106 17 -166 59 -116 236
-107 255 13 7 43 -23 77 -53 61 -23 -14 -53 3 -53 29 0 52 53 85 111 69 128
-37 146 -233 32 -346 -55 -55 -89 -69 -173 -69 -90 0 -135 21 -199 90 -70 77
-86 122 -86 250 0 101 2 115 29 170 73 149 225 230 384 205 176 -29 325 -185
367 -385 32 -152 18 -222 -87 -432 -85 -171 -92 -204 -46 -216 39 -11 69 16
139 118 120 175 167 297 154 398 -11 87 -46 228 -73 297 -71 184 -219 327
-391 380 -82 26 -225 27 -296 2z"/>
<path d="M3607 5511 c-65 -72 -144 -270 -173 -431 -45 -258 -23 -519 76 -890
76 -285 145 -448 266 -632 101 -155 339 -444 419 -510 148 -121 382 -267 590
-368 220 -106 325 -141 490 -161 187 -23 348 7 610 116 160 65 469 214 462
221 -2 3 -35 -1 -73 -7 -113 -18 -212 -22 -260 -10 -49 13 -37 16 -282 -88
-165 -69 -368 -79 -564 -27 -222 59 -728 284 -817 363 -35 32 -36 33 -16 49
29 23 85 11 260 -53 83 -30 236 -86 340 -123 105 -37 214 -77 244 -89 202 -81
495 -59 526 40 13 39 -8 44 -178 45 -89 1 -177 7 -196 12 -49 16 -81 40 -81
61 0 24 36 31 164 30 91 0 157 -6 312 -25 64 -8 97 8 179 86 76 73 116 93 355
175 107 37 217 79 244 93 67 36 205 169 307 295 46 56 74 95 63 86 -10 -9 -33
-24 -51 -33 -17 -8 -65 -40 -105 -69 -84 -60 -208 -127 -283 -152 -88 -29
-403 -79 -505 -79 -56 0 -164 11 -261 27 -151 24 -186 26 -410 24 -224 -2
-251 0 -331 20 -144 37 -241 79 -279 121 -19 20 -75 77 -125 127 -109 108
-189 199 -355 404 -185 228 -207 259 -248 341 -83 164 -111 302 -111 545 0
190 -9 238 -43 233 -73 -11 -116 -278 -83 -524 31 -233 125 -481 208 -546 66
-52 458 -454 481 -495 12 -20 -10 -43 -42 -43 -68 0 -185 102 -340 296 -91
115 -131 148 -153 126 -48 -48 55 -253 206 -411 158 -163 267 -218 606 -300
355 -86 336 -84 650 -76 375 9 519 -10 528 -72 5 -37 -30 -42 -276 -46 -214
-4 -232 -5 -307 -30 -44 -15 -102 -27 -128 -27 -68 0 -212 31 -419 90 -97 27
-223 59 -280 71 -128 26 -166 41 -249 95 -81 53 -237 214 -302 311 -64 97
-124 224 -141 303 -38 170 -69 295 -101 409 -52 186 -68 316 -62 506 5 178 21
253 82 401 41 99 52 167 33 203 -20 37 -32 35 -71 -8z m887 -1871 c8 0 25 -9
40 -21 21 -17 24 -24 15 -35 -15 -19 -59 -18 -87 2 -32 22 -28 72 6 59 7 -3
19 -5 26 -5z"/>
<path d="M7036 4460 c-27 -76 -138 -263 -202 -341 -101 -124 -222 -227 -452
-387 -94 -66 -113 -91 -91 -119 48 -57 349 102 463 246 138 173 220 333 281
552 28 100 29 127 1 49z"/>
<path d="M6620 3288 c-53 -16 -397 -157 -463 -190 -99 -49 -166 -123 -150
-164 5 -14 16 -16 63 -11 110 10 327 144 560 346 19 17 33 30 30 30 -3 -1 -21
-6 -40 -11z"/>
<path d="M4170 2922 c-37 -13 -35 -58 8 -132 77 -134 243 -257 499 -369 51
-22 121 -58 156 -80 35 -22 88 -46 118 -53 79 -19 361 -15 479 6 102 18 324
76 317 83 -3 2 -42 -1 -88 -7 -129 -16 -422 -13 -520 6 -112 21 -161 42 -388
168 -235 130 -330 192 -441 289 -94 82 -118 97 -140 89z"/>
</g>
</svg>
