<?xml version="1.0" standalone="no"?>
<!DOCTYPE svg PUBLIC "-//W3C//DTD SVG 20010904//EN"
 "http://www.w3.org/TR/2001/REC-SVG-20010904/DTD/svg10.dtd">
<svg version="1.0" xmlns="http://www.w3.org/2000/svg"
 width="1000.000000pt" height="1000.000000pt" viewBox="0 0 1000.000000 1000.000000"
 preserveAspectRatio="xMidYMid meet">
<metadata>
  <rdf:RDF
    xmlns:rdf = "http://www.w3.org/1999/02/22-rdf-syntax-ns#"
    xmlns:rdfs = "http://www.w3.org/2000/01/rdf-schema#"
    xmlns:dc = "http://purl.org/dc/elements/1.1/"
    xmlns:cc = "http://creativecommons.org/ns#">
    <cc:license rdf:resource="http://creativecommons.org/publicdomain/zero/1.0/deed.en"/>
    <cc:permits rdf:resource="http://creativecommons.org/ns#Reproduction"/>
    <rdf:Description about="https://nft.mir.one/fingerprints"
      dc:title="TON Fingerprints"
      dc:description="This is a unique digital fingerprint created based on the algorithm for generating basic rings using a noise texture. Like human fingerprints, you can now use it for the Web3 and Metaverse era as digital biometric information."
      dc:publisher="https://nft.mir.one"
      dc:date="2022-02-22"
      dc:format="image/svg+xml"
      dc:language="en" >
      <dc:creator>
      <rdf:Bag>
        <rdf:li>EQBondcvD2_aOFADXSWJHs4ZazQDuEl9_wNvGGPxI8hGuOFU</rdf:li>
        <rdf:li>ipfs://bafkreihj7iub3fhmhq6jn62noukt5wxn3gv6bvcg7wmt6ywvlurefezckq</rdf:li>
      </rdf:Bag>
      </dc:creator>
    </rdf:Description>
  </rdf:RDF>
</metadata>
<rect width="100%" height="100%" fill="#1b1f23"/>
<g transform="translate(0.000000,1000.000000) scale(0.100000,-0.100000)"
fill="#ffffff" stroke="none">
<path d="M5085 7683 c-116 -7 -253 -27 -450 -68 -115 -23 -231 -46 -256 -49
-131 -19 -391 -190 -667 -439 -140 -126 -333 -322 -278 -281 22 16 72 49 112
74 40 25 203 132 361 239 392 264 394 265 763 326 431 70 520 71 1055 10 72
-8 165 -16 209 -18 79 -4 79 -4 20 20 -127 52 -346 122 -455 147 -132 30 -303
46 -414 39z"/>
<path d="M4887 7359 c-363 -26 -573 -92 -667 -212 -43 -55 -54 -62 -255 -161
-115 -57 -251 -131 -301 -164 -158 -106 -444 -424 -444 -495 0 -20 0 -20 23 0
251 226 528 386 777 450 102 26 232 33 955 52 317 8 353 14 377 67 11 24 10
29 -15 50 -70 60 -294 83 -607 62 -291 -19 -399 -17 -433 5 -60 39 -26 66 133
101 245 54 552 71 726 41 97 -17 179 -50 234 -94 80 -64 128 -72 335 -56 110
8 110 8 220 -29 134 -45 345 -146 525 -251 74 -43 144 -78 155 -77 11 1 35 -3
53 -8 29 -8 17 8 -99 128 -166 171 -273 264 -414 357 -159 106 -307 176 -387
182 -55 5 -65 3 -81 -15 -18 -20 -18 -22 12 -66 33 -47 40 -90 17 -99 -21 -8
-65 26 -103 83 -24 36 -48 58 -78 71 -69 31 -242 68 -365 79 -125 11 -134 11
-293 -1z"/>
<path d="M5560 6782 c-63 -31 -65 -101 -6 -157 23 -21 76 -47 162 -79 328
-123 500 -247 713 -517 229 -292 280 -384 311 -563 35 -204 26 -296 -45 -495
-23 -66 -28 -98 -36 -265 -10 -213 -15 -238 -87 -417 -52 -131 -71 -165 -146
-261 -52 -68 -76 -127 -121 -303 -19 -71 -50 -185 -69 -253 -48 -167 -47 -243
3 -227 32 10 51 55 141 335 46 140 91 272 102 293 23 47 53 77 74 77 14 0 16
-8 11 -47 -8 -68 -69 -265 -132 -425 -30 -75 -57 -154 -61 -175 -11 -64 -30
-88 -89 -119 -45 -23 -70 -46 -121 -114 -51 -67 -64 -91 -62 -115 3 -25 8 -30
33 -33 40 -3 81 25 270 187 127 109 165 148 210 215 155 234 248 560 249 876
1 124 -2 155 -21 215 -37 113 -68 516 -44 554 14 22 40 5 58 -36 8 -21 35
-141 59 -266 24 -126 54 -268 69 -315 14 -48 25 -98 25 -111 0 -13 2 -22 4
-20 7 7 -13 435 -24 527 -7 48 -23 138 -36 200 -14 62 -24 132 -22 155 3 37 6
42 28 42 21 0 31 -13 69 -88 24 -48 46 -86 48 -83 7 6 -37 167 -64 235 -38 96
-93 280 -93 312 0 18 7 32 19 39 26 13 77 13 104 -2 12 -6 -4 16 -35 50 -31
34 -83 108 -114 164 -76 137 -103 176 -199 288 -102 119 -138 171 -181 266
-42 92 -103 156 -233 243 -262 174 -600 274 -721 213z m1200 -2478 c13 -40 6
-362 -11 -497 -24 -188 -112 -398 -208 -498 -59 -61 -97 -81 -107 -56 -3 9 19
55 49 106 101 167 171 368 170 491 0 36 -3 95 -8 131 -6 56 -3 86 20 185 30
129 48 174 69 174 8 0 20 -16 26 -36z"/>
<path d="M4550 6653 c-25 -2 -83 -8 -130 -14 -47 -5 -166 -14 -265 -19 -208
-10 -282 -28 -449 -112 -165 -83 -483 -285 -520 -332 -37 -46 -95 -144 -150
-253 -43 -87 -46 -100 -8 -46 15 22 70 80 123 129 79 74 121 103 250 174 380
208 558 285 649 278 34 -2 46 -7 48 -21 8 -39 -49 -75 -256 -163 -135 -58
-339 -167 -462 -249 -145 -96 -220 -185 -260 -309 -10 -32 -10 -40 3 -53 21
-21 44 -7 150 94 105 99 180 151 389 267 156 87 251 126 311 126 42 0 115 43
223 131 111 90 200 132 331 159 128 25 210 25 326 -1 154 -35 325 -16 464 52
78 37 92 60 69 104 -34 63 -47 65 -439 63 -194 -1 -372 -3 -397 -5z"/>
<path d="M6650 6378 c0 -52 125 -194 219 -250 34 -20 58 -31 54 -25 -43 70
-154 221 -186 255 -47 48 -87 57 -87 20z"/>
<path d="M5435 6340 c-17 -5 -41 -19 -53 -30 -48 -45 -20 -86 96 -144 48 -24
137 -76 197 -116 423 -278 622 -552 682 -935 24 -153 23 -512 -2 -690 -25
-179 -26 -264 -3 -279 65 -41 157 225 178 516 6 84 18 234 25 333 20 249 5
374 -62 544 -60 153 -177 318 -337 476 -152 151 -309 254 -471 310 -57 20
-205 29 -250 15z"/>
<path d="M4605 6295 c-108 -32 -164 -57 -243 -108 -109 -71 -167 -131 -302
-313 -284 -382 -454 -671 -530 -904 -114 -348 -100 -759 34 -1035 85 -176 299
-419 738 -840 173 -165 215 -192 320 -201 75 -6 131 16 136 54 5 34 -12 49
-122 104 -147 73 -284 177 -502 380 -150 140 -352 402 -419 543 -119 253 -144
559 -70 856 71 283 260 608 541 931 151 173 265 260 483 372 112 57 171 102
171 130 0 9 -9 25 -20 36 -28 28 -112 26 -215 -5z"/>
<path d="M5023 6136 c-48 -15 -316 -154 -418 -216 -157 -96 -290 -216 -445
-401 -298 -356 -431 -665 -433 -1004 -2 -364 124 -635 443 -956 202 -203 313
-283 602 -433 121 -62 132 -66 195 -66 136 0 252 50 396 170 171 143 296 309
435 580 97 188 128 284 144 440 34 343 -70 695 -262 880 -120 117 -252 171
-433 178 -149 6 -268 -19 -395 -83 -227 -114 -341 -278 -388 -561 -18 -105
-10 -203 21 -250 34 -52 75 -12 75 75 1 71 29 193 60 259 60 129 136 207 266
271 182 89 415 79 572 -25 184 -122 284 -306 312 -571 19 -184 -19 -371 -114
-568 -193 -395 -507 -611 -798 -551 -329 69 -699 378 -875 731 -161 321 -151
698 27 1008 118 207 405 520 585 640 194 128 398 206 550 210 44 1 135 -2 201
-7 119 -9 122 -8 133 12 22 41 -28 101 -147 181 -35 24 -78 49 -97 57 -42 17
-155 17 -212 0z"/>
<path d="M3900 6034 c-25 -14 -88 -57 -141 -95 -53 -38 -121 -78 -151 -88
-109 -38 -135 -56 -342 -240 -138 -124 -160 -161 -206 -351 -49 -207 -62 -309
-67 -555 -7 -319 16 -517 99 -828 35 -134 48 -151 19 -26 -40 174 -61 381 -61
590 0 385 114 800 280 1021 67 88 236 265 271 283 22 12 29 12 38 1 19 -22 -5
-67 -115 -218 -117 -162 -196 -307 -247 -454 -119 -343 -133 -773 -36 -1124
64 -230 126 -417 169 -505 126 -260 406 -549 607 -625 73 -28 165 -32 189 -8
24 24 12 42 -43 63 -239 89 -546 376 -665 620 -29 60 -38 90 -36 120 5 71 28
57 110 -67 142 -216 272 -353 492 -520 66 -51 136 -108 154 -127 27 -29 36
-34 50 -25 23 15 27 56 8 92 -9 17 -66 77 -128 134 -191 175 -330 318 -432
444 -64 80 -119 137 -161 167 -76 54 -106 106 -154 262 -56 185 -66 258 -65
500 0 190 3 234 22 324 52 237 122 405 269 641 49 80 112 185 139 233 27 49
88 137 137 195 48 59 90 117 93 129 16 63 -24 79 -96 37z"/>
<path d="M5462 5769 c-51 -19 -102 -27 -288 -49 -279 -32 -514 -149 -730 -365
-144 -144 -311 -333 -351 -399 -47 -76 -90 -216 -102 -328 -31 -310 85 -619
326 -862 139 -141 265 -223 423 -277 83 -28 108 -32 195 -32 76 0 116 6 165
22 239 81 427 310 503 611 27 109 29 285 4 380 -69 260 -255 420 -492 423
-101 1 -171 -16 -258 -61 -122 -63 -182 -158 -198 -314 -5 -51 -14 -118 -20
-149 -32 -162 126 -330 310 -329 56 0 164 37 223 76 59 40 91 103 84 167 -14
132 -123 208 -234 162 -72 -30 -110 -84 -92 -130 8 -22 14 -25 57 -22 47 2 48
1 51 -29 4 -43 -35 -74 -92 -74 -75 0 -136 61 -136 138 0 61 15 84 137 204
121 119 144 129 232 108 173 -41 282 -240 251 -459 -17 -125 -48 -240 -82
-303 -59 -111 -194 -210 -326 -237 -351 -73 -751 247 -874 697 -29 108 -30
306 0 413 34 126 92 227 125 216 21 -7 19 -45 -9 -160 -23 -91 -28 -135 -28
-237 -1 -150 20 -236 90 -371 93 -179 210 -301 359 -375 152 -75 298 -79 431
-11 113 57 189 178 127 201 -9 4 -61 -15 -117 -41 -100 -47 -102 -48 -201 -48
-92 0 -105 3 -168 32 -97 46 -182 132 -274 277 -108 171 -116 191 -121 321 -3
78 1 137 13 200 9 50 23 127 30 173 17 102 38 148 110 234 133 160 345 278
590 329 88 18 295 16 379 -5 308 -74 522 -367 582 -793 13 -93 15 -166 11
-343 -7 -291 -20 -347 -117 -490 -20 -30 -74 -125 -119 -210 -109 -205 -189
-323 -306 -450 -54 -58 -121 -134 -150 -170 -97 -120 -119 -132 -385 -211
-267 -79 -271 -80 -480 -89 -126 -5 -214 -13 -250 -24 -110 -32 -243 -15 -364
46 -95 48 -247 150 -332 223 -79 68 -79 68 11 -24 110 -113 224 -206 331 -271
106 -65 156 -86 294 -122 212 -55 477 -48 819 23 378 79 613 139 698 179 105
49 205 119 231 162 35 57 121 292 142 389 12 52 37 148 56 214 64 220 77 366
78 890 1 456 -1 486 -50 674 -75 291 -273 538 -528 662 -89 43 -117 46 -194
18z m-526 -1083 c22 -17 30 -6 -88 -115 -73 -66 -98 -76 -98 -37 0 40 60 119
110 144 52 26 51 26 76 8z m1164 -919 c0 -77 -112 -395 -198 -560 -66 -129
-149 -224 -242 -279 -74 -44 -144 -58 -167 -35 -24 24 -8 50 76 120 168 142
247 264 402 617 82 188 129 238 129 137z"/>
<path d="M2931 5484 c0 -11 3 -14 6 -6 3 7 2 16 -1 19 -3 4 -6 -2 -5 -13z"/>
<path d="M3131 3734 c0 -11 3 -14 6 -6 3 7 2 16 -1 19 -3 4 -6 -2 -5 -13z"/>
<path d="M3450 3096 c0 -2 8 -10 18 -17 15 -13 16 -12 3 4 -13 16 -21 21 -21
13z"/>
<path d="M6240 2798 c-30 -10 -71 -24 -90 -30 -19 -5 -109 -45 -200 -88 -198
-93 -289 -127 -478 -180 -252 -70 -573 -124 -812 -136 -111 -5 -352 -40 -300
-43 8 -1 76 -9 150 -18 208 -26 528 -24 695 6 350 62 585 161 958 404 175 114
182 122 77 85z"/>
</g>
</svg>
