<?xml version="1.0" standalone="no"?>
<!DOCTYPE svg PUBLIC "-//W3C//DTD SVG 20010904//EN"
 "http://www.w3.org/TR/2001/REC-SVG-20010904/DTD/svg10.dtd">
<svg version="1.0" xmlns="http://www.w3.org/2000/svg"
 width="1000.000000pt" height="1000.000000pt" viewBox="0 0 1000.000000 1000.000000"
 preserveAspectRatio="xMidYMid meet">
<metadata>
  <rdf:RDF
    xmlns:rdf = "http://www.w3.org/1999/02/22-rdf-syntax-ns#"
    xmlns:rdfs = "http://www.w3.org/2000/01/rdf-schema#"
    xmlns:dc = "http://purl.org/dc/elements/1.1/"
    xmlns:cc = "http://creativecommons.org/ns#">
    <cc:license rdf:resource="http://creativecommons.org/publicdomain/zero/1.0/deed.en"/>
    <cc:permits rdf:resource="http://creativecommons.org/ns#Reproduction"/>
    <rdf:Description about="https://nft.mir.one/fingerprints"
      dc:title="TON Fingerprints"
      dc:description="This is a unique digital fingerprint created based on the algorithm for generating basic rings using a noise texture. Like human fingerprints, you can now use it for the Web3 and Metaverse era as digital biometric information."
      dc:publisher="https://nft.mir.one"
      dc:date="2022-02-22"
      dc:format="image/svg+xml"
      dc:language="en" >
      <dc:creator>
      <rdf:Bag>
        <rdf:li>EQBondcvD2_aOFADXSWJHs4ZazQDuEl9_wNvGGPxI8hGuOFU</rdf:li>
        <rdf:li>ipfs://bafkreihj7iub3fhmhq6jn62noukt5wxn3gv6bvcg7wmt6ywvlurefezckq</rdf:li>
      </rdf:Bag>
      </dc:creator>
    </rdf:Description>
  </rdf:RDF>
</metadata>
<rect width="100%" height="100%" fill="#1b1f23"/>
<g transform="translate(0.000000,1000.000000) scale(0.100000,-0.100000)"
fill="#ffffff" stroke="none">
<path d="M4576 7649 c-112 -12 -169 -24 -341 -72 -150 -42 -150 -42 -80 -49
42 -5 115 -3 180 4 142 15 742 15 940 -1 258 -21 412 -49 605 -109 77 -25 209
-52 247 -52 12 0 -270 132 -347 163 -153 61 -321 97 -540 117 -133 12 -548 11
-664 -1z"/>
<path d="M4580 7399 c-128 -14 -325 -48 -399 -71 -36 -11 -99 -35 -139 -54
-63 -30 -75 -41 -96 -82 -30 -59 -55 -82 -181 -168 -166 -113 -323 -236 -434
-340 -20 -19 78 19 159 61 36 18 121 57 190 85 155 65 214 94 330 165 135 82
201 113 330 155 223 73 411 102 670 101 327 0 597 -55 828 -169 102 -50 321
-210 540 -394 189 -159 243 -199 344 -257 49 -28 92 -51 94 -51 10 0 -184 218
-306 344 -69 70 -181 177 -250 236 -69 59 -139 126 -157 148 -109 136 -415
247 -793 287 -149 16 -587 18 -730 4z"/>
<path d="M3745 7199 c-91 -52 -129 -79 -90 -65 11 4 59 21 107 37 105 34 151
56 143 69 -15 24 -74 8 -160 -41z"/>
<path d="M6190 7183 c0 -35 84 -102 225 -182 90 -51 90 -51 45 -9 -65 59 -204
170 -239 191 -30 18 -31 18 -31 0z"/>
<path d="M4873 7120 c-206 -20 -416 -92 -773 -266 -202 -98 -247 -116 -322
-129 -216 -38 -377 -150 -579 -402 -99 -124 -99 -124 -51 -97 26 15 76 49 112
75 213 154 482 313 522 307 71 -10 3 -86 -216 -243 -280 -200 -320 -238 -426
-411 -40 -66 -190 -373 -190 -390 0 -7 87 92 145 166 132 166 257 282 535 496
85 65 206 168 268 227 175 167 307 242 557 313 66 19 125 41 130 49 6 7 18 27
27 44 19 34 87 72 168 92 86 22 409 19 535 -5 323 -60 622 -218 873 -460 52
-50 114 -118 138 -151 73 -104 315 -604 368 -764 105 -316 119 -542 51 -829
-34 -143 -83 -232 -126 -232 -28 0 -29 11 -8 85 22 82 45 234 54 365 14 197
-30 460 -109 658 -61 151 -232 507 -279 579 -192 295 -563 536 -964 625 -83
19 -130 22 -308 23 -216 0 -334 -15 -381 -49 -18 -14 -18 -15 1 -36 38 -42 54
-44 305 -51 263 -7 327 -16 500 -71 245 -79 482 -226 647 -402 96 -103 140
-174 169 -274 12 -43 60 -151 106 -242 149 -292 161 -350 164 -806 1 -345 2
-353 24 -398 23 -45 23 -46 6 -108 -23 -82 -94 -264 -146 -373 -59 -123 -130
-195 -155 -156 -3 6 28 113 69 239 95 292 100 327 91 675 -3 150 -8 335 -9
412 -2 128 -5 148 -33 227 -66 187 -161 319 -295 409 -51 34 -129 90 -173 124
-248 192 -420 278 -791 395 -149 47 -197 72 -192 98 6 29 148 21 291 -16 277
-74 508 -194 728 -380 144 -121 172 -141 197 -142 32 0 38 24 16 73 -29 67
-220 250 -348 336 -308 205 -644 300 -911 258 -78 -13 -125 -14 -213 -8 -138
11 -233 1 -342 -35 -110 -37 -208 -97 -381 -236 -79 -63 -212 -167 -295 -231
-315 -244 -481 -419 -592 -624 -33 -61 -73 -130 -87 -153 -15 -23 -35 -62 -45
-86 -19 -43 -19 -43 18 -23 52 28 148 120 308 298 214 237 374 374 667 570 76
50 174 125 217 165 130 119 259 169 440 169 117 0 178 -17 320 -88 59 -30 173
-77 254 -105 81 -28 182 -64 224 -81 258 -102 608 -348 751 -529 110 -139 200
-351 160 -375 -17 -11 -47 24 -137 160 -138 211 -326 384 -572 524 -130 75
-243 121 -424 173 -83 24 -181 60 -237 89 -155 77 -207 92 -334 93 -176 2
-328 -45 -350 -108 -15 -45 13 -59 100 -52 198 17 331 18 404 2 68 -14 111
-37 111 -57 0 -22 -58 -33 -210 -41 -91 -4 -244 -12 -340 -17 -165 -8 -180
-10 -252 -40 -153 -64 -360 -210 -539 -380 -118 -111 -379 -399 -421 -465 -54
-83 -120 -331 -143 -536 -5 -45 -4 -51 6 -35 6 11 20 29 30 40 10 11 43 70 72
130 104 212 268 435 472 644 148 152 251 238 380 318 204 127 322 160 705 198
91 9 213 27 272 41 213 48 366 27 583 -82 246 -123 440 -297 642 -576 130
-180 154 -230 172 -363 9 -64 1 -191 -14 -215 -3 -5 -9 -69 -14 -143 -8 -123
-12 -143 -44 -214 -52 -114 -71 -298 -45 -424 10 -50 9 -72 -10 -167 -22 -114
-19 -165 13 -192 24 -20 57 -8 68 25 15 46 60 113 141 215 95 119 132 183 318
550 160 318 186 384 223 585 24 128 16 351 -18 495 -50 207 -132 410 -267 660
-44 80 -93 188 -110 239 -35 109 -69 159 -178 263 -178 170 -405 332 -584 418
-243 116 -602 177 -885 150z"/>
<path d="M6607 6353 c-18 -18 2 -64 102 -231 115 -192 183 -335 250 -522 50
-141 120 -319 121 -305 0 27 -113 452 -145 545 -104 298 -276 566 -328 513z"/>
<path d="M5066 5797 c-34 -25 -11 -53 72 -87 42 -18 107 -45 143 -61 340 -148
630 -443 785 -799 26 -60 58 -120 71 -132 22 -21 24 -21 41 -5 41 42 -3 225
-88 368 -208 345 -537 621 -849 713 -66 19 -151 21 -175 3z"/>
<path d="M4610 5729 c-407 -42 -679 -174 -970 -475 -241 -249 -430 -553 -491
-793 -72 -283 66 -859 289 -1207 56 -88 87 -119 182 -187 36 -26 101 -76 145
-112 103 -85 194 -129 320 -156 55 -11 179 -48 275 -81 469 -161 685 -198
1023 -177 281 17 437 55 657 161 69 33 135 60 148 60 30 1 25 28 -8 46 -31 16
-88 10 -275 -28 -325 -68 -490 -85 -724 -77 -297 11 -554 78 -1079 281 -213
82 -451 224 -540 320 -90 99 -174 289 -213 486 -99 493 63 982 456 1375 221
222 443 341 724 389 190 32 345 17 515 -51 224 -88 375 -182 516 -319 164
-159 263 -319 389 -629 84 -205 120 -257 162 -235 41 23 30 183 -20 280 -192
377 -278 509 -430 661 -137 136 -243 209 -451 311 -80 38 -168 87 -196 109
-76 58 -179 71 -404 48z"/>
<path d="M4595 5429 c-486 -70 -923 -500 -1056 -1039 -20 -83 -23 -120 -24
-285 0 -145 4 -209 18 -272 45 -208 117 -363 218 -464 62 -63 82 -75 310 -187
435 -214 742 -314 1054 -343 182 -17 341 -2 655 61 135 27 284 54 332 60 48 6
106 17 129 25 54 19 194 104 278 167 36 27 75 51 87 54 19 5 21 9 12 24 -9 14
-9 22 1 34 7 8 10 20 6 25 -10 18 20 63 87 129 63 64 63 64 3 38 -46 -20 -77
-44 -130 -101 -83 -89 -101 -96 -305 -131 -198 -34 -275 -53 -492 -123 -248
-80 -376 -104 -543 -104 -81 0 -164 7 -220 17 -144 28 -434 129 -591 206 -171
84 -247 149 -316 267 -55 94 -96 136 -129 131 -34 -4 -36 -46 -5 -124 28 -69
27 -84 -5 -84 -58 0 -112 79 -135 196 -8 44 -28 125 -44 181 -81 282 -64 557
50 816 127 291 371 529 638 622 233 81 458 67 687 -45 185 -90 331 -235 420
-415 61 -124 79 -199 79 -320 -1 -85 -6 -115 -32 -195 -64 -192 -161 -310
-316 -384 -126 -61 -214 -80 -356 -79 -202 1 -325 58 -488 224 -47 49 -95 92
-105 95 -29 9 -57 -23 -57 -66 0 -82 105 -227 223 -309 175 -120 362 -147 636
-91 377 77 490 174 595 513 20 65 48 139 62 165 31 56 28 100 -12 238 -118
409 -392 697 -787 829 -155 51 -288 65 -432 44z"/>
<path d="M4715 5144 c-70 -12 -155 -38 -223 -70 -245 -113 -448 -368 -522
-659 -60 -236 -37 -493 56 -622 59 -82 261 -296 324 -344 80 -62 248 -144 400
-198 63 -22 153 -56 200 -75 107 -44 209 -60 322 -52 175 13 309 63 490 181
120 79 194 146 207 188 5 18 12 61 16 97 3 36 13 117 21 180 23 173 24 383 1
442 -17 43 -66 98 -87 98 -20 0 -31 -46 -40 -153 -23 -282 -130 -506 -268
-565 -26 -11 -81 -22 -123 -26 -41 -4 -176 -27 -300 -52 -312 -64 -318 -65
-374 -58 -285 36 -590 290 -634 527 -8 44 -7 77 4 140 8 45 21 131 30 190 33
221 94 356 220 483 44 45 102 94 129 109 264 153 588 89 745 -146 181 -271 41
-608 -274 -662 -132 -23 -265 17 -420 124 -85 58 -105 56 -105 -11 0 -49 45
-116 113 -169 279 -215 698 -126 853 180 86 172 84 343 -7 529 -34 69 -59 102
-133 176 -102 101 -197 157 -326 193 -74 21 -236 34 -295 25z m824 -1718 c27
-33 -37 -92 -135 -125 -78 -26 -220 -43 -287 -35 -101 13 -146 48 -97 74 11 6
89 22 173 35 83 14 184 33 222 44 87 24 109 25 124 7z"/>
<path d="M7078 4938 c-36 -56 -62 -119 -98 -242 -21 -72 -52 -163 -69 -203
-47 -114 -186 -380 -311 -597 -124 -214 -191 -296 -298 -366 -59 -38 -66 -65
-22 -87 73 -37 179 4 313 122 47 41 97 77 112 81 48 12 118 99 210 259 28 49
27 48 -46 -30 -170 -184 -186 -198 -204 -191 -26 10 -13 57 42 151 174 296
257 516 324 855 23 113 47 220 55 238 15 37 12 41 -8 10z"/>
<path d="M4817 4850 c-62 -16 -138 -59 -192 -111 -106 -100 -154 -271 -104
-374 12 -26 22 -31 79 -40 36 -6 108 -29 160 -50 218 -88 399 -44 479 116 80
160 3 355 -172 434 -65 30 -183 42 -250 25z m234 -173 c102 -54 119 -188 33
-256 -38 -30 -84 -26 -167 13 -50 24 -78 44 -91 66 -49 85 33 198 145 200 20
0 56 -10 80 -23z"/>
<path d="M4994 4563 c-3 -10 -10 -28 -15 -41 -15 -38 -11 -62 11 -62 46 0 80
76 48 108 -17 17 -38 15 -44 -5z"/>
<path d="M4023 2674 c-18 -8 -16 -44 1 -44 8 0 100 -42 204 -93 369 -183 620
-245 932 -234 156 6 226 17 480 77 91 21 174 40 185 43 11 2 -7 7 -39 12 -42
5 -110 2 -225 -11 -218 -25 -516 -25 -651 0 -188 34 -314 72 -584 178 -173 67
-265 89 -303 72z"/>
</g>
</svg>
