<?xml version="1.0" standalone="no"?>
<!DOCTYPE svg PUBLIC "-//W3C//DTD SVG 20010904//EN"
 "http://www.w3.org/TR/2001/REC-SVG-20010904/DTD/svg10.dtd">
<svg version="1.0" xmlns="http://www.w3.org/2000/svg"
 width="1000.000000pt" height="1000.000000pt" viewBox="0 0 1000.000000 1000.000000"
 preserveAspectRatio="xMidYMid meet">
<metadata>
  <rdf:RDF
    xmlns:rdf = "http://www.w3.org/1999/02/22-rdf-syntax-ns#"
    xmlns:rdfs = "http://www.w3.org/2000/01/rdf-schema#"
    xmlns:dc = "http://purl.org/dc/elements/1.1/"
    xmlns:cc = "http://creativecommons.org/ns#">
    <cc:license rdf:resource="http://creativecommons.org/publicdomain/zero/1.0/deed.en"/>
    <cc:permits rdf:resource="http://creativecommons.org/ns#Reproduction"/>
    <rdf:Description about="https://nft.mir.one/fingerprints"
      dc:title="TON Fingerprints"
      dc:description="This is a unique digital fingerprint created based on the algorithm for generating basic rings using a noise texture. Like human fingerprints, you can now use it for the Web3 and Metaverse era as digital biometric information."
      dc:publisher="https://nft.mir.one"
      dc:date="2022-02-22"
      dc:format="image/svg+xml"
      dc:language="en" >
      <dc:creator>
      <rdf:Bag>
        <rdf:li>EQBondcvD2_aOFADXSWJHs4ZazQDuEl9_wNvGGPxI8hGuOFU</rdf:li>
        <rdf:li>ipfs://bafkreihj7iub3fhmhq6jn62noukt5wxn3gv6bvcg7wmt6ywvlurefezckq</rdf:li>
      </rdf:Bag>
      </dc:creator>
    </rdf:Description>
  </rdf:RDF>
</metadata>
<rect width="100%" height="100%" fill="#1b1f23"/>
<g transform="translate(0.000000,1000.000000) scale(0.100000,-0.100000)"
fill="#ffffff" stroke="none">
<path d="M4475 7683 c-66 -8 -124 -18 -128 -22 -4 -5 61 -13 145 -20 84 -6
202 -17 261 -22 60 -6 119 -8 133 -5 35 9 31 42 -8 63 -45 23 -245 27 -403 6z"/>
<path d="M5057 7669 c10 -36 75 -69 276 -138 400 -140 690 -294 963 -513 50
-40 136 -109 190 -152 54 -43 117 -95 138 -115 40 -36 40 -36 7 4 -364 437
-707 689 -1146 845 -126 44 -320 90 -381 90 -48 0 -52 -2 -47 -21z"/>
<path d="M4645 7500 c-318 -7 -384 -18 -649 -108 -168 -57 -168 -57 -120 -65
27 -4 107 -2 179 5 166 16 615 15 765 -1 157 -16 275 -44 443 -101 409 -140
697 -308 1115 -653 75 -62 176 -141 223 -174 87 -63 142 -116 194 -190 17 -23
53 -55 81 -71 50 -29 50 -29 5 49 -25 43 -66 115 -91 160 -28 52 -60 94 -89
118 -24 20 -115 106 -200 191 -353 352 -700 562 -1261 760 -203 72 -265 90
-300 88 -14 -1 -146 -5 -295 -8z"/>
<path d="M4090 7198 c-210 -21 -381 -110 -626 -325 -59 -52 -59 -52 6 -29 36
14 94 37 130 54 227 102 472 146 815 146 354 0 603 -49 926 -180 427 -172 879
-501 1082 -786 128 -179 245 -501 323 -888 68 -339 75 -422 49 -590 -29 -191
-90 -361 -190 -523 -34 -56 -124 -203 -199 -326 -75 -124 -171 -272 -211 -330
-41 -58 -98 -141 -127 -183 -54 -80 -72 -93 -83 -59 -14 44 15 105 160 346 57
94 138 236 182 317 77 144 101 180 183 283 79 97 152 283 185 468 24 135 17
267 -20 362 -14 38 -37 131 -51 206 -49 273 -137 535 -241 712 -298 508 -1061
952 -1768 1028 -146 15 -417 6 -565 -20 -193 -34 -395 -100 -490 -161 -65 -42
-235 -200 -330 -307 -81 -93 -81 -93 -23 -67 32 14 101 52 153 84 261 158 480
243 750 292 116 20 491 17 603 -5 316 -64 714 -227 974 -400 375 -251 598
-521 712 -862 71 -213 87 -372 52 -520 -11 -44 -29 -130 -40 -192 -25 -132
-42 -182 -81 -243 -41 -64 -59 -144 -69 -306 -8 -124 -13 -150 -46 -239 -41
-110 -101 -231 -228 -462 -46 -84 -94 -183 -107 -220 -29 -87 -37 -191 -18
-217 22 -29 71 -13 110 35 22 28 39 39 58 39 51 0 139 72 243 200 59 74 300
431 389 581 200 330 278 620 265 979 -8 232 -50 449 -147 760 -27 85 -62 206
-79 268 -16 62 -40 136 -54 165 -52 114 -210 275 -480 490 -442 352 -924 566
-1403 622 -144 17 -516 18 -674 3z m2513 -2401 c-2 -116 -22 -221 -69 -364
-63 -192 -128 -303 -155 -263 -16 24 -1 95 56 265 32 94 65 218 80 300 14 77
33 150 41 163 15 23 17 23 32 8 14 -14 17 -35 15 -109z"/>
<path d="M4263 6600 c-127 -11 -290 -43 -408 -82 -192 -63 -472 -216 -565
-309 -64 -64 -169 -223 -220 -333 -39 -83 -110 -255 -110 -264 0 -9 81 88 141
169 189 255 491 476 780 572 331 110 791 115 900 11 59 -57 32 -73 -98 -60
-170 16 -552 -18 -723 -65 -267 -73 -582 -311 -762 -578 -83 -122 -127 -234
-167 -431 -30 -145 -30 -174 -5 -178 34 -5 79 58 159 222 178 365 406 621 681
763 135 70 222 87 319 61 39 -11 62 -9 182 15 76 15 181 34 233 42 121 20 154
30 211 66 69 43 146 37 344 -28 215 -70 388 -173 600 -358 46 -41 111 -92 143
-114 140 -95 230 -238 289 -459 25 -91 26 -115 32 -405 5 -249 9 -309 20 -316
39 -24 57 16 82 184 27 174 35 383 19 482 -25 161 -101 352 -193 488 -86 126
-314 339 -496 464 -183 124 -326 193 -676 325 -287 107 -460 136 -712 116z"/>
<path d="M4740 6034 c-150 -23 -297 -62 -367 -95 -74 -35 -233 -160 -314 -245
-30 -32 -75 -93 -99 -134 -24 -41 -79 -129 -122 -194 -130 -197 -195 -356
-217 -535 -13 -104 -3 -137 55 -179 31 -23 71 -73 131 -165 127 -194 330 -387
492 -468 125 -63 324 -79 455 -39 61 19 80 32 150 99 45 42 108 96 141 118
153 105 293 294 356 483 42 125 49 263 24 438 -19 132 -15 172 14 172 21 0 49
-57 76 -155 22 -83 31 -304 15 -402 -30 -191 -144 -392 -330 -584 -65 -67 -68
-69 -117 -69 -58 0 -118 -33 -118 -65 0 -16 6 -20 34 -18 18 1 47 11 63 23 55
40 78 5 32 -50 -34 -40 -74 -59 -212 -104 -153 -49 -199 -53 -368 -27 -237 36
-382 88 -522 188 -165 118 -268 260 -348 481 -43 119 -51 132 -73 132 -42 0
-81 -81 -81 -168 0 -162 103 -368 258 -514 159 -149 328 -212 656 -244 142
-13 196 -28 196 -54 0 -29 -130 -60 -250 -60 -110 0 -381 30 -450 50 -228 67
-493 382 -561 665 -29 125 -23 300 16 430 133 448 391 859 689 1099 136 110
165 148 131 176 -22 18 -73 5 -172 -45 -112 -56 -205 -127 -313 -235 -146
-146 -224 -258 -376 -538 -53 -97 -114 -206 -135 -242 -70 -119 -82 -166 -82
-330 0 -279 72 -552 197 -739 66 -100 494 -524 640 -635 72 -54 176 -104 264
-127 109 -28 151 -25 230 15 37 18 121 52 187 75 225 79 460 207 613 335 87
72 155 147 237 261 162 226 249 475 166 475 -24 0 -50 -34 -130 -169 -179
-303 -320 -439 -636 -614 -352 -196 -603 -238 -807 -136 -32 16 -65 41 -74 55
-16 23 -16 26 -1 41 15 15 27 15 152 -2 226 -30 395 -2 521 87 32 23 117 70
188 105 257 127 327 186 490 414 49 68 126 174 171 234 46 61 90 124 99 142
51 100 79 368 57 534 -26 198 -63 285 -164 384 -39 40 -102 105 -138 146 -78
88 -150 132 -206 127 -53 -4 -56 -38 -8 -104 119 -164 132 -196 160 -381 19
-131 19 -263 0 -338 -33 -126 -172 -338 -282 -430 -32 -27 -99 -89 -150 -138
-127 -122 -173 -142 -318 -142 -127 0 -205 21 -232 62 -25 38 -6 43 152 41
152 -2 228 13 278 53 30 23 35 54 11 63 -9 3 -70 6 -137 6 -217 0 -353 16
-422 49 -73 34 -150 111 -211 207 -130 208 -122 417 23 616 46 63 107 106 233
161 199 87 320 114 439 97 241 -34 431 -300 431 -607 0 -43 4 -84 9 -91 16
-26 46 -8 71 43 22 44 25 62 24 150 -1 116 -28 241 -73 337 -44 96 -172 279
-217 310 -63 44 -151 61 -279 55 -133 -6 -203 -26 -374 -108 -133 -63 -191
-75 -191 -39 0 29 59 90 143 148 169 116 305 162 506 170 224 8 447 -29 574
-95 206 -109 400 -419 448 -718 16 -101 16 -371 0 -495 -7 -52 -12 -155 -12
-228 1 -123 -1 -140 -29 -225 -65 -193 -186 -382 -350 -548 -129 -131 -235
-206 -420 -299 -138 -69 -223 -100 -353 -130 -61 -14 -108 -30 -123 -44 -26
-21 -26 -21 -5 -47 11 -14 39 -31 63 -38 53 -16 179 -17 238 -1 58 16 448 220
526 275 92 66 168 139 239 229 176 227 301 476 340 678 35 182 42 646 14 858
-15 111 -52 243 -107 382 -27 68 -59 153 -71 191 -28 83 -89 165 -173 234
-238 193 -516 272 -798 227z"/>
<path d="M6826 5984 c-13 -35 -4 -81 54 -261 75 -231 101 -332 140 -548 66
-362 48 -619 -67 -915 -89 -230 -165 -365 -392 -700 -184 -271 -249 -345 -404
-459 -104 -77 -125 -104 -99 -133 26 -31 34 -27 237 108 115 77 175 154 398
519 185 304 296 590 352 910 67 385 19 884 -128 1338 -39 121 -55 157 -68 157
-9 0 -20 -7 -23 -16z"/>
<path d="M5826 5592 c-8 -23 2 -53 57 -187 93 -225 113 -339 128 -728 14 -376
-2 -530 -77 -737 -79 -220 -298 -585 -430 -715 -89 -88 -193 -151 -376 -227
-146 -61 -188 -87 -188 -119 0 -59 170 -49 384 22 123 41 219 93 288 157 50
47 70 78 148 231 50 97 131 253 180 346 153 291 192 409 212 650 10 121 9 153
-5 236 -10 53 -17 145 -17 205 0 157 -18 364 -39 464 -34 153 -110 320 -179
393 -30 32 -77 37 -86 9z"/>
<path d="M4490 5295 c-158 -43 -285 -141 -343 -262 -29 -63 -32 -76 -32 -168
0 -94 2 -105 33 -168 88 -178 256 -259 546 -261 147 -1 177 8 253 70 53 43
110 126 119 172 4 20 0 56 -9 90 -9 31 -24 95 -32 142 -32 169 -120 297 -249
360 -79 39 -197 49 -286 25z m226 -190 c70 -20 127 -73 166 -152 28 -58 33
-77 32 -143 0 -88 -15 -122 -74 -172 -71 -61 -159 -73 -273 -38 -79 25 -154
88 -187 157 -32 68 -26 162 16 229 31 51 103 107 158 123 48 14 107 13 162 -4z"/>
<path d="M4611 4934 c-24 -20 -31 -34 -31 -62 0 -62 11 -69 67 -49 60 21 63
21 63 -1 0 -23 -30 -52 -54 -52 -28 0 -32 -31 -7 -52 66 -52 161 13 161 110 0
106 -122 171 -199 106z"/>
<path d="M3115 3770 c302 -503 719 -930 1023 -1049 310 -122 888 -176 1317
-123 94 11 206 23 250 27 92 7 226 33 408 77 140 34 139 30 27 67 -14 5 -74
33 -134 62 -142 70 -164 70 -386 2 -246 -76 -360 -97 -515 -98 -109 0 -141 4
-199 23 -43 14 -116 26 -192 32 -151 13 -228 32 -420 105 -195 75 -359 159
-464 239 -98 74 -283 239 -486 435 -143 138 -246 228 -229 201z"/>
<path d="M6646 3308 c-20 -23 -36 -46 -36 -51 0 -6 1 -8 3 -6 1 2 20 25 41 52
46 58 41 62 -8 5z"/>
<path d="M6405 3013 c-49 -19 -122 -45 -162 -59 -79 -28 -106 -49 -82 -65 39
-25 107 0 249 92 58 38 101 68 95 68 -5 -1 -50 -17 -100 -36z"/>
<path d="M3960 2554 c0 -25 393 -160 572 -196 104 -21 140 -23 438 -23 358 0
402 4 700 70 88 19 174 35 192 36 28 1 25 3 -22 15 -70 19 -179 18 -455 -2
-368 -27 -799 -9 -1094 47 -58 11 -145 24 -194 29 -48 5 -96 14 -106 20 -22
11 -31 13 -31 4z"/>
</g>
</svg>
