<?xml version="1.0" standalone="no"?>
<!DOCTYPE svg PUBLIC "-//W3C//DTD SVG 20010904//EN"
 "http://www.w3.org/TR/2001/REC-SVG-20010904/DTD/svg10.dtd">
<svg version="1.0" xmlns="http://www.w3.org/2000/svg"
 width="1000.000000pt" height="1000.000000pt" viewBox="0 0 1000.000000 1000.000000"
 preserveAspectRatio="xMidYMid meet">
<metadata>
  <rdf:RDF
    xmlns:rdf = "http://www.w3.org/1999/02/22-rdf-syntax-ns#"
    xmlns:rdfs = "http://www.w3.org/2000/01/rdf-schema#"
    xmlns:dc = "http://purl.org/dc/elements/1.1/"
    xmlns:cc = "http://creativecommons.org/ns#">
    <cc:license rdf:resource="http://creativecommons.org/publicdomain/zero/1.0/deed.en"/>
    <cc:permits rdf:resource="http://creativecommons.org/ns#Reproduction"/>
    <rdf:Description about="https://nft.mir.one/fingerprints"
      dc:title="TON Fingerprints"
      dc:description="This is a unique digital fingerprint created based on the algorithm for generating basic rings using a noise texture. Like human fingerprints, you can now use it for the Web3 and Metaverse era as digital biometric information."
      dc:publisher="https://nft.mir.one"
      dc:date="2022-02-22"
      dc:format="image/svg+xml"
      dc:language="en" >
      <dc:creator>
      <rdf:Bag>
        <rdf:li>EQBondcvD2_aOFADXSWJHs4ZazQDuEl9_wNvGGPxI8hGuOFU</rdf:li>
        <rdf:li>ipfs://bafkreihj7iub3fhmhq6jn62noukt5wxn3gv6bvcg7wmt6ywvlurefezckq</rdf:li>
      </rdf:Bag>
      </dc:creator>
    </rdf:Description>
  </rdf:RDF>
</metadata>
<rect width="100%" height="100%" fill="#1b1f23"/>
<g transform="translate(0.000000,1000.000000) scale(0.100000,-0.100000)"
fill="#ffffff" stroke="none">
<path d="M4690 7695 c-8 -2 -91 -11 -185 -20 -93 -9 -177 -19 -185 -22 -23 -8
81 -40 152 -47 35 -4 187 -11 339 -16 388 -14 569 -41 794 -120 320 -113 664
-348 887 -605 75 -85 238 -324 282 -413 15 -30 30 -52 33 -49 13 13 -185 352
-285 486 -70 96 -253 284 -357 368 -304 245 -652 390 -1037 432 -86 10 -399
14 -438 6z"/>
<path d="M4231 7414 c-195 -41 -307 -95 -562 -271 -85 -59 -85 -59 -30 -55 31
2 98 17 149 33 166 52 254 63 507 64 127 0 296 -4 376 -9 146 -9 146 -9 205
27 73 45 123 56 240 57 329 1 646 -156 1004 -496 237 -226 414 -495 485 -739
20 -67 29 -129 36 -242 5 -83 23 -232 40 -330 50 -289 51 -564 2 -580 -26 -9
-44 48 -63 193 -24 175 -33 225 -67 359 -37 145 -65 200 -136 275 -35 36 -96
112 -137 170 -158 225 -282 354 -449 465 -111 73 -196 115 -361 175 -154 56
-361 160 -512 257 -166 107 -201 126 -283 155 -113 41 -198 53 -365 52 -215 0
-395 -33 -540 -100 -84 -39 -109 -59 -153 -124 -17 -25 -76 -92 -131 -150
-108 -112 -231 -261 -310 -375 -27 -38 -64 -89 -82 -112 -34 -41 -34 -41 39
-2 40 22 115 76 167 120 232 195 444 361 498 388 79 40 128 52 257 61 60 5
159 14 219 21 200 23 269 7 681 -161 190 -77 243 -103 395 -197 36 -22 128
-68 205 -103 347 -155 422 -212 608 -457 204 -271 253 -383 338 -773 49 -228
53 -311 21 -436 -30 -111 -109 -356 -139 -429 -35 -85 -111 -206 -186 -300
-84 -104 -288 -302 -401 -390 -115 -89 -277 -186 -349 -209 -65 -20 -110 -15
-105 12 2 9 79 67 171 129 369 245 621 502 754 768 79 157 148 390 159 540 13
167 -74 504 -190 736 -148 297 -401 569 -529 569 -36 0 -67 -16 -67 -36 0 -8
49 -65 108 -127 214 -222 316 -387 457 -738 96 -241 110 -329 80 -505 -32
-181 -117 -386 -219 -528 -106 -147 -329 -357 -571 -538 -88 -66 -170 -132
-183 -146 -47 -55 -134 -196 -135 -221 -5 -66 171 -82 321 -29 277 99 655 416
899 756 89 124 121 195 139 304 9 59 31 131 58 198 24 58 64 157 90 220 25 63
69 160 96 215 64 129 74 188 67 404 -5 163 -60 640 -92 799 -98 487 -523 994
-1040 1242 -138 67 -208 92 -355 128 -104 25 -108 25 -585 28 -376 2 -494 -1
-544 -12z"/>
<path d="M4903 7123 c-56 -11 -33 -66 60 -142 37 -31 80 -74 96 -96 37 -51 92
-90 208 -149 139 -69 227 -96 318 -96 91 0 144 -23 274 -120 222 -164 383
-351 526 -610 65 -117 90 -150 116 -150 65 0 38 153 -61 350 -116 230 -266
404 -619 713 -206 181 -338 256 -510 293 -62 13 -351 18 -408 7z m419 -152
c184 -64 324 -168 302 -225 -9 -22 -27 -20 -87 10 -29 15 -131 62 -227 106
-96 43 -181 85 -188 92 -11 11 -10 16 4 31 15 14 29 16 78 12 34 -3 87 -15
118 -26z"/>
<path d="M3443 6781 c-26 -21 -68 -60 -93 -86 -45 -47 -45 -47 20 -12 73 40
135 88 150 117 18 35 -23 24 -77 -19z"/>
<path d="M3915 6510 c-61 -24 -314 -213 -426 -318 -96 -90 -126 -139 -140
-224 -5 -34 -43 -146 -84 -248 -82 -207 -113 -302 -150 -470 -15 -63 -40 -143
-57 -178 -42 -88 -54 -189 -40 -347 15 -154 39 -236 86 -284 25 -26 47 -68 76
-146 77 -203 129 -296 372 -665 137 -207 167 -246 256 -332 105 -101 266 -215
412 -292 92 -48 394 -171 475 -192 28 -8 76 -14 107 -14 98 0 344 -88 603
-216 185 -91 284 -112 450 -99 68 5 92 10 75 15 -58 17 -198 89 -234 120 -21
19 -49 50 -61 70 -18 28 -37 42 -83 59 -64 23 -122 68 -122 95 0 19 24 30 104
45 42 7 109 37 230 102 229 123 289 164 366 251 35 40 121 128 190 194 132
128 268 282 388 442 127 169 242 433 242 556 0 17 17 129 37 250 36 213 38
230 38 461 0 259 -6 317 -61 620 -19 105 -41 237 -49 295 -8 58 -21 125 -29
150 -9 25 -13 32 -9 15 4 -16 8 -93 9 -170 1 -98 11 -202 32 -349 46 -302 58
-486 43 -633 -13 -132 -26 -189 -78 -348 -45 -139 -55 -158 -115 -224 -88 -97
-178 -321 -138 -346 26 -16 66 34 130 160 68 135 93 161 106 109 18 -72 -51
-219 -156 -328 -42 -45 -116 -134 -164 -199 -120 -162 -241 -300 -391 -446
-214 -206 -335 -291 -581 -407 -63 -30 -134 -66 -157 -81 -79 -50 -186 -26
-286 65 -40 37 -51 42 -155 61 -61 11 -149 23 -196 26 -137 10 -218 25 -325
62 -235 82 -427 204 -597 380 -148 154 -307 383 -394 568 -80 169 -89 215
-114 545 -6 80 -18 195 -26 255 -30 225 -32 260 -23 350 24 233 178 663 278
776 43 49 110 84 142 74 27 -9 24 -26 -12 -71 -140 -176 -279 -624 -279 -898
0 -161 52 -593 89 -738 77 -302 311 -639 581 -837 342 -252 792 -300 1105
-119 168 98 279 184 505 391 263 242 295 280 381 461 75 158 103 273 103 433
1 119 -1 134 -20 160 -49 65 -65 36 -83 -147 -12 -126 -38 -232 -85 -347 -69
-167 -174 -310 -240 -327 -33 -8 -56 7 -41 28 144 191 229 385 280 640 14 71
37 155 52 188 24 54 25 62 14 114 -7 37 -46 123 -112 248 -112 211 -154 278
-258 411 -82 103 -111 157 -111 204 0 44 -41 81 -126 115 -107 43 -164 43
-344 3 -184 -42 -265 -72 -368 -140 -145 -94 -265 -235 -344 -403 -60 -128
-80 -218 -81 -359 -1 -144 11 -200 68 -320 54 -114 135 -198 235 -249 93 -46
161 -59 289 -54 133 6 199 30 275 99 209 191 232 507 49 680 -62 59 -134 94
-234 115 -147 31 -245 -18 -316 -156 -25 -49 -28 -65 -28 -150 0 -111 19 -163
80 -225 75 -75 184 -97 272 -54 57 27 86 70 91 133 6 77 -39 126 -96 105 -20
-8 -23 -15 -20 -56 3 -48 3 -48 -33 -51 -46 -4 -85 26 -100 78 -10 33 -9 47 5
85 46 119 208 130 304 21 117 -134 50 -360 -131 -441 -53 -25 -69 -27 -146
-23 -105 5 -177 35 -251 104 -94 88 -151 250 -136 386 20 175 82 286 260 464
146 146 190 174 320 200 156 32 293 -14 419 -140 125 -125 221 -283 246 -407
20 -95 -43 -444 -115 -636 -81 -218 -200 -413 -352 -578 -56 -60 -102 -113
-102 -116 0 -10 -231 -211 -283 -246 -70 -47 -143 -66 -256 -65 -372 3 -769
332 -936 776 -89 237 -137 640 -106 892 17 134 68 330 131 499 55 149 70 232
51 286 -14 41 -3 57 138 216 132 148 145 175 99 207 -28 20 -41 19 -103 -4z
m2006 -1412 c20 -48 14 -146 -16 -283 -39 -173 -77 -287 -157 -463 -64 -140
-71 -162 -70 -217 1 -71 0 -72 -126 -223 -100 -121 -202 -206 -329 -274 -84
-45 -122 -53 -148 -34 -20 14 -20 15 1 43 32 44 160 138 241 177 48 24 77 45
85 61 17 39 -1 50 -47 30 -26 -10 -42 -12 -49 -5 -16 16 23 49 71 62 56 14
128 92 177 192 189 391 259 595 291 851 10 78 24 115 45 115 10 0 23 -13 31
-32z m-2757 -70 c20 -31 33 -116 47 -296 12 -167 8 -229 -20 -264 -31 -38 -47
-11 -67 115 -18 114 -26 414 -12 450 10 24 35 21 52 -5z m1626 -2093 c9 -11
10 -19 3 -26 -14 -14 -53 6 -53 26 0 20 34 19 50 0z"/>
<path d="M4345 6489 c-88 -28 -139 -72 -243 -205 -117 -150 -160 -238 -256
-524 -105 -315 -121 -402 -121 -660 0 -174 4 -222 23 -319 63 -309 160 -501
351 -691 162 -161 315 -237 496 -247 142 -8 249 22 382 109 112 73 191 153
318 323 158 212 213 308 265 463 65 196 79 449 31 573 -54 140 -165 265 -290
327 -71 35 -80 37 -170 37 -80 0 -103 -4 -137 -22 -45 -24 -56 -40 -47 -71 6
-25 35 -37 132 -57 199 -40 341 -171 386 -356 14 -55 16 -96 12 -178 -10 -195
-82 -358 -221 -497 -98 -98 -108 -101 -342 -110 -137 -5 -182 -3 -237 10 -279
66 -472 331 -494 676 -22 363 171 759 469 961 128 87 220 118 448 148 57 7 79
15 92 32 24 29 23 36 -11 68 -58 54 -258 96 -378 80 -49 -7 -69 -18 -196 -115
-244 -184 -346 -300 -442 -499 -105 -217 -149 -405 -148 -630 1 -350 138 -644
374 -801 178 -118 378 -134 608 -48 84 32 101 31 101 -3 0 -57 -140 -151 -281
-189 -84 -22 -226 -22 -304 1 -122 35 -212 91 -320 200 -151 151 -234 310
-287 545 -20 91 -23 131 -22 295 0 158 4 208 23 295 33 155 93 328 166 475
110 223 232 354 426 455 107 57 137 87 118 121 -26 50 -163 64 -274 28z"/>
<path d="M6811 6385 c0 -5 8 -26 19 -45 11 -19 19 -30 19 -25 0 6 -8 26 -19
45 -11 19 -19 31 -19 25z"/>
<path d="M6850 6295 c0 -5 5 -17 10 -25 5 -8 10 -10 10 -5 0 6 -5 17 -10 25
-5 8 -10 11 -10 5z"/>
<path d="M3189 5989 c-56 -60 -134 -236 -183 -409 -25 -90 -96 -393 -96 -408
0 -17 77 165 121 288 27 74 89 218 140 320 92 187 104 231 66 238 -10 2 -30
-10 -48 -29z"/>
<path d="M3006 4185 c87 -239 165 -401 297 -611 126 -201 133 -237 56 -253
-34 -7 -34 -7 -3 -24 18 -9 80 -69 139 -134 212 -234 360 -360 644 -548 130
-87 203 -142 219 -165 44 -66 148 -168 198 -193 67 -33 111 -44 51 -12 -30 16
-59 43 -80 74 -18 26 -51 72 -74 100 -46 57 -52 75 -27 85 30 12 60 5 188 -39
210 -73 435 -112 771 -135 83 -5 166 -14 185 -20 35 -9 35 -9 0 21 -42 36
-122 75 -245 119 -156 55 -502 156 -732 214 -258 65 -334 95 -510 200 -181
109 -331 222 -454 345 -103 103 -106 108 -123 175 -24 96 -51 146 -196 356
-70 102 -148 221 -173 265 -25 44 -65 110 -88 146 -24 36 -49 74 -56 85 -7 10
-1 -12 13 -51z"/>
<path d="M6868 3898 c-42 -51 -114 -140 -160 -198 -91 -115 -230 -258 -381
-395 -116 -103 -135 -128 -117 -150 19 -23 46 -18 113 17 110 59 274 233 404
428 64 97 230 390 220 390 -2 0 -37 -42 -79 -92z"/>
<path d="M6620 3236 c-24 -23 -224 -135 -272 -152 -23 -8 -78 -19 -121 -24
-119 -14 -424 -148 -516 -226 -56 -48 -55 -76 2 -99 23 -9 56 -30 74 -47 63
-61 183 -47 386 43 61 28 113 51 114 53 7 7 -109 -7 -204 -25 -56 -10 -145
-22 -198 -25 -90 -7 -97 -6 -94 11 7 32 54 56 190 97 238 71 411 168 574 322
50 47 88 85 85 86 -3 0 -12 -6 -20 -14z"/>
<path d="M4758 2193 c7 -3 16 -2 19 1 4 3 -2 6 -13 5 -11 0 -14 -3 -6 -6z"/>
<path d="M4828 2183 c7 -3 16 -2 19 1 4 3 -2 6 -13 5 -11 0 -14 -3 -6 -6z"/>
</g>
</svg>
