<?xml version="1.0" standalone="no"?>
<!DOCTYPE svg PUBLIC "-//W3C//DTD SVG 20010904//EN"
 "http://www.w3.org/TR/2001/REC-SVG-20010904/DTD/svg10.dtd">
<svg version="1.0" xmlns="http://www.w3.org/2000/svg"
 width="1000.000000pt" height="1000.000000pt" viewBox="0 0 1000.000000 1000.000000"
 preserveAspectRatio="xMidYMid meet">
<metadata>
  <rdf:RDF
    xmlns:rdf = "http://www.w3.org/1999/02/22-rdf-syntax-ns#"
    xmlns:rdfs = "http://www.w3.org/2000/01/rdf-schema#"
    xmlns:dc = "http://purl.org/dc/elements/1.1/"
    xmlns:cc = "http://creativecommons.org/ns#">
    <cc:license rdf:resource="http://creativecommons.org/publicdomain/zero/1.0/deed.en"/>
    <cc:permits rdf:resource="http://creativecommons.org/ns#Reproduction"/>
    <rdf:Description about="https://nft.mir.one/fingerprints"
      dc:title="TON Fingerprints"
      dc:description="This is a unique digital fingerprint created based on the algorithm for generating basic rings using a noise texture. Like human fingerprints, you can now use it for the Web3 and Metaverse era as digital biometric information."
      dc:publisher="https://nft.mir.one"
      dc:date="2022-02-22"
      dc:format="image/svg+xml"
      dc:language="en" >
      <dc:creator>
      <rdf:Bag>
        <rdf:li>EQBondcvD2_aOFADXSWJHs4ZazQDuEl9_wNvGGPxI8hGuOFU</rdf:li>
        <rdf:li>ipfs://bafkreihj7iub3fhmhq6jn62noukt5wxn3gv6bvcg7wmt6ywvlurefezckq</rdf:li>
      </rdf:Bag>
      </dc:creator>
    </rdf:Description>
  </rdf:RDF>
</metadata>
<rect width="100%" height="100%" fill="#1b1f23"/>
<g transform="translate(0.000000,1000.000000) scale(0.100000,-0.100000)"
fill="#ffffff" stroke="none">
<path d="M4705 7754 c-141 -22 -361 -72 -352 -81 2 -2 35 4 73 12 94 22 421
31 539 16 84 -12 513 -99 689 -141 110 -26 289 -60 294 -56 8 9 -321 130 -437
162 -235 65 -375 86 -586 89 -104 2 -203 1 -220 -1z"/>
<path d="M4644 7555 c-312 -57 -515 -171 -872 -488 -235 -208 -354 -351 -517
-622 -56 -92 -175 -322 -148 -285 10 14 36 47 58 75 23 27 89 113 147 190 170
225 209 267 433 464 418 369 727 516 1136 538 128 7 179 0 179 -26 0 -42 -45
-60 -245 -101 -328 -68 -516 -142 -740 -294 -117 -79 -488 -439 -611 -593
-208 -259 -280 -421 -409 -908 -80 -306 -97 -396 -93 -516 4 -110 22 -132 32
-36 14 140 57 251 151 388 66 96 90 158 126 330 35 166 48 209 104 324 89 184
214 340 422 528 108 96 140 131 157 172 13 27 35 64 49 81 67 79 299 207 506
278 57 20 233 69 390 109 286 72 286 72 436 72 183 0 308 -23 533 -97 176 -58
414 -172 567 -272 55 -37 104 -66 110 -66 6 0 33 -14 61 -31 47 -30 46 -28
-36 56 -208 213 -382 346 -589 450 -190 95 -322 132 -634 181 -125 19 -176 32
-236 58 -42 19 -94 39 -116 45 -54 15 -263 12 -351 -4z"/>
<path d="M3915 7397 c-16 -18 -50 -49 -75 -71 -44 -37 -44 -37 -5 -10 51 35
94 74 106 97 13 24 9 21 -26 -16z"/>
<path d="M3764 7268 c-19 -23 -19 -23 4 -4 21 18 27 26 19 26 -2 0 -12 -10
-23 -22z"/>
<path d="M3674 7188 c-19 -23 -19 -23 4 -4 21 18 27 26 19 26 -2 0 -12 -10
-23 -22z"/>
<path d="M5168 7070 c-269 -32 -692 -147 -916 -251 -114 -52 -221 -125 -228
-154 -14 -57 27 -59 176 -6 126 45 561 163 707 191 54 10 158 24 231 31 354
33 732 -69 1056 -285 190 -127 298 -244 418 -456 169 -297 293 -459 366 -480
55 -15 57 -13 25 23 -62 70 -231 417 -283 580 -78 242 -267 432 -600 601 -326
166 -664 239 -952 206z"/>
<path d="M5090 6730 c-132 -13 -263 -39 -410 -83 -108 -32 -158 -41 -250 -47
-99 -6 -133 -13 -240 -49 -69 -24 -157 -59 -197 -78 -130 -63 -329 -247 -430
-398 -99 -147 -155 -305 -134 -376 24 -81 73 -47 142 96 63 132 133 237 200
301 70 66 284 229 374 284 101 62 252 132 277 128 57 -8 21 -53 -131 -165
-127 -94 -232 -196 -260 -252 -10 -20 -21 -63 -24 -96 -3 -37 -21 -99 -46
-162 -51 -126 -57 -152 -37 -178 14 -19 17 -19 43 -5 39 21 87 96 188 292 59
115 102 185 137 223 59 65 291 242 363 278 136 66 278 97 490 103 258 9 435
-27 651 -130 256 -123 434 -282 612 -549 81 -121 276 -446 321 -534 78 -156
120 -316 121 -460 0 -127 -28 -193 -83 -193 -19 0 -50 61 -87 175 -90 277
-283 735 -375 890 -164 279 -428 492 -735 595 -187 63 -449 79 -643 39 -270
-54 -618 -264 -605 -364 5 -34 41 -28 134 19 109 56 273 118 402 152 119 32
339 44 459 24 157 -25 319 -92 473 -195 212 -141 390 -352 392 -465 1 -90 -36
-83 -136 28 -244 268 -539 452 -789 492 -143 23 -329 -1 -507 -65 -25 -9 -76
-19 -115 -21 -67 -6 -253 -58 -323 -92 -41 -20 -97 -89 -181 -224 -82 -130
-110 -200 -117 -291 -21 -244 129 -693 225 -675 26 5 24 59 -5 175 -44 177
-35 382 23 469 8 13 36 35 61 50 26 15 90 68 142 119 102 98 237 219 310 278
103 81 242 122 398 115 147 -7 235 -52 251 -130 6 -30 13 -35 77 -58 107 -40
204 -96 342 -199 70 -52 165 -116 212 -141 73 -40 91 -54 126 -107 70 -103
121 -295 100 -377 -4 -15 -30 -53 -59 -84 -29 -31 -85 -102 -126 -157 -148
-201 -336 -363 -526 -452 -60 -28 -60 -28 -270 -26 -334 4 -489 31 -671 117
-115 55 -195 109 -304 206 -47 42 -111 95 -143 118 -106 79 -178 194 -244 390
-19 59 -55 159 -80 222 -46 115 -46 115 -38 235 4 66 7 145 6 176 -3 80 13
141 70 261 28 59 49 115 47 125 -2 11 -14 19 -32 21 -49 6 -120 -79 -206 -249
-56 -111 -87 -158 -132 -205 -70 -73 -97 -136 -105 -241 -5 -64 -3 -80 21
-133 28 -61 42 -124 70 -305 21 -145 58 -252 109 -322 70 -93 344 -364 447
-440 317 -234 557 -313 951 -313 150 0 179 -2 190 -16 52 -63 -275 -107 -516
-69 -213 33 -380 100 -580 233 -162 108 -301 226 -403 344 -87 100 -119 128
-147 128 -25 0 -34 -40 -19 -88 35 -118 144 -236 386 -417 223 -167 386 -253
570 -299 223 -57 483 -60 643 -9 50 16 135 67 135 82 0 9 84 92 183 179 79 71
387 296 499 365 42 26 98 71 123 99 76 84 183 253 201 316 20 70 29 82 63 82
35 0 200 -173 237 -248 24 -48 26 -60 21 -135 -10 -148 -98 -362 -235 -567
-55 -84 -111 -150 -206 -246 -200 -200 -357 -293 -716 -427 -470 -176 -727
-198 -1080 -94 -47 14 -93 28 -102 32 -15 6 -18 1 -18 -33 0 -55 34 -93 123
-137 144 -70 421 -97 616 -60 233 45 635 181 866 295 181 90 276 156 413 292
231 228 371 446 540 839 136 314 157 416 149 704 -4 139 -11 216 -26 288 -38
173 -61 218 -187 369 -63 77 -103 134 -254 363 -191 289 -347 435 -610 566
-252 126 -561 185 -830 159z m-440 -852 c0 -23 -26 -49 -180 -180 -41 -35
-103 -102 -139 -148 -69 -92 -96 -108 -107 -65 -9 38 10 94 57 164 51 76 119
134 234 200 99 57 135 64 135 29z m-912 -736 c11 -26 34 -92 51 -147 37 -120
97 -248 155 -330 58 -80 227 -242 353 -337 172 -129 372 -216 588 -253 50 -9
173 -18 275 -22 193 -6 230 -12 230 -38 0 -22 -56 -53 -110 -61 -69 -11 -413
13 -511 35 -119 27 -225 64 -322 112 -287 145 -595 437 -698 664 -70 155 -111
382 -75 418 24 23 41 12 64 -41z"/>
<path d="M6817 6300 c14 -27 65 -100 70 -100 7 0 -29 58 -55 88 -13 15 -20 20
-15 12z"/>
<path d="M5102 5780 c-194 -27 -386 -149 -578 -368 -189 -215 -223 -332 -180
-607 10 -60 26 -129 36 -152 47 -109 225 -244 400 -305 215 -75 541 -76 721
-4 134 55 309 208 388 339 69 116 86 172 86 282 0 94 -2 105 -34 169 -75 153
-292 320 -468 362 -82 19 -238 14 -353 -11 -162 -36 -306 -136 -360 -250 -27
-57 -32 -152 -12 -222 33 -111 128 -194 233 -201 49 -4 68 0 114 23 71 34 107
85 113 159 4 45 1 56 -23 84 -63 75 -183 60 -209 -25 -6 -17 -1 -29 18 -47 30
-27 31 -30 10 -50 -24 -25 -53 -19 -88 17 -86 85 -32 237 107 297 124 54 275
34 399 -53 40 -28 95 -59 122 -69 70 -27 102 -52 133 -106 25 -41 28 -57 28
-133 0 -78 -3 -91 -37 -160 -71 -142 -207 -248 -379 -295 -89 -25 -299 -25
-389 -1 -166 44 -325 157 -388 274 -69 131 -84 325 -26 347 20 8 29 -12 52
-109 28 -116 62 -183 128 -254 95 -102 236 -161 389 -161 100 0 191 21 267 62
187 99 281 322 187 442 -42 54 -76 26 -129 -105 -42 -104 -107 -176 -198 -221
-60 -30 -75 -33 -157 -33 -80 0 -97 4 -157 32 -74 35 -133 88 -173 157 -42 72
-95 230 -95 285 0 125 151 301 337 395 63 32 168 61 270 76 108 15 169 37 193
67 25 31 21 35 -50 56 -72 21 -169 27 -248 17z"/>
<path d="M3196 5209 c-34 -27 -51 -60 -97 -194 -21 -60 -47 -135 -58 -165 -25
-67 -26 -125 -6 -294 50 -426 229 -874 457 -1143 91 -107 285 -265 437 -354
57 -33 84 -43 120 -43 42 -1 46 1 49 25 5 39 -33 77 -192 197 -161 121 -314
265 -390 367 -182 242 -329 635 -356 949 -11 132 -1 213 54 429 25 98 46 189
46 202 0 37 -32 49 -64 24z"/>
<path d="M3367 5165 c-22 -22 -34 -66 -52 -193 -28 -211 -15 -503 31 -692 20
-80 145 -413 184 -491 76 -149 221 -291 538 -526 220 -163 223 -165 243 -147
26 24 148 25 356 4 247 -24 439 8 699 118 77 32 164 67 194 77 96 30 272 121
365 186 188 134 360 338 454 540 116 249 142 431 68 470 -15 9 -25 7 -46 -8
-36 -28 -122 -204 -170 -352 -48 -147 -89 -222 -169 -315 -185 -213 -501 -405
-591 -357 -40 22 -24 44 75 104 188 115 380 273 472 390 81 102 101 159 67
187 -24 20 -65 -4 -196 -116 -63 -55 -185 -157 -272 -228 -87 -71 -177 -153
-200 -183 -23 -31 -49 -65 -58 -76 -15 -19 -31 -22 -135 -28 -66 -4 -174 -12
-241 -19 -149 -15 -323 -2 -474 36 -220 56 -380 145 -647 361 -57 46 -129 96
-160 112 -87 45 -140 111 -188 236 -23 62 -26 83 -25 181 1 72 -6 148 -19 220
-11 60 -24 189 -30 286 -9 173 -14 202 -43 227 -12 9 -18 8 -30 -4z m375
-1304 c174 -177 340 -301 510 -381 255 -119 633 -144 947 -61 80 21 101 19
101 -10 0 -48 -99 -100 -248 -131 -203 -43 -595 -16 -773 53 -208 80 -538 344
-629 503 -37 64 -40 116 -7 116 6 0 50 -40 99 -89z"/>
<path d="M6981 4169 c-21 -65 -216 -383 -315 -514 -343 -457 -539 -593 -1116
-775 -91 -28 -239 -76 -330 -105 -192 -63 -302 -80 -445 -72 -194 12 -335 48
-515 133 -83 39 -140 58 -203 69 -103 18 -186 53 -300 128 -130 86 -191 137
-367 310 -164 162 -164 162 -110 83 203 -291 420 -500 656 -633 327 -183 621
-262 980 -263 206 0 251 6 260 34 19 63 58 81 412 182 352 101 457 135 536
175 109 55 242 171 355 308 70 85 255 363 314 471 89 165 213 466 204 494 -2
6 -9 -5 -16 -25z"/>
<path d="M6250 2789 c-19 -5 -107 -25 -195 -45 -88 -20 -266 -63 -395 -94
-129 -32 -273 -66 -320 -75 -93 -18 -160 -36 -160 -42 0 -20 27 -44 65 -59 87
-33 233 -6 575 108 195 64 406 156 465 202 22 17 17 18 -35 5z"/>
<path d="M3925 2594 c94 -59 348 -177 459 -213 248 -81 445 -106 759 -98 235
6 320 20 508 82 111 37 231 84 214 84 -5 0 -48 -10 -94 -24 -146 -43 -383 -78
-486 -72 -501 30 -689 50 -853 88 -89 20 -459 142 -504 165 -44 23 -46 15 -3
-12z"/>
</g>
</svg>
