<?xml version="1.0" standalone="no"?>
<!DOCTYPE svg PUBLIC "-//W3C//DTD SVG 20010904//EN"
 "http://www.w3.org/TR/2001/REC-SVG-20010904/DTD/svg10.dtd">
<svg version="1.0" xmlns="http://www.w3.org/2000/svg"
 width="1000.000000pt" height="1000.000000pt" viewBox="0 0 1000.000000 1000.000000"
 preserveAspectRatio="xMidYMid meet">
<metadata>
  <rdf:RDF
    xmlns:rdf = "http://www.w3.org/1999/02/22-rdf-syntax-ns#"
    xmlns:rdfs = "http://www.w3.org/2000/01/rdf-schema#"
    xmlns:dc = "http://purl.org/dc/elements/1.1/"
    xmlns:cc = "http://creativecommons.org/ns#">
    <cc:license rdf:resource="http://creativecommons.org/publicdomain/zero/1.0/deed.en"/>
    <cc:permits rdf:resource="http://creativecommons.org/ns#Reproduction"/>
    <rdf:Description about="https://nft.mir.one/fingerprints"
      dc:title="TON Fingerprints"
      dc:description="This is a unique digital fingerprint created based on the algorithm for generating basic rings using a noise texture. Like human fingerprints, you can now use it for the Web3 and Metaverse era as digital biometric information."
      dc:publisher="https://nft.mir.one"
      dc:date="2022-02-22"
      dc:format="image/svg+xml"
      dc:language="en" >
      <dc:creator>
      <rdf:Bag>
        <rdf:li>EQBondcvD2_aOFADXSWJHs4ZazQDuEl9_wNvGGPxI8hGuOFU</rdf:li>
        <rdf:li>ipfs://bafkreihj7iub3fhmhq6jn62noukt5wxn3gv6bvcg7wmt6ywvlurefezckq</rdf:li>
      </rdf:Bag>
      </dc:creator>
    </rdf:Description>
  </rdf:RDF>
</metadata>
<rect width="100%" height="100%" fill="#1b1f23"/>
<g transform="translate(0.000000,1000.000000) scale(0.100000,-0.100000)"
fill="#ffffff" stroke="none">
<path d="M5193 7793 c9 -2 25 -2 35 0 9 3 1 5 -18 5 -19 0 -27 -2 -17 -5z"/>
<path d="M5298 7783 c7 -3 16 -2 19 1 4 3 -2 6 -13 5 -11 0 -14 -3 -6 -6z"/>
<path d="M4690 7675 c-52 -8 -127 -21 -167 -29 -186 -40 -452 -146 -503 -201
-25 -26 -25 -26 20 -1 46 26 237 75 370 96 73 12 467 32 625 33 125 0 398 -80
594 -174 107 -52 484 -304 561 -376 40 -37 70 -77 92 -121 27 -54 62 -95 194
-227 89 -88 190 -198 224 -245 35 -47 79 -102 98 -123 18 -22 51 -66 73 -99
21 -34 39 -57 39 -53 0 15 -132 259 -192 355 -125 198 -322 446 -459 575 -73
69 -380 304 -491 375 -114 74 -300 135 -607 200 -163 34 -301 38 -471 15z"/>
<path d="M4967 7473 c-12 -11 -8 -50 7 -62 7 -6 78 -42 157 -79 172 -81 507
-253 697 -359 75 -42 173 -93 216 -114 118 -58 188 -51 158 15 -14 32 -112
103 -310 227 -273 170 -531 294 -741 355 -79 23 -170 32 -184 17z"/>
<path d="M4335 7403 c-16 -2 -86 -17 -155 -32 -69 -16 -150 -34 -182 -40 -77
-16 -159 -76 -189 -137 -14 -30 -38 -58 -67 -78 -25 -17 -88 -62 -141 -101
-54 -38 -108 -77 -121 -86 -24 -17 -24 -17 20 -8 232 46 303 43 460 -20 109
-44 158 -56 195 -47 48 12 22 62 -50 99 -38 19 -69 53 -60 66 11 19 76 12 190
-19 74 -20 174 -37 305 -51 107 -11 256 -29 330 -40 74 -11 207 -24 295 -28
143 -7 170 -11 253 -40 175 -61 496 -210 665 -311 272 -160 496 -445 579 -735
18 -66 22 -105 23 -220 0 -128 -2 -146 -28 -215 -23 -63 -30 -105 -42 -266
-17 -217 -40 -350 -91 -520 -24 -80 -38 -152 -43 -220 -6 -82 -13 -113 -39
-169 -43 -90 -109 -182 -205 -282 -140 -146 -248 -208 -582 -333 -225 -85
-367 -128 -530 -164 -66 -15 -165 -39 -220 -53 -119 -31 -233 -33 -400 -8
-191 28 -212 37 -415 173 -304 204 -476 356 -620 548 -80 107 -114 137 -144
128 -33 -10 -40 -22 -39 -63 6 -149 303 -475 731 -802 81 -61 190 -155 242
-208 67 -68 118 -109 174 -140 175 -99 409 -173 611 -193 131 -14 588 3 752
28 139 20 301 73 400 131 66 38 241 160 431 300 14 10 10 11 -18 3 -19 -6 -64
-10 -100 -10 -78 0 -105 -12 -285 -120 -158 -96 -263 -143 -393 -176 -116 -30
-192 -29 -225 4 -11 12 -18 24 -15 27 3 3 33 10 66 16 81 13 218 61 316 112
87 45 281 215 390 343 34 39 106 120 160 180 178 195 250 308 331 514 65 166
128 444 156 680 15 135 12 501 -5 654 -8 71 -13 133 -10 138 3 4 -2 5 -11 2
-27 -11 -35 -49 -35 -167 -1 -182 -19 -462 -40 -607 -35 -241 -113 -510 -201
-700 -86 -184 -255 -401 -437 -562 -112 -99 -171 -131 -307 -161 -61 -14 -198
-59 -305 -100 -241 -93 -299 -111 -428 -132 -132 -22 -293 -18 -319 8 -17 17
-17 19 2 33 24 18 62 27 199 48 174 28 293 62 593 172 389 142 442 171 598
328 208 208 286 354 385 713 60 220 85 373 119 728 17 176 35 353 40 393 35
277 -196 724 -497 964 -80 63 -138 96 -229 129 -122 44 -740 353 -838 419
-148 99 -464 257 -550 275 -66 14 -321 19 -400 8z m379 -177 c109 -26 308 -94
388 -135 61 -30 73 -40 73 -61 0 -38 -31 -36 -247 14 -232 53 -363 73 -601 88
-159 11 -188 10 -262 -5 -133 -27 -225 -20 -225 17 0 29 59 65 132 80 104 22
134 24 418 21 192 -2 272 -7 324 -19z m1312 -3928 c13 -21 -73 -84 -174 -128
-210 -92 -245 -114 -267 -166 -14 -35 -29 -39 -225 -65 -119 -16 -355 -6 -450
20 -209 55 -473 161 -522 208 -35 34 -35 51 -1 59 37 10 380 -79 468 -121 39
-18 88 -38 110 -44 109 -28 301 -22 440 14 33 9 125 47 205 85 280 132 396
171 416 138z"/>
<path d="M4192 6785 c-79 -39 -140 -42 -241 -11 -97 30 -237 35 -313 12 -109
-32 -265 -174 -422 -381 -54 -71 -83 -116 -65 -99 19 17 59 48 89 68 30 21 91
64 135 96 145 107 327 184 464 196 50 4 71 2 86 -9 19 -15 19 -16 1 -35 -10
-12 -61 -39 -114 -62 -202 -88 -404 -218 -497 -321 -51 -57 -184 -261 -239
-369 -69 -132 -163 -436 -142 -457 3 -4 6 1 6 10 0 32 32 113 67 167 19 30 56
89 83 131 58 93 222 281 351 404 154 146 324 266 537 377 83 43 99 48 158 48
36 0 113 11 172 24 181 41 260 50 457 50 222 -1 315 -13 445 -61 52 -19 147
-49 210 -68 63 -18 144 -44 180 -58 236 -89 478 -267 618 -456 77 -104 145
-237 207 -407 60 -162 77 -194 105 -194 53 0 63 88 30 252 -67 328 -288 626
-604 813 -180 106 -422 211 -612 264 -183 51 -503 86 -879 96 -220 6 -220 6
-273 -20z"/>
<path d="M4643 6474 c-108 -17 -214 -51 -279 -89 -55 -32 -365 -324 -462 -434
-248 -282 -369 -512 -442 -841 -22 -100 -50 -160 -74 -160 -24 0 -54 48 -66
107 -29 138 34 372 155 578 112 191 264 364 502 571 148 130 183 168 183 203
0 27 -35 41 -72 30 -90 -25 -355 -225 -523 -394 -210 -209 -335 -392 -404
-587 -102 -292 -81 -487 91 -833 63 -125 112 -191 180 -241 52 -38 54 -39 143
-39 106 -1 111 -3 313 -137 293 -194 443 -242 752 -242 241 0 413 38 587 129
260 136 493 425 571 707 12 47 17 101 17 208 0 124 -3 156 -23 220 -88 279
-305 497 -592 592 -89 29 -105 32 -235 32 -183 0 -248 -18 -472 -130 -141 -69
-180 -85 -210 -82 -59 5 -56 34 9 93 156 140 334 226 538 260 171 29 306 10
483 -66 257 -112 440 -285 552 -522 163 -344 113 -678 -156 -1034 -88 -115
-214 -244 -301 -306 -240 -172 -625 -254 -1016 -218 -227 21 -363 83 -627 286
-135 103 -199 145 -227 145 -30 0 -23 -68 12 -124 85 -134 349 -349 541 -441
103 -49 162 -59 224 -40 35 11 119 19 275 25 299 12 461 41 665 121 148 57
247 122 349 230 209 219 384 458 446 605 71 172 95 349 67 509 -55 310 -239
602 -490 773 -42 29 -143 87 -225 128 -81 41 -172 89 -202 105 -55 31 -55 31
-170 25 -287 -17 -455 -65 -629 -180 -128 -85 -251 -233 -251 -301 0 -29 -31
-90 -101 -197 -130 -199 -193 -361 -205 -527 -11 -154 28 -276 132 -402 287
-351 814 -462 1170 -248 133 80 288 274 345 431 101 274 -8 566 -258 696 -90
46 -155 62 -256 62 -224 0 -447 -151 -464 -315 -6 -55 21 -175 56 -251 80
-172 260 -264 453 -234 87 13 122 32 165 88 113 148 18 374 -157 374 -119 0
-191 -121 -118 -199 30 -32 73 -31 90 4 7 14 18 28 25 30 19 7 53 -35 53 -65
0 -82 -110 -127 -208 -86 -152 63 -192 270 -76 388 83 84 244 108 356 53 172
-84 256 -279 200 -464 -23 -74 -60 -139 -115 -200 -19 -21 -51 -66 -71 -100
-68 -115 -170 -163 -362 -171 -145 -5 -244 15 -369 77 -309 154 -442 458 -314
720 92 187 449 433 705 486 490 101 926 -341 818 -828 -18 -80 -85 -230 -135
-304 -90 -131 -267 -282 -398 -340 -216 -96 -530 -107 -770 -27 -249 83 -607
354 -687 519 -26 54 -29 69 -28 160 1 173 93 473 209 678 270 478 543 718 887
781 46 9 149 22 230 30 176 17 223 34 223 81 0 25 -7 33 -40 50 -35 17 -64 20
-220 22 -121 1 -210 -3 -272 -13z"/>
<path d="M5293 6320 c-23 -14 -33 -27 -33 -45 0 -29 20 -41 140 -80 102 -33
220 -91 315 -154 96 -63 249 -218 318 -322 100 -150 199 -389 226 -543 26
-145 4 -357 -52 -494 -53 -130 -187 -324 -343 -495 -137 -152 -173 -199 -186
-240 -16 -54 -62 -89 -211 -162 -152 -73 -300 -123 -484 -162 -118 -25 -146
-28 -373 -29 -135 -1 -255 -4 -268 -8 -47 -15 -20 -65 53 -97 183 -81 604 -33
1015 114 457 164 551 207 664 297 122 99 265 281 307 391 23 60 23 63 3 83
-25 26 -65 -4 -151 -112 -194 -247 -366 -388 -460 -380 -20 2 -38 8 -40 14 -2
6 29 37 69 70 122 98 185 162 337 343 80 96 159 190 175 210 64 81 119 254
138 439 17 176 6 233 -98 476 -134 313 -209 440 -342 574 -234 237 -589 391
-719 312z"/>
<path d="M4288 5150 c-32 -19 -51 -93 -46 -184 6 -117 44 -195 147 -296 86
-85 164 -129 287 -160 165 -42 370 -6 418 73 9 15 7 21 -9 33 -16 12 -39 13
-115 8 -183 -13 -326 34 -432 141 -70 69 -111 146 -143 270 -14 54 -30 104
-36 112 -13 15 -47 17 -71 3z"/>
<path d="M2921 4604 c0 -11 3 -14 6 -6 3 7 2 16 -1 19 -3 4 -6 -2 -5 -13z"/>
<path d="M2931 4570 c-1 -26 47 -248 80 -364 42 -148 75 -218 209 -431 152
-243 256 -379 391 -510 350 -340 703 -573 1040 -686 249 -83 400 -101 604 -70
77 11 187 25 245 32 271 28 464 89 702 221 71 39 127 73 125 74 -5 5 -134 -26
-192 -46 -177 -61 -345 -91 -660 -116 -450 -35 -636 -12 -930 114 -151 65
-253 128 -410 253 -389 310 -586 493 -765 709 -216 260 -247 311 -300 495 -17
61 -40 121 -49 135 -29 41 -53 92 -72 150 -9 30 -18 48 -18 40z"/>
<path d="M6890 3868 c-57 -72 -149 -175 -282 -316 -133 -141 -168 -194 -150
-221 16 -26 43 -13 110 52 76 74 160 183 234 303 63 103 131 224 125 224 -2 0
-19 -19 -37 -42z"/>
<path d="M3340 3311 c193 -255 388 -456 580 -600 356 -266 705 -408 1110 -451
100 -11 166 -22 220 -36 25 -7 25 -7 2 17 -13 13 -33 36 -45 51 -20 25 -36 30
-171 53 -182 31 -267 52 -419 105 -229 79 -457 201 -685 367 -159 116 -250
194 -469 401 -187 177 -187 177 -123 93z"/>
<path d="M5750 2453 c-193 -14 -402 -35 -435 -44 -55 -15 -85 -36 -85 -60 0
-18 4 -20 33 -15 17 3 75 10 127 16 52 6 122 15 155 21 65 11 327 77 334 85 4
4 -49 3 -129 -3z"/>
</g>
</svg>
