<?xml version="1.0" standalone="no"?>
<!DOCTYPE svg PUBLIC "-//W3C//DTD SVG 20010904//EN"
 "http://www.w3.org/TR/2001/REC-SVG-20010904/DTD/svg10.dtd">
<svg version="1.0" xmlns="http://www.w3.org/2000/svg"
 width="1000.000000pt" height="1000.000000pt" viewBox="0 0 1000.000000 1000.000000"
 preserveAspectRatio="xMidYMid meet">
<metadata>
  <rdf:RDF
    xmlns:rdf = "http://www.w3.org/1999/02/22-rdf-syntax-ns#"
    xmlns:rdfs = "http://www.w3.org/2000/01/rdf-schema#"
    xmlns:dc = "http://purl.org/dc/elements/1.1/"
    xmlns:cc = "http://creativecommons.org/ns#">
    <cc:license rdf:resource="http://creativecommons.org/publicdomain/zero/1.0/deed.en"/>
    <cc:permits rdf:resource="http://creativecommons.org/ns#Reproduction"/>
    <rdf:Description about="https://nft.mir.one/fingerprints"
      dc:title="TON Fingerprints"
      dc:description="This is a unique digital fingerprint created based on the algorithm for generating basic rings using a noise texture. Like human fingerprints, you can now use it for the Web3 and Metaverse era as digital biometric information."
      dc:publisher="https://nft.mir.one"
      dc:date="2022-02-22"
      dc:format="image/svg+xml"
      dc:language="en" >
      <dc:creator>
      <rdf:Bag>
        <rdf:li>EQBondcvD2_aOFADXSWJHs4ZazQDuEl9_wNvGGPxI8hGuOFU</rdf:li>
        <rdf:li>ipfs://bafkreihj7iub3fhmhq6jn62noukt5wxn3gv6bvcg7wmt6ywvlurefezckq</rdf:li>
      </rdf:Bag>
      </dc:creator>
    </rdf:Description>
  </rdf:RDF>
</metadata>
<rect width="100%" height="100%" fill="#1b1f23"/>
<g transform="translate(0.000000,1000.000000) scale(0.100000,-0.100000)"
fill="#ffffff" stroke="none">
<path d="M5110 7729 c-454 -44 -880 -244 -1218 -573 -94 -91 -156 -171 -148
-191 7 -20 59 -19 101 1 31 14 55 33 250 198 178 151 394 280 604 361 107 41
317 102 501 144 74 17 162 39 195 50 60 20 60 20 -70 19 -71 0 -168 -4 -215
-9z"/>
<path d="M5240 7540 c-104 -22 -412 -104 -494 -131 -167 -56 -409 -198 -572
-336 -329 -279 -479 -441 -673 -731 -129 -192 -187 -327 -276 -648 -87 -311
-107 -430 -108 -619 0 -170 7 -223 67 -505 19 -85 41 -195 50 -245 20 -108 60
-195 117 -253 47 -47 81 -61 104 -42 23 19 18 45 -26 139 -48 102 -61 177 -34
187 10 4 25 3 33 -3 27 -16 110 -172 144 -267 30 -85 37 -96 112 -171 174
-173 485 -339 751 -401 63 -15 117 -19 255 -18 320 1 589 61 833 186 352 180
589 466 682 825 78 298 51 606 -75 871 -62 130 -116 212 -219 330 -45 52 -79
98 -75 103 13 22 64 7 120 -34 166 -122 315 -368 379 -626 127 -510 -43 -1064
-421 -1373 -221 -179 -464 -296 -744 -356 -133 -29 -479 -73 -575 -73 -247 -1
-565 130 -965 399 -101 68 -215 139 -252 158 -37 18 -96 61 -133 95 -97 91
-122 151 -195 459 -33 140 -69 289 -80 330 -51 201 -53 418 -5 550 55 154 115
372 154 568 23 111 52 230 65 265 59 157 175 341 383 610 118 152 118 152 124
238 8 117 43 179 174 318 92 97 94 101 32 46 -81 -71 -173 -177 -225 -259 -20
-32 -110 -169 -199 -303 -176 -265 -309 -512 -356 -663 -14 -47 -40 -157 -57
-245 -18 -88 -51 -245 -75 -350 -63 -272 -68 -311 -68 -495 1 -205 19 -356 84
-672 66 -327 85 -379 180 -509 87 -118 169 -184 390 -316 312 -186 574 -310
856 -407 152 -52 163 -57 220 -103 52 -42 126 -72 201 -79 69 -7 527 31 631
52 156 32 333 118 569 275 89 60 177 112 195 117 37 10 71 1 75 -20 6 -29
-245 -242 -393 -335 -86 -54 -276 -143 -364 -170 -82 -26 -88 -26 -190 -15
-130 14 -354 -4 -471 -38 -91 -26 -167 -7 -370 95 -80 40 -208 101 -285 135
-332 148 -711 344 -882 456 -47 30 -108 64 -136 75 -49 20 -49 20 -6 -33 89
-106 225 -241 302 -299 58 -43 202 -121 536 -289 480 -240 534 -274 564 -348
18 -45 29 -51 174 -87 134 -33 233 -43 336 -33 118 11 221 48 362 127 66 38
180 99 254 136 243 121 414 241 521 366 83 96 103 139 104 220 1 65 1 66 88
195 105 156 162 261 223 413 89 221 133 434 142 676 15 441 -123 857 -391
1177 -101 122 -164 164 -480 326 -161 82 -322 161 -358 175 -147 59 -279 78
-553 80 -155 1 -197 -2 -300 -23 -108 -23 -144 -25 -365 -25 -218 0 -249 -2
-273 -18 -63 -41 -18 -104 110 -156 105 -41 171 -57 273 -65 158 -12 215 -25
277 -63 32 -19 114 -64 183 -100 250 -131 317 -192 428 -388 56 -101 139 -298
162 -390 24 -94 26 -202 4 -274 -13 -46 -31 -68 -134 -172 -74 -73 -138 -128
-169 -143 -135 -69 -340 -89 -471 -47 -238 76 -400 296 -400 546 0 198 115
417 256 488 63 31 101 40 185 39 78 -1 173 -24 238 -57 102 -51 221 -161 205
-187 -10 -16 -57 -7 -124 22 -149 65 -282 77 -382 33 -149 -67 -241 -255 -209
-428 24 -134 111 -250 230 -307 153 -74 352 -37 430 78 48 71 38 223 -20 302
-90 123 -289 101 -289 -33 0 -77 78 -115 108 -52 24 50 82 21 82 -42 0 -74
-56 -121 -144 -121 -162 0 -259 195 -172 344 70 120 239 149 400 70 96 -47
143 -122 174 -279 27 -134 63 -162 99 -78 37 86 12 256 -58 395 -15 31 -36 88
-44 127 -33 142 -153 275 -329 360 -191 93 -356 121 -482 83 -105 -32 -129
-62 -218 -273 -96 -226 -116 -296 -123 -435 -12 -233 69 -431 238 -588 83 -76
216 -146 326 -170 91 -20 237 -20 328 0 39 8 99 21 135 29 77 17 123 9 128
-21 2 -17 -14 -29 -95 -66 -147 -70 -204 -82 -368 -82 -164 0 -224 13 -361 79
-224 108 -387 304 -459 550 -64 223 -35 445 93 702 27 54 52 110 56 126 9 38
-9 67 -41 67 -97 0 -248 -208 -305 -420 -33 -124 -33 -358 0 -480 63 -233 225
-468 415 -604 89 -64 236 -131 343 -158 124 -31 333 -30 449 1 180 47 307 142
321 239 6 40 17 58 70 114 235 250 298 516 194 822 -29 87 -99 233 -169 351
-45 77 -60 130 -41 148 9 9 24 -1 64 -44 70 -75 126 -161 191 -294 136 -277
159 -509 76 -758 -52 -156 -183 -358 -321 -498 -73 -73 -100 -93 -190 -137
-148 -73 -247 -95 -430 -96 -87 -1 -173 5 -215 13 -82 16 -219 63 -290 99
-280 141 -539 465 -621 777 -23 86 -27 121 -28 255 -1 164 7 218 51 355 33
103 70 175 126 250 59 79 112 120 222 175 109 55 131 83 99 127 -27 36 -93 56
-167 50 -353 -29 -630 -725 -497 -1248 39 -150 101 -264 267 -488 133 -179
248 -283 418 -379 338 -190 781 -203 1131 -32 266 129 477 368 580 656 100
279 81 572 -56 849 -55 113 -145 259 -197 323 -46 56 -126 102 -179 102 -37 0
-59 13 -196 113 -180 131 -175 128 -308 175 -116 42 -139 62 -102 92 34 28
103 34 228 20 103 -12 118 -12 170 5 113 36 237 -2 589 -178 249 -124 318
-168 415 -266 285 -289 439 -774 389 -1229 -39 -361 -184 -700 -383 -897 -128
-127 -458 -337 -659 -419 -184 -76 -457 -126 -702 -129 -199 -3 -255 14 -204
62 24 22 90 36 249 51 424 42 717 151 1029 383 175 129 295 271 386 455 207
417 214 918 21 1338 -77 166 -215 340 -344 431 -35 25 -122 71 -195 103 -73
31 -169 76 -214 99 -174 87 -326 137 -368 121 -67 -26 5 -93 207 -195 206
-103 235 -125 283 -216 21 -40 66 -116 100 -169 113 -174 179 -330 211 -497
25 -133 15 -374 -19 -506 -51 -193 -162 -387 -303 -531 -183 -186 -414 -310
-694 -371 -117 -26 -422 -32 -535 -11 -185 35 -352 104 -518 216 -130 87 -231
191 -337 349 -46 69 -117 159 -157 202 -78 84 -109 137 -142 244 -89 289 -73
634 45 979 86 247 175 389 365 576 151 150 166 173 235 362 23 64 59 142 79
172 79 119 271 278 476 396 133 76 221 107 329 116 53 4 133 21 210 45 214 65
475 123 649 145 29 4 79 15 110 24 56 18 56 18 21 24 -229 41 -502 48 -650 16z
m135 -4771 c12 -19 -36 -57 -99 -79 -87 -30 -241 -38 -300 -16 -45 17 -64 42
-47 59 11 11 275 44 373 46 38 0 70 -4 73 -10z"/>
<path d="M4039 7503 c-13 -16 -12 -17 4 -4 16 13 21 21 13 21 -2 0 -10 -8 -17
-17z"/>
<path d="M3984 7458 c-19 -23 -19 -23 4 -4 12 11 22 21 22 23 0 8 -8 2 -26
-19z"/>
<path d="M5735 7343 c-11 -3 -94 -20 -185 -40 -199 -42 -332 -83 -423 -131
-81 -42 -188 -152 -270 -277 -51 -78 -55 -81 -152 -132 -129 -67 -363 -162
-419 -169 -108 -15 -50 49 159 178 220 135 294 188 387 278 72 69 89 91 86
111 -5 38 -54 37 -135 -3 -108 -53 -416 -262 -494 -335 -106 -100 -122 -142
-98 -253 10 -45 16 -54 45 -66 58 -24 162 -17 382 28 207 41 207 41 327 30
584 -55 604 -60 888 -228 197 -117 297 -163 446 -204 33 -9 65 -32 133 -98
268 -258 452 -611 523 -1002 23 -125 31 -426 15 -561 -25 -222 -83 -439 -176
-655 -65 -153 -278 -565 -343 -664 -132 -203 -324 -346 -756 -565 -342 -173
-450 -202 -805 -211 -124 -3 -283 -9 -353 -14 -80 -5 -151 -5 -189 1 -33 5
-62 8 -65 6 -6 -7 144 -45 252 -64 77 -13 160 -17 360 -17 234 -1 270 1 362
22 161 35 274 76 458 167 285 139 531 317 680 492 213 250 437 692 551 1085
143 499 139 1057 -13 1491 -71 206 -115 273 -415 639 -35 42 -105 146 -156
230 -51 84 -119 191 -152 238 -33 47 -60 92 -60 101 0 14 16 17 123 17 151 0
189 -13 242 -86 48 -68 215 -214 305 -267 20 -12 -85 110 -183 212 -65 68 -78
87 -75 110 3 25 8 29 48 33 45 5 45 5 1 18 -24 8 -85 32 -135 54 -110 49 -177
56 -319 38 -135 -18 -211 -5 -335 57 -93 46 -93 46 -213 39 -213 -12 -386 -50
-528 -117 -46 -21 -85 -39 -87 -39 -2 0 -4 11 -4 25 0 40 82 115 179 163 99
50 169 72 363 112 81 17 198 46 260 66 62 19 160 42 218 50 58 8 138 20 178
27 73 11 73 11 -10 34 -168 45 -343 64 -423 46z m-483 -554 c217 14 307 8 473
-34 55 -14 116 -25 136 -25 83 0 138 -27 219 -109 83 -83 130 -148 130 -181 0
-35 -25 -22 -106 51 -81 74 -163 132 -200 143 -30 9 -58 -15 -49 -43 14 -47
213 -192 306 -223 69 -23 119 -73 119 -118 0 -17 -4 -30 -10 -30 -18 0 -266
137 -341 188 -41 27 -105 77 -144 111 -126 111 -233 143 -537 159 -199 12
-262 29 -274 76 -9 38 1 45 45 33 28 -8 95 -7 233 2z"/>
<path d="M5980 7123 c-67 -11 -128 -35 -150 -59 -25 -26 -25 -26 -3 -44 30
-24 111 -33 246 -25 61 3 170 7 240 10 71 2 131 6 134 9 3 3 -5 10 -18 15 -13
5 -51 20 -85 34 -129 55 -264 77 -364 60z"/>
<path d="M6260 6699 c0 -6 5 -20 11 -32 23 -42 245 -325 374 -477 73 -85 164
-200 204 -255 90 -126 165 -225 168 -221 4 4 -78 189 -128 288 -83 165 -197
331 -328 476 -122 136 -176 189 -212 211 -36 22 -89 28 -89 10z"/>
<path d="M3518 3073 c44 -32 132 -94 194 -139 62 -44 163 -111 223 -149 61
-37 144 -92 185 -120 178 -125 351 -176 439 -130 31 16 47 43 33 57 -5 5 -71
36 -146 68 -76 32 -199 93 -274 133 -358 195 -664 337 -726 337 -5 0 27 -26
72 -57z"/>
<path d="M3867 2650 c18 -11 56 -31 85 -46 29 -14 68 -37 86 -51 24 -18 32
-20 32 -9 0 24 -58 62 -145 95 -93 36 -101 38 -58 11z"/>
</g>
</svg>
