<?xml version="1.0" standalone="no"?>
<!DOCTYPE svg PUBLIC "-//W3C//DTD SVG 20010904//EN"
 "http://www.w3.org/TR/2001/REC-SVG-20010904/DTD/svg10.dtd">
<svg version="1.0" xmlns="http://www.w3.org/2000/svg"
 width="1000.000000pt" height="1000.000000pt" viewBox="0 0 1000.000000 1000.000000"
 preserveAspectRatio="xMidYMid meet">
<metadata>
  <rdf:RDF
    xmlns:rdf = "http://www.w3.org/1999/02/22-rdf-syntax-ns#"
    xmlns:rdfs = "http://www.w3.org/2000/01/rdf-schema#"
    xmlns:dc = "http://purl.org/dc/elements/1.1/"
    xmlns:cc = "http://creativecommons.org/ns#">
    <cc:license rdf:resource="http://creativecommons.org/publicdomain/zero/1.0/deed.en"/>
    <cc:permits rdf:resource="http://creativecommons.org/ns#Reproduction"/>
    <rdf:Description about="https://nft.mir.one/fingerprints"
      dc:title="TON Fingerprints"
      dc:description="This is a unique digital fingerprint created based on the algorithm for generating basic rings using a noise texture. Like human fingerprints, you can now use it for the Web3 and Metaverse era as digital biometric information."
      dc:publisher="https://nft.mir.one"
      dc:date="2022-02-22"
      dc:format="image/svg+xml"
      dc:language="en" >
      <dc:creator>
      <rdf:Bag>
        <rdf:li>EQBondcvD2_aOFADXSWJHs4ZazQDuEl9_wNvGGPxI8hGuOFU</rdf:li>
        <rdf:li>ipfs://bafkreihj7iub3fhmhq6jn62noukt5wxn3gv6bvcg7wmt6ywvlurefezckq</rdf:li>
      </rdf:Bag>
      </dc:creator>
    </rdf:Description>
  </rdf:RDF>
</metadata>
<rect width="100%" height="100%" fill="#1b1f23"/>
<g transform="translate(0.000000,1000.000000) scale(0.100000,-0.100000)"
fill="#ffffff" stroke="none">
<path d="M4838 7803 c7 -3 16 -2 19 1 4 3 -2 6 -13 5 -11 0 -14 -3 -6 -6z"/>
<path d="M4950 7764 c47 -19 121 -48 165 -65 44 -16 139 -61 210 -99 72 -38
225 -118 340 -176 116 -58 275 -142 354 -187 186 -104 244 -128 297 -120 23 3
51 0 65 -7 24 -11 24 -11 -1 9 -14 11 -46 28 -72 37 -26 8 -96 50 -155 91
-167 117 -236 157 -543 310 -311 155 -377 180 -570 218 -173 33 -191 31 -90
-11z"/>
<path d="M4325 7615 c-49 -7 -99 -14 -110 -15 -37 -3 78 -30 234 -55 395 -64
667 -157 1101 -376 434 -219 650 -378 790 -584 63 -93 85 -137 126 -258 24
-67 65 -152 122 -247 146 -246 210 -398 254 -598 18 -80 22 -132 22 -297 1
-139 5 -207 14 -222 6 -12 12 -37 12 -55 0 -41 -30 -103 -50 -103 -12 0 -14
14 -11 83 3 78 2 82 -18 82 -36 0 -54 -53 -61 -181 -5 -94 -11 -126 -31 -165
-24 -48 -52 -74 -65 -61 -10 10 14 289 31 363 7 33 21 93 30 134 53 231 -42
586 -234 878 -84 127 -139 184 -251 257 -52 34 -153 110 -225 169 -173 143
-363 269 -554 365 -376 190 -616 272 -936 321 -118 18 -154 28 -230 63 -90 42
-90 42 -225 42 -127 0 -139 -2 -194 -28 -33 -15 -82 -49 -110 -75 -28 -26 -85
-72 -126 -102 -69 -50 -290 -230 -290 -236 0 -7 114 46 325 152 237 118 288
136 437 155 103 14 158 6 158 -20 0 -27 -29 -47 -100 -69 -36 -11 -112 -35
-169 -53 -58 -18 -180 -70 -272 -115 -185 -92 -274 -157 -382 -277 -68 -76
-239 -308 -232 -315 5 -6 70 44 155 119 289 256 625 429 1040 535 95 24 116
26 240 21 177 -6 268 -31 530 -142 405 -171 613 -289 865 -491 148 -118 330
-302 390 -394 65 -98 176 -319 204 -403 53 -157 60 -269 35 -521 -21 -211 -16
-289 22 -352 42 -70 40 -167 -4 -319 -46 -159 -42 -205 18 -205 34 0 85 54
138 145 22 39 65 100 95 137 98 120 140 201 211 408 43 125 33 118 -76 -58
-80 -130 -153 -212 -186 -212 -45 0 -18 66 100 252 60 94 84 159 97 268 41
324 -28 754 -171 1062 -53 116 -220 435 -306 588 -157 279 -199 319 -521 504
-169 98 -600 319 -749 385 -149 66 -246 96 -374 115 -127 19 -402 19 -533 1z"/>
<path d="M4110 7400 c-52 -10 -133 -30 -179 -44 -47 -14 -94 -26 -105 -27 -51
-2 89 -29 179 -34 151 -9 215 -20 515 -86 316 -69 528 -136 756 -238 374 -167
597 -313 893 -584 100 -93 138 -114 167 -93 43 32 -35 166 -185 317 -160 160
-377 303 -696 459 -330 161 -584 249 -912 315 -198 40 -286 43 -433 15z"/>
<path d="M3640 7114 c-35 -14 -35 -14 0 -8 19 4 44 10 55 15 20 8 20 8 0 8
-11 0 -36 -7 -55 -15z"/>
<path d="M6574 6793 c3 -28 17 -75 31 -103 27 -54 223 -350 232 -350 2 0 -4
15 -15 33 -76 127 -210 371 -230 417 -23 55 -23 55 -18 3z"/>
<path d="M4285 6693 c-342 -48 -875 -366 -1052 -628 -178 -264 -304 -701 -290
-1009 3 -66 1 -130 -4 -144 -6 -14 -12 -62 -14 -106 -4 -81 -4 -81 5 -7 10 78
19 96 50 104 36 9 51 -26 91 -230 21 -109 51 -234 65 -278 29 -89 86 -205 112
-229 31 -28 185 -87 210 -81 32 8 23 32 -51 130 -82 109 -147 249 -202 440
-50 169 -81 245 -139 335 -65 101 -68 224 -11 422 106 367 355 691 712 925
170 111 418 213 520 213 18 0 59 -9 92 -20 53 -19 68 -20 142 -10 94 11 254
12 314 2 31 -6 41 -12 43 -29 5 -32 -41 -57 -141 -78 -155 -32 -211 -54 -367
-144 -319 -184 -460 -286 -583 -422 -131 -144 -225 -323 -249 -471 -10 -69 -9
-88 15 -215 14 -76 31 -212 37 -302 6 -89 20 -196 30 -236 122 -479 546 -773
1084 -752 430 16 714 221 791 571 31 140 20 214 -68 474 -92 269 -130 345
-217 432 -214 216 -554 216 -770 0 -100 -100 -150 -214 -150 -340 0 -168 112
-350 258 -422 62 -31 74 -33 167 -33 93 0 105 2 167 33 45 22 99 62 162 122
52 49 106 92 120 96 137 34 -61 -263 -234 -351 -133 -67 -292 -74 -413 -17
-142 66 -293 268 -342 457 -90 348 228 725 634 751 119 8 222 -14 336 -70 197
-97 328 -270 418 -551 62 -194 80 -294 80 -450 1 -174 -21 -274 -94 -424 -110
-225 -288 -341 -624 -408 -130 -25 -428 -25 -545 1 -251 55 -499 197 -638 367
-65 79 -189 327 -232 463 -33 107 -92 387 -111 531 -40 305 59 577 301 829
141 147 271 240 523 376 106 57 167 105 167 130 0 18 -43 32 -79 25 -95 -18
-260 -90 -399 -174 -403 -246 -673 -623 -711 -996 -12 -122 2 -204 79 -473 86
-294 84 -289 172 -474 56 -117 72 -161 77 -212 6 -60 10 -68 64 -130 279 -317
664 -482 1077 -462 207 10 510 55 646 97 166 50 300 161 373 309 89 182 143
491 122 707 -29 297 -115 585 -229 763 -176 276 -496 432 -800 390 -319 -44
-594 -246 -727 -534 -112 -241 -86 -384 126 -713 59 -90 82 -136 89 -175 12
-61 20 -69 115 -113 349 -163 744 -14 875 328 17 45 38 89 46 97 14 13 17 12
35 -9 46 -56 12 -220 -72 -346 -86 -129 -222 -220 -395 -266 -113 -30 -305
-30 -429 0 -278 67 -449 159 -555 299 -101 133 -167 309 -141 375 21 54 42 34
107 -101 88 -182 194 -306 287 -334 37 -11 87 0 87 20 0 4 -38 53 -85 108 -47
54 -115 151 -152 214 -38 63 -87 140 -111 172 -70 93 -79 160 -36 286 36 107
136 300 203 390 215 289 592 472 921 448 298 -21 586 -203 746 -473 82 -139
130 -287 193 -610 59 -294 60 -420 5 -708 -23 -121 -25 -148 -16 -203 13 -74
9 -88 -49 -175 -113 -168 -209 -253 -334 -298 -49 -18 -95 -23 -250 -29 -104
-5 -279 -20 -388 -34 -407 -53 -637 -28 -892 99 -145 73 -264 159 -423 309
-156 147 -274 239 -299 234 -27 -5 -28 -58 -2 -110 46 -91 173 -238 323 -376
170 -155 376 -275 566 -327 75 -21 127 -28 242 -32 164 -6 261 3 492 48 248
49 386 49 386 1 0 -25 -31 -38 -168 -67 -64 -14 -153 -37 -197 -50 -318 -96
-583 -118 -790 -65 -106 27 -297 123 -415 207 -114 82 -323 287 -409 400 -87
116 -137 214 -186 366 -24 73 -61 182 -83 242 -44 122 -68 222 -81 335 -5 46
-9 60 -10 36 -3 -108 65 -423 148 -678 98 -300 286 -595 536 -843 160 -158
316 -254 472 -291 73 -17 230 -14 363 6 125 20 355 81 395 105 127 76 267 124
431 146 54 7 151 34 269 75 232 80 266 88 456 113 172 23 328 53 402 77 33 11
55 27 74 52 15 21 84 96 153 167 69 72 158 169 198 216 40 48 82 93 95 102 21
14 19 15 -40 22 -60 7 -63 6 -165 -46 -123 -63 -159 -86 -307 -201 -152 -119
-331 -208 -417 -208 -118 0 -77 67 144 232 145 108 210 180 242 265 11 29 31
119 45 201 22 130 25 174 24 358 -1 115 3 241 9 279 16 100 14 317 -3 400 -17
82 -46 142 -177 362 -113 191 -194 298 -309 408 -254 243 -522 401 -863 510
-94 30 -129 47 -172 82 -108 88 -212 114 -457 112 -89 -1 -175 -4 -192 -6z
m976 -449 c330 -114 646 -379 783 -659 53 -108 66 -165 66 -293 0 -114 32
-349 60 -444 22 -71 63 -119 84 -98 16 16 11 211 -9 366 -20 162 -18 219 9
219 51 0 85 -114 93 -306 7 -178 1 -220 -42 -268 -34 -37 -34 -37 -34 -217 0
-266 -36 -429 -119 -538 -48 -63 -81 -87 -123 -89 -48 -3 -49 24 -5 112 50 98
84 223 98 357 14 136 5 224 -41 389 -17 61 -49 212 -71 336 -54 309 -80 386
-171 521 -153 225 -415 412 -669 479 -110 28 -286 31 -410 4 -311 -65 -633
-262 -815 -499 -31 -41 -93 -146 -138 -233 -73 -140 -85 -158 -107 -158 -23 0
-25 4 -28 52 -2 35 5 76 23 130 95 283 341 531 717 719 230 115 425 166 618
161 103 -3 127 -7 231 -43z m-298 -927 c73 -33 135 -91 163 -152 28 -59 30
-92 8 -123 -24 -34 -46 -24 -100 47 -107 141 -278 172 -395 74 -98 -83 -91
-235 14 -286 31 -16 42 -17 72 -7 66 22 76 99 13 106 -12 1 -26 3 -30 3 -19 2
-6 51 18 70 50 39 130 19 184 -48 54 -65 48 -132 -20 -199 -53 -53 -106 -76
-180 -76 -107 0 -190 57 -238 164 -80 174 26 378 233 447 63 20 191 11 258
-20z"/>
<path d="M6970 4267 c-87 -82 -131 -148 -138 -203 -4 -38 -2 -44 14 -44 13 0
31 22 58 73 22 39 61 109 87 155 26 45 47 82 46 82 -1 0 -31 -28 -67 -63z"/>
<path d="M6705 3466 c-68 -19 -141 -69 -129 -87 16 -27 87 9 179 92 11 11 3
10 -50 -5z"/>
<path d="M6115 3165 c-134 -31 -328 -89 -439 -131 -91 -35 -168 -74 -309 -157
-143 -83 -258 -101 -517 -83 -95 7 -125 6 -171 -7 -55 -17 -113 -60 -106 -81
6 -20 138 -36 342 -42 307 -10 309 -9 997 243 263 97 341 130 400 169 77 52
89 71 63 98 -24 23 -138 20 -260 -9z"/>
<path d="M5109 2996 c-151 -43 -174 -55 -174 -86 0 -39 53 -48 161 -26 142 28
231 77 222 123 -5 30 -78 26 -209 -11z"/>
<path d="M6430 2974 c-19 -13 -59 -33 -88 -44 -29 -11 -74 -31 -100 -44 -136
-69 -609 -238 -797 -285 -196 -49 -376 -66 -552 -51 -195 16 -278 43 -314 104
-24 40 -45 46 -181 46 -117 0 -168 -16 -168 -53 0 -13 8 -31 18 -40 45 -41
293 -133 453 -168 124 -27 386 -36 541 -19 361 40 746 201 1083 455 94 71 158
126 144 125 -2 -1 -20 -12 -39 -26z"/>
<path d="M3655 2851 c97 -100 323 -281 513 -410 116 -78 261 -128 507 -172
163 -29 473 -37 635 -16 115 15 313 57 306 64 -2 2 -53 -3 -112 -11 -158 -21
-428 -29 -581 -17 -154 12 -483 63 -563 87 -98 29 -144 59 -225 148 -76 84
-155 143 -246 183 -65 29 -145 82 -225 149 -69 57 -69 57 -9 -5z"/>
<path d="M5638 2323 c7 -3 16 -2 19 1 4 3 -2 6 -13 5 -11 0 -14 -3 -6 -6z"/>
</g>
</svg>
