<?xml version="1.0" standalone="no"?>
<!DOCTYPE svg PUBLIC "-//W3C//DTD SVG 20010904//EN"
 "http://www.w3.org/TR/2001/REC-SVG-20010904/DTD/svg10.dtd">
<svg version="1.0" xmlns="http://www.w3.org/2000/svg"
 width="1000.000000pt" height="1000.000000pt" viewBox="0 0 1000.000000 1000.000000"
 preserveAspectRatio="xMidYMid meet">
<metadata>
  <rdf:RDF
    xmlns:rdf = "http://www.w3.org/1999/02/22-rdf-syntax-ns#"
    xmlns:rdfs = "http://www.w3.org/2000/01/rdf-schema#"
    xmlns:dc = "http://purl.org/dc/elements/1.1/"
    xmlns:cc = "http://creativecommons.org/ns#">
    <cc:license rdf:resource="http://creativecommons.org/publicdomain/zero/1.0/deed.en"/>
    <cc:permits rdf:resource="http://creativecommons.org/ns#Reproduction"/>
    <rdf:Description about="https://nft.mir.one/fingerprints"
      dc:title="TON Fingerprints"
      dc:description="This is a unique digital fingerprint created based on the algorithm for generating basic rings using a noise texture. Like human fingerprints, you can now use it for the Web3 and Metaverse era as digital biometric information."
      dc:publisher="https://nft.mir.one"
      dc:date="2022-02-22"
      dc:format="image/svg+xml"
      dc:language="en" >
      <dc:creator>
      <rdf:Bag>
        <rdf:li>EQBondcvD2_aOFADXSWJHs4ZazQDuEl9_wNvGGPxI8hGuOFU</rdf:li>
        <rdf:li>ipfs://bafkreihj7iub3fhmhq6jn62noukt5wxn3gv6bvcg7wmt6ywvlurefezckq</rdf:li>
      </rdf:Bag>
      </dc:creator>
    </rdf:Description>
  </rdf:RDF>
</metadata>
<rect width="100%" height="100%" fill="#1b1f23"/>
<g transform="translate(0.000000,1000.000000) scale(0.100000,-0.100000)"
fill="#ffffff" stroke="none">
<path d="M4705 7739 c129 -55 297 -90 321 -67 13 14 -19 38 -70 53 -42 12
-275 46 -311 45 -5 0 22 -14 60 -31z"/>
<path d="M5381 7766 c8 -8 180 -66 193 -65 6 0 -26 13 -72 29 -110 38 -128 44
-121 36z"/>
<path d="M5598 7693 c7 -3 16 -2 19 1 4 3 -2 6 -13 5 -11 0 -14 -3 -6 -6z"/>
<path d="M4285 7580 c-55 -10 -122 -22 -150 -27 -50 -7 -50 -7 5 -15 30 -4
121 -11 201 -17 155 -11 223 -23 276 -47 36 -18 53 -52 32 -65 -8 -5 -99 -9
-202 -9 -257 0 -405 -33 -629 -140 -103 -48 -103 -48 -58 -49 25 0 86 6 135
14 50 8 189 20 310 25 297 14 390 24 460 50 105 38 135 42 265 36 226 -11 392
-48 545 -120 110 -53 188 -111 286 -213 92 -97 447 -554 552 -710 243 -363
360 -764 361 -1238 0 -186 -3 -229 -28 -375 -37 -214 -39 -300 -8 -367 24 -49
24 -49 -3 -129 -56 -163 -152 -308 -324 -487 -155 -161 -341 -287 -589 -397
-170 -76 -261 -99 -442 -110 -420 -27 -722 -53 -784 -67 -115 -26 -249 1 -306
62 -33 36 -20 59 28 51 117 -21 221 -18 542 18 684 77 785 103 1040 270 175
115 317 267 391 420 57 118 59 135 15 220 -29 56 -42 103 -65 226 -24 128 -41
187 -99 335 -88 227 -109 275 -159 355 -22 36 -61 108 -86 160 -25 52 -69 127
-98 165 -62 84 -437 457 -529 526 -266 201 -745 306 -1178 258 -118 -13 -422
-69 -552 -103 -161 -41 -208 -63 -278 -130 -64 -62 -231 -294 -176 -245 84 75
201 141 314 178 75 25 291 69 501 103 191 30 529 33 684 4 220 -40 455 -131
627 -241 279 -180 588 -475 588 -561 0 -47 -38 -25 -181 106 -157 145 -220
189 -395 283 -534 285 -864 340 -1447 243 -78 -13 -182 -27 -232 -30 -153 -11
-262 -49 -332 -119 -48 -46 -53 -62 -21 -70 26 -7 78 4 174 36 125 43 181 44
172 2 -5 -27 -109 -80 -228 -117 -92 -29 -110 -39 -150 -79 -52 -53 -159 -235
-132 -224 9 4 26 10 37 13 11 3 49 24 85 47 36 23 135 76 220 118 85 41 193
100 238 132 106 72 147 90 269 117 83 19 129 22 308 23 291 0 410 -27 687
-156 155 -72 248 -103 362 -119 97 -14 163 -54 302 -178 65 -59 150 -132 187
-161 83 -65 151 -159 205 -284 118 -269 155 -580 90 -764 -35 -98 -102 -194
-201 -290 -148 -142 -293 -210 -561 -264 -349 -69 -558 -100 -799 -119 -90 -7
-143 -16 -174 -30 -25 -11 -53 -20 -63 -20 -35 0 -153 42 -271 96 -122 56
-158 64 -178 40 -23 -28 16 -83 112 -155 100 -75 386 -240 524 -301 293 -132
323 -139 563 -140 182 0 300 13 376 41 60 23 96 61 75 82 -15 15 -60 15 -301
-1 -277 -19 -484 1 -514 51 -8 13 -8 20 2 26 7 4 178 11 379 15 367 6 367 6
418 -19 30 -14 69 -25 94 -25 61 0 239 61 445 153 99 44 227 97 284 118 131
47 190 83 321 195 140 120 201 187 299 332 46 67 99 134 120 149 48 35 92 75
92 84 0 4 -28 -5 -62 -18 -59 -24 -62 -24 -75 -7 -20 27 -8 70 63 235 117 273
149 443 149 804 0 259 -8 340 -56 580 -63 309 -204 651 -375 907 -95 143 -319
433 -391 506 -45 46 -56 53 -85 50 -77 -7 -44 -70 206 -393 171 -220 240 -318
311 -438 173 -296 283 -636 316 -972 14 -148 6 -415 -16 -545 -19 -110 -75
-287 -110 -346 -41 -70 -111 -115 -130 -84 -3 5 10 57 30 115 174 520 124
1133 -134 1655 -80 162 -162 290 -334 517 -188 250 -230 313 -257 393 -31 92
-35 97 -115 176 -76 74 -97 116 -72 142 13 12 28 11 123 -11 155 -36 173 -38
234 -22 30 7 48 14 39 14 -8 1 -73 24 -144 52 -114 46 -139 52 -234 59 -92 6
-133 16 -307 73 -267 86 -334 101 -432 93 -218 -18 -225 -18 -332 4 -150 31
-353 35 -485 10z"/>
<path d="M4730 7157 c-3 -2 -115 -10 -250 -16 -556 -26 -569 -28 -709 -72 -69
-22 -150 -43 -178 -46 -29 -3 -53 -9 -53 -13 0 -4 19 -16 42 -26 40 -18 74
-19 623 -19 522 0 588 -2 663 -18 111 -24 213 -61 288 -104 61 -35 61 -35 56
-83 -6 -61 27 -162 69 -213 17 -21 119 -104 227 -184 215 -160 336 -273 431
-402 112 -153 194 -312 172 -334 -22 -22 -62 16 -174 165 -113 152 -232 276
-317 334 -51 35 -362 203 -431 233 -47 21 -402 107 -564 137 -119 22 -512 31
-627 15 -46 -7 -141 -32 -213 -57 -152 -51 -229 -70 -343 -83 -70 -7 -92 -15
-138 -45 -48 -32 -228 -206 -220 -213 4 -4 93 22 186 56 82 29 551 136 715
162 103 17 404 17 520 1 220 -31 454 -96 600 -168 127 -61 195 -118 244 -203
24 -40 90 -121 158 -193 166 -175 234 -257 323 -389 82 -121 131 -172 159
-167 39 8 12 114 -60 234 -56 93 -196 260 -346 416 -79 81 -143 154 -143 162
0 26 38 29 88 5 26 -13 87 -62 136 -109 107 -102 352 -405 385 -475 31 -66 40
-169 17 -213 -9 -17 -16 -40 -16 -52 0 -29 97 -364 121 -419 25 -57 46 -80 87
-98 32 -13 32 -13 32 -212 0 -236 6 -288 32 -302 31 -17 79 19 110 82 22 43
32 85 48 215 11 88 26 191 34 230 58 280 40 651 -49 998 -56 219 -122 365
-255 563 -165 245 -490 609 -625 700 -134 90 -279 145 -491 188 -112 23 -352
44 -364 32z m695 -346 c91 -43 176 -111 328 -260 284 -278 459 -528 530 -756
82 -263 139 -888 94 -1037 -17 -56 -57 -103 -81 -95 -7 2 -12 42 -13 103 -1
54 -8 164 -17 244 -8 80 -20 196 -26 258 -6 62 -19 156 -30 208 -14 69 -18
115 -14 163 6 58 3 78 -23 151 -59 171 -174 334 -382 540 -176 176 -356 328
-537 454 -27 19 -27 19 -4 38 34 28 103 24 175 -11z"/>
<path d="M6330 7071 c0 -17 95 -123 221 -246 90 -88 109 -104 73 -60 -135 165
-271 315 -286 315 -4 0 -8 -4 -8 -9z"/>
<path d="M3628 6839 c-95 -22 -239 -118 -314 -209 -57 -68 -59 -74 -9 -33 130
107 343 145 464 83 44 -22 48 -22 300 -15 377 10 579 -11 841 -86 74 -21 149
-39 166 -39 99 0 46 119 -83 188 -163 85 -307 104 -822 108 -223 1 -428 4
-455 7 -28 3 -68 1 -88 -4z"/>
<path d="M3545 6606 c-68 -16 -185 -74 -185 -91 0 -8 10 -20 22 -26 47 -25
278 15 337 59 30 22 39 51 19 63 -19 12 -134 9 -193 -5z"/>
<path d="M3932 5520 c-141 -15 -236 -45 -421 -135 -200 -98 -338 -178 -399
-230 -60 -52 -114 -168 -152 -330 -17 -71 -34 -139 -36 -150 -8 -30 34 22 110
135 116 173 262 297 459 390 278 131 488 159 732 95 206 -54 334 -123 443
-239 156 -167 254 -354 282 -541 36 -239 -94 -487 -311 -594 -86 -42 -201 -71
-284 -71 -75 0 -197 29 -265 62 -154 75 -250 246 -250 445 0 156 95 353 171
353 33 0 32 -25 -5 -138 -58 -174 -58 -277 1 -395 115 -229 464 -269 669 -75
96 91 144 201 144 332 0 159 -61 297 -190 427 -120 122 -238 179 -373 179 -56
0 -59 -1 -120 -58 -34 -32 -101 -81 -148 -110 -156 -94 -257 -237 -293 -414
-27 -131 -21 -186 45 -393 58 -184 60 -187 125 -230 127 -85 284 -128 464
-128 191 0 339 39 471 124 202 131 333 396 316 639 -14 190 -90 360 -349 779
-110 180 -498 305 -836 271z m506 -785 c68 -21 152 -97 188 -173 38 -79 40
-194 5 -266 -55 -112 -149 -171 -271 -171 -66 0 -83 5 -130 31 -75 42 -112 97
-118 172 -3 40 1 68 11 88 9 17 25 68 36 114 23 92 60 163 94 182 69 40 110
45 185 23z"/>
<path d="M4359 4512 c-31 -26 -31 -78 1 -104 19 -16 22 -23 13 -36 -16 -24
-64 -19 -109 12 -21 14 -46 26 -56 26 -38 0 -29 -71 15 -118 34 -36 73 -53
126 -54 154 -1 231 180 115 271 -33 26 -75 27 -105 3z"/>
<path d="M5114 5306 c-9 -22 18 -63 106 -166 104 -122 176 -217 228 -304 163
-272 175 -604 32 -847 -69 -116 -232 -264 -300 -271 -20 -2 -26 2 -28 23 -3
26 9 46 115 185 63 83 116 186 140 274 27 99 25 300 -5 405 -31 109 -96 241
-173 355 -225 331 -245 354 -290 330 -40 -22 -23 -68 107 -288 162 -273 206
-398 207 -587 1 -176 -46 -308 -175 -497 -97 -141 -173 -202 -325 -257 -165
-61 -391 -89 -565 -71 -131 13 -242 44 -443 121 -256 99 -263 101 -285 89 -11
-6 -20 -21 -20 -34 0 -38 60 -117 127 -167 52 -40 73 -49 134 -59 40 -7 132
-31 204 -54 130 -41 130 -41 320 -40 270 2 464 31 721 110 71 22 165 42 234
50 101 12 125 18 200 56 69 34 104 61 181 138 79 79 103 110 137 180 23 47 48
110 56 141 62 246 -10 578 -175 799 -74 98 -289 317 -359 363 -57 39 -97 47
-106 23z"/>
<path d="M3890 5174 c-150 -29 -336 -87 -423 -132 -166 -86 -342 -308 -377
-477 -16 -77 -17 -297 -1 -400 37 -238 127 -491 243 -683 188 -311 417 -531
693 -667 318 -155 594 -216 920 -201 524 24 492 21 600 57 209 70 561 268 634
356 38 46 40 79 6 95 -35 16 -69 4 -286 -101 -165 -79 -432 -191 -562 -235
-192 -65 -590 -73 -807 -17 -197 50 -483 181 -676 309 -145 96 -219 163 -282
251 -26 36 -80 111 -121 166 -81 110 -105 158 -127 255 -8 36 -33 119 -54 185
-66 204 -74 357 -29 533 21 85 81 217 130 289 74 107 193 203 254 203 38 0 32
-29 -20 -97 -117 -150 -168 -240 -207 -363 -32 -104 -32 -305 0 -394 37 -101
81 -150 177 -197 67 -33 97 -36 115 -14 16 19 7 42 -51 131 -59 91 -82 163
-87 276 -7 165 27 274 154 478 81 132 122 173 213 216 182 85 186 88 186 113
0 36 -51 63 -128 66 -34 2 -73 1 -87 -1z"/>
<path d="M6729 3414 c-13 -15 -54 -46 -90 -69 -106 -69 -244 -207 -315 -316
-35 -54 -88 -119 -121 -148 -150 -135 -452 -302 -686 -380 -80 -27 -140 -53
-164 -73 -123 -99 -369 -151 -723 -152 -155 0 -155 0 -70 -14 130 -20 423 -19
545 2 145 26 520 153 654 221 209 107 442 280 567 421 33 38 127 152 208 254
81 102 165 206 187 233 43 50 48 64 8 21z"/>
<path d="M3610 2896 c0 -8 190 -150 281 -209 177 -116 412 -213 618 -258 151
-32 429 -38 587 -11 125 22 189 44 199 70 16 42 -52 52 -226 36 -331 -31 -566
-7 -850 86 -117 39 -514 223 -580 270 -16 12 -29 19 -29 16z"/>
</g>
</svg>
