<?xml version="1.0" standalone="no"?>
<!DOCTYPE svg PUBLIC "-//W3C//DTD SVG 20010904//EN"
 "http://www.w3.org/TR/2001/REC-SVG-20010904/DTD/svg10.dtd">
<svg version="1.0" xmlns="http://www.w3.org/2000/svg"
 width="1000.000000pt" height="1000.000000pt" viewBox="0 0 1000.000000 1000.000000"
 preserveAspectRatio="xMidYMid meet">
<metadata>
  <rdf:RDF
    xmlns:rdf = "http://www.w3.org/1999/02/22-rdf-syntax-ns#"
    xmlns:rdfs = "http://www.w3.org/2000/01/rdf-schema#"
    xmlns:dc = "http://purl.org/dc/elements/1.1/"
    xmlns:cc = "http://creativecommons.org/ns#">
    <cc:license rdf:resource="http://creativecommons.org/publicdomain/zero/1.0/deed.en"/>
    <cc:permits rdf:resource="http://creativecommons.org/ns#Reproduction"/>
    <rdf:Description about="https://nft.mir.one/fingerprints"
      dc:title="TON Fingerprints"
      dc:description="This is a unique digital fingerprint created based on the algorithm for generating basic rings using a noise texture. Like human fingerprints, you can now use it for the Web3 and Metaverse era as digital biometric information."
      dc:publisher="https://nft.mir.one"
      dc:date="2022-02-22"
      dc:format="image/svg+xml"
      dc:language="en" >
      <dc:creator>
      <rdf:Bag>
        <rdf:li>EQBondcvD2_aOFADXSWJHs4ZazQDuEl9_wNvGGPxI8hGuOFU</rdf:li>
        <rdf:li>ipfs://bafkreihj7iub3fhmhq6jn62noukt5wxn3gv6bvcg7wmt6ywvlurefezckq</rdf:li>
      </rdf:Bag>
      </dc:creator>
    </rdf:Description>
  </rdf:RDF>
</metadata>
<rect width="100%" height="100%" fill="#1b1f23"/>
<g transform="translate(0.000000,1000.000000) scale(0.100000,-0.100000)"
fill="#ffffff" stroke="none">
<path d="M4830 7764 c63 -14 180 -38 260 -55 407 -82 659 -184 962 -385 315
-210 456 -362 633 -681 37 -68 70 -123 72 -123 6 0 -78 156 -139 258 -268 446
-757 808 -1263 936 -178 44 -433 77 -589 75 -45 0 -38 -3 64 -25z"/>
<path d="M4465 7580 c-55 -5 -175 -24 -267 -42 -168 -32 -168 -32 -120 -46
139 -40 523 -89 832 -107 320 -18 450 -44 651 -130 368 -158 725 -508 933
-914 105 -206 156 -406 156 -617 0 -57 11 -173 26 -270 17 -112 27 -230 31
-349 5 -186 -2 -235 -32 -235 -26 0 -45 64 -66 224 -25 188 -61 369 -95 476
-21 69 -33 89 -74 128 -52 51 -80 93 -188 278 -107 184 -209 314 -371 474
-176 175 -211 201 -293 212 -95 13 -179 71 -148 102 7 7 29 4 73 -12 77 -28
107 -29 107 -3 0 25 -36 68 -73 88 -38 19 -257 98 -340 121 -61 18 -89 11 -95
-21 -5 -27 327 -351 463 -452 154 -115 417 -376 505 -502 109 -156 256 -407
290 -495 36 -92 79 -260 135 -531 51 -240 48 -286 -34 -622 -67 -268 -99 -351
-199 -512 -145 -234 -392 -513 -572 -645 -99 -73 -328 -212 -372 -227 -40 -13
-112 -1 -185 30 -62 26 -338 48 -382 30 -38 -16 -39 -34 -6 -73 51 -60 8 -76
-68 -25 -48 33 -63 37 -212 57 -218 30 -644 140 -790 205 -31 13 -95 48 -141
76 -59 35 -92 49 -107 46 -12 -3 -37 -10 -56 -14 -34 -8 -34 -8 -5 -27 16 -11
79 -64 141 -119 62 -56 150 -127 195 -160 266 -190 458 -257 794 -277 406 -23
507 -31 591 -45 135 -24 242 -52 350 -94 161 -63 301 -76 468 -42 50 10 83 20
75 23 -8 3 -55 15 -104 27 -101 24 -179 68 -202 113 -17 33 -8 52 29 64 12 4
42 24 66 46 47 41 299 173 409 215 129 48 183 83 287 188 102 102 194 228 297
405 64 111 144 257 136 250 -3 -3 -75 -97 -159 -210 -84 -113 -196 -249 -248
-304 -104 -107 -221 -196 -257 -196 -57 0 -37 36 104 184 200 210 309 364 448
631 90 174 140 317 154 450 6 55 23 181 37 280 56 406 48 652 -37 1135 -16 91
-34 206 -40 257 -16 144 -25 144 -28 0 -2 -103 5 -184 30 -372 29 -217 32
-265 32 -495 0 -254 0 -255 -31 -371 -64 -240 -82 -286 -135 -342 -52 -55 -86
-119 -124 -231 -30 -88 -31 -126 -4 -126 40 0 86 69 141 210 46 120 60 134 80
83 26 -66 -33 -224 -135 -362 -35 -47 -105 -150 -154 -228 -109 -172 -165
-248 -307 -418 -59 -71 -129 -162 -156 -201 -57 -85 -95 -119 -253 -226 -65
-44 -150 -108 -188 -140 -38 -33 -81 -63 -96 -67 -34 -10 -88 2 -113 25 -36
32 -24 51 59 93 84 42 256 160 366 249 171 140 505 578 623 817 54 109 54 110
48 180 -7 86 12 167 83 345 27 69 59 159 71 200 13 41 35 95 50 120 52 85 63
133 68 300 4 128 -1 207 -26 450 -52 492 -62 549 -138 735 -100 247 -253 482
-438 674 -313 324 -706 517 -1195 586 -138 19 -436 27 -575 15z"/>
<path d="M4053 7274 c-107 -19 -192 -52 -358 -140 -109 -58 -109 -58 -64 -68
29 -7 85 -8 164 -3 227 16 540 -23 710 -87 146 -56 216 -106 470 -335 217
-196 268 -249 330 -346 33 -51 97 -128 160 -190 58 -58 107 -115 109 -127 2
-13 9 -52 15 -87 8 -50 27 -94 92 -208 156 -276 219 -463 219 -654 0 -83 -33
-341 -61 -474 -11 -55 -43 -169 -70 -254 -50 -156 -54 -191 -18 -191 83 0 188
277 239 628 13 87 32 171 46 206 29 72 30 131 5 247 -52 235 -170 477 -337
690 -62 78 -57 106 15 87 44 -12 142 -110 205 -205 111 -168 181 -327 246
-554 22 -79 52 -171 65 -205 83 -212 77 -433 -20 -734 -78 -240 -250 -502
-499 -759 -188 -193 -376 -310 -376 -233 0 9 80 95 179 191 176 174 272 285
410 476 169 233 263 513 265 785 0 129 -19 192 -61 198 -28 4 -39 -33 -48
-158 -22 -320 -111 -576 -256 -734 -36 -40 -112 -135 -169 -211 -60 -80 -161
-196 -239 -274 -138 -140 -182 -197 -226 -296 -45 -102 -26 -145 63 -145 194
0 441 163 685 453 255 302 367 517 441 848 58 262 55 360 -21 664 -59 236
-103 366 -168 497 -121 240 -244 405 -400 536 -309 260 -662 599 -773 742 -36
47 -83 104 -103 126 -47 53 -69 95 -69 134 0 37 1 37 -213 89 -286 70 -474 94
-584 75z"/>
<path d="M4989 7230 c-58 -10 -105 -34 -120 -61 -6 -11 -9 -22 -7 -24 2 -2 39
-18 82 -35 66 -27 100 -33 200 -40 141 -10 240 -37 386 -108 92 -44 101 -52
292 -244 308 -309 402 -436 559 -754 55 -111 107 -205 116 -208 52 -20 60 75
18 219 -59 202 -210 463 -389 672 -285 331 -565 512 -879 567 -111 20 -203 25
-258 16z"/>
<path d="M3835 6874 c-180 -26 -198 -34 -249 -108 -19 -28 -83 -94 -141 -146
-92 -82 -156 -151 -279 -298 -28 -32 -28 -32 26 -5 29 14 85 48 124 74 113 76
347 207 421 236 58 23 83 27 173 27 86 0 115 -4 160 -23 34 -14 101 -28 180
-37 220 -26 334 -68 371 -135 20 -38 -4 -49 -107 -49 -118 0 -233 -16 -298
-42 -53 -20 -280 -166 -353 -225 -34 -28 -46 -47 -64 -103 -17 -56 -43 -97
-140 -225 -65 -86 -139 -192 -164 -235 -81 -138 -131 -283 -141 -410 -8 -95
32 -701 52 -799 45 -216 182 -435 471 -754 44 -49 101 -123 126 -165 56 -95
75 -113 157 -151 135 -63 318 -92 460 -73 181 24 278 66 479 205 201 140 374
311 456 451 75 128 95 182 95 256 0 39 17 128 49 253 60 234 83 391 83 562 1
202 -38 356 -135 546 -145 281 -275 449 -390 503 -73 34 -322 85 -452 93 -233
13 -498 -74 -686 -225 -188 -152 -363 -404 -429 -617 -64 -211 -64 -508 0
-743 59 -213 201 -429 373 -568 166 -133 286 -179 445 -172 162 8 268 63 427
223 392 393 481 916 221 1295 -16 25 -74 89 -128 144 -70 70 -98 105 -98 122
0 38 24 39 97 5 97 -46 212 -166 274 -286 82 -158 109 -271 109 -451 0 -261
-78 -500 -248 -753 -72 -108 -247 -337 -301 -394 -89 -94 -206 -140 -356 -140
-173 0 -291 52 -481 214 -200 170 -367 408 -437 624 -53 163 -83 424 -74 635
12 279 85 460 297 742 230 305 351 389 711 489 223 62 243 61 447 -5 100 -33
155 -46 185 -44 39 3 42 5 45 35 4 42 -37 83 -199 198 -68 49 -170 125 -226
171 -56 45 -128 97 -160 116 -120 70 -274 121 -449 147 -81 12 -284 22 -329
15z m1206 -1015 c103 -24 186 -69 263 -139 133 -123 261 -343 312 -535 49
-186 44 -427 -12 -680 -71 -317 -162 -535 -224 -535 -25 0 -70 -38 -70 -61 0
-25 32 -25 55 1 37 41 65 12 37 -38 -9 -17 -33 -43 -52 -58 -19 -16 -68 -59
-108 -97 -83 -77 -127 -107 -159 -107 -19 0 -23 6 -23 29 0 30 26 73 97 160
26 31 59 83 74 117 15 34 57 103 91 155 214 316 283 845 153 1174 -90 228
-260 411 -421 454 -66 18 -440 -3 -534 -29 -113 -32 -220 -93 -306 -173 -124
-116 -192 -225 -240 -384 -23 -76 -27 -106 -27 -223 0 -118 4 -146 27 -225 84
-278 297 -465 529 -465 138 0 261 54 372 166 186 185 237 450 129 673 -37 75
-142 179 -219 217 -54 26 -70 29 -155 29 -85 0 -101 -3 -149 -29 -219 -115
-285 -412 -132 -596 66 -80 192 -118 287 -86 171 57 235 277 105 363 -42 29
-80 29 -115 2 -21 -16 -26 -28 -24 -53 3 -27 7 -32 38 -36 30 -4 35 -9 38 -36
4 -38 -23 -64 -76 -71 -76 -10 -138 47 -149 136 -8 67 29 146 88 186 81 57
194 44 277 -30 185 -166 116 -480 -131 -595 -83 -39 -155 -47 -237 -26 -356
91 -448 608 -159 897 94 95 192 141 309 147 47 2 103 -1 126 -7 98 -26 282
-185 352 -303 110 -185 123 -435 34 -642 -79 -184 -229 -353 -381 -431 -217
-110 -457 -64 -650 125 -333 324 -370 893 -85 1280 169 229 388 362 659 399
98 13 288 4 386 -20z"/>
<path d="M3473 6825 c-41 -18 -114 -68 -88 -61 11 2 38 9 60 15 52 13 84 36
70 50 -7 6 -21 5 -42 -4z"/>
<path d="M3865 6515 c-161 -43 -451 -197 -560 -297 -80 -73 -193 -249 -275
-427 -39 -84 -70 -155 -70 -156 0 -9 103 109 162 185 77 100 216 237 308 305
73 53 145 91 255 135 196 78 355 177 355 221 0 45 -77 61 -175 34z"/>
<path d="M6790 6445 c0 -5 5 -17 10 -25 5 -8 10 -10 10 -5 0 6 -5 17 -10 25
-5 8 -10 11 -10 5z"/>
<path d="M6871 6234 c0 -11 3 -14 6 -6 3 7 2 16 -1 19 -3 4 -6 -2 -5 -13z"/>
<path d="M3606 6094 c-173 -89 -422 -376 -497 -573 -22 -57 -56 -189 -106
-411 -24 -109 -28 -145 -28 -285 1 -193 15 -272 83 -446 27 -68 63 -164 81
-214 62 -168 132 -289 285 -490 183 -239 246 -307 320 -341 78 -36 125 -41
154 -17 21 16 22 22 12 48 -6 17 -62 82 -124 145 -256 261 -468 582 -523 792
-15 58 -16 80 -6 180 18 175 -4 470 -42 578 -47 133 19 371 165 595 68 104
112 157 237 286 96 100 124 143 108 168 -11 19 -68 11 -119 -15z m-487 -1076
c8 -21 23 -312 25 -473 1 -62 -1 -70 -18 -70 -48 0 -84 111 -93 285 -6 122 6
217 32 257 20 29 43 30 54 1z"/>
<path d="M3101 3830 c9 -14 41 -65 72 -115 30 -49 83 -128 116 -175 33 -47 75
-106 92 -132 41 -61 69 -65 69 -10 0 48 -25 86 -151 236 -94 111 -227 243
-198 196z"/>
<path d="M6320 2919 c-58 -21 -195 -68 -304 -106 -207 -71 -240 -90 -202 -119
45 -32 180 -3 324 70 68 35 315 197 297 195 -5 -1 -57 -19 -115 -40z"/>
<path d="M3910 2596 c0 -2 53 -32 118 -67 138 -73 284 -162 302 -184 7 -8 17
-15 23 -15 6 0 1 10 -10 23 -11 12 -32 43 -47 68 -34 60 -103 97 -256 139 -62
17 -117 33 -122 36 -4 3 -8 3 -8 0z"/>
<path d="M4425 2510 c-9 -10 -15 -25 -12 -33 8 -22 160 -96 239 -116 117 -30
270 -41 577 -41 157 -1 305 -5 329 -9 23 -5 42 -7 42 -6 0 1 -20 16 -45 34
-80 57 -264 98 -645 141 -102 11 -223 27 -270 35 -123 21 -193 20 -215 -5z"/>
</g>
</svg>
