<?xml version="1.0" standalone="no"?>
<!DOCTYPE svg PUBLIC "-//W3C//DTD SVG 20010904//EN"
 "http://www.w3.org/TR/2001/REC-SVG-20010904/DTD/svg10.dtd">
<svg version="1.0" xmlns="http://www.w3.org/2000/svg"
 width="1000.000000pt" height="1000.000000pt" viewBox="0 0 1000.000000 1000.000000"
 preserveAspectRatio="xMidYMid meet">
<metadata>
  <rdf:RDF
    xmlns:rdf = "http://www.w3.org/1999/02/22-rdf-syntax-ns#"
    xmlns:rdfs = "http://www.w3.org/2000/01/rdf-schema#"
    xmlns:dc = "http://purl.org/dc/elements/1.1/"
    xmlns:cc = "http://creativecommons.org/ns#">
    <cc:license rdf:resource="http://creativecommons.org/publicdomain/zero/1.0/deed.en"/>
    <cc:permits rdf:resource="http://creativecommons.org/ns#Reproduction"/>
    <rdf:Description about="https://nft.mir.one/fingerprints"
      dc:title="TON Fingerprints"
      dc:description="This is a unique digital fingerprint created based on the algorithm for generating basic rings using a noise texture. Like human fingerprints, you can now use it for the Web3 and Metaverse era as digital biometric information."
      dc:publisher="https://nft.mir.one"
      dc:date="2022-02-22"
      dc:format="image/svg+xml"
      dc:language="en" >
      <dc:creator>
      <rdf:Bag>
        <rdf:li>EQBondcvD2_aOFADXSWJHs4ZazQDuEl9_wNvGGPxI8hGuOFU</rdf:li>
        <rdf:li>ipfs://bafkreihj7iub3fhmhq6jn62noukt5wxn3gv6bvcg7wmt6ywvlurefezckq</rdf:li>
      </rdf:Bag>
      </dc:creator>
    </rdf:Description>
  </rdf:RDF>
</metadata>
<rect width="100%" height="100%" fill="#1b1f23"/>
<g transform="translate(0.000000,1000.000000) scale(0.100000,-0.100000)"
fill="#ffffff" stroke="none">
<path d="M4823 7753 c25 -27 100 -81 164 -122 384 -242 459 -302 553 -441 32
-47 108 -145 170 -219 200 -240 319 -415 429 -629 85 -167 131 -310 210 -655
111 -485 131 -622 131 -922 0 -394 -73 -746 -218 -1046 -75 -153 -120 -216
-279 -383 -157 -164 -233 -258 -233 -286 0 -10 6 -23 14 -30 27 -21 99 22 203
123 122 118 164 147 213 147 36 0 41 4 78 63 55 86 144 267 191 384 122 308
178 592 188 953 8 321 -11 493 -93 839 -25 102 -63 267 -85 366 -115 508 -270
788 -673 1214 -138 145 -163 191 -105 191 80 0 358 -248 519 -462 211 -281
307 -518 385 -953 15 -82 51 -233 80 -335 82 -289 105 -450 105 -761 0 -464
-81 -850 -275 -1299 -37 -85 -89 -213 -116 -283 -91 -239 -166 -336 -489 -632
-155 -143 -273 -258 -245 -241 241 151 544 417 679 596 162 214 362 636 466
980 91 304 133 600 133 940 1 368 -30 571 -112 735 -68 136 -81 187 -81 315 0
87 -5 120 -25 179 -16 47 -26 102 -28 154 -3 70 -10 97 -46 182 -70 163 -190
369 -290 495 -188 238 -423 431 -605 500 -45 17 -160 69 -256 115 -96 46 -233
107 -305 135 -118 47 -379 140 -393 140 -4 0 15 -21 41 -47z"/>
<path d="M5455 7741 c6 -5 127 -70 270 -143 143 -74 274 -142 290 -153 20 -12
25 -13 15 -3 -25 27 -199 126 -335 193 -162 79 -253 119 -240 106z"/>
<path d="M4295 7603 c-22 -2 -55 -6 -74 -9 -34 -6 -34 -6 9 -30 24 -14 82 -36
129 -49 427 -121 657 -246 915 -495 195 -189 411 -460 435 -545 18 -64 -10
-100 -55 -70 -13 8 -77 80 -144 159 -227 273 -409 447 -587 563 -121 79 -198
110 -362 148 -80 19 -184 45 -230 59 -138 42 -269 30 -492 -47 -97 -33 -97
-33 -60 -46 20 -7 86 -21 146 -32 183 -32 339 -85 416 -142 69 -49 845 -840
925 -942 39 -49 112 -146 161 -215 50 -69 131 -172 181 -229 49 -57 110 -138
136 -180 122 -202 190 -544 164 -816 -6 -61 -12 -166 -13 -235 -1 -121 -3
-130 -48 -265 -102 -302 -259 -557 -477 -775 -102 -102 -201 -180 -380 -300
-80 -54 -152 -106 -161 -116 -45 -52 -26 -91 39 -81 81 13 334 161 485 285 94
77 213 205 318 344 160 212 246 380 341 662 41 123 51 162 49 211 -3 83 -3
140 0 365 2 211 -10 319 -57 503 -53 211 -95 293 -220 433 -53 60 -140 174
-192 254 -122 184 -163 239 -283 375 -180 204 -393 411 -627 608 -50 42 -99
88 -108 102 -40 60 22 73 121 24 157 -77 410 -305 763 -688 122 -131 138 -153
193 -263 80 -159 161 -289 204 -327 40 -34 46 -36 63 -19 29 29 5 113 -91 311
-36 73 -67 140 -70 150 -10 28 3 47 33 47 40 0 102 -74 156 -187 56 -117 84
-224 84 -322 0 -78 3 -91 65 -316 83 -303 112 -564 95 -881 -5 -104 -17 -228
-26 -274 -37 -197 -152 -476 -270 -658 -114 -176 -357 -470 -441 -534 -76 -59
-280 -186 -368 -230 -108 -54 -140 -62 -270 -63 -120 -2 -120 -2 -265 -59
-191 -76 -243 -87 -355 -73 -104 12 -234 -2 -292 -32 -45 -23 -48 -22 117 -51
144 -26 190 -44 190 -72 0 -26 -17 -57 -49 -91 -26 -28 -26 -28 0 -19 14 6 79
17 145 27 182 25 221 34 303 72 42 19 149 64 238 98 197 78 289 124 447 222
141 89 168 101 234 107 27 3 56 8 64 11 24 9 53 55 72 112 24 71 73 144 211
308 146 174 210 271 279 416 150 317 202 596 193 1019 -6 276 -15 338 -102
740 -121 550 -124 558 -330 895 -124 202 -214 329 -350 491 -224 269 -332 366
-570 509 -226 135 -296 156 -522 153 -76 -1 -156 -3 -178 -5z m1715 -3131 c0
-18 -33 -52 -51 -52 -23 0 -24 8 -3 38 14 21 54 31 54 14z"/>
<path d="M6080 7406 c0 -2 8 -10 18 -17 15 -13 16 -12 3 4 -13 16 -21 21 -21
13z"/>
<path d="M3772 7035 c-68 -19 -136 -48 -240 -103 -83 -44 -83 -44 -52 -63 25
-16 51 -19 148 -19 206 0 375 -30 538 -96 105 -42 229 -113 285 -163 38 -34
42 -40 30 -55 -23 -27 -80 -18 -244 39 -203 71 -329 96 -477 97 -222 1 -266
-21 -516 -262 -90 -87 -90 -87 -40 -75 28 6 83 24 121 40 182 73 391 113 530
100 185 -17 568 -113 701 -176 212 -100 492 -387 609 -624 31 -63 56 -138 84
-250 22 -88 58 -216 80 -285 56 -176 60 -196 71 -313 29 -301 -70 -688 -243
-948 -43 -65 -105 -129 -124 -129 -32 0 -20 41 65 218 136 283 187 464 198
707 9 181 -4 255 -66 380 -32 65 -63 152 -89 246 -22 81 -51 175 -65 209 -113
278 -377 548 -654 671 -184 81 -446 139 -629 139 -167 0 -412 -58 -505 -120
-50 -33 -133 -123 -212 -230 -27 -36 -54 -72 -60 -80 -9 -12 -8 -13 4 -4 8 6
29 16 45 21 17 6 70 33 119 61 93 54 211 100 336 134 112 29 348 36 477 13
444 -79 835 -393 957 -767 36 -111 48 -211 36 -305 -6 -43 -17 -145 -26 -228
-41 -401 -143 -702 -362 -1065 -114 -190 -135 -243 -116 -294 17 -44 70 1 183
154 83 111 118 177 204 380 141 333 185 502 210 811 15 178 26 223 54 217 53
-10 55 -332 3 -570 -25 -117 -77 -268 -148 -435 -32 -76 -71 -177 -85 -224
-54 -175 -251 -385 -357 -381 -42 2 -48 -2 -106 -73 -123 -151 -411 -278 -714
-316 -84 -10 -169 -35 -170 -49 0 -5 28 -17 170 -76 30 -12 91 -30 135 -39 81
-16 81 -16 238 15 171 34 272 64 387 118 41 19 128 56 192 82 138 56 247 122
401 243 321 254 518 522 631 859 53 156 77 345 77 598 0 163 -11 249 -48 395
-58 221 -145 373 -252 437 -60 36 -80 58 -167 190 -160 242 -303 405 -534 609
-116 102 -152 141 -206 222 -133 197 -345 338 -597 397 -124 28 -157 30 -215
15z m1699 -1555 c117 -225 179 -487 179 -752 0 -418 -130 -785 -375 -1057 -93
-102 -427 -379 -528 -437 -117 -67 -123 16 -8 113 31 26 108 95 171 154 63 58
150 131 192 162 127 93 222 225 309 428 91 210 124 377 123 629 0 212 -12 285
-89 536 -25 82 -48 168 -52 191 -15 106 31 125 78 33z"/>
<path d="M6750 6216 c0 -28 45 -86 66 -86 21 0 17 18 -13 66 -31 49 -53 57
-53 20z"/>
<path d="M3590 5965 c-134 -25 -302 -92 -396 -156 -54 -37 -130 -148 -203
-298 -32 -67 -65 -128 -71 -136 -11 -13 -6 -13 26 1 21 9 78 57 133 113 203
206 429 305 696 304 143 -1 240 -23 360 -83 151 -75 247 -174 261 -269 3 -25
22 -100 41 -166 49 -167 62 -251 63 -391 0 -201 -40 -374 -129 -554 -92 -187
-192 -310 -252 -310 -30 0 -31 2 -26 30 4 16 33 72 65 122 172 271 242 472
242 697 0 154 -40 321 -112 471 -71 149 -196 246 -364 286 -104 24 -274 15
-379 -20 -202 -69 -352 -193 -406 -336 -31 -82 -45 -213 -32 -298 27 -173 118
-277 283 -324 57 -17 61 -45 10 -70 -98 -49 -233 4 -325 127 -83 111 -110 225
-99 421 6 125 5 133 -15 153 -25 25 -51 30 -31 6 10 -12 11 -49 6 -158 -10
-231 21 -405 102 -561 25 -49 60 -103 77 -121 93 -92 323 -81 385 19 24 40 42
205 25 239 -5 11 -33 30 -61 41 -141 58 -200 146 -192 289 9 171 119 288 363
389 72 30 90 33 180 33 93 0 105 -2 166 -32 157 -78 260 -248 290 -481 24
-192 -16 -343 -156 -578 -48 -80 -110 -191 -137 -246 -60 -118 -118 -180 -216
-231 -144 -76 -337 -116 -490 -103 -41 4 -94 4 -119 0 -45 -7 -45 -7 -12 -33
18 -14 60 -49 93 -79 34 -29 88 -66 121 -81 58 -28 63 -29 147 -20 197 21 352
86 582 243 229 157 329 276 426 508 91 218 125 397 117 622 -5 171 -20 240
-88 411 -35 86 -40 108 -29 115 47 29 141 -83 184 -218 110 -348 15 -867 -227
-1240 -106 -163 -290 -356 -429 -449 -148 -99 -344 -161 -538 -170 -65 -3
-133 -12 -157 -20 -48 -17 -62 -4 123 -118 85 -52 145 -69 219 -61 197 20 417
114 544 231 76 71 329 456 423 645 153 306 228 650 215 993 -5 157 -22 229
-82 347 -55 107 -116 171 -285 302 -161 125 -298 194 -468 239 -102 27 -334
35 -442 14z"/>
<path d="M6813 5915 c-15 -41 34 -232 68 -266 31 -31 42 -14 36 50 -15 138
-81 275 -104 216z"/>
<path d="M7037 5565 c-6 -61 -3 -125 13 -265 12 -102 25 -246 30 -320 9 -135
9 -135 5 35 -3 94 -11 240 -20 325 -8 85 -16 189 -17 230 -3 75 -3 75 -11 -5z"/>
<path d="M3763 5316 c-23 -20 -25 -26 -14 -40 7 -9 30 -20 51 -26 170 -46 293
-290 260 -518 -10 -74 -30 -135 -48 -146 -21 -13 -30 25 -35 159 -7 206 -45
304 -161 418 -41 40 -65 57 -80 55 -36 -5 -31 -47 15 -118 99 -153 124 -247
117 -439 -6 -169 -43 -237 -184 -337 -118 -84 -231 -124 -355 -124 -104 0
-167 21 -343 112 -10 5 -16 6 -14 1 85 -155 183 -286 242 -323 69 -42 289 -19
421 46 139 67 222 151 338 338 34 55 78 119 99 144 97 111 128 264 93 448 -30
158 -116 288 -227 343 -77 39 -135 41 -175 7z"/>
<path d="M3492 5113 c-52 -25 -82 -77 -82 -141 0 -48 4 -58 34 -88 19 -19 43
-34 54 -34 24 0 44 23 42 47 -4 35 0 43 23 43 13 0 34 -12 48 -26 24 -26 24
-28 24 -222 0 -197 0 -197 23 -200 29 -4 57 20 85 73 30 56 36 237 12 321 -28
98 -113 209 -178 233 -37 14 -46 14 -85 -6z"/>
<path d="M7082 4675 c0 -16 2 -22 5 -12 2 9 2 23 0 30 -3 6 -5 -1 -5 -18z"/>
<path d="M6153 3203 c-115 -134 -190 -207 -292 -287 -60 -47 -143 -124 -195
-184 -81 -92 -289 -296 -495 -484 -73 -68 -73 -68 -17 -43 106 47 191 93 231
125 22 18 108 83 190 145 235 177 526 452 606 575 64 96 81 179 44 210 -10 8
-27 -5 -72 -57z"/>
<path d="M5530 2882 c-19 -9 -81 -52 -138 -95 -176 -134 -309 -214 -557 -337
-142 -70 -256 -134 -280 -155 -27 -24 -33 -34 -20 -31 11 3 69 12 129 21 184
25 351 72 468 131 103 52 388 302 435 381 24 42 28 93 8 100 -6 2 -26 -5 -45
-15z"/>
</g>
</svg>
