<?xml version="1.0" standalone="no"?>
<!DOCTYPE svg PUBLIC "-//W3C//DTD SVG 20010904//EN"
 "http://www.w3.org/TR/2001/REC-SVG-20010904/DTD/svg10.dtd">
<svg version="1.0" xmlns="http://www.w3.org/2000/svg"
 width="1000.000000pt" height="1000.000000pt" viewBox="0 0 1000.000000 1000.000000"
 preserveAspectRatio="xMidYMid meet">
<metadata>
  <rdf:RDF
    xmlns:rdf = "http://www.w3.org/1999/02/22-rdf-syntax-ns#"
    xmlns:rdfs = "http://www.w3.org/2000/01/rdf-schema#"
    xmlns:dc = "http://purl.org/dc/elements/1.1/"
    xmlns:cc = "http://creativecommons.org/ns#">
    <cc:license rdf:resource="http://creativecommons.org/publicdomain/zero/1.0/deed.en"/>
    <cc:permits rdf:resource="http://creativecommons.org/ns#Reproduction"/>
    <rdf:Description about="https://nft.mir.one/fingerprints"
      dc:title="TON Fingerprints"
      dc:description="This is a unique digital fingerprint created based on the algorithm for generating basic rings using a noise texture. Like human fingerprints, you can now use it for the Web3 and Metaverse era as digital biometric information."
      dc:publisher="https://nft.mir.one"
      dc:date="2022-02-22"
      dc:format="image/svg+xml"
      dc:language="en" >
      <dc:creator>
      <rdf:Bag>
        <rdf:li>EQBondcvD2_aOFADXSWJHs4ZazQDuEl9_wNvGGPxI8hGuOFU</rdf:li>
        <rdf:li>ipfs://bafkreihj7iub3fhmhq6jn62noukt5wxn3gv6bvcg7wmt6ywvlurefezckq</rdf:li>
      </rdf:Bag>
      </dc:creator>
    </rdf:Description>
  </rdf:RDF>
</metadata>
<rect width="100%" height="100%" fill="#1b1f23"/>
<g transform="translate(0.000000,1000.000000) scale(0.100000,-0.100000)"
fill="#ffffff" stroke="none">
<path d="M5088 7813 c7 -3 16 -2 19 1 4 3 -2 6 -13 5 -11 0 -14 -3 -6 -6z"/>
<path d="M5138 7803 c6 -2 18 -2 25 0 6 3 1 5 -13 5 -14 0 -19 -2 -12 -5z"/>
<path d="M5236 7781 c211 -60 473 -179 641 -290 174 -115 269 -224 313 -356
12 -35 35 -82 51 -105 69 -95 319 -323 367 -335 15 -3 44 -17 65 -31 28 -19 1
17 -100 133 -187 214 -227 261 -317 380 -171 225 -400 392 -711 518 -90 37
-325 106 -354 104 -9 0 12 -8 45 -18z"/>
<path d="M4830 7629 c-19 -5 -116 -13 -215 -19 -150 -8 -540 -59 -509 -66 5
-1 41 -11 79 -22 39 -11 120 -29 181 -41 155 -28 268 -69 379 -135 108 -65
145 -79 268 -106 165 -36 361 -133 638 -315 308 -203 438 -335 526 -533 37
-83 206 -523 236 -617 93 -283 120 -569 69 -715 -41 -113 -120 -289 -147 -324
-15 -19 -45 -43 -66 -53 -50 -22 -73 -68 -129 -259 -96 -325 -140 -441 -236
-623 -149 -283 -283 -433 -535 -600 -215 -143 -466 -248 -719 -301 -253 -53
-597 -31 -890 57 -254 76 -265 76 -145 -3 122 -79 271 -153 385 -189 76 -25
104 -28 271 -33 274 -7 469 22 734 110 272 89 488 220 675 408 138 137 218
247 340 465 121 216 172 337 239 568 59 202 87 257 132 257 16 0 19 -7 19 -53
0 -124 -64 -392 -124 -521 -46 -100 -255 -470 -317 -564 -262 -390 -555 -589
-1057 -717 -257 -65 -572 -91 -782 -66 -52 7 -133 14 -180 17 -85 5 -85 5 18
-36 204 -80 392 -120 565 -120 146 0 474 67 715 146 227 74 435 197 583 344
117 115 249 317 409 628 39 76 86 149 121 190 32 37 70 88 83 113 72 135 111
482 70 634 -36 137 27 386 94 373 15 -3 17 -17 14 -108 -2 -58 4 -172 12 -254
32 -299 15 -587 -44 -759 -40 -113 -45 -202 -14 -244 21 -28 21 -28 2 -83 -74
-219 -294 -513 -364 -486 -28 11 -13 54 62 171 144 228 194 358 197 515 2 65
0 75 -16 78 -32 6 -54 -26 -117 -171 -34 -78 -97 -205 -140 -282 -42 -77 -101
-186 -129 -242 -43 -84 -65 -114 -129 -175 -128 -122 -337 -258 -492 -318
-118 -46 -658 -166 -860 -190 -47 -6 -125 -16 -175 -23 -90 -13 -90 -13 90
-27 210 -16 377 -6 590 35 72 14 174 30 228 36 115 11 159 25 291 91 157 79
295 169 486 319 47 37 115 84 150 105 125 72 230 205 384 481 96 172 136 268
136 320 0 15 10 117 22 227 20 183 21 210 9 355 -17 208 -55 465 -85 574 -14
49 -22 95 -20 102 11 27 33 23 62 -10 60 -68 101 -214 143 -515 19 -136 39
-241 55 -285 25 -70 25 -70 20 220 -7 418 -27 529 -121 660 -92 128 -104 164
-135 389 -33 240 -65 347 -195 652 -91 213 -95 226 -104 351 -7 97 -9 105 -47
160 -53 78 -183 213 -257 269 -34 25 -98 64 -141 86 -44 22 -158 87 -255 146
-238 143 -395 217 -616 292 -190 64 -247 92 -253 124 -8 41 63 47 201 16 220
-48 470 -158 742 -325 168 -103 226 -129 261 -121 81 21 -14 138 -220 274
-202 134 -485 251 -690 287 -95 16 -259 18 -316 4z m1874 -3932 c20 -56 -30
-167 -76 -167 -20 0 -22 13 -9 56 5 16 17 55 26 87 18 65 42 74 59 24z"/>
<path d="M4115 7339 c-77 -9 -185 -38 -306 -81 -96 -35 -96 -35 -52 -47 25 -6
99 -16 166 -21 298 -25 510 -87 678 -200 35 -24 132 -111 214 -194 120 -121
186 -177 330 -281 99 -71 243 -178 320 -238 90 -70 172 -124 231 -152 69 -33
102 -56 133 -92 86 -100 195 -335 245 -523 44 -166 57 -267 64 -507 7 -213 9
-235 28 -260 12 -15 27 -28 35 -28 23 0 66 103 96 230 24 105 27 141 28 285 0
253 -37 396 -222 855 -113 281 -151 358 -219 446 -97 127 -311 295 -574 452
-172 102 -251 139 -310 145 -42 4 -49 2 -55 -16 -14 -46 29 -86 291 -269 318
-222 447 -334 530 -458 37 -55 50 -101 40 -140 -10 -40 -37 -30 -106 41 -105
106 -252 229 -465 389 -223 167 -321 255 -396 357 -96 129 -285 234 -524 291
-87 21 -133 25 -200 16z"/>
<path d="M3750 7021 c-67 -22 -140 -57 -243 -114 -78 -44 -78 -44 -35 -53 25
-5 95 -5 168 0 149 10 377 -5 519 -34 131 -27 234 -61 371 -125 147 -68 156
-71 168 -48 16 32 -7 84 -62 137 -126 122 -354 211 -636 245 -118 15 -186 13
-250 -8z"/>
<path d="M3575 6691 c-70 -13 -165 -69 -287 -170 -61 -51 -65 -57 -47 -65 20
-10 35 -8 269 28 160 25 377 39 510 32 244 -13 435 -51 494 -97 30 -23 34 -54
9 -63 -9 -4 -102 -1 -207 5 -301 18 -548 2 -850 -57 -155 -30 -177 -43 -318
-186 -97 -98 -97 -98 -57 -110 56 -16 179 2 355 51 327 92 444 114 746 136
235 18 269 23 377 62 69 25 78 26 140 15 221 -38 484 -183 666 -366 95 -95
105 -110 180 -256 190 -368 247 -550 276 -877 29 -338 -78 -756 -271 -1052
-53 -82 -146 -180 -187 -197 -33 -14 -63 -10 -63 9 0 5 36 64 80 129 153 227
233 427 281 708 19 110 16 364 -5 485 -46 257 -169 513 -288 602 -17 12 -67
34 -111 48 -43 14 -136 50 -206 80 -192 83 -288 106 -464 112 -222 9 -413 -24
-594 -100 -219 -93 -397 -277 -537 -555 -184 -367 -162 -694 63 -943 138 -153
366 -260 616 -289 330 -37 496 28 652 257 96 141 171 274 184 326 7 29 10 85
7 140 -6 112 -43 214 -111 310 -61 85 -112 129 -292 251 -150 101 -150 101
-235 101 -154 -1 -215 -45 -324 -239 -99 -175 -120 -235 -120 -356 -1 -87 2
-101 32 -164 17 -37 32 -75 32 -82 0 -23 -25 -27 -58 -10 -114 59 -159 267
-97 451 14 44 51 123 81 177 56 99 65 136 39 158 -44 37 -158 -66 -224 -201
-96 -199 -99 -417 -8 -572 35 -59 125 -140 191 -171 129 -61 250 -69 351 -22
43 19 56 31 60 53 4 15 15 52 26 81 10 30 19 67 19 83 0 47 -56 89 -76 57 -5
-8 -11 -6 -20 6 -18 26 1 73 39 92 77 40 167 -25 167 -121 0 -46 -18 -87 -69
-154 -23 -30 -41 -58 -41 -62 0 -40 193 30 235 86 34 43 59 146 50 204 -27
185 -208 301 -361 232 -137 -62 -183 -271 -69 -312 39 -14 45 -37 17 -62 -47
-43 -130 -28 -155 26 -25 53 -38 166 -27 232 20 122 105 242 208 292 170 83
401 -25 500 -235 30 -62 36 -89 40 -158 5 -102 -16 -179 -91 -332 -59 -119
-109 -176 -189 -216 -59 -30 -138 -35 -158 -11 -17 20 -8 29 47 50 109 42 179
107 174 163 0 6 -8 12 -17 12 -29 0 -197 -93 -245 -136 -40 -36 -57 -44 -105
-50 -178 -22 -430 79 -553 223 -56 65 -107 166 -127 249 -24 104 -15 283 21
389 57 172 167 328 280 400 27 18 100 55 161 83 311 142 624 198 824 148 222
-56 422 -182 522 -329 130 -191 192 -465 168 -739 -20 -232 -69 -400 -184
-628 -40 -80 -83 -176 -95 -213 -36 -106 -133 -193 -326 -289 -169 -85 -433
-168 -533 -168 -54 0 -66 3 -86 25 -22 23 -30 25 -114 25 -185 0 -437 62 -626
155 -117 57 -264 140 -296 168 -14 12 27 -32 90 -97 129 -132 241 -221 339
-270 133 -67 462 -129 686 -130 154 -1 240 15 437 80 168 56 291 118 518 259
133 83 193 126 250 184 199 201 378 592 446 975 36 202 -18 705 -103 966 -68
211 -175 399 -290 512 -144 140 -411 332 -727 522 -159 96 -159 96 -240 90
-75 -6 -90 -3 -212 34 -231 71 -317 84 -584 88 -129 1 -253 -1 -275 -5z"/>
<path d="M6531 6481 c-27 -17 -5 -86 73 -230 81 -151 196 -397 254 -546 37
-95 40 -121 27 -260 -9 -101 11 -180 87 -352 56 -124 122 -252 114 -218 -2 11
-12 58 -21 105 -9 47 -34 164 -56 261 -44 198 -46 217 -23 261 13 25 20 29 45
26 26 -4 27 -3 15 11 -25 29 -47 81 -107 257 -123 361 -248 609 -337 669 -40
27 -50 29 -71 16z"/>
<path d="M4415 6069 c-329 -36 -475 -61 -625 -111 -200 -65 -329 -149 -375
-241 -24 -51 -26 -59 -16 -111 18 -97 -12 -193 -103 -333 -45 -70 -184 -349
-212 -427 -57 -157 -26 -498 64 -727 61 -152 109 -215 226 -292 182 -122 373
-209 555 -255 97 -24 123 -26 311 -27 168 0 218 3 275 19 204 54 371 182 485
374 75 127 101 249 58 276 -25 15 -46 -9 -125 -138 -90 -147 -207 -266 -313
-319 -102 -50 -175 -68 -310 -74 -299 -14 -591 80 -823 266 -173 140 -271 332
-284 556 -13 226 49 409 264 790 122 215 158 269 220 326 127 119 324 196 595
234 129 18 336 21 431 5 153 -24 308 -85 487 -191 105 -62 160 -62 160 0 -2
124 -326 341 -592 395 -83 17 -222 19 -353 5z"/>
<path d="M3106 5757 c-22 -24 -36 -53 -47 -103 -9 -38 -44 -128 -78 -201 -33
-72 -61 -135 -61 -139 0 -5 13 12 28 37 16 24 52 65 80 90 40 37 62 71 106
163 57 118 66 152 44 174 -20 20 -39 14 -72 -21z"/>
<path d="M3249 5589 c-12 -12 -30 -42 -42 -67 -23 -54 -36 -176 -18 -186 20
-13 47 4 68 42 31 55 66 178 59 207 -8 31 -38 33 -67 4z"/>
<path d="M3072 5403 c-6 -10 -17 -54 -26 -98 -47 -231 -92 -365 -116 -350 -6
3 -7 -1 -4 -9 10 -26 50 -18 79 15 33 40 58 90 101 200 38 98 41 143 16 208
-19 50 -36 61 -50 34z"/>
<path d="M4603 5339 c-18 -5 -37 -19 -43 -30 -20 -36 12 -65 133 -124 198 -97
310 -200 387 -360 59 -122 70 -178 81 -390 5 -104 11 -217 15 -251 8 -79 -13
-162 -71 -279 -88 -178 -210 -304 -376 -390 -146 -76 -207 -87 -464 -88 -189
0 -235 3 -322 22 -148 31 -255 72 -453 171 -176 89 -256 123 -319 134 -19 3
-44 14 -55 24 -11 9 0 -9 24 -41 28 -38 60 -67 90 -82 25 -13 84 -56 132 -97
225 -193 613 -304 899 -256 52 8 76 8 94 0 36 -17 31 -29 -25 -57 -43 -22 -70
-49 -70 -71 0 -3 23 -4 50 -2 37 4 65 15 103 41 31 22 106 55 185 82 338 116
458 216 610 513 104 202 144 375 145 632 0 179 -17 288 -67 420 -58 157 -181
305 -321 389 -117 71 -288 113 -362 90z"/>
<path d="M5245 2244 c-105 -46 -115 -57 -24 -25 71 25 129 53 129 63 0 4 -1 8
-2 7 -2 0 -48 -20 -103 -45z"/>
</g>
</svg>
