<?xml version="1.0" standalone="no"?>
<!DOCTYPE svg PUBLIC "-//W3C//DTD SVG 20010904//EN"
 "http://www.w3.org/TR/2001/REC-SVG-20010904/DTD/svg10.dtd">
<svg version="1.0" xmlns="http://www.w3.org/2000/svg"
 width="1000.000000pt" height="1000.000000pt" viewBox="0 0 1000.000000 1000.000000"
 preserveAspectRatio="xMidYMid meet">
<metadata>
  <rdf:RDF
    xmlns:rdf = "http://www.w3.org/1999/02/22-rdf-syntax-ns#"
    xmlns:rdfs = "http://www.w3.org/2000/01/rdf-schema#"
    xmlns:dc = "http://purl.org/dc/elements/1.1/"
    xmlns:cc = "http://creativecommons.org/ns#">
    <cc:license rdf:resource="http://creativecommons.org/publicdomain/zero/1.0/deed.en"/>
    <cc:permits rdf:resource="http://creativecommons.org/ns#Reproduction"/>
    <rdf:Description about="https://nft.mir.one/fingerprints"
      dc:title="TON Fingerprints"
      dc:description="This is a unique digital fingerprint created based on the algorithm for generating basic rings using a noise texture. Like human fingerprints, you can now use it for the Web3 and Metaverse era as digital biometric information."
      dc:publisher="https://nft.mir.one"
      dc:date="2022-02-22"
      dc:format="image/svg+xml"
      dc:language="en" >
      <dc:creator>
      <rdf:Bag>
        <rdf:li>EQBondcvD2_aOFADXSWJHs4ZazQDuEl9_wNvGGPxI8hGuOFU</rdf:li>
        <rdf:li>ipfs://bafkreihj7iub3fhmhq6jn62noukt5wxn3gv6bvcg7wmt6ywvlurefezckq</rdf:li>
      </rdf:Bag>
      </dc:creator>
    </rdf:Description>
  </rdf:RDF>
</metadata>
<rect width="100%" height="100%" fill="#1b1f23"/>
<g transform="translate(0.000000,1000.000000) scale(0.100000,-0.100000)"
fill="#ffffff" stroke="none">
<path d="M4905 7664 c-196 -27 -320 -55 -447 -100 -99 -36 -435 -195 -506
-240 -76 -49 -202 -171 -273 -266 -77 -104 -200 -349 -245 -490 -41 -126 -67
-183 -160 -344 -90 -156 -110 -211 -123 -334 -6 -58 -30 -186 -55 -286 -53
-219 -72 -327 -87 -503 -7 -85 -18 -152 -30 -183 -15 -40 -19 -75 -19 -186 0
-75 -4 -154 -9 -175 -15 -65 14 -26 39 53 26 81 39 96 70 80 38 -21 51 -71 44
-169 -14 -183 47 -377 184 -589 67 -103 82 -146 60 -168 -12 -13 -21 -10 -60
20 -25 19 -80 77 -121 128 -157 192 -161 193 -69 23 81 -151 119 -195 224
-265 165 -111 411 -293 475 -354 116 -107 168 -203 129 -235 -12 -10 -25 -10
-71 4 -31 9 -58 21 -60 28 -2 7 -6 25 -10 42 -4 16 -25 47 -48 68 -59 55 -399
256 -459 272 -50 13 -50 13 38 -77 152 -153 292 -254 402 -288 31 -10 58 -22
60 -28 2 -6 -9 -18 -23 -28 -22 -14 -41 -16 -116 -11 -49 4 -108 9 -132 13
-39 5 -34 1 53 -44 106 -55 213 -92 269 -92 21 0 70 11 110 25 83 29 66 31
366 -21 255 -44 321 -61 480 -122 190 -73 282 -85 475 -62 243 30 457 119 670
279 118 89 371 346 463 471 179 243 217 283 287 305 14 4 36 15 50 25 14 9 33
20 43 23 24 9 41 53 78 194 59 231 73 345 74 598 0 272 5 253 -136 493 -50 86
-119 204 -153 261 -97 166 -160 218 -188 156 -17 -39 2 -103 83 -277 193 -412
234 -603 198 -926 -21 -196 -59 -300 -146 -404 -311 -370 -404 -476 -485 -554
-279 -266 -561 -401 -878 -420 -141 -9 -240 6 -515 76 -481 123 -504 134 -840
414 -267 222 -310 269 -417 458 -155 272 -202 382 -214 503 -5 51 -3 64 14 84
19 25 19 25 43 -1 13 -14 42 -72 63 -129 120 -318 278 -540 528 -740 207 -165
398 -274 599 -340 142 -46 411 -113 539 -134 314 -50 606 28 882 235 171 128
444 427 550 602 70 114 79 152 90 373 20 404 -10 570 -170 924 -82 183 -96
200 -267 328 -187 140 -269 185 -328 181 -37 -3 -42 -6 -42 -27 0 -19 32 -52
140 -146 185 -161 251 -240 326 -390 129 -260 162 -542 88 -741 -24 -62 -242
-361 -366 -500 -135 -152 -332 -301 -457 -344 -61 -22 -84 -24 -105 -11 -27
17 2 52 107 127 249 179 383 314 525 529 72 110 109 181 139 271 20 60 23 89
23 214 0 168 -19 257 -85 398 -59 125 -117 205 -251 347 -67 71 -135 153 -151
182 -39 69 -72 95 -166 131 -126 49 -235 65 -397 59 -112 -4 -158 -10 -230
-32 -352 -104 -553 -367 -615 -807 -15 -103 -25 -134 -55 -178 -25 -35 -25
-37 -10 -93 47 -181 209 -416 368 -534 150 -110 353 -111 542 0 84 49 235 198
284 280 48 82 79 163 91 245 31 195 -64 392 -233 483 -59 32 -67 34 -162 34
-85 0 -106 -3 -142 -23 -63 -33 -106 -74 -139 -134 -25 -46 -29 -64 -29 -129
0 -67 4 -81 30 -125 59 -95 182 -139 262 -94 51 28 73 66 73 125 0 40 -5 52
-34 81 -49 49 -106 43 -106 -12 0 -35 -25 -49 -54 -31 -54 36 -37 126 33 169
44 28 130 30 177 5 150 -79 188 -282 83 -441 -18 -27 -61 -71 -96 -98 -44 -35
-63 -57 -63 -72 0 -37 -41 -88 -92 -114 -208 -107 -502 68 -590 352 -18 61
-20 84 -15 190 8 155 35 266 96 391 110 225 307 364 562 396 158 20 337 -22
462 -107 122 -84 299 -290 371 -434 213 -421 65 -855 -429 -1260 -49 -40 -128
-110 -175 -155 -47 -45 -113 -100 -147 -123 -97 -65 -115 -105 -65 -138 24
-17 47 -19 197 -19 100 0 193 6 227 13 77 18 227 95 319 164 104 79 279 262
369 387 124 172 154 206 182 209 37 4 43 -24 20 -91 -38 -114 -165 -289 -327
-453 -241 -244 -471 -363 -730 -381 -124 -8 -209 8 -316 62 -59 28 -113 47
-161 55 -280 44 -441 92 -623 185 -257 131 -511 342 -612 508 -19 32 -66 133
-103 225 -37 92 -80 196 -96 232 -29 65 -29 66 -29 265 0 210 10 303 52 495
111 510 338 835 717 1027 62 32 82 37 159 40 76 4 116 14 295 73 323 107 550
141 806 120 332 -26 550 -119 914 -389 81 -59 189 -134 240 -166 141 -86 236
-190 347 -378 82 -139 158 -253 150 -227 -34 114 -148 405 -210 535 -42 88
-90 193 -105 233 -32 83 -84 159 -220 322 -216 258 -410 406 -715 544 -104 47
-129 64 -190 124 -78 76 -130 101 -265 129 -105 22 -356 22 -480 -1 -196 -35
-386 -105 -507 -187 -26 -18 -129 -112 -228 -209 -99 -96 -211 -198 -250 -225
-38 -27 -75 -56 -82 -65 -17 -21 -16 -55 2 -70 40 -33 153 29 317 172 303 264
450 345 740 410 138 31 449 33 600 5 98 -19 123 -32 113 -59 -13 -34 -58 -41
-320 -49 -194 -6 -284 -13 -356 -28 -276 -56 -491 -169 -712 -372 -112 -104
-164 -141 -287 -207 -121 -65 -163 -101 -248 -215 -148 -198 -221 -345 -297
-597 -62 -208 -101 -388 -130 -600 -40 -294 -43 -311 -61 -331 -23 -26 -37
-24 -73 10 -38 36 -39 54 -6 220 13 69 31 173 40 231 20 126 167 711 199 790
13 31 66 131 118 221 104 178 169 304 186 359 7 19 18 91 26 161 8 69 23 148
34 176 62 164 270 363 379 363 53 0 54 -26 2 -69 -226 -184 -364 -391 -280
-419 14 -5 181 156 287 276 49 56 78 99 89 132 21 64 70 106 190 165 228 111
474 168 735 169 225 1 384 -31 535 -106 103 -52 345 -197 475 -286 230 -156
333 -253 450 -422 82 -120 126 -169 190 -213 45 -31 45 -31 -5 25 -27 31 -75
97 -105 147 -123 202 -157 248 -274 367 -322 323 -667 528 -1003 594 -103 21
-370 35 -448 24z m885 -752 c211 -73 391 -192 636 -420 196 -182 255 -261 210
-278 -25 -9 -81 28 -236 156 -258 212 -407 308 -584 374 -166 63 -428 89 -671
67 -260 -24 -443 -76 -694 -197 -84 -41 -160 -74 -168 -74 -23 0 -26 28 -6 60
68 107 396 265 653 314 146 28 247 34 510 32 255 -2 255 -2 350 -34z"/>
<path d="M3250 6482 c-30 -59 -70 -127 -89 -152 -34 -45 -34 -45 -2 -15 45 41
119 154 137 209 29 84 10 66 -46 -42z"/>
<path d="M4995 6504 c-203 -31 -641 -164 -801 -244 -355 -175 -563 -463 -653
-906 -62 -304 -50 -532 39 -774 17 -47 40 -126 50 -175 9 -50 28 -112 40 -138
33 -69 102 -142 164 -171 29 -14 90 -55 136 -91 152 -121 271 -176 501 -235
147 -37 272 -48 361 -31 223 43 648 367 828 631 54 79 113 206 136 290 27 97
25 272 -4 373 -73 255 -284 490 -502 558 -320 100 -652 -78 -755 -404 -69
-218 -27 -427 112 -555 114 -106 268 -136 384 -76 16 8 29 19 29 24 0 20 -46
49 -118 75 -104 36 -151 65 -206 126 -164 182 -82 507 158 624 241 118 529 8
665 -254 52 -101 73 -186 73 -296 1 -198 -86 -385 -257 -558 -256 -259 -572
-365 -794 -266 -69 30 -79 41 -312 349 -131 173 -307 500 -329 614 -17 84 -14
241 5 338 21 102 53 191 117 328 55 117 60 163 19 168 -37 6 -128 -95 -178
-198 -86 -176 -116 -310 -116 -515 0 -174 18 -257 82 -392 58 -121 279 -447
382 -564 52 -58 89 -108 87 -117 -5 -26 -69 -27 -116 -3 -62 31 -146 119 -192
201 -64 114 -122 198 -185 270 -66 76 -126 193 -157 305 -18 67 -22 108 -22
260 -1 154 2 195 22 284 57 254 163 452 290 542 118 84 340 222 417 260 277
134 617 209 894 196 452 -20 922 -258 1141 -577 53 -78 69 -94 119 -120 92
-46 155 -124 291 -359 67 -117 126 -172 160 -151 15 9 -76 275 -131 380 -82
158 -252 347 -464 517 -356 286 -629 419 -948 462 -107 15 -352 12 -462 -5z
m-1186 -2130 c85 -97 122 -223 58 -198 -20 7 -93 112 -118 169 -37 85 -3 101
60 29z"/>
<path d="M5063 6220 c-387 -40 -774 -234 -834 -417 -6 -21 -42 -114 -79 -208
-95 -239 -105 -281 -105 -450 0 -125 2 -145 23 -186 21 -44 63 -76 83 -64 5 4
9 57 9 118 0 204 42 374 140 572 105 213 261 342 505 418 143 45 193 52 365
52 179 0 221 -7 462 -71 269 -71 340 -105 508 -239 77 -61 101 -75 125 -73 23
2 31 9 33 27 7 43 -8 71 -75 141 -130 139 -336 250 -599 324 -183 51 -397 73
-561 56z"/>
<path d="M3042 5883 c-21 -40 -65 -174 -59 -179 2 -2 22 45 45 103 42 110 49
145 14 76z"/>
<path d="M6805 3778 c22 -155 20 -151 29 -76 9 80 1 128 -21 128 -13 0 -15 -8
-8 -52z"/>
<path d="M6662 3716 c-16 -19 -65 -93 -107 -164 -104 -176 -186 -282 -333
-434 -273 -281 -445 -406 -673 -486 -82 -29 -141 -40 -422 -77 -140 -19 -194
-37 -268 -92 -30 -23 -73 -50 -96 -62 -52 -26 -240 -81 -313 -92 -35 -5 13 -7
135 -5 173 3 206 6 375 40 131 26 229 40 335 46 174 9 219 22 389 107 171 85
276 162 410 297 332 336 455 502 567 762 70 162 70 239 1 160z"/>
<path d="M3761 2773 c-45 -4 -45 -4 40 -40 231 -98 352 -133 456 -133 26 0 83
7 125 15 166 31 308 31 308 0 0 -23 -37 -41 -155 -75 -142 -40 -200 -72 -242
-132 -33 -48 -33 -48 3 -48 27 0 41 -7 56 -25 11 -14 25 -25 31 -24 8 0 8 2 0
6 -7 2 -13 13 -13 23 0 10 -5 22 -11 25 -17 11 20 44 60 54 20 5 72 15 116 21
44 7 104 21 133 32 62 23 122 76 122 108 0 27 -83 126 -124 147 -77 41 -129
46 -501 48 -198 1 -380 0 -404 -2z"/>
<path d="M5230 2234 c-58 -24 -101 -44 -95 -44 24 0 195 62 205 76 17 20 9 17
-110 -32z"/>
</g>
</svg>
