<?xml version="1.0" standalone="no"?>
<!DOCTYPE svg PUBLIC "-//W3C//DTD SVG 20010904//EN"
 "http://www.w3.org/TR/2001/REC-SVG-20010904/DTD/svg10.dtd">
<svg version="1.0" xmlns="http://www.w3.org/2000/svg"
 width="1000.000000pt" height="1000.000000pt" viewBox="0 0 1000.000000 1000.000000"
 preserveAspectRatio="xMidYMid meet">
<metadata>
  <rdf:RDF
    xmlns:rdf = "http://www.w3.org/1999/02/22-rdf-syntax-ns#"
    xmlns:rdfs = "http://www.w3.org/2000/01/rdf-schema#"
    xmlns:dc = "http://purl.org/dc/elements/1.1/"
    xmlns:cc = "http://creativecommons.org/ns#">
    <cc:license rdf:resource="http://creativecommons.org/publicdomain/zero/1.0/deed.en"/>
    <cc:permits rdf:resource="http://creativecommons.org/ns#Reproduction"/>
    <rdf:Description about="https://nft.mir.one/fingerprints"
      dc:title="TON Fingerprints"
      dc:description="This is a unique digital fingerprint created based on the algorithm for generating basic rings using a noise texture. Like human fingerprints, you can now use it for the Web3 and Metaverse era as digital biometric information."
      dc:publisher="https://nft.mir.one"
      dc:date="2022-02-22"
      dc:format="image/svg+xml"
      dc:language="en" >
      <dc:creator>
      <rdf:Bag>
        <rdf:li>EQBondcvD2_aOFADXSWJHs4ZazQDuEl9_wNvGGPxI8hGuOFU</rdf:li>
        <rdf:li>ipfs://bafkreihj7iub3fhmhq6jn62noukt5wxn3gv6bvcg7wmt6ywvlurefezckq</rdf:li>
      </rdf:Bag>
      </dc:creator>
    </rdf:Description>
  </rdf:RDF>
</metadata>
<rect width="100%" height="100%" fill="#1b1f23"/>
<g transform="translate(0.000000,1000.000000) scale(0.100000,-0.100000)"
fill="#ffffff" stroke="none">
<path d="M5054 7790 c-44 -9 -145 -22 -223 -29 -111 -9 -164 -18 -235 -42 -50
-17 -143 -41 -206 -54 -115 -23 -115 -23 -10 -24 79 -1 130 5 206 24 56 13
150 29 210 35 165 16 202 25 294 69 92 45 86 48 -36 21z"/>
<path d="M5035 7560 c-60 -11 -184 -24 -275 -30 -339 -22 -614 -89 -894 -219
-128 -59 -128 -59 -65 -55 35 3 91 9 124 14 33 5 130 16 217 25 86 8 214 24
285 35 206 32 303 22 303 -31 0 -26 -40 -44 -230 -102 -213 -66 -251 -73 -351
-59 -100 13 -210 3 -287 -27 -185 -73 -306 -160 -464 -335 -66 -73 -74 -84
-38 -56 218 172 362 240 512 240 51 0 94 9 174 36 94 31 109 34 121 21 23 -22
9 -50 -68 -139 -38 -44 -88 -113 -111 -152 -79 -137 -108 -176 -194 -258 -130
-126 -204 -238 -252 -388 -25 -77 -118 -463 -162 -675 -17 -82 -50 -204 -73
-270 -42 -119 -42 -121 -42 -260 1 -108 6 -164 24 -244 76 -346 253 -627 478
-760 39 -23 106 -73 148 -109 42 -37 106 -93 143 -125 39 -34 106 -78 161
-105 95 -47 95 -47 230 -44 75 1 199 -4 276 -12 322 -34 499 -30 743 15 134
24 158 24 218 -2 40 -18 60 -21 123 -16 223 16 465 180 578 393 86 163 179
480 209 716 21 170 15 421 -15 548 -33 144 -94 286 -172 402 -44 64 -48 84
-19 93 56 18 159 -86 229 -229 90 -185 116 -316 115 -596 -1 -221 -16 -372
-61 -594 -18 -93 -26 -160 -25 -230 1 -81 -2 -105 -20 -140 -47 -93 -346 -339
-513 -422 -115 -57 -204 -74 -388 -74 -78 0 -244 -7 -369 -16 -264 -19 -392
-13 -685 32 -201 31 -233 28 -233 -20 0 -69 212 -146 482 -175 136 -15 382
-13 583 4 290 25 386 18 413 -31 10 -18 12 -18 69 0 145 46 273 122 407 245
96 87 153 121 203 121 38 0 53 18 186 220 52 80 114 172 138 205 35 48 38 56
17 39 -15 -12 -54 -31 -88 -44 -49 -18 -63 -20 -75 -10 -21 18 -19 31 19 134
46 121 64 222 81 456 43 568 -6 840 -197 1094 -45 59 -355 387 -523 554 -53
51 -54 52 -115 52 -46 0 -78 7 -122 27 -54 24 -62 25 -97 13 -57 -19 -97 -7
-271 75 -186 88 -278 125 -408 164 -175 52 -280 50 -449 -8 -182 -63 -339
-177 -588 -427 -99 -99 -199 -195 -222 -213 -69 -53 -128 -179 -169 -363 -57
-253 26 -717 181 -1024 225 -442 473 -615 953 -665 381 -39 666 57 858 289 28
35 62 87 75 115 13 28 67 139 121 247 145 292 174 400 186 678 7 148 8 157 27
157 45 0 75 -117 75 -290 0 -232 -59 -424 -201 -660 -60 -100 -67 -125 -40
-149 17 -15 25 -16 54 -7 183 61 329 391 330 746 0 193 -21 276 -116 463 -39
79 -85 159 -100 178 -36 43 -82 67 -113 60 -21 -6 -24 -12 -24 -49 0 -23 5
-60 10 -82 13 -53 13 -161 0 -205 -5 -19 -17 -89 -25 -155 -21 -158 -44 -243
-109 -386 -90 -198 -187 -337 -272 -390 -41 -25 -198 -59 -275 -59 -31 0 -78
7 -105 15 -27 8 -103 20 -169 25 -233 18 -359 83 -465 240 -265 390 -192 830
180 1079 135 90 253 128 370 118 83 -7 278 -60 350 -94 108 -53 185 -160 224
-313 20 -76 32 -320 19 -400 -7 -46 -12 -56 -30 -58 -32 -5 -48 34 -68 161
-35 224 -89 336 -198 411 -76 51 -124 61 -211 42 -112 -24 -159 -28 -188 -17
-32 12 -36 36 -10 50 9 5 47 17 82 26 73 19 90 29 90 56 0 25 -30 39 -83 39
-69 0 -119 -23 -235 -107 -240 -173 -322 -307 -322 -523 0 -234 138 -442 332
-501 86 -27 146 -22 224 16 77 38 183 143 220 220 25 53 28 70 28 155 0 112
-19 163 -84 234 -103 112 -301 116 -389 9 -93 -113 -38 -283 92 -283 45 0 87
36 87 73 0 29 -15 44 -50 49 -19 2 -26 10 -28 30 -7 59 91 79 149 31 141 -119
4 -366 -188 -339 -188 25 -297 260 -209 451 68 149 184 205 380 185 121 -13
176 -33 236 -87 117 -105 181 -352 132 -511 -26 -80 -66 -136 -167 -228 -92
-83 -111 -118 -79 -141 29 -22 98 -9 190 37 112 55 177 126 248 271 33 66 72
129 99 158 73 78 94 173 102 456 3 99 11 211 17 248 10 61 9 73 -6 102 -30 56
-125 142 -241 220 -60 40 -137 99 -170 129 -123 115 -302 172 -510 163 -283
-13 -570 -188 -787 -481 -105 -141 -159 -279 -180 -457 -31 -278 73 -650 234
-834 63 -72 148 -96 148 -42 0 11 -29 73 -64 137 -104 189 -150 327 -165 498
-15 173 10 322 80 470 53 116 112 194 222 298 136 128 280 206 444 240 141 30
367 4 463 -52 44 -25 47 -39 15 -60 -24 -16 -37 -16 -140 -6 -149 16 -201 15
-292 -4 -253 -52 -479 -231 -593 -469 -60 -126 -75 -198 -74 -360 0 -162 18
-247 86 -398 73 -166 108 -252 108 -270 1 -84 160 -195 355 -249 69 -19 107
-22 270 -22 178 -1 197 1 306 28 116 29 149 30 149 2 0 -29 -62 -86 -126 -116
-116 -56 -201 -72 -374 -73 -227 -1 -378 35 -574 135 -303 154 -451 336 -549
678 -56 192 -77 454 -48 595 47 230 128 361 367 595 201 196 360 295 546 340
155 37 350 21 518 -43 123 -47 675 -326 735 -372 90 -68 169 -140 212 -191 34
-42 38 -54 44 -123 5 -60 18 -104 58 -201 89 -215 118 -364 108 -565 -15 -317
-123 -610 -257 -699 -22 -15 -95 -45 -163 -67 -141 -47 -148 -51 -327 -179
-160 -115 -204 -141 -290 -173 -199 -75 -571 -78 -916 -8 -165 34 -311 112
-427 229 -43 44 -76 92 -126 188 -37 71 -100 190 -139 264 -85 162 -138 316
-187 545 -20 94 -45 201 -56 240 -34 125 -22 262 47 525 20 74 46 193 60 264
26 146 70 250 145 347 107 138 394 471 465 540 91 88 155 132 322 218 73 38
151 88 203 131 66 55 109 80 213 126 185 81 235 95 357 101 217 11 482 -54
769 -190 52 -24 106 -48 120 -52 14 -4 48 -18 75 -32 54 -26 51 -23 -40 48
-255 196 -496 314 -775 380 -128 30 -353 34 -495 9z m-1579 -2485 c9 -13 25
-82 35 -152 44 -293 113 -488 256 -724 46 -76 86 -152 89 -169 6 -27 4 -30
-20 -30 -58 0 -184 154 -274 335 -95 192 -144 390 -146 590 -1 162 19 213 60
150z m2740 -1160 c28 -71 -170 -224 -413 -321 -95 -37 -123 -39 -123 -6 0 45
53 87 285 227 190 114 239 133 251 100z"/>
<path d="M5300 7250 c-57 -12 -95 -40 -95 -70 0 -40 40 -57 190 -79 174 -26
296 -58 445 -118 378 -150 586 -306 811 -605 116 -155 294 -449 325 -537 13
-37 24 -58 24 -49 0 20 -58 190 -95 278 -50 119 -175 358 -234 447 -119 181
-261 339 -398 444 -139 105 -447 234 -653 274 -106 20 -261 27 -320 15z"/>
<path d="M4950 6991 c-141 -46 -372 -155 -475 -224 -185 -124 -464 -410 -596
-610 -63 -95 -83 -145 -77 -192 2 -24 8 -31 29 -33 29 -3 49 17 186 184 179
219 413 415 596 499 138 63 232 88 343 89 101 1 102 1 140 -32 50 -41 103 -69
241 -125 147 -60 240 -108 341 -173 103 -67 160 -96 172 -89 15 9 12 52 -7 88
-56 109 -193 211 -386 288 -28 12 -108 35 -177 53 -117 30 -125 33 -125 56 0
81 223 67 443 -28 174 -75 246 -140 328 -293 75 -143 169 -233 188 -183 17 45
2 98 -58 201 -44 74 -54 111 -33 119 43 16 141 -80 249 -247 41 -63 124 -177
184 -254 219 -279 339 -431 386 -488 62 -75 102 -154 127 -253 39 -156 45
-229 41 -464 -6 -366 -4 -523 8 -550 9 -21 11 -11 11 60 1 47 8 166 17 265 28
312 11 631 -47 878 -18 75 -26 94 -59 126 -23 22 -63 86 -98 157 -147 293
-480 724 -643 833 -32 22 -91 51 -131 66 -40 16 -129 56 -198 90 -202 101
-321 139 -566 180 -175 29 -277 31 -354 6z"/>
<path d="M3783 6855 c-123 -33 -200 -97 -317 -264 -147 -209 -219 -380 -236
-559 -11 -117 -17 -146 -75 -358 -145 -527 -161 -888 -59 -1287 65 -258 181
-458 367 -633 92 -87 233 -191 329 -242 85 -45 94 -55 73 -76 -12 -11 -34 -16
-75 -16 -51 0 -72 7 -157 50 -122 63 -252 166 -342 273 -77 91 -233 303 -256
348 -29 56 -24 29 9 -48 165 -386 365 -650 560 -742 45 -21 161 -64 260 -95
98 -32 251 -89 340 -128 299 -131 482 -184 734 -213 205 -24 400 -17 627 21
181 31 328 98 355 163 24 58 15 61 -122 34 -317 -61 -546 -81 -759 -64 -330
25 -521 82 -714 211 -38 25 -139 82 -223 126 -85 43 -162 87 -173 97 -11 10
-19 31 -19 50 0 38 -41 107 -91 153 -19 17 -79 67 -134 111 -233 187 -372 382
-460 646 -50 152 -66 237 -72 398 -7 187 -1 230 98 634 44 182 96 402 114 489
19 87 44 189 56 225 55 169 198 371 263 371 35 0 112 55 143 101 18 27 27 55
28 83 0 22 8 55 18 73 23 43 22 58 -8 71 -14 7 -27 12 -28 11 -1 0 -26 -7 -54
-14z m47 -114 c0 -3 -39 -41 -86 -85 -60 -55 -88 -76 -96 -68 -30 30 47 133
117 156 37 13 65 12 65 -3z"/>
<path d="M3112 6034 c-33 -63 -173 -531 -171 -574 0 -8 17 32 38 90 21 58 52
139 68 180 35 86 79 221 87 265 8 39 -7 66 -22 39z"/>
<path d="M7001 5740 c0 -20 -6 -41 -13 -48 -9 -9 -9 -12 0 -12 14 0 25 40 19
71 -3 17 -5 14 -6 -11z"/>
<path d="M6610 3461 c0 -5 -23 -37 -51 -72 -62 -77 -76 -105 -85 -157 -3 -23
-16 -50 -28 -61 -22 -21 -302 -180 -501 -286 -196 -104 -410 -153 -707 -162
-351 -11 -600 37 -1007 193 -108 41 -207 79 -221 84 -14 5 -92 30 -175 55 -82
26 -197 70 -255 98 -93 45 -201 89 -207 84 -4 -4 254 -229 301 -262 27 -19 69
-42 95 -51 25 -10 165 -64 311 -121 280 -110 425 -158 580 -192 375 -80 833
-66 1129 35 190 66 418 207 651 403 36 30 82 62 104 72 34 15 36 18 16 21 -33
4 -48 32 -32 58 6 11 12 26 12 35 0 8 23 49 50 91 52 79 68 144 35 144 -8 0
-15 -4 -15 -9z"/>
<path d="M3785 2780 c51 -54 263 -190 400 -256 306 -147 564 -206 895 -207
214 0 340 16 519 68 105 30 435 154 428 161 -3 3 -107 -17 -282 -56 -626 -139
-1144 -70 -1785 235 -85 40 -166 77 -180 80 -25 7 -25 7 5 -25z"/>
</g>
</svg>
