<?xml version="1.0" standalone="no"?>
<!DOCTYPE svg PUBLIC "-//W3C//DTD SVG 20010904//EN"
 "http://www.w3.org/TR/2001/REC-SVG-20010904/DTD/svg10.dtd">
<svg version="1.0" xmlns="http://www.w3.org/2000/svg"
 width="1000.000000pt" height="1000.000000pt" viewBox="0 0 1000.000000 1000.000000"
 preserveAspectRatio="xMidYMid meet">
<metadata>
  <rdf:RDF
    xmlns:rdf = "http://www.w3.org/1999/02/22-rdf-syntax-ns#"
    xmlns:rdfs = "http://www.w3.org/2000/01/rdf-schema#"
    xmlns:dc = "http://purl.org/dc/elements/1.1/"
    xmlns:cc = "http://creativecommons.org/ns#">
    <cc:license rdf:resource="http://creativecommons.org/publicdomain/zero/1.0/deed.en"/>
    <cc:permits rdf:resource="http://creativecommons.org/ns#Reproduction"/>
    <rdf:Description about="https://nft.mir.one/fingerprints"
      dc:title="TON Fingerprints"
      dc:description="This is a unique digital fingerprint created based on the algorithm for generating basic rings using a noise texture. Like human fingerprints, you can now use it for the Web3 and Metaverse era as digital biometric information."
      dc:publisher="https://nft.mir.one"
      dc:date="2022-02-22"
      dc:format="image/svg+xml"
      dc:language="en" >
      <dc:creator>
      <rdf:Bag>
        <rdf:li>EQBondcvD2_aOFADXSWJHs4ZazQDuEl9_wNvGGPxI8hGuOFU</rdf:li>
        <rdf:li>ipfs://bafkreihj7iub3fhmhq6jn62noukt5wxn3gv6bvcg7wmt6ywvlurefezckq</rdf:li>
      </rdf:Bag>
      </dc:creator>
    </rdf:Description>
  </rdf:RDF>
</metadata>
<rect width="100%" height="100%" fill="#1b1f23"/>
<g transform="translate(0.000000,1000.000000) scale(0.100000,-0.100000)"
fill="#ffffff" stroke="none">
<path d="M4958 7813 c34 -2 90 -2 125 0 34 2 6 3 -63 3 -69 0 -97 -1 -62 -3z"/>
<path d="M4793 7803 c9 -2 23 -2 30 0 6 3 -1 5 -18 5 -16 0 -22 -2 -12 -5z"/>
<path d="M4708 7793 c7 -3 16 -2 19 1 4 3 -2 6 -13 5 -11 0 -14 -3 -6 -6z"/>
<path d="M4854 7620 c-333 -35 -814 -240 -1124 -479 -47 -36 -113 -87 -148
-113 -35 -26 -62 -48 -60 -48 24 1 152 52 258 103 147 70 270 119 480 192 74
26 194 71 265 100 219 89 353 111 610 102 327 -13 641 -86 947 -223 109 -48
258 -105 258 -99 0 14 -322 214 -423 265 -327 161 -725 235 -1063 200z"/>
<path d="M4900 7341 c-174 -16 -290 -60 -290 -112 0 -10 8 -22 18 -27 9 -5
143 -12 297 -15 503 -11 725 -60 1115 -246 102 -49 207 -97 234 -106 61 -22
111 -66 141 -124 13 -25 36 -58 52 -72 51 -48 265 -209 277 -209 6 0 28 -11
48 -25 31 -21 12 8 -100 157 -198 264 -312 372 -518 494 -210 124 -577 241
-859 273 -133 15 -319 20 -415 12z"/>
<path d="M4445 7144 c-222 -46 -410 -104 -613 -188 -208 -87 -336 -173 -501
-340 -104 -105 -104 -105 -55 -89 27 9 57 20 67 25 11 5 58 29 105 53 199 99
530 227 717 276 196 52 289 57 579 31 138 -12 337 -27 441 -32 299 -15 465
-62 752 -211 166 -86 213 -98 213 -54 0 111 -183 241 -468 335 -200 65 -361
89 -735 110 -217 12 -271 22 -347 61 -52 28 -98 34 -155 23z"/>
<path d="M4398 6769 c-236 -22 -630 -161 -920 -325 -141 -80 -198 -139 -425
-445 -11 -15 -9 -15 29 -2 50 17 126 59 308 169 548 330 810 426 1165 427 158
1 262 -11 383 -44 89 -24 570 -270 717 -367 128 -85 262 -218 343 -342 73
-112 239 -435 275 -535 56 -157 92 -421 85 -612 -4 -101 -10 -134 -41 -228
-48 -144 -97 -361 -104 -455 -5 -63 -3 -78 12 -90 42 -35 91 53 145 266 22 87
48 178 56 201 16 43 40 61 58 43 18 -18 10 -167 -13 -263 -35 -147 -75 -231
-148 -308 -53 -55 -73 -88 -113 -178 -59 -134 -88 -184 -158 -278 -98 -132
-226 -234 -364 -291 -60 -25 -75 -26 -343 -35 -524 -16 -729 6 -943 103 -113
51 -165 53 -170 7 -7 -60 97 -161 241 -233 68 -35 68 -35 185 -28 83 4 152 1
237 -10 174 -24 420 -31 556 -17 401 42 586 187 892 696 145 241 211 378 243
500 37 145 41 257 14 375 -12 54 -25 161 -31 250 -12 209 -26 322 -55 467 -35
177 -55 223 -133 308 -55 59 -83 105 -166 265 -55 107 -121 226 -146 265 -110
167 -282 286 -657 455 -174 79 -229 115 -219 144 17 53 316 -43 623 -199 267
-136 331 -189 374 -312 23 -65 130 -310 210 -480 42 -90 71 -116 99 -89 40 41
2 195 -115 458 -36 81 -64 155 -62 165 6 32 52 28 93 -8 43 -38 67 -84 124
-236 64 -171 80 -234 96 -403 9 -85 24 -207 35 -270 32 -190 40 -280 55 -584
18 -384 6 -513 -70 -726 -59 -164 -214 -432 -395 -682 -178 -245 -266 -333
-405 -402 -144 -71 -266 -96 -510 -103 -203 -6 -342 10 -549 62 -152 38 -186
38 -186 -2 0 -68 172 -158 399 -210 65 -15 119 -17 371 -15 326 3 349 6 474
69 170 85 335 234 409 369 21 38 85 134 143 213 170 234 266 402 342 596 116
300 147 524 140 1001 -4 256 -8 306 -31 434 -59 324 -102 481 -184 670 -51
116 -60 172 -30 178 32 7 104 -83 163 -203 85 -174 147 -383 214 -720 29 -145
32 -171 26 -280 -12 -252 -25 -599 -22 -602 14 -14 59 640 51 752 -21 330
-115 735 -220 952 -69 141 -127 202 -280 294 -217 131 -354 189 -448 189 -81
0 -138 17 -300 91 -311 142 -490 181 -671 148 -50 -9 -95 -8 -251 9 -241 27
-384 33 -507 21z"/>
<path d="M6223 6734 c-15 -40 52 -99 98 -87 36 10 17 63 -31 88 -37 19 -59 19
-67 -1z"/>
<path d="M4312 6435 c-161 -29 -253 -66 -407 -165 -49 -32 -152 -92 -228 -134
-76 -42 -184 -107 -240 -144 -129 -87 -158 -102 -199 -102 -70 0 -145 -80
-237 -252 -28 -54 -48 -98 -44 -98 5 0 70 61 146 136 142 140 169 156 175 101
4 -35 -28 -91 -108 -188 -67 -81 -153 -248 -214 -413 -21 -55 -42 -109 -48
-120 -22 -44 76 65 194 215 403 514 438 550 618 643 147 75 157 77 452 81 500
6 710 -30 1004 -170 216 -103 369 -231 493 -413 64 -95 72 -125 33 -130 -43
-6 -98 37 -152 120 -182 280 -752 489 -1260 463 -302 -15 -441 -52 -607 -161
-151 -100 -517 -514 -602 -681 -32 -64 -60 -196 -71 -335 -12 -155 -11 -629 1
-546 4 31 15 73 24 94 9 21 23 72 31 113 9 42 31 127 51 191 32 105 33 118 22
158 -26 92 22 195 191 414 125 162 301 339 413 412 291 192 665 233 1108 121
209 -53 429 -148 567 -245 129 -90 76 -123 -88 -54 -246 103 -366 140 -631
193 -189 39 -290 46 -414 31 -340 -41 -566 -184 -854 -538 -171 -211 -207
-261 -220 -304 -24 -77 18 -78 113 -3 68 55 116 71 116 40 0 -22 -24 -67 -82
-153 -90 -134 -128 -229 -153 -388 -26 -157 -4 -321 79 -594 24 -80 49 -167
55 -195 26 -112 229 -401 421 -599 207 -214 334 -310 565 -427 83 -41 204
-103 270 -138 66 -34 109 -54 95 -44 -14 10 -52 41 -85 69 -77 64 -153 115
-290 194 -264 151 -497 372 -720 685 -70 99 -128 219 -149 310 -53 235 -61
296 -61 495 0 227 7 267 92 520 53 157 55 169 50 241 -4 64 -1 86 17 131 122
300 515 548 873 552 99 1 115 -1 140 -20 36 -27 41 -52 11 -58 -13 -2 -66 -12
-118 -21 -126 -22 -309 -84 -448 -151 -175 -85 -299 -214 -318 -332 -6 -40 13
-92 34 -92 4 0 34 34 67 76 78 99 157 172 223 202 60 27 102 24 102 -8 0 -11
-4 -20 -9 -20 -5 0 -66 -54 -135 -120 -134 -127 -167 -150 -216 -150 -35 0
-43 -14 -112 -205 -70 -194 -89 -290 -95 -472 -12 -368 76 -640 307 -948 167
-222 307 -352 567 -527 275 -185 490 -260 748 -261 141 0 154 3 315 75 113 51
116 53 101 72 -18 21 -68 20 -186 -4 -218 -45 -424 -14 -649 96 -107 53 -138
75 -347 246 -184 152 -228 196 -292 294 -24 38 -78 122 -120 186 -110 170
-151 250 -191 368 -51 154 -69 277 -63 435 10 229 73 413 194 561 32 39 91
111 131 160 67 83 92 128 107 197 8 38 74 83 245 168 104 50 159 84 193 117
48 47 48 47 160 45 135 -1 269 -27 457 -88 74 -24 182 -58 240 -75 122 -37
207 -79 308 -150 115 -81 162 -160 209 -349 61 -245 16 -610 -96 -778 -52 -77
-219 -253 -278 -292 -45 -30 -96 -40 -107 -22 -6 9 23 48 127 168 141 161 212
299 242 468 28 162 16 262 -42 348 -20 29 -53 91 -73 138 -47 109 -85 164
-156 228 -101 89 -333 190 -547 237 -103 23 -267 23 -342 0 -87 -26 -280 -127
-350 -183 -75 -60 -291 -344 -357 -470 -26 -48 -59 -128 -74 -178 -26 -83 -28
-103 -28 -260 0 -143 4 -183 22 -250 45 -164 163 -361 257 -427 40 -28 186
-76 423 -138 188 -49 365 -59 547 -29 101 17 152 38 243 103 48 35 123 82 167
106 121 66 161 95 277 207 100 97 137 119 153 93 9 -15 -41 -101 -100 -173
-64 -77 -154 -150 -277 -223 -139 -83 -172 -122 -133 -154 42 -35 235 43 357
144 83 69 170 173 205 245 22 44 28 75 34 165 9 131 25 249 74 526 41 233 53
413 36 540 -6 47 -17 139 -26 205 -8 66 -19 157 -25 201 -25 198 -157 473
-313 652 -141 163 -327 288 -650 438 -239 111 -388 145 -631 143 -83 0 -184
-7 -224 -14z m448 -171 c163 -27 336 -87 516 -180 355 -182 577 -430 659 -735
25 -93 31 -152 19 -183 -11 -30 -50 -18 -92 28 -44 47 -47 57 -56 149 -8 76
-29 126 -92 222 -175 267 -571 497 -975 566 -109 19 -148 20 -319 15 -107 -3
-225 -9 -262 -12 -89 -8 -120 0 -116 29 7 47 155 99 338 118 95 9 270 2 380
-17z m287 -1259 c210 -44 392 -155 444 -270 25 -55 25 -117 -1 -140 -19 -17
-22 -15 -117 82 -75 76 -115 108 -170 137 -318 163 -658 56 -857 -273 -205
-337 -115 -744 201 -909 114 -59 216 -85 338 -85 233 0 378 84 532 309 107
157 147 254 188 453 27 135 39 168 67 199 51 54 73 13 65 -122 -12 -203 -73
-365 -211 -566 -41 -58 -90 -137 -109 -177 -43 -84 -93 -130 -192 -178 -103
-50 -190 -68 -325 -68 -323 -1 -617 147 -732 368 -66 128 -83 201 -82 360 0
126 3 149 28 225 111 334 365 595 639 655 83 18 210 18 294 0z m-40 -279 c56
-20 296 -181 354 -237 61 -59 77 -124 61 -241 -22 -151 -76 -261 -182 -368
-101 -101 -213 -150 -345 -150 -212 0 -409 147 -460 345 -69 269 95 567 360
651 54 17 164 17 212 0z"/>
<path d="M4872 4630 c-64 -14 -136 -57 -193 -117 -185 -196 -137 -498 97 -605
74 -34 199 -33 276 4 127 59 207 173 216 305 4 64 1 79 -22 126 -37 77 -90
112 -165 111 -69 -1 -139 -33 -181 -80 -55 -63 -32 -174 37 -174 27 0 47 25
40 50 -6 24 17 50 44 50 11 0 31 -11 44 -25 20 -19 25 -35 25 -71 0 -42 -5
-51 -43 -89 -34 -34 -52 -45 -90 -50 -62 -10 -125 14 -167 62 -42 47 -52 77
-52 145 1 110 66 194 197 253 88 41 102 55 78 83 -21 26 -80 34 -141 22z"/>
<path d="M7012 4260 c0 -14 2 -19 5 -12 2 6 2 18 0 25 -3 6 -5 1 -5 -13z"/>
<path d="M6801 3593 c-10 -26 -10 -27 4 -9 8 11 15 23 15 28 0 15 -7 8 -19
-19z"/>
<path d="M6723 3467 c-34 -50 -112 -150 -172 -222 -154 -180 -201 -244 -201
-268 0 -18 5 -16 41 18 62 60 195 229 265 335 60 91 140 230 132 230 -1 0 -31
-42 -65 -93z"/>
<path d="M5754 2374 c-18 -14 -18 -15 4 -4 12 6 22 13 22 15 0 8 -5 6 -26 -11z"/>
</g>
</svg>
