<?xml version="1.0" standalone="no"?>
<!DOCTYPE svg PUBLIC "-//W3C//DTD SVG 20010904//EN"
 "http://www.w3.org/TR/2001/REC-SVG-20010904/DTD/svg10.dtd">
<svg version="1.0" xmlns="http://www.w3.org/2000/svg"
 width="1000.000000pt" height="1000.000000pt" viewBox="0 0 1000.000000 1000.000000"
 preserveAspectRatio="xMidYMid meet">
<metadata>
  <rdf:RDF
    xmlns:rdf = "http://www.w3.org/1999/02/22-rdf-syntax-ns#"
    xmlns:rdfs = "http://www.w3.org/2000/01/rdf-schema#"
    xmlns:dc = "http://purl.org/dc/elements/1.1/"
    xmlns:cc = "http://creativecommons.org/ns#">
    <cc:license rdf:resource="http://creativecommons.org/publicdomain/zero/1.0/deed.en"/>
    <cc:permits rdf:resource="http://creativecommons.org/ns#Reproduction"/>
    <rdf:Description about="https://nft.mir.one/fingerprints"
      dc:title="TON Fingerprints"
      dc:description="This is a unique digital fingerprint created based on the algorithm for generating basic rings using a noise texture. Like human fingerprints, you can now use it for the Web3 and Metaverse era as digital biometric information."
      dc:publisher="https://nft.mir.one"
      dc:date="2022-02-22"
      dc:format="image/svg+xml"
      dc:language="en" >
      <dc:creator>
      <rdf:Bag>
        <rdf:li>EQBondcvD2_aOFADXSWJHs4ZazQDuEl9_wNvGGPxI8hGuOFU</rdf:li>
        <rdf:li>ipfs://bafkreihj7iub3fhmhq6jn62noukt5wxn3gv6bvcg7wmt6ywvlurefezckq</rdf:li>
      </rdf:Bag>
      </dc:creator>
    </rdf:Description>
  </rdf:RDF>
</metadata>
<rect width="100%" height="100%" fill="#1b1f23"/>
<g transform="translate(0.000000,1000.000000) scale(0.100000,-0.100000)"
fill="#ffffff" stroke="none">
<path d="M5305 7741 c39 -20 256 -66 276 -59 6 2 -55 18 -136 36 -80 18 -154
35 -163 38 -9 2 1 -4 23 -15z"/>
<path d="M4625 7724 c-55 -7 -131 -20 -170 -28 -68 -13 -64 -14 173 -15 283
-1 328 -8 529 -82 230 -85 372 -109 522 -90 47 6 105 21 135 35 51 24 51 24
11 26 -344 11 -438 27 -640 106 -61 23 -140 48 -175 53 -87 14 -262 12 -385
-5z"/>
<path d="M4338 7673 c6 -2 18 -2 25 0 6 3 1 5 -13 5 -14 0 -19 -2 -12 -5z"/>
<path d="M4660 7544 c-41 -7 -133 -23 -205 -35 -71 -11 -184 -33 -250 -49
-141 -34 -353 -104 -339 -112 18 -11 110 -12 299 -5 260 11 348 1 476 -58 54
-25 160 -63 236 -86 587 -174 729 -229 921 -357 286 -191 542 -520 614 -790
15 -57 21 -111 22 -207 1 -124 0 -132 -26 -182 -27 -50 -28 -59 -28 -190 0
-325 -48 -528 -240 -1023 -48 -124 -100 -260 -115 -303 -20 -54 -41 -92 -69
-122 -23 -24 -133 -105 -245 -180 -550 -367 -963 -467 -1431 -343 -185 49
-196 51 -224 44 -63 -16 -1 -113 108 -168 161 -81 328 -113 545 -105 161 6
253 24 424 81 269 91 697 315 1077 566 74 49 158 96 185 104 85 26 163 107
254 263 81 141 161 353 161 429 0 50 -13 56 -52 25 -25 -20 -44 -56 -151 -282
-89 -189 -208 -369 -243 -369 -36 0 -7 73 182 455 216 438 222 456 260 735 23
167 23 439 1 538 -32 143 -81 216 -123 181 -13 -11 -14 -41 -8 -218 10 -306
-23 -606 -88 -811 -33 -103 -124 -321 -241 -580 -41 -91 -82 -183 -91 -205
-26 -62 -65 -107 -89 -103 -38 5 -23 66 69 286 182 434 240 601 274 797 45
254 79 875 54 972 -44 171 -247 460 -472 674 -151 144 -296 236 -476 304 -94
35 -477 146 -694 200 -100 25 -194 51 -207 57 -45 20 -27 52 35 60 81 12 228
-20 862 -188 261 -68 367 -131 573 -338 212 -213 284 -307 547 -713 32 -48 75
-113 97 -143 146 -200 158 -510 44 -1117 -26 -137 -26 -144 -10 -178 40 -85
10 -230 -93 -440 -81 -165 -168 -275 -321 -408 -235 -204 -309 -253 -544 -355
-88 -38 -268 -122 -400 -185 -353 -169 -519 -225 -733 -246 -181 -19 -401 12
-567 79 -111 44 -203 104 -327 216 -62 55 -156 134 -208 176 -201 161 -236
215 -378 593 -27 72 -70 175 -96 231 -63 137 -76 226 -53 382 29 203 89 347
316 757 115 207 143 248 236 341 214 216 573 358 870 342 84 -4 118 -18 109
-43 -8 -20 -45 -31 -190 -59 -246 -48 -399 -104 -543 -200 -79 -53 -201 -177
-230 -235 -28 -55 -36 -111 -18 -135 23 -31 63 -12 131 62 186 204 307 275
602 356 72 20 176 52 232 71 77 26 119 35 168 35 178 0 379 -101 554 -279 110
-111 169 -195 254 -364 53 -107 64 -122 86 -122 23 0 25 4 28 53 8 143 -140
409 -320 578 -141 130 -283 209 -530 293 -79 27 -170 60 -203 74 -251 108
-688 17 -999 -207 -250 -180 -539 -551 -616 -791 -73 -230 -106 -555 -80 -790
13 -112 24 -146 56 -176 40 -37 62 -89 89 -207 54 -233 121 -444 184 -584 19
-44 32 -91 35 -134 7 -80 43 -158 126 -269 150 -201 360 -370 595 -480 210
-99 374 -130 685 -130 246 1 287 8 334 62 40 45 79 69 190 114 76 31 92 42 99
66 18 54 68 91 259 189 208 107 261 147 303 227 57 109 12 113 -153 13 -59
-35 -170 -98 -247 -139 -78 -41 -172 -94 -210 -118 -104 -63 -280 -144 -381
-175 -83 -26 -102 -28 -279 -28 -221 -1 -320 14 -510 75 -299 97 -576 290
-707 493 -48 74 -53 126 -12 126 44 0 86 -26 229 -147 217 -181 347 -258 542
-322 147 -48 270 -66 438 -65 259 1 357 32 810 257 379 189 391 194 490 208
89 12 224 53 295 89 82 42 145 102 216 209 35 53 102 141 150 196 162 187 250
351 308 578 42 161 71 547 71 932 -1 310 -11 386 -76 572 -43 121 -184 406
-266 536 -191 301 -538 699 -685 786 -95 55 -208 88 -362 106 -166 19 -260 38
-466 98 -246 72 -332 81 -490 51z"/>
<path d="M4040 7200 c-150 -18 -323 -107 -524 -269 -49 -39 -87 -71 -85 -71
12 1 164 52 219 75 95 38 270 81 390 95 168 20 417 9 575 -24 383 -81 751
-219 975 -363 299 -194 496 -447 625 -801 46 -126 72 -167 105 -167 23 0 25 4
28 58 11 202 -129 521 -321 734 -230 254 -471 402 -867 531 -222 73 -622 184
-710 197 -100 16 -300 18 -410 5z"/>
<path d="M4075 6899 c-179 -24 -413 -99 -510 -163 -76 -50 -206 -177 -292
-285 -42 -53 -93 -117 -115 -143 -38 -46 -38 -46 20 -13 31 19 93 61 137 93
189 140 363 233 545 292 409 133 904 79 1386 -151 316 -150 561 -392 714 -704
70 -142 118 -292 131 -412 27 -235 -42 -539 -236 -1048 -84 -221 -87 -232 -74
-257 26 -48 96 -3 146 95 37 74 145 355 202 526 113 340 148 634 96 808 -21
70 -146 359 -197 453 -119 222 -290 409 -501 549 -221 145 -600 286 -932 346
-107 20 -418 28 -520 14z"/>
<path d="M4220 6624 c-309 -39 -586 -159 -846 -365 -147 -117 -255 -285 -389
-604 -42 -102 -42 -102 14 -45 31 32 90 101 131 155 97 125 329 351 450 438
52 37 149 94 215 127 210 104 345 139 575 147 187 6 275 -9 506 -87 292 -100
484 -210 644 -370 192 -191 320 -442 320 -626 0 -87 -38 -329 -62 -393 -38
-105 -67 -196 -112 -357 -48 -170 -111 -330 -171 -432 -169 -289 -581 -464
-992 -423 -230 23 -407 71 -527 143 -170 101 -319 312 -392 555 -32 104 -39
275 -15 355 17 59 53 101 84 96 26 -4 37 -43 60 -218 57 -426 312 -693 731
-765 308 -53 622 30 821 217 160 149 279 421 279 638 1 87 -3 103 -35 180 -20
47 -48 118 -63 158 -53 138 -178 298 -300 381 -41 29 -51 32 -72 22 -37 -17
-87 -13 -214 14 -148 32 -295 42 -397 25 -43 -7 -140 -34 -217 -61 -157 -55
-209 -65 -249 -50 -49 19 -29 41 88 99 228 113 385 152 523 132 110 -17 282
-62 390 -103 92 -35 92 -35 92 -6 0 37 -56 94 -124 125 -28 13 -94 35 -146 49
-127 35 -162 51 -158 73 5 24 111 28 205 7 137 -31 203 -72 348 -219 186 -189
287 -338 356 -527 35 -97 45 -111 73 -107 34 5 47 45 43 129 -4 84 12 55 -209
392 -152 233 -355 396 -551 442 -120 28 -202 17 -297 -41 -38 -23 -89 -40
-165 -57 -210 -47 -365 -119 -461 -213 -40 -39 -54 -61 -61 -95 -11 -54 -46
-77 -159 -103 -68 -16 -82 -24 -121 -65 -52 -53 -173 -233 -232 -342 -137
-254 -131 -460 26 -829 111 -262 265 -446 456 -545 69 -35 69 -35 170 -29 82
5 129 2 237 -17 178 -30 442 -33 570 -6 262 56 521 186 671 336 61 61 69 75
89 142 12 41 46 146 77 234 215 618 272 876 244 1095 -27 214 -139 445 -314
652 -58 68 -208 192 -311 256 -169 106 -463 219 -681 262 -107 21 -359 35
-445 24z m710 -1184 c52 -11 124 -34 159 -51 82 -40 178 -135 217 -215 26 -52
29 -70 29 -154 1 -52 7 -131 14 -176 12 -71 12 -90 -3 -165 -52 -259 -249
-461 -513 -526 -98 -24 -275 -21 -377 6 -254 67 -429 234 -516 492 -33 96 -60
250 -60 337 0 99 28 160 106 231 92 84 377 212 535 240 83 15 300 5 409 -19z"/>
<path d="M4618 5360 c-168 -29 -359 -130 -441 -235 -104 -133 -113 -317 -25
-502 44 -93 167 -216 260 -261 284 -138 625 -31 751 235 29 61 32 77 32 158 0
113 -21 159 -114 254 -110 112 -232 152 -354 117 -166 -48 -248 -225 -161
-348 81 -115 252 -114 312 2 27 54 28 76 2 118 -21 35 -50 41 -70 17 -16 -20
-49 -16 -63 7 -17 26 7 67 50 84 102 43 226 -73 227 -211 0 -79 -29 -140 -96
-200 -165 -148 -450 -89 -553 116 -128 251 86 529 406 529 140 0 231 -41 368
-164 58 -52 80 -66 100 -64 22 3 26 7 23 33 -8 77 -131 207 -247 261 -112 53
-280 75 -407 54z"/>
<path d="M3005 4308 c-3 -7 -1 -35 4 -63 9 -50 9 -50 8 13 -1 62 -4 73 -12 50z"/>
<path d="M6991 4223 c-37 -82 -210 -325 -321 -453 -94 -107 -109 -142 -75
-170 46 -39 192 144 305 382 56 120 113 259 107 264 -2 2 -9 -8 -16 -23z"/>
<path d="M6784 3530 c-6 -6 -47 -23 -91 -39 -163 -57 -297 -148 -392 -265 -98
-119 -150 -157 -273 -197 -32 -11 -116 -46 -186 -78 -70 -32 -181 -79 -247
-105 -67 -26 -136 -56 -155 -68 -34 -20 -34 -20 -11 -39 55 -45 188 -22 455
77 180 67 311 134 402 208 44 35 152 140 239 233 87 92 186 194 219 226 33 31
57 57 55 57 -3 0 -10 -5 -15 -10z"/>
<path d="M6110 3282 c-38 -18 -103 -106 -98 -131 5 -27 41 -23 91 8 40 26 87
81 87 103 0 9 -29 38 -38 38 -4 0 -23 -8 -42 -18z"/>
<path d="M6325 2867 c-27 -11 -104 -43 -170 -70 -292 -121 -487 -172 -714
-187 -211 -14 -314 -46 -296 -92 26 -67 267 -63 533 7 107 28 288 101 382 152
69 38 320 202 320 209 0 2 -1 4 -2 3 -2 -1 -25 -10 -53 -22z"/>
<path d="M4215 2415 c226 -87 408 -124 730 -146 193 -13 276 -8 425 25 58 13
171 39 253 56 81 18 146 35 144 37 -5 5 -214 -13 -385 -33 -135 -16 -153 -16
-295 0 -84 9 -237 21 -342 27 -104 5 -232 16 -284 25 -51 8 -141 21 -200 28
-58 8 -119 17 -136 21 -16 3 24 -15 90 -40z"/>
</g>
</svg>
