<?xml version="1.0" standalone="no"?>
<!DOCTYPE svg PUBLIC "-//W3C//DTD SVG 20010904//EN"
 "http://www.w3.org/TR/2001/REC-SVG-20010904/DTD/svg10.dtd">
<svg version="1.0" xmlns="http://www.w3.org/2000/svg"
 width="1000.000000pt" height="1000.000000pt" viewBox="0 0 1000.000000 1000.000000"
 preserveAspectRatio="xMidYMid meet">
<metadata>
  <rdf:RDF
    xmlns:rdf = "http://www.w3.org/1999/02/22-rdf-syntax-ns#"
    xmlns:rdfs = "http://www.w3.org/2000/01/rdf-schema#"
    xmlns:dc = "http://purl.org/dc/elements/1.1/"
    xmlns:cc = "http://creativecommons.org/ns#">
    <cc:license rdf:resource="http://creativecommons.org/publicdomain/zero/1.0/deed.en"/>
    <cc:permits rdf:resource="http://creativecommons.org/ns#Reproduction"/>
    <rdf:Description about="https://nft.mir.one/fingerprints"
      dc:title="TON Fingerprints"
      dc:description="This is a unique digital fingerprint created based on the algorithm for generating basic rings using a noise texture. Like human fingerprints, you can now use it for the Web3 and Metaverse era as digital biometric information."
      dc:publisher="https://nft.mir.one"
      dc:date="2022-02-22"
      dc:format="image/svg+xml"
      dc:language="en" >
      <dc:creator>
      <rdf:Bag>
        <rdf:li>EQBondcvD2_aOFADXSWJHs4ZazQDuEl9_wNvGGPxI8hGuOFU</rdf:li>
        <rdf:li>ipfs://bafkreihj7iub3fhmhq6jn62noukt5wxn3gv6bvcg7wmt6ywvlurefezckq</rdf:li>
      </rdf:Bag>
      </dc:creator>
    </rdf:Description>
  </rdf:RDF>
</metadata>
<rect width="100%" height="100%" fill="#1b1f23"/>
<g transform="translate(0.000000,1000.000000) scale(0.100000,-0.100000)"
fill="#ffffff" stroke="none">
<path d="M4855 7720 c-188 -29 -379 -84 -495 -143 -85 -43 -255 -172 -303
-231 -21 -25 -75 -74 -120 -108 -158 -120 -228 -201 -199 -230 9 -9 45 4 139
50 155 74 169 77 358 97 83 9 263 32 400 52 389 55 710 56 898 3 37 -11 48
-32 25 -47 -7 -4 -157 -8 -333 -8 -320 0 -320 0 -570 -38 -358 -55 -489 -82
-665 -139 -136 -44 -162 -49 -211 -44 -50 5 -62 2 -95 -21 -70 -46 -225 -196
-222 -212 6 -28 51 -36 115 -19 139 36 398 121 504 166 146 62 221 87 340 111
158 33 585 91 709 97 139 7 456 -18 519 -40 29 -11 72 -43 125 -94 45 -43 126
-105 181 -139 207 -129 291 -225 309 -353 4 -25 11 -73 17 -106 15 -85 6 -99
-68 -109 -147 -20 -195 -13 -403 53 -269 85 -432 123 -750 173 -109 17 -200
22 -475 28 -305 5 -344 8 -369 24 -34 23 -43 44 -25 63 12 11 22 11 54 2 30
-8 97 -8 265 2 257 14 316 10 651 -45 369 -61 480 -89 779 -194 182 -64 250
-67 220 -11 -15 28 -272 153 -401 195 -110 36 -215 57 -499 100 -91 14 -214
38 -275 53 -93 23 -130 27 -245 26 -155 -1 -281 -16 -413 -49 -96 -25 -117
-22 -98 14 39 71 233 121 552 141 160 10 174 13 194 34 39 42 84 49 269 43
165 -6 261 -20 374 -52 58 -17 63 -32 18 -54 -24 -11 -52 -10 -205 9 -175 23
-442 33 -457 17 -16 -16 14 -42 67 -59 30 -10 191 -36 359 -58 386 -50 429
-64 658 -207 57 -36 109 -62 117 -59 52 20 -41 139 -179 230 -44 29 -128 77
-185 106 -84 43 -106 59 -117 85 -19 47 -76 92 -137 109 -127 37 -416 48 -557
21 -41 -8 -171 -28 -289 -45 -367 -54 -474 -91 -605 -211 -78 -71 -101 -81
-206 -94 -68 -9 -257 -63 -370 -106 -71 -27 -95 -42 -146 -93 -74 -75 -250
-339 -280 -423 -29 -77 -187 -663 -181 -669 2 -3 10 10 17 28 7 18 24 48 37
66 13 18 58 116 99 219 83 209 115 270 187 362 68 85 221 220 321 282 104 65
360 189 390 189 12 0 27 -5 34 -12 14 -14 16 -102 2 -128 -5 -10 -60 -46 -122
-81 -330 -183 -480 -330 -613 -603 -67 -137 -113 -262 -142 -387 -23 -101 -23
-355 1 -459 42 -188 120 -370 231 -535 83 -123 107 -170 103 -198 -8 -57 -99
-16 -196 87 -130 140 -223 313 -333 621 -35 99 -36 82 -3 -86 30 -154 81 -334
124 -439 64 -155 158 -296 223 -335 51 -29 458 -196 537 -219 146 -44 411 -60
566 -36 339 53 666 217 880 441 260 273 332 552 238 922 -48 190 -82 255 -163
311 -37 26 -42 27 -75 15 -38 -14 -36 -14 -251 27 -94 18 -226 17 -322 -1
-362 -69 -535 -433 -370 -780 63 -132 176 -209 352 -240 50 -9 121 -23 159
-31 91 -19 102 -18 161 10 110 51 218 181 256 309 30 97 24 239 -13 317 -52
112 -154 180 -283 188 -182 12 -319 -97 -320 -253 0 -150 148 -252 279 -190
69 33 103 113 72 173 -23 44 -54 51 -79 18 -33 -45 -77 -28 -77 29 0 62 75
105 149 85 88 -23 140 -100 141 -207 0 -50 -6 -73 -33 -124 -57 -111 -164
-168 -294 -156 -261 25 -405 297 -281 530 108 201 414 268 673 146 161 -76
248 -314 201 -549 -40 -200 -143 -346 -402 -567 -164 -139 -352 -208 -604
-220 -261 -13 -527 67 -658 196 -90 90 -275 419 -326 581 -78 246 -79 501 -2
726 108 317 335 573 598 674 217 84 780 129 1063 86 289 -44 648 -163 950
-314 406 -202 609 -467 697 -905 18 -92 22 -144 22 -292 -1 -99 -5 -193 -11
-210 -12 -38 -45 -45 -60 -13 -20 41 -22 57 -33 196 -19 247 -47 384 -107 537
-78 196 -147 285 -308 391 -60 40 -157 105 -215 144 -111 75 -322 183 -480
245 -285 111 -622 164 -868 136 -112 -13 -333 -65 -451 -105 -156 -54 -304
-148 -406 -258 -323 -348 -361 -871 -95 -1276 125 -190 298 -298 562 -353 86
-18 124 -20 233 -16 186 8 310 48 369 117 54 65 35 72 -191 74 -207 2 -262 14
-370 76 -77 44 -97 78 -128 210 -15 63 -36 153 -47 200 -28 120 -22 285 14
387 53 148 159 269 291 332 101 47 202 65 367 65 164 -1 245 -15 396 -69 52
-20 100 -33 105 -30 35 22 -27 102 -113 146 -108 54 -197 69 -485 82 -243 10
-267 9 -320 -7 -207 -64 -394 -272 -453 -502 -27 -105 -27 -272 0 -380 11 -45
45 -130 79 -197 33 -65 57 -125 55 -132 -18 -47 -114 -9 -176 69 -48 60 -101
167 -124 251 -25 92 -30 303 -9 406 61 305 256 519 596 657 52 21 113 51 136
65 94 59 152 71 343 71 197 -1 303 -18 484 -81 289 -99 615 -314 684 -449 34
-67 147 -372 171 -462 70 -261 66 -579 -9 -802 -36 -108 -67 -171 -133 -270
-122 -183 -413 -417 -693 -558 -104 -52 -304 -136 -414 -173 -123 -41 -210
-37 -210 9 0 14 35 32 148 76 805 318 1180 698 1232 1250 17 189 -13 413 -82
600 -79 216 -170 334 -368 477 -214 155 -406 241 -614 274 -105 17 -328 20
-389 6 -46 -11 -87 -37 -87 -55 0 -33 31 -40 209 -47 186 -7 262 -17 369 -51
134 -41 208 -88 382 -243 61 -55 135 -115 163 -134 74 -48 104 -78 143 -142
80 -133 125 -318 125 -522 0 -324 -108 -576 -349 -811 -162 -159 -361 -287
-658 -424 -175 -81 -214 -104 -288 -171 -46 -42 -65 -51 -126 -65 -40 -9 -141
-20 -224 -23 -171 -6 -216 -18 -216 -57 0 -49 96 -99 245 -126 100 -18 365
-25 436 -11 58 11 295 99 587 218 265 108 675 399 801 568 175 236 240 478
220 821 -15 257 -57 436 -154 660 -55 124 -64 173 -37 182 23 7 105 -89 149
-174 91 -174 138 -367 169 -694 21 -224 15 -354 -20 -475 -51 -171 -181 -406
-280 -509 -25 -25 -78 -62 -123 -84 -43 -22 -121 -70 -173 -107 -285 -203
-375 -251 -610 -325 -257 -81 -349 -129 -405 -210 -39 -56 -71 -64 -240 -57
-161 7 -335 35 -447 71 -43 14 -142 58 -220 97 -180 90 -397 175 -464 181 -51
5 -51 5 -5 -31 299 -229 395 -293 570 -381 146 -73 254 -106 431 -130 85 -12
234 -37 330 -56 157 -32 187 -35 290 -31 192 8 315 58 600 244 302 198 460
354 560 553 27 53 79 148 117 211 152 251 217 394 293 639 31 101 53 152 86
201 76 111 88 164 88 374 0 199 -17 306 -75 480 -108 324 -325 602 -563 722
-85 43 -648 231 -831 278 -299 77 -514 97 -932 88 -261 -6 -297 -4 -337 11
-24 9 -47 25 -51 34 -10 27 30 52 84 52 515 3 724 -2 865 -20 248 -32 423 -72
721 -165 222 -69 279 -83 425 -101 140 -17 188 -39 287 -129 244 -223 443
-595 509 -950 27 -141 27 -437 0 -550 -19 -85 -160 -484 -221 -625 -84 -197
-289 -550 -422 -727 -128 -171 -297 -325 -520 -473 -410 -273 -610 -313 -1159
-233 -259 37 -262 37 -316 20 -30 -9 -66 -17 -79 -18 -52 -1 15 -18 76 -18 33
-1 116 -15 184 -31 215 -53 301 -64 491 -64 141 1 195 5 277 22 245 53 474
164 713 347 496 381 851 993 1018 1758 25 116 27 136 27 402 -1 225 -4 299
-18 375 -42 224 -120 467 -191 595 -20 34 -89 136 -154 226 -156 214 -171 240
-232 394 -124 313 -172 368 -455 523 -61 34 -121 72 -133 85 -20 21 -21 25 -7
37 31 26 146 -11 351 -112 65 -32 125 -70 160 -102 48 -44 60 -65 97 -156 24
-58 74 -159 111 -225 76 -132 332 -520 380 -575 17 -19 39 -46 48 -60 18 -25
18 -25 9 0 -19 56 -146 332 -198 430 -30 58 -104 187 -165 287 -89 147 -109
187 -104 208 7 26 41 41 76 32 30 -8 24 -1 -27 28 -25 15 -79 58 -120 96 -100
93 -139 118 -274 177 -140 61 -221 87 -337 107 -136 23 -187 42 -238 86 -76
66 -161 92 -359 109 -150 13 -342 0 -605 -41 -161 -25 -377 -47 -476 -49 -11
0 -29 6 -40 14 -19 14 -19 15 4 39 12 13 45 34 72 47 48 23 50 23 104 6 59
-19 48 -20 283 24 249 47 416 63 593 57 190 -8 293 -28 465 -95 72 -27 189
-69 260 -92 72 -24 177 -63 235 -88 58 -25 121 -48 140 -53 35 -8 35 -8 5 17
-209 173 -624 360 -910 410 -132 23 -398 23 -550 0 -140 -22 -334 -69 -439
-107 -95 -35 -108 -38 -113 -23 -6 19 47 74 96 98 161 82 536 156 788 156 109
0 362 -28 498 -55 65 -13 121 -23 122 -21 6 6 -244 77 -342 97 -78 16 -147 21
-315 24 -118 2 -242 0 -275 -5z m1283 -4416 c9 -86 -227 -300 -525 -478 -62
-37 -136 -88 -165 -112 -96 -83 -206 -124 -329 -124 -117 0 -229 51 -229 105
0 38 37 42 98 11 40 -20 66 -26 120 -26 143 0 298 68 254 112 -16 16 -73 13
-185 -11 -125 -27 -182 -30 -182 -11 0 22 60 57 134 80 64 20 117 29 270 49
134 18 336 133 561 321 159 133 172 140 178 84z"/>
<path d="M5594 5165 c-9 -23 0 -80 30 -186 164 -592 -178 -1104 -932 -1397
-131 -51 -281 -93 -412 -114 -98 -15 -357 -15 -439 1 -155 30 -382 122 -552
222 -77 46 -174 84 -162 65 4 -6 46 -60 93 -121 99 -129 240 -272 313 -320 60
-39 239 -98 347 -115 72 -11 79 -10 175 20 55 17 156 40 225 51 68 11 163 33
210 49 108 36 515 228 640 302 350 206 566 463 652 776 18 64 22 106 22 252 0
152 -2 186 -22 259 -44 159 -109 271 -158 271 -14 0 -27 -7 -30 -15z"/>
<path d="M2902 4880 c0 -14 2 -19 5 -12 2 6 2 18 0 25 -3 6 -5 1 -5 -13z"/>
</g>
</svg>
