<?xml version="1.0" standalone="no"?>
<!DOCTYPE svg PUBLIC "-//W3C//DTD SVG 20010904//EN"
 "http://www.w3.org/TR/2001/REC-SVG-20010904/DTD/svg10.dtd">
<svg version="1.0" xmlns="http://www.w3.org/2000/svg"
 width="1000.000000pt" height="1000.000000pt" viewBox="0 0 1000.000000 1000.000000"
 preserveAspectRatio="xMidYMid meet">
<metadata>
  <rdf:RDF
    xmlns:rdf = "http://www.w3.org/1999/02/22-rdf-syntax-ns#"
    xmlns:rdfs = "http://www.w3.org/2000/01/rdf-schema#"
    xmlns:dc = "http://purl.org/dc/elements/1.1/"
    xmlns:cc = "http://creativecommons.org/ns#">
    <cc:license rdf:resource="http://creativecommons.org/publicdomain/zero/1.0/deed.en"/>
    <cc:permits rdf:resource="http://creativecommons.org/ns#Reproduction"/>
    <rdf:Description about="https://nft.mir.one/fingerprints"
      dc:title="TON Fingerprints"
      dc:description="This is a unique digital fingerprint created based on the algorithm for generating basic rings using a noise texture. Like human fingerprints, you can now use it for the Web3 and Metaverse era as digital biometric information."
      dc:publisher="https://nft.mir.one"
      dc:date="2022-02-22"
      dc:format="image/svg+xml"
      dc:language="en" >
      <dc:creator>
      <rdf:Bag>
        <rdf:li>EQBondcvD2_aOFADXSWJHs4ZazQDuEl9_wNvGGPxI8hGuOFU</rdf:li>
        <rdf:li>ipfs://bafkreihj7iub3fhmhq6jn62noukt5wxn3gv6bvcg7wmt6ywvlurefezckq</rdf:li>
      </rdf:Bag>
      </dc:creator>
    </rdf:Description>
  </rdf:RDF>
</metadata>
<rect width="100%" height="100%" fill="#1b1f23"/>
<g transform="translate(0.000000,1000.000000) scale(0.100000,-0.100000)"
fill="#ffffff" stroke="none">
<path d="M4905 7793 c-27 -14 -97 -46 -155 -70 -188 -79 -447 -223 -569 -316
-30 -23 -78 -74 -107 -113 -32 -44 -93 -105 -156 -156 -268 -221 -443 -460
-536 -733 -17 -49 -43 -155 -57 -235 -14 -80 -37 -194 -50 -255 -30 -132 -31
-155 -6 -270 11 -50 29 -160 41 -245 11 -85 32 -218 45 -295 14 -76 25 -154
25 -172 0 -37 -22 -53 -49 -36 -50 31 -116 251 -150 500 -25 177 -37 226 -62
249 -18 16 -21 16 -35 2 -25 -25 -38 -199 -25 -352 18 -216 65 -347 183 -511
35 -49 91 -135 124 -189 63 -106 151 -210 184 -219 22 -6 50 16 50 39 0 8 -15
56 -34 107 -78 212 -84 248 -67 393 10 84 8 139 -9 353 -11 140 -20 322 -20
406 0 225 46 578 97 739 97 311 382 607 632 656 31 6 142 33 246 60 444 114
586 125 940 71 523 -79 688 -115 890 -191 104 -39 237 -81 242 -77 4 4 -197
149 -255 184 -87 52 -209 108 -297 136 -76 24 -162 37 -450 73 -141 17 -191
33 -245 76 -33 26 -43 28 -194 38 -222 15 -256 7 -632 -143 -190 -77 -266 -97
-294 -78 -37 25 47 85 340 246 325 178 347 194 425 296 25 33 44 59 42 59 -1
-1 -24 -13 -52 -27z"/>
<path d="M5181 7694 c-140 -24 -211 -67 -165 -101 27 -21 130 -11 224 22 86
29 262 75 290 75 10 0 22 5 25 10 9 15 -275 11 -374 -6z"/>
<path d="M5381 7540 c-89 -19 -122 -69 -58 -89 17 -5 122 -15 232 -21 110 -6
247 -17 304 -25 58 -8 134 -15 170 -15 64 1 65 1 36 14 -81 35 -280 97 -370
115 -123 24 -255 33 -314 21z"/>
<path d="M3955 7419 c-71 -67 -183 -169 -247 -227 -65 -58 -118 -110 -118
-116 0 -5 17 6 38 25 20 20 78 68 128 107 72 56 349 333 333 332 -2 0 -62 -55
-134 -121z"/>
<path d="M5015 7073 c-16 -2 -79 -15 -140 -28 -82 -18 -137 -24 -215 -23 -90
1 -117 -3 -185 -26 -48 -16 -118 -30 -177 -35 -78 -7 -108 -15 -159 -41 -153
-78 -311 -242 -389 -406 -55 -114 -70 -198 -80 -434 -5 -118 -15 -246 -22
-285 -9 -52 -12 -200 -10 -579 3 -465 5 -519 23 -615 12 -58 27 -143 34 -189
16 -98 37 -137 133 -248 174 -200 455 -389 711 -478 405 -141 829 -52 1122
235 190 185 298 453 229 564 -20 33 -20 33 0 87 39 104 80 150 113 125 26 -19
35 -296 13 -404 -34 -167 -115 -318 -246 -456 -160 -169 -339 -270 -610 -344
-102 -28 -377 -25 -487 5 -190 52 -384 141 -567 262 -141 93 -235 170 -393
321 -75 72 -171 157 -213 189 -41 31 -101 85 -133 119 -120 130 -293 399 -360
561 -22 52 -43 100 -47 105 -5 6 -18 33 -29 60 -21 50 -21 50 -15 10 44 -289
134 -569 225 -702 49 -70 170 -194 378 -386 223 -205 329 -290 498 -400 273
-179 542 -306 725 -343 119 -24 319 -16 456 20 262 68 488 192 658 361 142
142 232 291 291 482 24 80 27 104 27 253 1 190 -10 238 -73 318 -48 61 -56 75
-71 142 -87 382 -282 647 -585 795 -62 31 -152 65 -207 79 -179 46 -397 51
-520 11 -73 -24 -221 -99 -292 -148 -56 -40 -59 -41 -72 -22 -8 10 -14 26 -14
35 0 30 44 84 94 115 26 17 87 56 134 87 134 90 221 103 480 72 453 -52 758
-237 984 -594 88 -140 218 -468 264 -665 25 -108 25 -327 0 -443 -68 -317
-263 -606 -526 -781 -262 -175 -630 -301 -876 -301 -174 0 -246 25 -529 180
-305 167 -513 299 -670 425 -135 108 -494 443 -580 541 -41 48 -96 105 -121
127 -46 40 -46 40 19 -90 116 -231 181 -317 395 -519 106 -101 227 -206 278
-240 117 -81 430 -273 573 -355 134 -75 181 -115 181 -153 0 -32 -16 -33 -94
-6 -105 36 -244 108 -329 169 -46 33 -152 99 -236 146 -208 116 -291 174 -348
242 -85 103 -239 247 -297 280 -31 18 -55 29 -52 24 3 -4 55 -70 117 -147 61
-76 116 -150 122 -163 16 -33 -14 -54 -68 -47 -38 5 -37 3 30 -32 39 -20 99
-62 135 -92 105 -90 150 -117 327 -195 162 -72 223 -111 209 -134 -18 -29
-194 10 -361 79 -55 23 -118 46 -140 51 -22 5 -49 12 -60 16 -42 12 214 -169
295 -210 85 -42 85 -42 260 -42 175 0 175 0 244 -32 79 -38 153 -43 221 -16
76 30 113 28 213 -11 61 -24 108 -36 141 -36 118 0 417 70 581 135 36 14 151
67 255 117 105 49 218 104 253 120 42 20 92 58 154 116 388 370 545 842 448
1347 -45 230 -164 520 -292 708 -83 122 -248 286 -367 366 -226 150 -384 204
-721 246 -69 8 -156 25 -195 36 -61 19 -87 21 -205 16 -142 -5 -234 -26 -295
-67 -33 -22 -60 -26 -70 -9 -12 18 53 132 117 206 56 63 66 81 86 155 35 130
75 201 166 296 93 98 195 173 273 202 305 114 903 27 1368 -199 178 -87 267
-154 434 -326 73 -75 127 -127 121 -114 -30 55 -126 209 -168 269 -64 91 -233
257 -317 312 -184 120 -578 224 -1014 268 -99 10 -303 11 -366 3z m-326 -157
c19 -22 -2 -59 -81 -144 -75 -80 -145 -170 -236 -302 -87 -127 -145 -185 -230
-230 -42 -22 -111 -67 -152 -99 -103 -83 -139 -89 -140 -23 0 47 28 86 78 109
98 45 244 192 466 468 97 120 155 174 231 214 47 25 49 25 64 7z m-354 -47
c16 -24 -12 -65 -121 -181 -139 -148 -264 -300 -305 -374 -34 -60 -54 -68 -70
-27 -19 51 25 163 104 268 81 107 245 257 332 304 45 24 51 25 60 10z m-111
-717 c9 -26 -34 -189 -84 -317 -112 -292 -133 -384 -134 -590 -1 -181 16 -258
94 -410 140 -276 282 -432 483 -530 116 -56 206 -78 327 -78 209 -1 372 77
440 212 15 31 54 88 87 126 121 145 165 244 167 375 1 113 -29 207 -98 303
-197 275 -573 346 -892 168 -143 -80 -204 -172 -212 -316 -6 -104 10 -177 58
-273 91 -180 247 -294 444 -323 59 -9 95 -8 182 5 60 9 123 16 140 16 33 0 60
-22 49 -40 -11 -18 -121 -69 -182 -85 -75 -20 -231 -20 -308 0 -136 35 -287
135 -381 253 -58 73 -139 237 -160 327 -36 145 -19 319 42 435 45 86 56 94
147 101 62 5 104 16 171 43 268 112 507 106 756 -16 92 -45 117 -64 201 -147
82 -82 102 -110 142 -191 97 -198 102 -332 19 -497 -40 -79 -247 -337 -338
-423 -305 -286 -815 -233 -1147 119 -72 77 -116 139 -201 283 -31 53 -79 122
-107 152 -58 64 -72 100 -89 241 -18 139 -7 430 20 558 38 181 55 212 219 411
102 124 133 147 145 108z m281 -232 c0 -34 -134 -95 -158 -71 -17 17 2 42 54
69 48 25 104 26 104 2z m659 -603 c116 -53 193 -138 228 -249 23 -76 23 -120
-2 -200 -48 -157 -193 -236 -411 -226 -76 3 -105 10 -151 32 -84 40 -152 106
-190 184 -30 60 -33 75 -33 157 0 81 3 95 29 143 72 129 200 194 376 189 79
-2 105 -7 154 -30z m-1317 -539 c6 -7 23 -47 38 -88 98 -263 235 -439 455
-583 277 -181 607 -225 879 -116 161 64 288 169 433 356 43 56 92 113 109 127
30 26 89 36 89 16 0 -15 -51 -114 -106 -207 -167 -283 -430 -453 -749 -485
-198 -20 -411 26 -615 134 -255 134 -455 334 -530 529 -60 156 -75 262 -44
307 17 25 27 27 41 10z"/>
<path d="M4965 5210 c-138 -22 -238 -156 -206 -276 29 -107 123 -174 243 -174
80 0 129 18 177 63 164 156 17 423 -214 387z m93 -192 c22 -22 14 -75 -14 -97
-39 -31 -89 -28 -125 8 -31 32 -33 38 -20 60 7 11 14 11 46 0 36 -13 38 -13
57 14 21 29 37 34 56 15z"/>
<path d="M3534 7018 c-19 -23 -19 -23 4 -4 21 18 27 26 19 26 -2 0 -12 -10
-23 -22z"/>
<path d="M5172 6769 c-168 -22 -326 -97 -455 -218 -60 -56 -83 -96 -66 -117 6
-8 18 -14 25 -14 7 0 73 31 146 68 221 113 328 138 567 129 218 -8 393 -50
586 -142 137 -65 171 -94 179 -148 4 -29 21 -65 46 -100 47 -65 65 -106 51
-120 -18 -18 -57 7 -146 93 -143 138 -259 203 -457 255 -143 37 -247 48 -382
42 -144 -7 -248 -31 -396 -92 -60 -24 -137 -51 -172 -60 -155 -40 -139 -140
19 -121 30 4 101 26 157 50 146 63 232 81 401 80 269 -1 463 -64 717 -235 65
-43 156 -97 204 -120 103 -49 182 -123 296 -275 263 -355 417 -766 448 -1201
11 -166 -3 -479 -29 -598 -31 -145 -32 -153 -12 -94 26 76 66 258 88 399 14
90 18 175 18 390 0 244 -3 290 -24 404 -34 191 -64 286 -135 431 -81 163 -151
274 -280 444 -55 73 -137 185 -181 249 -50 72 -101 133 -135 161 -30 24 -55
52 -55 60 0 23 50 26 104 5 123 -47 430 -434 638 -804 77 -137 148 -254 141
-230 -3 8 -22 69 -43 135 -107 347 -266 659 -417 820 -139 149 -254 217 -563
333 -334 125 -635 173 -883 141z"/>
<path d="M3156 6293 c-30 -128 -68 -371 -60 -384 10 -16 33 3 48 41 16 40 32
191 39 363 2 53 3 97 2 97 -1 0 -14 -53 -29 -117z"/>
<path d="M5066 6239 c-89 -12 -156 -41 -156 -68 0 -32 26 -39 165 -46 285 -15
447 -54 645 -156 159 -82 286 -175 410 -299 377 -376 577 -1039 471 -1558 -66
-322 -183 -539 -451 -841 -133 -150 -142 -165 -186 -308 -38 -125 -40 -130
-99 -188 -149 -150 -387 -263 -910 -429 -172 -55 -317 -115 -280 -116 49 -1
351 43 454 66 347 78 524 153 829 351 66 43 152 98 191 122 110 69 415 389
515 540 52 78 110 181 103 181 -3 0 -22 -30 -43 -67 -41 -73 -89 -124 -358
-377 -180 -168 -243 -216 -287 -216 -71 0 -27 72 186 305 266 290 354 429 445
704 62 185 80 289 87 497 11 357 -51 643 -211 969 -108 219 -246 413 -364 513
-120 101 -396 273 -525 328 -196 84 -430 118 -631 93z"/>
<path d="M6786 3545 c-9 -26 -7 -32 5 -12 6 10 9 21 6 23 -2 3 -7 -2 -11 -11z"/>
<path d="M5800 3083 c-8 -3 -71 -40 -140 -81 -202 -122 -359 -188 -695 -291
-72 -22 -182 -66 -245 -97 -153 -75 -237 -107 -345 -134 -94 -23 -174 -48
-188 -60 -5 -4 59 -11 141 -15 231 -11 349 3 542 67 404 132 632 227 782 323
134 87 249 229 221 273 -10 18 -47 25 -73 15z"/>
<path d="M3848 2860 c-36 -5 -92 -14 -123 -21 -58 -13 -58 -13 -19 -26 51 -18
241 -43 326 -43 127 0 195 50 121 89 -24 12 -199 13 -305 1z"/>
<path d="M4395 2771 c-60 -16 -131 -38 -157 -50 -75 -32 -124 -43 -258 -55
-125 -12 -125 -12 -65 -30 227 -68 408 -62 592 19 65 29 113 70 113 96 0 26
-39 49 -80 49 -19 -1 -84 -14 -145 -29z"/>
</g>
</svg>
