<?xml version="1.0" standalone="no"?>
<!DOCTYPE svg PUBLIC "-//W3C//DTD SVG 20010904//EN"
 "http://www.w3.org/TR/2001/REC-SVG-20010904/DTD/svg10.dtd">
<svg version="1.0" xmlns="http://www.w3.org/2000/svg"
 width="1000.000000pt" height="1000.000000pt" viewBox="0 0 1000.000000 1000.000000"
 preserveAspectRatio="xMidYMid meet">
<metadata>
  <rdf:RDF
    xmlns:rdf = "http://www.w3.org/1999/02/22-rdf-syntax-ns#"
    xmlns:rdfs = "http://www.w3.org/2000/01/rdf-schema#"
    xmlns:dc = "http://purl.org/dc/elements/1.1/"
    xmlns:cc = "http://creativecommons.org/ns#">
    <cc:license rdf:resource="http://creativecommons.org/publicdomain/zero/1.0/deed.en"/>
    <cc:permits rdf:resource="http://creativecommons.org/ns#Reproduction"/>
    <rdf:Description about="https://nft.mir.one/fingerprints"
      dc:title="TON Fingerprints"
      dc:description="This is a unique digital fingerprint created based on the algorithm for generating basic rings using a noise texture. Like human fingerprints, you can now use it for the Web3 and Metaverse era as digital biometric information."
      dc:publisher="https://nft.mir.one"
      dc:date="2022-02-22"
      dc:format="image/svg+xml"
      dc:language="en" >
      <dc:creator>
      <rdf:Bag>
        <rdf:li>EQBondcvD2_aOFADXSWJHs4ZazQDuEl9_wNvGGPxI8hGuOFU</rdf:li>
        <rdf:li>ipfs://bafkreihj7iub3fhmhq6jn62noukt5wxn3gv6bvcg7wmt6ywvlurefezckq</rdf:li>
      </rdf:Bag>
      </dc:creator>
    </rdf:Description>
  </rdf:RDF>
</metadata>
<rect width="100%" height="100%" fill="#1b1f23"/>
<g transform="translate(0.000000,1000.000000) scale(0.100000,-0.100000)"
fill="#ffffff" stroke="none">
<path d="M4960 7754 c-83 -11 -271 -58 -376 -95 -274 -94 -461 -197 -774 -427
-63 -46 -134 -95 -158 -109 -24 -14 -41 -27 -39 -30 9 -8 104 21 162 50 33 16
138 76 233 134 232 140 351 202 515 268 323 129 552 176 867 177 135 1 135 1
65 15 -69 13 -427 25 -495 17z"/>
<path d="M5548 7713 c7 -3 16 -2 19 1 4 3 -2 6 -13 5 -11 0 -14 -3 -6 -6z"/>
<path d="M5075 7564 c-186 -29 -370 -79 -545 -149 -142 -57 -223 -101 -415
-225 -82 -53 -195 -122 -250 -153 -315 -176 -501 -377 -740 -802 -34 -60 -33
-60 43 36 33 42 111 128 174 190 150 151 288 245 647 440 149 80 185 104 246
165 39 40 96 88 126 107 126 81 385 169 609 208 236 42 545 34 911 -22 130
-20 292 -39 296 -35 5 4 -263 114 -327 135 -83 26 -241 65 -350 86 -82 16
-362 28 -425 19z"/>
<path d="M5150 7270 c-246 -18 -548 -94 -725 -182 -104 -52 -134 -97 -77 -119
31 -12 94 -1 312 56 266 69 356 80 635 79 235 0 260 -2 428 -32 141 -25 202
-32 295 -30 128 1 179 -9 317 -63 75 -29 177 -60 182 -55 5 5 -207 146 -277
184 -130 70 -230 99 -442 127 -183 24 -447 46 -513 43 -16 0 -77 -4 -135 -8z"/>
<path d="M5040 6969 c-104 -11 -208 -30 -410 -74 -85 -18 -207 -41 -272 -50
-135 -18 -188 -35 -318 -100 -119 -60 -435 -244 -515 -300 -68 -49 -166 -148
-213 -217 -108 -158 -232 -488 -232 -617 0 -46 23 -96 40 -86 5 3 30 60 56
128 123 319 302 592 440 673 46 27 97 29 102 4 1 -8 -34 -60 -79 -115 -112
-137 -203 -278 -301 -469 -86 -167 -146 -246 -187 -246 -27 0 -34 -18 -55
-141 -26 -153 -36 -376 -25 -544 24 -376 140 -862 216 -912 24 -16 26 -16 40
3 10 13 13 36 10 79 -12 166 -31 328 -58 497 -62 393 -56 648 20 857 51 139
262 523 400 729 68 102 92 147 116 221 23 70 83 135 190 206 166 110 292 161
560 226 302 73 435 92 655 92 350 2 499 -43 892 -269 213 -122 363 -230 469
-334 110 -109 135 -144 199 -290 57 -129 290 -527 290 -495 0 23 -166 498
-204 584 -69 156 -154 289 -238 373 -52 52 -194 144 -398 258 -91 51 -217 127
-280 169 -125 83 -210 116 -385 147 -108 19 -406 26 -525 13z"/>
<path d="M6017 6943 c-15 -15 -5 -43 26 -70 18 -16 107 -66 197 -112 91 -46
217 -113 280 -150 63 -36 153 -84 199 -107 84 -42 84 -42 -10 53 -108 109
-257 232 -344 285 -119 72 -320 130 -348 101z"/>
<path d="M5095 6684 c-299 -32 -623 -117 -825 -219 -120 -60 -241 -154 -309
-239 -31 -40 -106 -148 -168 -241 -381 -581 -472 -928 -372 -1418 36 -179 54
-220 129 -295 49 -50 85 -102 145 -207 157 -281 295 -461 419 -549 33 -24 143
-85 243 -135 130 -65 199 -105 237 -141 68 -61 93 -74 193 -101 86 -23 107
-37 97 -63 -12 -31 -62 -46 -241 -72 -170 -25 -185 -25 -333 -14 -112 9 -163
9 -183 1 -88 -34 6 -113 168 -142 85 -15 408 -6 575 15 63 8 192 15 287 16
289 0 510 26 609 69 24 11 74 48 111 83 37 35 111 93 163 128 176 120 249 210
386 478 76 147 109 248 163 492 54 248 65 376 58 695 -7 281 -16 353 -67 515
-18 59 -30 117 -28 138 3 33 6 37 28 35 54 -6 129 -128 172 -281 26 -93 28
-187 10 -547 -15 -315 -25 -418 -56 -580 -13 -71 -28 -172 -34 -223 -9 -92
-11 -97 -120 -311 -61 -119 -116 -238 -122 -264 -15 -58 -7 -97 20 -97 26 0
90 83 131 168 62 129 220 398 275 466 30 37 64 86 75 107 19 39 19 39 -34 -16
-54 -56 -101 -73 -113 -41 -3 8 10 73 30 143 51 182 54 206 66 518 11 279 20
354 46 376 42 35 55 -40 53 -320 -1 -226 5 -281 29 -281 4 0 7 33 8 73 1 39 5
153 9 253 9 202 5 236 -30 289 -19 27 -29 63 -41 145 -29 211 -72 333 -159
456 -60 84 -106 121 -233 189 -80 42 -148 90 -258 181 -299 250 -521 376 -791
451 -89 25 -113 28 -273 28 -175 0 -175 0 -335 -48 -227 -69 -298 -93 -401
-142 -212 -99 -374 -244 -526 -471 -222 -332 -307 -705 -237 -1044 47 -229
225 -542 425 -749 119 -124 222 -201 414 -309 74 -42 203 -120 285 -175 242
-158 321 -189 485 -188 360 1 710 275 887 694 41 97 73 224 73 287 -1 54 -33
197 -49 213 -25 25 -49 -23 -82 -161 -58 -251 -149 -429 -303 -590 -164 -172
-395 -281 -571 -270 -71 4 -120 31 -120 64 0 15 19 23 115 45 136 31 183 48
267 95 149 83 289 226 383 390 24 42 74 153 111 246 38 94 83 193 100 220 30
46 72 88 90 88 8 0 26 -32 78 -140 12 -25 28 -56 34 -70 30 -60 71 -6 61 80
-3 30 -19 96 -35 145 -22 66 -32 124 -40 220 -42 532 -109 717 -342 942 -250
240 -532 364 -910 398 -62 6 -68 9 -65 27 13 87 260 91 510 8 226 -76 430
-204 627 -395 112 -109 183 -199 206 -264 27 -78 94 -445 105 -581 6 -74 18
-213 26 -308 17 -188 12 -258 -26 -348 -11 -25 -34 -101 -51 -168 -58 -232
-115 -363 -230 -536 -146 -218 -410 -414 -639 -475 -87 -23 -336 -32 -438 -15
-96 15 -122 28 -197 99 -71 68 -215 166 -420 286 -214 125 -288 178 -391 280
-108 108 -178 200 -298 394 -155 252 -200 355 -231 532 -20 110 -19 321 1 440
66 395 386 910 691 1112 136 90 320 163 555 221 393 96 671 68 1023 -104 176
-85 341 -195 518 -343 163 -137 197 -159 234 -155 24 3 28 8 31 38 4 49 -37
108 -149 214 -263 250 -698 483 -1009 541 -85 16 -310 27 -385 19z m-90 -597
c39 -19 117 -46 175 -61 321 -83 493 -171 673 -345 198 -191 299 -436 300
-731 1 -73 -5 -144 -12 -170 -18 -65 -292 -613 -352 -706 -101 -155 -271 -295
-449 -369 -36 -15 -110 -48 -164 -72 -96 -45 -100 -45 -149 -34 -60 14 -107
45 -107 72 0 23 17 31 130 57 234 54 468 191 579 339 95 127 303 539 347 688
37 126 38 297 1 436 -97 371 -400 624 -872 729 -147 32 -245 36 -346 12 -141
-34 -251 -91 -359 -187 -225 -200 -350 -475 -350 -773 0 -135 19 -235 67 -357
114 -289 343 -537 563 -611 88 -30 268 -25 385 10 161 49 277 108 392 201 38
30 75 54 83 52 43 -7 8 -98 -62 -163 -104 -96 -229 -160 -458 -237 -214 -71
-208 -70 -291 -52 -258 53 -544 310 -706 633 -85 170 -123 327 -123 509 0 551
411 1067 918 1153 87 14 116 11 187 -23z m180 -347 c249 -67 461 -231 560
-434 64 -130 80 -197 79 -341 0 -177 -48 -324 -157 -487 -74 -111 -93 -128
-169 -143 -35 -8 -123 -41 -196 -75 -204 -94 -352 -124 -488 -101 -146 26
-211 71 -322 221 -174 235 -224 334 -252 500 -38 224 43 485 203 656 109 117
204 175 349 215 97 26 276 21 393 -11z"/>
<path d="M4850 5616 c-259 -66 -441 -284 -465 -556 -16 -184 80 -396 209 -462
87 -45 326 -63 439 -33 243 63 387 273 333 485 -41 160 -160 259 -322 268 -73
4 -88 1 -140 -22 -105 -48 -162 -124 -171 -226 -7 -77 15 -136 67 -184 63 -56
135 -69 207 -36 73 33 106 117 63 160 -28 28 -58 26 -70 -5 -12 -32 -53 -34
-74 -3 -24 34 -20 74 12 109 24 27 37 33 84 37 201 16 263 -257 88 -384 -96
-70 -233 -81 -350 -28 -72 32 -121 82 -157 159 -24 52 -28 72 -27 145 4 394
495 564 790 275 253 -248 174 -654 -159 -814 -131 -64 -193 -74 -388 -67 -141
6 -168 5 -178 -8 -29 -35 24 -90 114 -121 126 -43 301 -26 471 45 202 84 309
168 376 296 58 111 82 203 82 319 0 180 -62 325 -193 455 -139 137 -285 200
-476 206 -72 2 -129 -1 -165 -10z"/>
<path d="M2961 4354 c0 -11 3 -14 6 -6 3 7 2 16 -1 19 -3 4 -6 -2 -5 -13z"/>
<path d="M2971 4314 c0 -11 3 -14 6 -6 3 7 2 16 -1 19 -3 4 -6 -2 -5 -13z"/>
<path d="M2981 4284 c-2 -24 61 -218 98 -304 46 -106 220 -409 298 -518 70
-98 139 -174 211 -234 57 -48 57 -48 154 -48 63 0 132 -8 191 -21 90 -20 468
-69 532 -69 43 0 92 18 99 36 13 34 -40 61 -244 128 -339 111 -412 154 -465
270 -18 39 -61 117 -97 171 -94 147 -121 198 -173 325 -62 150 -81 187 -104
200 -15 8 -24 6 -37 -7 -14 -14 -16 -31 -11 -102 15 -243 80 -388 259 -578 37
-40 68 -76 68 -81 0 -18 -32 -36 -64 -35 -81 2 -209 113 -323 278 -70 103 -81
115 -145 156 -76 49 -154 178 -219 364 -15 44 -28 75 -28 69z"/>
<path d="M6382 3159 c-18 -12 -117 -59 -220 -106 -102 -46 -197 -93 -209 -105
-55 -51 -9 -92 95 -86 56 3 85 12 167 51 55 27 139 75 188 108 49 33 103 67
120 74 29 12 30 14 12 21 -11 4 -36 20 -55 36 -41 33 -55 34 -98 7z"/>
<path d="M3697 3057 c-12 -32 40 -105 163 -228 69 -69 172 -162 230 -207 58
-45 129 -106 158 -135 42 -44 83 -70 210 -135 137 -70 341 -152 375 -152 7 0
-24 16 -68 35 -44 19 -100 49 -125 67 -90 64 -157 107 -239 154 -86 50 -118
82 -107 109 7 20 53 19 152 -1 80 -17 147 -15 263 5 68 13 212 4 401 -24 204
-30 364 -39 465 -26 112 15 317 67 435 112 47 17 114 42 148 54 64 23 64 23
-20 29 -99 7 -306 10 -763 10 -187 0 -383 0 -435 0 -52 0 -192 -3 -310 -8
-397 -15 -499 12 -599 153 -51 73 -70 89 -168 146 -88 51 -156 68 -166 42z"/>
<path d="M4662 2468 c-47 -47 34 -82 332 -144 223 -46 320 -52 516 -28 155 18
155 18 68 25 -48 4 -91 10 -96 13 -5 3 -49 10 -98 16 -49 6 -163 29 -254 51
-294 71 -443 92 -468 67z"/>
</g>
</svg>
