<?xml version="1.0" standalone="no"?>
<!DOCTYPE svg PUBLIC "-//W3C//DTD SVG 20010904//EN"
 "http://www.w3.org/TR/2001/REC-SVG-20010904/DTD/svg10.dtd">
<svg version="1.0" xmlns="http://www.w3.org/2000/svg"
 width="1000.000000pt" height="1000.000000pt" viewBox="0 0 1000.000000 1000.000000"
 preserveAspectRatio="xMidYMid meet">
<metadata>
  <rdf:RDF
    xmlns:rdf = "http://www.w3.org/1999/02/22-rdf-syntax-ns#"
    xmlns:rdfs = "http://www.w3.org/2000/01/rdf-schema#"
    xmlns:dc = "http://purl.org/dc/elements/1.1/"
    xmlns:cc = "http://creativecommons.org/ns#">
    <cc:license rdf:resource="http://creativecommons.org/publicdomain/zero/1.0/deed.en"/>
    <cc:permits rdf:resource="http://creativecommons.org/ns#Reproduction"/>
    <rdf:Description about="https://nft.mir.one/fingerprints"
      dc:title="TON Fingerprints"
      dc:description="This is a unique digital fingerprint created based on the algorithm for generating basic rings using a noise texture. Like human fingerprints, you can now use it for the Web3 and Metaverse era as digital biometric information."
      dc:publisher="https://nft.mir.one"
      dc:date="2022-02-22"
      dc:format="image/svg+xml"
      dc:language="en" >
      <dc:creator>
      <rdf:Bag>
        <rdf:li>EQBondcvD2_aOFADXSWJHs4ZazQDuEl9_wNvGGPxI8hGuOFU</rdf:li>
        <rdf:li>ipfs://bafkreihj7iub3fhmhq6jn62noukt5wxn3gv6bvcg7wmt6ywvlurefezckq</rdf:li>
      </rdf:Bag>
      </dc:creator>
    </rdf:Description>
  </rdf:RDF>
</metadata>
<rect width="100%" height="100%" fill="#1b1f23"/>
<g transform="translate(0.000000,1000.000000) scale(0.100000,-0.100000)"
fill="#ffffff" stroke="none">
<path d="M4915 7790 c-220 -5 -220 -5 -113 -22 140 -24 204 -22 318 7 66 16
83 23 55 22 -22 -1 -139 -4 -260 -7z"/>
<path d="M5183 7633 c-7 -2 -13 -13 -13 -23 0 -9 6 -22 13 -27 23 -19 111 -42
257 -69 80 -14 225 -43 322 -65 122 -27 199 -39 250 -38 40 0 66 3 58 6 -8 3
-87 32 -174 65 -190 70 -333 112 -480 138 -103 19 -206 25 -233 13z"/>
<path d="M4413 7590 c-39 -10 -102 -31 -140 -45 -69 -28 -465 -227 -459 -232
1 -1 38 4 82 12 77 14 490 162 587 212 51 26 69 50 46 64 -19 12 -33 11 -116
-11z"/>
<path d="M4694 7532 c-28 -10 -68 -32 -90 -48 -123 -96 -260 -169 -450 -242
-226 -86 -304 -133 -434 -258 -100 -97 -157 -175 -257 -354 -131 -234 -154
-286 -169 -384 -7 -50 -36 -158 -64 -241 -115 -341 -162 -622 -162 -975 -1
-284 28 -407 158 -680 76 -160 89 -210 55 -210 -32 0 -69 39 -145 153 -82 123
-166 307 -196 427 -23 92 -25 65 -5 -50 21 -117 51 -229 85 -319 37 -94 133
-253 209 -346 32 -39 96 -124 141 -190 163 -235 268 -340 370 -365 71 -17 93
-27 305 -131 229 -113 414 -178 590 -210 101 -18 156 -21 345 -20 172 0 243
-3 302 -16 77 -16 77 -16 130 10 29 15 94 59 143 98 145 116 335 239 368 239
24 0 22 -51 -4 -84 -11 -15 -66 -65 -121 -112 -109 -95 -167 -171 -175 -233
-7 -53 16 -91 56 -91 16 0 46 -7 67 -16 101 -42 296 44 497 222 235 206 340
339 470 594 203 399 307 824 307 1260 0 181 -6 234 -49 420 -16 69 -41 179
-56 245 -66 290 -163 507 -313 705 -80 105 -262 284 -357 351 -97 69 -443 265
-580 330 -182 85 -336 121 -394 90 -48 -26 -19 -56 139 -141 145 -79 234 -136
335 -215 122 -96 144 -122 161 -196 19 -80 42 -119 157 -266 216 -277 321
-461 403 -708 25 -77 52 -150 60 -162 21 -33 60 -30 78 5 36 70 28 178 -26
332 -86 242 -242 474 -486 719 -138 138 -146 157 -62 149 67 -7 136 -54 261
-178 206 -205 377 -484 450 -735 17 -60 23 -106 23 -186 1 -107 1 -107 -46
-176 -26 -38 -54 -85 -63 -106 -18 -43 -90 -449 -111 -622 -18 -158 -45 -250
-104 -363 -69 -131 -130 -203 -225 -267 -113 -76 -340 -190 -406 -205 -66 -15
-112 -4 -117 27 -2 16 15 29 88 68 300 159 476 320 574 524 57 120 59 211 4
211 -35 0 -68 -33 -167 -167 -109 -147 -200 -240 -347 -352 -137 -106 -165
-132 -221 -204 -24 -31 -61 -66 -82 -76 -60 -31 -153 -51 -235 -51 -80 0 -338
38 -474 70 -270 64 -508 195 -681 375 -209 218 -271 357 -271 609 0 313 58
520 193 692 76 96 126 131 354 244 295 147 436 191 613 193 97 1 140 -11 140
-38 0 -22 -44 -40 -155 -65 -204 -46 -348 -103 -475 -190 -95 -65 -121 -99
-125 -162 -1 -30 -22 -113 -46 -184 -40 -121 -43 -136 -43 -244 -1 -110 1
-120 43 -240 66 -192 118 -286 206 -369 128 -121 290 -183 476 -183 212 2 369
71 525 233 163 171 224 315 224 533 0 133 -15 201 -70 311 -123 252 -366 358
-571 252 -37 -20 -102 -45 -145 -57 -271 -75 -418 -250 -417 -495 0 -241 175
-434 393 -438 132 -2 250 62 303 163 25 48 28 63 25 125 -8 169 -150 315 -295
303 -90 -8 -153 -73 -153 -158 0 -75 58 -128 110 -100 21 11 27 54 10 65 -7 4
-7 13 0 26 14 25 60 25 92 -1 58 -45 60 -124 7 -185 -85 -96 -241 -59 -313 75
-25 45 -29 65 -29 124 0 207 195 348 382 277 113 -43 199 -124 288 -271 22
-36 55 -75 74 -88 46 -31 48 -38 38 -102 -26 -165 -166 -321 -339 -381 -87
-30 -240 -32 -320 -5 -183 62 -307 197 -371 406 -18 58 -24 98 -23 175 1 251
118 451 324 552 126 63 439 164 525 170 214 15 407 -113 524 -349 60 -122 87
-226 102 -400 17 -188 11 -248 -32 -338 -93 -194 -313 -411 -511 -505 -136
-64 -270 -85 -426 -66 -309 38 -576 217 -641 431 -11 36 -32 106 -46 155 -15
50 -45 124 -66 166 -36 70 -39 82 -39 158 0 124 23 206 101 358 38 74 69 136
69 138 0 3 -9 9 -20 15 -52 28 -165 -68 -232 -196 -49 -94 -72 -174 -103 -361
-32 -188 -31 -295 4 -386 19 -47 48 -85 164 -209 78 -82 180 -179 227 -215
206 -156 483 -245 764 -244 196 1 276 31 473 180 163 123 263 219 403 387 121
144 140 163 239 231 101 70 164 235 165 433 1 105 1 105 -83 310 -137 338
-179 410 -447 772 -284 384 -367 474 -539 588 -131 86 -175 136 -175 199 0 36
-27 59 -125 106 -107 52 -189 68 -355 71 -80 1 -155 3 -168 3 -33 1 -38 28
-12 56 53 56 235 94 364 76 41 -6 134 -26 208 -45 73 -19 165 -40 203 -47 275
-44 536 -147 770 -304 264 -176 463 -347 598 -515 34 -41 79 -95 102 -120 22
-25 53 -61 69 -80 23 -29 21 -21 -14 45 -162 303 -277 442 -657 797 -182 170
-266 204 -815 333 -109 25 -182 48 -240 77 -46 22 -105 47 -133 54 -73 20
-248 18 -311 -4z m-157 -452 c26 -5 116 -16 198 -24 169 -17 270 -43 305 -81
45 -48 31 -50 -348 -50 -347 0 -347 0 -440 -28 -221 -64 -398 -178 -487 -312
-20 -31 -51 -102 -70 -159 -18 -56 -58 -153 -89 -214 -99 -197 -176 -407 -197
-536 -9 -57 -9 -93 0 -151 12 -85 3 -175 -44 -415 -36 -180 -32 -304 13 -430
43 -122 146 -389 193 -500 89 -213 254 -394 484 -532 289 -173 597 -268 872
-268 135 0 208 17 322 74 98 50 328 125 461 151 202 39 279 69 426 165 87 57
134 66 134 27 0 -47 -120 -177 -232 -251 -52 -35 -64 -39 -155 -46 -110 -9
-154 -23 -376 -124 -238 -108 -367 -133 -641 -123 -269 9 -452 62 -766 219
-232 115 -327 177 -422 272 -139 139 -222 282 -258 441 -12 55 -48 168 -81
251 -137 353 -144 428 -90 939 33 312 52 400 151 698 195 585 338 781 681 929
182 78 332 104 456 78z m605 -321 c143 -31 331 -154 303 -199 -10 -17 -68 -11
-143 14 -153 52 -214 61 -422 60 -208 0 -300 -12 -460 -58 -67 -20 -105 -25
-175 -23 -82 2 -96 -1 -155 -29 -36 -17 -100 -54 -144 -82 -43 -29 -89 -52
-103 -52 -83 0 18 132 174 226 100 60 329 120 549 143 121 13 515 13 576 0z
m-873 -293 c25 -30 -6 -67 -187 -221 -154 -132 -259 -270 -398 -522 -82 -150
-117 -195 -149 -191 -17 3 -20 9 -17 43 7 82 99 305 187 454 70 117 135 184
266 276 112 77 268 175 280 175 4 0 12 -6 18 -14z m1001 -26 c229 -40 238 -43
307 -93 76 -57 127 -114 282 -321 199 -264 281 -407 349 -613 42 -125 56 -210
50 -313 -6 -101 -39 -187 -83 -216 -44 -29 -49 -11 -56 179 -5 127 -12 193
-28 251 -50 187 -159 375 -325 556 -64 70 -106 127 -127 170 -17 36 -44 82
-61 102 -91 116 -317 194 -593 205 -196 8 -335 -21 -495 -103 -98 -50 -249
-161 -281 -205 -28 -39 -20 -79 17 -79 14 0 107 41 207 90 237 118 326 142
517 143 195 1 338 -37 509 -135 87 -50 105 -72 77 -94 -42 -31 -160 -9 -305
56 -211 95 -415 75 -745 -71 -89 -40 -192 -82 -230 -95 -99 -34 -143 -63 -223
-147 -126 -133 -237 -321 -274 -465 -17 -66 -19 -111 -19 -360 0 -327 4 -350
80 -508 116 -239 309 -427 575 -559 196 -97 299 -127 630 -180 143 -23 186
-59 108 -92 -53 -22 -303 -12 -428 16 -328 76 -648 255 -822 459 -116 137
-189 274 -264 490 -29 87 -52 136 -77 165 -51 61 -75 121 -79 202 -4 75 9 117
39 123 19 4 27 -23 47 -146 18 -115 48 -157 82 -115 25 29 16 185 -15 276 -41
121 -31 239 29 360 46 90 229 367 318 480 49 62 110 147 135 191 65 109 256
283 381 346 190 95 445 112 791 50z m71 -946 c212 -67 370 -352 278 -502 -14
-24 -26 -32 -42 -30 -19 3 -23 11 -29 68 -8 78 -28 138 -68 200 -41 64 -85
104 -192 174 -63 42 -94 68 -96 83 -5 34 52 37 149 7z m1551 -229 c43 -74 49
-347 13 -595 -40 -271 -116 -496 -265 -785 -139 -269 -201 -365 -340 -520 -34
-38 -70 -89 -80 -111 -12 -28 -26 -43 -42 -47 -14 -4 -75 -44 -137 -90 -132
-99 -295 -187 -312 -170 -21 21 23 74 132 163 135 110 241 216 362 365 112
138 146 191 183 290 14 39 57 126 95 195 192 352 247 558 294 1100 18 203 27
243 58 238 12 -2 29 -17 39 -33z m-2732 -444 c19 -37 62 -233 55 -258 -4 -16
-12 -23 -23 -21 -48 9 -105 185 -83 259 13 42 34 51 51 20z"/>
<path d="M6287 7169 c12 -13 37 -32 55 -42 33 -19 33 -19 -2 12 -19 18 -44 36
-55 43 -18 10 -18 9 2 -13z"/>
<path d="M3178 6240 c-36 -48 -92 -178 -143 -334 -53 -161 -68 -238 -20 -101
19 55 71 175 116 267 81 168 101 239 47 168z"/>
<path d="M2971 5684 c0 -11 3 -14 6 -6 3 7 2 16 -1 19 -3 4 -6 -2 -5 -13z"/>
<path d="M2951 5594 c0 -11 3 -14 6 -6 3 7 2 16 -1 19 -3 4 -6 -2 -5 -13z"/>
<path d="M2901 5204 c0 -11 3 -14 6 -6 3 7 2 16 -1 19 -3 4 -6 -2 -5 -13z"/>
<path d="M2902 4935 c0 -16 2 -22 5 -12 2 9 2 23 0 30 -3 6 -5 -1 -5 -18z"/>
<path d="M2912 4830 c0 -19 2 -27 5 -17 2 9 2 25 0 35 -3 9 -5 1 -5 -18z"/>
<path d="M3104 3888 c34 -68 83 -174 110 -236 78 -182 239 -433 384 -599 235
-270 608 -491 939 -557 288 -58 532 -46 963 45 256 55 398 98 512 155 183 92
362 244 553 469 94 111 94 113 13 45 -356 -302 -486 -386 -652 -425 -98 -23
-167 -19 -252 15 -75 30 -75 30 -127 11 -29 -11 -95 -38 -147 -61 -185 -82
-375 -116 -595 -107 -366 16 -714 138 -990 347 -112 84 -179 155 -241 251 -26
41 -87 127 -135 191 -49 65 -106 148 -127 185 -126 219 -168 284 -216 336 -52
58 -52 58 8 -65z"/>
<path d="M3700 3325 c-19 -23 22 -96 83 -151 329 -290 925 -456 1322 -367 119
27 205 83 205 135 0 36 -44 41 -197 24 -177 -20 -280 -20 -426 -1 -273 36
-494 119 -786 294 -135 82 -177 95 -201 66z"/>
<path d="M5790 2420 c-19 -5 -78 -14 -130 -20 -52 -7 -136 -20 -186 -30 -363
-75 -784 -74 -1134 2 -52 11 -110 26 -129 34 -19 8 -36 12 -38 10 -2 -2 31
-18 74 -34 476 -183 926 -184 1463 -5 157 53 186 68 80 43z"/>
</g>
</svg>
