<?xml version="1.0" standalone="no"?>
<!DOCTYPE svg PUBLIC "-//W3C//DTD SVG 20010904//EN"
 "http://www.w3.org/TR/2001/REC-SVG-20010904/DTD/svg10.dtd">
<svg version="1.0" xmlns="http://www.w3.org/2000/svg"
 width="1000.000000pt" height="1000.000000pt" viewBox="0 0 1000.000000 1000.000000"
 preserveAspectRatio="xMidYMid meet">
<metadata>
  <rdf:RDF
    xmlns:rdf = "http://www.w3.org/1999/02/22-rdf-syntax-ns#"
    xmlns:rdfs = "http://www.w3.org/2000/01/rdf-schema#"
    xmlns:dc = "http://purl.org/dc/elements/1.1/"
    xmlns:cc = "http://creativecommons.org/ns#">
    <cc:license rdf:resource="http://creativecommons.org/publicdomain/zero/1.0/deed.en"/>
    <cc:permits rdf:resource="http://creativecommons.org/ns#Reproduction"/>
    <rdf:Description about="https://nft.mir.one/fingerprints"
      dc:title="TON Fingerprints"
      dc:description="This is a unique digital fingerprint created based on the algorithm for generating basic rings using a noise texture. Like human fingerprints, you can now use it for the Web3 and Metaverse era as digital biometric information."
      dc:publisher="https://nft.mir.one"
      dc:date="2022-02-22"
      dc:format="image/svg+xml"
      dc:language="en" >
      <dc:creator>
      <rdf:Bag>
        <rdf:li>EQBondcvD2_aOFADXSWJHs4ZazQDuEl9_wNvGGPxI8hGuOFU</rdf:li>
        <rdf:li>ipfs://bafkreihj7iub3fhmhq6jn62noukt5wxn3gv6bvcg7wmt6ywvlurefezckq</rdf:li>
      </rdf:Bag>
      </dc:creator>
    </rdf:Description>
  </rdf:RDF>
</metadata>
<rect width="100%" height="100%" fill="#1b1f23"/>
<g transform="translate(0.000000,1000.000000) scale(0.100000,-0.100000)"
fill="#ffffff" stroke="none">
<path d="M4640 7724 c36 -13 137 -40 225 -60 275 -62 498 -145 635 -237 113
-75 181 -170 147 -204 -20 -20 -40 -13 -147 58 -204 134 -353 185 -710 244
-85 14 -204 35 -264 46 -172 34 -212 27 -403 -63 -87 -42 -165 -78 -173 -81
-9 -3 -10 -6 -2 -6 21 -2 184 37 244 58 82 28 134 34 207 22 65 -11 103 -33
95 -56 -7 -18 -64 -40 -179 -70 -199 -51 -434 -158 -668 -304 -129 -80 -129
-80 -70 -74 103 10 622 170 958 295 90 33 91 33 265 32 143 0 194 -4 280 -23
207 -44 340 -103 340 -150 0 -11 -3 -22 -7 -24 -5 -3 -89 9 -188 25 -154 26
-207 31 -365 31 -222 1 -273 -11 -556 -121 -98 -39 -258 -93 -354 -122 -96
-28 -204 -60 -240 -70 -101 -30 -314 -172 -435 -292 -13 -12 23 -4 140 33 50
16 137 35 195 44 58 8 179 35 270 60 91 24 229 60 308 78 78 19 144 36 145 38
2 2 15 23 30 46 70 110 332 163 717 144 209 -10 286 -4 349 29 31 15 76 25
149 32 121 12 151 6 252 -50 245 -137 480 -412 480 -564 0 -79 -29 -75 -86 10
-87 133 -304 311 -441 362 -140 52 -138 52 -613 51 -439 -2 -563 -8 -690 -37
-86 -20 -114 -38 -99 -65 26 -50 53 -53 524 -60 242 -4 485 -12 539 -19 227
-27 409 -98 633 -248 67 -45 124 -86 128 -92 4 -6 1 -18 -6 -27 -22 -25 -82
-11 -239 57 -234 100 -389 144 -600 169 -47 6 -317 18 -600 27 -560 18 -598
17 -767 -31 -140 -40 -224 -86 -285 -156 -29 -34 -105 -102 -168 -152 -179
-141 -283 -234 -323 -285 -107 -141 -217 -417 -252 -635 -8 -49 -21 -102 -29
-118 -14 -29 -14 -30 5 -24 56 18 63 -54 19 -205 -25 -90 -51 -222 -34 -180 3
8 26 56 49 106 57 118 69 169 60 242 -24 179 16 308 163 528 112 167 249 304
472 471 195 146 325 205 524 239 129 22 515 29 801 15 389 -19 554 -46 902
-148 193 -56 248 -79 260 -110 22 -57 -122 -55 -397 5 -323 71 -529 92 -955
97 -531 7 -761 -29 -967 -150 -254 -148 -482 -384 -601 -621 -50 -100 -73
-172 -97 -310 -12 -65 -32 -158 -46 -205 -14 -48 -36 -143 -49 -213 -23 -121
-40 -174 -52 -162 -4 3 -12 1 -20 -5 -10 -9 -17 -8 -30 2 -15 13 -15 12 0 -16
9 -19 18 -75 23 -150 8 -120 8 -120 16 -45 9 89 21 122 60 173 49 63 103 191
173 412 82 257 108 330 153 420 134 270 421 543 658 625 72 26 160 27 220 4
42 -16 51 -16 127 -1 160 31 286 40 476 34 415 -14 669 -27 726 -37 33 -6 119
-23 190 -37 105 -21 173 -27 355 -32 225 -7 225 -7 306 -42 100 -45 420 -218
494 -269 31 -20 67 -41 80 -45 14 -4 31 -12 38 -17 20 -17 15 -6 -50 119 -93
178 -149 254 -298 408 -157 161 -187 212 -220 368 -30 139 -117 350 -189 456
-23 33 -73 93 -113 134 -97 98 -407 363 -499 425 -155 104 -366 189 -574 231
-107 22 -322 41 -445 40 -75 0 -75 0 -10 -25z"/>
<path d="M6487 6890 c-24 -36 -12 -71 95 -283 134 -266 191 -345 317 -441 8
-6 -2 14 -21 44 -19 30 -74 129 -123 220 -48 91 -121 223 -163 293 -41 71 -78
143 -81 160 -7 32 -7 32 -24 7z"/>
<path d="M3517 6519 c-20 -5 -56 -18 -80 -30 -65 -34 -203 -182 -299 -322 -87
-127 -87 -127 -40 -95 26 18 92 68 147 113 55 44 155 118 223 165 68 46 130
93 138 104 21 31 17 55 -12 66 -28 11 -25 11 -77 -1z"/>
<path d="M4127 5925 c-132 -49 -303 -170 -432 -307 -173 -184 -270 -368 -406
-768 -27 -80 -75 -196 -107 -259 -57 -114 -57 -114 -56 -235 1 -195 44 -362
184 -721 78 -201 121 -272 230 -383 103 -105 189 -166 328 -234 104 -52 133
-61 191 -66 59 -4 69 -2 75 14 15 39 -33 80 -249 214 -164 102 -304 215 -364
294 -89 118 -216 426 -258 626 -25 120 -25 356 0 423 20 50 40 60 57 26 6 -11
15 -95 20 -187 12 -227 42 -364 121 -545 84 -193 178 -308 357 -436 117 -83
378 -249 447 -283 231 -117 645 -45 901 155 102 80 153 157 180 273 18 78 34
113 111 231 116 180 181 351 247 644 55 244 21 557 -89 845 -45 117 -91 182
-229 325 -61 64 -134 141 -162 171 -43 48 -60 59 -120 78 -157 48 -361 62
-518 35 -117 -20 -153 -36 -281 -120 -333 -220 -477 -370 -596 -619 -63 -133
-77 -195 -61 -274 24 -114 8 -226 -50 -367 -29 -72 -32 -89 -31 -175 2 -202
101 -445 239 -587 49 -50 68 -63 92 -63 22 0 32 6 37 20 7 22 -7 50 -98 193
-30 48 -70 122 -87 164 -67 161 -103 375 -65 389 28 11 44 -17 90 -164 51
-159 101 -272 164 -369 22 -34 61 -98 86 -143 52 -88 90 -125 186 -180 53 -30
64 -41 70 -68 20 -99 172 -161 367 -149 165 9 326 68 471 171 67 47 98 56 107
32 18 -46 -118 -177 -251 -242 -223 -108 -466 -122 -649 -36 -34 16 -128 73
-211 128 -82 55 -189 119 -238 143 -147 74 -258 210 -338 415 -50 130 -69 233
-76 421 -6 170 -6 170 -41 220 -32 47 -34 54 -30 120 3 65 10 85 112 295 59
124 137 269 172 323 79 121 217 265 344 360 52 39 119 89 149 111 55 42 88 92
78 120 -8 20 -66 20 -120 1z m763 -301 c118 -27 217 -83 323 -183 157 -149
253 -348 292 -611 62 -403 -91 -844 -332 -961 -59 -28 -407 -115 -518 -128
-177 -22 -317 -10 -412 35 -95 46 -198 156 -263 284 -47 92 -171 446 -180 515
-12 83 1 272 24 362 64 244 274 486 542 621 169 85 339 107 524 66z m221
-1954 c33 -18 21 -38 -43 -69 -231 -109 -477 -143 -696 -97 -71 15 -77 19 -68
41 11 29 71 45 166 45 134 0 259 16 416 55 149 36 194 41 225 25z"/>
<path d="M4545 5455 c-310 -68 -538 -310 -607 -645 -34 -164 -16 -308 63 -485
22 -49 43 -112 46 -140 17 -146 176 -291 358 -324 164 -30 419 17 599 112 92
47 203 164 249 259 85 177 103 388 54 629 -50 239 -96 337 -209 444 -144 136
-355 194 -553 150z m238 -200 c87 -23 155 -61 218 -125 63 -63 85 -118 57
-146 -13 -13 -29 -8 -129 45 -145 75 -199 91 -315 91 -147 0 -276 -51 -340
-136 -27 -35 -27 -37 -9 -50 22 -16 66 -18 115 -4 87 25 193 31 279 16 105
-19 288 -105 347 -164 115 -115 114 -371 -2 -540 -74 -107 -213 -195 -359
-227 -98 -22 -227 -16 -308 13 -101 36 -241 151 -222 182 11 18 46 11 123 -26
101 -48 162 -64 247 -64 171 1 336 111 391 262 22 58 21 172 -1 223 -58 136
-222 225 -391 212 -127 -9 -224 -72 -254 -162 -20 -61 -9 -156 24 -204 54 -77
157 -104 215 -55 41 34 44 89 6 106 -21 9 -28 8 -46 -7 -28 -26 -53 -9 -57 39
-3 31 2 42 31 71 31 31 41 35 86 35 58 0 94 -15 133 -57 93 -98 41 -252 -106
-308 -65 -25 -156 -16 -238 22 -88 41 -122 74 -160 151 -30 60 -33 75 -33 157
0 108 19 174 75 267 28 47 40 78 40 105 1 112 139 239 303 279 72 17 212 17
280 -1z"/>
<path d="M5395 5873 c-34 -5 -65 -29 -65 -51 0 -24 60 -73 174 -142 145 -87
219 -158 240 -231 102 -364 128 -491 146 -704 18 -210 28 -272 55 -325 14 -27
25 -58 25 -70 0 -28 -31 -26 -60 5 -27 28 -52 32 -70 10 -7 -8 -18 -68 -26
-133 -24 -206 -85 -378 -219 -619 -151 -271 -238 -382 -381 -485 -138 -99
-306 -172 -491 -215 -62 -14 -127 -18 -318 -19 -227 -1 -243 -2 -289 -24 -92
-42 -234 -15 -381 72 -80 47 -265 147 -265 143 0 -7 268 -234 315 -267 72 -51
142 -84 242 -114 84 -25 95 -26 257 -20 673 25 1129 267 1459 776 141 219 215
411 267 701 11 58 32 132 47 165 27 57 28 65 26 209 -1 180 -27 474 -53 604
-18 90 -54 178 -117 283 -22 38 -26 51 -17 65 29 48 149 9 224 -73 63 -68 83
-123 81 -217 0 -44 -4 -83 -7 -88 -3 -5 2 -114 12 -242 27 -381 12 -566 -77
-927 -81 -330 -211 -561 -458 -814 -169 -173 -331 -291 -535 -390 -262 -128
-449 -172 -906 -217 -227 -22 -221 -18 -80 -51 432 -99 667 -74 1045 111 390
191 773 532 963 858 74 127 103 217 162 509 81 397 86 591 29 1037 -11 88 -17
167 -14 177 9 30 32 31 65 4 38 -33 62 -112 89 -294 54 -365 46 -610 -33 -980
-35 -164 -39 -211 -26 -273 15 -73 7 -91 -115 -252 -222 -293 -300 -378 -490
-530 -341 -272 -573 -406 -895 -516 -176 -59 -277 -98 -260 -98 8 -1 76 6 150
15 358 41 595 131 921 349 331 222 409 292 613 549 63 78 148 173 190 211 94
84 145 151 207 269 57 110 101 231 140 391 42 174 60 325 60 525 0 265 -29
396 -114 523 -48 70 -99 106 -122 87 -23 -19 -19 -49 25 -191 97 -318 119
-583 73 -884 -28 -181 -90 -352 -157 -432 -50 -59 -136 -79 -136 -32 0 11 13
45 29 77 90 181 142 439 142 707 0 181 -9 272 -51 493 -19 98 -30 186 -30 243
0 67 -5 101 -21 141 -18 44 -27 111 -29 205 0 16 -126 111 -210 158 -101 58
-202 93 -360 125 -80 17 -210 48 -290 70 -183 49 -251 61 -305 53z"/>
<path d="M6646 5487 c-32 -23 -9 -56 148 -212 125 -124 160 -165 201 -238 74
-130 95 -163 95 -153 0 33 -76 309 -104 374 -60 140 -102 190 -190 226 -47 19
-126 21 -150 3z"/>
<path d="M3522 4828 c-42 -54 -67 -186 -40 -221 30 -40 70 15 90 122 13 69 5
111 -21 111 -10 0 -23 -6 -29 -12z"/>
<path d="M2912 4750 c0 -14 2 -19 5 -12 2 6 2 18 0 25 -3 6 -5 1 -5 -13z"/>
<path d="M2982 4265 c0 -16 2 -22 5 -12 2 9 2 23 0 30 -3 6 -5 -1 -5 -18z"/>
<path d="M6621 3273 c-1 -6 -4 -20 -7 -30 -5 -17 -5 -17 6 0 6 10 9 23 6 30
-3 9 -5 9 -5 0z"/>
<path d="M6570 3160 c-6 -11 -8 -20 -6 -20 3 0 10 9 16 20 6 11 8 20 6 20 -3
0 -10 -9 -16 -20z"/>
<path d="M6540 3110 c-6 -11 -8 -20 -6 -20 3 0 10 9 16 20 6 11 8 20 6 20 -3
0 -10 -9 -16 -20z"/>
<path d="M6015 2601 c-45 -26 -247 -188 -285 -229 -19 -19 91 57 230 160 58
43 119 82 135 87 30 9 30 9 0 10 -16 0 -52 -12 -80 -28z"/>
</g>
</svg>
