<?xml version="1.0" standalone="no"?>
<!DOCTYPE svg PUBLIC "-//W3C//DTD SVG 20010904//EN"
 "http://www.w3.org/TR/2001/REC-SVG-20010904/DTD/svg10.dtd">
<svg version="1.0" xmlns="http://www.w3.org/2000/svg"
 width="1000.000000pt" height="1000.000000pt" viewBox="0 0 1000.000000 1000.000000"
 preserveAspectRatio="xMidYMid meet">
<metadata>
  <rdf:RDF
    xmlns:rdf = "http://www.w3.org/1999/02/22-rdf-syntax-ns#"
    xmlns:rdfs = "http://www.w3.org/2000/01/rdf-schema#"
    xmlns:dc = "http://purl.org/dc/elements/1.1/"
    xmlns:cc = "http://creativecommons.org/ns#">
    <cc:license rdf:resource="http://creativecommons.org/publicdomain/zero/1.0/deed.en"/>
    <cc:permits rdf:resource="http://creativecommons.org/ns#Reproduction"/>
    <rdf:Description about="https://nft.mir.one/fingerprints"
      dc:title="TON Fingerprints"
      dc:description="This is a unique digital fingerprint created based on the algorithm for generating basic rings using a noise texture. Like human fingerprints, you can now use it for the Web3 and Metaverse era as digital biometric information."
      dc:publisher="https://nft.mir.one"
      dc:date="2022-02-22"
      dc:format="image/svg+xml"
      dc:language="en" >
      <dc:creator>
      <rdf:Bag>
        <rdf:li>EQBondcvD2_aOFADXSWJHs4ZazQDuEl9_wNvGGPxI8hGuOFU</rdf:li>
        <rdf:li>ipfs://bafkreihj7iub3fhmhq6jn62noukt5wxn3gv6bvcg7wmt6ywvlurefezckq</rdf:li>
      </rdf:Bag>
      </dc:creator>
    </rdf:Description>
  </rdf:RDF>
</metadata>
<rect width="100%" height="100%" fill="#1b1f23"/>
<g transform="translate(0.000000,1000.000000) scale(0.100000,-0.100000)"
fill="#ffffff" stroke="none">
<path d="M4565 7720 c-60 -4 -112 -8 -115 -10 -8 -3 107 -28 250 -55 74 -13
200 -41 280 -61 116 -29 175 -38 295 -44 122 -7 174 -15 281 -44 192 -52 308
-76 407 -87 48 -5 103 -15 122 -23 61 -26 38 -8 -43 33 -75 38 -435 159 -597
201 -107 28 -414 78 -550 90 -118 11 -159 10 -330 0z"/>
<path d="M4280 7505 c-52 -8 -135 -23 -185 -35 -49 -11 -101 -23 -115 -26 -44
-11 50 -32 210 -49 365 -39 628 -108 836 -220 119 -64 345 -209 454 -291 122
-92 263 -238 324 -337 68 -109 102 -199 142 -372 19 -82 61 -231 94 -330 94
-290 137 -524 147 -805 14 -424 -64 -776 -284 -1275 -42 -93 -79 -183 -84
-200 -23 -78 29 -88 91 -18 48 56 187 332 255 506 115 296 155 504 162 835 6
254 -3 369 -43 607 -34 194 -73 333 -131 458 -55 119 -68 207 -38 253 22 33
16 78 -30 222 -88 277 -256 454 -661 699 -80 48 -187 121 -238 162 -108 87
-168 119 -301 160 -230 71 -390 86 -605 56z"/>
<path d="M5261 7422 c-24 -44 13 -74 215 -175 178 -89 315 -169 404 -235 144
-107 320 -307 367 -419 10 -25 16 -74 18 -143 2 -92 7 -117 38 -205 40 -109
48 -187 22 -221 -20 -26 -19 -61 4 -152 31 -120 77 -364 98 -507 14 -102 18
-192 18 -420 0 -260 -3 -304 -23 -419 -42 -234 -123 -463 -257 -733 -98 -199
-159 -288 -279 -413 -56 -58 -142 -153 -193 -211 -188 -218 -391 -376 -658
-512 -111 -57 -140 -79 -132 -101 27 -69 263 -30 451 74 152 83 310 212 429
347 79 91 263 356 373 540 100 166 292 559 339 692 130 376 138 852 25 1482
-16 91 -39 239 -50 327 -19 147 -43 261 -84 395 -17 58 -12 77 21 77 60 0 101
-84 142 -290 33 -170 119 -675 135 -800 76 -578 31 -1052 -128 -1355 -184
-349 -322 -606 -381 -710 -37 -66 -85 -158 -106 -204 -59 -128 -141 -242 -251
-351 -274 -273 -514 -380 -903 -405 -141 -9 -334 -33 -407 -50 -35 -8 -79 -15
-98 -16 -27 -1 -22 -4 25 -12 93 -16 644 -15 735 1 210 38 400 102 507 171 98
63 312 240 425 351 108 105 108 105 107 180 -1 102 21 164 144 400 56 107 130
253 166 323 72 143 129 217 167 217 13 0 24 -3 24 -7 0 -33 -170 -391 -295
-623 -41 -74 -84 -169 -96 -210 -12 -41 -30 -87 -40 -102 -11 -14 -19 -31 -19
-37 0 -18 53 -12 85 10 17 11 53 31 80 43 28 13 72 48 100 77 50 53 50 53 -2
7 -54 -50 -88 -64 -123 -53 -32 10 -22 35 76 193 104 168 190 335 238 466 41
109 49 180 23 219 -15 23 -14 29 4 88 33 106 86 329 106 445 22 133 25 547 5
744 -26 253 -100 683 -167 969 -19 81 -39 191 -45 245 -6 60 -18 112 -30 137
-27 53 -252 320 -365 435 -100 100 -206 183 -305 237 -135 73 -511 206 -606
214 -55 5 -63 3 -73 -15z"/>
<path d="M3981 7245 c-100 -22 -177 -52 -290 -109 -105 -53 -105 -53 79 -49
664 15 1272 -187 1625 -542 112 -112 161 -188 201 -310 15 -44 57 -157 95
-251 182 -458 232 -681 232 -1029 1 -266 -27 -448 -114 -749 -44 -154 -200
-600 -230 -658 -41 -81 -115 -139 -150 -117 -15 9 -17 6 49 154 22 50 71 185
110 300 237 708 276 1096 158 1558 -54 208 -149 431 -239 560 -34 49 -54 65
-112 94 -38 19 -117 70 -175 113 -126 93 -206 138 -320 178 -47 17 -128 47
-180 67 -107 41 -224 70 -320 80 -36 3 -139 19 -230 35 -229 41 -320 50 -506
50 -162 0 -162 0 -243 -41 -44 -22 -93 -51 -108 -63 -16 -13 -50 -38 -78 -56
-50 -32 -50 -32 35 -26 440 30 648 11 858 -76 73 -30 88 -43 325 -272 490
-472 644 -695 767 -1111 23 -77 51 -149 61 -160 18 -18 20 -19 36 -2 15 15 18
35 17 110 -1 112 -28 232 -87 377 -84 210 -187 362 -424 627 -173 194 -203
223 -323 316 -74 57 -95 78 -95 98 0 22 4 24 50 24 37 -1 71 -10 125 -37 112
-53 154 -89 214 -181 29 -45 97 -129 151 -187 133 -142 189 -211 251 -305 155
-239 242 -513 231 -730 -5 -105 -25 -172 -102 -345 -26 -58 -39 -112 -60 -241
-58 -370 -182 -721 -320 -908 -127 -173 -305 -316 -520 -417 -120 -57 -389
-146 -535 -178 -63 -13 -132 -30 -152 -38 -37 -14 -37 -14 60 -46 116 -38 222
-56 278 -47 79 11 373 113 476 165 247 122 515 365 608 550 27 54 140 394 199
600 47 164 180 717 191 795 44 309 -69 714 -274 985 -60 80 -141 163 -330 338
-42 39 -76 78 -74 85 7 21 57 19 104 -3 112 -55 366 -279 438 -388 99 -150
181 -357 228 -572 19 -90 22 -134 22 -305 0 -186 -2 -211 -32 -355 -42 -200
-108 -453 -172 -655 -113 -358 -120 -389 -117 -483 2 -87 2 -87 -42 -152 -65
-95 -218 -249 -359 -361 -262 -211 -345 -252 -633 -319 -147 -34 -206 -55
-219 -81 -16 -29 -13 -41 8 -28 14 9 49 7 148 -6 188 -26 298 -23 418 9 151
40 181 56 204 108 25 56 72 103 194 189 165 117 247 187 414 354 184 182 229
244 245 331 16 85 58 216 128 399 167 432 231 764 218 1130 -7 197 -25 327
-71 515 -38 158 -212 698 -256 794 -35 78 -105 190 -164 259 -134 161 -472
387 -733 492 -274 110 -706 185 -862 150z"/>
<path d="M3685 6922 c-49 -19 -158 -73 -263 -131 -52 -30 -52 -30 -10 -36 24
-3 114 -2 201 3 192 10 386 0 572 -28 306 -47 491 -97 703 -191 191 -85 292
-151 456 -299 94 -83 119 -89 124 -25 4 55 -49 135 -154 235 -300 286 -834
472 -1394 486 -164 4 -191 3 -235 -14z"/>
<path d="M6730 6377 c0 -14 14 -64 30 -109 43 -117 62 -197 119 -498 87 -463
111 -690 111 -1072 0 -206 0 -206 -46 -415 -40 -182 -65 -372 -63 -478 0 -11
35 133 77 320 77 340 77 340 77 715 0 247 -4 411 -13 480 -31 256 -120 690
-171 842 -31 91 -84 205 -107 228 -12 12 -14 11 -14 -13z"/>
<path d="M3409 6310 c-96 -12 -133 -34 -266 -161 -78 -75 -78 -75 -33 -68 25
3 85 18 133 32 230 69 480 56 658 -34 118 -59 420 -276 544 -391 262 -241 408
-442 587 -808 110 -226 138 -270 168 -270 50 0 55 87 10 167 -17 29 -53 109
-80 178 -96 240 -200 424 -339 598 -134 169 -381 404 -586 560 -213 161 -498
231 -796 197z"/>
<path d="M6167 6213 c-11 -10 -8 -35 8 -91 18 -60 58 -112 87 -112 19 0 20 4
15 49 -7 59 -38 123 -69 145 -25 18 -32 19 -41 9z"/>
<path d="M3358 6015 c-106 -23 -145 -43 -203 -107 -44 -49 -102 -148 -153
-260 -2 -5 7 -8 20 -8 38 0 118 57 133 94 21 50 86 100 163 126 89 31 293 38
435 16 138 -21 175 -4 126 58 -27 34 -83 62 -161 81 -77 18 -279 18 -360 0z"/>
<path d="M3880 5793 c-38 -17 -96 -19 -315 -13 -155 5 -256 -11 -330 -53 -51
-29 -55 -50 -15 -67 25 -10 56 -11 154 -2 134 13 199 7 284 -27 29 -12 75 -21
102 -21 82 0 200 -20 269 -46 149 -56 352 -229 577 -492 143 -167 180 -220
239 -345 142 -300 135 -559 -25 -882 -140 -284 -353 -466 -665 -571 -181 -60
-346 -75 -572 -53 -91 10 -122 9 -153 -1 -39 -13 -39 -13 58 -78 53 -36 131
-82 172 -101 69 -33 82 -36 165 -35 63 0 123 9 200 28 568 143 898 462 1045
1008 42 157 57 305 41 395 -17 95 -207 483 -318 648 -220 327 -519 602 -763
701 -69 28 -101 29 -150 7z"/>
<path d="M3310 5558 c-91 -10 -177 -23 -191 -29 -43 -17 -94 -78 -152 -180
-54 -96 -54 -96 -13 -80 23 9 65 30 95 48 74 44 159 75 340 123 174 46 231 71
231 100 0 45 -52 48 -310 18z"/>
<path d="M3660 5420 c-47 -17 -137 -49 -200 -71 -147 -51 -310 -130 -359 -174
-52 -47 -103 -162 -146 -325 -19 -74 -35 -138 -35 -143 0 -13 64 66 113 140
96 143 269 280 448 353 191 79 333 108 445 90 85 -14 119 -29 119 -55 0 -29
-37 -42 -158 -55 -254 -26 -451 -121 -627 -299 -160 -163 -193 -235 -194 -426
0 -132 15 -226 59 -361 67 -205 164 -362 324 -527 144 -148 211 -177 411 -177
245 0 481 100 661 279 266 265 358 623 247 959 -49 147 -117 239 -192 258 -17
4 -47 32 -83 78 -79 101 -135 157 -234 237 -47 37 -107 93 -133 123 -33 39
-67 65 -113 88 -60 29 -77 33 -167 36 -92 2 -108 0 -186 -28z m474 -411 c164
-61 259 -252 260 -524 1 -101 -3 -132 -23 -194 -78 -238 -294 -394 -522 -378
-93 6 -169 36 -169 67 0 27 24 35 147 49 193 21 303 85 387 225 139 231 38
566 -189 627 -68 19 -191 7 -263 -26 -74 -33 -152 -112 -170 -172 -39 -132 12
-279 117 -337 130 -70 291 5 291 137 0 38 -5 53 -25 72 -44 45 -121 24 -95
-25 9 -18 8 -25 -6 -41 -24 -27 -51 -24 -85 10 -58 58 -29 164 54 201 98 45
204 2 260 -105 30 -58 29 -164 -2 -225 -36 -69 -61 -98 -111 -129 -122 -78
-298 -81 -396 -6 -80 61 -121 148 -159 337 -18 84 -22 125 -15 148 34 118 195
243 373 290 104 27 268 27 341 -1z m450 -238 c54 -138 68 -201 73 -337 4 -103
2 -149 -12 -208 -64 -290 -266 -513 -550 -607 -90 -30 -260 -33 -345 -7 -215
67 -486 380 -544 628 -24 100 -20 243 7 309 25 60 69 103 89 83 7 -7 12 -59
13 -144 1 -107 5 -146 23 -198 29 -88 85 -179 158 -259 33 -36 77 -92 98 -124
60 -91 137 -139 252 -157 264 -42 561 161 659 451 40 119 46 276 16 449 -21
119 -21 161 1 187 17 21 35 3 62 -66z"/>
<path d="M6871 3764 c0 -11 3 -14 6 -6 3 7 2 16 -1 19 -3 4 -6 -2 -5 -13z"/>
<path d="M3241 3534 c65 -78 123 -134 139 -134 27 0 6 49 -37 92 -42 41 -146
118 -160 118 -2 0 24 -34 58 -76z"/>
</g>
</svg>
