<?xml version="1.0" standalone="no"?>
<!DOCTYPE svg PUBLIC "-//W3C//DTD SVG 20010904//EN"
 "http://www.w3.org/TR/2001/REC-SVG-20010904/DTD/svg10.dtd">
<svg version="1.0" xmlns="http://www.w3.org/2000/svg"
 width="1000.000000pt" height="1000.000000pt" viewBox="0 0 1000.000000 1000.000000"
 preserveAspectRatio="xMidYMid meet">
<metadata>
  <rdf:RDF
    xmlns:rdf = "http://www.w3.org/1999/02/22-rdf-syntax-ns#"
    xmlns:rdfs = "http://www.w3.org/2000/01/rdf-schema#"
    xmlns:dc = "http://purl.org/dc/elements/1.1/"
    xmlns:cc = "http://creativecommons.org/ns#">
    <cc:license rdf:resource="http://creativecommons.org/publicdomain/zero/1.0/deed.en"/>
    <cc:permits rdf:resource="http://creativecommons.org/ns#Reproduction"/>
    <rdf:Description about="https://nft.mir.one/fingerprints"
      dc:title="TON Fingerprints"
      dc:description="This is a unique digital fingerprint created based on the algorithm for generating basic rings using a noise texture. Like human fingerprints, you can now use it for the Web3 and Metaverse era as digital biometric information."
      dc:publisher="https://nft.mir.one"
      dc:date="2022-02-22"
      dc:format="image/svg+xml"
      dc:language="en" >
      <dc:creator>
      <rdf:Bag>
        <rdf:li>EQBondcvD2_aOFADXSWJHs4ZazQDuEl9_wNvGGPxI8hGuOFU</rdf:li>
        <rdf:li>ipfs://bafkreihj7iub3fhmhq6jn62noukt5wxn3gv6bvcg7wmt6ywvlurefezckq</rdf:li>
      </rdf:Bag>
      </dc:creator>
    </rdf:Description>
  </rdf:RDF>
</metadata>
<rect width="100%" height="100%" fill="#1b1f23"/>
<g transform="translate(0.000000,1000.000000) scale(0.100000,-0.100000)"
fill="#ffffff" stroke="none">
<path d="M4815 7793 c-16 -2 -70 -15 -120 -28 -49 -14 -128 -29 -175 -34 -85
-8 -85 -8 20 -10 85 -1 123 4 190 23 66 19 120 26 245 31 300 12 343 22 95 22
-124 0 -238 -2 -255 -4z"/>
<path d="M5171 7626 c-21 -25 24 -53 118 -75 218 -50 508 -91 639 -90 87 0 87
0 32 20 -65 23 -460 121 -579 143 -106 20 -195 21 -210 2z"/>
<path d="M4455 7585 c-115 -24 -251 -76 -447 -172 -109 -53 -197 -98 -195 -99
5 -5 215 56 297 87 47 17 153 53 235 80 152 49 195 70 195 93 0 22 -20 24 -85
11z"/>
<path d="M4732 7540 c-40 -10 -98 -34 -130 -53 -56 -33 -90 -47 -322 -136
-160 -62 -433 -200 -550 -279 -80 -53 -257 -200 -359 -298 -2 -2 47 23 110 56
240 126 379 190 506 234 153 52 185 67 233 109 51 45 160 91 316 136 243 68
354 72 584 17 58 -13 175 -37 260 -51 398 -69 689 -168 893 -305 42 -28 90
-68 107 -88 30 -36 40 -85 20 -97 -5 -3 -65 23 -132 59 -164 86 -307 146 -518
216 -213 71 -347 100 -470 100 -69 0 -119 7 -208 31 -205 53 -383 49 -638 -16
-117 -30 -159 -52 -159 -85 0 -38 44 -43 212 -25 190 20 364 19 454 -1 79 -18
132 -54 127 -88 -3 -18 -9 -21 -43 -18 -22 2 -236 3 -477 3 -436 1 -436 1
-530 -25 -104 -28 -189 -61 -293 -113 -153 -77 -236 -149 -414 -361 -64 -77
-116 -130 -139 -140 -35 -17 -35 -17 -3 -22 21 -3 38 -14 49 -32 16 -27 15
-29 -55 -165 -81 -156 -147 -312 -208 -488 -4 -11 6 3 22 31 17 28 43 71 60
95 17 24 61 92 97 150 36 59 86 137 111 175 24 38 58 103 75 145 41 100 208
313 301 382 84 64 263 151 369 181 124 35 223 44 620 56 195 6 391 15 436 21
59 8 93 8 125 -1 81 -21 262 -117 329 -174 36 -31 110 -88 164 -128 55 -40
131 -102 170 -138 39 -36 118 -105 176 -155 239 -204 428 -408 542 -585 196
-304 311 -735 311 -1170 0 -261 -27 -434 -109 -718 -20 -68 -34 -126 -30 -129
9 -10 34 5 51 31 54 81 130 341 165 560 65 403 48 825 -45 1151 -35 122 -130
311 -212 420 -97 129 -354 383 -523 517 -156 123 -210 177 -210 209 0 36 31
34 109 -7 97 -51 261 -160 332 -221 108 -91 411 -383 448 -430 38 -48 110
-170 183 -312 21 -40 38 -70 38 -65 0 18 -82 277 -114 361 -47 124 -68 162
-111 203 -21 19 -70 78 -110 130 -83 110 -224 248 -308 303 -63 42 -167 92
-267 127 -46 17 -92 24 -160 26 -95 4 -95 4 -375 145 -154 78 -295 153 -312
166 -34 25 -45 69 -20 78 25 10 172 -36 385 -121 262 -105 603 -220 691 -235
79 -12 120 -33 197 -101 78 -67 254 -262 295 -325 17 -26 28 -39 25 -28 -16
45 -101 190 -183 311 -48 71 -127 189 -176 262 -129 191 -258 310 -464 428
-118 67 -222 100 -464 144 -295 55 -357 72 -469 126 -93 46 -98 47 -205 50
-87 3 -125 0 -183 -16z"/>
<path d="M4785 6722 c-292 -6 -660 -31 -737 -51 -226 -58 -455 -196 -446 -269
5 -48 44 -41 206 37 239 113 342 139 459 111 47 -12 74 -11 206 6 230 29 578
27 748 -4 69 -13 146 -22 170 -20 37 3 44 7 47 26 5 32 -20 57 -92 91 -130 61
-272 80 -561 73z"/>
<path d="M4101 6454 c-40 -14 -135 -54 -210 -89 -75 -36 -169 -76 -210 -90
-147 -50 -206 -103 -346 -314 -151 -227 -225 -403 -278 -656 -77 -367 -60
-709 49 -969 56 -132 140 -226 182 -200 32 20 25 60 -37 202 -78 180 -110 297
-118 438 -10 190 6 261 170 734 71 206 93 253 166 357 112 159 218 239 560
424 191 104 252 149 231 174 -18 22 -74 18 -159 -11z"/>
<path d="M4727 6460 c-128 -10 -255 -34 -316 -61 -95 -42 -586 -364 -695 -456
-164 -139 -289 -355 -232 -402 24 -20 59 3 145 96 104 111 188 185 321 280 58
42 141 110 185 152 128 123 307 205 510 236 227 34 591 3 801 -69 171 -58 342
-174 509 -347 154 -159 258 -305 353 -495 71 -141 111 -263 189 -572 68 -267
68 -267 67 -432 0 -146 -4 -182 -32 -315 -38 -178 -91 -370 -128 -457 -14 -35
-56 -107 -92 -161 -109 -161 -114 -171 -100 -201 16 -36 0 -52 -39 -38 -37 12
-61 3 -173 -70 -164 -107 -295 -168 -361 -168 -36 0 -64 27 -48 46 6 7 69 48
141 91 155 92 244 171 297 262 22 36 74 111 115 166 182 240 297 573 300 870
1 138 -10 182 -53 204 -34 19 -51 -17 -77 -169 -48 -278 -106 -448 -203 -597
-91 -137 -155 -187 -323 -249 -50 -19 -142 -61 -204 -94 -63 -33 -165 -87
-228 -120 -213 -113 -407 -160 -655 -160 -321 0 -620 95 -926 295 -123 79
-219 161 -393 333 -174 172 -305 292 -367 337 -36 27 -38 27 -19 5 12 -14 54
-83 94 -155 86 -156 221 -362 279 -427 70 -79 282 -229 460 -327 295 -161 551
-237 841 -248 333 -13 574 52 830 224 246 165 392 224 413 168 9 -22 -41 -66
-187 -165 -87 -59 -156 -115 -202 -163 -75 -81 -108 -101 -230 -141 -153 -50
-264 -67 -484 -73 -226 -6 -333 5 -512 53 -259 69 -460 167 -803 392 -88 57
-170 108 -184 113 -13 5 -38 19 -55 31 -28 20 -30 20 -16 3 87 -117 324 -341
492 -468 160 -120 415 -227 676 -283 161 -35 460 -44 641 -20 115 15 510 94
661 132 79 20 221 85 334 153 46 28 119 67 162 87 44 20 89 41 102 47 65 31
225 235 295 377 30 60 32 72 33 175 1 85 9 150 37 285 48 231 61 362 54 540
-7 164 -33 334 -82 526 -76 296 -195 541 -370 759 -132 165 -395 408 -559 516
-124 82 -176 99 -326 110 -69 4 -177 15 -240 23 -157 20 -295 25 -423 16z"/>
<path d="M4615 6184 c-160 -29 -378 -119 -412 -170 -41 -64 18 -69 197 -18
310 87 581 87 850 -2 124 -41 208 -85 307 -161 150 -113 245 -239 367 -483
174 -349 204 -496 151 -756 -63 -311 -184 -570 -334 -718 -51 -51 -62 -57 -75
-46 -34 27 -23 59 76 235 131 234 196 441 205 650 6 151 -8 210 -77 316 -21
33 -56 104 -76 157 -20 54 -55 143 -76 200 -102 265 -292 431 -591 516 -203
59 -424 57 -692 -3 -71 -16 -168 -35 -215 -41 -142 -19 -237 -74 -455 -260
-77 -66 -155 -123 -192 -141 -81 -39 -111 -77 -188 -234 -80 -165 -106 -246
-112 -363 -8 -124 8 -212 74 -417 30 -93 63 -212 73 -262 22 -105 39 -142 103
-230 108 -146 299 -300 497 -402 217 -111 392 -159 615 -167 291 -12 564 68
830 243 151 99 175 111 253 122 119 16 207 81 297 220 69 106 121 239 171 434
35 140 52 184 90 248 30 50 34 64 34 129 0 205 -124 554 -279 783 -302 448
-657 639 -1181 636 -86 0 -191 -7 -235 -15z m346 -389 c153 -26 291 -84 405
-168 97 -71 168 -171 162 -225 -5 -47 -34 -38 -111 34 -140 131 -290 210 -467
246 -178 37 -404 14 -596 -62 -257 -102 -501 -321 -574 -517 -11 -29 -29 -110
-41 -180 -12 -71 -34 -164 -50 -207 -34 -94 -36 -142 -9 -254 78 -327 313
-574 653 -687 352 -117 730 -39 973 200 94 92 154 181 229 338 64 133 97 243
130 430 25 143 45 201 73 212 46 17 69 -91 53 -246 -25 -238 -124 -488 -298
-752 -94 -142 -213 -233 -408 -310 -156 -62 -217 -72 -425 -71 -168 0 -194 3
-283 27 -251 67 -483 209 -632 385 -93 110 -149 232 -244 530 -71 220 -81 262
-81 325 0 92 30 162 70 162 25 0 25 0 30 -116 4 -87 9 -122 23 -142 20 -31 39
-34 58 -10 16 18 19 219 5 313 -9 64 3 110 55 197 70 115 300 321 451 403 235
126 600 189 849 145z m-11 -250 c99 -24 253 -104 372 -195 188 -143 204 -172
195 -355 -28 -520 -204 -857 -527 -1009 -109 -51 -179 -67 -320 -73 -110 -4
-136 -2 -221 20 -293 76 -513 282 -579 543 -25 96 -25 193 -1 309 57 275 195
464 476 650 111 74 189 109 280 125 68 12 246 4 325 -15z"/>
<path d="M4588 5447 c-79 -23 -127 -66 -108 -98 8 -11 35 -13 142 -11 253 6
401 -48 592 -217 75 -66 111 -77 125 -39 35 96 -151 268 -374 344 -67 23 -101
28 -205 31 -82 2 -141 -2 -172 -10z"/>
<path d="M4362 5239 c-68 -34 -147 -113 -209 -208 -31 -47 -74 -108 -95 -134
-97 -124 -94 -343 7 -512 177 -295 565 -406 876 -250 229 116 380 365 383 630
1 125 -18 173 -87 217 -29 18 -89 61 -135 95 -149 114 -239 148 -427 163 -280
23 -266 23 -313 -1z m423 -144 c183 -48 322 -199 333 -360 8 -129 -40 -245
-142 -344 -157 -150 -375 -182 -576 -83 -67 33 -176 139 -212 208 -52 97 -74
247 -46 309 24 53 54 23 93 -90 49 -145 113 -230 214 -284 145 -77 313 -55
425 56 114 113 123 277 21 391 -58 64 -121 95 -200 96 -111 1 -179 -55 -179
-146 0 -39 5 -53 29 -78 35 -37 61 -45 98 -31 21 8 27 17 27 39 0 15 -5 33
-12 40 -8 8 -8 15 2 27 21 25 59 18 97 -20 33 -33 35 -39 31 -86 -6 -59 -30
-95 -84 -126 -47 -27 -118 -30 -172 -7 -110 46 -190 207 -161 326 16 68 85
140 155 162 64 19 185 20 259 1z"/>
<path d="M6892 6155 c0 -16 2 -22 5 -12 2 9 2 23 0 30 -3 6 -5 -1 -5 -18z"/>
<path d="M6128 2916 c-212 -144 -362 -208 -660 -281 -483 -119 -890 -119
-1267 1 -129 40 -204 72 -426 178 -88 42 -153 70 -145 64 127 -106 340 -248
476 -316 432 -216 958 -240 1474 -66 131 44 340 146 444 215 176 118 318 289
241 289 -8 0 -70 -38 -137 -84z"/>
<path d="M5430 2263 c-52 -13 -160 -35 -240 -48 -165 -26 -157 -33 11 -9 101
14 336 68 348 79 9 9 -24 3 -119 -22z"/>
<path d="M4953 2183 c15 -2 37 -2 50 0 12 2 0 4 -28 4 -27 0 -38 -2 -22 -4z"/>
</g>
</svg>
