<?xml version="1.0" standalone="no"?>
<!DOCTYPE svg PUBLIC "-//W3C//DTD SVG 20010904//EN"
 "http://www.w3.org/TR/2001/REC-SVG-20010904/DTD/svg10.dtd">
<svg version="1.0" xmlns="http://www.w3.org/2000/svg"
 width="1000.000000pt" height="1000.000000pt" viewBox="0 0 1000.000000 1000.000000"
 preserveAspectRatio="xMidYMid meet">
<metadata>
  <rdf:RDF
    xmlns:rdf = "http://www.w3.org/1999/02/22-rdf-syntax-ns#"
    xmlns:rdfs = "http://www.w3.org/2000/01/rdf-schema#"
    xmlns:dc = "http://purl.org/dc/elements/1.1/"
    xmlns:cc = "http://creativecommons.org/ns#">
    <cc:license rdf:resource="http://creativecommons.org/publicdomain/zero/1.0/deed.en"/>
    <cc:permits rdf:resource="http://creativecommons.org/ns#Reproduction"/>
    <rdf:Description about="https://nft.mir.one/fingerprints"
      dc:title="TON Fingerprints"
      dc:description="This is a unique digital fingerprint created based on the algorithm for generating basic rings using a noise texture. Like human fingerprints, you can now use it for the Web3 and Metaverse era as digital biometric information."
      dc:publisher="https://nft.mir.one"
      dc:date="2022-02-22"
      dc:format="image/svg+xml"
      dc:language="en" >
      <dc:creator>
      <rdf:Bag>
        <rdf:li>EQBondcvD2_aOFADXSWJHs4ZazQDuEl9_wNvGGPxI8hGuOFU</rdf:li>
        <rdf:li>ipfs://bafkreihj7iub3fhmhq6jn62noukt5wxn3gv6bvcg7wmt6ywvlurefezckq</rdf:li>
      </rdf:Bag>
      </dc:creator>
    </rdf:Description>
  </rdf:RDF>
</metadata>
<rect width="100%" height="100%" fill="#1b1f23"/>
<g transform="translate(0.000000,1000.000000) scale(0.100000,-0.100000)"
fill="#ffffff" stroke="none">
<path d="M5078 7793 c7 -3 16 -2 19 1 4 3 -2 6 -13 5 -11 0 -14 -3 -6 -6z"/>
<path d="M5130 7790 c-15 -5 6 -6 50 -3 41 3 77 7 79 9 8 8 -105 2 -129 -6z"/>
<path d="M4745 7611 c-55 -11 -170 -31 -255 -46 -177 -30 -228 -44 -321 -91
-156 -78 -330 -212 -527 -407 -150 -147 -269 -280 -207 -229 207 169 438 327
615 420 199 105 269 126 551 162 289 37 403 41 814 25 345 -13 440 -22 634
-56 30 -5 56 -7 58 -5 6 5 -220 100 -309 129 -271 90 -824 141 -1053 98z"/>
<path d="M5700 7285 c-17 -21 -6 -43 58 -111 50 -53 67 -64 137 -89 262 -92
442 -175 573 -264 31 -21 79 -48 105 -59 26 -12 62 -31 80 -43 27 -19 25 -15
-13 24 -252 264 -521 454 -754 532 -84 28 -167 33 -186 10z"/>
<path d="M4910 7283 c-19 -1 -87 -8 -150 -14 -155 -14 -327 -44 -396 -69 -90
-31 -146 -99 -96 -117 9 -3 36 -20 59 -36 58 -41 100 -43 308 -13 275 39 473
49 786 42 242 -6 278 -4 289 9 18 21 6 43 -58 109 -59 61 -83 70 -242 86 -88
9 -419 11 -500 3z"/>
<path d="M4085 7051 c-113 -34 -276 -109 -385 -179 -67 -43 -182 -152 -262
-250 -73 -89 -208 -289 -208 -308 0 -36 42 -3 210 167 205 207 304 268 469
288 85 11 260 71 337 116 65 38 66 62 8 130 -55 63 -68 66 -169 36z"/>
<path d="M5520 6925 c-41 -8 -185 -21 -320 -29 -275 -17 -368 -27 -520 -57
-144 -29 -237 -65 -392 -152 -73 -41 -169 -93 -213 -116 -123 -63 -373 -269
-555 -457 -119 -123 -168 -184 -263 -331 -64 -99 -106 -141 -127 -128 -34 21
20 168 114 308 63 95 279 311 456 456 135 111 220 193 220 215 0 9 -11 21 -24
27 -50 23 -199 -70 -371 -232 -49 -47 -128 -118 -175 -158 -47 -40 -99 -93
-117 -118 -45 -64 -107 -194 -144 -304 -28 -83 -31 -103 -27 -174 4 -53 -1
-117 -14 -190 -28 -165 -34 -445 -14 -625 37 -323 94 -590 165 -770 38 -97 68
-152 175 -321 25 -39 44 -86 53 -128 18 -88 51 -140 152 -244 101 -104 213
-192 443 -345 91 -62 177 -125 190 -140 32 -39 47 -46 63 -32 22 18 18 52 -11
96 -34 53 -68 82 -289 248 -203 153 -318 253 -415 360 -61 67 -72 92 -45 102
27 11 100 -36 237 -154 75 -65 211 -176 302 -246 162 -123 231 -187 366 -333
55 -60 74 -73 119 -87 106 -31 213 -16 271 39 24 22 32 23 240 28 229 6 280
14 433 66 170 58 300 142 445 289 139 141 243 286 328 454 69 138 164 231 269
264 89 28 152 113 225 301 64 166 100 328 135 603 25 200 50 263 90 230 12
-10 15 -40 15 -149 0 -292 -37 -508 -141 -811 -38 -113 -83 -250 -100 -305
-41 -133 -114 -272 -216 -412 -94 -129 -117 -169 -109 -189 18 -47 111 27 205
165 92 134 167 296 237 506 119 360 162 589 171 905 5 166 2 220 -16 360 -33
245 -60 350 -91 350 -32 0 -43 -29 -52 -143 -5 -62 -18 -134 -28 -162 -10 -27
-30 -80 -44 -117 -14 -37 -46 -166 -71 -285 -59 -286 -85 -375 -150 -508 -76
-157 -171 -247 -221 -210 -17 12 -13 22 53 151 116 226 157 363 248 822 31
159 47 271 52 355 9 191 -8 238 -194 538 -74 121 -109 164 -223 282 -80 83
-165 160 -209 190 -94 63 -243 134 -394 186 -132 46 -167 65 -167 92 0 41 88
50 218 23 114 -23 211 -58 369 -134 78 -38 157 -71 175 -75 79 -16 85 -25 41
-61 -17 -13 -24 -27 -20 -37 3 -8 39 -38 80 -66 111 -75 176 -152 246 -295 69
-141 117 -201 198 -244 33 -17 67 -40 78 -52 10 -11 31 -20 46 -20 15 0 31 -4
34 -10 3 -5 10 -10 15 -10 5 0 -3 26 -17 58 -15 31 -30 86 -33 122 -4 36 -8
53 -9 38 -1 -33 -22 -46 -62 -40 -24 4 -38 16 -64 56 -62 97 -81 168 -49 180
23 9 88 -28 124 -71 32 -38 32 -38 9 7 -13 24 -54 74 -90 110 -36 36 -93 101
-126 145 -182 241 -315 351 -560 459 -182 81 -251 98 -403 102 -88 2 -161 -2
-210 -11z m-188 -296 c64 -14 327 -122 461 -191 259 -133 469 -347 612 -625
124 -240 141 -458 68 -858 -34 -187 -81 -347 -158 -541 -36 -88 -70 -185 -76
-215 -25 -119 -93 -202 -214 -262 -39 -19 -131 -75 -205 -124 -297 -196 -440
-257 -650 -278 -174 -17 -422 50 -632 171 -450 259 -738 640 -799 1054 -18
127 -7 361 24 485 43 171 74 242 244 565 40 74 86 171 103 215 18 45 68 135
116 207 134 199 233 279 414 331 75 22 142 33 390 66 96 13 242 13 302 0z
m-1214 -205 c30 -53 -73 -182 -220 -277 -142 -92 -286 -261 -440 -519 -143
-237 -187 -411 -174 -678 16 -339 112 -655 269 -890 128 -191 554 -550 1026
-865 196 -131 228 -159 233 -205 4 -38 -31 -37 -121 1 -107 47 -173 87 -271
166 -47 37 -165 131 -263 207 -99 76 -247 195 -331 265 -84 69 -186 154 -228
188 -210 171 -338 448 -419 908 -30 173 -37 452 -15 578 23 125 52 183 197
395 198 288 271 370 514 572 223 187 224 187 243 154z m-138 -392 c0 -28 -27
-77 -147 -268 -118 -186 -202 -385 -240 -564 -24 -117 -24 -370 1 -495 86
-436 333 -765 816 -1087 295 -197 565 -291 789 -275 239 17 447 119 720 353
68 58 134 109 145 114 24 9 46 -5 46 -29 0 -57 -192 -278 -336 -387 -149 -112
-313 -186 -471 -214 -110 -20 -279 -9 -377 24 -280 95 -742 405 -1032 691
-139 138 -219 247 -294 400 -105 213 -153 423 -154 670 0 162 12 253 51 380
60 193 240 499 378 642 76 79 105 91 105 45z"/>
<path d="M5205 6434 c-108 -17 -175 -57 -175 -104 0 -33 43 -72 115 -105 55
-25 99 -57 184 -136 112 -103 141 -139 141 -179 0 -40 -30 -33 -153 38 -166
96 -257 134 -337 140 -57 4 -74 1 -134 -27 -264 -120 -482 -362 -600 -667 -51
-131 -117 -403 -123 -504 -7 -106 18 -216 77 -339 127 -264 387 -484 670 -564
179 -51 380 -33 380 34 0 27 -41 43 -160 63 -222 38 -368 99 -510 214 -175
140 -287 315 -327 507 -17 86 -6 155 26 155 21 0 20 3 68 -135 63 -180 163
-327 294 -429 146 -115 273 -166 519 -212 171 -31 236 -29 330 11 295 124 500
440 539 832 20 192 -12 377 -93 549 -94 197 -295 440 -484 583 -65 49 -82 67
-80 84 7 51 131 23 248 -55 250 -166 450 -438 528 -718 25 -88 27 -109 27
-295 0 -158 -4 -218 -19 -285 -26 -120 -70 -250 -120 -356 -114 -239 -252
-375 -526 -514 -78 -39 -168 -89 -201 -110 -87 -56 -166 -74 -291 -67 -175 10
-320 63 -502 184 -239 159 -420 402 -487 653 -30 110 -32 303 -6 430 43 204
117 397 221 575 133 227 254 359 444 485 115 77 147 113 141 160 -9 63 -125
65 -247 5 -144 -72 -271 -218 -417 -480 -170 -304 -249 -493 -291 -695 -22
-103 -25 -345 -6 -435 73 -339 281 -628 607 -842 98 -65 276 -148 370 -173
159 -42 344 -37 489 12 191 65 511 261 647 397 81 80 91 96 157 231 132 271
201 515 221 786 17 225 -13 416 -95 593 -146 316 -459 598 -756 681 -72 20
-242 33 -303 24z m35 -618 c52 -14 129 -28 170 -32 99 -9 132 -27 222 -123 59
-63 87 -104 127 -183 74 -153 86 -204 85 -388 0 -140 -3 -164 -28 -245 -61
-202 -190 -370 -344 -449 -269 -139 -655 -34 -869 235 -68 85 -98 138 -173
304 -58 126 -64 146 -64 205 1 299 271 638 559 700 64 14 212 3 315 -24z"/>
<path d="M4932 5664 c-100 -27 -163 -65 -247 -149 -87 -87 -133 -165 -160
-270 -31 -120 -14 -220 62 -375 40 -82 60 -108 147 -196 160 -159 240 -202
390 -212 247 -15 456 140 543 403 23 69 26 97 27 205 0 111 -3 134 -28 205
-15 44 -39 100 -53 125 -40 69 -137 164 -203 199 -132 70 -349 100 -478 65z
m275 -202 c113 -36 202 -111 254 -217 139 -283 -43 -626 -342 -643 -59 -3 -91
0 -123 12 -83 32 -66 58 49 76 96 15 165 51 224 115 65 72 85 131 79 234 -5
87 -27 137 -84 193 -81 81 -204 106 -304 61 -123 -55 -182 -196 -127 -303 29
-57 65 -83 117 -83 74 0 127 83 57 91 -60 7 -55 81 9 108 92 38 177 -59 145
-166 -25 -84 -108 -140 -222 -148 -104 -7 -166 34 -226 152 -38 73 -44 198
-13 279 75 199 298 304 507 239z"/>
<path d="M3030 4048 c0 -19 102 -242 186 -408 111 -219 194 -338 326 -470 180
-182 365 -298 541 -342 71 -17 92 -19 113 -9 14 6 24 17 22 24 -2 6 -70 46
-150 88 -167 87 -278 155 -389 240 -190 144 -276 246 -410 480 -50 89 -106
183 -124 208 -18 25 -51 80 -74 121 -22 41 -41 72 -41 68z"/>
<path d="M6535 3909 c-39 -34 -136 -178 -280 -414 -84 -138 -203 -297 -332
-443 -151 -172 -426 -280 -828 -327 -77 -9 -185 -22 -240 -30 -55 -8 -167 -19
-250 -25 -184 -14 -222 -23 -305 -71 -58 -34 -163 -67 -260 -81 -52 -8 160
-40 330 -50 174 -11 262 -8 670 23 365 27 571 87 975 284 251 123 272 136 404
254 53 47 112 99 131 115 19 15 28 26 20 23 -8 -2 -41 -12 -72 -21 -36 -10
-101 -46 -177 -96 -121 -81 -189 -114 -216 -104 -37 15 -2 79 99 184 79 82 98
109 132 195 30 75 43 99 149 270 116 188 150 274 129 329 -10 25 -40 19 -79
-15z"/>
<path d="M3576 2940 c5 -5 57 -43 114 -85 242 -174 483 -249 537 -168 20 30
-6 53 -61 53 -128 0 -290 54 -540 179 -32 17 -55 26 -50 21z"/>
<path d="M5850 2474 c-119 -38 -367 -107 -468 -130 -47 -11 -161 -18 -387 -24
-257 -7 -336 -13 -400 -28 -74 -18 -77 -20 -45 -25 19 -3 163 -11 320 -17 294
-12 359 -9 509 25 150 34 367 116 526 198 86 44 79 44 -55 1z"/>
<path d="M4478 2263 c7 -3 16 -2 19 1 4 3 -2 6 -13 5 -11 0 -14 -3 -6 -6z"/>
</g>
</svg>
