<?xml version="1.0" standalone="no"?>
<!DOCTYPE svg PUBLIC "-//W3C//DTD SVG 20010904//EN"
 "http://www.w3.org/TR/2001/REC-SVG-20010904/DTD/svg10.dtd">
<svg version="1.0" xmlns="http://www.w3.org/2000/svg"
 width="1000.000000pt" height="1000.000000pt" viewBox="0 0 1000.000000 1000.000000"
 preserveAspectRatio="xMidYMid meet">
<metadata>
  <rdf:RDF
    xmlns:rdf = "http://www.w3.org/1999/02/22-rdf-syntax-ns#"
    xmlns:rdfs = "http://www.w3.org/2000/01/rdf-schema#"
    xmlns:dc = "http://purl.org/dc/elements/1.1/"
    xmlns:cc = "http://creativecommons.org/ns#">
    <cc:license rdf:resource="http://creativecommons.org/publicdomain/zero/1.0/deed.en"/>
    <cc:permits rdf:resource="http://creativecommons.org/ns#Reproduction"/>
    <rdf:Description about="https://nft.mir.one/fingerprints"
      dc:title="TON Fingerprints"
      dc:description="This is a unique digital fingerprint created based on the algorithm for generating basic rings using a noise texture. Like human fingerprints, you can now use it for the Web3 and Metaverse era as digital biometric information."
      dc:publisher="https://nft.mir.one"
      dc:date="2022-02-22"
      dc:format="image/svg+xml"
      dc:language="en" >
      <dc:creator>
      <rdf:Bag>
        <rdf:li>EQBondcvD2_aOFADXSWJHs4ZazQDuEl9_wNvGGPxI8hGuOFU</rdf:li>
        <rdf:li>ipfs://bafkreihj7iub3fhmhq6jn62noukt5wxn3gv6bvcg7wmt6ywvlurefezckq</rdf:li>
      </rdf:Bag>
      </dc:creator>
    </rdf:Description>
  </rdf:RDF>
</metadata>
<rect width="100%" height="100%" fill="#1b1f23"/>
<g transform="translate(0.000000,1000.000000) scale(0.100000,-0.100000)"
fill="#ffffff" stroke="none">
<path d="M5137 7789 c-29 -15 -78 -24 -200 -35 -255 -23 -417 -55 -601 -121
-90 -32 -238 -95 -233 -99 1 -2 39 8 82 21 163 50 476 115 675 140 209 27 239
36 298 86 38 34 32 36 -21 8z"/>
<path d="M5075 7599 c-189 -12 -299 -28 -450 -66 -256 -64 -498 -168 -670
-287 -284 -198 -589 -560 -799 -951 -34 -62 -35 -66 -10 -35 16 19 47 55 69
80 22 25 76 90 120 144 168 209 453 483 622 597 177 120 317 183 649 293 229
76 229 76 549 78 337 2 405 -4 627 -53 106 -23 353 -101 426 -134 28 -13 52
-22 52 -20 0 9 -168 109 -266 158 -129 65 -267 115 -415 150 -194 47 -317 58
-504 46z"/>
<path d="M4060 7520 c-8 -5 -10 -10 -5 -10 6 0 17 5 25 10 8 5 11 10 5 10 -5
0 -17 -5 -25 -10z"/>
<path d="M4834 7356 c-35 -16 -51 -45 -32 -58 27 -17 138 15 138 40 0 31 -54
40 -106 18z"/>
<path d="M5151 7319 c-79 -7 -107 -15 -168 -45 -82 -40 -141 -46 -193 -19 -39
20 -88 12 -278 -51 -227 -74 -414 -176 -601 -326 -194 -157 -505 -499 -605
-665 -181 -302 -305 -757 -294 -1076 4 -122 15 -150 46 -125 25 21 33 49 53
195 36 265 100 466 236 736 127 255 226 382 499 644 203 195 281 260 398 329
177 105 344 162 573 194 82 11 184 27 228 35 252 49 619 18 921 -76 171 -54
231 -94 188 -126 -24 -19 -96 -12 -247 23 -234 54 -315 65 -533 71 -184 5
-233 3 -375 -17 -292 -39 -452 -83 -621 -172 -130 -68 -219 -138 -305 -240
-40 -47 -118 -125 -175 -174 -220 -191 -310 -305 -396 -504 -28 -63 -69 -155
-92 -205 -93 -198 -134 -330 -195 -620 -41 -198 -44 -290 -15 -412 20 -86 72
-228 110 -304 66 -131 283 -392 530 -639 171 -171 220 -234 220 -287 0 -11 -6
-26 -14 -32 -24 -20 -362 297 -600 562 -48 54 -99 100 -132 118 -30 17 -65 44
-79 61 -72 86 -159 326 -225 622 -20 88 -26 104 -62 140 -25 26 -37 34 -33 21
4 -11 25 -123 46 -250 35 -210 147 -687 189 -810 51 -148 178 -345 304 -470
75 -75 107 -98 179 -133 133 -65 234 -79 251 -36 10 25 -16 48 -129 116 -126
76 -241 166 -326 254 -152 159 -247 330 -224 403 14 44 42 23 126 -96 183
-261 529 -555 678 -577 60 -9 86 -24 202 -117 55 -45 121 -89 147 -99 73 -28
202 -43 325 -38 102 4 120 8 202 42 50 21 187 73 305 116 118 42 269 98 334
124 66 26 160 58 209 72 110 31 154 53 233 115 165 131 343 394 500 739 107
236 164 452 183 692 26 313 -43 557 -222 795 -42 56 -77 109 -77 117 0 53 99
10 190 -83 159 -161 240 -385 240 -660 0 -310 -66 -634 -196 -964 -132 -334
-252 -525 -493 -782 -46 -49 -114 -131 -151 -180 -37 -50 -89 -110 -115 -133
-162 -143 -497 -277 -720 -289 -84 -4 -117 -1 -210 20 -157 36 -498 62 -626
47 -122 -15 -210 -35 -258 -59 -40 -21 -58 -48 -43 -63 17 -17 117 -38 322
-68 113 -16 282 -41 375 -55 313 -46 392 -38 750 80 363 119 540 237 819 543
201 221 301 360 386 537 109 228 245 709 279 990 25 198 39 469 30 558 -15
146 -67 324 -124 421 -62 106 -140 169 -400 321 -54 32 -140 85 -190 118 -234
153 -515 251 -835 288 -161 18 -445 7 -594 -25 -172 -36 -270 -90 -237 -130
17 -20 76 -20 201 0 135 21 422 29 550 15 223 -26 432 -82 582 -157 113 -56
235 -140 299 -203 47 -47 61 -69 74 -117 9 -32 44 -111 77 -174 149 -287 192
-469 168 -714 -23 -242 -85 -424 -194 -578 -40 -57 -97 -148 -126 -203 -125
-237 -258 -403 -406 -505 -155 -107 -479 -242 -747 -310 -265 -67 -419 -63
-588 18 -96 45 -169 106 -287 238 -45 50 -134 140 -199 199 -243 224 -360 389
-459 647 -18 48 -52 118 -74 155 -56 93 -65 131 -64 258 3 236 120 576 265
767 44 60 60 72 132 107 134 63 331 227 358 297 13 35 3 63 -25 70 -49 12
-125 -38 -273 -178 -109 -103 -135 -115 -141 -65 -6 49 37 118 132 213 112
111 179 147 388 203 159 44 205 63 283 121 99 74 236 126 413 157 123 21 476
24 607 5 227 -34 466 -103 632 -183 96 -46 278 -166 408 -268 110 -87 161
-114 187 -100 49 26 -8 128 -151 269 -171 170 -322 259 -549 324 -279 81 -519
117 -772 118 -348 0 -585 -56 -848 -201 -109 -60 -163 -80 -194 -73 -40 8 -5
66 76 126 235 175 585 269 996 268 209 0 281 -8 590 -67 314 -61 395 -80 456
-110 74 -36 177 -117 275 -215 146 -148 224 -276 254 -421 10 -48 28 -97 49
-130 18 -30 49 -81 69 -113 21 -33 37 -57 37 -54 0 3 -11 36 -25 72 -14 37
-50 140 -81 229 -61 177 -111 282 -204 425 -88 136 -237 319 -315 388 -38 32
-109 100 -159 150 -70 69 -110 100 -171 132 -141 72 -355 122 -609 142 -142
11 -159 11 -295 -1z"/>
<path d="M4940 6254 c-8 -2 -130 -8 -270 -12 -255 -8 -255 -8 -310 -37 -82
-45 -124 -122 -85 -155 12 -10 35 -8 118 13 178 45 491 65 717 47 550 -44 848
-216 1043 -605 107 -214 129 -425 61 -602 -48 -127 -65 -197 -67 -280 -2 -67
1 -86 15 -100 26 -25 67 -7 95 42 27 48 84 218 109 330 25 106 25 321 1 418
-42 170 -170 432 -271 557 -90 112 -274 231 -445 289 -93 32 -253 69 -349 80
-96 12 -340 22 -362 15z"/>
<path d="M4690 5994 c-25 -3 -94 -11 -155 -19 -60 -8 -153 -15 -206 -15 -97 0
-97 0 -264 -122 -92 -68 -201 -151 -241 -186 -177 -150 -311 -430 -343 -712
-15 -139 14 -243 63 -224 26 10 42 49 79 200 69 275 144 421 297 574 155 155
326 261 493 305 274 73 503 78 812 21 72 -14 168 -29 214 -35 210 -27 407
-191 538 -451 66 -130 114 -336 83 -355 -19 -12 -36 13 -85 130 -56 135 -103
220 -165 305 -127 171 -334 312 -399 271 -29 -19 -1 -58 107 -148 138 -115
227 -226 339 -422 116 -203 154 -235 225 -193 122 72 94 345 -61 598 -56 91
-167 215 -240 269 -181 132 -470 204 -846 210 -110 1 -220 1 -245 -1z"/>
<path d="M4611 5709 c-128 -27 -232 -69 -338 -135 -295 -185 -419 -338 -514
-632 -61 -192 -92 -339 -84 -407 22 -206 186 -470 345 -554 38 -21 107 -76
178 -144 180 -171 279 -235 424 -274 87 -24 284 -24 398 0 188 40 420 134 571
232 209 135 412 426 427 612 5 71 -14 266 -33 330 -7 23 -38 76 -68 116 -30
40 -88 127 -127 193 -40 65 -97 153 -127 194 -70 94 -363 381 -423 414 -93 51
-181 68 -365 72 -143 3 -185 0 -264 -17z m319 -129 c159 -20 260 -63 393 -170
168 -134 316 -318 417 -520 94 -187 100 -263 36 -435 -64 -174 -89 -228 -139
-302 -183 -274 -600 -445 -922 -378 -132 28 -281 118 -370 225 -93 111 -175
384 -175 582 0 131 24 248 84 408 63 167 64 230 2 214 -69 -17 -184 -207 -227
-374 -27 -108 -35 -257 -19 -357 7 -43 32 -137 56 -210 49 -148 50 -152 29
-179 -15 -18 -17 -17 -59 28 -24 26 -65 89 -90 140 -105 214 -113 424 -25 676
75 213 171 324 319 368 36 11 63 30 116 85 125 127 233 181 397 199 39 4 77 8
82 9 6 0 49 -4 95 -9z"/>
<path d="M4754 5459 c-157 -18 -288 -101 -244 -154 16 -19 58 -19 172 1 120
21 259 15 348 -15 230 -78 412 -275 530 -576 47 -118 61 -145 82 -156 25 -13
54 10 63 51 15 70 -59 263 -159 415 -207 309 -497 469 -792 434z"/>
<path d="M4658 5180 c-137 -34 -189 -74 -247 -188 -85 -169 -128 -475 -87
-616 49 -167 160 -306 298 -376 101 -50 168 -63 298 -58 183 9 346 82 468 212
120 129 148 243 98 416 -64 224 -125 339 -241 455 -87 87 -164 135 -260 160
-81 21 -231 18 -327 -5z m324 -140 c198 -61 340 -284 325 -511 -7 -106 -42
-182 -118 -254 -176 -168 -452 -164 -626 11 -64 64 -113 160 -113 222 0 72 21
66 114 -31 65 -68 97 -93 152 -119 127 -60 272 -39 363 53 146 145 100 418
-84 505 -148 70 -310 -34 -265 -171 22 -65 108 -97 150 -55 24 24 25 38 4 61
-24 27 -11 49 30 49 39 0 80 -40 91 -89 14 -66 -38 -154 -108 -180 -80 -31
-184 5 -272 92 -82 83 -95 168 -41 274 68 135 234 194 398 143z"/>
<path d="M7061 5119 c-6 -18 -18 -104 -26 -193 -28 -289 -51 -412 -135 -726
-27 -102 -61 -237 -76 -300 -57 -243 -214 -482 -513 -780 -289 -288 -465 -394
-858 -516 -208 -65 -263 -96 -263 -147 0 -58 310 -3 550 99 404 170 785 552
1025 1029 80 157 90 187 169 510 91 370 109 478 125 725 11 172 19 330 15 330
-1 0 -7 -14 -13 -31z"/>
<path d="M3395 3245 c130 -125 221 -193 329 -246 69 -34 89 -39 148 -39 127 0
286 45 302 85 9 24 -10 52 -47 72 -27 15 -60 18 -227 18 -164 0 -203 3 -245
19 -59 21 -285 138 -335 173 -19 14 15 -23 75 -82z"/>
<path d="M5558 3260 c-86 -38 -237 -96 -334 -130 -188 -64 -250 -93 -259 -120
-17 -55 47 -79 162 -60 304 49 693 248 681 349 -3 23 -8 26 -48 28 -36 2 -75
-11 -202 -67z"/>
<path d="M3772 2746 c40 -23 111 -70 158 -104 47 -34 132 -85 190 -113 124
-61 437 -167 600 -203 194 -42 547 -66 685 -47 85 12 299 61 293 67 -2 1 -44
-4 -93 -13 -100 -17 -299 -14 -349 6 -16 7 -46 27 -66 45 -36 33 -37 33 -170
40 -161 8 -287 29 -578 95 -360 83 -450 119 -491 199 -18 34 -27 41 -68 50
-26 6 -78 13 -116 15 -68 5 -68 5 5 -37z"/>
</g>
</svg>
