<?xml version="1.0" standalone="no"?>
<!DOCTYPE svg PUBLIC "-//W3C//DTD SVG 20010904//EN"
 "http://www.w3.org/TR/2001/REC-SVG-20010904/DTD/svg10.dtd">
<svg version="1.0" xmlns="http://www.w3.org/2000/svg"
 width="1000.000000pt" height="1000.000000pt" viewBox="0 0 1000.000000 1000.000000"
 preserveAspectRatio="xMidYMid meet">
<metadata>
  <rdf:RDF
    xmlns:rdf = "http://www.w3.org/1999/02/22-rdf-syntax-ns#"
    xmlns:rdfs = "http://www.w3.org/2000/01/rdf-schema#"
    xmlns:dc = "http://purl.org/dc/elements/1.1/"
    xmlns:cc = "http://creativecommons.org/ns#">
    <cc:license rdf:resource="http://creativecommons.org/publicdomain/zero/1.0/deed.en"/>
    <cc:permits rdf:resource="http://creativecommons.org/ns#Reproduction"/>
    <rdf:Description about="https://nft.mir.one/fingerprints"
      dc:title="TON Fingerprints"
      dc:description="This is a unique digital fingerprint created based on the algorithm for generating basic rings using a noise texture. Like human fingerprints, you can now use it for the Web3 and Metaverse era as digital biometric information."
      dc:publisher="https://nft.mir.one"
      dc:date="2022-02-22"
      dc:format="image/svg+xml"
      dc:language="en" >
      <dc:creator>
      <rdf:Bag>
        <rdf:li>EQBondcvD2_aOFADXSWJHs4ZazQDuEl9_wNvGGPxI8hGuOFU</rdf:li>
        <rdf:li>ipfs://bafkreihj7iub3fhmhq6jn62noukt5wxn3gv6bvcg7wmt6ywvlurefezckq</rdf:li>
      </rdf:Bag>
      </dc:creator>
    </rdf:Description>
  </rdf:RDF>
</metadata>
<rect width="100%" height="100%" fill="#1b1f23"/>
<g transform="translate(0.000000,1000.000000) scale(0.100000,-0.100000)"
fill="#ffffff" stroke="none">
<path d="M5020 7799 c14 -7 77 -13 140 -15 115 -3 115 -3 21 6 -52 4 -115 11
-140 14 -40 5 -42 4 -21 -5z"/>
<path d="M4800 7719 c-241 -21 -310 -30 -412 -55 -60 -14 -107 -28 -104 -31 3
-3 42 0 88 8 46 7 166 13 268 14 194 1 252 10 270 45 13 25 13 30 -2 29 -7 -1
-56 -6 -108 -10z"/>
<path d="M5355 7665 c-39 -13 -125 -31 -190 -41 -68 -9 -189 -37 -277 -64
-142 -43 -161 -51 -196 -86 -39 -40 -94 -64 -150 -64 -69 0 -40 40 55 75 100
38 97 80 -7 72 -33 -3 -87 -19 -135 -40 -44 -20 -163 -65 -265 -102 -102 -37
-247 -96 -323 -131 -76 -35 -144 -64 -150 -65 -27 -2 42 -17 83 -18 55 -1 364
49 486 80 52 12 145 24 224 29 109 6 153 14 230 38 52 17 198 60 323 96 126
36 263 80 305 98 42 17 104 41 137 53 33 12 80 32 105 43 25 12 56 22 70 23
44 2 -133 27 -195 28 -37 0 -87 -9 -130 -24z"/>
<path d="M4248 7623 c7 -3 16 -2 19 1 4 3 -2 6 -13 5 -11 0 -14 -3 -6 -6z"/>
<path d="M5429 7380 c-74 -15 -205 -44 -290 -64 -214 -50 -382 -83 -532 -106
-130 -20 -161 -31 -232 -81 -36 -26 -56 -30 -215 -49 -312 -36 -340 -43 -487
-116 -73 -36 -154 -69 -180 -73 -43 -7 -45 -8 -21 -15 39 -11 62 -40 54 -69
-3 -14 -64 -79 -140 -148 -74 -68 -133 -125 -132 -126 1 -1 24 4 51 11 58 15
196 90 311 168 141 96 318 146 549 155 134 4 145 3 260 -27 248 -66 270 -70
450 -81 99 -6 281 -9 405 -7 225 4 225 4 307 36 175 67 348 58 518 -25 93 -46
157 -131 112 -149 -8 -3 -56 11 -108 30 -134 50 -203 66 -286 66 -98 0 -130
-15 -176 -83 -37 -54 -38 -58 -27 -93 25 -74 126 -153 350 -274 333 -178 516
-343 628 -565 36 -72 49 -118 62 -218 10 -84 30 -143 118 -357 73 -178 153
-421 181 -555 19 -86 45 -181 65 -235 4 -8 4 68 1 170 -9 311 -43 527 -141
890 -71 266 -98 348 -145 441 -71 142 -202 294 -345 399 -83 62 -183 112 -349
175 -230 88 -355 155 -355 192 0 26 105 11 260 -37 98 -30 163 -43 235 -49 78
-6 111 -13 150 -33 116 -60 291 -204 406 -334 119 -135 171 -243 229 -476 31
-123 99 -342 105 -336 2 2 -3 30 -10 63 -8 33 -30 146 -50 250 -45 240 -70
322 -143 471 -90 181 -198 335 -369 522 -296 326 -570 424 -1013 362 -331 -46
-813 -60 -952 -27 -42 10 -88 27 -102 38 -29 23 -34 54 -10 63 9 3 84 6 167 6
153 0 377 21 622 59 199 31 391 51 480 51 211 -1 414 -59 596 -170 350 -214
330 -206 204 -84 -223 215 -325 291 -510 381 -207 99 -322 112 -556 63z"/>
<path d="M4175 6719 c-195 -26 -349 -78 -615 -207 -179 -86 -267 -151 -364
-268 -27 -32 -67 -78 -89 -100 -39 -42 -39 -42 10 -25 26 9 86 38 133 63 125
69 200 100 455 193 278 100 538 184 663 215 142 34 167 69 81 112 -43 22 -179
30 -274 17z"/>
<path d="M4554 6563 c-27 -14 -93 -48 -148 -75 -54 -27 -128 -66 -165 -88 -75
-44 -390 -164 -484 -185 -34 -7 -107 -23 -162 -34 -73 -15 -131 -36 -214 -77
-129 -63 -195 -119 -288 -243 -32 -42 -72 -92 -91 -112 -33 -36 -33 -36 18
-28 58 9 99 31 250 135 212 145 372 221 405 194 8 -7 15 -16 15 -21 0 -22 -82
-96 -189 -172 -156 -111 -255 -205 -293 -282 -17 -33 -53 -99 -80 -147 -84
-146 -128 -261 -212 -548 -7 -24 -7 -24 18 5 14 17 54 75 88 130 133 215 326
493 386 557 35 37 119 109 186 159 66 51 155 124 196 164 175 165 323 230 566
245 188 12 264 29 327 73 21 14 27 26 25 45 -4 37 -44 45 -153 31 -49 -6 -112
-9 -140 -7 -42 2 -50 6 -50 23 0 27 67 62 156 81 87 18 131 12 202 -26 49 -26
68 -29 233 -41 98 -7 241 -13 316 -15 156 -3 218 -21 240 -69 18 -40 2 -48
-75 -34 -71 13 -117 4 -117 -24 0 -39 101 -87 185 -87 63 0 138 -26 260 -89
211 -109 347 -210 577 -429 117 -112 155 -135 183 -112 69 57 -132 337 -367
511 -43 32 -140 95 -216 140 -200 120 -244 151 -356 255 -113 105 -182 146
-279 169 -68 16 -523 55 -638 55 -53 0 -76 -5 -115 -27z"/>
<path d="M4850 6103 c-14 -3 -83 -20 -155 -39 -71 -18 -186 -45 -254 -59 -260
-55 -372 -105 -571 -253 -68 -51 -159 -111 -202 -133 -138 -73 -188 -127 -403
-449 -172 -257 -204 -323 -251 -519 -21 -84 -44 -159 -51 -167 -20 -20 -3 -17
32 5 20 12 65 77 135 192 58 95 160 254 228 352 68 99 153 229 189 290 71 118
131 187 163 187 29 0 26 -36 -10 -112 -23 -48 -30 -77 -30 -122 0 -58 0 -58
-98 -185 -139 -177 -196 -256 -327 -450 -131 -195 -148 -225 -169 -307 -12
-48 -36 -239 -36 -293 0 -20 36 33 131 194 126 214 202 325 333 490 166 209
247 290 426 424 206 156 261 192 377 250 341 169 710 183 1078 40 212 -82 399
-205 564 -369 127 -126 214 -246 287 -395 102 -210 151 -405 161 -640 10 -252
-26 -457 -123 -701 -66 -166 -235 -497 -324 -634 -77 -119 -76 -117 -69 -221
3 -36 3 -36 40 10 20 25 69 82 109 126 160 179 374 555 450 792 144 445 112
946 -85 1359 -150 313 -458 610 -816 786 -138 68 -286 121 -423 150 -78 16
-136 21 -256 22 -242 0 -427 -41 -635 -143 -133 -65 -208 -118 -341 -242 -92
-85 -160 -125 -194 -114 -27 9 -25 27 6 56 14 13 56 69 94 124 78 115 119 160
204 222 257 190 751 304 1071 248 125 -22 367 -105 520 -179 211 -101 387
-229 597 -434 135 -132 217 -241 287 -385 199 -408 255 -919 147 -1347 -35
-142 -93 -351 -105 -384 -7 -16 -10 -30 -8 -33 13 -12 174 373 220 527 74 248
112 566 88 735 -28 195 -107 445 -206 650 -85 176 -130 234 -272 349 -65 53
-165 137 -223 187 -214 184 -419 304 -675 393 -72 25 -171 64 -220 86 -50 23
-119 48 -155 56 -61 13 -195 17 -250 7z"/>
<path d="M3057 5598 c-9 -7 -43 -64 -76 -125 -58 -113 -58 -113 -17 -76 74 67
143 171 132 199 -7 17 -17 18 -39 2z"/>
<path d="M4672 5365 c-330 -60 -698 -298 -950 -615 -41 -52 -117 -138 -167
-190 -103 -106 -162 -198 -199 -312 -31 -93 -32 -117 -6 -187 12 -29 32 -126
45 -215 13 -88 34 -195 45 -236 27 -97 98 -245 154 -324 58 -81 189 -206 277
-262 267 -173 681 -289 1074 -301 196 -6 296 5 555 62 197 43 264 73 344 152
75 75 192 251 270 406 103 204 135 329 143 562 6 190 -15 342 -71 510 -164
488 -595 863 -1093 950 -104 18 -320 18 -421 0z m394 -180 c486 -85 893 -487
999 -987 50 -235 31 -520 -47 -672 -11 -22 -53 -75 -92 -116 -40 -41 -92 -104
-116 -140 -121 -179 -240 -270 -440 -337 -85 -28 -85 -28 -375 -27 -312 0
-398 10 -575 61 -118 34 -190 63 -375 153 -187 92 -254 145 -340 274 -95 144
-142 278 -176 501 -24 165 -24 262 0 357 34 133 94 225 128 196 17 -14 16 -52
-1 -158 -33 -196 -28 -341 18 -523 60 -236 200 -455 311 -486 35 -9 65 2 65
26 0 9 -32 66 -72 127 -119 182 -167 318 -190 531 -10 94 -9 140 6 291 23 229
30 263 77 354 136 262 509 521 827 575 107 18 263 18 368 0z"/>
<path d="M4773 5049 c-366 -47 -715 -319 -816 -634 -30 -94 -49 -229 -49 -350
-1 -202 41 -363 141 -549 27 -50 59 -123 71 -161 18 -57 30 -78 68 -112 110
-102 355 -183 547 -183 78 0 189 24 228 49 17 11 85 78 152 150 137 147 185
226 211 351 19 90 13 210 -14 291 -11 30 -22 87 -25 127 -6 71 -6 72 19 72 70
0 -22 115 -136 169 -54 25 -59 26 -235 23 -201 -3 -264 -15 -330 -63 -72 -53
-125 -160 -125 -250 0 -102 61 -211 135 -239 81 -30 166 43 110 94 -31 29 -32
43 0 58 56 25 125 -41 125 -121 0 -104 -88 -182 -204 -181 -193 3 -335 234
-292 477 18 104 63 191 137 264 77 76 133 103 202 95 28 -3 153 -10 277 -14
257 -9 272 -13 362 -103 64 -64 92 -127 125 -280 34 -159 38 -394 9 -498 -37
-134 -112 -243 -227 -331 -39 -30 -87 -68 -105 -84 -76 -63 -19 -111 97 -82
204 53 385 232 419 416 14 75 14 428 1 515 -46 286 -137 435 -396 650 -246
204 -489 193 -778 -37 -213 -169 -317 -408 -286 -658 26 -217 141 -399 298
-474 61 -29 74 -31 171 -31 101 0 108 1 168 34 135 73 205 215 173 348 -15 62
-71 143 -123 180 -37 25 -49 28 -112 26 -39 -1 -82 -3 -96 -5 -35 -4 -40 35
-8 69 47 51 114 69 186 51 39 -9 63 -27 143 -107 119 -119 150 -175 157 -281
13 -220 -175 -437 -408 -472 -196 -29 -394 61 -510 232 -77 114 -136 254 -161
388 -17 91 -6 298 21 392 91 316 387 566 722 611 392 53 833 -295 948 -748 31
-121 41 -235 38 -435 -3 -163 -1 -189 13 -204 62 -61 134 106 146 336 13 248
-51 496 -183 707 -55 89 -199 243 -293 313 -145 109 -322 180 -494 199 -106
12 -124 12 -214 0z m281 -454 c22 -11 44 -28 50 -38 18 -29 -10 -38 -104 -34
-47 3 -125 0 -174 -4 -54 -6 -93 -6 -99 0 -23 23 23 70 91 92 48 15 193 5 236
-16z m62 -438 c35 -18 84 -70 110 -114 25 -45 8 -64 -38 -41 -45 22 -188 145
-188 163 0 27 55 24 116 -8z"/>
<path d="M3213 4043 c-25 -38 -29 -158 -8 -269 84 -455 401 -892 790 -1091
168 -85 324 -136 590 -193 83 -18 179 -44 215 -58 57 -23 79 -26 180 -26 139
1 259 24 474 94 83 26 169 52 191 56 45 8 55 17 48 46 -16 57 -123 64 -340 19
-200 -41 -317 -52 -433 -42 -138 13 -497 85 -678 137 -521 149 -835 459 -933
919 -11 52 -22 155 -25 245 -4 85 -11 163 -16 173 -13 25 -35 21 -55 -10z"/>
<path d="M5630 2478 c-86 -63 -238 -131 -445 -198 -104 -34 -208 -68 -230 -75
-40 -14 -40 -14 10 -9 282 32 595 142 711 250 82 76 46 101 -46 32z"/>
<path d="M4255 2409 c244 -77 431 -112 499 -95 68 17 9 41 -158 66 -72 11
-165 27 -206 35 -74 15 -273 45 -287 45 -5 -1 64 -24 152 -51z"/>
</g>
</svg>
