<?xml version="1.0" standalone="no"?>
<!DOCTYPE svg PUBLIC "-//W3C//DTD SVG 20010904//EN"
 "http://www.w3.org/TR/2001/REC-SVG-20010904/DTD/svg10.dtd">
<svg version="1.0" xmlns="http://www.w3.org/2000/svg"
 width="1000.000000pt" height="1000.000000pt" viewBox="0 0 1000.000000 1000.000000"
 preserveAspectRatio="xMidYMid meet">
<metadata>
  <rdf:RDF
    xmlns:rdf = "http://www.w3.org/1999/02/22-rdf-syntax-ns#"
    xmlns:rdfs = "http://www.w3.org/2000/01/rdf-schema#"
    xmlns:dc = "http://purl.org/dc/elements/1.1/"
    xmlns:cc = "http://creativecommons.org/ns#">
    <cc:license rdf:resource="http://creativecommons.org/publicdomain/zero/1.0/deed.en"/>
    <cc:permits rdf:resource="http://creativecommons.org/ns#Reproduction"/>
    <rdf:Description about="https://nft.mir.one/fingerprints"
      dc:title="TON Fingerprints"
      dc:description="This is a unique digital fingerprint created based on the algorithm for generating basic rings using a noise texture. Like human fingerprints, you can now use it for the Web3 and Metaverse era as digital biometric information."
      dc:publisher="https://nft.mir.one"
      dc:date="2022-02-22"
      dc:format="image/svg+xml"
      dc:language="en" >
      <dc:creator>
      <rdf:Bag>
        <rdf:li>EQBondcvD2_aOFADXSWJHs4ZazQDuEl9_wNvGGPxI8hGuOFU</rdf:li>
        <rdf:li>ipfs://bafkreihj7iub3fhmhq6jn62noukt5wxn3gv6bvcg7wmt6ywvlurefezckq</rdf:li>
      </rdf:Bag>
      </dc:creator>
    </rdf:Description>
  </rdf:RDF>
</metadata>
<rect width="100%" height="100%" fill="#1b1f23"/>
<g transform="translate(0.000000,1000.000000) scale(0.100000,-0.100000)"
fill="#ffffff" stroke="none">
<path d="M5155 7764 c44 -25 159 -86 256 -134 297 -150 521 -287 792 -488 73
-55 173 -120 222 -147 90 -48 90 -48 45 -9 -24 21 -96 86 -160 143 -351 315
-644 489 -1055 627 -90 29 -167 54 -172 54 -4 0 28 -21 72 -46z"/>
<path d="M4405 7684 c16 -7 53 -21 80 -32 28 -12 111 -40 185 -62 511 -157
1152 -495 1401 -740 76 -75 76 -75 98 -170 12 -52 26 -105 31 -117 5 -12 71
-65 147 -119 76 -54 165 -119 198 -145 33 -25 95 -64 139 -85 61 -30 93 -54
143 -109 36 -38 81 -94 101 -123 19 -29 37 -50 39 -48 6 6 -98 212 -141 280
-20 32 -106 151 -189 264 -84 114 -161 221 -171 237 -57 93 -108 143 -255 252
-320 239 -528 371 -805 509 -308 153 -540 210 -881 216 -122 3 -145 1 -120 -8z
m1885 -929 c50 -26 67 -75 26 -75 -31 0 -86 46 -86 71 0 23 21 24 60 4z"/>
<path d="M4273 7490 c-46 -5 -136 -20 -200 -34 -65 -14 -127 -27 -138 -29 -15
-4 -13 -5 7 -6 15 0 39 -6 55 -12 15 -6 78 -17 138 -25 314 -42 635 -145 1110
-359 264 -118 402 -200 635 -374 104 -77 166 -111 205 -111 97 0 -26 169 -237
326 -236 176 -626 374 -1015 518 -273 100 -394 123 -560 106z"/>
<path d="M4015 7253 c-69 -9 -137 -25 -250 -60 -118 -37 -119 -38 -80 -46 22
-4 83 -12 135 -17 413 -41 756 -143 1144 -340 175 -89 175 -89 251 -88 71 2
80 -1 168 -45 190 -97 515 -372 613 -519 26 -38 89 -160 140 -271 117 -250
153 -312 243 -410 82 -89 105 -132 194 -357 166 -420 280 -761 313 -939 9 -47
24 -110 34 -140 18 -54 18 -54 25 64 12 193 -14 509 -55 670 -12 44 -65 213
-120 375 -54 162 -107 336 -116 385 -27 148 -59 261 -125 439 -52 142 -69 176
-101 208 -32 32 -45 39 -71 36 -29 -3 -32 -7 -35 -40 -2 -24 10 -72 38 -145
102 -264 129 -341 135 -385 9 -61 0 -90 -28 -86 -52 7 -242 465 -262 630 -12
92 -61 142 -324 328 -361 256 -408 283 -646 378 -82 33 -219 90 -304 126 -189
82 -430 165 -576 199 -116 28 -280 58 -299 56 -6 -1 -24 -4 -41 -6z"/>
<path d="M3675 6985 c-210 -56 -193 -49 -149 -67 22 -9 111 -29 199 -43 384
-63 654 -143 900 -265 179 -89 273 -154 450 -315 307 -278 498 -503 602 -708
87 -174 99 -298 25 -258 -10 6 -52 73 -92 150 -91 175 -196 316 -367 491 -248
255 -449 411 -678 525 -222 110 -400 166 -794 251 -164 35 -179 36 -240 25
-36 -7 -86 -19 -111 -28 -25 -8 -51 -17 -59 -20 -40 -12 81 -50 434 -138 213
-53 433 -112 489 -132 282 -98 528 -260 810 -533 203 -196 370 -399 417 -504
21 -48 18 -86 -6 -86 -8 0 -92 87 -188 193 -286 315 -468 482 -677 620 -198
130 -333 188 -575 243 -82 19 -253 62 -378 95 -257 68 -258 68 -390 16 -77
-30 -77 -30 -48 -48 16 -10 82 -32 148 -49 65 -18 214 -63 331 -101 207 -67
217 -69 316 -69 119 0 183 -18 332 -93 222 -111 399 -253 724 -578 125 -124
248 -239 273 -254 26 -15 74 -35 108 -45 96 -29 200 -118 275 -236 59 -92 240
-428 277 -516 20 -46 61 -179 92 -297 57 -221 77 -277 107 -295 14 -8 22 -6
35 7 25 25 21 125 -16 377 -43 290 -68 367 -221 700 -81 176 -85 188 -131 370
-60 240 -168 440 -359 664 -99 117 -581 581 -646 622 -231 148 -583 271 -953
333 -152 26 -155 26 -266 -4z"/>
<path d="M5164 6625 c-17 -42 33 -102 240 -286 308 -275 446 -473 622 -896 35
-85 104 -246 153 -357 113 -256 153 -361 181 -470 20 -80 21 -94 9 -175 -10
-68 -10 -113 -1 -202 16 -154 15 -282 -3 -348 -11 -44 -13 -129 -8 -492 4
-277 10 -436 16 -432 28 17 111 258 137 399 8 42 10 174 7 425 -4 311 -8 381
-26 479 -25 139 -26 169 -5 177 23 9 61 -34 84 -93 52 -139 77 -364 85 -739 6
-328 11 -340 58 -129 69 309 82 510 47 685 -30 146 -63 242 -124 362 -31 58
-85 181 -121 274 -127 323 -167 409 -279 602 -37 62 -114 207 -172 322 -58
115 -133 251 -167 302 -105 158 -347 389 -554 529 -111 74 -167 94 -179 63z"/>
<path d="M3193 6247 c-81 -33 -81 -33 -50 -51 18 -10 90 -38 161 -63 319 -109
462 -176 761 -354 240 -144 367 -233 453 -316 52 -51 63 -67 60 -89 -2 -15 -8
-29 -14 -31 -6 -2 -87 48 -181 111 -290 196 -529 324 -803 430 -80 32 -187 75
-239 98 -111 48 -150 48 -248 2 -69 -33 -73 -28 69 -78 59 -22 98 -52 98 -77
0 -16 -7 -19 -52 -19 -34 0 -71 -8 -103 -24 -63 -29 -128 -73 -118 -79 43 -25
192 -10 284 28 58 25 64 26 137 15 148 -23 382 -105 573 -201 46 -22 153 -83
238 -134 200 -119 232 -134 313 -156 37 -9 87 -28 110 -42 107 -63 364 -305
438 -411 16 -25 54 -92 84 -150 29 -58 76 -136 104 -174 66 -88 71 -104 70
-209 0 -93 7 -131 72 -348 53 -176 80 -287 80 -324 0 -26 -4 -31 -23 -31 -27
0 -57 29 -82 79 -9 18 -55 146 -101 285 -135 397 -181 474 -337 560 -45 24
-163 106 -262 180 -98 75 -240 171 -314 213 -127 74 -158 98 -256 202 -71 76
-362 199 -549 232 -44 7 -105 9 -170 5 -56 -4 -148 -10 -206 -14 -115 -8 -135
-16 -214 -81 -26 -23 -56 -41 -65 -42 -29 -1 71 -28 128 -34 121 -13 171 -29
316 -100 222 -109 308 -142 405 -155 101 -14 328 -63 397 -86 73 -25 188 -85
293 -154 128 -84 350 -259 432 -342 121 -120 208 -279 299 -546 67 -197 88
-282 100 -409 6 -67 19 -134 35 -178 70 -193 67 -179 68 -360 1 -139 -3 -189
-21 -275 -36 -173 -38 -208 -11 -259 13 -25 34 -52 47 -60 25 -16 25 -16 7 12
-18 26 -18 30 -1 72 27 72 96 157 148 185 27 14 51 35 56 50 6 14 11 189 12
410 3 370 2 388 -20 468 -19 74 -20 90 -10 143 24 123 0 260 -102 567 -28 84
-48 159 -45 167 9 24 50 17 79 -13 54 -56 142 -293 181 -487 21 -105 62 -477
76 -685 18 -284 49 -573 67 -630 17 -55 17 -55 64 38 47 91 80 177 94 239 3
18 -2 84 -14 155 -11 68 -32 222 -46 343 -49 430 -96 634 -221 964 -64 168
-75 228 -50 266 12 17 25 25 39 23 28 -4 103 -184 208 -503 90 -273 121 -401
144 -600 48 -410 84 -588 135 -665 30 -45 30 -45 30 -9 0 19 7 60 16 90 18 58
16 180 -6 464 -27 358 -41 427 -114 585 -30 63 -75 184 -101 268 -83 272 -125
354 -225 441 -52 46 -67 67 -119 175 -96 202 -149 267 -345 424 -66 53 -234
209 -375 347 -154 150 -299 283 -363 331 -207 154 -439 277 -528 278 -38 1
-45 -2 -48 -19 -4 -32 48 -74 228 -185 262 -161 322 -211 713 -605 370 -371
434 -445 488 -554 55 -112 42 -217 -23 -182 -13 7 -67 76 -120 154 -111 163
-228 298 -387 446 -62 57 -159 160 -216 230 -142 173 -236 251 -513 426 -79
50 -171 112 -205 138 -146 113 -269 173 -530 256 -122 39 -161 38 -264 -2z
m352 -1047 c172 -38 565 -182 565 -207 0 -18 -25 -33 -55 -33 -75 0 -645 175
-687 210 -23 20 -23 20 -4 35 26 20 73 19 181 -5z m1950 -1907 c7 -46 -8 -93
-30 -93 -35 0 -62 139 -32 169 17 17 53 -26 62 -76z"/>
<path d="M6607 6100 c-7 -28 7 -74 64 -215 28 -65 76 -200 109 -300 32 -99 88
-265 125 -370 36 -104 79 -239 95 -300 16 -60 41 -144 55 -185 25 -75 25 -75
20 -25 -3 28 -10 109 -15 180 -22 271 -98 606 -206 910 -66 186 -158 325 -214
325 -19 0 -29 -6 -33 -20z"/>
<path d="M3177 5590 c-58 -8 -102 -32 -204 -114 -42 -34 -42 -34 2 -40 24 -4
129 -2 232 4 103 7 220 9 258 5 241 -23 523 -134 735 -289 30 -22 129 -88 222
-147 180 -116 270 -182 418 -308 107 -91 155 -119 179 -104 98 61 -248 407
-568 568 -41 20 -143 78 -225 128 -258 155 -483 252 -678 291 -81 17 -265 20
-371 6z"/>
<path d="M3020 4994 c-25 -14 -47 -29 -50 -33 -3 -4 -18 -16 -33 -28 -29 -22
-29 -22 8 -37 34 -14 71 -20 283 -46 131 -15 238 -68 206 -100 -8 -8 -35 -8
-95 1 -90 13 -136 8 -146 -17 -11 -30 56 -57 219 -88 90 -17 134 -38 250 -120
47 -34 155 -103 240 -154 224 -136 327 -213 466 -346 129 -125 213 -229 327
-406 37 -58 95 -140 127 -183 163 -214 194 -428 139 -966 -15 -145 -17 -195
-8 -236 10 -51 10 -51 55 -11 157 142 168 163 188 362 21 214 14 327 -37 577
-23 114 -44 254 -49 322 -12 174 -40 275 -123 440 -115 231 -327 451 -612 638
-158 103 -428 219 -561 241 -50 9 -81 -13 -64 -44 15 -28 48 -48 235 -144 461
-237 749 -505 920 -856 54 -112 79 -192 71 -226 -15 -57 -65 -14 -141 122
-205 366 -417 577 -815 811 -234 138 -270 163 -365 258 -155 156 -280 228
-478 275 -103 25 -103 25 -157 -6z"/>
<path d="M3029 4692 c-24 -16 -53 -39 -63 -50 -11 -12 -29 -22 -40 -23 -15 0
-16 -2 -6 -6 8 -3 31 -12 50 -21 39 -16 170 -64 340 -124 125 -43 170 -66 170
-85 0 -36 -85 -33 -242 8 -135 35 -139 35 -228 -30 -42 -30 -42 -30 -7 -44 44
-19 267 -62 427 -82 142 -18 207 -38 330 -100 433 -217 756 -610 870 -1056 40
-155 27 -260 -28 -230 -40 21 -91 139 -169 386 -71 225 -196 406 -391 568
-231 191 -430 283 -734 337 -143 26 -162 23 -228 -36 -19 -17 -41 -33 -48 -35
-21 -7 82 -35 212 -59 289 -53 506 -153 725 -334 169 -140 325 -360 306 -433
-11 -46 -39 -29 -120 72 -224 279 -474 454 -774 541 -92 27 -135 29 -167 11
-25 -14 -98 -77 -93 -80 26 -16 94 -40 159 -57 214 -55 383 -139 540 -269 30
-25 116 -104 190 -176 74 -71 156 -144 182 -162 60 -41 96 -91 165 -228 93
-184 106 -226 107 -335 0 -67 -5 -106 -17 -134 -9 -21 -17 -50 -17 -64 0 -14
-7 -34 -17 -44 -15 -17 -15 -18 11 -18 57 0 173 34 227 66 87 52 89 56 109
212 10 76 27 168 37 203 12 46 17 99 17 189 0 115 -3 133 -33 223 -19 53 -60
145 -93 203 -246 444 -487 677 -972 940 -61 33 -130 80 -158 107 -69 67 -108
90 -228 133 -90 33 -111 45 -157 91 -62 62 -81 65 -144 25z"/>
<path d="M3345 3550 c-22 -11 -52 -38 -67 -59 -27 -38 -27 -38 -3 -33 76 14
304 -126 460 -283 172 -171 271 -343 315 -544 21 -93 47 -183 49 -164 1 7 23
24 49 37 61 31 112 87 112 124 0 87 -75 263 -159 374 -75 99 -284 311 -376
383 -95 73 -188 130 -264 162 -68 28 -67 28 -116 3z"/>
<path d="M3540 2985 c71 -92 76 -97 52 -50 -11 22 -39 58 -63 80 -43 40 -43
40 11 -30z"/>
<path d="M5580 2408 c-6 -24 -15 -59 -20 -77 -5 -19 -8 -37 -6 -38 10 -10 66
98 66 125 0 48 -27 41 -40 -10z"/>
</g>
</svg>
