<?xml version="1.0" standalone="no"?>
<!DOCTYPE svg PUBLIC "-//W3C//DTD SVG 20010904//EN"
 "http://www.w3.org/TR/2001/REC-SVG-20010904/DTD/svg10.dtd">
<svg version="1.0" xmlns="http://www.w3.org/2000/svg"
 width="1000.000000pt" height="1000.000000pt" viewBox="0 0 1000.000000 1000.000000"
 preserveAspectRatio="xMidYMid meet">
<metadata>
  <rdf:RDF
    xmlns:rdf = "http://www.w3.org/1999/02/22-rdf-syntax-ns#"
    xmlns:rdfs = "http://www.w3.org/2000/01/rdf-schema#"
    xmlns:dc = "http://purl.org/dc/elements/1.1/"
    xmlns:cc = "http://creativecommons.org/ns#">
    <cc:license rdf:resource="http://creativecommons.org/publicdomain/zero/1.0/deed.en"/>
    <cc:permits rdf:resource="http://creativecommons.org/ns#Reproduction"/>
    <rdf:Description about="https://nft.mir.one/fingerprints"
      dc:title="TON Fingerprints"
      dc:description="This is a unique digital fingerprint created based on the algorithm for generating basic rings using a noise texture. Like human fingerprints, you can now use it for the Web3 and Metaverse era as digital biometric information."
      dc:publisher="https://nft.mir.one"
      dc:date="2022-02-22"
      dc:format="image/svg+xml"
      dc:language="en" >
      <dc:creator>
      <rdf:Bag>
        <rdf:li>EQBondcvD2_aOFADXSWJHs4ZazQDuEl9_wNvGGPxI8hGuOFU</rdf:li>
        <rdf:li>ipfs://bafkreihj7iub3fhmhq6jn62noukt5wxn3gv6bvcg7wmt6ywvlurefezckq</rdf:li>
      </rdf:Bag>
      </dc:creator>
    </rdf:Description>
  </rdf:RDF>
</metadata>
<rect width="100%" height="100%" fill="#1b1f23"/>
<g transform="translate(0.000000,1000.000000) scale(0.100000,-0.100000)"
fill="#ffffff" stroke="none">
<path d="M5462 7731 c25 -16 64 -54 86 -84 56 -75 115 -125 264 -220 400 -255
463 -303 672 -507 139 -135 139 -135 24 5 -222 269 -335 363 -763 636 -38 24
-92 63 -120 87 -44 38 -177 112 -201 112 -4 0 13 -13 38 -29z"/>
<path d="M4375 7661 c-80 -6 -80 -6 -21 -38 33 -18 63 -33 68 -33 21 0 142
-62 209 -107 86 -58 196 -115 331 -171 112 -47 176 -62 261 -62 123 0 221 -39
537 -212 91 -50 208 -119 260 -153 216 -143 492 -478 549 -667 12 -40 40 -129
61 -198 22 -69 50 -172 64 -230 14 -58 39 -139 56 -180 90 -212 180 -537 224
-805 15 -88 33 -192 42 -231 8 -38 19 -99 23 -135 8 -64 8 -64 10 21 1 134
-17 454 -34 580 -25 179 -69 366 -130 547 -55 164 -63 213 -31 213 18 0 57
-47 120 -146 28 -45 57 -90 63 -100 7 -11 3 8 -8 41 -41 115 -87 204 -129 247
-29 29 -63 85 -103 168 -65 137 -80 195 -53 206 23 9 50 -5 124 -66 63 -51 63
-51 20 11 -24 34 -65 80 -91 103 -27 22 -80 87 -118 143 -254 369 -419 542
-689 719 -169 110 -411 255 -545 324 -330 173 -667 239 -1070 211z"/>
<path d="M4210 7415 c-99 -19 -218 -60 -363 -126 -119 -54 -119 -54 -70 -62
26 -4 70 -5 98 -2 27 4 158 10 290 15 261 9 310 18 334 61 13 24 13 29 -3 54
-39 59 -158 84 -286 60z"/>
<path d="M5172 7088 c-34 -34 5 -117 97 -208 60 -59 74 -68 143 -88 117 -33
167 -86 319 -337 156 -256 233 -407 320 -630 121 -312 138 -347 232 -477 39
-52 61 -125 112 -370 68 -326 79 -426 79 -718 0 -223 -4 -287 -22 -405 -29
-184 -69 -347 -130 -525 -77 -222 -118 -347 -147 -439 -27 -89 -97 -214 -175
-315 -87 -113 -81 -110 56 29 153 154 197 213 220 293 9 29 56 135 104 235
181 369 244 658 244 1112 0 291 -16 436 -95 835 -49 244 -44 428 11 512 29 43
29 46 19 109 -26 162 -101 403 -170 545 -78 160 -244 376 -362 471 -78 63
-127 88 -200 102 -66 12 -65 11 -225 108 -188 113 -316 173 -372 173 -25 0
-51 -5 -58 -12z m714 -430 c198 -203 347 -446 435 -710 52 -154 69 -247 69
-371 0 -100 -11 -146 -37 -154 -19 -6 -29 23 -77 209 -88 347 -172 528 -403
871 -86 129 -114 191 -98 216 14 24 44 8 111 -61z"/>
<path d="M4395 7079 c-38 -5 -180 -13 -315 -18 -271 -10 -273 -10 -472 -95
-56 -24 -113 -47 -126 -51 -22 -6 -21 -7 12 -30 37 -25 113 -35 376 -50 58 -3
166 -10 240 -16 114 -9 147 -8 210 5 306 65 523 -60 786 -454 264 -394 372
-615 455 -928 33 -128 72 -156 104 -77 31 74 12 240 -47 402 -39 109 -156 343
-253 508 -43 72 -117 207 -166 300 -98 187 -146 256 -247 358 -49 51 -89 79
-151 110 -84 42 -84 42 -210 44 -69 1 -157 -3 -196 -8z"/>
<path d="M5334 6696 c-13 -20 -13 -31 -4 -68 15 -55 30 -84 158 -308 135 -235
224 -423 274 -575 51 -154 57 -228 30 -355 -26 -120 -29 -186 -19 -380 7 -140
6 -163 -13 -235 -20 -79 -29 -171 -50 -515 -30 -496 -132 -825 -344 -1107 -90
-121 -226 -267 -268 -289 -36 -19 -68 -18 -68 2 0 26 17 52 154 231 72 95 154
206 182 247 131 189 216 555 239 1021 2 61 10 205 16 322 18 332 -7 519 -81
599 -49 54 -69 93 -126 251 -61 170 -143 328 -265 513 -228 347 -389 516 -577
607 -92 44 -167 54 -201 26 -41 -34 -16 -70 128 -186 230 -184 354 -319 543
-587 52 -74 110 -157 130 -185 52 -73 74 -122 98 -215 12 -46 45 -142 74 -214
68 -167 82 -211 101 -321 45 -259 22 -850 -45 -1186 -55 -271 -147 -476 -192
-431 -8 8 -1 49 20 134 135 541 156 1199 51 1578 -47 168 -111 302 -179 374
-65 70 -83 109 -77 165 6 54 -7 83 -94 213 -129 191 -326 397 -583 606 -214
175 -239 184 -595 223 -247 27 -246 27 -376 -60 -83 -55 -157 -112 -127 -96
16 8 154 -20 257 -52 158 -50 211 -88 293 -208 22 -33 87 -109 143 -170 123
-133 180 -208 225 -298 40 -78 156 -389 179 -476 29 -111 14 -570 -25 -756
-11 -55 -25 -104 -30 -109 -16 -16 -49 23 -55 68 -4 23 -2 111 5 196 13 184 1
408 -30 537 -35 147 -124 361 -198 477 -93 146 -344 410 -467 493 -205 137
-247 142 -375 48 -26 -19 -53 -35 -59 -35 -6 0 1 -21 16 -47 24 -44 35 -52
139 -102 176 -84 283 -159 420 -296 224 -224 346 -452 405 -758 24 -127 29
-293 11 -377 -8 -36 -11 -129 -9 -273 4 -241 4 -239 67 -235 43 4 66 36 111
154 26 69 39 90 77 121 29 24 54 57 74 98 47 102 60 187 59 391 0 139 2 185
13 199 12 16 16 17 30 6 43 -35 83 -246 71 -371 -15 -147 -42 -218 -201 -507
-46 -84 -113 -212 -148 -285 -132 -270 -289 -465 -491 -610 -63 -46 -118 -74
-283 -148 -52 -23 -52 -23 20 -43 40 -10 105 -20 143 -21 67 -1 73 1 135 43
297 201 494 472 820 1127 162 326 170 354 150 535 -18 160 -54 261 -146 398
-24 36 -80 149 -125 251 -63 142 -82 196 -83 234 -1 37 3 51 17 60 15 9 23 5
47 -24 83 -100 321 -555 369 -704 35 -107 57 -233 66 -376 4 -52 15 -131 25
-175 37 -164 36 -234 -11 -469 -20 -97 -21 -115 -9 -172 15 -80 7 -141 -27
-191 -15 -21 -39 -56 -54 -78 -38 -56 -102 -205 -155 -359 -29 -83 -59 -151
-88 -195 -78 -116 -219 -245 -406 -371 -47 -31 -100 -71 -118 -89 -34 -31 -34
-31 15 -25 105 12 220 36 262 55 107 47 282 195 399 336 45 55 107 121 138
148 70 60 116 131 150 232 25 74 27 92 34 353 5 151 16 349 25 440 31 297 -10
707 -96 975 -32 103 -213 473 -280 575 -61 93 -144 171 -214 205 -46 21 -96
63 -216 180 -87 84 -205 190 -264 235 -59 46 -109 90 -113 98 -8 21 33 52 69
52 45 0 134 -38 212 -90 149 -101 501 -425 587 -541 54 -72 271 -487 326 -623
59 -147 96 -336 115 -601 14 -200 8 -337 -37 -775 -23 -226 -33 -366 -29 -406
8 -73 -13 -135 -79 -239 -25 -38 -78 -122 -117 -185 -112 -179 -262 -312 -519
-460 -58 -33 -118 -72 -135 -86 -30 -25 -30 -25 5 -20 19 3 76 10 125 16 103
13 202 36 260 60 22 10 105 61 185 115 80 54 181 116 225 138 115 57 191 114
285 214 185 198 329 468 405 759 62 238 84 436 89 779 2 132 6 248 11 258 12
28 41 20 58 -16 27 -56 39 -165 39 -357 0 -216 -12 -339 -53 -543 -88 -445
-295 -830 -573 -1068 -104 -90 -431 -309 -561 -376 -109 -57 -197 -113 -177
-113 7 0 67 9 135 20 242 39 418 116 597 263 363 297 571 637 695 1138 58 238
70 335 70 614 0 290 -6 331 -76 521 -86 236 -141 614 -88 614 25 0 61 -60 93
-158 43 -132 131 -456 156 -578 93 -447 15 -1024 -206 -1528 -127 -292 -290
-497 -599 -756 -77 -65 -160 -139 -184 -164 -44 -45 -44 -45 105 31 328 167
586 379 700 572 68 116 209 486 267 701 109 403 126 808 51 1217 -31 172 -85
380 -124 480 -17 44 -66 141 -110 214 -44 74 -97 177 -117 229 -20 52 -52 136
-71 185 -103 267 -392 762 -480 823 -46 32 -61 33 -78 8z m-400 -3132 c21 -56
-19 -229 -81 -347 -42 -80 -68 -100 -84 -65 -11 26 -5 50 76 273 55 153 73
181 89 139z"/>
<path d="M3146 5821 c-16 -11 -64 -53 -106 -95 -77 -76 -77 -76 -41 -97 20
-12 70 -30 111 -40 176 -42 335 -134 463 -269 125 -130 205 -265 289 -489 60
-159 85 -201 119 -201 44 0 49 66 19 225 -71 366 -266 673 -549 863 -79 52
-227 122 -261 122 -8 0 -28 -9 -44 -19z"/>
<path d="M5074 5626 c-7 -18 21 -78 46 -101 42 -38 68 15 33 65 -33 48 -68 64
-79 36z"/>
<path d="M6595 5595 c-3 -8 -7 -22 -10 -30 -8 -27 24 -257 65 -471 85 -436
105 -630 97 -944 -6 -221 -26 -395 -66 -564 -38 -159 -102 -370 -135 -448 -19
-43 -32 -78 -30 -78 7 0 112 216 150 307 154 369 237 801 221 1143 -9 190 -65
499 -149 825 -47 184 -73 241 -121 266 -13 7 -19 6 -22 -6z"/>
<path d="M3050 5320 c-21 -23 -52 -67 -69 -100 -18 -33 -43 -73 -57 -90 -26
-30 -26 -30 8 -30 242 -3 267 -9 385 -82 159 -100 307 -334 306 -483 -1 -72
-58 -274 -104 -368 -62 -128 -166 -233 -294 -296 -33 -17 -73 -39 -89 -50 -29
-19 -29 -19 39 -40 37 -12 84 -21 104 -21 85 0 273 172 350 319 40 78 73 184
86 282 3 26 12 54 19 64 13 18 15 17 39 -7 68 -68 37 -265 -68 -434 -89 -142
-205 -248 -363 -331 -48 -26 -99 -56 -114 -69 -27 -22 -27 -22 15 -30 23 -4
76 -8 117 -8 75 -1 75 -1 160 56 96 64 226 192 289 287 181 268 199 490 55
679 -20 25 -72 118 -116 206 -119 238 -202 353 -321 442 -99 74 -255 144 -320
144 -11 0 -37 -18 -57 -40z"/>
<path d="M3058 4894 c-15 -8 -52 -47 -82 -87 -55 -72 -55 -72 6 -85 66 -13 98
-34 98 -63 0 -10 -9 -23 -19 -29 -48 -25 -104 -197 -87 -264 9 -38 63 -94 97
-101 59 -13 106 50 63 86 -14 11 -21 10 -46 -4 -37 -21 -62 -22 -82 -1 -39 39
-4 109 88 176 51 37 86 36 130 -2 94 -83 85 -263 -18 -359 -14 -13 -60 -41
-102 -61 -76 -38 -76 -38 -17 -65 32 -16 76 -30 98 -32 34 -4 47 0 87 31 116
89 198 264 198 424 0 153 -112 329 -257 405 -85 44 -120 51 -155 31z"/>
<path d="M4757 4397 c-8 -12 -31 -67 -52 -122 -57 -154 -102 -245 -219 -440
-274 -456 -386 -591 -665 -804 -126 -96 -133 -103 -149 -162 -10 -37 -10 -37
17 -23 14 8 32 14 39 14 7 0 45 7 83 16 63 14 81 25 169 95 197 158 306 293
516 638 66 109 148 236 182 282 72 99 106 172 132 283 22 91 26 216 8 234 -19
19 -44 14 -61 -11z"/>
<path d="M4058 4073 c-14 -16 -43 -59 -64 -98 -70 -129 -137 -219 -233 -316
-106 -106 -211 -181 -323 -227 -40 -17 -89 -39 -109 -50 -36 -18 -36 -18 20
-31 174 -40 187 -38 321 51 169 111 337 303 433 494 51 101 55 133 22 172 -15
18 -30 32 -34 32 -4 0 -19 -12 -33 -27z"/>
<path d="M4741 3808 c-34 -35 -110 -157 -234 -378 -41 -74 -104 -175 -139
-225 -104 -148 -276 -309 -458 -428 -30 -20 -66 -46 -80 -57 -25 -21 -25 -21
85 -17 161 5 220 38 413 230 118 116 160 180 277 419 52 106 122 244 155 306
45 84 60 122 58 145 -4 45 -36 47 -77 5z"/>
</g>
</svg>
