<?xml version="1.0" standalone="no"?>
<!DOCTYPE svg PUBLIC "-//W3C//DTD SVG 20010904//EN"
 "http://www.w3.org/TR/2001/REC-SVG-20010904/DTD/svg10.dtd">
<svg version="1.0" xmlns="http://www.w3.org/2000/svg"
 width="1000.000000pt" height="1000.000000pt" viewBox="0 0 1000.000000 1000.000000"
 preserveAspectRatio="xMidYMid meet">
<metadata>
  <rdf:RDF
    xmlns:rdf = "http://www.w3.org/1999/02/22-rdf-syntax-ns#"
    xmlns:rdfs = "http://www.w3.org/2000/01/rdf-schema#"
    xmlns:dc = "http://purl.org/dc/elements/1.1/"
    xmlns:cc = "http://creativecommons.org/ns#">
    <cc:license rdf:resource="http://creativecommons.org/publicdomain/zero/1.0/deed.en"/>
    <cc:permits rdf:resource="http://creativecommons.org/ns#Reproduction"/>
    <rdf:Description about="https://nft.mir.one/fingerprints"
      dc:title="TON Fingerprints"
      dc:description="This is a unique digital fingerprint created based on the algorithm for generating basic rings using a noise texture. Like human fingerprints, you can now use it for the Web3 and Metaverse era as digital biometric information."
      dc:publisher="https://nft.mir.one"
      dc:date="2022-02-22"
      dc:format="image/svg+xml"
      dc:language="en" >
      <dc:creator>
      <rdf:Bag>
        <rdf:li>EQBondcvD2_aOFADXSWJHs4ZazQDuEl9_wNvGGPxI8hGuOFU</rdf:li>
        <rdf:li>ipfs://bafkreihj7iub3fhmhq6jn62noukt5wxn3gv6bvcg7wmt6ywvlurefezckq</rdf:li>
      </rdf:Bag>
      </dc:creator>
    </rdf:Description>
  </rdf:RDF>
</metadata>
<rect width="100%" height="100%" fill="#1b1f23"/>
<g transform="translate(0.000000,1000.000000) scale(0.100000,-0.100000)"
fill="#ffffff" stroke="none">
<path d="M5220 7689 c-190 -3 -388 -12 -440 -19 -290 -36 -539 -128 -653 -242
-34 -33 -102 -87 -151 -121 -108 -74 -196 -154 -238 -216 -18 -25 -86 -100
-153 -166 -128 -127 -217 -235 -308 -375 -58 -91 -132 -220 -124 -220 2 0 21
28 42 62 43 69 219 255 310 328 126 101 210 138 366 165 52 9 197 41 323 71
460 110 673 145 996 165 418 24 783 -31 1134 -173 90 -36 227 -80 233 -75 4 4
-209 163 -270 201 -97 62 -257 135 -342 156 -250 61 -781 52 -1220 -21 -229
-38 -581 -109 -712 -145 -72 -19 -146 -34 -165 -32 -75 7 -28 71 96 132 92 44
130 54 251 67 55 5 191 28 302 49 110 22 272 49 360 60 381 48 847 64 1047 36
55 -8 133 -17 171 -20 70 -5 70 -5 7 24 -115 54 -247 99 -352 120 -136 28
-288 28 -615 0 -318 -27 -472 -50 -696 -106 -178 -44 -243 -53 -253 -35 -17
26 31 62 134 104 185 73 375 109 745 137 339 26 403 36 489 70 39 16 62 28 51
28 -11 -1 -175 -5 -365 -9z"/>
<path d="M5130 7004 c-108 -8 -257 -25 -370 -44 -171 -29 -250 -49 -848 -216
-180 -49 -285 -107 -394 -214 -95 -94 -87 -79 -238 -420 -45 -102 -106 -234
-136 -295 -76 -156 -135 -386 -139 -541 -2 -61 -11 -148 -20 -192 -17 -78 -17
-83 0 -109 14 -20 20 -60 27 -167 11 -182 31 -317 74 -507 53 -233 55 -246 43
-275 -12 -33 19 -103 59 -134 22 -18 27 -19 40 -6 19 19 3 170 -43 401 -56
278 -66 351 -72 546 -7 212 -5 223 67 344 26 44 77 139 114 211 70 137 122
202 152 190 24 -9 14 -45 -50 -184 -164 -355 -188 -479 -151 -797 15 -129 102
-578 131 -675 28 -95 103 -154 233 -185 58 -14 93 -31 165 -80 132 -90 210
-127 271 -129 48 -1 50 0 53 27 4 33 -30 94 -84 152 -119 127 -153 184 -234
395 -103 271 -144 470 -144 715 -1 139 4 204 28 359 32 207 30 258 -10 264
-30 4 -48 -28 -84 -150 -54 -182 -74 -314 -74 -498 0 -243 46 -487 144 -759
43 -119 47 -166 18 -185 -24 -15 -68 29 -111 113 -108 208 -189 668 -166 937
16 179 96 444 176 576 19 32 52 100 73 153 50 122 133 249 223 341 110 111
177 115 120 7 -16 -32 -57 -110 -90 -173 -73 -141 -93 -217 -93 -350 0 -55 -9
-185 -21 -288 -46 -411 -4 -721 140 -1024 60 -125 131 -226 230 -327 68 -69
103 -96 166 -127 79 -39 79 -39 295 -38 297 1 431 26 728 136 247 92 320 150
404 325 66 135 63 263 -5 263 -31 0 -54 -26 -123 -144 -126 -212 -309 -324
-614 -377 -370 -64 -590 -18 -770 160 -162 160 -272 388 -315 656 -36 218 -4
604 71 861 14 49 38 139 54 200 37 144 103 314 144 367 45 59 141 134 202 157
29 10 87 22 131 25 43 4 155 17 248 31 225 31 383 39 529 25 376 -36 688 -173
921 -406 50 -49 144 -161 209 -248 65 -87 146 -190 180 -230 106 -121 151
-222 181 -411 19 -114 19 -211 0 -446 -25 -317 -50 -455 -116 -647 -78 -226
-178 -391 -334 -551 -102 -107 -333 -314 -434 -390 -79 -60 -290 -163 -412
-201 -57 -18 -171 -54 -254 -82 -208 -68 -340 -96 -524 -110 -173 -13 -409 -2
-590 27 -53 8 -137 16 -186 17 -91 3 -91 3 52 -55 277 -111 428 -146 673 -155
150 -5 178 -3 305 20 169 31 252 58 410 130 120 55 198 84 417 152 123 38 221
92 250 136 38 59 128 145 234 224 64 48 141 112 172 143 271 272 463 776 512
1347 21 252 10 459 -40 720 -16 83 -36 196 -44 252 -24 157 -58 237 -191 443
-34 52 -84 133 -112 180 -101 167 -269 293 -539 404 -277 113 -617 166 -942
145 -331 -20 -518 -72 -715 -197 -58 -37 -133 -84 -166 -104 -38 -23 -73 -55
-93 -85 -61 -88 -115 -137 -205 -187 -159 -89 -276 -188 -391 -331 -31 -38
-99 -113 -152 -165 -94 -93 -98 -99 -178 -261 -45 -92 -89 -170 -99 -173 -43
-17 -39 46 14 199 47 135 94 220 215 388 161 221 188 246 389 361 228 130 287
171 295 201 24 94 -121 63 -345 -74 -110 -67 -155 -68 -130 -4 23 61 144 159
263 213 33 15 123 42 199 59 76 17 186 49 245 72 445 172 683 217 1102 206
478 -12 794 -113 1243 -400 59 -37 106 -59 140 -66 123 -23 127 -34 -58 148
-93 92 -195 183 -226 204 -149 97 -495 207 -764 242 -117 16 -426 27 -535 19z
m271 -414 c276 -28 569 -127 775 -261 182 -119 418 -409 526 -646 33 -74 38
-143 10 -143 -27 0 -69 50 -170 200 -106 159 -227 305 -308 375 -278 238 -650
364 -1074 365 -174 0 -275 -11 -480 -51 -118 -23 -160 -28 -178 -20 -19 9 -21
14 -12 30 18 34 61 60 140 85 208 66 512 92 771 66z"/>
<path d="M6670 6256 c0 -26 23 -68 103 -188 109 -164 202 -335 249 -458 35
-93 27 -42 -18 108 -47 154 -130 342 -197 445 -65 101 -90 127 -117 127 -16 0
-20 -7 -20 -34z"/>
<path d="M4915 6209 c-186 -19 -400 -70 -491 -117 -161 -82 -327 -326 -260
-381 20 -17 44 -3 142 84 181 161 317 223 576 261 160 23 403 15 549 -20 343
-80 641 -289 769 -539 24 -45 76 -142 117 -214 92 -162 147 -288 175 -399 19
-75 20 -87 6 -100 -11 -11 -21 -12 -40 -5 -34 13 -63 52 -134 181 -131 238
-201 322 -299 355 -33 11 -114 56 -185 103 -226 151 -346 207 -518 242 -279
56 -551 -1 -765 -163 -182 -137 -278 -338 -278 -582 -1 -134 18 -222 71 -330
53 -108 115 -184 201 -244 82 -58 212 -112 284 -118 76 -7 245 51 371 127 54
33 107 60 117 60 47 0 27 -69 -40 -135 -56 -55 -153 -106 -268 -140 -49 -15
-105 -36 -123 -47 -38 -23 -35 -24 -204 35 -76 26 -153 61 -193 87 -146 95
-261 263 -312 458 -22 83 -26 118 -26 242 0 160 14 242 62 365 67 174 224 326
442 430 162 76 233 90 454 89 173 0 199 -2 290 -27 124 -33 332 -135 436 -214
42 -32 105 -80 139 -106 45 -34 71 -47 89 -45 94 11 -45 201 -239 330 -213
140 -409 204 -665 215 -284 12 -501 -44 -704 -182 -200 -136 -275 -193 -302
-230 -41 -54 -87 -172 -116 -294 -33 -143 -43 -412 -20 -546 63 -361 277 -641
543 -709 78 -20 176 -20 240 -1 36 11 72 13 134 9 183 -14 387 80 497 229 66
89 160 285 168 349 16 129 -54 306 -165 419 -94 96 -194 144 -300 144 -63 0
-86 -6 -140 -31 -115 -54 -170 -117 -170 -192 0 -80 79 -127 102 -61 22 65 99
10 83 -61 -9 -39 -50 -78 -91 -86 -61 -11 -105 4 -155 54 -57 57 -76 126 -59
208 39 183 228 305 450 291 150 -10 279 -70 408 -192 140 -132 213 -263 302
-545 45 -144 52 -176 53 -250 1 -164 -65 -320 -211 -500 -25 -30 -60 -86 -78
-125 -45 -97 -81 -144 -155 -199 -120 -90 -254 -147 -446 -188 -144 -30 -421
-33 -494 -5 -54 20 -92 58 -87 83 3 17 18 19 208 20 215 1 324 16 488 65 182
56 387 189 380 248 -5 46 -57 40 -216 -22 -218 -87 -343 -116 -599 -142 -163
-17 -216 -31 -276 -72 -34 -24 -43 -25 -105 -20 -38 3 -96 13 -129 21 -57 15
-64 15 -123 -4 -121 -39 -213 -20 -381 76 -106 60 -175 84 -244 84 -24 0 -72
14 -120 36 -49 22 -100 37 -132 39 -53 3 -53 3 -20 -28 18 -18 79 -89 134
-158 134 -167 183 -199 353 -232 100 -19 321 -62 505 -98 83 -16 202 -41 265
-55 94 -21 143 -25 265 -26 131 0 177 4 355 36 173 31 218 43 287 76 201 95
360 234 535 468 189 251 268 474 255 720 -7 134 -39 248 -112 398 -141 291
-407 526 -695 616 -62 19 -97 23 -205 23 -111 0 -141 -4 -205 -25 -144 -47
-272 -156 -326 -278 -116 -257 27 -546 277 -560 207 -12 360 146 294 304 -8
20 -33 59 -55 87 -22 27 -39 55 -37 61 2 6 20 12 41 14 67 6 159 -65 207 -161
27 -51 36 -159 20 -210 -17 -51 -83 -105 -193 -160 -155 -77 -264 -93 -379
-57 -207 64 -339 254 -339 490 0 273 163 488 446 587 73 25 90 27 239 28 182
0 253 -15 402 -85 142 -67 356 -215 462 -321 94 -95 220 -294 291 -461 119
-279 55 -654 -166 -980 -157 -232 -331 -395 -616 -581 -125 -81 -160 -120
-156 -172 3 -26 8 -30 34 -33 64 -6 295 113 460 236 108 81 371 341 441 436
211 287 303 584 303 982 0 151 1 158 30 224 54 123 37 282 -49 465 -39 82
-216 353 -301 460 -66 83 -202 212 -280 267 -287 200 -662 288 -1055 247z
m-1354 -2770 c28 -28 24 -49 -10 -49 -53 0 -119 78 -78 93 15 5 62 -18 88 -44z"/>
<path d="M3095 6154 c-4 -32 -20 -104 -36 -161 -16 -57 -28 -122 -28 -146 1
-42 1 -42 11 8 5 28 20 84 33 126 22 71 45 229 33 229 -3 0 -9 -25 -13 -56z"/>
<path d="M2928 4963 c7 -3 16 -2 19 1 4 3 -2 6 -13 5 -11 0 -14 -3 -6 -6z"/>
<path d="M3039 4037 c14 -15 34 -27 45 -26 19 0 18 1 -4 10 -13 6 -34 18 -45
27 -13 11 -12 8 4 -11z"/>
<path d="M3552 3038 c126 -87 254 -159 348 -197 214 -84 760 -117 1022 -61
194 41 295 94 319 167 11 33 10 38 -10 54 -19 15 -27 16 -73 4 -29 -7 -100
-24 -158 -39 -192 -47 -436 -53 -680 -15 -180 28 -481 84 -610 115 -80 19
-170 36 -201 37 -56 3 -56 3 43 -65z"/>
<path d="M6450 3052 c-101 -27 -301 -155 -313 -202 -4 -16 0 -20 20 -20 32 0
102 43 209 126 45 35 101 75 125 89 51 29 47 30 -41 7z"/>
<path d="M6075 2649 c-33 -4 -93 -18 -134 -30 -56 -16 -87 -20 -131 -15 -73 8
-171 -11 -276 -55 -60 -25 -92 -47 -136 -91 -48 -47 -69 -61 -125 -78 -83 -26
-296 -65 -423 -79 -143 -15 -263 -32 -285 -41 -11 -4 47 -10 135 -14 170 -8
345 3 536 33 65 11 157 22 204 26 47 3 112 13 145 21 92 23 218 88 257 132 43
50 78 74 212 144 61 31 104 57 96 57 -8 -1 -42 -5 -75 -10z m-270 -139 c42
-46 -12 -99 -147 -144 -115 -39 -228 -31 -228 15 0 25 29 42 145 85 196 72
203 73 230 44z"/>
</g>
</svg>
