<?xml version="1.0" standalone="no"?>
<!DOCTYPE svg PUBLIC "-//W3C//DTD SVG 20010904//EN"
 "http://www.w3.org/TR/2001/REC-SVG-20010904/DTD/svg10.dtd">
<svg version="1.0" xmlns="http://www.w3.org/2000/svg"
 width="1000.000000pt" height="1000.000000pt" viewBox="0 0 1000.000000 1000.000000"
 preserveAspectRatio="xMidYMid meet">
<metadata>
  <rdf:RDF
    xmlns:rdf = "http://www.w3.org/1999/02/22-rdf-syntax-ns#"
    xmlns:rdfs = "http://www.w3.org/2000/01/rdf-schema#"
    xmlns:dc = "http://purl.org/dc/elements/1.1/"
    xmlns:cc = "http://creativecommons.org/ns#">
    <cc:license rdf:resource="http://creativecommons.org/publicdomain/zero/1.0/deed.en"/>
    <cc:permits rdf:resource="http://creativecommons.org/ns#Reproduction"/>
    <rdf:Description about="https://nft.mir.one/fingerprints"
      dc:title="TON Fingerprints"
      dc:description="This is a unique digital fingerprint created based on the algorithm for generating basic rings using a noise texture. Like human fingerprints, you can now use it for the Web3 and Metaverse era as digital biometric information."
      dc:publisher="https://nft.mir.one"
      dc:date="2022-02-22"
      dc:format="image/svg+xml"
      dc:language="en" >
      <dc:creator>
      <rdf:Bag>
        <rdf:li>EQBondcvD2_aOFADXSWJHs4ZazQDuEl9_wNvGGPxI8hGuOFU</rdf:li>
        <rdf:li>ipfs://bafkreihj7iub3fhmhq6jn62noukt5wxn3gv6bvcg7wmt6ywvlurefezckq</rdf:li>
      </rdf:Bag>
      </dc:creator>
    </rdf:Description>
  </rdf:RDF>
</metadata>
<rect width="100%" height="100%" fill="#1b1f23"/>
<g transform="translate(0.000000,1000.000000) scale(0.100000,-0.100000)"
fill="#ffffff" stroke="none">
<path d="M5240 7749 c160 -78 386 -172 570 -238 220 -80 327 -146 365 -227 14
-29 15 -42 6 -61 -15 -32 -20 -30 -221 72 -356 180 -740 319 -1046 379 -104
20 -362 47 -434 45 -38 -1 100 -55 360 -142 157 -52 461 -160 675 -240 215
-79 415 -153 445 -163 74 -24 161 -25 188 -1 22 20 24 20 197 -65 37 -18 33
-13 -40 59 -44 43 -106 109 -138 146 -61 69 -106 105 -206 162 -78 44 -259
126 -406 185 -109 43 -421 151 -434 149 -3 0 50 -27 119 -60z"/>
<path d="M4131 7516 c-84 -11 -84 -11 -37 -33 25 -13 101 -36 168 -53 262 -66
593 -167 1093 -335 286 -96 600 -199 698 -230 296 -92 399 -141 546 -258 35
-28 80 -60 100 -70 20 -11 47 -29 60 -41 71 -62 -161 226 -261 326 -103 103
-230 168 -398 203 -168 35 -247 60 -635 198 -411 147 -793 273 -885 293 -77
16 -325 17 -449 0z"/>
<path d="M3960 7295 c-41 -8 -100 -21 -130 -29 -30 -9 -68 -16 -84 -16 -64 0
68 -49 229 -85 748 -167 1734 -472 2100 -650 314 -152 553 -361 798 -697 48
-66 107 -143 131 -169 44 -49 44 -49 -20 101 -112 266 -240 488 -349 608 -71
79 -231 193 -363 261 -261 132 -1247 462 -1892 632 -243 64 -283 68 -420 44z"/>
<path d="M3715 7020 c-38 -10 -97 -31 -130 -46 -33 -14 -71 -31 -85 -36 -25
-10 -25 -10 11 -28 20 -10 94 -28 165 -40 178 -29 413 -80 714 -156 140 -35
354 -87 475 -115 288 -67 400 -99 695 -204 389 -137 562 -234 771 -433 266
-253 502 -615 659 -1012 32 -81 90 -186 90 -163 0 35 -64 355 -89 443 -70 248
-119 350 -258 535 -224 298 -497 528 -779 656 -175 79 -525 203 -799 284 -432
126 -1277 336 -1347 334 -13 0 -54 -9 -93 -19z"/>
<path d="M3524 6706 c-43 -14 -109 -48 -207 -109 -58 -35 -58 -35 -25 -46 18
-5 92 -15 164 -21 180 -14 242 -26 619 -120 463 -115 565 -154 642 -246 21
-25 65 -78 98 -117 33 -40 87 -106 119 -147 32 -41 120 -145 195 -230 234
-265 349 -414 540 -697 56 -84 119 -166 140 -183 52 -40 108 -63 139 -55 47
12 26 64 -107 263 -224 336 -355 500 -625 780 -150 157 -182 202 -165 234 9
17 12 17 38 3 94 -48 401 -338 538 -507 255 -314 406 -558 439 -710 11 -49 40
-118 90 -213 166 -318 228 -576 229 -955 0 -175 -2 -202 -22 -266 -22 -69 -46
-104 -61 -90 -3 4 -7 85 -8 179 -1 341 -72 719 -175 932 -73 154 -157 230
-262 242 -61 7 -76 -15 -107 -162 -11 -52 -6 -75 45 -230 70 -209 79 -274 81
-620 2 -328 2 -334 68 -503 63 -163 67 -235 28 -432 -9 -47 -16 -107 -14 -133
3 -48 3 -48 26 -5 37 69 224 329 275 381 25 27 73 68 107 92 78 56 154 139
204 224 158 265 237 666 186 946 -53 297 -150 576 -306 885 -169 332 -448 681
-667 834 -122 85 -173 152 -128 170 38 14 194 -74 329 -185 225 -186 433 -459
599 -787 164 -322 257 -606 307 -932 11 -69 24 -141 30 -160 5 -19 10 -48 10
-64 0 -16 2 -27 4 -25 2 2 9 93 15 202 9 144 9 237 1 345 -19 263 -52 375
-196 667 -139 285 -293 504 -494 705 -212 212 -372 313 -580 365 -58 15 -159
48 -225 75 -240 96 -380 133 -619 165 -65 9 -196 36 -290 61 -403 105 -795
193 -931 208 -30 3 -67 0 -91 -8z m1499 -457 c250 -55 403 -133 485 -247 45
-62 82 -140 82 -174 0 -23 -4 -28 -25 -28 -19 0 -50 24 -118 93 -146 146 -252
206 -367 207 -63 0 -156 42 -219 97 -36 33 -36 33 -12 53 29 25 58 25 174 -1z
m787 -540 c320 -374 478 -629 627 -1009 148 -376 197 -605 197 -915 -1 -193
-17 -305 -64 -428 -50 -131 -165 -252 -234 -245 -46 4 -46 37 0 79 94 86 122
131 156 257 19 67 22 104 22 287 0 349 -50 566 -226 974 -159 369 -243 511
-488 826 -155 199 -169 224 -146 272 9 18 22 33 30 33 8 0 64 -59 126 -131z
m125 -1267 c45 -61 108 -214 140 -338 14 -55 36 -180 50 -279 17 -126 34 -207
56 -269 27 -78 32 -107 36 -226 5 -119 4 -138 -11 -153 -20 -20 -51 -15 -111
17 -89 47 -128 210 -90 381 14 61 16 101 11 180 -14 222 -54 395 -140 605 -40
97 -52 138 -44 147 16 20 62 -10 103 -65z"/>
<path d="M6078 3523 c-16 -20 -16 -131 1 -190 16 -57 55 -103 72 -85 10 10 11
33 1 115 -16 150 -40 201 -74 160z"/>
<path d="M3296 6345 c-36 -19 -87 -50 -114 -70 -27 -19 -56 -35 -63 -35 -8 -1
4 -7 26 -15 22 -8 99 -19 170 -25 172 -15 446 -57 504 -78 77 -29 62 -79 -32
-107 -69 -21 -116 -19 -313 10 -93 14 -185 25 -205 25 -41 0 -106 -32 -183
-90 -29 -22 -59 -40 -67 -41 -43 -1 102 -38 190 -48 137 -16 314 -61 395 -101
84 -41 342 -264 454 -390 108 -122 304 -382 403 -533 140 -213 300 -554 348
-741 26 -99 27 -166 2 -214 -26 -53 -28 -63 -51 -302 -11 -118 -25 -260 -31
-315 -32 -295 -149 -557 -343 -764 -45 -47 -91 -100 -102 -116 -22 -31 -22
-31 40 -18 130 29 226 65 270 104 54 47 138 173 203 304 93 184 133 322 158
545 19 162 17 157 63 249 36 72 37 77 36 180 -1 89 -7 131 -41 262 -36 138
-51 177 -133 340 -216 429 -297 567 -483 821 -66 90 -142 197 -170 238 -79
118 -141 184 -268 286 -113 91 -141 126 -124 153 12 21 105 12 159 -15 65 -33
185 -122 259 -194 47 -47 57 -62 57 -90 0 -55 41 -130 149 -273 183 -245 233
-327 420 -688 118 -227 149 -271 179 -253 45 29 17 193 -51 297 -22 34 -78
137 -124 229 -120 241 -235 407 -421 606 -48 52 -87 99 -87 105 0 21 62 19
107 -4 56 -28 196 -169 285 -289 120 -160 181 -273 233 -435 35 -109 56 -145
85 -145 32 0 38 35 33 182 -4 106 -6 117 -40 183 -135 262 -378 535 -592 665
-328 199 -370 231 -364 279 3 24 7 26 45 25 76 -1 262 -93 415 -206 105 -76
318 -292 424 -428 45 -58 121 -163 170 -235 48 -71 110 -156 136 -188 138
-167 178 -377 129 -682 -27 -162 -30 -202 -41 -480 -14 -334 -42 -495 -88
-495 -33 0 -45 49 -38 153 3 50 10 232 15 402 6 171 17 364 26 430 37 294 1
566 -78 591 -32 10 -41 -12 -43 -104 -1 -48 -6 -161 -11 -252 -8 -135 -13
-174 -31 -214 -26 -58 -28 -120 -7 -321 19 -187 18 -284 -5 -445 -11 -74 -20
-187 -20 -250 -1 -189 -37 -320 -155 -557 -73 -148 -158 -277 -254 -386 -28
-32 -58 -73 -67 -90 -9 -18 -24 -41 -33 -51 -16 -19 -15 -19 9 -3 14 9 56 28
93 42 91 34 204 91 247 125 20 16 63 74 97 131 63 107 237 445 311 604 23 50
58 119 77 155 58 106 74 207 85 550 11 311 19 371 61 425 18 22 24 48 31 134
4 58 12 138 18 177 11 80 0 136 -43 235 -78 175 -342 543 -593 825 -328 370
-434 458 -631 526 -71 25 -110 31 -217 37 -131 7 -131 7 -241 59 -124 58 -216
84 -376 107 -153 21 -168 20 -243 -20z m1628 -2489 c17 -22 21 -46 24 -137 4
-112 -1 -135 -31 -124 -24 10 -35 54 -43 164 -9 136 3 160 50 97z"/>
<path d="M3119 5712 c-41 -21 -158 -104 -158 -112 -2 -11 64 -29 164 -45 283
-47 527 -174 736 -384 95 -96 312 -354 402 -479 91 -126 145 -228 176 -332 16
-52 48 -156 70 -231 49 -160 67 -252 76 -374 9 -128 11 -137 38 -133 14 2 29
17 40 39 22 45 41 231 32 319 -14 141 -87 363 -182 555 -112 227 -361 562
-578 781 -215 216 -381 320 -607 378 -146 37 -168 39 -209 18z"/>
<path d="M3035 5381 c-27 -16 -61 -41 -74 -55 -14 -14 -32 -26 -40 -27 -35 -1
70 -32 169 -49 138 -25 272 -70 393 -133 153 -79 259 -188 239 -244 -7 -21
-29 -15 -75 20 -97 74 -276 154 -445 198 -114 29 -114 29 -155 10 -23 -10 -64
-37 -90 -60 -48 -40 -48 -40 -15 -54 19 -8 60 -17 93 -21 97 -11 254 -52 411
-106 149 -51 196 -59 249 -47 40 10 80 -17 260 -175 89 -79 173 -165 230 -235
50 -61 101 -117 114 -124 20 -12 25 -11 37 5 43 59 -59 226 -312 512 -72 82
-154 176 -181 209 -150 181 -363 316 -603 380 -120 32 -144 31 -205 -4z"/>
<path d="M3046 4815 c-16 -8 -49 -33 -72 -55 -24 -22 -49 -40 -56 -41 -30 -1
81 -28 160 -39 205 -27 435 -98 598 -186 115 -61 140 -66 154 -28 18 47 11 73
-30 114 -52 52 -126 88 -296 144 -277 90 -411 117 -458 91z"/>
<path d="M3047 4519 c-26 -17 -47 -35 -47 -40 0 -5 -15 -18 -32 -29 -25 -15
-28 -20 -14 -20 11 0 33 -4 50 -9 17 -6 81 -17 141 -26 194 -29 404 -110 565
-218 93 -63 254 -218 326 -314 132 -175 263 -419 290 -540 30 -138 3 -316 -70
-461 -59 -116 -140 -192 -187 -177 -27 9 -24 20 40 166 67 152 84 234 78 369
-3 77 -12 126 -31 183 -81 240 -261 489 -465 643 -139 104 -358 200 -502 220
-54 7 -70 0 -138 -61 -50 -43 -50 -43 -3 -58 26 -8 72 -18 102 -21 75 -10 251
-69 330 -113 351 -192 584 -583 540 -910 -6 -47 -29 -144 -51 -216 -22 -73
-44 -162 -48 -199 -5 -37 -12 -71 -15 -76 -7 -12 111 -25 229 -26 67 0 98 4
122 17 45 24 124 125 177 228 135 258 150 620 29 691 -53 31 -118 111 -202
251 -46 76 -109 171 -142 211 -75 94 -261 272 -333 320 -133 88 -373 186 -554
226 -116 26 -131 25 -185 -11z"/>
<path d="M3890 4474 c-23 -60 -20 -65 180 -269 172 -175 195 -206 294 -402 71
-140 111 -193 145 -193 30 0 28 35 -14 176 -39 132 -64 200 -108 289 -43 88
-72 122 -123 144 -30 14 -92 65 -179 151 -144 140 -175 157 -195 104z"/>
<path d="M5643 4238 c-4 -7 -8 -166 -8 -353 -1 -362 -8 -451 -61 -730 -25
-134 -49 -215 -64 -215 -5 0 -33 -23 -64 -51 -47 -43 -68 -75 -137 -212 -45
-89 -114 -216 -154 -282 -39 -66 -76 -133 -82 -150 -6 -16 -14 -39 -19 -50 -7
-19 -6 -19 17 1 13 12 51 38 84 59 92 57 181 133 227 192 41 54 111 233 138
356 15 67 30 83 59 68 59 -32 55 -194 -11 -391 -24 -74 -49 -153 -54 -175 -10
-40 -10 -40 68 41 96 100 136 152 185 240 38 69 38 69 38 219 0 101 -7 189
-20 270 -17 104 -19 161 -17 435 2 318 -7 490 -34 610 -23 102 -65 157 -91
118z"/>
<path d="M3170 3963 c-33 -22 -80 -65 -80 -74 0 -3 46 -21 103 -39 168 -53
248 -100 358 -210 78 -78 102 -110 137 -180 66 -135 89 -275 61 -375 -14 -49
-70 -108 -94 -99 -15 6 -16 16 -10 68 4 34 8 90 8 126 2 123 -66 268 -178 381
-91 92 -155 118 -215 85 -14 -7 -37 -20 -52 -28 -27 -15 -27 -15 8 -31 44 -22
130 -85 174 -129 76 -76 132 -190 161 -328 14 -70 34 -109 67 -137 24 -20 25
-25 16 -66 -10 -44 -10 -44 58 -40 81 4 130 22 152 55 26 40 56 176 56 253 0
299 -239 623 -555 752 -89 36 -139 41 -175 16z"/>
</g>
</svg>
