<?xml version="1.0" standalone="no"?>
<!DOCTYPE svg PUBLIC "-//W3C//DTD SVG 20010904//EN"
 "http://www.w3.org/TR/2001/REC-SVG-20010904/DTD/svg10.dtd">
<svg version="1.0" xmlns="http://www.w3.org/2000/svg"
 width="1000.000000pt" height="1000.000000pt" viewBox="0 0 1000.000000 1000.000000"
 preserveAspectRatio="xMidYMid meet">
<metadata>
  <rdf:RDF
    xmlns:rdf = "http://www.w3.org/1999/02/22-rdf-syntax-ns#"
    xmlns:rdfs = "http://www.w3.org/2000/01/rdf-schema#"
    xmlns:dc = "http://purl.org/dc/elements/1.1/"
    xmlns:cc = "http://creativecommons.org/ns#">
    <cc:license rdf:resource="http://creativecommons.org/publicdomain/zero/1.0/deed.en"/>
    <cc:permits rdf:resource="http://creativecommons.org/ns#Reproduction"/>
    <rdf:Description about="https://nft.mir.one/fingerprints"
      dc:title="TON Fingerprints"
      dc:description="This is a unique digital fingerprint created based on the algorithm for generating basic rings using a noise texture. Like human fingerprints, you can now use it for the Web3 and Metaverse era as digital biometric information."
      dc:publisher="https://nft.mir.one"
      dc:date="2022-02-22"
      dc:format="image/svg+xml"
      dc:language="en" >
      <dc:creator>
      <rdf:Bag>
        <rdf:li>EQBondcvD2_aOFADXSWJHs4ZazQDuEl9_wNvGGPxI8hGuOFU</rdf:li>
        <rdf:li>ipfs://bafkreihj7iub3fhmhq6jn62noukt5wxn3gv6bvcg7wmt6ywvlurefezckq</rdf:li>
      </rdf:Bag>
      </dc:creator>
    </rdf:Description>
  </rdf:RDF>
</metadata>
<rect width="100%" height="100%" fill="#1b1f23"/>
<g transform="translate(0.000000,1000.000000) scale(0.100000,-0.100000)"
fill="#ffffff" stroke="none">
<path d="M4725 7774 c-44 -7 -161 -40 -260 -73 -99 -33 -189 -62 -200 -65 -34
-8 97 5 144 15 25 6 80 25 122 44 113 50 179 65 314 71 198 10 533 -39 791
-115 54 -16 108 -32 119 -36 67 -19 -62 32 -175 69 -142 47 -279 78 -420 96
-114 14 -337 11 -435 -6z"/>
<path d="M4731 7598 c-93 -13 -131 -31 -131 -63 0 -44 47 -56 267 -66 106 -4
234 -15 285 -24 397 -69 776 -233 1225 -533 65 -43 149 -93 186 -110 68 -31
68 -31 -69 101 -162 157 -270 245 -419 343 -293 193 -624 316 -950 354 -107
12 -304 11 -394 -2z"/>
<path d="M4140 7396 c-58 -12 -155 -36 -216 -51 -112 -29 -112 -29 -70 -48 22
-10 118 -32 211 -48 278 -48 471 -107 587 -180 93 -59 134 -76 233 -98 274
-60 654 -255 935 -479 304 -242 465 -471 839 -1190 72 -140 150 -282 172 -317
69 -109 170 -184 194 -144 4 5 0 18 -8 27 -7 9 -35 80 -61 157 -37 111 -86
215 -232 498 -316 611 -395 739 -563 908 -123 123 -216 197 -376 302 -259 169
-489 272 -779 348 -154 40 -209 64 -214 90 -4 20 39 39 86 39 61 0 210 -28
324 -60 390 -109 833 -367 1119 -650 101 -99 121 -125 150 -190 19 -41 54
-113 78 -160 24 -47 139 -274 256 -505 184 -363 285 -553 285 -534 0 28 -123
425 -177 574 -39 105 -83 228 -99 275 -17 49 -62 140 -106 215 -43 71 -78 140
-78 152 0 35 49 30 102 -10 24 -18 71 -51 105 -74 63 -41 63 -41 7 30 -69 89
-351 362 -459 443 -408 308 -823 514 -1195 592 -140 30 -187 34 -375 36 -166
2 -173 3 -283 39 -139 45 -230 48 -392 13z"/>
<path d="M3770 7091 c-36 -10 -104 -33 -152 -51 -87 -33 -87 -33 -52 -56 24
-16 87 -35 201 -60 181 -39 356 -89 473 -135 154 -62 277 -136 787 -476 165
-110 303 -225 444 -369 180 -186 293 -341 454 -624 49 -85 114 -195 145 -245
32 -49 71 -118 89 -153 108 -215 163 -571 141 -910 -17 -254 -34 -347 -74
-411 -48 -75 -67 -125 -127 -322 -75 -251 -147 -436 -249 -644 -43 -88 -89
-189 -103 -223 -25 -64 -25 -64 11 -21 20 24 64 73 96 109 251 278 361 501
416 840 32 200 44 226 82 183 26 -29 38 -92 38 -196 0 -109 -17 -207 -60 -342
-38 -120 -68 -225 -65 -225 2 0 30 46 63 103 127 218 197 384 209 497 4 47 0
71 -28 150 -34 95 -34 95 -31 415 2 191 -2 364 -8 430 -17 160 -55 356 -90
465 -78 238 -379 767 -586 1030 -93 118 -319 340 -439 431 -55 42 -202 144
-326 227 -186 124 -239 165 -304 234 -92 98 -141 135 -255 193 -112 56 -228
96 -403 140 -159 39 -202 41 -297 16z"/>
<path d="M4815 6850 c-14 -45 30 -84 245 -213 500 -300 755 -534 1015 -932
224 -343 425 -742 470 -937 29 -127 77 -476 82 -603 4 -93 1 -159 -10 -230
-33 -208 -30 -426 7 -463 23 -24 44 32 83 221 31 155 55 227 74 227 4 0 15 7
23 16 13 12 16 40 16 141 0 112 -5 147 -45 329 -46 208 -52 263 -35 309 15 39
41 28 69 -30 40 -84 98 -236 120 -316 12 -42 35 -101 51 -130 30 -52 30 -53
26 -19 -3 19 -8 87 -11 150 -8 146 -28 251 -60 317 -26 52 -55 73 -140 99 -27
8 -45 39 -182 307 -358 704 -547 987 -818 1229 -187 166 -391 304 -638 429
-230 117 -327 145 -342 99z"/>
<path d="M3540 6741 c-56 -22 -116 -59 -204 -128 -37 -29 -73 -53 -80 -53 -6
-1 5 -9 24 -20 29 -15 58 -19 175 -19 301 -2 530 -62 895 -236 107 -51 233
-105 280 -120 159 -52 257 -111 434 -263 268 -231 513 -589 580 -849 35 -135
60 -527 46 -723 -25 -343 -116 -646 -222 -735 -25 -22 -39 -26 -66 -21 -69 11
-77 36 -32 106 108 168 193 537 193 840 0 462 -121 761 -463 1149 -135 153
-353 325 -449 352 -41 12 -45 12 -62 -10 -14 -18 -16 -28 -8 -49 5 -15 95
-112 198 -217 104 -104 220 -229 259 -277 259 -321 383 -645 370 -966 -5 -122
-54 -354 -132 -634 -19 -68 -39 -155 -44 -194 -12 -88 -23 -109 -105 -204 -76
-88 -123 -123 -191 -139 -77 -19 -139 -55 -220 -131 -131 -121 -291 -211 -401
-226 -90 -13 -58 44 60 103 111 55 233 141 251 175 18 36 12 58 -16 58 -25 0
-262 -118 -391 -194 -108 -65 -193 -93 -398 -131 -141 -26 -241 -59 -211 -69
98 -31 287 -46 545 -42 277 4 287 5 425 77 87 45 151 92 279 204 96 83 133 99
139 58 11 -73 -192 -269 -370 -359 -101 -51 -207 -82 -335 -99 -166 -22 -305
-20 -371 5 -52 20 -115 24 -162 11 -21 -6 -18 -8 21 -14 94 -13 151 -63 118
-103 -9 -12 -5 -14 27 -14 22 0 103 -10 181 -22 173 -27 209 -22 434 52 202
66 270 112 476 318 123 124 171 181 230 272 102 155 152 220 172 220 28 0 41
-22 41 -70 0 -49 -16 -102 -74 -247 -19 -49 -42 -129 -50 -178 -8 -50 -22
-110 -31 -135 -36 -102 -122 -227 -277 -405 -101 -117 -188 -226 -188 -237 0
-11 146 69 252 139 238 156 368 398 559 1033 27 91 69 229 94 308 95 302 126
557 104 852 -8 96 -14 220 -14 275 0 88 3 104 23 132 12 17 22 38 22 46 0 53
-127 329 -222 481 -175 280 -439 549 -718 732 -129 84 -531 306 -660 364 -186
84 -366 139 -566 174 -110 20 -118 19 -174 -3z"/>
<path d="M3385 6314 c-11 -3 -30 -7 -42 -10 -30 -6 -138 -108 -228 -214 -72
-86 -72 -86 -16 -79 31 4 84 14 117 23 296 77 676 13 940 -159 130 -84 344
-299 536 -538 45 -56 114 -138 154 -183 39 -44 89 -105 112 -135 97 -129 174
-318 217 -537 14 -69 29 -130 34 -135 17 -17 44 -2 64 37 17 32 21 57 20 135
-4 325 -168 642 -542 1049 -198 215 -234 257 -286 337 -62 95 -95 127 -192
189 -132 85 -331 161 -508 196 -102 19 -338 34 -380 24z"/>
<path d="M3224 5851 c-66 -11 -123 -61 -211 -186 -70 -100 -69 -97 -36 -84 15
6 65 29 110 52 94 46 179 60 202 34 20 -25 -1 -51 -90 -114 -88 -61 -122 -101
-176 -208 -37 -71 -115 -276 -109 -283 2 -2 35 29 72 69 181 192 373 356 482
411 52 26 79 32 145 36 186 9 366 -72 549 -246 224 -214 308 -436 308 -811 0
-73 5 -111 21 -156 20 -55 21 -72 14 -217 -4 -110 -3 -169 5 -193 11 -32 9
-40 -16 -83 -35 -60 -176 -201 -281 -280 -122 -92 -133 -128 -37 -120 157 13
531 292 622 465 67 127 90 247 72 386 -18 147 -49 222 -89 215 -27 -5 -40 -67
-41 -198 0 -69 -7 -155 -14 -191 -26 -122 -86 -209 -144 -209 -29 0 -28 8 12
113 38 99 47 211 50 622 4 421 8 394 -85 532 -76 115 -145 197 -261 309 -229
223 -429 313 -743 334 -155 11 -269 11 -331 1z"/>
<path d="M3513 5371 c-81 -30 -138 -74 -289 -225 -158 -157 -167 -173 -205
-351 -22 -101 -26 -292 -10 -478 8 -96 13 -116 50 -191 45 -89 128 -190 187
-227 45 -27 198 -38 285 -20 259 54 451 310 437 581 -12 204 -125 332 -321
361 -143 21 -267 -19 -356 -116 -63 -70 -92 -144 -99 -251 -8 -138 37 -227
140 -278 142 -71 315 4 334 145 11 84 -40 149 -116 149 -62 0 -97 -78 -45
-102 54 -24 1 -89 -60 -74 -98 25 -123 171 -44 260 116 132 333 81 390 -91 19
-59 7 -179 -25 -241 -54 -106 -172 -187 -290 -199 -150 -15 -312 63 -384 186
-24 41 -27 56 -30 171 -6 212 41 359 155 477 107 111 159 125 419 114 219 -9
256 -20 337 -99 160 -157 186 -411 70 -686 -135 -322 -435 -491 -771 -432 -50
9 -106 16 -123 16 -30 0 -28 -2 43 -60 40 -34 101 -75 136 -92 59 -29 67 -31
145 -25 223 17 413 121 561 308 34 43 79 112 99 152 51 102 153 382 167 458
30 167 -47 420 -173 567 -78 90 -258 244 -325 278 -76 37 -210 45 -289 15z
m230 -168 c31 -16 36 -48 8 -62 -21 -12 -171 -31 -239 -31 -69 0 -71 44 -4 83
61 36 174 41 235 10z"/>
<path d="M4755 4974 c-20 -20 -19 -44 6 -132 31 -112 72 -205 111 -253 45 -56
59 -84 94 -189 24 -75 28 -100 28 -215 0 -120 -2 -136 -31 -218 -17 -48 -46
-113 -64 -145 -42 -70 -164 -195 -243 -246 -79 -52 -360 -178 -471 -211 -49
-15 -144 -44 -210 -65 -163 -52 -261 -76 -385 -95 -58 -9 -122 -21 -143 -27
-38 -12 -38 -12 25 -36 35 -13 99 -33 143 -44 78 -20 82 -20 170 -3 143 28
277 71 424 137 310 138 290 131 387 138 88 6 92 7 188 66 134 81 223 175 282
297 70 147 124 365 124 501 0 57 -3 65 -31 92 -39 37 -51 60 -95 186 -45 129
-162 371 -203 419 -39 46 -84 64 -106 43z"/>
<path d="M5917 4963 c-8 -7 -1 -59 23 -178 69 -330 66 -691 -6 -982 -29 -118
-166 -556 -225 -723 -116 -324 -222 -518 -377 -691 -81 -91 -155 -189 -143
-189 5 0 12 4 15 9 3 5 56 40 118 79 137 85 172 112 266 205 125 123 215 321
403 887 64 195 124 389 133 430 85 416 15 1008 -134 1134 -30 25 -60 33 -73
19z"/>
<path d="M4374 4342 c-19 -12 -45 -70 -85 -195 -45 -139 -87 -218 -168 -319
-207 -257 -386 -349 -711 -365 -63 -3 -123 -9 -133 -12 -14 -5 11 -22 98 -67
108 -55 121 -59 178 -57 113 3 333 70 443 135 42 25 55 40 73 82 14 35 53 86
119 158 111 119 154 181 182 261 22 61 60 262 60 314 0 58 -25 86 -56 65z"/>
<path d="M6818 3915 c-3 -3 1 -33 9 -67 8 -33 18 -86 22 -117 8 -52 9 -48 10
47 1 113 -14 164 -41 137z"/>
<path d="M5174 2990 c-11 -5 -63 -55 -115 -112 -100 -109 -250 -252 -310 -294
-33 -23 -39 -24 -80 -13 -51 13 -85 3 -286 -80 -116 -47 -125 -50 -195 -46
-62 4 -67 3 -30 -5 51 -11 62 -17 62 -35 0 -8 6 -12 14 -9 7 3 16 -2 19 -10 5
-11 13 -13 39 -6 18 5 71 17 116 25 116 22 185 50 238 96 52 45 60 47 67 17 9
-34 -18 -84 -80 -151 -120 -129 -119 -122 -13 -77 151 65 206 107 334 254 191
220 276 348 276 413 0 27 -28 43 -56 33z"/>
</g>
</svg>
