<?xml version="1.0" standalone="no"?>
<!DOCTYPE svg PUBLIC "-//W3C//DTD SVG 20010904//EN"
 "http://www.w3.org/TR/2001/REC-SVG-20010904/DTD/svg10.dtd">
<svg version="1.0" xmlns="http://www.w3.org/2000/svg"
 width="1000.000000pt" height="1000.000000pt" viewBox="0 0 1000.000000 1000.000000"
 preserveAspectRatio="xMidYMid meet">
<metadata>
  <rdf:RDF
    xmlns:rdf = "http://www.w3.org/1999/02/22-rdf-syntax-ns#"
    xmlns:rdfs = "http://www.w3.org/2000/01/rdf-schema#"
    xmlns:dc = "http://purl.org/dc/elements/1.1/"
    xmlns:cc = "http://creativecommons.org/ns#">
    <cc:license rdf:resource="http://creativecommons.org/publicdomain/zero/1.0/deed.en"/>
    <cc:permits rdf:resource="http://creativecommons.org/ns#Reproduction"/>
    <rdf:Description about="https://nft.mir.one/fingerprints"
      dc:title="TON Fingerprints"
      dc:description="This is a unique digital fingerprint created based on the algorithm for generating basic rings using a noise texture. Like human fingerprints, you can now use it for the Web3 and Metaverse era as digital biometric information."
      dc:publisher="https://nft.mir.one"
      dc:date="2022-02-22"
      dc:format="image/svg+xml"
      dc:language="en" >
      <dc:creator>
      <rdf:Bag>
        <rdf:li>EQBondcvD2_aOFADXSWJHs4ZazQDuEl9_wNvGGPxI8hGuOFU</rdf:li>
        <rdf:li>ipfs://bafkreihj7iub3fhmhq6jn62noukt5wxn3gv6bvcg7wmt6ywvlurefezckq</rdf:li>
      </rdf:Bag>
      </dc:creator>
    </rdf:Description>
  </rdf:RDF>
</metadata>
<rect width="100%" height="100%" fill="#1b1f23"/>
<g transform="translate(0.000000,1000.000000) scale(0.100000,-0.100000)"
fill="#ffffff" stroke="none">
<path d="M4918 7763 c10 -26 50 -91 89 -145 228 -314 420 -763 359 -843 -31
-41 -71 10 -141 177 -93 223 -197 406 -314 551 -77 96 -157 136 -351 177 -58
13 -114 27 -124 33 -34 17 66 -74 146 -134 146 -110 303 -289 397 -454 24 -41
63 -125 87 -187 71 -179 84 -206 168 -322 123 -174 291 -531 345 -736 27 -100
97 -560 111 -730 16 -183 35 -289 71 -390 114 -315 115 -444 10 -827 -112
-407 -183 -563 -421 -928 -65 -99 -172 -271 -239 -383 -66 -112 -141 -231
-165 -265 -24 -34 -53 -85 -64 -113 -19 -51 -19 -51 97 7 157 77 253 146 295
212 30 47 221 397 354 647 109 206 185 410 262 700 27 102 63 225 80 274 42
122 54 228 41 364 -13 129 -28 191 -81 332 -75 202 -84 262 -66 450 7 76 5 99
-24 225 -46 204 -43 315 10 315 25 0 34 -19 109 -220 34 -91 91 -220 127 -287
63 -119 104 -240 104 -307 0 -39 -21 -80 -42 -84 -13 -2 -24 22 -53 110 -42
127 -49 144 -78 176 -62 68 -88 -18 -46 -154 27 -87 48 -129 93 -183 58 -69
75 -152 101 -470 14 -174 19 -201 45 -262 41 -93 61 -193 67 -334 10 -228 -48
-416 -312 -1005 -49 -110 -93 -222 -100 -258 -6 -34 -11 -61 -10 -60 2 2 47
62 100 133 296 392 430 665 520 1057 24 103 32 123 71 174 84 108 98 204 99
674 0 396 -2 423 -62 715 -85 421 -115 496 -343 859 -194 308 -273 486 -359
809 -57 212 -93 319 -152 454 -61 139 -96 182 -300 374 -116 109 -116 109
-102 61 8 -26 21 -60 30 -77 205 -388 255 -510 329 -802 66 -265 100 -371 171
-531 75 -170 109 -231 242 -427 63 -93 138 -219 167 -280 101 -211 171 -469
193 -705 27 -281 41 -1022 21 -1074 -5 -14 -14 -26 -19 -26 -20 0 -49 42 -60
85 -34 135 -73 600 -72 865 1 256 -22 383 -109 600 -108 271 -189 401 -285
459 -64 39 -79 61 -158 236 -148 329 -219 538 -232 680 -19 217 -70 383 -193
628 -73 147 -95 181 -147 232 -66 66 -210 164 -298 203 -4 2 1 -18 11 -45z"/>
<path d="M5765 7605 c4 -11 13 -38 20 -60 7 -22 43 -103 78 -180 85 -183 129
-312 157 -460 52 -279 131 -449 395 -850 61 -93 128 -199 148 -235 55 -99 93
-228 112 -375 9 -71 36 -220 60 -330 65 -292 71 -378 50 -708 -17 -287 -34
-437 -61 -540 -36 -140 -169 -538 -211 -632 -49 -109 -144 -348 -140 -352 6
-5 223 378 267 471 117 248 202 526 239 781 11 77 32 223 47 325 30 203 35
398 14 525 -6 38 -29 113 -50 166 -67 167 -75 284 -24 361 33 51 31 102 -10
221 -39 113 -73 168 -180 291 -99 113 -229 286 -301 401 -63 100 -155 284
-179 358 -21 64 -21 136 0 144 23 9 46 -20 115 -147 162 -299 358 -568 467
-640 53 -35 78 -35 100 -2 12 19 12 22 0 17 -21 -8 -53 32 -198 255 -317 487
-338 517 -401 572 -34 29 -84 87 -112 128 -88 132 -211 292 -307 400 -111 126
-105 120 -95 95z"/>
<path d="M4160 7528 c19 -17 66 -51 105 -76 217 -139 444 -355 570 -542 42
-62 45 -90 11 -90 -31 0 -59 22 -211 170 -157 153 -266 246 -362 310 -104 70
-181 82 -349 58 -82 -12 -82 -12 -47 -40 28 -22 46 -28 84 -28 96 0 233 -90
514 -339 88 -78 191 -164 230 -190 88 -61 219 -131 246 -131 32 0 44 40 30
107 -6 32 -16 88 -21 124 -13 88 -30 125 -108 244 -91 138 -292 339 -382 383
-62 30 -165 53 -289 66 -55 6 -55 6 -21 -26z"/>
<path d="M3897 7207 c-14 -37 37 -99 259 -314 272 -262 329 -313 494 -441 220
-171 281 -234 387 -394 192 -291 332 -759 350 -1168 4 -106 1 -171 -16 -305
-46 -363 -68 -446 -182 -688 -45 -95 -100 -226 -122 -292 -38 -112 -41 -127
-40 -228 0 -108 0 -108 -32 -143 -41 -44 -81 -46 -96 -6 -15 38 -4 231 21 352
33 163 55 217 141 350 129 201 145 243 175 467 23 172 23 471 0 614 -38 243
-117 502 -216 704 -120 246 -220 376 -496 641 -109 104 -307 304 -442 444
-160 166 -258 261 -283 273 -21 9 -74 21 -117 25 -79 8 -79 8 -45 -40 19 -26
49 -59 66 -74 55 -45 232 -241 414 -457 96 -114 225 -263 286 -330 291 -322
411 -497 521 -759 94 -224 153 -455 175 -682 33 -334 -16 -737 -80 -660 -10
12 -15 83 -20 277 -9 329 -29 472 -100 701 -95 307 -255 580 -511 871 -182
206 -196 224 -273 341 -109 167 -326 452 -392 516 -67 65 -102 78 -213 78 -75
0 -75 0 -19 -53 31 -28 91 -83 134 -122 90 -80 135 -144 135 -192 0 -43 -25
-44 -64 -2 -58 61 -166 141 -203 150 -21 5 -71 6 -112 3 -75 -7 -75 -7 -40
-38 37 -34 237 -158 285 -176 16 -7 54 -11 86 -11 56 1 56 1 126 -67 83 -82
125 -142 120 -174 -5 -40 -45 -34 -143 24 -49 30 -163 93 -251 141 -176 95
-201 101 -312 76 -50 -12 -50 -12 -24 -34 15 -12 59 -39 97 -60 90 -49 143
-85 234 -157 87 -70 178 -117 304 -159 165 -56 226 -98 397 -276 170 -176 313
-379 415 -588 118 -243 168 -446 210 -850 9 -82 23 -178 31 -213 25 -113 12
-195 -29 -179 -34 13 -57 101 -112 441 -81 496 -169 700 -452 1054 -171 212
-328 347 -520 445 -165 84 -239 107 -373 117 -63 5 -131 14 -150 19 -55 17
-85 13 -171 -20 -79 -32 -79 -32 -46 -55 18 -12 87 -39 153 -59 347 -106 425
-138 582 -242 99 -65 236 -193 340 -318 42 -49 124 -140 184 -202 97 -101 113
-123 162 -225 72 -148 114 -291 175 -595 27 -136 61 -300 76 -363 32 -135 30
-216 -6 -345 -32 -111 -31 -257 0 -380 30 -117 24 -195 -25 -342 -37 -111
-140 -337 -195 -426 -24 -39 -58 -123 -59 -145 0 -1 9 2 21 8 11 7 44 18 72
27 86 25 195 83 231 123 18 20 59 84 91 141 178 320 201 356 331 504 185 211
256 325 349 555 112 278 177 553 178 750 2 167 -23 250 -74 250 -30 0 -38 -31
-54 -193 -24 -248 -59 -402 -147 -637 -102 -273 -207 -458 -281 -493 -35 -17
-67 -14 -67 5 0 6 24 61 54 122 73 149 170 377 218 511 53 148 82 268 113 463
19 126 32 180 57 235 30 66 32 80 31 167 -5 311 -105 843 -208 1105 -81 208
-209 424 -319 538 -57 59 -88 77 -135 77 -49 0 -139 37 -224 93 -95 62 -157
112 -355 289 -276 246 -415 337 -435 285z"/>
<path d="M6460 7000 c12 -16 24 -30 26 -30 3 0 -4 14 -16 30 -12 17 -24 30
-26 30 -3 0 4 -13 16 -30z"/>
<path d="M6541 6883 c49 -74 83 -118 64 -83 -19 33 -106 160 -111 160 -2 0 19
-35 47 -77z"/>
<path d="M3158 6212 c-48 -17 -48 -17 -14 -40 48 -33 219 -92 266 -92 76 0 66
51 -22 109 -57 37 -69 41 -123 40 -33 0 -81 -8 -107 -17z"/>
<path d="M3107 5726 c-20 -8 -46 -20 -56 -27 -104 -78 -101 -73 -62 -91 20 -9
63 -22 96 -28 209 -42 438 -172 616 -349 159 -160 210 -251 343 -617 108 -300
206 -669 206 -781 0 -50 -25 -89 -47 -72 -26 22 -40 60 -97 267 -118 421 -235
719 -361 912 -122 190 -320 358 -543 463 -86 40 -87 40 -142 27 -30 -6 -72
-15 -93 -19 -38 -6 -38 -6 0 -42 21 -20 76 -58 123 -84 316 -179 496 -367 654
-683 75 -150 152 -358 247 -672 17 -58 58 -156 91 -219 69 -134 88 -202 88
-327 0 -126 -24 -200 -92 -284 -28 -36 -87 -108 -129 -160 -42 -52 -86 -104
-99 -115 -12 -11 -35 -38 -50 -60 -28 -41 -28 -41 36 -37 73 5 106 -1 128 -24
20 -19 21 -74 1 -100 -23 -30 -18 -36 17 -18 42 22 153 31 173 14 20 -16 19
-53 -3 -115 -20 -58 -35 -60 118 15 90 44 105 61 140 159 70 192 84 309 70
561 -11 191 -18 232 -62 345 -26 69 -31 100 -39 225 -16 248 -61 452 -183 827
-42 127 -83 274 -91 325 -19 110 -47 172 -124 276 -110 147 -275 285 -451 376
-98 50 -344 147 -372 146 -7 -1 -30 -7 -51 -14z m1137 -2787 c23 -66 -39 -184
-110 -208 -38 -13 -44 -13 -68 3 -21 13 -25 22 -20 39 8 30 50 91 103 149 49
55 80 60 95 17z"/>
<path d="M6935 5507 c-4 -9 -5 -61 -3 -115 5 -111 33 -192 66 -192 17 0 18 4
6 73 -6 39 -15 102 -19 139 -7 74 -37 130 -50 95z"/>
<path d="M3005 5128 c-16 -6 -39 -17 -50 -24 -11 -8 -27 -14 -37 -14 -22 0 47
-64 155 -145 285 -212 487 -528 610 -955 81 -280 99 -494 57 -667 -17 -73 -89
-240 -162 -377 -7 -13 -6 -16 2 -11 6 4 42 11 80 16 104 13 133 28 176 96 118
184 155 349 120 535 -27 141 -147 538 -213 708 -133 337 -295 571 -518 745
-137 107 -157 115 -220 93z"/>
<path d="M4218 4965 c-10 -22 -1 -57 70 -268 121 -360 175 -595 207 -902 14
-126 40 -181 82 -173 10 2 26 19 36 38 37 71 11 297 -79 690 -65 286 -159 531
-231 605 -40 41 -69 45 -85 10z"/>
<path d="M3020 4761 c-14 -5 -40 -16 -58 -25 -18 -9 -38 -14 -45 -10 -12 7 -2
-5 124 -143 205 -224 334 -481 384 -765 21 -117 17 -347 -7 -448 -26 -108 -36
-172 -24 -160 5 5 23 10 38 10 34 0 95 24 120 47 45 40 73 242 58 409 -33 352
-190 720 -419 980 -58 67 -123 118 -143 113 -1 0 -14 -4 -28 -8z"/>
<path d="M3044 4219 c-3 -6 -17 -8 -30 -5 -24 6 -24 6 10 -62 65 -129 115
-294 142 -471 5 -35 8 -41 16 -28 5 9 20 17 33 17 29 0 65 54 72 108 10 78
-69 327 -125 394 -24 28 -76 58 -101 58 -5 0 -13 -5 -17 -11z"/>
<path d="M6060 4008 c-10 -24 -34 -124 -54 -223 -64 -328 -126 -490 -410
-1069 -124 -252 -180 -377 -189 -421 -13 -64 -13 -64 72 17 189 179 252 263
342 459 177 383 269 623 303 792 35 171 39 433 6 472 -23 28 -50 18 -70 -27z"/>
</g>
</svg>
