<?xml version="1.0" standalone="no"?>
<!DOCTYPE svg PUBLIC "-//W3C//DTD SVG 20010904//EN"
 "http://www.w3.org/TR/2001/REC-SVG-20010904/DTD/svg10.dtd">
<svg version="1.0" xmlns="http://www.w3.org/2000/svg"
 width="1000.000000pt" height="1000.000000pt" viewBox="0 0 1000.000000 1000.000000"
 preserveAspectRatio="xMidYMid meet">
<metadata>
  <rdf:RDF
    xmlns:rdf = "http://www.w3.org/1999/02/22-rdf-syntax-ns#"
    xmlns:rdfs = "http://www.w3.org/2000/01/rdf-schema#"
    xmlns:dc = "http://purl.org/dc/elements/1.1/"
    xmlns:cc = "http://creativecommons.org/ns#">
    <cc:license rdf:resource="http://creativecommons.org/publicdomain/zero/1.0/deed.en"/>
    <cc:permits rdf:resource="http://creativecommons.org/ns#Reproduction"/>
    <rdf:Description about="https://nft.mir.one/fingerprints"
      dc:title="TON Fingerprints"
      dc:description="This is a unique digital fingerprint created based on the algorithm for generating basic rings using a noise texture. Like human fingerprints, you can now use it for the Web3 and Metaverse era as digital biometric information."
      dc:publisher="https://nft.mir.one"
      dc:date="2022-02-22"
      dc:format="image/svg+xml"
      dc:language="en" >
      <dc:creator>
      <rdf:Bag>
        <rdf:li>EQBondcvD2_aOFADXSWJHs4ZazQDuEl9_wNvGGPxI8hGuOFU</rdf:li>
        <rdf:li>ipfs://bafkreihj7iub3fhmhq6jn62noukt5wxn3gv6bvcg7wmt6ywvlurefezckq</rdf:li>
      </rdf:Bag>
      </dc:creator>
    </rdf:Description>
  </rdf:RDF>
</metadata>
<rect width="100%" height="100%" fill="#1b1f23"/>
<g transform="translate(0.000000,1000.000000) scale(0.100000,-0.100000)"
fill="#ffffff" stroke="none">
<path d="M4835 7800 c11 -7 49 -31 85 -55 36 -23 98 -61 138 -84 40 -24 142
-100 226 -169 84 -70 213 -174 287 -232 146 -115 432 -393 550 -535 330 -396
527 -723 754 -1250 122 -283 155 -401 156 -568 0 -51 8 -162 17 -247 18 -155
18 -155 19 130 3 316 -4 377 -62 605 -44 173 -137 455 -192 585 -157 370 -480
817 -878 1215 -205 206 -351 313 -591 433 -139 69 -222 100 -382 143 -64 17
-123 33 -132 36 -8 2 -6 -1 5 -7z"/>
<path d="M4397 7680 c7 -27 -43 -78 -87 -90 -19 -5 -66 -12 -105 -16 -70 -7
-70 -7 -20 -21 67 -17 136 -16 200 2 47 14 60 14 117 1 92 -21 239 -69 420
-137 86 -33 169 -59 183 -59 53 0 40 65 -25 124 -108 97 -261 146 -548 175
-52 6 -104 17 -117 25 -21 14 -23 14 -18 -4z"/>
<path d="M5815 7559 c363 -391 542 -599 693 -803 183 -248 334 -450 345 -461
20 -19 -113 214 -201 355 -162 257 -295 424 -512 640 -135 135 -287 269 -380
334 -8 6 17 -24 55 -65z"/>
<path d="M4275 7403 c-92 -8 -268 -47 -385 -85 -125 -41 -125 -41 -70 -53 30
-7 143 -15 250 -19 213 -6 356 -18 495 -42 115 -19 462 -100 540 -126 407
-137 886 -619 1236 -1244 86 -154 287 -574 334 -699 68 -182 97 -420 98 -790
0 -172 -5 -269 -17 -344 -30 -195 -82 -318 -155 -366 -26 -17 -45 -42 -61 -78
-91 -208 -130 -273 -211 -357 -83 -88 -83 -87 -206 -350 -55 -117 -164 -289
-214 -339 -17 -18 -66 -57 -108 -88 -133 -98 -124 -96 34 5 71 45 132 97 210
176 122 123 187 211 265 361 36 68 73 121 116 165 51 53 84 103 174 270 153
283 195 371 225 475 90 311 113 851 49 1165 -30 148 -100 328 -240 620 -228
474 -498 858 -835 1186 -196 191 -423 360 -582 435 -62 28 -65 29 -107 14 -67
-24 -116 -18 -322 34 -259 66 -388 85 -513 74z"/>
<path d="M3780 7072 c-81 -31 -113 -46 -232 -110 -76 -41 -76 -41 -35 -49 23
-5 107 -5 187 -2 383 17 724 5 918 -32 503 -97 920 -412 1284 -969 153 -233
241 -403 290 -560 23 -74 23 -81 22 -510 0 -506 -2 -522 -87 -736 -40 -101
-77 -227 -137 -464 -96 -383 -115 -442 -182 -573 -92 -180 -242 -356 -430
-507 -124 -100 -160 -121 -288 -165 -139 -48 -233 -101 -335 -187 -5 -5 9 -2
31 6 104 36 296 86 333 86 43 0 44 -1 43 -58 0 -37 10 -35 27 5 8 19 32 39 79
63 190 99 412 252 509 352 73 76 153 191 206 300 72 144 88 199 97 333 6 73
29 218 59 370 72 354 94 418 136 401 11 -4 15 -22 15 -75 0 -94 -34 -343 -66
-476 -35 -149 -41 -217 -20 -234 40 -34 108 51 159 197 30 85 30 93 35 315 3
194 2 238 -14 299 -14 61 -17 124 -19 403 -1 181 -5 387 -10 456 -9 143 -4
179 25 179 24 0 43 -35 64 -115 43 -168 56 -375 57 -897 2 -443 4 -467 46
-442 26 15 60 106 79 210 22 121 31 570 15 771 -23 277 -60 413 -148 544 -31
46 -93 166 -138 265 -181 402 -403 737 -668 1011 -301 310 -536 448 -919 542
-217 53 -376 72 -658 77 -255 5 -255 5 -330 -24z"/>
<path d="M4150 6760 c-58 -4 -210 -8 -338 -9 -232 -1 -232 -1 -295 -29 -34
-16 -102 -54 -151 -85 -50 -31 -94 -57 -100 -57 -5 0 -6 -3 -2 -7 4 -4 107
-10 229 -14 167 -5 248 -12 325 -28 142 -30 179 -49 231 -120 61 -85 189 -189
505 -412 129 -91 239 -192 302 -279 130 -176 237 -431 288 -680 40 -201 79
-627 78 -875 0 -140 -3 -172 -26 -260 -51 -196 -188 -425 -254 -425 -47 0 -41
20 76 275 84 180 84 183 72 530 -16 460 -44 690 -110 886 -33 100 -156 369
-207 452 -56 92 -155 184 -278 256 -59 35 -208 139 -331 232 -235 177 -317
226 -434 258 -88 25 -256 45 -320 39 -49 -5 -123 -44 -233 -123 -48 -34 -48
-34 -6 -45 23 -7 57 -9 75 -5 49 9 272 -13 358 -35 165 -42 318 -127 507 -281
120 -98 157 -143 214 -257 37 -76 115 -189 220 -318 20 -25 30 -60 51 -178 27
-151 26 -202 -2 -231 -22 -22 -33 -19 -40 13 -16 76 -83 253 -119 316 -73 128
-247 358 -345 456 -187 187 -371 300 -563 345 -105 24 -242 35 -280 23 -64
-22 -225 -142 -206 -154 6 -4 89 -8 183 -9 271 -4 410 -49 531 -170 33 -34
105 -97 160 -140 189 -149 312 -292 462 -535 78 -126 100 -151 154 -173 34
-14 38 -20 57 -93 55 -206 61 -423 19 -697 -33 -210 -49 -276 -99 -400 -44
-110 -48 -160 -11 -165 19 -3 57 18 149 82 13 9 36 52 55 103 30 82 33 97 34
223 2 82 9 160 18 200 45 183 50 375 17 674 -22 209 -38 286 -75 378 -22 54
-23 64 -11 76 37 37 105 -26 147 -137 53 -141 90 -411 91 -651 0 -181 -8 -228
-61 -358 -36 -90 -45 -127 -42 -175 1 -14 8 -18 28 -15 21 2 35 17 67 70 40
66 59 84 77 72 13 -8 10 -53 -5 -96 -7 -20 -38 -81 -69 -135 -81 -142 -100
-206 -99 -328 1 -121 -15 -162 -109 -273 -46 -55 -66 -72 -82 -70 -39 5 -34
65 12 166 46 99 56 139 47 177 -10 38 -32 31 -121 -39 -73 -57 -86 -73 -150
-183 -88 -150 -126 -201 -212 -284 -88 -85 -174 -148 -282 -206 -47 -26 -100
-59 -117 -73 -32 -27 -32 -27 35 -34 126 -12 223 -7 268 13 57 26 177 108 301
205 179 139 201 154 245 161 107 17 212 90 402 280 78 78 124 133 157 190 92
159 155 350 178 541 11 92 10 101 -23 294 -9 47 -20 155 -27 240 -44 602 -146
923 -386 1211 -100 121 -206 209 -449 373 -71 49 -161 114 -200 146 -38 31
-96 72 -128 90 -68 38 -78 54 -49 82 16 16 40 23 109 29 48 4 108 14 132 23
178 65 554 -99 849 -369 154 -141 305 -346 427 -577 51 -99 76 -135 108 -159
62 -47 86 -77 119 -148 94 -202 114 -660 42 -980 -29 -130 -174 -615 -229
-766 -146 -406 -361 -675 -718 -901 -65 -42 -209 -127 -319 -191 -170 -97
-304 -183 -286 -183 2 0 53 7 113 15 115 16 223 42 319 74 60 21 252 119 341
174 217 135 423 351 543 571 66 120 110 234 172 446 29 96 77 258 108 360 30
102 65 220 78 262 43 145 56 243 61 483 8 366 -15 558 -90 727 -50 114 -305
512 -417 653 -283 354 -635 589 -990 660 -92 18 -309 26 -450 15z m401 -1077
c82 -76 139 -164 139 -215 0 -80 -53 -41 -186 135 -82 108 -91 137 -45 137 22
0 46 -15 92 -57z"/>
<path d="M4371 6511 c-9 -6 -11 -18 -7 -36 7 -27 52 -59 277 -195 291 -176
498 -393 625 -655 107 -219 162 -509 185 -968 11 -228 21 -282 52 -301 80 -49
105 310 54 764 -14 124 -29 257 -33 295 -13 136 -70 273 -182 441 -195 289
-506 532 -811 634 -91 31 -135 36 -160 21z"/>
<path d="M3146 5769 c-21 -11 -74 -58 -118 -102 -79 -82 -79 -82 -41 -85 21
-2 67 5 103 14 49 12 127 18 310 21 152 3 250 9 258 16 7 5 12 22 10 36 -7 59
-165 109 -368 117 -103 4 -119 2 -154 -17z"/>
<path d="M3395 5490 c-146 -8 -258 -29 -300 -56 -28 -18 -89 -97 -130 -169
-15 -27 -35 -60 -43 -72 -14 -22 -14 -23 19 -16 18 3 75 26 126 50 144 69 261
95 423 96 154 1 224 -13 330 -69 158 -83 314 -264 453 -524 68 -126 81 -182
81 -330 -1 -219 -49 -411 -156 -630 -53 -107 -72 -135 -137 -200 -75 -75 -78
-77 -241 -144 -91 -37 -214 -86 -273 -107 -59 -21 -125 -49 -147 -61 -38 -22
-38 -22 3 -35 146 -42 195 -54 223 -49 17 2 91 34 165 70 135 66 185 79 195
51 18 -47 -99 -150 -263 -232 -62 -31 -127 -66 -143 -78 -30 -22 -30 -22 12
-28 24 -3 75 -11 113 -17 96 -15 134 -6 220 51 126 85 195 174 326 423 53 100
175 443 208 582 49 211 63 434 36 587 -22 128 -44 174 -180 377 -142 214 -226
315 -330 398 -167 135 -234 150 -590 132z"/>
<path d="M5670 5415 c-23 -28 -23 -107 1 -275 17 -127 23 -213 23 -375 0 -254
-11 -316 -84 -460 -40 -80 -59 -134 -91 -268 -85 -355 -186 -565 -372 -771
-80 -88 -230 -212 -342 -281 -80 -49 -153 -94 -400 -250 -72 -46 -169 -104
-215 -129 -47 -25 -101 -60 -120 -77 -35 -31 -35 -31 100 -25 205 9 235 18
455 151 433 260 602 403 767 649 116 174 174 321 333 836 87 287 104 371 112
565 12 309 -49 654 -126 712 -21 16 -26 16 -41 -2z"/>
<path d="M3404 5176 c-75 -17 -193 -66 -264 -109 -89 -53 -93 -66 -96 -304 -2
-168 -5 -208 -18 -228 -19 -29 -42 -32 -69 -7 -11 9 6 -30 36 -88 103 -194
156 -246 241 -236 66 7 131 48 167 104 28 44 34 62 55 157 12 52 37 57 61 13
25 -47 23 -156 -6 -231 -43 -111 -108 -174 -210 -204 -48 -14 -65 -14 -121 -4
-36 7 -86 16 -112 20 -47 7 -47 7 -10 -34 20 -23 54 -63 75 -89 22 -26 62 -65
90 -88 49 -38 54 -40 107 -35 64 6 161 43 242 93 32 19 83 44 115 55 112 38
168 97 214 225 33 92 31 234 -5 339 -39 112 -82 190 -144 256 -67 72 -128 112
-233 150 -100 36 -115 47 -96 73 33 45 164 35 271 -22 130 -68 226 -187 284
-352 17 -47 42 -112 57 -144 26 -55 27 -65 22 -155 -12 -206 -95 -370 -250
-494 -100 -80 -284 -170 -425 -206 -61 -16 -128 -39 -147 -51 -35 -22 -35 -22
12 -47 102 -54 123 -63 167 -75 40 -11 53 -10 115 10 94 31 282 124 359 179
148 105 268 313 316 546 25 121 40 326 27 374 -21 77 -57 82 -81 12 -28 -81
-69 -48 -49 39 15 66 10 106 -25 177 -82 172 -230 310 -389 365 -80 27 -203
34 -283 16z m77 -378 c286 -140 382 -454 219 -711 -60 -95 -92 -43 -58 96 46
190 23 312 -73 402 -129 121 -289 129 -335 19 -19 -45 -18 -60 7 -85 19 -19
22 -19 45 -4 31 20 54 6 54 -34 -1 -78 -116 -119 -191 -68 -50 33 -56 63 -36
159 19 90 56 180 90 217 71 77 134 79 278 9z"/>
<path d="M2956 4862 c-10 -11 -20 -40 -22 -64 -4 -43 -4 -43 11 -4 8 21 20 45
26 52 19 23 5 37 -15 16z"/>
<path d="M2922 4730 c0 -14 2 -19 5 -12 2 6 2 18 0 25 -3 6 -5 1 -5 -13z"/>
<path d="M6473 3045 c0 -27 2 -38 4 -22 2 15 2 37 0 50 -2 12 -4 0 -4 -28z"/>
</g>
</svg>
