<?xml version="1.0" standalone="no"?>
<!DOCTYPE svg PUBLIC "-//W3C//DTD SVG 20010904//EN"
 "http://www.w3.org/TR/2001/REC-SVG-20010904/DTD/svg10.dtd">
<svg version="1.0" xmlns="http://www.w3.org/2000/svg"
 width="1000.000000pt" height="1000.000000pt" viewBox="0 0 1000.000000 1000.000000"
 preserveAspectRatio="xMidYMid meet">
<metadata>
  <rdf:RDF
    xmlns:rdf = "http://www.w3.org/1999/02/22-rdf-syntax-ns#"
    xmlns:rdfs = "http://www.w3.org/2000/01/rdf-schema#"
    xmlns:dc = "http://purl.org/dc/elements/1.1/"
    xmlns:cc = "http://creativecommons.org/ns#">
    <cc:license rdf:resource="http://creativecommons.org/publicdomain/zero/1.0/deed.en"/>
    <cc:permits rdf:resource="http://creativecommons.org/ns#Reproduction"/>
    <rdf:Description about="https://nft.mir.one/fingerprints"
      dc:title="TON Fingerprints"
      dc:description="This is a unique digital fingerprint created based on the algorithm for generating basic rings using a noise texture. Like human fingerprints, you can now use it for the Web3 and Metaverse era as digital biometric information."
      dc:publisher="https://nft.mir.one"
      dc:date="2022-02-22"
      dc:format="image/svg+xml"
      dc:language="en" >
      <dc:creator>
      <rdf:Bag>
        <rdf:li>EQBondcvD2_aOFADXSWJHs4ZazQDuEl9_wNvGGPxI8hGuOFU</rdf:li>
        <rdf:li>ipfs://bafkreihj7iub3fhmhq6jn62noukt5wxn3gv6bvcg7wmt6ywvlurefezckq</rdf:li>
      </rdf:Bag>
      </dc:creator>
    </rdf:Description>
  </rdf:RDF>
</metadata>
<rect width="100%" height="100%" fill="#1b1f23"/>
<g transform="translate(0.000000,1000.000000) scale(0.100000,-0.100000)"
fill="#ffffff" stroke="none">
<path d="M4795 7761 c155 -87 253 -145 360 -213 166 -105 681 -456 790 -538
288 -216 468 -433 526 -631 22 -76 22 -76 -23 -131 -25 -31 -53 -76 -63 -101
-30 -78 -5 -154 159 -487 56 -113 118 -242 139 -288 43 -93 74 -119 105 -88
13 13 17 33 16 94 -1 93 -25 172 -131 432 -85 208 -153 403 -153 437 0 17 6
23 20 23 82 0 155 -116 285 -455 82 -214 113 -344 131 -560 22 -260 22 -260
-2 -287 -48 -52 -49 -59 -50 -333 -1 -269 -4 -297 -49 -435 -14 -41 -47 -169
-74 -285 -73 -308 -104 -398 -154 -452 -24 -27 -65 -30 -74 -6 -9 23 39 304
78 464 42 170 42 235 1 323 -18 38 -55 158 -83 267 -64 255 -107 382 -181 544
-100 219 -111 251 -105 320 10 103 23 116 69 68 33 -36 201 -371 232 -466 32
-94 68 -269 101 -487 28 -184 39 -223 67 -228 49 -10 71 116 58 328 -6 80 -14
217 -20 305 -14 224 -24 255 -103 330 -40 38 -84 93 -117 150 -30 50 -88 142
-130 205 -43 63 -103 156 -134 207 -80 131 -140 193 -233 241 -115 60 -195
120 -433 327 -287 251 -500 421 -895 715 -367 274 -398 296 -437 305 -36 9
-44 -11 -27 -62 22 -67 117 -155 444 -413 235 -185 458 -369 740 -610 132
-113 283 -241 335 -285 125 -104 253 -229 296 -286 18 -25 48 -75 65 -110 27
-53 32 -76 33 -136 1 -130 -36 -120 -144 40 -91 135 -177 232 -310 351 -211
189 -853 739 -1111 951 -140 116 -313 267 -385 337 -152 147 -159 150 -324
146 -110 -3 -110 -3 -77 -35 17 -18 70 -61 117 -95 72 -52 257 -207 640 -536
41 -36 158 -140 259 -231 311 -281 400 -359 561 -495 85 -72 197 -171 249
-221 103 -99 408 -458 463 -545 142 -223 287 -571 374 -895 37 -140 28 -260
-18 -242 -18 6 -24 24 -97 252 -65 203 -125 341 -229 530 -102 184 -222 364
-338 510 -118 148 -336 364 -463 460 -152 114 -234 187 -546 485 -300 287
-347 329 -640 576 -322 271 -320 271 -483 258 -93 -6 -93 -6 -65 -36 15 -16
69 -58 118 -93 50 -34 146 -111 215 -170 69 -60 190 -163 270 -231 195 -165
248 -216 387 -370 65 -72 174 -191 243 -265 112 -119 207 -227 250 -283 11
-13 15 -45 15 -106 1 -83 3 -92 49 -186 76 -159 135 -250 216 -334 81 -85 128
-156 166 -248 64 -159 78 -298 44 -443 -19 -86 -22 -118 -18 -280 3 -186 11
-229 43 -229 8 0 20 10 26 22 20 37 39 197 39 328 0 132 6 154 36 148 31 -6
57 -91 58 -188 1 -109 -39 -271 -85 -341 -27 -42 -35 -73 -60 -222 -32 -189
-56 -284 -100 -394 -79 -199 -214 -416 -333 -535 -88 -88 -254 -224 -339 -279
-71 -44 -167 -112 -164 -115 12 -8 244 19 287 34 133 47 271 132 343 211 100
112 254 360 339 547 95 207 122 312 133 514 6 127 40 376 56 418 12 30 41 25
50 -8 4 -14 7 -102 8 -195 1 -188 8 -225 47 -267 27 -28 27 -28 5 -110 -28
-106 -77 -228 -160 -403 -81 -168 -152 -291 -283 -487 -54 -81 -106 -170 -117
-197 -19 -50 -19 -50 105 50 139 113 273 250 336 342 49 73 378 711 402 779
38 114 46 278 20 406 -36 176 -207 590 -272 660 -37 40 -79 44 -88 8 -8 -31
-1 -53 100 -313 48 -123 96 -257 106 -299 25 -97 27 -257 4 -334 -18 -60 -61
-110 -95 -110 -24 0 -24 1 1 135 25 139 6 284 -55 412 -24 51 -51 118 -60 149
-9 32 -35 103 -57 158 -38 94 -41 108 -43 206 -1 93 -5 114 -34 185 -37 91
-103 210 -169 305 -59 83 -310 407 -375 483 -56 65 -57 87 -2 87 57 0 113 -36
211 -134 146 -147 290 -336 435 -568 44 -72 116 -177 160 -235 95 -124 150
-231 235 -455 35 -93 83 -205 107 -251 42 -82 42 -82 45 -349 4 -302 4 -300
-73 -363 -25 -21 -62 -60 -82 -88 -35 -47 -284 -523 -299 -570 -4 -12 -17 -43
-29 -69 -13 -27 -22 -48 -20 -48 2 0 59 69 126 153 116 144 224 300 299 431
40 70 87 126 106 126 23 0 54 -61 55 -110 1 -43 2 -42 24 38 31 107 70 190
135 287 87 129 146 276 224 555 94 343 116 481 116 761 0 117 4 209 11 228 15
42 38 54 72 36 27 -14 27 -14 11 16 -8 17 -21 78 -29 137 -8 59 -24 179 -36
267 -50 375 -169 725 -365 1069 -190 336 -391 550 -691 736 -48 30 -188 119
-311 198 -332 214 -550 321 -767 376 -131 34 -153 33 -90 -3z"/>
<path d="M5300 7777 c0 -2 42 -36 93 -75 167 -127 449 -304 652 -410 110 -57
241 -131 290 -164 100 -67 98 -63 -29 47 -93 81 -153 122 -331 227 -60 36
-164 98 -230 138 -118 72 -445 246 -445 237z"/>
<path d="M4525 7594 c-22 -8 -87 -21 -145 -29 -58 -8 -129 -19 -159 -25 -29
-5 -74 -10 -98 -10 -44 0 -44 0 -8 -35 20 -19 57 -44 82 -56 42 -20 50 -21 95
-10 66 18 106 8 180 -43 630 -428 970 -689 1348 -1035 167 -154 231 -201 266
-201 30 0 47 31 35 62 -31 82 -267 331 -481 508 -279 231 -685 518 -935 660
-147 84 -193 127 -150 144 102 39 627 -274 1123 -670 249 -198 392 -351 502
-534 66 -111 84 -124 117 -86 29 35 29 81 0 166 -33 97 -108 201 -237 330
-131 131 -267 239 -562 446 -391 273 -585 389 -703 419 -75 19 -217 18 -270
-1z"/>
<path d="M3453 6833 c-43 -4 -43 -4 -20 -35 12 -16 65 -55 117 -86 111 -67
194 -141 184 -165 -9 -25 -57 -21 -163 14 -87 29 -97 31 -146 20 -62 -14 -122
-52 -183 -114 -44 -45 -44 -45 70 -44 62 0 163 -7 223 -16 61 -9 143 -19 183
-22 40 -3 96 -14 125 -24 184 -64 484 -279 475 -342 -6 -45 -44 -35 -235 61
-260 130 -374 165 -622 190 -131 13 -151 7 -274 -74 -78 -51 -94 -65 -80 -71
10 -4 95 -11 188 -15 265 -12 444 -57 707 -176 68 -31 167 -74 221 -95 55 -22
123 -55 152 -74 174 -111 361 -361 465 -623 81 -202 119 -411 127 -698 8 -286
-23 -503 -101 -692 -102 -249 -166 -488 -166 -623 0 -128 -165 -390 -283 -451
-21 -10 -68 -28 -105 -40 -72 -22 -157 -61 -167 -77 -10 -17 32 -31 97 -32 98
-2 122 -10 126 -39 2 -20 -10 -39 -48 -79 -27 -29 -42 -50 -33 -48 10 3 43 11
73 17 100 23 237 70 281 99 45 28 125 115 149 161 8 14 19 59 26 100 16 101
46 163 144 300 91 128 116 172 153 276 58 160 58 281 0 421 -26 63 -28 78 -27
198 0 104 5 147 23 215 30 108 38 266 21 438 -6 70 -15 197 -20 282 -9 175
-17 204 -140 493 -89 211 -137 282 -357 524 -51 56 -118 142 -149 190 -32 48
-73 107 -92 131 -40 49 -162 154 -314 268 -56 43 -153 129 -214 190 -60 62
-132 126 -159 143 -44 28 -56 31 -119 29 -39 -1 -90 -3 -113 -5z m1568 -3125
c18 -33 4 -188 -25 -289 -48 -164 -103 -259 -152 -259 -34 0 -32 29 12 164 20
61 51 169 70 240 42 156 68 195 95 144z"/>
<path d="M3155 5953 c-27 -16 -70 -43 -94 -61 -24 -18 -51 -33 -60 -33 -36 -3
72 -19 192 -29 313 -26 563 -108 802 -265 277 -181 498 -475 604 -803 91 -282
110 -617 50 -873 -13 -56 -40 -126 -71 -187 -27 -53 -72 -147 -98 -209 -49
-111 -173 -318 -279 -463 -30 -41 -122 -145 -205 -230 -151 -155 -151 -155
-63 -158 140 -5 169 9 334 149 157 134 233 258 323 529 29 85 80 229 115 320
104 271 123 360 132 605 15 429 -100 828 -324 1126 -136 182 -264 280 -528
410 -251 123 -467 185 -680 195 -96 5 -102 4 -150 -23z"/>
<path d="M3113 5690 c-21 -9 -63 -36 -93 -59 -30 -22 -59 -41 -65 -42 -5 0 6
-7 25 -14 19 -7 63 -14 97 -14 157 -2 411 -66 555 -140 158 -81 234 -160 243
-252 3 -39 10 -49 57 -88 95 -80 206 -201 262 -284 158 -240 221 -469 229
-836 4 -161 8 -196 21 -209 22 -22 45 -8 69 41 57 114 63 462 12 682 -75 330
-218 576 -495 856 -187 188 -399 297 -678 348 -160 29 -195 31 -239 11z"/>
<path d="M3039 5400 c-24 -16 -61 -43 -81 -58 -37 -29 -37 -29 1 -41 21 -6 65
-11 98 -11 76 0 210 -23 286 -49 32 -11 98 -41 146 -65 117 -59 199 -86 264
-86 53 0 93 17 86 37 -21 56 -301 212 -462 258 -190 54 -274 58 -338 15z"/>
<path d="M3029 5140 c-24 -16 -63 -45 -86 -64 -43 -35 -43 -35 10 -40 67 -7
360 -20 411 -19 21 1 45 8 53 16 38 38 -47 93 -189 121 -113 23 -147 21 -199
-14z"/>
<path d="M3435 4943 c-58 -21 -93 -26 -205 -30 -74 -2 -145 -6 -158 -9 -13 -3
-54 -34 -92 -69 -68 -64 -68 -64 -16 -69 80 -8 334 -18 526 -21 192 -3 222
-10 316 -66 243 -147 384 -518 403 -1060 6 -193 12 -219 51 -219 29 0 68 55
90 127 25 81 25 123 0 221 -10 42 -24 131 -30 197 -29 304 -89 508 -201 680
-122 186 -255 278 -464 318 -139 27 -147 27 -220 0z"/>
<path d="M5252 4888 c-17 -17 -15 -92 7 -253 11 -77 23 -201 26 -275 6 -119
10 -143 36 -200 35 -80 46 -128 55 -251 8 -119 -5 -185 -47 -225 -23 -22 -29
-36 -29 -70 0 -70 -20 -191 -46 -282 -36 -124 -89 -227 -213 -416 -94 -142
-111 -174 -111 -207 0 -48 16 -56 73 -39 56 16 150 114 233 240 114 174 182
346 230 581 33 165 34 228 6 558 -12 140 -22 298 -22 351 0 169 -46 360 -109
455 -28 42 -66 56 -89 33z"/>
<path d="M3014 4558 c-35 -33 -64 -64 -64 -68 0 -8 23 -14 168 -49 111 -27
207 -79 283 -154 160 -160 238 -359 226 -582 -8 -157 -65 -301 -161 -405 -18
-19 -42 -51 -54 -70 -21 -35 -21 -35 1 -37 215 -18 200 -19 241 28 47 55 88
140 118 244 19 69 22 102 22 240 -1 140 -4 173 -27 259 -31 117 -97 256 -162
341 -77 102 -205 235 -247 256 -53 27 -180 59 -235 59 -41 0 -50 -5 -109 -62z"/>
<path d="M3560 4605 c-19 -22 -3 -51 74 -138 171 -192 250 -365 287 -625 16
-118 7 -419 -16 -492 -34 -110 -93 -206 -191 -311 -86 -91 -133 -152 -105
-135 5 4 40 2 76 -5 37 -6 91 -8 123 -4 53 6 61 11 110 63 63 65 116 142 163
232 39 76 41 117 20 360 -31 369 -57 517 -121 676 -63 158 -175 302 -283 364
-57 33 -117 39 -137 15z"/>
<path d="M3108 4233 c-14 -16 -38 -53 -55 -84 -29 -56 -29 -56 29 -69 148 -33
235 -153 226 -313 -3 -57 -12 -91 -44 -163 -41 -92 -41 -92 10 -98 131 -15
154 -5 185 86 82 239 -21 527 -227 636 -73 39 -91 40 -124 5z"/>
<path d="M5204 4098 c-21 -41 -29 -176 -15 -253 24 -127 91 -204 106 -121 11
55 -14 357 -31 384 -20 31 -41 28 -60 -10z"/>
</g>
</svg>
