<?xml version="1.0" standalone="no"?>
<!DOCTYPE svg PUBLIC "-//W3C//DTD SVG 20010904//EN"
 "http://www.w3.org/TR/2001/REC-SVG-20010904/DTD/svg10.dtd">
<svg version="1.0" xmlns="http://www.w3.org/2000/svg"
 width="1000.000000pt" height="1000.000000pt" viewBox="0 0 1000.000000 1000.000000"
 preserveAspectRatio="xMidYMid meet">
<metadata>
  <rdf:RDF
    xmlns:rdf = "http://www.w3.org/1999/02/22-rdf-syntax-ns#"
    xmlns:rdfs = "http://www.w3.org/2000/01/rdf-schema#"
    xmlns:dc = "http://purl.org/dc/elements/1.1/"
    xmlns:cc = "http://creativecommons.org/ns#">
    <cc:license rdf:resource="http://creativecommons.org/publicdomain/zero/1.0/deed.en"/>
    <cc:permits rdf:resource="http://creativecommons.org/ns#Reproduction"/>
    <rdf:Description about="https://nft.mir.one/fingerprints"
      dc:title="TON Fingerprints"
      dc:description="This is a unique digital fingerprint created based on the algorithm for generating basic rings using a noise texture. Like human fingerprints, you can now use it for the Web3 and Metaverse era as digital biometric information."
      dc:publisher="https://nft.mir.one"
      dc:date="2022-02-22"
      dc:format="image/svg+xml"
      dc:language="en" >
      <dc:creator>
      <rdf:Bag>
        <rdf:li>EQBondcvD2_aOFADXSWJHs4ZazQDuEl9_wNvGGPxI8hGuOFU</rdf:li>
        <rdf:li>ipfs://bafkreihj7iub3fhmhq6jn62noukt5wxn3gv6bvcg7wmt6ywvlurefezckq</rdf:li>
      </rdf:Bag>
      </dc:creator>
    </rdf:Description>
  </rdf:RDF>
</metadata>
<rect width="100%" height="100%" fill="#1b1f23"/>
<g transform="translate(0.000000,1000.000000) scale(0.100000,-0.100000)"
fill="#ffffff" stroke="none">
<path d="M5095 7771 c50 -21 137 -59 195 -84 58 -25 137 -60 175 -77 197 -91
526 -298 735 -461 58 -46 150 -117 205 -158 55 -41 122 -96 150 -121 33 -30
21 -13 -35 49 -376 417 -824 706 -1300 840 -199 56 -235 60 -125 12z"/>
<path d="M4460 7663 c-178 -17 -170 -15 -115 -30 28 -7 127 -27 220 -44 354
-62 570 -131 835 -265 371 -187 818 -540 1034 -817 167 -214 339 -564 395
-804 12 -53 28 -175 36 -288 14 -187 30 -265 54 -265 27 0 33 49 34 269 1 222
0 228 -30 341 -90 338 -262 700 -439 927 -133 170 -348 358 -619 542 -398 270
-696 392 -1047 430 -90 10 -276 12 -358 4z"/>
<path d="M4200 7450 c-58 -11 -161 -37 -230 -58 -124 -39 -124 -39 -72 -51 29
-6 120 -11 202 -11 242 0 726 -71 916 -135 266 -89 541 -266 825 -533 59 -55
140 -122 180 -149 139 -94 267 -255 384 -483 100 -196 161 -364 235 -645 17
-66 56 -192 85 -280 30 -88 68 -227 85 -310 17 -82 44 -206 60 -275 16 -69 34
-170 40 -225 6 -55 16 -147 23 -205 12 -105 12 -105 19 -35 18 179 25 355 17
415 -5 36 -20 169 -34 296 -32 293 -37 319 -68 352 -41 45 -65 105 -87 219
-64 333 -96 447 -180 635 -148 333 -289 514 -615 793 -265 225 -450 354 -674
465 -210 105 -399 163 -692 215 -169 30 -273 31 -419 5z"/>
<path d="M3988 7191 c-15 -5 -53 -25 -85 -44 -32 -19 -85 -43 -118 -52 -33 -9
-97 -32 -143 -51 -45 -19 -92 -34 -105 -34 -36 0 48 -43 134 -69 78 -24 308
-139 440 -221 42 -26 130 -89 194 -139 201 -157 244 -183 445 -267 196 -81
240 -118 408 -341 137 -182 235 -335 311 -490 128 -256 182 -436 230 -765 45
-301 52 -328 92 -328 45 0 49 93 19 420 -22 229 -40 322 -90 465 -82 231 -195
441 -343 636 -161 212 -185 249 -207 315 -17 50 -36 80 -80 127 -32 34 -74 89
-93 122 -19 33 -60 84 -89 113 -67 65 -243 193 -317 229 -99 49 -181 29 -135
-33 11 -15 102 -84 203 -154 248 -172 293 -220 208 -220 -40 0 -135 48 -266
133 -108 71 -196 152 -248 229 -29 43 -46 54 -209 135 -181 89 -222 121 -208
157 9 24 60 18 231 -24 67 -16 186 -41 265 -55 163 -30 180 -38 344 -160 148
-111 216 -166 329 -267 53 -49 122 -104 153 -124 275 -173 295 -184 349 -197
57 -14 84 -47 197 -237 121 -203 216 -404 359 -765 172 -431 195 -521 218
-840 6 -98 22 -211 39 -290 15 -71 33 -164 40 -205 6 -41 23 -133 37 -205 24
-125 25 -141 19 -385 -6 -255 -6 -255 14 -205 37 90 79 238 95 330 28 159 22
261 -28 535 -25 135 -57 328 -72 430 -52 372 -89 510 -240 915 -112 301 -176
443 -302 678 -113 210 -138 268 -159 374 -21 104 -53 160 -148 260 -141 150
-348 299 -551 398 -139 68 -230 93 -364 101 -58 3 -191 19 -296 36 -196 30
-429 44 -477 29z m900 -207 c97 -32 197 -86 337 -182 326 -223 480 -400 439
-506 -10 -27 -28 -18 -68 34 -53 70 -132 140 -313 281 -169 130 -284 210 -400
278 -40 23 -85 53 -100 66 -27 24 -28 25 -9 40 25 19 24 19 114 -11z"/>
<path d="M3500 6756 c-36 -13 -85 -35 -110 -49 -25 -15 -54 -27 -65 -27 -42
-1 61 -46 144 -64 198 -42 420 -139 611 -267 211 -142 223 -154 602 -616 144
-176 256 -371 325 -568 28 -80 28 -80 28 -495 0 -482 -4 -515 -91 -870 -73
-295 -101 -488 -74 -505 47 -29 110 94 201 397 53 176 87 363 98 530 8 131 6
207 -14 538 -6 97 -5 118 9 135 16 20 16 20 35 -3 65 -76 112 -590 77 -847
-29 -220 -106 -470 -197 -645 -29 -57 -57 -94 -96 -128 -30 -26 -95 -84 -144
-130 -93 -87 -121 -99 -127 -51 -2 14 11 60 28 102 38 96 53 258 27 292 -16
20 -16 20 -35 0 -11 -11 -36 -65 -57 -120 -21 -55 -58 -143 -83 -195 -69 -143
-162 -228 -400 -365 -97 -55 -152 -104 -152 -133 0 -31 17 -37 100 -33 115 4
213 48 455 201 66 42 148 88 183 103 87 37 142 76 245 176 139 134 240 303
316 530 99 295 118 519 72 841 -38 268 -67 366 -144 486 -24 38 -65 123 -92
189 -126 315 -245 508 -475 767 -115 129 -158 194 -147 221 11 29 37 19 106
-37 210 -173 408 -431 553 -721 74 -148 205 -464 233 -560 14 -49 46 -200 71
-335 45 -239 46 -249 41 -400 -6 -171 -25 -267 -92 -460 -122 -349 -285 -584
-534 -768 -204 -152 -490 -309 -641 -351 -41 -12 -95 -28 -120 -36 -25 -8 -61
-16 -80 -16 -79 -3 183 -38 285 -38 185 -1 260 23 432 136 124 81 237 173 346
281 205 202 326 401 461 761 82 220 107 326 113 491 6 146 6 146 -35 247 -23
55 -48 136 -56 179 -8 44 -27 142 -42 219 -47 246 -119 454 -241 699 -123 245
-269 454 -427 612 -123 122 -213 173 -324 183 -78 7 -73 4 -273 152 -197 145
-292 206 -434 277 -140 70 -253 112 -298 112 -18 0 -61 -11 -97 -24z"/>
<path d="M3378 6450 c-32 -10 -114 -57 -181 -105 -48 -34 -48 -34 -11 -50 20
-8 45 -15 56 -15 11 0 68 -7 126 -16 229 -34 464 -135 657 -283 56 -43 262
-233 421 -387 162 -159 272 -367 326 -617 18 -86 22 -134 22 -312 1 -291 -34
-488 -142 -805 -28 -80 -60 -179 -72 -220 -28 -94 -95 -225 -160 -311 -64 -86
-140 -125 -140 -72 0 8 28 59 63 112 123 188 153 255 123 280 -8 7 -24 10 -35
6 -54 -17 -200 -240 -237 -362 -29 -97 -69 -152 -175 -243 -91 -79 -116 -91
-135 -65 -29 39 -13 74 102 231 44 60 102 145 129 189 80 132 178 256 260 330
43 38 91 89 107 114 93 147 195 535 205 776 8 220 -34 419 -131 620 -30 61
-75 137 -101 170 -75 97 -165 144 -173 90 -2 -12 33 -90 77 -175 148 -287 195
-447 195 -660 0 -133 0 -137 -37 -228 -20 -52 -44 -122 -52 -155 -66 -262
-106 -333 -369 -662 -233 -292 -359 -424 -483 -507 -29 -19 -63 -50 -76 -69
-22 -34 -22 -34 58 -67 44 -18 116 -46 160 -62 44 -15 98 -36 120 -45 83 -36
189 5 394 152 159 112 222 182 308 334 54 98 77 129 114 156 26 18 49 41 52
51 157 528 187 700 187 1082 0 335 -24 465 -121 669 -90 190 -210 346 -479
624 -249 258 -499 411 -805 493 -97 26 -106 27 -147 14z"/>
<path d="M5933 6395 c-12 -33 11 -87 122 -285 176 -317 239 -462 377 -870 124
-368 149 -474 224 -928 24 -151 53 -314 64 -363 11 -50 26 -136 35 -192 8 -56
21 -122 28 -146 14 -44 14 -44 31 105 15 129 16 175 6 333 -13 224 -67 544
-140 832 -33 128 -217 708 -259 816 -110 280 -288 587 -397 682 -37 33 -81 41
-91 16z"/>
<path d="M5254 6276 c-12 -32 7 -64 108 -172 201 -216 326 -415 442 -706 92
-230 100 -264 101 -438 1 -85 5 -229 9 -320 7 -135 5 -182 -8 -258 -9 -50 -16
-134 -16 -185 0 -195 -31 -312 -178 -672 -130 -320 -200 -454 -325 -620 -134
-178 -406 -416 -629 -549 -51 -31 -110 -71 -130 -89 -37 -34 -37 -34 100 -4
151 32 303 86 401 144 72 43 224 190 321 309 155 193 269 407 365 684 62 180
77 214 108 248 20 21 67 31 67 13 0 -27 -73 -332 -100 -416 -98 -306 -264
-569 -519 -825 -74 -74 -157 -158 -184 -187 -49 -52 -49 -52 74 13 157 83 178
96 267 162 111 81 229 198 285 282 69 105 160 295 202 422 71 214 84 451 31
543 -32 54 -32 82 -2 231 39 189 59 234 126 278 67 44 83 89 88 247 7 245 -25
401 -123 592 -36 70 -95 205 -131 300 -157 409 -329 706 -481 832 -153 126
-254 179 -269 141z m805 -1351 c43 -56 89 -360 76 -510 -10 -106 -31 -175 -55
-175 -11 0 -24 9 -30 20 -6 11 -12 107 -15 222 -2 112 -9 235 -14 273 -6 39
-10 95 -11 126 0 76 13 88 49 44z"/>
<path d="M3231 6088 c-24 -12 -84 -60 -134 -107 -101 -97 -111 -90 101 -75
111 8 199 -5 322 -48 181 -64 352 -171 431 -270 53 -68 72 -107 99 -203 12
-44 64 -168 115 -275 120 -251 140 -301 171 -434 39 -164 45 -181 74 -181 16
0 29 9 37 25 30 58 5 274 -50 435 -13 39 -57 147 -98 240 -74 170 -74 170 -74
266 0 96 0 96 -45 154 -177 232 -462 413 -738 469 -134 27 -163 28 -211 4z"/>
<path d="M3155 5755 c-16 -9 -45 -31 -64 -48 -50 -48 -156 -191 -134 -182 10
4 29 10 43 15 14 4 48 19 76 33 93 47 261 75 279 47 18 -29 -10 -54 -130 -110
-132 -62 -155 -83 -220 -201 -27 -50 -102 -251 -87 -234 4 6 37 43 73 84 79
91 150 146 254 198 135 68 204 86 304 81 71 -4 102 -11 176 -42 149 -63 154
-64 176 -37 17 21 17 26 4 59 -32 80 -190 191 -335 237 -30 9 -99 37 -152 62
-114 52 -211 66 -263 38z"/>
<path d="M7051 5228 c-22 -166 -23 -272 -3 -428 19 -145 19 -145 18 193 0 185
-1 337 -1 337 0 0 -7 -46 -14 -102z"/>
<path d="M3450 5290 c-122 -19 -267 -94 -340 -177 -57 -65 -95 -179 -114 -344
-7 -54 5 -109 22 -109 10 0 41 66 76 161 32 87 62 133 125 192 62 58 136 94
217 105 184 24 361 -63 436 -215 31 -63 32 -71 36 -212 7 -241 -21 -378 -103
-506 -122 -192 -332 -318 -562 -339 -37 -4 -85 -12 -105 -18 -37 -11 -37 -11
37 -65 144 -105 185 -111 326 -49 113 49 205 114 301 214 98 102 166 210 206
327 25 76 27 89 27 280 0 110 4 205 8 212 12 19 36 4 57 -36 50 -100 69 -345
36 -471 -65 -243 -313 -542 -550 -662 -77 -39 -126 -56 -206 -73 -36 -7 -82
-20 -102 -27 -38 -14 -38 -14 -5 -31 17 -9 61 -35 97 -57 36 -23 89 -48 118
-56 52 -16 52 -16 119 21 92 51 163 107 269 217 228 234 341 398 403 583 38
113 47 203 28 270 -8 28 -29 102 -46 165 -18 63 -47 142 -65 175 -76 139 -200
333 -239 374 -49 51 -128 90 -253 125 -107 29 -180 37 -254 26z"/>
<path d="M3398 4977 c-134 -38 -231 -200 -167 -281 40 -50 105 -69 152 -45 43
23 50 64 13 78 -36 14 -39 38 -10 68 35 35 97 28 137 -17 112 -125 -133 -330
-285 -237 -20 12 -53 35 -73 51 -31 25 -39 27 -60 18 -34 -15 -42 -67 -20
-131 22 -68 62 -106 126 -121 129 -31 258 16 361 131 85 95 125 89 94 -14 -54
-178 -287 -309 -493 -276 -37 6 -95 13 -127 16 -60 6 -60 6 -7 -58 60 -73 121
-125 169 -146 40 -17 120 -5 218 32 210 79 364 277 364 467 0 91 -27 234 -57
301 -57 128 -205 200 -335 164z"/>
<path d="M6241 4092 c-33 -26 -50 -110 -62 -307 -8 -134 -8 -199 1 -255 22
-143 23 -211 6 -303 -32 -171 -128 -417 -218 -561 -18 -28 -56 -96 -85 -150
-49 -92 -50 -97 -21 -70 85 80 238 261 303 359 88 131 169 297 190 386 37 164
66 342 60 372 -4 18 -20 52 -35 77 -25 41 -29 59 -39 195 -18 227 -46 301
-100 257z m92 -475 c6 -15 -6 -98 -17 -115 -13 -21 -34 -13 -41 16 -11 54 41
144 58 99z"/>
</g>
</svg>
