<?xml version="1.0" standalone="no"?>
<!DOCTYPE svg PUBLIC "-//W3C//DTD SVG 20010904//EN"
 "http://www.w3.org/TR/2001/REC-SVG-20010904/DTD/svg10.dtd">
<svg version="1.0" xmlns="http://www.w3.org/2000/svg"
 width="1000.000000pt" height="1000.000000pt" viewBox="0 0 1000.000000 1000.000000"
 preserveAspectRatio="xMidYMid meet">
<metadata>
  <rdf:RDF
    xmlns:rdf = "http://www.w3.org/1999/02/22-rdf-syntax-ns#"
    xmlns:rdfs = "http://www.w3.org/2000/01/rdf-schema#"
    xmlns:dc = "http://purl.org/dc/elements/1.1/"
    xmlns:cc = "http://creativecommons.org/ns#">
    <cc:license rdf:resource="http://creativecommons.org/publicdomain/zero/1.0/deed.en"/>
    <cc:permits rdf:resource="http://creativecommons.org/ns#Reproduction"/>
    <rdf:Description about="https://nft.mir.one/fingerprints"
      dc:title="TON Fingerprints"
      dc:description="This is a unique digital fingerprint created based on the algorithm for generating basic rings using a noise texture. Like human fingerprints, you can now use it for the Web3 and Metaverse era as digital biometric information."
      dc:publisher="https://nft.mir.one"
      dc:date="2022-02-22"
      dc:format="image/svg+xml"
      dc:language="en" >
      <dc:creator>
      <rdf:Bag>
        <rdf:li>EQBondcvD2_aOFADXSWJHs4ZazQDuEl9_wNvGGPxI8hGuOFU</rdf:li>
        <rdf:li>ipfs://bafkreihj7iub3fhmhq6jn62noukt5wxn3gv6bvcg7wmt6ywvlurefezckq</rdf:li>
      </rdf:Bag>
      </dc:creator>
    </rdf:Description>
  </rdf:RDF>
</metadata>
<rect width="100%" height="100%" fill="#1b1f23"/>
<g transform="translate(0.000000,1000.000000) scale(0.100000,-0.100000)"
fill="#ffffff" stroke="none">
<path d="M5271 7776 c2 -2 15 -9 29 -15 24 -11 24 -11 6 3 -16 13 -49 24 -35
12z"/>
<path d="M5575 7679 c55 -16 105 -29 110 -28 20 2 -160 58 -185 58 -14 0 20
-14 75 -30z"/>
<path d="M4445 7663 c-22 -1 -65 -6 -95 -9 -55 -6 -55 -6 10 -29 36 -12 129
-35 208 -50 297 -56 647 -152 827 -227 149 -62 197 -89 316 -178 73 -55 165
-106 414 -229 176 -87 350 -176 387 -199 37 -22 78 -44 90 -48 13 -3 40 -15
60 -25 30 -15 19 -1 -55 70 -51 50 -110 104 -132 122 -89 72 -290 195 -457
280 -180 91 -229 129 -207 155 25 30 112 7 289 -78 102 -48 271 -118 288 -118
2 0 -68 47 -155 105 -195 131 -268 167 -416 205 -116 31 -201 62 -375 139 -98
43 -246 73 -532 106 -111 13 -353 18 -465 8z"/>
<path d="M4285 7444 c-114 -14 -197 -30 -312 -61 -132 -36 -132 -36 -80 -54
29 -10 66 -19 82 -19 54 0 293 -39 438 -71 327 -71 736 -217 1140 -406 118
-55 118 -55 154 -38 26 13 50 16 87 12 99 -12 400 -182 643 -363 112 -83 289
-252 466 -444 79 -85 79 -85 41 -15 -216 406 -341 556 -579 697 -169 100 -374
203 -511 258 -60 24 -186 81 -280 126 -223 108 -333 153 -518 213 -169 55
-474 133 -604 156 -82 15 -105 16 -167 9z"/>
<path d="M3810 7127 c-41 -13 -117 -40 -169 -62 -112 -47 -114 -46 109 -75
502 -67 991 -242 1231 -442 71 -59 97 -102 144 -238 44 -127 63 -161 224 -405
69 -104 147 -232 172 -282 53 -105 117 -295 154 -458 26 -115 43 -255 31 -255
-21 0 -50 26 -63 58 -8 20 -33 98 -54 172 -81 278 -136 398 -255 555 -42 55
-152 213 -244 350 -182 272 -249 348 -380 436 -215 144 -586 279 -988 360 -74
15 -140 5 -224 -35 -77 -37 -169 -98 -138 -91 14 3 76 7 137 8 97 2 113 0 132
-17 42 -38 31 -47 -74 -65 -96 -18 -173 -84 -119 -105 45 -17 161 2 262 43
106 43 218 21 427 -83 83 -41 179 -87 215 -101 291 -119 490 -293 694 -607 84
-129 95 -160 94 -253 -1 -75 4 -95 80 -320 125 -367 149 -481 139 -658 -8
-154 -34 -215 -74 -175 -11 12 -17 54 -24 164 -15 257 -44 369 -206 824 -39
107 -84 222 -100 255 -97 190 -309 400 -499 494 -189 93 -266 98 -569 34 -218
-46 -266 -61 -507 -155 -127 -49 -171 -72 -208 -105 -47 -42 -217 -227 -190
-207 44 34 610 221 768 254 142 30 345 37 452 16 169 -35 306 -111 446 -251
105 -103 168 -194 247 -351 147 -293 212 -515 237 -806 6 -69 15 -152 20 -185
23 -138 1 -266 -68 -397 -66 -126 -170 -216 -405 -355 -199 -116 -275 -147
-458 -186 -196 -41 -244 -35 -458 60 -79 35 -113 45 -145 43 -112 -8 -15 -116
239 -268 50 -30 129 -80 177 -111 99 -65 147 -83 258 -100 188 -27 396 43 592
200 162 129 235 250 157 259 -20 2 -62 -21 -165 -91 -156 -106 -228 -145 -341
-184 -68 -24 -94 -27 -203 -27 -101 -1 -131 2 -157 16 -75 42 -50 64 95 83 62
8 140 22 175 30 71 19 238 98 377 180 55 32 130 66 180 81 81 25 88 29 160
104 102 105 132 165 181 362 22 89 60 211 85 270 106 258 100 355 -51 803 -35
105 -86 241 -115 304 -28 63 -48 121 -46 128 18 45 101 -30 154 -140 41 -84
236 -643 247 -707 3 -19 10 -77 15 -128 8 -83 12 -97 39 -128 18 -20 39 -63
52 -103 22 -74 37 -95 66 -89 34 6 37 63 14 209 -12 74 -25 188 -28 255 -5
107 -4 126 16 177 36 97 26 211 -46 497 -70 283 -118 386 -299 645 -123 176
-167 258 -162 305 7 72 23 58 201 -163 211 -262 287 -393 313 -537 9 -47 27
-141 40 -210 66 -327 66 -324 58 -600 -5 -184 -3 -291 7 -385 18 -173 16 -201
-13 -260 -14 -28 -46 -100 -71 -162 -55 -133 -80 -175 -135 -225 -32 -28 -53
-39 -91 -44 -31 -4 -57 -14 -68 -26 -10 -11 -49 -38 -88 -61 -92 -54 -152
-117 -243 -257 -126 -192 -342 -391 -509 -468 -107 -49 -196 -65 -333 -59
-137 6 -208 24 -315 77 -117 59 -418 287 -490 372 -16 18 -41 62 -58 98 -16
35 -67 111 -113 169 -101 126 -173 265 -211 406 -36 136 -38 347 -5 470 37
136 72 195 155 261 39 32 112 96 160 142 49 46 148 127 220 181 73 54 147 116
165 139 40 51 73 61 222 68 150 7 160 9 160 37 0 87 -164 148 -400 148 -140 0
-208 -14 -305 -62 -155 -76 -358 -266 -421 -394 -30 -61 -37 -91 -54 -220 -38
-305 -36 -454 11 -685 51 -250 177 -536 325 -733 82 -109 449 -485 530 -543
129 -92 262 -126 489 -126 241 0 362 44 485 175 41 44 145 153 230 242 95 99
188 208 239 281 129 182 131 184 151 184 28 0 43 -36 36 -82 -19 -115 -153
-293 -363 -479 -112 -99 -143 -138 -143 -179 0 -47 98 -10 250 94 103 71 257
221 321 314 51 73 286 534 371 727 22 50 75 158 117 240 88 167 103 210 126
340 20 108 22 380 6 505 -41 305 -109 506 -212 631 -28 33 -80 110 -116 170
-112 190 -314 420 -470 536 -40 29 -73 57 -73 61 0 38 72 41 139 7 105 -53
353 -285 469 -439 51 -67 195 -349 253 -494 73 -182 118 -431 126 -687 8 -292
-20 -426 -154 -730 -76 -172 -94 -216 -178 -430 -75 -191 -214 -434 -325 -565
-177 -211 -443 -370 -618 -370 -51 0 -63 -4 -86 -26 -30 -31 -32 -46 -10 -68
23 -24 57 -29 152 -24 148 9 333 82 518 206 124 84 174 140 330 379 198 301
206 316 215 430 7 79 16 113 55 206 126 303 155 379 179 462 80 279 78 572 -7
975 -40 192 -74 292 -147 439 -67 133 -75 171 -37 171 41 0 130 -113 192 -244
36 -75 91 -317 146 -636 31 -181 31 -462 -1 -610 -34 -163 -92 -322 -192 -532
-97 -204 -115 -263 -84 -274 100 -39 348 406 422 756 14 67 18 130 18 295 -1
238 -6 277 -87 612 -44 181 -50 217 -40 239 21 45 43 26 83 -73 65 -158 134
-425 165 -638 20 -131 15 -339 -10 -455 -27 -124 -75 -258 -141 -395 -95 -196
-168 -299 -324 -460 -140 -143 -324 -373 -367 -457 -25 -49 -32 -122 -14 -133
32 -20 245 180 445 418 336 399 535 900 535 1345 0 121 -37 376 -75 518 -57
215 -129 352 -213 404 -38 23 -66 55 -125 143 -84 124 -179 226 -247 264 -98
56 -150 96 -270 208 -141 133 -422 368 -500 419 -28 18 -106 53 -173 76 -67
24 -156 57 -197 75 -41 18 -144 63 -229 99 -271 118 -560 207 -830 255 -145
26 -217 26 -311 -2z m2177 -1567 c38 -75 86 -253 107 -393 54 -356 8 -802 -84
-815 -22 -4 -22 -3 -16 75 3 43 8 202 12 353 7 311 0 385 -61 640 -35 145 -41
191 -28 204 17 17 40 -4 70 -64z m-2199 -253 c25 -19 10 -35 -63 -67 -122 -53
-221 -125 -362 -263 -135 -133 -163 -148 -163 -91 0 46 42 115 124 201 165
175 387 281 464 220z"/>
<path d="M5676 6745 c-16 -43 40 -110 189 -223 218 -165 593 -470 652 -529 64
-65 273 -322 332 -408 56 -83 106 -200 172 -407 34 -109 64 -196 66 -195 6 7
-58 355 -82 445 -34 126 -115 320 -178 425 -117 194 -311 380 -647 619 -211
150 -393 258 -476 282 -15 5 -24 2 -28 -9z"/>
<path d="M3305 6442 c-27 -15 -70 -42 -94 -60 -50 -37 -60 -33 94 -36 84 -1
137 -19 143 -47 3 -18 -18 -28 -108 -53 -61 -17 -151 -84 -235 -174 -50 -54
-50 -54 -15 -47 72 14 322 119 396 166 81 51 106 59 279 83 167 25 211 35 230
56 25 27 15 61 -25 84 -32 19 -52 21 -255 21 -186 1 -226 3 -259 18 -54 24
-93 21 -151 -11z"/>
<path d="M3825 5803 c-143 -18 -289 -58 -433 -120 -104 -44 -105 -44 -139 -28
-70 33 -150 -7 -259 -131 -58 -66 -58 -66 -23 -59 36 7 147 65 237 121 29 19
57 34 62 34 6 0 10 -14 10 -31 0 -34 -27 -64 -157 -176 -73 -63 -126 -158
-184 -331 -39 -116 -39 -116 -9 -82 17 19 49 61 71 93 22 32 71 90 107 129 91
96 298 268 369 306 193 103 493 121 694 42 145 -58 360 -245 501 -437 61 -83
141 -241 169 -333 28 -93 30 -198 5 -255 -10 -22 -22 -86 -27 -145 -5 -58 -18
-134 -29 -170 -56 -186 -205 -325 -374 -349 -77 -11 -237 1 -328 25 -81 21
-156 23 -167 5 -40 -64 98 -132 302 -150 118 -10 157 -21 157 -45 0 -36 -168
-64 -282 -46 -142 22 -241 88 -278 187 -31 83 -23 189 18 226 19 17 41 12 237
-54 151 -51 163 -53 238 -42 137 20 241 93 299 211 28 55 34 80 37 149 3 75 0
88 -28 149 -152 324 -394 440 -653 312 -77 -38 -211 -169 -251 -245 -37 -69
-67 -191 -67 -271 0 -35 7 -112 16 -169 8 -58 13 -112 10 -119 -3 -8 -19 -14
-35 -14 -39 0 -85 45 -119 117 -25 54 -27 67 -27 188 0 121 2 135 31 205 99
245 366 466 603 498 83 12 180 -2 248 -35 70 -34 183 -144 233 -227 95 -158
109 -176 134 -176 40 0 46 39 21 135 -51 195 -225 415 -394 500 -63 32 -100
34 -161 7 -25 -11 -61 -23 -80 -27 -117 -25 -195 -59 -308 -135 -259 -173
-438 -367 -499 -541 -35 -99 -43 -262 -18 -374 26 -117 93 -242 175 -325 62
-62 85 -78 232 -150 205 -101 293 -125 428 -117 112 6 210 34 266 77 59 46
130 92 224 146 121 70 253 203 302 304 56 116 68 189 68 413 0 299 -26 410
-155 672 -191 386 -453 609 -770 655 -68 9 -188 11 -250 3z m462 -1137 c141
-66 220 -229 178 -371 -13 -46 -28 -70 -74 -116 -48 -47 -69 -61 -125 -78 -76
-23 -102 -26 -111 -11 -11 18 4 45 42 70 138 92 182 190 134 296 -33 72 -117
117 -185 100 -67 -17 -113 -94 -83 -140 23 -34 53 -38 85 -11 36 30 62 18 62
-29 0 -70 -79 -126 -177 -126 -100 0 -154 52 -155 149 0 67 19 121 61 177 80
106 230 144 348 90z"/>
<path d="M5572 4447 c-24 -29 -42 -104 -72 -303 -21 -134 -30 -222 -25 -250 6
-40 37 -94 54 -94 13 0 77 110 99 171 42 113 46 169 22 303 -12 67 -24 134
-28 151 -8 33 -32 44 -50 22z"/>
<path d="M6714 3423 c-59 -78 -359 -397 -432 -459 -100 -85 -163 -116 -233
-113 -41 2 -66 -3 -104 -22 -27 -14 -77 -36 -110 -49 -33 -13 -64 -27 -70 -31
-31 -23 -282 -140 -346 -163 -192 -65 -314 -78 -460 -46 -101 22 -109 22 -291
10 -191 -14 -388 -10 -514 10 -39 6 -102 10 -140 8 -69 -3 -69 -3 56 -49 275
-103 423 -131 765 -145 256 -10 448 16 669 93 122 42 238 100 332 164 39 27
78 49 88 49 11 0 23 -14 33 -40 19 -47 36 -51 52 -11 15 35 64 81 166 157 168
124 377 363 541 620 40 63 39 71 -2 17z"/>
<path d="M3583 2943 c48 -51 87 -98 87 -104 0 -7 3 -9 6 -6 12 12 -47 85 -115
144 -65 56 -65 56 22 -34z"/>
<path d="M5570 2315 c-124 -41 -258 -76 -385 -101 -76 -15 -98 -22 -60 -18 91
8 275 51 413 95 67 22 122 42 122 45 0 7 -12 4 -90 -21z"/>
<path d="M5003 2183 c9 -2 25 -2 35 0 9 3 1 5 -18 5 -19 0 -27 -2 -17 -5z"/>
<path d="M4908 2173 c7 -3 16 -2 19 1 4 3 -2 6 -13 5 -11 0 -14 -3 -6 -6z"/>
</g>
</svg>
