<?xml version="1.0" standalone="no"?>
<!DOCTYPE svg PUBLIC "-//W3C//DTD SVG 20010904//EN"
 "http://www.w3.org/TR/2001/REC-SVG-20010904/DTD/svg10.dtd">
<svg version="1.0" xmlns="http://www.w3.org/2000/svg"
 width="1000.000000pt" height="1000.000000pt" viewBox="0 0 1000.000000 1000.000000"
 preserveAspectRatio="xMidYMid meet">
<metadata>
  <rdf:RDF
    xmlns:rdf = "http://www.w3.org/1999/02/22-rdf-syntax-ns#"
    xmlns:rdfs = "http://www.w3.org/2000/01/rdf-schema#"
    xmlns:dc = "http://purl.org/dc/elements/1.1/"
    xmlns:cc = "http://creativecommons.org/ns#">
    <cc:license rdf:resource="http://creativecommons.org/publicdomain/zero/1.0/deed.en"/>
    <cc:permits rdf:resource="http://creativecommons.org/ns#Reproduction"/>
    <rdf:Description about="https://nft.mir.one/fingerprints"
      dc:title="TON Fingerprints"
      dc:description="This is a unique digital fingerprint created based on the algorithm for generating basic rings using a noise texture. Like human fingerprints, you can now use it for the Web3 and Metaverse era as digital biometric information."
      dc:publisher="https://nft.mir.one"
      dc:date="2022-02-22"
      dc:format="image/svg+xml"
      dc:language="en" >
      <dc:creator>
      <rdf:Bag>
        <rdf:li>EQBondcvD2_aOFADXSWJHs4ZazQDuEl9_wNvGGPxI8hGuOFU</rdf:li>
        <rdf:li>ipfs://bafkreihj7iub3fhmhq6jn62noukt5wxn3gv6bvcg7wmt6ywvlurefezckq</rdf:li>
      </rdf:Bag>
      </dc:creator>
    </rdf:Description>
  </rdf:RDF>
</metadata>
<rect width="100%" height="100%" fill="#1b1f23"/>
<g transform="translate(0.000000,1000.000000) scale(0.100000,-0.100000)"
fill="#ffffff" stroke="none">
<path d="M4965 7770 c51 -55 129 -105 276 -180 65 -33 151 -87 191 -119 162
-129 498 -511 640 -726 88 -134 242 -438 312 -617 118 -302 168 -581 146 -823
-9 -97 -9 -165 -1 -265 30 -362 24 -647 -20 -990 -25 -202 -60 -345 -108 -444
-22 -45 -46 -98 -55 -118 -26 -64 -58 -52 -130 51 -97 138 -143 258 -165 436
-13 96 -9 135 29 348 50 276 31 573 -51 821 -42 127 -111 263 -259 509 -171
286 -261 423 -349 531 -98 118 -125 164 -157 258 -32 97 -106 199 -226 314
-81 78 -100 90 -258 163 -25 11 -119 80 -210 154 -246 198 -357 274 -418 287
-28 6 -103 12 -166 13 -115 2 -115 2 -88 -26 15 -16 79 -63 142 -104 169 -111
302 -216 410 -323 93 -91 119 -128 228 -315 43 -75 55 -93 392 -560 322 -447
439 -625 550 -841 80 -155 115 -263 91 -278 -28 -18 -51 13 -161 210 -144 255
-276 448 -655 954 -138 184 -294 396 -347 470 -166 235 -298 366 -527 526 -78
53 -90 59 -148 62 -35 3 -102 1 -149 -3 -85 -7 -85 -7 -52 -36 18 -16 78 -55
133 -88 219 -129 405 -296 580 -521 49 -63 202 -257 341 -430 323 -405 448
-572 599 -800 67 -102 157 -238 201 -303 191 -285 196 -303 184 -597 -2 -36
-1 -72 1 -80 3 -12 -7 -15 -48 -15 -81 1 -113 33 -205 208 -135 257 -371 585
-651 907 -139 159 -607 625 -692 689 -38 28 -140 87 -225 129 -85 43 -227 115
-314 161 -156 81 -161 83 -216 78 -31 -2 -81 -13 -112 -22 -56 -18 -56 -18
-29 -40 14 -13 55 -35 91 -50 111 -47 349 -170 490 -255 167 -100 272 -183
541 -430 241 -222 408 -392 557 -570 125 -150 389 -499 424 -561 13 -24 46
-81 72 -127 62 -109 57 -117 -66 -108 -48 4 -106 13 -128 21 -100 35 -215 140
-379 345 -236 295 -589 608 -660 585 -45 -14 -32 -68 32 -142 17 -20 109 -102
202 -183 217 -187 284 -260 337 -367 32 -66 56 -98 112 -150 208 -194 364
-273 671 -342 222 -50 269 -82 367 -247 52 -89 166 -331 200 -426 30 -84 33
-282 5 -371 -22 -71 -49 -102 -77 -87 -27 15 -40 71 -40 178 0 157 -46 321
-140 500 -61 116 -105 171 -155 193 -49 22 -73 17 -81 -17 -7 -29 -2 -43 76
-211 102 -222 180 -484 164 -550 -10 -37 -48 -30 -79 15 -25 37 -142 324 -236
582 -28 74 -60 151 -73 170 -15 24 -75 68 -182 137 -149 95 -204 135 -464 337
-58 45 -149 102 -213 135 -62 31 -151 84 -197 117 -47 34 -100 69 -118 78 -40
21 -72 13 -72 -17 0 -56 108 -160 311 -302 246 -171 365 -281 511 -470 88
-114 229 -248 256 -243 15 3 17 13 14 72 -4 66 -3 68 19 64 33 -4 56 -52 68
-138 15 -110 177 -505 263 -642 97 -156 128 -245 128 -374 0 -29 4 -55 9 -59
5 -3 12 -19 16 -35 4 -17 10 -30 13 -30 4 1 21 23 37 50 84 138 196 292 257
353 126 124 187 225 232 379 36 123 43 138 95 198 70 82 90 114 127 202 92
217 150 558 161 933 5 211 -16 776 -38 975 -31 287 -105 535 -260 873 -141
307 -258 511 -442 777 -116 167 -201 256 -346 364 -161 120 -231 157 -316 167
-63 8 -216 58 -350 114 -40 17 -40 17 0 -25z m-122 -1017 c76 -53 191 -201
321 -412 42 -68 121 -185 175 -260 256 -354 482 -742 544 -936 73 -229 93
-604 40 -771 -30 -97 -108 -161 -143 -119 -10 12 -8 26 13 73 45 102 58 234
36 372 -5 36 -13 135 -18 220 -7 146 -10 160 -44 245 -74 184 -232 452 -451
763 -132 188 -380 545 -476 685 -61 90 -77 125 -66 152 8 22 25 19 69 -12z"/>
<path d="M5331 7764 c0 -11 3 -14 6 -6 3 7 2 16 -1 19 -3 4 -6 -2 -5 -13z"/>
<path d="M4537 7697 c21 -21 142 -111 268 -199 300 -210 394 -281 498 -375
181 -166 283 -299 317 -413 43 -144 448 -973 506 -1035 52 -57 78 -9 49 91
-35 120 -217 511 -364 782 -44 81 -83 159 -86 175 -6 24 -4 27 18 27 13 0 36
-9 51 -21 46 -36 144 -198 251 -414 173 -351 234 -532 221 -658 -5 -47 -2 -81
14 -142 41 -154 88 -226 124 -190 27 27 28 80 6 261 -37 304 -93 475 -275 833
-127 252 -160 294 -456 591 -304 306 -344 341 -534 466 -208 136 -281 168
-518 228 -127 32 -127 32 -90 -7z"/>
<path d="M4192 7546 c24 -23 88 -74 143 -111 55 -38 183 -130 285 -205 102
-75 233 -168 291 -208 146 -99 240 -182 356 -314 55 -62 125 -135 157 -161 64
-55 114 -122 122 -165 11 -52 -14 -46 -85 22 -68 67 -96 80 -108 49 -11 -29
39 -103 115 -172 88 -78 127 -132 257 -351 54 -91 143 -239 199 -330 242 -396
301 -569 313 -910 4 -127 1 -223 -17 -420 -20 -223 -21 -271 -12 -386 17 -199
57 -291 102 -236 28 34 37 95 65 413 43 497 43 736 0 981 -21 119 -32 144 -95
233 -32 44 -76 117 -99 162 -22 44 -62 107 -89 140 -74 89 -100 131 -229 368
-158 289 -188 349 -208 421 -58 203 -260 486 -485 678 -144 123 -607 453 -667
476 -52 19 -216 50 -269 50 -18 0 -44 4 -59 10 -22 8 -19 3 17 -34z"/>
<path d="M5998 7418 c14 -40 75 -156 135 -258 111 -188 335 -632 447 -885 75
-170 151 -392 185 -542 60 -266 90 -640 89 -1103 0 -303 -3 -362 -22 -485 -40
-257 -107 -502 -199 -723 -46 -111 -117 -340 -109 -350 4 -4 145 294 192 406
61 145 130 352 174 527 66 258 90 476 90 821 0 523 -67 938 -210 1303 -93 239
-347 742 -467 926 -56 86 -320 435 -329 435 -1 0 9 -33 24 -72z"/>
<path d="M3509 6907 c-56 -10 -56 -10 -25 -37 17 -15 72 -48 121 -73 126 -63
266 -159 353 -241 81 -77 106 -117 116 -186 7 -41 18 -55 136 -170 213 -208
494 -512 692 -750 239 -288 500 -664 604 -873 72 -143 88 -167 114 -167 27 0
31 37 14 113 -34 146 -59 194 -276 519 -249 372 -366 524 -788 1018 -129 151
-281 334 -336 405 -149 191 -269 302 -448 412 -67 41 -73 43 -146 42 -41 -1
-100 -6 -131 -12z"/>
<path d="M6640 6723 c0 -14 168 -345 181 -358 10 -9 -167 353 -177 364 -2 2
-4 0 -4 -6z"/>
<path d="M3405 6675 c-27 -8 -63 -14 -79 -15 -30 0 -30 0 5 -26 19 -14 70 -43
114 -64 44 -20 161 -82 260 -137 99 -56 199 -106 222 -113 45 -14 93 -7 93 13
0 52 -182 195 -401 315 -84 47 -125 52 -214 27z"/>
<path d="M3235 6203 c-11 -2 -46 -14 -79 -25 -59 -21 -59 -21 -31 -42 16 -11
78 -41 138 -68 267 -116 397 -207 657 -463 180 -177 216 -207 293 -249 48 -26
125 -75 170 -109 121 -91 343 -318 512 -522 227 -274 357 -390 399 -356 13 11
13 18 3 41 -18 43 -425 544 -564 695 -129 140 -217 222 -413 385 -69 57 -186
159 -262 226 -219 197 -368 299 -617 426 -126 64 -155 72 -206 61z"/>
<path d="M3097 5937 c-32 -13 -58 -26 -58 -31 0 -14 45 -41 106 -65 175 -70
425 -214 459 -265 24 -38 21 -56 -11 -56 -15 0 -116 43 -226 96 -191 92 -202
96 -251 91 -28 -3 -73 -15 -99 -27 -49 -22 -49 -22 -14 -46 20 -13 39 -24 42
-24 4 0 98 -38 209 -84 111 -47 248 -98 304 -114 56 -17 122 -42 146 -56 47
-27 86 -69 86 -93 0 -21 -43 -33 -87 -23 -52 12 -273 93 -445 164 -75 31 -152
56 -170 56 -18 0 -61 -13 -94 -28 -86 -39 -135 -12 547 -300 130 -54 261 -115
290 -135 30 -20 101 -77 159 -128 103 -90 213 -169 234 -169 26 0 142 -64 245
-134 143 -97 181 -108 181 -49 0 37 -112 143 -301 285 -198 149 -291 246 -349
365 -23 48 -60 123 -81 165 -53 108 -237 347 -313 407 -128 102 -354 221 -415
220 -20 0 -62 -10 -94 -22z"/>
<path d="M2977 5172 c-68 -27 -68 -27 -45 -44 13 -10 64 -39 113 -65 97 -50
397 -230 528 -318 135 -89 240 -179 359 -308 164 -177 374 -385 443 -438 33
-26 121 -85 197 -133 75 -47 151 -100 169 -117 32 -30 33 -32 14 -45 -28 -21
-47 -18 -192 31 -73 25 -138 45 -145 45 -62 0 -87 21 -296 248 -329 358 -460
476 -686 620 -102 66 -231 158 -307 221 -50 41 -56 43 -104 38 -27 -2 -63 -10
-80 -16 -30 -13 -30 -13 10 -44 59 -47 95 -84 95 -98 0 -20 -82 -90 -113 -96
-27 -6 -27 -6 16 -28 24 -13 72 -29 108 -35 218 -39 565 -277 811 -556 188
-212 229 -286 322 -569 101 -311 110 -346 108 -455 -6 -442 1 -709 20 -676 5
9 43 33 84 53 43 21 90 53 110 75 30 34 34 44 34 96 0 160 -67 498 -149 756
-78 242 -98 335 -79 373 7 15 21 29 30 31 23 4 72 -82 92 -164 9 -35 37 -116
62 -181 76 -196 234 -653 254 -736 10 -42 24 -129 31 -192 11 -101 14 -115 31
-115 27 0 108 -78 129 -125 12 -26 19 -33 19 -20 0 11 20 45 45 75 25 30 57
79 72 108 26 53 26 53 -10 190 -51 195 -73 251 -115 287 -98 82 -134 139 -216
338 -43 105 -111 240 -160 322 -20 33 -36 70 -36 83 0 51 88 9 163 -78 48 -57
111 -180 187 -370 84 -211 118 -253 156 -195 27 42 15 149 -33 285 -100 280
-133 365 -167 420 -26 42 -36 69 -36 99 0 23 -7 57 -15 77 -21 50 -113 142
-229 231 -283 215 -391 318 -481 458 -31 48 -78 111 -104 138 -70 75 -229 199
-336 262 -140 83 -556 285 -585 284 -14 0 -55 -12 -93 -27z"/>
<path d="M3049 4320 c-31 -33 -62 -60 -70 -60 -7 0 2 -8 21 -18 19 -10 44 -23
55 -29 11 -7 67 -34 125 -61 130 -61 250 -146 363 -258 199 -196 314 -383 467
-756 78 -190 121 -246 167 -213 70 52 -112 591 -286 842 -118 172 -296 349
-462 463 -101 70 -261 150 -298 150 -18 0 -42 -17 -82 -60z"/>
<path d="M3179 3925 c-14 -8 -39 -27 -56 -42 -30 -28 -30 -28 108 -156 147
-135 212 -210 303 -347 65 -97 184 -334 249 -495 53 -130 110 -268 114 -274 2
-2 11 3 20 11 10 8 29 18 43 21 39 10 90 62 90 92 0 35 -307 656 -378 765
-104 160 -264 333 -378 409 -52 34 -76 37 -115 16z"/>
<path d="M5060 3549 c-15 -27 -6 -65 42 -179 68 -160 96 -256 123 -419 14 -86
41 -232 60 -326 18 -93 37 -199 41 -235 4 -36 17 -87 30 -113 21 -46 23 -48
33 -28 6 11 35 51 63 88 28 38 62 92 76 122 35 77 27 139 -49 364 -159 473
-201 568 -304 674 -73 76 -97 87 -115 52z"/>
<path d="M4753 2323 c-23 -11 -36 -27 -46 -58 -15 -42 -15 -42 39 -16 45 22
54 30 54 53 0 35 -9 40 -47 21z"/>
</g>
</svg>
