<?xml version="1.0" standalone="no"?>
<!DOCTYPE svg PUBLIC "-//W3C//DTD SVG 20010904//EN"
 "http://www.w3.org/TR/2001/REC-SVG-20010904/DTD/svg10.dtd">
<svg version="1.0" xmlns="http://www.w3.org/2000/svg"
 width="1000.000000pt" height="1000.000000pt" viewBox="0 0 1000.000000 1000.000000"
 preserveAspectRatio="xMidYMid meet">
<metadata>
  <rdf:RDF
    xmlns:rdf = "http://www.w3.org/1999/02/22-rdf-syntax-ns#"
    xmlns:rdfs = "http://www.w3.org/2000/01/rdf-schema#"
    xmlns:dc = "http://purl.org/dc/elements/1.1/"
    xmlns:cc = "http://creativecommons.org/ns#">
    <cc:license rdf:resource="http://creativecommons.org/publicdomain/zero/1.0/deed.en"/>
    <cc:permits rdf:resource="http://creativecommons.org/ns#Reproduction"/>
    <rdf:Description about="https://nft.mir.one/fingerprints"
      dc:title="TON Fingerprints"
      dc:description="This is a unique digital fingerprint created based on the algorithm for generating basic rings using a noise texture. Like human fingerprints, you can now use it for the Web3 and Metaverse era as digital biometric information."
      dc:publisher="https://nft.mir.one"
      dc:date="2022-02-22"
      dc:format="image/svg+xml"
      dc:language="en" >
      <dc:creator>
      <rdf:Bag>
        <rdf:li>EQBondcvD2_aOFADXSWJHs4ZazQDuEl9_wNvGGPxI8hGuOFU</rdf:li>
        <rdf:li>ipfs://bafkreihj7iub3fhmhq6jn62noukt5wxn3gv6bvcg7wmt6ywvlurefezckq</rdf:li>
      </rdf:Bag>
      </dc:creator>
    </rdf:Description>
  </rdf:RDF>
</metadata>
<rect width="100%" height="100%" fill="#1b1f23"/>
<g transform="translate(0.000000,1000.000000) scale(0.100000,-0.100000)"
fill="#ffffff" stroke="none">
<path d="M5330 7768 c3 -3 55 -26 115 -52 243 -102 598 -334 895 -586 85 -72
85 -72 -22 34 -254 250 -564 454 -848 559 -105 38 -148 52 -140 45z"/>
<path d="M4640 7715 c0 -14 364 -142 540 -190 74 -20 161 -47 193 -60 89 -36
208 -111 326 -206 59 -47 158 -121 221 -164 237 -162 455 -365 558 -518 65
-98 277 -519 325 -647 20 -52 56 -165 81 -250 24 -86 63 -205 85 -264 23 -60
41 -126 41 -147 0 -45 16 -51 31 -11 14 35 6 90 -37 282 -70 310 -137 515
-250 762 -171 374 -388 638 -751 915 -387 296 -624 401 -1078 478 -131 22
-285 33 -285 20z"/>
<path d="M4382 7641 c51 -62 211 -164 412 -264 99 -49 228 -122 286 -161 58
-40 133 -89 168 -110 78 -47 81 -72 9 -69 -39 1 -95 24 -296 122 -137 67 -251
121 -254 121 -4 0 -84 37 -179 82 -168 80 -175 82 -258 86 -94 4 -140 -7 -336
-75 -111 -39 -111 -39 -70 -55 23 -9 99 -21 176 -27 199 -15 404 -76 891 -264
110 -43 264 -93 352 -116 86 -22 185 -53 220 -70 74 -36 206 -146 327 -274
192 -204 257 -263 371 -338 63 -42 135 -99 159 -125 92 -104 278 -410 266
-439 -9 -24 -49 -18 -92 13 -37 27 -68 64 -207 253 -62 85 -124 142 -255 236
-123 88 -185 118 -272 132 -63 10 -105 28 -285 121 -351 181 -505 233 -835
280 -355 50 -684 68 -951 52 -178 -11 -205 -20 -377 -130 -92 -60 -92 -60 -56
-67 20 -3 114 -1 208 6 113 8 249 9 401 5 223 -7 493 -13 835 -19 157 -3 169
-4 259 -36 137 -48 271 -107 497 -218 109 -54 239 -116 288 -137 241 -107 456
-282 456 -372 0 -24 -5 -34 -15 -34 -8 0 -60 34 -116 75 -153 114 -280 185
-674 377 -426 208 -572 268 -658 268 -48 0 -58 -22 -26 -57 13 -14 124 -74
245 -134 272 -132 684 -347 859 -447 209 -121 259 -142 331 -142 69 0 52 9
272 -145 165 -115 204 -167 140 -189 -39 -14 -102 8 -226 77 -59 33 -187 100
-285 148 -98 49 -228 118 -290 153 -166 94 -562 308 -815 440 -123 64 -249
134 -280 155 -76 51 -137 81 -197 97 -60 16 -139 18 -166 4 -22 -13 -25 -43
-5 -59 8 -7 133 -72 278 -145 145 -73 353 -184 463 -248 110 -63 304 -173 430
-243 288 -160 415 -235 580 -345 151 -101 280 -177 420 -248 149 -76 195 -122
257 -251 97 -205 310 -568 285 -486 -4 11 -16 79 -27 150 -23 154 -51 266 -89
355 -15 36 -25 72 -23 79 9 26 48 30 121 12 49 -12 68 -14 60 -5 -5 6 -25 50
-43 95 -30 74 -40 88 -82 118 -91 63 -134 102 -158 144 -41 70 -78 220 -81
327 -2 55 -10 116 -20 145 -20 61 -105 235 -179 370 -31 55 -65 129 -77 165
-54 163 -124 260 -293 405 -210 181 -240 200 -410 260 -33 12 -53 27 -65 47
-65 119 -178 221 -327 295 -72 35 -84 38 -168 38 -91 1 -91 1 -366 119 -192
82 -298 122 -350 132 -41 7 -86 16 -98 19 -22 5 -22 3 10 -34z m866 -332 c58
-33 83 -50 240 -173 99 -77 120 -107 86 -120 -61 -23 -139 15 -239 117 -44 45
-102 100 -128 123 -29 25 -47 48 -47 62 0 30 23 28 88 -9z m582 -446 c30 -20
92 -73 137 -117 69 -70 84 -90 98 -138 25 -88 65 -105 65 -27 0 77 40 43 137
-117 58 -95 69 -144 32 -144 -13 0 -54 32 -108 84 -47 46 -102 91 -121 99 -20
8 -64 47 -104 93 -39 43 -107 118 -153 165 -47 49 -83 95 -83 106 0 45 29 44
100 -4z"/>
<path d="M3865 7097 c-58 -20 -183 -79 -304 -144 -106 -57 -106 -57 -61 -64
25 -3 108 0 185 7 369 35 706 5 1145 -102 315 -77 529 -162 745 -294 180 -110
217 -130 248 -130 80 0 -15 117 -204 252 -123 88 -222 136 -399 193 -80 26
-219 71 -310 100 -224 73 -431 131 -575 161 -148 31 -405 42 -470 21z"/>
<path d="M3434 6411 c-68 -8 -115 -32 -213 -108 -34 -26 -74 -55 -87 -64 -25
-16 -25 -16 20 -22 25 -4 83 -1 128 5 117 17 533 16 633 -1 44 -7 118 -24 165
-38 153 -44 694 -283 793 -351 16 -11 63 -53 106 -93 69 -66 99 -86 295 -187
489 -254 671 -376 615 -413 -39 -27 -84 -8 -509 213 -303 158 -329 168 -575
208 -38 6 -162 37 -275 69 -340 97 -481 124 -737 142 -231 16 -580 -8 -653
-46 -15 -8 -65 -52 -110 -97 -82 -83 -82 -83 -50 -89 19 -4 84 3 159 16 186
34 319 45 560 45 350 0 524 -26 962 -144 330 -89 419 -123 699 -269 313 -162
330 -170 495 -222 238 -75 445 -188 584 -320 184 -173 323 -440 375 -720 10
-49 22 -102 27 -116 6 -14 14 -48 18 -75 6 -42 8 -31 17 86 14 210 10 433 -10
510 -34 130 -203 399 -330 525 -56 55 -136 117 -260 198 -122 81 -208 147
-270 206 -141 136 -186 166 -606 398 -123 69 -290 168 -370 219 -85 56 -259
152 -422 235 -166 83 -304 160 -344 191 -72 55 -109 69 -243 94 -97 17 -487
28 -587 15z"/>
<path d="M3428 6089 c-190 -10 -216 -21 -359 -155 -56 -52 -56 -52 -20 -57 20
-2 74 2 121 9 315 48 606 44 890 -12 154 -31 275 -65 543 -155 163 -55 219
-69 255 -67 35 2 48 7 50 20 8 40 -91 98 -343 198 -488 195 -727 241 -1137
219z"/>
<path d="M3435 5449 c-138 -11 -305 -38 -336 -54 -27 -14 -121 -111 -158 -164
-22 -31 -22 -31 6 -33 42 -2 41 -2 153 21 173 37 312 51 560 57 131 3 270 12
314 20 147 26 271 14 511 -52 328 -90 618 -228 908 -431 208 -147 339 -291
373 -413 46 -164 87 -283 190 -553 139 -362 194 -514 229 -632 15 -49 37 -126
50 -170 14 -44 40 -111 58 -148 35 -68 35 -68 42 -30 3 21 21 63 38 93 30 52
31 59 31 176 1 121 1 121 -106 335 -94 187 -285 630 -332 773 -26 76 -30 128
-12 151 11 16 19 18 33 10 26 -15 179 -329 273 -560 44 -110 94 -224 110 -252
33 -58 71 -89 96 -79 43 16 -15 266 -115 500 -58 135 -111 230 -192 343 -36
49 -59 92 -59 107 0 72 137 -21 235 -159 124 -175 234 -484 235 -661 0 -57 -5
-80 -26 -119 -26 -49 -26 -49 -5 -140 14 -56 32 -107 51 -135 30 -45 30 -45
30 2 0 25 12 100 26 165 71 326 71 403 -3 628 -80 247 -244 473 -395 547 -29
15 -91 36 -137 48 -91 23 -138 44 -276 125 -501 294 -757 429 -947 499 -220
82 -553 166 -730 185 -111 13 -574 12 -723 0z"/>
<path d="M4030 5198 c-14 -8 -25 -22 -25 -32 0 -32 45 -54 210 -101 218 -62
337 -106 490 -180 304 -148 559 -364 717 -610 129 -199 278 -573 344 -863 67
-293 29 -615 -96 -806 -78 -120 -128 -210 -153 -278 -25 -65 -25 -65 66 29 50
51 97 102 104 113 15 21 74 60 91 60 17 0 42 -55 42 -91 0 -49 8 -31 20 46 6
45 26 105 55 165 58 124 115 344 115 444 0 176 -93 500 -268 936 -129 320
-176 405 -301 534 -219 225 -531 416 -878 536 -242 84 -478 127 -533 98z"/>
<path d="M3365 5113 c-117 -14 -245 -37 -271 -48 -34 -14 -98 -78 -130 -131
-11 -18 -29 -43 -40 -55 -19 -21 -19 -21 41 -17 33 3 114 17 180 31 315 69
542 62 860 -24 447 -120 637 -217 845 -428 285 -288 462 -594 555 -956 107
-417 48 -741 -202 -1120 -33 -50 -71 -111 -85 -136 -24 -45 -24 -45 71 20 52
36 134 103 181 150 76 76 93 100 142 201 161 329 170 654 27 1074 -109 321
-250 564 -446 767 -231 240 -451 371 -826 494 -111 36 -249 88 -307 115 -64
30 -130 53 -170 60 -60 9 -357 12 -425 3z"/>
<path d="M3371 4780 c-126 -14 -256 -40 -288 -60 -16 -10 -48 -46 -71 -81 -23
-35 -50 -76 -61 -90 -19 -25 -19 -25 27 -24 26 1 74 9 107 18 177 48 500 70
785 56 243 -13 362 -40 525 -122 147 -73 255 -160 255 -205 0 -22 -3 -24 -32
-19 -18 3 -91 37 -163 76 -217 119 -346 159 -443 138 -26 -5 -96 -11 -157 -12
-346 -7 -654 -31 -717 -56 -25 -10 -98 -97 -98 -117 0 -4 -12 -25 -26 -46 -27
-39 -27 -39 27 -33 30 3 88 13 129 22 55 12 105 16 190 12 145 -5 193 -23 320
-118 52 -39 161 -118 242 -176 277 -198 428 -383 500 -613 22 -72 23 -87 23
-390 -1 -357 -3 -371 -78 -473 -69 -94 -89 -129 -69 -118 9 5 52 14 95 21 117
17 272 57 320 81 119 61 261 268 307 447 17 66 14 179 -5 208 -35 54 -62 23
-104 -121 -18 -60 -46 -138 -62 -172 -59 -123 -160 -233 -216 -233 -41 0 -29
49 30 131 82 115 95 139 147 278 27 71 61 149 77 172 101 153 -41 563 -267
772 -72 67 -170 132 -403 268 -191 112 -227 139 -227 171 0 18 4 19 38 13 58
-11 195 -70 335 -145 70 -38 160 -84 200 -101 101 -45 143 -73 209 -142 68
-70 130 -161 186 -272 57 -115 87 -205 140 -415 42 -168 46 -196 46 -300 0
-102 -4 -126 -32 -210 -54 -163 -148 -307 -288 -440 -38 -36 -82 -83 -100
-106 -31 -40 -31 -40 67 -3 103 39 175 77 247 129 76 55 183 245 238 425 26
84 28 101 28 275 0 168 -2 196 -28 304 -68 289 -176 514 -361 751 -39 49 -99
132 -134 183 -68 100 -122 152 -216 214 -281 184 -792 290 -1194 248z m440
-471 c34 -12 360 -226 497 -326 286 -210 438 -482 419 -747 -13 -173 -97 -427
-144 -434 -33 -5 -35 23 -11 154 27 153 29 340 4 434 -24 90 -85 213 -145 292
-101 133 -209 226 -484 418 -186 129 -243 179 -234 204 8 19 50 21 98 5z"/>
<path d="M3229 4093 c-34 -5 -79 -53 -122 -128 -33 -61 -33 -61 27 -54 34 4
85 12 115 19 69 16 271 8 326 -12 22 -8 41 -23 43 -32 5 -25 -49 -42 -182 -55
-161 -16 -168 -20 -235 -144 -30 -56 -30 -56 7 -50 20 3 73 16 117 28 190 54
370 62 476 22 112 -42 189 -106 175 -143 -8 -20 -40 -17 -131 12 -99 33 -253
43 -359 24 -63 -11 -76 -17 -111 -54 -22 -23 -46 -59 -54 -81 -7 -22 -20 -48
-28 -57 -17 -19 -11 -18 127 23 79 24 169 39 232 39 51 0 260 -34 321 -52 111
-33 247 -239 247 -374 0 -100 -44 -82 -111 45 -72 138 -174 214 -329 247 -95
20 -212 14 -249 -13 -14 -11 -44 -56 -67 -101 -23 -45 -36 -78 -30 -73 6 5 52
17 101 26 228 43 388 -23 482 -201 65 -121 62 -194 -10 -323 -44 -77 -44 -77
12 -73 77 5 171 29 201 51 35 25 48 57 70 169 10 53 26 126 34 162 32 134 10
286 -59 423 -41 81 -173 274 -228 333 -43 48 -153 126 -247 175 -36 19 -88 58
-118 90 -64 67 -125 103 -213 124 -59 14 -168 18 -230 8z"/>
<path d="M3576 3008 c-11 -44 -5 -65 9 -28 17 43 17 50 6 50 -5 0 -11 -10 -15
-22z"/>
<path d="M3741 2991 c-27 -27 -37 -69 -22 -92 17 -28 14 -76 -6 -88 -14 -8 -3
-10 43 -11 82 0 128 29 132 83 3 31 -3 43 -35 76 -48 50 -83 61 -112 32z"/>
<path d="M6116 2858 c-34 -53 -47 -170 -27 -233 5 -16 10 -23 10 -14 1 8 16
53 35 100 19 47 36 103 38 125 3 34 0 39 -19 42 -14 2 -27 -5 -37 -20z"/>
</g>
</svg>
