<?xml version="1.0" standalone="no"?>
<!DOCTYPE svg PUBLIC "-//W3C//DTD SVG 20010904//EN"
 "http://www.w3.org/TR/2001/REC-SVG-20010904/DTD/svg10.dtd">
<svg version="1.0" xmlns="http://www.w3.org/2000/svg"
 width="1000.000000pt" height="1000.000000pt" viewBox="0 0 1000.000000 1000.000000"
 preserveAspectRatio="xMidYMid meet">
<metadata>
  <rdf:RDF
    xmlns:rdf = "http://www.w3.org/1999/02/22-rdf-syntax-ns#"
    xmlns:rdfs = "http://www.w3.org/2000/01/rdf-schema#"
    xmlns:dc = "http://purl.org/dc/elements/1.1/"
    xmlns:cc = "http://creativecommons.org/ns#">
    <cc:license rdf:resource="http://creativecommons.org/publicdomain/zero/1.0/deed.en"/>
    <cc:permits rdf:resource="http://creativecommons.org/ns#Reproduction"/>
    <rdf:Description about="https://nft.mir.one/fingerprints"
      dc:title="TON Fingerprints"
      dc:description="This is a unique digital fingerprint created based on the algorithm for generating basic rings using a noise texture. Like human fingerprints, you can now use it for the Web3 and Metaverse era as digital biometric information."
      dc:publisher="https://nft.mir.one"
      dc:date="2022-02-22"
      dc:format="image/svg+xml"
      dc:language="en" >
      <dc:creator>
      <rdf:Bag>
        <rdf:li>EQBondcvD2_aOFADXSWJHs4ZazQDuEl9_wNvGGPxI8hGuOFU</rdf:li>
        <rdf:li>ipfs://bafkreihj7iub3fhmhq6jn62noukt5wxn3gv6bvcg7wmt6ywvlurefezckq</rdf:li>
      </rdf:Bag>
      </dc:creator>
    </rdf:Description>
  </rdf:RDF>
</metadata>
<rect width="100%" height="100%" fill="#1b1f23"/>
<g transform="translate(0.000000,1000.000000) scale(0.100000,-0.100000)"
fill="#ffffff" stroke="none">
<path d="M4835 7675 c-44 -7 -152 -31 -240 -53 -88 -22 -190 -47 -228 -56
-138 -32 -281 -139 -572 -431 -268 -267 -382 -406 -532 -650 -51 -81 -172
-305 -160 -294 4 3 25 33 47 68 62 96 244 316 346 417 108 108 188 166 379
275 79 44 159 94 179 111 21 17 67 75 102 129 75 115 142 177 239 224 130 63
411 130 593 141 120 8 497 -11 640 -32 134 -19 355 -44 359 -41 1 2 -75 28
-170 59 -210 69 -321 92 -539 113 -92 8 -200 20 -240 25 -90 12 -103 11 -203
-5z"/>
<path d="M5055 7424 c-228 -37 -471 -96 -539 -131 -37 -19 -242 -226 -251
-252 -21 -69 94 -122 420 -195 870 -193 1109 -274 1250 -425 33 -35 153 -156
266 -270 213 -214 281 -299 344 -433 47 -98 61 -168 81 -400 18 -205 15 -378
-6 -433 -6 -16 -25 -44 -41 -61 -29 -30 -29 -30 -20 -290 6 -150 17 -293 26
-339 20 -106 19 -191 -5 -297 -42 -190 -108 -350 -233 -565 -42 -72 -92 -169
-111 -217 -46 -114 -74 -152 -202 -276 -184 -178 -382 -324 -639 -472 -135
-78 -295 -178 -283 -178 15 0 216 74 320 118 283 120 512 277 794 544 66 63
145 128 175 145 30 17 81 59 114 93 60 62 60 62 5 21 -92 -69 -145 -86 -169
-57 -16 19 -1 47 106 200 152 216 216 343 307 602 31 87 76 209 100 269 78
196 104 360 113 711 3 132 3 257 -1 277 -13 70 -63 37 -80 -53 -3 -19 -15
-159 -26 -310 -28 -378 -52 -506 -104 -549 -15 -12 -19 -12 -34 3 -14 14 -16
35 -14 139 4 256 53 667 97 833 38 140 30 244 -30 414 -98 273 -277 506 -581
753 -73 59 -135 114 -138 124 -10 24 20 44 53 37 92 -22 287 -159 431 -304
155 -156 280 -335 390 -560 45 -92 118 -205 127 -196 9 9 -137 409 -187 514
-102 211 -198 347 -315 441 -168 137 -301 207 -468 246 -62 14 -204 57 -317
95 -113 38 -288 90 -390 115 -102 26 -269 71 -372 101 -102 29 -246 63 -320
75 -160 25 -221 48 -216 81 2 17 14 27 42 36 52 17 246 30 332 22 61 -6 81
-13 133 -48 75 -50 136 -70 369 -122 244 -55 428 -106 679 -189 280 -92 448
-178 617 -315 29 -24 73 -56 97 -71 24 -15 57 -39 73 -54 57 -52 -180 236
-257 312 -164 162 -262 219 -524 306 -279 92 -607 163 -889 193 -129 13 -153
23 -135 55 61 114 752 14 1236 -179 55 -22 129 -48 165 -58 64 -18 64 -18 40
1 -102 79 -259 181 -353 230 -202 104 -324 144 -537 174 -111 16 -454 28 -515
19z"/>
<path d="M3785 6708 c-98 -35 -329 -249 -432 -398 -159 -234 -307 -650 -230
-650 24 0 55 44 102 145 132 284 287 484 554 718 116 101 144 146 115 178 -19
21 -62 24 -109 7z"/>
<path d="M4219 6710 c-103 -18 -150 -52 -225 -162 -17 -25 -99 -104 -182 -177
-222 -194 -304 -292 -452 -546 -45 -76 -96 -158 -113 -182 -87 -118 -96 -135
-112 -205 -37 -163 -29 -373 21 -546 42 -143 77 -193 113 -157 17 17 17 7 10
350 -4 232 13 308 110 499 177 345 314 511 526 637 59 35 137 89 174 120 58
49 79 60 171 88 135 40 249 54 360 41 127 -14 188 -36 233 -81 68 -68 32 -104
-88 -86 -93 14 -259 -4 -362 -38 -87 -29 -201 -96 -250 -147 -18 -18 -49 -69
-69 -113 -20 -44 -81 -148 -136 -232 -153 -236 -229 -413 -259 -607 -17 -108
-6 -344 21 -435 46 -161 127 -287 276 -431 178 -172 380 -306 542 -360 186
-62 370 -53 591 31 129 48 141 49 141 9 0 -64 -122 -148 -277 -192 -60 -17
-106 -22 -203 -22 -222 -2 -347 45 -570 213 -450 340 -592 511 -642 778 -20
105 -17 390 5 491 48 216 131 388 309 635 87 121 102 150 93 178 -9 28 -53 24
-106 -9 -122 -78 -323 -385 -407 -623 -53 -151 -65 -259 -59 -528 5 -260 11
-293 73 -412 71 -135 185 -246 489 -474 203 -152 249 -195 260 -245 5 -25 18
-36 68 -62 266 -134 600 -156 830 -54 139 61 245 161 392 368 149 211 211 351
241 548 48 322 -24 622 -209 870 -109 146 -301 354 -367 398 -96 65 -244 111
-352 112 -109 0 -279 -49 -385 -111 -73 -43 -246 -214 -303 -298 -130 -194
-187 -382 -177 -584 8 -173 59 -308 171 -449 100 -125 287 -248 442 -289 235
-63 557 10 704 160 112 115 166 273 157 466 -8 197 -80 357 -227 505 -130 132
-260 190 -420 190 -142 0 -267 -55 -375 -164 -217 -219 -235 -539 -42 -743 66
-70 139 -111 232 -130 95 -19 159 -9 276 42 159 69 172 77 204 129 28 45 30
57 30 140 0 79 -4 98 -28 147 -34 70 -109 148 -174 180 -62 31 -197 34 -254 6
-118 -59 -176 -200 -123 -302 35 -68 115 -93 158 -49 20 19 21 54 2 54 -8 0
-22 7 -31 16 -36 36 20 104 86 104 49 0 99 -25 161 -80 59 -51 75 -99 58 -171
-24 -97 -63 -88 -73 18 -5 48 -12 73 -27 87 -17 18 -22 19 -35 6 -8 -8 -27
-40 -42 -70 -31 -61 -62 -87 -116 -100 -109 -24 -234 64 -272 193 -77 260 172
528 444 478 196 -36 357 -197 401 -402 21 -94 9 -213 -27 -292 -85 -181 -292
-287 -532 -274 -119 6 -198 33 -297 99 -275 184 -358 530 -202 843 93 185 238
318 420 383 63 22 89 26 188 26 99 0 125 -4 188 -26 101 -36 170 -80 263 -166
146 -136 251 -300 306 -479 24 -79 27 -104 27 -248 1 -138 -2 -171 -22 -240
-45 -156 -133 -299 -224 -365 -46 -34 -76 -43 -293 -91 -310 -69 -514 -37
-752 121 -223 147 -377 345 -435 559 -30 109 -30 342 0 454 48 177 126 327
263 511 166 220 290 304 554 372 76 19 155 42 173 50 55 22 92 17 157 -23 33
-20 130 -69 215 -110 145 -68 159 -73 222 -73 188 0 359 -144 693 -582 154
-202 191 -257 255 -384 74 -145 113 -196 140 -179 18 11 6 177 -20 282 -35
145 -69 206 -179 318 -54 55 -138 150 -187 210 -187 232 -364 386 -540 471
-91 43 -444 166 -516 179 -20 4 -44 15 -54 26 -15 17 -15 20 -1 43 38 57 179
52 378 -14 343 -114 597 -317 897 -717 99 -132 120 -150 152 -133 34 18 27 84
-20 176 -77 153 -237 341 -454 534 -154 136 -209 175 -331 235 -140 68 -267
108 -464 146 -86 17 -226 46 -311 65 -314 68 -549 95 -661 74z m-89 -270 c0
-5 -4 -10 -9 -10 -6 0 -13 5 -16 10 -3 6 1 10 9 10 9 0 16 -4 16 -10z"/>
<path d="M5405 5860 c-10 -31 21 -83 99 -167 330 -360 406 -546 406 -997 0
-352 -81 -558 -340 -869 -220 -263 -460 -389 -745 -390 -149 0 -245 20 -535
114 -293 94 -371 132 -590 285 -174 122 -253 167 -309 178 -65 12 -92 57 -47
77 64 29 169 -16 375 -161 164 -114 297 -194 354 -209 57 -16 111 -11 115 10
3 18 -11 29 -188 146 -170 111 -508 359 -563 412 -61 58 -123 151 -176 262
-30 64 -52 95 -89 126 -81 68 -153 226 -194 420 -19 93 -22 137 -22 318 1 183
0 199 -8 125 -6 -47 -11 -182 -11 -300 -2 -262 1 -279 122 -642 86 -258 129
-359 198 -467 34 -53 34 -54 19 -92 -34 -85 -13 -204 50 -277 19 -22 169 -142
333 -265 289 -217 587 -410 746 -483 75 -35 175 -54 282 -54 97 0 109 -5 99
-45 -14 -53 -149 -105 -276 -105 -120 0 -142 10 -244 114 -72 72 -115 105
-206 158 -63 37 -144 92 -180 123 -36 31 -108 90 -160 132 -360 290 -366 294
-406 279 -12 -5 -3 -21 45 -80 83 -99 166 -177 288 -269 101 -76 123 -100 123
-132 0 -25 -36 -13 -121 38 -166 99 -355 264 -389 339 -11 23 -20 63 -20 88 0
33 -8 57 -31 90 -49 72 -82 145 -144 313 -31 87 -59 156 -61 154 -7 -7 113
-351 153 -437 22 -47 52 -118 67 -158 37 -96 87 -169 191 -280 88 -93 180
-169 247 -203 21 -11 69 -24 106 -28 95 -13 452 -179 452 -211 0 -5 -9 -14
-20 -20 -30 -16 -107 2 -295 70 -88 31 -201 69 -251 83 -50 15 -100 29 -110
33 -31 10 111 -81 256 -163 157 -90 271 -133 351 -133 98 0 118 -43 38 -82
-46 -23 -221 -43 -260 -29 -17 6 -27 6 -24 1 10 -16 157 -58 241 -69 222 -31
446 34 892 258 302 152 464 253 607 379 203 178 427 500 443 637 4 37 1 44
-16 49 -46 15 -86 -21 -238 -214 -207 -263 -394 -417 -650 -532 -94 -43 -224
-78 -287 -78 -30 0 -62 10 -99 29 -30 16 -123 50 -207 75 -312 95 -634 269
-986 534 -176 132 -245 205 -245 260 0 34 21 27 96 -36 191 -160 382 -289 564
-381 461 -234 810 -318 1051 -253 165 44 355 161 509 312 96 94 312 351 376
447 106 156 150 405 122 688 -13 136 -15 282 -7 395 3 48 -1 66 -33 133 -73
152 -198 326 -328 456 -156 156 -286 229 -305 171z"/>
<path d="M6153 5053 c-7 -19 4 -90 41 -248 57 -244 56 -499 -1 -744 -28 -117
-31 -160 -18 -283 6 -51 3 -79 -10 -120 -63 -192 -262 -476 -446 -635 -276
-240 -691 -466 -1135 -619 -60 -21 -129 -51 -153 -66 -45 -28 -45 -28 82 -28
266 0 531 56 725 154 322 162 643 412 799 623 125 169 272 450 318 608 54 186
67 299 67 555 -1 275 -12 382 -53 505 -40 118 -104 253 -136 287 -30 31 -70
37 -80 11z"/>
</g>
</svg>
