<?xml version="1.0" standalone="no"?>
<!DOCTYPE svg PUBLIC "-//W3C//DTD SVG 20010904//EN"
 "http://www.w3.org/TR/2001/REC-SVG-20010904/DTD/svg10.dtd">
<svg version="1.0" xmlns="http://www.w3.org/2000/svg"
 width="1000.000000pt" height="1000.000000pt" viewBox="0 0 1000.000000 1000.000000"
 preserveAspectRatio="xMidYMid meet">
<metadata>
  <rdf:RDF
    xmlns:rdf = "http://www.w3.org/1999/02/22-rdf-syntax-ns#"
    xmlns:rdfs = "http://www.w3.org/2000/01/rdf-schema#"
    xmlns:dc = "http://purl.org/dc/elements/1.1/"
    xmlns:cc = "http://creativecommons.org/ns#">
    <cc:license rdf:resource="http://creativecommons.org/publicdomain/zero/1.0/deed.en"/>
    <cc:permits rdf:resource="http://creativecommons.org/ns#Reproduction"/>
    <rdf:Description about="https://nft.mir.one/fingerprints"
      dc:title="TON Fingerprints"
      dc:description="This is a unique digital fingerprint created based on the algorithm for generating basic rings using a noise texture. Like human fingerprints, you can now use it for the Web3 and Metaverse era as digital biometric information."
      dc:publisher="https://nft.mir.one"
      dc:date="2022-02-22"
      dc:format="image/svg+xml"
      dc:language="en" >
      <dc:creator>
      <rdf:Bag>
        <rdf:li>EQBondcvD2_aOFADXSWJHs4ZazQDuEl9_wNvGGPxI8hGuOFU</rdf:li>
        <rdf:li>ipfs://bafkreihj7iub3fhmhq6jn62noukt5wxn3gv6bvcg7wmt6ywvlurefezckq</rdf:li>
      </rdf:Bag>
      </dc:creator>
    </rdf:Description>
  </rdf:RDF>
</metadata>
<rect width="100%" height="100%" fill="#1b1f23"/>
<g transform="translate(0.000000,1000.000000) scale(0.100000,-0.100000)"
fill="#ffffff" stroke="none">
<path d="M4755 7714 c-33 -2 -128 -11 -211 -19 -84 -8 -169 -16 -190 -16 -33
-2 -35 -3 -9 -6 17 -2 64 -10 105 -18 41 -7 131 -16 200 -20 390 -19 637 -55
1085 -156 72 -16 162 -34 200 -39 39 -6 84 -12 100 -15 17 -3 -17 15 -74 40
-269 118 -527 198 -741 229 -108 16 -359 26 -465 20z"/>
<path d="M4375 7489 c-100 -13 -264 -54 -378 -94 -54 -19 -110 -35 -125 -35
-27 0 -27 0 5 -32 32 -32 32 -32 145 -19 62 7 204 15 314 18 308 9 533 -17
864 -98 91 -22 221 -47 289 -54 127 -15 214 -36 241 -58 8 -6 32 -33 53 -59
21 -26 75 -71 120 -101 45 -30 147 -97 227 -149 80 -52 233 -158 339 -237 222
-163 258 -183 308 -179 37 3 37 3 -163 204 -235 237 -313 293 -606 437 -183
90 -211 111 -176 133 21 13 104 5 169 -16 77 -26 242 -103 330 -155 62 -36
232 -113 213 -96 -55 49 -253 203 -311 242 -93 63 -260 144 -336 163 -32 9
-95 20 -140 26 -45 6 -215 36 -377 65 -526 96 -791 121 -1005 94z"/>
<path d="M3805 7248 c-6 -13 -46 -45 -90 -71 -83 -51 -80 -53 26 -26 67 17
122 76 98 105 -16 19 -23 18 -34 -8z"/>
<path d="M4253 7180 c-123 -16 -233 -49 -352 -106 -123 -59 -325 -179 -460
-275 -84 -59 -84 -59 -35 -59 71 0 414 91 519 138 50 22 126 56 170 75 112 50
208 67 374 67 235 0 468 -53 662 -150 99 -50 117 -62 359 -239 409 -299 460
-347 662 -632 251 -353 369 -564 439 -787 22 -70 63 -194 91 -277 77 -231 97
-315 110 -469 13 -161 2 -324 -30 -441 -52 -187 -93 -320 -102 -329 -17 -17
-43 6 -58 50 -9 25 -12 66 -9 114 3 62 10 87 41 145 49 93 61 197 46 380 -16
186 -41 297 -130 559 -95 282 -105 308 -185 465 -80 157 -181 313 -296 457
-55 69 -96 131 -109 166 -44 119 -121 197 -355 363 -414 294 -617 404 -847
460 -278 67 -520 53 -634 -39 -27 -21 -34 -34 -32 -54 3 -25 6 -27 53 -26 28
0 79 5 115 12 176 32 430 -14 647 -118 126 -60 227 -119 553 -323 343 -215
435 -285 415 -317 -14 -22 -67 -7 -205 59 -147 69 -553 298 -710 399 -110 71
-245 135 -340 161 -239 65 -470 69 -447 8 10 -27 61 -46 259 -98 269 -70 398
-135 398 -200 0 -29 -15 -30 -83 -4 -36 13 -145 47 -243 75 -298 85 -332 101
-395 186 -58 79 -81 88 -209 81 -159 -9 -377 -45 -435 -72 -50 -23 -118 -69
-233 -156 -60 -46 -60 -46 -15 -48 25 0 82 6 127 14 117 22 319 45 402 45 107
0 222 -24 389 -80 171 -59 414 -123 526 -140 56 -8 87 -8 120 0 88 23 104 23
175 -5 94 -38 317 -151 444 -227 105 -62 105 -62 185 -62 71 -1 88 -5 156 -38
156 -76 253 -175 387 -391 259 -418 429 -947 435 -1355 2 -120 1 -127 -17
-127 -35 0 -56 58 -92 252 -80 433 -190 736 -391 1076 -179 303 -280 418 -454
516 -67 38 -79 39 -79 5 0 -38 15 -61 103 -153 96 -102 118 -134 160 -237 18
-43 60 -120 94 -169 127 -189 207 -342 288 -550 55 -141 74 -206 151 -510 34
-137 73 -284 85 -325 18 -61 22 -102 23 -215 1 -140 1 -140 -51 -240 -28 -56
-72 -161 -98 -235 -115 -334 -257 -550 -469 -714 -148 -115 -225 -148 -383
-166 -100 -11 -289 -57 -377 -92 -28 -11 -86 -30 -131 -44 -80 -24 -80 -24
-25 -18 156 16 529 92 662 135 99 32 215 92 313 161 131 92 336 300 417 423
121 185 274 473 347 657 14 35 38 70 62 92 50 45 96 142 143 304 47 162 65
302 73 552 7 258 -1 310 -56 360 -67 61 -94 139 -92 264 1 103 -26 183 -130
386 -135 264 -323 550 -483 732 -99 112 -200 201 -449 392 -111 85 -240 193
-287 241 -47 47 -103 97 -126 111 -98 58 -297 121 -490 155 -136 23 -433 34
-551 19z"/>
<path d="M5503 7033 c-20 -7 -15 -47 8 -77 11 -14 125 -104 252 -199 504 -377
584 -464 879 -957 58 -96 140 -242 183 -325 43 -82 101 -183 128 -223 72 -108
115 -206 126 -287 10 -70 10 -70 5 13 -9 156 -126 542 -228 757 -29 61 -83
157 -120 214 -38 57 -93 156 -124 220 -48 98 -69 129 -137 200 -103 108 -256
233 -470 384 -93 66 -209 149 -256 183 -122 90 -194 119 -246 97z"/>
<path d="M3457 6265 c-54 -7 -114 -19 -133 -25 -40 -14 -156 -104 -229 -179
-49 -51 -49 -51 -5 -51 25 0 68 7 95 15 116 36 295 66 425 71 117 5 165 2 365
-25 338 -47 682 -119 870 -184 116 -40 426 -177 485 -215 30 -19 98 -69 150
-112 52 -42 109 -86 127 -98 33 -23 78 -29 88 -11 17 27 -16 72 -158 216 -166
168 -240 223 -412 304 -142 67 -238 95 -415 124 -85 14 -252 48 -370 76 -411
97 -430 100 -615 104 -112 3 -203 0 -268 -10z"/>
<path d="M6715 6250 c-4 -6 -4 -24 0 -40 8 -34 159 -253 233 -336 53 -59 53
-59 17 21 -74 163 -178 335 -215 355 -23 13 -27 13 -35 0z"/>
<path d="M3503 5946 c-45 -7 -133 -26 -195 -41 -113 -28 -113 -28 -188 -104
-41 -42 -96 -103 -121 -137 -45 -60 -45 -60 0 -53 25 3 92 25 148 48 124 49
264 90 461 131 81 18 167 40 191 51 24 10 49 19 57 19 16 0 27 -34 19 -60 -3
-11 -2 -27 3 -37 9 -15 30 -17 174 -18 188 -2 309 -23 498 -85 162 -53 274
-111 370 -193 72 -62 426 -436 499 -527 278 -348 426 -765 471 -1323 23 -275
-26 -480 -167 -705 -72 -115 -119 -175 -229 -293 -101 -107 -117 -135 -89
-155 43 -32 212 63 348 195 148 144 265 338 322 535 36 125 35 198 -3 396 -17
91 -47 246 -66 345 -61 315 -129 531 -233 740 -115 230 -217 361 -460 592
-170 162 -210 212 -221 275 -6 36 -16 49 -57 80 -210 159 -724 301 -1028 284
-115 -6 -118 -6 -164 21 -41 24 -58 27 -152 29 -58 2 -143 -3 -188 -10z"/>
<path d="M3585 5636 c-198 -50 -343 -99 -431 -144 -74 -38 -123 -105 -203
-275 -48 -103 -48 -103 -1 -77 26 14 76 46 112 72 201 147 501 254 743 265
254 12 602 -56 800 -154 85 -43 207 -129 270 -190 84 -82 317 -357 392 -461
194 -271 287 -552 300 -907 11 -286 -34 -471 -174 -718 -43 -78 -57 -112 -63
-162 -5 -37 -19 -84 -35 -113 -70 -128 -229 -254 -251 -198 -9 22 18 65 100
156 114 129 144 200 83 200 -39 0 -107 -51 -250 -189 -151 -145 -197 -174
-341 -211 -143 -36 -368 -36 -591 0 -27 5 -51 7 -53 5 -6 -5 245 -94 323 -114
184 -46 382 -50 588 -11 56 10 127 22 157 26 75 9 135 28 176 56 70 46 248
299 353 499 121 232 155 367 154 624 0 188 -16 318 -63 512 -92 384 -258 657
-630 1037 -164 168 -237 227 -362 291 -165 86 -309 128 -563 165 -139 20 -230
43 -240 61 -12 19 -96 6 -300 -45z"/>
<path d="M5141 5601 c-25 -16 8 -51 182 -198 295 -250 369 -331 486 -528 152
-258 273 -633 352 -1090 40 -235 60 -276 115 -240 13 9 24 17 24 19 0 2 5 28
10 57 15 79 -3 212 -60 454 -93 388 -153 571 -259 790 -115 235 -244 400 -373
477 -37 22 -120 80 -185 129 -166 126 -244 160 -292 130z"/>
<path d="M3705 5315 c-205 -37 -415 -130 -569 -251 -49 -39 -64 -59 -96 -128
-21 -44 -53 -132 -70 -195 -18 -63 -34 -120 -37 -128 -10 -25 63 30 88 67 45
66 206 217 290 272 109 72 190 113 297 147 143 46 212 56 402 56 186 0 266
-12 419 -61 161 -52 376 -176 369 -212 -6 -32 -67 -26 -194 21 -237 89 -370
117 -548 117 -207 0 -371 -40 -546 -131 -178 -94 -367 -271 -410 -387 -30 -80
-50 -224 -49 -352 2 -127 15 -295 17 -222 1 23 9 59 18 80 8 20 24 69 34 109
73 281 308 547 582 658 141 57 267 78 443 72 176 -6 238 -19 476 -96 138 -45
192 -68 247 -105 145 -96 293 -292 349 -461 26 -77 27 -88 27 -315 1 -262 -11
-345 -66 -477 -61 -148 -181 -293 -342 -414 -156 -118 -281 -164 -451 -163
-270 1 -544 96 -774 268 -62 47 -118 86 -123 86 -20 0 28 -65 111 -152 190
-199 453 -343 674 -371 166 -20 376 22 508 102 76 46 399 312 451 371 128 145
192 364 191 650 0 257 -38 431 -133 620 -65 129 -127 213 -262 358 -74 79
-129 149 -154 194 -100 182 -363 322 -699 373 -121 18 -372 18 -470 0z"/>
<path d="M6857 5153 c-23 -23 16 -206 49 -234 14 -11 18 -10 30 6 46 63 -29
279 -79 228z"/>
<path d="M7091 4774 c0 -11 3 -14 6 -6 3 7 2 16 -1 19 -3 4 -6 -2 -5 -13z"/>
<path d="M4039 4709 c-354 -36 -645 -272 -750 -609 -57 -183 -4 -464 130 -689
53 -90 98 -133 216 -209 192 -125 304 -170 505 -201 69 -11 150 -30 180 -42
137 -54 334 14 507 175 172 160 263 356 263 569 0 124 -17 169 -102 268 -116
134 -172 186 -280 256 -192 124 -329 173 -489 173 -143 0 -241 -28 -349 -101
-135 -90 -213 -222 -227 -384 -7 -87 12 -166 67 -279 22 -44 44 -99 50 -121
30 -123 222 -216 387 -188 244 42 425 278 384 499 -19 106 -67 178 -134 203
-41 16 -211 14 -250 -3 -52 -21 -87 -70 -87 -119 1 -46 13 -67 48 -86 19 -10
30 -10 53 0 39 16 57 1 43 -37 -33 -95 -206 -91 -287 6 -55 65 -58 163 -9 253
33 62 79 102 162 141 58 28 75 31 160 31 153 0 287 -60 337 -150 74 -135 99
-361 53 -480 -12 -33 -38 -83 -57 -112 -71 -108 -227 -224 -358 -266 -221 -70
-548 99 -668 345 -52 107 -70 186 -71 308 0 195 56 331 194 471 72 73 99 94
180 132 124 60 208 80 345 80 165 1 291 -30 449 -111 156 -80 269 -183 374
-340 75 -112 121 -124 122 -30 0 121 -158 348 -319 457 -203 138 -520 216
-772 190z m751 -695 c54 -58 108 -173 122 -259 45 -273 -175 -591 -479 -691
-85 -28 -113 -27 -113 4 0 25 26 47 142 122 224 143 339 335 325 545 -3 61
-15 106 -47 192 -23 62 -39 117 -35 123 13 21 44 9 85 -36z m-427 -84 c82 -97
53 -285 -58 -375 -82 -67 -120 -80 -230 -80 -92 0 -106 3 -168 32 -72 35 -89
55 -64 81 14 14 26 14 94 4 104 -16 172 -15 224 3 120 43 176 148 149 279 -9
44 -9 60 0 71 17 21 25 19 53 -15z"/>
</g>
</svg>
