<?xml version="1.0" standalone="no"?>
<!DOCTYPE svg PUBLIC "-//W3C//DTD SVG 20010904//EN"
 "http://www.w3.org/TR/2001/REC-SVG-20010904/DTD/svg10.dtd">
<svg version="1.0" xmlns="http://www.w3.org/2000/svg"
 width="1000.000000pt" height="1000.000000pt" viewBox="0 0 1000.000000 1000.000000"
 preserveAspectRatio="xMidYMid meet">
<metadata>
  <rdf:RDF
    xmlns:rdf = "http://www.w3.org/1999/02/22-rdf-syntax-ns#"
    xmlns:rdfs = "http://www.w3.org/2000/01/rdf-schema#"
    xmlns:dc = "http://purl.org/dc/elements/1.1/"
    xmlns:cc = "http://creativecommons.org/ns#">
    <cc:license rdf:resource="http://creativecommons.org/publicdomain/zero/1.0/deed.en"/>
    <cc:permits rdf:resource="http://creativecommons.org/ns#Reproduction"/>
    <rdf:Description about="https://nft.mir.one/fingerprints"
      dc:title="TON Fingerprints"
      dc:description="This is a unique digital fingerprint created based on the algorithm for generating basic rings using a noise texture. Like human fingerprints, you can now use it for the Web3 and Metaverse era as digital biometric information."
      dc:publisher="https://nft.mir.one"
      dc:date="2022-02-22"
      dc:format="image/svg+xml"
      dc:language="en" >
      <dc:creator>
      <rdf:Bag>
        <rdf:li>EQBondcvD2_aOFADXSWJHs4ZazQDuEl9_wNvGGPxI8hGuOFU</rdf:li>
        <rdf:li>ipfs://bafkreihj7iub3fhmhq6jn62noukt5wxn3gv6bvcg7wmt6ywvlurefezckq</rdf:li>
      </rdf:Bag>
      </dc:creator>
    </rdf:Description>
  </rdf:RDF>
</metadata>
<rect width="100%" height="100%" fill="#1b1f23"/>
<g transform="translate(0.000000,1000.000000) scale(0.100000,-0.100000)"
fill="#ffffff" stroke="none">
<path d="M4695 7771 c-120 -6 -120 -6 21 -18 77 -7 210 -13 295 -13 330 0 533
-32 681 -106 26 -13 58 -24 70 -24 35 1 -154 78 -257 105 -49 14 -133 31 -185
40 -106 18 -434 26 -625 16z"/>
<path d="M5798 7603 c6 -2 18 -2 25 0 6 3 1 5 -13 5 -14 0 -19 -2 -12 -5z"/>
<path d="M4715 7579 c-273 -18 -479 -68 -745 -178 -145 -60 -145 -60 -64 -61
45 0 103 4 130 9 109 21 374 42 629 50 217 8 289 14 365 31 121 28 225 24 376
-15 127 -32 186 -29 232 10 22 19 25 27 16 42 -6 10 -22 24 -36 30 -39 19
-204 62 -303 78 -100 16 -379 18 -600 4z"/>
<path d="M5832 7423 c-28 -54 37 -101 230 -170 88 -31 266 -77 254 -66 -25 26
-445 253 -467 253 -5 0 -12 -8 -17 -17z"/>
<path d="M5103 7335 c-65 -28 -28 -72 73 -86 82 -12 147 -3 169 21 15 17 15
20 -4 39 -40 40 -173 55 -238 26z"/>
<path d="M4425 7229 c-130 -10 -310 -34 -415 -55 -82 -17 -189 -64 -332 -145
-51 -29 -122 -67 -157 -84 -61 -30 -62 -31 -29 -32 47 -1 108 -29 108 -48 0
-9 -42 -58 -93 -109 -69 -69 -100 -110 -126 -162 -29 -61 -90 -144 -223 -305
-37 -46 -37 -46 10 -35 26 7 76 27 111 45 93 48 122 57 354 106 252 54 290 56
342 15 42 -34 109 -60 227 -91 70 -17 98 -20 179 -14 124 9 202 -6 238 -45 14
-15 45 -50 68 -78 55 -64 229 -195 418 -314 83 -52 321 -209 530 -349 404
-272 485 -321 648 -394 186 -84 218 -109 241 -187 20 -71 54 -120 183 -269 60
-69 144 -169 186 -222 42 -53 90 -105 106 -116 28 -20 28 -20 -1 86 -52 190
-78 241 -183 350 -51 54 -122 121 -158 148 -72 55 -83 71 -66 91 16 19 66 17
114 -5 52 -24 175 -123 250 -202 69 -73 132 -122 120 -92 -4 10 -20 50 -35 88
-92 235 -114 259 -387 433 -77 49 -146 91 -153 94 -7 2 -34 -1 -58 -7 -60 -16
-119 -4 -210 41 -94 46 -589 376 -797 531 -280 208 -332 239 -455 268 -68 16
-246 98 -278 129 -10 10 -10 16 1 30 24 33 84 24 162 -23 66 -40 117 -52 130
-31 13 21 -7 49 -55 80 -28 18 -50 38 -50 46 0 20 48 29 91 17 65 -17 305
-181 418 -286 147 -137 230 -200 506 -387 132 -90 287 -196 345 -235 119 -83
194 -125 221 -125 15 0 19 8 19 38 0 102 -152 237 -595 527 -247 162 -328 224
-345 264 -24 59 13 66 105 23 79 -38 309 -175 465 -277 239 -158 341 -246 504
-436 134 -156 423 -419 462 -419 2 0 -13 33 -32 73 -142 292 -176 345 -336
513 -212 222 -528 438 -922 630 -103 50 -156 70 -246 89 -63 14 -176 45 -250
70 -74 24 -164 51 -200 60 -74 17 -212 19 -345 5 -82 -8 -652 -43 -735 -44
-31 -1 -35 2 -38 26 -6 52 95 103 263 132 252 43 701 54 901 23 192 -30 464
-87 497 -103 18 -9 55 -38 83 -65 36 -33 99 -72 215 -130 301 -150 525 -286
717 -436 127 -100 193 -165 258 -255 32 -46 78 -101 101 -122 43 -38 43 -38
18 5 -13 24 -37 85 -53 134 -35 109 -60 160 -120 245 -96 136 -148 178 -409
333 -201 119 -369 197 -563 263 -101 34 -126 46 -128 62 -6 41 69 57 171 38
168 -33 431 -151 711 -319 87 -53 178 -103 202 -111 44 -15 44 -15 -55 102
-163 192 -252 263 -433 345 -262 117 -368 143 -648 157 -113 6 -340 22 -505
36 -353 30 -617 33 -815 10 -256 -31 -397 -77 -600 -196 -208 -122 -301 -158
-335 -130 -23 19 3 57 85 120 40 31 93 84 121 122 54 74 77 89 209 136 211 74
439 111 725 119 182 5 234 3 390 -17 139 -18 224 -23 375 -22 432 3 701 -53
1071 -223 79 -37 169 -75 199 -85 63 -21 75 -35 -106 124 -102 89 -263 200
-356 244 -76 36 -368 128 -456 143 -34 6 -111 9 -170 7 -86 -4 -117 -9 -157
-29 -43 -20 -65 -23 -160 -24 -102 0 -116 2 -190 33 -50 21 -110 37 -160 43
-94 10 -295 10 -450 -2z"/>
<path d="M3666 6265 c-97 -19 -192 -58 -310 -129 -132 -79 -182 -137 -301
-356 -32 -58 -66 -117 -76 -131 -19 -27 -19 -27 17 -31 22 -3 51 3 77 15 55
26 147 27 207 3 41 -17 76 -18 385 -17 309 2 350 0 445 -19 114 -23 152 -21
235 12 39 16 65 19 120 15 86 -6 269 -48 367 -83 286 -103 818 -449 1024 -666
40 -42 102 -126 144 -194 41 -65 127 -198 191 -294 138 -207 256 -410 265
-456 4 -21 0 -50 -11 -79 -22 -56 -17 -109 25 -292 27 -119 39 -235 51 -488 0
-11 8 16 18 60 96 435 96 477 -3 673 -44 87 -32 110 41 75 39 -18 92 -85 146
-183 20 -36 51 -79 68 -95 18 -17 29 -25 26 -19 -4 6 -11 61 -17 122 -15 156
-38 223 -102 297 -88 101 -148 180 -323 425 -186 261 -234 346 -216 386 6 13
18 24 28 24 32 0 143 -130 425 -496 256 -331 341 -431 324 -378 -3 11 -13 57
-22 103 -36 193 -48 217 -220 431 -327 405 -336 415 -471 456 -92 28 -78 19
-481 301 -366 256 -705 463 -871 534 -50 21 -59 22 -121 11 -77 -13 -143 -1
-228 42 -74 38 -202 137 -252 195 -25 29 -63 73 -85 98 -97 111 -319 165 -519
128z m269 -160 c93 -16 172 -49 189 -78 20 -32 -10 -39 -144 -33 -69 3 -198 6
-288 6 -163 0 -163 0 -160 27 8 73 207 112 403 78z m-405 -210 c36 -8 171 -19
300 -25 265 -12 356 -23 414 -49 74 -33 122 -102 82 -117 -8 -3 -61 4 -118 15
-147 29 -298 41 -573 44 -202 2 -250 -1 -302 -15 -71 -20 -93 -16 -93 17 0 48
65 103 155 131 51 16 57 16 135 -1z"/>
<path d="M4370 6185 c-28 -34 28 -103 160 -197 129 -91 241 -132 256 -93 12
30 -42 98 -139 176 -146 118 -241 157 -277 114z"/>
<path d="M3705 5504 c-235 -21 -485 -52 -543 -67 -64 -17 -87 -38 -151 -136
-27 -42 -61 -89 -74 -106 -25 -29 -25 -29 21 -45 53 -18 72 -41 53 -64 -7 -8
-32 -71 -55 -140 -43 -126 -43 -126 -2 -92 56 46 106 143 106 207 0 46 3 51
43 80 66 50 218 117 345 153 65 19 221 53 347 76 254 45 300 61 300 100 0 51
-104 60 -390 34z"/>
<path d="M4305 5426 c-45 -9 -106 -32 -170 -65 -71 -36 -140 -62 -235 -87
-382 -100 -532 -160 -637 -258 -108 -100 -192 -275 -248 -517 -9 -41 -23 -96
-31 -124 -7 -27 -11 -51 -10 -53 9 -8 56 28 132 99 44 42 100 88 125 102 48
28 228 100 379 152 52 17 135 55 184 83 192 110 386 163 729 197 89 9 178 24
216 36 92 31 160 23 287 -33 272 -120 510 -312 766 -619 197 -236 269 -359
313 -534 27 -104 33 -247 15 -335 -5 -25 -16 -130 -25 -235 -19 -244 -39 -377
-71 -495 -48 -174 -62 -230 -59 -230 6 0 110 172 138 225 34 69 83 211 91 265
3 25 10 125 16 223 6 103 15 190 22 205 18 38 45 40 55 5 10 -37 10 -373 0
-538 -8 -130 -8 -130 33 -15 60 167 90 300 90 395 -1 97 -11 147 -52 239 -22
51 -39 119 -59 239 -33 195 -62 274 -152 425 -84 140 -258 382 -359 499 -190
221 -461 413 -883 628 -118 60 -206 98 -255 109 -97 24 -255 29 -345 12z m250
-186 c119 -17 210 -76 192 -125 -6 -14 -24 -15 -149 -9 -330 15 -673 -80
-1128 -312 -80 -41 -159 -76 -175 -77 -26 -2 -30 2 -33 25 -3 22 8 40 49 83
121 128 329 221 792 356 218 64 323 77 452 59z"/>
<path d="M4360 4804 c-363 -50 -613 -169 -505 -240 30 -19 43 -18 300 40 275
61 505 65 624 11 32 -15 82 -51 116 -84 33 -33 98 -80 145 -106 123 -69 166
-100 249 -179 77 -75 138 -156 166 -222 26 -62 123 -417 147 -539 19 -95 22
-142 22 -350 0 -384 -9 -577 -29 -615 -23 -44 -61 -79 -111 -100 -44 -19 -67
-46 -104 -120 -12 -25 -32 -56 -44 -69 -26 -28 241 136 304 187 107 88 228
218 258 277 55 110 85 302 101 645 14 283 -7 427 -85 583 -30 59 -60 95 -163
197 -70 69 -164 167 -210 217 -179 200 -438 383 -641 454 -57 19 -89 22 -250
25 -124 2 -220 -2 -290 -12z m1370 -855 c40 -56 84 -175 111 -300 20 -91 23
-133 23 -344 0 -265 -15 -403 -60 -546 -24 -78 -64 -139 -89 -139 -22 0 -22
19 1 138 37 192 47 317 41 525 -6 208 -17 287 -72 491 -33 128 -43 195 -28
209 16 17 45 4 73 -34z"/>
<path d="M3600 4536 c-150 -56 -394 -227 -435 -305 -23 -45 -45 -144 -55 -252
-6 -57 -13 -115 -16 -129 -6 -25 -6 -25 21 0 15 14 64 75 110 135 96 128 238
268 382 378 132 101 154 135 115 170 -22 20 -73 21 -122 3z"/>
<path d="M4295 4501 c-142 -26 -268 -59 -355 -92 -123 -47 -292 -184 -418
-339 -42 -52 -109 -129 -149 -172 -92 -99 -97 -118 -89 -308 6 -139 21 -290
25 -242 0 13 8 36 16 51 8 16 22 62 31 102 36 160 95 284 132 277 45 -9 54
-121 22 -256 -11 -46 -20 -113 -20 -149 0 -80 29 -224 73 -361 33 -103 33
-103 45 -30 6 40 13 109 16 153 10 163 81 351 157 420 68 61 188 111 396 164
376 96 673 -3 846 -281 94 -151 137 -317 137 -533 0 -284 -42 -403 -227 -644
-56 -75 -56 -75 43 -21 122 65 216 130 248 173 29 39 41 83 56 205 43 370 11
641 -105 877 -141 288 -356 425 -670 427 -145 1 -248 -18 -410 -72 -130 -44
-192 -51 -202 -23 -14 35 144 135 287 182 207 67 476 74 658 16 260 -82 449
-336 534 -715 22 -99 23 -124 23 -463 0 -347 1 -359 20 -373 18 -14 22 -13 42
11 36 41 52 116 64 303 24 375 -7 641 -108 912 -95 256 -205 395 -378 481
-107 53 -177 63 -400 56 -333 -11 -533 -63 -694 -182 -67 -49 -111 -110 -136
-186 -17 -51 -63 -99 -95 -99 -26 0 -40 30 -40 87 0 122 134 287 305 375 159
82 337 122 616 137 169 10 212 20 232 52 16 26 0 49 -50 71 -68 31 -332 36
-478 9z"/>
<path d="M4283 3606 c-224 -43 -381 -143 -452 -288 -68 -140 -82 -280 -39
-386 44 -107 90 -174 183 -267 141 -142 282 -201 460 -193 108 5 138 19 217
99 231 236 157 637 -132 723 -71 21 -125 20 -202 -4 -208 -64 -284 -320 -141
-472 106 -112 298 -80 343 58 22 65 -21 139 -77 132 -24 -3 -28 -7 -28 -34 0
-66 -48 -83 -96 -35 -36 37 -38 84 -6 132 75 113 253 77 312 -65 23 -54 21
-154 -3 -210 -65 -145 -236 -225 -388 -181 -116 33 -197 104 -251 221 -26 54
-28 69 -28 174 0 108 2 119 31 180 38 81 83 133 152 178 253 161 576 74 706
-190 88 -178 86 -371 -4 -555 -58 -117 -158 -220 -329 -336 -26 -18 -26 -18
24 -11 140 19 267 68 347 134 23 19 53 64 82 123 114 229 114 511 2 743 -77
156 -209 272 -366 318 -76 23 -229 29 -317 12z"/>
</g>
</svg>
