<?xml version="1.0" standalone="no"?>
<!DOCTYPE svg PUBLIC "-//W3C//DTD SVG 20010904//EN"
 "http://www.w3.org/TR/2001/REC-SVG-20010904/DTD/svg10.dtd">
<svg version="1.0" xmlns="http://www.w3.org/2000/svg"
 width="1000.000000pt" height="1000.000000pt" viewBox="0 0 1000.000000 1000.000000"
 preserveAspectRatio="xMidYMid meet">
<metadata>
  <rdf:RDF
    xmlns:rdf = "http://www.w3.org/1999/02/22-rdf-syntax-ns#"
    xmlns:rdfs = "http://www.w3.org/2000/01/rdf-schema#"
    xmlns:dc = "http://purl.org/dc/elements/1.1/"
    xmlns:cc = "http://creativecommons.org/ns#">
    <cc:license rdf:resource="http://creativecommons.org/publicdomain/zero/1.0/deed.en"/>
    <cc:permits rdf:resource="http://creativecommons.org/ns#Reproduction"/>
    <rdf:Description about="https://nft.mir.one/fingerprints"
      dc:title="TON Fingerprints"
      dc:description="This is a unique digital fingerprint created based on the algorithm for generating basic rings using a noise texture. Like human fingerprints, you can now use it for the Web3 and Metaverse era as digital biometric information."
      dc:publisher="https://nft.mir.one"
      dc:date="2022-02-22"
      dc:format="image/svg+xml"
      dc:language="en" >
      <dc:creator>
      <rdf:Bag>
        <rdf:li>EQBondcvD2_aOFADXSWJHs4ZazQDuEl9_wNvGGPxI8hGuOFU</rdf:li>
        <rdf:li>ipfs://bafkreihj7iub3fhmhq6jn62noukt5wxn3gv6bvcg7wmt6ywvlurefezckq</rdf:li>
      </rdf:Bag>
      </dc:creator>
    </rdf:Description>
  </rdf:RDF>
</metadata>
<rect width="100%" height="100%" fill="#1b1f23"/>
<g transform="translate(0.000000,1000.000000) scale(0.100000,-0.100000)"
fill="#ffffff" stroke="none">
<path d="M4645 7725 c-79 -12 -195 -42 -350 -90 -80 -25 -80 -25 -5 -19 99 8
236 28 391 58 118 23 169 40 169 58 0 12 -114 8 -205 -7z"/>
<path d="M5486 7643 c-4 -5 -116 -8 -249 -8 -223 0 -246 -2 -297 -22 -354
-137 -544 -189 -740 -203 -120 -8 -150 -15 -270 -55 -135 -45 -135 -45 45 -39
171 6 181 6 205 -14 36 -29 15 -47 -77 -62 -137 -22 -306 -90 -490 -197 -103
-60 -103 -60 -50 -55 58 5 341 77 455 116 41 14 98 38 127 55 45 24 57 27 71
16 21 -15 14 -50 -17 -88 -31 -40 -163 -99 -348 -156 -167 -52 -250 -90 -356
-166 -47 -34 -188 -147 -215 -172 -15 -15 101 15 205 52 294 105 817 275 867
281 99 12 227 -32 236 -80 6 -29 -7 -34 -110 -45 -53 -6 -149 -25 -215 -41
-137 -36 -484 -149 -692 -227 -167 -61 -226 -101 -380 -257 -95 -95 -95 -95
-55 -89 21 3 102 33 179 65 288 123 620 241 936 333 240 70 281 87 354 142 36
28 75 49 100 54 49 9 206 -4 430 -37 436 -64 616 -130 934 -341 80 -54 205
-127 277 -164 168 -85 276 -159 520 -353 33 -26 77 -55 99 -65 41 -18 41 -18
-10 61 -94 149 -214 313 -308 420 -60 69 -98 121 -107 149 -8 24 -38 76 -67
117 -64 89 -76 110 -68 122 20 32 108 -11 184 -90 176 -183 224 -230 234 -230
6 0 1 10 -10 23 -11 12 -50 69 -87 126 -85 132 -129 184 -191 226 -116 80
-289 115 -336 68 -36 -35 -27 -53 136 -253 24 -30 61 -74 81 -97 40 -47 40
-73 -2 -73 -55 0 -119 46 -280 202 -176 170 -209 192 -369 246 -124 41 -262
69 -515 102 -229 30 -312 52 -370 98 -19 16 -42 32 -50 38 -8 5 -99 11 -202
14 -155 4 -190 8 -204 21 -14 15 -14 19 0 47 20 39 80 74 187 111 46 16 152
56 235 90 182 74 253 92 489 127 228 34 310 39 410 25 44 -6 116 -13 160 -15
80 -4 80 -4 -55 50 -224 90 -340 121 -364 97z"/>
<path d="M5310 7309 c-212 -18 -350 -57 -395 -110 -60 -73 -25 -85 275 -93
278 -9 408 -23 670 -76 177 -35 211 -39 370 -41 96 -1 193 -1 215 0 40 1 40 1
-40 46 -133 75 -331 174 -412 206 -148 58 -450 89 -683 68z"/>
<path d="M4700 6561 c-137 -29 -550 -148 -740 -213 -187 -64 -581 -215 -666
-255 -49 -23 -173 -138 -225 -208 -12 -16 -38 -47 -58 -69 -26 -27 -30 -35
-14 -27 12 6 31 11 43 11 11 0 55 17 98 39 102 51 173 80 522 212 393 148 522
193 665 228 383 95 665 105 983 35 337 -75 663 -232 1181 -571 192 -126 440
-316 491 -378 11 -14 81 -55 93 -55 6 0 -116 240 -148 290 -15 25 -41 62 -58
83 -32 41 -203 174 -352 274 -132 88 -601 358 -732 420 -342 163 -808 242
-1083 184z"/>
<path d="M4565 6175 c-236 -30 -391 -74 -586 -166 -81 -38 -222 -93 -320 -124
-426 -137 -487 -163 -553 -231 -52 -54 -170 -223 -162 -232 6 -5 37 10 196 96
141 76 214 100 404 132 94 17 212 37 261 46 98 17 171 15 281 -10 41 -9 162
-20 290 -25 172 -8 275 -19 479 -50 411 -65 499 -85 799 -181 123 -39 220 -64
280 -71 50 -6 103 -15 117 -21 15 -5 50 -38 78 -73 51 -63 90 -98 366 -328 83
-68 227 -194 321 -280 94 -85 182 -158 195 -162 13 -4 29 -12 36 -17 22 -18
-86 251 -125 310 -43 66 -307 292 -592 508 -58 44 -106 87 -108 95 -2 9 5 24
14 34 67 66 357 -117 688 -435 56 -54 115 -104 132 -113 31 -16 31 -16 -8 80
-92 228 -119 269 -254 382 -126 105 -265 199 -429 291 -71 40 -192 112 -267
161 -291 190 -603 315 -928 374 -129 23 -457 29 -605 10z m575 -218 c311 -55
638 -177 813 -305 84 -61 124 -147 79 -171 -14 -8 -46 3 -140 49 -490 240
-1016 339 -1580 296 -206 -15 -252 -12 -252 18 0 23 57 64 113 81 169 50 308
64 587 60 197 -2 259 -7 380 -28z"/>
<path d="M3904 5520 c-168 -17 -278 -57 -314 -115 -29 -47 -64 -76 -225 -186
-243 -166 -285 -203 -338 -306 -24 -48 -52 -113 -62 -143 -10 -30 -24 -68 -32
-83 -14 -27 -13 -28 6 -17 12 6 74 64 139 128 238 238 533 441 708 487 33 9
138 22 234 30 96 8 250 22 342 30 214 19 262 19 278 0 22 -26 -4 -63 -63 -90
-70 -32 -362 -112 -465 -127 -72 -11 -95 -10 -167 5 -45 9 -100 17 -122 17
-114 0 -302 -110 -523 -305 -164 -145 -215 -212 -255 -334 -17 -52 -64 -234
-61 -238 5 -7 63 58 123 138 185 246 403 452 606 573 79 47 163 74 179 58 18
-18 -14 -55 -119 -135 -207 -156 -374 -322 -521 -515 -106 -139 -119 -169
-157 -367 -8 -43 -18 -87 -21 -99 -15 -47 156 153 251 294 150 223 291 380
562 628 132 121 163 136 163 79 0 -50 -41 -103 -218 -289 -304 -316 -431 -513
-446 -688 -4 -41 -14 -126 -23 -189 -25 -178 -1 -325 97 -591 50 -135 50 -135
46 -50 -2 47 -12 132 -21 190 -22 136 -22 321 -1 423 25 115 91 301 142 397
60 113 134 213 251 342 402 440 398 435 541 508 117 59 367 147 453 161 104
16 330 6 462 -20 475 -95 842 -321 1376 -848 113 -112 209 -203 212 -203 4 0
18 -9 33 -21 26 -21 26 -21 16 3 -5 12 -21 74 -34 136 -40 182 -51 198 -227
360 -241 221 -500 430 -674 545 -180 120 -665 265 -990 297 -286 28 -284 28
-359 65 -39 19 -103 41 -141 49 -84 17 -523 28 -641 16z"/>
<path d="M3368 5491 c-129 -41 -265 -123 -313 -189 -27 -36 -120 -202 -143
-255 -7 -15 74 39 148 98 91 73 186 136 305 203 129 73 165 99 165 122 0 42
-67 51 -162 21z"/>
<path d="M4846 4944 c-107 -19 -271 -75 -365 -124 -118 -62 -243 -161 -401
-320 -219 -218 -322 -368 -399 -578 -16 -45 -38 -94 -49 -109 -85 -121 -89
-269 -16 -511 37 -121 41 -148 29 -194 -17 -64 132 -278 194 -278 29 0 25 13
-28 83 -62 82 -142 230 -132 240 42 42 191 -143 225 -278 12 -47 24 -67 53
-94 83 -73 206 -138 305 -160 24 -6 123 -11 219 -12 164 -1 178 0 219 21 102
52 210 201 225 310 8 53 -33 237 -66 302 -53 104 -146 167 -283 193 -107 21
-133 45 -83 78 69 45 203 59 297 31 124 -37 184 -103 298 -329 27 -55 70 -127
95 -160 59 -79 73 -108 87 -183 26 -130 -6 -289 -65 -328 -26 -17 -190 -222
-252 -316 -31 -46 -31 -46 70 15 112 67 193 141 226 205 22 43 38 51 59 30 16
-16 15 -117 -2 -198 -8 -36 -13 -66 -12 -67 4 -4 113 131 128 160 41 76 47
117 37 273 -11 179 -24 277 -51 364 -31 102 -111 255 -198 375 -86 121 -100
154 -76 175 40 33 185 -71 266 -189 79 -118 135 -259 165 -421 9 -47 20 -192
26 -322 6 -151 14 -250 23 -275 12 -32 15 -35 21 -18 4 11 11 31 17 45 87 206
81 183 86 350 2 92 -1 192 -8 245 -57 427 -267 708 -567 760 -401 70 -643 17
-781 -173 -27 -37 -72 -94 -99 -126 -28 -32 -70 -95 -93 -140 -24 -45 -54 -96
-68 -114 -31 -43 -26 -93 17 -160 82 -128 250 -173 338 -90 34 31 57 100 49
144 -14 70 -82 107 -120 65 -14 -16 -15 -23 -6 -41 27 -50 -52 -71 -89 -24
-49 63 -8 173 78 208 67 26 124 17 189 -32 74 -55 90 -130 52 -251 -23 -74
-19 -101 15 -101 17 0 43 19 82 60 92 97 137 75 73 -37 -40 -69 -88 -100 -212
-135 -178 -49 -339 -34 -455 45 -37 26 -71 67 -151 188 -103 155 -206 327
-270 450 -28 56 -35 81 -39 152 -6 95 0 137 22 137 20 0 31 -25 45 -98 15 -83
36 -142 62 -169 26 -28 42 -29 66 -5 10 9 34 29 54 45 28 21 53 61 107 168 81
163 145 253 241 342 200 185 432 282 700 294 321 13 612 -99 856 -330 186
-175 271 -354 309 -642 21 -165 28 -365 17 -500 -5 -66 -7 -139 -5 -163 5 -43
5 -43 49 55 49 107 95 245 114 338 9 43 11 116 6 256 -10 310 -20 397 -54 471
-68 149 -269 362 -466 493 -546 363 -1159 316 -1607 -125 -160 -157 -238 -299
-279 -506 -26 -130 -34 -148 -55 -120 -21 28 -28 94 -23 214 4 91 9 118 35
179 98 231 386 521 648 652 295 148 638 169 969 60 317 -106 593 -301 901
-639 69 -76 161 -165 203 -198 42 -33 95 -79 117 -102 37 -39 113 -95 120 -88
3 4 -21 181 -30 218 -23 94 -29 104 -116 198 -120 129 -353 348 -464 437 -317
254 -600 392 -913 446 -136 23 -338 24 -456 3z"/>
<path d="M4877 4159 c-290 -30 -544 -186 -715 -437 -101 -149 -193 -308 -202
-348 -17 -77 31 -194 80 -194 21 0 24 8 40 98 15 83 40 140 106 238 154 230
305 347 524 406 72 19 109 23 235 22 162 0 233 -13 353 -61 102 -41 178 -89
260 -167 243 -230 343 -590 302 -1084 -7 -86 -11 -166 -9 -176 6 -30 146 257
165 339 28 119 3 442 -47 625 -114 409 -454 694 -884 740 -100 11 -98 11 -208
-1z"/>
<path d="M3232 3938 c-29 -36 -39 -158 -25 -328 6 -85 6 -85 19 -30 38 158 65
305 62 333 -2 24 -9 33 -24 35 -11 2 -26 -3 -32 -10z"/>
<path d="M6475 3676 c-17 -12 -19 -34 -23 -257 -7 -305 -6 -385 3 -407 5 -11
24 40 55 149 53 185 59 199 96 228 26 20 26 23 22 110 -4 78 -7 93 -32 125
-25 33 -72 66 -94 66 -4 0 -17 -6 -27 -14z"/>
<path d="M6630 3373 c1 -10 50 -47 50 -38 0 17 -22 45 -35 45 -8 0 -15 -3 -15
-7z"/>
<path d="M5066 2972 c-9 -11 -28 -57 -43 -103 -30 -98 -62 -165 -112 -234 -48
-66 -201 -236 -287 -318 -69 -66 -69 -66 6 -46 41 11 121 42 176 69 80 39 112
61 154 106 65 72 125 160 157 232 35 78 43 220 16 272 -21 41 -43 48 -67 22z"/>
<path d="M3930 2585 c0 -11 190 -99 289 -132 93 -32 118 -37 206 -37 83 -1
107 3 140 20 44 23 60 66 30 78 -9 3 -70 -1 -135 -11 -112 -15 -125 -15 -232
2 -102 16 -235 52 -280 76 -10 6 -18 7 -18 4z"/>
</g>
</svg>
