<?xml version="1.0" standalone="no"?>
<!DOCTYPE svg PUBLIC "-//W3C//DTD SVG 20010904//EN"
 "http://www.w3.org/TR/2001/REC-SVG-20010904/DTD/svg10.dtd">
<svg version="1.0" xmlns="http://www.w3.org/2000/svg"
 width="1000.000000pt" height="1000.000000pt" viewBox="0 0 1000.000000 1000.000000"
 preserveAspectRatio="xMidYMid meet">
<metadata>
  <rdf:RDF
    xmlns:rdf = "http://www.w3.org/1999/02/22-rdf-syntax-ns#"
    xmlns:rdfs = "http://www.w3.org/2000/01/rdf-schema#"
    xmlns:dc = "http://purl.org/dc/elements/1.1/"
    xmlns:cc = "http://creativecommons.org/ns#">
    <cc:license rdf:resource="http://creativecommons.org/publicdomain/zero/1.0/deed.en"/>
    <cc:permits rdf:resource="http://creativecommons.org/ns#Reproduction"/>
    <rdf:Description about="https://nft.mir.one/fingerprints"
      dc:title="TON Fingerprints"
      dc:description="This is a unique digital fingerprint created based on the algorithm for generating basic rings using a noise texture. Like human fingerprints, you can now use it for the Web3 and Metaverse era as digital biometric information."
      dc:publisher="https://nft.mir.one"
      dc:date="2022-02-22"
      dc:format="image/svg+xml"
      dc:language="en" >
      <dc:creator>
      <rdf:Bag>
        <rdf:li>EQBondcvD2_aOFADXSWJHs4ZazQDuEl9_wNvGGPxI8hGuOFU</rdf:li>
        <rdf:li>ipfs://bafkreihj7iub3fhmhq6jn62noukt5wxn3gv6bvcg7wmt6ywvlurefezckq</rdf:li>
      </rdf:Bag>
      </dc:creator>
    </rdf:Description>
  </rdf:RDF>
</metadata>
<rect width="100%" height="100%" fill="#1b1f23"/>
<g transform="translate(0.000000,1000.000000) scale(0.100000,-0.100000)"
fill="#ffffff" stroke="none">
<path d="M4949 7765 c33 -24 98 -63 143 -86 322 -162 453 -260 612 -458 76
-94 114 -132 179 -177 45 -32 127 -94 182 -139 55 -44 138 -110 185 -147 164
-127 223 -208 354 -486 173 -367 186 -412 211 -703 22 -267 29 -290 109 -394
49 -62 68 -114 86 -226 5 -37 17 -84 27 -105 9 -22 22 -61 29 -89 12 -50 12
-50 13 5 0 30 -4 130 -9 221 -8 132 -7 177 4 218 13 49 12 51 -4 36 -16 -15
-21 -15 -47 -1 -16 8 -34 21 -40 28 -21 26 -46 202 -58 423 -4 61 -11 130 -16
155 -18 84 -81 264 -141 400 -119 270 -230 441 -403 619 -120 124 -534 487
-675 592 -140 104 -303 195 -466 259 -65 26 -309 100 -329 100 -4 0 20 -20 54
-45z"/>
<path d="M5700 7656 c0 -2 8 -10 18 -17 15 -13 16 -12 3 4 -13 16 -21 21 -21
13z"/>
<path d="M4304 7604 c14 -22 57 -56 106 -85 126 -76 189 -128 284 -238 153
-176 317 -322 503 -450 162 -111 263 -216 464 -481 245 -325 375 -515 509
-745 51 -88 134 -230 185 -315 117 -196 145 -252 189 -378 78 -224 108 -448
125 -917 9 -252 1 -414 -29 -555 -11 -54 -20 -109 -20 -122 0 -13 -13 -61 -29
-108 -16 -47 -28 -86 -26 -88 4 -4 113 240 139 313 108 304 169 653 169 970 1
155 -3 199 -26 317 -33 170 -79 309 -150 460 -53 112 -57 118 -105 142 -72 36
-119 98 -218 285 -120 226 -179 321 -306 488 -121 160 -358 496 -453 642 -34
53 -78 111 -97 127 -63 55 -154 104 -215 115 -96 18 -166 62 -286 184 -184
186 -232 265 -165 273 54 6 147 -64 227 -172 65 -89 116 -140 175 -180 46 -31
72 -33 81 -6 9 27 -13 64 -89 150 -95 107 -87 157 15 92 42 -28 83 -69 196
-200 61 -69 101 -86 134 -56 77 70 -181 340 -386 404 -22 7 -85 32 -140 56
-55 23 -129 47 -165 53 -153 24 -384 50 -498 55 -123 6 -123 6 -98 -30z"/>
<path d="M5745 7623 c41 -45 362 -322 505 -436 96 -77 192 -156 213 -175 20
-20 37 -33 37 -30 0 15 -355 338 -485 443 -127 101 -295 225 -270 198z"/>
<path d="M4030 7345 c-99 -27 -170 -56 -213 -87 -18 -13 -59 -38 -92 -56 -33
-19 -52 -31 -43 -28 10 3 82 8 161 12 162 8 241 -5 377 -58 215 -84 566 -332
713 -503 33 -38 131 -144 217 -235 244 -256 337 -370 507 -625 128 -192 186
-292 279 -476 121 -242 188 -431 231 -644 25 -128 25 -422 -1 -520 -30 -115
-234 -491 -335 -619 -67 -84 -522 -514 -711 -672 -167 -140 -390 -267 -575
-328 -75 -25 -241 -59 -365 -74 -54 -7 -52 -8 90 -30 169 -26 263 -28 345 -7
85 22 127 43 280 137 221 135 404 276 673 521 167 152 217 189 307 231 101 47
135 91 264 341 92 177 114 207 149 203 27 -3 27 -3 26 -88 0 -69 -7 -104 -34
-185 -40 -118 -203 -446 -262 -525 -91 -122 -259 -279 -443 -414 -267 -196
-349 -248 -610 -392 -33 -19 -57 -34 -54 -34 3 0 79 25 169 55 182 62 306 122
477 231 63 41 151 93 195 115 68 36 97 60 205 175 74 78 141 140 162 149 67
30 80 40 136 110 109 137 201 358 231 557 16 109 13 183 -12 298 -9 39 -18
169 -24 325 -18 508 -74 707 -338 1185 -199 361 -405 666 -648 956 -140 168
-261 284 -574 554 -334 287 -434 364 -552 425 -78 41 -92 45 -155 44 -38 0
-105 -11 -153 -24z"/>
<path d="M3789 7030 c-56 -14 -177 -64 -265 -109 -92 -48 -109 -43 176 -45
157 -2 206 -6 249 -20 61 -20 116 -53 146 -86 27 -30 56 -44 192 -91 65 -23
197 -79 293 -125 202 -97 233 -106 249 -75 36 66 -118 203 -405 360 -141 77
-295 146 -383 170 -84 23 -203 33 -252 21z"/>
<path d="M5744 6895 c-24 -36 -8 -71 109 -250 56 -85 131 -200 167 -256 36
-56 107 -146 158 -200 145 -156 229 -299 357 -609 82 -199 114 -239 149 -188
34 49 8 231 -60 432 -19 56 -73 178 -119 272 -66 132 -87 186 -94 237 -5 36
-18 85 -29 109 -46 103 -161 208 -228 208 -33 0 -33 0 -31 -52 2 -44 -1 -53
-17 -56 -25 -5 -37 15 -35 63 0 22 0 48 0 57 -1 23 -166 195 -220 230 -55 35
-85 36 -107 3z m464 -402 c41 -44 112 -150 112 -168 0 -18 -26 -26 -53 -16
-55 21 -144 153 -133 197 9 34 33 30 74 -13z"/>
<path d="M3599 6751 c-48 -9 -162 -65 -267 -130 -62 -39 -62 -39 -25 -43 21
-3 83 1 138 8 55 7 195 20 312 28 153 11 222 19 248 32 58 27 40 71 -40 93
-51 15 -306 23 -366 12z"/>
<path d="M3875 6504 c-417 -38 -447 -42 -510 -74 -33 -16 -82 -47 -109 -67
-26 -21 -67 -52 -91 -69 -42 -30 -42 -30 14 -29 31 1 92 9 136 18 223 46 605
73 799 57 143 -11 228 -28 389 -76 393 -117 496 -200 791 -636 252 -373 385
-675 430 -980 40 -265 10 -481 -110 -801 -102 -274 -165 -359 -457 -621 -65
-58 -96 -94 -118 -139 -39 -77 -113 -151 -224 -223 -130 -84 -217 -113 -244
-80 -14 16 -25 8 164 132 146 96 225 166 225 201 0 19 -5 23 -30 23 -17 0 -45
-7 -63 -16 -68 -35 -282 -189 -346 -250 -94 -88 -126 -99 -286 -99 -119 0
-134 2 -180 25 -49 25 -87 71 -71 87 7 8 117 8 271 2 93 -4 126 12 334 158 91
64 227 149 301 188 246 129 429 281 493 407 20 40 31 80 37 144 6 54 24 130
45 194 96 283 107 536 35 815 -68 262 -177 476 -374 737 -53 69 -92 131 -102
162 -26 79 -49 119 -103 178 -52 57 -149 127 -237 171 -76 38 -268 102 -375
126 -262 56 -621 54 -942 -5 -101 -19 -148 -46 -268 -156 -73 -68 -73 -68 -41
-68 17 0 73 11 124 24 142 37 326 65 501 78 409 29 823 -66 1097 -252 134 -91
163 -142 83 -148 -35 -3 -68 9 -185 64 -244 113 -389 158 -613 190 -217 30
-579 9 -814 -47 -72 -18 -119 -50 -209 -143 -82 -84 -83 -86 -53 -86 17 0 79
14 138 30 240 68 557 108 753 95 299 -19 505 -78 828 -236 138 -68 174 -91
233 -146 145 -137 269 -373 337 -641 24 -96 27 -125 27 -287 0 -258 -28 -349
-168 -552 -92 -134 -132 -212 -146 -287 -19 -101 -55 -141 -273 -309 -197
-151 -336 -246 -422 -288 -93 -45 -106 -47 -106 -16 0 30 33 60 220 199 230
172 352 287 422 398 49 77 212 421 242 510 39 119 49 199 43 349 -7 171 -29
259 -118 484 -107 269 -196 374 -418 491 -289 152 -631 218 -961 187 -117 -12
-386 -58 -475 -82 -31 -8 -61 -32 -132 -106 -51 -53 -91 -98 -89 -100 4 -4 44
5 141 32 43 12 79 15 126 11 52 -5 89 0 185 23 194 47 260 56 429 55 286 0
557 -76 762 -213 125 -84 209 -203 173 -246 -16 -19 -46 -7 -130 54 -332 242
-745 326 -1097 225 -110 -31 -159 -62 -315 -195 -107 -91 -129 -116 -160 -175
-35 -65 -112 -283 -104 -291 2 -2 30 27 62 64 157 183 313 313 458 383 119 57
182 71 341 77 221 8 381 -31 605 -149 63 -34 161 -85 216 -115 118 -62 166
-109 213 -207 47 -101 63 -168 68 -301 6 -139 -10 -246 -58 -383 -106 -300
-242 -480 -535 -707 -200 -155 -300 -249 -326 -306 -18 -37 -29 -50 -51 -55
-39 -8 -138 3 -228 26 -80 21 -122 54 -117 94 1 11 -1 27 -5 33 -15 24 36 36
101 25 106 -19 191 10 357 121 313 209 463 357 569 556 89 169 126 312 126
485 0 297 -129 478 -454 636 -175 85 -255 104 -441 105 -130 0 -160 -3 -225
-23 -159 -51 -296 -137 -420 -268 -96 -101 -120 -158 -140 -332 -10 -92 4
-277 30 -376 55 -216 201 -441 355 -546 60 -41 128 -49 226 -26 139 32 233 91
245 152 3 19 29 72 56 117 112 184 143 274 136 392 -11 161 -122 296 -264 319
-71 12 -145 -32 -115 -68 6 -7 40 -28 76 -45 196 -97 209 -341 28 -540 -149
-165 -367 -172 -540 -17 -100 90 -161 221 -170 366 -7 114 15 211 72 328 57
114 170 236 282 302 300 176 688 112 927 -152 102 -112 146 -235 146 -403 0
-225 -93 -440 -264 -611 -89 -89 -161 -136 -319 -207 -186 -84 -395 -143 -534
-150 -17 -1 -31 -3 -30 -3 1 -1 39 -29 85 -63 79 -59 82 -62 82 -102 0 -35 6
-47 53 -92 53 -54 181 -142 291 -202 93 -51 206 -93 303 -112 85 -17 89 -16
227 7 244 40 338 76 496 188 79 56 587 548 668 646 160 194 292 450 353 681
22 81 24 111 24 290 -1 230 -13 302 -90 533 -162 485 -617 1144 -942 1366 -70
48 -72 48 -160 52 -77 2 -113 11 -257 59 -93 31 -199 63 -235 71 -79 16 -214
16 -416 -2z m1445 -2712 c0 -33 -75 -144 -133 -198 -42 -39 -66 -54 -87 -54
-16 0 -32 5 -35 10 -8 13 112 176 165 224 44 39 90 49 90 18z"/>
<path d="M3094 5251 c-39 -24 -84 -78 -119 -145 -16 -28 -41 -71 -58 -96 -17
-27 -22 -38 -11 -29 11 9 33 24 49 32 50 26 218 165 238 197 11 17 16 37 13
45 -8 21 -74 19 -112 -4z"/>
<path d="M7081 4664 c0 -11 3 -14 6 -6 3 7 2 16 -1 19 -3 4 -6 -2 -5 -13z"/>
<path d="M3681 4654 c-149 -40 -305 -163 -370 -292 -90 -179 -77 -367 35 -491
116 -129 294 -140 409 -26 112 112 104 274 -18 349 -57 35 -98 37 -131 7 -30
-28 -37 -61 -20 -100 14 -34 40 -40 75 -18 17 10 22 9 35 -8 36 -48 -17 -115
-95 -123 -43 -4 -57 -1 -91 22 -84 55 -108 178 -56 291 52 114 201 225 323
240 151 19 330 -81 402 -227 101 -202 52 -428 -143 -662 -71 -84 -81 -112 -41
-122 61 -15 193 91 278 222 140 216 162 447 62 650 -65 132 -222 252 -377 289
-79 19 -207 18 -277 -1z"/>
<path d="M5832 3148 c-27 -24 -106 -95 -174 -158 -218 -203 -421 -357 -688
-525 -92 -58 -184 -123 -204 -145 -35 -39 -47 -82 -26 -95 6 -3 10 0 10 8 0
25 35 47 169 102 175 72 250 112 381 204 199 140 354 265 476 386 123 122 164
180 164 235 0 26 -3 30 -29 30 -20 0 -45 -14 -79 -42z"/>
<path d="M6153 2858 c-73 -79 -218 -347 -198 -366 3 -3 5 -1 5 5 0 6 44 69 99
140 108 141 131 179 131 218 0 31 -10 32 -37 3z"/>
<path d="M5734 2481 c-21 -16 -79 -68 -129 -116 -90 -87 -90 -87 -5 -29 103
69 177 130 191 155 15 29 -11 24 -57 -10z"/>
</g>
</svg>
