<?xml version="1.0" standalone="no"?>
<!DOCTYPE svg PUBLIC "-//W3C//DTD SVG 20010904//EN"
 "http://www.w3.org/TR/2001/REC-SVG-20010904/DTD/svg10.dtd">
<svg version="1.0" xmlns="http://www.w3.org/2000/svg"
 width="1000.000000pt" height="1000.000000pt" viewBox="0 0 1000.000000 1000.000000"
 preserveAspectRatio="xMidYMid meet">
<metadata>
  <rdf:RDF
    xmlns:rdf = "http://www.w3.org/1999/02/22-rdf-syntax-ns#"
    xmlns:rdfs = "http://www.w3.org/2000/01/rdf-schema#"
    xmlns:dc = "http://purl.org/dc/elements/1.1/"
    xmlns:cc = "http://creativecommons.org/ns#">
    <cc:license rdf:resource="http://creativecommons.org/publicdomain/zero/1.0/deed.en"/>
    <cc:permits rdf:resource="http://creativecommons.org/ns#Reproduction"/>
    <rdf:Description about="https://nft.mir.one/fingerprints"
      dc:title="TON Fingerprints"
      dc:description="This is a unique digital fingerprint created based on the algorithm for generating basic rings using a noise texture. Like human fingerprints, you can now use it for the Web3 and Metaverse era as digital biometric information."
      dc:publisher="https://nft.mir.one"
      dc:date="2022-02-22"
      dc:format="image/svg+xml"
      dc:language="en" >
      <dc:creator>
      <rdf:Bag>
        <rdf:li>EQBondcvD2_aOFADXSWJHs4ZazQDuEl9_wNvGGPxI8hGuOFU</rdf:li>
        <rdf:li>ipfs://bafkreihj7iub3fhmhq6jn62noukt5wxn3gv6bvcg7wmt6ywvlurefezckq</rdf:li>
      </rdf:Bag>
      </dc:creator>
    </rdf:Description>
  </rdf:RDF>
</metadata>
<rect width="100%" height="100%" fill="#1b1f23"/>
<g transform="translate(0.000000,1000.000000) scale(0.100000,-0.100000)"
fill="#ffffff" stroke="none">
<path d="M4650 7644 c-74 -8 -184 -23 -245 -34 -60 -11 -141 -20 -180 -21 -70
-1 -70 -1 -15 -19 39 -13 86 -19 162 -19 59 -1 155 -8 214 -17 91 -13 130 -14
271 -4 163 12 268 9 428 -11 117 -15 186 -35 315 -91 63 -27 159 -67 212 -89
188 -75 360 -166 613 -326 70 -44 70 -44 0 23 -205 196 -400 324 -676 444 -48
21 -113 56 -144 78 -63 45 -128 64 -305 88 -133 17 -469 16 -650 -2z"/>
<path d="M5693 7643 c9 -2 23 -2 30 0 6 3 -1 5 -18 5 -16 0 -22 -2 -12 -5z"/>
<path d="M5635 7630 c-8 -13 5 -13 25 0 13 8 13 10 -2 10 -9 0 -20 -4 -23 -10z"/>
<path d="M4304 7440 c-71 -14 -114 -37 -114 -60 0 -13 9 -24 26 -30 35 -14
262 -11 304 3 30 10 35 17 35 42 0 25 -5 32 -35 42 -40 13 -154 15 -216 3z"/>
<path d="M4865 7391 c-35 -9 -80 -33 -115 -61 -14 -12 -50 -28 -80 -36 -188
-54 -196 -56 -310 -56 -95 -1 -127 3 -180 22 -47 16 -79 21 -115 17 -73 -8
-256 -80 -363 -143 -51 -30 -107 -61 -125 -69 -19 -9 -25 -14 -14 -15 10 0 29
-11 43 -25 25 -25 25 -25 90 -6 116 36 236 52 469 61 127 5 296 12 376 16 176
8 219 3 219 -30 0 -28 -33 -59 -80 -75 -19 -7 -138 -23 -265 -36 -447 -48
-551 -78 -715 -210 -96 -77 -259 -234 -274 -264 -7 -14 -19 -50 -26 -79 -8
-37 -37 -90 -96 -178 -93 -137 -223 -358 -259 -441 -13 -28 -40 -80 -60 -115
-37 -63 -37 -63 -5 -33 90 83 376 422 520 615 155 208 284 321 461 404 176 83
368 125 609 133 155 5 155 5 265 -31 61 -21 180 -70 265 -111 85 -41 231 -99
323 -131 159 -53 168 -58 181 -89 17 -41 62 -75 150 -115 148 -66 294 -186
438 -359 39 -47 124 -138 188 -201 85 -83 136 -143 183 -216 53 -82 77 -109
124 -140 68 -46 112 -112 147 -224 52 -165 59 -372 17 -515 -12 -38 -50 -173
-85 -300 -86 -308 -123 -413 -210 -590 -165 -337 -367 -580 -673 -810 -75 -56
-171 -117 -233 -148 -105 -52 -105 -52 -225 -53 -120 0 -120 0 -264 -58 -297
-119 -617 -175 -895 -155 -77 5 -142 11 -145 13 -3 2 -35 -2 -71 -8 -65 -12
-65 -12 70 -60 193 -68 260 -85 389 -97 155 -15 318 1 520 52 153 39 153 39
313 29 177 -10 163 -13 283 58 81 49 249 168 365 260 521 414 830 978 967
1760 22 131 27 186 27 332 0 283 -44 454 -155 609 -143 200 -330 413 -558 641
-145 144 -247 227 -352 283 -63 35 -65 36 -176 34 -127 -2 -151 7 -107 42 20
16 41 21 86 21 41 0 60 4 64 14 8 21 -12 52 -48 74 -30 18 -594 209 -774 261
-133 39 -136 92 -5 99 93 6 230 -24 456 -99 261 -87 346 -132 562 -296 239
-183 356 -286 516 -457 234 -250 370 -414 464 -558 24 -37 48 -70 53 -73 6 -4
24 -30 41 -58 17 -29 29 -45 26 -36 -72 224 -183 471 -277 612 -96 145 -386
442 -597 612 -348 280 -715 444 -1113 500 -245 34 -259 38 -302 103 -37 55
-19 75 53 62 24 -5 109 -16 189 -25 294 -33 497 -91 765 -219 314 -150 578
-356 883 -687 73 -79 163 -171 200 -205 67 -61 67 -61 -3 47 -38 59 -92 143
-120 186 -131 206 -341 452 -480 563 -137 109 -358 228 -611 329 -262 104
-385 131 -614 137 -85 2 -168 0 -185 -5z m563 -4743 c18 -18 -4 -47 -51 -69
-44 -20 -102 -25 -111 -10 -11 18 30 53 84 71 66 23 63 23 78 8z"/>
<path d="M3527 6910 c-4 -19 -42 -67 -113 -140 -107 -110 -107 -110 -45 -82
71 32 140 87 182 145 32 44 38 91 13 101 -26 10 -31 7 -37 -24z"/>
<path d="M4480 6639 c-234 -27 -458 -112 -630 -240 -93 -70 -213 -194 -354
-369 -60 -74 -169 -196 -241 -270 -107 -111 -138 -149 -171 -215 -60 -117 -90
-195 -129 -335 -20 -69 -38 -134 -41 -145 -6 -20 23 27 131 210 139 238 238
365 282 365 18 0 23 -6 23 -25 0 -33 -139 -300 -207 -399 -71 -101 -86 -137
-129 -299 -41 -154 -53 -299 -35 -417 54 -347 185 -698 356 -956 95 -142 194
-248 314 -334 241 -172 317 -249 328 -329 7 -50 18 -57 159 -99 140 -42 270
-56 428 -48 177 9 301 32 566 105 124 34 265 73 314 87 124 34 241 91 355 173
398 286 642 652 766 1151 67 268 70 327 25 416 -27 51 -37 98 -76 344 -68 425
-70 434 -104 503 -47 96 -100 139 -137 112 -26 -19 -22 -81 16 -240 57 -244
141 -680 141 -733 0 -60 -17 -108 -49 -136 -19 -17 -21 -30 -21 -111 0 -179
-41 -340 -136 -530 -73 -148 -168 -277 -294 -404 -227 -228 -444 -340 -853
-441 -226 -56 -362 -73 -532 -67 -151 5 -221 20 -322 67 -109 50 -249 156
-396 297 -65 63 -68 67 -62 102 9 54 -15 109 -118 265 -278 427 -366 739 -323
1156 9 85 16 201 16 258 0 97 3 112 54 270 30 92 59 198 65 236 15 84 50 155
129 261 180 241 340 378 564 485 193 92 377 125 648 118 193 -6 230 0 230 38
0 49 -132 104 -300 124 -95 11 -142 11 -250 -1z m-1252 -1572 c2 -20 -11 -108
-29 -194 -37 -178 -43 -331 -20 -463 34 -195 157 -491 280 -675 69 -103 197
-261 233 -288 34 -25 36 -52 6 -61 -96 -25 -330 236 -476 529 -135 270 -211
579 -184 747 12 80 83 310 114 373 42 82 71 95 76 32z"/>
<path d="M3266 6416 c-18 -18 -65 -79 -105 -136 -72 -103 -72 -103 1 -36 88
81 168 172 168 192 0 25 -32 15 -64 -20z"/>
<path d="M5031 6390 c-39 -12 -139 -25 -255 -34 -284 -22 -414 -53 -591 -143
-194 -98 -341 -224 -479 -413 -116 -158 -228 -477 -258 -735 -7 -60 -12 -213
-13 -340 0 -186 3 -246 18 -315 49 -225 137 -417 327 -715 154 -241 189 -286
278 -356 233 -186 420 -229 767 -178 580 84 929 278 1184 658 60 88 126 231
150 325 39 149 22 300 -40 371 -58 65 -84 38 -99 -100 -16 -145 -44 -246 -100
-360 -111 -223 -278 -389 -505 -500 -197 -96 -326 -127 -547 -129 -143 -1
-148 -2 -164 -25 -54 -77 -219 -81 -377 -8 -269 123 -566 505 -691 889 -53
160 -69 277 -69 473 2 366 83 665 252 920 92 139 283 305 446 387 133 68 326
117 529 137 222 22 341 10 453 -44 81 -40 105 -64 163 -170 31 -55 60 -91 113
-137 126 -110 237 -225 237 -247 0 -45 -38 -34 -185 54 -49 29 -114 63 -143
74 -72 28 -214 44 -412 44 -186 1 -281 -15 -475 -79 -149 -49 -237 -97 -319
-174 -171 -162 -270 -381 -296 -662 -20 -209 19 -418 114 -613 75 -154 154
-239 280 -302 50 -25 111 -60 136 -77 114 -81 288 -176 377 -207 209 -72 502
9 731 201 142 119 239 277 312 509 22 72 54 159 70 194 17 34 30 77 30 95 0
100 -79 359 -141 465 -81 136 -182 210 -401 291 -134 50 -220 66 -348 66 -240
0 -362 -63 -512 -264 -200 -268 -218 -566 -51 -851 56 -97 177 -222 250 -259
207 -104 446 -62 618 109 121 122 184 258 193 421 8 162 -38 286 -147 394
-112 111 -232 156 -391 148 -117 -5 -193 -42 -278 -132 -81 -87 -106 -151
-107 -271 0 -79 4 -98 29 -152 31 -69 88 -128 158 -164 59 -32 166 -33 224 -2
150 79 189 260 80 369 -72 72 -164 82 -225 25 -50 -47 -35 -130 18 -101 34 18
71 -11 71 -56 0 -8 -11 -26 -25 -39 -18 -19 -35 -25 -68 -25 -95 0 -152 97
-124 207 17 66 56 114 119 149 46 25 63 29 133 29 67 0 89 -4 136 -28 139 -68
221 -233 191 -383 -36 -175 -162 -304 -329 -335 -251 -47 -503 202 -503 496 0
151 56 280 170 396 138 140 302 187 502 144 365 -77 589 -386 527 -731 -50
-287 -215 -522 -444 -635 -106 -51 -180 -69 -292 -69 -164 0 -323 68 -432 186
-90 97 -209 332 -253 498 -29 112 -29 288 1 400 27 103 85 221 153 316 60 82
77 112 106 181 18 42 27 50 93 83 127 62 211 79 389 80 180 0 254 -15 442 -88
65 -25 153 -52 195 -61 43 -9 92 -20 110 -26 89 -29 170 -185 273 -526 78
-260 158 -400 223 -391 40 6 27 92 -78 503 -97 380 -97 380 -105 550 -8 188
-12 203 -84 315 -90 138 -237 266 -391 340 -97 47 -365 146 -449 165 -77 18
-96 18 -175 -5z m602 -300 c103 -69 226 -201 271 -291 29 -57 36 -83 36 -128
0 -32 -6 -65 -13 -75 -25 -34 -48 -15 -82 65 -44 104 -83 158 -196 269 -164
161 -194 210 -125 210 25 0 56 -14 109 -50z m-1129 -586 c29 -11 16 -38 -39
-82 -64 -51 -151 -163 -194 -249 -91 -180 -120 -373 -86 -580 19 -116 56 -219
134 -369 64 -122 73 -166 38 -172 -25 -5 -93 69 -147 158 -150 248 -190 579
-103 854 62 197 182 364 306 425 44 22 64 25 91 15z"/>
<path d="M4744 6060 c-420 -55 -743 -276 -917 -625 -96 -195 -136 -366 -144
-620 -9 -279 27 -456 136 -680 161 -328 426 -578 705 -664 83 -26 186 -29 186
-6 0 53 -52 101 -205 190 -224 129 -394 271 -482 400 -90 133 -165 320 -194
485 -19 108 -17 355 5 464 101 517 413 812 939 890 132 20 222 20 354 0 136
-20 197 -16 201 12 7 51 -102 123 -227 150 -71 15 -256 17 -357 4z"/>
<path d="M6590 5324 c-14 -36 -13 -48 16 -217 14 -83 31 -212 38 -285 15 -145
26 -173 64 -153 37 20 57 95 56 211 -1 118 -14 196 -51 315 -42 136 -98 195
-123 129z"/>
<path d="M3438 3163 c229 -254 396 -374 476 -343 14 5 26 13 26 18 0 5 -51 42
-112 82 -62 40 -153 103 -203 140 -49 36 -115 83 -145 103 -30 21 -71 50 -90
65 -19 15 2 -14 48 -65z"/>
<path d="M6380 2894 c-30 -31 -145 -132 -255 -224 -250 -210 -322 -284 -115
-119 130 104 447 398 430 399 -3 0 -30 -25 -60 -56z"/>
<path d="M5824 2408 c-19 -23 -19 -23 4 -4 12 11 22 21 22 23 0 8 -8 2 -26
-19z"/>
<path d="M5400 2398 c-14 -5 -97 -30 -185 -54 -103 -29 -198 -63 -267 -96 -59
-28 -107 -53 -105 -54 3 -3 347 72 420 92 84 24 148 51 175 76 42 40 20 61
-38 36z"/>
</g>
</svg>
