<?xml version="1.0" standalone="no"?>
<!DOCTYPE svg PUBLIC "-//W3C//DTD SVG 20010904//EN"
 "http://www.w3.org/TR/2001/REC-SVG-20010904/DTD/svg10.dtd">
<svg version="1.0" xmlns="http://www.w3.org/2000/svg"
 width="1000.000000pt" height="1000.000000pt" viewBox="0 0 1000.000000 1000.000000"
 preserveAspectRatio="xMidYMid meet">
<metadata>
  <rdf:RDF
    xmlns:rdf = "http://www.w3.org/1999/02/22-rdf-syntax-ns#"
    xmlns:rdfs = "http://www.w3.org/2000/01/rdf-schema#"
    xmlns:dc = "http://purl.org/dc/elements/1.1/"
    xmlns:cc = "http://creativecommons.org/ns#">
    <cc:license rdf:resource="http://creativecommons.org/publicdomain/zero/1.0/deed.en"/>
    <cc:permits rdf:resource="http://creativecommons.org/ns#Reproduction"/>
    <rdf:Description about="https://nft.mir.one/fingerprints"
      dc:title="TON Fingerprints"
      dc:description="This is a unique digital fingerprint created based on the algorithm for generating basic rings using a noise texture. Like human fingerprints, you can now use it for the Web3 and Metaverse era as digital biometric information."
      dc:publisher="https://nft.mir.one"
      dc:date="2022-02-22"
      dc:format="image/svg+xml"
      dc:language="en" >
      <dc:creator>
      <rdf:Bag>
        <rdf:li>EQBondcvD2_aOFADXSWJHs4ZazQDuEl9_wNvGGPxI8hGuOFU</rdf:li>
        <rdf:li>ipfs://bafkreihj7iub3fhmhq6jn62noukt5wxn3gv6bvcg7wmt6ywvlurefezckq</rdf:li>
      </rdf:Bag>
      </dc:creator>
    </rdf:Description>
  </rdf:RDF>
</metadata>
<rect width="100%" height="100%" fill="#1b1f23"/>
<g transform="translate(0.000000,1000.000000) scale(0.100000,-0.100000)"
fill="#ffffff" stroke="none">
<path d="M5088 7813 c6 -2 18 -2 25 0 6 3 1 5 -13 5 -14 0 -19 -2 -12 -5z"/>
<path d="M5168 7803 c6 -2 18 -2 25 0 6 3 1 5 -13 5 -14 0 -19 -2 -12 -5z"/>
<path d="M5238 7793 c7 -3 16 -2 19 1 4 3 -2 6 -13 5 -11 0 -14 -3 -6 -6z"/>
<path d="M5298 7783 c7 -3 16 -2 19 1 4 3 -2 6 -13 5 -11 0 -14 -3 -6 -6z"/>
<path d="M5348 7773 c7 -3 16 -2 19 1 4 3 -2 6 -13 5 -11 0 -14 -3 -6 -6z"/>
<path d="M4380 7672 c-94 -16 -95 -16 -51 -24 25 -4 65 -14 90 -22 25 -8 71
-17 101 -21 30 -3 116 -21 190 -40 74 -19 234 -52 355 -75 338 -63 519 -115
618 -177 44 -28 50 -59 11 -69 -32 -8 -78 -2 -332 46 -509 96 -893 140 -1030
120 -214 -33 -474 -172 -721 -386 -211 -184 -195 -166 -126 -144 33 10 130 52
215 94 472 229 759 258 1565 155 269 -34 496 -27 593 18 42 20 43 59 0 133
-116 202 -356 300 -928 376 -250 34 -420 39 -550 16z"/>
<path d="M5916 7509 c34 -35 83 -93 108 -129 73 -101 163 -187 261 -247 50
-30 110 -69 135 -85 45 -31 45 -31 10 4 -122 121 -472 442 -535 491 -32 24
-28 18 21 -34z"/>
<path d="M5865 7010 c-163 -54 -323 -61 -660 -30 -305 27 -508 34 -670 21
-321 -26 -526 -84 -825 -232 -145 -72 -166 -86 -250 -166 -129 -122 -196 -208
-306 -389 -51 -86 -94 -158 -94 -159 0 -1 19 4 43 13 28 10 54 30 77 59 56 71
204 209 265 248 30 20 96 52 146 71 49 19 163 72 253 118 90 47 206 98 258
115 372 119 901 139 1423 56 116 -19 159 -19 176 1 44 53 162 75 276 51 184
-39 389 -175 728 -483 116 -105 187 -164 200 -164 3 0 -31 55 -76 123 -186
278 -417 544 -550 632 -36 25 -105 63 -154 87 -106 51 -169 57 -260 28z"/>
<path d="M5708 6684 c-18 -17 -6 -56 28 -94 21 -23 96 -77 168 -122 72 -44
187 -120 256 -168 69 -48 168 -113 220 -145 52 -32 122 -78 155 -103 75 -57
296 -279 391 -392 40 -47 86 -98 104 -115 29 -28 26 -18 -43 125 -120 252
-206 381 -321 486 -174 156 -460 361 -605 433 -133 67 -329 120 -353 95z"/>
<path d="M4840 6600 c-47 -4 -152 -20 -235 -35 -82 -15 -202 -31 -265 -35
-182 -14 -310 -69 -420 -180 -62 -62 -71 -78 -200 -349 -141 -296 -164 -331
-197 -298 -22 22 -21 124 1 202 10 32 46 116 82 187 63 126 76 172 52 196 -16
16 -53 15 -86 -2 -39 -21 -135 -122 -175 -187 -84 -132 -100 -281 -44 -402 49
-108 182 -277 218 -277 28 0 53 28 89 101 22 44 73 132 114 197 40 64 115 189
167 276 112 190 198 289 292 336 66 33 105 38 113 15 11 -28 -5 -60 -67 -130
-85 -97 -109 -143 -119 -220 -7 -55 -14 -73 -47 -111 -130 -156 -207 -258
-303 -400 -123 -184 -128 -201 -110 -348 14 -111 31 -190 133 -622 16 -68 9
-94 -26 -94 -86 0 -162 172 -236 531 -22 108 -49 221 -61 251 -30 80 -104 144
-136 117 -20 -16 -18 -49 16 -290 53 -368 81 -464 228 -759 96 -192 114 -221
172 -280 100 -102 215 -158 399 -195 124 -25 340 -17 476 19 200 53 439 196
540 325 92 117 121 183 194 431 31 104 31 106 16 165 -24 94 -98 207 -205 316
-81 82 -108 103 -183 139 -129 62 -258 69 -293 15 -25 -39 -2 -63 122 -124
127 -63 219 -146 249 -225 17 -45 17 -52 0 -164 -25 -170 -42 -237 -75 -308
-32 -66 -125 -178 -141 -168 -18 11 -8 44 41 146 59 122 78 219 62 322 -21
134 -89 214 -249 293 -124 62 -177 67 -266 25 -80 -37 -165 -120 -203 -198
-25 -52 -29 -70 -29 -149 0 -107 17 -147 90 -214 65 -60 144 -94 228 -99 58
-4 75 0 122 23 88 43 130 133 86 186 -16 20 -23 22 -38 13 -10 -7 -17 -19 -15
-29 5 -29 -18 -45 -65 -45 -39 0 -51 5 -84 39 -35 35 -39 44 -39 91 0 47 4 56
38 90 125 125 334 -17 308 -208 -14 -107 -97 -222 -188 -263 -44 -20 -69 -24
-153 -24 -117 0 -190 21 -300 87 -39 22 -99 53 -135 69 -82 35 -89 51 -89 215
-1 127 11 220 35 266 24 47 234 278 297 327 156 121 334 201 467 208 249 15
518 -162 674 -442 24 -44 70 -145 102 -225 51 -129 58 -154 62 -235 10 -205
-94 -410 -328 -645 -219 -220 -482 -360 -811 -434 -224 -50 -398 -55 -648 -21
-58 8 -138 15 -178 15 -65 0 -77 -3 -98 -25 -47 -46 -29 -62 112 -104 290 -84
452 -90 743 -25 256 57 488 153 686 285 187 124 514 477 590 637 152 319 26
829 -281 1138 -125 126 -263 209 -432 260 -75 23 -107 27 -223 28 -113 1 -148
-3 -214 -22 -128 -37 -249 -105 -339 -191 -98 -94 -134 -143 -200 -273 -57
-112 -80 -130 -111 -86 -39 56 -9 221 64 343 48 79 186 224 264 274 70 46 221
104 329 127 179 37 393 1 623 -106 357 -165 618 -529 690 -959 31 -190 3 -452
-64 -596 -22 -47 -39 -66 -75 -89 -30 -19 -83 -76 -152 -162 -313 -393 -641
-594 -1208 -740 -120 -31 -164 -37 -282 -41 -119 -4 -153 -2 -227 16 -100 24
-191 63 -269 115 -81 54 -103 46 -71 -26 35 -79 175 -198 301 -257 53 -24 65
-26 206 -26 145 0 153 1 240 33 50 18 181 64 291 102 427 146 654 277 889 514
118 118 209 234 278 352 47 82 63 95 77 60 27 -72 -101 -284 -288 -478 -231
-240 -498 -400 -892 -533 -107 -37 -213 -76 -235 -88 -39 -22 -76 -70 -63 -82
23 -23 186 6 373 65 335 108 607 272 845 510 224 224 345 420 400 645 93 387
109 611 59 840 -83 388 -302 725 -589 910 -101 66 -178 101 -336 155 -169 58
-220 84 -241 124 -24 47 -9 52 125 38 292 -29 523 -139 728 -346 269 -271 464
-729 464 -1088 0 -179 -73 -625 -122 -737 -26 -60 -179 -317 -235 -394 -197
-268 -448 -476 -758 -627 -317 -155 -611 -218 -702 -151 -32 24 -32 24 -185
14 -84 -6 -211 -9 -283 -6 -130 4 -130 4 -35 -41 176 -82 301 -114 482 -123
435 -21 1026 254 1394 651 103 111 189 230 269 372 65 114 107 168 127 161 49
-17 -69 -271 -221 -475 -126 -168 -362 -379 -572 -509 -233 -145 -509 -246
-859 -314 -63 -13 -141 -35 -174 -49 -58 -27 -58 -27 130 -24 206 3 357 21
487 59 484 140 1005 564 1217 990 77 154 92 212 84 330 -4 60 -1 127 9 200 9
61 23 171 32 245 17 141 29 196 64 292 25 69 27 144 6 283 -52 341 -221 745
-421 1001 -157 202 -393 359 -631 420 -81 21 -116 25 -203 22 -132 -4 -189
-29 -230 -98 -25 -43 -28 -44 -119 -67 -51 -13 -153 -48 -227 -79 -73 -30
-153 -57 -177 -60 -50 -7 -87 8 -87 35 0 21 336 294 407 330 285 145 599 144
898 -3 205 -101 396 -259 497 -411 208 -316 365 -728 442 -1166 14 -80 38
-179 52 -220 25 -68 27 -89 31 -269 4 -232 6 -240 37 -240 17 0 28 9 39 33 35
74 41 122 41 307 0 158 -4 207 -27 333 -38 207 -75 350 -164 624 -85 266 -110
329 -182 459 -49 90 -84 182 -96 256 -12 74 -156 203 -425 382 -233 155 -306
188 -493 220 -109 19 -334 27 -447 16z m427 -1892 c38 -72 13 -222 -61 -373
-73 -147 -167 -230 -360 -314 -151 -66 -230 -84 -386 -85 -151 -1 -207 9 -317
59 -87 40 -158 104 -189 170 -28 59 -30 92 -8 123 19 28 49 28 72 0 94 -118
190 -184 313 -213 83 -19 248 -19 324 0 33 9 98 33 143 55 46 22 97 40 112 40
130 0 272 219 286 443 3 45 7 92 10 105 7 34 40 28 61 -10z"/>
<path d="M6304 5995 c-11 -28 5 -61 86 -176 103 -145 137 -215 150 -309 6 -41
45 -174 85 -295 113 -334 149 -498 161 -725 8 -137 -9 -330 -37 -432 -11 -40
-40 -109 -63 -153 -24 -44 -58 -118 -75 -165 -41 -107 -191 -451 -233 -533
-121 -241 -358 -493 -693 -737 -116 -85 -175 -138 -175 -159 0 -12 3 -12 18 1
9 9 69 46 132 84 188 112 341 233 500 393 182 184 249 278 362 511 50 102 108
215 129 252 77 132 171 382 208 552 30 136 61 391 61 496 0 212 -61 432 -215
775 -55 121 -64 158 -45 170 5 3 22 -1 38 -10 80 -47 200 -285 307 -605 41
-124 75 -215 75 -202 0 40 -41 315 -61 411 -23 107 -78 270 -116 345 -32 64
-437 472 -500 505 -49 25 -91 27 -99 6z"/>
<path d="M3060 5833 c-1 -44 -46 -162 -81 -211 -26 -36 -28 -42 -11 -33 27 14
65 14 80 -1 21 -21 13 -84 -23 -177 -55 -142 -77 -290 -78 -521 -1 -288 45
-550 138 -791 66 -171 196 -390 290 -486 62 -64 93 -73 252 -73 68 0 181 -9
255 -19 328 -48 549 -34 818 51 385 122 720 420 826 734 45 134 34 284 -21
284 -21 0 -31 -24 -50 -120 -57 -287 -258 -530 -562 -684 -390 -196 -907 -175
-1303 53 -58 34 -108 55 -147 62 -117 21 -205 102 -291 267 -85 164 -130 321
-153 534 -27 243 27 593 103 676 53 56 67 10 42 -141 -26 -153 -26 -463 -1
-592 58 -295 186 -566 301 -636 43 -26 62 -24 74 10 15 41 2 89 -67 243 -101
230 -141 363 -167 558 -18 141 -18 408 1 479 16 62 9 87 -44 164 -16 24 -48
79 -70 121 -36 67 -41 85 -41 141 0 66 -13 114 -33 127 -23 15 -37 8 -37 -19z"/>
<path d="M6391 4426 c-19 -23 -30 -116 -41 -365 -16 -356 -29 -437 -96 -599
-69 -167 -167 -316 -313 -475 -193 -212 -482 -431 -713 -541 -108 -52 -167
-73 -467 -166 -73 -23 -131 -43 -130 -44 8 -7 321 35 414 55 202 43 336 98
504 209 276 181 509 401 653 615 179 267 328 689 288 820 -6 22 -15 133 -19
246 -6 171 -10 211 -24 232 -19 30 -39 34 -56 13z"/>
<path d="M6729 3443 c-13 -16 -12 -17 4 -4 9 7 17 15 17 17 0 8 -8 3 -21 -13z"/>
<path d="M6690 3379 c-12 -23 -20 -43 -18 -45 3 -2 14 17 26 41 27 56 20 60
-8 4z"/>
</g>
</svg>
