<?xml version="1.0" standalone="no"?>
<!DOCTYPE svg PUBLIC "-//W3C//DTD SVG 20010904//EN"
 "http://www.w3.org/TR/2001/REC-SVG-20010904/DTD/svg10.dtd">
<svg version="1.0" xmlns="http://www.w3.org/2000/svg"
 width="1000.000000pt" height="1000.000000pt" viewBox="0 0 1000.000000 1000.000000"
 preserveAspectRatio="xMidYMid meet">
<metadata>
  <rdf:RDF
    xmlns:rdf = "http://www.w3.org/1999/02/22-rdf-syntax-ns#"
    xmlns:rdfs = "http://www.w3.org/2000/01/rdf-schema#"
    xmlns:dc = "http://purl.org/dc/elements/1.1/"
    xmlns:cc = "http://creativecommons.org/ns#">
    <cc:license rdf:resource="http://creativecommons.org/publicdomain/zero/1.0/deed.en"/>
    <cc:permits rdf:resource="http://creativecommons.org/ns#Reproduction"/>
    <rdf:Description about="https://nft.mir.one/fingerprints"
      dc:title="TON Fingerprints"
      dc:description="This is a unique digital fingerprint created based on the algorithm for generating basic rings using a noise texture. Like human fingerprints, you can now use it for the Web3 and Metaverse era as digital biometric information."
      dc:publisher="https://nft.mir.one"
      dc:date="2022-02-22"
      dc:format="image/svg+xml"
      dc:language="en" >
      <dc:creator>
      <rdf:Bag>
        <rdf:li>EQBondcvD2_aOFADXSWJHs4ZazQDuEl9_wNvGGPxI8hGuOFU</rdf:li>
        <rdf:li>ipfs://bafkreihj7iub3fhmhq6jn62noukt5wxn3gv6bvcg7wmt6ywvlurefezckq</rdf:li>
      </rdf:Bag>
      </dc:creator>
    </rdf:Description>
  </rdf:RDF>
</metadata>
<rect width="100%" height="100%" fill="#1b1f23"/>
<g transform="translate(0.000000,1000.000000) scale(0.100000,-0.100000)"
fill="#ffffff" stroke="none">
<path d="M4675 7726 c-5 -3 -64 -8 -129 -11 -66 -4 -113 -10 -105 -15 21 -10
184 -29 364 -40 378 -25 610 -62 900 -144 83 -24 181 -50 219 -59 38 -10 94
-28 125 -42 91 -41 24 5 -93 62 -209 105 -485 193 -706 228 -97 15 -550 31
-575 21z"/>
<path d="M4380 7514 c-182 -28 -485 -114 -459 -130 7 -4 162 -9 344 -10 686
-5 937 -27 1221 -109 298 -86 517 -213 954 -550 182 -140 216 -163 277 -181
48 -14 48 -14 11 16 -20 16 -81 81 -135 142 -322 368 -579 565 -879 674 -356
129 -995 199 -1334 148z"/>
<path d="M4017 7229 c-71 -11 -179 -45 -283 -89 -50 -22 -104 -42 -120 -46
-29 -7 -29 -7 1 -16 17 -5 161 -11 320 -13 160 -2 371 -8 470 -14 147 -10 215
-9 371 3 229 18 368 10 537 -33 217 -55 327 -110 460 -227 37 -33 112 -89 168
-125 681 -434 829 -558 966 -809 49 -91 116 -200 120 -197 6 7 -65 203 -114
313 -77 177 -208 367 -312 452 -142 117 -757 537 -879 600 -223 117 -445 173
-747 192 -205 12 -895 19 -958 9z"/>
<path d="M4910 6938 c-35 -5 -99 -25 -141 -43 -91 -42 -122 -43 -305 -16 -218
33 -351 44 -559 45 -233 1 -244 -2 -434 -108 -112 -63 -112 -63 -69 -69 24 -4
108 -1 188 5 261 19 585 -5 766 -58 114 -33 182 -68 290 -152 172 -133 256
-176 639 -327 454 -179 610 -271 880 -525 148 -139 234 -205 355 -276 151 -87
249 -205 420 -504 39 -69 89 -142 111 -163 33 -32 37 -34 29 -13 -5 14 -21 85
-35 158 -40 207 -103 421 -171 581 -19 43 -38 108 -44 145 -24 149 -57 240
-112 312 -82 108 -303 268 -678 494 -196 118 -265 145 -403 156 -78 7 -156 22
-257 50 -449 125 -516 135 -495 71 16 -52 225 -140 588 -247 323 -96 453 -159
737 -358 95 -66 132 -86 168 -92 102 -15 224 -109 278 -215 26 -51 30 -109 8
-116 -6 -2 -41 32 -78 76 -121 145 -224 214 -241 161 -14 -43 82 -160 213
-257 72 -54 86 -75 56 -87 -74 -28 -217 71 -358 248 -40 50 -100 116 -133 146
-129 119 -359 250 -581 331 -515 187 -603 226 -692 306 -64 58 -92 104 -88
145 3 28 7 33 33 36 17 2 59 12 94 23 35 10 85 19 112 19 72 0 236 -35 404
-85 178 -54 223 -62 249 -43 84 64 -242 214 -539 248 -102 11 -115 11 -205 -2z"/>
<path d="M3574 6611 c-98 -8 -151 -33 -289 -136 -93 -70 -93 -70 -59 -76 18
-3 75 2 126 12 286 55 687 46 966 -21 130 -31 166 -57 126 -90 -30 -26 -109
-27 -349 -8 -318 26 -599 17 -746 -22 -52 -14 -121 -63 -213 -151 -81 -78 -81
-78 -46 -78 19 -1 70 10 112 24 206 66 479 91 713 65 61 -6 245 -15 410 -20
272 -7 309 -10 400 -33 289 -73 711 -245 959 -391 159 -94 292 -201 471 -381
192 -191 269 -293 350 -460 71 -144 84 -198 95 -390 11 -173 22 -260 80 -640
25 -158 46 -267 59 -295 11 -25 21 -40 21 -35 0 6 9 71 21 145 11 78 22 215
25 325 5 168 4 202 -15 294 -33 161 -27 251 16 251 22 0 61 -72 98 -182 19
-59 46 -131 60 -160 24 -52 24 -52 19 57 -10 209 -47 360 -107 439 -13 17 -57
90 -97 161 -108 194 -194 319 -279 405 -96 97 -487 436 -594 516 -212 157
-372 236 -902 444 -368 144 -390 155 -489 248 -71 67 -97 85 -163 110 -173 67
-481 96 -779 73z"/>
<path d="M3445 5991 c-195 -36 -256 -64 -333 -151 -35 -40 -152 -213 -152
-224 0 -3 49 28 108 68 177 119 332 164 598 173 160 6 194 -1 194 -37 0 -43
-98 -71 -309 -90 -170 -16 -314 -59 -403 -121 -45 -32 -96 -122 -139 -246 -23
-65 -56 -151 -75 -191 -33 -73 -33 -73 -3 -50 17 13 59 49 95 81 36 32 93 71
127 87 66 30 248 157 254 177 7 19 -44 27 -87 14 -22 -6 -73 -34 -113 -61 -81
-54 -107 -61 -107 -30 0 35 78 108 154 145 140 68 371 74 371 10 0 -15 -18
-25 -90 -50 -81 -27 -91 -33 -109 -68 -11 -21 -96 -114 -188 -207 -192 -192
-208 -217 -273 -440 -20 -68 -39 -129 -43 -135 -3 -5 10 4 29 20 19 17 61 68
94 115 33 47 105 130 160 185 81 81 117 109 194 150 138 73 176 115 254 278
73 153 60 140 258 246 184 97 285 117 543 108 275 -10 498 -70 816 -220 52
-25 136 -57 185 -72 161 -49 233 -94 378 -234 272 -263 371 -515 417 -1056 20
-227 39 -383 85 -665 24 -151 49 -318 54 -370 10 -94 25 -156 42 -174 6 -6 9
-3 9 7 0 10 16 66 35 126 36 112 69 255 80 351 5 40 -5 133 -34 335 -22 154
-52 373 -66 487 -40 326 -59 409 -137 577 -69 151 -158 272 -317 432 -167 166
-267 239 -460 334 -307 152 -607 263 -838 311 -112 23 -163 27 -418 34 -248 7
-301 11 -370 30 -116 31 -334 36 -470 11z m105 -629 c0 -23 -118 -138 -156
-152 -19 -7 -30 -8 -38 0 -14 14 16 53 93 118 63 54 101 66 101 34z"/>
<path d="M4265 5580 c-94 -15 -192 -48 -290 -97 -83 -42 -103 -59 -250 -208
-88 -90 -210 -202 -272 -249 -62 -48 -134 -111 -160 -142 -64 -74 -160 -209
-188 -264 -29 -57 -62 -191 -75 -300 -24 -206 -24 -190 4 -148 14 20 48 81 76
135 28 54 92 154 143 223 63 86 98 143 110 182 20 65 73 137 144 196 421 350
505 405 704 462 108 31 313 38 450 15 178 -29 330 -88 464 -178 96 -65 261
-240 403 -428 72 -96 162 -209 201 -253 78 -87 124 -168 141 -253 14 -64 3
-103 -29 -103 -36 0 -89 59 -193 213 -55 84 -120 177 -143 207 -23 30 -66 95
-95 145 -135 225 -383 411 -640 480 -273 72 -511 48 -750 -76 -109 -57 -410
-272 -505 -360 -69 -65 -84 -91 -65 -114 30 -36 87 -9 362 166 332 212 442
253 673 252 168 -1 281 -26 431 -97 195 -93 384 -248 384 -316 0 -26 -62 -6
-146 46 -208 131 -369 201 -532 229 -220 39 -397 -1 -593 -132 -111 -75 -200
-125 -402 -225 -100 -50 -201 -107 -225 -126 -55 -45 -151 -173 -191 -254 -57
-115 -59 -335 -6 -584 13 -64 26 -118 28 -121 3 -2 7 72 10 164 6 203 24 283
97 428 85 171 195 272 403 370 94 45 225 85 277 85 15 0 53 -13 84 -30 135
-72 165 -87 242 -118 84 -33 134 -70 134 -96 0 -29 -40 -26 -192 18 -199 58
-265 69 -346 56 -265 -43 -485 -248 -552 -514 -61 -243 24 -513 233 -733 114
-120 192 -162 337 -183 82 -12 130 -1 176 39 19 17 79 53 132 80 202 103 307
194 370 319 50 103 50 172 -1 332 -42 131 -75 189 -138 243 -130 112 -390 162
-561 108 -112 -36 -203 -118 -257 -231 -23 -49 -26 -67 -26 -170 0 -108 2
-119 30 -174 90 -178 277 -249 445 -170 84 40 129 79 165 146 48 87 35 167
-42 258 -34 41 -116 80 -169 80 -95 0 -177 -82 -158 -158 15 -62 88 -77 96
-20 5 34 60 38 82 6 34 -48 12 -124 -45 -154 -81 -41 -189 0 -234 90 -62 125
0 273 140 338 76 35 198 32 283 -6 83 -38 143 -105 172 -191 24 -73 36 -86 77
-83 69 5 67 -23 -12 -157 -88 -150 -221 -257 -384 -310 -40 -13 -76 -16 -141
-13 -115 5 -197 44 -285 133 -209 213 -208 564 4 776 150 150 312 187 588 135
71 -14 159 -30 197 -36 192 -31 317 -163 366 -387 22 -98 26 -225 9 -305 -34
-167 -163 -321 -344 -414 -55 -29 -138 -64 -185 -79 -47 -15 -100 -34 -117
-42 -46 -21 -44 -50 5 -70 86 -36 266 3 478 103 207 98 313 224 370 440 13 50
18 107 18 204 1 128 -1 140 -32 227 -67 185 -24 200 163 59 64 -49 115 -78
153 -90 77 -24 279 -131 319 -168 48 -46 84 -136 90 -227 6 -76 6 -76 -34
-126 -22 -28 -52 -70 -68 -95 -16 -25 -64 -90 -106 -145 -42 -55 -125 -179
-184 -275 -122 -199 -185 -287 -297 -411 -74 -83 -78 -90 -78 -134 0 -46 0
-46 33 -22 17 13 64 41 102 61 97 50 238 158 286 219 22 28 81 134 131 236
114 234 141 267 168 201 26 -63 -26 -254 -120 -440 -32 -63 -70 -141 -84 -173
-26 -59 -26 -59 90 49 123 115 198 206 241 293 38 76 42 192 14 361 -23 136
-28 210 -17 228 4 7 20 12 35 12 54 0 109 -87 136 -218 15 -70 19 -287 7 -356
-4 -21 -5 -60 -3 -88 3 -49 3 -49 61 51 61 104 120 240 141 323 15 63 2 152
-61 418 -86 364 -102 485 -98 773 3 170 -1 224 -19 342 -13 77 -27 172 -33
210 -13 85 -77 221 -148 315 -69 90 -228 241 -293 279 -59 34 -113 41 -123 15
-10 -26 20 -69 128 -183 129 -137 208 -241 263 -348 44 -86 54 -139 29 -149
-28 -11 -58 19 -170 169 -62 84 -156 202 -208 262 -52 61 -113 138 -136 171
-58 86 -120 136 -247 198 -202 100 -387 145 -620 151 -82 2 -177 0 -210 -5z
m374 -791 c101 -23 227 -72 371 -144 58 -29 146 -67 195 -84 50 -18 114 -47
143 -67 86 -57 141 -154 96 -171 -9 -3 -76 23 -163 65 -635 308 -835 365
-1038 297 -42 -14 -82 -24 -90 -21 -23 9 -14 43 21 74 89 78 263 97 465 51z
m-266 -190 c95 -15 217 -59 352 -127 292 -146 551 -250 679 -271 85 -15 122
-33 209 -106 109 -90 158 -186 123 -240 -24 -36 -46 -31 -116 25 -145 116
-327 205 -533 261 -144 39 -311 125 -499 256 -82 58 -163 97 -270 132 -81 27
-121 55 -98 71 20 13 65 13 153 -1z"/>
<path d="M5255 3676 c-13 -19 -19 -62 -25 -173 -12 -213 -53 -331 -173 -487
-71 -94 -125 -129 -218 -145 -41 -6 -132 -31 -204 -56 -253 -85 -362 -93 -602
-46 -81 17 -177 39 -213 50 -36 12 -72 21 -80 21 -8 0 -39 11 -68 25 -73 34
-57 17 50 -55 119 -80 219 -130 343 -171 91 -30 111 -33 225 -33 170 0 316 37
505 131 81 40 105 39 105 -5 0 -61 -105 -135 -265 -185 -93 -29 -387 -85 -530
-101 -24 -2 -22 -3 10 -5 22 -1 85 -8 140 -16 55 -8 143 -15 195 -15 125 0
353 25 409 44 57 21 130 75 179 134 85 102 274 396 345 539 59 116 80 191 80
280 -1 59 -6 84 -33 141 -35 76 -89 137 -132 147 -21 6 -30 2 -43 -19z"/>
<path d="M4637 2293 c-43 -14 -76 -28 -73 -30 2 -2 48 0 102 6 55 6 107 10
116 8 26 -3 24 16 -3 30 -34 18 -54 16 -142 -14z"/>
<path d="M4863 2193 c9 -2 23 -2 30 0 6 3 -1 5 -18 5 -16 0 -22 -2 -12 -5z"/>
</g>
</svg>
