<?xml version="1.0" standalone="no"?>
<!DOCTYPE svg PUBLIC "-//W3C//DTD SVG 20010904//EN"
 "http://www.w3.org/TR/2001/REC-SVG-20010904/DTD/svg10.dtd">
<svg version="1.0" xmlns="http://www.w3.org/2000/svg"
 width="1000.000000pt" height="1000.000000pt" viewBox="0 0 1000.000000 1000.000000"
 preserveAspectRatio="xMidYMid meet">
<metadata>
  <rdf:RDF
    xmlns:rdf = "http://www.w3.org/1999/02/22-rdf-syntax-ns#"
    xmlns:rdfs = "http://www.w3.org/2000/01/rdf-schema#"
    xmlns:dc = "http://purl.org/dc/elements/1.1/"
    xmlns:cc = "http://creativecommons.org/ns#">
    <cc:license rdf:resource="http://creativecommons.org/publicdomain/zero/1.0/deed.en"/>
    <cc:permits rdf:resource="http://creativecommons.org/ns#Reproduction"/>
    <rdf:Description about="https://nft.mir.one/fingerprints"
      dc:title="TON Fingerprints"
      dc:description="This is a unique digital fingerprint created based on the algorithm for generating basic rings using a noise texture. Like human fingerprints, you can now use it for the Web3 and Metaverse era as digital biometric information."
      dc:publisher="https://nft.mir.one"
      dc:date="2022-02-22"
      dc:format="image/svg+xml"
      dc:language="en" >
      <dc:creator>
      <rdf:Bag>
        <rdf:li>EQBondcvD2_aOFADXSWJHs4ZazQDuEl9_wNvGGPxI8hGuOFU</rdf:li>
        <rdf:li>ipfs://bafkreihj7iub3fhmhq6jn62noukt5wxn3gv6bvcg7wmt6ywvlurefezckq</rdf:li>
      </rdf:Bag>
      </dc:creator>
    </rdf:Description>
  </rdf:RDF>
</metadata>
<rect width="100%" height="100%" fill="#1b1f23"/>
<g transform="translate(0.000000,1000.000000) scale(0.100000,-0.100000)"
fill="#ffffff" stroke="none">
<path d="M4848 7752 c149 -151 347 -249 385 -190 9 14 6 22 -13 43 -28 30
-169 101 -281 141 -41 14 -91 35 -111 45 -36 18 -35 17 20 -39z"/>
<path d="M5246 7778 c11 -12 47 -63 79 -111 73 -110 100 -134 365 -320 368
-258 499 -360 789 -620 96 -86 186 -159 200 -162 14 -3 44 -18 66 -32 40 -25
40 -25 -1 18 -22 24 -88 102 -145 174 -268 334 -506 537 -958 817 -108 67
-245 153 -306 191 -60 38 -101 58 -89 45z"/>
<path d="M4510 7688 c30 -19 102 -56 160 -82 120 -55 131 -62 123 -81 -10 -28
-70 -29 -171 -2 -118 31 -223 46 -362 49 -105 3 -105 3 -50 -23 30 -14 87 -36
125 -49 39 -13 111 -41 160 -63 123 -54 149 -63 317 -108 81 -21 193 -55 250
-75 374 -131 742 -395 1008 -723 76 -95 84 -102 138 -117 111 -32 180 -103
231 -237 51 -133 69 -167 89 -167 30 0 43 48 31 117 -30 181 -58 296 -82 332
-71 107 -491 481 -738 658 -262 186 -385 253 -542 293 -187 47 -337 111 -358
152 -36 71 -103 105 -256 133 -48 9 -97 19 -108 21 -11 3 5 -10 35 -28z"/>
<path d="M4010 7408 c-105 -11 -105 -11 -60 -30 25 -11 126 -40 225 -64 326
-79 335 -82 298 -119 -14 -15 -30 -17 -107 -12 -50 3 -149 17 -221 31 -119 25
-137 26 -225 16 -52 -6 -127 -19 -167 -28 -71 -17 -71 -17 -30 -34 48 -20 425
-91 567 -107 52 -6 151 -15 220 -21 310 -24 662 -178 958 -417 129 -105 229
-216 329 -366 86 -128 118 -156 146 -128 20 20 13 158 -12 233 -69 206 -372
481 -728 659 -123 62 -335 139 -552 200 -58 16 -84 30 -120 64 -117 110 -276
147 -521 123z"/>
<path d="M3680 6996 c-47 -13 -112 -35 -144 -49 -59 -25 -59 -25 -25 -40 19
-7 75 -17 124 -20 211 -15 607 -77 815 -128 158 -39 284 -86 431 -160 211
-107 349 -211 630 -471 303 -281 430 -393 477 -420 51 -30 109 -37 118 -14 9
23 -27 92 -113 216 -72 105 -84 118 -141 148 -46 24 -94 66 -175 150 -276 286
-431 409 -663 527 -206 105 -375 156 -669 200 -93 14 -249 39 -347 55 -97 17
-189 30 -205 30 -15 -1 -66 -12 -113 -24z"/>
<path d="M3527 6736 c-37 -13 -82 -33 -100 -44 -149 -91 -151 -92 -126 -93 13
-1 139 -3 279 -4 629 -5 1024 -133 1396 -451 47 -41 173 -157 278 -259 105
-101 252 -234 326 -295 245 -203 350 -318 466 -516 74 -126 169 -335 244 -539
66 -180 92 -238 119 -269 18 -21 83 -56 104 -56 21 0 60 105 54 148 -5 40
-168 465 -252 658 -64 145 -117 242 -193 348 -61 84 -91 113 -327 309 -82 68
-247 213 -365 321 -118 109 -244 221 -280 251 -348 284 -682 416 -1220 484
-273 34 -325 35 -403 7z"/>
<path d="M3475 6461 c-90 -9 -152 -42 -282 -147 -52 -42 -52 -42 -20 -47 18
-2 68 2 112 9 274 48 678 43 891 -11 266 -68 450 -184 519 -331 23 -48 60
-101 106 -151 161 -176 215 -269 280 -475 22 -73 65 -207 94 -298 61 -188 85
-306 85 -424 0 -129 -20 -365 -36 -435 -58 -255 -254 -492 -564 -684 -144 -89
-329 -159 -505 -192 -110 -21 -325 -16 -425 10 -90 23 -272 114 -350 175 -95
73 -196 145 -184 129 209 -266 352 -403 484 -463 86 -39 233 -60 375 -53 262
13 507 107 808 308 262 174 387 311 531 580 56 107 97 149 143 149 61 0 62
-65 4 -217 -104 -267 -269 -435 -670 -677 -344 -209 -541 -281 -796 -293 -144
-6 -227 3 -375 43 -52 14 -111 29 -129 34 -19 5 -37 8 -38 6 -8 -8 215 -151
290 -186 102 -48 216 -80 283 -80 66 0 210 25 299 51 117 35 183 67 360 174
94 56 260 153 370 215 241 136 304 179 385 267 163 178 250 376 250 572 0 101
-25 344 -41 404 -25 93 -93 177 -144 177 -20 0 -26 7 -35 43 -30 115 -67 222
-127 370 -85 210 -97 317 -36 317 51 0 219 -265 408 -645 124 -248 165 -414
165 -670 0 -250 -54 -393 -233 -614 -150 -184 -223 -244 -309 -256 -77 -11
-147 -38 -286 -110 -188 -98 -269 -149 -378 -236 -64 -51 -123 -89 -170 -109
-99 -41 -256 -78 -389 -91 -60 -6 -143 -16 -183 -23 -74 -11 -74 -11 80 -50
136 -35 169 -40 303 -44 136 -4 160 -2 255 22 58 14 150 32 206 40 55 8 130
26 165 39 64 24 320 151 371 184 47 30 55 10 56 -130 0 -132 -3 -143 -60 -214
-31 -39 -145 -142 -226 -206 -20 -15 -32 -27 -28 -27 14 0 248 120 296 152 27
18 95 76 152 129 57 53 122 108 145 122 103 65 161 140 243 310 74 153 88 234
44 251 -45 17 -125 -83 -239 -299 -90 -172 -120 -203 -146 -153 -28 52 19 222
98 357 25 43 110 140 248 284 116 120 216 230 223 243 20 37 34 181 27 269
-12 147 -35 339 -51 420 -27 143 -110 371 -199 550 -169 341 -323 529 -500
611 -95 44 -123 68 -260 224 -206 236 -458 484 -565 555 -188 126 -403 200
-680 235 -113 14 -407 20 -495 11z m2088 -1898 c3 -16 2 -78 -2 -138 -7 -114
-27 -176 -64 -199 -23 -15 -49 2 -59 40 -11 36 -2 142 18 211 26 93 95 148
107 86z m-85 -1547 c9 -75 -32 -126 -126 -157 -37 -12 -134 -53 -215 -91 -175
-82 -218 -98 -263 -98 -104 0 -17 71 262 213 126 64 247 128 269 141 49 32 69
29 73 -8z"/>
<path d="M6620 6365 c-11 -13 -9 -33 8 -110 28 -119 28 -188 0 -267 -21 -62
-21 -65 -5 -145 10 -44 49 -188 87 -320 88 -295 137 -489 191 -753 48 -237 71
-310 99 -310 24 0 36 20 19 31 -11 6 -15 58 -21 229 -10 346 -42 573 -133 965
-24 105 -58 255 -74 335 -43 207 -88 327 -130 350 -25 13 -26 13 -41 -5z"/>
<path d="M6114 6313 c-46 -46 -64 -158 -41 -250 9 -33 35 -103 59 -154 37 -83
42 -103 42 -170 1 -73 3 -78 52 -160 122 -200 205 -383 312 -685 143 -400 188
-484 307 -569 45 -33 67 -56 79 -84 8 -22 22 -44 31 -49 9 -4 22 -25 29 -46
13 -37 13 -35 18 62 4 70 12 114 27 147 12 26 21 48 21 49 0 1 -24 1 -52 1
-29 -1 -63 5 -75 12 -47 28 -107 179 -203 512 -93 325 -249 752 -315 864 -13
23 -53 72 -88 109 -68 72 -116 151 -141 237 -18 62 -19 80 -7 100 15 23 35 0
91 -103 59 -111 92 -149 123 -144 35 5 32 45 -12 135 -47 98 -101 159 -159
184 -54 23 -76 24 -98 2z"/>
<path d="M3590 6170 c-326 -11 -334 -14 -500 -163 -52 -47 -52 -47 -14 -47 22
0 71 7 110 15 121 25 289 36 408 25 131 -11 160 -20 251 -75 39 -22 111 -58
160 -79 164 -70 224 -105 298 -174 39 -38 110 -94 157 -127 47 -32 113 -80
146 -106 118 -94 183 -118 218 -83 66 66 -87 267 -271 355 -48 23 -144 73
-213 110 -121 66 -190 96 -351 153 -43 15 -85 33 -95 41 -16 11 -17 15 -4 30
12 15 27 17 95 12 102 -7 198 -39 395 -133 148 -71 198 -85 229 -65 16 10 7
46 -18 75 -40 46 -209 143 -324 186 -166 62 -210 65 -677 50z"/>
<path d="M3280 5869 c-101 -14 -130 -29 -231 -126 -100 -94 -104 -92 81 -45
89 23 127 27 250 27 164 0 281 -20 566 -99 191 -53 226 -60 259 -52 53 13 21
63 -70 109 -89 44 -398 155 -479 172 -100 20 -278 27 -376 14z"/>
<path d="M3213 5604 c-100 -21 -101 -22 -257 -191 -39 -42 -39 -42 10 -29 27
8 70 23 95 34 166 73 400 116 415 78 11 -28 -15 -44 -151 -91 -244 -85 -265
-100 -368 -262 -46 -72 -46 -72 -14 -61 18 7 55 27 84 45 84 53 235 126 418
199 170 69 170 69 310 68 131 0 154 -4 343 -48 219 -51 270 -68 279 -92 26
-69 -204 -78 -364 -14 -189 76 -348 64 -618 -46 -132 -55 -263 -124 -312 -167
-19 -17 -49 -56 -66 -86 -36 -62 -98 -201 -91 -201 12 0 64 39 117 87 180 164
459 295 702 330 144 21 234 9 220 -29 -9 -23 -45 -36 -177 -64 -234 -49 -420
-128 -577 -245 -151 -113 -178 -168 -235 -488 -6 -32 -4 -30 32 25 22 32 54
85 73 118 74 127 219 258 378 340 112 58 219 93 461 151 194 47 196 47 325 42
208 -9 306 -47 421 -161 81 -81 131 -172 165 -301 44 -163 26 -393 -42 -528
-52 -104 -139 -151 -139 -75 0 16 8 61 17 101 25 102 24 310 0 391 -51 166
-145 284 -276 351 -96 48 -175 65 -307 65 -196 0 -379 -41 -549 -125 -172 -84
-296 -200 -366 -342 -77 -154 -36 -432 93 -628 128 -195 315 -307 558 -335
111 -13 199 -3 375 41 242 60 303 87 470 205 164 116 260 217 318 334 68 138
90 241 90 420 1 256 -60 468 -182 630 -53 71 -97 103 -185 136 -136 51 -188
83 -261 158 -83 86 -132 111 -246 126 -46 6 -160 26 -254 45 -93 19 -212 39
-264 46 -52 6 -127 22 -168 35 -85 28 -198 31 -300 8z m896 -939 c182 -43 324
-183 376 -370 11 -40 19 -117 22 -233 5 -145 3 -179 -11 -216 -34 -88 -114
-166 -172 -166 -31 0 -34 3 -34 28 0 16 15 66 32 113 31 80 32 90 32 219 -1
113 -4 145 -22 194 -59 160 -173 263 -334 301 -230 54 -484 -57 -581 -254 -29
-59 -32 -74 -32 -156 0 -77 4 -98 27 -147 35 -75 104 -142 185 -180 231 -109
465 67 398 299 -44 152 -231 214 -324 108 -35 -40 -41 -87 -14 -117 22 -24 33
-23 59 9 19 25 24 26 48 15 54 -25 56 -93 3 -138 -27 -23 -38 -26 -82 -22 -95
8 -155 78 -155 180 1 97 63 184 165 230 74 33 190 32 266 -4 79 -36 133 -89
171 -166 31 -62 33 -73 33 -172 0 -193 -54 -306 -178 -369 -122 -62 -281 -54
-436 22 -86 42 -198 148 -240 227 -132 247 -20 545 259 689 80 41 148 66 221
80 73 15 248 12 318 -4z"/>
<path d="M6594 4225 c-35 -29 -43 -43 -49 -82 -13 -86 -45 -97 -88 -28 -31 48
-60 64 -84 44 -25 -22 -11 -92 32 -155 54 -78 62 -112 86 -331 18 -172 24
-282 29 -558 1 -60 1 -60 61 110 98 277 147 470 169 664 16 143 -14 286 -72
348 -28 30 -35 29 -84 -12z"/>
<path d="M6225 3413 c-47 -52 -67 -125 -75 -278 -8 -149 -22 -209 -81 -332
-30 -62 -181 -298 -247 -383 -19 -25 37 27 125 115 209 211 310 361 378 565
20 58 26 176 12 242 -9 41 -51 98 -72 98 -8 0 -26 -12 -40 -27z"/>
<path d="M5320 2623 c-8 -3 -52 -28 -97 -55 -150 -89 -276 -139 -533 -208 -58
-16 -132 -40 -165 -55 -60 -26 -60 -26 102 -21 243 9 440 53 578 131 96 54
200 173 179 206 -6 10 -40 11 -64 2z"/>
</g>
</svg>
