<?xml version="1.0" standalone="no"?>
<!DOCTYPE svg PUBLIC "-//W3C//DTD SVG 20010904//EN"
 "http://www.w3.org/TR/2001/REC-SVG-20010904/DTD/svg10.dtd">
<svg version="1.0" xmlns="http://www.w3.org/2000/svg"
 width="1000.000000pt" height="1000.000000pt" viewBox="0 0 1000.000000 1000.000000"
 preserveAspectRatio="xMidYMid meet">
<metadata>
  <rdf:RDF
    xmlns:rdf = "http://www.w3.org/1999/02/22-rdf-syntax-ns#"
    xmlns:rdfs = "http://www.w3.org/2000/01/rdf-schema#"
    xmlns:dc = "http://purl.org/dc/elements/1.1/"
    xmlns:cc = "http://creativecommons.org/ns#">
    <cc:license rdf:resource="http://creativecommons.org/publicdomain/zero/1.0/deed.en"/>
    <cc:permits rdf:resource="http://creativecommons.org/ns#Reproduction"/>
    <rdf:Description about="https://nft.mir.one/fingerprints"
      dc:title="TON Fingerprints"
      dc:description="This is a unique digital fingerprint created based on the algorithm for generating basic rings using a noise texture. Like human fingerprints, you can now use it for the Web3 and Metaverse era as digital biometric information."
      dc:publisher="https://nft.mir.one"
      dc:date="2022-02-22"
      dc:format="image/svg+xml"
      dc:language="en" >
      <dc:creator>
      <rdf:Bag>
        <rdf:li>EQBondcvD2_aOFADXSWJHs4ZazQDuEl9_wNvGGPxI8hGuOFU</rdf:li>
        <rdf:li>ipfs://bafkreihj7iub3fhmhq6jn62noukt5wxn3gv6bvcg7wmt6ywvlurefezckq</rdf:li>
      </rdf:Bag>
      </dc:creator>
    </rdf:Description>
  </rdf:RDF>
</metadata>
<rect width="100%" height="100%" fill="#1b1f23"/>
<g transform="translate(0.000000,1000.000000) scale(0.100000,-0.100000)"
fill="#ffffff" stroke="none">
<path d="M4968 7813 c7 -3 16 -2 19 1 4 3 -2 6 -13 5 -11 0 -14 -3 -6 -6z"/>
<path d="M4791 7779 c-131 -34 -219 -73 -277 -123 -22 -19 -92 -62 -154 -96
-160 -88 -232 -133 -336 -211 -97 -73 -164 -140 -164 -164 0 -31 49 -13 185
66 194 113 348 186 420 198 33 6 116 15 185 20 69 6 193 20 275 31 211 29 477
36 635 17 138 -17 402 -74 515 -111 45 -16 -128 70 -224 111 -204 85 -366 121
-596 130 -168 6 -304 -5 -495 -43 -182 -35 -209 -32 -196 20 11 44 140 112
306 162 109 33 55 28 -79 -7z"/>
<path d="M5130 7389 c-271 -14 -507 -49 -668 -100 -53 -17 -182 -67 -285 -111
-131 -56 -212 -84 -269 -94 -94 -16 -108 -25 -327 -208 -148 -125 -209 -193
-317 -356 -99 -149 -99 -153 3 -51 183 183 267 244 523 379 107 57 476 194
650 242 63 17 151 49 195 71 97 47 159 55 520 65 587 16 867 -68 1423 -424 67
-43 67 -43 -44 62 -157 149 -205 189 -323 268 -110 74 -247 146 -347 184 -82
31 -251 62 -371 69 -54 3 -125 7 -158 9 -33 2 -125 0 -205 -5z"/>
<path d="M4690 7097 c-37 -19 -30 -39 23 -66 49 -24 59 -44 30 -59 -10 -5 -70
-12 -133 -15 -132 -8 -221 -27 -410 -92 -304 -104 -581 -265 -757 -441 -192
-192 -350 -547 -399 -894 -30 -214 -4 -527 56 -680 11 -27 56 -128 101 -225
86 -185 89 -205 33 -191 -63 16 -139 136 -259 411 -32 72 -59 132 -62 135 -16
16 66 -319 102 -420 37 -101 118 -258 172 -331 110 -150 198 -305 246 -436 46
-123 75 -170 146 -235 95 -89 178 -119 214 -80 32 35 22 61 -78 212 -68 102
-174 296 -292 534 -73 149 -73 149 -67 250 8 124 -3 167 -88 350 -108 231
-139 354 -139 551 0 243 60 428 211 654 173 257 500 512 826 642 102 40 217
73 404 115 85 19 196 48 245 64 118 37 256 57 493 70 225 12 375 2 518 -35
286 -75 584 -253 816 -489 105 -106 160 -189 156 -235 -2 -19 -8 -36 -15 -38
-6 -2 -74 58 -150 134 -386 388 -822 588 -1156 533 -33 -5 -116 -14 -185 -20
-70 -6 -174 -18 -232 -26 -139 -19 -739 -165 -837 -204 -102 -39 -238 -117
-338 -193 -338 -257 -368 -286 -474 -441 -143 -211 -176 -309 -176 -531 0
-125 4 -164 23 -235 35 -129 85 -225 131 -255 47 -29 56 -55 101 -270 55 -262
108 -393 293 -718 59 -103 134 -242 166 -310 52 -108 67 -131 128 -188 127
-119 497 -372 658 -450 220 -106 463 -138 700 -93 129 25 230 63 395 148 280
144 291 149 345 150 28 0 58 -3 68 -8 19 -9 79 46 208 192 50 57 59 63 77 53
49 -26 32 -130 -50 -310 -147 -320 -404 -521 -848 -665 -196 -64 -323 -90
-515 -106 -280 -24 -404 -3 -726 120 -147 56 -161 58 -234 37 -49 -14 -49 -15
-20 -21 29 -7 115 -38 324 -118 220 -84 397 -109 633 -89 297 25 531 95 795
241 227 124 434 311 565 510 97 148 134 220 209 410 184 466 226 668 217 1024
-5 180 -5 181 -46 301 -33 94 -46 155 -62 280 -32 246 -71 376 -164 543 -118
213 -342 439 -598 606 -173 113 -458 230 -623 256 -149 24 -429 -36 -625 -135
-71 -36 -178 -125 -336 -281 -192 -190 -287 -343 -409 -664 -65 -173 -90 -222
-140 -281 -52 -60 -65 -109 -65 -235 0 -107 15 -166 50 -204 57 -61 82 -27 99
129 15 141 31 196 111 390 97 236 123 291 185 396 135 230 334 414 580 537
105 53 224 95 296 104 41 6 58 14 88 45 52 52 104 65 203 51 361 -51 812 -377
1030 -744 102 -172 150 -326 203 -654 47 -290 59 -428 52 -624 -10 -264 -50
-451 -129 -603 -44 -84 -76 -114 -151 -142 -27 -10 -90 -43 -140 -72 -50 -30
-236 -126 -412 -214 -366 -182 -422 -200 -600 -200 -127 0 -224 21 -331 71
-108 50 -171 99 -283 220 -58 62 -130 127 -190 169 -206 146 -293 236 -433
446 -92 138 -293 538 -339 677 -39 116 -44 191 -30 419 15 226 74 531 156 804
13 44 31 113 39 154 9 40 26 92 40 115 35 60 168 184 258 240 133 82 241 110
331 85 33 -9 54 -5 191 40 193 64 329 97 458 112 145 17 224 7 328 -41 47 -21
130 -55 185 -75 482 -177 940 -560 1110 -927 85 -185 115 -322 115 -529 0
-134 13 -205 41 -220 32 -17 35 3 66 351 11 123 -60 417 -140 575 -57 115
-125 192 -306 348 -359 308 -531 413 -853 518 -84 27 -160 57 -168 65 -13 14
-13 17 5 31 34 26 170 12 296 -30 235 -79 435 -200 677 -410 107 -92 224 -177
246 -177 27 0 95 -73 180 -194 49 -69 91 -124 93 -122 2 1 -30 83 -71 182 -41
98 -82 208 -91 244 -32 126 -130 283 -284 458 -195 221 -498 381 -871 459 -73
15 -143 18 -480 19 -262 0 -413 4 -449 12 -29 7 -54 12 -55 12 0 0 -12 -6 -26
-13z m-938 -1105 c-2 -13 -19 -59 -37 -101 -33 -79 -49 -141 -60 -241 -17
-154 -69 -409 -95 -470 -16 -36 -33 -100 -39 -143 -12 -82 -20 -105 -46 -127
-24 -20 -34 -3 -54 96 -11 49 -31 125 -46 169 -24 68 -28 96 -28 190 0 197 54
344 144 391 16 8 47 48 75 96 63 107 125 170 162 166 22 -2 26 -7 24 -26z"/>
<path d="M3506 5698 c-80 -122 -104 -503 -31 -503 27 0 37 39 69 270 26 195
25 247 -7 253 -8 2 -23 -7 -31 -20z"/>
<path d="M4362 6294 c-92 -47 -218 -149 -276 -222 -88 -110 -158 -272 -235
-544 -75 -262 -94 -375 -71 -419 29 -53 61 -3 120 183 141 443 220 587 449
813 137 135 169 179 157 210 -10 26 -69 17 -144 -21z"/>
<path d="M5248 6173 c-36 -6 -37 -35 -2 -62 14 -11 82 -39 152 -62 254 -84
447 -203 617 -380 249 -259 379 -575 379 -924 1 -138 0 -143 -51 -335 -58
-216 -148 -492 -189 -574 -66 -136 -241 -270 -413 -316 -24 -6 -130 -13 -235
-15 -203 -3 -323 -19 -424 -56 -31 -12 -71 -24 -89 -26 -38 -6 -103 14 -103
31 0 22 190 104 323 140 188 52 237 60 283 47 122 -34 277 9 414 114 117 90
157 205 71 205 -16 0 -75 -33 -158 -89 -128 -86 -268 -155 -301 -149 -27 5
-25 33 3 67 25 29 296 230 380 281 103 63 167 151 199 277 22 85 20 139 -8
200 -24 51 -37 104 -76 306 -29 151 -64 255 -126 377 -125 247 -348 442 -581
509 -40 12 -105 30 -144 42 -52 15 -82 31 -115 61 -44 40 -45 41 -107 35 -201
-17 -457 -204 -605 -441 -104 -166 -202 -419 -241 -621 -12 -60 -38 -160 -58
-222 -36 -111 -36 -111 -20 -180 62 -251 296 -543 513 -639 116 -51 212 -43
455 42 265 92 428 202 584 396 125 156 177 300 178 493 1 188 -41 355 -125
503 -75 132 -242 288 -385 361 -47 23 -55 47 -21 60 32 11 92 -5 167 -45 311
-165 501 -534 505 -979 1 -109 -3 -141 -22 -202 -43 -138 -137 -250 -391 -466
-133 -113 -196 -151 -360 -217 -181 -71 -238 -108 -266 -167 -16 -33 -16 -38
0 -72 12 -27 14 -43 7 -62 -17 -45 -2 -81 62 -145 123 -122 299 -168 498 -130
100 19 154 45 221 104 42 36 94 66 188 107 224 99 383 204 490 323 190 213
280 723 213 1202 -54 387 -186 655 -447 906 -169 163 -397 300 -597 357 -87
25 -193 39 -242 30z m-204 -557 c37 -11 65 -32 129 -98 45 -46 113 -110 151
-142 181 -156 276 -376 263 -611 -6 -132 -37 -222 -134 -398 -62 -112 -89
-150 -143 -200 -78 -75 -198 -140 -306 -167 -142 -36 -212 -24 -289 52 -27 27
-86 68 -129 91 -240 125 -342 331 -315 638 34 400 256 747 534 835 54 17 181
17 239 0z m529 -2258 c36 -19 20 -44 -40 -63 -85 -25 -313 -32 -384 -12 -66
20 -106 52 -88 73 9 11 54 14 208 16 213 3 276 0 304 -14z"/>
<path d="M4809 5447 c-82 -28 -136 -64 -197 -132 -133 -146 -203 -366 -181
-566 11 -95 28 -144 75 -216 110 -164 263 -182 639 -73 158 46 192 67 243 151
49 81 66 149 66 259 0 174 -73 324 -220 451 -157 136 -287 175 -425 126z m274
-190 c118 -54 206 -180 215 -308 15 -209 -137 -353 -373 -354 -71 0 -88 4
-147 33 -40 19 -77 46 -93 68 -69 90 -87 224 -46 344 70 208 261 301 444 217z"/>
<path d="M4910 5137 c-19 -6 -54 -30 -77 -53 -63 -63 -79 -143 -44 -219 46
-101 158 -141 261 -94 56 25 77 44 101 91 21 41 25 121 8 165 -35 92 -148 142
-249 110z m118 -166 c-2 -15 -14 -31 -29 -40 -24 -13 -29 -13 -53 2 -16 11
-26 27 -26 41 0 23 3 24 56 24 53 -1 55 -1 52 -27z"/>
<path d="M5155 4344 c-33 -14 -128 -48 -212 -75 -160 -53 -207 -81 -201 -121
5 -36 83 -53 171 -39 183 30 384 153 375 229 -3 23 -8 27 -38 29 -20 2 -61 -8
-95 -23z"/>
<path d="M5100 5982 c-23 -13 -36 -28 -38 -45 -4 -29 5 -32 149 -66 337 -78
589 -259 762 -547 95 -158 148 -330 182 -593 20 -157 49 -195 99 -128 19 26
21 41 20 170 0 111 -5 161 -22 229 -117 471 -445 817 -913 963 -118 36 -194
42 -239 17z"/>
<path d="M7062 5004 c16 -58 4 -217 -21 -288 -24 -68 -26 -136 -7 -246 13 -75
13 -75 15 37 0 62 8 163 17 225 17 122 15 281 -4 300 -8 8 -9 2 0 -28z"/>
<path d="M3072 4057 c126 -253 199 -364 233 -351 27 11 17 66 -28 144 -63 111
-183 278 -243 337 -52 51 -52 51 38 -130z"/>
<path d="M3212 3561 c15 -21 89 -114 172 -219 115 -144 236 -233 479 -351 164
-80 302 -167 442 -276 118 -94 307 -175 487 -212 63 -13 134 -17 288 -17 230
0 324 15 518 80 324 107 672 373 672 513 0 16 -4 32 -10 36 -5 3 -46 -20 -92
-52 -314 -218 -493 -304 -748 -359 -64 -14 -125 -19 -250 -18 -332 1 -501 59
-886 306 -304 196 -397 245 -567 302 -99 33 -198 83 -263 132 -27 22 -75 58
-105 81 -62 48 -162 86 -137 54z"/>
<path d="M3680 2853 c36 -22 99 -61 140 -88 155 -100 321 -195 330 -190 18 11
10 53 -16 84 -63 75 -342 214 -454 226 -65 7 -65 7 0 -32z"/>
</g>
</svg>
