<?xml version="1.0" standalone="no"?>
<!DOCTYPE svg PUBLIC "-//W3C//DTD SVG 20010904//EN"
 "http://www.w3.org/TR/2001/REC-SVG-20010904/DTD/svg10.dtd">
<svg version="1.0" xmlns="http://www.w3.org/2000/svg"
 width="1000.000000pt" height="1000.000000pt" viewBox="0 0 1000.000000 1000.000000"
 preserveAspectRatio="xMidYMid meet">
<metadata>
  <rdf:RDF
    xmlns:rdf = "http://www.w3.org/1999/02/22-rdf-syntax-ns#"
    xmlns:rdfs = "http://www.w3.org/2000/01/rdf-schema#"
    xmlns:dc = "http://purl.org/dc/elements/1.1/"
    xmlns:cc = "http://creativecommons.org/ns#">
    <cc:license rdf:resource="http://creativecommons.org/publicdomain/zero/1.0/deed.en"/>
    <cc:permits rdf:resource="http://creativecommons.org/ns#Reproduction"/>
    <rdf:Description about="https://nft.mir.one/fingerprints"
      dc:title="TON Fingerprints"
      dc:description="This is a unique digital fingerprint created based on the algorithm for generating basic rings using a noise texture. Like human fingerprints, you can now use it for the Web3 and Metaverse era as digital biometric information."
      dc:publisher="https://nft.mir.one"
      dc:date="2022-02-22"
      dc:format="image/svg+xml"
      dc:language="en" >
      <dc:creator>
      <rdf:Bag>
        <rdf:li>EQBondcvD2_aOFADXSWJHs4ZazQDuEl9_wNvGGPxI8hGuOFU</rdf:li>
        <rdf:li>ipfs://bafkreihj7iub3fhmhq6jn62noukt5wxn3gv6bvcg7wmt6ywvlurefezckq</rdf:li>
      </rdf:Bag>
      </dc:creator>
    </rdf:Description>
  </rdf:RDF>
</metadata>
<rect width="100%" height="100%" fill="#1b1f23"/>
<g transform="translate(0.000000,1000.000000) scale(0.100000,-0.100000)"
fill="#ffffff" stroke="none">
<path d="M4863 7803 c15 -2 37 -2 50 0 12 2 0 4 -28 4 -27 0 -38 -2 -22 -4z"/>
<path d="M5183 7803 c9 -2 25 -2 35 0 9 3 1 5 -18 5 -19 0 -27 -2 -17 -5z"/>
<path d="M4773 7793 c9 -2 25 -2 35 0 9 3 1 5 -18 5 -19 0 -27 -2 -17 -5z"/>
<path d="M4713 7783 c9 -2 23 -2 30 0 6 3 -1 5 -18 5 -16 0 -22 -2 -12 -5z"/>
<path d="M4658 7773 c6 -2 18 -2 25 0 6 3 1 5 -13 5 -14 0 -19 -2 -12 -5z"/>
<path d="M4618 7763 c7 -3 16 -2 19 1 4 3 -2 6 -13 5 -11 0 -14 -3 -6 -6z"/>
<path d="M4875 7633 c-176 -22 -406 -97 -595 -194 -314 -161 -490 -330 -659
-628 -19 -34 -74 -114 -124 -178 -192 -254 -327 -479 -327 -548 0 -19 3 -35 6
-35 21 0 59 39 173 176 193 232 348 400 399 434 39 25 55 30 109 30 64 0 103
-12 103 -30 0 -6 -28 -31 -62 -58 -93 -70 -167 -142 -296 -287 -187 -211 -272
-294 -343 -335 -61 -36 -70 -46 -107 -117 -51 -100 -138 -331 -168 -450 -55
-217 -74 -547 -45 -788 38 -315 143 -673 268 -918 95 -184 351 -524 528 -702
174 -173 360 -299 549 -370 126 -47 494 -128 701 -154 151 -19 538 -33 591
-21 96 21 504 160 561 190 32 17 49 28 38 24 -11 -3 -72 -10 -136 -14 -63 -5
-169 -19 -235 -30 -356 -64 -951 -18 -1324 102 -213 68 -500 248 -709 444
-160 149 -407 449 -511 619 -109 178 -242 547 -286 795 -26 146 -24 364 5 520
42 226 83 314 188 414 36 34 96 106 134 161 37 55 143 186 235 290 362 413
453 526 494 612 22 44 54 96 72 114 86 86 293 233 483 344 55 32 147 89 204
128 58 39 155 94 217 123 67 32 133 71 162 98 67 59 102 65 402 75 160 5 254
12 269 20 12 7 21 15 18 17 -2 3 -49 15 -103 29 -283 68 -725 118 -879 98z
m246 -131 c37 -30 18 -45 -84 -70 -133 -31 -249 -77 -444 -176 -200 -102 -322
-177 -503 -312 -153 -115 -260 -184 -283 -184 -8 0 -18 7 -21 16 -20 51 125
221 297 350 228 170 556 327 789 378 98 22 221 20 249 -2z"/>
<path d="M5580 7345 c-184 -18 -249 -31 -357 -71 -220 -82 -337 -153 -331
-198 5 -36 63 -32 236 18 250 71 353 87 694 106 117 6 212 6 282 0 76 -8 118
-7 151 1 46 12 46 12 -72 66 -206 96 -294 107 -603 78z"/>
<path d="M5420 7035 c-52 -7 -166 -27 -253 -44 -128 -25 -178 -31 -265 -29
-105 3 -108 2 -186 -35 -184 -88 -372 -221 -491 -349 -39 -41 -128 -156 -200
-254 -71 -98 -177 -235 -235 -304 -196 -232 -255 -320 -302 -450 -22 -63 -23
-75 -23 -385 0 -299 2 -327 23 -424 41 -183 109 -342 195 -456 73 -98 122
-126 252 -149 50 -8 142 -31 205 -51 165 -50 226 -46 195 15 -17 32 -59 61
-194 135 -143 78 -209 124 -270 190 -138 152 -221 410 -221 690 1 194 27 323
94 460 71 143 170 249 341 366 46 31 57 34 150 40 94 6 110 10 260 72 213 87
238 91 461 72 235 -21 382 -47 515 -91 356 -118 601 -394 706 -792 31 -120 43
-345 23 -456 -51 -286 -232 -510 -572 -704 -263 -149 -614 -188 -1055 -116
-173 28 -173 28 -242 10 -80 -21 -131 -17 -255 20 -105 31 -162 32 -172 2 -8
-27 37 -70 124 -116 82 -44 161 -62 269 -62 51 0 182 -9 290 -21 365 -38 764
-9 973 72 145 56 416 253 564 409 122 131 196 273 232 450 13 68 16 114 11
230 -16 381 -156 711 -400 946 -201 194 -393 278 -740 324 -128 17 -334 65
-368 85 -5 4 -9 17 -9 29 0 31 112 137 182 172 166 84 526 86 770 4 169 -57
294 -136 433 -277 217 -218 378 -503 455 -804 27 -104 50 -266 50 -354 0 -83
15 -184 30 -199 17 -17 63 27 84 80 29 73 28 309 -3 454 -50 239 -146 467
-280 667 -92 137 -289 365 -376 436 -117 94 -312 172 -497 197 -106 15 -329
15 -437 0 -254 -35 -394 -99 -591 -270 -36 -32 -128 -105 -205 -163 -77 -58
-168 -129 -202 -157 -73 -61 -97 -62 -101 -7 -5 58 30 118 131 224 158 164
339 302 495 375 197 93 637 160 905 139 211 -18 339 -52 497 -132 113 -58 158
-99 205 -188 20 -36 81 -120 136 -186 189 -225 288 -400 374 -659 72 -215 89
-313 89 -516 1 -208 -4 -228 -104 -472 -77 -185 -132 -300 -222 -458 -34 -58
-98 -175 -143 -261 -126 -237 -266 -450 -355 -539 -81 -81 -185 -147 -310
-198 -267 -108 -769 -151 -1145 -97 -151 21 -243 22 -283 1 -44 -23 -58 -21
-142 20 -122 58 -262 158 -378 269 -164 157 -241 266 -282 397 -12 40 -30 100
-40 133 -10 33 -49 123 -85 200 -164 344 -216 603 -196 968 13 237 -3 307 -64
279 -92 -42 -151 -443 -111 -748 50 -380 229 -815 463 -1126 91 -120 246 -279
358 -368 123 -97 399 -278 489 -321 399 -189 1284 -204 1641 -28 44 22 121 70
170 107 94 69 325 294 436 422 57 66 60 71 24 44 -66 -50 -353 -237 -457 -298
-227 -133 -449 -204 -733 -236 -221 -24 -571 -9 -790 36 -183 37 -325 113
-325 172 0 28 19 28 89 1 70 -26 188 -54 326 -76 151 -25 541 -24 705 0 299
45 474 112 753 290 48 30 118 67 156 82 37 14 88 42 111 62 115 99 262 331
374 590 41 94 79 180 85 192 7 11 10 21 8 21 -10 0 -98 -125 -172 -245 -212
-344 -455 -604 -455 -487 0 28 9 42 136 218 141 196 312 487 378 643 155 370
187 805 90 1240 -86 384 -241 707 -443 923 -89 95 -96 118 -32 118 20 0 72
-13 116 -29 80 -30 80 -30 20 25 -54 49 -103 86 -339 250 -81 57 -145 84 -257
109 -102 23 -505 30 -639 10z"/>
<path d="M3516 6964 c8 -31 -12 -64 -131 -220 -107 -139 -107 -139 -16 -49
143 141 192 224 157 270 -15 20 -15 20 -10 -1z"/>
<path d="M5219 6480 c-122 -12 -199 -43 -199 -80 0 -30 28 -36 185 -44 241
-11 418 -52 572 -129 338 -172 593 -536 682 -978 27 -133 51 -324 51 -407 0
-133 -50 -293 -138 -444 -67 -114 -111 -159 -330 -335 -199 -160 -311 -241
-449 -322 -70 -41 -72 -42 -102 -27 -41 22 -84 20 -257 -10 -204 -36 -419 -35
-696 1 -222 28 -247 30 -283 13 -85 -39 62 -115 310 -159 177 -32 520 -33 653
-2 102 24 163 49 233 94 57 36 69 36 69 0 0 -41 -57 -121 -110 -153 -97 -60
-328 -95 -550 -84 -402 20 -597 82 -679 216 -22 35 -55 65 -123 111 -51 35
-128 99 -172 142 -43 42 -84 77 -92 77 -20 0 -44 -29 -44 -54 0 -13 14 -52 32
-87 24 -51 61 -93 172 -204 154 -153 249 -223 364 -267 64 -25 110 -33 316
-55 297 -30 540 -28 726 7 63 11 165 27 227 35 136 17 230 48 335 112 139 84
238 180 353 343 71 101 92 146 110 232 12 56 30 97 79 178 131 215 211 398
242 551 16 82 16 82 -19 153 -31 61 -40 94 -62 241 -57 381 -149 614 -340 860
-225 289 -497 442 -846 474 -63 6 -121 10 -129 10 -8 -1 -49 -5 -91 -9z m1077
-2435 c17 -44 -264 -345 -421 -451 -139 -95 -243 -142 -279 -128 -46 18 6 75
198 218 83 62 200 157 259 212 167 153 228 190 243 149z"/>
<path d="M4991 6009 c-24 -4 -67 -24 -95 -43 -41 -28 -67 -36 -136 -46 -200
-27 -391 -123 -441 -221 -24 -47 -82 -230 -111 -349 -25 -100 -29 -273 -9
-365 17 -80 89 -227 144 -294 128 -153 315 -251 482 -251 92 0 119 10 231 82
207 133 293 275 282 469 -7 112 -43 194 -125 281 -111 117 -213 163 -343 156
-96 -6 -167 -42 -221 -113 -164 -214 -23 -545 232 -545 125 0 229 83 229 184
0 51 -31 103 -66 112 -50 13 -82 -30 -49 -66 13 -14 14 -23 6 -39 -22 -41
-110 -40 -149 2 -93 99 -18 257 122 257 168 0 280 -186 220 -364 -22 -64 -103
-150 -176 -187 -159 -80 -324 -51 -462 81 -108 104 -160 229 -160 385 1 258
161 470 369 491 80 8 191 -16 283 -62 57 -27 95 -58 175 -138 56 -56 117 -128
136 -159 109 -184 118 -375 26 -566 -45 -93 -116 -168 -232 -243 -51 -34 -95
-69 -99 -80 -19 -61 87 -63 209 -4 103 49 175 122 226 228 54 112 81 214 88
328 11 198 -53 358 -212 530 -52 57 -98 114 -101 127 -20 77 84 28 211 -101
135 -136 199 -276 212 -466 3 -47 0 -117 -6 -157 -13 -83 -92 -347 -123 -411
-37 -75 -186 -174 -315 -207 -65 -17 -171 -19 -223 -5 -19 5 -96 18 -171 29
-156 23 -233 46 -339 103 -105 56 -198 127 -277 212 -150 161 -215 333 -215
561 0 134 18 217 77 376 25 66 45 129 45 140 0 39 -19 59 -55 59 -53 0 -136
-82 -185 -184 -63 -130 -84 -233 -83 -411 1 -128 5 -165 26 -248 49 -184 139
-330 274 -439 117 -95 360 -258 422 -283 133 -55 414 -89 594 -74 210 18 331
67 603 245 159 104 245 207 301 362 161 436 -62 994 -482 1204 -163 82 -447
141 -564 117z m174 -145 c262 -52 393 -112 518 -238 210 -209 305 -541 237
-825 -34 -141 -114 -282 -180 -316 -69 -36 -72 -9 -11 116 72 148 94 236 94
384 1 144 -16 220 -78 350 -52 112 -119 201 -199 266 -95 78 -152 101 -265
110 -196 15 -418 127 -363 183 10 11 92 1 247 -30z"/>
<path d="M3650 2825 c13 -14 26 -25 28 -25 3 0 -5 11 -18 25 -13 14 -26 25
-28 25 -3 0 5 -11 18 -25z"/>
<path d="M3740 2746 c0 -2 8 -10 18 -17 15 -13 16 -12 3 4 -13 16 -21 21 -21
13z"/>
<path d="M3810 2689 c93 -82 345 -227 455 -263 54 -17 452 -104 605 -132 132
-24 325 -22 454 4 96 20 127 34 113 49 -4 4 -107 7 -230 7 -222 1 -222 1 -492
54 -148 28 -317 61 -375 72 -158 29 -378 117 -510 204 -52 34 -53 34 -20 5z"/>
</g>
</svg>
