<?xml version="1.0" standalone="no"?>
<!DOCTYPE svg PUBLIC "-//W3C//DTD SVG 20010904//EN"
 "http://www.w3.org/TR/2001/REC-SVG-20010904/DTD/svg10.dtd">
<svg version="1.0" xmlns="http://www.w3.org/2000/svg"
 width="1000.000000pt" height="1000.000000pt" viewBox="0 0 1000.000000 1000.000000"
 preserveAspectRatio="xMidYMid meet">
<metadata>
  <rdf:RDF
    xmlns:rdf = "http://www.w3.org/1999/02/22-rdf-syntax-ns#"
    xmlns:rdfs = "http://www.w3.org/2000/01/rdf-schema#"
    xmlns:dc = "http://purl.org/dc/elements/1.1/"
    xmlns:cc = "http://creativecommons.org/ns#">
    <cc:license rdf:resource="http://creativecommons.org/publicdomain/zero/1.0/deed.en"/>
    <cc:permits rdf:resource="http://creativecommons.org/ns#Reproduction"/>
    <rdf:Description about="https://nft.mir.one/fingerprints"
      dc:title="TON Fingerprints"
      dc:description="This is a unique digital fingerprint created based on the algorithm for generating basic rings using a noise texture. Like human fingerprints, you can now use it for the Web3 and Metaverse era as digital biometric information."
      dc:publisher="https://nft.mir.one"
      dc:date="2022-02-22"
      dc:format="image/svg+xml"
      dc:language="en" >
      <dc:creator>
      <rdf:Bag>
        <rdf:li>EQBondcvD2_aOFADXSWJHs4ZazQDuEl9_wNvGGPxI8hGuOFU</rdf:li>
        <rdf:li>ipfs://bafkreihj7iub3fhmhq6jn62noukt5wxn3gv6bvcg7wmt6ywvlurefezckq</rdf:li>
      </rdf:Bag>
      </dc:creator>
    </rdf:Description>
  </rdf:RDF>
</metadata>
<rect width="100%" height="100%" fill="#1b1f23"/>
<g transform="translate(0.000000,1000.000000) scale(0.100000,-0.100000)"
fill="#ffffff" stroke="none">
<path d="M4738 7793 c7 -3 16 -2 19 1 4 3 -2 6 -13 5 -11 0 -14 -3 -6 -6z"/>
<path d="M4688 7783 c7 -3 16 -2 19 1 4 3 -2 6 -13 5 -11 0 -14 -3 -6 -6z"/>
<path d="M4638 7773 c7 -3 16 -2 19 1 4 3 -2 6 -13 5 -11 0 -14 -3 -6 -6z"/>
<path d="M4930 7629 c-227 -25 -554 -102 -726 -170 -260 -104 -533 -308 -735
-549 -54 -65 -54 -65 10 -7 78 71 291 213 426 284 115 59 244 111 371 148 214
62 663 138 879 150 61 3 151 10 201 16 100 12 161 4 464 -66 80 -18 168 -36
195 -40 28 -3 61 -9 75 -11 57 -10 -253 124 -398 173 -169 56 -273 73 -487 78
-104 2 -228 0 -275 -6z"/>
<path d="M5404 7419 c-9 -16 12 -33 31 -25 14 5 15 9 5 21 -15 18 -26 19 -36
4z"/>
<path d="M5470 7331 c-14 -5 -97 -7 -185 -4 -181 6 -292 -6 -590 -62 -250 -47
-400 -88 -524 -140 -133 -56 -477 -257 -547 -319 -116 -102 -248 -319 -279
-456 -7 -36 -30 -137 -50 -225 -50 -216 -55 -348 -26 -665 26 -285 48 -414
106 -631 99 -371 170 -506 357 -685 141 -135 237 -190 543 -315 105 -42 218
-89 252 -103 76 -32 198 -51 448 -68 264 -18 365 -15 519 17 357 74 529 162
731 378 155 163 256 340 302 525 24 96 24 320 0 432 -75 347 -310 727 -573
926 -179 134 -386 214 -638 245 -161 19 -272 5 -484 -62 -63 -20 -113 -29
-158 -29 -82 0 -125 -21 -202 -99 -90 -91 -163 -229 -217 -416 -46 -157 -45
-186 15 -370 29 -88 68 -193 87 -234 47 -105 135 -232 194 -284 124 -109 300
-152 454 -112 257 67 388 316 284 541 -13 28 -54 81 -95 121 -150 152 -287
170 -414 56 -67 -60 -90 -106 -90 -181 0 -139 85 -248 208 -268 87 -14 172 45
172 118 0 55 -47 81 -70 38 -15 -28 -54 -25 -79 6 -30 38 -27 77 8 116 26 29
35 33 80 32 176 -2 234 -244 89 -368 -53 -46 -116 -66 -203 -66 -62 0 -82 5
-141 34 -150 75 -232 214 -270 456 -8 52 -22 117 -31 144 -11 34 -14 71 -11
121 6 94 44 166 112 213 55 36 85 40 109 14 26 -29 21 -65 -14 -98 -99 -92
-130 -234 -52 -234 22 0 47 20 123 98 101 106 126 122 207 141 28 7 81 32 117
56 36 24 90 49 118 56 73 19 219 16 293 -5 245 -71 465 -313 547 -601 33 -115
33 -335 0 -448 -58 -202 -198 -391 -382 -514 -82 -55 -174 -101 -314 -158 -77
-31 -165 -74 -197 -96 -31 -23 -75 -45 -96 -50 -60 -14 -231 -11 -329 6 -201
34 -566 186 -734 306 -150 106 -290 274 -339 404 -11 30 -25 93 -31 142 -6 48
-29 157 -50 243 -50 197 -68 310 -79 496 -15 268 16 482 89 609 16 27 72 101
125 164 129 155 216 286 270 411 50 116 94 169 200 245 130 92 232 130 405
150 69 7 188 29 265 49 197 49 280 63 456 77 316 24 558 -9 989 -136 80 -23
170 -45 200 -48 55 -6 55 -6 -60 68 -137 89 -344 193 -455 229 -140 45 -413
84 -465 67z m-1654 -625 c8 -22 -15 -60 -144 -232 -115 -154 -166 -202 -198
-190 -44 17 35 179 160 329 74 89 166 136 182 93z m1689 -720 c402 -119 706
-453 822 -904 23 -92 27 -126 27 -247 0 -153 -12 -220 -64 -352 -81 -212 -287
-440 -500 -556 -206 -113 -546 -193 -628 -148 -49 26 -23 44 118 82 295 78
461 163 624 319 228 219 335 506 297 793 -67 499 -448 890 -893 914 -135 7
-221 -6 -406 -63 -142 -44 -175 -47 -186 -19 -23 61 91 141 262 184 116 30
116 30 282 26 133 -2 168 -7 245 -29z"/>
<path d="M5355 7014 c-292 -29 -545 -110 -646 -207 -62 -60 -278 -301 -324
-362 -57 -76 -105 -174 -105 -213 0 -16 9 -40 19 -53 20 -24 20 -24 65 0 34
17 66 50 122 123 204 266 450 434 754 516 212 56 542 25 817 -77 178 -66 303
-135 388 -213 57 -51 243 -337 412 -628 77 -134 145 -241 175 -275 26 -30
-169 422 -263 611 -71 142 -110 230 -107 245 3 22 8 24 56 24 44 0 50 2 35 13
-9 7 -32 16 -51 21 -21 6 -73 48 -146 118 -62 59 -138 123 -169 142 -110 65
-436 165 -642 196 -102 15 -321 26 -390 19z"/>
<path d="M4425 6873 c-52 -21 -138 -76 -197 -124 -60 -51 -137 -154 -229 -307
-41 -68 -111 -174 -157 -235 -150 -201 -198 -303 -228 -485 -28 -172 -8 -468
46 -660 38 -135 67 -179 241 -356 167 -171 209 -201 314 -231 33 -10 105 -42
160 -71 298 -158 566 -172 831 -44 250 121 385 328 388 595 2 165 -59 285
-226 447 -68 66 -99 102 -96 115 9 43 136 -12 237 -104 106 -95 184 -236 216
-387 13 -66 13 -80 -5 -178 -36 -200 -80 -288 -210 -418 -123 -124 -277 -209
-473 -262 -122 -33 -315 -31 -448 5 -117 32 -270 96 -410 173 -134 72 -177
105 -269 200 -201 210 -185 197 -215 168 -30 -30 1 -110 87 -226 115 -157 312
-295 574 -402 195 -80 285 -99 464 -100 175 -1 187 2 438 109 164 70 267 134
368 228 176 165 264 360 264 588 0 278 -165 555 -400 672 -58 29 -73 32 -150
31 -180 -2 -280 -24 -280 -63 0 -10 65 -84 149 -167 123 -124 154 -161 184
-221 68 -139 69 -278 3 -418 -84 -178 -274 -298 -496 -312 -162 -11 -342 51
-445 152 -98 96 -246 365 -316 575 -45 136 -67 170 -110 170 -34 0 -48 -22
-55 -88 -13 -108 47 -262 181 -464 112 -168 126 -208 74 -208 -27 0 -165 141
-241 246 -125 174 -160 282 -185 559 -13 149 -13 197 -3 279 25 211 125 410
227 453 77 31 87 7 39 -87 -20 -39 -53 -118 -73 -178 -30 -88 -37 -125 -41
-213 -5 -113 7 -157 47 -178 27 -15 65 18 85 72 23 63 104 375 111 429 9 60
-8 110 -47 143 -29 25 -30 29 -24 79 21 185 129 368 316 536 74 66 110 112
110 139 0 19 -32 41 -58 40 -15 0 -45 -7 -67 -16z"/>
<path d="M3399 6823 c-13 -16 -12 -17 4 -4 9 7 17 15 17 17 0 8 -8 3 -21 -13z"/>
<path d="M5302 6695 c-68 -19 -82 -27 -141 -79 -33 -29 -81 -56 -154 -85 -230
-93 -397 -230 -397 -328 0 -29 3 -33 25 -33 14 0 80 27 147 60 168 82 261 104
398 97 132 -7 348 -47 469 -87 116 -38 285 -124 374 -191 255 -193 510 -569
627 -928 49 -151 64 -240 63 -386 -2 -255 -66 -412 -268 -655 -214 -257 -451
-430 -631 -459 -176 -29 -316 -52 -389 -66 -127 -24 -402 -30 -645 -14 -261
17 -287 16 -342 -6 -68 -28 -369 -40 -470 -20 -171 34 -332 125 -495 280 -232
218 -387 476 -464 769 -27 105 -30 130 -27 236 2 66 0 120 -4 120 -15 0 -30
-44 -35 -109 -16 -197 79 -569 215 -836 114 -224 207 -336 391 -474 140 -104
215 -139 339 -156 93 -13 114 -20 207 -70 124 -67 185 -88 320 -115 404 -77
1022 -16 1316 131 31 15 90 54 130 87 41 32 127 91 193 131 216 132 334 235
511 445 100 119 150 161 203 172 38 8 50 27 81 129 54 175 83 469 62 628 -23
168 -111 379 -276 657 -144 243 -236 370 -368 506 -222 231 -464 346 -850 403
-143 21 -201 40 -212 69 -10 26 19 39 103 46 209 18 504 -46 715 -156 255
-133 427 -329 737 -838 62 -101 134 -219 160 -260 26 -42 60 -101 75 -131 15
-29 31 -56 35 -59 4 -3 19 -23 34 -44 31 -47 32 -38 6 64 -67 263 -213 565
-433 895 -153 229 -239 332 -346 413 -135 102 -301 177 -506 229 -128 32 -397
42 -483 18z m463 -3219 c19 -14 19 -15 1 -35 -40 -44 -263 -112 -486 -147
-225 -35 -734 -29 -967 12 -143 24 -219 72 -147 90 15 4 196 2 403 -4 519 -15
707 -2 1011 68 146 33 160 35 185 16z"/>
<path d="M3038 5896 c4 -48 -28 -180 -58 -237 -18 -35 -18 -37 -1 -32 12 3 26
-6 41 -27 22 -31 23 -35 14 -183 -5 -84 -9 -219 -9 -302 0 -137 2 -154 23
-192 12 -24 36 -104 53 -179 41 -183 69 -266 139 -409 160 -329 422 -576 715
-674 160 -53 430 -81 463 -47 15 14 14 18 -8 41 -18 19 -68 40 -184 77 -199
64 -260 88 -356 143 -244 142 -437 376 -545 660 -43 116 -152 505 -164 585 -6
41 -13 136 -16 210 -7 163 -19 230 -52 292 -24 46 -25 50 -14 149 10 92 9 105
-6 132 -27 46 -39 43 -35 -7z"/>
<path d="M5660 4910 c0 -5 5 -10 10 -10 6 0 10 5 10 10 0 6 -4 10 -10 10 -5 0
-10 -4 -10 -10z"/>
<path d="M6749 3994 c-196 -310 -356 -462 -688 -652 -251 -143 -394 -203 -617
-256 -279 -66 -651 -93 -880 -62 -209 27 -329 65 -553 175 -90 44 -131 51
-151 26 -59 -71 259 -251 565 -320 349 -80 890 -18 1387 159 475 169 689 305
847 539 96 143 181 337 181 415 0 34 -14 62 -30 62 -4 0 -31 -39 -61 -86z"/>
<path d="M3261 3493 c142 -185 202 -253 350 -398 153 -149 235 -215 359 -289
203 -121 549 -217 784 -218 86 -1 112 3 175 26 47 17 146 38 275 57 236 36
401 77 619 153 185 64 233 74 262 52 20 -16 20 -16 0 -32 -41 -34 -245 -125
-375 -168 -166 -55 -336 -90 -545 -111 -167 -16 -210 -26 -219 -52 -18 -45 58
-66 229 -65 229 2 438 54 670 167 159 77 246 139 288 206 23 38 62 73 156 142
167 122 492 436 355 343 -21 -14 -44 -26 -50 -26 -6 0 -44 -22 -85 -49 -170
-111 -291 -166 -477 -216 -70 -18 -204 -58 -298 -88 -215 -70 -349 -99 -639
-144 -408 -62 -630 -41 -949 91 -164 68 -255 127 -381 247 -60 58 -166 150
-235 204 -69 55 -143 116 -165 136 -22 20 -73 59 -113 88 -73 52 -73 52 9 -56z"/>
<path d="M3724 2777 c100 -76 281 -188 401 -248 178 -89 333 -138 615 -197
222 -45 228 -46 420 -47 154 0 213 4 280 19 127 27 284 81 385 132 50 24 81
41 70 38 -11 -4 -64 -22 -118 -40 -214 -74 -503 -110 -684 -86 -46 7 -136 29
-200 51 -65 21 -138 42 -163 46 -248 36 -486 100 -661 178 -131 58 -209 94
-289 134 -48 24 -72 33 -56 20z"/>
</g>
</svg>
