<?xml version="1.0" standalone="no"?>
<!DOCTYPE svg PUBLIC "-//W3C//DTD SVG 20010904//EN"
 "http://www.w3.org/TR/2001/REC-SVG-20010904/DTD/svg10.dtd">
<svg version="1.0" xmlns="http://www.w3.org/2000/svg"
 width="1000.000000pt" height="1000.000000pt" viewBox="0 0 1000.000000 1000.000000"
 preserveAspectRatio="xMidYMid meet">
<metadata>
  <rdf:RDF
    xmlns:rdf = "http://www.w3.org/1999/02/22-rdf-syntax-ns#"
    xmlns:rdfs = "http://www.w3.org/2000/01/rdf-schema#"
    xmlns:dc = "http://purl.org/dc/elements/1.1/"
    xmlns:cc = "http://creativecommons.org/ns#">
    <cc:license rdf:resource="http://creativecommons.org/publicdomain/zero/1.0/deed.en"/>
    <cc:permits rdf:resource="http://creativecommons.org/ns#Reproduction"/>
    <rdf:Description about="https://nft.mir.one/fingerprints"
      dc:title="TON Fingerprints"
      dc:description="This is a unique digital fingerprint created based on the algorithm for generating basic rings using a noise texture. Like human fingerprints, you can now use it for the Web3 and Metaverse era as digital biometric information."
      dc:publisher="https://nft.mir.one"
      dc:date="2022-02-22"
      dc:format="image/svg+xml"
      dc:language="en" >
      <dc:creator>
      <rdf:Bag>
        <rdf:li>EQBondcvD2_aOFADXSWJHs4ZazQDuEl9_wNvGGPxI8hGuOFU</rdf:li>
        <rdf:li>ipfs://bafkreihj7iub3fhmhq6jn62noukt5wxn3gv6bvcg7wmt6ywvlurefezckq</rdf:li>
      </rdf:Bag>
      </dc:creator>
    </rdf:Description>
  </rdf:RDF>
</metadata>
<rect width="100%" height="100%" fill="#1b1f23"/>
<g transform="translate(0.000000,1000.000000) scale(0.100000,-0.100000)"
fill="#ffffff" stroke="none">
<path d="M5464 7738 c93 -63 140 -105 166 -145 32 -52 36 -73 18 -91 -21 -21
-59 -13 -172 39 -238 109 -442 155 -791 179 -88 6 -169 13 -180 16 -11 2 12
-12 50 -32 79 -42 217 -84 483 -149 212 -52 268 -73 391 -148 49 -29 116 -64
148 -76 32 -12 86 -43 120 -69 191 -148 429 -336 503 -398 187 -157 412 -411
586 -664 64 -92 144 -198 181 -239 2 -3 -19 44 -47 103 -220 469 -476 802
-877 1138 -165 139 -203 179 -203 212 0 26 35 46 78 46 37 0 121 -41 201 -96
36 -26 60 -40 53 -31 -24 29 -166 121 -221 144 -31 12 -69 23 -86 23 -37 0
-74 23 -174 103 -42 34 -114 81 -161 105 -47 23 -77 37 -66 30z"/>
<path d="M4270 7524 c-19 -3 -80 -14 -134 -24 -54 -11 -113 -20 -130 -20 -54
-1 62 -37 235 -74 311 -67 555 -149 689 -232 148 -92 176 -106 319 -166 80
-33 198 -87 261 -121 188 -99 272 -140 346 -169 98 -39 182 -97 291 -202 167
-159 332 -382 439 -592 54 -107 104 -247 149 -419 42 -160 73 -249 150 -425
40 -91 86 -203 103 -250 37 -103 81 -201 81 -180 1 21 -37 284 -50 350 -22
111 -189 787 -209 844 -43 126 -165 331 -308 516 -91 118 -339 363 -447 443
-121 89 -432 282 -514 320 -55 25 -85 31 -178 37 -172 12 -293 62 -293 120 0
26 27 26 132 -1 92 -23 136 -22 152 4 9 16 5 24 -26 51 -55 48 -124 67 -273
76 -116 7 -149 14 -300 60 -165 50 -174 52 -310 55 -77 2 -156 1 -175 -1z"/>
<path d="M6200 7306 c0 -2 8 -10 18 -17 15 -13 16 -12 3 4 -13 16 -21 21 -21
13z"/>
<path d="M3935 7240 c-38 -10 -118 -36 -178 -59 -59 -23 -115 -41 -125 -41
-17 -1 34 -23 93 -40 17 -5 104 -16 195 -25 423 -40 694 -117 1062 -301 223
-112 333 -197 475 -367 42 -50 74 -79 91 -83 89 -19 155 -76 270 -236 84 -117
159 -244 274 -463 55 -104 136 -244 180 -309 107 -159 124 -200 154 -377 13
-83 31 -182 40 -222 52 -244 76 -605 55 -810 -12 -116 -67 -427 -105 -592 -27
-114 -144 -436 -217 -595 -29 -63 -13 -42 65 82 105 169 167 296 274 553 154
372 162 405 162 649 0 249 -31 485 -101 771 -33 135 -35 163 -15 191 14 18 15
18 45 -10 89 -85 181 -481 216 -921 8 -104 19 -208 24 -230 7 -36 8 -38 14
-15 4 14 16 109 27 211 54 494 2 797 -181 1066 -85 125 -109 193 -129 370 -27
238 -146 501 -351 773 -214 284 -453 467 -484 369 -9 -27 11 -55 126 -179 53
-58 123 -136 155 -175 212 -258 440 -716 404 -811 -25 -64 -67 -12 -201 246
-159 309 -262 461 -457 678 -51 57 -118 142 -149 189 -93 141 -221 231 -603
422 -270 135 -397 187 -576 236 -275 75 -403 89 -529 55z"/>
<path d="M3471 6856 c-35 -19 -66 -38 -69 -41 -8 -8 85 5 152 22 39 9 62 11
69 4 19 -19 -14 -70 -78 -121 -83 -66 -125 -115 -125 -145 0 -33 10 -32 155 9
309 89 532 115 692 82 103 -22 191 -51 383 -126 98 -38 199 -72 230 -75 137
-16 168 -48 308 -316 195 -373 343 -725 396 -939 45 -184 51 -242 50 -490 -1
-348 -21 -452 -134 -684 -37 -78 -100 -222 -140 -321 -247 -611 -481 -986
-790 -1262 -52 -47 -107 -102 -123 -124 -29 -39 -29 -39 -3 -29 15 5 56 17 93
25 75 18 215 82 254 117 87 77 239 285 344 468 99 173 248 492 351 753 114
285 137 330 172 335 20 3 22 -1 22 -41 0 -129 -136 -485 -360 -942 -175 -356
-247 -469 -405 -635 -73 -77 -176 -220 -129 -179 11 9 72 42 137 74 166 80
258 144 297 205 18 28 60 115 95 193 34 78 114 255 178 392 268 581 322 761
288 968 -10 59 -10 99 3 226 29 278 40 576 27 710 -22 231 -107 484 -294 871
-51 107 -116 251 -142 320 -78 198 -177 325 -323 414 -112 68 -423 193 -610
245 -203 57 -266 65 -527 66 -132 0 -253 -1 -270 -3 -16 -1 -48 0 -70 3 -33 4
-51 -1 -104 -29z"/>
<path d="M4052 6539 c-72 -21 -52 -69 54 -128 44 -24 116 -70 161 -102 71 -52
87 -59 128 -59 55 0 88 -16 137 -67 52 -55 208 -282 208 -304 0 -14 -7 -19
-29 -19 -37 0 -80 42 -189 182 -81 105 -144 168 -169 168 -21 0 -26 -47 -9
-96 25 -74 137 -231 252 -356 157 -169 242 -303 299 -472 14 -40 41 -172 61
-292 32 -194 35 -234 32 -354 -4 -123 -7 -144 -40 -240 -20 -58 -45 -155 -57
-216 -90 -476 -275 -844 -562 -1119 -135 -128 -285 -228 -430 -285 -28 -11
-66 -31 -84 -43 -34 -23 -34 -23 48 -37 121 -21 233 -18 282 8 61 30 220 157
300 237 255 255 451 607 589 1060 111 366 142 537 133 755 -14 327 -81 574
-244 890 -68 132 -87 179 -98 241 -14 85 -26 110 -100 224 -55 85 -75 131 -75
175 0 39 -50 80 -163 134 -110 54 -282 112 -352 119 -27 3 -65 1 -83 -4z"/>
<path d="M3320 6437 c-36 -30 -96 -87 -134 -127 -69 -73 -69 -73 -5 -67 35 3
93 13 129 22 99 25 346 31 440 11 163 -35 380 -172 380 -241 0 -27 -47 -17
-158 34 -144 66 -217 85 -327 85 -80 0 -107 -6 -240 -48 -83 -26 -164 -58
-182 -72 -37 -28 -128 -139 -163 -199 -13 -22 -38 -59 -56 -81 -34 -42 -34
-42 4 -47 22 -3 65 3 107 15 59 17 77 28 120 73 41 42 60 54 103 65 67 15 98
11 291 -46 225 -67 346 -110 436 -158 110 -58 290 -170 340 -211 71 -58 172
-164 236 -249 34 -44 73 -90 87 -100 25 -19 25 -19 45 5 55 68 -33 258 -226
487 -48 57 -101 131 -118 165 -18 34 -61 104 -96 155 -36 51 -80 130 -99 175
-45 107 -68 134 -215 249 -152 120 -174 128 -353 128 -72 0 -149 5 -171 11
-97 26 -105 25 -175 -34z m390 -417 c68 -11 367 -109 435 -143 84 -41 186
-150 169 -179 -12 -20 -63 -4 -152 47 -116 65 -259 120 -442 170 -141 38 -180
55 -180 81 0 32 63 41 170 24z"/>
<path d="M4870 6369 c0 -12 17 -39 39 -60 65 -65 121 -44 75 27 -33 50 -114
73 -114 33z"/>
<path d="M4705 6320 c-12 -20 7 -51 96 -158 83 -98 101 -127 204 -337 209
-426 277 -641 306 -977 24 -285 -21 -538 -172 -953 -230 -635 -504 -1031 -894
-1294 -55 -37 -114 -81 -131 -98 -31 -32 -31 -32 60 -27 129 7 226 30 278 64
64 42 252 239 335 350 173 231 329 527 486 925 190 480 206 544 214 850 4 163
2 236 -11 325 -39 278 -134 550 -317 911 -83 163 -147 248 -217 290 -20 12
-62 43 -92 69 -30 26 -65 52 -77 58 -27 15 -60 15 -68 2z"/>
<path d="M5500 6245 c-17 -46 7 -113 125 -342 194 -375 292 -615 331 -803 18
-89 18 -92 -5 -495 -6 -104 -18 -316 -26 -470 -20 -389 -42 -468 -250 -925
-177 -388 -202 -445 -239 -544 -61 -161 -40 -242 41 -164 49 46 77 99 112 204
16 51 75 186 130 301 354 743 367 791 380 1394 7 331 9 369 27 405 23 47 60
59 69 22 18 -79 27 -196 32 -443 5 -229 3 -304 -11 -412 -30 -232 -26 -223
-408 -1005 -111 -226 -139 -292 -134 -312 10 -39 38 -32 88 22 78 84 129 178
347 635 61 129 105 187 142 187 10 0 19 -6 19 -13 0 -25 -157 -401 -220 -527
-115 -231 -204 -346 -302 -396 -29 -14 -82 -47 -118 -73 -81 -59 -110 -71
-165 -71 -41 0 -51 -6 -122 -69 -43 -38 -96 -88 -118 -111 -39 -41 -39 -42 -9
-27 16 9 97 43 178 77 81 33 176 75 209 92 294 148 515 396 646 726 81 203
100 318 62 376 -19 28 -19 29 10 133 61 227 83 459 68 726 -17 299 -50 453
-120 550 -27 39 -53 95 -79 175 -132 400 -576 1202 -666 1202 -8 0 -19 -11
-24 -25z"/>
<path d="M3292 5739 c-48 -12 -59 -27 -42 -59 18 -33 84 -57 246 -90 142 -29
309 -69 458 -111 78 -21 151 -25 162 -8 11 18 -14 53 -59 81 -57 35 -205 89
-362 131 -219 59 -327 74 -403 56z"/>
<path d="M7005 5722 c-6 -31 5 -92 29 -157 19 -52 20 -34 1 35 -8 30 -16 76
-16 103 -2 54 -5 59 -14 19z"/>
<path d="M3069 5456 c-23 -24 -65 -79 -95 -122 -53 -79 -53 -79 -21 -86 21 -5
70 1 143 17 266 59 450 54 827 -21 218 -43 312 -83 457 -194 104 -79 207 -186
252 -260 20 -34 58 -114 83 -178 25 -64 53 -124 62 -134 23 -25 50 -22 69 7
14 21 16 44 11 133 -8 173 -77 374 -137 402 -8 4 -35 16 -60 27 -25 11 -86 56
-135 99 -131 115 -167 142 -251 185 -73 38 -78 39 -175 39 -78 0 -146 9 -302
41 -230 46 -529 89 -623 89 -62 0 -65 -1 -105 -44z"/>
<path d="M3415 5160 c-75 -12 -168 -45 -217 -77 -105 -70 -174 -275 -185 -548
-6 -174 4 -256 49 -393 36 -109 100 -214 178 -290 42 -41 66 -56 119 -72 36
-12 78 -33 94 -48 26 -25 35 -27 107 -27 64 0 84 4 107 21 15 12 28 30 28 40
0 18 -9 19 -114 19 -77 0 -115 4 -118 11 -8 23 47 52 115 63 296 45 305 46
321 28 10 -13 -4 -33 -90 -126 -129 -139 -162 -156 -299 -155 -81 0 -108 5
-185 33 -83 30 -167 53 -172 47 -8 -8 194 -175 239 -198 161 -84 442 34 538
224 32 66 36 97 19 147 -10 28 -8 40 15 91 45 101 62 198 49 289 -14 96 -46
169 -125 289 -57 86 -60 94 -45 109 39 39 163 -44 239 -161 21 -33 50 -96 65
-140 67 -204 10 -529 -127 -723 -66 -94 -137 -155 -245 -209 -103 -51 -197
-74 -306 -74 -42 0 -91 -3 -108 -6 -32 -7 -32 -7 41 -50 181 -108 254 -110
448 -14 170 85 309 230 405 425 121 243 143 477 66 696 -40 112 -85 183 -176
275 -94 95 -175 139 -332 181 -134 35 -301 37 -384 5 -109 -43 -191 -117 -175
-159 8 -19 79 -14 196 12 116 26 213 10 273 -44 28 -26 36 -71 17 -101 -8 -13
-18 -12 -76 9 -154 55 -337 2 -398 -114 -25 -48 -32 -141 -16 -200 14 -51 68
-118 114 -142 106 -55 244 -19 282 73 24 57 -7 124 -62 138 -40 10 -65 -10
-62 -50 6 -86 -98 -55 -108 32 -10 83 66 144 181 143 65 0 125 -17 155 -44 34
-31 61 -103 61 -166 1 -157 -130 -255 -358 -266 -82 -5 -97 -3 -147 20 -73 34
-140 103 -179 185 -27 57 -32 81 -35 163 -5 111 10 175 63 279 23 44 35 83 37
122 8 104 83 192 205 239 42 16 88 23 166 27 306 14 595 -112 764 -333 69 -90
148 -248 173 -349 101 -403 -177 -965 -580 -1176 -76 -39 -243 -100 -275 -100
-9 0 -39 -10 -66 -22 -50 -21 -50 -21 53 -56 75 -25 122 -35 174 -36 66 -1 78
2 156 43 362 185 645 585 738 1041 16 79 21 131 18 207 -3 101 -3 101 -86 269
-99 200 -160 290 -256 382 -87 83 -137 118 -242 170 -184 93 -528 151 -719
122z"/>
<path d="M2972 5058 c-5 -7 -24 -44 -41 -83 -32 -70 -32 -70 4 -35 20 19 43
47 51 62 24 47 14 90 -14 56z"/>
</g>
</svg>
