<?xml version="1.0" standalone="no"?>
<!DOCTYPE svg PUBLIC "-//W3C//DTD SVG 20010904//EN"
 "http://www.w3.org/TR/2001/REC-SVG-20010904/DTD/svg10.dtd">
<svg version="1.0" xmlns="http://www.w3.org/2000/svg"
 width="1000.000000pt" height="1000.000000pt" viewBox="0 0 1000.000000 1000.000000"
 preserveAspectRatio="xMidYMid meet">
<metadata>
  <rdf:RDF
    xmlns:rdf = "http://www.w3.org/1999/02/22-rdf-syntax-ns#"
    xmlns:rdfs = "http://www.w3.org/2000/01/rdf-schema#"
    xmlns:dc = "http://purl.org/dc/elements/1.1/"
    xmlns:cc = "http://creativecommons.org/ns#">
    <cc:license rdf:resource="http://creativecommons.org/publicdomain/zero/1.0/deed.en"/>
    <cc:permits rdf:resource="http://creativecommons.org/ns#Reproduction"/>
    <rdf:Description about="https://nft.mir.one/fingerprints"
      dc:title="TON Fingerprints"
      dc:description="This is a unique digital fingerprint created based on the algorithm for generating basic rings using a noise texture. Like human fingerprints, you can now use it for the Web3 and Metaverse era as digital biometric information."
      dc:publisher="https://nft.mir.one"
      dc:date="2022-02-22"
      dc:format="image/svg+xml"
      dc:language="en" >
      <dc:creator>
      <rdf:Bag>
        <rdf:li>EQBondcvD2_aOFADXSWJHs4ZazQDuEl9_wNvGGPxI8hGuOFU</rdf:li>
        <rdf:li>ipfs://bafkreihj7iub3fhmhq6jn62noukt5wxn3gv6bvcg7wmt6ywvlurefezckq</rdf:li>
      </rdf:Bag>
      </dc:creator>
    </rdf:Description>
  </rdf:RDF>
</metadata>
<rect width="100%" height="100%" fill="#1b1f23"/>
<g transform="translate(0.000000,1000.000000) scale(0.100000,-0.100000)"
fill="#ffffff" stroke="none">
<path d="M4696 7736 c34 -19 169 -69 300 -111 168 -55 269 -93 343 -133 184
-96 226 -117 276 -136 36 -14 79 -48 150 -116 55 -53 177 -162 270 -242 222
-189 417 -391 590 -612 77 -99 152 -188 166 -199 52 -38 53 -15 2 83 -163 313
-403 621 -676 866 -206 186 -248 227 -264 258 -15 29 -14 31 11 53 34 29 58
29 124 -2 61 -28 100 -56 197 -139 39 -33 57 -45 40 -27 -38 42 -176 150 -235
184 -25 14 -75 33 -112 42 -56 14 -80 28 -145 82 -43 36 -98 79 -123 96 -45
30 -45 30 -3 -14 72 -76 91 -179 32 -179 -10 0 -72 26 -137 58 -218 109 -379
156 -671 197 -102 14 -187 25 -190 25 -3 0 22 -16 55 -34z"/>
<path d="M4305 7585 c-11 -2 -50 -7 -88 -10 -67 -7 -67 -7 -20 -31 27 -13 75
-31 108 -40 180 -46 454 -143 563 -198 28 -14 79 -51 114 -82 86 -77 153 -119
272 -169 142 -60 225 -103 351 -185 61 -39 160 -95 220 -124 192 -93 344 -227
576 -511 276 -338 311 -400 399 -700 35 -119 96 -294 142 -408 78 -191 155
-350 144 -297 -3 14 -19 102 -36 195 -17 94 -47 235 -66 315 -19 80 -50 220
-69 311 -58 284 -82 336 -220 479 -56 58 -156 170 -222 250 -146 176 -333 360
-468 461 -218 164 -416 301 -491 339 -68 35 -85 40 -119 35 -85 -14 -159 -9
-218 14 -75 29 -117 64 -99 82 18 19 80 13 175 -16 127 -40 168 -23 111 44
-43 51 -132 89 -283 122 -75 16 -176 42 -226 59 -140 46 -228 61 -385 65 -80
2 -154 2 -165 0z"/>
<path d="M4010 7340 c-47 -10 -114 -28 -150 -39 -36 -12 -78 -21 -95 -22 -20
-1 -24 -3 -10 -6 11 -2 43 -13 70 -23 28 -10 102 -26 165 -35 386 -56 702
-172 1025 -377 161 -103 294 -216 385 -328 123 -153 130 -159 195 -190 119
-57 286 -277 510 -670 117 -205 173 -287 232 -341 111 -100 143 -177 143 -342
0 -84 8 -150 30 -265 44 -222 60 -382 60 -597 0 -225 -11 -304 -80 -595 -65
-276 -105 -394 -245 -732 -13 -32 -22 -58 -20 -58 5 0 131 212 178 300 26 47
83 168 128 270 45 102 99 226 121 275 62 139 89 257 95 415 10 260 -25 509
-119 849 -35 125 -38 145 -26 158 21 20 60 0 92 -46 77 -110 156 -415 186
-711 15 -152 42 -305 50 -288 16 29 33 393 26 546 -12 272 -33 353 -152 587
-87 172 -105 222 -158 441 -41 172 -91 281 -204 449 -120 177 -240 325 -381
465 -132 131 -209 184 -259 178 -22 -2 -28 -9 -30 -35 -3 -28 10 -45 115 -160
162 -175 207 -230 304 -363 205 -281 325 -543 290 -633 -21 -53 -48 -33 -109
78 -30 55 -79 145 -109 200 -118 215 -271 430 -452 635 -74 83 -124 150 -151
202 -65 124 -197 238 -444 383 -72 43 -189 114 -261 158 -196 122 -333 181
-577 252 -141 41 -232 45 -368 15z"/>
<path d="M6310 7195 c13 -14 26 -25 28 -25 3 0 -5 11 -18 25 -13 14 -26 25
-28 25 -3 0 5 -11 18 -25z"/>
<path d="M3790 7056 c-75 -20 -280 -91 -280 -96 0 -3 24 -19 53 -35 28 -17 53
-38 55 -46 2 -10 -28 -35 -80 -69 -47 -30 -111 -84 -148 -124 -36 -39 -85 -91
-110 -116 -45 -45 -45 -45 11 -44 31 1 62 5 68 9 7 3 21 27 33 51 21 45 52 71
153 129 28 15 71 51 97 79 48 51 48 51 280 51 220 -1 240 -2 352 -29 160 -37
265 -75 423 -151 196 -94 289 -162 353 -257 21 -32 44 -75 50 -95 7 -21 76
-166 155 -323 170 -338 231 -472 289 -634 109 -301 136 -593 91 -966 -19 -152
-35 -202 -110 -345 -35 -66 -97 -206 -138 -311 -148 -376 -277 -643 -438 -909
-177 -292 -282 -461 -294 -475 -7 -8 -22 -38 -33 -67 -20 -52 -20 -52 27 -29
25 13 63 29 83 35 58 19 111 77 189 206 40 66 101 167 136 225 80 129 259 485
343 680 34 80 95 233 136 340 77 204 99 245 130 245 44 0 20 -160 -56 -366
-45 -121 -128 -312 -235 -539 -170 -362 -248 -496 -384 -660 -39 -46 -71 -88
-71 -91 0 -15 32 -17 74 -5 72 22 169 81 215 131 44 47 55 70 216 420 48 105
118 255 155 335 196 425 250 613 229 803 -8 68 -6 136 7 295 22 262 25 683 5
767 -47 208 -96 333 -271 695 -76 157 -157 339 -180 405 -90 259 -202 397
-453 560 -251 163 -570 272 -932 319 -138 18 -136 18 -195 2z"/>
<path d="M3862 6674 c-109 -17 -312 -74 -394 -111 -65 -29 -70 -43 -26 -76 25
-19 48 -22 210 -27 129 -5 193 -11 218 -22 49 -21 282 -191 318 -233 17 -18
49 -69 71 -112 53 -101 191 -275 342 -430 131 -135 217 -256 260 -367 15 -39
49 -174 75 -301 41 -198 48 -247 48 -350 1 -111 -2 -129 -36 -240 -20 -66 -48
-190 -63 -275 -107 -618 -439 -1147 -875 -1395 -47 -27 -99 -60 -116 -75 -30
-26 -30 -26 65 -37 124 -15 230 -3 281 32 48 33 227 215 291 295 222 280 392
631 519 1072 95 327 125 511 117 703 -16 334 -117 661 -282 910 -70 105 -114
149 -169 168 -69 24 -129 70 -211 163 -119 137 -158 208 -125 229 17 10 72
-30 135 -97 175 -188 209 -219 235 -216 61 7 29 85 -95 235 -104 125 -133 148
-237 183 -46 15 -132 51 -193 80 -60 29 -134 63 -163 77 -36 17 -52 30 -50 41
6 29 48 43 112 37 74 -6 290 -78 427 -141 84 -39 115 -48 164 -50 49 -1 77 -9
153 -47 51 -25 99 -44 107 -41 40 16 19 71 -50 132 -103 91 -459 242 -673 287
-90 19 -264 18 -390 -1z"/>
<path d="M3355 6319 c-46 -13 -143 -97 -223 -193 -73 -86 -73 -86 -34 -86 22
0 56 7 76 15 20 8 107 36 193 62 267 78 388 71 620 -36 143 -66 163 -68 163
-21 0 41 -64 104 -166 164 -91 53 -171 82 -269 96 -85 12 -319 12 -360 -1z"/>
<path d="M4684 6275 c-11 -29 6 -61 69 -131 95 -106 106 -123 218 -329 139
-258 200 -388 247 -530 119 -358 133 -697 42 -1055 -59 -235 -219 -658 -336
-892 -164 -328 -395 -646 -590 -813 -39 -33 -82 -77 -98 -98 -27 -39 -27 -39
1 -33 15 3 60 10 98 16 77 10 169 39 209 65 45 30 227 289 359 513 140 236
250 471 402 862 156 400 179 486 194 712 27 402 -65 768 -310 1236 -82 158
-125 226 -176 283 -55 61 -280 209 -318 209 -3 0 -8 -7 -11 -15z"/>
<path d="M5512 6258 c-18 -18 -14 -81 9 -140 11 -29 77 -157 145 -285 150
-277 231 -452 287 -616 39 -117 41 -127 42 -247 0 -69 -6 -199 -12 -290 -7
-91 -17 -282 -23 -425 -6 -143 -15 -298 -21 -345 -22 -193 -80 -350 -306 -835
-173 -370 -224 -495 -225 -547 -1 -58 13 -66 59 -36 54 36 89 91 133 210 21
57 87 204 148 328 60 124 144 302 187 395 173 379 185 441 194 985 5 340 8
379 24 404 68 103 112 -119 111 -549 -2 -364 -34 -525 -144 -716 -28 -49 -99
-187 -156 -306 -58 -120 -144 -289 -191 -376 -92 -170 -109 -229 -67 -235 65
-9 216 229 404 642 67 145 115 211 145 200 13 -5 15 -14 10 -43 -11 -60 -92
-256 -175 -426 -124 -254 -220 -385 -322 -439 -29 -16 -78 -46 -109 -66 -91
-62 -134 -80 -187 -80 -46 0 -56 -6 -194 -107 -80 -60 -154 -114 -164 -121
-18 -11 -17 -12 2 -3 12 6 112 44 223 85 231 87 321 130 447 215 306 204 589
698 568 990 -5 60 -1 99 19 186 38 162 46 215 57 371 17 244 -19 617 -74 773
-77 216 -325 716 -504 1016 -117 197 -251 393 -285 419 -39 30 -39 30 -55 14z"/>
<path d="M3552 6044 c-53 -37 -16 -65 134 -98 253 -58 418 -119 564 -210 91
-56 110 -59 110 -13 0 41 -34 91 -112 164 -54 50 -103 73 -160 73 -14 0 -66
14 -115 30 -196 68 -370 90 -421 54z"/>
<path d="M3285 5911 c-94 -34 -110 -49 -235 -226 -35 -49 -74 -102 -87 -116
-24 -26 -24 -26 18 -27 23 -1 71 3 107 8 56 10 94 6 306 -25 132 -20 321 -52
419 -71 193 -37 253 -41 281 -21 29 21 6 50 -61 80 -77 35 -329 99 -530 136
-171 31 -226 51 -221 79 10 49 126 54 313 13 305 -68 472 -132 568 -219 31
-28 80 -63 109 -78 107 -54 193 -117 308 -229 128 -124 159 -140 182 -91 35
79 -112 292 -326 471 -59 50 -60 50 -130 50 -64 0 -81 5 -181 51 -130 61 -209
88 -407 143 -81 22 -174 52 -207 66 -73 30 -153 33 -226 6z"/>
<path d="M3141 5381 c-50 -9 -100 -56 -172 -163 -22 -31 -47 -62 -57 -67 -14
-8 -10 -10 19 -11 20 0 46 -8 58 -17 21 -18 21 -18 -22 -158 -24 -77 -48 -151
-52 -165 -11 -37 81 84 115 150 15 30 31 71 35 90 12 64 16 70 61 96 128 75
320 105 543 86 178 -16 394 -60 495 -101 95 -38 247 -136 334 -216 85 -78 139
-157 210 -306 60 -127 78 -148 115 -133 9 3 22 24 29 46 24 80 -26 292 -94
406 -25 40 -48 62 -99 92 -37 22 -115 76 -173 120 -59 44 -144 98 -189 120
-85 42 -118 50 -327 75 -69 9 -181 25 -250 36 -136 21 -500 34 -579 20z"/>
<path d="M3462 5089 c-245 -41 -373 -200 -412 -513 -26 -202 2 -385 83 -540
96 -186 232 -270 330 -203 23 16 63 29 105 36 211 33 267 41 302 41 30 0 43 6
63 29 39 47 60 143 55 253 -3 87 -7 101 -46 179 -23 46 -58 111 -77 144 -19
33 -34 69 -33 80 7 51 104 12 178 -72 153 -174 191 -403 115 -690 -56 -213
-175 -365 -349 -447 -99 -47 -159 -58 -316 -57 -145 1 -145 1 -63 -54 93 -62
178 -102 234 -111 25 -4 59 1 106 16 286 92 503 339 595 680 33 124 33 333 0
440 -70 224 -226 396 -412 455 -129 40 -245 58 -350 53 -81 -4 -108 -10 -185
-42 -116 -48 -131 -52 -138 -32 -15 40 43 110 124 152 90 45 161 57 299 51
398 -18 690 -237 816 -612 81 -243 10 -583 -185 -880 -57 -87 -196 -233 -277
-291 -83 -59 -211 -119 -319 -148 -49 -14 -107 -30 -127 -38 -37 -12 -37 -12
5 -24 23 -7 75 -24 116 -39 41 -15 106 -29 146 -32 69 -5 75 -4 140 32 404
226 747 826 733 1282 -3 113 -3 113 -61 225 -167 322 -289 458 -512 568 -191
95 -486 142 -683 109z m170 -441 c53 -16 88 -50 88 -86 0 -28 0 -28 -127 -28
-125 1 -129 0 -183 -30 -78 -44 -113 -97 -118 -179 -7 -106 44 -184 141 -215
89 -28 192 30 185 106 -4 48 -44 82 -77 65 -11 -7 -21 -18 -21 -26 0 -22 -47
-19 -60 4 -24 47 -3 99 52 127 40 21 128 20 174 -2 68 -32 107 -127 90 -219
-27 -144 -302 -233 -458 -148 -63 34 -103 80 -141 161 -39 84 -42 195 -7 286
35 92 77 127 196 160 54 16 104 30 109 31 26 8 122 4 157 -7z"/>
<path d="M3839 3797 c-35 -35 -82 -84 -104 -109 -49 -54 -111 -78 -200 -78
-73 0 -139 18 -260 72 -173 77 -166 78 -78 -17 83 -92 152 -149 223 -185 38
-19 54 -22 119 -17 100 7 165 28 241 79 112 75 192 207 172 283 -14 50 -41 43
-113 -28z"/>
<path d="M3570 3794 c-14 -3 -44 -7 -67 -10 -87 -11 -35 -78 61 -78 86 0 169
57 124 85 -13 9 -70 10 -118 3z"/>
</g>
</svg>
