<?xml version="1.0" standalone="no"?>
<!DOCTYPE svg PUBLIC "-//W3C//DTD SVG 20010904//EN"
 "http://www.w3.org/TR/2001/REC-SVG-20010904/DTD/svg10.dtd">
<svg version="1.0" xmlns="http://www.w3.org/2000/svg"
 width="1000.000000pt" height="1000.000000pt" viewBox="0 0 1000.000000 1000.000000"
 preserveAspectRatio="xMidYMid meet">
<metadata>
  <rdf:RDF
    xmlns:rdf = "http://www.w3.org/1999/02/22-rdf-syntax-ns#"
    xmlns:rdfs = "http://www.w3.org/2000/01/rdf-schema#"
    xmlns:dc = "http://purl.org/dc/elements/1.1/"
    xmlns:cc = "http://creativecommons.org/ns#">
    <cc:license rdf:resource="http://creativecommons.org/publicdomain/zero/1.0/deed.en"/>
    <cc:permits rdf:resource="http://creativecommons.org/ns#Reproduction"/>
    <rdf:Description about="https://nft.mir.one/fingerprints"
      dc:title="TON Fingerprints"
      dc:description="This is a unique digital fingerprint created based on the algorithm for generating basic rings using a noise texture. Like human fingerprints, you can now use it for the Web3 and Metaverse era as digital biometric information."
      dc:publisher="https://nft.mir.one"
      dc:date="2022-02-22"
      dc:format="image/svg+xml"
      dc:language="en" >
      <dc:creator>
      <rdf:Bag>
        <rdf:li>EQBondcvD2_aOFADXSWJHs4ZazQDuEl9_wNvGGPxI8hGuOFU</rdf:li>
        <rdf:li>ipfs://bafkreihj7iub3fhmhq6jn62noukt5wxn3gv6bvcg7wmt6ywvlurefezckq</rdf:li>
      </rdf:Bag>
      </dc:creator>
    </rdf:Description>
  </rdf:RDF>
</metadata>
<rect width="100%" height="100%" fill="#1b1f23"/>
<g transform="translate(0.000000,1000.000000) scale(0.100000,-0.100000)"
fill="#ffffff" stroke="none">
<path d="M5320 7708 c-22 -7 -115 -8 -253 -5 -228 6 -411 -3 -637 -32 -135
-17 -135 -17 -20 -29 189 -20 680 -36 814 -27 223 16 280 12 379 -25 99 -36
256 -115 323 -161 67 -46 120 -106 139 -157 41 -111 106 -172 180 -172 38 0
45 -4 69 -40 51 -77 156 -288 230 -461 47 -113 106 -229 162 -320 86 -144 189
-322 270 -474 24 -44 44 -77 44 -72 0 19 -88 264 -135 373 -63 147 -276 561
-419 815 -58 102 -108 198 -112 213 -6 27 -6 27 -25 -3 -22 -36 -33 -38 -52
-10 -8 11 -30 28 -48 37 -45 23 -102 108 -89 132 5 9 7 20 3 23 -3 4 0 13 7
22 10 12 10 15 0 15 -7 0 -79 44 -160 99 -170 113 -310 185 -461 235 -110 37
-149 42 -209 24z"/>
<path d="M4340 7493 c-76 -8 -210 -35 -310 -63 -58 -16 -116 -31 -130 -33 -27
-5 31 -8 245 -12 78 -2 195 -12 265 -24 69 -11 217 -25 330 -31 343 -17 504
-39 657 -89 286 -93 551 -296 901 -689 40 -45 80 -82 87 -82 22 0 38 39 32 82
-14 102 -152 316 -276 426 -42 37 -126 115 -188 174 -199 189 -383 278 -635
307 -234 27 -846 48 -978 34z"/>
<path d="M3994 7256 c-100 -26 -196 -65 -324 -131 -85 -43 -85 -43 -25 -38 33
2 94 11 135 19 125 23 197 32 375 49 270 25 276 27 215 78 -61 52 -225 62
-376 23z"/>
<path d="M4485 7182 c-66 -3 -71 -5 -90 -35 -33 -53 -92 -74 -282 -102 -233
-34 -350 -65 -437 -115 -90 -52 -219 -156 -321 -259 -80 -81 -80 -81 -41 -81
31 0 59 13 134 62 249 161 495 247 762 268 67 5 165 21 235 39 257 65 509 68
723 11 107 -29 153 -55 236 -128 42 -38 115 -89 168 -117 211 -114 435 -280
604 -449 119 -119 150 -168 258 -408 80 -179 82 -182 141 -228 33 -25 74 -66
90 -91 124 -183 138 -630 30 -954 -50 -154 -145 -325 -178 -325 -39 0 -125
-58 -213 -142 -243 -231 -438 -363 -634 -429 -76 -25 -117 -33 -205 -37 -173
-7 -462 42 -634 108 -81 32 -89 37 -272 212 -210 200 -288 295 -354 431 -141
293 -124 588 50 849 65 97 79 141 50 152 -37 14 -109 -35 -172 -119 -236 -313
-211 -787 59 -1146 65 -86 147 -166 271 -263 82 -64 106 -94 92 -116 -16 -26
-103 -1 -199 57 -81 49 -250 219 -311 313 -178 274 -236 597 -161 892 30 116
64 193 120 272 52 73 149 166 209 199 23 13 110 63 192 110 227 129 336 169
465 171 58 1 83 -3 104 -17 50 -33 32 -48 -114 -97 -155 -52 -229 -88 -318
-155 -74 -55 -106 -95 -127 -156 -9 -24 -41 -84 -72 -132 -99 -158 -137 -312
-115 -479 29 -230 146 -436 348 -613 217 -189 359 -251 629 -275 66 -5 162
-20 214 -32 84 -19 101 -20 163 -10 200 35 438 191 724 476 160 159 202 224
255 385 47 146 62 269 56 451 -8 211 -45 374 -98 431 -32 34 -52 31 -77 -15
-15 -27 -16 -52 -12 -176 11 -319 5 -479 -19 -570 -28 -109 -95 -246 -162
-335 -189 -251 -576 -515 -759 -519 -45 -1 -55 2 -58 17 -6 27 44 65 184 142
175 95 281 173 394 285 155 154 244 312 276 490 17 97 17 151 -1 280 -9 58
-22 182 -31 275 -17 192 -21 214 -64 342 -22 67 -30 111 -30 161 0 59 -5 80
-35 140 -79 157 -381 388 -615 468 -49 17 -87 19 -360 19 -276 0 -316 -3 -418
-23 -186 -37 -354 -107 -564 -235 -157 -96 -260 -176 -383 -301 -119 -121
-198 -227 -247 -331 -33 -72 -35 -93 -24 -245 7 -81 3 -126 -23 -300 -17 -113
-43 -261 -57 -330 -20 -98 -24 -140 -19 -195 21 -224 122 -478 314 -784 125
-199 218 -285 418 -385 233 -117 726 -240 882 -221 69 9 153 39 176 64 46 52
-13 85 -178 100 -194 19 -523 90 -670 145 -277 104 -472 293 -633 615 -96 190
-144 376 -144 552 0 156 48 452 107 666 26 94 26 95 8 145 -22 63 -15 111 30
197 119 226 483 502 818 620 170 60 269 75 497 75 224 0 318 -12 453 -61 149
-53 309 -153 437 -271 121 -111 153 -171 99 -185 -38 -10 -89 15 -230 109
-171 115 -282 172 -414 213 -140 43 -228 55 -395 55 -219 -1 -383 -38 -590
-135 -289 -137 -592 -413 -640 -586 -11 -37 -11 -46 0 -53 27 -16 76 16 174
114 215 217 404 342 640 425 354 125 767 53 1111 -193 194 -140 288 -267 315
-427 17 -100 8 -163 -34 -247 -20 -39 -54 -117 -76 -172 -80 -200 -163 -336
-234 -379 -72 -45 -74 -1 -5 140 86 176 132 314 149 448 32 246 -116 464 -415
614 -80 39 -289 109 -383 128 -84 16 -246 6 -342 -21 -91 -25 -267 -109 -370
-175 -198 -127 -423 -341 -478 -455 -92 -194 -133 -552 -88 -765 54 -249 180
-482 355 -656 148 -147 272 -211 471 -244 58 -9 161 -30 230 -45 69 -16 177
-38 240 -50 63 -11 158 -33 210 -47 85 -23 107 -25 205 -20 117 7 194 24 279
61 59 26 284 174 421 276 103 77 267 243 340 343 53 72 80 85 91 41 18 -71
-57 -195 -211 -350 -88 -88 -143 -132 -271 -217 -158 -105 -198 -141 -192
-175 5 -24 67 -27 131 -6 236 77 515 321 646 564 45 84 168 416 206 555 47
174 59 275 59 505 0 335 -31 472 -163 735 -91 180 -276 497 -339 580 -34 45
-44 51 -93 61 -84 17 -117 39 -269 178 -164 150 -400 324 -573 420 -93 52
-231 102 -343 125 -164 33 -424 46 -669 33z m833 -1607 c193 -96 294 -274 278
-490 -7 -99 -33 -194 -87 -322 -59 -138 -99 -195 -171 -243 -91 -61 -178 -84
-295 -78 -86 5 -102 9 -180 48 -187 93 -304 274 -303 470 1 36 8 83 16 105 8
22 21 77 29 123 26 154 106 242 312 342 179 88 188 91 263 85 48 -3 84 -14
138 -40z m-832 -408 c2 -7 -4 -51 -16 -98 -62 -258 32 -517 247 -677 220 -165
434 -185 674 -63 234 118 357 187 398 219 96 78 185 232 246 425 39 127 55
146 87 108 23 -30 24 -128 2 -215 -38 -149 -161 -333 -295 -439 -87 -70 -313
-206 -459 -276 -125 -61 -213 -77 -318 -61 -184 29 -344 118 -489 274 -178
191 -249 431 -194 649 21 81 41 125 66 151 20 19 44 21 51 3z"/>
<path d="M5008 5401 c-73 -24 -116 -51 -165 -104 -70 -76 -78 -148 -33 -270
42 -112 136 -176 213 -143 58 24 82 79 57 127 -14 25 -55 24 -74 -2 -32 -47
-84 10 -71 78 14 74 104 125 183 104 41 -11 101 -68 120 -114 15 -36 15 -109
0 -161 -17 -56 -100 -141 -153 -155 -90 -25 -176 -4 -250 61 -35 30 -58 66
-95 143 -27 56 -56 105 -64 108 -28 11 -39 -20 -34 -97 9 -142 104 -285 230
-349 193 -98 411 -22 507 176 116 237 61 492 -125 583 -73 36 -167 41 -246 15z"/>
<path d="M4718 6859 c-102 -12 -257 -52 -325 -84 -31 -14 -83 -51 -117 -83
-39 -36 -120 -91 -212 -144 -267 -155 -373 -243 -571 -475 -57 -67 -117 -131
-133 -143 -36 -26 -80 -27 -80 -2 0 49 190 312 316 438 102 103 228 186 424
281 179 87 210 107 210 134 0 37 -41 44 -133 25 -205 -44 -473 -183 -602 -311
-79 -80 -240 -342 -282 -459 -7 -22 -18 -69 -23 -103 -4 -34 -31 -122 -59
-196 -77 -204 -80 -224 -87 -552 -6 -268 -5 -299 15 -414 88 -516 206 -786
473 -1092 62 -70 70 -94 38 -104 -54 -17 -193 88 -289 219 -99 134 -211 357
-292 576 -46 127 -49 118 -10 -32 105 -402 266 -714 455 -877 49 -43 366 -215
513 -280 153 -67 257 -100 538 -172 233 -59 283 -75 368 -118 62 -33 148 -65
240 -91 151 -44 213 -73 246 -117 12 -16 26 -34 31 -40 13 -15 116 -17 174 -3
21 5 48 17 59 28 29 29 9 56 -63 84 -71 27 -130 72 -130 98 0 10 3 21 8 23 4
3 75 -10 157 -29 128 -30 161 -34 229 -29 91 7 207 31 363 76 130 38 145 45
253 124 47 34 99 69 115 78 30 16 30 16 -25 17 -33 0 -84 -10 -128 -25 -129
-44 -428 -88 -712 -104 -169 -10 -214 -19 -263 -54 -23 -15 -38 -18 -74 -13
-57 8 -135 43 -186 84 -29 23 -55 33 -110 42 -121 19 -625 146 -752 190 -227
78 -457 205 -557 307 -35 36 -50 60 -58 96 -16 73 -30 102 -131 268 -150 248
-205 383 -263 647 -27 122 -45 178 -76 238 -55 108 -66 194 -51 398 21 273 52
348 222 542 452 512 500 553 919 792 262 149 353 172 735 180 154 4 286 11
293 15 18 12 15 51 -5 70 -70 62 -383 103 -595 76z"/>
<path d="M3265 6463 c-3 -15 -28 -64 -55 -108 -64 -107 -143 -255 -136 -255 3
0 12 13 21 29 8 16 43 64 77 108 88 110 129 182 126 217 -4 39 -24 44 -33 9z"/>
<path d="M3342 5477 c-48 -51 -77 -170 -91 -370 -15 -201 6 -312 54 -294 29
12 44 72 70 274 14 109 30 222 35 252 13 74 13 134 -2 149 -18 18 -42 14 -66
-11z"/>
<path d="M7061 4564 c0 -11 3 -14 6 -6 3 7 2 16 -1 19 -3 4 -6 -2 -5 -13z"/>
<path d="M7018 4446 c-173 -434 -246 -570 -397 -744 -183 -210 -377 -341 -558
-378 -71 -15 -83 -15 -159 1 -82 17 -82 17 -246 -14 -224 -43 -308 -71 -393
-129 -77 -53 -108 -93 -88 -113 22 -22 122 -22 214 -1 135 32 250 50 444 67
367 34 530 88 651 216 187 198 329 425 427 679 59 155 153 478 145 500 -2 4
-19 -33 -40 -84z"/>
<path d="M2941 4494 c0 -11 3 -14 6 -6 3 7 2 16 -1 19 -3 4 -6 -2 -5 -13z"/>
<path d="M6641 3305 c-19 -22 -31 -46 -30 -63 1 -27 1 -27 9 2 5 16 18 38 28
50 22 24 35 46 29 46 -3 0 -19 -16 -36 -35z"/>
<path d="M3400 3239 c337 -318 533 -416 960 -483 244 -38 387 -41 438 -10 31
20 28 41 -10 64 -35 21 -50 25 -305 75 -382 75 -584 147 -973 348 -47 24 -110
53 -140 65 -55 21 -55 21 30 -59z"/>
<path d="M6165 2773 c-44 -19 -157 -60 -252 -93 -103 -35 -203 -77 -252 -105
-89 -52 -282 -126 -410 -156 -144 -35 -297 -49 -586 -55 -370 -7 -390 -11
-200 -41 189 -29 498 -41 640 -24 238 28 439 91 700 220 214 106 466 267 444
285 -2 1 -40 -12 -84 -31z"/>
<path d="M3770 2740 c85 -55 290 -152 378 -180 193 -60 295 -75 522 -74 218 1
474 23 572 51 57 15 112 56 105 77 -7 20 -110 37 -257 43 -126 5 -159 3 -255
-17 -97 -20 -130 -22 -285 -17 -212 6 -356 26 -555 77 -82 21 -167 41 -188 44
-21 4 -46 10 -55 13 -9 3 -1 -5 18 -17z"/>
</g>
</svg>
