<?xml version="1.0" standalone="no"?>
<!DOCTYPE svg PUBLIC "-//W3C//DTD SVG 20010904//EN"
 "http://www.w3.org/TR/2001/REC-SVG-20010904/DTD/svg10.dtd">
<svg version="1.0" xmlns="http://www.w3.org/2000/svg"
 width="1000.000000pt" height="1000.000000pt" viewBox="0 0 1000.000000 1000.000000"
 preserveAspectRatio="xMidYMid meet">
<metadata>
  <rdf:RDF
    xmlns:rdf = "http://www.w3.org/1999/02/22-rdf-syntax-ns#"
    xmlns:rdfs = "http://www.w3.org/2000/01/rdf-schema#"
    xmlns:dc = "http://purl.org/dc/elements/1.1/"
    xmlns:cc = "http://creativecommons.org/ns#">
    <cc:license rdf:resource="http://creativecommons.org/publicdomain/zero/1.0/deed.en"/>
    <cc:permits rdf:resource="http://creativecommons.org/ns#Reproduction"/>
    <rdf:Description about="https://nft.mir.one/fingerprints"
      dc:title="TON Fingerprints"
      dc:description="This is a unique digital fingerprint created based on the algorithm for generating basic rings using a noise texture. Like human fingerprints, you can now use it for the Web3 and Metaverse era as digital biometric information."
      dc:publisher="https://nft.mir.one"
      dc:date="2022-02-22"
      dc:format="image/svg+xml"
      dc:language="en" >
      <dc:creator>
      <rdf:Bag>
        <rdf:li>EQBondcvD2_aOFADXSWJHs4ZazQDuEl9_wNvGGPxI8hGuOFU</rdf:li>
        <rdf:li>ipfs://bafkreihj7iub3fhmhq6jn62noukt5wxn3gv6bvcg7wmt6ywvlurefezckq</rdf:li>
      </rdf:Bag>
      </dc:creator>
    </rdf:Description>
  </rdf:RDF>
</metadata>
<rect width="100%" height="100%" fill="#1b1f23"/>
<g transform="translate(0.000000,1000.000000) scale(0.100000,-0.100000)"
fill="#ffffff" stroke="none">
<path d="M4848 7813 c7 -3 16 -2 19 1 4 3 -2 6 -13 5 -11 0 -14 -3 -6 -6z"/>
<path d="M5060 7775 c209 -45 541 -111 600 -119 63 -8 -154 57 -293 88 -132
30 -280 53 -392 61 -75 5 -69 3 85 -30z"/>
<path d="M4478 7595 c-115 -16 -178 -32 -358 -88 -135 -42 -135 -42 -75 -49
33 -4 123 -2 200 3 299 22 583 -16 963 -131 171 -51 215 -61 298 -64 136 -6
187 -33 321 -168 56 -57 131 -140 168 -185 75 -95 140 -148 199 -164 50 -13
107 -70 208 -206 162 -218 296 -458 427 -762 89 -207 107 -237 182 -302 61
-53 61 -53 35 -1 -15 29 -55 137 -90 240 -144 426 -239 615 -522 1034 -137
204 -206 287 -256 314 -29 15 -78 19 -78 7 0 -11 32 -59 89 -132 56 -73 69
-107 48 -128 -12 -12 -21 -7 -62 39 -73 81 -105 133 -114 185 -8 42 -17 55
-68 98 -112 96 -145 132 -141 157 5 39 50 26 223 -63 236 -121 280 -159 480
-409 131 -163 154 -188 90 -95 -188 271 -337 430 -510 547 -121 81 -179 106
-265 117 -36 5 -122 27 -191 49 -138 44 -420 112 -599 144 -149 26 -461 33
-602 13z"/>
<path d="M4174 7300 c-138 -19 -335 -107 -538 -242 -67 -44 -124 -83 -128 -87
-18 -16 129 9 247 43 72 20 209 53 305 73 156 32 191 36 325 36 172 0 300 -22
447 -77 163 -61 248 -127 338 -262 142 -212 265 -354 384 -444 50 -37 129
-102 176 -144 102 -92 161 -130 190 -121 62 20 -2 108 -280 385 -288 286 -371
389 -354 435 17 45 88 -12 355 -281 315 -319 347 -361 375 -497 11 -51 31 -98
70 -165 91 -153 146 -303 174 -470 9 -57 19 -81 42 -107 59 -67 62 -146 17
-473 -64 -480 -143 -771 -284 -1053 -65 -129 -116 -206 -220 -329 -48 -58
-129 -159 -179 -225 -103 -136 -157 -192 -271 -277 -198 -147 -216 -165 -202
-202 21 -55 215 22 459 181 96 63 96 63 91 101 -7 53 18 99 132 241 51 64 120
157 153 207 266 397 439 997 459 1589 5 169 4 189 -21 320 -37 188 -84 328
-173 518 -92 198 -148 299 -221 401 -67 94 -470 504 -584 593 -135 106 -414
235 -627 289 -189 48 -476 67 -657 44z"/>
<path d="M5503 7153 c-7 -2 -13 -16 -13 -31 0 -21 49 -73 247 -267 401 -391
483 -495 638 -810 150 -304 185 -436 185 -697 0 -634 -110 -1141 -356 -1643
-116 -237 -231 -401 -394 -559 -76 -74 -80 -81 -63 -94 49 -37 166 12 269 113
204 201 506 894 594 1364 28 152 38 246 55 518 13 222 17 248 45 335 28 81 31
102 26 163 -15 165 -182 545 -357 810 -75 114 -113 160 -207 250 -63 61 -192
187 -286 282 -235 237 -317 293 -383 266z"/>
<path d="M4205 6961 c-33 -10 -80 -26 -105 -35 -25 -10 -112 -33 -195 -51 -82
-19 -180 -43 -216 -54 -116 -36 -252 -140 -411 -313 -87 -95 -87 -95 -45 -85
23 6 71 25 107 43 271 136 548 209 700 185 83 -13 431 -118 552 -167 51 -20
154 -67 228 -104 74 -37 158 -75 185 -84 117 -40 180 -101 282 -273 199 -339
287 -663 300 -1103 6 -223 -8 -363 -56 -551 -47 -185 -152 -444 -233 -574
-196 -312 -500 -529 -824 -591 -145 -27 -279 -16 -602 50 -266 55 -309 59
-332 31 -27 -32 78 -150 192 -218 103 -61 208 -80 433 -81 200 0 307 14 442
55 307 95 674 401 812 678 86 172 210 509 251 682 69 296 68 633 -6 988 -48
235 -108 423 -185 575 -51 104 -73 159 -81 210 -11 68 -25 95 -115 221 -11 17
-50 75 -86 131 -161 247 -340 376 -606 435 -115 25 -302 25 -386 0z m277 -146
c108 -23 193 -52 288 -101 167 -86 314 -223 308 -287 -2 -17 -8 -32 -14 -34
-6 -2 -65 32 -131 75 -198 132 -323 187 -547 242 -144 36 -174 47 -186 71 -26
48 126 66 282 34z"/>
<path d="M3800 6467 c-162 -45 -435 -173 -506 -239 -65 -60 -131 -146 -221
-288 -79 -125 -79 -125 -31 -102 26 12 81 47 123 76 97 70 282 164 416 211 99
34 110 41 153 90 70 81 124 99 296 100 93 0 162 -6 220 -18 197 -42 445 -145
605 -251 146 -98 293 -271 370 -439 54 -117 74 -206 85 -377 5 -85 15 -203 21
-264 16 -147 6 -395 -20 -507 -72 -315 -236 -585 -452 -744 -136 -100 -263
-155 -476 -206 -68 -16 -136 -35 -152 -43 -61 -32 -64 -68 -9 -101 51 -31 214
-27 332 9 307 93 561 310 720 616 105 202 163 385 192 604 26 197 7 567 -42
806 -66 318 -251 628 -453 759 -173 111 -447 230 -666 287 -121 32 -159 37
-280 40 -123 4 -150 1 -225 -19z"/>
<path d="M5487 6224 c-21 -22 -3 -69 69 -174 87 -128 102 -160 115 -244 5 -34
27 -126 49 -206 80 -298 115 -555 107 -795 -9 -267 -57 -480 -181 -804 -36
-92 -74 -206 -86 -252 -35 -139 -122 -269 -289 -433 -373 -366 -600 -474
-1046 -496 -143 -7 -196 -14 -249 -31 -60 -20 -73 -21 -110 -10 -22 7 -59 16
-81 20 -22 4 -62 17 -90 30 -58 26 -58 26 62 -71 50 -41 124 -109 163 -151 40
-42 86 -87 104 -98 17 -12 9 -2 -18 22 -59 52 -81 97 -65 133 18 39 60 38 184
-3 100 -33 119 -36 215 -35 164 2 429 78 595 170 28 15 86 66 130 112 44 46
136 132 205 192 132 114 195 180 329 350 46 58 117 136 158 174 114 105 175
206 267 440 84 212 144 466 181 766 9 74 27 183 41 242 23 101 32 236 18 272
-3 9 -12 16 -20 16 -23 0 -43 -42 -58 -123 -17 -86 -30 -117 -51 -117 -25 0
-29 49 -16 200 14 161 9 209 -34 341 -49 148 -122 242 -240 312 -38 23 -106
76 -150 117 -44 42 -96 87 -115 102 -38 29 -81 43 -93 32z m358 -409 c81 -82
136 -245 159 -478 8 -85 23 -175 32 -199 47 -129 48 -134 36 -293 -26 -347
-109 -668 -243 -940 -63 -126 -112 -195 -140 -195 -19 0 -21 4 -17 38 3 20 33
101 68 180 147 340 219 648 220 937 0 219 -71 632 -140 810 -23 61 -45 125
-47 143 -4 27 -2 32 16 32 11 0 36 -16 56 -35z"/>
<path d="M3812 6172 c-64 -23 -66 -25 -57 -52 11 -36 79 -57 235 -75 190 -22
283 -40 394 -77 245 -81 453 -219 591 -391 66 -82 138 -214 150 -274 6 -29 4
-33 -14 -33 -14 0 -44 31 -97 102 -142 186 -277 300 -468 393 -226 110 -406
149 -741 162 -132 5 -172 3 -230 -12 -90 -22 -255 -100 -348 -164 -116 -80
-189 -208 -272 -477 -25 -80 -45 -148 -45 -152 0 -13 49 50 115 149 173 258
418 411 745 464 177 28 387 13 548 -40 120 -40 329 -146 422 -216 107 -79 310
-276 310 -301 0 -13 -8 -18 -29 -18 -22 0 -66 27 -173 108 -167 126 -229 162
-398 232 -69 29 -152 64 -185 78 -74 31 -247 42 -359 22 -80 -14 -439 -136
-515 -174 -58 -30 -156 -118 -205 -185 -54 -74 -103 -179 -123 -266 -14 -64
-18 -123 -18 -300 0 -244 6 -301 37 -340 19 -24 21 -25 39 -9 10 9 23 39 29
68 15 76 57 351 65 426 16 165 79 304 190 417 72 73 119 98 136 72 15 -23 1
-57 -71 -176 -79 -131 -110 -206 -110 -268 0 -34 5 -47 20 -55 52 -28 99 23
241 261 137 230 183 281 313 344 101 50 196 70 260 55 77 -17 70 -47 -17 -76
-105 -34 -156 -72 -191 -142 -9 -18 -53 -67 -98 -110 -89 -84 -173 -204 -245
-346 -54 -107 -54 -106 6 -326 59 -220 92 -283 211 -401 151 -150 180 -199
128 -218 -30 -11 -57 0 -119 49 -32 25 -60 40 -73 38 -19 -3 -21 -8 -18 -77 2
-54 -1 -78 -12 -90 -8 -9 -16 -29 -18 -46 -4 -43 -55 -68 -124 -62 -123 12
-221 95 -332 284 -76 128 -101 154 -129 132 -31 -26 2 -156 82 -325 54 -116
108 -196 175 -258 52 -49 52 -49 184 -42 197 10 414 35 452 51 19 8 54 30 77
48 66 54 114 74 284 117 249 63 384 137 524 289 156 167 254 391 280 640 13
128 2 254 -36 421 -30 131 -31 155 -5 220 46 116 12 247 -112 427 -58 84 -188
212 -276 272 -134 91 -319 170 -507 218 -140 35 -394 43 -473 15z m673 -857
c125 -31 348 -167 472 -287 143 -139 170 -438 63 -697 -103 -251 -360 -460
-570 -465 -75 -1 -122 15 -140 49 -19 36 0 52 68 60 258 29 475 205 564 455
19 55 22 85 22 200 0 117 -3 143 -23 192 -42 108 -135 208 -265 287 -137 82
-273 106 -448 77 -125 -20 -141 -20 -169 3 -21 18 -22 21 -9 35 24 24 280 106
330 106 25 0 73 -7 105 -15z m88 -307 c141 -67 232 -181 258 -320 31 -166 -53
-357 -201 -459 -30 -21 -100 -55 -155 -75 -55 -21 -126 -50 -157 -66 -32 -15
-71 -28 -88 -28 -90 0 -281 201 -340 356 -52 139 -48 270 12 391 80 163 244
245 478 240 110 -2 119 -4 193 -39z"/>
<path d="M4286 4914 c-143 -45 -229 -158 -229 -299 0 -129 75 -242 189 -285
80 -29 239 -38 298 -16 54 21 129 98 159 164 32 69 31 198 -3 267 -54 110
-159 176 -290 182 -48 2 -92 -3 -124 -13z m242 -161 c114 -85 95 -263 -35
-340 -76 -44 -97 -8 -40 68 19 24 39 54 45 66 24 45 9 123 -24 123 -9 0 -29
-13 -44 -30 -34 -37 -53 -38 -86 -4 -39 38 -23 86 41 126 37 24 105 19 143 -9z"/>
<path d="M6896 5385 c-3 -8 3 -43 14 -77 78 -262 73 -629 -16 -987 -47 -189
-89 -296 -248 -636 -53 -114 -70 -185 -47 -199 13 -8 33 20 95 132 202 368
307 745 331 1192 11 198 -25 482 -72 561 -19 31 -47 38 -57 14z"/>
<path d="M6792 5342 c-22 -14 -32 -73 -32 -187 0 -154 -17 -421 -35 -537 -39
-264 -100 -466 -255 -843 -108 -263 -146 -346 -211 -455 -25 -43 -43 -88 -49
-125 -11 -69 -22 -82 -125 -150 -101 -66 -137 -85 -268 -134 -58 -22 -157 -62
-220 -90 -151 -67 -305 -117 -397 -130 -94 -13 -110 -18 -242 -75 -59 -25
-173 -64 -253 -86 -81 -23 -170 -50 -198 -61 -216 -87 -227 -88 -344 -34 -104
48 -82 28 32 -28 96 -48 201 -87 235 -87 11 0 33 9 48 20 45 32 106 39 332 40
196 0 219 -2 255 -20 119 -61 495 26 818 189 133 67 410 231 403 238 -5 5
-171 -58 -300 -114 -164 -70 -404 -154 -554 -193 -142 -37 -339 -73 -358 -66
-21 8 -17 40 9 63 37 34 75 49 232 92 236 64 530 172 710 262 135 67 390 237
494 328 54 47 107 91 117 98 16 10 13 12 -26 12 -39 1 -55 -6 -110 -46 -126
-92 -211 -123 -239 -89 -10 12 3 30 71 98 97 97 136 164 167 291 12 48 57 170
100 270 144 336 208 541 247 802 32 213 21 696 -17 742 -13 15 -19 16 -37 5z"/>
<path d="M3391 4610 c-50 -50 -101 -224 -101 -344 0 -53 4 -60 101 -207 55
-84 124 -177 152 -207 72 -75 172 -124 192 -92 3 5 -5 36 -19 67 -14 32 -30
77 -36 100 -6 24 -41 102 -78 175 -81 159 -93 202 -99 378 -3 74 -10 141 -15
148 -19 22 -65 14 -97 -18z"/>
<path d="M6755 3519 c-22 -22 -61 -52 -86 -66 -46 -25 -69 -56 -69 -93 0 -13
7 -20 20 -20 12 0 20 7 20 18 0 9 30 51 68 93 37 41 73 83 81 92 25 31 6 18
-34 -24z"/>
<path d="M4463 2295 c-8 -23 0 -24 20 -3 14 15 15 18 2 18 -9 0 -18 -7 -22
-15z"/>
</g>
</svg>
