<?xml version="1.0" standalone="no"?>
<!DOCTYPE svg PUBLIC "-//W3C//DTD SVG 20010904//EN"
 "http://www.w3.org/TR/2001/REC-SVG-20010904/DTD/svg10.dtd">
<svg version="1.0" xmlns="http://www.w3.org/2000/svg"
 width="1000.000000pt" height="1000.000000pt" viewBox="0 0 1000.000000 1000.000000"
 preserveAspectRatio="xMidYMid meet">
<metadata>
  <rdf:RDF
    xmlns:rdf = "http://www.w3.org/1999/02/22-rdf-syntax-ns#"
    xmlns:rdfs = "http://www.w3.org/2000/01/rdf-schema#"
    xmlns:dc = "http://purl.org/dc/elements/1.1/"
    xmlns:cc = "http://creativecommons.org/ns#">
    <cc:license rdf:resource="http://creativecommons.org/publicdomain/zero/1.0/deed.en"/>
    <cc:permits rdf:resource="http://creativecommons.org/ns#Reproduction"/>
    <rdf:Description about="https://nft.mir.one/fingerprints"
      dc:title="TON Fingerprints"
      dc:description="This is a unique digital fingerprint created based on the algorithm for generating basic rings using a noise texture. Like human fingerprints, you can now use it for the Web3 and Metaverse era as digital biometric information."
      dc:publisher="https://nft.mir.one"
      dc:date="2022-02-22"
      dc:format="image/svg+xml"
      dc:language="en" >
      <dc:creator>
      <rdf:Bag>
        <rdf:li>EQBondcvD2_aOFADXSWJHs4ZazQDuEl9_wNvGGPxI8hGuOFU</rdf:li>
        <rdf:li>ipfs://bafkreihj7iub3fhmhq6jn62noukt5wxn3gv6bvcg7wmt6ywvlurefezckq</rdf:li>
      </rdf:Bag>
      </dc:creator>
    </rdf:Description>
  </rdf:RDF>
</metadata>
<rect width="100%" height="100%" fill="#1b1f23"/>
<g transform="translate(0.000000,1000.000000) scale(0.100000,-0.100000)"
fill="#ffffff" stroke="none">
<path d="M4757 7771 c3 -12 9 -21 14 -21 14 0 11 16 -5 29 -12 10 -13 8 -9 -8z"/>
<path d="M5245 7758 c-67 -23 -180 -27 -351 -13 -97 7 -102 7 -113 -13 -6 -12
-31 -35 -55 -52 -25 -16 -47 -39 -51 -49 -7 -22 -46 -39 -159 -71 -68 -19 -82
-20 -104 -8 -66 35 -235 -19 -456 -145 -131 -75 -164 -98 -101 -71 149 63 460
168 523 177 39 5 42 3 42 -18 0 -36 -65 -86 -211 -160 -154 -78 -263 -144
-352 -212 -253 -194 -568 -606 -749 -978 -67 -138 -74 -165 -20 -77 37 61 86
127 212 285 67 85 324 361 435 469 111 107 328 251 680 450 188 107 192 109
332 149 135 39 192 65 285 133 40 29 115 74 166 100 50 25 92 50 92 54 0 4 13
22 29 40 28 30 29 32 8 31 -12 -1 -49 -10 -82 -21z m-308 -85 c13 -19 12 -23
-8 -42 -49 -45 -203 -77 -228 -48 -14 18 1 31 89 81 75 42 123 45 147 9z"/>
<path d="M5335 7491 c-44 -16 -145 -55 -225 -89 -80 -33 -201 -80 -270 -105
-315 -114 -538 -230 -692 -358 -23 -21 -90 -62 -147 -94 -140 -76 -167 -98
-220 -181 -33 -51 -78 -98 -158 -167 -187 -162 -316 -319 -394 -482 -55 -115
-111 -316 -107 -384 6 -97 54 -51 134 130 72 164 173 318 283 433 132 137 227
197 391 251 117 38 160 61 160 85 0 30 -34 41 -123 39 -91 -2 -127 5 -127 26
0 31 152 85 235 85 101 -1 254 -51 276 -92 16 -30 -3 -44 -88 -63 -69 -16 -82
-22 -133 -71 -36 -34 -100 -77 -171 -115 -292 -157 -432 -299 -613 -623 -37
-66 -87 -149 -113 -185 -60 -84 -87 -158 -117 -327 -14 -76 -30 -142 -35 -147
-15 -15 -40 0 -52 30 -14 35 -14 192 0 298 6 52 7 163 2 315 -4 129 -9 213
-10 185 -1 -27 -6 -79 -11 -115 -20 -139 -52 -568 -47 -625 3 -33 15 -107 26
-165 11 -58 27 -157 35 -220 44 -319 130 -513 307 -689 125 -125 344 -281 487
-345 84 -38 35 -87 -66 -67 -186 37 -505 280 -653 496 -18 28 -47 66 -64 85
-16 19 -38 46 -47 60 -26 37 -14 6 57 -152 68 -150 162 -299 248 -393 79 -87
235 -176 396 -225 100 -31 531 -90 746 -101 138 -8 217 -17 290 -35 113 -27
142 -29 217 -13 113 24 238 108 365 243 271 290 397 607 423 1065 9 162 14
192 36 245 14 34 28 73 31 87 7 38 -38 127 -101 197 -86 96 -106 127 -136 206
-40 110 -74 161 -161 248 -125 125 -274 212 -449 263 -90 26 -298 27 -390 1
-142 -39 -256 -112 -330 -210 -42 -56 -59 -98 -52 -129 6 -27 37 -16 141 48
241 151 464 174 719 75 139 -53 347 -206 402 -295 26 -42 20 -55 -24 -55 -24
0 -63 20 -142 71 -204 133 -341 186 -500 196 -117 7 -195 -7 -375 -68 -86 -29
-165 -49 -190 -49 -41 0 -48 -5 -114 -72 -115 -118 -202 -267 -247 -425 -20
-68 -23 -100 -22 -243 0 -150 3 -173 28 -254 15 -50 48 -131 74 -180 39 -76
66 -111 161 -209 134 -136 140 -145 117 -162 -42 -31 -148 25 -257 135 -61 61
-86 96 -123 171 -85 174 -132 388 -123 559 12 216 83 400 248 645 106 156 181
279 228 372 38 77 89 119 212 177 140 66 201 80 354 80 158 0 252 -21 400 -93
214 -104 368 -252 520 -501 95 -156 148 -200 186 -154 56 68 -105 356 -337
603 -213 227 -500 354 -804 354 -111 1 -134 -2 -205 -27 -44 -15 -141 -59
-215 -98 -74 -39 -191 -100 -260 -134 -192 -96 -298 -195 -440 -410 -129 -195
-221 -404 -280 -639 -53 -207 -12 -462 105 -655 62 -102 138 -161 168 -131 14
14 2 56 -46 166 -141 318 -126 620 49 980 106 219 305 472 417 530 54 29 87
29 87 1 0 -8 -43 -65 -96 -128 -404 -477 -520 -898 -369 -1338 14 -41 32 -117
40 -169 16 -107 28 -126 139 -235 207 -201 301 -235 616 -223 195 7 425 57
565 121 126 58 229 166 306 321 64 129 89 230 96 375 11 260 -75 434 -287 577
-230 155 -487 181 -717 72 -88 -42 -152 -96 -206 -175 -157 -230 -133 -520 60
-724 75 -81 135 -121 220 -149 296 -99 613 176 562 488 -22 138 -95 238 -217
298 -71 36 -82 38 -167 38 -95 -1 -136 -15 -211 -71 -68 -53 -108 -175 -85
-262 24 -88 127 -162 205 -148 46 9 92 48 106 90 28 85 -80 173 -115 94 -6
-12 -15 -23 -21 -25 -19 -6 -44 26 -44 55 1 66 57 112 138 112 122 0 213 -99
212 -231 -2 -142 -121 -253 -269 -253 -206 0 -360 200 -329 425 27 201 212
348 438 349 236 0 471 -189 519 -418 27 -129 3 -294 -61 -415 -47 -90 -164
-204 -255 -250 -102 -50 -201 -70 -321 -65 -120 5 -163 24 -264 115 -219 196
-306 360 -316 594 -4 96 -1 130 17 199 37 146 99 252 209 355 51 49 178 109
297 141 124 34 290 38 395 10 149 -40 447 -212 541 -312 97 -104 135 -247 126
-469 -14 -347 -126 -617 -342 -824 -46 -44 -102 -89 -125 -101 -40 -21 -44
-21 -83 -5 -57 23 -114 13 -275 -46 -74 -28 -167 -54 -210 -60 -140 -20 -409
8 -515 53 -32 14 -58 35 -77 62 -15 23 -48 59 -72 82 -47 44 -271 225 -328
264 -59 41 -151 132 -190 190 -89 131 -159 316 -181 475 -15 114 -8 168 34
263 19 42 51 129 70 192 41 131 95 246 190 405 182 306 296 419 587 585 186
106 281 171 350 236 31 29 69 58 85 64 49 19 210 14 330 -10 421 -85 661 -216
830 -451 33 -46 106 -144 162 -217 157 -204 203 -301 218 -462 9 -102 26 -174
75 -315 70 -206 83 -289 77 -515 -5 -211 -18 -301 -72 -515 -60 -237 -175
-522 -270 -671 -113 -177 -367 -372 -722 -554 -241 -124 -315 -141 -487 -107
-49 9 -132 17 -185 17 -121 0 -418 26 -519 45 -42 8 -99 15 -127 15 -50 0 -50
0 67 -55 130 -60 230 -94 358 -121 67 -14 123 -18 268 -16 182 2 182 2 182
-22 0 -56 -68 -79 -280 -96 -74 -6 -157 -14 -185 -18 -50 -8 -50 -8 -15 -15
19 -3 91 -14 160 -22 69 -9 151 -20 182 -26 66 -11 158 0 258 33 80 26 353
161 526 261 202 116 551 346 604 397 63 61 105 146 179 364 117 342 192 623
226 846 22 148 30 421 16 555 -24 218 -110 599 -170 748 -44 110 -71 150 -190
272 -126 129 -164 177 -191 238 -22 49 -18 77 10 77 11 0 65 -50 127 -116 132
-141 171 -166 193 -124 9 17 6 32 -13 73 -52 112 -175 225 -269 247 -58 13
-89 32 -209 120 -204 152 -327 209 -590 274 -101 25 -195 54 -209 64 -14 11
-26 31 -28 45 -3 23 1 27 33 33 20 3 106 4 193 2 269 -9 373 -53 727 -305 347
-247 435 -349 468 -543 9 -50 39 -144 71 -226 70 -176 118 -350 150 -541 82
-489 53 -856 -119 -1474 -117 -419 -138 -555 -96 -593 28 -26 73 -12 115 34
51 57 59 77 53 132 -8 61 4 127 53 298 144 502 188 753 197 1121 8 335 -20
603 -88 846 -39 138 -167 462 -231 585 -65 123 -166 247 -299 364 -204 180
-515 436 -551 455 -68 35 -147 49 -273 49 -194 0 -338 -38 -437 -113 -25 -20
-59 -42 -75 -50 -76 -40 -344 -48 -398 -13 -56 37 -30 58 150 120 72 24 183
67 247 94 188 81 348 128 598 177 182 36 208 44 335 108 112 56 180 76 335 97
47 7 89 14 94 18 14 8 -183 60 -294 77 -52 8 -147 15 -210 15 -100 -1 -125 -4
-195 -29z m-301 -3817 c9 -24 -19 -79 -55 -107 -63 -47 -177 -79 -208 -58 -30
20 4 56 96 104 48 25 97 53 108 61 26 20 51 20 59 0z"/>
<path d="M5840 7256 c-102 -23 -163 -72 -141 -114 10 -19 24 -20 303 -23 161
-2 313 -1 338 2 25 4 38 7 30 8 -8 1 -53 17 -100 37 -110 47 -188 71 -278 89
-85 17 -80 17 -152 1z"/>
<path d="M5687 7043 c-15 -15 -5 -62 21 -96 15 -20 50 -55 77 -79 102 -87 394
-359 448 -417 129 -140 196 -247 310 -501 142 -314 183 -457 208 -730 19 -198
16 -584 -4 -760 -40 -335 -146 -789 -248 -1058 -21 -56 -39 -113 -39 -127 0
-67 89 13 144 128 71 150 194 541 240 767 63 310 93 669 77 928 -6 94 -11 220
-11 279 0 186 -38 304 -195 606 -51 100 -107 217 -123 259 -17 42 -40 92 -53
110 -53 74 -228 255 -350 359 -123 106 -159 147 -159 184 0 31 29 25 143 -29
117 -56 128 -65 250 -194 119 -126 297 -242 354 -230 9 2 -50 67 -161 178 -96
96 -176 180 -176 186 0 20 25 34 80 41 53 8 53 8 -118 76 -193 77 -252 88
-322 62 -79 -30 -90 -29 -220 19 -120 44 -159 53 -173 39z"/>
<path d="M6712 6295 c-7 -15 -7 -30 2 -56 23 -67 271 -428 284 -414 2 2 -39
91 -91 198 -65 132 -110 209 -140 242 -41 46 -45 48 -55 30z"/>
<path d="M7036 5346 c-3 -14 5 -82 19 -151 14 -70 26 -136 26 -148 1 -17 2
-18 6 -5 4 16 -34 319 -41 326 -2 2 -6 -8 -10 -22z"/>
<path d="M7093 4930 c0 -30 2 -43 4 -27 2 15 2 39 0 55 -2 15 -4 2 -4 -28z"/>
<path d="M5872 4958 c-6 -8 -12 -122 -15 -283 -4 -222 -9 -288 -26 -369 -47
-225 -148 -465 -272 -647 -126 -185 -321 -348 -489 -409 -98 -36 -182 -39
-345 -11 -60 11 -168 24 -240 31 -606 53 -904 129 -1165 298 -30 20 -77 46
-103 59 -48 23 -48 23 -27 -5 118 -152 318 -324 419 -363 212 -79 521 -132
936 -159 172 -11 225 -21 245 -45 10 -13 10 -19 -4 -34 -27 -30 -94 -41 -253
-41 -318 0 -660 53 -918 142 -87 30 -197 59 -202 54 -2 -2 52 -42 119 -90 156
-112 315 -191 423 -211 145 -26 383 -45 568 -45 206 0 249 8 357 68 36 19 126
66 200 102 212 105 320 176 451 298 181 167 348 484 434 821 91 358 83 708
-19 816 -35 37 -57 43 -74 23z"/>
<path d="M7082 4795 c0 -16 2 -22 5 -12 2 9 2 23 0 30 -3 6 -5 -1 -5 -18z"/>
<path d="M7057 4630 c-9 -69 -18 -159 -21 -200 -3 -41 6 8 19 110 14 102 24
192 22 200 -2 8 -10 -41 -20 -110z"/>
<path d="M7022 4315 c0 -16 2 -22 5 -12 2 9 2 23 0 30 -3 6 -5 -1 -5 -18z"/>
<path d="M7012 4250 c0 -14 2 -19 5 -12 2 6 2 18 0 25 -3 6 -5 1 -5 -13z"/>
<path d="M6449 2990 c-9 -5 -40 -12 -68 -15 -28 -2 -74 -14 -101 -26 -55 -23
-134 -101 -154 -152 -79 -190 -79 -190 -155 -271 -135 -144 -2 -20 204 189
110 111 223 221 250 243 49 40 57 51 24 32z"/>
<path d="M5868 2835 c-42 -15 -27 -6 -268 -162 -227 -147 -307 -192 -524 -301
-148 -74 -313 -172 -289 -172 4 0 96 22 203 48 119 30 247 69 328 102 225 90
460 230 583 349 57 55 69 72 69 98 0 50 -34 63 -102 38z"/>
</g>
</svg>
