<?xml version="1.0" standalone="no"?>
<!DOCTYPE svg PUBLIC "-//W3C//DTD SVG 20010904//EN"
 "http://www.w3.org/TR/2001/REC-SVG-20010904/DTD/svg10.dtd">
<svg version="1.0" xmlns="http://www.w3.org/2000/svg"
 width="1000.000000pt" height="1000.000000pt" viewBox="0 0 1000.000000 1000.000000"
 preserveAspectRatio="xMidYMid meet">
<metadata>
  <rdf:RDF
    xmlns:rdf = "http://www.w3.org/1999/02/22-rdf-syntax-ns#"
    xmlns:rdfs = "http://www.w3.org/2000/01/rdf-schema#"
    xmlns:dc = "http://purl.org/dc/elements/1.1/"
    xmlns:cc = "http://creativecommons.org/ns#">
    <cc:license rdf:resource="http://creativecommons.org/publicdomain/zero/1.0/deed.en"/>
    <cc:permits rdf:resource="http://creativecommons.org/ns#Reproduction"/>
    <rdf:Description about="https://nft.mir.one/fingerprints"
      dc:title="TON Fingerprints"
      dc:description="This is a unique digital fingerprint created based on the algorithm for generating basic rings using a noise texture. Like human fingerprints, you can now use it for the Web3 and Metaverse era as digital biometric information."
      dc:publisher="https://nft.mir.one"
      dc:date="2022-02-22"
      dc:format="image/svg+xml"
      dc:language="en" >
      <dc:creator>
      <rdf:Bag>
        <rdf:li>EQBondcvD2_aOFADXSWJHs4ZazQDuEl9_wNvGGPxI8hGuOFU</rdf:li>
        <rdf:li>ipfs://bafkreihj7iub3fhmhq6jn62noukt5wxn3gv6bvcg7wmt6ywvlurefezckq</rdf:li>
      </rdf:Bag>
      </dc:creator>
    </rdf:Description>
  </rdf:RDF>
</metadata>
<rect width="100%" height="100%" fill="#1b1f23"/>
<g transform="translate(0.000000,1000.000000) scale(0.100000,-0.100000)"
fill="#ffffff" stroke="none">
<path d="M4600 7743 c-74 -5 -108 -23 -43 -23 22 0 65 -5 94 -10 30 -6 133
-19 229 -30 326 -37 374 -56 570 -234 36 -33 147 -126 246 -207 219 -179 284
-246 284 -294 0 -42 -16 -48 -68 -25 -56 25 -97 53 -364 252 -321 238 -409
287 -611 338 -206 52 -360 59 -597 29 -127 -16 -322 -62 -305 -71 8 -5 90 -13
182 -18 369 -22 644 -90 901 -225 109 -58 158 -90 427 -276 94 -65 215 -142
270 -171 64 -34 104 -62 111 -78 7 -14 24 -50 38 -80 15 -34 66 -101 132 -175
58 -66 143 -167 188 -225 75 -96 85 -105 122 -110 55 -8 74 -23 195 -156 125
-136 153 -187 234 -427 65 -193 115 -389 150 -587 24 -136 75 -354 81 -347 6
5 -27 437 -41 552 -22 173 -58 342 -120 570 -29 110 -59 238 -65 285 -15 112
-55 229 -133 392 -119 247 -209 360 -462 584 -82 73 -190 170 -240 214 -49 45
-171 143 -270 218 -99 75 -210 165 -247 199 -125 117 -194 134 -553 138 -148
1 -299 0 -335 -2z m1556 -959 c86 -36 207 -134 302 -244 137 -160 291 -423
294 -503 1 -20 -1 -40 -5 -43 -16 -16 -52 15 -110 94 -159 218 -455 531 -554
588 -64 37 -83 54 -83 75 0 45 84 63 156 33z"/>
<path d="M5568 7693 c7 -3 16 -2 19 1 4 3 -2 6 -13 5 -11 0 -14 -3 -6 -6z"/>
<path d="M5630 7676 c0 -2 7 -7 16 -10 8 -3 12 -2 9 4 -6 10 -25 14 -25 6z"/>
<path d="M5705 7629 c415 -353 486 -409 600 -479 115 -70 117 -71 -70 87 -207
175 -429 343 -540 408 -24 13 -22 10 10 -16z"/>
<path d="M4082 7326 c-40 -8 -105 -24 -144 -36 -73 -22 -258 -104 -258 -114 0
-3 12 -1 26 5 52 19 286 41 379 34 354 -25 623 -132 1050 -417 249 -166 343
-243 440 -363 71 -87 97 -111 215 -192 201 -137 320 -273 360 -410 14 -47 7
-93 -15 -93 -7 0 -42 40 -75 90 -75 109 -162 192 -227 216 -26 9 -73 27 -103
40 -83 34 -126 39 -155 20 -34 -22 -32 -54 8 -112 18 -27 55 -89 81 -139 27
-49 97 -161 157 -250 212 -315 294 -534 306 -815 7 -158 -10 -463 -37 -691
-13 -108 -17 -190 -14 -252 5 -67 2 -111 -10 -160 -73 -308 -448 -737 -925
-1055 -160 -107 -322 -188 -502 -251 -237 -82 -234 -80 -99 -81 185 0 387 39
534 104 72 32 254 152 381 252 358 280 542 484 670 743 83 168 120 306 151
561 21 178 30 672 15 823 -23 218 -88 452 -177 632 -46 93 -64 117 -214 300
-130 158 -171 253 -101 230 11 -3 66 -55 122 -115 61 -65 121 -119 150 -135
58 -31 83 -63 136 -170 164 -331 243 -714 243 -1179 0 -493 -79 -823 -275
-1149 -125 -209 -220 -311 -480 -518 -214 -171 -337 -262 -445 -329 -87 -55
-221 -152 -216 -157 7 -7 304 115 396 163 108 57 131 72 405 259 208 142 232
162 321 267 348 415 508 927 474 1512 -26 423 -96 757 -234 1111 -35 88 -89
241 -121 340 -31 99 -72 210 -91 246 -71 135 -435 511 -646 668 -459 340 -773
492 -1148 556 -133 22 -227 26 -308 11z"/>
<path d="M3845 7106 c-27 -8 -70 -22 -94 -30 -24 -9 -54 -16 -67 -16 -26 0
-32 -21 -11 -38 6 -5 100 -12 207 -15 160 -4 214 -10 300 -30 180 -43 234 -69
320 -157 41 -42 104 -97 140 -123 36 -25 108 -83 160 -128 111 -96 337 -249
430 -292 86 -39 172 -47 218 -18 43 28 42 60 -3 110 -35 39 -505 369 -710 498
-220 139 -326 187 -500 224 -122 26 -324 34 -390 15z"/>
<path d="M3765 6926 c-17 -12 -18 -16 -5 -31 25 -30 89 -51 340 -115 254 -64
321 -73 347 -47 15 15 14 18 -14 44 -52 48 -232 105 -456 143 -140 24 -186 25
-212 6z"/>
<path d="M3495 6845 c-38 -13 -81 -25 -95 -26 -19 -1 -21 -2 -6 -6 10 -3 39
-16 64 -29 25 -13 50 -24 57 -24 6 0 83 -29 171 -64 182 -72 368 -131 670
-210 224 -60 263 -65 288 -40 20 20 20 22 -3 61 -31 50 -123 88 -286 117 -173
31 -445 107 -543 152 -40 18 -89 47 -109 63 -48 39 -108 41 -208 6z"/>
<path d="M3420 6611 c-30 -10 -78 -30 -107 -44 -29 -15 -60 -27 -70 -28 -26
-2 40 -18 133 -34 138 -22 193 -36 380 -91 382 -112 686 -241 924 -392 69 -43
163 -101 209 -128 132 -78 223 -189 336 -411 36 -72 36 -72 21 -123 -20 -66
-11 -113 60 -334 158 -486 171 -714 59 -1056 -18 -58 -43 -142 -53 -186 -38
-151 -129 -290 -298 -454 -131 -126 -242 -207 -459 -336 -164 -97 -229 -139
-404 -260 -33 -23 -84 -50 -113 -59 -29 -9 -74 -27 -100 -40 -46 -22 -46 -22
100 -59 81 -20 185 -47 231 -61 123 -37 244 -35 361 5 230 79 447 211 700 425
182 155 474 477 551 608 80 136 112 264 71 286 -30 16 -55 -9 -136 -133 -75
-113 -113 -154 -198 -212 -24 -17 -88 -83 -140 -145 -157 -188 -349 -362 -542
-491 -50 -34 -106 -74 -124 -90 -18 -15 -43 -28 -56 -28 -13 0 -61 -18 -107
-39 -132 -62 -232 -92 -292 -89 -41 2 -53 7 -55 21 -6 29 13 43 167 124 216
114 372 204 463 270 100 71 290 252 370 352 78 98 110 164 142 296 15 61 49
178 76 260 79 239 98 366 80 522 -21 188 -138 566 -241 782 -32 68 -59 130
-59 137 0 8 11 14 27 14 45 0 106 -75 172 -213 58 -119 219 -572 242 -678 7
-32 9 -103 6 -183 -6 -155 -25 -228 -117 -445 -87 -205 -98 -271 -45 -271 36
0 58 25 145 165 45 72 92 144 104 160 71 94 101 212 120 476 11 137 21 213 35
257 64 196 -27 515 -244 858 -49 76 -128 207 -177 289 -120 202 -148 230 -194
200 -58 -38 -11 -153 186 -456 175 -267 272 -480 314 -691 18 -85 21 -184 7
-192 -16 -10 -41 6 -57 37 -9 16 -45 116 -80 221 -80 236 -150 378 -256 521
-151 203 -197 280 -293 488 -44 94 -111 166 -230 243 -148 96 -220 125 -338
134 -128 11 -160 19 -532 137 -165 53 -361 115 -435 139 -74 24 -146 43 -160
43 -14 0 -50 -8 -80 -18z"/>
<path d="M3330 6373 c-8 -3 -53 -24 -100 -45 -85 -39 -85 -39 -55 -52 17 -7
101 -23 189 -35 361 -52 695 -171 891 -319 62 -47 85 -83 66 -106 -27 -33 -42
-27 -311 117 -174 93 -461 176 -672 193 -90 8 -119 0 -221 -65 -76 -48 -76
-48 -24 -59 29 -6 117 -15 197 -21 382 -27 601 -101 779 -266 52 -47 117 -98
145 -112 191 -96 334 -244 461 -478 212 -388 269 -792 165 -1168 -23 -84 -35
-100 -56 -73 -23 32 -27 82 -15 206 14 148 14 241 0 355 -55 447 -343 872
-629 925 -43 8 -112 5 -325 -15 -321 -31 -420 -46 -539 -80 -177 -51 -221 -83
-279 -198 -24 -47 -84 -284 -74 -294 2 -2 24 25 48 59 152 217 362 316 737
348 288 25 472 -29 630 -183 79 -77 130 -151 187 -270 83 -173 115 -327 115
-555 0 -235 -29 -396 -81 -447 -20 -20 -20 -20 -40 4 -23 28 -23 49 -4 206 17
145 19 250 4 370 -45 370 -250 640 -549 721 -98 27 -326 25 -443 -4 -153 -38
-278 -105 -372 -199 -94 -95 -130 -227 -130 -478 1 -221 31 -350 127 -538 64
-124 117 -195 218 -290 90 -85 123 -101 310 -149 138 -35 314 -48 412 -28 120
23 243 92 378 211 36 31 94 70 130 86 81 37 120 70 170 143 31 46 46 59 73 64
71 13 131 111 168 277 29 124 31 348 5 494 -42 234 -126 468 -272 755 -51 102
-115 232 -142 290 -71 154 -153 280 -222 343 -105 94 -346 205 -628 288 -209
61 -376 89 -422 72z m611 -1515 c251 -93 405 -308 439 -616 18 -168 -17 -404
-78 -515 -33 -61 -116 -138 -185 -171 -124 -61 -259 -53 -296 17 -12 23 -18
25 -65 20 -61 -5 -189 17 -267 46 -257 97 -422 352 -406 626 17 276 189 510
433 589 90 29 137 35 249 32 86 -3 125 -9 176 -28z"/>
<path d="M3602 4734 c-93 -25 -164 -66 -233 -134 -170 -168 -199 -428 -71
-626 47 -72 95 -114 181 -156 54 -27 75 -32 140 -33 98 0 168 31 247 109 72
72 107 148 112 241 5 87 -9 139 -51 201 -82 118 -245 142 -345 50 -43 -38 -56
-79 -53 -158 1 -35 53 -94 88 -101 30 -6 73 8 85 26 14 22 8 56 -12 67 -27 14
-25 36 5 56 31 20 68 12 101 -23 66 -71 26 -201 -79 -254 -57 -30 -149 -23
-205 14 -83 54 -121 130 -122 242 0 90 36 171 104 233 75 69 124 87 236 87 85
0 101 -3 153 -29 64 -33 144 -112 176 -174 50 -98 64 -228 36 -335 -26 -100
-62 -156 -171 -267 -75 -76 -105 -115 -110 -138 -7 -33 -7 -33 47 -26 197 26
337 164 385 382 22 101 15 292 -15 375 -69 196 -201 326 -376 372 -73 19 -182
18 -253 -1z"/>
<path d="M6344 6054 c-12 -48 4 -103 87 -296 189 -442 257 -694 323 -1188 43
-324 44 -496 1 -746 -31 -181 -146 -525 -244 -731 -28 -57 -48 -103 -46 -103
2 0 36 56 75 124 245 430 380 875 380 1257 0 159 -15 301 -56 519 -87 463
-190 756 -358 1015 -112 173 -148 206 -162 149z"/>
<path d="M3137 5831 c-26 -17 -77 -58 -113 -92 -66 -61 -66 -61 8 -56 40 2
133 10 206 17 306 29 784 -54 635 -111 -18 -6 -103 -8 -243 -4 -230 7 -452
-10 -508 -39 -32 -17 -116 -104 -161 -166 -32 -45 -32 -45 -2 -48 17 -2 63 9
103 23 158 57 285 79 573 99 147 11 230 21 276 35 70 22 109 51 109 81 0 25
-91 134 -140 166 -93 62 -319 111 -555 120 -140 6 -140 6 -188 -25z"/>
<path d="M4795 5727 c-30 -23 -14 -83 68 -255 80 -169 133 -309 197 -520 97
-325 119 -557 74 -787 -17 -84 -79 -266 -114 -335 -30 -58 -202 -233 -322
-327 -273 -213 -465 -315 -621 -326 -106 -7 -386 41 -567 98 -58 18 -123 36
-145 39 -40 7 -40 7 -5 -24 172 -150 306 -222 454 -244 71 -10 104 -20 119
-34 53 -53 -47 -80 -308 -82 -50 -1 -50 -1 53 -45 109 -47 212 -71 267 -62 19
3 67 28 107 55 40 27 132 79 203 117 426 224 638 388 866 673 112 138 124 172
64 172 -45 0 -46 18 -1 79 50 69 65 104 92 210 59 233 39 472 -73 846 -25 83
-62 218 -84 300 -56 214 -124 347 -220 429 -45 38 -74 44 -104 23z"/>
<path d="M4740 2774 c0 -8 5 -12 10 -9 6 3 10 10 10 16 0 5 -4 9 -10 9 -5 0
-10 -7 -10 -16z"/>
<path d="M5954 2531 c-21 -16 -57 -48 -79 -72 -37 -39 -35 -38 25 12 36 31 76
63 90 72 13 9 20 17 14 17 -6 0 -29 -13 -50 -29z"/>
</g>
</svg>
