<?xml version="1.0" standalone="no"?>
<!DOCTYPE svg PUBLIC "-//W3C//DTD SVG 20010904//EN"
 "http://www.w3.org/TR/2001/REC-SVG-20010904/DTD/svg10.dtd">
<svg version="1.0" xmlns="http://www.w3.org/2000/svg"
 width="1000.000000pt" height="1000.000000pt" viewBox="0 0 1000.000000 1000.000000"
 preserveAspectRatio="xMidYMid meet">
<metadata>
  <rdf:RDF
    xmlns:rdf = "http://www.w3.org/1999/02/22-rdf-syntax-ns#"
    xmlns:rdfs = "http://www.w3.org/2000/01/rdf-schema#"
    xmlns:dc = "http://purl.org/dc/elements/1.1/"
    xmlns:cc = "http://creativecommons.org/ns#">
    <cc:license rdf:resource="http://creativecommons.org/publicdomain/zero/1.0/deed.en"/>
    <cc:permits rdf:resource="http://creativecommons.org/ns#Reproduction"/>
    <rdf:Description about="https://nft.mir.one/fingerprints"
      dc:title="TON Fingerprints"
      dc:description="This is a unique digital fingerprint created based on the algorithm for generating basic rings using a noise texture. Like human fingerprints, you can now use it for the Web3 and Metaverse era as digital biometric information."
      dc:publisher="https://nft.mir.one"
      dc:date="2022-02-22"
      dc:format="image/svg+xml"
      dc:language="en" >
      <dc:creator>
      <rdf:Bag>
        <rdf:li>EQBondcvD2_aOFADXSWJHs4ZazQDuEl9_wNvGGPxI8hGuOFU</rdf:li>
        <rdf:li>ipfs://bafkreihj7iub3fhmhq6jn62noukt5wxn3gv6bvcg7wmt6ywvlurefezckq</rdf:li>
      </rdf:Bag>
      </dc:creator>
    </rdf:Description>
  </rdf:RDF>
</metadata>
<rect width="100%" height="100%" fill="#1b1f23"/>
<g transform="translate(0.000000,1000.000000) scale(0.100000,-0.100000)"
fill="#ffffff" stroke="none">
<path d="M4850 7724 c-58 -8 -171 -30 -251 -49 -156 -37 -203 -42 -244 -23
-23 10 -37 6 -128 -40 -56 -28 -111 -58 -122 -66 -11 -9 22 4 74 29 104 50
125 53 161 28 36 -26 163 -22 333 11 273 52 362 59 685 60 327 1 329 2 82 42
-138 22 -460 27 -590 8z"/>
<path d="M4965 7529 c-113 -11 -490 -74 -570 -94 -87 -23 -191 -75 -308 -154
-469 -321 -804 -714 -995 -1171 -56 -135 -60 -158 -10 -65 124 230 346 498
544 656 157 124 431 287 563 334 37 13 40 12 61 -10 12 -13 43 -29 69 -35 51
-12 101 -6 386 45 77 13 213 30 302 37 370 27 751 -43 1133 -210 63 -27 189
-82 280 -122 91 -40 189 -81 219 -91 30 -11 61 -24 70 -31 9 -6 -20 25 -64 71
-44 45 -116 106 -160 136 -44 30 -116 79 -160 110 -255 180 -649 291 -1071
302 -221 6 -361 -4 -569 -42 -160 -30 -290 -67 -372 -105 -34 -17 -67 -30 -72
-30 -6 0 -11 17 -11 37 0 31 8 44 49 84 82 79 255 131 581 175 188 26 522 24
705 -4 183 -29 378 -81 534 -144 69 -27 153 -60 187 -73 33 -12 76 -30 95 -39
34 -17 34 -17 9 4 -73 60 -331 225 -416 265 -121 58 -296 117 -429 145 -116
25 -427 35 -580 19z"/>
<path d="M4910 6929 c-139 -17 -704 -131 -800 -161 -211 -66 -401 -184 -573
-354 -208 -206 -333 -416 -398 -671 -22 -87 -23 -94 -7 -110 38 -38 86 13 190
202 98 179 174 282 297 406 167 167 327 268 427 269 45 0 79 -26 69 -52 -3 -8
-67 -59 -142 -114 -260 -190 -337 -264 -447 -428 -86 -130 -233 -396 -255
-464 -32 -94 -44 -242 -31 -380 24 -263 74 -382 262 -634 51 -68 137 -184 190
-258 178 -247 318 -391 494 -506 133 -87 215 -114 244 -79 20 24 -8 55 -134
148 -206 154 -306 262 -463 500 -93 142 -204 347 -224 414 -10 37 -10 46 3 60
34 39 41 71 49 222 4 89 15 178 23 207 18 56 58 104 88 104 19 0 19 -4 11 -62
-4 -35 -8 -160 -8 -278 0 -197 2 -221 24 -290 27 -86 76 -188 173 -354 122
-210 176 -275 348 -414 58 -48 137 -116 176 -153 39 -36 97 -78 128 -93 126
-60 352 -88 535 -67 235 28 393 98 646 288 219 164 300 244 350 345 45 93 53
150 31 245 -8 38 -20 143 -26 234 -6 90 -15 193 -21 229 -27 179 -80 259 -134
200 -27 -30 -30 -128 -7 -260 51 -288 33 -482 -59 -636 -43 -73 -162 -192
-265 -266 -225 -161 -438 -227 -693 -215 -184 9 -313 55 -486 175 -222 153
-364 312 -338 378 9 23 40 16 61 -13 27 -38 166 -156 260 -221 256 -178 516
-232 787 -162 291 74 557 306 620 540 18 67 30 249 21 313 -17 109 -67 109
-119 -1 -30 -62 -32 -74 -29 -159 2 -70 -2 -103 -16 -141 -70 -185 -304 -361
-547 -413 -96 -20 -266 -16 -365 10 -115 30 -262 103 -395 196 -133 94 -189
125 -226 125 -15 0 -41 11 -58 26 -43 36 -118 152 -156 242 -46 111 -63 185
-85 380 -21 182 -35 230 -77 274 -25 26 -26 28 -14 89 20 101 67 223 161 419
75 155 92 199 103 270 9 54 29 117 55 175 42 94 56 138 67 218 5 39 14 56 47
87 83 81 368 194 611 242 144 28 401 30 552 5 240 -42 497 -130 754 -262 289
-148 447 -302 663 -643 100 -158 110 -169 159 -174 21 -2 39 -3 39 -1 0 1 -9
17 -20 35 -10 18 -46 97 -79 176 -88 208 -195 394 -300 520 -67 80 -160 142
-366 242 -282 137 -518 219 -755 262 -131 23 -471 33 -600 17z m-940 -861 c0
-13 -43 -88 -96 -168 -142 -215 -279 -506 -326 -691 -27 -110 -22 -319 10
-419 25 -77 18 -91 -32 -67 -77 36 -120 165 -120 362 -1 216 44 362 194 632
130 232 257 373 337 373 28 0 33 -4 33 -22z"/>
<path d="M4920 6624 c-93 -19 -169 -48 -300 -114 -137 -69 -190 -106 -230
-162 -39 -53 -41 -101 -4 -125 25 -16 29 -15 97 6 40 12 107 29 150 39 76 16
79 16 165 -6 48 -12 151 -31 229 -42 171 -24 293 -58 388 -108 60 -31 101 -68
280 -250 116 -118 236 -248 268 -290 59 -78 220 -392 257 -502 26 -78 39 -194
48 -427 7 -187 9 -205 29 -224 17 -17 24 -19 41 -10 11 6 23 23 26 38 11 52
36 346 36 424 0 280 -83 615 -193 780 -42 62 -58 77 -186 169 -36 25 -103 92
-158 157 -222 263 -471 375 -863 389 -183 7 -192 8 -188 37 4 32 78 65 178 78
100 14 266 0 400 -32 176 -43 396 -146 527 -248 50 -39 53 -43 53 -87 0 -60
23 -107 85 -171 56 -58 96 -69 115 -33 21 40 -37 128 -140 214 -33 27 -34 29
-15 42 55 40 169 -20 245 -130 34 -50 171 -368 199 -462 72 -240 81 -677 20
-954 -39 -175 -37 -199 16 -186 33 8 79 80 106 166 26 85 43 196 75 490 32
301 30 491 -6 605 -68 213 -248 464 -414 578 -73 49 -339 178 -499 241 -132
52 -303 99 -420 115 -107 15 -338 12 -417 -5z"/>
<path d="M4655 6104 c-83 -14 -248 -55 -275 -69 -81 -42 -162 -148 -259 -339
-112 -219 -133 -327 -107 -556 32 -288 73 -437 158 -568 50 -77 113 -135 255
-235 268 -187 479 -256 694 -227 162 22 313 96 427 209 95 93 170 227 144 253
-21 21 -65 -5 -184 -113 -139 -125 -233 -179 -358 -205 -193 -41 -414 22 -618
176 -208 156 -309 338 -343 615 -43 347 109 679 369 810 107 53 191 68 372 69
148 0 180 -3 316 -32 116 -25 158 -30 178 -22 36 13 34 49 -6 87 -62 58 -158
94 -328 124 -111 19 -373 33 -435 23z"/>
<path d="M3001 5844 c0 -11 3 -14 6 -6 3 7 2 16 -1 19 -3 4 -6 -2 -5 -13z"/>
<path d="M2987 5580 c-12 -340 13 -708 63 -946 89 -427 117 -531 175 -649 63
-130 148 -241 309 -401 152 -152 293 -263 464 -364 242 -143 275 -166 339
-235 36 -38 73 -75 83 -82 10 -7 53 -18 96 -24 48 -7 94 -20 120 -35 62 -37
113 -32 324 31 102 30 214 67 250 81 161 63 235 152 150 179 -10 3 -87 -9
-172 -26 -223 -47 -400 -43 -668 16 -70 16 -315 132 -465 220 -260 153 -497
376 -660 620 -107 160 -153 274 -127 314 19 28 50 -3 144 -142 206 -307 385
-494 615 -644 313 -204 743 -307 1098 -263 44 5 143 14 220 18 127 8 145 12
200 40 135 68 328 228 443 364 97 115 125 180 87 194 -30 12 -84 -19 -195
-112 -310 -260 -458 -322 -815 -340 -139 -7 -248 4 -455 46 -80 16 -183 36
-229 44 -142 25 -288 108 -458 258 -110 97 -202 202 -339 385 -62 83 -137 173
-165 200 -119 110 -139 134 -177 215 -105 222 -149 449 -159 828 -5 178 -8
210 -25 244 -11 22 -26 46 -34 53 -13 13 -21 45 -27 108 -1 17 -6 -71 -10
-195z m1773 -2625 c0 -21 -44 -47 -81 -49 -39 -1 -47 16 -20 43 26 26 101 30
101 6z"/>
<path d="M4904 5780 c-353 -39 -574 -293 -574 -659 1 -224 69 -397 215 -546
137 -139 291 -214 456 -223 173 -8 262 28 412 167 54 50 121 110 149 133 81
69 237 253 254 300 27 78 64 232 64 268 0 52 -26 134 -68 214 -44 84 -168 218
-245 264 -48 29 -70 35 -178 47 -68 8 -155 19 -194 24 -112 16 -215 19 -291
11z m371 -210 c106 -34 163 -67 225 -129 139 -139 164 -321 69 -510 -46 -93
-138 -196 -205 -233 -86 -46 -397 -73 -420 -36 -12 20 22 36 119 57 163 34
250 83 310 174 175 264 -19 565 -350 544 -110 -6 -190 -44 -262 -123 -54 -59
-91 -150 -91 -223 0 -48 25 -133 48 -160 19 -23 141 -51 221 -51 78 0 141 51
141 114 0 50 -69 64 -80 16 -12 -50 -85 -29 -110 30 -24 58 9 133 73 167 40
20 123 21 162 0 39 -20 81 -65 94 -100 16 -43 13 -107 -8 -152 -58 -125 -256
-199 -389 -146 -66 26 -89 26 -97 1 -8 -27 18 -73 62 -109 177 -142 192 -150
283 -150 30 -1 82 6 115 14 80 19 95 19 95 -3 0 -76 -225 -122 -361 -74 -138
48 -270 166 -333 294 -173 353 -39 706 306 803 80 23 291 14 383 -15z"/>
<path d="M6879 5548 c-7 -12 -16 -79 -20 -148 -6 -95 -15 -148 -38 -224 -20
-63 -40 -166 -56 -290 -38 -282 -79 -420 -151 -505 -15 -18 -60 -55 -101 -83
-95 -63 -140 -110 -211 -217 -84 -128 -132 -226 -132 -270 0 -134 -120 -299
-415 -568 -88 -80 -190 -178 -228 -218 -112 -122 -208 -180 -406 -249 -165
-57 -285 -84 -474 -106 -112 -12 -227 -32 -313 -55 -75 -19 -189 -40 -252 -47
-117 -12 -117 -12 -29 -40 205 -65 435 -77 668 -33 363 68 619 156 811 280
110 71 162 119 235 214 69 88 114 141 213 246 171 182 247 295 364 537 134
281 212 398 264 398 18 0 22 -6 22 -35 0 -44 -29 -121 -120 -315 -151 -323
-256 -479 -493 -728 -126 -133 -153 -187 -107 -212 76 -41 355 221 543 510
111 172 235 432 278 585 11 39 24 115 30 170 5 55 27 163 48 240 49 176 66
283 86 514 16 186 31 251 59 251 33 0 39 -40 39 -250 0 -113 -6 -245 -12 -295
-18 -145 -110 -592 -143 -693 -107 -337 -302 -670 -532 -911 -138 -143 -237
-204 -369 -227 -45 -8 -107 -27 -137 -42 -385 -196 -449 -223 -673 -288 -66
-19 -208 -53 -315 -74 -111 -23 -220 -52 -254 -67 -32 -14 -57 -27 -56 -28 10
-8 444 17 533 30 155 23 352 76 491 130 138 54 493 233 586 296 73 49 250 223
331 325 206 262 380 610 476 954 76 273 111 515 118 800 5 230 5 239 -26 420
-18 102 -36 201 -41 220 -31 122 -30 120 -55 120 -15 0 -29 -9 -36 -22z"/>
<path d="M3050 3995 c0 -18 133 -277 184 -358 119 -189 273 -362 460 -515 108
-89 205 -141 361 -195 128 -45 155 -57 155 -73 0 -8 -12 -16 -27 -20 -16 -3
-35 -8 -44 -10 -27 -7 -145 14 -264 47 -162 46 -179 54 -194 94 -15 42 -98
118 -166 152 -27 14 -63 35 -80 46 -51 35 -12 -5 96 -100 55 -48 102 -97 105
-110 4 -13 12 -23 20 -23 22 0 16 -37 -8 -54 -22 -16 -22 -16 5 -16 16 0 83
-24 150 -54 224 -99 316 -117 403 -77 44 20 84 63 84 92 0 32 -50 117 -86 148
-20 16 -80 53 -133 82 -232 127 -364 219 -550 383 -151 133 -270 274 -412 486
-56 83 -59 87 -59 75z"/>
</g>
</svg>
