<?xml version="1.0" standalone="no"?>
<!DOCTYPE svg PUBLIC "-//W3C//DTD SVG 20010904//EN"
 "http://www.w3.org/TR/2001/REC-SVG-20010904/DTD/svg10.dtd">
<svg version="1.0" xmlns="http://www.w3.org/2000/svg"
 width="1000.000000pt" height="1000.000000pt" viewBox="0 0 1000.000000 1000.000000"
 preserveAspectRatio="xMidYMid meet">
<metadata>
  <rdf:RDF
    xmlns:rdf = "http://www.w3.org/1999/02/22-rdf-syntax-ns#"
    xmlns:rdfs = "http://www.w3.org/2000/01/rdf-schema#"
    xmlns:dc = "http://purl.org/dc/elements/1.1/"
    xmlns:cc = "http://creativecommons.org/ns#">
    <cc:license rdf:resource="http://creativecommons.org/publicdomain/zero/1.0/deed.en"/>
    <cc:permits rdf:resource="http://creativecommons.org/ns#Reproduction"/>
    <rdf:Description about="https://nft.mir.one/fingerprints"
      dc:title="TON Fingerprints"
      dc:description="This is a unique digital fingerprint created based on the algorithm for generating basic rings using a noise texture. Like human fingerprints, you can now use it for the Web3 and Metaverse era as digital biometric information."
      dc:publisher="https://nft.mir.one"
      dc:date="2022-02-22"
      dc:format="image/svg+xml"
      dc:language="en" >
      <dc:creator>
      <rdf:Bag>
        <rdf:li>EQBondcvD2_aOFADXSWJHs4ZazQDuEl9_wNvGGPxI8hGuOFU</rdf:li>
        <rdf:li>ipfs://bafkreihj7iub3fhmhq6jn62noukt5wxn3gv6bvcg7wmt6ywvlurefezckq</rdf:li>
      </rdf:Bag>
      </dc:creator>
    </rdf:Description>
  </rdf:RDF>
</metadata>
<rect width="100%" height="100%" fill="#1b1f23"/>
<g transform="translate(0.000000,1000.000000) scale(0.100000,-0.100000)"
fill="#ffffff" stroke="none">
<path d="M4752 7740 c-117 -12 -254 -35 -352 -60 -75 -19 -75 -19 10 -13 47 3
216 7 375 7 315 1 359 -3 680 -60 152 -27 212 -34 254 -29 82 10 107 24 46 24
-28 1 -106 16 -175 35 -69 19 -154 41 -190 49 -189 44 -468 64 -648 47z"/>
<path d="M4646 7530 c-344 -40 -648 -171 -1006 -433 -120 -89 -120 -88 -74
-72 22 8 47 14 58 15 10 0 68 22 130 49 424 188 703 260 1061 277 293 14 727
-49 987 -142 248 -89 483 -260 620 -451 174 -242 317 -629 370 -1003 21 -150
17 -785 -5 -914 -40 -229 -140 -425 -329 -651 -98 -117 -146 -161 -243 -228
-47 -32 -102 -80 -133 -118 -109 -133 -134 -159 -177 -186 -25 -16 -44 -35
-42 -43 4 -26 88 -59 181 -71 188 -24 259 8 471 211 55 53 155 137 221 187
130 98 132 100 259 320 53 92 53 92 12 65 -23 -14 -73 -55 -112 -91 -38 -35
-115 -100 -170 -145 -55 -44 -164 -136 -243 -203 -161 -139 -230 -187 -296
-205 -52 -14 -72 -4 -62 30 4 11 68 68 144 128 168 132 487 448 558 554 95
140 121 247 130 530 18 551 -53 1008 -223 1435 -159 401 -324 632 -598 836
-231 173 -436 243 -890 304 -142 19 -487 28 -599 15z"/>
<path d="M4780 7224 c-329 -30 -629 -120 -910 -271 -168 -91 -267 -166 -339
-257 -69 -87 -84 -121 -77 -168 4 -23 0 -66 -10 -108 -14 -56 -15 -75 -6 -95
26 -56 11 -110 -83 -315 -231 -503 -302 -887 -261 -1410 10 -121 14 -239 10
-290 -6 -73 -3 -98 20 -182 96 -354 332 -754 611 -1034 181 -183 377 -316 705
-480 371 -186 503 -219 860 -219 219 1 227 1 310 28 78 26 584 266 576 274 -7
7 -177 -38 -286 -77 -256 -90 -282 -95 -505 -94 -217 0 -332 15 -480 61 -96
30 -112 38 -240 118 -55 34 -155 90 -223 124 -322 161 -496 292 -638 481 -27
36 -93 114 -147 173 -167 184 -273 341 -344 509 -58 140 -72 217 -84 488 -29
630 27 977 242 1487 38 92 97 236 130 318 78 192 107 242 195 335 440 461
1349 575 1973 249 191 -100 366 -255 479 -424 153 -229 252 -523 238 -705 -3
-41 -10 -208 -15 -370 -13 -421 -28 -497 -184 -906 -36 -94 -84 -210 -107
-257 -45 -92 -49 -130 -13 -135 77 -11 318 362 408 633 58 173 85 396 85 709
0 437 -45 670 -186 966 -228 478 -599 732 -1197 821 -127 18 -413 32 -507 23z"/>
<path d="M4806 6910 c-450 -52 -779 -246 -981 -577 -33 -54 -85 -133 -117
-176 -71 -96 -114 -185 -173 -359 -126 -365 -177 -663 -177 -1033 0 -440 56
-678 216 -919 55 -82 135 -169 191 -207 57 -38 101 -50 215 -59 120 -9 134
-13 345 -95 223 -87 348 -103 507 -65 46 10 171 31 278 45 302 40 531 93 683
157 44 19 47 23 47 57 1 50 25 98 119 230 57 80 86 131 97 170 8 31 30 99 49
151 19 52 37 107 41 122 8 36 -4 68 -26 68 -28 0 -70 -55 -150 -194 -154 -271
-284 -409 -455 -487 -194 -88 -584 -149 -820 -128 -193 17 -396 102 -509 213
-69 69 -206 267 -266 387 -124 246 -154 452 -80 559 15 22 18 60 23 280 6 281
15 345 83 577 35 122 36 127 25 198 -15 89 0 259 30 349 48 143 185 309 331
400 461 286 1149 214 1560 -163 136 -125 239 -286 334 -519 75 -183 86 -202
119 -202 77 0 44 218 -66 449 -203 426 -564 686 -1056 760 -104 16 -324 21
-417 11z m-970 -865 c8 -32 -9 -147 -42 -290 -93 -401 -112 -522 -134 -820
-33 -461 13 -675 209 -972 100 -152 117 -197 87 -222 -47 -39 -212 132 -305
317 -41 81 -88 224 -107 320 -50 260 -33 685 42 1050 48 235 156 581 195 629
19 22 48 15 55 -12z"/>
<path d="M4773 6595 c-200 -36 -393 -135 -486 -248 -67 -82 -178 -299 -217
-423 -25 -83 -19 -114 22 -114 24 0 46 17 116 86 48 48 103 97 122 110 38 25
296 111 429 143 408 97 851 -79 998 -397 49 -104 -1 -114 -80 -14 -117 146
-248 233 -434 288 -297 86 -682 -5 -945 -225 -119 -100 -160 -147 -202 -231
-61 -122 -71 -175 -70 -370 1 -220 16 -278 119 -485 94 -190 161 -291 250
-380 88 -89 166 -141 276 -182 203 -76 428 -67 634 26 191 87 395 294 505 511
82 164 102 269 103 530 1 169 -2 207 -21 283 -14 56 -22 119 -22 171 0 107
-19 168 -80 259 -120 179 -322 311 -563 367 -235 54 -453 28 -714 -86 -119
-51 -143 -55 -143 -20 0 82 210 201 425 241 132 25 355 17 487 -18 108 -29
237 -85 325 -144 145 -95 289 -269 354 -424 40 -98 114 -355 129 -451 20 -124
8 -380 -23 -498 -45 -173 -90 -252 -271 -478 -191 -238 -345 -358 -542 -422
-121 -39 -195 -50 -335 -50 -307 0 -556 141 -735 416 -30 45 -81 138 -114 207
-68 140 -106 190 -142 185 -69 -10 1 -294 123 -502 167 -284 369 -433 652
-482 168 -30 419 -8 611 53 224 70 346 169 552 443 116 155 129 168 204 207
51 26 58 34 97 113 110 220 165 517 143 769 -12 134 -26 181 -83 275 -25 41
-71 132 -102 203 -89 205 -170 329 -290 447 -158 156 -386 270 -620 310 -109
19 -340 20 -442 1z m405 -691 c140 -28 302 -109 400 -200 41 -37 54 -55 49
-68 -9 -23 -27 -17 -158 49 -203 104 -366 141 -533 123 -108 -11 -174 -41
-302 -134 -197 -143 -278 -234 -351 -390 -25 -55 -39 -74 -53 -74 -53 0 -53
133 0 241 100 205 381 409 631 458 73 14 235 12 317 -5z m-20 -230 c120 -24
469 -168 515 -211 37 -36 57 -74 57 -113 0 -51 -30 -45 -136 26 -98 65 -257
141 -374 179 -75 25 -104 28 -245 32 -88 2 -170 6 -182 9 -53 11 -9 57 75 80
66 18 199 17 290 -2z m-122 -205 c163 -22 320 -94 474 -216 130 -103 163 -163
162 -300 -1 -147 -69 -296 -195 -429 -92 -97 -187 -161 -302 -200 -71 -25 -94
-28 -210 -28 -116 -1 -138 2 -203 26 -108 39 -178 84 -262 169 -114 115 -195
271 -221 427 -21 127 -12 150 111 298 137 165 198 218 288 250 46 16 250 18
358 3z"/>
<path d="M4765 5353 c-123 -44 -209 -123 -271 -248 -82 -166 -42 -346 111
-501 151 -153 358 -200 555 -125 213 81 371 322 332 507 -17 81 -50 140 -113
203 -68 68 -143 114 -241 148 -98 35 -295 43 -373 16z m250 -128 c215 -56 320
-198 271 -367 -52 -179 -267 -272 -445 -193 -210 95 -259 359 -94 505 75 66
159 83 268 55z"/>
<path d="M4864 5121 c-38 -23 -74 -94 -74 -144 0 -75 47 -140 124 -172 101
-42 226 34 226 138 0 114 -127 165 -142 57 -4 -36 -44 -40 -59 -6 -9 19 -9 36
1 70 7 25 10 52 7 61 -9 21 -46 19 -83 -4z"/>
<path d="M3307 6508 c-29 -29 -74 -83 -102 -118 -50 -65 -50 -65 0 -30 67 47
188 167 183 182 -9 27 -32 17 -81 -34z"/>
<path d="M3309 6301 c-51 -53 -165 -271 -220 -421 -63 -172 -124 -447 -150
-670 -31 -276 3 -762 63 -873 18 -34 17 -12 -2 63 -89 351 -56 831 85 1251 46
137 105 267 208 462 93 177 114 237 81 237 -10 0 -39 -22 -65 -49z"/>
<path d="M6849 3933 c-131 -90 -295 -244 -310 -293 -16 -49 -23 -56 -116 -116
-95 -61 -112 -84 -89 -119 20 -30 47 -39 102 -30 59 8 230 123 333 223 76 73
76 73 -23 23 -54 -28 -111 -51 -127 -51 -40 0 -51 29 -18 48 49 30 234 228
258 276 12 26 21 49 19 51 -2 3 -15 -3 -29 -12z"/>
<path d="M3980 3412 c-18 -15 -22 -24 -16 -46 10 -39 95 -122 191 -185 103
-68 333 -182 436 -216 78 -26 91 -27 362 -32 469 -9 569 -4 794 43 177 36 305
80 350 119 32 28 36 36 27 52 -18 29 -77 27 -306 -11 -318 -52 -393 -60 -623
-59 -230 0 -318 12 -424 60 -31 14 -126 49 -212 78 -86 30 -223 85 -305 123
-136 64 -210 92 -240 92 -7 0 -22 -8 -34 -18z"/>
<path d="M5775 3423 c-22 -2 -125 -17 -230 -33 -234 -35 -250 -37 -460 -55
-181 -15 -230 -26 -245 -55 -13 -25 13 -57 58 -70 111 -31 396 -21 746 27 144
20 231 26 356 25 101 0 170 4 177 10 21 17 15 63 -11 87 -13 12 -45 29 -71 37
-42 12 -244 37 -270 32 -5 -1 -28 -3 -50 -5z"/>
<path d="M6638 3325 c-48 -25 -91 -70 -85 -89 6 -19 37 -19 37 0 0 10 23 40
51 66 28 26 50 48 48 48 -2 -1 -25 -12 -51 -25z"/>
<path d="M6433 3176 c-87 -28 -125 -50 -217 -125 -39 -32 -93 -70 -121 -84
-112 -55 -301 -111 -490 -143 -133 -23 -437 -23 -589 0 -130 19 -198 20 -214
4 -51 -51 55 -113 263 -155 69 -13 137 -18 295 -17 188 0 215 2 320 27 292 69
461 149 706 333 67 51 136 100 153 109 32 16 32 16 9 45 -13 16 -27 29 -33 29
-5 -1 -42 -11 -82 -23z"/>
<path d="M3471 3086 c355 -439 844 -741 1354 -837 83 -16 161 -22 315 -24 113
-2 187 -1 165 1 -210 22 -452 68 -595 115 -433 142 -887 415 -1199 722 -104
102 -104 102 -40 23z"/>
</g>
</svg>
