<?xml version="1.0" standalone="no"?>
<!DOCTYPE svg PUBLIC "-//W3C//DTD SVG 20010904//EN"
 "http://www.w3.org/TR/2001/REC-SVG-20010904/DTD/svg10.dtd">
<svg version="1.0" xmlns="http://www.w3.org/2000/svg"
 width="1000.000000pt" height="1000.000000pt" viewBox="0 0 1000.000000 1000.000000"
 preserveAspectRatio="xMidYMid meet">
<metadata>
  <rdf:RDF
    xmlns:rdf = "http://www.w3.org/1999/02/22-rdf-syntax-ns#"
    xmlns:rdfs = "http://www.w3.org/2000/01/rdf-schema#"
    xmlns:dc = "http://purl.org/dc/elements/1.1/"
    xmlns:cc = "http://creativecommons.org/ns#">
    <cc:license rdf:resource="http://creativecommons.org/publicdomain/zero/1.0/deed.en"/>
    <cc:permits rdf:resource="http://creativecommons.org/ns#Reproduction"/>
    <rdf:Description about="https://nft.mir.one/fingerprints"
      dc:title="TON Fingerprints"
      dc:description="This is a unique digital fingerprint created based on the algorithm for generating basic rings using a noise texture. Like human fingerprints, you can now use it for the Web3 and Metaverse era as digital biometric information."
      dc:publisher="https://nft.mir.one"
      dc:date="2022-02-22"
      dc:format="image/svg+xml"
      dc:language="en" >
      <dc:creator>
      <rdf:Bag>
        <rdf:li>EQBondcvD2_aOFADXSWJHs4ZazQDuEl9_wNvGGPxI8hGuOFU</rdf:li>
        <rdf:li>ipfs://bafkreihj7iub3fhmhq6jn62noukt5wxn3gv6bvcg7wmt6ywvlurefezckq</rdf:li>
      </rdf:Bag>
      </dc:creator>
    </rdf:Description>
  </rdf:RDF>
</metadata>
<rect width="100%" height="100%" fill="#1b1f23"/>
<g transform="translate(0.000000,1000.000000) scale(0.100000,-0.100000)"
fill="#ffffff" stroke="none">
<path d="M4988 7813 c7 -3 16 -2 19 1 4 3 -2 6 -13 5 -11 0 -14 -3 -6 -6z"/>
<path d="M4795 7790 c-126 -20 -277 -51 -272 -56 4 -4 413 63 432 71 24 9 -59
1 -160 -15z"/>
<path d="M4488 7723 c7 -3 16 -2 19 1 4 3 -2 6 -13 5 -11 0 -14 -3 -6 -6z"/>
<path d="M4448 7713 c7 -3 16 -2 19 1 4 3 -2 6 -13 5 -11 0 -14 -3 -6 -6z"/>
<path d="M5279 7646 c-2 -2 -76 -9 -164 -15 -398 -28 -615 -81 -854 -207 -301
-159 -514 -307 -676 -469 -106 -105 -304 -321 -270 -294 11 9 48 32 81 52 34
19 131 90 215 158 243 194 371 270 674 404 237 105 439 158 643 171 128 8 211
-7 292 -51 135 -74 235 -117 457 -193 453 -158 607 -232 793 -386 59 -49 190
-152 224 -176 12 -8 -10 23 -48 70 -315 386 -468 483 -1119 702 -166 56 -227
86 -227 109 0 6 17 17 37 26 32 13 48 13 106 4 80 -13 236 -62 421 -133 110
-41 267 -88 299 -88 5 0 -78 43 -185 96 -333 166 -496 224 -628 224 -37 0 -69
-2 -71 -4z"/>
<path d="M4166 7571 c-15 -16 -68 -52 -117 -81 -49 -29 -89 -55 -89 -57 0 -7
146 71 177 94 27 21 70 73 60 73 -2 0 -16 -13 -31 -29z"/>
<path d="M4738 7280 c-107 -22 -268 -75 -453 -147 -271 -107 -396 -183 -516
-315 -51 -55 -121 -117 -183 -161 -205 -145 -340 -316 -515 -652 -63 -120 -63
-120 -21 -80 23 22 84 90 135 150 237 280 351 359 682 470 244 82 549 196 606
228 69 38 34 87 -63 87 -68 0 -147 -22 -317 -89 -148 -58 -196 -70 -218 -51
-32 27 30 79 184 155 114 57 210 90 359 126 68 16 163 47 211 69 135 61 197
74 346 75 113 0 136 -3 178 -22 50 -23 60 -45 27 -63 -11 -6 -80 -15 -153 -20
-163 -12 -229 -24 -287 -53 -53 -26 -63 -56 -28 -81 43 -30 267 -17 498 30
114 23 133 24 210 14 151 -19 351 -72 485 -127 118 -49 207 -127 191 -169 -8
-21 -33 -17 -113 16 -90 38 -288 92 -418 115 -124 22 -303 22 -519 1 -88 -9
-226 -16 -308 -16 -149 0 -149 0 -201 -52 -59 -60 -124 -96 -357 -198 -221
-97 -233 -103 -283 -156 -44 -46 -44 -46 -84 -24 -30 18 -47 21 -76 16 -98
-18 -321 -215 -460 -407 -96 -133 -210 -340 -242 -442 -60 -187 -73 -434 -36
-677 24 -155 26 -216 9 -227 -22 -13 -50 -14 -67 -1 -9 7 -3 -2 12 -18 21 -24
36 -62 62 -162 43 -168 82 -264 155 -382 77 -126 113 -200 155 -318 59 -163
160 -285 318 -380 89 -54 519 -246 687 -306 85 -31 166 -65 180 -75 32 -23 33
-55 2 -59 -62 -9 -296 60 -532 158 -180 74 -205 81 -307 83 -64 2 -72 5 -141
52 -40 28 -96 62 -123 77 -28 14 -67 39 -87 54 -20 16 16 -30 79 -100 62 -71
144 -168 181 -215 36 -48 90 -108 120 -133 146 -125 354 -227 573 -282 97 -25
477 -76 637 -86 152 -10 220 -27 238 -60 15 -28 -6 -37 -112 -49 -169 -19
-301 -14 -398 15 -86 25 -407 78 -535 87 -70 5 -70 5 0 -19 77 -27 271 -80
408 -112 57 -14 98 -30 117 -46 38 -31 110 -41 241 -32 171 11 239 32 294 90
26 27 48 37 125 56 302 73 586 216 857 432 177 142 385 334 435 400 55 75 101
118 126 118 25 1 -28 29 -54 30 -12 0 -47 -11 -78 -25 -46 -21 -72 -25 -145
-25 -110 0 -140 -10 -397 -133 -301 -143 -444 -196 -639 -237 -158 -33 -280
-43 -429 -37 -170 7 -259 28 -382 90 -49 24 -150 70 -224 102 -225 95 -376
178 -516 283 -225 168 -311 270 -398 476 -33 75 -40 106 -48 200 -5 61 -20
183 -33 271 -14 88 -30 214 -36 280 -16 158 -16 535 -1 654 7 51 17 155 21
231 8 118 13 147 39 208 66 158 236 364 372 452 68 44 64 43 173 24 34 -6 62
7 315 133 297 150 407 197 514 219 123 26 339 44 517 45 184 1 253 -6 486 -46
202 -34 234 -37 293 -26 62 12 93 3 140 -42 42 -40 64 -81 71 -131 6 -40 6
-40 146 -110 159 -80 281 -161 406 -269 47 -41 95 -78 107 -81 11 -4 26 -13
32 -21 7 -8 16 -15 21 -15 12 0 -150 257 -233 369 -39 53 -116 142 -170 197
-54 56 -98 110 -98 120 0 38 -39 81 -136 148 -54 37 -130 90 -169 118 -133 94
-274 155 -580 248 -108 33 -223 77 -315 121 -80 37 -165 73 -190 78 -72 17
-255 12 -352 -9z m1692 -720 c27 -14 14 -40 -20 -40 -27 0 -66 31 -53 43 10
10 52 8 73 -3z m-3212 -1013 c2 -20 -6 -91 -17 -157 -38 -222 -38 -311 -1
-810 6 -82 22 -174 45 -268 19 -79 35 -152 35 -163 0 -25 -22 -34 -49 -19 -28
14 -105 175 -131 273 -19 69 -21 94 -15 205 5 97 3 156 -11 252 -35 249 -15
490 52 640 42 93 86 116 92 47z m3245 -2269 c11 -33 -30 -72 -186 -176 -393
-263 -645 -387 -889 -436 -102 -21 -226 -20 -563 4 -427 30 -506 39 -633 70
-200 49 -331 101 -443 176 -72 48 -99 80 -99 118 0 39 17 41 78 7 188 -104
393 -183 573 -221 105 -22 190 -25 270 -10 40 8 107 6 264 -6 232 -18 397 -15
535 12 192 36 431 131 679 271 201 113 374 202 393 203 9 0 18 -6 21 -12z"/>
<path d="M4970 6475 c-193 -27 -312 -63 -504 -154 -117 -55 -252 -139 -316
-197 -118 -107 -307 -419 -373 -615 -132 -395 -111 -892 56 -1309 63 -157 212
-423 273 -485 106 -110 338 -240 565 -316 101 -34 142 -43 219 -46 106 -5 138
6 126 44 -7 22 -74 55 -136 68 -151 32 -445 162 -557 247 -107 80 -150 141
-141 199 5 34 24 34 55 -1 15 -17 57 -53 93 -80 132 -98 277 -167 540 -258 80
-28 175 -65 210 -81 60 -29 73 -31 176 -31 183 0 354 40 584 135 522 215 798
507 911 960 30 119 37 370 14 506 -43 259 -142 463 -324 663 -71 78 -85 108
-55 120 100 39 302 -148 424 -393 98 -197 134 -365 135 -626 0 -163 -3 -205
-23 -294 -43 -191 -100 -330 -197 -476 -146 -219 -313 -345 -690 -518 -291
-133 -500 -199 -745 -232 -63 -8 -151 -24 -195 -34 -123 -29 -184 -34 -271
-21 -188 28 -400 117 -683 284 -95 56 -126 65 -162 46 -35 -19 -24 -63 27
-109 122 -107 555 -308 769 -357 121 -27 310 -24 509 10 264 45 438 103 796
264 85 38 209 89 275 112 159 56 247 103 295 158 122 138 251 399 310 628 127
489 96 1028 -80 1390 -43 90 -59 110 -133 180 -196 183 -441 273 -753 276 -88
1 -107 -2 -160 -26 -60 -27 -60 -27 -214 3 -368 72 -603 67 -864 -20 -481
-160 -787 -609 -787 -1154 0 -269 64 -497 192 -686 55 -81 131 -144 273 -228
288 -168 580 -261 820 -261 208 0 469 87 673 224 412 276 592 791 438 1253
-80 239 -206 428 -379 567 -120 96 -166 148 -166 185 0 16 6 31 15 35 18 6
162 -47 264 -98 103 -52 142 -92 175 -175 15 -39 50 -108 78 -153 163 -271
228 -475 228 -723 0 -475 -256 -861 -725 -1092 -281 -137 -532 -182 -760 -134
-226 48 -442 131 -668 258 -110 61 -128 68 -180 69 -68 1 -89 17 -166 128
-100 145 -182 354 -217 551 -25 139 -25 422 0 560 51 278 187 547 371 730 163
162 391 279 653 336 145 31 427 37 664 14 108 -11 274 -19 403 -19 205 -1 222
0 255 20 48 28 48 45 -1 72 -68 39 -116 51 -262 67 -78 8 -223 24 -322 35
-209 23 -506 25 -655 5z m423 -544 c141 -37 226 -90 372 -231 100 -98 141
-131 180 -145 134 -50 247 -262 276 -519 42 -374 -129 -735 -449 -946 -157
-104 -294 -152 -487 -172 -137 -14 -293 5 -449 56 -383 126 -589 341 -689 720
-17 67 -21 109 -21 236 1 133 5 168 26 251 107 402 384 676 768 760 116 26
359 21 473 -10z"/>
<path d="M4985 5790 c-305 -47 -557 -257 -675 -562 -34 -89 -60 -223 -60 -315
0 -78 23 -194 56 -282 38 -101 143 -288 194 -344 89 -100 246 -182 438 -229
104 -26 311 -30 407 -9 345 76 586 302 691 646 25 83 28 104 28 265 1 197 -13
268 -79 407 -30 61 -82 123 -103 123 -43 -1 -50 -75 -24 -222 11 -62 23 -145
27 -184 13 -155 -33 -361 -123 -544 -83 -170 -231 -288 -429 -342 -111 -30
-314 -30 -428 1 -92 25 -206 76 -271 123 -69 49 -104 118 -60 118 8 0 65 -25
128 -55 155 -75 244 -97 388 -98 78 -1 138 5 185 17 197 48 366 193 341 292
-4 13 -13 24 -21 24 -7 0 -51 -25 -96 -56 -159 -109 -274 -148 -434 -146 -65
0 -126 7 -175 20 -106 28 -317 120 -357 155 -99 87 -152 286 -113 427 17 64
103 233 155 306 171 239 459 323 700 205 89 -44 137 -88 188 -174 74 -123 89
-310 33 -433 -49 -109 -179 -213 -319 -256 -103 -31 -238 -23 -327 18 -115 54
-168 115 -221 253 -16 43 -37 82 -45 85 -66 25 -85 -119 -31 -238 37 -80 108
-146 208 -194 211 -101 397 -95 622 19 55 28 125 55 156 61 31 6 62 16 70 22
55 43 111 203 118 336 9 153 -28 365 -82 476 -34 70 -132 165 -215 208 -124
66 -308 97 -445 76z"/>
<path d="M4940 5391 c-131 -40 -249 -169 -250 -270 0 -51 45 -189 79 -244 34
-52 102 -101 166 -118 103 -28 237 7 323 86 94 85 127 228 81 350 -30 80 -104
154 -182 183 -59 23 -165 29 -217 13z m161 -264 c112 -75 39 -257 -103 -257
-59 0 -92 13 -123 46 -25 27 -35 84 -14 84 5 0 27 -11 47 -25 41 -28 83 -32
102 -10 10 12 7 20 -19 44 -31 29 -42 79 -23 107 26 38 85 43 133 11z"/>
<path d="M3875 6156 c-49 -22 -112 -83 -186 -179 -84 -108 -130 -189 -168
-294 -79 -215 -113 -677 -76 -1030 17 -161 75 -481 105 -583 51 -172 168 -349
280 -424 37 -24 77 -21 96 9 22 34 14 59 -50 157 -119 186 -181 328 -231 532
-102 418 -96 902 14 1228 38 112 92 218 185 363 81 127 101 173 92 211 -7 27
-18 29 -61 10z"/>
<path d="M3137 3776 c31 -53 60 -96 64 -96 16 0 -12 65 -51 115 -69 89 -73 83
-13 -19z"/>
<path d="M6374 2878 c-19 -23 -19 -23 4 -4 12 11 22 21 22 23 0 8 -8 2 -26
-19z"/>
<path d="M6315 2831 c-11 -11 -105 -85 -210 -166 -261 -202 -309 -229 -738
-417 -26 -11 -46 -23 -43 -25 7 -7 294 106 391 155 124 61 228 131 375 249
123 100 260 222 250 223 -3 0 -14 -9 -25 -19z"/>
<path d="M4602 2264 c-7 -8 -8 -14 -3 -14 10 0 25 19 20 25 -2 1 -10 -3 -17
-11z"/>
</g>
</svg>
