<?xml version="1.0" standalone="no"?>
<!DOCTYPE svg PUBLIC "-//W3C//DTD SVG 20010904//EN"
 "http://www.w3.org/TR/2001/REC-SVG-20010904/DTD/svg10.dtd">
<svg version="1.0" xmlns="http://www.w3.org/2000/svg"
 width="1000.000000pt" height="1000.000000pt" viewBox="0 0 1000.000000 1000.000000"
 preserveAspectRatio="xMidYMid meet">
<metadata>
  <rdf:RDF
    xmlns:rdf = "http://www.w3.org/1999/02/22-rdf-syntax-ns#"
    xmlns:rdfs = "http://www.w3.org/2000/01/rdf-schema#"
    xmlns:dc = "http://purl.org/dc/elements/1.1/"
    xmlns:cc = "http://creativecommons.org/ns#">
    <cc:license rdf:resource="http://creativecommons.org/publicdomain/zero/1.0/deed.en"/>
    <cc:permits rdf:resource="http://creativecommons.org/ns#Reproduction"/>
    <rdf:Description about="https://nft.mir.one/fingerprints"
      dc:title="TON Fingerprints"
      dc:description="This is a unique digital fingerprint created based on the algorithm for generating basic rings using a noise texture. Like human fingerprints, you can now use it for the Web3 and Metaverse era as digital biometric information."
      dc:publisher="https://nft.mir.one"
      dc:date="2022-02-22"
      dc:format="image/svg+xml"
      dc:language="en" >
      <dc:creator>
      <rdf:Bag>
        <rdf:li>EQBondcvD2_aOFADXSWJHs4ZazQDuEl9_wNvGGPxI8hGuOFU</rdf:li>
        <rdf:li>ipfs://bafkreihj7iub3fhmhq6jn62noukt5wxn3gv6bvcg7wmt6ywvlurefezckq</rdf:li>
      </rdf:Bag>
      </dc:creator>
    </rdf:Description>
  </rdf:RDF>
</metadata>
<rect width="100%" height="100%" fill="#1b1f23"/>
<g transform="translate(0.000000,1000.000000) scale(0.100000,-0.100000)"
fill="#ffffff" stroke="none">
<path d="M5125 7801 c32 -28 149 -108 278 -189 369 -231 579 -386 759 -560
230 -223 333 -387 444 -705 117 -338 161 -653 143 -1023 -10 -190 -4 -228 33
-222 77 11 125 276 99 548 -38 393 -193 864 -377 1148 -203 312 -581 625
-1024 847 -122 61 -371 171 -355 156z"/>
<path d="M4661 7745 c24 -13 85 -45 134 -71 50 -26 153 -83 230 -127 487 -278
714 -436 915 -637 141 -141 221 -253 309 -431 146 -293 225 -572 251 -886 14
-162 18 -586 6 -678 -7 -64 -6 -72 13 -95 21 -25 21 -25 59 16 22 22 49 66 61
98 21 56 21 61 11 374 -15 461 -42 642 -141 937 -175 521 -433 814 -1068 1214
-245 155 -486 257 -680 290 -154 26 -153 26 -100 -4z"/>
<path d="M4365 7576 c-5 -2 -71 -12 -147 -22 -136 -18 -136 -18 -85 -36 29
-11 108 -30 177 -42 275 -52 457 -111 707 -231 435 -209 777 -473 924 -715 20
-33 48 -101 63 -155 14 -53 46 -135 70 -183 59 -118 110 -248 142 -362 23 -85
27 -120 34 -340 11 -333 49 -551 102 -584 14 -8 22 -6 40 11 19 20 22 33 22
115 1 137 -23 536 -39 668 -19 153 -69 330 -148 525 -137 339 -194 433 -372
611 -138 139 -292 257 -508 390 -182 113 -568 308 -652 329 -55 14 -306 30
-330 21z"/>
<path d="M3990 7319 c-66 -4 -140 -16 -174 -27 -59 -19 -59 -19 35 -24 112 -7
131 -13 127 -42 -2 -16 -41 -40 -173 -106 -93 -47 -202 -103 -242 -126 -72
-40 -72 -40 -10 -36 80 5 303 61 448 111 146 52 236 65 368 57 209 -14 424
-70 661 -175 256 -114 455 -250 677 -463 73 -71 144 -133 156 -137 60 -23 63
32 6 120 -93 143 -340 358 -570 494 -316 188 -614 297 -936 345 -144 21 -184
22 -373 9z"/>
<path d="M4190 6969 c-30 -5 -161 -35 -290 -65 -263 -63 -321 -87 -498 -204
-102 -69 -102 -69 -60 -75 44 -7 145 12 398 75 69 17 215 46 325 66 110 19
236 42 280 50 153 29 314 -2 637 -122 152 -56 254 -108 353 -179 169 -121 438
-374 519 -488 64 -90 139 -240 171 -346 45 -145 59 -176 81 -179 47 -7 57 98
24 236 -35 145 -121 331 -203 436 -17 21 -64 63 -105 93 -40 30 -119 96 -175
147 -56 50 -133 117 -172 147 -208 168 -491 305 -785 381 -101 27 -135 31
-280 34 -91 1 -190 -1 -220 -7z"/>
<path d="M4362 6705 c-26 -11 -33 -20 -30 -37 4 -28 27 -39 175 -84 65 -19
163 -57 218 -84 93 -45 109 -58 234 -182 73 -73 159 -167 191 -208 31 -41 95
-115 141 -165 47 -49 150 -169 230 -265 80 -96 198 -224 262 -283 122 -114
172 -181 231 -310 45 -99 86 -224 89 -272 2 -35 -1 -40 -21 -43 -35 -5 -54 18
-110 131 -75 151 -176 297 -304 438 -144 158 -217 243 -292 339 -75 95 -199
223 -253 261 -23 16 -66 34 -95 39 -33 6 -132 49 -263 114 -351 176 -505 225
-733 233 -118 5 -150 3 -186 -11 -43 -16 -62 -38 -50 -57 14 -23 73 -39 215
-59 176 -24 331 -62 475 -115 137 -52 515 -228 579 -270 76 -51 142 -125 174
-198 21 -46 54 -90 118 -158 138 -146 235 -260 300 -356 67 -97 113 -183 113
-210 1 -36 27 -90 70 -143 50 -64 94 -156 116 -245 21 -82 47 -125 77 -125 45
0 100 82 132 195 9 33 28 95 42 139 32 99 29 139 -27 341 -73 263 -104 350
-143 395 -20 24 -46 73 -62 118 -40 115 -137 296 -213 397 -121 162 -380 406
-546 514 -71 46 -181 91 -225 91 -9 0 -95 27 -191 60 -165 57 -304 90 -374 90
-17 -1 -46 -7 -64 -15z m725 -271 c121 -70 406 -339 546 -514 130 -163 274
-396 263 -425 -17 -45 -74 5 -213 188 -173 228 -427 505 -622 678 -66 58 -83
79 -78 93 9 22 43 16 104 -20z m793 -1559 c20 -24 -2 -41 -24 -20 -16 16 -14
35 3 35 5 0 14 -7 21 -15z"/>
<path d="M3980 6610 c-86 -11 -137 -23 -315 -75 -82 -24 -168 -47 -190 -50
-22 -4 -69 -23 -105 -43 -128 -70 -174 -92 -192 -92 -15 0 -11 -7 17 -31 55
-49 68 -80 52 -127 -12 -34 -197 -309 -251 -372 -19 -22 -19 -23 -1 -9 11 9
43 28 70 44 29 17 122 101 222 201 180 182 179 181 337 236 62 22 103 44 139
74 75 65 127 79 282 79 113 0 142 -4 225 -29 219 -65 398 -147 588 -270 166
-107 202 -119 202 -70 0 55 -236 252 -395 329 -49 24 -139 62 -200 85 -60 22
-136 56 -169 76 -90 53 -157 63 -316 44z"/>
<path d="M3134 6209 c-22 -24 -24 -29 -8 -21 24 13 49 40 42 47 -2 3 -18 -9
-34 -26z"/>
<path d="M3635 6099 c-101 -24 -314 -168 -456 -309 -60 -60 -147 -208 -209
-357 -49 -118 -49 -118 28 -33 230 254 390 388 557 470 136 66 181 75 360 75
185 -1 248 -13 525 -105 222 -73 356 -128 541 -221 67 -33 132 -59 149 -59 26
0 30 3 30 29 0 67 -193 186 -520 321 -258 106 -446 155 -700 184 -149 18 -244
19 -305 5z"/>
<path d="M3873 5830 c-149 -16 -307 -83 -453 -191 -93 -68 -234 -207 -293
-288 -155 -209 -218 -738 -136 -1120 74 -341 265 -687 495 -900 147 -135 267
-179 714 -263 295 -55 341 -61 495 -65 128 -4 193 -1 262 11 126 22 139 29
174 100 20 40 59 91 113 146 89 90 272 332 392 516 87 134 128 183 171 200 70
30 79 -5 32 -123 -46 -119 -103 -218 -177 -310 -159 -200 -162 -204 -162 -234
0 -67 81 -53 214 35 191 127 284 290 274 479 -3 70 -15 101 -70 179 -9 13 -9
43 0 131 15 131 9 158 -49 243 -19 28 -59 104 -88 170 -193 429 -277 570 -440
737 -100 102 -153 140 -271 190 -47 19 -150 65 -230 101 -79 36 -203 84 -275
107 -71 22 -200 63 -285 89 -85 27 -173 52 -195 54 -91 12 -144 13 -212 6z
m282 -144 c24 -16 26 -20 12 -33 -8 -8 -75 -27 -148 -43 -232 -48 -374 -120
-530 -268 -270 -254 -402 -633 -344 -989 56 -348 245 -614 540 -760 125 -63
342 -150 427 -172 245 -63 509 -49 697 39 236 111 465 386 556 670 85 265 7
658 -179 898 -155 202 -437 365 -712 413 -136 24 -314 -7 -497 -86 -114 -49
-180 -91 -264 -169 -181 -169 -275 -377 -276 -616 -1 -128 11 -199 55 -312 53
-139 128 -238 297 -389 66 -60 72 -68 62 -88 -17 -31 -82 -28 -152 6 -72 36
-213 178 -266 268 -87 147 -123 273 -130 450 -4 105 -1 148 15 225 61 294 241
536 505 675 82 43 408 159 483 170 52 9 198 -17 321 -56 125 -39 342 -143 448
-213 198 -132 359 -366 458 -666 71 -214 86 -376 46 -506 -59 -194 -262 -498
-453 -682 -184 -176 -329 -233 -596 -233 -335 0 -685 92 -955 251 -172 102
-284 212 -414 406 -167 249 -211 458 -161 767 50 315 154 528 359 741 162 167
349 273 546 312 93 18 215 13 250 -10z m405 -406 c238 -66 458 -236 553 -429
42 -84 42 -84 45 -290 2 -126 -1 -234 -8 -279 -50 -311 -264 -571 -550 -666
-188 -62 -456 -47 -542 31 -20 18 -24 58 -7 69 6 3 81 8 167 9 120 2 175 8
235 24 261 69 457 289 483 541 11 107 -7 166 -86 283 -183 273 -317 371 -505
370 -137 0 -249 -63 -300 -168 -23 -48 -32 -160 -16 -208 16 -49 78 -117 125
-138 90 -41 226 -13 267 55 39 63 15 158 -51 204 -41 27 -74 28 -100 2 -17
-17 -18 -24 -10 -41 24 -43 -40 -68 -75 -29 -10 12 -18 35 -18 58 0 83 74 137
177 130 78 -5 129 -30 188 -90 95 -98 133 -223 126 -415 -5 -142 -25 -197 -96
-266 -90 -87 -201 -126 -390 -134 -164 -8 -184 0 -311 126 -113 111 -180 208
-223 324 -40 107 -50 264 -23 382 64 289 306 506 633 565 71 13 228 3 312 -20z"/>
<path d="M4280 5189 c-433 -52 -676 -483 -482 -853 77 -146 224 -256 365 -271
167 -18 357 72 357 170 0 55 -23 61 -142 34 -74 -16 -118 -20 -161 -15 -125
13 -233 89 -290 205 -30 61 -32 72 -32 171 0 93 3 111 27 163 90 193 295 295
517 257 94 -16 227 -82 305 -151 32 -29 94 -99 138 -156 81 -105 113 -128 143
-103 26 21 18 82 -21 160 -45 90 -149 202 -248 267 -83 56 -218 109 -296 118
-30 3 -68 7 -85 9 -16 2 -59 0 -95 -5z"/>
<path d="M7028 5580 c-8 -106 -43 -303 -69 -385 -10 -34 -37 -88 -59 -121
-164 -242 -224 -308 -288 -320 -20 -3 -47 -13 -59 -20 -25 -16 -274 -388 -334
-499 -20 -38 -44 -94 -53 -124 -20 -67 -20 -176 -1 -256 11 -45 13 -92 8 -188
-6 -124 -7 -130 -42 -189 -41 -69 -132 -157 -215 -207 -31 -19 -103 -50 -159
-69 -92 -32 -113 -35 -217 -36 -112 -1 -118 -3 -216 -44 -56 -24 -117 -56
-135 -72 -34 -28 -34 -28 -10 -54 14 -14 41 -30 60 -36 83 -23 280 -2 521 55
128 30 189 32 221 7 34 -29 18 -49 -73 -92 -269 -126 -481 -158 -919 -141
-301 12 -337 17 -565 86 -186 57 -306 81 -464 95 -136 11 -175 20 -325 79
-110 43 -202 73 -188 61 43 -39 234 -183 304 -230 48 -33 118 -91 156 -128 73
-74 168 -127 303 -170 101 -33 134 -36 150 -17 30 36 -28 76 -195 131 -182 61
-239 93 -219 126 13 21 155 2 268 -36 121 -40 156 -59 231 -122 112 -93 179
-109 475 -108 237 0 429 18 609 55 332 68 497 171 541 338 10 38 29 61 117
145 58 56 154 159 212 229 58 71 148 179 199 240 243 292 254 315 391 792 44
155 83 290 87 300 4 11 -14 -8 -39 -42 -72 -97 -151 -264 -197 -419 -23 -77
-60 -173 -81 -215 -62 -118 -272 -344 -366 -392 -36 -19 -79 -22 -88 -6 -15
24 11 63 121 180 179 192 264 321 264 404 0 42 -10 55 -45 55 -26 0 -80 -57
-175 -186 -104 -139 -142 -177 -174 -172 -30 4 -24 53 18 143 65 141 156 255
263 332 83 59 130 114 239 274 92 137 116 187 159 335 49 170 56 222 62 454 6
238 1 322 -9 180z"/>
<path d="M6779 3593 c-61 -67 -126 -157 -158 -217 -25 -47 -31 -70 -30 -115 1
-67 17 -119 18 -59 1 21 10 60 21 88 23 57 154 296 178 323 8 9 13 17 10 17
-3 0 -21 -17 -39 -37z"/>
<path d="M6350 2844 c-122 -124 -279 -237 -390 -279 -292 -112 -701 -180
-1265 -211 -121 -7 -146 -14 -198 -56 -28 -23 -28 -23 310 -23 308 0 349 2
460 23 423 78 686 190 928 394 85 72 225 208 214 208 -2 0 -29 -25 -59 -56z"/>
<path d="M4102 2464 c3 -3 66 -20 139 -38 74 -19 140 -35 148 -37 8 -2 16 4
19 13 5 25 -48 48 -126 54 -37 2 -94 7 -126 9 -33 3 -57 3 -54 -1z"/>
</g>
</svg>
