<?xml version="1.0" standalone="no"?>
<!DOCTYPE svg PUBLIC "-//W3C//DTD SVG 20010904//EN"
 "http://www.w3.org/TR/2001/REC-SVG-20010904/DTD/svg10.dtd">
<svg version="1.0" xmlns="http://www.w3.org/2000/svg"
 width="1000.000000pt" height="1000.000000pt" viewBox="0 0 1000.000000 1000.000000"
 preserveAspectRatio="xMidYMid meet">
<metadata>
  <rdf:RDF
    xmlns:rdf = "http://www.w3.org/1999/02/22-rdf-syntax-ns#"
    xmlns:rdfs = "http://www.w3.org/2000/01/rdf-schema#"
    xmlns:dc = "http://purl.org/dc/elements/1.1/"
    xmlns:cc = "http://creativecommons.org/ns#">
    <cc:license rdf:resource="http://creativecommons.org/publicdomain/zero/1.0/deed.en"/>
    <cc:permits rdf:resource="http://creativecommons.org/ns#Reproduction"/>
    <rdf:Description about="https://nft.mir.one/fingerprints"
      dc:title="TON Fingerprints"
      dc:description="This is a unique digital fingerprint created based on the algorithm for generating basic rings using a noise texture. Like human fingerprints, you can now use it for the Web3 and Metaverse era as digital biometric information."
      dc:publisher="https://nft.mir.one"
      dc:date="2022-02-22"
      dc:format="image/svg+xml"
      dc:language="en" >
      <dc:creator>
      <rdf:Bag>
        <rdf:li>EQBondcvD2_aOFADXSWJHs4ZazQDuEl9_wNvGGPxI8hGuOFU</rdf:li>
        <rdf:li>ipfs://bafkreihj7iub3fhmhq6jn62noukt5wxn3gv6bvcg7wmt6ywvlurefezckq</rdf:li>
      </rdf:Bag>
      </dc:creator>
    </rdf:Description>
  </rdf:RDF>
</metadata>
<rect width="100%" height="100%" fill="#1b1f23"/>
<g transform="translate(0.000000,1000.000000) scale(0.100000,-0.100000)"
fill="#ffffff" stroke="none">
<path d="M4810 7655 c-107 -19 -469 -109 -570 -140 -97 -31 -268 -110 -385
-180 -44 -26 -71 -44 -60 -40 11 4 61 17 110 30 50 13 133 35 185 48 140 38
298 60 441 61 125 1 125 1 180 -36 57 -39 114 -58 329 -108 201 -47 354 -108
530 -210 36 -21 78 -50 93 -64 25 -23 27 -29 16 -42 -21 -26 -79 -11 -280 69
-259 105 -677 218 -855 233 -171 14 -450 -42 -609 -121 -183 -92 -393 -264
-566 -465 -60 -68 -107 -126 -105 -128 2 -1 40 23 85 55 46 32 117 82 159 111
104 72 510 274 627 312 330 105 629 77 1165 -110 113 -39 257 -85 320 -101 74
-18 151 -47 215 -79 344 -171 716 -570 834 -895 35 -97 126 -539 142 -685 12
-114 7 -190 -19 -290 -14 -55 -16 -127 -17 -480 0 -415 0 -415 -28 -505 -97
-311 -330 -632 -610 -841 -187 -141 -363 -205 -432 -160 -14 9 -25 21 -25 27
0 5 28 22 63 38 212 95 452 300 609 522 80 112 186 313 222 422 51 155 61 233
60 482 -1 292 -11 358 -74 495 -33 72 -65 166 -100 297 -68 259 -118 403 -195
558 -110 224 -233 382 -384 494 -131 97 -411 210 -659 266 -129 30 -165 31
-206 6 -48 -30 -101 -40 -262 -51 -393 -27 -616 -84 -721 -185 -44 -42 -50
-58 -33 -85 14 -23 72 -16 217 29 235 72 516 112 803 114 153 1 228 -12 400
-68 41 -13 113 -34 160 -45 123 -31 203 -74 289 -155 87 -82 146 -168 235
-344 125 -246 178 -396 275 -786 61 -247 81 -377 81 -537 0 -266 -63 -461
-246 -768 -109 -183 -196 -285 -370 -432 -149 -127 -194 -181 -194 -234 0 -66
-264 -129 -585 -140 -187 -7 -300 4 -371 36 -32 13 -44 25 -44 40 0 29 27 37
170 44 361 20 565 67 706 164 159 108 405 332 451 410 14 23 38 76 53 117 15
41 55 119 88 172 123 202 184 353 201 501 9 87 8 102 -19 257 -11 61 -27 166
-35 235 -34 285 -100 499 -233 760 -51 102 -103 213 -113 247 -35 112 -146
232 -262 283 -56 25 -87 19 -87 -15 0 -17 19 -42 63 -82 101 -93 186 -184 193
-205 8 -27 -8 -40 -38 -33 -35 9 -170 119 -242 196 -32 35 -76 83 -97 105 -97
105 -355 161 -655 143 -168 -10 -274 -29 -493 -85 -150 -38 -188 -44 -276 -44
-95 0 -106 -2 -164 -32 -146 -75 -330 -296 -511 -613 -68 -120 -106 -175 -120
-175 -43 0 -52 94 -19 193 61 183 211 390 473 653 89 88 198 202 244 252 103
113 137 131 342 170 205 40 357 54 550 50 139 -3 161 -1 176 14 16 16 15 19
-13 46 -38 39 -110 60 -247 74 -130 12 -269 2 -471 -37 -128 -25 -137 -26
-161 -10 -23 15 -24 18 -11 38 56 85 369 150 609 128 140 -14 224 -35 353 -91
55 -23 199 -76 320 -117 400 -134 596 -250 777 -459 215 -248 316 -494 448
-1087 14 -65 29 -107 45 -125 22 -26 24 -26 43 -9 11 10 22 37 26 63 17 127
-76 588 -165 811 -97 246 -301 505 -539 685 -157 118 -285 176 -705 316 -453
152 -512 165 -750 165 -162 0 -190 -2 -276 -25 -114 -31 -189 -67 -314 -153
-65 -44 -108 -66 -146 -74 -108 -23 -216 -76 -319 -157 -106 -84 -199 -210
-340 -464 -50 -91 -103 -175 -118 -187 -27 -22 -27 -22 6 -23 47 0 80 28 200
175 274 335 568 580 598 500 14 -37 -16 -76 -214 -278 -261 -267 -454 -496
-498 -592 -74 -159 -91 -280 -100 -679 -10 -435 8 -611 84 -841 73 -223 288
-594 407 -702 129 -119 291 -189 552 -240 118 -22 165 -26 328 -27 172 -1 207
2 367 31 422 77 589 140 897 342 155 101 208 124 236 101 13 -11 13 -16 -2
-41 -55 -92 -302 -282 -488 -374 -154 -76 -243 -103 -510 -151 -130 -23 -226
-46 -275 -66 -124 -50 -266 -49 -524 3 -161 33 -353 101 -504 180 -210 110
-224 117 -263 122 -36 5 -34 2 80 -105 144 -137 299 -255 411 -312 104 -54
209 -85 444 -131 99 -20 226 -49 280 -66 222 -68 348 -84 761 -95 211 -5 261
-4 318 10 89 21 320 115 408 166 339 199 664 621 803 1045 49 149 56 207 66
505 5 157 14 341 20 410 22 277 11 447 -49 753 -20 100 -31 185 -30 234 1 92
-15 145 -92 295 -72 139 -208 317 -359 469 -141 141 -213 202 -417 348 -87 62
-161 124 -190 159 -82 97 -144 152 -251 222 -118 79 -216 122 -350 156 -106
27 -295 54 -376 54 -107 0 -113 56 -8 86 81 24 298 14 447 -20 172 -40 236
-78 480 -282 116 -97 281 -230 368 -296 261 -199 442 -372 606 -578 46 -57
105 -129 132 -160 26 -30 57 -66 68 -80 27 -33 -94 187 -173 313 -78 125 -154
225 -268 355 -145 164 -288 286 -573 487 -153 108 -224 169 -256 222 -34 54
-135 96 -328 134 -137 27 -393 34 -501 14z m308 -1644 c117 -29 212 -76 317
-156 50 -38 146 -111 215 -163 158 -118 200 -160 256 -249 149 -237 220 -594
158 -787 -20 -58 -116 -205 -186 -281 -113 -124 -390 -346 -527 -422 -161 -91
-311 -111 -311 -43 0 24 44 61 140 121 117 72 185 125 258 203 69 75 102 131
102 176 0 16 -13 68 -29 115 -17 46 -37 134 -46 194 -19 128 -47 235 -77 295
-104 208 -291 330 -503 329 -129 0 -232 -41 -323 -127 -130 -123 -166 -317
-93 -508 41 -108 145 -229 255 -295 122 -75 262 -50 366 64 68 75 93 144 93
258 0 107 -23 178 -79 244 -103 120 -285 123 -351 6 -42 -75 -21 -167 46 -195
68 -28 128 35 81 85 -22 23 -22 23 0 45 53 53 140 -24 140 -125 0 -77 -41
-140 -113 -170 -48 -20 -93 -19 -143 4 -105 48 -167 147 -167 267 0 125 61
217 181 272 48 21 64 24 140 20 108 -5 177 -36 251 -110 106 -105 156 -259
149 -458 -4 -104 -7 -122 -35 -182 -52 -111 -147 -199 -303 -279 -65 -33 -65
-33 -291 -34 -225 0 -225 0 -303 39 -96 47 -212 154 -295 271 -39 54 -71 88
-100 104 -91 50 -146 174 -146 331 0 111 19 175 97 339 42 88 61 115 131 186
139 139 298 246 447 300 109 39 207 55 335 55 125 0 251 -26 360 -74 109 -49
246 -149 346 -253 80 -84 103 -116 147 -204 67 -132 92 -232 92 -360 0 -124
-24 -203 -91 -303 -57 -84 -64 -128 -21 -134 86 -12 219 155 253 317 17 80 6
268 -21 361 -28 99 -89 227 -144 304 -134 187 -468 421 -681 477 -111 28 -291
35 -420 16 -206 -32 -344 -91 -510 -218 -119 -90 -173 -118 -226 -119 -30 0
-43 -7 -71 -38 -53 -59 -95 -124 -141 -219 -42 -88 -42 -88 -40 -271 5 -328
46 -441 257 -702 192 -237 380 -361 603 -395 194 -30 215 -34 229 -46 20 -16
17 -43 -5 -63 -75 -68 -295 -59 -458 18 -300 143 -609 507 -718 846 -23 72
-28 108 -33 234 -4 127 -7 151 -23 167 -25 25 -32 24 -67 -6 -70 -59 -103
-236 -67 -361 23 -80 160 -348 244 -475 129 -198 241 -319 452 -489 160 -128
254 -167 429 -177 133 -7 171 -1 646 107 148 34 337 127 514 254 159 113 256
221 350 387 91 162 118 187 142 134 27 -61 -64 -306 -164 -441 -67 -89 -137
-146 -298 -241 -292 -171 -427 -232 -650 -293 -227 -62 -319 -75 -530 -75
-172 0 -206 3 -286 23 -122 31 -145 47 -167 111 -15 42 -34 68 -95 124 -339
319 -400 396 -560 713 -45 88 -89 168 -99 176 -48 43 -88 8 -77 -67 18 -120
106 -321 211 -480 152 -230 307 -379 497 -475 49 -25 91 -50 93 -57 2 -6 -8
-20 -22 -29 -91 -59 -318 48 -473 224 -175 199 -322 447 -377 637 -32 113 -33
194 -1 277 19 52 24 88 29 213 7 210 25 265 110 337 147 126 198 188 332 404
141 228 212 314 281 340 82 31 97 -2 34 -77 -67 -80 -84 -117 -81 -176 3 -58
85 5 229 175 61 71 121 106 263 152 79 26 244 62 339 74 84 10 316 -3 398 -23z"/>
<path d="M4755 5620 c-199 -30 -365 -117 -501 -262 -72 -77 -106 -133 -129
-212 -17 -57 -17 -60 8 -165 14 -58 35 -171 47 -251 12 -80 28 -162 35 -183
53 -155 255 -333 367 -325 38 3 43 6 46 30 3 23 -12 44 -88 124 -50 52 -109
123 -131 156 -95 147 -137 416 -89 570 65 212 299 367 554 368 102 0 190 -21
296 -73 70 -34 101 -57 175 -132 139 -139 195 -264 216 -483 14 -153 21 -183
42 -196 15 -9 22 -7 37 12 32 39 44 100 44 222 0 134 -16 206 -73 325 -151
316 -527 524 -856 475z"/>
<path d="M3977 4965 c-49 -48 -22 -288 39 -356 21 -23 50 -25 58 -3 16 41 -11
288 -37 343 -15 31 -39 38 -60 16z"/>
<path d="M5700 7551 c0 -17 136 -107 313 -208 89 -50 197 -112 239 -136 94
-54 92 -46 -10 31 -111 84 -209 149 -357 235 -132 76 -185 99 -185 78z"/>
<path d="M6340 7156 c0 -2 8 -10 18 -17 15 -13 16 -12 3 4 -13 16 -21 21 -21
13z"/>
<path d="M6927 5738 c3 -13 27 -94 54 -180 52 -167 88 -316 90 -383 2 -34 3
-36 6 -10 12 79 -63 452 -109 544 -25 50 -50 67 -41 29z"/>
<path d="M7084 4970 c0 -91 2 -128 3 -82 2 45 2 119 0 165 -1 45 -3 8 -3 -83z"/>
<path d="M7073 4710 c0 -30 2 -43 4 -27 2 15 2 39 0 55 -2 15 -4 2 -4 -28z"/>
<path d="M7063 4585 c0 -22 2 -30 4 -17 2 12 2 30 0 40 -3 9 -5 -1 -4 -23z"/>
<path d="M7052 4450 c0 -19 2 -27 5 -17 2 9 2 25 0 35 -3 9 -5 1 -5 -18z"/>
<path d="M3186 3665 c48 -77 89 -147 92 -157 5 -22 18 -23 26 -2 13 35 -33
109 -147 235 -59 64 -59 64 29 -76z"/>
<path d="M3765 2732 c19 -19 300 -161 368 -187 83 -31 295 -87 432 -114 197
-38 544 -71 761 -71 84 0 143 -14 145 -33 1 -7 2 -16 4 -22 1 -5 3 -21 4 -35
2 -25 2 -25 16 2 16 29 54 44 142 54 29 4 50 11 47 15 -3 5 -12 9 -21 9 -9 0
-31 11 -49 25 -47 36 -173 84 -263 100 -42 8 -177 24 -301 35 -124 11 -274 29
-335 40 -296 51 -620 113 -705 137 -52 14 -120 29 -150 34 -30 5 -66 12 -80
15 -16 3 -22 2 -15 -4z"/>
<path d="M6175 2696 c-27 -13 -79 -31 -115 -40 -36 -10 -102 -35 -147 -56 -66
-31 -84 -44 -89 -65 -3 -14 -5 -28 -2 -30 9 -10 408 196 408 211 0 5 4 7 -55
-20z"/>
<path d="M4498 2263 c6 -2 18 -2 25 0 6 3 1 5 -13 5 -14 0 -19 -2 -12 -5z"/>
<path d="M4551 2256 c13 -13 565 -64 576 -53 8 8 -149 28 -342 42 -214 16
-241 17 -234 11z"/>
</g>
</svg>
