<?xml version="1.0" standalone="no"?>
<!DOCTYPE svg PUBLIC "-//W3C//DTD SVG 20010904//EN"
 "http://www.w3.org/TR/2001/REC-SVG-20010904/DTD/svg10.dtd">
<svg version="1.0" xmlns="http://www.w3.org/2000/svg"
 width="1000.000000pt" height="1000.000000pt" viewBox="0 0 1000.000000 1000.000000"
 preserveAspectRatio="xMidYMid meet">
<metadata>
  <rdf:RDF
    xmlns:rdf = "http://www.w3.org/1999/02/22-rdf-syntax-ns#"
    xmlns:rdfs = "http://www.w3.org/2000/01/rdf-schema#"
    xmlns:dc = "http://purl.org/dc/elements/1.1/"
    xmlns:cc = "http://creativecommons.org/ns#">
    <cc:license rdf:resource="http://creativecommons.org/publicdomain/zero/1.0/deed.en"/>
    <cc:permits rdf:resource="http://creativecommons.org/ns#Reproduction"/>
    <rdf:Description about="https://nft.mir.one/fingerprints"
      dc:title="TON Fingerprints"
      dc:description="This is a unique digital fingerprint created based on the algorithm for generating basic rings using a noise texture. Like human fingerprints, you can now use it for the Web3 and Metaverse era as digital biometric information."
      dc:publisher="https://nft.mir.one"
      dc:date="2022-02-22"
      dc:format="image/svg+xml"
      dc:language="en" >
      <dc:creator>
      <rdf:Bag>
        <rdf:li>EQBondcvD2_aOFADXSWJHs4ZazQDuEl9_wNvGGPxI8hGuOFU</rdf:li>
        <rdf:li>ipfs://bafkreihj7iub3fhmhq6jn62noukt5wxn3gv6bvcg7wmt6ywvlurefezckq</rdf:li>
      </rdf:Bag>
      </dc:creator>
    </rdf:Description>
  </rdf:RDF>
</metadata>
<rect width="100%" height="100%" fill="#1b1f23"/>
<g transform="translate(0.000000,1000.000000) scale(0.100000,-0.100000)"
fill="#ffffff" stroke="none">
<path d="M4660 7750 c-169 -10 -112 -17 316 -40 102 -6 247 -21 335 -36 109
-18 177 -25 234 -22 100 5 139 22 57 25 -31 1 -120 15 -197 32 -229 49 -433
60 -745 41z"/>
<path d="M4583 7589 c-142 -12 -503 -69 -503 -80 0 -18 173 -29 505 -33 504
-7 609 -23 674 -105 30 -37 31 -38 133 -50 257 -30 451 -84 654 -181 207 -98
259 -137 535 -400 153 -145 153 -145 35 5 -176 226 -279 340 -359 399 -286
211 -457 292 -737 351 -69 14 -181 39 -250 55 -203 48 -427 60 -687 39z"/>
<path d="M4145 7358 c-38 -4 -133 -20 -209 -34 -139 -27 -139 -27 -95 -49 89
-45 158 -50 709 -49 553 0 628 6 678 49 61 53 -11 75 -263 81 -409 9 -754 10
-820 2z"/>
<path d="M5200 7135 c-165 -22 -696 -46 -1034 -46 -332 0 -336 0 -386 -54 -14
-15 -72 -55 -130 -90 -114 -69 -307 -211 -275 -202 11 4 34 9 50 13 17 3 82
25 145 49 231 86 231 86 495 95 132 5 366 21 520 36 233 23 329 28 575 28 331
1 371 -4 581 -74 200 -66 398 -177 578 -323 165 -133 418 -396 534 -554 25
-35 69 -89 97 -120 52 -58 52 -58 -31 107 -250 494 -554 817 -937 997 -270
127 -529 172 -782 138z"/>
<path d="M3630 7095 c-35 -14 -34 -14 35 -12 39 1 70 6 70 12 0 16 -66 16
-105 0z"/>
<path d="M4925 6839 c-61 -4 -165 -17 -230 -28 -66 -11 -187 -30 -270 -41
-163 -23 -264 -43 -309 -60 -16 -6 -55 -34 -86 -63 -64 -59 -129 -96 -345
-192 -293 -131 -356 -168 -437 -255 -40 -43 -98 -117 -128 -165 -145 -229
-138 -212 -62 -153 37 28 90 72 117 96 133 118 433 286 826 460 219 98 297
119 543 146 106 12 134 19 165 40 75 52 107 60 266 64 427 11 883 -141 1242
-416 309 -236 495 -482 630 -831 115 -298 183 -714 171 -1054 -5 -142 -5 -142
10 -52 10 64 15 178 15 390 1 263 -2 317 -21 440 -53 336 -151 611 -278 786
-129 176 -320 367 -508 508 -389 292 -815 415 -1311 380z"/>
<path d="M3790 6760 c-95 -26 -226 -76 -277 -105 -53 -31 -185 -137 -276 -221
-67 -61 -67 -61 -15 -49 29 7 121 44 204 83 83 38 227 100 319 138 186 75 228
99 233 132 7 44 -75 53 -188 22z"/>
<path d="M4768 6564 c-35 -18 -35 -37 -1 -63 31 -25 73 -37 298 -86 324 -70
732 -223 964 -363 232 -139 291 -191 392 -342 82 -124 155 -315 224 -585 69
-273 79 -372 82 -815 2 -217 4 -417 5 -445 3 -67 -23 -144 -103 -302 -125
-249 -311 -497 -447 -597 -56 -41 -81 -47 -95 -24 -16 24 7 67 90 168 197 239
332 479 383 681 29 112 43 372 37 669 -5 268 -25 415 -86 650 -16 63 -46 177
-65 254 -21 81 -52 171 -75 220 -78 159 -201 286 -277 286 -18 0 -35 -4 -38
-8 -2 -4 33 -59 79 -122 112 -154 159 -248 160 -320 0 -43 -4 -55 -17 -58 -12
-2 -30 21 -64 85 -26 48 -69 122 -94 163 -79 126 -92 158 -88 208 3 44 2 46
-61 104 -88 80 -185 127 -275 133 -60 4 -89 14 -215 74 -163 77 -299 125 -483
171 -68 17 -179 48 -248 68 -119 35 -132 37 -260 36 -115 -1 -152 -6 -250 -32
-357 -93 -819 -340 -1030 -551 -57 -57 -77 -88 -133 -202 -36 -74 -80 -169
-97 -212 -16 -43 -42 -101 -56 -129 -25 -50 -25 -50 21 -12 26 22 90 95 143
163 229 295 426 459 727 606 315 154 591 210 850 171 295 -43 606 -153 761
-268 146 -109 470 -540 554 -737 43 -100 127 -381 150 -497 58 -303 43 -616
-42 -884 -60 -188 -190 -426 -273 -499 -36 -31 -78 -41 -91 -20 -3 6 39 99 94
207 140 277 190 438 213 695 20 217 -8 420 -92 668 -39 117 -49 160 -49 212 0
76 -15 121 -74 220 -98 164 -293 388 -425 488 -162 121 -401 215 -662 260
-354 61 -729 -30 -1070 -260 -194 -130 -333 -270 -468 -472 -139 -205 -143
-231 -137 -742 5 -366 6 -386 30 -484 49 -199 124 -358 249 -527 91 -122 188
-212 307 -285 58 -35 168 -105 245 -155 232 -153 323 -207 373 -223 204 -62
635 22 894 175 186 109 258 194 378 437 184 375 249 637 222 896 -31 293 -139
491 -459 841 -121 133 -148 171 -138 188 18 30 95 -11 192 -103 42 -40 148
-157 235 -262 181 -215 219 -282 263 -455 20 -80 28 -140 32 -250 11 -281 -33
-462 -206 -857 -22 -51 -48 -123 -57 -160 -25 -100 -48 -140 -133 -224 -198
-197 -506 -337 -889 -404 -97 -17 -457 -39 -659 -40 -72 0 -131 -1 -130 -1 16
-14 312 -114 414 -140 200 -52 276 -51 494 4 322 81 574 186 784 327 135 91
394 311 466 397 156 187 275 436 323 673 75 377 30 878 -109 1191 -14 31 -62
113 -108 183 -46 69 -122 185 -169 256 -47 72 -116 168 -153 215 -74 93 -99
141 -90 171 9 28 22 24 83 -23 69 -53 138 -136 193 -230 138 -237 221 -351
281 -388 56 -35 81 -78 127 -225 79 -245 106 -440 105 -750 0 -408 -46 -602
-207 -890 -69 -123 -336 -473 -416 -547 -195 -179 -556 -360 -922 -464 -341
-96 -334 -93 -380 -140 -42 -43 -42 -43 1 -28 24 8 107 19 184 25 461 32 782
139 1181 395 83 52 195 117 250 144 75 36 119 66 177 120 169 156 370 475 508
806 22 54 51 112 64 129 24 31 76 128 76 142 0 4 -13 -14 -29 -39 -31 -48 -57
-64 -91 -53 -27 9 -26 39 7 232 23 137 27 187 27 373 1 132 -4 250 -12 305
-65 431 -199 777 -397 1023 -233 289 -695 547 -1165 652 -216 48 -476 65 -532
34z m-6 -694 c192 -37 413 -126 573 -230 143 -94 321 -289 441 -482 49 -80 55
-108 24 -108 -36 0 -67 29 -172 158 -174 214 -287 311 -418 359 -25 9 -107 41
-183 70 -76 30 -182 66 -235 81 -89 24 -113 26 -292 26 -181 0 -202 -2 -295
-27 -122 -33 -314 -126 -409 -199 -145 -110 -274 -264 -337 -405 -49 -106 -69
-202 -69 -322 0 -178 32 -273 154 -456 118 -177 239 -296 363 -359 29 -14 97
-42 150 -62 54 -20 122 -44 150 -55 144 -52 345 4 477 134 106 105 158 242
159 422 1 206 -78 351 -233 429 -90 44 -161 53 -260 30 -117 -26 -160 -29
-160 -10 0 27 58 83 112 106 78 34 196 39 285 12 124 -38 250 -146 311 -268
45 -90 55 -156 49 -354 -3 -126 -10 -204 -21 -245 -49 -177 -204 -313 -433
-381 -205 -61 -474 -20 -688 105 -104 60 -250 205 -346 341 -40 58 -103 137
-140 175 -87 93 -94 119 -94 370 0 168 3 199 23 268 54 187 146 334 311 497
228 227 500 361 809 400 93 12 278 3 394 -20z m-27 -320 c44 -12 115 -40 158
-62 80 -42 105 -65 227 -218 34 -41 97 -119 141 -174 165 -204 278 -402 319
-562 63 -241 20 -510 -130 -821 -124 -258 -257 -415 -422 -499 -57 -29 -391
-110 -514 -125 -145 -18 -322 17 -439 86 -51 30 -76 68 -57 87 9 9 31 9 95 0
182 -28 247 -32 330 -23 180 21 274 71 340 182 73 123 35 148 -115 76 -161
-78 -249 -97 -443 -97 -66 0 -158 -5 -204 -10 -97 -13 -149 -1 -265 57 -301
152 -537 420 -592 674 -19 84 -14 135 16 171 29 35 45 17 93 -102 61 -153 124
-249 241 -366 157 -157 313 -246 482 -275 91 -15 342 -15 424 0 71 14 369 110
418 135 74 38 177 167 252 315 25 51 58 98 82 120 22 20 48 52 58 72 26 51 44
161 36 231 -6 60 -29 118 -46 118 -20 0 -42 -52 -51 -122 -27 -218 -37 -258
-63 -258 -31 0 -39 55 -30 208 5 81 8 176 8 212 -3 127 -70 258 -199 386 -191
190 -442 237 -657 122 -81 -43 -141 -113 -198 -233 -68 -142 -90 -213 -90
-287 0 -77 23 -130 81 -193 51 -55 111 -88 203 -111 37 -9 77 -25 89 -34 18
-15 19 -20 8 -34 -15 -18 -89 -41 -163 -51 -165 -24 -364 143 -449 376 -13 34
-39 83 -57 108 -63 81 -75 121 -70 230 3 73 10 111 30 159 113 275 372 481
688 548 99 20 333 12 435 -16z m-193 -824 c160 -78 210 -290 116 -486 -68
-140 -230 -260 -365 -268 -57 -4 -63 -3 -63 15 0 22 27 49 80 81 49 30 223
219 250 272 34 67 37 153 8 210 -40 78 -129 114 -185 75 -47 -33 -27 -99 26
-89 41 9 57 -22 37 -70 -17 -42 -42 -56 -96 -56 -79 0 -139 44 -161 120 -25
83 21 163 114 200 65 25 183 24 239 -4z"/>
<path d="M4400 5440 c-231 -22 -444 -143 -576 -327 -112 -154 -158 -360 -94
-418 34 -30 61 0 133 147 76 158 136 240 220 304 201 152 451 175 682 63 172
-84 353 -297 446 -524 21 -53 46 -94 74 -123 60 -61 79 -126 72 -251 -6 -113
-27 -178 -103 -326 -67 -130 -137 -243 -224 -360 -99 -132 -174 -268 -166
-301 6 -24 10 -26 46 -21 129 17 355 297 486 604 72 170 89 245 89 408 0 165
-13 214 -102 387 -104 203 -235 381 -399 538 -125 120 -254 183 -403 195 -36
4 -75 7 -86 9 -11 1 -54 -1 -95 -4z"/>
<path d="M7002 4220 c0 -14 2 -19 5 -12 2 6 2 18 0 25 -3 6 -5 1 -5 -13z"/>
<path d="M6991 4174 c0 -11 3 -14 6 -6 3 7 2 16 -1 19 -3 4 -6 -2 -5 -13z"/>
<path d="M6981 4124 c0 -11 3 -14 6 -6 3 7 2 16 -1 19 -3 4 -6 -2 -5 -13z"/>
<path d="M3450 3164 c145 -140 192 -179 292 -245 122 -80 193 -112 260 -117
50 -4 57 -2 68 18 21 38 -10 63 -182 151 -90 45 -212 112 -273 148 -60 36
-146 83 -190 106 -81 40 -81 40 25 -61z"/>
<path d="M5790 2430 c-118 -60 -248 -124 -287 -141 -40 -18 -71 -34 -69 -36 7
-7 160 58 286 121 127 64 290 154 290 162 0 6 12 12 -220 -106z"/>
<path d="M5390 2240 c-8 -5 -10 -10 -5 -10 6 0 17 5 25 10 8 5 11 10 5 10 -5
0 -17 -5 -25 -10z"/>
</g>
</svg>
