<?xml version="1.0" standalone="no"?>
<!DOCTYPE svg PUBLIC "-//W3C//DTD SVG 20010904//EN"
 "http://www.w3.org/TR/2001/REC-SVG-20010904/DTD/svg10.dtd">
<svg version="1.0" xmlns="http://www.w3.org/2000/svg"
 width="1000.000000pt" height="1000.000000pt" viewBox="0 0 1000.000000 1000.000000"
 preserveAspectRatio="xMidYMid meet">
<metadata>
  <rdf:RDF
    xmlns:rdf = "http://www.w3.org/1999/02/22-rdf-syntax-ns#"
    xmlns:rdfs = "http://www.w3.org/2000/01/rdf-schema#"
    xmlns:dc = "http://purl.org/dc/elements/1.1/"
    xmlns:cc = "http://creativecommons.org/ns#">
    <cc:license rdf:resource="http://creativecommons.org/publicdomain/zero/1.0/deed.en"/>
    <cc:permits rdf:resource="http://creativecommons.org/ns#Reproduction"/>
    <rdf:Description about="https://nft.mir.one/fingerprints"
      dc:title="TON Fingerprints"
      dc:description="This is a unique digital fingerprint created based on the algorithm for generating basic rings using a noise texture. Like human fingerprints, you can now use it for the Web3 and Metaverse era as digital biometric information."
      dc:publisher="https://nft.mir.one"
      dc:date="2022-02-22"
      dc:format="image/svg+xml"
      dc:language="en" >
      <dc:creator>
      <rdf:Bag>
        <rdf:li>EQBondcvD2_aOFADXSWJHs4ZazQDuEl9_wNvGGPxI8hGuOFU</rdf:li>
        <rdf:li>ipfs://bafkreihj7iub3fhmhq6jn62noukt5wxn3gv6bvcg7wmt6ywvlurefezckq</rdf:li>
      </rdf:Bag>
      </dc:creator>
    </rdf:Description>
  </rdf:RDF>
</metadata>
<rect width="100%" height="100%" fill="#1b1f23"/>
<g transform="translate(0.000000,1000.000000) scale(0.100000,-0.100000)"
fill="#ffffff" stroke="none">
<path d="M4612 7718 c-30 -30 -8 -58 47 -58 60 0 222 -34 333 -70 138 -46 312
-129 501 -240 138 -81 138 -81 205 -75 62 6 72 4 137 -28 150 -75 215 -150
396 -457 264 -451 350 -651 400 -940 48 -276 28 -829 -41 -1140 -37 -165 -102
-342 -150 -410 -11 -15 -46 -43 -78 -60 -31 -18 -95 -70 -142 -115 -47 -45
-114 -103 -150 -130 -36 -26 -146 -130 -245 -230 -194 -195 -280 -270 -418
-359 -224 -147 -478 -214 -707 -189 -159 18 -549 157 -705 252 -109 66 -123
72 -260 121 -234 84 -384 160 -513 262 -35 27 -88 63 -117 79 -54 30 -54 30
32 -97 95 -138 209 -266 279 -312 24 -17 93 -47 152 -67 59 -21 161 -58 227
-82 583 -216 570 -210 683 -297 41 -31 79 -56 85 -57 7 0 35 -4 62 -9 63 -10
239 4 353 30 317 70 560 202 829 450 132 121 419 435 519 567 47 62 89 115 93
117 18 12 36 -15 35 -54 -3 -107 -200 -382 -479 -668 -190 -197 -349 -314
-560 -417 -190 -92 -368 -147 -664 -205 -80 -15 -177 -40 -216 -55 -238 -91
-278 -97 -655 -105 -45 -1 -44 -2 48 -36 189 -69 350 -80 610 -39 291 45 452
85 702 171 349 120 528 230 780 483 259 260 493 592 585 829 52 137 132 407
160 545 58 290 70 645 35 1032 -11 121 -25 249 -31 285 -33 203 -184 524 -416
883 -35 54 -84 139 -109 190 -72 142 -204 267 -384 365 -91 49 -341 162 -464
209 -206 78 -436 122 -641 123 -61 0 -115 5 -121 10 -7 7 -14 6 -22 -2z"/>
<path d="M4607 7584 c-31 -31 28 -99 136 -154 152 -79 215 -120 264 -170 26
-28 96 -87 155 -131 59 -43 127 -103 152 -131 76 -86 424 -775 487 -963 23
-68 26 -116 19 -260 -2 -35 10 -94 39 -195 23 -80 53 -201 67 -270 24 -113 26
-141 21 -290 -4 -141 -9 -182 -35 -280 -34 -133 -80 -254 -163 -429 -81 -171
-149 -269 -270 -386 -184 -179 -204 -199 -236 -247 -78 -114 -257 -182 -348
-131 -25 14 -65 17 -235 18 -173 2 -218 6 -290 24 -174 44 -245 55 -276 39
-62 -29 -30 -80 81 -128 77 -33 275 -88 398 -110 139 -25 344 -27 455 -4 151
31 291 115 491 297 100 91 225 226 271 292 42 62 66 114 84 187 9 38 52 148
95 245 88 199 125 306 145 426 39 224 31 342 -39 597 -25 91 -64 255 -85 365
-67 337 -126 483 -363 898 -64 113 -90 168 -91 194 -1 21 4 38 12 40 48 17
299 -373 412 -641 65 -152 111 -302 161 -525 53 -237 72 -300 120 -388 52 -94
64 -183 49 -361 -24 -276 -75 -428 -238 -711 -50 -87 -66 -123 -66 -155 -1
-38 1 -41 28 -44 26 -3 40 7 112 82 244 254 315 430 363 906 11 107 27 242 36
300 51 355 -47 743 -302 1202 -136 245 -223 371 -328 474 -92 91 -209 165
-234 149 -16 -10 -13 -57 6 -85 9 -14 55 -66 103 -115 143 -150 255 -316 377
-560 153 -305 239 -598 250 -855 5 -105 3 -131 -11 -158 -18 -36 -40 -41 -55
-14 -5 10 -17 61 -26 113 -71 423 -144 655 -294 944 -127 245 -257 422 -367
501 -37 27 -113 91 -168 143 -185 171 -468 340 -696 415 -123 40 -163 49 -173
40z"/>
<path d="M4200 7450 c-102 -22 -139 -34 -295 -99 -120 -50 -120 -50 95 -49
241 2 300 -7 475 -69 223 -78 282 -95 355 -100 65 -5 78 -3 99 15 24 18 24 21
9 43 -17 26 -17 26 -228 128 -80 39 -178 89 -218 111 -66 36 -80 40 -140 39
-37 0 -105 -9 -152 -19z"/>
<path d="M3942 7139 c-64 -11 -164 -53 -253 -105 -60 -36 -271 -186 -266 -190
4 -4 126 26 187 46 180 59 422 84 593 61 133 -18 271 -57 375 -106 136 -65
342 -210 534 -378 107 -93 137 -114 190 -133 23 -8 55 -27 71 -42 32 -31 117
-160 202 -310 72 -124 113 -172 149 -172 23 0 26 4 26 34 0 54 -29 129 -118
311 -46 94 -108 225 -137 292 -128 299 -302 516 -454 568 -55 19 -161 20 -185
2 -33 -24 -10 -53 87 -111 51 -30 123 -80 161 -113 129 -108 273 -312 264
-374 -6 -42 -33 -33 -82 28 -84 102 -208 224 -327 319 -64 51 -138 119 -165
149 -26 31 -68 67 -93 80 -66 33 -312 111 -406 129 -105 19 -286 27 -353 15z"/>
<path d="M6320 7057 c0 -8 53 -90 117 -183 165 -237 250 -383 397 -678 70
-141 132 -256 137 -256 5 0 3 12 -5 28 -7 15 -39 90 -71 167 -138 340 -339
687 -510 883 -47 52 -65 63 -65 39z"/>
<path d="M3820 6795 c-120 -20 -231 -54 -285 -87 -52 -31 -190 -142 -284 -227
-55 -49 -55 -49 -5 -40 27 5 85 24 129 43 128 55 279 104 389 128 80 17 136
22 271 22 238 1 375 -30 591 -134 196 -95 479 -304 587 -435 66 -80 288 -465
334 -579 66 -165 77 -231 78 -436 0 -171 -2 -192 -28 -285 -53 -195 -174 -401
-314 -537 -96 -93 -190 -156 -355 -238 -232 -115 -384 -160 -544 -160 -65 0
-74 2 -74 18 0 36 47 63 201 113 265 87 447 188 624 345 132 117 209 213 265
329 63 131 81 203 87 358 11 245 -39 417 -200 689 -25 42 -55 106 -66 142 -26
84 -40 111 -95 178 -130 160 -439 357 -682 437 -213 69 -482 80 -704 28 -120
-28 -278 -85 -363 -130 -72 -38 -163 -135 -253 -269 -36 -54 -71 -98 -77 -98
-5 0 -8 -2 -5 -5 11 -12 77 23 193 101 188 126 354 198 566 246 132 29 379 31
499 4 247 -55 477 -169 674 -335 83 -70 159 -157 153 -175 -9 -27 -55 -16
-115 26 -284 198 -342 232 -502 293 -263 102 -555 106 -833 13 -178 -59 -446
-213 -523 -301 -43 -48 -90 -137 -119 -222 -21 -62 -39 -321 -32 -460 3 -55
22 -215 42 -355 41 -289 40 -318 -14 -299 -17 6 -46 28 -66 50 -19 21 -35 37
-35 34 0 -15 44 -89 71 -120 17 -19 51 -81 76 -137 89 -207 134 -267 280 -377
189 -143 469 -237 628 -211 33 5 76 14 95 20 68 19 146 12 220 -20 89 -39 192
-52 303 -40 102 12 131 22 276 95 63 31 163 74 223 96 60 21 130 51 156 66 73
43 215 186 283 285 116 169 215 410 250 608 19 106 16 325 -5 435 -40 209 -89
327 -203 485 -37 53 -99 147 -138 209 -92 149 -159 220 -356 377 -440 349
-688 456 -1052 453 -78 -1 -176 -7 -217 -14z m443 -760 c125 -19 286 -72 404
-134 123 -65 397 -254 453 -312 129 -135 205 -348 204 -574 0 -179 -42 -319
-118 -400 -33 -34 -77 -47 -91 -25 -3 5 10 56 29 112 95 279 56 556 -108 774
-121 161 -418 348 -651 411 -89 23 -118 26 -260 26 -132 0 -174 -3 -237 -21
-282 -77 -502 -236 -603 -432 -44 -87 -70 -174 -90 -306 -10 -60 -22 -112 -28
-116 -17 -10 -37 2 -55 36 -14 25 -17 55 -15 166 2 158 25 264 76 348 63 105
241 249 412 335 220 109 448 147 678 112z m115 -301 c245 -61 482 -239 581
-436 76 -153 81 -195 70 -620 -5 -157 -5 -157 -43 -212 -105 -153 -295 -276
-561 -366 -159 -54 -253 -73 -337 -68 -69 4 -72 5 -102 43 -17 21 -92 99 -167
174 -122 122 -140 145 -182 228 -61 122 -81 216 -75 347 10 203 105 401 251
525 95 80 257 141 377 141 72 0 178 -27 258 -65 82 -39 188 -132 229 -203 90
-152 87 -378 -5 -522 -34 -53 -191 -225 -236 -258 -38 -28 -116 -52 -171 -52
-99 0 -217 61 -260 134 -23 39 -64 176 -87 291 -29 144 42 303 163 370 75 40
132 40 224 -3 112 -53 169 -122 150 -182 -8 -26 -28 -25 -64 1 -17 13 -39 19
-57 17 -26 -3 -29 -7 -29 -37 0 -22 -6 -38 -18 -45 -15 -9 -22 -6 -43 18 -27
31 -26 62 3 119 25 50 -16 73 -75 43 -112 -58 -136 -216 -46 -300 65 -60 254
-86 339 -47 85 39 138 132 138 242 0 204 -196 360 -437 347 -72 -4 -96 -10
-159 -41 -131 -65 -232 -193 -271 -343 -20 -79 -21 -232 -1 -309 30 -114 82
-203 175 -296 138 -139 249 -178 416 -145 157 31 289 101 405 216 85 84 121
145 150 258 26 100 35 277 20 367 -45 255 -248 467 -527 547 -114 33 -298 33
-404 0 -254 -80 -419 -244 -530 -528 -58 -149 -70 -204 -70 -327 0 -176 41
-310 134 -441 80 -112 212 -213 343 -262 74 -28 86 -39 73 -65 -16 -28 -66
-42 -132 -36 -126 11 -323 138 -435 280 -103 132 -120 189 -144 482 -14 187
-9 228 43 296 22 30 47 70 55 89 103 247 148 327 241 420 213 212 522 292 830
214z"/>
<path d="M4078 4664 c-5 -4 -8 -20 -8 -35 0 -81 203 -150 299 -101 47 24 60
47 39 68 -25 25 -314 85 -330 68z"/>
<path d="M6914 5905 c-21 -32 -15 -153 17 -350 31 -190 34 -629 6 -830 -38
-266 -97 -495 -160 -620 -43 -85 -217 -382 -294 -500 -253 -386 -571 -705
-843 -844 -105 -54 -614 -226 -790 -268 -86 -20 -145 -26 -330 -33 -184 -6
-236 -11 -285 -28 -60 -20 -60 -20 -8 -21 90 -2 275 -31 343 -54 141 -48 391
-15 700 93 161 56 225 69 264 54 9 -3 16 -12 16 -19 0 -23 -153 -120 -412
-259 -31 -17 -55 -32 -54 -34 2 -1 59 16 127 38 226 74 348 150 354 219 2 27
19 41 182 150 260 173 349 250 519 453 181 215 309 411 445 682 45 89 96 182
115 208 54 76 73 122 108 261 83 325 120 719 97 1042 -14 185 -22 244 -62 453
-29 152 -30 208 -3 198 12 -4 12 -1 4 14 -15 27 -36 25 -56 -5z"/>
<path d="M5055 3761 c-107 -38 -175 -88 -175 -127 0 -21 4 -24 40 -24 78 0
222 70 247 120 25 50 -23 64 -112 31z"/>
<path d="M6749 3478 c-45 -87 -145 -238 -268 -403 -126 -167 -236 -325 -227
-325 8 0 236 299 309 407 99 145 227 363 212 363 -2 0 -14 -19 -26 -42z"/>
<path d="M3378 3298 c142 -113 304 -183 597 -257 108 -27 384 -73 401 -67 24
9 15 44 -18 70 -18 13 -80 40 -138 59 -173 58 -549 175 -635 197 -44 12 -107
30 -140 40 -33 10 -81 20 -107 23 -47 4 -47 4 40 -65z"/>
<path d="M3540 3020 c30 -11 98 -49 150 -85 174 -118 307 -162 455 -151 121
10 178 24 229 57 40 25 47 34 44 57 -3 24 -6 27 -38 24 -19 -2 -107 -5 -195
-5 -182 -2 -231 6 -450 79 -98 32 -149 44 -192 44 -58 -1 -58 -1 -3 -20z"/>
<path d="M6219 2713 c-24 -28 -24 -28 4 -4 25 23 32 31 24 31 -2 0 -14 -12
-28 -27z"/>
<path d="M6149 2643 c-13 -16 -12 -17 4 -4 16 13 21 21 13 21 -2 0 -10 -8 -17
-17z"/>
<path d="M5958 2517 c-70 -45 -135 -90 -145 -100 -19 -20 242 146 267 169 25
24 8 15 -122 -69z"/>
</g>
</svg>
