<?xml version="1.0" standalone="no"?>
<!DOCTYPE svg PUBLIC "-//W3C//DTD SVG 20010904//EN"
 "http://www.w3.org/TR/2001/REC-SVG-20010904/DTD/svg10.dtd">
<svg version="1.0" xmlns="http://www.w3.org/2000/svg"
 width="1000.000000pt" height="1000.000000pt" viewBox="0 0 1000.000000 1000.000000"
 preserveAspectRatio="xMidYMid meet">
<metadata>
  <rdf:RDF
    xmlns:rdf = "http://www.w3.org/1999/02/22-rdf-syntax-ns#"
    xmlns:rdfs = "http://www.w3.org/2000/01/rdf-schema#"
    xmlns:dc = "http://purl.org/dc/elements/1.1/"
    xmlns:cc = "http://creativecommons.org/ns#">
    <cc:license rdf:resource="http://creativecommons.org/publicdomain/zero/1.0/deed.en"/>
    <cc:permits rdf:resource="http://creativecommons.org/ns#Reproduction"/>
    <rdf:Description about="https://nft.mir.one/fingerprints"
      dc:title="TON Fingerprints"
      dc:description="This is a unique digital fingerprint created based on the algorithm for generating basic rings using a noise texture. Like human fingerprints, you can now use it for the Web3 and Metaverse era as digital biometric information."
      dc:publisher="https://nft.mir.one"
      dc:date="2022-02-22"
      dc:format="image/svg+xml"
      dc:language="en" >
      <dc:creator>
      <rdf:Bag>
        <rdf:li>EQBondcvD2_aOFADXSWJHs4ZazQDuEl9_wNvGGPxI8hGuOFU</rdf:li>
        <rdf:li>ipfs://bafkreihj7iub3fhmhq6jn62noukt5wxn3gv6bvcg7wmt6ywvlurefezckq</rdf:li>
      </rdf:Bag>
      </dc:creator>
    </rdf:Description>
  </rdf:RDF>
</metadata>
<rect width="100%" height="100%" fill="#1b1f23"/>
<g transform="translate(0.000000,1000.000000) scale(0.100000,-0.100000)"
fill="#ffffff" stroke="none">
<path d="M4700 7779 c-14 -6 -70 -21 -125 -34 -88 -21 -93 -24 -40 -18 57 5
215 49 215 58 0 8 -23 5 -50 -6z"/>
<path d="M4438 7713 c7 -3 16 -2 19 1 4 3 -2 6 -13 5 -11 0 -14 -3 -6 -6z"/>
<path d="M4968 7650 c-68 -12 -142 -38 -220 -76 -49 -25 -79 -48 -113 -91 -59
-73 -106 -111 -225 -181 -268 -157 -414 -266 -575 -427 -219 -218 -371 -472
-350 -583 14 -76 54 -47 138 101 189 330 508 607 945 820 142 69 142 69 452
73 296 2 310 2 310 -16 0 -46 -95 -80 -286 -100 -54 -6 -142 -15 -194 -21
-117 -13 -235 -51 -377 -123 -284 -143 -503 -329 -730 -622 -56 -72 -120 -150
-142 -173 -62 -65 -54 -124 14 -107 35 9 138 109 290 281 204 232 364 360 580
465 177 87 270 110 595 150 52 7 154 30 225 53 118 36 140 40 245 41 132 1
228 -17 395 -72 145 -48 373 -162 515 -257 109 -74 226 -145 237 -145 3 0 -43
51 -103 113 -363 375 -590 492 -1079 552 -89 11 -126 20 -145 35 -68 54 -194
87 -289 75 -213 -26 -233 -28 -241 -15 -23 38 57 98 158 119 73 15 214 14 292
-4 36 -7 126 -28 200 -44 74 -17 187 -43 250 -57 63 -14 156 -39 206 -55 115
-37 277 -78 267 -68 -5 4 -87 48 -183 98 -367 188 -824 301 -1062 261z"/>
<path d="M4435 7551 c-187 -68 -424 -220 -615 -395 -231 -212 -390 -435 -516
-722 -72 -167 -101 -269 -119 -428 -9 -72 -26 -201 -40 -286 -35 -229 -44
-329 -55 -586 -17 -446 18 -629 192 -994 99 -208 170 -310 218 -310 27 0 32
27 20 105 -20 124 -30 158 -91 297 -135 310 -170 466 -176 788 -6 259 6 392
62 735 24 143 39 280 45 395 12 223 35 308 129 468 171 293 466 560 870 787
136 77 184 115 179 142 -4 25 -42 26 -103 4z"/>
<path d="M5427 6980 c-76 -20 -134 -67 -110 -91 5 -5 69 -18 143 -29 246 -37
409 -89 620 -196 230 -117 447 -279 665 -497 77 -77 162 -161 188 -186 48 -45
48 -45 -21 75 -134 234 -229 361 -366 491 -179 170 -506 341 -779 409 -112 27
-279 39 -340 24z"/>
<path d="M4893 6870 c-311 -32 -624 -210 -874 -498 -194 -223 -287 -307 -367
-332 -73 -24 -114 -85 -166 -250 -67 -210 -96 -417 -96 -677 0 -280 34 -470
127 -703 64 -162 105 -231 192 -324 42 -45 113 -126 157 -181 86 -106 467
-506 531 -557 75 -60 232 -127 381 -163 44 -10 95 -32 130 -55 95 -61 196 -85
473 -111 127 -12 127 -12 143 -46 65 -136 397 -70 603 120 101 93 185 233 213
357 19 83 36 122 119 270 212 380 297 650 308 975 8 241 -31 545 -94 732 -89
268 -295 522 -576 712 -154 103 -500 291 -592 320 -210 67 -321 66 -501 -4
-65 -26 -159 -63 -209 -82 -116 -46 -191 -84 -348 -176 -117 -68 -147 -80
-255 -103 -13 -3 -69 -49 -124 -102 -251 -243 -354 -463 -365 -779 -8 -208 20
-368 108 -620 81 -229 163 -378 303 -542 71 -84 372 -363 463 -429 93 -67 197
-102 358 -122 97 -12 128 -28 109 -58 -17 -27 -110 -51 -201 -51 -203 -2 -354
90 -673 409 -338 338 -500 618 -582 1005 -20 97 -23 137 -23 340 1 213 2 238
27 341 55 234 110 330 305 535 70 74 160 180 200 235 136 192 338 340 573 422
158 55 268 61 372 21 26 -10 90 -25 143 -34 220 -35 429 -103 645 -211 269
-134 424 -240 599 -409 271 -261 405 -517 472 -900 26 -153 36 -439 20 -585
-33 -286 -137 -598 -306 -917 -30 -55 -97 -195 -150 -310 -117 -254 -160 -328
-225 -386 -96 -86 -311 -180 -545 -237 -159 -39 -180 -48 -230 -112 -76 -96
-215 -158 -445 -200 -91 -16 -165 -21 -355 -24 -132 -1 -278 -3 -325 -4 -85
-2 -85 -2 25 -25 205 -44 354 -58 540 -52 310 11 465 58 930 287 302 149 448
248 528 358 54 75 341 613 411 772 287 652 333 1368 126 1955 -69 194 -136
291 -334 482 -288 280 -613 467 -1006 578 -180 51 -207 63 -246 109 -35 41
-35 41 -187 43 -84 0 -189 -3 -234 -7z m583 -544 c86 -27 152 -82 128 -106 -7
-7 -49 -6 -140 6 -205 25 -360 9 -572 -62 -121 -40 -274 -116 -353 -176 -122
-92 -299 -259 -358 -338 -117 -156 -184 -334 -185 -495 -1 -106 18 -155 59
-155 32 0 50 36 86 171 15 58 40 135 54 170 59 141 191 302 298 363 29 16 64
25 117 30 41 3 131 21 200 40 233 65 417 86 610 67 221 -21 388 -81 531 -189
83 -63 199 -190 287 -312 60 -83 118 -140 143 -140 4 0 15 8 24 17 34 33 -14
169 -106 305 -60 88 -207 237 -292 296 -187 129 -295 161 -558 169 -292 9
-481 -23 -713 -119 -67 -27 -128 -50 -136 -51 -9 -1 -16 8 -18 21 -7 48 105
122 273 182 159 56 250 70 490 80 121 4 244 13 272 20 70 15 130 2 250 -55
129 -61 262 -155 368 -260 105 -104 169 -190 224 -301 55 -111 64 -152 62
-287 -1 -92 4 -148 25 -250 60 -304 20 -566 -135 -878 -67 -135 -147 -252
-223 -325 -98 -96 -450 -338 -628 -432 -169 -90 -334 -132 -517 -132 -92 0
-93 0 -93 25 0 20 10 30 49 50 69 35 187 81 311 121 221 73 408 187 631 387
200 178 357 421 445 687 24 74 28 101 28 210 1 120 0 128 -30 190 -55 117
-263 421 -371 544 -174 198 -378 285 -723 311 -199 15 -558 -57 -710 -143
-159 -89 -257 -237 -339 -510 -55 -183 -57 -207 -32 -290 26 -86 64 -131 202
-238 218 -169 356 -224 566 -224 132 0 228 20 332 71 136 67 238 191 270 329
15 66 13 217 -4 285 -34 133 -156 330 -237 381 -69 44 -148 64 -252 64 -168 0
-283 -45 -392 -154 -54 -55 -76 -85 -94 -131 -88 -232 13 -447 243 -517 197
-59 385 41 427 228 22 99 -29 219 -115 270 -63 36 -145 38 -200 4 -97 -60 -87
-210 13 -198 22 2 28 9 30 35 4 41 29 56 63 40 60 -31 62 -118 3 -174 -83 -78
-226 -47 -289 62 -70 118 -7 283 133 352 50 24 69 28 147 28 114 0 173 -24
245 -101 180 -191 148 -495 -68 -632 -26 -17 -80 -40 -120 -52 -63 -19 -89
-22 -175 -17 -125 6 -202 31 -303 99 -184 123 -253 283 -210 486 38 182 153
331 316 410 132 65 219 84 385 85 124 0 151 -3 235 -27 52 -15 138 -31 190
-35 117 -10 172 -35 266 -123 143 -134 244 -326 244 -464 0 -30 -5 -99 -11
-154 -13 -109 -3 -172 27 -184 39 -15 65 26 104 161 24 84 49 107 74 71 20
-29 21 -118 1 -184 -8 -28 -41 -87 -73 -132 -33 -44 -76 -114 -97 -154 -66
-126 -135 -219 -250 -338 -62 -63 -130 -143 -153 -176 -23 -34 -61 -78 -84
-99 -53 -45 -183 -109 -263 -129 -127 -31 -147 -30 -348 18 -103 25 -215 57
-248 72 -82 37 -142 108 -109 129 5 3 58 -7 117 -24 241 -67 456 -85 593 -47
132 36 250 107 250 152 0 23 -31 44 -63 44 -18 0 -86 -11 -153 -24 -174 -36
-273 -41 -450 -22 -83 9 -198 16 -255 16 -89 0 -111 4 -157 25 -76 35 -136 79
-225 164 -138 132 -185 212 -221 378 -14 60 -50 178 -82 263 -118 322 -114
304 -114 425 0 273 133 545 357 728 93 75 337 229 458 287 111 54 300 122 403
145 88 19 316 14 388 -9z m724 -2830 c43 -53 -184 -282 -376 -379 -75 -38
-255 -98 -284 -95 -20 2 -24 8 -22 28 4 37 63 92 160 146 112 62 251 154 328
215 71 56 142 99 165 99 9 0 22 -6 29 -14z"/>
<path d="M5527 5423 c-17 -17 -2 -57 54 -144 118 -183 148 -268 156 -434 15
-335 -141 -544 -473 -632 -86 -22 -119 -26 -259 -26 -288 -1 -409 45 -683 263
-71 57 -106 64 -124 25 -36 -79 179 -307 360 -380 136 -55 416 -86 608 -67
155 16 410 73 471 107 73 39 135 97 187 172 75 110 88 161 94 354 9 320 -39
480 -193 647 -86 94 -171 143 -198 115z"/>
<path d="M4805 6610 c-189 -50 -399 -164 -526 -287 -68 -66 -96 -110 -85 -138
11 -29 44 -15 182 78 155 103 280 167 429 221 178 64 232 101 191 132 -27 19
-105 17 -191 -6z"/>
<path d="M3001 5834 c0 -11 3 -14 6 -6 3 7 2 16 -1 19 -3 4 -6 -2 -5 -13z"/>
<path d="M2992 5775 c0 -16 2 -22 5 -12 2 9 2 23 0 30 -3 6 -5 -1 -5 -18z"/>
<path d="M2967 5615 c-23 -172 -37 -346 -37 -475 0 -58 -5 -150 -10 -204 -5
-55 -8 -101 -6 -103 1 -2 10 38 19 89 11 57 21 199 27 368 6 151 15 308 21
348 5 40 9 81 7 90 -2 9 -12 -41 -21 -113z"/>
<path d="M2902 4765 c0 -16 2 -22 5 -12 2 9 2 23 0 30 -3 6 -5 -1 -5 -18z"/>
<path d="M2935 4558 c11 -71 73 -283 120 -413 191 -527 472 -815 1030 -1056
54 -24 129 -65 165 -93 36 -27 86 -60 111 -72 92 -47 339 -97 658 -134 177
-20 223 -33 229 -61 11 -58 -303 -74 -648 -32 -69 8 -233 18 -365 23 -203 6
-251 11 -315 30 -41 12 -102 28 -135 35 -33 7 -69 16 -80 20 -11 4 7 -10 40
-30 291 -181 607 -264 1010 -265 149 0 352 25 435 54 70 24 204 101 234 135
16 18 16 22 2 49 -34 66 -166 139 -312 173 -349 81 -576 155 -754 244 -116 58
-143 68 -211 75 -156 15 -330 125 -601 376 -275 256 -300 288 -429 554 -126
258 -141 291 -166 360 -18 47 -23 55 -18 28z"/>
<path d="M3606 3994 c-13 -12 -15 -32 -10 -107 6 -83 10 -97 41 -145 97 -150
449 -431 526 -420 17 2 23 11 25 36 3 32 -7 45 -186 220 -145 144 -203 209
-251 282 -93 141 -117 163 -145 134z"/>
<path d="M3310 3385 c226 -270 450 -451 639 -516 128 -45 233 -44 239 0 6 39
-34 67 -171 122 -229 92 -372 173 -547 310 -52 41 -117 90 -145 108 -27 19
-61 43 -74 55 -14 12 13 -24 59 -79z"/>
</g>
</svg>
