<?xml version="1.0" standalone="no"?>
<!DOCTYPE svg PUBLIC "-//W3C//DTD SVG 20010904//EN"
 "http://www.w3.org/TR/2001/REC-SVG-20010904/DTD/svg10.dtd">
<svg version="1.0" xmlns="http://www.w3.org/2000/svg"
 width="1000.000000pt" height="1000.000000pt" viewBox="0 0 1000.000000 1000.000000"
 preserveAspectRatio="xMidYMid meet">
<metadata>
  <rdf:RDF
    xmlns:rdf = "http://www.w3.org/1999/02/22-rdf-syntax-ns#"
    xmlns:rdfs = "http://www.w3.org/2000/01/rdf-schema#"
    xmlns:dc = "http://purl.org/dc/elements/1.1/"
    xmlns:cc = "http://creativecommons.org/ns#">
    <cc:license rdf:resource="http://creativecommons.org/publicdomain/zero/1.0/deed.en"/>
    <cc:permits rdf:resource="http://creativecommons.org/ns#Reproduction"/>
    <rdf:Description about="https://nft.mir.one/fingerprints"
      dc:title="TON Fingerprints"
      dc:description="This is a unique digital fingerprint created based on the algorithm for generating basic rings using a noise texture. Like human fingerprints, you can now use it for the Web3 and Metaverse era as digital biometric information."
      dc:publisher="https://nft.mir.one"
      dc:date="2022-02-22"
      dc:format="image/svg+xml"
      dc:language="en" >
      <dc:creator>
      <rdf:Bag>
        <rdf:li>EQBondcvD2_aOFADXSWJHs4ZazQDuEl9_wNvGGPxI8hGuOFU</rdf:li>
        <rdf:li>ipfs://bafkreihj7iub3fhmhq6jn62noukt5wxn3gv6bvcg7wmt6ywvlurefezckq</rdf:li>
      </rdf:Bag>
      </dc:creator>
    </rdf:Description>
  </rdf:RDF>
</metadata>
<rect width="100%" height="100%" fill="#1b1f23"/>
<g transform="translate(0.000000,1000.000000) scale(0.100000,-0.100000)"
fill="#ffffff" stroke="none">
<path d="M4774 7772 c53 -57 140 -73 496 -92 338 -18 409 -19 370 -9 -101 26
-342 60 -493 69 -236 14 -347 28 -377 47 -23 15 -23 13 4 -15z"/>
<path d="M4720 7590 c-77 -10 -134 -41 -149 -82 -21 -56 -27 -62 -61 -69 -22
-5 -51 -1 -89 13 -68 23 -91 18 -231 -52 -189 -95 -359 -221 -550 -406 -118
-115 -175 -193 -154 -214 7 -7 22 -2 48 19 52 42 98 56 138 42 17 -6 32 -11
33 -11 2 0 40 32 86 71 113 95 241 180 374 246 220 111 266 120 400 78 106
-33 189 -48 435 -80 678 -88 1045 -215 1390 -483 107 -84 251 -229 337 -340
56 -72 167 -205 205 -247 17 -18 -84 168 -160 295 -96 161 -201 297 -332 434
-132 136 -196 186 -313 241 -246 116 -549 189 -1084 260 -356 47 -444 71 -451
122 -2 16 4 22 29 27 75 15 255 1 646 -49 325 -42 545 -90 823 -180 120 -38
260 -76 260 -69 0 10 -309 184 -388 219 -302 133 -529 176 -1137 219 -27 2
-75 0 -105 -4z"/>
<path d="M4492 7019 c-185 -22 -380 -117 -518 -255 -116 -115 -307 -416 -395
-620 -100 -233 -149 -454 -149 -668 1 -275 64 -555 177 -780 120 -240 262
-411 529 -637 173 -146 199 -174 215 -230 7 -23 24 -49 40 -59 50 -36 173 -79
257 -89 46 -6 88 -13 94 -17 5 -4 7 -21 4 -39 -8 -43 10 -50 96 -36 35 6 124
15 198 21 353 27 592 86 819 200 321 161 566 450 681 800 55 168 65 243 65
485 -1 408 -34 541 -204 815 -43 71 -46 79 -46 146 0 66 -3 75 -38 127 -60 87
-136 129 -167 93 -17 -22 10 -72 91 -166 38 -44 69 -86 69 -95 0 -19 -51 -20
-88 -1 -43 22 -124 114 -171 193 -52 88 -105 142 -191 198 -369 239 -939 323
-1323 195 -158 -53 -281 -132 -404 -258 -208 -214 -397 -591 -410 -823 -6 -97
4 -129 42 -129 32 0 55 34 116 176 62 146 112 240 193 364 204 310 407 460
702 516 132 24 410 15 554 -19 181 -43 336 -112 460 -206 70 -53 341 -332 428
-440 94 -117 186 -290 219 -411 26 -94 26 -420 0 -540 -55 -258 -172 -482
-340 -653 -133 -135 -251 -205 -467 -275 -230 -75 -369 -103 -617 -122 -154
-12 -213 -6 -333 31 -96 30 -142 61 -260 173 -58 56 -155 145 -217 199 -125
111 -205 197 -288 312 -144 201 -207 366 -254 660 -12 72 -30 161 -41 200 -67
233 35 605 255 935 177 266 363 414 608 484 132 38 248 49 442 43 407 -15 744
-110 1072 -303 53 -31 138 -77 188 -102 116 -57 172 -99 224 -166 72 -92 293
-513 327 -619 15 -50 16 -63 5 -90 -28 -69 -30 -112 -15 -302 13 -155 14 -214
5 -320 -34 -385 -173 -687 -441 -956 -322 -323 -724 -472 -1280 -473 -194 -1
-208 0 -255 22 -27 13 -88 30 -135 38 -101 18 -325 76 -430 111 -249 83 -654
400 -855 668 -115 154 -248 350 -279 412 -47 94 -101 319 -122 507 -13 121
-13 121 -9 -74 4 -202 14 -309 41 -444 12 -61 36 -117 106 -255 110 -212 156
-280 268 -391 142 -142 520 -412 727 -518 183 -94 407 -168 648 -214 270 -51
789 -9 1071 87 184 63 391 193 563 352 275 255 438 537 512 883 19 87 23 138
23 300 1 210 -13 315 -60 469 -20 64 -21 78 -10 90 12 11 18 11 43 -4 119 -70
192 -448 152 -780 -34 -278 -146 -556 -315 -781 -128 -170 -349 -376 -543
-506 -231 -154 -334 -187 -716 -228 -483 -51 -693 -42 -995 45 -226 65 -363
140 -855 469 -327 219 -392 275 -490 416 -32 47 -74 108 -93 135 -42 61 -37
43 37 -135 64 -154 114 -246 170 -317 29 -37 57 -58 117 -87 83 -40 480 -302
674 -444 63 -47 152 -102 196 -123 94 -45 278 -100 414 -124 125 -22 372 -31
458 -17 140 23 345 37 547 37 238 1 261 6 426 91 142 73 531 396 634 526 167
211 286 495 352 838 21 109 26 175 30 348 9 347 -19 495 -147 802 -151 362
-247 517 -435 706 -80 81 -143 133 -233 192 -406 267 -815 387 -1472 432 -162
11 -175 11 -278 -1z"/>
<path d="M3686 6801 c-4 -5 -47 -33 -97 -62 -50 -29 -101 -66 -114 -83 -54
-72 -160 -320 -229 -532 -142 -442 -176 -806 -107 -1124 45 -205 169 -437 363
-682 198 -250 596 -552 745 -565 92 -8 95 23 8 87 -212 155 -266 197 -351 271
-244 213 -453 519 -544 798 -55 169 -74 302 -73 516 0 216 17 332 77 543 72
249 154 432 272 605 77 114 97 160 85 204 -8 28 -25 41 -35 24z"/>
<path d="M4790 6280 c-158 -33 -270 -91 -357 -181 -52 -55 -249 -309 -316
-409 -102 -149 -255 -421 -267 -472 -19 -76 -7 -234 24 -342 65 -220 217 -443
416 -610 117 -98 237 -179 264 -177 11 1 46 4 76 7 42 4 68 1 112 -16 65 -24
116 -74 98 -95 -11 -14 -44 -6 -184 44 -76 27 -96 27 -96 0 0 -35 69 -95 130
-113 69 -21 95 -20 149 4 36 17 65 20 176 20 165 0 269 18 449 77 77 25 171
49 209 54 156 20 299 125 439 324 104 147 184 347 214 534 20 131 15 349 -11
430 -18 60 -65 114 -92 109 -16 -3 -19 -25 -24 -238 -5 -189 -11 -251 -27
-315 -64 -248 -163 -434 -320 -597 -128 -133 -212 -178 -212 -115 0 28 28 72
103 161 216 254 333 553 352 896 5 81 14 146 27 185 25 76 20 118 -26 209 -52
101 -125 196 -246 317 -155 156 -299 241 -483 289 -171 43 -428 52 -577 20z
m380 -194 c175 -2 189 -4 254 -29 238 -93 452 -322 513 -549 26 -94 23 -339
-5 -428 -26 -83 -129 -336 -172 -420 -76 -152 -251 -372 -341 -432 -30 -19
-88 -48 -129 -64 -68 -25 -87 -28 -205 -28 -130 0 -130 0 -318 61 -251 82
-337 132 -478 279 -116 122 -191 251 -235 404 -23 80 -26 104 -22 203 8 187
36 239 250 457 164 167 195 186 359 221 140 30 336 33 353 6 18 -30 -31 -63
-147 -98 -207 -63 -320 -139 -370 -247 -20 -43 -22 -62 -22 -232 1 -175 2
-189 27 -252 37 -97 85 -173 145 -228 235 -216 581 -174 709 85 27 55 29 68
29 170 0 100 -3 115 -28 167 -39 80 -107 152 -175 185 -75 37 -194 39 -257 6
-117 -62 -175 -189 -140 -308 42 -145 193 -209 282 -120 39 39 44 84 13 115
-26 26 -32 25 -58 -5 -27 -31 -36 -31 -62 -3 -66 71 35 181 139 150 116 -35
165 -169 106 -289 -45 -89 -121 -132 -236 -133 -195 -1 -361 213 -334 429 18
142 91 243 224 309 72 36 79 37 180 37 99 0 111 -2 175 -33 139 -66 250 -214
296 -396 34 -133 23 -235 -37 -355 -36 -71 -152 -190 -220 -225 -264 -133
-626 -19 -800 251 -85 131 -113 239 -113 436 0 128 -8 157 -44 157 -73 0 -127
-175 -106 -342 22 -176 94 -315 239 -458 131 -129 234 -187 426 -238 245 -65
449 -18 610 142 110 109 183 226 224 360 28 90 27 153 -3 224 -13 31 -35 96
-50 144 -14 47 -47 128 -73 180 -39 79 -61 108 -142 188 -77 76 -121 110 -222
169 -116 68 -127 77 -153 127 -53 102 -143 123 -369 87 -98 -15 -109 -16 -123
-1 -13 13 -14 20 -4 37 42 79 256 149 405 134 27 -3 133 -6 235 -7z"/>
<path d="M5218 5960 c-22 -14 -23 -48 -2 -78 8 -12 66 -60 129 -107 232 -174
316 -302 374 -577 19 -89 34 -136 46 -144 80 -59 107 213 39 414 -64 193 -239
384 -431 468 -65 29 -131 39 -155 24z"/>
<path d="M2941 5564 c0 -11 3 -14 6 -6 3 7 2 16 -1 19 -3 4 -6 -2 -5 -13z"/>
<path d="M2932 5460 c0 -19 2 -27 5 -17 2 9 2 25 0 35 -3 9 -5 1 -5 -18z"/>
<path d="M3245 3700 c-12 -20 48 -104 136 -192 87 -86 268 -214 457 -322 45
-26 82 -51 82 -56 0 -19 -32 -32 -69 -27 -57 7 -156 59 -324 170 -82 54 -172
109 -201 123 -51 25 -51 25 54 -77 138 -133 272 -245 351 -292 88 -52 533
-197 731 -239 144 -30 165 -32 363 -32 200 0 217 2 360 32 403 88 525 137 472
189 -13 13 -32 18 -70 17 -56 -2 -429 -59 -487 -74 -47 -13 -297 -13 -418 1
-201 21 -435 86 -598 164 -85 41 -94 48 -122 99 -36 64 -71 92 -257 216 -77
51 -198 134 -270 185 -178 126 -182 128 -190 115z"/>
<path d="M6826 3621 c-10 -11 -43 -37 -74 -58 -115 -79 -408 -333 -465 -403
-80 -98 -140 -135 -377 -230 -52 -21 -129 -56 -171 -79 -98 -53 -165 -76 -434
-149 -314 -86 -320 -87 -495 -86 -349 1 -686 92 -1117 301 -78 37 -137 63
-131 56 18 -22 202 -160 298 -223 299 -196 673 -310 1017 -310 137 0 208 15
283 60 36 21 83 46 105 54 68 26 465 134 568 155 112 23 214 70 389 182 62 40
154 91 203 114 90 42 90 42 39 38 -59 -6 -94 9 -94 39 0 13 48 69 133 157 74
75 169 181 212 236 43 55 92 115 108 133 17 17 28 32 26 32 -3 0 -14 -9 -23
-19z"/>
<path d="M5080 2990 c0 -5 5 -10 10 -10 6 0 10 5 10 10 0 6 -4 10 -10 10 -5 0
-10 -4 -10 -10z"/>
<path d="M5685 2569 c-38 -11 -157 -42 -264 -69 -194 -50 -221 -60 -221 -86 0
-60 235 -26 479 67 58 23 122 47 141 54 63 23 48 55 -25 54 -22 0 -71 -10
-110 -20z"/>
<path d="M4328 2333 c7 -3 16 -2 19 1 4 3 -2 6 -13 5 -11 0 -14 -3 -6 -6z"/>
<path d="M4425 2310 c224 -63 721 -100 935 -70 55 7 55 7 -23 9 -43 0 -122 10
-175 20 -53 11 -162 22 -242 25 -171 8 -421 22 -505 30 -60 6 -60 6 10 -14z"/>
<path d="M5438 2253 c7 -3 16 -2 19 1 4 3 -2 6 -13 5 -11 0 -14 -3 -6 -6z"/>
</g>
</svg>
