<?xml version="1.0" standalone="no"?>
<!DOCTYPE svg PUBLIC "-//W3C//DTD SVG 20010904//EN"
 "http://www.w3.org/TR/2001/REC-SVG-20010904/DTD/svg10.dtd">
<svg version="1.0" xmlns="http://www.w3.org/2000/svg"
 width="1000.000000pt" height="1000.000000pt" viewBox="0 0 1000.000000 1000.000000"
 preserveAspectRatio="xMidYMid meet">
<metadata>
  <rdf:RDF
    xmlns:rdf = "http://www.w3.org/1999/02/22-rdf-syntax-ns#"
    xmlns:rdfs = "http://www.w3.org/2000/01/rdf-schema#"
    xmlns:dc = "http://purl.org/dc/elements/1.1/"
    xmlns:cc = "http://creativecommons.org/ns#">
    <cc:license rdf:resource="http://creativecommons.org/publicdomain/zero/1.0/deed.en"/>
    <cc:permits rdf:resource="http://creativecommons.org/ns#Reproduction"/>
    <rdf:Description about="https://nft.mir.one/fingerprints"
      dc:title="TON Fingerprints"
      dc:description="This is a unique digital fingerprint created based on the algorithm for generating basic rings using a noise texture. Like human fingerprints, you can now use it for the Web3 and Metaverse era as digital biometric information."
      dc:publisher="https://nft.mir.one"
      dc:date="2022-02-22"
      dc:format="image/svg+xml"
      dc:language="en" >
      <dc:creator>
      <rdf:Bag>
        <rdf:li>EQBondcvD2_aOFADXSWJHs4ZazQDuEl9_wNvGGPxI8hGuOFU</rdf:li>
        <rdf:li>ipfs://bafkreihj7iub3fhmhq6jn62noukt5wxn3gv6bvcg7wmt6ywvlurefezckq</rdf:li>
      </rdf:Bag>
      </dc:creator>
    </rdf:Description>
  </rdf:RDF>
</metadata>
<rect width="100%" height="100%" fill="#1b1f23"/>
<g transform="translate(0.000000,1000.000000) scale(0.100000,-0.100000)"
fill="#ffffff" stroke="none">
<path d="M4558 7753 c7 -3 16 -2 19 1 4 3 -2 6 -13 5 -11 0 -14 -3 -6 -6z"/>
<path d="M4622 7730 c21 -11 54 -31 74 -45 87 -59 239 -84 534 -89 237 -3 275
-11 528 -117 78 -32 147 -59 152 -59 40 0 -37 66 -140 119 -237 123 -427 166
-860 191 -96 5 -209 12 -250 15 -75 6 -75 6 -38 -15z"/>
<path d="M4393 7575 c-62 -7 -156 -24 -210 -38 -153 -40 -161 -46 -53 -40 63
4 133 0 208 -12 92 -13 126 -14 184 -5 78 12 122 31 132 56 19 49 -69 62 -261
39z"/>
<path d="M5246 7464 c-22 -21 -20 -37 7 -61 34 -32 84 -54 327 -143 341 -125
365 -140 468 -294 41 -61 52 -87 50 -110 -2 -18 -9 -32 -18 -34 -8 -1 -58 32
-110 74 -132 105 -199 143 -411 230 -226 93 -310 133 -380 180 -88 60 -151 84
-249 97 -82 10 -99 9 -187 -11 -166 -38 -284 -79 -371 -131 -46 -27 -134 -66
-195 -87 -104 -36 -121 -38 -239 -40 -141 -2 -173 -12 -269 -84 -72 -54 -221
-193 -260 -241 -32 -41 -32 -41 12 -11 241 163 327 208 418 219 50 6 91 -8 91
-30 0 -7 -38 -34 -84 -60 -117 -65 -229 -151 -309 -236 -141 -150 -306 -398
-401 -603 -41 -88 -145 -353 -161 -408 -9 -31 77 92 128 181 151 272 379 553
737 910 207 206 207 206 311 246 171 66 399 141 481 157 102 21 264 21 347 0
36 -9 143 -49 236 -89 94 -39 230 -96 303 -125 73 -29 206 -88 295 -132 105
-51 186 -84 231 -94 39 -8 82 -22 96 -31 51 -33 195 -182 313 -323 67 -80 163
-189 214 -243 151 -160 197 -278 197 -512 1 -140 1 -140 -62 -365 -65 -238
-69 -259 -50 -278 21 -21 45 -13 86 32 95 103 116 189 117 476 0 230 -8 293
-62 465 -33 105 -53 143 -127 245 -35 47 -89 128 -122 180 -71 115 -150 222
-261 355 -126 152 -263 346 -263 372 0 19 5 23 29 23 60 0 144 -75 355 -320
164 -190 199 -236 267 -357 68 -123 61 -93 -11 44 -163 311 -432 634 -588 706
-37 16 -96 47 -133 69 -45 26 -93 44 -157 58 -50 10 -158 42 -239 69 -241 81
-361 101 -397 65z"/>
<path d="M4165 7379 c-136 -39 -305 -131 -305 -166 0 -12 7 -14 35 -9 66 13
323 86 368 105 55 24 74 52 51 75 -20 21 -63 19 -149 -5z"/>
<path d="M4690 7039 c-168 -20 -478 -111 -575 -170 -93 -55 -210 -172 -287
-287 -38 -57 -124 -169 -192 -250 -221 -266 -343 -441 -445 -642 -68 -133
-102 -233 -136 -403 -77 -390 -49 -718 81 -956 161 -292 676 -722 1002 -836
136 -47 189 -51 357 -25 125 19 212 24 525 30 322 7 389 11 476 29 114 23 218
64 315 121 144 85 209 155 244 261 14 40 30 60 103 120 48 40 149 134 225 209
76 74 163 151 193 170 174 111 276 219 360 381 24 47 53 95 64 107 21 22 50
30 50 13 0 -5 9 -11 21 -14 20 -5 20 -5 3 14 -16 18 -17 23 -1 96 9 42 15 79
12 81 -3 3 -5 1 -5 -5 0 -6 -68 -66 -150 -133 -129 -105 -163 -139 -234 -234
-123 -163 -152 -184 -175 -123 -14 36 3 96 60 210 49 97 52 106 61 217 29 371
32 386 65 414 43 36 57 95 50 214 -12 212 -112 400 -235 443 -23 8 -56 42
-114 117 -107 140 -244 280 -332 339 -72 49 -312 163 -471 226 -49 19 -162 58
-250 86 -111 35 -184 65 -235 96 -41 25 -102 54 -135 64 -75 23 -198 32 -295
20z m328 -169 c36 -13 41 -29 15 -52 -25 -21 -68 -33 -218 -58 -71 -12 -164
-33 -205 -46 -76 -24 -170 -75 -170 -93 0 -21 -140 -109 -299 -187 -146 -73
-167 -81 -174 -66 -14 31 10 70 60 98 26 14 107 57 178 95 140 75 181 108 172
133 -18 47 -164 -2 -313 -105 -70 -49 -104 -57 -104 -27 0 25 48 84 102 125
90 70 189 111 308 128 58 8 151 24 207 35 56 12 130 25 165 30 78 11 232 5
276 -10z m447 -239 c333 -89 585 -239 737 -440 69 -91 100 -161 164 -361 129
-409 173 -828 97 -912 -40 -45 -56 -12 -78 162 -9 69 -21 145 -27 170 -6 25
-12 108 -13 185 -1 136 -2 143 -42 260 -82 241 -154 367 -282 496 -161 162
-363 256 -650 304 -80 14 -138 16 -255 12 -233 -8 -391 -46 -641 -154 -82 -36
-211 -90 -285 -120 -74 -30 -152 -64 -174 -75 -64 -33 -144 -116 -203 -213
-76 -123 -151 -230 -249 -353 -122 -154 -160 -235 -204 -432 -13 -59 -34 -117
-57 -158 -32 -57 -37 -76 -41 -147 -9 -165 60 -327 220 -512 66 -77 113 -113
150 -113 82 0 15 187 -111 310 -75 72 -111 143 -131 261 -13 76 -10 171 7 176
21 7 53 -41 74 -112 55 -194 71 -237 98 -267 26 -29 31 -31 46 -18 25 21 15
159 -25 335 -28 122 -31 153 -27 245 5 119 25 191 69 244 35 43 65 47 74 10 4
-14 1 -82 -6 -150 -14 -132 -9 -239 15 -406 8 -54 19 -157 25 -230 11 -163 62
-407 95 -464 53 -91 203 -218 335 -284 191 -95 292 -111 740 -117 486 -7 660
11 660 66 0 25 -37 45 -122 67 -48 12 -148 18 -423 24 -247 5 -390 13 -457 24
-317 52 -533 225 -629 503 -61 178 -94 457 -85 728 10 320 24 379 112 472 42
45 81 69 274 166 321 162 504 217 714 217 269 -1 446 -105 656 -384 273 -366
353 -563 369 -916 5 -94 13 -175 20 -188 16 -30 61 -29 90 2 105 112 72 445
-74 735 -128 256 -256 433 -469 649 -189 192 -230 219 -366 248 -121 26 -343
15 -490 -24 -148 -39 -305 -102 -506 -204 -97 -48 -168 -78 -178 -75 -9 4 -16
18 -16 34 0 67 166 172 455 286 283 113 430 142 669 134 89 -3 190 -13 226
-21 36 -9 103 -18 150 -21 118 -9 204 -36 291 -93 179 -118 323 -317 440 -607
17 -44 34 -97 37 -117 4 -33 2 -38 -15 -38 -31 0 -66 46 -148 195 -43 77 -100
174 -129 215 -153 224 -443 415 -464 306 -2 -10 56 -76 160 -179 172 -170 196
-201 384 -502 153 -245 144 -222 256 -628 19 -70 21 -87 11 -153 -20 -140 -79
-227 -193 -284 -25 -13 -87 -52 -139 -88 -110 -77 -223 -128 -394 -178 -67
-20 -132 -42 -144 -50 -38 -24 -29 -52 25 -77 39 -17 66 -21 157 -21 61 -1
153 3 205 8 87 8 97 7 119 -11 16 -13 22 -26 18 -36 -7 -20 -132 -83 -241
-123 -57 -21 -89 -40 -115 -67 -45 -48 -94 -74 -180 -94 -87 -21 -940 -31
-1064 -13 -200 29 -357 109 -607 307 -58 46 -143 110 -190 142 -165 114 -327
316 -389 485 -73 204 -63 360 45 697 68 213 191 430 412 729 92 125 238 277
290 304 30 15 36 15 78 1 42 -14 52 -14 106 0 76 19 157 55 360 158 175 89
231 108 493 163 204 43 327 42 500 -5z m1074 -678 c21 -43 51 -116 66 -163 27
-86 67 -324 58 -347 -8 -20 -30 -15 -51 12 -26 33 -37 63 -66 180 -14 55 -39
144 -56 199 -28 93 -38 174 -23 189 18 18 36 0 72 -70z"/>
<path d="M4751 5885 c-304 -69 -609 -260 -695 -437 -117 -241 -98 -717 40
-998 39 -79 62 -110 133 -181 94 -94 183 -146 296 -173 81 -19 497 -30 639
-16 126 12 161 25 223 80 25 22 93 68 151 103 236 139 292 238 292 515 0 248
-86 475 -264 698 -37 47 -83 116 -101 152 -53 109 -152 188 -298 239 -61 22
-94 26 -212 29 -98 3 -159 -1 -204 -11z m364 -155 c180 -46 336 -154 253 -175
-13 -3 -67 8 -121 24 -139 43 -216 55 -327 48 -179 -9 -330 -77 -460 -207
-126 -125 -180 -262 -180 -458 0 -258 103 -457 324 -627 80 -61 93 -79 74
-102 -36 -44 -205 33 -313 142 -86 87 -128 156 -171 283 -83 246 -68 520 38
710 153 271 570 442 883 362z m-4 -255 c99 -17 215 -55 274 -90 65 -38 144
-131 186 -220 53 -109 72 -191 72 -305 0 -193 -72 -334 -228 -450 -177 -131
-416 -167 -571 -87 -41 21 -198 165 -252 230 -95 116 -145 250 -146 392 0 261
172 473 430 529 90 19 133 19 235 1z"/>
<path d="M4915 5356 c-82 -20 -146 -56 -206 -116 -64 -64 -93 -113 -115 -203
-63 -244 127 -526 390 -578 176 -36 384 78 467 256 77 163 36 389 -92 517
-108 108 -296 160 -444 124z m228 -164 c212 -94 219 -401 12 -507 -77 -40
-176 -42 -245 -6 -105 54 -154 129 -154 236 -1 219 198 361 387 277z"/>
<path d="M4987 5072 c-23 -25 -22 -63 2 -69 27 -7 33 -29 14 -49 -13 -13 -28
-15 -67 -10 -54 6 -76 -4 -76 -36 0 -49 77 -108 140 -108 106 0 183 105 149
204 -25 72 -122 112 -162 68z"/>
<path d="M6820 6355 c0 -5 5 -17 10 -25 5 -8 10 -10 10 -5 0 6 -5 17 -10 25
-5 8 -10 11 -10 5z"/>
<path d="M7071 4763 c-1 -6 -46 -78 -100 -160 -114 -170 -214 -282 -617 -689
-171 -173 -296 -291 -344 -324 -102 -70 -231 -134 -337 -166 -88 -27 -88 -27
-578 -34 -511 -7 -524 -8 -587 -52 -15 -10 -33 -36 -39 -56 -16 -56 7 -103 68
-142 108 -69 278 -94 592 -87 136 2 241 9 264 16 49 16 102 63 94 83 -5 14
-53 17 -369 21 -370 5 -475 15 -564 52 -43 18 -44 41 -1 49 48 9 837 -12 874
-23 18 -5 46 -19 62 -30 37 -26 81 -27 183 -1 216 56 430 171 635 344 107 90
355 343 441 450 89 111 207 353 278 570 30 93 53 174 50 180 -3 8 -5 7 -5 -1z"/>
<path d="M2982 4260 c15 -19 51 -90 82 -158 149 -333 291 -537 463 -664 164
-122 257 -178 688 -410 310 -168 378 -183 900 -199 389 -12 432 -9 590 31 249
65 488 168 626 272 185 139 365 375 573 751 38 69 38 69 -10 31 -27 -21 -85
-80 -129 -132 -115 -135 -307 -317 -429 -409 -185 -139 -354 -224 -639 -322
-285 -98 -274 -96 -597 -96 -308 1 -394 10 -525 60 -89 33 -138 69 -194 140
-43 55 -58 66 -137 101 -184 80 -383 185 -499 262 -225 148 -433 344 -593 561
-50 67 -114 143 -143 169 -48 43 -51 44 -27 12z"/>
<path d="M3377 3290 c146 -161 216 -226 366 -339 127 -96 243 -166 389 -236
213 -102 371 -131 584 -106 54 6 226 14 382 17 278 5 282 5 282 -15 0 -25 -30
-45 -86 -60 -23 -6 -145 -12 -271 -14 -228 -2 -230 -2 -269 -28 -27 -18 -58
-28 -100 -31 -71 -7 -117 -26 -122 -50 -2 -12 5 -19 25 -23 15 -4 60 -18 98
-32 167 -60 206 -72 302 -87 204 -32 436 -15 668 49 75 21 82 24 40 20 -422
-41 -450 -42 -617 -20 -179 23 -289 60 -305 101 -9 24 2 26 74 15 37 -6 127
-15 199 -21 187 -15 278 -3 530 69 391 113 541 185 799 386 126 98 129 101 75
76 -25 -11 -72 -31 -105 -45 -33 -13 -103 -43 -155 -66 -176 -78 -425 -148
-612 -172 -93 -11 -94 -11 -153 16 -75 34 -197 45 -510 46 -252 0 -370 14
-508 60 -187 63 -580 269 -815 428 -79 53 -174 114 -210 135 -36 21 -75 45
-86 55 -11 9 39 -48 111 -128z"/>
<path d="M3815 2682 c27 -26 291 -174 451 -252 99 -48 205 -104 235 -123 30
-19 74 -44 99 -56 25 -12 36 -16 25 -9 -45 29 -105 97 -111 126 -8 42 -14 46
-135 91 -57 22 -153 60 -214 86 -60 26 -148 62 -195 81 -47 18 -103 40 -125
49 -22 9 -35 13 -30 7z"/>
<path d="M5728 2363 c7 -3 16 -2 19 1 4 3 -2 6 -13 5 -11 0 -14 -3 -6 -6z"/>
</g>
</svg>
