<?xml version="1.0" standalone="no"?>
<!DOCTYPE svg PUBLIC "-//W3C//DTD SVG 20010904//EN"
 "http://www.w3.org/TR/2001/REC-SVG-20010904/DTD/svg10.dtd">
<svg version="1.0" xmlns="http://www.w3.org/2000/svg"
 width="1000.000000pt" height="1000.000000pt" viewBox="0 0 1000.000000 1000.000000"
 preserveAspectRatio="xMidYMid meet">
<metadata>
  <rdf:RDF
    xmlns:rdf = "http://www.w3.org/1999/02/22-rdf-syntax-ns#"
    xmlns:rdfs = "http://www.w3.org/2000/01/rdf-schema#"
    xmlns:dc = "http://purl.org/dc/elements/1.1/"
    xmlns:cc = "http://creativecommons.org/ns#">
    <cc:license rdf:resource="http://creativecommons.org/publicdomain/zero/1.0/deed.en"/>
    <cc:permits rdf:resource="http://creativecommons.org/ns#Reproduction"/>
    <rdf:Description about="https://nft.mir.one/fingerprints"
      dc:title="TON Fingerprints"
      dc:description="This is a unique digital fingerprint created based on the algorithm for generating basic rings using a noise texture. Like human fingerprints, you can now use it for the Web3 and Metaverse era as digital biometric information."
      dc:publisher="https://nft.mir.one"
      dc:date="2022-02-22"
      dc:format="image/svg+xml"
      dc:language="en" >
      <dc:creator>
      <rdf:Bag>
        <rdf:li>EQBondcvD2_aOFADXSWJHs4ZazQDuEl9_wNvGGPxI8hGuOFU</rdf:li>
        <rdf:li>ipfs://bafkreihj7iub3fhmhq6jn62noukt5wxn3gv6bvcg7wmt6ywvlurefezckq</rdf:li>
      </rdf:Bag>
      </dc:creator>
    </rdf:Description>
  </rdf:RDF>
</metadata>
<rect width="100%" height="100%" fill="#1b1f23"/>
<g transform="translate(0.000000,1000.000000) scale(0.100000,-0.100000)"
fill="#ffffff" stroke="none">
<path d="M4920 7734 c-272 -35 -577 -170 -718 -318 -23 -25 -98 -84 -165 -132
-313 -224 -499 -396 -750 -695 -47 -56 -47 -56 27 -19 40 20 86 46 102 57 53
38 154 83 252 115 130 41 152 53 273 150 144 115 173 132 434 257 256 123 353
154 533 173 375 39 1026 -155 1442 -430 126 -83 335 -271 381 -341 34 -53 49
-68 28 -28 -27 50 -116 177 -175 247 -83 101 -188 200 -304 286 -239 177 -432
269 -780 370 -207 60 -322 77 -480 71 -173 -7 -283 -33 -509 -119 -117 -44
-172 -51 -198 -25 -15 15 -14 19 21 52 48 45 229 134 366 179 161 54 269 69
435 63 166 -6 186 -11 530 -137 138 -50 300 -109 361 -130 61 -20 120 -43 132
-49 12 -6 22 -10 22 -7 0 9 -199 117 -324 176 -179 86 -437 188 -530 211 -80
19 -324 33 -406 23z"/>
<path d="M4837 7189 c-154 -16 -277 -63 -293 -111 -12 -38 18 -49 111 -41 118
12 338 8 433 -6 46 -7 147 -28 225 -47 78 -19 188 -42 245 -50 130 -18 201
-41 330 -109 56 -30 128 -62 160 -71 222 -63 402 -278 616 -738 105 -226 116
-261 126 -396 4 -63 20 -164 34 -225 42 -181 56 -291 62 -465 18 -494 -146
-1156 -382 -1553 -52 -86 -79 -113 -157 -154 -55 -29 -90 -60 -180 -157 -386
-419 -571 -569 -903 -735 -132 -66 -290 -156 -259 -147 358 99 527 170 722
302 202 137 364 290 550 521 63 78 124 145 136 149 50 16 62 -73 23 -168 -13
-32 -22 -58 -20 -58 7 0 63 117 95 200 17 47 60 139 95 205 373 711 492 1575
304 2203 -17 57 -29 110 -26 118 9 25 40 15 105 -32 63 -46 63 -46 -11 63 -54
79 -89 146 -132 253 -86 211 -207 460 -273 559 -71 107 -183 220 -286 290 -91
61 -316 173 -463 231 -184 72 -523 151 -729 170 -122 11 -145 11 -258 -1z"/>
<path d="M4523 6959 c-27 -10 -29 -35 -8 -66 21 -30 109 -57 320 -98 221 -43
378 -92 480 -150 82 -47 207 -138 368 -268 140 -113 212 -149 232 -117 16 27
-81 139 -240 278 -66 58 -154 139 -195 182 -67 68 -84 81 -157 108 -170 66
-304 92 -587 117 -99 9 -182 18 -185 19 -3 2 -16 0 -28 -5z"/>
<path d="M4237 6816 c-133 -48 -179 -152 -87 -198 27 -14 60 -18 140 -18 125
0 229 -16 492 -75 347 -78 465 -126 703 -282 363 -239 535 -378 646 -526 95
-125 121 -189 130 -316 5 -58 19 -153 33 -211 14 -58 37 -170 52 -250 32 -180
44 -210 79 -210 51 0 73 111 55 283 -15 146 -55 380 -85 497 -44 169 -180 413
-272 490 -21 17 -110 70 -198 116 -88 47 -212 122 -275 167 -376 267 -466 310
-840 396 -204 47 -262 66 -355 115 -55 29 -78 36 -124 36 -31 -1 -73 -7 -94
-14z"/>
<path d="M5568 6814 c-5 -4 -8 -18 -8 -30 0 -18 24 -42 93 -97 176 -141 297
-291 316 -392 12 -63 84 -138 129 -133 64 7 33 102 -115 351 -87 146 -151 213
-255 266 -65 33 -146 50 -160 35z"/>
<path d="M6027 6653 c-16 -15 -3 -46 57 -134 93 -139 120 -191 165 -324 22
-66 75 -190 119 -275 89 -177 140 -320 177 -502 41 -205 57 -334 57 -478 0
-123 -3 -147 -36 -270 -19 -74 -44 -191 -56 -260 -68 -401 -175 -666 -368
-915 -97 -126 -557 -592 -659 -669 -152 -114 -354 -206 -539 -246 -75 -17
-148 -23 -299 -27 -224 -6 -308 2 -506 48 -88 20 -152 29 -206 28 -78 -1 -78
-1 -33 -13 25 -7 86 -30 135 -50 254 -106 285 -116 396 -135 187 -32 400 -45
510 -31 211 25 469 150 704 339 84 68 614 601 684 688 201 252 367 769 422
1323 13 129 7 315 -15 460 -27 177 -87 461 -116 551 -36 109 -188 435 -271
580 -117 204 -276 359 -322 312z"/>
<path d="M3641 6534 c-73 -26 -230 -126 -287 -183 -146 -144 -248 -335 -354
-660 -39 -117 -70 -216 -70 -220 0 -12 90 154 144 266 94 196 221 367 313 424
38 24 96 23 101 -2 1 -8 -34 -71 -79 -140 -98 -150 -178 -306 -212 -416 -39
-123 -42 -165 -18 -265 18 -74 21 -113 19 -275 -2 -180 -1 -192 25 -277 35
-113 83 -216 138 -297 52 -77 176 -201 244 -244 84 -53 68 -49 445 -97 102
-13 262 -5 345 17 150 40 314 149 400 266 79 108 108 215 109 409 1 138 -12
197 -66 304 -61 121 -145 209 -278 291 -98 60 -130 117 -74 131 35 9 136 -20
204 -59 146 -83 299 -314 337 -507 29 -145 -7 -381 -79 -523 -102 -204 -310
-367 -548 -433 -93 -25 -317 -25 -473 0 -125 21 -169 17 -175 -17 -17 -85 189
-150 468 -150 164 1 256 19 363 74 121 61 293 200 387 314 122 146 169 259
195 468 9 67 25 148 36 179 15 42 19 68 14 95 -9 54 -70 170 -153 296 -42 64
-74 123 -77 145 -3 20 -8 46 -10 58 -10 47 -219 169 -345 200 -81 20 -143 14
-264 -28 -162 -55 -235 -95 -307 -167 -101 -101 -147 -208 -129 -300 59 -297
87 -378 159 -450 69 -69 112 -86 221 -86 108 0 133 9 208 78 53 49 72 89 72
152 0 60 -19 103 -63 142 -101 89 -227 47 -227 -75 0 -60 62 -106 97 -71 18
18 43 2 43 -26 0 -78 -130 -101 -209 -37 -20 16 -47 51 -61 78 -34 66 -36 198
-3 259 46 86 119 130 202 122 226 -21 406 -261 357 -475 -10 -42 -153 -167
-246 -216 -164 -86 -345 -65 -477 57 -81 74 -124 174 -149 342 -22 154 -44
188 -90 144 -50 -47 -55 -195 -14 -368 38 -156 106 -248 229 -311 241 -121
532 -57 697 153 49 61 76 71 82 28 11 -76 -114 -228 -240 -289 -114 -56 -214
-75 -348 -69 -63 3 -144 13 -180 22 -108 28 -224 89 -285 150 -57 58 -73 97
-61 158 3 17 -3 86 -14 152 -23 143 -25 277 -5 362 18 77 120 310 183 418 61
104 194 239 279 283 187 98 471 79 722 -47 293 -148 403 -208 486 -266 52 -36
118 -77 147 -90 93 -43 144 -106 239 -296 61 -123 111 -270 134 -402 26 -144
17 -376 -19 -509 -48 -182 -130 -337 -238 -453 -80 -86 -156 -129 -252 -145
-38 -6 -110 -28 -160 -49 -161 -68 -262 -93 -451 -111 -222 -21 -419 -7 -593
40 -123 34 -222 92 -222 131 0 24 26 28 95 13 33 -7 92 -20 131 -28 112 -25
267 -34 404 -25 421 29 421 29 513 75 26 14 66 41 88 61 44 40 157 204 183
267 18 43 21 102 7 139 -7 18 -2 41 25 100 51 116 75 218 81 342 8 166 -24
293 -84 332 -44 29 -53 1 -53 -153 0 -201 -34 -338 -110 -450 -70 -101 -431
-433 -543 -498 -99 -58 -282 -77 -522 -52 -88 9 -182 18 -208 21 -102 9 -147
41 -340 240 -98 101 -196 206 -217 232 -85 107 -167 300 -241 563 -50 177
-129 336 -129 258 0 -67 60 -403 96 -541 9 -34 24 -109 35 -166 36 -202 87
-278 354 -524 66 -61 161 -149 210 -196 201 -193 259 -232 415 -284 321 -107
676 -94 1120 43 195 60 343 129 423 198 269 229 427 640 387 1002 -25 222 -75
373 -264 795 -119 267 -121 270 -236 386 -119 119 -236 201 -432 304 -74 38
-128 73 -128 81 0 8 11 20 25 26 39 17 123 -6 244 -68 280 -143 536 -389 609
-584 11 -30 33 -89 48 -130 15 -41 51 -122 79 -180 29 -58 68 -148 88 -200 45
-122 104 -359 117 -477 36 -320 -112 -718 -362 -979 -153 -160 -241 -213 -445
-269 -70 -20 -184 -52 -252 -71 -239 -66 -325 -78 -541 -78 -163 0 -213 3
-303 22 -140 29 -270 73 -382 129 -140 71 -188 105 -288 209 -144 150 -517
458 -517 427 0 -22 190 -273 289 -381 67 -73 121 -139 121 -148 0 -26 -30 -28
-99 -6 -36 11 -77 24 -91 27 -25 6 -25 6 0 -14 58 -48 101 -73 179 -106 46
-18 88 -38 94 -44 19 -15 409 -179 491 -205 263 -86 577 -103 846 -47 126 27
148 33 335 97 174 59 191 62 221 39 18 -15 17 -17 -24 -55 -88 -80 -331 -179
-544 -222 -97 -20 -143 -23 -323 -23 -300 1 -448 32 -718 154 -192 87 -286
121 -356 128 -31 3 -54 3 -51 1 3 -3 84 -55 179 -117 96 -62 197 -132 224
-156 125 -109 355 -171 673 -182 260 -9 463 24 663 107 189 80 303 165 385
289 30 46 85 104 167 177 286 255 445 482 544 777 52 155 75 276 82 423 6 131
6 131 -35 220 -23 49 -53 132 -67 184 -80 292 -104 350 -186 457 -61 79 -92
143 -87 181 5 43 27 32 87 -41 65 -79 85 -94 107 -77 21 18 18 40 -17 109 -20
40 -47 74 -77 99 -26 20 -107 98 -180 174 -140 144 -211 206 -357 310 -198
142 -352 220 -490 251 -427 97 -677 127 -745 92 -43 -22 -54 -49 -35 -79 21
-32 43 -40 225 -81 274 -62 331 -86 406 -172 53 -60 63 -68 292 -217 195 -127
332 -265 332 -333 0 -47 -28 -36 -122 46 -103 90 -175 141 -413 286 -279 171
-306 184 -536 241 -75 18 -175 47 -223 65 -137 49 -207 33 -326 -78 -113 -105
-301 -421 -364 -613 -36 -109 -65 -264 -72 -382 -10 -162 11 -284 83 -471 21
-56 10 -72 -39 -55 -50 18 -102 104 -138 229 -45 155 -36 555 15 735 14 49 66
172 115 274 63 130 96 212 111 275 24 101 34 125 94 210 60 84 75 118 75 164
0 31 -5 44 -22 55 -37 24 -70 26 -117 10z m1629 -2384 c0 -20 -152 -209 -219
-273 -96 -90 -222 -152 -260 -128 -25 16 0 51 82 113 45 34 132 110 192 169
61 58 119 111 130 117 25 14 75 15 75 2z"/>
<path d="M5037 5523 c-16 -16 -1 -39 86 -136 123 -136 161 -183 241 -301 136
-200 169 -298 169 -501 0 -142 -11 -208 -69 -408 -41 -142 -74 -216 -138 -316
-53 -82 -68 -134 -42 -144 58 -22 200 122 283 288 194 385 170 824 -66 1177
-72 108 -261 278 -368 332 -33 16 -84 21 -96 9z"/>
<path d="M3039 5299 c-27 -51 -5 -185 37 -219 14 -12 18 -12 30 5 18 24 17 52
-1 139 -20 93 -42 119 -66 75z"/>
<path d="M3715 2815 c17 -8 37 -14 45 -14 8 0 2 7 -15 14 -16 8 -37 14 -45 14
-8 0 -1 -7 15 -14z"/>
<path d="M4675 2233 c78 -18 96 -20 89 -13 -5 5 -31 11 -59 13 -27 3 -41 3
-30 0z"/>
</g>
</svg>
