<?xml version="1.0" standalone="no"?>
<!DOCTYPE svg PUBLIC "-//W3C//DTD SVG 20010904//EN"
 "http://www.w3.org/TR/2001/REC-SVG-20010904/DTD/svg10.dtd">
<svg version="1.0" xmlns="http://www.w3.org/2000/svg"
 width="1000.000000pt" height="1000.000000pt" viewBox="0 0 1000.000000 1000.000000"
 preserveAspectRatio="xMidYMid meet">
<metadata>
  <rdf:RDF
    xmlns:rdf = "http://www.w3.org/1999/02/22-rdf-syntax-ns#"
    xmlns:rdfs = "http://www.w3.org/2000/01/rdf-schema#"
    xmlns:dc = "http://purl.org/dc/elements/1.1/"
    xmlns:cc = "http://creativecommons.org/ns#">
    <cc:license rdf:resource="http://creativecommons.org/publicdomain/zero/1.0/deed.en"/>
    <cc:permits rdf:resource="http://creativecommons.org/ns#Reproduction"/>
    <rdf:Description about="https://nft.mir.one/fingerprints"
      dc:title="TON Fingerprints"
      dc:description="This is a unique digital fingerprint created based on the algorithm for generating basic rings using a noise texture. Like human fingerprints, you can now use it for the Web3 and Metaverse era as digital biometric information."
      dc:publisher="https://nft.mir.one"
      dc:date="2022-02-22"
      dc:format="image/svg+xml"
      dc:language="en" >
      <dc:creator>
      <rdf:Bag>
        <rdf:li>EQBondcvD2_aOFADXSWJHs4ZazQDuEl9_wNvGGPxI8hGuOFU</rdf:li>
        <rdf:li>ipfs://bafkreihj7iub3fhmhq6jn62noukt5wxn3gv6bvcg7wmt6ywvlurefezckq</rdf:li>
      </rdf:Bag>
      </dc:creator>
    </rdf:Description>
  </rdf:RDF>
</metadata>
<rect width="100%" height="100%" fill="#1b1f23"/>
<g transform="translate(0.000000,1000.000000) scale(0.100000,-0.100000)"
fill="#ffffff" stroke="none">
<path d="M4690 7731 c73 -34 118 -45 315 -81 127 -23 365 -70 530 -105 291
-61 513 -91 438 -60 -18 8 -142 50 -275 93 -347 114 -524 151 -828 172 -85 5
-180 12 -210 15 -55 6 -55 6 30 -34z"/>
<path d="M4225 7559 c-144 -23 -135 -19 -90 -36 22 -8 91 -26 154 -39 199 -42
262 -70 247 -109 -3 -9 -23 -23 -43 -32 -32 -13 -57 -14 -153 -7 -215 15 -325
2 -507 -63 -56 -21 -101 -38 -100 -40 2 -1 59 -7 128 -12 89 -7 144 -17 194
-35 111 -40 148 -45 365 -50 227 -6 253 -11 405 -76 213 -91 302 -145 560
-343 394 -303 487 -391 954 -907 102 -113 260 -281 352 -375 164 -169 205
-221 289 -365 37 -63 110 -160 110 -146 0 25 -92 341 -130 443 -43 119 -47
137 -37 168 25 83 -60 275 -210 473 -236 311 -570 710 -692 824 -90 85 -196
155 -356 233 -150 74 -210 95 -265 95 -37 0 -40 -2 -40 -29 0 -40 54 -87 246
-213 87 -57 193 -132 234 -165 196 -159 603 -619 916 -1035 129 -172 142 -194
127 -209 -16 -16 -52 -5 -100 30 -23 17 -124 128 -226 248 -326 386 -554 635
-707 771 -52 47 -198 163 -325 259 -126 95 -255 194 -285 219 -31 26 -120 77
-205 119 -161 78 -207 114 -188 143 20 31 146 22 307 -23 134 -38 140 -38 215
-28 91 13 165 4 276 -33 177 -59 362 -153 476 -240 43 -33 64 -59 93 -116 22
-44 79 -123 138 -194 56 -65 164 -202 241 -304 78 -102 177 -232 220 -290 68
-90 147 -189 180 -225 15 -17 -128 266 -180 355 -114 196 -258 428 -293 475
-21 28 -78 94 -129 147 -90 97 -101 120 -60 131 18 5 125 -19 184 -42 30 -12
30 -12 0 13 -30 25 -66 48 -323 213 -217 138 -368 205 -557 248 -171 39 -626
105 -760 111 -118 5 -155 11 -235 36 -82 26 -113 31 -225 34 -71 1 -157 -1
-190 -7z"/>
<path d="M3852 7095 c-130 -31 -302 -149 -302 -206 0 -25 -16 -39 -166 -145
-45 -31 -45 -31 1 -37 24 -4 50 -5 57 -2 7 2 92 6 188 9 96 4 216 10 265 16
153 16 269 12 440 -16 161 -27 161 -27 225 5 75 36 152 41 260 15 91 -21 221
-86 259 -129 62 -71 31 -79 -113 -32 -250 82 -406 101 -406 48 0 -29 28 -58
77 -81 84 -40 307 -91 433 -99 135 -8 180 -26 330 -126 128 -85 220 -168 339
-305 55 -63 171 -182 258 -263 276 -259 507 -517 637 -711 83 -124 155 -265
252 -496 66 -157 120 -258 131 -246 7 7 -30 292 -53 406 -29 145 -54 212 -121
322 -107 178 -292 389 -793 906 -356 369 -408 417 -598 559 -84 63 -183 142
-220 175 -248 222 -491 298 -906 285 -134 -4 -176 -9 -251 -31 -188 -55 -469
-92 -500 -66 -14 12 -13 15 6 36 27 29 110 56 254 84 135 27 195 51 195 79 0
45 -89 68 -178 46z"/>
<path d="M3920 6614 c-222 -20 -368 -36 -411 -45 -67 -14 -165 -82 -277 -191
-89 -86 -89 -86 -53 -81 20 3 61 16 91 28 195 79 345 112 675 145 110 11 215
25 233 31 62 20 60 68 -4 95 -35 15 -177 25 -254 18z"/>
<path d="M4271 6425 c-84 -39 -144 -53 -326 -75 -280 -33 -431 -67 -583 -129
-80 -32 -121 -65 -234 -190 -42 -47 -87 -90 -99 -96 -20 -11 -17 -13 27 -18
52 -5 89 8 169 63 111 76 311 155 464 184 235 45 659 63 785 35 55 -13 62 -18
86 -59 36 -62 86 -92 289 -175 97 -40 253 -107 346 -150 94 -43 208 -94 255
-114 79 -35 296 -163 452 -267 178 -120 483 -500 599 -749 50 -105 53 -210 7
-203 -16 2 -43 39 -103 139 -216 365 -490 701 -605 741 -29 9 -35 9 -47 -7
-24 -35 -3 -71 200 -343 73 -97 177 -242 232 -321 125 -180 178 -239 253 -279
48 -26 67 -44 105 -101 27 -41 69 -87 101 -111 68 -51 116 -122 165 -243 21
-51 48 -108 60 -127 22 -35 22 -35 16 95 -10 204 -30 305 -80 415 -24 52 -65
154 -90 225 -99 282 -212 463 -469 753 -109 124 -223 228 -449 410 -93 74
-173 145 -177 156 -5 12 -11 38 -15 59 -4 27 -22 54 -67 102 -101 109 -276
211 -440 259 -111 32 -685 146 -735 146 -21 0 -62 -11 -92 -25z m639 -219
c200 -55 316 -107 543 -244 112 -68 133 -95 81 -108 -45 -11 -88 3 -290 96
-194 89 -504 202 -594 216 -60 9 -81 21 -73 40 20 53 140 53 333 0z"/>
<path d="M3874 6070 c-180 -14 -284 -40 -434 -109 -73 -33 -141 -68 -152 -77
-41 -38 -11 -77 75 -100 30 -8 79 -25 110 -38 87 -39 160 -54 435 -92 442 -59
535 -84 807 -218 94 -46 206 -98 251 -115 45 -17 126 -60 180 -95 55 -35 119
-70 144 -79 166 -57 256 -99 298 -140 86 -83 317 -406 462 -647 106 -176 155
-298 244 -606 53 -184 66 -269 77 -509 8 -162 15 -231 27 -262 9 -24 19 -43
22 -43 15 0 99 390 100 460 0 59 -20 169 -65 360 -20 85 -47 207 -60 270 -26
127 -45 187 -76 240 -27 44 -254 371 -415 596 -178 249 -202 288 -230 384 -34
113 -47 141 -84 184 -79 89 -353 238 -760 414 -102 44 -228 100 -280 124 -111
52 -172 73 -255 87 -90 15 -296 21 -421 11z m398 -179 c53 -12 142 -37 198
-57 244 -84 715 -305 860 -403 133 -89 226 -198 218 -254 -5 -38 -30 -29 -126
43 -139 105 -311 202 -556 315 -459 211 -620 252 -1095 275 -118 6 -222 15
-232 21 -48 25 -2 60 103 78 29 6 161 8 293 6 197 -3 257 -7 337 -24z"/>
<path d="M3114 5681 c-32 -19 -164 -150 -164 -162 0 -10 57 -19 124 -19 196 0
798 -118 938 -183 29 -13 83 -51 120 -84 37 -33 107 -84 155 -114 223 -136
366 -275 486 -470 85 -140 96 -179 48 -179 -15 0 -53 13 -84 30 -30 16 -77 35
-104 41 -64 16 -74 22 -168 94 -108 83 -160 114 -295 179 -269 129 -561 196
-860 196 -197 0 -226 -6 -274 -54 -23 -23 -60 -70 -84 -105 -42 -63 -42 -63
15 -58 32 3 90 12 128 22 96 22 317 30 456 16 133 -14 391 -63 486 -92 128
-40 352 -150 397 -195 25 -24 20 -44 -10 -44 -15 0 -101 30 -191 66 -183 73
-264 94 -369 94 -39 0 -131 9 -205 21 -109 17 -166 20 -304 16 -222 -5 -263
-18 -315 -97 -20 -30 -48 -83 -62 -117 -26 -62 -26 -62 5 -56 18 3 52 18 76
34 99 65 140 74 326 73 243 -1 282 -13 500 -150 39 -24 147 -78 240 -120 364
-165 469 -228 605 -364 145 -145 286 -361 374 -570 150 -355 151 -622 4 -937
-22 -49 -51 -117 -63 -152 -23 -63 -23 -63 8 -34 18 16 53 46 79 66 25 20 83
72 129 114 121 115 149 191 149 410 0 172 -19 278 -86 488 -52 161 -148 349
-258 505 -219 308 -334 394 -692 514 -203 68 -423 160 -465 195 -72 60 8 68
156 15 252 -91 294 -103 380 -113 170 -18 392 -104 482 -185 65 -59 154 -176
229 -301 55 -92 120 -165 148 -165 14 0 140 -325 190 -491 75 -248 80 -279 82
-594 1 -237 5 -297 17 -330 9 -22 16 -33 17 -25 0 8 28 56 61 105 34 50 78
123 97 163 35 73 35 73 29 190 -9 189 -16 215 -220 795 -52 147 -103 277 -113
288 -26 29 -55 20 -78 -26 -14 -26 -28 -40 -41 -40 -19 0 -20 6 -17 82 5 126
-4 148 -227 507 -24 38 -63 112 -87 163 -34 73 -59 111 -112 166 -38 40 -107
119 -154 178 -140 172 -236 250 -443 362 -86 46 -121 70 -123 85 -11 69 199 7
373 -111 93 -63 138 -110 250 -257 110 -146 156 -193 180 -184 37 15 11 98
-67 219 -25 39 -61 102 -81 140 -52 105 -129 170 -301 254 -106 52 -232 88
-337 96 -104 9 -455 67 -606 101 -62 13 -180 45 -264 69 -84 25 -160 45 -168
45 -9 0 -30 -9 -47 -19z"/>
<path d="M3075 5321 c-28 -16 -69 -58 -137 -139 -26 -32 -26 -32 -1 -38 13 -4
88 -1 165 6 256 23 561 -17 808 -105 184 -66 428 -202 564 -313 118 -98 139
-112 163 -112 18 0 23 5 23 26 0 85 -198 255 -517 443 -201 119 -306 158 -538
200 -283 53 -478 64 -530 32z"/>
<path d="M4923 5213 c-26 -10 -12 -50 43 -128 75 -107 109 -181 133 -294 14
-60 37 -125 67 -185 44 -88 230 -409 342 -591 97 -158 138 -245 217 -465 42
-118 110 -285 151 -370 84 -178 104 -261 104 -438 0 -58 5 -131 11 -161 12
-56 12 -56 71 59 102 200 127 273 145 428 9 75 18 214 20 308 5 168 4 173 -22
235 -14 35 -53 143 -86 239 -93 274 -218 511 -430 815 -112 162 -190 252 -270
317 -78 62 -120 84 -144 74 -30 -11 -15 -56 49 -148 432 -624 615 -967 656
-1234 19 -120 27 -146 62 -199 30 -45 32 -53 32 -143 1 -78 -2 -96 -16 -105
-40 -26 -86 71 -204 430 -34 106 -85 239 -112 296 -57 121 -188 352 -312 552
-122 197 -203 345 -246 450 -42 103 -80 160 -135 205 -33 26 -101 62 -111 59
-2 0 -9 -3 -15 -6z m1207 -1658 c0 -20 -27 -48 -38 -41 -15 9 -15 41 -1 68 11
21 12 21 25 3 8 -10 14 -24 14 -30z"/>
<path d="M3225 4411 c-66 -12 -96 -24 -120 -50 -15 -17 -17 -26 -9 -39 13 -20
81 -40 141 -41 83 -2 272 -31 359 -57 168 -48 403 -163 596 -290 250 -166 443
-419 490 -644 10 -50 9 -67 -10 -141 -11 -46 -28 -144 -36 -216 -20 -169 -46
-289 -92 -417 -38 -108 -75 -228 -71 -232 9 -9 176 119 199 151 61 89 108 326
108 548 0 127 2 148 16 154 70 26 124 -166 104 -364 -13 -123 -41 -231 -95
-368 -23 -60 -46 -120 -49 -132 -3 -13 -9 -32 -12 -43 -8 -28 137 80 197 148
37 41 50 67 77 153 40 133 52 202 52 310 0 174 -37 292 -167 533 -187 348
-340 518 -607 675 -116 68 -533 277 -615 308 -128 48 -339 73 -456 54z"/>
<path d="M3138 4137 c-15 -12 -43 -45 -62 -74 -34 -52 -34 -52 -3 -57 18 -3
93 -7 167 -10 236 -9 434 -66 623 -179 223 -134 383 -324 446 -531 62 -203 43
-469 -53 -728 -18 -51 -36 -107 -40 -125 -5 -32 -5 -32 42 -11 75 35 141 87
161 127 41 80 86 319 97 510 15 265 -56 440 -261 647 -236 237 -538 387 -883
439 -146 22 -201 20 -234 -8z"/>
<path d="M6539 4113 c-23 -27 -14 -118 31 -293 23 -91 52 -214 65 -275 13 -60
33 -137 44 -170 20 -60 20 -60 21 -5 0 30 5 87 11 125 5 39 10 131 11 205 0
122 -2 143 -27 215 -34 100 -68 168 -97 195 -26 24 -41 25 -59 3z"/>
<path d="M3242 3835 c-18 -15 -42 -46 -54 -69 -11 -22 -27 -48 -35 -57 -13
-16 -2 -17 144 -21 137 -4 169 -8 238 -31 117 -39 199 -91 296 -188 70 -69 95
-102 128 -170 60 -125 74 -197 68 -359 -4 -105 -11 -156 -31 -230 -50 -176
-54 -160 34 -118 106 50 133 83 153 189 58 303 4 535 -173 748 -145 172 -417
308 -660 327 -72 6 -77 5 -108 -21z"/>
<path d="M3395 3541 c-25 -11 -66 -56 -92 -102 -21 -36 -21 -36 64 -52 246
-48 350 -197 336 -482 -6 -114 -6 -114 63 -90 44 15 79 35 97 55 24 27 27 38
27 104 0 195 -97 382 -250 485 -92 61 -205 99 -245 82z"/>
<path d="M5392 2328 c-13 -17 -42 -75 -42 -84 0 -10 48 36 72 69 19 27 19 27
0 27 -11 0 -24 -6 -30 -12z"/>
</g>
</svg>
