<?xml version="1.0" standalone="no"?>
<!DOCTYPE svg PUBLIC "-//W3C//DTD SVG 20010904//EN"
 "http://www.w3.org/TR/2001/REC-SVG-20010904/DTD/svg10.dtd">
<svg version="1.0" xmlns="http://www.w3.org/2000/svg"
 width="1000.000000pt" height="1000.000000pt" viewBox="0 0 1000.000000 1000.000000"
 preserveAspectRatio="xMidYMid meet">
<metadata>
  <rdf:RDF
    xmlns:rdf = "http://www.w3.org/1999/02/22-rdf-syntax-ns#"
    xmlns:rdfs = "http://www.w3.org/2000/01/rdf-schema#"
    xmlns:dc = "http://purl.org/dc/elements/1.1/"
    xmlns:cc = "http://creativecommons.org/ns#">
    <cc:license rdf:resource="http://creativecommons.org/publicdomain/zero/1.0/deed.en"/>
    <cc:permits rdf:resource="http://creativecommons.org/ns#Reproduction"/>
    <rdf:Description about="https://nft.mir.one/fingerprints"
      dc:title="TON Fingerprints"
      dc:description="This is a unique digital fingerprint created based on the algorithm for generating basic rings using a noise texture. Like human fingerprints, you can now use it for the Web3 and Metaverse era as digital biometric information."
      dc:publisher="https://nft.mir.one"
      dc:date="2022-02-22"
      dc:format="image/svg+xml"
      dc:language="en" >
      <dc:creator>
      <rdf:Bag>
        <rdf:li>EQBondcvD2_aOFADXSWJHs4ZazQDuEl9_wNvGGPxI8hGuOFU</rdf:li>
        <rdf:li>ipfs://bafkreihj7iub3fhmhq6jn62noukt5wxn3gv6bvcg7wmt6ywvlurefezckq</rdf:li>
      </rdf:Bag>
      </dc:creator>
    </rdf:Description>
  </rdf:RDF>
</metadata>
<rect width="100%" height="100%" fill="#1b1f23"/>
<g transform="translate(0.000000,1000.000000) scale(0.100000,-0.100000)"
fill="#ffffff" stroke="none">
<path d="M4979 7771 c31 -32 91 -86 134 -120 43 -34 126 -105 185 -158 151
-135 193 -167 290 -221 114 -62 221 -165 446 -427 99 -115 235 -267 303 -337
173 -181 248 -301 346 -549 74 -187 187 -605 199 -739 4 -43 -22 -52 -57 -20
-37 35 -69 119 -145 380 -107 368 -189 561 -300 705 -39 50 -57 65 -157 128
-28 18 -92 91 -192 219 -328 423 -452 549 -516 524 -26 -9 -18 -68 16 -122 18
-27 91 -130 164 -229 230 -315 274 -387 333 -545 22 -58 66 -168 100 -245 80
-188 92 -230 102 -370 6 -80 23 -182 51 -305 42 -180 43 -190 43 -350 -1 -198
-18 -399 -44 -524 -32 -154 -78 -281 -187 -516 -58 -124 -122 -263 -143 -310
-34 -78 -228 -636 -281 -809 -28 -91 -92 -190 -187 -287 -136 -140 -267 -222
-415 -258 -67 -16 -211 -75 -203 -83 8 -8 315 50 384 73 162 54 317 154 516
332 33 30 93 78 131 107 87 65 151 133 210 224 73 113 85 145 85 239 0 58 9
118 29 200 41 163 46 210 28 255 -9 20 -22 37 -30 37 -27 0 -73 -128 -161
-442 -41 -147 -78 -233 -140 -327 -41 -62 -85 -99 -100 -84 -16 16 -2 75 43
186 26 67 77 208 111 312 62 188 106 292 138 329 9 10 36 27 59 38 42 19 42
19 157 366 63 191 122 383 131 427 13 57 18 132 19 262 1 156 3 185 18 199 37
38 71 -17 115 -186 19 -76 24 -114 21 -190 -3 -88 -6 -101 -45 -182 -63 -130
-167 -476 -197 -655 -9 -51 -23 -135 -32 -185 -8 -51 -33 -148 -55 -216 -44
-133 -46 -165 -13 -170 48 -7 121 107 178 279 44 130 145 526 186 722 35 170
42 189 73 185 36 -5 50 -65 43 -188 -7 -127 -37 -261 -111 -503 -96 -311 -157
-439 -272 -573 -38 -43 -108 -128 -155 -189 -47 -60 -118 -146 -158 -190 -119
-131 -256 -292 -229 -270 248 205 504 480 660 711 134 198 305 622 366 907 25
113 24 448 -1 592 -27 161 -32 172 -75 195 -22 10 -61 45 -87 77 -27 32 -74
85 -105 118 -38 41 -63 79 -78 120 -35 93 -88 283 -132 472 -46 200 -76 290
-152 468 -64 148 -72 175 -63 210 14 54 51 20 131 -120 71 -126 140 -306 210
-552 87 -310 114 -381 197 -520 39 -65 77 -134 86 -153 61 -146 112 -113 123
79 4 69 14 131 23 153 56 130 -46 625 -204 988 -94 218 -184 349 -371 546 -69
71 -178 190 -244 264 -260 295 -394 418 -607 558 -150 98 -273 162 -418 217
-69 26 -137 53 -151 61 -18 9 -8 -6 30 -45z"/>
<path d="M4515 7625 c-54 -19 -99 -27 -197 -32 -113 -5 -126 -8 -119 -22 10
-18 149 -164 481 -505 312 -320 465 -517 580 -746 72 -146 79 -174 78 -335 -1
-120 5 -175 40 -390 73 -436 90 -667 72 -930 -23 -333 -57 -493 -162 -758 -70
-178 -72 -184 -69 -262 6 -202 6 -197 -23 -255 -16 -30 -87 -144 -159 -253
-135 -207 -167 -271 -167 -336 0 -31 -12 -54 -61 -122 -33 -46 -78 -115 -99
-154 -21 -38 -61 -97 -87 -130 -27 -33 -58 -76 -70 -96 -21 -37 -21 -37 55 -2
43 18 104 46 137 61 99 44 133 69 156 114 41 82 81 129 175 209 159 136 287
321 330 476 15 54 16 70 4 116 -12 53 -12 53 29 132 23 44 61 116 85 159 80
142 106 266 57 266 -32 0 -68 -38 -121 -125 -46 -75 -98 -135 -120 -135 -4 0
-13 6 -19 14 -16 19 32 143 100 256 116 193 134 251 165 535 26 224 26 662 1
829 -18 116 -118 651 -137 731 -22 92 -2 129 46 84 46 -43 65 -98 109 -313 24
-116 56 -265 70 -331 56 -256 74 -503 56 -770 -7 -93 -16 -264 -21 -380 -5
-115 -14 -228 -20 -250 -6 -24 -8 -89 -4 -160 7 -133 4 -147 -84 -376 -23 -58
-55 -156 -72 -218 -82 -301 -164 -425 -453 -687 -64 -57 -78 -75 -75 -95 2
-20 9 -25 40 -27 75 -6 204 74 328 204 87 91 138 165 185 267 39 85 243 681
315 919 58 196 76 236 132 303 101 122 156 319 179 644 15 218 3 378 -42 566
-29 116 -55 177 -111 253 -27 37 -74 108 -103 157 -59 100 -98 143 -135 147
-22 3 -25 0 -22 -27 2 -16 26 -84 54 -150 112 -268 126 -303 146 -380 37 -138
52 -269 52 -458 0 -204 -11 -320 -46 -495 -30 -152 -46 -192 -74 -192 -43 0
-50 84 -25 325 19 184 19 490 0 625 -19 130 -52 268 -105 430 -22 69 -46 155
-52 192 -11 59 -10 71 7 108 19 42 19 42 -19 116 -21 40 -74 124 -118 186 -44
62 -109 163 -146 223 -271 453 -440 662 -820 1016 -91 85 -103 100 -100 125 3
25 8 29 37 32 98 10 386 -209 557 -422 71 -89 333 -486 569 -861 82 -132 180
-283 216 -335 36 -52 88 -135 115 -184 54 -97 84 -127 109 -106 39 33 8 124
-145 429 -136 270 -198 376 -365 621 -162 236 -188 279 -236 391 -50 117 -110
199 -228 312 -172 163 -251 212 -394 241 -105 22 -160 20 -242 -9z m835 -4344
c0 -21 -96 -201 -152 -283 -95 -142 -198 -236 -245 -226 -30 6 -19 29 64 138
44 58 114 157 156 221 42 64 90 128 107 143 37 31 70 34 70 7z"/>
<path d="M5710 7646 c0 -12 137 -175 214 -256 45 -47 158 -173 252 -280 94
-107 211 -231 260 -275 184 -166 273 -270 360 -423 68 -119 52 -73 -22 62 -99
181 -166 276 -278 394 -55 59 -156 171 -224 249 -67 78 -167 184 -221 235
-104 99 -341 303 -341 294z"/>
<path d="M3920 7339 c-30 -6 -64 -8 -76 -6 -20 3 -19 1 8 -39 16 -23 52 -60
81 -80 104 -75 225 -181 377 -330 85 -83 234 -217 331 -297 97 -80 195 -168
218 -194 55 -63 144 -245 176 -358 32 -111 78 -368 105 -579 70 -548 38 -985
-102 -1396 -66 -196 -141 -331 -377 -689 -182 -275 -225 -346 -243 -404 -26
-88 -60 -126 -222 -249 -66 -51 -142 -114 -168 -140 -48 -46 -48 -46 -6 -42
204 22 244 33 344 93 37 22 87 48 113 57 105 38 173 75 214 117 47 49 355 518
393 600 34 75 31 117 -11 117 -33 0 -74 -50 -235 -289 -150 -223 -216 -302
-274 -326 -38 -16 -66 -11 -66 12 0 8 39 67 88 131 48 64 138 191 199 282 62
91 144 201 183 245 79 89 115 156 189 352 97 256 139 447 162 728 14 173 7
457 -15 644 -20 161 -93 653 -112 756 -29 154 -115 326 -243 488 -109 138
-739 759 -793 781 -45 19 -171 27 -238 15z"/>
<path d="M3709 7034 c-37 -8 -92 -25 -123 -39 -31 -14 -69 -25 -84 -25 -26 0
-26 0 -2 -17 14 -9 28 -22 33 -29 4 -7 54 -35 110 -63 159 -76 324 -206 413
-324 108 -145 201 -387 147 -387 -27 1 -52 25 -140 135 -131 164 -282 293
-428 367 -73 38 -115 39 -181 5 -90 -45 -129 -117 -65 -117 51 -1 151 -59 305
-177 37 -29 100 -70 140 -90 55 -28 97 -63 186 -152 99 -99 122 -129 157 -201
93 -189 164 -551 149 -760 -9 -139 -54 -475 -82 -620 -31 -161 -88 -337 -153
-475 -51 -106 -69 -128 -114 -139 -32 -8 -99 -65 -139 -120 -21 -29 -28 -50
-28 -85 0 -84 -79 -225 -202 -362 -37 -42 -68 -83 -68 -92 0 -8 13 -20 29 -27
26 -10 37 -9 83 12 63 29 137 100 160 154 9 22 40 95 68 164 72 174 131 304
144 312 15 10 34 -9 41 -41 8 -38 -28 -147 -88 -266 -61 -122 -69 -148 -53
-170 12 -16 15 -16 45 -1 70 37 178 223 231 399 17 56 60 188 95 292 138 408
179 647 179 1055 1 318 -16 435 -111 770 -31 109 -36 141 -38 250 -4 227 -21
382 -45 431 -71 139 -378 425 -475 442 -16 3 -60 -1 -96 -9z"/>
<path d="M4419 6489 c-6 -12 -9 -38 -6 -58 3 -20 17 -112 31 -206 13 -93 43
-246 65 -340 86 -364 106 -536 98 -854 -10 -395 -70 -687 -227 -1096 -142
-370 -257 -553 -395 -622 -27 -14 -90 -55 -140 -90 -49 -36 -130 -85 -180
-109 -49 -25 -106 -58 -125 -74 -33 -29 -34 -30 -10 -30 14 0 59 -7 100 -16
138 -29 177 -14 382 148 178 141 303 308 438 583 236 483 333 922 317 1430
-10 294 -39 483 -133 857 -30 120 -58 258 -63 307 -5 49 -17 103 -25 119 -34
65 -104 93 -127 51z"/>
<path d="M3273 6414 c-6 -3 -30 -29 -52 -58 -22 -29 -52 -58 -65 -66 -25 -13
-25 -13 14 -41 22 -16 44 -29 48 -29 22 0 144 -89 211 -154 68 -66 213 -250
308 -391 23 -33 52 -71 67 -84 22 -21 28 -22 42 -10 13 11 15 25 11 69 -5 59
-34 124 -124 280 -27 47 -68 125 -92 174 -37 77 -59 105 -155 203 -110 112
-112 113 -156 112 -25 0 -50 -3 -57 -5z"/>
<path d="M4662 6364 c-12 -21 -6 -45 56 -229 173 -517 223 -1104 137 -1610
-49 -284 -128 -516 -269 -790 -224 -435 -429 -682 -731 -878 -39 -25 -82 -58
-97 -74 -28 -29 -28 -29 111 -28 139 0 139 0 194 38 107 74 199 178 339 384
422 623 545 894 620 1374 30 192 32 637 5 854 -51 404 -110 645 -204 827 -62
121 -134 180 -161 132z"/>
<path d="M3765 6140 c-7 -24 20 -84 100 -220 68 -116 90 -173 121 -315 14 -60
38 -166 54 -235 35 -153 53 -266 44 -292 -9 -29 -44 -19 -71 20 -12 18 -43 88
-69 155 -26 67 -62 151 -81 188 -30 59 -38 67 -92 92 -48 22 -78 48 -157 135
-201 220 -343 342 -400 342 -19 0 -166 -69 -184 -87 -8 -8 41 -41 125 -85 113
-60 218 -141 357 -276 129 -126 197 -205 248 -292 55 -93 151 -320 167 -394
21 -99 12 -271 -20 -397 -72 -277 -217 -459 -558 -699 -57 -41 -121 -89 -142
-109 -38 -36 -38 -36 10 -48 26 -7 71 -13 99 -13 56 0 62 3 174 101 36 31 117
94 180 141 324 239 426 461 468 1023 7 89 15 131 30 161 52 101 50 256 -4 504
-59 267 -151 452 -289 579 -51 47 -99 56 -110 21z"/>
<path d="M3055 5649 c-114 -62 -108 -52 -56 -86 25 -17 71 -44 101 -59 125
-62 260 -174 347 -288 57 -76 135 -238 159 -331 24 -96 24 -276 0 -370 -39
-151 -121 -291 -229 -392 -70 -65 -140 -100 -182 -89 -38 10 -31 27 31 81 111
95 211 257 251 405 23 87 23 261 -1 349 -50 184 -164 345 -316 445 -30 20 -64
36 -75 36 -31 -1 -96 -35 -138 -73 -38 -35 -38 -35 3 -51 22 -9 52 -16 66 -16
83 0 215 -129 278 -273 30 -67 56 -188 56 -259 -1 -123 -52 -268 -140 -398
-57 -84 -80 -137 -80 -190 0 -37 -7 -55 -40 -97 -27 -36 -35 -53 -25 -53 9 0
38 -12 66 -27 28 -14 72 -28 97 -30 43 -4 54 0 127 48 163 107 311 284 374
448 100 260 84 504 -52 765 -86 167 -262 358 -432 471 -93 62 -126 68 -190 34z"/>
<path d="M2944 5135 c-11 -29 6 -80 56 -165 61 -104 87 -169 101 -260 15 -101
-7 -237 -48 -282 -20 -22 -8 -56 23 -64 82 -21 154 119 154 301 0 102 -17 180
-56 258 -53 103 -82 137 -145 164 -54 23 -64 33 -60 56 2 14 -20 7 -25 -8z"/>
<path d="M7092 4850 c0 -14 2 -19 5 -12 2 6 2 18 0 25 -3 6 -5 1 -5 -13z"/>
<path d="M7083 4685 c0 -27 2 -38 4 -22 2 15 2 37 0 50 -2 12 -4 0 -4 -28z"/>
<path d="M3669 3732 c-52 -33 -302 -294 -335 -350 -24 -39 -24 -39 23 -46 81
-11 108 -7 130 17 46 49 247 324 260 355 25 59 -6 69 -78 24z"/>
<path d="M4464 2551 c-64 -43 -144 -118 -183 -171 -23 -31 -23 -32 -4 -21 12
6 57 22 101 36 136 43 229 125 201 177 -15 28 -51 22 -115 -21z"/>
</g>
</svg>
