<?xml version="1.0" standalone="no"?>
<!DOCTYPE svg PUBLIC "-//W3C//DTD SVG 20010904//EN"
 "http://www.w3.org/TR/2001/REC-SVG-20010904/DTD/svg10.dtd">
<svg version="1.0" xmlns="http://www.w3.org/2000/svg"
 width="1000.000000pt" height="1000.000000pt" viewBox="0 0 1000.000000 1000.000000"
 preserveAspectRatio="xMidYMid meet">
<metadata>
  <rdf:RDF
    xmlns:rdf = "http://www.w3.org/1999/02/22-rdf-syntax-ns#"
    xmlns:rdfs = "http://www.w3.org/2000/01/rdf-schema#"
    xmlns:dc = "http://purl.org/dc/elements/1.1/"
    xmlns:cc = "http://creativecommons.org/ns#">
    <cc:license rdf:resource="http://creativecommons.org/publicdomain/zero/1.0/deed.en"/>
    <cc:permits rdf:resource="http://creativecommons.org/ns#Reproduction"/>
    <rdf:Description about="https://nft.mir.one/fingerprints"
      dc:title="TON Fingerprints"
      dc:description="This is a unique digital fingerprint created based on the algorithm for generating basic rings using a noise texture. Like human fingerprints, you can now use it for the Web3 and Metaverse era as digital biometric information."
      dc:publisher="https://nft.mir.one"
      dc:date="2022-02-22"
      dc:format="image/svg+xml"
      dc:language="en" >
      <dc:creator>
      <rdf:Bag>
        <rdf:li>EQBondcvD2_aOFADXSWJHs4ZazQDuEl9_wNvGGPxI8hGuOFU</rdf:li>
        <rdf:li>ipfs://bafkreihj7iub3fhmhq6jn62noukt5wxn3gv6bvcg7wmt6ywvlurefezckq</rdf:li>
      </rdf:Bag>
      </dc:creator>
    </rdf:Description>
  </rdf:RDF>
</metadata>
<rect width="100%" height="100%" fill="#1b1f23"/>
<g transform="translate(0.000000,1000.000000) scale(0.100000,-0.100000)"
fill="#ffffff" stroke="none">
<path d="M5325 7759 c22 -19 60 -52 85 -75 25 -22 99 -81 165 -132 159 -120
368 -302 655 -567 255 -237 359 -324 424 -356 22 -12 57 -35 76 -53 35 -32
-10 21 -159 186 -46 51 -135 150 -198 220 -284 316 -586 551 -952 740 -114 59
-129 65 -96 37z"/>
<path d="M4695 7773 c28 -26 96 -73 150 -103 274 -153 577 -381 884 -663 259
-240 302 -276 425 -366 66 -47 160 -122 210 -167 204 -181 438 -452 492 -569
36 -75 30 -141 -10 -118 -8 4 -51 53 -96 108 -73 89 -344 364 -520 528 -75 69
-152 109 -204 105 -35 -2 -44 6 -243 212 -224 230 -384 376 -571 518 -117 90
-376 263 -441 297 -44 22 -195 60 -301 75 -47 7 -94 17 -105 23 -15 8 -13 2 9
-23 37 -44 47 -52 221 -160 440 -273 728 -500 956 -753 123 -137 194 -242 284
-418 37 -74 103 -197 145 -274 42 -77 127 -244 188 -371 112 -231 112 -231
111 -320 0 -65 5 -104 20 -146 36 -104 100 -211 181 -308 93 -110 146 -205
194 -351 64 -193 71 -244 70 -534 -1 -194 -5 -271 -15 -304 -16 -48 -42 -72
-59 -55 -6 6 -15 104 -20 240 -11 262 -30 417 -65 540 -33 112 -68 180 -154
294 -117 156 -213 358 -272 573 -55 199 -138 378 -354 771 -225 406 -299 511
-521 726 -177 173 -303 270 -631 490 -323 217 -346 227 -524 232 -107 3 -107
3 -83 -25 13 -16 24 -32 24 -37 0 -4 24 -22 54 -39 99 -56 529 -332 641 -412
313 -223 527 -433 670 -654 96 -150 387 -666 455 -808 65 -137 103 -232 232
-587 73 -202 87 -264 87 -405 0 -102 34 -379 102 -824 29 -194 35 -439 15
-627 -9 -83 -16 -180 -16 -215 1 -64 1 -64 46 46 55 134 87 232 115 350 25
105 22 197 -10 365 -11 58 -36 222 -56 365 -19 143 -46 316 -60 385 -13 69
-25 142 -25 163 0 73 55 54 92 -32 44 -103 78 -278 108 -560 23 -219 34 -276
67 -351 19 -44 27 -83 34 -190 9 -121 14 -152 22 -139 1 2 15 56 31 119 16 63
42 144 58 180 51 111 68 169 105 365 30 161 36 213 36 335 1 161 -6 196 -88
450 -24 74 -49 163 -54 198 -28 162 -34 191 -56 249 -36 95 -94 187 -195 308
-109 131 -167 227 -217 355 -49 128 -81 191 -171 334 -99 160 -124 214 -120
268 3 48 27 62 52 31 8 -10 76 -97 151 -193 165 -211 208 -256 254 -271 58
-18 133 -74 204 -153 37 -41 101 -100 144 -132 94 -71 100 -78 159 -179 88
-151 138 -234 141 -232 1 2 -25 92 -57 201 -33 110 -67 239 -75 289 -9 49 -27
119 -41 156 -58 155 -208 404 -321 533 -32 37 -141 138 -243 224 -102 87 -250
216 -330 288 -308 277 -473 417 -602 509 -137 98 -375 199 -571 243 -62 14
-121 27 -132 31 -13 3 -16 2 -10 -4z m1744 -2450 c74 -77 171 -285 156 -333
-17 -55 -63 -3 -164 187 -45 83 -81 161 -81 172 0 37 40 25 89 -26z"/>
<path d="M3885 7225 c-38 -7 -102 -22 -142 -32 -72 -19 -72 -19 -30 -41 23
-12 86 -36 140 -53 378 -118 890 -431 1178 -722 142 -142 205 -255 165 -295
-15 -15 -23 -10 -109 74 -135 133 -207 196 -318 279 -280 213 -621 400 -937
515 -78 28 -145 24 -279 -17 -91 -28 -91 -28 -60 -49 18 -11 88 -39 157 -63
171 -58 331 -126 530 -226 280 -140 475 -263 710 -449 74 -58 164 -120 200
-137 36 -17 76 -36 89 -42 79 -38 335 -369 456 -592 70 -128 145 -300 199
-454 91 -261 127 -449 176 -914 14 -138 27 -210 47 -270 26 -77 27 -92 27
-262 0 -195 -15 -327 -61 -520 -39 -166 -67 -239 -189 -505 -14 -30 -22 -50
-16 -45 5 6 56 66 114 135 136 163 231 333 257 460 41 197 40 542 -2 790 -15
85 -47 317 -72 516 -49 389 -58 433 -136 660 -109 316 -220 544 -420 864 -56
91 -138 232 -180 313 -43 81 -98 177 -123 212 -164 229 -504 500 -940 750
-234 134 -283 148 -431 120z"/>
<path d="M3440 6678 c-36 -11 -83 -25 -106 -31 -40 -11 -40 -11 -10 -38 17
-14 108 -58 201 -96 363 -150 956 -422 1073 -491 97 -58 232 -156 285 -207 71
-68 75 -125 8 -110 -17 3 -99 51 -183 106 -181 119 -245 150 -357 179 -46 12
-115 37 -154 56 -38 20 -131 60 -206 89 -75 29 -217 90 -316 135 -305 138
-284 132 -348 115 -31 -8 -83 -29 -117 -46 -61 -33 -61 -33 -37 -56 13 -13 84
-51 158 -84 151 -68 354 -176 422 -225 24 -18 68 -63 96 -100 55 -74 123 -127
156 -122 33 5 32 59 -3 100 -52 60 -62 80 -50 95 22 27 81 8 130 -44 14 -15
43 -64 64 -108 31 -65 55 -97 128 -170 50 -50 152 -138 226 -195 74 -57 168
-136 209 -174 233 -224 410 -555 511 -956 74 -295 122 -740 118 -1085 -2 -125
1 -167 12 -190 31 -62 66 -34 88 70 18 87 34 307 28 380 -23 242 -71 628 -92
738 -67 344 -187 639 -371 916 -151 225 -196 273 -432 451 -200 152 -261 214
-261 269 0 52 47 31 260 -116 80 -55 187 -127 239 -158 81 -50 99 -66 130
-117 20 -33 60 -99 90 -146 136 -217 212 -351 259 -456 136 -304 204 -587 237
-981 8 -99 25 -223 36 -275 18 -81 21 -113 15 -215 -11 -211 -50 -350 -117
-415 -46 -45 -48 -51 -128 -355 -59 -226 -67 -275 -63 -365 3 -45 3 -45 32
-10 17 19 30 46 30 60 0 15 23 64 51 110 49 82 182 395 259 615 24 66 52 178
70 280 28 150 39 187 92 310 34 77 67 156 74 175 31 83 7 425 -50 706 -73 362
-228 728 -415 984 -63 87 -402 422 -523 517 -200 157 -405 283 -710 433 -274
135 -602 271 -651 269 -12 0 -51 -9 -87 -21z m1720 -1165 c47 -31 83 -68 141
-146 193 -258 349 -655 421 -1073 30 -176 32 -482 5 -591 -11 -40 -26 -78 -34
-85 -32 -26 -40 13 -46 239 -7 249 -30 425 -82 627 -85 330 -186 554 -380 841
-105 155 -119 181 -109 196 9 15 58 10 84 -8z"/>
<path d="M3155 6012 c-27 -15 -67 -38 -88 -51 -38 -24 -38 -24 -10 -55 15 -17
31 -32 35 -34 33 -15 206 -125 290 -184 102 -73 103 -73 183 -79 59 -5 95 -14
135 -34 81 -41 188 -115 291 -203 146 -123 171 -141 227 -162 28 -11 118 -52
199 -91 166 -81 220 -124 301 -242 201 -293 329 -714 372 -1227 5 -69 11 -282
12 -475 2 -386 -2 -443 -58 -722 -19 -94 -34 -190 -34 -214 0 -42 0 -42 23
-11 12 17 44 58 70 91 62 78 69 98 108 277 38 177 40 252 22 729 -20 519 -64
811 -168 1124 -86 258 -211 484 -347 626 -82 87 -126 122 -316 254 -73 51
-179 128 -235 172 -56 44 -150 104 -208 134 -58 30 -153 85 -211 123 -201 133
-478 282 -520 282 -13 -1 -45 -13 -73 -28z"/>
<path d="M6373 5915 c-20 -53 34 -155 187 -350 187 -239 217 -304 336 -728 80
-285 143 -474 144 -434 1 49 -22 326 -36 432 -48 373 -110 549 -256 727 -70
86 -254 294 -296 335 -36 35 -69 43 -79 18z"/>
<path d="M3065 5593 c-16 -8 -39 -24 -50 -34 -11 -10 -32 -24 -47 -32 -27 -14
-27 -14 4 -58 18 -24 61 -75 95 -113 37 -40 79 -100 100 -143 31 -63 37 -88
43 -168 7 -91 10 -98 65 -196 32 -55 86 -167 121 -247 34 -81 76 -180 94 -220
30 -71 32 -83 46 -305 22 -327 12 -507 -40 -762 -14 -66 -29 -143 -34 -172 -9
-52 -9 -52 16 -33 14 11 29 20 35 20 18 0 77 50 91 78 25 49 48 242 53 445 5
167 2 229 -18 388 -21 174 -21 191 -7 206 15 15 18 13 37 -18 23 -38 54 -162
73 -294 7 -52 13 -180 12 -305 0 -230 -15 -364 -60 -565 -24 -111 -40 -215
-32 -215 8 0 75 37 105 58 18 13 38 41 47 65 23 60 44 214 58 415 19 282 -15
619 -81 793 -12 31 -48 93 -79 137 -64 87 -174 330 -194 424 -13 61 -5 106 19
115 31 12 37 0 213 -377 122 -260 137 -297 164 -406 45 -180 60 -318 60 -579
0 -271 -12 -405 -56 -610 -17 -77 -33 -168 -37 -201 -6 -62 -6 -62 22 -38 16
13 33 24 37 24 15 0 80 61 95 89 7 15 23 85 36 156 21 118 23 161 24 455 0
333 -5 402 -47 620 -27 141 -64 255 -165 505 -133 330 -158 370 -286 468 -46
35 -95 107 -187 277 -96 179 -148 255 -214 318 -59 56 -81 62 -131 35z"/>
<path d="M3499 5507 c-24 -53 16 -131 180 -352 61 -82 126 -179 145 -215 32
-61 101 -248 236 -645 101 -293 127 -472 140 -934 11 -384 9 -407 -59 -681
-16 -63 -32 -139 -35 -168 -7 -53 -7 -53 44 -16 91 66 111 97 157 256 24 78
50 176 59 216 16 73 16 73 -12 135 -27 61 -28 66 -35 322 -13 450 -55 666
-206 1074 -78 212 -93 278 -86 374 12 162 -90 333 -319 537 -132 116 -188 143
-209 97z"/>
<path d="M2961 5077 c-23 -13 -43 -27 -43 -31 0 -4 16 -25 35 -47 31 -34 41
-39 79 -39 61 0 72 10 65 55 -7 44 -42 85 -71 85 -12 0 -41 -10 -65 -23z"/>
<path d="M4175 5074 c-11 -12 -14 -25 -10 -43 7 -27 11 -35 110 -198 107 -176
220 -456 280 -691 65 -259 97 -582 77 -793 -16 -166 -30 -214 -124 -419 -109
-238 -178 -449 -178 -541 0 -48 0 -48 59 15 78 84 84 94 126 214 20 57 46 119
58 138 21 33 60 54 74 40 18 -18 -111 -457 -154 -526 -16 -25 -16 -25 13 1 16
14 52 42 80 62 97 69 132 148 141 320 5 88 3 103 -17 147 -23 49 -23 49 3 192
42 224 50 332 44 558 -12 444 -95 762 -312 1200 -124 250 -156 300 -206 325
-36 19 -44 19 -64 -1z"/>
<path d="M4437 4993 c-15 -14 -4 -43 63 -159 228 -395 329 -739 361 -1234 9
-135 9 -216 0 -355 -7 -99 -16 -286 -21 -415 -8 -231 -19 -319 -61 -482 -10
-42 -19 -91 -19 -110 1 -33 1 -33 64 33 84 88 111 147 130 287 42 293 53 915
22 1191 -48 439 -167 813 -341 1076 -88 133 -167 200 -198 168z"/>
<path d="M4103 4855 c-10 -29 4 -79 85 -291 179 -467 224 -697 227 -1159 1
-154 2 -286 3 -293 4 -27 46 -7 69 33 34 61 47 162 47 355 -1 263 -37 501
-115 760 -66 219 -198 524 -252 583 -29 30 -55 35 -64 12z"/>
<path d="M3096 4694 c-24 -23 -19 -71 17 -180 32 -99 32 -99 31 -441 -2 -343
-2 -343 32 -311 67 63 76 100 85 328 4 113 13 221 19 240 17 57 11 140 -14
212 -48 135 -121 201 -170 152z"/>
<path d="M3362 4318 c-9 -9 -12 -68 -12 -217 0 -219 -11 -385 -34 -516 -8 -44
-17 -106 -21 -138 -6 -57 -6 -57 41 -30 88 53 98 78 115 318 15 206 0 495 -28
553 -19 39 -41 50 -61 30z"/>
<path d="M5927 3692 c-21 -23 -58 -165 -97 -372 -17 -91 -42 -206 -55 -256
-57 -212 -212 -571 -312 -720 -34 -52 -43 -59 -71 -59 -34 0 -43 -12 -15 -22
29 -11 104 39 198 132 106 104 184 204 222 284 65 137 134 385 168 606 22 146
30 364 13 394 -17 32 -31 36 -51 13z"/>
</g>
</svg>
