<?xml version="1.0" standalone="no"?>
<!DOCTYPE svg PUBLIC "-//W3C//DTD SVG 20010904//EN"
 "http://www.w3.org/TR/2001/REC-SVG-20010904/DTD/svg10.dtd">
<svg version="1.0" xmlns="http://www.w3.org/2000/svg"
 width="1000.000000pt" height="1000.000000pt" viewBox="0 0 1000.000000 1000.000000"
 preserveAspectRatio="xMidYMid meet">
<metadata>
  <rdf:RDF
    xmlns:rdf = "http://www.w3.org/1999/02/22-rdf-syntax-ns#"
    xmlns:rdfs = "http://www.w3.org/2000/01/rdf-schema#"
    xmlns:dc = "http://purl.org/dc/elements/1.1/"
    xmlns:cc = "http://creativecommons.org/ns#">
    <cc:license rdf:resource="http://creativecommons.org/publicdomain/zero/1.0/deed.en"/>
    <cc:permits rdf:resource="http://creativecommons.org/ns#Reproduction"/>
    <rdf:Description about="https://nft.mir.one/fingerprints"
      dc:title="TON Fingerprints"
      dc:description="This is a unique digital fingerprint created based on the algorithm for generating basic rings using a noise texture. Like human fingerprints, you can now use it for the Web3 and Metaverse era as digital biometric information."
      dc:publisher="https://nft.mir.one"
      dc:date="2022-02-22"
      dc:format="image/svg+xml"
      dc:language="en" >
      <dc:creator>
      <rdf:Bag>
        <rdf:li>EQBondcvD2_aOFADXSWJHs4ZazQDuEl9_wNvGGPxI8hGuOFU</rdf:li>
        <rdf:li>ipfs://bafkreihj7iub3fhmhq6jn62noukt5wxn3gv6bvcg7wmt6ywvlurefezckq</rdf:li>
      </rdf:Bag>
      </dc:creator>
    </rdf:Description>
  </rdf:RDF>
</metadata>
<rect width="100%" height="100%" fill="#1b1f23"/>
<g transform="translate(0.000000,1000.000000) scale(0.100000,-0.100000)"
fill="#ffffff" stroke="none">
<path d="M4635 7725 c33 -14 149 -48 258 -76 108 -27 258 -69 333 -94 159 -53
203 -61 233 -46 30 17 26 36 -13 66 -112 86 -393 147 -771 170 -100 6 -100 6
-40 -20z"/>
<path d="M5540 7683 c10 -21 26 -58 34 -83 19 -55 43 -80 219 -238 75 -68 178
-169 228 -225 154 -174 199 -247 352 -580 24 -51 56 -98 92 -136 53 -55 57
-63 66 -127 25 -176 88 -375 275 -862 134 -351 161 -514 181 -1092 7 -225 7
-225 22 -90 9 89 14 254 15 485 1 302 -2 364 -18 450 -17 92 -170 565 -295
913 -54 150 -61 189 -36 198 58 22 117 -99 342 -699 14 -37 27 -66 28 -65 2 2
-15 71 -37 153 -80 301 -166 526 -258 671 -39 62 -130 305 -130 347 0 21 0 21
-16 -1 -12 -18 -14 -39 -8 -115 6 -84 4 -94 -14 -117 -19 -23 -22 -24 -36 -10
-9 9 -31 76 -50 150 -39 153 -66 220 -129 317 -135 208 -348 418 -657 650 -74
55 -144 110 -154 122 -29 32 -36 25 -16 -16z"/>
<path d="M4330 7560 c-36 -6 -116 -20 -179 -33 -114 -24 -114 -24 -40 -40 41
-9 128 -21 194 -27 340 -32 674 -115 986 -246 316 -133 561 -363 789 -739 137
-228 237 -457 375 -866 171 -505 209 -716 225 -1248 12 -398 1 -631 -36 -786
-56 -238 -62 -273 -62 -349 0 -79 0 -79 59 75 33 85 77 208 98 274 116 361
139 1012 51 1446 -36 177 -114 416 -381 1172 -30 83 -192 392 -285 543 -140
228 -397 485 -573 573 -31 16 -90 39 -131 51 -41 12 -146 44 -234 71 -87 28
-229 68 -315 91 -145 37 -167 40 -316 43 -88 2 -189 0 -225 -5z"/>
<path d="M4020 7295 c-149 -41 -229 -78 -370 -172 -54 -36 -61 -43 -39 -43 14
0 66 14 115 32 101 36 125 37 639 26 241 -5 267 -7 359 -32 495 -134 857 -405
1139 -854 207 -329 394 -836 466 -1262 30 -175 40 -354 46 -835 3 -242 8 -475
12 -517 5 -69 8 -78 26 -78 30 0 85 65 102 123 56 182 37 1005 -31 1352 -93
476 -326 1075 -546 1405 -211 317 -403 492 -703 640 -277 136 -517 203 -830
230 -188 16 -288 12 -385 -15z"/>
<path d="M4451 7022 c-13 -4 -29 -15 -35 -25 -19 -32 37 -69 195 -127 168 -62
316 -129 414 -190 414 -254 723 -684 913 -1270 118 -365 147 -653 101 -1004
-36 -270 -20 -512 55 -859 19 -87 26 -146 26 -231 0 -199 -36 -331 -165 -606
-57 -123 -73 -167 -77 -215 -5 -59 -5 -59 21 -25 14 18 62 77 105 129 140 168
286 412 334 556 19 57 52 287 52 366 0 30 -4 38 -23 43 -35 8 -75 57 -96 117
-36 101 -44 234 -46 699 -1 470 -6 536 -56 769 -53 246 -170 573 -284 795
-224 438 -497 727 -863 914 -214 109 -489 188 -571 164z"/>
<path d="M3750 7007 c-27 -9 -35 -17 -35 -37 0 -38 50 -64 240 -125 111 -35
222 -80 313 -124 86 -43 187 -83 263 -106 324 -96 632 -342 862 -690 156 -236
298 -587 356 -875 37 -185 58 -587 32 -613 -20 -20 -63 12 -90 66 -21 43 -24
63 -27 205 -4 220 -37 390 -124 631 -119 334 -271 588 -480 805 -180 186 -432
356 -529 356 -36 0 -41 -3 -41 -23 0 -37 23 -61 178 -179 245 -187 382 -332
504 -533 175 -286 316 -668 358 -970 17 -119 -10 -171 -58 -110 -20 25 -46
102 -105 316 -20 69 -57 180 -82 245 -64 163 -212 462 -276 558 -76 113 -192
231 -360 367 -155 126 -192 162 -253 249 -82 118 -242 207 -605 336 -122 43
-164 54 -192 50 -45 -7 -144 -53 -226 -104 -62 -39 -62 -39 -10 -50 29 -6 86
-13 127 -16 197 -12 508 -130 692 -263 27 -19 108 -88 180 -154 73 -66 183
-153 245 -195 193 -129 273 -235 405 -537 44 -100 104 -236 133 -302 64 -148
89 -223 114 -345 25 -122 43 -161 133 -296 121 -179 171 -363 172 -624 0 -165
-8 -208 -74 -385 -79 -214 -85 -250 -72 -435 25 -357 -42 -553 -261 -754 -54
-49 -109 -104 -123 -123 -26 -34 -26 -34 13 -18 21 9 90 35 153 57 136 47 202
82 292 155 106 86 148 145 183 253 37 117 55 148 90 160 36 12 94 70 119 118
29 57 57 178 63 277 7 117 -5 199 -48 334 -46 146 -75 398 -82 712 -2 116 -2
116 39 161 63 69 69 95 69 318 0 162 -4 214 -23 308 -110 546 -385 1059 -729
1356 -167 145 -298 222 -549 326 -91 38 -189 85 -218 105 -28 20 -73 51 -99
70 -58 41 -114 59 -265 85 -128 22 -239 25 -292 7z m2011 -3606 c13 -65 7
-222 -16 -393 -19 -139 -22 -148 -44 -148 -24 0 -50 30 -67 77 -18 50 -18 293
0 394 30 168 98 206 127 70z"/>
<path d="M3370 6464 c-60 -34 -100 -73 -100 -98 0 -19 6 -21 73 -22 205 -3
476 -101 691 -247 136 -94 236 -199 356 -377 128 -189 347 -485 475 -640 52
-63 116 -144 142 -179 26 -36 60 -73 75 -84 23 -17 29 -18 44 -6 13 11 15 25
11 69 -5 42 -22 86 -73 185 -168 323 -184 358 -199 440 -25 139 -122 299 -232
384 -48 37 -86 39 -91 5 -2 -13 18 -52 52 -100 143 -204 195 -314 149 -314
-35 0 -71 38 -163 175 -61 93 -95 155 -110 201 -28 92 -47 119 -153 220 -217
207 -451 338 -707 395 -121 27 -184 25 -240 -7z"/>
<path d="M3213 6231 c-18 -12 -44 -42 -58 -72 -15 -28 -44 -70 -66 -94 -45
-49 -53 -47 67 -16 144 38 417 -26 643 -151 202 -111 422 -327 582 -568 53
-80 59 -113 21 -118 -26 -4 -75 43 -247 232 -260 288 -558 452 -871 480 -58 5
-67 3 -153 -39 -51 -25 -102 -45 -114 -45 -18 0 -16 -4 14 -24 24 -17 56 -26
104 -31 229 -22 363 -58 526 -141 151 -77 254 -157 419 -323 148 -148 187
-203 176 -247 -13 -51 -49 -28 -226 141 -277 265 -493 382 -789 431 -94 15
-94 15 -145 -11 -28 -14 -75 -47 -103 -74 -53 -50 -53 -50 0 -55 28 -3 95 -7
147 -10 196 -11 409 -90 576 -214 44 -32 138 -112 209 -177 72 -65 165 -143
209 -173 126 -89 150 -141 161 -352 3 -63 12 -158 20 -210 26 -169 18 -301
-27 -440 -39 -122 -90 -210 -249 -430 -32 -43 -39 -62 -37 -90 3 -31 6 -35 35
-38 18 -2 49 5 70 15 55 26 183 151 243 239 159 230 201 457 146 787 -26 151
-26 186 -4 214 12 15 43 1 70 -31 25 -30 75 -161 100 -264 29 -119 29 -323 0
-432 -43 -159 -90 -253 -192 -378 -112 -139 -244 -237 -407 -303 -112 -45
-339 -188 -433 -273 -37 -33 -37 -33 84 -45 82 -8 132 -9 154 -2 44 13 333
169 448 241 235 148 392 307 484 494 68 139 91 225 97 374 11 239 -50 441
-199 661 -86 127 -99 160 -108 279 -5 77 -14 121 -30 156 -12 28 -27 86 -32
130 -10 96 -37 158 -114 270 -281 404 -498 565 -940 697 -173 52 -218 57 -261
30z"/>
<path d="M3073 5349 c-23 -11 -70 -52 -104 -91 -63 -71 -63 -71 26 -62 178 18
291 2 415 -58 129 -62 290 -261 347 -427 55 -160 11 -343 -121 -512 -83 -105
-179 -150 -276 -129 -77 17 -175 58 -196 82 -18 19 -18 20 -1 33 10 7 54 18
99 25 45 6 101 21 125 32 61 28 121 90 151 156 22 48 27 71 26 142 0 73 -4 93
-27 137 -15 29 -37 59 -50 67 -20 14 -84 30 -227 57 -78 16 -156 6 -187 -23
-62 -58 -89 -174 -56 -237 38 -72 114 -93 129 -36 8 31 -9 53 -44 57 -39 4
-43 48 -6 77 49 39 137 21 187 -38 71 -85 31 -192 -98 -259 -42 -22 -64 -26
-131 -27 -81 0 -81 0 -28 -65 29 -36 62 -87 73 -113 20 -46 106 -141 181 -199
35 -27 35 -27 10 -49 -20 -17 -35 -20 -82 -17 -42 2 -58 -1 -58 -9 0 -7 -8
-21 -18 -31 -18 -18 -16 -19 59 -46 43 -15 85 -33 94 -40 27 -20 10 -51 -50
-94 -54 -39 -54 -39 -4 -50 28 -7 73 -12 101 -12 51 0 51 0 170 118 205 201
290 311 394 511 27 53 74 122 106 157 70 77 79 116 55 237 -29 145 -105 265
-282 442 -190 190 -374 284 -605 309 -44 4 -64 1 -97 -15z"/>
<path d="M3065 5062 c-41 -27 -66 -56 -114 -135 -47 -78 -48 -77 64 -29 93 40
199 37 331 -7 106 -36 134 -36 134 0 0 86 -147 174 -310 185 -63 5 -80 2 -105
-14z"/>
<path d="M4717 4973 c-4 -3 -7 -22 -7 -42 0 -41 44 -117 151 -261 85 -115 171
-287 199 -395 60 -232 38 -477 -60 -681 -131 -272 -390 -483 -942 -769 -101
-52 -196 -105 -213 -119 -30 -24 -30 -24 79 -31 193 -13 214 -7 521 163 307
169 452 263 569 369 127 114 161 154 211 253 94 187 137 419 115 618 -16 145
-50 256 -127 412 -57 116 -75 143 -126 190 -33 30 -106 101 -161 156 -123 124
-183 163 -209 137z"/>
<path d="M4085 4329 c-9 -17 -34 -82 -56 -146 -72 -208 -182 -393 -319 -537
-88 -93 -164 -146 -272 -193 -44 -19 -94 -44 -112 -56 -32 -23 -32 -23 53 -49
47 -15 126 -34 174 -43 49 -8 93 -17 98 -20 18 -12 95 33 139 81 25 27 65 84
89 127 23 44 73 127 110 185 87 137 132 227 164 327 46 147 44 280 -5 332 -29
31 -44 29 -63 -8z"/>
<path d="M3090 3922 c37 -43 50 -50 50 -29 0 16 -24 39 -60 57 -22 12 -21 9
10 -28z"/>
<path d="M3550 3203 c-57 -21 -139 -72 -114 -72 11 0 52 0 92 -2 84 -2 127 19
127 62 0 20 -6 24 -30 26 -16 1 -50 -5 -75 -14z"/>
<path d="M5135 3087 c-27 -30 -71 -85 -96 -123 -42 -63 -47 -75 -51 -139 -5
-91 -33 -149 -115 -235 -98 -105 -154 -139 -285 -172 -83 -21 -126 -38 -165
-65 -29 -20 -53 -38 -53 -39 0 -1 15 2 33 7 17 5 75 12 127 16 96 6 96 6 114
-23 16 -23 17 -33 8 -56 -10 -28 -10 -28 26 0 20 16 91 53 157 83 105 47 128
61 185 119 36 36 80 91 98 122 114 193 188 492 134 541 -33 30 -63 21 -117
-36z"/>
<path d="M4795 2876 c-16 -7 -79 -42 -140 -78 -60 -36 -204 -113 -320 -172
-115 -58 -222 -116 -237 -128 -27 -23 -27 -23 100 -17 215 11 317 39 462 125
138 82 273 225 256 269 -7 19 -79 20 -121 1z"/>
</g>
</svg>
