<?xml version="1.0" standalone="no"?>
<!DOCTYPE svg PUBLIC "-//W3C//DTD SVG 20010904//EN"
 "http://www.w3.org/TR/2001/REC-SVG-20010904/DTD/svg10.dtd">
<svg version="1.0" xmlns="http://www.w3.org/2000/svg"
 width="1000.000000pt" height="1000.000000pt" viewBox="0 0 1000.000000 1000.000000"
 preserveAspectRatio="xMidYMid meet">
<metadata>
  <rdf:RDF
    xmlns:rdf = "http://www.w3.org/1999/02/22-rdf-syntax-ns#"
    xmlns:rdfs = "http://www.w3.org/2000/01/rdf-schema#"
    xmlns:dc = "http://purl.org/dc/elements/1.1/"
    xmlns:cc = "http://creativecommons.org/ns#">
    <cc:license rdf:resource="http://creativecommons.org/publicdomain/zero/1.0/deed.en"/>
    <cc:permits rdf:resource="http://creativecommons.org/ns#Reproduction"/>
    <rdf:Description about="https://nft.mir.one/fingerprints"
      dc:title="TON Fingerprints"
      dc:description="This is a unique digital fingerprint created based on the algorithm for generating basic rings using a noise texture. Like human fingerprints, you can now use it for the Web3 and Metaverse era as digital biometric information."
      dc:publisher="https://nft.mir.one"
      dc:date="2022-02-22"
      dc:format="image/svg+xml"
      dc:language="en" >
      <dc:creator>
      <rdf:Bag>
        <rdf:li>EQBondcvD2_aOFADXSWJHs4ZazQDuEl9_wNvGGPxI8hGuOFU</rdf:li>
        <rdf:li>ipfs://bafkreihj7iub3fhmhq6jn62noukt5wxn3gv6bvcg7wmt6ywvlurefezckq</rdf:li>
      </rdf:Bag>
      </dc:creator>
    </rdf:Description>
  </rdf:RDF>
</metadata>
<rect width="100%" height="100%" fill="#1b1f23"/>
<g transform="translate(0.000000,1000.000000) scale(0.100000,-0.100000)"
fill="#ffffff" stroke="none">
<path d="M5169 7777 c19 -20 37 -35 39 -33 7 8 -7 24 -41 47 -32 22 -32 22 2
-14z"/>
<path d="M4606 7719 c90 -46 333 -132 489 -172 200 -52 239 -67 414 -159 229
-120 257 -133 361 -162 52 -15 127 -43 166 -61 70 -34 257 -155 384 -248 36
-27 95 -68 133 -92 61 -40 65 -41 47 -16 -38 54 -301 301 -400 375 -55 41
-150 105 -212 142 -168 100 -499 267 -613 309 -92 34 -106 37 -171 31 -54 -5
-101 -1 -205 19 -100 19 -411 64 -448 65 -2 0 23 -14 55 -31z"/>
<path d="M4211 7571 c-54 -6 -54 -6 -17 -24 21 -9 92 -36 158 -58 150 -50 493
-196 680 -290 246 -123 387 -228 569 -424 51 -55 166 -174 254 -265 250 -256
370 -424 504 -702 84 -173 156 -368 197 -533 20 -78 27 -141 34 -290 6 -145
16 -228 40 -350 57 -295 60 -401 19 -689 -49 -344 -165 -679 -324 -936 -64
-102 -257 -348 -389 -495 -81 -90 -81 -90 9 -9 247 224 425 433 549 647 154
265 277 639 321 973 25 195 19 311 -31 587 -30 164 -34 252 -11 274 23 23 43
10 70 -44 87 -170 139 -531 116 -801 -6 -68 -9 -126 -6 -128 9 -10 58 331 64
448 13 268 -36 531 -122 656 -47 69 -72 122 -160 337 -92 225 -210 474 -290
611 -127 217 -237 355 -500 624 -114 117 -203 218 -242 276 -136 199 -303 304
-753 474 -135 51 -267 99 -295 106 -110 29 -307 40 -444 25z"/>
<path d="M4046 7374 c-44 -8 -116 -37 -200 -78 -131 -65 -131 -65 -66 -62 36
2 90 13 120 24 101 39 261 25 385 -32 28 -13 85 -50 128 -83 43 -33 153 -99
245 -148 274 -145 425 -244 594 -392 90 -79 181 -180 208 -232 10 -20 17 -22
50 -17 35 5 40 3 87 -47 142 -151 308 -368 381 -497 102 -182 166 -441 179
-731 7 -161 -1 -206 -57 -299 -51 -86 -75 -158 -164 -482 -41 -150 -87 -307
-101 -348 -14 -41 -50 -159 -80 -262 -94 -324 -154 -424 -405 -683 -64 -66
-171 -183 -237 -260 -221 -256 -324 -337 -488 -380 -38 -10 -95 -34 -125 -53
-30 -19 -46 -31 -35 -27 11 4 56 9 101 12 86 6 130 -6 120 -33 -3 -8 -1 -24 4
-36 9 -22 9 -22 9 3 1 25 8 29 84 53 132 43 259 109 316 166 27 27 75 91 107
142 69 113 100 152 262 336 205 232 288 359 377 581 58 144 138 404 209 676
76 291 146 538 156 548 15 16 48 -3 61 -35 20 -49 13 -125 -19 -213 -16 -44
-53 -181 -82 -305 -115 -494 -225 -787 -386 -1030 -72 -109 -141 -194 -279
-348 -133 -149 -187 -226 -183 -261 4 -36 40 -39 89 -6 22 14 95 81 162 148
423 423 623 839 742 1544 35 207 45 243 70 243 30 0 40 -42 39 -165 -1 -139
-22 -282 -69 -474 -119 -483 -309 -824 -650 -1167 -147 -149 -229 -208 -324
-237 -96 -28 -169 -85 -271 -207 -43 -53 -44 -54 -11 -31 18 13 120 63 225
111 270 122 415 220 607 413 166 167 270 315 380 542 154 317 241 672 242 985
1 164 1 165 -36 275 -47 141 -82 290 -102 435 -8 63 -24 172 -36 242 -73 463
-292 886 -610 1179 -115 106 -188 178 -337 332 -116 120 -241 218 -394 309
-139 82 -636 328 -721 356 -78 25 -165 27 -271 6z"/>
<path d="M3931 7153 c-30 -15 -60 -38 -68 -50 -13 -19 -12 -26 2 -57 25 -53
79 -94 185 -144 106 -49 130 -67 130 -94 0 -14 -8 -18 -33 -18 -61 0 -189 39
-296 91 -74 36 -118 51 -146 51 -50 0 -138 -35 -230 -91 -38 -22 -72 -41 -77
-41 -4 0 -8 -4 -8 -9 0 -13 75 -29 165 -36 44 -4 154 -21 245 -37 168 -32 202
-34 475 -27 98 2 119 0 195 -25 153 -51 256 -112 390 -231 41 -37 138 -114
215 -172 97 -73 191 -157 305 -272 91 -92 191 -184 224 -206 95 -63 194 -225
198 -322 3 -72 -36 -69 -86 8 -110 172 -134 205 -159 223 -36 26 -61 13 -65
-35 -4 -42 69 -195 151 -317 31 -46 65 -108 76 -138 67 -178 48 -479 -54 -869
-69 -264 -144 -437 -245 -565 -77 -97 -233 -327 -266 -391 -14 -28 -38 -84
-54 -125 -38 -99 -101 -185 -234 -319 -176 -177 -314 -275 -554 -394 -64 -32
-133 -68 -152 -80 -35 -23 -35 -23 95 -17 336 15 433 68 790 429 116 117 238
234 272 260 73 55 150 145 215 254 66 108 88 176 88 267 0 67 6 92 60 236 70
187 114 337 204 690 85 335 93 395 78 608 -7 92 -12 194 -12 228 0 118 -52
265 -140 394 -21 30 -95 123 -165 205 -70 83 -144 179 -165 213 -35 59 -44 67
-116 102 -44 21 -128 77 -187 125 -241 191 -354 268 -517 350 -137 69 -225
101 -341 124 -168 33 -350 107 -357 144 -5 27 64 22 196 -14 91 -24 120 -29
139 -20 85 39 -65 130 -227 138 -78 4 -89 2 -139 -24z m1615 -3488 c13 -34
-172 -330 -255 -408 -63 -59 -86 -62 -78 -11 7 44 220 368 267 408 35 29 58
33 66 11z"/>
<path d="M5827 7083 c-15 -14 -6 -59 19 -94 14 -21 83 -89 152 -152 416 -376
571 -601 875 -1273 58 -127 114 -248 126 -270 24 -45 98 -129 87 -99 -4 11
-32 111 -62 221 -138 515 -333 959 -527 1199 -118 146 -422 393 -560 456 -42
19 -98 25 -110 12z"/>
<path d="M3450 6559 c-49 -17 -100 -48 -203 -124 -67 -50 -67 -50 -39 -58 15
-5 72 -15 127 -23 146 -20 199 -40 285 -107 136 -105 490 -336 526 -343 48 -9
106 2 121 23 25 33 15 69 -40 139 -68 88 -101 110 -283 184 -164 67 -211 91
-221 117 -20 51 97 56 319 14 84 -16 203 -33 263 -36 61 -4 155 -16 210 -26
173 -33 221 -23 195 41 -36 87 -265 169 -520 185 -52 3 -147 11 -210 17 -186
17 -476 16 -530 -3z"/>
<path d="M4326 6194 c-26 -25 -19 -45 33 -95 70 -67 111 -85 284 -124 194 -44
302 -95 406 -191 85 -79 130 -142 200 -281 153 -306 197 -488 188 -775 -12
-379 -118 -679 -379 -1075 -134 -203 -200 -284 -378 -464 -210 -212 -365 -329
-615 -467 -60 -34 -124 -71 -141 -84 -32 -23 -32 -23 90 -20 171 4 206 13 328
85 153 91 251 165 371 278 130 122 215 227 309 379 40 63 133 210 209 325 147
226 183 291 234 425 84 219 134 464 142 690 8 231 -11 318 -127 570 -29 63
-74 174 -100 247 -26 72 -65 157 -86 189 -84 127 -252 266 -411 341 -77 37
-79 37 -218 39 -77 1 -158 7 -180 13 -61 16 -141 14 -159 -5z"/>
<path d="M3243 6165 c-18 -7 -66 -36 -108 -63 -75 -50 -75 -50 -44 -66 18 -9
71 -25 118 -36 127 -30 256 -97 345 -181 41 -38 86 -89 100 -114 23 -39 69
-151 158 -389 89 -239 143 -621 118 -831 -28 -233 -117 -430 -264 -583 -108
-114 -239 -193 -374 -227 -35 -9 -76 -22 -93 -29 -29 -12 -29 -12 64 -58 130
-65 141 -66 237 -16 269 138 476 426 544 758 33 161 37 288 21 625 -12 256
-20 347 -40 455 -51 265 -77 329 -184 443 -122 129 -339 273 -470 311 -66 19
-86 19 -128 1z"/>
<path d="M3103 5816 c-23 -14 -57 -36 -76 -50 -19 -14 -40 -26 -48 -26 -19 -1
60 -33 144 -59 41 -13 105 -46 159 -81 109 -72 189 -100 228 -78 48 27 39 79
-27 149 -77 83 -232 169 -302 169 -20 0 -55 -11 -78 -24z"/>
<path d="M4537 5761 c-48 -25 -61 -28 -94 -20 -59 13 -167 11 -206 -6 -20 -8
-42 -25 -49 -37 -19 -35 -14 -224 11 -385 21 -143 21 -143 1 -219 -17 -68 -20
-107 -19 -343 1 -198 -3 -293 -15 -371 -72 -468 -289 -780 -686 -983 -52 -27
-106 -59 -121 -71 -26 -22 -26 -22 53 -50 118 -42 161 -40 244 15 211 136 381
318 482 516 153 299 209 735 152 1177 -10 84 -6 100 26 94 74 -13 124 -356 95
-643 -19 -181 -67 -454 -95 -539 -100 -296 -275 -505 -635 -760 -52 -37 -109
-84 -127 -104 -31 -37 -31 -37 80 -36 82 0 120 5 146 17 64 31 253 180 351
277 148 146 217 252 297 455 57 144 65 177 68 305 1 63 12 176 23 250 56 362
34 592 -83 856 -71 158 -96 242 -103 334 -5 63 -3 78 11 89 15 13 20 12 37 -5
26 -27 205 -483 234 -599 55 -216 53 -426 -6 -736 -33 -172 -33 -219 0 -219
24 0 45 25 75 90 56 123 106 381 106 548 0 240 -54 439 -215 797 -41 91 -70
169 -73 198 -4 44 -3 47 18 47 32 0 83 -58 110 -127 13 -32 54 -119 91 -193
122 -246 166 -409 176 -650 12 -306 -71 -612 -212 -780 -63 -74 -125 -201
-170 -344 -47 -147 -99 -229 -234 -364 -108 -109 -240 -213 -411 -324 -63 -42
-126 -88 -140 -103 -25 -28 -25 -28 93 -22 141 8 164 16 320 123 152 104 187
134 372 314 88 86 188 178 223 205 111 86 256 288 378 527 124 244 182 466
191 729 8 241 -20 401 -107 614 -106 261 -255 426 -425 470 -96 25 -173 20
-238 -14z m275 -147 c92 -60 223 -271 282 -455 51 -161 61 -231 61 -444 -1
-220 -14 -308 -76 -495 -74 -227 -314 -631 -401 -676 -88 -45 -56 51 96 295
183 292 254 510 264 811 10 328 -73 606 -258 866 -38 54 -70 103 -70 109 0 33
42 29 102 -11z"/>
<path d="M3039 5521 c-24 -15 -60 -45 -78 -65 -35 -36 -35 -36 20 -36 68 0
178 26 201 47 24 21 23 38 -4 63 -32 29 -85 26 -139 -9z"/>
<path d="M3180 5321 c-41 -9 -85 -22 -96 -29 -26 -14 -91 -91 -124 -147 -13
-22 -30 -50 -38 -62 -14 -22 -13 -23 19 -17 19 3 63 15 99 27 90 29 214 28
293 -2 113 -44 207 -172 207 -282 0 -55 -66 -263 -114 -357 -38 -75 -98 -145
-160 -186 -52 -34 -86 -48 -213 -86 -24 -7 -43 -16 -43 -20 0 -14 150 -82 182
-82 66 0 205 92 275 183 72 93 105 178 149 384 11 51 37 58 58 16 23 -44 21
-163 -5 -247 -37 -120 -86 -201 -179 -295 -91 -92 -170 -140 -290 -177 -36
-12 -79 -26 -96 -33 -31 -12 -31 -12 37 -45 110 -53 139 -58 199 -35 149 57
306 207 389 372 105 210 118 364 52 622 -63 246 -127 373 -226 449 -88 67
-221 84 -375 49z"/>
<path d="M3067 4918 c-65 -65 -102 -197 -77 -272 13 -39 57 -70 84 -60 22 9
20 37 -4 52 -11 7 -20 21 -20 32 0 27 35 60 64 60 36 0 84 -45 92 -85 3 -19 1
-49 -6 -69 -24 -75 -75 -112 -185 -136 -59 -12 -59 -12 -30 -37 49 -41 132
-76 162 -68 66 16 147 97 188 188 95 208 12 399 -180 414 -58 5 -65 3 -88 -19z"/>
<path d="M6941 3964 c0 -11 3 -14 6 -6 3 7 2 16 -1 19 -3 4 -6 -2 -5 -13z"/>
</g>
</svg>
