<?xml version="1.0" standalone="no"?>
<!DOCTYPE svg PUBLIC "-//W3C//DTD SVG 20010904//EN"
 "http://www.w3.org/TR/2001/REC-SVG-20010904/DTD/svg10.dtd">
<svg version="1.0" xmlns="http://www.w3.org/2000/svg"
 width="1000.000000pt" height="1000.000000pt" viewBox="0 0 1000.000000 1000.000000"
 preserveAspectRatio="xMidYMid meet">
<metadata>
  <rdf:RDF
    xmlns:rdf = "http://www.w3.org/1999/02/22-rdf-syntax-ns#"
    xmlns:rdfs = "http://www.w3.org/2000/01/rdf-schema#"
    xmlns:dc = "http://purl.org/dc/elements/1.1/"
    xmlns:cc = "http://creativecommons.org/ns#">
    <cc:license rdf:resource="http://creativecommons.org/publicdomain/zero/1.0/deed.en"/>
    <cc:permits rdf:resource="http://creativecommons.org/ns#Reproduction"/>
    <rdf:Description about="https://nft.mir.one/fingerprints"
      dc:title="TON Fingerprints"
      dc:description="This is a unique digital fingerprint created based on the algorithm for generating basic rings using a noise texture. Like human fingerprints, you can now use it for the Web3 and Metaverse era as digital biometric information."
      dc:publisher="https://nft.mir.one"
      dc:date="2022-02-22"
      dc:format="image/svg+xml"
      dc:language="en" >
      <dc:creator>
      <rdf:Bag>
        <rdf:li>EQBondcvD2_aOFADXSWJHs4ZazQDuEl9_wNvGGPxI8hGuOFU</rdf:li>
        <rdf:li>ipfs://bafkreihj7iub3fhmhq6jn62noukt5wxn3gv6bvcg7wmt6ywvlurefezckq</rdf:li>
      </rdf:Bag>
      </dc:creator>
    </rdf:Description>
  </rdf:RDF>
</metadata>
<rect width="100%" height="100%" fill="#1b1f23"/>
<g transform="translate(0.000000,1000.000000) scale(0.100000,-0.100000)"
fill="#ffffff" stroke="none">
<path d="M4960 7813 c0 -2 5 -24 11 -49 14 -54 64 -102 264 -252 314 -236 446
-356 546 -498 75 -105 366 -614 445 -779 35 -71 101 -227 147 -345 47 -118
123 -300 170 -405 46 -104 106 -255 131 -335 31 -94 55 -151 69 -163 21 -18
22 -18 39 3 35 43 17 187 -44 365 -17 49 -60 162 -95 250 -36 88 -101 257
-144 375 -99 268 -182 440 -334 690 -65 107 -151 263 -191 345 -84 173 -129
234 -251 340 -153 134 -326 237 -607 361 -49 21 -104 53 -123 70 -18 17 -33
29 -33 27z"/>
<path d="M4509 7715 c28 -32 61 -103 61 -133 0 -39 5 -44 110 -107 128 -77
316 -207 480 -330 74 -56 183 -134 242 -173 59 -40 123 -86 142 -103 54 -47
111 -140 141 -229 17 -51 63 -140 127 -247 166 -276 274 -506 351 -748 55
-174 62 -213 48 -295 -15 -93 -2 -177 56 -344 97 -283 162 -417 233 -478 38
-31 62 -65 91 -123 24 -48 61 -101 91 -132 51 -51 51 -51 93 -260 24 -118 51
-225 63 -248 19 -36 21 -37 22 -15 1 89 34 433 50 534 24 153 28 193 40 399 7
122 16 184 30 225 26 74 26 194 0 347 -33 196 -79 352 -195 665 -46 126 -59
172 -66 250 -8 88 -13 104 -72 225 -63 127 -164 289 -255 410 -95 125 -254
313 -269 319 -8 4 -22 1 -29 -5 -36 -30 1 -122 123 -305 223 -334 297 -478
368 -714 26 -85 79 -236 117 -335 201 -514 228 -644 172 -826 -22 -73 -27
-111 -35 -302 -5 -120 -14 -237 -20 -260 -17 -65 -55 -97 -76 -64 -4 6 -11
125 -14 262 -7 268 -9 280 -65 375 -18 30 -49 98 -69 150 -59 152 -91 222
-155 332 -36 62 -97 197 -156 345 -102 259 -202 471 -307 655 -36 62 -100 176
-142 253 -159 288 -214 345 -685 705 -96 73 -190 146 -208 162 -52 44 -125 77
-294 132 -131 43 -154 48 -139 31z m1848 -2387 c30 -33 60 -99 142 -304 104
-265 135 -408 97 -459 -22 -30 -42 -11 -61 57 -9 34 -52 158 -95 273 -92 248
-140 396 -140 430 0 32 29 33 57 3z"/>
<path d="M5595 7678 c28 -23 79 -70 115 -104 36 -33 117 -100 180 -149 63 -48
147 -118 185 -154 39 -36 97 -85 130 -108 65 -46 306 -277 400 -383 52 -59 50
-56 -19 36 -84 111 -179 217 -303 337 -56 54 -84 90 -90 113 -7 29 -33 50
-243 192 -129 87 -273 182 -320 211 -85 52 -85 52 -35 9z"/>
<path d="M4211 7573 c-65 -4 -65 -4 -10 -29 135 -63 322 -73 343 -18 16 42
-105 59 -333 47z"/>
<path d="M4030 7365 c-77 -16 -128 -34 -198 -69 -28 -14 -58 -26 -67 -26 -19
0 -20 -16 0 -24 9 -3 15 -18 15 -36 0 -65 57 -138 152 -194 24 -14 102 -48
173 -76 168 -67 258 -114 295 -156 37 -42 48 -81 28 -100 -12 -12 -19 -11 -53
7 -67 35 -160 67 -308 109 -150 41 -235 74 -295 115 -32 22 -48 25 -120 25
-55 0 -93 5 -112 15 -30 15 -30 15 -18 -12 6 -16 18 -33 26 -40 38 -31 -26
-93 -156 -151 -41 -19 -41 -19 -14 -50 24 -29 35 -33 111 -42 112 -13 202 -36
281 -72 79 -35 96 -50 127 -113 14 -27 44 -72 67 -100 24 -27 62 -77 86 -110
61 -85 100 -124 320 -324 238 -215 729 -705 846 -844 328 -390 593 -1000 595
-1373 1 -81 -3 -99 -31 -165 -18 -41 -45 -110 -60 -154 -16 -44 -46 -127 -68
-185 -22 -58 -61 -179 -86 -270 -51 -184 -101 -335 -170 -517 -34 -88 -46
-133 -44 -162 3 -39 3 -39 68 37 141 165 172 217 221 365 45 138 155 527 184
652 41 181 43 187 68 183 38 -5 53 -74 39 -186 -16 -127 -108 -481 -185 -714
-57 -173 -88 -282 -74 -268 3 3 43 57 90 119 106 142 171 255 198 345 42 141
110 464 116 551 5 82 2 105 -36 265 -23 96 -53 221 -66 278 -89 376 -302 856
-508 1144 -99 139 -160 204 -511 548 -336 328 -490 471 -669 614 -105 85 -137
125 -113 145 29 24 137 -24 261 -116 124 -93 260 -216 525 -479 135 -134 281
-272 325 -307 200 -160 372 -405 542 -771 203 -439 335 -832 389 -1162 20
-123 14 -189 -25 -279 -16 -39 -45 -147 -66 -245 -20 -96 -44 -206 -54 -245
-10 -38 -22 -95 -25 -125 -8 -65 -7 -64 72 75 87 155 137 286 153 405 14 111
17 120 39 120 32 0 51 -54 62 -173 5 -61 12 -117 17 -124 11 -20 60 180 67
278 7 91 12 63 -87 484 -71 296 -119 426 -364 970 -215 478 -225 497 -325 615
-128 150 -182 243 -200 339 -15 85 -47 153 -120 261 -139 202 -397 469 -625
646 -69 54 -125 103 -125 109 0 20 23 35 55 35 99 0 318 -170 552 -429 181
-200 280 -348 359 -536 98 -232 172 -345 229 -345 23 0 25 4 25 45 0 50 -42
173 -120 347 -115 259 -224 415 -461 664 -193 201 -273 274 -374 339 -97 63
-485 263 -591 305 -124 49 -305 110 -358 121 -76 14 -102 66 -45 89 50 21 177
6 334 -39 177 -51 270 -87 417 -161 272 -137 395 -231 583 -445 74 -84 149
-165 167 -180 207 -172 467 -622 524 -905 16 -81 16 -88 -1 -157 -18 -72 -18
-72 15 -170 74 -224 198 -519 326 -774 166 -334 224 -504 318 -935 19 -88 43
-178 54 -201 19 -43 19 -43 38 85 13 86 19 179 19 287 -1 154 -2 165 -38 290
-42 147 -128 330 -232 495 -76 121 -139 247 -203 410 -88 225 -105 296 -132
573 -18 175 -76 351 -196 588 -125 247 -243 410 -347 481 -129 87 -210 180
-242 278 -22 68 -92 144 -221 241 -188 141 -389 256 -514 293 -208 62 -382 79
-520 51z m451 -762 c14 -16 42 -51 62 -79 20 -27 113 -120 208 -204 199 -179
342 -327 474 -490 160 -200 194 -260 143 -260 -39 0 -80 33 -183 146 -156 171
-381 398 -485 489 -238 210 -304 249 -457 272 -137 20 -255 51 -276 72 -23 22
-14 46 24 62 29 12 71 11 284 -7 49 -4 82 -1 110 9 58 21 68 20 96 -10z"/>
<path d="M5367 6833 c-27 -27 54 -146 140 -206 49 -34 71 -34 79 -2 18 70
-175 253 -219 208z"/>
<path d="M3324 6411 c-39 -21 -90 -53 -114 -70 -24 -17 -50 -31 -59 -31 -39
-2 68 -43 145 -56 279 -49 475 -167 890 -536 144 -129 604 -592 752 -758 330
-368 534 -788 572 -1172 8 -85 8 -154 1 -255 -18 -226 -21 -243 -42 -243 -19
0 -41 35 -53 82 -3 14 -10 115 -16 225 -5 109 -16 236 -25 283 -49 255 -181
532 -381 801 -70 93 -406 451 -709 754 -311 311 -631 536 -879 619 -102 34
-148 41 -185 28 -32 -11 -180 -103 -180 -113 -1 -10 71 -38 139 -54 332 -75
675 -287 992 -613 126 -130 201 -220 310 -375 39 -56 78 -108 87 -114 8 -7 31
-13 51 -13 77 0 160 -87 331 -343 233 -348 283 -491 314 -893 9 -109 20 -239
26 -289 24 -197 -17 -415 -121 -642 -50 -108 -112 -201 -196 -294 -38 -43 -85
-96 -104 -120 -35 -44 -35 -44 -5 -23 17 12 82 46 145 77 135 64 209 119 245
181 74 126 158 381 206 628 33 163 33 163 80 208 39 38 51 58 72 126 72 228
73 395 6 649 -78 297 -279 675 -500 940 -122 146 -601 627 -849 853 -118 108
-266 245 -328 304 -172 164 -284 236 -427 273 -87 22 -112 19 -191 -24z"/>
<path d="M6795 6173 c15 -66 235 -542 235 -510 0 15 -113 323 -150 409 -38 88
-64 128 -83 128 -5 0 -6 -12 -2 -27z"/>
<path d="M3117 5741 c-21 -11 -62 -38 -91 -60 -29 -23 -59 -41 -67 -41 -27 -1
77 -42 151 -60 458 -112 910 -485 1049 -866 61 -165 67 -309 26 -549 -53 -309
-110 -517 -216 -783 -27 -67 -49 -136 -49 -152 0 -45 42 -41 86 7 100 108 204
392 284 773 36 170 52 224 93 305 28 57 29 64 23 145 -8 117 -48 303 -80 375
-48 108 -153 251 -278 381 -243 251 -493 417 -765 507 -61 20 -115 37 -120 37
-5 0 -26 -9 -46 -19z"/>
<path d="M3052 5400 c-18 -11 -55 -38 -82 -59 -50 -39 -50 -39 -14 -60 19 -12
42 -21 51 -21 29 0 221 -69 295 -106 317 -158 546 -430 604 -717 19 -91 16
-212 -10 -456 -17 -155 -36 -214 -72 -219 -25 -4 -31 22 -61 249 -16 125 -16
125 6 156 70 94 33 285 -93 477 -101 156 -250 284 -440 377 -154 76 -181 75
-279 -9 -47 -41 -47 -41 -14 -60 17 -11 67 -32 110 -46 298 -100 528 -325 637
-625 35 -95 37 -121 12 -121 -33 0 -64 33 -137 144 -92 141 -157 219 -243 289
-90 74 -199 137 -237 137 -33 0 -85 -28 -127 -68 -28 -25 -28 -25 -6 -41 13
-8 67 -39 121 -68 118 -63 194 -120 270 -202 123 -133 214 -289 242 -414 17
-76 17 -76 -9 -132 -14 -31 -33 -96 -42 -143 -30 -164 -70 -281 -150 -437 -10
-19 -11 -25 -3 -17 7 6 27 12 45 12 39 0 112 25 136 46 18 17 70 164 87 252
13 62 14 159 2 219 -15 80 22 82 90 5 41 -47 41 -47 36 -132 -6 -87 -49 -272
-86 -371 -12 -30 -37 -82 -57 -115 -33 -53 -84 -144 -84 -149 0 -1 28 2 63 6
102 12 144 34 182 93 41 65 45 80 50 168 3 75 36 197 121 458 70 215 107 430
108 630 1 139 -17 235 -64 351 -122 300 -455 593 -809 714 -90 30 -106 31
-149 5z"/>
<path d="M7050 4900 c1 -3 8 -27 16 -55 14 -50 14 -50 9 -5 -3 25 -10 49 -16
55 -5 5 -9 7 -9 5z"/>
<path d="M4546 4755 c-23 -23 -21 -118 5 -201 12 -38 44 -121 72 -184 65 -146
67 -183 15 -295 -28 -62 -43 -115 -63 -235 -37 -216 -75 -356 -133 -492 -83
-197 -204 -379 -378 -572 -49 -54 -102 -116 -117 -138 -29 -39 -29 -39 10 -32
62 11 156 42 184 61 73 49 263 316 358 503 125 246 165 396 191 722 11 150 31
191 60 131 9 -19 15 -84 18 -193 7 -266 -29 -420 -160 -681 -101 -201 -216
-371 -383 -564 -33 -38 -73 -86 -87 -106 -26 -36 -26 -36 52 -8 176 62 214 98
382 353 99 151 269 489 291 578 55 218 41 477 -34 638 -32 70 -33 100 -3 100
23 0 77 -60 102 -114 74 -156 99 -427 61 -651 -12 -68 -26 -98 -76 -163 -19
-25 -66 -109 -105 -185 -111 -222 -219 -386 -368 -557 -31 -36 -66 -81 -77
-102 -21 -36 -21 -36 35 -11 189 83 232 119 353 300 81 123 133 227 193 389
25 65 51 123 60 129 51 32 55 -101 8 -242 -65 -193 -174 -372 -338 -553 -33
-36 -72 -81 -86 -102 -28 -36 -28 -36 10 -18 20 11 77 38 126 61 125 60 174
102 251 219 79 118 137 247 172 380 27 104 27 117 3 600 -19 382 -61 519 -231
747 -46 61 -124 178 -174 259 -80 132 -154 233 -175 242 -4 2 -15 -4 -24 -13z"/>
<path d="M7082 4730 c0 -14 2 -19 5 -12 2 6 2 18 0 25 -3 6 -5 1 -5 -13z"/>
<path d="M3081 4333 c-18 -9 -44 -34 -58 -55 -14 -21 -31 -38 -37 -38 -13 0
63 -53 118 -82 54 -28 144 -115 168 -161 10 -21 18 -51 16 -65 -3 -26 -4 -27
-78 -28 -41 -1 -89 -5 -107 -9 -32 -7 -32 -7 10 -39 95 -72 136 -168 123 -288
-6 -57 -6 -57 32 -51 57 9 101 33 118 65 18 35 44 215 44 310 0 127 -53 239
-167 350 -106 104 -130 116 -182 91z"/>
<path d="M4457 4262 c-10 -11 -33 -96 -57 -218 -65 -315 -99 -440 -167 -604
-54 -132 -109 -217 -203 -315 -153 -158 -300 -335 -300 -360 0 -2 12 0 26 5
14 6 35 10 48 10 45 0 127 32 162 62 49 43 186 208 246 296 59 88 136 239 172
340 35 97 69 235 117 471 42 205 45 260 15 306 -19 30 -37 32 -59 7z"/>
</g>
</svg>
