<?xml version="1.0" standalone="no"?>
<!DOCTYPE svg PUBLIC "-//W3C//DTD SVG 20010904//EN"
 "http://www.w3.org/TR/2001/REC-SVG-20010904/DTD/svg10.dtd">
<svg version="1.0" xmlns="http://www.w3.org/2000/svg"
 width="1000.000000pt" height="1000.000000pt" viewBox="0 0 1000.000000 1000.000000"
 preserveAspectRatio="xMidYMid meet">
<metadata>
  <rdf:RDF
    xmlns:rdf = "http://www.w3.org/1999/02/22-rdf-syntax-ns#"
    xmlns:rdfs = "http://www.w3.org/2000/01/rdf-schema#"
    xmlns:dc = "http://purl.org/dc/elements/1.1/"
    xmlns:cc = "http://creativecommons.org/ns#">
    <cc:license rdf:resource="http://creativecommons.org/publicdomain/zero/1.0/deed.en"/>
    <cc:permits rdf:resource="http://creativecommons.org/ns#Reproduction"/>
    <rdf:Description about="https://nft.mir.one/fingerprints"
      dc:title="TON Fingerprints"
      dc:description="This is a unique digital fingerprint created based on the algorithm for generating basic rings using a noise texture. Like human fingerprints, you can now use it for the Web3 and Metaverse era as digital biometric information."
      dc:publisher="https://nft.mir.one"
      dc:date="2022-02-22"
      dc:format="image/svg+xml"
      dc:language="en" >
      <dc:creator>
      <rdf:Bag>
        <rdf:li>EQBondcvD2_aOFADXSWJHs4ZazQDuEl9_wNvGGPxI8hGuOFU</rdf:li>
        <rdf:li>ipfs://bafkreihj7iub3fhmhq6jn62noukt5wxn3gv6bvcg7wmt6ywvlurefezckq</rdf:li>
      </rdf:Bag>
      </dc:creator>
    </rdf:Description>
  </rdf:RDF>
</metadata>
<rect width="100%" height="100%" fill="#1b1f23"/>
<g transform="translate(0.000000,1000.000000) scale(0.100000,-0.100000)"
fill="#ffffff" stroke="none">
<path d="M5510 7716 c0 -2 16 -14 36 -27 20 -12 45 -36 55 -53 17 -27 19 -28
19 -9 0 13 -13 32 -32 46 -37 27 -78 50 -78 43z"/>
<path d="M4945 7660 c-27 -5 -138 -16 -245 -24 -290 -24 -368 -39 -590 -114
-115 -39 -115 -39 -55 -45 33 -3 67 -7 75 -8 8 -2 71 0 140 5 138 9 340 -4
448 -29 35 -9 117 -40 181 -70 64 -30 225 -90 359 -134 282 -93 396 -145 581
-264 74 -48 152 -92 172 -97 39 -11 85 -5 95 11 3 5 -59 73 -138 152 -206 205
-243 224 -688 352 -271 78 -322 98 -328 129 -10 52 102 49 334 -8 98 -24 229
-54 289 -65 75 -15 137 -35 194 -62 101 -47 202 -118 218 -150 6 -13 23 -49
37 -79 14 -30 44 -84 66 -120 37 -57 41 -70 36 -107 -6 -43 -6 -43 197 -216
196 -168 251 -224 314 -317 182 -272 286 -678 243 -945 -24 -151 -89 -280
-141 -280 -28 0 -28 0 -4 140 21 121 16 358 -10 475 -60 270 -176 505 -331
670 -95 100 -254 217 -398 291 -66 34 -143 76 -171 92 -213 126 -334 182 -536
250 -210 71 -510 156 -612 172 -238 39 -515 2 -690 -92 -74 -40 -211 -174
-258 -254 -45 -76 -88 -121 -292 -312 -144 -135 -182 -179 -283 -322 -49 -70
-49 -70 10 -20 32 28 86 74 120 104 80 70 150 109 209 117 65 9 109 40 271
190 186 173 254 226 361 279 223 111 484 130 818 59 392 -83 709 -222 1010
-444 53 -39 128 -87 165 -105 37 -18 83 -45 101 -60 131 -111 298 -458 351
-730 11 -57 26 -175 34 -262 15 -155 26 -209 53 -248 17 -25 17 -72 -2 -170
-31 -157 -34 -213 -19 -274 9 -31 13 -70 9 -87 -3 -16 -41 -103 -85 -192 -43
-89 -96 -206 -115 -260 -53 -140 -81 -185 -244 -392 -154 -194 -269 -328 -385
-448 -138 -142 -198 -179 -306 -188 -87 -8 -287 26 -421 70 -57 19 -150 48
-206 65 -76 23 -120 44 -178 84 -41 28 -109 75 -149 103 -48 33 -103 60 -159
77 -109 35 -187 86 -291 192 -243 244 -409 559 -468 885 -16 88 -21 157 -21
295 0 200 24 481 49 565 40 136 123 259 217 321 34 23 121 99 192 169 151 147
228 204 356 264 221 105 457 129 724 75 137 -28 262 -76 451 -175 166 -86 225
-103 238 -68 9 23 -6 45 -76 109 -123 114 -298 212 -488 273 -179 57 -247 67
-455 66 -172 0 -199 -3 -288 -27 -118 -31 -259 -97 -364 -169 -86 -58 -338
-304 -450 -439 -89 -106 -166 -227 -222 -351 -41 -89 -47 -96 -85 -109 -103
-35 -173 -247 -183 -556 -7 -196 5 -312 47 -478 78 -310 215 -548 478 -830
157 -169 202 -228 202 -268 0 -55 -26 -42 -162 83 -224 205 -343 344 -445 518
-231 393 -305 904 -188 1306 37 126 70 195 186 376 255 399 503 706 687 852
339 270 763 327 1244 168 273 -91 458 -212 590 -386 41 -55 90 -90 108 -79 28
17 -21 185 -79 268 -105 154 -426 329 -765 418 -163 42 -303 61 -461 61 -292
0 -510 -81 -745 -277 -112 -93 -184 -175 -266 -301 -40 -61 -117 -171 -172
-245 -246 -331 -382 -573 -427 -760 -69 -291 -72 -584 -8 -914 48 -249 158
-529 284 -720 125 -190 423 -431 558 -451 35 -5 56 -17 96 -54 56 -53 101 -78
195 -108 142 -45 159 -46 691 -44 437 3 507 1 518 -12 19 -23 -2 -52 -58 -81
-62 -31 -259 -81 -381 -96 -171 -21 -564 1 -791 45 -43 8 -142 22 -220 31 -79
9 -198 30 -264 45 -66 16 -121 27 -123 26 -7 -8 250 -159 352 -206 234 -111
303 -125 819 -170 256 -22 292 -29 358 -71 86 -55 151 -71 304 -76 161 -6 306
10 489 53 119 28 119 28 50 40 -38 7 -88 13 -110 13 -23 1 -93 10 -155 20 -67
12 -195 23 -311 27 -213 7 -240 14 -219 52 17 32 51 46 202 85 135 35 223 71
248 101 28 34 113 88 166 107 30 11 122 26 203 35 251 26 322 48 474 146 65
42 242 188 235 194 -6 6 -102 -24 -161 -50 -83 -38 -195 -68 -393 -106 -149
-29 -175 -31 -202 -20 -17 7 -31 19 -31 27 0 23 49 63 136 113 79 45 79 45
176 42 87 -3 104 0 175 27 92 36 155 74 219 133 67 62 201 244 298 406 86 144
86 144 40 105 -26 -21 -93 -81 -148 -134 -56 -52 -137 -126 -181 -164 -160
-137 -426 -322 -445 -310 -20 12 -4 72 34 123 48 66 370 365 496 461 119 90
159 142 241 316 40 85 165 425 155 425 -1 0 -26 -37 -56 -82 -248 -382 -323
-484 -382 -514 -61 -32 -74 4 -32 88 36 71 158 264 237 376 70 100 105 178
157 357 34 117 62 180 82 188 7 3 4 6 -7 6 -48 2 -96 -60 -200 -259 -65 -124
-114 -183 -148 -178 -16 2 -21 9 -20 24 5 45 121 303 171 379 63 95 90 176
102 305 30 313 -113 827 -317 1144 -25 38 -102 128 -171 200 -70 72 -191 207
-270 300 -159 189 -170 212 -94 209 62 -3 121 -41 242 -157 104 -101 104 -101
30 -17 -94 106 -182 179 -274 227 -39 20 -120 68 -179 106 -59 37 -145 87
-190 110 -75 39 -89 42 -162 43 -60 1 -117 12 -230 43 -202 56 -309 69 -420
52z m-1450 -2270 c19 -37 19 -73 -1 -251 -19 -172 -15 -429 10 -562 23 -123
79 -293 136 -413 90 -187 259 -414 431 -579 115 -111 174 -153 319 -230 170
-91 195 -116 148 -149 -61 -43 -255 15 -368 111 -50 42 -291 304 -395 428
-270 325 -406 694 -406 1100 1 174 13 276 56 458 30 124 42 140 70 87z"/>
<path d="M3553 6931 c-32 -28 -85 -75 -118 -106 -60 -56 -60 -56 11 -21 76 37
184 131 184 159 0 27 -15 21 -77 -32z"/>
<path d="M6500 6955 c13 -14 26 -25 28 -25 3 0 -5 11 -18 25 -13 14 -26 25
-28 25 -3 0 5 -11 18 -25z"/>
<path d="M3467 6389 c-165 -109 -347 -415 -472 -794 -36 -107 -65 -200 -65
-207 0 -6 10 8 23 33 198 374 271 489 476 749 98 124 138 199 121 230 -15 27
-28 25 -83 -11z"/>
<path d="M6051 6362 c-6 -12 -6 -43 1 -91 9 -54 9 -80 0 -105 -7 -18 -12 -44
-12 -57 0 -14 42 -109 94 -211 54 -106 110 -233 130 -295 121 -376 129 -774
20 -1053 -41 -105 -98 -166 -130 -139 -20 16 -18 33 21 192 40 165 55 276 55
402 0 309 -107 642 -266 823 -42 48 -124 99 -199 122 -22 7 -112 45 -200 85
-252 113 -385 151 -570 162 -311 18 -626 -114 -792 -332 -59 -77 -65 -92 -130
-320 -79 -278 -88 -335 -88 -570 0 -169 4 -218 23 -313 24 -118 68 -255 107
-333 46 -90 145 -226 241 -329 53 -58 133 -150 176 -205 89 -112 145 -161 233
-204 84 -41 164 -60 282 -68 140 -8 213 19 213 81 0 14 -10 15 -70 10 -60 -6
-70 -5 -70 9 0 21 38 47 68 47 13 0 37 -7 54 -16 25 -13 35 -13 59 -4 45 19
99 85 99 120 0 29 -1 30 -37 25 -21 -2 -118 -7 -215 -10 -144 -5 -188 -3 -239
10 -139 36 -250 115 -473 339 -188 187 -228 260 -275 491 -60 298 -51 539 31
795 84 264 204 414 413 515 141 69 194 79 385 79 147 0 175 -3 261 -27 159
-43 330 -121 461 -209 163 -109 275 -292 328 -538 41 -188 35 -355 -21 -610
-58 -268 -76 -312 -146 -368 -54 -42 -188 -107 -296 -144 -195 -66 -456 -44
-657 54 -113 55 -174 117 -235 239 -54 106 -86 156 -160 249 -101 126 -130
220 -122 395 7 127 25 202 73 300 49 101 121 185 208 243 203 136 460 144 697
21 232 -121 367 -328 386 -593 10 -144 -29 -288 -103 -375 -41 -49 -175 -146
-226 -164 -47 -17 -208 -32 -329 -30 -80 1 -150 19 -231 59 -55 28 -63 38 -44
57 10 10 49 16 133 19 141 6 184 22 273 99 83 72 105 121 104 229 -1 50 -8
102 -17 128 -70 186 -273 265 -416 161 -105 -75 -115 -240 -18 -299 67 -41
151 -9 145 54 -2 26 -8 32 -33 36 -23 4 -31 11 -33 32 -4 33 29 58 79 58 68 0
119 -63 119 -147 0 -65 -33 -120 -94 -158 -43 -26 -59 -30 -120 -30 -111 1
-187 50 -238 154 -34 69 -33 195 3 272 36 77 87 130 161 169 54 29 75 35 149
38 136 7 243 -38 330 -137 86 -97 119 -199 119 -371 0 -126 11 -163 49 -168
93 -14 140 254 78 444 -79 239 -303 404 -552 405 -153 1 -269 -45 -369 -145
-109 -109 -162 -252 -153 -411 7 -141 52 -233 186 -378 62 -67 71 -82 71 -115
0 -86 100 -180 244 -230 57 -19 97 -25 201 -29 156 -6 241 9 350 62 174 83
277 233 327 475 28 136 21 337 -17 465 -43 146 -96 237 -200 341 -125 126
-260 201 -463 256 -114 31 -318 31 -425 0 -319 -91 -517 -358 -557 -749 -12
-111 -10 -148 15 -338 8 -60 18 -147 24 -192 16 -149 96 -275 211 -333 31 -15
78 -48 105 -72 190 -169 310 -223 558 -253 140 -17 187 -32 230 -73 28 -27 28
-27 95 -3 37 12 121 53 187 91 168 95 183 102 213 98 64 -7 23 -99 -91 -204
-165 -153 -359 -292 -518 -370 -108 -54 -127 -71 -109 -104 34 -64 254 -47
401 31 32 17 100 66 151 108 170 141 281 278 388 481 39 74 113 193 165 265
167 234 205 326 230 558 22 211 19 309 -15 542 -47 320 -85 449 -225 760 -76
171 -96 207 -139 253 -34 36 -60 41 -75 14z m-1601 -1792 c39 -42 110 -183
110 -219 0 -75 -72 -11 -140 125 -51 104 -33 162 30 94z"/>
<path d="M3905 5703 c-33 -33 -86 -136 -113 -220 -48 -146 -76 -442 -62 -647
17 -230 64 -407 160 -601 80 -159 171 -286 305 -421 120 -121 187 -164 224
-144 43 23 20 68 -102 203 -114 126 -162 185 -215 264 -252 374 -308 890 -153
1388 41 129 46 159 35 189 -9 25 -48 19 -79 -11z"/>
<path d="M5331 4634 c-39 -49 -18 -89 34 -66 29 13 43 56 25 77 -18 22 -36 18
-59 -11z"/>
<path d="M3175 3630 c27 -47 146 -215 195 -275 179 -220 396 -356 503 -316 68
26 35 71 -90 120 -161 64 -261 137 -473 344 -79 78 -140 135 -135 127z"/>
<path d="M6220 2879 c-25 -5 -133 -23 -240 -39 -211 -31 -265 -47 -282 -85
-14 -31 0 -49 49 -66 93 -30 282 20 512 136 126 64 126 64 66 63 -33 0 -80 -4
-105 -9z"/>
<path d="M4189 2433 c121 -40 420 -101 671 -137 178 -25 247 -31 470 -41 125
-6 125 -6 40 23 -125 43 -497 129 -632 147 -166 21 -475 45 -571 44 -82 -1
-82 -1 22 -36z"/>
</g>
</svg>
