<?xml version="1.0" standalone="no"?>
<!DOCTYPE svg PUBLIC "-//W3C//DTD SVG 20010904//EN"
 "http://www.w3.org/TR/2001/REC-SVG-20010904/DTD/svg10.dtd">
<svg version="1.0" xmlns="http://www.w3.org/2000/svg"
 width="1000.000000pt" height="1000.000000pt" viewBox="0 0 1000.000000 1000.000000"
 preserveAspectRatio="xMidYMid meet">
<metadata>
  <rdf:RDF
    xmlns:rdf = "http://www.w3.org/1999/02/22-rdf-syntax-ns#"
    xmlns:rdfs = "http://www.w3.org/2000/01/rdf-schema#"
    xmlns:dc = "http://purl.org/dc/elements/1.1/"
    xmlns:cc = "http://creativecommons.org/ns#">
    <cc:license rdf:resource="http://creativecommons.org/publicdomain/zero/1.0/deed.en"/>
    <cc:permits rdf:resource="http://creativecommons.org/ns#Reproduction"/>
    <rdf:Description about="https://nft.mir.one/fingerprints"
      dc:title="TON Fingerprints"
      dc:description="This is a unique digital fingerprint created based on the algorithm for generating basic rings using a noise texture. Like human fingerprints, you can now use it for the Web3 and Metaverse era as digital biometric information."
      dc:publisher="https://nft.mir.one"
      dc:date="2022-02-22"
      dc:format="image/svg+xml"
      dc:language="en" >
      <dc:creator>
      <rdf:Bag>
        <rdf:li>EQBondcvD2_aOFADXSWJHs4ZazQDuEl9_wNvGGPxI8hGuOFU</rdf:li>
        <rdf:li>ipfs://bafkreihj7iub3fhmhq6jn62noukt5wxn3gv6bvcg7wmt6ywvlurefezckq</rdf:li>
      </rdf:Bag>
      </dc:creator>
    </rdf:Description>
  </rdf:RDF>
</metadata>
<rect width="100%" height="100%" fill="#1b1f23"/>
<g transform="translate(0.000000,1000.000000) scale(0.100000,-0.100000)"
fill="#ffffff" stroke="none">
<path d="M5125 7776 c196 -82 629 -314 798 -428 150 -101 244 -146 322 -153
60 -6 60 -6 -20 37 -103 56 -163 97 -241 169 -93 83 -341 220 -551 303 -89 34
-342 106 -373 106 -8 -1 21 -16 65 -34z"/>
<path d="M4454 7699 c14 -16 27 -37 30 -47 4 -10 28 -26 59 -37 28 -10 115
-46 192 -80 77 -34 208 -88 290 -120 446 -173 439 -171 455 -199 14 -26 14
-28 -9 -47 -18 -14 -39 -19 -90 -19 -69 0 -127 14 -454 109 -312 92 -482 111
-655 75 -96 -20 -118 -31 -165 -88 -30 -37 -64 -59 -190 -121 -142 -71 -303
-173 -475 -300 -72 -54 -72 -54 -35 -48 21 3 83 21 138 40 787 271 770 267
970 266 99 0 176 -6 264 -22 145 -25 438 -99 561 -141 128 -43 759 -318 922
-402 180 -92 375 -222 497 -330 52 -45 118 -99 147 -120 53 -36 53 -36 16 15
-20 29 -63 91 -96 139 -81 121 -209 263 -290 325 -78 58 -311 180 -591 308
-219 101 -311 152 -360 201 -52 52 -46 104 11 104 9 0 75 -28 147 -61 73 -34
222 -103 332 -154 237 -109 311 -146 431 -215 49 -28 114 -61 144 -74 55 -22
55 -22 -62 92 -201 195 -298 262 -595 411 -135 67 -237 111 -305 131 -56 16
-114 39 -128 50 -189 153 -284 198 -680 320 -117 36 -154 43 -275 51 -77 5
-148 11 -158 13 -14 3 -13 -1 7 -25z"/>
<path d="M4211 7604 c-24 -13 -38 -24 -30 -24 15 0 79 36 79 45 0 7 2 7 -49
-21z"/>
<path d="M3900 7316 c-41 -19 -100 -48 -130 -65 -52 -29 -53 -31 -20 -25 202
35 317 79 295 114 -12 19 -70 10 -145 -24z"/>
<path d="M4400 6894 c-125 -15 -205 -29 -312 -55 -173 -42 -472 -135 -544
-170 -70 -33 -178 -113 -285 -212 -74 -69 -74 -69 -29 -62 25 4 79 21 120 37
114 45 312 112 435 146 259 73 450 103 659 103 239 0 389 -28 756 -137 118
-36 312 -89 430 -118 221 -55 371 -109 570 -204 186 -89 416 -238 489 -316 23
-24 24 -28 9 -42 -26 -27 -72 -11 -239 82 -166 93 -298 156 -493 234 -189 75
-230 84 -396 85 -145 1 -145 1 -450 102 -421 140 -459 148 -740 148 -191 -1
-243 -4 -345 -23 -241 -45 -638 -165 -715 -216 -52 -34 -127 -105 -203 -189
-67 -76 -67 -76 -30 -66 21 6 94 34 163 64 533 229 1092 313 1420 213 36 -11
116 -47 179 -80 63 -33 176 -84 251 -113 150 -58 245 -104 346 -165 35 -22
131 -74 212 -114 81 -41 188 -97 237 -125 92 -52 148 -65 158 -37 10 24 -51
133 -94 170 -22 19 -85 58 -140 88 -211 112 -280 168 -263 213 13 33 96 8 347
-105 84 -37 181 -76 217 -85 90 -25 148 -51 355 -163 226 -121 310 -194 274
-238 -8 -10 -22 -13 -43 -9 -42 9 -240 114 -405 214 -95 58 -143 81 -166 81
-44 0 -49 -19 -19 -78 52 -104 182 -195 491 -343 179 -86 248 -134 356 -248
36 -38 79 -77 96 -86 31 -15 31 -15 10 37 -12 29 -29 76 -39 103 -10 28 -38
102 -63 165 -25 63 -57 160 -72 215 -15 55 -42 133 -61 174 -19 41 -41 104
-49 140 -20 83 -40 114 -124 194 -200 188 -542 358 -1136 565 -344 120 -538
173 -751 206 -104 16 -311 27 -374 20z"/>
<path d="M4145 6189 c-256 -24 -558 -101 -835 -215 -80 -33 -105 -49 -160
-104 -36 -36 -93 -101 -126 -146 -61 -81 -61 -81 -19 -69 23 7 82 36 131 64
235 133 539 236 836 282 104 17 197 22 433 26 323 5 345 9 345 57 0 32 -29 55
-99 76 -114 36 -311 47 -506 29z"/>
<path d="M4780 5910 c-30 -4 -140 -9 -245 -9 -616 -4 -984 -86 -1355 -301 -51
-30 -78 -55 -123 -116 -32 -43 -70 -101 -84 -128 -14 -28 -37 -67 -51 -86 -16
-21 -19 -29 -8 -20 10 8 36 24 57 35 21 11 96 60 168 109 233 158 453 255 657
290 265 46 647 60 837 31 195 -29 509 -121 685 -200 60 -27 62 -29 62 -64 0
-87 86 -152 450 -338 376 -193 502 -270 680 -419 115 -96 279 -268 366 -384
74 -98 133 -160 121 -128 -3 9 -13 52 -22 95 -23 113 -62 232 -92 278 -35 53
-230 248 -318 317 -101 79 -263 185 -391 256 -161 90 -574 281 -726 336 -27
10 -48 24 -48 31 0 26 43 45 101 45 72 0 146 -23 368 -115 481 -199 785 -400
1041 -688 54 -61 116 -125 135 -141 37 -28 37 -28 22 0 -8 16 -25 65 -37 109
-12 44 -38 121 -58 170 -32 83 -42 96 -125 178 -105 103 -217 179 -462 315
-248 137 -250 138 -371 173 -60 17 -176 59 -258 93 -83 35 -169 69 -191 76
-22 7 -128 44 -235 83 -315 113 -422 136 -550 117z"/>
<path d="M4065 5584 c-66 -7 -153 -13 -193 -13 -118 -1 -215 -26 -337 -86
-134 -66 -396 -230 -447 -280 -63 -62 -119 -200 -92 -227 3 -4 24 13 48 36 27
27 89 66 171 108 85 43 177 102 265 168 165 123 239 163 301 158 62 -4 57 -26
-16 -65 -64 -34 -120 -87 -109 -105 4 -6 23 -8 47 -5 36 5 77 23 229 104 68
36 232 61 443 68 222 8 309 -1 313 -31 6 -45 -55 -70 -212 -84 -61 -5 -165
-14 -232 -20 -66 -6 -165 -21 -220 -34 -54 -13 -142 -34 -195 -47 -93 -22 -97
-22 -149 -5 -52 17 -52 17 -106 -9 -56 -28 -78 -53 -68 -79 8 -21 26 -26 123
-32 87 -6 213 3 416 30 140 19 554 46 706 46 199 0 338 -46 649 -217 214 -117
385 -203 538 -269 226 -97 305 -151 537 -368 238 -223 239 -223 383 -452 24
-38 41 -60 38 -49 -3 11 -10 58 -16 104 -19 157 -46 235 -110 315 -119 149
-349 361 -503 464 -84 57 -242 145 -417 232 -210 105 -358 188 -519 293 -194
126 -258 153 -509 217 -26 7 -61 27 -85 49 -55 50 -94 69 -175 87 -83 17 -330
17 -497 -2z"/>
<path d="M3205 4995 c-71 -18 -146 -34 -165 -34 -30 -1 -40 -8 -72 -51 -37
-50 -37 -50 -11 -56 14 -4 99 -3 187 1 238 13 1281 9 1406 -5 297 -32 563
-129 783 -287 107 -77 157 -136 233 -276 35 -65 115 -197 178 -295 243 -378
341 -582 288 -600 -21 -6 -66 51 -178 226 -203 317 -413 610 -509 708 -150
154 -332 256 -580 327 -153 44 -300 65 -545 77 -257 13 -1084 13 -1130 0 -33
-9 -59 -31 -137 -116 -29 -32 -29 -32 13 -38 23 -3 91 -1 151 4 127 11 953 -4
1133 -20 517 -48 821 -185 1101 -496 63 -70 209 -261 421 -549 98 -132 147
-176 266 -234 123 -61 127 -67 183 -246 47 -148 99 -265 99 -221 0 14 17 88
37 164 35 128 37 146 37 277 0 114 -5 160 -26 250 -52 224 -187 525 -303 675
-35 47 -85 111 -110 143 -26 34 -45 70 -45 84 0 22 3 24 27 19 41 -11 102 -57
179 -137 123 -128 145 -169 274 -500 79 -200 159 -443 160 -482 0 -7 13 -37
29 -68 28 -56 28 -56 41 77 22 220 15 255 -79 452 -90 188 -110 250 -93 288 7
13 16 24 21 24 5 0 53 -75 106 -167 131 -227 169 -285 205 -312 35 -26 37 -43
-10 144 -35 140 -38 146 -99 232 -61 86 -106 123 -161 130 -37 5 -48 14 -113
92 -99 119 -190 206 -273 261 -73 47 -109 60 -274 100 -111 26 -228 79 -395
179 -245 148 -446 233 -630 267 -120 22 -463 29 -680 15 -294 -21 -484 -24
-565 -11 -163 26 -234 23 -375 -15z m2559 -604 c18 -15 167 -238 249 -371 182
-296 271 -609 196 -689 -40 -43 -53 -23 -68 104 -19 161 -92 323 -280 625
-129 206 -147 237 -161 287 -20 67 11 89 64 44z"/>
<path d="M3130 4453 c-28 -11 -62 -48 -109 -118 -46 -71 -46 -71 -1 -64 25 4
83 19 130 34 96 29 173 36 192 17 21 -21 -2 -44 -90 -90 -95 -49 -120 -78
-166 -190 -34 -81 -34 -81 18 -58 58 26 225 130 301 187 28 21 77 51 110 66
55 26 69 28 180 28 110 -1 523 -26 640 -40 348 -41 624 -182 885 -451 114
-118 206 -229 372 -450 238 -317 302 -440 342 -666 15 -84 44 -177 45 -146 1
9 16 51 35 92 44 97 80 236 71 279 -11 54 -81 189 -127 244 -24 29 -81 94
-128 146 -47 51 -150 179 -230 283 -341 446 -523 612 -799 728 -259 109 -475
141 -1086 158 -198 5 -407 11 -465 13 -58 2 -112 1 -120 -2z"/>
<path d="M3644 4150 c-68 -14 -105 -34 -193 -104 -47 -37 -98 -74 -115 -83
-68 -34 -96 -65 -144 -158 -48 -94 -48 -94 -18 -88 17 4 50 14 73 24 98 42
182 61 308 70 71 5 174 17 230 26 117 20 330 22 393 4 31 -9 48 -21 66 -50 33
-51 67 -78 199 -157 223 -134 362 -249 489 -406 95 -116 141 -189 257 -402
108 -196 135 -262 151 -371 6 -44 17 -111 24 -150 12 -70 12 -70 41 -15 86
162 93 211 50 355 -89 304 -364 705 -629 917 -163 131 -338 224 -484 258 -60
14 -74 33 -46 61 47 46 194 27 345 -44 313 -149 659 -523 855 -922 79 -162
108 -263 130 -452 17 -148 17 -148 60 -66 46 88 94 212 94 242 0 41 -54 202
-99 296 -117 243 -416 634 -625 816 -294 257 -547 342 -966 326 -177 -7 -204
-13 -280 -62 -97 -63 -252 -97 -267 -59 -9 24 13 39 122 86 76 33 101 48 103
64 6 39 -50 59 -124 44z"/>
<path d="M3640 3689 c-105 -11 -243 -36 -273 -50 -26 -12 -47 -39 -91 -118
-33 -58 -33 -58 8 -59 22 0 84 9 136 19 201 41 399 52 534 29 392 -65 808
-431 881 -775 16 -76 19 -266 6 -380 -4 -38 -6 -89 -3 -112 4 -43 4 -43 48 5
56 60 104 154 104 202 0 58 18 141 41 184 26 50 21 88 -27 205 -69 166 -163
302 -309 447 -160 159 -504 367 -660 399 -77 16 -258 18 -395 4z"/>
<path d="M3618 3366 c-60 -8 -93 -17 -108 -31 -27 -25 -55 -79 -64 -124 -3
-19 -13 -42 -20 -50 -13 -14 -8 -16 47 -15 34 1 91 10 127 20 89 25 299 25
390 0 92 -25 235 -96 305 -153 119 -97 208 -235 246 -381 15 -59 19 -110 19
-233 0 -157 0 -157 56 -100 31 31 67 75 81 99 24 41 25 49 21 150 -10 200 -89
373 -243 528 -160 162 -369 266 -590 293 -107 13 -151 13 -267 -3z"/>
<path d="M3747 3008 c-26 -26 -47 -83 -47 -130 0 -15 -4 -38 -10 -53 -9 -24
-9 -25 12 -14 14 7 74 12 153 13 118 1 134 -1 178 -23 63 -31 148 -109 181
-166 25 -43 43 -101 66 -218 12 -58 12 -58 48 -26 20 18 50 50 65 73 26 36 28
47 23 96 -7 72 -70 198 -135 271 -104 116 -253 187 -417 196 -89 6 -93 5 -117
-19z"/>
<path d="M5094 2629 c-6 -11 1 -235 12 -377 6 -72 6 -72 26 -35 11 21 29 50
39 64 10 14 28 55 40 92 21 66 21 66 -1 138 -28 95 -91 158 -116 118z"/>
</g>
</svg>
