<?xml version="1.0" standalone="no"?>
<!DOCTYPE svg PUBLIC "-//W3C//DTD SVG 20010904//EN"
 "http://www.w3.org/TR/2001/REC-SVG-20010904/DTD/svg10.dtd">
<svg version="1.0" xmlns="http://www.w3.org/2000/svg"
 width="1000.000000pt" height="1000.000000pt" viewBox="0 0 1000.000000 1000.000000"
 preserveAspectRatio="xMidYMid meet">
<metadata>
  <rdf:RDF
    xmlns:rdf = "http://www.w3.org/1999/02/22-rdf-syntax-ns#"
    xmlns:rdfs = "http://www.w3.org/2000/01/rdf-schema#"
    xmlns:dc = "http://purl.org/dc/elements/1.1/"
    xmlns:cc = "http://creativecommons.org/ns#">
    <cc:license rdf:resource="http://creativecommons.org/publicdomain/zero/1.0/deed.en"/>
    <cc:permits rdf:resource="http://creativecommons.org/ns#Reproduction"/>
    <rdf:Description about="https://nft.mir.one/fingerprints"
      dc:title="TON Fingerprints"
      dc:description="This is a unique digital fingerprint created based on the algorithm for generating basic rings using a noise texture. Like human fingerprints, you can now use it for the Web3 and Metaverse era as digital biometric information."
      dc:publisher="https://nft.mir.one"
      dc:date="2022-02-22"
      dc:format="image/svg+xml"
      dc:language="en" >
      <dc:creator>
      <rdf:Bag>
        <rdf:li>EQBondcvD2_aOFADXSWJHs4ZazQDuEl9_wNvGGPxI8hGuOFU</rdf:li>
        <rdf:li>ipfs://bafkreihj7iub3fhmhq6jn62noukt5wxn3gv6bvcg7wmt6ywvlurefezckq</rdf:li>
      </rdf:Bag>
      </dc:creator>
    </rdf:Description>
  </rdf:RDF>
</metadata>
<rect width="100%" height="100%" fill="#1b1f23"/>
<g transform="translate(0.000000,1000.000000) scale(0.100000,-0.100000)"
fill="#ffffff" stroke="none">
<path d="M4737 7757 c15 -16 89 -70 163 -120 192 -128 281 -200 391 -315 142
-147 237 -297 342 -534 16 -35 53 -86 99 -135 94 -101 136 -165 213 -326 76
-159 122 -282 210 -567 50 -162 81 -242 125 -325 72 -136 76 -149 101 -365 24
-214 64 -464 86 -545 9 -33 33 -98 54 -145 42 -95 52 -131 69 -240 7 -45 27
-109 51 -161 22 -47 44 -113 50 -145 10 -55 7 -279 -6 -449 -4 -51 1 -37 40
100 80 280 104 487 107 900 2 258 -8 329 -78 544 -53 164 -109 269 -161 304
-39 26 -45 35 -68 115 -55 185 -77 247 -198 567 -199 525 -211 549 -488 973
-198 302 -256 382 -382 523 -143 160 -204 195 -529 303 -215 72 -218 72 -191
43z m1845 -2664 c114 -433 138 -601 91 -648 -40 -40 -55 0 -119 322 -61 305
-69 400 -39 433 12 13 22 17 28 11 6 -6 23 -59 39 -118z"/>
<path d="M5398 7714 c22 -33 84 -106 139 -164 185 -198 262 -297 441 -567 219
-329 319 -511 390 -713 54 -156 104 -278 208 -515 88 -200 88 -200 89 -301 0
-100 0 -100 97 -295 113 -225 146 -321 193 -549 19 -91 43 -187 54 -215 20
-50 20 -50 20 20 1 114 -18 353 -35 455 -23 134 -53 210 -162 408 -82 152 -93
176 -80 188 37 37 96 -23 185 -185 56 -103 100 -161 122 -161 8 0 6 11 -4 30
-9 17 -36 93 -61 170 -43 136 -118 296 -364 782 -82 162 -96 212 -65 238 13
10 22 6 59 -26 23 -22 65 -58 93 -81 54 -45 95 -115 158 -268 30 -74 93 -197
155 -300 12 -20 12 -20 5 0 -4 11 -40 117 -80 235 -40 118 -87 253 -105 300
-18 47 -36 115 -41 152 -6 46 -21 93 -49 148 -54 107 -192 335 -301 495 -101
148 -161 225 -106 135 19 -30 78 -131 131 -223 54 -92 132 -216 174 -275 136
-193 158 -259 101 -291 -25 -14 -29 -12 -89 30 -104 73 -140 116 -254 304
-308 509 -508 731 -889 988 -84 56 -156 104 -161 106 -5 2 10 -23 32 -55z"/>
<path d="M4407 7658 c15 -16 86 -70 158 -120 369 -257 632 -510 690 -661 20
-54 17 -112 -6 -112 -10 0 -60 50 -112 111 -145 168 -308 315 -552 497 -155
116 -202 136 -373 157 -42 6 -85 13 -95 16 -30 10 62 -69 148 -126 193 -128
422 -312 681 -545 137 -124 206 -165 277 -165 19 0 46 -14 79 -40 56 -44 84
-49 118 -22 69 56 4 287 -132 467 -80 106 -219 240 -356 343 -170 128 -226
153 -450 205 -103 24 -103 24 -75 -5z"/>
<path d="M3912 7348 c17 -16 75 -58 127 -93 211 -139 329 -235 751 -616 188
-169 312 -289 364 -352 43 -53 89 -103 102 -112 27 -18 31 -35 9 -35 -29 0
-26 -28 8 -77 94 -131 163 -330 231 -661 20 -95 48 -214 63 -265 28 -92 28
-93 28 -397 0 -321 -9 -438 -51 -689 -46 -278 -108 -479 -206 -676 -100 -198
-207 -450 -253 -596 -74 -232 -105 -319 -145 -409 -21 -47 -42 -108 -47 -136
-9 -50 -9 -50 87 -1 147 77 245 158 274 227 8 19 22 82 31 140 48 302 61 350
200 700 51 129 109 282 128 340 86 256 138 609 152 1030 4 102 11 230 16 285
10 106 2 84 157 418 55 119 55 119 49 230 -9 197 -99 488 -237 773 -87 178
-132 222 -179 175 -49 -49 -39 -117 54 -361 144 -377 181 -562 156 -779 -13
-108 -36 -210 -51 -225 -13 -13 -48 20 -55 53 -3 14 -12 98 -19 186 -23 252
-56 387 -163 655 -122 308 -162 362 -377 510 -74 50 -214 162 -313 247 -305
267 -534 447 -623 493 -38 20 -121 35 -238 43 -62 5 -62 5 -30 -25z"/>
<path d="M3730 7163 c22 -19 79 -60 127 -92 48 -32 131 -91 183 -131 111 -86
642 -612 755 -750 263 -318 420 -686 491 -1145 46 -297 6 -817 -102 -1338 -44
-208 -55 -241 -82 -245 -56 -8 -60 123 -13 443 99 683 109 955 45 1273 -64
319 -214 631 -440 911 -38 47 -150 168 -249 270 -99 102 -215 227 -257 277
-89 106 -163 175 -272 256 -143 107 -153 111 -277 113 -109 2 -109 2 -92 -18
10 -11 69 -53 132 -94 275 -179 408 -306 385 -367 -10 -26 -27 -19 -118 50
-145 109 -308 214 -350 225 -25 7 -72 8 -122 4 -82 -7 -82 -7 -46 -39 34 -30
392 -251 472 -291 19 -10 68 -21 108 -25 68 -7 76 -10 148 -66 101 -77 298
-274 406 -405 235 -286 366 -541 428 -834 33 -155 38 -399 12 -590 -12 -82
-28 -213 -37 -290 -9 -77 -24 -197 -35 -265 -29 -179 -35 -354 -20 -528 15
-172 7 -354 -17 -377 -31 -32 -84 30 -103 120 -17 82 -40 399 -40 555 0 133 3
154 31 250 27 91 32 128 38 280 7 164 10 181 42 270 34 95 34 95 33 295 -1
190 -2 206 -31 317 -17 64 -50 160 -74 214 -107 244 -448 663 -676 831 -45 34
-137 89 -205 123 -68 35 -184 99 -258 144 -177 105 -187 108 -295 94 -86 -11
-86 -11 -63 -35 12 -13 63 -47 113 -75 536 -306 722 -448 947 -726 56 -70 133
-161 171 -202 77 -85 126 -162 167 -265 63 -160 80 -283 71 -525 -5 -159 -8
-175 -24 -178 -29 -6 -62 33 -92 106 -20 47 -44 82 -81 119 -58 56 -90 112
-122 213 -42 131 -90 337 -96 409 -6 88 -31 143 -116 256 -161 215 -364 382
-750 616 -99 60 -108 64 -165 63 -33 0 -80 -6 -104 -13 -43 -12 -43 -12 -21
-36 13 -14 64 -48 114 -76 399 -227 703 -482 839 -706 74 -122 142 -330 156
-478 9 -108 38 -177 138 -335 104 -167 161 -273 187 -350 43 -129 57 -306 26
-325 -33 -20 -73 44 -130 205 -67 189 -277 562 -401 711 -38 46 -92 121 -121
167 -155 253 -295 386 -684 648 -135 91 -158 98 -239 69 -22 -8 -50 -15 -63
-15 -20 0 -18 -3 16 -35 21 -19 81 -62 133 -96 51 -34 142 -97 200 -140 59
-43 144 -100 189 -125 170 -96 323 -276 401 -471 16 -41 73 -142 125 -225 117
-183 190 -321 302 -567 149 -329 161 -368 181 -581 25 -271 43 -571 37 -643
-13 -155 -54 -300 -132 -465 -25 -51 -47 -107 -51 -125 -3 -18 -10 -40 -15
-50 -9 -17 -8 -17 14 -3 13 8 46 20 73 26 28 7 92 32 142 56 85 41 95 48 117
92 36 70 89 230 132 392 38 142 38 142 86 179 61 45 96 97 145 213 25 63 52
107 85 143 78 86 126 202 179 438 75 336 116 831 90 1086 -22 209 -106 576
-176 766 -47 129 -151 338 -220 440 -78 117 -215 265 -456 491 -299 281 -415
380 -579 496 -78 55 -115 66 -242 71 -97 3 -97 3 -58 -30z"/>
<path d="M3140 6110 c-8 -5 -28 -10 -44 -10 -30 0 -30 0 -1 -30 16 -16 60 -49
99 -72 169 -99 412 -274 559 -402 93 -80 205 -222 291 -366 112 -187 135 -212
166 -175 19 23 -9 115 -79 260 -133 273 -334 473 -735 729 -115 74 -121 76
-180 76 -33 0 -68 -5 -76 -10z"/>
<path d="M3055 5573 c-11 -2 -39 -11 -63 -20 -41 -16 -42 -16 -25 -36 10 -11
52 -45 93 -75 118 -87 194 -166 308 -317 117 -155 152 -198 295 -359 129 -145
221 -285 317 -481 187 -382 233 -599 196 -911 -9 -76 -23 -199 -31 -271 -19
-168 -38 -263 -79 -388 -40 -120 -52 -210 -27 -200 9 4 43 11 76 16 90 14 166
56 188 102 31 66 75 257 87 381 17 161 8 579 -15 701 -46 247 -218 646 -394
912 -80 120 -118 160 -240 250 -66 49 -202 202 -264 297 -18 28 -44 76 -56
108 -28 71 -70 120 -174 204 -106 85 -137 100 -192 87z"/>
<path d="M4425 5431 c-3 -11 18 -92 49 -188 30 -92 64 -202 76 -243 40 -136
74 -181 105 -137 49 70 -49 435 -150 556 -31 36 -70 42 -80 12z"/>
<path d="M3513 5333 c-18 -6 -16 -44 4 -73 9 -14 68 -87 131 -163 116 -138
166 -182 196 -171 40 15 8 84 -105 224 -106 132 -186 197 -226 183z"/>
<path d="M6130 5330 c-12 -7 -12 -16 4 -65 13 -41 20 -113 26 -263 5 -113 14
-317 21 -453 17 -333 0 -478 -72 -627 -33 -67 -93 -122 -134 -122 -36 0 -36
23 -4 127 66 212 70 247 79 733 9 420 17 544 46 638 6 19 3 22 -24 22 -58 0
-106 -89 -143 -265 -14 -64 -22 -164 -29 -350 -12 -324 -23 -441 -61 -680 -40
-258 -54 -309 -143 -540 -174 -449 -225 -607 -233 -720 -5 -77 -4 -82 21 -110
26 -30 26 -30 55 1 33 36 61 107 178 449 102 300 163 452 204 511 40 58 106
93 124 64 3 -5 -14 -56 -38 -112 -25 -57 -90 -242 -146 -413 -137 -420 -183
-510 -289 -571 -53 -30 -126 -205 -120 -287 3 -48 3 -48 169 115 178 175 226
238 271 357 40 105 129 415 194 671 55 220 70 254 98 230 53 -43 -22 -458
-167 -930 -43 -139 -69 -269 -44 -224 5 10 40 66 77 124 83 129 152 266 184
362 13 40 37 143 52 228 28 157 33 269 23 530 -3 85 1 107 30 205 47 154 51
251 17 465 -33 218 -42 288 -66 525 -22 210 -31 257 -60 316 -28 53 -69 78
-100 59z"/>
<path d="M2957 5267 c-38 -13 -38 -13 20 -69 32 -30 79 -75 106 -98 134 -121
392 -494 513 -745 140 -290 197 -438 299 -768 41 -130 77 -165 121 -116 27 30
31 161 9 270 -46 230 -202 586 -358 819 -92 138 -401 533 -487 623 -83 87 -87
90 -135 93 -28 2 -67 -3 -88 -9z"/>
<path d="M2940 4943 c18 -21 57 -63 87 -93 59 -59 87 -104 79 -125 -4 -11 -25
-13 -98 -9 -93 6 -93 6 -58 -25 19 -17 72 -49 117 -71 65 -32 93 -53 140 -105
94 -106 134 -188 99 -201 -20 -8 -49 10 -123 72 -34 30 -74 56 -88 60 -14 3
-53 0 -85 -7 -60 -13 -60 -13 -13 -62 27 -26 89 -78 138 -114 165 -121 174
-133 250 -323 24 -58 68 -163 100 -235 114 -260 163 -435 166 -586 3 -174 11
-289 20 -283 5 3 42 7 82 8 82 2 126 20 144 56 19 41 33 239 23 329 -10 88
-15 102 -67 169 -50 66 -83 135 -171 364 -44 112 -111 275 -149 363 -39 88
-78 189 -88 225 -22 82 -59 156 -140 279 -34 53 -82 129 -105 170 -24 41 -66
98 -94 128 -52 53 -52 53 -125 53 -73 0 -73 0 -41 -37z"/>
<path d="M7032 4320 c0 -14 2 -19 5 -12 2 6 2 18 0 25 -3 6 -5 1 -5 -13z"/>
<path d="M3080 4058 c-14 -5 -33 -7 -43 -4 -22 6 64 -73 106 -96 41 -23 54
-23 67 2 30 56 -61 124 -130 98z"/>
<path d="M6480 3908 c-29 -48 -39 -111 -50 -333 -6 -120 -21 -260 -36 -350
-14 -82 -27 -197 -30 -255 -5 -105 -5 -105 31 -10 65 171 125 353 152 455 24
91 27 118 27 285 1 162 -1 189 -17 213 -24 36 -53 34 -77 -5z"/>
</g>
</svg>
