<?xml version="1.0" standalone="no"?>
<!DOCTYPE svg PUBLIC "-//W3C//DTD SVG 20010904//EN"
 "http://www.w3.org/TR/2001/REC-SVG-20010904/DTD/svg10.dtd">
<svg version="1.0" xmlns="http://www.w3.org/2000/svg"
 width="1000.000000pt" height="1000.000000pt" viewBox="0 0 1000.000000 1000.000000"
 preserveAspectRatio="xMidYMid meet">
<metadata>
  <rdf:RDF
    xmlns:rdf = "http://www.w3.org/1999/02/22-rdf-syntax-ns#"
    xmlns:rdfs = "http://www.w3.org/2000/01/rdf-schema#"
    xmlns:dc = "http://purl.org/dc/elements/1.1/"
    xmlns:cc = "http://creativecommons.org/ns#">
    <cc:license rdf:resource="http://creativecommons.org/publicdomain/zero/1.0/deed.en"/>
    <cc:permits rdf:resource="http://creativecommons.org/ns#Reproduction"/>
    <rdf:Description about="https://nft.mir.one/fingerprints"
      dc:title="TON Fingerprints"
      dc:description="This is a unique digital fingerprint created based on the algorithm for generating basic rings using a noise texture. Like human fingerprints, you can now use it for the Web3 and Metaverse era as digital biometric information."
      dc:publisher="https://nft.mir.one"
      dc:date="2022-02-22"
      dc:format="image/svg+xml"
      dc:language="en" >
      <dc:creator>
      <rdf:Bag>
        <rdf:li>EQBondcvD2_aOFADXSWJHs4ZazQDuEl9_wNvGGPxI8hGuOFU</rdf:li>
        <rdf:li>ipfs://bafkreihj7iub3fhmhq6jn62noukt5wxn3gv6bvcg7wmt6ywvlurefezckq</rdf:li>
      </rdf:Bag>
      </dc:creator>
    </rdf:Description>
  </rdf:RDF>
</metadata>
<rect width="100%" height="100%" fill="#1b1f23"/>
<g transform="translate(0.000000,1000.000000) scale(0.100000,-0.100000)"
fill="#ffffff" stroke="none">
<path d="M5155 7799 c29 -51 93 -113 192 -186 162 -121 540 -372 733 -487 91
-55 224 -138 295 -186 72 -48 157 -104 190 -125 60 -37 60 -37 5 20 -82 85
-253 239 -339 304 -220 168 -592 402 -869 550 -84 44 -167 91 -185 103 -17 12
-27 16 -22 7z"/>
<path d="M4497 7720 c22 -5 63 -17 90 -28 26 -11 83 -32 126 -47 189 -66 360
-172 967 -600 179 -126 240 -162 343 -199 142 -50 219 -106 287 -206 47 -69
130 -147 246 -231 138 -99 231 -149 279 -148 35 0 38 2 22 12 -10 7 -77 78
-148 159 -308 350 -376 409 -660 571 -174 99 -326 199 -669 436 -113 79 -241
160 -285 181 -99 47 -226 86 -328 99 -95 13 -335 13 -270 1z"/>
<path d="M4401 7519 c-24 -5 -72 -22 -107 -38 -47 -22 -101 -35 -203 -51 -77
-11 -147 -17 -158 -14 -46 16 72 -59 136 -86 39 -17 106 -51 149 -76 105 -63
204 -112 357 -177 298 -127 447 -208 521 -283 42 -42 57 -85 35 -98 -5 -3 -78
29 -162 72 -85 43 -255 118 -379 166 -124 49 -310 129 -413 179 -178 85 -192
90 -255 90 -37 1 -108 -5 -158 -13 -91 -13 -91 -13 -57 -43 40 -35 418 -220
553 -270 52 -19 159 -54 237 -77 78 -23 225 -71 325 -107 167 -61 190 -66 268
-68 103 -2 134 -16 295 -133 180 -131 395 -317 655 -568 63 -61 158 -142 211
-181 142 -105 190 -166 255 -327 19 -48 75 -177 124 -286 137 -304 152 -353
161 -540 6 -123 13 -180 38 -275 44 -175 66 -244 96 -300 26 -50 26 -50 21 30
-3 44 -8 132 -11 195 -3 63 -12 161 -20 219 -8 57 -15 119 -15 137 0 71 41 51
111 -54 55 -84 56 -78 8 68 -68 207 -108 300 -231 534 -72 137 -138 267 -145
289 -16 45 -10 87 11 87 31 0 144 -156 300 -415 34 -56 79 -122 102 -148 41
-46 41 -46 18 21 -12 37 -39 119 -59 183 -54 172 -111 283 -182 351 -33 31
-91 72 -129 91 -53 27 -94 61 -174 142 -114 116 -260 243 -500 435 -85 69
-234 192 -331 275 -96 82 -222 189 -280 237 -57 48 -144 125 -194 170 -159
144 -344 251 -661 383 -85 36 -165 70 -177 76 -58 30 -86 82 -52 95 8 4 45 1
82 -6 255 -44 620 -231 908 -463 55 -45 143 -116 196 -159 53 -43 151 -128
218 -190 167 -154 206 -186 351 -286 257 -177 363 -265 610 -507 135 -131 246
-242 248 -246 1 -3 31 -31 66 -62 63 -55 63 -55 -14 91 -42 81 -98 183 -124
226 -26 43 -61 113 -77 155 -17 42 -43 89 -57 104 -27 29 -328 250 -412 302
-25 16 -94 50 -154 76 -131 58 -202 111 -264 198 -70 99 -125 148 -377 336
-357 267 -580 408 -769 485 -143 59 -247 72 -365 49z"/>
<path d="M3545 6920 c-38 -11 -74 -20 -79 -20 -31 -1 69 -72 213 -151 259
-142 373 -222 487 -341 206 -215 264 -265 359 -314 273 -142 477 -318 612
-532 38 -59 117 -178 176 -265 163 -237 236 -360 351 -586 235 -464 308 -656
375 -989 32 -155 87 -508 121 -780 12 -89 28 -179 37 -199 15 -38 15 -38 49
69 18 59 40 146 49 193 16 84 16 89 -9 233 -14 81 -37 226 -51 322 -54 360
-122 606 -219 790 -31 58 -123 238 -205 400 -157 309 -276 517 -388 679 -243
350 -377 486 -658 669 -176 115 -202 136 -230 193 -14 26 -46 65 -72 86 -93
75 -135 121 -131 145 4 32 43 35 128 9 38 -12 114 -30 168 -41 213 -43 406
-125 596 -252 222 -150 487 -425 606 -629 45 -77 224 -467 305 -663 96 -236
129 -393 89 -427 -25 -20 -42 10 -139 246 -100 239 -288 629 -365 755 -182
296 -469 577 -749 732 -170 94 -304 139 -365 124 -61 -15 -17 -58 164 -161
302 -172 481 -331 691 -611 131 -174 235 -356 419 -729 108 -221 183 -359 211
-394 103 -126 117 -156 174 -375 52 -196 73 -310 101 -536 31 -258 65 -426
101 -497 28 -55 28 -55 35 18 4 41 10 198 14 349 7 312 7 308 -77 692 -37 173
-52 263 -59 374 -16 231 -56 373 -202 709 -91 209 -112 265 -132 354 -20 89
-40 129 -107 218 -181 238 -543 555 -753 659 -90 44 -413 152 -595 200 -53 14
-152 31 -221 39 -147 16 -165 22 -429 154 -192 97 -204 101 -263 100 -35 0
-94 -9 -133 -19z"/>
<path d="M5991 6736 c-25 -30 42 -107 137 -156 47 -25 95 -23 100 2 5 26 -71
101 -137 137 -66 35 -83 38 -100 17z"/>
<path d="M3445 6640 c-22 -5 -64 -18 -93 -29 -29 -12 -61 -21 -71 -21 -38 0
43 -67 189 -154 359 -216 596 -432 797 -723 36 -52 61 -103 78 -158 45 -147
166 -300 286 -360 37 -19 98 -64 142 -105 64 -60 80 -70 92 -60 25 21 18 82
-16 133 -17 26 -90 96 -167 160 -130 108 -214 193 -241 246 -11 19 -11 25 0
32 8 5 18 9 22 9 19 0 73 -36 154 -103 49 -40 135 -109 193 -152 58 -44 130
-107 161 -140 195 -209 235 -255 283 -329 97 -146 222 -392 307 -608 189 -475
277 -1003 266 -1603 -4 -274 -4 -274 51 -182 66 110 116 215 132 280 14 55 4
203 -36 501 -65 493 -139 772 -304 1143 -162 363 -266 537 -518 866 -90 117
-105 143 -118 198 -8 35 -28 84 -44 109 -78 122 -420 400 -491 400 -24 0 -42
-26 -34 -50 11 -36 55 -79 184 -183 156 -126 311 -274 311 -298 0 -49 -61 -29
-160 52 -41 33 -133 105 -205 158 -155 116 -189 153 -244 257 -66 127 -254
326 -449 477 -86 66 -296 201 -355 228 -46 20 -45 20 -102 9z"/>
<path d="M3265 6296 c-22 -7 -58 -23 -80 -34 -22 -12 -48 -22 -57 -22 -40 0
79 -96 317 -256 396 -267 468 -337 692 -670 167 -249 234 -363 329 -559 155
-320 329 -812 390 -1098 30 -142 14 -257 -36 -257 -15 0 -21 12 -30 58 -9 51
-106 358 -212 677 -85 253 -192 534 -244 641 -34 68 -89 155 -142 225 -47 63
-126 173 -176 244 -207 302 -324 410 -532 490 -84 33 -182 90 -266 157 -27 21
-27 21 -85 3 -32 -10 -73 -18 -91 -18 -22 0 -29 -4 -22 -11 5 -5 10 -20 10
-32 0 -12 7 -24 15 -28 8 -3 15 -17 15 -31 0 -30 -51 -110 -81 -125 -19 -11
-18 -12 14 -34 19 -13 52 -29 73 -36 89 -28 151 -82 334 -290 211 -239 275
-349 289 -496 6 -71 14 -101 36 -140 49 -83 139 -215 214 -309 118 -149 219
-377 292 -664 12 -46 32 -95 44 -109 23 -26 24 -26 44 -8 34 31 44 80 38 185
-6 117 -40 239 -133 477 -66 169 -66 169 -68 284 -1 112 -3 118 -49 234 -47
117 -54 156 -31 163 47 15 144 -161 200 -362 20 -71 67 -222 105 -335 82 -247
118 -381 125 -475 5 -65 4 -73 -21 -105 -14 -19 -35 -66 -47 -104 -19 -64 -20
-80 -12 -215 22 -351 5 -596 -53 -784 -13 -45 -30 -107 -37 -137 -12 -56 -12
-56 49 -33 111 43 173 82 195 123 15 28 50 313 57 460 6 151 -5 261 -42 403
-35 136 -57 269 -45 281 6 6 18 5 34 -2 18 -8 40 -42 75 -116 28 -58 66 -123
85 -144 48 -53 57 -104 58 -317 0 -145 -4 -199 -21 -280 -16 -75 -20 -118 -15
-170 4 -45 0 -109 -10 -180 -10 -66 -14 -131 -10 -162 6 -51 6 -51 79 8 167
135 172 155 183 694 10 555 9 666 -12 765 -70 340 -257 838 -425 1134 -34 60
-81 155 -104 210 -24 56 -75 151 -114 211 -38 61 -96 155 -127 210 -111 193
-231 337 -396 479 -177 150 -463 347 -505 345 -11 0 -38 -6 -60 -13z m260
-744 c93 -60 260 -256 357 -419 70 -118 88 -171 88 -261 0 -78 16 -136 91
-329 29 -75 20 -94 -29 -69 -62 32 -133 166 -181 343 -65 237 -109 315 -323
571 -89 107 -113 152 -96 185 11 22 36 16 93 -21z m1359 -2881 c9 -14 -4 -41
-20 -41 -8 0 -14 8 -14 18 0 29 22 43 34 23z"/>
<path d="M6900 5995 c7 -9 27 -25 44 -37 31 -21 31 -21 -3 15 -34 36 -67 53
-41 22z"/>
<path d="M6170 5605 c-21 -25 -7 -70 98 -305 125 -281 195 -486 221 -645 11
-66 31 -192 46 -280 14 -88 56 -288 93 -445 67 -285 67 -285 108 -305 23 -11
49 -26 58 -34 14 -12 15 -10 7 15 -5 16 -12 110 -15 208 -6 164 -10 195 -47
350 -22 94 -51 243 -64 331 -46 304 -67 377 -196 682 -95 225 -155 337 -211
395 -48 50 -76 59 -98 33z"/>
<path d="M3034 5332 c-17 -9 -46 -29 -66 -44 -19 -16 -40 -28 -46 -28 -20 0
60 -64 133 -107 100 -59 175 -116 299 -229 158 -144 186 -164 221 -162 27 3
30 6 28 36 -3 84 -236 355 -432 503 -69 53 -89 57 -137 31z"/>
<path d="M4565 5109 c-13 -20 7 -64 79 -168 86 -123 129 -207 230 -444 133
-310 220 -590 263 -844 16 -94 18 -169 18 -568 0 -429 -2 -472 -24 -632 -15
-110 -21 -189 -17 -218 7 -45 7 -45 39 -5 155 192 160 203 177 350 18 169 24
489 11 690 -30 482 -122 827 -351 1326 -98 213 -114 253 -131 328 -7 32 -17
59 -23 61 -60 16 -112 43 -161 85 -57 48 -96 62 -110 39z"/>
<path d="M4966 4964 c-12 -32 -4 -56 97 -255 276 -549 383 -921 427 -1493 20
-259 10 -522 -29 -766 -10 -63 -16 -132 -14 -152 5 -37 5 -37 68 42 74 93 127
178 146 235 21 60 18 566 -4 745 -62 496 -166 853 -368 1260 -126 253 -233
400 -293 400 -13 0 -27 -7 -30 -16z"/>
<path d="M2979 4947 c-19 -13 -42 -26 -53 -30 -16 -6 -13 -12 25 -40 24 -18
69 -48 99 -67 157 -99 388 -311 496 -455 204 -272 313 -454 393 -660 127 -324
145 -421 138 -740 -3 -152 -10 -250 -20 -290 -8 -33 -17 -83 -20 -111 -6 -50
-6 -50 74 -11 124 61 136 83 160 302 14 131 6 370 -16 500 -12 66 -25 105 -49
145 -52 86 -71 128 -127 276 -69 188 -136 323 -226 457 -158 234 -257 354
-362 435 -47 37 -126 100 -176 142 -154 129 -217 170 -262 170 -25 0 -53 -9
-74 -23z"/>
<path d="M3025 4623 c-11 -2 -29 -8 -40 -13 -11 -5 -29 -10 -40 -12 -16 -3 6
-30 109 -133 151 -153 201 -212 232 -280 30 -62 32 -135 6 -159 -18 -15 -20
-15 -35 2 -10 10 -17 23 -17 29 0 5 -13 29 -30 51 -38 53 -81 76 -129 68 -20
-4 -46 -8 -57 -9 -21 -2 -21 -2 -2 -27 79 -102 148 -150 213 -150 33 0 38 -4
55 -43 17 -39 65 -228 106 -420 16 -76 44 -316 44 -380 1 -32 3 -38 10 -25 6
9 26 22 45 28 19 6 48 27 65 46 26 30 30 42 30 93 0 78 -23 207 -65 367 -36
134 -42 188 -25 214 8 13 13 12 37 -6 37 -27 79 -106 119 -224 56 -165 69
-246 69 -430 0 -169 -11 -234 -61 -348 -14 -32 -14 -32 7 -21 29 15 116 6 137
-14 14 -15 14 -18 -1 -35 -9 -10 -14 -21 -11 -25 4 -3 9 -20 13 -38 6 -32 6
-32 23 2 9 19 21 45 27 59 6 14 21 38 33 53 21 26 23 40 26 193 5 246 -21 401
-107 629 -50 131 -101 221 -181 313 -32 38 -96 127 -140 198 -109 173 -144
216 -267 334 -119 115 -139 126 -198 113z"/>
<path d="M6645 3580 c-20 -39 -18 -161 4 -224 17 -48 17 -48 30 69 7 64 15
132 18 151 5 30 3 34 -15 34 -14 0 -27 -11 -37 -30z"/>
</g>
</svg>
