<?xml version="1.0" standalone="no"?>
<!DOCTYPE svg PUBLIC "-//W3C//DTD SVG 20010904//EN"
 "http://www.w3.org/TR/2001/REC-SVG-20010904/DTD/svg10.dtd">
<svg version="1.0" xmlns="http://www.w3.org/2000/svg"
 width="1000.000000pt" height="1000.000000pt" viewBox="0 0 1000.000000 1000.000000"
 preserveAspectRatio="xMidYMid meet">
<metadata>
  <rdf:RDF
    xmlns:rdf = "http://www.w3.org/1999/02/22-rdf-syntax-ns#"
    xmlns:rdfs = "http://www.w3.org/2000/01/rdf-schema#"
    xmlns:dc = "http://purl.org/dc/elements/1.1/"
    xmlns:cc = "http://creativecommons.org/ns#">
    <cc:license rdf:resource="http://creativecommons.org/publicdomain/zero/1.0/deed.en"/>
    <cc:permits rdf:resource="http://creativecommons.org/ns#Reproduction"/>
    <rdf:Description about="https://nft.mir.one/fingerprints"
      dc:title="TON Fingerprints"
      dc:description="This is a unique digital fingerprint created based on the algorithm for generating basic rings using a noise texture. Like human fingerprints, you can now use it for the Web3 and Metaverse era as digital biometric information."
      dc:publisher="https://nft.mir.one"
      dc:date="2022-02-22"
      dc:format="image/svg+xml"
      dc:language="en" >
      <dc:creator>
      <rdf:Bag>
        <rdf:li>EQBondcvD2_aOFADXSWJHs4ZazQDuEl9_wNvGGPxI8hGuOFU</rdf:li>
        <rdf:li>ipfs://bafkreihj7iub3fhmhq6jn62noukt5wxn3gv6bvcg7wmt6ywvlurefezckq</rdf:li>
      </rdf:Bag>
      </dc:creator>
    </rdf:Description>
  </rdf:RDF>
</metadata>
<rect width="100%" height="100%" fill="#1b1f23"/>
<g transform="translate(0.000000,1000.000000) scale(0.100000,-0.100000)"
fill="#ffffff" stroke="none">
<path d="M4900 7808 c0 -14 168 -107 273 -152 173 -75 292 -112 484 -153 303
-64 378 -79 408 -87 35 -8 -181 99 -277 137 -36 15 -103 35 -149 46 -46 11
-163 45 -260 75 -96 30 -237 71 -314 91 -76 20 -144 39 -152 42 -7 3 -13 3
-13 1z"/>
<path d="M4391 7653 c30 -14 106 -43 169 -65 144 -50 221 -92 285 -158 56 -58
84 -74 205 -118 494 -181 806 -289 937 -323 232 -62 383 -128 534 -234 25 -18
57 -36 70 -40 13 -4 44 -19 69 -33 42 -24 38 -18 -55 82 -286 307 -485 427
-940 561 -314 93 -423 131 -580 202 -232 105 -369 138 -609 147 -139 4 -139 4
-85 -21z"/>
<path d="M4175 7465 c-44 -7 -114 -22 -155 -34 -41 -11 -90 -21 -110 -22 -35
-1 -35 -1 3 -10 21 -5 47 -13 57 -19 10 -5 85 -17 166 -25 81 -9 224 -27 318
-41 192 -29 295 -29 323 -1 31 30 -13 73 -107 106 -177 62 -316 75 -495 46z"/>
<path d="M3930 7181 c-90 -29 -168 -74 -290 -166 -63 -48 -134 -97 -157 -108
-42 -20 -42 -20 -17 -49 13 -16 24 -34 24 -39 0 -4 15 -16 33 -25 48 -25 218
-204 312 -329 136 -182 223 -253 525 -425 224 -128 324 -197 489 -340 254
-220 500 -643 518 -891 6 -86 -6 -122 -39 -117 -16 2 -32 31 -72 128 -134 321
-267 530 -471 735 -139 141 -272 234 -465 328 -194 94 -257 129 -444 249 -242
157 -319 186 -455 174 -88 -7 -146 -37 -245 -127 -33 -30 -72 -62 -84 -71 -24
-16 -24 -16 10 -32 18 -8 86 -20 151 -26 204 -18 312 -48 482 -132 116 -58
244 -141 297 -192 20 -20 55 -71 77 -113 39 -75 65 -107 291 -360 170 -190
286 -350 438 -604 311 -518 412 -964 381 -1676 -9 -211 -9 -296 0 -378 7 -59
12 -150 11 -203 -1 -54 -1 -119 -1 -147 1 -49 1 -49 24 -7 38 72 185 269 216
291 94 67 164 365 164 696 0 195 -8 310 -53 745 -39 375 -50 530 -50 730 0
137 -4 183 -24 270 -71 314 -260 626 -520 857 -128 115 -351 265 -701 471
-149 88 -226 149 -249 196 -41 86 10 76 278 -59 180 -90 282 -151 480 -282
138 -91 289 -198 335 -237 255 -215 451 -566 534 -960 20 -93 21 -127 19 -426
-2 -255 2 -373 18 -550 48 -552 55 -654 54 -800 0 -249 -51 -466 -159 -685
-57 -117 -90 -203 -81 -212 2 -2 40 35 85 83 87 92 168 200 206 274 40 80 107
373 120 530 6 65 3 86 -20 154 -22 69 -28 111 -40 310 -8 127 -21 314 -30 416
-19 208 -15 301 16 392 33 97 39 169 28 313 -17 236 -58 403 -169 684 -107
272 -202 417 -384 588 -112 105 -191 154 -301 188 -104 32 -164 70 -221 144
-37 48 -62 68 -123 99 -94 49 -224 98 -406 152 -77 23 -149 50 -160 61 -18 18
-19 20 -2 36 15 15 35 18 115 17 107 0 179 -13 422 -78 91 -24 205 -53 255
-65 133 -31 185 -62 295 -172 52 -54 138 -136 190 -184 185 -171 349 -369 393
-477 9 -21 28 -82 42 -135 14 -54 55 -175 90 -270 94 -250 106 -307 144 -723
6 -66 21 -142 41 -205 44 -143 119 -473 132 -587 21 -179 -9 -337 -104 -543
-39 -84 -64 -161 -108 -340 -32 -127 -69 -267 -83 -310 -24 -80 -43 -174 -32
-163 3 3 35 50 71 104 91 139 178 317 214 437 48 157 78 241 135 372 64 146
77 206 77 349 -1 131 -11 183 -58 289 -32 73 -125 402 -139 492 -7 47 8 95 29
95 31 0 68 -100 131 -342 45 -177 63 -218 95 -218 46 0 49 111 10 290 -34 158
-75 246 -162 348 -55 64 -82 141 -83 233 0 52 4 72 19 88 11 12 23 21 27 21 4
0 35 -55 68 -122 33 -68 85 -168 115 -223 31 -55 67 -134 80 -175 55 -166 71
-357 40 -475 -11 -42 -17 -126 -21 -285 -5 -231 -2 -270 37 -405 10 -38 20
-86 20 -105 3 -83 92 375 109 560 13 142 -2 568 -24 674 -29 138 -87 270 -178
405 -83 124 -155 181 -228 181 -11 0 -38 43 -79 123 -35 67 -96 183 -136 258
-106 198 -122 259 -70 259 51 0 123 -79 276 -303 50 -74 140 -192 201 -263
123 -143 197 -248 258 -369 75 -146 82 -179 91 -465 9 -268 20 -376 43 -449
14 -45 14 -45 20 -5 4 22 9 119 12 215 8 229 14 293 30 315 13 18 15 17 55
-15 37 -29 41 -31 29 -10 -7 13 -21 36 -31 50 -16 21 -21 52 -28 170 -5 101
-14 161 -28 200 -29 83 -129 228 -549 797 -99 133 -177 214 -293 301 -47 35
-197 177 -335 316 -423 425 -565 518 -929 611 -272 69 -548 96 -708 70 -135
-22 -212 -21 -264 5 -78 37 -65 86 30 114 93 28 319 40 494 27 417 -32 641
-82 882 -198 206 -99 292 -164 515 -388 110 -111 286 -284 391 -386 204 -198
260 -265 431 -515 262 -382 418 -594 463 -626 25 -18 40 -26 33 -18 -7 8 -31
70 -53 138 -81 244 -111 307 -215 466 -40 61 -105 169 -145 240 -136 245 -215
335 -617 703 -124 114 -177 181 -203 257 -11 33 -30 69 -42 82 -71 76 -463
259 -721 337 -135 41 -234 56 -370 56 -56 0 -196 9 -312 20 -262 25 -410 25
-485 1z m414 -1491 c84 -44 169 -112 287 -230 166 -165 272 -310 439 -599 57
-99 105 -167 151 -215 36 -39 74 -86 83 -104 37 -73 117 -482 151 -774 51
-441 45 -747 -22 -1107 -19 -102 -33 -120 -66 -80 -19 23 -19 32 -11 229 12
285 10 675 -5 800 -44 378 -115 677 -201 850 -45 92 -221 379 -341 555 -122
181 -229 304 -427 495 -189 181 -207 210 -126 210 17 0 57 -13 88 -30z"/>
<path d="M5960 6797 c-62 -31 -35 -66 175 -226 236 -181 469 -405 602 -578 53
-69 56 -76 63 -152 10 -93 26 -128 123 -271 70 -104 178 -221 142 -154 -28 53
-166 368 -181 413 -18 57 -6 74 51 69 40 -3 40 -3 -5 58 -25 34 -83 123 -129
199 -124 203 -217 322 -314 400 -150 121 -295 206 -406 239 -65 19 -88 20
-121 3z"/>
<path d="M3278 6521 c-57 -29 -57 -29 -13 -41 53 -15 106 -7 130 20 48 53 -26
66 -117 21z"/>
<path d="M4885 6447 c-16 -13 -17 -19 -8 -39 16 -36 99 -81 148 -82 35 -1 40
2 43 22 9 59 -134 135 -183 99z"/>
<path d="M3160 5842 c-19 -9 -61 -42 -95 -73 -33 -31 -68 -60 -78 -66 -17 -9
-15 -12 18 -37 43 -33 123 -56 310 -90 176 -32 230 -48 332 -98 119 -59 230
-147 388 -309 268 -273 461 -548 623 -888 31 -64 79 -156 107 -206 110 -190
140 -275 172 -477 24 -155 24 -561 0 -733 -24 -171 -41 -228 -101 -335 -66
-119 -113 -223 -121 -274 -6 -38 -6 -38 54 8 61 47 105 97 154 174 30 46 38
50 57 27 9 -11 11 -42 8 -113 -3 -53 -3 -112 -1 -130 5 -33 5 -33 22 -9 9 13
28 42 42 64 15 21 35 62 45 90 16 46 17 57 3 139 -17 107 -17 175 0 489 18
354 -7 657 -74 888 -100 345 -354 811 -629 1153 -121 151 -413 468 -494 537
-170 144 -377 230 -677 281 -18 3 -45 -2 -65 -12z"/>
<path d="M3358 5360 c-49 -30 -7 -83 158 -197 351 -244 708 -703 819 -1055 75
-236 114 -831 71 -1083 -37 -220 -112 -427 -172 -474 -70 -55 -104 -3 -54 83
35 62 82 234 106 386 44 277 7 731 -81 997 -59 178 -195 413 -347 601 -70 87
-290 309 -450 455 -65 59 -120 119 -142 155 -36 59 -68 82 -134 97 -35 7 -42
2 -170 -138 -24 -26 -51 -48 -60 -48 -10 -1 -1 -5 18 -9 77 -17 171 -59 231
-102 152 -109 410 -368 593 -597 374 -466 488 -953 370 -1566 -14 -71 -28
-166 -31 -210 -5 -75 -3 -83 22 -119 18 -27 25 -48 23 -68 -4 -22 -1 -28 10
-23 8 3 43 9 77 14 115 17 177 60 221 156 122 265 158 573 119 1031 -15 175
-17 225 -7 277 18 96 15 130 -18 229 -144 429 -615 1013 -949 1175 -80 39
-188 55 -223 33z"/>
<path d="M2945 4860 c16 -16 39 -30 52 -30 18 0 23 -6 23 -24 0 -28 -41 -92
-78 -123 -18 -15 -22 -23 -12 -23 8 0 27 -6 41 -14 14 -7 41 -16 60 -20 48 -9
129 -56 152 -88 17 -22 18 -30 7 -43 -7 -8 -23 -15 -37 -15 -41 0 -92 -28
-142 -78 -49 -48 -49 -48 -7 -65 23 -10 67 -22 98 -26 192 -32 302 -106 455
-307 34 -45 92 -108 129 -140 82 -72 117 -125 150 -229 64 -202 69 -451 14
-740 -10 -55 -21 -129 -25 -164 -6 -63 -6 -63 21 -42 15 11 32 21 38 21 16 0
93 75 100 97 12 40 36 205 47 318 18 193 -4 418 -57 587 -65 204 -215 436
-447 690 -54 59 -132 149 -173 200 -41 51 -120 132 -174 180 -103 89 -143 108
-232 108 -32 0 -32 0 -3 -30z"/>
<path d="M5939 4414 c-20 -25 -16 -169 11 -394 16 -137 22 -247 24 -422 1
-207 3 -239 18 -254 60 -61 120 123 119 371 0 146 -20 306 -67 540 -30 150
-67 205 -105 159z"/>
<path d="M3138 4036 c-18 -18 -43 -47 -55 -63 -22 -30 -22 -30 9 -59 41 -40
124 -163 160 -239 32 -70 98 -317 98 -370 0 -19 5 -37 10 -40 6 -3 10 -1 10 5
0 6 13 16 28 21 39 14 74 63 80 114 5 45 -29 277 -55 380 -22 89 -59 149 -135
221 -80 75 -102 79 -150 30z"/>
<path d="M4652 3938 c-17 -17 -15 -74 9 -228 26 -172 36 -503 20 -650 -24
-210 -75 -381 -171 -570 -32 -63 -65 -134 -73 -156 -14 -42 -14 -42 45 -10
106 56 170 114 205 186 127 258 177 597 142 970 -29 316 -110 525 -177 458z"/>
<path d="M3579 3753 c-9 -22 -7 -63 11 -192 25 -179 29 -363 11 -471 -6 -36
-11 -86 -11 -112 0 -47 0 -47 50 -26 105 44 124 93 123 323 0 191 -40 383 -96
466 -31 46 -72 52 -88 12z"/>
<path d="M6431 3354 c-11 -14 -29 -50 -40 -79 -35 -93 -109 -387 -114 -453 -5
-64 -5 -64 40 35 74 159 153 359 170 428 13 52 13 68 3 80 -18 22 -36 19 -59
-11z"/>
</g>
</svg>
