<?xml version="1.0" standalone="no"?>
<!DOCTYPE svg PUBLIC "-//W3C//DTD SVG 20010904//EN"
 "http://www.w3.org/TR/2001/REC-SVG-20010904/DTD/svg10.dtd">
<svg version="1.0" xmlns="http://www.w3.org/2000/svg"
 width="1000.000000pt" height="1000.000000pt" viewBox="0 0 1000.000000 1000.000000"
 preserveAspectRatio="xMidYMid meet">
<metadata>
  <rdf:RDF
    xmlns:rdf = "http://www.w3.org/1999/02/22-rdf-syntax-ns#"
    xmlns:rdfs = "http://www.w3.org/2000/01/rdf-schema#"
    xmlns:dc = "http://purl.org/dc/elements/1.1/"
    xmlns:cc = "http://creativecommons.org/ns#">
    <cc:license rdf:resource="http://creativecommons.org/publicdomain/zero/1.0/deed.en"/>
    <cc:permits rdf:resource="http://creativecommons.org/ns#Reproduction"/>
    <rdf:Description about="https://nft.mir.one/fingerprints"
      dc:title="TON Fingerprints"
      dc:description="This is a unique digital fingerprint created based on the algorithm for generating basic rings using a noise texture. Like human fingerprints, you can now use it for the Web3 and Metaverse era as digital biometric information."
      dc:publisher="https://nft.mir.one"
      dc:date="2022-02-22"
      dc:format="image/svg+xml"
      dc:language="en" >
      <dc:creator>
      <rdf:Bag>
        <rdf:li>EQBondcvD2_aOFADXSWJHs4ZazQDuEl9_wNvGGPxI8hGuOFU</rdf:li>
        <rdf:li>ipfs://bafkreihj7iub3fhmhq6jn62noukt5wxn3gv6bvcg7wmt6ywvlurefezckq</rdf:li>
      </rdf:Bag>
      </dc:creator>
    </rdf:Description>
  </rdf:RDF>
</metadata>
<rect width="100%" height="100%" fill="#1b1f23"/>
<g transform="translate(0.000000,1000.000000) scale(0.100000,-0.100000)"
fill="#ffffff" stroke="none">
<path d="M5475 7707 c72 -35 184 -94 250 -132 110 -64 125 -69 185 -72 65 -3
65 -3 25 10 -22 8 -112 50 -200 94 -147 74 -303 141 -365 157 -14 4 34 -22
105 -57z"/>
<path d="M4560 7747 c0 -19 138 -89 310 -157 420 -168 617 -281 920 -530 350
-287 382 -323 495 -540 40 -76 123 -218 185 -314 161 -252 196 -284 194 -174
-1 65 -52 180 -162 366 -94 159 -104 179 -100 209 5 40 23 38 73 -8 85 -78
201 -273 251 -419 26 -76 26 -200 0 -229 -20 -22 -83 -27 -143 -9 -49 14 -144
123 -297 344 -194 277 -248 344 -372 464 -262 253 -547 454 -832 587 -195 91
-457 195 -526 208 -77 15 -210 21 -350 17 -89 -2 -89 -2 -55 -27 57 -42 187
-101 405 -184 274 -104 365 -142 509 -216 215 -109 407 -241 590 -402 139
-123 466 -472 593 -633 142 -179 154 -192 276 -298 107 -93 139 -135 187 -251
73 -175 112 -406 129 -756 5 -110 15 -217 21 -237 14 -44 52 -83 73 -75 22 9
31 130 31 432 -1 302 -9 380 -75 721 -22 113 -40 228 -40 257 0 155 -40 314
-120 482 -76 158 -136 239 -272 367 -184 172 -223 205 -377 312 -78 55 -195
148 -259 209 -170 159 -276 226 -492 310 -183 72 -351 114 -595 148 -77 10
-148 22 -157 25 -10 3 -18 3 -18 1z"/>
<path d="M5907 7413 c-34 -34 44 -126 170 -201 99 -58 158 -82 226 -92 38 -6
71 -18 95 -36 37 -27 37 -27 3 9 -18 19 -61 50 -95 68 -100 53 -319 195 -350
228 -31 32 -38 36 -49 24z"/>
<path d="M3873 7317 c-101 -33 -101 -33 -45 -42 31 -6 117 -9 190 -7 119 3
132 5 132 21 0 66 -122 78 -277 28z"/>
<path d="M4145 7220 c-41 -44 -54 -50 -185 -81 -89 -22 -148 -45 -265 -103
-82 -42 -167 -86 -188 -99 -37 -23 -37 -23 115 -19 118 2 187 9 303 32 313 61
424 62 630 5 338 -93 677 -294 922 -548 120 -124 180 -218 243 -380 102 -260
113 -301 105 -391 -13 -154 -10 -222 18 -386 33 -196 46 -453 28 -570 -14 -93
-47 -164 -78 -168 -33 -5 -39 21 -47 198 -13 289 -53 497 -119 630 -18 36 -78
128 -133 205 -56 77 -133 187 -173 243 -91 128 -238 284 -350 367 -91 69 -238
148 -396 215 -55 24 -118 55 -140 70 -99 67 -122 75 -236 75 -106 0 -106 0
-341 -118 -323 -161 -491 -275 -586 -399 -55 -72 -151 -250 -213 -394 -48
-112 -143 -416 -137 -436 2 -6 38 59 81 144 119 236 259 449 393 597 132 147
370 291 529 320 70 13 277 -11 385 -44 41 -13 112 -31 158 -40 338 -67 547
-235 799 -639 200 -322 229 -392 293 -717 22 -112 52 -239 66 -282 34 -101 33
-180 -1 -282 -89 -266 -252 -441 -558 -601 -200 -104 -368 -144 -606 -144
-228 0 -416 36 -633 120 -186 72 -276 139 -453 333 -94 103 -115 122 -140 122
-46 0 -44 -36 9 -141 100 -200 304 -381 547 -486 209 -90 373 -119 669 -120
324 -2 442 28 711 179 79 45 179 95 221 113 149 61 264 216 463 625 73 149
142 300 153 336 48 147 58 300 40 589 -8 118 -13 249 -10 290 7 134 -25 266
-116 480 -58 136 -68 175 -54 205 6 14 18 25 26 25 26 0 115 -139 250 -389 81
-149 110 -192 171 -251 124 -120 188 -320 202 -630 10 -237 -18 -390 -118
-640 -101 -252 -186 -401 -441 -783 -79 -117 -169 -262 -201 -323 -31 -60 -86
-145 -122 -189 -69 -84 -85 -118 -68 -144 20 -31 87 -18 191 36 54 28 127 60
163 72 156 51 275 166 474 454 92 133 145 190 173 185 30 -6 24 -41 -23 -138
-56 -114 -88 -166 -177 -286 -185 -250 -434 -406 -800 -503 -84 -23 -214 -59
-288 -82 -82 -24 -159 -41 -195 -42 -57 -2 -60 -1 -63 23 -4 37 43 77 193 164
159 91 192 118 229 187 16 30 68 115 116 189 48 74 122 196 165 270 43 74 122
203 175 285 278 431 412 731 455 1015 48 313 -25 768 -129 805 -62 21 -67 -32
-35 -392 22 -260 -9 -468 -107 -707 -70 -171 -187 -391 -329 -616 -70 -113
-145 -245 -166 -293 -102 -237 -272 -429 -536 -603 -174 -116 -264 -159 -367
-179 -199 -38 -516 10 -556 85 -9 18 -9 25 2 36 10 10 28 11 88 3 41 -6 147
-9 235 -7 197 5 246 21 333 105 36 34 93 73 154 104 128 67 207 118 302 198
170 143 264 298 192 317 -30 7 -61 -9 -167 -87 -122 -91 -250 -164 -343 -196
-81 -28 -81 -28 -431 -28 -388 0 -455 7 -621 66 -274 96 -508 272 -663 498
-86 126 -102 166 -111 282 -9 109 -30 158 -81 184 -28 15 -28 15 -8 -20 12
-19 36 -95 54 -168 38 -157 84 -266 168 -404 84 -138 171 -246 287 -356 117
-111 185 -153 333 -203 112 -39 112 -39 462 -40 354 0 385 -3 414 -38 36 -43
-40 -63 -289 -76 -226 -12 -254 -17 -321 -47 -53 -23 -61 -24 -114 -13 -73 15
-166 47 -286 97 -51 22 -119 50 -149 61 -55 21 -55 21 -20 -9 124 -107 466
-341 598 -408 24 -12 80 -31 125 -42 45 -11 109 -29 142 -39 72 -23 206 -45
375 -61 86 -7 153 -20 213 -40 62 -21 107 -29 157 -29 90 0 251 31 386 76 145
47 387 168 503 251 229 164 427 397 547 646 36 75 47 109 53 174 6 58 24 123
64 234 102 279 138 441 117 518 -13 48 -40 67 -70 49 -17 -11 -60 -93 -60
-116 0 -5 -20 -69 -45 -142 -60 -179 -121 -300 -201 -396 -37 -43 -130 -164
-209 -269 -189 -253 -314 -385 -365 -385 -17 0 -11 63 9 96 11 17 64 92 118
165 343 465 424 596 533 861 28 67 64 146 82 177 89 159 81 114 74 411 -11
530 -68 721 -303 1003 -42 50 -121 153 -176 227 -129 175 -186 234 -269 276
-55 28 -83 52 -166 146 -193 220 -379 381 -592 513 -123 76 -364 192 -510 245
-138 50 -354 107 -441 116 -62 6 -65 5 -94 -26z m160 -834 c39 -17 45 -40 16
-56 -25 -13 -175 -13 -223 1 -52 14 -48 48 7 62 45 11 167 6 200 -7z"/>
<path d="M6455 7030 c10 -11 20 -20 23 -20 3 0 -3 9 -13 20 -10 11 -20 20 -23
20 -3 0 3 -9 13 -20z"/>
<path d="M4095 6823 c-60 -9 -187 -44 -238 -67 -29 -13 -87 -50 -129 -83 -42
-33 -121 -86 -175 -119 -172 -102 -253 -176 -402 -366 -29 -38 -60 -72 -69
-78 -13 -7 -7 -9 26 -10 38 0 53 8 125 63 112 87 234 168 409 270 314 184 391
212 578 212 120 -1 130 -2 252 -44 135 -46 338 -140 453 -211 104 -63 179
-123 283 -224 108 -105 188 -209 297 -386 95 -153 136 -205 173 -218 41 -14
55 -1 55 50 -2 80 -121 346 -228 508 -78 119 -277 311 -424 408 -211 141 -445
244 -644 283 -91 18 -257 24 -342 12z"/>
<path d="M3555 6789 c-52 -28 -101 -66 -210 -163 -49 -44 -94 -83 -99 -87 -25
-22 134 48 229 99 134 73 187 116 183 146 -4 30 -52 32 -103 5z"/>
<path d="M3998 6120 c-318 -54 -642 -350 -861 -786 -71 -141 -130 -361 -177
-655 -11 -70 -23 -135 -26 -145 -4 -11 8 1 27 26 22 30 58 113 105 246 40 111
85 233 100 270 88 225 231 457 370 604 171 179 330 274 560 334 72 18 141 39
153 45 28 15 24 42 -9 58 -28 14 -166 16 -242 3z"/>
<path d="M3090 6003 c0 -15 -21 -66 -46 -113 -45 -85 -45 -85 -6 -46 76 73
114 176 70 184 -14 3 -18 -3 -18 -25z"/>
<path d="M4275 5970 c-67 -14 -219 -67 -297 -104 -126 -60 -228 -133 -339
-245 -180 -180 -303 -390 -399 -678 -68 -206 -93 -332 -88 -459 3 -93 6 -107
40 -175 32 -64 64 -101 231 -269 249 -252 261 -259 527 -324 58 -14 145 -37
193 -51 221 -61 466 -55 683 16 299 98 537 305 626 545 18 46 22 81 23 159 0
94 -2 105 -37 180 -25 55 -43 117 -58 200 -12 66 -33 154 -47 195 -53 159
-151 305 -235 348 -44 23 -54 24 -285 25 -267 2 -304 -4 -463 -81 -94 -46
-231 -178 -273 -262 -73 -150 -76 -308 -10 -449 35 -74 140 -179 214 -214 173
-81 372 -46 508 90 250 251 128 619 -204 616 -97 -1 -175 -32 -236 -93 -100
-100 -99 -238 2 -312 80 -59 215 20 165 96 -17 26 -59 36 -71 16 -21 -34 -52
19 -35 60 32 78 159 90 233 22 74 -67 74 -185 1 -270 -68 -80 -171 -109 -278
-78 -79 23 -155 97 -186 181 -56 152 13 333 166 431 88 57 187 84 301 84 216
0 357 -80 436 -248 29 -61 32 -75 32 -167 0 -93 -3 -106 -35 -180 -100 -226
-275 -386 -467 -425 -93 -20 -255 -8 -330 22 -160 67 -284 199 -351 376 -22
58 -26 84 -26 187 -1 109 2 128 30 206 73 204 224 357 451 454 102 44 175 63
300 77 90 11 117 10 219 -7 124 -20 146 -17 152 24 5 35 -43 105 -107 158 -38
31 -71 69 -91 105 -17 31 -47 71 -68 88 -71 59 -213 97 -318 85 -61 -6 -62 -7
-68 -40 -9 -46 -54 -81 -199 -157 -149 -77 -222 -124 -317 -204 -183 -154
-322 -379 -388 -624 -21 -79 -25 -118 -25 -235 -1 -128 1 -147 27 -220 50
-146 124 -256 289 -433 77 -82 97 -109 97 -133 0 -38 -19 -38 -89 2 -115 66
-326 299 -396 439 -54 108 -69 171 -68 295 2 320 172 699 420 936 124 118 243
194 443 280 63 28 128 57 144 65 16 8 35 14 43 14 21 0 15 28 -9 44 -34 21
-58 25 -103 16z m483 -252 c51 -13 62 -32 35 -60 -15 -14 -47 -24 -119 -34
-134 -20 -200 -38 -307 -84 -362 -156 -582 -434 -613 -774 -21 -229 107 -491
323 -666 130 -105 241 -143 413 -143 127 -1 215 19 325 72 157 76 266 183 366
358 60 104 96 145 124 141 45 -7 28 -135 -35 -263 -76 -155 -208 -281 -385
-366 -142 -68 -249 -92 -405 -92 -231 1 -346 45 -483 185 -178 183 -277 325
-331 476 -29 82 -31 95 -31 232 0 113 4 159 19 210 75 254 228 463 447 609
137 92 358 196 459 215 34 6 145 -3 198 -16z"/>
<path d="M7031 4354 c0 -11 3 -14 6 -6 3 7 2 16 -1 19 -3 4 -6 -2 -5 -13z"/>
<path d="M7022 4305 c0 -16 2 -22 5 -12 2 9 2 23 0 30 -3 6 -5 -1 -5 -18z"/>
<path d="M7011 4224 c0 -11 3 -14 6 -6 3 7 2 16 -1 19 -3 4 -6 -2 -5 -13z"/>
<path d="M4295 2450 c3 -5 11 -10 16 -10 6 0 7 5 4 10 -3 6 -11 10 -16 10 -6
0 -7 -4 -4 -10z"/>
<path d="M4480 2290 c225 -44 263 -54 296 -76 31 -21 33 -22 24 -5 -27 51 -95
77 -235 91 -160 15 -195 11 -85 -10z"/>
</g>
</svg>
