<?xml version="1.0" standalone="no"?>
<!DOCTYPE svg PUBLIC "-//W3C//DTD SVG 20010904//EN"
 "http://www.w3.org/TR/2001/REC-SVG-20010904/DTD/svg10.dtd">
<svg version="1.0" xmlns="http://www.w3.org/2000/svg"
 width="1000.000000pt" height="1000.000000pt" viewBox="0 0 1000.000000 1000.000000"
 preserveAspectRatio="xMidYMid meet">
<metadata>
  <rdf:RDF
    xmlns:rdf = "http://www.w3.org/1999/02/22-rdf-syntax-ns#"
    xmlns:rdfs = "http://www.w3.org/2000/01/rdf-schema#"
    xmlns:dc = "http://purl.org/dc/elements/1.1/"
    xmlns:cc = "http://creativecommons.org/ns#">
    <cc:license rdf:resource="http://creativecommons.org/publicdomain/zero/1.0/deed.en"/>
    <cc:permits rdf:resource="http://creativecommons.org/ns#Reproduction"/>
    <rdf:Description about="https://nft.mir.one/fingerprints"
      dc:title="TON Fingerprints"
      dc:description="This is a unique digital fingerprint created based on the algorithm for generating basic rings using a noise texture. Like human fingerprints, you can now use it for the Web3 and Metaverse era as digital biometric information."
      dc:publisher="https://nft.mir.one"
      dc:date="2022-02-22"
      dc:format="image/svg+xml"
      dc:language="en" >
      <dc:creator>
      <rdf:Bag>
        <rdf:li>EQBondcvD2_aOFADXSWJHs4ZazQDuEl9_wNvGGPxI8hGuOFU</rdf:li>
        <rdf:li>ipfs://bafkreihj7iub3fhmhq6jn62noukt5wxn3gv6bvcg7wmt6ywvlurefezckq</rdf:li>
      </rdf:Bag>
      </dc:creator>
    </rdf:Description>
  </rdf:RDF>
</metadata>
<rect width="100%" height="100%" fill="#1b1f23"/>
<g transform="translate(0.000000,1000.000000) scale(0.100000,-0.100000)"
fill="#ffffff" stroke="none">
<path d="M4905 7793 c17 -9 51 -35 76 -59 55 -50 87 -60 229 -69 129 -8 191
-22 384 -85 83 -27 198 -61 255 -75 58 -15 120 -33 139 -41 19 -8 37 -13 39
-11 5 6 -286 139 -420 193 -164 66 -267 94 -351 94 -97 0 -195 16 -289 45 -90
29 -104 31 -62 8z"/>
<path d="M4345 7651 c34 -23 85 -88 85 -107 0 -22 -30 -31 -135 -43 -55 -7
-148 -23 -207 -36 -58 -14 -119 -25 -135 -26 -17 0 -2 -7 37 -16 41 -9 121
-16 215 -17 136 -1 156 1 213 23 78 30 105 26 247 -35 67 -29 170 -62 269 -85
424 -102 578 -166 660 -273 30 -40 281 -250 474 -398 178 -137 276 -247 352
-398 60 -119 256 -587 294 -701 19 -57 47 -162 61 -234 14 -71 46 -226 71
-343 24 -118 60 -309 79 -426 19 -116 45 -241 57 -277 23 -64 23 -64 20 161
-3 268 -14 433 -47 673 -14 98 -25 209 -25 245 0 161 -44 307 -181 598 -98
211 -129 297 -129 363 0 52 -32 108 -120 212 -44 52 -99 121 -122 154 -38 54
-42 67 -48 137 -5 71 -8 80 -40 113 -62 65 -100 78 -225 79 -111 1 -111 1
-230 61 -125 63 -148 83 -129 112 16 26 82 27 193 4 120 -26 355 -61 438 -65
63 -2 63 -2 -30 48 -162 87 -466 194 -631 221 -51 8 -149 28 -217 45 -193 47
-290 61 -479 69 -179 8 -229 19 -243 55 -10 24 17 36 104 46 61 7 88 15 103
30 16 16 18 22 8 32 -16 16 -177 15 -242 -1 -79 -19 -277 -11 -375 15 -13 4
-10 -1 10 -15z m1786 -767 c70 -37 119 -75 119 -93 0 -21 -39 -32 -79 -21 -80
21 -145 90 -127 135 7 20 8 20 87 -21z"/>
<path d="M4050 7273 c-75 -11 -220 -48 -290 -74 -45 -16 -91 -29 -103 -30 -41
-2 148 -28 205 -29 82 0 341 -35 493 -66 290 -58 684 -189 875 -291 105 -56
252 -151 390 -253 58 -42 164 -115 235 -162 144 -95 240 -187 289 -278 23 -42
31 -73 37 -142 6 -82 12 -99 82 -245 144 -304 253 -607 311 -868 57 -253 115
-758 123 -1068 6 -219 8 -241 29 -285 22 -47 22 -47 23 9 1 31 12 105 25 165
68 303 77 524 32 804 -81 509 -173 874 -302 1190 -36 91 -90 224 -119 295 -92
230 -151 330 -258 437 -65 65 -467 382 -637 503 -172 122 -365 200 -760 310
-88 24 -195 49 -237 54 -72 10 -385 33 -408 30 -5 -1 -21 -3 -35 -6z"/>
<path d="M3735 7005 c-67 -18 -145 -54 -230 -105 -70 -42 -70 -42 30 -33 188
15 362 10 440 -14 105 -33 342 -139 405 -182 83 -57 86 -58 291 -111 439 -115
696 -275 921 -575 41 -55 119 -152 172 -215 147 -174 178 -226 241 -402 15
-43 63 -137 107 -210 170 -280 232 -471 194 -601 -20 -71 -20 -108 3 -237 20
-108 30 -210 56 -580 27 -368 49 -470 100 -470 19 0 29 11 50 54 45 92 50 156
36 438 -6 139 -18 312 -26 383 -8 72 -21 204 -30 295 -37 389 -77 528 -276
963 -102 225 -135 274 -279 418 -163 163 -230 262 -230 342 0 75 -219 265
-470 409 -151 86 -304 149 -615 252 -349 115 -473 149 -628 176 -137 23 -192
24 -262 5z"/>
<path d="M6451 6821 c-12 -8 -12 -13 3 -35 27 -42 145 -133 214 -166 64 -30
64 -30 -19 60 -69 76 -158 150 -178 150 -3 0 -12 -4 -20 -9z"/>
<path d="M3620 6759 c-65 -12 -171 -69 -277 -148 -92 -69 -92 -69 -50 -64 23
3 77 16 120 29 129 40 318 74 457 83 73 5 136 13 142 19 20 20 -18 60 -74 77
-57 17 -240 19 -318 4z"/>
<path d="M3975 6604 c-38 -12 -144 -39 -235 -58 -297 -64 -367 -94 -506 -218
-33 -29 -74 -65 -92 -79 -33 -26 -33 -26 15 -19 26 4 80 20 118 35 173 68 717
240 780 247 24 2 31 -1 33 -19 6 -43 -68 -82 -363 -185 -93 -33 -235 -85 -314
-116 -138 -54 -147 -59 -223 -131 -76 -71 -134 -146 -173 -220 -17 -34 -17
-34 12 -15 101 67 210 129 318 180 61 29 233 100 381 159 298 119 374 155 514
247 76 51 96 68 98 90 5 40 -26 64 -104 82 -38 8 -89 22 -113 31 -53 18 -58
18 -146 -11z"/>
<path d="M4454 6346 c-28 -8 -131 -51 -230 -94 -98 -44 -285 -123 -414 -177
-278 -114 -466 -204 -572 -274 -99 -64 -127 -101 -281 -368 -36 -63 -36 -63 6
-36 23 15 71 53 107 84 91 78 214 168 315 229 250 151 861 397 1068 430 94 15
267 8 352 -15 86 -23 249 -105 326 -163 37 -28 109 -97 160 -154 51 -57 166
-175 254 -264 187 -188 258 -234 295 -189 20 24 5 83 -37 144 -53 76 -331 399
-428 497 -154 155 -345 272 -540 329 -112 34 -300 44 -381 21z"/>
<path d="M6724 6279 c7 -37 140 -269 209 -364 66 -91 72 -97 54 -55 -93 219
-175 384 -212 424 -34 37 -59 35 -51 -5z"/>
<path d="M5791 6206 c-17 -20 1 -60 57 -125 122 -143 196 -200 234 -180 28 15
21 51 -21 115 -89 139 -230 238 -270 190z"/>
<path d="M4352 5980 c-114 -25 -257 -77 -502 -182 -305 -131 -483 -233 -669
-383 -107 -87 -142 -141 -239 -372 -39 -92 -39 -92 -2 -62 20 17 69 66 109
109 200 221 487 408 841 550 58 23 157 66 220 95 183 85 246 100 430 99 118 0
170 -4 219 -18 132 -36 253 -107 291 -169 46 -74 16 -81 -102 -23 -51 26 -129
55 -173 67 -153 39 -401 36 -505 -8 -67 -27 -103 -82 -64 -97 9 -3 106 -6 217
-6 197 0 240 -4 485 -46 111 -19 133 -33 94 -64 -34 -28 -99 -32 -263 -16 -85
8 -203 18 -264 21 -158 9 -243 23 -286 47 -50 28 -130 21 -264 -22 -284 -92
-512 -228 -724 -434 -113 -111 -136 -144 -176 -256 -25 -71 -81 -318 -73 -325
5 -5 52 68 107 162 174 301 470 540 820 661 106 37 106 37 336 36 148 -1 314
-9 467 -22 130 -12 273 -22 316 -22 44 0 104 -5 133 -10 118 -22 298 -131 426
-256 65 -65 79 -86 144 -220 40 -82 107 -212 149 -289 120 -216 160 -320 160
-417 0 -60 -18 -92 -46 -81 -8 3 -63 103 -123 222 -115 231 -233 435 -311 541
-129 175 -310 299 -507 350 -282 72 -810 107 -1003 66 -356 -76 -693 -324
-864 -636 -85 -157 -98 -424 -31 -685 79 -312 261 -572 472 -676 50 -25 75
-31 135 -32 83 -2 138 15 138 44 0 26 -32 43 -139 73 -283 80 -467 264 -542
541 -32 119 -31 296 4 427 111 420 487 738 945 799 54 7 149 9 247 6 364 -13
651 -101 851 -261 147 -118 256 -265 434 -586 56 -102 131 -224 166 -271 95
-128 105 -158 160 -484 66 -394 64 -496 -20 -774 -20 -66 -24 -96 -19 -138 6
-54 6 -54 25 -22 11 18 51 74 88 125 118 157 214 331 241 434 11 43 9 54 -25
156 -61 184 -93 415 -106 754 -10 284 -21 325 -144 518 -87 137 -179 308 -189
353 -4 15 -1 33 7 44 13 18 14 18 44 -1 39 -25 85 -85 156 -209 82 -140 131
-190 162 -164 50 41 -60 315 -178 443 -65 71 -160 140 -301 217 -162 88 -434
304 -484 384 -129 207 -178 258 -312 328 -119 63 -189 79 -351 83 -118 3 -162
0 -238 -16z"/>
<path d="M7052 5325 c0 -16 6 -46 13 -65 14 -35 14 -35 8 5 -3 22 -10 51 -14
65 -7 24 -7 24 -7 -5z"/>
<path d="M4102 4924 c-385 -65 -699 -342 -793 -699 -26 -100 -28 -271 -5 -360
54 -205 198 -370 392 -450 38 -15 112 -48 164 -72 115 -54 169 -57 287 -17
189 63 337 202 357 332 8 57 -9 153 -40 219 -47 99 -165 178 -232 155 -40 -13
-38 -35 7 -98 176 -246 -77 -514 -403 -425 -112 31 -182 68 -246 131 -100 97
-148 207 -157 355 -11 184 57 359 194 505 169 180 361 265 624 277 187 8 350
-20 518 -91 285 -120 527 -406 654 -772 46 -133 62 -220 61 -339 0 -165 -43
-266 -227 -539 -128 -189 -226 -276 -352 -316 -22 -7 -75 -33 -118 -58 -79
-45 -79 -45 -117 -23 -50 28 -116 27 -266 -3 -66 -13 -168 -32 -229 -41 -60
-9 -134 -22 -164 -28 -53 -13 -53 -13 60 -32 83 -15 161 -20 285 -20 171 0
171 0 245 38 41 20 80 37 87 37 7 0 12 -14 12 -38 0 -80 -106 -162 -211 -162
-30 0 -85 -9 -124 -19 -70 -18 -70 -18 17 -23 66 -3 92 -9 108 -23 11 -10 20
-23 19 -29 -3 -29 3 -40 11 -20 7 17 21 24 62 29 161 22 289 85 448 221 228
194 317 291 450 488 81 121 119 159 151 154 20 -2 24 -10 27 -46 6 -81 -51
-211 -151 -342 -57 -74 -257 -274 -397 -397 -63 -55 -134 -123 -157 -151 -42
-50 -42 -50 103 13 225 98 342 173 525 335 132 118 167 156 199 220 64 127 75
251 35 405 -14 54 -32 161 -41 239 -26 251 -70 385 -221 676 -268 518 -540
734 -1017 805 -125 18 -321 18 -434 -1z"/>
<path d="M4127 4635 c-312 -59 -537 -274 -576 -550 -27 -188 70 -385 216 -441
40 -16 55 -16 132 -5 120 17 155 28 191 57 57 49 75 108 59 202 -13 73 -39 99
-86 87 -54 -13 -96 -80 -63 -100 16 -10 -1 -35 -25 -35 -50 0 -81 69 -62 142
15 59 86 129 160 156 159 60 320 27 443 -90 99 -94 150 -204 174 -378 15 -107
31 -145 70 -165 29 -15 34 -15 56 -1 41 27 57 73 62 171 8 175 -58 336 -192
471 -157 157 -359 222 -558 180 -201 -43 -341 -189 -341 -355 0 -72 15 -117
65 -193 53 -83 13 -106 -65 -38 -160 142 -136 413 52 582 110 99 261 151 431
150 209 -1 408 -88 556 -243 150 -158 225 -337 225 -534 0 -146 -36 -259 -138
-429 -64 -108 -89 -133 -151 -156 -31 -12 -104 -50 -162 -85 -113 -68 -166
-94 -273 -131 -98 -34 -299 -73 -430 -84 -61 -6 -137 -13 -167 -17 -55 -6 -55
-6 -5 -18 28 -7 91 -25 140 -39 174 -53 306 -47 569 25 187 51 244 88 326 209
66 97 109 73 89 -50 -15 -94 11 -123 74 -81 70 46 263 381 323 561 27 79 28
96 28 240 0 139 -3 164 -27 243 -115 374 -377 636 -727 726 -111 29 -287 36
-393 16z"/>
<path d="M4538 3388 c-25 -18 -74 -55 -109 -81 -95 -71 -204 -121 -394 -178
-204 -61 -291 -70 -459 -45 -60 9 -110 15 -112 14 -9 -9 191 -112 261 -134 98
-31 166 -32 300 -4 257 53 428 129 554 245 85 80 110 140 74 183 -31 37 -64
37 -115 0z"/>
<path d="M5713 2521 c-54 -33 -157 -151 -218 -251 -16 -26 244 191 266 222 18
25 19 32 8 39 -19 12 -20 12 -56 -10z"/>
</g>
</svg>
