<?xml version="1.0" standalone="no"?>
<!DOCTYPE svg PUBLIC "-//W3C//DTD SVG 20010904//EN"
 "http://www.w3.org/TR/2001/REC-SVG-20010904/DTD/svg10.dtd">
<svg version="1.0" xmlns="http://www.w3.org/2000/svg"
 width="1000.000000pt" height="1000.000000pt" viewBox="0 0 1000.000000 1000.000000"
 preserveAspectRatio="xMidYMid meet">
<metadata>
  <rdf:RDF
    xmlns:rdf = "http://www.w3.org/1999/02/22-rdf-syntax-ns#"
    xmlns:rdfs = "http://www.w3.org/2000/01/rdf-schema#"
    xmlns:dc = "http://purl.org/dc/elements/1.1/"
    xmlns:cc = "http://creativecommons.org/ns#">
    <cc:license rdf:resource="http://creativecommons.org/publicdomain/zero/1.0/deed.en"/>
    <cc:permits rdf:resource="http://creativecommons.org/ns#Reproduction"/>
    <rdf:Description about="https://nft.mir.one/fingerprints"
      dc:title="TON Fingerprints"
      dc:description="This is a unique digital fingerprint created based on the algorithm for generating basic rings using a noise texture. Like human fingerprints, you can now use it for the Web3 and Metaverse era as digital biometric information."
      dc:publisher="https://nft.mir.one"
      dc:date="2022-02-22"
      dc:format="image/svg+xml"
      dc:language="en" >
      <dc:creator>
      <rdf:Bag>
        <rdf:li>EQBondcvD2_aOFADXSWJHs4ZazQDuEl9_wNvGGPxI8hGuOFU</rdf:li>
        <rdf:li>ipfs://bafkreihj7iub3fhmhq6jn62noukt5wxn3gv6bvcg7wmt6ywvlurefezckq</rdf:li>
      </rdf:Bag>
      </dc:creator>
    </rdf:Description>
  </rdf:RDF>
</metadata>
<rect width="100%" height="100%" fill="#1b1f23"/>
<g transform="translate(0.000000,1000.000000) scale(0.100000,-0.100000)"
fill="#ffffff" stroke="none">
<path d="M4745 7734 c-16 -2 -100 -12 -185 -21 -155 -18 -155 -18 -45 -24 61
-4 177 -7 259 -8 82 0 212 -8 289 -17 150 -17 269 -16 289 4 6 6 10 14 7 16
-2 2 -67 14 -144 26 -130 20 -397 34 -470 24z"/>
<path d="M4590 7563 c-196 -20 -404 -68 -585 -136 -120 -45 -120 -45 -60 -41
33 3 105 12 160 19 365 52 666 53 980 4 72 -11 211 -24 310 -29 99 -5 218 -16
265 -25 103 -20 340 -98 470 -155 92 -40 260 -95 243 -80 -4 4 -84 59 -178
122 -249 167 -472 276 -642 314 -68 15 -83 15 -201 0 -114 -14 -143 -14 -292
-1 -150 13 -381 17 -470 8z"/>
<path d="M4335 7329 c-226 -21 -355 -59 -605 -180 -145 -69 -145 -69 -85 -63
33 3 134 22 225 41 91 19 224 43 295 54 300 46 908 29 929 -26 9 -23 -41 -53
-101 -61 -31 -4 -132 -1 -225 6 -269 21 -496 3 -806 -61 -170 -35 -220 -53
-330 -116 -75 -43 -296 -212 -289 -220 5 -5 104 31 182 67 265 120 704 212
1025 213 145 1 173 -1 230 -21 84 -28 168 -28 324 0 146 26 310 27 471 3 158
-23 517 -100 611 -130 117 -38 287 -126 389 -202 193 -145 243 -222 230 -359
-6 -72 -6 -72 64 -207 84 -161 105 -222 131 -371 21 -126 60 -289 67 -282 2 2
-14 101 -36 220 -31 161 -55 257 -97 378 -30 90 -72 217 -92 283 -60 192 -145
322 -318 484 -165 154 -311 239 -524 304 -232 72 -392 104 -635 127 -138 14
-144 15 -235 56 -42 18 -116 40 -165 49 -108 20 -482 28 -630 14z"/>
<path d="M4500 6889 c-401 -35 -832 -147 -994 -258 -23 -16 -93 -76 -155 -133
-62 -57 -127 -108 -145 -115 -17 -6 -24 -12 -16 -12 9 -1 24 -11 34 -22 23
-28 16 -45 -59 -133 -57 -67 -57 -67 -21 -52 51 21 95 57 155 126 29 33 78 78
109 99 32 22 81 59 110 84 165 137 399 210 927 287 225 33 300 51 314 79 29
53 -50 68 -259 50z"/>
<path d="M5020 6795 c-52 -7 -122 -23 -155 -35 -156 -56 -213 -71 -366 -95
-288 -46 -441 -75 -564 -107 -193 -49 -316 -105 -330 -148 -16 -52 25 -52 233
-1 157 39 241 54 832 150 363 59 449 67 597 52 139 -14 232 -38 355 -90 71
-31 109 -41 149 -41 66 0 110 -20 214 -95 233 -167 464 -375 596 -537 118
-145 162 -188 191 -188 34 0 48 18 48 62 0 93 -93 264 -188 348 -91 79 -346
273 -490 372 -128 87 -172 133 -156 159 19 32 182 -34 329 -133 44 -30 125
-89 180 -133 107 -84 155 -109 186 -100 41 13 8 90 -86 200 -78 92 -266 213
-406 261 -64 21 -91 25 -196 25 -100 -1 -149 5 -264 29 -78 17 -186 37 -240
45 -119 18 -338 18 -469 0z"/>
<path d="M4920 6464 c-249 -23 -785 -97 -1040 -144 -91 -16 -194 -30 -230 -30
-138 0 -232 -46 -467 -227 -81 -63 -152 -119 -156 -123 -17 -16 80 -7 133 12
30 11 120 51 200 88 270 127 336 141 1025 216 503 55 727 50 957 -22 74 -23
89 -32 138 -83 30 -31 107 -102 170 -157 190 -166 282 -277 266 -320 -14 -37
-68 -8 -209 114 -146 126 -276 224 -357 266 -85 45 -210 81 -334 96 -127 16
-405 7 -621 -20 -91 -11 -221 -20 -302 -20 -161 0 -291 -21 -444 -71 -127 -42
-434 -190 -487 -234 -59 -51 -113 -134 -183 -282 -59 -125 -59 -125 -21 -93
20 17 78 71 127 120 186 182 510 355 807 430 96 25 181 24 186 -2 4 -21 -18
-33 -193 -98 -368 -136 -607 -291 -733 -473 -78 -113 -149 -309 -196 -543 -14
-66 -28 -133 -32 -149 -7 -28 -6 -27 28 11 19 21 53 72 76 111 59 100 155 226
200 262 21 16 86 52 144 79 59 28 176 95 260 149 193 126 285 179 430 248 148
70 207 85 335 85 57 0 147 7 201 16 60 10 155 16 247 16 128 0 164 -4 247 -25
175 -46 284 -120 308 -207 9 -34 25 -51 111 -117 210 -163 246 -182 277 -151
18 18 14 74 -8 118 -26 50 -118 150 -245 262 -170 152 -281 214 -465 261 -74
19 -113 22 -300 22 -247 0 -389 -18 -535 -66 -155 -51 -512 -234 -683 -350
-234 -158 -240 -162 -257 -156 -45 18 6 105 112 190 129 103 262 178 543 307
69 31 153 75 188 98 103 67 215 93 485 114 270 21 487 -12 672 -101 112 -55
159 -87 398 -279 201 -160 234 -203 257 -330 11 -63 -4 -221 -36 -367 -8 -38
-22 -145 -29 -237 -8 -93 -24 -205 -36 -250 -35 -138 -101 -265 -188 -361 -34
-38 -229 -177 -375 -268 -350 -217 -844 -100 -1081 255 -108 162 -143 295
-152 572 -6 183 -6 183 23 241 68 135 328 350 554 457 195 92 329 111 544 76
139 -23 145 -23 171 -6 27 18 27 18 0 46 -31 33 -114 72 -206 97 -51 14 -100
18 -239 17 -163 0 -181 -2 -258 -28 -63 -20 -103 -43 -165 -90 -45 -34 -144
-105 -219 -159 -149 -105 -199 -146 -388 -310 -126 -110 -199 -186 -256 -269
-21 -29 -51 -56 -85 -74 -93 -50 -157 -174 -166 -319 -6 -88 -10 -74 86 -304
153 -366 396 -655 710 -845 276 -167 638 -242 986 -206 242 25 406 83 535 189
45 38 120 90 166 116 210 118 404 289 551 488 200 270 265 432 267 667 1 116
-1 128 -24 170 -18 33 -32 46 -51 48 -34 4 -42 -17 -69 -170 -23 -135 -58
-253 -106 -356 -173 -377 -535 -701 -784 -702 -25 0 -82 8 -128 17 -78 16 -88
16 -205 -1 -178 -28 -421 -33 -547 -12 -503 85 -889 478 -949 971 -15 121 -14
170 4 240 24 90 77 148 115 125 11 -7 11 -29 1 -113 -27 -225 30 -464 156
-654 58 -89 188 -219 280 -280 231 -153 522 -207 803 -148 122 26 177 55 335
175 205 156 249 194 319 276 127 149 198 298 290 614 32 107 78 246 102 309
91 234 85 299 -54 590 -49 102 -98 206 -108 231 -32 79 -84 152 -173 243 -109
112 -194 180 -266 213 -31 14 -59 32 -62 40 -3 7 5 25 16 40 12 15 21 35 21
44 0 47 -109 96 -276 125 -86 15 -307 26 -384 19z m-1294 -1909 c11 -17 19
-65 26 -152 13 -163 44 -288 106 -417 179 -375 521 -647 919 -730 187 -40 376
-39 688 0 147 19 219 14 235 -16 8 -16 6 -22 -12 -34 -33 -21 -139 -53 -253
-77 -146 -30 -441 -37 -595 -15 -213 31 -441 124 -624 253 -352 251 -620 735
-576 1044 10 71 27 146 37 162 9 15 33 6 49 -18z"/>
<path d="M5717 6384 c-4 -4 -7 -23 -7 -42 0 -38 11 -50 222 -250 127 -120 171
-174 335 -404 170 -239 265 -348 354 -409 57 -39 119 -104 119 -125 0 -6 -7
-18 -16 -25 -13 -11 -26 -10 -77 3 -72 19 -110 9 -115 -31 -6 -40 6 -64 73
-146 75 -91 143 -222 177 -340 39 -137 28 -405 -23 -563 -31 -94 -210 -353
-377 -544 -132 -152 -261 -257 -502 -409 -182 -115 -231 -142 -325 -178 -422
-163 -942 -139 -1343 63 -183 91 -313 188 -473 352 -108 112 -157 176 -248
324 -28 47 -66 106 -84 131 -22 30 -44 84 -66 160 -41 144 -65 174 -104 131
-28 -30 -31 -77 -14 -215 9 -73 21 -175 27 -227 6 -52 13 -96 16 -99 12 -12
25 21 32 82 16 127 44 114 92 -43 16 -53 44 -118 62 -146 47 -72 349 -370 448
-443 218 -160 445 -256 730 -308 137 -25 496 -24 635 1 290 53 534 153 805
330 122 81 204 146 313 253 111 108 188 209 295 387 47 78 107 173 134 212 54
80 88 167 88 227 0 22 10 103 22 181 40 255 29 555 -27 749 -8 26 -17 86 -20
135 -15 202 -71 307 -220 415 -58 42 -134 119 -267 272 -171 197 -407 414
-553 508 -42 27 -105 44 -118 31z"/>
<path d="M4258 5546 c-100 -35 -263 -125 -443 -243 -397 -262 -516 -360 -623
-515 -110 -161 -130 -251 -138 -613 -4 -208 -3 -226 10 -185 7 25 28 79 46
120 17 41 54 143 82 225 27 83 68 185 90 227 115 222 464 532 913 812 188 117
221 149 189 180 -21 22 -47 20 -126 -8z"/>
<path d="M7071 5384 c0 -11 3 -14 6 -6 3 7 2 16 -1 19 -3 4 -6 -2 -5 -13z"/>
<path d="M4919 5296 c-20 -7 -56 -27 -80 -44 -24 -17 -89 -47 -143 -66 -136
-48 -243 -115 -341 -211 -138 -135 -184 -263 -172 -470 12 -202 72 -340 207
-476 69 -70 101 -94 170 -128 113 -55 208 -75 330 -67 107 6 164 21 251 67 80
43 143 100 168 152 27 56 62 270 63 378 1 258 -97 369 -373 425 -118 24 -228
16 -311 -23 -77 -36 -148 -107 -186 -182 -24 -50 -27 -67 -27 -156 0 -93 2
-105 33 -167 61 -125 175 -194 302 -185 79 5 136 32 182 87 111 129 51 323
-104 338 -37 4 -60 0 -84 -13 -42 -22 -68 -74 -55 -108 11 -28 40 -42 55 -27
15 15 53 12 60 -6 18 -47 -1 -82 -57 -103 -92 -35 -203 85 -182 198 23 124
116 194 260 195 95 0 150 -21 218 -83 69 -63 92 -125 91 -241 -1 -127 -26
-194 -103 -271 -79 -79 -144 -103 -276 -103 -120 0 -184 21 -278 92 -118 90
-186 224 -194 382 -9 167 35 279 154 390 139 131 258 155 523 105 80 -14 189
-31 242 -35 71 -7 119 -18 175 -40 66 -27 93 -32 170 -33 76 -2 95 1 110 15
24 25 21 78 -6 117 -24 34 -295 221 -365 252 -109 47 -349 73 -427 45z m184
-110 c90 -17 174 -52 187 -77 18 -33 12 -49 -18 -49 -47 0 -320 58 -358 76
-31 15 -44 41 -27 57 11 12 139 8 216 -7z"/>
<path d="M6372 4872 c-11 -15 -62 -146 -112 -292 -129 -369 -169 -451 -297
-617 -81 -105 -169 -184 -318 -286 -129 -88 -159 -123 -135 -152 39 -47 230
16 370 123 228 174 389 420 499 761 32 97 66 183 91 224 31 51 40 76 40 112 0
48 -20 108 -47 137 -25 28 -68 23 -91 -10z"/>
<path d="M5523 4748 c-21 -27 -22 -51 -11 -155 14 -123 3 -218 -38 -351 -32
-105 -30 -146 8 -150 41 -5 101 56 147 149 116 232 84 486 -65 515 -19 4 -34
1 -41 -8z"/>
<path d="M6684 3369 c-50 -65 -301 -301 -405 -380 -421 -320 -966 -486 -1482
-450 -279 19 -474 69 -692 177 -212 104 -363 224 -552 435 -89 100 -137 139
-169 139 -1 0 38 -55 88 -122 225 -301 423 -472 703 -608 190 -92 366 -139
600 -161 631 -57 1269 194 1685 663 108 121 284 358 266 358 -2 0 -21 -23 -42
-51z"/>
<path d="M5655 2340 c-13 -5 -14 -9 -5 -9 8 0 24 4 35 9 13 5 14 9 5 9 -8 0
-24 -4 -35 -9z"/>
<path d="M5480 2304 c-191 -38 -282 -46 -595 -53 -271 -6 -291 -7 -210 -16 50
-6 189 -10 310 -9 232 0 307 9 506 59 187 47 180 58 -11 19z"/>
<path d="M4533 2253 c9 -2 23 -2 30 0 6 3 -1 5 -18 5 -16 0 -22 -2 -12 -5z"/>
</g>
</svg>
