<?xml version="1.0" standalone="no"?>
<!DOCTYPE svg PUBLIC "-//W3C//DTD SVG 20010904//EN"
 "http://www.w3.org/TR/2001/REC-SVG-20010904/DTD/svg10.dtd">
<svg version="1.0" xmlns="http://www.w3.org/2000/svg"
 width="1000.000000pt" height="1000.000000pt" viewBox="0 0 1000.000000 1000.000000"
 preserveAspectRatio="xMidYMid meet">
<metadata>
  <rdf:RDF
    xmlns:rdf = "http://www.w3.org/1999/02/22-rdf-syntax-ns#"
    xmlns:rdfs = "http://www.w3.org/2000/01/rdf-schema#"
    xmlns:dc = "http://purl.org/dc/elements/1.1/"
    xmlns:cc = "http://creativecommons.org/ns#">
    <cc:license rdf:resource="http://creativecommons.org/publicdomain/zero/1.0/deed.en"/>
    <cc:permits rdf:resource="http://creativecommons.org/ns#Reproduction"/>
    <rdf:Description about="https://nft.mir.one/fingerprints"
      dc:title="TON Fingerprints"
      dc:description="This is a unique digital fingerprint created based on the algorithm for generating basic rings using a noise texture. Like human fingerprints, you can now use it for the Web3 and Metaverse era as digital biometric information."
      dc:publisher="https://nft.mir.one"
      dc:date="2022-02-22"
      dc:format="image/svg+xml"
      dc:language="en" >
      <dc:creator>
      <rdf:Bag>
        <rdf:li>EQBondcvD2_aOFADXSWJHs4ZazQDuEl9_wNvGGPxI8hGuOFU</rdf:li>
        <rdf:li>ipfs://bafkreihj7iub3fhmhq6jn62noukt5wxn3gv6bvcg7wmt6ywvlurefezckq</rdf:li>
      </rdf:Bag>
      </dc:creator>
    </rdf:Description>
  </rdf:RDF>
</metadata>
<rect width="100%" height="100%" fill="#1b1f23"/>
<g transform="translate(0.000000,1000.000000) scale(0.100000,-0.100000)"
fill="#ffffff" stroke="none">
<path d="M4755 7775 c-104 -24 -221 -50 -260 -57 -56 -9 -65 -13 -45 -19 52
-15 139 -9 221 16 107 31 309 104 289 104 -8 0 -100 -20 -205 -44z"/>
<path d="M5220 7623 c-257 -28 -506 -109 -687 -224 -241 -153 -591 -358 -728
-428 -219 -111 -295 -175 -457 -388 -65 -87 -77 -97 -103 -94 -5 1 -1 -6 9
-14 43 -33 70 -20 231 110 113 91 215 152 260 156 71 6 88 -16 53 -68 -27 -39
-244 -238 -378 -344 -55 -45 -105 -95 -127 -128 -48 -72 -91 -185 -109 -285
-8 -45 -28 -153 -45 -241 -53 -287 -65 -603 -29 -744 11 -42 27 -140 35 -217
30 -262 68 -395 166 -585 144 -279 364 -503 614 -625 152 -74 240 -96 390 -97
180 -1 501 62 679 133 161 64 270 125 401 226 263 202 395 459 420 819 4 55
13 115 21 133 45 110 97 -83 74 -278 -32 -277 -167 -536 -365 -703 -316 -266
-750 -437 -1151 -454 -214 -9 -369 24 -554 117 -275 139 -550 442 -690 761
-79 179 -109 312 -120 541 -8 155 -18 208 -40 208 -16 0 -23 -93 -17 -244 17
-412 197 -872 453 -1154 78 -87 250 -213 369 -272 370 -182 860 -152 1350 84
208 100 513 304 611 407 187 200 307 528 291 798 -7 117 -33 197 -88 270 -23
30 -69 111 -103 180 -34 69 -83 165 -110 213 -35 65 -50 105 -57 154 -5 38
-21 88 -36 117 -32 58 -141 162 -209 199 -65 34 -424 164 -544 195 -111 29
-328 43 -396 24 -61 -16 -108 -52 -112 -84 -4 -35 13 -42 201 -78 218 -41 402
-106 494 -176 18 -13 58 -56 89 -96 31 -40 120 -135 199 -212 78 -77 166 -173
194 -212 39 -54 61 -75 84 -81 43 -11 51 -37 8 -27 -41 9 -41 -10 -2 -59 40
-50 47 -105 33 -246 -13 -131 -40 -242 -84 -348 -153 -368 -582 -642 -1003
-642 -93 0 -93 0 -141 41 -27 22 -98 65 -159 96 -270 136 -403 256 -536 481
-28 48 -71 108 -95 134 -63 67 -86 125 -92 229 -4 74 -1 98 21 165 14 44 33
133 42 199 19 144 44 254 81 355 41 116 147 341 189 404 80 121 204 231 302
269 125 48 514 68 672 33 112 -24 292 -86 416 -144 296 -137 407 -244 548
-527 113 -226 236 -500 267 -595 87 -259 52 -566 -98 -865 -94 -189 -187 -300
-286 -345 -35 -16 -141 -82 -237 -146 -404 -272 -810 -414 -1186 -414 -208 0
-448 48 -563 112 -80 45 -215 138 -295 205 -38 32 -103 82 -144 112 -74 53
-74 53 -10 -25 100 -121 238 -271 336 -366 93 -89 163 -132 260 -161 146 -44
529 -48 716 -8 134 28 219 55 374 117 262 105 464 224 667 393 59 50 114 91
122 91 26 0 28 -32 4 -77 -33 -63 -181 -199 -307 -284 -200 -134 -614 -317
-820 -364 -142 -33 -357 -46 -533 -34 -263 18 -335 22 -330 16 3 -3 64 -30
135 -60 186 -79 329 -110 510 -110 208 -1 296 21 499 122 89 44 233 114 321
156 338 161 564 353 675 575 18 36 68 127 112 203 263 456 331 804 233 1183
-59 224 -270 688 -384 842 -141 190 -294 308 -572 441 -163 78 -302 129 -419
153 -125 26 -325 21 -488 -11 -122 -25 -142 -21 -142 24 0 58 96 122 230 151
115 26 351 23 454 -5 86 -23 386 -160 554 -254 208 -115 370 -250 488 -406
141 -187 364 -713 425 -1001 29 -137 31 -353 5 -485 -53 -270 -232 -669 -428
-951 -87 -126 -148 -195 -251 -280 -174 -146 -321 -232 -592 -344 -175 -73
-218 -100 -213 -135 3 -18 10 -20 78 -19 168 2 513 156 745 333 98 74 262 239
335 336 170 226 303 492 429 857 74 215 85 282 78 458 -10 241 -58 417 -209
775 -47 110 -100 241 -118 290 -64 176 -124 269 -257 401 -153 152 -313 257
-597 393 -175 84 -246 135 -246 178 0 24 3 25 38 20 52 -7 296 -99 427 -161
280 -133 506 -319 704 -579 64 -84 78 -97 103 -97 67 0 126 -57 229 -223 155
-249 255 -459 313 -664 14 -48 37 -119 51 -158 26 -70 26 -70 20 5 -21 259
-65 478 -125 623 -29 70 -108 200 -255 422 -62 93 -371 416 -506 529 -197 166
-342 247 -595 332 -138 47 -184 58 -255 62 -82 4 -91 3 -134 -23 -47 -27 -47
-27 -129 -14 -114 19 -345 17 -499 -5 -121 -17 -133 -17 -197 -2 -64 16 -71
16 -101 0 -54 -27 -127 -102 -233 -239 -55 -71 -141 -179 -191 -240 -160 -195
-241 -341 -308 -552 -74 -234 -101 -430 -101 -748 0 -218 2 -247 22 -319 50
-178 190 -404 352 -567 160 -161 314 -250 522 -302 103 -26 121 -44 69 -71
-66 -35 -225 -8 -374 62 -330 157 -624 541 -701 917 -27 131 -40 300 -40 520
-1 243 12 356 65 575 66 270 140 407 350 645 162 185 202 241 261 363 44 93
59 113 149 201 220 217 469 353 892 486 134 43 265 75 305 75 10 0 31 -13 46
-29 40 -42 97 -64 306 -116 209 -52 440 -126 586 -186 89 -37 204 -72 212 -65
3 4 -200 145 -275 190 -93 56 -279 142 -379 175 -115 39 -194 51 -327 51 -116
0 -130 7 -107 50 18 34 95 63 180 68 64 3 278 -20 388 -44 96 -20 -167 79
-297 112 -80 20 -115 24 -240 22 -80 0 -162 -3 -181 -5z m155 -2082 c87 -40
241 -193 228 -226 -8 -24 -55 -17 -104 14 -68 44 -199 160 -212 187 -9 20 -8
27 4 35 21 13 39 11 84 -10z"/>
<path d="M4385 7572 c-6 -5 -48 -24 -95 -42 -174 -67 -327 -160 -535 -323
-189 -148 -183 -141 -92 -106 44 17 145 68 225 113 81 46 210 115 287 154 157
78 220 121 237 158 9 20 9 28 -3 39 -8 9 -19 11 -24 7z"/>
<path d="M5261 7198 c-45 -8 -91 -41 -91 -65 0 -24 62 -51 179 -79 154 -36
304 -85 409 -135 59 -28 100 -40 127 -40 22 0 63 -4 90 -10 99 -22 366 -162
527 -277 72 -51 81 -61 117 -136 43 -89 136 -191 244 -266 59 -41 59 -41 24 2
-20 24 -74 97 -121 163 -67 92 -86 126 -86 152 0 26 6 36 24 44 24 12 24 12
-19 43 -24 17 -91 73 -147 124 -199 181 -296 230 -692 352 -369 114 -501 143
-585 128z"/>
<path d="M4840 7050 c-292 -63 -537 -217 -528 -330 3 -34 4 -35 44 -33 22 1
94 20 160 42 151 51 243 71 369 78 184 11 507 -38 711 -108 49 -16 126 -36
172 -44 45 -8 93 -20 105 -26 46 -25 253 -162 331 -221 89 -67 509 -482 549
-544 14 -21 31 -61 37 -87 6 -27 22 -70 35 -97 35 -69 166 -239 216 -279 42
-35 42 -35 17 10 -59 103 -198 380 -198 393 0 7 6 16 13 19 19 7 96 -29 131
-61 16 -15 2 9 -33 53 -34 44 -102 132 -150 196 -92 119 -194 233 -366 405
-69 69 -136 124 -215 176 -218 142 -349 220 -366 216 -10 -2 -22 -18 -29 -37
-15 -46 -28 -48 -73 -13 -74 59 -163 95 -437 177 -109 33 -131 44 -190 95 -46
40 -46 40 -133 39 -48 0 -125 -9 -172 -19z"/>
<path d="M4249 5676 c-93 -25 -209 -124 -209 -178 0 -29 24 -69 68 -112 40
-38 40 -38 138 -6 110 37 208 48 272 31 41 -11 43 -14 40 -44 -2 -25 -13 -39
-52 -67 -94 -67 -155 -131 -188 -198 -28 -57 -33 -78 -36 -161 -4 -115 15
-188 72 -274 73 -109 231 -209 360 -226 80 -11 98 -23 73 -49 -14 -13 -35 -17
-105 -17 -88 0 -88 0 -244 78 -85 43 -166 90 -181 105 -40 43 -127 190 -148
250 -30 86 -26 192 12 343 21 82 30 136 25 154 -7 26 -9 27 -54 20 -26 -4 -65
-15 -88 -25 -124 -54 -187 -288 -142 -525 12 -60 15 -117 11 -227 -8 -207 15
-281 128 -424 108 -136 315 -273 514 -339 74 -25 89 -27 200 -23 104 4 134 10
223 40 393 135 653 491 652 897 0 88 -11 125 -42 145 -14 8 -22 6 -38 -10 -15
-15 -26 -54 -44 -165 -48 -286 -146 -466 -329 -605 -266 -202 -586 -205 -863
-8 -162 114 -269 300 -290 504 -5 44 -3 58 10 69 27 22 67 -34 120 -168 81
-206 156 -294 311 -372 311 -155 679 -19 846 313 62 122 106 347 97 496 -6
120 -85 237 -255 386 -95 82 -188 136 -330 190 -50 19 -118 48 -152 65 -33 17
-85 41 -114 52 -28 11 -81 35 -117 53 -87 44 -97 46 -151 32z m676 -537 c67
-25 156 -97 200 -161 167 -248 47 -635 -240 -773 -70 -34 -89 -39 -176 -43
-117 -6 -202 16 -295 76 -94 61 -162 154 -139 192 10 17 23 12 62 -24 157
-140 355 -185 491 -111 74 40 166 140 205 222 27 59 32 79 32 148 0 63 -5 90
-24 128 -61 126 -194 182 -296 124 -105 -60 -115 -232 -17 -290 41 -24 72 -15
72 22 0 48 42 68 73 34 26 -29 30 -68 12 -103 -53 -103 -251 -50 -341 91 -79
126 -64 281 39 387 102 105 208 130 342 81z"/>
<path d="M6402 5668 c-33 -33 -10 -117 98 -348 181 -388 250 -646 251 -934 0
-146 -9 -198 -49 -266 -44 -75 -59 -110 -116 -272 -97 -273 -165 -414 -294
-610 -225 -341 -543 -603 -910 -748 -194 -77 -332 -97 -465 -70 -57 12 -97 12
-240 2 -95 -7 -199 -12 -232 -12 -33 0 -98 -5 -145 -12 -85 -12 -85 -12 85
-39 202 -33 499 -54 645 -46 193 10 386 64 585 164 214 107 383 231 555 409
271 280 458 611 565 1004 20 74 44 146 52 159 15 23 15 23 37 2 19 -20 21 -31
19 -126 -2 -120 -22 -239 -58 -345 -14 -40 -23 -75 -21 -77 7 -7 68 170 98
287 28 107 31 133 40 390 5 151 7 318 3 369 -17 266 -139 593 -367 979 -48 80
-103 152 -117 152 -4 0 -12 -5 -19 -12z"/>
<path d="M2923 5250 c0 -30 2 -43 4 -27 2 15 2 39 0 55 -2 15 -4 2 -4 -28z"/>
<path d="M2912 5155 c0 -16 2 -22 5 -12 2 9 2 23 0 30 -3 6 -5 -1 -5 -18z"/>
<path d="M3695 4717 c-53 -39 -10 -287 50 -287 28 0 38 41 32 129 -9 133 -38
189 -82 158z"/>
<path d="M6746 3475 c-9 -26 -7 -32 5 -12 6 10 9 21 6 23 -2 3 -7 -2 -11 -11z"/>
</g>
</svg>
