<?xml version="1.0" standalone="no"?>
<!DOCTYPE svg PUBLIC "-//W3C//DTD SVG 20010904//EN"
 "http://www.w3.org/TR/2001/REC-SVG-20010904/DTD/svg10.dtd">
<svg version="1.0" xmlns="http://www.w3.org/2000/svg"
 width="1000.000000pt" height="1000.000000pt" viewBox="0 0 1000.000000 1000.000000"
 preserveAspectRatio="xMidYMid meet">
<metadata>
  <rdf:RDF
    xmlns:rdf = "http://www.w3.org/1999/02/22-rdf-syntax-ns#"
    xmlns:rdfs = "http://www.w3.org/2000/01/rdf-schema#"
    xmlns:dc = "http://purl.org/dc/elements/1.1/"
    xmlns:cc = "http://creativecommons.org/ns#">
    <cc:license rdf:resource="http://creativecommons.org/publicdomain/zero/1.0/deed.en"/>
    <cc:permits rdf:resource="http://creativecommons.org/ns#Reproduction"/>
    <rdf:Description about="https://nft.mir.one/fingerprints"
      dc:title="TON Fingerprints"
      dc:description="This is a unique digital fingerprint created based on the algorithm for generating basic rings using a noise texture. Like human fingerprints, you can now use it for the Web3 and Metaverse era as digital biometric information."
      dc:publisher="https://nft.mir.one"
      dc:date="2022-02-22"
      dc:format="image/svg+xml"
      dc:language="en" >
      <dc:creator>
      <rdf:Bag>
        <rdf:li>EQBondcvD2_aOFADXSWJHs4ZazQDuEl9_wNvGGPxI8hGuOFU</rdf:li>
        <rdf:li>ipfs://bafkreihj7iub3fhmhq6jn62noukt5wxn3gv6bvcg7wmt6ywvlurefezckq</rdf:li>
      </rdf:Bag>
      </dc:creator>
    </rdf:Description>
  </rdf:RDF>
</metadata>
<rect width="100%" height="100%" fill="#1b1f23"/>
<g transform="translate(0.000000,1000.000000) scale(0.100000,-0.100000)"
fill="#ffffff" stroke="none">
<path d="M4880 7739 c-193 -18 -399 -48 -515 -74 -60 -13 -60 -13 75 -14 153
-1 395 13 580 34 69 8 193 17 275 21 83 3 168 10 190 14 40 8 40 8 0 9 -22 1
-89 8 -150 16 -137 18 -210 17 -455 -6z"/>
<path d="M4268 7643 c7 -3 16 -2 19 1 4 3 -2 6 -13 5 -11 0 -14 -3 -6 -6z"/>
<path d="M4840 7535 c-334 -22 -549 -61 -770 -140 -70 -25 -343 -155 -337
-161 1 -1 22 1 47 6 181 35 280 51 380 60 63 6 167 17 230 25 246 31 378 36
882 35 536 0 616 -5 728 -45 52 -19 254 -75 257 -71 4 4 -220 133 -297 172
-98 48 -225 91 -330 110 -116 22 -525 26 -790 9z"/>
<path d="M4651 7209 c-63 -5 -189 -22 -281 -39 -147 -27 -174 -29 -220 -19
-136 29 -257 -4 -427 -117 -81 -54 -446 -395 -406 -379 10 3 34 9 53 12 55 9
166 79 250 158 90 84 185 136 354 194 158 55 194 53 159 -9 -22 -39 -68 -66
-220 -131 -154 -67 -208 -98 -218 -129 -21 -67 81 -65 295 5 183 60 210 74
272 141 102 109 208 138 513 138 230 0 389 -21 550 -71 260 -81 831 -473 1100
-754 120 -126 185 -215 322 -438 63 -102 145 -229 183 -281 75 -105 172 -213
147 -163 -8 15 -43 111 -77 213 -160 475 -256 667 -404 808 -136 129 -523 408
-792 572 -65 40 -121 82 -143 109 -83 101 -92 107 -171 125 -240 55 -555 75
-839 55z"/>
<path d="M5733 7202 c-13 -4 -32 -15 -43 -25 -37 -31 -10 -52 203 -156 197
-96 218 -109 434 -274 76 -58 347 -226 388 -240 17 -5 44 -19 60 -31 58 -40
-130 167 -220 243 -152 127 -235 214 -235 244 0 30 -48 65 -195 143 -136 72
-324 118 -392 96z"/>
<path d="M6345 7000 c-8 -13 6 -17 85 -24 65 -5 65 -5 25 14 -44 20 -100 26
-110 10z"/>
<path d="M4508 6890 c-89 -11 -165 -37 -182 -62 -35 -49 8 -66 204 -84 488
-44 768 -130 1075 -332 415 -272 682 -609 724 -916 9 -60 8 -117 -4 -254 -38
-431 -98 -698 -195 -863 -64 -108 -146 -176 -317 -261 -81 -41 -232 -126 -334
-190 -201 -126 -445 -254 -549 -288 -257 -83 -581 -61 -829 56 -261 122 -467
383 -554 699 -18 67 -22 105 -22 240 1 155 2 163 34 257 35 102 103 224 200
360 33 46 69 109 81 140 22 61 79 121 108 116 49 -9 -1 -184 -73 -258 -94 -95
-188 -287 -220 -449 -25 -121 -16 -294 19 -415 93 -311 331 -559 586 -610 132
-26 345 -39 441 -27 153 20 227 48 319 126 30 25 114 75 185 112 137 70 272
152 343 210 36 29 58 66 142 236 136 274 153 340 153 577 0 156 -2 185 -25
271 -77 286 -290 545 -542 659 -95 43 -133 46 -204 16 -51 -22 -184 -46 -254
-46 -25 0 -22 -32 5 -57 37 -35 77 -50 190 -72 198 -39 299 -91 422 -216 121
-122 194 -263 230 -444 23 -114 16 -324 -14 -429 -55 -191 -167 -320 -256
-298 -17 4 -27 15 -30 34 -3 15 -15 45 -27 67 -17 32 -22 65 -28 190 -12 230
-47 344 -145 473 -92 121 -257 208 -326 172 -35 -19 -23 -55 33 -102 212 -177
282 -294 308 -518 6 -52 16 -133 22 -180 21 -169 21 -167 -1 -203 -39 -64
-140 -114 -198 -98 -45 12 -41 52 17 208 28 76 54 163 57 193 11 114 -48 272
-139 375 -73 81 -231 211 -274 225 -91 31 -215 -14 -319 -115 -199 -192 -256
-450 -147 -668 47 -96 177 -227 277 -279 81 -42 120 -54 230 -68 156 -21 225
-53 225 -105 0 -38 -52 -50 -225 -50 -200 0 -212 6 -406 197 -154 152 -192
206 -237 330 -23 64 -26 88 -26 198 -1 199 43 315 198 527 133 181 170 217
252 242 75 24 206 41 309 41 269 -1 492 -170 582 -445 38 -115 44 -308 14
-449 -24 -113 -19 -128 30 -100 79 46 134 215 132 404 -2 208 -72 393 -203
533 -116 124 -223 182 -440 237 -178 46 -272 56 -399 42 -114 -13 -381 -76
-470 -112 -50 -19 -61 -20 -120 -10 -109 19 -234 -18 -346 -103 -84 -64 -187
-194 -225 -286 -16 -38 -47 -42 -56 -6 -24 96 105 299 261 410 98 71 214 119
416 175 259 71 498 118 669 132 145 12 145 12 165 42 27 41 60 55 149 65 41 5
79 12 85 15 21 13 11 45 -22 70 -81 62 -184 71 -361 31 -61 -13 -199 -43 -306
-65 -512 -106 -721 -196 -936 -402 -182 -175 -244 -305 -298 -628 -54 -316
-25 -642 80 -900 39 -97 107 -206 222 -359 57 -75 119 -166 137 -202 57 -112
136 -168 440 -315 328 -157 449 -193 655 -195 122 -1 165 6 254 46 31 14 131
48 223 76 93 28 210 69 261 91 238 104 468 291 668 544 78 98 100 105 97 32
-4 -124 -200 -377 -418 -541 -180 -135 -334 -203 -550 -244 -222 -42 -276 -67
-249 -110 20 -33 73 -42 248 -42 201 -1 248 9 392 80 257 128 549 418 649 644
59 132 69 269 26 353 -27 52 -43 57 -77 21 -15 -16 -48 -36 -73 -46 -68 -25
-132 -68 -271 -184 -298 -248 -487 -355 -810 -457 -358 -114 -617 -91 -987 87
-217 105 -314 187 -475 402 -188 251 -276 448 -309 697 -17 126 -6 314 25 436
30 115 51 156 92 175 47 22 67 41 154 145 92 108 178 176 222 176 44 0 35 -23
-41 -105 -101 -108 -242 -300 -274 -372 -38 -86 -57 -194 -57 -328 0 -258 86
-497 265 -733 164 -218 327 -337 583 -426 156 -54 239 -69 392 -69 222 0 397
46 655 173 156 76 215 112 459 283 222 154 314 201 411 205 73 4 73 4 109 78
85 175 154 429 201 744 58 390 69 436 111 469 52 41 70 4 61 -123 -12 -155
-78 -582 -143 -920 -19 -98 -41 -253 -49 -345 -17 -186 -31 -255 -75 -370
-122 -315 -448 -633 -878 -856 -61 -32 -80 -48 -114 -98 -41 -60 -50 -67 -243
-183 -177 -107 -264 -140 -530 -200 -57 -13 -52 -13 100 -9 201 6 257 15 425
71 175 58 283 111 455 224 585 385 878 720 989 1133 32 117 46 216 96 672 23
204 52 424 66 490 17 84 24 152 24 230 0 119 11 154 44 142 19 -8 66 -105 90
-188 9 -31 37 -87 63 -125 43 -64 76 -141 108 -259 14 -50 14 -50 14 2 1 80
-17 195 -58 358 -54 214 -70 242 -198 361 -157 144 -159 147 -225 279 -122
242 -203 359 -368 529 -194 201 -445 389 -700 524 -172 92 -339 146 -548 177
-121 19 -365 27 -454 15z m-298 -1498 c0 -11 -39 -72 -72 -115 -36 -45 -85
-74 -101 -58 -27 27 49 162 106 186 30 13 67 6 67 -13z m-222 -178 c32 -22 28
-48 -27 -218 -90 -275 -91 -445 -1 -642 56 -123 127 -207 303 -357 58 -49 70
-73 40 -84 -52 -20 -201 64 -296 167 -224 241 -284 560 -168 882 16 46 45 125
63 175 35 98 44 106 86 77z m737 -233 c122 -60 227 -212 241 -348 6 -53 4 -64
-10 -69 -24 -9 -52 20 -93 99 -77 146 -171 213 -285 205 -45 -3 -65 -11 -95
-34 -62 -50 -77 -78 -81 -149 -4 -53 -1 -70 18 -100 53 -86 170 -86 170 1 0
31 -4 37 -36 50 -41 17 -42 37 -2 67 80 60 198 -60 198 -202 0 -135 -141 -194
-288 -121 -71 36 -115 82 -151 160 -21 45 -26 69 -26 135 1 119 52 220 141
285 95 68 190 74 299 21z"/>
<path d="M3980 6619 c-74 -15 -187 -33 -250 -40 -123 -12 -242 -45 -300 -83
-19 -13 -66 -52 -105 -86 -38 -34 -98 -80 -132 -102 -35 -23 -63 -41 -63 -42
0 -1 20 0 45 2 48 4 75 -9 75 -37 0 -10 -27 -57 -61 -107 -34 -49 -84 -127
-111 -174 -28 -47 -60 -101 -71 -120 -19 -32 -15 -29 47 25 77 67 257 260 306
329 40 55 95 95 202 146 143 68 404 130 634 152 221 21 419 -18 419 -82 0 -25
0 -25 -156 -32 -424 -18 -752 -107 -959 -261 -90 -66 -299 -277 -346 -348
-148 -226 -237 -619 -232 -1024 1 -120 1 -120 8 -4 15 227 112 598 196 745
126 221 344 429 569 542 164 83 322 129 625 182 187 32 271 57 334 99 36 23
49 26 125 25 47 -1 131 -10 186 -22 55 -11 121 -23 147 -27 51 -7 72 -19 258
-155 223 -163 332 -265 425 -395 54 -75 115 -197 144 -285 68 -212 68 -514 0
-745 -30 -101 -68 -178 -143 -295 -67 -106 -75 -127 -54 -148 48 -48 202 76
280 224 121 229 182 667 133 947 -50 286 -234 550 -548 785 -252 189 -383 246
-802 347 -418 102 -586 115 -825 64z"/>
<path d="M5070 6172 c0 -25 19 -42 47 -42 25 0 32 27 11 48 -19 19 -58 15 -58
-6z"/>
<path d="M6824 4835 c-17 -27 -17 -28 -49 -520 -36 -557 -65 -706 -183 -940
-153 -306 -406 -574 -829 -877 -71 -51 -175 -127 -230 -168 -55 -41 -108 -81
-119 -88 -48 -33 246 124 328 175 512 316 872 746 1036 1238 90 267 160 828
134 1059 -15 135 -49 181 -88 121z"/>
<path d="M7063 4555 c0 -22 2 -30 4 -17 2 12 2 30 0 40 -3 9 -5 -1 -4 -23z"/>
<path d="M2932 4530 c0 -14 2 -19 5 -12 2 6 2 18 0 25 -3 6 -5 1 -5 -13z"/>
<path d="M2941 4454 c0 -11 3 -14 6 -6 3 7 2 16 -1 19 -3 4 -6 -2 -5 -13z"/>
<path d="M2991 4244 c-1 -18 46 -159 85 -253 102 -247 291 -501 374 -501 50 0
40 38 -32 120 -216 243 -332 411 -398 573 -16 40 -29 67 -29 61z"/>
<path d="M3339 3363 c176 -166 308 -249 528 -332 220 -83 265 -113 212 -142
-37 -19 -143 4 -341 75 -68 24 -145 47 -173 50 -50 7 -50 7 16 -32 36 -21 86
-52 110 -69 61 -42 194 -108 270 -134 48 -16 102 -23 214 -29 369 -19 653 -55
839 -106 50 -13 69 -14 120 -4 75 14 135 40 160 69 20 21 20 22 0 42 -14 14
-42 23 -90 29 -38 5 -109 13 -157 20 -49 6 -119 22 -155 36 -88 33 -124 41
-280 59 -265 31 -329 50 -467 141 -50 33 -144 84 -210 113 -66 30 -185 84
-265 121 -80 37 -197 86 -260 109 -63 24 -126 49 -140 58 -14 8 17 -25 69 -74z"/>
<path d="M3840 2657 c13 -13 316 -133 398 -158 192 -58 379 -79 527 -60 89 12
174 41 196 67 14 17 3 50 -19 60 -9 4 -147 11 -307 15 -199 5 -337 14 -440 29
-82 11 -188 25 -235 30 -47 6 -94 13 -105 17 -11 3 -18 3 -15 0z"/>
</g>
</svg>
