<?xml version="1.0" standalone="no"?>
<!DOCTYPE svg PUBLIC "-//W3C//DTD SVG 20010904//EN"
 "http://www.w3.org/TR/2001/REC-SVG-20010904/DTD/svg10.dtd">
<svg version="1.0" xmlns="http://www.w3.org/2000/svg"
 width="1000.000000pt" height="1000.000000pt" viewBox="0 0 1000.000000 1000.000000"
 preserveAspectRatio="xMidYMid meet">
<metadata>
  <rdf:RDF
    xmlns:rdf = "http://www.w3.org/1999/02/22-rdf-syntax-ns#"
    xmlns:rdfs = "http://www.w3.org/2000/01/rdf-schema#"
    xmlns:dc = "http://purl.org/dc/elements/1.1/"
    xmlns:cc = "http://creativecommons.org/ns#">
    <cc:license rdf:resource="http://creativecommons.org/publicdomain/zero/1.0/deed.en"/>
    <cc:permits rdf:resource="http://creativecommons.org/ns#Reproduction"/>
    <rdf:Description about="https://nft.mir.one/fingerprints"
      dc:title="TON Fingerprints"
      dc:description="This is a unique digital fingerprint created based on the algorithm for generating basic rings using a noise texture. Like human fingerprints, you can now use it for the Web3 and Metaverse era as digital biometric information."
      dc:publisher="https://nft.mir.one"
      dc:date="2022-02-22"
      dc:format="image/svg+xml"
      dc:language="en" >
      <dc:creator>
      <rdf:Bag>
        <rdf:li>EQBondcvD2_aOFADXSWJHs4ZazQDuEl9_wNvGGPxI8hGuOFU</rdf:li>
        <rdf:li>ipfs://bafkreihj7iub3fhmhq6jn62noukt5wxn3gv6bvcg7wmt6ywvlurefezckq</rdf:li>
      </rdf:Bag>
      </dc:creator>
    </rdf:Description>
  </rdf:RDF>
</metadata>
<rect width="100%" height="100%" fill="#1b1f23"/>
<g transform="translate(0.000000,1000.000000) scale(0.100000,-0.100000)"
fill="#ffffff" stroke="none">
<path d="M4876 7684 c-138 -18 -223 -46 -272 -88 -28 -24 -78 -49 -150 -74
-162 -58 -267 -104 -437 -188 -200 -100 -308 -176 -442 -307 -109 -108 -121
-127 -35 -57 114 93 288 180 578 289 285 106 328 116 538 116 135 0 185 -3
197 -13 40 -33 -20 -61 -188 -87 -297 -46 -671 -184 -891 -327 -131 -85 -346
-308 -466 -481 -35 -50 -75 -103 -90 -118 -24 -23 -26 -28 -13 -39 34 -28 88
4 225 136 411 392 674 537 1260 694 63 17 167 55 230 84 248 116 539 142 783
71 91 -26 343 -131 532 -220 116 -55 269 -114 250 -97 -37 34 -305 228 -371
270 -192 120 -380 197 -554 228 -79 14 -124 15 -265 8 -307 -15 -589 -4 -645
26 -35 19 -20 44 35 58 104 26 442 46 765 46 273 -1 309 1 272 12 -65 20 -227
52 -322 63 -115 15 -403 12 -524 -5z"/>
<path d="M4360 7680 c-8 -5 -10 -10 -5 -10 6 0 17 5 25 10 8 5 11 10 5 10 -5
0 -17 -5 -25 -10z"/>
<path d="M5778 7603 c7 -3 16 -2 19 1 4 3 -2 6 -13 5 -11 0 -14 -3 -6 -6z"/>
<path d="M5305 7205 c-33 -7 -87 -24 -120 -38 -84 -34 -187 -67 -430 -136
-279 -79 -395 -120 -544 -192 -239 -115 -392 -223 -600 -424 -349 -338 -378
-400 -388 -830 -4 -150 -1 -267 6 -335 26 -225 84 -436 161 -590 67 -133 101
-165 532 -492 246 -187 586 -354 820 -402 253 -52 506 -16 672 94 177 119 373
397 445 632 71 234 68 510 -7 670 -22 46 -56 84 -172 194 -220 209 -331 271
-462 262 -50 -4 -65 -9 -83 -30 -18 -21 -32 -26 -101 -31 -148 -11 -279 -69
-324 -143 -25 -40 -19 -71 14 -80 13 -3 56 5 97 18 51 15 98 23 150 23 70 -1
84 -4 160 -42 102 -52 165 -104 218 -184 88 -132 104 -283 43 -413 -55 -118
-147 -183 -321 -227 -114 -29 -288 -24 -374 11 -78 31 -147 92 -147 131 0 39
19 38 139 -8 88 -34 105 -37 201 -37 188 -1 311 62 382 197 32 59 32 182 1
249 -30 66 -96 133 -162 165 -132 66 -361 12 -402 -94 -44 -117 65 -252 206
-253 82 0 135 46 123 107 -2 12 -14 19 -33 21 -86 10 -67 92 22 92 97 0 154
-120 103 -219 -62 -123 -213 -155 -416 -90 -126 40 -163 59 -202 104 -65 73
-86 176 -57 285 26 101 125 297 179 353 121 126 353 211 571 209 201 -1 326
-76 569 -340 58 -63 89 -68 94 -13 6 62 -50 154 -162 267 -113 113 -201 171
-323 212 -71 24 -92 26 -228 26 -124 0 -165 -4 -235 -23 -170 -45 -324 -134
-445 -256 -68 -68 -93 -102 -187 -250 -70 -110 -128 -124 -128 -31 0 95 55
221 134 304 156 166 375 301 578 358 127 36 349 45 465 19 155 -34 309 -129
447 -276 129 -137 172 -224 206 -416 11 -65 29 -167 40 -228 24 -135 26 -342
5 -473 -50 -309 -232 -635 -454 -814 -151 -121 -293 -165 -566 -175 -259 -9
-407 27 -690 167 -262 129 -473 263 -628 399 -95 83 -139 99 -158 57 -27 -59
101 -228 235 -309 113 -69 489 -275 626 -344 239 -119 399 -146 698 -120 147
14 198 15 252 6 66 -11 70 -11 132 18 151 71 344 254 472 446 119 178 191 352
237 567 30 141 33 440 6 602 -41 246 -102 430 -182 553 -21 33 -125 146 -230
251 -212 211 -218 215 -381 249 -354 73 -702 -16 -1034 -264 -131 -98 -192
-130 -224 -118 -28 11 -18 35 48 109 177 204 417 341 706 404 129 29 460 27
630 -3 69 -13 169 -27 223 -33 113 -12 196 -37 284 -86 227 -126 448 -397 474
-580 10 -70 41 -237 84 -444 35 -168 45 -266 45 -443 0 -454 -144 -858 -440
-1232 -145 -184 -482 -491 -682 -622 -145 -95 -315 -169 -471 -203 -53 -12
-60 -17 -78 -53 -43 -84 -170 -108 -475 -88 -146 9 -452 48 -534 67 -56 13 74
-41 210 -86 204 -69 373 -96 725 -116 167 -9 225 9 445 139 273 161 331 205
590 441 207 190 294 277 389 391 214 258 376 588 439 900 35 170 45 296 39
489 -7 242 -33 378 -123 659 -48 152 -52 175 -28 184 42 16 120 -112 184 -306
78 -233 105 -429 97 -705 -7 -268 -51 -485 -147 -726 -141 -355 -323 -596
-700 -931 -86 -75 -185 -172 -220 -214 -73 -89 -131 -134 -314 -244 -177 -107
-212 -134 -236 -180 -27 -53 -26 -56 13 -28 17 14 133 74 257 135 238 117 350
184 350 209 0 34 47 88 161 184 174 146 232 202 332 318 340 396 553 945 586
1514 22 382 -48 784 -166 959 -18 28 -64 85 -102 127 -37 42 -107 129 -156
195 -162 218 -314 349 -518 446 -164 78 -381 124 -712 151 -317 25 -608 -30
-867 -163 -278 -142 -455 -351 -419 -494 11 -41 8 -54 -31 -167 -37 -110 -41
-131 -42 -220 0 -98 0 -98 57 -210 31 -61 70 -157 87 -212 50 -163 178 -371
306 -500 103 -103 267 -174 401 -175 43 0 262 37 481 81 68 14 126 58 178 137
63 94 89 185 88 307 0 111 -20 188 -74 283 -49 84 -153 186 -264 259 -106 69
-135 96 -136 127 0 15 5 17 30 12 54 -10 180 -67 242 -109 135 -90 279 -269
319 -395 51 -163 30 -373 -55 -548 -53 -110 -292 -471 -337 -509 -86 -72 -195
-99 -364 -92 -373 18 -771 221 -1147 585 -182 177 -272 331 -332 572 -83 328
-65 681 47 921 130 281 427 561 774 730 233 114 606 219 780 219 43 0 119 -9
168 -20 138 -29 305 -43 441 -35 129 7 197 -1 319 -37 162 -47 440 -186 625
-312 41 -28 98 -60 127 -72 51 -21 51 -21 -58 102 -116 130 -250 249 -359 320
-65 42 -188 97 -372 168 -53 21 -127 56 -164 78 -95 57 -143 77 -230 93 -92
18 -188 18 -269 0z m333 -138 c65 -18 81 -31 66 -55 -22 -35 -374 -24 -431 13
-23 16 -24 18 -8 35 9 10 27 21 39 24 43 9 282 -2 334 -17z"/>
<path d="M4917 6765 c-384 -63 -759 -250 -989 -493 -160 -169 -256 -351 -304
-572 -26 -118 -26 -390 -1 -510 62 -298 167 -484 401 -715 145 -142 271 -235
421 -309 138 -69 229 -99 405 -136 157 -34 242 -37 319 -14 63 18 117 63 108
88 -6 15 -19 17 -125 10 -121 -7 -162 1 -162 30 0 20 19 25 169 46 145 21 174
34 169 79 -3 25 -7 26 -67 29 -82 4 -207 -21 -293 -59 -114 -50 -255 -32 -433
56 -116 57 -199 121 -317 243 -196 205 -335 468 -384 730 -46 246 24 599 161
807 180 273 585 486 1021 536 165 19 558 -7 779 -52 282 -57 536 -191 730
-384 88 -87 283 -350 475 -640 40 -60 70 -101 66 -90 -72 196 -100 266 -166
405 -43 91 -98 208 -122 260 -61 129 -117 200 -216 275 -258 193 -551 319
-806 345 -445 45 -709 56 -839 35z"/>
<path d="M5758 6140 c-41 -25 -15 -60 112 -156 215 -161 340 -358 410 -644 54
-222 65 -316 65 -550 0 -184 -3 -231 -23 -328 -71 -352 -246 -669 -509 -923
-62 -60 -239 -217 -352 -313 -140 -118 -296 -179 -495 -192 -87 -6 -403 4
-751 25 -86 5 -142 3 -200 -7 -136 -23 -257 -2 -424 75 -42 19 -107 48 -146
64 -80 32 -86 40 76 -92 114 -92 193 -140 276 -168 51 -17 87 -21 200 -21 150
0 496 -20 828 -47 193 -15 217 -15 296 -1 195 36 360 130 611 346 386 334 612
670 718 1064 44 166 60 292 60 475 0 191 -16 319 -71 570 -63 290 -106 393
-225 541 -136 171 -386 324 -456 282z"/>
<path d="M3011 5855 c-1 -38 -7 -135 -15 -215 -40 -410 -25 -692 55 -1045 43
-191 76 -286 144 -420 113 -220 268 -442 430 -614 83 -87 125 -119 305 -231
244 -152 223 -145 450 -146 107 0 279 -4 382 -9 206 -9 286 -1 418 41 41 13
96 37 122 53 55 35 86 84 67 107 -17 20 -57 18 -199 -13 -160 -34 -386 -38
-520 -10 -85 18 -187 59 -239 96 -77 55 -560 323 -605 335 -28 8 -70 20 -93
25 -77 20 -205 160 -267 291 -26 56 -30 74 -27 135 1 38 3 87 4 107 1 34 -23
78 -44 78 -18 0 -39 -33 -39 -61 0 -18 -6 -32 -16 -36 -30 -11 -53 29 -73 128
-10 53 -35 147 -56 209 -101 314 -133 510 -145 895 -6 189 -13 285 -24 320
-15 50 -15 50 -15 -20z m858 -2224 c118 -76 218 -137 398 -238 46 -26 86 -70
76 -85 -13 -22 -115 0 -207 46 -98 49 -282 165 -353 223 -70 58 -110 143 -66
143 9 0 78 -40 152 -89z"/>
<path d="M3000 4158 c0 -13 127 -292 181 -400 94 -183 213 -340 339 -444 145
-121 426 -222 469 -170 22 27 -5 50 -145 126 -178 96 -274 167 -404 299 -114
115 -192 213 -268 339 -27 44 -63 98 -79 119 -17 21 -45 60 -62 87 -17 28 -31
47 -31 44z"/>
<path d="M3858 2791 c-15 -5 -39 -19 -54 -30 -15 -12 -34 -21 -43 -21 -10 -1
-5 -7 12 -16 15 -8 32 -25 37 -37 7 -17 9 -18 9 -4 1 9 8 17 16 17 8 0 15 7
15 15 0 24 59 18 188 -19 64 -19 142 -39 172 -45 93 -17 309 -32 491 -34 241
-2 298 17 234 77 -44 41 -75 46 -555 82 -268 20 -487 26 -522 15z"/>
<path d="M5970 2569 c0 -12 24 -16 55 -9 28 6 28 7 -12 11 -24 2 -43 2 -43 -2z"/>
<path d="M4817 2254 c-3 -4 -64 -10 -134 -14 -128 -7 -128 -7 17 -8 104 -1
154 3 175 13 30 13 30 13 -11 14 -22 1 -44 -2 -47 -5z"/>
</g>
</svg>
