<?xml version="1.0" standalone="no"?>
<!DOCTYPE svg PUBLIC "-//W3C//DTD SVG 20010904//EN"
 "http://www.w3.org/TR/2001/REC-SVG-20010904/DTD/svg10.dtd">
<svg version="1.0" xmlns="http://www.w3.org/2000/svg"
 width="1000.000000pt" height="1000.000000pt" viewBox="0 0 1000.000000 1000.000000"
 preserveAspectRatio="xMidYMid meet">
<metadata>
  <rdf:RDF
    xmlns:rdf = "http://www.w3.org/1999/02/22-rdf-syntax-ns#"
    xmlns:rdfs = "http://www.w3.org/2000/01/rdf-schema#"
    xmlns:dc = "http://purl.org/dc/elements/1.1/"
    xmlns:cc = "http://creativecommons.org/ns#">
    <cc:license rdf:resource="http://creativecommons.org/publicdomain/zero/1.0/deed.en"/>
    <cc:permits rdf:resource="http://creativecommons.org/ns#Reproduction"/>
    <rdf:Description about="https://nft.mir.one/fingerprints"
      dc:title="TON Fingerprints"
      dc:description="This is a unique digital fingerprint created based on the algorithm for generating basic rings using a noise texture. Like human fingerprints, you can now use it for the Web3 and Metaverse era as digital biometric information."
      dc:publisher="https://nft.mir.one"
      dc:date="2022-02-22"
      dc:format="image/svg+xml"
      dc:language="en" >
      <dc:creator>
      <rdf:Bag>
        <rdf:li>EQBondcvD2_aOFADXSWJHs4ZazQDuEl9_wNvGGPxI8hGuOFU</rdf:li>
        <rdf:li>ipfs://bafkreihj7iub3fhmhq6jn62noukt5wxn3gv6bvcg7wmt6ywvlurefezckq</rdf:li>
      </rdf:Bag>
      </dc:creator>
    </rdf:Description>
  </rdf:RDF>
</metadata>
<rect width="100%" height="100%" fill="#1b1f23"/>
<g transform="translate(0.000000,1000.000000) scale(0.100000,-0.100000)"
fill="#ffffff" stroke="none">
<path d="M5340 7716 c-19 -10 -93 -15 -295 -19 -363 -8 -621 -45 -850 -123
-55 -19 -89 -31 -75 -28 14 4 138 10 275 14 274 9 451 22 590 46 50 8 146 19
215 24 69 6 143 14 165 20 60 14 179 -4 355 -54 85 -25 156 -43 157 -42 5 5
-272 110 -362 139 -111 35 -145 39 -175 23z"/>
<path d="M5080 7519 c-59 -24 -37 -61 46 -80 51 -11 66 -19 125 -61 15 -11 62
-21 129 -28 238 -26 337 -57 627 -201 185 -92 227 -110 260 -107 31 2 39 7 41
26 2 15 -2 22 -14 22 -9 0 -55 29 -103 64 -119 88 -383 240 -492 282 -49 19
-127 43 -172 54 -153 36 -391 51 -447 29z"/>
<path d="M5981 7443 c-1 -28 35 -53 74 -52 20 1 23 3 10 6 -36 8 -67 27 -76
48 -7 19 -8 19 -8 -2z"/>
<path d="M4212 7411 c-46 -16 -129 -55 -185 -87 -56 -32 -146 -80 -200 -107
-85 -42 -105 -57 -158 -120 -97 -115 -150 -203 -319 -532 -213 -415 -300 -622
-300 -711 0 -44 16 -44 23 1 8 51 120 277 238 482 56 98 149 270 205 383 108
215 167 301 244 358 45 32 214 115 447 218 150 66 162 73 170 103 12 49 -45
54 -165 12z"/>
<path d="M4760 7429 c-99 -11 -218 -38 -255 -57 -16 -8 -53 -36 -81 -61 -33
-31 -117 -81 -240 -145 -366 -190 -422 -241 -551 -501 -27 -55 -102 -183 -165
-285 -63 -102 -161 -268 -218 -370 -56 -102 -120 -204 -141 -226 -43 -48 -75
-137 -108 -304 -50 -255 -56 -327 -55 -675 1 -181 6 -361 11 -400 10 -65 10
-58 12 95 0 91 8 253 16 360 31 416 98 668 225 850 32 47 106 162 164 255 132
214 206 324 285 425 90 114 126 144 207 168 38 12 139 60 224 108 324 181 530
254 863 303 92 14 161 30 210 50 114 47 156 54 285 48 233 -11 477 -109 553
-222 13 -20 68 -70 122 -111 119 -92 184 -156 235 -232 82 -121 108 -188 157
-416 63 -294 65 -424 14 -771 -47 -318 -129 -535 -201 -535 -36 0 -41 39 -24
171 9 68 22 203 31 299 9 110 24 212 40 275 47 182 43 314 -12 470 -35 99 -59
135 -89 135 -42 0 -86 24 -174 97 -163 134 -285 202 -457 256 -169 54 -262 58
-305 15 -20 -20 -22 -20 -97 -4 -140 30 -284 39 -410 26 -420 -43 -830 -273
-1027 -575 -78 -120 -196 -351 -234 -460 -17 -49 -43 -155 -57 -235 -23 -126
-26 -174 -27 -365 -1 -201 1 -227 22 -300 28 -100 239 -528 319 -650 286 -434
687 -679 1226 -750 75 -9 198 -15 340 -15 274 0 325 -8 449 -67 79 -37 104
-45 135 -41 23 4 96 40 188 96 83 49 183 106 222 125 118 60 260 188 399 362
44 55 83 105 87 112 9 14 -64 -24 -141 -74 -186 -121 -472 -178 -472 -95 0 9
29 47 64 84 48 49 68 78 75 110 36 144 34 140 273 495 150 223 217 347 252
463 57 194 79 367 79 620 -1 356 -56 670 -175 998 -22 62 -42 111 -45 109 -2
-3 6 -29 17 -58 76 -192 126 -562 116 -849 -16 -469 -109 -732 -429 -1207 -95
-142 -192 -292 -214 -333 -62 -112 -94 -217 -102 -337 -7 -100 -9 -105 -42
-139 -81 -84 -211 -132 -474 -175 -314 -51 -477 -54 -694 -9 -214 44 -447 144
-618 267 -203 145 -397 384 -522 643 -144 299 -177 503 -130 794 17 106 19
142 11 191 -17 104 4 182 94 354 31 58 69 139 85 179 40 101 71 146 153 227
231 229 595 366 930 352 167 -7 216 -22 461 -144 288 -144 433 -247 530 -375
81 -106 119 -219 80 -234 -21 -9 -40 10 -77 75 -43 78 -184 215 -298 290 -182
120 -448 236 -600 260 -329 53 -747 -88 -994 -335 -128 -127 -106 -208 30
-114 33 23 95 66 139 96 199 138 455 224 667 224 266 0 568 -123 843 -345 182
-146 207 -181 131 -179 -29 1 -74 26 -224 127 -212 143 -358 217 -494 251
-301 76 -578 19 -905 -187 -67 -42 -153 -92 -190 -111 -71 -36 -138 -98 -192
-179 -78 -116 -104 -228 -54 -235 32 -5 54 13 143 118 95 112 153 162 290 253
131 87 298 169 415 203 71 21 119 27 227 31 246 10 369 -34 678 -241 96 -64
225 -142 287 -172 61 -30 126 -69 144 -87 45 -44 78 -123 95 -220 19 -113 33
-383 23 -453 -20 -146 -169 -336 -319 -407 -98 -47 -175 -66 -285 -74 -113 -7
-186 10 -299 71 -44 24 -112 54 -151 66 -341 109 -518 344 -502 668 4 90 9
112 36 167 56 114 178 199 331 231 60 13 110 15 245 10 156 -6 174 -8 224 -32
64 -32 178 -136 221 -205 92 -142 93 -347 4 -482 -41 -62 -112 -125 -204 -179
-103 -62 -140 -94 -140 -125 0 -85 255 -59 408 42 106 71 177 164 218 285 29
85 27 292 -5 383 -47 138 -119 216 -354 386 -62 44 -149 107 -195 140 -135 97
-276 137 -452 127 -316 -18 -642 -209 -913 -534 -130 -156 -161 -240 -161
-427 1 -189 55 -370 170 -577 247 -441 721 -736 1229 -764 164 -10 275 21 275
76 0 30 -30 40 -193 61 -384 49 -653 161 -897 371 -176 152 -322 383 -382 606
-30 114 -30 303 1 392 38 109 89 189 185 288 172 179 393 318 575 363 115 29
306 24 395 -11 63 -24 96 -50 96 -76 0 -18 -9 -18 -180 6 -133 19 -289 -9
-419 -75 -70 -35 -193 -127 -246 -185 -16 -18 -55 -49 -86 -71 -145 -99 -218
-263 -205 -459 7 -112 29 -196 81 -306 152 -325 450 -556 862 -669 68 -19 152
-39 186 -45 108 -19 191 -48 242 -85 44 -31 57 -35 110 -35 161 1 307 82 350
194 13 34 14 48 6 65 -19 34 -56 36 -160 10 -173 -43 -353 -31 -636 42 -510
133 -856 471 -882 861 -7 98 7 185 41 262 29 65 50 84 72 65 14 -11 15 -31 9
-143 -9 -166 8 -254 70 -381 112 -228 320 -385 665 -502 228 -77 524 -83 790
-16 61 15 70 21 155 107 53 53 125 143 175 216 47 68 121 170 165 226 44 57
95 127 113 158 182 300 251 849 161 1290 -62 306 -227 630 -388 765 -59 50
-298 195 -431 262 -246 123 -474 158 -688 105 -53 -14 -175 -36 -270 -51 -276
-42 -392 -78 -641 -200 -168 -82 -255 -136 -378 -231 -84 -65 -109 -76 -120
-48 -20 53 116 197 279 294 131 78 432 226 522 256 105 36 207 52 376 59 161
7 210 16 231 41 19 23 -9 44 -81 61 -34 7 -87 27 -117 43 -61 33 -103 36 -253
19z m724 -1010 c169 -62 324 -138 426 -210 100 -71 238 -205 277 -271 57 -95
80 -236 48 -298 -31 -59 -58 -34 -86 75 -59 238 -227 398 -610 584 -90 43
-174 90 -185 103 -27 29 -40 68 -23 68 7 0 76 -23 153 -51z"/>
<path d="M6460 7011 c5 -11 15 -23 21 -27 6 -3 3 5 -6 20 -20 30 -30 35 -15 7z"/>
<path d="M5254 6960 c-41 -13 -51 -38 -26 -63 15 -14 61 -26 190 -47 94 -16
234 -44 313 -64 161 -41 168 -41 194 -22 18 13 18 15 1 41 -25 38 -144 91
-285 127 -126 32 -327 47 -387 28z"/>
<path d="M6510 6940 c12 -16 24 -30 26 -30 3 0 -4 14 -16 30 -12 17 -24 30
-26 30 -3 0 4 -13 16 -30z"/>
<path d="M4910 6824 c-184 -22 -358 -68 -535 -143 -123 -52 -353 -174 -467
-247 -146 -94 -290 -275 -490 -619 -143 -246 -189 -356 -231 -546 -46 -207
-52 -282 -52 -649 0 -318 2 -354 23 -458 85 -424 407 -964 687 -1152 28 -18
89 -64 136 -102 182 -144 278 -183 549 -223 96 -14 236 -35 310 -47 193 -31
531 -31 674 0 169 36 309 119 351 208 24 50 14 80 -32 94 -21 7 -51 25 -68 41
-53 49 -71 52 -385 60 -191 4 -334 13 -405 23 -438 67 -757 222 -1022 499
-155 162 -253 312 -396 607 -72 149 -93 183 -141 230 -51 50 -58 62 -72 125
-21 97 -30 375 -15 505 31 269 80 435 193 661 141 283 301 495 468 620 162
121 432 248 639 300 184 47 318 56 518 36 92 -9 206 -19 253 -22 122 -9 227
-31 364 -76 203 -67 299 -128 438 -283 51 -55 98 -102 105 -104 21 -5 36 38
29 85 -20 145 -216 345 -378 387 -170 43 -380 88 -538 116 -96 16 -204 39
-240 50 -64 20 -199 32 -270 24z m-1554 -2494 c7 -19 29 -87 49 -150 97 -307
322 -655 551 -854 269 -234 524 -344 959 -413 148 -24 498 -24 677 0 158 21
158 21 158 -2 0 -48 -137 -108 -301 -132 -356 -51 -988 50 -1249 199 -264 151
-470 345 -645 607 -188 282 -315 648 -261 754 22 41 46 37 62 -9z"/>
<path d="M4950 5306 c-140 -38 -223 -119 -256 -249 -51 -196 75 -412 279 -478
124 -40 223 -12 388 110 112 82 155 170 147 296 -10 152 -121 277 -283 319
-70 19 -211 20 -275 2z m231 -133 c91 -40 149 -126 149 -218 0 -47 -4 -60 -26
-81 -24 -25 -26 -25 -44 -9 -10 9 -23 35 -29 58 -34 132 -143 208 -231 161
-30 -16 -35 -24 -35 -54 0 -34 1 -35 37 -32 32 3 39 0 52 -27 22 -42 20 -75
-8 -108 -46 -53 -130 -32 -183 47 -46 66 -21 188 49 240 71 52 181 62 269 23z"/>
<path d="M7060 4593 c0 -6 -17 -33 -38 -60 -21 -26 -53 -75 -72 -108 -57 -101
-184 -284 -277 -398 -115 -141 -173 -224 -173 -246 0 -10 7 -24 15 -31 31 -26
141 26 206 97 44 46 124 176 177 286 50 102 177 456 167 465 -3 3 -5 0 -5 -5z"/>
<path d="M2972 4280 c0 -14 2 -19 5 -12 2 6 2 18 0 25 -3 6 -5 1 -5 -13z"/>
<path d="M3200 3560 c68 -134 189 -327 312 -496 32 -44 72 -105 89 -135 30
-54 30 -54 24 -14 -10 59 -35 101 -154 258 -118 156 -219 304 -257 380 -13 26
-27 47 -29 47 -3 0 4 -18 15 -40z"/>
<path d="M6560 3140 c-8 -5 -37 -17 -65 -26 -53 -18 -153 -84 -222 -147 -56
-51 -109 -135 -95 -149 18 -18 54 3 131 75 128 120 272 257 269 257 -2 0 -10
-5 -18 -10z"/>
<path d="M3745 2910 c-3 -5 10 -33 28 -62 19 -29 46 -75 61 -101 34 -59 135
-141 288 -233 62 -37 146 -90 187 -117 107 -72 221 -122 352 -156 125 -32 276
-57 286 -47 4 3 -5 6 -18 6 -33 0 -196 35 -283 61 -186 54 -319 156 -293 223
5 12 20 10 89 -10 272 -79 373 -99 574 -114 367 -26 713 56 936 222 77 56 108
95 111 135 3 42 -31 41 -84 -1 -209 -167 -362 -219 -679 -233 -168 -7 -319 6
-565 47 -93 15 -191 31 -217 35 -55 7 -115 -7 -152 -36 -26 -20 -26 -20 -120
21 -181 79 -288 161 -390 294 -25 34 -80 76 -98 76 -4 0 -9 -4 -13 -10z"/>
<path d="M4993 2183 c9 -2 23 -2 30 0 6 3 -1 5 -18 5 -16 0 -22 -2 -12 -5z"/>
</g>
</svg>
