<?xml version="1.0" standalone="no"?>
<!DOCTYPE svg PUBLIC "-//W3C//DTD SVG 20010904//EN"
 "http://www.w3.org/TR/2001/REC-SVG-20010904/DTD/svg10.dtd">
<svg version="1.0" xmlns="http://www.w3.org/2000/svg"
 width="1000.000000pt" height="1000.000000pt" viewBox="0 0 1000.000000 1000.000000"
 preserveAspectRatio="xMidYMid meet">
<metadata>
  <rdf:RDF
    xmlns:rdf = "http://www.w3.org/1999/02/22-rdf-syntax-ns#"
    xmlns:rdfs = "http://www.w3.org/2000/01/rdf-schema#"
    xmlns:dc = "http://purl.org/dc/elements/1.1/"
    xmlns:cc = "http://creativecommons.org/ns#">
    <cc:license rdf:resource="http://creativecommons.org/publicdomain/zero/1.0/deed.en"/>
    <cc:permits rdf:resource="http://creativecommons.org/ns#Reproduction"/>
    <rdf:Description about="https://nft.mir.one/fingerprints"
      dc:title="TON Fingerprints"
      dc:description="This is a unique digital fingerprint created based on the algorithm for generating basic rings using a noise texture. Like human fingerprints, you can now use it for the Web3 and Metaverse era as digital biometric information."
      dc:publisher="https://nft.mir.one"
      dc:date="2022-02-22"
      dc:format="image/svg+xml"
      dc:language="en" >
      <dc:creator>
      <rdf:Bag>
        <rdf:li>EQBondcvD2_aOFADXSWJHs4ZazQDuEl9_wNvGGPxI8hGuOFU</rdf:li>
        <rdf:li>ipfs://bafkreihj7iub3fhmhq6jn62noukt5wxn3gv6bvcg7wmt6ywvlurefezckq</rdf:li>
      </rdf:Bag>
      </dc:creator>
    </rdf:Description>
  </rdf:RDF>
</metadata>
<rect width="100%" height="100%" fill="#1b1f23"/>
<g transform="translate(0.000000,1000.000000) scale(0.100000,-0.100000)"
fill="#ffffff" stroke="none">
<path d="M4938 7813 c29 -2 74 -2 100 0 26 2 2 3 -53 3 -55 0 -76 -1 -47 -3z"/>
<path d="M5138 7803 c7 -3 16 -2 19 1 4 3 -2 6 -13 5 -11 0 -14 -3 -6 -6z"/>
<path d="M5188 7793 c7 -3 16 -2 19 1 4 3 -2 6 -13 5 -11 0 -14 -3 -6 -6z"/>
<path d="M5265 7770 c128 -46 256 -118 338 -189 27 -24 37 -41 37 -62 0 -26
-4 -29 -30 -29 -17 0 -83 22 -149 50 -215 90 -427 148 -453 122 -15 -15 -4
-37 26 -57 43 -28 430 -202 522 -235 48 -17 110 -43 138 -58 63 -34 219 -186
317 -312 42 -52 125 -158 186 -235 61 -77 136 -178 167 -223 144 -213 292
-586 395 -997 42 -171 59 -271 71 -425 18 -240 48 -395 96 -496 32 -67 129
-199 121 -164 -9 35 -23 174 -47 450 -34 383 -73 622 -150 930 -34 134 -141
455 -194 585 -102 244 -272 455 -753 931 -253 251 -280 274 -361 317 -48 25
-135 62 -194 82 -107 36 -174 48 -83 15z"/>
<path d="M4490 7610 c-105 -15 -146 -28 -310 -97 -85 -36 -184 -76 -220 -89
-65 -22 -65 -22 20 -17 47 3 148 21 225 39 318 78 499 51 859 -125 125 -62
209 -113 378 -231 203 -142 337 -250 358 -289 14 -27 -4 -44 -44 -43 -42 2
-53 7 -255 120 -122 69 -162 97 -195 137 -95 114 -155 154 -345 231 -190 77
-285 98 -446 98 -132 0 -149 -2 -301 -42 -255 -66 -386 -117 -569 -221 -90
-51 -90 -51 -38 -51 28 0 102 9 165 19 163 28 374 43 435 32 28 -6 79 -26 114
-45 36 -19 104 -44 154 -55 192 -45 429 -103 625 -155 216 -57 301 -90 555
-219 183 -93 244 -152 407 -397 181 -271 256 -427 417 -861 119 -322 116 -317
156 -279 36 34 50 109 36 200 -27 175 -129 495 -236 737 -106 240 -244 463
-399 643 -36 42 -78 108 -116 185 -114 233 -218 316 -705 562 -104 52 -220
116 -257 140 -36 24 -88 51 -115 59 -59 18 -264 26 -353 14z m195 -426 c105
-20 360 -105 455 -152 56 -28 75 -42 75 -57 0 -17 -8 -20 -50 -23 -37 -2 -93
10 -215 47 -200 59 -316 85 -481 106 -68 9 -127 19 -131 21 -16 10 -7 34 18
51 54 35 168 37 329 7z"/>
<path d="M6265 7250 c33 -33 62 -60 64 -60 3 0 -21 27 -54 60 -33 33 -62 60
-64 60 -3 0 21 -27 54 -60z"/>
<path d="M3940 6930 c-224 -17 -306 -44 -452 -148 -110 -78 -204 -155 -183
-149 11 3 36 8 55 12 19 4 76 19 125 35 120 38 272 66 430 80 193 18 374 0
725 -70 324 -65 433 -108 484 -189 22 -35 35 -42 143 -81 235 -85 473 -212
473 -251 0 -11 -11 -24 -26 -31 -34 -16 -105 0 -248 52 -179 66 -245 80 -426
90 -91 5 -239 18 -330 29 -434 53 -683 53 -1035 1 -169 -26 -228 -31 -300 -26
-90 6 -90 6 -136 -31 -26 -21 -74 -68 -109 -105 -62 -68 -62 -68 -35 -78 34
-13 43 -13 112 5 51 13 252 45 568 90 304 43 598 39 1034 -15 348 -43 470 -71
714 -164 163 -62 219 -97 312 -190 96 -98 130 -161 149 -278 14 -85 15 -87
154 -306 208 -325 244 -407 244 -547 0 -126 -50 -243 -121 -279 -26 -14 -30
-22 -40 -98 -43 -308 -113 -527 -233 -724 -131 -219 -369 -482 -563 -625 -119
-88 -332 -222 -432 -272 -147 -74 -187 -81 -475 -82 -141 0 -259 -3 -263 -7
-15 -15 21 -52 78 -79 171 -80 417 -105 672 -68 64 9 76 8 120 -12 61 -27 142
-22 260 15 261 83 495 260 760 577 138 163 164 188 244 229 31 15 66 39 77 51
74 82 117 202 139 385 9 71 29 197 46 279 22 107 32 190 36 292 6 139 5 143
-21 197 -26 52 -26 59 -20 159 7 108 -4 215 -33 337 -19 78 -24 86 -65 94 -51
10 -126 96 -185 211 -28 55 -90 188 -137 295 -121 271 -174 359 -321 524 -82
92 -95 113 -95 153 -1 50 -36 107 -106 172 -57 52 -100 78 -249 151 -243 119
-373 173 -516 215 -255 74 -849 195 -899 183 -3 0 -48 -4 -100 -8z m2660
-2482 c0 -13 -7 -45 -15 -73 -9 -27 -45 -182 -81 -343 -89 -403 -126 -509
-218 -627 -71 -93 -389 -446 -466 -518 -137 -129 -281 -232 -427 -305 -97 -49
-262 -114 -273 -107 -21 13 -9 55 24 87 19 18 92 67 163 110 190 113 293 190
425 316 214 206 394 430 477 592 60 117 88 200 151 446 27 106 61 222 75 259
44 117 96 185 141 185 18 0 24 -6 24 -22z"/>
<path d="M3949 6629 c-180 -10 -415 -56 -492 -95 -73 -37 -157 -123 -157 -161
0 -19 29 -16 158 16 408 103 709 113 1222 40 307 -44 410 -41 410 10 0 41
-151 86 -473 140 -270 46 -476 62 -668 50z"/>
<path d="M4060 6064 c-348 -31 -678 -103 -815 -177 -67 -36 -125 -106 -209
-249 -26 -46 -61 -102 -76 -125 -29 -42 -29 -42 12 -27 22 8 70 36 107 63 235
173 431 259 717 315 201 38 345 49 564 43 478 -14 899 -131 1252 -348 163
-100 228 -125 256 -97 28 28 5 85 -66 160 -242 258 -823 430 -1497 442 -110 2
-220 2 -245 0z"/>
<path d="M4050 5769 c-207 -25 -421 -85 -587 -164 -109 -51 -273 -156 -338
-216 -72 -66 -130 -186 -185 -381 -18 -62 -35 -120 -37 -128 -3 -8 4 0 16 18
12 18 28 35 36 38 8 3 35 34 59 68 198 278 565 503 954 587 126 27 400 37 539
19 498 -62 1057 -360 1262 -674 67 -104 79 -142 61 -209 -17 -66 -16 -142 4
-285 46 -328 3 -484 -231 -840 -183 -278 -400 -473 -666 -597 -207 -96 -367
-129 -602 -123 -147 4 -167 7 -247 35 -48 17 -122 50 -164 74 -90 51 -218 167
-265 240 -28 44 -33 63 -40 144 -4 51 -18 141 -29 201 -31 154 -37 363 -16
545 9 79 20 203 25 274 6 91 15 146 30 185 56 146 241 319 456 427 101 51 183
77 312 97 146 23 171 35 158 75 -11 34 -61 46 -190 45 -149 -2 -271 -31 -419
-102 -177 -85 -280 -163 -466 -356 -47 -49 -118 -115 -158 -148 -91 -74 -166
-179 -192 -268 -29 -97 -40 -246 -29 -417 11 -170 16 -209 18 -138 2 82 48
339 76 420 33 99 64 159 114 223 53 67 86 89 106 72 26 -22 17 -55 -33 -117
-111 -138 -165 -393 -128 -613 22 -134 60 -262 106 -355 37 -75 196 -287 301
-403 116 -127 267 -243 409 -314 83 -42 122 -47 203 -23 29 8 123 19 209 24
282 19 418 60 647 196 343 204 611 492 781 840 94 191 140 389 125 539 -7 73
-55 253 -98 368 -21 54 -23 69 -13 83 8 12 19 15 39 10 47 -12 94 -82 144
-214 32 -85 68 -133 96 -129 26 4 34 34 36 133 2 146 -49 272 -184 455 -149
201 -208 253 -455 401 -337 201 -589 298 -937 360 -135 24 -484 34 -613 18z
m-571 -1434 c7 -25 4 -74 -9 -172 -39 -295 -35 -428 22 -642 43 -165 43 -160
24 -167 -42 -16 -109 97 -142 241 -15 63 -19 119 -19 260 0 193 13 285 61 436
27 87 47 101 63 44z"/>
<path d="M4070 5473 c-273 -47 -567 -196 -772 -392 -160 -152 -210 -233 -254
-416 -24 -101 -74 -367 -70 -372 2 -2 31 54 66 124 78 155 134 241 232 358
315 378 703 578 1088 562 134 -5 163 -13 254 -68 38 -22 123 -63 190 -91 193
-79 308 -150 425 -262 221 -213 317 -491 309 -901 -3 -130 -3 -130 22 -128 36
4 93 72 114 135 39 121 42 241 10 463 -41 283 -102 409 -271 565 -200 183
-584 366 -892 424 -105 20 -334 20 -451 -1z"/>
<path d="M4470 5011 c-195 -30 -251 -56 -436 -205 -233 -186 -295 -295 -355
-620 -43 -236 -35 -449 26 -690 51 -197 120 -281 302 -361 342 -151 530 -144
898 34 290 140 499 370 590 648 17 52 17 52 -17 86 -40 40 -49 67 -83 252 -52
281 -133 458 -285 618 -137 147 -351 259 -485 256 -22 0 -92 -9 -155 -18z
m154 -159 c63 -29 210 -138 269 -201 25 -26 57 -72 72 -100 14 -29 59 -100 99
-159 124 -183 173 -338 164 -524 -5 -91 -8 -105 -48 -185 -76 -154 -238 -286
-398 -323 -68 -16 -107 -8 -206 42 -195 98 -278 173 -346 311 -49 101 -67 169
-75 289 -18 248 53 364 303 492 134 69 164 95 141 122 -16 19 -31 18 -162 -15
-226 -57 -334 -136 -418 -305 -33 -67 -52 -94 -80 -112 -44 -27 -66 -77 -81
-185 -22 -156 18 -358 109 -551 30 -65 53 -125 51 -135 -10 -55 -96 10 -152
116 -93 178 -129 471 -81 677 18 80 84 229 139 318 51 82 142 174 205 205 45
23 284 61 386 61 65 0 85 7 85 30 0 53 -93 76 -243 59 -77 -8 -111 -9 -119 -1
-26 26 24 64 117 89 75 19 209 11 269 -15z m-579 -859 c20 -226 53 -332 151
-480 78 -118 161 -178 297 -218 31 -9 64 -23 72 -32 14 -14 14 -17 -1 -34 -65
-72 -278 -27 -374 77 -53 58 -162 284 -197 409 -25 91 -28 115 -27 260 0 112
4 167 13 184 13 23 13 23 33 3 17 -17 23 -43 33 -169z"/>
<path d="M4591 4459 c-149 -84 -210 -127 -251 -179 -106 -134 -118 -327 -32
-500 73 -146 263 -255 415 -237 114 14 227 99 283 212 26 54 29 70 29 160 0
113 -16 161 -76 230 -46 52 -99 75 -180 75 -81 0 -153 -21 -215 -63 -63 -42
-94 -96 -94 -165 0 -46 4 -58 29 -83 33 -32 62 -37 85 -13 21 20 20 27 -4 49
-26 23 -25 31 5 60 19 20 34 25 74 25 119 0 170 -134 87 -228 -38 -43 -81 -62
-141 -62 -57 0 -100 18 -149 60 -62 55 -81 102 -81 200 0 76 3 91 30 138 54
98 165 175 325 227 77 25 126 51 134 72 8 20 -21 63 -55 80 -50 26 -89 16
-218 -58z"/>
<path d="M6813 4458 c-4 -7 -8 -112 -8 -233 -1 -220 -1 -220 -34 -310 -28 -76
-34 -103 -33 -176 0 -71 4 -95 25 -138 31 -66 37 -53 37 82 0 56 5 118 10 138
11 41 50 82 57 62 3 -7 12 -13 20 -13 13 0 13 3 3 15 -10 13 -10 36 1 123 20
153 18 376 -3 425 -13 28 -23 37 -42 37 -14 0 -28 -6 -33 -12z"/>
<path d="M6381 3132 c-20 -21 -69 -86 -109 -144 -241 -350 -555 -609 -848
-701 -113 -36 -201 -45 -509 -54 -228 -6 -258 -8 -195 -16 41 -4 172 -6 290
-3 299 6 430 36 652 147 285 143 564 402 727 677 70 117 65 171 -8 94z"/>
<path d="M4583 2233 c9 -2 23 -2 30 0 6 3 -1 5 -18 5 -16 0 -22 -2 -12 -5z"/>
</g>
</svg>
