<?xml version="1.0" standalone="no"?>
<!DOCTYPE svg PUBLIC "-//W3C//DTD SVG 20010904//EN"
 "http://www.w3.org/TR/2001/REC-SVG-20010904/DTD/svg10.dtd">
<svg version="1.0" xmlns="http://www.w3.org/2000/svg"
 width="1000.000000pt" height="1000.000000pt" viewBox="0 0 1000.000000 1000.000000"
 preserveAspectRatio="xMidYMid meet">
<metadata>
  <rdf:RDF
    xmlns:rdf = "http://www.w3.org/1999/02/22-rdf-syntax-ns#"
    xmlns:rdfs = "http://www.w3.org/2000/01/rdf-schema#"
    xmlns:dc = "http://purl.org/dc/elements/1.1/"
    xmlns:cc = "http://creativecommons.org/ns#">
    <cc:license rdf:resource="http://creativecommons.org/publicdomain/zero/1.0/deed.en"/>
    <cc:permits rdf:resource="http://creativecommons.org/ns#Reproduction"/>
    <rdf:Description about="https://nft.mir.one/fingerprints"
      dc:title="TON Fingerprints"
      dc:description="This is a unique digital fingerprint created based on the algorithm for generating basic rings using a noise texture. Like human fingerprints, you can now use it for the Web3 and Metaverse era as digital biometric information."
      dc:publisher="https://nft.mir.one"
      dc:date="2022-02-22"
      dc:format="image/svg+xml"
      dc:language="en" >
      <dc:creator>
      <rdf:Bag>
        <rdf:li>EQBondcvD2_aOFADXSWJHs4ZazQDuEl9_wNvGGPxI8hGuOFU</rdf:li>
        <rdf:li>ipfs://bafkreihj7iub3fhmhq6jn62noukt5wxn3gv6bvcg7wmt6ywvlurefezckq</rdf:li>
      </rdf:Bag>
      </dc:creator>
    </rdf:Description>
  </rdf:RDF>
</metadata>
<rect width="100%" height="100%" fill="#1b1f23"/>
<g transform="translate(0.000000,1000.000000) scale(0.100000,-0.100000)"
fill="#ffffff" stroke="none">
<path d="M4918 7645 c-4 -4 -96 -9 -205 -10 -186 -2 -203 -3 -283 -29 -168
-55 -388 -182 -595 -343 -82 -64 -365 -319 -365 -329 0 -2 33 20 73 49 252
183 595 392 778 473 113 50 255 94 304 94 44 0 62 -22 45 -54 -19 -36 -58 -62
-240 -157 -428 -224 -518 -273 -589 -322 -95 -65 -255 -224 -343 -342 -67 -89
-68 -91 -68 -152 0 -72 0 -74 -102 -264 -59 -110 -88 -154 -119 -179 -51 -41
-100 -139 -165 -334 -87 -262 -109 -422 -101 -731 6 -213 23 -360 67 -554 11
-51 19 -112 18 -134 -3 -34 -7 -42 -28 -47 -21 -5 -23 -7 -9 -16 38 -21 104
-116 161 -229 33 -66 84 -157 114 -202 91 -137 252 -271 474 -395 63 -35 144
-87 180 -116 98 -79 227 -117 260 -77 22 26 -14 62 -110 110 -94 47 -109 67
-66 86 37 17 131 -3 248 -55 125 -54 191 -71 326 -85 126 -13 171 -7 242 33
55 31 55 31 435 31 209 0 396 3 415 7 19 4 134 24 255 43 121 20 234 42 250
49 22 10 47 43 94 122 129 219 151 251 246 364 232 276 264 324 313 475 49
149 65 268 65 465 -1 191 -20 328 -68 495 -58 200 -153 399 -245 513 -74 90
-170 128 -170 67 0 -13 38 -100 83 -193 140 -283 203 -512 214 -772 13 -311
-57 -569 -221 -810 -79 -114 -235 -310 -315 -394 -133 -139 -265 -203 -531
-258 -79 -16 -160 -21 -495 -28 -456 -10 -553 -5 -735 42 -122 31 -130 32
-355 32 -230 1 -230 1 -305 37 -140 67 -276 191 -377 341 -83 124 -93 167 -93
397 0 108 -7 268 -15 356 -20 210 -19 516 0 654 14 94 111 510 166 710 26 97
188 446 247 535 58 87 208 241 285 291 40 27 72 39 107 43 83 8 77 -12 -41
-136 -105 -110 -184 -212 -257 -332 -90 -149 -214 -392 -242 -474 -38 -110
-103 -376 -131 -531 -30 -169 -36 -493 -15 -755 9 -108 16 -243 16 -300 1
-176 32 -302 103 -413 102 -158 283 -305 380 -309 88 -3 76 30 -56 153 -223
210 -318 411 -272 575 16 58 16 68 -5 230 -27 213 -37 529 -21 686 23 238 88
538 143 658 32 72 66 113 109 130 23 10 45 44 113 176 47 90 130 237 184 328
90 149 108 188 127 281 12 56 126 141 435 327 212 127 256 150 340 176 158 48
390 54 556 13 107 -26 422 -132 554 -185 58 -24 127 -48 154 -55 27 -7 63 -19
80 -28 49 -24 20 -1 -94 74 -152 101 -240 149 -475 262 -279 133 -314 142
-605 148 -124 3 -228 2 -232 -2z m-1637 -1619 c3 -58 -7 -102 -67 -288 -98
-307 -109 -375 -109 -658 1 -194 5 -264 25 -400 27 -183 32 -380 12 -417 -15
-28 -36 -29 -61 -4 -15 15 -17 30 -14 92 4 56 -3 112 -27 233 -79 398 -81 701
-8 951 34 118 181 476 210 512 14 17 38 4 39 -21z"/>
<path d="M5186 7249 c-192 -25 -438 -125 -639 -261 -155 -105 -303 -293 -373
-476 -21 -54 -63 -149 -95 -212 -67 -133 -85 -191 -99 -314 -9 -88 -9 -102 11
-181 8 -33 6 -61 -14 -150 -40 -177 -50 -266 -44 -403 6 -145 27 -238 76 -327
39 -73 243 -348 329 -444 119 -133 359 -301 460 -322 67 -14 266 1 409 30 325
67 569 293 654 606 28 104 31 305 6 409 -34 135 -107 286 -174 358 -22 23 -29
25 -55 16 -39 -14 -72 -6 -205 48 -233 94 -367 97 -569 13 -80 -33 -104 -33
-104 2 0 57 98 135 215 171 190 59 407 7 610 -147 94 -71 108 -70 107 6 -2
140 -241 308 -481 338 -200 25 -418 -50 -523 -179 -15 -20 -58 -103 -94 -185
-36 -83 -81 -184 -99 -225 -19 -41 -50 -131 -70 -199 -20 -68 -43 -138 -52
-154 -47 -91 35 -285 192 -456 22 -24 86 -79 141 -122 109 -85 126 -106 98
-126 -28 -20 -56 -16 -133 23 -84 42 -222 167 -304 278 -71 93 -223 354 -255
436 -23 58 -26 80 -26 195 -1 149 14 219 69 330 63 127 205 268 284 280 53 9
68 17 156 80 327 234 682 247 993 37 92 -63 193 -178 246 -281 54 -104 126
-281 155 -378 167 -564 -86 -1089 -612 -1269 -40 -14 -150 -40 -245 -59 -95
-19 -201 -46 -235 -61 -129 -54 -139 -56 -257 -58 -188 -2 -270 40 -465 238
-238 240 -375 487 -325 582 21 37 36 29 61 -33 133 -333 570 -742 688 -646 38
31 20 56 -104 144 -140 100 -259 221 -393 400 -104 140 -134 168 -187 178 -27
6 -32 14 -57 86 -65 194 -73 444 -24 755 53 337 49 501 -12 464 -27 -16 -51
-74 -82 -196 -40 -161 -79 -401 -89 -558 -15 -230 17 -631 60 -746 25 -66 167
-283 268 -409 92 -115 342 -369 401 -407 64 -41 178 -73 385 -108 219 -37 387
-46 559 -31 430 40 676 166 911 466 243 311 337 580 322 925 -9 210 -43 367
-128 590 -91 237 -92 241 -93 326 -1 101 -17 127 -160 269 -130 128 -255 217
-434 307 -79 39 -155 80 -168 90 -71 56 26 87 161 53 81 -21 251 -104 354
-173 101 -68 508 -416 576 -492 163 -184 283 -461 361 -835 35 -169 38 -191
38 -360 0 -254 -30 -404 -112 -565 -63 -123 -74 -137 -167 -200 -69 -47 -196
-171 -267 -260 -85 -107 -91 -175 -13 -156 40 10 154 115 225 207 101 130 112
140 152 133 18 -4 39 -14 46 -23 11 -14 12 -10 7 24 -5 31 2 71 34 175 79 263
111 478 111 742 0 487 -129 966 -343 1277 -77 111 -343 353 -512 466 -205 137
-399 213 -568 222 -123 6 -441 -20 -579 -47 -197 -41 -371 -118 -556 -248
-166 -116 -213 -135 -220 -87 -6 45 130 200 263 300 134 101 374 204 562 242
125 25 461 25 586 0 255 -52 513 -176 726 -351 41 -33 129 -112 195 -176 104
-99 144 -133 226 -194 25 -19 -210 311 -296 414 -81 98 -222 234 -306 293
-123 88 -354 178 -589 231 -196 44 -335 54 -483 35z m169 -708 c51 -17 180
-93 398 -235 138 -90 290 -234 345 -328 49 -83 105 -218 167 -402 65 -191 90
-300 106 -459 36 -359 -89 -718 -345 -985 -107 -112 -189 -173 -311 -233 -177
-85 -381 -131 -600 -132 -110 -1 -136 2 -170 18 -39 19 -56 48 -38 65 4 5 78
16 163 25 241 25 412 67 545 132 162 81 327 229 429 384 232 357 242 789 29
1287 -119 280 -276 450 -544 591 -295 155 -539 147 -889 -27 -211 -106 -286
-165 -483 -380 -33 -36 -55 -52 -72 -52 -33 0 -32 19 5 109 41 101 95 186 160
255 69 73 83 82 327 205 248 125 356 161 548 185 54 7 179 -6 230 -23z m-115
-1017 c94 -22 238 -95 302 -153 99 -90 151 -223 152 -381 1 -116 -14 -179 -66
-290 -82 -171 -264 -311 -445 -341 -120 -20 -223 23 -223 92 0 38 13 43 69 29
107 -25 253 31 362 139 207 208 197 535 -22 696 -81 60 -155 86 -259 92 -232
14 -387 -94 -430 -301 -29 -142 45 -297 173 -360 170 -85 390 73 346 249 -28
113 -153 162 -225 90 -42 -42 -22 -98 30 -88 52 10 47 -66 -6 -93 -44 -23 -98
-6 -135 43 -24 31 -28 46 -28 99 0 53 4 69 30 105 69 98 201 127 321 70 108
-51 164 -143 164 -267 0 -145 -76 -249 -243 -335 -56 -28 -113 -60 -126 -71
-36 -28 -60 -22 -145 33 -190 125 -296 284 -296 443 0 122 73 314 150 393 55
58 83 70 213 98 131 28 246 31 337 9z"/>
<path d="M3311 6521 c-28 -31 -143 -207 -195 -300 -18 -33 126 130 182 206 32
43 66 84 75 92 24 19 21 41 -5 41 -12 0 -37 -17 -57 -39z"/>
<path d="M4448 5824 c-41 -22 -124 -137 -173 -239 -51 -105 -75 -205 -75 -307
0 -88 13 -139 45 -175 22 -27 24 -27 43 -10 15 14 23 42 32 115 18 147 43 230
114 380 74 158 90 206 75 233 -12 23 -25 23 -61 3z"/>
<path d="M3624 4406 c-13 -52 51 -206 134 -321 27 -38 85 -108 127 -155 43
-47 94 -109 113 -138 39 -58 91 -92 141 -92 44 0 61 10 61 35 0 26 -16 47
-135 180 -143 159 -184 210 -259 326 -91 139 -132 189 -157 189 -11 0 -21 -9
-25 -24z"/>
<path d="M6835 3743 c-22 -14 -75 -57 -117 -94 -91 -79 -139 -109 -228 -138
-92 -30 -188 -102 -263 -195 -29 -36 -29 -36 -130 -36 -56 0 -169 -9 -252 -20
-249 -34 -388 -37 -535 -10 -89 16 -169 22 -280 23 -180 2 -213 -4 -208 -36 6
-41 62 -57 254 -73 97 -8 188 -20 203 -27 34 -16 39 -43 9 -53 -44 -16 -352
-6 -485 16 -181 29 -517 52 -583 40 -162 -31 -274 6 -568 187 -156 97 -259
172 -347 254 -40 37 -145 112 -151 107 -1 -2 43 -64 99 -138 117 -156 289
-331 400 -408 130 -90 300 -157 474 -187 102 -18 502 -20 603 -4 36 6 173 14
305 18 240 8 240 8 314 40 89 38 300 78 465 87 75 5 133 15 180 31 82 27 136
30 136 8 0 -26 -26 -68 -65 -105 -21 -19 -70 -76 -111 -126 -94 -118 -173
-177 -359 -269 -272 -134 -451 -177 -658 -155 -171 17 -401 76 -481 122 -51
30 -84 74 -68 90 15 15 76 3 302 -59 146 -40 181 -46 299 -50 182 -8 255 9
342 79 20 16 89 49 153 73 229 87 371 176 364 227 -5 41 -65 35 -265 -23 -178
-52 -178 -52 -463 -59 -157 -3 -293 -10 -303 -14 -26 -12 -17 -48 16 -64 18
-9 99 -18 215 -24 195 -11 232 -17 232 -43 0 -25 -47 -36 -170 -42 -155 -7
-245 8 -342 57 -131 67 -282 74 -389 20 -49 -26 -70 -23 -252 26 -152 42 -269
85 -432 160 -180 83 -211 97 -200 87 26 -24 168 -135 235 -185 106 -78 223
-144 459 -263 289 -144 418 -186 674 -220 149 -19 232 -19 366 0 162 24 273
58 416 130 168 84 292 174 426 307 116 116 180 204 233 320 36 79 47 91 146
160 81 57 218 197 295 303 33 44 77 101 98 128 21 26 37 47 35 46 -1 0 -21
-12 -43 -26z"/>
<path d="M6449 2963 c-13 -16 -12 -17 4 -4 9 7 17 15 17 17 0 8 -8 3 -21 -13z"/>
<path d="M6384 2888 c-19 -23 -19 -23 4 -4 12 11 22 21 22 23 0 8 -8 2 -26
-19z"/>
<path d="M6324 2818 c-19 -23 -19 -23 4 -4 12 11 22 21 22 23 0 8 -8 2 -26
-19z"/>
<path d="M6139 2633 c-13 -16 -12 -17 4 -4 16 13 21 21 13 21 -2 0 -10 -8 -17
-17z"/>
<path d="M4391 2315 c11 -10 214 -56 334 -75 72 -11 170 -27 218 -36 48 -9 91
-14 94 -10 3 3 -3 6 -14 6 -11 0 -40 7 -64 16 -24 8 -129 29 -234 45 -104 16
-218 36 -253 44 -65 15 -89 18 -81 10z"/>
<path d="M5358 2233 c6 -2 18 -2 25 0 6 3 1 5 -13 5 -14 0 -19 -2 -12 -5z"/>
<path d="M5298 2223 c6 -2 18 -2 25 0 6 3 1 5 -13 5 -14 0 -19 -2 -12 -5z"/>
<path d="M5248 2213 c6 -2 18 -2 25 0 6 3 1 5 -13 5 -14 0 -19 -2 -12 -5z"/>
<path d="M5188 2203 c6 -2 18 -2 25 0 6 3 1 5 -13 5 -14 0 -19 -2 -12 -5z"/>
<path d="M5123 2193 c9 -2 25 -2 35 0 9 3 1 5 -18 5 -19 0 -27 -2 -17 -5z"/>
</g>
</svg>
