<?xml version="1.0" standalone="no"?>
<!DOCTYPE svg PUBLIC "-//W3C//DTD SVG 20010904//EN"
 "http://www.w3.org/TR/2001/REC-SVG-20010904/DTD/svg10.dtd">
<svg version="1.0" xmlns="http://www.w3.org/2000/svg"
 width="1000.000000pt" height="1000.000000pt" viewBox="0 0 1000.000000 1000.000000"
 preserveAspectRatio="xMidYMid meet">
<metadata>
  <rdf:RDF
    xmlns:rdf = "http://www.w3.org/1999/02/22-rdf-syntax-ns#"
    xmlns:rdfs = "http://www.w3.org/2000/01/rdf-schema#"
    xmlns:dc = "http://purl.org/dc/elements/1.1/"
    xmlns:cc = "http://creativecommons.org/ns#">
    <cc:license rdf:resource="http://creativecommons.org/publicdomain/zero/1.0/deed.en"/>
    <cc:permits rdf:resource="http://creativecommons.org/ns#Reproduction"/>
    <rdf:Description about="https://nft.mir.one/fingerprints"
      dc:title="TON Fingerprints"
      dc:description="This is a unique digital fingerprint created based on the algorithm for generating basic rings using a noise texture. Like human fingerprints, you can now use it for the Web3 and Metaverse era as digital biometric information."
      dc:publisher="https://nft.mir.one"
      dc:date="2022-02-22"
      dc:format="image/svg+xml"
      dc:language="en" >
      <dc:creator>
      <rdf:Bag>
        <rdf:li>EQBondcvD2_aOFADXSWJHs4ZazQDuEl9_wNvGGPxI8hGuOFU</rdf:li>
        <rdf:li>ipfs://bafkreihj7iub3fhmhq6jn62noukt5wxn3gv6bvcg7wmt6ywvlurefezckq</rdf:li>
      </rdf:Bag>
      </dc:creator>
    </rdf:Description>
  </rdf:RDF>
</metadata>
<rect width="100%" height="100%" fill="#1b1f23"/>
<g transform="translate(0.000000,1000.000000) scale(0.100000,-0.100000)"
fill="#ffffff" stroke="none">
<path d="M5008 7813 c12 -2 30 -2 40 0 9 3 -1 5 -23 4 -22 0 -30 -2 -17 -4z"/>
<path d="M4770 7790 c-63 -11 -133 -24 -155 -29 -40 -11 -40 -11 5 -5 139 18
339 52 305 52 -22 0 -92 -8 -155 -18z"/>
<path d="M4548 7743 c7 -3 16 -2 19 1 4 3 -2 6 -13 5 -11 0 -14 -3 -6 -6z"/>
<path d="M4498 7733 c7 -3 16 -2 19 1 4 3 -2 6 -13 5 -11 0 -14 -3 -6 -6z"/>
<path d="M5000 7633 c-195 -13 -410 -54 -630 -118 -280 -81 -356 -121 -530
-277 -226 -202 -383 -411 -634 -843 -87 -150 -87 -150 -16 -72 78 84 240 291
377 482 117 163 163 215 257 292 45 36 116 102 159 145 100 103 135 118 291
128 74 5 172 20 251 39 303 71 539 97 820 88 214 -6 324 -23 500 -74 104 -31
274 -67 282 -60 5 5 -359 169 -428 192 -179 61 -474 94 -699 78z"/>
<path d="M5074 7360 c-206 -14 -456 -63 -605 -119 -31 -12 -97 -48 -147 -80
-55 -35 -120 -67 -164 -80 -129 -40 -182 -61 -233 -95 -61 -40 -129 -105 -155
-149 -21 -34 -27 -102 -9 -112 12 -8 80 25 213 104 116 68 507 241 633 280
324 100 714 119 1054 51 97 -20 136 -31 404 -113 276 -84 431 -124 442 -113 9
8 -265 178 -386 238 -141 72 -265 115 -421 147 -191 40 -421 55 -626 41z"/>
<path d="M4136 7260 c-54 -27 -66 -39 -66 -66 0 -21 4 -24 41 -24 73 0 166 65
144 100 -10 16 -77 11 -119 -10z"/>
<path d="M5100 7063 c-320 -23 -601 -109 -978 -297 -169 -84 -235 -108 -300
-106 -32 1 -65 1 -75 1 -39 -2 -335 -315 -449 -476 -108 -153 -217 -370 -272
-545 -132 -416 -148 -840 -46 -1236 33 -126 64 -201 119 -289 22 -34 67 -117
101 -186 156 -310 287 -523 462 -749 123 -158 174 -212 306 -319 53 -43 121
-104 149 -135 41 -44 73 -66 140 -98 49 -22 152 -71 230 -109 161 -77 234 -95
348 -85 211 19 529 151 760 314 106 76 325 294 413 412 59 79 263 405 348 555
60 106 94 282 94 486 0 421 -96 784 -270 1018 -104 140 -302 309 -435 372 -72
33 -602 194 -695 211 -95 16 -257 5 -364 -27 -263 -77 -438 -234 -513 -459
-23 -70 -27 -98 -27 -211 -1 -155 13 -218 81 -355 39 -80 60 -109 137 -185 98
-97 180 -149 290 -180 87 -25 214 -17 282 17 103 54 165 163 149 266 -16 108
-95 214 -170 228 -94 17 -233 -16 -254 -62 -47 -105 87 -257 175 -199 22 14
25 21 19 54 -7 44 9 58 49 39 55 -25 58 -114 6 -167 -40 -40 -90 -55 -161 -48
-195 17 -354 245 -387 555 -11 100 0 179 36 256 75 160 248 273 467 306 234
35 641 -80 871 -246 43 -32 117 -84 164 -115 47 -31 104 -76 127 -100 118
-125 182 -327 203 -649 9 -140 16 -179 42 -255 28 -82 30 -98 25 -176 -9 -117
-47 -243 -118 -382 -192 -381 -434 -665 -717 -844 -117 -73 -236 -129 -422
-198 -233 -86 -333 -86 -462 -2 -35 22 -103 57 -151 78 -221 95 -382 215 -515
384 -31 39 -83 102 -117 140 -102 115 -173 222 -247 370 -86 172 -196 337
-375 559 -77 95 -103 139 -150 248 -84 196 -115 388 -94 583 14 136 89 367
167 514 118 223 335 513 528 707 143 143 183 171 450 314 386 207 586 280 881
326 346 52 858 -14 983 -129 29 -27 28 -45 -3 -57 -25 -10 -47 -7 -305 42
-135 25 -485 36 -615 19 -229 -30 -404 -81 -590 -170 -118 -57 -423 -252 -540
-346 -190 -152 -350 -347 -510 -620 -32 -55 -84 -134 -115 -175 -32 -41 -67
-93 -78 -115 -106 -213 -103 -555 7 -842 54 -138 193 -341 345 -500 101 -108
118 -116 256 -125 71 -4 163 -18 240 -37 252 -62 402 -64 585 -8 44 13 119 34
166 45 47 11 111 32 142 46 79 38 154 108 167 157 8 29 31 59 90 115 135 130
182 226 182 374 0 139 -47 256 -136 338 -46 42 -84 59 -111 48 -24 -9 -18 -33
29 -125 76 -149 83 -254 25 -371 -51 -100 -132 -155 -272 -184 -137 -29 -226
-18 -371 45 -283 124 -453 312 -528 584 -32 118 -32 338 0 449 77 269 266 456
555 550 192 63 475 91 542 55 17 -9 55 -30 85 -47 73 -40 369 -133 445 -139
44 -3 65 -1 80 10 20 15 20 16 -3 40 -54 58 -215 122 -401 161 -62 14 -118 29
-124 35 -8 8 -5 17 11 34 20 20 32 22 120 22 222 -1 442 -121 442 -242 0 -24
14 -39 98 -101 385 -285 589 -580 701 -1015 46 -178 52 -265 36 -510 -16 -232
-24 -298 -57 -460 -21 -108 -21 -108 2 -149 19 -34 22 -50 18 -112 -8 -104
-49 -216 -163 -441 -102 -202 -134 -256 -189 -330 -17 -22 -22 -33 -12 -26 24
20 172 218 231 311 74 115 160 285 195 385 32 92 94 382 105 490 3 33 10 137
14 230 6 127 12 179 25 203 18 35 51 43 60 15 17 -59 28 -170 36 -360 5 -118
10 -217 13 -219 5 -5 45 270 53 366 10 116 -9 208 -58 281 -32 47 -55 105
-100 253 -120 386 -224 603 -396 826 -36 47 -186 205 -333 351 -287 285 -321
312 -469 357 -87 26 -238 45 -303 38 -200 -24 -864 -154 -947 -185 -230 -87
-438 -322 -512 -578 -21 -70 -23 -99 -22 -273 1 -177 3 -204 27 -293 48 -181
137 -336 255 -445 97 -89 197 -148 356 -209 128 -50 165 -70 179 -100 11 -25
12 -25 97 -20 47 2 135 14 196 26 85 17 117 19 138 11 15 -5 26 -16 24 -23 -8
-26 -161 -89 -348 -143 -187 -55 -200 -57 -315 -58 -138 0 -230 16 -408 75
-164 53 -245 98 -342 191 -160 151 -273 354 -321 578 -49 231 -13 567 63 578
37 5 46 -31 55 -218 14 -314 66 -500 191 -685 54 -80 148 -178 222 -230 219
-156 588 -241 714 -164 47 29 38 52 -24 62 -190 30 -339 78 -450 145 -297 177
-439 440 -475 876 -22 276 -11 373 55 514 100 212 292 410 546 561 77 46 88
56 104 97 34 90 139 160 337 225 302 98 636 118 1003 59 66 -10 174 -26 240
-34 145 -19 185 -32 342 -106 271 -129 422 -235 617 -434 138 -141 138 -141
72 -11 -84 163 -158 265 -261 363 -69 65 -107 91 -250 167 -196 104 -275 169
-275 223 0 18 6 35 13 37 6 3 122 -52 257 -121 135 -70 272 -136 305 -148 60
-22 60 -22 -27 62 -113 109 -245 212 -316 248 -60 29 -138 37 -214 20 -33 -8
-45 -3 -125 42 -226 130 -600 200 -933 175z"/>
<path d="M5160 6484 c-324 -26 -716 -137 -795 -224 -20 -22 -20 -22 4 -41 36
-29 109 -24 304 20 473 107 720 116 986 35 94 -28 204 -81 237 -112 12 -11 42
-51 67 -89 28 -42 98 -117 184 -198 383 -359 507 -551 713 -1100 95 -255 110
-285 155 -330 33 -34 33 -34 25 -2 -5 18 -25 129 -44 247 -52 311 -73 385
-169 575 -164 328 -370 568 -687 802 -120 89 -126 96 -104 118 57 56 295 -83
510 -299 179 -179 284 -336 449 -669 48 -98 89 -176 92 -173 2 2 -17 86 -43
187 -52 207 -118 391 -190 530 -42 82 -64 110 -174 220 -185 185 -375 306
-572 363 -106 30 -442 103 -562 121 -98 14 -312 25 -386 19z"/>
<path d="M4852 5485 c-173 -39 -311 -147 -344 -268 -14 -55 -1 -97 32 -97 11
0 52 29 90 64 122 113 266 164 426 152 224 -16 419 -116 528 -269 24 -34 65
-104 91 -156 26 -52 68 -129 93 -170 25 -41 51 -95 59 -119 17 -60 17 -184 -2
-273 -25 -119 -134 -438 -181 -529 -134 -262 -390 -464 -687 -541 -117 -31
-334 -38 -422 -14 -62 16 -103 45 -91 63 3 5 74 12 158 15 228 9 351 37 513
119 101 51 186 111 262 186 132 130 191 235 204 366 5 45 21 117 38 161 68
189 80 368 31 505 -125 352 -327 520 -630 522 -107 1 -176 -15 -263 -60 -75
-39 -120 -84 -115 -116 3 -18 10 -21 53 -21 28 1 86 9 130 19 61 13 97 16 150
10 39 -4 108 -8 155 -8 74 -1 91 -5 131 -28 96 -57 189 -194 224 -333 19 -76
19 -204 0 -278 -29 -110 -59 -154 -229 -325 -169 -172 -248 -232 -364 -282
-74 -31 -107 -37 -117 -20 -3 6 -24 10 -46 10 -34 0 -47 -7 -79 -39 -35 -35
-46 -40 -107 -48 -37 -4 -131 -7 -208 -7 -130 2 -152 5 -300 43 -179 47 -304
62 -331 40 -14 -11 -15 -26 -11 -83 9 -98 44 -164 137 -256 98 -97 152 -126
250 -133 77 -6 211 -47 302 -93 26 -13 82 -34 125 -46 69 -20 99 -23 263 -22
203 1 263 11 413 74 245 102 491 347 625 621 67 138 230 570 241 640 16 94 13
351 -4 432 -27 127 -117 262 -169 255 -32 -5 -32 -53 2 -139 39 -99 54 -172
42 -204 -11 -30 -23 -31 -47 -6 -20 22 -80 158 -116 266 -37 109 -61 148 -128
209 -81 73 -249 157 -384 192 -125 32 -299 41 -393 19z m634 -1460 c14 -36
-111 -203 -227 -302 -127 -108 -290 -194 -442 -232 -40 -11 -130 -26 -200 -35
-70 -9 -153 -26 -184 -38 -47 -17 -69 -20 -132 -15 -187 16 -354 81 -455 178
-56 55 -66 81 -34 87 9 2 64 -18 123 -43 177 -76 239 -90 395 -90 170 0 410
27 478 54 188 74 319 160 478 311 142 137 186 164 200 125z m-696 -305 c0 -17
-38 -49 -65 -56 -28 -7 -75 9 -75 26 0 5 12 12 28 16 15 3 38 10 52 14 35 12
60 12 60 0z"/>
<path d="M6117 4231 c-14 -17 -39 -68 -57 -113 -72 -192 -95 -248 -143 -343
-176 -353 -456 -618 -768 -727 -94 -33 -94 -33 -329 -33 -304 0 -340 8 -582
121 -155 73 -188 83 -207 61 -54 -66 255 -278 463 -318 35 -7 85 -6 157 2 133
14 209 2 248 -41 26 -29 26 -29 96 -15 236 46 469 173 667 363 125 121 209
224 297 365 124 199 197 376 228 553 14 78 14 94 2 119 -19 40 -41 42 -72 6z"/>
<path d="M6851 3684 c0 -11 3 -14 6 -6 3 7 2 16 -1 19 -3 4 -6 -2 -5 -13z"/>
<path d="M6402 3573 c-20 -22 -71 -102 -111 -179 -94 -174 -226 -372 -328
-489 -256 -293 -613 -508 -1003 -605 -73 -18 -132 -36 -270 -80 -56 -18 301
16 423 41 422 84 800 329 1075 694 134 178 300 534 290 622 -5 43 -34 41 -76
-4z"/>
<path d="M3221 3533 c56 -100 179 -284 260 -389 82 -107 119 -168 119 -195 0
-50 351 -298 423 -299 51 0 -3 54 -123 125 -36 21 -102 63 -147 93 -77 51 -85
59 -118 128 -34 70 -105 166 -273 368 -40 49 -94 120 -119 157 -25 38 -48 69
-50 69 -3 0 10 -26 28 -57z"/>
<path d="M4737 2801 c-88 -8 -116 -25 -98 -59 27 -50 190 -48 245 3 30 28 34
55 7 55 -10 0 -31 2 -47 4 -16 2 -64 1 -107 -3z"/>
<path d="M4190 2444 c143 -51 273 -86 304 -82 21 3 21 3 -1 25 -40 40 -277
104 -383 102 -42 0 -37 -3 80 -45z"/>
</g>
</svg>
