<?xml version="1.0" standalone="no"?>
<!DOCTYPE svg PUBLIC "-//W3C//DTD SVG 20010904//EN"
 "http://www.w3.org/TR/2001/REC-SVG-20010904/DTD/svg10.dtd">
<svg version="1.0" xmlns="http://www.w3.org/2000/svg"
 width="1000.000000pt" height="1000.000000pt" viewBox="0 0 1000.000000 1000.000000"
 preserveAspectRatio="xMidYMid meet">
<metadata>
  <rdf:RDF
    xmlns:rdf = "http://www.w3.org/1999/02/22-rdf-syntax-ns#"
    xmlns:rdfs = "http://www.w3.org/2000/01/rdf-schema#"
    xmlns:dc = "http://purl.org/dc/elements/1.1/"
    xmlns:cc = "http://creativecommons.org/ns#">
    <cc:license rdf:resource="http://creativecommons.org/publicdomain/zero/1.0/deed.en"/>
    <cc:permits rdf:resource="http://creativecommons.org/ns#Reproduction"/>
    <rdf:Description about="https://nft.mir.one/fingerprints"
      dc:title="TON Fingerprints"
      dc:description="This is a unique digital fingerprint created based on the algorithm for generating basic rings using a noise texture. Like human fingerprints, you can now use it for the Web3 and Metaverse era as digital biometric information."
      dc:publisher="https://nft.mir.one"
      dc:date="2022-02-22"
      dc:format="image/svg+xml"
      dc:language="en" >
      <dc:creator>
      <rdf:Bag>
        <rdf:li>EQBondcvD2_aOFADXSWJHs4ZazQDuEl9_wNvGGPxI8hGuOFU</rdf:li>
        <rdf:li>ipfs://bafkreihj7iub3fhmhq6jn62noukt5wxn3gv6bvcg7wmt6ywvlurefezckq</rdf:li>
      </rdf:Bag>
      </dc:creator>
    </rdf:Description>
  </rdf:RDF>
</metadata>
<rect width="100%" height="100%" fill="#1b1f23"/>
<g transform="translate(0.000000,1000.000000) scale(0.100000,-0.100000)"
fill="#ffffff" stroke="none">
<path d="M4980 7808 c37 -37 419 -222 549 -266 39 -14 111 -16 111 -4 0 44
-209 139 -485 221 -182 55 -181 54 -175 49z"/>
<path d="M4540 7689 c30 -17 113 -60 185 -96 93 -47 143 -79 180 -116 51 -50
51 -50 375 -157 344 -113 428 -148 555 -231 182 -118 291 -226 532 -524 184
-228 298 -344 398 -403 39 -23 94 -58 124 -78 53 -35 53 -35 5 55 -33 61 -54
91 -66 91 -27 0 -83 55 -131 128 -328 499 -369 556 -508 693 -90 90 -185 167
-292 238 -113 76 -189 108 -285 121 -114 15 -217 47 -407 123 -257 104 -388
142 -592 172 -136 20 -137 20 -73 -16z"/>
<path d="M4222 7555 c-74 -13 -136 -26 -138 -28 -16 -16 436 -23 466 -7 28 15
14 38 -28 50 -57 15 -155 11 -300 -15z"/>
<path d="M4570 7450 c-33 -12 -103 -24 -175 -30 -202 -17 -366 -57 -555 -134
-85 -35 -85 -35 -18 -36 37 0 100 4 140 10 40 5 154 17 253 25 313 26 579 57
613 71 92 38 14 98 -140 109 -47 4 -77 0 -118 -15z"/>
<path d="M4515 7209 c-466 -40 -579 -58 -711 -111 -85 -33 -297 -148 -324
-175 -14 -14 124 9 275 45 284 68 471 94 801 112 316 17 512 -9 751 -102 335
-129 565 -301 683 -511 73 -130 113 -173 314 -342 402 -337 503 -469 730 -960
31 -66 56 -114 56 -107 0 18 -57 269 -81 359 -29 107 -99 286 -155 396 -43 85
-58 103 -188 227 -265 255 -352 345 -497 520 -200 241 -311 340 -504 449 -155
87 -417 184 -587 216 -105 20 -169 18 -563 -16z"/>
<path d="M4452 6969 c-157 -8 -319 -30 -457 -60 -139 -31 -335 -89 -385 -114
-73 -37 -169 -113 -290 -228 -114 -107 -114 -107 -54 -83 32 13 106 46 164 74
116 55 477 190 593 222 192 53 467 78 674 61 226 -18 260 -30 703 -251 217
-109 402 -200 412 -203 29 -10 51 16 44 50 -20 92 -230 243 -519 376 -306 139
-515 176 -885 156z"/>
<path d="M4330 6734 c-14 -2 -63 -9 -110 -15 -122 -17 -199 -41 -303 -97 -51
-27 -153 -70 -227 -96 -74 -26 -180 -69 -235 -96 -87 -42 -112 -60 -187 -137
-145 -148 -231 -285 -198 -316 9 -9 10 -6 5 13 -9 37 19 67 132 143 162 108
349 193 523 237 82 21 105 22 675 23 590 2 590 2 640 -23 39 -19 50 -30 50
-48 0 -24 0 -24 -365 -23 -403 1 -820 -18 -944 -44 -188 -39 -457 -155 -581
-250 -39 -29 -82 -56 -97 -60 -15 -4 -42 -26 -61 -48 -52 -65 -52 -65 1 -56
61 9 175 52 332 124 349 159 558 196 1215 215 403 12 452 20 501 75 31 35 31
35 110 24 44 -6 162 -29 264 -51 214 -47 316 -54 349 -24 47 42 18 71 -121
119 -150 52 -440 163 -529 204 -60 27 -83 44 -107 78 -36 51 -84 78 -190 107
-65 17 -113 21 -297 23 -121 2 -231 2 -245 -1z m540 -139 c141 -27 160 -34
160 -55 0 -33 -58 -41 -215 -29 -132 11 -366 8 -690 -7 -111 -6 -132 -4 -143
9 -11 13 -9 18 12 32 13 9 48 23 77 30 45 12 91 19 269 39 87 10 448 -3 530
-19z"/>
<path d="M6846 6261 c-12 -5 -15 -10 -9 -14 6 -4 16 0 23 8 14 17 13 17 -14 6z"/>
<path d="M5070 6100 c-30 -5 -215 -13 -410 -19 -497 -15 -719 -42 -969 -118
-218 -66 -465 -178 -526 -239 -18 -17 -54 -71 -80 -120 -78 -144 -164 -314
-157 -313 21 2 74 29 124 61 74 49 111 63 243 92 61 14 206 54 323 90 478 147
647 180 947 180 210 1 210 1 275 -28 53 -23 93 -31 210 -43 425 -42 650 -152
965 -467 153 -153 233 -262 345 -466 34 -63 102 -173 149 -243 134 -199 144
-222 145 -325 1 -94 -12 -132 -44 -132 -25 0 -61 49 -103 141 -19 41 -67 129
-107 195 -108 175 -127 212 -145 283 -34 134 -119 258 -299 436 -248 246 -475
373 -747 421 -137 24 -239 15 -362 -30 -125 -46 -146 -50 -347 -76 -276 -34
-385 -63 -409 -108 -9 -17 -7 -24 11 -36 29 -20 99 -20 366 -1 369 27 378 29
426 63 58 42 121 56 213 48 260 -22 547 -178 814 -445 171 -171 250 -284 220
-314 -20 -20 -73 17 -221 159 -272 260 -451 378 -697 460 -128 43 -274 57
-308 30 -20 -16 -20 -16 11 -44 18 -17 77 -46 150 -72 276 -102 506 -248 779
-495 50 -45 129 -113 176 -152 101 -84 149 -140 223 -256 72 -115 181 -338
201 -412 21 -75 31 -386 18 -561 -6 -77 -6 -141 1 -175 9 -54 9 -54 68 115 32
93 85 278 118 410 43 170 77 279 115 371 54 132 121 358 152 514 21 109 24
393 4 501 -14 82 -67 232 -113 324 -188 374 -555 726 -809 777 -49 10 -69 8
-146 -10 -117 -27 -167 -26 -349 5 -159 27 -353 38 -444 24z m215 -170 c185
-25 385 -79 457 -123 52 -31 342 -292 446 -401 146 -153 228 -272 350 -506 73
-140 87 -160 113 -160 72 0 39 173 -72 390 -111 215 -283 418 -509 601 -113
91 -146 132 -120 149 27 17 74 11 135 -19 299 -142 648 -618 706 -962 10 -60
10 -108 0 -239 -13 -187 -27 -233 -69 -228 -23 3 -32 16 -65 96 -29 69 -54
109 -96 156 -32 34 -97 129 -146 210 -156 257 -289 415 -494 585 -177 147
-275 205 -426 254 -116 38 -207 54 -468 84 -578 67 -949 23 -1558 -187 -172
-59 -211 -68 -238 -51 -54 34 129 135 410 226 201 65 413 109 649 134 111 13
892 5 995 -9z"/>
<path d="M4510 5619 c-244 -20 -381 -53 -905 -214 -277 -85 -451 -156 -503
-205 -62 -58 -113 -182 -148 -357 -14 -70 -30 -135 -35 -146 -11 -19 -10 -19
18 0 15 10 37 24 48 29 37 20 65 73 65 124 0 114 148 242 393 339 43 17 171
58 284 91 113 33 257 80 318 105 134 54 232 77 460 105 94 12 194 27 224 35
95 24 117 74 43 95 -42 11 -111 11 -262 -1z"/>
<path d="M3845 5165 c-178 -32 -364 -93 -499 -163 -187 -96 -296 -209 -221
-228 41 -10 88 4 228 65 264 117 435 157 632 148 66 -3 158 -13 205 -22 51
-10 147 -18 240 -20 177 -3 212 -12 256 -70 15 -20 82 -78 148 -128 214 -164
307 -275 397 -476 180 -405 184 -721 14 -998 -65 -104 -205 -245 -265 -265
-74 -26 -299 -52 -392 -45 -226 16 -411 39 -474 58 -120 37 -244 110 -244 144
0 26 25 30 185 30 147 0 163 2 203 23 142 76 272 467 218 657 -45 157 -183
295 -345 346 -91 28 -225 28 -312 -1 -213 -71 -351 -250 -366 -475 -10 -162
49 -321 176 -475 39 -47 96 -120 127 -163 77 -107 280 -290 350 -317 165 -61
489 -39 710 50 90 36 114 39 127 18 27 -41 -96 -151 -221 -198 -156 -59 -348
-85 -547 -75 -91 5 -135 3 -180 -8 -33 -9 -52 -16 -43 -16 9 -1 80 -21 158
-46 216 -68 418 -91 566 -64 75 13 182 66 259 128 36 29 104 104 168 187 59
76 155 198 213 269 113 140 180 258 211 375 28 102 25 387 -5 497 -31 115 -65
205 -122 328 -27 58 -61 138 -75 178 -38 106 -65 146 -155 231 -96 90 -240
188 -363 247 -97 46 -109 67 -47 83 81 20 294 -85 530 -259 62 -46 153 -105
203 -132 253 -134 505 -510 577 -862 63 -309 16 -766 -108 -1061 -62 -146 -92
-224 -82 -214 38 40 209 250 237 293 52 78 130 229 153 297 43 123 52 513 15
679 -35 163 -116 352 -212 498 -66 99 -216 261 -345 372 -226 194 -598 415
-843 501 -80 29 -80 29 -345 26 -289 -4 -373 4 -459 44 -61 27 -123 30 -236 9z
m319 -1108 c113 -52 216 -185 216 -279 0 -73 -29 -62 -92 36 -83 129 -198 181
-319 144 -50 -14 -114 -69 -139 -119 -26 -50 -27 -142 -1 -189 61 -114 212
-134 271 -37 25 41 25 88 1 118 -17 21 -23 23 -48 13 -38 -14 -53 -8 -53 24 0
39 27 62 74 62 56 0 103 -34 144 -103 58 -95 53 -177 -14 -255 -117 -137 -370
-130 -479 13 -130 171 -96 421 73 537 105 73 253 87 366 35z"/>
<path d="M3840 4845 c-8 -2 -49 -9 -90 -15 -41 -7 -111 -24 -155 -37 -171 -53
-450 -186 -485 -230 -31 -39 -67 -169 -85 -299 -8 -65 -15 -122 -15 -126 0
-14 54 53 94 116 84 132 205 233 377 316 156 74 274 102 434 103 198 2 317
-38 485 -163 181 -134 322 -313 383 -488 52 -148 50 -402 -3 -402 -29 0 -37
24 -54 155 -18 139 -36 206 -78 290 -72 142 -180 261 -321 353 -139 91 -271
127 -432 119 -221 -12 -403 -93 -556 -246 -141 -142 -172 -234 -149 -452 31
-306 172 -601 414 -866 110 -120 282 -241 307 -216 18 18 -5 45 -100 115 -114
84 -241 211 -329 328 -76 101 -102 150 -144 273 -40 119 -50 274 -23 391 66
297 325 506 630 509 112 1 176 -14 285 -65 70 -34 100 -56 175 -132 144 -146
195 -274 198 -506 2 -138 -7 -178 -68 -300 -47 -93 -61 -145 -47 -174 15 -34
50 -40 76 -12 41 44 170 212 212 278 23 36 63 86 87 111 64 63 87 132 87 254
0 154 -48 304 -145 454 -80 123 -431 457 -530 503 -74 35 -186 57 -310 61 -60
2 -117 2 -125 0z"/>
<path d="M4468 4826 c-10 -9 -14 -24 -11 -36 3 -12 58 -65 122 -119 271 -229
395 -399 463 -636 19 -67 23 -103 23 -220 -1 -126 -3 -147 -27 -207 -14 -37
-41 -93 -59 -124 -52 -86 -180 -217 -273 -278 -102 -67 -112 -78 -91 -100 62
-62 275 6 395 126 254 254 288 643 89 1039 -85 171 -181 281 -383 444 -135
108 -215 144 -248 111z"/>
<path d="M5420 4485 c-18 -22 -6 -57 55 -160 175 -299 238 -500 237 -760 0
-243 -48 -383 -178 -520 -84 -90 -277 -316 -403 -475 -156 -195 -152 -192
-381 -277 -145 -53 -145 -53 55 -47 110 3 215 9 232 14 49 12 176 133 202 191
14 29 62 90 126 157 57 60 135 152 173 203 82 111 115 144 136 136 45 -17 21
-122 -56 -248 -65 -106 -137 -177 -224 -223 -133 -69 -151 -121 -35 -96 66 14
81 9 81 -24 0 -31 -34 -73 -89 -107 -60 -38 -43 -37 30 2 34 18 75 51 96 78
21 25 54 59 73 76 79 67 194 183 221 221 54 79 82 177 103 359 8 72 22 186 31
255 22 161 15 404 -14 530 -53 228 -154 432 -301 609 -80 96 -145 136 -170
106z"/>
<path d="M5140 2228 c0 -9 7 -19 16 -22 15 -6 15 -4 3 11 -7 10 -15 20 -16 22
-2 2 -3 -3 -3 -11z"/>
<path d="M5193 2193 c9 -2 23 -2 30 0 6 3 -1 5 -18 5 -16 0 -22 -2 -12 -5z"/>
</g>
</svg>
