<?xml version="1.0" standalone="no"?>
<!DOCTYPE svg PUBLIC "-//W3C//DTD SVG 20010904//EN"
 "http://www.w3.org/TR/2001/REC-SVG-20010904/DTD/svg10.dtd">
<svg version="1.0" xmlns="http://www.w3.org/2000/svg"
 width="1000.000000pt" height="1000.000000pt" viewBox="0 0 1000.000000 1000.000000"
 preserveAspectRatio="xMidYMid meet">
<metadata>
  <rdf:RDF
    xmlns:rdf = "http://www.w3.org/1999/02/22-rdf-syntax-ns#"
    xmlns:rdfs = "http://www.w3.org/2000/01/rdf-schema#"
    xmlns:dc = "http://purl.org/dc/elements/1.1/"
    xmlns:cc = "http://creativecommons.org/ns#">
    <cc:license rdf:resource="http://creativecommons.org/publicdomain/zero/1.0/deed.en"/>
    <cc:permits rdf:resource="http://creativecommons.org/ns#Reproduction"/>
    <rdf:Description about="https://nft.mir.one/fingerprints"
      dc:title="TON Fingerprints"
      dc:description="This is a unique digital fingerprint created based on the algorithm for generating basic rings using a noise texture. Like human fingerprints, you can now use it for the Web3 and Metaverse era as digital biometric information."
      dc:publisher="https://nft.mir.one"
      dc:date="2022-02-22"
      dc:format="image/svg+xml"
      dc:language="en" >
      <dc:creator>
      <rdf:Bag>
        <rdf:li>EQBondcvD2_aOFADXSWJHs4ZazQDuEl9_wNvGGPxI8hGuOFU</rdf:li>
        <rdf:li>ipfs://bafkreihj7iub3fhmhq6jn62noukt5wxn3gv6bvcg7wmt6ywvlurefezckq</rdf:li>
      </rdf:Bag>
      </dc:creator>
    </rdf:Description>
  </rdf:RDF>
</metadata>
<rect width="100%" height="100%" fill="#1b1f23"/>
<g transform="translate(0.000000,1000.000000) scale(0.100000,-0.100000)"
fill="#ffffff" stroke="none">
<path d="M4887 7790 c-31 -5 -75 -14 -96 -20 -60 -16 -119 -70 -76 -70 8 0 15
5 15 11 0 17 80 46 163 60 96 15 248 7 372 -20 265 -57 596 -198 800 -342 33
-23 54 -34 46 -26 -7 9 -61 48 -119 87 -209 139 -478 253 -711 300 -119 24
-308 33 -394 20z"/>
<path d="M4537 7665 c-118 -26 -217 -66 -217 -88 0 -11 9 -13 43 -6 95 18 219
10 328 -21 57 -16 178 -46 269 -66 210 -46 361 -92 529 -160 308 -126 470
-221 641 -379 58 -53 115 -102 127 -107 58 -28 71 36 24 117 -149 258 -636
546 -1071 635 -56 12 -180 27 -276 35 -166 13 -234 29 -234 55 0 15 -44 11
-163 -15z"/>
<path d="M4145 7456 c-74 -24 -241 -105 -338 -163 -36 -22 -69 -52 -88 -81
-18 -26 -61 -78 -98 -116 -44 -47 -56 -64 -36 -51 61 37 119 90 148 137 31 50
35 52 107 67 25 5 81 19 125 32 250 70 837 -23 1227 -196 204 -91 306 -166
359 -265 36 -67 81 -122 250 -304 69 -75 151 -171 181 -213 117 -163 184 -340
176 -463 -6 -73 -21 -106 -102 -221 -67 -96 -102 -185 -166 -429 -79 -300
-144 -435 -273 -568 -206 -212 -461 -300 -843 -290 -146 3 -150 4 -214 37 -87
45 -195 154 -242 246 -56 107 -78 201 -78 325 0 327 186 621 483 765 273 131
508 109 760 -73 85 -61 109 -86 100 -108 -10 -27 -63 -14 -182 45 -154 76
-238 96 -375 88 -276 -15 -519 -200 -613 -469 -31 -88 -42 -250 -23 -341 18
-87 75 -192 139 -256 104 -104 238 -147 421 -137 137 7 214 27 330 83 79 38
108 59 180 132 69 69 95 103 128 171 65 132 82 214 91 440 8 210 6 205 81 340
25 45 25 102 0 175 -55 159 -196 334 -361 446 -86 58 -116 68 -237 78 -82 7
-129 17 -203 45 -159 58 -281 65 -554 31 -66 -8 -149 -15 -185 -15 -192 0
-346 -97 -598 -376 -161 -177 -198 -240 -265 -449 -85 -265 -91 -410 -28 -745
63 -336 103 -482 181 -656 98 -217 297 -421 525 -536 243 -123 506 -188 760
-189 252 0 469 47 670 146 127 63 189 113 246 197 48 70 164 161 273 212 41
19 85 49 100 67 75 89 78 174 5 156 -13 -3 -78 -38 -144 -78 -190 -114 -243
-135 -492 -199 -285 -73 -360 -84 -521 -77 -141 6 -225 25 -357 84 -452 198
-704 578 -657 990 46 400 252 749 566 958 98 65 172 97 390 167 136 44 173 52
236 52 180 0 374 -116 500 -298 40 -59 72 -139 64 -161 -12 -30 -38 -14 -118
71 -100 106 -204 176 -314 211 -74 23 -94 25 -190 20 -450 -22 -841 -355 -958
-815 -62 -242 -32 -475 83 -664 50 -83 169 -206 251 -262 341 -227 377 -241
587 -240 115 0 161 5 260 28 163 37 341 98 450 152 97 49 264 155 333 212 128
105 261 381 308 642 22 119 25 368 6 422 -17 48 -48 59 -73 27 -19 -25 -30
-70 -73 -294 -36 -188 -70 -296 -131 -420 -66 -134 -135 -227 -228 -307 -209
-179 -487 -297 -778 -328 -119 -13 -249 -1 -308 27 -82 40 -21 72 139 72 464
3 859 230 1038 595 55 111 83 194 136 396 45 173 68 239 107 306 41 73 77 114
98 114 25 0 148 -131 171 -182 65 -148 47 -502 -39 -736 -15 -42 -66 -158
-112 -257 -83 -180 -83 -180 -90 -295 -5 -79 -17 -150 -38 -227 -49 -182 -110
-284 -260 -433 -192 -190 -404 -302 -771 -405 -263 -74 -300 -80 -460 -79
-177 0 -292 21 -552 99 -188 57 -216 62 -249 45 -50 -27 0 -91 120 -154 93
-48 307 -119 444 -145 136 -26 312 -36 395 -22 35 5 102 28 150 50 48 22 164
63 257 91 343 102 526 195 712 363 241 218 335 394 443 827 62 250 90 330 145
411 25 36 50 81 55 100 18 65 41 285 46 444 9 251 -22 367 -166 610 -33 55
-80 150 -105 210 -158 376 -264 516 -665 867 -96 84 -107 111 -49 116 64 5
182 -70 404 -260 222 -190 360 -400 558 -848 163 -370 177 -438 152 -740 -28
-332 -21 -408 67 -783 14 -62 18 -103 14 -138 -10 -72 -63 -218 -160 -437 -47
-106 -97 -224 -110 -262 -14 -38 -37 -93 -52 -122 -40 -79 -160 -190 -327
-302 -144 -97 -212 -156 -204 -179 2 -6 10 -15 19 -20 43 -28 311 151 435 289
101 113 147 184 182 283 17 49 55 143 85 209 70 152 143 337 191 480 20 62 48
126 61 141 20 24 21 28 7 25 -10 -3 -30 6 -45 21 -27 25 -28 29 -28 138 0 62
-5 155 -10 207 -12 108 1 380 25 526 27 167 12 299 -56 494 -22 63 -67 194
-99 291 -32 97 -76 212 -99 255 -35 67 -234 348 -349 491 -21 27 -59 55 -113
82 -44 23 -129 78 -189 124 -153 116 -195 139 -412 229 -106 44 -236 97 -288
119 -232 97 -618 197 -939 244 -137 20 -172 19 -256 -9z m758 -1209 c51 -33
17 -57 -121 -82 -217 -41 -330 -98 -515 -259 -258 -226 -386 -452 -504 -884
-34 -124 -37 -148 -36 -257 0 -132 17 -212 73 -352 113 -282 358 -507 685
-628 158 -59 265 -78 440 -78 176 0 283 19 495 88 164 53 220 61 220 31 0 -53
-287 -179 -507 -223 -124 -24 -395 -24 -518 0 -412 83 -735 303 -908 617 -91
166 -145 361 -154 550 -5 123 -5 126 21 163 46 66 73 129 106 241 83 286 177
468 338 653 75 86 363 343 412 368 99 50 221 75 356 71 66 -1 98 -6 117 -19z
m-673 -11 c0 -31 -16 -49 -104 -118 -346 -270 -540 -596 -596 -1003 -16 -118
-18 -125 -40 -125 -33 0 -53 45 -58 128 -8 144 45 360 133 537 109 220 357
479 540 567 65 31 125 37 125 14z m1028 -746 c125 -38 212 -86 212 -116 0 -8
-11 -20 -25 -26 -21 -9 -49 -7 -148 15 -164 35 -192 38 -262 28 -149 -22 -266
-103 -320 -222 -74 -165 -24 -329 120 -400 60 -29 71 -31 142 -27 93 6 145 29
196 89 81 95 65 219 -35 270 -70 36 -155 14 -178 -46 -11 -30 6 -53 43 -57 28
-3 32 -7 35 -35 4 -39 -26 -63 -79 -63 -95 0 -150 121 -99 219 41 82 119 124
230 124 125 0 249 -62 294 -148 45 -86 18 -221 -64 -325 -42 -53 -139 -116
-217 -140 -89 -27 -223 -27 -300 0 -176 62 -282 246 -254 439 35 232 228 415
465 439 77 8 186 0 244 -18z"/>
<path d="M6130 7366 c0 -2 8 -10 18 -17 15 -13 16 -12 3 4 -13 16 -21 21 -21
13z"/>
<path d="M6255 7250 c38 -38 72 -70 74 -70 3 0 -26 32 -64 70 -38 39 -72 70
-74 70 -3 0 26 -31 64 -70z"/>
<path d="M6340 7156 c0 -2 8 -10 18 -17 15 -13 16 -12 3 4 -13 16 -21 21 -21
13z"/>
<path d="M4252 7130 c-288 -30 -502 -142 -722 -377 -207 -222 -448 -613 -494
-803 -6 -25 -6 -25 5 0 83 178 89 187 159 253 39 37 74 67 79 67 5 0 41 40 80
88 95 120 248 264 356 337 175 117 314 175 519 214 59 12 141 30 183 41 142
37 200 27 463 -85 256 -110 346 -171 474 -325 38 -47 129 -146 201 -220 74
-77 156 -173 189 -223 53 -79 73 -122 130 -280 19 -51 53 -81 79 -71 26 10 47
68 47 131 0 112 -78 281 -197 430 -26 32 -88 103 -137 158 -50 55 -127 141
-170 190 -105 120 -145 157 -244 222 -148 98 -393 195 -584 232 -124 23 -303
32 -416 21z"/>
<path d="M6390 7080 c11 -22 29 -87 39 -143 24 -132 49 -194 119 -306 77 -123
161 -216 209 -231 21 -7 48 -19 61 -27 23 -14 23 -14 7 11 -9 13 -32 36 -50
50 -59 45 -215 302 -294 486 -44 101 -97 200 -107 200 -2 0 5 -18 16 -40z"/>
<path d="M4479 6851 c-49 -40 18 -79 139 -80 75 -1 92 18 49 55 -52 45 -149
57 -188 25z"/>
<path d="M4151 6715 c-204 -45 -404 -158 -558 -316 -80 -82 -128 -164 -147
-249 -20 -86 -20 -105 -1 -124 25 -25 58 -2 124 89 156 211 332 339 546 396
66 17 121 22 310 28 127 3 275 3 331 0 100 -7 136 -17 357 -98 122 -45 153 14
55 108 -73 70 -326 181 -414 181 -12 0 -43 -10 -70 -22 -63 -28 -151 -28 -261
1 -92 24 -179 26 -272 6z"/>
<path d="M3281 6157 c-31 -38 -113 -278 -176 -517 -96 -367 -102 -807 -16
-1210 92 -429 125 -541 198 -664 58 -97 207 -255 320 -340 118 -88 194 -123
321 -147 59 -11 193 -42 297 -69 263 -67 316 -75 500 -74 132 0 182 5 285 27
338 71 569 170 760 324 150 122 292 305 294 381 1 34 -2 37 -28 40 -25 3 -47
-15 -191 -161 -172 -175 -241 -228 -390 -298 -307 -144 -684 -188 -1020 -119
-129 26 -345 91 -454 136 -249 103 -454 287 -576 517 -110 205 -221 655 -244
987 -18 251 13 446 119 760 66 196 70 211 70 297 0 51 -4 103 -10 117 -10 28
-40 35 -59 13z"/>
<path d="M6941 5995 c-1 -75 21 -180 48 -234 12 -23 24 -41 27 -41 2 0 0 8 -5
18 -15 27 -41 136 -56 231 -13 86 -13 86 -14 26z"/>
<path d="M7056 5106 c-22 -86 -44 -506 -29 -544 11 -28 29 162 39 416 7 144 4
182 -10 128z"/>
<path d="M6635 4506 c-9 -14 -30 -100 -46 -193 -35 -196 -57 -285 -103 -420
-116 -342 -260 -542 -539 -751 -196 -147 -340 -211 -652 -287 -104 -26 -202
-53 -217 -61 -37 -19 -39 -60 -2 -74 119 -46 653 75 805 182 107 75 359 280
423 344 38 38 87 96 109 128 82 122 241 482 289 657 20 73 23 107 23 254 0
137 -4 177 -17 208 -20 44 -50 49 -73 13z"/>
<path d="M3319 3374 c157 -203 248 -309 370 -426 137 -133 256 -215 436 -303
318 -156 581 -201 1023 -177 338 18 495 50 880 180 195 65 201 68 149 68 -30
1 -91 7 -136 14 -79 13 -85 13 -214 -18 -418 -100 -653 -125 -816 -87 -35 9
-146 22 -247 30 -214 18 -376 49 -540 106 -220 76 -350 154 -459 275 -37 41
-106 107 -154 146 -47 40 -129 111 -182 158 -84 74 -165 137 -192 149 -5 1 33
-50 82 -115z"/>
<path d="M4197 2411 c86 -40 241 -94 353 -123 185 -48 303 -48 635 -4 220 30
566 93 610 111 33 14 -586 -33 -730 -55 -183 -28 -283 -32 -427 -15 -115 13
-336 61 -463 99 -11 4 -1 -2 22 -13z"/>
</g>
</svg>
