<?xml version="1.0" standalone="no"?>
<!DOCTYPE svg PUBLIC "-//W3C//DTD SVG 20010904//EN"
 "http://www.w3.org/TR/2001/REC-SVG-20010904/DTD/svg10.dtd">
<svg version="1.0" xmlns="http://www.w3.org/2000/svg"
 width="1000.000000pt" height="1000.000000pt" viewBox="0 0 1000.000000 1000.000000"
 preserveAspectRatio="xMidYMid meet">
<metadata>
  <rdf:RDF
    xmlns:rdf = "http://www.w3.org/1999/02/22-rdf-syntax-ns#"
    xmlns:rdfs = "http://www.w3.org/2000/01/rdf-schema#"
    xmlns:dc = "http://purl.org/dc/elements/1.1/"
    xmlns:cc = "http://creativecommons.org/ns#">
    <cc:license rdf:resource="http://creativecommons.org/publicdomain/zero/1.0/deed.en"/>
    <cc:permits rdf:resource="http://creativecommons.org/ns#Reproduction"/>
    <rdf:Description about="https://nft.mir.one/fingerprints"
      dc:title="TON Fingerprints"
      dc:description="This is a unique digital fingerprint created based on the algorithm for generating basic rings using a noise texture. Like human fingerprints, you can now use it for the Web3 and Metaverse era as digital biometric information."
      dc:publisher="https://nft.mir.one"
      dc:date="2022-02-22"
      dc:format="image/svg+xml"
      dc:language="en" >
      <dc:creator>
      <rdf:Bag>
        <rdf:li>EQBondcvD2_aOFADXSWJHs4ZazQDuEl9_wNvGGPxI8hGuOFU</rdf:li>
        <rdf:li>ipfs://bafkreihj7iub3fhmhq6jn62noukt5wxn3gv6bvcg7wmt6ywvlurefezckq</rdf:li>
      </rdf:Bag>
      </dc:creator>
    </rdf:Description>
  </rdf:RDF>
</metadata>
<rect width="100%" height="100%" fill="#1b1f23"/>
<g transform="translate(0.000000,1000.000000) scale(0.100000,-0.100000)"
fill="#ffffff" stroke="none">
<path d="M4580 7740 c-41 -4 -68 -7 -60 -8 35 -5 194 -23 315 -37 150 -17 303
-44 495 -86 174 -39 248 -46 275 -26 11 9 18 17 15 20 -11 9 -312 89 -405 106
-197 38 -424 49 -635 31z"/>
<path d="M4576 7570 c-176 -20 -306 -58 -496 -142 -74 -34 -164 -71 -199 -84
-63 -22 -64 -23 -35 -31 16 -4 84 -8 150 -8 122 0 122 0 176 38 116 79 242
102 517 94 199 -6 252 -13 594 -82 147 -29 271 -47 367 -54 299 -21 468 -104
735 -361 136 -131 285 -256 255 -214 -46 64 -320 371 -377 424 -88 80 -206
159 -324 214 -147 69 -208 86 -379 101 -85 8 -225 27 -310 44 -320 63 -508 80
-674 61z"/>
<path d="M4465 7324 c-160 -22 -236 -45 -248 -78 -3 -8 2 -25 12 -37 17 -22
22 -22 312 -24 280 -1 300 -3 419 -29 157 -34 334 -92 436 -144 86 -43 395
-263 562 -399 313 -255 732 -647 846 -791 55 -69 98 -103 113 -89 11 11 -79
196 -141 291 -123 186 -589 616 -904 832 -177 122 -233 168 -267 220 -39 59
-67 73 -245 127 -136 41 -310 81 -447 103 -95 14 -387 27 -448 18z"/>
<path d="M5664 7166 c-36 -28 -7 -52 204 -174 134 -78 258 -170 439 -327 288
-251 569 -553 641 -690 12 -22 21 -35 21 -30 1 15 -118 250 -174 344 -28 46
-88 131 -135 190 -111 139 -382 410 -493 493 -211 156 -436 243 -503 194z"/>
<path d="M3755 7100 c-33 -9 -96 -33 -141 -51 -81 -34 -81 -34 2 -37 159 -5
277 -44 315 -106 39 -63 13 -93 -49 -58 -49 27 -137 52 -183 52 -21 0 -77 -9
-125 -21 -67 -16 -93 -18 -111 -10 -27 12 -30 1 -5 -22 29 -26 62 -34 211 -52
156 -17 224 -37 219 -64 -4 -22 -102 -32 -228 -25 -119 7 -170 -4 -288 -63
-74 -38 -89 -49 -76 -56 10 -6 109 -7 238 -4 263 6 306 16 375 83 39 38 50 44
87 44 71 0 235 -72 489 -213 103 -57 139 -87 165 -137 26 -50 79 -97 215 -191
338 -231 516 -408 760 -751 60 -84 149 -195 198 -246 140 -148 244 -321 331
-551 19 -52 44 -104 56 -115 20 -20 20 -20 43 2 19 20 22 32 21 100 -2 132
-75 283 -251 514 -48 64 -174 230 -279 370 -106 139 -227 292 -270 339 -188
206 -368 347 -644 505 -89 51 -125 77 -125 91 0 16 8 18 61 17 52 -1 76 -8
155 -47 200 -98 402 -249 584 -438 115 -119 174 -194 377 -474 79 -110 209
-285 288 -390 247 -327 263 -385 220 -796 -33 -309 -77 -504 -167 -744 -93
-247 -162 -362 -336 -564 -187 -217 -278 -301 -303 -280 -35 29 -10 80 129
266 57 76 131 162 165 191 76 66 99 103 163 273 131 347 189 662 165 892 -7
65 -10 71 -65 132 -43 48 -70 90 -106 172 -142 321 -238 469 -290 449 -25 -9
-17 -56 31 -171 85 -205 195 -497 216 -573 17 -61 21 -107 22 -222 0 -171 -21
-292 -85 -495 -29 -90 -44 -158 -49 -222 -10 -124 -51 -206 -78 -156 -7 12 -7
36 -1 68 11 58 4 85 -20 85 -30 0 -61 -44 -96 -138 -40 -109 -59 -143 -189
-337 -115 -172 -201 -263 -330 -348 -226 -150 -589 -290 -641 -247 -12 10 -15
10 -15 -4 0 -30 48 -38 195 -33 271 10 497 86 763 256 65 42 108 62 140 67
105 15 201 74 318 195 253 264 437 590 559 994 83 276 118 476 118 675 0 152
-10 226 -46 350 -18 65 -28 81 -71 120 -203 185 -281 280 -536 655 -166 245
-240 341 -346 454 -225 239 -543 442 -815 520 -226 65 -417 181 -614 374 -136
133 -196 167 -294 166 -36 0 -93 -9 -126 -19z"/>
<path d="M4310 7075 c-24 -29 0 -66 75 -118 39 -26 93 -72 121 -100 66 -67
134 -104 325 -172 338 -122 556 -256 798 -490 139 -135 213 -233 406 -535 223
-350 350 -513 441 -566 56 -33 81 -27 132 31 50 56 66 115 66 230 0 106 -16
165 -85 323 -36 80 -52 132 -57 180 -6 51 -15 78 -39 112 -58 85 -118 144
-228 225 -60 45 -150 119 -200 165 -267 245 -537 445 -737 546 -117 59 -297
120 -448 151 -106 22 -158 26 -341 30 -188 3 -218 2 -229 -12z m516 -139 c396
-100 745 -306 1070 -630 132 -133 158 -170 203 -295 17 -46 46 -111 64 -145
19 -33 82 -149 142 -256 114 -207 162 -280 202 -301 30 -16 50 -53 59 -108 6
-37 4 -41 -14 -41 -23 0 -104 85 -187 195 -56 75 -221 345 -325 535 -91 166
-153 252 -260 360 -192 195 -456 379 -680 475 -47 20 -175 67 -285 105 -229
78 -255 88 -255 106 0 41 103 41 266 0z m1464 -913 c65 -68 105 -141 199 -365
80 -191 100 -265 82 -304 -14 -32 -31 -22 -50 33 -27 74 -190 410 -260 533
-39 69 -71 133 -71 142 0 36 43 19 100 -39z"/>
<path d="M3812 6489 c-34 -4 -140 -13 -234 -19 -166 -10 -175 -12 -238 -44
-89 -45 -184 -113 -170 -121 15 -10 97 -8 205 4 196 22 471 32 568 22 154 -17
246 -60 293 -136 31 -49 49 -57 193 -86 315 -62 857 -555 1036 -942 61 -132
159 -507 210 -802 68 -393 19 -622 -218 -1008 -176 -288 -378 -474 -758 -703
-171 -102 -343 -213 -369 -237 -8 -8 -30 -23 -48 -34 -32 -20 -32 -20 70 -15
88 4 110 9 153 32 28 16 75 35 106 44 82 23 291 132 426 222 206 137 386 341
528 600 39 70 96 163 127 206 108 151 166 341 175 575 9 213 -14 328 -143 724
-51 158 -67 222 -71 284 -6 96 -32 156 -131 307 -138 208 -344 435 -527 580
-69 54 -317 229 -505 356 -115 77 -293 166 -375 187 -63 16 -197 18 -303 4z"/>
<path d="M3585 6204 c-16 -2 -84 -9 -150 -15 -157 -14 -197 -32 -313 -143 -91
-86 -91 -86 -53 -86 20 0 60 7 87 15 188 56 381 77 711 79 269 1 283 2 310 22
42 31 40 50 -6 74 -78 39 -156 51 -361 55 -107 2 -208 2 -225 -1z"/>
<path d="M4408 5983 c-27 -7 -33 -42 -11 -71 11 -15 76 -65 145 -112 256 -175
426 -333 560 -521 164 -231 275 -529 267 -718 -4 -70 -8 -84 -37 -124 -17 -25
-32 -50 -32 -56 0 -25 -181 -552 -214 -626 -21 -44 -74 -147 -118 -229 -47
-87 -93 -187 -109 -239 -34 -108 -76 -166 -187 -259 -173 -146 -408 -280 -602
-344 -47 -15 -107 -38 -135 -51 -50 -23 -50 -23 -15 -23 19 0 71 -7 115 -15
95 -17 215 -19 268 -4 79 21 367 201 575 357 65 48 146 108 182 134 208 146
420 483 492 777 27 110 28 276 4 376 -9 39 -24 140 -31 225 -34 361 -133 651
-303 889 -77 108 -249 292 -361 385 -186 155 -387 265 -453 249z m1021 -1824
c59 -170 -136 -666 -345 -876 -50 -50 -68 -63 -93 -63 -54 0 -49 13 93 235
110 172 191 364 246 585 12 46 28 99 35 117 18 44 49 44 64 2z"/>
<path d="M3620 5920 c-121 -10 -266 -35 -359 -61 -107 -31 -146 -66 -262 -235
-56 -81 -56 -81 -15 -63 23 10 66 31 96 48 30 16 100 45 155 64 180 62 336 87
538 87 246 0 408 -43 602 -161 224 -134 410 -300 534 -474 82 -116 168 -294
227 -468 50 -149 78 -200 111 -205 83 -12 7 335 -131 594 -92 172 -260 373
-421 503 -123 99 -437 314 -487 332 -89 35 -394 54 -588 39z"/>
<path d="M6590 5869 c0 -12 29 -76 64 -143 126 -237 146 -357 106 -626 -23
-152 -23 -152 -4 -333 22 -209 24 -464 5 -552 -18 -84 -191 -602 -236 -705
-159 -371 -454 -778 -675 -932 -36 -25 -135 -83 -220 -128 -136 -73 -433 -250
-419 -250 3 0 64 23 135 50 179 70 411 186 524 262 212 142 470 437 649 741
114 194 183 351 267 601 30 88 65 177 80 199 54 81 80 317 70 632 -23 717 -27
768 -75 894 -22 60 -147 236 -197 280 -41 37 -74 41 -74 10z"/>
<path d="M7002 5791 c-1 -13 -7 -40 -13 -60 -9 -30 -6 -54 19 -151 40 -150 51
-221 66 -431 8 -96 14 -150 15 -120 2 100 -20 334 -46 481 -14 80 -29 181 -33
225 -4 44 -8 69 -8 56z"/>
<path d="M3665 5624 c-102 -10 -247 -38 -338 -65 -165 -49 -215 -77 -316 -174
-50 -48 -89 -91 -86 -95 3 -4 21 -11 40 -14 27 -5 76 7 232 58 109 36 234 74
278 85 415 104 812 -6 1115 -309 144 -144 235 -289 304 -490 94 -268 85 -472
-29 -700 -55 -109 -263 -451 -320 -525 -112 -146 -250 -257 -427 -344 -102
-49 -324 -130 -363 -131 -11 -1 -45 -12 -75 -25 -63 -27 -69 -20 72 -69 118
-40 214 -37 327 11 269 114 481 267 597 429 67 94 294 516 341 635 64 159 95
288 95 394 1 79 -4 107 -41 223 -106 334 -217 532 -406 717 -189 185 -429 320
-650 366 -89 19 -273 31 -350 23z"/>
<path d="M3644 5304 c-134 -22 -532 -161 -576 -201 -32 -29 -97 -174 -112
-253 -8 -41 -17 -106 -21 -145 -7 -70 -7 -70 42 23 59 112 94 158 138 179 37
18 85 11 85 -12 0 -8 -18 -58 -40 -109 -51 -118 -69 -228 -53 -318 7 -43 38
-119 98 -243 83 -171 90 -183 168 -261 91 -91 182 -144 289 -169 175 -41 432
9 541 105 146 129 183 420 80 624 -33 64 -115 146 -178 176 -117 56 -275 31
-275 -45 0 -32 7 -35 98 -44 97 -10 141 -30 195 -91 76 -84 96 -197 57 -323
-27 -86 -88 -155 -178 -199 -64 -32 -72 -33 -182 -33 -112 0 -117 1 -194 38
-180 86 -316 302 -332 526 -6 88 32 334 62 396 51 109 311 225 504 225 361 0
685 -249 806 -620 26 -79 28 -97 28 -250 1 -145 -2 -174 -22 -237 -18 -59 -27
-73 -43 -73 -32 0 -38 37 -37 227 1 153 -2 189 -21 258 -87 320 -327 534 -621
552 -105 7 -179 -8 -269 -53 -158 -79 -241 -235 -228 -429 7 -105 28 -170 80
-247 72 -108 173 -167 288 -170 149 -3 262 98 262 234 0 69 -32 126 -86 151
-48 23 -81 21 -114 -7 -24 -21 -26 -26 -16 -49 9 -20 21 -26 50 -29 32 -3 38
-7 41 -29 7 -60 -76 -109 -151 -88 -53 14 -111 75 -132 139 -34 102 -4 244 69
327 53 60 106 85 192 91 189 12 372 -112 465 -313 55 -121 72 -287 49 -473
-19 -146 -47 -209 -165 -371 -17 -23 -25 -47 -25 -76 0 -111 -160 -238 -380
-301 -91 -26 -299 -26 -390 0 -36 10 -94 24 -130 31 -65 13 -65 13 -25 -21
168 -144 278 -214 359 -229 77 -15 306 54 440 132 195 113 265 197 496 595 19
31 53 73 77 93 126 105 169 378 98 620 -156 533 -644 856 -1161 769z"/>
<path d="M7092 4890 c0 -14 2 -19 5 -12 2 6 2 18 0 25 -3 6 -5 1 -5 -13z"/>
<path d="M3030 4283 c1 -170 103 -432 237 -608 136 -178 223 -220 448 -220
147 1 216 15 330 70 88 42 167 109 163 138 -6 41 -48 42 -201 6 -229 -55 -382
-44 -543 36 -178 90 -318 265 -368 460 -38 146 -47 175 -56 175 -6 0 -10 -26
-10 -57z"/>
</g>
</svg>
