<?xml version="1.0" standalone="no"?>
<!DOCTYPE svg PUBLIC "-//W3C//DTD SVG 20010904//EN"
 "http://www.w3.org/TR/2001/REC-SVG-20010904/DTD/svg10.dtd">
<svg version="1.0" xmlns="http://www.w3.org/2000/svg"
 width="1000.000000pt" height="1000.000000pt" viewBox="0 0 1000.000000 1000.000000"
 preserveAspectRatio="xMidYMid meet">
<metadata>
  <rdf:RDF
    xmlns:rdf = "http://www.w3.org/1999/02/22-rdf-syntax-ns#"
    xmlns:rdfs = "http://www.w3.org/2000/01/rdf-schema#"
    xmlns:dc = "http://purl.org/dc/elements/1.1/"
    xmlns:cc = "http://creativecommons.org/ns#">
    <cc:license rdf:resource="http://creativecommons.org/publicdomain/zero/1.0/deed.en"/>
    <cc:permits rdf:resource="http://creativecommons.org/ns#Reproduction"/>
    <rdf:Description about="https://nft.mir.one/fingerprints"
      dc:title="TON Fingerprints"
      dc:description="This is a unique digital fingerprint created based on the algorithm for generating basic rings using a noise texture. Like human fingerprints, you can now use it for the Web3 and Metaverse era as digital biometric information."
      dc:publisher="https://nft.mir.one"
      dc:date="2022-02-22"
      dc:format="image/svg+xml"
      dc:language="en" >
      <dc:creator>
      <rdf:Bag>
        <rdf:li>EQBondcvD2_aOFADXSWJHs4ZazQDuEl9_wNvGGPxI8hGuOFU</rdf:li>
        <rdf:li>ipfs://bafkreihj7iub3fhmhq6jn62noukt5wxn3gv6bvcg7wmt6ywvlurefezckq</rdf:li>
      </rdf:Bag>
      </dc:creator>
    </rdf:Description>
  </rdf:RDF>
</metadata>
<rect width="100%" height="100%" fill="#1b1f23"/>
<g transform="translate(0.000000,1000.000000) scale(0.100000,-0.100000)"
fill="#ffffff" stroke="none">
<path d="M4760 7759 c69 -10 184 -25 255 -34 159 -20 636 -96 755 -120 14 -3
-6 6 -45 20 -104 39 -355 101 -480 120 -106 16 -426 35 -550 33 -52 0 -44 -3
65 -19z"/>
<path d="M4326 7590 c-49 -11 -130 -32 -180 -47 -91 -28 -91 -28 154 -34 519
-13 1017 -99 1166 -201 18 -12 49 -51 69 -86 62 -109 82 -124 390 -306 227
-133 245 -151 379 -350 128 -193 144 -224 177 -341 12 -44 54 -152 94 -240 39
-88 82 -185 94 -215 42 -105 71 -115 99 -34 23 65 2 159 -89 402 -102 271
-140 345 -232 452 -85 98 -103 128 -89 142 43 43 262 -114 321 -229 11 -22 32
-82 46 -134 15 -52 51 -152 80 -224 83 -202 98 -263 91 -348 -20 -224 -19
-268 10 -442 23 -141 28 -203 28 -360 1 -218 -7 -264 -66 -375 -22 -41 -57
-134 -78 -210 -73 -256 -130 -400 -248 -636 -101 -201 -175 -282 -329 -357
-40 -20 -123 -71 -185 -114 -255 -178 -427 -260 -843 -405 -216 -76 -248 -89
-282 -121 -25 -23 -30 -59 -10 -75 59 -49 304 7 662 150 232 94 370 167 615
326 311 202 402 294 465 467 10 28 52 124 93 215 88 197 144 356 205 590 100
378 108 562 46 1005 -13 95 -19 182 -17 270 2 124 1 135 -31 230 -18 55 -57
161 -87 235 -29 74 -62 171 -74 215 -34 124 -73 188 -180 295 -101 101 -145
130 -385 255 -536 279 -607 321 -603 350 2 16 12 21 47 23 63 5 154 -30 432
-164 135 -64 264 -119 300 -128 35 -8 65 -14 66 -13 3 3 -199 141 -314 215
-123 78 -308 173 -393 201 -92 29 -466 116 -585 135 -261 42 -670 49 -829 16z"/>
<path d="M4300 7360 c-116 -9 -218 -42 -358 -115 -148 -77 -247 -152 -405
-304 -157 -153 -187 -193 -98 -129 356 255 604 352 969 379 246 19 543 -10
802 -78 208 -54 216 -56 239 -43 82 43 -82 162 -294 214 -242 60 -633 94 -855
76z"/>
<path d="M4425 7054 c-16 -2 -66 -9 -110 -15 -225 -30 -465 -120 -660 -248
-86 -56 -196 -164 -300 -294 -43 -55 -89 -103 -102 -108 -14 -5 -21 -14 -17
-23 17 -45 80 -21 221 87 252 191 415 285 613 351 349 116 728 119 1257 10
325 -67 540 -187 825 -463 82 -80 156 -150 164 -154 8 -5 23 -5 34 -2 53 17 8
117 -126 281 -137 169 -256 265 -474 382 -143 77 -209 98 -325 105 -55 4 -156
18 -225 31 -235 46 -331 57 -540 61 -113 2 -218 1 -235 -1z"/>
<path d="M4470 6750 c-275 -35 -498 -112 -727 -251 -114 -70 -430 -298 -461
-334 -85 -96 -182 -312 -242 -539 -37 -141 -54 -239 -79 -464 -22 -192 -25
-207 -50 -236 -15 -18 -15 -18 6 -8 31 17 61 59 72 101 6 20 28 121 50 225
116 540 266 774 672 1047 328 220 638 309 1034 295 481 -16 824 -127 1161
-376 119 -88 282 -230 365 -316 80 -84 229 -283 285 -381 79 -139 133 -360
158 -649 15 -174 25 -207 59 -202 45 6 52 46 51 273 0 226 -15 334 -81 585
-28 103 -29 105 -74 135 -57 37 -80 64 -158 189 -94 150 -142 207 -206 246
-62 38 -147 104 -290 225 -284 241 -543 352 -970 415 -161 23 -461 34 -575 20z"/>
<path d="M4505 6444 c-269 -28 -476 -101 -699 -247 -187 -123 -326 -255 -421
-400 -98 -151 -130 -239 -230 -642 -25 -99 -54 -212 -64 -251 -36 -132 -45
-254 -43 -574 2 -403 14 -465 138 -699 113 -213 258 -404 448 -589 208 -202
354 -280 406 -217 18 21 -11 61 -86 120 -34 28 -85 76 -113 107 -28 31 -95 89
-148 129 -54 40 -138 106 -186 147 -100 85 -294 303 -350 395 -48 79 -81 183
-74 240 7 66 44 224 78 328 16 52 43 180 60 284 16 105 52 287 80 405 28 118
61 271 75 340 34 171 49 223 95 310 106 205 329 402 604 535 173 84 236 100
390 100 232 -1 564 -22 678 -45 267 -52 582 -205 758 -368 67 -62 89 -97 89
-141 0 -28 6 -34 66 -63 181 -88 336 -346 404 -670 28 -137 50 -317 50 -417 0
-233 -91 -512 -264 -811 -60 -103 -79 -144 -80 -175 -1 -36 2 -40 25 -43 56
-7 175 139 272 333 137 276 221 578 198 711 -5 27 -19 108 -30 179 -12 72 -31
182 -41 245 -39 234 -111 417 -231 584 -73 102 -309 350 -414 436 -115 94
-230 167 -370 235 -197 96 -388 150 -615 174 -109 12 -396 21 -455 15z"/>
<path d="M4370 6145 c-234 -58 -588 -288 -732 -476 -95 -124 -144 -265 -105
-298 28 -22 52 -3 122 95 85 122 162 198 256 256 41 25 128 80 194 123 66 42
179 106 250 142 161 81 185 98 185 128 0 45 -62 56 -170 30z"/>
<path d="M4797 6080 c-69 -11 -133 -38 -196 -83 -25 -18 -86 -57 -136 -87
-156 -93 -263 -170 -318 -230 -46 -49 -57 -69 -71 -126 -10 -38 -55 -145 -101
-239 -47 -94 -96 -210 -110 -259 -47 -165 -44 -336 9 -451 13 -28 63 -96 112
-151 49 -55 130 -149 179 -208 110 -131 209 -211 340 -275 275 -135 400 -144
600 -44 166 84 335 234 440 393 105 157 152 281 186 490 31 191 23 257 -45
337 -15 17 -49 87 -76 155 -81 200 -146 274 -305 349 -179 83 -370 92 -569 25
-145 -48 -237 -98 -313 -169 -144 -135 -234 -348 -234 -557 -1 -118 12 -171
67 -285 140 -291 456 -465 729 -401 125 30 209 79 316 186 83 83 102 108 146
198 37 75 59 137 79 220 42 183 43 189 64 214 20 23 20 23 36 3 13 -16 15 -37
11 -115 -14 -247 -130 -505 -298 -666 -235 -223 -489 -275 -762 -155 -169 73
-394 301 -481 484 -82 174 -83 341 -5 563 41 119 128 286 184 356 64 80 189
171 328 239 161 78 230 94 387 93 207 -2 364 -54 594 -199 109 -68 109 -68
223 -78 115 -9 115 -9 144 19 16 15 29 33 29 38 0 6 -16 20 -35 31 -19 11 -99
58 -177 104 -275 163 -414 223 -598 261 -117 24 -290 33 -373 20z m338 -585
c120 -31 217 -112 272 -224 25 -51 28 -66 27 -161 -1 -211 -66 -382 -194 -510
-82 -83 -145 -121 -235 -145 -320 -83 -646 190 -645 539 1 124 59 284 135 374
61 70 154 105 163 60 2 -9 -14 -41 -36 -70 -91 -121 -127 -234 -120 -370 5
-73 11 -100 40 -160 42 -88 108 -157 192 -201 57 -30 67 -32 166 -32 99 0 110
2 171 32 154 76 248 243 237 423 -19 307 -400 385 -496 101 -18 -52 -15 -141
7 -181 43 -81 145 -107 202 -51 16 16 29 36 29 45 0 24 -27 44 -54 39 -18 -4
-27 1 -36 16 -36 69 78 132 144 80 95 -75 65 -239 -57 -309 -43 -25 -63 -30
-117 -30 -78 0 -130 22 -182 76 -71 74 -100 183 -78 290 11 54 73 222 106 286
40 78 219 119 359 83z"/>
<path d="M3893 5581 c-22 -16 -79 -76 -127 -134 -51 -63 -106 -118 -136 -137
-67 -43 -84 -70 -125 -193 -60 -186 -79 -307 -80 -514 0 -181 0 -181 55 -289
79 -155 146 -260 183 -288 49 -36 191 -96 249 -105 55 -9 50 -5 146 -120 74
-88 239 -155 412 -167 129 -9 200 16 200 71 0 32 -27 49 -154 95 -225 82 -310
148 -439 340 -85 127 -169 231 -200 246 -26 14 -31 14 -48 -2 -10 -9 -19 -27
-19 -38 0 -29 38 -106 100 -205 59 -94 75 -156 44 -168 -27 -10 -175 151 -219
239 -39 78 -47 116 -71 326 -29 258 -7 437 75 607 21 44 79 142 129 217 107
161 122 188 122 223 0 21 -5 25 -28 25 -16 0 -47 -13 -69 -29z"/>
<path d="M5957 5543 c-18 -17 -1 -59 65 -169 179 -299 246 -523 235 -784 -10
-210 -58 -377 -178 -620 -205 -411 -389 -581 -693 -641 -77 -15 -171 -45 -320
-104 -343 -134 -420 -155 -581 -155 -109 0 -198 18 -349 70 -50 16 -104 30
-122 30 -34 0 -64 -21 -64 -46 0 -8 43 -60 95 -115 52 -55 95 -104 95 -109 0
-19 88 -59 165 -76 108 -23 281 -24 360 0 33 10 95 38 139 63 108 62 177 92
415 179 398 147 492 190 632 296 96 73 151 134 185 207 14 31 76 158 139 282
169 338 216 502 216 754 0 328 -105 656 -274 855 -56 65 -136 107 -160 83z"/>
<path d="M5710 5516 c-21 -27 -5 -80 78 -255 44 -91 85 -182 92 -201 7 -19 35
-55 61 -80 30 -29 51 -59 58 -85 59 -210 15 -488 -118 -753 -77 -153 -158
-260 -332 -437 -91 -93 -172 -180 -178 -192 -10 -19 -8 -26 9 -43 26 -26 34
-25 99 5 185 86 369 292 510 571 117 229 167 436 158 654 -8 187 -36 272 -176
531 -124 232 -159 278 -223 294 -16 4 -29 1 -38 -9z"/>
<path d="M5856 4951 c-11 -13 -21 -57 -32 -142 -26 -213 -66 -352 -144 -496
-134 -249 -412 -508 -690 -644 -69 -34 -172 -85 -230 -114 -138 -69 -230 -90
-361 -81 -105 6 -526 84 -597 110 -61 22 -147 82 -186 130 -44 53 -60 85 -150
300 -78 185 -104 226 -142 226 -70 0 -76 -189 -13 -364 87 -240 304 -460 527
-535 35 -12 109 -26 165 -31 56 -6 140 -17 187 -26 47 -8 148 -18 225 -21 115
-4 157 -2 235 15 116 24 262 78 395 145 98 50 104 54 327 282 125 127 241 249
259 271 201 251 312 561 296 830 -5 87 -26 164 -45 164 -5 0 -16 -8 -26 -19z"/>
<path d="M6937 3995 c-14 -30 -52 -94 -83 -142 -31 -48 -72 -116 -90 -151 -32
-60 -44 -112 -26 -112 15 0 124 205 192 362 44 102 48 127 7 43z"/>
<path d="M3663 3883 c-17 -44 87 -149 172 -173 50 -14 81 -7 90 21 11 32 -16
61 -110 117 -92 54 -140 65 -152 35z"/>
<path d="M6624 3331 c-45 -31 -134 -95 -197 -143 -309 -235 -648 -412 -1037
-543 -220 -74 -290 -89 -430 -89 -222 -1 -630 23 -770 45 -108 16 -328 33
-317 23 1 -1 81 -36 176 -79 203 -90 348 -139 469 -160 101 -18 416 -21 515
-5 143 23 527 144 702 223 230 102 470 263 663 442 77 72 317 334 311 339 -2
2 -41 -22 -85 -53z"/>
<path d="M5994 2550 c-113 -54 -296 -119 -544 -194 -221 -67 -272 -93 -269
-140 1 -15 3 -16 6 -5 6 22 35 34 171 69 196 49 298 87 497 185 161 79 246
126 225 124 -3 0 -42 -18 -86 -39z"/>
</g>
</svg>
