<?xml version="1.0" standalone="no"?>
<!DOCTYPE svg PUBLIC "-//W3C//DTD SVG 20010904//EN"
 "http://www.w3.org/TR/2001/REC-SVG-20010904/DTD/svg10.dtd">
<svg version="1.0" xmlns="http://www.w3.org/2000/svg"
 width="1000.000000pt" height="1000.000000pt" viewBox="0 0 1000.000000 1000.000000"
 preserveAspectRatio="xMidYMid meet">
<metadata>
  <rdf:RDF
    xmlns:rdf = "http://www.w3.org/1999/02/22-rdf-syntax-ns#"
    xmlns:rdfs = "http://www.w3.org/2000/01/rdf-schema#"
    xmlns:dc = "http://purl.org/dc/elements/1.1/"
    xmlns:cc = "http://creativecommons.org/ns#">
    <cc:license rdf:resource="http://creativecommons.org/publicdomain/zero/1.0/deed.en"/>
    <cc:permits rdf:resource="http://creativecommons.org/ns#Reproduction"/>
    <rdf:Description about="https://nft.mir.one/fingerprints"
      dc:title="TON Fingerprints"
      dc:description="This is a unique digital fingerprint created based on the algorithm for generating basic rings using a noise texture. Like human fingerprints, you can now use it for the Web3 and Metaverse era as digital biometric information."
      dc:publisher="https://nft.mir.one"
      dc:date="2022-02-22"
      dc:format="image/svg+xml"
      dc:language="en" >
      <dc:creator>
      <rdf:Bag>
        <rdf:li>EQBondcvD2_aOFADXSWJHs4ZazQDuEl9_wNvGGPxI8hGuOFU</rdf:li>
        <rdf:li>ipfs://bafkreihj7iub3fhmhq6jn62noukt5wxn3gv6bvcg7wmt6ywvlurefezckq</rdf:li>
      </rdf:Bag>
      </dc:creator>
    </rdf:Description>
  </rdf:RDF>
</metadata>
<rect width="100%" height="100%" fill="#1b1f23"/>
<g transform="translate(0.000000,1000.000000) scale(0.100000,-0.100000)"
fill="#ffffff" stroke="none">
<path d="M4850 7770 c88 -42 154 -63 291 -94 134 -30 210 -33 229 -11 7 9 11
17 9 19 -7 6 -236 53 -394 81 -82 15 -161 28 -175 31 -14 3 4 -9 40 -26z"/>
<path d="M4330 7615 c-58 -7 -112 -14 -120 -14 -26 -2 96 -48 162 -60 34 -7
176 -37 313 -67 312 -69 413 -86 695 -118 224 -26 584 -84 690 -111 123 -32
194 -64 228 -102 81 -92 125 -134 155 -149 28 -14 26 -10 -24 42 -30 33 -74
85 -98 116 -83 111 -205 180 -486 277 -250 87 -317 101 -520 111 -127 6 -228
18 -342 39 -275 52 -443 61 -653 36z"/>
<path d="M4135 7374 c-90 -15 -168 -37 -302 -85 -92 -32 -92 -32 -48 -56 35
-18 60 -23 120 -23 42 0 140 -7 218 -16 218 -23 978 -154 1282 -220 88 -19
216 -41 285 -49 136 -17 236 -43 315 -82 135 -68 270 -184 333 -288 20 -33 54
-85 77 -116 22 -31 73 -103 114 -159 202 -281 290 -494 310 -747 6 -76 20
-167 36 -223 91 -340 105 -418 105 -589 0 -198 -7 -219 -187 -626 -66 -148
-77 -180 -83 -251 -9 -91 -21 -120 -91 -214 -88 -120 -174 -189 -214 -174 -23
9 -19 19 36 86 28 35 80 107 116 160 50 74 66 105 67 134 1 30 -3 39 -17 42
-45 9 -160 -117 -224 -245 -33 -66 -35 -78 -30 -131 6 -59 6 -59 -55 -143
-153 -210 -348 -420 -494 -532 -186 -142 -334 -204 -587 -247 -153 -26 -225
-25 -547 5 -304 28 -458 52 -621 95 -243 64 -301 80 -312 86 -8 5 -9 4 -2 -4
6 -6 75 -44 155 -86 237 -122 441 -181 755 -216 115 -13 194 -28 242 -45 104
-36 85 -38 587 45 207 34 531 281 810 619 61 74 142 171 179 215 182 216 285
362 327 464 45 106 229 696 242 775 16 92 15 441 -1 572 -22 184 -91 568 -121
681 -70 262 -204 537 -333 681 -61 69 -107 134 -107 154 0 15 7 19 33 19 23 0
65 -21 145 -71 63 -39 115 -69 117 -67 12 11 -171 182 -245 230 -47 30 -134
93 -194 140 -250 197 -340 227 -981 328 -176 27 -462 77 -635 110 -495 93
-442 87 -575 64z"/>
<path d="M3808 7007 c-26 -8 -71 -30 -100 -49 -42 -27 -345 -285 -418 -354
-24 -24 94 27 253 108 252 129 324 135 659 49 214 -55 442 -90 753 -116 189
-15 292 -36 386 -78 186 -82 489 -356 679 -612 178 -239 363 -592 391 -745 10
-57 9 -82 -10 -195 -11 -72 -28 -186 -36 -255 -19 -153 -47 -292 -77 -385 -18
-55 -27 -70 -43 -70 -27 0 -45 40 -45 101 0 28 9 131 20 230 28 249 35 442 21
534 -57 364 -384 854 -751 1127 -203 150 -394 211 -467 149 -28 -24 -28 -24
-7 -53 12 -16 71 -55 137 -89 198 -106 325 -201 467 -351 234 -245 388 -528
435 -797 20 -118 19 -317 -5 -651 -22 -311 -36 -377 -124 -560 -72 -151 -149
-272 -245 -385 -273 -324 -620 -473 -1061 -457 -365 14 -680 140 -879 353
-117 125 -171 254 -171 409 0 101 59 417 106 567 107 340 380 567 704 585 186
10 343 -48 466 -171 82 -83 118 -142 179 -298 64 -162 59 -240 -11 -164 -48
52 -65 39 -93 -69 -14 -51 -54 -121 -125 -214 -59 -79 -64 -92 -42 -110 28
-24 90 16 190 121 65 69 100 99 113 96 77 -14 -60 -219 -189 -282 -73 -36
-328 -86 -438 -86 -172 0 -259 27 -414 128 -55 37 -89 52 -112 52 -31 0 -34
-3 -34 -29 0 -50 70 -134 255 -302 22 -20 57 -57 78 -83 136 -165 539 -181
832 -33 274 137 452 389 516 727 16 87 16 290 0 365 -18 83 -55 159 -149 311
-97 156 -146 224 -263 365 -49 58 -109 142 -135 185 -55 94 -176 246 -245 308
-96 87 -210 124 -405 133 -154 7 -318 -8 -450 -43 -246 -63 -651 -257 -763
-366 -46 -44 -121 -166 -152 -248 -85 -224 -83 -214 -39 -179 22 18 40 35 40
38 1 13 149 173 215 232 248 220 706 422 883 389 22 -4 57 -17 78 -29 30 -18
61 -23 178 -31 78 -5 166 -16 196 -25 152 -47 340 -179 340 -239 0 -32 -47
-28 -179 18 -246 85 -345 84 -556 -6 -319 -135 -487 -239 -645 -398 -117 -116
-185 -209 -254 -348 -102 -202 -133 -363 -115 -589 5 -70 13 -195 18 -278 10
-168 29 -241 102 -388 100 -199 241 -366 402 -475 258 -176 436 -239 817 -287
191 -25 532 -31 655 -12 305 48 560 182 800 424 145 146 215 244 307 433 100
205 149 280 263 400 103 107 137 154 189 257 148 295 182 559 101 798 -49 146
-150 334 -235 440 -45 55 -120 165 -167 245 -214 361 -354 539 -593 755 -66
60 -147 141 -180 180 -111 134 -264 187 -770 265 -113 17 -313 49 -445 71
-274 46 -502 60 -587 36z m911 -1696 c174 -44 238 -78 342 -181 94 -93 164
-190 227 -317 100 -197 115 -391 51 -640 -71 -281 -291 -485 -589 -548 -202
-42 -574 15 -511 78 8 8 73 12 209 12 170 1 209 4 287 23 263 66 433 226 456
431 5 42 16 122 25 178 23 146 2 269 -71 413 -141 278 -366 424 -676 437 -139
6 -242 -11 -368 -62 -455 -185 -715 -641 -715 -1260 -1 -150 1 -165 27 -240
65 -186 202 -338 407 -454 352 -200 831 -276 1230 -195 290 59 568 232 769
478 113 139 253 375 395 669 36 76 55 103 78 115 130 70 206 237 229 507 14
173 26 256 37 267 17 17 48 -1 66 -39 43 -91 39 -312 -9 -479 -37 -125 -92
-225 -212 -386 -113 -150 -157 -219 -292 -459 -98 -174 -181 -287 -295 -401
-219 -222 -476 -356 -766 -403 -187 -30 -484 -22 -720 21 -266 47 -626 190
-791 314 -94 70 -229 215 -266 286 -53 99 -63 157 -53 282 42 497 72 655 161
858 151 344 466 606 854 710 130 35 308 29 484 -15z"/>
<path d="M5711 6752 c-19 -35 5 -67 128 -166 275 -223 472 -475 695 -889 58
-107 100 -157 132 -157 26 0 44 26 44 64 0 79 -111 328 -224 501 -88 134 -250
349 -324 426 -122 130 -279 227 -383 236 -50 5 -58 3 -68 -15z"/>
<path d="M3728 6670 c-119 -40 -261 -113 -333 -171 -66 -52 -163 -150 -244
-246 -53 -63 -53 -63 11 -23 260 163 395 234 627 326 172 69 200 93 149 128
-35 24 -112 19 -210 -14z"/>
<path d="M3994 6548 c-38 -23 -165 -86 -282 -139 -333 -153 -433 -212 -497
-297 -80 -103 -22 -96 242 31 109 52 263 123 343 157 176 76 314 144 358 177
63 47 32 113 -53 113 -31 0 -59 -11 -111 -42z"/>
<path d="M4435 6440 c-44 -6 -91 -24 -185 -73 -69 -35 -235 -108 -370 -162
-135 -54 -310 -126 -389 -161 -80 -36 -182 -76 -227 -90 -76 -23 -88 -30 -134
-82 -28 -31 -71 -90 -96 -130 -24 -40 -51 -84 -60 -98 -17 -25 -17 -25 22 -7
21 10 76 44 122 75 91 61 380 194 617 283 265 100 547 165 714 165 127 0 192
-13 331 -65 63 -24 144 -51 180 -60 36 -9 83 -23 105 -31 187 -72 479 -384
604 -647 89 -186 111 -344 62 -436 -22 -42 -23 -51 -16 -155 4 -61 7 -164 6
-229 -3 -558 -326 -1011 -816 -1143 -90 -25 -117 -28 -275 -28 -154 -1 -184 2
-254 22 -110 32 -221 92 -309 167 -112 95 -166 163 -227 281 -64 124 -79 139
-112 106 -20 -20 -23 -33 -22 -95 0 -60 6 -85 31 -137 103 -220 331 -387 630
-462 77 -20 113 -23 288 -22 221 0 299 13 454 75 372 149 669 513 765 939 35
154 62 665 45 834 -22 217 -103 406 -272 634 -132 181 -293 322 -512 452 -80
47 -131 86 -185 142 -41 42 -91 84 -111 92 -82 34 -299 59 -404 46z"/>
<path d="M4943 5904 c-18 -8 -16 -55 4 -84 9 -14 53 -68 98 -120 192 -223 318
-398 430 -593 78 -137 123 -190 157 -185 37 5 36 76 -1 187 -71 211 -222 443
-412 631 -127 127 -227 186 -276 164z"/>
<path d="M3983 5680 c-146 -38 -376 -147 -517 -243 -165 -114 -328 -281 -388
-398 -59 -116 -99 -308 -113 -554 -6 -100 -6 -100 16 -45 11 30 37 100 56 155
74 212 177 386 321 537 161 169 316 271 606 399 61 27 127 60 148 74 41 27 60
71 37 86 -22 14 -88 10 -166 -11z"/>
<path d="M4305 4860 c-111 -22 -209 -76 -293 -160 -104 -105 -162 -244 -162
-387 0 -116 23 -154 115 -188 28 -10 116 -51 196 -91 166 -82 226 -98 320 -83
116 19 150 46 246 205 61 100 89 170 110 273 14 67 14 79 -1 133 -59 212 -296
345 -531 298z m194 -199 c69 -26 113 -63 147 -123 26 -47 29 -62 29 -138 -1
-75 -5 -93 -33 -151 -60 -124 -155 -192 -260 -187 -42 2 -57 7 -57 18 0 15 14
25 115 83 163 95 157 332 -9 354 -109 15 -187 -110 -104 -164 24 -16 27 -16
55 0 38 22 63 7 53 -32 -9 -36 -24 -51 -70 -72 -130 -60 -266 25 -265 164 1
106 99 221 220 258 46 14 129 9 179 -10z"/>
<path d="M6485 3103 c-237 -301 -384 -473 -483 -564 -61 -56 -62 -58 -12 -18
93 73 290 277 395 409 111 138 326 441 314 440 -2 0 -98 -120 -214 -267z"/>
<path d="M4268 2363 c6 -2 18 -2 25 0 6 3 1 5 -13 5 -14 0 -19 -2 -12 -5z"/>
<path d="M4420 2334 c149 -32 404 -44 435 -21 40 31 5 37 -275 42 -275 4 -275
4 -160 -21z"/>
<path d="M5335 2315 c-150 -58 -294 -120 -287 -123 32 -10 341 93 384 128 23
19 23 19 -7 19 -16 0 -57 -11 -90 -24z"/>
<path d="M5008 2183 c7 -3 16 -2 19 1 4 3 -2 6 -13 5 -11 0 -14 -3 -6 -6z"/>
</g>
</svg>
