<?xml version="1.0" standalone="no"?>
<!DOCTYPE svg PUBLIC "-//W3C//DTD SVG 20010904//EN"
 "http://www.w3.org/TR/2001/REC-SVG-20010904/DTD/svg10.dtd">
<svg version="1.0" xmlns="http://www.w3.org/2000/svg"
 width="1000.000000pt" height="1000.000000pt" viewBox="0 0 1000.000000 1000.000000"
 preserveAspectRatio="xMidYMid meet">
<metadata>
  <rdf:RDF
    xmlns:rdf = "http://www.w3.org/1999/02/22-rdf-syntax-ns#"
    xmlns:rdfs = "http://www.w3.org/2000/01/rdf-schema#"
    xmlns:dc = "http://purl.org/dc/elements/1.1/"
    xmlns:cc = "http://creativecommons.org/ns#">
    <cc:license rdf:resource="http://creativecommons.org/publicdomain/zero/1.0/deed.en"/>
    <cc:permits rdf:resource="http://creativecommons.org/ns#Reproduction"/>
    <rdf:Description about="https://nft.mir.one/fingerprints"
      dc:title="TON Fingerprints"
      dc:description="This is a unique digital fingerprint created based on the algorithm for generating basic rings using a noise texture. Like human fingerprints, you can now use it for the Web3 and Metaverse era as digital biometric information."
      dc:publisher="https://nft.mir.one"
      dc:date="2022-02-22"
      dc:format="image/svg+xml"
      dc:language="en" >
      <dc:creator>
      <rdf:Bag>
        <rdf:li>EQBondcvD2_aOFADXSWJHs4ZazQDuEl9_wNvGGPxI8hGuOFU</rdf:li>
        <rdf:li>ipfs://bafkreihj7iub3fhmhq6jn62noukt5wxn3gv6bvcg7wmt6ywvlurefezckq</rdf:li>
      </rdf:Bag>
      </dc:creator>
    </rdf:Description>
  </rdf:RDF>
</metadata>
<rect width="100%" height="100%" fill="#1b1f23"/>
<g transform="translate(0.000000,1000.000000) scale(0.100000,-0.100000)"
fill="#ffffff" stroke="none">
<path d="M4595 7730 c-3 -5 -51 -24 -106 -41 -143 -44 -208 -72 -323 -139 -55
-33 -125 -69 -154 -81 -29 -12 -51 -23 -49 -25 11 -12 176 53 231 91 91 62
129 80 244 114 114 34 157 53 165 76 7 17 2 20 -8 5z"/>
<path d="M4765 7626 c-33 -7 -136 -36 -228 -65 -250 -78 -291 -99 -252 -128
27 -19 54 -17 262 23 148 28 223 37 350 41 547 19 1103 -171 1455 -496 48 -44
107 -90 130 -102 24 -12 61 -35 83 -52 36 -27 2 9 -251 267 -256 262 -656 454
-1063 510 -132 19 -399 20 -486 2z"/>
<path d="M4675 7364 c-115 -18 -350 -35 -404 -30 -83 8 -152 -9 -280 -70 -197
-93 -376 -241 -517 -429 -48 -63 -256 -368 -287 -422 -4 -6 36 32 89 85 52 53
133 149 179 212 215 298 465 438 875 491 253 32 354 35 515 11 77 -12 178 -24
225 -27 375 -28 695 -131 920 -298 30 -23 92 -76 138 -119 73 -67 93 -80 151
-98 36 -10 110 -47 164 -80 54 -33 126 -75 160 -92 63 -31 173 -103 216 -142
28 -25 24 -16 -42 84 -66 99 -85 119 -132 140 -22 9 -86 60 -142 113 -122 114
-335 283 -455 361 -270 175 -576 271 -983 306 -110 9 -341 12 -390 4z"/>
<path d="M4480 7114 c-150 -21 -320 -60 -430 -101 -239 -88 -460 -253 -460
-345 0 -47 48 -38 155 28 139 86 315 170 448 213 67 22 223 60 346 85 170 34
229 50 244 65 17 16 18 23 8 35 -31 38 -132 44 -311 20z"/>
<path d="M4953 7030 c-45 -5 -79 -17 -120 -42 -84 -50 -93 -53 -320 -108 -257
-63 -380 -108 -609 -221 -128 -63 -203 -94 -255 -105 -87 -18 -126 -43 -212
-133 -162 -172 -296 -459 -364 -781 -24 -112 -27 -147 -27 -330 -1 -192 1
-209 23 -264 27 -66 104 -206 211 -381 106 -172 132 -252 94 -289 -21 -22 -26
-21 -60 17 -70 75 -168 234 -261 422 -62 127 -90 165 -120 165 -12 0 -12 -2 1
-15 8 -8 20 -41 26 -73 21 -108 79 -312 110 -385 48 -115 81 -159 169 -226 50
-38 108 -96 155 -154 83 -104 117 -138 233 -230 172 -138 341 -220 733 -356
129 -45 282 -104 340 -131 182 -86 320 -108 474 -75 37 8 152 42 255 76 212
69 292 89 372 89 77 0 140 22 305 105 337 171 534 358 674 640 95 192 133 368
133 620 0 231 -44 406 -160 642 -138 280 -349 539 -581 711 -98 73 -146 89
-282 95 -73 4 -168 19 -310 50 -113 25 -250 51 -304 58 -149 18 -327 7 -556
-36 -350 -64 -432 -92 -604 -206 -284 -187 -458 -462 -495 -779 -16 -134 -22
-526 -10 -600 22 -138 111 -262 210 -295 38 -13 76 -40 146 -104 216 -196 401
-305 652 -385 170 -54 287 -70 460 -63 299 11 562 117 767 310 118 110 211
268 255 432 28 103 30 296 5 398 -81 337 -361 607 -631 611 -78 1 -121 -13
-178 -57 -29 -22 -62 -35 -130 -49 -166 -33 -256 -71 -365 -153 -72 -55 -150
-159 -183 -244 -27 -71 -37 -217 -19 -292 43 -186 159 -302 329 -330 178 -28
371 79 431 239 29 77 25 185 -10 257 -75 153 -244 218 -381 147 -96 -50 -146
-171 -104 -252 33 -64 104 -89 153 -54 33 23 27 76 -8 84 -18 4 -26 14 -28 32
-4 34 30 58 81 58 32 0 46 -7 77 -38 127 -126 -20 -332 -208 -291 -71 15 -134
67 -168 136 -25 49 -29 70 -29 138 1 65 6 91 27 137 70 150 257 251 409 219
116 -24 256 -135 318 -250 72 -136 74 -278 5 -420 -88 -179 -280 -291 -499
-291 -200 0 -387 98 -445 232 -66 154 -94 364 -66 492 29 129 85 227 190 332
102 103 195 162 333 214 48 18 156 60 238 93 140 56 156 60 230 61 274 0 561
-200 715 -500 84 -164 116 -316 107 -512 -7 -150 -28 -236 -92 -369 -156 -321
-471 -543 -901 -634 -151 -32 -373 -32 -522 0 -227 48 -471 147 -665 269 -144
90 -477 343 -526 399 -41 46 -142 237 -157 296 -7 29 -9 31 -57 42 -100 22
-197 278 -197 519 0 320 131 646 356 885 92 98 161 145 375 255 275 142 409
189 839 296 237 58 347 69 509 51 285 -34 534 -137 676 -280 63 -65 75 -70 99
-45 37 36 12 118 -60 194 -151 161 -463 282 -802 310 -127 11 -128 11 -219 0z
m330 -771 c122 -18 456 -97 573 -135 386 -123 719 -540 820 -1025 22 -104 25
-342 5 -449 -69 -383 -320 -707 -696 -899 -110 -57 -159 -74 -400 -141 -292
-82 -397 -102 -530 -102 -143 0 -222 17 -490 106 -378 127 -616 239 -810 384
-104 77 -216 185 -240 231 -22 43 -16 75 13 79 28 4 72 -24 202 -127 270 -215
563 -365 912 -466 316 -92 535 -89 879 11 304 88 509 203 682 383 141 147 231
303 283 496 25 90 27 117 28 270 0 192 -15 275 -81 440 -66 168 -139 281 -267
413 -164 169 -304 244 -591 317 -93 24 -210 55 -260 70 -76 23 -108 27 -205
27 -216 0 -343 -51 -545 -220 -224 -187 -310 -293 -423 -519 -34 -67 -79 -149
-102 -184 -48 -74 -50 -101 -11 -177 16 -32 48 -114 71 -182 72 -218 107 -264
289 -384 258 -170 396 -219 616 -219 90 0 140 6 200 22 219 59 388 189 476
366 88 179 90 358 3 533 -47 97 -131 184 -260 272 -74 50 -106 78 -110 97 -9
34 7 42 64 31 244 -45 434 -222 513 -478 18 -59 23 -99 24 -185 0 -207 -65
-366 -213 -518 -152 -156 -355 -252 -590 -278 -293 -33 -672 98 -905 311 -117
108 -145 161 -207 403 -21 82 -44 155 -50 163 -22 25 -50 17 -66 -21 -20 -48
-18 -112 7 -240 25 -126 21 -168 -14 -163 -27 4 -80 104 -103 198 -14 54 -15
89 -9 205 5 77 9 212 10 300 2 126 7 176 24 238 25 94 84 215 148 306 170 238
513 445 611 368 22 -17 13 -26 -54 -57 -153 -69 -342 -222 -443 -359 -152
-205 -223 -501 -120 -501 24 0 40 26 79 125 92 235 199 378 418 559 125 103
140 120 161 178 34 92 431 166 684 127z m-24 -274 c30 -30 0 -48 -150 -92
-172 -49 -257 -86 -364 -158 -197 -131 -341 -321 -396 -522 -33 -119 -24 -268
26 -426 30 -94 35 -120 25 -132 -23 -28 -70 11 -115 97 -78 148 -102 359 -56
493 76 224 226 424 431 575 131 96 244 148 385 176 84 16 192 11 214 -11z"/>
<path d="M4897 6705 c-145 -24 -394 -84 -537 -131 -242 -79 -517 -230 -664
-365 -180 -165 -315 -424 -362 -693 -32 -181 -5 -446 61 -608 31 -73 44 -78
73 -24 14 27 16 68 17 296 1 283 6 326 60 486 115 343 409 617 813 758 122 42
372 99 537 122 87 12 160 15 265 11 171 -6 258 -21 480 -82 215 -59 296 -60
288 -4 -6 48 -295 172 -511 220 -122 27 -394 34 -520 14z"/>
<path d="M6200 6564 c-28 -72 15 -141 195 -319 84 -82 178 -180 208 -217 134
-161 273 -392 452 -753 19 -38 35 -64 35 -58 0 7 -15 72 -34 145 -106 409
-288 797 -439 934 -120 109 -347 284 -376 290 -27 6 -32 3 -41 -22z"/>
<path d="M3020 4213 c117 -217 247 -395 359 -489 109 -93 245 -187 326 -228
39 -20 138 -53 220 -75 83 -22 229 -62 325 -89 200 -57 295 -75 360 -70 40 3
45 6 45 28 0 37 -65 67 -315 145 -582 181 -687 241 -1079 616 -115 110 -228
213 -251 230 -42 31 -42 31 10 -68z"/>
<path d="M6993 4177 c-6 -13 -31 -45 -56 -73 -25 -27 -79 -94 -120 -149 -89
-119 -221 -249 -314 -309 -38 -24 -171 -95 -298 -159 -193 -97 -242 -127 -305
-183 -69 -61 -169 -125 -309 -200 -30 -16 -80 -52 -110 -80 -31 -28 -77 -63
-102 -77 -25 -15 -55 -37 -65 -48 -26 -29 -91 -61 -117 -57 -24 3 -32 26 -23
62 15 59 212 204 443 325 145 76 195 114 191 145 -3 19 -9 21 -58 20 -62 -2
-135 -29 -445 -167 -104 -46 -219 -95 -254 -108 -35 -13 -66 -31 -68 -39 -24
-70 -48 -103 -97 -130 -28 -16 -74 -35 -102 -41 -45 -10 -56 -9 -100 10 -27
12 -80 26 -119 32 -38 5 -133 18 -210 28 -303 42 -515 138 -566 258 -16 37
-33 53 -121 110 -132 85 -260 180 -370 274 -95 80 -190 151 -172 128 6 -8 57
-77 114 -154 76 -104 151 -188 289 -326 187 -187 251 -239 371 -299 163 -82
299 -111 565 -119 191 -6 200 -7 200 -26 0 -14 -15 -27 -50 -45 -48 -24 -57
-25 -240 -25 -281 0 -420 37 -631 167 -55 33 -139 85 -189 114 -90 54 -90 54
-25 -7 225 -214 429 -349 580 -383 127 -29 248 -38 365 -27 113 11 162 22 375
85 69 21 155 40 193 43 59 5 77 2 140 -23 61 -24 86 -29 162 -29 85 1 94 3
156 37 36 20 99 44 140 54 144 32 273 88 479 207 58 33 150 82 205 108 103 49
228 139 216 156 -31 50 -239 -19 -507 -167 -258 -142 -408 -195 -482 -169 -18
6 -32 18 -32 26 0 14 9 19 179 88 51 21 152 74 225 118 208 126 411 218 564
257 92 23 236 195 360 430 63 118 166 350 159 356 -2 2 -8 -6 -14 -19z m-1515
-1349 c29 -25 13 -38 -47 -38 -81 0 -120 37 -56 53 26 7 87 -2 103 -15z"/>
<path d="M3846 3308 c-16 -13 -17 -17 -5 -36 47 -75 387 -185 657 -213 197
-20 432 1 457 41 3 5 -6 22 -20 38 -50 59 -173 79 -301 49 -107 -25 -237 -5
-523 79 -178 53 -238 62 -265 42z"/>
<path d="M6344 3023 c-124 -89 -268 -180 -367 -230 -129 -64 -421 -165 -561
-194 -109 -22 -111 -23 -143 -52 -23 -20 -23 -20 -78 8 -54 27 -60 28 -153 22
-53 -4 -160 -18 -238 -31 -230 -41 -382 -51 -545 -37 -181 15 -203 5 -77 -37
122 -40 232 -60 394 -72 210 -15 531 13 631 55 21 9 69 14 126 14 101 0 152 9
272 47 281 91 573 266 736 441 85 91 87 127 3 66z"/>
<path d="M5820 2438 c-119 -42 -251 -70 -596 -127 -402 -67 -490 -80 -584 -85
-36 -2 43 -2 175 -1 180 3 274 9 378 25 170 25 370 76 502 125 164 62 265 112
125 63z"/>
</g>
</svg>
