<?xml version="1.0" standalone="no"?>
<!DOCTYPE svg PUBLIC "-//W3C//DTD SVG 20010904//EN"
 "http://www.w3.org/TR/2001/REC-SVG-20010904/DTD/svg10.dtd">
<svg version="1.0" xmlns="http://www.w3.org/2000/svg"
 width="1000.000000pt" height="1000.000000pt" viewBox="0 0 1000.000000 1000.000000"
 preserveAspectRatio="xMidYMid meet">
<metadata>
  <rdf:RDF
    xmlns:rdf = "http://www.w3.org/1999/02/22-rdf-syntax-ns#"
    xmlns:rdfs = "http://www.w3.org/2000/01/rdf-schema#"
    xmlns:dc = "http://purl.org/dc/elements/1.1/"
    xmlns:cc = "http://creativecommons.org/ns#">
    <cc:license rdf:resource="http://creativecommons.org/publicdomain/zero/1.0/deed.en"/>
    <cc:permits rdf:resource="http://creativecommons.org/ns#Reproduction"/>
    <rdf:Description about="https://nft.mir.one/fingerprints"
      dc:title="TON Fingerprints"
      dc:description="This is a unique digital fingerprint created based on the algorithm for generating basic rings using a noise texture. Like human fingerprints, you can now use it for the Web3 and Metaverse era as digital biometric information."
      dc:publisher="https://nft.mir.one"
      dc:date="2022-02-22"
      dc:format="image/svg+xml"
      dc:language="en" >
      <dc:creator>
      <rdf:Bag>
        <rdf:li>EQBondcvD2_aOFADXSWJHs4ZazQDuEl9_wNvGGPxI8hGuOFU</rdf:li>
        <rdf:li>ipfs://bafkreihj7iub3fhmhq6jn62noukt5wxn3gv6bvcg7wmt6ywvlurefezckq</rdf:li>
      </rdf:Bag>
      </dc:creator>
    </rdf:Description>
  </rdf:RDF>
</metadata>
<rect width="100%" height="100%" fill="#1b1f23"/>
<g transform="translate(0.000000,1000.000000) scale(0.100000,-0.100000)"
fill="#ffffff" stroke="none">
<path d="M4993 7813 c9 -2 25 -2 35 0 9 3 1 5 -18 5 -19 0 -27 -2 -17 -5z"/>
<path d="M4788 7803 c34 -2 90 -2 125 0 34 2 6 3 -63 3 -69 0 -97 -1 -62 -3z"/>
<path d="M5582 7682 c73 -87 194 -174 523 -377 61 -38 146 -95 190 -127 80
-58 80 -58 20 -2 -89 83 -269 216 -445 328 -85 55 -191 124 -235 154 -68 48
-76 51 -53 24z"/>
<path d="M4445 7565 c-109 -21 -216 -51 -300 -84 -69 -28 -369 -178 -330 -166
11 4 58 15 105 25 47 10 132 30 190 44 147 37 337 53 440 38 96 -14 157 -42
166 -77 12 -48 -6 -55 -147 -55 -427 0 -699 -103 -964 -365 -204 -202 -490
-739 -584 -1098 -32 -119 -85 -387 -78 -393 6 -7 34 103 57 223 27 147 58 239
134 398 160 334 396 655 585 794 98 72 233 146 346 190 158 61 221 73 390 76
165 2 190 8 299 74 77 46 147 52 270 21 163 -41 578 -229 817 -370 123 -73
235 -167 227 -192 -11 -32 -60 -18 -238 66 -245 116 -352 161 -505 211 -161
54 -235 68 -350 68 -164 0 -297 -47 -426 -151 -42 -33 -137 -100 -210 -147
-278 -182 -345 -247 -433 -424 -35 -69 -92 -173 -128 -231 -153 -247 -332
-591 -374 -718 -58 -178 -68 -415 -24 -587 38 -151 100 -255 255 -431 65 -73
113 -138 260 -349 75 -108 160 -190 274 -267 225 -150 491 -250 771 -289 47
-6 90 -16 95 -21 7 -6 0 -18 -18 -34 -25 -21 -37 -24 -116 -24 -192 0 -390 60
-668 200 -108 55 -206 100 -218 100 -13 0 -29 -7 -36 -16 -11 -13 -10 -22 6
-52 54 -101 352 -256 608 -317 179 -42 263 -49 437 -35 91 7 199 10 260 6 58
-4 144 -9 191 -12 77 -5 94 -3 178 25 163 55 481 232 681 381 155 115 299 300
405 522 98 204 145 384 167 629 18 218 -15 481 -82 636 -18 42 -28 53 -70 72
-50 23 -85 57 -208 204 -105 127 -171 169 -202 132 -30 -36 7 -103 194 -347
86 -112 143 -223 172 -333 30 -111 27 -414 -4 -555 -63 -282 -203 -543 -391
-730 -152 -151 -363 -288 -563 -368 -149 -59 -237 -75 -403 -75 -201 0 -249 7
-293 48 -53 47 -99 67 -262 114 -268 78 -477 177 -561 268 -40 44 -53 96 -26
106 8 3 49 -17 93 -45 92 -58 204 -115 295 -153 114 -46 547 -174 632 -185
314 -44 708 116 987 399 177 180 301 413 356 671 25 117 29 307 10 418 -30
171 -87 286 -230 461 -34 42 -94 128 -133 191 -80 130 -167 221 -278 292 -280
181 -652 286 -915 258 -388 -40 -719 -279 -937 -678 -110 -199 -193 -490 -218
-762 -22 -238 -41 -320 -76 -320 -10 0 -36 15 -56 34 -21 18 -50 36 -65 40
-100 24 -168 193 -168 419 0 305 128 617 458 1117 143 217 240 318 421 439
451 300 688 317 1292 93 142 -53 257 -89 339 -106 161 -34 385 -120 477 -186
80 -56 220 -197 287 -290 123 -167 195 -335 226 -521 11 -68 31 -182 45 -254
13 -71 25 -148 26 -170 1 -22 4 -31 6 -21 3 11 0 69 -6 130 -55 545 -131 771
-410 1220 -48 77 -107 179 -130 226 -58 117 -134 215 -270 350 -136 135 -246
220 -483 371 -300 191 -435 246 -484 197 -39 -38 2 -73 301 -255 381 -232 522
-337 667 -495 119 -131 158 -184 158 -219 0 -25 -4 -29 -29 -29 -46 0 -144 73
-220 164 -127 152 -239 235 -581 431 -265 152 -304 179 -384 268 -75 85 -97
96 -243 127 -132 29 -412 36 -528 15z m928 -1559 c108 -28 270 -101 359 -162
75 -52 242 -199 319 -282 34 -36 73 -90 86 -119 23 -51 24 -58 13 -116 -8 -44
-8 -100 -2 -197 25 -360 -58 -615 -272 -839 -207 -214 -496 -317 -819 -289
-198 16 -364 71 -567 184 -123 68 -162 77 -180 43 -31 -57 41 -125 225 -214
142 -69 267 -112 426 -147 84 -18 136 -22 269 -22 149 -1 174 2 263 27 351 97
624 347 747 684 42 116 61 230 61 368 0 133 -8 189 -47 317 -25 80 -27 118 -7
118 4 0 22 -8 39 -19 42 -25 99 -138 125 -247 18 -78 20 -110 16 -249 -4 -133
-9 -176 -31 -255 -123 -438 -481 -776 -916 -865 -115 -23 -335 -17 -470 14
-220 51 -343 94 -575 203 -242 113 -236 110 -266 148 -24 30 -105 233 -155
389 -16 52 -18 179 -3 271 14 90 102 438 135 535 130 387 425 662 794 741 102
21 311 12 433 -20z"/>
<path d="M4935 5865 c-116 -26 -215 -67 -305 -128 -66 -45 -187 -164 -230
-227 -81 -120 -106 -186 -155 -423 -30 -143 -44 -188 -83 -266 -43 -87 -46
-100 -50 -185 -4 -86 -3 -94 19 -120 48 -55 85 -4 100 137 12 129 16 139 41
135 31 -4 53 -48 84 -163 57 -215 134 -323 284 -396 534 -259 1163 -35 1340
477 73 210 80 570 12 704 -30 62 -68 84 -98 60 -14 -13 -15 -30 -8 -170 16
-303 -2 -445 -80 -605 -91 -186 -258 -317 -503 -392 -80 -24 -102 -27 -248
-27 -132 0 -173 4 -236 21 -96 27 -200 77 -235 114 -26 27 -27 30 -11 46 19
19 38 16 192 -32 81 -26 105 -29 235 -29 157 -1 214 11 340 74 30 15 90 42
133 60 134 56 225 171 273 345 38 136 22 576 -25 678 -83 185 -362 328 -636
326 -49 0 -117 -7 -150 -14z m316 -211 c171 -54 293 -185 344 -370 24 -91 30
-273 11 -364 -29 -138 -127 -300 -171 -284 -22 9 -19 40 16 145 40 122 51 288
24 389 -38 145 -117 245 -243 307 -75 37 -78 38 -191 38 -95 0 -127 -4 -176
-23 -90 -33 -186 -104 -281 -208 -91 -99 -109 -111 -130 -93 -45 37 15 169
131 285 186 187 428 252 666 178z m-128 -350 c147 -50 237 -236 209 -433 -17
-120 -46 -188 -106 -246 -93 -91 -233 -117 -411 -76 -239 56 -360 178 -360
363 0 71 2 79 29 107 55 58 96 37 96 -49 0 -120 68 -223 184 -280 156 -77 322
-56 409 52 36 45 49 125 23 147 -14 12 -24 6 -75 -41 -43 -40 -72 -58 -107
-67 -150 -38 -293 79 -311 253 -8 73 -1 95 48 150 105 119 244 164 372 120z"/>
<path d="M4995 5129 c-43 -26 -47 -73 -10 -117 18 -22 21 -32 13 -40 -17 -17
-35 -15 -84 9 -23 12 -50 19 -58 16 -22 -9 -20 -49 4 -79 46 -59 131 -62 243
-8 67 32 67 32 67 78 0 52 -25 102 -63 127 -33 21 -87 28 -112 14z"/>
<path d="M6415 7080 c10 -11 20 -20 23 -20 3 0 -3 9 -13 20 -10 11 -20 20 -23
20 -3 0 3 -9 13 -20z"/>
<path d="M4271 6974 c-195 -65 -395 -184 -596 -354 -289 -245 -545 -715 -545
-1001 0 -47 -12 -139 -32 -236 -30 -148 -32 -172 -32 -383 -1 -180 3 -243 17
-314 51 -251 124 -404 407 -851 69 -108 100 -178 100 -224 0 -44 -10 -61 -35
-61 -17 0 -43 26 -102 103 -116 148 -187 250 -250 356 -66 112 -236 459 -254
519 -6 23 -14 40 -16 38 -6 -6 49 -211 92 -341 78 -235 164 -419 268 -574 88
-131 154 -181 240 -181 36 0 58 -12 132 -70 83 -66 171 -118 343 -204 232
-116 459 -192 697 -233 140 -24 443 -24 539 0 129 32 183 81 135 120 -22 18
-33 19 -164 11 -238 -15 -425 -10 -555 15 -276 54 -573 181 -695 298 -49 46
-76 95 -94 165 -6 26 -24 69 -39 95 -67 113 -221 355 -326 512 -163 243 -230
388 -271 586 -25 118 -22 331 5 465 27 134 50 191 131 320 36 58 104 175 151
260 46 85 128 224 181 308 99 158 118 202 97 227 -18 21 -32 19 -73 -12 -83
-63 -197 -235 -339 -509 -88 -171 -128 -229 -151 -221 -22 7 -18 52 14 142 73
207 242 497 358 613 33 33 89 74 129 95 38 20 114 71 168 113 138 106 219 160
375 248 122 70 189 121 189 145 0 5 -7 17 -16 25 -23 23 -96 19 -183 -10z"/>
<path d="M4885 6575 c-207 -46 -444 -174 -613 -331 -262 -243 -544 -737 -617
-1080 -39 -183 -27 -438 27 -542 28 -55 42 -61 63 -29 12 19 18 69 24 223 14
301 60 483 191 744 287 572 755 880 1260 830 310 -31 691 -174 1000 -375 58
-38 137 -80 176 -95 130 -49 213 -124 315 -286 30 -48 66 -101 82 -118 27 -31
27 -31 48 -6 18 21 20 34 16 75 -24 230 -298 524 -638 684 -110 52 -594 223
-757 267 -52 14 -134 32 -181 40 -106 17 -315 17 -396 -1z"/>
<path d="M2931 5404 c0 -11 3 -14 6 -6 3 7 2 16 -1 19 -3 4 -6 -2 -5 -13z"/>
<path d="M7093 4915 c0 -33 2 -45 4 -27 2 18 2 45 0 60 -2 15 -4 0 -4 -33z"/>
<path d="M7082 4710 c0 -14 2 -19 5 -12 2 6 2 18 0 25 -3 6 -5 1 -5 -13z"/>
<path d="M7071 4624 c0 -11 3 -14 6 -6 3 7 2 16 -1 19 -3 4 -6 -2 -5 -13z"/>
<path d="M7062 4560 c0 -14 2 -19 5 -12 2 6 2 18 0 25 -3 6 -5 1 -5 -13z"/>
<path d="M7040 4463 c-21 -99 -59 -191 -160 -398 -192 -390 -299 -514 -563
-654 -54 -28 -151 -87 -215 -130 -152 -102 -287 -179 -447 -257 -71 -35 -166
-84 -211 -109 -125 -70 -206 -88 -409 -89 -332 -2 -623 67 -1049 247 -175 73
-197 80 -280 87 -96 7 -122 17 -216 80 -30 20 -72 42 -92 49 -20 7 -54 24 -75
38 -33 22 -31 18 22 -38 88 -93 164 -184 227 -270 98 -133 178 -198 368 -297
173 -91 283 -134 525 -207 294 -89 323 -95 501 -95 123 0 154 -3 164 -15 10
-13 9 -19 -6 -37 -37 -41 -90 -57 -304 -94 -81 -14 -160 -39 -148 -48 7 -6
294 14 351 25 62 11 97 23 308 107 154 61 280 124 384 190 79 51 99 55 108 22
7 -28 -12 -121 -33 -157 -11 -18 -17 -33 -15 -33 2 0 40 44 83 98 44 53 171
192 284 309 259 267 325 351 370 471 23 63 49 103 132 207 97 120 228 398 321
680 50 151 102 361 93 371 -3 2 -11 -22 -18 -53z m-600 -1180 c0 -25 -33 -77
-93 -145 -57 -65 -369 -358 -461 -434 -58 -48 -58 -48 -140 -50 -74 -1 -94 -6
-224 -58 -79 -32 -177 -65 -218 -74 -70 -15 -80 -14 -146 2 -40 9 -135 24
-213 32 -299 32 -678 132 -1005 264 -141 56 -220 101 -261 148 -31 35 -39 86
-15 95 8 3 67 -21 132 -54 412 -207 928 -339 1330 -339 147 0 233 18 414 87
262 99 341 146 625 374 94 75 184 144 200 152 41 22 75 22 75 0z"/>
<path d="M4105 2475 c94 -41 241 -90 371 -125 65 -18 127 -39 136 -47 16 -14
18 -14 24 1 3 9 0 24 -7 33 -29 34 -84 50 -444 132 -49 11 -101 23 -115 26
-14 3 2 -6 35 -20z"/>
</g>
</svg>
