<?xml version="1.0" standalone="no"?>
<!DOCTYPE svg PUBLIC "-//W3C//DTD SVG 20010904//EN"
 "http://www.w3.org/TR/2001/REC-SVG-20010904/DTD/svg10.dtd">
<svg version="1.0" xmlns="http://www.w3.org/2000/svg"
 width="1000.000000pt" height="1000.000000pt" viewBox="0 0 1000.000000 1000.000000"
 preserveAspectRatio="xMidYMid meet">
<metadata>
  <rdf:RDF
    xmlns:rdf = "http://www.w3.org/1999/02/22-rdf-syntax-ns#"
    xmlns:rdfs = "http://www.w3.org/2000/01/rdf-schema#"
    xmlns:dc = "http://purl.org/dc/elements/1.1/"
    xmlns:cc = "http://creativecommons.org/ns#">
    <cc:license rdf:resource="http://creativecommons.org/publicdomain/zero/1.0/deed.en"/>
    <cc:permits rdf:resource="http://creativecommons.org/ns#Reproduction"/>
    <rdf:Description about="https://nft.mir.one/fingerprints"
      dc:title="TON Fingerprints"
      dc:description="This is a unique digital fingerprint created based on the algorithm for generating basic rings using a noise texture. Like human fingerprints, you can now use it for the Web3 and Metaverse era as digital biometric information."
      dc:publisher="https://nft.mir.one"
      dc:date="2022-02-22"
      dc:format="image/svg+xml"
      dc:language="en" >
      <dc:creator>
      <rdf:Bag>
        <rdf:li>EQBondcvD2_aOFADXSWJHs4ZazQDuEl9_wNvGGPxI8hGuOFU</rdf:li>
        <rdf:li>ipfs://bafkreihj7iub3fhmhq6jn62noukt5wxn3gv6bvcg7wmt6ywvlurefezckq</rdf:li>
      </rdf:Bag>
      </dc:creator>
    </rdf:Description>
  </rdf:RDF>
</metadata>
<rect width="100%" height="100%" fill="#1b1f23"/>
<g transform="translate(0.000000,1000.000000) scale(0.100000,-0.100000)"
fill="#ffffff" stroke="none">
<path d="M5225 7750 c-44 -9 -120 -25 -170 -34 -105 -20 -421 -113 -533 -157
-112 -44 -282 -135 -397 -211 -188 -124 -461 -354 -695 -582 -135 -132 -135
-132 -83 -126 65 7 116 34 383 200 212 132 241 155 331 261 50 59 281 229 394
290 76 41 155 71 311 118 65 20 115 42 140 62 57 45 97 63 215 98 118 34 261
102 212 100 -15 0 -64 -9 -108 -19z"/>
<path d="M4470 7720 c-8 -5 -10 -10 -5 -10 6 0 17 5 25 10 8 5 11 10 5 10 -5
0 -17 -5 -25 -10z"/>
<path d="M4410 7695 c-14 -8 -20 -14 -15 -14 6 0 21 6 35 14 14 8 21 14 15 14
-5 0 -21 -6 -35 -14z"/>
<path d="M4248 7619 c-65 -32 -118 -61 -118 -64 0 -5 239 112 249 121 16 15
-30 -5 -131 -57z"/>
<path d="M5210 7581 c-166 -18 -260 -47 -260 -81 0 -39 38 -44 405 -51 199 -4
372 -12 400 -18 46 -10 282 -17 291 -8 2 2 -65 25 -149 52 -83 26 -170 56
-192 65 -72 31 -361 55 -495 41z"/>
<path d="M4088 7534 c-38 -20 -36 -28 2 -9 17 9 30 18 30 20 0 7 -1 6 -32 -11z"/>
<path d="M4710 7366 c-183 -41 -317 -118 -296 -172 8 -20 45 -17 181 13 108
24 139 27 315 27 222 0 300 -13 415 -67 38 -19 124 -51 189 -71 124 -39 255
-101 500 -235 261 -143 415 -258 660 -489 68 -64 148 -130 178 -146 51 -27 52
-27 32 -5 -12 13 -59 78 -104 144 -102 149 -170 232 -271 334 -134 135 -207
184 -478 321 -146 74 -209 122 -242 186 -14 27 -27 34 -95 52 -100 27 -321 67
-444 81 -52 6 -154 18 -227 26 -154 17 -237 18 -313 1z"/>
<path d="M5840 7271 c-25 -21 -25 -21 -4 -39 12 -10 87 -45 165 -76 79 -32
205 -89 279 -126 74 -38 162 -80 195 -94 60 -26 60 -26 20 9 -290 254 -573
395 -655 326z"/>
<path d="M4294 7111 c-88 -34 -137 -64 -164 -98 -24 -31 -25 -37 -4 -57 18
-19 96 -21 189 -6 123 19 497 51 700 59 224 9 255 15 255 55 0 19 -10 28 -42
42 -62 26 -362 31 -564 10 -136 -14 -156 -14 -205 0 -30 8 -63 17 -74 20 -11
2 -52 -9 -91 -25z"/>
<path d="M5290 6934 c-36 -7 -171 -20 -300 -29 -246 -16 -355 -30 -580 -70
-74 -14 -190 -34 -258 -45 -151 -24 -237 -59 -374 -150 -130 -86 -185 -144
-243 -261 -42 -83 -125 -215 -341 -539 -34 -52 -77 -125 -94 -161 -32 -69 -59
-174 -47 -185 16 -16 54 17 90 78 47 80 74 110 95 106 13 -3 17 -14 16 -49 0
-35 -15 -77 -62 -175 -78 -163 -92 -225 -92 -424 0 -255 40 -450 149 -734 85
-220 81 -273 -12 -174 -91 96 -177 286 -256 563 -48 170 -53 206 -61 420 -8
200 -8 200 -5 -35 2 -150 9 -273 19 -340 20 -130 78 -366 112 -457 55 -146
140 -264 198 -275 37 -7 94 6 125 30 61 45 61 119 1 362 -108 438 -114 664
-30 1000 22 85 47 202 56 260 19 124 54 219 128 344 164 278 308 426 512 529
101 51 561 203 669 222 212 36 607 46 756 20 245 -42 568 -206 737 -373 74
-73 231 -278 293 -382 21 -36 74 -153 118 -260 108 -266 98 -244 236 -530 68
-140 133 -286 145 -325 12 -38 33 -99 46 -135 14 -36 29 -94 33 -130 5 -36 9
-54 10 -40 2 56 -20 310 -34 387 -20 109 -97 329 -190 547 -75 177 -125 325
-125 373 0 34 18 63 39 63 22 0 86 -127 126 -250 39 -119 97 -238 139 -285 36
-40 36 -40 12 15 -32 75 -70 198 -96 311 -12 52 -34 116 -48 142 -27 50 -74
97 -97 97 -7 0 -66 64 -132 142 -219 264 -417 443 -629 568 -200 118 -413 209
-552 236 -87 16 -115 16 -202 -2z"/>
<path d="M4970 6663 c-116 -4 -265 -23 -323 -40 -94 -27 -150 -91 -96 -108 12
-4 121 -2 243 5 521 29 859 -54 1216 -297 132 -91 147 -116 69 -121 -39 -3
-65 7 -205 76 -370 184 -524 220 -971 231 -292 7 -292 7 -358 41 -66 33 -66
33 -148 16 -210 -45 -373 -133 -522 -281 -112 -111 -181 -207 -248 -340 -54
-109 -76 -175 -122 -368 -51 -211 -65 -320 -65 -502 0 -196 16 -337 75 -650
72 -379 74 -385 186 -490 65 -60 227 -175 330 -233 87 -49 251 -99 369 -113
238 -27 591 29 852 136 180 74 357 169 420 225 31 27 61 50 67 50 25 0 32 -40
17 -93 -22 -74 -61 -117 -112 -122 -24 -2 -108 -37 -211 -88 -252 -124 -413
-173 -708 -216 -250 -37 -433 -26 -615 37 -122 42 -525 226 -628 288 -97 58
-334 174 -355 174 -7 0 -25 7 -41 15 -28 15 -28 15 5 -22 19 -21 60 -74 91
-118 31 -44 109 -145 173 -225 64 -80 133 -176 153 -215 82 -156 340 -352 547
-414 97 -29 480 -100 595 -110 195 -18 418 15 653 95 338 116 484 193 953 500
134 88 220 195 371 459 44 77 104 178 132 224 79 130 111 267 111 476 0 254
-44 403 -262 885 -148 327 -218 449 -345 598 -57 68 -72 91 -77 128 -8 64 -36
112 -99 171 -138 131 -406 261 -634 307 -77 16 -315 37 -378 34 -16 -1 -64 -3
-105 -5z m255 -417 c140 -26 270 -64 390 -113 175 -71 437 -210 508 -268 157
-130 336 -443 454 -793 102 -305 117 -556 47 -802 -31 -107 -162 -375 -246
-500 -79 -119 -186 -227 -308 -309 -52 -36 -150 -104 -217 -152 -162 -116
-391 -230 -593 -296 -210 -69 -320 -88 -501 -88 -147 0 -147 0 -227 42 -60 31
-104 46 -174 58 -267 46 -461 123 -684 271 -86 57 -102 77 -82 101 20 25 102
10 208 -37 290 -127 396 -159 546 -167 84 -5 122 -1 225 20 68 14 192 38 274
53 335 59 630 183 776 325 54 53 74 60 84 30 15 -49 -52 -140 -155 -211 -176
-120 -416 -205 -725 -255 -190 -31 -234 -42 -257 -62 -71 -64 85 -91 321 -58
202 29 395 87 576 175 145 70 242 138 365 256 60 57 117 104 128 104 38 0 123
53 175 109 152 165 306 484 352 730 19 107 19 312 0 427 -33 189 -120 431
-217 601 -139 243 -282 375 -554 513 -277 140 -537 200 -866 200 -258 0 -385
-24 -548 -102 -94 -45 -115 -61 -201 -147 -135 -136 -214 -281 -267 -496 -48
-191 -59 -401 -29 -541 21 -99 52 -155 143 -259 168 -192 271 -262 314 -210
18 21 6 46 -69 140 -220 278 -254 465 -155 853 59 234 90 298 193 394 132 124
291 187 528 209 346 31 698 -57 991 -247 107 -69 260 -221 327 -324 95 -146
168 -329 204 -509 67 -331 15 -607 -190 -1011 -90 -179 -143 -260 -169 -260
-59 0 -30 142 95 476 79 209 110 325 125 468 28 254 -50 556 -200 776 -232
342 -681 537 -1145 500 -141 -12 -249 -40 -352 -90 -134 -66 -239 -179 -231
-248 5 -48 45 -41 140 24 145 100 222 125 443 145 205 18 356 1 526 -61 298
-108 524 -358 601 -667 17 -69 22 -118 23 -228 0 -177 -24 -281 -100 -429 -29
-55 -64 -123 -78 -151 -14 -27 -34 -72 -44 -100 -16 -43 -28 -57 -88 -98 -88
-59 -320 -174 -445 -220 -334 -123 -744 -141 -980 -44 -87 35 -150 91 -150
131 0 34 10 33 133 -9 158 -53 270 -68 477 -62 271 8 457 56 727 186 214 104
277 155 242 197 -23 27 -85 12 -259 -66 -316 -140 -459 -175 -730 -174 -137 0
-205 5 -310 23 -108 19 -155 22 -233 17 -121 -8 -150 5 -253 108 -83 84 -121
148 -165 276 -30 88 -33 109 -40 280 -4 102 -12 238 -18 303 -23 279 41 608
169 855 127 247 346 432 585 491 74 19 106 20 415 17 260 -2 355 -7 425 -20z"/>
<path d="M4583 5539 c-51 -9 -78 -23 -221 -112 -63 -39 -125 -86 -139 -104
-44 -57 -74 -158 -80 -263 -9 -167 19 -249 184 -550 69 -125 107 -158 226
-196 264 -84 552 -7 743 198 174 188 171 447 -6 611 -75 70 -148 100 -245 100
-83 1 -141 -22 -204 -79 -64 -57 -85 -105 -86 -191 0 -63 3 -76 30 -115 38
-54 102 -88 168 -88 65 0 107 39 107 98 0 65 -56 98 -94 57 -29 -31 -41 -31
-62 0 -21 32 -11 74 26 110 34 33 107 44 164 25 69 -23 136 -127 136 -213 0
-83 -63 -185 -146 -233 -43 -26 -43 -26 -76 -1 -18 14 -67 35 -108 47 -97 29
-136 49 -184 97 -61 60 -90 133 -91 224 0 67 4 84 38 152 45 92 131 181 214
222 81 40 202 46 300 17 303 -93 482 -428 383 -716 -44 -128 -125 -221 -275
-315 -231 -145 -496 -194 -767 -141 -158 31 -326 77 -396 110 -67 31 -166 119
-230 203 -58 77 -115 95 -128 42 -15 -61 63 -221 151 -311 97 -99 188 -136
465 -185 182 -33 434 -33 579 -1 57 13 136 35 175 49 102 35 402 186 461 230
62 47 126 141 154 225 140 425 -140 899 -588 994 -120 25 -298 15 -392 -23
-31 -12 -39 -21 -48 -56 -7 -30 -33 -67 -91 -132 -138 -156 -185 -279 -161
-426 25 -151 104 -265 226 -325 87 -43 172 -54 265 -34 33 7 64 10 67 6 4 -4
1 -19 -8 -34 -37 -66 -147 -102 -259 -84 -116 18 -178 48 -251 121 -178 179
-236 442 -139 636 42 86 97 145 220 236 72 54 107 85 103 95 -3 8 -6 14 -7 14
0 0 -15 4 -31 8 -17 5 -49 5 -72 1z"/>
<path d="M3352 6458 c-43 -31 -112 -122 -172 -229 -52 -92 -162 -320 -157
-325 3 -4 112 131 190 236 34 47 93 124 130 173 71 93 87 128 67 152 -16 20
-20 19 -58 -7z"/>
<path d="M6846 3957 c-13 -13 -60 -96 -105 -184 -94 -185 -164 -299 -262 -430
-65 -86 -69 -94 -69 -145 0 -103 -65 -195 -266 -377 -62 -55 -128 -122 -147
-149 -72 -97 -166 -171 -347 -271 -107 -60 -270 -161 -270 -167 0 -11 386 192
466 244 137 90 437 370 539 503 55 71 256 412 330 559 29 58 78 170 110 250
31 80 63 155 71 168 13 20 13 22 -6 22 -12 0 -31 -10 -44 -23z"/>
<path d="M6253 3235 c-18 -7 -94 -55 -169 -105 -75 -50 -168 -107 -206 -126
-84 -42 -459 -195 -578 -236 -285 -97 -550 -120 -865 -77 -82 12 -220 24 -305
28 -189 8 -206 14 -340 136 -100 90 -156 130 -255 184 -60 32 -60 32 0 -21 65
-56 165 -156 260 -258 33 -36 96 -99 140 -141 44 -42 93 -91 108 -110 16 -19
22 -23 13 -9 -9 13 -16 30 -16 38 0 23 43 72 64 72 12 0 84 -16 160 -35 218
-55 399 -68 614 -44 238 26 333 55 777 237 66 27 160 59 209 70 96 23 136 44
236 119 142 105 274 252 255 283 -9 14 -64 12 -102 -5z"/>
<path d="M5635 2651 c-336 -155 -493 -208 -703 -236 -245 -32 -688 -8 -812 45
-29 13 -38 15 -26 5 40 -31 224 -89 395 -126 125 -27 391 -36 528 -19 192 24
368 82 605 201 203 101 289 166 274 205 -12 30 -73 13 -261 -75z"/>
</g>
</svg>
