<?xml version="1.0" standalone="no"?>
<!DOCTYPE svg PUBLIC "-//W3C//DTD SVG 20010904//EN"
 "http://www.w3.org/TR/2001/REC-SVG-20010904/DTD/svg10.dtd">
<svg version="1.0" xmlns="http://www.w3.org/2000/svg"
 width="1000.000000pt" height="1000.000000pt" viewBox="0 0 1000.000000 1000.000000"
 preserveAspectRatio="xMidYMid meet">
<metadata>
  <rdf:RDF
    xmlns:rdf = "http://www.w3.org/1999/02/22-rdf-syntax-ns#"
    xmlns:rdfs = "http://www.w3.org/2000/01/rdf-schema#"
    xmlns:dc = "http://purl.org/dc/elements/1.1/"
    xmlns:cc = "http://creativecommons.org/ns#">
    <cc:license rdf:resource="http://creativecommons.org/publicdomain/zero/1.0/deed.en"/>
    <cc:permits rdf:resource="http://creativecommons.org/ns#Reproduction"/>
    <rdf:Description about="https://nft.mir.one/fingerprints"
      dc:title="TON Fingerprints"
      dc:description="This is a unique digital fingerprint created based on the algorithm for generating basic rings using a noise texture. Like human fingerprints, you can now use it for the Web3 and Metaverse era as digital biometric information."
      dc:publisher="https://nft.mir.one"
      dc:date="2022-02-22"
      dc:format="image/svg+xml"
      dc:language="en" >
      <dc:creator>
      <rdf:Bag>
        <rdf:li>EQBondcvD2_aOFADXSWJHs4ZazQDuEl9_wNvGGPxI8hGuOFU</rdf:li>
        <rdf:li>ipfs://bafkreihj7iub3fhmhq6jn62noukt5wxn3gv6bvcg7wmt6ywvlurefezckq</rdf:li>
      </rdf:Bag>
      </dc:creator>
    </rdf:Description>
  </rdf:RDF>
</metadata>
<rect width="100%" height="100%" fill="#1b1f23"/>
<g transform="translate(0.000000,1000.000000) scale(0.100000,-0.100000)"
fill="#ffffff" stroke="none">
<path d="M4576 7642 c-3 -5 0 -23 6 -40 17 -44 5 -52 -83 -62 -178 -21 -350
-104 -595 -286 -196 -146 -373 -329 -579 -599 -69 -90 -69 -90 -9 -35 32 30
120 112 194 182 336 316 616 496 913 589 73 22 155 49 184 60 50 18 73 18 520
9 257 -6 482 -12 498 -15 116 -18 305 -37 382 -39 93 -3 93 -3 -65 56 -376
141 -630 182 -1087 176 -126 -1 -240 1 -252 5 -12 4 -24 4 -27 -1z"/>
<path d="M4529 7290 c-167 -49 -340 -132 -514 -247 -161 -107 -257 -185 -399
-322 -257 -251 -427 -523 -570 -911 -35 -96 -72 -193 -81 -215 -17 -40 -17
-40 25 0 57 54 102 123 199 304 142 266 277 448 491 662 144 144 246 228 415
341 130 87 363 205 515 261 123 46 190 76 190 86 0 4 -12 18 -26 32 -22 20
-37 24 -102 26 -53 2 -98 -4 -143 -17z"/>
<path d="M5165 7284 c-80 -6 -215 -24 -278 -36 -57 -11 -58 -12 -83 -64 -31
-66 -68 -91 -315 -213 -285 -140 -482 -276 -683 -471 -216 -209 -399 -478
-464 -680 -33 -104 -35 -138 -13 -210 32 -103 41 -183 41 -358 0 -151 -2 -170
-26 -240 -22 -64 -26 -87 -21 -146 11 -153 61 -278 153 -386 30 -36 88 -108
127 -160 92 -121 214 -243 297 -297 36 -23 117 -62 180 -87 63 -24 156 -63
205 -86 142 -66 273 -116 370 -141 77 -20 114 -23 250 -23 144 0 169 3 248 27
204 63 357 177 357 266 0 16 33 57 99 125 155 159 244 312 319 547 48 150 65
258 66 409 0 148 -18 236 -57 278 -26 28 -33 28 -54 -5 -15 -23 -19 -60 -24
-253 -8 -274 -26 -358 -118 -546 -47 -95 -74 -136 -130 -195 -90 -98 -156
-133 -304 -164 -264 -56 -453 -67 -665 -39 -134 18 -149 15 -138 -30 9 -37 77
-83 160 -109 62 -19 92 -22 246 -21 167 0 182 2 326 37 163 40 185 43 215 27
37 -21 21 -41 -68 -82 -287 -133 -557 -154 -800 -63 -69 26 -351 181 -478 262
-134 87 -250 219 -294 337 -44 117 -70 702 -41 931 26 218 104 422 219 580
180 247 474 455 785 554 155 50 230 63 391 68 165 6 322 -11 441 -48 78 -24
104 -47 104 -92 0 -74 52 -150 257 -378 261 -289 407 -625 407 -934 0 -134
-11 -186 -93 -457 -27 -90 -84 -289 -126 -442 -42 -153 -88 -302 -102 -330
-69 -139 -223 -299 -396 -415 -118 -79 -145 -113 -112 -138 27 -19 164 -8 225
19 103 44 254 183 402 369 71 89 105 124 195 196 22 17 68 73 103 125 36 51
80 113 99 138 75 98 118 251 107 379 -18 210 -25 263 -40 286 -19 28 -20 29
-46 15 -12 -6 -26 -33 -35 -68 -9 -31 -38 -102 -65 -157 -63 -128 -98 -252
-109 -385 -7 -90 -14 -118 -43 -181 -36 -76 -69 -116 -87 -104 -16 9 -13 93 3
151 8 27 26 105 41 174 14 69 35 157 46 195 27 92 110 305 162 419 42 91 42
91 41 206 -1 134 -35 372 -69 477 -24 78 -207 422 -257 485 -16 21 -78 79
-136 130 -59 50 -143 127 -187 172 -44 45 -93 89 -108 99 -34 23 -34 46 1 80
90 86 258 110 446 62 109 -27 276 -89 376 -140 30 -15 81 -35 115 -44 60 -17
60 -17 -30 70 -218 209 -305 264 -470 298 -149 30 -252 34 -660 22 -457 -13
-519 -23 -790 -123 -317 -116 -623 -314 -813 -525 -197 -219 -299 -429 -333
-688 -13 -101 -19 -648 -9 -827 4 -73 2 -90 -12 -104 -16 -16 -19 -15 -46 13
-36 36 -61 113 -68 208 -3 39 -1 248 4 465 11 454 15 480 102 654 156 311 462
606 844 811 56 29 171 86 256 125 338 156 392 169 730 177 353 8 637 -15 870
-72 52 -12 119 -25 149 -29 54 -5 54 -5 -54 65 -129 84 -277 160 -378 194 -46
15 -128 30 -218 40 -141 15 -535 27 -634 19z m1422 -2713 c-5 -86 -36 -192
-69 -241 -59 -86 -64 -20 -13 165 34 125 57 171 78 158 5 -3 7 -37 4 -82z"/>
<path d="M5950 6562 c-19 -16 -21 -22 -11 -40 6 -12 30 -32 54 -45 23 -13 119
-68 214 -121 143 -82 187 -101 267 -121 117 -29 201 -72 331 -170 54 -41 103
-75 108 -75 5 0 22 -9 38 -21 55 -39 -120 200 -221 302 -102 103 -103 103
-335 199 -248 104 -394 134 -445 92z"/>
<path d="M4945 6439 c-243 -32 -506 -163 -699 -349 -147 -141 -232 -268 -292
-435 -55 -154 -68 -249 -68 -490 0 -527 112 -762 439 -926 107 -53 145 -59
198 -28 38 21 60 24 227 31 102 4 224 15 270 24 47 8 139 19 205 23 133 8 188
28 272 97 86 71 190 250 228 394 24 91 30 266 15 433 -21 242 -55 324 -184
453 -159 159 -308 192 -582 129 -257 -59 -423 -168 -566 -370 -69 -98 -101
-130 -124 -121 -26 10 -13 73 35 169 53 104 122 191 214 266 122 102 218 145
520 236 69 20 98 35 131 66 50 46 75 49 161 19 117 -40 235 -120 341 -231 80
-85 131 -156 198 -275 34 -62 75 -118 107 -149 66 -63 96 -129 111 -240 14
-114 -1 -262 -47 -439 -95 -369 -237 -637 -471 -885 -254 -270 -588 -359 -970
-257 -107 29 -194 63 -370 145 -72 33 -149 64 -170 69 -54 12 -88 2 -92 -27
-9 -62 260 -227 524 -321 162 -58 230 -71 384 -77 259 -9 405 36 610 191 378
283 474 440 655 1066 79 274 89 333 89 495 0 174 -19 251 -109 433 -110 222
-206 354 -409 560 -113 115 -203 192 -266 228 -137 78 -347 116 -515 93z m141
-200 c57 -15 117 -68 112 -101 -3 -23 -5 -23 -103 -20 -221 8 -465 -84 -654
-246 -71 -61 -164 -179 -205 -261 -65 -129 -81 -227 -51 -325 10 -31 15 -92
15 -165 0 -136 18 -229 60 -319 51 -110 111 -169 192 -193 34 -9 98 4 98 21 0
4 -27 47 -60 95 -151 223 -141 409 35 630 130 163 244 216 492 232 173 10 277
-22 381 -120 63 -60 89 -103 136 -218 19 -46 46 -111 60 -144 48 -114 31 -277
-46 -435 -34 -68 -59 -102 -128 -170 -84 -84 -154 -128 -184 -117 -29 11 -17
36 51 109 36 40 84 95 105 122 127 160 184 451 91 464 -28 4 -42 -23 -77 -147
-39 -136 -86 -220 -184 -322 -94 -100 -155 -142 -245 -172 -53 -18 -87 -21
-242 -21 -207 0 -271 10 -370 58 -168 83 -272 255 -304 504 -58 451 10 702
259 953 58 58 134 125 170 148 207 135 444 198 596 160z"/>
<path d="M4746 5409 c-90 -48 -180 -175 -212 -300 -21 -83 -14 -163 26 -278
16 -49 33 -110 36 -137 9 -64 24 -80 102 -104 221 -69 449 29 562 242 68 128
94 325 53 404 -49 93 -161 154 -257 140 -57 -9 -106 -50 -172 -142 -71 -99
-91 -184 -60 -257 36 -86 138 -116 197 -58 45 45 35 83 -23 85 -31 1 -33 4
-36 37 -3 30 2 41 28 63 85 71 198 -21 175 -143 -22 -119 -124 -205 -245 -206
-83 0 -142 30 -187 98 -86 128 -62 299 62 447 55 65 66 89 53 113 -12 23 -53
21 -102 -4z"/>
<path d="M6438 6119 c-35 -20 -21 -63 55 -174 162 -236 179 -266 173 -310 -18
-124 -17 -160 8 -346 15 -107 38 -244 52 -305 34 -153 47 -324 34 -449 -27
-243 -134 -443 -412 -771 -182 -215 -267 -305 -398 -418 -58 -50 -145 -128
-193 -174 -78 -72 -107 -91 -231 -151 -343 -168 -681 -248 -786 -185 -19 12
-107 65 -195 119 -88 53 -257 149 -375 213 -244 130 -441 251 -580 355 -103
76 -319 289 -415 408 -32 41 -81 91 -107 112 -49 38 -49 38 8 -70 114 -215
184 -327 295 -473 88 -116 134 -157 203 -180 34 -11 113 -50 176 -86 63 -36
222 -119 352 -185 171 -87 245 -130 267 -155 35 -39 38 -52 15 -61 -50 -19
-533 197 -749 336 -140 90 -174 93 -124 11 48 -79 232 -226 369 -295 83 -42
327 -134 391 -147 49 -10 67 -9 124 7 53 14 84 16 153 11 96 -8 122 -18 122
-46 0 -48 -98 -96 -243 -121 -105 -18 -171 -9 -210 28 -18 17 -50 40 -72 51
-78 38 -441 149 -452 138 -6 -5 300 -156 377 -186 91 -36 130 -57 130 -71 0
-16 -43 -48 -84 -63 -41 -14 -41 -14 5 -15 25 -1 92 -7 150 -15 295 -41 377
-33 559 53 69 33 224 103 345 156 470 207 665 330 942 598 261 253 495 557
608 792 115 239 144 368 152 670 9 382 -20 596 -106 781 -50 107 -52 124 -11
124 68 0 172 -138 219 -294 31 -100 35 -183 18 -341 -9 -77 -19 -203 -22 -280
-17 -387 -119 -718 -312 -1010 -129 -194 -380 -486 -543 -630 -202 -179 -324
-257 -795 -510 -110 -59 -271 -145 -357 -192 -87 -46 -160 -89 -164 -94 -3 -6
-24 -24 -46 -40 -51 -37 -37 -37 102 -4 267 64 451 141 790 330 423 235 589
374 835 700 239 318 346 523 435 834 69 240 91 379 110 676 6 94 15 199 20
235 36 252 -41 558 -199 788 -66 96 -253 267 -341 312 -45 23 -48 23 -72 9z"/>
<path d="M3165 5549 c-17 -31 -15 -80 16 -367 13 -131 50 -193 86 -146 13 16
14 52 9 214 -3 107 -10 217 -16 244 -17 85 -65 113 -95 55z"/>
<path d="M3032 5423 c-27 -60 -24 -366 6 -533 30 -169 29 -240 -3 -240 -18 0
-88 79 -104 118 -23 55 -23 28 0 -33 12 -32 36 -74 54 -94 23 -25 46 -73 75
-156 94 -270 185 -403 469 -686 321 -320 488 -435 956 -656 344 -163 487 -170
865 -44 209 70 282 103 316 144 26 31 26 31 6 48 -15 11 -51 18 -120 23 -96 7
-102 6 -228 -32 -167 -51 -254 -66 -389 -65 -188 1 -361 51 -620 177 -246 120
-360 207 -415 316 -18 36 -57 83 -111 135 -212 201 -323 326 -438 495 -104
151 -129 216 -156 403 -9 61 -33 159 -54 222 -48 141 -53 166 -60 344 -7 157
-18 183 -49 114z"/>
<path d="M6259 2753 c-13 -16 -12 -17 4 -4 9 7 17 15 17 17 0 8 -8 3 -21 -13z"/>
<path d="M6175 2699 c-33 -21 -171 -96 -306 -165 -253 -129 -340 -186 -373
-245 -20 -34 -20 -34 16 -3 19 17 111 70 204 119 93 48 203 108 244 133 103
62 309 211 278 201 -2 0 -30 -18 -63 -40z"/>
</g>
</svg>
