<?xml version="1.0" standalone="no"?>
<!DOCTYPE svg PUBLIC "-//W3C//DTD SVG 20010904//EN"
 "http://www.w3.org/TR/2001/REC-SVG-20010904/DTD/svg10.dtd">
<svg version="1.0" xmlns="http://www.w3.org/2000/svg"
 width="1000.000000pt" height="1000.000000pt" viewBox="0 0 1000.000000 1000.000000"
 preserveAspectRatio="xMidYMid meet">
<metadata>
  <rdf:RDF
    xmlns:rdf = "http://www.w3.org/1999/02/22-rdf-syntax-ns#"
    xmlns:rdfs = "http://www.w3.org/2000/01/rdf-schema#"
    xmlns:dc = "http://purl.org/dc/elements/1.1/"
    xmlns:cc = "http://creativecommons.org/ns#">
    <cc:license rdf:resource="http://creativecommons.org/publicdomain/zero/1.0/deed.en"/>
    <cc:permits rdf:resource="http://creativecommons.org/ns#Reproduction"/>
    <rdf:Description about="https://nft.mir.one/fingerprints"
      dc:title="TON Fingerprints"
      dc:description="This is a unique digital fingerprint created based on the algorithm for generating basic rings using a noise texture. Like human fingerprints, you can now use it for the Web3 and Metaverse era as digital biometric information."
      dc:publisher="https://nft.mir.one"
      dc:date="2022-02-22"
      dc:format="image/svg+xml"
      dc:language="en" >
      <dc:creator>
      <rdf:Bag>
        <rdf:li>EQBondcvD2_aOFADXSWJHs4ZazQDuEl9_wNvGGPxI8hGuOFU</rdf:li>
        <rdf:li>ipfs://bafkreihj7iub3fhmhq6jn62noukt5wxn3gv6bvcg7wmt6ywvlurefezckq</rdf:li>
      </rdf:Bag>
      </dc:creator>
    </rdf:Description>
  </rdf:RDF>
</metadata>
<rect width="100%" height="100%" fill="#1b1f23"/>
<g transform="translate(0.000000,1000.000000) scale(0.100000,-0.100000)"
fill="#ffffff" stroke="none">
<path d="M4608 7745 c40 -7 87 -18 105 -25 17 -6 79 -20 136 -31 285 -56 580
-179 850 -357 115 -76 193 -136 351 -272 311 -267 553 -457 641 -502 74 -38
92 -62 -184 250 -151 170 -474 480 -579 555 -180 128 -417 248 -615 311 -183
57 -404 87 -643 85 -135 -1 -135 -1 -62 -14z"/>
<path d="M4430 7530 c-96 -16 -229 -39 -295 -50 -66 -11 -131 -20 -144 -20
-39 0 54 -54 144 -85 123 -41 198 -79 297 -150 114 -82 252 -149 603 -293 312
-128 352 -141 389 -124 33 15 33 37 1 84 -52 77 -255 185 -605 323 -274 107
-329 143 -278 179 32 23 82 20 210 -13 214 -55 464 -162 622 -264 46 -31 137
-104 201 -164 64 -59 176 -151 249 -204 195 -142 590 -419 689 -483 77 -50 87
-59 81 -80 -8 -34 19 -89 68 -136 92 -90 359 -273 331 -227 -98 160 -232 310
-308 347 -69 32 -78 40 -64 56 18 22 73 27 146 14 127 -23 127 -14 -2 80 -64
47 -181 130 -259 185 -189 132 -253 180 -563 427 -144 114 -311 241 -370 282
-202 138 -439 247 -668 306 -173 45 -259 46 -475 10z"/>
<path d="M3860 7204 c-36 -7 -99 -24 -141 -37 -77 -23 -77 -23 -40 -47 20 -13
72 -36 116 -51 129 -43 182 -66 335 -149 80 -43 192 -98 250 -120 228 -91 555
-205 750 -261 307 -89 402 -124 544 -197 158 -81 328 -192 597 -389 112 -82
269 -195 349 -251 80 -56 197 -142 260 -193 105 -82 198 -143 189 -122 -31 69
-186 308 -225 347 -16 15 -76 65 -134 109 -58 45 -154 128 -215 186 -158 150
-434 351 -710 516 -212 128 -237 137 -395 145 -123 7 -147 12 -270 52 -235 78
-498 188 -720 301 -364 185 -392 193 -540 161z"/>
<path d="M3565 6874 c-55 -20 -116 -41 -136 -46 -36 -11 -36 -11 20 -41 107
-56 114 -75 41 -112 -67 -34 -121 -84 -188 -174 -30 -41 -74 -93 -98 -116 -43
-43 -43 -43 -11 -50 18 -5 61 -9 97 -10 36 0 115 -5 175 -9 85 -7 148 -5 269
9 247 27 355 13 384 -49 25 -56 2 -67 -203 -96 -130 -18 -245 -29 -536 -49
-135 -9 -139 -11 -278 -144 -81 -77 -81 -77 -48 -79 17 -1 55 -1 83 1 28 1 92
-5 142 -14 90 -17 90 -17 349 19 398 56 433 66 553 152 30 21 91 49 154 69 57
19 125 48 152 64 59 38 105 40 284 11 405 -66 749 -209 1054 -440 121 -91 237
-199 275 -257 29 -44 31 -52 31 -141 0 -115 14 -172 86 -343 87 -208 108 -262
200 -527 47 -136 123 -344 169 -462 94 -245 107 -283 134 -399 11 -46 22 -86
25 -88 13 -14 21 67 21 217 -1 165 -1 165 -92 435 -51 149 -106 318 -123 377
-44 156 -89 269 -195 488 -101 209 -115 253 -92 284 14 19 19 14 92 -85 180
-245 280 -459 326 -702 12 -64 48 -190 86 -296 36 -102 83 -240 104 -306 39
-120 39 -120 35 55 -5 197 -22 304 -68 419 -32 80 -42 161 -21 168 19 7 60
-43 111 -137 50 -92 108 -177 99 -145 -3 11 -15 58 -26 105 -34 146 -58 197
-127 271 -66 71 -105 138 -148 257 -44 125 -91 195 -202 306 -88 88 -138 119
-202 124 -43 4 -56 9 -64 27 -15 33 5 63 46 71 96 17 216 -50 421 -235 50 -45
121 -97 160 -118 39 -20 97 -54 129 -75 33 -21 63 -38 67 -38 10 0 -69 144
-128 233 -74 111 -292 273 -583 432 -69 37 -214 131 -323 207 -397 281 -559
359 -1037 499 -113 33 -297 91 -410 129 -222 74 -376 107 -464 97 -28 -3 -78
-17 -111 -31 -33 -14 -125 -36 -205 -51 -80 -14 -185 -37 -235 -50 -171 -47
-230 -26 -140 49 27 23 73 66 102 96 54 55 54 55 243 60 179 5 191 6 212 27
18 19 20 26 10 47 -6 13 -27 36 -47 51 -43 33 -216 95 -265 95 -19 0 -80 -16
-135 -36z m863 -511 c31 -23 41 -67 17 -76 -20 -8 -107 9 -145 28 -31 16 -39
42 -17 64 18 19 112 9 145 -16z"/>
<path d="M4570 6003 c-211 -34 -330 -89 -330 -150 0 -13 11 -35 25 -49 57 -57
143 -69 285 -38 101 21 302 24 400 5 164 -32 330 -102 477 -200 233 -156 375
-327 523 -626 70 -141 100 -229 100 -295 0 -54 23 -121 91 -271 81 -176 187
-447 195 -496 4 -25 0 -48 -10 -68 -25 -47 -19 -118 24 -280 22 -82 56 -215
74 -295 19 -80 41 -163 48 -184 15 -40 15 -40 29 70 8 60 14 150 13 199 -1 85
-5 101 -73 294 -75 211 -79 241 -26 207 35 -23 64 -72 119 -206 27 -63 69
-158 95 -210 46 -94 46 -94 49 -13 4 119 -44 276 -158 513 -93 194 -213 497
-310 785 -72 211 -237 606 -292 700 -23 39 -76 104 -118 146 -282 282 -729
472 -1100 468 -58 -1 -116 -4 -130 -6z"/>
<path d="M3122 5748 c-22 -18 -72 -71 -110 -119 -69 -85 -69 -85 -23 -79 52 7
191 74 240 116 69 58 57 114 -24 114 -33 0 -51 -7 -83 -32z"/>
<path d="M3765 5733 c-75 -10 -200 -45 -257 -72 -35 -16 -108 -63 -163 -105
-55 -42 -129 -92 -166 -111 -73 -38 -114 -78 -179 -176 -23 -35 -52 -72 -64
-82 -20 -16 -20 -18 -3 -28 9 -5 24 -27 33 -47 13 -33 13 -41 -1 -87 -9 -27
-27 -69 -39 -91 -23 -41 -23 -41 17 -25 29 12 58 39 108 101 72 91 123 128
238 174 99 40 121 41 179 12 69 -35 150 -46 338 -46 332 0 496 -59 680 -246
98 -99 134 -164 134 -243 0 -99 72 -215 246 -400 77 -81 97 -97 179 -136 106
-50 126 -71 181 -190 49 -106 138 -377 168 -510 48 -215 60 -325 59 -555 0
-218 0 -218 -54 -510 -7 -36 -9 -78 -5 -93 6 -27 9 -25 71 59 36 48 80 116 98
153 32 66 32 66 32 336 0 296 -11 394 -66 625 -35 149 -53 204 -131 415 -52
137 -61 174 -69 260 -4 55 -11 118 -14 140 -5 28 -2 46 8 60 14 19 17 19 49 4
64 -32 215 -158 263 -221 61 -81 144 -253 190 -393 85 -264 165 -742 165 -989
0 -39 5 -95 12 -126 11 -57 11 -57 40 24 81 228 84 251 58 436 -23 170 -64
379 -110 561 -107 430 -245 646 -535 837 -55 36 -147 111 -205 166 -159 153
-223 205 -370 306 -145 99 -165 115 -365 285 -230 195 -253 209 -324 202 -25
-2 -71 -12 -101 -20 -30 -9 -129 -23 -219 -32 -94 -10 -205 -27 -260 -42 -53
-14 -109 -26 -126 -27 -26 -1 -30 3 -33 27 -7 63 89 134 243 179 72 20 99 23
260 21 115 -1 184 2 192 9 21 17 15 71 -11 107 -65 88 -203 127 -371 104z
m1085 -1020 c73 -36 206 -170 248 -250 54 -101 51 -203 -5 -211 -17 -3 -34 14
-82 87 -66 97 -183 241 -250 306 -42 40 -50 62 -29 83 19 19 60 14 118 -15z"/>
<path d="M4632 5611 c-83 -5 -96 -9 -113 -30 -36 -44 -23 -72 101 -216 100
-116 139 -150 368 -324 168 -127 215 -167 387 -325 61 -56 160 -145 220 -198
246 -214 344 -354 430 -611 57 -171 172 -719 205 -978 7 -48 18 -104 25 -125
13 -39 13 -39 21 -9 3 17 15 64 26 105 26 102 34 233 19 312 -7 35 -30 139
-52 232 -22 93 -49 230 -60 305 -30 210 -96 397 -203 577 -58 96 -78 120 -186
210 -47 39 -177 163 -290 275 -218 218 -304 291 -494 422 -189 130 -236 167
-252 198 -21 41 -10 52 45 47 94 -10 272 -101 439 -225 125 -94 273 -240 434
-430 135 -160 166 -190 206 -200 27 -6 42 9 42 43 0 63 -170 335 -318 508
-170 199 -430 372 -641 427 -76 20 -162 22 -359 10z"/>
<path d="M6840 5015 c-24 -29 8 -94 106 -216 29 -36 71 -81 94 -99 41 -32 41
-32 26 1 -9 19 -29 70 -46 114 -40 104 -88 183 -122 201 -34 18 -43 18 -58 -1z"/>
<path d="M3468 4980 c-117 -14 -245 -66 -344 -140 -56 -42 -99 -119 -153 -270
-28 -80 -28 -80 19 -52 26 15 81 49 121 77 165 111 336 163 559 172 172 6 286
-9 466 -61 190 -56 233 -57 249 -6 25 79 -156 207 -360 253 -137 31 -407 44
-557 27z"/>
<path d="M3515 4575 c-99 -19 -217 -57 -315 -102 -61 -28 -84 -46 -123 -94
-46 -57 -79 -74 -90 -46 -3 6 -6 2 -6 -11 -1 -28 51 -62 94 -62 17 0 109 20
206 44 233 59 319 70 509 63 175 -6 276 -26 419 -81 108 -42 173 -83 266 -169
103 -93 178 -202 271 -392 140 -286 187 -461 187 -705 1 -159 -14 -260 -55
-390 -29 -89 -54 -145 -162 -348 -32 -60 -38 -78 -23 -64 12 11 51 37 87 58
36 21 93 65 126 98 53 53 65 72 92 148 57 160 75 272 75 468 0 254 -25 375
-159 765 -88 254 -107 296 -177 391 -81 109 -263 287 -326 319 -47 23 -115 41
-396 101 -104 22 -399 27 -500 9z"/>
<path d="M3510 4174 c-84 -15 -226 -47 -270 -60 -48 -14 -54 -19 -76 -67 -13
-29 -28 -86 -34 -127 -5 -41 -13 -87 -16 -102 -5 -26 -5 -26 37 -11 23 8 54
22 68 32 39 27 148 68 219 82 97 18 273 7 347 -22 40 -16 63 -32 71 -49 6 -14
23 -50 37 -80 13 -30 52 -92 86 -137 33 -45 77 -111 96 -146 138 -250 138
-576 1 -779 -23 -34 -55 -82 -73 -108 -32 -47 -32 -47 31 -30 76 22 134 50
162 82 57 62 108 211 124 358 16 159 -12 409 -57 519 -46 109 -165 244 -269
302 -29 17 -55 38 -59 47 -10 27 30 52 84 52 122 0 291 -137 376 -305 37 -73
37 -73 38 -377 0 -294 -1 -306 -25 -399 -31 -114 -82 -225 -141 -305 -23 -33
-53 -75 -65 -95 -22 -37 -22 -37 44 -13 82 30 114 46 153 80 58 49 138 241
161 384 15 98 12 270 -7 408 -18 133 -14 154 27 132 56 -30 100 -202 100 -390
0 -226 -60 -434 -172 -598 -16 -24 -44 -69 -62 -100 -32 -57 -32 -57 65 -10
126 62 165 101 213 212 60 141 87 260 93 417 11 272 -25 400 -189 669 -102
167 -153 236 -235 317 -59 59 -93 83 -176 123 -157 76 -233 91 -477 95 -113 2
-216 1 -230 -1z"/>
<path d="M5420 4125 c-17 -20 -9 -47 56 -192 179 -405 248 -759 244 -1248 -3
-372 -8 -346 47 -245 25 47 59 121 76 165 29 78 29 83 23 220 -15 372 -105
789 -227 1053 -50 109 -124 219 -163 243 -37 23 -40 23 -56 4z"/>
<path d="M4999 3998 c-18 -33 -5 -97 55 -288 107 -334 136 -492 136 -746 0
-251 -36 -418 -130 -604 -27 -52 -55 -112 -64 -133 -15 -37 -15 -37 52 10 105
74 181 142 207 187 78 132 106 514 60 811 -30 196 -120 513 -192 675 -42 96
-98 136 -124 88z"/>
<path d="M3421 3714 c-30 -8 -61 -20 -69 -27 -25 -20 -51 -89 -62 -168 -6 -40
-16 -85 -21 -99 -10 -24 -10 -24 8 -7 11 9 24 17 29 17 6 0 32 14 59 31 28 17
68 38 90 46 75 27 195 14 209 -22 8 -22 -17 -45 -90 -84 -86 -45 -97 -66 -102
-189 -4 -95 4 -161 17 -132 14 34 78 103 116 125 137 78 270 -3 300 -182 10
-65 -18 -156 -74 -239 -48 -71 -48 -71 15 -58 103 22 142 47 170 108 73 160
49 377 -59 536 -69 100 -219 279 -256 303 -81 54 -180 68 -280 41z"/>
<path d="M3681 3014 c-12 -15 -21 -39 -21 -55 0 -17 -8 -34 -22 -43 -22 -16
-21 -16 20 -16 51 0 86 20 102 60 10 25 10 34 -4 55 -21 32 -49 32 -75 -1z"/>
</g>
</svg>
