<?xml version="1.0" standalone="no"?>
<!DOCTYPE svg PUBLIC "-//W3C//DTD SVG 20010904//EN"
 "http://www.w3.org/TR/2001/REC-SVG-20010904/DTD/svg10.dtd">
<svg version="1.0" xmlns="http://www.w3.org/2000/svg"
 width="1000.000000pt" height="1000.000000pt" viewBox="0 0 1000.000000 1000.000000"
 preserveAspectRatio="xMidYMid meet">
<metadata>
  <rdf:RDF
    xmlns:rdf = "http://www.w3.org/1999/02/22-rdf-syntax-ns#"
    xmlns:rdfs = "http://www.w3.org/2000/01/rdf-schema#"
    xmlns:dc = "http://purl.org/dc/elements/1.1/"
    xmlns:cc = "http://creativecommons.org/ns#">
    <cc:license rdf:resource="http://creativecommons.org/publicdomain/zero/1.0/deed.en"/>
    <cc:permits rdf:resource="http://creativecommons.org/ns#Reproduction"/>
    <rdf:Description about="https://nft.mir.one/fingerprints"
      dc:title="TON Fingerprints"
      dc:description="This is a unique digital fingerprint created based on the algorithm for generating basic rings using a noise texture. Like human fingerprints, you can now use it for the Web3 and Metaverse era as digital biometric information."
      dc:publisher="https://nft.mir.one"
      dc:date="2022-02-22"
      dc:format="image/svg+xml"
      dc:language="en" >
      <dc:creator>
      <rdf:Bag>
        <rdf:li>EQBondcvD2_aOFADXSWJHs4ZazQDuEl9_wNvGGPxI8hGuOFU</rdf:li>
        <rdf:li>ipfs://bafkreihj7iub3fhmhq6jn62noukt5wxn3gv6bvcg7wmt6ywvlurefezckq</rdf:li>
      </rdf:Bag>
      </dc:creator>
    </rdf:Description>
  </rdf:RDF>
</metadata>
<rect width="100%" height="100%" fill="#1b1f23"/>
<g transform="translate(0.000000,1000.000000) scale(0.100000,-0.100000)"
fill="#ffffff" stroke="none">
<path d="M4864 7751 c33 -30 102 -97 151 -147 103 -105 181 -159 437 -298 200
-108 268 -149 412 -246 355 -238 648 -532 843 -845 51 -81 152 -274 173 -330
11 -28 12 -29 25 -12 43 59 -143 469 -340 752 -77 111 -191 240 -284 323 -215
192 -549 402 -956 602 -110 54 -209 107 -220 119 -22 26 -14 48 26 68 39 19
96 0 314 -106 232 -113 422 -220 649 -366 89 -57 204 -131 256 -164 95 -60 95
-60 40 -10 -312 286 -689 518 -1039 637 -108 36 -128 39 -306 33 -27 -1 -93 9
-146 22 -96 24 -96 24 -35 -32z"/>
<path d="M4329 7615 c20 -17 81 -55 136 -85 144 -77 263 -153 490 -315 240
-171 247 -175 305 -168 90 10 204 -49 452 -234 190 -142 387 -315 559 -489
184 -188 262 -287 312 -394 35 -77 51 -96 162 -205 89 -87 141 -147 188 -220
36 -55 83 -117 105 -138 39 -38 39 -38 -15 115 -75 213 -121 316 -152 336 -56
37 -129 122 -188 218 -281 458 -765 891 -1278 1144 -211 104 -303 160 -478
293 -101 76 -143 101 -195 117 -85 26 -221 47 -343 53 -96 4 -96 4 -60 -28z"/>
<path d="M3976 7423 c-58 -4 -58 -4 -16 -35 23 -17 94 -55 158 -84 158 -73
314 -160 462 -259 220 -146 350 -262 557 -496 186 -212 318 -326 803 -698 344
-264 351 -269 397 -348 51 -86 135 -165 240 -226 43 -26 97 -63 120 -84 49
-45 206 -220 284 -318 31 -38 68 -81 83 -94 26 -24 26 -24 11 15 -7 21 -32 98
-55 169 -51 165 -96 267 -158 363 -27 43 -65 106 -85 142 -75 138 -165 209
-325 259 -158 49 -228 99 -687 479 -293 243 -517 457 -653 626 -113 139 -232
244 -421 370 -160 107 -324 201 -376 215 -37 10 -204 12 -339 4z m2555 -1871
c90 -58 155 -162 102 -162 -35 0 -181 109 -204 152 -25 46 36 52 102 10z"/>
<path d="M3785 7175 c-33 -8 -79 -17 -103 -21 -47 -7 -49 -4 28 -53 8 -6 67
-31 130 -57 282 -116 641 -327 935 -547 196 -147 243 -234 106 -198 -50 13
-124 54 -477 268 -127 77 -332 190 -455 253 -224 113 -224 113 -294 106 -38
-3 -100 -14 -137 -24 -67 -18 -67 -18 -34 -44 17 -14 61 -40 97 -58 76 -39
522 -283 770 -421 218 -122 416 -218 534 -259 141 -49 246 -110 606 -350 498
-333 601 -413 825 -641 175 -180 226 -256 279 -419 83 -257 268 -663 325 -715
25 -23 30 -25 22 -9 -6 12 -23 88 -36 170 -33 190 -36 199 -112 380 -44 105
-64 164 -64 193 0 55 23 65 55 25 29 -35 135 -237 164 -312 24 -60 71 -135 71
-112 0 46 -44 267 -67 339 -30 96 -66 143 -148 196 -29 18 -76 61 -105 96 -30
35 -106 114 -169 174 -63 61 -189 182 -280 271 -107 104 -221 201 -321 275
-741 550 -792 592 -851 696 -77 137 -193 256 -403 413 -179 133 -421 277 -612
363 -70 32 -92 37 -150 36 -38 0 -96 -7 -129 -14z"/>
<path d="M5214 6965 c-20 -51 82 -172 315 -374 698 -603 845 -722 910 -742 86
-26 95 21 23 108 -100 120 -459 452 -718 664 -379 311 -510 396 -530 344z"/>
<path d="M3341 6661 c-23 -6 -21 -9 38 -60 68 -59 84 -82 75 -105 -5 -12 -21
-16 -63 -16 -31 -1 -83 -6 -115 -13 -59 -12 -59 -12 -25 -41 50 -43 110 -66
213 -83 166 -26 360 -104 613 -244 88 -49 280 -145 425 -213 360 -167 513
-255 792 -454 123 -88 131 -92 182 -92 73 0 144 -29 250 -101 49 -34 125 -82
169 -107 155 -87 253 -182 360 -347 69 -106 88 -144 195 -399 112 -268 182
-410 271 -546 71 -110 138 -178 126 -129 -3 13 -13 63 -21 110 -21 113 -40
165 -124 339 -38 80 -95 208 -127 285 -145 355 -195 442 -348 601 -149 156
-373 322 -632 469 -65 37 -203 120 -305 185 -239 151 -340 207 -590 323 -113
52 -239 113 -280 135 -700 372 -730 389 -848 479 -41 31 -48 33 -125 32 -45
-1 -93 -4 -106 -8z"/>
<path d="M3155 6270 c28 -12 65 -12 65 0 0 6 -19 10 -42 9 -33 0 -38 -2 -23
-9z"/>
<path d="M3193 6150 c-12 -5 -45 -25 -74 -44 -51 -36 -51 -36 -9 -36 58 0 115
18 141 46 35 37 0 57 -58 34z"/>
<path d="M3400 6099 c-19 -6 -48 -23 -65 -39 -16 -15 -61 -48 -100 -73 -38
-25 -112 -84 -163 -131 -92 -86 -92 -86 -54 -86 21 0 119 22 219 50 99 27 216
55 259 61 152 22 414 -12 422 -54 9 -47 -55 -72 -213 -82 -206 -13 -509 -66
-572 -99 -16 -8 -67 -54 -115 -103 -86 -88 -86 -88 -35 -87 29 1 90 11 137 22
232 57 570 96 840 96 171 0 192 -2 284 -27 165 -46 360 -131 516 -225 196
-118 343 -250 575 -517 77 -88 232 -263 344 -390 229 -257 279 -321 326 -415
44 -89 62 -148 79 -267 9 -56 33 -155 55 -220 69 -204 99 -436 78 -598 -12
-87 -11 -106 2 -148 17 -53 6 -71 90 151 48 127 63 235 50 346 -13 103 -7 184
16 240 20 47 16 105 -8 120 -15 9 -23 4 -52 -29 -32 -37 -36 -39 -48 -23 -8
10 -17 56 -20 110 -8 117 -44 243 -108 378 -46 97 -58 113 -157 210 -141 139
-491 578 -673 845 -164 241 -478 449 -964 639 -289 113 -288 113 -366 183 -82
74 -156 113 -274 143 -93 24 -255 34 -305 19z"/>
<path d="M3525 5400 c-129 -13 -363 -48 -409 -61 -29 -8 -62 -33 -124 -97 -84
-87 -84 -87 -50 -92 18 -3 75 3 126 12 151 29 336 48 522 55 438 15 773 -74
1110 -295 135 -89 200 -142 390 -317 85 -78 218 -193 295 -255 77 -62 160
-131 183 -154 68 -64 158 -180 247 -316 88 -135 105 -154 132 -148 15 3 18 13
18 54 -1 85 -69 213 -198 374 -90 112 -769 787 -867 863 -225 173 -485 297
-745 358 -73 17 -131 21 -315 24 -124 2 -265 -1 -315 -5z"/>
<path d="M5437 5253 c-12 -12 -7 -63 9 -96 9 -18 47 -75 84 -127 36 -52 103
-149 147 -215 90 -135 234 -333 301 -413 53 -63 77 -78 98 -61 35 29 2 106
-134 306 -133 196 -168 257 -193 333 -19 57 -33 76 -108 151 -47 48 -102 96
-121 108 -35 21 -71 27 -83 14z"/>
<path d="M3393 5060 c-166 -10 -288 -27 -324 -45 -23 -12 -64 -54 -130 -133
-26 -30 -26 -30 6 -36 18 -4 75 1 126 9 217 36 666 28 906 -15 254 -46 479
-156 780 -381 172 -130 229 -218 303 -474 41 -142 119 -379 205 -625 97 -279
154 -554 180 -865 13 -160 31 -288 34 -244 0 9 19 42 41 73 52 73 106 182 115
227 13 69 -78 445 -170 703 -23 67 -83 220 -133 341 -171 417 -225 625 -162
625 28 0 67 -73 100 -188 35 -118 36 -120 170 -407 123 -263 159 -351 241
-595 73 -214 104 -328 123 -445 8 -50 21 -106 28 -126 12 -37 12 -37 60 62 26
54 58 133 70 174 22 76 22 76 -39 193 -33 64 -86 187 -118 272 -72 196 -133
325 -273 572 -141 250 -172 311 -172 343 0 34 13 32 59 -10 40 -36 82 -97 276
-395 133 -205 158 -258 239 -497 72 -213 78 -228 106 -243 27 -15 48 -3 61 37
27 84 -42 390 -132 580 -33 69 -48 89 -93 122 -51 38 -89 85 -211 259 -31 46
-83 111 -114 144 -61 67 -217 173 -321 221 -52 23 -90 54 -195 156 -302 296
-593 473 -912 556 -189 50 -464 70 -730 55z"/>
<path d="M5844 5005 c-11 -28 5 -60 91 -175 161 -216 224 -336 244 -470 7 -41
28 -113 47 -160 19 -47 69 -168 110 -270 41 -102 86 -201 99 -221 13 -20 61
-77 107 -125 46 -49 101 -113 123 -141 21 -29 41 -53 43 -53 6 0 -9 122 -24
204 -17 87 -25 105 -88 204 -81 126 -183 346 -276 597 -29 77 -67 170 -85 206
-75 149 -231 350 -309 398 -39 25 -74 27 -82 6z"/>
<path d="M3106 4720 c-34 -11 -84 -57 -131 -122 -34 -47 -34 -47 -2 -50 18 -2
50 0 72 4 70 12 287 8 381 -7 95 -15 210 -47 257 -72 16 -8 61 -42 100 -77 40
-34 128 -104 197 -156 231 -173 456 -425 625 -698 109 -175 175 -364 175 -497
0 -121 -46 -144 -75 -38 -65 237 -132 392 -242 558 -163 245 -309 389 -626
617 -225 162 -370 221 -606 248 -103 12 -108 10 -200 -59 -54 -40 -54 -40 -28
-50 15 -6 69 -17 120 -25 177 -29 356 -92 502 -178 38 -22 153 -98 255 -167
227 -154 350 -271 460 -436 109 -164 270 -510 270 -580 0 -15 -7 -28 -17 -32
-29 -11 -79 62 -190 281 -195 385 -318 530 -492 582 -26 7 -83 40 -126 72
-208 151 -351 233 -511 291 -101 37 -124 35 -188 -13 -23 -18 -48 -35 -55 -37
-7 -3 18 -19 56 -36 224 -103 279 -132 380 -199 186 -124 217 -157 481 -533
59 -84 102 -162 102 -186 0 -24 -43 -18 -77 13 -17 15 -76 83 -131 152 -181
226 -240 283 -432 415 -110 76 -146 88 -234 80 -55 -6 -65 -9 -50 -18 10 -5
38 -28 61 -51 50 -48 56 -84 19 -121 -23 -23 -23 -23 8 -28 57 -9 188 -66 257
-111 140 -93 258 -212 510 -516 75 -90 162 -251 212 -391 70 -194 74 -202 79
-181 3 11 23 29 44 40 47 24 89 67 103 104 16 43 -22 134 -134 318 -87 144
-121 219 -139 305 -25 123 -50 169 -214 404 -37 54 -52 84 -52 108 0 23 5 33
15 33 49 0 229 -227 304 -382 27 -57 74 -155 104 -218 61 -127 119 -209 203
-283 87 -78 127 -182 139 -362 3 -49 10 -119 16 -156 11 -65 11 -65 39 -40 15
15 53 48 84 75 92 78 90 73 97 296 3 118 13 238 24 304 16 95 17 120 7 204
-15 116 -69 281 -125 385 -23 42 -125 193 -227 334 -227 317 -312 406 -490
522 -185 119 -200 130 -200 151 0 49 114 34 242 -30 175 -87 288 -189 374
-337 92 -158 227 -352 304 -438 82 -91 132 -183 183 -336 74 -221 88 -350 86
-794 -1 -181 2 -342 5 -356 8 -27 8 -26 70 35 34 33 80 87 102 120 39 59 39
59 36 170 -8 330 -71 644 -202 1001 -35 96 -56 173 -67 245 -27 181 -96 345
-189 449 -34 38 -69 62 -129 91 -45 21 -135 78 -201 125 -141 101 -308 187
-417 215 -47 12 -145 24 -245 30 -92 6 -207 15 -257 20 -110 12 -419 12 -459
0z m1593 -536 c60 -65 119 -161 167 -271 38 -87 42 -120 17 -130 -24 -9 -55
30 -165 212 -96 160 -115 202 -104 230 10 27 33 16 85 -41z"/>
<path d="M6476 3468 c-9 -12 -16 -39 -16 -59 0 -62 29 -208 53 -265 23 -55 23
-55 35 48 19 166 12 246 -24 283 -21 20 -30 19 -48 -7z"/>
<path d="M3445 3230 c-3 -5 -21 -10 -38 -11 -29 0 -30 -1 -13 -12 86 -54 290
-242 301 -277 4 -14 15 -20 34 -20 52 0 65 42 34 108 -27 56 -138 168 -196
196 -52 27 -111 34 -122 16z"/>
</g>
</svg>
