<?xml version="1.0" standalone="no"?>
<!DOCTYPE svg PUBLIC "-//W3C//DTD SVG 20010904//EN"
 "http://www.w3.org/TR/2001/REC-SVG-20010904/DTD/svg10.dtd">
<svg version="1.0" xmlns="http://www.w3.org/2000/svg"
 width="1000.000000pt" height="1000.000000pt" viewBox="0 0 1000.000000 1000.000000"
 preserveAspectRatio="xMidYMid meet">
<metadata>
  <rdf:RDF
    xmlns:rdf = "http://www.w3.org/1999/02/22-rdf-syntax-ns#"
    xmlns:rdfs = "http://www.w3.org/2000/01/rdf-schema#"
    xmlns:dc = "http://purl.org/dc/elements/1.1/"
    xmlns:cc = "http://creativecommons.org/ns#">
    <cc:license rdf:resource="http://creativecommons.org/publicdomain/zero/1.0/deed.en"/>
    <cc:permits rdf:resource="http://creativecommons.org/ns#Reproduction"/>
    <rdf:Description about="https://nft.mir.one/fingerprints"
      dc:title="TON Fingerprints"
      dc:description="This is a unique digital fingerprint created based on the algorithm for generating basic rings using a noise texture. Like human fingerprints, you can now use it for the Web3 and Metaverse era as digital biometric information."
      dc:publisher="https://nft.mir.one"
      dc:date="2022-02-22"
      dc:format="image/svg+xml"
      dc:language="en" >
      <dc:creator>
      <rdf:Bag>
        <rdf:li>EQBondcvD2_aOFADXSWJHs4ZazQDuEl9_wNvGGPxI8hGuOFU</rdf:li>
        <rdf:li>ipfs://bafkreihj7iub3fhmhq6jn62noukt5wxn3gv6bvcg7wmt6ywvlurefezckq</rdf:li>
      </rdf:Bag>
      </dc:creator>
    </rdf:Description>
  </rdf:RDF>
</metadata>
<rect width="100%" height="100%" fill="#1b1f23"/>
<g transform="translate(0.000000,1000.000000) scale(0.100000,-0.100000)"
fill="#ffffff" stroke="none">
<path d="M4935 7784 c-16 -2 -109 -11 -205 -19 -243 -21 -246 -22 -145 -25
128 -5 210 -1 372 17 104 11 151 12 173 5 31 -11 43 1 13 13 -22 8 -166 15
-208 9z"/>
<path d="M5260 7689 c-20 -4 -56 -17 -82 -28 -58 -25 -171 -49 -473 -101 -589
-103 -798 -193 -1035 -448 -67 -73 -101 -102 -118 -102 -20 0 -21 -2 -11 -21
6 -12 9 -30 6 -40 -3 -10 -1 -19 4 -19 17 0 9 -26 -13 -47 -13 -12 -59 -47
-103 -79 -44 -31 -71 -54 -60 -50 11 4 34 10 50 13 17 4 61 21 99 39 75 36
106 33 106 -9 0 -34 -33 -65 -180 -176 -74 -55 -164 -128 -200 -161 -59 -55
-62 -61 -35 -54 17 3 57 18 90 31 153 64 235 91 290 98 33 4 89 20 124 36 134
61 234 75 301 41 28 -14 35 -23 35 -47 0 -32 6 -28 -137 -94 -75 -36 -95 -51
-160 -122 -40 -45 -128 -139 -194 -209 -84 -88 -140 -158 -182 -226 -34 -55
-106 -155 -162 -224 -80 -99 -114 -152 -165 -255 -35 -71 -77 -168 -94 -214
-17 -46 -40 -99 -51 -119 -21 -35 -21 -35 15 -4 20 18 39 32 44 32 13 0 179
203 271 330 249 344 458 600 622 762 59 58 99 87 162 118 78 38 86 45 104 88
11 26 22 59 26 75 9 38 68 79 224 154 292 140 429 167 967 189 317 12 724 -36
1112 -132 78 -19 158 -34 178 -32 37 3 37 3 -72 80 -59 42 -148 97 -198 122
-79 40 -111 49 -260 75 -345 62 -381 65 -780 65 -385 1 -390 1 -429 45 -18 19
-18 23 -4 37 26 27 309 65 523 71 219 6 296 -2 662 -73 128 -24 258 -44 290
-44 58 0 58 0 -57 62 -63 33 -167 83 -230 110 -389 167 -583 189 -913 106
-190 -47 -274 -91 -322 -168 -30 -47 -41 -51 -355 -124 -515 -119 -678 -144
-750 -111 -28 13 -41 25 -45 46 -8 35 4 57 52 99 80 71 229 118 533 170 230
39 356 69 485 114 598 207 603 208 721 214 126 5 201 -11 324 -73 73 -36 145
-61 205 -70 36 -6 33 -3 -27 23 -37 17 -94 48 -125 69 -90 61 -163 100 -228
121 -96 32 -312 56 -375 41z"/>
<path d="M5226 6689 c-425 -40 -640 -173 -888 -551 -148 -224 -229 -320 -467
-558 -209 -208 -300 -280 -357 -280 -26 0 -34 4 -34 19 0 31 42 83 243 304
298 328 350 391 402 496 37 73 33 161 -7 161 -37 0 -79 -42 -325 -328 -295
-343 -376 -451 -442 -585 -41 -85 -68 -122 -160 -224 -118 -130 -146 -177
-205 -338 -20 -55 -43 -114 -51 -132 -14 -32 -14 -32 23 -10 20 12 93 74 162
138 228 213 306 271 480 357 175 86 308 195 712 581 223 214 368 333 453 372
61 28 249 62 494 90 160 18 590 6 766 -21 260 -40 505 -102 740 -189 72 -27
147 -51 169 -54 38 -6 38 -6 -14 51 -144 157 -196 192 -361 242 -325 98 -593
140 -934 147 -284 6 -408 -6 -627 -59 -70 -16 -134 -28 -143 -24 -17 6 -20 39
-4 67 16 32 97 77 182 104 119 38 281 55 515 55 375 0 721 -56 1092 -175 74
-24 155 -46 179 -50 43 -7 43 -7 -35 66 -89 82 -180 151 -237 181 -70 35 -433
110 -672 138 -125 15 -529 21 -649 9z"/>
<path d="M3445 6378 c-90 -47 -115 -67 -245 -194 -145 -143 -145 -143 -13
-105 110 33 144 47 208 91 93 65 214 175 226 207 27 71 -40 71 -176 1z"/>
<path d="M5335 6074 c-240 -19 -372 -44 -415 -81 -36 -30 -39 -67 -9 -84 27
-14 54 -14 439 -4 351 9 517 0 756 -41 248 -42 467 -105 719 -207 83 -33 166
-63 187 -67 36 -7 36 -7 -28 71 -36 43 -89 100 -119 127 -50 46 -67 54 -222
105 -259 86 -467 133 -713 163 -123 14 -496 26 -595 18z"/>
<path d="M3194 5973 c-47 -44 -107 -129 -172 -245 -33 -60 -59 -108 -57 -108
16 0 89 63 158 137 119 128 149 169 151 206 1 27 -3 32 -25 35 -17 2 -35 -6
-55 -25z"/>
<path d="M4753 5789 c-110 -21 -244 -110 -443 -294 -216 -200 -394 -335 -675
-510 -144 -90 -318 -217 -457 -333 -67 -56 -84 -77 -112 -137 -18 -38 -41 -95
-51 -125 -10 -30 -24 -67 -31 -81 -13 -26 -13 -26 26 -13 21 7 92 55 157 105
182 142 329 243 558 387 229 143 344 220 581 386 150 106 156 112 191 179 80
152 239 225 536 247 181 13 610 13 792 0 376 -27 688 -108 1058 -276 124 -57
202 -81 190 -60 -32 55 -153 202 -182 221 -74 48 -368 153 -565 201 -295 71
-463 87 -976 89 -272 2 -458 7 -495 14 -33 6 -60 10 -60 10 0 -1 -19 -5 -42
-10z"/>
<path d="M5105 5463 c-233 -20 -430 -73 -501 -135 -35 -31 -43 -58 -21 -76 27
-23 87 -22 247 2 252 38 390 46 830 45 312 -1 423 -4 485 -16 173 -32 497
-154 760 -286 55 -27 122 -56 149 -63 48 -13 48 -13 29 9 -11 12 -30 40 -43
62 -13 22 -44 67 -69 99 -38 51 -56 64 -130 99 -333 154 -625 235 -922 256
-130 10 -716 13 -814 4z"/>
<path d="M5896 5178 c-26 -20 -13 -52 28 -72 18 -8 93 -38 167 -65 190 -70
285 -111 492 -214 232 -114 390 -185 447 -201 46 -12 46 -12 15 36 -117 188
-101 174 -305 270 -350 166 -584 247 -735 255 -68 4 -95 1 -109 -9z"/>
<path d="M5150 5149 c-149 -10 -437 -44 -535 -64 -95 -20 -190 -69 -310 -160
-153 -117 -195 -144 -395 -252 -296 -160 -452 -257 -639 -397 -108 -80 -126
-109 -165 -270 -13 -52 -27 -99 -31 -105 -19 -32 53 8 143 78 358 282 735 472
965 487 73 5 95 2 202 -29 66 -20 194 -54 285 -77 250 -62 287 -76 345 -130
27 -26 75 -63 105 -82 71 -45 263 -130 460 -203 85 -32 173 -67 195 -78 211
-105 476 -376 645 -657 27 -44 61 -95 77 -113 29 -33 29 -33 28 117 -1 94 -6
162 -13 180 -20 47 -139 193 -252 310 -130 134 -249 235 -385 326 -83 56 -102
73 -98 89 7 27 -23 86 -63 120 -86 76 -297 178 -449 216 -49 13 -164 30 -255
40 -275 28 -545 90 -590 135 -26 26 -14 59 31 84 35 19 35 19 99 -7 72 -28
149 -41 345 -57 219 -18 309 -39 497 -115 225 -92 335 -159 491 -299 56 -50
158 -139 227 -197 159 -135 362 -344 465 -480 44 -58 96 -120 116 -137 39 -34
38 -52 8 168 -17 121 -34 145 -249 361 -321 322 -543 485 -895 661 -121 60
-244 124 -273 142 -32 21 -79 39 -120 47 -87 18 -401 17 -502 -1 -107 -18
-124 -18 -128 3 -6 29 25 65 76 91 72 36 192 55 422 66 113 6 238 15 278 20
118 16 240 12 328 -10 129 -33 573 -258 774 -393 134 -89 200 -148 282 -250
109 -134 192 -221 243 -256 42 -28 42 -28 24 18 -9 25 -29 78 -44 117 -14 40
-44 101 -65 137 -22 36 -40 73 -40 82 0 37 53 24 126 -30 16 -13 46 -30 66
-38 36 -15 36 -15 1 46 -53 95 -96 134 -162 148 -66 13 -91 25 -322 156 -97
54 -239 128 -315 163 -235 107 -311 148 -364 195 -33 29 -68 50 -103 59 -121
35 -312 43 -587 25z m157 -844 c93 -31 407 -172 441 -198 9 -7 9 -13 1 -23
-18 -22 -66 -26 -126 -10 -78 20 -512 201 -532 221 -15 15 -14 17 3 31 32 23
102 16 213 -21z"/>
<path d="M5391 4868 c-59 -32 -23 -68 120 -122 253 -94 544 -264 775 -454 106
-87 385 -363 473 -469 47 -57 119 -108 107 -77 -4 9 -15 57 -26 107 -30 138
-53 177 -192 327 -175 189 -303 290 -548 437 -324 194 -621 299 -709 251z"/>
<path d="M4086 4234 c-208 -41 -530 -203 -744 -373 -62 -49 -77 -80 -102 -203
-10 -47 -21 -95 -24 -106 -13 -39 65 -1 192 93 239 176 469 294 679 347 76 19
115 23 283 23 315 0 446 -36 980 -275 291 -129 319 -146 435 -264 176 -178
327 -380 408 -546 23 -47 53 -100 67 -118 25 -34 25 -34 33 15 4 26 10 100 13
163 6 115 6 115 -63 220 -128 194 -287 365 -438 472 -87 62 -195 117 -400 203
-88 37 -239 105 -335 152 -207 102 -271 126 -405 159 -218 52 -436 67 -579 38z"/>
<path d="M4290 3840 c-161 -19 -310 -68 -479 -155 -118 -62 -315 -197 -343
-235 -23 -32 -38 -121 -38 -232 0 -87 0 -87 28 -72 15 7 32 14 38 14 6 0 21
12 35 26 44 48 203 180 273 228 152 104 342 181 516 212 118 20 376 15 490
-11 171 -38 342 -111 446 -189 32 -24 88 -79 123 -121 36 -43 115 -117 177
-167 173 -136 283 -267 374 -442 21 -39 51 -93 69 -120 31 -50 31 -50 31 -17
0 18 7 61 16 95 9 33 17 93 17 131 2 68 0 73 -46 147 -75 120 -134 195 -238
299 -89 89 -95 98 -91 130 8 69 -76 142 -193 170 -27 6 -129 49 -225 94 -205
97 -309 136 -463 175 -182 46 -354 59 -517 40z m1302 -458 c79 -48 87 -59 52
-72 -63 -24 -198 73 -157 113 10 11 42 -2 105 -41z"/>
<path d="M4378 3461 c-224 -49 -401 -141 -564 -294 -104 -96 -110 -121 -70
-267 65 -235 56 -213 80 -177 11 18 40 70 63 117 106 214 308 365 581 432 112
28 300 29 417 4 91 -20 205 -70 282 -123 57 -39 69 -58 52 -79 -19 -23 -70
-16 -161 21 -47 19 -109 40 -138 45 -75 14 -254 12 -330 -4 -199 -42 -375
-152 -491 -304 -45 -60 -49 -69 -49 -121 0 -43 26 -213 36 -229 1 -1 14 4 30
12 16 8 37 17 46 20 10 3 33 36 52 73 97 193 247 319 450 378 144 41 353 47
402 10 19 -13 18 -14 -2 -35 -15 -15 -64 -32 -165 -57 -248 -60 -367 -131
-460 -272 -46 -71 -42 -104 34 -285 25 -59 25 -59 42 -20 9 21 25 62 35 90 26
75 44 105 94 161 82 91 199 150 390 199 182 46 290 31 414 -60 69 -51 128
-119 177 -202 20 -33 51 -75 69 -93 34 -33 34 -33 56 41 12 40 25 100 27 133
5 57 3 63 -37 125 -56 85 -165 197 -265 273 -119 90 -152 124 -172 181 -28 82
-128 176 -245 230 -145 68 -234 87 -428 92 -135 3 -181 0 -252 -15z"/>
<path d="M5039 2600 c-103 -16 -207 -69 -273 -139 -27 -28 -29 -34 -24 -96 3
-36 11 -71 17 -79 6 -7 17 -31 25 -52 13 -39 13 -39 28 -9 26 50 98 124 142
148 55 29 165 30 216 3 46 -25 128 -109 145 -149 12 -28 14 -29 15 -9 0 13 16
53 35 89 62 116 59 163 -11 217 -86 66 -201 93 -315 76z"/>
<path d="M4190 2440 c0 -5 4 -10 8 -10 5 0 14 -10 20 -22 6 -13 11 -17 11 -10
1 19 -18 52 -29 52 -6 0 -10 -4 -10 -10z"/>
</g>
</svg>
