<?xml version="1.0" standalone="no"?>
<!DOCTYPE svg PUBLIC "-//W3C//DTD SVG 20010904//EN"
 "http://www.w3.org/TR/2001/REC-SVG-20010904/DTD/svg10.dtd">
<svg version="1.0" xmlns="http://www.w3.org/2000/svg"
 width="1000.000000pt" height="1000.000000pt" viewBox="0 0 1000.000000 1000.000000"
 preserveAspectRatio="xMidYMid meet">
<metadata>
  <rdf:RDF
    xmlns:rdf = "http://www.w3.org/1999/02/22-rdf-syntax-ns#"
    xmlns:rdfs = "http://www.w3.org/2000/01/rdf-schema#"
    xmlns:dc = "http://purl.org/dc/elements/1.1/"
    xmlns:cc = "http://creativecommons.org/ns#">
    <cc:license rdf:resource="http://creativecommons.org/publicdomain/zero/1.0/deed.en"/>
    <cc:permits rdf:resource="http://creativecommons.org/ns#Reproduction"/>
    <rdf:Description about="https://nft.mir.one/fingerprints"
      dc:title="TON Fingerprints"
      dc:description="This is a unique digital fingerprint created based on the algorithm for generating basic rings using a noise texture. Like human fingerprints, you can now use it for the Web3 and Metaverse era as digital biometric information."
      dc:publisher="https://nft.mir.one"
      dc:date="2022-02-22"
      dc:format="image/svg+xml"
      dc:language="en" >
      <dc:creator>
      <rdf:Bag>
        <rdf:li>EQBondcvD2_aOFADXSWJHs4ZazQDuEl9_wNvGGPxI8hGuOFU</rdf:li>
        <rdf:li>ipfs://bafkreihj7iub3fhmhq6jn62noukt5wxn3gv6bvcg7wmt6ywvlurefezckq</rdf:li>
      </rdf:Bag>
      </dc:creator>
    </rdf:Description>
  </rdf:RDF>
</metadata>
<rect width="100%" height="100%" fill="#1b1f23"/>
<g transform="translate(0.000000,1000.000000) scale(0.100000,-0.100000)"
fill="#ffffff" stroke="none">
<path d="M5234 7777 c15 -14 47 -35 70 -47 37 -20 39 -21 21 -3 -11 11 -42 32
-70 47 -49 26 -49 27 -21 3z"/>
<path d="M4765 7745 c76 -52 253 -140 430 -212 152 -63 209 -93 449 -237 264
-158 306 -173 306 -109 0 62 -286 288 -485 383 -45 21 -110 43 -149 50 -38 6
-139 33 -225 60 -86 27 -202 60 -257 74 -56 14 -110 29 -120 33 -11 3 13 -15
51 -42z"/>
<path d="M4404 7651 c22 -17 73 -50 115 -73 118 -64 271 -157 327 -199 45 -33
58 -38 102 -37 39 1 66 -6 114 -31 79 -40 278 -179 360 -251 84 -74 219 -247
242 -309 12 -35 57 -97 150 -208 73 -87 228 -277 345 -423 254 -315 295 -360
332 -360 51 0 40 70 -30 184 -104 168 -443 607 -645 834 -214 240 -222 252
-171 252 84 0 275 -166 466 -405 113 -141 288 -381 375 -515 78 -121 112 -190
158 -318 21 -57 79 -185 131 -285 135 -264 182 -400 224 -652 11 -66 29 -163
40 -215 19 -95 19 -95 20 -25 1 106 -18 377 -35 495 -20 135 -82 378 -129 506
-83 224 -188 414 -415 754 -189 282 -308 439 -415 547 -86 87 -99 96 -216 151
-68 32 -159 71 -201 86 -42 15 -130 60 -195 100 -175 107 -234 138 -393 209
-80 36 -176 79 -213 96 -82 38 -218 76 -347 97 -52 8 -104 17 -115 21 -12 3
-4 -7 19 -26z"/>
<path d="M5726 7609 c27 -30 98 -105 157 -167 102 -108 133 -155 180 -272 8
-19 57 -89 109 -155 159 -203 306 -419 635 -939 53 -83 112 -169 132 -191 20
-22 44 -51 53 -65 29 -41 -66 162 -176 375 -204 398 -381 677 -609 960 -160
199 -270 310 -427 429 -105 79 -105 79 -54 25z"/>
<path d="M4141 7521 c24 -22 96 -71 159 -108 63 -37 195 -115 293 -174 101
-62 206 -117 245 -130 75 -24 94 -36 202 -123 124 -101 228 -205 278 -280 25
-39 88 -115 139 -169 101 -107 129 -145 187 -252 28 -51 69 -101 155 -185 64
-63 163 -167 220 -230 58 -63 189 -200 292 -305 249 -253 344 -380 404 -540
34 -91 31 -165 -7 -165 -4 0 -25 35 -47 78 -64 126 -132 213 -307 389 -91 91
-227 236 -302 322 -260 296 -311 341 -381 341 -23 0 -43 13 -85 54 -31 30 -90
71 -135 95 -120 62 -357 246 -646 500 -154 136 -366 270 -663 419 -184 93
-195 97 -265 99 -40 2 -111 -4 -161 -14 -90 -18 -90 -18 -25 -49 35 -18 109
-49 164 -70 130 -50 420 -193 562 -277 138 -82 220 -148 297 -235 73 -82 126
-126 334 -270 211 -147 340 -251 429 -347 48 -51 77 -76 89 -73 17 3 20 11 40
106 3 14 12 22 24 22 15 0 30 -21 60 -80 29 -57 102 -157 247 -338 293 -365
306 -379 356 -392 23 -6 49 -13 59 -16 33 -10 99 -71 172 -163 75 -93 127
-141 153 -141 37 0 105 -192 184 -518 27 -115 57 -218 65 -228 14 -17 15 0 10
171 -3 105 -10 240 -16 300 -18 191 -67 476 -96 555 -56 158 -193 395 -284
494 -22 24 -70 61 -106 82 -35 21 -91 63 -122 94 -69 67 -405 453 -527 605
-118 148 -157 187 -247 250 -80 57 -108 87 -108 117 0 25 24 22 75 -8 44 -26
85 -29 92 -7 7 19 -56 82 -131 130 -39 25 -109 78 -156 117 -47 40 -121 101
-165 136 -44 36 -112 95 -152 132 -40 38 -76 68 -81 68 -14 0 -21 -36 -15 -74
3 -21 0 -36 -10 -44 -12 -10 -26 -1 -78 49 -66 64 -237 182 -324 224 -62 30
-143 51 -254 66 -47 6 -97 16 -110 21 -18 6 -13 -2 20 -31z"/>
<path d="M3889 7334 c18 -15 112 -67 207 -115 467 -237 706 -397 1018 -683
316 -289 369 -326 405 -282 23 27 -15 81 -175 252 -312 333 -369 379 -774 615
-415 242 -393 233 -570 237 -145 3 -145 3 -111 -24z"/>
<path d="M3625 6929 c-22 -4 -72 -16 -112 -26 -71 -19 -71 -19 -30 -39 23 -12
105 -42 182 -67 179 -58 297 -109 615 -263 140 -68 269 -124 287 -126 61 -4
73 31 29 81 -58 65 -329 220 -586 334 -259 116 -294 126 -385 106z"/>
<path d="M3450 6688 c-19 -5 -61 -19 -92 -30 -58 -21 -58 -21 -20 -38 20 -10
88 -32 151 -50 142 -38 288 -95 496 -193 209 -97 335 -151 470 -199 61 -21
193 -72 295 -112 102 -41 219 -86 260 -100 97 -34 142 -61 138 -84 -3 -15 -21
-18 -133 -24 -83 -4 -143 -3 -165 4 -19 6 -102 41 -185 78 -82 37 -222 97
-310 133 -203 83 -347 149 -505 229 -137 71 -245 114 -363 147 -73 21 -79 21
-138 6 -35 -9 -80 -25 -101 -36 -20 -10 -48 -19 -60 -19 -41 -1 50 -35 157
-59 222 -51 352 -105 446 -186 68 -59 87 -68 327 -166 320 -130 522 -238 632
-336 25 -22 67 -78 94 -124 35 -59 79 -114 151 -184 200 -199 389 -366 455
-405 102 -60 151 -124 304 -403 361 -659 475 -957 480 -1251 1 -115 -7 -148
-36 -144 -36 5 -55 54 -92 238 -69 337 -148 541 -348 900 -88 157 -195 330
-251 407 -24 32 -167 176 -317 318 -150 143 -339 327 -419 408 -162 165 -253
233 -435 324 -260 130 -466 193 -635 193 -66 0 -166 10 -266 26 -88 14 -178
26 -200 26 -38 1 -105 -25 -184 -71 -34 -20 -34 -20 0 -35 19 -8 188 -37 377
-66 188 -28 385 -62 436 -75 266 -69 552 -218 756 -395 141 -120 476 -437 587
-555 141 -148 249 -293 384 -515 223 -369 293 -549 379 -975 49 -243 52 -267
48 -370 -4 -93 -11 -127 -42 -219 -36 -106 -38 -124 -20 -188 7 -25 182 238
255 385 33 66 76 143 95 171 76 115 96 231 70 404 -27 180 -73 295 -278 700
-249 493 -270 540 -418 922 -103 264 -311 461 -603 572 -102 38 -141 66 -130
93 7 19 15 19 153 -5 93 -16 132 -28 205 -65 168 -84 301 -208 422 -393 77
-117 125 -224 178 -402 26 -85 60 -188 77 -229 38 -96 174 -364 284 -561 215
-383 266 -538 264 -790 -1 -63 -1 -144 0 -180 2 -65 2 -65 51 85 57 171 94
363 86 446 -6 69 -50 159 -149 303 -40 59 -101 150 -135 204 -76 117 -273 502
-302 589 -23 68 -27 133 -11 164 19 34 37 21 60 -43 28 -79 82 -188 221 -448
129 -240 160 -285 232 -339 37 -27 71 -66 107 -122 98 -152 153 -195 195 -152
16 16 16 17 -3 24 -25 9 -20 -6 -83 279 -54 244 -109 425 -161 522 -16 31 -87
130 -157 220 -149 191 -209 241 -226 189 -9 -30 13 -73 129 -245 187 -280 319
-590 274 -648 -7 -10 -18 -14 -24 -10 -7 4 -62 107 -123 229 -112 224 -210
400 -284 505 -27 40 -52 63 -79 75 -36 16 -46 29 -89 115 -66 132 -117 213
-214 343 -134 180 -271 334 -303 340 -108 23 -191 73 -302 185 -83 83 -134
119 -288 204 -191 106 -261 135 -360 151 -124 20 -185 43 -457 168 -456 209
-574 246 -685 215z m1622 -1134 c237 -144 468 -387 468 -491 0 -58 -30 -40
-161 93 -68 69 -182 177 -254 239 -138 119 -168 150 -178 177 -15 41 40 34
125 -18z"/>
<path d="M3235 6211 c-27 -10 -68 -27 -90 -39 -22 -11 -46 -22 -53 -24 -42
-12 447 -111 555 -112 61 -1 95 22 77 52 -17 29 -118 71 -259 107 -156 40
-163 41 -230 16z"/>
<path d="M3112 5715 c-18 -8 -60 -31 -93 -52 -60 -37 -60 -37 -27 -49 18 -7
118 -27 221 -44 711 -119 1072 -286 1534 -711 257 -237 465 -497 599 -749 16
-30 61 -86 100 -125 53 -52 80 -89 107 -145 122 -260 167 -660 111 -980 -18
-105 -23 -117 -69 -175 -43 -53 -61 -90 -102 -210 -24 -66 -36 -121 -37 -163
-2 -62 -2 -62 61 0 80 80 166 183 188 227 12 24 16 48 12 80 -6 56 4 77 42 86
33 7 65 38 82 80 7 17 14 98 17 190 9 337 -83 746 -223 987 -79 136 -284 450
-355 543 -143 188 -421 468 -680 685 -263 219 -548 360 -900 444 -105 26 -505
96 -538 96 -9 -1 -32 -7 -50 -15z"/>
<path d="M3045 5432 c-27 -16 -66 -39 -86 -53 -36 -25 -36 -25 5 -42 23 -9 49
-17 58 -17 37 0 625 -153 735 -191 346 -120 654 -320 934 -605 308 -315 459
-608 459 -891 0 -111 21 -196 75 -302 25 -51 80 -104 99 -98 19 6 18 84 -3
190 -25 122 -56 326 -71 457 -13 121 -38 194 -102 306 -70 124 -149 230 -265
359 -392 434 -809 690 -1343 823 -138 35 -406 92 -430 92 -8 0 -37 -13 -65
-28z"/>
<path d="M3040 5166 c-19 -6 -56 -28 -82 -48 -47 -36 -47 -36 -3 -47 24 -6 62
-11 83 -11 24 0 49 -7 63 -18 22 -19 22 -19 -42 -70 -35 -28 -81 -71 -101 -96
-38 -45 -38 -45 -10 -48 15 -2 86 11 157 29 157 39 256 42 410 13 285 -55 597
-211 855 -428 198 -166 357 -359 501 -608 96 -168 159 -245 184 -224 23 19 18
69 -16 167 -149 427 -572 872 -1053 1107 -169 83 -333 138 -556 186 -99 22
-210 52 -247 68 -93 41 -103 43 -143 28z"/>
<path d="M3197 4739 c-48 -5 -100 -15 -116 -23 -15 -8 -57 -47 -92 -87 -64
-72 -64 -72 26 -66 260 19 301 19 415 3 387 -57 773 -294 1075 -661 45 -55
148 -194 228 -310 263 -381 384 -588 394 -679 5 -43 4 -46 -19 -46 -46 0 -154
138 -308 391 -247 407 -420 628 -633 805 -208 175 -411 283 -635 340 -110 28
-314 49 -379 39 -44 -6 -75 -31 -156 -123 -29 -32 -29 -32 0 -33 15 0 96 -2
178 -4 257 -5 447 -59 669 -189 246 -145 476 -371 651 -639 72 -112 166 -298
200 -401 26 -77 26 -80 10 -125 -12 -33 -19 -104 -25 -256 -5 -115 -13 -234
-19 -264 -6 -29 -11 -69 -11 -88 0 -33 0 -33 38 -14 52 27 119 87 139 125 13
23 17 57 18 141 0 96 -4 125 -33 224 -23 76 -30 117 -24 123 21 21 62 -3 106
-59 131 -166 154 -304 87 -516 -45 -143 -51 -168 -38 -160 99 58 216 145 260
192 62 67 74 103 84 246 7 100 -21 348 -49 430 -31 93 -204 390 -270 465 -32
36 -104 133 -160 215 -161 239 -234 332 -368 466 -373 376 -838 577 -1243 538z"/>
<path d="M3172 4144 c-16 -6 -51 -37 -77 -68 -27 -31 -56 -57 -64 -57 -25 -2
65 -17 169 -28 267 -28 497 -148 841 -438 266 -223 377 -549 328 -958 -6 -49
-12 -133 -13 -186 -2 -96 -2 -96 40 -65 24 17 54 39 68 49 14 10 37 38 52 63
25 43 26 50 32 254 7 297 -14 403 -123 608 -168 315 -521 626 -862 761 -131
52 -341 87 -391 65z"/>
<path d="M5362 3918 c-19 -19 -14 -94 19 -248 18 -84 33 -192 36 -256 6 -114
3 -127 -37 -191 -12 -18 -12 -38 -1 -129 17 -139 30 -183 62 -207 35 -25 61
-12 83 44 26 65 42 353 28 494 -21 195 -92 434 -146 488 -21 20 -28 21 -44 5z"/>
<path d="M3198 3769 c-37 -39 -54 -65 -46 -67 17 -5 75 -31 169 -76 57 -27 91
-51 132 -96 65 -70 87 -126 88 -226 2 -75 -10 -259 -17 -286 -8 -27 115 40
136 75 10 17 21 61 24 105 9 95 22 139 46 152 26 14 38 -6 50 -86 19 -137 9
-308 -30 -486 -8 -37 -8 -37 21 -23 15 8 35 15 44 15 22 0 92 46 104 69 30 56
20 248 -20 389 -21 75 -24 127 -8 137 30 19 116 -124 150 -252 28 -104 31
-311 7 -433 -9 -47 -19 -104 -21 -127 -5 -42 -5 -42 32 -26 151 63 161 75 175
198 12 114 -3 271 -35 380 -52 172 -155 308 -258 339 -79 23 -124 51 -211 131
-45 42 -111 96 -145 121 -81 57 -220 122 -280 131 -47 6 -47 6 -107 -58z"/>
</g>
</svg>
