<?xml version="1.0" standalone="no"?>
<!DOCTYPE svg PUBLIC "-//W3C//DTD SVG 20010904//EN"
 "http://www.w3.org/TR/2001/REC-SVG-20010904/DTD/svg10.dtd">
<svg version="1.0" xmlns="http://www.w3.org/2000/svg"
 width="1000.000000pt" height="1000.000000pt" viewBox="0 0 1000.000000 1000.000000"
 preserveAspectRatio="xMidYMid meet">
<metadata>
  <rdf:RDF
    xmlns:rdf = "http://www.w3.org/1999/02/22-rdf-syntax-ns#"
    xmlns:rdfs = "http://www.w3.org/2000/01/rdf-schema#"
    xmlns:dc = "http://purl.org/dc/elements/1.1/"
    xmlns:cc = "http://creativecommons.org/ns#">
    <cc:license rdf:resource="http://creativecommons.org/publicdomain/zero/1.0/deed.en"/>
    <cc:permits rdf:resource="http://creativecommons.org/ns#Reproduction"/>
    <rdf:Description about="https://nft.mir.one/fingerprints"
      dc:title="TON Fingerprints"
      dc:description="This is a unique digital fingerprint created based on the algorithm for generating basic rings using a noise texture. Like human fingerprints, you can now use it for the Web3 and Metaverse era as digital biometric information."
      dc:publisher="https://nft.mir.one"
      dc:date="2022-02-22"
      dc:format="image/svg+xml"
      dc:language="en" >
      <dc:creator>
      <rdf:Bag>
        <rdf:li>EQBondcvD2_aOFADXSWJHs4ZazQDuEl9_wNvGGPxI8hGuOFU</rdf:li>
        <rdf:li>ipfs://bafkreihj7iub3fhmhq6jn62noukt5wxn3gv6bvcg7wmt6ywvlurefezckq</rdf:li>
      </rdf:Bag>
      </dc:creator>
    </rdf:Description>
  </rdf:RDF>
</metadata>
<rect width="100%" height="100%" fill="#1b1f23"/>
<g transform="translate(0.000000,1000.000000) scale(0.100000,-0.100000)"
fill="#ffffff" stroke="none">
<path d="M4675 7730 c63 -35 81 -40 180 -50 61 -6 138 -17 173 -25 209 -49
546 -218 842 -423 163 -114 194 -132 222 -132 23 0 28 4 28 23 0 124 -452 427
-812 545 -163 53 -259 71 -453 82 -88 6 -180 12 -205 15 -45 5 -45 5 25 -35z"/>
<path d="M4161 7528 c25 -20 92 -59 148 -88 129 -66 245 -149 341 -243 78 -76
83 -83 192 -252 189 -294 479 -542 802 -690 84 -38 130 -44 144 -19 29 52 -49
138 -292 321 -238 180 -332 258 -443 368 -116 115 -149 185 -89 185 32 0 86
-36 416 -280 412 -304 451 -341 584 -544 40 -61 133 -195 207 -298 190 -264
254 -370 388 -643 66 -132 129 -250 142 -261 13 -12 42 -27 64 -34 54 -17 157
-124 217 -225 27 -44 59 -93 73 -110 25 -30 25 -30 -1 65 -54 202 -98 307
-186 437 -30 45 -78 136 -106 201 -68 158 -107 226 -281 487 -81 121 -183 278
-227 348 -182 295 -286 390 -774 713 -252 167 -352 222 -478 265 -109 37 -174
80 -248 164 -74 84 -132 124 -203 143 -33 8 -135 16 -246 19 -190 6 -190 6
-144 -29z"/>
<path d="M4878 7543 c-10 -2 -21 -16 -24 -29 -5 -20 0 -33 24 -57 35 -36 66
-53 292 -160 85 -41 214 -110 285 -154 567 -348 594 -365 670 -427 161 -131
222 -207 266 -332 17 -49 49 -120 72 -159 45 -77 411 -594 463 -653 29 -33 35
-36 53 -24 11 6 32 12 47 12 25 0 25 0 6 25 -11 14 -65 116 -120 228 -117 236
-182 342 -293 481 -96 119 -107 139 -89 161 27 32 94 7 185 -69 28 -23 75 -60
105 -81 54 -40 54 -40 23 5 -89 129 -171 221 -345 389 -204 196 -325 298 -361
305 -12 3 -46 8 -75 11 -86 10 -149 39 -333 154 -96 59 -224 135 -285 169
-243 134 -495 226 -566 205z"/>
<path d="M3940 7330 c-25 -5 -67 -9 -95 -9 -50 -1 -50 -1 -15 -29 19 -15 109
-63 200 -108 254 -124 476 -284 577 -416 45 -57 63 -110 43 -123 -22 -13 -59
5 -162 82 -165 123 -302 209 -463 290 -150 75 -150 75 -220 71 -38 -3 -111
-16 -161 -28 -91 -24 -91 -24 -50 -51 22 -15 102 -51 176 -80 178 -70 391
-179 625 -319 150 -90 208 -130 275 -195 47 -44 146 -127 221 -182 169 -126
265 -216 438 -411 75 -84 173 -194 219 -245 167 -186 275 -343 422 -612 109
-201 133 -237 194 -292 25 -23 55 -63 66 -88 11 -25 61 -175 111 -333 121
-382 126 -395 171 -446 48 -56 90 -145 96 -208 8 -87 -42 -54 -98 65 -39 82
-62 99 -86 61 -15 -23 -16 -33 -6 -83 7 -32 30 -105 52 -163 22 -58 46 -141
54 -184 9 -44 21 -101 28 -128 12 -48 12 -48 30 45 10 52 25 137 33 189 10 60
25 113 42 145 20 37 27 67 30 125 4 67 0 86 -32 175 -83 228 -175 518 -200
630 -26 114 -27 128 -19 275 15 304 12 385 -19 475 -82 234 -291 566 -476 755
-42 42 -91 85 -110 95 -64 33 -286 85 -360 85 -65 0 -73 3 -133 43 -97 64
-264 203 -354 292 -84 83 -134 151 -198 270 -117 216 -298 391 -550 530 -63
35 -75 38 -160 41 -50 1 -111 -1 -136 -6z m1628 -1323 c147 -103 239 -185 323
-286 210 -251 352 -528 389 -763 22 -136 2 -242 -43 -225 -8 3 -38 76 -68 164
-118 350 -265 585 -552 882 -153 158 -197 218 -197 267 0 59 17 54 148 -39z"/>
<path d="M6368 7125 c11 -16 42 -50 68 -75 43 -40 42 -38 -11 20 -79 87 -82
90 -57 55z"/>
<path d="M3555 6805 c-33 -8 -92 -27 -131 -42 -72 -29 -72 -29 -40 -49 17 -12
76 -36 131 -54 127 -42 244 -88 530 -210 126 -54 261 -107 299 -119 76 -23
146 -27 164 -9 20 20 13 58 -15 84 -71 65 -732 380 -853 407 -14 3 -52 -1 -85
-8z"/>
<path d="M3358 6500 c-32 -11 -72 -29 -90 -40 -18 -11 -42 -20 -53 -20 -44 -1
40 -49 159 -91 67 -23 253 -97 414 -165 161 -68 384 -158 495 -200 429 -163
642 -293 916 -559 170 -165 311 -334 449 -539 246 -364 360 -592 446 -893 47
-162 156 -727 163 -843 6 -109 -10 -170 -46 -170 -24 0 -39 46 -71 220 -30
163 -126 573 -167 715 -119 412 -364 834 -708 1218 -266 297 -455 413 -1220
752 -170 76 -404 180 -519 232 -239 109 -240 109 -363 53 -72 -32 -72 -32 -45
-55 15 -12 52 -35 82 -50 30 -15 123 -68 205 -118 85 -51 251 -137 382 -198
247 -114 323 -155 528 -284 172 -109 162 -105 254 -105 57 0 95 -6 131 -20
108 -43 286 -184 427 -339 360 -395 571 -741 681 -1121 82 -281 154 -540 192
-690 23 -90 57 -202 76 -249 20 -48 40 -117 46 -160 23 -173 16 -164 54 -77
18 42 62 125 98 184 70 115 100 190 116 288 11 67 1 135 -46 329 -15 60 -28
156 -34 240 -10 152 -39 276 -120 510 -59 170 -101 255 -232 465 -63 102 -141
229 -174 283 -234 388 -702 871 -1013 1045 -100 56 -169 80 -303 107 -159 33
-262 67 -543 183 -289 118 -460 182 -488 182 -12 -1 -48 -10 -79 -20z"/>
<path d="M3052 5886 c-43 -12 -43 -12 -15 -38 15 -14 51 -37 79 -52 92 -45
100 -68 38 -107 -18 -11 -62 -59 -96 -107 -34 -48 -76 -106 -95 -129 -33 -41
-33 -41 10 -36 30 4 69 23 139 70 142 96 238 122 238 65 0 -23 -27 -51 -95
-102 -67 -49 -87 -77 -75 -100 15 -28 50 -31 171 -15 140 19 195 19 283 0 193
-41 355 -151 306 -209 -18 -22 -51 -20 -197 13 -134 31 -230 46 -373 56 -47 4
-122 15 -168 26 -46 10 -93 19 -105 19 -14 0 -52 -31 -107 -89 -86 -89 -86
-89 -36 -100 28 -5 94 -13 146 -16 109 -7 315 -36 505 -71 72 -13 189 -31 260
-39 155 -19 191 -27 270 -67 83 -42 246 -154 338 -233 135 -115 298 -313 353
-430 30 -62 236 -634 284 -788 33 -105 44 -198 43 -377 -1 -263 -32 -428 -127
-660 -24 -58 -47 -124 -53 -146 -10 -42 -10 -42 110 64 66 59 132 126 148 149
30 48 62 170 80 303 7 48 13 229 14 412 1 326 1 326 31 352 53 44 67 135 39
263 -40 190 -151 414 -233 471 -15 11 -45 25 -67 32 -53 17 -57 20 -140 130
-100 131 -148 185 -374 420 -109 113 -245 259 -303 325 -240 275 -364 356
-692 455 -70 22 -140 47 -154 56 -49 32 -124 109 -163 166 -22 32 -48 62 -59
68 -24 13 -102 11 -158 -4z m2010 -1673 c9 -10 39 -67 68 -128 94 -197 200
-559 172 -587 -17 -17 -60 17 -89 68 -32 58 -193 522 -200 575 -5 44 8 89 26
89 4 0 15 -8 23 -17z"/>
<path d="M6930 5501 c-32 -60 28 -216 117 -302 45 -44 45 -44 28 -4 -30 70
-95 265 -95 283 0 18 -18 42 -32 42 -4 0 -12 -9 -18 -19z"/>
<path d="M4507 5273 c-4 -3 -7 -25 -7 -47 0 -66 44 -127 229 -319 94 -98 233
-248 308 -333 76 -86 169 -190 206 -232 173 -196 282 -456 294 -702 5 -106 3
-121 -20 -190 -43 -125 -48 -162 -57 -489 -5 -180 -16 -359 -24 -416 -21 -140
-20 -182 6 -232 13 -24 25 -43 28 -43 3 0 13 17 23 38 9 20 37 71 62 112 78
129 79 140 70 490 -12 404 -11 449 9 468 14 14 17 14 35 -2 29 -26 48 -92 71
-241 23 -151 44 -425 36 -470 -9 -46 -10 -241 -1 -255 8 -13 66 82 129 210 40
82 41 88 40 180 -1 118 -57 382 -116 550 -74 210 -97 284 -138 440 -90 338
-205 547 -495 897 -116 140 -343 371 -456 465 -118 96 -209 144 -232 121z"/>
<path d="M6684 4965 c-3 -8 17 -67 45 -132 60 -141 125 -323 175 -490 20 -67
48 -141 62 -165 25 -43 25 -43 20 -3 -3 22 -8 90 -11 150 -8 135 -29 278 -55
365 -48 161 -208 348 -236 275z"/>
<path d="M6576 4901 c-26 -28 -36 -119 -25 -219 16 -144 53 -286 184 -699 31
-98 67 -209 78 -248 22 -70 22 -70 30 15 9 95 2 303 -14 401 -5 35 -35 145
-65 244 -30 99 -68 239 -85 310 -51 215 -64 239 -103 196z"/>
<path d="M3019 4827 c-39 -37 -99 -105 -99 -111 0 -9 121 -37 200 -47 168 -20
364 -85 500 -165 96 -56 151 -118 194 -220 21 -49 78 -172 128 -272 143 -294
192 -442 222 -685 11 -85 25 -139 48 -195 32 -77 32 -78 32 -247 0 -169 -2
-184 -47 -360 -32 -126 -36 -119 34 -72 121 80 135 103 163 272 22 131 49 449
42 489 -4 18 -15 41 -25 50 -17 15 -19 15 -32 0 -8 -9 -23 -35 -34 -58 -43
-88 -74 -15 -36 83 25 62 26 116 5 217 -42 208 -109 377 -237 608 -117 210
-130 256 -69 256 34 0 69 -35 140 -140 27 -41 64 -93 82 -115 69 -85 142 -267
215 -537 20 -73 50 -176 66 -228 44 -143 54 -246 40 -412 -14 -175 -43 -323
-86 -452 -19 -56 -38 -120 -43 -142 -9 -42 -9 -42 52 -3 104 65 145 115 173
211 44 151 64 300 65 468 0 222 -33 384 -161 780 -70 218 -84 284 -70 333 12
43 35 65 56 51 26 -16 192 -495 248 -715 97 -379 84 -668 -45 -1044 -27 -77
-52 -155 -55 -173 -7 -33 -7 -33 75 29 113 87 143 125 174 222 103 326 109
641 17 968 -49 172 -160 488 -205 584 -51 108 -82 146 -145 180 -37 21 -56 41
-86 93 -51 87 -126 160 -201 194 -98 45 -391 158 -519 200 -234 77 -560 148
-680 148 -48 0 -56 -3 -96 -43z m1280 -463 c50 -44 81 -118 60 -139 -21 -22
-57 1 -101 64 -68 98 -40 149 41 75z"/>
<path d="M3033 4434 c-35 -37 -63 -70 -63 -73 0 -10 80 -47 165 -76 109 -37
179 -75 271 -150 256 -205 464 -675 467 -1050 0 -93 -2 -106 -36 -185 -20 -47
-38 -97 -41 -112 -4 -16 -8 -39 -11 -53 -5 -25 -5 -25 47 11 29 20 69 52 89
71 35 33 37 34 54 17 15 -16 17 -31 12 -114 -3 -52 -9 -110 -13 -129 -7 -34
-7 -34 39 -2 26 17 59 48 74 67 45 59 42 108 -22 464 -76 420 -115 549 -231
777 -154 303 -280 439 -490 533 -72 33 -194 70 -229 70 -12 0 -46 -27 -82 -66z"/>
<path d="M3149 4052 c-15 -9 -41 -32 -58 -51 -31 -33 -31 -33 16 -75 26 -22
63 -54 84 -71 65 -52 105 -110 137 -197 12 -32 49 -111 82 -175 33 -65 69
-145 80 -178 23 -67 70 -290 70 -332 0 -23 2 -25 13 -11 6 9 29 21 49 28 20 6
51 27 68 46 25 28 30 43 30 83 0 127 -60 341 -145 516 -91 186 -181 305 -299
392 -64 47 -87 52 -127 25z"/>
<path d="M5302 2298 c-5 -7 -19 -32 -31 -55 -21 -42 -21 -42 29 8 28 27 50 52
50 54 0 11 -38 4 -48 -7z"/>
</g>
</svg>
