<?xml version="1.0" standalone="no"?>
<!DOCTYPE svg PUBLIC "-//W3C//DTD SVG 20010904//EN"
 "http://www.w3.org/TR/2001/REC-SVG-20010904/DTD/svg10.dtd">
<svg version="1.0" xmlns="http://www.w3.org/2000/svg"
 width="1000.000000pt" height="1000.000000pt" viewBox="0 0 1000.000000 1000.000000"
 preserveAspectRatio="xMidYMid meet">
<metadata>
  <rdf:RDF
    xmlns:rdf = "http://www.w3.org/1999/02/22-rdf-syntax-ns#"
    xmlns:rdfs = "http://www.w3.org/2000/01/rdf-schema#"
    xmlns:dc = "http://purl.org/dc/elements/1.1/"
    xmlns:cc = "http://creativecommons.org/ns#">
    <cc:license rdf:resource="http://creativecommons.org/publicdomain/zero/1.0/deed.en"/>
    <cc:permits rdf:resource="http://creativecommons.org/ns#Reproduction"/>
    <rdf:Description about="https://nft.mir.one/fingerprints"
      dc:title="TON Fingerprints"
      dc:description="This is a unique digital fingerprint created based on the algorithm for generating basic rings using a noise texture. Like human fingerprints, you can now use it for the Web3 and Metaverse era as digital biometric information."
      dc:publisher="https://nft.mir.one"
      dc:date="2022-02-22"
      dc:format="image/svg+xml"
      dc:language="en" >
      <dc:creator>
      <rdf:Bag>
        <rdf:li>EQBondcvD2_aOFADXSWJHs4ZazQDuEl9_wNvGGPxI8hGuOFU</rdf:li>
        <rdf:li>ipfs://bafkreihj7iub3fhmhq6jn62noukt5wxn3gv6bvcg7wmt6ywvlurefezckq</rdf:li>
      </rdf:Bag>
      </dc:creator>
    </rdf:Description>
  </rdf:RDF>
</metadata>
<rect width="100%" height="100%" fill="#1b1f23"/>
<g transform="translate(0.000000,1000.000000) scale(0.100000,-0.100000)"
fill="#ffffff" stroke="none">
<path d="M4669 7787 c17 -21 133 -60 311 -105 219 -56 403 -134 593 -250 96
-60 129 -54 93 16 -18 35 -70 76 -176 140 -182 109 -387 164 -695 188 -49 4
-101 11 -114 16 -20 7 -22 6 -12 -5z"/>
<path d="M4625 7757 c-13 -29 -88 -54 -201 -65 -89 -9 -89 -9 21 -11 97 -1
116 2 155 22 43 21 61 50 43 68 -5 5 -13 -1 -18 -14z"/>
<path d="M5732 7559 c92 -98 141 -142 180 -162 53 -27 88 -34 88 -19 0 17
-109 106 -315 257 -80 59 -80 59 47 -76z"/>
<path d="M4480 7526 c-193 -30 -298 -54 -469 -108 -135 -43 -135 -43 -82 -53
33 -6 107 -7 190 -3 75 4 262 9 416 10 311 3 375 -3 665 -60 225 -43 393 -50
429 -18 29 26 26 44 -6 52 -36 7 -182 51 -348 104 -227 72 -322 91 -490 96
-123 3 -178 -1 -305 -20z"/>
<path d="M5740 7253 c-8 -3 -40 -21 -70 -39 -106 -64 -188 -66 -558 -19 -108
14 -276 29 -372 34 -208 10 -647 -4 -743 -24 -90 -19 -241 -84 -357 -155 -52
-32 -108 -65 -125 -73 -30 -16 -30 -16 20 -16 28 0 106 11 175 24 417 81 913
96 1405 45 172 -18 265 -22 514 -21 402 2 505 -16 761 -129 52 -23 115 -46
140 -50 25 -5 54 -12 65 -16 11 -4 2 8 -20 27 -22 18 -84 73 -137 121 -157
140 -332 254 -423 276 -48 12 -254 23 -275 15z"/>
<path d="M4310 6914 c-289 -25 -386 -39 -566 -80 -173 -39 -292 -121 -388
-268 -30 -44 -89 -118 -131 -163 -76 -82 -76 -82 -18 -56 32 14 110 64 173
111 134 99 234 149 382 191 398 112 912 123 1603 35 333 -42 562 -93 757 -170
214 -84 498 -248 670 -386 60 -49 70 -53 108 -50 41 4 41 4 22 26 -10 11 -49
66 -87 121 -87 128 -175 234 -264 317 -75 72 -156 115 -334 182 -218 82 -345
104 -757 136 -146 11 -337 27 -425 35 -153 15 -651 27 -745 19z"/>
<path d="M4260 6590 c-463 -44 -775 -166 -1001 -390 -100 -100 -243 -278 -214
-266 9 3 25 6 35 6 10 0 51 25 92 56 142 108 487 295 623 337 203 63 491 92
840 84 635 -14 1142 -158 1627 -460 135 -84 239 -170 326 -269 171 -194 434
-631 449 -747 6 -45 -10 -81 -36 -81 -24 0 -33 12 -76 94 -52 101 -234 371
-324 484 -125 155 -212 228 -386 322 -44 24 -136 76 -205 115 -393 228 -675
324 -1115 381 -198 26 -546 24 -800 -4 -292 -33 -338 -46 -464 -132 -31 -21
-123 -68 -205 -104 -157 -69 -186 -87 -186 -118 0 -29 53 -46 156 -50 90 -3
91 -2 127 29 46 40 93 48 212 32 120 -15 175 -3 175 37 0 29 -35 47 -115 59
-59 8 -85 20 -85 39 0 35 126 46 275 24 71 -10 98 -9 225 10 437 66 1050 -31
1368 -217 93 -54 273 -190 345 -260 46 -44 70 -80 112 -166 37 -77 78 -140
135 -210 212 -261 256 -318 327 -422 74 -110 95 -129 125 -118 26 10 51 79 44
118 -14 74 -180 308 -385 540 -142 162 -147 170 -125 191 67 67 254 -102 514
-464 45 -63 99 -132 119 -154 47 -51 118 -96 150 -96 15 0 37 -7 51 -15 14 -8
35 -19 46 -24 12 -5 30 -20 39 -33 15 -19 16 -20 10 -3 -4 11 -11 79 -15 150
-5 79 -19 169 -34 230 -63 253 -181 535 -298 717 -98 152 -304 309 -578 442
-313 151 -613 229 -1101 287 -198 23 -641 34 -799 19z"/>
<path d="M4343 5960 c-65 -10 -117 -39 -121 -68 -5 -35 57 -56 268 -91 102
-17 275 -51 385 -76 110 -25 272 -58 360 -75 88 -16 185 -38 215 -48 46 -16
55 -23 55 -43 0 -32 -46 -48 -143 -48 -45 -1 -94 -8 -129 -21 -66 -23 -63 -24
-333 55 -102 29 -271 76 -376 104 -218 57 -260 74 -327 125 -82 63 -112 67
-268 40 -75 -13 -105 -13 -177 -4 -48 7 -122 14 -164 17 -73 5 -78 4 -78 -14
0 -11 12 -33 27 -48 55 -54 145 -88 378 -140 123 -28 587 -164 717 -211 70
-25 454 -196 561 -250 112 -57 187 -130 187 -183 0 -30 -27 -38 -59 -17 -44
29 -164 84 -197 91 -22 4 -37 1 -52 -12 -19 -16 -20 -21 -9 -43 31 -62 167
-130 258 -130 67 0 106 -20 173 -88 80 -82 104 -117 222 -333 123 -223 164
-310 193 -404 36 -116 22 -223 -24 -185 -9 7 -59 98 -111 202 -190 374 -341
560 -544 673 -148 82 -220 135 -269 199 -24 31 -64 72 -90 90 -25 19 -78 68
-117 109 -101 105 -157 130 -490 216 -293 76 -323 85 -494 156 -162 66 -208
91 -258 136 -56 52 -134 89 -254 119 -96 24 -96 24 -149 -9 -30 -18 -73 -50
-97 -71 -41 -37 -42 -39 -20 -46 13 -4 59 -6 103 -5 144 3 350 -35 363 -67 11
-30 -26 -39 -182 -45 -181 -6 -187 -9 -290 -108 -68 -67 -70 -69 -41 -68 17 1
73 10 125 20 137 26 333 49 420 49 114 -1 210 -51 210 -111 0 -40 -63 -56 -91
-23 -42 50 -196 48 -433 -8 -82 -19 -95 -25 -143 -71 -30 -28 -69 -72 -87 -97
-34 -47 -34 -47 3 -40 20 4 83 24 141 44 58 21 193 59 301 87 108 27 204 52
213 55 26 10 20 -34 -9 -60 -39 -36 -116 -69 -281 -121 -250 -79 -253 -81
-347 -222 -55 -81 -55 -81 -23 -71 17 6 74 32 126 58 52 26 133 60 180 75 229
72 304 107 436 201 49 35 103 68 121 73 47 13 101 -3 142 -43 36 -35 36 -35
149 -23 166 16 438 -12 547 -57 26 -11 35 -21 35 -39 0 -42 -51 -57 -243 -73
-197 -16 -264 -30 -362 -79 -94 -46 -260 -151 -372 -236 -103 -77 -338 -293
-451 -413 -80 -87 -96 -123 -131 -309 -18 -98 -18 -98 7 -75 13 13 56 66 95
118 133 180 396 429 587 557 102 68 237 135 340 168 84 26 438 85 515 85 122
0 282 -65 468 -190 213 -142 292 -233 555 -645 28 -44 79 -109 112 -145 80
-86 191 -306 198 -391 6 -80 -27 -190 -103 -345 -104 -211 -161 -289 -392
-533 -114 -120 -228 -242 -252 -271 -43 -51 -43 -51 80 27 68 42 174 114 234
159 61 45 149 101 197 123 75 36 97 52 148 111 33 39 91 116 129 172 85 127
115 155 177 171 47 12 50 15 82 79 32 66 98 325 121 475 15 101 14 295 -4 394
-48 278 -186 553 -369 735 -70 70 -91 85 -156 109 -73 27 -80 33 -250 205
-125 126 -201 194 -265 237 -136 91 -178 141 -140 169 14 10 36 6 132 -27 201
-69 246 -99 488 -325 248 -230 353 -340 442 -459 228 -305 330 -656 323 -1115
-1 -80 1 -170 6 -200 7 -55 7 -55 26 5 83 266 114 419 124 600 6 124 -5 182
-71 360 -73 197 -118 280 -198 363 -40 43 -119 133 -174 202 -56 69 -132 159
-170 200 -37 41 -122 138 -189 215 -131 152 -199 218 -284 282 -67 50 -99 84
-133 144 -41 73 -119 122 -272 172 -275 90 -777 163 -942 137z m1547 -1297
c100 -114 242 -364 289 -512 34 -104 51 -217 51 -330 0 -116 -16 -191 -51
-235 -25 -31 -64 -34 -79 -6 -6 11 -15 118 -19 238 -8 196 -11 225 -36 302
-37 113 -62 170 -150 330 -77 140 -98 200 -84 238 13 33 33 27 79 -25z"/>
<path d="M6952 5938 c-33 -42 -17 -121 49 -247 22 -42 37 -67 33 -56 -34 103
-65 228 -66 267 -1 53 -1 54 -16 36z"/>
<path d="M3883 5068 c-23 -5 -91 -39 -150 -75 -59 -36 -153 -92 -207 -124
-100 -58 -100 -58 -175 -56 -70 2 -83 -1 -159 -37 -101 -48 -138 -87 -197
-208 -25 -50 -50 -97 -57 -105 -18 -22 54 25 145 96 96 74 282 201 296 201 16
0 19 -25 6 -56 -7 -17 -59 -73 -116 -125 -57 -52 -117 -108 -135 -126 -31 -31
-72 -124 -111 -251 -24 -76 -54 -101 286 236 165 163 291 278 355 325 280 204
306 228 306 288 0 32 -11 34 -87 17z"/>
<path d="M6739 4728 c-22 -41 -4 -127 59 -279 33 -79 74 -183 91 -232 17 -48
42 -104 57 -125 26 -37 26 -37 20 113 -11 246 -36 388 -79 453 -23 34 -101 92
-123 92 -7 0 -19 -10 -25 -22z"/>
<path d="M4570 4582 c-17 -14 -21 -25 -17 -44 12 -46 70 -88 231 -170 255
-130 421 -270 582 -493 132 -184 208 -384 161 -424 -28 -22 -55 -2 -103 77
-134 219 -201 310 -309 418 -125 126 -241 207 -378 267 -139 59 -176 65 -315
44 -255 -37 -361 -79 -486 -197 -45 -42 -116 -104 -159 -139 -142 -115 -225
-208 -299 -335 -39 -65 -42 -78 -46 -157 -5 -105 9 -193 54 -324 18 -55 32
-89 29 -75 -9 53 15 259 39 334 32 102 101 209 184 287 138 131 210 154 447
146 114 -4 182 -11 236 -25 317 -84 559 -378 563 -682 2 -233 -108 -439 -353
-657 -87 -78 -171 -174 -140 -160 8 3 68 28 134 55 178 72 214 93 286 168 168
175 270 376 286 560 11 140 -37 290 -146 456 -114 172 -242 287 -404 363 -131
62 -170 69 -394 70 -206 0 -233 5 -220 38 9 23 104 63 189 81 96 20 251 20
343 1 84 -18 215 -79 303 -142 76 -54 190 -166 255 -250 67 -88 204 -304 240
-381 29 -61 32 -75 31 -162 -1 -74 -7 -114 -28 -180 -71 -218 -245 -453 -469
-633 -125 -100 -133 -107 -126 -107 12 0 208 69 261 93 83 37 207 120 254 169
110 115 250 310 312 433 77 155 133 374 134 525 1 155 -36 244 -208 505 -158
240 -290 381 -470 501 -200 133 -419 199 -484 146z"/>
<path d="M4211 4529 c-233 -46 -543 -253 -779 -522 -155 -176 -169 -211 -179
-432 -6 -130 -6 -130 22 -91 15 22 38 65 51 95 65 146 212 328 391 483 241
209 381 279 621 312 56 8 109 20 117 26 38 32 -7 111 -73 130 -43 12 -109 11
-171 -1z"/>
<path d="M4070 3661 c-232 -44 -410 -243 -414 -461 -1 -65 3 -84 31 -142 37
-80 99 -145 168 -177 143 -67 369 49 324 167 -6 15 -16 30 -22 34 -21 13 -55
9 -61 -8 -9 -24 -50 -14 -54 15 -9 63 39 111 113 111 71 0 134 -52 156 -127
22 -81 -8 -171 -80 -236 -52 -47 -83 -62 -178 -88 -85 -23 -123 -42 -123 -62
0 -19 204 -52 264 -43 94 14 213 121 268 241 33 72 33 219 0 286 -36 72 -87
125 -154 158 -107 54 -242 38 -321 -37 -52 -49 -71 -99 -73 -187 -2 -109 -2
-105 -24 -105 -51 0 -98 108 -86 198 15 108 101 217 214 270 51 24 68 27 162
26 124 0 187 -20 275 -87 238 -181 245 -506 16 -738 -88 -89 -167 -133 -306
-169 -90 -24 -90 -24 -50 -34 22 -5 96 -10 165 -10 169 -1 210 13 307 107 289
280 316 642 68 906 -115 121 -268 189 -445 196 -52 2 -115 0 -140 -4z"/>
<path d="M6239 2933 c-31 -79 -42 -114 -55 -182 -8 -41 -13 -76 -10 -78 6 -6
116 217 116 237 0 53 -33 68 -51 23z"/>
<path d="M5769 2424 c-14 -29 -24 -54 -22 -54 8 0 63 84 63 97 0 27 -16 11
-41 -43z"/>
</g>
</svg>
