<?xml version="1.0" standalone="no"?>
<!DOCTYPE svg PUBLIC "-//W3C//DTD SVG 20010904//EN"
 "http://www.w3.org/TR/2001/REC-SVG-20010904/DTD/svg10.dtd">
<svg version="1.0" xmlns="http://www.w3.org/2000/svg"
 width="1000.000000pt" height="1000.000000pt" viewBox="0 0 1000.000000 1000.000000"
 preserveAspectRatio="xMidYMid meet">
<metadata>
  <rdf:RDF
    xmlns:rdf = "http://www.w3.org/1999/02/22-rdf-syntax-ns#"
    xmlns:rdfs = "http://www.w3.org/2000/01/rdf-schema#"
    xmlns:dc = "http://purl.org/dc/elements/1.1/"
    xmlns:cc = "http://creativecommons.org/ns#">
    <cc:license rdf:resource="http://creativecommons.org/publicdomain/zero/1.0/deed.en"/>
    <cc:permits rdf:resource="http://creativecommons.org/ns#Reproduction"/>
    <rdf:Description about="https://nft.mir.one/fingerprints"
      dc:title="TON Fingerprints"
      dc:description="This is a unique digital fingerprint created based on the algorithm for generating basic rings using a noise texture. Like human fingerprints, you can now use it for the Web3 and Metaverse era as digital biometric information."
      dc:publisher="https://nft.mir.one"
      dc:date="2022-02-22"
      dc:format="image/svg+xml"
      dc:language="en" >
      <dc:creator>
      <rdf:Bag>
        <rdf:li>EQBondcvD2_aOFADXSWJHs4ZazQDuEl9_wNvGGPxI8hGuOFU</rdf:li>
        <rdf:li>ipfs://bafkreihj7iub3fhmhq6jn62noukt5wxn3gv6bvcg7wmt6ywvlurefezckq</rdf:li>
      </rdf:Bag>
      </dc:creator>
    </rdf:Description>
  </rdf:RDF>
</metadata>
<rect width="100%" height="100%" fill="#1b1f23"/>
<g transform="translate(0.000000,1000.000000) scale(0.100000,-0.100000)"
fill="#ffffff" stroke="none">
<path d="M4584 7733 c12 -19 40 -57 63 -84 25 -28 46 -66 53 -91 17 -70 60
-146 104 -184 23 -20 82 -56 131 -81 107 -54 265 -152 390 -241 257 -184 418
-346 625 -632 129 -178 172 -226 252 -281 69 -47 119 -120 218 -318 161 -322
243 -581 196 -620 -26 -22 -61 24 -126 166 -164 360 -262 522 -426 708 -53 61
-136 170 -185 243 -114 171 -180 251 -325 393 -132 128 -249 224 -441 360
-189 134 -263 167 -276 120 -8 -33 36 -83 174 -197 73 -60 187 -154 253 -209
218 -179 414 -382 466 -482 12 -23 25 -67 29 -96 8 -59 0 -48 170 -243 161
-186 246 -313 394 -589 47 -88 110 -200 141 -248 113 -180 130 -261 130 -627
1 -373 -19 -491 -119 -695 -43 -89 -63 -150 -105 -315 -65 -257 -117 -441
-170 -595 -42 -119 -89 -275 -84 -275 6 0 173 275 215 355 189 359 400 893
461 1165 34 154 32 443 -5 730 -18 136 -26 247 -26 330 2 202 -21 292 -182
690 -56 141 -113 302 -134 380 -46 174 -133 353 -243 500 -81 108 -308 368
-396 453 -83 81 -195 141 -439 238 -332 131 -457 162 -457 115 0 -29 71 -72
295 -181 257 -125 333 -169 450 -260 293 -228 671 -751 638 -882 -13 -53 -44
-24 -165 156 -152 223 -244 339 -387 481 -173 172 -299 262 -596 424 -87 48
-178 101 -201 117 -50 34 -154 150 -154 171 0 20 21 37 62 49 117 35 176 29
390 -40 84 -27 213 -65 286 -85 150 -41 219 -67 345 -134 88 -47 88 -47 127
-24 21 12 54 22 72 23 29 0 25 3 -32 23 -36 13 -126 53 -200 89 -134 65 -185
82 -395 131 -60 14 -162 40 -225 57 -106 29 -132 32 -345 39 -161 5 -242 11
-271 22 -41 15 -41 15 -20 -19z"/>
<path d="M4084 7507 c12 -12 27 -30 32 -39 5 -8 36 -33 69 -53 134 -85 231
-169 445 -386 135 -136 301 -291 415 -387 105 -87 253 -214 330 -281 166 -145
246 -201 286 -201 38 0 45 19 24 62 -28 54 -304 319 -545 523 -299 252 -332
286 -385 399 -33 71 -65 117 -144 209 -56 64 -113 125 -128 134 -42 28 -140
43 -285 43 -137 0 -137 0 -114 -23z"/>
<path d="M5960 7288 c0 -47 28 -87 159 -228 143 -153 184 -203 251 -305 75
-115 140 -257 203 -440 30 -88 95 -268 145 -400 150 -398 161 -447 226 -955
44 -340 53 -396 81 -520 12 -55 12 -55 20 15 10 88 -9 576 -30 755 -37 318
-108 582 -281 1048 -161 435 -320 686 -573 909 -47 42 -105 93 -129 114 -54
48 -72 50 -72 7z"/>
<path d="M3890 7235 c-30 -8 -98 -31 -150 -52 -95 -38 -95 -38 -50 -59 25 -12
85 -32 134 -43 192 -46 387 -141 596 -291 145 -104 467 -355 705 -550 105 -85
255 -207 335 -271 218 -175 359 -328 507 -549 193 -289 294 -527 297 -704 1
-76 -2 -90 -17 -100 -29 -17 -70 40 -102 143 -15 47 -36 115 -47 151 -67 214
-294 554 -527 788 -157 158 -657 567 -980 802 -307 223 -511 328 -754 391
-128 33 -171 26 -329 -54 -73 -36 -140 -68 -148 -71 -11 -3 -11 -5 3 -5 10 -1
31 -8 46 -16 15 -7 106 -24 202 -35 301 -37 396 -63 591 -162 311 -157 891
-600 1229 -937 182 -182 259 -275 381 -456 139 -206 202 -363 153 -381 -23 -9
-36 6 -152 175 -165 238 -290 390 -477 577 -410 409 -1020 846 -1346 965 -59
22 -82 24 -245 24 -107 1 -200 6 -228 13 -71 18 -88 12 -284 -99 -24 -13 -43
-26 -43 -29 0 -12 70 -41 145 -61 108 -28 201 -72 347 -166 67 -44 204 -128
303 -188 563 -336 928 -626 1251 -995 198 -225 461 -546 517 -631 100 -150
177 -336 229 -549 29 -120 36 -348 14 -495 -58 -394 -186 -697 -368 -871 -77
-73 -193 -204 -169 -189 53 32 227 156 281 200 118 97 254 277 309 409 89 215
183 680 165 823 -8 64 -156 510 -199 598 -55 113 -111 191 -233 319 -63 67
-183 202 -266 301 -302 359 -444 501 -716 720 -283 226 -488 365 -829 560
-161 93 -245 160 -239 192 15 82 407 -106 805 -388 462 -328 768 -616 1088
-1024 111 -142 201 -232 265 -265 55 -28 91 -62 168 -157 103 -126 143 -224
188 -462 30 -159 50 -204 91 -199 63 7 85 119 82 403 -1 105 1 260 5 345 7
147 6 160 -18 255 -47 182 -250 560 -429 798 -131 174 -246 285 -402 389 -135
89 -590 461 -1055 863 -145 124 -297 233 -397 284 -71 35 -137 40 -233 16z"/>
<path d="M3212 6150 c-23 -10 -57 -30 -75 -44 -18 -14 -43 -29 -56 -34 -24 -8
-23 -9 10 -28 19 -11 84 -37 144 -58 210 -72 594 -274 950 -501 483 -307 663
-469 981 -885 61 -80 142 -179 179 -220 133 -147 201 -257 259 -420 68 -187
104 -431 92 -615 -21 -320 -116 -647 -220 -763 -21 -23 -36 -49 -34 -59 5 -28
53 -28 102 1 142 83 280 444 316 828 32 330 -64 692 -258 975 -58 84 -345 440
-475 588 -331 378 -734 679 -1435 1074 -169 95 -240 130 -331 162 -68 24 -95
24 -149 -1z"/>
<path d="M3148 5830 c-16 -5 -58 -25 -94 -45 -67 -38 -67 -38 -43 -57 13 -10
38 -24 54 -32 17 -7 59 -36 95 -63 78 -60 92 -67 236 -126 208 -85 374 -175
618 -334 87 -56 177 -108 200 -114 155 -41 204 -69 322 -181 129 -123 301
-353 377 -505 49 -96 71 -180 113 -423 19 -113 48 -252 64 -310 49 -170 56
-293 36 -655 -12 -217 -15 -364 -10 -505 7 -194 8 -200 35 -247 28 -47 29 -47
29 -18 0 20 19 57 60 115 33 47 63 96 67 108 3 14 -6 62 -22 114 -27 88 -28
94 -22 262 4 94 11 234 17 311 19 240 1 406 -77 735 -46 193 -53 262 -43 405
3 51 -31 121 -139 282 -98 145 -218 289 -342 408 -119 115 -194 170 -388 288
-86 52 -219 133 -296 179 -190 116 -406 231 -610 326 -195 91 -200 93 -237 82z"/>
<path d="M3014 5533 c-61 -35 -69 -42 -61 -49 4 -4 30 -8 58 -8 37 0 55 5 71
21 44 44 -7 71 -68 36z"/>
<path d="M3113 5351 c-18 -5 -47 -20 -65 -34 -39 -30 -128 -114 -128 -120 0
-9 81 -26 179 -37 125 -14 240 -46 357 -100 186 -86 313 -181 562 -423 195
-190 252 -237 340 -281 52 -26 52 -26 52 -79 0 -37 11 -76 36 -137 49 -115 94
-254 94 -288 0 -15 -4 -34 -10 -42 -16 -26 -50 19 -115 156 -109 228 -134 259
-343 418 -75 57 -189 150 -252 206 -269 238 -468 357 -676 405 -77 18 -94 12
-179 -65 -55 -50 -55 -50 -24 -65 16 -9 65 -25 107 -35 158 -40 321 -144 521
-335 100 -95 169 -184 175 -228 3 -18 10 -70 15 -118 6 -47 38 -178 71 -291
89 -309 95 -345 94 -543 -1 -193 -15 -265 -80 -402 -20 -43 -47 -104 -59 -135
-23 -57 -23 -57 -1 -48 11 5 47 14 78 20 109 21 144 64 192 233 52 181 57 360
15 554 -11 52 -47 176 -78 276 -32 100 -62 198 -65 217 -4 19 -19 70 -33 113
-14 43 -22 84 -19 92 10 28 62 17 117 -25 29 -22 69 -43 89 -46 79 -14 136
-77 239 -264 28 -52 77 -129 107 -170 109 -147 127 -211 126 -445 -1 -300 -63
-593 -172 -815 -15 -30 -30 -68 -33 -85 -3 -16 -8 -37 -12 -46 -5 -14 2 -13
42 7 26 13 55 24 64 24 27 0 137 77 152 107 58 112 111 422 137 803 16 226 25
259 97 352 60 78 72 115 73 214 0 149 -41 319 -112 458 -46 92 -174 286 -263
401 -113 145 -238 249 -292 243 -61 -7 -36 -73 77 -208 131 -156 171 -233 156
-295 -9 -34 -30 -31 -63 7 -16 17 -62 70 -103 117 -110 126 -159 186 -223 277
-70 98 -127 154 -231 228 -266 189 -591 312 -733 277z m1423 -997 c73 -35 145
-146 186 -291 32 -109 32 -277 1 -345 -12 -27 -28 -48 -36 -48 -34 0 -42 31
-48 179 -5 131 -9 155 -37 230 -36 95 -66 150 -116 210 -29 35 -34 46 -26 62
13 23 32 24 76 3z"/>
<path d="M3029 4642 c-38 -25 -92 -72 -88 -76 15 -13 85 -37 146 -50 94 -21
142 -21 150 0 11 28 -25 83 -74 114 -53 34 -96 38 -134 12z"/>
<path d="M3172 4405 c-60 -15 -108 -48 -143 -99 -13 -20 -32 -39 -43 -42 -15
-5 -10 -10 25 -26 24 -11 75 -29 112 -39 172 -49 286 -147 378 -322 125 -241
161 -509 100 -749 -47 -187 -47 -167 2 -155 65 14 124 44 141 69 52 80 66 362
27 548 -29 140 -121 413 -179 530 -54 110 -150 216 -242 268 -60 35 -92 38
-178 17z"/>
<path d="M5230 4218 c0 -17 24 -106 54 -197 129 -393 153 -665 96 -1086 -26
-196 -27 -315 -2 -346 34 -41 46 -20 90 148 75 293 94 425 94 653 0 120 -6
197 -21 282 -53 301 -188 578 -281 578 -27 0 -30 -3 -30 -32z"/>
<path d="M4025 4099 c-11 -34 3 -85 77 -274 82 -212 113 -323 130 -461 27
-233 -40 -516 -176 -744 -8 -14 -23 -44 -34 -67 -19 -41 -19 -42 0 -32 10 6
44 14 74 19 31 5 80 20 109 34 63 29 84 63 134 219 51 160 65 261 66 457 0
229 -13 273 -156 560 -131 262 -203 355 -224 289z"/>
<path d="M6936 3955 c-9 -26 -7 -32 5 -12 6 10 9 21 6 23 -2 3 -7 -2 -11 -11z"/>
<path d="M3147 3878 c-45 -53 -45 -53 7 -108 55 -58 114 -148 140 -215 27 -68
56 -196 57 -249 0 -28 3 -46 5 -39 3 7 22 17 42 24 49 15 90 55 98 94 3 17 0
60 -6 96 -27 154 -90 292 -177 388 -46 51 -60 61 -88 61 -28 0 -41 -9 -78 -52z"/>
<path d="M6886 3804 c-4 -14 -5 -28 -3 -31 3 -2 8 8 11 23 4 14 5 28 3 31 -3
2 -8 -8 -11 -23z"/>
<path d="M4916 3588 c-30 -47 -41 -116 -57 -373 -21 -341 -68 -669 -119 -825
-12 -36 -25 -93 -29 -127 -7 -63 -7 -63 18 -40 15 13 49 38 76 55 28 17 71 53
98 80 58 59 58 60 86 447 38 525 37 719 -4 782 -20 29 -50 30 -69 1z"/>
</g>
</svg>
