<?xml version="1.0" standalone="no"?>
<!DOCTYPE svg PUBLIC "-//W3C//DTD SVG 20010904//EN"
 "http://www.w3.org/TR/2001/REC-SVG-20010904/DTD/svg10.dtd">
<svg version="1.0" xmlns="http://www.w3.org/2000/svg"
 width="1000.000000pt" height="1000.000000pt" viewBox="0 0 1000.000000 1000.000000"
 preserveAspectRatio="xMidYMid meet">
<metadata>
  <rdf:RDF
    xmlns:rdf = "http://www.w3.org/1999/02/22-rdf-syntax-ns#"
    xmlns:rdfs = "http://www.w3.org/2000/01/rdf-schema#"
    xmlns:dc = "http://purl.org/dc/elements/1.1/"
    xmlns:cc = "http://creativecommons.org/ns#">
    <cc:license rdf:resource="http://creativecommons.org/publicdomain/zero/1.0/deed.en"/>
    <cc:permits rdf:resource="http://creativecommons.org/ns#Reproduction"/>
    <rdf:Description about="https://nft.mir.one/fingerprints"
      dc:title="TON Fingerprints"
      dc:description="This is a unique digital fingerprint created based on the algorithm for generating basic rings using a noise texture. Like human fingerprints, you can now use it for the Web3 and Metaverse era as digital biometric information."
      dc:publisher="https://nft.mir.one"
      dc:date="2022-02-22"
      dc:format="image/svg+xml"
      dc:language="en" >
      <dc:creator>
      <rdf:Bag>
        <rdf:li>EQBondcvD2_aOFADXSWJHs4ZazQDuEl9_wNvGGPxI8hGuOFU</rdf:li>
        <rdf:li>ipfs://bafkreihj7iub3fhmhq6jn62noukt5wxn3gv6bvcg7wmt6ywvlurefezckq</rdf:li>
      </rdf:Bag>
      </dc:creator>
    </rdf:Description>
  </rdf:RDF>
</metadata>
<rect width="100%" height="100%" fill="#1b1f23"/>
<g transform="translate(0.000000,1000.000000) scale(0.100000,-0.100000)"
fill="#ffffff" stroke="none">
<path d="M4808 7689 c-98 -12 -497 -126 -622 -177 -134 -55 -230 -113 -316
-189 -41 -37 -108 -91 -150 -121 -100 -73 -102 -75 -44 -53 101 39 215 65 233
53 63 -45 69 -46 311 -53 220 -6 242 -8 350 -37 304 -81 444 -142 427 -185
-16 -41 -220 -28 -367 24 -197 71 -200 71 -427 76 -234 6 -345 -4 -425 -39
-116 -50 -301 -214 -493 -438 -54 -63 -89 -107 -77 -96 21 18 51 39 278 194
231 158 388 213 664 233 144 10 305 0 353 -22 50 -23 35 -47 -46 -73 -9 -3
-86 -10 -170 -16 -276 -19 -406 -49 -582 -137 -262 -131 -387 -249 -598 -566
-101 -151 -86 -150 77 9 214 209 458 375 687 469 122 50 205 66 384 75 163 8
176 10 310 53 105 34 175 49 280 62 250 31 316 31 462 0 283 -60 657 -176 892
-277 197 -84 322 -158 674 -401 37 -26 67 -45 67 -42 0 10 -105 152 -173 232
-96 115 -165 175 -271 237 -153 90 -175 99 -720 282 -402 136 -507 181 -636
275 -115 84 -186 118 -376 182 -240 82 -289 91 -463 85 -126 -5 -159 -10 -241
-36 -134 -42 -149 -45 -156 -28 -7 18 10 52 44 88 58 62 280 124 483 135 125
7 147 3 193 -37 46 -41 100 -64 263 -110 157 -46 372 -118 390 -132 6 -5 15
-23 18 -39 10 -43 63 -92 137 -127 88 -41 632 -233 803 -282 157 -46 237 -83
375 -174 108 -71 170 -108 170 -100 0 13 -236 267 -313 337 -56 51 -91 91
-101 118 -23 56 -84 119 -184 187 -227 155 -493 250 -817 292 -88 12 -223 32
-300 45 -77 14 -201 31 -275 38 -133 12 -135 13 -135 37 0 82 240 96 595 35
366 -64 550 -121 953 -294 26 -11 47 -19 47 -17 0 11 -209 137 -324 196 -284
147 -630 242 -926 254 -63 3 -150 0 -192 -5z m800 -474 c141 -38 349 -118 517
-199 169 -82 202 -104 192 -131 -13 -32 -97 -14 -297 64 -222 87 -471 173
-598 206 -110 29 -113 31 -105 51 19 50 128 53 291 9z"/>
<path d="M4915 6584 c-157 -19 -273 -44 -434 -96 -82 -26 -102 -37 -150 -83
-66 -62 -132 -105 -261 -170 -133 -67 -321 -181 -487 -297 -161 -112 -262
-168 -347 -194 -126 -39 -168 -129 -203 -429 -23 -206 -23 -486 1 -630 26
-163 98 -435 145 -555 118 -298 326 -514 634 -660 291 -137 565 -175 872 -121
304 54 512 154 685 331 175 179 290 443 293 675 2 82 -1 106 -16 128 -40 62
-67 24 -112 -155 -85 -348 -242 -560 -520 -701 -94 -47 -161 -69 -351 -112
-243 -56 -266 -59 -373 -46 -375 46 -773 344 -942 705 -20 45 -44 106 -53 136
-27 95 -106 499 -117 602 -19 171 16 382 84 513 80 154 454 450 833 661 450
249 603 298 939 299 231 0 568 -13 623 -25 83 -18 204 -62 322 -115 319 -145
389 -178 449 -212 105 -58 416 -271 486 -332 35 -31 80 -66 100 -79 37 -22 37
-22 -25 95 -46 89 -78 135 -128 186 -137 141 -479 344 -805 478 -245 100 -467
159 -742 194 -106 13 -318 18 -400 9z"/>
<path d="M4058 6489 c-171 -48 -394 -169 -602 -326 -152 -114 -229 -183 -249
-225 -29 -60 15 -88 86 -52 18 9 111 71 207 139 261 182 300 203 687 386 64
31 84 58 63 84 -17 21 -109 18 -192 -6z"/>
<path d="M5518 6249 c-65 -24 -41 -54 97 -119 180 -84 327 -208 445 -375 34
-49 95 -130 135 -180 193 -243 278 -401 338 -630 62 -234 80 -454 64 -763 -11
-211 -11 -213 10 -234 21 -20 23 -20 48 -4 34 22 60 84 82 194 24 120 23 431
0 597 -68 471 -124 595 -412 916 -60 67 -118 134 -127 148 -24 35 -24 81 0 81
70 0 381 -290 495 -461 93 -140 120 -217 132 -374 4 -44 15 -145 26 -225 59
-423 38 -693 -74 -951 -25 -57 -53 -135 -62 -174 -54 -233 -91 -345 -189 -564
-25 -57 -45 -106 -43 -107 5 -5 91 152 160 291 101 202 251 634 291 835 48
242 56 435 31 715 -18 198 -18 197 -1 220 12 16 18 17 40 7 14 -6 40 -31 57
-54 23 -32 29 -36 24 -18 -11 35 -53 117 -64 124 -5 4 -26 57 -47 119 -20 61
-50 139 -65 172 -50 108 -185 246 -386 396 -103 77 -209 132 -308 158 -55 15
-127 48 -230 105 -171 95 -248 130 -337 151 -72 17 -92 17 -130 4z"/>
<path d="M4745 6205 c-343 -64 -811 -317 -1118 -604 -209 -196 -308 -441 -267
-662 11 -59 119 -289 154 -327 11 -13 37 -32 56 -42 41 -21 120 -103 209 -218
85 -110 189 -205 265 -242 33 -16 122 -43 196 -61 74 -17 164 -38 200 -46 36
-9 113 -16 175 -17 128 -1 205 20 302 83 176 114 284 341 254 531 -30 188
-170 328 -361 362 -82 14 -172 -1 -289 -48 -115 -46 -162 -86 -211 -183 -21
-43 -45 -83 -54 -90 -45 -38 -81 37 -72 149 8 88 58 267 92 330 60 110 215
212 374 246 102 22 269 14 365 -16 182 -58 353 -179 467 -334 68 -91 112 -180
162 -324 20 -57 50 -123 67 -149 44 -63 59 -121 59 -225 0 -196 -78 -426 -216
-634 -174 -263 -520 -437 -946 -475 -262 -23 -582 32 -869 149 -253 103 -396
224 -637 539 -23 30 -42 52 -42 48 0 -15 124 -248 176 -330 101 -162 258 -326
359 -378 38 -19 424 -119 566 -146 471 -90 932 -8 1287 229 144 96 195 160
287 357 146 315 179 431 178 633 0 112 -5 151 -25 230 -88 329 -239 592 -430
746 -270 219 -542 302 -810 246 -176 -37 -320 -113 -439 -233 -151 -152 -241
-389 -209 -552 19 -98 53 -149 169 -254 185 -167 268 -212 411 -220 71 -4 95
-1 142 16 102 39 172 130 172 226 0 104 -59 170 -152 170 -46 0 -57 -4 -78
-28 -13 -15 -24 -39 -24 -52 0 -31 36 -58 61 -45 26 15 37 12 49 -11 16 -30
-5 -76 -44 -96 -74 -39 -179 -4 -216 72 -11 23 -20 50 -20 61 0 44 24 99 61
139 111 120 302 117 414 -7 110 -122 95 -320 -33 -451 -97 -99 -190 -132 -351
-125 -251 11 -509 157 -651 367 -97 145 -117 262 -71 426 28 101 98 249 155
329 129 181 346 328 583 394 86 23 116 27 243 27 177 0 257 -20 424 -104 300
-152 489 -334 629 -608 106 -208 155 -391 164 -613 9 -235 -23 -368 -148 -630
-53 -110 -69 -153 -67 -180 10 -124 203 85 299 325 127 318 95 774 -81 1141
-67 140 -157 269 -263 381 -104 108 -154 146 -357 268 -265 160 -354 194 -535
202 -321 15 -705 -152 -956 -414 -124 -130 -187 -235 -259 -430 -39 -107 -70
-153 -101 -153 -27 0 -39 31 -39 101 0 215 145 463 386 660 392 320 880 463
1224 359 76 -22 120 -50 225 -142 56 -48 112 -84 210 -133 145 -73 228 -134
321 -240 198 -224 336 -498 393 -780 44 -217 47 -538 7 -727 -28 -131 -134
-318 -245 -431 -66 -69 -99 -91 -176 -117 -37 -13 -98 -50 -170 -105 -142
-107 -262 -178 -401 -237 -426 -182 -858 -194 -1399 -40 -124 35 -137 37 -280
37 -150 0 -150 0 -95 -56 30 -30 74 -79 98 -107 106 -126 422 -292 681 -356
129 -33 210 -44 376 -52 419 -19 847 102 1212 344 184 122 233 143 262 108 9
-11 3 -24 -27 -63 -154 -194 -468 -369 -821 -458 -132 -33 -197 -44 -330 -55
-153 -14 -316 -3 -761 50 -41 5 -76 7 -78 6 -7 -7 309 -90 426 -111 289 -54
488 -53 731 1 453 101 887 382 917 592 5 37 28 79 110 202 171 256 249 433
228 518 -7 27 -15 38 -31 40 -32 5 -59 -27 -128 -143 -150 -256 -219 -325
-496 -494 -249 -151 -402 -227 -579 -285 -243 -79 -326 -91 -625 -91 -289 0
-375 10 -610 70 -139 36 -352 117 -417 160 -21 14 -44 37 -51 52 -10 22 -8 28
12 44 13 11 29 19 35 19 7 0 58 -22 113 -49 252 -123 609 -191 938 -178 373
15 676 112 1026 328 294 181 412 285 547 476 39 55 88 118 109 140 86 88 79
53 81 415 2 435 -23 636 -108 870 -85 233 -257 489 -499 741 -52 54 -113 126
-135 160 -41 62 -77 89 -253 190 -26 15 -63 37 -82 49 -58 37 -196 59 -396 63
-132 3 -201 1 -260 -10z m805 -261 c73 -38 126 -86 116 -103 -20 -32 -154 21
-216 84 -62 63 -5 74 100 19z"/>
<path d="M4644 5231 c-126 -31 -244 -103 -279 -172 -19 -35 -19 -44 0 -63 18
-17 35 -13 142 33 115 50 185 64 288 59 110 -6 185 -31 277 -94 175 -119 259
-311 228 -518 -27 -179 -94 -312 -219 -436 -138 -137 -293 -199 -463 -186 -72
6 -119 17 -356 80 -99 27 -142 24 -142 -12 0 -39 73 -85 218 -137 57 -20 136
-52 175 -71 62 -29 81 -34 148 -34 264 0 539 179 673 439 82 159 151 412 143
526 -9 139 -74 264 -206 395 -71 71 -102 94 -181 132 -154 76 -300 95 -446 59z"/>
<path d="M3449 4494 c-24 -30 -17 -148 15 -222 102 -240 357 -499 611 -621
122 -59 207 -83 300 -84 77 -1 115 13 115 43 0 25 -32 41 -148 74 -166 47
-192 65 -422 294 -173 173 -219 224 -275 312 -125 194 -140 215 -161 218 -11
2 -27 -5 -35 -14z"/>
</g>
</svg>
