<?xml version="1.0" standalone="no"?>
<!DOCTYPE svg PUBLIC "-//W3C//DTD SVG 20010904//EN"
 "http://www.w3.org/TR/2001/REC-SVG-20010904/DTD/svg10.dtd">
<svg version="1.0" xmlns="http://www.w3.org/2000/svg"
 width="1000.000000pt" height="1000.000000pt" viewBox="0 0 1000.000000 1000.000000"
 preserveAspectRatio="xMidYMid meet">
<metadata>
  <rdf:RDF
    xmlns:rdf = "http://www.w3.org/1999/02/22-rdf-syntax-ns#"
    xmlns:rdfs = "http://www.w3.org/2000/01/rdf-schema#"
    xmlns:dc = "http://purl.org/dc/elements/1.1/"
    xmlns:cc = "http://creativecommons.org/ns#">
    <cc:license rdf:resource="http://creativecommons.org/publicdomain/zero/1.0/deed.en"/>
    <cc:permits rdf:resource="http://creativecommons.org/ns#Reproduction"/>
    <rdf:Description about="https://nft.mir.one/fingerprints"
      dc:title="TON Fingerprints"
      dc:description="This is a unique digital fingerprint created based on the algorithm for generating basic rings using a noise texture. Like human fingerprints, you can now use it for the Web3 and Metaverse era as digital biometric information."
      dc:publisher="https://nft.mir.one"
      dc:date="2022-02-22"
      dc:format="image/svg+xml"
      dc:language="en" >
      <dc:creator>
      <rdf:Bag>
        <rdf:li>EQBondcvD2_aOFADXSWJHs4ZazQDuEl9_wNvGGPxI8hGuOFU</rdf:li>
        <rdf:li>ipfs://bafkreihj7iub3fhmhq6jn62noukt5wxn3gv6bvcg7wmt6ywvlurefezckq</rdf:li>
      </rdf:Bag>
      </dc:creator>
    </rdf:Description>
  </rdf:RDF>
</metadata>
<rect width="100%" height="100%" fill="#1b1f23"/>
<g transform="translate(0.000000,1000.000000) scale(0.100000,-0.100000)"
fill="#ffffff" stroke="none">
<path d="M4807 7743 c76 -78 181 -150 383 -263 330 -185 562 -360 820 -619
181 -181 250 -267 450 -561 73 -107 176 -251 229 -319 195 -250 241 -321 348
-531 39 -78 40 -73 8 50 -37 136 -82 265 -120 341 -40 79 -450 698 -544 819
-187 243 -524 539 -886 780 -149 99 -475 265 -625 318 -47 17 -93 33 -103 37
-10 4 8 -19 40 -52z"/>
<path d="M5170 7796 c0 -10 147 -115 332 -239 349 -233 596 -427 798 -627 155
-154 223 -243 417 -555 49 -78 105 -152 139 -185 57 -55 57 -55 27 -10 -16 25
-76 133 -132 240 -169 321 -284 478 -492 674 -228 215 -548 440 -822 578 -103
51 -267 128 -267 124z"/>
<path d="M4345 7625 c22 -20 63 -47 90 -61 108 -57 265 -150 363 -217 74 -50
119 -89 162 -142 67 -82 110 -120 283 -252 179 -138 293 -241 429 -390 194
-214 246 -289 220 -315 -24 -24 -122 59 -300 256 -174 192 -227 240 -420 383
-86 64 -202 153 -257 198 -156 128 -321 232 -509 321 -75 36 -83 37 -204 41
-70 2 -152 5 -183 6 -56 3 -56 3 -8 -37 71 -61 141 -101 323 -181 266 -119
373 -178 639 -355 362 -240 412 -283 486 -413 22 -39 64 -86 129 -144 90 -80
142 -118 280 -203 135 -83 328 -355 308 -435 -11 -45 -40 -30 -107 58 -111
143 -206 232 -418 395 -159 121 -233 171 -326 217 -66 33 -156 81 -200 105
-69 38 -87 44 -134 43 -51 -1 -64 3 -161 62 -248 148 -345 185 -494 185 -75 0
-138 7 -223 26 -151 32 -371 64 -448 64 -41 0 -86 -10 -145 -31 -47 -17 -104
-36 -127 -42 -42 -13 -42 -13 -5 -25 20 -8 145 -31 277 -53 376 -61 433 -80
620 -201 55 -35 150 -93 210 -128 61 -35 191 -116 290 -180 227 -147 265 -163
265 -110 0 50 -286 273 -536 417 -74 43 -148 90 -164 105 -36 32 -40 68 -9 68
54 0 293 -118 413 -204 79 -56 313 -275 371 -347 77 -95 542 -476 723 -593 39
-26 72 -51 72 -56 0 -19 -43 -32 -82 -26 -80 13 -239 113 -412 258 -281 237
-307 255 -415 283 -78 20 -117 39 -319 159 -273 161 -545 305 -643 340 -55 20
-150 43 -229 55 -74 12 -181 31 -236 42 -113 22 -131 20 -269 -29 -80 -28 -80
-28 -44 -45 19 -9 107 -38 195 -63 87 -26 183 -54 212 -62 45 -13 65 -14 122
-4 79 13 132 6 231 -31 75 -28 491 -235 672 -334 67 -36 172 -90 235 -119 147
-69 218 -121 319 -232 126 -137 308 -261 562 -383 182 -87 294 -166 464 -328
148 -141 198 -178 270 -201 21 -7 48 -26 62 -45 63 -82 127 -300 189 -640 19
-104 43 -214 54 -244 18 -54 18 -54 37 130 16 154 20 271 21 714 1 292 -3 559
-8 594 -25 177 -97 313 -416 790 -146 218 -303 447 -350 510 -243 325 -729
731 -995 831 -116 43 -192 79 -259 123 -133 84 -235 118 -414 137 -54 5 -115
12 -134 15 -35 4 -35 4 5 -30z m847 -389 c303 -172 699 -541 873 -813 239
-373 328 -517 445 -718 204 -352 289 -541 267 -598 -11 -28 -43 -19 -79 21
-57 63 -287 447 -369 618 -47 97 -116 217 -175 305 -53 79 -121 193 -150 254
-67 138 -124 214 -294 389 -143 147 -248 238 -476 409 -140 104 -189 151 -178
168 12 20 64 7 136 -35z m-72 -875 c290 -203 330 -232 480 -351 85 -68 218
-185 296 -261 113 -110 154 -144 207 -169 61 -29 75 -42 186 -178 166 -204
321 -410 337 -449 29 -68 7 -157 -32 -135 -9 5 -41 43 -72 84 -137 182 -337
385 -499 505 -63 46 -73 58 -73 84 0 84 -67 151 -550 541 -400 323 -462 382
-446 424 7 18 -4 24 166 -95z"/>
<path d="M3810 7263 c-69 -15 -73 -17 -45 -25 109 -31 200 -32 212 -1 14 37
-60 48 -167 26z"/>
<path d="M3980 7119 c-147 -24 -225 -42 -333 -78 -119 -39 -119 -39 -70 -54
26 -9 145 -23 263 -32 223 -17 437 -49 581 -85 107 -27 220 -75 390 -167 75
-40 174 -90 220 -110 46 -20 132 -65 191 -100 76 -46 115 -63 134 -61 39 4 40
21 4 62 -51 57 -153 127 -396 271 -278 165 -415 233 -588 290 -212 71 -281 82
-396 64z"/>
<path d="M3225 6309 c-33 -11 -66 -22 -74 -25 -22 -7 36 -40 164 -91 143 -58
269 -125 490 -263 220 -137 276 -177 384 -274 112 -100 200 -162 426 -301 343
-211 399 -247 490 -315 129 -97 242 -206 441 -426 167 -185 205 -222 354 -346
79 -66 142 -142 198 -241 50 -87 63 -141 37 -151 -33 -12 -88 28 -185 138 -55
61 -190 201 -301 311 -111 110 -280 284 -375 386 -95 103 -203 211 -240 240
-68 54 -218 155 -551 369 -98 63 -250 169 -338 235 -88 67 -189 141 -225 165
-119 81 -393 240 -520 303 -143 70 -174 74 -278 35 -63 -24 -63 -24 -33 -46
17 -12 94 -51 173 -88 258 -118 514 -269 818 -484 107 -75 313 -214 456 -307
424 -276 498 -338 559 -465 31 -67 48 -87 182 -210 274 -252 662 -664 755
-801 63 -93 96 -175 148 -376 62 -234 105 -347 154 -395 36 -37 36 -37 36 -4
0 17 11 68 24 112 28 93 56 233 56 281 0 19 -39 136 -87 262 -86 228 -86 228
-94 373 -8 159 -14 185 -92 355 -25 55 -53 128 -62 163 -31 122 -53 159 -230
386 -48 62 -52 79 -17 84 59 9 203 -118 305 -270 68 -101 162 -296 206 -425
17 -50 50 -173 72 -274 64 -288 154 -516 219 -553 32 -18 32 -18 28 205 -5
223 -5 225 -51 420 -101 435 -156 543 -416 807 -134 137 -182 172 -361 267
-80 43 -235 134 -345 204 -277 176 -279 177 -390 206 -77 19 -142 47 -280 117
-489 250 -446 231 -543 238 -77 4 -95 9 -157 44 -171 96 -338 199 -420 261
-142 106 -315 185 -403 185 -26 -1 -74 -10 -107 -21z m1149 -568 c204 -123
475 -271 626 -344 196 -94 291 -150 448 -264 204 -149 246 -192 299 -302 25
-53 83 -148 128 -211 93 -128 121 -180 111 -205 -7 -21 -38 -13 -84 22 -37 28
-142 152 -248 293 -118 157 -308 329 -499 453 -39 24 -153 91 -255 147 -345
192 -558 326 -605 382 -26 30 -34 78 -14 78 6 0 48 -22 93 -49z"/>
<path d="M3784 6285 c-9 -22 20 -60 74 -100 64 -46 312 -178 392 -208 36 -13
110 -41 165 -61 55 -20 224 -101 375 -180 313 -163 344 -176 368 -152 47 47
-54 116 -473 325 -362 181 -680 332 -773 367 -72 28 -120 31 -128 9z"/>
<path d="M3115 5823 c-11 -3 -39 -14 -62 -24 -23 -10 -50 -19 -59 -19 -23 0
37 -43 101 -71 132 -59 435 -217 565 -295 80 -47 334 -211 565 -364 465 -307
581 -380 670 -422 96 -45 147 -32 114 29 -23 43 -132 121 -699 498 -582 387
-738 483 -974 601 -140 69 -171 79 -221 67z"/>
<path d="M3070 5553 c-8 -3 -41 -17 -73 -31 -57 -25 -57 -25 -23 -49 19 -13
95 -50 168 -84 150 -67 333 -166 517 -276 132 -79 177 -109 586 -384 172 -115
320 -205 436 -266 200 -104 289 -156 374 -222 167 -128 406 -373 550 -566 39
-51 97 -142 129 -202 86 -157 122 -210 156 -228 95 -49 110 99 27 269 -74 153
-207 322 -441 564 -143 147 -292 280 -376 335 -30 20 -107 59 -170 86 -197 85
-319 157 -800 477 -387 257 -570 367 -813 490 -177 88 -210 100 -247 87z"/>
<path d="M2984 5247 c-71 -33 -71 -33 -35 -59 20 -14 65 -38 101 -53 280 -118
728 -391 1039 -635 180 -141 277 -238 324 -325 51 -95 98 -155 278 -363 85
-97 228 -264 318 -372 90 -107 232 -265 315 -350 153 -156 210 -233 240 -323
18 -54 41 -178 52 -282 4 -38 15 -86 25 -105 11 -19 19 -41 19 -48 0 -18 56
84 125 225 30 61 59 114 65 118 24 15 59 -8 117 -74 61 -70 61 -70 66 -18 2
29 10 91 17 139 7 48 10 97 7 110 -7 24 -61 100 -133 184 -24 28 -74 70 -113
93 -94 56 -134 105 -167 205 -34 107 -70 172 -157 288 -277 370 -622 665 -904
774 -106 41 -165 78 -433 268 -245 175 -364 254 -550 367 -179 108 -493 269
-524 269 -11 0 -53 -15 -92 -33z m1641 -1026 c121 -70 380 -307 564 -515 178
-201 341 -412 341 -442 0 -7 -9 -18 -20 -24 -49 -26 -137 45 -315 252 -150
173 -366 406 -510 548 -133 132 -172 181 -160 200 11 18 49 10 100 -19z"/>
<path d="M3019 4976 c-19 -7 -46 -20 -60 -29 -13 -9 -32 -17 -44 -17 -31 0 42
-46 188 -117 214 -105 446 -249 661 -411 223 -169 321 -272 519 -548 63 -88
170 -232 237 -320 317 -412 498 -732 564 -995 33 -132 34 -162 1 -183 -41 -27
-65 -75 -65 -131 0 -50 0 -50 19 -20 10 17 35 46 55 64 25 24 36 44 36 63 0
22 5 28 22 28 26 0 113 -87 133 -133 11 -25 14 -27 15 -11 0 11 23 65 50 119
60 118 62 141 19 262 -81 230 -224 440 -714 1048 -111 138 -248 313 -305 390
-163 221 -332 378 -624 580 -69 47 -186 122 -258 167 -137 82 -380 208 -401
208 -7 -1 -28 -7 -48 -14z"/>
<path d="M2993 4656 c-23 -14 -49 -26 -57 -28 -18 -4 41 -43 190 -127 107 -61
476 -318 620 -433 89 -71 134 -122 134 -153 0 -29 -18 -32 -77 -11 -76 27
-328 195 -530 352 -146 114 -158 118 -259 77 -41 -17 -41 -17 30 -73 89 -71
105 -89 121 -137 14 -45 40 -63 340 -238 114 -66 241 -148 283 -182 42 -34
116 -84 165 -110 146 -79 237 -168 361 -353 150 -224 311 -633 342 -874 4 -28
13 -65 21 -83 7 -18 13 -45 14 -60 0 -16 3 -21 6 -13 3 8 36 47 73 85 89 93
104 123 96 194 -32 271 -228 653 -540 1051 -58 74 -126 174 -151 222 -93 178
-248 356 -444 508 -143 112 -427 302 -542 364 -99 53 -134 57 -196 22z m979
-836 c54 -36 91 -96 68 -110 -19 -12 -43 -5 -109 33 -72 42 -83 62 -52 88 31
25 40 24 93 -11z"/>
<path d="M3071 4077 c-42 -22 -42 -22 -14 -29 40 -12 73 -2 73 22 0 29 -12 31
-59 7z"/>
<path d="M3247 3832 c-9 -4 -39 -27 -66 -52 -48 -44 -48 -44 8 -85 105 -76
315 -192 386 -214 178 -53 375 -232 478 -436 40 -80 55 -146 72 -308 15 -145
31 -260 42 -300 4 -16 7 -17 21 -4 10 8 51 29 92 46 123 52 123 53 89 208 -60
277 -185 519 -354 689 -78 78 -251 196 -470 321 -223 128 -266 147 -298 135z"/>
<path d="M3530 3365 c-22 -26 -1 -65 104 -194 34 -41 104 -133 156 -204 110
-150 137 -175 169 -158 88 48 -105 374 -313 528 -60 45 -95 53 -116 28z"/>
<path d="M4402 2340 c0 -19 2 -27 5 -17 2 9 2 25 0 35 -3 9 -5 1 -5 -18z"/>
</g>
</svg>
