<?xml version="1.0" standalone="no"?>
<!DOCTYPE svg PUBLIC "-//W3C//DTD SVG 20010904//EN"
 "http://www.w3.org/TR/2001/REC-SVG-20010904/DTD/svg10.dtd">
<svg version="1.0" xmlns="http://www.w3.org/2000/svg"
 width="1000.000000pt" height="1000.000000pt" viewBox="0 0 1000.000000 1000.000000"
 preserveAspectRatio="xMidYMid meet">
<metadata>
  <rdf:RDF
    xmlns:rdf = "http://www.w3.org/1999/02/22-rdf-syntax-ns#"
    xmlns:rdfs = "http://www.w3.org/2000/01/rdf-schema#"
    xmlns:dc = "http://purl.org/dc/elements/1.1/"
    xmlns:cc = "http://creativecommons.org/ns#">
    <cc:license rdf:resource="http://creativecommons.org/publicdomain/zero/1.0/deed.en"/>
    <cc:permits rdf:resource="http://creativecommons.org/ns#Reproduction"/>
    <rdf:Description about="https://nft.mir.one/fingerprints"
      dc:title="TON Fingerprints"
      dc:description="This is a unique digital fingerprint created based on the algorithm for generating basic rings using a noise texture. Like human fingerprints, you can now use it for the Web3 and Metaverse era as digital biometric information."
      dc:publisher="https://nft.mir.one"
      dc:date="2022-02-22"
      dc:format="image/svg+xml"
      dc:language="en" >
      <dc:creator>
      <rdf:Bag>
        <rdf:li>EQBondcvD2_aOFADXSWJHs4ZazQDuEl9_wNvGGPxI8hGuOFU</rdf:li>
        <rdf:li>ipfs://bafkreihj7iub3fhmhq6jn62noukt5wxn3gv6bvcg7wmt6ywvlurefezckq</rdf:li>
      </rdf:Bag>
      </dc:creator>
    </rdf:Description>
  </rdf:RDF>
</metadata>
<rect width="100%" height="100%" fill="#1b1f23"/>
<g transform="translate(0.000000,1000.000000) scale(0.100000,-0.100000)"
fill="#ffffff" stroke="none">
<path d="M4710 7769 c96 -9 281 -36 595 -89 94 -16 229 -31 300 -34 130 -6
130 -6 -5 29 -310 79 -509 106 -790 104 -179 -2 -187 -2 -100 -10z"/>
<path d="M4495 7575 c-74 -14 -105 -27 -240 -98 -27 -15 -93 -43 -145 -63
-105 -41 -219 -107 -361 -210 -52 -37 -108 -77 -126 -90 -32 -22 -32 -22 7
-28 22 -3 40 -11 40 -17 0 -6 20 7 45 29 27 24 74 50 118 66 39 15 91 40 114
57 132 94 212 96 494 16 280 -80 418 -138 564 -237 88 -60 128 -102 199 -213
75 -115 225 -269 531 -547 138 -125 329 -303 425 -395 181 -173 456 -411 627
-542 54 -41 132 -108 173 -147 41 -39 89 -82 107 -94 32 -22 32 -22 1 46 -113
251 -128 274 -192 302 -91 39 -225 160 -681 610 -187 185 -455 442 -596 572
-248 229 -309 290 -309 308 0 5 9 14 20 20 42 23 130 -21 270 -135 116 -93
410 -376 635 -610 354 -370 596 -614 659 -667 64 -54 83 -53 72 4 -13 70 -92
181 -247 348 -84 91 -214 237 -290 325 -167 195 -652 678 -769 765 -97 72
-187 116 -315 155 -49 15 -160 54 -245 87 -204 78 -341 119 -530 158 -170 35
-210 50 -210 80 0 28 36 35 160 34 191 -2 450 -56 785 -164 176 -58 291 -110
375 -173 30 -22 209 -195 396 -384 245 -247 362 -372 415 -445 41 -56 99 -131
129 -167 71 -86 407 -458 422 -467 17 -10 -103 212 -168 314 -31 47 -91 133
-134 191 -90 123 -105 151 -115 208 -10 61 -47 106 -202 244 -261 234 -331
307 -368 384 -26 55 -49 84 -105 134 -77 69 -110 113 -110 147 0 37 27 35 143
-12 62 -25 162 -58 222 -74 61 -15 118 -31 128 -35 9 -4 17 -5 17 -2 0 9 -230
143 -305 179 -63 30 -79 33 -160 33 -74 1 -107 6 -190 34 -134 44 -413 115
-582 147 -174 33 -468 43 -598 19z"/>
<path d="M4023 7155 c-63 -45 -2 -88 175 -121 243 -46 382 -92 487 -158 53
-34 87 -79 78 -103 -7 -20 -22 -16 -169 43 -160 64 -262 90 -389 99 -101 7
-122 13 -250 63 -75 30 -102 35 -164 35 -82 -1 -95 -10 -79 -55 14 -41 65 -78
198 -147 64 -33 159 -92 211 -131 111 -83 298 -178 549 -278 204 -82 290 -108
380 -117 85 -8 125 -27 267 -124 229 -156 493 -373 699 -576 152 -150 184
-193 184 -250 0 -50 32 -160 65 -226 30 -58 78 -119 240 -304 160 -184 256
-298 365 -435 45 -58 95 -113 111 -123 28 -18 28 -18 -6 112 -60 225 -64 230
-392 597 -162 180 -323 380 -323 401 0 24 65 14 106 -16 60 -44 438 -433 545
-561 93 -111 185 -199 160 -153 -6 11 -28 75 -50 142 -63 193 -95 244 -225
364 -158 147 -315 281 -427 364 -103 76 -141 109 -370 323 -79 74 -252 228
-384 341 -263 226 -319 282 -447 439 -117 144 -306 326 -398 382 -156 97 -420
177 -610 185 -96 4 -119 2 -137 -12z m425 -411 c158 -53 209 -66 280 -71 102
-7 147 -26 243 -103 61 -49 119 -120 119 -145 0 -7 -7 -18 -15 -25 -11 -9 -37
0 -136 50 -70 36 -191 84 -285 115 -319 106 -486 191 -458 236 11 19 64 7 252
-57z"/>
<path d="M6123 7083 c-27 -9 -12 -50 35 -95 124 -120 612 -479 570 -419 -48
68 -248 278 -341 358 -143 121 -224 169 -264 156z"/>
<path d="M3498 6745 c-32 -13 -71 -33 -87 -44 -16 -12 -53 -32 -83 -46 -29
-14 -45 -25 -35 -25 9 0 34 -9 54 -20 21 -11 48 -20 60 -20 12 0 91 -18 175
-39 84 -22 187 -44 229 -50 136 -19 205 -49 399 -174 155 -101 341 -196 620
-316 324 -140 482 -228 695 -386 158 -117 241 -190 403 -352 133 -133 175
-165 201 -148 29 17 -4 115 -70 213 -72 105 -296 316 -507 476 -234 177 -397
268 -627 351 -267 96 -523 215 -776 361 -146 84 -197 109 -393 190 -146 61
-175 64 -258 29z"/>
<path d="M3332 6395 c-18 -8 -71 -40 -118 -71 -85 -57 -85 -57 -50 -69 19 -7
71 -15 116 -19 163 -13 256 -41 460 -136 144 -67 167 -75 348 -125 100 -27
197 -72 477 -220 127 -67 221 -109 320 -141 251 -84 454 -199 691 -391 67 -54
209 -168 315 -254 247 -199 386 -343 594 -614 70 -91 312 -345 397 -416 46
-39 46 -39 31 13 -51 176 -76 246 -101 277 -51 68 -337 407 -443 526 -145 164
-225 237 -289 270 -84 42 -131 78 -279 208 -310 273 -511 406 -826 547 -396
177 -639 298 -734 363 -25 17 -78 61 -118 98 -88 82 -218 152 -273 147 -32 -3
-35 -6 -35 -33 0 -27 11 -37 113 -105 111 -73 139 -100 127 -120 -23 -37 -189
35 -310 135 -84 69 -109 83 -203 115 -98 33 -159 37 -210 15z"/>
<path d="M6670 6387 c0 -21 118 -152 188 -207 62 -50 62 -50 -9 47 -39 54 -88
115 -107 136 -36 37 -72 49 -72 24z"/>
<path d="M3201 6063 c-28 -15 -75 -46 -102 -70 -28 -24 -56 -43 -62 -43 -7 0
-3 -6 8 -13 13 -8 99 -14 260 -18 199 -6 252 -10 309 -27 79 -23 120 -50 124
-81 4 -25 -4 -26 -147 -10 -85 10 -114 9 -189 -5 -50 -9 -124 -16 -166 -16
-85 0 -102 -7 -204 -76 -63 -43 -63 -43 -30 -60 18 -10 80 -28 138 -40 58 -11
151 -40 207 -62 113 -46 202 -70 373 -102 63 -12 180 -38 260 -57 135 -32 153
-34 253 -29 97 6 111 4 150 -15 89 -45 170 -114 333 -283 179 -184 232 -231
329 -288 33 -19 83 -49 110 -67 37 -23 69 -33 123 -40 47 -6 88 -18 118 -36
70 -41 207 -161 334 -291 216 -222 283 -316 433 -614 54 -107 112 -218 128
-246 24 -43 27 -53 14 -58 -54 -20 -117 55 -257 304 -127 225 -179 290 -456
564 -258 256 -321 309 -357 304 -17 -3 -20 -10 -19 -50 0 -55 26 -97 155 -257
133 -166 171 -203 249 -246 110 -60 163 -128 380 -480 41 -66 109 -166 152
-221 97 -129 132 -185 174 -285 32 -75 62 -128 74 -129 3 0 14 54 24 121 24
154 18 204 -31 283 -36 58 -38 65 -38 146 0 78 -4 96 -54 225 -153 401 -219
505 -495 781 -126 125 -212 201 -327 286 -90 68 -179 142 -210 178 -30 34 -73
84 -96 110 -107 119 -193 96 -108 -29 45 -65 57 -95 43 -109 -29 -29 -108 37
-175 148 -25 41 -69 105 -99 141 -55 68 -93 139 -94 174 0 37 -27 61 -209 188
-235 164 -310 207 -466 268 -71 27 -195 81 -275 119 -155 74 -271 112 -394
129 -113 16 -136 14 -195 -16z m752 -378 c201 -58 337 -147 337 -219 0 -31
-29 -28 -134 13 -154 60 -272 89 -441 106 -221 23 -305 47 -305 85 0 28 31 33
159 26 64 -3 134 -2 156 3 72 16 141 11 228 -14z"/>
<path d="M3049 5432 c-26 -15 -65 -43 -87 -62 -40 -35 -40 -35 1 -52 23 -9 80
-21 127 -28 336 -45 851 -179 1093 -285 282 -124 549 -383 890 -863 125 -177
156 -228 322 -531 264 -484 360 -732 405 -1051 10 -74 38 -176 39 -143 1 12
13 48 27 80 39 86 64 181 64 240 0 114 -118 406 -292 725 -133 244 -180 339
-211 425 -41 112 -77 177 -184 328 -55 77 -126 183 -159 235 -66 107 -160 209
-394 428 -167 155 -287 243 -390 284 -36 14 -196 58 -355 98 -160 39 -407 100
-550 136 -143 35 -269 64 -280 64 -11 0 -41 -13 -66 -28z"/>
<path d="M4833 5450 c-76 -30 66 -160 249 -229 95 -36 134 -61 264 -173 60
-51 177 -148 259 -214 339 -274 567 -531 664 -746 16 -35 60 -169 99 -298 87
-291 105 -340 145 -392 45 -58 80 -82 107 -73 16 5 19 10 11 18 -6 6 -11 34
-11 62 0 39 5 56 20 70 28 26 40 77 40 177 0 105 -18 283 -32 321 -12 31 -62
77 -84 77 -35 0 -34 -45 12 -282 46 -240 50 -293 24 -293 -25 0 -59 84 -102
251 -35 139 -40 173 -40 268 1 102 -1 113 -30 170 -74 147 -272 394 -444 553
-134 125 -560 472 -660 539 -111 74 -254 148 -346 178 -81 27 -109 30 -145 16z"/>
<path d="M3053 5132 c-27 -15 -143 -117 -143 -126 0 -16 342 -56 477 -56 32 0
89 -7 126 -15 64 -13 462 -178 612 -253 199 -99 348 -226 328 -279 -10 -26
-54 -12 -215 70 -90 46 -236 112 -325 147 -126 49 -188 80 -273 136 -133 88
-223 113 -252 71 -12 -19 4 -37 63 -73 32 -19 66 -45 74 -57 17 -24 20 -67 5
-67 -15 0 -132 75 -176 114 -52 46 -91 61 -185 75 -95 15 -112 8 -188 -68 -59
-60 -59 -60 -28 -70 18 -6 84 -15 147 -21 63 -5 151 -19 196 -29 44 -11 105
-23 135 -26 78 -9 82 -11 70 -34 -18 -32 -67 -41 -234 -41 -183 0 -193 -3
-265 -89 -42 -50 -42 -50 -10 -59 61 -17 387 14 527 49 111 28 135 31 220 26
117 -7 248 -43 456 -125 83 -33 174 -67 203 -76 29 -10 79 -36 112 -57 67 -46
293 -276 416 -425 223 -271 416 -597 468 -789 23 -85 104 -461 111 -515 3 -25
13 -78 22 -117 16 -73 16 -73 65 32 61 130 70 175 53 263 -60 313 -172 591
-365 912 -170 281 -262 410 -474 665 -64 77 -152 190 -195 251 -177 247 -380
378 -816 527 -166 57 -312 91 -500 117 -82 11 -163 22 -180 25 -17 2 -44 -3
-62 -13z"/>
<path d="M3500 4295 c-58 -7 -156 -19 -219 -26 -133 -15 -154 -26 -217 -115
-43 -62 -43 -62 -6 -66 20 -3 93 3 162 13 394 58 627 50 901 -32 189 -56 265
-112 192 -140 -22 -9 -52 -6 -138 11 -277 56 -303 59 -520 59 -130 1 -250 -5
-315 -14 -103 -14 -106 -15 -140 -54 -19 -22 -47 -62 -62 -89 -26 -48 -26 -48
15 -46 23 1 103 12 177 23 90 14 187 21 285 21 83 1 184 1 225 2 106 1 421
-67 535 -115 191 -81 438 -298 630 -553 64 -84 225 -337 225 -352 0 -17 -28
-22 -58 -11 -38 14 -61 37 -170 169 -120 144 -246 275 -337 349 -77 64 -377
267 -440 298 -62 31 -159 61 -290 87 -66 14 -140 34 -165 45 -50 22 -60 20
-60 -14 0 -31 -8 -33 -191 -38 -167 -5 -193 -14 -239 -80 -16 -23 -38 -54 -49
-68 -21 -27 -21 -27 27 -31 26 -2 101 5 167 15 86 14 179 20 325 21 183 1 215
-1 294 -22 108 -27 158 -55 154 -86 -3 -21 -4 -21 -318 -22 -186 0 -333 -5
-360 -11 -53 -13 -95 -56 -127 -132 -21 -51 -21 -51 22 -51 23 0 98 10 166 22
110 20 159 22 444 23 320 0 320 0 415 -46 171 -83 337 -227 553 -479 114 -132
160 -206 211 -340 20 -52 51 -123 68 -158 33 -62 33 -62 40 -20 3 24 13 59 21
78 8 19 20 60 26 91 11 51 9 63 -15 140 -14 46 -42 122 -62 168 -28 67 -33 87
-24 100 45 61 36 136 -32 275 -129 264 -383 573 -649 790 -68 56 -122 110
-147 147 -62 90 -140 138 -320 197 -226 75 -405 94 -610 67z"/>
<path d="M5539 3943 c-4 -64 7 -89 184 -397 216 -378 301 -565 349 -766 11
-46 26 -93 34 -104 8 -11 14 -30 15 -41 1 -56 61 188 66 270 5 90 5 90 -42
185 -26 52 -119 214 -207 360 -258 424 -320 510 -372 510 -18 0 -26 -6 -27
-17z"/>
<path d="M6736 3894 c-6 -15 28 -162 59 -254 15 -44 15 -43 12 80 -2 96 -7
133 -20 158 -19 34 -41 42 -51 16z"/>
<path d="M3772 3150 c-40 -5 -84 -11 -97 -14 -23 -6 -85 -83 -85 -106 0 -6 -7
-24 -15 -40 -16 -30 -16 -30 23 -30 21 0 83 7 138 15 252 38 498 2 680 -100
190 -107 371 -307 470 -519 19 -42 48 -97 64 -122 28 -45 28 -45 61 22 48 100
49 146 5 230 -50 95 -147 222 -254 331 -155 158 -314 262 -463 303 -131 36
-351 48 -527 30z"/>
<path d="M3887 2820 c-19 -16 -45 -52 -58 -78 -24 -49 -24 -49 111 -60 159
-14 229 -31 329 -80 107 -54 198 -142 269 -263 59 -98 59 -98 92 -47 40 61 50
129 27 174 -39 74 -171 202 -272 263 -117 71 -287 121 -411 121 -45 0 -59 -5
-87 -30z"/>
</g>
</svg>
