<?xml version="1.0" standalone="no"?>
<!DOCTYPE svg PUBLIC "-//W3C//DTD SVG 20010904//EN"
 "http://www.w3.org/TR/2001/REC-SVG-20010904/DTD/svg10.dtd">
<svg version="1.0" xmlns="http://www.w3.org/2000/svg"
 width="1000.000000pt" height="1000.000000pt" viewBox="0 0 1000.000000 1000.000000"
 preserveAspectRatio="xMidYMid meet">
<metadata>
  <rdf:RDF
    xmlns:rdf = "http://www.w3.org/1999/02/22-rdf-syntax-ns#"
    xmlns:rdfs = "http://www.w3.org/2000/01/rdf-schema#"
    xmlns:dc = "http://purl.org/dc/elements/1.1/"
    xmlns:cc = "http://creativecommons.org/ns#">
    <cc:license rdf:resource="http://creativecommons.org/publicdomain/zero/1.0/deed.en"/>
    <cc:permits rdf:resource="http://creativecommons.org/ns#Reproduction"/>
    <rdf:Description about="https://nft.mir.one/fingerprints"
      dc:title="TON Fingerprints"
      dc:description="This is a unique digital fingerprint created based on the algorithm for generating basic rings using a noise texture. Like human fingerprints, you can now use it for the Web3 and Metaverse era as digital biometric information."
      dc:publisher="https://nft.mir.one"
      dc:date="2022-02-22"
      dc:format="image/svg+xml"
      dc:language="en" >
      <dc:creator>
      <rdf:Bag>
        <rdf:li>EQBondcvD2_aOFADXSWJHs4ZazQDuEl9_wNvGGPxI8hGuOFU</rdf:li>
        <rdf:li>ipfs://bafkreihj7iub3fhmhq6jn62noukt5wxn3gv6bvcg7wmt6ywvlurefezckq</rdf:li>
      </rdf:Bag>
      </dc:creator>
    </rdf:Description>
  </rdf:RDF>
</metadata>
<rect width="100%" height="100%" fill="#1b1f23"/>
<g transform="translate(0.000000,1000.000000) scale(0.100000,-0.100000)"
fill="#ffffff" stroke="none">
<path d="M5075 7794 c-33 -7 -159 -16 -280 -21 -208 -7 -215 -8 -120 -15 209
-14 325 -11 395 11 36 11 75 21 87 21 41 0 130 -40 174 -79 24 -20 67 -53 94
-71 71 -49 768 -457 840 -493 33 -16 84 -45 115 -65 132 -84 -78 91 -270 225
-149 104 -334 215 -486 291 -67 34 -156 81 -197 105 -141 84 -250 112 -352 91z"/>
<path d="M4700 7604 c-19 -2 -77 -9 -129 -15 -107 -12 -301 -58 -382 -89 -75
-29 -360 -162 -356 -166 2 -2 92 19 200 46 316 80 351 84 682 85 238 0 305 -3
376 -18 183 -37 300 -88 428 -185 47 -37 145 -102 216 -146 369 -224 506 -344
697 -606 276 -380 321 -533 322 -1085 1 -325 -8 -404 -70 -595 -45 -140 -95
-237 -244 -470 -118 -186 -176 -290 -228 -408 -46 -105 -213 -253 -378 -335
-111 -56 -190 -78 -294 -84 -119 -7 -163 5 -231 61 -68 56 -107 66 -249 66
-101 0 -125 4 -197 29 -264 92 -545 347 -682 619 -74 146 -121 358 -121 538 0
112 9 145 65 229 48 74 70 149 55 190 -8 20 -16 25 -43 25 -26 0 -42 -10 -79
-47 -54 -56 -120 -156 -144 -219 -16 -43 -16 -47 1 -82 14 -29 20 -74 26 -202
10 -233 42 -367 124 -530 140 -277 361 -487 755 -715 275 -160 243 -150 495
-147 310 3 423 26 617 123 96 48 160 88 308 194 63 45 153 104 200 131 47 27
118 80 159 119 181 171 307 411 223 423 -37 6 -66 -20 -185 -171 -163 -204
-245 -273 -280 -238 -9 9 -5 24 16 64 36 68 211 302 312 417 44 50 97 118 117
151 42 69 93 203 113 299 67 317 33 839 -76 1165 -82 247 -361 714 -523 877
-118 119 -185 165 -631 438 -379 233 -456 260 -755 265 -107 2 -211 1 -230 -1z
m481 -4084 c72 -37 63 -77 -15 -66 -50 8 -109 43 -114 69 -5 25 77 23 129 -3z"/>
<path d="M4420 7335 c-266 -32 -420 -83 -632 -208 -71 -42 -306 -202 -326
-221 -8 -8 102 29 193 66 291 117 533 185 754 213 206 26 493 17 770 -24 118
-18 224 -30 236 -27 36 9 39 36 8 68 -52 54 -255 114 -465 137 -127 14 -406
12 -538 -4z"/>
<path d="M4405 7064 c-163 -22 -289 -52 -482 -116 -271 -89 -453 -189 -606
-332 -69 -64 -69 -64 -20 -49 26 8 86 30 133 48 180 70 459 174 547 204 358
119 712 146 1037 80 124 -25 151 -36 219 -92 31 -25 91 -64 135 -86 121 -63
151 -102 87 -109 -44 -5 -104 13 -253 79 -166 74 -280 104 -451 120 -146 13
-304 3 -476 -32 -186 -37 -555 -173 -788 -291 -132 -66 -237 -182 -385 -425
-77 -127 -78 -131 -44 -105 21 15 78 63 127 108 165 147 294 234 521 347 378
189 627 261 904 260 176 0 224 -10 505 -103 116 -38 260 -80 320 -94 138 -31
186 -51 309 -133 215 -144 556 -529 556 -630 0 -77 -61 -44 -190 103 -116 131
-301 310 -380 366 -80 57 -195 119 -275 149 -33 12 -154 50 -270 84 -115 34
-248 78 -295 98 -116 49 -224 63 -375 48 -212 -21 -381 -76 -635 -209 -405
-211 -639 -390 -737 -563 -96 -169 -166 -394 -202 -647 -34 -232 -35 -286 -12
-387 11 -49 27 -160 36 -245 17 -168 47 -363 70 -450 8 -30 12 -41 10 -25 -22
150 -36 288 -45 439 -9 156 -14 190 -40 266 -36 106 -38 159 -6 253 13 40 39
131 59 202 112 415 321 654 802 920 77 42 176 103 220 135 94 67 145 94 237
126 125 42 225 58 373 58 143 1 205 -11 205 -40 0 -24 -38 -34 -207 -54 -93
-10 -213 -31 -268 -45 -180 -45 -282 -113 -230 -152 24 -17 68 -13 223 22 59
13 181 36 272 50 91 15 192 33 225 42 202 53 541 -48 790 -234 50 -37 180
-156 290 -264 110 -109 215 -210 233 -224 48 -40 88 -103 114 -181 20 -61 23
-88 23 -234 0 -149 -3 -175 -28 -264 -39 -139 -88 -251 -216 -485 -236 -429
-301 -497 -574 -593 -135 -47 -159 -62 -155 -91 7 -50 140 -57 277 -15 182 56
340 174 447 333 50 73 243 405 312 535 65 121 115 252 148 383 33 135 41 333
24 612 -11 190 -11 216 4 267 49 168 -9 337 -207 604 -182 246 -455 477 -705
597 -87 42 -87 42 -267 39 -133 -3 -229 2 -367 17 -215 24 -451 26 -603 5z
m1096 -173 c155 -59 474 -303 649 -496 159 -176 303 -418 304 -513 1 -25 -4
-47 -10 -49 -21 -7 -66 41 -136 146 -103 154 -151 214 -258 325 -98 101 -216
200 -330 276 -36 24 -101 78 -146 121 -81 78 -130 108 -241 149 -63 23 -74 35
-50 59 18 19 150 8 218 -18z"/>
<path d="M6620 6764 c0 -11 59 -114 65 -114 3 0 -9 26 -27 58 -37 66 -38 68
-38 56z"/>
<path d="M4760 6125 c-58 -9 -190 -31 -295 -50 -133 -25 -219 -35 -287 -35
-133 0 -177 -12 -325 -85 -261 -129 -463 -287 -566 -442 -62 -93 -92 -175
-116 -319 -11 -66 -28 -159 -37 -209 -13 -74 -15 -129 -11 -305 8 -288 47
-539 118 -760 57 -177 196 -544 230 -610 79 -151 233 -344 419 -523 117 -114
195 -172 362 -273 71 -43 122 -82 149 -115 39 -45 50 -51 148 -83 190 -61 260
-71 511 -70 206 0 235 3 346 27 137 31 370 100 309 92 -22 -3 -92 -10 -155
-16 -63 -6 -151 -17 -195 -25 -117 -21 -364 -29 -466 -15 -119 17 -258 55
-326 90 -32 16 -85 53 -118 81 -33 28 -125 94 -204 147 -155 102 -226 163
-274 233 -17 25 -90 107 -163 183 -185 191 -303 373 -292 449 2 14 11 24 23
26 15 2 45 -29 124 -128 112 -140 214 -243 298 -296 86 -56 274 -94 301 -61
20 24 -2 50 -89 101 -126 75 -196 132 -351 283 -81 78 -171 158 -201 177 -94
60 -141 130 -212 316 -150 388 -172 907 -48 1120 15 24 63 83 107 130 45 47
118 132 164 189 70 87 83 108 80 135 -2 25 -8 32 -28 34 -36 4 -111 -49 -178
-126 -116 -133 -155 -172 -173 -172 -30 0 -24 57 13 131 22 44 59 91 117 150
86 85 87 86 321 201 267 131 324 152 575 207 287 64 363 75 535 75 127 -1 169
-5 233 -22 142 -39 184 -69 377 -265 96 -99 201 -213 233 -255 174 -230 210
-452 107 -658 -51 -104 -125 -175 -241 -231 -169 -82 -335 -118 -436 -94 -42
10 -102 43 -186 103 -38 27 -29 34 220 171 117 64 191 143 251 269 55 115 83
149 110 131 30 -19 21 -138 -16 -217 -58 -125 -156 -206 -335 -280 -71 -29
-103 -47 -105 -60 -6 -27 15 -36 86 -36 86 0 141 14 249 66 175 83 277 212
290 363 7 90 -8 144 -58 207 -21 27 -64 87 -96 134 -67 101 -144 179 -207 209
-69 34 -268 64 -426 65 -111 0 -149 -4 -215 -23 -117 -33 -216 -84 -283 -146
-116 -108 -135 -216 -83 -476 48 -239 90 -351 180 -482 57 -82 166 -194 232
-239 220 -149 439 -167 783 -64 48 14 110 26 137 26 28 0 60 7 73 15 39 26 77
93 91 162 11 52 27 85 75 155 120 174 178 333 187 513 12 257 -63 402 -367
705 -217 218 -371 320 -565 376 -114 33 -283 40 -435 19z m372 -734 c85 -33
141 -80 168 -143 63 -147 -37 -356 -212 -438 -103 -49 -187 -40 -250 27 -48
51 -64 136 -32 181 24 35 42 26 68 -32 28 -62 57 -86 106 -86 52 1 74 18 125
94 52 78 62 110 46 158 -47 142 -285 160 -416 32 -107 -104 -122 -262 -40
-424 14 -28 62 -90 108 -138 45 -49 98 -111 117 -138 63 -89 164 -139 302
-151 87 -8 191 10 353 58 138 42 195 48 215 24 33 -39 -80 -98 -294 -154 -127
-33 -235 -43 -329 -31 -162 23 -259 73 -387 200 -105 104 -174 207 -216 320
-122 328 -25 576 257 655 78 22 236 14 311 -14z m-84 -317 c37 -26 28 -50 -24
-64 -39 -11 -47 -11 -55 1 -34 54 25 101 79 63z"/>
<path d="M4752 5860 c-204 -26 -478 -107 -658 -196 -155 -77 -216 -128 -273
-233 -26 -46 -83 -130 -126 -188 -147 -193 -184 -248 -214 -318 -44 -105 -61
-205 -61 -359 0 -302 94 -614 245 -811 71 -93 320 -337 473 -463 140 -115 167
-144 184 -198 16 -48 60 -78 263 -179 170 -84 272 -121 464 -171 173 -44 225
-74 207 -119 -10 -28 -228 -17 -361 18 -134 36 -177 53 -406 163 -192 93 -355
148 -400 137 -42 -11 -31 -54 23 -95 52 -40 445 -267 527 -306 111 -51 247
-83 381 -89 129 -6 211 8 308 53 31 15 122 40 202 56 172 35 291 78 398 142
83 51 342 267 532 445 102 96 290 299 290 314 0 7 -85 -48 -165 -107 -89 -65
-315 -219 -440 -299 -275 -177 -437 -237 -645 -238 -112 0 -98 -3 -350 68
-431 122 -538 179 -860 460 -460 401 -610 612 -690 968 -32 139 -32 355 -2
467 29 108 57 157 179 319 160 212 207 259 316 315 51 26 142 77 202 113 179
108 336 161 529 181 104 10 164 7 351 -21 99 -15 135 -8 135 26 0 98 -304 176
-558 145z"/>
<path d="M4174 4995 c-33 -80 -7 -321 52 -487 115 -319 383 -585 684 -680 63
-19 96 -23 210 -23 133 0 137 1 260 44 253 88 370 167 370 250 0 38 -11 36
-180 -39 -149 -66 -263 -92 -405 -93 -177 -1 -312 42 -461 148 -228 163 -365
399 -425 733 -11 64 -27 132 -34 150 -19 45 -51 44 -71 -3z"/>
<path d="M3796 4937 c-63 -63 -98 -189 -98 -352 -1 -366 171 -697 526 -1018
349 -316 578 -447 913 -528 245 -58 415 -60 608 -4 195 57 489 224 767 437
133 103 283 302 378 500 65 137 87 206 120 378 16 80 38 185 49 233 12 48 21
90 21 94 0 3 -24 -43 -54 -103 -59 -121 -76 -182 -76 -282 0 -172 -178 -417
-450 -621 -355 -265 -571 -385 -809 -448 -86 -23 -116 -26 -286 -27 -151 -1
-208 3 -275 18 -266 58 -628 283 -896 558 -212 217 -327 421 -379 673 -20 97
-21 289 -3 395 8 41 13 84 13 95 0 30 -40 31 -69 2z"/>
<path d="M3052 3980 c0 -14 2 -19 5 -12 2 6 2 18 0 25 -3 6 -5 1 -5 -13z"/>
<path d="M6259 2753 c-24 -28 -24 -28 4 -4 15 14 27 26 27 28 0 8 -8 1 -31
-24z"/>
</g>
</svg>
