<?xml version="1.0" standalone="no"?>
<!DOCTYPE svg PUBLIC "-//W3C//DTD SVG 20010904//EN"
 "http://www.w3.org/TR/2001/REC-SVG-20010904/DTD/svg10.dtd">
<svg version="1.0" xmlns="http://www.w3.org/2000/svg"
 width="1000.000000pt" height="1000.000000pt" viewBox="0 0 1000.000000 1000.000000"
 preserveAspectRatio="xMidYMid meet">
<metadata>
  <rdf:RDF
    xmlns:rdf = "http://www.w3.org/1999/02/22-rdf-syntax-ns#"
    xmlns:rdfs = "http://www.w3.org/2000/01/rdf-schema#"
    xmlns:dc = "http://purl.org/dc/elements/1.1/"
    xmlns:cc = "http://creativecommons.org/ns#">
    <cc:license rdf:resource="http://creativecommons.org/publicdomain/zero/1.0/deed.en"/>
    <cc:permits rdf:resource="http://creativecommons.org/ns#Reproduction"/>
    <rdf:Description about="https://nft.mir.one/fingerprints"
      dc:title="TON Fingerprints"
      dc:description="This is a unique digital fingerprint created based on the algorithm for generating basic rings using a noise texture. Like human fingerprints, you can now use it for the Web3 and Metaverse era as digital biometric information."
      dc:publisher="https://nft.mir.one"
      dc:date="2022-02-22"
      dc:format="image/svg+xml"
      dc:language="en" >
      <dc:creator>
      <rdf:Bag>
        <rdf:li>EQBondcvD2_aOFADXSWJHs4ZazQDuEl9_wNvGGPxI8hGuOFU</rdf:li>
        <rdf:li>ipfs://bafkreihj7iub3fhmhq6jn62noukt5wxn3gv6bvcg7wmt6ywvlurefezckq</rdf:li>
      </rdf:Bag>
      </dc:creator>
    </rdf:Description>
  </rdf:RDF>
</metadata>
<rect width="100%" height="100%" fill="#1b1f23"/>
<g transform="translate(0.000000,1000.000000) scale(0.100000,-0.100000)"
fill="#ffffff" stroke="none">
<path d="M4776 7744 c2 -66 19 -90 141 -202 257 -235 478 -592 445 -717 -12
-43 -39 -44 -57 -2 -26 62 -112 206 -185 308 -152 213 -313 349 -376 320 -46
-21 -25 -60 111 -216 34 -38 115 -137 180 -220 171 -217 210 -255 264 -255 53
0 153 -198 278 -550 30 -85 77 -198 104 -251 50 -98 60 -138 85 -351 5 -50 4
-58 -11 -58 -51 0 -80 47 -123 201 -16 57 -61 183 -100 279 -178 442 -217 512
-391 695 -98 103 -409 477 -455 546 -19 30 -44 80 -56 111 -40 108 -146 148
-423 161 -98 4 -98 4 -75 -20 13 -14 75 -59 137 -100 140 -92 204 -152 430
-408 457 -517 517 -601 663 -925 146 -323 189 -511 135 -591 -40 -60 -67 -45
-67 37 0 50 -49 231 -92 339 -101 254 -256 514 -433 725 -306 365 -588 634
-740 706 -58 28 -159 32 -287 12 -76 -11 -76 -11 -45 -33 18 -13 79 -46 137
-75 252 -124 484 -317 771 -640 175 -198 280 -353 415 -615 85 -165 125 -267
144 -368 14 -71 56 -123 105 -133 41 -7 48 -25 70 -169 28 -189 15 -402 -39
-647 -54 -240 -138 -452 -331 -833 -187 -368 -206 -413 -290 -655 -94 -274
-162 -403 -338 -640 -63 -85 -118 -190 -100 -190 4 0 63 27 130 61 106 52 130
68 165 112 113 143 177 270 233 461 75 262 195 530 346 776 93 152 314 604
354 724 29 87 115 448 140 591 9 50 19 178 22 290 6 200 6 200 37 220 50 33
74 94 86 225 6 63 18 151 27 195 22 109 20 280 -7 490 -29 228 -52 337 -89
422 -17 39 -51 131 -77 204 -25 74 -70 185 -100 247 -45 93 -66 125 -120 177
-84 83 -232 181 -362 239 -106 48 -149 60 -97 27 48 -30 246 -238 312 -328 74
-100 162 -269 198 -383 23 -71 28 -104 29 -200 1 -63 5 -121 9 -127 15 -24 44
-14 57 20 17 47 25 60 38 65 22 7 33 -41 42 -171 5 -73 20 -199 34 -282 42
-239 44 -375 6 -375 -22 0 -43 59 -109 320 -79 314 -78 312 -125 380 -24 35
-40 74 -51 128 -31 153 -56 236 -94 317 -63 134 -163 278 -278 398 -57 60
-209 173 -293 219 -65 35 -65 35 -64 -18z"/>
<path d="M4480 7715 c0 -10 88 -55 108 -55 32 0 52 11 52 29 0 11 -9 16 -32
16 -18 0 -54 4 -80 7 -27 4 -48 6 -48 3z"/>
<path d="M5653 7655 c15 -22 27 -44 27 -50 0 -6 25 -58 55 -117 54 -104 169
-424 220 -613 47 -172 85 -482 85 -695 0 -112 -23 -402 -51 -645 -6 -50 -7
-150 -4 -225 9 -190 -2 -257 -64 -388 -54 -117 -63 -145 -116 -397 -37 -172
-71 -267 -105 -285 -34 -18 -96 -126 -159 -276 -71 -167 -80 -181 -167 -276
-46 -51 -80 -104 -137 -215 -140 -275 -227 -483 -227 -542 0 -34 20 -54 45
-45 40 16 149 214 344 626 48 103 64 128 80 128 64 0 19 -175 -116 -444 -107
-213 -178 -312 -259 -358 -64 -36 -80 -56 -168 -207 -72 -124 -108 -173 -196
-266 -74 -78 -120 -141 -94 -127 11 5 55 22 99 37 105 35 276 119 302 147 12
14 25 49 32 88 13 78 48 136 152 257 135 156 244 332 320 520 52 126 76 220
90 351 15 150 105 499 135 532 12 13 17 12 37 -8 20 -20 22 -32 20 -110 -2
-154 -91 -577 -158 -751 -95 -249 -217 -442 -429 -681 -88 -98 -114 -144 -96
-166 55 -65 273 128 453 401 127 194 239 458 305 725 60 239 73 343 82 640 8
277 32 555 54 620 22 68 75 44 98 -43 22 -89 12 -452 -23 -772 -14 -132 -60
-359 -103 -516 -148 -537 -433 -974 -771 -1182 -33 -21 -86 -62 -119 -92 -58
-54 -58 -54 98 15 372 163 548 332 737 710 216 431 354 1014 366 1545 5 207 3
230 -22 380 -18 104 -29 213 -32 312 -5 152 -5 152 -37 171 -18 11 -41 37 -52
58 -21 43 -22 91 -16 679 6 498 -56 912 -170 1140 -84 167 -138 237 -280 367
-75 68 -87 76 -65 43z"/>
<path d="M6120 7369 c2 -17 45 -174 74 -267 39 -123 47 -177 73 -527 12 -170
16 -313 13 -545 -8 -638 -7 -654 13 -658 44 -9 86 66 108 188 19 105 19 853 1
1000 -8 58 -13 146 -12 195 1 50 2 103 1 118 -1 41 -86 209 -186 366 -47 74
-85 133 -85 130z"/>
<path d="M3750 7093 c-14 -2 -58 -11 -99 -20 -74 -16 -74 -16 -50 -34 13 -10
65 -35 114 -54 284 -114 525 -283 785 -551 145 -150 366 -419 382 -467 6 -17
45 -86 86 -152 145 -235 193 -288 229 -253 11 12 14 26 9 51 -9 47 -101 227
-169 329 -29 46 -65 108 -79 138 -83 182 -474 613 -730 806 -109 82 -275 182
-337 202 -33 12 -90 14 -141 5z m1181 -1086 c-13 -13 -26 -3 -16 12 3 6 11 8
17 5 6 -4 6 -10 -1 -17z"/>
<path d="M3505 6840 c-38 -11 -81 -20 -95 -20 -23 0 -21 -2 15 -24 22 -13 87
-43 145 -66 294 -117 568 -304 805 -551 166 -173 276 -320 495 -664 191 -300
225 -434 185 -742 -45 -342 -170 -718 -357 -1073 -79 -150 -131 -223 -209
-290 -35 -30 -103 -90 -151 -133 -95 -87 -202 -168 -261 -198 -57 -30 -138
-47 -302 -64 -142 -15 -282 -43 -225 -44 14 -1 59 -12 101 -26 65 -20 135 -36
277 -61 28 -6 39 -29 22 -49 -7 -8 -53 -36 -103 -62 -90 -48 -90 -48 -21 -55
120 -13 213 14 247 72 10 17 73 83 139 148 66 64 163 166 215 225 96 109 146
148 165 129 46 -46 -135 -315 -442 -658 -34 -38 -70 -86 -81 -107 -19 -36 -19
-38 -2 -33 10 3 49 10 87 16 39 6 95 21 125 33 64 26 106 72 232 261 125 185
183 315 209 465 16 92 41 151 193 461 186 381 254 553 317 801 42 162 60 294
60 434 0 232 -44 345 -193 503 -89 94 -132 153 -319 442 -89 138 -213 286
-367 440 -214 212 -389 341 -624 456 -126 62 -163 66 -282 34z"/>
<path d="M6450 6838 c0 -2 13 -56 30 -120 46 -184 52 -284 47 -763 -5 -418 -5
-434 -32 -560 -36 -178 -41 -322 -20 -590 20 -262 16 -344 -30 -620 -108 -638
-228 -1020 -440 -1400 -37 -66 -91 -154 -120 -195 -29 -42 -62 -94 -73 -116
-12 -23 -37 -63 -57 -90 -54 -74 238 229 310 321 247 317 345 561 494 1230 29
127 67 291 87 366 55 215 57 237 31 348 -20 87 -21 120 -20 361 6 898 4 1331
-7 1408 -23 170 -135 422 -187 422 -7 0 -13 -1 -13 -2z"/>
<path d="M3405 6605 c-105 -29 -135 -39 -135 -46 0 -13 49 -38 146 -74 360
-134 701 -383 956 -701 204 -253 378 -592 395 -770 6 -67 -2 -80 -41 -70 -27
7 -58 64 -137 251 -111 266 -283 512 -503 722 -169 162 -325 270 -546 377
-117 57 -129 61 -195 61 -57 -1 -83 -7 -140 -33 -38 -17 -64 -32 -57 -32 7 0
24 -7 37 -16 14 -9 67 -31 119 -49 475 -165 885 -530 1101 -980 54 -113 157
-378 181 -469 8 -29 14 -101 14 -168 1 -217 -60 -430 -204 -716 -19 -38 -40
-92 -47 -118 -68 -283 -427 -525 -779 -525 -58 0 -127 -2 -155 -6 -49 -5 -49
-5 15 -39 36 -18 101 -45 145 -60 67 -21 91 -25 145 -19 229 22 413 117 610
315 102 102 158 184 244 356 163 326 236 564 271 882 9 73 27 176 41 230 20
77 25 111 20 167 -10 123 -74 276 -204 485 -291 468 -610 773 -1028 981 -152
76 -192 86 -269 64z"/>
<path d="M6771 6367 c-22 -28 -24 -92 -7 -292 32 -377 37 -563 26 -956 -12
-415 -9 -454 35 -465 81 -20 115 121 115 471 0 336 -32 627 -110 1008 -21 106
-40 205 -42 221 -3 26 -4 28 -17 13z"/>
<path d="M3170 6081 c-25 -10 -62 -27 -83 -38 -38 -19 -38 -19 -4 -35 18 -9
83 -32 143 -52 231 -77 435 -202 617 -376 225 -215 397 -513 373 -644 -8 -41
-31 -56 -50 -35 -7 8 -25 44 -40 81 -92 222 -292 474 -502 631 -97 73 -261
161 -371 201 -68 24 -75 24 -119 11 -25 -7 -63 -25 -85 -39 -21 -14 -43 -26
-49 -26 -5 0 -10 -4 -10 -8 0 -12 64 -39 139 -57 197 -50 377 -152 540 -310
105 -102 180 -194 301 -373 65 -98 94 -131 136 -159 61 -40 76 -74 95 -208 29
-207 -42 -439 -183 -605 -87 -102 -219 -223 -363 -333 -198 -152 -222 -184
-134 -180 59 3 218 83 336 170 338 251 390 299 449 414 78 156 114 307 114
481 0 373 -120 690 -375 989 -174 203 -457 403 -703 495 -74 28 -112 29 -172
5z"/>
<path d="M3085 5558 c-16 -6 -56 -28 -88 -49 -71 -46 -70 -46 93 -83 137 -31
254 -85 331 -153 61 -55 231 -265 297 -366 58 -90 117 -218 132 -288 7 -32 11
-95 8 -146 -5 -109 -36 -182 -103 -241 -24 -21 -67 -76 -95 -123 -29 -46 -70
-109 -93 -139 -56 -76 -211 -251 -296 -334 -70 -70 -70 -70 12 -97 130 -44
157 -38 157 37 0 53 8 63 196 254 241 244 320 348 372 492 24 65 27 87 26 198
0 148 -10 180 -106 338 -230 374 -424 566 -678 669 -94 38 -127 45 -165 31z"/>
<path d="M3061 5295 c-18 -9 -59 -42 -90 -74 -56 -59 -56 -59 14 -120 48 -42
116 -84 217 -136 166 -85 235 -141 295 -238 58 -92 83 -159 108 -284 21 -107
44 -163 65 -163 21 0 50 46 61 99 36 174 -59 419 -226 587 -72 72 -72 72 -141
76 -92 6 -297 84 -302 116 -2 15 4 22 26 27 40 8 103 -8 207 -54 65 -29 93
-37 102 -29 21 17 15 35 -24 79 -79 87 -239 145 -312 114z"/>
<path d="M2985 4894 c-85 -46 -89 -36 36 -100 86 -44 128 -73 175 -119 125
-125 182 -323 140 -480 -23 -86 -61 -148 -155 -250 -91 -99 -91 -99 -44 -112
27 -6 70 -12 97 -13 44 0 52 4 84 38 94 98 162 213 188 312 12 49 13 74 4 142
-36 269 -138 437 -335 551 -88 52 -137 60 -190 31z"/>
<path d="M7061 4635 c-6 -19 -24 -44 -38 -55 -59 -47 -182 -193 -215 -257 -46
-88 -64 -146 -133 -443 -73 -316 -108 -442 -205 -733 -44 -131 -80 -241 -80
-245 0 -4 26 40 57 98 153 284 266 577 357 925 77 294 101 365 141 412 44 52
97 165 120 256 18 75 16 97 -4 42z"/>
<path d="M2958 4606 c-27 -12 -27 -12 9 -31 47 -26 67 -69 47 -107 -8 -15 -23
-33 -34 -41 -21 -14 -21 -15 4 -21 60 -15 76 -151 27 -217 -13 -18 -19 -29
-13 -25 7 4 35 0 64 -9 97 -28 137 6 154 132 11 89 -53 265 -114 314 -28 22
-100 25 -144 5z"/>
<path d="M4124 3760 c-33 -23 -99 -72 -149 -111 -156 -121 -286 -176 -488
-205 -32 -4 -38 -9 -35 -27 2 -12 18 -32 37 -44 43 -29 119 -30 224 -4 156 40
303 125 423 245 80 81 111 135 94 166 -16 30 -41 25 -106 -20z"/>
</g>
</svg>
