<?xml version="1.0" standalone="no"?>
<!DOCTYPE svg PUBLIC "-//W3C//DTD SVG 20010904//EN"
 "http://www.w3.org/TR/2001/REC-SVG-20010904/DTD/svg10.dtd">
<svg version="1.0" xmlns="http://www.w3.org/2000/svg"
 width="1000.000000pt" height="1000.000000pt" viewBox="0 0 1000.000000 1000.000000"
 preserveAspectRatio="xMidYMid meet">
<metadata>
  <rdf:RDF
    xmlns:rdf = "http://www.w3.org/1999/02/22-rdf-syntax-ns#"
    xmlns:rdfs = "http://www.w3.org/2000/01/rdf-schema#"
    xmlns:dc = "http://purl.org/dc/elements/1.1/"
    xmlns:cc = "http://creativecommons.org/ns#">
    <cc:license rdf:resource="http://creativecommons.org/publicdomain/zero/1.0/deed.en"/>
    <cc:permits rdf:resource="http://creativecommons.org/ns#Reproduction"/>
    <rdf:Description about="https://nft.mir.one/fingerprints"
      dc:title="TON Fingerprints"
      dc:description="This is a unique digital fingerprint created based on the algorithm for generating basic rings using a noise texture. Like human fingerprints, you can now use it for the Web3 and Metaverse era as digital biometric information."
      dc:publisher="https://nft.mir.one"
      dc:date="2022-02-22"
      dc:format="image/svg+xml"
      dc:language="en" >
      <dc:creator>
      <rdf:Bag>
        <rdf:li>EQBondcvD2_aOFADXSWJHs4ZazQDuEl9_wNvGGPxI8hGuOFU</rdf:li>
        <rdf:li>ipfs://bafkreihj7iub3fhmhq6jn62noukt5wxn3gv6bvcg7wmt6ywvlurefezckq</rdf:li>
      </rdf:Bag>
      </dc:creator>
    </rdf:Description>
  </rdf:RDF>
</metadata>
<rect width="100%" height="100%" fill="#1b1f23"/>
<g transform="translate(0.000000,1000.000000) scale(0.100000,-0.100000)"
fill="#ffffff" stroke="none">
<path d="M4745 7713 c-85 -7 -296 -35 -362 -47 -68 -13 -68 -13 37 -20 58 -4
274 -11 480 -16 375 -8 375 -8 530 -44 85 -20 220 -54 300 -76 80 -22 181 -48
225 -59 44 -11 89 -22 100 -25 49 -15 -172 89 -285 133 -201 80 -391 129 -575
151 -83 9 -355 11 -450 3z"/>
<path d="M4268 7643 c7 -3 16 -2 19 1 4 3 -2 6 -13 5 -11 0 -14 -3 -6 -6z"/>
<path d="M5110 7512 c-14 -2 -46 -10 -72 -19 -44 -16 -62 -16 -257 2 -232 20
-310 18 -545 -15 -136 -20 -153 -20 -187 -7 -38 15 -38 15 -23 -8 33 -50 90
-63 419 -96 265 -26 377 -47 540 -104 137 -47 222 -58 244 -31 20 24 0 46 -78
85 -84 43 -117 72 -107 96 14 37 159 -19 234 -91 66 -63 103 -77 265 -100 59
-8 138 -24 175 -35 75 -23 260 -113 367 -179 299 -183 541 -308 561 -287 2 1
-54 55 -124 119 -334 307 -574 458 -847 534 -71 19 -196 55 -276 80 -145 44
-241 62 -289 56z"/>
<path d="M3979 7289 c-31 -4 -93 -17 -137 -28 -44 -12 -93 -21 -109 -21 -61
-1 85 -38 232 -60 83 -11 249 -41 370 -65 121 -25 292 -56 380 -70 350 -56
496 -104 692 -231 167 -108 262 -143 296 -110 29 30 2 68 -108 151 -39 29 -98
81 -132 114 -77 77 -135 104 -283 131 -63 12 -164 34 -225 50 -155 41 -221 53
-555 105 -305 46 -326 48 -421 34z"/>
<path d="M5548 7090 c-40 -24 -12 -64 102 -147 74 -54 98 -78 147 -143 56 -77
90 -105 239 -195 283 -173 408 -263 553 -398 139 -131 325 -299 370 -335 41
-33 41 -33 -27 80 -38 63 -100 161 -139 218 -38 58 -88 139 -109 180 -66 126
-133 187 -366 330 -111 69 -272 172 -357 229 -223 150 -363 211 -413 181z"/>
<path d="M3765 7055 c-63 -17 -130 -43 -225 -89 -74 -36 -74 -36 -35 -37 431
-5 500 -8 588 -23 146 -23 227 -64 227 -113 0 -12 -2 -23 -5 -23 -3 0 -47 8
-97 17 -70 12 -155 17 -348 17 -255 1 -255 1 -350 -46 -52 -26 -124 -65 -159
-88 -65 -40 -65 -40 -30 -42 45 -2 63 -1 204 17 66 9 244 20 395 26 151 5 293
14 315 20 22 6 52 22 67 36 25 24 32 25 90 20 99 -9 189 -42 257 -92 74 -57
189 -111 351 -166 104 -35 144 -43 235 -49 102 -7 123 -12 290 -74 360 -133
632 -288 823 -470 48 -46 66 -71 77 -109 32 -109 118 -212 335 -407 74 -67
162 -151 194 -188 32 -37 74 -75 91 -84 33 -17 33 -17 -1 80 -19 53 -53 135
-77 182 -43 86 -46 90 -148 150 -24 14 -103 84 -178 156 -100 97 -133 135
-128 147 4 10 17 17 32 17 55 0 126 -51 282 -203 129 -127 156 -120 88 21 -75
157 -129 214 -330 350 -49 33 -149 105 -222 159 -268 200 -483 316 -706 382
-160 48 -190 62 -312 145 -218 150 -355 197 -629 217 -108 7 -182 19 -265 41
-64 17 -164 43 -223 59 -116 31 -301 59 -376 58 -26 0 -69 -6 -97 -14z m1133
-295 c148 -36 326 -121 351 -169 17 -31 14 -61 -7 -61 -10 0 -59 17 -108 39
-49 21 -150 59 -224 86 -200 70 -217 83 -159 112 33 17 50 16 147 -7z"/>
<path d="M4200 6574 c-14 -2 -119 -8 -235 -14 -269 -13 -486 -37 -550 -61 -28
-10 -95 -48 -148 -83 -97 -64 -97 -64 -63 -70 19 -4 137 7 268 23 426 55 724
76 882 61 96 -9 121 -17 345 -99 94 -35 287 -77 404 -87 84 -7 94 -17 55 -54
-46 -43 -162 -51 -343 -25 -153 22 -207 20 -251 -10 -50 -34 -84 -42 -310 -70
-238 -30 -355 -50 -722 -120 -156 -30 -292 -55 -303 -55 -24 0 -104 -40 -177
-89 -56 -36 -56 -36 7 -41 97 -8 98 -24 6 -135 -23 -27 -52 -66 -65 -85 -13
-19 -34 -47 -48 -62 -25 -27 -25 -27 29 -7 59 23 153 85 239 159 98 85 178
115 480 184 511 117 815 170 970 170 257 0 663 -23 751 -43 256 -58 525 -196
744 -381 211 -178 371 -350 376 -405 3 -41 -1 -55 -18 -55 -10 0 -98 65 -196
145 -274 223 -421 322 -608 409 -230 107 -439 155 -714 163 -180 5 -193 7
-240 32 -44 23 -61 26 -145 25 -109 -2 -358 -50 -591 -114 -79 -22 -200 -54
-269 -71 -69 -16 -161 -39 -205 -50 -44 -11 -107 -32 -140 -48 -89 -42 -294
-182 -338 -229 -39 -44 -186 -261 -164 -244 6 5 23 13 37 17 45 14 252 136
390 230 144 99 222 142 261 146 110 10 79 -32 -206 -272 -164 -138 -181 -149
-233 -149 -62 0 -104 -27 -146 -92 -36 -57 -99 -198 -92 -205 3 -3 63 52 135
122 80 78 134 124 142 120 21 -14 2 -85 -38 -141 -89 -124 -102 -146 -127
-211 -29 -74 -80 -263 -73 -270 3 -2 27 26 53 63 27 37 80 108 118 158 37 50
114 152 169 226 55 74 148 185 207 245 59 61 115 126 125 145 33 65 146 220
178 244 91 68 290 141 585 215 273 68 349 82 362 66 18 -22 -10 -54 -75 -85
-33 -15 -151 -56 -263 -89 -111 -34 -235 -73 -275 -88 -239 -86 -458 -257
-406 -319 19 -23 54 -11 235 81 130 66 210 99 386 156 123 40 279 98 348 129
167 76 191 84 285 83 84 0 205 -29 480 -115 166 -52 392 -166 625 -317 230
-150 293 -182 372 -188 39 -3 78 -14 103 -28 74 -42 310 -292 394 -416 13 -19
39 -45 58 -57 34 -23 34 -23 27 5 -50 207 -80 309 -107 372 -33 77 -84 142
-342 437 -49 57 -130 149 -180 206 -216 249 -346 356 -575 472 -187 95 -360
152 -592 196 -52 10 -59 15 -74 46 -22 46 -74 74 -219 119 -66 20 -190 65
-275 99 -85 35 -176 68 -202 75 -42 10 -223 13 -288 5z"/>
<path d="M6825 6370 c10 -11 20 -20 23 -20 3 0 -3 9 -13 20 -10 11 -20 20 -23
20 -3 0 3 -9 13 -20z"/>
<path d="M3895 6300 c-149 -16 -481 -60 -572 -75 -28 -5 -94 -45 -225 -139
-47 -34 -47 -34 0 -39 52 -6 187 10 442 53 381 63 706 100 900 100 98 0 122 7
118 33 -4 30 -48 57 -114 73 -82 19 -339 16 -549 -6z"/>
<path d="M4853 5531 c-52 -18 -123 -65 -123 -81 0 -16 -54 -38 -161 -65 -170
-43 -372 -113 -528 -182 -80 -36 -191 -81 -246 -100 -54 -19 -124 -51 -155
-71 -74 -49 -213 -191 -336 -342 -160 -199 -181 -230 -213 -320 -17 -47 -38
-97 -47 -113 -14 -24 -14 -28 0 -33 30 -11 86 38 206 182 313 375 428 472 705
604 260 124 454 189 633 214 66 9 195 13 402 12 286 -2 309 -4 373 -25 37 -12
199 -86 360 -166 495 -243 702 -381 890 -593 74 -84 183 -239 241 -345 21 -37
51 -81 67 -97 30 -29 30 -29 24 33 -24 248 -41 341 -74 405 -10 20 -59 84
-109 142 -133 157 -232 237 -407 330 -55 29 -188 104 -295 165 -374 216 -593
310 -781 336 -85 11 -85 11 -155 -19 -104 -45 -239 -64 -313 -43 -29 8 -50 36
-36 50 6 5 72 18 148 29 141 21 191 39 180 67 -17 46 -153 60 -250 26z"/>
<path d="M4585 5104 c-296 -46 -659 -212 -895 -409 -90 -76 -230 -219 -366
-375 -56 -63 -109 -121 -118 -129 -42 -35 -79 -150 -91 -281 -3 -41 -9 -83
-12 -94 -8 -30 59 51 125 149 122 180 402 488 562 618 221 178 482 309 735
369 96 22 116 23 487 23 419 0 422 0 400 50 -15 33 -96 71 -182 84 -95 16
-536 12 -645 -5z"/>
<path d="M5415 4892 c-60 -27 -60 -27 -420 -27 -388 -1 -410 -3 -583 -61 -316
-105 -695 -399 -950 -739 -180 -240 -199 -308 -171 -592 12 -113 12 -113 31
-81 11 17 35 75 53 127 101 288 163 408 291 561 122 146 378 371 544 479 165
108 380 181 540 184 75 2 91 -1 137 -25 51 -27 51 -27 295 -21 270 6 369 -2
495 -43 112 -36 283 -124 393 -202 117 -83 275 -239 357 -352 109 -152 204
-352 247 -517 9 -34 27 -84 40 -112 23 -50 23 -50 41 116 16 138 17 182 8 264
-10 87 -16 108 -56 181 -105 193 -295 412 -467 539 -168 125 -378 237 -566
302 -144 50 -185 53 -259 19z"/>
<path d="M4647 4634 c-189 -46 -327 -116 -444 -225 -41 -38 -126 -113 -191
-168 -290 -245 -432 -434 -403 -537 10 -34 7 -44 -23 -98 -69 -123 -89 -185
-88 -266 2 -130 49 -300 121 -435 18 -33 29 -51 25 -40 -4 11 -10 67 -15 125
-20 252 54 490 184 594 35 28 38 29 55 13 16 -17 16 -22 -12 -95 -51 -137 -77
-235 -88 -333 -14 -122 0 -187 73 -336 43 -88 170 -295 200 -327 8 -9 -2 28
-47 174 -85 275 -89 442 -19 720 45 181 68 238 122 311 124 165 344 286 663
365 104 25 132 28 285 28 157 0 177 -2 260 -27 272 -83 493 -255 595 -464 36
-75 89 -280 120 -463 25 -153 36 -187 61 -201 16 -8 26 -7 44 5 124 82 83 502
-76 777 -143 247 -373 417 -668 497 -84 22 -117 25 -256 26 -183 0 -255 -11
-490 -80 -218 -63 -319 -99 -394 -140 -83 -46 -119 -74 -261 -204 -119 -109
-198 -156 -280 -167 -39 -6 -57 7 -43 29 4 7 82 85 173 173 253 246 357 316
496 336 44 7 174 40 289 74 320 96 393 110 565 110 84 0 175 -6 215 -14 514
-102 899 -528 956 -1057 17 -159 -15 -358 -67 -415 -9 -10 -42 -26 -72 -35
-37 -10 -67 -27 -88 -49 -36 -39 -70 -127 -79 -205 -6 -55 -6 -55 24 -1 62
110 143 201 177 201 17 0 24 8 29 30 7 34 20 38 46 14 17 -16 19 -15 28 9 5
13 35 80 66 148 65 143 115 321 115 413 0 143 -118 423 -254 604 -178 236
-452 426 -710 492 -178 45 -434 50 -566 11 -82 -24 -479 -162 -582 -201 -93
-36 -118 -38 -118 -10 0 51 130 123 355 196 193 63 245 92 231 129 -8 23 -123
18 -239 -11z"/>
<path d="M4883 3990 c-94 -13 -249 -57 -336 -95 -124 -53 -186 -94 -274 -181
-105 -103 -142 -177 -177 -354 -40 -196 -49 -307 -37 -423 12 -110 34 -205 58
-252 33 -64 115 -176 180 -247 37 -40 85 -93 106 -117 37 -45 37 -45 21 5 -8
27 -46 112 -85 189 -38 77 -80 181 -95 230 -61 213 -31 472 63 544 15 12 57
44 93 71 36 28 94 73 130 100 153 117 291 165 545 190 82 9 123 18 161 37 51
25 53 25 105 9 77 -22 205 -100 299 -181 118 -102 150 -107 150 -25 -1 81 -79
188 -208 285 -99 74 -298 177 -387 200 -73 20 -228 27 -312 15z m258 -140 c57
-16 104 -52 104 -80 0 -28 1 -28 -118 -11 -57 9 -103 9 -175 1 -135 -15 -199
-34 -332 -97 -110 -53 -120 -60 -231 -173 -86 -88 -119 -116 -128 -107 -31 31
5 126 79 210 171 193 566 320 801 257z"/>
<path d="M4988 3539 c-198 -29 -346 -102 -499 -246 -152 -144 -193 -348 -114
-560 91 -240 262 -363 505 -363 94 0 178 20 202 47 9 10 42 74 74 143 59 125
59 125 59 220 0 79 -4 102 -22 136 -44 83 -141 145 -225 144 -68 -1 -148 -71
-148 -130 0 -34 26 -70 50 -70 20 0 44 32 33 43 -10 10 18 37 39 37 54 0 105
-81 93 -151 -11 -63 -56 -123 -116 -153 -29 -14 -67 -26 -83 -26 -41 0 -207
56 -248 83 -77 53 -121 184 -101 303 15 89 46 146 119 223 72 76 142 122 246
159 66 23 88 26 223 26 170 1 223 -12 347 -85 135 -79 217 -176 266 -311 22
-63 26 -90 26 -198 1 -104 -3 -138 -23 -200 -31 -100 -121 -272 -169 -324 -27
-29 -27 -29 18 2 61 43 180 149 219 193 56 65 139 208 151 260 24 99 -4 277
-71 449 -38 99 -76 144 -143 169 -30 11 -83 38 -120 60 -179 110 -247 131
-410 130 -67 -1 -147 -5 -178 -10z"/>
<path d="M4915 3286 c-154 -38 -265 -136 -306 -269 -33 -105 -11 -215 49 -255
45 -29 56 -9 62 115 5 100 8 114 35 159 104 168 360 174 511 12 25 -27 57 -74
72 -106 23 -49 27 -70 27 -152 0 -121 -17 -171 -101 -298 -35 -53 -64 -102
-64 -109 0 -23 45 -25 101 -4 83 32 163 100 199 171 153 303 -3 648 -330 735
-66 18 -186 18 -255 1z"/>
</g>
</svg>
