<?xml version="1.0" standalone="no"?>
<!DOCTYPE svg PUBLIC "-//W3C//DTD SVG 20010904//EN"
 "http://www.w3.org/TR/2001/REC-SVG-20010904/DTD/svg10.dtd">
<svg version="1.0" xmlns="http://www.w3.org/2000/svg"
 width="1000.000000pt" height="1000.000000pt" viewBox="0 0 1000.000000 1000.000000"
 preserveAspectRatio="xMidYMid meet">
<metadata>
  <rdf:RDF
    xmlns:rdf = "http://www.w3.org/1999/02/22-rdf-syntax-ns#"
    xmlns:rdfs = "http://www.w3.org/2000/01/rdf-schema#"
    xmlns:dc = "http://purl.org/dc/elements/1.1/"
    xmlns:cc = "http://creativecommons.org/ns#">
    <cc:license rdf:resource="http://creativecommons.org/publicdomain/zero/1.0/deed.en"/>
    <cc:permits rdf:resource="http://creativecommons.org/ns#Reproduction"/>
    <rdf:Description about="https://nft.mir.one/fingerprints"
      dc:title="TON Fingerprints"
      dc:description="This is a unique digital fingerprint created based on the algorithm for generating basic rings using a noise texture. Like human fingerprints, you can now use it for the Web3 and Metaverse era as digital biometric information."
      dc:publisher="https://nft.mir.one"
      dc:date="2022-02-22"
      dc:format="image/svg+xml"
      dc:language="en" >
      <dc:creator>
      <rdf:Bag>
        <rdf:li>EQBondcvD2_aOFADXSWJHs4ZazQDuEl9_wNvGGPxI8hGuOFU</rdf:li>
        <rdf:li>ipfs://bafkreihj7iub3fhmhq6jn62noukt5wxn3gv6bvcg7wmt6ywvlurefezckq</rdf:li>
      </rdf:Bag>
      </dc:creator>
    </rdf:Description>
  </rdf:RDF>
</metadata>
<rect width="100%" height="100%" fill="#1b1f23"/>
<g transform="translate(0.000000,1000.000000) scale(0.100000,-0.100000)"
fill="#ffffff" stroke="none">
<path d="M4959 7736 c-2 -3 -69 -10 -149 -16 -80 -6 -185 -18 -235 -26 -80
-13 -388 -85 -382 -90 11 -7 626 33 767 51 198 24 232 26 375 16 77 -6 190
-12 250 -15 110 -5 110 -5 -15 24 -183 42 -322 60 -473 60 -73 0 -136 -2 -138
-4z"/>
<path d="M5708 7643 c7 -3 16 -2 19 1 4 3 -2 6 -13 5 -11 0 -14 -3 -6 -6z"/>
<path d="M5010 7519 c-63 -10 -207 -28 -320 -39 -243 -24 -297 -33 -412 -66
-115 -32 -243 -88 -364 -159 -128 -75 -385 -248 -359 -242 11 3 36 8 55 12 19
3 136 39 260 80 274 89 302 97 460 129 145 29 246 41 498 60 175 14 185 16
230 45 76 49 157 65 292 58 162 -9 271 -43 286 -90 12 -37 -8 -41 -138 -29
-244 24 -408 12 -408 -29 0 -20 52 -57 95 -68 74 -19 255 -34 330 -27 39 3 97
14 129 26 76 26 109 25 233 -5 131 -31 252 -78 428 -164 77 -38 163 -78 190
-90 50 -21 50 -21 0 25 -103 94 -253 214 -345 273 -100 66 -363 199 -492 250
-180 71 -409 89 -648 50z"/>
<path d="M4615 7113 c-177 -18 -346 -54 -600 -128 -82 -23 -190 -52 -240 -64
-100 -24 -158 -55 -273 -147 -64 -52 -205 -196 -262 -268 -23 -29 67 19 186
100 177 120 335 184 377 152 28 -21 14 -39 -75 -98 -255 -171 -353 -260 -453
-410 -83 -124 -141 -248 -206 -440 -49 -147 -52 -161 -55 -270 -2 -99 -8 -139
-47 -285 -25 -93 -49 -179 -53 -190 -4 -11 5 -4 22 15 16 19 32 37 36 40 15
12 97 198 112 255 8 33 22 105 30 160 31 204 108 356 328 648 117 155 160 201
284 303 56 46 134 120 174 164 59 65 86 87 144 114 147 70 363 125 570 145
146 15 252 13 431 -4 83 -8 248 -24 369 -35 342 -31 476 -64 691 -170 222
-108 408 -252 645 -496 134 -137 228 -220 199 -174 -8 14 -55 93 -104 177
-145 249 -305 449 -443 552 -79 59 -271 157 -394 200 -143 50 -225 62 -473 71
-246 10 -300 16 -465 57 -87 22 -132 26 -260 28 -85 2 -173 1 -195 -2z"/>
<path d="M4705 6749 c-236 -11 -446 -61 -603 -144 -74 -38 -254 -171 -360
-264 -68 -59 -117 -122 -127 -164 -8 -32 2 -67 20 -67 7 0 97 56 199 125 270
181 425 253 626 292 120 23 973 29 1100 8 257 -43 512 -182 698 -380 112 -120
460 -610 507 -714 17 -39 18 -46 4 -89 -23 -76 -16 -172 24 -342 72 -308 75
-400 12 -513 -40 -73 -156 -421 -158 -475 -1 -29 14 -51 34 -52 3 0 21 10 40
23 49 32 104 148 135 282 44 185 46 190 73 190 34 0 60 -47 76 -138 13 -72 13
-72 14 10 1 45 -3 126 -9 180 -5 54 -14 166 -20 248 -18 243 -56 408 -120 520
-35 62 -36 71 -10 85 31 17 83 -11 162 -87 70 -68 70 -68 50 -18 -208 523
-275 634 -561 929 -223 229 -398 349 -641 439 -173 64 -330 89 -665 107 -308
16 -339 16 -500 9z"/>
<path d="M5347 6410 c-64 -20 -76 -60 -26 -86 18 -9 86 -33 152 -55 216 -70
417 -180 480 -262 15 -19 36 -60 47 -89 16 -44 30 -62 75 -94 59 -43 78 -71
64 -96 -18 -33 -71 -39 -306 -36 -228 3 -228 3 -252 -46 -39 -78 -35 -81 254
-150 103 -24 176 -48 233 -77 181 -89 311 -275 378 -537 47 -186 43 -362 -16
-647 -38 -182 -61 -250 -122 -365 -28 -52 -62 -115 -75 -139 -31 -59 -31 -119
-1 -130 38 -14 73 7 150 88 141 146 176 216 176 341 0 69 10 127 52 305 77
321 78 423 9 707 -65 269 -111 374 -228 523 -132 170 -130 165 -145 247 -17
86 -39 136 -102 224 -109 154 -307 284 -530 349 -96 28 -222 40 -267 25z"/>
<path d="M4420 6366 c-134 -30 -253 -79 -439 -183 -202 -113 -225 -123 -304
-123 -67 0 -67 0 -128 -62 -34 -34 -84 -94 -111 -133 -103 -146 -152 -271
-217 -558 -41 -177 -54 -217 -71 -217 -4 0 -23 -12 -41 -27 -45 -38 -86 -135
-103 -245 -17 -102 -37 -391 -35 -478 2 -54 2 -54 9 17 5 57 13 83 42 130 34
55 36 63 41 173 3 63 13 138 21 166 15 48 59 104 72 91 4 -4 8 -60 9 -124 1
-65 7 -138 14 -163 19 -65 183 -454 242 -573 246 -493 580 -804 1086 -1013
192 -79 253 -123 222 -160 -17 -21 -74 -13 -209 32 -366 122 -732 384 -962
691 -149 199 -243 382 -349 683 -42 119 -66 171 -84 188 -15 12 -31 19 -37 16
-27 -17 36 -308 107 -499 47 -128 131 -299 193 -395 189 -293 504 -558 869
-732 228 -109 365 -137 515 -103 73 17 94 18 227 7 191 -16 250 -15 357 3 269
47 582 204 904 454 69 54 157 120 195 147 142 99 288 271 405 476 63 109 130
259 129 288 0 8 -6 -1 -14 -21 -31 -86 -120 -185 -365 -408 -135 -124 -208
-179 -287 -220 -24 -12 -87 -62 -142 -112 -225 -208 -509 -368 -770 -435 -163
-42 -306 -26 -284 32 5 14 50 30 198 69 251 67 543 220 700 366 73 69 93 107
76 146 -19 42 -63 26 -239 -87 -183 -117 -368 -211 -537 -270 -66 -24 -165
-63 -220 -89 -154 -70 -205 -64 -515 61 -173 70 -279 125 -401 206 -275 184
-440 377 -655 766 -138 250 -192 382 -274 663 -13 45 -32 86 -51 107 -27 31
-30 41 -27 88 3 45 6 53 24 56 24 3 63 -38 94 -98 11 -21 49 -123 84 -227 78
-228 115 -310 194 -429 33 -50 88 -140 122 -200 174 -303 330 -477 568 -632
202 -131 487 -232 658 -232 120 0 351 69 553 166 163 78 514 290 577 349 101
94 192 277 242 490 23 98 26 131 27 295 0 210 -9 259 -75 395 -51 106 -137
207 -230 270 -41 28 -149 84 -240 125 -91 41 -197 97 -237 123 -71 48 -71 48
-205 58 -191 15 -349 -1 -428 -41 -19 -10 -51 -38 -71 -62 -20 -23 -85 -76
-145 -117 -214 -145 -291 -221 -368 -361 -81 -149 -116 -372 -82 -530 26 -124
86 -232 180 -326 89 -88 144 -123 252 -159 333 -113 693 90 790 445 24 90 29
242 10 347 -37 215 -110 314 -265 363 -173 55 -402 -8 -556 -152 -112 -105
-155 -222 -135 -369 24 -177 97 -286 219 -327 77 -27 181 -1 216 52 26 40 30
107 10 150 -20 42 -45 59 -83 54 -23 -2 -27 -8 -28 -34 -1 -43 -10 -54 -44
-54 -32 0 -70 40 -70 74 0 59 86 126 164 126 51 0 111 -33 140 -78 14 -20 34
-70 45 -111 20 -76 31 -92 60 -84 49 13 74 133 47 226 -61 211 -296 264 -474
107 -25 -23 -53 -39 -61 -38 -26 5 -25 55 3 102 34 58 87 103 166 140 58 28
75 31 155 31 115 0 175 -25 244 -100 70 -77 96 -153 96 -280 0 -153 -27 -201
-177 -316 -137 -105 -220 -135 -344 -126 -184 14 -341 152 -400 352 -26 87
-23 239 6 330 60 192 209 343 453 461 147 71 263 88 409 60 126 -24 260 -98
358 -197 37 -38 42 -40 83 -34 85 13 249 -47 318 -116 103 -103 153 -303 129
-517 -22 -198 -95 -387 -190 -494 -57 -64 -94 -89 -177 -122 -32 -12 -113 -60
-181 -105 -271 -182 -471 -254 -707 -254 -152 0 -271 30 -429 106 -256 125
-460 322 -585 567 -72 142 -85 188 -75 274 4 39 8 125 8 191 1 108 3 123 24
152 29 41 47 92 82 238 30 126 67 233 120 350 18 39 63 149 101 245 93 233 98
238 394 394 313 165 279 151 382 154 52 2 124 -1 160 -8 91 -16 278 -79 431
-146 173 -76 256 -104 327 -111 51 -4 64 -2 85 15 25 21 25 21 -8 55 -46 48
-188 124 -392 212 -202 87 -229 103 -275 160 -42 51 -70 60 -240 75 -66 6
-170 15 -231 20 -143 13 -295 11 -364 -4z m200 -159 c34 -17 36 -42 7 -62 -13
-8 -76 -35 -138 -59 -107 -40 -512 -229 -568 -264 -122 -76 -214 -178 -282
-314 -110 -219 -118 -485 -23 -753 97 -271 118 -360 90 -371 -45 -17 -107 96
-190 349 -90 270 -101 323 -100 472 1 111 5 143 28 219 58 191 170 358 301
448 84 58 447 242 563 286 143 55 264 73 312 49z m-523 -492 c3 -10 -20 -54
-60 -114 -162 -244 -225 -433 -242 -729 -4 -67 -12 -125 -18 -129 -18 -11 -55
45 -68 104 -15 72 -15 258 0 340 27 141 89 283 174 397 82 108 196 178 214
131z"/>
<path d="M4815 5890 c-168 -44 -356 -135 -442 -214 -102 -92 -166 -217 -130
-253 19 -19 41 -8 122 62 173 149 272 186 552 206 125 9 210 9 333 1 171 -11
243 -5 287 23 46 31 -7 85 -123 126 -191 66 -453 88 -599 49z"/>
<path d="M4639 5525 c-52 -19 -104 -47 -202 -108 -48 -31 -110 -63 -137 -72
-112 -37 -207 -212 -307 -565 -29 -104 -36 -147 -40 -256 -6 -154 6 -238 49
-342 106 -254 359 -484 628 -570 275 -88 576 -36 816 141 109 80 140 130 222
347 91 243 109 360 92 605 -13 189 -16 201 -49 250 -32 47 -47 50 -75 12 -20
-27 -21 -40 -21 -270 -1 -263 -7 -314 -56 -455 -78 -221 -186 -345 -380 -436
-327 -154 -739 -25 -953 298 -136 206 -159 460 -66 738 84 251 187 368 470
538 112 67 137 85 151 112 23 42 -63 63 -142 33z"/>
<path d="M5859 4864 c-10 -12 -10 -35 4 -127 27 -181 29 -217 17 -312 -15
-125 -33 -189 -97 -349 -60 -152 -63 -186 -16 -186 19 0 42 15 79 54 129 133
214 435 185 651 -16 111 -45 195 -87 244 -38 43 -63 51 -85 25z"/>
<path d="M7002 4225 c0 -16 2 -22 5 -12 2 9 2 23 0 30 -3 6 -5 -1 -5 -18z"/>
<path d="M6991 4174 c0 -11 3 -14 6 -6 3 7 2 16 -1 19 -3 4 -6 -2 -5 -13z"/>
<path d="M3100 3825 c0 -5 5 -17 10 -25 5 -8 10 -10 10 -5 0 6 -5 17 -10 25
-5 8 -10 11 -10 5z"/>
<path d="M3120 3776 c0 -16 122 -246 176 -332 178 -285 380 -493 661 -681 129
-86 555 -304 658 -336 145 -46 314 -47 541 -2 261 51 458 116 669 223 251 127
387 232 685 526 195 193 195 193 127 163 -41 -18 -137 -83 -245 -165 -237
-180 -391 -280 -547 -357 -339 -165 -574 -218 -970 -219 -201 -1 -228 1 -305
22 -234 65 -565 233 -800 408 -206 153 -438 413 -587 656 -35 56 -63 99 -63
94z"/>
<path d="M6020 2583 c-186 -88 -439 -185 -670 -257 -126 -39 -399 -145 -377
-146 4 0 99 23 210 50 260 66 410 116 577 196 126 61 360 190 360 200 0 5 9 9
-100 -43z"/>
<path d="M3900 2616 c0 -11 186 -116 341 -192 93 -46 174 -93 183 -106 23 -32
20 -9 -3 29 -25 39 -71 67 -242 141 -74 33 -167 76 -207 96 -40 20 -72 34 -72
32z"/>
</g>
</svg>
