<?xml version="1.0" standalone="no"?>
<!DOCTYPE svg PUBLIC "-//W3C//DTD SVG 20010904//EN"
 "http://www.w3.org/TR/2001/REC-SVG-20010904/DTD/svg10.dtd">
<svg version="1.0" xmlns="http://www.w3.org/2000/svg"
 width="1000.000000pt" height="1000.000000pt" viewBox="0 0 1000.000000 1000.000000"
 preserveAspectRatio="xMidYMid meet">
<metadata>
  <rdf:RDF
    xmlns:rdf = "http://www.w3.org/1999/02/22-rdf-syntax-ns#"
    xmlns:rdfs = "http://www.w3.org/2000/01/rdf-schema#"
    xmlns:dc = "http://purl.org/dc/elements/1.1/"
    xmlns:cc = "http://creativecommons.org/ns#">
    <cc:license rdf:resource="http://creativecommons.org/publicdomain/zero/1.0/deed.en"/>
    <cc:permits rdf:resource="http://creativecommons.org/ns#Reproduction"/>
    <rdf:Description about="https://nft.mir.one/fingerprints"
      dc:title="TON Fingerprints"
      dc:description="This is a unique digital fingerprint created based on the algorithm for generating basic rings using a noise texture. Like human fingerprints, you can now use it for the Web3 and Metaverse era as digital biometric information."
      dc:publisher="https://nft.mir.one"
      dc:date="2022-02-22"
      dc:format="image/svg+xml"
      dc:language="en" >
      <dc:creator>
      <rdf:Bag>
        <rdf:li>EQBondcvD2_aOFADXSWJHs4ZazQDuEl9_wNvGGPxI8hGuOFU</rdf:li>
        <rdf:li>ipfs://bafkreihj7iub3fhmhq6jn62noukt5wxn3gv6bvcg7wmt6ywvlurefezckq</rdf:li>
      </rdf:Bag>
      </dc:creator>
    </rdf:Description>
  </rdf:RDF>
</metadata>
<rect width="100%" height="100%" fill="#1b1f23"/>
<g transform="translate(0.000000,1000.000000) scale(0.100000,-0.100000)"
fill="#ffffff" stroke="none">
<path d="M5301 7741 c46 -33 122 -83 169 -112 210 -130 601 -385 665 -434 39
-30 100 -85 138 -122 62 -64 68 -73 77 -128 13 -78 51 -133 209 -299 130 -138
219 -243 266 -313 41 -64 41 -52 -1 25 -69 125 -160 256 -265 382 -137 164
-148 181 -155 229 -5 37 -4 41 21 47 26 6 26 6 -5 26 -18 10 -87 69 -153 130
-269 245 -545 420 -895 568 -79 33 -146 60 -149 60 -3 0 32 -27 78 -59z"/>
<path d="M4590 7691 c47 -22 130 -58 185 -81 273 -114 565 -311 733 -495 35
-38 89 -114 120 -170 30 -55 102 -170 158 -255 57 -86 109 -177 117 -205 9
-27 23 -76 33 -108 9 -31 55 -126 101 -210 164 -296 189 -362 179 -471 -6 -68
-6 -68 95 -305 160 -373 196 -435 248 -429 23 3 26 8 29 48 5 59 -14 125 -119
430 -48 140 -104 306 -124 369 -41 129 -102 255 -206 427 -80 132 -121 213
-113 226 3 4 16 8 28 8 49 0 192 -188 304 -400 89 -168 253 -619 308 -845 24
-102 26 -120 20 -245 -7 -134 -7 -137 33 -300 61 -253 75 -359 75 -565 0 -295
-47 -495 -112 -483 -24 4 -26 59 -12 278 20 316 -16 567 -110 765 -16 33 -66
112 -111 175 -59 83 -112 176 -189 335 -118 242 -158 306 -271 440 -42 50
-148 194 -234 320 -195 284 -263 373 -385 499 -119 124 -228 206 -317 239
-197 72 -663 219 -768 242 -161 36 -309 55 -432 55 -114 0 -84 11 -347 -133
-119 -65 -119 -65 -84 -75 24 -6 82 -5 184 5 250 25 484 5 762 -63 216 -53
482 -144 612 -209 155 -78 332 -233 502 -440 143 -173 434 -588 521 -741 83
-146 257 -548 272 -625 4 -24 0 -55 -15 -100 -27 -79 -24 -134 24 -471 34
-230 55 -313 79 -305 26 8 54 67 60 124 11 108 -20 386 -63 555 -26 101 -26
118 3 118 30 0 71 -43 97 -102 53 -122 86 -394 70 -588 -14 -172 -12 -239 11
-337 16 -69 20 -106 15 -168 -3 -44 -8 -138 -11 -210 -6 -130 -6 -130 23 -50
84 229 138 357 178 425 146 245 203 765 135 1235 -12 83 -28 200 -37 260 -20
144 -53 273 -119 472 -164 493 -371 842 -618 1042 -67 54 -216 224 -279 318
-46 67 -53 123 -15 123 51 0 131 -73 379 -350 267 -297 339 -397 457 -629 177
-348 277 -661 352 -1095 16 -94 38 -205 49 -246 20 -75 20 -75 15 60 -20 504
-110 918 -285 1311 -97 217 -164 320 -345 529 -59 69 -139 170 -179 225 -127
179 -235 269 -416 349 -47 20 -125 66 -175 101 -344 243 -422 288 -610 348
-160 51 -374 87 -514 87 -33 0 -30 -3 49 -39z"/>
<path d="M4290 7612 c0 -112 40 -148 299 -267 325 -149 469 -254 557 -405 28
-49 92 -126 180 -220 206 -219 254 -285 544 -743 166 -263 235 -340 275 -307
29 24 -4 98 -186 418 -56 97 -126 225 -155 285 -87 172 -310 490 -466 664
-147 164 -308 285 -527 397 -140 71 -213 99 -321 121 -104 21 -166 49 -185 84
-14 25 -14 25 -15 -27z"/>
<path d="M4050 7482 c-55 -4 -55 -4 -5 -23 65 -25 127 -25 148 -1 10 10 17 22
17 25 0 7 -58 7 -160 -1z"/>
<path d="M3984 7280 c-50 -10 -128 -30 -173 -44 -45 -14 -92 -26 -104 -27 -15
0 -17 -2 -7 -6 8 -3 27 -14 41 -24 19 -13 81 -25 230 -44 321 -41 487 -86 794
-215 161 -68 240 -85 264 -57 43 53 -110 172 -373 290 -315 141 -463 169 -672
127z"/>
<path d="M3519 6631 c-54 -10 -122 -44 -224 -110 -66 -44 -73 -50 -53 -57 12
-3 148 -8 302 -9 326 -3 390 -10 788 -90 314 -63 372 -79 486 -134 327 -159
678 -545 887 -976 137 -283 212 -531 270 -895 55 -343 82 -464 126 -568 62
-146 73 -200 73 -342 -2 -263 -82 -491 -251 -714 -26 -33 -90 -110 -143 -171
-52 -60 -126 -150 -164 -199 -69 -90 -69 -90 0 -32 38 31 133 109 211 172 292
236 467 460 522 669 34 131 34 345 0 542 -10 58 -15 67 -49 89 -73 48 -110
157 -149 429 -11 77 -27 214 -35 305 -18 186 -35 259 -108 445 -106 269 -244
507 -461 798 -257 343 -493 543 -774 653 -170 67 -485 146 -718 180 -118 17
-470 27 -536 15z"/>
<path d="M3343 6299 c-45 -13 -130 -74 -210 -149 -68 -65 -68 -65 -12 -63 30
0 73 6 95 13 62 18 318 24 430 11 240 -30 462 -85 579 -144 73 -36 449 -292
565 -384 130 -103 286 -265 398 -416 99 -132 131 -161 161 -142 24 14 11 84
-28 160 -124 240 -360 475 -724 725 -42 29 -91 68 -107 87 -30 34 -39 76 -19
88 6 4 54 -14 107 -39 311 -151 618 -432 794 -728 57 -97 87 -185 98 -293 7
-72 24 -135 75 -281 135 -390 177 -582 179 -809 1 -115 -3 -169 -18 -232 -22
-97 -39 -119 -67 -84 -23 28 -25 43 -38 261 -17 300 -65 477 -212 793 -77 165
-101 203 -246 385 -209 264 -384 417 -682 596 -248 151 -397 207 -658 251 -50
8 -126 26 -169 40 -43 14 -106 28 -139 31 -58 6 -179 -7 -257 -27 -43 -11
-137 -101 -201 -192 -23 -33 -48 -68 -56 -78 -13 -18 -11 -19 20 -12 19 3 66
21 106 39 214 98 448 151 482 110 28 -34 -64 -97 -274 -186 -194 -83 -202 -88
-249 -148 -38 -51 -146 -218 -146 -227 0 -8 90 25 170 63 104 49 194 79 280
93 54 9 76 8 125 -5 33 -9 137 -36 230 -60 94 -24 226 -66 295 -94 86 -34 147
-52 195 -57 70 -7 286 -75 361 -113 59 -30 124 -81 251 -198 61 -56 149 -127
195 -157 95 -62 124 -91 202 -201 83 -116 121 -188 160 -306 42 -128 59 -228
87 -521 20 -217 21 -230 5 -330 -33 -206 -140 -471 -321 -795 -43 -76 -101
-172 -129 -213 -28 -40 -55 -81 -61 -90 -5 -9 -19 -32 -32 -52 -22 -37 -22
-37 65 13 193 110 216 137 384 443 165 299 225 442 289 684 34 125 45 153 82
197 14 16 52 79 86 140 61 111 61 112 61 192 0 145 -53 469 -115 709 -55 209
-180 578 -234 687 -169 345 -515 703 -812 840 -107 50 -182 63 -262 47 -71
-14 -49 -17 -297 48 -214 57 -485 92 -700 90 -58 0 -119 -5 -137 -10z m699
-658 c146 -40 387 -153 553 -259 245 -157 523 -439 513 -521 -6 -52 -35 -36
-175 100 -76 73 -176 161 -223 196 -106 79 -313 185 -490 251 -239 89 -366
115 -553 110 -120 -3 -141 5 -114 45 21 32 75 65 145 88 75 25 234 20 344 -10z"/>
<path d="M3315 5216 c-33 -8 -100 -26 -150 -42 -113 -35 -159 -78 -216 -199
-21 -45 -39 -85 -39 -88 0 -3 27 23 61 58 104 108 165 108 109 -1 -34 -65 -80
-173 -80 -186 0 -4 9 -8 21 -8 13 0 61 38 128 104 58 56 122 111 141 121 94
49 220 58 340 24 115 -31 193 -80 295 -183 74 -75 98 -107 134 -181 123 -251
156 -448 112 -660 -10 -49 -46 -166 -80 -259 -38 -105 -67 -205 -76 -263 -8
-52 -26 -120 -39 -152 -44 -108 -141 -229 -259 -322 -26 -21 -59 -52 -73 -68
-26 -31 -26 -31 28 -33 157 -6 200 6 266 76 105 111 131 167 273 581 48 143
104 305 123 360 45 126 53 209 32 340 -20 136 -63 262 -150 441 -71 146 -99
184 -138 184 -12 0 -19 11 -24 35 -9 49 -72 144 -122 183 -57 45 -175 98 -274
123 -107 26 -264 33 -343 15z"/>
<path d="M4172 5078 c-30 -30 -13 -75 93 -248 181 -294 258 -517 280 -810 5
-64 14 -100 36 -148 44 -92 53 -158 39 -272 -23 -179 -96 -375 -175 -468 -46
-53 -125 -92 -185 -92 -47 0 -47 0 -206 -167 -88 -93 -170 -182 -182 -199 -21
-31 -21 -31 72 -18 136 19 160 31 255 134 92 100 157 150 195 150 56 0 18 -73
-143 -272 -60 -76 -119 -155 -130 -176 -20 -38 -20 -38 60 -11 43 15 99 39
124 54 83 48 183 207 259 410 18 50 57 143 85 207 119 267 144 480 96 813 -14
105 -36 233 -47 285 -34 163 -109 327 -231 510 -28 41 -70 113 -93 161 -43 86
-91 141 -141 160 -32 12 -47 11 -61 -3z"/>
<path d="M4450 5005 c-18 -22 -5 -46 91 -167 169 -212 251 -350 283 -473 33
-131 69 -463 70 -650 1 -207 -14 -300 -75 -487 -89 -275 -211 -516 -368 -728
-35 -47 -67 -94 -71 -105 -25 -67 -27 -67 77 -10 129 71 162 100 234 206 168
250 306 589 344 845 22 152 21 390 -5 587 -26 204 -26 259 1 315 19 37 20 49
11 80 -20 66 -107 184 -249 337 -145 156 -211 216 -271 247 -44 22 -56 22 -72
3z"/>
<path d="M3387 4849 c-93 -22 -287 -149 -317 -209 -10 -20 -33 -85 -50 -145
-29 -99 -31 -115 -21 -158 32 -142 141 -267 232 -267 47 0 134 44 161 82 12
17 23 52 26 79 4 46 2 51 -32 84 -39 37 -39 50 0 66 49 18 120 -31 143 -100
17 -52 13 -101 -13 -156 -50 -108 -174 -177 -326 -181 -117 -3 -122 -3 -115
-13 13 -22 145 -101 187 -112 42 -12 54 -10 129 15 151 49 237 116 288 226 22
47 26 69 26 150 0 82 -4 103 -26 151 -71 150 -230 218 -364 155 -93 -43 -139
-129 -98 -184 24 -32 55 -39 73 -17 21 25 40 18 40 -14 0 -75 -96 -114 -177
-72 -72 36 -105 108 -82 178 36 112 148 217 271 254 355 108 646 -342 459
-709 -50 -97 -89 -127 -252 -187 -79 -29 -180 -60 -224 -69 -44 -9 -99 -22
-122 -28 -42 -10 -42 -10 25 -44 36 -18 90 -39 119 -45 58 -13 55 -14 216 59
97 43 127 47 127 17 0 -48 -126 -143 -251 -190 -41 -15 -92 -35 -114 -45 -22
-10 -47 -20 -55 -23 -9 -3 -5 -6 10 -6 14 -1 52 -10 85 -22 32 -11 83 -21 111
-22 47 -1 60 4 125 47 40 27 117 91 171 144 84 82 104 108 148 194 88 169 120
289 120 441 0 200 -89 417 -222 544 -114 109 -295 164 -431 132z"/>
<path d="M7072 4610 c0 -14 2 -19 5 -12 2 6 2 18 0 25 -3 6 -5 1 -5 -13z"/>
<path d="M5093 4323 c3 -27 17 -97 31 -158 39 -166 56 -318 56 -503 0 -297
-53 -511 -200 -817 -95 -196 -198 -354 -313 -477 -24 -26 -56 -62 -70 -82 -27
-35 -27 -35 53 -5 221 80 273 129 419 398 224 411 295 687 271 1045 -18 263
-62 467 -120 561 -29 47 -77 85 -107 85 -25 0 -25 -2 -20 -47z"/>
<path d="M4450 3822 c-21 -22 -41 -68 -80 -193 -29 -90 -79 -230 -111 -312
-56 -140 -67 -185 -53 -221 10 -27 31 -18 81 32 118 119 219 374 230 583 5 94
-4 139 -28 139 -6 0 -23 -13 -39 -28z"/>
<path d="M5943 3697 c-10 -14 -41 -101 -67 -193 -111 -389 -188 -569 -357
-834 -172 -270 -204 -335 -180 -364 9 -10 43 19 159 133 312 308 488 642 532
1007 13 104 1 204 -28 243 -25 34 -37 36 -59 8z"/>
<path d="M3764 3387 c-88 -82 -175 -147 -244 -182 -19 -10 -47 -28 -61 -40
-27 -22 -27 -22 45 -39 138 -32 171 -21 276 91 88 93 133 168 128 216 -2 26
-8 33 -29 35 -21 2 -44 -14 -115 -81z"/>
</g>
</svg>
