<?xml version="1.0" standalone="no"?>
<!DOCTYPE svg PUBLIC "-//W3C//DTD SVG 20010904//EN"
 "http://www.w3.org/TR/2001/REC-SVG-20010904/DTD/svg10.dtd">
<svg version="1.0" xmlns="http://www.w3.org/2000/svg"
 width="1000.000000pt" height="1000.000000pt" viewBox="0 0 1000.000000 1000.000000"
 preserveAspectRatio="xMidYMid meet">
<metadata>
  <rdf:RDF
    xmlns:rdf = "http://www.w3.org/1999/02/22-rdf-syntax-ns#"
    xmlns:rdfs = "http://www.w3.org/2000/01/rdf-schema#"
    xmlns:dc = "http://purl.org/dc/elements/1.1/"
    xmlns:cc = "http://creativecommons.org/ns#">
    <cc:license rdf:resource="http://creativecommons.org/publicdomain/zero/1.0/deed.en"/>
    <cc:permits rdf:resource="http://creativecommons.org/ns#Reproduction"/>
    <rdf:Description about="https://nft.mir.one/fingerprints"
      dc:title="TON Fingerprints"
      dc:description="This is a unique digital fingerprint created based on the algorithm for generating basic rings using a noise texture. Like human fingerprints, you can now use it for the Web3 and Metaverse era as digital biometric information."
      dc:publisher="https://nft.mir.one"
      dc:date="2022-02-22"
      dc:format="image/svg+xml"
      dc:language="en" >
      <dc:creator>
      <rdf:Bag>
        <rdf:li>EQBondcvD2_aOFADXSWJHs4ZazQDuEl9_wNvGGPxI8hGuOFU</rdf:li>
        <rdf:li>ipfs://bafkreihj7iub3fhmhq6jn62noukt5wxn3gv6bvcg7wmt6ywvlurefezckq</rdf:li>
      </rdf:Bag>
      </dc:creator>
    </rdf:Description>
  </rdf:RDF>
</metadata>
<rect width="100%" height="100%" fill="#1b1f23"/>
<g transform="translate(0.000000,1000.000000) scale(0.100000,-0.100000)"
fill="#ffffff" stroke="none">
<path d="M4862 7792 c14 -15 31 -36 39 -48 8 -11 70 -69 138 -130 196 -172
558 -502 763 -697 381 -361 623 -652 920 -1102 146 -222 201 -286 276 -324 23
-11 48 -31 56 -43 20 -28 20 -22 0 33 -8 24 -13 57 -10 72 3 16 2 26 -3 22 -5
-3 -13 0 -17 6 -4 8 -9 7 -15 -2 -18 -29 -61 39 -138 219 -92 211 -136 295
-236 447 -248 377 -512 664 -1100 1195 -126 113 -344 240 -532 309 -46 17
-102 40 -125 51 -42 20 -42 20 -16 -8z"/>
<path d="M5497 7719 c17 -19 49 -55 70 -81 21 -25 130 -131 243 -234 276 -254
558 -537 655 -659 111 -138 369 -533 452 -690 23 -44 43 -76 43 -72 1 21 -149
348 -220 480 -191 355 -408 621 -730 897 -157 134 -580 430 -513 359z"/>
<path d="M4459 7673 c18 -22 60 -63 94 -91 71 -58 173 -162 269 -277 77 -92
131 -142 583 -544 353 -314 907 -862 1055 -1044 227 -278 403 -601 513 -943
41 -125 86 -229 86 -199 2 89 -49 420 -89 573 -39 151 -71 218 -155 332 -39
52 -109 149 -155 215 -289 414 -625 779 -1240 1344 -195 179 -403 372 -462
428 -137 131 -226 176 -423 217 -38 8 -79 18 -89 22 -15 6 -12 -2 13 -33z"/>
<path d="M4118 7502 c20 -19 126 -88 236 -154 146 -89 209 -121 234 -122 46
-1 60 20 42 65 -16 39 -119 150 -165 179 -45 28 -153 51 -277 58 -107 7 -107
7 -70 -26z"/>
<path d="M3895 7311 c-16 -5 -50 -9 -75 -10 -45 -1 -45 -1 0 -28 25 -15 81
-44 125 -63 44 -20 143 -73 220 -117 77 -44 194 -108 261 -141 221 -111 366
-220 669 -502 210 -196 208 -195 307 -237 107 -45 185 -101 303 -220 160 -161
193 -213 387 -603 276 -553 338 -731 483 -1374 31 -136 75 -301 97 -365 22
-64 42 -126 45 -139 3 -12 9 -22 13 -22 12 0 20 114 20 292 0 165 -1 175 -46
374 -108 485 -223 805 -416 1158 -148 271 -169 317 -166 355 5 59 34 47 100
-39 123 -160 311 -504 401 -735 86 -220 160 -481 221 -780 19 -93 42 -188 50
-210 14 -39 14 -39 21 70 9 135 0 477 -15 565 -35 202 -189 579 -336 821 -158
261 -254 374 -370 432 -61 31 -87 53 -186 164 -157 174 -272 283 -472 447 -94
76 -253 212 -355 302 -256 224 -343 296 -437 360 -80 55 -82 56 -177 64 -87 7
-106 13 -199 59 -57 27 -134 67 -173 88 -66 36 -75 38 -170 40 -55 1 -113 -2
-130 -6z"/>
<path d="M3695 7074 c-27 -8 -73 -19 -102 -26 -51 -12 -51 -12 0 -29 29 -10
92 -27 142 -39 140 -33 235 -81 235 -120 0 -29 -39 -31 -178 -8 -134 22 -134
22 -210 1 -42 -12 -107 -33 -144 -46 -67 -24 -67 -24 5 -41 92 -21 335 -53
498 -65 205 -15 328 -75 462 -224 40 -44 156 -164 258 -266 203 -202 264 -284
344 -454 63 -134 107 -289 150 -527 46 -251 72 -345 129 -458 87 -173 113
-322 56 -322 -13 0 -26 19 -46 73 -56 148 -94 203 -122 175 -42 -42 39 -287
103 -311 22 -9 66 -83 111 -184 21 -49 55 -113 76 -143 35 -51 38 -61 38 -124
0 -133 -99 -710 -185 -1081 -69 -299 -82 -336 -120 -354 -80 -37 -150 -155
-168 -282 -5 -37 -5 -37 74 47 74 79 119 146 119 177 0 19 20 36 37 30 26 -10
43 -61 44 -130 2 -124 7 -127 67 -34 80 123 91 155 117 339 13 92 39 266 58
387 20 121 48 310 62 420 41 316 48 338 127 451 33 47 48 133 48 279 0 240
-58 516 -177 830 -80 211 -125 276 -160 229 -27 -37 -15 -105 63 -348 83 -258
114 -427 117 -621 2 -92 -1 -117 -18 -150 -15 -31 -26 -40 -45 -40 -24 0 -25
4 -37 95 -7 52 -19 168 -28 257 -16 165 -20 184 -119 503 -40 128 -56 225 -56
333 0 88 -15 216 -36 317 -20 96 -162 457 -212 538 -53 88 -150 199 -277 316
-213 197 -297 261 -495 378 -74 44 -175 110 -225 148 -135 102 -174 120 -259
119 -39 0 -93 -7 -121 -15z"/>
<path d="M3443 6616 c-23 -7 -79 -31 -123 -52 -81 -38 -81 -38 -38 -51 24 -7
63 -13 88 -13 58 0 299 -35 420 -62 52 -11 167 -42 255 -69 113 -35 173 -49
205 -47 43 3 45 4 48 36 3 27 -3 39 -33 68 -81 76 -223 125 -495 169 -206 34
-275 38 -327 21z"/>
<path d="M3290 6350 c-30 -17 -58 -36 -62 -43 -17 -26 -8 -37 32 -37 62 0 411
-78 545 -121 146 -48 360 -152 438 -214 83 -66 110 -110 161 -263 48 -144 55
-182 33 -200 -23 -19 -55 13 -135 137 -41 64 -105 145 -141 181 -148 147 -380
262 -616 305 -49 9 -131 32 -181 51 -99 37 -166 43 -236 22 -39 -11 -39 -11
-6 -45 18 -19 80 -63 138 -98 123 -76 146 -96 196 -170 20 -31 89 -102 153
-159 382 -339 585 -626 712 -1004 166 -490 208 -1125 84 -1242 -21 -20 -27
-21 -40 -10 -14 12 -16 38 -9 219 4 135 3 249 -5 331 -29 300 -114 594 -256
885 -137 280 -256 436 -555 728 -111 109 -232 220 -268 247 -76 58 -102 62
-202 27 -65 -22 -65 -22 -30 -53 19 -18 85 -65 145 -105 71 -47 154 -116 234
-194 304 -295 463 -540 638 -985 145 -365 153 -404 163 -810 5 -168 13 -325
18 -350 23 -100 -38 -296 -174 -567 -50 -100 -95 -198 -98 -218 -7 -33 -6 -35
16 -26 13 5 57 19 98 31 59 17 83 30 110 59 38 40 133 213 195 351 21 47 73
161 117 253 104 221 121 284 121 452 -1 261 -49 657 -110 898 -88 352 -173
525 -381 771 -163 193 -313 329 -512 463 -87 59 -105 76 -96 99 16 42 174 -16
335 -123 134 -90 534 -502 594 -614 135 -249 224 -631 262 -1127 8 -112 24
-249 35 -305 11 -56 20 -121 20 -143 0 -114 -65 -332 -166 -558 -69 -152 -144
-286 -259 -461 -50 -78 -96 -154 -102 -170 -6 -17 -14 -38 -19 -49 -7 -17 -6
-18 17 -3 13 8 47 22 75 31 62 20 162 78 187 109 223 272 316 466 446 942 27
99 66 226 86 282 32 92 37 120 47 260 7 109 16 174 29 208 24 64 24 77 -5 193
-37 146 -41 199 -21 286 19 88 17 100 -62 456 -72 327 -137 503 -239 646 -52
74 -118 135 -244 224 -123 87 -179 115 -298 146 -53 14 -158 45 -232 69 -166
54 -300 88 -449 114 -159 29 -204 27 -271 -9z m1318 -600 c78 -80 159 -295
251 -665 42 -168 49 -214 73 -440 46 -451 29 -865 -36 -865 -32 0 -39 43 -47
305 -15 468 -62 753 -194 1165 -24 75 -51 176 -60 225 -10 50 -33 134 -52 188
-19 54 -32 104 -29 112 10 28 54 17 94 -25z"/>
<path d="M5323 6079 c-7 -7 -13 -32 -13 -54 0 -47 58 -170 136 -287 40 -60 55
-74 101 -95 202 -89 449 -540 603 -1101 48 -173 131 -555 166 -761 23 -135 24
-161 18 -351 -3 -115 -12 -236 -21 -275 -45 -218 -46 -221 -38 -311 8 -89 8
-89 21 -34 18 76 80 240 98 258 17 17 49 9 78 -21 20 -21 20 -21 12 -2 -4 11
-8 110 -9 219 0 155 3 203 14 213 18 18 31 6 85 -76 24 -36 53 -75 66 -86 23
-20 23 -20 17 43 -7 62 -53 181 -95 240 -33 46 -60 137 -118 397 -110 498
-182 742 -296 1009 -100 237 -253 519 -352 651 -62 82 -321 363 -370 400 -40
30 -86 41 -103 24z"/>
<path d="M3055 5603 c-27 -7 -73 -40 -84 -61 -8 -15 -3 -17 28 -17 49 -1 141
-66 239 -169 185 -195 375 -517 469 -794 37 -107 37 -107 44 -372 9 -318 22
-410 58 -430 28 -14 52 9 62 61 5 24 6 130 2 234 -5 167 -4 192 10 203 9 8 21
11 27 7 35 -21 63 -172 63 -330 0 -108 -3 -130 -32 -215 -17 -52 -43 -162 -57
-245 -31 -180 -69 -311 -134 -465 -26 -63 -51 -134 -54 -157 -6 -42 -6 -42 46
-37 75 8 142 31 166 57 24 26 92 193 122 298 29 106 38 167 50 329 5 80 14
201 19 269 11 139 1 290 -25 394 -9 37 -39 106 -66 153 -27 47 -78 161 -114
252 -146 372 -341 675 -577 899 -132 125 -188 154 -262 136z"/>
<path d="M5462 5545 c-16 -34 -15 -48 4 -117 13 -47 28 -69 78 -120 90 -92
179 -275 261 -535 55 -177 83 -314 119 -588 14 -99 38 -234 55 -299 64 -247
66 -451 6 -976 -21 -192 -33 -333 -29 -362 6 -46 6 -46 70 80 90 180 118 275
144 477 26 197 31 502 12 630 -21 138 -140 725 -171 846 -63 239 -171 514
-266 674 -60 102 -189 280 -218 300 -31 22 -52 19 -65 -10z"/>
<path d="M2952 5348 c17 -29 59 -87 93 -128 100 -122 133 -178 166 -282 16
-54 62 -162 103 -240 111 -219 147 -348 202 -728 19 -132 28 -237 29 -325 0
-120 -2 -134 -26 -185 -14 -30 -43 -79 -63 -109 -22 -33 -36 -65 -36 -85 0
-17 -4 -47 -9 -66 -8 -35 -8 -35 90 -35 81 0 100 3 118 19 30 27 88 216 102
328 11 91 11 98 -19 214 -36 140 -46 210 -67 439 -25 279 -63 401 -218 711
-95 189 -176 317 -266 415 -60 66 -103 89 -165 89 -15 0 -36 5 -47 10 -16 9
-13 1 13 -42z"/>
<path d="M2945 5000 c77 -100 166 -141 173 -80 3 31 -28 83 -64 107 -16 10
-55 20 -90 23 -62 5 -62 5 -19 -50z"/>
<path d="M3010 4743 c-8 -2 -24 -8 -35 -13 -11 -5 -28 -10 -38 -12 -14 -2 -3
-23 59 -108 92 -126 145 -230 179 -345 27 -93 75 -374 100 -580 18 -144 30
-199 51 -232 24 -39 47 -28 74 35 39 88 33 238 -21 567 -51 307 -130 512 -251
650 -40 45 -69 55 -118 38z"/>
<path d="M5186 4233 c-4 -4 -4 -88 0 -188 7 -206 4 -230 -77 -565 -89 -367
-151 -549 -255 -750 -60 -116 -89 -152 -182 -223 -69 -52 -133 -129 -162 -195
-11 -23 -16 -41 -12 -39 4 3 45 26 92 52 47 27 105 63 129 82 53 40 59 40 71
7 9 -23 -5 -99 -36 -199 -4 -10 34 21 83 70 86 86 94 97 163 240 127 265 185
440 258 780 91 420 106 599 64 748 -25 88 -45 131 -75 165 -20 22 -47 29 -61
15z"/>
<path d="M5786 3838 c-18 -29 -23 -62 -41 -298 -17 -215 -31 -342 -75 -655
-49 -354 -60 -446 -60 -519 0 -70 0 -70 33 -15 18 30 50 80 71 113 92 142 102
176 135 461 44 376 54 523 48 675 -6 146 -16 193 -48 234 -25 32 -44 33 -63 4z"/>
</g>
</svg>
