<?xml version="1.0" standalone="no"?>
<!DOCTYPE svg PUBLIC "-//W3C//DTD SVG 20010904//EN"
 "http://www.w3.org/TR/2001/REC-SVG-20010904/DTD/svg10.dtd">
<svg version="1.0" xmlns="http://www.w3.org/2000/svg"
 width="1000.000000pt" height="1000.000000pt" viewBox="0 0 1000.000000 1000.000000"
 preserveAspectRatio="xMidYMid meet">
<metadata>
  <rdf:RDF
    xmlns:rdf = "http://www.w3.org/1999/02/22-rdf-syntax-ns#"
    xmlns:rdfs = "http://www.w3.org/2000/01/rdf-schema#"
    xmlns:dc = "http://purl.org/dc/elements/1.1/"
    xmlns:cc = "http://creativecommons.org/ns#">
    <cc:license rdf:resource="http://creativecommons.org/publicdomain/zero/1.0/deed.en"/>
    <cc:permits rdf:resource="http://creativecommons.org/ns#Reproduction"/>
    <rdf:Description about="https://nft.mir.one/fingerprints"
      dc:title="TON Fingerprints"
      dc:description="This is a unique digital fingerprint created based on the algorithm for generating basic rings using a noise texture. Like human fingerprints, you can now use it for the Web3 and Metaverse era as digital biometric information."
      dc:publisher="https://nft.mir.one"
      dc:date="2022-02-22"
      dc:format="image/svg+xml"
      dc:language="en" >
      <dc:creator>
      <rdf:Bag>
        <rdf:li>EQBondcvD2_aOFADXSWJHs4ZazQDuEl9_wNvGGPxI8hGuOFU</rdf:li>
        <rdf:li>ipfs://bafkreihj7iub3fhmhq6jn62noukt5wxn3gv6bvcg7wmt6ywvlurefezckq</rdf:li>
      </rdf:Bag>
      </dc:creator>
    </rdf:Description>
  </rdf:RDF>
</metadata>
<rect width="100%" height="100%" fill="#1b1f23"/>
<g transform="translate(0.000000,1000.000000) scale(0.100000,-0.100000)"
fill="#ffffff" stroke="none">
<path d="M4825 7766 c14 -18 25 -35 25 -38 0 -10 69 -120 87 -140 31 -35 108
-67 200 -84 167 -31 248 -54 338 -99 105 -51 225 -145 309 -240 106 -120 286
-348 281 -355 -13 -21 -59 -20 -108 3 -52 25 -86 52 -272 219 -154 139 -274
218 -394 259 -100 35 -171 18 -171 -40 0 -42 30 -73 163 -168 202 -143 598
-453 667 -523 84 -84 142 -191 138 -252 -2 -30 -8 -44 -20 -46 -9 -2 -55 34
-111 86 -52 49 -153 131 -224 183 -220 159 -645 480 -716 541 -138 118 -160
123 -747 159 -102 6 -194 12 -205 13 -11 0 -95 -5 -188 -13 -167 -14 -167 -14
-118 -42 27 -16 58 -41 69 -57 14 -18 45 -38 89 -55 68 -27 70 -27 326 -27
269 0 366 -9 454 -42 82 -30 144 -117 96 -135 -9 -3 -46 2 -82 12 -86 24 -356
32 -473 15 -112 -16 -162 -35 -308 -117 -69 -38 -181 -98 -250 -132 -217 -110
-258 -138 -370 -250 -58 -58 -136 -143 -172 -187 -74 -92 -77 -93 96 22 292
194 730 413 941 470 85 23 158 32 436 53 92 7 129 14 177 36 60 27 61 27 110
11 82 -28 208 -109 428 -278 114 -88 220 -166 234 -173 14 -7 51 -18 83 -25
84 -17 117 -33 257 -123 135 -86 179 -124 241 -203 48 -63 92 -85 117 -60 21
21 23 128 4 301 -26 243 -53 340 -131 473 -48 84 -48 84 -29 120 28 53 18 114
-35 226 -121 255 -304 428 -550 521 -37 14 -143 43 -235 65 -209 50 -325 84
-414 121 -68 28 -68 28 -43 -5z"/>
<path d="M4430 7656 c62 -24 226 -67 300 -80 47 -8 80 14 64 41 -21 35 -118
55 -279 59 -150 4 -150 4 -85 -20z"/>
<path d="M4280 7484 c-52 -8 -131 -23 -176 -34 -45 -10 -105 -22 -134 -26 -53
-7 -53 -7 4 -25 83 -25 632 -63 727 -49 88 12 129 44 108 83 -16 28 -47 39
-163 53 -137 17 -242 16 -366 -2z"/>
<path d="M6119 7322 c19 -73 111 -296 216 -522 35 -74 66 -146 70 -159 4 -13
1 -59 -6 -102 -11 -72 -10 -96 10 -247 12 -92 27 -243 32 -337 5 -93 18 -237
29 -320 32 -245 39 -321 50 -540 9 -202 7 -235 -20 -235 -19 0 -62 58 -75 104
-9 28 -31 142 -50 253 -38 223 -52 285 -96 419 -38 116 -76 177 -127 203 -40
21 -120 82 -272 211 -193 163 -280 206 -296 146 -16 -65 60 -171 278 -389 148
-149 177 -184 230 -292 47 -93 70 -167 117 -370 22 -93 56 -228 76 -300 72
-260 54 -520 -51 -727 -34 -67 -118 -202 -156 -250 -55 -70 -91 -36 -63 58 8
27 42 99 76 159 106 190 116 237 95 459 -13 133 -22 176 -55 274 -22 64 -54
188 -71 274 -63 318 -135 456 -279 537 -50 29 -74 52 -139 140 -43 58 -119
167 -169 241 -112 168 -160 221 -279 311 -52 39 -107 87 -122 107 -61 82 -127
139 -187 163 -56 22 -73 24 -255 24 -332 0 -511 -43 -850 -202 -124 -59 -346
-185 -448 -256 -79 -54 -154 -141 -224 -259 -42 -71 -162 -337 -155 -344 2 -3
15 11 28 30 205 292 296 375 599 551 378 220 632 302 970 312 140 4 179 2 260
-15 156 -33 184 -52 141 -95 -21 -21 -32 -22 -309 -29 -230 -5 -306 -10 -383
-26 -194 -41 -397 -124 -555 -227 -48 -31 -137 -81 -198 -110 -88 -42 -124
-66 -175 -117 -166 -164 -243 -312 -293 -562 -19 -91 -23 -145 -22 -296 0
-213 12 -293 76 -488 22 -68 37 -130 34 -138 -10 -26 -51 -14 -115 32 -62 45
-62 45 -26 -13 20 -32 56 -78 79 -103 24 -25 64 -73 91 -107 52 -68 147 -136
277 -198 96 -46 126 -51 189 -30 48 16 67 17 237 4 143 -10 211 -10 296 -2
420 43 736 317 853 740 25 87 27 115 28 258 0 173 -10 231 -62 349 -153 347
-539 498 -935 366 -164 -55 -267 -118 -312 -189 -31 -50 -122 -284 -141 -362
-63 -267 72 -535 304 -603 63 -18 178 -21 235 -5 52 14 97 59 89 88 -6 25 -20
28 -136 34 -73 4 -99 10 -152 36 -115 57 -179 160 -179 291 1 139 62 229 194
279 203 79 363 59 481 -58 70 -71 94 -133 87 -230 -10 -131 -103 -337 -205
-450 -106 -120 -298 -159 -489 -100 -126 39 -251 147 -311 270 -58 120 -68
169 -67 329 0 128 4 155 28 235 32 106 91 233 170 364 48 82 56 102 56 145 0
177 222 331 576 403 69 14 133 17 284 17 368 -2 539 -59 700 -231 158 -168
219 -314 255 -603 36 -299 7 -550 -100 -859 -153 -438 -434 -740 -803 -860
-131 -43 -238 -55 -427 -47 -231 9 -368 34 -508 92 -55 23 -391 221 -484 286
-43 29 -128 64 -121 50 9 -21 111 -155 164 -217 93 -108 159 -156 296 -214
209 -90 354 -123 598 -136 63 -4 157 -15 209 -26 87 -17 98 -18 168 -3 170 35
399 137 538 241 103 77 238 219 308 325 102 154 159 287 246 570 124 406 137
508 95 790 -21 144 -19 220 6 243 19 17 21 17 39 1 24 -22 64 -121 97 -240 20
-71 27 -122 30 -236 5 -142 4 -147 -25 -225 -31 -84 -118 -350 -195 -595 -81
-258 -180 -432 -348 -606 -173 -180 -240 -222 -537 -339 -119 -46 -265 -112
-325 -146 -207 -114 -337 -139 -661 -122 -104 5 -192 8 -194 6 -20 -15 135
-101 256 -142 112 -38 309 -24 482 34 44 14 162 67 263 117 221 109 295 138
351 138 55 0 87 -21 68 -44 -7 -9 -18 -16 -23 -16 -5 0 -80 -41 -166 -92 -297
-175 -461 -247 -627 -278 -33 -6 -133 -14 -222 -17 -90 -3 -163 -9 -163 -13 0
-12 233 -90 313 -105 125 -24 219 -19 302 13 78 31 385 222 494 308 85 66 126
129 118 179 -5 33 -3 36 91 106 53 40 153 127 220 193 273 267 419 527 467
830 15 98 110 405 146 479 24 45 54 50 70 10 6 -16 9 -58 6 -95 -3 -54 -14
-87 -57 -177 -59 -125 -75 -210 -46 -246 16 -20 16 -20 35 2 10 13 33 58 51
100 38 93 57 118 77 102 45 -38 -48 -249 -110 -249 -20 0 -46 -56 -100 -216
-54 -157 -87 -224 -162 -329 -98 -137 -191 -239 -470 -520 -265 -267 -273
-274 -431 -377 -167 -109 -204 -143 -204 -186 0 -24 2 -25 49 -19 103 12 309
119 466 242 203 158 541 506 774 795 109 135 139 163 208 196 102 49 241 230
320 418 59 138 99 325 119 549 6 69 10 83 41 119 47 56 62 88 79 166 21 97 28
413 15 667 -18 349 -42 493 -122 736 -23 70 -39 134 -36 143 12 31 58 19 101
-27 53 -55 97 -139 140 -268 63 -186 71 -258 70 -584 -1 -419 -21 -630 -80
-839 -14 -49 -45 -173 -69 -276 -55 -237 -92 -348 -162 -481 -76 -148 -187
-291 -344 -444 -74 -72 -206 -211 -294 -310 -196 -221 -449 -476 -573 -578
-215 -178 -424 -288 -572 -303 -47 -5 -62 -2 -104 20 -48 27 -48 27 -170 1
-106 -22 -184 -43 -236 -62 -27 -10 382 -62 495 -62 124 -1 255 22 353 62 197
79 476 315 801 677 96 107 243 265 325 350 82 85 181 193 220 240 100 120 239
315 285 402 80 148 175 487 223 798 20 130 22 184 22 520 1 417 -5 482 -69
714 -72 263 -129 371 -359 685 -97 132 -216 302 -265 378 -83 131 -138 213
-146 221 -2 2 5 -28 14 -66z m-2544 -1482 c12 -19 -16 -87 -81 -195 -158 -262
-217 -423 -230 -625 -19 -285 106 -592 291 -714 184 -123 474 -150 696 -67
178 67 335 232 411 432 31 80 32 91 33 224 0 124 -3 147 -24 198 -51 129 -169
241 -296 282 -46 15 -88 20 -180 20 -113 0 -127 -2 -236 -39 -64 -22 -123 -37
-132 -33 -70 27 81 140 241 182 329 84 646 -69 748 -363 56 -163 55 -323 -6
-504 -40 -121 -95 -213 -184 -305 -81 -86 -157 -141 -260 -188 -113 -52 -185
-67 -351 -72 -384 -13 -638 87 -734 291 -46 97 -119 317 -137 413 -12 66 -15
123 -11 228 5 152 22 235 77 372 93 235 324 529 365 463z"/>
<path d="M3730 7085 c-25 -7 -79 -26 -120 -43 -75 -31 -75 -31 -10 -32 105 0
214 36 208 68 -4 22 -23 23 -78 7z"/>
<path d="M3808 6965 c-125 -46 -231 -117 -423 -285 -52 -45 -102 -88 -112 -95
-39 -29 118 36 218 90 57 32 161 86 230 120 127 64 181 101 200 137 24 44 -36
61 -113 33z"/>
<path d="M4380 5993 c-249 -24 -429 -89 -547 -197 -85 -77 -105 -136 -48 -136
15 0 79 25 144 55 168 77 239 95 402 102 84 4 162 1 205 -6 335 -57 564 -284
636 -631 28 -135 21 -373 -15 -511 -128 -490 -460 -800 -922 -860 -107 -14
-304 -6 -420 17 -44 9 -110 18 -147 21 -67 5 -68 5 -68 -19 0 -77 182 -148
437 -169 379 -31 683 72 927 316 234 233 377 573 411 970 8 95 -11 288 -40
400 -48 191 -103 292 -225 416 -71 72 -101 93 -180 132 -113 56 -214 83 -359
97 -104 10 -122 10 -191 3z"/>
<path d="M4049 5124 c-131 -40 -200 -183 -144 -294 32 -62 112 -110 185 -110
116 0 167 84 95 156 -29 29 -65 31 -88 4 -20 -24 -45 -16 -53 17 -15 59 46
109 124 100 31 -3 63 -18 103 -46 32 -23 67 -41 77 -41 57 0 52 79 -10 146
-69 75 -181 102 -289 68z"/>
<path d="M7092 4960 c0 -14 2 -19 5 -12 2 6 2 18 0 25 -3 6 -5 1 -5 -13z"/>
<path d="M7082 4870 c0 -19 2 -27 5 -17 2 9 2 25 0 35 -3 9 -5 1 -5 -18z"/>
<path d="M7056 4732 c-39 -204 -167 -636 -218 -737 -12 -22 -55 -74 -97 -115
-42 -42 -105 -118 -140 -169 -90 -132 -186 -243 -356 -411 -81 -80 -181 -185
-223 -235 -321 -380 -522 -562 -871 -788 -74 -48 -129 -87 -123 -87 5 0 57 16
114 36 350 121 728 388 903 639 84 121 215 265 319 354 160 136 236 236 351
462 35 69 70 131 77 137 20 16 68 2 78 -22 7 -15 9 -7 9 34 1 35 16 107 42
190 56 186 95 349 123 520 25 145 42 290 35 290 -2 0 -12 -44 -23 -98z"/>
<path d="M3278 3460 c26 -21 80 -65 120 -98 118 -96 268 -180 354 -198 101
-22 340 -22 433 0 120 28 170 71 126 108 -21 16 -43 18 -206 18 -116 0 -213 5
-267 15 -93 16 -257 70 -418 138 -58 24 -124 46 -147 49 -42 6 -42 6 5 -32z"/>
<path d="M6465 3158 c-54 -28 -244 -220 -294 -297 -45 -70 -60 -123 -41 -146
16 -20 49 1 42 27 -6 23 21 58 190 244 126 139 181 182 198 155 6 -11 9 -11
15 -1 10 16 -21 40 -49 40 -12 -1 -39 -10 -61 -22z"/>
<path d="M3480 3115 c50 -27 81 -31 111 -14 16 8 18 13 8 25 -8 10 -33 14 -88
14 -76 -1 -76 -1 -31 -25z"/>
<path d="M3758 2723 c7 -3 16 -2 19 1 4 3 -2 6 -13 5 -11 0 -14 -3 -6 -6z"/>
<path d="M6035 2589 c-156 -142 -161 -150 -17 -35 73 58 137 106 143 106 5 0
7 5 4 10 -12 20 -32 8 -130 -81z"/>
</g>
</svg>
