<?xml version="1.0" standalone="no"?>
<!DOCTYPE svg PUBLIC "-//W3C//DTD SVG 20010904//EN"
 "http://www.w3.org/TR/2001/REC-SVG-20010904/DTD/svg10.dtd">
<svg version="1.0" xmlns="http://www.w3.org/2000/svg"
 width="1000.000000pt" height="1000.000000pt" viewBox="0 0 1000.000000 1000.000000"
 preserveAspectRatio="xMidYMid meet">
<metadata>
  <rdf:RDF
    xmlns:rdf = "http://www.w3.org/1999/02/22-rdf-syntax-ns#"
    xmlns:rdfs = "http://www.w3.org/2000/01/rdf-schema#"
    xmlns:dc = "http://purl.org/dc/elements/1.1/"
    xmlns:cc = "http://creativecommons.org/ns#">
    <cc:license rdf:resource="http://creativecommons.org/publicdomain/zero/1.0/deed.en"/>
    <cc:permits rdf:resource="http://creativecommons.org/ns#Reproduction"/>
    <rdf:Description about="https://nft.mir.one/fingerprints"
      dc:title="TON Fingerprints"
      dc:description="This is a unique digital fingerprint created based on the algorithm for generating basic rings using a noise texture. Like human fingerprints, you can now use it for the Web3 and Metaverse era as digital biometric information."
      dc:publisher="https://nft.mir.one"
      dc:date="2022-02-22"
      dc:format="image/svg+xml"
      dc:language="en" >
      <dc:creator>
      <rdf:Bag>
        <rdf:li>EQBondcvD2_aOFADXSWJHs4ZazQDuEl9_wNvGGPxI8hGuOFU</rdf:li>
        <rdf:li>ipfs://bafkreihj7iub3fhmhq6jn62noukt5wxn3gv6bvcg7wmt6ywvlurefezckq</rdf:li>
      </rdf:Bag>
      </dc:creator>
    </rdf:Description>
  </rdf:RDF>
</metadata>
<rect width="100%" height="100%" fill="#1b1f23"/>
<g transform="translate(0.000000,1000.000000) scale(0.100000,-0.100000)"
fill="#ffffff" stroke="none">
<path d="M4996 7792 c28 -16 66 -40 85 -54 47 -36 302 -122 455 -154 127 -26
139 -27 264 -6 45 8 45 8 3 15 -23 4 -113 29 -200 56 -87 28 -199 61 -250 75
-84 24 -389 96 -402 96 -3 0 17 -13 45 -28z"/>
<path d="M4514 7601 c-70 -11 -120 -29 -179 -62 -56 -31 -296 -127 -422 -168
-81 -27 -81 -27 -10 -39 40 -6 124 -13 188 -16 104 -4 128 -9 240 -47 130 -45
175 -49 370 -39 47 2 67 -3 130 -33 91 -44 203 -128 245 -184 18 -23 49 -85
69 -138 75 -192 208 -443 342 -645 159 -240 192 -296 380 -635 210 -377 189
-326 197 -500 3 -82 9 -197 12 -255 4 -62 1 -136 -5 -180 -7 -41 -16 -226 -21
-410 -11 -417 -34 -608 -114 -945 -19 -77 -42 -189 -51 -250 -35 -229 -138
-411 -364 -650 -185 -194 -179 -185 -76 -122 145 90 238 163 339 267 157 162
204 252 270 520 68 277 121 650 134 953 4 95 5 341 1 547 -6 331 -9 385 -28
464 -12 50 -21 100 -21 113 0 52 55 10 90 -70 47 -106 55 -192 76 -827 7 -209
0 -333 -42 -730 -42 -402 -69 -511 -217 -869 -31 -73 -52 -130 -48 -125 23 26
134 179 181 249 70 104 174 308 200 393 17 53 23 112 30 282 5 118 19 316 30
440 24 246 22 308 -11 520 -15 96 -22 192 -24 330 -2 171 -5 204 -25 265 -29
90 -69 169 -139 275 -81 121 -123 201 -208 395 -98 226 -152 314 -372 605
-101 135 -193 264 -203 288 -24 54 -21 96 8 100 17 2 57 -35 177 -165 275
-298 413 -472 468 -588 16 -33 36 -98 45 -145 22 -119 58 -206 168 -403 108
-196 123 -226 183 -392 31 -85 53 -129 77 -155 45 -47 62 -83 86 -182 22 -92
27 -233 8 -244 -20 -13 -46 35 -63 114 -38 184 -55 247 -75 267 -21 20 -21 20
-36 1 -33 -45 -7 -272 47 -419 40 -106 47 -202 24 -321 -21 -114 -55 -466 -55
-574 0 -86 14 -136 44 -161 15 -13 19 -13 27 0 5 8 6 28 3 44 -3 18 9 89 31
175 25 103 39 185 46 285 5 77 14 157 20 178 19 71 59 36 80 -71 11 -61 8
-342 -5 -402 -3 -14 1 -5 9 20 26 76 65 265 71 341 6 67 3 85 -30 184 -47 145
-52 197 -32 325 30 186 8 288 -131 615 -100 234 -103 240 -244 500 -112 207
-143 285 -121 307 22 22 62 -13 127 -112 125 -188 210 -348 304 -568 142 -331
170 -450 175 -749 3 -159 8 -223 21 -271 10 -34 19 -61 21 -59 2 2 10 81 19
177 27 307 16 569 -31 740 -59 217 -229 552 -413 815 -43 61 -90 133 -106 160
-31 55 -453 488 -618 633 -132 116 -195 157 -280 183 -61 18 -79 29 -127 78
-86 88 -106 144 -55 157 31 8 75 -13 228 -105 175 -105 254 -165 492 -370 267
-231 389 -322 514 -383 156 -77 205 -120 389 -342 35 -42 65 -76 67 -76 16 0
-128 281 -192 377 -95 142 -156 200 -291 276 -129 72 -220 137 -482 346 -91
72 -250 191 -354 264 -214 149 -258 189 -303 268 -17 31 -45 68 -63 82 -52 44
-444 236 -523 256 -87 23 -223 32 -293 22z m39 -133 c78 -23 140 -113 90 -132
-19 -8 -154 35 -201 64 -18 11 -36 27 -39 37 -15 38 68 56 150 31z"/>
<path d="M5775 7430 c-16 -26 32 -73 182 -176 87 -59 229 -163 317 -229 87
-66 192 -144 235 -173 42 -30 89 -66 106 -80 81 -74 -117 137 -230 244 -202
191 -378 325 -522 398 -56 28 -78 32 -88 16z"/>
<path d="M5499 7351 c-24 -19 -24 -19 -5 -55 13 -24 64 -69 159 -138 154 -114
503 -376 697 -523 164 -126 212 -149 315 -154 67 -3 85 -7 113 -29 34 -26 34
-26 4 19 -17 25 -34 58 -38 73 -7 29 -7 29 -23 8 -15 -21 -18 -21 -61 -6 -34
12 -77 47 -180 147 -131 128 -206 188 -686 541 -187 138 -242 160 -295 117z"/>
<path d="M3920 7149 c-91 -14 -209 -63 -352 -146 -68 -39 -68 -39 115 -35 226
5 356 -14 574 -86 316 -104 489 -222 690 -469 172 -212 384 -571 444 -753 17
-52 23 -105 30 -265 10 -233 30 -439 66 -690 34 -243 42 -538 19 -722 -18
-138 -60 -313 -103 -428 -66 -177 -204 -408 -377 -630 -101 -130 -140 -197
-131 -225 15 -46 68 -16 182 103 149 156 323 400 415 580 90 179 150 428 170
699 14 193 4 344 -37 578 -35 200 -55 407 -57 580 -2 125 0 151 15 173 10 15
24 27 33 27 33 0 46 -68 55 -275 9 -231 26 -360 68 -534 17 -69 36 -175 42
-235 21 -202 -9 -547 -65 -768 -59 -228 -111 -329 -311 -593 -202 -267 -326
-384 -452 -426 -107 -35 -211 -148 -189 -205 10 -26 74 -12 169 36 215 110
371 247 569 505 67 87 136 166 165 187 77 58 129 170 184 392 59 244 71 358
76 741 5 350 5 350 29 378 35 41 38 63 31 241 -10 250 -34 358 -88 386 -33 18
-48 6 -43 -37 2 -21 16 -157 29 -302 14 -145 27 -267 30 -270 2 -4 0 -13 -5
-21 -7 -11 -14 -12 -27 -4 -45 27 -72 135 -93 373 -13 149 -9 201 20 249 11
18 20 42 20 53 0 35 -57 142 -111 210 -30 37 -90 141 -144 249 -89 176 -158
292 -399 675 -299 474 -384 534 -926 664 -144 35 -265 49 -330 40z"/>
<path d="M3580 6819 c-70 -21 -127 -22 -122 -1 3 19 -26 14 -37 -6 -14 -27 8
-64 51 -85 21 -10 100 -29 177 -43 157 -27 243 -56 328 -110 32 -20 131 -72
220 -115 89 -43 195 -99 235 -125 175 -112 322 -262 454 -459 155 -234 228
-442 298 -860 162 -960 71 -1405 -418 -2050 -108 -142 -240 -283 -305 -324
-25 -16 -68 -35 -96 -41 -95 -20 -203 -63 -246 -97 -43 -34 -43 -34 6 -28 28
3 97 7 155 8 101 2 105 1 108 -20 4 -25 -21 -77 -50 -110 -19 -20 -16 -20 48
7 132 54 169 72 199 94 33 26 159 208 224 326 23 41 87 138 142 215 220 307
325 512 389 761 50 194 63 320 57 579 -4 201 -11 281 -56 630 -73 565 -84 618
-176 813 -138 292 -396 608 -615 753 -221 147 -539 269 -775 298 -113 14 -116
14 -195 -10z"/>
<path d="M3433 6555 c-41 -18 -145 -88 -163 -111 -8 -9 -36 -34 -62 -55 -47
-37 -47 -37 -6 -41 23 -2 78 4 123 14 49 12 160 23 285 29 231 12 276 20 285
50 17 53 -93 97 -297 119 -121 13 -126 12 -165 -5z"/>
<path d="M3880 6287 c-3 -3 -68 -10 -145 -17 -159 -13 -232 -26 -360 -65 -88
-27 -91 -29 -180 -119 -50 -50 -111 -114 -135 -143 -46 -52 -46 -52 -10 -55
19 -2 60 3 90 11 30 8 98 15 150 15 84 1 103 -2 158 -27 34 -16 149 -50 255
-76 292 -73 446 -150 587 -291 86 -85 120 -153 120 -238 0 -61 3 -70 70 -186
110 -190 172 -366 215 -606 22 -127 31 -413 16 -521 -35 -245 -123 -449 -298
-692 -97 -135 -114 -179 -73 -192 84 -27 314 270 421 545 86 218 114 400 106
668 -10 314 -66 563 -208 920 -116 290 -208 424 -379 551 -175 130 -348 188
-638 212 -151 13 -185 24 -166 56 48 82 378 94 604 21 150 -48 288 -138 414
-268 181 -188 300 -429 401 -815 62 -235 87 -404 92 -645 6 -239 -7 -366 -53
-539 -96 -354 -332 -710 -534 -802 -41 -19 -111 -53 -155 -77 -44 -24 -145
-75 -225 -114 -80 -40 -157 -82 -172 -94 -27 -21 -27 -21 81 -34 138 -16 221
-4 335 49 223 103 378 243 548 496 182 270 285 547 319 860 35 329 -39 898
-168 1284 -142 426 -428 755 -777 893 -70 27 -96 32 -191 36 -60 2 -112 2
-115 -1z"/>
<path d="M6527 5983 c-19 -18 -1 -60 60 -140 169 -224 315 -484 398 -708 39
-107 105 -265 105 -252 0 4 -18 96 -39 206 -58 290 -139 524 -227 657 -47 70
-144 177 -198 216 -36 26 -84 37 -99 21z"/>
<path d="M3178 5720 c-48 -14 -88 -50 -164 -149 -74 -96 -74 -96 -44 -99 17
-2 69 7 118 20 114 30 359 32 492 5 192 -40 373 -110 558 -215 125 -71 212
-89 212 -44 0 31 -55 106 -114 158 -87 76 -227 159 -341 203 -240 95 -603 156
-717 121z"/>
<path d="M3165 5339 c-69 -10 -95 -26 -150 -96 -42 -53 -107 -154 -103 -159 2
-1 40 10 86 26 139 47 205 47 263 1 21 -16 48 -19 199 -24 253 -7 485 -56 595
-125 149 -93 242 -230 299 -437 112 -410 128 -539 87 -690 -59 -214 -262 -523
-445 -677 -67 -57 -196 -129 -291 -164 -27 -10 -65 -28 -84 -40 -34 -23 -34
-23 -5 -30 16 -3 54 -13 84 -20 30 -8 85 -14 123 -14 61 0 78 5 146 40 118 62
189 123 240 210 24 41 81 132 127 202 149 227 215 372 248 548 50 260 -27 731
-155 958 -84 150 -153 209 -361 312 -211 104 -399 159 -615 180 -124 11 -203
11 -288 -1z"/>
<path d="M3130 5027 c-47 -19 -61 -31 -96 -84 -25 -36 -56 -105 -77 -168 -36
-106 -36 -106 11 -67 26 22 56 50 67 62 11 13 58 55 105 94 47 38 91 77 98 86
25 30 42 69 36 84 -9 23 -78 20 -144 -7z"/>
<path d="M3842 4878 c-23 -23 -12 -65 34 -133 136 -199 153 -333 64 -511 -76
-151 -193 -267 -317 -314 -80 -31 -186 -31 -268 0 -74 29 -160 111 -198 190
-70 145 -44 317 62 413 44 40 78 53 110 42 33 -10 25 -39 -36 -133 -50 -77
-57 -94 -61 -149 -5 -78 20 -135 85 -193 185 -163 479 -14 525 266 18 109 -25
233 -130 373 -90 119 -189 148 -334 97 -76 -27 -223 -120 -262 -167 -64 -76
-94 -291 -61 -450 21 -105 61 -202 123 -299 103 -161 135 -183 267 -183 216 0
386 111 575 376 46 65 98 131 115 146 56 49 65 70 65 146 0 142 -62 296 -160
396 -79 80 -166 119 -198 87z m-254 -398 c107 -65 94 -243 -21 -299 -77 -37
-147 -23 -204 42 -43 49 -57 127 -23 127 5 0 29 -20 53 -45 36 -36 52 -45 80
-45 19 0 40 7 47 15 15 18 6 45 -14 45 -35 0 -48 87 -21 140 23 45 53 51 103
20z"/>
<path d="M4182 4166 c-16 -18 -64 -86 -106 -150 -193 -293 -400 -429 -671
-442 -55 -3 -123 -10 -151 -16 -52 -11 -52 -11 15 -56 139 -94 205 -112 299
-81 159 52 285 133 405 258 86 90 143 173 207 301 23 47 56 103 72 126 26 36
28 44 17 67 -17 38 -50 35 -87 -7z"/>
<path d="M4290 4058 c-97 -385 -388 -693 -745 -789 -44 -12 -99 -31 -121 -42
-41 -21 -41 -21 52 -53 51 -18 117 -35 146 -39 51 -6 59 -4 149 42 52 26 122
69 155 95 126 97 285 291 361 442 68 134 97 282 70 349 -23 53 -53 51 -67 -5z"/>
<path d="M6624 3258 c-19 -22 -48 -98 -40 -106 2 -2 9 13 16 33 6 19 23 49 37
65 29 35 16 41 -13 8z"/>
<path d="M5694 3038 c-17 -18 -61 -79 -98 -134 -84 -128 -205 -270 -299 -353
-147 -130 -349 -244 -471 -266 -41 -7 -141 -53 -134 -61 8 -8 241 26 314 46
166 45 346 143 457 248 173 166 346 478 297 537 -19 22 -33 19 -66 -17z"/>
</g>
</svg>
