<?xml version="1.0" standalone="no"?>
<!DOCTYPE svg PUBLIC "-//W3C//DTD SVG 20010904//EN"
 "http://www.w3.org/TR/2001/REC-SVG-20010904/DTD/svg10.dtd">
<svg version="1.0" xmlns="http://www.w3.org/2000/svg"
 width="1000.000000pt" height="1000.000000pt" viewBox="0 0 1000.000000 1000.000000"
 preserveAspectRatio="xMidYMid meet">
<metadata>
  <rdf:RDF
    xmlns:rdf = "http://www.w3.org/1999/02/22-rdf-syntax-ns#"
    xmlns:rdfs = "http://www.w3.org/2000/01/rdf-schema#"
    xmlns:dc = "http://purl.org/dc/elements/1.1/"
    xmlns:cc = "http://creativecommons.org/ns#">
    <cc:license rdf:resource="http://creativecommons.org/publicdomain/zero/1.0/deed.en"/>
    <cc:permits rdf:resource="http://creativecommons.org/ns#Reproduction"/>
    <rdf:Description about="https://nft.mir.one/fingerprints"
      dc:title="TON Fingerprints"
      dc:description="This is a unique digital fingerprint created based on the algorithm for generating basic rings using a noise texture. Like human fingerprints, you can now use it for the Web3 and Metaverse era as digital biometric information."
      dc:publisher="https://nft.mir.one"
      dc:date="2022-02-22"
      dc:format="image/svg+xml"
      dc:language="en" >
      <dc:creator>
      <rdf:Bag>
        <rdf:li>EQBondcvD2_aOFADXSWJHs4ZazQDuEl9_wNvGGPxI8hGuOFU</rdf:li>
        <rdf:li>ipfs://bafkreihj7iub3fhmhq6jn62noukt5wxn3gv6bvcg7wmt6ywvlurefezckq</rdf:li>
      </rdf:Bag>
      </dc:creator>
    </rdf:Description>
  </rdf:RDF>
</metadata>
<rect width="100%" height="100%" fill="#1b1f23"/>
<g transform="translate(0.000000,1000.000000) scale(0.100000,-0.100000)"
fill="#ffffff" stroke="none">
<path d="M5078 7813 c6 -2 18 -2 25 0 6 3 1 5 -13 5 -14 0 -19 -2 -12 -5z"/>
<path d="M5148 7803 c6 -2 18 -2 25 0 6 3 1 5 -13 5 -14 0 -19 -2 -12 -5z"/>
<path d="M5290 7775 c58 -14 150 -38 205 -54 54 -17 101 -28 103 -26 10 9
-286 90 -368 100 -25 3 2 -6 60 -20z"/>
<path d="M4665 7613 c-212 -27 -441 -98 -678 -209 -168 -79 -168 -79 -109 -82
41 -2 134 12 294 43 347 69 470 85 645 85 185 0 338 -24 503 -79 358 -120 626
-332 1216 -963 63 -67 96 -94 150 -121 77 -38 177 -99 213 -131 41 -37 -305
439 -415 570 -181 215 -482 506 -618 598 -209 141 -473 241 -741 281 -91 14
-377 19 -460 8z"/>
<path d="M4688 7285 c-43 -7 -129 -29 -192 -49 -164 -52 -261 -73 -436 -95
-182 -23 -199 -29 -367 -117 -277 -144 -256 -131 -215 -139 20 -4 141 -8 267
-8 230 -2 230 -2 310 -35 55 -23 107 -36 170 -43 126 -14 148 -21 255 -85 120
-71 198 -103 494 -204 374 -127 487 -184 660 -329 231 -195 427 -519 510 -846
48 -193 60 -315 60 -630 1 -447 -20 -597 -131 -945 -115 -363 -196 -556 -322
-769 -121 -205 -281 -397 -395 -476 -52 -36 -60 -38 -138 -39 -77 -2 -95 -7
-263 -73 -99 -38 -230 -87 -292 -109 -61 -21 -110 -40 -109 -42 2 -1 65 4 139
13 143 17 327 62 462 114 97 38 115 39 115 7 0 -36 -33 -71 -133 -137 -51 -34
-85 -59 -77 -56 68 23 232 93 260 110 65 38 254 184 305 233 147 143 337 463
443 749 23 61 64 184 91 275 57 192 57 191 110 302 45 94 62 178 80 413 36
445 38 840 7 1030 -42 250 -169 543 -343 788 -75 106 -257 288 -355 355 -110
75 -182 106 -358 152 -242 64 -519 149 -590 182 -98 44 -150 104 -105 122 17
6 334 -66 530 -120 72 -20 162 -39 200 -41 61 -5 72 -3 88 15 17 19 18 22 2
45 -37 57 -273 151 -458 183 -85 15 -154 15 -337 2 -26 -2 -35 1 -38 15 -6 29
26 67 72 88 148 65 426 35 641 -70 104 -51 149 -92 188 -171 33 -66 35 -68
194 -183 279 -202 483 -442 628 -742 132 -271 198 -461 210 -601 8 -87 -7
-464 -30 -754 -23 -297 -37 -600 -30 -644 4 -23 16 -79 28 -126 17 -71 21
-117 21 -275 0 -185 -1 -193 -33 -310 -18 -66 -41 -154 -51 -195 -10 -41 -21
-84 -25 -95 -11 -36 77 137 132 260 30 66 66 158 80 205 24 83 25 89 16 265
-4 99 -8 326 -8 505 1 284 3 342 22 460 12 74 25 180 28 235 8 143 35 356 49
385 7 16 19 25 35 25 19 0 31 -14 62 -68 22 -38 68 -97 103 -130 35 -34 71
-77 80 -95 20 -38 92 -135 84 -112 -3 8 -17 58 -32 110 -30 106 -86 244 -124
305 -14 22 -55 68 -93 103 -65 60 -73 72 -187 300 -66 130 -141 291 -166 357
-67 173 -96 230 -166 324 -154 207 -609 625 -833 765 -225 140 -543 204 -799
161z"/>
<path d="M6239 7253 c10 -16 41 -48 67 -73 39 -37 36 -33 -16 28 -67 75 -85
91 -51 45z"/>
<path d="M6360 7137 c0 -2 15 -16 33 -33 32 -29 32 -29 3 4 -28 30 -36 37 -36
29z"/>
<path d="M3793 6701 c-97 -27 -144 -53 -217 -120 -34 -31 -89 -72 -124 -91
-55 -31 -62 -38 -62 -65 0 -23 -14 -45 -62 -95 -118 -124 -271 -393 -333 -584
-34 -107 -31 -115 12 -26 32 67 61 99 287 328 269 272 301 298 537 431 182
102 238 166 190 215 -30 29 -133 32 -228 7z"/>
<path d="M3409 6671 c-24 -16 -75 -61 -114 -101 -56 -58 -65 -71 -45 -66 14 3
35 6 47 6 20 0 72 39 176 131 67 60 18 83 -64 30z"/>
<path d="M4314 6476 c-36 -16 -74 -61 -74 -87 0 -29 62 -86 107 -98 23 -7 104
-23 178 -36 407 -72 693 -209 920 -439 247 -249 374 -533 437 -981 8 -55 13
-192 13 -355 -1 -230 -4 -282 -23 -392 -59 -330 -159 -580 -380 -952 -163
-273 -245 -351 -494 -470 -235 -113 -425 -165 -661 -182 -54 -3 -122 -14 -152
-23 -55 -17 -55 -17 94 -36 171 -21 368 -17 464 9 77 21 458 170 522 204 28
15 91 67 140 117 293 292 575 930 647 1465 17 128 17 623 0 750 -70 508 -278
891 -623 1147 -135 101 -319 186 -598 277 -279 92 -436 117 -517 82z"/>
<path d="M3945 6306 c-179 -57 -437 -278 -509 -437 -14 -30 -29 -88 -35 -129
-5 -41 -21 -138 -36 -215 -46 -241 -38 -403 31 -630 40 -128 40 -135 15 -135
-52 0 -124 142 -174 340 -31 125 -29 298 6 450 41 180 41 183 20 209 -14 17
-25 22 -41 17 -78 -25 -146 -248 -146 -476 0 -124 1 -127 48 -260 88 -251 133
-319 306 -464 101 -84 184 -133 285 -167 60 -21 89 -24 210 -24 119 0 151 4
215 23 111 35 221 93 350 186 63 46 130 91 148 100 42 22 76 18 80 -9 5 -42
-37 -84 -170 -172 -257 -168 -395 -221 -608 -230 -196 -9 -366 37 -508 137
-182 128 -294 289 -377 540 -37 114 -57 150 -80 150 -9 0 -10 -11 -4 -42 5
-24 15 -86 23 -138 43 -272 147 -481 298 -595 145 -110 307 -164 515 -172 285
-12 518 60 752 231 106 78 127 87 137 61 14 -36 -95 -152 -206 -220 -76 -46
-159 -80 -285 -117 -172 -50 -261 -61 -440 -55 -197 7 -273 25 -441 107 -162
79 -217 129 -262 238 -18 44 -56 111 -84 149 -28 37 -48 61 -45 53 3 -8 21
-55 40 -105 49 -128 53 -149 27 -173 -19 -18 -19 -20 -4 -33 10 -8 33 -38 51
-67 19 -29 62 -81 96 -116 70 -71 149 -109 316 -154 85 -22 116 -25 271 -26
190 0 258 9 456 64 296 83 371 118 479 224 81 80 107 127 149 272 32 112 35
136 42 305 8 218 -2 283 -71 469 -48 127 -57 193 -29 204 24 9 57 -16 119 -91
112 -136 198 -360 212 -554 9 -135 1 -168 -64 -246 -30 -38 -73 -104 -95 -148
-93 -184 -196 -307 -349 -414 -69 -49 -77 -52 -119 -46 -37 5 -74 -3 -209 -45
-196 -62 -317 -86 -486 -99 -208 -16 -351 7 -550 88 -50 21 -107 40 -126 43
-34 6 -30 1 77 -102 61 -60 129 -117 150 -128 100 -50 240 -57 474 -23 257 37
444 93 608 182 77 41 97 42 86 6 -10 -33 -33 -56 -97 -98 -117 -76 -293 -135
-527 -175 -80 -14 -178 -37 -218 -51 -62 -22 -83 -25 -145 -20 -39 3 -103 15
-142 28 -38 12 -95 27 -126 33 -56 12 -56 12 -1 -38 156 -144 252 -205 377
-241 121 -35 251 -42 375 -21 363 63 694 256 927 540 132 161 163 185 163 125
0 -77 -139 -268 -282 -389 -208 -176 -497 -317 -758 -370 -134 -27 -332 -27
-472 0 -57 11 -123 20 -147 20 -45 0 -45 0 45 -57 49 -31 121 -71 159 -87 65
-29 78 -31 190 -31 76 0 151 7 205 18 315 67 697 261 910 463 162 155 235 276
270 449 25 121 73 282 95 313 20 28 41 28 56 0 25 -47 -25 -324 -86 -476 -104
-258 -349 -481 -740 -672 -305 -149 -552 -220 -772 -220 -28 0 -74 -5 -102
-12 -50 -11 -50 -11 46 -44 131 -46 237 -67 298 -59 120 15 485 166 730 302
156 87 362 231 440 308 241 236 379 675 291 926 -15 41 -49 185 -76 320 -27
135 -63 290 -81 345 -77 243 -210 434 -357 512 -45 24 -81 35 -143 42 -46 5
-109 16 -139 25 -64 18 -104 12 -125 -18 -23 -33 -18 -76 25 -235 70 -254 73
-347 14 -464 -35 -70 -217 -250 -304 -301 -219 -127 -470 -115 -640 31 -69 58
-86 99 -116 282 -34 209 -31 392 9 530 73 256 160 391 354 546 54 43 122 97
151 121 71 56 90 82 98 131 13 79 -61 113 -171 78z m1220 -1786 c14 -15 17
-32 13 -82 -6 -88 -90 -262 -155 -322 -25 -22 -131 -124 -237 -226 -251 -244
-377 -328 -609 -405 -182 -61 -394 -83 -472 -50 -34 13 -54 39 -42 52 4 3 62
11 131 18 163 17 268 39 390 82 205 71 275 120 519 362 109 108 219 223 244
256 40 52 99 165 156 298 19 41 35 46 62 17z"/>
<path d="M6622 6178 c-7 -7 -12 -31 -12 -55 0 -52 62 -176 196 -393 111 -180
176 -268 224 -303 37 -26 37 -26 -32 151 -98 253 -216 488 -276 551 -50 53
-81 68 -100 49z"/>
<path d="M4380 6063 c-47 -8 -95 -26 -123 -47 -56 -41 -85 -119 -54 -144 27
-23 130 -43 267 -53 80 -6 188 -19 240 -29 419 -79 684 -382 803 -920 79 -354
101 -681 59 -877 -55 -253 -174 -492 -314 -630 -81 -79 -393 -269 -663 -404
-132 -66 -278 -140 -325 -164 -60 -32 -118 -52 -200 -70 -118 -27 -231 -58
-226 -62 10 -11 224 -43 312 -48 60 -3 152 -10 204 -17 81 -9 108 -8 178 6
241 49 547 201 679 338 66 70 88 105 98 161 5 23 44 94 100 176 152 229 231
402 290 636 46 183 59 319 52 549 -28 889 -373 1398 -1062 1570 -54 14 -251
38 -279 35 -6 -1 -22 -4 -36 -6z m857 -2929 c6 -19 -97 -112 -206 -186 -132
-88 -295 -167 -464 -224 -140 -47 -197 -55 -197 -29 0 27 45 59 141 100 52 21
144 62 204 90 102 48 145 72 375 214 61 37 93 51 114 49 16 -2 31 -8 33 -14z"/>
<path d="M3980 5737 c-244 -100 -408 -402 -387 -710 11 -162 44 -255 117 -327
109 -110 283 -135 428 -61 165 84 275 262 259 420 -9 80 -40 159 -83 209 -32
37 -40 42 -79 42 -56 0 -172 -39 -235 -80 -121 -77 -181 -237 -131 -347 24
-51 59 -75 103 -71 25 2 34 8 36 26 2 12 -1 22 -6 22 -17 0 -22 28 -11 59 13
37 67 65 101 52 87 -33 69 -170 -30 -228 -110 -65 -243 -11 -304 122 -19 42
-23 66 -22 150 2 155 46 258 153 357 77 72 124 88 258 88 103 0 103 0 119 33
13 27 14 41 5 74 -13 49 -76 130 -129 166 -47 33 -88 34 -162 4z"/>
<path d="M6812 5013 c-20 -38 -22 -79 -12 -176 15 -142 23 -164 69 -204 43
-36 70 -103 90 -218 21 -120 36 -185 44 -185 6 0 6 67 2 158 -7 162 -52 416
-96 541 -29 84 -76 124 -97 84z"/>
<path d="M6783 4625 c-43 -30 -46 -64 -48 -587 -2 -274 1 -496 5 -493 24 15
83 304 105 508 24 233 14 463 -24 560 -12 32 -11 31 -38 12z"/>
<path d="M6335 3777 c-8 -13 -24 -64 -36 -113 -54 -232 -91 -369 -124 -460
-57 -157 -186 -409 -293 -570 -53 -82 -119 -185 -145 -229 -48 -80 -48 -80 93
60 215 213 362 406 455 598 47 99 98 274 114 400 14 101 14 293 1 318 -14 26
-46 24 -65 -4z"/>
</g>
</svg>
