<?xml version="1.0" standalone="no"?>
<!DOCTYPE svg PUBLIC "-//W3C//DTD SVG 20010904//EN"
 "http://www.w3.org/TR/2001/REC-SVG-20010904/DTD/svg10.dtd">
<svg version="1.0" xmlns="http://www.w3.org/2000/svg"
 width="1000.000000pt" height="1000.000000pt" viewBox="0 0 1000.000000 1000.000000"
 preserveAspectRatio="xMidYMid meet">
<metadata>
  <rdf:RDF
    xmlns:rdf = "http://www.w3.org/1999/02/22-rdf-syntax-ns#"
    xmlns:rdfs = "http://www.w3.org/2000/01/rdf-schema#"
    xmlns:dc = "http://purl.org/dc/elements/1.1/"
    xmlns:cc = "http://creativecommons.org/ns#">
    <cc:license rdf:resource="http://creativecommons.org/publicdomain/zero/1.0/deed.en"/>
    <cc:permits rdf:resource="http://creativecommons.org/ns#Reproduction"/>
    <rdf:Description about="https://nft.mir.one/fingerprints"
      dc:title="TON Fingerprints"
      dc:description="This is a unique digital fingerprint created based on the algorithm for generating basic rings using a noise texture. Like human fingerprints, you can now use it for the Web3 and Metaverse era as digital biometric information."
      dc:publisher="https://nft.mir.one"
      dc:date="2022-02-22"
      dc:format="image/svg+xml"
      dc:language="en" >
      <dc:creator>
      <rdf:Bag>
        <rdf:li>EQBondcvD2_aOFADXSWJHs4ZazQDuEl9_wNvGGPxI8hGuOFU</rdf:li>
        <rdf:li>ipfs://bafkreihj7iub3fhmhq6jn62noukt5wxn3gv6bvcg7wmt6ywvlurefezckq</rdf:li>
      </rdf:Bag>
      </dc:creator>
    </rdf:Description>
  </rdf:RDF>
</metadata>
<rect width="100%" height="100%" fill="#1b1f23"/>
<g transform="translate(0.000000,1000.000000) scale(0.100000,-0.100000)"
fill="#ffffff" stroke="none">
<path d="M4850 7759 c-232 -27 -437 -71 -551 -120 -76 -33 -239 -118 -239
-125 0 -2 44 18 99 45 173 87 202 94 391 96 127 1 204 7 335 28 329 53 371 59
470 65 100 7 100 7 40 13 -85 10 -456 8 -545 -2z"/>
<path d="M5210 7550 c-159 -15 -335 -63 -428 -117 -24 -13 -81 -58 -128 -99
-47 -41 -131 -106 -187 -145 -314 -220 -428 -323 -513 -461 -120 -194 -299
-515 -336 -600 -67 -156 -81 -273 -36 -302 27 -16 42 6 128 178 190 384 419
686 658 869 141 107 454 316 548 365 185 95 335 127 594 126 248 -1 342 -21
758 -158 23 -7 42 -12 42 -11 0 8 -237 148 -317 188 -247 124 -550 189 -783
167z"/>
<path d="M4425 7491 c-192 -70 -437 -226 -744 -475 -113 -91 -126 -106 -152
-163 -16 -35 -59 -107 -97 -161 -207 -291 -337 -602 -399 -957 -31 -182 -19
-611 23 -795 9 -39 48 -131 99 -231 46 -92 89 -186 94 -209 11 -49 -5 -115
-28 -115 -8 0 -50 71 -97 162 -114 224 -147 263 -191 226 -10 -8 -13 -12 -6
-9 21 11 41 -22 73 -121 39 -119 92 -232 119 -257 12 -11 38 -22 59 -25 36 -6
39 -11 101 -126 250 -471 315 -570 500 -756 198 -198 360 -299 480 -299 35 0
53 5 66 20 18 20 18 21 -3 43 -11 12 -62 47 -111 77 -345 207 -564 482 -695
870 -63 188 -71 295 -29 416 25 75 27 91 31 309 4 230 4 230 -24 270 -69 101
-69 103 -68 400 2 323 14 409 79 568 24 60 92 194 150 298 119 210 142 263
151 344 9 77 46 129 153 219 82 68 153 117 479 330 109 72 141 110 122 146
-14 26 -66 26 -135 1z m-709 -656 c4 -9 -45 -98 -118 -217 -211 -343 -263
-453 -314 -673 -27 -114 -29 -131 -28 -360 0 -227 1 -247 28 -360 67 -292 87
-402 89 -495 2 -88 1 -95 -18 -95 -30 0 -60 55 -109 203 -96 290 -138 523
-139 767 -1 284 78 553 243 825 96 159 261 390 290 405 33 19 69 19 76 0z"/>
<path d="M5381 7210 c-171 -22 -296 -70 -434 -167 -45 -32 -153 -101 -239
-153 -239 -144 -332 -213 -464 -345 -139 -138 -256 -291 -394 -515 -123 -199
-132 -211 -184 -244 -24 -15 -50 -42 -59 -61 -24 -51 -56 -216 -63 -331 -8
-122 4 -174 42 -174 39 0 77 66 124 213 55 170 88 243 187 402 226 364 475
617 738 752 201 103 262 114 530 99 137 -8 142 -8 220 19 139 48 340 35 565
-37 159 -51 242 -98 299 -171 27 -34 66 -75 86 -90 20 -16 79 -70 132 -120
153 -147 263 -298 396 -545 74 -138 106 -182 130 -182 10 0 1 39 -38 153 -87
256 -181 447 -289 585 -68 86 -163 160 -284 221 -111 56 -95 83 48 79 90 -3
98 -5 144 -37 27 -19 73 -55 102 -80 193 -170 182 -163 117 -70 -70 99 -261
356 -310 415 -70 86 -264 229 -380 280 -181 80 -520 129 -722 104z m444 -200
c224 -44 518 -164 608 -248 25 -23 35 -60 21 -74 -8 -8 -155 34 -354 102 -313
106 -461 124 -754 91 -189 -22 -235 -21 -256 4 -41 49 109 120 302 145 107 13
307 4 433 -20z"/>
<path d="M5412 6604 c-54 -37 1 -91 146 -144 70 -25 106 -32 182 -35 74 -2
109 -8 158 -28 192 -78 396 -277 596 -580 225 -340 284 -474 307 -692 18 -165
2 -347 -53 -636 -34 -180 -33 -219 6 -219 29 0 49 22 81 92 62 135 102 380
112 678 6 217 -8 329 -55 419 -44 85 -227 386 -290 476 -84 122 -168 219 -291
338 -235 227 -351 284 -676 332 -129 19 -195 19 -223 -1z"/>
<path d="M4870 6474 c-292 -62 -599 -301 -830 -646 -82 -122 -116 -198 -150
-337 -20 -81 -51 -165 -94 -258 -93 -202 -94 -207 -136 -503 -34 -240 -36
-296 -15 -405 21 -110 92 -340 128 -410 77 -155 206 -293 417 -451 74 -56 159
-128 187 -161 52 -60 52 -60 190 -101 203 -60 250 -71 344 -78 116 -9 209 19
209 61 0 18 -13 22 -154 44 -148 25 -226 52 -276 97 -21 19 -87 58 -147 88
-178 88 -351 210 -491 349 -112 110 -175 203 -176 258 -1 26 4 44 12 46 7 3
69 -53 138 -125 179 -187 366 -322 525 -380 64 -23 89 -26 179 -25 58 0 148 6
200 13 75 10 127 10 253 0 256 -20 380 -4 532 69 140 68 255 180 329 320 50
97 66 161 66 270 0 53 7 177 15 276 28 345 18 522 -40 751 -61 238 -92 293
-255 454 -187 187 -383 316 -560 372 -64 20 -95 23 -215 22 -130 0 -147 -2
-235 -32 -183 -61 -351 -177 -507 -350 -170 -187 -219 -234 -245 -230 -108 15
157 392 412 584 291 219 602 263 896 125 142 -67 291 -178 537 -403 59 -53
131 -110 160 -127 84 -48 92 -61 89 -145 -2 -55 5 -101 32 -206 66 -258 84
-436 66 -660 -23 -288 -24 -377 -6 -405 38 -58 83 -13 111 110 46 201 61 544
31 725 -22 134 -60 259 -113 369 -41 87 -44 96 -28 107 21 16 64 2 93 -29 68
-73 138 -246 167 -411 20 -115 20 -388 0 -543 -30 -235 -60 -329 -133 -417
-43 -52 -51 -67 -131 -240 -64 -137 -116 -209 -227 -316 -247 -238 -407 -270
-874 -179 -235 46 -420 44 -420 -5 0 -29 43 -48 173 -76 158 -34 202 -52 223
-91 16 -32 19 -32 149 -48 122 -15 179 -36 231 -86 62 -59 60 -85 -13 -163
-158 -168 -519 -226 -851 -137 -132 35 -209 74 -285 142 -46 42 -84 67 -129
83 -328 121 -615 384 -887 817 -192 304 -240 368 -342 458 -31 28 -21 5 98
-236 153 -310 198 -392 304 -549 196 -288 414 -474 799 -681 196 -105 285
-142 438 -184 330 -91 605 -57 886 109 93 56 135 94 210 189 65 83 171 189
415 417 148 138 289 291 326 354 20 35 22 47 15 86 -12 64 2 124 60 254 38 86
53 134 61 197 6 46 22 161 36 254 34 231 42 486 19 624 -31 186 -81 299 -235
532 -53 81 -123 189 -156 240 -75 117 -220 265 -335 341 -128 84 -193 106
-220 73 -19 -23 14 -66 119 -152 114 -93 245 -222 284 -280 41 -59 60 -119 47
-143 -6 -11 -15 -20 -21 -20 -5 0 -78 69 -162 153 -166 167 -379 361 -460 418
-87 62 -282 156 -356 173 -84 19 -213 19 -301 0z m430 -604 c135 -45 243 -114
368 -234 144 -138 227 -278 276 -468 51 -196 52 -367 6 -708 -46 -343 -72
-413 -192 -532 -125 -123 -300 -188 -505 -188 -118 0 -186 16 -293 70 -44 22
-114 54 -155 70 -314 125 -564 317 -739 570 -76 111 -114 147 -142 136 -14 -5
-16 -16 -12 -70 12 -139 115 -283 333 -462 188 -154 311 -224 525 -294 69 -23
133 -49 143 -58 16 -14 16 -17 2 -31 -24 -25 -151 -18 -259 14 -168 49 -337
154 -541 339 -50 44 -118 101 -151 125 -69 50 -96 86 -125 161 -41 109 -35
217 15 278 20 23 24 43 30 137 9 143 29 231 77 334 31 67 51 95 106 145 36 33
152 147 257 253 105 105 220 212 255 238 247 177 516 243 721 175z"/>
<path d="M5075 5746 c-36 -16 -69 -50 -63 -67 2 -7 44 -23 94 -36 230 -61 390
-185 494 -383 99 -190 118 -441 45 -595 -80 -167 -306 -295 -525 -295 -158 0
-262 33 -330 105 -19 20 -71 62 -115 93 -158 111 -317 287 -390 433 -25 49
-53 93 -61 96 -56 21 -106 -49 -135 -190 -36 -175 -23 -245 75 -397 60 -93
255 -288 354 -354 162 -107 387 -209 550 -248 211 -50 451 13 598 157 91 89
135 194 101 239 -20 27 -51 16 -122 -44 -173 -147 -334 -207 -533 -198 -88 4
-108 9 -212 52 -204 84 -362 187 -499 325 -146 147 -235 327 -168 339 24 5 45
-15 122 -113 160 -204 407 -385 582 -425 43 -10 56 -9 82 4 38 20 61 20 89 0
34 -24 26 -34 -27 -34 -28 0 -53 -5 -56 -10 -23 -37 82 -57 107 -21 9 13 35
22 87 30 128 20 175 39 411 169 113 62 134 84 171 180 56 150 65 409 20 577
-64 235 -231 450 -431 554 -130 68 -244 88 -315 57z"/>
<path d="M4861 5634 c-215 -58 -421 -259 -438 -428 -13 -125 50 -269 172 -392
115 -116 183 -143 316 -124 107 15 161 36 214 82 88 78 127 207 91 302 -49
128 -205 191 -311 126 -76 -47 -92 -155 -31 -216 27 -27 42 -34 74 -34 45 0
55 9 56 54 1 26 5 32 28 34 59 7 77 -91 26 -146 -103 -112 -291 -64 -369 93
-28 58 -31 71 -27 137 5 86 26 137 80 189 63 61 100 74 208 74 86 0 101 -3
163 -32 137 -65 234 -192 245 -319 5 -63 -5 -92 -95 -282 -42 -88 -118 -129
-292 -157 -129 -20 -155 -51 -79 -92 27 -15 56 -18 153 -18 104 1 130 4 193
27 86 31 198 95 242 139 69 69 87 141 70 286 -33 291 -134 436 -404 579 -73
38 -117 69 -138 95 -36 44 -56 48 -147 23z m587 -815 c4 -37 -33 -89 -63 -89
-29 0 -29 0 -10 47 30 71 67 92 73 42z"/>
<path d="M7091 4934 c0 -11 3 -14 6 -6 3 7 2 16 -1 19 -3 4 -6 -2 -5 -13z"/>
<path d="M7082 4835 c0 -16 2 -22 5 -12 2 9 2 23 0 30 -3 6 -5 -1 -5 -18z"/>
<path d="M7070 4763 c0 -82 -95 -367 -156 -466 -14 -23 -56 -71 -93 -107 -43
-42 -97 -113 -154 -203 -120 -188 -132 -227 -67 -227 83 0 145 70 273 311 73
138 120 260 156 407 31 129 58 299 47 309 -3 3 -6 -7 -6 -24z"/>
<path d="M6798 3686 c-97 -64 -161 -117 -363 -304 -348 -321 -425 -407 -425
-476 0 -30 24 -56 53 -56 39 0 128 70 268 209 157 158 261 283 422 509 63 89
115 162 114 162 -1 0 -32 -20 -69 -44z"/>
<path d="M3305 3380 c151 -221 361 -458 514 -582 195 -158 394 -263 661 -351
91 -30 194 -69 230 -88 65 -34 65 -34 215 -34 175 1 297 20 455 72 132 44 246
103 310 160 55 49 66 73 50 103 -19 35 -69 26 -188 -34 -221 -111 -358 -152
-536 -162 -146 -9 -206 2 -451 83 -495 162 -764 333 -1114 704 -213 226 -211
224 -146 129z"/>
<path d="M4428 3069 c-10 -5 -18 -18 -18 -28 0 -86 396 -178 646 -151 183 19
365 76 381 117 4 10 -2 23 -16 35 -32 25 -148 24 -304 -3 -149 -26 -275 -22
-451 16 -124 26 -209 31 -238 14z"/>
<path d="M6220 2730 c-35 -19 -102 -43 -152 -54 -40 -9 -92 -59 -127 -121 -17
-29 -44 -70 -62 -89 -17 -20 -28 -36 -25 -36 3 0 54 42 114 93 59 51 145 119
192 151 115 80 131 95 60 56z"/>
<path d="M4408 2293 c7 -3 16 -2 19 1 4 3 -2 6 -13 5 -11 0 -14 -3 -6 -6z"/>
<path d="M4485 2279 c54 -10 157 -11 173 -1 7 5 -38 8 -100 8 -80 0 -101 -2
-73 -7z"/>
</g>
</svg>
