<?xml version="1.0" standalone="no"?>
<!DOCTYPE svg PUBLIC "-//W3C//DTD SVG 20010904//EN"
 "http://www.w3.org/TR/2001/REC-SVG-20010904/DTD/svg10.dtd">
<svg version="1.0" xmlns="http://www.w3.org/2000/svg"
 width="1000.000000pt" height="1000.000000pt" viewBox="0 0 1000.000000 1000.000000"
 preserveAspectRatio="xMidYMid meet">
<metadata>
  <rdf:RDF
    xmlns:rdf = "http://www.w3.org/1999/02/22-rdf-syntax-ns#"
    xmlns:rdfs = "http://www.w3.org/2000/01/rdf-schema#"
    xmlns:dc = "http://purl.org/dc/elements/1.1/"
    xmlns:cc = "http://creativecommons.org/ns#">
    <cc:license rdf:resource="http://creativecommons.org/publicdomain/zero/1.0/deed.en"/>
    <cc:permits rdf:resource="http://creativecommons.org/ns#Reproduction"/>
    <rdf:Description about="https://nft.mir.one/fingerprints"
      dc:title="TON Fingerprints"
      dc:description="This is a unique digital fingerprint created based on the algorithm for generating basic rings using a noise texture. Like human fingerprints, you can now use it for the Web3 and Metaverse era as digital biometric information."
      dc:publisher="https://nft.mir.one"
      dc:date="2022-02-22"
      dc:format="image/svg+xml"
      dc:language="en" >
      <dc:creator>
      <rdf:Bag>
        <rdf:li>EQBondcvD2_aOFADXSWJHs4ZazQDuEl9_wNvGGPxI8hGuOFU</rdf:li>
        <rdf:li>ipfs://bafkreihj7iub3fhmhq6jn62noukt5wxn3gv6bvcg7wmt6ywvlurefezckq</rdf:li>
      </rdf:Bag>
      </dc:creator>
    </rdf:Description>
  </rdf:RDF>
</metadata>
<rect width="100%" height="100%" fill="#1b1f23"/>
<g transform="translate(0.000000,1000.000000) scale(0.100000,-0.100000)"
fill="#ffffff" stroke="none">
<path d="M4946 7789 c-120 -13 -239 -37 -331 -68 -95 -32 -456 -228 -620 -337
-90 -59 -425 -318 -425 -328 0 -5 209 104 305 159 203 117 434 225 518 240 25
5 54 1 96 -14 77 -26 127 -26 348 1 135 16 236 22 418 22 258 1 397 -13 610
-60 115 -25 255 -47 262 -41 4 4 -170 83 -278 125 -370 147 -801 166 -1247 55
-108 -27 -132 -26 -132 6 0 106 350 220 735 240 150 8 150 8 -15 8 -91 0 -200
-3 -244 -8z"/>
<path d="M5020 7324 c-19 -3 -150 -16 -290 -30 -294 -29 -325 -34 -440 -71
-103 -33 -554 -259 -625 -312 -86 -65 -173 -160 -297 -326 -66 -88 -135 -176
-153 -195 -17 -19 -45 -53 -61 -75 -29 -40 -29 -40 14 -2 23 20 46 37 51 37
17 0 115 92 222 209 166 181 287 271 344 257 14 -4 25 -13 25 -21 0 -8 -46
-59 -101 -112 -147 -142 -363 -383 -415 -464 -121 -186 -219 -480 -263 -785
-39 -270 -60 -818 -41 -1069 18 -243 27 -266 29 -75 2 232 15 360 46 450 23
65 28 106 40 305 23 373 61 576 147 793 91 228 199 383 492 707 65 71 135 155
157 186 44 65 83 98 189 159 303 176 620 254 1080 267 232 6 401 -9 599 -53
240 -54 484 -154 651 -269 47 -32 119 -81 160 -108 41 -27 90 -64 109 -81 76
-68 -128 160 -232 261 -317 306 -608 410 -1167 418 -129 2 -251 1 -270 -1z"/>
<path d="M5055 7013 c-100 -9 -268 -36 -355 -58 -195 -49 -319 -104 -477 -212
-56 -38 -119 -72 -147 -79 -75 -21 -126 -56 -210 -145 -334 -355 -505 -651
-575 -999 -39 -193 -50 -417 -29 -589 5 -41 24 -120 43 -175 38 -113 47 -159
70 -364 36 -321 95 -463 389 -942 59 -96 126 -199 148 -228 107 -138 331 -265
558 -317 41 -9 113 -28 160 -42 179 -55 217 -52 515 38 192 58 281 97 273 121
-3 7 -17 21 -32 32 -25 19 -42 21 -206 21 -154 0 -180 2 -197 17 -54 49 -149
60 -290 33 -207 -40 -409 4 -583 126 -75 53 -116 109 -111 157 2 23 37 12 137
-42 186 -103 285 -123 509 -105 129 11 170 10 295 -4 193 -22 499 -23 583 -1
119 31 223 100 258 170 17 36 19 50 11 68 -18 41 -66 41 -214 2 -191 -50 -280
-60 -513 -53 -188 6 -299 20 -369 47 -16 6 -57 31 -90 56 -33 25 -128 79 -211
119 -317 153 -459 280 -626 556 -84 140 -111 174 -140 174 -20 0 -24 -5 -27
-36 -9 -111 155 -411 315 -575 103 -105 209 -163 503 -274 133 -50 159 -71
125 -97 -33 -25 -142 -11 -260 32 -55 21 -146 50 -202 65 -122 32 -162 58
-244 154 -125 147 -236 336 -290 496 -32 93 -32 100 -39 335 -7 216 -11 253
-38 375 -37 165 -55 337 -47 450 20 275 108 530 262 763 46 70 244 321 346
440 54 62 83 72 93 32 12 -49 -58 -169 -212 -362 -109 -135 -175 -235 -225
-341 -153 -319 -169 -646 -48 -939 28 -67 46 -92 134 -183 56 -58 156 -171
223 -251 66 -80 160 -182 207 -227 157 -147 337 -249 483 -274 65 -11 80 -10
160 10 49 12 110 22 135 22 131 0 299 44 388 101 156 100 289 337 334 593 16
94 19 291 6 437 -11 124 -39 175 -172 314 -120 125 -134 155 -74 155 75 0 195
-80 325 -215 41 -43 103 -105 136 -137 111 -106 160 -237 171 -458 7 -152 -9
-325 -41 -454 -53 -207 -185 -382 -243 -323 -18 18 -16 24 65 218 70 168 101
327 102 521 0 212 -56 398 -121 398 -37 0 -42 -34 -29 -195 21 -242 -8 -423
-105 -665 -81 -200 -130 -295 -174 -329 -56 -45 -153 -87 -267 -118 -92 -25
-114 -27 -314 -27 -251 -1 -312 11 -488 94 -210 100 -353 223 -576 495 -72 87
-147 176 -167 197 -43 45 -83 51 -100 15 -18 -40 6 -102 65 -166 29 -32 94
-113 144 -179 207 -278 325 -377 616 -518 262 -127 372 -155 609 -155 153 0
235 9 422 46 66 13 161 28 210 33 117 13 156 31 232 107 110 113 204 263 251
400 43 129 47 167 46 480 -1 321 -8 382 -56 502 -89 220 -383 491 -593 548
-58 16 -84 17 -272 7 -160 -9 -231 -17 -305 -36 -167 -42 -300 -123 -410 -248
-65 -74 -127 -137 -190 -196 -85 -78 -89 -210 -10 -309 17 -21 42 -65 56 -97
93 -210 312 -378 523 -401 203 -23 394 129 448 357 53 224 -35 443 -213 530
-58 29 -76 33 -142 32 -92 -1 -150 -25 -219 -89 -119 -112 -136 -318 -33 -418
115 -112 282 -77 316 67 9 38 -10 91 -41 116 -50 39 -108 16 -97 -39 7 -35
-18 -54 -53 -40 -29 11 -43 39 -43 86 0 51 30 98 79 123 103 52 233 -10 282
-135 22 -57 15 -155 -16 -224 -88 -196 -336 -231 -509 -71 -65 60 -98 130
-104 214 -5 93 22 257 53 322 95 195 391 303 575 209 137 -69 274 -259 300
-416 15 -90 8 -270 -14 -354 -47 -176 -167 -335 -304 -403 -67 -33 -86 -37
-163 -40 -107 -5 -150 8 -311 90 -187 96 -314 210 -425 380 -93 143 -133 281
-114 396 18 110 45 154 214 333 263 281 347 329 703 403 192 40 219 42 331 21
312 -59 607 -272 783 -566 75 -124 93 -190 89 -318 -6 -182 2 -472 16 -561 22
-146 -12 -276 -146 -547 -94 -192 -111 -249 -85 -288 15 -23 23 -26 48 -21 93
19 192 177 323 521 31 83 81 202 110 265 83 179 104 336 70 505 -19 92 -34
128 -96 233 -27 46 -65 114 -83 151 -82 162 -220 337 -369 469 -165 146 -337
244 -542 307 -335 104 -356 113 -337 142 36 55 216 46 417 -21 246 -83 445
-214 675 -446 148 -149 226 -256 314 -428 132 -262 174 -451 146 -668 -17
-137 -46 -230 -164 -529 -57 -143 -111 -285 -121 -315 -53 -165 -138 -255
-288 -306 -89 -30 -118 -50 -237 -159 -130 -119 -229 -186 -368 -251 -64 -31
-126 -60 -137 -65 -11 -6 -31 -30 -44 -54 -42 -79 -124 -124 -337 -184 -249
-70 -389 -84 -555 -56 -189 31 -410 126 -569 245 -92 68 -210 190 -265 275
-68 105 -282 521 -339 661 -74 181 -102 304 -131 578 -17 156 -28 208 -51 231
-25 24 -44 18 -61 -22 -13 -31 -15 -67 -10 -203 10 -324 70 -534 262 -925 56
-115 110 -235 119 -265 23 -82 81 -165 208 -296 303 -313 649 -505 913 -508
70 -1 89 4 155 33 42 18 202 65 362 106 325 83 381 104 598 217 180 94 314
177 495 308 163 119 250 201 356 337 46 60 113 140 149 178 43 46 82 102 112
160 42 82 119 261 118 274 -1 3 -18 -28 -40 -69 -54 -106 -170 -271 -209 -297
-78 -53 -79 6 -3 178 171 386 232 660 218 974 -10 220 -37 329 -132 519 -80
162 -152 262 -241 342 -43 38 -127 116 -188 173 -371 350 -758 511 -1135 472
-234 -24 -383 -60 -529 -127 -93 -43 -359 -205 -396 -242 -33 -32 -167 -300
-196 -392 -12 -39 -22 -105 -25 -165 -3 -55 -17 -165 -31 -245 -37 -212 -24
-297 68 -454 133 -226 292 -379 534 -516 128 -73 155 -95 155 -126 0 -33 -9
-35 -81 -18 -144 33 -345 157 -484 298 -152 154 -299 358 -378 526 -28 59 -68
126 -92 153 -24 26 -50 68 -59 94 -57 165 -9 458 113 688 64 122 113 185 197
254 65 54 75 68 143 199 113 217 200 310 365 391 421 207 1045 195 1513 -29
297 -142 562 -381 681 -615 32 -63 36 -81 42 -183 7 -114 7 -114 93 -285 134
-270 184 -379 192 -415 4 -18 9 -31 12 -28 11 11 -51 269 -97 406 -27 80 -61
201 -75 270 -45 222 -102 360 -227 546 -97 146 -199 250 -327 336 -317 212
-709 322 -1130 316 -75 -1 -154 -3 -176 -5z m128 -859 c22 -7 69 -98 61 -118
-5 -13 -26 -16 -118 -16 -134 0 -227 -21 -350 -78 -170 -80 -278 -172 -406
-347 -92 -126 -119 -155 -143 -155 -17 0 -19 5 -15 43 11 95 144 314 250 413
203 187 544 309 721 258z m-665 -936 c26 -26 6 -183 -28 -213 -23 -21 -36 -14
-43 22 -11 56 26 203 51 203 5 0 13 -5 20 -12z m1988 -226 c21 -13 43 -69 53
-133 29 -177 -10 -408 -67 -397 -15 3 -18 30 -24 253 -7 269 -2 304 38 277z
m-1541 -1952 c25 -41 -64 -93 -161 -94 -131 -2 -104 53 42 84 107 22 111 23
119 10z"/>
<path d="M5029 6685 c-160 -26 -292 -66 -403 -122 -189 -96 -386 -317 -336
-378 26 -31 63 -16 178 70 263 195 498 269 852 269 142 0 194 -4 276 -22 331
-71 563 -203 844 -478 91 -88 179 -168 197 -177 44 -23 63 -13 63 32 0 106
-249 389 -475 540 -185 123 -384 207 -601 252 -131 27 -467 35 -595 14z"/>
<path d="M4084 6011 c-17 -11 -53 -53 -78 -95 -119 -190 -183 -428 -174 -644
5 -113 21 -157 58 -157 43 0 50 25 95 344 20 139 43 214 107 356 55 119 68
176 48 200 -16 19 -19 19 -56 -4z"/>
<path d="M3022 4100 c0 -14 2 -19 5 -12 2 6 2 18 0 25 -3 6 -5 1 -5 -13z"/>
<path d="M3031 4054 c0 -11 3 -14 6 -6 3 7 2 16 -1 19 -3 4 -6 -2 -5 -13z"/>
<path d="M3041 4014 c0 -11 3 -14 6 -6 3 7 2 16 -1 19 -3 4 -6 -2 -5 -13z"/>
<path d="M3091 3858 c-2 -16 82 -214 135 -321 64 -128 129 -231 168 -266 45
-42 36 -19 -30 72 -82 115 -152 239 -209 373 -57 137 -63 151 -64 142z"/>
<path d="M6475 3024 c-11 -9 -49 -30 -84 -47 -36 -17 -99 -54 -140 -82 -148
-101 -399 -237 -578 -311 -80 -34 -100 -38 -218 -45 -97 -5 -183 -19 -340 -54
-115 -26 -225 -54 -242 -62 -37 -17 -44 -47 -14 -63 47 -25 229 -8 421 40 125
31 155 33 173 15 39 -38 -39 -102 -210 -171 -124 -50 -124 -55 2 -18 109 32
202 73 263 117 26 19 124 73 217 121 269 138 479 286 681 480 92 88 118 118
69 80z"/>
<path d="M5108 2193 c7 -3 16 -2 19 1 4 3 -2 6 -13 5 -11 0 -14 -3 -6 -6z"/>
</g>
</svg>
