<?xml version="1.0" standalone="no"?>
<!DOCTYPE svg PUBLIC "-//W3C//DTD SVG 20010904//EN"
 "http://www.w3.org/TR/2001/REC-SVG-20010904/DTD/svg10.dtd">
<svg version="1.0" xmlns="http://www.w3.org/2000/svg"
 width="1000.000000pt" height="1000.000000pt" viewBox="0 0 1000.000000 1000.000000"
 preserveAspectRatio="xMidYMid meet">
<metadata>
  <rdf:RDF
    xmlns:rdf = "http://www.w3.org/1999/02/22-rdf-syntax-ns#"
    xmlns:rdfs = "http://www.w3.org/2000/01/rdf-schema#"
    xmlns:dc = "http://purl.org/dc/elements/1.1/"
    xmlns:cc = "http://creativecommons.org/ns#">
    <cc:license rdf:resource="http://creativecommons.org/publicdomain/zero/1.0/deed.en"/>
    <cc:permits rdf:resource="http://creativecommons.org/ns#Reproduction"/>
    <rdf:Description about="https://nft.mir.one/fingerprints"
      dc:title="TON Fingerprints"
      dc:description="This is a unique digital fingerprint created based on the algorithm for generating basic rings using a noise texture. Like human fingerprints, you can now use it for the Web3 and Metaverse era as digital biometric information."
      dc:publisher="https://nft.mir.one"
      dc:date="2022-02-22"
      dc:format="image/svg+xml"
      dc:language="en" >
      <dc:creator>
      <rdf:Bag>
        <rdf:li>EQBondcvD2_aOFADXSWJHs4ZazQDuEl9_wNvGGPxI8hGuOFU</rdf:li>
        <rdf:li>ipfs://bafkreihj7iub3fhmhq6jn62noukt5wxn3gv6bvcg7wmt6ywvlurefezckq</rdf:li>
      </rdf:Bag>
      </dc:creator>
    </rdf:Description>
  </rdf:RDF>
</metadata>
<rect width="100%" height="100%" fill="#1b1f23"/>
<g transform="translate(0.000000,1000.000000) scale(0.100000,-0.100000)"
fill="#ffffff" stroke="none">
<path d="M4585 7750 c-13 -6 -15 -9 -5 -9 8 0 22 4 30 9 18 12 2 12 -25 0z"/>
<path d="M4538 7733 c7 -3 16 -2 19 1 4 3 -2 6 -13 5 -11 0 -14 -3 -6 -6z"/>
<path d="M4915 7714 c-103 -25 -280 -117 -349 -181 -40 -37 -99 -77 -166 -112
-109 -56 -169 -93 -460 -281 -237 -153 -390 -269 -480 -364 -41 -44 -102 -107
-135 -141 -61 -62 -61 -62 -10 -57 67 6 107 29 117 69 19 72 96 124 471 314
131 67 250 134 265 149 15 15 48 49 73 76 32 33 93 75 185 128 77 43 184 108
238 143 141 93 258 149 361 174 97 24 279 29 560 16 130 -6 130 -6 -5 23 -280
60 -529 77 -665 44z"/>
<path d="M4398 7576 c-123 -43 -286 -121 -377 -180 -60 -38 -385 -280 -416
-309 -32 -30 191 92 305 166 119 79 309 178 553 291 48 22 77 41 75 48 -8 23
-41 19 -140 -16z"/>
<path d="M5250 7524 c-244 -28 -322 -55 -640 -217 -140 -71 -274 -143 -298
-159 -78 -53 -37 -97 63 -68 22 7 130 50 240 97 110 47 239 98 287 114 172 58
378 89 597 89 145 1 359 16 409 30 22 5 46 18 55 27 14 17 14 18 -11 19 -15 0
-121 15 -237 32 -201 30 -391 45 -465 36z"/>
<path d="M5865 7275 c-5 -2 -136 -9 -290 -15 -154 -5 -327 -17 -384 -25 -185
-27 -377 -84 -655 -194 -79 -32 -169 -59 -248 -75 -68 -13 -152 -35 -188 -49
-171 -65 -566 -251 -614 -290 -37 -30 -30 -54 18 -63 50 -9 117 9 306 83 216
85 339 127 485 164 83 22 148 46 210 80 150 80 421 159 670 196 95 14 184 17
435 17 442 -1 461 -6 663 -163 106 -83 135 -117 123 -147 -10 -26 -57 -13
-207 56 -236 109 -397 136 -782 127 -265 -6 -350 -17 -618 -83 -187 -45 -249
-70 -249 -99 0 -24 61 -45 129 -45 33 0 106 11 163 25 164 39 319 55 538 55
301 0 473 -27 740 -115 74 -25 179 -54 234 -65 119 -24 185 -58 240 -124 23
-26 58 -69 80 -95 38 -46 123 -123 181 -164 30 -21 30 -21 3 15 -83 110 -159
234 -173 281 -11 38 -36 78 -88 143 -40 49 -88 112 -107 139 -19 28 -76 93
-127 147 -51 53 -93 99 -93 103 0 12 41 60 58 67 11 4 2 7 -22 7 -21 1 -67 14
-102 31 -96 45 -172 68 -249 74 -38 3 -74 4 -80 1z"/>
<path d="M5115 6709 c-152 -7 -286 -29 -311 -50 -22 -18 -17 -47 11 -65 22
-14 63 -17 268 -20 133 -2 289 -8 347 -14 402 -40 753 -161 1065 -367 219
-145 354 -213 422 -213 13 0 34 -5 46 -12 14 -7 6 8 -23 42 -25 30 -58 61 -75
69 -16 9 -77 61 -135 117 -210 201 -309 266 -526 345 -282 103 -515 155 -739
165 -66 2 -138 6 -160 8 -22 1 -107 -1 -190 -5z"/>
<path d="M4320 6685 c-107 -20 -223 -55 -448 -137 -108 -39 -256 -88 -328
-108 -72 -21 -145 -45 -162 -54 -46 -24 -92 -85 -112 -147 -9 -31 -46 -105
-82 -165 -87 -144 -115 -201 -183 -374 -74 -186 -73 -183 -37 -130 17 25 44
63 61 85 16 22 54 78 84 125 68 105 244 317 321 387 72 66 149 109 318 179
293 122 510 183 735 208 148 16 173 25 173 62 0 30 -34 47 -141 69 -83 18
-100 18 -199 0z"/>
<path d="M4481 6440 c-522 -99 -879 -266 -1087 -507 -87 -101 -194 -264 -249
-378 -104 -213 -166 -579 -150 -880 23 -448 102 -740 267 -987 121 -180 215
-248 457 -328 371 -124 736 -119 1021 13 347 161 580 480 676 927 14 63 19
127 19 245 0 175 -16 259 -71 368 -35 68 -128 164 -223 228 -95 65 -141 108
-141 131 0 40 92 17 265 -67 119 -57 195 -117 224 -174 39 -78 81 -308 81
-441 0 -92 -40 -307 -85 -465 -118 -408 -344 -704 -660 -862 -186 -94 -340
-127 -585 -127 -258 0 -439 34 -705 134 -81 30 -150 50 -174 50 -42 0 -42 0
41 -65 128 -100 285 -202 343 -224 100 -38 262 -55 505 -55 250 -1 331 10 488
65 270 95 467 251 634 504 121 182 184 337 254 622 33 137 57 210 86 268 39
76 40 83 35 150 -3 39 -15 110 -26 159 -22 90 -26 141 -21 231 2 28 0 60 -4
71 -17 54 68 71 166 34 78 -29 184 -114 259 -207 98 -123 118 -166 134 -286 7
-56 29 -155 49 -219 52 -172 74 -293 87 -478 17 -259 -2 -457 -58 -583 -15
-32 -37 -67 -51 -78 -25 -20 -25 -20 -54 8 -35 34 -35 53 1 195 64 247 68 560
11 785 -28 109 -145 415 -193 507 -54 100 -134 198 -191 231 -95 56 -106 17
-38 -132 27 -60 79 -185 117 -280 60 -152 72 -174 103 -195 75 -49 105 -166
105 -403 0 -379 -88 -617 -312 -845 -100 -101 -165 -140 -239 -140 -43 0 -56
-6 -129 -59 -219 -161 -446 -268 -707 -332 -170 -41 -238 -45 -364 -20 -138
28 -247 35 -368 25 -54 -4 -88 -10 -74 -12 51 -7 366 -84 396 -97 17 -7 35
-18 38 -24 10 -16 -12 -50 -47 -71 -43 -26 -13 -26 53 0 40 16 74 20 167 20
341 0 637 107 1118 403 117 72 146 96 298 248 173 175 189 185 238 159 12 -7
19 -21 19 -40 0 -25 -25 -56 -146 -182 -185 -193 -263 -263 -392 -348 -180
-120 -378 -212 -667 -311 -159 -54 -277 -101 -271 -107 8 -8 294 40 415 69
454 111 742 292 1019 641 55 69 72 81 98 71 23 -9 14 -131 -15 -198 -15 -35
-16 -44 -5 -30 27 34 80 146 104 220 13 39 47 122 75 186 105 232 127 330 106
476 -6 43 -18 155 -26 248 -25 261 -49 366 -148 639 -14 39 -24 74 -21 78 3 4
16 8 29 8 52 0 130 -133 180 -306 35 -121 53 -229 65 -397 14 -185 26 -243 53
-262 12 -8 24 -11 28 -7 9 9 37 174 45 268 14 150 -41 431 -114 587 -55 117
-83 155 -249 341 -242 271 -348 353 -596 462 -124 55 -136 63 -212 140 -62 62
-98 89 -157 118 -257 123 -690 139 -984 35 -309 -109 -602 -286 -737 -447
-124 -148 -187 -380 -114 -426 29 -18 49 4 107 120 62 124 106 188 177 255
103 98 202 158 378 230 66 27 143 65 170 84 103 70 173 89 375 99 241 13 453
-19 613 -93 76 -34 106 -64 87 -86 -20 -24 -98 -18 -206 17 -99 31 -99 31
-419 32 -288 1 -323 -1 -352 -17 -68 -37 -34 -77 87 -102 191 -40 257 -73 405
-201 197 -172 275 -335 275 -577 0 -175 -38 -326 -123 -492 -208 -401 -624
-609 -1086 -541 -395 59 -711 268 -864 571 -75 150 -106 306 -114 580 -8 292
25 471 129 700 28 61 76 169 108 242 71 160 120 236 216 330 237 231 694 408
1158 445 154 13 456 0 646 -27 137 -20 366 -77 494 -123 233 -83 607 -297 826
-472 95 -77 194 -175 265 -265 26 -33 68 -80 94 -105 47 -46 47 -46 -12 105
-64 164 -118 272 -178 351 -32 44 -75 75 -291 210 -138 86 -311 185 -383 219
-323 155 -614 223 -1040 245 -451 23 -429 23 -654 -20z"/>
<path d="M3140 6250 c-35 -30 -35 -30 7 -10 23 11 47 20 53 20 5 0 10 5 10 10
0 19 -35 9 -70 -20z"/>
<path d="M4676 6199 c-473 -45 -978 -279 -1146 -531 -30 -45 -40 -70 -38 -92
5 -50 42 -47 114 9 229 179 340 249 515 323 472 200 1062 203 1564 7 375 -145
747 -396 975 -657 117 -133 215 -287 315 -491 48 -98 89 -176 91 -174 10 10
-60 368 -92 467 -45 144 -58 169 -136 266 -183 231 -475 453 -822 624 -263
130 -485 197 -771 235 -149 20 -437 27 -569 14z"/>
<path d="M4740 5934 c-262 -25 -480 -88 -704 -202 -48 -25 -155 -90 -237 -144
-82 -54 -182 -114 -221 -133 -96 -46 -146 -102 -213 -240 -77 -158 -96 -236
-102 -430 -15 -463 133 -824 416 -1014 296 -200 674 -242 966 -107 254 117
455 363 511 625 21 101 18 261 -7 351 -70 253 -280 439 -589 520 -177 46 -287
38 -425 -32 -168 -86 -332 -267 -352 -391 -6 -39 8 -67 33 -67 8 0 65 51 126
113 172 173 300 237 472 237 278 -1 524 -180 600 -439 20 -69 21 -209 1 -285
-45 -171 -212 -363 -397 -457 -250 -126 -582 -83 -811 106 -157 130 -235 279
-288 550 -12 61 -32 139 -46 175 -81 213 5 479 212 653 254 213 603 383 910
444 128 25 464 25 590 0 185 -37 353 -103 516 -205 35 -22 130 -78 211 -126
261 -153 439 -304 610 -518 261 -326 346 -582 359 -1078 1 -45 1 -45 10 -10
45 187 51 602 10 754 -52 194 -255 496 -470 699 -243 228 -648 468 -959 567
-226 73 -506 105 -732 84z"/>
<path d="M4320 4880 c-93 -22 -176 -72 -300 -178 -41 -35 -103 -78 -138 -95
-76 -36 -93 -64 -100 -163 -8 -132 48 -264 159 -368 170 -161 411 -202 617
-104 57 27 106 66 279 225 68 63 88 127 80 256 -4 75 -10 99 -41 161 -61 125
-185 226 -320 262 -56 15 -180 17 -236 4z m256 -165 c99 -41 173 -122 205
-226 30 -97 18 -227 -23 -253 -28 -17 -38 3 -48 101 -11 103 -27 147 -72 199
-43 49 -100 74 -168 74 -93 0 -162 -44 -195 -122 -52 -126 58 -243 174 -184
51 27 64 97 20 111 -38 12 -14 55 31 55 97 0 125 -190 42 -284 -34 -38 -112
-66 -188 -66 -59 0 -81 5 -132 31 -145 72 -198 217 -130 358 44 93 171 194
275 221 51 13 162 5 209 -15z"/>
<path d="M5786 4407 c-8 -12 -31 -103 -50 -201 -44 -222 -75 -338 -124 -458
-101 -252 -298 -527 -469 -658 -148 -112 -412 -216 -613 -240 -168 -20 -514
-8 -727 25 -51 8 -114 15 -140 14 -48 0 -48 0 82 -65 226 -111 349 -137 670
-138 212 -1 224 0 325 27 183 50 346 120 465 200 111 76 170 141 292 331 239
370 306 550 349 945 18 159 16 198 -12 225 -21 21 -31 20 -48 -7z"/>
<path d="M5956 4308 c-8 -18 -19 -104 -25 -191 -14 -183 -30 -287 -66 -410
-47 -163 -84 -238 -227 -456 -83 -126 -104 -175 -96 -217 5 -28 22 -27 74 8
61 41 193 199 256 305 95 160 152 357 167 573 8 111 0 304 -14 345 -29 86 -47
97 -69 43z"/>
<path d="M6871 3774 c0 -11 3 -14 6 -6 3 7 2 16 -1 19 -3 4 -6 -2 -5 -13z"/>
<path d="M6796 3588 c-13 -24 -27 -56 -30 -73 -4 -16 -3 -23 0 -15 4 8 20 41
36 73 33 67 30 76 -6 15z"/>
</g>
</svg>
