<?xml version="1.0" standalone="no"?>
<!DOCTYPE svg PUBLIC "-//W3C//DTD SVG 20010904//EN"
 "http://www.w3.org/TR/2001/REC-SVG-20010904/DTD/svg10.dtd">
<svg version="1.0" xmlns="http://www.w3.org/2000/svg"
 width="1000.000000pt" height="1000.000000pt" viewBox="0 0 1000.000000 1000.000000"
 preserveAspectRatio="xMidYMid meet">
<metadata>
  <rdf:RDF
    xmlns:rdf = "http://www.w3.org/1999/02/22-rdf-syntax-ns#"
    xmlns:rdfs = "http://www.w3.org/2000/01/rdf-schema#"
    xmlns:dc = "http://purl.org/dc/elements/1.1/"
    xmlns:cc = "http://creativecommons.org/ns#">
    <cc:license rdf:resource="http://creativecommons.org/publicdomain/zero/1.0/deed.en"/>
    <cc:permits rdf:resource="http://creativecommons.org/ns#Reproduction"/>
    <rdf:Description about="https://nft.mir.one/fingerprints"
      dc:title="TON Fingerprints"
      dc:description="This is a unique digital fingerprint created based on the algorithm for generating basic rings using a noise texture. Like human fingerprints, you can now use it for the Web3 and Metaverse era as digital biometric information."
      dc:publisher="https://nft.mir.one"
      dc:date="2022-02-22"
      dc:format="image/svg+xml"
      dc:language="en" >
      <dc:creator>
      <rdf:Bag>
        <rdf:li>EQBondcvD2_aOFADXSWJHs4ZazQDuEl9_wNvGGPxI8hGuOFU</rdf:li>
        <rdf:li>ipfs://bafkreihj7iub3fhmhq6jn62noukt5wxn3gv6bvcg7wmt6ywvlurefezckq</rdf:li>
      </rdf:Bag>
      </dc:creator>
    </rdf:Description>
  </rdf:RDF>
</metadata>
<rect width="100%" height="100%" fill="#1b1f23"/>
<g transform="translate(0.000000,1000.000000) scale(0.100000,-0.100000)"
fill="#ffffff" stroke="none">
<path d="M4768 7803 c7 -3 16 -2 19 1 4 3 -2 6 -13 5 -11 0 -14 -3 -6 -6z"/>
<path d="M4860 7788 c96 -20 431 -111 550 -150 244 -78 598 -235 727 -321 68
-45 113 -97 113 -129 0 -20 -32 -48 -56 -48 -10 0 -68 30 -129 66 -328 198
-680 334 -1035 401 -74 13 -149 17 -335 18 -235 0 -244 -1 -415 -35 -175 -35
-175 -35 -100 -41 41 -4 125 -7 185 -8 324 -4 681 -67 1015 -179 160 -54 287
-105 522 -211 166 -75 246 -101 314 -101 57 0 228 -90 328 -173 51 -42 51 -42
-11 28 -34 39 -96 104 -138 145 -42 41 -91 100 -110 131 -70 113 -244 243
-490 364 -266 131 -495 200 -798 240 -135 17 -213 19 -137 3z"/>
<path d="M4203 7399 c-128 -27 -227 -65 -394 -153 -144 -76 -144 -76 -76 -76
54 0 86 7 160 36 169 65 353 85 612 65 444 -35 880 -163 1334 -391 311 -155
413 -235 661 -515 260 -294 395 -436 439 -460 24 -14 45 -25 46 -25 2 0 -38
75 -89 168 -211 385 -418 654 -600 777 -76 51 -301 158 -646 305 -277 118
-545 199 -810 244 -285 49 -486 57 -637 25z"/>
<path d="M4041 7145 c-91 -22 -116 -71 -48 -95 17 -6 132 -15 254 -20 336 -15
529 -44 796 -120 274 -79 543 -192 722 -305 286 -180 473 -375 359 -375 -41 0
-127 51 -294 176 -197 148 -258 184 -433 254 -418 169 -684 229 -1152 260
-165 11 -241 23 -355 55 -33 10 -74 14 -103 11 -61 -7 -187 -66 -311 -149
-100 -65 -100 -65 -62 -72 22 -5 81 0 144 10 165 26 323 29 612 11 461 -29
605 -53 851 -144 74 -28 198 -71 276 -97 79 -25 178 -64 222 -86 76 -38 151
-104 151 -133 0 -30 46 -68 158 -130 64 -35 168 -87 230 -115 163 -72 257
-146 416 -331 201 -231 338 -456 495 -811 48 -109 110 -231 111 -218 0 19 -63
312 -89 409 -16 63 -44 181 -60 261 -55 269 -68 290 -406 664 -69 77 -163 194
-207 260 -121 178 -218 267 -427 393 -368 221 -856 385 -1297 437 -159 18
-476 19 -553 0z"/>
<path d="M3822 6660 c-101 -11 -310 -59 -352 -80 -50 -25 -173 -121 -251 -196
-66 -63 -66 -63 -30 -71 24 -6 55 -5 91 4 30 7 120 22 200 34 80 11 150 24
156 27 6 4 24 22 39 40 33 40 82 66 155 82 135 29 807 19 964 -15 102 -22 144
-55 94 -74 -13 -5 -273 -13 -578 -19 -578 -10 -630 -14 -630 -53 0 -24 43 -56
104 -76 42 -14 107 -17 372 -21 310 -4 324 -3 390 19 53 17 106 23 229 29 258
12 325 -6 425 -110 46 -48 78 -68 185 -120 280 -134 332 -162 400 -213 39 -29
101 -91 138 -138 38 -46 106 -129 151 -184 186 -223 246 -316 297 -456 17 -46
64 -155 105 -241 119 -255 170 -418 263 -853 27 -126 58 -250 69 -275 19 -45
19 -45 27 85 12 197 0 400 -30 522 -39 161 -110 363 -187 532 -87 192 -100
230 -93 259 16 63 87 -7 169 -167 94 -184 154 -346 220 -596 19 -71 42 -148
51 -170 15 -38 15 -32 10 135 -7 284 -39 442 -124 623 -68 146 -125 230 -233
345 -51 54 -139 156 -195 227 -192 245 -359 398 -561 514 -120 69 -158 85
-298 124 -132 38 -267 88 -301 112 -13 9 -20 22 -17 30 11 28 66 27 186 -4
130 -35 165 -37 193 -17 19 14 19 15 0 36 -45 50 -197 108 -365 140 -135 25
-207 50 -290 99 -120 71 -238 101 -478 121 -170 14 -582 21 -670 10z"/>
<path d="M4650 6202 c-41 -4 -60 -18 -60 -42 0 -25 58 -45 205 -70 122 -21
190 -44 213 -73 20 -23 6 -37 -36 -37 -71 0 -337 50 -432 81 -94 31 -97 31
-390 39 -223 7 -328 14 -430 30 -147 24 -320 24 -412 0 -61 -16 -134 -82 -232
-209 -76 -100 -76 -100 -39 -94 21 3 65 16 98 28 227 88 364 99 766 59 160
-16 179 -16 298 -1 164 22 213 21 423 -4 95 -11 250 -24 343 -28 162 -7 174
-10 260 -43 109 -43 204 -90 344 -170 129 -75 168 -91 197 -84 19 5 24 13 24
39 0 76 -116 164 -401 305 -110 54 -214 113 -259 147 -93 71 -156 101 -240
114 -82 12 -194 19 -240 13z"/>
<path d="M4304 5799 c-53 -12 -79 -40 -70 -73 10 -42 58 -60 143 -52 68 5 226
-14 259 -32 7 -4 26 -26 43 -50 27 -36 52 -52 169 -108 289 -139 372 -205 517
-409 117 -164 158 -246 233 -465 33 -96 92 -250 132 -342 119 -281 146 -423
111 -604 -11 -60 -32 -201 -46 -313 -39 -317 -97 -525 -207 -745 -52 -104
-190 -319 -236 -370 -15 -16 27 11 93 61 128 96 251 218 309 305 83 125 149
416 180 803 8 99 20 193 27 208 32 70 69 -2 76 -148 6 -116 -8 -283 -43 -515
-28 -182 -44 -253 -78 -344 -25 -64 -56 -166 -52 -166 6 0 136 170 169 221 82
123 129 370 131 674 1 198 -5 233 -60 371 -19 46 -52 160 -73 253 -46 196 -58
227 -111 296 -62 81 -105 187 -170 421 -90 324 -141 417 -319 587 -179 170
-415 294 -698 367 -49 12 -55 31 -18 48 74 34 293 -17 493 -115 128 -62 373
-227 453 -304 71 -69 131 -155 155 -222 8 -23 24 -105 35 -182 34 -246 79
-443 117 -507 10 -18 25 -28 39 -28 38 0 47 39 33 155 -22 191 -40 370 -40
406 0 83 52 89 97 11 27 -45 28 -54 29 -177 0 -71 6 -236 12 -365 11 -242 22
-316 87 -580 70 -289 74 -502 14 -807 -11 -57 -19 -122 -17 -145 4 -43 4 -43
70 92 36 74 81 180 99 235 31 94 33 109 33 235 -1 158 -11 242 -65 518 -22
112 -53 289 -70 394 -16 105 -41 240 -54 299 -14 59 -25 117 -25 128 0 31 34
26 63 -9 54 -63 104 -248 191 -700 67 -347 88 -509 86 -660 -1 -63 -1 -142 0
-175 1 -60 1 -60 41 70 47 158 67 256 75 378 5 81 2 114 -31 277 -81 408 -142
634 -209 775 -56 119 -202 336 -311 460 -235 270 -272 303 -375 331 -30 8
-167 71 -305 140 -277 138 -353 163 -550 183 -159 15 -532 22 -581 10z"/>
<path d="M3373 5756 c-91 -18 -200 -53 -235 -78 -31 -21 -113 -123 -152 -188
-15 -25 -34 -55 -42 -67 -15 -21 -15 -21 28 -8 24 7 86 34 138 58 120 58 244
94 362 106 250 25 445 -46 507 -184 24 -52 37 -63 156 -124 76 -38 124 -56
201 -71 150 -30 310 -98 638 -275 161 -87 260 -162 313 -239 36 -53 42 -81 17
-90 -23 -9 -59 11 -168 93 -212 160 -606 361 -765 391 -59 11 -97 -1 -107 -33
-11 -34 39 -68 201 -136 257 -108 438 -215 700 -413 130 -99 186 -165 253
-301 100 -203 136 -365 136 -612 -1 -277 -32 -443 -118 -613 -24 -48 -56 -116
-71 -152 -15 -36 -72 -159 -128 -274 -82 -171 -101 -218 -101 -257 -1 -33 5
-53 18 -68 20 -22 46 -28 46 -11 0 6 -4 10 -10 10 -5 0 -10 11 -10 25 0 17 29
55 98 128 86 91 107 121 165 234 159 310 224 537 257 898 31 338 1 496 -160
850 -90 200 -88 194 -105 283 -19 98 -65 189 -136 266 -62 67 -81 78 -169 96
-35 7 -122 46 -240 108 -102 54 -266 138 -365 186 -180 88 -180 88 -325 236
-159 161 -168 167 -345 212 -104 26 -374 34 -482 14z"/>
<path d="M4357 5583 c-16 -15 -5 -41 31 -74 45 -44 101 -77 347 -206 105 -55
239 -130 299 -167 118 -71 166 -84 166 -43 0 69 -108 156 -365 292 -49 26
-135 74 -190 106 -137 80 -261 120 -288 92z"/>
<path d="M3488 5440 c-109 -13 -238 -54 -349 -112 -67 -35 -100 -77 -179 -228
-55 -105 -55 -105 -15 -85 22 11 74 43 115 71 227 155 517 244 661 204 35 -10
77 -45 67 -56 -3 -3 -49 -14 -101 -25 -172 -35 -360 -113 -522 -216 -86 -55
-97 -67 -146 -169 -34 -72 -39 -91 -39 -153 0 -45 -7 -89 -19 -121 -11 -27
-18 -50 -18 -50 37 4 168 73 197 105 25 26 25 27 5 41 -11 8 -29 12 -40 9 -11
-3 -35 -8 -52 -12 -31 -5 -33 -4 -33 22 0 19 11 37 33 57 48 42 361 229 527
313 169 86 196 106 214 159 11 33 21 42 60 57 60 22 76 36 76 64 0 45 -129
105 -264 124 -84 12 -81 12 -178 1z"/>
<path d="M3944 5091 c-71 -26 -427 -236 -559 -332 -132 -94 -168 -130 -183
-184 -6 -23 -29 -65 -51 -94 -57 -75 -90 -188 -106 -351 -4 -36 -9 -74 -12
-84 -8 -28 48 38 83 98 61 107 155 219 333 399 205 208 218 217 495 363 93 49
175 99 184 112 13 20 12 25 -2 47 -32 48 -96 57 -182 26z"/>
<path d="M4093 4841 c-35 -16 -63 -45 -63 -65 0 -13 48 -28 149 -46 139 -25
224 -56 382 -137 282 -144 512 -368 613 -597 82 -185 106 -320 114 -653 6
-229 9 -265 24 -280 17 -16 19 -16 42 6 52 49 76 187 76 434 0 437 -128 726
-430 970 -180 145 -440 291 -636 356 -111 37 -205 41 -271 12z"/>
<path d="M3822 4685 c-119 -41 -181 -93 -155 -133 9 -15 36 -18 189 -23 160
-5 190 -9 284 -37 406 -119 672 -350 794 -692 73 -200 95 -383 57 -466 -19
-42 -63 -84 -88 -84 -8 0 -21 -17 -29 -37 -134 -326 -282 -493 -530 -597 -47
-20 -114 -43 -147 -52 -34 -8 -80 -24 -103 -35 -22 -10 -49 -20 -60 -20 -42
-3 216 -38 281 -38 178 -1 274 34 396 147 94 87 168 203 250 390 41 94 79 166
94 180 52 45 62 24 46 -101 -21 -166 -102 -358 -222 -532 -93 -135 -159 -185
-260 -200 -25 -4 -72 -21 -103 -39 -56 -32 -56 -32 44 -28 85 4 101 2 106 -12
3 -9 12 -16 19 -16 7 0 23 -12 34 -27 11 -16 21 -23 21 -16 0 7 41 33 90 59
149 77 180 111 276 309 87 179 144 331 144 386 0 32 -17 92 -66 234 -21 60
-24 89 -24 200 0 416 -158 743 -473 976 -141 105 -281 173 -479 234 -59 18
-133 47 -164 64 -71 38 -122 40 -222 6z"/>
<path d="M3631 4399 c-29 -5 -77 -22 -105 -37 -110 -59 -280 -254 -306 -353
-19 -69 -13 -266 11 -376 25 -117 68 -247 109 -334 17 -35 28 -55 24 -44 -4
11 -15 46 -25 78 -30 92 -44 279 -29 379 23 158 91 290 202 393 96 89 196 130
344 141 225 18 464 -72 624 -235 88 -90 133 -162 155 -249 16 -59 15 -69 0
-133 -22 -90 -14 -104 60 -94 28 3 58 3 67 0 21 -8 44 -66 53 -130 11 -84 25
-124 44 -135 16 -8 21 -4 35 30 9 23 16 69 16 109 0 59 -5 78 -39 147 -21 43
-49 120 -61 169 -29 115 -56 177 -121 270 -146 211 -422 370 -704 404 -105 13
-276 13 -354 0z"/>
<path d="M3831 4105 c-188 -42 -332 -191 -372 -384 -19 -90 -7 -233 26 -314
61 -151 171 -279 272 -317 127 -49 282 -36 422 34 36 19 92 41 124 50 107 31
197 155 205 282 4 51 0 72 -22 119 -38 84 -31 106 22 69 35 -24 56 -11 49 32
-7 43 -78 159 -142 231 -138 156 -391 242 -584 198z m324 -189 c78 -39 143
-98 184 -166 24 -41 26 -56 29 -172 4 -145 -8 -205 -59 -281 -33 -50 -48 -57
-69 -32 -11 13 -9 36 10 125 43 206 4 329 -129 408 -63 37 -166 38 -231 2
-116 -65 -146 -211 -61 -300 35 -37 42 -40 90 -40 42 0 57 5 76 24 48 48 44
108 -8 114 -30 4 -41 26 -27 52 23 43 94 36 138 -15 36 -41 46 -91 32 -159
-35 -169 -191 -241 -342 -159 -57 31 -88 65 -126 137 -24 46 -27 62 -27 151 0
117 17 165 86 240 108 117 281 145 434 71z"/>
<path d="M6981 4104 c0 -11 3 -14 6 -6 3 7 2 16 -1 19 -3 4 -6 -2 -5 -13z"/>
<path d="M4664 3444 c-19 -19 -34 -40 -34 -46 0 -6 -24 -61 -54 -122 -77 -158
-159 -237 -330 -316 -110 -51 -202 -73 -316 -73 -88 -1 -126 5 -307 48 -29 6
-53 11 -53 9 0 -1 28 -22 63 -47 158 -112 304 -174 433 -184 57 -5 84 -1 140
17 271 88 477 302 520 539 7 42 13 106 14 144 0 62 -2 67 -21 67 -12 0 -37
-16 -55 -36z"/>
</g>
</svg>
