<?xml version="1.0" standalone="no"?>
<!DOCTYPE svg PUBLIC "-//W3C//DTD SVG 20010904//EN"
 "http://www.w3.org/TR/2001/REC-SVG-20010904/DTD/svg10.dtd">
<svg version="1.0" xmlns="http://www.w3.org/2000/svg"
 width="1000.000000pt" height="1000.000000pt" viewBox="0 0 1000.000000 1000.000000"
 preserveAspectRatio="xMidYMid meet">
<metadata>
  <rdf:RDF
    xmlns:rdf = "http://www.w3.org/1999/02/22-rdf-syntax-ns#"
    xmlns:rdfs = "http://www.w3.org/2000/01/rdf-schema#"
    xmlns:dc = "http://purl.org/dc/elements/1.1/"
    xmlns:cc = "http://creativecommons.org/ns#">
    <cc:license rdf:resource="http://creativecommons.org/publicdomain/zero/1.0/deed.en"/>
    <cc:permits rdf:resource="http://creativecommons.org/ns#Reproduction"/>
    <rdf:Description about="https://nft.mir.one/fingerprints"
      dc:title="TON Fingerprints"
      dc:description="This is a unique digital fingerprint created based on the algorithm for generating basic rings using a noise texture. Like human fingerprints, you can now use it for the Web3 and Metaverse era as digital biometric information."
      dc:publisher="https://nft.mir.one"
      dc:date="2022-02-22"
      dc:format="image/svg+xml"
      dc:language="en" >
      <dc:creator>
      <rdf:Bag>
        <rdf:li>EQBondcvD2_aOFADXSWJHs4ZazQDuEl9_wNvGGPxI8hGuOFU</rdf:li>
        <rdf:li>ipfs://bafkreihj7iub3fhmhq6jn62noukt5wxn3gv6bvcg7wmt6ywvlurefezckq</rdf:li>
      </rdf:Bag>
      </dc:creator>
    </rdf:Description>
  </rdf:RDF>
</metadata>
<rect width="100%" height="100%" fill="#1b1f23"/>
<g transform="translate(0.000000,1000.000000) scale(0.100000,-0.100000)"
fill="#ffffff" stroke="none">
<path d="M5440 7686 c0 -14 9 -35 21 -47 53 -53 247 -114 389 -122 95 -5 95
-5 -115 67 -254 89 -258 90 -278 111 -16 15 -17 15 -17 -9z"/>
<path d="M4565 7624 c-130 -20 -235 -49 -359 -100 -113 -47 -350 -163 -344
-170 2 -2 20 1 39 6 100 28 374 90 444 101 125 20 397 15 535 -9 274 -49 554
-166 782 -326 57 -39 141 -95 188 -123 147 -89 725 -365 803 -384 21 -5 50
-17 64 -26 31 -21 -164 171 -222 218 -86 69 -212 144 -379 224 -252 120 -336
179 -336 231 0 43 23 36 356 -109 83 -36 177 -70 209 -76 74 -14 76 -14 40 6
-16 9 -84 51 -150 93 -218 141 -354 197 -446 185 -64 -9 -161 25 -367 129
-176 89 -259 117 -412 135 -115 15 -335 12 -445 -5z"/>
<path d="M4325 7290 c-209 -27 -368 -74 -482 -142 -64 -39 -70 -53 -36 -75 35
-23 156 -23 392 2 335 34 603 10 876 -81 384 -127 842 -361 1074 -548 34 -28
105 -101 157 -163 52 -62 139 -160 194 -219 114 -121 311 -363 385 -474 28
-41 82 -137 120 -212 38 -75 71 -136 72 -134 5 5 -78 278 -109 355 -50 128
-156 324 -214 397 -30 38 -101 119 -159 180 -146 156 -174 201 -144 231 29 29
116 -41 342 -271 178 -181 178 -181 106 -56 -88 154 -133 220 -204 303 -73 87
-125 119 -222 140 -56 12 -105 32 -169 69 -49 28 -186 105 -304 171 -118 66
-285 159 -371 208 -264 151 -502 246 -734 295 -98 21 -155 26 -310 29 -104 2
-221 0 -260 -5z"/>
<path d="M3650 6926 c-76 -27 -100 -38 -200 -100 -74 -46 -74 -46 31 -46 119
0 157 -9 211 -51 50 -39 62 -44 230 -83 178 -43 196 -50 277 -115 74 -60 103
-76 242 -132 113 -44 265 -118 314 -152 129 -88 240 -205 344 -360 106 -158
161 -316 116 -333 -22 -9 -50 22 -152 162 -152 209 -297 338 -493 438 -181 93
-391 157 -521 159 -75 2 -75 2 -185 -65 -60 -36 -134 -78 -164 -93 -30 -15
-126 -73 -215 -129 -88 -57 -192 -121 -231 -144 -106 -61 -178 -147 -273 -321
-50 -92 -50 -92 20 -29 129 116 187 146 247 129 30 -9 37 -6 111 54 171 138
396 262 565 310 177 50 380 26 581 -69 142 -67 234 -136 405 -301 85 -83 180
-170 210 -192 85 -64 145 -178 194 -367 60 -230 61 -445 3 -666 -97 -370 -188
-538 -349 -648 -72 -49 -327 -180 -404 -206 -166 -58 -373 -91 -529 -84 -86 4
-119 11 -235 51 -74 26 -167 53 -207 61 -95 19 -121 34 -214 123 -185 177
-300 400 -345 668 -24 147 -25 524 -1 619 29 114 74 214 164 363 83 140 102
185 95 231 -5 30 -20 28 -69 -12 -121 -96 -207 -271 -250 -510 -23 -125 -22
-445 2 -621 45 -343 139 -582 378 -960 149 -236 198 -293 459 -544 211 -202
256 -236 358 -273 59 -21 81 -23 245 -22 168 0 185 2 262 27 78 26 155 74 195
121 10 12 49 64 87 116 38 52 146 175 240 273 235 246 300 334 285 392 -8 34
-45 42 -94 20 -45 -21 -157 -134 -250 -254 -35 -46 -97 -113 -138 -149 -42
-38 -95 -100 -126 -147 -101 -153 -215 -220 -418 -246 -141 -18 -333 17 -351
65 -14 35 9 41 190 47 195 7 267 20 368 71 115 56 161 129 87 136 -18 2 -73
-9 -122 -23 -177 -52 -383 -69 -540 -45 -118 18 -347 150 -474 273 -66 64 -88
106 -66 132 15 18 31 12 168 -65 105 -58 267 -120 313 -120 13 0 41 14 63 30
40 30 65 37 299 80 150 28 246 57 409 126 99 43 148 57 202 63 87 8 112 23
213 122 110 108 110 108 188 467 20 90 55 213 78 275 42 112 42 112 41 277 -1
185 -16 286 -83 561 -22 90 -49 217 -60 281 -25 140 -62 246 -131 375 -67 125
-166 283 -213 340 -118 143 -331 248 -647 318 -117 27 -147 42 -137 69 18 48
123 70 259 55 180 -20 339 -73 559 -184 127 -64 127 -64 220 -62 83 2 105 -2
194 -32 197 -67 295 -124 413 -240 129 -128 188 -218 217 -332 9 -35 45 -125
81 -200 141 -299 249 -728 261 -1029 11 -272 -40 -490 -178 -764 -127 -253
-401 -607 -619 -800 -213 -189 -466 -326 -601 -326 -63 0 -116 -61 -82 -95 24
-24 62 -29 144 -16 155 24 331 100 521 227 251 168 421 346 634 665 159 238
257 453 310 684 24 106 28 141 28 295 1 233 -20 348 -147 790 -76 263 -97 318
-178 463 -61 109 -70 149 -37 155 25 5 110 -79 163 -159 63 -93 90 -161 109
-265 9 -49 38 -156 63 -239 102 -332 114 -375 140 -495 22 -104 26 -151 26
-280 1 -155 -6 -209 -45 -370 -75 -311 -329 -737 -640 -1073 -112 -121 -188
-179 -387 -292 -178 -102 -305 -157 -440 -192 -91 -23 -106 -24 -271 -18 -132
4 -201 2 -280 -9 -120 -18 -364 -21 -460 -5 -36 5 -108 14 -160 19 -52 5 -104
12 -115 16 -11 4 -18 4 -15 1 11 -12 236 -96 325 -121 132 -37 260 -56 440
-63 427 -16 729 56 1049 251 104 63 147 78 161 56 12 -19 -38 -111 -81 -149
-127 -112 -563 -268 -919 -330 -60 -11 -101 -20 -90 -20 47 -2 301 30 396 49
268 54 622 208 715 311 14 15 25 45 29 79 4 30 11 65 16 77 4 12 61 77 125
145 204 213 314 355 454 583 205 335 321 663 352 1001 20 222 9 271 -175 764
-52 140 -98 269 -101 285 -8 40 5 60 30 47 32 -17 82 -111 189 -354 56 -128
114 -258 130 -288 27 -53 116 -163 101 -124 -4 10 -19 60 -33 109 -139 494
-183 593 -333 750 -48 49 -122 137 -165 194 -43 56 -117 137 -164 180 -46 42
-150 139 -230 217 -281 271 -414 347 -926 532 -470 169 -642 199 -961 167
-205 -21 -366 -16 -471 14 -40 12 -76 21 -80 21 -5 0 -37 -11 -73 -24z"/>
<path d="M3495 6653 c-44 -22 -95 -74 -95 -95 0 -23 21 -23 126 0 117 26 171
67 129 98 -25 19 -123 17 -160 -3z"/>
<path d="M3314 6460 c-33 -22 -79 -58 -104 -80 -45 -41 -45 -41 66 -34 92 5
116 4 142 -10 50 -26 42 -51 -20 -72 -29 -9 -69 -25 -89 -35 -47 -24 -141
-118 -222 -223 -65 -83 -65 -83 -15 -64 27 10 65 29 86 42 20 13 91 55 157 94
73 43 140 91 170 122 54 56 90 78 175 105 87 28 150 63 163 92 10 23 8 28 -18
51 -29 25 -30 25 -166 18 -123 -6 -142 -5 -190 14 -30 11 -59 20 -65 20 -7 0
-38 -18 -70 -40z"/>
<path d="M5227 6394 c-4 -4 -7 -26 -7 -48 0 -32 24 -92 106 -260 132 -274 170
-386 234 -701 63 -312 85 -447 105 -650 18 -180 16 -171 56 -279 57 -151 48
-309 -26 -465 -36 -75 -60 -90 -71 -45 -7 28 -4 61 21 224 25 159 10 270 -36
270 -31 0 -55 -67 -84 -234 -49 -284 -23 -385 86 -347 18 6 46 11 62 11 97 0
206 147 238 320 11 62 10 70 -19 162 -18 54 -40 159 -51 240 -11 79 -30 213
-41 298 -12 85 -37 236 -55 335 -19 99 -46 246 -60 327 -32 185 -59 266 -151
451 -41 81 -81 175 -88 208 -18 77 -32 97 -97 142 -54 37 -108 55 -122 41z"/>
<path d="M5532 6279 c-29 -11 -24 -36 19 -94 197 -270 243 -375 253 -578 4
-80 22 -200 55 -370 57 -289 76 -430 94 -679 14 -182 21 -208 59 -208 13 0 26
14 40 48 17 38 22 73 26 179 7 214 -22 421 -114 802 -45 189 -50 225 -34 251
7 12 12 11 30 -5 45 -41 100 -186 154 -405 84 -348 102 -658 48 -825 -32 -95
-176 -408 -218 -472 -42 -63 -119 -144 -227 -237 -46 -39 -75 -74 -89 -105
-100 -222 -81 -197 -333 -446 -128 -126 -238 -240 -244 -252 -18 -36 -14 -53
14 -53 74 0 362 204 525 373 100 104 369 440 461 576 119 177 224 419 266 614
26 120 23 381 -6 542 -63 352 -151 613 -261 775 -20 30 -65 107 -99 170 -93
170 -186 286 -283 353 -63 44 -104 57 -136 46z"/>
<path d="M3955 5854 c-159 -35 -334 -125 -443 -229 -107 -102 -305 -428 -351
-579 -28 -91 -28 -170 1 -216 21 -33 22 -47 23 -245 0 -200 2 -214 28 -299 48
-154 109 -259 207 -356 81 -81 93 -89 264 -173 275 -135 298 -142 491 -142
248 1 330 29 560 191 163 115 256 204 313 300 118 200 191 480 178 684 -22
321 -123 513 -398 757 -172 152 -308 234 -478 288 -109 34 -287 43 -395 19z
m331 -214 c169 -43 407 -189 537 -330 249 -269 306 -590 164 -926 -70 -167
-192 -316 -304 -370 -45 -23 -80 -30 -201 -41 -183 -17 -262 -12 -344 22 -35
15 -97 37 -138 49 -41 12 -85 28 -97 34 -60 33 -160 205 -188 325 -60 254 78
529 335 666 114 61 232 102 291 102 148 0 314 -122 401 -294 55 -109 72 -265
32 -298 -22 -18 -48 11 -75 84 -38 105 -69 159 -127 219 -101 106 -216 144
-345 114 -171 -40 -306 -158 -357 -312 -30 -88 -25 -216 9 -284 40 -77 71
-111 129 -138 46 -21 64 -24 112 -19 69 8 176 45 230 81 88 58 123 167 82 258
-51 116 -207 145 -257 48 -20 -38 -19 -53 4 -81 20 -24 20 -24 52 -6 39 22 59
9 59 -38 0 -76 -112 -114 -193 -67 -88 52 -96 198 -17 294 57 69 183 112 265
89 164 -44 292 -265 241 -418 -35 -106 -124 -176 -293 -229 -103 -32 -143 -53
-143 -73 0 -4 9 -16 20 -26 45 -41 279 -11 401 51 118 59 174 127 283 339 76
148 92 214 76 325 -13 90 -27 135 -65 210 -63 126 -158 231 -288 319 -66 45
-248 134 -332 162 -91 31 -241 33 -325 5 -222 -75 -371 -220 -549 -533 -53
-95 -98 -143 -132 -143 -29 0 -24 29 26 151 140 342 361 584 604 663 104 34
102 34 227 35 81 1 132 -4 190 -19z m-128 -301 c34 -12 48 -35 31 -55 -6 -7
-47 -25 -91 -39 -241 -78 -396 -217 -508 -458 -99 -212 -87 -418 36 -632 57
-99 66 -140 33 -148 -81 -21 -217 144 -266 324 -24 90 -24 265 1 339 25 75
117 248 179 339 60 86 152 183 217 228 135 92 281 133 368 102z m-76 -1475
c114 -23 216 -26 331 -11 117 16 150 13 145 -11 -4 -22 -62 -60 -111 -73 -129
-35 -269 -38 -382 -9 -88 22 -117 38 -142 76 -16 25 -16 27 2 40 20 15 30 14
157 -12z"/>
<path d="M4900 3455 c-188 -97 -401 -154 -652 -174 -146 -12 -160 -16 -156
-44 8 -53 134 -82 284 -67 131 14 444 85 501 114 58 29 148 108 168 147 8 15
15 39 15 54 0 39 -40 32 -160 -30z"/>
<path d="M6519 3073 c-13 -16 -12 -17 4 -4 9 7 17 15 17 17 0 8 -8 3 -21 -13z"/>
<path d="M3567 2969 c44 -46 91 -100 103 -119 22 -35 22 -35 15 -6 -10 45 -39
80 -123 147 -77 62 -77 62 5 -22z"/>
<path d="M6489 3033 c-13 -16 -12 -17 4 -4 16 13 21 21 13 21 -2 0 -10 -8 -17
-17z"/>
<path d="M6454 2988 c-19 -23 -19 -23 4 -4 12 11 22 21 22 23 0 8 -8 2 -26
-19z"/>
<path d="M6380 2898 c-30 -35 -97 -108 -149 -164 -96 -100 -96 -100 14 10 102
103 203 216 192 216 -2 0 -28 -28 -57 -62z"/>
<path d="M6060 2590 c-9 -6 -10 -10 -3 -10 6 0 15 5 18 10 8 12 4 12 -15 0z"/>
<path d="M6005 2580 c3 -5 14 -10 23 -10 15 0 15 2 2 10 -20 13 -33 13 -25 0z"/>
</g>
</svg>
