<?xml version="1.0" standalone="no"?>
<!DOCTYPE svg PUBLIC "-//W3C//DTD SVG 20010904//EN"
 "http://www.w3.org/TR/2001/REC-SVG-20010904/DTD/svg10.dtd">
<svg version="1.0" xmlns="http://www.w3.org/2000/svg"
 width="1000.000000pt" height="1000.000000pt" viewBox="0 0 1000.000000 1000.000000"
 preserveAspectRatio="xMidYMid meet">
<metadata>
  <rdf:RDF
    xmlns:rdf = "http://www.w3.org/1999/02/22-rdf-syntax-ns#"
    xmlns:rdfs = "http://www.w3.org/2000/01/rdf-schema#"
    xmlns:dc = "http://purl.org/dc/elements/1.1/"
    xmlns:cc = "http://creativecommons.org/ns#">
    <cc:license rdf:resource="http://creativecommons.org/publicdomain/zero/1.0/deed.en"/>
    <cc:permits rdf:resource="http://creativecommons.org/ns#Reproduction"/>
    <rdf:Description about="https://nft.mir.one/fingerprints"
      dc:title="TON Fingerprints"
      dc:description="This is a unique digital fingerprint created based on the algorithm for generating basic rings using a noise texture. Like human fingerprints, you can now use it for the Web3 and Metaverse era as digital biometric information."
      dc:publisher="https://nft.mir.one"
      dc:date="2022-02-22"
      dc:format="image/svg+xml"
      dc:language="en" >
      <dc:creator>
      <rdf:Bag>
        <rdf:li>EQBondcvD2_aOFADXSWJHs4ZazQDuEl9_wNvGGPxI8hGuOFU</rdf:li>
        <rdf:li>ipfs://bafkreihj7iub3fhmhq6jn62noukt5wxn3gv6bvcg7wmt6ywvlurefezckq</rdf:li>
      </rdf:Bag>
      </dc:creator>
    </rdf:Description>
  </rdf:RDF>
</metadata>
<rect width="100%" height="100%" fill="#1b1f23"/>
<g transform="translate(0.000000,1000.000000) scale(0.100000,-0.100000)"
fill="#ffffff" stroke="none">
<path d="M5081 7720 c-29 -5 -83 -22 -120 -38 -44 -20 -116 -39 -216 -57 -366
-66 -663 -180 -905 -346 -54 -37 -142 -116 -240 -216 -85 -87 -137 -142 -115
-122 73 65 242 198 297 232 124 80 278 140 503 197 226 58 404 81 594 78 251
-4 356 0 531 23 132 17 187 20 275 13 61 -4 158 -8 216 -9 106 -1 106 -1 5 32
-133 44 -309 90 -371 98 -31 4 -78 0 -124 -10 -108 -23 -326 -31 -376 -13 -29
9 -40 19 -40 33 0 34 63 47 243 53 89 2 162 8 162 13 0 17 -41 29 -132 39
-104 11 -111 11 -187 0z"/>
<path d="M5306 7340 c-82 -5 -166 -11 -185 -14 -20 -4 -85 -15 -146 -26 -60
-11 -191 -24 -290 -30 -358 -20 -691 -119 -902 -269 -87 -61 -259 -223 -279
-263 -16 -31 -12 -48 12 -48 18 0 105 43 207 104 248 147 376 191 773 265 142
27 173 27 217 -3 19 -13 61 -32 93 -41 33 -9 111 -37 174 -62 115 -46 115 -46
200 -36 93 12 179 4 322 -27 171 -37 316 -117 510 -279 294 -246 536 -613 668
-1009 96 -289 104 -501 29 -790 -79 -306 -230 -629 -461 -984 -49 -76 -109
-180 -133 -232 -38 -83 -49 -97 -89 -121 -76 -45 -166 -47 -166 -4 0 12 24 48
54 80 85 91 336 500 460 749 223 448 286 776 215 1125 -55 273 -203 588 -387
825 -145 186 -379 388 -547 471 -68 34 -95 42 -175 49 -52 5 -128 21 -169 35
-122 41 -180 31 -153 -29 23 -51 308 -349 535 -559 131 -122 231 -240 286
-339 18 -32 44 -105 60 -170 16 -62 44 -167 64 -233 63 -214 71 -387 28 -558
-25 -97 -67 -181 -154 -305 -37 -53 -122 -180 -189 -281 -118 -180 -120 -184
-124 -247 -5 -91 -39 -152 -138 -249 -120 -118 -222 -172 -413 -221 -77 -19
-121 -24 -228 -24 -154 0 -251 16 -404 66 -239 79 -339 154 -670 507 -30 32
-66 60 -80 64 -129 30 -252 194 -336 446 -102 305 -94 651 20 892 65 137 172
255 232 255 36 0 29 -24 -39 -129 -34 -53 -77 -134 -94 -181 -47 -124 -57
-210 -51 -412 8 -248 40 -385 141 -593 60 -123 124 -205 161 -205 25 0 35 17
35 57 0 13 -31 118 -69 231 -74 220 -88 286 -116 567 -14 129 -14 173 -5 224
14 76 58 198 108 300 40 81 66 106 83 81 17 -25 2 -100 -47 -230 -52 -140 -70
-255 -41 -278 21 -17 43 -6 60 31 154 334 147 317 172 437 22 107 56 169 137
250 83 83 200 163 336 230 193 95 318 116 516 85 125 -20 147 -17 139 14 -13
50 -120 115 -238 146 -71 18 -211 21 -259 5 -80 -26 -485 -244 -620 -333 -169
-112 -222 -140 -314 -169 -97 -30 -133 -51 -208 -121 -118 -109 -196 -253
-245 -450 -29 -118 -37 -378 -15 -507 48 -276 160 -512 327 -687 97 -102 454
-442 520 -495 153 -123 311 -209 489 -266 155 -49 204 -57 355 -56 125 1 154
5 275 36 74 20 171 50 214 68 89 37 205 112 252 162 50 52 129 162 177 246
201 350 379 675 419 765 146 326 152 610 23 1004 -54 165 -118 296 -198 410
-72 101 -240 275 -377 388 -127 105 -179 154 -196 188 -47 88 60 48 247 -92
265 -200 442 -409 570 -675 110 -227 166 -438 176 -651 12 -271 -50 -510 -216
-835 -69 -136 -231 -419 -347 -607 -76 -123 -106 -180 -128 -250 -11 -32 -29
-62 -48 -78 -72 -61 -270 -140 -488 -195 -47 -12 -125 -34 -175 -50 -49 -15
-115 -31 -145 -35 -121 -15 -386 55 -606 159 -223 107 -331 194 -709 578 -116
117 -238 250 -272 296 -199 265 -293 543 -293 869 0 345 94 613 283 810 91 95
168 146 423 286 277 151 352 189 517 258 166 69 187 82 187 114 0 80 -206 50
-479 -70 -295 -129 -586 -300 -697 -410 -182 -180 -297 -566 -298 -1000 -1
-351 57 -619 191 -877 67 -128 153 -229 394 -458 131 -125 175 -174 226 -252
54 -83 74 -105 141 -152 147 -104 452 -251 783 -376 69 -26 179 -73 245 -103
177 -81 263 -100 459 -101 114 0 187 5 255 18 137 26 461 135 596 201 114 55
119 59 284 221 168 164 168 164 126 164 -34 0 -53 -8 -97 -41 -150 -112 -236
-149 -571 -245 -366 -104 -443 -118 -658 -119 -159 0 -179 2 -222 22 -101 47
-78 86 63 104 289 36 366 53 795 168 398 107 477 158 649 416 177 265 309 584
388 936 20 86 50 190 67 230 31 74 31 74 -10 34 -54 -52 -64 -73 -149 -310
-94 -261 -219 -516 -352 -715 -150 -226 -261 -330 -341 -318 -40 5 -31 32 37
109 177 200 360 507 478 799 76 188 174 482 187 560 22 140 6 382 -35 530 -70
252 -281 659 -453 875 -176 221 -408 427 -639 567 -129 78 -288 118 -532 133
-121 7 -201 25 -221 51 -11 13 -10 19 9 37 20 21 32 22 193 25 328 7 554 -42
625 -135 15 -19 99 -90 188 -156 372 -281 595 -561 820 -1033 69 -145 175
-333 175 -311 0 4 -41 118 -90 254 -243 667 -522 1038 -960 1276 -81 44 -79
80 3 79 55 -1 160 -40 240 -89 72 -43 265 -203 362 -299 69 -69 69 -69 16 -4
-280 342 -437 465 -676 525 -167 42 -391 58 -639 45z"/>
<path d="M4638 6999 c-41 -23 0 -62 42 -39 25 13 26 26 1 40 -23 12 -22 12
-43 -1z"/>
<path d="M4350 6874 c-176 -19 -306 -59 -549 -171 -102 -47 -213 -91 -248 -98
-35 -7 -76 -21 -90 -31 -39 -25 -107 -98 -192 -204 -41 -52 -98 -121 -125
-153 -48 -57 -48 -58 -20 -52 34 8 66 28 243 149 99 67 179 111 335 182 450
204 564 229 811 171 66 -15 167 -39 225 -52 239 -55 409 -191 410 -327 0 -58
8 -67 93 -110 196 -98 311 -182 499 -366 107 -103 143 -133 160 -130 34 5 35
54 4 115 -57 111 -177 238 -413 436 -51 43 -127 117 -170 165 -43 48 -132 141
-198 207 -165 166 -199 182 -495 240 -133 26 -223 35 -280 29z"/>
<path d="M4888 6195 c-76 -8 -175 -23 -220 -34 -168 -43 -378 -170 -474 -289
-62 -76 -94 -144 -144 -300 -33 -105 -45 -132 -59 -132 -32 0 -69 -39 -104
-108 -18 -37 -51 -98 -73 -137 -39 -70 -39 -70 -38 -190 1 -140 10 -179 113
-488 96 -286 137 -353 320 -530 102 -99 170 -137 242 -137 25 0 79 -11 120
-25 123 -43 206 -57 334 -57 99 0 138 4 219 26 166 44 306 125 412 238 62 65
74 96 48 115 -29 22 -86 8 -217 -53 -174 -80 -268 -106 -408 -112 -135 -5
-228 14 -357 72 -42 19 -102 38 -132 41 -68 9 -112 37 -196 128 -88 95 -145
190 -221 370 -104 241 -115 278 -120 397 -4 97 -2 116 31 244 20 76 36 146 36
155 1 54 44 47 62 -10 9 -32 8 -69 -7 -192 -20 -170 -16 -241 18 -308 24 -47
46 -65 69 -57 12 5 16 35 22 139 3 72 15 191 26 263 11 72 26 187 34 256 8 69
24 150 35 180 42 111 155 224 301 299 90 46 168 72 318 106 62 14 130 33 152
41 46 19 92 68 84 89 -7 18 -35 18 -226 0z m-419 -2194 c40 -56 17 -106 -26
-57 -30 35 -31 86 -2 86 4 0 17 -13 28 -29z"/>
<path d="M5095 5993 c-64 -8 -234 -47 -310 -70 -146 -46 -279 -125 -357 -212
-74 -82 -99 -159 -60 -180 22 -12 38 -3 127 70 104 85 186 134 279 168 218 78
413 81 582 6 165 -73 388 -269 457 -402 79 -151 97 -312 51 -438 -37 -99 -41
-148 -16 -173 37 -37 80 -8 126 84 61 122 73 303 32 466 -39 153 -78 218 -179
295 -34 26 -96 77 -137 114 -108 96 -223 176 -315 219 -112 53 -181 66 -280
53z"/>
<path d="M4975 5699 c-82 -12 -188 -45 -260 -81 -93 -47 -313 -206 -341 -247
-35 -51 -71 -172 -99 -331 -25 -143 -39 -186 -76 -232 -22 -27 -22 -28 -6 -95
22 -91 94 -234 156 -310 121 -148 367 -253 594 -253 212 0 548 144 658 282 82
103 116 219 89 304 -16 52 -91 226 -151 349 -107 222 -261 339 -465 352 -295
20 -536 -211 -536 -512 0 -171 79 -306 215 -365 98 -42 173 -34 267 28 30 20
89 55 130 77 91 50 134 101 150 181 24 114 -34 247 -134 309 -67 41 -155 47
-221 15 -87 -42 -132 -143 -106 -232 8 -25 38 -67 82 -115 63 -67 70 -79 67
-111 -4 -47 -29 -55 -94 -31 -67 25 -123 75 -159 140 -27 49 -30 63 -30 144 0
78 4 97 28 146 32 66 99 132 165 162 38 18 66 22 142 22 82 0 103 -4 153 -27
205 -96 326 -420 234 -622 -49 -106 -147 -186 -300 -247 -76 -30 -91 -33 -202
-33 -141 -1 -216 19 -315 86 -78 52 -124 106 -169 198 -36 74 -36 76 -36 205
0 158 20 253 76 365 93 185 346 339 561 340 76 0 192 -27 259 -60 180 -89 285
-215 372 -448 20 -52 43 -102 53 -113 39 -43 64 -11 64 83 0 274 -245 569
-545 656 -85 25 -189 33 -270 21z m116 -652 c18 -12 39 -34 46 -47 18 -35 16
-111 -3 -138 -30 -43 -74 -18 -74 43 0 14 -7 41 -14 60 -12 27 -21 35 -40 35
-18 0 -26 5 -26 18 1 52 56 66 111 29z"/>
<path d="M3096 3924 c124 -203 207 -315 307 -417 126 -128 277 -187 277 -108
0 31 -32 63 -265 272 -72 64 -167 154 -212 200 -45 46 -103 101 -128 123 -46
38 -46 38 21 -70z"/>
<path d="M6891 3822 c-6 -10 -50 -69 -99 -130 -96 -121 -139 -197 -144 -252
-3 -31 0 -35 22 -35 20 0 24 4 22 22 -4 25 7 47 98 203 104 179 121 210 116
210 -3 0 -10 -8 -15 -18z"/>
<path d="M3365 3320 c198 -200 353 -304 735 -495 162 -81 365 -185 450 -231
277 -148 389 -186 590 -202 332 -27 603 47 910 246 81 52 240 170 240 178 0 6
-101 -35 -220 -91 -281 -130 -400 -159 -650 -159 -301 0 -401 29 -964 288
-103 48 -304 145 -449 217 -154 78 -309 148 -376 170 -62 21 -148 58 -190 82
-190 110 -188 110 -76 -3z"/>
<path d="M3630 2876 c0 -9 384 -255 505 -323 472 -267 515 -289 645 -326 47
-14 110 -28 140 -31 55 -6 55 -6 -20 22 -85 33 -166 78 -308 171 -171 114
-322 199 -557 316 -188 94 -405 185 -405 171z"/>
<path d="M4988 2183 c7 -3 16 -2 19 1 4 3 -2 6 -13 5 -11 0 -14 -3 -6 -6z"/>
</g>
</svg>
