<?xml version="1.0" standalone="no"?>
<!DOCTYPE svg PUBLIC "-//W3C//DTD SVG 20010904//EN"
 "http://www.w3.org/TR/2001/REC-SVG-20010904/DTD/svg10.dtd">
<svg version="1.0" xmlns="http://www.w3.org/2000/svg"
 width="1000.000000pt" height="1000.000000pt" viewBox="0 0 1000.000000 1000.000000"
 preserveAspectRatio="xMidYMid meet">
<metadata>
  <rdf:RDF
    xmlns:rdf = "http://www.w3.org/1999/02/22-rdf-syntax-ns#"
    xmlns:rdfs = "http://www.w3.org/2000/01/rdf-schema#"
    xmlns:dc = "http://purl.org/dc/elements/1.1/"
    xmlns:cc = "http://creativecommons.org/ns#">
    <cc:license rdf:resource="http://creativecommons.org/publicdomain/zero/1.0/deed.en"/>
    <cc:permits rdf:resource="http://creativecommons.org/ns#Reproduction"/>
    <rdf:Description about="https://nft.mir.one/fingerprints"
      dc:title="TON Fingerprints"
      dc:description="This is a unique digital fingerprint created based on the algorithm for generating basic rings using a noise texture. Like human fingerprints, you can now use it for the Web3 and Metaverse era as digital biometric information."
      dc:publisher="https://nft.mir.one"
      dc:date="2022-02-22"
      dc:format="image/svg+xml"
      dc:language="en" >
      <dc:creator>
      <rdf:Bag>
        <rdf:li>EQBondcvD2_aOFADXSWJHs4ZazQDuEl9_wNvGGPxI8hGuOFU</rdf:li>
        <rdf:li>ipfs://bafkreihj7iub3fhmhq6jn62noukt5wxn3gv6bvcg7wmt6ywvlurefezckq</rdf:li>
      </rdf:Bag>
      </dc:creator>
    </rdf:Description>
  </rdf:RDF>
</metadata>
<rect width="100%" height="100%" fill="#1b1f23"/>
<g transform="translate(0.000000,1000.000000) scale(0.100000,-0.100000)"
fill="#ffffff" stroke="none">
<path d="M4920 7800 c25 -6 122 -21 215 -35 194 -29 206 -32 524 -149 129 -47
236 -84 238 -82 7 6 -241 114 -370 160 -71 26 -157 53 -192 61 -63 15 -255 39
-390 49 -61 4 -64 4 -25 -4z"/>
<path d="M4350 7627 c-91 -12 -154 -23 -140 -24 14 -2 52 -10 85 -18 33 -7
119 -19 190 -25 330 -28 637 -78 805 -132 52 -16 169 -65 260 -108 91 -42 210
-94 265 -114 272 -99 389 -147 520 -211 146 -71 162 -71 83 1 -218 200 -722
467 -1073 569 -180 52 -467 86 -709 84 -67 -1 -195 -11 -286 -22z"/>
<path d="M4259 7414 c-109 -19 -258 -75 -342 -128 -40 -24 -133 -98 -208 -163
-74 -65 -155 -135 -180 -155 -44 -38 -44 -38 21 -11 36 15 110 55 166 89 194
120 294 161 456 189 339 58 947 -1 1221 -117 51 -22 62 -49 28 -68 -30 -16
-76 -12 -268 19 -278 46 -391 54 -632 48 -300 -8 -441 -39 -668 -147 -193 -92
-307 -176 -528 -390 -110 -106 -110 -106 -54 -83 30 12 104 50 165 84 274 156
570 284 763 330 273 66 608 65 1041 -1 254 -38 295 -55 411 -165 99 -94 157
-133 379 -250 324 -172 421 -238 571 -388 98 -97 172 -196 222 -292 28 -55 31
-71 38 -200 5 -88 17 -185 33 -260 41 -185 43 -299 12 -480 -15 -84 -40 -308
-57 -510 -16 -198 -39 -423 -49 -500 -11 -77 -20 -169 -21 -205 0 -36 -4 -87
-9 -115 -4 -27 -6 -52 -5 -53 6 -6 23 63 75 293 57 256 79 400 115 730 14 132
38 296 52 365 34 167 29 309 -22 558 -32 161 -36 222 -14 222 5 0 9 7 9 15 0
8 9 19 21 25 19 11 20 13 4 30 -9 10 -44 83 -79 164 -105 241 -214 418 -315
508 -58 52 -177 116 -379 202 -316 136 -442 210 -442 262 0 22 4 24 46 24 29
0 83 -15 152 -41 232 -89 272 -103 412 -144 80 -24 159 -48 175 -55 26 -11
144 -25 134 -16 -208 183 -186 168 -382 246 -258 103 -363 137 -489 160 -196
35 -240 53 -326 132 -69 62 -117 89 -226 127 -157 55 -415 99 -711 121 -175
12 -221 12 -316 -6z"/>
<path d="M4456 6819 c-289 -39 -522 -120 -890 -306 -171 -87 -171 -87 -301
-217 -72 -72 -145 -150 -163 -173 -33 -42 -33 -42 10 -25 24 9 116 58 206 109
393 225 729 364 1032 429 107 22 157 27 350 31 235 5 319 0 591 -39 175 -25
209 -21 209 26 0 98 -285 164 -735 171 -132 2 -271 -1 -309 -6z"/>
<path d="M4485 6526 c-145 -24 -452 -119 -652 -201 -215 -90 -556 -278 -622
-344 -54 -54 -122 -152 -191 -277 -34 -59 -66 -114 -72 -121 -23 -28 98 60
154 112 272 252 705 479 1070 560 79 18 118 32 149 55 24 17 67 38 98 47 169
49 766 21 1094 -52 296 -66 643 -290 828 -535 152 -201 248 -497 269 -827 16
-261 -28 -966 -70 -1115 -13 -47 -48 -74 -68 -54 -17 17 -19 287 -3 456 19
199 24 495 12 635 -38 413 -168 708 -418 946 -249 236 -536 359 -967 415 -125
16 -670 36 -718 27 -51 -10 -54 -29 -14 -73 64 -71 57 -75 -106 -75 -142 0
-144 0 -268 -43 -295 -101 -617 -294 -817 -490 -85 -83 -142 -193 -217 -417
-52 -154 -52 -154 -17 -117 19 20 59 71 89 112 230 317 515 545 875 699 104
45 178 70 384 130 44 13 90 35 120 58 48 37 48 37 198 41 560 15 1001 -126
1308 -417 379 -361 494 -844 381 -1604 -17 -109 -21 -118 -85 -199 -15 -18
-52 -96 -84 -173 -100 -249 -205 -415 -344 -548 -102 -97 -208 -155 -341 -189
-80 -19 -102 -20 -355 -15 -293 6 -421 21 -537 61 -74 26 -128 67 -128 98 0
10 7 21 16 25 9 3 84 -5 168 -18 125 -20 188 -24 366 -24 270 0 391 21 535 93
209 104 354 275 520 612 144 293 178 438 178 760 1 195 -13 304 -54 445 -92
310 -364 621 -683 782 -224 113 -518 173 -781 160 -140 -8 -194 -19 -405 -88
-459 -150 -736 -312 -967 -567 -120 -132 -214 -255 -240 -311 -33 -75 -69
-221 -93 -386 -11 -77 -23 -149 -26 -160 -14 -47 74 112 136 245 86 187 105
216 215 330 50 52 128 138 172 191 140 165 224 225 452 326 417 184 545 222
776 230 225 8 400 -25 590 -112 162 -74 275 -163 472 -373 154 -165 188 -216
231 -347 34 -107 47 -203 46 -370 -1 -252 -45 -437 -159 -661 -176 -348 -402
-536 -731 -610 -68 -16 -134 -18 -464 -19 -385 -1 -385 -1 -461 37 -107 53
-161 104 -202 191 -19 40 -69 123 -112 186 -45 66 -92 150 -112 200 -67 168
-150 324 -208 391 -30 35 -62 68 -69 72 -42 23 -81 -95 -73 -221 9 -153 72
-283 178 -365 72 -56 291 -304 287 -325 -2 -10 -16 -17 -36 -19 -47 -5 -108
34 -203 131 -206 210 -281 342 -310 547 -11 74 -6 145 33 540 6 69 12 159 12
200 1 71 0 75 -22 78 -15 2 -34 -6 -49 -20 -51 -46 -133 -262 -133 -348 0 -19
9 -59 20 -88 16 -42 20 -77 20 -180 0 -344 99 -595 329 -835 93 -96 159 -144
324 -231 60 -32 179 -105 265 -163 178 -119 238 -152 337 -182 111 -35 225
-50 434 -61 108 -5 213 -14 233 -20 49 -14 93 -52 85 -72 -4 -13 -37 -17 -184
-23 -233 -10 -387 -2 -553 29 -234 44 -292 68 -430 182 -30 24 -100 72 -155
106 -368 227 -506 366 -645 652 -104 214 -132 350 -128 613 3 198 -2 224 -41
189 -67 -61 -46 -363 45 -638 49 -144 163 -377 253 -510 121 -181 313 -358
532 -491 119 -72 134 -90 101 -117 -25 -20 -131 -36 -185 -27 -52 9 84 -51
152 -67 42 -10 73 -11 107 -5 52 10 63 9 234 -26 170 -35 276 -46 444 -46 288
1 443 50 478 153 2 4 53 17 113 28 142 25 313 73 377 106 27 14 70 44 95 67
78 72 228 317 324 530 57 126 88 245 97 367 6 95 9 105 27 105 14 0 31 -22 63
-80 42 -76 44 -82 39 -145 -7 -96 -58 -242 -158 -451 -86 -181 -119 -273 -119
-331 0 -40 -24 -94 -64 -142 -18 -23 -43 -61 -56 -86 -12 -25 -38 -67 -58 -95
-19 -27 -26 -43 -16 -34 10 9 75 67 144 129 69 62 142 120 162 129 33 15 35
18 19 28 -25 16 -34 89 -15 124 7 15 46 76 85 136 145 222 295 578 343 813 38
186 101 1020 93 1215 -10 206 -84 530 -155 670 -93 186 -246 344 -477 494
-133 87 -465 255 -530 269 -33 7 -77 7 -139 0 -75 -9 -120 -8 -251 7 -207 23
-627 30 -740 11z m-918 -2348 c19 -26 133 -318 133 -342 0 -63 -47 -26 -97 76
-55 112 -88 249 -66 271 10 10 19 8 30 -5z"/>
<path d="M4635 5583 c-184 -21 -367 -86 -505 -178 -77 -51 -104 -83 -115 -135
-3 -19 -37 -100 -75 -180 -163 -344 -161 -502 15 -923 35 -85 65 -167 67 -183
4 -39 -24 -43 -58 -7 -27 29 -173 321 -225 449 -60 148 -61 356 -4 523 29 86
57 137 132 240 63 87 74 118 48 137 -61 45 -252 -112 -332 -273 -36 -73 -37
-80 -46 -227 -10 -182 -3 -343 18 -394 9 -20 38 -59 64 -87 60 -61 99 -123
181 -283 34 -68 87 -154 117 -190 29 -37 89 -112 132 -167 130 -166 228 -245
346 -281 141 -43 466 -57 631 -29 122 22 185 41 280 86 389 184 654 703 605
1183 -22 223 -96 396 -168 396 -45 0 -48 -34 -17 -192 22 -115 28 -170 28
-283 0 -201 -32 -340 -117 -510 -52 -104 -85 -152 -166 -237 -112 -119 -234
-195 -398 -245 -81 -25 -102 -27 -268 -27 -159 -1 -189 2 -260 22 -110 32
-188 76 -267 150 -91 86 -122 138 -153 257 -14 55 -39 136 -55 181 -84 228
-110 376 -91 523 22 176 108 362 225 490 209 226 639 272 934 100 91 -54 192
-161 235 -249 98 -199 119 -486 51 -690 -37 -111 -78 -176 -168 -266 -127
-128 -271 -186 -456 -186 -259 1 -449 150 -538 420 -36 112 -36 256 1 365 32
91 64 146 121 205 96 101 195 145 331 145 139 0 238 -44 332 -146 149 -161
157 -450 16 -590 -36 -36 -84 -50 -98 -28 -3 5 9 45 27 88 29 70 32 88 33 178
0 89 -3 106 -28 157 -33 67 -90 121 -164 155 -48 22 -65 25 -137 21 -66 -3
-91 -10 -135 -33 -71 -39 -134 -113 -173 -205 -29 -67 -33 -85 -33 -170 0 -83
4 -103 27 -153 37 -79 127 -171 203 -207 183 -88 458 -41 597 102 210 215 191
653 -37 867 -118 109 -252 161 -420 161 -183 0 -306 -50 -430 -174 -89 -89
-149 -193 -182 -316 -26 -97 -24 -279 6 -390 57 -212 138 -378 232 -470 153
-153 404 -209 651 -146 297 75 509 297 594 621 23 86 26 121 27 250 0 83 -5
182 -12 220 -7 39 -16 123 -20 187 -8 109 -11 123 -42 175 -88 148 -284 291
-484 353 -129 39 -310 58 -430 43z m165 -935 c78 -54 99 -180 48 -290 -35 -75
-71 -98 -153 -98 -51 0 -70 5 -115 33 -83 49 -139 157 -106 202 14 19 17 18
74 -38 56 -52 64 -57 107 -57 36 0 51 6 71 25 46 46 15 129 -36 97 -29 -18
-47 -15 -64 10 -65 93 73 184 174 116z"/>
<path d="M5670 2553 c-83 -46 -87 -47 -200 -54 -95 -6 -138 -14 -244 -48 -191
-61 -292 -75 -521 -68 -276 8 -575 63 -575 106 0 6 -4 11 -10 11 -5 0 -7 -7
-4 -15 16 -41 220 -119 418 -161 251 -52 501 -42 754 30 181 52 177 52 208 21
31 -31 27 -64 -14 -110 -15 -16 -2 -8 28 18 30 26 99 79 152 117 68 49 105 84
124 115 54 93 9 108 -116 38z"/>
</g>
</svg>
