<?xml version="1.0" standalone="no"?>
<!DOCTYPE svg PUBLIC "-//W3C//DTD SVG 20010904//EN"
 "http://www.w3.org/TR/2001/REC-SVG-20010904/DTD/svg10.dtd">
<svg version="1.0" xmlns="http://www.w3.org/2000/svg"
 width="1000.000000pt" height="1000.000000pt" viewBox="0 0 1000.000000 1000.000000"
 preserveAspectRatio="xMidYMid meet">
<metadata>
  <rdf:RDF
    xmlns:rdf = "http://www.w3.org/1999/02/22-rdf-syntax-ns#"
    xmlns:rdfs = "http://www.w3.org/2000/01/rdf-schema#"
    xmlns:dc = "http://purl.org/dc/elements/1.1/"
    xmlns:cc = "http://creativecommons.org/ns#">
    <cc:license rdf:resource="http://creativecommons.org/publicdomain/zero/1.0/deed.en"/>
    <cc:permits rdf:resource="http://creativecommons.org/ns#Reproduction"/>
    <rdf:Description about="https://nft.mir.one/fingerprints"
      dc:title="TON Fingerprints"
      dc:description="This is a unique digital fingerprint created based on the algorithm for generating basic rings using a noise texture. Like human fingerprints, you can now use it for the Web3 and Metaverse era as digital biometric information."
      dc:publisher="https://nft.mir.one"
      dc:date="2022-02-22"
      dc:format="image/svg+xml"
      dc:language="en" >
      <dc:creator>
      <rdf:Bag>
        <rdf:li>EQBondcvD2_aOFADXSWJHs4ZazQDuEl9_wNvGGPxI8hGuOFU</rdf:li>
        <rdf:li>ipfs://bafkreihj7iub3fhmhq6jn62noukt5wxn3gv6bvcg7wmt6ywvlurefezckq</rdf:li>
      </rdf:Bag>
      </dc:creator>
    </rdf:Description>
  </rdf:RDF>
</metadata>
<rect width="100%" height="100%" fill="#1b1f23"/>
<g transform="translate(0.000000,1000.000000) scale(0.100000,-0.100000)"
fill="#ffffff" stroke="none">
<path d="M4850 7789 c-103 -11 -333 -49 -340 -56 -3 -3 17 -3 43 0 160 21 465
50 602 56 160 8 160 8 -30 8 -104 0 -228 -4 -275 -8z"/>
<path d="M4468 7723 c6 -2 18 -2 25 0 6 3 1 5 -13 5 -14 0 -19 -2 -12 -5z"/>
<path d="M4840 7595 c-384 -49 -719 -162 -1005 -340 -60 -38 -134 -83 -164
-102 -54 -32 -54 -32 0 -27 30 3 144 36 254 74 548 186 1166 288 1577 260 157
-10 237 -20 398 -50 127 -23 221 -32 200 -21 -39 22 -305 123 -384 146 -182
52 -295 67 -536 71 -156 2 -260 -1 -340 -11z"/>
<path d="M5150 7319 c-418 -51 -948 -180 -1245 -303 -175 -72 -229 -111 -323
-231 -31 -38 -86 -104 -122 -145 -121 -136 -196 -233 -290 -374 -92 -139 -92
-139 -44 -105 27 19 99 81 160 139 152 145 412 362 512 427 200 132 456 222
872 308 96 20 227 50 290 67 206 55 231 59 425 65 360 10 598 -46 955 -226 85
-44 180 -88 210 -100 55 -20 55 -20 29 2 -206 174 -279 232 -359 282 -245 151
-413 194 -785 200 -115 2 -244 0 -285 -6z"/>
<path d="M5261 7040 c-107 -15 -168 -39 -222 -88 -49 -44 -49 -44 -252 -73
-531 -77 -830 -198 -1177 -475 -129 -103 -331 -310 -385 -393 -125 -193 -205
-416 -264 -736 -59 -321 -58 -312 -26 -240 15 33 54 132 86 220 98 267 150
363 347 640 153 216 252 314 457 451 247 164 538 270 845 305 138 15 262 7
442 -31 176 -36 191 -41 237 -82 82 -72 224 -112 364 -101 101 7 113 -5 52
-51 -65 -50 -44 -70 91 -86 230 -28 427 -107 679 -275 127 -85 241 -175 352
-278 43 -40 95 -83 115 -96 37 -22 37 -22 -14 76 -68 131 -184 307 -239 364
-92 94 -350 243 -515 298 -49 16 -150 39 -224 51 -101 16 -146 29 -180 48 -73
44 -91 49 -251 77 -193 33 -216 45 -167 79 51 36 272 14 455 -45 52 -16 107
-23 228 -29 155 -7 163 -8 243 -43 104 -46 262 -136 374 -215 47 -33 96 -63
109 -67 13 -4 35 -14 48 -22 23 -15 23 -14 10 4 -137 187 -337 406 -425 464
-171 114 -332 214 -376 233 -86 38 -236 83 -338 101 -111 19 -387 28 -479 15z
m540 -173 c130 -31 250 -80 295 -120 35 -30 44 -64 20 -73 -8 -3 -78 12 -155
35 -256 73 -269 75 -551 76 -272 0 -300 4 -344 53 -48 55 -11 60 384 57 224
-2 254 -5 351 -28z"/>
<path d="M3425 6824 c-50 -45 -50 -45 -3 -15 45 30 64 48 56 56 -2 2 -26 -17
-53 -41z"/>
<path d="M4585 6475 c-363 -58 -711 -221 -929 -433 -70 -69 -101 -120 -117
-190 -6 -31 -24 -69 -42 -92 -111 -139 -151 -194 -196 -268 -68 -113 -205
-440 -236 -563 -15 -56 -39 -142 -56 -191 -34 -103 -37 -176 -14 -333 30 -200
136 -593 212 -785 61 -156 118 -248 237 -387 396 -462 657 -597 1196 -619 173
-7 294 9 442 60 172 58 299 148 419 294 31 37 44 40 60 11 30 -57 -39 -166
-167 -262 -152 -114 -323 -184 -524 -214 -95 -14 -120 -14 -283 1 -245 23
-383 48 -560 105 -84 26 -161 52 -171 56 -12 5 -17 5 -13 -1 11 -19 293 -153
386 -183 51 -17 157 -43 235 -57 77 -13 179 -34 225 -45 77 -19 94 -20 175
-10 301 39 441 96 636 262 47 39 113 94 148 122 87 68 104 108 158 355 60 278
74 374 74 523 0 277 -72 511 -230 748 -73 109 -207 250 -267 280 -76 38 -143
22 -129 -32 3 -13 46 -69 95 -125 219 -248 315 -462 328 -732 11 -246 -73
-462 -206 -530 -20 -10 -76 -32 -126 -49 -49 -17 -130 -56 -180 -85 -127 -77
-194 -97 -340 -103 -135 -6 -231 10 -318 50 -62 29 -328 232 -433 330 -194
181 -316 424 -301 601 4 38 16 81 36 120 35 70 131 361 131 399 0 32 -23 51
-54 43 -63 -16 -185 -195 -236 -346 -34 -100 -39 -270 -11 -380 63 -254 249
-488 545 -684 121 -80 161 -120 135 -136 -20 -13 -52 -4 -147 41 -217 101
-463 332 -576 540 -107 196 -146 460 -97 651 23 91 44 132 103 213 72 98 165
170 272 210 34 13 100 46 146 74 181 110 254 86 151 -50 -68 -90 -88 -133
-117 -256 -36 -146 -35 -234 1 -333 44 -119 79 -181 176 -310 105 -140 177
-202 306 -266 50 -25 99 -55 109 -65 9 -10 25 -19 34 -19 35 0 216 51 266 76
138 66 225 250 195 411 -33 179 -172 313 -324 313 -75 0 -124 -19 -180 -69
-121 -109 -133 -285 -25 -351 43 -26 98 -26 132 1 34 27 32 62 -4 67 -51 7
-65 46 -34 91 57 81 184 46 216 -60 23 -80 -25 -139 -162 -195 -123 -50 -226
-32 -300 52 -65 74 -74 133 -40 269 44 176 125 292 245 351 54 26 70 29 155
29 88 0 100 -3 165 -34 119 -59 227 -185 293 -343 24 -57 27 -75 27 -193 0
-126 -1 -132 -32 -197 -75 -160 -222 -241 -462 -257 -102 -6 -116 -16 -79 -50
37 -35 89 -42 281 -39 176 3 184 4 239 31 119 58 207 168 243 303 23 87 21
249 -5 349 -26 102 -94 240 -160 330 -75 101 -215 260 -253 289 -72 54 -204
77 -326 56 -261 -44 -450 -293 -451 -592 0 -85 -6 -108 -26 -108 -51 0 -89
125 -81 267 7 140 58 269 170 432 132 191 368 244 817 186 231 -30 276 -51
405 -187 425 -451 540 -909 409 -1628 -53 -290 -111 -473 -192 -605 -40 -65
192 169 242 245 102 153 153 281 172 428 56 453 6 834 -151 1157 -63 131 -136
236 -265 380 -107 120 -136 164 -127 188 10 26 40 20 96 -17 173 -117 327
-303 441 -535 87 -176 139 -364 166 -596 16 -140 16 -236 -2 -680 -5 -140 -5
-140 19 -75 14 36 43 113 66 171 113 294 126 465 60 799 -44 222 -140 455
-261 633 -121 176 -308 346 -437 397 -28 11 -86 24 -129 29 -42 4 -133 27
-202 49 -299 97 -620 123 -890 72 -80 -15 -391 -88 -495 -116 -169 -46 -355
-148 -521 -287 -51 -43 -119 -90 -152 -107 -67 -33 -92 -61 -116 -134 -70
-208 -23 -593 105 -847 119 -238 454 -547 693 -640 72 -28 97 -32 228 -39 81
-5 150 -10 155 -13 4 -3 59 -10 121 -17 206 -22 374 10 590 111 127 59 172 74
206 65 44 -11 29 -34 -56 -90 -243 -157 -441 -213 -713 -202 -150 6 -340 28
-444 52 -142 32 -294 109 -441 223 -112 87 -351 320 -406 397 -93 130 -146
282 -216 618 -39 184 -42 214 -43 356 0 145 2 160 29 240 47 137 113 285 192
430 40 74 87 172 103 217 49 133 121 228 227 298 101 67 455 223 644 283 197
63 300 77 560 77 320 -1 453 -27 910 -177 263 -86 333 -99 367 -65 16 16 16
20 3 45 -23 39 -105 85 -275 151 -515 201 -902 272 -1241 227 -241 -32 -411
-88 -709 -237 -178 -89 -206 -100 -245 -97 -66 4 -64 27 7 83 367 292 842 448
1261 414 227 -18 448 -75 792 -204 301 -112 391 -158 487 -249 54 -51 111 -92
183 -131 136 -74 220 -137 311 -232 129 -136 175 -220 233 -427 41 -143 81
-253 100 -276 7 -8 21 -28 30 -45 16 -27 17 -28 12 -5 -3 14 -15 95 -26 180
-48 358 -67 436 -142 582 -61 119 -212 254 -486 436 -193 127 -321 191 -510
252 -86 28 -183 67 -215 87 -32 19 -119 54 -195 78 -75 23 -177 57 -227 75
-142 51 -250 70 -435 75 -116 3 -192 0 -255 -10z m355 -2814 c0 -46 -81 -101
-203 -136 -44 -13 -62 -14 -70 -6 -21 21 7 45 124 103 124 62 149 68 149 39z"/>
<path d="M4660 5794 c-14 -2 -70 -11 -125 -20 -248 -39 -626 -183 -815 -310
-151 -101 -220 -224 -132 -232 26 -3 64 13 171 73 288 157 574 257 851 296
130 18 427 16 559 -5 330 -52 675 -165 848 -278 88 -58 197 -146 373 -304 163
-145 248 -235 295 -309 63 -98 145 -279 195 -435 27 -80 58 -165 69 -190 21
-45 21 -45 15 115 -6 174 -26 356 -50 449 -8 32 -49 126 -91 209 -65 131 -73
153 -64 174 21 47 13 107 -26 184 -29 58 -59 96 -142 179 -123 122 -205 173
-283 174 -100 2 -90 -46 30 -145 169 -140 372 -357 372 -399 0 -26 -38 -27
-89 0 -52 26 -401 347 -450 414 -21 29 -50 60 -64 69 -35 23 -481 170 -642
212 -237 62 -339 77 -570 80 -115 2 -221 2 -235 -1z"/>
<path d="M4645 5449 c-236 -30 -507 -111 -750 -224 -44 -21 -138 -64 -209 -96
-71 -33 -149 -75 -174 -96 -89 -72 -188 -234 -199 -322 -6 -53 8 -91 34 -91 9
0 73 58 142 129 140 143 210 193 385 276 195 93 500 185 731 220 145 23 422
23 566 1 145 -22 317 -65 484 -121 258 -87 392 -171 576 -362 201 -209 325
-440 405 -756 29 -112 64 -338 64 -412 1 -27 9 -78 18 -112 17 -62 17 -62 47
125 23 147 29 219 29 337 0 150 0 150 -43 275 -97 284 -193 443 -386 636 -274
274 -472 396 -809 498 -140 43 -323 81 -458 95 -113 13 -352 12 -453 0z"/>
<path d="M3886 4058 c-48 -68 31 -307 154 -470 67 -88 215 -227 331 -311 215
-155 395 -204 592 -162 102 21 153 58 126 91 -8 9 -47 12 -157 11 -134 -1
-153 1 -212 24 -118 45 -330 189 -454 308 -120 116 -197 232 -267 400 -55 132
-80 156 -113 109z"/>
<path d="M5593 2569 c-205 -193 -300 -251 -446 -273 -55 -8 -123 -26 -159 -42
-64 -29 -140 -72 -103 -59 85 29 183 47 271 50 97 2 105 4 197 48 121 57 218
122 308 205 78 72 104 112 95 148 -12 48 -49 31 -163 -77z"/>
<path d="M4580 2284 c-65 -13 -65 -13 2 -10 38 1 73 7 80 14 15 15 7 14 -82
-4z"/>
</g>
</svg>
