<?xml version="1.0" standalone="no"?>
<!DOCTYPE svg PUBLIC "-//W3C//DTD SVG 20010904//EN"
 "http://www.w3.org/TR/2001/REC-SVG-20010904/DTD/svg10.dtd">
<svg version="1.0" xmlns="http://www.w3.org/2000/svg"
 width="1000.000000pt" height="1000.000000pt" viewBox="0 0 1000.000000 1000.000000"
 preserveAspectRatio="xMidYMid meet">
<metadata>
  <rdf:RDF
    xmlns:rdf = "http://www.w3.org/1999/02/22-rdf-syntax-ns#"
    xmlns:rdfs = "http://www.w3.org/2000/01/rdf-schema#"
    xmlns:dc = "http://purl.org/dc/elements/1.1/"
    xmlns:cc = "http://creativecommons.org/ns#">
    <cc:license rdf:resource="http://creativecommons.org/publicdomain/zero/1.0/deed.en"/>
    <cc:permits rdf:resource="http://creativecommons.org/ns#Reproduction"/>
    <rdf:Description about="https://nft.mir.one/fingerprints"
      dc:title="TON Fingerprints"
      dc:description="This is a unique digital fingerprint created based on the algorithm for generating basic rings using a noise texture. Like human fingerprints, you can now use it for the Web3 and Metaverse era as digital biometric information."
      dc:publisher="https://nft.mir.one"
      dc:date="2022-02-22"
      dc:format="image/svg+xml"
      dc:language="en" >
      <dc:creator>
      <rdf:Bag>
        <rdf:li>EQBondcvD2_aOFADXSWJHs4ZazQDuEl9_wNvGGPxI8hGuOFU</rdf:li>
        <rdf:li>ipfs://bafkreihj7iub3fhmhq6jn62noukt5wxn3gv6bvcg7wmt6ywvlurefezckq</rdf:li>
      </rdf:Bag>
      </dc:creator>
    </rdf:Description>
  </rdf:RDF>
</metadata>
<rect width="100%" height="100%" fill="#1b1f23"/>
<g transform="translate(0.000000,1000.000000) scale(0.100000,-0.100000)"
fill="#ffffff" stroke="none">
<path d="M4948 7813 c7 -3 16 -2 19 1 4 3 -2 6 -13 5 -11 0 -14 -3 -6 -6z"/>
<path d="M4993 7803 c10 -3 115 -36 233 -73 184 -60 336 -100 374 -100 5 0 10
4 10 9 0 25 -281 110 -493 151 -97 18 -176 27 -124 13z"/>
<path d="M4500 7639 c-58 -4 -134 -12 -170 -18 -36 -6 -83 -11 -105 -12 -37
-1 -35 -2 30 -20 39 -10 122 -26 185 -34 301 -40 596 -107 860 -195 248 -83
346 -136 700 -380 230 -159 318 -214 450 -280 98 -49 156 -83 271 -157 48 -31
48 -30 -38 63 -134 145 -256 248 -757 634 -125 96 -248 187 -274 202 -48 27
-382 119 -567 157 -189 38 -407 53 -585 40z"/>
<path d="M5840 7509 c136 -132 325 -300 374 -332 62 -41 215 -124 201 -110 -5
6 -64 55 -130 108 -66 54 -158 134 -205 179 -95 91 -156 138 -245 186 -60 32
-60 32 5 -31z"/>
<path d="M4158 7404 c-48 -7 -126 -22 -173 -34 -48 -11 -95 -20 -106 -20 -10
0 -19 -4 -19 -8 0 -14 65 -32 207 -58 202 -36 239 -41 443 -64 303 -34 475
-81 784 -212 244 -104 448 -213 631 -339 138 -95 225 -173 348 -314 135 -155
267 -283 340 -329 31 -20 92 -50 135 -66 45 -18 97 -47 125 -71 26 -22 67 -51
92 -64 44 -24 44 -24 11 28 -48 75 -90 162 -115 238 -52 160 -252 414 -373
475 -52 26 -128 30 -135 8 -2 -7 76 -85 173 -175 227 -209 299 -298 266 -331
-8 -8 -18 -8 -36 0 -64 29 -373 327 -406 392 -11 21 -20 57 -20 78 0 38 -3 42
-92 109 -229 171 -525 361 -710 454 -279 140 -612 239 -988 294 -195 28 -255
29 -382 9z"/>
<path d="M3725 7145 c-49 -13 -94 -24 -100 -25 -32 -1 88 -45 182 -66 214 -48
275 -75 281 -127 3 -27 3 -27 -55 -27 -32 0 -115 7 -184 17 -121 16 -130 16
-194 -2 -37 -10 -108 -37 -157 -61 -49 -24 -97 -44 -106 -45 -9 0 10 -7 43
-14 33 -8 168 -21 300 -30 203 -13 252 -14 320 -3 44 7 112 13 150 12 63 0 81
-5 180 -51 129 -60 158 -69 285 -83 113 -13 202 -3 327 37 79 24 89 25 156 14
179 -30 451 -152 692 -313 151 -100 318 -230 359 -279 27 -32 35 -79 14 -79
-27 1 -103 42 -240 131 -220 142 -312 197 -448 265 -189 94 -346 144 -454 144
-60 0 -138 -25 -165 -54 -22 -24 -23 -24 -199 -19 -167 4 -186 7 -327 44 -184
49 -266 62 -565 89 -306 29 -327 27 -464 -37 -109 -51 -109 -51 -75 -65 19 -8
90 -20 159 -27 182 -18 491 -67 627 -101 239 -58 349 -107 488 -216 143 -111
235 -163 625 -353 240 -117 358 -188 510 -309 112 -89 492 -467 676 -672 168
-187 469 -531 518 -593 36 -44 130 -127 113 -100 -4 7 -17 53 -27 102 -11 49
-32 122 -47 163 -23 63 -39 86 -118 168 -50 52 -154 165 -230 250 -234 260
-749 772 -847 843 -145 103 -300 191 -573 327 -390 195 -512 271 -503 317 3
15 13 18 53 17 44 0 92 -21 397 -173 356 -177 540 -279 733 -406 132 -87 156
-109 185 -172 17 -36 86 -110 282 -303 143 -140 325 -327 404 -416 158 -178
278 -294 303 -294 9 0 27 -3 41 -7 25 -7 25 -7 -1 24 -14 17 -51 82 -81 145
-44 90 -76 137 -153 228 -140 164 -359 379 -510 499 -205 162 -215 171 -215
186 0 24 47 29 94 11 124 -47 308 -187 501 -381 83 -83 188 -199 235 -260 47
-60 104 -129 127 -154 42 -46 42 -46 -2 87 -25 73 -64 172 -87 220 -37 78 -55
100 -172 218 -229 227 -449 370 -655 424 -110 28 -189 66 -401 187 -217 125
-379 206 -584 294 -165 71 -220 104 -231 140 -12 38 8 39 121 10 229 -60 387
-130 697 -307 284 -163 343 -191 460 -214 116 -23 175 -52 350 -170 142 -96
291 -222 400 -340 38 -41 84 -84 102 -97 33 -22 33 -22 -11 75 -59 133 -141
275 -188 329 -22 25 -110 91 -200 150 -203 133 -240 164 -332 279 -230 286
-573 521 -1029 704 -71 29 -165 70 -208 92 -180 89 -351 128 -571 128 -172 0
-228 9 -393 60 -158 49 -247 53 -388 15z m970 -236 c111 -15 222 -45 256 -69
38 -28 38 -56 -1 -65 -38 -8 -240 11 -358 35 -101 20 -145 42 -140 68 8 41 95
52 243 31z"/>
<path d="M3284 6346 c-34 -13 -76 -32 -95 -41 -33 -18 -33 -18 2 -35 18 -10
117 -39 219 -65 577 -146 852 -248 1223 -455 239 -132 329 -189 321 -202 -12
-20 8 -76 41 -115 19 -23 115 -106 213 -185 378 -306 608 -562 865 -964 42
-67 107 -156 145 -199 206 -237 236 -299 307 -630 34 -160 63 -261 72 -251 9
8 32 220 39 349 12 240 -13 290 -415 819 -350 461 -545 673 -819 894 -99 79
-325 235 -402 277 -28 15 -30 19 -19 33 20 25 113 14 185 -21 80 -39 270 -169
374 -255 117 -97 351 -330 482 -480 106 -120 390 -471 513 -634 33 -43 107
-148 165 -234 86 -127 113 -160 146 -177 41 -22 41 -22 29 14 -7 20 -18 75
-24 124 -25 189 -23 187 -332 557 -662 795 -1013 1100 -1462 1274 -137 53
-300 135 -482 242 -316 186 -519 258 -959 344 -226 44 -258 45 -332 16z"/>
<path d="M3190 6093 c-24 -8 -60 -26 -79 -39 -20 -13 -44 -24 -54 -24 -13 0
-10 -7 16 -30 28 -25 76 -42 263 -95 248 -71 329 -104 346 -141 30 -66 -57
-71 -324 -17 -216 43 -216 43 -311 -46 -29 -26 -62 -55 -75 -63 -24 -16 -24
-16 7 -23 17 -4 33 -11 36 -16 4 -5 27 -9 53 -9 26 0 97 -7 157 -16 61 -8 190
-25 288 -38 169 -23 181 -25 235 -60 82 -53 214 -118 491 -245 398 -183 404
-186 676 -390 259 -193 297 -224 358 -296 133 -154 223 -323 307 -575 116
-346 144 -588 100 -841 -11 -63 -20 -159 -20 -214 0 -132 28 -482 40 -505 6
-11 10 -29 10 -41 0 -27 91 145 127 241 25 65 25 65 20 465 -7 500 -21 661
-68 744 -18 31 -51 116 -75 189 -141 435 -326 660 -886 1075 -254 189 -546
342 -873 456 -120 42 -130 48 -133 73 -5 39 29 58 103 58 105 0 267 -56 490
-170 165 -83 262 -147 450 -294 524 -409 714 -612 874 -932 59 -119 88 -211
100 -322 8 -77 21 -112 43 -112 5 0 25 17 46 38 20 20 48 44 60 52 19 12 24
24 24 61 0 25 -6 66 -12 90 -19 72 -115 260 -194 377 -167 250 -333 427 -650
691 -110 92 -245 209 -298 259 -193 182 -461 325 -848 452 -113 37 -240 82
-283 99 -86 34 -457 151 -478 151 -8 -1 -34 -8 -59 -17z"/>
<path d="M3060 5396 c-33 -25 -143 -137 -138 -141 21 -13 80 -25 148 -30 369
-27 777 -151 1029 -315 96 -62 552 -524 676 -684 55 -71 144 -183 198 -250
159 -198 209 -317 188 -450 -5 -39 -12 -90 -15 -114 -2 -24 -12 -53 -22 -64
-19 -20 -19 -20 -36 2 -10 12 -18 28 -18 36 0 7 -39 55 -87 106 -49 52 -121
142 -161 201 -106 155 -181 247 -306 376 -227 232 -442 386 -636 453 -131 45
-666 167 -749 171 -55 2 -78 -13 -146 -97 -46 -56 -46 -56 -10 -72 20 -8 73
-19 118 -25 103 -12 254 -48 377 -89 140 -47 166 -63 188 -112 22 -51 77 -102
141 -130 241 -108 345 -177 566 -378 196 -179 218 -197 243 -204 35 -11 39 19
11 73 -29 56 -211 246 -334 349 -159 134 -337 238 -513 302 -70 25 -86 45 -56
67 14 11 37 14 87 10 110 -7 300 -109 487 -261 167 -136 362 -351 417 -460 38
-76 104 -164 175 -233 87 -85 132 -113 180 -113 36 0 40 -3 58 -42 36 -79 45
-142 31 -213 -13 -64 -13 -64 35 -182 49 -123 157 -450 169 -517 4 -20 15 -58
25 -83 17 -45 17 -45 52 18 49 90 77 156 84 198 6 35 -32 291 -62 421 -8 36
-35 106 -59 155 -59 119 -73 177 -90 385 -17 202 -41 305 -93 410 -30 62 -46
81 -89 110 -61 41 -95 83 -268 325 -112 158 -150 202 -311 361 -192 189 -216
224 -155 224 46 0 202 -111 311 -220 65 -65 111 -122 145 -180 68 -117 303
-463 320 -473 47 -26 47 54 0 151 -19 40 -71 126 -115 191 -103 153 -127 211
-85 211 20 0 140 -134 200 -225 90 -135 97 -155 211 -595 14 -52 36 -185 50
-295 28 -227 45 -291 80 -307 49 -23 74 35 74 174 0 233 -85 603 -200 870 -75
174 -256 401 -348 436 -18 7 -46 17 -63 24 -18 6 -86 57 -153 111 -199 164
-266 203 -423 246 -73 20 -168 59 -293 119 -236 113 -433 195 -535 221 -103
27 -292 59 -392 67 -73 5 -80 4 -113 -20z"/>
<path d="M3028 5023 c-24 -21 -50 -47 -58 -58 -8 -11 -24 -30 -37 -43 -22 -22
-22 -22 12 -36 19 -8 88 -20 152 -26 273 -25 665 -131 874 -236 177 -89 437
-295 609 -485 134 -147 215 -251 331 -421 111 -163 152 -206 176 -186 64 52
-167 405 -510 781 -100 109 -324 308 -456 406 -199 146 -565 280 -893 326
-149 21 -152 20 -200 -22z"/>
<path d="M3087 4282 c-20 -20 -50 -51 -65 -68 -27 -31 -27 -31 13 -47 22 -9
74 -26 115 -36 161 -42 313 -122 455 -237 44 -36 130 -104 190 -151 164 -128
312 -253 485 -410 309 -279 482 -491 547 -669 45 -125 40 -292 -11 -351 -21
-24 -24 -25 -52 -12 -29 14 -29 14 -29 109 -1 78 -6 110 -29 178 -33 93 -105
226 -176 319 -164 219 -511 553 -755 728 -101 72 -339 213 -448 266 -97 46
-107 45 -184 -23 -55 -49 -69 -34 141 -153 129 -73 182 -118 189 -159 11 -70
44 -111 272 -339 299 -299 398 -434 520 -707 68 -151 88 -190 94 -190 3 0 18
27 34 59 42 89 38 139 -21 254 -146 284 -408 581 -779 881 -76 61 -87 80 -53
89 72 19 251 -113 521 -382 290 -290 413 -468 524 -761 56 -148 73 -179 126
-220 21 -18 39 -39 40 -48 0 -11 2 -13 6 -4 3 7 35 28 72 47 69 34 149 110
211 200 40 59 41 128 1 242 -39 112 -90 179 -293 383 -157 159 -423 389 -863
748 -99 80 -136 123 -150 172 -25 85 -291 259 -475 310 -107 29 -128 27 -173
-18z"/>
<path d="M3793 4034 c-10 -26 6 -43 143 -147 71 -55 203 -161 294 -236 91 -76
212 -172 270 -213 58 -42 156 -123 219 -179 245 -222 274 -243 329 -237 24 3
27 7 25 37 -2 49 -54 117 -158 207 -49 43 -130 115 -178 161 -69 65 -98 85
-133 94 -62 16 -137 67 -289 199 -301 260 -497 378 -522 314z"/>
<path d="M6140 3920 c-9 -16 -3 -45 29 -143 56 -174 103 -422 141 -750 11 -97
48 -213 49 -157 1 14 10 57 21 95 27 94 50 228 50 292 0 61 -40 261 -77 383
-35 119 -88 223 -134 265 -45 40 -64 44 -79 15z"/>
<path d="M6007 3877 c-48 -74 -56 -183 -33 -432 8 -82 20 -258 26 -390 6 -132
15 -285 20 -340 10 -101 27 -197 29 -159 0 11 21 70 46 132 25 61 55 148 66
192 20 79 20 85 5 238 -23 222 -96 722 -109 751 -16 34 -31 36 -50 8z"/>
<path d="M6783 3653 c-14 -5 -16 -76 -4 -108 6 -14 10 1 12 48 2 37 4 67 4 66
0 0 -6 -3 -12 -6z"/>
<path d="M3349 3316 c31 -40 67 -89 80 -109 12 -19 70 -76 129 -126 149 -125
272 -275 386 -468 42 -71 42 -71 54 -27 39 145 -16 255 -241 482 -152 155
-362 317 -393 305 -7 -3 -27 0 -43 5 -29 10 -27 7 28 -62z"/>
<path d="M5126 2422 c-20 -23 -34 -123 -27 -187 6 -48 6 -48 38 3 58 93 67
168 24 191 -14 8 -22 6 -35 -7z"/>
</g>
</svg>
