<?xml version="1.0" standalone="no"?>
<!DOCTYPE svg PUBLIC "-//W3C//DTD SVG 20010904//EN"
 "http://www.w3.org/TR/2001/REC-SVG-20010904/DTD/svg10.dtd">
<svg version="1.0" xmlns="http://www.w3.org/2000/svg"
 width="1000.000000pt" height="1000.000000pt" viewBox="0 0 1000.000000 1000.000000"
 preserveAspectRatio="xMidYMid meet">
<metadata>
  <rdf:RDF
    xmlns:rdf = "http://www.w3.org/1999/02/22-rdf-syntax-ns#"
    xmlns:rdfs = "http://www.w3.org/2000/01/rdf-schema#"
    xmlns:dc = "http://purl.org/dc/elements/1.1/"
    xmlns:cc = "http://creativecommons.org/ns#">
    <cc:license rdf:resource="http://creativecommons.org/publicdomain/zero/1.0/deed.en"/>
    <cc:permits rdf:resource="http://creativecommons.org/ns#Reproduction"/>
    <rdf:Description about="https://nft.mir.one/fingerprints"
      dc:title="TON Fingerprints"
      dc:description="This is a unique digital fingerprint created based on the algorithm for generating basic rings using a noise texture. Like human fingerprints, you can now use it for the Web3 and Metaverse era as digital biometric information."
      dc:publisher="https://nft.mir.one"
      dc:date="2022-02-22"
      dc:format="image/svg+xml"
      dc:language="en" >
      <dc:creator>
      <rdf:Bag>
        <rdf:li>EQBondcvD2_aOFADXSWJHs4ZazQDuEl9_wNvGGPxI8hGuOFU</rdf:li>
        <rdf:li>ipfs://bafkreihj7iub3fhmhq6jn62noukt5wxn3gv6bvcg7wmt6ywvlurefezckq</rdf:li>
      </rdf:Bag>
      </dc:creator>
    </rdf:Description>
  </rdf:RDF>
</metadata>
<rect width="100%" height="100%" fill="#1b1f23"/>
<g transform="translate(0.000000,1000.000000) scale(0.100000,-0.100000)"
fill="#ffffff" stroke="none">
<path d="M5230 7687 c0 -17 36 -50 75 -70 31 -15 507 -148 665 -186 47 -11 94
-22 105 -26 11 -3 -20 15 -70 41 -192 100 -430 187 -633 230 -130 28 -142 29
-142 11z"/>
<path d="M4650 7684 c-14 -2 -59 -9 -100 -15 -41 -6 -149 -29 -240 -52 -165
-42 -165 -42 -90 -45 41 -2 134 2 205 9 72 7 204 13 294 13 146 0 164 -2 176
-18 19 -25 9 -44 -34 -65 -48 -24 -55 -26 -298 -61 -117 -17 -251 -42 -299
-55 -205 -60 -390 -147 -589 -279 -130 -85 -130 -85 -58 -82 39 2 76 6 81 9 4
4 139 41 298 83 159 42 345 92 414 111 222 59 431 95 565 96 119 1 121 1 230
-42 157 -62 204 -76 403 -121 237 -54 373 -96 615 -186 201 -76 261 -92 293
-80 13 5 6 12 -27 30 -24 12 -87 53 -139 90 -117 83 -229 151 -339 206 -107
54 -122 59 -390 136 -237 68 -368 115 -466 169 -33 18 -92 43 -131 54 -39 12
-83 30 -97 41 -14 11 -41 27 -60 35 -36 15 -172 27 -217 19z"/>
<path d="M4905 7194 c-236 -32 -341 -60 -539 -141 -96 -39 -267 -96 -432 -143
-298 -86 -292 -83 -382 -147 -66 -47 -102 -97 -83 -116 13 -13 112 -44 167
-53 56 -8 196 18 349 66 266 84 366 97 495 66 130 -31 289 -18 650 56 184 37
220 42 345 41 209 0 435 -45 720 -143 215 -74 292 -121 342 -208 15 -26 34
-52 43 -59 31 -24 157 -67 212 -73 57 -6 57 -6 0 55 -31 33 -92 102 -135 153
-81 96 -168 174 -240 216 -55 32 -328 128 -487 172 -189 52 -379 85 -505 87
-107 2 -113 1 -220 -40 -118 -44 -225 -68 -480 -108 -229 -36 -254 -34 -241
19 14 54 149 98 456 146 201 32 223 38 240 71 14 25 -1 46 -49 66 -34 14 -171
25 -226 17z"/>
<path d="M5325 6673 c-16 -3 -115 -22 -220 -44 -242 -51 -360 -66 -599 -79
-107 -5 -227 -17 -267 -25 -177 -37 -270 -127 -183 -177 89 -52 352 -43 772
27 248 42 279 49 352 85 203 98 448 79 995 -75 154 -43 254 -51 299 -22 16 11
26 25 24 35 -12 63 -488 221 -799 267 -98 14 -301 18 -374 8z"/>
<path d="M3355 6547 c-22 -13 -60 -37 -84 -55 -24 -18 -50 -32 -57 -32 -6 0 4
-16 24 -36 33 -33 40 -36 78 -30 61 8 136 35 162 59 29 27 28 58 -3 91 -30 32
-67 33 -120 3z"/>
<path d="M5264 6394 c-29 -7 -58 -40 -51 -58 11 -29 68 -46 294 -91 386 -77
614 -142 673 -192 58 -48 26 -90 -59 -78 -70 10 -770 180 -906 220 -194 57
-302 49 -485 -35 -109 -50 -175 -59 -385 -48 -228 11 -297 34 -365 124 -52 69
-86 84 -190 84 -104 0 -153 -12 -269 -66 -217 -102 -312 -187 -494 -445 -46
-66 -46 -66 -7 -53 21 7 79 37 127 65 134 77 398 204 488 234 44 15 113 29
154 32 64 5 76 4 87 -12 20 -27 17 -40 -16 -79 -37 -41 -148 -97 -330 -166
-182 -69 -358 -154 -399 -193 -42 -40 -96 -113 -146 -197 -21 -36 -47 -75 -58
-87 -20 -23 -20 -23 24 -6 24 9 76 38 114 64 121 80 247 147 329 174 70 24 89
26 157 20 77 -7 77 -7 251 75 95 45 214 96 263 113 80 27 103 31 205 31 172 0
232 -19 412 -133 52 -32 144 -84 205 -114 99 -50 163 -100 163 -127 0 -21 -38
-29 -101 -20 -193 27 -312 63 -375 111 -151 116 -334 119 -549 8 -133 -68
-216 -123 -328 -218 -52 -44 -180 -142 -284 -217 -332 -241 -327 -236 -371
-322 -31 -60 -102 -241 -102 -259 0 -14 82 45 165 117 241 210 595 450 775
525 146 62 193 67 302 34 90 -27 224 -22 383 14 61 14 173 33 250 42 77 8 182
27 234 41 109 29 154 28 312 -11 194 -48 304 -114 283 -168 -9 -24 -50 -26
-193 -6 -253 34 -406 24 -801 -57 -177 -36 -194 -38 -395 -39 -230 -2 -265 -6
-368 -41 -181 -62 -499 -273 -710 -473 -72 -68 -98 -130 -133 -312 -9 -46 -20
-92 -26 -102 -19 -37 71 45 133 120 106 128 303 300 479 418 250 167 479 247
535 185 17 -19 17 -20 -12 -47 -16 -16 -83 -57 -149 -92 -163 -88 -280 -161
-399 -250 -118 -88 -369 -331 -395 -381 -17 -34 -37 -116 -63 -256 -13 -70
-13 -70 19 -49 17 11 57 52 89 90 95 114 263 281 379 377 118 97 175 136 408
286 84 54 191 127 238 163 103 78 136 93 360 160 96 29 210 63 254 75 132 40
196 45 486 42 275 -3 275 -3 347 30 171 77 308 32 688 -226 183 -124 337 -239
455 -338 51 -43 108 -84 125 -89 30 -11 30 -11 -7 102 -61 184 -72 200 -207
307 -301 241 -501 372 -716 471 -71 33 -202 95 -290 139 -88 43 -223 103 -300
133 -212 83 -262 106 -421 198 -191 111 -249 155 -277 211 -20 41 -20 47 -6
72 21 38 45 39 63 3 9 -16 37 -44 62 -62 79 -54 329 -162 659 -284 501 -185
690 -274 898 -423 91 -65 339 -263 469 -374 76 -64 103 -83 134 -92 20 -6 19
0 -17 90 -68 167 -104 228 -178 291 -36 32 -120 108 -186 170 -66 61 -154 137
-195 167 -122 91 -290 168 -500 232 -102 30 -313 96 -470 146 -157 50 -328
104 -380 120 -115 35 -253 60 -286 52 -28 -7 -30 3 -8 35 25 35 75 51 161 51
94 0 123 -7 509 -115 394 -111 483 -131 642 -150 153 -18 178 -26 276 -95 39
-28 119 -84 177 -124 99 -69 108 -79 144 -147 21 -40 56 -93 79 -117 57 -63
184 -165 233 -188 41 -21 41 -21 16 20 -14 22 -32 56 -40 75 -27 66 -123 200
-163 228 -81 57 -28 106 76 70 22 -8 56 -17 76 -20 37 -6 37 -6 -28 74 -89
107 -135 142 -232 178 -158 58 -252 113 -252 147 0 7 11 21 25 30 36 24 154
13 275 -24 52 -17 115 -32 140 -35 45 -4 45 -4 10 32 -19 20 -57 63 -84 94
-62 74 -137 134 -184 146 -20 6 -102 15 -182 20 -136 9 -155 13 -312 65 -316
105 -559 155 -778 161 -74 2 -145 1 -156 -1z m-769 -934 c41 -16 30 -50 -26
-78 -43 -21 -222 -62 -275 -62 -53 0 -33 64 34 103 62 36 214 57 267 37z"/>
<path d="M3197 6307 c-10 -19 -37 -52 -59 -75 -22 -23 -38 -42 -35 -42 2 0 25
9 50 20 51 23 97 74 97 108 0 34 -33 27 -53 -11z"/>
<path d="M3418 5467 c-126 -65 -304 -184 -347 -233 -30 -34 -161 -270 -161
-289 0 -13 87 37 154 89 45 34 158 117 251 183 94 67 189 141 212 164 117 122
55 171 -109 86z"/>
<path d="M5813 4863 c-31 -6 -46 -29 -39 -58 3 -13 46 -66 94 -118 56 -60 101
-119 126 -167 22 -40 62 -108 90 -149 29 -42 64 -112 80 -156 15 -44 65 -159
111 -255 61 -127 99 -225 139 -356 66 -217 116 -336 159 -385 32 -37 32 -37
30 200 -1 130 -3 243 -5 251 -1 8 1 46 5 84 7 65 6 73 -22 130 -17 34 -77 123
-135 199 -117 155 -135 189 -116 212 39 47 128 -4 324 -184 127 -116 186 -159
239 -175 43 -13 46 -13 38 3 -5 9 -20 60 -35 113 -14 54 -35 116 -46 138 -34
67 -190 188 -419 325 -77 46 -182 115 -233 153 -139 103 -182 130 -251 162
-68 31 -101 39 -134 33z"/>
<path d="M5052 4779 c-64 -11 -127 -42 -142 -70 -23 -42 28 -70 150 -84 251
-29 361 -56 560 -141 142 -60 209 -75 235 -54 20 17 19 49 -5 85 -25 38 -160
146 -230 184 -134 72 -395 109 -568 80z"/>
<path d="M4660 4589 c-147 -26 -277 -80 -495 -207 -180 -104 -326 -204 -462
-317 -128 -107 -345 -321 -367 -363 -13 -26 -29 -99 -54 -249 -8 -51 -8 -51
22 -28 17 13 53 49 79 79 26 31 91 93 145 139 53 46 138 121 187 166 293 269
618 457 875 505 153 29 293 19 545 -41 302 -71 522 -177 648 -312 61 -65 94
-136 112 -243 12 -71 32 -118 129 -318 64 -129 122 -258 130 -287 8 -29 20
-108 26 -175 10 -108 39 -241 46 -213 27 113 81 291 95 314 17 28 49 43 49 23
0 -4 16 -30 36 -57 36 -50 36 -50 29 -10 -4 22 -15 54 -25 70 -10 17 -20 57
-23 90 -4 36 -19 89 -38 130 -17 39 -67 162 -111 275 -134 348 -212 493 -315
592 -65 62 -102 82 -279 157 -167 70 -304 114 -480 155 -164 38 -233 62 -293
102 -46 30 -123 39 -211 23z"/>
<path d="M4606 4124 c-258 -51 -530 -206 -752 -430 -44 -45 -95 -103 -112
-129 -28 -43 -32 -57 -32 -119 0 -51 -8 -91 -26 -141 -57 -155 -59 -167 -45
-283 8 -59 16 -129 18 -156 5 -48 5 -48 30 -5 14 24 38 80 53 124 36 105 111
288 151 367 96 191 253 344 459 448 172 87 327 123 515 123 219 -1 397 -49
650 -178 171 -86 220 -101 245 -70 21 26 3 80 -47 135 -171 190 -556 331 -899
329 -77 0 -170 -7 -208 -15z"/>
<path d="M6703 3743 c-10 -27 15 -150 42 -201 24 -47 24 -47 25 51 0 64 -5
110 -14 132 -16 37 -42 46 -53 18z"/>
<path d="M4750 3739 c-225 -29 -481 -164 -616 -326 -94 -111 -192 -292 -245
-447 -23 -69 -23 -69 -5 -155 12 -59 34 -120 72 -196 30 -60 52 -102 49 -91
-3 10 -1 44 5 75 5 31 14 94 20 140 22 161 99 337 209 474 155 191 372 301
623 314 127 7 223 -7 345 -48 213 -72 367 -212 351 -319 -6 -47 -49 -38 -158
33 -184 120 -321 162 -505 154 -126 -6 -197 -23 -299 -72 -181 -89 -325 -261
-386 -463 -35 -114 -27 -179 33 -278 45 -74 165 -229 173 -222 1 2 -9 42 -23
88 -51 171 -29 320 69 467 84 125 206 211 353 248 163 41 357 -6 531 -130 122
-88 187 -218 187 -380 1 -49 -4 -109 -11 -131 -14 -48 -93 -172 -149 -235 -38
-43 -38 -43 12 -2 28 22 82 59 121 81 87 51 152 120 199 215 36 72 36 72 33
277 -2 200 -2 207 26 299 33 109 31 155 -9 238 -59 120 -270 260 -512 339
-177 58 -329 74 -493 53z"/>
<path d="M3555 3486 c-42 -18 -82 -68 -96 -118 -6 -22 -12 -88 -13 -145 -2
-104 -2 -104 21 -76 33 41 152 266 160 303 9 48 -16 60 -72 36z"/>
<path d="M5904 3079 c-14 -27 -15 -64 -10 -293 4 -143 10 -273 14 -289 6 -25
12 -18 60 82 72 150 96 245 82 332 -19 126 -58 199 -106 199 -16 0 -29 -10
-40 -31z"/>
<path d="M4874 2930 c-104 -22 -210 -104 -259 -200 -16 -32 -39 -59 -61 -72
-70 -41 -86 -139 -36 -219 88 -136 269 -231 415 -215 144 15 303 104 391 218
27 37 51 148 41 195 -4 16 -8 38 -11 49 -2 12 -17 27 -35 34 -18 8 -43 33 -63
64 -37 58 -89 98 -166 127 -62 23 -157 32 -216 19z m181 -273 c143 -81 97
-308 -79 -388 -150 -68 -333 54 -375 249 -16 75 -14 111 6 119 24 9 56 -33 87
-115 40 -104 110 -159 193 -149 57 6 85 31 81 71 -3 36 -36 47 -58 21 -32 -38
-80 7 -80 75 0 115 119 177 225 117z"/>
</g>
</svg>
