<?xml version="1.0" standalone="no"?>
<!DOCTYPE svg PUBLIC "-//W3C//DTD SVG 20010904//EN"
 "http://www.w3.org/TR/2001/REC-SVG-20010904/DTD/svg10.dtd">
<svg version="1.0" xmlns="http://www.w3.org/2000/svg"
 width="1000.000000pt" height="1000.000000pt" viewBox="0 0 1000.000000 1000.000000"
 preserveAspectRatio="xMidYMid meet">
<metadata>
  <rdf:RDF
    xmlns:rdf = "http://www.w3.org/1999/02/22-rdf-syntax-ns#"
    xmlns:rdfs = "http://www.w3.org/2000/01/rdf-schema#"
    xmlns:dc = "http://purl.org/dc/elements/1.1/"
    xmlns:cc = "http://creativecommons.org/ns#">
    <cc:license rdf:resource="http://creativecommons.org/publicdomain/zero/1.0/deed.en"/>
    <cc:permits rdf:resource="http://creativecommons.org/ns#Reproduction"/>
    <rdf:Description about="https://nft.mir.one/fingerprints"
      dc:title="TON Fingerprints"
      dc:description="This is a unique digital fingerprint created based on the algorithm for generating basic rings using a noise texture. Like human fingerprints, you can now use it for the Web3 and Metaverse era as digital biometric information."
      dc:publisher="https://nft.mir.one"
      dc:date="2022-02-22"
      dc:format="image/svg+xml"
      dc:language="en" >
      <dc:creator>
      <rdf:Bag>
        <rdf:li>EQBondcvD2_aOFADXSWJHs4ZazQDuEl9_wNvGGPxI8hGuOFU</rdf:li>
        <rdf:li>ipfs://bafkreihj7iub3fhmhq6jn62noukt5wxn3gv6bvcg7wmt6ywvlurefezckq</rdf:li>
      </rdf:Bag>
      </dc:creator>
    </rdf:Description>
  </rdf:RDF>
</metadata>
<rect width="100%" height="100%" fill="#1b1f23"/>
<g transform="translate(0.000000,1000.000000) scale(0.100000,-0.100000)"
fill="#ffffff" stroke="none">
<path d="M4705 7674 c-161 -16 -373 -55 -500 -92 -18 -6 130 -9 375 -8 378 1
413 -1 521 -21 294 -56 577 -184 843 -381 111 -83 371 -333 500 -482 189 -218
241 -310 176 -310 -54 0 -113 50 -395 334 -304 306 -401 389 -575 488 -323
185 -618 258 -1045 260 -207 0 -289 -10 -493 -63 -104 -27 -283 -91 -330 -118
-20 -12 50 -8 258 15 74 9 243 18 375 21 260 6 412 -4 580 -38 381 -77 802
-312 925 -515 19 -31 55 -80 80 -107 51 -56 259 -239 460 -403 167 -137 245
-233 334 -411 53 -104 70 -164 61 -210 -7 -39 -43 -60 -75 -43 -10 5 -64 78
-120 161 -130 193 -226 306 -353 418 -231 204 -356 288 -482 326 -496 148
-463 140 -554 121 -61 -13 -122 -16 -306 -14 -230 3 -230 3 -270 -29 -64 -51
-119 -70 -300 -102 -207 -38 -286 -59 -389 -106 -44 -20 -118 -51 -166 -69
-48 -19 -106 -44 -129 -56 -70 -35 -94 -9 -45 50 31 36 91 68 189 100 52 17
82 35 120 71 48 45 59 50 156 74 57 13 193 36 303 50 200 26 236 35 236 59 0
75 -243 86 -600 26 -221 -36 -277 -59 -315 -125 -15 -25 -53 -63 -91 -91 -58
-43 -294 -288 -375 -390 -38 -48 -50 -56 -66 -42 -34 28 -1 119 81 228 122
163 366 385 491 448 146 73 371 115 615 116 148 0 176 -2 275 -27 128 -33 454
-87 517 -87 60 0 75 11 62 47 -20 57 -198 121 -492 174 -166 30 -456 37 -612
15 -343 -50 -546 -150 -728 -359 -73 -83 -190 -253 -232 -338 -62 -122 -285
-827 -267 -845 2 -2 9 15 16 38 17 60 125 288 182 383 57 96 103 145 136 145
39 0 92 27 211 107 113 76 113 76 200 84 62 5 125 21 222 54 203 69 299 93
470 116 116 15 189 32 290 64 184 60 249 69 465 62 246 -8 403 -41 613 -131
253 -108 502 -332 693 -620 96 -145 107 -157 161 -186 94 -50 117 -87 186
-288 33 -97 79 -229 101 -292 46 -133 61 -226 61 -386 0 -104 -25 -397 -35
-414 -2 -4 -11 -83 -19 -176 -8 -93 -18 -185 -20 -204 -15 -96 39 106 74 280
47 231 66 376 79 602 15 242 5 313 -89 648 -28 97 -50 186 -50 198 0 27 33 46
58 33 26 -14 97 -91 121 -131 29 -49 27 -38 -19 86 -23 60 -59 172 -80 249
-50 176 -101 308 -195 502 -64 132 -73 159 -73 206 2 194 -429 703 -802 950
-194 128 -437 232 -648 278 -76 16 -140 21 -297 24 -110 1 -218 1 -240 -1z
m-756 -1143 c21 -13 6 -27 -42 -40 -55 -16 -122 -11 -122 8 0 29 129 54 164
32z"/>
<path d="M4138 7563 c6 -2 18 -2 25 0 6 3 1 5 -13 5 -14 0 -19 -2 -12 -5z"/>
<path d="M4290 7204 c-129 -9 -313 -35 -357 -50 -154 -52 -303 -152 -468 -316
-139 -138 -142 -137 50 -16 233 148 433 212 746 239 227 19 485 -2 721 -61
154 -38 244 -77 369 -157 184 -118 403 -212 454 -193 31 11 30 52 -1 89 -63
75 -428 287 -606 352 -106 39 -254 75 -388 94 -105 15 -417 26 -520 19z"/>
<path d="M4813 6305 c-102 -22 -153 -64 -123 -100 16 -19 45 -23 238 -35 261
-15 420 -51 593 -134 266 -126 510 -373 645 -652 59 -121 82 -149 113 -139 51
16 56 208 8 323 -77 186 -305 426 -533 561 -147 87 -365 158 -554 181 -116 14
-312 11 -387 -5z"/>
<path d="M4235 6193 c-121 -16 -521 -140 -628 -195 -77 -38 -226 -138 -279
-186 -22 -20 -59 -63 -83 -96 -140 -198 -202 -444 -193 -766 7 -228 36 -345
112 -449 44 -61 58 -88 131 -268 35 -84 84 -189 111 -234 129 -221 382 -507
517 -583 37 -21 67 -45 67 -52 0 -42 -96 -57 -166 -25 -78 35 -398 366 -516
531 -60 86 -80 126 -116 240 -36 118 -62 178 -147 350 -37 74 -80 169 -95 210
-16 41 -29 70 -30 63 -1 -27 72 -288 124 -444 30 -91 58 -194 61 -230 4 -35
13 -82 22 -104 22 -58 112 -209 180 -300 76 -102 241 -280 316 -340 56 -45 71
-75 45 -91 -7 -4 -51 -11 -98 -14 -59 -5 -95 -13 -118 -27 -32 -20 -32 -20 49
-52 128 -51 181 -57 286 -33 115 27 293 42 490 42 207 0 312 14 459 60 119 38
258 63 524 95 201 24 293 52 435 134 190 109 292 228 347 406 57 184 100 255
156 255 79 0 164 107 222 279 11 35 34 123 51 195 42 188 56 231 85 265 28 34
58 40 68 15 18 -46 -2 -285 -36 -444 -43 -202 -111 -349 -285 -614 -150 -230
-245 -329 -431 -454 -150 -101 -367 -202 -435 -202 -17 0 -62 7 -98 17 -63 16
-74 16 -189 0 -67 -10 -213 -37 -324 -62 -230 -50 -366 -70 -586 -85 -310 -21
-515 -53 -578 -92 -18 -11 -32 -22 -30 -23 2 -2 74 -18 162 -36 158 -32 158
-32 344 -15 400 36 760 98 1062 184 152 42 174 44 178 16 8 -54 -124 -126
-330 -178 -239 -61 -646 -124 -938 -146 -150 -11 -260 -28 -260 -39 0 -8 199
-58 285 -71 104 -17 207 -11 456 25 549 81 653 113 1040 322 401 216 609 351
729 472 189 190 316 444 384 769 71 336 59 577 -32 691 -47 58 -52 75 -77 234
-36 231 -73 327 -127 327 -28 0 -46 -38 -63 -140 -53 -316 -203 -921 -281
-1138 -19 -50 -44 -54 -76 -11 -40 54 -35 117 37 474 71 347 83 464 56 515
-47 84 -134 202 -192 259 -36 36 -100 109 -141 161 -162 206 -334 334 -555
413 -84 31 -186 50 -373 73 -152 18 -205 35 -271 86 -41 31 -60 37 -152 52
-99 15 -193 18 -262 9z m160 -137 c37 -16 44 -36 21 -55 -8 -7 -59 -16 -113
-22 -120 -11 -173 -23 -283 -62 -403 -141 -646 -413 -715 -803 -11 -64 -16
-150 -16 -305 1 -177 -2 -219 -14 -229 -8 -6 -18 -9 -23 -6 -17 10 -42 73 -56
142 -51 248 -14 531 99 759 67 136 145 231 262 319 243 184 690 324 838 262z
m550 -189 c115 6 213 -14 322 -66 163 -79 294 -189 377 -319 53 -83 70 -125
100 -255 32 -134 58 -201 107 -277 55 -85 65 -140 50 -279 -20 -193 -73 -367
-143 -471 -86 -129 -351 -302 -574 -375 -150 -49 -236 -58 -482 -51 -194 6
-223 4 -228 -9 -8 -21 18 -59 58 -83 49 -31 200 -71 303 -82 168 -17 384 20
568 99 51 22 152 74 223 116 170 100 233 116 249 64 10 -30 -61 -117 -152
-185 -188 -142 -402 -217 -700 -246 -90 -9 -138 -9 -181 -1 -52 10 -253 80
-367 128 -61 26 -257 139 -383 222 -148 96 -188 116 -218 109 -18 -5 -24 -13
-24 -34 0 -52 47 -108 210 -250 143 -125 248 -173 483 -222 63 -13 118 -31
130 -41 22 -19 22 -19 0 -38 -43 -37 -191 -38 -383 -5 -167 29 -213 51 -246
116 -14 28 -71 98 -128 157 -108 112 -139 153 -201 266 -21 39 -68 117 -105
175 -85 133 -123 207 -162 323 -32 92 -32 92 -30 317 1 124 7 268 13 320 40
347 223 610 537 773 134 69 254 109 313 105 31 -2 45 -8 47 -19 2 -12 -45 -40
-180 -107 -282 -140 -417 -263 -515 -468 -80 -169 -110 -360 -93 -598 14 -194
58 -331 151 -467 71 -105 124 -152 209 -184 41 -15 129 -53 195 -83 151 -68
205 -90 274 -108 51 -13 58 -12 95 6 75 35 96 40 267 55 245 23 409 68 561
157 156 90 273 209 338 343 61 126 75 189 74 345 0 131 -2 139 -48 295 -80
268 -131 369 -250 493 -160 167 -425 285 -451 201 -10 -31 12 -56 124 -139
118 -87 195 -164 255 -254 116 -175 179 -422 156 -610 -46 -368 -326 -600
-805 -667 -133 -18 -307 -17 -383 4 -253 68 -443 208 -531 389 -67 139 -84
218 -84 398 0 140 2 164 27 245 73 240 202 385 488 546 72 41 158 98 191 128
104 92 170 111 356 100 58 -4 147 -4 196 -2z m1045 -681 c33 -98 20 -196 -25
-196 -21 0 -32 27 -60 142 -30 122 -30 141 -8 164 16 16 19 15 45 -16 15 -19
36 -61 48 -94z"/>
<path d="M4570 5684 c-92 -18 -309 -118 -429 -199 -89 -59 -195 -168 -243
-247 -21 -35 -50 -99 -65 -143 -37 -112 -39 -284 -5 -395 107 -342 399 -524
785 -489 238 22 402 87 535 213 204 194 239 500 91 787 -52 100 -129 191 -240
286 -135 115 -197 159 -243 173 -45 14 -147 21 -186 14z m92 -195 c204 -42
412 -254 463 -471 51 -219 -30 -425 -202 -511 -61 -31 -112 -41 -308 -63 -149
-16 -166 -16 -239 -1 -149 31 -243 97 -340 240 -59 86 -96 182 -96 245 1 124
62 255 171 364 64 64 95 85 181 128 150 73 256 93 370 69z"/>
<path d="M4384 5337 c-131 -44 -244 -140 -301 -255 -53 -108 -41 -259 20 -250
17 2 26 16 40 63 32 106 69 174 119 221 74 69 125 88 238 89 85 0 101 -3 148
-28 68 -35 124 -92 158 -159 22 -42 28 -71 32 -138 4 -76 1 -94 -23 -153 -32
-80 -30 -101 8 -105 76 -9 161 109 173 238 17 179 -106 379 -283 462 -59 28
-81 33 -163 35 -78 3 -107 -1 -166 -20z"/>
<path d="M4408 5084 c-99 -30 -168 -139 -168 -264 0 -52 4 -64 31 -95 33 -37
95 -61 132 -49 56 16 94 87 83 149 -9 44 -30 65 -66 65 -38 0 -46 25 -15 56
28 28 63 31 112 7 50 -23 79 -75 103 -180 24 -105 45 -133 84 -115 20 9 26 21
31 68 22 173 -55 319 -189 359 -60 18 -77 18 -138 -1z"/>
<path d="M2911 4774 c0 -11 3 -14 6 -6 3 7 2 16 -1 19 -3 4 -6 -2 -5 -13z"/>
<path d="M6791 3563 c-39 -75 -64 -105 -200 -243 -86 -87 -167 -165 -181 -173
-14 -9 -62 -25 -107 -36 -98 -24 -140 -45 -320 -157 -230 -143 -407 -220 -728
-317 -167 -51 -272 -71 -609 -117 -326 -44 -365 -51 -451 -79 -60 -19 -60 -19
130 -26 222 -9 598 -1 704 15 81 12 177 37 368 93 68 20 165 41 218 46 85 9
106 15 182 56 107 57 207 128 375 268 71 59 132 108 136 108 65 11 102 -8 102
-53 1 -15 11 -1 30 39 16 34 69 118 118 185 49 68 112 160 140 204 52 84 146
264 140 269 -2 2 -23 -35 -47 -82z"/>
<path d="M3250 3472 c0 -5 43 -50 95 -102 72 -70 99 -90 107 -82 17 17 -3 53
-54 95 -51 42 -148 100 -148 89z"/>
<path d="M5420 2410 c-268 -93 -308 -101 -520 -111 -102 -4 -231 -16 -287 -26
-102 -19 -102 -19 80 -19 100 0 238 -1 307 -3 115 -4 134 -2 243 28 208 55
405 142 394 174 -7 24 -45 16 -217 -43z"/>
</g>
</svg>
