<?xml version="1.0" standalone="no"?>
<!DOCTYPE svg PUBLIC "-//W3C//DTD SVG 20010904//EN"
 "http://www.w3.org/TR/2001/REC-SVG-20010904/DTD/svg10.dtd">
<svg version="1.0" xmlns="http://www.w3.org/2000/svg"
 width="1000.000000pt" height="1000.000000pt" viewBox="0 0 1000.000000 1000.000000"
 preserveAspectRatio="xMidYMid meet">
<metadata>
  <rdf:RDF
    xmlns:rdf = "http://www.w3.org/1999/02/22-rdf-syntax-ns#"
    xmlns:rdfs = "http://www.w3.org/2000/01/rdf-schema#"
    xmlns:dc = "http://purl.org/dc/elements/1.1/"
    xmlns:cc = "http://creativecommons.org/ns#">
    <cc:license rdf:resource="http://creativecommons.org/publicdomain/zero/1.0/deed.en"/>
    <cc:permits rdf:resource="http://creativecommons.org/ns#Reproduction"/>
    <rdf:Description about="https://nft.mir.one/fingerprints"
      dc:title="TON Fingerprints"
      dc:description="This is a unique digital fingerprint created based on the algorithm for generating basic rings using a noise texture. Like human fingerprints, you can now use it for the Web3 and Metaverse era as digital biometric information."
      dc:publisher="https://nft.mir.one"
      dc:date="2022-02-22"
      dc:format="image/svg+xml"
      dc:language="en" >
      <dc:creator>
      <rdf:Bag>
        <rdf:li>EQBondcvD2_aOFADXSWJHs4ZazQDuEl9_wNvGGPxI8hGuOFU</rdf:li>
        <rdf:li>ipfs://bafkreihj7iub3fhmhq6jn62noukt5wxn3gv6bvcg7wmt6ywvlurefezckq</rdf:li>
      </rdf:Bag>
      </dc:creator>
    </rdf:Description>
  </rdf:RDF>
</metadata>
<rect width="100%" height="100%" fill="#1b1f23"/>
<g transform="translate(0.000000,1000.000000) scale(0.100000,-0.100000)"
fill="#ffffff" stroke="none">
<path d="M4816 7740 c-134 -24 -314 -84 -432 -143 -49 -24 -107 -47 -129 -51
-21 -4 -57 -17 -80 -28 -97 -49 -366 -242 -516 -370 -51 -44 148 74 411 244
91 59 172 107 180 108 44 6 50 1 50 -44 0 -54 -8 -61 -236 -215 -352 -237
-513 -411 -669 -721 -94 -188 -175 -421 -217 -631 -32 -159 -32 -393 0 -564
55 -291 135 -521 255 -729 25 -44 44 -83 41 -88 -13 -21 -66 -7 -105 29 -128
115 -244 382 -324 743 -20 91 -45 192 -55 225 -11 33 -21 71 -23 85 -9 57 -6
-197 4 -321 25 -307 85 -556 163 -673 22 -34 99 -122 171 -196 76 -80 161
-180 204 -244 81 -117 151 -184 286 -272 280 -182 549 -239 717 -154 61 32 68
33 238 41 243 11 352 35 510 114 122 61 237 150 376 289 178 179 270 331 320
526 30 118 26 344 -8 471 -54 201 -174 379 -256 379 -45 0 -38 -67 18 -180
100 -200 133 -417 94 -608 -57 -280 -279 -551 -569 -697 -149 -75 -237 -97
-395 -97 -148 -1 -199 13 -385 102 -308 149 -503 335 -606 580 -76 179 -131
414 -150 629 -19 223 10 460 81 673 56 168 76 195 284 404 203 203 340 308
460 353 60 22 131 28 141 11 12 -19 -12 -41 -145 -128 -254 -168 -431 -349
-506 -519 -30 -67 -106 -327 -128 -434 -96 -472 36 -976 325 -1243 298 -276
680 -351 994 -196 160 79 310 224 393 380 57 107 83 197 89 316 9 163 -22 285
-120 479 -84 167 -211 272 -365 304 -80 17 -224 13 -357 -9 -157 -26 -209 -26
-235 0 -48 48 11 72 235 95 201 21 452 16 555 -10 35 -8 107 -36 160 -61 52
-25 121 -50 154 -55 141 -23 239 -120 317 -314 59 -148 74 -232 74 -425 0
-153 -3 -185 -23 -255 -52 -178 -146 -335 -297 -494 -118 -124 -315 -303 -388
-353 -154 -105 -347 -159 -667 -188 -69 -6 -183 -20 -255 -32 -181 -28 -269
-27 -380 6 -115 34 -352 151 -526 260 -113 71 -150 89 -219 107 -91 22 -117
34 -200 88 -66 43 -137 76 -123 59 5 -7 37 -49 70 -93 109 -143 191 -215 353
-305 202 -114 412 -218 565 -280 157 -63 212 -90 289 -143 74 -50 155 -83 270
-110 127 -29 442 -31 561 -3 161 37 502 165 700 261 192 93 385 248 469 377
39 59 57 130 37 143 -26 15 -65 -10 -168 -108 -198 -188 -300 -252 -516 -322
-73 -24 -197 -66 -277 -95 -233 -83 -323 -101 -541 -107 -143 -4 -209 -2 -289
11 -113 18 -190 46 -190 70 0 33 42 40 300 47 321 9 451 31 651 108 160 62
269 126 269 158 0 39 56 105 234 276 208 200 286 294 353 422 142 275 148 558
19 948 -54 165 -89 230 -168 313 -79 83 -172 145 -295 198 -180 77 -276 93
-363 61 -27 -9 -104 -20 -190 -25 -80 -6 -158 -12 -175 -15 -16 -2 -79 -9
-140 -15 -173 -16 -216 2 -156 64 19 20 31 42 31 59 0 60 129 146 270 180 155
37 277 30 424 -25 45 -16 133 -48 196 -70 237 -82 375 -162 511 -297 115 -115
142 -162 146 -259 3 -57 16 -112 53 -226 79 -239 84 -269 84 -456 1 -148 -2
-175 -26 -260 -32 -116 -83 -230 -143 -320 -55 -83 -283 -305 -426 -416 -205
-159 -230 -194 -133 -194 84 0 182 60 394 240 61 52 141 112 178 133 91 51
123 90 197 242 108 221 145 359 145 540 0 210 -70 435 -210 675 -40 68 -41 74
-25 86 76 56 283 -252 366 -546 20 -74 24 -107 24 -250 0 -191 6 -168 -140
-510 -49 -113 -109 -265 -136 -337 -57 -159 -109 -241 -216 -344 -142 -135
-312 -240 -588 -362 -471 -208 -607 -243 -863 -219 -228 22 -374 65 -642 192
-102 48 -241 114 -310 145 -188 87 -323 155 -471 241 -74 43 -160 88 -192 100
-58 23 -58 23 55 -98 150 -161 255 -249 353 -297 496 -242 671 -321 815 -367
248 -80 405 -108 590 -108 170 0 188 5 360 99 63 34 183 93 265 130 297 134
477 235 650 365 210 158 302 307 465 757 64 177 96 237 130 248 30 10 35 1 33
-63 -5 -182 -142 -559 -278 -769 -102 -156 -148 -195 -435 -375 -187 -117
-238 -144 -455 -241 -195 -87 -246 -113 -303 -156 -64 -48 -79 -121 -25 -121
15 0 74 22 132 49 58 27 174 75 256 106 238 91 326 139 514 283 46 35 108 75
138 89 39 19 66 42 97 82 199 259 381 702 412 1003 6 58 4 72 -16 104 -21 37
-22 41 -10 193 21 279 -6 468 -90 628 -89 172 -283 414 -535 668 -164 165
-326 263 -560 341 -213 70 -363 97 -530 98 -168 0 -240 -15 -374 -80 -145 -70
-207 -138 -306 -334 -42 -85 -111 -205 -151 -267 -129 -193 -158 -282 -158
-478 0 -155 14 -220 78 -350 104 -211 311 -358 528 -372 219 -16 418 98 514
293 39 77 39 79 39 194 0 110 -1 118 -33 182 -35 72 -90 126 -157 154 -103 43
-349 59 -423 28 -47 -19 -98 -67 -125 -119 -33 -62 -31 -172 6 -247 70 -142
228 -205 356 -142 90 45 132 140 94 214 -22 43 -60 65 -96 56 -20 -5 -27 -13
-27 -31 0 -13 5 -27 10 -30 15 -9 12 -23 -10 -45 -30 -30 -67 -25 -107 15 -33
33 -35 39 -30 81 8 78 69 124 162 124 236 0 317 -286 130 -459 -190 -175 -512
-95 -639 160 -44 88 -60 164 -53 259 12 169 93 282 242 335 44 16 114 47 155
69 75 41 75 41 200 41 110 0 130 -3 166 -22 88 -47 61 -79 -51 -64 -151 21
-254 10 -275 -29 -20 -37 10 -46 235 -70 150 -16 182 -22 219 -44 45 -26 98
-90 134 -162 51 -101 67 -270 37 -389 -57 -223 -257 -420 -485 -480 -89 -24
-233 -22 -333 4 -238 62 -457 256 -556 495 -60 143 -75 232 -75 421 0 202 19
296 89 441 39 81 54 100 136 175 51 46 127 127 169 179 187 231 370 354 587
396 258 49 760 -26 1021 -154 180 -87 355 -245 483 -435 100 -147 219 -297
319 -402 75 -79 138 -157 193 -238 34 -52 34 -43 -4 83 -35 120 -46 142 -103
218 -119 159 -235 320 -249 347 -8 17 -16 41 -17 55 -8 97 19 81 150 -87 63
-81 136 -168 161 -194 46 -46 46 -46 -9 60 -136 264 -173 314 -251 333 -39 10
-66 31 -178 139 -151 145 -275 242 -383 298 -92 48 -161 68 -265 76 -44 4
-154 18 -245 32 -315 46 -583 42 -750 -13 -185 -62 -408 -233 -607 -467 -41
-48 -88 -94 -103 -102 -27 -14 -30 -14 -40 6 -42 77 130 286 408 498 215 163
239 179 280 191 89 25 201 34 427 34 216 0 256 -2 398 -27 226 -39 267 -36
267 20 0 66 -230 138 -505 159 -49 3 -173 1 -274 -6 -215 -13 -268 -6 -304 41
-13 18 -27 27 -36 24 -8 -3 -67 -15 -131 -25 -145 -25 -206 -43 -294 -87 -144
-73 -233 -140 -407 -310 -108 -105 -143 -133 -164 -133 -26 0 -27 2 -22 37 9
56 85 158 195 264 163 159 303 244 562 344 80 31 197 80 260 110 174 81 336
124 552 146 272 28 561 -38 868 -198 116 -60 285 -133 264 -114 -60 55 -267
217 -330 258 -168 109 -366 193 -528 223 -211 39 -546 -37 -1056 -240 -340
-135 -543 -261 -723 -449 -126 -132 -172 -217 -201 -372 -9 -48 -34 -138 -56
-200 -42 -124 -80 -269 -102 -389 -20 -112 -17 -460 5 -580 41 -223 147 -601
203 -719 92 -197 280 -371 519 -484 213 -100 249 -121 259 -150 14 -38 -1 -46
-72 -35 -311 47 -614 236 -803 503 -94 132 -99 145 -92 239 5 78 4 87 -50 251
-66 202 -90 295 -117 448 -40 233 -36 459 10 686 39 192 135 483 205 621 118
233 398 482 723 644 122 61 486 195 682 251 91 26 210 66 265 89 100 41 100
41 342 41 242 0 242 0 126 32 -65 18 -185 44 -268 59 -90 15 -174 36 -210 52
-53 24 -74 27 -190 29 -94 2 -160 -3 -239 -17z m374 -33 c29 -15 37 -48 16
-66 -8 -7 -75 -23 -148 -36 -225 -40 -337 -72 -526 -151 -125 -53 -172 -63
-191 -41 -10 13 -6 23 30 62 51 55 98 84 211 129 219 89 532 142 608 103z"/>
<path d="M5215 7115 c-100 -15 -225 -49 -274 -75 -45 -23 -91 -74 -91 -101 0
-21 6 -21 215 12 435 69 786 8 975 -172 36 -34 110 -91 165 -127 151 -99 248
-176 370 -292 181 -173 238 -224 303 -267 34 -23 59 -36 55 -30 -5 7 -65 98
-134 202 -240 362 -343 479 -524 598 -214 139 -399 219 -589 252 -107 18 -355
19 -471 0z"/>
<path d="M5027 6085 c-135 -26 -292 -102 -273 -133 10 -17 68 -15 181 8 55 11
163 23 240 26 161 8 188 14 183 46 -8 56 -175 82 -331 53z"/>
<path d="M2920 4648 c0 -2 22 -60 50 -128 58 -143 93 -209 163 -303 86 -117
240 -206 261 -151 13 33 -29 92 -162 228 -124 126 -197 210 -284 323 -16 20
-28 34 -28 31z"/>
<path d="M3376 3221 c63 -53 213 -163 305 -223 64 -42 155 -105 202 -141 132
-101 233 -144 667 -287 682 -224 606 -205 815 -204 148 0 195 4 266 22 163 40
344 125 399 189 25 28 25 28 -5 1 -100 -89 -377 -152 -505 -115 -33 10 -75 33
-105 57 -74 62 -94 69 -233 85 -234 28 -421 68 -680 146 -202 61 -348 120
-557 228 -104 54 -255 125 -335 158 -145 60 -250 98 -234 84z"/>
<path d="M6476 3142 c-10 -30 -146 -163 -239 -233 -109 -82 -143 -97 -455
-195 -146 -46 -272 -90 -281 -99 -23 -23 -3 -48 47 -59 53 -11 146 10 289 65
60 23 137 50 172 60 81 23 120 47 221 134 149 127 291 308 263 336 -8 8 -13 6
-17 -9z"/>
<path d="M3690 2834 c25 -15 57 -38 73 -52 28 -27 34 -24 17 9 -11 19 -65 51
-110 63 -15 5 -7 -4 20 -20z"/>
<path d="M3870 2638 c3 -3 78 -39 168 -81 185 -88 309 -138 468 -191 61 -20
132 -50 157 -66 25 -16 65 -34 89 -41 57 -17 313 -18 329 -2 14 14 -15 22
-171 47 -85 13 -126 26 -220 71 -132 61 -687 249 -770 260 -30 4 -53 5 -50 3z"/>
</g>
</svg>
