<?xml version="1.0" standalone="no"?>
<!DOCTYPE svg PUBLIC "-//W3C//DTD SVG 20010904//EN"
 "http://www.w3.org/TR/2001/REC-SVG-20010904/DTD/svg10.dtd">
<svg version="1.0" xmlns="http://www.w3.org/2000/svg"
 width="1000.000000pt" height="1000.000000pt" viewBox="0 0 1000.000000 1000.000000"
 preserveAspectRatio="xMidYMid meet">
<metadata>
  <rdf:RDF
    xmlns:rdf = "http://www.w3.org/1999/02/22-rdf-syntax-ns#"
    xmlns:rdfs = "http://www.w3.org/2000/01/rdf-schema#"
    xmlns:dc = "http://purl.org/dc/elements/1.1/"
    xmlns:cc = "http://creativecommons.org/ns#">
    <cc:license rdf:resource="http://creativecommons.org/publicdomain/zero/1.0/deed.en"/>
    <cc:permits rdf:resource="http://creativecommons.org/ns#Reproduction"/>
    <rdf:Description about="https://nft.mir.one/fingerprints"
      dc:title="TON Fingerprints"
      dc:description="This is a unique digital fingerprint created based on the algorithm for generating basic rings using a noise texture. Like human fingerprints, you can now use it for the Web3 and Metaverse era as digital biometric information."
      dc:publisher="https://nft.mir.one"
      dc:date="2022-02-22"
      dc:format="image/svg+xml"
      dc:language="en" >
      <dc:creator>
      <rdf:Bag>
        <rdf:li>EQBondcvD2_aOFADXSWJHs4ZazQDuEl9_wNvGGPxI8hGuOFU</rdf:li>
        <rdf:li>ipfs://bafkreihj7iub3fhmhq6jn62noukt5wxn3gv6bvcg7wmt6ywvlurefezckq</rdf:li>
      </rdf:Bag>
      </dc:creator>
    </rdf:Description>
  </rdf:RDF>
</metadata>
<rect width="100%" height="100%" fill="#1b1f23"/>
<g transform="translate(0.000000,1000.000000) scale(0.100000,-0.100000)"
fill="#ffffff" stroke="none">
<path d="M4782 7746 c30 -28 115 -89 190 -135 163 -101 296 -207 361 -287 26
-32 74 -104 106 -159 72 -123 150 -233 246 -345 100 -118 136 -171 188 -275
101 -203 135 -363 152 -705 9 -192 34 -560 47 -705 6 -71 11 -213 11 -315 0
-170 -4 -205 -42 -430 -50 -290 -76 -411 -142 -662 -35 -131 -49 -202 -47
-235 3 -46 4 -48 33 -48 24 0 34 7 52 40 68 119 138 369 203 725 22 123 52
262 67 309 37 124 42 327 14 589 -12 107 -21 246 -21 310 0 65 -5 158 -10 207
-6 50 -10 188 -10 307 0 233 -5 271 -52 418 -63 196 -176 394 -349 610 -182
227 -209 268 -209 314 0 60 49 39 163 -72 246 -240 454 -565 571 -897 65 -183
75 -203 128 -263 58 -67 76 -119 88 -254 6 -58 17 -139 25 -178 19 -88 19
-124 2 -139 -37 -30 -90 95 -122 284 -27 163 -40 211 -63 238 -22 25 -39 21
-58 -15 -31 -61 -4 -364 42 -469 10 -24 28 -42 52 -53 64 -31 112 -77 142
-136 52 -103 98 -224 109 -285 15 -85 61 -557 68 -700 14 -288 -45 -660 -165
-1035 -46 -144 -92 -304 -88 -308 4 -4 146 303 189 408 142 346 218 768 196
1095 -4 72 -13 194 -18 271 -11 176 -2 269 39 371 52 129 50 264 -6 479 -30
118 -70 199 -144 290 -60 76 -122 194 -196 376 -145 360 -350 688 -574 921
-115 121 -191 176 -308 226 -49 21 -145 70 -214 109 -117 66 -283 143 -372
172 -22 7 -105 29 -184 50 -145 37 -145 37 -90 -14z m1898 -1948 c61 -98 124
-473 94 -552 -11 -29 -43 -18 -62 22 -25 49 -30 72 -42 194 -6 57 -20 154 -31
215 -15 84 -17 118 -9 133 15 28 27 25 50 -12z"/>
<path d="M5570 7707 c0 -2 68 -55 151 -117 261 -194 444 -392 656 -710 182
-274 258 -419 299 -577 25 -98 88 -236 184 -408 85 -153 166 -379 201 -565 7
-35 14 -59 16 -53 6 16 -33 227 -62 344 -34 132 -82 266 -164 460 -51 119 -73
186 -81 239 -12 81 -60 187 -164 359 -215 354 -451 633 -684 809 -97 72 -352
232 -352 219z"/>
<path d="M4265 7602 c45 -70 69 -95 179 -187 145 -121 170 -148 201 -219 32
-74 63 -119 189 -276 133 -167 225 -309 337 -520 50 -96 119 -218 153 -270 33
-52 94 -162 136 -245 62 -124 80 -151 104 -160 23 -8 30 -6 43 10 22 29 11
144 -27 284 -30 111 -31 114 -14 157 23 60 14 152 -25 279 -37 117 -39 190 -6
190 41 0 135 -228 155 -377 35 -262 44 -364 46 -533 1 -141 8 -236 27 -370 40
-280 50 -403 49 -635 0 -292 -23 -477 -88 -725 -19 -71 -64 -242 -99 -380
-109 -418 -148 -500 -380 -791 -66 -82 -163 -206 -215 -275 -52 -68 -123 -156
-156 -195 -34 -39 -69 -86 -79 -105 -10 -19 -24 -41 -31 -50 -25 -28 278 129
344 178 114 85 412 493 528 723 71 141 94 212 104 329 13 132 19 165 86 431
124 499 158 858 119 1285 -16 172 -38 469 -55 733 -30 458 -129 721 -317 844
-31 20 -74 75 -174 225 -208 309 -312 405 -589 543 -138 69 -224 92 -412 110
-59 6 -119 15 -132 20 -25 9 -25 9 -1 -28z m631 -351 c106 -61 242 -211 351
-386 64 -102 93 -168 134 -305 16 -52 52 -157 80 -232 28 -76 49 -144 46 -152
-9 -22 -43 -8 -77 31 -35 39 -79 125 -140 268 -108 257 -206 409 -397 619
-134 147 -135 149 -127 170 10 26 73 20 130 -13z"/>
<path d="M3975 7423 c-74 -15 -73 -14 -15 -34 69 -24 148 -26 157 -3 13 35
-62 54 -142 37z"/>
<path d="M4067 7225 c-90 -15 -279 -76 -423 -137 -81 -34 -81 -34 -30 -46 28
-7 80 -12 114 -12 108 0 508 -49 565 -69 247 -86 613 -544 823 -1028 74 -172
100 -216 171 -300 122 -144 163 -224 202 -393 54 -234 90 -830 60 -996 -15
-87 -35 -144 -99 -290 -32 -72 -86 -221 -119 -332 -80 -266 -160 -466 -214
-534 -21 -26 -46 -22 -53 8 -11 44 3 113 61 299 31 99 74 254 96 345 23 90 47
176 54 190 8 14 43 59 80 100 88 101 107 158 107 330 0 77 -8 175 -20 255 -11
72 -26 202 -32 290 -24 326 -80 519 -175 593 -68 53 -88 13 -51 -103 53 -168
58 -201 63 -432 7 -277 2 -322 -40 -370 -21 -24 -46 -77 -75 -162 -73 -211
-72 -206 -71 -426 1 -220 -6 -273 -76 -525 -19 -69 -52 -200 -74 -292 -22 -92
-52 -195 -66 -230 -51 -127 -168 -303 -326 -493 -88 -106 -130 -172 -102 -160
10 4 58 20 106 36 98 32 156 60 205 96 35 26 146 169 232 298 105 159 152 216
209 255 125 84 215 254 310 580 23 80 58 195 78 255 99 309 119 399 135 614
20 264 -13 699 -71 944 -34 145 -64 204 -140 282 -88 90 -100 109 -276 430
-262 477 -334 585 -575 854 -159 176 -304 275 -421 285 -30 3 -94 -1 -142 -9z
m1242 -2671 c30 -38 45 -124 45 -264 1 -135 -6 -180 -29 -180 -17 0 -21 14
-35 116 -6 45 -15 96 -20 115 -11 38 -14 222 -3 232 11 12 21 8 42 -19z m-106
-278 c3 -7 13 -66 23 -130 14 -91 15 -119 5 -129 -18 -18 -44 3 -59 49 -16 45
-21 156 -9 197 8 29 31 36 40 13z"/>
<path d="M3676 6883 c-50 -13 -252 -96 -277 -113 -15 -11 -37 -24 -50 -29 -22
-9 -23 -10 -3 -10 11 -1 29 -10 39 -21 11 -12 41 -32 67 -45 27 -14 77 -44
111 -68 34 -24 91 -61 127 -82 132 -78 201 -144 179 -171 -13 -16 -44 -7 -139
41 -100 50 -165 72 -242 80 -56 6 -72 4 -128 -20 -35 -15 -87 -42 -115 -60
-28 -18 -62 -36 -75 -40 -19 -6 -10 -13 65 -46 48 -21 135 -73 193 -115 59
-42 164 -110 234 -152 130 -76 210 -138 267 -203 44 -51 213 -334 271 -454 85
-176 169 -447 205 -665 9 -52 21 -172 29 -267 8 -109 17 -177 25 -187 84 -102
121 289 57 600 -82 394 -209 697 -405 964 -117 160 -216 242 -420 350 -141 74
-214 131 -209 164 5 32 40 25 174 -37 66 -30 143 -62 172 -72 140 -45 335
-239 489 -486 116 -185 187 -368 266 -684 63 -249 71 -309 71 -475 -1 -171
-20 -271 -71 -380 -65 -140 -141 -337 -178 -461 -123 -412 -238 -638 -449
-884 -47 -56 -96 -122 -109 -147 -23 -46 -23 -46 0 -37 14 5 45 9 71 9 53 0
137 20 167 40 58 37 214 270 305 455 78 159 152 373 265 765 91 317 120 445
135 606 15 151 4 250 -46 429 -20 71 -55 213 -79 316 -52 220 -85 311 -161
439 -103 176 -221 330 -392 515 -41 44 -97 113 -124 154 -69 101 -131 157
-254 231 -110 65 -130 93 -78 106 78 20 216 -42 320 -143 86 -83 342 -381 447
-520 118 -156 294 -428 311 -481 8 -26 18 -87 22 -137 7 -106 46 -318 74 -401
10 -33 35 -90 56 -129 36 -70 36 -70 31 -225 -5 -142 -11 -185 -81 -525 -108
-531 -195 -830 -317 -1085 -69 -144 -196 -338 -301 -459 -40 -46 -84 -105 -98
-131 -26 -47 -26 -47 10 -35 19 7 62 18 95 24 33 6 87 24 120 41 50 25 70 43
121 112 187 251 269 432 384 848 50 182 75 307 89 438 6 56 16 148 22 205 6
56 26 163 46 237 19 74 45 176 58 225 67 261 84 517 46 705 -11 58 -21 139
-21 180 0 68 -3 80 -36 135 -65 108 -91 135 -130 135 -76 0 -119 42 -281 275
-139 198 -245 332 -400 500 -65 72 -144 162 -176 202 -46 58 -69 78 -120 101
-84 40 -222 68 -271 55z m1257 -1411 c23 -25 37 -66 57 -172 28 -143 34 -238
18 -285 -14 -43 -41 -57 -53 -28 -13 35 -75 398 -75 444 0 62 20 78 53 41z"/>
<path d="M4170 6830 c-17 -17 -19 -24 -9 -43 6 -12 78 -89 159 -172 184 -187
275 -303 456 -575 78 -118 154 -228 168 -245 26 -30 26 -30 42 -10 11 15 15
36 12 81 -5 75 -62 195 -179 375 -227 347 -450 573 -596 604 -25 5 -36 2 -53
-15z"/>
<path d="M3165 6129 c-33 -5 -66 -7 -73 -4 -18 7 16 -51 49 -82 101 -96 376
-256 464 -269 72 -10 112 -26 184 -73 96 -62 132 -51 92 28 -25 47 -95 106
-189 157 -149 82 -231 130 -318 185 -101 65 -122 71 -209 58z"/>
<path d="M3109 5806 c-20 -7 -53 -23 -73 -35 -20 -13 -42 -21 -50 -18 -21 8
60 -128 201 -337 94 -140 136 -212 148 -253 24 -82 37 -103 111 -185 78 -86
129 -159 174 -248 136 -270 178 -676 99 -970 -38 -142 -135 -319 -235 -430
-28 -30 -60 -72 -72 -93 -21 -37 -21 -37 26 -39 79 -2 146 4 169 16 28 14 104
112 155 199 118 203 165 419 146 682 -16 238 -71 482 -142 631 -58 122 -88
163 -222 311 -63 69 -114 133 -114 144 0 25 35 25 75 1 58 -36 263 -232 300
-288 73 -109 135 -293 185 -544 90 -458 81 -634 -51 -909 -68 -144 -148 -261
-247 -361 -46 -47 -92 -97 -103 -111 -19 -26 -19 -26 70 -33 94 -8 146 -2 171
17 22 17 119 140 168 213 125 186 235 481 257 688 7 63 6 70 -32 149 -43 89
-53 124 -112 415 -47 229 -75 322 -146 499 -33 81 -57 158 -63 202 -19 131
-61 189 -311 420 -115 107 -146 129 -225 166 -50 24 -113 59 -141 79 -55 40
-63 41 -116 22z m248 -229 c34 -19 316 -271 378 -338 65 -71 103 -138 85 -149
-23 -14 -51 3 -133 78 -45 41 -115 99 -157 129 -138 101 -220 196 -220 253 0
41 11 47 47 27z"/>
<path d="M3601 5691 c-33 -21 1 -58 188 -204 66 -51 137 -140 178 -222 32 -62
130 -344 172 -492 18 -62 58 -247 91 -412 32 -164 63 -308 69 -320 17 -31 48
-26 71 12 33 53 35 93 11 176 -13 42 -33 150 -47 241 -31 216 -48 297 -95 460
-67 234 -141 406 -230 536 -68 98 -97 123 -165 140 -32 9 -90 33 -129 55 -75
41 -90 45 -114 30z"/>
<path d="M6320 5411 c-17 -32 -12 -111 19 -298 16 -98 34 -243 40 -323 14
-187 16 -198 51 -273 42 -88 53 -192 40 -358 -20 -243 -62 -446 -143 -674 -56
-161 -295 -636 -406 -810 -50 -77 -104 -167 -122 -200 -17 -33 -41 -73 -52
-90 -33 -49 239 223 310 310 97 118 223 314 292 450 201 402 302 1010 231
1394 -6 31 -22 146 -36 256 -34 276 -70 419 -135 545 -48 93 -68 109 -89 71z"/>
<path d="M3009 5250 c-19 -10 -41 -26 -48 -34 -8 -9 -25 -16 -39 -16 -25 0
-25 0 -2 -25 13 -14 33 -40 44 -59 12 -18 44 -68 73 -111 35 -52 63 -112 87
-184 80 -242 113 -426 102 -581 -9 -137 -23 -190 -105 -400 -17 -45 -17 -45
48 -39 84 7 108 21 130 72 51 119 66 205 66 377 0 177 -5 209 -62 410 -26 90
-37 152 -40 220 -5 84 -10 105 -43 176 -43 94 -112 199 -135 208 -25 9 -36 7
-76 -14z"/>
<path d="M7081 5244 c0 -11 3 -14 6 -6 3 7 2 16 -1 19 -3 4 -6 -2 -5 -13z"/>
<path d="M6954 5025 c-7 -19 -14 -63 -14 -97 0 -68 24 -413 40 -573 6 -55 11
-129 11 -165 2 -65 2 -65 11 25 12 112 16 733 5 798 -10 57 -32 62 -53 12z"/>
<path d="M3333 4904 c-3 -9 3 -44 15 -78 11 -33 39 -113 61 -176 51 -146 71
-247 78 -385 11 -221 -39 -431 -144 -601 -20 -33 -52 -88 -72 -124 -37 -65
-37 -65 58 -60 92 6 94 6 123 40 39 47 111 198 137 286 72 244 63 520 -26 786
-69 210 -201 388 -230 312z"/>
<path d="M2946 4582 c27 -94 47 -260 38 -311 -7 -36 -7 -36 15 -8 13 15 29 27
37 27 8 0 24 21 36 47 16 36 19 59 15 103 -9 100 -67 203 -108 193 -11 -3 -28
2 -38 11 -17 15 -16 10 5 -62z"/>
<path d="M6305 4478 c-22 -33 -31 -70 -64 -283 -70 -449 -147 -679 -277 -826
-43 -50 -86 -117 -139 -218 -144 -273 -295 -503 -492 -748 -45 -56 -92 -121
-104 -145 -12 -24 -31 -54 -43 -68 -21 -25 -21 -25 9 1 17 15 78 58 137 98
131 86 265 198 336 277 30 32 88 115 131 184 105 168 353 621 396 719 101 238
176 594 179 857 1 106 -2 145 -13 157 -19 23 -37 21 -56 -5z"/>
</g>
</svg>
