<?xml version="1.0" standalone="no"?>
<!DOCTYPE svg PUBLIC "-//W3C//DTD SVG 20010904//EN"
 "http://www.w3.org/TR/2001/REC-SVG-20010904/DTD/svg10.dtd">
<svg version="1.0" xmlns="http://www.w3.org/2000/svg"
 width="1000.000000pt" height="1000.000000pt" viewBox="0 0 1000.000000 1000.000000"
 preserveAspectRatio="xMidYMid meet">
<metadata>
  <rdf:RDF
    xmlns:rdf = "http://www.w3.org/1999/02/22-rdf-syntax-ns#"
    xmlns:rdfs = "http://www.w3.org/2000/01/rdf-schema#"
    xmlns:dc = "http://purl.org/dc/elements/1.1/"
    xmlns:cc = "http://creativecommons.org/ns#">
    <cc:license rdf:resource="http://creativecommons.org/publicdomain/zero/1.0/deed.en"/>
    <cc:permits rdf:resource="http://creativecommons.org/ns#Reproduction"/>
    <rdf:Description about="https://nft.mir.one/fingerprints"
      dc:title="TON Fingerprints"
      dc:description="This is a unique digital fingerprint created based on the algorithm for generating basic rings using a noise texture. Like human fingerprints, you can now use it for the Web3 and Metaverse era as digital biometric information."
      dc:publisher="https://nft.mir.one"
      dc:date="2022-02-22"
      dc:format="image/svg+xml"
      dc:language="en" >
      <dc:creator>
      <rdf:Bag>
        <rdf:li>EQBondcvD2_aOFADXSWJHs4ZazQDuEl9_wNvGGPxI8hGuOFU</rdf:li>
        <rdf:li>ipfs://bafkreihj7iub3fhmhq6jn62noukt5wxn3gv6bvcg7wmt6ywvlurefezckq</rdf:li>
      </rdf:Bag>
      </dc:creator>
    </rdf:Description>
  </rdf:RDF>
</metadata>
<rect width="100%" height="100%" fill="#1b1f23"/>
<g transform="translate(0.000000,1000.000000) scale(0.100000,-0.100000)"
fill="#ffffff" stroke="none">
<path d="M5090 7788 c51 -24 209 -40 196 -19 -4 6 -33 11 -64 11 -52 0 -79 5
-152 23 -14 4 -5 -3 20 -15z"/>
<path d="M5318 7763 c7 -3 16 -2 19 1 4 3 -2 6 -13 5 -11 0 -14 -3 -6 -6z"/>
<path d="M4665 7735 c126 -28 217 -32 234 -11 12 15 1 16 -264 31 -80 5 -80 5
30 -20z"/>
<path d="M4890 7614 c-8 -2 -82 -8 -165 -13 -82 -6 -204 -21 -270 -35 -66 -13
-182 -32 -258 -42 -139 -17 -139 -17 -106 -43 18 -14 67 -39 109 -56 119 -48
160 -77 236 -167 87 -103 152 -156 291 -237 412 -242 482 -289 591 -395 117
-113 246 -311 257 -396 4 -25 8 -55 11 -67 2 -12 77 -113 165 -225 360 -453
562 -743 652 -938 115 -247 226 -605 297 -955 38 -186 41 -242 13 -281 -46
-65 -57 -209 -24 -324 18 -65 18 -65 25 -10 16 124 46 277 58 302 16 33 60 38
91 11 19 -18 20 -17 6 7 -10 19 -13 64 -11 180 4 232 -10 353 -58 522 -63 217
-107 349 -167 503 -87 220 -130 298 -222 400 -44 50 -125 151 -178 225 -54 74
-170 225 -258 335 -88 110 -183 236 -211 280 -100 157 -183 317 -194 374 -6
31 -13 66 -16 78 -6 31 -122 142 -229 219 -81 58 -250 146 -576 302 -108 52
-179 106 -179 136 0 27 35 20 244 -49 416 -138 576 -217 836 -415 168 -128
269 -241 522 -580 96 -128 137 -162 159 -130 39 59 -68 251 -288 516 -60 71
-115 144 -122 161 -15 38 -11 77 9 81 21 3 163 -130 254 -238 150 -179 226
-313 277 -487 18 -59 56 -169 85 -243 82 -209 104 -296 114 -445 7 -122 11
-140 65 -295 90 -259 180 -535 214 -656 17 -62 45 -136 62 -165 30 -54 30 -54
25 -9 -3 25 -8 99 -11 165 -13 246 -59 538 -130 808 -19 73 -50 205 -70 294
-79 361 -214 697 -374 934 -122 181 -268 332 -371 381 -27 14 -71 24 -110 26
-62 4 -72 9 -209 94 -260 163 -452 240 -761 303 -134 28 -210 37 -322 42 -169
7 -194 17 -145 59 38 32 93 38 317 31 387 -12 614 -59 833 -171 118 -60 394
-221 482 -280 76 -51 219 -188 298 -286 211 -261 395 -632 456 -916 50 -229
76 -325 119 -437 25 -64 46 -116 48 -114 5 4 -98 492 -136 646 -68 278 -238
626 -438 894 -195 262 -518 534 -805 679 -173 86 -218 98 -412 108 -169 9
-366 11 -395 4z"/>
<path d="M3955 7269 c-22 -5 -86 -23 -143 -40 -56 -17 -110 -28 -119 -25 -15
6 -16 5 -1 -11 9 -10 19 -29 23 -43 4 -14 18 -38 31 -53 13 -16 42 -59 63 -95
57 -98 98 -145 192 -223 123 -102 285 -208 442 -288 76 -39 168 -91 204 -117
99 -70 203 -180 269 -283 141 -221 243 -367 365 -521 405 -513 582 -895 678
-1460 27 -159 56 -430 91 -855 40 -478 46 -535 69 -585 18 -40 19 -41 26 -19
3 13 22 62 40 109 18 47 43 123 55 170 25 98 25 103 -14 560 -34 392 -50 523
-92 725 -59 293 -124 483 -255 745 -135 269 -290 496 -568 830 -197 237 -246
308 -271 388 -27 88 -55 126 -151 208 -108 92 -211 165 -366 259 -224 136
-494 326 -556 393 -41 43 -33 66 22 70 58 4 149 -40 316 -153 72 -49 212 -141
312 -206 99 -64 248 -166 330 -226 81 -61 185 -133 230 -160 44 -28 121 -81
169 -118 91 -70 128 -89 151 -81 61 24 -98 222 -320 400 -94 76 -299 214 -503
341 -53 33 -170 115 -260 182 -197 146 -272 186 -358 190 -34 1 -79 -2 -101
-8z"/>
<path d="M3490 6875 c13 -14 29 -25 37 -25 23 0 14 26 -12 38 -41 19 -50 14
-25 -13z"/>
<path d="M3549 6797 c-27 -32 -56 -50 -115 -75 -44 -18 -90 -32 -103 -32 -20
0 -16 -4 20 -23 24 -13 61 -29 81 -36 56 -19 88 -48 88 -82 0 -32 -7 -35 -95
-42 -44 -4 -224 -73 -225 -87 0 -13 96 -41 189 -55 58 -9 112 -21 120 -28 23
-17 140 -135 178 -180 23 -28 33 -49 33 -73 0 -49 -20 -45 -142 28 -125 74
-249 122 -294 113 -18 -3 -69 -24 -114 -46 -82 -41 -82 -41 -54 -58 35 -21
422 -146 479 -155 22 -4 63 -2 90 3 44 9 57 7 102 -14 72 -33 256 -157 516
-349 353 -260 458 -355 633 -571 187 -232 274 -390 274 -497 0 -16 25 -93 56
-170 65 -164 83 -268 47 -268 -24 0 -37 14 -97 112 -26 43 -69 101 -95 130
-59 65 -278 215 -326 224 -42 8 -85 -2 -85 -19 0 -7 68 -78 151 -158 385 -369
411 -399 350 -407 -57 -8 -99 20 -300 201 -193 175 -252 264 -223 338 9 26 6
32 -37 72 -60 57 -74 64 -141 72 -74 9 -121 32 -263 135 -197 141 -286 182
-316 146 -34 -41 -1 -76 314 -332 124 -101 221 -188 255 -230 132 -161 168
-198 254 -263 106 -79 307 -263 367 -336 155 -188 211 -520 130 -765 -38 -113
-141 -721 -134 -786 5 -40 5 -40 62 20 157 165 173 196 246 481 54 208 68 339
62 555 -6 191 -20 282 -82 524 -33 129 -32 154 10 246 57 125 48 229 -40 499
-78 238 -174 410 -352 626 -125 152 -274 293 -428 404 -231 167 -385 297 -655
551 -156 147 -209 189 -287 229 -32 16 -43 27 -43 45 0 66 100 74 212 17 94
-48 221 -155 330 -278 212 -239 369 -372 633 -533 127 -77 371 -357 518 -593
74 -120 170 -326 212 -457 60 -188 75 -282 85 -520 5 -127 20 -297 36 -415 24
-174 27 -235 28 -470 1 -352 -8 -404 -103 -605 -84 -179 -82 -171 -90 -249 -7
-61 -7 -63 8 -40 9 13 58 70 109 126 101 111 123 122 162 81 11 -12 24 -36 29
-53 9 -34 10 -33 40 65 10 36 34 101 52 145 32 80 32 80 20 372 -13 327 -28
516 -71 905 -55 492 -113 704 -280 1026 -94 180 -210 351 -396 583 -134 166
-164 210 -210 306 -66 141 -116 215 -212 315 -159 167 -326 258 -372 203 -16
-20 -23 -12 221 -255 210 -210 268 -285 241 -312 -22 -22 -90 23 -232 154
-222 204 -280 278 -280 357 0 31 -7 46 -32 72 -34 34 -238 187 -399 299 -51
36 -121 91 -155 123 -80 74 -112 77 -165 14z"/>
<path d="M5653 6643 c-17 -6 -16 -38 3 -74 24 -48 231 -347 292 -424 31 -38
93 -110 137 -160 112 -124 170 -201 255 -335 82 -132 134 -190 167 -190 68 0
44 119 -68 343 -82 163 -118 207 -204 256 -57 32 -126 104 -218 225 -229 303
-308 381 -364 359z"/>
<path d="M5113 6234 c-11 -30 30 -85 196 -258 454 -472 764 -969 914 -1467 77
-253 119 -497 137 -790 24 -405 44 -590 73 -682 21 -68 21 -68 39 15 65 302
67 317 69 629 3 324 -4 383 -72 651 -114 454 -257 756 -548 1163 -211 295
-368 474 -494 566 -39 30 -101 77 -137 105 -102 81 -163 104 -177 68z"/>
<path d="M3085 5892 c-80 -39 -80 -39 -35 -65 91 -53 221 -108 415 -175 110
-38 250 -90 310 -115 216 -92 493 -259 663 -401 104 -87 144 -130 243 -261 81
-106 145 -170 280 -279 94 -75 125 -88 145 -62 26 36 -16 105 -206 338 -244
299 -383 425 -720 650 -220 147 -409 245 -550 284 -52 14 -163 48 -245 75 -83
27 -167 49 -186 49 -20 0 -69 -16 -114 -38z"/>
<path d="M2986 5626 c-33 -15 -25 -23 30 -31 26 -4 45 -2 58 8 43 32 -26 50
-88 23z"/>
<path d="M3145 5519 c-16 -4 -74 -46 -127 -93 -97 -84 -97 -84 -55 -94 23 -6
98 -13 167 -16 201 -8 365 -50 639 -165 40 -17 119 -45 175 -62 161 -50 271
-114 458 -266 116 -95 168 -110 168 -52 0 104 -210 299 -478 441 -244 131
-574 260 -763 298 -105 22 -137 23 -184 9z"/>
<path d="M3063 5155 c-15 -7 -56 -40 -91 -73 -63 -61 -63 -61 -29 -76 19 -8
99 -24 177 -36 265 -40 413 -91 539 -186 33 -25 109 -100 169 -167 60 -67 155
-171 211 -232 123 -132 233 -274 288 -376 68 -123 271 -594 323 -749 84 -250
113 -445 91 -600 -16 -104 -40 -170 -93 -251 -22 -35 -48 -87 -58 -116 -17
-52 -17 -52 27 -22 63 44 130 71 154 64 26 -8 49 -62 49 -111 0 -37 0 -37 38
22 96 150 99 157 112 311 7 78 10 188 8 245 -5 96 -9 112 -62 245 -31 79 -56
145 -56 148 0 27 -111 299 -186 455 -89 186 -124 283 -124 341 0 14 -13 52
-30 85 -57 113 -161 236 -398 469 -163 161 -250 254 -287 310 -36 53 -71 91
-102 112 -152 100 -362 168 -610 196 -18 2 -45 -2 -60 -8z"/>
<path d="M3032 4778 c-23 -18 -56 -53 -75 -79 -34 -45 -34 -45 6 -58 22 -7 63
-16 90 -22 87 -16 151 -53 243 -139 104 -98 172 -143 282 -186 120 -47 192
-102 289 -217 99 -118 164 -228 312 -527 156 -315 183 -395 201 -581 15 -153
-3 -305 -55 -469 -8 -25 -18 -71 -23 -103 -9 -58 -9 -58 12 -38 12 10 42 29
69 41 26 12 69 43 96 69 70 67 86 136 86 371 -1 149 -4 189 -24 270 -34 138
-83 274 -163 450 -180 399 -269 537 -503 780 -53 55 -110 127 -135 170 -57 97
-123 160 -213 204 -58 29 -106 42 -244 66 -95 16 -181 30 -191 30 -11 0 -38
-15 -60 -32z m461 -191 c142 -74 202 -179 84 -146 -42 11 -172 95 -207 133
-24 27 -24 28 -6 42 24 17 54 10 129 -29z"/>
<path d="M2972 4419 c10 -14 73 -76 139 -138 120 -113 159 -167 159 -217 0
-25 -2 -26 -32 -18 -43 10 -134 9 -174 -2 -32 -9 -32 -9 49 -79 45 -38 104
-93 133 -121 87 -86 174 -252 215 -412 21 -81 49 -302 49 -386 0 -49 0 -49 21
-22 11 14 28 26 37 26 21 1 65 39 83 71 15 29 14 170 -2 279 -17 115 -59 229
-154 422 -87 176 -87 176 -90 265 -1 56 -8 99 -18 118 -19 37 -167 182 -223
219 -37 24 -48 26 -126 24 -85 -3 -85 -3 -66 -29z"/>
<path d="M3497 4163 c-24 -23 -2 -77 91 -225 124 -196 194 -368 211 -517 10
-88 -1 -380 -19 -509 -5 -40 -10 -100 -10 -133 0 -60 0 -60 26 -40 15 12 32
21 38 21 20 0 87 61 98 89 5 14 14 109 19 211 9 194 17 236 50 266 30 27 44 3
57 -96 28 -212 24 -384 -13 -560 -7 -36 -16 -88 -18 -116 -4 -51 -4 -51 30
-30 96 59 128 83 144 106 27 37 43 184 36 330 -10 214 -52 334 -140 399 -50
36 -54 43 -90 147 -103 291 -275 557 -411 635 -49 28 -86 36 -99 22z"/>
<path d="M4660 4005 c-21 -26 -3 -73 81 -212 111 -185 171 -314 234 -509 54
-165 80 -214 115 -214 101 0 64 345 -61 569 -77 138 -250 340 -315 367 -41 17
-39 17 -54 -1z"/>
</g>
</svg>
