<?xml version="1.0" standalone="no"?>
<!DOCTYPE svg PUBLIC "-//W3C//DTD SVG 20010904//EN"
 "http://www.w3.org/TR/2001/REC-SVG-20010904/DTD/svg10.dtd">
<svg version="1.0" xmlns="http://www.w3.org/2000/svg"
 width="1000.000000pt" height="1000.000000pt" viewBox="0 0 1000.000000 1000.000000"
 preserveAspectRatio="xMidYMid meet">
<metadata>
  <rdf:RDF
    xmlns:rdf = "http://www.w3.org/1999/02/22-rdf-syntax-ns#"
    xmlns:rdfs = "http://www.w3.org/2000/01/rdf-schema#"
    xmlns:dc = "http://purl.org/dc/elements/1.1/"
    xmlns:cc = "http://creativecommons.org/ns#">
    <cc:license rdf:resource="http://creativecommons.org/publicdomain/zero/1.0/deed.en"/>
    <cc:permits rdf:resource="http://creativecommons.org/ns#Reproduction"/>
    <rdf:Description about="https://nft.mir.one/fingerprints"
      dc:title="TON Fingerprints"
      dc:description="This is a unique digital fingerprint created based on the algorithm for generating basic rings using a noise texture. Like human fingerprints, you can now use it for the Web3 and Metaverse era as digital biometric information."
      dc:publisher="https://nft.mir.one"
      dc:date="2022-02-22"
      dc:format="image/svg+xml"
      dc:language="en" >
      <dc:creator>
      <rdf:Bag>
        <rdf:li>EQBondcvD2_aOFADXSWJHs4ZazQDuEl9_wNvGGPxI8hGuOFU</rdf:li>
        <rdf:li>ipfs://bafkreihj7iub3fhmhq6jn62noukt5wxn3gv6bvcg7wmt6ywvlurefezckq</rdf:li>
      </rdf:Bag>
      </dc:creator>
    </rdf:Description>
  </rdf:RDF>
</metadata>
<rect width="100%" height="100%" fill="#1b1f23"/>
<g transform="translate(0.000000,1000.000000) scale(0.100000,-0.100000)"
fill="#ffffff" stroke="none">
<path d="M4910 7775 c-369 -108 -763 -298 -1015 -489 -93 -71 -245 -201 -365
-315 -85 -80 -85 -80 -8 -38 43 23 178 113 300 199 268 189 367 246 650 377
119 55 265 128 325 162 59 35 141 80 182 101 40 21 67 38 60 38 -8 -1 -66 -16
-129 -35z"/>
<path d="M5350 7725 c-162 -33 -326 -82 -384 -113 -27 -15 -59 -42 -71 -63
-18 -28 -37 -41 -87 -59 -517 -188 -641 -250 -808 -406 -47 -44 -148 -122
-225 -174 -220 -149 -410 -355 -569 -618 -114 -188 -156 -291 -156 -381 0 -31
-11 -110 -25 -176 -27 -129 -31 -195 -15 -226 18 -33 27 -21 39 51 6 39 23
100 36 138 21 56 37 79 98 137 91 88 147 168 147 212 0 29 -3 33 -28 33 -32 0
-69 -35 -122 -115 -36 -53 -48 -65 -67 -65 -20 0 -43 30 -43 59 0 63 47 124
242 317 216 213 287 276 403 359 179 128 287 176 447 200 55 9 169 31 252 49
259 58 353 70 551 70 200 -1 348 -21 555 -74 146 -38 199 -65 222 -110 31 -58
107 -120 269 -218 226 -137 332 -215 449 -332 128 -127 160 -184 189 -328 11
-56 54 -205 95 -330 87 -264 119 -381 145 -536 18 -105 25 -170 52 -510 6 -76
19 -171 30 -210 10 -39 19 -102 20 -141 2 -70 2 -70 10 5 4 41 6 235 4 430 -5
489 -20 599 -150 1064 -73 263 -76 286 -41 286 58 0 119 -88 136 -195 9 -59
99 -310 107 -301 2 2 -12 60 -32 131 -19 70 -39 160 -44 199 -5 40 -18 90 -29
113 -33 64 -256 393 -301 445 -102 115 -524 356 -776 443 -44 15 -83 32 -87
38 -10 16 1 33 28 46 102 46 380 -49 739 -254 79 -45 194 -92 201 -82 5 7
-315 298 -366 334 -158 110 -308 156 -600 183 -63 6 -196 24 -295 40 -344 56
-572 61 -806 19 -97 -17 -151 -32 -432 -115 -95 -28 -137 -27 -137 5 0 59 252
175 545 252 85 23 106 24 385 24 292 0 296 0 450 -32 85 -17 226 -41 313 -53
188 -24 271 -41 397 -79 52 -16 113 -32 135 -35 22 -4 49 -9 60 -12 11 -3 -18
20 -65 51 -241 159 -424 228 -670 255 -118 13 -173 34 -178 67 -5 32 45 42
270 53 105 6 193 11 195 13 1 2 -52 17 -120 33 -93 22 -146 29 -222 29 -96 0
-103 -2 -190 -42 -195 -90 -485 -110 -485 -34 0 16 13 24 73 41 176 51 337
119 387 165 14 12 39 30 55 38 38 21 33 20 -105 -8z"/>
<path d="M4651 6794 c-141 -19 -358 -68 -488 -109 -205 -65 -387 -180 -563
-355 -136 -135 -190 -215 -190 -279 0 -76 -25 -139 -99 -252 -38 -59 -88 -140
-112 -180 -23 -41 -66 -99 -95 -129 -61 -64 -68 -85 -83 -265 -20 -228 -11
-490 25 -705 32 -190 112 -409 178 -487 33 -39 90 -67 123 -59 21 6 24 11 18
37 -4 16 -29 77 -56 135 -65 137 -115 288 -130 394 -13 92 -7 354 12 519 22
194 31 216 273 686 156 301 193 361 288 460 230 243 555 387 957 425 322 30
670 -67 1009 -282 308 -195 481 -372 622 -633 24 -44 68 -119 97 -167 138
-224 189 -403 215 -747 19 -246 -13 -525 -73 -644 -12 -23 -43 -65 -69 -94
-59 -64 -84 -115 -115 -232 -40 -149 -108 -264 -289 -490 -59 -74 -123 -165
-141 -202 -43 -84 -80 -110 -322 -223 -383 -179 -752 -309 -997 -351 -113 -19
-339 -19 -475 0 -57 8 -106 13 -109 11 -21 -22 142 -96 276 -127 112 -25 302
-36 379 -20 113 22 577 192 838 306 169 74 224 93 316 110 163 29 329 112 456
229 177 162 398 494 505 760 27 66 56 128 65 138 14 16 14 18 0 24 -31 11 -55
-17 -121 -143 -97 -185 -318 -487 -463 -630 -110 -109 -215 -173 -258 -157
-30 12 -14 42 56 105 95 84 229 241 325 381 43 62 108 145 145 184 79 83 95
113 154 280 73 206 78 247 72 553 -9 450 -49 637 -231 1084 -121 299 -165 374
-297 506 -98 99 -192 169 -464 351 -272 181 -328 208 -530 255 -200 47 -426
57 -634 29z m1949 -2828 c0 -28 -10 -62 -28 -97 -47 -90 -89 -72 -59 25 36
112 87 155 87 72z"/>
<path d="M4660 6490 c-397 -55 -722 -250 -920 -550 -112 -171 -246 -470 -295
-658 -29 -109 -42 -278 -30 -386 7 -73 4 -68 93 -143 57 -48 86 -107 118 -240
48 -201 154 -378 283 -474 72 -53 112 -69 175 -69 28 0 121 -9 206 -20 336
-43 565 -15 800 97 90 44 103 54 248 202 211 214 277 310 318 461 24 89 25
281 0 369 -42 155 -132 264 -202 247 -39 -10 -40 -46 -4 -148 80 -232 81 -405
2 -552 -38 -72 -157 -189 -213 -209 -233 -82 -422 -126 -540 -127 -141 0 -354
58 -474 131 -98 59 -386 294 -431 352 -114 146 -150 342 -104 567 52 254 169
486 330 654 206 214 491 338 785 340 103 1 127 -2 168 -21 38 -18 47 -27 47
-47 0 -29 -7 -31 -165 -46 -517 -51 -840 -306 -956 -756 -26 -101 -31 -138
-32 -244 -1 -139 14 -214 63 -309 110 -218 380 -434 620 -495 93 -24 231 -31
319 -16 99 17 326 129 403 199 88 80 131 199 94 256 -9 14 -22 25 -29 25 -6 0
-32 -30 -57 -67 -70 -104 -150 -153 -249 -153 -77 0 -238 42 -313 82 -136 71
-233 208 -245 344 -10 121 31 224 135 335 86 93 125 71 76 -43 -14 -35 -38
-94 -51 -133 -79 -220 63 -440 307 -478 91 -14 154 6 249 78 40 30 84 58 97
61 14 4 29 14 34 24 25 47 -2 219 -47 307 -29 55 -75 83 -137 83 -94 0 -195
-68 -232 -156 -31 -75 -4 -176 50 -190 32 -8 42 -1 49 36 13 61 97 44 97 -21
0 -63 -83 -117 -160 -104 -116 20 -195 152 -170 288 28 151 136 280 306 364
91 45 102 48 173 47 187 -1 386 -123 474 -291 65 -124 82 -205 82 -388 0 -136
-3 -171 -23 -238 -50 -173 -139 -301 -327 -468 -148 -131 -222 -185 -332 -242
-175 -89 -325 -126 -548 -134 -127 -4 -179 -2 -255 12 -181 33 -240 32 -240
-3 0 -47 71 -95 191 -129 97 -27 368 -24 505 5 283 61 474 160 781 405 271
215 306 257 362 432 45 139 54 222 48 412 -6 193 -32 320 -92 450 -115 248
-338 423 -642 503 -241 63 -453 40 -688 -74 -190 -93 -344 -262 -314 -344 5
-14 17 -22 32 -22 26 0 41 10 150 102 123 102 350 195 503 205 75 5 83 4 104
-17 22 -22 22 -22 0 -45 -11 -12 -51 -35 -88 -50 -37 -16 -98 -44 -137 -63
-43 -21 -93 -37 -132 -42 -88 -11 -142 -41 -237 -130 -111 -105 -139 -158
-144 -272 -8 -153 50 -283 177 -401 113 -104 235 -156 409 -176 99 -11 112
-15 112 -35 0 -39 -151 -57 -277 -33 -160 31 -278 93 -399 212 -159 157 -225
334 -202 547 4 40 12 129 16 198 8 111 13 132 40 187 90 177 305 323 566 384
67 15 184 43 261 61 167 39 215 39 335 -2 288 -96 545 -303 660 -530 76 -150
115 -380 115 -675 0 -248 -9 -300 -90 -540 -44 -129 -55 -173 -55 -224 0 -49
-10 -93 -41 -185 -66 -194 -114 -273 -249 -407 -236 -234 -592 -391 -1087
-479 -159 -28 -213 -46 -213 -74 0 -103 419 -54 790 91 422 166 676 381 836
708 52 105 157 408 209 600 61 225 75 480 41 748 -11 89 -16 186 -14 275 3
137 3 137 -39 225 -127 265 -356 480 -683 643 -132 65 -419 179 -502 199 -80
19 -253 27 -338 15z m-736 -2029 c155 -149 266 -213 452 -262 77 -20 113 -24
264 -24 199 0 259 11 420 76 113 46 143 51 148 26 13 -61 -219 -171 -428 -202
-234 -36 -539 6 -715 98 -120 63 -295 270 -295 349 0 65 38 50 154 -61z"/>
<path d="M6314 5404 c-4 -15 5 -92 20 -173 40 -226 49 -329 43 -500 -6 -183
-24 -290 -73 -444 -48 -148 -154 -419 -205 -523 -78 -160 -218 -347 -347 -465
-208 -189 -603 -369 -987 -450 -141 -30 -340 -32 -460 -6 -44 9 -143 21 -220
27 -176 11 -236 30 -392 120 -68 38 -128 70 -135 70 -7 0 -33 9 -58 20 -45 20
-45 20 30 -47 41 -38 118 -109 170 -159 110 -103 167 -145 238 -173 46 -18 78
-20 354 -23 249 -2 319 1 393 15 256 48 526 140 803 272 258 124 323 175 489
382 175 218 236 320 313 515 23 57 72 168 110 248 101 214 130 348 130 610 0
281 -55 566 -131 669 -36 50 -75 57 -85 15z"/>
<path d="M3367 4748 c-46 -35 -60 -164 -31 -288 8 -36 34 -121 56 -190 38
-113 42 -135 43 -225 0 -101 0 -101 52 -167 119 -149 328 -316 485 -387 131
-60 215 -76 398 -75 405 1 778 125 1092 362 200 151 218 162 260 162 33 0 42
5 69 43 48 66 70 116 67 150 -4 44 -33 46 -91 5 -25 -18 -122 -88 -214 -154
-221 -160 -294 -206 -416 -264 -313 -149 -699 -198 -950 -120 -111 35 -180 85
-347 250 -133 133 -162 166 -197 235 -61 117 -109 248 -158 435 -63 237 -75
260 -118 228z"/>
<path d="M3075 3934 c192 -331 355 -548 498 -660 145 -114 373 -201 552 -211
87 -5 107 -3 153 16 28 11 75 30 103 41 28 12 138 38 243 60 372 76 586 158
816 311 204 135 373 351 326 415 -13 18 -21 12 -123 -88 -163 -161 -293 -253
-483 -340 -339 -157 -903 -245 -1143 -180 -105 29 -231 89 -346 166 -97 65
-166 122 -397 327 -71 63 -151 132 -178 153 -49 40 -49 40 -21 -10z"/>
<path d="M6450 2986 c-14 -18 -111 -83 -250 -167 -70 -43 -138 -96 -206 -161
-55 -53 -125 -112 -155 -130 -87 -56 -502 -267 -576 -294 -54 -19 -60 -23 -28
-18 125 18 577 232 712 336 208 161 541 446 522 448 -4 0 -12 -7 -19 -14z"/>
<path d="M5790 2726 c-36 -13 -105 -42 -155 -66 -179 -84 -324 -143 -506 -205
-218 -74 -251 -90 -319 -150 -45 -40 -79 -55 -173 -78 -5 -2 36 -2 90 -2 76 0
106 -4 131 -18 19 -10 36 -16 39 -14 2 3 -4 8 -15 11 -30 10 -34 34 -12 66 17
24 34 32 98 45 299 63 456 116 684 231 196 98 263 148 242 182 -16 25 -32 24
-104 -2z"/>
<path d="M5158 2203 c6 -2 18 -2 25 0 6 3 1 5 -13 5 -14 0 -19 -2 -12 -5z"/>
<path d="M5098 2193 c6 -2 18 -2 25 0 6 3 1 5 -13 5 -14 0 -19 -2 -12 -5z"/>
<path d="M4968 2183 c18 -2 45 -2 60 0 15 2 0 4 -33 4 -33 0 -45 -2 -27 -4z"/>
</g>
</svg>
