<?xml version="1.0" standalone="no"?>
<!DOCTYPE svg PUBLIC "-//W3C//DTD SVG 20010904//EN"
 "http://www.w3.org/TR/2001/REC-SVG-20010904/DTD/svg10.dtd">
<svg version="1.0" xmlns="http://www.w3.org/2000/svg"
 width="1000.000000pt" height="1000.000000pt" viewBox="0 0 1000.000000 1000.000000"
 preserveAspectRatio="xMidYMid meet">
<metadata>
  <rdf:RDF
    xmlns:rdf = "http://www.w3.org/1999/02/22-rdf-syntax-ns#"
    xmlns:rdfs = "http://www.w3.org/2000/01/rdf-schema#"
    xmlns:dc = "http://purl.org/dc/elements/1.1/"
    xmlns:cc = "http://creativecommons.org/ns#">
    <cc:license rdf:resource="http://creativecommons.org/publicdomain/zero/1.0/deed.en"/>
    <cc:permits rdf:resource="http://creativecommons.org/ns#Reproduction"/>
    <rdf:Description about="https://nft.mir.one/fingerprints"
      dc:title="TON Fingerprints"
      dc:description="This is a unique digital fingerprint created based on the algorithm for generating basic rings using a noise texture. Like human fingerprints, you can now use it for the Web3 and Metaverse era as digital biometric information."
      dc:publisher="https://nft.mir.one"
      dc:date="2022-02-22"
      dc:format="image/svg+xml"
      dc:language="en" >
      <dc:creator>
      <rdf:Bag>
        <rdf:li>EQBondcvD2_aOFADXSWJHs4ZazQDuEl9_wNvGGPxI8hGuOFU</rdf:li>
        <rdf:li>ipfs://bafkreihj7iub3fhmhq6jn62noukt5wxn3gv6bvcg7wmt6ywvlurefezckq</rdf:li>
      </rdf:Bag>
      </dc:creator>
    </rdf:Description>
  </rdf:RDF>
</metadata>
<rect width="100%" height="100%" fill="#1b1f23"/>
<g transform="translate(0.000000,1000.000000) scale(0.100000,-0.100000)"
fill="#ffffff" stroke="none">
<path d="M4745 7780 c28 -5 187 -11 355 -14 187 -2 274 -1 225 4 -117 12 -641
21 -580 10z"/>
<path d="M4730 7603 c-239 -19 -471 -75 -700 -170 -164 -68 -164 -68 -116 -71
27 -2 112 8 190 22 519 94 1103 99 1721 16 83 -11 182 -20 220 -20 70 1 70 1
13 24 -170 71 -418 142 -598 170 -187 30 -538 44 -730 29z"/>
<path d="M4625 7309 c-248 -22 -558 -75 -664 -115 -83 -31 -264 -127 -365
-193 -42 -27 -87 -53 -99 -57 -21 -7 -21 -7 -2 -15 43 -16 104 -7 353 55 564
141 785 171 1252 171 267 -1 340 -4 479 -23 302 -41 463 -81 727 -182 85 -33
171 -60 190 -60 34 0 34 1 -53 67 -193 146 -360 241 -483 277 -75 22 -281 52
-479 71 -180 16 -679 19 -856 4z"/>
<path d="M4930 7024 c-415 -36 -628 -75 -1025 -189 -333 -96 -320 -89 -460
-224 -66 -64 -157 -150 -201 -192 -81 -76 -81 -76 -35 -71 52 5 169 51 299
116 194 98 532 216 827 291 489 124 879 143 1348 64 227 -38 379 -85 546 -168
102 -51 154 -67 300 -91 106 -18 131 -19 172 -9 47 12 47 12 13 36 -19 12 -58
41 -87 62 -86 65 -240 135 -462 210 -335 112 -608 158 -985 165 -113 2 -225 2
-250 0z"/>
<path d="M4951 6729 c-103 -10 -316 -50 -471 -89 -290 -74 -1135 -400 -1218
-470 -60 -52 -141 -150 -184 -225 -23 -38 -52 -87 -65 -109 -14 -21 -21 -36
-16 -34 4 2 25 12 46 21 20 10 58 33 83 52 141 108 487 254 824 349 210 60
212 61 274 114 70 61 133 87 320 132 89 21 193 50 233 64 120 41 202 49 425
43 144 -4 249 -13 363 -31 88 -14 219 -34 290 -45 172 -27 256 -28 280 -1 41
45 -35 94 -221 141 -301 76 -706 113 -963 88z"/>
<path d="M3354 6714 c-18 -14 -18 -15 4 -4 12 6 22 13 22 15 0 8 -5 6 -26 -11z"/>
<path d="M4965 6460 c-103 -10 -155 -32 -155 -66 0 -32 50 -45 261 -69 118
-13 329 -46 469 -74 274 -53 360 -65 600 -81 250 -18 428 -52 626 -121 49 -17
112 -31 140 -32 51 -2 51 -2 -5 62 -114 132 -216 231 -255 250 -50 24 -260 62
-353 63 -37 1 -104 -7 -147 -17 -106 -24 -244 -16 -526 29 -323 52 -517 69
-655 56z"/>
<path d="M4435 6309 c-70 -10 -139 -34 -155 -54 -6 -8 -9 -23 -5 -34 10 -34
70 -52 219 -67 77 -8 200 -25 271 -39 72 -13 186 -34 255 -45 308 -52 410 -83
445 -136 25 -38 13 -58 -33 -51 -20 3 -197 28 -392 56 -808 115 -933 126
-1086 96 -220 -43 -522 -164 -708 -285 -86 -56 -102 -71 -150 -144 -70 -105
-91 -148 -138 -280 -21 -59 -44 -118 -50 -130 -6 -11 42 35 108 103 180 187
318 287 529 386 103 49 272 105 395 132 71 15 128 18 340 17 220 0 296 -5 550
-33 165 -19 350 -33 420 -34 134 -1 167 7 242 60 44 30 45 30 388 -18 393 -56
627 -115 791 -200 62 -32 94 -57 137 -107 120 -138 189 -205 235 -228 48 -25
48 -25 24 13 -13 21 -47 84 -76 140 -63 123 -64 152 -9 168 20 5 39 13 42 16
3 3 -45 55 -107 115 -112 110 -112 110 -267 157 -225 67 -337 89 -700 137
-190 26 -286 46 -458 98 -73 22 -201 52 -285 67 -295 51 -347 63 -415 96 -62
30 -75 33 -182 35 -63 1 -142 -2 -175 -7z"/>
<path d="M4105 5674 c-386 -58 -679 -191 -912 -417 -52 -50 -106 -110 -118
-132 -33 -56 -83 -190 -120 -322 -32 -112 -32 -112 0 -85 18 15 67 73 110 130
177 237 368 401 576 495 291 133 624 172 1124 132 575 -46 922 -78 1090 -101
105 -14 260 -34 345 -45 184 -23 267 -46 377 -104 110 -58 204 -130 349 -268
168 -160 171 -160 122 -34 -71 183 -112 251 -197 326 -250 220 -409 284 -891
358 -155 25 -185 26 -500 24 -276 -1 -374 2 -555 20 -207 20 -722 34 -800 23z"/>
<path d="M4150 5319 c-442 -48 -702 -198 -982 -566 -99 -130 -108 -163 -119
-437 -4 -120 -11 -232 -15 -249 -6 -30 -6 -30 30 -1 19 16 52 50 71 76 20 26
73 72 118 103 45 31 114 81 152 111 101 79 181 117 392 188 104 35 229 82 280
105 145 66 225 82 388 83 358 0 677 -113 875 -312 69 -69 298 -367 393 -512
113 -172 216 -392 253 -542 17 -69 17 -69 -15 -127 -22 -41 -33 -77 -38 -122
-5 -62 -4 -67 25 -103 53 -66 64 -165 37 -329 -8 -49 -15 -106 -15 -125 1 -33
3 -31 45 45 25 44 57 116 72 160 39 113 36 179 -11 325 -46 140 -49 164 -19
168 33 5 86 -50 120 -125 29 -63 41 -108 75 -280 7 -35 15 -63 18 -63 3 0 19
46 35 103 21 78 29 125 29 197 1 106 2 105 -159 410 -194 368 -212 397 -410
661 -137 182 -173 242 -215 359 -32 89 -132 189 -245 247 -131 67 -321 128
-479 153 -169 27 -235 31 -466 31 -135 -1 -280 4 -324 10 -95 13 -190 0 -285
-38 -134 -53 -214 -123 -190 -166 14 -25 36 -22 192 30 100 32 160 46 202 47
57 1 60 0 60 -24 0 -19 -10 -30 -42 -48 -66 -36 -235 -91 -363 -118 -132 -28
-180 -55 -329 -189 -100 -90 -127 -95 -125 -28 1 54 42 118 172 261 53 60 120
137 147 173 88 112 238 196 416 233 116 24 402 39 599 33 279 -10 522 -46 765
-112 135 -37 347 -117 430 -163 44 -24 52 -33 67 -79 9 -29 23 -62 31 -74 9
-11 93 -93 189 -181 144 -133 187 -166 255 -200 106 -52 162 -110 215 -226 22
-48 80 -170 128 -272 48 -102 95 -207 105 -235 10 -27 24 -57 30 -65 7 -8 19
-27 26 -42 13 -24 14 -11 17 125 5 215 -6 269 -79 397 -59 104 -74 162 -46
173 37 14 133 -65 207 -170 18 -27 48 -61 67 -77 33 -28 33 -28 24 -4 -5 13
-12 51 -16 84 -9 73 -50 217 -71 248 -25 39 -87 76 -171 102 -121 39 -154 65
-275 220 -35 45 -91 116 -126 159 -51 63 -63 83 -60 108 2 17 8 32 15 34 17 6
151 -116 267 -241 105 -114 167 -159 204 -149 17 4 22 13 22 38 0 48 -64 138
-173 241 -98 94 -188 153 -272 180 -61 20 -77 34 -100 84 -11 25 -29 45 -50
54 -103 49 -789 171 -1245 221 -172 19 -609 28 -730 14z m1785 -450 c66 -19
115 -61 235 -203 120 -142 149 -186 150 -223 0 -18 -6 -23 -25 -23 -19 0 -65
39 -189 159 -98 96 -185 172 -219 191 -65 36 -80 52 -71 74 5 13 39 29 74 35
3 1 23 -4 45 -10z"/>
<path d="M6250 5143 c-20 -10 -36 -27 -38 -39 -3 -23 1 -25 146 -85 193 -79
357 -224 466 -410 83 -144 134 -214 173 -240 38 -25 38 -25 20 56 -35 156 -68
267 -93 318 -36 70 -196 227 -310 304 -144 95 -290 134 -364 96z"/>
<path d="M5702 4558 c-35 -35 13 -119 188 -325 69 -81 147 -175 172 -209 129
-169 319 -533 400 -766 17 -51 41 -108 54 -126 22 -33 22 -33 35 70 7 57 12
146 12 198 0 111 -14 152 -143 405 -116 229 -144 266 -387 506 -253 251 -295
283 -331 247z"/>
<path d="M4370 4554 c-152 -16 -419 -85 -645 -164 -214 -76 -322 -159 -273
-208 20 -20 57 -14 255 42 279 80 427 107 613 113 175 6 272 -7 422 -57 324
-108 627 -377 753 -667 112 -259 135 -541 65 -812 -35 -138 -82 -267 -136
-374 -20 -40 -51 -105 -70 -145 -33 -73 -33 -73 69 30 113 113 174 198 207
286 29 78 137 496 151 585 36 227 -64 498 -295 807 -274 367 -580 541 -991
563 -49 2 -106 3 -125 1z"/>
<path d="M4010 4151 c-63 -10 -182 -33 -265 -51 -106 -22 -185 -33 -268 -35
-106 -4 -123 -7 -175 -33 -47 -24 -63 -39 -90 -86 -19 -32 -40 -60 -48 -63
-17 -6 -18 -35 -2 -51 22 -22 97 -13 402 47 385 76 459 85 654 78 245 -8 404
-58 523 -164 55 -50 84 -105 134 -250 55 -162 69 -249 62 -383 -7 -134 -24
-204 -77 -317 -65 -139 -144 -249 -275 -383 -67 -69 -127 -135 -133 -146 -11
-21 -11 -21 51 3 101 39 201 89 237 119 89 75 222 299 280 471 46 138 62 228
64 348 1 124 -9 173 -66 324 -43 113 -45 144 -11 149 59 9 165 -154 199 -304
25 -112 15 -205 -40 -394 -25 -85 -55 -179 -66 -208 -66 -170 -167 -336 -281
-459 -40 -43 -89 -95 -109 -116 -35 -38 -35 -38 65 9 185 86 254 147 337 295
60 107 106 223 152 379 43 148 65 194 94 198 33 5 36 -18 17 -131 -33 -205
-129 -443 -247 -617 -111 -163 -129 -192 -116 -184 75 44 197 137 247 189 68
71 116 162 169 320 68 207 77 350 29 455 -14 30 -31 91 -37 135 -29 209 -109
385 -227 500 -60 59 -299 210 -430 272 -152 73 -257 95 -463 99 -135 3 -201
-1 -290 -15z"/>
<path d="M3881 3764 c-144 -24 -315 -90 -365 -140 -9 -8 -16 -32 -16 -53 0
-21 -7 -62 -16 -92 -27 -90 -15 -238 29 -371 20 -59 44 -123 54 -142 18 -35
18 -35 20 72 4 175 37 271 126 369 114 124 308 166 455 98 100 -46 206 -168
278 -320 48 -102 104 -297 104 -366 0 -56 -24 -139 -49 -170 -16 -20 -21 -21
-35 -10 -13 11 -16 34 -16 115 0 120 -16 191 -70 301 -89 184 -206 275 -353
276 -187 1 -323 -201 -242 -361 36 -71 79 -116 141 -146 50 -24 59 -26 94 -15
49 15 82 55 78 95 -3 35 -29 46 -53 23 -18 -19 -51 -11 -70 16 -23 33 -18 81
11 116 51 60 147 51 208 -21 49 -56 55 -98 24 -146 -90 -139 -100 -150 -147
-176 -69 -37 -181 -37 -261 0 -67 31 -56 18 25 -31 142 -85 289 -98 364 -31
35 31 62 102 68 179 7 75 18 84 53 40 20 -25 22 -37 18 -123 -4 -106 -23 -158
-80 -221 -18 -19 -46 -52 -61 -72 -28 -37 -28 -38 -5 -32 13 2 44 9 70 15 79
17 154 49 225 97 96 65 129 98 175 178 23 39 59 96 80 128 68 100 82 152 83
307 0 110 -4 149 -23 213 -49 170 -129 285 -235 336 -51 25 -95 35 -244 56
-201 28 -316 30 -442 9z m610 -193 c78 -49 158 -180 196 -321 22 -82 24 -270
4 -317 -28 -67 -52 -32 -71 104 -22 163 -55 252 -159 422 -53 87 -59 109 -39
129 16 16 18 16 69 -17z"/>
<path d="M3328 3643 c-28 -32 -46 -77 -53 -133 -3 -30 -9 -64 -12 -74 -4 -16
1 -14 30 10 50 42 147 159 147 177 0 36 -85 51 -112 20z"/>
<path d="M5877 3009 c-30 -18 -54 -80 -95 -250 -22 -90 -52 -197 -67 -237 -28
-79 -55 -175 -50 -180 1 -2 35 41 74 94 98 133 158 257 171 357 15 119 11 228
-9 227 -3 0 -14 -5 -24 -11z"/>
</g>
</svg>
