<?xml version="1.0" standalone="no"?>
<!DOCTYPE svg PUBLIC "-//W3C//DTD SVG 20010904//EN"
 "http://www.w3.org/TR/2001/REC-SVG-20010904/DTD/svg10.dtd">
<svg version="1.0" xmlns="http://www.w3.org/2000/svg"
 width="1000.000000pt" height="1000.000000pt" viewBox="0 0 1000.000000 1000.000000"
 preserveAspectRatio="xMidYMid meet">
<metadata>
  <rdf:RDF
    xmlns:rdf = "http://www.w3.org/1999/02/22-rdf-syntax-ns#"
    xmlns:rdfs = "http://www.w3.org/2000/01/rdf-schema#"
    xmlns:dc = "http://purl.org/dc/elements/1.1/"
    xmlns:cc = "http://creativecommons.org/ns#">
    <cc:license rdf:resource="http://creativecommons.org/publicdomain/zero/1.0/deed.en"/>
    <cc:permits rdf:resource="http://creativecommons.org/ns#Reproduction"/>
    <rdf:Description about="https://nft.mir.one/fingerprints"
      dc:title="TON Fingerprints"
      dc:description="This is a unique digital fingerprint created based on the algorithm for generating basic rings using a noise texture. Like human fingerprints, you can now use it for the Web3 and Metaverse era as digital biometric information."
      dc:publisher="https://nft.mir.one"
      dc:date="2022-02-22"
      dc:format="image/svg+xml"
      dc:language="en" >
      <dc:creator>
      <rdf:Bag>
        <rdf:li>EQBondcvD2_aOFADXSWJHs4ZazQDuEl9_wNvGGPxI8hGuOFU</rdf:li>
        <rdf:li>ipfs://bafkreihj7iub3fhmhq6jn62noukt5wxn3gv6bvcg7wmt6ywvlurefezckq</rdf:li>
      </rdf:Bag>
      </dc:creator>
    </rdf:Description>
  </rdf:RDF>
</metadata>
<rect width="100%" height="100%" fill="#1b1f23"/>
<g transform="translate(0.000000,1000.000000) scale(0.100000,-0.100000)"
fill="#ffffff" stroke="none">
<path d="M4915 7781 c175 -5 227 -10 253 -23 36 -18 45 -6 10 14 -17 9 -86 13
-253 14 -230 1 -230 1 -10 -5z"/>
<path d="M5200 7675 c-53 -19 -100 -25 -255 -35 -438 -26 -696 -69 -900 -150
-50 -19 -50 -19 40 -14 50 2 110 7 135 10 25 2 194 11 375 19 382 17 453 25
630 67 126 30 137 31 355 32 253 0 254 -2 -30 55 -210 43 -270 45 -350 16z"/>
<path d="M5290 7450 c-266 -41 -369 -51 -657 -65 -164 -8 -333 -21 -375 -29
-148 -29 -268 -91 -377 -196 -37 -36 -121 -103 -186 -149 -66 -47 -172 -132
-235 -190 -63 -57 -119 -108 -124 -112 -23 -20 108 4 167 31 213 96 351 106
647 47 102 -21 243 -49 313 -63 241 -47 391 -109 504 -208 36 -31 85 -63 117
-75 71 -26 333 -63 358 -50 47 25 2 66 -148 134 -60 27 -149 71 -199 98 -321
171 -411 204 -690 252 -150 26 -213 48 -282 99 -18 13 -53 27 -78 30 -59 9
-105 47 -89 73 13 21 212 108 299 129 43 11 147 18 371 23 171 4 315 10 320
13 5 4 81 14 169 22 88 9 196 24 240 33 138 27 466 14 665 -28 52 -11 129 -26
170 -35 41 -8 84 -17 95 -20 11 -2 -43 27 -120 66 -327 163 -588 214 -875 170z"/>
<path d="M5400 7182 c-35 -29 -13 -55 77 -92 144 -59 178 -77 247 -129 114
-86 201 -142 431 -276 273 -159 404 -239 520 -319 50 -35 118 -76 153 -93 63
-30 63 -30 29 6 -18 20 -61 70 -94 111 -81 100 -214 232 -289 286 -34 24 -182
105 -328 180 -147 75 -280 147 -296 161 -38 32 -40 63 -4 63 55 0 262 -79 527
-202 116 -54 262 -108 241 -89 -72 63 -237 186 -311 233 -201 126 -319 165
-478 154 -60 -4 -120 -1 -180 9 -127 21 -217 20 -245 -3z"/>
<path d="M5021 7128 c-13 -7 -29 -21 -35 -30 -14 -24 6 -38 124 -83 177 -69
412 -213 698 -429 98 -73 265 -193 372 -266 313 -214 493 -356 675 -530 55
-53 122 -108 148 -123 48 -26 48 -26 29 1 -10 15 -43 72 -72 127 -71 133 -153
256 -217 325 -66 72 -219 180 -562 400 -152 97 -344 223 -427 281 -82 57 -194
129 -248 159 -53 30 -118 72 -144 93 -78 62 -126 80 -227 84 -62 3 -98 0 -114
-9z"/>
<path d="M4257 7096 c-75 -20 -110 -63 -68 -85 10 -6 94 -17 187 -26 312 -30
389 -52 632 -184 346 -186 386 -209 447 -253 68 -50 195 -191 195 -218 0 -34
-19 -38 -81 -19 -52 16 -71 17 -166 8 -137 -13 -158 -19 -158 -44 0 -48 172
-82 356 -71 105 6 105 6 195 -38 237 -116 589 -392 808 -634 99 -109 184 -225
313 -422 56 -86 119 -174 141 -196 39 -41 39 -41 21 10 -9 28 -50 152 -89 276
-40 124 -84 248 -97 275 -82 162 -385 441 -767 706 -218 151 -284 202 -401
309 -174 159 -284 234 -570 386 -98 52 -144 83 -187 127 -32 33 -71 62 -90 68
-124 36 -521 52 -621 25z"/>
<path d="M3825 6646 c-33 -8 -84 -23 -113 -34 -89 -34 -284 -152 -341 -206
-79 -76 -184 -215 -247 -329 -31 -56 -70 -124 -86 -151 -24 -39 -26 -47 -11
-41 10 4 27 10 38 13 11 3 60 36 110 74 99 75 225 144 325 178 56 19 91 23
250 25 134 3 233 11 360 30 96 14 257 34 358 44 185 19 232 33 232 67 0 26
-66 44 -198 55 -135 10 -211 8 -527 -17 -213 -17 -255 -13 -255 24 0 85 271
136 598 112 190 -13 295 -33 392 -72 121 -48 214 -39 196 20 -13 40 -179 114
-341 153 -232 55 -617 83 -740 55z"/>
<path d="M4935 6264 c-90 -12 -153 -28 -214 -54 -41 -18 -142 -44 -245 -64
-96 -19 -244 -53 -328 -75 -84 -22 -230 -56 -324 -75 -94 -20 -206 -47 -250
-62 -169 -56 -390 -193 -446 -276 -43 -62 -125 -228 -158 -319 -16 -43 -39
-97 -51 -120 -21 -42 -21 -42 6 -20 15 11 32 21 37 21 5 0 54 41 107 91 245
227 439 336 758 425 179 50 226 68 305 119 139 91 278 144 523 201 101 24 142
28 260 29 140 0 140 0 385 -83 280 -95 453 -175 566 -260 90 -69 553 -533 693
-696 162 -189 281 -358 384 -546 50 -90 103 -162 93 -125 -3 11 -15 74 -26
139 -22 120 -58 257 -85 322 -18 44 -145 230 -238 349 -275 351 -638 680 -892
807 -90 45 -139 61 -310 99 -158 34 -230 63 -286 114 -21 18 -55 38 -76 44
-47 12 -148 20 -188 15z"/>
<path d="M4680 5954 c-150 -32 -354 -115 -417 -168 -19 -16 -33 -37 -33 -50 0
-29 30 -56 62 -56 40 0 164 46 226 84 86 53 163 77 272 83 113 6 203 -15 425
-96 339 -125 632 -307 564 -352 -27 -18 -80 0 -267 90 -103 49 -245 110 -315
135 -70 26 -164 66 -209 89 -72 38 -89 42 -164 45 -64 3 -100 -1 -158 -18
-113 -34 -136 -74 -61 -106 19 -8 56 -30 81 -49 58 -45 120 -62 272 -74 149
-12 255 -46 494 -157 90 -42 196 -89 236 -105 41 -16 91 -38 112 -49 68 -35
183 -136 278 -245 61 -69 107 -112 130 -122 122 -51 145 -67 242 -159 55 -54
123 -127 151 -163 67 -89 165 -287 219 -446 24 -71 54 -148 68 -170 24 -40 24
-40 18 120 -9 288 -34 371 -166 569 -99 147 -167 223 -476 528 -183 180 -295
300 -333 353 -102 146 -194 220 -385 310 -129 61 -401 157 -510 179 -92 20
-267 19 -356 0z m230 -296 c21 -7 30 -16 28 -27 -3 -13 -18 -16 -93 -14 -104
1 -154 15 -135 38 6 7 21 16 33 19 31 6 131 -3 167 -16z"/>
<path d="M4366 5585 c-53 -53 127 -154 519 -291 268 -93 481 -205 640 -337
190 -158 289 -340 357 -657 18 -88 22 -137 22 -305 1 -200 1 -200 -51 -321
-29 -66 -66 -160 -83 -208 -103 -291 -223 -485 -440 -710 -171 -177 -374 -328
-520 -386 -48 -19 -67 -21 -144 -16 -62 4 -120 1 -195 -11 -105 -18 -106 -18
-56 -25 28 -3 82 -7 120 -8 85 -1 141 -19 139 -43 -1 -9 2 -17 7 -17 5 0 9
-10 9 -22 0 -22 0 -22 15 -1 11 15 40 27 107 42 121 28 271 89 359 146 78 51
271 238 366 355 158 197 263 394 349 659 56 170 75 211 98 211 61 0 8 -279
-100 -523 -106 -241 -312 -513 -558 -736 -79 -72 -214 -222 -166 -184 8 6 65
39 125 73 148 84 297 193 398 293 190 188 367 529 421 816 18 93 21 235 6 296
-5 22 -14 123 -20 225 -16 280 -79 682 -131 829 -66 188 -236 344 -551 505
-178 90 -286 130 -486 181 -153 39 -196 54 -317 115 -148 74 -206 87 -239 55z"/>
<path d="M3885 5513 c-229 -32 -493 -169 -700 -365 -107 -101 -131 -142 -171
-293 -20 -76 -75 -384 -70 -392 7 -9 91 93 146 177 213 329 464 529 733 584
133 28 500 14 635 -24 175 -49 471 -185 630 -290 309 -204 484 -489 524 -852
24 -227 -45 -541 -169 -768 -46 -83 -389 -429 -505 -508 -164 -112 -306 -162
-515 -182 -115 -11 -160 -9 -328 10 -44 5 -114 11 -155 15 -75 5 -75 5 40 -36
164 -58 223 -76 325 -95 123 -23 319 -23 405 -1 196 52 408 203 626 446 181
201 259 337 353 616 82 245 101 369 82 549 -24 223 -101 446 -205 590 -24 33
-77 94 -117 134 -165 163 -370 278 -769 432 -129 50 -302 124 -385 165 -82 40
-168 78 -190 84 -38 10 -158 12 -220 4z"/>
<path d="M4303 5099 c-22 -22 -15 -56 16 -78 16 -11 83 -45 150 -75 312 -140
501 -269 641 -439 157 -190 231 -402 232 -657 0 -154 -24 -277 -88 -459 -47
-135 -53 -183 -21 -189 30 -6 87 66 138 173 150 314 157 704 19 993 -87 182
-237 349 -425 474 -113 75 -350 193 -469 233 -97 33 -176 42 -193 24z"/>
<path d="M3845 5020 c-105 -22 -237 -92 -298 -157 -15 -16 -62 -77 -105 -135
-42 -59 -104 -141 -138 -185 -162 -209 -187 -306 -148 -572 60 -409 338 -795
660 -918 160 -61 252 -77 439 -78 165 0 173 1 255 31 279 99 450 353 467 690
20 394 -234 726 -677 882 -158 55 -233 65 -440 58 -159 -5 -189 -4 -208 10
-44 31 -25 63 63 106 95 47 218 65 326 49 167 -26 466 -153 625 -266 196 -139
327 -314 390 -520 26 -83 28 -103 28 -255 0 -153 -3 -173 -32 -283 -81 -301
-188 -440 -426 -553 -228 -108 -588 -96 -893 31 -150 62 -237 95 -226 84 5 -5
54 -43 109 -84 115 -87 253 -161 385 -207 93 -32 96 -33 274 -33 153 0 193 4
268 23 169 42 309 123 438 251 106 106 129 146 145 253 7 49 27 137 43 196 74
260 78 463 14 667 -62 196 -180 362 -357 499 -107 83 -202 139 -393 234 -87
43 -180 92 -206 110 -87 61 -132 75 -242 78 -55 2 -118 -1 -140 -6z m400 -609
c242 -65 438 -217 536 -416 57 -117 72 -189 67 -315 -5 -115 -25 -178 -89
-287 -45 -76 -161 -192 -228 -227 -113 -60 -202 -68 -394 -36 -261 44 -439
136 -598 308 -123 134 -179 261 -187 427 -12 256 120 462 343 535 135 45 404
51 550 11z"/>
<path d="M3927 4255 c-146 -37 -245 -112 -304 -232 -33 -67 -38 -86 -41 -167
-4 -78 -1 -102 22 -169 32 -95 76 -165 147 -234 110 -106 255 -169 373 -161
58 3 68 8 128 56 121 96 159 150 173 244 15 103 67 69 68 -45 1 -99 -47 -173
-155 -239 -26 -16 -53 -39 -59 -51 -28 -51 75 -61 163 -16 69 35 114 77 169
156 28 41 62 85 75 99 42 41 64 102 64 179 1 245 -175 472 -435 561 -67 23
-100 28 -205 30 -86 3 -143 -1 -183 -11z m390 -211 c72 -20 169 -88 225 -158
67 -83 100 -171 102 -268 0 -42 -3 -80 -7 -84 -16 -16 -41 14 -61 72 -29 81
-40 100 -110 173 -73 77 -139 111 -214 111 -67 0 -109 -18 -150 -64 -27 -31
-32 -45 -32 -87 0 -61 21 -104 63 -129 63 -39 137 -16 137 41 0 24 4 29 24 29
26 0 36 -16 36 -61 0 -43 -23 -81 -67 -112 -163 -113 -395 26 -411 246 -16
221 209 362 465 291z"/>
<path d="M6156 4728 c-27 -38 -24 -72 59 -668 35 -250 29 -534 -15 -748 -54
-256 -191 -543 -361 -752 -25 -30 -60 -77 -78 -103 -18 -27 -47 -65 -65 -85
-48 -55 -13 -29 123 92 137 123 245 246 334 381 127 194 157 283 202 600 13
94 31 203 40 243 26 127 17 230 -46 510 -36 160 -41 252 -16 299 16 31 16 32
-16 95 -30 60 -115 158 -136 158 -5 0 -17 -10 -25 -22z"/>
<path d="M6383 4504 c-3 -10 24 -107 60 -218 37 -111 83 -268 104 -351 28
-115 48 -172 85 -243 26 -51 48 -100 48 -109 0 -24 31 -147 40 -156 4 -4 12
52 19 125 19 207 6 325 -59 513 -84 247 -162 392 -233 435 -39 24 -56 25 -64
4z"/>
<path d="M6502 3647 c-16 -19 -30 -91 -42 -222 -14 -147 -30 -235 -79 -426
-21 -82 -36 -149 -34 -149 7 0 112 219 146 305 71 179 105 385 76 462 -16 42
-46 56 -67 30z"/>
</g>
</svg>
