<?xml version="1.0" standalone="no"?>
<!DOCTYPE svg PUBLIC "-//W3C//DTD SVG 20010904//EN"
 "http://www.w3.org/TR/2001/REC-SVG-20010904/DTD/svg10.dtd">
<svg version="1.0" xmlns="http://www.w3.org/2000/svg"
 width="1000.000000pt" height="1000.000000pt" viewBox="0 0 1000.000000 1000.000000"
 preserveAspectRatio="xMidYMid meet">
<metadata>
  <rdf:RDF
    xmlns:rdf = "http://www.w3.org/1999/02/22-rdf-syntax-ns#"
    xmlns:rdfs = "http://www.w3.org/2000/01/rdf-schema#"
    xmlns:dc = "http://purl.org/dc/elements/1.1/"
    xmlns:cc = "http://creativecommons.org/ns#">
    <cc:license rdf:resource="http://creativecommons.org/publicdomain/zero/1.0/deed.en"/>
    <cc:permits rdf:resource="http://creativecommons.org/ns#Reproduction"/>
    <rdf:Description about="https://nft.mir.one/fingerprints"
      dc:title="TON Fingerprints"
      dc:description="This is a unique digital fingerprint created based on the algorithm for generating basic rings using a noise texture. Like human fingerprints, you can now use it for the Web3 and Metaverse era as digital biometric information."
      dc:publisher="https://nft.mir.one"
      dc:date="2022-02-22"
      dc:format="image/svg+xml"
      dc:language="en" >
      <dc:creator>
      <rdf:Bag>
        <rdf:li>EQBondcvD2_aOFADXSWJHs4ZazQDuEl9_wNvGGPxI8hGuOFU</rdf:li>
        <rdf:li>ipfs://bafkreihj7iub3fhmhq6jn62noukt5wxn3gv6bvcg7wmt6ywvlurefezckq</rdf:li>
      </rdf:Bag>
      </dc:creator>
    </rdf:Description>
  </rdf:RDF>
</metadata>
<rect width="100%" height="100%" fill="#1b1f23"/>
<g transform="translate(0.000000,1000.000000) scale(0.100000,-0.100000)"
fill="#ffffff" stroke="none">
<path d="M5025 7774 c106 -41 246 -79 330 -89 51 -6 57 -5 47 8 -7 8 -38 22
-70 30 -59 17 -378 87 -390 87 -4 -1 34 -17 83 -36z"/>
<path d="M4450 7670 c103 -55 535 -188 715 -219 33 -6 144 -18 248 -26 273
-22 420 -57 632 -152 104 -46 295 -123 295 -118 0 7 -228 165 -310 216 -117
72 -268 143 -375 175 -76 23 -118 28 -270 34 -132 6 -223 16 -340 38 -199 37
-353 59 -470 67 -49 3 -110 8 -135 10 -45 5 -45 5 10 -25z"/>
<path d="M4122 7511 c-72 -6 -72 -6 -30 -28 24 -12 113 -47 198 -77 85 -29
227 -81 315 -114 338 -127 441 -154 855 -231 148 -28 320 -70 550 -136 344
-97 431 -127 451 -151 18 -22 29 -16 29 15 0 22 -13 41 -59 84 -127 117 -279
200 -506 275 -181 60 -315 91 -580 132 -245 38 -386 72 -645 156 -254 82 -340
93 -578 75z"/>
<path d="M3900 7304 c-47 -8 -92 -18 -100 -21 -8 -3 57 -29 145 -58 407 -133
985 -443 1069 -572 13 -21 38 -87 55 -148 66 -234 135 -324 331 -434 307 -172
382 -246 555 -544 45 -78 115 -196 155 -262 94 -153 147 -266 205 -435 83
-244 106 -373 68 -387 -25 -10 -52 32 -112 174 -116 275 -230 477 -372 665
-68 88 -89 132 -89 181 0 82 -118 241 -258 347 -82 62 -195 120 -233 120 -32
0 -63 -26 -55 -47 3 -8 6 -18 6 -23 0 -21 66 -82 220 -205 171 -137 254 -217
247 -238 -2 -7 -23 -12 -49 -11 -40 0 -66 13 -213 105 -206 129 -269 187 -325
304 -22 47 -56 103 -76 125 -54 59 -199 153 -295 190 -170 65 -201 88 -223
164 -26 87 -79 143 -236 249 -41 28 -126 89 -189 135 -114 85 -365 242 -411
257 -14 5 -73 9 -131 9 -107 1 -107 1 -78 -41 24 -34 51 -52 151 -104 116 -58
257 -145 305 -187 34 -30 73 -93 73 -118 0 -31 19 -42 175 -107 258 -107 312
-142 271 -173 -26 -19 -72 -18 -197 5 -170 31 -249 34 -434 16 -112 -11 -238
-15 -370 -13 -222 3 -205 6 -361 -81 -50 -28 -50 -28 -7 -39 24 -7 94 -12 156
-12 61 0 256 -7 432 -15 176 -8 414 -15 528 -15 213 0 247 -5 247 -39 0 -44
-73 -80 -202 -101 -114 -19 -418 -8 -538 19 -64 14 -163 24 -304 31 -208 11
-208 11 -272 -19 -35 -16 -79 -41 -97 -55 -19 -15 -40 -26 -47 -26 -9 0 -11
-3 -4 -10 18 -18 150 -30 354 -30 221 0 312 -10 341 -36 60 -54 -11 -71 -366
-82 -210 -7 -210 -7 -268 -42 -32 -19 -71 -42 -87 -51 -26 -14 -28 -18 -15
-29 17 -14 21 -50 5 -50 -5 0 -7 -7 -4 -15 3 -8 -4 -28 -16 -45 -21 -30 -21
-30 5 -20 14 6 41 21 58 34 38 29 96 40 312 61 226 22 323 40 426 80 109 42
182 55 314 55 149 0 260 16 360 52 77 27 104 32 191 32 97 1 103 0 180 -38 63
-32 98 -58 174 -135 103 -103 154 -174 189 -261 35 -89 71 -135 262 -333 223
-230 258 -272 475 -563 119 -159 197 -254 254 -307 70 -65 81 -79 70 -92 -18
-21 -78 -19 -125 6 -63 33 -156 131 -289 304 -180 233 -293 361 -502 567 -259
255 -379 389 -416 462 -40 80 -80 130 -134 167 -95 65 -242 91 -284 49 -11
-11 -20 -24 -20 -29 0 -24 50 -64 137 -109 122 -63 183 -106 183 -131 0 -23
-19 -31 -71 -31 -49 0 -133 32 -287 109 -67 34 -153 69 -190 77 -87 21 -304
21 -437 1 -55 -9 -210 -32 -345 -51 -350 -51 -336 -46 -448 -161 -94 -95 -94
-95 -58 -95 20 0 83 11 140 24 355 84 822 120 1057 80 87 -15 510 -146 642
-200 234 -94 723 -557 987 -934 98 -140 163 -207 295 -305 61 -45 127 -101
148 -124 64 -72 135 -188 223 -366 46 -93 94 -183 107 -198 24 -29 24 -29 30
50 4 43 11 112 16 153 20 149 15 205 -30 335 -57 169 -70 247 -59 370 5 55 11
195 15 310 7 231 5 245 -61 555 -20 91 -49 197 -65 236 -41 98 -121 231 -243
403 -110 155 -133 196 -160 276 -28 88 -140 179 -416 341 -198 116 -287 212
-215 230 48 12 211 -58 505 -216 97 -52 214 -105 285 -130 66 -23 201 -79 300
-125 100 -45 240 -103 313 -129 73 -25 144 -52 159 -59 16 -8 48 -17 72 -20
43 -5 43 -5 14 26 -16 18 -46 55 -65 82 -59 82 -157 169 -213 190 -222 80
-493 196 -665 283 -334 169 -435 207 -653 247 -179 33 -243 67 -217 115 36 67
269 46 564 -50 173 -57 246 -91 344 -161 104 -76 213 -127 477 -224 170 -63
223 -78 280 -81 50 -3 64 -2 48 5 -12 5 -63 48 -115 96 -141 130 -172 147
-348 200 -85 26 -175 58 -201 71 -79 39 -71 74 16 74 69 0 269 -25 341 -43 32
-8 82 -18 109 -22 50 -6 50 -6 15 22 -19 15 -58 49 -86 74 -28 25 -72 60 -98
78 -38 26 -50 30 -62 20 -11 -9 -56 -10 -182 -5 -193 9 -247 18 -468 79 -193
54 -309 78 -548 112 -222 32 -285 52 -673 214 -406 169 -443 181 -541 180 -42
0 -115 -7 -162 -15z m1496 -1910 c75 -40 263 -171 319 -223 124 -115 216 -240
365 -496 51 -88 123 -205 160 -260 36 -55 72 -115 79 -133 20 -49 18 -138 -4
-162 -27 -29 -42 -25 -56 18 -22 68 -57 129 -215 367 -250 379 -332 479 -544
665 -81 71 -161 145 -179 165 -67 77 -24 111 75 59z"/>
<path d="M3669 7129 c34 -48 30 -46 361 -230 177 -99 454 -288 570 -389 144
-125 200 -149 245 -104 40 41 -5 145 -102 235 -107 99 -313 228 -557 351 -227
114 -268 128 -395 139 -85 7 -120 14 -135 27 -11 9 -6 -3 13 -29z"/>
<path d="M3435 6671 c-38 -16 -89 -37 -113 -48 -42 -20 -42 -20 10 -31 29 -6
103 -18 163 -26 171 -24 275 -64 283 -109 3 -14 -5 -17 -55 -17 -32 0 -110 7
-175 14 -140 17 -171 12 -290 -48 -87 -43 -87 -43 -49 -54 20 -7 141 -15 267
-18 226 -6 230 -6 309 19 44 14 105 30 135 37 60 12 100 33 100 53 0 20 -264
186 -354 223 -99 41 -140 42 -231 5z"/>
<path d="M6084 5905 c-13 -33 12 -69 137 -202 128 -135 159 -176 331 -447 65
-102 67 -105 119 -120 29 -9 64 -23 78 -32 38 -25 221 -163 256 -194 17 -14
42 -34 57 -43 26 -16 26 -16 -8 69 -44 108 -133 254 -177 287 -18 13 -72 64
-119 111 -102 102 -141 170 -137 239 2 27 -3 52 -11 62 -35 42 -318 232 -397
266 -54 23 -121 25 -129 4z"/>
<path d="M6684 5650 c-53 -21 -49 -28 111 -166 55 -48 125 -110 155 -138 31
-28 74 -63 97 -78 41 -27 41 -27 -9 80 -57 121 -127 232 -165 262 -28 22 -113
50 -147 49 -12 0 -31 -4 -42 -9z"/>
<path d="M3470 5135 c-166 -19 -369 -54 -400 -70 -14 -7 -57 -47 -96 -89 -70
-76 -70 -76 -20 -76 28 0 100 9 160 20 758 138 1389 6 1881 -393 44 -36 190
-167 325 -292 307 -284 360 -318 360 -230 0 77 -90 196 -324 430 -321 320
-525 463 -809 569 -131 49 -311 100 -427 121 -128 24 -479 29 -650 10z"/>
<path d="M6596 5058 c-23 -32 -20 -91 14 -307 16 -104 41 -302 55 -438 38
-373 82 -594 131 -658 13 -17 25 -38 26 -46 1 -16 12 123 27 367 14 223 4 321
-54 564 -35 143 -48 219 -50 287 -3 104 -25 162 -83 220 -39 39 -46 40 -66 11z"/>
<path d="M6837 4863 c-4 -3 -7 -19 -7 -33 0 -35 131 -406 171 -485 31 -60 31
-60 25 -15 -4 25 -13 104 -21 175 -22 198 -65 328 -115 355 -22 12 -44 13 -53
3z"/>
<path d="M3410 4824 c-139 -12 -308 -38 -331 -49 -15 -8 -54 -45 -87 -82 -61
-68 -61 -68 -33 -77 19 -5 87 -1 197 13 250 31 486 37 664 17 268 -31 492 -92
696 -190 187 -90 303 -178 390 -296 79 -107 194 -199 459 -370 245 -157 270
-175 373 -275 58 -55 134 -136 169 -180 72 -89 217 -301 283 -413 25 -43 58
-84 79 -98 36 -24 36 -24 54 48 11 43 19 115 20 173 2 100 2 100 -67 210 -137
220 -239 337 -471 544 -119 106 -119 106 -190 106 -57 1 -83 7 -126 28 -75 37
-244 171 -416 329 -191 176 -310 264 -462 342 -205 105 -387 163 -626 201 -96
16 -473 28 -575 19z"/>
<path d="M3339 4510 c-211 -14 -217 -15 -274 -75 -27 -29 -60 -66 -73 -83 -22
-31 -22 -31 20 -37 24 -3 101 1 173 10 186 22 486 20 650 -4 243 -36 374 -73
663 -188 170 -67 221 -84 255 -81 37 3 42 6 45 29 6 52 -74 117 -264 212 -236
118 -506 191 -809 217 -131 11 -210 11 -386 0z"/>
<path d="M3257 4190 c-89 -9 -118 -28 -165 -110 -14 -25 -32 -52 -39 -61 -12
-15 -9 -17 34 -22 26 -3 68 -2 93 4 25 6 144 13 265 16 193 5 237 3 362 -16
147 -23 327 -68 486 -122 163 -56 410 -155 502 -202 190 -95 393 -245 560
-412 216 -215 351 -436 417 -686 12 -46 32 -101 44 -122 22 -39 22 -39 77 65
59 109 97 210 97 254 0 30 -88 202 -152 297 -171 255 -335 412 -648 622 -220
149 -300 188 -454 225 -69 16 -199 56 -290 89 -250 91 -400 132 -606 167 -109
18 -462 27 -583 14z"/>
<path d="M3340 3871 c-30 -4 -62 -11 -71 -15 -21 -9 -53 -53 -88 -120 -28 -54
-28 -54 12 -58 21 -2 78 2 126 10 134 20 367 11 518 -22 295 -64 611 -207 853
-387 109 -80 286 -253 383 -374 150 -186 239 -340 290 -500 14 -44 34 -99 44
-122 20 -42 20 -42 36 -10 9 17 35 61 57 97 22 35 47 87 55 114 14 47 14 55
-5 112 -120 361 -504 763 -937 982 -259 131 -533 226 -783 272 -125 23 -394
34 -490 21z"/>
<path d="M3428 3554 c-34 -6 -81 -60 -112 -129 -23 -51 -23 -51 43 -43 218 24
423 -18 655 -134 262 -130 468 -323 575 -537 69 -137 75 -207 26 -313 -14 -30
-28 -76 -31 -101 -7 -47 -7 -47 52 -12 62 37 78 41 118 25 19 -7 29 -21 38
-55 7 -25 15 -45 18 -45 3 0 14 33 24 73 22 86 40 117 66 117 26 0 86 -54 111
-99 11 -20 30 -53 43 -74 23 -38 23 -38 54 30 60 132 60 164 1 250 -81 118
-394 496 -465 562 -255 235 -553 392 -879 462 -89 19 -285 32 -337 23z"/>
<path d="M3525 3220 c-16 -11 -44 -32 -61 -47 -36 -31 -55 -17 197 -135 173
-81 306 -186 402 -317 35 -47 135 -249 161 -326 7 -19 8 -19 17 -2 6 9 27 26
47 36 20 10 54 36 76 57 35 34 38 41 33 80 -6 54 -55 160 -111 238 -124 174
-369 344 -600 415 -85 26 -123 26 -161 1z"/>
</g>
</svg>
