<?xml version="1.0" standalone="no"?>
<!DOCTYPE svg PUBLIC "-//W3C//DTD SVG 20010904//EN"
 "http://www.w3.org/TR/2001/REC-SVG-20010904/DTD/svg10.dtd">
<svg version="1.0" xmlns="http://www.w3.org/2000/svg"
 width="1000.000000pt" height="1000.000000pt" viewBox="0 0 1000.000000 1000.000000"
 preserveAspectRatio="xMidYMid meet">
<metadata>
  <rdf:RDF
    xmlns:rdf = "http://www.w3.org/1999/02/22-rdf-syntax-ns#"
    xmlns:rdfs = "http://www.w3.org/2000/01/rdf-schema#"
    xmlns:dc = "http://purl.org/dc/elements/1.1/"
    xmlns:cc = "http://creativecommons.org/ns#">
    <cc:license rdf:resource="http://creativecommons.org/publicdomain/zero/1.0/deed.en"/>
    <cc:permits rdf:resource="http://creativecommons.org/ns#Reproduction"/>
    <rdf:Description about="https://nft.mir.one/fingerprints"
      dc:title="TON Fingerprints"
      dc:description="This is a unique digital fingerprint created based on the algorithm for generating basic rings using a noise texture. Like human fingerprints, you can now use it for the Web3 and Metaverse era as digital biometric information."
      dc:publisher="https://nft.mir.one"
      dc:date="2022-02-22"
      dc:format="image/svg+xml"
      dc:language="en" >
      <dc:creator>
      <rdf:Bag>
        <rdf:li>EQBondcvD2_aOFADXSWJHs4ZazQDuEl9_wNvGGPxI8hGuOFU</rdf:li>
        <rdf:li>ipfs://bafkreihj7iub3fhmhq6jn62noukt5wxn3gv6bvcg7wmt6ywvlurefezckq</rdf:li>
      </rdf:Bag>
      </dc:creator>
    </rdf:Description>
  </rdf:RDF>
</metadata>
<rect width="100%" height="100%" fill="#1b1f23"/>
<g transform="translate(0.000000,1000.000000) scale(0.100000,-0.100000)"
fill="#ffffff" stroke="none">
<path d="M5090 7778 c36 -16 82 -36 104 -44 41 -15 108 -19 120 -7 6 6 -254
82 -279 82 -5 0 19 -14 55 -31z"/>
<path d="M4397 7650 c33 -17 108 -44 165 -61 268 -79 828 -264 924 -305 209
-89 376 -179 565 -305 324 -216 530 -433 724 -762 43 -73 89 -150 103 -172 14
-22 45 -76 69 -120 25 -44 41 -69 37 -55 -17 62 -112 288 -174 415 -174 354
-311 529 -614 782 -287 241 -442 342 -653 429 -116 47 -125 49 -488 118 -287
55 -388 66 -577 66 -143 -1 -143 -1 -81 -30z"/>
<path d="M4140 7445 c-41 -8 -117 -25 -169 -38 -94 -24 -94 -24 -25 -45 38
-12 105 -26 149 -33 199 -28 499 -120 774 -237 220 -93 618 -294 669 -337 23
-20 63 -64 89 -98 26 -34 94 -114 151 -178 133 -149 220 -269 281 -391 42 -82
50 -108 56 -175 3 -43 18 -118 32 -168 14 -49 44 -160 68 -245 23 -85 55 -184
71 -220 28 -62 29 -72 28 -205 -1 -250 -67 -521 -186 -758 -86 -172 -295 -456
-419 -569 -81 -75 -81 -75 -90 -171 -15 -156 -62 -265 -177 -408 -238 -296
-613 -460 -994 -435 -168 12 -258 44 -343 126 -27 26 -94 75 -148 109 -169
105 -359 254 -431 337 -21 25 -58 80 -82 122 -42 73 -162 229 -282 366 -30 33
-60 73 -68 88 -25 48 -24 31 1 -26 48 -109 215 -398 317 -548 68 -100 412
-465 503 -534 83 -62 264 -150 360 -175 170 -43 503 -35 685 17 235 68 494
249 649 455 79 104 140 210 301 519 73 140 183 347 246 460 201 364 279 610
314 990 6 63 21 174 35 245 57 314 59 338 41 411 -33 131 -91 230 -221 379
-34 39 -100 120 -148 182 -111 142 -205 244 -339 367 -58 54 -109 104 -112
112 -9 24 23 46 58 38 125 -27 349 -224 570 -502 136 -171 215 -293 280 -430
31 -64 68 -139 82 -167 130 -246 134 -262 141 -536 10 -389 -54 -682 -227
-1034 -150 -305 -328 -535 -357 -460 -9 24 21 90 119 267 256 461 349 794 350
1248 1 185 -11 279 -43 342 -22 44 -54 51 -68 16 -5 -13 -14 -117 -21 -233
-32 -580 -88 -797 -325 -1262 -75 -146 -125 -257 -146 -325 -39 -128 -59 -166
-226 -453 -155 -265 -185 -306 -300 -415 -196 -186 -424 -327 -613 -380 -74
-20 -82 -20 -473 -9 -219 6 -400 9 -403 6 -6 -5 267 -73 351 -86 33 -6 96 -13
140 -16 117 -9 180 -23 200 -45 23 -26 81 -26 202 0 245 52 471 161 645 313
115 100 163 134 218 152 27 9 68 32 91 51 27 23 51 34 72 34 57 0 119 41 222
144 222 225 429 514 576 807 56 112 149 316 149 326 0 3 -47 -66 -104 -153
-177 -271 -261 -385 -373 -508 -193 -212 -313 -349 -401 -458 -48 -60 -91
-108 -97 -108 -21 0 -35 24 -35 61 0 104 219 409 400 559 105 87 167 159 265
308 171 262 256 490 305 819 87 594 -18 1084 -337 1567 -183 275 -413 509
-638 646 -38 23 -139 71 -225 105 -85 35 -227 95 -315 135 -186 83 -499 201
-770 291 -189 62 -191 62 -320 65 -82 2 -158 -2 -205 -11z m2152 -1543 c29
-24 65 -94 94 -178 47 -137 45 -404 -2 -404 -22 0 -32 32 -54 173 -11 71 -38
183 -59 250 -22 67 -41 131 -43 142 -6 44 24 52 64 17z"/>
<path d="M6115 7381 c56 -68 140 -153 190 -193 36 -29 31 -22 -18 23 -37 35
-98 96 -135 135 -37 39 -54 54 -37 35z"/>
<path d="M3905 7173 c-49 -11 -157 -49 -241 -84 -50 -22 -100 -40 -110 -40
-33 -2 67 -19 173 -29 304 -28 554 -99 816 -231 147 -74 232 -133 328 -228 96
-95 118 -132 183 -309 24 -64 78 -199 120 -300 125 -303 179 -496 252 -912 38
-211 40 -415 6 -573 -24 -110 -23 -141 4 -151 29 -11 56 16 89 89 53 115 66
171 72 300 5 106 2 131 -20 220 -14 55 -37 177 -51 270 -59 384 -100 539 -219
835 -86 213 -106 293 -85 336 26 56 46 39 103 -91 29 -66 75 -169 103 -230 98
-215 139 -380 181 -730 12 -93 26 -206 32 -250 18 -135 48 -177 85 -120 29 44
20 291 -26 720 -24 224 -119 449 -282 666 -85 113 -90 146 -21 127 49 -13 156
-119 224 -221 150 -224 218 -431 198 -602 -6 -58 -4 -138 7 -290 21 -263 14
-340 -45 -460 -33 -68 -43 -108 -72 -270 -30 -177 -48 -233 -70 -219 -5 3 -9
14 -9 25 0 10 -4 19 -10 19 -13 0 -13 -26 1 -48 16 -25 -11 -106 -57 -172 -19
-28 -49 -72 -68 -100 -43 -63 -74 -143 -86 -227 -10 -76 -7 -89 26 -97 56 -15
150 53 272 198 42 50 118 131 167 181 100 100 140 162 197 301 95 237 142 513
118 697 -16 130 -83 384 -125 479 -21 46 -61 151 -89 233 -29 83 -72 188 -96
233 -94 176 -290 402 -391 450 -24 11 -80 30 -124 42 -91 24 -129 44 -309 160
-290 187 -608 319 -938 389 -92 20 -166 25 -213 14z m2078 -1590 c8 -21 24
-81 35 -133 66 -309 52 -535 -53 -855 -64 -197 -137 -325 -185 -325 -32 0 -28
36 17 167 64 187 140 476 153 589 13 105 9 208 -16 383 -15 109 -18 213 -8
224 13 13 42 -13 57 -50z"/>
<path d="M3625 6865 c-77 -21 -103 -32 -190 -83 -72 -42 -77 -47 -52 -50 15
-2 59 1 98 7 91 15 169 -2 190 -41 16 -30 2 -38 -64 -38 -94 -1 -197 -55 -197
-103 0 -18 5 -19 54 -14 98 10 175 37 212 75 34 35 34 35 118 29 129 -9 240
-51 445 -168 286 -163 419 -277 550 -469 164 -240 278 -501 355 -812 49 -194
65 -317 76 -553 5 -110 13 -212 18 -226 26 -66 74 -72 92 -10 20 69 24 365 6
500 -55 416 -153 732 -342 1111 -148 296 -241 410 -444 546 -188 125 -441 227
-685 277 -175 36 -185 37 -240 22z"/>
<path d="M3341 6465 c-24 -14 -69 -46 -100 -70 -31 -25 -65 -52 -76 -59 -18
-13 -14 -14 45 -12 36 2 220 7 410 11 362 8 410 14 410 53 0 28 -49 69 -108
88 -46 14 -72 16 -175 9 -158 -11 -294 -11 -332 -2 -23 6 -40 2 -74 -18z"/>
<path d="M4010 6249 c-50 -15 -120 -22 -300 -29 -431 -17 -431 -18 -577 -151
-50 -46 -90 -85 -89 -86 3 -4 111 15 206 35 128 28 292 42 488 42 299 0 445
-30 594 -123 236 -147 443 -444 558 -802 92 -287 94 -514 8 -795 -53 -171
-153 -285 -318 -364 -124 -60 -196 -65 -540 -40 -76 6 -88 4 -110 -14 -20 -17
-23 -24 -14 -38 33 -54 113 -79 297 -94 135 -10 187 -27 187 -59 0 -24 -23
-29 -177 -37 -197 -11 -290 17 -404 122 -65 60 -78 66 -176 89 -125 29 -223
116 -293 260 -73 150 -93 330 -51 466 40 127 214 344 387 481 108 86 136 120
119 147 -12 21 -68 11 -134 -24 -102 -54 -210 -155 -330 -308 -59 -75 -86 -98
-107 -90 -22 8 -17 37 20 108 95 181 301 364 455 405 35 9 57 9 110 -4 36 -8
102 -17 146 -20 44 -3 113 -13 152 -22 117 -26 150 -3 104 72 -55 90 -225 161
-438 183 -63 7 -103 17 -137 35 -38 20 -64 26 -111 26 -113 0 -144 -17 -303
-174 -114 -112 -151 -155 -177 -206 -77 -153 -110 -326 -119 -625 -3 -119 -2
-143 3 -80 5 50 17 126 29 170 11 44 30 121 41 170 25 104 73 213 135 299 48
68 208 225 273 269 95 65 223 98 223 59 0 -24 -37 -57 -141 -125 -145 -95
-285 -249 -340 -373 -27 -62 -44 -256 -43 -499 1 -149 4 -182 27 -266 52 -197
120 -324 236 -438 76 -75 132 -111 206 -134 28 -9 115 -37 195 -63 166 -53
284 -66 405 -45 137 24 208 60 240 121 10 20 41 36 142 74 384 145 573 302
573 476 0 30 -7 91 -15 135 -8 44 -14 134 -15 200 -1 365 -70 670 -221 985
-149 308 -333 522 -552 640 -92 50 -179 80 -226 79 -20 -1 -65 -10 -101 -20z"/>
<path d="M3353 5904 c-51 -7 -110 -18 -133 -24 -48 -13 -123 -72 -197 -157
-54 -62 -54 -62 -6 -48 26 7 68 20 93 29 47 18 192 33 400 42 216 10 447 -32
605 -110 146 -73 218 -143 370 -361 128 -183 193 -334 240 -557 27 -127 47
-167 80 -155 45 18 59 169 29 315 -37 182 -130 403 -239 567 -188 282 -398
419 -705 460 -130 18 -413 17 -537 -1z"/>
<path d="M3140 5612 c-47 -26 -114 -111 -177 -227 -52 -96 -52 -96 5 -45 31
28 105 91 164 141 59 49 109 95 111 102 8 23 -13 47 -41 47 -15 0 -43 -8 -62
-18z"/>
<path d="M4170 5199 c-25 -4 -82 -12 -127 -18 -97 -12 -146 -35 -263 -122
-160 -118 -283 -268 -332 -405 -62 -178 -14 -397 121 -545 59 -66 95 -89 140
-89 24 0 34 7 53 42 13 24 31 44 40 46 9 2 38 -7 64 -19 79 -35 197 -14 237
43 9 13 52 61 96 106 48 50 92 107 108 140 25 51 28 68 28 157 0 89 -3 106
-28 157 -35 71 -118 149 -178 167 -141 43 -303 -25 -369 -156 -36 -71 -35
-174 2 -230 46 -70 124 -91 199 -53 69 36 100 116 63 168 -19 28 -54 28 -77 2
-25 -30 -57 -11 -57 34 0 63 74 108 150 91 40 -9 99 -60 116 -102 22 -50 17
-131 -10 -188 -26 -56 -102 -133 -162 -163 -71 -36 -167 -72 -193 -72 -36 0
-113 86 -159 178 -34 70 -37 83 -37 161 0 108 26 180 98 276 63 83 162 155
259 186 97 31 212 24 287 -16 193 -106 308 -436 217 -628 -34 -71 -101 -136
-205 -201 -97 -59 -113 -78 -89 -102 23 -23 126 -20 209 5 167 52 299 192 328
348 11 55 5 86 -27 148 -11 22 -35 87 -52 145 -76 244 -176 409 -297 489 -48
32 -71 35 -153 20z"/>
<path d="M5185 3816 c-129 -32 -483 -167 -665 -253 -122 -58 -206 -87 -355
-124 -178 -43 -233 -39 -426 36 -129 50 -179 46 -179 -11 0 -24 79 -102 155
-153 91 -61 290 -162 375 -191 58 -20 78 -22 190 -17 69 4 165 13 215 22 291
51 556 209 599 357 16 54 22 62 116 137 54 44 112 87 129 95 49 26 67 77 34
95 -32 16 -136 20 -188 7z m-152 -263 c19 -11 3 -36 -40 -63 -166 -105 -396
-200 -573 -236 -118 -25 -263 -25 -287 -1 -17 18 -17 19 5 37 12 10 66 28 120
40 165 36 240 60 453 146 113 45 219 84 235 86 28 4 71 0 87 -9z"/>
<path d="M5397 3648 c-255 -349 -301 -401 -433 -484 -158 -99 -328 -148 -569
-164 -82 -6 -162 -13 -177 -16 -39 -8 -53 -29 -40 -59 16 -35 95 -56 238 -62
375 -17 717 140 934 428 112 149 166 304 126 364 -22 34 -50 31 -79 -7z"/>
<path d="M6339 2833 c-13 -16 -12 -17 4 -4 16 13 21 21 13 21 -2 0 -10 -8 -17
-17z"/>
<path d="M6214 2737 c-45 -34 -102 -79 -126 -99 -25 -21 -50 -38 -56 -38 -6 0
-14 -5 -18 -11 -4 -8 1 -9 17 -4 31 10 292 219 267 214 -2 0 -40 -28 -84 -62z"/>
<path d="M5893 2658 c-11 -13 -30 -39 -43 -58 -13 -19 -82 -98 -154 -174 -130
-139 -131 -139 -71 -101 180 114 300 220 315 277 19 70 -7 100 -47 56z"/>
<path d="M4789 2235 c-15 -31 -15 -32 3 -22 21 14 32 37 21 48 -4 4 -15 -8
-24 -26z"/>
</g>
</svg>
