<?xml version="1.0" standalone="no"?>
<!DOCTYPE svg PUBLIC "-//W3C//DTD SVG 20010904//EN"
 "http://www.w3.org/TR/2001/REC-SVG-20010904/DTD/svg10.dtd">
<svg version="1.0" xmlns="http://www.w3.org/2000/svg"
 width="1000.000000pt" height="1000.000000pt" viewBox="0 0 1000.000000 1000.000000"
 preserveAspectRatio="xMidYMid meet">
<metadata>
  <rdf:RDF
    xmlns:rdf = "http://www.w3.org/1999/02/22-rdf-syntax-ns#"
    xmlns:rdfs = "http://www.w3.org/2000/01/rdf-schema#"
    xmlns:dc = "http://purl.org/dc/elements/1.1/"
    xmlns:cc = "http://creativecommons.org/ns#">
    <cc:license rdf:resource="http://creativecommons.org/publicdomain/zero/1.0/deed.en"/>
    <cc:permits rdf:resource="http://creativecommons.org/ns#Reproduction"/>
    <rdf:Description about="https://nft.mir.one/fingerprints"
      dc:title="TON Fingerprints"
      dc:description="This is a unique digital fingerprint created based on the algorithm for generating basic rings using a noise texture. Like human fingerprints, you can now use it for the Web3 and Metaverse era as digital biometric information."
      dc:publisher="https://nft.mir.one"
      dc:date="2022-02-22"
      dc:format="image/svg+xml"
      dc:language="en" >
      <dc:creator>
      <rdf:Bag>
        <rdf:li>EQBondcvD2_aOFADXSWJHs4ZazQDuEl9_wNvGGPxI8hGuOFU</rdf:li>
        <rdf:li>ipfs://bafkreihj7iub3fhmhq6jn62noukt5wxn3gv6bvcg7wmt6ywvlurefezckq</rdf:li>
      </rdf:Bag>
      </dc:creator>
    </rdf:Description>
  </rdf:RDF>
</metadata>
<rect width="100%" height="100%" fill="#1b1f23"/>
<g transform="translate(0.000000,1000.000000) scale(0.100000,-0.100000)"
fill="#ffffff" stroke="none">
<path d="M4677 7720 c-74 -12 -188 -40 -362 -89 -160 -46 -172 -44 160 -20
203 15 426 7 575 -20 329 -61 787 -209 1041 -336 47 -24 114 -55 150 -69 35
-15 81 -38 101 -51 62 -41 44 -20 -39 47 -407 324 -946 531 -1413 543 -85 2
-181 0 -213 -5z"/>
<path d="M4244 7431 c-39 -11 -102 -34 -140 -51 -38 -18 -87 -38 -109 -46 -22
-8 -96 -38 -164 -67 -125 -52 -125 -52 -85 -60 21 -5 57 -10 79 -13 131 -16
183 -28 243 -55 133 -62 204 -89 300 -114 53 -14 135 -43 183 -65 52 -25 146
-56 245 -80 189 -47 231 -60 432 -134 85 -30 190 -63 235 -72 81 -17 82 -16
149 7 61 21 74 22 130 12 129 -22 322 -115 553 -267 221 -145 446 -350 543
-493 23 -35 81 -144 129 -243 47 -99 88 -179 90 -177 8 9 -114 353 -157 442
-62 128 -158 271 -239 358 -179 190 -562 438 -797 516 -49 16 -168 46 -264 66
-96 20 -242 54 -325 75 -197 51 -322 76 -480 95 -71 8 -142 18 -157 21 -35 7
-46 39 -21 66 91 101 369 81 908 -66 489 -133 693 -240 1083 -563 62 -52 141
-116 176 -142 64 -48 64 -48 -46 93 -188 243 -410 463 -568 564 -193 124 -666
286 -1050 358 -107 21 -188 28 -390 35 -140 6 -291 12 -335 14 -58 3 -99 -1
-151 -14z m161 -121 c37 -14 30 -50 -15 -73 -28 -15 -50 -17 -108 -13 -115 7
-162 56 -82 83 43 15 169 17 205 3z"/>
<path d="M6400 7096 c0 -2 8 -10 18 -17 15 -13 16 -12 3 4 -13 16 -21 21 -21
13z"/>
<path d="M3755 7016 c-108 -31 -313 -130 -293 -142 6 -4 43 -9 82 -11 183 -10
370 -25 458 -39 167 -24 208 -19 208 26 0 94 -309 206 -455 166z"/>
<path d="M4190 6722 c-61 -30 -90 -31 -480 -22 -185 5 -185 5 -255 -31 -38
-20 -93 -53 -122 -72 -29 -19 -58 -37 -65 -40 -42 -15 35 -23 280 -29 398 -9
628 -40 774 -103 85 -37 345 -204 483 -312 214 -167 369 -328 630 -653 192
-241 250 -299 327 -326 46 -17 60 -29 117 -104 36 -47 137 -175 224 -285 241
-305 330 -447 390 -627 39 -116 47 -178 45 -348 -2 -146 0 -162 30 -272 33
-119 39 -138 73 -198 19 -35 19 -35 19 6 0 23 7 77 14 120 60 326 65 481 19
656 -58 217 -135 348 -408 688 -203 253 -272 358 -344 521 -220 502 -281 610
-502 898 -44 57 -100 141 -125 187 -63 115 -133 177 -289 254 -201 99 -343
133 -400 96 -56 -37 -26 -71 160 -181 71 -42 159 -98 195 -125 143 -106 391
-393 565 -655 106 -158 247 -408 271 -479 19 -54 12 -99 -14 -94 -9 2 -89 110
-177 240 -184 271 -241 348 -368 496 -172 200 -291 309 -512 468 -133 95 -186
146 -219 212 -30 60 -65 87 -154 118 -84 30 -113 29 -182 -4z"/>
<path d="M5603 6594 c-3 -8 -1 -26 5 -39 25 -54 226 -189 447 -300 328 -165
574 -360 696 -553 31 -50 30 -62 -7 -62 -19 0 -57 30 -147 118 -152 148 -167
159 -361 272 -170 99 -232 124 -283 115 -18 -3 -42 -1 -54 5 -11 7 -91 73
-177 149 -87 75 -171 147 -189 159 -34 24 -72 29 -91 10 -32 -32 -4 -83 137
-249 153 -181 259 -365 307 -534 32 -112 77 -215 166 -375 87 -159 159 -259
328 -457 75 -87 160 -189 190 -228 29 -38 70 -88 91 -110 106 -115 127 -163
183 -411 19 -82 42 -168 53 -191 20 -42 20 -42 31 212 7 144 21 304 31 367 30
180 32 223 21 454 -15 309 -32 407 -106 596 -22 57 -34 105 -34 136 0 172
-280 456 -677 688 -334 195 -540 279 -560 228z m363 -525 c16 -17 77 -72 137
-122 97 -82 107 -94 107 -124 0 -51 21 -84 170 -263 75 -91 168 -205 205 -255
115 -152 143 -175 163 -139 24 43 -35 171 -132 287 -101 121 -264 292 -327
343 -33 26 -58 52 -56 58 6 20 55 18 96 -3 56 -29 374 -333 421 -404 47 -69
80 -154 87 -223 7 -62 -11 -173 -37 -231 -19 -42 -19 -42 17 -145 57 -163 57
-305 1 -296 -14 2 -38 33 -77 103 -48 86 -76 120 -200 245 -79 80 -177 186
-216 235 -129 160 -309 454 -328 535 -9 35 7 58 30 44 10 -5 65 -80 123 -165
147 -218 241 -340 337 -440 101 -105 148 -139 202 -146 83 -11 63 49 -51 156
-84 79 -232 258 -408 494 -56 76 -134 169 -172 205 -112 108 -179 229 -148
267 17 21 22 19 56 -16z"/>
<path d="M3335 6366 c-27 -13 -89 -52 -137 -88 -87 -66 -87 -66 -48 -72 22 -3
105 -1 185 5 339 25 577 -28 975 -218 341 -162 597 -359 913 -702 272 -296
287 -313 348 -383 89 -103 157 -199 233 -324 65 -109 67 -112 109 -118 82 -13
161 -121 274 -376 108 -244 137 -290 180 -290 13 0 29 10 39 25 14 21 15 34 4
92 -34 197 -169 455 -342 653 -41 47 -126 150 -190 230 -64 80 -176 204 -248
275 -73 72 -185 191 -249 265 -391 454 -631 658 -1004 855 -234 123 -558 195
-877 195 -100 0 -122 -3 -165 -24z"/>
<path d="M3340 6071 c-103 -8 -144 -29 -253 -130 -74 -69 -74 -69 -38 -75 20
-3 73 1 117 9 159 28 304 38 477 32 197 -6 250 -17 245 -50 -6 -41 -58 -55
-268 -72 -195 -15 -376 -38 -438 -55 -46 -12 -110 -67 -182 -155 -60 -75 -60
-75 -18 -75 24 0 90 13 148 29 154 43 286 68 507 96 354 45 450 44 604 -6 259
-84 524 -272 839 -595 302 -309 434 -515 485 -757 25 -114 16 -199 -21 -214
-24 -9 -33 6 -70 133 -80 271 -207 467 -476 735 -70 70 -182 173 -249 229
-239 200 -412 293 -634 342 -85 18 -353 15 -495 -6 -201 -30 -466 -101 -526
-141 -31 -20 -78 -90 -139 -206 -51 -96 -51 -96 -7 -83 24 8 69 29 100 48 276
165 660 257 946 227 236 -26 411 -102 571 -251 33 -30 114 -100 180 -155 335
-278 536 -543 626 -824 15 -47 37 -88 60 -115 48 -54 63 -87 94 -192 71 -245
74 -519 10 -841 -31 -154 -64 -256 -131 -414 -54 -126 -68 -194 -41 -205 16
-6 191 168 223 222 34 56 100 264 128 404 79 398 89 468 83 605 -3 72 -15 177
-26 235 -11 58 -25 161 -31 230 -16 179 -39 346 -56 414 -34 133 -138 297
-321 506 -453 520 -782 767 -1226 924 -90 31 -144 57 -181 85 -65 50 -123 77
-212 95 -84 18 -288 27 -404 17z"/>
<path d="M3669 5185 c-160 -30 -397 -130 -524 -220 -69 -49 -113 -112 -170
-240 -14 -33 -33 -67 -42 -77 -15 -17 -14 -18 17 -18 19 0 70 5 114 12 78 11
86 10 211 -21 191 -48 447 -135 551 -186 106 -53 292 -172 432 -278 53 -40
131 -96 173 -124 41 -28 126 -92 188 -141 62 -49 126 -93 142 -96 30 -6 73 6
83 23 24 38 -91 168 -279 318 -136 109 -617 434 -695 470 -90 41 -374 133
-473 154 -98 19 -147 39 -147 59 0 35 87 72 210 89 65 9 65 9 100 -30 44 -49
73 -61 273 -109 175 -43 218 -47 257 -25 68 39 280 2 436 -75 174 -85 309
-202 517 -445 65 -77 132 -150 147 -162 60 -49 103 -26 82 44 -16 52 -133 229
-224 338 -148 177 -344 345 -480 410 -64 31 -73 33 -150 28 -46 -3 -147 2
-228 10 -259 29 -442 40 -542 34 -93 -6 -98 -5 -98 14 0 30 47 67 109 86 42
13 91 17 196 17 158 -1 254 -13 400 -52 55 -14 123 -26 150 -26 44 -1 50 2 53
20 8 53 -131 138 -298 181 -121 32 -370 41 -491 18z"/>
<path d="M4074 4666 c-15 -39 22 -69 255 -205 266 -155 491 -359 666 -606 121
-171 175 -275 206 -397 21 -82 24 -115 24 -288 0 -163 -4 -214 -23 -309 -27
-132 -81 -316 -124 -418 -16 -40 -26 -78 -22 -84 11 -19 81 -3 120 26 48 37
66 69 115 205 158 442 171 857 37 1140 -37 78 -54 98 -192 235 -83 83 -207
209 -276 280 -137 142 -235 221 -374 301 -171 98 -395 163 -412 120z"/>
<path d="M3089 4462 c-14 -11 -38 -40 -54 -64 -15 -24 -36 -55 -46 -69 -18
-27 -18 -27 24 -22 23 3 58 9 77 14 52 13 134 11 155 -5 27 -19 14 -39 -47
-74 -59 -33 -74 -51 -128 -158 -43 -85 -57 -87 165 23 134 67 158 76 220 80
134 9 292 -43 389 -128 45 -40 117 -127 220 -267 95 -130 184 -357 207 -528
29 -223 -30 -458 -159 -626 -29 -37 -52 -70 -52 -74 0 -3 -10 -20 -22 -36 -19
-28 -19 -29 -2 -20 10 5 42 13 69 17 64 10 146 40 180 66 28 23 87 132 117
219 46 135 60 333 33 496 -18 109 -41 187 -96 319 -35 85 -42 113 -45 184 -4
79 -6 86 -40 128 -51 63 -202 192 -307 264 -115 79 -223 129 -377 174 -69 20
-168 51 -220 67 -52 17 -126 33 -165 35 -60 4 -74 2 -96 -15z"/>
<path d="M5833 4403 c-13 -32 -13 -48 -3 -113 13 -81 74 -325 140 -560 23 -80
46 -182 52 -228 11 -79 11 -84 -10 -110 -93 -115 -105 -145 -147 -373 -35
-192 -77 -358 -113 -444 -76 -179 -102 -238 -113 -253 -6 -9 36 31 94 89 112
112 212 252 247 345 21 58 43 203 60 404 6 74 13 145 16 158 6 30 35 28 65 -4
24 -26 24 -26 22 -357 -3 -332 -3 -332 43 -227 76 175 104 286 104 414 0 80 9
101 37 92 23 -7 47 -54 68 -134 8 -33 23 -78 34 -101 18 -42 18 -42 27 41 13
116 8 242 -9 275 -108 206 -172 320 -211 377 -62 91 -106 179 -171 345 -107
273 -171 401 -203 401 -7 0 -20 -17 -29 -37z"/>
<path d="M3383 4020 c-143 -37 -171 -64 -222 -208 -28 -80 -28 -80 3 -67 17 7
57 29 88 48 32 19 90 45 130 58 67 22 87 24 245 22 166 -2 173 -2 184 19 34
64 -142 149 -307 147 -27 0 -81 -9 -121 -19z"/>
<path d="M4368 3882 c-27 -6 -22 -31 23 -107 142 -243 199 -432 199 -665 0
-231 -73 -472 -189 -626 -20 -27 -49 -70 -63 -95 -27 -46 -27 -46 59 -22 153
43 215 83 250 162 104 235 144 552 99 785 -21 110 -78 282 -117 356 -68 128
-191 228 -261 212z"/>
<path d="M3455 3736 c-120 -30 -151 -64 -183 -203 -19 -81 -19 -81 27 -47 25
19 75 49 111 66 58 29 74 32 155 32 78 1 98 -3 152 -28 145 -66 233 -218 233
-401 0 -126 -17 -179 -124 -385 -19 -36 -34 -66 -33 -67 7 -6 167 30 196 45
45 22 103 131 127 241 24 109 15 300 -19 398 -56 160 -138 272 -230 317 -89
43 -300 60 -412 32z"/>
<path d="M4788 3709 c-26 -15 -23 -34 31 -170 109 -273 117 -502 32 -866 -40
-167 -72 -264 -110 -324 -16 -26 -32 -61 -36 -78 -3 -17 -11 -33 -16 -36 -5
-4 -9 -11 -9 -17 0 -7 4 -7 13 1 8 6 44 22 81 36 87 33 155 68 184 95 17 16
22 32 22 73 0 29 9 95 21 147 59 279 70 342 77 446 16 222 -14 411 -90 556
-64 124 -137 174 -200 137z"/>
<path d="M3467 3439 c-41 -24 -71 -131 -51 -183 8 -20 24 -21 24 -1 0 23 44
47 74 39 34 -8 74 -56 82 -99 5 -26 -1 -49 -25 -99 -17 -35 -38 -69 -46 -74
-26 -14 105 -46 166 -40 64 6 85 27 100 96 30 145 -38 298 -156 353 -44 20
-139 25 -168 8z"/>
</g>
</svg>
