<?xml version="1.0" standalone="no"?>
<!DOCTYPE svg PUBLIC "-//W3C//DTD SVG 20010904//EN"
 "http://www.w3.org/TR/2001/REC-SVG-20010904/DTD/svg10.dtd">
<svg version="1.0" xmlns="http://www.w3.org/2000/svg"
 width="1000.000000pt" height="1000.000000pt" viewBox="0 0 1000.000000 1000.000000"
 preserveAspectRatio="xMidYMid meet">
<metadata>
  <rdf:RDF
    xmlns:rdf = "http://www.w3.org/1999/02/22-rdf-syntax-ns#"
    xmlns:rdfs = "http://www.w3.org/2000/01/rdf-schema#"
    xmlns:dc = "http://purl.org/dc/elements/1.1/"
    xmlns:cc = "http://creativecommons.org/ns#">
    <cc:license rdf:resource="http://creativecommons.org/publicdomain/zero/1.0/deed.en"/>
    <cc:permits rdf:resource="http://creativecommons.org/ns#Reproduction"/>
    <rdf:Description about="https://nft.mir.one/fingerprints"
      dc:title="TON Fingerprints"
      dc:description="This is a unique digital fingerprint created based on the algorithm for generating basic rings using a noise texture. Like human fingerprints, you can now use it for the Web3 and Metaverse era as digital biometric information."
      dc:publisher="https://nft.mir.one"
      dc:date="2022-02-22"
      dc:format="image/svg+xml"
      dc:language="en" >
      <dc:creator>
      <rdf:Bag>
        <rdf:li>EQBondcvD2_aOFADXSWJHs4ZazQDuEl9_wNvGGPxI8hGuOFU</rdf:li>
        <rdf:li>ipfs://bafkreihj7iub3fhmhq6jn62noukt5wxn3gv6bvcg7wmt6ywvlurefezckq</rdf:li>
      </rdf:Bag>
      </dc:creator>
    </rdf:Description>
  </rdf:RDF>
</metadata>
<rect width="100%" height="100%" fill="#1b1f23"/>
<g transform="translate(0.000000,1000.000000) scale(0.100000,-0.100000)"
fill="#ffffff" stroke="none">
<path d="M5100 7764 c201 -77 428 -142 560 -160 159 -22 171 -14 40 25 -63 19
-167 49 -230 68 -98 30 -489 124 -508 123 -4 0 58 -25 138 -56z"/>
<path d="M4425 7655 c75 -58 168 -97 405 -170 645 -199 824 -265 1008 -370
149 -84 461 -238 529 -260 51 -17 52 -17 113 11 61 27 61 27 3 59 -32 17 -114
67 -183 111 -69 44 -158 100 -199 124 -40 24 -104 72 -142 106 -103 95 -159
119 -559 239 -366 109 -539 144 -825 165 -77 5 -153 13 -170 16 -28 6 -26 4
20 -31z"/>
<path d="M4115 7521 c-60 -6 -60 -6 17 -29 103 -31 219 -40 236 -19 35 42 -90
65 -253 48z"/>
<path d="M4375 7383 c-22 -8 -100 -19 -173 -24 -122 -8 -254 -30 -375 -62 -47
-12 -47 -12 15 -29 35 -10 153 -27 263 -38 422 -42 507 -57 776 -134 504 -145
772 -270 1122 -525 77 -55 174 -121 217 -145 85 -49 98 -65 152 -172 77 -153
125 -212 377 -462 331 -327 322 -322 237 -153 -115 229 -172 306 -375 511
-111 111 -181 189 -179 199 2 9 15 17 30 19 48 6 119 -41 305 -198 62 -52 134
-110 159 -128 47 -34 47 -34 12 10 -19 23 -64 86 -99 138 -35 52 -104 135
-154 185 -72 72 -110 101 -187 142 -54 29 -140 83 -190 121 -213 157 -611 378
-858 475 -316 124 -884 288 -987 286 -26 -1 -66 -8 -88 -16z"/>
<path d="M6015 7350 c-4 -6 9 -17 29 -25 35 -15 156 -33 145 -22 -8 9 -137 57
-154 57 -7 0 -17 -5 -20 -10z"/>
<path d="M3800 7110 c-47 -10 -113 -27 -147 -39 -34 -11 -73 -21 -85 -22 -36
-1 56 -28 152 -44 47 -9 162 -24 255 -35 260 -32 339 -55 395 -115 36 -39 66
-50 230 -80 326 -59 604 -146 835 -260 167 -83 269 -153 315 -217 36 -49 37
-91 4 -96 -13 -2 -96 36 -195 87 -281 145 -466 212 -754 272 -186 39 -323 46
-500 26 -77 -9 -178 -19 -225 -22 -152 -11 -252 -26 -464 -71 -227 -48 -280
-69 -389 -158 -29 -23 -63 -49 -77 -59 -24 -17 -24 -17 7 -17 17 0 97 16 179
36 179 43 447 89 604 103 168 16 469 14 607 -4 219 -29 459 -74 559 -106 54
-17 185 -67 290 -110 105 -43 224 -86 265 -95 154 -34 174 -43 300 -127 68
-47 173 -112 232 -146 226 -128 343 -213 537 -391 199 -182 278 -249 319 -268
23 -11 41 -19 41 -16 0 11 -118 216 -159 277 -66 96 -248 272 -486 468 -96 79
-109 87 -177 99 -107 21 -195 106 -265 257 -89 194 -227 320 -499 456 -225
113 -421 180 -854 292 -357 92 -389 99 -581 125 -178 23 -161 23 -269 0z"/>
<path d="M3585 6880 c-22 -5 -73 -22 -113 -38 -73 -29 -73 -29 -26 -36 26 -3
79 -6 118 -6 44 0 79 -5 90 -13 18 -13 18 -15 -3 -34 -13 -12 -41 -26 -64 -32
-55 -14 -186 -77 -266 -130 -64 -41 -64 -41 -12 -41 62 0 253 40 376 79 129
41 179 49 375 61 188 11 240 20 271 51 26 26 24 36 -11 54 -46 24 -108 32
-324 45 -133 8 -220 18 -265 31 -71 20 -84 21 -146 9z"/>
<path d="M6444 6766 c-19 -50 90 -142 244 -204 71 -29 71 -29 -6 43 -175 164
-224 197 -238 161z"/>
<path d="M6152 6278 c-26 -26 -2 -90 63 -166 62 -72 125 -91 125 -39 0 39 -58
143 -100 181 -42 37 -68 44 -88 24z"/>
<path d="M3890 6273 c-222 -17 -564 -82 -626 -118 -56 -33 -109 -78 -183 -157
-62 -67 -62 -67 -4 -44 32 13 80 33 108 45 183 81 620 141 925 127 293 -13
441 -67 469 -173 11 -39 13 -41 128 -90 146 -63 187 -75 238 -71 36 3 40 6 43
32 3 24 -5 36 -49 75 -99 86 -130 122 -127 145 7 48 77 26 268 -85 63 -37 180
-92 260 -123 297 -116 364 -148 511 -248 118 -80 176 -139 234 -235 27 -46 80
-122 118 -170 129 -164 273 -358 344 -463 76 -114 296 -478 333 -550 12 -25
38 -62 57 -84 35 -38 35 -38 29 0 -3 22 -11 82 -16 134 -11 94 -28 187 -49
265 -30 112 -271 439 -541 735 -72 80 -139 158 -147 173 -31 61 14 76 88 28
155 -100 495 -468 658 -716 38 -58 101 -128 108 -121 4 3 -66 274 -85 326 -40
113 -68 152 -209 291 -264 259 -332 311 -535 408 -68 32 -188 97 -267 145
-189 115 -209 124 -445 216 -110 43 -256 101 -324 129 -178 73 -226 84 -363
83 -104 -2 -127 1 -238 33 -171 48 -309 65 -504 63 -89 -1 -182 -3 -207 -5z"/>
<path d="M3700 5999 c-209 -17 -436 -64 -507 -105 -44 -25 -69 -57 -58 -74 10
-16 110 -11 295 14 255 36 351 40 586 24 306 -19 483 -18 517 5 43 28 35 49
-30 75 -152 59 -503 86 -803 61z"/>
<path d="M3620 5753 c-19 -2 -95 -10 -169 -19 -73 -8 -176 -17 -229 -20 -109
-4 -129 -14 -219 -102 -51 -50 -51 -50 -17 -54 19 -2 79 1 132 8 646 83 790
86 800 16 2 -12 -1 -22 -7 -22 -24 0 -392 -52 -588 -84 -239 -38 -229 -34
-340 -149 -71 -74 -71 -74 -25 -72 26 2 84 12 129 24 45 12 223 50 395 85 339
69 406 89 468 141 23 19 58 38 78 42 20 4 120 8 222 8 185 -1 185 -1 290 -38
74 -26 147 -43 248 -57 225 -31 262 -45 352 -130 30 -29 120 -96 200 -150 185
-124 285 -203 386 -306 166 -169 271 -341 220 -360 -29 -11 -61 14 -158 124
-171 194 -347 335 -605 483 -189 108 -283 140 -430 147 -102 4 -120 2 -200
-23 -48 -15 -227 -63 -398 -106 -309 -78 -804 -213 -985 -269 -73 -22 -102
-37 -126 -62 -31 -32 -114 -143 -114 -151 0 -15 78 -13 132 3 85 25 322 96
618 185 362 109 517 152 679 186 175 37 360 48 478 29 188 -29 456 -163 648
-323 33 -27 146 -133 250 -236 161 -157 196 -197 227 -256 52 -101 76 -179 98
-323 12 -81 39 -194 75 -307 30 -99 76 -263 101 -365 67 -274 79 -312 114
-345 30 -29 30 -29 30 23 0 28 7 100 16 159 21 142 16 198 -44 448 -28 116
-63 289 -77 385 -28 182 -51 270 -116 432 -21 53 -48 134 -59 180 -45 175
-139 320 -329 508 -132 130 -227 201 -386 289 -60 33 -122 67 -138 75 -62 34
-38 76 43 76 128 0 359 -132 532 -303 224 -220 349 -414 508 -782 111 -258
104 -228 105 -435 1 -183 2 -187 44 -350 23 -91 51 -207 61 -258 11 -51 26
-105 35 -122 8 -16 15 -39 16 -52 1 -13 7 15 15 62 49 309 46 384 -20 590 -48
149 -53 183 -24 188 45 9 124 -106 181 -263 14 -38 37 -90 51 -115 26 -45 26
-45 26 60 0 119 -15 268 -32 320 -6 19 -46 87 -88 150 -42 63 -118 189 -170
280 -189 335 -330 543 -539 792 -96 114 -157 170 -267 244 -156 104 -315 164
-543 205 -114 21 -114 21 -195 0 -97 -25 -130 -26 -256 -6 -52 9 -224 22 -381
30 -158 8 -342 21 -410 30 -114 14 -233 17 -319 8z"/>
<path d="M4171 5428 c-34 -5 -133 -31 -220 -59 -86 -28 -308 -86 -493 -129
-185 -43 -353 -86 -374 -96 -23 -11 -62 -49 -105 -103 -68 -86 -68 -86 -40
-89 16 -2 89 15 162 37 74 22 242 68 374 101 132 34 329 86 437 116 109 30
264 68 345 84 176 36 205 45 228 70 23 26 5 56 -43 70 -44 12 -181 11 -271 -2z"/>
<path d="M4447 4914 c-163 -25 -456 -109 -762 -218 -88 -32 -228 -75 -312 -96
-168 -42 -248 -79 -275 -126 -14 -24 -108 -242 -108 -250 0 -9 79 42 129 85
35 29 82 64 104 78 86 54 177 67 177 24 0 -20 -29 -48 -153 -148 -85 -70 -103
-98 -152 -240 -31 -92 -31 -92 -1 -76 60 31 345 293 405 372 110 144 244 217
628 344 304 101 361 111 555 104 159 -5 251 -25 397 -84 166 -67 232 -113 408
-290 151 -151 185 -196 168 -222 -11 -19 -32 -12 -140 44 -99 52 -108 55 -177
55 -55 0 -113 11 -238 45 -172 48 -316 76 -485 95 -191 21 -265 43 -265 79 0
28 18 31 163 31 250 -1 433 -39 725 -154 55 -22 102 -34 113 -31 60 19 -24
110 -164 179 -192 95 -367 136 -576 136 -150 0 -208 -14 -296 -70 -42 -27 -91
-46 -165 -65 -208 -52 -300 -98 -416 -207 -38 -36 -154 -133 -259 -217 -104
-84 -200 -165 -213 -179 -12 -15 -34 -65 -48 -112 -15 -47 -32 -102 -39 -122
-13 -38 -13 -38 17 -22 17 9 74 52 127 95 186 155 378 268 490 289 29 5 142
10 250 10 216 0 364 -18 524 -65 102 -29 127 -41 182 -85 22 -18 108 -65 190
-105 341 -166 510 -318 698 -631 20 -34 62 -89 92 -123 69 -78 70 -85 30 -338
-25 -157 -53 -249 -83 -276 -9 -8 -30 -17 -47 -19 -27 -3 -30 0 -33 30 -2 18
5 56 15 85 25 75 25 308 0 391 -48 155 -195 385 -337 526 -153 153 -360 284
-505 320 -27 7 -91 30 -141 51 -132 55 -227 84 -334 103 -116 20 -292 20 -385
1 -112 -24 -389 -167 -514 -265 -45 -36 -53 -48 -76 -120 -14 -45 -25 -89 -25
-98 0 -9 -7 -30 -15 -45 -14 -28 -14 -28 12 -7 14 11 29 20 34 20 4 0 43 25
86 56 95 69 195 118 285 140 65 16 69 16 185 -9 65 -14 156 -33 203 -42 215
-41 361 -120 540 -291 240 -229 360 -468 377 -749 6 -109 -9 -236 -33 -272
-14 -22 -13 -22 12 -13 86 33 154 140 154 244 0 101 -27 248 -68 374 -35 106
-49 133 -123 238 -91 129 -305 352 -419 438 -126 95 -276 148 -465 167 -205
20 -197 18 -193 42 2 11 19 30 38 41 31 19 51 21 170 20 160 0 256 -22 390
-86 80 -39 95 -52 274 -235 211 -216 284 -302 323 -382 22 -43 24 -57 15 -72
-16 -26 -15 -29 10 -26 42 4 94 -103 130 -268 15 -70 20 -128 20 -258 0 -92 3
-167 8 -167 15 0 92 92 111 133 48 106 2 403 -90 585 -81 160 -212 324 -366
459 -126 110 -165 151 -165 173 0 69 212 -65 393 -247 109 -110 195 -229 258
-358 69 -141 88 -224 105 -460 8 -110 17 -224 20 -252 6 -52 6 -52 45 -4 32
40 46 50 81 55 88 14 225 197 277 371 27 89 34 99 59 91 27 -9 46 -62 62 -173
14 -92 14 -92 42 -20 57 144 72 264 44 345 -8 22 -26 100 -41 173 -36 182 -68
285 -125 405 -62 129 -100 167 -270 268 -302 181 -593 279 -876 296 -82 5
-238 23 -345 41 -183 29 -205 31 -389 26 -107 -3 -201 -3 -207 0 -22 8 -14 40
13 62 46 36 150 63 264 68 85 4 132 0 245 -21 77 -14 228 -37 335 -51 289 -39
523 -95 784 -190 114 -42 171 -69 233 -111 115 -79 158 -75 150 12 -5 49 -133
307 -189 380 -61 80 -285 293 -368 350 -153 105 -355 192 -510 220 -95 17
-279 16 -393 -2z m584 -929 c317 -92 628 -290 754 -480 107 -163 151 -364 90
-415 -28 -23 -46 -6 -71 68 -115 344 -407 602 -861 762 -108 38 -129 51 -120
74 10 25 107 21 208 -9z"/>
<path d="M3768 3450 c-120 -22 -240 -76 -267 -121 -10 -17 -26 -56 -36 -87 -9
-31 -21 -67 -26 -80 -8 -21 -7 -23 13 -17 13 3 52 21 88 39 140 71 331 126
441 126 217 0 455 -139 631 -370 127 -166 251 -514 191 -537 -26 -10 -54 35
-117 187 -115 276 -264 453 -467 555 -125 64 -266 82 -307 41 -27 -27 -3 -48
94 -82 134 -46 226 -99 310 -177 124 -116 183 -211 294 -477 47 -112 116 -238
131 -239 3 -1 11 9 17 22 6 12 42 57 81 99 77 85 90 122 77 216 -30 207 -134
407 -305 585 -208 216 -410 308 -701 322 -52 2 -116 0 -142 -5z"/>
<path d="M3723 3103 c-32 -6 -68 -53 -93 -120 -12 -32 -26 -64 -32 -71 -9 -10
-6 -11 14 -3 14 5 68 13 119 17 110 8 183 -7 288 -58 84 -41 204 -159 248
-243 29 -55 93 -256 93 -290 0 -22 7 -19 40 18 42 45 64 107 57 159 -8 58 -76
189 -140 268 -76 94 -155 152 -302 225 -71 36 -146 74 -165 85 -32 19 -75 23
-127 13z"/>
<path d="M3899 2754 c-9 -3 -31 -24 -50 -46 -22 -28 -27 -39 -15 -35 58 22
179 -56 212 -138 11 -25 21 -45 24 -45 11 1 40 73 40 101 0 95 -122 189 -211
163z"/>
</g>
</svg>
