<?xml version="1.0" standalone="no"?>
<!DOCTYPE svg PUBLIC "-//W3C//DTD SVG 20010904//EN"
 "http://www.w3.org/TR/2001/REC-SVG-20010904/DTD/svg10.dtd">
<svg version="1.0" xmlns="http://www.w3.org/2000/svg"
 width="1000.000000pt" height="1000.000000pt" viewBox="0 0 1000.000000 1000.000000"
 preserveAspectRatio="xMidYMid meet">
<metadata>
  <rdf:RDF
    xmlns:rdf = "http://www.w3.org/1999/02/22-rdf-syntax-ns#"
    xmlns:rdfs = "http://www.w3.org/2000/01/rdf-schema#"
    xmlns:dc = "http://purl.org/dc/elements/1.1/"
    xmlns:cc = "http://creativecommons.org/ns#">
    <cc:license rdf:resource="http://creativecommons.org/publicdomain/zero/1.0/deed.en"/>
    <cc:permits rdf:resource="http://creativecommons.org/ns#Reproduction"/>
    <rdf:Description about="https://nft.mir.one/fingerprints"
      dc:title="TON Fingerprints"
      dc:description="This is a unique digital fingerprint created based on the algorithm for generating basic rings using a noise texture. Like human fingerprints, you can now use it for the Web3 and Metaverse era as digital biometric information."
      dc:publisher="https://nft.mir.one"
      dc:date="2022-02-22"
      dc:format="image/svg+xml"
      dc:language="en" >
      <dc:creator>
      <rdf:Bag>
        <rdf:li>EQBondcvD2_aOFADXSWJHs4ZazQDuEl9_wNvGGPxI8hGuOFU</rdf:li>
        <rdf:li>ipfs://bafkreihj7iub3fhmhq6jn62noukt5wxn3gv6bvcg7wmt6ywvlurefezckq</rdf:li>
      </rdf:Bag>
      </dc:creator>
    </rdf:Description>
  </rdf:RDF>
</metadata>
<rect width="100%" height="100%" fill="#1b1f23"/>
<g transform="translate(0.000000,1000.000000) scale(0.100000,-0.100000)"
fill="#ffffff" stroke="none">
<path d="M4775 7752 c84 -47 626 -247 740 -273 99 -22 292 -39 323 -28 35 13
26 32 -29 57 -27 13 -60 36 -73 50 -83 92 -117 125 -93 92 32 -46 36 -60 26
-89 -8 -21 -14 -23 -47 -17 -20 3 -102 30 -182 60 -213 80 -356 121 -530 150
-85 15 -166 29 -180 32 -14 2 7 -13 45 -34z"/>
<path d="M5580 7706 c0 -2 8 -10 18 -17 15 -13 16 -12 3 4 -13 16 -21 21 -21
13z"/>
<path d="M4245 7607 c12 -6 46 -31 76 -53 30 -23 74 -51 97 -63 46 -24 777
-217 1044 -275 208 -47 276 -68 365 -117 77 -42 97 -46 137 -27 41 18 42 44 5
98 -52 76 -119 114 -257 145 -272 62 -411 99 -652 175 -277 88 -368 106 -574
115 -72 3 -160 8 -196 10 -55 4 -62 3 -45 -8z"/>
<path d="M4155 7453 c-42 -5 -186 -33 -210 -40 -39 -12 78 -33 185 -33 110 0
152 12 158 43 6 30 -46 41 -133 30z"/>
<path d="M6051 7402 c20 -66 37 -134 55 -215 16 -77 29 -95 132 -180 168 -140
211 -186 317 -347 56 -85 117 -173 134 -195 30 -36 162 -131 144 -103 -4 7
-38 59 -76 114 -37 56 -99 162 -138 235 -80 153 -130 220 -300 409 -97 108
-175 201 -284 337 -1 2 6 -23 16 -55z"/>
<path d="M4338 7275 c-2 -3 -85 -9 -184 -15 -180 -10 -187 -11 -435 -78 -67
-18 -67 -18 -5 -34 33 -9 104 -20 156 -23 340 -21 829 -82 1270 -157 420 -71
560 -82 632 -50 57 25 71 57 37 83 -26 20 -33 21 -444 104 -154 30 -374 75
-490 100 -301 63 -516 91 -537 70z"/>
<path d="M3677 6976 c-64 -23 -154 -66 -218 -105 -30 -18 -30 -18 8 -27 21 -5
70 -6 108 -3 108 10 298 10 421 -1 164 -13 222 -45 159 -86 -26 -17 -107 -25
-417 -43 -192 -11 -229 -22 -349 -112 -70 -51 -220 -209 -200 -209 22 0 83 30
112 54 70 59 209 89 516 111 253 18 251 18 406 57 181 45 483 61 747 38 244
-22 641 -104 872 -181 89 -29 179 -52 227 -58 156 -17 231 -80 321 -266 42
-89 100 -180 222 -350 90 -126 217 -311 281 -410 64 -99 135 -200 159 -225 43
-46 43 -46 -18 140 -90 270 -160 431 -256 588 -22 37 -78 144 -123 237 -95
196 -164 294 -287 411 -156 147 -304 204 -529 204 -162 0 -274 12 -584 60
-259 40 -433 61 -665 80 -184 15 -249 26 -361 61 -111 34 -277 59 -399 59 -64
0 -102 -6 -153 -24z"/>
<path d="M4790 6494 c-14 -3 -59 -12 -100 -20 -79 -16 -389 -36 -830 -55 -310
-12 -447 -28 -513 -57 -40 -18 -48 -26 -45 -44 2 -18 15 -27 55 -40 51 -17
131 -23 674 -48 259 -12 373 -28 502 -71 116 -38 137 -34 137 25 0 56 21 77
44 44 9 -12 16 -34 16 -49 0 -57 51 -92 285 -194 330 -143 563 -296 781 -510
133 -132 401 -444 490 -572 82 -116 99 -156 119 -273 9 -54 44 -178 81 -285
87 -252 136 -407 190 -602 24 -89 55 -180 68 -203 23 -41 23 -41 29 51 11 146
8 376 -5 427 -15 63 -92 267 -163 432 -63 146 -75 211 -42 218 12 3 36 -14 67
-46 56 -58 164 -270 228 -447 37 -100 92 -215 92 -190 0 84 -25 352 -39 421
-29 140 -86 236 -234 394 -49 52 -126 140 -171 194 -89 111 -128 151 -232 243
-42 36 -96 99 -133 153 -92 134 -159 208 -280 312 -277 238 -462 340 -890 489
-106 37 -198 72 -204 78 -5 5 -7 17 -4 25 11 29 57 38 157 33 219 -13 572
-143 789 -291 106 -73 353 -269 467 -371 67 -61 104 -86 144 -99 98 -32 139
-79 186 -211 32 -91 81 -167 252 -399 69 -93 152 -214 186 -270 34 -56 76
-120 95 -141 18 -22 31 -35 27 -29 -3 6 -20 78 -37 160 -38 186 -88 343 -132
414 -89 146 -294 461 -329 505 -55 71 -224 241 -283 286 -27 21 -88 59 -135
84 -96 53 -140 87 -257 197 -127 119 -244 180 -474 247 -174 50 -352 82 -484
86 -66 2 -131 2 -145 -1z"/>
<path d="M6053 6290 c-51 -20 -6 -109 83 -169 63 -41 107 -40 112 2 5 38 -35
97 -90 135 -53 36 -76 43 -105 32z"/>
<path d="M6832 6188 c-37 -37 13 -164 104 -263 55 -60 55 -60 -8 70 -41 86
-62 142 -63 167 0 39 -11 48 -33 26z"/>
<path d="M3250 6144 c-19 -8 -78 -59 -130 -114 -106 -110 -106 -101 4 -115 21
-3 62 -16 90 -30 81 -39 206 -34 206 9 0 25 -30 38 -112 50 -45 7 -83 17 -85
23 -6 17 25 42 62 49 64 12 98 -1 192 -70 34 -25 97 -38 348 -76 201 -31 364
-66 485 -107 172 -58 200 -77 215 -151 10 -47 90 -129 255 -261 80 -64 231
-200 335 -302 105 -103 223 -213 263 -246 122 -100 197 -217 232 -366 31 -131
80 -433 80 -493 0 -75 -22 -127 -52 -122 -25 3 -22 -9 -127 426 -54 225 -102
343 -165 405 -42 43 -69 47 -91 14 -17 -27 -11 -73 24 -187 11 -36 40 -147 66
-248 67 -270 108 -369 193 -466 53 -60 65 -91 83 -206 17 -111 6 -390 -21
-515 -26 -120 -39 -150 -65 -150 -41 0 -49 44 -51 280 -2 310 -12 351 -147
622 -89 176 -120 271 -142 424 -8 63 -25 152 -36 199 -11 47 -31 138 -44 202
-28 142 -59 204 -165 331 -102 121 -411 406 -580 533 -143 108 -339 170 -621
199 -121 13 -181 24 -229 42 -56 22 -86 26 -211 31 -172 5 -179 3 -282 -97
-69 -66 -69 -66 -35 -71 18 -3 62 0 98 7 36 6 134 19 218 29 140 15 155 15
169 1 15 -14 15 -18 0 -41 -20 -31 -88 -56 -241 -90 -65 -15 -126 -31 -135
-35 -16 -9 -97 -94 -157 -164 -31 -37 -31 -37 0 -37 17 0 54 7 81 15 28 9 145
40 260 70 116 31 244 65 285 76 111 31 283 29 412 -5 216 -55 346 -142 608
-405 131 -131 193 -201 243 -276 138 -209 235 -491 183 -534 -24 -20 -67 31
-165 192 -119 195 -195 291 -341 429 -66 62 -145 147 -176 189 -86 118 -188
184 -359 230 -65 18 -109 22 -230 22 -168 1 -288 -17 -525 -79 -151 -39 -177
-56 -247 -164 -20 -30 -45 -65 -55 -77 -20 -21 -20 -21 24 -16 23 3 81 18 128
33 117 38 294 77 414 91 151 18 460 7 560 -20 132 -35 211 -90 177 -124 -12
-12 -223 -18 -586 -16 -232 1 -324 -11 -488 -61 -79 -24 -106 -53 -172 -181
-44 -86 -44 -86 -2 -79 23 4 77 24 120 44 127 60 213 79 357 79 190 1 240 -20
455 -191 288 -229 353 -294 537 -541 165 -220 205 -283 234 -373 26 -78 28
-93 28 -268 0 -154 -4 -202 -22 -287 -45 -205 -127 -392 -238 -539 -76 -101
-120 -178 -95 -165 9 6 47 17 84 25 66 16 147 51 198 87 34 24 127 214 167
339 38 120 58 218 71 349 14 131 14 491 1 562 -22 119 -110 262 -305 494 -177
211 -289 309 -479 420 -138 80 -176 112 -176 150 0 28 0 28 58 22 31 -4 104
-20 161 -37 231 -69 323 -142 588 -470 56 -69 131 -154 168 -189 75 -71 111
-124 178 -257 25 -51 69 -118 98 -150 61 -70 113 -173 135 -269 21 -94 31
-524 15 -621 -14 -78 -81 -255 -149 -389 -25 -49 -53 -118 -62 -153 -18 -62
-18 -62 25 -25 23 21 77 67 119 103 42 36 94 85 115 110 47 56 154 218 188
285 14 28 53 79 86 114 67 73 104 144 142 276 52 182 59 253 59 620 1 313 -1
349 -21 454 -29 146 -30 240 -4 272 17 21 21 22 34 9 15 -15 75 -206 101 -320
40 -177 73 -553 61 -695 -12 -151 -62 -313 -195 -635 -99 -239 -105 -274 -73
-377 17 -53 17 -53 48 4 18 32 68 117 112 190 70 114 89 155 138 302 59 179
84 224 118 219 47 -7 44 -123 -8 -308 -18 -63 -35 -142 -39 -175 -6 -60 -6
-60 33 10 21 39 61 108 90 155 98 160 113 261 57 381 -28 58 -38 100 -51 194
-74 554 -117 747 -206 932 -52 108 -88 147 -148 159 -27 6 -71 48 -71 68 0 14
-104 179 -155 246 -104 136 -384 407 -575 557 -113 88 -281 194 -398 251 -63
30 -116 61 -119 70 -11 27 34 52 91 52 70 0 141 -22 257 -81 265 -132 581
-390 813 -660 132 -154 360 -475 411 -576 82 -166 153 -411 235 -808 54 -266
106 -458 134 -499 23 -34 23 -34 45 92 12 70 25 172 28 227 5 94 3 109 -37
260 -112 429 -235 796 -325 976 -70 139 -178 288 -372 509 -267 306 -583 536
-936 684 -218 92 -574 164 -1057 216 -107 12 -273 34 -368 50 -200 35 -187 34
-232 14z"/>
<path d="M6267 5483 c-23 -22 5 -98 49 -132 65 -51 103 -10 60 64 -36 61 -86
92 -109 68z"/>
<path d="M3340 4549 c-67 -12 -166 -57 -199 -91 -22 -23 -56 -105 -100 -238
-10 -30 -22 -62 -25 -71 -6 -14 0 -15 46 -10 199 21 491 -16 625 -78 81 -38
169 -125 208 -206 52 -106 45 -187 -37 -445 -52 -163 -103 -250 -220 -379 -70
-76 -70 -76 21 -79 62 -2 101 2 125 12 76 32 183 231 241 446 38 144 61 184
92 164 35 -22 41 -97 18 -229 -33 -189 -118 -352 -268 -513 -53 -58 -96 -106
-95 -107 11 -8 210 15 240 28 69 29 179 207 231 372 39 123 49 220 45 430 -3
190 -3 190 -45 277 -80 167 -188 297 -360 435 -51 40 -106 93 -122 117 -51 74
-117 124 -190 146 -84 24 -162 30 -231 19z m182 -160 c82 -17 148 -48 148 -70
0 -42 -63 -50 -238 -32 -81 8 -162 21 -180 29 -31 12 -51 38 -39 50 31 31 207
44 309 23z"/>
<path d="M3204 3971 c-16 -17 -45 -61 -64 -98 -35 -68 -35 -68 70 -69 84 0
114 -4 151 -21 134 -60 201 -223 155 -377 -13 -43 -82 -170 -112 -206 -11 -13
-1 -14 86 -10 113 6 126 14 167 95 92 181 103 362 30 498 -61 115 -208 197
-383 213 -69 6 -70 6 -100 -25z"/>
<path d="M4420 3621 c-5 -11 -10 -91 -9 -188 0 -182 -12 -272 -56 -404 -49
-145 -149 -312 -240 -399 -20 -19 -50 -54 -66 -77 -30 -43 -30 -43 -2 -38 15
3 62 9 103 15 113 16 167 46 217 122 142 217 209 453 200 703 -5 143 -22 216
-61 258 -30 32 -71 35 -86 8z"/>
<path d="M5036 3575 c-22 -23 -25 -53 -30 -335 -3 -211 -8 -272 -25 -353 -34
-153 -76 -269 -161 -442 -43 -88 -83 -177 -89 -198 -10 -38 -10 -38 12 -24 12
7 54 32 92 54 113 66 163 116 206 208 91 193 128 355 136 581 9 252 -25 458
-84 503 -31 25 -37 26 -57 6z"/>
<path d="M5544 2448 c-42 -45 -60 -77 -74 -127 -6 -23 -14 -50 -17 -59 -4 -9
32 28 80 82 48 55 86 107 85 115 -6 29 -42 23 -74 -11z"/>
</g>
</svg>
