<?xml version="1.0" standalone="no"?>
<!DOCTYPE svg PUBLIC "-//W3C//DTD SVG 20010904//EN"
 "http://www.w3.org/TR/2001/REC-SVG-20010904/DTD/svg10.dtd">
<svg version="1.0" xmlns="http://www.w3.org/2000/svg"
 width="1000.000000pt" height="1000.000000pt" viewBox="0 0 1000.000000 1000.000000"
 preserveAspectRatio="xMidYMid meet">
<metadata>
  <rdf:RDF
    xmlns:rdf = "http://www.w3.org/1999/02/22-rdf-syntax-ns#"
    xmlns:rdfs = "http://www.w3.org/2000/01/rdf-schema#"
    xmlns:dc = "http://purl.org/dc/elements/1.1/"
    xmlns:cc = "http://creativecommons.org/ns#">
    <cc:license rdf:resource="http://creativecommons.org/publicdomain/zero/1.0/deed.en"/>
    <cc:permits rdf:resource="http://creativecommons.org/ns#Reproduction"/>
    <rdf:Description about="https://nft.mir.one/fingerprints"
      dc:title="TON Fingerprints"
      dc:description="This is a unique digital fingerprint created based on the algorithm for generating basic rings using a noise texture. Like human fingerprints, you can now use it for the Web3 and Metaverse era as digital biometric information."
      dc:publisher="https://nft.mir.one"
      dc:date="2022-02-22"
      dc:format="image/svg+xml"
      dc:language="en" >
      <dc:creator>
      <rdf:Bag>
        <rdf:li>EQBondcvD2_aOFADXSWJHs4ZazQDuEl9_wNvGGPxI8hGuOFU</rdf:li>
        <rdf:li>ipfs://bafkreihj7iub3fhmhq6jn62noukt5wxn3gv6bvcg7wmt6ywvlurefezckq</rdf:li>
      </rdf:Bag>
      </dc:creator>
    </rdf:Description>
  </rdf:RDF>
</metadata>
<rect width="100%" height="100%" fill="#1b1f23"/>
<g transform="translate(0.000000,1000.000000) scale(0.100000,-0.100000)"
fill="#ffffff" stroke="none">
<path d="M4590 7695 c-8 -2 -71 -9 -140 -16 -137 -14 -134 -19 25 -37 55 -7
175 -21 266 -32 230 -28 461 -42 544 -35 39 4 115 18 170 32 259 67 241 59
140 67 -218 17 -470 25 -720 25 -148 -1 -277 -3 -285 -4z"/>
<path d="M4325 7485 c-92 -16 -234 -56 -372 -104 -112 -39 -112 -39 -58 -49
42 -9 91 -7 237 9 100 11 251 21 333 22 129 2 155 -1 178 -16 64 -41 0 -67
-249 -102 -380 -53 -490 -84 -795 -229 -85 -41 -85 -41 -52 -63 53 -35 341
-93 396 -79 15 3 29 20 41 47 35 79 144 125 425 179 89 17 216 47 284 67 109
31 135 35 242 35 201 0 383 -41 663 -153 140 -56 230 -100 479 -235 240 -130
346 -178 568 -255 110 -38 110 -38 45 21 -102 93 -272 210 -435 300 -83 45
-219 122 -303 172 -84 49 -217 116 -295 149 -78 33 -183 82 -232 109 -110 59
-172 76 -352 95 -206 22 -266 33 -376 65 -83 25 -116 30 -201 29 -55 0 -132
-7 -171 -14z"/>
<path d="M5494 7482 c-17 -11 -22 -35 -12 -54 13 -25 52 -43 217 -100 161 -55
186 -67 281 -143 82 -67 142 -104 308 -195 124 -67 320 -151 262 -112 -13 9
-70 53 -125 97 -55 43 -152 116 -215 161 -110 78 -170 129 -170 144 0 21 42
42 86 42 68 0 32 18 -49 25 -40 4 -100 21 -168 49 -150 61 -270 94 -343 94
-33 0 -66 -4 -72 -8z"/>
<path d="M4840 7043 c-98 -9 -281 -38 -410 -63 -148 -29 -428 -105 -444 -120
-14 -13 26 -68 62 -86 62 -29 92 -28 202 10 511 173 1321 70 1705 -218 50 -38
111 -79 137 -92 213 -108 635 -229 748 -213 25 3 41 7 35 8 -5 0 -36 23 -67
50 -78 67 -188 125 -326 172 -144 50 -276 112 -497 234 -334 185 -635 286
-940 315 -108 10 -135 10 -205 3z"/>
<path d="M4525 6729 c-187 -15 -265 -38 -265 -79 0 -11 12 -28 27 -37 23 -15
62 -19 273 -25 196 -5 274 -12 390 -32 90 -16 183 -26 245 -26 131 0 254 -15
390 -46 231 -53 248 -56 272 -45 49 22 19 68 -72 114 -124 62 -335 114 -586
146 -308 39 -470 47 -674 30z"/>
<path d="M3414 6722 c-71 -11 -71 -12 -19 -40 72 -39 73 -65 3 -96 -44 -20
-203 -126 -188 -126 20 1 115 33 163 55 65 30 92 28 81 -7 -4 -13 -60 -78
-124 -145 -95 -98 -226 -257 -272 -329 -6 -9 6 -8 38 2 33 10 92 50 198 135
191 154 232 193 317 302 57 73 69 95 69 126 0 76 -63 121 -173 124 -40 1 -82
1 -93 -1z"/>
<path d="M3963 6490 c-69 -14 -120 -46 -344 -221 -228 -177 -255 -203 -295
-281 -14 -27 -54 -81 -90 -120 -77 -83 -125 -173 -154 -289 -23 -90 -95 -213
-136 -231 -22 -10 -22 -10 2 -32 39 -33 42 -90 9 -157 -15 -30 -34 -62 -42
-71 -28 -31 66 11 117 53 93 75 120 84 267 84 124 0 134 -1 155 -23 36 -36 15
-52 -133 -102 -169 -58 -234 -93 -273 -148 -25 -35 -126 -209 -126 -217 0 -1
14 0 30 3 17 2 65 24 108 49 42 24 151 81 242 125 91 44 197 99 235 123 86 53
145 71 283 86 283 31 651 -16 993 -127 378 -122 860 -392 1254 -703 156 -124
189 -141 206 -110 18 35 -32 119 -126 214 -102 101 -241 205 -532 399 -204
136 -234 152 -384 212 -282 112 -720 251 -904 288 -119 23 -270 36 -429 36
-188 0 -284 12 -484 61 -190 47 -239 67 -248 105 -9 35 10 52 71 63 41 8 68 4
164 -20 142 -35 286 -49 496 -49 302 0 450 -24 629 -100 115 -49 745 -257 893
-294 123 -31 135 -32 190 -5 59 28 157 28 244 -1 248 -83 575 -370 774 -679
26 -40 85 -144 130 -230 108 -204 112 -211 154 -246 19 -16 32 -25 28 -19 -4
7 -14 77 -22 156 -22 210 -40 271 -118 387 -228 343 -559 650 -855 793 -101
49 -138 54 -233 35 -106 -23 -262 -30 -344 -17 -38 6 -162 42 -275 80 -113 38
-256 83 -319 101 -134 36 -198 65 -207 92 -10 31 15 39 111 33 127 -7 337 -63
495 -131 160 -68 243 -91 283 -76 52 20 34 45 -78 107 -38 21 -96 62 -127 91
-43 40 -72 57 -124 72 -200 62 -440 86 -578 57 -60 -12 -135 -16 -325 -16
-135 0 -355 -5 -487 -12 -280 -14 -339 -8 -339 32 0 40 56 59 283 97 200 34
218 35 544 40 373 6 628 -6 813 -37 66 -11 181 -27 255 -35 225 -24 367 -85
560 -241 36 -28 131 -97 212 -153 177 -121 220 -154 364 -282 167 -148 332
-334 484 -544 39 -55 87 -113 106 -128 34 -28 34 -28 25 -5 -5 14 -21 72 -35
131 -43 178 -77 254 -158 349 -154 181 -444 461 -602 581 -173 132 -438 284
-613 352 -204 78 -527 142 -793 155 -261 13 -307 18 -465 47 -237 43 -399 25
-733 -81 -144 -46 -208 -56 -230 -34 -27 27 34 72 235 173 211 105 378 154
530 156 112 1 166 13 217 46 64 42 157 58 306 50 141 -8 190 -20 190 -48 0
-37 -54 -49 -224 -49 -217 0 -294 -20 -255 -66 43 -52 127 -65 415 -65 240 1
240 1 500 -69 378 -103 514 -152 745 -271 202 -104 268 -155 503 -393 120
-121 269 -277 331 -346 62 -69 132 -140 155 -159 42 -33 42 -33 26 -2 -9 17
-31 71 -47 119 -17 48 -52 127 -76 177 -40 78 -63 107 -187 235 -139 143 -176
194 -176 243 0 55 22 46 150 -57 41 -33 120 -101 175 -151 172 -154 172 -154
90 5 -89 173 -139 240 -200 269 -62 29 -127 37 -176 21 -40 -13 -40 -13 -277
103 -307 150 -421 191 -819 296 -229 61 -288 85 -358 149 -32 29 -69 53 -96
60 -24 7 -84 33 -134 57 -130 65 -189 75 -455 75 -150 0 -255 5 -315 15 -98
16 -157 17 -222 5z"/>
<path d="M5258 6399 c-39 -15 -44 -40 -14 -65 27 -24 216 -73 536 -139 200
-42 293 -70 545 -165 99 -37 253 -91 343 -120 90 -28 184 -61 210 -72 26 -11
65 -24 88 -28 41 -6 41 -6 -22 75 -90 117 -193 211 -246 226 -104 27 -308 92
-488 155 -195 68 -195 68 -350 75 -103 5 -197 16 -280 33 -142 30 -282 41
-322 25z"/>
<path d="M5310 5645 c-18 -21 7 -46 94 -97 38 -23 94 -64 125 -92 61 -56 120
-80 182 -74 29 2 34 7 37 30 11 93 -381 301 -438 233z"/>
<path d="M5603 5023 c-24 -9 -13 -52 21 -86 19 -19 87 -67 151 -107 170 -106
307 -210 411 -314 103 -103 163 -189 224 -324 67 -149 45 -184 -74 -118 -45
26 -77 36 -106 36 -77 0 -123 23 -350 175 -242 162 -421 266 -596 344 -60 27
-157 78 -217 114 -120 74 -215 113 -362 151 -171 45 -328 67 -516 73 -352 11
-511 -29 -916 -228 -184 -91 -196 -102 -262 -237 -24 -48 -50 -94 -58 -103
-13 -15 -9 -15 39 1 29 10 78 32 108 50 249 147 569 271 815 316 138 25 472
25 635 1 231 -36 398 -86 424 -129 28 -46 -46 -52 -255 -23 -268 37 -548 37
-764 0 -198 -34 -441 -118 -672 -231 -149 -73 -169 -93 -214 -214 -11 -30 -27
-65 -35 -78 -14 -22 -14 -22 13 -16 15 3 105 44 198 90 301 148 616 252 875
289 86 12 174 16 350 14 286 -3 429 -3 580 1 101 3 126 0 201 -23 162 -49 305
-125 583 -309 88 -58 238 -144 365 -208 249 -125 295 -161 417 -322 41 -56 90
-111 107 -123 32 -21 32 -21 25 141 -8 188 -13 214 -72 326 -24 46 -56 121
-71 168 -61 195 -157 343 -340 525 -169 170 -337 285 -511 351 -62 23 -129 35
-151 27z"/>
<path d="M4335 4333 c-216 -15 -417 -66 -747 -189 -304 -113 -350 -135 -382
-176 -20 -27 -86 -167 -86 -184 0 -6 66 16 110 37 25 12 83 30 130 41 237 54
272 66 515 173 235 104 455 143 734 132 90 -4 195 -15 250 -26 91 -19 95 -22
155 -79 33 -32 95 -78 136 -101 169 -97 300 -191 300 -216 0 -8 -10 -19 -21
-26 -32 -17 -78 0 -184 67 -144 90 -352 192 -440 215 -101 26 -341 37 -467 20
-187 -25 -337 -83 -424 -163 -53 -49 -85 -101 -109 -178 -27 -85 -80 -185
-161 -303 -82 -119 -91 -146 -99 -293 -6 -97 -6 -97 22 -79 15 10 69 59 119
109 50 50 109 104 132 120 41 28 42 28 78 11 44 -21 84 -18 279 20 317 61 639
27 1051 -110 378 -126 545 -274 643 -565 12 -36 28 -76 36 -90 13 -24 14 -24
21 -5 4 11 21 54 37 95 19 49 31 100 35 148 5 73 5 73 -54 160 -111 166 -264
297 -447 382 -107 50 -149 60 -482 116 -276 47 -283 48 -505 48 -209 1 -233
-1 -336 -26 -112 -26 -191 -60 -251 -104 -59 -45 -87 -19 -57 55 50 125 251
195 594 207 173 7 248 -1 500 -47 94 -17 139 -20 245 -15 150 6 221 -5 338
-54 216 -90 461 -315 602 -552 27 -46 65 -99 86 -118 36 -35 36 -35 45 40 5
41 9 114 9 161 0 87 0 87 -50 160 -71 106 -268 298 -413 404 -68 50 -152 110
-185 135 -45 33 -73 64 -104 115 -71 119 -185 203 -378 280 -101 40 -121 58
-90 81 40 29 153 10 269 -44 94 -44 159 -88 292 -199 65 -54 198 -158 295
-230 258 -191 378 -313 497 -503 26 -41 58 -85 72 -97 25 -21 25 -21 32 30 12
97 9 266 -6 300 -21 49 -122 164 -211 238 -44 37 -143 107 -220 155 -77 48
-223 145 -325 215 -276 189 -407 257 -553 283 -69 13 -750 28 -872 19z m363
-479 c219 -32 522 -154 522 -210 0 -32 -60 -26 -255 26 -311 82 -513 89 -799
24 -128 -28 -159 -30 -181 -8 -15 15 -14 19 12 46 100 104 432 162 701 122z"/>
<path d="M3311 3731 c-11 -11 -27 -34 -36 -52 -19 -36 -55 -142 -51 -147 9 -8
67 39 119 95 46 50 58 70 55 91 -2 22 -9 28 -35 30 -22 2 -38 -3 -52 -17z"/>
<path d="M3565 3721 c-38 -23 -62 -50 -118 -133 -46 -68 -62 -118 -84 -274 -9
-61 -9 -61 24 -35 60 47 237 298 263 373 12 32 11 40 -4 62 -20 31 -40 33 -81
7z"/>
<path d="M4345 3160 c-232 -18 -460 -85 -537 -158 -30 -28 -46 -87 -51 -193
-3 -66 -3 -66 33 -45 19 11 58 40 85 64 63 54 186 116 290 144 67 18 107 21
250 22 151 0 180 -3 266 -26 182 -49 327 -135 413 -244 56 -72 136 -226 171
-329 15 -44 34 -93 42 -108 8 -16 19 -41 23 -55 5 -17 9 -20 9 -9 1 10 14 44
30 75 16 32 35 85 42 119 12 60 12 60 -55 203 -51 108 -69 159 -75 209 -7 59
-12 68 -47 99 -121 104 -419 211 -634 227 -41 3 -95 7 -120 9 -25 2 -85 0
-135 -4z"/>
<path d="M5351 2896 c-15 -18 -12 -23 74 -151 78 -114 103 -163 143 -275 17
-47 39 -105 51 -130 18 -39 21 -41 21 -18 0 14 9 48 21 75 11 26 27 77 34 112
16 75 9 106 -46 197 -87 143 -251 247 -298 190z"/>
<path d="M4265 2856 c-131 -26 -227 -71 -251 -118 -12 -23 -37 -184 -30 -194
1 -1 30 18 66 42 130 89 219 124 315 124 64 0 129 -30 149 -67 12 -24 25 -32
68 -42 154 -34 287 -141 363 -291 56 -110 75 -142 75 -126 0 9 17 48 37 87 68
129 45 205 -112 365 -69 70 -95 89 -185 133 -174 84 -349 115 -495 87z"/>
<path d="M4336 2600 c-58 -18 -94 -70 -105 -156 -8 -54 -8 -54 23 -35 17 10
67 37 111 61 113 61 147 87 143 113 -3 20 -10 22 -73 24 -38 1 -83 -2 -99 -7z"/>
</g>
</svg>
