<?xml version="1.0" standalone="no"?>
<!DOCTYPE svg PUBLIC "-//W3C//DTD SVG 20010904//EN"
 "http://www.w3.org/TR/2001/REC-SVG-20010904/DTD/svg10.dtd">
<svg version="1.0" xmlns="http://www.w3.org/2000/svg"
 width="1000.000000pt" height="1000.000000pt" viewBox="0 0 1000.000000 1000.000000"
 preserveAspectRatio="xMidYMid meet">
<metadata>
  <rdf:RDF
    xmlns:rdf = "http://www.w3.org/1999/02/22-rdf-syntax-ns#"
    xmlns:rdfs = "http://www.w3.org/2000/01/rdf-schema#"
    xmlns:dc = "http://purl.org/dc/elements/1.1/"
    xmlns:cc = "http://creativecommons.org/ns#">
    <cc:license rdf:resource="http://creativecommons.org/publicdomain/zero/1.0/deed.en"/>
    <cc:permits rdf:resource="http://creativecommons.org/ns#Reproduction"/>
    <rdf:Description about="https://nft.mir.one/fingerprints"
      dc:title="TON Fingerprints"
      dc:description="This is a unique digital fingerprint created based on the algorithm for generating basic rings using a noise texture. Like human fingerprints, you can now use it for the Web3 and Metaverse era as digital biometric information."
      dc:publisher="https://nft.mir.one"
      dc:date="2022-02-22"
      dc:format="image/svg+xml"
      dc:language="en" >
      <dc:creator>
      <rdf:Bag>
        <rdf:li>EQBondcvD2_aOFADXSWJHs4ZazQDuEl9_wNvGGPxI8hGuOFU</rdf:li>
        <rdf:li>ipfs://bafkreihj7iub3fhmhq6jn62noukt5wxn3gv6bvcg7wmt6ywvlurefezckq</rdf:li>
      </rdf:Bag>
      </dc:creator>
    </rdf:Description>
  </rdf:RDF>
</metadata>
<rect width="100%" height="100%" fill="#1b1f23"/>
<g transform="translate(0.000000,1000.000000) scale(0.100000,-0.100000)"
fill="#ffffff" stroke="none">
<path d="M5200 7773 c47 -20 132 -47 190 -60 232 -54 392 -115 506 -194 25
-17 79 -63 122 -103 42 -39 122 -107 177 -150 55 -44 118 -95 140 -115 39 -35
39 -34 -5 12 -55 59 -281 256 -382 332 -84 64 -277 161 -393 199 -80 25 -421
116 -434 115 -3 0 32 -16 79 -36z"/>
<path d="M4515 7696 c22 -20 119 -77 217 -127 258 -132 335 -186 527 -373 91
-89 213 -199 270 -246 131 -108 123 -100 149 -134 24 -31 30 -75 10 -77 -26
-3 -45 4 -112 38 -121 61 -240 148 -379 279 -75 70 -175 156 -224 190 -114 82
-419 238 -497 254 -69 14 -270 9 -396 -11 -85 -13 -85 -13 -32 -41 29 -15 72
-33 95 -39 66 -17 396 -144 517 -198 165 -73 275 -139 346 -206 49 -46 64 -67
64 -88 0 -16 -7 -30 -16 -34 -8 -3 -67 19 -132 50 -191 90 -297 131 -570 217
-89 28 -193 65 -230 81 -62 29 -73 31 -157 27 -82 -4 -255 -44 -255 -58 0 -8
80 -27 145 -35 73 -9 122 -26 142 -47 15 -17 15 -20 1 -34 -18 -18 -77 -33
-130 -34 -58 0 -182 -44 -311 -109 -117 -60 -117 -60 -60 -67 74 -9 362 18
508 47 199 40 306 30 670 -68 215 -58 245 -62 405 -52 50 3 67 -2 190 -60 180
-84 292 -121 368 -121 34 0 84 -5 112 -11 53 -11 211 -89 384 -188 137 -79
209 -114 286 -140 96 -31 162 -73 252 -159 153 -146 262 -318 256 -403 -2 -36
-7 -45 -25 -47 -17 -3 -34 14 -79 75 -129 176 -294 347 -376 389 -36 19 -77
15 -92 -9 -19 -31 36 -113 184 -274 154 -166 233 -233 310 -258 38 -13 62 -30
100 -73 28 -32 65 -69 83 -84 34 -26 34 -26 1 70 -18 54 -38 131 -45 172 -25
166 -98 340 -219 525 -166 252 -243 318 -509 431 -178 76 -301 149 -416 249
-33 28 -112 92 -176 142 -110 88 -262 245 -337 350 -18 25 -35 63 -38 85 -7
43 -31 64 -110 99 -145 63 -348 116 -554 144 -63 9 -124 18 -135 21 -13 4 -7
-7 20 -30z"/>
<path d="M5343 7529 c-20 -21 -15 -32 30 -65 88 -66 162 -97 250 -104 52 -5
106 -17 147 -33 84 -34 113 -38 118 -14 5 27 -62 86 -141 125 -161 78 -371
125 -404 91z"/>
<path d="M5584 7275 c-15 -38 46 -91 218 -191 68 -39 181 -107 251 -152 144
-91 216 -122 285 -122 74 0 94 32 46 73 -15 12 -66 55 -113 96 -106 92 -271
215 -322 242 -30 15 -50 18 -91 13 -44 -5 -67 -1 -137 25 -94 34 -129 38 -137
16z"/>
<path d="M6415 7070 c10 -11 20 -20 23 -20 3 0 -3 9 -13 20 -10 11 -20 20 -23
20 -3 0 3 -9 13 -20z"/>
<path d="M6485 6965 c17 -39 22 -92 11 -116 -5 -12 0 -18 21 -22 16 -3 52 -21
80 -40 50 -34 50 -34 1 27 -27 34 -65 89 -85 124 -39 69 -49 80 -28 27z"/>
<path d="M4080 6774 c-184 -16 -397 -36 -458 -44 -84 -11 -145 -40 -285 -134
-99 -66 -99 -66 -60 -68 52 -2 61 -2 373 26 503 45 596 44 888 -10 507 -93
1025 -279 1312 -472 130 -86 206 -157 585 -542 313 -317 372 -384 507 -572 44
-62 94 -125 112 -140 32 -26 32 -26 -10 120 -93 319 -120 369 -284 520 -69 64
-188 180 -265 257 -131 132 -164 172 -308 366 -73 100 -192 190 -362 274 -166
81 -676 254 -845 285 -63 12 -194 39 -290 61 -278 61 -472 84 -610 73z"/>
<path d="M3847 6420 c-86 -10 -228 -22 -315 -27 -159 -9 -159 -9 -256 -56 -54
-26 -104 -47 -112 -47 -21 0 -17 -8 16 -42 31 -30 40 -68 18 -68 -7 -1 -40
-26 -73 -57 -59 -56 -59 -56 -20 -49 58 11 94 33 116 71 19 32 22 34 107 42
109 10 425 11 512 0 61 -7 66 -6 75 15 22 49 59 63 174 66 167 6 400 -42 706
-142 273 -90 505 -196 768 -350 79 -46 185 -105 235 -130 83 -42 111 -64 275
-220 343 -326 562 -585 803 -951 93 -141 166 -229 146 -175 -5 14 -15 59 -22
100 -16 105 -59 266 -85 325 -27 61 -168 251 -295 400 -121 141 -488 508 -608
608 -317 263 -781 484 -1293 616 -340 87 -577 106 -872 71z"/>
<path d="M3906 6171 c-9 -14 24 -70 58 -96 43 -33 190 -95 481 -205 453 -171
652 -270 909 -454 202 -145 220 -155 328 -191 134 -45 203 -90 330 -213 113
-109 204 -217 402 -477 75 -99 166 -214 202 -255 76 -86 143 -182 202 -290 23
-41 53 -88 67 -105 25 -30 25 -30 19 30 -12 121 -35 261 -51 310 -9 28 -34 77
-56 110 -63 94 -260 358 -366 490 -98 123 -356 389 -492 507 -56 50 -78 76
-87 106 -17 54 -48 92 -78 92 -36 0 -40 -25 -10 -70 31 -47 32 -57 7 -65 -33
-10 -71 13 -159 98 -98 94 -157 136 -325 231 -263 149 -570 271 -942 375 -186
51 -427 91 -439 72z"/>
<path d="M3416 6030 c-92 -15 -170 -40 -214 -69 -22 -14 -80 -64 -128 -111
-89 -85 -89 -85 -34 -79 30 3 123 24 205 45 142 36 158 39 305 39 172 0 246
-16 363 -77 115 -61 178 -172 107 -191 -16 -4 -35 7 -75 43 -72 65 -150 90
-305 97 -130 6 -235 -5 -391 -43 -121 -29 -138 -40 -252 -167 -67 -75 -67 -75
-25 -70 24 3 77 16 118 29 246 81 428 114 625 114 170 0 217 -7 213 -29 -6
-30 -72 -49 -253 -75 -169 -24 -359 -70 -520 -126 -65 -22 -114 -64 -172 -145
-20 -27 -47 -62 -60 -76 -24 -27 -24 -27 14 -19 46 9 296 93 464 156 73 27
190 60 284 80 239 50 285 68 369 142 38 33 41 34 100 29 150 -14 471 -131 666
-242 301 -172 466 -341 757 -776 175 -261 282 -508 333 -769 6 -30 15 -167 20
-305 11 -313 29 -754 37 -863 5 -84 5 -84 27 -20 13 34 30 77 38 93 9 17 28
71 43 120 31 100 34 183 15 425 -19 246 -12 323 36 380 26 30 26 30 -11 178
-101 404 -195 607 -445 957 -59 83 -128 188 -155 235 -81 143 -116 190 -195
259 -216 190 -430 312 -815 466 -104 42 -251 108 -325 147 -281 148 -358 185
-426 202 -82 21 -255 29 -338 16z"/>
<path d="M4090 5313 c-144 -18 -508 -86 -553 -103 -61 -23 -107 -62 -107 -93
0 -19 5 -20 83 -14 372 27 481 31 595 19 328 -33 621 -188 904 -480 296 -305
530 -713 577 -1007 6 -38 16 -131 21 -205 6 -74 20 -200 31 -280 18 -120 22
-202 24 -473 2 -181 5 -330 7 -332 7 -8 112 191 135 257 25 70 25 79 20 243
-6 169 -27 483 -48 707 -26 290 -127 554 -327 859 -240 365 -478 596 -772 748
-130 68 -243 111 -345 134 -79 18 -193 27 -245 20z"/>
<path d="M5638 5089 c-45 -25 -10 -105 106 -244 132 -157 271 -363 345 -511
27 -54 66 -155 86 -224 77 -261 98 -320 175 -480 82 -171 119 -272 139 -375 7
-33 19 -77 28 -98 13 -31 14 -42 4 -65 -12 -27 -12 -27 8 -7 29 28 54 207 49
340 -4 100 -4 100 -90 301 -121 282 -141 371 -98 442 24 39 27 31 -93 227
-251 411 -570 746 -659 694z"/>
<path d="M3214 5062 c-131 -27 -131 -27 -207 -95 -41 -37 -81 -67 -88 -68 -8
0 4 -7 25 -15 32 -12 60 -12 145 -4 229 21 176 23 695 -25 265 -24 450 -79
593 -176 185 -126 428 -349 544 -499 113 -146 372 -541 419 -638 40 -83 43
-94 29 -107 -31 -31 -74 3 -180 141 -45 59 -96 94 -136 94 -14 0 -30 19 -54
61 -200 355 -320 498 -546 652 -87 60 -103 76 -122 118 -66 146 -292 217 -791
249 -181 12 -348 12 -425 0 -44 -7 -56 -14 -120 -82 -70 -75 -70 -75 -29 -84
25 -6 86 -6 155 -1 158 12 599 1 739 -18 173 -24 403 -88 421 -117 5 -7 1 -20
-8 -30 -21 -23 -123 -24 -241 -3 -153 27 -377 38 -627 32 -134 -4 -254 -11
-272 -17 -35 -13 -68 -51 -103 -120 -12 -25 -29 -53 -38 -62 -14 -17 -12 -18
24 -20 47 -1 45 -2 169 17 55 8 249 20 430 26 330 11 330 11 481 -14 172 -29
248 -56 337 -120 156 -111 283 -314 341 -542 47 -185 59 -304 60 -570 1 -143
5 -268 10 -277 4 -10 19 -18 31 -18 89 0 158 426 111 680 -19 101 -20 160 -5
194 13 27 38 42 50 29 4 -4 35 -80 70 -168 72 -186 81 -237 49 -309 -11 -28
-34 -113 -50 -189 -35 -166 -60 -222 -143 -315 -52 -58 -73 -94 -129 -218 -36
-82 -69 -161 -72 -176 -3 -14 -9 -34 -13 -45 -6 -16 -4 -16 18 3 13 11 53 41
89 66 83 58 145 125 195 212 22 39 61 87 88 110 27 22 55 53 63 67 25 49 44
197 44 340 0 139 0 139 24 139 32 0 62 -38 82 -104 19 -60 39 -529 28 -641 -4
-38 -8 -95 -9 -126 -2 -56 -2 -56 39 3 135 197 140 213 133 453 -7 224 -21
315 -78 514 -42 149 -42 149 -20 193 46 96 15 250 -95 456 -132 251 -266 435
-454 623 -214 215 -397 337 -614 411 -137 46 -267 65 -506 73 -228 8 -284 17
-323 56 -36 36 -59 36 -233 1z"/>
<path d="M6430 4186 c0 -24 26 -88 112 -271 46 -99 102 -223 123 -275 22 -52
51 -113 65 -136 25 -41 25 -41 23 105 -1 80 -7 175 -13 211 -19 114 -152 325
-231 365 -36 19 -79 19 -79 1z"/>
<path d="M3818 4151 c-15 -5 -42 -19 -59 -32 -32 -22 -38 -23 -283 -24 -138 0
-259 -4 -269 -9 -23 -11 -67 -77 -100 -149 -27 -59 -27 -59 31 -53 141 14 312
18 359 8 149 -32 289 -118 351 -214 22 -35 79 -106 127 -158 137 -149 180
-222 220 -373 52 -200 57 -380 15 -522 -44 -145 -57 -195 -53 -195 21 0 176
86 195 109 40 47 53 133 52 341 -1 165 -4 195 -27 281 -31 117 -82 225 -143
301 -25 32 -98 100 -163 152 -134 108 -146 120 -137 142 15 39 160 -20 327
-132 87 -58 126 -104 178 -203 84 -163 115 -337 108 -611 -5 -194 -16 -258
-67 -375 -12 -28 -28 -71 -34 -97 -13 -47 -13 -47 48 -16 88 44 163 103 184
146 46 91 49 141 33 502 -15 315 -48 464 -155 696 -25 56 -55 127 -66 158 -51
151 -181 253 -390 306 -92 24 -239 35 -282 21z m78 -116 c215 -48 343 -105
431 -190 30 -29 53 -59 51 -67 -10 -30 -62 -20 -177 35 -64 31 -165 69 -226
87 -153 43 -236 99 -218 146 7 18 13 18 139 -11z"/>
<path d="M3282 3720 c-18 -18 -40 -46 -48 -64 -9 -17 -23 -39 -32 -48 -17 -20
-23 -19 123 -23 116 -3 213 -51 203 -102 -3 -15 -13 -18 -62 -18 -59 0 -59 0
-112 -60 -29 -32 -52 -60 -51 -61 1 -1 29 2 63 6 57 7 116 30 176 68 26 16 30
16 80 -2 109 -38 249 -143 313 -235 23 -35 26 -43 15 -57 -19 -22 -47 -12
-153 52 -83 50 -167 84 -206 84 -26 0 -66 -32 -110 -87 -41 -53 -41 -53 -4
-53 168 -1 347 -100 410 -228 26 -53 28 -65 28 -184 0 -126 0 -127 20 -108 11
9 34 25 50 33 46 24 93 72 101 102 10 41 -3 193 -21 250 -9 28 -20 96 -24 151
-12 143 -37 187 -200 346 -192 189 -303 253 -456 265 -70 5 -72 5 -103 -27z"/>
<path d="M6177 3573 c-11 -11 -8 -64 13 -205 11 -73 24 -218 30 -323 5 -104
15 -215 21 -245 15 -74 17 -80 18 -48 1 15 12 62 26 105 54 172 78 294 71 368
-7 88 -40 205 -74 268 -36 66 -83 102 -105 80z"/>
<path d="M5184 2545 c-25 -39 -110 -266 -118 -315 -7 -45 -7 -45 54 15 34 33
79 86 101 119 33 50 39 66 39 113 0 30 -5 63 -10 74 -15 26 -46 24 -66 -6z"/>
</g>
</svg>
