<?xml version="1.0" standalone="no"?>
<!DOCTYPE svg PUBLIC "-//W3C//DTD SVG 20010904//EN"
 "http://www.w3.org/TR/2001/REC-SVG-20010904/DTD/svg10.dtd">
<svg version="1.0" xmlns="http://www.w3.org/2000/svg"
 width="1000.000000pt" height="1000.000000pt" viewBox="0 0 1000.000000 1000.000000"
 preserveAspectRatio="xMidYMid meet">
<metadata>
  <rdf:RDF
    xmlns:rdf = "http://www.w3.org/1999/02/22-rdf-syntax-ns#"
    xmlns:rdfs = "http://www.w3.org/2000/01/rdf-schema#"
    xmlns:dc = "http://purl.org/dc/elements/1.1/"
    xmlns:cc = "http://creativecommons.org/ns#">
    <cc:license rdf:resource="http://creativecommons.org/publicdomain/zero/1.0/deed.en"/>
    <cc:permits rdf:resource="http://creativecommons.org/ns#Reproduction"/>
    <rdf:Description about="https://nft.mir.one/fingerprints"
      dc:title="TON Fingerprints"
      dc:description="This is a unique digital fingerprint created based on the algorithm for generating basic rings using a noise texture. Like human fingerprints, you can now use it for the Web3 and Metaverse era as digital biometric information."
      dc:publisher="https://nft.mir.one"
      dc:date="2022-02-22"
      dc:format="image/svg+xml"
      dc:language="en" >
      <dc:creator>
      <rdf:Bag>
        <rdf:li>EQBondcvD2_aOFADXSWJHs4ZazQDuEl9_wNvGGPxI8hGuOFU</rdf:li>
        <rdf:li>ipfs://bafkreihj7iub3fhmhq6jn62noukt5wxn3gv6bvcg7wmt6ywvlurefezckq</rdf:li>
      </rdf:Bag>
      </dc:creator>
    </rdf:Description>
  </rdf:RDF>
</metadata>
<rect width="100%" height="100%" fill="#1b1f23"/>
<g transform="translate(0.000000,1000.000000) scale(0.100000,-0.100000)"
fill="#ffffff" stroke="none">
<path d="M4770 7770 c24 -20 57 -40 156 -96 46 -26 46 -26 25 -48 -32 -31
-119 -26 -261 17 -63 19 -136 39 -161 46 -26 6 -55 14 -65 17 -26 9 41 -47
118 -99 63 -42 95 -84 78 -101 -13 -13 -191 31 -249 60 -29 15 -71 25 -116 29
-78 6 -78 6 43 -47 92 -41 80 -64 -39 -73 -41 -3 -132 -10 -202 -17 -128 -11
-128 -11 -72 -29 160 -49 506 -45 626 8 53 23 61 24 135 14 43 -5 140 -13 214
-16 74 -3 185 -10 245 -16 61 -5 234 -13 385 -18 237 -8 284 -12 341 -30 114
-36 173 -94 161 -157 -5 -25 -7 -26 -56 -21 -28 3 -76 13 -106 22 -82 23 -188
29 -234 13 -148 -50 14 -153 331 -208 65 -12 152 -31 193 -42 124 -35 200 -47
200 -33 0 7 -56 66 -123 131 -92 89 -132 135 -157 182 -56 106 -139 163 -350
240 -196 73 -224 79 -455 106 -328 39 -375 47 -388 63 -39 49 -61 63 -147 91
-81 27 -91 29 -70 12z"/>
<path d="M3945 7295 c-44 -8 -109 -17 -144 -21 -63 -7 -63 -7 -5 -25 72 -21
315 -53 563 -74 102 -8 203 -20 225 -26 58 -16 98 -46 94 -73 -3 -20 -8 -21
-78 -18 -142 5 -358 24 -528 46 -182 24 -263 22 -382 -9 -32 -8 -73 -15 -91
-15 -78 -1 95 -41 366 -85 508 -81 621 -81 739 -1 32 21 50 26 100 26 142 -1
409 -54 552 -110 164 -65 500 -257 639 -365 171 -133 254 -240 384 -491 116
-225 188 -322 374 -504 82 -80 174 -179 205 -220 59 -78 138 -160 127 -132 -3
9 -27 75 -51 147 -68 194 -177 410 -273 540 -100 137 -150 231 -191 362 -40
129 -90 202 -253 368 -122 124 -122 124 -342 230 -240 117 -295 151 -368 231
-34 38 -64 59 -103 74 -163 60 -717 135 -1114 150 -329 12 -343 12 -445 -5z"/>
<path d="M3585 6914 c-33 -8 -78 -19 -100 -25 -39 -11 -39 -11 -7 -25 18 -7
119 -30 225 -49 210 -39 295 -60 462 -110 141 -42 192 -50 465 -75 346 -32
519 -75 747 -185 176 -86 320 -187 578 -409 108 -93 173 -133 198 -123 25 10
31 69 12 127 -54 163 -266 365 -560 534 -222 127 -412 198 -620 232 -81 13
-140 15 -310 9 -249 -8 -302 -2 -653 65 -276 53 -339 57 -437 34z"/>
<path d="M6444 6805 c-9 -23 21 -61 89 -111 68 -51 84 -58 141 -67 40 -6 40
-6 -45 79 -46 47 -96 92 -111 100 -35 18 -67 18 -74 -1z"/>
<path d="M3465 6715 c-98 -27 -135 -39 -135 -46 0 -13 63 -29 214 -55 309 -52
530 -95 542 -105 17 -14 8 -34 -22 -48 -43 -19 -151 -12 -378 24 -120 19 -230
35 -245 35 -24 0 -77 -16 -204 -63 -38 -14 -38 -14 5 -29 24 -9 86 -21 138
-28 52 -7 192 -28 310 -47 191 -32 245 -37 480 -43 273 -8 415 -23 628 -65
247 -50 514 -157 615 -245 67 -59 88 -130 38 -130 -11 0 -87 27 -168 59 -188
76 -350 125 -533 161 -197 39 -298 50 -552 60 -207 8 -219 10 -285 38 -92 39
-172 56 -395 83 -210 25 -227 24 -352 -40 -56 -28 -56 -28 -4 -44 80 -25 243
-46 448 -58 212 -13 263 -22 258 -47 -2 -9 -21 -26 -43 -37 -37 -18 -59 -20
-275 -19 -129 1 -273 3 -320 5 -69 3 -94 0 -128 -15 -23 -10 -42 -23 -42 -27
0 -4 21 -11 48 -14 55 -7 92 -21 92 -34 0 -12 -22 -34 -68 -69 -21 -15 -61
-46 -90 -69 -53 -43 -53 -43 -2 -43 32 0 97 15 173 39 150 48 142 47 369 71
103 10 241 32 305 47 111 26 131 28 343 28 288 -1 446 -25 838 -129 238 -64
279 -70 376 -56 76 11 85 11 140 -10 89 -34 293 -141 393 -205 53 -35 128 -98
189 -159 85 -85 127 -140 267 -352 149 -225 195 -286 305 -404 44 -47 80 -125
141 -303 28 -81 62 -167 76 -190 25 -42 25 -42 20 365 -4 410 -9 480 -45 582
-54 159 -225 332 -307 311 -23 -5 -24 -9 -18 -43 4 -20 42 -96 86 -168 96
-160 135 -241 149 -311 10 -46 9 -58 -5 -79 -13 -20 -19 -22 -35 -14 -25 13
-77 91 -168 250 -91 159 -112 218 -112 314 0 75 0 75 -51 143 -73 97 -245 289
-283 316 -24 17 -51 23 -116 28 -128 9 -196 46 -433 237 -155 124 -201 154
-333 220 -179 90 -415 152 -704 187 -224 27 -353 45 -390 57 -19 6 -57 28 -85
48 -75 57 -140 79 -384 126 -140 27 -202 29 -276 9z"/>
<path d="M6719 6298 c-5 -48 16 -91 97 -204 33 -45 82 -100 110 -122 51 -40
51 -40 -31 110 -45 83 -96 168 -114 190 -32 38 -60 49 -62 26z"/>
<path d="M4055 5793 c-90 -6 -578 -64 -661 -78 -121 -21 -237 -51 -272 -69
-17 -9 -57 -40 -89 -69 -32 -29 -69 -61 -83 -70 -24 -17 -24 -17 21 -17 25 0
129 16 232 35 339 63 513 79 857 79 273 0 319 -2 435 -22 345 -60 749 -183
973 -296 159 -80 379 -248 442 -336 11 -15 24 -58 30 -96 15 -90 50 -154 135
-241 75 -76 116 -97 142 -70 31 30 -10 111 -136 267 -34 41 -60 82 -58 90 4
24 63 24 102 0 93 -57 179 -195 201 -321 15 -89 12 -82 105 -239 139 -236 279
-555 279 -635 0 -132 -81 -63 -226 193 -171 304 -225 372 -453 581 -69 63
-137 140 -206 230 -56 75 -137 169 -180 209 -205 192 -535 352 -940 455 -399
103 -808 121 -1300 57 -315 -41 -327 -45 -434 -154 -53 -54 -53 -54 -24 -60
17 -4 84 2 149 13 517 86 991 85 1392 -5 236 -52 535 -165 715 -270 191 -110
318 -217 550 -462 334 -353 379 -408 555 -687 55 -88 118 -184 140 -213 59
-79 176 -211 187 -211 6 -1 22 -7 36 -15 26 -13 26 -13 32 94 7 113 13 135 51
188 35 46 49 151 44 302 -5 113 -8 133 -41 216 -56 144 -138 305 -248 488
-127 213 -190 300 -293 401 -219 217 -430 365 -655 460 -65 27 -564 161 -781
209 -272 60 -513 83 -725 69z"/>
<path d="M3435 5143 c-27 -2 -117 -12 -198 -23 -172 -22 -188 -30 -271 -124
-56 -64 -56 -64 -19 -68 20 -3 71 2 112 9 236 41 644 56 887 32 156 -15 381
-62 529 -110 166 -54 424 -183 595 -297 408 -271 768 -666 950 -1043 73 -153
99 -249 135 -513 25 -185 55 -303 68 -266 26 78 117 508 117 554 0 111 -171
439 -359 690 -145 193 -472 527 -649 664 -344 264 -773 432 -1247 487 -119 14
-499 18 -650 8z"/>
<path d="M3201 4824 c-128 -15 -150 -27 -217 -111 -21 -27 -44 -53 -51 -59
-23 -20 53 -22 162 -6 133 21 630 23 760 4 396 -60 604 -140 800 -312 74 -64
263 -194 429 -295 172 -104 364 -307 503 -530 129 -209 194 -354 303 -685 77
-234 120 -334 120 -280 0 14 9 68 20 120 28 134 26 170 -24 369 -67 268 -138
433 -270 630 -179 267 -379 466 -686 683 -438 308 -715 423 -1149 473 -158 19
-543 18 -700 -1z"/>
<path d="M3172 4520 c-70 -8 -102 -31 -167 -122 -34 -47 -34 -47 -5 -53 16 -4
91 -1 167 6 240 21 470 1 813 -71 393 -82 492 -93 513 -59 66 106 -329 251
-812 299 -114 11 -411 11 -509 0z"/>
<path d="M3217 4211 c-54 -6 -62 -10 -100 -53 -23 -25 -52 -60 -65 -77 -22
-30 -22 -30 20 -35 24 -3 111 -7 193 -10 171 -5 283 -23 423 -67 203 -65 267
-110 547 -379 110 -105 241 -225 292 -266 98 -79 143 -128 169 -182 13 -28 14
-42 5 -77 -16 -62 -14 -106 10 -246 18 -107 21 -153 17 -329 -2 -113 -2 -221
1 -242 6 -36 6 -36 70 37 83 94 97 123 112 231 23 175 -9 350 -88 482 -37 61
-39 91 -8 102 82 29 208 -111 264 -294 29 -94 27 -155 -9 -261 -44 -129 -62
-237 -54 -315 5 -48 9 -59 15 -43 4 12 26 48 48 81 23 33 57 95 77 138 56 123
78 120 89 -9 6 -80 22 -154 35 -170 11 -13 50 125 50 176 0 28 -8 64 -20 88
-23 45 -20 59 15 59 39 0 90 -62 141 -170 27 -55 51 -97 54 -93 7 9 26 89 35
149 10 67 -9 112 -110 247 -52 71 -113 163 -137 205 -73 134 -142 243 -238
377 -142 200 -222 379 -240 539 -8 65 -15 86 -38 115 -44 55 -171 137 -231
150 -66 14 -315 14 -380 0 -47 -10 -63 -7 -233 40 -101 28 -214 57 -253 65
-149 30 -378 48 -478 37z m1104 -276 c96 -41 198 -107 251 -162 75 -78 137
-207 124 -259 -14 -53 -80 -19 -191 96 -33 34 -113 107 -178 162 -116 98 -156
149 -144 182 10 25 48 19 138 -19z"/>
<path d="M3226 3869 c-15 -12 -39 -40 -53 -63 -14 -22 -33 -45 -42 -51 -19
-11 5 -17 149 -40 208 -33 344 -99 476 -230 254 -254 344 -468 313 -749 -6
-55 -12 -136 -14 -179 -4 -70 -2 -76 12 -62 8 9 31 22 51 31 55 22 112 64 127
93 7 14 20 65 29 113 9 49 28 127 43 175 30 104 33 160 9 230 -33 98 -153 260
-302 409 -187 186 -367 284 -605 329 -113 21 -160 20 -193 -6z"/>
<path d="M4925 3880 c-10 -16 3 -61 33 -110 15 -25 93 -142 173 -260 80 -118
173 -260 206 -315 84 -140 265 -476 336 -623 32 -68 70 -140 83 -159 22 -33
24 -34 24 -12 0 13 7 56 15 94 25 118 20 155 -34 289 -115 283 -218 486 -345
681 -130 197 -276 359 -366 405 -42 21 -115 27 -125 10z"/>
<path d="M3358 3510 c-14 -11 -41 -35 -59 -53 -34 -34 -34 -34 11 -52 260
-101 303 -112 315 -76 15 49 -50 128 -145 176 -59 30 -89 31 -122 5z"/>
<path d="M3598 3213 c-29 -33 -58 -102 -58 -139 0 -26 -5 -37 -18 -41 -15 -4
-6 -17 48 -71 36 -37 78 -91 92 -120 22 -43 27 -49 30 -30 3 20 9 23 48 24 25
0 59 8 76 17 56 29 58 67 8 166 -50 101 -156 211 -202 211 -5 0 -16 -8 -24
-17z"/>
<path d="M6450 3174 c-16 -18 -28 -194 -13 -194 11 0 56 160 52 185 -5 25 -23
29 -39 9z"/>
<path d="M4473 2902 c-22 -14 -41 -75 -53 -172 -15 -119 -34 -209 -58 -280
-35 -99 -37 -130 -7 -101 6 5 42 19 80 30 130 39 148 68 149 244 0 78 -5 153
-13 184 -20 82 -59 120 -98 95z"/>
</g>
</svg>
