<?xml version="1.0" standalone="no"?>
<!DOCTYPE svg PUBLIC "-//W3C//DTD SVG 20010904//EN"
 "http://www.w3.org/TR/2001/REC-SVG-20010904/DTD/svg10.dtd">
<svg version="1.0" xmlns="http://www.w3.org/2000/svg"
 width="1000.000000pt" height="1000.000000pt" viewBox="0 0 1000.000000 1000.000000"
 preserveAspectRatio="xMidYMid meet">
<metadata>
  <rdf:RDF
    xmlns:rdf = "http://www.w3.org/1999/02/22-rdf-syntax-ns#"
    xmlns:rdfs = "http://www.w3.org/2000/01/rdf-schema#"
    xmlns:dc = "http://purl.org/dc/elements/1.1/"
    xmlns:cc = "http://creativecommons.org/ns#">
    <cc:license rdf:resource="http://creativecommons.org/publicdomain/zero/1.0/deed.en"/>
    <cc:permits rdf:resource="http://creativecommons.org/ns#Reproduction"/>
    <rdf:Description about="https://nft.mir.one/fingerprints"
      dc:title="TON Fingerprints"
      dc:description="This is a unique digital fingerprint created based on the algorithm for generating basic rings using a noise texture. Like human fingerprints, you can now use it for the Web3 and Metaverse era as digital biometric information."
      dc:publisher="https://nft.mir.one"
      dc:date="2022-02-22"
      dc:format="image/svg+xml"
      dc:language="en" >
      <dc:creator>
      <rdf:Bag>
        <rdf:li>EQBondcvD2_aOFADXSWJHs4ZazQDuEl9_wNvGGPxI8hGuOFU</rdf:li>
        <rdf:li>ipfs://bafkreihj7iub3fhmhq6jn62noukt5wxn3gv6bvcg7wmt6ywvlurefezckq</rdf:li>
      </rdf:Bag>
      </dc:creator>
    </rdf:Description>
  </rdf:RDF>
</metadata>
<rect width="100%" height="100%" fill="#1b1f23"/>
<g transform="translate(0.000000,1000.000000) scale(0.100000,-0.100000)"
fill="#ffffff" stroke="none">
<path d="M5136 7810 c11 -14 31 -43 44 -65 14 -22 51 -74 83 -115 33 -41 122
-169 200 -285 77 -115 186 -271 242 -345 137 -182 205 -285 317 -480 112 -194
277 -455 343 -540 53 -69 111 -121 210 -188 83 -56 122 -105 163 -204 73 -175
99 -330 112 -648 5 -124 15 -259 23 -300 25 -127 73 -250 124 -320 25 -35 25
-35 19 40 -3 41 -11 233 -16 425 -5 193 -12 393 -15 445 -7 107 -38 337 -61
444 -8 39 -23 145 -34 236 -30 257 -62 350 -197 569 -72 117 -123 188 -194
271 -26 30 -92 121 -147 201 -205 300 -353 479 -396 479 -22 0 -21 -2 19 -45
53 -55 68 -92 69 -165 1 -62 4 -69 67 -165 115 -176 188 -315 200 -380 5 -33
14 -84 19 -114 12 -70 64 -175 199 -401 61 -102 111 -188 111 -191 0 -16 -35
-18 -66 -3 -81 38 -273 334 -369 569 -96 232 -183 371 -342 543 -66 71 -138
165 -197 255 -121 184 -220 280 -426 411 -41 27 -86 58 -100 70 -25 21 -25 21
-4 -4z m1377 -1209 c52 -55 174 -237 217 -321 76 -151 81 -312 9 -350 -35 -19
-46 2 -51 98 -6 107 -25 155 -144 358 -95 162 -136 243 -128 256 14 22 54 5
97 -41z"/>
<path d="M4784 7766 c17 -21 66 -77 109 -125 43 -47 106 -122 139 -166 55 -73
76 -112 167 -306 17 -37 90 -150 163 -250 190 -265 302 -438 365 -565 55 -111
55 -111 70 -263 14 -140 14 -154 -2 -177 -9 -14 -22 -23 -28 -21 -7 2 -39 75
-72 163 -93 245 -203 434 -418 716 -130 172 -214 258 -289 298 -112 59 -180
114 -339 278 -123 127 -169 167 -218 191 -63 32 -191 82 -191 74 0 -18 53 -98
117 -175 113 -137 238 -263 413 -417 85 -74 179 -160 209 -191 132 -135 348
-424 471 -629 134 -223 193 -303 255 -346 79 -55 107 -118 110 -248 2 -80 5
-92 32 -130 36 -50 87 -87 120 -87 18 0 28 9 40 38 24 59 12 168 -52 444 -32
136 -55 254 -51 263 16 42 68 1 115 -92 20 -41 151 -362 186 -456 14 -39 28
-55 70 -83 100 -66 163 -184 245 -457 41 -136 41 -167 0 -167 -61 0 -145 142
-239 404 -54 148 -73 186 -95 186 -39 0 -116 -107 -116 -161 0 -57 51 -188
157 -402 155 -313 167 -362 184 -782 12 -315 9 -384 -27 -573 -32 -166 -72
-593 -63 -682 3 -36 7 -58 7 -49 1 9 20 65 43 125 57 151 95 279 124 424 27
132 44 170 75 170 24 0 26 -9 40 -165 15 -165 19 -165 44 0 11 71 12 113 6
145 -32 154 -65 538 -56 660 3 47 17 123 31 169 30 101 30 124 6 309 -21 154
-21 150 24 272 14 36 16 67 12 155 -9 194 -78 375 -208 543 -38 48 -93 120
-124 160 -31 40 -97 139 -147 220 -49 81 -115 179 -147 217 -84 104 -119 155
-215 315 -48 80 -132 208 -186 285 -132 186 -277 402 -374 557 -132 211 -176
250 -402 363 -121 60 -121 60 -90 21z"/>
<path d="M4500 7723 c0 -2 9 -20 19 -41 22 -42 85 -115 270 -311 171 -183 225
-219 250 -172 7 13 7 29 -1 53 -16 49 -113 180 -198 268 -68 70 -88 84 -207
142 -73 36 -133 63 -133 61z"/>
<path d="M5663 7607 c27 -51 80 -150 118 -222 78 -149 132 -208 183 -203 16 2
31 8 33 14 2 6 -21 48 -52 94 -30 45 -55 89 -55 97 0 37 -39 87 -154 195 -123
117 -123 117 -73 25z"/>
<path d="M4010 7465 c0 -3 20 -32 43 -63 56 -72 68 -97 61 -116 -7 -19 -25
-20 -79 -5 -22 6 -83 14 -137 18 -97 6 -97 6 -70 -22 36 -38 127 -84 232 -117
100 -31 133 -51 272 -162 236 -189 437 -413 776 -864 188 -252 275 -355 390
-466 120 -116 198 -154 232 -113 21 26 -38 127 -141 240 -50 55 -134 161 -187
235 -417 587 -471 652 -813 969 -112 104 -240 234 -285 288 -85 103 -124 133
-214 159 -30 9 -61 19 -67 21 -7 3 -13 2 -13 -2z"/>
<path d="M3631 7084 c30 -32 201 -147 388 -261 279 -170 370 -252 460 -413
186 -331 503 -716 951 -1150 307 -298 391 -395 456 -525 41 -83 50 -114 100
-360 29 -149 61 -328 69 -400 35 -304 6 -864 -66 -1238 -10 -56 -19 -131 -19
-167 0 -65 0 -65 59 42 69 124 124 244 145 320 9 29 30 199 48 378 47 485 43
766 -18 1097 -32 175 -70 288 -159 468 -119 239 -233 374 -444 525 -244 174
-392 338 -832 922 -227 300 -336 419 -491 536 -109 81 -193 134 -321 199 -92
48 -92 48 -220 49 -128 1 -128 1 -106 -22z"/>
<path d="M3482 6901 c-16 -10 20 -34 116 -76 43 -19 62 -33 62 -46 0 -21 -7
-23 -125 -43 -50 -8 -110 -22 -134 -31 -24 -8 -53 -15 -65 -15 -16 0 -10 -7
22 -25 28 -16 97 -35 199 -56 161 -32 226 -51 352 -100 41 -17 109 -37 150
-45 43 -9 116 -35 167 -60 102 -49 106 -50 124 -29 16 19 5 48 -33 91 -47 55
-133 108 -346 216 -201 102 -232 122 -258 171 -8 16 -30 35 -48 43 -37 15
-162 19 -183 5z"/>
<path d="M3305 6475 c-38 -14 -77 -27 -85 -30 -28 -11 41 -42 234 -106 144
-47 232 -84 356 -148 289 -148 320 -162 406 -183 121 -29 182 -91 119 -120
-20 -9 -43 -7 -117 11 -92 23 -195 63 -483 189 -88 38 -214 89 -280 112 -137
48 -185 49 -288 9 -57 -22 -57 -22 -25 -52 43 -38 103 -65 279 -122 79 -26
252 -89 384 -140 223 -86 317 -119 503 -176 143 -44 225 -107 441 -343 319
-347 430 -492 547 -716 21 -39 41 -61 74 -80 96 -55 266 -353 319 -560 48
-186 62 -303 68 -576 8 -377 -10 -512 -91 -679 -52 -105 -58 -123 -90 -275
-17 -85 -22 -127 -16 -160 4 -25 8 -40 9 -35 0 6 30 46 66 88 141 171 191 265
229 437 49 222 60 341 60 665 1 328 -9 423 -64 642 -40 157 -77 231 -148 290
-111 93 -182 179 -182 219 0 55 52 35 146 -57 78 -75 108 -86 124 -45 10 27 2
64 -25 117 -33 63 -66 98 -179 188 -118 94 -285 265 -686 701 -296 323 -328
362 -420 519 -101 173 -116 187 -265 255 -69 32 -132 56 -141 54 -9 -2 -22
-11 -28 -20 -14 -23 16 -55 110 -119 74 -50 117 -94 111 -113 -15 -41 -174 40
-302 155 -83 74 -151 113 -275 157 -221 79 -282 87 -395 47z"/>
<path d="M3193 5920 c-13 -5 -48 -28 -78 -50 -30 -22 -70 -51 -89 -64 -35 -24
-35 -24 7 -34 23 -6 85 -14 137 -17 181 -12 417 -75 715 -192 201 -79 330
-148 393 -209 62 -60 66 -87 15 -92 -32 -3 -45 2 -298 113 -275 121 -530 203
-748 240 -116 19 -135 15 -228 -50 -35 -25 -71 -45 -79 -45 -40 -2 78 -31 180
-45 263 -36 453 -94 830 -255 113 -48 239 -98 280 -110 100 -30 160 -61 248
-128 110 -83 230 -228 324 -392 108 -188 259 -686 328 -1080 35 -204 91 -632
96 -745 8 -141 -10 -230 -70 -345 -54 -106 -58 -124 -43 -182 12 -47 12 -47
125 58 141 133 160 164 174 286 10 85 9 104 -15 223 -14 72 -33 202 -42 290
-45 444 -81 655 -170 981 -30 110 -70 270 -89 355 -19 85 -44 179 -56 209 -53
136 -152 282 -309 455 -50 55 -145 164 -211 242 -119 140 -191 203 -286 251
-137 69 -640 254 -809 297 -158 40 -203 47 -232 35z"/>
<path d="M3048 5331 c-21 -12 -58 -36 -83 -56 -46 -34 -46 -34 -13 -48 18 -7
71 -19 118 -26 233 -34 510 -133 772 -277 359 -198 575 -421 743 -766 116
-239 184 -480 245 -872 17 -105 43 -236 59 -291 34 -114 46 -177 61 -324 14
-125 33 -179 66 -187 57 -15 79 48 78 221 -2 187 -103 806 -179 1100 -118 452
-277 763 -498 971 -108 102 -197 159 -402 259 -306 149 -472 214 -690 270
-183 47 -231 51 -277 26z"/>
<path d="M3025 5053 c-16 -9 -46 -28 -65 -43 -19 -15 -41 -29 -49 -32 -8 -2
22 -12 65 -22 390 -89 697 -265 987 -565 309 -320 472 -657 506 -1041 20 -230
-36 -471 -160 -696 -69 -127 -83 -194 -39 -194 10 0 22 5 26 11 4 6 20 8 40 4
40 -7 97 16 120 49 8 11 42 104 75 206 33 102 77 214 97 250 35 62 37 70 40
173 12 320 -101 728 -288 1037 -78 129 -133 202 -230 304 -227 238 -611 464
-935 552 -104 28 -148 30 -190 7z"/>
<path d="M3015 4798 c-16 -6 -35 -15 -42 -20 -6 -5 -23 -12 -37 -16 -24 -7
-23 -8 27 -34 28 -14 92 -46 141 -69 212 -101 413 -286 563 -516 91 -140 103
-175 103 -309 0 -87 7 -152 31 -271 44 -224 59 -361 65 -593 6 -233 20 -366
38 -351 6 5 37 19 69 31 32 12 70 32 84 44 26 22 26 22 3 82 -19 51 -23 88
-30 280 -12 298 -33 426 -110 668 -41 130 -42 156 -4 156 23 0 82 -59 113
-114 103 -179 149 -491 122 -817 -13 -157 -7 -199 28 -199 47 0 102 110 132
260 19 97 17 356 -4 463 -35 173 -96 328 -178 450 -70 102 -299 369 -423 492
-148 146 -269 234 -443 321 -137 69 -192 83 -248 62z"/>
<path d="M5284 4542 c-22 -15 -34 -52 -34 -109 0 -62 11 -106 83 -353 80 -276
119 -510 137 -825 22 -387 32 -440 83 -433 60 8 82 158 74 498 -10 423 -58
659 -209 1015 -56 134 -100 215 -116 215 -4 0 -12 -4 -18 -8z"/>
<path d="M3000 4527 c-55 -9 -55 -9 60 -126 121 -121 167 -182 196 -258 13
-32 15 -52 8 -71 -13 -36 -34 -38 -70 -7 -44 38 -70 42 -121 14 -43 -24 -43
-24 -21 -41 43 -33 104 -58 144 -58 27 0 48 -7 64 -22 43 -40 120 -172 159
-273 66 -167 88 -271 132 -615 15 -122 16 -123 42 -105 12 8 28 15 37 15 19 1
64 39 79 67 15 29 14 89 -4 230 -28 214 -101 553 -144 660 -90 228 -237 435
-394 552 -60 45 -91 52 -167 38z"/>
<path d="M6754 4309 c-17 -19 -19 -34 -17 -128 3 -144 46 -421 76 -493 24 -58
24 -58 33 70 5 70 9 213 9 319 0 179 -1 193 -21 220 -27 35 -55 40 -80 12z"/>
<path d="M4732 2943 c-26 -9 -43 -67 -67 -223 -28 -183 -54 -296 -105 -464 -9
-29 -9 -29 13 -8 12 11 51 32 86 46 94 38 149 73 166 106 13 25 14 50 5 177
-22 313 -42 385 -98 366z"/>
<path d="M4286 2408 c-20 -16 -35 -32 -33 -35 7 -7 76 29 81 43 10 26 -11 23
-48 -8z"/>
</g>
</svg>
