<?xml version="1.0" standalone="no"?>
<!DOCTYPE svg PUBLIC "-//W3C//DTD SVG 20010904//EN"
 "http://www.w3.org/TR/2001/REC-SVG-20010904/DTD/svg10.dtd">
<svg version="1.0" xmlns="http://www.w3.org/2000/svg"
 width="1000.000000pt" height="1000.000000pt" viewBox="0 0 1000.000000 1000.000000"
 preserveAspectRatio="xMidYMid meet">
<metadata>
  <rdf:RDF
    xmlns:rdf = "http://www.w3.org/1999/02/22-rdf-syntax-ns#"
    xmlns:rdfs = "http://www.w3.org/2000/01/rdf-schema#"
    xmlns:dc = "http://purl.org/dc/elements/1.1/"
    xmlns:cc = "http://creativecommons.org/ns#">
    <cc:license rdf:resource="http://creativecommons.org/publicdomain/zero/1.0/deed.en"/>
    <cc:permits rdf:resource="http://creativecommons.org/ns#Reproduction"/>
    <rdf:Description about="https://nft.mir.one/fingerprints"
      dc:title="TON Fingerprints"
      dc:description="This is a unique digital fingerprint created based on the algorithm for generating basic rings using a noise texture. Like human fingerprints, you can now use it for the Web3 and Metaverse era as digital biometric information."
      dc:publisher="https://nft.mir.one"
      dc:date="2022-02-22"
      dc:format="image/svg+xml"
      dc:language="en" >
      <dc:creator>
      <rdf:Bag>
        <rdf:li>EQBondcvD2_aOFADXSWJHs4ZazQDuEl9_wNvGGPxI8hGuOFU</rdf:li>
        <rdf:li>ipfs://bafkreihj7iub3fhmhq6jn62noukt5wxn3gv6bvcg7wmt6ywvlurefezckq</rdf:li>
      </rdf:Bag>
      </dc:creator>
    </rdf:Description>
  </rdf:RDF>
</metadata>
<rect width="100%" height="100%" fill="#1b1f23"/>
<g transform="translate(0.000000,1000.000000) scale(0.100000,-0.100000)"
fill="#ffffff" stroke="none">
<path d="M4900 7792 c13 -9 38 -28 55 -42 16 -15 78 -56 137 -93 252 -160 393
-281 686 -592 274 -291 332 -364 413 -514 194 -360 358 -591 420 -591 53 0 36
45 -117 321 -138 249 -147 274 -139 355 6 61 6 61 -54 135 -75 94 -133 153
-300 309 -74 68 -165 163 -203 211 -116 148 -236 240 -460 352 -93 46 -430
169 -457 166 -3 0 5 -8 19 -17z"/>
<path d="M4470 7711 c0 -23 98 -99 315 -243 271 -180 408 -285 555 -424 199
-189 316 -319 486 -546 60 -79 149 -186 199 -238 50 -52 131 -151 180 -220
100 -140 144 -196 260 -328 188 -214 257 -408 324 -912 11 -85 28 -179 36
-207 17 -57 54 -108 84 -116 43 -11 45 -2 38 240 -8 251 -25 429 -58 580 -29
135 -113 386 -153 458 -32 58 -36 61 -105 86 -154 58 -180 85 -489 535 -174
252 -250 350 -415 532 -231 256 -442 443 -679 602 -122 82 -223 123 -408 165
-41 9 -96 23 -122 30 -27 7 -48 10 -48 6z"/>
<path d="M5754 7609 c84 -77 134 -109 170 -109 31 1 31 1 -3 15 -18 8 -77 45
-130 81 -96 66 -96 66 -37 13z"/>
<path d="M4126 7516 c37 -52 206 -176 396 -290 312 -189 468 -307 668 -506
198 -198 341 -394 415 -568 45 -107 144 -411 151 -466 13 -95 -22 -126 -71
-62 -14 18 -64 123 -110 232 -47 108 -104 232 -126 273 -223 414 -674 815
-1116 992 -90 36 -131 39 -333 22 -149 -13 -237 -35 -358 -88 -44 -19 -86 -35
-94 -36 -7 0 4 -7 24 -14 46 -17 244 -42 403 -50 319 -17 523 -99 795 -319
274 -222 443 -439 629 -805 56 -111 139 -257 184 -324 91 -134 119 -205 156
-382 76 -373 78 -653 4 -609 -32 19 -52 76 -103 295 -71 304 -105 399 -252
704 -162 335 -241 477 -341 610 -187 250 -512 524 -717 603 -111 43 -172 54
-332 59 -189 6 -228 -1 -306 -61 -31 -24 -93 -59 -137 -77 -88 -36 -199 -108
-300 -194 -65 -54 -65 -55 -34 -55 17 0 144 36 282 81 138 44 287 89 332 100
117 28 254 35 343 15 119 -25 173 -56 281 -158 53 -51 153 -143 223 -205 149
-132 238 -240 330 -400 78 -134 122 -242 144 -351 11 -56 38 -123 99 -247 53
-107 106 -236 144 -347 33 -98 87 -238 121 -312 72 -158 94 -251 85 -351 -13
-142 -63 -312 -137 -460 -33 -65 -62 -103 -157 -200 -65 -66 -164 -173 -221
-238 -169 -194 -271 -268 -388 -281 -144 -16 -501 -130 -564 -181 -84 -67 -91
-70 -233 -70 -223 -2 -216 3 -85 -61 301 -146 372 -168 545 -168 182 0 310 39
422 131 72 58 342 395 486 606 85 125 137 187 155 187 25 0 32 -37 16 -91 -28
-93 -157 -330 -252 -464 -51 -70 -284 -355 -318 -387 -64 -59 -224 -108 -407
-124 -58 -4 -88 -12 -102 -25 -11 -10 -31 -22 -44 -27 -28 -10 -10 -12 319
-37 439 -33 572 -17 825 104 240 115 432 248 605 421 128 127 182 207 306 453
92 182 145 259 185 272 27 9 46 50 74 166 27 113 40 210 32 233 -10 25 -65 -1
-99 -48 -16 -22 -49 -81 -73 -131 -24 -49 -60 -117 -80 -150 -20 -33 -75 -132
-122 -220 -189 -355 -253 -440 -369 -495 -37 -17 -94 -58 -135 -95 -75 -69
-135 -105 -207 -124 -23 -7 -70 -32 -104 -56 -243 -172 -310 -208 -380 -203
-36 3 -44 7 -46 26 -3 19 19 46 112 134 64 61 132 133 152 159 35 48 143 279
210 451 18 47 45 142 58 210 14 68 46 182 71 253 92 257 115 328 155 493 25
99 57 202 80 252 62 136 74 193 73 365 0 93 -9 215 -23 320 -12 94 -25 269
-30 390 -7 196 -10 230 -34 310 -15 50 -36 119 -46 155 -11 36 -24 106 -28
157 -6 60 -17 107 -33 140 -31 64 -142 228 -225 333 -100 125 -372 391 -509
498 -114 88 -485 341 -550 375 -43 21 -162 44 -279 52 -98 7 -98 7 -80 -19z
m612 -4610 c5 -41 -66 -105 -159 -144 -149 -62 -364 -85 -418 -44 -14 10 -26
27 -26 37 0 15 19 22 120 41 147 28 230 52 360 103 55 22 105 39 110 37 6 -1
11 -15 13 -30z"/>
<path d="M5896 7404 c-20 -52 73 -151 268 -283 85 -59 163 -121 217 -177 46
-47 116 -111 154 -142 39 -31 90 -76 114 -101 45 -46 45 -46 16 -6 -57 79
-270 341 -310 380 -22 22 -116 94 -209 159 -92 66 -180 135 -195 153 -28 36
-46 41 -55 17z"/>
<path d="M3892 7332 c-83 -17 -83 -17 -26 -40 70 -28 215 -42 239 -22 37 31 0
65 -80 73 -29 3 -85 -1 -133 -11z"/>
<path d="M3525 6826 c-27 -13 -81 -42 -119 -65 -70 -41 -70 -41 -15 -35 86 9
242 53 263 74 16 16 17 22 6 34 -18 23 -77 19 -135 -8z"/>
<path d="M6406 6672 c-7 -12 25 -77 92 -189 80 -132 156 -284 176 -352 9 -30
16 -84 16 -121 0 -75 19 -113 53 -108 52 7 62 123 22 264 -49 173 -198 436
-277 492 -32 22 -72 29 -82 14z"/>
<path d="M3935 6453 c-276 -60 -348 -78 -465 -115 -141 -45 -177 -67 -296
-179 -46 -43 -91 -79 -101 -79 -15 0 -15 -1 -1 -12 9 -7 20 -29 23 -49 6 -31
1 -44 -39 -103 -25 -38 -46 -70 -46 -72 0 -2 21 11 48 30 26 20 67 65 92 103
41 62 53 72 135 115 102 53 298 122 413 144 138 26 230 20 374 -25 144 -45
177 -59 192 -83 23 -38 -4 -41 -180 -18 -193 25 -268 22 -422 -15 -187 -46
-344 -126 -448 -230 -67 -66 -164 -209 -238 -350 -54 -102 -60 -105 99 45 170
161 280 244 414 310 173 87 316 115 628 125 225 7 239 5 269 -40 24 -37 5 -56
-50 -49 -50 7 -276 -10 -426 -32 -107 -16 -247 -56 -343 -99 -132 -58 -308
-186 -419 -304 -77 -81 -135 -191 -191 -362 -19 -57 -38 -113 -42 -124 -12
-29 47 46 118 150 83 122 285 323 404 403 198 131 356 185 683 233 170 24 227
41 275 79 21 16 40 30 42 30 3 0 33 -7 67 -16 78 -20 203 -85 258 -134 38 -34
41 -39 28 -55 -17 -20 -79 -18 -229 9 -80 15 -109 16 -200 6 -497 -52 -737
-135 -985 -341 -148 -123 -273 -278 -324 -401 -36 -89 -65 -182 -95 -311 -23
-98 -23 -98 5 -70 15 16 65 95 111 176 191 342 357 515 612 642 204 101 383
139 660 139 217 0 291 -11 493 -75 148 -47 181 -43 182 19 0 31 -23 74 -81
150 -31 41 -51 81 -59 115 -7 28 -22 70 -33 92 -43 87 -317 329 -443 391 -28
13 -100 38 -161 54 -146 38 -185 55 -181 77 4 19 50 22 208 12 64 -4 65 -4 68
22 2 21 -4 32 -28 49 -78 55 -196 63 -375 23z"/>
<path d="M5910 6155 c-19 -23 -8 -65 65 -240 36 -88 78 -198 92 -245 23 -79
24 -94 18 -210 -9 -157 -8 -188 11 -385 24 -235 15 -443 -24 -596 -41 -161
-127 -420 -231 -698 -49 -130 -114 -315 -146 -411 -31 -96 -84 -242 -117 -323
-67 -169 -74 -220 -27 -225 65 -8 142 102 204 290 46 138 95 260 268 669 219
517 270 707 270 989 0 170 -9 248 -54 479 -17 85 -28 165 -24 178 8 33 38 29
72 -11 88 -100 163 -428 163 -715 0 -282 -54 -439 -420 -1216 -154 -327 -182
-397 -178 -439 8 -78 89 -15 179 140 38 66 322 611 473 909 96 189 150 327
154 395 5 81 -21 359 -48 511 -46 265 -100 392 -256 599 -60 80 -152 216 -203
303 -128 213 -206 295 -241 252z"/>
<path d="M6955 5870 c4 -151 6 -161 64 -385 33 -126 61 -221 61 -210 0 22 -33
216 -79 465 -17 91 -35 192 -40 225 -8 49 -9 30 -6 -95z"/>
<path d="M4130 5394 c-14 -2 -56 -9 -95 -15 -145 -24 -303 -87 -438 -176 -240
-159 -467 -526 -467 -755 0 -106 30 -188 89 -247 68 -67 288 -234 362 -275
114 -63 231 -92 296 -74 68 19 36 56 -110 129 -151 76 -224 127 -308 217 -108
114 -150 230 -130 360 38 248 203 463 446 583 133 66 230 90 385 96 392 16
714 -175 804 -476 37 -127 27 -302 -29 -494 -104 -358 -370 -624 -749 -748
-369 -121 -706 -46 -956 213 -93 96 -134 163 -155 248 -25 108 -44 165 -60
185 -14 19 -14 18 -4 -10 6 -16 24 -79 40 -140 55 -202 168 -393 317 -537 105
-102 153 -131 258 -159 108 -30 340 -32 464 -5 193 42 417 139 561 242 143
103 297 282 374 434 46 92 81 194 121 353 19 76 46 167 59 204 41 107 32 213
-32 371 -36 90 -83 169 -139 231 -75 83 -284 178 -489 223 -86 18 -354 33
-415 22z"/>
<path d="M7082 5220 c0 -14 2 -19 5 -12 2 6 2 18 0 25 -3 6 -5 1 -5 -13z"/>
<path d="M4000 5095 c-149 -32 -256 -89 -360 -194 -125 -126 -177 -252 -168
-407 6 -106 46 -185 138 -275 72 -71 200 -144 308 -175 84 -25 191 -15 267 23
162 83 268 286 235 450 -16 76 -51 144 -100 193 -188 188 -538 102 -567 -139
-11 -96 46 -185 137 -212 81 -25 160 25 160 101 0 63 -70 97 -101 49 -33 -49
-74 18 -46 75 34 73 161 88 235 29 51 -42 73 -83 79 -151 4 -49 0 -65 -24
-112 -50 -97 -143 -147 -255 -137 -118 11 -235 93 -285 203 -22 48 -25 66 -22
137 3 66 10 94 33 142 86 174 303 279 514 247 260 -40 437 -255 419 -509 -20
-283 -230 -511 -540 -587 -58 -15 -111 -35 -130 -49 -129 -97 -346 -40 -556
146 -51 45 -106 90 -123 101 -27 17 -31 17 -45 3 -15 -14 -15 -20 1 -61 80
-210 319 -369 577 -383 253 -14 561 104 758 291 214 204 316 517 251 770 -27
107 -63 169 -145 252 -76 77 -182 137 -300 169 -83 22 -263 28 -345 10z"/>
<path d="M5321 4504 c-12 -15 -22 -48 -26 -82 -38 -340 -125 -543 -332 -778
-179 -202 -373 -321 -694 -423 -272 -86 -515 -95 -724 -26 -54 18 -168 45
-172 41 -1 -1 50 -42 115 -91 127 -96 266 -170 340 -181 86 -13 203 13 506
113 330 108 410 142 506 213 130 97 382 375 468 517 147 244 185 598 77 707
-23 23 -40 20 -64 -10z"/>
<path d="M6759 4317 c-28 -22 -39 -55 -58 -179 -19 -123 -19 -123 10 -155 40
-46 50 -95 49 -246 0 -116 15 -302 19 -222 1 17 14 99 31 182 31 161 56 464
44 531 -15 84 -54 120 -95 89z"/>
<path d="M6588 3533 c-9 -10 -42 -83 -73 -163 -61 -153 -114 -265 -173 -365
-76 -129 -238 -332 -361 -454 -112 -111 -118 -119 -56 -71 101 79 266 241 350
345 108 133 179 244 250 390 92 188 120 282 93 318 -13 18 -14 18 -30 0z"/>
<path d="M4304 2455 c24 -18 39 -20 34 -2 -3 6 -15 13 -29 15 -23 2 -23 2 -5
-13z"/>
</g>
</svg>
