<?xml version="1.0" standalone="no"?>
<!DOCTYPE svg PUBLIC "-//W3C//DTD SVG 20010904//EN"
 "http://www.w3.org/TR/2001/REC-SVG-20010904/DTD/svg10.dtd">
<svg version="1.0" xmlns="http://www.w3.org/2000/svg"
 width="1000.000000pt" height="1000.000000pt" viewBox="0 0 1000.000000 1000.000000"
 preserveAspectRatio="xMidYMid meet">
<metadata>
  <rdf:RDF
    xmlns:rdf = "http://www.w3.org/1999/02/22-rdf-syntax-ns#"
    xmlns:rdfs = "http://www.w3.org/2000/01/rdf-schema#"
    xmlns:dc = "http://purl.org/dc/elements/1.1/"
    xmlns:cc = "http://creativecommons.org/ns#">
    <cc:license rdf:resource="http://creativecommons.org/publicdomain/zero/1.0/deed.en"/>
    <cc:permits rdf:resource="http://creativecommons.org/ns#Reproduction"/>
    <rdf:Description about="https://nft.mir.one/fingerprints"
      dc:title="TON Fingerprints"
      dc:description="This is a unique digital fingerprint created based on the algorithm for generating basic rings using a noise texture. Like human fingerprints, you can now use it for the Web3 and Metaverse era as digital biometric information."
      dc:publisher="https://nft.mir.one"
      dc:date="2022-02-22"
      dc:format="image/svg+xml"
      dc:language="en" >
      <dc:creator>
      <rdf:Bag>
        <rdf:li>EQBondcvD2_aOFADXSWJHs4ZazQDuEl9_wNvGGPxI8hGuOFU</rdf:li>
        <rdf:li>ipfs://bafkreihj7iub3fhmhq6jn62noukt5wxn3gv6bvcg7wmt6ywvlurefezckq</rdf:li>
      </rdf:Bag>
      </dc:creator>
    </rdf:Description>
  </rdf:RDF>
</metadata>
<rect width="100%" height="100%" fill="#1b1f23"/>
<g transform="translate(0.000000,1000.000000) scale(0.100000,-0.100000)"
fill="#ffffff" stroke="none">
<path d="M4418 7713 c7 -3 16 -2 19 1 4 3 -2 6 -13 5 -11 0 -14 -3 -6 -6z"/>
<path d="M4457 7713 c-7 -11 146 -47 273 -63 147 -19 417 -78 641 -139 119
-33 240 -62 270 -66 54 -7 107 5 120 27 10 16 0 38 -17 38 -8 0 -76 23 -151
50 -151 56 -315 102 -468 132 -79 16 -159 21 -381 25 -175 3 -284 2 -287 -4z"/>
<path d="M4328 7662 c-4 -12 -26 -28 -59 -41 -30 -12 -41 -19 -24 -16 52 10
84 26 91 47 3 11 4 22 1 24 -2 3 -7 -4 -9 -14z"/>
<path d="M5885 7551 c20 -23 229 -166 219 -149 -3 4 -40 31 -82 60 -42 28 -95
65 -117 82 -31 23 -36 25 -20 7z"/>
<path d="M4435 7505 c-38 -7 -170 -38 -292 -69 -122 -31 -235 -56 -250 -57
-15 0 4 -7 42 -15 58 -12 104 -12 267 -3 233 13 282 8 613 -57 401 -79 748
-180 955 -277 216 -100 470 -260 665 -416 185 -149 218 -168 271 -155 21 6 17
14 -68 117 -126 154 -299 325 -448 443 -235 186 -327 235 -517 274 -53 11
-209 49 -347 85 -271 69 -440 105 -607 129 -125 19 -189 19 -284 1z"/>
<path d="M6152 7309 c38 -86 82 -132 209 -218 94 -63 94 -63 14 10 -121 110
-163 156 -201 214 -49 78 -58 76 -22 -6z"/>
<path d="M4190 7253 c-161 -6 -359 -25 -439 -42 -84 -17 -84 -17 23 -29 112
-12 146 -23 146 -47 0 -8 -1 -15 -3 -15 -22 0 -249 -91 -332 -133 -110 -56
-110 -56 -57 -56 97 -1 295 53 417 114 104 52 117 56 235 70 126 15 297 20
338 9 13 -4 22 -14 22 -26 0 -30 -70 -54 -210 -73 -174 -23 -229 -37 -393 -99
-78 -30 -181 -67 -228 -81 -91 -27 -220 -98 -299 -164 -25 -20 -71 -59 -103
-85 -41 -32 -51 -45 -35 -41 75 17 127 33 353 108 138 46 286 102 330 124 118
60 195 80 450 120 287 44 396 46 576 9 296 -60 553 -186 697 -340 31 -34 80
-100 108 -146 29 -47 96 -143 149 -215 241 -320 302 -453 324 -700 12 -124 21
-151 116 -324 42 -77 87 -170 100 -208 84 -242 115 -704 67 -975 -65 -361
-258 -730 -504 -964 -247 -235 -537 -381 -931 -468 -152 -34 -591 -96 -669
-95 -112 1 -323 43 -452 89 -103 37 -88 25 59 -48 279 -138 408 -167 638 -142
51 5 146 14 212 20 220 20 545 98 735 177 262 108 573 355 734 581 120 169
231 387 306 597 109 309 131 553 89 980 -24 235 -21 303 12 336 22 22 61 25
77 6 15 -18 49 -146 72 -268 46 -254 53 -673 13 -814 -28 -101 -215 -560 -284
-700 -70 -140 -64 -143 10 -5 105 198 257 578 299 745 68 268 89 706 46 934
-7 41 -29 120 -48 175 -22 63 -42 155 -56 246 -11 80 -27 171 -35 202 -16 62
-68 172 -141 295 -73 124 -110 202 -144 308 -30 92 -36 102 -109 178 -91 96
-237 219 -316 267 -32 19 -111 55 -177 81 -65 26 -159 71 -208 99 -281 161
-558 255 -945 319 -146 25 -191 37 -252 66 -75 36 -187 58 -273 53 -19 -1 -69
-3 -110 -5z m1840 -716 c52 -31 244 -222 300 -297 26 -36 81 -121 122 -190 41
-69 111 -174 156 -235 45 -60 95 -137 112 -171 35 -71 40 -124 12 -124 -22 0
-59 40 -135 142 -45 61 -67 81 -111 103 -30 15 -59 32 -65 38 -5 7 -37 62 -71
122 -85 150 -160 256 -287 410 -59 72 -114 143 -120 158 -35 76 2 94 87 44z
m460 -905 c30 -55 78 -129 105 -163 102 -127 132 -209 84 -224 -37 -12 -66 4
-123 66 -86 96 -166 267 -166 356 0 41 17 76 33 70 7 -2 37 -49 67 -105z"/>
<path d="M4360 6790 c-144 -10 -279 -38 -320 -69 -29 -21 -38 -50 -18 -62 7
-5 90 -6 183 -3 148 6 184 4 275 -14 58 -12 146 -24 195 -27 130 -9 277 -33
375 -62 183 -52 330 -147 330 -213 0 -42 -17 -40 -187 20 -194 67 -333 94
-503 94 -134 1 -136 1 -221 -36 -101 -43 -189 -62 -394 -83 -82 -9 -184 -23
-225 -31 -149 -31 -380 -132 -551 -242 -103 -67 -178 -166 -312 -415 -37 -67
-37 -67 6 -40 23 15 67 50 97 78 188 174 478 364 670 439 99 39 174 55 305 67
66 6 189 24 273 40 330 62 450 61 777 -11 72 -16 168 -34 214 -39 47 -6 103
-20 125 -31 102 -49 278 -232 478 -498 55 -73 112 -141 126 -152 34 -28 70
-26 83 4 22 47 -46 213 -156 382 -72 111 -484 621 -534 662 -136 111 -333 191
-556 227 -116 19 -363 26 -535 15z"/>
<path d="M3770 6574 c-132 -35 -296 -91 -351 -121 -63 -34 -164 -127 -245
-225 -37 -46 -74 -91 -82 -101 -15 -16 -13 -17 24 -3 22 7 87 41 145 74 193
111 410 197 573 227 45 8 169 19 276 25 252 13 320 28 320 71 0 37 -54 49
-218 49 -103 0 -164 5 -198 15 -69 21 -134 18 -244 -11z"/>
<path d="M6704 6245 c-19 -49 5 -108 165 -404 70 -129 102 -178 125 -192 44
-27 52 -24 24 10 -14 16 -47 88 -74 161 -63 172 -193 434 -217 438 -9 2 -20
-4 -23 -13z"/>
<path d="M4482 6129 c-90 -11 -259 -53 -309 -76 -24 -12 -46 -33 -61 -61 -13
-23 -51 -66 -85 -95 -120 -101 -163 -151 -182 -207 -14 -43 -37 -73 -115 -155
-110 -114 -130 -147 -160 -266 -12 -46 -48 -165 -80 -264 -71 -215 -102 -334
-125 -474 -54 -320 51 -617 310 -876 155 -155 325 -255 531 -312 85 -23 118
-27 229 -27 109 1 146 5 229 28 218 59 429 164 544 270 72 68 98 112 106 181
3 27 16 65 29 85 42 63 57 113 44 141 -7 13 -22 25 -34 27 -12 2 -80 -24 -150
-57 -408 -190 -577 -239 -793 -228 -120 6 -183 23 -294 78 -176 88 -298 220
-403 438 -72 148 -87 171 -113 171 -74 0 -5 -265 113 -440 78 -115 231 -248
354 -309 126 -63 207 -83 354 -88 214 -8 360 29 618 156 103 51 154 71 182 71
51 0 52 -24 1 -66 -288 -239 -683 -346 -988 -269 -184 47 -335 134 -474 274
-225 226 -329 515 -250 693 11 26 27 96 35 157 32 247 108 459 221 617 57 81
102 115 237 181 89 43 127 69 182 123 87 84 146 122 319 205 108 52 141 72
156 98 11 17 18 37 17 42 -5 15 -101 7 -185 -16 -93 -25 -209 -83 -337 -170
-138 -94 -221 -120 -238 -75 -7 18 21 43 178 161 178 134 316 194 448 195 45
0 107 -24 125 -48 11 -15 34 -17 175 -18 179 -1 262 -12 380 -51 80 -27 153
-79 145 -104 -10 -31 -36 -33 -165 -16 -158 21 -319 22 -397 2 -32 -8 -117
-40 -189 -71 -260 -111 -347 -165 -347 -214 0 -24 5 -31 27 -36 29 -8 71 4
304 85 214 74 290 85 540 77 113 -4 235 -11 270 -17 180 -29 467 -268 395
-329 -19 -15 -64 -1 -196 65 -198 99 -366 138 -600 138 -110 0 -170 -6 -250
-22 -131 -27 -452 -135 -502 -168 -43 -29 -66 -73 -104 -198 -25 -82 -28 -104
-27 -250 0 -185 16 -264 83 -403 22 -46 40 -88 40 -93 0 -5 -9 -9 -20 -9 -35
0 -89 60 -130 144 -46 92 -65 176 -76 321 -4 57 -14 120 -25 147 -21 54 -16
80 40 200 34 73 38 97 19 116 -38 38 -130 -14 -206 -114 -120 -158 -178 -323
-170 -482 4 -80 8 -96 60 -209 77 -167 144 -267 236 -354 130 -124 260 -186
407 -196 63 -4 107 0 210 22 243 50 432 127 621 254 105 69 134 104 171 198
52 131 30 343 -52 517 -69 147 -250 238 -470 239 -313 2 -514 -174 -515 -448
0 -172 74 -311 197 -372 143 -69 322 -4 394 144 32 66 24 167 -16 225 -87 123
-281 121 -343 -4 -19 -37 -22 -54 -15 -75 13 -39 37 -51 61 -30 47 43 107 1
86 -61 -12 -36 -73 -66 -115 -57 -44 10 -107 70 -119 113 -38 137 32 276 169
341 48 22 70 26 151 26 88 0 101 -3 161 -32 79 -39 140 -102 177 -181 22 -48
27 -71 27 -147 0 -82 -3 -97 -32 -156 -62 -125 -213 -238 -365 -274 -125 -29
-173 -17 -311 83 -93 67 -111 95 -162 252 -66 200 -59 389 17 532 89 167 294
265 578 275 165 6 282 -15 462 -82 74 -28 161 -52 235 -64 209 -36 277 -67
351 -164 114 -150 172 -354 172 -610 0 -118 0 -118 34 -150 157 -148 -37 -659
-370 -977 -162 -154 -356 -270 -576 -344 -159 -53 -261 -70 -423 -69 -363 1
-610 48 -850 163 -196 94 -350 209 -574 429 -143 142 -143 142 -76 44 280
-404 634 -692 952 -772 194 -50 542 -43 823 15 469 98 842 336 1081 692 118
176 195 353 236 545 37 168 16 574 -42 812 -79 333 -217 537 -683 1009 -208
210 -250 244 -340 281 -172 70 -630 128 -820 104z m-549 -1224 c-1 -11 -7 -56
-13 -101 -26 -185 44 -400 171 -525 46 -46 87 -72 223 -139 91 -45 169 -87
173 -93 11 -18 -29 -37 -77 -37 -123 0 -317 109 -419 234 -62 77 -123 190
-151 281 -41 132 -26 306 32 380 24 31 64 31 61 0z"/>
<path d="M3898 6056 c-131 -46 -271 -134 -542 -340 -228 -173 -251 -197 -325
-346 -44 -90 -70 -158 -91 -244 -33 -129 -39 -180 -12 -101 27 79 90 182 155
251 53 58 97 90 346 253 30 20 110 85 179 146 229 202 256 224 360 287 58 34
107 69 110 77 8 21 -27 41 -72 41 -23 0 -71 -11 -108 -24z"/>
<path d="M3349 5313 c-39 -37 -41 -42 -49 -118 -9 -91 -22 -126 -119 -333 -85
-181 -96 -229 -88 -410 16 -404 185 -804 445 -1054 157 -150 349 -271 537
-338 152 -53 238 -70 420 -80 147 -8 178 -12 230 -34 71 -30 141 -33 253 -10
464 95 862 441 1042 906 55 143 90 355 60 373 -15 10 -66 -22 -99 -62 -16 -20
-56 -98 -87 -172 -80 -191 -137 -302 -206 -403 -186 -272 -501 -472 -857 -543
-71 -15 -85 -15 -97 -3 -12 12 -12 17 2 36 19 28 58 47 205 105 332 129 520
279 666 532 77 133 243 560 264 679 37 214 -67 476 -225 566 -84 49 -143 35
-138 -32 1 -16 20 -71 42 -121 59 -140 73 -211 67 -347 -4 -96 -12 -136 -45
-245 -21 -71 -42 -152 -46 -180 -11 -86 -28 -148 -61 -225 -102 -244 -260
-376 -620 -520 -217 -87 -263 -101 -361 -107 -451 -29 -972 324 -1167 790 -67
160 -82 241 -82 432 1 196 9 234 128 580 82 241 105 330 91 353 -21 32 -60 26
-105 -15z"/>
<path d="M3179 5233 c-61 -42 -103 -112 -143 -244 -20 -67 -32 -91 -53 -104
-31 -21 -53 -12 -65 26 -4 13 -4 6 0 -16 4 -22 6 -94 6 -160 -1 -120 -1 -120
12 -57 15 75 51 140 92 166 38 25 77 85 152 234 60 120 71 164 40 169 -8 2
-27 -5 -41 -14z"/>
<path d="M6570 3150 c-6 -11 -8 -20 -6 -20 3 0 10 9 16 20 6 11 8 20 6 20 -3
0 -10 -9 -16 -20z"/>
<path d="M6459 2983 c-13 -16 -12 -17 4 -4 9 7 17 15 17 17 0 8 -8 3 -21 -13z"/>
<path d="M6419 2933 c-13 -16 -12 -17 4 -4 9 7 17 15 17 17 0 8 -8 3 -21 -13z"/>
<path d="M6322 2832 c-73 -68 -343 -239 -510 -324 -106 -54 -142 -65 -377
-124 -271 -68 -543 -119 -705 -131 -90 -7 -92 -8 -45 -14 126 -18 358 -4 536
32 205 41 443 109 539 155 161 76 479 303 595 423 55 58 41 50 -33 -17z"/>
</g>
</svg>
