<?xml version="1.0" standalone="no"?>
<!DOCTYPE svg PUBLIC "-//W3C//DTD SVG 20010904//EN"
 "http://www.w3.org/TR/2001/REC-SVG-20010904/DTD/svg10.dtd">
<svg version="1.0" xmlns="http://www.w3.org/2000/svg"
 width="1000.000000pt" height="1000.000000pt" viewBox="0 0 1000.000000 1000.000000"
 preserveAspectRatio="xMidYMid meet">
<metadata>
  <rdf:RDF
    xmlns:rdf = "http://www.w3.org/1999/02/22-rdf-syntax-ns#"
    xmlns:rdfs = "http://www.w3.org/2000/01/rdf-schema#"
    xmlns:dc = "http://purl.org/dc/elements/1.1/"
    xmlns:cc = "http://creativecommons.org/ns#">
    <cc:license rdf:resource="http://creativecommons.org/publicdomain/zero/1.0/deed.en"/>
    <cc:permits rdf:resource="http://creativecommons.org/ns#Reproduction"/>
    <rdf:Description about="https://nft.mir.one/fingerprints"
      dc:title="TON Fingerprints"
      dc:description="This is a unique digital fingerprint created based on the algorithm for generating basic rings using a noise texture. Like human fingerprints, you can now use it for the Web3 and Metaverse era as digital biometric information."
      dc:publisher="https://nft.mir.one"
      dc:date="2022-02-22"
      dc:format="image/svg+xml"
      dc:language="en" >
      <dc:creator>
      <rdf:Bag>
        <rdf:li>EQBondcvD2_aOFADXSWJHs4ZazQDuEl9_wNvGGPxI8hGuOFU</rdf:li>
        <rdf:li>ipfs://bafkreihj7iub3fhmhq6jn62noukt5wxn3gv6bvcg7wmt6ywvlurefezckq</rdf:li>
      </rdf:Bag>
      </dc:creator>
    </rdf:Description>
  </rdf:RDF>
</metadata>
<rect width="100%" height="100%" fill="#1b1f23"/>
<g transform="translate(0.000000,1000.000000) scale(0.100000,-0.100000)"
fill="#ffffff" stroke="none">
<path d="M4865 7798 c11 -6 36 -25 55 -43 50 -47 206 -139 313 -185 142 -60
366 -91 641 -89 141 1 169 -10 -280 107 -149 39 -346 98 -437 131 -160 58
-270 91 -298 91 -8 0 -5 -5 6 -12z"/>
<path d="M4435 7594 c-22 -2 -96 -13 -165 -24 -69 -11 -136 -21 -150 -22 -43
-5 82 -43 240 -73 353 -67 610 -183 638 -288 16 -59 -20 -85 -71 -53 -42 27
-195 75 -449 140 -284 73 -309 76 -539 54 -126 -12 -126 -12 -89 -39 58 -43
110 -66 325 -149 255 -99 256 -99 405 -110 69 -5 166 -12 215 -16 81 -6 97 -4
165 20 75 26 75 26 149 -9 40 -19 121 -71 180 -114 172 -127 267 -191 472
-321 505 -320 849 -573 1077 -794 200 -193 216 -203 160 -99 -119 222 -211
351 -297 417 -114 87 -621 446 -786 556 -304 203 -414 295 -485 406 -34 54
-40 111 -13 121 9 3 44 -1 78 -10 60 -16 63 -16 101 4 36 19 49 20 149 13 61
-4 165 -7 231 -5 78 2 150 -3 200 -12 177 -34 180 -32 54 29 -134 64 -313 119
-447 136 -75 10 -119 9 -225 -2 -73 -8 -164 -14 -203 -15 -77 0 -89 5 -375
157 -69 37 -152 74 -185 83 -59 16 -278 27 -360 19z"/>
<path d="M3685 7146 c-70 -12 -70 -12 -30 -19 120 -22 198 -16 170 12 -17 17
-66 20 -140 7z"/>
<path d="M5574 7127 c-8 -21 17 -65 58 -103 49 -46 242 -187 414 -302 83 -55
218 -151 300 -213 222 -166 564 -393 564 -372 0 2 -33 45 -74 96 -73 90 -115
130 -324 312 -191 167 -217 186 -370 281 -84 53 -175 114 -203 137 -106 88
-136 107 -205 136 -91 39 -151 49 -160 28z"/>
<path d="M5988 7113 c-9 -2 -19 -11 -22 -18 -11 -30 47 -74 209 -158 239 -125
267 -145 316 -222 47 -75 124 -142 213 -187 61 -30 61 -30 -40 73 -108 111
-125 134 -119 165 2 10 4 22 4 26 1 4 11 10 24 14 21 7 21 8 -8 17 -16 5 -68
38 -115 72 -126 92 -168 119 -245 157 -96 48 -176 71 -217 61z"/>
<path d="M3875 7042 c-16 -2 -103 -21 -191 -43 -89 -21 -170 -39 -180 -39 -49
-2 76 -32 201 -50 131 -18 315 -63 364 -89 49 -26 18 -68 -78 -106 -34 -13
-76 -36 -94 -51 -44 -37 -105 -61 -222 -89 -165 -39 -290 -97 -439 -204 -78
-56 -79 -56 -46 -59 17 -2 111 17 209 42 97 24 226 54 286 66 61 12 205 53
320 90 241 78 228 75 370 95 152 21 189 19 306 -16 97 -30 115 -32 269 -34
188 -1 201 -5 430 -110 343 -157 550 -273 783 -437 370 -262 606 -490 807
-778 68 -97 127 -166 115 -135 -4 11 -25 72 -47 135 -21 63 -64 167 -95 230
-54 111 -61 120 -187 246 -262 261 -629 524 -1132 812 -412 236 -480 264 -733
307 -80 14 -180 34 -221 45 -41 11 -84 20 -96 20 -33 0 -56 -24 -63 -65 -10
-65 -25 -65 -152 0 -63 32 -142 77 -177 102 -113 80 -229 124 -307 115z"/>
<path d="M3505 6795 c-55 -13 -111 -24 -125 -25 -25 -2 -25 -2 0 -10 14 -4 52
-20 85 -36 57 -27 67 -29 185 -28 139 1 200 17 200 52 0 25 -16 38 -65 50 -89
24 -176 23 -280 -3z"/>
<path d="M3340 6605 c-75 -35 -75 -35 -17 -35 79 0 158 34 141 62 -10 16 -50
7 -124 -27z"/>
<path d="M4923 6433 c-31 -6 -39 -43 -18 -87 34 -72 124 -136 353 -250 113
-56 113 -56 191 -50 65 6 89 3 143 -15 220 -73 782 -486 1000 -735 161 -184
270 -372 361 -626 40 -112 97 -232 97 -205 0 52 -47 344 -70 435 -38 146 -79
228 -182 365 -175 233 -457 483 -806 713 -179 118 -271 166 -501 258 -113 45
-267 107 -341 137 -135 56 -185 69 -227 60z"/>
<path d="M4269 6399 c-36 -5 -155 -31 -264 -59 -174 -44 -211 -50 -301 -50
-113 0 -214 -16 -338 -55 -87 -26 -144 -64 -255 -167 -57 -53 -60 -58 -36 -58
14 0 126 33 248 74 267 90 341 107 362 85 37 -37 -34 -80 -295 -179 -91 -34
-179 -70 -195 -80 -28 -17 -92 -81 -197 -197 -37 -40 -37 -40 15 -28 29 7 79
25 112 40 33 15 151 65 261 110 217 90 300 129 381 181 188 120 395 173 708
181 206 5 235 13 235 57 0 33 -43 82 -94 108 -84 43 -201 56 -347 37z"/>
<path d="M4676 6074 c-27 -7 -95 -18 -150 -24 -332 -36 -458 -63 -646 -140
-315 -129 -733 -311 -757 -330 -31 -24 -100 -103 -134 -153 -12 -17 -34 -45
-48 -60 -26 -28 -26 -28 19 -21 25 4 79 24 120 44 114 57 398 181 555 243 386
151 637 207 928 207 292 -1 441 -58 829 -316 331 -220 420 -302 550 -506 25
-40 99 -147 163 -238 176 -249 264 -384 321 -497 112 -221 193 -550 194 -788
0 -44 5 -115 12 -158 12 -78 12 -78 44 65 69 306 71 475 10 673 -67 216 -108
287 -362 625 -125 168 -243 329 -261 359 -61 101 -33 144 44 70 56 -54 184
-210 288 -349 94 -126 134 -170 201 -220 41 -31 61 -57 97 -127 51 -100 113
-272 147 -413 13 -52 31 -113 41 -134 17 -39 17 -39 25 20 10 80 -3 413 -20
499 -28 150 -98 382 -141 470 -82 170 -225 350 -385 490 -292 253 -837 615
-926 615 -53 0 -32 -72 42 -140 27 -25 96 -79 154 -120 58 -40 179 -128 270
-195 91 -67 212 -153 270 -191 59 -39 142 -106 190 -154 208 -206 368 -488
307 -539 -18 -14 -32 2 -142 164 -107 159 -183 253 -266 329 -61 57 -145 106
-182 106 -30 0 -72 27 -164 103 -98 81 -182 146 -388 297 -77 57 -175 134
-218 172 -92 82 -156 123 -286 189 -175 88 -240 102 -345 73z"/>
<path d="M4320 5664 c-318 -38 -667 -151 -1066 -343 -186 -90 -204 -107 -295
-275 -56 -103 -56 -103 -15 -91 23 7 91 43 151 81 144 88 416 219 585 282 507
187 911 197 1285 33 98 -43 164 -73 430 -194 162 -75 320 -239 522 -542 293
-440 410 -788 430 -1277 5 -139 1 -237 -22 -478 -4 -45 -4 -45 21 15 80 192
135 374 149 495 9 73 -10 264 -40 416 -64 319 -178 556 -463 964 -258 369
-331 442 -625 619 -237 143 -438 233 -607 272 -83 20 -353 33 -440 23z"/>
<path d="M4285 5304 c-276 -21 -582 -115 -884 -270 -184 -94 -305 -175 -335
-222 -29 -48 -68 -145 -99 -249 -24 -82 -24 -82 6 -66 17 8 76 56 131 105 252
225 615 407 951 478 127 27 340 37 459 21 175 -24 346 -95 477 -199 77 -60
250 -247 338 -363 215 -285 351 -606 381 -900 19 -185 -30 -427 -135 -674 -91
-213 -191 -354 -373 -523 -69 -64 -160 -150 -201 -191 -75 -73 -76 -73 -31
-51 103 52 299 165 355 205 185 131 326 357 443 710 33 99 72 212 86 250 60
164 16 465 -110 761 -89 209 -198 381 -391 614 -70 86 -147 187 -170 226 -23
39 -60 87 -81 106 -103 93 -331 189 -516 217 -77 12 -235 20 -301 15z"/>
<path d="M5275 5040 c-9 -28 12 -58 133 -190 176 -193 306 -379 410 -586 125
-250 183 -461 217 -784 4 -36 19 -101 33 -145 54 -163 24 -404 -78 -636 -23
-52 -53 -120 -66 -153 -14 -32 -32 -70 -41 -85 -50 -80 133 147 195 242 57 88
117 217 137 292 41 160 -7 639 -95 932 -97 328 -337 735 -576 977 -131 133
-251 193 -269 136z"/>
<path d="M4220 4949 c-220 -25 -502 -125 -715 -254 -160 -97 -342 -249 -374
-314 -27 -53 -49 -153 -61 -271 -6 -58 -13 -116 -16 -130 -6 -25 -6 -25 28 5
18 17 34 33 36 36 25 51 122 179 190 251 169 177 340 288 616 398 204 81 267
95 436 95 166 0 246 -18 373 -81 338 -171 529 -453 660 -981 43 -172 52 -255
37 -363 -31 -234 -128 -446 -297 -650 -172 -206 -342 -316 -449 -289 -36 9
-53 8 -111 -11 -37 -13 -85 -31 -105 -42 -21 -10 -55 -22 -75 -27 -70 -17 333
-13 412 4 113 24 218 82 319 177 349 326 520 805 437 1225 -40 204 -140 453
-255 631 -65 102 -156 210 -255 304 -185 176 -360 261 -596 288 -101 11 -128
11 -235 -1z"/>
<path d="M4247 4620 c-43 -11 -96 -37 -164 -80 -26 -17 -94 -48 -152 -71 -126
-49 -244 -111 -332 -175 -137 -100 -313 -308 -339 -402 -19 -68 -12 -236 17
-400 27 -154 27 -154 45 -101 10 30 25 88 34 129 73 344 341 635 642 698 73
15 87 15 198 -1 259 -36 397 -91 593 -235 200 -147 245 -238 216 -432 -33
-221 -116 -408 -236 -530 -42 -43 -46 -45 -94 -42 -39 3 -69 -4 -130 -28 -123
-49 -218 -70 -314 -70 -219 1 -395 99 -478 266 -32 65 -36 84 -36 147 0 81 23
140 69 176 28 22 78 28 89 11 4 -6 23 -19 43 -29 20 -11 80 -53 132 -95 115
-93 176 -119 280 -120 91 -1 149 24 209 89 91 99 76 246 -33 310 -49 29 -112
33 -156 10 -36 -18 -52 -47 -52 -90 0 -43 16 -72 52 -90 28 -15 60 -11 60 6 0
5 9 9 20 9 46 0 37 -70 -13 -101 -50 -31 -125 -21 -196 28 -59 41 -133 139
-150 198 -20 73 29 153 123 203 45 24 62 27 151 27 91 0 106 -3 166 -31 86
-41 142 -92 176 -162 24 -50 28 -69 28 -148 0 -84 -3 -96 -35 -159 -41 -81
-108 -141 -197 -176 -49 -20 -76 -24 -173 -24 -105 0 -120 2 -173 27 -79 37
-128 77 -193 159 -59 74 -84 85 -103 43 -28 -62 29 -191 115 -262 92 -77 234
-119 364 -107 82 7 260 61 325 100 192 112 290 440 190 634 -73 144 -257 264
-464 306 -107 22 -248 16 -342 -14 -168 -53 -353 -229 -444 -422 -48 -102 -69
-190 -61 -257 21 -174 170 -398 344 -513 120 -79 167 -93 307 -93 81 0 141 6
185 17 91 24 213 86 289 147 73 59 92 57 72 -9 -17 -59 -123 -151 -236 -207
-107 -53 -205 -74 -343 -74 -64 0 -119 -6 -162 -18 -65 -19 -65 -19 -5 -25 33
-4 96 -16 140 -27 186 -46 317 -50 393 -11 39 20 180 140 244 207 47 50 134
172 199 281 67 110 112 218 148 352 34 127 55 171 80 171 37 0 41 -75 12 -215
-48 -235 -170 -443 -392 -670 -126 -129 -155 -169 -139 -195 22 -35 203 81
313 199 219 237 347 506 349 737 1 87 -1 96 -40 180 -38 84 -79 213 -144 458
-41 156 -74 213 -193 331 -171 170 -349 254 -555 261 -58 2 -122 -1 -143 -6z
m266 -174 c149 -44 266 -114 378 -225 88 -88 132 -176 98 -196 -13 -9 -72 30
-180 118 -137 110 -286 177 -496 222 -100 22 -146 46 -141 77 4 31 37 38 153
33 69 -2 127 -11 188 -29z"/>
<path d="M6901 3814 c0 -11 3 -14 6 -6 3 7 2 16 -1 19 -3 4 -6 -2 -5 -13z"/>
<path d="M5926 3268 c-8 -13 -35 -93 -60 -178 -51 -178 -69 -227 -127 -342
-78 -155 -182 -291 -339 -442 -88 -84 -90 -88 -44 -62 147 85 255 166 354 266
116 117 157 179 206 308 68 183 104 396 75 450 -15 28 -47 28 -65 0z"/>
</g>
</svg>
