<?xml version="1.0" standalone="no"?>
<!DOCTYPE svg PUBLIC "-//W3C//DTD SVG 20010904//EN"
 "http://www.w3.org/TR/2001/REC-SVG-20010904/DTD/svg10.dtd">
<svg version="1.0" xmlns="http://www.w3.org/2000/svg"
 width="1000.000000pt" height="1000.000000pt" viewBox="0 0 1000.000000 1000.000000"
 preserveAspectRatio="xMidYMid meet">
<metadata>
  <rdf:RDF
    xmlns:rdf = "http://www.w3.org/1999/02/22-rdf-syntax-ns#"
    xmlns:rdfs = "http://www.w3.org/2000/01/rdf-schema#"
    xmlns:dc = "http://purl.org/dc/elements/1.1/"
    xmlns:cc = "http://creativecommons.org/ns#">
    <cc:license rdf:resource="http://creativecommons.org/publicdomain/zero/1.0/deed.en"/>
    <cc:permits rdf:resource="http://creativecommons.org/ns#Reproduction"/>
    <rdf:Description about="https://nft.mir.one/fingerprints"
      dc:title="TON Fingerprints"
      dc:description="This is a unique digital fingerprint created based on the algorithm for generating basic rings using a noise texture. Like human fingerprints, you can now use it for the Web3 and Metaverse era as digital biometric information."
      dc:publisher="https://nft.mir.one"
      dc:date="2022-02-22"
      dc:format="image/svg+xml"
      dc:language="en" >
      <dc:creator>
      <rdf:Bag>
        <rdf:li>EQBondcvD2_aOFADXSWJHs4ZazQDuEl9_wNvGGPxI8hGuOFU</rdf:li>
        <rdf:li>ipfs://bafkreihj7iub3fhmhq6jn62noukt5wxn3gv6bvcg7wmt6ywvlurefezckq</rdf:li>
      </rdf:Bag>
      </dc:creator>
    </rdf:Description>
  </rdf:RDF>
</metadata>
<rect width="100%" height="100%" fill="#1b1f23"/>
<g transform="translate(0.000000,1000.000000) scale(0.100000,-0.100000)"
fill="#ffffff" stroke="none">
<path d="M4690 7714 c-203 -19 -382 -41 -340 -43 19 -1 63 -8 96 -16 34 -8
134 -17 221 -21 133 -6 172 -4 239 11 140 31 265 16 549 -70 72 -21 102 -25
150 -21 60 6 60 6 125 -44 198 -151 188 -145 259 -142 56 2 74 -2 127 -28 34
-16 95 -60 135 -97 41 -37 56 -48 34 -24 -66 70 -154 135 -265 196 -125 68
-282 175 -329 224 -19 20 -31 30 -27 23 4 -7 5 -24 2 -37 -6 -22 -11 -24 -54
-21 -26 1 -110 24 -188 49 -78 26 -183 53 -235 62 -113 18 -299 18 -499 -1z"/>
<path d="M4956 7544 c-20 -20 -20 -27 2 -47 27 -24 83 -42 344 -107 303 -76
353 -77 320 -5 -15 33 -67 58 -209 99 -243 72 -422 96 -457 60z"/>
<path d="M4385 7470 c-140 -15 -280 -50 -445 -109 -47 -17 -98 -31 -115 -31
-30 -1 -30 -1 0 -17 17 -8 37 -21 45 -28 11 -10 100 -14 355 -19 445 -7 715
-21 792 -40 193 -48 587 -158 634 -176 30 -12 106 -50 169 -85 63 -35 133 -68
155 -75 101 -30 138 15 68 81 -70 67 -257 220 -303 247 -42 25 -53 27 -170 28
-115 1 -140 5 -310 48 -172 45 -234 64 -415 129 -108 39 -327 62 -460 47z"/>
<path d="M5936 7284 c-11 -29 31 -97 115 -191 46 -50 96 -110 112 -132 36 -55
72 -75 181 -102 50 -12 109 -30 131 -39 22 -9 63 -20 90 -24 50 -7 50 -7 18
13 -18 11 -65 51 -105 89 -47 45 -97 81 -139 101 -46 22 -96 59 -165 124 -184
171 -224 198 -238 161z"/>
<path d="M6340 7143 c13 -18 25 -33 27 -33 8 0 -17 38 -33 51 -11 9 -9 2 6
-18z"/>
<path d="M4816 7128 c-24 -18 -18 -46 15 -70 14 -11 138 -59 275 -107 291
-102 412 -153 549 -228 149 -82 224 -133 316 -214 69 -61 89 -73 121 -75 78
-4 130 -56 296 -291 111 -158 189 -302 221 -408 12 -38 29 -133 37 -210 23
-228 48 -325 87 -349 15 -9 23 -6 42 17 35 39 45 88 45 213 0 304 -117 617
-332 889 -43 54 -266 302 -312 348 -34 32 -84 59 -206 110 -47 19 -158 71
-248 115 -165 81 -338 144 -615 223 -162 46 -262 59 -291 37z"/>
<path d="M4135 7079 c-111 -15 -229 -46 -300 -78 -36 -16 -65 -32 -65 -35 0
-2 4 -16 9 -29 28 -72 -57 -176 -221 -274 -167 -99 -289 -195 -359 -284 -29
-37 -29 -37 44 2 140 76 196 99 260 105 82 9 143 42 314 171 76 57 174 122
218 143 178 85 396 99 612 39 264 -73 729 -276 913 -398 176 -116 330 -278
330 -347 0 -21 -5 -34 -13 -34 -7 0 -56 34 -108 75 -207 165 -385 274 -642
392 -259 119 -523 193 -686 193 -272 0 -527 -130 -826 -420 -82 -80 -208 -190
-278 -244 -71 -54 -142 -117 -158 -139 -30 -41 -46 -83 -36 -94 3 -3 46 11 94
31 98 41 174 93 418 285 504 398 739 474 1123 366 107 -31 525 -236 732 -361
225 -135 261 -148 356 -130 38 7 45 4 78 -24 57 -50 75 -82 97 -172 28 -113
63 -182 181 -361 206 -309 254 -450 246 -709 -6 -173 -28 -264 -100 -423 -151
-334 -169 -385 -137 -406 20 -13 64 -3 100 23 72 53 184 244 252 428 68 183
113 452 105 620 -4 93 -4 91 -77 184 -22 27 -56 88 -77 135 -47 107 -73 147
-101 160 -46 21 -114 95 -183 201 -89 137 -105 173 -85 190 41 34 117 -38 218
-207 71 -117 99 -141 124 -107 48 65 -34 256 -197 459 -45 55 -93 132 -130
206 -60 118 -110 189 -135 189 -22 0 -28 -37 -20 -124 5 -68 4 -85 -9 -95 -24
-20 -39 -2 -96 108 -58 113 -130 189 -260 276 -102 68 -297 164 -475 233 -71
27 -178 69 -236 91 -58 23 -132 57 -165 77 -170 105 -202 114 -419 119 -88 2
-191 0 -230 -6z"/>
<path d="M3545 6990 c-15 -6 -6 -9 33 -9 28 -1 52 4 52 9 0 12 -57 12 -85 0z"/>
<path d="M3648 6944 c-18 -20 -95 -84 -171 -142 -75 -58 -136 -107 -134 -108
6 -6 95 25 148 51 87 44 164 101 200 147 19 24 41 49 49 55 13 11 13 14 0 23
-29 19 -59 10 -92 -26z"/>
<path d="M6340 6690 c-16 -31 -1 -51 155 -205 97 -95 159 -167 197 -225 118
-181 203 -385 250 -597 17 -77 22 -132 22 -258 1 -160 1 -160 -51 -370 -29
-115 -68 -282 -89 -370 -86 -379 -203 -636 -356 -787 -43 -43 -84 -70 -160
-106 -120 -57 -146 -83 -263 -252 -104 -152 -219 -302 -325 -425 -48 -55 -117
-141 -154 -192 -78 -107 -140 -166 -251 -238 -254 -166 -506 -234 -880 -236
-82 -1 -175 -4 -205 -7 -55 -7 -55 -7 42 -30 227 -52 331 -64 523 -59 219 6
319 28 489 110 238 116 486 336 898 797 85 96 213 238 284 315 167 183 235
276 299 410 97 201 158 424 226 820 39 227 41 252 42 450 1 238 -13 355 -68
571 -105 411 -322 791 -505 884 -52 27 -106 26 -120 0z"/>
<path d="M3435 6387 c-78 -42 -196 -160 -313 -315 -92 -121 -93 -122 -50 -95
24 16 131 98 239 184 192 155 240 206 226 243 -9 24 -35 19 -102 -17z"/>
<path d="M4347 6405 c-75 -19 -107 -36 -193 -101 -40 -30 -118 -80 -175 -111
-126 -68 -358 -224 -495 -333 -79 -63 -108 -93 -138 -144 -21 -35 -65 -95 -97
-133 -98 -112 -152 -200 -186 -303 -66 -201 -76 -357 -43 -630 34 -274 84
-456 179 -656 65 -135 117 -210 226 -323 275 -286 602 -444 952 -458 145 -6
179 1 213 45 18 22 24 24 62 17 117 -22 283 16 428 97 140 79 224 190 178 236
-20 20 -38 14 -188 -61 -80 -40 -194 -90 -255 -111 -60 -20 -134 -51 -164 -68
-55 -30 -55 -30 -160 -13 -215 34 -321 56 -397 81 -324 105 -586 328 -794 674
-95 158 -144 315 -156 503 -5 63 -14 110 -31 151 -34 82 -38 138 -18 237 43
212 187 451 405 669 148 149 383 297 554 349 65 20 91 21 505 21 405 0 443 -1
514 -20 143 -37 359 -146 503 -253 250 -186 472 -550 549 -897 11 -50 19 -145
22 -281 5 -188 4 -207 -12 -212 -23 -10 -70 40 -84 89 -6 21 -25 118 -41 215
-46 271 -98 427 -206 610 -178 305 -478 533 -799 607 -95 23 -731 25 -840 3
-228 -45 -449 -174 -646 -378 -118 -123 -198 -236 -263 -374 -75 -158 -109
-327 -72 -358 27 -23 61 23 121 164 139 328 336 549 615 689 194 98 291 116
645 123 316 5 398 -4 547 -66 183 -77 378 -242 500 -426 124 -185 171 -317
214 -597 31 -205 124 -589 158 -656 25 -49 64 -79 90 -69 30 12 45 55 61 177
24 192 22 186 76 236 54 52 75 96 95 202 27 139 14 318 -33 467 -37 118 -97
239 -213 430 -132 218 -176 281 -243 341 -73 67 -444 277 -651 369 -106 47
-184 88 -215 114 -58 49 -126 84 -206 106 -84 24 -321 29 -398 10z m439 -149
c40 -9 80 -24 90 -32 18 -14 18 -15 -5 -34 -23 -20 -35 -20 -316 -18 -298 3
-325 7 -325 43 0 15 60 42 120 55 74 15 355 6 436 -14z"/>
<path d="M3116 5760 c-42 -51 -92 -147 -141 -274 -25 -65 -44 -120 -42 -122 2
-2 43 51 91 116 62 84 114 142 172 191 77 64 97 91 77 102 -5 2 -36 7 -69 11
-60 7 -62 6 -88 -24z"/>
<path d="M4735 5638 c-27 -5 -106 -6 -175 -3 -478 22 -847 -168 -1080 -555
-63 -105 -175 -360 -190 -434 -20 -98 2 -242 52 -341 37 -72 228 -343 292
-411 196 -216 460 -346 753 -374 172 -16 307 11 577 117 79 31 172 60 215 67
87 14 104 22 145 65 35 37 76 41 104 10 52 -55 37 -206 -31 -322 -91 -154
-387 -304 -647 -327 -59 -5 -145 -19 -191 -30 -255 -66 -597 12 -901 203 -152
96 -243 178 -482 437 -76 81 -78 83 -50 35 178 -314 357 -531 549 -667 106
-76 271 -142 448 -180 83 -18 134 -22 272 -21 265 0 465 42 775 161 58 22 140
50 183 61 96 26 136 51 208 128 70 76 121 153 169 256 85 184 84 234 -10 697
-72 354 -72 354 -65 480 6 100 4 138 -9 189 -86 337 -391 666 -696 750 -79 22
-133 24 -215 9z m189 -132 c195 -86 402 -306 530 -562 72 -144 95 -237 62
-250 -31 -12 -76 27 -133 117 -113 176 -296 435 -341 482 -26 27 -97 82 -158
123 -108 71 -131 94 -118 116 10 16 94 2 158 -26z m-332 -64 c74 -27 281 -158
341 -217 34 -35 47 -55 47 -76 0 -40 -20 -38 -105 12 -260 153 -408 195 -595
169 -262 -36 -477 -168 -605 -374 -98 -158 -136 -293 -140 -494 -3 -156 -11
-174 -55 -125 -62 69 -67 257 -11 423 125 371 396 620 757 695 98 21 291 14
366 -13z m-43 -288 c35 -8 132 -43 215 -78 83 -35 169 -70 191 -76 117 -37
374 -397 425 -595 42 -164 17 -353 -55 -412 -19 -16 -51 -35 -72 -42 -21 -8
-126 -51 -233 -96 -290 -123 -409 -155 -575 -155 -161 0 -324 45 -464 127
-116 69 -245 204 -305 321 -29 57 -33 113 -20 285 18 239 59 372 156 503 86
115 172 167 338 204 184 41 263 44 399 14z"/>
<path d="M4292 5022 c-29 -11 -64 -30 -78 -42 -42 -41 -154 -215 -175 -275
-71 -202 3 -400 184 -491 89 -46 234 -43 293 5 34 27 46 58 34 81 -13 23 -28
27 -137 33 -65 4 -92 11 -134 34 -167 89 -184 304 -36 440 138 127 365 76 509
-115 148 -195 102 -438 -110 -584 -176 -121 -442 -90 -602 71 -69 68 -106 142
-128 252 -14 75 -15 90 0 174 18 110 58 197 133 293 72 92 73 132 4 117 -17
-4 -59 -33 -95 -68 -117 -109 -184 -288 -184 -491 0 -184 41 -287 160 -406 83
-84 167 -133 290 -172 99 -31 299 -32 400 -3 225 65 405 188 476 327 23 43 28
70 32 145 4 80 1 105 -21 175 -71 227 -250 399 -502 484 -108 36 -238 43 -313
16z"/>
<path d="M4322 4733 c-70 -34 -100 -121 -63 -180 30 -47 92 -75 171 -77 48 -1
73 4 93 17 60 39 59 123 -2 190 -59 66 -131 84 -199 50z m65 -114 c13 -13 6
-39 -11 -39 -21 0 -49 26 -42 38 9 15 39 15 53 1z"/>
<path d="M6844 3703 c-9 -16 -43 -55 -74 -88 -31 -33 -74 -82 -95 -110 -126
-161 -530 -591 -699 -745 -148 -133 -266 -225 -448 -345 -73 -49 -160 -112
-193 -139 -33 -28 -71 -59 -85 -69 -14 -10 88 39 226 108 374 187 519 290 769
546 244 250 410 476 589 802 38 67 44 91 10 40z"/>
<path d="M5315 2991 c-27 -10 -73 -30 -101 -44 -248 -126 -508 -187 -800 -187
-296 0 -468 45 -831 215 -29 14 -53 23 -53 22 0 -7 165 -133 246 -190 104 -72
282 -158 404 -194 90 -27 105 -28 290 -28 281 1 461 41 683 151 201 100 319
225 248 264 -25 13 -26 13 -86 -9z"/>
</g>
</svg>
