<?xml version="1.0" standalone="no"?>
<!DOCTYPE svg PUBLIC "-//W3C//DTD SVG 20010904//EN"
 "http://www.w3.org/TR/2001/REC-SVG-20010904/DTD/svg10.dtd">
<svg version="1.0" xmlns="http://www.w3.org/2000/svg"
 width="1000.000000pt" height="1000.000000pt" viewBox="0 0 1000.000000 1000.000000"
 preserveAspectRatio="xMidYMid meet">
<metadata>
  <rdf:RDF
    xmlns:rdf = "http://www.w3.org/1999/02/22-rdf-syntax-ns#"
    xmlns:rdfs = "http://www.w3.org/2000/01/rdf-schema#"
    xmlns:dc = "http://purl.org/dc/elements/1.1/"
    xmlns:cc = "http://creativecommons.org/ns#">
    <cc:license rdf:resource="http://creativecommons.org/publicdomain/zero/1.0/deed.en"/>
    <cc:permits rdf:resource="http://creativecommons.org/ns#Reproduction"/>
    <rdf:Description about="https://nft.mir.one/fingerprints"
      dc:title="TON Fingerprints"
      dc:description="This is a unique digital fingerprint created based on the algorithm for generating basic rings using a noise texture. Like human fingerprints, you can now use it for the Web3 and Metaverse era as digital biometric information."
      dc:publisher="https://nft.mir.one"
      dc:date="2022-02-22"
      dc:format="image/svg+xml"
      dc:language="en" >
      <dc:creator>
      <rdf:Bag>
        <rdf:li>EQBondcvD2_aOFADXSWJHs4ZazQDuEl9_wNvGGPxI8hGuOFU</rdf:li>
        <rdf:li>ipfs://bafkreihj7iub3fhmhq6jn62noukt5wxn3gv6bvcg7wmt6ywvlurefezckq</rdf:li>
      </rdf:Bag>
      </dc:creator>
    </rdf:Description>
  </rdf:RDF>
</metadata>
<rect width="100%" height="100%" fill="#1b1f23"/>
<g transform="translate(0.000000,1000.000000) scale(0.100000,-0.100000)"
fill="#ffffff" stroke="none">
<path d="M4910 7793 c-113 -18 -504 -96 -540 -107 -45 -15 -45 -15 7 -9 29 3
88 0 132 -7 96 -15 155 -4 246 45 77 42 148 65 233 75 67 7 67 7 7 7 -33 0
-71 -2 -85 -4z"/>
<path d="M5268 7793 c7 -3 16 -2 19 1 4 3 -2 6 -13 5 -11 0 -14 -3 -6 -6z"/>
<path d="M4990 7660 c-47 -8 -181 -72 -199 -94 -18 -21 3 -62 46 -90 76 -50
171 -74 570 -141 320 -54 402 -81 524 -173 35 -27 114 -81 174 -122 237 -157
360 -273 472 -439 31 -46 112 -195 179 -330 107 -216 259 -492 239 -436 -24
71 -112 292 -164 413 -209 487 -359 683 -708 925 -62 42 -118 87 -124 99 -20
37 12 50 109 46 45 -2 82 -2 82 -1 0 9 -136 43 -174 43 -30 0 -97 15 -160 35
-129 41 -245 60 -453 75 -199 14 -406 45 -452 67 -20 10 -38 27 -40 37 -3 19
3 19 180 10 287 -14 515 -10 568 10 24 9 55 16 69 16 20 0 23 3 15 11 -8 8
-69 13 -170 15 -87 1 -196 7 -243 13 -129 15 -290 21 -340 11z"/>
<path d="M4282 7384 c-258 -69 -553 -293 -845 -641 -72 -86 -76 -93 -52 -93
39 0 70 19 211 131 165 130 268 198 398 260 151 72 271 101 421 102 151 0 219
-17 345 -88 107 -61 139 -74 364 -151 439 -151 597 -242 887 -509 83 -77 163
-148 178 -157 51 -35 100 -13 87 38 -28 111 -286 366 -511 504 -162 100 -327
168 -680 280 -179 56 -239 85 -243 117 -7 46 54 40 340 -37 238 -64 368 -109
503 -175 266 -130 530 -351 645 -541 19 -31 50 -104 70 -163 25 -72 67 -160
134 -276 135 -236 251 -474 280 -578 30 -104 46 -253 46 -428 0 -343 -60 -581
-211 -835 -111 -185 -222 -304 -284 -304 -36 0 -36 24 -3 77 121 190 242 440
288 591 41 141 50 214 60 514 10 286 10 298 -9 354 -27 76 -278 494 -356 591
-40 51 -82 90 -119 113 -124 77 -220 150 -331 255 -65 61 -152 136 -193 167
-88 66 -263 159 -407 216 -161 63 -644 219 -721 233 -113 19 -309 7 -419 -25
-164 -49 -346 -147 -510 -276 -33 -26 -99 -72 -146 -103 -144 -93 -250 -233
-412 -544 -92 -178 -92 -178 -47 -148 25 17 104 90 175 164 143 147 235 221
375 301 50 30 93 58 95 64 2 6 6 28 10 50 19 111 300 270 565 317 103 18 305
16 415 -5 306 -58 676 -187 875 -305 96 -57 182 -139 216 -207 25 -49 48 -71
179 -174 228 -179 338 -306 423 -489 31 -66 36 -90 42 -186 8 -112 10 -119 87
-312 25 -62 27 -80 27 -208 1 -156 -7 -196 -73 -368 -198 -516 -184 -473 -190
-587 -4 -59 -12 -116 -20 -130 -50 -89 -265 -335 -401 -456 -109 -98 -242
-203 -441 -346 -281 -203 -359 -244 -518 -274 -106 -20 -367 -14 -480 11 -208
46 -444 135 -666 249 -77 40 -171 87 -210 104 -70 32 -70 32 -35 1 310 -274
650 -466 969 -547 97 -25 122 -27 301 -27 157 0 207 4 259 18 105 30 180 73
241 140 101 112 147 155 241 224 52 39 155 115 229 170 169 124 308 244 525
454 94 90 206 194 250 231 199 167 345 385 409 613 56 197 82 442 72 685 -16
416 -74 614 -324 1109 -91 179 -188 359 -215 400 -101 150 -262 298 -482 444
-149 98 -228 138 -360 183 -116 39 -491 124 -700 159 -77 13 -184 35 -239 49
-80 21 -120 26 -215 25 -67 0 -138 -6 -169 -15z m2274 -1991 c43 -44 78 -189
47 -200 -28 -10 -85 95 -100 185 -5 27 -3 32 15 32 11 0 28 -8 38 -17z"/>
<path d="M4322 6609 c-107 -15 -244 -51 -363 -98 -110 -43 -239 -117 -239
-138 0 -23 44 -43 97 -43 28 0 133 20 233 45 241 59 318 68 529 62 285 -8 470
-52 834 -198 202 -81 271 -96 283 -64 27 70 -293 242 -650 350 -245 74 -544
108 -724 84z"/>
<path d="M4404 6300 c-170 -17 -609 -121 -728 -174 -170 -75 -398 -292 -483
-459 -22 -44 -24 -57 -17 -101 12 -79 7 -164 -15 -251 -67 -264 -73 -312 -78
-628 -5 -279 -4 -303 16 -390 74 -319 282 -592 628 -823 189 -126 472 -247
676 -288 267 -55 521 -14 745 119 134 79 235 157 347 270 158 158 252 312 311
510 25 80 28 107 28 240 1 181 -9 217 -116 405 -111 196 -184 298 -282 396
-192 190 -414 284 -673 284 -278 0 -511 -123 -600 -317 -23 -50 -27 -70 -25
-142 1 -46 -5 -125 -13 -175 -26 -162 -13 -327 40 -511 41 -139 67 -180 137
-216 77 -40 168 -35 353 17 153 44 248 96 341 188 102 103 119 137 119 241 0
67 -4 89 -28 137 -37 76 -104 143 -175 176 -75 35 -193 37 -263 6 -94 -43
-159 -128 -159 -210 0 -88 113 -204 198 -204 36 0 93 37 110 72 15 33 6 75
-18 88 -20 11 -50 4 -50 -11 0 -13 -34 -11 -48 3 -20 20 -14 67 12 93 48 48
123 45 183 -8 91 -80 83 -211 -19 -302 -57 -52 -120 -77 -203 -83 -82 -5 -125
8 -125 38 0 86 -114 196 -135 130 -8 -25 21 -87 52 -108 68 -48 70 -50 49 -67
-49 -38 -133 -2 -176 75 -23 41 -25 55 -24 150 3 232 76 353 267 445 303 147
641 -40 713 -395 11 -57 15 -107 11 -154 -4 -49 -1 -83 8 -111 40 -112 1 -230
-115 -346 -86 -86 -163 -123 -296 -144 -123 -19 -191 -41 -204 -65 -17 -33 14
-44 129 -48 100 -4 131 -12 131 -34 0 -5 -15 -15 -32 -22 -88 -36 -196 -26
-258 23 -19 15 -60 39 -90 53 -31 14 -77 41 -102 61 -27 20 -83 47 -130 62
-159 53 -394 147 -475 190 -200 106 -282 197 -442 490 -116 212 -125 239 -124
410 0 188 52 462 120 632 55 139 186 294 323 384 200 132 510 222 806 236 279
13 548 -41 892 -178 156 -62 207 -88 308 -155 314 -207 514 -614 514 -1046 0
-153 -8 -186 -43 -172 -36 14 -57 78 -67 211 -26 318 -140 575 -344 778 -172
171 -434 303 -751 381 -471 114 -990 12 -1285 -253 -154 -138 -266 -369 -304
-625 -35 -233 -8 -395 105 -621 93 -188 170 -274 274 -306 35 -11 86 -31 114
-45 76 -39 121 -32 121 19 0 12 -18 91 -39 176 -57 224 -75 356 -68 514 10
220 59 360 171 482 108 118 268 202 441 233 87 15 272 15 356 0 228 -42 468
-171 614 -333 74 -82 126 -156 213 -303 41 -70 87 -135 109 -153 21 -18 48
-40 60 -50 26 -22 60 -129 75 -234 18 -134 -22 -362 -93 -532 -86 -208 -273
-430 -512 -608 -289 -215 -501 -297 -774 -297 -426 0 -1015 287 -1330 648 -80
92 -196 229 -219 257 -24 30 70 -145 144 -269 115 -192 297 -398 438 -493 132
-90 394 -206 592 -263 262 -75 539 -77 740 -6 130 46 371 195 565 348 134 107
329 302 406 408 113 155 158 272 247 645 20 83 41 168 46 189 6 25 23 51 48
73 76 69 111 215 90 381 -13 107 -118 478 -160 570 -83 179 -262 370 -440 470
-30 17 -127 56 -215 86 -88 30 -225 77 -304 105 -173 62 -308 97 -444 116
-139 19 -313 25 -423 15z m588 -490 c443 -94 782 -350 938 -709 68 -157 91
-299 54 -336 -22 -22 -39 -6 -60 58 -56 171 -156 349 -272 484 -150 174 -414
321 -670 372 -263 53 -510 29 -720 -70 -309 -144 -482 -420 -482 -769 0 -129
21 -244 75 -410 50 -152 57 -210 26 -210 -39 0 -144 179 -195 331 -43 130 -59
240 -53 374 22 482 335 814 847 900 120 20 383 13 512 -15z m-36 -580 c255
-65 459 -248 599 -535 152 -311 119 -629 -94 -913 -72 -95 -141 -159 -276
-260 -196 -145 -287 -181 -470 -189 -210 -9 -425 46 -694 177 -372 182 -627
421 -770 720 -72 150 -90 270 -41 270 26 0 57 -44 125 -178 156 -308 383 -508
778 -685 284 -127 465 -181 612 -181 133 -1 187 18 268 93 34 32 98 82 141
112 183 124 293 273 343 459 22 86 22 279 -1 374 -61 252 -219 464 -421 561
-113 55 -186 69 -318 63 -127 -6 -212 -37 -343 -126 -98 -65 -130 -78 -154
-62 -13 8 -12 16 9 55 55 104 213 214 357 249 90 22 255 20 350 -4z"/>
<path d="M3057 5549 c-42 -25 -90 -176 -127 -404 -26 -157 -25 -166 9 -70 171
485 177 508 118 474z"/>
<path d="M2901 4964 c0 -11 3 -14 6 -6 3 7 2 16 -1 19 -3 4 -6 -2 -5 -13z"/>
<path d="M5104 4188 c-141 -129 -206 -166 -409 -238 -136 -48 -181 -72 -191
-102 -9 -28 27 -58 70 -58 49 0 302 78 393 121 58 28 100 57 146 102 105 104
150 228 86 235 -20 2 -42 -11 -95 -60z"/>
<path d="M6905 3962 c-33 -32 -99 -103 -146 -158 -78 -91 -283 -284 -597 -563
-137 -121 -321 -261 -516 -391 -193 -129 -256 -190 -256 -250 0 -34 28 -35 73
-3 23 17 119 74 212 128 267 153 420 260 625 441 233 204 409 409 526 611 31
54 76 131 99 171 24 39 43 72 42 72 -1 0 -29 -26 -62 -58z"/>
<path d="M6596 3259 c-38 -27 -117 -91 -175 -143 -206 -182 -295 -249 -472
-357 -155 -94 -415 -209 -471 -209 -8 0 -23 -7 -34 -15 -19 -15 -19 -15 5 -35
49 -42 178 -13 376 84 204 101 360 213 524 378 78 77 326 349 319 347 -2 0
-34 -22 -72 -50z"/>
<path d="M4179 2425 c265 -128 502 -185 770 -185 66 0 123 -11 151 -30 13 -9
13 -11 0 -20 -13 -8 -12 -10 3 -10 9 0 17 6 17 14 0 14 93 67 161 91 23 8 108
26 188 40 127 21 317 67 330 81 6 6 4 6 -84 -11 -59 -12 -128 -15 -260 -13
-180 3 -180 3 -265 -32 -85 -35 -85 -35 -297 -33 -296 3 -418 20 -613 87 -85
29 -164 56 -175 60 -11 4 22 -14 74 -39z"/>
</g>
</svg>
