<?xml version="1.0" standalone="no"?>
<!DOCTYPE svg PUBLIC "-//W3C//DTD SVG 20010904//EN"
 "http://www.w3.org/TR/2001/REC-SVG-20010904/DTD/svg10.dtd">
<svg version="1.0" xmlns="http://www.w3.org/2000/svg"
 width="1000.000000pt" height="1000.000000pt" viewBox="0 0 1000.000000 1000.000000"
 preserveAspectRatio="xMidYMid meet">
<metadata>
  <rdf:RDF
    xmlns:rdf = "http://www.w3.org/1999/02/22-rdf-syntax-ns#"
    xmlns:rdfs = "http://www.w3.org/2000/01/rdf-schema#"
    xmlns:dc = "http://purl.org/dc/elements/1.1/"
    xmlns:cc = "http://creativecommons.org/ns#">
    <cc:license rdf:resource="http://creativecommons.org/publicdomain/zero/1.0/deed.en"/>
    <cc:permits rdf:resource="http://creativecommons.org/ns#Reproduction"/>
    <rdf:Description about="https://nft.mir.one/fingerprints"
      dc:title="TON Fingerprints"
      dc:description="This is a unique digital fingerprint created based on the algorithm for generating basic rings using a noise texture. Like human fingerprints, you can now use it for the Web3 and Metaverse era as digital biometric information."
      dc:publisher="https://nft.mir.one"
      dc:date="2022-02-22"
      dc:format="image/svg+xml"
      dc:language="en" >
      <dc:creator>
      <rdf:Bag>
        <rdf:li>EQBondcvD2_aOFADXSWJHs4ZazQDuEl9_wNvGGPxI8hGuOFU</rdf:li>
        <rdf:li>ipfs://bafkreihj7iub3fhmhq6jn62noukt5wxn3gv6bvcg7wmt6ywvlurefezckq</rdf:li>
      </rdf:Bag>
      </dc:creator>
    </rdf:Description>
  </rdf:RDF>
</metadata>
<rect width="100%" height="100%" fill="#1b1f23"/>
<g transform="translate(0.000000,1000.000000) scale(0.100000,-0.100000)"
fill="#ffffff" stroke="none">
<path d="M5116 7731 c-73 -6 -92 -20 -53 -38 13 -6 36 -28 53 -48 67 -87 168
-177 311 -278 226 -162 349 -264 454 -377 52 -56 145 -156 207 -221 213 -227
282 -327 338 -498 35 -103 87 -202 184 -346 55 -82 74 -100 115 -109 39 -9
121 -95 162 -168 18 -31 52 -103 77 -160 50 -118 116 -256 116 -245 0 5 -14
62 -30 127 -68 269 -121 396 -280 665 -46 77 -125 214 -177 305 -183 317 -274
429 -446 551 -48 33 -77 73 -77 103 0 28 19 27 61 -4 76 -55 135 -28 72 32
-33 31 -73 48 -113 48 -19 0 -49 16 -92 50 -314 247 -455 343 -658 448 -116
60 -135 73 -138 95 -3 21 2 28 23 33 64 16 269 -72 476 -203 116 -73 491 -343
537 -387 18 -17 48 -62 66 -101 19 -38 69 -113 111 -165 102 -126 164 -215
277 -395 73 -117 179 -266 225 -315 8 -9 -131 257 -200 380 -87 157 -166 277
-300 455 -123 164 -156 201 -257 286 -244 207 -520 373 -746 448 -98 33 -186
43 -298 32z"/>
<path d="M4454 7674 c40 -25 67 -33 124 -38 136 -12 206 -51 396 -221 66 -58
187 -161 270 -228 296 -238 398 -335 813 -773 163 -173 209 -208 238 -184 54
45 -37 181 -326 490 -258 275 -326 337 -614 560 -94 72 -210 174 -280 245 -66
68 -134 130 -152 139 -68 34 -170 47 -349 44 -171 -3 -171 -3 -120 -34z"/>
<path d="M4526 7504 c-20 -19 -20 -28 0 -70 23 -49 106 -122 336 -295 407
-307 496 -384 713 -619 83 -91 255 -271 381 -401 204 -208 242 -252 327 -380
159 -238 244 -329 308 -329 43 0 42 26 0 119 -22 47 -57 128 -79 178 -82 192
-172 319 -285 399 -125 90 -199 159 -434 407 -283 297 -373 379 -738 672 -402
323 -479 370 -529 319z"/>
<path d="M4043 7471 c48 -51 77 -105 77 -141 0 -28 -8 -43 -37 -72 -51 -48
-64 -54 -208 -94 -68 -19 -141 -42 -162 -51 -21 -9 -60 -24 -88 -33 -49 -18
-49 -18 -5 -30 65 -18 329 -6 449 20 155 33 214 25 376 -50 261 -120 740 -442
840 -564 41 -50 55 -100 32 -109 -10 -4 -100 50 -244 146 -342 227 -566 344
-765 399 -77 21 -100 23 -338 21 -256 -2 -256 -2 -340 -33 -47 -16 -124 -53
-170 -80 -47 -28 -92 -50 -100 -51 -8 0 5 -7 30 -15 40 -12 71 -12 255 2 517
40 753 -18 1265 -311 200 -115 284 -154 358 -165 34 -6 72 -14 85 -19 51 -20
200 -143 338 -281 277 -277 363 -458 389 -818 11 -155 18 -181 145 -557 46
-137 104 -314 129 -392 48 -152 68 -193 95 -193 29 0 41 22 41 75 0 67 -21
149 -144 578 -120 417 -156 598 -156 786 0 117 0 117 -44 207 -74 152 -158
254 -481 584 -84 85 -186 198 -227 250 -142 180 -216 241 -811 659 -116 82
-188 146 -277 248 -48 55 -45 54 -283 101 -48 10 -48 10 -24 -17z"/>
<path d="M3845 7321 c-40 -6 -40 -6 20 -23 104 -30 185 -31 185 -3 0 30 -96
43 -205 26z"/>
<path d="M3606 6584 c-85 -16 -146 -34 -179 -52 -29 -15 -103 -80 -173 -150
-123 -124 -123 -124 -81 -120 23 3 83 17 132 32 56 17 125 30 183 33 92 6 93
6 137 -26 61 -44 89 -54 272 -100 88 -22 200 -54 249 -72 280 -98 615 -272
883 -457 96 -66 108 -72 155 -72 65 0 115 -24 194 -89 119 -100 230 -257 297
-424 19 -47 64 -133 101 -193 74 -122 240 -456 302 -609 149 -368 212 -652
212 -959 0 -167 28 -220 81 -156 31 36 69 145 69 194 0 18 -4 56 -9 83 -6 28
-15 117 -21 199 -13 178 -21 212 -76 329 -23 49 -68 164 -99 255 -70 201 -212
562 -270 685 -29 60 -61 109 -97 147 -32 34 -83 107 -124 180 -115 204 -225
337 -360 434 -90 65 -510 301 -724 408 -357 177 -601 252 -888 272 -120 8
-143 22 -99 60 38 32 88 44 193 44 235 0 486 -75 849 -255 497 -246 680 -360
846 -525 122 -122 186 -214 274 -395 68 -141 95 -176 123 -159 67 42 -43 358
-191 554 -78 103 -214 236 -328 320 -53 39 -159 100 -284 161 -110 55 -285
143 -390 197 -372 192 -586 253 -885 251 -109 0 -177 -7 -274 -25z"/>
<path d="M3329 6147 c-73 -17 -122 -50 -228 -153 -86 -83 -86 -83 -46 -77 22
3 78 16 125 29 188 51 365 56 568 15 201 -42 284 -74 472 -186 58 -34 175 -99
260 -145 284 -151 403 -248 774 -633 238 -246 270 -286 363 -452 46 -82 87
-140 129 -183 73 -74 119 -157 167 -302 86 -257 112 -441 112 -775 -1 -253 -2
-264 -32 -410 -45 -213 -49 -263 -28 -320 21 -53 23 -51 61 50 14 39 58 138
97 220 70 147 72 152 72 230 0 131 -34 524 -56 656 -46 274 -142 523 -315 822
-170 295 -222 362 -326 430 -98 64 -296 262 -441 444 -144 180 -269 269 -642
458 -254 129 -373 175 -615 237 -219 56 -363 69 -471 45z"/>
<path d="M3287 5845 c-43 -8 -90 -21 -105 -29 -56 -30 -126 -112 -138 -161
-11 -47 -33 -87 -71 -127 -36 -37 -36 -37 3 -47 22 -5 174 -14 339 -20 278
-10 626 -41 800 -72 206 -37 518 -193 750 -374 145 -113 332 -322 408 -455 56
-98 91 -203 153 -461 84 -352 97 -433 97 -604 0 -330 -87 -501 -356 -699 -96
-71 -191 -119 -237 -120 -33 -1 -37 2 -68 65 -54 107 -56 143 -43 744 6 297
11 552 12 567 0 35 -33 99 -118 229 -88 132 -291 386 -370 460 -158 151 -385
242 -672 269 -160 16 -190 11 -235 -34 -43 -42 -121 -69 -270 -90 -105 -16
-158 -42 -192 -95 -9 -14 -28 -38 -42 -53 -26 -28 -26 -28 16 -28 35 0 152 24
527 106 240 53 523 -18 742 -187 123 -96 296 -306 378 -460 61 -116 83 -211
97 -406 18 -250 -15 -814 -58 -1006 -9 -39 -48 -134 -90 -220 -62 -127 -74
-160 -74 -202 0 -49 12 -75 34 -75 6 0 5 4 -3 9 -24 15 -2 50 47 75 26 13 85
38 132 56 47 18 110 48 142 67 34 21 94 44 153 59 313 80 563 328 644 639 55
208 50 429 -15 740 -19 94 -42 215 -50 270 -33 222 -42 258 -93 360 -70 140
-160 255 -346 440 -170 170 -306 285 -445 376 -112 74 -310 173 -421 210 -87
29 -90 29 -141 14 -67 -20 -176 -19 -319 2 -85 12 -186 17 -399 17 -157 1
-291 5 -298 9 -15 10 0 42 27 57 38 20 138 40 249 51 143 13 315 0 529 -41
186 -36 227 -31 203 22 -23 50 -117 94 -290 135 -135 32 -401 41 -523 18z"/>
<path d="M6652 5758 c-19 -19 -14 -68 18 -164 17 -49 37 -118 46 -154 8 -36
37 -122 64 -191 57 -144 109 -327 136 -474 13 -73 18 -150 19 -285 0 -185 0
-185 -53 -430 -114 -532 -126 -566 -224 -677 -33 -37 -74 -95 -90 -128 -38
-74 -79 -135 -135 -200 -38 -44 -111 -200 -99 -212 2 -2 15 15 29 39 14 24 59
91 100 149 181 253 307 480 367 659 41 125 103 364 134 520 80 403 41 858
-108 1244 -51 131 -92 215 -135 274 -32 43 -48 51 -69 30z"/>
<path d="M5144 5525 c-12 -31 21 -88 114 -197 161 -188 253 -278 283 -278 15
0 29 6 32 13 16 42 -86 196 -228 342 -117 121 -185 162 -201 120z"/>
<path d="M6279 5459 c-21 -41 28 -253 266 -1140 25 -92 45 -188 45 -216 0 -27
-11 -87 -25 -134 -20 -66 -28 -124 -37 -269 -6 -102 -8 -198 -4 -213 9 -38 35
-46 57 -18 42 51 111 297 154 546 20 111 36 171 62 228 29 65 36 94 40 170 8
145 -25 367 -88 587 -34 117 -98 262 -132 298 -45 48 -98 61 -110 28 -3 -7 6
-44 20 -82 121 -337 182 -592 199 -837 7 -104 1 -147 -21 -147 -29 0 -47 53
-90 262 -48 239 -65 306 -130 528 -25 85 -54 195 -65 243 -20 92 -46 146 -83
172 -29 20 -44 19 -58 -6z"/>
<path d="M3085 5335 c-41 -23 -59 -39 -125 -121 -65 -79 -73 -77 115 -25 86
24 262 28 362 7 37 -8 147 -26 243 -41 96 -15 213 -35 259 -46 164 -38 364
-130 468 -215 23 -19 65 -73 93 -119 28 -47 93 -138 143 -202 51 -65 132 -170
180 -234 97 -131 130 -162 203 -195 63 -28 93 -63 150 -175 87 -175 124 -324
124 -505 0 -173 -46 -353 -92 -362 -25 -5 -27 19 -11 139 20 152 13 338 -17
434 -31 100 -125 268 -177 315 -46 43 -64 48 -83 25 -11 -13 -10 -34 5 -113
16 -92 17 -102 1 -169 -12 -56 -16 -126 -16 -316 0 -297 10 -601 21 -619 15
-23 62 5 114 71 39 48 69 72 121 99 95 50 175 131 203 207 77 204 68 461 -29
785 -22 74 -56 197 -75 272 -40 160 -74 239 -152 356 -67 101 -224 268 -308
327 -84 59 -511 268 -623 305 -201 65 -566 118 -872 126 -169 5 -199 3 -225
-11z m1618 -505 c103 -65 294 -292 368 -437 38 -75 51 -159 25 -169 -24 -9
-36 4 -135 149 -86 126 -161 221 -298 377 -35 39 -63 79 -63 90 0 30 47 26
103 -10z m374 -1174 c23 -72 32 -636 10 -654 -11 -9 -18 -8 -32 8 -26 29 -34
88 -35 260 0 85 -5 220 -10 299 -8 108 -8 146 1 157 18 22 45 -8 66 -70z"/>
<path d="M3136 5096 c-50 -11 -66 -21 -103 -59 -76 -81 -65 -83 175 -47 208
31 238 40 222 69 -25 47 -164 65 -294 37z"/>
<path d="M3455 4685 c-49 -8 -148 -30 -220 -49 -120 -32 -133 -37 -163 -73
-18 -21 -51 -74 -72 -118 -38 -80 -38 -80 -5 -83 22 -2 49 7 85 28 78 46 207
97 307 122 129 32 321 32 418 0 118 -40 210 -102 346 -234 172 -167 261 -336
294 -556 44 -288 -13 -619 -139 -817 -21 -31 -76 -98 -125 -148 -98 -103 -131
-146 -131 -174 0 -10 -6 -29 -13 -43 -13 -25 -12 -25 63 -53 126 -48 266 -38
258 17 -3 23 -1 23 -140 10 -63 -5 -79 -4 -83 8 -10 25 12 64 42 75 15 6 57
21 91 34 162 57 249 212 299 531 23 147 25 576 4 683 -44 219 -152 407 -333
581 -136 130 -271 211 -418 248 -92 24 -256 28 -365 11z"/>
<path d="M3547 4409 c-176 -20 -367 -114 -398 -197 -21 -54 -38 -160 -44 -272
-7 -115 -7 -115 14 -80 12 19 28 50 37 69 30 65 95 159 137 198 122 113 299
164 487 141 99 -11 125 -27 94 -58 -15 -15 -47 -24 -134 -36 -188 -26 -289
-70 -377 -166 -58 -64 -85 -121 -91 -194 -10 -128 56 -310 144 -399 58 -57
106 -73 180 -57 136 28 216 107 216 214 0 56 -21 94 -60 109 -35 14 -57 0 -57
-35 -2 -78 -140 -109 -224 -50 -13 9 -32 35 -42 58 -66 145 57 326 250 370
187 43 324 -5 422 -147 66 -95 91 -177 97 -314 5 -143 -13 -232 -75 -356 -37
-74 -62 -107 -127 -172 -77 -77 -104 -94 -256 -164 -57 -27 -75 -40 -60 -45
127 -43 258 -58 316 -36 38 15 148 131 205 218 99 150 142 313 142 527 -1 167
-20 255 -85 384 -51 103 -156 217 -257 281 -52 33 -73 53 -81 77 -33 96 -193
152 -373 132z"/>
<path d="M5650 4274 c-12 -31 -3 -89 45 -285 56 -230 70 -334 70 -539 0 -260
-30 -404 -121 -580 -106 -205 -260 -334 -602 -505 -155 -77 -317 -175 -267
-162 11 3 84 19 162 36 151 33 222 54 348 108 112 48 358 189 413 238 70 61
134 217 182 442 31 141 38 443 16 613 -31 236 -113 533 -172 623 -29 44 -60
49 -74 11z"/>
<path d="M3666 3900 c-61 -24 -103 -62 -128 -119 -24 -51 -18 -105 13 -122 29
-15 45 -6 69 41 26 51 72 80 128 80 108 0 186 -97 185 -232 0 -159 -137 -309
-305 -333 -25 -4 -79 -2 -118 5 -39 7 -74 9 -77 6 -8 -8 68 -80 115 -110 48
-30 146 -66 178 -66 42 0 145 61 204 121 108 109 154 233 148 393 -3 91 -7
109 -36 168 -76 155 -231 224 -376 168z"/>
<path d="M5638 2350 c-24 -16 -53 -39 -64 -51 -11 -13 3 -7 32 14 28 20 64 43
80 52 16 8 22 15 13 15 -8 0 -36 -13 -61 -30z"/>
</g>
</svg>
