<?xml version="1.0" standalone="no"?>
<!DOCTYPE svg PUBLIC "-//W3C//DTD SVG 20010904//EN"
 "http://www.w3.org/TR/2001/REC-SVG-20010904/DTD/svg10.dtd">
<svg version="1.0" xmlns="http://www.w3.org/2000/svg"
 width="1000.000000pt" height="1000.000000pt" viewBox="0 0 1000.000000 1000.000000"
 preserveAspectRatio="xMidYMid meet">
<metadata>
  <rdf:RDF
    xmlns:rdf = "http://www.w3.org/1999/02/22-rdf-syntax-ns#"
    xmlns:rdfs = "http://www.w3.org/2000/01/rdf-schema#"
    xmlns:dc = "http://purl.org/dc/elements/1.1/"
    xmlns:cc = "http://creativecommons.org/ns#">
    <cc:license rdf:resource="http://creativecommons.org/publicdomain/zero/1.0/deed.en"/>
    <cc:permits rdf:resource="http://creativecommons.org/ns#Reproduction"/>
    <rdf:Description about="https://nft.mir.one/fingerprints"
      dc:title="TON Fingerprints"
      dc:description="This is a unique digital fingerprint created based on the algorithm for generating basic rings using a noise texture. Like human fingerprints, you can now use it for the Web3 and Metaverse era as digital biometric information."
      dc:publisher="https://nft.mir.one"
      dc:date="2022-02-22"
      dc:format="image/svg+xml"
      dc:language="en" >
      <dc:creator>
      <rdf:Bag>
        <rdf:li>EQBondcvD2_aOFADXSWJHs4ZazQDuEl9_wNvGGPxI8hGuOFU</rdf:li>
        <rdf:li>ipfs://bafkreihj7iub3fhmhq6jn62noukt5wxn3gv6bvcg7wmt6ywvlurefezckq</rdf:li>
      </rdf:Bag>
      </dc:creator>
    </rdf:Description>
  </rdf:RDF>
</metadata>
<rect width="100%" height="100%" fill="#1b1f23"/>
<g transform="translate(0.000000,1000.000000) scale(0.100000,-0.100000)"
fill="#ffffff" stroke="none">
<path d="M4805 7773 c-49 -20 -191 -88 -314 -150 -194 -99 -229 -114 -265
-111 -34 2 -42 7 -44 26 -2 13 4 35 13 50 11 19 7 17 -12 -7 -57 -70 -253
-281 -428 -461 -238 -246 -415 -478 -513 -676 -47 -94 -105 -271 -132 -406
-26 -125 -26 -142 -1 -129 24 13 35 44 66 182 56 256 109 377 237 541 92 117
205 237 370 390 208 193 230 217 267 282 18 33 56 84 84 114 50 52 53 54 94
48 73 -10 176 31 383 152 108 63 306 192 293 192 -4 -1 -48 -17 -98 -37z"/>
<path d="M5115 7679 c-159 -23 -337 -85 -541 -187 -55 -27 -142 -66 -194 -86
-147 -57 -172 -69 -207 -100 -41 -35 -44 -73 -8 -82 39 -10 223 57 562 205
290 126 444 168 723 196 276 28 277 28 105 48 -158 18 -339 21 -440 6z"/>
<path d="M5370 7493 c-285 -43 -381 -71 -748 -217 -158 -63 -321 -124 -362
-135 -155 -44 -177 -52 -235 -86 -107 -65 -208 -147 -351 -290 -213 -211 -285
-321 -324 -491 -11 -49 -36 -136 -55 -194 -45 -141 -49 -163 -35 -218 12 -45
11 -50 -19 -111 -44 -86 -61 -173 -61 -317 0 -287 95 -576 180 -549 29 9 35
40 32 180 -3 163 12 297 46 400 26 78 115 225 291 477 65 92 72 107 91 177 9
33 28 61 73 105 79 78 161 125 295 169 137 46 252 69 537 108 271 37 615 50
782 30 256 -31 523 -125 589 -205 85 -105 154 -200 154 -212 0 -24 -30 -28
-68 -9 -21 9 -75 45 -122 80 -211 156 -432 222 -780 232 -218 6 -352 -6 -645
-57 -93 -16 -246 -40 -339 -54 -186 -28 -244 -49 -334 -119 -59 -45 -108 -109
-97 -126 14 -23 55 -9 121 40 80 59 137 88 177 89 47 0 30 -24 -59 -85 -48
-32 -97 -75 -111 -96 -13 -20 -53 -56 -88 -78 -102 -66 -147 -134 -111 -169
15 -16 21 -15 79 7 34 13 103 39 153 57 174 62 291 135 399 249 58 60 64 64
170 98 235 75 430 103 670 94 271 -10 424 -52 698 -195 94 -50 201 -101 235
-116 35 -14 100 -50 145 -80 45 -30 116 -70 157 -89 44 -21 101 -59 137 -92
109 -98 264 -325 347 -507 46 -100 109 -203 100 -163 -29 129 -79 309 -110
391 -90 243 -148 318 -452 579 -51 44 -121 116 -155 160 -34 44 -85 104 -115
133 -43 43 -51 57 -41 68 30 37 127 -8 248 -114 114 -100 342 -324 419 -412
41 -47 92 -100 113 -119 40 -33 40 -33 -32 105 -97 187 -227 384 -302 459 -69
69 -191 154 -274 192 -77 36 -464 149 -608 178 -66 13 -171 29 -234 36 -160
16 -461 6 -696 -25 -104 -13 -239 -27 -299 -31 -161 -10 -289 -50 -477 -146
-155 -80 -239 -156 -428 -389 -184 -227 -231 -270 -292 -270 -32 0 -39 4 -39
19 0 11 11 32 23 48 13 15 47 63 76 106 52 77 319 355 446 464 116 99 302 202
500 278 86 33 107 46 148 91 36 38 66 60 115 80 37 15 77 37 90 48 16 14 75
31 205 57 273 56 442 73 677 66 277 -8 490 -44 755 -127 136 -42 211 -61 198
-50 -52 46 -263 181 -353 224 -168 81 -312 106 -614 106 -324 0 -710 -76 -855
-169 -26 -17 -86 -42 -133 -55 -108 -32 -463 -204 -588 -287 -161 -105 -299
-230 -430 -387 -88 -106 -144 -98 -89 11 75 145 309 380 514 513 112 73 192
111 415 199 107 42 233 92 280 112 349 147 698 206 1088 183 96 -6 179 -13
183 -16 5 -2 58 -6 118 -7 110 -3 110 -3 -17 46 -154 59 -274 92 -407 112 -92
14 -224 18 -285 8z m-1006 -1329 c26 -10 18 -38 -16 -58 -18 -11 -63 -41 -99
-67 -75 -55 -170 -102 -196 -97 -39 7 -22 34 49 78 40 24 93 63 118 86 68 62
100 75 144 58z"/>
<path d="M5215 6950 c-49 -6 -151 -18 -225 -29 -74 -11 -164 -23 -200 -26 -43
-4 -77 -14 -100 -29 -20 -13 -62 -36 -93 -51 -65 -30 -80 -51 -51 -72 23 -18
93 -14 254 15 218 39 428 55 645 49 222 -6 338 -21 542 -72 323 -79 497 -155
682 -294 191 -145 194 -147 146 -80 -134 185 -256 311 -381 394 -95 64 -350
139 -598 176 -151 23 -479 33 -621 19z"/>
<path d="M5050 6140 c-171 -18 -376 -87 -467 -156 -28 -22 -33 -31 -33 -69 0
-38 -7 -53 -50 -107 -110 -138 -136 -191 -105 -214 27 -20 59 2 169 117 155
163 207 198 363 246 80 24 104 26 253 27 228 1 349 -25 549 -120 304 -144 482
-344 691 -776 154 -319 217 -627 191 -925 -35 -389 -138 -630 -442 -1030 -140
-185 -169 -244 -134 -273 38 -32 118 34 282 230 134 159 218 285 287 430 164
344 209 678 145 1060 -45 268 -125 475 -308 792 -50 87 -108 193 -129 235 -68
140 -173 227 -437 364 -148 77 -299 131 -430 153 -118 20 -289 27 -395 16z"/>
<path d="M4425 5953 c-16 -9 -64 -42 -105 -73 -122 -92 -146 -105 -335 -181
-202 -80 -247 -107 -299 -177 -79 -109 -121 -227 -151 -432 -9 -58 -27 -151
-41 -207 -23 -97 -24 -105 -10 -170 8 -38 35 -121 60 -184 55 -137 56 -149 17
-149 -39 0 -100 62 -171 174 -30 48 -77 118 -105 157 -167 235 -198 296 -260
510 -19 64 -48 143 -65 175 -31 59 -31 59 -26 9 3 -27 10 -102 16 -165 20
-207 70 -410 132 -535 69 -141 248 -347 413 -475 55 -43 156 -124 225 -180
177 -144 313 -207 384 -181 48 19 31 47 -84 140 -201 163 -292 272 -309 371
-54 301 -54 338 -1 595 22 107 49 222 60 257 47 140 144 269 262 348 57 38
118 53 118 30 0 -19 -29 -69 -86 -148 -108 -150 -164 -305 -167 -463 -1 -80 1
-89 31 -140 18 -30 60 -110 93 -179 112 -231 200 -335 307 -366 31 -8 116 -44
187 -79 163 -81 230 -99 360 -98 153 1 281 42 416 134 123 83 268 249 339 389
43 85 60 155 67 270 6 118 15 143 46 138 30 -4 66 -80 79 -166 12 -76 -1 -157
-40 -245 -25 -55 -244 -346 -316 -419 -184 -187 -392 -280 -626 -281 -242 -2
-420 72 -641 266 -135 118 -211 231 -279 418 -44 118 -57 139 -85 139 -93 0
-45 -299 76 -477 18 -26 65 -82 104 -123 120 -126 152 -168 165 -215 16 -59
57 -93 156 -135 420 -176 820 -113 1134 177 86 80 165 183 253 330 61 103 95
141 117 128 17 -10 11 -62 -15 -141 -94 -279 -325 -541 -589 -669 -151 -73
-247 -97 -416 -102 -168 -6 -259 9 -476 77 -71 22 -187 59 -259 81 -235 74
-345 138 -607 356 -181 151 -298 265 -400 393 -63 78 -148 163 -148 147 0 -12
116 -261 154 -331 67 -122 119 -184 257 -302 316 -272 392 -317 804 -482 341
-136 475 -172 640 -174 487 -4 993 390 1141 889 25 84 26 96 20 241 -6 138 -5
156 13 197 20 45 40 56 59 32 6 -7 19 -56 28 -108 24 -137 15 -334 -20 -451
-88 -297 -318 -603 -586 -780 -193 -128 -484 -228 -664 -228 -99 0 -173 18
-291 72 -60 28 -234 106 -386 173 -461 205 -506 231 -669 375 -201 178 -299
259 -355 295 -47 30 -55 33 -39 14 12 -13 45 -60 74 -104 30 -44 95 -132 146
-195 51 -63 104 -141 119 -173 41 -87 82 -112 346 -217 85 -34 217 -95 294
-135 77 -40 182 -89 234 -109 149 -57 185 -88 149 -124 -19 -19 -125 -14 -217
9 -94 24 -149 22 -256 -10 -47 -13 -103 -20 -170 -21 -55 -1 -120 -5 -144 -8
-43 -7 -43 -7 45 -45 116 -49 203 -60 338 -42 109 14 159 11 177 -11 27 -33
-30 -58 -218 -93 -56 -11 -114 -26 -129 -34 -26 -14 -26 -14 27 -21 30 -3 77
-10 104 -16 72 -13 154 -11 197 4 21 8 69 33 108 56 184 111 350 137 350 54 0
-21 -22 -34 -169 -108 -93 -46 -209 -97 -258 -114 -48 -17 -106 -37 -128 -45
-40 -15 -40 -15 0 -23 65 -13 315 -10 365 5 98 28 207 111 293 225 36 46 93
75 384 192 287 115 384 164 490 249 182 146 401 427 499 641 85 187 130 399
120 569 -9 159 -41 260 -114 357 -22 29 -58 99 -80 155 -23 56 -57 128 -77
160 -46 72 -301 326 -385 383 -134 91 -266 132 -420 132 -213 -1 -386 -102
-414 -242 -3 -14 -24 -50 -47 -80 -88 -115 -121 -239 -99 -369 24 -142 124
-287 235 -341 43 -22 64 -25 156 -25 101 0 108 1 180 37 247 123 347 448 193
631 -95 113 -239 150 -436 112 -76 -14 -128 -9 -128 13 0 32 140 98 242 114
183 28 389 -55 485 -195 42 -62 53 -104 53 -200 0 -319 -207 -598 -500 -673
-44 -11 -91 -15 -151 -12 -76 4 -97 9 -162 41 -91 45 -143 99 -209 218 -121
217 -141 432 -57 617 55 121 192 285 302 361 268 183 638 153 945 -79 104 -78
238 -221 314 -335 69 -103 191 -349 236 -475 131 -372 52 -812 -217 -1211
-154 -228 -370 -481 -465 -545 -32 -21 -86 -42 -146 -58 -176 -46 -383 -147
-651 -318 -90 -58 -201 -124 -246 -146 -111 -56 -182 -102 -157 -102 54 1 229
22 299 36 163 33 222 58 430 185 361 220 384 232 399 193 25 -66 -136 -212
-424 -384 -116 -70 -233 -150 -227 -157 9 -8 348 106 433 147 200 94 305 174
408 310 103 136 126 171 190 295 32 61 106 178 165 260 197 274 261 385 325
557 165 444 132 851 -105 1319 -208 410 -479 652 -841 751 -72 20 -106 23
-253 22 -157 0 -176 -2 -250 -27 -105 -34 -183 -83 -301 -186 -54 -46 -124
-102 -158 -124 -34 -21 -71 -51 -84 -66 -36 -41 -100 -172 -121 -251 -55 -199
-33 -344 94 -619 64 -136 70 -186 25 -186 -51 0 -184 213 -249 399 -72 205
-57 352 63 621 19 44 42 114 51 155 21 100 49 144 172 272 57 59 101 112 98
118 -9 15 -66 11 -100 -7z m691 -796 c110 -57 149 -189 91 -303 -75 -147 -257
-189 -375 -88 -188 160 -62 425 193 410 34 -2 74 -10 91 -19z"/>
<path d="M5013 5043 c-7 -2 -13 -15 -13 -28 0 -33 -16 -40 -61 -25 -62 21 -87
-15 -55 -79 31 -58 125 -70 178 -22 28 25 33 36 33 76 0 37 -5 51 -24 66 -23
19 -35 22 -58 12z"/>
<path d="M6443 5683 c-7 -2 -13 -19 -13 -37 0 -33 10 -51 155 -286 113 -184
209 -407 259 -608 54 -212 61 -277 59 -572 0 -159 -6 -302 -13 -339 -21 -115
-4 -74 23 56 47 223 59 322 64 543 8 347 -23 523 -132 748 -101 209 -240 409
-327 473 -41 29 -51 32 -75 22z"/>
<path d="M3210 3580 c49 -43 90 -64 102 -52 11 11 -17 30 -87 61 -50 21 -50
21 -15 -9z"/>
<path d="M3436 3235 c197 -140 285 -175 439 -175 103 0 126 35 53 80 -49 30
-516 178 -567 179 -44 1 -44 1 75 -84z"/>
<path d="M6390 2957 c-137 -134 -152 -145 -269 -207 -111 -58 -135 -76 -225
-165 -94 -93 -190 -200 -211 -234 -12 -20 33 12 205 148 80 63 190 150 246
192 55 43 155 134 222 204 107 111 190 206 180 205 -1 -1 -68 -65 -148 -143z"/>
<path d="M5644 2318 c-19 -23 -19 -23 4 -4 12 11 22 21 22 23 0 8 -8 2 -26
-19z"/>
</g>
</svg>
