<?xml version="1.0" standalone="no"?>
<!DOCTYPE svg PUBLIC "-//W3C//DTD SVG 20010904//EN"
 "http://www.w3.org/TR/2001/REC-SVG-20010904/DTD/svg10.dtd">
<svg version="1.0" xmlns="http://www.w3.org/2000/svg"
 width="1000.000000pt" height="1000.000000pt" viewBox="0 0 1000.000000 1000.000000"
 preserveAspectRatio="xMidYMid meet">
<metadata>
  <rdf:RDF
    xmlns:rdf = "http://www.w3.org/1999/02/22-rdf-syntax-ns#"
    xmlns:rdfs = "http://www.w3.org/2000/01/rdf-schema#"
    xmlns:dc = "http://purl.org/dc/elements/1.1/"
    xmlns:cc = "http://creativecommons.org/ns#">
    <cc:license rdf:resource="http://creativecommons.org/publicdomain/zero/1.0/deed.en"/>
    <cc:permits rdf:resource="http://creativecommons.org/ns#Reproduction"/>
    <rdf:Description about="https://nft.mir.one/fingerprints"
      dc:title="TON Fingerprints"
      dc:description="This is a unique digital fingerprint created based on the algorithm for generating basic rings using a noise texture. Like human fingerprints, you can now use it for the Web3 and Metaverse era as digital biometric information."
      dc:publisher="https://nft.mir.one"
      dc:date="2022-02-22"
      dc:format="image/svg+xml"
      dc:language="en" >
      <dc:creator>
      <rdf:Bag>
        <rdf:li>EQBondcvD2_aOFADXSWJHs4ZazQDuEl9_wNvGGPxI8hGuOFU</rdf:li>
        <rdf:li>ipfs://bafkreihj7iub3fhmhq6jn62noukt5wxn3gv6bvcg7wmt6ywvlurefezckq</rdf:li>
      </rdf:Bag>
      </dc:creator>
    </rdf:Description>
  </rdf:RDF>
</metadata>
<rect width="100%" height="100%" fill="#1b1f23"/>
<g transform="translate(0.000000,1000.000000) scale(0.100000,-0.100000)"
fill="#ffffff" stroke="none">
<path d="M5034 7808 c44 -30 76 -61 76 -72 0 -6 18 -48 40 -93 34 -68 52 -90
110 -138 39 -32 93 -86 120 -120 61 -76 90 -100 305 -250 280 -195 525 -395
675 -551 93 -97 121 -144 100 -169 -32 -38 -100 3 -319 195 -210 184 -340 288
-485 389 -60 42 -192 136 -295 208 -102 73 -224 152 -270 175 -84 43 -84 43
-280 50 -108 3 -239 11 -291 18 -52 6 -126 8 -165 5 -117 -11 -293 -54 -428
-106 -71 -27 -136 -50 -145 -50 -10 -1 1 -6 23 -11 22 -5 146 -9 275 -8 319 2
648 -27 825 -71 153 -39 325 -122 559 -271 153 -97 271 -188 415 -319 69 -63
193 -174 275 -247 173 -153 200 -181 264 -277 26 -38 50 -73 53 -78 4 -5 31
-10 61 -12 69 -3 144 -42 253 -131 107 -88 153 -118 198 -131 38 -12 38 -12
23 12 -9 14 -43 73 -75 133 -33 59 -105 182 -162 272 -56 91 -118 199 -137
240 -86 189 -115 240 -169 305 -114 137 -493 434 -766 601 -89 54 -175 111
-191 125 -67 59 11 79 131 34 158 -60 337 -175 595 -382 98 -78 187 -147 199
-153 25 -14 129 -50 129 -46 0 2 -19 16 -41 31 -23 15 -99 82 -168 149 -344
332 -570 472 -846 526 -177 34 -231 55 -287 112 -26 27 -48 51 -48 53 0 2 9
13 20 23 20 19 20 19 -57 25 -43 3 -87 8 -98 12 -19 6 -19 5 -1 -7z"/>
<path d="M4480 7670 c-52 -5 -115 -12 -140 -16 -45 -6 -45 -6 5 -21 80 -22
456 -75 491 -68 74 13 65 65 -17 89 -65 20 -220 27 -339 16z"/>
<path d="M3975 7109 c-38 -5 -90 -16 -115 -26 -85 -31 -225 -122 -421 -271
-83 -64 -83 -64 -33 -57 27 4 121 32 208 61 235 80 362 104 586 111 428 13
791 -70 1170 -269 188 -99 296 -184 288 -226 -6 -30 -58 -17 -223 58 -407 185
-660 256 -1002 282 -262 20 -515 -10 -768 -92 -133 -44 -191 -76 -271 -152
-85 -80 -130 -146 -143 -207 -8 -39 -39 -98 -108 -210 -53 -86 -103 -164 -111
-173 -8 -10 -12 -18 -8 -18 36 0 369 327 428 420 44 70 86 105 168 143 152 69
387 107 663 107 333 -1 561 -48 1078 -225 88 -30 193 -61 232 -69 144 -30 208
-65 402 -221 146 -117 189 -134 215 -84 31 57 -16 136 -162 270 -117 108 -201
191 -326 321 -85 88 -183 161 -335 248 -258 148 -474 224 -747 266 -124 18
-560 27 -665 13z"/>
<path d="M4115 6439 c-355 -20 -585 -86 -585 -166 0 -29 39 -32 376 -22 560
16 648 13 822 -32 89 -22 203 -74 248 -112 17 -14 36 -44 43 -67 23 -78 71
-119 291 -245 184 -106 303 -188 377 -261 48 -49 75 -89 127 -190 36 -71 100
-187 142 -259 260 -441 368 -744 404 -1135 7 -73 20 -148 32 -180 12 -30 28
-87 36 -127 32 -146 -15 -410 -148 -825 -10 -32 -17 -58 -15 -58 6 0 99 165
156 280 70 140 143 351 165 480 20 119 15 437 -10 575 -40 222 -107 449 -233
795 -41 113 -107 297 -145 410 -64 186 -71 215 -77 315 -9 132 -27 174 -111
255 -150 148 -333 257 -560 335 -138 47 -649 181 -801 209 -74 14 -348 38
-389 34 -8 0 -73 -4 -145 -9z m1173 -335 c115 -38 310 -135 414 -206 106 -72
246 -201 273 -252 16 -29 17 -37 6 -50 -18 -22 -59 -20 -98 4 -18 11 -89 62
-157 114 -154 117 -232 164 -463 277 -101 49 -183 95 -183 102 0 44 93 50 208
11z"/>
<path d="M3178 6353 c7 -3 16 -2 19 1 4 3 -2 6 -13 5 -11 0 -14 -3 -6 -6z"/>
<path d="M3690 6138 c-186 -17 -288 -56 -394 -150 -56 -49 -87 -96 -100 -150
-3 -14 -37 -67 -74 -117 -38 -50 -92 -135 -121 -188 -30 -54 -61 -106 -70
-117 -25 -30 60 16 140 75 124 91 240 137 440 173 116 22 164 39 384 141 246
114 328 135 540 142 98 4 202 1 272 -7 125 -14 159 -10 168 21 16 49 -65 102
-205 134 -111 25 -330 31 -470 12 -160 -22 -207 -38 -281 -98 -78 -64 -162
-103 -354 -169 -193 -66 -265 -79 -299 -57 -14 10 -23 23 -20 31 9 24 238 125
406 180 90 29 173 58 185 65 25 13 39 49 25 63 -18 18 -84 24 -172 16z"/>
<path d="M6418 5933 c-60 -65 -66 -117 -38 -338 44 -350 63 -432 195 -835 137
-420 207 -714 207 -880 0 -51 -8 -103 -26 -164 -21 -72 -26 -108 -25 -195 1
-106 1 -106 20 -21 26 116 46 176 80 236 36 63 45 110 59 301 9 112 9 187 1
294 -12 144 -12 144 -121 469 -60 179 -116 363 -126 410 -21 106 -15 223 15
298 31 77 27 109 -24 209 -54 104 -149 237 -173 241 -10 1 -29 -10 -44 -25z"/>
<path d="M4445 5824 c-206 -26 -320 -61 -510 -155 -193 -97 -249 -138 -309
-229 -52 -79 -82 -110 -354 -369 -122 -115 -180 -178 -197 -212 -39 -76 -73
-191 -95 -320 -11 -65 -23 -126 -27 -136 -11 -29 59 66 104 142 93 158 217
297 437 493 68 60 143 138 174 181 102 138 204 222 393 325 187 101 322 131
584 131 253 0 322 -19 496 -131 39 -25 155 -86 257 -135 144 -69 195 -89 222
-87 31 3 35 6 38 35 6 60 -96 141 -398 314 -80 46 -181 99 -224 117 -79 35
-79 35 -320 37 -133 1 -254 1 -271 -1z"/>
<path d="M6833 5568 c-16 -8 -23 -20 -23 -39 0 -22 9 -32 54 -58 35 -19 75
-56 114 -103 60 -74 108 -122 101 -102 -49 137 -119 251 -178 291 -38 26 -38
26 -68 11z"/>
<path d="M4456 5550 c-155 -25 -244 -60 -349 -138 -37 -28 -112 -78 -167 -111
-131 -81 -183 -144 -148 -179 18 -18 59 -15 171 14 101 25 101 25 661 21 561
-3 561 -3 731 -40 93 -20 185 -37 205 -37 79 0 106 59 47 104 -36 27 -322 128
-417 147 -51 10 -74 9 -138 -4 -53 -11 -156 -18 -327 -22 -137 -3 -298 -9
-356 -14 -120 -11 -182 -2 -177 27 5 26 61 52 160 74 82 19 126 22 382 22 264
1 290 3 300 19 22 34 -30 74 -136 104 -64 18 -356 26 -442 13z"/>
<path d="M3430 5531 c-75 -24 -181 -81 -263 -141 -95 -71 -134 -135 -231 -383
-40 -105 -55 -114 159 93 77 75 192 175 255 224 157 122 190 154 190 187 0 19
-6 28 -22 33 -29 7 -23 8 -88 -13z"/>
<path d="M6783 5455 c-53 -37 -37 -153 52 -395 32 -85 82 -222 112 -304 46
-126 113 -270 113 -243 0 4 -9 83 -21 175 -38 309 -88 501 -178 681 -28 55
-52 101 -54 101 -1 0 -12 -7 -24 -15z"/>
<path d="M4175 5031 c-66 -5 -133 -11 -150 -14 -16 -4 -88 -14 -160 -22 -112
-13 -140 -20 -203 -50 -167 -83 -382 -294 -495 -488 -36 -61 -60 -175 -54
-250 7 -81 47 -137 64 -89 89 253 321 521 550 636 221 110 454 134 1068 109
298 -12 377 -23 529 -74 151 -50 241 -103 331 -193 96 -96 146 -169 198 -290
114 -265 113 -544 -4 -847 -61 -157 -208 -339 -275 -339 -32 0 -30 14 11 85
152 263 205 442 192 654 -8 131 -37 234 -106 376 -96 196 -216 317 -406 410
-141 69 -283 96 -329 62 -40 -29 -13 -58 160 -167 170 -108 256 -205 367 -413
156 -292 142 -253 142 -401 -1 -146 -12 -197 -86 -386 -22 -58 -47 -136 -55
-175 -19 -92 -60 -151 -203 -292 -163 -163 -266 -226 -336 -209 -39 10 -30 28
39 79 81 60 217 194 280 278 85 112 193 374 230 561 34 168 14 309 -45 316
-36 4 -52 -34 -74 -168 -34 -216 -95 -404 -180 -555 -34 -62 -122 -176 -249
-324 -30 -35 -62 -86 -73 -114 -21 -61 -50 -83 -166 -128 -162 -62 -338 -81
-546 -60 -223 23 -216 23 -136 -5 378 -135 604 -144 940 -39 130 40 168 63
295 176 52 46 142 123 200 170 95 77 148 119 387 301 41 31 82 67 92 80 37 47
71 129 152 373 84 250 84 250 84 370 0 182 -41 345 -135 543 -65 135 -125 224
-199 295 -71 68 -140 102 -236 117 -38 6 -146 26 -240 45 -93 19 -226 39 -295
44 -169 13 -726 21 -875 12z"/>
<path d="M4185 4729 c-203 -23 -394 -96 -541 -207 -93 -70 -154 -134 -265
-277 -91 -118 -112 -139 -162 -160 -37 -15 -37 -15 -37 -119 0 -57 7 -143 15
-192 16 -93 87 -386 92 -380 2 1 7 78 13 170 6 93 17 197 25 232 42 183 266
475 464 608 196 131 477 187 709 141 188 -38 371 -175 487 -365 68 -113 80
-165 80 -360 0 -192 -15 -275 -76 -422 -89 -217 -311 -480 -467 -554 -107 -51
-198 -66 -368 -62 -143 3 -154 2 -154 -15 0 -27 45 -63 109 -89 47 -19 74 -23
176 -22 140 0 223 18 335 72 87 43 169 120 300 286 198 249 263 406 326 791
29 182 28 243 -8 331 -39 97 -96 172 -229 304 -70 69 -139 144 -154 167 -30
47 -64 66 -168 92 -140 36 -337 48 -502 30z"/>
<path d="M4245 4414 c-107 -15 -191 -41 -283 -86 -170 -83 -316 -236 -401
-420 -46 -98 -65 -180 -82 -345 -14 -139 -7 -194 41 -300 79 -173 252 -356
412 -434 43 -21 49 -21 65 -7 36 31 66 39 196 53 213 24 312 64 390 156 210
251 261 327 301 453 55 168 55 343 0 519 -78 247 -268 394 -534 410 -41 3 -88
3 -105 1z m193 -189 c110 -26 201 -87 229 -153 15 -35 10 -72 -10 -72 -7 0
-48 18 -92 40 -103 52 -198 69 -291 53 -137 -24 -264 -115 -321 -230 -24 -51
-28 -69 -28 -148 0 -80 3 -97 30 -148 38 -75 127 -159 198 -185 163 -61 326
-20 400 100 53 85 49 179 -9 246 -84 99 -248 85 -284 -24 -15 -44 0 -86 36
-103 22 -10 28 -8 50 16 20 21 29 25 41 17 29 -18 38 -41 28 -70 -27 -74 -138
-94 -216 -39 -81 57 -109 160 -69 254 59 137 213 184 423 127 133 -35 177 -89
185 -228 8 -136 -40 -262 -131 -344 -56 -50 -107 -68 -238 -85 -183 -24 -335
26 -458 150 -153 153 -198 276 -155 422 64 214 235 362 479 413 45 9 144 5
203 -9z m-783 -771 c9 -4 50 -49 91 -101 122 -152 223 -213 391 -235 62 -8
105 -8 171 2 192 27 221 25 206 -13 -8 -22 -94 -65 -165 -82 -95 -22 -242 -29
-328 -16 -105 17 -185 58 -263 136 -101 101 -173 258 -138 300 14 17 13 17 35
9z"/>
<path d="M6253 3695 c-11 -8 -28 -34 -38 -57 -26 -64 -124 -409 -150 -523 -39
-177 -66 -240 -174 -399 -37 -56 -82 -128 -99 -162 -40 -79 -91 -147 -155
-208 -52 -48 -52 -48 12 -5 86 59 205 172 312 295 161 188 220 294 274 491 71
257 104 475 81 541 -11 32 -38 44 -63 27z"/>
<path d="M5786 2993 c-65 -63 -183 -158 -281 -228 -196 -140 -255 -193 -255
-230 0 -20 5 -25 25 -25 30 0 72 21 197 97 51 31 130 73 176 94 88 41 160 103
222 194 77 112 92 205 34 205 -3 0 -56 -48 -118 -107z"/>
<path d="M5554 2554 c-146 -89 -190 -105 -278 -103 -60 1 -89 -5 -186 -39
-126 -44 -202 -64 -420 -110 -80 -17 -154 -33 -165 -36 -11 -3 75 -3 190 -1
231 4 340 19 581 80 153 38 267 89 356 160 60 47 83 90 57 106 -20 13 -17 14
-135 -57z"/>
</g>
</svg>
