<?xml version="1.0" standalone="no"?>
<!DOCTYPE svg PUBLIC "-//W3C//DTD SVG 20010904//EN"
 "http://www.w3.org/TR/2001/REC-SVG-20010904/DTD/svg10.dtd">
<svg version="1.0" xmlns="http://www.w3.org/2000/svg"
 width="1000.000000pt" height="1000.000000pt" viewBox="0 0 1000.000000 1000.000000"
 preserveAspectRatio="xMidYMid meet">
<metadata>
  <rdf:RDF
    xmlns:rdf = "http://www.w3.org/1999/02/22-rdf-syntax-ns#"
    xmlns:rdfs = "http://www.w3.org/2000/01/rdf-schema#"
    xmlns:dc = "http://purl.org/dc/elements/1.1/"
    xmlns:cc = "http://creativecommons.org/ns#">
    <cc:license rdf:resource="http://creativecommons.org/publicdomain/zero/1.0/deed.en"/>
    <cc:permits rdf:resource="http://creativecommons.org/ns#Reproduction"/>
    <rdf:Description about="https://nft.mir.one/fingerprints"
      dc:title="TON Fingerprints"
      dc:description="This is a unique digital fingerprint created based on the algorithm for generating basic rings using a noise texture. Like human fingerprints, you can now use it for the Web3 and Metaverse era as digital biometric information."
      dc:publisher="https://nft.mir.one"
      dc:date="2022-02-22"
      dc:format="image/svg+xml"
      dc:language="en" >
      <dc:creator>
      <rdf:Bag>
        <rdf:li>EQBondcvD2_aOFADXSWJHs4ZazQDuEl9_wNvGGPxI8hGuOFU</rdf:li>
        <rdf:li>ipfs://bafkreihj7iub3fhmhq6jn62noukt5wxn3gv6bvcg7wmt6ywvlurefezckq</rdf:li>
      </rdf:Bag>
      </dc:creator>
    </rdf:Description>
  </rdf:RDF>
</metadata>
<rect width="100%" height="100%" fill="#1b1f23"/>
<g transform="translate(0.000000,1000.000000) scale(0.100000,-0.100000)"
fill="#ffffff" stroke="none">
<path d="M4748 7793 c7 -3 16 -2 19 1 4 3 -2 6 -13 5 -11 0 -14 -3 -6 -6z"/>
<path d="M4855 7765 c44 -14 166 -47 270 -75 105 -27 298 -81 430 -120 132
-39 283 -80 335 -90 52 -10 104 -21 115 -25 54 -17 -73 43 -180 85 -354 141
-688 225 -965 245 -85 5 -85 5 -5 -20z"/>
<path d="M4333 7617 c-123 -12 -123 -12 -45 -35 42 -12 176 -40 297 -62 412
-75 852 -199 1150 -324 371 -156 722 -407 616 -441 -31 -9 -107 22 -281 118
-488 268 -873 403 -1465 513 -318 59 -429 65 -595 31 -115 -24 -115 -24 -50
-35 36 -6 95 -14 132 -17 80 -8 153 -41 153 -70 0 -19 -9 -20 -120 -26 -101
-5 -136 -11 -225 -41 -58 -20 -146 -56 -197 -81 -87 -42 -90 -45 -61 -51 49
-10 75 -7 182 18 55 13 157 32 226 41 129 17 170 29 222 66 28 21 38 22 162
16 420 -19 837 -149 1426 -443 146 -73 300 -147 343 -164 181 -71 234 -114
333 -272 44 -71 348 -529 385 -582 4 -5 27 -12 52 -16 46 -7 46 -7 28 19 -10
14 -92 177 -184 361 -103 210 -196 381 -247 459 -44 68 -103 169 -130 225 -44
93 -57 110 -152 201 -153 148 -340 266 -547 346 -218 84 -661 207 -843 234
-143 20 -414 26 -565 12z"/>
<path d="M4145 7069 c-104 -15 -208 -33 -230 -39 -44 -13 -75 -36 -75 -56 0
-40 99 -49 373 -35 247 12 435 2 614 -34 158 -32 192 -46 534 -213 422 -207
553 -290 667 -421 30 -34 99 -98 155 -144 125 -101 174 -150 249 -250 102
-138 179 -296 256 -523 78 -230 95 -320 142 -719 34 -294 58 -429 95 -539 13
-39 26 -82 29 -96 7 -37 -4 613 -14 856 -11 245 -21 300 -95 524 -29 91 -66
205 -80 255 -46 154 -140 317 -281 486 -74 89 -101 109 -146 109 -45 1 -98 21
-142 55 -44 33 -73 82 -58 97 16 16 51 3 127 -46 39 -25 81 -46 94 -46 22 0
23 3 18 41 -10 75 -100 144 -220 169 -79 16 -104 27 -293 131 -244 133 -571
283 -769 352 -210 72 -469 118 -658 116 -56 -1 -187 -14 -292 -30z"/>
<path d="M3675 6906 c-57 -18 -156 -67 -255 -126 -84 -50 -84 -50 -40 -51 25
-1 99 -1 165 0 79 1 170 -5 265 -19 83 -11 253 -25 395 -30 596 -24 685 -30
767 -45 48 -9 95 -23 105 -30 17 -13 17 -15 0 -32 -16 -16 -45 -19 -245 -26
-276 -9 -696 -1 -932 19 -251 20 -404 19 -457 -6 -59 -26 -147 -89 -223 -159
-73 -67 -78 -65 65 -26 132 36 365 47 520 24 39 -6 225 -14 415 -18 375 -9
404 -13 487 -70 43 -29 81 -46 282 -125 277 -109 405 -237 388 -386 -6 -47 -6
-47 139 -200 227 -239 312 -350 474 -620 107 -176 126 -204 191 -277 59 -66
97 -155 154 -366 70 -259 79 -352 39 -429 -18 -34 -51 -38 -59 -5 -2 12 -16
81 -31 152 -32 161 -98 363 -154 475 -50 100 -303 504 -382 612 -160 216 -340
393 -490 483 -46 27 -146 91 -224 142 -159 104 -303 182 -449 243 -116 49
-123 54 -105 75 20 24 108 19 192 -11 109 -40 289 -133 410 -213 59 -39 125
-79 147 -91 41 -21 106 -27 115 -11 10 15 -81 128 -141 176 -110 87 -237 153
-458 241 -138 54 -169 61 -330 74 -154 12 -217 6 -254 -26 -26 -23 -26 -23 -6
-44 12 -11 72 -42 135 -68 95 -39 119 -54 137 -82 43 -65 92 -105 200 -164
166 -91 242 -139 334 -213 46 -37 141 -107 210 -155 224 -156 404 -346 584
-618 186 -280 266 -445 375 -773 41 -126 74 -205 97 -240 65 -95 67 -104 66
-302 -1 -203 -24 -404 -73 -637 -16 -80 -30 -168 -29 -194 1 -49 1 -49 87 126
97 195 166 387 182 500 5 41 16 143 24 225 15 152 67 433 91 492 15 36 67 73
104 73 26 0 26 6 -2 -155 -29 -161 -77 -665 -69 -723 7 -54 7 -54 59 120 84
276 124 472 126 608 0 77 -9 107 -46 147 -18 20 -19 31 -14 96 11 122 -31 516
-79 757 -65 324 -213 648 -397 867 -59 70 -288 287 -397 376 -126 102 -303
201 -530 297 -188 79 -181 75 -207 115 -43 66 -151 110 -343 141 -61 10 -221
18 -450 24 -385 10 -419 14 -524 69 -64 34 -73 35 -131 17z m1434 -491 c200
-33 530 -196 727 -360 152 -127 297 -285 399 -435 120 -176 242 -469 279 -670
33 -178 78 -584 74 -663 -6 -92 -24 -123 -56 -94 -10 10 -24 35 -31 57 -26 88
-80 412 -86 520 -11 198 -51 343 -152 545 -102 202 -263 418 -434 578 -110
104 -197 164 -305 210 -43 19 -133 61 -199 94 -138 69 -222 98 -424 147 -80
20 -149 40 -155 46 -8 8 -4 17 14 32 23 19 33 20 141 14 63 -3 157 -13 208
-21z m452 -476 c59 -42 248 -235 332 -339 239 -297 443 -723 387 -810 -18 -29
-44 5 -130 172 -159 309 -245 436 -475 698 -70 80 -140 164 -157 188 -35 50
-60 107 -51 116 15 14 53 4 94 -25z"/>
<path d="M3350 6266 c-25 -6 -64 -24 -87 -39 -24 -15 -47 -27 -53 -27 -19 0
-10 -30 15 -46 19 -13 58 -16 202 -18 252 -3 326 -27 523 -166 189 -134 454
-272 722 -374 165 -63 208 -70 208 -32 0 38 -73 93 -231 175 -136 70 -370 220
-468 299 -24 20 -57 56 -73 81 -16 25 -43 53 -61 63 -43 22 -200 64 -311 83
-105 18 -322 19 -386 1z"/>
<path d="M3370 6020 c-25 -5 -65 -9 -88 -9 -64 -1 -106 -26 -203 -117 -86 -82
-86 -82 -50 -88 20 -3 79 -6 132 -6 73 0 114 -6 180 -26 102 -31 269 -43 309
-22 14 8 25 22 25 33 0 23 -31 34 -164 59 -95 17 -123 35 -100 62 22 27 155
14 252 -25 43 -17 82 -31 87 -31 18 0 38 31 33 50 -8 30 -73 82 -129 104 -56
21 -212 30 -284 16z"/>
<path d="M3835 5743 c-11 -3 -47 -20 -80 -39 -106 -58 -163 -68 -377 -60 -118
4 -201 3 -225 -3 -39 -11 -110 -77 -186 -172 -36 -46 -36 -46 6 -43 23 2 78
12 121 24 86 22 178 31 541 55 269 18 340 11 540 -51 246 -76 243 -75 420 -84
172 -8 251 -22 342 -61 87 -37 217 -132 326 -238 307 -299 538 -723 656 -1210
73 -300 66 -524 -31 -891 -37 -144 -40 -161 -34 -242 6 -75 3 -103 -20 -194
-14 -59 -28 -114 -31 -123 -17 -51 128 175 183 285 58 117 69 147 94 273 61
300 77 578 44 739 -21 105 -155 510 -215 652 -59 139 -145 297 -244 445 -198
299 -418 513 -659 641 -88 47 -89 47 -145 37 -116 -22 -303 24 -641 157 -238
93 -328 117 -385 103z"/>
<path d="M6914 5665 c-21 -33 -14 -79 32 -202 44 -118 64 -161 109 -238 43
-72 43 -73 -36 207 -33 113 -59 215 -59 226 0 31 -28 35 -46 7z"/>
<path d="M3421 5359 c-135 -11 -304 -44 -336 -65 -39 -25 -174 -208 -163 -219
2 -2 28 5 58 16 199 72 315 96 510 105 274 13 555 -54 748 -179 198 -128 477
-383 585 -534 152 -214 247 -484 250 -713 1 -89 -2 -112 -21 -154 -26 -58 -43
-119 -76 -282 -29 -142 -63 -249 -110 -342 -90 -179 -261 -384 -419 -503 -45
-34 -101 -78 -123 -98 -42 -37 -42 -37 40 -20 235 48 294 83 441 259 136 164
251 372 279 503 8 40 20 142 25 227 10 163 20 210 46 210 24 0 35 -44 44 -170
8 -112 20 -154 48 -164 24 -10 45 64 50 174 5 90 2 120 -20 210 -14 58 -38
164 -52 235 -51 254 -147 486 -278 672 -61 86 -179 210 -409 428 -99 94 -118
117 -132 161 -9 29 -25 59 -34 67 -52 47 -275 132 -427 162 -98 20 -368 27
-524 14z"/>
<path d="M4613 5273 c-23 -9 -14 -43 15 -59 15 -8 72 -40 127 -70 178 -97 319
-216 454 -384 264 -328 440 -778 457 -1170 13 -282 -47 -473 -247 -787 -136
-212 -199 -298 -349 -474 -36 -42 -81 -96 -100 -120 -35 -44 -35 -44 -5 -23
17 12 70 43 119 69 100 54 229 148 274 199 16 19 68 90 115 158 47 67 110 155
142 193 191 238 260 625 180 1021 -134 665 -588 1297 -1029 1433 -64 20 -126
26 -153 14z"/>
<path d="M4476 5184 c-15 -14 -15 -18 1 -46 18 -30 36 -47 269 -245 349 -297
539 -648 633 -1172 13 -68 21 -157 21 -221 0 -160 -32 -244 -103 -274 -28 -11
-35 -23 -55 -87 -34 -105 -121 -280 -198 -394 -93 -140 -176 -236 -324 -376
-72 -67 -129 -123 -128 -125 3 -2 165 52 223 75 76 31 175 103 227 169 143
176 258 355 377 591 81 160 108 242 121 365 32 306 -111 795 -327 1121 -154
234 -284 356 -627 588 -75 51 -87 55 -110 31z"/>
<path d="M3315 5046 c-49 -7 -124 -21 -165 -30 -74 -18 -77 -20 -159 -104 -84
-87 -84 -87 -48 -95 25 -6 52 -4 91 7 268 78 522 85 731 19 163 -51 233 -99
348 -238 41 -49 109 -123 151 -164 64 -61 79 -71 91 -61 37 31 12 106 -70 205
-86 106 -102 145 -56 145 27 0 85 -42 190 -139 212 -194 259 -258 328 -442 90
-241 89 -405 -7 -734 -106 -361 -270 -596 -570 -817 -41 -31 -84 -65 -94 -77
-20 -22 -20 -22 40 -15 72 7 194 39 237 61 55 27 249 232 315 331 112 168 157
282 235 592 39 156 41 173 41 310 0 127 -3 157 -27 245 -34 121 -107 278 -178
380 -60 88 -222 251 -325 329 -39 29 -107 68 -150 85 -44 18 -131 57 -194 86
-202 94 -321 123 -530 130 -82 3 -170 -1 -225 -9z"/>
<path d="M7073 4885 c0 -27 2 -38 4 -22 2 15 2 37 0 50 -2 12 -4 0 -4 -28z"/>
<path d="M7082 4800 c0 -14 2 -19 5 -12 2 6 2 18 0 25 -3 6 -5 1 -5 -13z"/>
<path d="M3245 4736 c-109 -23 -141 -35 -167 -63 -42 -44 -72 -120 -69 -178 5
-102 3 -123 -17 -168 -20 -45 -20 -45 21 -49 23 -3 57 -1 76 3 19 4 91 13 161
19 254 24 412 -30 565 -192 179 -190 235 -419 170 -698 -18 -79 -25 -129 -21
-159 5 -36 1 -52 -18 -85 -28 -46 -136 -155 -209 -210 -26 -19 -59 -49 -73
-66 -26 -30 -26 -30 33 -31 113 -2 168 3 198 16 40 17 273 232 322 298 60 78
79 114 108 202 45 133 36 280 -32 505 -33 112 -60 174 -127 295 -31 55 -56
110 -56 122 0 43 23 37 76 -20 94 -101 163 -242 208 -427 15 -58 40 -144 57
-192 28 -77 31 -95 24 -152 -9 -90 -64 -242 -121 -338 -59 -97 -205 -254 -353
-377 -58 -49 -116 -102 -128 -119 -22 -30 -22 -30 15 -22 20 5 69 14 107 20
102 17 140 37 243 135 166 157 288 344 356 545 110 330 130 439 107 585 -31
187 -181 505 -240 505 -48 0 -41 -79 20 -217 28 -63 59 -140 70 -171 22 -65
49 -207 49 -261 0 -78 -34 -142 -60 -115 -5 5 -16 58 -25 118 -20 135 -53 243
-112 363 -52 108 -121 178 -231 237 -37 19 -89 58 -117 86 -114 118 -216 184
-357 232 -86 29 -105 32 -243 34 -96 2 -171 -1 -210 -10z m389 -180 c129 -44
245 -121 309 -205 48 -63 181 -321 217 -419 63 -174 83 -335 56 -462 -29 -138
-102 -250 -162 -250 -32 0 -31 14 11 101 116 248 71 544 -126 839 -33 49 -85
112 -117 140 -70 63 -194 126 -287 145 -91 19 -246 19 -363 0 -51 -9 -98 -13
-103 -10 -17 11 -9 51 14 72 63 59 176 84 347 79 102 -3 139 -8 204 -30z"/>
<path d="M3325 4170 c-134 -14 -169 -46 -196 -177 -21 -101 -4 -165 102 -389
38 -81 98 -147 161 -178 69 -35 97 -33 135 7 40 41 53 75 53 141 0 83 -57 141
-80 82 -25 -66 -130 -57 -130 12 0 32 47 80 91 93 86 26 162 -30 198 -146 37
-118 62 -137 81 -63 30 110 -43 262 -154 321 -60 32 -184 31 -246 -1 -25 -13
-55 -35 -68 -48 -27 -28 -44 -30 -67 -7 -21 21 -15 71 15 112 11 17 46 42 78
58 49 24 69 28 142 28 72 0 94 -4 147 -29 78 -36 164 -123 199 -203 51 -116
39 -248 -25 -280 -15 -7 -36 -38 -57 -81 -39 -86 -98 -152 -173 -194 -31 -17
-68 -41 -82 -53 -26 -21 -26 -21 40 -44 36 -13 94 -26 127 -29 61 -5 62 -4
107 37 65 60 103 125 149 254 83 230 60 411 -75 586 -55 71 -164 147 -247 171
-84 24 -139 29 -225 20z"/>
<path d="M5697 2720 c-15 -12 -82 -105 -150 -208 -137 -207 -188 -295 -160
-271 10 9 59 50 110 92 106 89 188 179 238 263 61 100 36 182 -38 124z"/>
</g>
</svg>
