<?xml version="1.0" standalone="no"?>
<!DOCTYPE svg PUBLIC "-//W3C//DTD SVG 20010904//EN"
 "http://www.w3.org/TR/2001/REC-SVG-20010904/DTD/svg10.dtd">
<svg version="1.0" xmlns="http://www.w3.org/2000/svg"
 width="1000.000000pt" height="1000.000000pt" viewBox="0 0 1000.000000 1000.000000"
 preserveAspectRatio="xMidYMid meet">
<metadata>
  <rdf:RDF
    xmlns:rdf = "http://www.w3.org/1999/02/22-rdf-syntax-ns#"
    xmlns:rdfs = "http://www.w3.org/2000/01/rdf-schema#"
    xmlns:dc = "http://purl.org/dc/elements/1.1/"
    xmlns:cc = "http://creativecommons.org/ns#">
    <cc:license rdf:resource="http://creativecommons.org/publicdomain/zero/1.0/deed.en"/>
    <cc:permits rdf:resource="http://creativecommons.org/ns#Reproduction"/>
    <rdf:Description about="https://nft.mir.one/fingerprints"
      dc:title="TON Fingerprints"
      dc:description="This is a unique digital fingerprint created based on the algorithm for generating basic rings using a noise texture. Like human fingerprints, you can now use it for the Web3 and Metaverse era as digital biometric information."
      dc:publisher="https://nft.mir.one"
      dc:date="2022-02-22"
      dc:format="image/svg+xml"
      dc:language="en" >
      <dc:creator>
      <rdf:Bag>
        <rdf:li>EQBondcvD2_aOFADXSWJHs4ZazQDuEl9_wNvGGPxI8hGuOFU</rdf:li>
        <rdf:li>ipfs://bafkreihj7iub3fhmhq6jn62noukt5wxn3gv6bvcg7wmt6ywvlurefezckq</rdf:li>
      </rdf:Bag>
      </dc:creator>
    </rdf:Description>
  </rdf:RDF>
</metadata>
<rect width="100%" height="100%" fill="#1b1f23"/>
<g transform="translate(0.000000,1000.000000) scale(0.100000,-0.100000)"
fill="#ffffff" stroke="none">
<path d="M5338 7773 c6 -2 18 -2 25 0 6 3 1 5 -13 5 -14 0 -19 -2 -12 -5z"/>
<path d="M4920 7763 c-185 -13 -291 -38 -404 -93 -45 -22 -144 -63 -221 -91
-137 -50 -359 -148 -352 -156 3 -2 17 1 32 7 40 15 338 77 410 85 48 6 79 2
160 -20 95 -25 115 -27 410 -32 265 -5 329 -3 435 12 145 21 268 16 400 -15
47 -11 125 -29 175 -40 49 -11 99 -23 110 -26 86 -23 -208 107 -332 146 -174
56 -254 63 -653 56 -195 -4 -389 -9 -431 -12 -62 -5 -78 -3 -92 11 -13 13 -15
21 -6 37 22 41 144 71 339 83 129 8 343 32 390 44 34 9 -264 12 -370 4z"/>
<path d="M5441 7367 c-71 -36 -23 -67 182 -117 198 -48 360 -100 502 -160 104
-44 369 -179 418 -212 57 -40 23 -5 -85 88 -244 208 -520 353 -761 399 -95 18
-223 19 -256 2z"/>
<path d="M4252 7349 c-74 -12 -189 -52 -275 -95 -84 -42 -107 -60 -107 -84 0
-36 45 -38 226 -10 71 11 185 22 254 25 69 3 188 10 265 17 108 8 161 8 225
-1 164 -24 366 -69 505 -114 77 -25 213 -66 302 -91 262 -74 437 -145 610
-248 122 -73 183 -129 163 -153 -22 -27 -66 -16 -172 40 -147 80 -258 132
-373 175 -102 39 -150 51 -610 160 -280 67 -385 95 -483 130 -51 19 -67 21
-87 12 -37 -17 -30 -39 20 -70 27 -16 44 -33 43 -42 -5 -26 -61 -22 -142 10
-105 42 -218 48 -508 26 -123 -9 -242 -19 -265 -22 -73 -9 -346 -209 -508
-374 -77 -78 -78 -80 -38 -60 23 11 47 20 52 20 6 0 34 14 62 31 167 98 387
188 535 218 185 38 367 47 581 28 103 -9 235 -16 293 -15 118 2 180 -7 426
-63 119 -27 195 -39 248 -39 148 0 316 -50 538 -160 264 -131 342 -191 440
-340 68 -105 127 -170 216 -244 67 -54 210 -136 239 -136 8 0 27 -7 42 -15 28
-14 28 -14 -6 51 -31 58 -34 68 -23 94 6 16 10 37 7 47 -3 12 -5 10 -6 -8 -1
-17 -11 -33 -27 -44 -25 -16 -28 -16 -53 2 -14 11 -64 69 -111 130 -47 60
-108 136 -136 169 -104 121 -135 180 -103 199 29 19 72 -14 228 -173 174 -177
175 -176 43 28 -52 79 -102 142 -163 200 -48 47 -108 113 -133 147 -25 34 -75
87 -112 117 -114 94 -371 209 -639 286 -218 62 -294 91 -348 131 -28 22 -74
46 -102 54 -155 44 -867 81 -1033 54z"/>
<path d="M3615 7064 c-45 -25 -52 -33 -30 -28 53 12 107 46 93 59 -2 2 -31
-12 -63 -31z"/>
<path d="M4155 6749 c-200 -21 -391 -80 -595 -185 -175 -89 -287 -205 -446
-460 -96 -155 -100 -156 81 14 155 145 338 269 515 347 299 133 517 159 900
111 527 -67 588 -85 999 -291 340 -171 729 -388 835 -466 122 -91 272 -238
354 -348 34 -45 100 -147 146 -225 47 -77 101 -157 121 -176 37 -35 37 -35 22
-5 -8 17 -31 90 -51 164 -60 221 -141 418 -201 489 -28 34 -278 237 -372 303
-35 24 -76 42 -111 50 -82 17 -135 39 -275 118 -69 38 -223 121 -344 183 -120
63 -250 138 -288 167 -81 63 -117 80 -240 116 -138 40 -289 62 -570 85 -271
21 -350 23 -480 9z"/>
<path d="M5522 6648 c-35 -35 -4 -58 258 -185 214 -104 261 -130 459 -251 115
-71 167 -69 136 5 -40 95 -307 268 -585 378 -156 62 -242 79 -268 53z"/>
<path d="M4125 6466 c-236 -45 -482 -153 -670 -295 -184 -138 -256 -222 -341
-396 -120 -246 -188 -552 -197 -895 -3 -80 -3 -120 -1 -90 12 168 74 453 134
608 177 460 565 795 1065 918 118 29 300 43 333 25 59 -32 1 -65 -183 -106
-372 -83 -645 -234 -859 -474 -185 -209 -295 -484 -327 -817 -19 -207 0 -382
64 -574 20 -58 52 -159 72 -225 50 -163 94 -244 164 -303 31 -26 119 -107 196
-182 232 -224 372 -333 557 -433 157 -86 404 -180 556 -212 93 -19 280 -19
371 0 246 52 550 250 780 510 49 56 105 109 125 120 42 23 63 77 48 123 -17
54 -44 41 -165 -74 -146 -140 -208 -185 -309 -224 -46 -17 -112 -48 -148 -69
-163 -96 -277 -142 -416 -166 -167 -29 -337 -13 -526 49 -271 89 -462 211
-684 438 -180 183 -248 278 -299 420 -44 120 -43 186 3 464 43 256 69 343 127
430 54 82 248 307 320 370 135 119 342 241 367 216 22 -22 -9 -59 -133 -153
-251 -191 -429 -411 -499 -615 -51 -147 -64 -466 -26 -609 71 -264 338 -574
616 -715 175 -88 340 -130 514 -130 166 0 293 31 435 105 88 46 135 87 213
183 34 42 106 124 159 182 209 226 273 323 305 466 22 100 15 275 -16 389
-104 391 -494 739 -980 876 -57 16 -122 41 -143 55 -86 57 -175 67 -325 39
-65 -13 -90 -13 -127 -4 -158 40 -391 -107 -631 -397 -83 -101 -98 -114 -135
-114 -27 0 -24 19 17 97 103 198 320 400 518 482 85 35 181 56 359 77 212 25
377 5 517 -65 113 -56 442 -242 517 -292 340 -228 556 -539 604 -868 23 -161
-3 -420 -51 -498 -10 -17 -56 -59 -102 -94 -94 -71 -323 -292 -363 -349 -32
-46 -30 -84 3 -88 34 -5 95 36 207 137 55 50 125 108 155 127 30 20 74 57 98
81 40 43 43 45 65 31 48 -32 106 -243 107 -388 0 -117 -26 -204 -115 -385 -73
-149 -109 -208 -217 -357 -31 -43 -68 -109 -83 -147 -16 -44 -38 -80 -57 -96
-140 -118 -523 -259 -788 -290 -30 -4 -86 -13 -125 -20 -85 -17 -127 -9 -227
41 -47 23 -120 47 -220 70 -82 19 -152 34 -156 33 -4 0 54 -22 129 -48 75 -27
176 -66 225 -89 112 -50 168 -62 302 -62 269 0 525 58 807 180 66 29 174 74
240 101 65 27 150 67 187 90 73 43 91 61 31 30 -88 -44 -201 -63 -244 -41 -39
21 -21 47 116 165 74 63 143 128 152 142 12 18 18 47 18 88 0 53 7 76 67 201
79 168 116 281 124 378 5 59 0 101 -32 251 -39 180 -39 180 -40 510 0 330 0
330 -27 419 -74 240 -191 430 -380 618 -153 152 -313 262 -589 404 -134 69
-188 115 -167 140 17 20 50 17 137 -12 258 -85 552 -273 768 -488 169 -169
287 -341 369 -540 72 -175 91 -302 60 -416 -27 -101 -37 -272 -26 -457 13
-213 34 -278 84 -251 49 26 70 174 65 465 -3 237 0 253 49 217 75 -56 106
-356 57 -553 -20 -80 -44 -129 -99 -202 -28 -38 -54 -92 -79 -165 -52 -152
-120 -288 -215 -433 -52 -79 -78 -128 -72 -134 20 -20 68 6 131 71 187 191
445 710 495 996 19 111 19 180 0 287 -18 107 -37 160 -126 361 -189 428 -317
629 -534 837 -226 216 -581 437 -831 516 -85 27 -98 28 -334 33 -135 2 -279 4
-320 3 -132 -2 -396 -52 -565 -108 -284 -93 -530 -295 -648 -532 -40 -81 -42
-88 -43 -185 -1 -67 -9 -127 -23 -176 -29 -109 -48 -218 -61 -360 -13 -145
-25 -196 -45 -204 -55 -21 -86 149 -65 359 13 138 61 400 91 495 45 145 132
281 261 407 187 184 364 276 703 367 94 25 208 57 255 71 115 36 243 42 440
21 268 -29 408 -69 640 -185 464 -233 765 -486 993 -836 218 -335 340 -638
337 -840 -2 -114 -2 -125 8 -125 4 0 15 20 25 45 66 159 32 583 -61 770 -32
65 -159 263 -227 354 -187 250 -363 394 -748 615 -487 279 -726 365 -1162 416
-119 14 -207 30 -260 47 -97 32 -276 40 -390 19z m549 -882 c24 -9 19 -40 -9
-62 -14 -11 -80 -48 -148 -81 -263 -131 -473 -332 -576 -553 -51 -108 -68
-201 -47 -251 28 -68 68 -41 111 74 107 285 272 463 548 594 229 109 366 110
582 6 121 -59 176 -98 273 -193 183 -180 273 -379 274 -608 2 -175 -52 -322
-179 -487 -103 -136 -161 -177 -459 -328 -221 -112 -453 -117 -701 -14 -185
77 -318 212 -422 429 -56 116 -87 215 -125 402 -30 147 -31 164 -10 266 43
216 208 429 502 649 124 94 188 127 286 148 73 16 80 17 100 9z"/>
<path d="M4662 5221 c-147 -42 -308 -148 -402 -264 -62 -76 -103 -154 -171
-322 -46 -114 -52 -139 -52 -198 0 -58 6 -79 37 -142 46 -93 72 -115 140 -115
28 0 85 -9 126 -20 232 -62 362 -40 473 79 89 95 118 217 77 323 -59 158 -251
193 -319 59 -34 -65 -71 -60 -71 9 0 95 107 180 225 180 92 0 151 -24 216 -89
91 -92 124 -212 95 -351 -51 -243 -227 -399 -451 -400 -91 0 -178 25 -303 86
-91 45 -116 53 -127 44 -36 -30 -6 -109 65 -173 249 -224 697 -194 839 57 45
79 120 262 138 335 68 287 -80 561 -337 627 -221 56 -471 -100 -474 -297 -1
-96 54 -149 157 -149 64 0 97 22 97 64 0 43 44 42 81 -1 23 -26 30 -64 18
-106 -35 -127 -201 -178 -345 -107 -124 61 -170 177 -129 329 46 175 182 316
364 378 73 25 201 30 281 12 224 -51 410 -270 440 -517 17 -134 -12 -265 -101
-451 -54 -114 -62 -165 -28 -176 65 -21 209 167 276 360 34 98 43 266 18 367
-64 269 -290 507 -541 572 -83 21 -231 20 -312 -3z"/>
<path d="M2922 4620 c0 -14 2 -19 5 -12 2 6 2 18 0 25 -3 6 -5 1 -5 -13z"/>
<path d="M2931 4534 c0 -11 3 -14 6 -6 3 7 2 16 -1 19 -3 4 -6 -2 -5 -13z"/>
<path d="M2941 4474 c0 -11 3 -14 6 -6 3 7 2 16 -1 19 -3 4 -6 -2 -5 -13z"/>
<path d="M2951 4424 c0 -11 3 -14 6 -6 3 7 2 16 -1 19 -3 4 -6 -2 -5 -13z"/>
<path d="M2962 4375 c0 -11 4 -33 8 -50 7 -27 8 -27 8 -5 0 14 -4 36 -8 50 -6
20 -8 21 -8 5z"/>
<path d="M2982 4270 c0 -14 2 -19 5 -12 2 6 2 18 0 25 -3 6 -5 1 -5 -13z"/>
<path d="M2992 4205 c0 -16 2 -22 5 -12 2 9 2 23 0 30 -3 6 -5 -1 -5 -18z"/>
<path d="M3303 3670 c9 -66 106 -219 233 -366 125 -144 334 -285 671 -450 264
-129 317 -165 348 -233 20 -45 38 -54 140 -76 143 -30 351 -13 520 41 148 48
269 119 373 219 274 261 505 651 462 780 -19 58 -40 45 -103 -63 -77 -130
-143 -217 -250 -328 -269 -282 -528 -405 -827 -391 -137 6 -185 20 -412 118
-473 205 -629 307 -924 606 -148 150 -186 183 -209 183 -27 0 -27 -2 -22 -40z"/>
<path d="M3346 3270 c97 -120 226 -257 309 -332 304 -272 768 -489 850 -397
19 20 18 20 -10 44 -17 13 -100 52 -185 87 -85 34 -218 94 -295 133 -203 102
-486 297 -630 433 -33 31 -50 46 -39 32z"/>
</g>
</svg>
