<?xml version="1.0" standalone="no"?>
<!DOCTYPE svg PUBLIC "-//W3C//DTD SVG 20010904//EN"
 "http://www.w3.org/TR/2001/REC-SVG-20010904/DTD/svg10.dtd">
<svg version="1.0" xmlns="http://www.w3.org/2000/svg"
 width="1000.000000pt" height="1000.000000pt" viewBox="0 0 1000.000000 1000.000000"
 preserveAspectRatio="xMidYMid meet">
<metadata>
  <rdf:RDF
    xmlns:rdf = "http://www.w3.org/1999/02/22-rdf-syntax-ns#"
    xmlns:rdfs = "http://www.w3.org/2000/01/rdf-schema#"
    xmlns:dc = "http://purl.org/dc/elements/1.1/"
    xmlns:cc = "http://creativecommons.org/ns#">
    <cc:license rdf:resource="http://creativecommons.org/publicdomain/zero/1.0/deed.en"/>
    <cc:permits rdf:resource="http://creativecommons.org/ns#Reproduction"/>
    <rdf:Description about="https://nft.mir.one/fingerprints"
      dc:title="TON Fingerprints"
      dc:description="This is a unique digital fingerprint created based on the algorithm for generating basic rings using a noise texture. Like human fingerprints, you can now use it for the Web3 and Metaverse era as digital biometric information."
      dc:publisher="https://nft.mir.one"
      dc:date="2022-02-22"
      dc:format="image/svg+xml"
      dc:language="en" >
      <dc:creator>
      <rdf:Bag>
        <rdf:li>EQBondcvD2_aOFADXSWJHs4ZazQDuEl9_wNvGGPxI8hGuOFU</rdf:li>
        <rdf:li>ipfs://bafkreihj7iub3fhmhq6jn62noukt5wxn3gv6bvcg7wmt6ywvlurefezckq</rdf:li>
      </rdf:Bag>
      </dc:creator>
    </rdf:Description>
  </rdf:RDF>
</metadata>
<rect width="100%" height="100%" fill="#1b1f23"/>
<g transform="translate(0.000000,1000.000000) scale(0.100000,-0.100000)"
fill="#ffffff" stroke="none">
<path d="M5038 7813 c6 -2 18 -2 25 0 6 3 1 5 -13 5 -14 0 -19 -2 -12 -5z"/>
<path d="M4893 7803 c15 -2 37 -2 50 0 12 2 0 4 -28 4 -27 0 -38 -2 -22 -4z"/>
<path d="M5168 7803 c7 -3 16 -2 19 1 4 3 -2 6 -13 5 -11 0 -14 -3 -6 -6z"/>
<path d="M4750 7789 c-87 -16 -200 -42 -196 -46 2 -2 59 7 127 21 68 14 138
27 154 29 28 4 27 4 -5 4 -19 1 -55 -3 -80 -8z"/>
<path d="M5251 7774 c9 -10 19 -26 22 -34 4 -10 6 -8 6 7 1 13 -8 27 -21 34
-22 11 -22 11 -7 -7z"/>
<path d="M4495 7730 c-13 -5 -14 -9 -5 -9 8 0 24 4 35 9 13 5 14 9 5 9 -8 0
-24 -4 -35 -9z"/>
<path d="M4448 7713 c7 -3 16 -2 19 1 4 3 -2 6 -13 5 -11 0 -14 -3 -6 -6z"/>
<path d="M5279 7680 c-21 -11 -77 -24 -130 -30 -352 -41 -514 -76 -693 -149
-196 -80 -265 -132 -469 -348 -181 -193 -246 -274 -375 -468 -212 -317 -343
-598 -416 -890 -81 -321 -86 -718 -11 -980 28 -100 337 -736 373 -768 11 -10
51 -25 88 -33 110 -23 159 -59 429 -324 312 -307 388 -362 580 -423 122 -38
228 -50 389 -44 227 8 380 65 573 211 207 157 370 353 483 581 81 162 107 253
144 495 50 326 55 495 20 705 -50 298 -212 560 -459 741 -44 32 -139 91 -210
129 -138 75 -195 120 -195 153 0 33 33 35 137 8 249 -66 472 -232 655 -490
158 -223 241 -557 224 -901 -30 -599 -194 -1005 -566 -1409 -210 -228 -501
-347 -850 -348 -208 -1 -386 36 -548 113 -106 51 -217 144 -477 400 -248 243
-359 339 -396 339 -27 0 -42 -43 -30 -86 9 -34 80 -108 517 -548 167 -169 200
-197 270 -233 214 -111 554 -165 839 -133 195 22 436 84 551 143 106 54 161
114 348 376 251 353 356 563 426 854 52 217 64 334 64 627 1 214 -3 284 -18
365 -51 279 -153 484 -354 711 -135 152 -255 259 -334 298 -172 87 -383 88
-476 3 -19 -17 -42 -22 -146 -28 -148 -10 -255 -31 -316 -62 -38 -20 -48 -31
-64 -76 -13 -35 -16 -55 -9 -62 19 -19 86 -29 198 -29 65 0 135 -6 170 -15
124 -32 450 -209 585 -318 210 -170 320 -434 320 -766 0 -140 -7 -192 -46
-364 -25 -108 -27 -125 -17 -185 14 -83 4 -144 -42 -253 -99 -234 -246 -413
-455 -552 -41 -27 -102 -77 -135 -111 -109 -112 -241 -152 -474 -143 -157 6
-254 28 -370 84 -67 32 -95 55 -236 198 -88 89 -180 190 -205 224 -110 155
-130 180 -172 214 -26 21 -81 50 -128 67 -93 33 -149 73 -209 145 -83 101
-194 330 -246 510 -51 178 -60 250 -60 525 0 227 3 267 23 369 59 289 184 555
443 943 124 185 254 337 399 465 219 194 403 280 815 378 105 25 240 62 300
82 94 30 131 36 255 44 80 5 165 7 190 4 61 -6 -151 50 -260 70 -111 20 -167
18 -211 -5z"/>
<path d="M3981 7426 c-1 -10 -80 -96 -179 -195 -229 -227 -367 -417 -521 -721
-303 -595 -404 -1182 -315 -1831 15 -110 15 -123 0 -160 -9 -21 -15 -58 -15
-82 2 -42 2 -42 8 7 7 50 29 76 63 76 23 0 45 -44 103 -206 26 -71 69 -174 95
-229 27 -54 46 -103 44 -107 -10 -17 -64 -7 -91 16 -44 37 -143 190 -174 270
-37 93 -37 73 0 -35 40 -117 76 -201 123 -284 96 -166 230 -422 235 -446 4
-23 1 -27 -25 -32 -16 -3 -40 -3 -53 0 -19 4 -13 -5 28 -43 28 -27 85 -89 126
-139 148 -179 294 -311 434 -391 83 -47 278 -115 454 -158 176 -43 390 -67
654 -73 272 -6 367 3 637 63 215 47 248 45 234 -11 -12 -46 -144 -106 -316
-143 -147 -32 -261 -43 -436 -43 -144 0 -260 7 -646 42 -145 13 -277 44 -433
104 -66 26 -150 57 -186 69 -36 13 -80 31 -97 40 -61 32 -31 8 91 -72 276
-181 459 -257 659 -273 67 -5 187 -19 267 -30 352 -49 600 -33 868 56 132 44
207 83 380 197 77 51 188 122 246 157 73 44 129 88 179 140 40 41 62 66 48 55
-63 -54 -107 -74 -193 -88 -81 -15 -95 -14 -165 1 -42 10 -93 17 -112 17 -66
-1 -297 -34 -442 -64 -256 -52 -342 -63 -533 -63 -288 -1 -488 32 -755 126
-111 39 -177 56 -234 61 -100 9 -155 30 -260 100 -90 60 -273 228 -338 310
-37 47 -38 51 -33 105 7 64 -19 207 -60 325 -29 84 -30 105 -9 166 13 37 14
55 4 102 -21 108 -127 332 -218 461 -30 43 -63 101 -74 129 -44 118 -68 315
-68 567 1 299 43 515 161 812 175 443 408 812 705 1119 144 149 166 182 146
223 -9 19 -11 20 -11 3z"/>
<path d="M5365 7418 c-97 -18 -391 -88 -480 -113 -289 -84 -504 -208 -703
-405 -111 -111 -193 -218 -294 -385 -47 -77 -117 -189 -157 -250 -130 -197
-214 -400 -247 -603 -30 -180 -4 -613 50 -824 66 -259 217 -529 323 -574 38
-17 59 -10 67 20 8 33 -1 58 -80 227 -124 264 -150 388 -139 655 7 172 7 172
-27 235 -31 61 -33 69 -33 169 1 131 25 222 99 375 64 132 124 215 185 255 62
42 131 38 131 -7 0 -8 -24 -42 -54 -77 -161 -190 -288 -539 -250 -683 10 -35
48 -30 80 11 15 19 53 99 84 178 31 78 92 213 136 298 45 87 86 180 93 212 14
65 29 80 133 128 45 21 86 31 143 36 93 7 221 37 425 99 170 51 257 73 440
112 120 25 155 28 320 28 176 0 191 -2 317 -34 127 -31 136 -32 202 -21 62 12
75 11 138 -8 215 -66 482 -342 635 -658 52 -107 52 -107 61 -358 6 -169 5
-310 -2 -431 -7 -99 -16 -281 -21 -405 -16 -350 -58 -515 -204 -805 -100 -197
-221 -381 -366 -554 -119 -141 -138 -172 -115 -191 27 -22 70 3 155 89 177
178 385 539 489 849 72 214 96 356 111 636 6 111 15 282 20 381 8 141 8 214
-3 335 -8 85 -12 185 -10 223 4 54 0 84 -22 155 -95 304 -250 586 -415 752
-62 62 -94 85 -180 128 -58 29 -140 61 -183 72 -112 28 -308 43 -567 44 -191
0 -244 -3 -353 -23 -255 -45 -454 -111 -742 -245 -120 -57 -142 -64 -154 -51
-12 11 -12 19 -1 44 51 125 441 321 775 389 172 36 270 43 554 41 227 -1 288
2 346 16 56 13 77 14 114 5 67 -17 194 -80 298 -149 51 -33 112 -70 135 -82
24 -12 59 -33 78 -47 55 -42 -256 291 -392 419 -202 190 -279 245 -430 309
-122 52 -212 70 -345 69 -65 -1 -140 -5 -168 -11z m395 -197 c111 -22 218 -60
262 -94 48 -37 68 -78 49 -100 -10 -13 -23 -12 -98 4 -187 41 -300 52 -478 46
-178 -6 -254 -17 -445 -68 -312 -83 -552 -216 -718 -397 -214 -233 -236 -250
-262 -201 -16 28 7 90 61 171 58 87 248 273 344 336 175 116 392 205 630 257
79 17 124 32 132 43 11 15 36 17 235 17 141 -1 247 -6 288 -14z"/>
<path d="M6100 6357 c0 -38 30 -76 168 -216 165 -167 286 -353 348 -533 65
-192 92 -477 75 -790 -31 -553 -128 -839 -449 -1318 -199 -297 -246 -399 -204
-450 19 -24 19 -24 68 1 45 22 51 30 77 93 15 38 64 122 110 185 275 387 396
618 472 904 78 291 104 963 50 1302 -31 196 -111 360 -266 550 -138 169 -323
305 -414 305 -33 0 -35 -2 -35 -33z"/>
<path d="M4625 6189 c-116 -33 -248 -103 -309 -163 -69 -69 -164 -213 -226
-340 -115 -237 -128 -364 -46 -433 49 -41 60 -63 119 -238 61 -179 99 -261
163 -351 141 -200 393 -317 646 -301 112 7 204 30 304 77 203 94 327 223 391
407 23 67 27 95 27 193 0 131 -14 195 -76 353 -48 120 -58 177 -34 196 21 17
35 6 86 -69 56 -82 97 -169 126 -267 34 -112 39 -299 11 -403 -64 -242 -256
-426 -555 -534 -256 -92 -592 -69 -837 57 -187 96 -309 282 -396 606 -27 100
-55 146 -88 146 -70 0 -91 -144 -47 -320 35 -136 175 -421 246 -498 56 -61 91
-78 218 -106 227 -51 505 -76 666 -61 184 18 306 56 535 168 108 52 124 64
227 167 170 169 208 265 208 530 0 124 -4 165 -22 235 -30 111 -99 252 -156
317 -51 57 -132 103 -182 103 -24 0 -59 18 -129 66 -186 126 -323 174 -503
174 -280 0 -478 -128 -685 -442 -111 -169 -152 -205 -188 -162 -11 14 -10 27
10 83 52 151 152 318 255 429 72 77 149 133 276 201 92 49 140 83 140 100 0
21 -24 77 -38 89 -21 16 -54 14 -137 -9z m455 -510 c78 -12 178 -57 238 -106
115 -94 222 -344 222 -517 -1 -221 -117 -401 -325 -504 -88 -44 -177 -64 -280
-65 -149 0 -251 42 -290 119 -11 22 -54 75 -96 120 -156 165 -203 345 -137
522 65 173 207 326 367 393 107 45 192 56 301 38z"/>
<path d="M4915 5500 c-82 -17 -155 -58 -219 -122 -80 -81 -117 -157 -124 -253
-11 -174 79 -286 252 -316 156 -26 273 28 307 141 16 52 -9 123 -51 145 -40
21 -84 19 -104 -4 -24 -26 -17 -73 11 -86 32 -14 36 -32 13 -55 -42 -42 -133
-16 -182 51 -68 92 2 244 128 279 87 25 194 -12 249 -85 94 -123 82 -281 -30
-391 -81 -80 -137 -98 -313 -99 -117 -1 -146 -5 -159 -18 -14 -14 -14 -18 -3
-32 39 -47 173 -81 274 -70 280 32 458 226 444 484 -11 188 -121 353 -276 411
-64 24 -159 33 -217 20z"/>
<path d="M5925 4434 c-16 -8 -72 -60 -123 -115 -94 -99 -94 -99 -145 -99 -38
0 -74 -10 -132 -36 -317 -143 -448 -165 -824 -140 -124 8 -228 13 -233 10 -4
-3 -55 1 -113 7 -101 12 -107 12 -126 -8 -15 -15 -18 -27 -13 -47 8 -32 160
-206 216 -246 37 -27 46 -29 97 -24 36 4 101 -1 181 -15 186 -31 301 -35 516
-17 136 11 207 21 244 35 117 45 257 163 332 281 107 170 193 364 179 403 -10
28 -20 30 -56 11z m-220 -265 c16 -25 -8 -80 -56 -133 -139 -152 -343 -219
-674 -219 -153 0 -354 20 -437 43 -48 14 -94 52 -83 70 8 14 73 12 348 -11
250 -20 467 12 642 95 76 36 169 100 223 153 16 16 29 17 37 2z"/>
<path d="M2961 4354 c0 -11 3 -14 6 -6 3 7 2 16 -1 19 -3 4 -6 -2 -5 -13z"/>
<path d="M3512 3698 c-29 -29 3 -150 65 -241 44 -67 211 -227 295 -285 124
-85 198 -101 198 -44 0 22 -33 60 -169 192 -92 91 -203 209 -245 262 -68 86
-109 128 -126 128 -3 0 -11 -5 -18 -12z"/>
<path d="M4495 3670 c-18 -30 54 -100 145 -138 108 -46 177 -57 360 -57 154 0
184 3 247 23 82 25 128 58 118 84 -11 27 -57 31 -208 18 -204 -18 -375 0 -537
55 -78 27 -115 31 -125 15z"/>
<path d="M4450 2316 c0 -8 255 -65 403 -91 82 -14 178 -24 215 -23 46 1 54 3
27 5 -22 2 -121 22 -220 43 -223 48 -425 79 -425 66z"/>
</g>
</svg>
