<?xml version="1.0" standalone="no"?>
<!DOCTYPE svg PUBLIC "-//W3C//DTD SVG 20010904//EN"
 "http://www.w3.org/TR/2001/REC-SVG-20010904/DTD/svg10.dtd">
<svg version="1.0" xmlns="http://www.w3.org/2000/svg"
 width="1000.000000pt" height="1000.000000pt" viewBox="0 0 1000.000000 1000.000000"
 preserveAspectRatio="xMidYMid meet">
<metadata>
  <rdf:RDF
    xmlns:rdf = "http://www.w3.org/1999/02/22-rdf-syntax-ns#"
    xmlns:rdfs = "http://www.w3.org/2000/01/rdf-schema#"
    xmlns:dc = "http://purl.org/dc/elements/1.1/"
    xmlns:cc = "http://creativecommons.org/ns#">
    <cc:license rdf:resource="http://creativecommons.org/publicdomain/zero/1.0/deed.en"/>
    <cc:permits rdf:resource="http://creativecommons.org/ns#Reproduction"/>
    <rdf:Description about="https://nft.mir.one/fingerprints"
      dc:title="TON Fingerprints"
      dc:description="This is a unique digital fingerprint created based on the algorithm for generating basic rings using a noise texture. Like human fingerprints, you can now use it for the Web3 and Metaverse era as digital biometric information."
      dc:publisher="https://nft.mir.one"
      dc:date="2022-02-22"
      dc:format="image/svg+xml"
      dc:language="en" >
      <dc:creator>
      <rdf:Bag>
        <rdf:li>EQBondcvD2_aOFADXSWJHs4ZazQDuEl9_wNvGGPxI8hGuOFU</rdf:li>
        <rdf:li>ipfs://bafkreihj7iub3fhmhq6jn62noukt5wxn3gv6bvcg7wmt6ywvlurefezckq</rdf:li>
      </rdf:Bag>
      </dc:creator>
    </rdf:Description>
  </rdf:RDF>
</metadata>
<rect width="100%" height="100%" fill="#1b1f23"/>
<g transform="translate(0.000000,1000.000000) scale(0.100000,-0.100000)"
fill="#ffffff" stroke="none">
<path d="M5095 7797 c17 -12 50 -40 75 -62 25 -22 66 -58 93 -79 26 -21 128
-115 226 -209 179 -173 223 -210 451 -379 139 -103 288 -246 368 -353 70 -93
134 -223 173 -348 17 -56 69 -185 116 -286 106 -228 121 -274 133 -384 10
-101 28 -144 124 -305 36 -61 86 -152 110 -201 25 -49 62 -105 83 -124 20 -20
39 -35 40 -33 1 1 -8 47 -21 102 -14 54 -34 143 -46 197 -14 62 -36 125 -60
171 -21 39 -55 125 -75 191 -77 251 -101 318 -212 585 -129 310 -178 408 -256
512 -63 84 -193 219 -287 300 -56 48 -538 428 -685 540 -55 42 -163 98 -295
152 -66 28 -78 31 -55 13z"/>
<path d="M4743 7661 c208 -117 310 -197 538 -418 212 -207 295 -302 349 -404
84 -155 301 -434 513 -657 73 -76 170 -192 217 -258 164 -231 213 -284 254
-268 51 20 8 133 -159 413 -81 137 -122 184 -173 199 -58 18 -111 69 -291 286
-250 301 -260 315 -241 346 30 48 230 -149 464 -459 42 -55 86 -105 97 -112
59 -31 66 41 15 146 -48 100 -122 200 -233 315 -111 116 -189 178 -288 227
-90 46 -161 103 -376 306 -97 91 -198 185 -225 207 -108 91 -334 178 -484 187
-85 5 -85 5 23 -56z"/>
<path d="M4387 7643 c58 -61 145 -129 323 -255 74 -52 158 -116 187 -142 58
-53 98 -124 89 -160 -5 -21 8 -35 107 -112 213 -167 412 -385 605 -666 50 -73
126 -176 169 -229 43 -53 140 -173 215 -267 326 -402 414 -541 460 -727 19
-78 22 -118 22 -295 1 -228 -8 -281 -55 -331 -49 -53 -53 -42 -60 172 -11 345
-64 541 -201 743 -57 85 -298 393 -438 561 -139 167 -168 208 -215 309 -51
106 -149 229 -303 378 -145 140 -274 232 -386 274 -39 15 -136 54 -216 87 -80
33 -214 88 -299 123 -84 34 -203 75 -265 90 -103 24 -116 26 -188 15 -42 -7
-129 -26 -192 -44 -115 -33 -115 -33 -53 -49 34 -10 96 -22 137 -28 216 -31
423 -93 745 -222 237 -95 319 -136 440 -215 211 -139 475 -398 475 -465 0 -19
-24 -23 -56 -11 -9 3 -90 67 -178 141 -265 221 -427 319 -706 427 -279 109
-620 208 -756 222 -73 7 -133 -6 -263 -55 -110 -43 -108 -44 79 -68 174 -22
298 -51 480 -109 91 -29 232 -74 314 -100 298 -93 430 -165 761 -414 77 -58
179 -128 227 -156 49 -27 113 -70 144 -95 74 -59 215 -220 349 -400 59 -80
135 -174 168 -210 140 -153 188 -280 247 -660 24 -157 56 -233 108 -265 33
-20 33 -20 28 -205 -7 -245 -44 -533 -108 -845 -30 -148 -64 -247 -128 -375
-84 -168 -140 -303 -151 -368 -5 -31 -12 -68 -15 -82 -3 -16 6 -6 24 25 42 76
216 327 279 403 64 78 73 94 119 213 67 173 100 332 174 827 16 111 44 276 60
365 32 167 56 466 54 672 0 89 -4 109 -32 178 -53 130 -108 213 -216 326 -57
58 -154 171 -216 251 -62 80 -166 206 -230 280 -138 159 -218 261 -433 550
-115 154 -202 258 -306 365 -80 83 -186 192 -234 243 -203 214 -455 375 -631
406 -47 8 -91 18 -97 22 -6 3 11 -16 38 -43z"/>
<path d="M5719 7589 c57 -56 246 -215 420 -355 174 -139 336 -270 361 -290 92
-76 -209 221 -324 319 -109 94 -308 247 -487 375 -74 53 -74 53 30 -49z"/>
<path d="M4060 7436 c-41 -14 -95 -30 -120 -37 -45 -12 -45 -12 -10 -21 19 -5
77 -15 129 -23 139 -23 258 -66 484 -177 298 -147 358 -167 403 -133 18 15 17
17 -33 63 -48 44 -338 231 -482 310 -64 36 -70 37 -181 40 -99 2 -125 -1 -190
-22z"/>
<path d="M3495 6706 c-38 -13 -105 -42 -148 -65 -78 -41 -78 -41 -40 -42 273
-5 395 -22 560 -80 152 -53 218 -101 263 -188 40 -79 105 -126 395 -286 323
-178 418 -256 440 -362 5 -24 24 -44 83 -89 229 -171 410 -363 488 -516 30
-59 30 -78 2 -78 -14 0 -76 53 -187 163 -230 226 -338 299 -531 360 -52 16
-174 61 -270 99 -497 199 -688 238 -1176 238 -179 0 -193 -1 -233 -22 -51 -28
-151 -107 -151 -121 0 -6 51 -6 138 -1 489 31 804 -22 1377 -233 449 -164 527
-208 805 -451 47 -41 119 -97 160 -125 93 -62 174 -144 238 -239 27 -40 59
-82 71 -92 22 -20 22 -20 44 2 19 19 22 33 21 90 0 37 -8 93 -18 124 -14 49
-22 61 -54 77 -64 33 -88 70 -122 198 -39 144 -128 296 -254 430 -33 37 -153
154 -266 262 -228 217 -312 280 -577 430 -180 102 -236 147 -231 183 5 37 57
25 203 -46 293 -142 576 -348 856 -626 211 -208 286 -334 364 -603 61 -213 80
-240 117 -166 26 49 24 162 -2 214 -15 30 -20 59 -20 121 0 75 -3 88 -40 160
-101 202 -282 392 -598 628 -432 324 -618 424 -852 461 -79 12 -140 30 -250
75 -163 65 -290 102 -430 125 -113 18 -90 19 -175 -9z"/>
<path d="M6700 6609 c0 -50 42 -164 130 -349 48 -102 95 -206 105 -233 10 -26
20 -46 22 -43 5 5 -95 259 -152 386 -27 58 -61 141 -76 185 -18 49 -29 70 -29
54z"/>
<path d="M3369 6462 c-36 -19 -61 -40 -75 -65 -21 -38 -108 -102 -153 -114
-22 -5 -20 -7 15 -20 78 -29 259 -74 383 -94 69 -12 131 -25 136 -31 16 -15
-30 -46 -79 -53 -23 -4 -109 1 -190 10 -171 20 -183 17 -299 -59 -67 -44 -67
-44 -29 -51 20 -4 219 -11 442 -15 317 -6 421 -12 480 -25 134 -29 331 -101
565 -205 177 -79 243 -103 287 -108 48 -4 59 -2 64 12 17 44 -132 141 -466
305 -243 120 -309 143 -501 171 -179 26 -205 34 -249 76 -44 42 -84 58 -216
90 -163 38 -201 59 -155 84 53 28 240 -1 399 -61 180 -68 276 -85 317 -55 16
12 17 18 8 38 -23 52 -269 152 -450 183 -127 22 -172 20 -234 -13z"/>
<path d="M3231 5610 c-110 -11 -144 -28 -239 -119 -62 -61 -62 -61 -25 -61 21
0 83 9 138 19 304 58 565 50 565 -18 0 -25 -12 -28 -140 -36 -98 -7 -344 -46
-415 -66 -30 -8 -61 -33 -123 -98 -84 -86 -84 -86 -50 -89 18 -1 121 20 228
49 107 28 251 64 320 80 69 16 158 43 198 60 71 31 77 32 170 26 121 -7 320
-57 508 -127 77 -29 175 -63 219 -77 44 -13 118 -36 164 -50 163 -51 331 -173
582 -423 227 -226 306 -347 339 -518 18 -89 8 -212 -23 -302 -15 -41 -38 -131
-53 -200 -32 -157 -53 -218 -114 -340 -27 -54 -67 -158 -90 -231 -59 -192 -85
-261 -139 -374 -62 -126 -148 -257 -237 -359 -38 -43 -75 -88 -83 -100 -8 -11
-28 -35 -44 -53 -30 -32 -30 -32 29 -3 32 17 98 48 145 70 116 53 230 139 276
209 20 30 85 150 143 265 213 423 323 738 376 1081 24 157 16 384 -19 516 -35
132 -48 156 -105 180 -33 14 -86 58 -177 148 -113 111 -268 247 -425 372 -72
58 -198 137 -275 173 -80 38 -425 166 -591 219 -60 20 -239 68 -397 107 -263
65 -296 71 -414 75 -70 2 -170 0 -222 -5z"/>
<path d="M5932 5258 c-7 -7 -12 -22 -12 -34 0 -12 -7 -38 -16 -59 -15 -38 -15
-38 15 -32 53 11 50 24 72 -403 6 -118 19 -285 30 -370 56 -454 -14 -876 -226
-1360 -58 -132 -108 -224 -194 -354 -66 -100 -161 -298 -161 -336 0 -10 -5
-31 -11 -47 -8 -23 0 -18 51 32 34 33 79 85 100 115 47 68 119 136 187 179 29
18 69 55 89 82 38 52 142 271 212 446 114 285 185 664 185 988 0 159 -2 180
-36 330 -20 88 -48 241 -62 339 -41 278 -73 377 -146 461 -32 36 -56 44 -77
23z"/>
<path d="M3635 5201 c-141 -26 -180 -38 -259 -78 -38 -19 -105 -43 -150 -54
-44 -11 -98 -25 -119 -30 -41 -11 -81 -47 -150 -137 -46 -59 -46 -59 -1 -56
24 2 70 11 102 19 91 25 253 30 347 11 44 -9 159 -29 255 -45 332 -56 509
-127 732 -293 125 -93 329 -304 433 -447 138 -190 175 -234 243 -290 68 -56
93 -100 152 -258 49 -130 89 -162 137 -110 31 32 43 89 43 197 0 89 -4 105
-54 250 -79 228 -110 298 -186 412 -93 140 -201 261 -378 422 -100 90 -166
160 -198 207 -58 85 -113 122 -277 187 -256 102 -466 131 -672 93z m315 -151
c170 -35 331 -99 451 -181 76 -51 359 -309 450 -409 160 -176 294 -384 319
-494 9 -40 8 -53 -5 -72 -8 -13 -21 -21 -28 -18 -7 2 -33 37 -57 77 -160 262
-300 435 -494 608 -319 284 -535 376 -967 409 -75 6 -151 15 -168 21 -45 16
-42 45 7 58 59 17 78 18 240 20 119 1 176 -4 252 -19z"/>
<path d="M4663 5003 c-23 -9 -13 -39 25 -74 20 -20 84 -74 142 -121 311 -254
477 -469 580 -753 38 -103 63 -145 90 -145 71 0 66 189 -10 356 -82 181 -304
430 -544 611 -141 106 -232 147 -283 126z"/>
<path d="M6884 4966 c-18 -13 -19 -33 -26 -273 -8 -324 -11 -346 -109 -877
-40 -217 -59 -344 -59 -395 1 -76 1 -76 46 69 191 621 236 845 237 1180 0 180
-11 260 -40 292 -19 22 -24 22 -49 4z"/>
<path d="M3131 4750 c-52 -11 -112 -65 -160 -142 -30 -47 -30 -48 -8 -48 12 0
67 11 121 25 177 45 344 33 659 -46 245 -61 400 -139 589 -296 139 -116 314
-346 398 -525 69 -148 85 -210 85 -328 0 -104 0 -106 -43 -190 -101 -198 -232
-362 -361 -450 -68 -46 -186 -103 -291 -141 -36 -13 -80 -33 -98 -46 -33 -22
-33 -22 -10 -27 84 -18 209 -28 287 -24 112 7 163 30 275 124 100 85 184 192
272 345 75 131 104 159 131 124 23 -31 11 -126 -26 -216 -68 -164 -205 -331
-362 -440 -51 -35 -115 -84 -142 -108 -47 -40 -48 -43 -21 -37 16 3 65 10 109
16 169 22 282 65 351 134 109 110 225 308 265 453 28 99 30 225 5 308 -31 105
-156 397 -203 475 -64 106 -220 330 -296 425 -86 107 -254 267 -354 338 -207
146 -397 218 -736 278 -126 23 -368 33 -436 19z"/>
<path d="M3170 4488 c-52 -11 -108 -60 -148 -128 -14 -25 -32 -53 -41 -63 -15
-17 -14 -18 14 -11 17 3 61 20 99 35 94 40 213 69 280 69 48 0 56 -3 56 -19 0
-28 -19 -39 -148 -91 -134 -55 -151 -70 -206 -192 -35 -76 -35 -76 -3 -63 18
7 66 34 106 59 81 50 251 124 346 152 45 13 81 15 150 11 309 -19 611 -254
725 -564 28 -75 34 -105 38 -203 7 -172 -31 -293 -131 -425 -54 -72 -100 -103
-123 -84 -22 18 -14 57 35 172 53 124 73 211 73 319 0 101 -14 168 -53 256
-107 239 -347 401 -595 402 -84 0 -195 -26 -289 -69 -131 -60 -158 -93 -198
-251 -27 -104 -38 -105 94 16 175 161 419 200 618 99 78 -39 165 -127 205
-205 44 -88 51 -154 32 -296 -35 -267 -131 -427 -284 -474 -87 -27 -195 -27
-242 0 -35 21 -35 21 -5 -5 59 -51 244 -134 339 -152 89 -17 90 -17 150 6 34
13 99 34 145 48 116 33 156 56 227 127 113 113 190 279 201 431 7 110 -21 227
-91 371 -96 195 -245 365 -421 480 -150 98 -285 147 -490 179 -60 10 -142 30
-181 46 -61 24 -86 29 -156 28 -45 -1 -103 -6 -128 -11z"/>
<path d="M3552 3849 c-55 -10 -141 -50 -186 -84 -76 -58 -94 -214 -46 -395 25
-95 25 -95 31 21 5 100 10 125 33 173 52 106 152 163 270 154 88 -7 145 -36
231 -118 50 -47 81 -70 91 -66 9 3 18 6 20 6 2 0 4 18 4 40 0 113 -140 240
-299 270 -61 11 -88 11 -149 -1z"/>
<path d="M3585 3605 c-22 -8 -52 -28 -67 -45 -58 -63 -23 -184 47 -166 29 7
47 43 34 67 -21 40 44 52 84 15 89 -83 36 -222 -112 -293 -42 -20 -63 -37 -75
-60 -8 -18 -23 -33 -32 -33 -12 0 -10 -6 10 -21 15 -11 36 -38 46 -60 22 -43
31 -50 23 -19 -4 14 2 23 21 31 14 7 26 18 26 25 0 17 24 24 89 24 46 0 66 6
103 29 84 53 137 148 138 244 0 75 -13 99 -99 180 -53 50 -83 70 -122 82 -63
18 -63 18 -114 0z"/>
<path d="M5766 2470 c-16 -25 -37 -57 -48 -72 -25 -38 -23 -46 7 -18 39 37 77
97 73 117 -3 14 -11 7 -32 -27z"/>
</g>
</svg>
