<?xml version="1.0" standalone="no"?>
<!DOCTYPE svg PUBLIC "-//W3C//DTD SVG 20010904//EN"
 "http://www.w3.org/TR/2001/REC-SVG-20010904/DTD/svg10.dtd">
<svg version="1.0" xmlns="http://www.w3.org/2000/svg"
 width="1000.000000pt" height="1000.000000pt" viewBox="0 0 1000.000000 1000.000000"
 preserveAspectRatio="xMidYMid meet">
<metadata>
  <rdf:RDF
    xmlns:rdf = "http://www.w3.org/1999/02/22-rdf-syntax-ns#"
    xmlns:rdfs = "http://www.w3.org/2000/01/rdf-schema#"
    xmlns:dc = "http://purl.org/dc/elements/1.1/"
    xmlns:cc = "http://creativecommons.org/ns#">
    <cc:license rdf:resource="http://creativecommons.org/publicdomain/zero/1.0/deed.en"/>
    <cc:permits rdf:resource="http://creativecommons.org/ns#Reproduction"/>
    <rdf:Description about="https://nft.mir.one/fingerprints"
      dc:title="TON Fingerprints"
      dc:description="This is a unique digital fingerprint created based on the algorithm for generating basic rings using a noise texture. Like human fingerprints, you can now use it for the Web3 and Metaverse era as digital biometric information."
      dc:publisher="https://nft.mir.one"
      dc:date="2022-02-22"
      dc:format="image/svg+xml"
      dc:language="en" >
      <dc:creator>
      <rdf:Bag>
        <rdf:li>EQBondcvD2_aOFADXSWJHs4ZazQDuEl9_wNvGGPxI8hGuOFU</rdf:li>
        <rdf:li>ipfs://bafkreihj7iub3fhmhq6jn62noukt5wxn3gv6bvcg7wmt6ywvlurefezckq</rdf:li>
      </rdf:Bag>
      </dc:creator>
    </rdf:Description>
  </rdf:RDF>
</metadata>
<rect width="100%" height="100%" fill="#1b1f23"/>
<g transform="translate(0.000000,1000.000000) scale(0.100000,-0.100000)"
fill="#ffffff" stroke="none">
<path d="M4645 7739 c-44 -5 -116 -16 -160 -24 -80 -14 -80 -14 -17 -10 82 6
398 -12 537 -30 279 -38 417 -88 642 -237 252 -167 518 -330 624 -384 70 -35
108 -49 149 -51 55 -4 55 -4 -5 29 -33 19 -127 83 -210 143 -82 60 -229 161
-325 224 -96 63 -203 136 -236 161 -188 143 -619 220 -999 179z"/>
<path d="M4560 7553 c-19 -2 -114 -17 -211 -33 -180 -30 -301 -61 -400 -102
-56 -23 -56 -23 30 -22 47 1 219 5 381 9 319 8 472 0 660 -36 282 -55 420
-121 1045 -499 305 -185 313 -191 260 -226 -53 -35 -178 19 -460 198 -437 276
-640 364 -960 413 -218 34 -641 29 -827 -10 -135 -28 -340 -144 -528 -301 -52
-43 -109 -89 -125 -101 -30 -22 -30 -22 25 -6 30 9 119 44 197 79 78 35 189
80 248 100 389 130 882 137 1265 18 215 -67 304 -118 780 -444 103 -71 181
-116 275 -157 130 -57 207 -98 255 -135 64 -49 167 -161 217 -236 70 -105 102
-183 197 -474 93 -287 127 -342 191 -317 17 6 17 8 3 8 -28 1 -46 51 -84 233
-78 381 -119 518 -205 690 -68 136 -118 215 -218 348 -48 63 -105 147 -128
185 -56 96 -114 147 -273 242 -74 44 -251 151 -392 236 -337 204 -449 256
-651 302 -166 38 -412 54 -567 38z"/>
<path d="M4405 6980 c-248 -26 -475 -92 -704 -206 -130 -64 -160 -84 -255
-168 -59 -53 -114 -96 -122 -96 -18 0 -95 -70 -136 -124 -32 -41 -32 -41 3
-10 42 39 109 81 142 89 33 9 41 -16 22 -61 -16 -38 -136 -215 -167 -246 -24
-24 -16 -48 15 -48 51 0 137 74 235 200 99 128 148 177 247 242 423 281 1018
354 1510 186 166 -57 274 -141 244 -189 -7 -11 -26 -8 -101 20 -51 18 -136 46
-188 61 -401 116 -824 83 -1195 -95 -148 -71 -236 -136 -401 -295 -86 -83
-195 -180 -242 -216 -48 -36 -100 -82 -116 -102 -47 -61 -141 -262 -186 -396
-23 -69 -52 -141 -65 -161 -25 -35 -25 -35 15 -15 23 12 51 38 67 63 104 165
179 270 225 317 49 51 234 223 451 418 211 191 437 305 727 368 106 23 468 27
565 6 33 -7 121 -27 195 -44 111 -25 149 -29 215 -25 95 6 139 -8 243 -77 104
-69 128 -119 69 -140 -22 -8 -48 -5 -110 12 -529 144 -640 166 -842 166 -470
0 -824 -180 -1192 -606 -74 -86 -93 -102 -156 -131 -93 -43 -134 -89 -248
-282 -176 -296 -221 -462 -199 -738 23 -303 98 -580 249 -921 44 -98 50 -119
50 -179 0 -51 -4 -70 -15 -74 -13 -5 -11 -10 9 -32 13 -14 63 -84 112 -156
221 -328 355 -441 671 -570 191 -77 250 -88 539 -94 494 -11 686 -7 825 18
155 27 321 68 481 121 162 52 434 189 568 285 56 40 105 76 108 79 6 6 -120
-35 -212 -68 -52 -19 -90 -26 -148 -26 -74 0 -89 -4 -267 -75 -213 -85 -378
-135 -549 -167 -95 -18 -153 -22 -316 -22 -273 -1 -351 14 -505 93 -63 32
-180 82 -260 111 -304 110 -485 223 -546 342 -25 49 -48 68 -82 68 -48 0 -59
-67 -22 -140 75 -146 267 -264 621 -381 212 -70 242 -84 237 -107 -5 -24 -83
-27 -177 -7 -119 26 -366 112 -476 165 -209 101 -321 216 -460 474 -47 86 -48
90 -50 184 -3 107 -4 113 -113 347 -179 388 -249 735 -197 979 17 80 37 116
65 116 30 0 37 -29 44 -180 17 -311 63 -501 190 -780 93 -203 203 -398 258
-456 53 -57 77 -66 213 -84 44 -6 129 -25 190 -42 107 -30 110 -30 160 -14 29
9 74 16 101 16 31 0 67 9 97 23 47 23 47 23 170 5 170 -26 320 -25 516 2 139
19 173 21 231 11 80 -13 144 0 258 54 220 104 357 254 398 435 11 49 29 89 56
128 144 208 175 258 218 347 66 134 114 281 162 499 69 314 48 448 -98 632
-95 119 -150 223 -174 329 -16 72 16 128 63 109 24 -9 145 -156 214 -259 105
-157 175 -312 224 -499 19 -76 30 -98 67 -140 80 -90 87 -115 86 -316 0 -155
-3 -189 -28 -295 -47 -202 -108 -347 -185 -440 -47 -57 -50 -70 -19 -95 22
-17 22 -18 3 -46 -29 -45 -226 -281 -302 -361 -110 -117 -272 -261 -358 -318
-242 -162 -576 -267 -790 -250 -163 12 -536 96 -745 165 -101 34 -166 65 -269
130 -119 74 -251 101 -251 51 0 -28 55 -71 188 -150 143 -85 190 -105 483
-209 299 -107 399 -127 624 -126 135 1 191 5 275 23 208 44 470 146 584 228
70 50 452 420 535 518 37 44 86 107 108 140 47 69 160 292 202 398 65 164 100
367 108 629 7 222 0 268 -64 417 -25 58 -74 181 -109 273 -115 305 -228 489
-354 577 -75 53 -111 68 -195 81 -115 18 -143 39 -350 260 -39 41 -142 133
-230 203 -238 191 -406 268 -695 318 -134 23 -384 32 -515 19z m646 -739 c42
-11 110 -36 150 -56 40 -21 143 -66 229 -102 85 -36 180 -79 210 -96 80 -45
153 -125 194 -210 53 -112 61 -161 59 -348 -3 -268 -31 -416 -110 -579 -39
-79 -61 -110 -132 -181 -75 -75 -100 -93 -191 -137 -135 -65 -228 -86 -363
-80 -81 3 -120 11 -190 35 -188 66 -292 156 -375 324 -100 203 -95 344 24 581
41 82 54 118 54 152 0 53 25 78 123 125 181 86 426 124 554 86 54 -16 69 -35
53 -65 -13 -25 -56 -37 -182 -50 -278 -28 -400 -101 -502 -300 -75 -144 -94
-268 -61 -395 83 -317 451 -463 766 -304 267 134 399 462 323 798 -21 93 -73
184 -182 317 -84 102 -107 124 -162 152 -60 31 -71 33 -135 29 -85 -5 -351
-51 -457 -78 -234 -59 -382 -132 -494 -244 -70 -70 -89 -97 -132 -186 -70
-146 -86 -214 -86 -379 0 -97 5 -153 18 -200 99 -371 297 -557 719 -676 111
-32 120 -39 87 -66 -69 -57 -354 25 -562 161 -199 130 -327 325 -380 581 -26
126 -21 324 11 450 47 183 158 360 293 467 178 143 398 218 723 247 156 14
185 23 185 56 0 53 -125 85 -305 77 -390 -18 -732 -195 -919 -475 -177 -267
-223 -696 -109 -1015 99 -279 255 -436 571 -578 218 -97 349 -118 568 -94 216
24 371 50 532 89 166 41 271 52 322 34 43 -16 51 -50 21 -82 -12 -12 -28 -45
-36 -72 -33 -112 -211 -232 -411 -277 -210 -48 -620 -65 -769 -33 -72 16 -274
94 -500 193 -153 68 -189 82 -197 77 -21 -13 -6 -66 29 -105 45 -50 132 -94
281 -144 110 -36 172 -72 172 -101 0 -18 -2 -18 -167 11 -302 53 -416 126
-584 377 -199 298 -277 524 -334 968 -25 194 -25 210 -11 277 17 82 52 173
111 293 52 104 76 135 98 127 30 -11 29 -67 -3 -187 -59 -224 -63 -251 -57
-430 5 -186 28 -321 82 -485 69 -211 196 -418 317 -515 46 -37 49 -37 115 -33
67 5 72 4 283 -80 262 -105 358 -133 497 -147 154 -16 418 4 604 46 183 41
407 161 397 212 -6 31 -67 25 -222 -22 -263 -81 -482 -112 -719 -103 -209 7
-354 51 -657 199 -154 76 -169 86 -245 162 -90 91 -150 187 -203 329 -55 146
-73 243 -79 423 -6 181 6 278 58 484 37 142 74 224 144 316 195 255 501 425
850 473 104 15 306 5 396 -18z m-477 -641 c4 -5 -25 -41 -66 -82 -136 -135
-194 -285 -185 -483 5 -133 26 -193 97 -291 64 -86 68 -129 9 -99 -38 20 -59
19 -59 -4 0 -25 20 -40 74 -56 25 -8 80 -38 123 -68 93 -65 244 -142 368 -188
83 -30 99 -33 210 -33 132 1 225 19 374 73 214 78 346 197 440 395 74 155 107
295 122 523 11 176 25 226 61 221 53 -7 95 -172 83 -323 -28 -352 -191 -704
-386 -834 -101 -67 -435 -161 -651 -183 -147 -15 -220 -4 -279 43 -22 17 -99
58 -172 91 -246 111 -396 219 -418 301 -6 23 -28 80 -49 127 -65 142 -75 189
-74 335 0 113 4 141 27 210 55 168 166 302 277 336 26 7 59 3 74 -11z m731
-169 c103 -46 156 -131 158 -255 3 -187 -141 -380 -322 -433 -166 -48 -353 47
-406 208 -26 77 -17 199 19 272 54 112 146 188 267 222 78 22 219 15 284 -14z"/>
<path d="M5017 5296 c-129 -36 -214 -175 -182 -298 31 -120 168 -175 255 -102
45 38 40 93 -11 119 -37 20 -45 19 -71 -7 -26 -26 -51 -14 -56 25 -10 85 112
136 208 87 44 -23 90 -26 108 -8 18 18 14 77 -8 112 -40 66 -149 98 -243 72z"/>
<path d="M6551 5107 c-23 -29 -40 -88 -71 -247 -41 -215 -93 -369 -190 -565
-85 -172 -241 -431 -321 -531 -102 -128 -226 -227 -404 -320 -60 -31 -146 -78
-190 -105 -99 -59 -188 -89 -281 -96 -132 -10 -105 41 46 87 104 32 150 60
150 90 0 42 -62 38 -266 -16 -153 -40 -260 -44 -473 -19 -178 20 -362 34 -378
28 -24 -9 -14 -43 20 -63 69 -43 326 -103 593 -139 102 -14 170 -29 214 -47
58 -24 73 -26 160 -21 69 3 121 13 190 36 127 41 339 146 453 223 203 137 553
536 606 691 10 28 41 104 68 167 87 201 132 359 154 550 13 118 7 236 -16 280
-16 32 -45 39 -64 17z"/>
<path d="M7091 4924 c0 -11 3 -14 6 -6 3 7 2 16 -1 19 -3 4 -6 -2 -5 -13z"/>
<path d="M7083 4825 c0 -22 2 -30 4 -17 2 12 2 30 0 40 -3 9 -5 -1 -4 -23z"/>
<path d="M7073 4720 c0 -30 2 -43 4 -27 2 15 2 39 0 55 -2 15 -4 2 -4 -28z"/>
<path d="M7063 4595 c0 -27 2 -38 4 -22 2 15 2 37 0 50 -2 12 -4 0 -4 -28z"/>
<path d="M7052 4480 c0 -19 2 -27 5 -17 2 9 2 25 0 35 -3 9 -5 1 -5 -18z"/>
<path d="M7041 4384 c0 -11 3 -14 6 -6 3 7 2 16 -1 19 -3 4 -6 -2 -5 -13z"/>
<path d="M6981 4157 c-13 -34 -42 -91 -64 -127 -22 -36 -68 -113 -103 -172
-118 -197 -247 -339 -480 -530 -138 -112 -167 -145 -162 -181 8 -55 131 -11
259 90 188 150 362 408 492 728 48 120 91 244 86 250 -2 2 -15 -25 -28 -58z"/>
<path d="M6155 2713 c-33 -8 -114 -32 -180 -53 -465 -148 -758 -184 -1250
-155 -361 20 -363 21 -705 116 -36 10 -81 18 -100 18 -30 1 -21 -6 65 -45 329
-149 521 -199 868 -224 309 -23 636 25 932 137 105 39 476 226 440 222 -5 -1
-37 -8 -70 -16z"/>
<path d="M3858 2643 c7 -3 16 -2 19 1 4 3 -2 6 -13 5 -11 0 -14 -3 -6 -6z"/>
<path d="M4688 2213 c6 -2 18 -2 25 0 6 3 1 5 -13 5 -14 0 -19 -2 -12 -5z"/>
<path d="M4793 2203 c15 -2 39 -2 55 0 15 2 2 4 -28 4 -30 0 -43 -2 -27 -4z"/>
<path d="M5218 2203 c12 -2 30 -2 40 0 9 3 -1 5 -23 4 -22 0 -30 -2 -17 -4z"/>
<path d="M4948 2193 c34 -2 90 -2 125 0 34 2 6 3 -63 3 -69 0 -97 -1 -62 -3z"/>
</g>
</svg>
