<?xml version="1.0" standalone="no"?>
<!DOCTYPE svg PUBLIC "-//W3C//DTD SVG 20010904//EN"
 "http://www.w3.org/TR/2001/REC-SVG-20010904/DTD/svg10.dtd">
<svg version="1.0" xmlns="http://www.w3.org/2000/svg"
 width="1000.000000pt" height="1000.000000pt" viewBox="0 0 1000.000000 1000.000000"
 preserveAspectRatio="xMidYMid meet">
<metadata>
  <rdf:RDF
    xmlns:rdf = "http://www.w3.org/1999/02/22-rdf-syntax-ns#"
    xmlns:rdfs = "http://www.w3.org/2000/01/rdf-schema#"
    xmlns:dc = "http://purl.org/dc/elements/1.1/"
    xmlns:cc = "http://creativecommons.org/ns#">
    <cc:license rdf:resource="http://creativecommons.org/publicdomain/zero/1.0/deed.en"/>
    <cc:permits rdf:resource="http://creativecommons.org/ns#Reproduction"/>
    <rdf:Description about="https://nft.mir.one/fingerprints"
      dc:title="TON Fingerprints"
      dc:description="This is a unique digital fingerprint created based on the algorithm for generating basic rings using a noise texture. Like human fingerprints, you can now use it for the Web3 and Metaverse era as digital biometric information."
      dc:publisher="https://nft.mir.one"
      dc:date="2022-02-22"
      dc:format="image/svg+xml"
      dc:language="en" >
      <dc:creator>
      <rdf:Bag>
        <rdf:li>EQBondcvD2_aOFADXSWJHs4ZazQDuEl9_wNvGGPxI8hGuOFU</rdf:li>
        <rdf:li>ipfs://bafkreihj7iub3fhmhq6jn62noukt5wxn3gv6bvcg7wmt6ywvlurefezckq</rdf:li>
      </rdf:Bag>
      </dc:creator>
    </rdf:Description>
  </rdf:RDF>
</metadata>
<rect width="100%" height="100%" fill="#1b1f23"/>
<g transform="translate(0.000000,1000.000000) scale(0.100000,-0.100000)"
fill="#ffffff" stroke="none">
<path d="M4685 7776 c6 -2 89 -19 185 -36 96 -18 254 -50 352 -71 97 -21 200
-41 230 -45 66 -7 108 7 108 38 0 17 -3 19 -12 10 -18 -18 -37 -16 -218 28
-215 52 -333 69 -510 75 -80 3 -140 3 -135 1z"/>
<path d="M4390 7613 c-40 -8 -294 -74 -298 -78 -7 -7 402 31 446 42 14 3 22
12 20 22 -3 13 -17 16 -73 17 -39 1 -81 0 -95 -3z"/>
<path d="M4795 7594 c-11 -2 -43 -9 -70 -14 -29 -6 -75 -27 -108 -50 -38 -25
-78 -43 -115 -50 -290 -55 -479 -125 -653 -242 -101 -67 -159 -121 -302 -277
-190 -208 -191 -208 -110 -155 106 68 147 103 213 181 74 88 157 149 281 207
168 79 422 152 561 163 69 5 78 4 84 -12 12 -30 -28 -52 -170 -96 -334 -103
-522 -183 -608 -259 -51 -45 -60 -73 -28 -90 27 -15 50 -8 255 77 99 41 288
111 420 156 240 82 240 82 445 81 364 -1 647 -53 694 -126 23 -37 -4 -42 -126
-24 -195 28 -375 38 -567 33 -156 -4 -202 -9 -286 -30 -133 -34 -299 -92 -470
-162 -187 -77 -234 -93 -341 -114 -50 -11 -118 -33 -152 -50 -154 -78 -360
-332 -511 -627 -27 -55 -64 -123 -81 -153 -32 -53 -32 -53 10 -20 24 19 84 88
134 154 162 212 319 360 488 462 40 23 152 74 249 112 97 39 239 99 315 134
171 80 262 109 427 137 118 20 159 21 505 19 263 -1 385 2 405 10 70 28 191 2
364 -79 161 -75 320 -197 350 -268 29 -70 -6 -69 -123 4 -145 92 -242 141
-359 181 -110 38 -110 38 -590 38 -489 0 -553 -4 -705 -42 -93 -23 -162 -55
-225 -106 -40 -33 -92 -59 -202 -102 -305 -119 -469 -221 -648 -406 -231 -239
-330 -422 -376 -694 -18 -106 -18 -706 -1 -855 26 -215 55 -300 165 -493 36
-62 88 -158 116 -215 62 -124 153 -278 211 -358 71 -98 227 -244 315 -295 164
-95 280 -127 490 -136 160 -6 273 10 492 72 371 106 584 223 922 509 115 98
140 116 162 116 80 0 -42 -192 -217 -342 -241 -205 -345 -264 -678 -379 -138
-48 -309 -108 -380 -133 -104 -38 -146 -48 -220 -53 -308 -20 -634 121 -888
385 -115 120 -168 203 -334 527 -75 149 -147 283 -158 300 -12 16 -38 61 -58
100 -21 38 -38 67 -38 64 0 -15 129 -351 201 -522 149 -353 224 -480 386 -659
177 -194 340 -322 516 -403 102 -47 138 -54 357 -65 158 -8 197 -14 270 -37
84 -28 87 -28 329 -26 333 3 363 13 611 199 559 419 786 749 941 1369 42 167
59 208 83 199 73 -28 26 -384 -88 -665 -139 -344 -315 -569 -701 -894 -243
-206 -330 -264 -485 -322 -157 -60 -441 -81 -650 -48 -219 34 -295 40 -336 24
-30 -11 -40 -21 -42 -42 -3 -25 0 -27 31 -27 18 0 78 -13 133 -29 184 -55 255
-66 444 -66 193 0 274 11 419 57 214 68 297 119 586 360 205 171 296 258 403
387 265 319 462 813 450 1131 -3 88 -10 123 -41 216 -58 172 -93 185 -169 66
-24 -38 -62 -96 -84 -130 -44 -65 -53 -85 -170 -382 -42 -107 -98 -240 -125
-295 -129 -271 -299 -461 -660 -735 -85 -65 -179 -139 -209 -164 -136 -116
-239 -113 -140 5 24 29 40 58 40 73 0 45 -50 35 -165 -34 -130 -79 -238 -111
-320 -96 -28 6 -35 12 -35 30 0 40 38 63 246 147 112 45 140 52 214 56 100 5
134 17 239 82 217 134 469 363 569 516 29 43 68 122 88 175 44 114 78 191 219
495 166 359 187 414 193 515 11 195 -84 465 -256 725 -87 133 -290 337 -422
424 -249 165 -546 274 -755 275 -104 1 -470 -37 -583 -61 -212 -43 -372 -124
-643 -324 -185 -136 -259 -242 -259 -367 0 -57 -6 -74 -59 -180 -68 -135 -77
-162 -90 -256 -14 -99 0 -196 45 -296 34 -77 65 -191 109 -395 81 -376 427
-837 617 -823 40 3 43 5 41 32 -2 30 -8 38 -113 159 -55 64 -87 119 -212 369
-151 300 -186 389 -239 603 -73 296 -42 454 136 695 90 122 122 181 131 242
10 62 24 86 95 154 151 143 358 246 564 279 115 18 538 5 654 -20 518 -114
959 -578 1021 -1078 22 -175 -18 -358 -128 -589 -100 -206 -188 -317 -303
-378 -71 -37 -365 -218 -559 -343 -69 -45 -154 -96 -190 -114 -193 -99 -461
-142 -695 -113 -87 11 -121 11 -188 0 -72 -11 -90 -11 -137 3 -185 55 -383
258 -536 552 -102 196 -129 286 -113 388 25 159 -45 367 -106 317 -25 -21 -28
-77 -9 -195 14 -90 15 -118 6 -127 -25 -25 -81 38 -104 116 -16 53 -16 208 0
316 6 46 12 170 12 275 0 161 -3 200 -20 253 -51 163 0 362 149 579 179 262
450 467 745 564 81 27 112 32 281 41 105 5 251 8 325 6 116 -3 142 -7 183 -27
28 -14 54 -35 62 -52 9 -16 25 -31 38 -34 12 -3 78 -17 147 -31 292 -60 600
-197 840 -375 296 -218 559 -611 696 -1039 70 -220 73 -227 120 -283 25 -28
56 -76 70 -105 23 -49 92 -323 96 -381 0 -14 4 24 8 84 14 202 -20 555 -66
700 -30 93 -259 498 -379 670 -250 358 -483 541 -940 740 -71 31 -153 70 -181
86 -32 18 -76 32 -120 38 -38 6 -103 24 -144 41 -41 17 -113 43 -160 58 -83
26 -90 27 -355 27 -148 0 -276 4 -282 8 -53 34 55 72 277 98 120 14 297 7 440
-16 94 -16 95 -16 138 -65 47 -54 94 -75 152 -67 30 4 47 -1 73 -19 19 -13 97
-47 174 -75 581 -216 854 -458 1246 -1109 117 -192 149 -236 196 -260 39 -20
39 -20 16 23 -13 23 -42 96 -65 162 -90 257 -137 357 -225 480 -156 218 -336
417 -468 516 -87 66 -383 216 -537 272 -129 48 -247 71 -320 63 -48 -6 -63 -3
-94 15 -20 11 -58 27 -84 33 -36 9 -47 17 -47 32 0 32 56 44 175 38 243 -13
372 -47 628 -168 86 -41 182 -81 212 -90 30 -8 76 -29 102 -45 93 -59 310
-296 475 -519 106 -143 155 -208 188 -247 26 -30 26 -30 11 5 -122 295 -264
543 -455 794 -42 56 -103 146 -135 200 -116 197 -250 297 -654 491 -323 155
-399 174 -819 209 -173 15 -217 26 -237 59 -40 67 179 71 559 12 261 -41 395
-83 629 -195 334 -161 514 -305 633 -508 74 -128 128 -201 214 -292 70 -75 70
-75 13 15 -32 50 -89 144 -127 210 -124 212 -150 248 -262 360 -161 162 -349
294 -564 396 -136 65 -212 85 -496 134 -253 43 -470 63 -530 49z m-899 -1959
c7 -18 -109 -165 -158 -201 -55 -41 -94 -26 -63 24 90 141 201 230 221 177z"/>
<path d="M4585 6380 c-254 -17 -417 -56 -583 -139 -186 -94 -376 -249 -492
-403 -167 -221 -254 -564 -137 -534 32 8 77 80 108 176 30 91 84 195 135 261
116 151 363 331 569 415 133 55 261 83 480 105 110 11 216 24 236 29 41 11 74
43 66 63 -10 27 -188 39 -382 27z"/>
<path d="M4601 5919 c-160 -43 -325 -142 -434 -259 -46 -50 -90 -117 -169
-261 -156 -282 -186 -376 -175 -558 11 -210 98 -425 230 -568 30 -32 40 -53
47 -98 18 -112 68 -150 305 -231 110 -38 110 -38 375 -45 253 -6 269 -7 350
-34 97 -31 128 -30 248 11 198 68 397 187 507 306 210 225 307 577 237 862
-95 384 -421 713 -810 818 -57 15 -111 21 -207 22 -164 1 -191 -5 -257 -58
-29 -24 -96 -67 -148 -96 -147 -81 -199 -118 -274 -189 -192 -185 -299 -444
-283 -686 7 -103 23 -162 78 -292 55 -129 51 -155 -16 -133 -106 35 -205 259
-205 464 0 279 195 641 435 806 42 29 158 87 308 153 42 19 57 31 57 46 0 45
-77 53 -199 20z m677 -214 c193 -46 380 -174 508 -348 257 -347 219 -812 -88
-1103 -128 -121 -250 -163 -345 -118 -32 16 -41 16 -129 -1 -121 -23 -293 -17
-370 13 -29 10 -90 48 -135 84 -46 35 -114 85 -150 110 -112 79 -160 150 -219
327 -72 214 -50 439 61 628 43 74 185 217 269 272 84 54 200 110 275 132 76
22 237 24 323 4z m-890 -1466 c120 -48 264 -122 276 -142 9 -14 7 -21 -9 -33
-44 -34 -201 4 -405 98 -97 44 -113 63 -80 90 36 29 126 24 218 -13z"/>
<path d="M4935 5566 c-416 -135 -609 -551 -425 -917 57 -112 186 -227 320
-285 56 -24 78 -28 165 -29 90 0 106 3 157 28 111 55 249 214 299 346 29 78
36 207 15 289 -70 276 -372 406 -593 255 -82 -55 -143 -166 -143 -259 0 -134
115 -255 241 -254 109 1 203 112 183 218 -9 47 -62 102 -99 102 -56 0 -78 -29
-53 -69 30 -49 -55 -71 -91 -25 -42 54 -16 138 56 180 37 23 53 26 107 22 75
-5 129 -35 176 -100 40 -55 53 -108 48 -193 -15 -229 -256 -377 -460 -283
-163 75 -261 265 -231 443 17 99 63 187 135 259 199 198 509 194 714 -9 115
-115 169 -251 168 -420 -2 -165 -54 -294 -182 -447 -83 -99 -112 -148 -112
-184 0 -43 16 -46 83 -20 247 101 429 442 388 732 -42 304 -258 556 -537 628
-93 24 -242 21 -329 -8z"/>
<path d="M4180 3885 c-22 -27 0 -68 74 -142 148 -146 244 -186 441 -186 220
-1 424 70 451 155 15 49 -48 58 -281 37 -212 -19 -349 7 -542 105 -99 49 -123
55 -143 31z"/>
</g>
</svg>
