<?xml version="1.0" standalone="no"?>
<!DOCTYPE svg PUBLIC "-//W3C//DTD SVG 20010904//EN"
 "http://www.w3.org/TR/2001/REC-SVG-20010904/DTD/svg10.dtd">
<svg version="1.0" xmlns="http://www.w3.org/2000/svg"
 width="1000.000000pt" height="1000.000000pt" viewBox="0 0 1000.000000 1000.000000"
 preserveAspectRatio="xMidYMid meet">
<metadata>
  <rdf:RDF
    xmlns:rdf = "http://www.w3.org/1999/02/22-rdf-syntax-ns#"
    xmlns:rdfs = "http://www.w3.org/2000/01/rdf-schema#"
    xmlns:dc = "http://purl.org/dc/elements/1.1/"
    xmlns:cc = "http://creativecommons.org/ns#">
    <cc:license rdf:resource="http://creativecommons.org/publicdomain/zero/1.0/deed.en"/>
    <cc:permits rdf:resource="http://creativecommons.org/ns#Reproduction"/>
    <rdf:Description about="https://nft.mir.one/fingerprints"
      dc:title="TON Fingerprints"
      dc:description="This is a unique digital fingerprint created based on the algorithm for generating basic rings using a noise texture. Like human fingerprints, you can now use it for the Web3 and Metaverse era as digital biometric information."
      dc:publisher="https://nft.mir.one"
      dc:date="2022-02-22"
      dc:format="image/svg+xml"
      dc:language="en" >
      <dc:creator>
      <rdf:Bag>
        <rdf:li>EQBondcvD2_aOFADXSWJHs4ZazQDuEl9_wNvGGPxI8hGuOFU</rdf:li>
        <rdf:li>ipfs://bafkreihj7iub3fhmhq6jn62noukt5wxn3gv6bvcg7wmt6ywvlurefezckq</rdf:li>
      </rdf:Bag>
      </dc:creator>
    </rdf:Description>
  </rdf:RDF>
</metadata>
<rect width="100%" height="100%" fill="#1b1f23"/>
<g transform="translate(0.000000,1000.000000) scale(0.100000,-0.100000)"
fill="#ffffff" stroke="none">
<path d="M5082 7766 c31 -39 70 -70 142 -112 124 -74 180 -134 197 -210 12
-51 23 -67 147 -202 290 -317 408 -498 385 -592 -4 -20 -14 -35 -22 -35 -8 0
-32 25 -53 55 -131 190 -412 475 -576 584 -128 86 -167 125 -225 225 -33 56
-60 89 -91 111 -57 39 -184 93 -291 124 -46 13 -92 29 -104 35 -26 14 -26 14
-1 -40 25 -57 440 -461 630 -614 161 -130 222 -182 400 -340 164 -146 198
-168 264 -171 39 -2 54 -8 68 -26 21 -28 328 -468 386 -554 92 -138 128 -244
83 -244 -20 0 -48 30 -188 201 -43 53 -144 172 -224 266 -132 153 -166 185
-345 329 -110 88 -239 188 -289 224 -113 81 -275 207 -381 296 -415 350 -494
414 -519 424 -16 6 -72 17 -125 25 -90 13 -96 13 -120 -6 -43 -33 -72 -41
-151 -43 -77 -1 -77 -1 -17 -28 34 -16 64 -28 69 -28 4 0 17 -12 28 -26 31
-40 14 -50 -102 -64 -56 -7 -129 -18 -162 -26 -33 -8 -76 -14 -95 -14 -35 -1
-35 -1 15 -21 79 -31 239 -46 317 -29 34 8 95 14 133 14 60 0 81 -5 146 -36
140 -69 351 -217 582 -412 204 -172 219 -182 276 -189 74 -9 153 -55 263 -155
110 -100 194 -190 301 -323 91 -114 107 -129 176 -164 38 -19 88 -62 165 -142
113 -117 157 -150 235 -178 24 -8 71 -29 105 -46 185 -94 224 -187 233 -560 5
-185 2 -240 -17 -388 -17 -140 -19 -181 -11 -223 6 -28 9 -53 7 -56 -12 -11
-58 -3 -78 14 -42 38 -48 72 -27 152 40 158 34 531 -11 709 -39 151 -104 253
-162 253 -44 0 -44 -32 -4 -177 52 -186 64 -257 76 -453 6 -96 15 -213 19
-260 9 -95 0 -121 -37 -101 -45 24 -63 98 -82 346 -5 77 -19 183 -30 235 -29
141 -98 377 -126 434 -25 49 -221 302 -266 342 -34 30 -55 35 -74 17 -33 -33
9 -137 121 -297 112 -163 176 -317 230 -561 29 -128 35 -239 21 -380 -7 -75
-5 -88 28 -200 53 -176 62 -257 43 -385 -19 -128 -57 -249 -148 -476 -71 -176
-80 -213 -54 -234 57 -47 203 114 334 370 27 52 93 190 147 305 90 193 98 215
99 273 0 35 6 66 11 70 20 13 33 47 64 171 71 281 72 295 77 866 5 589 3 612
-76 833 -54 150 -298 699 -307 690 -7 -7 75 -243 161 -463 132 -339 140 -367
140 -500 0 -104 -2 -112 -27 -150 -19 -27 -28 -52 -28 -80 0 -43 -22 -85 -45
-85 -35 0 -117 117 -209 300 -52 103 -134 258 -184 346 -108 192 -148 271
-196 387 -89 216 -186 374 -369 602 -173 216 -315 339 -484 416 -48 22 -121
56 -161 74 -72 34 -72 34 -30 -19z"/>
<path d="M5706 7603 c24 -38 51 -77 59 -88 284 -369 350 -475 510 -819 62
-133 147 -311 188 -396 41 -85 99 -211 128 -280 30 -69 67 -140 85 -159 90
-99 84 70 -13 329 -57 152 -189 454 -264 601 -140 277 -315 504 -550 717 -193
174 -196 176 -143 95z"/>
<path d="M4193 7586 c4 -6 7 -18 7 -28 0 -10 5 -18 10 -18 15 0 12 16 -7 37
-10 10 -15 14 -10 9z"/>
<path d="M5187 7523 c-25 -24 18 -84 83 -116 110 -55 123 17 17 94 -37 27 -85
38 -100 22z"/>
<path d="M3755 7100 c-105 -28 -185 -54 -185 -61 0 -11 81 -28 210 -45 235
-31 340 -70 406 -150 32 -39 63 -58 194 -123 330 -162 498 -307 692 -596 106
-159 188 -330 293 -615 48 -129 126 -336 172 -460 47 -124 113 -306 147 -406
66 -194 86 -234 116 -234 27 0 40 30 40 92 0 76 -20 150 -115 432 -46 138
-106 335 -134 437 -27 102 -66 230 -86 285 -57 156 -165 366 -272 530 -54 83
-125 194 -158 248 -93 152 -237 287 -470 439 -212 139 -345 195 -532 227 -141
24 -226 24 -318 0z"/>
<path d="M3590 6856 c-36 -13 -102 -41 -146 -63 -82 -40 -82 -40 -32 -52 27
-6 98 -11 156 -11 59 0 179 -7 267 -16 174 -17 252 -13 286 15 64 51 -43 100
-295 136 -135 20 -160 19 -236 -9z"/>
<path d="M3455 6591 c-98 -35 -243 -125 -224 -137 7 -4 76 -6 153 -5 170 2
336 -12 511 -44 173 -32 245 -55 396 -126 78 -37 150 -64 190 -70 35 -6 91
-25 124 -43 152 -80 348 -353 362 -506 4 -47 2 -58 -15 -73 -12 -11 -25 -16
-31 -13 -5 3 -28 41 -51 84 -133 246 -334 465 -410 445 -27 -7 -30 -36 -10
-81 22 -48 295 -415 341 -458 19 -18 53 -44 77 -58 32 -20 50 -41 67 -79 33
-71 39 -121 26 -221 -9 -64 -9 -138 -1 -284 27 -480 31 -514 76 -520 54 -8 70
59 80 330 5 154 3 215 -10 301 -9 59 -16 125 -16 147 0 35 3 40 23 40 45 0 82
-60 122 -197 30 -103 33 -171 10 -233 -11 -29 -20 -99 -26 -200 -4 -85 -15
-193 -24 -240 -22 -125 -20 -207 10 -292 59 -168 15 -364 -146 -653 -130 -233
-140 -255 -137 -299 3 -40 4 -41 41 -44 35 -3 43 2 100 60 150 154 286 425
328 658 7 36 12 121 12 190 0 116 -36 489 -67 710 -11 75 -12 98 -2 108 20 21
62 -20 86 -85 12 -31 46 -156 77 -277 52 -209 55 -230 60 -376 9 -247 -30
-434 -132 -648 -105 -220 -232 -372 -389 -468 -105 -65 -175 -129 -290 -269
-91 -110 -155 -168 -261 -239 -38 -25 -87 -59 -107 -75 -38 -28 -38 -28 5 -25
23 2 85 5 137 8 103 5 237 39 318 80 32 16 73 55 127 117 89 103 297 330 340
369 35 33 150 178 204 258 168 251 276 648 258 957 -7 117 -23 176 -64 236
-46 67 -67 112 -118 259 -26 74 -75 195 -110 270 -35 74 -79 176 -98 225 -19
50 -64 149 -99 220 -36 72 -82 182 -102 245 -82 252 -112 319 -205 460 -149
224 -383 401 -650 490 -92 31 -149 39 -471 64 -342 27 -340 27 -395 7z"/>
<path d="M5217 6533 c-12 -12 -7 -57 12 -98 10 -22 61 -101 113 -175 157 -224
207 -313 281 -500 56 -142 73 -206 91 -347 19 -141 31 -187 127 -484 108 -336
119 -382 119 -503 0 -324 -34 -625 -98 -876 -74 -288 -165 -443 -453 -765
-171 -192 -187 -213 -243 -315 -26 -46 -74 -112 -107 -146 -32 -34 -59 -67
-59 -73 0 -6 -14 -26 -30 -45 -31 -35 -31 -35 7 -16 66 32 225 80 318 96 262
45 529 227 921 625 316 323 407 450 609 855 140 280 140 280 91 250 -55 -35
-100 -94 -211 -281 -160 -267 -267 -401 -436 -542 -39 -32 -149 -144 -246
-250 -393 -431 -654 -638 -721 -571 -7 7 -12 19 -12 27 0 8 93 107 208 220
202 201 357 381 462 536 81 120 90 145 90 262 0 88 6 126 49 295 67 263 76
320 75 488 -1 189 -23 295 -94 450 -50 110 -98 246 -195 558 -43 137 -55 214
-36 226 46 29 111 -119 245 -554 41 -132 67 -180 96 -180 54 0 45 114 -31 380
-64 229 -111 326 -209 437 -70 79 -114 166 -165 327 -55 172 -142 309 -329
519 -128 143 -209 201 -239 170z"/>
<path d="M3295 6291 c-79 -38 -204 -130 -179 -132 11 -1 114 -3 229 -3 176 -2
227 -5 313 -24 326 -71 495 -193 728 -524 177 -252 232 -404 269 -738 9 -80
23 -171 31 -203 46 -179 39 -291 -27 -465 -22 -59 -52 -150 -66 -202 -31 -123
-65 -197 -131 -288 -110 -154 -195 -235 -372 -357 -147 -101 -186 -134 -254
-212 -72 -84 -80 -111 -41 -142 33 -25 146 -51 225 -51 103 0 145 16 217 83
58 54 62 62 49 76 -22 21 -71 17 -163 -12 -102 -33 -148 -40 -173 -27 -16 9
-18 15 -10 29 10 19 147 93 270 147 182 79 296 186 462 434 50 74 114 160 144
190 68 70 120 158 134 225 11 55 1 115 -50 282 -24 79 -44 226 -70 518 -11
127 -27 266 -35 310 -21 112 -83 230 -217 416 -62 86 -157 217 -211 292 -55
76 -120 155 -145 178 -126 110 -357 191 -631 218 -174 18 -228 15 -296 -18z
m1553 -2149 c-6 -45 -53 -145 -79 -168 -10 -9 -25 -14 -34 -11 -49 20 39 217
97 217 18 0 20 -5 16 -38z"/>
<path d="M3243 6020 c-38 -9 -143 -83 -196 -138 -38 -39 -38 -39 -8 -45 17 -4
68 1 114 10 114 23 319 23 411 -1 172 -45 322 -133 447 -263 122 -126 208
-271 264 -443 37 -112 46 -309 20 -410 -25 -98 -70 -183 -124 -237 -36 -35
-67 -84 -116 -183 -92 -184 -150 -267 -274 -391 -142 -143 -288 -237 -446
-289 -38 -13 -82 -32 -97 -42 -14 -10 -32 -18 -39 -18 -7 0 29 -21 81 -46 60
-29 111 -47 144 -51 48 -4 57 -1 143 50 247 147 436 331 567 552 30 50 98 178
151 285 54 107 119 234 146 281 64 111 75 171 60 318 -21 196 -89 378 -210
557 -178 263 -370 409 -629 475 -134 34 -329 48 -409 29z"/>
<path d="M3215 5713 c-76 -25 -85 -31 -177 -124 -106 -106 -107 -109 -11 -109
154 0 411 -132 543 -278 196 -218 248 -582 120 -847 -90 -186 -254 -325 -460
-391 -47 -15 -102 -35 -123 -44 -37 -18 -37 -18 30 -58 81 -49 134 -72 165
-72 13 0 56 16 96 35 267 128 483 386 521 625 12 73 -2 318 -25 440 -30 162
-111 319 -222 430 -75 74 -132 112 -277 185 -105 53 -120 63 -120 85 0 22 5
25 43 28 144 11 379 -118 514 -282 129 -156 183 -311 202 -581 7 -99 16 -188
20 -197 5 -10 19 -18 33 -18 55 0 101 183 90 363 -19 324 -222 628 -512 767
-160 77 -304 91 -450 43z"/>
<path d="M7058 5363 c-26 -29 -38 -92 -38 -201 0 -214 -36 -412 -109 -605 -23
-59 -41 -118 -41 -132 0 -62 65 -2 100 92 62 165 90 365 90 642 0 140 3 200
12 209 7 7 10 12 7 12 -3 0 -13 -8 -21 -17z"/>
<path d="M3049 5300 c-25 -16 -66 -56 -91 -88 -46 -59 -46 -59 81 -58 123 1
127 0 187 -31 213 -111 293 -366 187 -592 -53 -112 -198 -225 -323 -250 -51
-11 -132 -40 -112 -41 8 0 39 -20 70 -44 69 -53 113 -76 145 -76 54 0 170 71
252 154 87 88 132 165 161 277 22 83 22 233 0 318 -51 193 -193 351 -383 426
-98 39 -123 39 -174 5z"/>
<path d="M3039 5003 c-35 -30 -68 -94 -69 -133 0 -33 26 -70 50 -70 16 0 19 6
17 38 -2 35 0 37 29 40 93 9 127 -131 51 -212 -25 -26 -51 -40 -109 -56 -76
-23 -76 -23 -35 -62 107 -102 149 -111 229 -45 113 91 153 245 96 368 -29 64
-78 115 -133 140 -56 26 -88 23 -126 -8z"/>
<path d="M4510 4578 c-11 -18 -30 -62 -41 -98 -33 -102 -103 -268 -157 -377
-73 -145 -164 -275 -267 -382 -149 -155 -399 -345 -546 -416 -39 -19 -81 -43
-93 -53 -12 -11 -28 -22 -36 -25 -11 -4 -9 -6 5 -6 12 -1 60 -17 107 -36 53
-22 105 -36 134 -37 45 -1 48 1 138 89 50 50 147 134 216 188 233 182 364 336
460 538 60 126 137 339 157 432 16 76 12 177 -7 200 -20 25 -49 17 -70 -17z"/>
<path d="M6990 4347 c-51 -17 -74 -33 -66 -46 12 -19 35 -12 74 24 20 19 35
34 32 34 -3 0 -21 -6 -40 -12z"/>
<path d="M5050 4018 c-11 -12 -45 -68 -74 -124 -67 -127 -218 -371 -294 -477
-77 -108 -164 -194 -266 -261 -83 -56 -96 -70 -96 -106 0 -10 -9 -34 -20 -53
-40 -68 -8 -85 117 -62 48 9 112 21 142 27 75 14 132 69 201 195 29 54 96 173
147 265 146 260 213 428 213 537 0 80 -28 104 -70 59z"/>
<path d="M3711 2838 c-45 -10 -45 -10 59 -55 136 -58 220 -80 352 -95 60 -6
116 -17 126 -25 16 -12 15 -15 -11 -38 -15 -13 -55 -33 -90 -44 -34 -11 -84
-28 -111 -39 -48 -19 -48 -19 53 -25 112 -6 204 8 267 42 56 29 185 140 207
179 25 42 16 79 -19 88 -15 4 -63 1 -108 -6 -45 -7 -102 -10 -126 -6 -25 3
-151 10 -280 15 -129 5 -244 12 -255 14 -11 3 -40 1 -64 -5z"/>
</g>
</svg>
