<?xml version="1.0" standalone="no"?>
<!DOCTYPE svg PUBLIC "-//W3C//DTD SVG 20010904//EN"
 "http://www.w3.org/TR/2001/REC-SVG-20010904/DTD/svg10.dtd">
<svg version="1.0" xmlns="http://www.w3.org/2000/svg"
 width="1000.000000pt" height="1000.000000pt" viewBox="0 0 1000.000000 1000.000000"
 preserveAspectRatio="xMidYMid meet">
<metadata>
  <rdf:RDF
    xmlns:rdf = "http://www.w3.org/1999/02/22-rdf-syntax-ns#"
    xmlns:rdfs = "http://www.w3.org/2000/01/rdf-schema#"
    xmlns:dc = "http://purl.org/dc/elements/1.1/"
    xmlns:cc = "http://creativecommons.org/ns#">
    <cc:license rdf:resource="http://creativecommons.org/publicdomain/zero/1.0/deed.en"/>
    <cc:permits rdf:resource="http://creativecommons.org/ns#Reproduction"/>
    <rdf:Description about="https://nft.mir.one/fingerprints"
      dc:title="TON Fingerprints"
      dc:description="This is a unique digital fingerprint created based on the algorithm for generating basic rings using a noise texture. Like human fingerprints, you can now use it for the Web3 and Metaverse era as digital biometric information."
      dc:publisher="https://nft.mir.one"
      dc:date="2022-02-22"
      dc:format="image/svg+xml"
      dc:language="en" >
      <dc:creator>
      <rdf:Bag>
        <rdf:li>EQBondcvD2_aOFADXSWJHs4ZazQDuEl9_wNvGGPxI8hGuOFU</rdf:li>
        <rdf:li>ipfs://bafkreihj7iub3fhmhq6jn62noukt5wxn3gv6bvcg7wmt6ywvlurefezckq</rdf:li>
      </rdf:Bag>
      </dc:creator>
    </rdf:Description>
  </rdf:RDF>
</metadata>
<rect width="100%" height="100%" fill="#1b1f23"/>
<g transform="translate(0.000000,1000.000000) scale(0.100000,-0.100000)"
fill="#ffffff" stroke="none">
<path d="M4960 7791 c19 -10 116 -59 214 -110 222 -113 358 -202 551 -361 222
-182 299 -236 478 -335 89 -50 203 -118 252 -151 154 -103 205 -135 205 -125
0 22 -255 252 -355 320 -133 90 -260 185 -458 344 -288 230 -431 303 -784 403
-137 39 -153 41 -103 15z"/>
<path d="M4525 7696 c25 -22 95 -59 185 -97 208 -89 334 -149 452 -214 308
-172 635 -428 778 -609 97 -123 157 -165 174 -120 6 17 0 32 -49 117 -26 45
-28 77 -5 77 20 0 94 -76 162 -167 38 -51 103 -123 145 -160 175 -156 352
-375 503 -621 118 -191 152 -244 156 -239 8 8 -112 303 -180 442 -133 270
-286 474 -478 637 -122 104 -213 164 -273 178 -67 17 -96 36 -317 212 -500
397 -706 498 -1146 563 -57 8 -114 20 -125 26 -12 5 -4 -6 18 -25z"/>
<path d="M4185 7556 c48 -30 18 -16 310 -144 659 -286 937 -465 1317 -843 171
-171 193 -189 273 -228 280 -138 627 -662 827 -1251 22 -63 54 -169 73 -235
19 -66 46 -149 60 -185 25 -65 25 -65 21 -10 -30 329 -62 517 -122 729 -47
166 -91 273 -165 400 -216 372 -481 656 -717 768 -87 42 -106 57 -256 202
-269 260 -504 426 -851 598 -349 175 -460 210 -680 219 -130 5 -130 5 -90 -20z"/>
<path d="M5936 7472 c81 -79 267 -227 349 -276 52 -32 -29 37 -305 257 -135
109 -135 109 -44 19z"/>
<path d="M3940 7361 c-95 -18 -95 -18 -55 -38 22 -11 74 -28 115 -38 206 -49
647 -217 880 -336 255 -129 452 -263 714 -484 183 -154 216 -169 216 -101 0
47 -45 110 -147 207 -311 292 -666 504 -1221 731 -177 72 -177 72 -292 74 -76
2 -147 -3 -210 -15z"/>
<path d="M3849 7159 c-37 -4 -101 -15 -144 -24 -76 -17 -76 -17 -47 -35 16
-10 94 -36 173 -59 80 -23 219 -66 309 -96 91 -31 240 -78 333 -105 338 -101
553 -223 997 -568 227 -177 246 -195 349 -332 265 -352 475 -789 581 -1210 63
-251 83 -441 55 -535 -20 -70 -16 -124 16 -209 23 -64 72 -123 104 -128 13 -2
24 6 33 26 20 41 -1 614 -28 771 -66 371 -278 855 -545 1240 -35 50 -93 140
-130 200 -82 136 -97 152 -161 168 -69 18 -114 46 -289 183 -279 217 -541 376
-785 477 -115 48 -497 180 -606 211 -116 32 -136 34 -215 25z"/>
<path d="M3595 6924 c-33 -8 -81 -17 -107 -20 -47 -6 -47 -6 -11 -31 20 -13
140 -58 266 -100 368 -120 487 -176 627 -295 36 -31 193 -141 351 -246 307
-205 403 -276 518 -386 104 -101 150 -164 221 -306 34 -69 91 -177 126 -241
155 -283 235 -533 194 -610 -27 -50 -51 -14 -136 206 -76 198 -199 421 -277
502 -17 18 -53 40 -80 49 -32 11 -86 46 -151 98 -158 128 -204 160 -311 216
-55 29 -183 107 -285 174 -414 274 -547 335 -956 442 -130 34 -186 44 -213 39
-37 -7 -211 -86 -211 -96 0 -19 144 -56 554 -144 87 -19 182 -42 210 -51 127
-41 376 -185 574 -331 123 -91 171 -141 204 -213 27 -57 56 -90 244 -275 252
-247 290 -295 231 -295 -37 0 -103 48 -242 177 -147 136 -216 208 -326 339
-42 50 -114 121 -160 158 -178 144 -431 297 -562 340 -59 20 -134 21 -178 2
-20 -8 -42 -11 -58 -6 -14 4 -100 31 -190 59 -91 28 -178 51 -194 51 -28 0
-196 -69 -197 -80 0 -11 61 -42 129 -64 59 -21 242 -97 406 -169 103 -45 448
-292 636 -454 57 -50 228 -211 379 -359 283 -277 431 -407 674 -592 246 -188
358 -318 465 -543 169 -354 200 -689 111 -1212 -11 -65 -20 -144 -20 -175 0
-57 0 -57 50 33 86 153 148 287 164 350 39 153 48 457 20 620 -51 298 -264
716 -468 921 -83 83 -128 115 -276 199 -97 54 -293 195 -424 304 -49 41 -195
178 -325 304 -278 271 -414 382 -670 551 -104 68 -196 135 -205 147 -18 26
-21 69 -5 69 25 0 296 -147 405 -219 180 -120 268 -196 509 -436 252 -252 351
-338 486 -423 53 -33 125 -82 160 -109 77 -60 119 -83 154 -83 55 0 41 53 -47
174 -49 67 -78 123 -112 216 -24 69 -91 146 -243 281 -226 203 -270 246 -256
259 31 32 118 -23 348 -217 84 -71 160 -145 190 -185 68 -91 208 -364 236
-462 26 -90 59 -130 137 -170 26 -13 57 -35 68 -48 38 -41 319 -540 382 -678
152 -332 171 -566 83 -1000 -11 -52 -22 -119 -24 -148 -4 -53 -4 -53 75 98 91
172 167 344 199 450 29 95 23 233 -15 363 -34 115 -130 311 -215 440 -95 143
-113 176 -171 312 -48 110 -73 196 -130 445 -43 186 -157 445 -314 714 -197
337 -383 508 -904 834 -267 167 -316 212 -236 220 67 6 423 -199 679 -392 337
-253 499 -451 706 -861 111 -220 156 -340 238 -630 98 -344 151 -478 211 -529
38 -32 46 -32 61 -5 16 31 5 102 -57 349 -91 367 -170 592 -293 837 -137 273
-295 506 -439 650 -252 250 -727 573 -962 655 -30 10 -104 25 -165 33 -87 11
-141 26 -259 69 -238 90 -453 156 -499 155 -23 0 -69 -7 -102 -15z"/>
<path d="M3442 6675 c-23 -7 -63 -22 -87 -34 -25 -12 -55 -21 -67 -21 -45 0
79 -48 207 -80 195 -49 446 -134 575 -196 140 -67 213 -111 540 -322 438 -282
431 -278 609 -439 54 -50 99 -83 112 -83 19 0 21 4 16 39 -10 76 -135 217
-312 350 -178 135 -808 545 -932 607 -74 37 -202 88 -322 128 -211 70 -257 77
-339 51z"/>
<path d="M6000 6225 c-21 -25 10 -87 134 -262 289 -411 452 -762 565 -1211 54
-217 59 -262 32 -305 -26 -42 -27 -108 -5 -220 11 -56 15 -111 12 -181 -5
-103 -12 -128 -69 -230 -22 -38 -22 -38 -5 -180 11 -92 23 -147 33 -158 8 -9
21 -34 29 -55 13 -38 13 -38 14 8 0 67 24 193 74 396 24 98 51 234 61 302 9
69 23 138 32 154 41 81 19 283 -63 569 -140 490 -349 904 -617 1224 -121 145
-192 191 -227 149z m836 -1801 c10 -14 19 -48 22 -76 4 -45 3 -50 -14 -46 -22
4 -52 60 -61 112 -5 32 -3 36 15 36 12 0 29 -12 38 -26z"/>
<path d="M3090 5829 c-30 -11 -63 -23 -72 -26 -10 -3 -18 -8 -18 -10 0 -11 54
-46 128 -83 89 -45 154 -98 198 -162 16 -23 48 -69 71 -102 69 -94 57 -118
-45 -92 -69 18 -266 22 -308 5 -33 -12 -113 -61 -114 -69 -1 -24 193 -50 425
-56 160 -4 160 -4 250 -47 173 -84 374 -220 484 -329 65 -64 199 -240 207
-273 7 -27 -1 -45 -21 -45 -7 0 -46 18 -87 39 -69 37 -77 39 -139 34 -79 -7
-81 -6 -356 104 -218 87 -377 133 -528 154 -74 11 -91 10 -119 -3 -40 -19
-129 -95 -118 -101 11 -7 107 -25 202 -37 159 -21 277 -56 525 -155 71 -28
163 -54 261 -74 170 -35 337 -89 404 -131 119 -76 250 -259 294 -411 18 -63
70 -500 87 -734 7 -94 9 -258 6 -400 -6 -252 -16 -329 -61 -449 -13 -34 -30
-83 -38 -109 -16 -49 -16 -49 6 -28 12 11 51 33 86 47 89 36 163 87 185 127
15 29 17 49 11 148 -3 63 -10 240 -15 394 -10 293 -18 389 -52 595 -11 69 -24
156 -29 194 -16 107 14 181 55 140 18 -18 67 -173 94 -299 43 -199 53 -295 58
-595 6 -320 12 -364 54 -358 47 7 78 89 99 258 29 238 -10 573 -95 821 -46
132 -84 195 -156 258 -35 31 -77 83 -108 134 -51 85 -119 178 -253 350 -43 53
-94 127 -114 165 -117 213 -295 393 -606 616 -74 53 -157 115 -183 138 -66 59
-157 175 -206 264 -45 81 -93 128 -185 180 -70 39 -89 41 -164 13z"/>
<path d="M3527 5713 c-40 -39 95 -176 413 -421 265 -204 377 -314 605 -597 62
-77 168 -203 235 -280 160 -183 233 -281 279 -374 53 -104 144 -346 175 -461
53 -201 61 -261 60 -490 -1 -283 -17 -345 -143 -548 -30 -48 -43 -83 -55 -150
-19 -102 -19 -115 -6 -163 10 -37 10 -37 74 30 77 80 107 127 137 214 12 37
40 90 62 118 62 82 81 153 97 372 24 302 -27 577 -166 895 -55 125 -67 188
-39 198 55 21 190 -196 265 -426 62 -191 75 -282 75 -540 -1 -289 -19 -667
-38 -748 -7 -34 -11 -59 -7 -55 37 41 102 143 137 214 38 75 46 103 59 201 62
471 20 836 -130 1138 -88 176 -155 253 -316 358 -108 70 -146 106 -595 557
-264 265 -518 513 -565 552 -138 114 -481 373 -522 394 -37 19 -79 25 -91 12z"/>
<path d="M3060 5583 c-8 -3 -34 -14 -57 -24 -23 -11 -48 -19 -55 -19 -28 0 65
-40 148 -64 100 -30 136 -32 153 -12 38 46 -122 146 -189 119z"/>
<path d="M3050 5129 c-13 -6 -48 -28 -77 -50 -29 -21 -58 -39 -65 -40 -41 -2
80 -30 169 -39 316 -32 469 -80 801 -250 107 -55 201 -100 208 -100 18 0 18
34 -1 69 -52 101 -408 315 -607 365 -77 20 -346 58 -391 55 -6 0 -23 -5 -37
-10z"/>
<path d="M3065 4600 c-39 -19 -122 -87 -114 -93 11 -8 89 -27 113 -27 47 0
176 -30 262 -61 45 -17 122 -57 171 -89 104 -68 334 -261 440 -368 111 -112
192 -240 193 -304 0 -46 -29 -34 -94 40 -167 187 -333 328 -494 418 -63 36
-88 56 -102 83 -34 68 -101 109 -223 140 -81 21 -111 16 -164 -26 -19 -15 -47
-36 -61 -45 -27 -18 -27 -18 -3 -18 13 0 40 -4 60 -9 20 -5 72 -14 116 -20 44
-7 115 -21 158 -32 62 -17 77 -25 77 -40 0 -29 -45 -42 -131 -36 -88 6 -135
-10 -183 -62 -17 -17 -37 -31 -45 -32 -42 -3 69 -20 189 -29 74 -6 164 -18
200 -26 132 -30 272 -119 472 -301 118 -106 246 -188 282 -179 34 8 48 51 49
153 4 191 -70 309 -355 570 -37 34 -81 84 -98 112 -36 58 -81 89 -240 165
-114 54 -273 107 -360 121 -25 3 -52 8 -60 10 -8 3 -33 -4 -55 -15z"/>
<path d="M3847 4386 c-9 -24 27 -61 131 -133 184 -128 289 -257 349 -428 27
-79 27 -82 28 -350 1 -148 6 -330 12 -404 16 -188 0 -381 -43 -531 -9 -30 -21
-87 -29 -127 -12 -74 -12 -74 9 -55 11 11 41 29 66 40 68 30 130 79 145 116
28 66 45 239 45 448 0 204 -21 582 -41 733 -35 273 -147 466 -344 595 -134 87
-312 139 -328 96z"/>
<path d="M3201 3838 c-24 -18 -54 -40 -67 -49 -23 -15 -19 -17 109 -48 216
-54 352 -134 522 -305 99 -100 171 -201 205 -286 49 -124 62 -293 35 -445 -14
-78 -20 -165 -10 -165 6 0 73 29 110 48 41 20 75 52 86 80 18 47 29 231 19
335 -17 175 -52 278 -119 346 -50 50 -342 301 -416 356 -114 86 -269 152 -375
162 -51 5 -58 2 -99 -29z"/>
<path d="M3294 3545 c-27 -14 -58 -25 -68 -25 -12 0 -2 -9 25 -23 144 -77 280
-206 342 -325 35 -65 67 -181 92 -325 4 -28 9 -36 18 -29 7 5 27 13 45 17 19
4 49 20 68 37 29 26 34 36 34 75 0 97 -57 244 -135 349 -104 138 -279 274
-353 274 -10 0 -41 -11 -68 -25z"/>
<path d="M5433 2542 c-37 -23 -58 -157 -29 -181 33 -28 96 138 66 174 -14 17
-20 18 -37 7z"/>
</g>
</svg>
