<?xml version="1.0" standalone="no"?>
<!DOCTYPE svg PUBLIC "-//W3C//DTD SVG 20010904//EN"
 "http://www.w3.org/TR/2001/REC-SVG-20010904/DTD/svg10.dtd">
<svg version="1.0" xmlns="http://www.w3.org/2000/svg"
 width="1000.000000pt" height="1000.000000pt" viewBox="0 0 1000.000000 1000.000000"
 preserveAspectRatio="xMidYMid meet">
<metadata>
  <rdf:RDF
    xmlns:rdf = "http://www.w3.org/1999/02/22-rdf-syntax-ns#"
    xmlns:rdfs = "http://www.w3.org/2000/01/rdf-schema#"
    xmlns:dc = "http://purl.org/dc/elements/1.1/"
    xmlns:cc = "http://creativecommons.org/ns#">
    <cc:license rdf:resource="http://creativecommons.org/publicdomain/zero/1.0/deed.en"/>
    <cc:permits rdf:resource="http://creativecommons.org/ns#Reproduction"/>
    <rdf:Description about="https://nft.mir.one/fingerprints"
      dc:title="TON Fingerprints"
      dc:description="This is a unique digital fingerprint created based on the algorithm for generating basic rings using a noise texture. Like human fingerprints, you can now use it for the Web3 and Metaverse era as digital biometric information."
      dc:publisher="https://nft.mir.one"
      dc:date="2022-02-22"
      dc:format="image/svg+xml"
      dc:language="en" >
      <dc:creator>
      <rdf:Bag>
        <rdf:li>EQBondcvD2_aOFADXSWJHs4ZazQDuEl9_wNvGGPxI8hGuOFU</rdf:li>
        <rdf:li>ipfs://bafkreihj7iub3fhmhq6jn62noukt5wxn3gv6bvcg7wmt6ywvlurefezckq</rdf:li>
      </rdf:Bag>
      </dc:creator>
    </rdf:Description>
  </rdf:RDF>
</metadata>
<rect width="100%" height="100%" fill="#1b1f23"/>
<g transform="translate(0.000000,1000.000000) scale(0.100000,-0.100000)"
fill="#ffffff" stroke="none">
<path d="M4955 7724 c-306 -30 -498 -75 -795 -184 -135 -50 -135 -50 -50 -44
47 3 173 23 280 44 304 61 611 101 880 115 102 6 320 31 327 39 15 15 -536 41
-642 30z"/>
<path d="M5010 7490 c-298 -34 -374 -47 -644 -110 -304 -70 -462 -131 -696
-269 -105 -62 -105 -62 -45 -56 33 4 101 15 152 26 50 10 216 37 367 59 246
35 285 43 356 74 129 57 190 69 433 86 81 5 189 19 240 31 63 14 142 22 252
26 120 3 174 10 218 24 64 21 175 25 285 10 37 -5 96 -12 132 -15 65 -5 65 -5
-50 40 -279 110 -529 128 -1000 74z"/>
<path d="M5668 7299 c-31 -18 -21 -46 25 -73 49 -28 690 -241 757 -251 44 -7
41 -5 -80 75 -135 88 -326 185 -430 218 -121 39 -237 52 -272 31z"/>
<path d="M5230 7217 c-34 -17 -38 -52 -8 -71 13 -8 76 -33 142 -56 65 -22 252
-97 415 -166 650 -276 1005 -412 956 -366 -78 74 -221 188 -300 241 -90 60
-130 78 -390 175 -159 59 -346 135 -415 168 -69 32 -152 66 -185 73 -74 18
-182 19 -215 2z"/>
<path d="M4611 7138 c-59 -22 -67 -61 -19 -92 13 -8 102 -31 198 -51 195 -40
299 -73 570 -180 213 -83 297 -124 501 -241 171 -99 309 -162 506 -232 183
-66 236 -93 303 -157 78 -73 111 -89 176 -81 31 4 55 2 59 -4 3 -5 10 -10 14
-10 5 0 0 17 -9 38 -10 20 -26 54 -36 76 -10 21 -38 54 -65 75 -210 159 -207
157 -424 244 -116 47 -273 114 -350 149 -77 36 -199 93 -271 126 -72 34 -224
99 -338 146 -114 46 -236 103 -271 126 -35 23 -86 49 -112 57 -65 21 -383 29
-432 11z m2242 -928 c35 -39 32 -65 -7 -66 -38 -1 -96 49 -96 83 0 24 2 25 38
20 24 -4 47 -17 65 -37z"/>
<path d="M4200 6984 c-116 -9 -371 -36 -424 -45 -134 -23 -242 -104 -359 -267
-92 -128 -197 -284 -216 -319 -34 -66 69 22 148 126 94 122 222 245 292 280
77 39 153 42 206 10 33 -21 35 -21 129 -5 254 44 371 40 576 -20 67 -20 195
-52 283 -71 317 -68 556 -137 728 -209 90 -37 123 -63 114 -89 -11 -27 -94
-17 -287 35 -326 87 -545 127 -736 132 -91 3 -91 3 -131 -37 -42 -44 -57 -50
-274 -119 -144 -45 -318 -124 -518 -235 -51 -29 -159 -82 -240 -118 -253 -113
-294 -137 -343 -195 -48 -57 -81 -104 -151 -215 -46 -72 -46 -72 -9 -59 20 8
93 50 162 95 69 45 222 131 340 191 141 72 238 129 283 164 149 121 350 204
757 313 95 25 120 28 265 27 174 -1 257 -13 580 -84 99 -21 218 -44 264 -50
159 -21 313 -96 422 -204 76 -75 105 -126 113 -199 14 -131 66 -184 364 -376
215 -138 296 -198 412 -309 161 -154 160 -154 85 4 -107 224 -73 193 -491 467
-244 161 -347 267 -259 267 35 0 79 -23 251 -136 81 -53 213 -135 293 -181 80
-46 153 -88 161 -93 8 -5 30 -16 48 -24 34 -15 34 -15 20 7 -8 12 -31 49 -51
83 -52 87 -114 132 -601 436 -54 34 -77 54 -82 73 -4 18 -2 30 6 35 45 28 372
-154 565 -313 44 -36 82 -61 83 -56 9 25 -106 205 -170 266 -42 41 -236 159
-310 189 -31 13 -98 28 -147 34 -111 12 -183 39 -365 133 -110 57 -156 88
-222 148 -60 54 -110 89 -176 122 -173 85 -476 188 -748 253 -80 19 -210 57
-290 83 -147 49 -236 63 -350 55z"/>
<path d="M3730 6707 c-21 -6 -60 -37 -100 -78 -36 -36 -92 -88 -125 -115 -76
-61 -95 -84 -92 -109 3 -30 38 -30 109 0 35 15 105 42 157 60 99 35 144 62
149 88 4 20 -22 25 -82 14 -51 -9 -76 -5 -76 13 0 6 38 28 83 49 75 35 97 53
97 82 0 12 -76 10 -120 -4z"/>
<path d="M4188 6650 c-150 -27 -221 -61 -307 -149 -96 -96 -270 -176 -449
-205 -49 -8 -100 -20 -113 -26 -78 -41 -135 -90 -202 -174 -75 -93 -75 -93
-28 -80 27 7 70 23 97 37 28 14 131 53 229 87 202 70 343 134 522 237 145 83
259 123 438 153 72 12 134 25 138 30 18 17 0 46 -42 69 -36 20 -61 25 -140 27
-53 2 -117 -1 -143 -6z"/>
<path d="M4642 6219 c-40 -5 -125 -20 -190 -35 -388 -87 -692 -228 -590 -274
24 -11 16 -13 363 80 238 63 373 83 565 83 185 0 258 -8 509 -59 276 -56 502
-140 604 -225 27 -23 30 -29 18 -43 -22 -26 -61 -19 -233 38 -185 62 -358 106
-532 136 -354 60 -572 50 -974 -46 -132 -32 -223 -48 -307 -54 -87 -6 -138
-15 -185 -33 -126 -47 -326 -155 -491 -264 -107 -70 -150 -122 -242 -294 -46
-87 -46 -87 -9 -75 20 6 80 41 133 78 157 110 431 284 531 337 123 66 172 83
368 130 604 145 784 153 1252 55 174 -36 634 -156 667 -173 9 -6 24 -17 31
-27 13 -14 11 -19 -10 -36 -22 -18 -35 -20 -100 -15 -41 3 -133 20 -205 37
-261 63 -661 150 -745 161 -176 24 -449 -4 -745 -76 -254 -61 -376 -113 -523
-222 -42 -31 -128 -90 -192 -131 -252 -163 -323 -218 -359 -277 -24 -39 -129
-290 -131 -311 -1 -13 89 51 166 117 182 157 331 259 488 335 87 43 92 44 187
44 72 0 121 6 190 25 421 113 533 136 823 170 139 17 196 36 196 66 0 36 -37
44 -200 43 -252 -2 -490 -47 -828 -156 -205 -66 -229 -67 -204 -13 27 58 177
125 422 186 232 59 410 82 595 78 153 -4 153 -4 232 -46 65 -34 99 -44 189
-58 269 -41 683 -145 760 -190 25 -15 55 -45 75 -77 18 -29 54 -80 79 -113 26
-33 84 -116 130 -185 143 -214 385 -553 638 -896 13 -16 36 -38 51 -47 28 -16
28 -16 9 66 -49 213 -57 228 -227 454 -86 114 -193 254 -238 310 -112 140
-143 188 -150 227 -10 64 15 53 124 -55 128 -127 270 -295 419 -494 105 -142
184 -231 171 -193 -3 9 -19 64 -36 122 -60 207 -83 246 -260 443 -95 106 -215
209 -284 244 -22 12 -62 22 -88 24 -55 3 -50 0 -161 83 -56 41 -88 71 -88 83
0 26 36 42 78 34 63 -12 283 -117 377 -179 105 -71 279 -239 387 -376 84 -106
137 -159 124 -125 -5 11 -21 60 -37 109 -51 154 -94 235 -162 304 -127 131
-254 220 -527 372 -102 56 -202 116 -222 132 -20 16 -59 66 -87 111 -43 69
-51 90 -51 130 0 64 -22 108 -80 160 -91 82 -202 125 -483 186 -382 84 -573
103 -775 80z"/>
<path d="M4983 5316 c-62 -14 -179 -34 -260 -46 -213 -31 -376 -65 -553 -117
-85 -25 -218 -63 -295 -84 -163 -45 -174 -49 -280 -102 -128 -63 -320 -201
-446 -322 -49 -46 -62 -66 -92 -147 -19 -51 -43 -118 -52 -148 -9 -30 -22 -61
-28 -68 -20 -25 67 22 142 77 41 29 119 94 174 145 292 267 398 333 737 459
308 114 442 148 766 192 375 51 617 26 870 -90 216 -99 404 -297 496 -524 62
-152 100 -215 249 -416 78 -104 181 -251 230 -325 48 -74 105 -155 126 -178
39 -44 39 -44 35 30 -4 87 -28 230 -46 272 -8 17 -66 103 -131 191 -110 149
-186 261 -423 627 -153 236 -289 380 -426 447 -142 69 -407 136 -586 146 -78
4 -116 1 -207 -19z"/>
<path d="M4895 5064 c-233 -25 -445 -67 -584 -116 -47 -16 -163 -65 -257 -108
-354 -161 -446 -231 -620 -470 -109 -150 -109 -150 -123 -223 -6 -32 -26 -93
-45 -135 -42 -95 -56 -158 -62 -287 -3 -55 -6 -114 -8 -130 -4 -30 -4 -30 28
0 17 16 57 73 88 125 70 119 157 242 211 299 66 69 132 105 287 156 80 26 149
51 154 56 6 5 15 23 20 41 6 18 29 46 54 65 92 70 250 94 612 95 235 0 235 0
274 26 37 26 45 27 155 26 151 -2 268 -32 576 -149 251 -95 285 -113 285 -151
0 -44 -45 -34 -356 79 -222 81 -359 120 -498 142 -108 17 -166 14 -166 -10 0
-29 60 -63 171 -94 173 -49 347 -107 508 -167 80 -30 197 -68 259 -85 134 -35
187 -60 263 -126 154 -133 295 -334 383 -548 45 -108 51 -121 75 -162 18 -33
18 -33 31 93 15 147 8 249 -21 307 -37 72 -165 258 -244 352 -41 50 -122 149
-181 220 -58 72 -116 138 -129 148 -15 11 -55 21 -105 27 -66 8 -112 22 -244
79 -190 81 -317 123 -441 146 -105 20 -276 17 -545 -10 -91 -8 -248 -17 -350
-19 -232 -4 -281 -20 -482 -150 -145 -93 -208 -117 -222 -81 -25 67 152 214
404 333 69 32 145 76 170 97 88 74 219 118 475 157 259 39 534 28 735 -29 220
-63 461 -226 541 -368 34 -60 57 -75 77 -48 33 44 -15 155 -115 263 -145 156
-340 262 -583 315 -74 16 -367 28 -455 19z"/>
<path d="M4785 4820 c-208 -23 -421 -68 -474 -101 -36 -22 -41 -54 -9 -65 34
-10 118 -6 298 17 236 29 528 36 650 15 140 -25 279 -75 471 -171 163 -81 210
-97 224 -75 10 17 -19 50 -95 108 -178 136 -338 211 -550 257 -89 19 -396 28
-515 15z"/>
<path d="M4260 4305 c-145 -21 -260 -61 -260 -90 0 -24 55 -45 117 -45 32 0
135 5 229 12 283 20 464 -9 832 -132 370 -123 625 -259 773 -410 165 -169 274
-387 323 -645 9 -49 23 -106 31 -125 8 -19 16 -46 18 -60 4 -22 4 -21 6 5 0
17 12 69 25 115 34 118 49 211 44 279 -5 73 -99 269 -189 395 -72 100 -200
225 -283 275 -110 66 -536 234 -776 306 -69 21 -165 53 -215 72 -49 19 -123
41 -163 49 -91 17 -391 17 -512 -1z"/>
<path d="M3152 4194 c-27 -19 -47 -57 -78 -148 -13 -38 -24 -71 -24 -72 0 -13
73 50 100 85 46 62 67 116 50 136 -16 19 -20 19 -48 -1z"/>
<path d="M4380 4073 c-219 -16 -409 -36 -457 -49 -32 -8 -95 -32 -140 -54
-128 -63 -266 -209 -349 -370 -26 -50 -28 -63 -27 -150 2 -71 11 -130 37 -235
20 -77 36 -149 37 -160 2 -21 6 2 33 158 27 160 69 266 151 383 151 212 387
317 765 340 392 24 920 -151 1219 -405 107 -90 220 -258 250 -367 16 -59 59
-370 70 -508 10 -109 15 -136 25 -125 13 16 98 218 116 278 26 85 24 146 -10
276 -82 311 -242 516 -533 683 -263 151 -663 279 -943 302 -116 9 -153 10
-244 3z"/>
<path d="M4360 3813 c-313 -49 -525 -189 -635 -418 -79 -165 -87 -234 -44
-395 17 -62 119 -316 124 -308 1 2 -3 64 -8 138 -10 158 1 271 37 378 77 224
229 369 466 444 64 20 95 23 210 22 240 -2 482 -59 680 -160 139 -71 219 -133
337 -261 181 -196 189 -203 216 -203 100 0 19 190 -152 360 -205 203 -516 346
-861 395 -95 13 -308 18 -370 8z"/>
<path d="M4383 3555 c-196 -44 -377 -219 -437 -424 -26 -90 -38 -216 -26 -276
12 -59 82 -201 159 -325 53 -85 53 -85 46 -40 -4 25 -15 74 -25 110 -44 156
-53 318 -25 438 49 209 246 406 421 420 44 4 54 2 54 -11 0 -22 -16 -36 -114
-101 -46 -31 -102 -77 -124 -101 -54 -61 -108 -168 -128 -251 -20 -86 -15
-265 11 -339 33 -96 118 -236 188 -309 37 -39 63 -61 57 -49 -6 13 -15 42 -20
65 -5 24 -27 95 -49 158 -40 114 -71 260 -71 329 0 59 28 172 57 231 36 75
145 183 220 217 49 23 74 28 169 31 126 5 202 -10 299 -58 133 -65 248 -194
280 -315 32 -116 6 -303 -62 -445 -29 -62 -53 -92 -137 -174 -55 -55 -121
-112 -146 -128 -40 -26 -42 -28 -15 -22 65 15 203 68 270 102 93 49 218 171
234 227 17 66 31 175 31 256 0 60 4 82 19 100 19 23 20 23 39 6 40 -37 65
-116 70 -220 4 -93 1 -121 -37 -325 -5 -24 -5 -40 -1 -35 72 83 151 193 182
257 37 75 39 86 35 146 -6 82 -32 159 -67 202 -15 18 -60 51 -100 73 -56 31
-92 61 -154 130 -45 50 -103 112 -131 139 -160 157 -364 248 -620 276 -55 6
-122 17 -150 25 -81 22 -136 25 -202 10z"/>
<path d="M4568 3187 c-157 -120 -197 -351 -96 -565 51 -110 115 -166 223 -198
74 -21 203 -16 258 11 70 33 144 110 184 193 37 74 38 79 38 186 0 96 -3 118
-23 158 -54 109 -156 186 -261 195 -71 7 -102 -8 -165 -78 -81 -90 -93 -196
-29 -255 51 -47 128 -20 121 43 -2 20 -9 29 -25 31 -43 6 -39 53 8 77 39 21
71 19 109 -8 142 -95 67 -326 -111 -343 -46 -5 -62 -1 -109 23 -94 48 -147
151 -137 268 5 66 28 118 89 205 25 37 37 62 32 73 -10 28 -58 21 -106 -16z"/>
</g>
</svg>
