<?xml version="1.0" standalone="no"?>
<!DOCTYPE svg PUBLIC "-//W3C//DTD SVG 20010904//EN"
 "http://www.w3.org/TR/2001/REC-SVG-20010904/DTD/svg10.dtd">
<svg version="1.0" xmlns="http://www.w3.org/2000/svg"
 width="1000.000000pt" height="1000.000000pt" viewBox="0 0 1000.000000 1000.000000"
 preserveAspectRatio="xMidYMid meet">
<metadata>
  <rdf:RDF
    xmlns:rdf = "http://www.w3.org/1999/02/22-rdf-syntax-ns#"
    xmlns:rdfs = "http://www.w3.org/2000/01/rdf-schema#"
    xmlns:dc = "http://purl.org/dc/elements/1.1/"
    xmlns:cc = "http://creativecommons.org/ns#">
    <cc:license rdf:resource="http://creativecommons.org/publicdomain/zero/1.0/deed.en"/>
    <cc:permits rdf:resource="http://creativecommons.org/ns#Reproduction"/>
    <rdf:Description about="https://nft.mir.one/fingerprints"
      dc:title="TON Fingerprints"
      dc:description="This is a unique digital fingerprint created based on the algorithm for generating basic rings using a noise texture. Like human fingerprints, you can now use it for the Web3 and Metaverse era as digital biometric information."
      dc:publisher="https://nft.mir.one"
      dc:date="2022-02-22"
      dc:format="image/svg+xml"
      dc:language="en" >
      <dc:creator>
      <rdf:Bag>
        <rdf:li>EQBondcvD2_aOFADXSWJHs4ZazQDuEl9_wNvGGPxI8hGuOFU</rdf:li>
        <rdf:li>ipfs://bafkreihj7iub3fhmhq6jn62noukt5wxn3gv6bvcg7wmt6ywvlurefezckq</rdf:li>
      </rdf:Bag>
      </dc:creator>
    </rdf:Description>
  </rdf:RDF>
</metadata>
<rect width="100%" height="100%" fill="#1b1f23"/>
<g transform="translate(0.000000,1000.000000) scale(0.100000,-0.100000)"
fill="#ffffff" stroke="none">
<path d="M4845 7719 c-138 -10 -236 -33 -384 -86 -69 -25 -157 -56 -196 -70
-58 -21 -75 -23 -103 -15 -29 9 -41 8 -73 -9 -43 -21 -54 -35 -14 -17 20 9 33
8 66 -7 48 -22 104 -21 191 4 35 10 119 35 187 55 221 65 414 84 883 88 153 1
276 3 275 4 -1 1 -60 11 -132 23 -242 39 -462 49 -700 30z"/>
<path d="M4970 7529 c-151 -14 -345 -55 -547 -115 -316 -93 -453 -175 -674
-400 -233 -240 -405 -516 -518 -838 -50 -142 -70 -232 -106 -494 -20 -136 -47
-287 -61 -337 -36 -127 -46 -258 -34 -450 20 -307 61 -475 116 -475 33 0 36
38 18 223 -24 263 -16 449 31 672 20 94 49 251 66 350 53 315 98 461 210 674
175 334 389 593 610 737 341 224 923 356 1384 315 184 -17 302 -43 525 -117
168 -56 304 -94 328 -94 12 1 -210 130 -310 180 -116 59 -295 122 -427 151
-76 17 -140 22 -306 24 -115 2 -253 -1 -305 -6z"/>
<path d="M5075 7269 c-429 -47 -867 -230 -1095 -459 -61 -60 -85 -94 -122
-170 -25 -52 -85 -149 -132 -215 -215 -302 -294 -511 -376 -997 -63 -368 -70
-436 -77 -689 -6 -257 -2 -303 27 -319 56 -30 83 38 111 275 11 94 33 238 49
320 17 83 37 218 45 300 20 196 39 295 85 435 67 206 174 391 296 513 104 104
292 189 379 173 40 -8 54 -28 35 -51 -6 -8 -55 -45 -108 -82 -124 -87 -252
-215 -325 -324 -172 -259 -255 -562 -189 -687 12 -23 22 -60 22 -81 0 -49 -29
-133 -69 -197 -47 -78 -68 -149 -97 -337 -14 -96 -41 -219 -59 -277 -18 -58
-36 -120 -39 -138 -11 -61 15 -186 74 -362 73 -217 78 -245 53 -258 -63 -33
-141 84 -332 501 -58 126 -92 169 -194 245 -31 24 -66 60 -77 80 -36 69 -20
19 41 -127 264 -626 255 -609 483 -941 203 -296 362 -449 646 -624 97 -60 213
-98 306 -100 81 -1 107 12 102 53 -3 22 -19 34 -115 81 -134 66 -185 110 -181
155 3 25 7 30 28 28 42 -2 229 -91 315 -149 44 -29 99 -60 122 -68 72 -25 199
-38 393 -38 203 0 284 11 460 62 115 33 136 30 110 -18 -36 -63 -197 -132
-390 -167 -110 -19 -313 -35 -454 -35 -61 0 -151 -7 -201 -14 -228 -37 -335
-30 -547 35 -73 22 -160 49 -193 59 -33 10 -61 17 -63 15 -6 -6 168 -106 250
-145 186 -87 329 -116 613 -127 318 -11 628 37 859 134 83 35 170 90 262 165
43 36 150 117 236 181 320 237 533 446 703 692 38 55 85 120 104 145 36 45 36
45 1 20 -19 -13 -105 -92 -190 -175 -265 -258 -609 -514 -838 -623 -72 -34
-76 -35 -186 -33 -63 1 -144 -3 -182 -9 -104 -17 -249 -16 -319 4 -33 9 -121
25 -195 37 -128 20 -198 39 -440 124 -83 29 -127 38 -210 44 -89 6 -113 11
-159 36 -122 67 -268 217 -336 346 -31 59 -40 91 -56 197 -10 70 -30 177 -44
239 -45 201 -49 314 -15 526 5 34 14 139 20 234 14 207 26 267 57 271 45 7 63
-44 93 -263 12 -82 28 -179 35 -215 13 -63 13 -66 -9 -90 -66 -70 -76 -187
-32 -365 74 -299 143 -434 300 -583 106 -99 232 -177 381 -233 179 -67 284
-91 410 -92 105 -1 114 1 202 36 50 20 151 53 223 72 310 84 432 144 734 360
35 26 59 35 87 35 106 0 251 140 308 295 12 33 53 116 91 185 130 236 177 395
187 641 14 328 -84 683 -258 934 -131 189 -463 428 -710 510 -150 50 -208 56
-631 63 -389 7 -398 7 -419 28 -21 22 -21 22 2 37 51 33 411 62 674 54 340
-11 548 -75 820 -255 119 -78 298 -252 368 -359 137 -207 230 -450 279 -723
20 -113 17 -442 -5 -552 -41 -204 -94 -323 -249 -556 -145 -218 -234 -308
-408 -414 -69 -41 -169 -103 -222 -137 -207 -131 -349 -188 -592 -241 -179
-39 -234 -57 -246 -81 -8 -14 -6 -23 10 -39 28 -28 132 -27 332 5 254 39 343
76 603 250 312 207 477 353 609 538 207 289 298 641 283 1092 -12 339 -86 646
-209 861 -158 278 -356 467 -633 603 -233 115 -410 153 -730 154 -220 1 -333
-9 -500 -46 -121 -26 -230 -30 -230 -7 0 36 212 115 390 146 205 36 603 36
793 -1 278 -53 581 -221 783 -432 89 -93 138 -164 218 -310 32 -60 77 -137 99
-172 23 -35 42 -69 42 -74 0 -6 2 -8 6 -5 7 8 -150 427 -193 512 -46 92 -138
226 -208 303 -98 109 -304 226 -536 305 -124 43 -124 43 -353 46 -252 4 -513
-9 -650 -34 -250 -43 -418 -140 -418 -240 0 -30 -9 -49 -49 -96 -27 -33 -56
-72 -64 -88 -20 -38 -19 -89 2 -112 21 -24 180 -74 295 -93 96 -16 560 -36
658 -28 145 12 342 -79 534 -247 44 -37 85 -64 110 -71 84 -23 147 -72 219
-169 42 -57 113 -208 146 -310 56 -176 66 -245 65 -465 -1 -181 -3 -209 -26
-296 -61 -225 -137 -354 -285 -481 -98 -84 -150 -141 -250 -268 -162 -207
-396 -343 -752 -438 -130 -34 -143 -36 -306 -36 -153 -1 -181 2 -277 26 -59
15 -130 39 -158 53 -92 47 -102 105 -17 105 47 0 256 -24 411 -47 197 -29 350
-4 565 91 218 96 330 182 552 429 207 229 261 299 310 402 141 299 142 668 4
1013 -90 225 -228 387 -251 295 -8 -30 13 -97 76 -248 91 -216 133 -467 111
-664 -33 -307 -164 -539 -472 -836 -161 -156 -354 -271 -569 -340 -105 -34
-242 -41 -248 -13 -5 24 31 44 156 90 305 112 516 249 694 453 292 332 378
672 274 1085 -27 108 -112 349 -162 458 -56 123 -224 274 -353 317 -107 35
-146 -4 -74 -73 218 -208 262 -262 327 -404 85 -184 134 -386 143 -588 10
-231 -35 -389 -162 -581 -152 -228 -382 -403 -699 -534 -48 -20 -131 -57 -184
-81 -53 -25 -119 -50 -147 -56 -27 -6 -142 -12 -255 -12 -205 -1 -205 -1 -258
28 -97 54 -163 141 -197 261 -10 33 -57 139 -105 235 -101 202 -107 224 -68
228 38 5 72 -16 168 -102 101 -90 151 -117 285 -150 299 -74 529 -56 771 58
245 116 409 287 506 525 30 75 45 101 58 101 23 0 30 -20 30 -85 0 -187 -208
-457 -464 -604 -288 -164 -560 -213 -848 -151 -159 34 -198 29 -198 -22 0 -67
122 -146 260 -169 84 -14 218 -11 311 7 96 18 315 97 434 156 252 126 452 310
554 508 80 156 97 257 75 459 -42 400 -129 597 -399 895 -64 71 -112 115 -139
127 -43 20 -112 25 -135 10 -22 -14 -5 -56 36 -87 72 -55 127 -120 226 -269
163 -245 211 -371 212 -556 0 -105 -1 -108 -32 -150 -18 -24 -65 -98 -105
-164 -82 -134 -200 -263 -302 -330 -239 -155 -565 -182 -819 -66 -261 118
-409 349 -424 662 -7 129 5 175 82 327 190 372 458 531 791 467 94 -18 169
-52 292 -133 106 -69 131 -80 143 -61 24 36 -12 93 -144 230 -80 85 -99 99
-147 113 -85 26 -274 56 -390 63 -131 7 -187 -7 -291 -75 -138 -91 -251 -222
-360 -417 -85 -152 -123 -207 -158 -228 -37 -22 -48 -21 -60 1 -7 14 1 49 33
138 101 283 210 445 454 678 45 43 82 90 99 123 23 49 25 61 19 125 -7 72 -7
72 102 178 137 133 197 179 297 229 173 86 355 119 715 130 200 6 251 10 276
24 28 14 50 44 41 53 -2 2 -39 14 -83 26 -71 19 -104 22 -329 22 -199 1 -269
-3 -342 -17 -224 -43 -368 -100 -601 -239 -296 -178 -418 -230 -457 -198 -24
20 9 64 108 141 243 189 570 342 852 398 294 59 634 48 783 -25 48 -24 67 -45
87 -101 1 -1 53 -16 115 -32 211 -54 443 -151 617 -256 40 -25 78 -45 84 -45
5 0 29 -9 52 -21 37 -19 29 -7 -73 96 -196 199 -363 314 -578 397 -367 143
-428 157 -687 163 -99 2 -220 -1 -270 -6z m1315 -3327 c0 -29 -53 -102 -144
-197 -85 -89 -106 -99 -106 -46 0 39 46 104 133 189 75 72 117 92 117 54z"/>
<path d="M2980 5736 c0 -25 -7 -120 -16 -211 -16 -172 -14 -215 5 -125 13 59
28 380 18 380 -4 0 -7 -20 -7 -44z"/>
<path d="M4680 5644 c-184 -39 -348 -180 -440 -376 -110 -235 -64 -497 119
-678 136 -135 302 -198 496 -187 273 16 488 165 623 432 100 199 80 391 -63
590 -66 93 -96 115 -157 115 -36 0 -82 13 -166 46 -180 71 -284 86 -412 58z
m304 -180 c163 -41 298 -141 354 -261 37 -82 42 -203 12 -292 -89 -265 -376
-410 -636 -321 -82 29 -132 60 -191 122 -136 144 -161 339 -67 524 52 103 182
208 290 233 62 14 171 12 238 -5z"/>
<path d="M4825 5340 c-98 -24 -171 -84 -217 -177 -28 -58 -33 -77 -32 -143 0
-91 22 -147 85 -215 69 -75 147 -107 255 -106 163 1 302 122 321 279 11 100
-31 178 -153 277 -102 84 -172 107 -259 85z m173 -142 c2 -9 -17 -39 -42 -67
-50 -57 -59 -98 -30 -139 21 -31 62 -29 74 4 14 36 61 31 74 -9 22 -61 -50
-131 -134 -131 -191 1 -231 253 -55 348 39 20 109 17 113 -6z"/>
<path d="M6579 3154 c-7 -8 -58 -49 -113 -91 -56 -42 -195 -153 -309 -247
-380 -312 -497 -386 -723 -459 -120 -39 -394 -100 -574 -127 -115 -18 -115
-18 -15 -19 139 -1 337 23 485 60 332 82 541 206 895 529 136 124 384 370 374
370 -4 0 -12 -7 -20 -16z"/>
</g>
</svg>
