<?xml version="1.0" standalone="no"?>
<!DOCTYPE svg PUBLIC "-//W3C//DTD SVG 20010904//EN"
 "http://www.w3.org/TR/2001/REC-SVG-20010904/DTD/svg10.dtd">
<svg version="1.0" xmlns="http://www.w3.org/2000/svg"
 width="1000.000000pt" height="1000.000000pt" viewBox="0 0 1000.000000 1000.000000"
 preserveAspectRatio="xMidYMid meet">
<metadata>
  <rdf:RDF
    xmlns:rdf = "http://www.w3.org/1999/02/22-rdf-syntax-ns#"
    xmlns:rdfs = "http://www.w3.org/2000/01/rdf-schema#"
    xmlns:dc = "http://purl.org/dc/elements/1.1/"
    xmlns:cc = "http://creativecommons.org/ns#">
    <cc:license rdf:resource="http://creativecommons.org/publicdomain/zero/1.0/deed.en"/>
    <cc:permits rdf:resource="http://creativecommons.org/ns#Reproduction"/>
    <rdf:Description about="https://nft.mir.one/fingerprints"
      dc:title="TON Fingerprints"
      dc:description="This is a unique digital fingerprint created based on the algorithm for generating basic rings using a noise texture. Like human fingerprints, you can now use it for the Web3 and Metaverse era as digital biometric information."
      dc:publisher="https://nft.mir.one"
      dc:date="2022-02-22"
      dc:format="image/svg+xml"
      dc:language="en" >
      <dc:creator>
      <rdf:Bag>
        <rdf:li>EQBondcvD2_aOFADXSWJHs4ZazQDuEl9_wNvGGPxI8hGuOFU</rdf:li>
        <rdf:li>ipfs://bafkreihj7iub3fhmhq6jn62noukt5wxn3gv6bvcg7wmt6ywvlurefezckq</rdf:li>
      </rdf:Bag>
      </dc:creator>
    </rdf:Description>
  </rdf:RDF>
</metadata>
<rect width="100%" height="100%" fill="#1b1f23"/>
<g transform="translate(0.000000,1000.000000) scale(0.100000,-0.100000)"
fill="#ffffff" stroke="none">
<path d="M5039 7760 c119 -58 343 -132 481 -161 261 -53 391 -106 625 -254 70
-44 -6 17 -98 78 -184 123 -348 197 -592 266 -98 27 -496 121 -513 121 -4 0
40 -23 97 -50z"/>
<path d="M4521 7697 c26 -20 97 -64 159 -98 340 -185 524 -301 660 -415 52
-43 173 -144 270 -224 383 -316 381 -314 465 -323 47 -4 54 -9 105 -68 115
-133 153 -166 200 -179 25 -6 74 -27 110 -47 59 -32 67 -34 101 -24 20 6 48
11 63 11 30 0 132 -33 191 -63 40 -19 40 -19 10 14 -82 93 -114 122 -160 143
-64 30 -256 195 -316 272 -25 32 -102 145 -171 249 -136 206 -197 273 -333
365 -42 28 -113 69 -158 91 -68 33 -91 39 -132 37 -44 -3 -50 -6 -53 -26 -5
-32 13 -50 163 -162 72 -54 160 -126 198 -160 80 -74 189 -207 223 -272 48
-94 20 -181 -35 -107 -53 71 -252 266 -397 390 -166 141 -192 167 -236 246
-37 65 -81 97 -241 173 -172 81 -291 118 -570 175 -71 14 -136 29 -145 32 -10
3 4 -10 29 -30z"/>
<path d="M4316 7633 c-3 -4 -6 -20 -6 -38 0 -38 52 -94 150 -163 164 -115 211
-154 249 -209 56 -82 78 -101 241 -193 321 -183 667 -418 972 -661 111 -88
135 -100 155 -73 31 42 1 124 -68 191 -24 23 -100 84 -169 135 -69 52 -226
171 -350 264 -124 94 -326 240 -450 324 -124 85 -277 189 -339 232 -96 65
-133 84 -225 113 -73 24 -118 44 -132 60 -12 13 -25 21 -28 18z"/>
<path d="M3980 7416 c-41 -8 -77 -14 -79 -15 -6 -2 61 -49 89 -62 379 -181
496 -229 570 -236 107 -9 116 47 18 111 -132 85 -257 162 -299 183 -57 30
-188 38 -299 19z"/>
<path d="M6240 7180 c-9 -17 -6 -32 13 -73 38 -82 239 -332 348 -432 24 -22
67 -64 97 -93 29 -29 48 -43 42 -31 -20 36 -243 329 -335 439 -108 129 -139
175 -131 195 8 23 -21 18 -34 -5z"/>
<path d="M3835 7145 c-33 -8 -105 -29 -160 -47 -100 -33 -100 -33 -55 -54 25
-12 122 -40 215 -63 94 -22 276 -74 405 -115 129 -41 337 -106 461 -145 344
-107 467 -166 767 -368 471 -317 546 -384 719 -643 81 -121 138 -228 250 -469
127 -271 179 -398 228 -557 46 -147 79 -220 111 -240 54 -36 67 2 53 161 -21
240 -57 360 -192 636 -105 214 -195 376 -333 596 -211 336 -228 361 -274 373
-22 5 -58 15 -81 21 -39 10 -89 42 -434 280 -189 130 -332 217 -487 295 -167
84 -268 120 -433 153 -82 17 -207 51 -279 77 -401 140 -371 133 -481 109z"/>
<path d="M3550 6826 c-36 -13 -95 -40 -132 -58 -67 -35 -67 -35 -31 -52 19 -9
96 -28 171 -42 244 -44 497 -117 722 -206 214 -85 274 -121 375 -223 104 -105
175 -160 450 -350 324 -224 414 -296 642 -516 85 -82 189 -171 237 -204 98
-65 164 -145 255 -303 119 -209 299 -614 338 -764 21 -81 13 -99 -36 -78 -42
17 -86 86 -171 270 -140 303 -264 521 -370 653 -62 77 -433 433 -565 542 -44
37 -183 136 -310 220 -126 84 -309 211 -405 282 -96 71 -209 153 -251 181
-144 98 -382 198 -629 265 -124 34 -338 77 -382 77 -31 0 -124 -41 -235 -104
-43 -24 -43 -24 -10 -44 19 -10 62 -24 98 -31 35 -6 152 -27 259 -46 477 -84
680 -178 1195 -553 123 -90 224 -154 318 -203 174 -89 264 -157 456 -344 350
-341 453 -492 738 -1080 129 -266 154 -333 174 -465 15 -104 7 -174 -30 -277
-37 -100 -89 -368 -95 -483 -4 -85 -4 -85 19 -25 12 33 39 101 60 150 21 50
53 135 71 189 39 113 57 146 82 146 24 0 61 -39 72 -76 6 -22 8 -6 9 61 1 50
8 155 18 233 15 135 15 151 0 256 -22 145 -22 155 9 210 32 57 42 148 25 226
-6 29 -40 121 -75 204 -35 83 -87 205 -114 271 -28 66 -91 203 -140 305 -49
102 -106 233 -127 293 -117 333 -356 592 -850 919 -269 178 -396 237 -580 270
-61 11 -181 44 -270 75 -469 161 -747 243 -855 249 -51 4 -79 -1 -130 -20z
m1397 -495 c193 -93 573 -355 773 -535 198 -177 377 -417 368 -494 -6 -52 -36
-40 -117 49 -316 347 -454 464 -922 777 -185 124 -269 194 -269 226 0 37 57
29 167 -23z"/>
<path d="M6295 6290 c-27 -30 -16 -111 28 -204 20 -42 103 -188 185 -324 228
-377 379 -670 447 -867 27 -80 27 -80 7 -145 -12 -36 -24 -101 -27 -145 -8
-101 -20 -143 -54 -178 -26 -28 -26 -28 -35 -290 -8 -247 -7 -265 11 -320 20
-57 20 -57 37 75 10 73 36 228 58 343 22 116 44 267 48 338 11 158 30 211 72
205 25 -4 26 -3 14 11 -19 23 -25 42 -51 176 -28 136 -78 314 -122 427 -33 85
-96 191 -273 463 -65 99 -141 223 -170 275 -56 101 -89 143 -131 166 -24 12
-28 11 -44 -6z"/>
<path d="M6557 6259 c-11 -43 15 -92 138 -259 43 -58 129 -181 191 -275 62
-93 129 -187 147 -207 33 -37 32 -33 -38 140 -135 335 -246 520 -353 586 -65
42 -78 44 -85 15z"/>
<path d="M3209 6145 c-19 -7 -54 -22 -77 -34 -23 -11 -52 -21 -64 -21 -14 0 4
-13 49 -33 133 -62 135 -74 14 -157 -49 -34 -95 -68 -101 -76 -7 -8 -20 -14
-29 -15 -9 0 -3 -6 14 -14 20 -10 71 -14 152 -15 67 0 145 -5 172 -11 97 -21
621 -291 821 -424 159 -105 250 -189 316 -290 56 -86 76 -107 199 -206 197
-158 319 -317 547 -714 244 -425 289 -534 388 -940 84 -342 83 -334 90 -810 0
-39 2 -38 60 70 93 171 103 212 98 369 -4 116 -9 141 -37 221 -18 50 -59 189
-91 310 -79 296 -116 399 -215 600 -95 193 -184 346 -304 523 -112 164 -190
261 -393 486 -428 472 -505 533 -978 771 -135 68 -255 134 -268 148 -15 15
-22 34 -20 49 15 106 537 -114 888 -376 136 -101 235 -200 372 -368 65 -82
169 -205 229 -276 260 -300 442 -570 594 -885 99 -203 158 -384 210 -645 46
-224 61 -265 98 -260 39 5 51 51 51 183 -2 261 -64 498 -209 802 -147 308
-312 550 -599 877 -185 211 -228 270 -262 357 -34 87 -79 136 -249 272 -287
230 -597 401 -860 473 -70 20 -124 27 -245 31 -112 4 -170 11 -209 24 -62 22
-102 23 -152 4z"/>
<path d="M3092 5604 c-17 -9 -51 -33 -75 -54 -23 -20 -51 -41 -62 -47 -17 -10
-16 -12 15 -25 19 -8 76 -22 125 -32 50 -9 124 -29 165 -42 92 -31 410 -179
710 -330 245 -124 331 -154 377 -132 82 39 11 113 -273 283 -181 109 -521 279
-656 329 -100 37 -218 66 -266 66 -15 0 -42 -8 -60 -16z"/>
<path d="M5024 5396 c-13 -35 12 -70 165 -233 377 -399 546 -634 725 -1003
158 -327 219 -588 196 -842 -8 -97 -19 -141 -69 -279 -31 -86 -58 -443 -36
-479 16 -25 176 352 210 495 31 128 62 308 70 410 17 201 -44 410 -229 788
-159 326 -302 533 -550 797 -122 129 -277 272 -343 316 -63 42 -129 56 -139
30z"/>
<path d="M3042 5283 c-38 -21 -121 -85 -122 -94 0 -9 66 -27 165 -45 103 -18
175 -46 175 -68 0 -28 -42 -46 -108 -46 -78 0 -116 -17 -182 -81 -28 -27 -56
-49 -63 -50 -7 0 8 -7 33 -15 34 -10 99 -14 260 -13 125 0 236 -4 265 -10 193
-44 447 -164 569 -271 21 -19 80 -86 130 -149 51 -64 135 -161 187 -216 183
-195 217 -234 271 -316 31 -46 79 -131 108 -187 53 -104 53 -104 79 -78 24 24
26 33 26 104 -1 60 -7 91 -27 140 -55 133 -134 238 -264 355 -128 114 -269
285 -274 332 -4 38 0 45 28 45 43 0 87 -34 133 -102 65 -96 142 -166 224 -203
52 -24 82 -46 112 -81 87 -105 167 -254 198 -369 16 -60 17 -78 6 -193 -14
-135 -14 -131 36 -434 11 -69 17 -162 17 -278 0 -149 -5 -204 -32 -375 -18
-110 -39 -227 -46 -260 -8 -33 -17 -80 -19 -104 -5 -43 -5 -43 21 -19 15 14
55 44 89 67 35 23 69 54 77 69 8 16 16 76 19 147 4 82 14 150 31 215 51 187
45 341 -25 696 -43 218 -48 291 -24 301 20 7 52 -22 75 -67 55 -109 130 -428
150 -645 19 -202 26 -239 54 -279 48 -72 57 -155 32 -301 -7 -44 -11 -97 -8
-119 4 -38 4 -38 26 -3 11 20 38 63 59 96 21 34 47 86 58 117 18 51 19 65 9
157 -26 230 -111 649 -170 827 -44 137 -82 214 -160 330 -31 47 -93 150 -136
230 -201 365 -299 523 -367 587 -102 97 -209 137 -407 153 -144 13 -169 21
-420 140 -113 53 -266 122 -340 154 -78 32 -173 81 -224 116 -142 95 -244 126
-304 93z m1596 -729 c67 -57 112 -174 67 -174 -16 0 -162 153 -177 186 -26 56
39 49 110 -12z"/>
<path d="M3009 4650 c-38 -40 -69 -75 -69 -79 0 -14 75 -33 168 -42 277 -26
504 -101 701 -234 170 -114 512 -444 690 -665 173 -215 240 -417 241 -720 0
-203 -29 -318 -116 -454 -39 -62 -60 -108 -69 -148 -6 -32 -9 -57 -6 -56 3 2
41 21 84 42 42 21 101 60 131 87 49 45 56 56 74 127 41 152 55 262 56 427 0
197 -30 389 -94 606 -19 63 -22 67 -55 73 -46 9 -84 43 -158 140 -164 217
-527 599 -677 712 -196 148 -443 233 -721 250 -111 7 -111 7 -180 -66z"/>
<path d="M3104 4333 c-28 -26 -109 -143 -102 -147 13 -9 97 -27 167 -36 98
-13 225 -49 328 -91 148 -62 349 -208 460 -336 79 -91 93 -119 93 -188 0 -39
9 -84 26 -130 151 -406 160 -471 126 -922 -7 -91 -7 -92 13 -74 11 11 39 28
61 39 23 12 54 36 69 54 28 33 28 33 22 228 -10 334 -67 539 -213 768 -41 64
-43 82 -8 82 66 0 150 -95 224 -252 76 -162 109 -342 110 -585 0 -166 8 -196
48 -191 95 11 123 359 52 647 -24 96 -115 277 -180 358 -56 70 -406 401 -520
492 -105 83 -224 156 -332 203 -93 40 -269 90 -364 103 -46 6 -53 4 -80 -22z"/>
<path d="M3190 3944 c-17 -15 -40 -44 -51 -66 -11 -21 -27 -42 -35 -45 -18 -7
-6 -11 184 -74 272 -91 444 -242 570 -501 121 -248 165 -519 92 -558 -27 -15
-25 -38 4 -51 34 -16 71 -4 113 35 35 31 36 36 41 112 5 99 -18 236 -62 369
-50 147 -132 336 -177 405 -102 158 -310 305 -527 374 -103 32 -113 32 -152 0z"/>
<path d="M3353 3527 c-26 -14 -99 -97 -86 -97 16 0 187 -112 242 -159 96 -81
178 -210 235 -371 15 -42 48 -120 74 -174 47 -98 47 -98 50 49 3 160 -5 198
-70 345 -69 153 -211 321 -330 390 -57 32 -81 36 -115 17z"/>
<path d="M5297 2689 c-9 -5 -24 -24 -33 -41 -20 -38 -43 -164 -44 -235 0 -45
3 -53 18 -53 24 0 67 46 86 90 24 58 31 169 13 213 -9 20 -17 37 -19 37 -2 0
-11 -5 -21 -11z"/>
</g>
</svg>
