<?xml version="1.0" standalone="no"?>
<!DOCTYPE svg PUBLIC "-//W3C//DTD SVG 20010904//EN"
 "http://www.w3.org/TR/2001/REC-SVG-20010904/DTD/svg10.dtd">
<svg version="1.0" xmlns="http://www.w3.org/2000/svg"
 width="1000.000000pt" height="1000.000000pt" viewBox="0 0 1000.000000 1000.000000"
 preserveAspectRatio="xMidYMid meet">
<metadata>
  <rdf:RDF
    xmlns:rdf = "http://www.w3.org/1999/02/22-rdf-syntax-ns#"
    xmlns:rdfs = "http://www.w3.org/2000/01/rdf-schema#"
    xmlns:dc = "http://purl.org/dc/elements/1.1/"
    xmlns:cc = "http://creativecommons.org/ns#">
    <cc:license rdf:resource="http://creativecommons.org/publicdomain/zero/1.0/deed.en"/>
    <cc:permits rdf:resource="http://creativecommons.org/ns#Reproduction"/>
    <rdf:Description about="https://nft.mir.one/fingerprints"
      dc:title="TON Fingerprints"
      dc:description="This is a unique digital fingerprint created based on the algorithm for generating basic rings using a noise texture. Like human fingerprints, you can now use it for the Web3 and Metaverse era as digital biometric information."
      dc:publisher="https://nft.mir.one"
      dc:date="2022-02-22"
      dc:format="image/svg+xml"
      dc:language="en" >
      <dc:creator>
      <rdf:Bag>
        <rdf:li>EQBondcvD2_aOFADXSWJHs4ZazQDuEl9_wNvGGPxI8hGuOFU</rdf:li>
        <rdf:li>ipfs://bafkreihj7iub3fhmhq6jn62noukt5wxn3gv6bvcg7wmt6ywvlurefezckq</rdf:li>
      </rdf:Bag>
      </dc:creator>
    </rdf:Description>
  </rdf:RDF>
</metadata>
<rect width="100%" height="100%" fill="#1b1f23"/>
<g transform="translate(0.000000,1000.000000) scale(0.100000,-0.100000)"
fill="#ffffff" stroke="none">
<path d="M4925 7795 c-73 -13 -138 -36 -190 -67 -17 -10 -103 -42 -190 -72
-250 -85 -544 -226 -684 -328 -108 -79 -280 -259 -376 -393 -40 -55 -11 -25
67 70 77 95 194 208 263 255 72 50 174 88 281 105 58 9 143 34 222 64 232 88
305 98 493 68 59 -9 149 -17 200 -17 371 -1 706 -59 983 -171 84 -35 212 -83
301 -114 20 -7 20 -7 0 10 -47 39 -269 174 -370 225 -272 138 -599 205 -971
198 -150 -3 -174 3 -174 44 0 50 90 97 233 123 64 12 67 13 27 13 -25 0 -76
-6 -115 -13z"/>
<path d="M4716 7319 c-107 -15 -184 -37 -276 -81 -80 -38 -95 -50 -268 -226
-328 -334 -413 -445 -542 -701 -126 -253 -178 -403 -219 -641 -72 -406 -40
-687 113 -1014 107 -228 294 -486 352 -486 51 0 35 64 -58 227 -206 364 -278
597 -278 896 0 215 37 408 121 625 23 59 63 165 90 235 98 255 172 373 343
542 259 256 476 379 761 431 135 24 438 24 580 0 354 -60 674 -203 892 -401
114 -103 363 -415 473 -592 58 -94 167 -269 187 -299 18 -28 -7 44 -57 161
-82 193 -184 379 -323 588 -157 238 -266 359 -411 457 -180 121 -453 217 -751
265 -119 20 -621 29 -729 14z"/>
<path d="M4008 7213 c-154 -90 -374 -336 -522 -582 -79 -132 -259 -463 -293
-539 -20 -44 -27 -83 -34 -172 -4 -63 -19 -183 -33 -265 -14 -83 -30 -194 -35
-247 -15 -134 -13 -388 3 -479 15 -81 29 -114 86 -199 20 -30 58 -95 84 -145
61 -115 105 -179 224 -329 153 -192 189 -232 327 -353 146 -129 267 -214 397
-279 164 -82 286 -113 554 -138 134 -13 161 -18 232 -49 114 -50 178 -61 340
-54 161 6 265 32 407 102 145 71 256 174 239 219 -10 27 -38 19 -165 -44 -66
-34 -162 -75 -212 -93 -91 -31 -94 -32 -317 -35 -134 -1 -231 1 -240 7 -11 8
-12 16 -5 37 8 21 34 40 110 81 55 30 118 71 140 93 58 57 143 104 288 160
247 97 349 160 477 297 89 95 199 259 228 341 25 67 46 79 71 40 18 -28 17
-115 -2 -159 -21 -52 -163 -253 -224 -320 -63 -68 -156 -140 -227 -176 -27
-14 -148 -65 -270 -115 -254 -103 -286 -120 -286 -153 0 -26 17 -35 69 -35 57
0 143 26 306 91 92 38 171 63 205 66 30 3 69 13 87 22 58 29 170 132 255 235
46 55 110 128 144 161 68 69 112 159 135 275 21 105 16 453 -10 650 -21 166
-20 217 5 258 19 30 40 28 58 -5 21 -42 82 -247 100 -336 38 -190 40 -474 5
-662 -17 -92 -33 -121 -77 -144 -51 -26 -78 -54 -206 -209 -57 -70 -143 -170
-191 -222 -48 -52 -114 -129 -146 -171 -102 -134 -227 -230 -391 -301 -229
-99 -435 -116 -748 -63 -47 8 -168 21 -270 30 -103 8 -221 24 -265 35 -102 26
-277 111 -382 186 -201 145 -351 300 -537 556 -67 93 -132 170 -177 210 -76
67 -104 113 -168 274 -33 83 -61 124 -85 124 -32 0 -27 -91 19 -289 13 -58 29
-135 35 -171 24 -140 90 -302 174 -424 52 -75 54 -103 8 -92 -15 4 -41 17 -58
29 -31 22 -121 118 -157 167 -10 14 -1 -8 20 -49 43 -85 94 -155 244 -338 129
-155 197 -225 311 -321 97 -81 100 -84 92 -105 -15 -41 -102 -21 -219 52 -194
121 -190 121 -60 -7 68 -67 153 -140 195 -167 118 -76 285 -202 394 -298 56
-49 139 -116 186 -149 106 -76 145 -113 160 -148 14 -35 71 -60 207 -94 151
-38 245 -49 403 -49 147 1 257 13 307 35 23 10 -10 13 -202 19 -241 7 -333 20
-474 64 -89 28 -103 38 -241 165 -183 168 -220 207 -220 235 0 25 7 29 45 25
30 -3 66 -23 218 -122 273 -177 378 -208 827 -239 169 -12 178 -11 260 10 99
26 262 101 361 166 179 120 431 445 402 521 -13 34 -52 14 -120 -63 -191 -217
-292 -307 -413 -368 -151 -75 -280 -101 -463 -91 -349 17 -540 71 -802 226
-107 63 -184 94 -262 106 -88 12 -170 44 -244 93 -88 57 -122 92 -145 146 -29
71 -76 127 -236 287 -86 86 -175 180 -197 208 -37 47 -39 53 -34 102 5 51 2
60 -76 213 -86 171 -109 249 -77 261 10 4 24 1 31 -7 12 -12 157 -258 265
-450 40 -71 145 -186 335 -369 208 -199 263 -233 524 -325 145 -50 145 -50
168 -94 35 -66 49 -79 148 -127 164 -79 401 -121 630 -111 284 13 441 84 734
335 51 44 125 97 163 118 65 36 77 48 161 164 50 69 126 168 169 220 44 52 92
111 107 130 25 30 30 33 45 21 18 -15 21 -69 6 -141 -7 -35 -5 -50 7 -69 9
-13 19 -36 23 -50 7 -20 9 -14 9 29 1 30 8 82 15 115 8 33 17 89 21 125 4 36
20 120 36 187 55 232 94 621 86 866 -6 203 -31 319 -99 456 -44 90 -123 180
-185 213 -38 20 -64 69 -123 233 -81 229 -175 379 -341 544 -286 287 -683 452
-1054 439 -127 -4 -174 -18 -195 -58 -8 -15 -6 -24 9 -39 26 -26 68 -36 221
-56 392 -50 661 -171 907 -408 117 -113 188 -204 232 -298 34 -71 42 -145 16
-155 -21 -9 -35 5 -127 125 -234 305 -503 483 -853 566 -55 13 -183 36 -285
50 -168 24 -202 26 -375 19 -215 -7 -257 -17 -360 -84 -76 -49 -175 -151 -175
-179 0 -52 55 -39 205 49 139 81 221 113 236 90 5 -8 9 -19 9 -24 0 -20 -93
-97 -176 -146 -145 -86 -173 -94 -299 -93 -60 1 -121 3 -134 5 -20 2 -35 -10
-82 -71 -247 -319 -286 -804 -103 -1264 20 -49 88 -195 152 -325 101 -205 124
-244 172 -293 66 -66 134 -102 187 -97 34 3 38 6 41 33 2 24 -8 44 -55 100
-95 114 -118 145 -174 240 -244 414 -332 856 -238 1197 40 144 123 258 190
261 47 3 48 -18 1 -115 -73 -153 -92 -242 -92 -422 1 -372 115 -696 364 -1030
28 -38 72 -106 97 -150 43 -75 51 -83 108 -113 206 -103 514 -55 765 121 58
41 244 246 352 390 118 155 184 335 185 496 0 125 -14 186 -66 295 -169 351
-568 531 -918 414 -153 -50 -294 -169 -421 -354 -108 -156 -118 -180 -123
-287 -15 -293 187 -618 442 -710 128 -46 295 -23 434 59 78 46 194 161 240
237 64 106 84 171 89 286 3 89 1 115 -17 168 -68 201 -234 322 -440 322 -170
0 -317 -93 -394 -250 -29 -59 -32 -73 -32 -160 0 -82 4 -103 26 -151 31 -66
90 -128 151 -161 61 -32 194 -33 254 -1 214 114 195 423 -27 423 -77 0 -140
-97 -93 -144 19 -20 20 -20 54 1 24 14 31 14 44 4 41 -34 3 -112 -64 -132 -34
-10 -44 -9 -87 12 -62 31 -93 83 -93 157 -1 224 297 318 463 147 170 -175 89
-484 -160 -607 -64 -31 -74 -33 -173 -33 -93 0 -112 3 -162 27 -112 52 -219
180 -258 306 -55 176 -2 364 146 522 139 149 365 215 558 165 136 -35 281
-141 357 -259 172 -264 104 -595 -179 -883 -116 -118 -215 -182 -343 -221
-215 -66 -391 -21 -555 143 -207 208 -318 466 -339 785 -4 58 -13 144 -20 191
-16 113 -6 179 50 350 48 144 69 180 131 230 58 47 360 247 415 275 191 96
551 62 845 -81 149 -72 249 -149 444 -339 91 -89 185 -177 208 -196 86 -70
125 -240 126 -555 1 -276 -12 -318 -122 -384 -26 -15 -76 -71 -141 -156 -205
-269 -399 -414 -554 -415 -53 0 -91 -17 -252 -111 -328 -190 -484 -226 -755
-172 -233 46 -400 118 -550 237 -56 45 -115 83 -143 92 -83 28 -193 145 -327
349 -65 99 -188 347 -218 438 -64 194 -67 453 -12 832 38 265 63 347 167 545
177 337 279 482 506 718 84 87 159 173 167 191 28 68 -31 91 -112 44z m2382
-2937 c0 -8 -4 -17 -9 -21 -12 -7 -24 12 -16 25 9 15 25 12 25 -4z m324 -82
c35 -35 33 -127 -5 -229 -18 -50 -40 -79 -129 -170 -58 -60 -159 -171 -223
-246 -135 -158 -200 -220 -340 -325 -198 -148 -368 -232 -547 -271 -100 -21
-383 -24 -490 -4 -115 21 -354 73 -378 82 -32 13 -25 38 17 63 44 26 145 26
326 1 180 -24 392 -23 516 3 223 46 470 181 649 354 90 86 420 468 465 538 37
57 55 93 96 198 10 26 22 28 43 6z"/>
<path d="M4995 6985 c-115 -18 -188 -39 -317 -91 -227 -91 -394 -199 -554
-358 -96 -97 -117 -123 -157 -205 -40 -79 -47 -102 -47 -151 0 -41 5 -64 18
-80 18 -22 18 -22 50 14 18 20 48 67 66 104 96 192 255 307 566 413 107 36
175 66 221 96 88 58 150 81 256 93 223 25 550 -49 783 -177 315 -174 537 -418
753 -829 105 -200 117 -219 237 -379 105 -140 182 -282 205 -373 18 -77 18
-34 0 91 -21 138 -39 198 -90 292 -24 44 -67 139 -95 210 -68 171 -142 314
-238 460 -161 245 -357 463 -525 582 -324 229 -778 345 -1132 288z"/>
<path d="M3422 6848 c-36 -54 -44 -68 -39 -68 2 0 21 25 41 55 20 30 34 55 32
55 -3 0 -18 -19 -34 -42z"/>
<path d="M3360 6750 c-6 -11 -8 -20 -6 -20 3 0 10 9 16 20 6 11 8 20 6 20 -3
0 -10 -9 -16 -20z"/>
<path d="M3320 6680 c-6 -11 -8 -20 -6 -20 3 0 10 9 16 20 6 11 8 20 6 20 -3
0 -10 -9 -16 -20z"/>
<path d="M4899 6065 c-155 -31 -370 -155 -491 -284 -104 -110 -184 -287 -176
-391 3 -40 6 -45 30 -48 23 -3 32 5 64 55 110 172 131 202 178 252 67 71 155
133 258 180 303 142 676 63 956 -203 129 -123 219 -265 258 -406 24 -90 25
-272 0 -360 -46 -167 -149 -332 -335 -539 -115 -126 -141 -166 -126 -190 23
-38 162 46 295 179 136 135 309 386 350 506 60 172 39 432 -46 595 -68 129
-268 347 -414 451 -244 173 -554 252 -801 203z"/>
<path d="M3047 5898 c-18 -27 -52 -128 -61 -178 -3 -19 7 1 23 45 15 44 36 95
45 114 20 38 15 54 -7 19z"/>
<path d="M2971 5664 c0 -11 3 -14 6 -6 3 7 2 16 -1 19 -3 4 -6 -2 -5 -13z"/>
<path d="M2962 5620 c0 -14 2 -19 5 -12 2 6 2 18 0 25 -3 6 -5 1 -5 -13z"/>
<path d="M2951 5574 c0 -11 3 -14 6 -6 3 7 2 16 -1 19 -3 4 -6 -2 -5 -13z"/>
<path d="M2941 5524 c0 -11 3 -14 6 -6 3 7 2 16 -1 19 -3 4 -6 -2 -5 -13z"/>
<path d="M2931 5454 c0 -11 3 -14 6 -6 3 7 2 16 -1 19 -3 4 -6 -2 -5 -13z"/>
<path d="M2922 5380 c0 -14 2 -19 5 -12 2 6 2 18 0 25 -3 6 -5 1 -5 -13z"/>
<path d="M2912 5270 c0 -19 2 -27 5 -17 2 9 2 25 0 35 -3 9 -5 1 -5 -18z"/>
<path d="M7092 4970 c0 -14 2 -19 5 -12 2 6 2 18 0 25 -3 6 -5 1 -5 -13z"/>
<path d="M6592 3475 c-51 -58 -158 -272 -177 -355 -8 -36 -15 -96 -14 -135 0
-70 0 -70 28 10 15 44 76 177 134 295 59 118 107 218 107 223 0 22 -44 1 -78
-38z"/>
<path d="M4373 2340 c-11 -16 -10 -18 2 -14 8 4 15 12 15 20 0 19 -3 18 -17
-6z"/>
</g>
</svg>
