<?xml version="1.0" standalone="no"?>
<!DOCTYPE svg PUBLIC "-//W3C//DTD SVG 20010904//EN"
 "http://www.w3.org/TR/2001/REC-SVG-20010904/DTD/svg10.dtd">
<svg version="1.0" xmlns="http://www.w3.org/2000/svg"
 width="1000.000000pt" height="1000.000000pt" viewBox="0 0 1000.000000 1000.000000"
 preserveAspectRatio="xMidYMid meet">
<metadata>
  <rdf:RDF
    xmlns:rdf = "http://www.w3.org/1999/02/22-rdf-syntax-ns#"
    xmlns:rdfs = "http://www.w3.org/2000/01/rdf-schema#"
    xmlns:dc = "http://purl.org/dc/elements/1.1/"
    xmlns:cc = "http://creativecommons.org/ns#">
    <cc:license rdf:resource="http://creativecommons.org/publicdomain/zero/1.0/deed.en"/>
    <cc:permits rdf:resource="http://creativecommons.org/ns#Reproduction"/>
    <rdf:Description about="https://nft.mir.one/fingerprints"
      dc:title="TON Fingerprints"
      dc:description="This is a unique digital fingerprint created based on the algorithm for generating basic rings using a noise texture. Like human fingerprints, you can now use it for the Web3 and Metaverse era as digital biometric information."
      dc:publisher="https://nft.mir.one"
      dc:date="2022-02-22"
      dc:format="image/svg+xml"
      dc:language="en" >
      <dc:creator>
      <rdf:Bag>
        <rdf:li>EQBondcvD2_aOFADXSWJHs4ZazQDuEl9_wNvGGPxI8hGuOFU</rdf:li>
        <rdf:li>ipfs://bafkreihj7iub3fhmhq6jn62noukt5wxn3gv6bvcg7wmt6ywvlurefezckq</rdf:li>
      </rdf:Bag>
      </dc:creator>
    </rdf:Description>
  </rdf:RDF>
</metadata>
<rect width="100%" height="100%" fill="#1b1f23"/>
<g transform="translate(0.000000,1000.000000) scale(0.100000,-0.100000)"
fill="#ffffff" stroke="none">
<path d="M4958 7813 c6 -2 18 -2 25 0 6 3 1 5 -13 5 -14 0 -19 -2 -12 -5z"/>
<path d="M4878 7803 c6 -2 18 -2 25 0 6 3 1 5 -13 5 -14 0 -19 -2 -12 -5z"/>
<path d="M5151 7794 c9 -10 19 -31 23 -46 9 -39 -17 -52 -169 -83 -508 -103
-867 -266 -1140 -517 -115 -105 -175 -171 -175 -191 0 -9 12 -25 27 -37 47
-37 102 -14 267 110 288 217 521 340 971 509 104 39 219 89 255 111 93 56 151
80 217 88 51 7 42 9 -80 14 -118 5 -141 8 -160 25 -12 11 -29 24 -37 28 -12 7
-12 5 1 -11z"/>
<path d="M4790 7793 c-107 -19 -488 -129 -478 -138 2 -2 57 12 123 31 66 20
188 53 270 74 132 34 164 47 85 33z"/>
<path d="M5359 7549 c-63 -8 -279 -83 -426 -148 -111 -49 -506 -266 -614 -337
-113 -75 -214 -160 -333 -279 -122 -122 -148 -165 -201 -335 -25 -80 -89 -275
-140 -435 -103 -317 -110 -347 -121 -516 -5 -90 -10 -118 -25 -134 -30 -34
-49 -91 -49 -153 0 -152 72 -413 160 -580 205 -389 611 -690 1014 -753 88 -14
259 -6 346 16 185 47 410 200 546 369 218 272 309 472 333 734 10 108 21 135
54 130 62 -9 87 -203 48 -359 -28 -111 -90 -235 -203 -405 -51 -77 -102 -165
-113 -195 -25 -67 -79 -122 -190 -195 -154 -101 -341 -176 -505 -205 -103 -18
-297 -15 -395 6 -208 44 -400 138 -610 301 -102 78 -265 248 -332 345 -149
217 -237 488 -250 769 -7 158 8 267 88 655 44 209 58 257 106 370 30 72 70
166 89 210 37 87 43 135 19 155 -43 35 -128 -55 -303 -319 -53 -80 -118 -170
-145 -200 -82 -91 -140 -228 -192 -453 -15 -62 -42 -177 -61 -256 -36 -150
-42 -192 -19 -131 7 21 29 60 49 89 20 29 43 76 51 104 59 211 81 283 115 375
55 145 91 206 121 206 42 0 37 -71 -20 -295 -64 -251 -69 -303 -43 -450 12
-63 26 -158 32 -210 16 -130 45 -269 76 -365 97 -297 323 -570 658 -793 327
-217 524 -281 826 -269 276 11 479 74 855 264 283 143 329 171 438 273 125
116 216 247 318 456 56 112 107 201 132 230 42 48 42 48 41 133 -2 145 -75
336 -198 516 -180 264 -464 459 -784 541 -118 30 -290 47 -401 39 -90 -7 -360
-47 -446 -66 -253 -58 -424 -384 -360 -687 23 -109 73 -258 126 -373 76 -164
61 -208 -37 -104 -86 90 -169 273 -210 462 -26 117 -24 323 4 435 39 159 105
259 254 385 46 39 105 98 132 131 139 174 397 262 766 262 433 0 819 -141
1155 -421 114 -95 206 -194 311 -334 92 -123 162 -198 145 -155 -93 239 -160
379 -238 500 -86 133 -135 184 -250 261 -333 222 -728 331 -1148 316 -202 -8
-342 -29 -475 -73 -131 -43 -223 -93 -354 -194 -57 -42 -145 -105 -197 -140
-166 -112 -205 -146 -233 -203 -48 -97 -58 -179 -53 -412 6 -237 20 -336 73
-494 82 -247 217 -428 353 -472 20 -6 79 -33 131 -59 119 -59 190 -83 321
-110 190 -40 284 -17 394 94 210 214 219 580 18 719 -86 59 -130 72 -248 72
-99 0 -116 -3 -168 -27 -71 -33 -161 -118 -193 -181 -90 -177 24 -396 207
-397 78 0 137 32 167 90 12 24 22 58 22 75 0 73 -77 136 -139 114 -44 -15 -57
-43 -36 -75 9 -14 14 -32 11 -40 -9 -24 -64 -17 -93 12 -23 23 -25 32 -21 83
5 73 32 111 100 145 91 45 189 28 265 -46 140 -137 66 -409 -129 -474 -77 -25
-205 -16 -286 21 -115 52 -188 169 -222 356 -20 108 -11 134 90 256 118 144
184 193 305 229 77 23 218 23 305 0 200 -53 356 -203 375 -360 10 -75 -21
-284 -57 -393 -59 -180 -193 -352 -360 -464 -75 -51 -93 -68 -127 -126 -21
-38 -54 -82 -73 -100 -77 -74 -228 -110 -389 -93 -270 27 -520 159 -744 391
-194 201 -314 444 -380 770 -26 131 -31 189 -16 189 4 0 20 -9 33 -20 30 -23
50 -72 113 -274 85 -273 187 -449 354 -616 231 -229 515 -352 784 -338 95 5
168 28 196 61 28 34 0 44 -146 50 -305 13 -566 131 -770 351 -146 157 -224
304 -329 622 -83 252 -101 350 -86 462 16 113 59 179 94 144 6 -6 14 -75 18
-154 9 -152 31 -268 80 -433 122 -414 315 -658 637 -806 101 -47 232 -82 407
-108 138 -21 176 -17 176 18 0 43 -65 73 -250 115 -172 39 -386 137 -500 229
-132 107 -243 284 -313 503 -45 138 -62 222 -87 426 -11 90 -29 192 -39 228
-29 100 -31 122 -21 212 6 46 14 142 20 214 14 189 45 272 96 262 22 -4 32
-36 33 -111 1 -32 8 -73 15 -92 12 -29 20 -35 45 -35 22 0 36 8 53 33 20 28
22 41 19 102 -11 166 -7 196 28 263 40 74 152 185 261 257 41 28 140 82 219
121 136 67 146 74 180 125 31 47 48 60 128 100 188 95 437 146 775 158 125 5
233 13 240 17 15 10 -204 69 -327 88 -125 20 -248 25 -326 15z m161 -1693
c109 -31 251 -96 338 -155 211 -143 376 -350 439 -549 23 -74 25 -94 21 -195
-4 -91 -11 -129 -36 -205 -68 -200 -165 -363 -297 -501 -112 -116 -197 -171
-241 -154 -27 10 -13 39 62 123 235 262 344 488 344 715 0 153 -41 243 -190
418 -154 180 -282 276 -449 337 -226 83 -465 76 -643 -17 -125 -65 -200 -152
-259 -302 -29 -73 -53 -86 -76 -41 -17 33 -16 83 2 155 42 160 161 287 329
350 116 43 203 55 391 51 146 -3 183 -8 265 -30z"/>
<path d="M5550 7283 c-178 -14 -482 -84 -587 -134 -53 -25 -64 -34 -61 -52 4
-31 59 -48 133 -41 33 3 134 17 225 31 371 55 720 38 1033 -51 45 -13 105 -26
134 -28 52 -5 52 -5 0 27 -29 17 -86 53 -127 80 -92 60 -250 131 -349 156 -58
15 -105 19 -215 17 -78 -1 -161 -3 -186 -5z"/>
<path d="M5335 6969 c-38 -4 -160 -17 -270 -28 -110 -12 -226 -28 -258 -36
-76 -20 -189 -72 -268 -125 -169 -114 -308 -319 -254 -374 29 -28 46 -19 235
134 219 177 413 239 846 271 451 33 913 -79 1261 -307 48 -31 105 -63 127 -70
22 -8 46 -20 55 -27 15 -11 -29 42 -153 186 -63 72 -181 175 -264 230 -92 60
-305 119 -532 147 -96 11 -420 11 -525 -1z"/>
<path d="M3522 6781 c-102 -85 -186 -190 -336 -421 -68 -105 -68 -105 5 -35
40 39 101 102 136 141 77 89 136 141 222 198 97 64 124 103 101 146 -19 35
-62 26 -128 -29z"/>
<path d="M5165 6359 c-228 -35 -436 -138 -399 -197 17 -27 80 -26 215 3 432
91 828 19 1175 -213 238 -160 429 -388 560 -667 64 -137 198 -496 234 -625 18
-65 45 -134 61 -159 16 -25 29 -51 29 -59 0 -9 2 -13 5 -10 8 8 -23 423 -40
538 -39 261 -94 444 -171 567 -264 424 -652 704 -1112 804 -110 24 -450 35
-557 18z"/>
<path d="M3058 5238 c-20 -36 -17 -413 5 -560 47 -317 78 -373 359 -658 167
-171 300 -273 498 -385 154 -87 212 -137 187 -162 -12 -12 -22 -11 -78 7 -98
33 -275 120 -367 182 -117 78 -219 168 -355 313 -121 128 -150 150 -201 156
-42 6 -43 -15 -3 -53 20 -18 65 -82 100 -143 36 -60 86 -135 111 -166 87 -110
308 -264 472 -330 145 -58 226 -70 334 -47 47 9 73 8 175 -10 189 -34 288 -43
450 -43 184 -1 288 16 478 77 169 55 260 64 265 27 2 -16 -7 -28 -40 -47 -63
-37 -331 -145 -408 -164 -100 -24 -440 -22 -695 5 -110 12 -250 27 -310 33
-217 20 -419 97 -603 227 -37 27 -123 102 -191 168 -117 113 -123 117 -96 70
100 -177 287 -395 407 -475 159 -106 648 -182 1283 -199 284 -8 292 -9 365
-36 106 -40 280 -46 427 -16 201 41 377 114 553 228 192 125 371 301 499 492
108 160 201 448 201 624 0 78 -9 97 -46 97 -28 0 -47 -30 -83 -128 -71 -193
-133 -290 -216 -342 -27 -18 -79 -49 -114 -71 -35 -22 -116 -81 -179 -131
-134 -104 -267 -195 -432 -293 -114 -68 -180 -123 -180 -151 0 -24 46 -35 97
-23 154 34 408 192 646 403 137 121 157 136 178 136 29 0 24 -49 -11 -102 -41
-61 -216 -230 -323 -309 -111 -83 -258 -167 -362 -207 -125 -47 -443 -114
-549 -116 -60 -1 -90 3 -93 11 -7 21 39 52 123 82 106 38 180 76 210 106 19
19 24 35 24 76 0 51 2 55 53 103 29 28 120 92 202 141 314 189 621 436 714
575 43 64 180 310 198 355 35 91 -12 245 -76 245 -24 0 -48 -43 -80 -145 -108
-339 -351 -614 -747 -846 -252 -148 -304 -170 -564 -243 -239 -68 -299 -78
-477 -83 -227 -7 -401 21 -526 83 -87 44 -386 233 -482 304 -177 132 -379 345
-466 492 -106 176 -161 397 -184 728 -10 140 -43 198 -77 138z"/>
<path d="M2911 5164 c0 -11 3 -14 6 -6 3 7 2 16 -1 19 -3 4 -6 -2 -5 -13z"/>
<path d="M2901 5094 c0 -11 3 -14 6 -6 3 7 2 16 -1 19 -3 4 -6 -2 -5 -13z"/>
<path d="M2901 4814 c0 -11 3 -14 6 -6 3 7 2 16 -1 19 -3 4 -6 -2 -5 -13z"/>
<path d="M2911 4674 c0 -11 3 -14 6 -6 3 7 2 16 -1 19 -3 4 -6 -2 -5 -13z"/>
<path d="M2981 4250 c0 -3 10 -40 23 -84 18 -62 24 -73 29 -55 4 16 -3 44 -22
84 -16 33 -30 58 -30 55z"/>
<path d="M6758 3653 c-14 -16 -45 -55 -67 -88 -237 -342 -669 -622 -1064 -691
-111 -20 -202 -15 -377 20 -120 24 -211 33 -620 56 -387 22 -757 72 -1010 135
-52 13 -115 26 -140 29 -45 5 -45 5 48 -55 100 -64 257 -138 343 -163 109 -30
588 -80 929 -96 430 -20 540 -36 540 -81 0 -12 -10 -21 -27 -26 -16 -5 -156
-7 -313 -6 -276 1 -516 16 -775 49 -196 24 -406 44 -460 44 -50 -1 -50 -1 42
-40 85 -36 303 -100 453 -134 238 -54 867 -66 1019 -21 30 9 77 30 105 45 36
20 92 37 185 55 326 64 544 168 771 367 175 154 299 312 413 526 54 101 56
129 5 75z"/>
<path d="M6120 2730 c-244 -117 -362 -158 -593 -204 -298 -60 -352 -67 -587
-73 -232 -6 -434 5 -618 33 -53 8 -133 19 -177 25 -44 5 -93 12 -110 14 -48 8
119 -52 248 -90 193 -57 326 -76 563 -82 231 -6 407 8 649 52 162 30 242 57
386 131 117 60 482 298 449 293 -3 -1 -97 -45 -210 -99z"/>
<path d="M5080 2214 c-125 -13 -125 -13 -5 -7 66 3 172 9 235 13 115 7 115 7
5 7 -60 0 -166 -6 -235 -13z"/>
<path d="M4753 2193 c37 -2 96 -2 130 0 34 2 4 3 -68 3 -71 0 -99 -1 -62 -3z"/>
</g>
</svg>
