<?xml version="1.0" standalone="no"?>
<!DOCTYPE svg PUBLIC "-//W3C//DTD SVG 20010904//EN"
 "http://www.w3.org/TR/2001/REC-SVG-20010904/DTD/svg10.dtd">
<svg version="1.0" xmlns="http://www.w3.org/2000/svg"
 width="1000.000000pt" height="1000.000000pt" viewBox="0 0 1000.000000 1000.000000"
 preserveAspectRatio="xMidYMid meet">
<metadata>
  <rdf:RDF
    xmlns:rdf = "http://www.w3.org/1999/02/22-rdf-syntax-ns#"
    xmlns:rdfs = "http://www.w3.org/2000/01/rdf-schema#"
    xmlns:dc = "http://purl.org/dc/elements/1.1/"
    xmlns:cc = "http://creativecommons.org/ns#">
    <cc:license rdf:resource="http://creativecommons.org/publicdomain/zero/1.0/deed.en"/>
    <cc:permits rdf:resource="http://creativecommons.org/ns#Reproduction"/>
    <rdf:Description about="https://nft.mir.one/fingerprints"
      dc:title="TON Fingerprints"
      dc:description="This is a unique digital fingerprint created based on the algorithm for generating basic rings using a noise texture. Like human fingerprints, you can now use it for the Web3 and Metaverse era as digital biometric information."
      dc:publisher="https://nft.mir.one"
      dc:date="2022-02-22"
      dc:format="image/svg+xml"
      dc:language="en" >
      <dc:creator>
      <rdf:Bag>
        <rdf:li>EQBondcvD2_aOFADXSWJHs4ZazQDuEl9_wNvGGPxI8hGuOFU</rdf:li>
        <rdf:li>ipfs://bafkreihj7iub3fhmhq6jn62noukt5wxn3gv6bvcg7wmt6ywvlurefezckq</rdf:li>
      </rdf:Bag>
      </dc:creator>
    </rdf:Description>
  </rdf:RDF>
</metadata>
<rect width="100%" height="100%" fill="#1b1f23"/>
<g transform="translate(0.000000,1000.000000) scale(0.100000,-0.100000)"
fill="#ffffff" stroke="none">
<path d="M4908 7813 c7 -3 16 -2 19 1 4 3 -2 6 -13 5 -11 0 -14 -3 -6 -6z"/>
<path d="M5050 7775 c63 -18 223 -70 355 -115 301 -102 325 -108 409 -117 51
-4 67 -3 62 5 -4 7 -16 12 -26 12 -11 0 -77 23 -147 51 -245 98 -396 143 -609
179 -164 28 -176 24 -44 -15z"/>
<path d="M4420 7625 c-75 -15 -312 -77 -308 -80 2 -1 86 2 188 7 198 10 303 2
367 -29 39 -18 65 -60 45 -72 -7 -4 -75 -8 -152 -8 -180 -2 -256 -14 -469 -74
-146 -42 -353 -118 -371 -137 -8 -8 247 7 390 23 280 33 487 64 535 80 28 10
69 31 92 48 42 30 43 30 140 24 223 -14 566 -114 828 -241 210 -103 362 -231
555 -470 58 -71 129 -158 158 -194 61 -75 116 -178 137 -257 16 -62 12 -85
-15 -85 -24 0 -40 21 -100 133 -28 53 -65 111 -82 127 -33 33 -65 39 -75 13
-13 -35 81 -269 165 -406 97 -163 175 -469 188 -747 10 -200 -17 -353 -68
-384 -35 -21 -41 6 -49 196 -14 332 -55 507 -185 778 -59 126 -65 143 -78 250
-8 63 -22 148 -30 188 -9 40 -16 100 -16 132 0 51 -5 65 -42 121 -59 91 -247
274 -348 341 -263 173 -704 328 -936 328 -43 0 -177 -16 -298 -35 -828 -132
-754 -113 -956 -245 -125 -82 -195 -143 -211 -183 -19 -48 -60 -105 -120 -168
-54 -56 -54 -56 6 -28 34 16 93 58 137 98 82 74 130 103 256 152 290 112 827
221 1097 222 151 0 220 -14 358 -72 51 -22 155 -63 232 -91 416 -154 640 -333
732 -587 25 -69 27 -113 6 -120 -7 -3 -34 24 -60 58 -98 127 -154 188 -220
238 -168 127 -448 231 -619 231 -36 0 -92 -11 -150 -30 -52 -16 -172 -44 -267
-60 -293 -52 -455 -100 -642 -190 -126 -61 -201 -109 -343 -222 -84 -68 -126
-94 -170 -107 -129 -40 -185 -87 -197 -168 -10 -66 -29 -99 -73 -127 -131 -82
-264 -354 -306 -621 -38 -245 -31 -419 24 -605 74 -248 211 -571 263 -618 25
-24 25 -24 37 -2 18 34 7 82 -64 273 -90 244 -104 307 -116 534 -18 340 17
558 142 861 50 122 68 146 91 123 20 -20 11 -100 -27 -252 -65 -262 -85 -436
-67 -581 15 -112 31 -158 80 -216 50 -61 72 -104 171 -352 136 -338 236 -517
403 -725 317 -394 693 -509 1322 -404 349 58 979 250 1225 374 143 72 269 234
403 520 38 80 38 80 -3 40 -22 -22 -62 -67 -88 -100 -64 -78 -152 -166 -222
-220 -89 -68 -176 -111 -298 -145 -62 -17 -150 -46 -195 -65 -45 -18 -147 -53
-227 -78 -442 -140 -690 -184 -978 -175 -240 8 -357 46 -539 176 -54 38 -134
91 -178 118 -163 97 -294 264 -428 544 -108 225 -252 589 -272 689 -25 119
-16 356 19 546 14 77 35 202 45 278 30 206 86 315 133 257 27 -33 23 -82 -26
-364 -94 -532 -84 -684 68 -1073 163 -419 388 -752 500 -741 27 3 31 7 34 34
2 25 -9 49 -52 110 -251 358 -362 581 -427 864 -26 111 -36 354 -19 487 29
236 105 535 168 663 97 197 350 359 695 446 248 63 497 79 698 45 63 -11 139
-22 169 -26 130 -15 229 -65 388 -197 46 -38 103 -78 126 -90 57 -28 76 -47
76 -74 0 -37 -39 -41 -105 -10 -31 14 -112 64 -180 111 -186 128 -279 164
-304 117 -23 -43 40 -98 371 -322 185 -126 225 -163 288 -270 80 -135 120
-265 169 -553 22 -126 40 -198 61 -247 38 -87 40 -161 6 -291 -43 -164 -103
-292 -216 -464 -110 -167 -228 -272 -293 -263 -43 6 -31 40 48 133 258 305
342 572 290 925 -46 319 -104 525 -185 662 -64 107 -175 215 -375 366 -99 75
-209 162 -245 195 -36 32 -86 70 -112 83 -226 115 -666 61 -958 -117 -98 -60
-219 -178 -268 -261 -78 -132 -137 -306 -174 -508 -27 -154 -29 -418 -4 -535
54 -246 154 -455 345 -714 49 -66 109 -156 134 -199 43 -74 103 -141 130 -143
7 -1 40 0 74 1 44 1 75 -4 108 -19 92 -41 30 -76 -94 -53 -39 7 -53 6 -62 -4
-18 -21 8 -72 51 -100 66 -44 161 -57 410 -58 208 0 235 2 351 27 70 15 178
42 240 62 63 19 182 56 264 81 246 75 274 95 408 297 40 59 100 149 134 198
143 209 284 547 323 774 56 329 44 595 -45 957 -15 60 -29 157 -35 233 -10
145 -26 205 -94 337 -153 300 -431 646 -625 777 -126 86 -374 186 -663 270
-316 91 -696 132 -878 96z m805 -1578 c196 -64 507 -292 641 -470 89 -119 150
-263 186 -442 17 -80 21 -137 20 -284 0 -114 5 -207 13 -246 30 -145 -9 -232
-277 -615 -86 -123 -145 -169 -284 -220 -150 -54 -259 -72 -414 -68 -177 5
-204 17 -325 142 -49 51 -124 118 -165 148 -144 106 -319 308 -408 470 -128
233 -160 426 -118 720 41 288 119 476 261 626 113 121 249 200 411 241 117 30
119 30 254 26 102 -2 140 -7 205 -28z"/>
<path d="M4913 5909 c-196 -23 -383 -128 -498 -281 -94 -125 -144 -261 -170
-459 -9 -67 -23 -136 -32 -153 -22 -42 -29 -171 -13 -238 40 -165 129 -316
275 -464 167 -168 252 -202 480 -190 264 15 400 61 571 195 101 79 291 326
350 455 75 165 36 454 -89 657 -98 161 -266 310 -450 400 -141 69 -280 94
-424 78z m260 -215 c173 -44 341 -166 439 -320 148 -231 153 -466 17 -697 -59
-101 -212 -251 -304 -299 -132 -68 -193 -83 -350 -83 -105 0 -154 4 -195 17
-169 53 -333 212 -425 412 -53 114 -81 245 -55 261 24 15 54 -25 122 -158 65
-128 80 -151 157 -228 95 -95 167 -139 273 -164 318 -75 651 147 716 477 52
265 -128 544 -402 623 -43 13 -84 16 -155 13 -82 -3 -106 -8 -164 -35 -130
-61 -223 -178 -247 -311 -31 -176 79 -392 238 -465 67 -31 200 -31 258 0 103
55 154 134 154 237 -1 100 -48 175 -132 210 -103 44 -218 -19 -218 -118 0 -79
76 -133 100 -71 22 57 80 32 80 -35 0 -27 -7 -43 -31 -66 -26 -25 -38 -29 -88
-29 -45 0 -66 6 -97 26 -95 63 -127 210 -69 319 76 140 245 186 402 109 141
-68 224 -235 195 -391 -51 -274 -346 -425 -596 -305 -118 57 -199 143 -273
292 -53 105 -74 182 -74 264 1 304 291 560 606 534 33 -2 86 -11 118 -19z"/>
<path d="M5931 4604 c-17 -14 -68 -78 -113 -141 -144 -202 -258 -308 -404
-379 -119 -57 -207 -75 -397 -81 -178 -6 -201 -12 -190 -53 7 -27 50 -56 120
-82 79 -29 276 -31 376 -4 219 58 348 153 514 376 118 159 189 332 153 375
-17 20 -24 19 -59 -11z"/>
<path d="M6520 6914 c0 -5 47 -105 105 -222 57 -117 115 -243 129 -280 22 -63
94 -388 136 -617 47 -260 51 -489 11 -699 -27 -140 -28 -217 -3 -240 18 -15
20 -15 34 1 9 10 23 43 32 73 79 274 56 665 -65 1120 -75 280 -128 413 -273
684 -97 181 -106 197 -106 180z"/>
<path d="M4685 6903 c-183 -17 -495 -87 -692 -154 -261 -89 -538 -252 -671
-393 -97 -104 -326 -399 -276 -355 11 9 38 26 61 38 23 11 59 32 79 46 20 14
100 57 178 97 78 39 223 120 323 179 283 168 415 228 642 294 162 46 298 72
499 95 198 22 227 32 227 75 0 25 -7 33 -37 48 -65 32 -191 43 -333 30z"/>
<path d="M3283 5993 c-85 -30 -192 -183 -259 -369 -36 -100 -104 -351 -104
-382 0 -16 46 80 90 190 71 174 137 275 270 413 61 62 110 120 110 129 0 16
-30 37 -52 35 -7 0 -32 -7 -55 -16z"/>
<path d="M2911 5204 c0 -11 3 -14 6 -6 3 7 2 16 -1 19 -3 4 -6 -2 -5 -13z"/>
<path d="M7065 4880 c-17 -16 -55 -43 -85 -58 -55 -28 -55 -28 -175 -269 -149
-299 -225 -413 -392 -596 -96 -106 -105 -153 -26 -144 58 6 137 60 238 161
174 174 232 277 344 610 39 113 83 233 99 266 16 33 28 60 28 60 -1 0 -15 -13
-31 -30z"/>
<path d="M3332 4618 c-13 -52 4 -127 78 -333 38 -107 79 -231 90 -277 28 -107
82 -218 164 -341 101 -150 128 -201 124 -239 -2 -25 -8 -33 -23 -33 -28 0
-175 180 -291 356 -87 132 -100 148 -134 158 -78 23 -149 144 -264 447 -53
139 -90 204 -118 204 -7 0 -7 -4 0 -12 6 -7 36 -96 67 -197 95 -310 126 -379
266 -587 163 -245 287 -375 421 -444 77 -39 103 -73 130 -170 11 -39 22 -51
83 -93 153 -105 370 -191 557 -222 108 -17 307 -20 428 -4 220 27 552 98 935
201 506 134 532 144 667 246 84 63 285 250 251 233 -12 -6 -29 -11 -38 -11
-10 0 -72 -24 -139 -54 -243 -109 -572 -216 -956 -311 -423 -104 -778 -139
-1020 -100 -122 20 -267 70 -367 126 -109 61 -233 187 -295 299 -26 47 -88
150 -138 230 -123 197 -170 296 -296 632 -59 158 -116 297 -126 308 -27 29
-46 25 -56 -12z"/>
<path d="M3211 3608 c112 -184 193 -290 299 -392 103 -99 184 -145 229 -130
14 5 27 16 29 24 4 23 -52 75 -144 136 -111 73 -200 158 -355 339 -73 85 -134
155 -136 155 -1 0 33 -60 78 -132z"/>
<path d="M6475 3068 c-27 -6 -88 -21 -135 -34 -47 -13 -143 -37 -215 -54 -71
-17 -227 -58 -346 -91 -189 -52 -529 -136 -869 -215 -207 -48 -438 -42 -666
16 -130 34 -211 65 -398 154 -77 37 -158 71 -181 76 -23 5 -55 14 -71 20 -16
6 -26 9 -24 7 28 -27 313 -242 370 -279 209 -138 473 -223 726 -235 153 -7
202 2 285 53 81 49 162 77 402 140 467 122 787 223 925 293 63 32 278 168 251
160 -2 -1 -26 -6 -54 -11z"/>
<path d="M6020 2705 c-58 -18 -177 -57 -265 -85 -88 -28 -257 -76 -375 -106
-266 -68 -333 -90 -355 -114 -51 -56 49 -66 250 -25 250 50 463 126 740 264
94 46 184 87 200 92 24 5 17 7 -30 7 -42 1 -92 -9 -165 -33z"/>
<path d="M5368 2233 c7 -3 16 -2 19 1 4 3 -2 6 -13 5 -11 0 -14 -3 -6 -6z"/>
<path d="M5308 2223 c6 -2 18 -2 25 0 6 3 1 5 -13 5 -14 0 -19 -2 -12 -5z"/>
<path d="M5258 2213 c6 -2 18 -2 25 0 6 3 1 5 -13 5 -14 0 -19 -2 -12 -5z"/>
<path d="M5208 2203 c7 -3 16 -2 19 1 4 3 -2 6 -13 5 -11 0 -14 -3 -6 -6z"/>
<path d="M4833 2183 c9 -2 23 -2 30 0 6 3 -1 5 -18 5 -16 0 -22 -2 -12 -5z"/>
</g>
</svg>
