<?xml version="1.0" standalone="no"?>
<!DOCTYPE svg PUBLIC "-//W3C//DTD SVG 20010904//EN"
 "http://www.w3.org/TR/2001/REC-SVG-20010904/DTD/svg10.dtd">
<svg version="1.0" xmlns="http://www.w3.org/2000/svg"
 width="1000.000000pt" height="1000.000000pt" viewBox="0 0 1000.000000 1000.000000"
 preserveAspectRatio="xMidYMid meet">
<metadata>
  <rdf:RDF
    xmlns:rdf = "http://www.w3.org/1999/02/22-rdf-syntax-ns#"
    xmlns:rdfs = "http://www.w3.org/2000/01/rdf-schema#"
    xmlns:dc = "http://purl.org/dc/elements/1.1/"
    xmlns:cc = "http://creativecommons.org/ns#">
    <cc:license rdf:resource="http://creativecommons.org/publicdomain/zero/1.0/deed.en"/>
    <cc:permits rdf:resource="http://creativecommons.org/ns#Reproduction"/>
    <rdf:Description about="https://nft.mir.one/fingerprints"
      dc:title="TON Fingerprints"
      dc:description="This is a unique digital fingerprint created based on the algorithm for generating basic rings using a noise texture. Like human fingerprints, you can now use it for the Web3 and Metaverse era as digital biometric information."
      dc:publisher="https://nft.mir.one"
      dc:date="2022-02-22"
      dc:format="image/svg+xml"
      dc:language="en" >
      <dc:creator>
      <rdf:Bag>
        <rdf:li>EQBondcvD2_aOFADXSWJHs4ZazQDuEl9_wNvGGPxI8hGuOFU</rdf:li>
        <rdf:li>ipfs://bafkreihj7iub3fhmhq6jn62noukt5wxn3gv6bvcg7wmt6ywvlurefezckq</rdf:li>
      </rdf:Bag>
      </dc:creator>
    </rdf:Description>
  </rdf:RDF>
</metadata>
<rect width="100%" height="100%" fill="#1b1f23"/>
<g transform="translate(0.000000,1000.000000) scale(0.100000,-0.100000)"
fill="#ffffff" stroke="none">
<path d="M5060 7741 c0 -37 288 -187 547 -285 200 -76 467 -295 734 -601 125
-145 167 -201 207 -280 35 -71 194 -455 262 -635 65 -171 65 -171 121 -209 28
-19 64 -51 80 -70 33 -40 36 -47 -45 132 -13 28 -45 113 -71 187 -26 74 -80
212 -120 305 -40 94 -87 206 -104 251 -44 114 -85 177 -219 338 -279 332 -491
515 -752 646 -114 57 -381 161 -511 199 -116 34 -129 36 -129 22z"/>
<path d="M4475 7679 c-44 -10 -107 -19 -140 -19 -60 0 -60 0 -30 -16 17 -8 41
-26 55 -39 14 -14 38 -37 53 -52 16 -16 43 -48 61 -73 32 -45 63 -69 297 -230
412 -284 743 -635 1038 -1099 117 -184 165 -241 203 -241 57 0 44 69 -43 240
-75 148 -171 295 -287 440 -110 137 -406 454 -512 549 -177 159 -371 295 -515
361 -49 23 -101 47 -115 54 -14 6 -26 22 -28 34 -3 18 4 26 34 38 83 35 233
-23 434 -167 163 -117 248 -188 331 -282 41 -45 135 -147 210 -227 291 -309
416 -475 530 -701 67 -135 90 -226 82 -327 -5 -75 -4 -82 60 -277 100 -307
139 -505 156 -790 25 -405 -51 -842 -208 -1205 -80 -184 -275 -513 -389 -658
-151 -192 -290 -299 -652 -504 -52 -29 -236 -103 -360 -143 -102 -34 -213 -85
-184 -85 11 0 92 9 180 20 87 11 192 20 232 20 91 0 144 18 377 124 99 46 202
91 229 101 143 52 255 172 356 380 37 77 113 223 169 324 113 208 173 339 232
509 181 525 215 999 113 1591 -31 185 -147 697 -180 799 -58 178 -184 398
-341 592 -37 46 -158 177 -269 291 -168 172 -204 214 -218 255 -32 90 -38 97
-214 215 -205 139 -287 183 -373 204 -90 21 -273 18 -374 -6z"/>
<path d="M4080 7385 c-36 -7 -122 -34 -192 -58 -145 -51 -150 -45 55 -67 155
-17 277 -53 422 -123 438 -214 824 -543 1077 -918 35 -52 126 -197 201 -324
76 -126 172 -277 214 -335 122 -169 171 -296 210 -544 24 -157 24 -526 0 -686
-52 -332 -136 -574 -246 -705 -51 -60 -127 -171 -212 -309 -77 -123 -129 -137
-129 -34 0 35 15 86 51 181 48 122 52 141 59 252 5 73 22 182 43 280 66 300
72 352 71 660 0 255 -2 295 -27 450 -21 131 -27 200 -26 300 2 121 0 134 -25
194 -48 113 -237 484 -283 556 -271 422 -851 838 -1295 929 -173 36 -253 17
-509 -121 -77 -41 -77 -41 -25 -45 28 -2 83 0 121 5 94 12 303 2 394 -17 398
-87 882 -401 1135 -738 72 -96 110 -175 140 -285 13 -49 47 -143 76 -207 69
-157 85 -206 114 -349 101 -503 105 -838 15 -1277 -96 -463 -141 -565 -315
-710 -140 -115 -243 -163 -273 -126 -19 22 -3 42 92 118 103 83 192 189 244
291 80 160 156 456 189 737 49 425 -36 947 -198 1217 -36 61 -97 128 -170 186
-26 20 -90 89 -143 152 -101 121 -224 227 -309 269 -207 101 -504 238 -566
262 -41 15 -146 49 -233 75 -167 49 -212 74 -188 103 36 43 231 23 441 -47
147 -48 471 -207 610 -298 96 -64 243 -202 368 -346 67 -77 103 -97 129 -70
56 56 -181 360 -417 534 -263 194 -558 333 -805 378 -113 21 -300 17 -359 -8
-40 -18 -181 -104 -275 -169 -30 -21 -61 -38 -70 -39 -35 -2 59 -33 135 -44
53 -8 118 -28 190 -59 60 -26 177 -72 259 -103 171 -63 408 -175 477 -227 50
-38 183 -224 199 -278 9 -32 3 -58 -14 -58 -5 0 -51 40 -101 88 -106 102 -175
151 -305 216 -229 116 -630 256 -729 256 -37 0 -116 -41 -200 -103 -63 -46
-63 -46 -30 -60 18 -8 75 -17 126 -20 194 -14 396 -69 622 -169 74 -33 176
-76 225 -95 50 -19 134 -59 187 -89 101 -58 160 -74 196 -55 17 9 29 6 69 -19
45 -28 142 -58 296 -94 275 -63 457 -477 457 -1041 0 -416 -108 -816 -290
-1073 -86 -123 -153 -177 -174 -143 -10 15 15 72 86 197 117 209 183 382 228
603 89 440 20 959 -160 1203 -59 80 -132 128 -196 128 -30 0 -58 10 -100 35
-63 38 -95 43 -114 20 -16 -19 -10 -40 72 -265 127 -344 153 -473 152 -750 0
-163 -4 -212 -22 -298 -30 -135 -69 -241 -122 -327 -24 -39 -81 -133 -128
-210 -111 -185 -156 -246 -244 -331 -127 -124 -282 -216 -471 -279 -56 -19
-133 -39 -172 -46 -38 -6 -83 -17 -100 -24 -16 -7 -36 -14 -44 -17 -19 -5 140
-64 228 -84 90 -21 126 -14 283 52 195 82 379 208 476 324 40 49 91 139 201
360 205 413 239 526 248 840 8 284 -25 469 -131 733 -60 147 -72 217 -38 217
19 0 102 -118 148 -210 39 -79 79 -204 106 -328 21 -96 23 -133 23 -352 -1
-216 -3 -257 -23 -350 -35 -162 -93 -323 -187 -520 -62 -130 -90 -203 -101
-258 -29 -146 -42 -178 -96 -237 -133 -145 -485 -344 -742 -419 -45 -13 -97
-33 -115 -44 -34 -21 -34 -21 -5 -27 16 -4 56 -14 89 -23 34 -8 107 -15 170
-16 124 -1 107 -7 355 130 133 73 333 156 505 209 158 49 233 90 333 181 48
43 91 74 100 72 18 -3 28 -62 18 -102 -35 -142 -359 -343 -611 -381 -165 -25
-232 -51 -327 -128 -86 -70 -113 -86 -183 -112 -36 -14 -88 -38 -115 -53 -50
-29 -50 -29 93 -41 78 -7 185 -17 236 -23 163 -17 257 6 390 96 42 29 139 87
216 130 195 108 298 183 459 332 158 146 225 226 346 416 187 295 271 514 331
862 27 152 37 532 20 688 -28 244 -88 463 -177 641 -51 104 -60 117 -149 223
-37 43 -135 183 -219 309 -181 272 -293 413 -471 590 -209 210 -438 382 -805
606 -102 62 -107 64 -180 66 -41 1 -104 -4 -140 -12z m531 -1327 c61 -44 202
-172 232 -211 80 -106 9 -114 -121 -15 -68 53 -212 215 -212 239 0 30 50 24
101 -13z m134 -3408 c3 -5 0 -18 -7 -29 -39 -62 -257 -119 -246 -64 10 51 229
132 253 93z"/>
<path d="M5485 7350 c-14 -23 13 -55 138 -163 429 -370 660 -688 791 -1087 58
-178 89 -318 136 -628 61 -394 73 -522 73 -762 0 -270 -17 -403 -89 -690 -100
-399 -143 -505 -403 -1003 -63 -121 -73 -164 -45 -192 15 -15 19 -14 46 12 82
78 232 295 312 453 77 151 122 277 178 505 27 110 62 238 78 285 74 223 97
602 59 960 -5 52 -21 177 -35 276 -13 100 -29 251 -34 335 -13 208 -50 351
-163 626 -124 301 -238 466 -511 738 -221 220 -397 345 -487 345 -21 0 -41 -5
-44 -10z"/>
<path d="M3205 5987 c-51 -30 -92 -67 -151 -139 -63 -76 -63 -76 -31 -89 38
-16 56 -14 160 17 179 54 400 16 581 -100 72 -46 201 -170 283 -271 179 -222
262 -453 283 -789 23 -362 23 -387 5 -501 -31 -201 -84 -311 -212 -446 -168
-176 -416 -295 -657 -315 -39 -3 -88 -10 -109 -16 -38 -9 -38 -9 45 -52 165
-86 223 -92 374 -41 299 103 521 296 656 570 51 104 53 112 29 200 -8 30 -6
80 6 200 26 262 6 547 -52 762 -58 211 -135 361 -281 541 -52 65 -108 143
-124 174 -17 31 -50 73 -73 93 -55 48 -218 128 -320 160 -164 49 -366 70 -412
42z"/>
<path d="M4103 5773 c-7 -2 -13 -16 -13 -29 0 -18 30 -55 103 -132 57 -59 117
-128 135 -154 90 -132 197 -418 232 -620 41 -242 36 -478 -16 -719 -14 -66
-23 -126 -20 -134 9 -23 40 -17 69 13 98 103 153 471 113 769 -28 211 -107
472 -215 705 -47 102 -86 148 -186 217 -108 75 -166 99 -202 84z"/>
<path d="M6826 5678 c-23 -32 -20 -117 8 -293 58 -350 60 -384 61 -710 0 -268
-3 -331 -23 -464 -22 -154 -22 -154 -2 -188 23 -39 26 -92 8 -112 -11 -11 -10
-13 2 -9 19 6 35 61 49 173 6 50 20 146 30 215 63 395 53 799 -30 1203 -38
189 -66 239 -103 185z"/>
<path d="M3273 5661 c-33 -15 -44 -41 -28 -72 14 -26 179 -119 448 -251 129
-64 182 -108 243 -204 81 -126 126 -283 126 -434 0 -126 -12 -174 -77 -305
-145 -294 -376 -451 -540 -367 -22 11 -60 23 -85 27 -25 4 -54 12 -65 18 -40
20 -303 316 -335 377 -29 53 -24 32 15 -64 54 -134 128 -286 168 -345 41 -62
40 -68 -22 -124 -40 -36 -40 -36 47 -88 112 -67 136 -70 288 -29 321 85 442
180 604 470 29 52 68 113 86 135 46 56 55 86 61 196 26 458 -266 884 -712
1036 -77 26 -188 38 -222 24z"/>
<path d="M3050 5404 c-49 -46 -120 -167 -120 -204 0 -9 9 -43 21 -76 23 -66
22 -88 -11 -262 -25 -130 -25 -135 3 -81 61 117 131 227 162 256 19 18 50 35
70 39 126 23 298 -95 374 -256 21 -46 25 -69 26 -145 0 -109 -16 -148 -99
-249 -31 -38 -55 -77 -54 -85 4 -22 60 -26 98 -6 52 27 111 96 148 173 29 61
35 87 40 160 6 116 -12 186 -88 336 -86 169 -123 220 -195 271 -59 42 -267
158 -307 170 -12 4 -33 -8 -68 -41z"/>
<path d="M5752 5418 c-17 -17 -15 -55 12 -181 50 -230 60 -329 61 -572 0 -283
-16 -406 -91 -703 -59 -234 -63 -266 -36 -281 74 -39 190 250 249 621 26 163
25 568 0 723 -48 281 -134 454 -195 393z"/>
<path d="M3667 5213 c-15 -14 -4 -46 57 -174 117 -242 125 -408 30 -590 -46
-87 -104 -148 -206 -217 -115 -78 -135 -132 -50 -132 137 0 322 166 405 365
95 227 36 544 -134 713 -39 40 -83 55 -102 35z"/>
<path d="M3307 4782 c-20 -22 -23 -95 -4 -110 6 -5 21 -12 32 -14 26 -4 31
-40 8 -60 -32 -29 -66 -31 -103 -6 -35 23 -39 33 -78 168 -5 17 -16 26 -34 28
-91 11 -72 -255 24 -349 62 -60 142 -82 183 -52 29 21 119 159 131 201 23 74
-4 157 -61 192 -40 25 -77 26 -98 2z"/>
<path d="M2911 4694 c0 -11 3 -14 6 -6 3 7 2 16 -1 19 -3 4 -6 -2 -5 -13z"/>
<path d="M4195 4346 c-9 -13 -29 -58 -45 -99 -105 -272 -268 -444 -512 -541
-52 -20 -343 -106 -361 -106 -2 0 -22 -14 -43 -32 -22 -17 -32 -28 -23 -25 10
3 66 -10 125 -29 108 -36 108 -36 199 -15 264 62 492 218 610 418 103 176 152
453 80 453 -8 0 -22 -11 -30 -24z"/>
<path d="M6781 3994 c-12 -15 -22 -47 -26 -82 -15 -154 -61 -356 -125 -551
-33 -102 -97 -241 -154 -334 -19 -31 -31 -55 -26 -52 17 11 130 204 189 323
74 152 195 509 191 567 -1 22 -2 66 -2 98 1 65 -13 74 -47 31z"/>
<path d="M6399 2913 c-13 -16 -12 -17 4 -4 9 7 17 15 17 17 0 8 -8 3 -21 -13z"/>
<path d="M6359 2863 c-13 -16 -12 -17 4 -4 16 13 21 21 13 21 -2 0 -10 -8 -17
-17z"/>
<path d="M6245 2755 c-16 -14 -46 -30 -65 -36 -84 -28 -107 -47 -180 -151 -72
-103 -72 -103 16 -17 49 47 126 113 171 147 45 34 85 67 88 72 9 15 3 12 -30
-15z"/>
<path d="M5535 2371 c-16 -10 -55 -45 -85 -76 -55 -57 -55 -57 -10 -30 78 48
160 108 160 116 0 15 -34 10 -65 -10z"/>
</g>
</svg>
