<?xml version="1.0" standalone="no"?>
<!DOCTYPE svg PUBLIC "-//W3C//DTD SVG 20010904//EN"
 "http://www.w3.org/TR/2001/REC-SVG-20010904/DTD/svg10.dtd">
<svg version="1.0" xmlns="http://www.w3.org/2000/svg"
 width="1000.000000pt" height="1000.000000pt" viewBox="0 0 1000.000000 1000.000000"
 preserveAspectRatio="xMidYMid meet">
<metadata>
  <rdf:RDF
    xmlns:rdf = "http://www.w3.org/1999/02/22-rdf-syntax-ns#"
    xmlns:rdfs = "http://www.w3.org/2000/01/rdf-schema#"
    xmlns:dc = "http://purl.org/dc/elements/1.1/"
    xmlns:cc = "http://creativecommons.org/ns#">
    <cc:license rdf:resource="http://creativecommons.org/publicdomain/zero/1.0/deed.en"/>
    <cc:permits rdf:resource="http://creativecommons.org/ns#Reproduction"/>
    <rdf:Description about="https://nft.mir.one/fingerprints"
      dc:title="TON Fingerprints"
      dc:description="This is a unique digital fingerprint created based on the algorithm for generating basic rings using a noise texture. Like human fingerprints, you can now use it for the Web3 and Metaverse era as digital biometric information."
      dc:publisher="https://nft.mir.one"
      dc:date="2022-02-22"
      dc:format="image/svg+xml"
      dc:language="en" >
      <dc:creator>
      <rdf:Bag>
        <rdf:li>EQBondcvD2_aOFADXSWJHs4ZazQDuEl9_wNvGGPxI8hGuOFU</rdf:li>
        <rdf:li>ipfs://bafkreihj7iub3fhmhq6jn62noukt5wxn3gv6bvcg7wmt6ywvlurefezckq</rdf:li>
      </rdf:Bag>
      </dc:creator>
    </rdf:Description>
  </rdf:RDF>
</metadata>
<rect width="100%" height="100%" fill="#1b1f23"/>
<g transform="translate(0.000000,1000.000000) scale(0.100000,-0.100000)"
fill="#ffffff" stroke="none">
<path d="M5150 7710 c-36 -4 -166 -13 -290 -19 -124 -7 -269 -16 -324 -21 -54
-6 -128 -10 -165 -11 -66 -1 -66 -1 9 -20 78 -19 335 -38 534 -40 154 -1 220
-11 253 -37 58 -46 105 -62 250 -87 226 -39 320 -69 502 -159 126 -63 277
-122 351 -139 36 -8 66 -14 67 -13 2 1 -59 42 -135 91 -227 147 -495 274 -656
310 -15 3 -98 12 -183 19 -85 8 -160 19 -166 25 -8 8 -6 17 9 32 16 15 46 24
115 35 142 21 145 39 6 40 -62 1 -141 -2 -177 -6z"/>
<path d="M4290 7500 c-52 -4 -142 -17 -200 -28 -58 -12 -118 -23 -135 -25 -29
-4 -28 -4 5 -6 19 0 51 -5 70 -10 34 -9 271 -34 630 -66 297 -27 448 -55 815
-150 239 -62 310 -87 310 -111 0 -29 -43 -46 -105 -40 -30 3 -147 28 -260 55
-361 88 -531 114 -957 151 -366 31 -431 26 -696 -53 -78 -23 -78 -23 -40 -36
44 -14 77 -16 468 -36 598 -31 859 -67 1265 -175 102 -27 242 -61 313 -75 193
-40 390 -111 595 -214 146 -74 177 -98 231 -182 53 -83 129 -153 211 -194 55
-28 55 -28 30 3 -149 181 -170 214 -170 257 0 34 5 47 22 59 22 16 22 16 1 16
-21 0 -37 12 -195 146 -176 148 -260 199 -468 280 -118 46 -129 53 -195 120
-85 85 -154 117 -355 164 -74 17 -198 49 -275 70 -174 48 -221 56 -470 75
-211 16 -291 17 -445 5z"/>
<path d="M3795 7033 c-64 -14 -187 -60 -259 -98 -77 -40 -81 -44 -57 -51 14
-4 188 -6 386 -5 362 2 750 -10 945 -29 345 -34 688 -120 721 -181 27 -51 -18
-51 -271 1 -330 67 -380 72 -845 77 -245 3 -507 1 -630 -6 -210 -11 -210 -11
-282 -46 -40 -20 -107 -62 -150 -93 -43 -32 -87 -63 -98 -70 -18 -10 -17 -12
15 -13 51 -4 53 -3 205 19 286 43 893 77 1230 69 239 -6 309 -14 561 -66 132
-27 167 -31 290 -28 119 2 151 -1 224 -21 230 -63 376 -129 568 -258 175 -119
410 -297 514 -390 48 -44 105 -89 126 -101 40 -22 40 -22 -8 60 -78 134 -176
278 -225 334 -49 56 -252 231 -357 309 -90 66 -318 175 -493 234 -82 29 -219
81 -303 117 -315 133 -684 197 -1287 222 -369 16 -498 19 -520 14z"/>
<path d="M4530 6493 c-331 -25 -910 -76 -1005 -89 -164 -21 -195 -37 -382
-188 -43 -35 -43 -35 -5 -38 20 -2 61 2 89 9 94 20 273 42 558 68 154 14 406
44 560 67 246 36 307 41 505 45 242 4 322 -5 328 -39 5 -29 -32 -36 -265 -53
-248 -19 -344 -33 -493 -75 -197 -55 -479 -93 -830 -110 -333 -16 -355 -23
-497 -152 -80 -73 -80 -73 -45 -76 18 -2 82 8 140 22 235 55 337 58 433 11 56
-27 56 -27 238 4 100 17 253 38 340 47 172 18 164 19 291 -32 37 -15 72 -19
195 -18 164 1 304 21 520 75 112 28 158 43 355 114 71 26 82 27 205 22 95 -3
149 -11 202 -27 78 -25 146 -72 141 -99 -3 -14 -29 -16 -233 -16 -230 -1 -230
-1 -490 -67 -143 -37 -323 -79 -400 -95 -149 -29 -225 -32 -650 -23 -266 5
-456 -39 -670 -157 -66 -36 -158 -86 -204 -112 -61 -34 -106 -68 -165 -129
-45 -46 -111 -105 -147 -132 -86 -63 -111 -95 -203 -262 -36 -67 -36 -67 -4
-56 18 6 127 81 243 167 293 217 352 255 499 327 295 144 602 198 931 165 120
-13 120 -13 235 18 424 114 774 187 990 206 91 9 205 22 254 31 102 18 140 14
246 -27 107 -41 219 -110 295 -181 71 -66 91 -97 110 -169 7 -25 37 -81 67
-125 30 -43 67 -101 83 -129 37 -65 123 -155 147 -155 11 0 28 -5 39 -11 19
-10 20 -9 5 18 -8 16 -26 67 -41 113 -45 142 -105 301 -148 385 -66 132 -204
257 -479 431 -67 42 -156 102 -198 131 -147 106 -276 154 -555 208 -167 32
-407 89 -465 110 -95 35 -184 46 -400 49 -118 2 -240 2 -270 -1z m909 -256
c64 -32 26 -57 -175 -113 -175 -49 -330 -77 -552 -99 -187 -20 -237 -18 -237
9 0 51 80 75 362 110 233 30 258 35 373 75 92 33 186 40 229 18z"/>
<path d="M3337 5790 c-191 -43 -216 -56 -315 -159 -74 -78 -70 -82 62 -53 50
11 125 25 167 31 143 19 313 96 362 163 52 70 -27 75 -276 18z"/>
<path d="M5825 5690 c-282 -38 -767 -147 -871 -194 -55 -25 -88 -63 -79 -89 4
-8 20 -21 37 -28 42 -17 171 -1 395 51 180 42 487 101 658 127 168 26 310 0
531 -98 111 -49 129 -54 158 -43 79 30 -128 194 -334 264 -93 32 -304 36 -495
10z"/>
<path d="M3115 5481 c-25 -11 -118 -110 -166 -177 -36 -51 -36 -51 5 -37 48
17 225 124 250 152 10 11 16 30 14 43 -2 19 -9 23 -43 25 -22 1 -49 -2 -60 -6z"/>
<path d="M4400 5463 c-74 -8 -269 -45 -365 -69 -280 -71 -509 -192 -835 -441
-141 -109 -158 -133 -243 -350 -24 -62 -24 -62 7 -46 17 9 78 57 136 108 233
204 424 339 594 421 127 61 250 98 492 148 321 67 460 129 440 194 -12 38 -90
50 -226 35z"/>
<path d="M5966 5450 c-15 -5 -45 -21 -66 -35 -31 -22 -54 -27 -149 -35 -129
-12 -244 -35 -387 -79 -147 -45 -218 -54 -362 -47 -70 3 -146 9 -170 12 -55 8
-99 -7 -303 -101 -185 -86 -239 -101 -394 -110 -331 -19 -504 -104 -881 -438
-151 -133 -166 -159 -213 -351 -16 -62 -32 -120 -37 -127 -4 -8 15 6 44 29 29
24 52 47 52 51 0 8 150 156 395 392 128 123 164 151 240 191 151 78 316 115
359 79 39 -33 13 -52 -136 -102 -165 -55 -293 -131 -324 -191 -15 -30 -15 -32
2 -45 24 -18 35 -15 210 58 291 121 486 150 672 101 151 -41 251 -83 364 -155
130 -81 177 -104 418 -199 212 -84 381 -170 475 -240 39 -29 127 -109 198
-179 125 -125 149 -161 112 -175 -28 -11 -77 19 -227 138 -154 122 -240 177
-353 228 -70 31 -424 148 -613 201 -108 31 -116 35 -164 85 -76 79 -129 99
-258 99 -116 -1 -135 -7 -254 -88 -33 -22 -156 -87 -275 -144 -276 -134 -385
-205 -527 -348 -134 -133 -142 -153 -169 -393 -6 -53 -6 -53 28 -15 18 21 55
70 82 108 100 141 268 296 428 394 154 94 487 249 617 288 99 29 282 44 295
24 14 -24 -5 -61 -43 -80 -20 -10 -108 -42 -195 -70 -454 -148 -764 -336 -978
-594 -62 -74 -79 -130 -84 -282 -2 -66 -1 -109 2 -95 12 58 137 226 252 341
205 204 448 339 815 453 278 87 414 95 646 37 71 -18 151 -31 185 -31 116 0
247 -56 415 -180 52 -38 151 -109 219 -157 69 -48 154 -115 189 -148 76 -71
199 -231 272 -355 29 -49 66 -101 82 -117 30 -28 30 -28 26 137 -2 130 -7 171
-20 195 -9 17 -70 103 -136 192 -91 123 -126 179 -142 227 -24 72 -72 142
-209 305 -139 166 -237 224 -719 431 -203 87 -272 127 -272 159 0 27 14 34 69
33 97 -3 260 -67 736 -292 158 -75 198 -89 276 -100 159 -23 303 -112 499
-310 74 -75 155 -163 180 -197 48 -65 117 -121 106 -86 -3 10 -10 52 -16 93
-11 88 -34 179 -55 220 -19 36 -143 148 -248 224 -116 82 -243 143 -462 221
-248 88 -396 150 -580 242 -273 137 -340 153 -542 129 -185 -22 -386 -2 -426
42 -15 16 -15 20 -1 40 41 59 196 86 494 86 264 1 251 5 409 -113 156 -116
252 -160 639 -292 239 -82 351 -127 442 -177 104 -57 239 -154 325 -234 44
-41 94 -82 111 -91 31 -16 31 -16 2 91 -16 59 -42 134 -58 167 -25 53 -38 67
-107 111 -159 105 -257 145 -632 259 -361 109 -523 166 -566 199 -34 26 -44
49 -26 60 15 10 158 -21 383 -84 118 -32 307 -82 420 -109 296 -73 395 -112
545 -214 63 -43 143 -84 143 -74 0 1 -15 45 -34 97 -39 111 -86 208 -112 232
-47 42 -185 72 -424 93 -128 12 -289 42 -495 94 -250 64 -327 72 -425 42 -74
-23 -119 -22 -140 4 -18 22 4 50 59 74 128 55 272 54 471 -4 281 -81 369 -93
610 -82 69 3 133 6 142 6 9 1 24 8 32 17 50 49 -17 114 -225 217 -88 44 -188
86 -234 98 -89 23 -273 34 -319 19z m69 -95 c160 -16 392 -81 432 -122 36 -35
21 -46 -56 -40 -80 6 -396 79 -446 103 -62 29 -69 81 -10 69 11 -2 47 -6 80
-10z"/>
<path d="M4065 4575 c-27 -7 -97 -32 -155 -55 -127 -49 -204 -70 -261 -70 -24
0 -64 -10 -89 -21 -65 -29 -182 -120 -281 -219 -82 -81 -88 -89 -112 -165 -13
-44 -30 -110 -36 -148 -6 -37 -16 -80 -22 -95 -8 -22 0 -16 43 28 29 30 82 90
118 133 75 90 184 188 284 255 39 26 160 84 277 133 235 99 303 133 330 167
14 18 16 29 8 43 -5 10 -14 19 -19 19 -4 0 -14 2 -22 4 -7 3 -35 -1 -63 -9z"/>
<path d="M6054 4235 c-12 -31 8 -63 107 -170 96 -105 314 -395 432 -575 31
-47 68 -97 84 -111 28 -26 28 -26 21 95 -8 132 -20 202 -42 245 -22 41 -140
185 -231 280 -169 178 -350 292 -371 236z"/>
<path d="M4755 3914 c-204 -26 -491 -116 -698 -220 -156 -79 -327 -211 -438
-339 -59 -69 -93 -145 -117 -266 -9 -47 -9 -47 19 -30 16 10 83 75 150 144
238 249 438 364 761 437 69 16 159 44 200 62 66 30 81 33 168 33 71 -1 111 -6
160 -23 178 -60 413 -246 672 -529 72 -80 101 -92 118 -47 36 94 -92 262 -380
497 -74 61 -157 130 -185 155 -59 53 -121 85 -201 105 -64 17 -181 27 -229 21z"/>
<path d="M5292 3898 c-30 -30 -3 -64 146 -177 260 -198 367 -311 476 -503 45
-79 78 -122 145 -188 58 -57 97 -106 120 -150 19 -36 46 -79 61 -96 27 -32 27
-32 34 50 9 127 7 204 -8 239 -22 53 -217 306 -297 387 -157 159 -406 349
-544 416 -73 36 -113 42 -133 22z"/>
<path d="M4684 3620 c-66 -26 -23 -75 125 -140 198 -86 328 -176 487 -334 233
-234 306 -385 324 -675 5 -79 11 -145 13 -147 9 -9 110 152 133 213 22 57 25
80 21 138 -6 93 -54 288 -78 319 -10 13 -44 38 -75 56 -32 18 -118 91 -203
173 -80 78 -187 172 -236 210 -185 139 -419 225 -511 187z"/>
<path d="M4300 3455 c-144 -35 -305 -123 -454 -246 -107 -88 -133 -118 -145
-168 -17 -68 -22 -121 -11 -121 21 0 75 33 141 86 94 75 240 169 342 220 148
75 260 90 399 55 254 -65 508 -271 626 -506 65 -130 77 -192 77 -390 0 -180 0
-180 43 -125 132 169 151 217 133 328 -40 242 -224 495 -489 674 -78 53 -299
163 -385 192 -58 20 -199 20 -277 1z"/>
<path d="M4323 3158 c-40 -13 -87 -62 -80 -82 4 -9 26 -17 64 -20 210 -22 337
-73 453 -182 168 -159 226 -328 203 -594 -8 -95 -8 -95 60 -25 37 38 79 93 93
122 23 46 25 60 19 115 -32 274 -228 523 -501 638 -68 29 -92 34 -179 36 -55
2 -114 -2 -132 -8z"/>
<path d="M4104 3006 c-34 -12 -83 -35 -110 -51 -127 -73 -140 -97 -129 -241 7
-94 7 -94 43 -67 21 15 57 46 82 69 92 87 216 120 344 90 140 -33 250 -117
304 -234 25 -52 27 -68 27 -172 -1 -63 -4 -130 -8 -148 -7 -34 -7 -34 55 20
119 103 138 155 102 279 -55 188 -187 312 -407 384 -62 21 -131 50 -154 66
-49 35 -69 35 -149 5z"/>
<path d="M5920 2924 c-6 -14 -10 -41 -10 -60 0 -57 47 -246 72 -295 24 -44 24
-44 51 71 15 63 28 132 27 153 -1 105 -111 208 -140 131z"/>
<path d="M4250 2670 c-41 -10 -70 -42 -70 -79 1 -58 58 -141 97 -141 6 0 13
12 15 28 4 38 45 42 78 7 19 -21 23 -35 22 -81 -1 -31 -7 -62 -13 -70 -19 -23
4 -16 56 19 115 75 125 156 28 249 -59 58 -143 84 -213 68z"/>
</g>
</svg>
