<?xml version="1.0" standalone="no"?>
<!DOCTYPE svg PUBLIC "-//W3C//DTD SVG 20010904//EN"
 "http://www.w3.org/TR/2001/REC-SVG-20010904/DTD/svg10.dtd">
<svg version="1.0" xmlns="http://www.w3.org/2000/svg"
 width="1000.000000pt" height="1000.000000pt" viewBox="0 0 1000.000000 1000.000000"
 preserveAspectRatio="xMidYMid meet">
<metadata>
  <rdf:RDF
    xmlns:rdf = "http://www.w3.org/1999/02/22-rdf-syntax-ns#"
    xmlns:rdfs = "http://www.w3.org/2000/01/rdf-schema#"
    xmlns:dc = "http://purl.org/dc/elements/1.1/"
    xmlns:cc = "http://creativecommons.org/ns#">
    <cc:license rdf:resource="http://creativecommons.org/publicdomain/zero/1.0/deed.en"/>
    <cc:permits rdf:resource="http://creativecommons.org/ns#Reproduction"/>
    <rdf:Description about="https://nft.mir.one/fingerprints"
      dc:title="TON Fingerprints"
      dc:description="This is a unique digital fingerprint created based on the algorithm for generating basic rings using a noise texture. Like human fingerprints, you can now use it for the Web3 and Metaverse era as digital biometric information."
      dc:publisher="https://nft.mir.one"
      dc:date="2022-02-22"
      dc:format="image/svg+xml"
      dc:language="en" >
      <dc:creator>
      <rdf:Bag>
        <rdf:li>EQBondcvD2_aOFADXSWJHs4ZazQDuEl9_wNvGGPxI8hGuOFU</rdf:li>
        <rdf:li>ipfs://bafkreihj7iub3fhmhq6jn62noukt5wxn3gv6bvcg7wmt6ywvlurefezckq</rdf:li>
      </rdf:Bag>
      </dc:creator>
    </rdf:Description>
  </rdf:RDF>
</metadata>
<rect width="100%" height="100%" fill="#1b1f23"/>
<g transform="translate(0.000000,1000.000000) scale(0.100000,-0.100000)"
fill="#ffffff" stroke="none">
<path d="M4645 7660 c-102 -9 -305 -42 -435 -72 -55 -12 -55 -12 -5 -20 28 -5
196 -13 375 -18 471 -12 959 -45 1210 -80 66 -10 262 -12 225 -3 -11 3 -102
31 -201 64 -189 61 -372 100 -558 118 -156 16 -483 21 -611 11z"/>
<path d="M4235 7394 c-113 -20 -241 -58 -369 -110 -61 -24 -116 -44 -123 -44
-30 0 -9 -17 35 -29 38 -9 90 -9 248 0 283 17 745 15 1009 -5 510 -39 952 -98
1243 -166 46 -11 106 -20 134 -20 51 0 51 0 -58 66 -195 118 -352 188 -494
218 -161 34 -646 77 -1090 96 -305 13 -437 11 -535 -6z"/>
<path d="M4360 7074 c-25 -2 -157 -13 -295 -25 -180 -15 -263 -26 -300 -40
-29 -11 -114 -60 -190 -110 -77 -50 -155 -97 -174 -104 -36 -12 -36 -12 34
-19 51 -5 125 0 270 18 110 14 232 28 270 31 39 4 140 21 225 38 141 28 172
31 340 31 120 -1 251 -8 375 -22 105 -12 282 -31 395 -42 449 -45 828 -118
1250 -240 58 -16 123 -30 145 -30 40 1 40 1 11 23 -17 12 -57 46 -90 75 -72
63 -235 174 -289 196 -95 39 -521 116 -862 155 -405 47 -954 79 -1115 65z"/>
<path d="M4343 6750 c-81 -16 -115 -58 -75 -92 25 -22 67 -34 254 -68 226 -41
322 -70 462 -140 65 -33 129 -60 142 -60 14 0 49 14 79 31 125 70 347 42 950
-121 214 -59 240 -63 375 -70 113 -6 163 -13 225 -33 44 -13 96 -27 115 -31
34 -5 31 -2 -66 92 -150 144 -159 148 -509 232 -507 121 -677 150 -1013 174
-108 8 -265 26 -348 40 -299 51 -490 66 -591 46z"/>
<path d="M3789 6626 c-3 -4 -98 -10 -210 -15 -197 -7 -206 -9 -262 -37 -72
-35 -57 -46 55 -37 67 5 79 3 84 -11 9 -23 -15 -46 -111 -114 -44 -30 -110
-81 -147 -111 -67 -56 -67 -56 -27 -59 44 -4 152 27 330 93 157 59 249 77 394
77 150 0 246 -21 429 -96 164 -68 269 -89 416 -84 117 3 150 17 150 63 0 51
-59 79 -275 130 -240 57 -292 77 -442 170 -48 30 -50 30 -213 33 -91 2 -168 1
-171 -2z"/>
<path d="M5182 6324 c-22 -39 27 -105 113 -154 124 -70 647 -260 795 -288 123
-24 162 -39 250 -97 96 -63 142 -109 214 -214 82 -119 497 -571 525 -571 10 0
-89 223 -135 305 -15 28 -88 111 -161 186 -139 143 -160 179 -105 179 35 0
117 -54 233 -155 51 -44 109 -92 130 -107 38 -27 38 -27 5 30 -18 31 -45 77
-59 103 -47 84 -118 169 -163 195 -25 15 -85 41 -134 59 -100 38 -163 76 -265
159 -126 104 -177 126 -543 232 -311 90 -533 144 -618 151 -63 5 -73 3 -82
-13z"/>
<path d="M3815 6254 c-87 -10 -210 -36 -366 -80 -190 -53 -222 -71 -349 -196
-86 -84 -86 -84 -44 -82 23 1 108 23 190 47 352 106 473 127 759 136 199 5
235 9 259 24 65 43 5 104 -131 132 -72 15 -252 26 -318 19z"/>
<path d="M6526 6104 c-24 -24 -19 -43 19 -79 32 -31 331 -191 422 -226 42 -17
42 -17 -20 63 -34 44 -92 109 -129 144 -58 55 -78 66 -148 88 -94 30 -123 32
-144 10z"/>
<path d="M4770 6063 c-279 -20 -316 -25 -375 -49 -176 -75 -170 -74 -373 -74
-239 0 -377 -24 -712 -122 -165 -48 -187 -64 -313 -225 -57 -72 -57 -72 -19
-66 20 3 82 22 137 43 155 59 280 97 535 162 257 65 386 82 408 55 19 -22 -1
-50 -58 -81 -58 -31 -274 -102 -505 -165 -188 -52 -304 -90 -367 -122 -39 -20
-94 -87 -148 -179 -18 -30 -41 -69 -51 -86 -19 -32 -19 -32 13 -20 18 6 71 34
118 63 141 85 241 121 413 148 199 31 457 131 672 260 151 91 348 181 460 211
103 28 359 26 467 -4 227 -62 399 -170 445 -279 25 -62 15 -143 -18 -143 -5 0
-36 24 -68 54 -75 69 -125 101 -224 143 -156 66 -350 98 -493 82 -123 -14
-190 -64 -148 -111 30 -33 45 -37 216 -63 215 -33 298 -54 462 -114 76 -28
167 -55 204 -61 66 -10 68 -11 137 -83 39 -41 102 -95 140 -120 39 -25 124
-100 190 -167 106 -106 124 -120 153 -120 51 0 96 -26 156 -91 69 -74 116
-152 171 -283 88 -210 119 -350 86 -390 -32 -38 -59 -8 -152 167 -54 105 -63
128 -70 197 -9 89 -35 149 -111 252 -61 83 -102 115 -123 98 -35 -29 -4 -110
104 -277 55 -86 60 -113 18 -113 -55 0 -151 115 -252 300 -66 122 -133 215
-205 285 -50 49 -52 50 -113 50 -61 0 -62 0 -83 38 -33 60 -74 96 -149 132
-137 64 -273 100 -535 140 -193 30 -247 46 -317 98 -110 80 -197 71 -388 -42
-38 -23 -135 -69 -215 -102 -219 -92 -274 -124 -328 -188 -70 -82 -92 -100
-279 -231 -95 -67 -184 -135 -199 -153 -25 -29 -139 -256 -132 -262 7 -7 82
36 126 73 112 94 554 392 687 463 39 21 120 55 180 75 109 37 111 37 290 39
99 1 216 7 260 13 44 7 177 13 295 14 248 3 307 -8 498 -86 59 -24 132 -51
164 -60 52 -15 58 -20 88 -74 109 -194 309 -453 494 -638 202 -202 370 -383
395 -425 51 -87 113 -313 130 -466 8 -73 12 -86 39 -111 30 -28 30 -28 58 118
31 156 31 178 21 650 -4 230 -8 245 -93 413 -108 215 -221 358 -413 525 -259
225 -400 376 -447 477 -39 83 -28 116 34 100 30 -7 580 -548 712 -701 100
-116 216 -277 311 -434 87 -143 134 -200 188 -227 38 -19 38 -19 26 11 -7 17
-18 63 -24 102 -12 80 -54 232 -75 272 -8 15 -73 97 -144 182 -127 152 -237
271 -577 628 -93 98 -194 204 -223 235 -57 62 -99 91 -177 124 -27 12 -138 64
-245 116 -218 106 -370 169 -456 192 -54 14 -177 17 -304 8z m-356 -744 c29
-26 -42 -70 -114 -71 -54 0 -70 6 -70 27 0 44 146 79 184 44z"/>
<path d="M6088 5739 c-24 -14 -22 -50 4 -85 12 -16 103 -112 202 -214 159
-162 543 -573 664 -710 23 -26 59 -57 80 -68 39 -20 39 -20 1 80 -64 167 -100
222 -270 405 -85 92 -210 230 -278 305 -199 225 -340 325 -403 287z"/>
<path d="M3319 5186 c-96 -34 -216 -105 -258 -152 -29 -33 -156 -254 -146
-254 15 0 79 35 117 64 26 20 116 81 200 136 84 54 170 111 190 125 46 32 60
72 33 92 -26 19 -60 16 -136 -11z"/>
<path d="M4883 4995 c-52 -37 -18 -67 169 -143 164 -66 261 -118 297 -156 21
-22 22 -28 10 -42 -21 -25 -92 -12 -227 42 -157 63 -257 114 -321 164 -74 59
-108 70 -248 83 -129 12 -368 0 -483 -23 -96 -20 -237 -70 -334 -120 -139 -70
-364 -209 -499 -306 -127 -92 -148 -119 -202 -269 -12 -33 -26 -68 -30 -79 -8
-17 -7 -17 26 -1 18 10 78 52 134 95 276 212 598 389 820 451 217 60 469 69
653 23 37 -9 184 -61 327 -116 143 -54 290 -110 327 -124 150 -57 320 -203
508 -440 221 -277 429 -686 464 -916 31 -194 34 -214 48 -249 13 -36 13 -36
62 120 27 86 60 179 73 207 30 66 29 80 -4 96 -29 14 -28 11 -88 213 -54 180
-132 318 -292 508 -93 112 -309 350 -475 524 -87 91 -113 126 -142 189 -22 46
-52 93 -76 115 -110 105 -430 204 -497 154z"/>
<path d="M4140 4561 c-253 -49 -559 -193 -849 -399 -96 -68 -121 -102 -161
-222 -12 -35 -26 -72 -31 -82 -9 -16 -7 -16 28 -1 21 8 54 28 73 43 82 64 375
242 514 312 233 117 410 166 631 175 164 7 273 -5 434 -48 278 -73 492 -187
630 -335 94 -100 133 -203 101 -265 -17 -31 -36 -22 -70 33 -124 202 -397 363
-742 440 -137 30 -389 32 -518 4 -214 -46 -402 -125 -614 -260 -65 -41 -148
-87 -185 -102 -102 -43 -130 -76 -170 -204 -19 -59 -19 -59 2 -49 11 6 38 28
61 48 65 59 97 81 117 81 25 0 25 -39 0 -88 -10 -20 -24 -62 -31 -93 -12 -53
-11 -79 6 -262 7 -77 2 -86 63 108 30 93 135 286 190 347 137 152 480 293 766
314 223 16 531 -60 740 -184 39 -22 105 -70 147 -105 84 -71 129 -91 181 -82
30 6 37 3 67 -31 49 -56 146 -208 185 -288 19 -39 50 -115 69 -168 19 -53 53
-128 76 -165 52 -86 64 -129 63 -228 -1 -69 -8 -103 -52 -234 -29 -85 -50
-155 -48 -157 2 -2 49 54 105 124 64 80 120 162 149 221 46 90 48 96 47 175
-4 204 -206 668 -447 1025 -102 152 -277 311 -423 384 -132 67 -393 162 -559
203 -138 35 -403 42 -545 15z"/>
<path d="M6826 4085 c-30 -30 -13 -202 25 -256 11 -15 22 -36 26 -47 9 -22 6
212 -3 264 -6 44 -27 60 -48 39z"/>
<path d="M4298 3895 c-74 -17 -206 -61 -372 -126 -172 -66 -258 -145 -344
-318 -47 -94 -47 -94 -47 -220 0 -69 6 -160 14 -201 14 -75 14 -75 31 -15 10
33 27 101 39 150 26 108 102 267 165 347 48 60 126 114 151 104 27 -10 16 -44
-49 -138 -110 -162 -176 -317 -176 -412 1 -53 9 -81 79 -256 23 -58 45 -120
49 -138 7 -31 9 -26 34 63 24 86 38 113 132 253 202 303 254 347 584 497 43
20 79 47 116 86 78 85 140 95 338 54 135 -29 195 -15 170 40 -25 55 -165 120
-410 192 -148 43 -165 46 -297 49 -99 3 -159 -1 -207 -11z m346 -169 c45 -29
34 -53 -31 -71 -258 -72 -323 -104 -439 -220 -100 -98 -180 -213 -263 -373
-28 -56 -56 -104 -62 -107 -16 -11 -39 15 -39 45 0 40 37 155 72 225 35 68
200 328 232 364 56 63 185 125 311 150 73 14 188 8 219 -13z"/>
<path d="M4838 3510 c-71 -13 -101 -65 -55 -94 12 -8 64 -26 115 -41 311 -89
416 -191 463 -450 22 -124 40 -156 79 -135 30 16 69 104 88 202 13 66 14 92 4
146 -22 131 -111 261 -212 309 -30 15 -105 30 -228 47 -194 28 -196 28 -254
16z"/>
<path d="M4525 3292 c-147 -44 -290 -156 -390 -307 -109 -163 -123 -223 -82
-338 22 -60 108 -197 145 -231 16 -14 16 -7 -5 72 -41 160 -24 287 56 408 115
176 302 257 484 209 166 -43 288 -162 339 -328 37 -122 11 -256 -69 -361 -44
-57 -159 -156 -218 -186 -55 -28 -22 -26 95 5 113 31 178 59 258 114 86 58
125 109 156 201 40 121 38 135 -55 327 -71 147 -89 175 -143 228 -69 68 -165
122 -294 166 -111 38 -197 45 -277 21z"/>
<path d="M5682 2955 c-11 -14 -35 -60 -52 -103 -31 -74 -167 -345 -270 -540
-27 -51 -44 -90 -37 -86 18 11 135 103 195 154 79 66 170 177 203 245 37 78
63 192 57 261 -7 87 -55 121 -96 69z"/>
<path d="M4517 2956 c-117 -42 -201 -152 -214 -280 -7 -70 9 -115 63 -175 61
-68 136 -103 236 -109 143 -8 229 31 282 128 86 158 10 366 -157 429 -66 24
-153 27 -210 7z m149 -185 c45 -27 69 -94 55 -149 -22 -80 -104 -131 -184
-113 -56 13 -94 52 -81 85 4 11 16 14 52 9 39 -4 50 -2 65 15 27 29 18 57 -17
57 -27 1 -56 26 -56 51 0 6 12 23 26 38 33 32 94 35 140 7z"/>
</g>
</svg>
