<?xml version="1.0" standalone="no"?>
<!DOCTYPE svg PUBLIC "-//W3C//DTD SVG 20010904//EN"
 "http://www.w3.org/TR/2001/REC-SVG-20010904/DTD/svg10.dtd">
<svg version="1.0" xmlns="http://www.w3.org/2000/svg"
 width="1000.000000pt" height="1000.000000pt" viewBox="0 0 1000.000000 1000.000000"
 preserveAspectRatio="xMidYMid meet">
<metadata>
  <rdf:RDF
    xmlns:rdf = "http://www.w3.org/1999/02/22-rdf-syntax-ns#"
    xmlns:rdfs = "http://www.w3.org/2000/01/rdf-schema#"
    xmlns:dc = "http://purl.org/dc/elements/1.1/"
    xmlns:cc = "http://creativecommons.org/ns#">
    <cc:license rdf:resource="http://creativecommons.org/publicdomain/zero/1.0/deed.en"/>
    <cc:permits rdf:resource="http://creativecommons.org/ns#Reproduction"/>
    <rdf:Description about="https://nft.mir.one/fingerprints"
      dc:title="TON Fingerprints"
      dc:description="This is a unique digital fingerprint created based on the algorithm for generating basic rings using a noise texture. Like human fingerprints, you can now use it for the Web3 and Metaverse era as digital biometric information."
      dc:publisher="https://nft.mir.one"
      dc:date="2022-02-22"
      dc:format="image/svg+xml"
      dc:language="en" >
      <dc:creator>
      <rdf:Bag>
        <rdf:li>EQBondcvD2_aOFADXSWJHs4ZazQDuEl9_wNvGGPxI8hGuOFU</rdf:li>
        <rdf:li>ipfs://bafkreihj7iub3fhmhq6jn62noukt5wxn3gv6bvcg7wmt6ywvlurefezckq</rdf:li>
      </rdf:Bag>
      </dc:creator>
    </rdf:Description>
  </rdf:RDF>
</metadata>
<rect width="100%" height="100%" fill="#1b1f23"/>
<g transform="translate(0.000000,1000.000000) scale(0.100000,-0.100000)"
fill="#ffffff" stroke="none">
<path d="M5040 7795 c22 -26 122 -67 238 -96 97 -25 436 -80 475 -78 37 2
-329 96 -523 134 -74 15 -150 33 -169 41 -29 12 -32 12 -21 -1z"/>
<path d="M4610 7710 c0 -6 7 -24 14 -39 66 -127 469 -277 1061 -396 149 -30
337 -70 418 -90 81 -19 171 -35 199 -35 52 0 52 0 -33 45 -326 175 -458 225
-859 325 -91 23 -246 63 -345 90 -99 27 -234 59 -300 71 -66 11 -128 25 -137
30 -12 7 -18 6 -18 -1z"/>
<path d="M4335 7594 c-87 -33 -132 -45 -185 -47 -55 -2 -55 -2 -20 -38 19 -19
80 -64 135 -99 119 -75 145 -97 145 -122 0 -24 -19 -27 -185 -31 -138 -3 -141
-4 -242 -45 -141 -57 -270 -120 -383 -186 -94 -56 -94 -56 -50 -56 25 0 128
18 229 41 102 22 277 56 390 75 113 19 231 42 261 51 110 34 248 19 514 -53
271 -74 479 -154 537 -206 43 -37 158 -196 165 -226 3 -15 8 -35 11 -44 7 -27
68 -58 303 -156 343 -142 313 -122 570 -382 170 -172 247 -242 317 -289 79
-53 173 -100 173 -86 0 9 -127 174 -200 260 -42 50 -79 98 -83 107 -14 38 38
45 103 13 14 -7 41 -15 60 -19 35 -6 35 -6 -8 37 -54 55 -131 101 -240 145
-109 43 -144 67 -140 96 5 35 67 50 163 38 44 -6 98 -7 120 -2 22 4 35 8 28 9
-7 0 -36 20 -65 44 -116 94 -220 146 -294 147 -180 1 -619 161 -787 285 -57
43 -67 63 -41 82 31 24 112 9 331 -61 320 -102 538 -150 633 -139 51 6 51 6
13 28 -21 12 -83 52 -138 89 -148 99 -258 149 -420 189 -185 47 -265 63 -415
81 -69 9 -170 27 -225 40 -152 37 -516 149 -686 212 -84 30 -196 64 -248 75
-98 20 -141 39 -141 63 0 25 25 35 95 38 54 2 70 7 73 19 7 37 -99 51 -173 23z"/>
<path d="M3915 7359 c-80 -29 -80 -29 -8 -26 53 2 77 7 92 21 24 21 27 36 9
35 -7 0 -49 -14 -93 -30z"/>
<path d="M4383 6969 c-152 -11 -389 -46 -565 -84 -123 -26 -173 -42 -229 -72
-95 -51 -179 -120 -206 -170 -13 -22 -57 -77 -98 -122 -41 -44 -75 -84 -75
-86 0 -10 94 48 156 95 130 101 197 131 398 181 159 38 361 67 527 75 231 11
421 -21 754 -127 349 -111 380 -120 435 -126 60 -6 130 15 130 40 0 33 -145
133 -294 202 -101 47 -289 111 -441 148 -179 45 -316 58 -492 46z"/>
<path d="M4057 6635 c-287 -35 -533 -115 -674 -219 -65 -47 -94 -89 -75 -108
13 -13 58 -1 286 71 235 75 456 111 681 111 209 0 289 -22 444 -120 100 -62
203 -97 521 -176 325 -80 465 -124 609 -189 118 -53 200 -99 1032 -581 139
-80 204 -111 192 -91 -45 73 -149 220 -176 248 -18 20 -83 69 -143 109 -60 40
-194 139 -299 220 -231 179 -286 215 -440 290 -148 72 -296 122 -440 150 -227
43 -388 85 -655 172 -177 57 -315 96 -388 109 -132 22 -310 24 -475 4z"/>
<path d="M4035 6355 c-107 -14 -275 -47 -500 -99 -62 -15 -141 -26 -181 -26
-61 0 -76 -4 -117 -30 -26 -16 -66 -47 -89 -68 -24 -21 -54 -46 -68 -55 -24
-17 -24 -17 20 -17 25 0 63 5 85 10 22 5 96 16 165 24 69 9 195 30 280 46 320
61 484 82 778 99 160 10 207 23 200 59 -2 9 -25 28 -53 42 -47 23 -60 25 -230
27 -108 1 -224 -4 -290 -12z"/>
<path d="M4520 6144 c-52 -7 -199 -25 -326 -39 -239 -26 -937 -137 -988 -157
-16 -7 -63 -36 -105 -66 -41 -30 -81 -57 -88 -59 -22 -9 -14 -19 22 -31 42
-12 102 -5 316 38 239 48 495 87 839 130 316 40 505 71 541 90 36 20 50 40 39
61 -27 49 -84 57 -250 33z"/>
<path d="M4875 6023 c-11 -3 -41 -21 -66 -39 -98 -72 -185 -92 -646 -149 -461
-58 -698 -98 -842 -142 -64 -19 -131 -40 -150 -45 -43 -12 -128 -92 -187 -175
-25 -35 -50 -63 -57 -64 -12 -1 49 -19 68 -21 6 0 51 3 100 7 81 7 100 5 190
-21 90 -26 114 -28 245 -27 80 0 235 8 345 17 800 64 1165 62 1460 -9 106 -25
382 -118 397 -133 15 -15 -2 -39 -35 -54 -47 -19 -155 -14 -299 16 -404 83
-747 93 -1518 46 -179 -11 -430 -20 -559 -20 -235 0 -235 0 -282 -49 -26 -27
-59 -71 -75 -97 -15 -27 -36 -59 -46 -70 -19 -22 -19 -22 19 -26 21 -3 88 5
150 18 146 29 260 40 658 64 637 38 1192 21 1604 -51 363 -63 454 -94 661
-233 193 -128 554 -424 759 -621 131 -126 190 -172 178 -141 -4 9 -13 43 -22
75 -14 57 -32 104 -62 168 -8 17 -122 135 -253 261 -292 283 -627 564 -797
671 -51 32 -53 35 -53 78 0 56 -18 91 -74 140 -61 54 -143 96 -267 137 -170
57 -266 71 -494 70 -201 -1 -422 -18 -1178 -95 -164 -16 -328 -29 -365 -27
-59 3 -67 5 -70 24 -9 64 142 95 848 174 201 23 453 55 560 71 173 28 211 30
340 26 160 -6 244 -22 396 -72 266 -88 447 -220 619 -450 86 -115 219 -250
391 -398 65 -56 126 -120 168 -176 84 -113 355 -371 390 -371 4 0 -22 68 -71
190 -23 55 -42 80 -126 162 -112 109 -121 134 -50 131 50 -2 77 -16 163 -79
36 -27 81 -56 100 -65 36 -16 36 -16 -19 95 -43 87 -68 124 -118 173 -34 34
-71 80 -83 102 -11 22 -40 63 -65 91 -71 80 -77 100 -28 100 39 0 93 -33 191
-119 82 -72 181 -137 171 -114 -2 4 -29 55 -59 113 -70 133 -130 195 -225 236
-38 16 -137 62 -220 103 -82 40 -208 96 -280 123 -80 30 -191 84 -288 139
-296 170 -485 244 -756 299 -144 29 -341 46 -386 33z m1509 -688 c99 -55 169
-118 219 -192 25 -39 71 -93 103 -121 61 -54 65 -76 19 -88 -43 -11 -109 23
-197 100 -131 116 -276 269 -284 300 -14 57 41 58 140 1z"/>
<path d="M3850 4909 c-464 -30 -723 -70 -778 -122 -24 -22 -102 -169 -102
-192 0 -7 -11 -28 -24 -47 -24 -36 -24 -36 3 -22 14 8 32 14 39 14 7 0 43 15
80 34 168 84 348 118 752 141 58 3 195 13 305 21 211 17 282 15 321 -11 58
-38 17 -68 -162 -120 -155 -45 -245 -56 -549 -65 -307 -10 -380 -19 -517 -66
-93 -33 -113 -52 -176 -171 -48 -90 -48 -90 2 -70 238 92 346 117 500 117 111
0 177 -15 258 -57 78 -41 234 -50 343 -21 66 17 108 43 202 125 49 43 125 109
169 147 43 38 98 77 121 87 110 50 435 62 633 24 303 -59 498 -152 814 -391
85 -65 126 -89 176 -104 115 -34 180 -82 388 -283 106 -104 196 -187 198 -184
7 7 -43 191 -66 246 -21 49 -112 140 -250 252 -81 65 -524 380 -605 429 -278
171 -599 251 -1055 265 -107 4 -257 13 -334 21 -148 15 -476 17 -686 3z"/>
<path d="M4850 4505 c-126 -25 -268 -95 -346 -169 -57 -55 -60 -97 -7 -125 46
-24 98 -13 206 43 146 77 197 90 342 90 398 -1 797 -255 994 -633 55 -105 64
-174 32 -246 -21 -47 -21 -47 4 -199 32 -193 91 -444 119 -508 22 -50 22 -50
41 66 14 90 16 139 10 214 -10 133 -9 163 9 181 23 23 36 4 82 -114 21 -55 49
-116 62 -135 23 -35 23 -35 20 87 -3 138 -11 155 -88 207 -61 42 -93 135 -56
165 24 20 63 -8 171 -121 55 -57 109 -111 120 -120 21 -17 21 -17 8 64 -25
161 -38 181 -190 302 -98 78 -174 185 -308 431 -126 231 -505 464 -845 520
-113 18 -290 18 -380 0z"/>
<path d="M3455 4213 c-16 -2 -84 -15 -149 -28 -110 -23 -123 -28 -159 -62 -21
-21 -52 -57 -68 -80 -29 -42 -29 -42 6 -49 19 -3 65 -1 102 6 38 7 155 27 261
45 225 38 285 61 290 112 5 46 -40 63 -160 62 -51 -1 -106 -4 -123 -6z"/>
<path d="M4877 4206 c-26 -7 -56 -21 -67 -31 -22 -20 -26 -50 -9 -61 6 -4 75
-13 152 -21 170 -17 286 -52 417 -127 158 -91 253 -175 462 -407 75 -84 123
-117 153 -105 39 14 4 116 -85 245 -178 261 -448 446 -733 505 -90 19 -223 20
-290 2z"/>
<path d="M4717 4042 c-34 -37 -27 -53 90 -209 55 -73 124 -149 201 -220 215
-197 375 -364 441 -461 106 -157 210 -399 266 -618 8 -34 23 -81 34 -104 19
-42 19 -42 41 32 13 40 25 109 27 153 4 74 1 89 -37 200 -55 158 -135 318
-218 435 -87 123 -264 301 -427 430 -157 123 -215 178 -215 202 0 43 101 5
255 -98 121 -80 231 -172 331 -276 221 -232 326 -424 420 -767 32 -120 63
-205 71 -198 8 8 32 117 43 193 11 78 11 86 -19 197 -45 168 -95 302 -136 364
-47 70 -221 267 -326 369 -200 193 -398 301 -601 327 -73 10 -117 22 -153 40
-59 32 -67 33 -88 9z"/>
<path d="M6217 4053 c-4 -3 -7 -20 -7 -38 0 -61 105 -195 338 -432 88 -90 164
-163 169 -163 12 0 -2 80 -33 187 -24 82 -24 82 -160 223 -183 189 -275 256
-307 223z"/>
<path d="M4334 4026 c-57 -25 -59 -81 -5 -214 21 -54 47 -135 56 -182 22 -110
43 -161 117 -289 124 -215 148 -259 206 -391 120 -271 172 -459 188 -684 6
-86 6 -88 22 -63 10 13 36 48 59 76 22 28 49 70 58 94 16 43 16 47 -9 145 -25
99 -43 149 -180 509 -79 209 -86 222 -199 397 -95 146 -123 205 -114 230 24
63 149 -55 345 -323 62 -85 62 -85 62 -157 0 -81 12 -123 75 -264 62 -139 109
-268 161 -446 25 -87 58 -180 73 -206 27 -47 27 -47 54 35 41 130 42 145 13
240 -60 195 -171 436 -270 584 -51 75 -58 103 -26 103 123 0 320 -332 438
-740 22 -74 46 -150 54 -169 15 -33 15 -33 42 48 41 127 42 171 11 271 -65
202 -172 411 -280 547 -31 39 -107 116 -169 171 -63 55 -232 224 -377 376
-212 222 -273 279 -311 296 -55 23 -54 23 -94 6z"/>
<path d="M3477 3905 c-98 -13 -186 -27 -197 -30 -25 -8 -82 -79 -100 -123 -7
-18 -22 -39 -33 -47 -19 -13 -12 -14 68 -11 50 2 137 9 195 16 158 19 337 9
428 -23 126 -44 172 -97 117 -133 -21 -14 -42 -15 -128 -10 -56 3 -172 9 -257
12 -184 7 -187 6 -243 -105 -34 -70 -34 -70 17 -75 28 -3 90 -8 138 -11 102
-6 406 -67 478 -95 89 -35 176 -99 273 -199 199 -208 295 -400 378 -754 16
-70 25 -93 30 -79 4 11 23 41 42 66 67 86 70 141 22 296 -60 191 -172 414
-307 608 -233 339 -247 361 -269 434 -45 152 -112 240 -207 272 -65 23 -231
19 -445 -9z"/>
<path d="M3488 3129 c-33 -31 -33 -31 11 -24 24 3 48 8 53 11 14 9 9 31 -8 38
-22 8 -20 9 -56 -25z"/>
<path d="M3711 3046 c-9 -23 -26 -109 -35 -178 -4 -30 -1 -38 11 -38 17 0 131
-25 208 -46 64 -17 163 -80 225 -144 51 -52 124 -158 177 -255 18 -33 33 -52
33 -43 0 9 10 29 23 45 79 98 62 191 -70 368 -143 193 -336 314 -501 315 -57
0 -63 -2 -71 -24z"/>
</g>
</svg>
