<?xml version="1.0" standalone="no"?>
<!DOCTYPE svg PUBLIC "-//W3C//DTD SVG 20010904//EN"
 "http://www.w3.org/TR/2001/REC-SVG-20010904/DTD/svg10.dtd">
<svg version="1.0" xmlns="http://www.w3.org/2000/svg"
 width="1000.000000pt" height="1000.000000pt" viewBox="0 0 1000.000000 1000.000000"
 preserveAspectRatio="xMidYMid meet">
<metadata>
  <rdf:RDF
    xmlns:rdf = "http://www.w3.org/1999/02/22-rdf-syntax-ns#"
    xmlns:rdfs = "http://www.w3.org/2000/01/rdf-schema#"
    xmlns:dc = "http://purl.org/dc/elements/1.1/"
    xmlns:cc = "http://creativecommons.org/ns#">
    <cc:license rdf:resource="http://creativecommons.org/publicdomain/zero/1.0/deed.en"/>
    <cc:permits rdf:resource="http://creativecommons.org/ns#Reproduction"/>
    <rdf:Description about="https://nft.mir.one/fingerprints"
      dc:title="TON Fingerprints"
      dc:description="This is a unique digital fingerprint created based on the algorithm for generating basic rings using a noise texture. Like human fingerprints, you can now use it for the Web3 and Metaverse era as digital biometric information."
      dc:publisher="https://nft.mir.one"
      dc:date="2022-02-22"
      dc:format="image/svg+xml"
      dc:language="en" >
      <dc:creator>
      <rdf:Bag>
        <rdf:li>EQBondcvD2_aOFADXSWJHs4ZazQDuEl9_wNvGGPxI8hGuOFU</rdf:li>
        <rdf:li>ipfs://bafkreihj7iub3fhmhq6jn62noukt5wxn3gv6bvcg7wmt6ywvlurefezckq</rdf:li>
      </rdf:Bag>
      </dc:creator>
    </rdf:Description>
  </rdf:RDF>
</metadata>
<rect width="100%" height="100%" fill="#1b1f23"/>
<g transform="translate(0.000000,1000.000000) scale(0.100000,-0.100000)"
fill="#ffffff" stroke="none">
<path d="M5440 7703 c194 -101 238 -121 334 -143 120 -29 133 -23 31 14 -49
18 -153 61 -230 96 -137 61 -258 110 -273 110 -4 0 58 -35 138 -77z"/>
<path d="M4625 7742 c463 -177 617 -245 785 -347 123 -75 162 -93 330 -160
206 -82 297 -112 445 -146 188 -44 250 -57 253 -54 1 1 -55 38 -125 83 -163
102 -341 195 -513 267 -74 31 -200 86 -280 122 -196 88 -293 125 -462 172
-176 50 -265 68 -388 76 -95 6 -95 6 -45 -13z"/>
<path d="M4350 7555 c-79 -11 -275 -62 -357 -92 -12 -4 74 -8 195 -9 246 0
356 -13 577 -69 169 -43 532 -162 541 -177 4 -6 -3 -20 -16 -30 -37 -30 -109
-22 -367 41 -307 76 -455 101 -624 108 -188 8 -290 -18 -374 -96 -23 -21 -63
-46 -91 -56 -27 -10 -78 -31 -114 -46 -36 -15 -78 -31 -94 -35 -42 -10 -17
-20 104 -38 58 -9 160 -34 228 -56 150 -48 377 -99 619 -139 328 -54 741 -172
984 -281 221 -98 504 -276 889 -557 113 -82 241 -173 285 -203 44 -29 112 -77
151 -105 78 -58 179 -109 152 -78 -8 10 -38 56 -66 103 -78 132 -140 192 -379
367 -598 440 -851 599 -1088 686 -115 42 -229 74 -445 122 -308 70 -368 81
-712 140 -319 54 -398 76 -398 110 0 29 50 37 180 31 206 -9 430 -44 790 -125
74 -16 217 -43 318 -60 103 -17 223 -44 275 -62 139 -47 341 -150 447 -228 52
-38 202 -147 334 -242 131 -94 315 -232 409 -305 94 -73 188 -139 209 -147 38
-15 38 -15 3 26 -19 23 -69 88 -110 145 -125 170 -211 251 -424 401 -192 134
-279 208 -306 260 -35 68 -167 143 -450 254 -240 94 -248 99 -279 151 -37 63
-114 112 -274 174 -337 132 -466 152 -722 117z"/>
<path d="M6160 6945 c-27 -33 7 -62 272 -237 145 -96 281 -185 303 -197 40
-23 40 -23 20 0 -268 317 -532 510 -595 434z"/>
<path d="M3575 6909 c-49 -10 -101 -19 -115 -19 -54 0 49 -50 177 -86 507
-142 640 -187 728 -242 57 -36 242 -189 248 -206 15 -39 -60 -48 -124 -15 -22
11 -64 35 -92 53 -157 100 -333 165 -755 277 -104 27 -157 23 -274 -23 -86
-33 -86 -33 -39 -55 25 -12 114 -38 196 -58 553 -132 855 -246 855 -325 0 -35
-29 -31 -250 32 -228 64 -585 154 -676 169 -84 15 -123 4 -237 -64 -68 -40
-68 -40 -35 -54 18 -8 76 -21 128 -29 139 -21 274 -49 560 -116 309 -72 427
-83 524 -49 40 14 84 21 134 21 42 0 114 7 161 16 100 19 181 15 328 -17 361
-77 704 -257 1121 -587 293 -231 431 -399 432 -522 0 -55 14 -78 142 -247 53
-70 130 -185 170 -256 73 -130 158 -237 144 -183 -3 13 -13 87 -21 163 -18
166 -40 277 -69 358 -29 80 -261 405 -374 526 -232 246 -694 578 -1027 738
-144 70 -257 112 -490 185 -113 36 -225 74 -248 85 -40 20 -217 159 -246 194
-7 9 -10 24 -7 33 10 26 70 11 215 -51 69 -29 224 -88 343 -129 414 -144 595
-233 925 -454 384 -258 673 -511 905 -793 57 -69 102 -114 128 -128 41 -21 41
-21 29 0 -6 12 -29 72 -51 133 -55 155 -119 286 -163 335 -119 132 -755 597
-1058 776 -221 129 -462 230 -805 336 -259 80 -332 96 -487 108 -111 9 -163
20 -365 76 -469 132 -435 126 -585 94z"/>
<path d="M3189 6087 c-30 -18 -75 -49 -101 -69 -48 -37 -48 -37 -15 -46 17 -6
82 -13 142 -16 115 -6 189 -20 694 -131 374 -82 449 -103 577 -164 126 -60
243 -138 460 -307 251 -195 398 -327 695 -624 335 -334 461 -491 568 -707 91
-184 147 -414 200 -828 18 -142 48 -265 50 -205 1 14 12 70 26 125 14 55 32
151 40 213 13 100 13 124 0 215 -9 56 -22 164 -30 240 -22 202 -61 307 -183
493 -79 121 -148 202 -311 367 -233 237 -489 464 -825 731 -105 84 -229 185
-276 226 -113 97 -306 242 -358 269 -56 29 -130 47 -267 66 -122 17 -291 50
-565 110 -204 45 -372 75 -426 75 -28 0 -57 -10 -95 -33z"/>
<path d="M4750 5997 c-34 -17 -37 -53 -8 -84 13 -14 60 -49 104 -78 45 -29 94
-70 110 -91 68 -89 140 -154 304 -277 185 -138 373 -287 505 -401 236 -202
506 -451 572 -526 95 -109 203 -270 290 -435 61 -117 77 -138 163 -221 52 -51
95 -92 96 -91 5 6 -37 364 -47 400 -13 52 -128 240 -219 362 -87 115 -156 180
-304 285 -66 47 -219 168 -340 269 -314 262 -505 402 -793 581 -57 34 -110 71
-118 80 -15 16 -14 19 0 34 22 21 43 20 118 -5 85 -28 224 -105 386 -212 175
-116 281 -197 521 -397 227 -189 288 -231 345 -237 99 -12 70 63 -86 217 -324
321 -812 655 -1094 749 -85 28 -401 91 -455 91 -14 0 -36 -6 -50 -13z"/>
<path d="M3135 5810 c-22 -12 -53 -35 -69 -50 -29 -28 -29 -28 15 -40 129 -32
224 -67 317 -116 127 -66 164 -77 377 -109 230 -34 363 -62 470 -97 209 -68
452 -211 661 -391 135 -116 193 -179 301 -325 46 -62 152 -184 236 -270 157
-163 183 -195 390 -473 133 -180 157 -224 192 -363 26 -104 109 -559 125 -686
13 -107 31 -190 40 -190 4 0 10 10 13 23 2 12 16 63 31 112 52 174 57 232 35
381 -23 158 -61 350 -90 454 -58 206 -215 470 -419 705 -113 129 -540 572
-633 656 -234 210 -470 378 -662 470 -169 81 -272 111 -598 178 -78 16 -239
54 -357 85 -270 69 -321 75 -375 46z"/>
<path d="M3045 5590 c-16 -4 -45 -14 -64 -23 -35 -15 -35 -15 5 -35 77 -39 79
-65 11 -106 -23 -13 -51 -33 -61 -45 -19 -21 -19 -21 26 -21 25 0 69 8 99 19
30 10 93 22 140 26 113 10 149 25 149 63 0 37 -18 49 -140 96 -94 37 -113 40
-165 26z"/>
<path d="M3515 5310 c-33 -4 -88 -15 -122 -24 -33 -9 -107 -21 -164 -26 -57
-6 -116 -13 -131 -16 -27 -5 -103 -73 -163 -145 -30 -36 -30 -36 10 -32 22 3
62 11 89 19 69 20 155 19 163 -2 7 -20 -14 -41 -80 -80 -54 -31 -114 -103
-173 -207 -31 -55 -31 -55 5 -45 58 16 211 107 316 189 122 94 203 119 401
119 130 0 131 0 180 33 47 31 52 32 154 31 94 0 116 -4 212 -36 219 -75 368
-168 506 -313 146 -155 239 -219 310 -213 35 3 37 5 40 39 4 45 -40 102 -184
242 -265 256 -529 400 -824 451 -110 19 -455 29 -545 16z"/>
<path d="M3851 5016 c-15 -17 -5 -40 31 -72 32 -30 63 -45 271 -128 100 -41
232 -95 292 -120 114 -48 164 -56 184 -32 18 22 -11 70 -67 111 -207 151 -659
304 -711 241z"/>
<path d="M3430 4851 c-30 -10 -80 -30 -110 -46 -76 -38 -215 -140 -244 -178
-21 -28 -116 -208 -116 -221 0 -2 30 7 68 21 151 57 154 57 307 43 232 -21
375 -56 375 -93 0 -35 -27 -41 -128 -29 -53 7 -126 12 -162 12 -81 0 -250 -24
-277 -39 -12 -6 -48 -41 -82 -78 -60 -68 -60 -68 -18 -81 66 -19 193 0 292 46
75 35 86 37 178 37 75 0 100 -3 107 -15 18 -30 -11 -44 -126 -59 -120 -17
-161 -57 -89 -87 45 -19 139 -18 248 2 158 29 222 8 477 -156 211 -136 285
-177 370 -205 101 -34 228 -113 284 -177 90 -103 151 -266 181 -488 13 -93 19
-217 22 -485 2 -198 6 -366 8 -374 6 -16 69 73 100 143 20 45 24 73 28 226 6
189 -6 564 -23 698 -20 153 -75 275 -246 539 -43 67 -96 149 -117 182 -81 128
-173 209 -332 288 -132 67 -202 85 -345 87 -148 3 -188 17 -274 95 -100 90
-189 121 -354 121 -117 0 -148 10 -132 40 28 53 173 86 297 69 81 -11 121 -24
298 -97 66 -27 181 -66 255 -87 392 -110 603 -221 701 -370 77 -117 250 -414
306 -525 62 -122 103 -240 103 -292 0 -20 -7 -65 -16 -100 -14 -52 -16 -92
-10 -228 3 -91 1 -269 -5 -396 -10 -193 -9 -235 2 -259 8 -16 19 -30 24 -32
19 -6 82 158 95 247 22 165 25 407 5 555 -10 74 -15 138 -11 142 15 16 62 -14
84 -55 68 -123 75 -291 26 -622 -15 -99 -60 -261 -91 -325 -11 -22 0 -15 42
30 130 140 159 202 197 419 45 253 46 265 37 341 -15 118 -47 197 -143 355
-29 47 -92 162 -140 255 -48 94 -137 244 -197 334 -85 127 -109 171 -109 197
0 30 3 34 25 34 46 0 101 -37 176 -119 95 -102 163 -211 244 -392 36 -79 87
-174 113 -212 112 -160 143 -234 191 -453 11 -50 38 -128 61 -175 40 -85 48
-121 66 -313 6 -70 6 -70 26 -15 49 129 59 162 69 226 12 66 10 75 -49 348
-34 154 -66 329 -71 388 -12 125 -25 179 -53 225 -26 42 -54 58 -74 41 -12
-10 -15 -34 -12 -118 3 -100 2 -106 -17 -106 -35 0 -73 94 -84 208 -7 85 -14
109 -49 180 -54 108 -153 238 -251 329 -129 119 -228 168 -342 168 -53 0 -122
21 -249 73 -55 24 -120 41 -186 51 -110 16 -422 124 -684 236 -74 32 -159 65
-189 74 -73 22 -210 20 -281 -3z m815 -666 c220 -109 375 -271 310 -325 -17
-14 -1 -24 -278 162 -209 141 -260 191 -226 225 16 16 68 0 194 -62z"/>
<path d="M3191 3969 c-17 -17 -44 -57 -60 -89 -29 -58 -29 -58 8 -63 20 -2 70
-1 111 2 100 10 274 -3 387 -28 221 -48 432 -176 563 -339 155 -195 273 -623
270 -977 -1 -55 -1 -122 -1 -148 1 -49 1 -49 47 0 25 26 57 68 72 93 26 43 27
50 25 170 -5 230 -39 414 -125 680 -33 102 -74 211 -91 243 -39 74 -128 156
-272 252 -205 137 -314 175 -555 195 -80 6 -179 18 -220 26 -108 20 -124 18
-159 -17z"/>
<path d="M6657 3825 c-27 -27 -31 -84 -13 -204 15 -97 53 -247 61 -239 9 9 26
209 26 297 0 87 -3 109 -18 130 -25 32 -37 36 -56 16z"/>
<path d="M3294 3646 c-93 -107 -95 -101 25 -104 128 -4 216 -21 309 -60 229
-96 404 -297 476 -546 26 -88 51 -292 39 -322 -4 -10 7 -26 30 -45 30 -25 38
-40 52 -104 17 -74 17 -74 45 -42 42 49 70 112 70 158 0 23 -9 96 -20 163 -53
310 -136 507 -278 658 -166 176 -414 288 -636 288 -73 0 -73 0 -112 -44z"/>
<path d="M4582 3498 c-20 -20 -14 -61 33 -205 94 -286 120 -488 112 -848 -5
-188 -4 -245 5 -230 6 11 28 38 48 61 96 106 109 171 91 472 -18 288 -54 466
-127 619 -55 117 -122 171 -162 131z"/>
<path d="M3437 3371 c-21 -10 -47 -31 -58 -45 -11 -14 -28 -26 -37 -26 -9 0
44 -30 117 -66 112 -55 143 -76 200 -132 36 -37 81 -94 98 -128 38 -71 83
-230 83 -291 0 -42 0 -42 30 -15 105 93 110 100 110 152 0 64 -48 195 -101
277 -59 90 -180 201 -270 246 -96 48 -124 53 -172 28z"/>
<path d="M5736 2811 c-11 -12 -23 -54 -31 -108 -29 -184 -45 -309 -45 -343 0
-33 2 -32 43 40 88 156 102 196 102 296 0 76 -3 95 -19 113 -23 26 -28 26 -50
2z"/>
<path d="M4093 2561 c-9 -11 -22 -34 -30 -52 -14 -33 -14 -33 9 -12 13 11 33
26 46 32 25 13 30 51 7 51 -8 0 -23 -9 -32 -19z"/>
</g>
</svg>
