<?xml version="1.0" standalone="no"?>
<!DOCTYPE svg PUBLIC "-//W3C//DTD SVG 20010904//EN"
 "http://www.w3.org/TR/2001/REC-SVG-20010904/DTD/svg10.dtd">
<svg version="1.0" xmlns="http://www.w3.org/2000/svg"
 width="1000.000000pt" height="1000.000000pt" viewBox="0 0 1000.000000 1000.000000"
 preserveAspectRatio="xMidYMid meet">
<metadata>
  <rdf:RDF
    xmlns:rdf = "http://www.w3.org/1999/02/22-rdf-syntax-ns#"
    xmlns:rdfs = "http://www.w3.org/2000/01/rdf-schema#"
    xmlns:dc = "http://purl.org/dc/elements/1.1/"
    xmlns:cc = "http://creativecommons.org/ns#">
    <cc:license rdf:resource="http://creativecommons.org/publicdomain/zero/1.0/deed.en"/>
    <cc:permits rdf:resource="http://creativecommons.org/ns#Reproduction"/>
    <rdf:Description about="https://nft.mir.one/fingerprints"
      dc:title="TON Fingerprints"
      dc:description="This is a unique digital fingerprint created based on the algorithm for generating basic rings using a noise texture. Like human fingerprints, you can now use it for the Web3 and Metaverse era as digital biometric information."
      dc:publisher="https://nft.mir.one"
      dc:date="2022-02-22"
      dc:format="image/svg+xml"
      dc:language="en" >
      <dc:creator>
      <rdf:Bag>
        <rdf:li>EQBondcvD2_aOFADXSWJHs4ZazQDuEl9_wNvGGPxI8hGuOFU</rdf:li>
        <rdf:li>ipfs://bafkreihj7iub3fhmhq6jn62noukt5wxn3gv6bvcg7wmt6ywvlurefezckq</rdf:li>
      </rdf:Bag>
      </dc:creator>
    </rdf:Description>
  </rdf:RDF>
</metadata>
<rect width="100%" height="100%" fill="#1b1f23"/>
<g transform="translate(0.000000,1000.000000) scale(0.100000,-0.100000)"
fill="#ffffff" stroke="none">
<path d="M4948 7813 c7 -3 16 -2 19 1 4 3 -2 6 -13 5 -11 0 -14 -3 -6 -6z"/>
<path d="M5240 7757 c36 -18 142 -76 235 -127 239 -132 475 -244 595 -285 57
-19 105 -34 106 -32 5 5 -395 219 -556 298 -223 110 -558 239 -380 146z"/>
<path d="M5003 7728 c-32 -39 38 -98 307 -263 117 -71 262 -160 323 -197 83
-52 118 -68 146 -68 59 0 138 -27 256 -89 144 -75 273 -156 393 -245 53 -40
124 -87 157 -105 60 -34 60 -34 -70 99 -206 210 -375 327 -661 458 -82 37
-221 106 -309 153 -159 85 -242 125 -404 193 -46 20 -94 45 -106 56 -17 16
-24 18 -32 8z"/>
<path d="M4480 7690 c30 -17 114 -60 187 -94 136 -66 494 -290 669 -419 128
-94 202 -168 291 -288 62 -84 82 -103 179 -169 60 -40 143 -101 184 -134 110
-88 316 -298 393 -401 108 -144 160 -265 113 -265 -23 0 -58 34 -158 153 -199
238 -400 439 -521 519 -47 31 -103 46 -119 30 -21 -21 8 -59 155 -211 83 -86
226 -239 318 -341 92 -102 200 -214 239 -249 141 -126 249 -346 304 -621 21
-103 46 -352 46 -452 0 -289 92 -622 164 -595 14 6 15 10 5 29 -8 14 -13 108
-17 268 -4 215 -2 257 13 320 42 173 -20 471 -186 884 -44 110 -91 247 -105
305 -28 120 -81 229 -168 345 -82 109 -279 294 -466 438 -195 149 -235 187
-318 296 -35 45 -91 105 -125 133 -76 64 -632 434 -690 459 -64 28 -190 57
-305 70 -57 6 -111 14 -120 17 -10 2 8 -9 38 -27z"/>
<path d="M4152 7531 c-72 -6 -72 -6 -20 -33 29 -16 109 -42 178 -58 69 -17
161 -42 205 -57 217 -70 476 -222 807 -471 159 -119 182 -132 205 -110 31 31
-21 106 -147 212 -227 190 -668 457 -830 502 -62 17 -284 25 -398 15z"/>
<path d="M3995 7324 c-16 -2 -67 -9 -113 -15 -83 -11 -83 -11 -45 -38 21 -15
73 -43 117 -61 101 -44 169 -85 262 -159 79 -64 87 -67 173 -74 68 -5 194 -68
374 -187 284 -187 412 -303 649 -588 93 -112 240 -283 326 -380 286 -323 354
-408 486 -612 38 -58 84 -123 102 -146 52 -64 72 -120 99 -285 46 -282 67
-358 187 -679 44 -117 95 -270 113 -340 18 -69 39 -140 48 -159 14 -32 14 -32
20 -10 13 48 19 374 9 430 -6 31 -29 99 -51 150 -88 209 -127 432 -170 977
-16 193 -79 356 -204 521 -29 38 -169 198 -312 356 -411 454 -405 447 -430
542 -22 83 -60 118 -165 149 -53 16 -123 59 -266 165 -248 183 -505 329 -681
389 -65 21 -125 33 -219 41 -158 14 -269 18 -309 13z m490 -166 c186 -61 422
-201 743 -443 206 -154 224 -172 347 -325 51 -63 190 -225 310 -360 360 -407
459 -540 526 -713 33 -86 42 -168 22 -188 -19 -19 -37 2 -103 127 -109 209
-190 317 -502 672 -105 119 -246 282 -313 362 -180 214 -312 333 -575 517
-165 115 -309 196 -461 258 -127 52 -179 84 -179 111 0 30 56 25 185 -18z"/>
<path d="M5783 7123 c-22 -8 -14 -47 18 -86 18 -21 118 -103 224 -182 460
-343 591 -489 709 -790 114 -292 212 -551 238 -625 29 -86 110 -281 115 -276
4 4 -43 224 -83 383 -83 342 -235 740 -349 918 -95 149 -243 282 -518 465
-241 161 -322 206 -354 193z"/>
<path d="M3740 7090 c-30 -4 -81 -11 -113 -15 -57 -8 -57 -8 -20 -34 21 -14
86 -47 146 -72 137 -61 253 -130 397 -239 181 -137 255 -187 410 -283 80 -48
178 -114 218 -144 82 -63 170 -157 179 -191 13 -54 -24 -40 -118 44 -100 89
-174 138 -282 189 -51 23 -204 117 -342 209 -246 164 -467 288 -542 304 -44 9
-130 -1 -210 -24 -55 -16 -55 -16 -21 -38 18 -12 74 -37 123 -55 255 -95 483
-219 768 -419 89 -62 114 -85 141 -131 35 -61 110 -127 205 -182 70 -40 78
-59 24 -59 -70 1 -161 54 -282 165 -199 182 -452 334 -758 455 -175 70 -186
71 -323 29 -71 -21 -71 -21 -41 -40 41 -25 315 -131 423 -163 163 -49 332
-147 628 -364 156 -115 244 -158 440 -217 193 -59 274 -97 381 -183 105 -83
324 -301 406 -405 47 -58 67 -94 82 -145 11 -37 34 -89 52 -116 43 -69 140
-168 226 -232 69 -51 94 -88 78 -113 -12 -20 -37 -11 -119 43 -105 68 -208
172 -276 278 -132 207 -172 260 -275 367 -206 213 -322 292 -612 416 -239 103
-269 120 -566 319 -275 183 -376 238 -454 244 -42 4 -54 1 -59 -12 -3 -9 -1
-23 6 -31 16 -19 599 -407 696 -463 38 -22 164 -89 279 -147 214 -109 303
-162 410 -243 176 -134 291 -257 433 -465 152 -220 309 -358 472 -412 68 -23
86 -34 125 -78 117 -129 329 -561 447 -910 51 -151 64 -235 41 -258 -19 -19
-61 4 -69 38 -21 90 -270 610 -380 793 -95 158 -159 228 -324 354 -199 153
-342 297 -399 403 -78 147 -187 266 -386 425 -109 86 -223 157 -476 294 -273
148 -417 235 -629 385 -205 144 -254 187 -276 247 -24 65 -32 72 -143 130
-108 57 -125 59 -244 38 -68 -11 -68 -11 -35 -39 19 -16 77 -55 129 -87 52
-32 135 -94 184 -137 287 -254 485 -390 875 -603 124 -67 288 -164 365 -214
274 -181 525 -407 525 -473 0 -22 -3 -24 -27 -18 -34 8 -54 22 -242 172 -260
207 -434 318 -804 513 -221 117 -371 219 -637 435 -69 56 -161 128 -205 161
-77 57 -82 59 -140 58 -33 0 -78 -4 -101 -8 -40 -8 -40 -8 -11 -37 15 -16 73
-58 127 -94 54 -37 197 -145 317 -242 323 -259 423 -326 608 -403 192 -79 394
-202 677 -412 218 -162 261 -190 389 -252 124 -59 180 -102 397 -298 242 -219
318 -325 587 -818 173 -318 201 -354 308 -409 57 -29 57 -29 57 -5 0 13 9 46
20 73 27 68 44 217 37 326 -6 111 -38 210 -182 565 -159 394 -185 484 -185
638 -1 242 -101 407 -545 897 -222 246 -308 346 -433 509 -197 257 -321 370
-627 572 -187 123 -293 184 -319 184 -46 0 -17 -72 52 -127 21 -17 119 -86
218 -154 283 -193 398 -296 490 -441 27 -42 71 -111 99 -155 71 -113 139 -189
616 -694 234 -248 309 -363 309 -474 0 -68 -51 -107 -117 -90 -32 8 -167 142
-236 233 -51 69 -54 77 -33 85 28 11 83 -32 164 -129 127 -152 129 -154 146
-154 25 0 20 47 -13 115 -41 88 -127 190 -234 277 -51 43 -136 124 -189 180
-52 57 -183 191 -291 299 -211 212 -226 233 -276 388 -34 105 -66 154 -152
236 -82 78 -150 129 -324 245 -184 122 -200 135 -335 265 -157 152 -306 248
-400 258 -25 3 -70 1 -100 -3z m908 -890 c33 -22 92 -69 132 -105 40 -36 99
-81 131 -100 86 -53 91 -104 9 -89 -46 8 -142 55 -151 74 -4 8 -13 28 -20 44
-8 16 -52 58 -99 94 -112 86 -130 103 -124 113 12 20 65 7 122 -31z"/>
<path d="M3053 5886 c-43 -11 -43 -11 -8 -39 19 -15 82 -59 141 -99 109 -72
200 -156 332 -305 41 -47 127 -124 199 -180 70 -53 184 -152 253 -218 69 -67
247 -218 396 -337 346 -276 463 -390 577 -563 99 -150 207 -272 362 -411 131
-117 182 -172 372 -409 292 -363 439 -625 381 -683 -17 -17 -3 -26 20 -13 32
17 55 88 60 186 4 90 4 90 -38 170 -63 118 -248 395 -402 601 -180 240 -185
248 -191 316 -8 80 -46 145 -150 255 -104 108 -171 155 -269 189 -90 30 -83
26 -323 218 -110 89 -283 224 -385 300 -235 177 -294 228 -314 270 -15 32 -13
66 4 66 21 0 389 -260 717 -507 117 -88 264 -188 325 -224 258 -147 389 -277
533 -529 26 -47 111 -179 188 -295 184 -275 338 -526 400 -650 28 -55 60 -114
72 -132 21 -32 21 -32 34 72 18 144 10 189 -49 279 -27 41 -121 195 -209 343
-263 444 -359 579 -528 748 -120 120 -236 208 -416 315 -84 50 -237 154 -342
231 -241 179 -436 309 -542 361 -66 33 -98 43 -156 47 -80 7 -98 16 -242 116
-109 77 -193 145 -357 290 -69 61 -164 138 -213 173 -81 58 -91 62 -139 61
-28 -1 -70 -7 -93 -13z m2136 -1730 c127 -124 251 -262 251 -281 0 -25 -28
-29 -71 -9 -69 30 -302 278 -329 348 -7 21 -7 32 1 42 17 20 41 4 148 -100z"/>
<path d="M3007 5646 c-48 -11 -48 -11 -10 -39 21 -16 76 -49 122 -75 91 -51
181 -128 181 -155 0 -24 -12 -22 -107 23 -93 43 -133 48 -198 25 -22 -8 -49
-15 -60 -15 -37 0 64 -49 157 -76 90 -26 124 -27 233 -8 45 7 55 17 55 54 -1
68 -67 156 -174 231 -76 54 -102 58 -199 35z"/>
<path d="M3322 5249 c-45 -21 -123 -26 -204 -14 -37 6 -58 2 -109 -20 -35 -15
-74 -29 -87 -32 -41 -10 64 -49 194 -72 309 -56 414 -95 611 -228 249 -167
621 -470 803 -653 157 -159 228 -249 663 -850 142 -196 180 -238 271 -297 91
-59 143 -113 280 -296 63 -83 128 -165 144 -181 27 -25 131 -69 141 -60 2 2
-10 32 -27 66 -17 35 -40 85 -51 111 -21 49 -121 200 -193 292 -22 28 -100
118 -172 200 -119 134 -250 283 -503 572 -45 51 -136 165 -202 252 -199 262
-277 337 -730 702 -139 112 -286 230 -325 262 -144 118 -389 267 -436 266 -14
0 -44 -10 -68 -20z"/>
<path d="M2979 4963 c-74 -38 -74 -38 -29 -60 25 -12 100 -38 167 -57 154 -45
327 -119 463 -198 377 -219 785 -569 998 -857 74 -99 112 -165 150 -261 17
-41 62 -140 100 -220 114 -238 123 -276 133 -535 10 -298 38 -455 96 -549 31
-48 31 -48 36 -15 3 19 17 65 31 102 30 78 32 114 12 223 -25 134 -29 190 -16
228 14 45 43 48 64 7 23 -43 82 -245 111 -377 36 -166 43 -191 44 -174 0 8 16
39 35 70 19 30 42 82 51 114 17 57 17 63 0 115 -24 77 -107 251 -160 336 -24
39 -58 110 -76 159 -41 113 -101 229 -234 451 -139 231 -226 360 -324 482
-303 375 -924 854 -1269 977 -82 29 -260 76 -290 76 -10 0 -52 -17 -93 -37z"/>
<path d="M7010 4710 c0 -30 9 -91 19 -135 19 -80 19 -80 20 -20 1 76 -15 185
-28 198 -8 8 -11 -5 -11 -43z"/>
<path d="M3019 4707 c-107 -57 -102 -50 -56 -75 23 -12 78 -35 122 -51 141
-51 241 -97 370 -169 148 -82 309 -190 453 -304 126 -101 421 -387 561 -546
76 -86 107 -107 129 -90 97 79 -343 571 -798 894 -126 89 -253 165 -386 232
-125 62 -300 132 -332 132 -10 0 -38 -10 -63 -23z"/>
<path d="M7051 4454 c0 -11 3 -14 6 -6 3 7 2 16 -1 19 -3 4 -6 -2 -5 -13z"/>
<path d="M3050 4418 c-68 -35 -80 -42 -80 -48 0 -10 76 -51 194 -105 212 -97
435 -237 639 -400 128 -103 614 -572 687 -663 94 -118 162 -298 146 -384 -13
-70 -55 -76 -76 -11 -23 72 -114 237 -174 317 -79 104 -405 437 -558 569 -151
130 -328 256 -493 352 -146 85 -173 90 -244 50 -23 -14 -50 -25 -59 -25 -22 0
35 -38 176 -117 263 -147 470 -303 706 -533 175 -171 297 -311 420 -481 106
-147 148 -194 198 -220 53 -27 79 -105 99 -299 7 -75 17 -115 39 -162 17 -35
30 -56 30 -47 0 9 22 39 49 67 27 28 58 71 71 96 20 42 21 51 11 118 -6 40
-15 154 -21 253 -6 121 -16 205 -29 258 -24 93 -83 222 -140 306 -37 54 -51
66 -117 97 -68 32 -95 55 -277 237 -275 275 -435 408 -687 570 -118 76 -389
214 -435 222 -20 4 -45 -2 -75 -17z"/>
<path d="M3189 3737 c-47 -23 -47 -23 20 -75 36 -28 102 -77 146 -108 262
-186 504 -435 786 -810 99 -131 189 -270 189 -292 0 -5 14 -28 31 -51 31 -43
31 -43 60 19 52 110 41 143 -121 365 -155 211 -259 335 -420 499 -157 161
-262 254 -410 363 -164 121 -196 131 -281 90z"/>
<path d="M3444 3159 c99 -105 242 -276 365 -436 52 -68 95 -123 96 -123 1 0 0
14 -3 31 -2 17 1 41 8 54 10 19 9 35 -8 92 -27 89 -99 192 -217 310 -105 106
-179 149 -239 138 -20 -4 -43 -2 -57 6 -13 7 12 -26 55 -72z"/>
<path d="M5383 2983 c-32 -12 -12 -76 69 -231 46 -87 103 -200 128 -253 47
-101 97 -171 104 -147 35 108 41 147 37 220 -2 38 -186 311 -249 371 -49 45
-62 51 -89 40z"/>
</g>
</svg>
