<?xml version="1.0" standalone="no"?>
<!DOCTYPE svg PUBLIC "-//W3C//DTD SVG 20010904//EN"
 "http://www.w3.org/TR/2001/REC-SVG-20010904/DTD/svg10.dtd">
<svg version="1.0" xmlns="http://www.w3.org/2000/svg"
 width="1000.000000pt" height="1000.000000pt" viewBox="0 0 1000.000000 1000.000000"
 preserveAspectRatio="xMidYMid meet">
<metadata>
  <rdf:RDF
    xmlns:rdf = "http://www.w3.org/1999/02/22-rdf-syntax-ns#"
    xmlns:rdfs = "http://www.w3.org/2000/01/rdf-schema#"
    xmlns:dc = "http://purl.org/dc/elements/1.1/"
    xmlns:cc = "http://creativecommons.org/ns#">
    <cc:license rdf:resource="http://creativecommons.org/publicdomain/zero/1.0/deed.en"/>
    <cc:permits rdf:resource="http://creativecommons.org/ns#Reproduction"/>
    <rdf:Description about="https://nft.mir.one/fingerprints"
      dc:title="TON Fingerprints"
      dc:description="This is a unique digital fingerprint created based on the algorithm for generating basic rings using a noise texture. Like human fingerprints, you can now use it for the Web3 and Metaverse era as digital biometric information."
      dc:publisher="https://nft.mir.one"
      dc:date="2022-02-22"
      dc:format="image/svg+xml"
      dc:language="en" >
      <dc:creator>
      <rdf:Bag>
        <rdf:li>EQBondcvD2_aOFADXSWJHs4ZazQDuEl9_wNvGGPxI8hGuOFU</rdf:li>
        <rdf:li>ipfs://bafkreihj7iub3fhmhq6jn62noukt5wxn3gv6bvcg7wmt6ywvlurefezckq</rdf:li>
      </rdf:Bag>
      </dc:creator>
    </rdf:Description>
  </rdf:RDF>
</metadata>
<rect width="100%" height="100%" fill="#1b1f23"/>
<g transform="translate(0.000000,1000.000000) scale(0.100000,-0.100000)"
fill="#ffffff" stroke="none">
<path d="M5082 7765 c49 -91 115 -138 453 -322 121 -66 368 -204 548 -307 181
-103 346 -193 367 -201 21 -7 53 -21 71 -30 31 -14 30 -12 -16 31 -103 95
-304 259 -410 334 -232 164 -442 275 -863 456 -57 25 -121 56 -141 69 -38 24
-38 24 -9 -30z"/>
<path d="M4805 7791 c6 -5 28 -17 50 -26 22 -9 36 -12 30 -7 -5 6 -28 18 -50
27 -22 9 -35 12 -30 6z"/>
<path d="M4510 7689 c25 -11 80 -34 123 -49 43 -16 101 -46 129 -66 42 -31 62
-39 108 -42 93 -7 131 32 75 77 -28 21 -231 73 -358 90 -115 16 -130 14 -77
-10z"/>
<path d="M4160 7551 c-22 -6 -21 -8 20 -24 58 -21 298 -65 403 -73 63 -5 91
-3 120 9 72 31 37 69 -80 86 -78 12 -422 13 -463 2z"/>
<path d="M4980 7445 c-14 -8 -74 -31 -135 -52 -102 -34 -119 -37 -230 -37 -69
-1 -173 7 -245 18 -145 22 -245 18 -419 -15 -114 -22 -114 -22 -66 -40 56 -21
519 -91 787 -118 103 -11 192 -22 198 -26 5 -3 10 -12 10 -19 0 -45 148 -135
257 -156 99 -18 89 54 -16 117 -50 30 -93 43 -194 58 -45 7 -47 27 -4 59 24
17 43 21 110 21 104 0 144 -18 367 -164 509 -334 527 -344 756 -442 370 -157
456 -217 368 -258 -46 -20 -93 -12 -314 54 -47 14 -130 30 -185 35 -150 13
-203 41 -363 191 -103 97 -189 159 -313 221 -86 44 -92 45 -216 32 -75 -7
-134 8 -274 71 -150 68 -300 101 -714 156 -178 23 -246 21 -365 -11 -41 -11
-100 -26 -131 -32 -55 -12 -55 -12 -10 -34 65 -32 134 -43 316 -55 308 -18
545 -61 770 -139 464 -160 557 -194 622 -225 139 -65 203 -124 174 -159 -22
-27 -67 -28 -158 -6 -113 29 -201 63 -393 155 -186 89 -311 135 -485 180 -269
69 -435 84 -563 51 -71 -18 -76 -18 -162 0 -79 16 -98 16 -167 5 -43 -8 -98
-16 -123 -20 -45 -6 -45 -6 20 -71 36 -36 132 -112 213 -170 138 -99 147 -107
147 -138 0 -18 9 -50 20 -71 59 -116 311 -238 904 -436 360 -120 564 -199 746
-290 172 -85 227 -120 520 -329 287 -204 423 -328 566 -516 148 -193 217 -307
297 -486 39 -86 97 -189 97 -172 0 27 -45 291 -60 357 -26 109 -43 144 -127
271 -152 230 -349 448 -618 686 -332 294 -558 445 -804 539 -129 49 -321 102
-456 125 -267 47 -338 64 -521 125 -197 66 -485 185 -518 216 -18 16 -18 17 8
34 41 27 105 15 363 -69 388 -126 494 -148 606 -122 38 9 80 16 95 16 43 0
592 -140 651 -166 71 -32 126 -72 311 -228 180 -152 430 -399 614 -606 194
-218 300 -360 434 -580 29 -47 63 -98 76 -114 22 -27 21 -20 -20 140 -41 163
-77 272 -111 338 -21 42 -115 164 -238 311 -55 66 -142 174 -194 240 -180 228
-206 258 -280 324 -213 187 -257 242 -231 291 6 11 20 20 30 20 28 0 325 -152
385 -198 30 -23 59 -55 72 -82 12 -25 44 -92 72 -150 34 -73 77 -139 138 -216
48 -62 138 -176 200 -255 112 -144 223 -268 208 -233 -4 11 -25 66 -47 124
-69 187 -158 355 -248 470 -90 115 -108 146 -139 238 -28 81 -27 96 9 126 32
26 51 31 161 41 66 6 66 6 -37 109 -71 73 -112 124 -138 172 -89 170 -179 249
-463 404 -115 62 -289 161 -388 220 -382 227 -531 305 -648 344 -59 20 -134
20 -167 1z m-749 -706 c274 -59 543 -149 615 -204 47 -36 60 -63 41 -82 -17
-17 18 -26 -447 110 -124 36 -276 80 -339 98 -125 36 -180 70 -167 104 6 16
15 17 81 12 42 -4 139 -21 216 -38z"/>
<path d="M3330 6646 c28 -17 50 -21 35 -7 -6 5 -21 12 -35 15 -25 7 -25 7 0
-8z"/>
<path d="M3335 6474 c-49 -20 -105 -38 -123 -41 -32 -5 -32 -5 10 -32 24 -15
57 -33 75 -40 40 -16 76 -54 71 -77 -2 -12 -24 -25 -63 -39 -53 -18 -98 -45
-201 -119 -31 -22 -31 -22 5 -36 29 -12 59 -13 146 -8 228 16 272 14 371 -20
107 -36 449 -192 654 -299 274 -142 456 -263 630 -417 126 -111 197 -136 326
-111 32 6 51 3 88 -13 46 -21 47 -22 136 -203 75 -153 105 -229 186 -478 60
-184 115 -333 146 -394 80 -160 95 -262 48 -319 -30 -37 -47 -15 -100 127 -27
72 -67 177 -89 235 -23 57 -70 197 -105 310 -133 422 -230 612 -331 649 -32
11 -39 11 -46 0 -14 -23 -11 -35 40 -131 71 -138 111 -244 200 -538 153 -509
197 -617 294 -718 35 -37 77 -91 93 -121 16 -30 41 -63 57 -75 15 -11 43 -44
62 -72 59 -88 85 -185 164 -609 28 -148 64 -258 75 -224 2 8 18 55 35 104 44
130 63 212 63 275 0 60 -54 281 -121 495 -71 225 -99 451 -79 626 15 131 2
232 -66 501 -68 269 -75 325 -47 358 21 25 21 25 50 -6 21 -23 31 -47 36 -85
4 -30 23 -108 42 -174 69 -241 84 -320 108 -575 27 -285 50 -398 145 -720 27
-91 61 -214 75 -275 15 -60 31 -119 37 -130 7 -11 17 -30 23 -42 10 -20 15
-10 34 85 54 263 54 285 -15 490 -89 268 -144 505 -200 852 -31 193 -43 238
-105 371 -52 112 -60 149 -32 149 30 0 82 -50 139 -136 86 -130 102 -177 97
-282 -5 -80 -1 -103 45 -282 125 -481 217 -746 286 -814 32 -32 32 -32 29 -2
-1 17 -7 103 -13 191 -11 160 -11 160 -92 405 -44 135 -105 309 -134 388 -30
79 -52 148 -49 153 4 5 12 9 20 9 64 0 176 -219 310 -610 29 -85 63 -173 75
-195 22 -40 22 -40 16 135 -3 96 -12 207 -20 245 -22 112 -130 336 -210 440
-112 144 -303 369 -339 398 -78 63 -102 76 -312 165 -22 9 -74 44 -115 78
-151 122 -207 152 -479 259 -203 81 -281 114 -536 230 -93 42 -269 120 -390
172 -283 122 -500 228 -596 291 -42 27 -134 97 -205 154 -150 121 -203 158
-224 158 -8 -1 -55 -17 -105 -36z m2250 -1258 c47 -20 119 -94 149 -155 31
-61 58 -152 141 -477 72 -281 89 -389 61 -400 -43 -17 -59 21 -170 408 -93
323 -131 411 -230 543 -34 46 -42 63 -35 77 12 22 38 23 84 4z"/>
<path d="M6737 6063 c-19 -18 1 -52 81 -135 48 -50 113 -108 144 -129 57 -39
57 -39 -4 59 -34 53 -75 114 -92 135 -45 57 -108 91 -129 70z"/>
<path d="M3198 5897 c-41 -16 -137 -94 -163 -133 -9 -14 -29 -33 -46 -43 -30
-18 -30 -18 17 -25 26 -3 108 -6 184 -6 244 0 458 -53 712 -177 192 -93 314
-177 438 -302 119 -121 157 -180 254 -403 90 -204 109 -240 171 -309 65 -72
86 -132 134 -374 50 -250 64 -376 65 -560 0 -199 -17 -311 -69 -471 -57 -175
-96 -232 -246 -369 -49 -45 -215 -304 -239 -375 -15 -45 -15 -45 28 -25 222
102 218 99 335 245 183 230 253 347 311 520 53 159 70 268 70 460 0 187 -10
259 -85 623 -32 154 -52 285 -59 374 -6 75 -17 180 -25 232 -7 53 -17 133 -21
178 -9 116 -40 135 -88 54 -21 -37 -24 -144 -7 -251 20 -121 11 -220 -20 -220
-28 0 -97 237 -124 430 -29 199 -63 268 -200 399 -214 206 -688 449 -993 510
-135 27 -287 35 -334 18z"/>
<path d="M3092 5510 c-18 -11 -64 -51 -101 -88 -68 -69 -68 -69 -24 -80 24 -7
74 -12 111 -12 94 0 247 -25 366 -59 442 -128 847 -463 1051 -869 60 -119 78
-188 77 -292 -1 -48 10 -151 24 -238 49 -298 49 -507 -1 -772 -39 -209 -32
-272 27 -256 73 18 165 295 189 569 13 150 2 329 -36 572 -45 288 -61 335
-203 589 -246 443 -403 607 -746 776 -214 105 -405 159 -621 175 -69 5 -84 3
-113 -15z"/>
<path d="M3055 5152 c-40 -26 -156 -142 -142 -142 7 0 24 -6 38 -13 14 -8 56
-17 95 -21 81 -8 238 -46 315 -76 172 -68 368 -199 448 -299 22 -29 54 -89 72
-138 20 -54 82 -168 158 -293 204 -337 250 -452 272 -681 25 -248 -39 -622
-145 -859 -24 -52 -50 -117 -58 -143 -15 -45 -15 -47 1 -33 9 8 46 24 81 35
102 32 157 72 185 134 38 87 54 153 65 271 6 61 18 163 28 226 24 172 22 466
-5 590 -29 134 -58 202 -114 273 -76 97 -337 489 -344 518 -13 52 40 50 100
-3 48 -42 110 -123 185 -244 95 -151 137 -188 171 -148 42 51 -88 317 -230
468 -55 58 -339 276 -470 361 -185 119 -411 201 -631 230 -34 4 -52 1 -75 -13z"/>
<path d="M5027 5037 c-3 -8 12 -83 33 -168 21 -85 52 -230 69 -324 18 -93 56
-271 86 -395 93 -390 100 -432 99 -630 0 -140 -5 -195 -22 -275 -59 -277 -143
-433 -408 -765 -77 -96 -152 -198 -165 -226 -25 -52 -25 -52 6 -29 16 13 53
34 80 47 60 29 197 111 243 146 36 28 265 323 319 411 65 107 110 265 143 496
36 258 31 305 -60 595 -58 185 -112 372 -175 615 -81 307 -147 480 -195 505
-26 14 -47 13 -53 -3z"/>
<path d="M2990 4733 c-67 -67 -67 -67 -32 -86 19 -10 67 -27 106 -37 280 -72
480 -232 689 -550 153 -234 235 -426 257 -603 16 -134 3 -208 -85 -462 -42
-121 -81 -241 -85 -267 -5 -27 -11 -52 -15 -57 -3 -5 12 -4 32 4 21 7 63 20
94 29 81 23 100 46 138 161 58 182 84 332 85 495 1 275 -54 429 -289 810 -141
229 -179 282 -261 361 -118 112 -256 194 -412 243 -129 41 -143 38 -222 -41z"/>
<path d="M3032 4352 c-58 -58 -58 -58 6 -98 34 -21 97 -61 140 -88 106 -66
221 -188 316 -331 43 -66 103 -146 133 -177 72 -77 107 -155 138 -313 28 -143
48 -181 81 -154 48 40 59 187 24 325 -72 285 -390 711 -630 846 -116 65 -135
64 -208 -10z"/>
<path d="M3183 3858 c-12 -6 -24 -21 -27 -34 -5 -17 -13 -24 -31 -24 -24 0
-24 0 9 -49 42 -62 90 -178 107 -256 10 -49 13 -55 19 -35 4 17 14 26 30 28
86 12 113 133 56 257 -48 106 -101 143 -163 113z"/>
<path d="M3529 3580 c-28 -16 -30 -68 -10 -230 11 -85 23 -210 27 -277 6 -106
9 -120 21 -107 8 8 26 14 39 14 30 0 92 25 116 47 25 22 23 70 -6 135 -14 30
-41 117 -60 193 -20 76 -44 154 -54 174 -23 43 -51 63 -73 51z"/>
<path d="M5725 3487 c-30 -27 -50 -101 -60 -223 -17 -218 -38 -320 -104 -506
-28 -76 -30 -92 -21 -130 13 -57 13 -145 -1 -207 -5 -27 -9 -68 -7 -91 3 -42
3 -42 55 37 56 85 100 170 128 248 27 71 44 95 70 95 29 0 35 -21 35 -130 0
-47 3 -102 6 -122 6 -37 6 -37 41 35 68 139 76 203 39 311 -17 51 -27 112 -35
216 -21 270 -40 380 -74 442 -26 47 -41 53 -72 25z"/>
<path d="M5357 2580 c-62 -69 -151 -243 -142 -279 3 -14 9 -38 12 -53 5 -25
23 -40 23 -20 0 4 34 48 75 97 93 111 135 190 135 257 0 46 -1 48 -29 48 -22
0 -40 -12 -74 -50z"/>
<path d="M5089 2285 c-14 -8 -38 -33 -54 -57 -28 -41 -28 -42 -4 -25 13 9 45
30 71 45 37 22 45 31 36 40 -15 15 -17 15 -49 -3z"/>
</g>
</svg>
