<?xml version="1.0" standalone="no"?>
<!DOCTYPE svg PUBLIC "-//W3C//DTD SVG 20010904//EN"
 "http://www.w3.org/TR/2001/REC-SVG-20010904/DTD/svg10.dtd">
<svg version="1.0" xmlns="http://www.w3.org/2000/svg"
 width="1000.000000pt" height="1000.000000pt" viewBox="0 0 1000.000000 1000.000000"
 preserveAspectRatio="xMidYMid meet">
<metadata>
  <rdf:RDF
    xmlns:rdf = "http://www.w3.org/1999/02/22-rdf-syntax-ns#"
    xmlns:rdfs = "http://www.w3.org/2000/01/rdf-schema#"
    xmlns:dc = "http://purl.org/dc/elements/1.1/"
    xmlns:cc = "http://creativecommons.org/ns#">
    <cc:license rdf:resource="http://creativecommons.org/publicdomain/zero/1.0/deed.en"/>
    <cc:permits rdf:resource="http://creativecommons.org/ns#Reproduction"/>
    <rdf:Description about="https://nft.mir.one/fingerprints"
      dc:title="TON Fingerprints"
      dc:description="This is a unique digital fingerprint created based on the algorithm for generating basic rings using a noise texture. Like human fingerprints, you can now use it for the Web3 and Metaverse era as digital biometric information."
      dc:publisher="https://nft.mir.one"
      dc:date="2022-02-22"
      dc:format="image/svg+xml"
      dc:language="en" >
      <dc:creator>
      <rdf:Bag>
        <rdf:li>EQBondcvD2_aOFADXSWJHs4ZazQDuEl9_wNvGGPxI8hGuOFU</rdf:li>
        <rdf:li>ipfs://bafkreihj7iub3fhmhq6jn62noukt5wxn3gv6bvcg7wmt6ywvlurefezckq</rdf:li>
      </rdf:Bag>
      </dc:creator>
    </rdf:Description>
  </rdf:RDF>
</metadata>
<rect width="100%" height="100%" fill="#1b1f23"/>
<g transform="translate(0.000000,1000.000000) scale(0.100000,-0.100000)"
fill="#ffffff" stroke="none">
<path d="M4332 7668 c-62 -28 -111 -53 -109 -55 5 -5 208 84 221 97 14 14 13
14 -112 -42z"/>
<path d="M4934 7699 c-100 -8 -302 -43 -313 -54 -11 -12 17 -40 49 -49 22 -6
119 -6 274 2 224 10 439 5 556 -14 57 -9 288 -54 380 -74 47 -10 86 -17 88
-15 6 5 -174 77 -288 115 -141 47 -288 77 -440 90 -128 11 -161 11 -306 -1z"/>
<path d="M4485 7458 c-159 -17 -434 -159 -639 -328 -115 -95 -186 -173 -261
-289 -38 -60 -120 -184 -181 -274 -227 -336 -343 -630 -444 -1127 -21 -102
-41 -194 -45 -205 -5 -15 1 -12 20 10 47 53 53 67 94 227 99 384 266 733 519
1086 86 121 159 196 305 317 244 202 369 280 547 339 168 56 297 70 640 70
335 0 440 -13 639 -80 251 -83 532 -277 675 -464 100 -129 493 -498 511 -478
5 6 -209 304 -310 429 -171 214 -420 451 -608 578 -149 101 -384 170 -632 187
-129 8 -759 10 -830 2z"/>
<path d="M6121 7370 c-2 -51 61 -118 189 -202 45 -29 45 -29 -5 14 -113 98
-166 153 -174 182 -8 28 -9 29 -10 6z"/>
<path d="M4907 7139 c-383 -26 -620 -116 -794 -302 -74 -80 -97 -126 -122
-247 -45 -212 -134 -537 -201 -730 -39 -113 -85 -252 -101 -310 -17 -58 -53
-150 -79 -205 -53 -110 -72 -187 -90 -363 -16 -171 7 -318 87 -532 70 -188
152 -311 278 -413 111 -90 211 -131 464 -192 106 -26 141 -44 141 -75 0 -34
-87 -39 -275 -15 -161 21 -263 53 -352 112 -121 81 -237 203 -288 303 -29 58
-137 414 -167 555 -18 84 -22 134 -22 305 -1 179 2 218 22 309 47 210 139 466
332 926 134 321 147 364 118 393 -47 47 -133 -48 -280 -308 -142 -251 -245
-479 -318 -707 -76 -238 -84 -346 -50 -631 25 -201 43 -284 115 -509 56 -175
67 -246 40 -257 -36 -13 -88 83 -180 329 -70 189 -89 261 -100 385 -12 132
-35 190 -76 190 -17 0 -18 -12 -16 -197 3 -195 4 -199 34 -278 17 -44 50 -140
73 -213 51 -160 90 -224 187 -303 37 -30 107 -102 155 -160 122 -146 238 -253
383 -354 89 -62 138 -104 173 -148 57 -73 129 -116 249 -149 66 -18 104 -22
248 -21 144 0 189 4 295 26 290 61 453 143 639 322 143 138 218 255 276 435
29 87 31 123 23 325 -2 33 8 119 21 190 49 272 10 542 -107 733 -92 153 -203
254 -358 328 -238 114 -544 120 -813 15 -244 -94 -330 -331 -240 -661 73 -266
268 -510 495 -617 110 -52 187 -56 325 -15 57 17 120 34 139 38 59 11 104 40
162 103 96 103 138 214 138 366 0 164 -49 286 -159 396 -102 102 -218 152
-356 152 -144 1 -280 -61 -346 -158 -97 -141 -72 -357 55 -493 157 -168 417
-151 502 33 67 142 -19 305 -160 305 -41 0 -53 -5 -82 -34 -38 -38 -44 -77
-18 -114 17 -25 62 -30 70 -7 7 18 35 20 52 3 16 -16 15 -70 0 -90 -25 -29
-63 -48 -100 -48 -178 0 -255 244 -116 366 54 48 115 67 195 62 122 -7 219
-76 277 -198 27 -58 31 -75 31 -155 0 -82 -3 -97 -33 -157 -41 -83 -120 -158
-200 -189 -80 -31 -221 -38 -293 -14 -132 43 -254 152 -326 291 -171 329 -54
633 277 721 98 26 264 23 360 -6 257 -78 430 -269 484 -533 44 -212 2 -410
-120 -569 -35 -46 -96 -130 -134 -185 -99 -146 -150 -183 -304 -224 -43 -11
-108 -39 -145 -61 -131 -79 -224 -87 -457 -38 -247 51 -388 122 -518 260 -74
78 -115 137 -169 244 -104 209 -141 455 -67 455 15 0 26 -22 55 -112 114 -349
281 -567 521 -680 57 -27 80 -32 134 -31 36 0 81 4 100 8 22 4 66 0 112 -9
129 -27 220 -16 246 30 19 35 -7 62 -112 115 -171 86 -345 235 -466 399 -146
199 -289 583 -290 780 0 179 107 375 228 414 26 8 72 17 102 21 30 3 138 15
240 26 378 43 625 6 856 -128 108 -62 263 -219 323 -327 54 -94 103 -223 126
-326 22 -100 31 -360 16 -486 -6 -54 -18 -169 -26 -254 -23 -245 -65 -440
-114 -539 -46 -89 -116 -178 -234 -294 -137 -134 -206 -188 -299 -232 -180
-86 -577 -148 -804 -126 -246 23 -359 74 -624 281 -211 165 -346 297 -530 520
-142 172 -240 322 -281 434 -32 86 -11 -5 27 -121 108 -323 334 -703 515 -864
217 -192 425 -328 586 -383 130 -44 250 -60 417 -53 83 3 203 13 266 22 63 8
187 22 274 30 176 17 214 24 331 61 67 22 91 25 150 19 84 -7 146 5 234 47
200 95 617 438 732 602 41 57 59 101 113 265 110 333 135 452 143 681 4 109 0
198 -11 299 -18 162 -20 248 -6 306 12 53 -5 127 -71 304 -84 225 -162 349
-241 382 -32 13 -58 0 -58 -30 0 -9 31 -83 69 -166 125 -270 150 -373 176
-701 25 -335 18 -498 -32 -724 -54 -247 -143 -459 -234 -562 -28 -32 -93 -86
-147 -122 -53 -35 -146 -107 -207 -161 -202 -178 -417 -329 -460 -323 -28 4
-31 42 -5 83 12 19 78 87 147 152 188 177 293 317 293 391 0 16 -7 49 -15 72
-21 60 -19 126 10 281 55 303 60 353 60 604 0 215 -2 251 -23 344 -55 245
-147 424 -296 580 -121 125 -262 212 -440 270 -175 58 -231 65 -456 62 -481
-8 -564 -4 -619 31 -40 24 -65 95 -69 193 -5 111 12 188 68 300 49 101 110
170 206 234 122 82 181 95 614 142 340 36 635 -33 1002 -232 152 -83 206 -101
233 -79 37 31 -30 108 -184 211 -248 167 -497 254 -798 279 -132 11 -185 11
-356 -1z m-1118 -1876 c12 -10 48 -80 81 -156 175 -404 291 -581 501 -762 98
-85 136 -133 125 -161 -9 -22 -33 -17 -105 25 -220 129 -349 277 -496 570 -36
73 -88 162 -115 197 -54 71 -65 111 -58 220 5 82 25 101 67 67z m1867 -886 c7
-18 -32 -120 -89 -233 -120 -240 -320 -419 -584 -526 -170 -68 -446 -128 -591
-128 -142 0 -324 48 -330 86 -5 37 41 47 185 39 142 -8 224 5 311 48 26 13 81
32 122 42 278 65 503 178 651 325 36 36 102 119 146 186 101 150 162 205 179
161z"/>
<path d="M6360 7136 c0 -2 8 -10 18 -17 15 -13 16 -12 3 4 -13 16 -21 21 -21
13z"/>
<path d="M3455 6888 c-40 -43 -40 -43 3 -3 23 21 42 40 42 42 0 8 -9 0 -45
-39z"/>
<path d="M5063 6815 c-158 -28 -240 -67 -290 -136 -20 -29 -78 -83 -134 -125
-55 -41 -107 -86 -116 -101 -16 -24 -16 -26 2 -39 27 -20 66 -11 255 62 144
56 169 69 197 103 84 100 288 118 551 50 221 -57 583 -236 835 -411 95 -66
189 -136 210 -156 65 -62 111 -142 162 -283 72 -198 125 -313 191 -416 32 -51
74 -119 92 -150 74 -131 71 -106 -17 152 -49 143 -106 307 -126 365 -32 88
-36 113 -32 159 5 45 2 62 -20 105 -73 145 -192 274 -385 417 -104 77 -134 92
-249 124 -52 15 -156 56 -233 91 -76 36 -172 79 -213 95 -240 95 -486 129
-680 94z"/>
<path d="M4595 6776 c-128 -40 -240 -149 -312 -303 -53 -115 -58 -213 -9 -213
27 0 163 149 173 189 16 69 73 139 168 206 94 67 116 103 76 125 -25 13 -46
12 -96 -4z"/>
<path d="M5043 6534 c-36 -18 -41 -35 -19 -57 23 -23 63 -35 221 -66 384 -76
694 -248 843 -468 116 -171 226 -466 273 -729 20 -112 24 -162 23 -374 0 -210
-3 -261 -21 -360 -43 -224 -101 -391 -184 -526 -54 -88 -59 -124 -16 -124 87
0 206 181 277 420 64 217 75 307 74 600 -1 398 -29 556 -159 885 -35 88 -69
189 -75 225 -15 83 -27 104 -96 173 -152 151 -459 314 -722 383 -129 34 -369
44 -419 18z"/>
<path d="M4650 6320 c-240 -47 -361 -105 -320 -155 17 -21 85 -19 265 6 177
25 418 22 545 -6 236 -52 440 -149 598 -284 179 -151 331 -449 382 -744 51
-298 34 -557 -60 -959 -48 -201 -51 -258 -14 -258 51 0 149 251 201 517 25
127 27 158 27 388 0 289 -16 403 -83 604 -98 294 -219 481 -400 616 -170 128
-351 204 -647 269 -201 45 -287 46 -494 6z"/>
<path d="M6931 5843 c85 -106 85 -106 49 -33 -38 76 -66 110 -92 110 -15 0 -6
-17 43 -77z"/>
<path d="M6810 5291 c-7 -15 -2 -60 22 -178 29 -144 31 -176 32 -353 1 -259
-23 -385 -132 -686 -56 -153 -59 -197 -15 -192 65 7 171 269 224 552 27 141
37 456 19 577 -29 202 -110 353 -150 280z"/>
<path d="M2931 4624 c0 -11 3 -14 6 -6 3 7 2 16 -1 19 -3 4 -6 -2 -5 -13z"/>
<path d="M2932 4560 c0 -14 2 -19 5 -12 2 6 2 18 0 25 -3 6 -5 1 -5 -13z"/>
<path d="M2941 4484 c0 -11 3 -14 6 -6 3 7 2 16 -1 19 -3 4 -6 -2 -5 -13z"/>
<path d="M5132 4330 c-70 -32 -102 -59 -102 -85 0 -60 89 -53 161 12 41 37 51
76 23 87 -24 9 -35 7 -82 -14z"/>
<path d="M6913 3917 c-27 -34 -85 -75 -155 -110 -52 -27 -83 -55 -181 -165
-136 -151 -253 -258 -412 -377 -248 -186 -351 -238 -698 -354 -261 -88 -261
-88 -284 -131 -12 -23 -31 -49 -40 -57 -48 -38 -178 -88 -352 -132 -206 -53
-270 -78 -296 -118 -14 -21 -15 -27 -3 -38 21 -21 280 -2 399 29 349 91 845
312 1154 513 298 195 433 315 570 507 39 54 112 155 164 225 95 127 166 231
157 231 -2 0 -13 -10 -23 -23z"/>
<path d="M3350 3311 c119 -146 239 -271 424 -438 171 -155 252 -205 386 -240
109 -28 181 -22 425 36 121 29 276 66 345 82 136 32 230 70 230 92 0 8 -9 22
-21 33 -33 30 -219 25 -434 -11 -138 -23 -202 -28 -340 -29 -259 -1 -334 24
-590 195 -75 50 -187 132 -249 183 -61 50 -127 103 -146 117 -19 14 -53 38
-75 55 -34 25 -27 14 45 -75z"/>
<path d="M6554 3130 c-27 -25 -55 -41 -80 -45 -51 -9 -106 -41 -234 -135 -174
-127 -276 -192 -511 -326 -283 -161 -305 -171 -404 -179 -47 -5 -156 -29 -265
-60 -384 -109 -529 -113 -586 -15 -22 36 -64 47 -120 31 -22 -6 -66 -11 -99
-12 -67 -1 -67 -1 32 -24 40 -9 121 -35 180 -57 104 -40 114 -42 243 -46 156
-4 278 11 473 60 96 24 133 30 153 22 35 -12 45 -41 29 -86 -12 -37 -12 -37
39 16 38 40 116 92 306 205 291 173 419 264 575 410 60 57 139 123 175 147 36
23 82 63 103 88 21 25 37 46 35 46 -2 0 -22 -18 -44 -40z"/>
</g>
</svg>
