<?xml version="1.0" standalone="no"?>
<!DOCTYPE svg PUBLIC "-//W3C//DTD SVG 20010904//EN"
 "http://www.w3.org/TR/2001/REC-SVG-20010904/DTD/svg10.dtd">
<svg version="1.0" xmlns="http://www.w3.org/2000/svg"
 width="1000.000000pt" height="1000.000000pt" viewBox="0 0 1000.000000 1000.000000"
 preserveAspectRatio="xMidYMid meet">
<metadata>
  <rdf:RDF
    xmlns:rdf = "http://www.w3.org/1999/02/22-rdf-syntax-ns#"
    xmlns:rdfs = "http://www.w3.org/2000/01/rdf-schema#"
    xmlns:dc = "http://purl.org/dc/elements/1.1/"
    xmlns:cc = "http://creativecommons.org/ns#">
    <cc:license rdf:resource="http://creativecommons.org/publicdomain/zero/1.0/deed.en"/>
    <cc:permits rdf:resource="http://creativecommons.org/ns#Reproduction"/>
    <rdf:Description about="https://nft.mir.one/fingerprints"
      dc:title="TON Fingerprints"
      dc:description="This is a unique digital fingerprint created based on the algorithm for generating basic rings using a noise texture. Like human fingerprints, you can now use it for the Web3 and Metaverse era as digital biometric information."
      dc:publisher="https://nft.mir.one"
      dc:date="2022-02-22"
      dc:format="image/svg+xml"
      dc:language="en" >
      <dc:creator>
      <rdf:Bag>
        <rdf:li>EQBondcvD2_aOFADXSWJHs4ZazQDuEl9_wNvGGPxI8hGuOFU</rdf:li>
        <rdf:li>ipfs://bafkreihj7iub3fhmhq6jn62noukt5wxn3gv6bvcg7wmt6ywvlurefezckq</rdf:li>
      </rdf:Bag>
      </dc:creator>
    </rdf:Description>
  </rdf:RDF>
</metadata>
<rect width="100%" height="100%" fill="#1b1f23"/>
<g transform="translate(0.000000,1000.000000) scale(0.100000,-0.100000)"
fill="#ffffff" stroke="none">
<path d="M4525 7750 c-35 -38 -163 -119 -333 -209 -256 -135 -395 -234 -532
-377 -65 -68 -65 -68 5 -3 128 119 166 141 470 280 240 109 256 120 330 224
15 22 42 55 58 73 17 17 28 32 26 32 -3 0 -14 -9 -24 -20z"/>
<path d="M4865 7664 c-153 -23 -326 -85 -339 -121 -9 -22 10 -41 48 -48 17 -3
96 5 176 19 414 71 705 60 1060 -39 132 -37 253 -66 257 -62 6 6 -247 123
-350 161 -116 43 -270 81 -387 96 -116 14 -356 11 -465 -6z"/>
<path d="M4975 7403 c-149 -17 -323 -35 -433 -43 -159 -11 -257 -41 -425 -127
-211 -108 -412 -288 -603 -538 -50 -66 -100 -127 -110 -136 -52 -45 -94 -26
-95 44 0 38 -1 40 -10 17 -6 -14 -15 -47 -21 -75 -6 -27 -53 -133 -105 -235
-70 -136 -86 -175 -62 -145 18 22 47 54 64 70 17 17 51 57 77 90 67 88 97 112
162 135 70 24 125 64 261 189 427 394 701 521 1240 572 152 15 488 6 615 -16
224 -38 471 -115 750 -233 102 -44 186 -73 220 -77 55 -7 55 -7 18 12 -20 11
-74 49 -120 85 -181 142 -398 266 -558 321 -95 32 -286 72 -412 86 -90 10
-383 13 -453 4z"/>
<path d="M4950 7079 c-401 -37 -672 -152 -1073 -456 -123 -94 -391 -327 -468
-409 -160 -171 -266 -352 -347 -599 -63 -190 -118 -465 -93 -465 17 0 38 39
92 166 138 327 288 535 523 729 60 49 99 89 106 109 59 157 119 213 390 360
58 31 156 95 218 141 228 171 445 240 792 252 271 9 517 -28 814 -124 417
-134 632 -223 754 -310 69 -50 162 -105 162 -96 0 14 -179 220 -240 275 -92
84 -168 128 -324 189 -306 119 -563 193 -779 224 -138 20 -391 27 -527 14z"/>
<path d="M3564 7058 c-19 -23 -19 -23 4 -4 21 18 27 26 19 26 -2 0 -12 -10
-23 -22z"/>
<path d="M4990 6760 c-118 -11 -201 -27 -295 -57 -218 -69 -340 -176 -260
-229 36 -24 103 -13 197 30 150 70 286 91 538 83 329 -10 639 -88 852 -216 52
-31 71 -51 105 -107 22 -37 87 -119 144 -181 138 -153 195 -225 293 -373 210
-314 356 -624 356 -755 0 -16 -11 -54 -25 -83 -24 -53 -24 -53 26 -260 28
-114 57 -222 66 -241 9 -19 19 -46 24 -60 5 -14 7 150 5 364 -3 377 -4 394
-29 511 -28 128 -83 298 -122 373 -33 67 -138 223 -213 321 -89 115 -216 245
-339 347 -57 46 -103 91 -103 98 0 39 67 37 150 -5 155 -78 398 -326 548 -558
32 -50 86 -121 134 -177 5 -5 -19 58 -52 140 -188 460 -357 660 -644 759 -259
89 -607 199 -696 220 -213 51 -482 74 -660 56z"/>
<path d="M4782 6436 c-81 -16 -122 -37 -122 -65 0 -46 58 -65 245 -81 72 -6
202 -20 290 -30 88 -10 192 -22 230 -25 219 -21 396 -99 573 -253 119 -104
188 -208 223 -334 12 -43 48 -116 98 -201 43 -72 106 -185 141 -250 48 -91 73
-126 108 -155 26 -20 81 -71 122 -113 77 -79 111 -99 134 -80 17 15 5 85 -28
157 -72 157 -442 783 -528 893 -272 348 -460 461 -878 526 -146 23 -511 29
-608 11z"/>
<path d="M4090 6325 c-84 -19 -240 -96 -286 -141 -76 -77 -14 -113 128 -75
216 57 247 63 272 57 35 -9 35 -48 1 -82 -36 -36 -168 -96 -329 -149 -152 -50
-193 -69 -281 -128 -133 -91 -261 -253 -380 -482 -32 -60 -79 -144 -106 -185
-66 -102 -80 -162 -80 -340 -1 -227 18 -307 87 -370 14 -14 54 -59 87 -100 33
-41 86 -102 117 -135 31 -33 97 -110 148 -172 51 -61 138 -154 193 -207 87
-81 100 -98 89 -111 -45 -55 -194 50 -354 249 -88 109 -146 163 -183 171 -16
4 -35 10 -43 14 -21 11 -96 154 -117 221 -21 67 -22 68 -33 50 -16 -26 -11
-86 15 -168 14 -44 36 -130 50 -190 64 -290 251 -595 527 -858 161 -154 333
-256 613 -367 187 -73 342 -147 388 -185 43 -35 48 -36 212 -57 339 -42 500
-25 791 81 79 29 164 52 217 60 146 20 268 95 442 269 302 301 544 803 562
1165 6 129 -5 171 -66 247 -23 29 -35 62 -51 138 -43 199 -155 415 -215 415
-29 0 -39 -42 -35 -145 9 -206 4 -284 -24 -370 -15 -44 -46 -111 -68 -150 -50
-84 -189 -229 -353 -370 -66 -57 -177 -161 -246 -232 -190 -194 -276 -244
-455 -261 -77 -8 -121 -19 -185 -45 -199 -82 -344 -110 -584 -111 -196 -1
-262 10 -476 80 -147 48 -176 52 -185 29 -34 -86 234 -235 467 -260 163 -17
473 31 733 115 189 61 219 67 246 50 37 -23 -37 -73 -205 -139 -180 -69 -285
-95 -542 -129 -40 -6 -92 -20 -116 -31 -54 -26 -83 -26 -181 -1 -188 48 -370
143 -503 263 -34 30 -127 107 -206 171 -210 168 -315 290 -404 471 -46 95 -58
169 -33 200 18 21 26 12 67 -68 63 -126 162 -261 252 -345 69 -64 149 -117
263 -173 88 -43 109 -49 143 -45 139 20 148 19 341 -25 189 -43 189 -43 404
-44 271 0 411 26 465 85 20 22 20 22 -4 42 -23 18 -33 19 -140 11 -180 -12
-366 -8 -477 12 -111 20 -527 136 -574 160 -17 9 -47 42 -67 73 -20 31 -70 97
-112 146 -192 226 -393 520 -446 653 -52 127 -53 269 -5 416 29 87 139 312
196 399 60 93 171 208 229 237 54 27 138 27 143 -1 2 -10 -30 -49 -81 -100
-226 -224 -368 -568 -337 -816 13 -98 41 -183 100 -302 85 -170 275 -437 371
-524 106 -95 172 -59 94 50 -286 402 -375 601 -375 840 0 174 47 316 179 540
85 146 117 225 106 272 -4 20 0 36 15 55 50 63 416 275 537 310 127 38 378 26
587 -27 134 -34 218 -77 416 -210 508 -343 653 -526 690 -870 20 -178 -9 -344
-86 -503 -113 -232 -199 -225 -124 9 45 143 61 233 61 353 0 264 -81 445 -287
646 -234 227 -540 392 -793 429 -115 17 -305 8 -399 -19 -142 -41 -293 -131
-389 -233 -59 -63 -238 -330 -289 -429 -143 -286 -97 -590 149 -979 66 -105
117 -206 117 -232 0 -34 69 -96 153 -137 184 -89 349 -118 709 -123 246 -3
246 -3 285 30 158 133 363 225 363 163 0 -25 -42 -58 -178 -141 -107 -65 -125
-87 -101 -117 18 -21 98 -11 165 22 83 41 148 106 195 196 33 62 60 97 129
162 48 45 118 100 156 122 126 72 241 207 297 348 44 111 57 199 57 400 0 208
-14 286 -71 398 -70 140 -136 216 -268 309 -40 28 -107 78 -148 111 -41 32
-95 71 -121 86 -166 95 -292 197 -329 265 -19 36 -39 58 -63 70 -51 24 -222
64 -405 93 -165 26 -234 42 -320 75 -135 50 -336 110 -385 114 -31 3 -83 -1
-120 -9z m882 -766 c206 -41 404 -147 567 -303 124 -119 192 -229 235 -378 46
-162 42 -310 -14 -527 -67 -256 -107 -300 -410 -459 -171 -89 -232 -109 -369
-122 -294 -25 -567 48 -718 192 -121 117 -264 360 -319 543 -35 120 -44 309
-19 404 32 122 79 191 132 191 29 0 29 -13 1 -127 -15 -63 -21 -120 -22 -203
0 -160 28 -277 102 -425 150 -301 365 -446 682 -462 196 -9 354 34 528 147
120 77 183 144 233 245 60 123 74 188 74 350 0 120 -3 150 -23 210 -54 160
-159 302 -298 401 -80 57 -212 119 -300 140 -94 23 -251 23 -328 0 -205 -61
-329 -193 -372 -396 -22 -102 -22 -294 0 -385 54 -223 224 -402 424 -444 353
-74 663 235 562 561 -37 120 -113 207 -229 262 -58 27 -76 31 -151 31 -99 -1
-153 -20 -220 -81 -64 -58 -93 -123 -98 -222 -7 -131 41 -227 139 -276 125
-62 259 1 259 122 0 32 -6 49 -25 67 -47 48 -111 19 -99 -43 6 -27 3 -32 -19
-37 -35 -9 -73 18 -88 62 -41 124 89 236 222 192 91 -31 150 -118 151 -224 1
-212 -237 -345 -445 -247 -220 102 -304 401 -181 643 138 272 531 295 779 45
114 -115 167 -241 169 -396 1 -161 -48 -284 -159 -396 -79 -80 -145 -120 -260
-160 -70 -24 -95 -28 -200 -27 -103 0 -132 4 -202 27 -170 55 -302 175 -389
351 -71 146 -97 290 -87 484 4 63 1 134 -7 186 -13 83 -13 84 13 137 80 161
242 286 437 337 86 23 256 28 342 10z m1722 -1320 c-3 -253 -51 -452 -164
-688 -101 -208 -221 -373 -370 -509 -140 -127 -321 -245 -344 -222 -20 20 9
63 101 147 329 298 391 379 511 658 88 206 112 290 112 389 0 97 10 160 40
239 27 72 65 119 94 115 20 -3 21 -8 20 -129z m-267 -216 c-3 -21 -42 -110
-87 -198 -65 -130 -81 -168 -80 -205 0 -120 -106 -257 -448 -579 -193 -181
-209 -194 -305 -241 -224 -108 -476 -137 -608 -69 -21 10 -93 30 -160 43 -130
26 -241 72 -260 108 -20 37 1 42 121 28 61 -7 135 -10 164 -6 64 7 389 121
496 174 58 28 95 57 160 123 47 47 117 108 155 134 97 67 151 112 295 245 69
64 162 143 206 177 45 34 115 99 155 144 135 150 145 159 174 159 26 0 27 -2
22 -37z"/>
<path d="M6111 3649 c-19 -11 -98 -82 -176 -158 -122 -118 -390 -348 -505
-433 -63 -47 -193 -105 -325 -147 -134 -42 -175 -62 -175 -85 0 -27 30 -39 98
-38 173 3 387 81 542 195 164 121 502 453 579 567 64 97 44 150 -38 99z"/>
<path d="M5438 6080 c-40 -25 -16 -51 116 -130 49 -29 111 -76 139 -103 50
-50 51 -50 65 -29 8 12 19 22 24 22 6 0 55 -43 110 -96 131 -126 205 -161 225
-108 11 28 -37 102 -117 183 -87 88 -164 141 -306 213 -86 43 -112 51 -170 55
-40 2 -76 -1 -86 -7z"/>
<path d="M7021 4244 c0 -11 3 -14 6 -6 3 7 2 16 -1 19 -3 4 -6 -2 -5 -13z"/>
<path d="M3525 3035 c206 -201 369 -322 562 -419 152 -76 321 -124 395 -112
56 9 98 33 98 56 0 26 -17 34 -144 65 -255 62 -506 170 -701 299 -60 40 -137
90 -170 110 -33 21 -82 56 -110 78 -27 22 4 -13 70 -77z"/>
<path d="M6334 2838 c-19 -23 -19 -23 4 -4 21 18 27 26 19 26 -2 0 -12 -10
-23 -22z"/>
<path d="M6241 2775 c-97 -66 -282 -146 -501 -214 -333 -105 -339 -106 -745
-106 -348 0 -350 0 -395 -24 -87 -45 -124 -101 -57 -86 36 9 203 10 537 4 191
-3 240 -1 320 15 223 43 515 167 720 305 92 61 204 150 190 150 -3 0 -34 -20
-69 -44z"/>
<path d="M4318 2333 c7 -3 16 -2 19 1 4 3 -2 6 -13 5 -11 0 -14 -3 -6 -6z"/>
<path d="M4411 2311 c36 -10 81 -25 99 -35 45 -22 45 -21 13 19 -28 35 -29 35
-103 34 -75 -1 -75 -1 -9 -18z"/>
<path d="M4628 2233 c6 -2 18 -2 25 0 6 3 1 5 -13 5 -14 0 -19 -2 -12 -5z"/>
<path d="M4785 2215 c108 -15 177 -18 110 -5 -22 5 -78 11 -125 14 -85 5 -85
5 15 -9z"/>
<path d="M4953 2193 c9 -2 23 -2 30 0 6 3 -1 5 -18 5 -16 0 -22 -2 -12 -5z"/>
<path d="M5018 2183 c7 -3 16 -2 19 1 4 3 -2 6 -13 5 -11 0 -14 -3 -6 -6z"/>
</g>
</svg>
