<?xml version="1.0" standalone="no"?>
<!DOCTYPE svg PUBLIC "-//W3C//DTD SVG 20010904//EN"
 "http://www.w3.org/TR/2001/REC-SVG-20010904/DTD/svg10.dtd">
<svg version="1.0" xmlns="http://www.w3.org/2000/svg"
 width="1000.000000pt" height="1000.000000pt" viewBox="0 0 1000.000000 1000.000000"
 preserveAspectRatio="xMidYMid meet">
<metadata>
  <rdf:RDF
    xmlns:rdf = "http://www.w3.org/1999/02/22-rdf-syntax-ns#"
    xmlns:rdfs = "http://www.w3.org/2000/01/rdf-schema#"
    xmlns:dc = "http://purl.org/dc/elements/1.1/"
    xmlns:cc = "http://creativecommons.org/ns#">
    <cc:license rdf:resource="http://creativecommons.org/publicdomain/zero/1.0/deed.en"/>
    <cc:permits rdf:resource="http://creativecommons.org/ns#Reproduction"/>
    <rdf:Description about="https://nft.mir.one/fingerprints"
      dc:title="TON Fingerprints"
      dc:description="This is a unique digital fingerprint created based on the algorithm for generating basic rings using a noise texture. Like human fingerprints, you can now use it for the Web3 and Metaverse era as digital biometric information."
      dc:publisher="https://nft.mir.one"
      dc:date="2022-02-22"
      dc:format="image/svg+xml"
      dc:language="en" >
      <dc:creator>
      <rdf:Bag>
        <rdf:li>EQBondcvD2_aOFADXSWJHs4ZazQDuEl9_wNvGGPxI8hGuOFU</rdf:li>
        <rdf:li>ipfs://bafkreihj7iub3fhmhq6jn62noukt5wxn3gv6bvcg7wmt6ywvlurefezckq</rdf:li>
      </rdf:Bag>
      </dc:creator>
    </rdf:Description>
  </rdf:RDF>
</metadata>
<rect width="100%" height="100%" fill="#1b1f23"/>
<g transform="translate(0.000000,1000.000000) scale(0.100000,-0.100000)"
fill="#ffffff" stroke="none">
<path d="M4825 7765 c44 -14 143 -43 220 -65 457 -129 792 -292 953 -464 76
-82 163 -226 201 -334 24 -69 39 -94 97 -158 112 -124 144 -164 205 -257 54
-82 99 -178 99 -213 0 -37 56 -175 100 -249 27 -44 96 -142 153 -218 84 -112
112 -143 146 -157 39 -18 52 -15 32 6 -6 5 -31 56 -56 113 -25 57 -89 189
-141 293 -52 104 -94 198 -94 209 0 30 36 59 72 59 32 0 32 0 -15 43 -29 26
-83 100 -143 197 -115 185 -163 253 -262 374 -151 182 -274 316 -355 384 -305
259 -744 425 -1207 457 -85 5 -85 5 -5 -20z"/>
<path d="M4395 7602 c-16 -4 -30 -12 -29 -17 1 -22 112 -65 242 -95 569 -131
754 -191 1112 -359 91 -43 177 -81 191 -84 36 -9 64 13 54 42 -35 112 -365
294 -772 424 -225 73 -324 89 -563 93 -113 1 -218 0 -235 -4z"/>
<path d="M4085 7502 c17 -10 36 -26 43 -35 13 -16 42 -13 42 4 0 14 -42 36
-80 44 -35 6 -35 6 -5 -13z"/>
<path d="M4166 7425 c-29 -37 -19 -33 -281 -107 -120 -33 -120 -33 -5 -40 63
-3 147 -13 185 -21 39 -9 105 -18 148 -22 42 -3 123 -19 180 -35 56 -16 167
-38 247 -49 267 -38 541 -109 880 -228 263 -93 412 -135 491 -136 92 -2 114
34 59 97 -35 39 -80 58 -195 79 -48 9 -164 48 -289 97 -325 127 -463 168 -946
280 -74 17 -162 42 -195 57 -75 32 -180 62 -221 62 -25 1 -38 -7 -58 -34z"/>
<path d="M3890 7164 c-75 -26 -220 -100 -310 -159 -85 -56 -85 -56 -40 -50 55
8 379 110 438 137 115 54 40 115 -88 72z"/>
<path d="M4160 7071 c-14 -5 -63 -27 -110 -51 -47 -24 -155 -70 -240 -102
-166 -64 -310 -149 -436 -260 -33 -29 -73 -63 -90 -75 -29 -22 -29 -22 11 -16
49 7 66 14 387 146 317 131 573 243 615 269 74 45 43 99 -56 97 -31 0 -67 -4
-81 -8z"/>
<path d="M4890 7005 c-10 -12 -42 -15 -166 -15 -201 0 -232 -7 -349 -85 -92
-60 -350 -180 -806 -375 -169 -72 -230 -114 -374 -259 -99 -100 -99 -100 -60
-95 52 8 466 186 760 327 208 99 544 246 685 300 78 29 242 29 363 -1 222 -55
775 -256 972 -353 94 -46 167 -98 192 -135 17 -26 16 -27 -7 -46 -46 -37 -63
-32 -480 152 -135 60 -288 121 -340 136 -52 15 -146 47 -208 71 -63 24 -148
53 -189 64 -134 34 -292 21 -310 -26 -11 -29 20 -44 143 -68 118 -24 207 -58
249 -97 45 -41 249 -171 264 -168 12 3 16 15 16 45 0 24 3 43 8 43 4 0 13 0
20 0 7 0 40 -23 72 -51 66 -55 290 -170 554 -284 85 -36 182 -82 215 -102 129
-79 327 -300 456 -513 48 -78 293 -568 385 -770 22 -47 52 -103 69 -125 33
-44 53 -67 42 -48 -3 6 -17 83 -31 171 -13 88 -39 218 -56 289 -37 153 -146
467 -196 567 -20 39 -128 207 -240 374 -124 183 -228 349 -264 421 -45 91 -71
129 -112 168 -68 65 -119 90 -303 151 -82 27 -247 84 -366 126 -190 66 -285
95 -525 162 -46 13 -53 18 -53 39 0 28 -12 32 -30 10z"/>
<path d="M4335 6560 c-93 -24 -157 -53 -320 -145 -165 -94 -341 -178 -583
-280 -212 -90 -239 -110 -369 -277 -80 -104 -80 -104 -39 -93 23 7 89 35 149
63 59 29 189 81 290 117 239 86 248 90 417 185 80 44 173 95 207 112 62 32 62
32 105 11 32 -15 72 -22 152 -27 60 -4 155 -15 210 -26 56 -11 142 -24 191
-30 283 -35 384 -59 426 -101 25 -25 24 -37 -5 -50 -29 -14 -526 44 -591 68
-125 46 -164 54 -285 59 -131 6 -171 -3 -178 -38 -7 -36 40 -50 200 -58 184
-9 212 -18 173 -50 -22 -18 -202 -43 -266 -36 -31 3 -92 15 -134 27 -67 18
-84 19 -124 9 -76 -19 -102 -58 -62 -94 10 -9 96 -36 189 -59 132 -33 181 -50
214 -73 68 -49 117 -63 353 -104 504 -88 788 -212 1044 -456 238 -226 406
-498 576 -929 82 -209 85 -215 150 -295 29 -36 64 -85 78 -110 34 -58 88 -224
118 -360 13 -58 33 -123 46 -145 13 -22 23 -36 23 -30 0 5 9 77 21 160 15 108
20 182 17 265 -5 131 9 91 -187 518 -198 431 -296 613 -431 802 -239 333 -559
562 -887 634 -142 32 -495 77 -671 86 -188 10 -233 20 -212 45 16 19 58 31
183 51 113 18 167 16 457 -17 47 -5 137 -6 200 -3 140 8 218 -10 378 -86 424
-202 684 -490 980 -1085 100 -201 216 -459 287 -640 25 -66 58 -133 72 -150
25 -30 25 -30 20 170 -6 222 -24 344 -63 438 -96 229 -326 667 -437 832 -128
191 -298 368 -447 467 -113 74 -708 370 -835 415 -92 32 -113 36 -265 43 -91
4 -217 16 -280 25 -138 21 -291 16 -362 -11 -53 -20 -63 -16 -54 21 14 54 141
105 263 105 34 0 131 -11 215 -25 84 -14 168 -25 188 -25 43 0 76 21 67 43
-11 28 -50 45 -182 81 -72 19 -150 44 -175 55 -56 25 -122 26 -215 1z"/>
<path d="M3665 5824 c-134 -18 -316 -72 -450 -134 -91 -42 -130 -82 -231 -235
-59 -91 -59 -91 -22 -78 20 7 77 35 125 63 100 57 249 118 373 152 73 19 108
23 250 22 188 0 251 -12 595 -110 535 -154 747 -250 967 -438 237 -202 447
-554 539 -901 54 -205 29 -492 -62 -711 -36 -87 -60 -110 -169 -164 -88 -43
-199 -117 -387 -256 -361 -269 -694 -442 -943 -489 -47 -9 -104 -20 -127 -25
-23 -6 -59 -10 -80 -11 -72 -2 211 -48 297 -48 158 -1 233 25 498 176 189 107
290 171 426 268 72 51 174 116 226 144 68 37 111 69 151 111 31 33 61 60 66
60 5 0 18 -9 29 -21 16 -18 20 -44 26 -187 4 -92 12 -196 17 -232 6 -36 8
-137 5 -225 -5 -160 -5 -160 50 -60 88 159 112 236 120 390 10 183 22 294 56
495 44 266 80 560 80 657 0 106 -25 216 -81 359 -148 378 -380 683 -667 875
-193 129 -351 192 -722 289 -124 32 -270 75 -325 94 -55 20 -156 52 -225 72
-69 19 -161 48 -206 64 -84 30 -148 40 -199 34z"/>
<path d="M3595 5469 c-151 -21 -329 -80 -460 -152 -60 -34 -95 -77 -201 -246
-32 -50 -32 -50 5 -33 20 9 82 43 138 75 409 232 797 256 1318 82 398 -133
630 -329 745 -628 44 -111 82 -296 81 -392 0 -125 -38 -247 -78 -253 -32 -5
-46 30 -54 140 -7 113 -24 148 -67 148 -38 0 -66 -29 -87 -87 -10 -26 -30 -77
-46 -113 -20 -45 -32 -95 -39 -162 -23 -223 -150 -430 -359 -589 -90 -68 -248
-144 -345 -165 -105 -22 -272 -15 -371 16 -352 110 -516 405 -410 737 35 113
88 196 186 294 76 77 98 93 200 143 175 85 268 101 417 70 161 -33 298 -109
456 -253 113 -104 156 -117 170 -51 13 67 -11 119 -93 200 -151 148 -398 262
-631 291 -121 15 -170 6 -228 -42 -26 -22 -101 -67 -167 -100 -66 -34 -147
-80 -181 -104 -79 -57 -201 -187 -239 -256 -30 -53 -30 -56 -30 -204 1 -133 4
-160 28 -241 70 -239 190 -412 367 -531 106 -71 186 -109 258 -123 86 -17 277
-8 375 19 312 83 647 364 858 718 29 49 84 121 125 163 40 41 93 110 119 153
50 83 83 109 110 87 37 -30 9 -167 -65 -315 -68 -137 -158 -254 -330 -425
-328 -328 -625 -495 -940 -530 -115 -13 -203 -5 -383 34 -59 12 -104 19 -100
15 23 -21 249 -131 314 -153 124 -41 206 -50 294 -32 281 58 599 241 989 570
180 151 242 211 290 285 84 128 121 261 114 410 -4 86 -7 96 -60 203 -31 62
-71 158 -88 213 -43 136 -134 322 -210 427 -106 149 -266 290 -442 391 -166
96 -594 235 -863 282 -115 20 -300 27 -390 14z"/>
<path d="M7017 5462 c-23 -25 -21 -58 7 -117 26 -54 62 -105 52 -72 -28 88
-37 135 -34 168 4 43 -1 48 -25 21z"/>
<path d="M3631 5169 c-153 -19 -357 -86 -495 -163 -53 -30 -73 -49 -109 -104
-25 -37 -59 -95 -76 -129 -31 -62 -31 -62 11 -39 24 13 91 53 150 88 356 217
752 253 1189 107 229 -76 462 -232 485 -323 16 -67 -20 -59 -185 41 -155 94
-279 146 -446 188 -385 97 -679 62 -991 -116 -83 -48 -107 -76 -180 -210 -41
-76 -41 -76 5 -59 25 9 85 42 132 73 196 129 389 204 549 214 147 9 511 -62
694 -135 134 -55 374 -187 440 -243 74 -63 112 -65 141 -8 30 57 6 225 -49
344 -112 241 -600 462 -1059 479 -73 3 -165 1 -206 -5z"/>
<path d="M3574 4610 c-180 -47 -413 -188 -458 -278 -27 -54 -51 -149 -61 -237
-3 -33 -9 -69 -11 -80 -7 -26 27 13 100 115 123 174 302 300 537 381 101 34
136 57 126 83 -15 39 -118 47 -233 16z"/>
<path d="M3942 4229 c-89 -15 -197 -66 -257 -121 -45 -41 -66 -73 -115 -171
-88 -181 -107 -277 -76 -392 48 -180 197 -303 405 -336 126 -19 277 17 394 95
109 72 255 252 299 368 26 69 24 160 -6 223 -103 220 -404 376 -644 334z m258
-191 c93 -44 161 -103 194 -170 26 -52 34 -120 17 -147 -15 -24 -55 -4 -91 46
-79 110 -177 174 -296 193 -62 10 -96 7 -211 -17 -74 -15 -113 -11 -113 12 0
22 65 72 122 93 29 10 60 22 68 25 8 4 65 5 125 4 102 -3 116 -6 185 -39z
m-114 -263 c53 -33 107 -104 124 -163 14 -52 -3 -105 -51 -157 -113 -123 -319
-120 -432 5 -84 94 -91 228 -14 298 44 41 92 52 213 50 103 -3 114 -5 160 -33z"/>
<path d="M3818 3710 c-9 -6 -22 -26 -28 -45 -33 -101 86 -198 190 -155 52 21
74 85 45 127 -24 34 -54 35 -82 5 -25 -27 -25 -27 -44 -3 -10 13 -19 31 -19
40 0 19 -19 41 -34 41 -6 0 -19 -5 -28 -10z"/>
<path d="M6282 3903 c-33 -13 -45 -67 -53 -238 -12 -241 -15 -260 -58 -398
-22 -67 -44 -150 -50 -182 -22 -124 -50 -402 -44 -442 5 -41 5 -41 53 55 69
142 119 274 147 387 27 109 51 148 77 126 23 -19 34 -71 42 -206 4 -66 9 -111
12 -100 2 11 17 69 34 129 45 159 45 291 0 521 -39 206 -66 291 -103 327 -28
28 -34 31 -57 21z"/>
<path d="M5479 2921 c-41 -27 -125 -87 -188 -134 -63 -47 -167 -114 -230 -148
-64 -34 -168 -92 -231 -129 -63 -37 -155 -89 -205 -115 -99 -54 -201 -121
-170 -112 11 3 68 15 128 27 138 26 252 68 363 132 109 62 141 76 206 88 57
11 75 23 238 164 190 164 220 196 220 232 0 31 -13 44 -45 44 -7 0 -46 -22
-86 -49z"/>
<path d="M5484 2638 c-109 -110 -160 -172 -224 -268 -45 -69 -89 -132 -96
-141 -31 -34 -10 -26 64 26 42 31 138 113 212 184 75 70 149 135 166 144 69
36 102 197 41 197 -16 0 -64 -42 -163 -142z"/>
<path d="M5621 2518 c-28 -29 -93 -141 -120 -203 -21 -50 -21 -50 50 24 38 41
79 91 90 112 33 65 20 110 -20 67z"/>
<path d="M5135 2458 c-46 -26 -244 -171 -290 -213 -50 -45 -50 -45 50 -4 185
75 300 155 293 202 -4 25 -25 31 -53 15z"/>
</g>
</svg>
