<?xml version="1.0" standalone="no"?>
<!DOCTYPE svg PUBLIC "-//W3C//DTD SVG 20010904//EN"
 "http://www.w3.org/TR/2001/REC-SVG-20010904/DTD/svg10.dtd">
<svg version="1.0" xmlns="http://www.w3.org/2000/svg"
 width="1000.000000pt" height="1000.000000pt" viewBox="0 0 1000.000000 1000.000000"
 preserveAspectRatio="xMidYMid meet">
<metadata>
  <rdf:RDF
    xmlns:rdf = "http://www.w3.org/1999/02/22-rdf-syntax-ns#"
    xmlns:rdfs = "http://www.w3.org/2000/01/rdf-schema#"
    xmlns:dc = "http://purl.org/dc/elements/1.1/"
    xmlns:cc = "http://creativecommons.org/ns#">
    <cc:license rdf:resource="http://creativecommons.org/publicdomain/zero/1.0/deed.en"/>
    <cc:permits rdf:resource="http://creativecommons.org/ns#Reproduction"/>
    <rdf:Description about="https://nft.mir.one/fingerprints"
      dc:title="TON Fingerprints"
      dc:description="This is a unique digital fingerprint created based on the algorithm for generating basic rings using a noise texture. Like human fingerprints, you can now use it for the Web3 and Metaverse era as digital biometric information."
      dc:publisher="https://nft.mir.one"
      dc:date="2022-02-22"
      dc:format="image/svg+xml"
      dc:language="en" >
      <dc:creator>
      <rdf:Bag>
        <rdf:li>EQBondcvD2_aOFADXSWJHs4ZazQDuEl9_wNvGGPxI8hGuOFU</rdf:li>
        <rdf:li>ipfs://bafkreihj7iub3fhmhq6jn62noukt5wxn3gv6bvcg7wmt6ywvlurefezckq</rdf:li>
      </rdf:Bag>
      </dc:creator>
    </rdf:Description>
  </rdf:RDF>
</metadata>
<rect width="100%" height="100%" fill="#1b1f23"/>
<g transform="translate(0.000000,1000.000000) scale(0.100000,-0.100000)"
fill="#ffffff" stroke="none">
<path d="M5230 7757 c0 -61 285 -152 370 -119 24 9 23 10 -15 17 -134 24 -317
79 -340 102 -13 13 -15 13 -15 0z"/>
<path d="M4495 7690 c-88 -9 -151 -18 -139 -19 11 0 47 -10 79 -21 42 -14 105
-23 229 -30 204 -12 244 -21 452 -99 192 -72 293 -99 422 -111 129 -13 349 4
414 31 26 10 55 19 65 20 10 0 -27 12 -82 25 -66 16 -154 27 -260 34 -178 10
-269 27 -389 69 -45 16 -126 45 -181 64 -55 20 -129 41 -165 46 -91 15 -257
12 -445 -9z"/>
<path d="M4698 7464 c-43 -18 -56 -43 -32 -61 33 -24 227 -94 602 -219 205
-68 403 -139 440 -159 37 -19 119 -77 182 -128 170 -136 700 -522 832 -604 70
-45 201 -97 162 -65 -12 9 -62 64 -111 122 -156 182 -281 293 -503 450 -242
170 -310 230 -310 271 0 24 4 29 24 29 55 0 118 -37 411 -240 77 -54 172 -113
211 -133 71 -36 71 -36 -45 77 -120 117 -171 163 -281 257 -163 139 -228 169
-372 169 -180 0 -475 60 -771 157 -289 94 -365 107 -439 77z"/>
<path d="M4100 7445 c-47 -8 -107 -14 -135 -15 -49 0 -49 0 -15 -18 19 -10 44
-23 55 -29 11 -6 93 -35 183 -63 131 -42 209 -75 405 -174 133 -67 301 -143
372 -169 72 -26 193 -70 270 -98 266 -97 473 -211 755 -416 170 -124 300 -234
398 -338 72 -76 90 -103 137 -204 90 -192 129 -261 252 -453 66 -100 149 -230
186 -288 37 -58 80 -115 96 -127 29 -22 29 -22 -6 90 -117 378 -153 460 -276
635 -93 132 -119 191 -97 216 20 25 62 -4 176 -118 55 -56 120 -117 144 -136
44 -34 44 -34 23 -5 -11 17 -49 79 -84 139 -78 133 -150 210 -240 254 -36 18
-131 85 -210 149 -167 135 -471 363 -645 485 -193 135 -290 180 -659 310 -251
89 -374 139 -442 180 -68 41 -91 66 -108 115 -12 35 -18 40 -81 62 -59 21 -91
25 -219 27 -95 2 -181 -2 -235 -11z"/>
<path d="M3840 7200 c-94 -21 -213 -59 -190 -60 8 0 27 -7 42 -14 15 -8 65
-22 110 -31 158 -33 259 -73 383 -153 90 -58 165 -92 411 -185 130 -49 265
-92 385 -121 210 -52 294 -82 458 -166 360 -183 778 -525 887 -723 23 -43 25
-51 12 -64 -26 -25 -73 5 -208 131 -255 240 -501 417 -764 551 -149 76 -311
135 -369 135 -32 0 -77 -23 -77 -40 0 -26 83 -80 277 -179 343 -174 511 -287
778 -521 83 -72 200 -169 260 -215 151 -115 258 -247 477 -588 77 -120 92
-139 135 -161 48 -24 103 -77 159 -150 66 -88 66 -87 48 -26 -70 254 -107 326
-336 666 -216 319 -228 340 -253 434 -23 82 -64 167 -119 244 -125 176 -509
476 -816 639 -136 72 -237 113 -483 196 -254 86 -362 130 -612 245 -386 179
-436 193 -595 156z"/>
<path d="M3700 6954 c-8 -3 -44 -14 -79 -26 -35 -11 -95 -35 -133 -53 -69 -33
-69 -33 -36 -44 18 -6 94 -15 168 -21 74 -5 169 -14 210 -20 106 -13 233 -13
248 2 18 18 15 52 -6 71 -55 50 -312 113 -372 91z"/>
<path d="M3481 6660 c-58 -21 -221 -111 -221 -121 0 -12 74 -19 195 -19 66 0
185 -7 265 -15 80 -7 222 -19 315 -25 266 -17 416 -48 552 -115 39 -19 83 -49
97 -66 28 -33 34 -76 13 -85 -7 -2 -65 9 -128 25 -161 42 -261 58 -509 81
-118 12 -257 30 -308 40 -119 25 -305 44 -355 36 -21 -4 -58 -16 -80 -28 -70
-35 -191 -118 -176 -120 8 -1 120 -2 249 -3 204 0 239 -2 267 -17 39 -22 48
-35 34 -52 -15 -18 -37 -22 -241 -41 -197 -19 -223 -27 -322 -103 -37 -28 -75
-55 -84 -60 -31 -17 67 -23 187 -12 261 25 383 52 508 113 86 42 86 42 240 45
92 2 230 -3 345 -13 215 -19 282 -15 370 22 71 30 90 26 261 -44 273 -111 600
-302 770 -450 73 -63 119 -113 382 -418 288 -333 397 -550 523 -1035 79 -307
131 -482 160 -542 27 -56 27 -56 33 93 3 82 2 205 -3 273 -8 114 -14 140 -79
337 -38 118 -83 267 -101 333 -36 139 -76 228 -161 357 -128 195 -218 298
-456 521 -304 285 -467 403 -803 579 -270 141 -310 171 -349 259 -11 25 -30
55 -43 67 -36 34 -221 118 -354 162 -175 57 -249 68 -372 51 -96 -12 -235 -11
-487 5 -65 5 -90 2 -134 -15z"/>
<path d="M4670 5960 c-91 -35 -110 -37 -235 -23 -372 39 -490 35 -731 -26
-178 -46 -292 -67 -409 -76 -44 -4 -94 -11 -111 -16 -36 -11 -99 -55 -168
-116 -47 -42 -47 -42 -13 -51 23 -7 96 -5 218 4 262 19 327 29 484 75 163 47
283 60 433 48 196 -15 308 -46 479 -132 105 -53 513 -237 713 -322 74 -31 186
-82 247 -112 108 -52 118 -59 231 -176 188 -192 268 -284 344 -395 121 -179
228 -418 228 -513 0 -34 -3 -39 -23 -39 -33 0 -47 18 -115 160 -80 168 -181
316 -299 440 -123 129 -214 195 -291 210 -89 17 -209 58 -302 103 -101 50
-110 71 -33 75 40 2 71 -5 145 -34 159 -62 188 -65 188 -20 0 54 -107 114
-345 192 -88 28 -283 106 -434 173 -315 139 -430 184 -556 216 -266 68 -562
56 -573 -22 -5 -33 32 -51 143 -68 330 -53 473 -89 704 -179 168 -66 429 -183
537 -241 68 -37 83 -51 99 -85 29 -64 93 -112 268 -201 188 -97 284 -166 400
-289 180 -192 327 -440 260 -440 -30 0 -82 50 -187 178 -111 136 -227 253
-316 319 -30 23 -129 86 -220 140 -91 55 -214 136 -275 181 -238 178 -648 351
-1060 447 -264 61 -306 74 -390 118 -80 42 -80 42 -335 42 -256 0 -256 0 -305
-37 -66 -49 -141 -126 -131 -135 4 -5 117 -9 250 -10 278 -2 343 -9 580 -64
530 -124 779 -205 1067 -349 149 -75 642 -378 764 -470 113 -86 233 -208 274
-282 54 -95 118 -143 254 -187 95 -32 175 -89 265 -189 137 -154 160 -174 195
-170 31 3 32 5 35 55 2 42 -6 75 -49 185 -45 118 -52 146 -60 244 -11 131 -34
230 -85 357 -102 255 -195 393 -516 762 -38 43 -82 107 -99 143 -55 117 -190
237 -421 374 -65 38 -169 93 -231 123 -247 116 -381 145 -487 105z m119 -121
c240 -63 750 -332 889 -468 48 -47 50 -65 6 -69 -21 -2 -68 19 -169 74 -163
90 -420 215 -624 305 -206 89 -256 127 -237 175 6 16 12 15 135 -17z"/>
<path d="M2988 5090 c-79 -80 -79 -80 -53 -90 14 -6 97 -10 183 -10 529 0
1032 -103 1517 -312 216 -92 509 -251 834 -452 203 -126 242 -146 281 -146 38
0 49 23 28 59 -43 72 -301 256 -640 455 -416 244 -704 362 -1143 469 -308 76
-532 107 -769 107 -158 0 -158 0 -238 -80z"/>
<path d="M3028 4787 c-24 -24 -57 -61 -75 -84 -32 -41 -32 -41 10 -51 23 -6
179 -13 347 -16 320 -5 437 -16 655 -61 337 -70 633 -188 1133 -452 141 -74
352 -185 467 -245 121 -63 267 -150 345 -204 74 -51 207 -142 295 -201 164
-109 231 -168 280 -245 15 -24 41 -53 56 -66 29 -24 29 -24 31 50 6 222 -3
256 -84 304 -34 19 -109 73 -167 118 -210 165 -409 280 -576 334 -89 29 -221
91 -326 153 -261 154 -642 353 -829 432 -432 183 -892 277 -1352 277 -168 0
-168 0 -210 -43z"/>
<path d="M6768 4714 c-17 -37 -2 -96 82 -324 62 -168 130 -317 130 -285 0 6
-7 73 -15 150 -25 248 -58 370 -121 443 -41 48 -60 52 -76 16z"/>
<path d="M3235 4468 c-120 -9 -141 -18 -169 -71 -19 -33 -19 -36 -2 -72 15
-32 16 -44 6 -83 -6 -25 -20 -58 -31 -74 -20 -28 -20 -28 4 -28 13 0 53 19 88
41 83 54 133 75 221 93 118 23 225 28 358 16 361 -32 691 -148 1230 -431 113
-59 258 -129 323 -155 256 -102 430 -260 517 -471 17 -43 52 -122 76 -176 50
-109 87 -241 104 -362 6 -44 18 -100 27 -123 16 -44 16 -44 41 20 83 218 91
263 69 371 -14 65 -16 108 -11 198 8 138 -1 164 -74 205 -26 15 -101 80 -167
143 -66 64 -159 142 -207 174 -85 57 -603 328 -903 473 -550 265 -979 354
-1500 312z m2754 -1223 c25 -67 28 -115 6 -115 -42 0 -88 99 -67 145 18 40 39
30 61 -30z"/>
<path d="M2983 4334 c15 -8 32 -12 37 -9 18 11 -1 25 -33 25 -32 -1 -32 -1 -4
-16z"/>
<path d="M3403 4136 c-39 -8 -101 -24 -138 -36 -58 -19 -70 -28 -105 -76 -22
-29 -40 -56 -40 -60 0 -4 -11 -22 -25 -40 -25 -33 -25 -33 12 -27 21 3 72 16
113 30 235 75 536 73 780 -7 199 -65 738 -331 862 -425 94 -71 223 -204 341
-352 65 -82 95 -128 202 -316 56 -98 108 -63 86 57 -20 115 -88 233 -250 436
-59 74 -99 135 -112 170 -11 30 -26 62 -32 70 -85 109 -613 382 -965 499 -186
62 -302 83 -492 87 -112 2 -188 -1 -237 -10z"/>
<path d="M3361 3839 c-70 -12 -95 -29 -160 -106 -53 -64 -53 -64 -20 -59 211
32 519 33 634 1 77 -21 215 -86 237 -112 16 -17 16 -21 3 -40 -9 -12 -39 -29
-70 -38 -37 -10 -62 -25 -76 -44 -25 -34 -83 -67 -192 -110 -155 -62 -160 -67
-220 -202 -25 -56 -25 -56 17 -44 22 7 88 34 146 60 138 62 328 137 415 165
146 47 291 28 511 -65 243 -104 374 -195 501 -349 128 -155 172 -239 173 -333
0 -78 61 -324 79 -323 4 1 13 15 22 33 9 18 36 68 60 112 48 89 54 135 29 235
-11 45 -23 65 -69 110 -31 31 -88 103 -128 160 -225 326 -441 493 -868 671
-83 34 -167 79 -235 125 -120 80 -232 126 -367 149 -94 16 -333 19 -422 4z"/>
<path d="M3335 3552 c-22 -16 -51 -41 -64 -56 -24 -26 -24 -26 52 -26 55 0 80
-4 91 -16 18 -17 15 -23 -43 -123 -29 -49 -29 -49 7 -38 21 6 63 30 95 55 69
52 122 74 237 96 178 35 215 67 123 109 -43 19 -70 21 -253 25 -205 4 -205 4
-245 -26z"/>
<path d="M5213 3574 c-34 -15 -11 -56 92 -164 171 -181 268 -348 301 -514 7
-39 18 -174 23 -301 4 -126 12 -238 16 -248 6 -14 15 -5 46 45 52 82 98 182
111 239 33 144 -111 554 -256 730 -113 137 -272 239 -333 213z"/>
<path d="M6187 3293 c-4 -3 -7 -20 -7 -38 0 -45 87 -359 114 -408 22 -42 22
-42 45 80 30 156 26 225 -14 283 -44 63 -115 106 -138 83z"/>
<path d="M4055 3139 c-73 -12 -220 -56 -273 -82 -51 -24 -93 -77 -112 -142 -7
-22 -16 -45 -21 -51 -12 -15 80 4 166 34 115 39 220 55 339 50 204 -9 299 -60
492 -265 148 -157 228 -257 319 -396 47 -72 71 -102 74 -90 2 10 12 37 22 59
24 55 33 113 21 144 -6 14 -90 111 -188 215 -196 211 -234 258 -234 290 0 80
121 -11 355 -267 51 -55 90 -89 109 -94 35 -8 49 9 41 51 -8 46 -107 185 -194
272 -100 100 -169 141 -258 155 -37 5 -117 29 -178 53 -60 23 -142 50 -182 59
-76 17 -214 19 -298 5z"/>
<path d="M3982 2780 c-20 -12 -40 -38 -53 -67 -12 -27 -26 -56 -30 -65 -5 -10
-9 -19 -9 -22 0 -2 66 -6 148 -8 125 -4 158 -9 220 -30 76 -28 145 -68 217
-127 48 -40 214 -229 216 -245 2 -18 19 65 26 121 8 75 -19 124 -131 230 -145
139 -252 201 -387 223 -103 16 -179 13 -217 -10z"/>
</g>
</svg>
