<?xml version="1.0" standalone="no"?>
<!DOCTYPE svg PUBLIC "-//W3C//DTD SVG 20010904//EN"
 "http://www.w3.org/TR/2001/REC-SVG-20010904/DTD/svg10.dtd">
<svg version="1.0" xmlns="http://www.w3.org/2000/svg"
 width="1000.000000pt" height="1000.000000pt" viewBox="0 0 1000.000000 1000.000000"
 preserveAspectRatio="xMidYMid meet">
<metadata>
  <rdf:RDF
    xmlns:rdf = "http://www.w3.org/1999/02/22-rdf-syntax-ns#"
    xmlns:rdfs = "http://www.w3.org/2000/01/rdf-schema#"
    xmlns:dc = "http://purl.org/dc/elements/1.1/"
    xmlns:cc = "http://creativecommons.org/ns#">
    <cc:license rdf:resource="http://creativecommons.org/publicdomain/zero/1.0/deed.en"/>
    <cc:permits rdf:resource="http://creativecommons.org/ns#Reproduction"/>
    <rdf:Description about="https://nft.mir.one/fingerprints"
      dc:title="TON Fingerprints"
      dc:description="This is a unique digital fingerprint created based on the algorithm for generating basic rings using a noise texture. Like human fingerprints, you can now use it for the Web3 and Metaverse era as digital biometric information."
      dc:publisher="https://nft.mir.one"
      dc:date="2022-02-22"
      dc:format="image/svg+xml"
      dc:language="en" >
      <dc:creator>
      <rdf:Bag>
        <rdf:li>EQBondcvD2_aOFADXSWJHs4ZazQDuEl9_wNvGGPxI8hGuOFU</rdf:li>
        <rdf:li>ipfs://bafkreihj7iub3fhmhq6jn62noukt5wxn3gv6bvcg7wmt6ywvlurefezckq</rdf:li>
      </rdf:Bag>
      </dc:creator>
    </rdf:Description>
  </rdf:RDF>
</metadata>
<rect width="100%" height="100%" fill="#1b1f23"/>
<g transform="translate(0.000000,1000.000000) scale(0.100000,-0.100000)"
fill="#ffffff" stroke="none">
<path d="M5288 7783 c7 -3 16 -2 19 1 4 3 -2 6 -13 5 -11 0 -14 -3 -6 -6z"/>
<path d="M5328 7773 c7 -3 16 -2 19 1 4 3 -2 6 -13 5 -11 0 -14 -3 -6 -6z"/>
<path d="M5368 7763 c7 -3 16 -2 19 1 4 3 -2 6 -13 5 -11 0 -14 -3 -6 -6z"/>
<path d="M5418 7753 c7 -3 16 -2 19 1 4 3 -2 6 -13 5 -11 0 -14 -3 -6 -6z"/>
<path d="M5478 7743 c7 -3 16 -2 19 1 4 3 -2 6 -13 5 -11 0 -14 -3 -6 -6z"/>
<path d="M4708 7683 c-24 -4 -26 -7 -18 -23 12 -23 48 -35 184 -60 150 -27
222 -49 243 -72 17 -19 17 -20 -2 -34 -34 -25 -136 -21 -294 13 -268 57 -258
56 -369 44 -57 -7 -145 -23 -195 -35 -95 -24 -350 -116 -343 -123 2 -2 48 1
102 8 198 23 335 22 572 -5 122 -14 267 -35 321 -46 80 -16 131 -19 277 -18
175 3 182 2 339 -35 225 -53 307 -60 447 -43 62 8 146 18 187 22 74 7 74 7
-40 55 -102 43 -115 46 -133 33 -51 -36 -235 8 -411 97 -66 34 -176 80 -245
104 -69 23 -155 54 -192 68 -37 15 -96 31 -130 36 -78 12 -263 20 -300 14z"/>
<path d="M5610 7572 c0 -11 28 -36 57 -51 12 -6 80 -27 150 -46 99 -27 133
-41 148 -60 23 -28 35 -32 35 -12 0 35 -89 85 -249 141 -103 36 -141 43 -141
28z"/>
<path d="M4153 7299 c-65 -11 -154 -44 -263 -99 -149 -74 -243 -143 -418 -301
-62 -56 -62 -56 151 50 234 117 343 160 576 227 86 25 164 47 174 50 13 4 17
-1 17 -21 0 -52 -57 -88 -275 -175 -372 -148 -533 -256 -722 -482 -35 -43 -83
-90 -106 -106 -43 -28 -118 -116 -150 -174 -19 -33 -19 -33 8 0 43 53 135 122
161 122 39 0 30 -48 -32 -173 -122 -242 -192 -456 -214 -658 -10 -86 -9 -141
4 -314 22 -282 31 -350 72 -558 19 -98 34 -199 32 -225 -3 -42 -5 -47 -28 -47
-29 0 -60 41 -91 123 -24 64 -91 353 -120 512 -18 105 -18 105 -13 15 16 -262
59 -519 109 -650 15 -38 38 -98 51 -133 13 -34 38 -115 55 -180 63 -244 86
-297 200 -467 133 -198 245 -316 524 -545 226 -186 321 -250 540 -365 72 -38
177 -98 234 -134 161 -100 251 -122 342 -82 75 32 133 34 295 10 208 -32 351
-30 467 5 48 14 126 42 174 61 48 19 102 35 120 35 36 0 41 10 17 34 -20 21
-58 20 -190 -4 -173 -33 -300 -42 -419 -30 -110 10 -165 27 -202 62 -20 19
-43 23 -186 34 -185 14 -249 28 -396 86 -439 174 -897 514 -1150 854 -46 61
-92 111 -120 129 -52 34 -85 87 -102 162 -10 44 -9 63 9 135 21 85 36 260 35
403 0 48 -13 143 -32 240 -36 179 -58 425 -47 526 7 61 9 66 41 83 42 23 70
76 130 246 233 665 560 980 1241 1196 89 28 196 70 264 105 154 79 219 93 410
86 107 -4 183 -14 290 -36 174 -37 179 -37 227 -8 57 33 197 30 313 -8 121
-39 232 -94 330 -164 47 -33 111 -79 142 -101 31 -22 69 -57 84 -78 41 -55 50
-62 24 -17 -78 134 -274 346 -402 433 -43 29 -108 67 -145 85 -68 32 -68 32
-283 39 -123 3 -277 15 -360 26 -216 31 -276 34 -375 23 -65 -8 -105 -19 -145
-39 -30 -16 -86 -45 -125 -65 -38 -20 -144 -63 -235 -95 -315 -113 -602 -251
-769 -370 -193 -137 -294 -261 -434 -532 -133 -255 -201 -457 -214 -633 -3
-48 -10 -90 -15 -93 -16 -10 -58 38 -69 80 -16 57 -4 192 25 301 27 101 99
274 157 380 21 38 60 121 88 182 60 135 90 180 173 262 136 132 295 230 628
387 279 130 322 147 494 190 162 40 211 66 190 101 -26 43 -155 53 -395 32
-125 -12 -125 -12 -151 14 -44 43 -113 55 -225 36z"/>
<path d="M5838 6854 c-5 -4 -8 -18 -8 -31 0 -33 60 -88 166 -152 359 -218 571
-401 723 -621 98 -142 205 -347 204 -389 -1 -20 -2 -63 -4 -96 -1 -34 9 -107
22 -170 19 -85 24 -140 24 -245 0 -139 -7 -171 -53 -222 -17 -20 -57 -24 -68
-7 -3 6 -10 79 -15 162 -14 257 -72 532 -144 684 -143 303 -334 496 -805 815
-213 145 -258 169 -372 202 -227 65 -521 57 -544 -16 -13 -41 22 -57 206 -94
281 -56 374 -95 610 -251 475 -315 713 -611 815 -1013 29 -115 96 -484 103
-570 6 -72 -11 -142 -65 -275 -127 -314 -314 -550 -534 -674 -30 -17 -138 -58
-239 -91 -235 -78 -269 -96 -254 -133 10 -28 64 -29 199 -7 72 12 177 23 235
24 112 3 132 9 220 70 190 130 381 376 540 699 50 100 112 211 139 247 84 112
106 217 98 470 -3 127 -10 192 -31 282 -29 132 -27 207 5 215 17 5 17 6 -1 32
-11 14 -45 91 -75 170 -64 166 -155 353 -216 444 -61 90 -240 263 -341 331
-160 106 -366 196 -483 211 -27 4 -53 3 -57 -1z"/>
<path d="M4613 6615 c-279 -72 -567 -250 -749 -463 -152 -177 -255 -369 -383
-712 -93 -250 -107 -324 -91 -491 13 -134 32 -205 90 -327 61 -128 97 -178
163 -228 28 -21 135 -120 238 -219 261 -253 365 -334 549 -429 250 -129 478
-160 790 -107 174 30 265 62 330 117 34 28 124 79 240 136 223 109 292 153
394 255 141 141 256 341 307 535 69 261 -22 728 -198 1021 -113 187 -264 338
-528 527 -286 205 -323 224 -554 295 -81 24 -190 60 -244 80 -123 44 -213 47
-354 10z m309 -157 c42 -14 78 -46 78 -70 0 -16 -9 -18 -74 -18 -158 0 -312
-42 -490 -133 -256 -130 -471 -360 -611 -652 -108 -224 -154 -412 -161 -660
-6 -198 -8 -207 -37 -203 -31 4 -64 75 -78 168 -46 301 149 834 419 1142 268
307 714 507 954 426z m280 -123 c156 -27 264 -85 256 -137 -3 -26 -12 -27
-204 -13 -132 9 -194 -2 -413 -77 -245 -83 -410 -183 -559 -337 -195 -201
-309 -459 -343 -776 -32 -303 33 -493 245 -713 102 -106 210 -187 334 -250
174 -89 291 -117 482 -116 194 2 315 32 508 126 316 154 510 348 595 596 39
114 49 302 23 432 -53 261 -165 475 -324 620 -84 77 -156 121 -257 156 -71 25
-97 28 -240 32 -189 5 -294 -10 -439 -62 -312 -112 -536 -348 -617 -651 -28
-106 -31 -291 -6 -385 89 -335 406 -574 762 -573 247 0 486 106 655 290 135
147 210 363 151 434 -33 40 -64 12 -130 -115 -99 -189 -207 -303 -356 -376
-272 -134 -563 -93 -765 109 -133 133 -187 271 -177 456 8 152 53 268 154 397
239 304 722 391 1030 186 134 -90 224 -218 287 -409 20 -60 51 -144 68 -187
74 -183 18 -389 -160 -583 -134 -146 -352 -268 -567 -316 -95 -21 -298 -21
-389 1 -98 23 -209 70 -296 124 -90 56 -216 174 -276 259 -112 156 -160 355
-135 558 52 429 314 753 731 908 127 47 261 73 455 89 270 21 299 19 386 -24
331 -165 573 -532 630 -955 41 -311 -66 -612 -297 -833 -96 -91 -177 -146
-371 -250 -292 -157 -388 -184 -653 -184 -191 1 -242 10 -406 73 -309 119
-699 488 -770 730 -14 47 -15 74 -4 225 15 229 26 312 57 431 103 394 350 708
693 880 41 21 142 60 224 87 168 55 210 75 245 112 29 31 59 33 183 11z"/>
<path d="M5028 5540 c-324 -59 -565 -353 -519 -634 38 -231 228 -397 471 -413
193 -12 385 83 505 252 56 78 119 211 142 298 15 56 16 74 5 124 -34 162 -164
302 -329 353 -75 23 -207 33 -275 20z m209 -223 c140 -72 200 -209 158 -363
-43 -159 -172 -278 -330 -304 -216 -35 -415 123 -415 330 0 91 20 128 118 217
113 102 112 101 179 129 50 21 70 24 148 21 74 -3 99 -8 142 -30z"/>
<path d="M5004 5170 c-35 -14 -64 -59 -64 -99 0 -53 20 -76 67 -76 31 0 39 -4
41 -21 4 -27 -41 -64 -77 -64 -29 0 -75 27 -96 57 -8 11 -24 46 -35 77 -16 41
-27 56 -40 56 -48 0 -67 -108 -31 -185 21 -47 70 -99 113 -121 44 -23 129 -29
185 -13 66 18 144 96 162 161 26 92 -11 182 -90 224 -31 15 -102 18 -135 4z"/>
<path d="M7020 4653 c0 -46 -75 -254 -132 -368 -111 -222 -225 -371 -487 -641
-108 -110 -243 -250 -301 -310 -117 -122 -166 -154 -318 -203 -107 -35 -305
-75 -451 -91 -110 -12 -210 -3 -276 25 -19 7 -98 28 -177 45 -187 40 -305 79
-456 151 -297 140 -563 358 -735 602 -77 108 -108 140 -134 135 -29 -5 -27
-48 6 -148 38 -112 88 -186 206 -309 281 -291 682 -527 1067 -628 88 -23 124
-27 248 -27 128 -1 172 4 380 42 451 81 591 139 835 344 246 207 407 412 551
703 133 267 234 649 186 697 -9 9 -12 5 -12 -19z"/>
<path d="M3519 4249 c-21 -41 4 -92 78 -156 87 -76 118 -107 236 -235 298
-326 692 -544 1032 -573 75 -6 123 3 275 50 78 24 157 39 600 110 85 14 179
25 208 25 81 0 132 34 132 89 0 34 -43 36 -243 11 -103 -12 -211 -20 -239 -18
-64 7 -152 -4 -366 -42 -209 -38 -326 -46 -432 -31 -246 36 -509 164 -735 357
-44 38 -150 137 -235 220 -86 83 -175 165 -199 182 -52 38 -95 42 -112 11z"/>
<path d="M3370 4051 c-23 -44 2 -160 45 -208 25 -28 25 -28 41 -8 26 34 5 176
-33 217 -21 23 -40 23 -53 -1z"/>
<path d="M6714 3442 c-274 -254 -419 -364 -589 -446 -156 -76 -308 -116 -620
-161 -188 -28 -238 -44 -243 -83 -5 -31 29 -37 198 -36 145 2 381 33 525 70
125 32 331 169 476 316 81 83 324 389 307 388 -1 0 -26 -22 -54 -48z"/>
<path d="M3300 3390 c115 -152 208 -257 351 -392 77 -73 162 -161 189 -195
114 -143 562 -392 688 -381 91 8 31 66 -177 173 -194 98 -348 198 -441 285
-36 34 -130 116 -210 183 -80 66 -181 155 -226 197 -45 41 -117 107 -160 145
-78 70 -78 70 -14 -15z"/>
<path d="M5909 3396 c-13 -14 -291 -77 -459 -105 -222 -38 -276 -49 -312 -68
-35 -17 -36 -47 -2 -69 72 -48 578 37 755 127 51 25 101 75 97 96 -2 13 -14
19 -38 21 -20 2 -38 1 -41 -2z"/>
<path d="M4990 2420 c-12 -7 -12 -14 -4 -27 30 -50 141 -67 366 -58 148 6 169
5 174 -9 8 -20 24 -11 24 14 0 39 -43 51 -280 75 -166 17 -258 19 -280 5z"/>
<path d="M4555 2251 c-60 -8 -60 -8 22 -9 44 -1 149 -14 233 -28 84 -14 154
-23 156 -21 2 2 -37 17 -88 32 -100 30 -210 39 -323 26z"/>
<path d="M4988 2183 c7 -3 16 -2 19 1 4 3 -2 6 -13 5 -11 0 -14 -3 -6 -6z"/>
</g>
</svg>
