<?xml version="1.0" standalone="no"?>
<!DOCTYPE svg PUBLIC "-//W3C//DTD SVG 20010904//EN"
 "http://www.w3.org/TR/2001/REC-SVG-20010904/DTD/svg10.dtd">
<svg version="1.0" xmlns="http://www.w3.org/2000/svg"
 width="1000.000000pt" height="1000.000000pt" viewBox="0 0 1000.000000 1000.000000"
 preserveAspectRatio="xMidYMid meet">
<metadata>
  <rdf:RDF
    xmlns:rdf = "http://www.w3.org/1999/02/22-rdf-syntax-ns#"
    xmlns:rdfs = "http://www.w3.org/2000/01/rdf-schema#"
    xmlns:dc = "http://purl.org/dc/elements/1.1/"
    xmlns:cc = "http://creativecommons.org/ns#">
    <cc:license rdf:resource="http://creativecommons.org/publicdomain/zero/1.0/deed.en"/>
    <cc:permits rdf:resource="http://creativecommons.org/ns#Reproduction"/>
    <rdf:Description about="https://nft.mir.one/fingerprints"
      dc:title="TON Fingerprints"
      dc:description="This is a unique digital fingerprint created based on the algorithm for generating basic rings using a noise texture. Like human fingerprints, you can now use it for the Web3 and Metaverse era as digital biometric information."
      dc:publisher="https://nft.mir.one"
      dc:date="2022-02-22"
      dc:format="image/svg+xml"
      dc:language="en" >
      <dc:creator>
      <rdf:Bag>
        <rdf:li>EQBondcvD2_aOFADXSWJHs4ZazQDuEl9_wNvGGPxI8hGuOFU</rdf:li>
        <rdf:li>ipfs://bafkreihj7iub3fhmhq6jn62noukt5wxn3gv6bvcg7wmt6ywvlurefezckq</rdf:li>
      </rdf:Bag>
      </dc:creator>
    </rdf:Description>
  </rdf:RDF>
</metadata>
<rect width="100%" height="100%" fill="#1b1f23"/>
<g transform="translate(0.000000,1000.000000) scale(0.100000,-0.100000)"
fill="#ffffff" stroke="none">
<path d="M4828 7803 c7 -3 16 -2 19 1 4 3 -2 6 -13 5 -11 0 -14 -3 -6 -6z"/>
<path d="M4778 7793 c7 -3 16 -2 19 1 4 3 -2 6 -13 5 -11 0 -14 -3 -6 -6z"/>
<path d="M4738 7783 c7 -3 16 -2 19 1 4 3 -2 6 -13 5 -11 0 -14 -3 -6 -6z"/>
<path d="M4655 7759 c-22 -11 -54 -33 -71 -50 -21 -20 -101 -59 -240 -118
-175 -74 -529 -244 -471 -227 10 3 50 15 90 27 40 12 153 47 252 79 245 78
289 86 411 73 56 -6 223 -9 384 -7 157 3 306 4 332 4 52 0 105 34 90 58 -5 7
-55 22 -113 33 -127 26 -342 30 -535 10 -149 -15 -174 -10 -174 38 0 32 29 63
80 85 19 8 28 15 20 15 -8 0 -33 -9 -55 -20z"/>
<path d="M5483 7718 c15 -19 32 -48 37 -64 8 -22 29 -41 78 -69 171 -97 224
-135 412 -295 224 -190 321 -258 416 -290 63 -22 62 -21 -6 31 -25 18 -106 88
-180 154 -310 277 -399 345 -590 451 -58 32 -125 71 -149 88 -45 29 -45 29
-18 -6z"/>
<path d="M4665 7410 c-387 -18 -662 -127 -1100 -434 -60 -43 -111 -79 -112
-80 -2 -1 25 3 60 10 34 7 152 50 262 94 525 214 747 263 1185 263 439 0 579
-37 804 -213 62 -49 199 -148 302 -221 104 -72 226 -161 272 -196 180 -140
355 -330 466 -505 75 -119 89 -76 26 76 -98 235 -344 553 -530 686 -35 25
-164 120 -287 212 -378 283 -409 296 -708 309 -227 9 -422 9 -640 -1z"/>
<path d="M4730 7130 c-281 -29 -528 -97 -894 -246 -207 -85 -239 -102 -327
-172 -124 -99 -215 -207 -345 -408 -57 -89 -57 -89 45 6 250 232 288 255 710
425 484 195 711 247 1076 246 192 0 258 -8 468 -53 152 -33 178 -32 185 4 4
22 -43 74 -92 103 -113 66 -270 95 -541 100 -110 2 -238 0 -285 -5z"/>
<path d="M4822 6850 c-268 -28 -510 -100 -847 -253 -67 -30 -163 -66 -214 -81
-158 -46 -262 -109 -386 -235 -84 -86 -131 -154 -195 -286 -85 -175 -120 -305
-120 -445 0 -136 28 -460 44 -515 19 -64 73 -153 108 -178 24 -18 30 -18 58
-7 32 13 107 95 147 161 12 19 54 105 93 193 151 336 267 502 516 733 189 176
301 257 470 342 197 98 380 145 569 145 112 0 130 -3 270 -43 174 -51 245 -82
292 -129 38 -38 42 -75 7 -80 -11 -2 -69 11 -129 28 -120 33 -191 38 -255 15
-84 -29 -115 -12 -65 35 28 27 32 55 9 64 -70 27 -379 -37 -529 -109 -85 -41
-286 -172 -376 -246 -466 -381 -496 -417 -669 -819 -79 -183 -110 -242 -181
-345 -65 -95 -83 -141 -110 -273 -24 -121 -50 -175 -86 -180 -31 -5 -48 27
-78 143 -39 149 -53 190 -105 305 -46 102 -113 300 -130 384 -8 41 -8 41 -9 1
-2 -61 25 -274 53 -420 49 -256 79 -362 138 -479 22 -43 64 -153 95 -245 92
-276 140 -384 243 -540 179 -273 610 -601 1016 -774 186 -80 438 -150 719
-202 200 -37 309 -41 490 -17 152 20 365 62 365 72 0 3 -37 11 -82 18 -46 7
-118 24 -161 38 -85 28 -142 29 -212 1 -89 -36 -304 -9 -662 83 -255 66 -501
169 -676 283 -213 139 -476 382 -585 540 -116 168 -192 375 -192 522 0 88 14
139 80 295 70 165 91 230 151 455 94 351 183 577 276 700 64 83 133 116 133
63 0 -11 -27 -79 -59 -152 -100 -219 -132 -341 -134 -496 -1 -149 37 -246 113
-285 16 -8 63 -24 107 -36 43 -11 151 -50 239 -85 230 -91 293 -107 444 -108
102 0 140 4 205 22 273 79 445 280 445 522 0 306 -247 529 -540 489 -274 -39
-440 -346 -313 -582 91 -168 346 -209 495 -78 114 100 104 282 -18 341 -59 29
-108 22 -146 -20 -36 -39 -37 -83 -3 -106 23 -15 27 -15 51 1 32 20 54 6 54
-36 0 -91 -136 -123 -220 -52 -43 36 -60 74 -60 135 1 129 106 231 240 232
117 0 215 -60 268 -165 61 -119 52 -243 -25 -357 -44 -64 -91 -103 -175 -142
-160 -74 -359 -57 -513 45 -116 78 -150 161 -143 349 8 187 57 313 165 427 95
100 220 149 381 149 180 0 332 -59 447 -175 115 -115 173 -251 182 -430 10
-184 -44 -322 -177 -456 -176 -177 -451 -270 -713 -241 -114 13 -185 30 -395
97 -178 56 -250 60 -294 18 -44 -42 -37 -55 45 -85 39 -14 124 -47 187 -73
180 -74 318 -106 486 -112 87 -4 166 -1 208 6 149 26 384 122 500 205 124 88
236 233 289 372 39 105 23 360 -34 535 -73 225 -234 385 -459 457 -97 32 -180
42 -337 42 -231 0 -312 -27 -431 -146 -58 -58 -81 -90 -117 -166 -77 -164
-115 -332 -115 -515 0 -60 -4 -86 -15 -97 -25 -24 -61 -1 -90 58 -21 41 -25
64 -25 131 0 114 12 170 90 413 59 181 75 222 111 268 49 64 156 147 261 204
85 45 92 52 102 94 15 64 107 117 251 147 115 24 172 24 226 0 40 -18 320 -70
464 -86 82 -10 132 -33 191 -91 66 -65 126 -154 185 -278 91 -192 130 -394
109 -567 -15 -128 -42 -193 -105 -254 -39 -37 -67 -79 -108 -161 -78 -155
-185 -311 -261 -381 -81 -74 -222 -148 -451 -236 -208 -80 -268 -92 -440 -84
-190 9 -390 60 -550 139 -103 52 -158 100 -211 186 -8 14 -48 -16 -60 -44 -12
-29 -12 -39 2 -81 19 -56 63 -123 100 -152 15 -12 48 -27 73 -35 25 -7 96 -34
156 -59 192 -79 312 -101 620 -113 148 -6 178 -10 235 -32 127 -49 322 -29
608 63 242 78 419 185 410 247 -6 46 -56 36 -304 -58 -268 -102 -414 -146
-554 -169 -105 -16 -140 -14 -140 10 0 26 54 56 169 91 150 47 286 101 412
165 85 42 115 52 183 59 224 24 354 112 475 324 150 264 214 549 191 857 -27
346 -68 467 -217 629 -70 76 -109 98 -142 80 -35 -18 -26 -62 45 -202 122
-242 149 -360 148 -643 0 -184 -2 -208 -27 -298 -72 -269 -230 -504 -420 -626
-63 -41 -69 -43 -85 -28 -14 15 -15 19 0 49 8 18 46 71 83 117 150 185 256
371 297 518 18 66 22 105 22 253 0 250 -13 300 -178 685 -87 202 -100 225
-166 303 -132 154 -283 248 -475 295 -163 41 -242 51 -395 51 -327 0 -681
-121 -924 -314 -104 -83 -359 -359 -464 -502 -125 -171 -253 -417 -317 -611
-27 -83 -55 -152 -62 -155 -27 -8 -47 48 -46 132 1 112 18 184 60 252 20 33
71 123 115 202 118 215 180 304 358 507 58 66 129 153 158 192 31 42 82 94
120 123 139 104 421 220 662 271 91 20 135 23 330 23 203 1 241 -2 385 -27
275 -48 361 -87 608 -273 84 -63 191 -134 238 -160 130 -69 235 -173 432 -428
17 -21 36 -36 49 -36 38 0 105 -40 131 -78 78 -112 117 -277 117 -489 0 -81
-7 -175 -16 -228 -46 -263 -258 -768 -432 -1029 -76 -113 -182 -226 -297 -316
-60 -47 -151 -124 -201 -172 -71 -66 -113 -96 -176 -127 -168 -81 -420 -133
-648 -133 -241 -1 -417 40 -651 153 -153 74 -191 82 -197 42 -4 -30 16 -57 80
-106 157 -119 466 -220 713 -234 86 -5 128 0 310 32 322 57 475 113 680 251
277 186 485 396 582 588 99 197 241 637 289 901 22 114 29 398 15 525 -24 206
-69 365 -147 522 -37 74 -53 95 -111 141 -38 30 -140 126 -228 214 -221 220
-536 455 -749 559 -96 47 -118 51 -208 32 -49 -10 -83 -9 -232 11 -197 25
-421 34 -544 21z m-1027 -480 c12 -19 -29 -74 -153 -204 -184 -193 -273 -323
-356 -522 -63 -152 -79 -183 -92 -188 -46 -18 -52 123 -10 249 58 172 197 378
349 521 122 114 240 179 262 144z"/>
<path d="M4955 6014 c-141 -18 -268 -63 -263 -93 7 -35 67 -51 193 -51 225 0
412 -37 565 -112 68 -34 102 -60 171 -128 140 -140 202 -289 234 -564 9 -78
21 -138 30 -153 58 -88 119 114 96 319 -32 282 -165 518 -356 633 -132 79
-528 167 -670 149z"/>
<path d="M6674 5695 c-18 -44 -18 -54 3 -269 14 -150 15 -198 5 -305 -27 -298
-146 -607 -332 -861 -38 -52 -91 -133 -117 -179 -114 -198 -285 -290 -713
-378 -140 -28 -332 -35 -450 -15 -95 16 -252 31 -452 41 -211 12 -279 31 -432
122 -74 44 -109 59 -131 57 -89 -9 10 -168 169 -272 56 -37 106 -57 226 -90
44 -12 60 -23 77 -50 42 -66 258 -145 476 -175 128 -18 349 -14 484 9 266 45
490 144 466 206 -11 28 -53 25 -224 -20 -283 -73 -473 -91 -703 -66 -95 11
-473 84 -483 94 -11 11 7 37 32 46 40 15 114 12 320 -15 321 -42 501 -34 795
35 69 16 170 36 225 45 102 17 158 39 243 96 234 159 535 673 649 1107 32 124
36 153 40 307 6 188 -8 303 -51 427 -26 75 -68 138 -92 138 -8 0 -22 -16 -30
-35z"/>
<path d="M2912 5250 c0 -14 2 -19 5 -12 2 6 2 18 0 25 -3 6 -5 1 -5 -13z"/>
<path d="M3708 4169 c-64 -37 -67 -198 -8 -360 59 -163 161 -300 375 -507 168
-162 243 -221 370 -291 172 -95 313 -143 730 -246 265 -66 343 -80 378 -66 33
13 36 45 5 65 -13 7 -57 26 -98 41 -49 18 -86 40 -107 62 -32 33 -38 35 -190
59 -198 31 -357 72 -496 128 -200 82 -312 164 -388 284 -24 38 -96 120 -168
192 -156 155 -184 202 -256 426 -65 204 -93 245 -147 213z"/>
<path d="M6940 3990 c-7 -28 -10 -53 -8 -55 3 -3 10 18 16 47 7 28 11 53 8 55
-2 2 -9 -19 -16 -47z"/>
<path d="M6867 3783 c-14 -21 -94 -108 -178 -194 -214 -217 -362 -324 -613
-445 -201 -96 -336 -132 -597 -159 -54 -6 -119 -35 -119 -55 0 -17 39 -31 143
-51 175 -33 206 -29 439 52 111 39 235 86 273 104 201 92 440 346 617 655 52
91 71 130 64 130 -2 0 -15 -17 -29 -37z"/>
<path d="M3307 3340 c85 -130 313 -367 473 -491 346 -269 743 -443 1146 -503
138 -21 401 -34 559 -28 130 5 130 5 70 24 -33 10 -139 30 -235 44 -675 97
-1051 241 -1565 598 -71 49 -152 108 -180 131 -27 22 -81 65 -120 94 -38 30
-90 75 -114 100 -24 25 -40 39 -34 31z"/>
<path d="M6385 2943 c-27 -8 -93 -28 -145 -43 -52 -16 -147 -43 -210 -60 -151
-40 -185 -58 -185 -95 0 -38 35 -47 119 -30 119 25 332 130 456 226 29 22 30
22 -35 2z"/>
<path d="M4280 2360 c8 -5 20 -10 25 -10 6 0 3 5 -5 10 -8 5 -19 10 -25 10 -5
0 -3 -5 5 -10z"/>
<path d="M4330 2342 c43 -27 380 -127 403 -119 6 2 -29 14 -78 26 -49 12 -139
38 -200 58 -149 48 -143 47 -125 35z"/>
<path d="M5628 2313 c7 -3 16 -2 19 1 4 3 -2 6 -13 5 -11 0 -14 -3 -6 -6z"/>
<path d="M4758 2213 c6 -2 18 -2 25 0 6 3 1 5 -13 5 -14 0 -19 -2 -12 -5z"/>
<path d="M4808 2203 c6 -2 18 -2 25 0 6 3 1 5 -13 5 -14 0 -19 -2 -12 -5z"/>
<path d="M4858 2193 c6 -2 18 -2 25 0 6 3 1 5 -13 5 -14 0 -19 -2 -12 -5z"/>
</g>
</svg>
