<?xml version="1.0" standalone="no"?>
<!DOCTYPE svg PUBLIC "-//W3C//DTD SVG 20010904//EN"
 "http://www.w3.org/TR/2001/REC-SVG-20010904/DTD/svg10.dtd">
<svg version="1.0" xmlns="http://www.w3.org/2000/svg"
 width="1000.000000pt" height="1000.000000pt" viewBox="0 0 1000.000000 1000.000000"
 preserveAspectRatio="xMidYMid meet">
<metadata>
  <rdf:RDF
    xmlns:rdf = "http://www.w3.org/1999/02/22-rdf-syntax-ns#"
    xmlns:rdfs = "http://www.w3.org/2000/01/rdf-schema#"
    xmlns:dc = "http://purl.org/dc/elements/1.1/"
    xmlns:cc = "http://creativecommons.org/ns#">
    <cc:license rdf:resource="http://creativecommons.org/publicdomain/zero/1.0/deed.en"/>
    <cc:permits rdf:resource="http://creativecommons.org/ns#Reproduction"/>
    <rdf:Description about="https://nft.mir.one/fingerprints"
      dc:title="TON Fingerprints"
      dc:description="This is a unique digital fingerprint created based on the algorithm for generating basic rings using a noise texture. Like human fingerprints, you can now use it for the Web3 and Metaverse era as digital biometric information."
      dc:publisher="https://nft.mir.one"
      dc:date="2022-02-22"
      dc:format="image/svg+xml"
      dc:language="en" >
      <dc:creator>
      <rdf:Bag>
        <rdf:li>EQBondcvD2_aOFADXSWJHs4ZazQDuEl9_wNvGGPxI8hGuOFU</rdf:li>
        <rdf:li>ipfs://bafkreihj7iub3fhmhq6jn62noukt5wxn3gv6bvcg7wmt6ywvlurefezckq</rdf:li>
      </rdf:Bag>
      </dc:creator>
    </rdf:Description>
  </rdf:RDF>
</metadata>
<rect width="100%" height="100%" fill="#1b1f23"/>
<g transform="translate(0.000000,1000.000000) scale(0.100000,-0.100000)"
fill="#ffffff" stroke="none">
<path d="M5085 7782 c20 -19 115 -42 335 -82 124 -23 236 -43 250 -46 25 -4
25 -4 0 6 -46 20 -294 79 -420 100 -69 11 -136 23 -150 26 -16 3 -21 2 -15 -4z"/>
<path d="M4570 7669 c-41 -5 -100 -8 -132 -7 -49 3 -55 1 -47 -13 16 -30 73
-47 234 -68 188 -26 232 -35 465 -101 96 -27 261 -72 365 -100 232 -63 527
-160 695 -230 121 -50 283 -111 287 -107 6 6 -282 201 -368 249 -229 128 -402
191 -829 300 -310 79 -317 81 -455 84 -77 1 -174 -2 -215 -7z"/>
<path d="M4220 7450 c-118 -25 -445 -151 -423 -162 45 -25 115 -31 291 -22
381 17 471 11 782 -57 426 -94 753 -193 1295 -393 211 -78 384 -127 460 -129
30 -1 55 -1 55 0 0 7 -148 104 -277 182 -166 100 -210 120 -475 217 -265 96
-790 246 -1078 308 -174 38 -424 76 -488 75 -31 0 -95 -9 -142 -19z"/>
<path d="M4340 7130 c-82 -20 -69 -85 25 -129 66 -31 203 -67 504 -132 407
-88 559 -132 886 -256 94 -36 249 -92 345 -125 298 -102 472 -180 665 -298 57
-35 133 -65 143 -56 2 2 -10 19 -26 37 -15 19 -49 61 -74 94 -63 84 -201 220
-251 249 -23 14 -125 54 -227 89 -102 36 -291 104 -420 150 -421 152 -655 220
-1045 306 -300 66 -458 88 -525 71z"/>
<path d="M3745 7036 c-83 -32 -108 -44 -209 -103 -89 -51 -89 -51 -42 -58 26
-4 73 -5 104 -2 79 7 211 -9 274 -33 29 -11 87 -45 128 -76 100 -75 233 -152
300 -176 90 -31 416 -88 508 -88 97 0 306 -24 407 -47 169 -38 397 -153 558
-282 36 -29 84 -84 129 -150 56 -79 109 -138 228 -250 407 -383 445 -436 599
-832 76 -197 167 -412 218 -513 29 -58 88 -139 80 -111 -3 11 -18 87 -32 169
-31 180 -52 264 -104 417 -26 77 -45 156 -55 233 -12 95 -22 131 -54 200 -105
224 -200 326 -565 606 -82 62 -157 124 -168 138 -27 35 -24 60 7 68 78 20 301
-106 637 -359 92 -70 179 -130 193 -133 13 -3 54 -3 90 1 60 6 64 8 46 21 -11
8 -46 51 -78 96 -123 178 -155 211 -280 288 -229 143 -389 215 -579 264 -136
34 -184 52 -372 134 -295 130 -447 175 -813 242 -412 75 -539 118 -695 235
-91 68 -120 82 -212 106 -100 25 -173 24 -248 -5z"/>
<path d="M3505 6695 c-39 -20 -100 -58 -135 -86 -36 -27 -83 -63 -104 -79 -39
-30 -39 -30 2 -30 22 0 83 11 134 25 51 14 171 36 267 50 202 29 226 38 226
80 0 49 -53 69 -200 73 -120 4 -120 4 -190 -33z"/>
<path d="M3780 6469 c-229 -45 -372 -80 -411 -100 -53 -26 -144 -106 -227
-198 -72 -80 -73 -81 -40 -75 18 4 69 22 113 41 222 96 373 138 667 183 145
22 189 38 213 74 14 21 15 29 3 53 -29 61 -96 66 -318 22z"/>
<path d="M4803 6363 c-4 -9 1 -30 11 -46 15 -27 15 -32 2 -46 -18 -17 -38 -13
-161 34 -130 49 -251 42 -285 -17 -30 -55 14 -86 222 -157 195 -68 243 -90
438 -201 192 -110 268 -143 377 -164 133 -25 163 -45 432 -294 93 -86 187
-162 258 -208 127 -83 203 -156 276 -263 67 -100 165 -307 222 -471 55 -156
83 -215 134 -285 53 -71 85 -129 120 -216 16 -42 39 -92 50 -110 20 -33 20
-33 15 56 -12 185 -45 338 -95 436 -15 32 -63 140 -105 241 -105 253 -191 430
-254 523 -66 97 -165 201 -386 406 -94 86 -235 231 -314 321 -78 90 -161 180
-184 201 -157 144 -414 262 -498 228 -62 -24 -24 -76 115 -157 111 -66 227
-155 255 -198 27 -40 27 -89 -1 -94 -19 -4 -237 127 -349 210 -83 61 -107 89
-154 179 -20 38 -48 79 -62 89 -30 24 -70 26 -79 3z"/>
<path d="M3715 6160 c-129 -26 -193 -45 -340 -103 -115 -45 -136 -57 -186
-107 -78 -78 -121 -149 -164 -271 -19 -57 -49 -125 -65 -151 -29 -48 -29 -48
9 -48 21 0 56 6 77 14 22 7 85 23 142 35 56 12 190 53 297 92 235 83 548 175
652 191 204 30 527 -69 851 -260 265 -157 404 -285 521 -480 59 -99 96 -209
111 -332 10 -87 9 -101 -10 -159 -35 -111 -28 -168 64 -494 45 -163 62 -287
81 -612 27 -448 34 -530 51 -606 20 -88 15 -198 -14 -309 -20 -77 -38 -179
-29 -170 26 26 141 194 216 313 98 157 120 208 142 327 19 105 17 431 -4 585
-9 66 -20 141 -23 168 -7 45 -6 47 19 47 62 0 107 -153 127 -423 12 -177 -1
-359 -39 -532 -52 -237 -50 -240 39 -60 44 88 92 201 107 250 25 82 27 103 26
240 -1 258 -33 398 -153 692 -90 218 -101 239 -258 492 -63 100 -121 199 -129
218 -18 45 -10 83 19 83 30 0 82 -61 192 -225 52 -78 123 -174 156 -212 34
-37 70 -85 81 -105 26 -50 135 -436 164 -583 29 -146 45 -286 45 -398 0 -46 3
-118 6 -160 7 -77 7 -77 40 53 43 167 68 338 61 416 -3 33 -26 153 -51 266
-40 179 -46 221 -46 323 0 281 -64 507 -204 725 -51 78 -148 186 -187 206 -43
22 -78 18 -90 -10 -15 -32 1 -64 106 -206 144 -195 235 -407 196 -454 -21 -25
-40 -7 -98 93 -91 158 -156 251 -237 341 -60 66 -89 110 -132 198 -63 127
-133 220 -255 338 -119 114 -184 157 -465 306 -309 163 -377 195 -569 268 -84
32 -193 79 -243 104 -74 37 -106 47 -175 55 -46 5 -111 19 -145 30 -76 26
-164 26 -287 1z m283 -128 c8 -53 -50 -85 -313 -172 -104 -35 -264 -94 -355
-132 -174 -73 -213 -80 -218 -39 -3 17 8 34 43 66 103 96 375 207 685 280 127
29 154 29 158 -3z m1777 -1496 c59 -63 198 -372 240 -536 18 -70 16 -115 -10
-200 -15 -50 -15 -80 -5 -315 16 -361 -5 -576 -60 -605 -34 -18 -40 17 -40
227 0 254 -18 766 -31 863 -5 45 -41 168 -89 311 -44 130 -80 248 -80 262 0
39 35 35 75 -7z"/>
<path d="M4060 5630 c-186 -26 -447 -102 -688 -199 -157 -64 -243 -112 -281
-157 -37 -46 -82 -151 -136 -321 -42 -132 -42 -132 -11 -110 17 12 40 33 51
47 83 102 179 199 253 255 209 158 543 275 831 292 432 24 840 -193 991 -531
34 -75 46 -130 60 -265 8 -79 23 -143 66 -275 64 -195 77 -222 134 -291 98
-116 128 -239 155 -620 9 -131 23 -255 35 -305 54 -229 30 -459 -74 -725 -43
-110 -66 -173 -66 -184 0 -12 125 117 180 186 85 105 108 159 122 283 9 87 8
138 -6 295 -9 105 -26 303 -37 440 -28 358 -48 472 -124 695 -54 159 -72 239
-95 420 -31 249 -72 375 -170 521 -96 143 -301 314 -489 409 -106 52 -252 105
-344 124 -98 20 -270 28 -357 16z"/>
<path d="M6902 5558 c-30 -30 -4 -108 61 -184 27 -30 47 -43 82 -51 46 -10 46
-10 27 11 -10 11 -43 66 -72 121 -61 116 -73 128 -98 103z"/>
<path d="M3987 5279 c-214 -21 -441 -106 -607 -229 -76 -56 -270 -253 -293
-295 -36 -72 -74 -225 -102 -425 -7 -45 -7 -45 27 -5 18 21 52 71 75 110 58
99 149 206 320 381 135 137 155 154 233 191 277 134 637 131 918 -8 161 -79
250 -178 169 -187 -17 -2 -90 19 -175 51 -218 82 -273 92 -487 92 -157 0 -190
-3 -258 -23 -101 -29 -188 -73 -221 -112 -33 -40 -33 -57 0 -72 21 -10 51 -7
167 17 251 51 453 38 737 -51 158 -48 347 -94 392 -94 42 0 68 27 68 72 0 35
-70 223 -103 274 -29 46 -106 123 -161 160 -64 44 -196 101 -281 123 -70 18
-273 43 -315 40 -8 -1 -54 -5 -103 -10z"/>
<path d="M6943 5135 c-15 -41 41 -210 101 -303 31 -48 60 -86 42 -54 -4 7 -25
81 -46 165 -21 83 -43 164 -49 180 -11 29 -38 36 -48 12z"/>
<path d="M3785 4650 c-27 -5 -99 -14 -160 -19 -143 -14 -193 -38 -300 -145
-90 -90 -150 -175 -173 -245 -25 -77 -22 -349 5 -486 22 -109 72 -270 55 -180
-14 79 -7 326 12 394 62 230 213 407 407 479 147 54 375 69 509 31 79 -21 276
-120 395 -196 225 -146 329 -386 329 -758 -1 -247 -48 -422 -139 -510 -57 -55
-73 -88 -55 -110 19 -22 28 -19 67 25 28 31 39 37 50 29 7 -6 13 -20 13 -31 0
-22 -34 -91 -66 -133 -12 -16 -59 -97 -105 -180 -45 -82 -95 -169 -111 -192
-15 -23 -37 -62 -48 -88 -19 -45 -19 -45 33 -19 94 48 186 112 214 152 43 59
149 259 177 334 29 76 109 397 131 527 26 148 13 673 -21 806 -50 200 -152
285 -495 414 -225 84 -316 103 -509 107 -91 1 -187 -1 -215 -6z"/>
<path d="M3792 4350 c-227 -60 -394 -228 -446 -450 -32 -135 -14 -253 61 -408
82 -169 220 -289 387 -337 121 -35 338 -15 433 41 103 60 173 176 196 323 15
100 32 119 72 81 79 -74 51 -281 -61 -451 -24 -36 -60 -77 -81 -91 -37 -25
-44 -26 -250 -31 -258 -7 -312 0 -422 55 -112 56 -276 173 -336 240 -55 61
-50 48 11 -32 56 -74 133 -151 235 -237 46 -38 90 -78 98 -87 21 -25 62 -44
132 -60 51 -12 85 -13 198 -4 132 11 139 11 182 -10 25 -12 53 -19 66 -16 15
4 30 -2 49 -21 25 -26 26 -29 22 -123 -4 -104 -18 -143 -102 -283 -34 -57 -34
-57 57 -15 126 57 155 87 205 216 39 100 50 145 72 288 5 37 29 105 55 164 70
151 88 229 88 378 0 107 -4 138 -27 215 -73 242 -230 418 -385 433 -52 5 -311
-31 -384 -53 -224 -67 -355 -266 -303 -458 22 -82 75 -151 146 -191 47 -26 65
-31 125 -31 59 0 78 5 118 28 121 71 145 236 44 297 -61 37 -153 17 -182 -40
-20 -39 -13 -80 14 -80 29 0 45 -25 31 -49 -8 -16 -21 -21 -48 -21 -71 0 -112
52 -112 141 0 147 135 248 320 237 90 -5 148 -30 208 -89 44 -43 68 -104 56
-142 -4 -12 -30 -72 -59 -134 -60 -126 -116 -192 -200 -233 -44 -22 -64 -25
-160 -25 -103 0 -114 2 -177 32 -194 92 -297 311 -243 518 36 137 127 252 250
317 88 46 160 64 304 77 81 8 119 15 133 27 39 36 12 76 -68 100 -68 20 -232
17 -322 -6z"/>
<path d="M6612 4158 c-21 -21 -14 -74 37 -287 27 -114 52 -226 56 -251 4 -25
14 -69 23 -99 17 -54 17 -54 24 -20 14 61 21 371 10 429 -30 159 -105 273
-150 228z"/>
<path d="M5193 3993 c-16 -25 -18 -52 -14 -308 4 -317 -1 -356 -70 -591 -108
-372 -172 -520 -310 -719 -84 -120 -122 -180 -102 -164 10 9 43 29 73 44 73
37 162 98 205 141 69 69 162 285 235 544 18 64 51 152 76 198 59 112 68 173
61 392 -10 300 -57 490 -122 490 -8 0 -23 -12 -32 -27z"/>
<path d="M3220 3525 c0 -5 5 -17 10 -25 5 -8 10 -10 10 -5 0 6 -5 17 -10 25
-5 8 -10 11 -10 5z"/>
<path d="M5357 3088 c-8 -18 -27 -91 -42 -163 -46 -224 -119 -417 -223 -590
-20 -33 -46 -81 -58 -106 -22 -46 -22 -46 65 15 47 33 116 91 153 128 56 57
71 80 98 150 57 146 81 260 87 405 7 149 -3 193 -42 193 -16 0 -27 -10 -38
-32z"/>
<path d="M3620 2930 c-9 -6 -10 -10 -3 -10 6 0 15 5 18 10 8 12 4 12 -15 0z"/>
<path d="M4030 2819 c-256 -52 -306 -64 -280 -67 14 -1 55 -9 92 -17 99 -22
215 -19 283 6 63 24 103 54 107 84 4 29 -32 28 -202 -6z"/>
<path d="M4078 2626 c-64 -39 -116 -72 -115 -72 1 -1 41 2 90 6 130 12 207 65
183 125 -9 26 -37 15 -158 -59z"/>
</g>
</svg>
