<?xml version="1.0" standalone="no"?>
<!DOCTYPE svg PUBLIC "-//W3C//DTD SVG 20010904//EN"
 "http://www.w3.org/TR/2001/REC-SVG-20010904/DTD/svg10.dtd">
<svg version="1.0" xmlns="http://www.w3.org/2000/svg"
 width="1000.000000pt" height="1000.000000pt" viewBox="0 0 1000.000000 1000.000000"
 preserveAspectRatio="xMidYMid meet">
<metadata>
  <rdf:RDF
    xmlns:rdf = "http://www.w3.org/1999/02/22-rdf-syntax-ns#"
    xmlns:rdfs = "http://www.w3.org/2000/01/rdf-schema#"
    xmlns:dc = "http://purl.org/dc/elements/1.1/"
    xmlns:cc = "http://creativecommons.org/ns#">
    <cc:license rdf:resource="http://creativecommons.org/publicdomain/zero/1.0/deed.en"/>
    <cc:permits rdf:resource="http://creativecommons.org/ns#Reproduction"/>
    <rdf:Description about="https://nft.mir.one/fingerprints"
      dc:title="TON Fingerprints"
      dc:description="This is a unique digital fingerprint created based on the algorithm for generating basic rings using a noise texture. Like human fingerprints, you can now use it for the Web3 and Metaverse era as digital biometric information."
      dc:publisher="https://nft.mir.one"
      dc:date="2022-02-22"
      dc:format="image/svg+xml"
      dc:language="en" >
      <dc:creator>
      <rdf:Bag>
        <rdf:li>EQBondcvD2_aOFADXSWJHs4ZazQDuEl9_wNvGGPxI8hGuOFU</rdf:li>
        <rdf:li>ipfs://bafkreihj7iub3fhmhq6jn62noukt5wxn3gv6bvcg7wmt6ywvlurefezckq</rdf:li>
      </rdf:Bag>
      </dc:creator>
    </rdf:Description>
  </rdf:RDF>
</metadata>
<rect width="100%" height="100%" fill="#1b1f23"/>
<g transform="translate(0.000000,1000.000000) scale(0.100000,-0.100000)"
fill="#ffffff" stroke="none">
<path d="M4520 7717 c-95 -12 -95 -12 0 -18 52 -4 126 -7 165 -8 61 -1 67 1
55 14 -21 20 -109 25 -220 12z"/>
<path d="M4378 7693 c7 -3 16 -2 19 1 4 3 -2 6 -13 5 -11 0 -14 -3 -6 -6z"/>
<path d="M4850 7651 c-19 -4 -59 -20 -89 -35 -34 -18 -113 -40 -214 -62 -227
-47 -282 -68 -578 -218 -264 -134 -264 -134 -214 -139 27 -4 95 0 150 8 149
22 226 20 259 -6 59 -46 122 -61 311 -71 293 -15 463 -35 593 -70 91 -25 133
-32 190 -30 65 2 75 0 97 -22 46 -46 22 -74 -35 -41 -49 28 -91 14 -71 -23 17
-31 64 -46 105 -32 42 13 59 6 189 -83 176 -120 357 -317 471 -512 286 -491
401 -1463 216 -1825 -24 -47 -64 -83 -87 -78 -26 5 -23 65 10 219 40 186 51
355 38 545 -50 685 -304 1208 -726 1494 -70 48 -373 196 -459 225 -114 38
-258 63 -487 85 -118 11 -263 27 -324 34 -342 45 -465 23 -687 -122 -102 -66
-102 -67 -68 -70 19 -2 76 1 125 7 61 7 111 7 155 1 36 -6 216 -14 400 -19
201 -6 383 -16 455 -25 767 -104 1260 -560 1419 -1311 53 -254 59 -541 17
-792 -11 -67 -26 -166 -31 -220 -6 -54 -17 -121 -25 -148 -8 -28 -13 -82 -12
-120 3 -105 -29 -162 -167 -301 -167 -167 -329 -279 -584 -401 -281 -135 -427
-184 -602 -204 -306 -35 -711 75 -785 213 -18 34 -19 39 -4 53 15 15 27 12
150 -35 233 -90 373 -116 584 -107 152 6 279 35 444 102 289 116 542 276 729
463 129 127 189 225 156 253 -33 27 -86 -6 -224 -136 -172 -162 -322 -269
-520 -370 -253 -128 -421 -170 -650 -162 -157 6 -232 19 -403 73 -61 19 -151
42 -201 50 -125 21 -167 44 -267 143 -328 328 -447 841 -314 1357 92 357 381
660 757 792 144 51 242 65 408 59 214 -8 370 -56 541 -169 387 -255 559 -753
403 -1167 -73 -193 -253 -382 -439 -461 -58 -24 -66 -25 -270 -24 -286 2 -372
23 -460 113 -21 23 -44 41 -50 41 -6 0 -25 -16 -42 -35 -17 -19 -36 -35 -42
-35 -19 0 -39 43 -60 125 -32 131 -44 273 -38 467 6 210 13 229 100 298 68 53
116 116 124 163 4 28 1 35 -21 45 -87 39 -249 -40 -409 -201 -110 -109 -167
-255 -167 -427 0 -172 65 -330 134 -330 31 0 35 23 20 116 -23 136 -26 225
-10 314 19 104 61 191 99 204 14 5 30 7 33 3 4 -4 -3 -61 -16 -127 -20 -106
-22 -138 -17 -282 3 -96 1 -183 -5 -211 -8 -41 -7 -53 12 -92 26 -54 88 -109
144 -128 22 -8 76 -37 119 -65 116 -76 117 -76 388 -69 197 5 240 3 256 -9 17
-14 17 -14 -2 -29 -37 -29 -120 -46 -250 -52 -143 -6 -168 -13 -163 -46 6 -40
69 -61 183 -61 125 0 218 26 307 87 35 24 95 61 133 82 258 143 434 311 534
510 195 391 93 946 -237 1296 -298 316 -781 451 -1190 333 -360 -104 -714
-384 -874 -689 -51 -99 -74 -181 -102 -373 -47 -314 -45 -522 10 -792 49 -237
119 -416 228 -579 89 -132 313 -399 383 -455 116 -94 296 -161 498 -187 122
-15 425 -6 518 15 59 14 308 129 642 299 286 145 492 321 698 597 63 85 143
187 176 225 101 117 156 241 188 425 24 142 21 534 -7 690 -11 63 -32 183 -46
265 -75 426 -179 718 -335 940 -90 127 -298 333 -452 447 -187 139 -292 186
-517 235 -110 23 -455 23 -719 -1 -124 -11 -188 -13 -194 -7 -20 20 10 58 65
85 54 26 105 36 473 91 219 33 345 31 498 -9 395 -102 906 -541 1097 -942 79
-164 151 -470 224 -949 46 -297 56 -412 56 -624 0 -382 -81 -647 -244 -800
-39 -36 -109 -106 -155 -156 -363 -385 -531 -510 -896 -670 -295 -129 -321
-144 -313 -182 3 -15 13 -18 63 -17 94 2 308 80 540 197 260 130 409 252 721
590 54 59 77 77 98 77 23 0 26 -4 26 -33 0 -54 -66 -152 -190 -280 -129 -134
-268 -254 -380 -329 -200 -133 -654 -308 -798 -308 -25 0 -71 5 -102 12 -45 9
-85 8 -206 -5 -356 -40 -743 -7 -954 82 -37 15 -101 52 -143 80 -90 63 -263
238 -365 371 -40 52 -90 118 -112 145 -22 28 -53 75 -70 105 -58 108 -29 31
44 -113 127 -251 293 -486 446 -630 142 -134 243 -187 354 -187 28 0 114 -7
191 -15 166 -18 337 -19 575 -5 357 22 482 47 790 161 118 44 242 90 275 101
79 29 208 117 320 219 50 44 137 122 195 171 58 49 124 113 147 141 56 68 106
173 133 277 12 46 41 145 65 220 52 161 70 247 90 418 30 252 21 404 -55 947
-22 154 -55 399 -75 545 -65 488 -68 497 -189 679 -266 399 -742 779 -1106
884 -141 41 -366 59 -470 38z m1600 -2401 c0 -5 -4 -10 -10 -10 -5 0 -10 5
-10 10 0 6 5 10 10 10 6 0 10 -4 10 -10z"/>
<path d="M5910 7536 c0 -2 8 -10 18 -17 15 -13 16 -12 3 4 -13 16 -21 21 -21
13z"/>
<path d="M5975 7485 c17 -15 77 -68 134 -119 57 -50 163 -152 235 -226 72 -74
120 -121 106 -105 -113 133 -331 345 -441 428 -35 27 -50 37 -34 22z"/>
<path d="M3583 6690 c-93 -22 -236 -152 -380 -347 -91 -122 -91 -122 -35 -91
32 18 77 49 102 69 65 53 178 127 305 198 160 91 194 130 143 165 -23 17 -81
19 -135 6z"/>
<path d="M4140 6634 c-152 -19 -237 -51 -332 -123 -29 -22 -113 -78 -186 -125
-322 -207 -395 -282 -523 -536 -50 -99 -182 -450 -170 -450 18 0 82 82 111
140 117 234 389 513 664 680 268 163 456 217 716 207 74 -3 173 -13 220 -22
566 -108 964 -509 1087 -1095 25 -121 25 -421 0 -540 -45 -207 -121 -337 -301
-515 -232 -231 -564 -416 -795 -445 -142 -18 -199 -4 -406 101 -265 135 -338
181 -444 284 -209 201 -274 338 -275 575 -1 276 107 501 321 671 138 110 308
171 514 184 264 18 478 -59 634 -228 110 -118 166 -259 167 -423 3 -389 -361
-640 -729 -503 -62 24 -119 73 -129 113 -12 50 8 51 97 7 97 -48 180 -66 258
-56 215 27 362 192 362 407 1 229 -165 418 -395 451 -88 12 -173 -3 -216 -40
-74 -62 -90 -322 -28 -466 52 -121 219 -178 299 -101 33 32 39 82 13 108 -23
24 -42 19 -59 -14 -19 -36 -35 -38 -72 -6 -25 22 -28 31 -28 88 0 47 5 70 20
90 69 93 210 65 269 -53 34 -68 34 -135 2 -204 -63 -135 -212 -175 -397 -106
-47 17 -96 41 -108 52 -44 41 -66 107 -91 267 -14 86 -36 120 -67 104 -38 -21
-48 -67 -47 -212 1 -152 30 -336 66 -427 21 -53 26 -58 68 -69 25 -7 92 -30
150 -51 104 -37 107 -37 255 -38 128 0 160 3 220 22 207 66 372 247 436 479
27 98 29 255 5 359 -81 351 -369 617 -730 675 -119 20 -321 8 -431 -24 -482
-142 -776 -538 -778 -1046 0 -233 55 -417 184 -616 60 -92 169 -204 252 -258
99 -65 386 -176 551 -213 111 -25 300 -22 409 6 307 79 609 272 908 577 89 92
123 134 146 184 103 219 133 631 69 936 -122 580 -469 981 -1000 1156 -170 56
-316 79 -526 83 -96 2 -191 1 -210 -1z"/>
<path d="M6730 6391 c-13 -25 -13 -156 0 -274 6 -51 17 -162 25 -247 20 -203
68 -541 107 -760 36 -199 39 -315 20 -665 -17 -295 -38 -364 -229 -745 -90
-179 -113 -234 -113 -267 0 -134 -139 -350 -395 -615 -121 -125 -163 -156
-377 -277 -305 -173 -376 -203 -574 -245 -259 -54 -466 -60 -525 -17 -24 18
-29 19 -29 6 0 -24 58 -44 167 -56 231 -26 558 33 764 136 129 66 413 227 454
258 135 105 259 235 395 417 94 125 147 218 219 380 32 74 89 197 125 273 152
319 193 452 207 677 5 85 14 202 19 260 16 171 13 338 -9 438 -11 48 -31 173
-45 277 -68 514 -112 792 -143 919 -13 56 -22 111 -20 124 5 28 -28 31 -43 3z"/>
<path d="M6991 5854 c0 -11 3 -14 6 -6 3 7 2 16 -1 19 -3 4 -6 -2 -5 -13z"/>
<path d="M7002 5780 c0 -14 2 -19 5 -12 2 6 2 18 0 25 -3 6 -5 1 -5 -13z"/>
<path d="M7012 5720 c0 -14 2 -19 5 -12 2 6 2 18 0 25 -3 6 -5 1 -5 -13z"/>
<path d="M7022 5655 c0 -16 2 -22 5 -12 2 9 2 23 0 30 -3 6 -5 -1 -5 -18z"/>
<path d="M7032 5595 c0 -16 2 -22 5 -12 2 9 2 23 0 30 -3 6 -5 -1 -5 -18z"/>
<path d="M7042 5530 c0 -19 2 -27 5 -17 2 9 2 25 0 35 -3 9 -5 1 -5 -18z"/>
<path d="M7052 5465 c0 -16 2 -22 5 -12 2 9 2 23 0 30 -3 6 -5 -1 -5 -18z"/>
<path d="M7062 5380 c0 -19 2 -27 5 -17 2 9 2 25 0 35 -3 9 -5 1 -5 -18z"/>
<path d="M2933 5359 c-8 -8 -6 -16 8 -30 23 -23 23 -43 4 -214 -8 -71 -17
-202 -19 -290 -4 -140 -3 -150 5 -75 5 47 21 150 36 230 34 193 42 330 19 365
-18 27 -35 32 -53 14z"/>
<path d="M7073 5285 c0 -22 2 -30 4 -17 2 12 2 30 0 40 -3 9 -5 -1 -4 -23z"/>
<path d="M7082 5175 c0 -16 2 -22 5 -12 2 9 2 23 0 30 -3 6 -5 -1 -5 -18z"/>
<path d="M2933 4565 c0 -22 2 -30 4 -17 2 12 2 30 0 40 -3 9 -5 -1 -4 -23z"/>
<path d="M2941 4454 c0 -11 3 -14 6 -6 3 7 2 16 -1 19 -3 4 -6 -2 -5 -13z"/>
<path d="M2951 4384 c0 -11 3 -14 6 -6 3 7 2 16 -1 19 -3 4 -6 -2 -5 -13z"/>
<path d="M6390 3434 c-14 -9 -81 -72 -150 -139 -147 -144 -253 -236 -336 -292
-58 -39 -61 -40 -88 -26 -41 22 -97 11 -225 -41 -168 -69 -276 -105 -409 -137
-144 -34 -158 -40 -166 -74 -7 -28 -27 -33 -46 -10 -21 26 -74 27 -282 10
-244 -21 -462 -16 -613 15 -55 11 -122 20 -149 20 -48 0 -48 0 -34 -22 23 -36
225 -133 331 -159 131 -33 279 -31 507 5 101 16 201 38 236 52 37 15 81 24
113 24 68 0 184 24 296 62 113 38 357 156 409 197 44 35 54 38 62 16 9 -23
-13 -68 -49 -103 -78 -75 -318 -193 -500 -246 -48 -14 -199 -46 -335 -72 -136
-25 -288 -57 -338 -70 -53 -14 -133 -27 -190 -30 -107 -5 -252 -21 -218 -23
11 0 89 -15 172 -31 168 -33 218 -36 245 -15 24 17 57 22 245 35 295 21 498
73 719 186 205 104 270 154 465 351 254 256 393 429 400 498 3 26 -1 30 -22
33 -14 1 -36 -5 -50 -14z"/>
</g>
</svg>
