<?xml version="1.0" standalone="no"?>
<!DOCTYPE svg PUBLIC "-//W3C//DTD SVG 20010904//EN"
 "http://www.w3.org/TR/2001/REC-SVG-20010904/DTD/svg10.dtd">
<svg version="1.0" xmlns="http://www.w3.org/2000/svg"
 width="1000.000000pt" height="1000.000000pt" viewBox="0 0 1000.000000 1000.000000"
 preserveAspectRatio="xMidYMid meet">
<metadata>
  <rdf:RDF
    xmlns:rdf = "http://www.w3.org/1999/02/22-rdf-syntax-ns#"
    xmlns:rdfs = "http://www.w3.org/2000/01/rdf-schema#"
    xmlns:dc = "http://purl.org/dc/elements/1.1/"
    xmlns:cc = "http://creativecommons.org/ns#">
    <cc:license rdf:resource="http://creativecommons.org/publicdomain/zero/1.0/deed.en"/>
    <cc:permits rdf:resource="http://creativecommons.org/ns#Reproduction"/>
    <rdf:Description about="https://nft.mir.one/fingerprints"
      dc:title="TON Fingerprints"
      dc:description="This is a unique digital fingerprint created based on the algorithm for generating basic rings using a noise texture. Like human fingerprints, you can now use it for the Web3 and Metaverse era as digital biometric information."
      dc:publisher="https://nft.mir.one"
      dc:date="2022-02-22"
      dc:format="image/svg+xml"
      dc:language="en" >
      <dc:creator>
      <rdf:Bag>
        <rdf:li>EQBondcvD2_aOFADXSWJHs4ZazQDuEl9_wNvGGPxI8hGuOFU</rdf:li>
        <rdf:li>ipfs://bafkreihj7iub3fhmhq6jn62noukt5wxn3gv6bvcg7wmt6ywvlurefezckq</rdf:li>
      </rdf:Bag>
      </dc:creator>
    </rdf:Description>
  </rdf:RDF>
</metadata>
<rect width="100%" height="100%" fill="#1b1f23"/>
<g transform="translate(0.000000,1000.000000) scale(0.100000,-0.100000)"
fill="#ffffff" stroke="none">
<path d="M4934 7750 c-131 -11 -188 -31 -297 -104 -98 -66 -169 -94 -336 -136
-47 -12 -95 -19 -108 -15 -33 8 -42 -21 -14 -48 21 -21 29 -22 179 -18 370 8
1019 -10 1201 -33 134 -18 340 -56 461 -86 41 -10 104 -21 140 -24 65 -7 65
-7 -50 49 -186 91 -292 131 -465 174 -178 45 -262 53 -577 60 -273 5 -309 8
-325 23 -16 17 -16 19 5 41 48 51 175 67 557 68 290 1 290 1 175 20 -111 18
-363 40 -425 37 -16 0 -71 -4 -121 -8z"/>
<path d="M4433 7703 c9 -2 23 -2 30 0 6 3 -1 5 -18 5 -16 0 -22 -2 -12 -5z"/>
<path d="M4518 7703 c7 -3 16 -2 19 1 4 3 -2 6 -13 5 -11 0 -14 -3 -6 -6z"/>
<path d="M5097 7294 c-5 -5 -246 -9 -535 -9 -527 0 -527 0 -612 -28 -47 -16
-131 -49 -187 -73 -56 -24 -107 -44 -114 -44 -20 0 -1 -13 39 -27 20 -7 66
-13 102 -13 66 0 204 -19 293 -39 66 -15 121 -45 141 -76 23 -35 108 -88 200
-125 202 -80 714 -241 921 -290 451 -106 588 -141 816 -209 325 -97 645 -183
699 -188 45 -4 45 -4 -34 69 -99 92 -157 132 -221 151 -28 9 -160 50 -295 91
-322 99 -406 122 -715 195 -355 84 -453 113 -644 187 -152 59 -332 110 -574
164 -107 24 -124 38 -88 73 32 33 184 35 377 7 184 -27 251 -48 317 -98 90
-70 174 -98 547 -182 434 -98 661 -163 928 -265 182 -69 236 -83 247 -66 3 6
-8 24 -27 39 -18 15 -65 57 -106 93 -40 36 -97 80 -127 98 -130 79 -551 192
-1100 296 -308 58 -317 60 -313 88 2 16 15 26 43 35 127 43 729 -64 1245 -221
143 -43 258 -70 243 -57 -4 4 -57 41 -118 83 -135 92 -295 177 -396 211 -93
31 -379 89 -544 111 -147 19 -397 31 -408 19z"/>
<path d="M3671 6935 c-61 -17 -251 -104 -251 -115 0 -10 64 -20 135 -20 152
-1 302 -46 534 -160 90 -44 229 -103 309 -131 81 -29 186 -71 234 -95 163 -82
271 -107 788 -189 289 -46 383 -68 675 -165 337 -111 773 -220 866 -217 36 1
36 1 -25 58 -84 78 -145 128 -175 144 -14 7 -105 34 -201 60 -96 26 -270 75
-386 111 -286 86 -435 124 -724 184 -273 57 -439 97 -562 136 -180 57 -521
190 -688 269 -253 121 -416 161 -529 130z"/>
<path d="M3441 6655 c-40 -14 -86 -32 -102 -40 -15 -8 -38 -15 -51 -16 -53 -1
62 -30 162 -40 95 -10 341 -65 398 -89 48 -21 16 -60 -75 -91 -45 -15 -68 -30
-92 -60 -24 -29 -59 -53 -135 -89 -57 -27 -130 -71 -164 -97 -33 -27 -86 -64
-117 -83 -54 -33 -139 -117 -237 -232 -46 -55 -46 -55 5 -38 52 18 174 86 572
319 251 148 344 195 449 231 44 14 81 31 83 37 7 19 -53 78 -109 108 -29 16
-77 48 -106 72 -67 55 -112 77 -203 103 -123 34 -192 35 -278 5z"/>
<path d="M3365 6445 c-27 -7 -82 -29 -122 -48 -72 -35 -72 -35 -30 -45 105
-27 205 -35 289 -22 105 15 158 36 158 62 0 31 -52 47 -205 63 -22 2 -62 -2
-90 -10z"/>
<path d="M4170 6344 c-8 -3 -24 -23 -34 -46 -24 -52 -60 -77 -324 -221 -119
-65 -315 -175 -434 -244 -243 -139 -277 -169 -376 -323 -30 -47 -63 -95 -74
-107 -20 -22 -20 -22 23 -1 55 25 41 16 210 130 194 130 361 224 694 393 346
175 404 199 569 236 145 33 176 48 176 84 0 35 -41 61 -122 80 -70 16 -279 29
-308 19z"/>
<path d="M3204 6201 c-32 -22 -75 -54 -94 -71 -35 -32 -35 -32 10 -25 59 9
186 68 198 91 28 56 -34 58 -114 5z"/>
<path d="M4765 6120 c-27 -4 -81 -20 -120 -34 -38 -14 -130 -44 -204 -67 -514
-156 -1262 -558 -1385 -743 -30 -45 -94 -169 -144 -278 -2 -4 14 0 35 8 42 18
117 80 264 220 52 50 138 119 190 153 250 166 869 424 1174 490 226 49 425 50
712 1 158 -27 178 -35 193 -71 17 -41 62 -73 140 -99 90 -30 183 -31 238 -2
23 12 54 22 68 22 37 0 203 -50 436 -130 111 -39 215 -70 231 -70 17 0 60 12
96 26 59 24 73 26 160 20 53 -3 120 -9 150 -12 54 -6 54 -6 -10 55 -108 105
-120 110 -276 132 -247 34 -473 98 -738 209 -191 80 -264 98 -480 116 -99 8
-232 21 -295 29 -122 15 -345 36 -370 34 -8 -1 -37 -5 -65 -9z m1000 -241 c66
-25 115 -66 115 -98 0 -28 -19 -27 -124 4 -47 13 -122 30 -167 37 -46 7 -84
18 -86 26 -6 15 14 41 42 53 33 15 155 2 220 -22z"/>
<path d="M4605 5725 c-115 -18 -188 -39 -364 -104 -86 -32 -210 -77 -276 -101
-274 -99 -519 -226 -617 -320 -52 -51 -58 -60 -58 -97 0 -42 0 -42 -107 -115
-96 -66 -110 -79 -142 -138 -31 -58 -114 -270 -107 -277 1 -2 42 34 90 78 107
98 212 168 303 203 154 58 524 190 608 216 140 43 243 63 330 64 75 1 80 0 83
-21 4 -30 -44 -54 -215 -103 -169 -48 -288 -89 -503 -170 -324 -123 -488 -215
-547 -308 -75 -117 -10 -111 274 26 268 130 446 200 828 328 226 76 342 110
429 125 127 21 173 36 195 62 38 46 -26 74 -202 88 -140 11 -186 21 -228 50
-132 93 -321 67 -744 -101 -196 -78 -281 -96 -320 -67 -11 9 -18 18 -15 21 14
13 329 164 434 207 172 71 292 107 448 133 136 24 136 24 180 69 67 70 119 82
353 81 221 0 306 -13 663 -98 125 -30 279 -64 342 -76 358 -66 544 -148 777
-343 104 -87 166 -155 194 -209 21 -41 66 -81 81 -72 6 4 8 27 5 51 -4 34 -1
46 11 50 16 7 41 -19 147 -146 48 -58 110 -111 129 -111 5 0 -40 113 -72 184
-43 94 -74 130 -169 191 -59 39 -143 111 -258 224 -179 175 -213 199 -367 260
-112 44 -215 68 -378 86 -168 19 -225 32 -374 87 -136 50 -265 83 -381 97
-118 14 -359 12 -460 -4z"/>
<path d="M6770 5471 c-35 -10 -36 -35 -3 -59 35 -24 260 -138 292 -147 20 -6
14 6 -36 72 -34 43 -78 90 -99 105 -41 28 -112 42 -154 29z"/>
<path d="M4443 5429 c-100 -10 -116 -24 -70 -67 35 -33 82 -49 233 -77 158
-30 187 -41 254 -90 50 -37 55 -38 315 -94 193 -42 248 -49 414 -56 233 -10
378 -47 568 -144 175 -90 493 -320 687 -497 59 -54 123 -109 141 -121 33 -22
33 -22 -1 75 -73 207 -126 276 -264 340 -36 16 -95 57 -132 90 -320 288 -515
378 -1008 462 -102 18 -313 60 -470 95 -373 83 -502 99 -667 84z"/>
<path d="M6624 5395 c-14 -57 50 -154 159 -243 105 -85 223 -170 271 -196 42
-22 42 -22 12 31 -83 146 -126 203 -188 250 -35 26 -94 78 -131 115 -76 75
-112 88 -123 43z"/>
<path d="M4705 4900 c-422 -84 -738 -193 -1265 -437 -118 -55 -231 -106 -250
-113 -66 -25 -101 -72 -141 -188 -10 -30 -24 -61 -30 -68 -20 -24 49 7 436
198 512 252 671 318 903 377 230 58 372 75 634 75 217 1 238 3 257 20 49 44 0
116 -100 150 -102 34 -219 31 -444 -14z"/>
<path d="M5601 4880 c-92 -25 -135 -49 -139 -79 -8 -54 9 -91 71 -157 96 -103
200 -168 352 -218 202 -66 405 -233 727 -596 111 -125 188 -198 209 -200 11 0
-39 217 -60 265 -15 34 -59 85 -150 175 -254 250 -415 368 -661 486 -208 99
-250 122 -282 152 -32 29 -36 58 -10 64 50 13 284 -68 442 -154 103 -56 288
-183 390 -268 47 -39 152 -135 234 -213 82 -78 166 -151 186 -163 36 -20 36
-20 -6 104 -23 69 -51 137 -61 151 -34 45 -222 209 -358 311 -379 286 -671
398 -884 340z"/>
<path d="M4596 4589 c-276 -30 -380 -66 -791 -274 -357 -180 -538 -277 -569
-304 -26 -23 -53 -79 -75 -161 -11 -39 -23 -80 -26 -90 -5 -16 -3 -17 27 -6
18 6 67 34 108 62 89 60 174 110 331 191 63 34 158 89 210 123 51 35 130 79
174 100 44 21 106 58 138 83 114 90 240 117 543 117 569 0 747 -76 1184 -511
113 -112 153 -170 132 -191 -19 -19 -64 8 -238 148 -406 326 -555 381 -1169
434 -210 18 -405 -19 -405 -76 0 -24 37 -34 127 -34 130 0 216 -16 282 -50 49
-26 81 -33 217 -50 372 -44 531 -106 899 -350 55 -36 129 -84 165 -105 84 -50
110 -73 110 -102 0 -60 -88 -33 -310 97 -366 215 -564 285 -835 297 -114 4
-146 2 -263 -21 -124 -24 -152 -26 -405 -26 -150 0 -303 1 -342 2 -64 2 -80
-2 -180 -46 -60 -26 -148 -71 -195 -99 -99 -61 -121 -93 -145 -207 -9 -41 -20
-85 -25 -97 -9 -21 -8 -21 28 -6 20 8 60 32 87 53 257 195 483 266 825 260
149 -3 261 -3 545 2 166 2 203 0 292 -20 200 -44 415 -136 633 -272 63 -40
156 -94 205 -121 124 -68 218 -149 338 -290 55 -65 106 -119 113 -119 6 0 23
-9 36 -20 25 -19 25 -19 26 18 0 20 5 76 11 125 19 143 10 175 -73 276 -155
186 -195 256 -239 413 -32 116 -55 151 -193 301 -64 70 -143 165 -173 210 -50
73 -71 93 -196 184 -235 171 -188 158 -550 159 -170 1 -345 -2 -389 -7z"/>
<path d="M5836 4317 c-13 -10 -16 -20 -12 -35 4 -12 71 -86 150 -164 130 -130
155 -162 279 -348 150 -228 308 -428 365 -464 20 -13 38 -23 39 -22 6 5 -20
243 -31 279 -10 33 -54 93 -167 228 -241 290 -400 444 -518 503 -67 34 -85 38
-105 23z"/>
<path d="M4027 4109 c-53 -12 -115 -46 -127 -68 -13 -25 -13 -27 6 -45 13 -13
45 -15 237 -10 321 8 407 24 407 74 0 32 -39 40 -254 50 -229 11 -219 11 -269
-1z"/>
<path d="M4116 3644 c-142 -22 -273 -61 -393 -119 -114 -54 -188 -100 -222
-137 -20 -21 -43 -100 -58 -200 -9 -56 -9 -56 21 -40 17 10 63 42 101 73 158
128 308 206 546 288 185 62 209 74 209 106 0 19 -7 26 -37 34 -46 13 -54 13
-167 -5z"/>
<path d="M4620 3604 c-138 -21 -188 -40 -275 -104 -22 -16 -107 -59 -190 -95
-183 -81 -273 -129 -389 -208 -107 -73 -124 -106 -139 -268 -5 -54 -27 -65
210 107 194 142 323 214 555 313 163 69 246 85 438 85 239 -1 387 -37 675
-164 134 -59 157 -79 119 -107 -33 -24 -100 -14 -279 42 -246 76 -319 89 -505
89 -128 0 -172 -4 -250 -23 -225 -55 -494 -196 -631 -331 -62 -60 -59 -48 -75
-249 -2 -35 -8 -69 -11 -75 -15 -25 83 71 139 136 164 190 427 329 698 369
100 14 272 7 385 -16 110 -22 363 -107 461 -155 144 -69 243 -182 285 -324 11
-39 29 -88 40 -108 10 -20 19 -47 19 -60 1 -15 7 -5 19 27 10 28 37 91 59 140
48 109 72 178 72 208 0 57 -126 205 -257 303 -62 46 -77 63 -102 118 -24 54
-40 72 -93 111 -127 94 -388 198 -577 229 -86 15 -330 20 -401 10z"/>
<path d="M4655 2970 c-172 -37 -299 -96 -429 -200 -100 -79 -123 -145 -98
-284 7 -40 7 -40 92 48 136 140 235 203 397 252 118 36 305 39 428 6 202 -54
365 -179 439 -337 21 -44 42 -87 47 -95 5 -8 15 -27 22 -42 12 -26 13 -25 56
70 24 54 45 119 48 147 4 45 1 56 -35 111 -90 138 -273 249 -511 311 -136 35
-331 41 -456 13z"/>
<path d="M3777 2843 c-2 -5 -7 -21 -11 -38 -6 -30 -6 -30 14 -6 21 24 27 51
11 51 -6 0 -12 -3 -14 -7z"/>
<path d="M4666 2654 c-57 -14 -184 -70 -217 -96 -43 -35 -54 -78 -50 -205 1
-52 1 -52 93 17 126 95 183 115 323 115 98 0 116 -3 167 -27 99 -46 137 -83
233 -224 14 -20 25 -31 25 -25 0 7 12 38 27 69 16 34 29 80 31 116 5 58 5 58
-60 120 -72 69 -162 118 -259 141 -79 18 -234 18 -313 -1z"/>
</g>
</svg>
